<svg viewBox="0 0 38 24" xmlns="http://www.w3.org/2000/svg" width="38" height="24" role="img" aria-labelledby="pi-ideal"><title id="pi-ideal">iDEAL</title><path d="M35 0H3C1.3 0 0 1.3 0 3v18c0 1.7 1.4 3 3 3h32c1.7 0 3-1.3 3-3V3c0-1.7-1.4-3-3-3z" fill="#000" opacity=".07"/><path d="M35 1c1.1 0 2 .9 2 2v18c0 1.1-.9 2-2 2H3c-1.1 0-2-.9-2-2V3c0-1.1.9-2 2-2h32" fill="#FFF"/><path d="M16.038 18.776c-.008-.008-.01-.877-.008-3.304l.002-3.293.417-.005c.442-.006.533-.012.73-.05.527-.102.927-.37 1.163-.777.161-.278.235-.566.245-.952a2.048 2.048 0 0 0-.069-.64 1.566 1.566 0 0 0-.505-.808 1.475 1.475 0 0 0-.4-.252 2.093 2.093 0 0 0-.654-.172 8.517 8.517 0 0 0-.502-.014l-.425-.005V5.22h2.513c2.592 0 2.602 0 3.127.03 1.262.076 2.412.28 3.367.596 1.923.637 3.21 1.73 3.889 3.307.192.447.341.972.43 1.515.038.24.075.568.064.578a32.77 32.77 0 0 1-.768.004l-.761-.003-.005-1.367-.004-1.367h-1.049l-.001 1.825c-.002 1.455 0 1.827.009 1.832.006.003.596.006 1.313.006h1.3v.083c0 .168-.023.49-.054.767-.23 2.043-1.17 3.535-2.82 4.482-1.24.712-2.846 1.118-4.906 1.24-.568.034-1.014.038-3.472.039-1.803 0-2.158-.002-2.166-.01zm5.73-6.608c.009-.004.011-.102.009-.46l-.003-.454-.766-.004-.766-.004v-.481l.685-.004.686-.004v-.91l-.686-.003-.685-.005-.003-.203-.002-.204h.72c.547 0 .721-.002.73-.01.008-.007.011-.117.011-.453 0-.334-.003-.445-.011-.453a77.475 77.475 0 0 0-2.505 0c-.008.008-.01.424-.01 1.826 0 1.721 0 1.816.015 1.824.019.01 2.563.011 2.58.001v.001zm1.597 0c.008-.005.06-.145.13-.352l.116-.344.682-.002.682-.003.07.208.116.348a.792.792 0 0 0 .059.145c.008.004.251.007.542.007.435 0 .532-.002.54-.01.008-.008-.136-.433-.617-1.816-.345-.994-.63-1.814-.636-1.823l-.009-.018h-.742c-.611 0-.744.002-.753.01-.006.006-.139.38-.296.833l-.627 1.804c-.117.331-.23.663-.341.996a.03.03 0 0 0 .006.018c.009.009 1.063.006 1.078-.002v.001zm.568-1.646l.17-.507c.16-.473.164-.486.187-.488.015-.001.026.003.032.012.01.018.332.978.332.992 0 .011-.044.012-.363.012h-.363l.005-.021zm-7.901.718a49.173 49.173 0 0 1-.003-.906l.003-.897h.408c.314 0 .422.002.47.01.34.06.516.233.593.585a2.66 2.66 0 0 1 0 .608c-.079.39-.273.565-.671.602-.13.012-.795.011-.8-.002z" fill="#D13288"/><path d="M16.04 18.769c-.002-.006-.002-1.49-.002-3.3l.003-3.29.448-.005c.477-.005.52-.008.726-.05.653-.134 1.113-.54 1.293-1.142.066-.223.086-.374.085-.656 0-.312-.03-.496-.12-.73a1.495 1.495 0 0 0-.472-.668c-.262-.22-.582-.35-.995-.405-.108-.015-.175-.017-.546-.021l-.424-.004V5.224l.02-.005c.034-.007 4.16-.005 4.64.002.923.016 1.604.066 2.341.173 2.161.31 3.805 1.052 4.87 2.197.768.827 1.255 1.87 1.447 3.104.03.192.066.486.067.541 0 .004-.342.006-.76.005l-.759-.002-.002-1.36c-.002-.988-.005-1.36-.012-1.368-.009-.009-.105-.01-.527-.01-.283 0-.521.003-.527.006-.009.005-.011.377-.009 1.835l.002 1.829 1.308.004 1.308.003.003.07c.002.04-.001.15-.007.25-.056.99-.245 1.809-.588 2.558-.428.934-1.09 1.69-1.988 2.272-1.255.812-2.968 1.28-5.173 1.412-.588.034-.923.038-3.367.039-1.814 0-2.28-.003-2.282-.01zm7.332-6.6c.013-.01.05-.109.132-.354l.115-.34.675.002.676.002.115.341c.063.188.12.345.125.35.014.012 1.088.012 1.103 0 .01-.01.012-.003-.274-.826l-.893-2.567a3.684 3.684 0 0 0-.099-.267c-.007-.007-.143-.01-.756-.01-.704 0-.747 0-.755.014-.007.013-.088.24-.377 1.074l-.865 2.489c-.027.072-.028.095-.006.1.008.002.252.005.54.005.489 0 .527 0 .544-.013zm.566-1.638l.257-.762c.076-.229.08-.236.1-.234.02.002.025.011.047.076l.164.49c.076.23.14.42.14.426 0 .006-.095.008-.354.008a8.03 8.03 0 0 1-.354-.004zm-2.152 1.182c.002-.361 0-.46-.01-.464a22.562 22.562 0 0 0-.77-.007h-.76v-.474h.681c.563 0 .681-.001.69-.01.008-.007.009-.135.008-.464l-.003-.454-.688-.002-.687-.002V9.44h.712c.475 0 .72-.003.73-.007.018-.008.018-.022.018-.463 0-.44 0-.454-.017-.462a39.23 39.23 0 0 0-1.258-.007c-1.116 0-1.242 0-1.255.011-.012.012-.014.188-.014 1.825 0 .998.002 1.819.005 1.826.006.011.127.012 1.31.01l1.305-.002.003-.457v-.001zm-5.744-.476c-.006-.3-.008-.6-.006-.9V9.44h.383c.408 0 .482.005.603.04.274.078.422.262.48.595.018.112.02.4 0 .518-.04.24-.114.39-.245.495a.58.58 0 0 1-.22.112c-.124.036-.217.043-.62.043-.203 0-.371-.003-.375-.006z" fill="#D30071"/><path d="M8.068 20.936c-.003-.006-.004-4.032-.003-8.947l.003-8.94h6.459c6.725 0 6.596 0 7.193.032 2.289.123 4.223.572 5.752 1.334.716.357 1.305.75 1.862 1.242a7.22 7.22 0 0 1 1.514 1.845c.592 1.028.95 2.212 1.067 3.526.05.563.053 1.248.009 1.814-.184 2.348-1.078 4.202-2.68 5.562a8.817 8.817 0 0 1-2.274 1.388c-.739.317-1.44.538-2.312.73-1.147.252-2.305.38-3.722.415-.188.005-2.777.008-6.587.008-5.014 0-6.279-.002-6.282-.01v.001zm12.827-.822c2.573-.058 4.631-.498 6.245-1.338 2.558-1.33 3.866-3.63 3.866-6.8 0-1.523-.304-2.828-.92-3.953-.546-.997-1.348-1.829-2.39-2.48-.757-.473-1.69-.866-2.691-1.133-1.207-.321-2.518-.494-4.06-.533-.479-.01-11.908-.01-11.922.003-.015.013-.015 16.22 0 16.233.014.012 11.35.013 11.872.001zm-10.333-4.137v-2.8l1.808.003 1.807.001v5.594l-1.807.002-1.808.002v-2.801zm1.607-3.694a2.508 2.508 0 0 1-1.22-.431 1.935 1.935 0 0 1-.805-1.22 2.495 2.495 0 0 1 0-.59c.081-.423.305-.805.634-1.082.567-.493 1.383-.685 2.162-.51.832.186 1.474.78 1.639 1.515.093.418.026.856-.188 1.227-.109.201-.256.38-.433.525a2.045 2.045 0 0 1-.596.372c-.218.092-.428.15-.66.18a3.37 3.37 0 0 1-.533.014z" fill="#000"/></svg>