<svg viewBox="0 0 38 24" xmlns="http://www.w3.org/2000/svg" role="img" width="38" height="24" aria-labelledby="pi-jko">
  <title id="pi-jko">jko</title>
  <path fill="#000" opacity=".07" d="M35 0H3C1.3 0 0 1.3 0 3v18c0 1.7 1.4 3 3 3h32c1.7 0 3-1.3 3-3V3c0-1.7-1.4-3-3-3z"/>
  <path fill="#fff" d="M35 1c1.1 0 2 .9 2 2v18c0 1.1-.9 2-2 2H3c-1.1 0-2-.9-2-2V3c0-1.1.9-2 2-2h32"/>
  <g transform="matrix(1, 0, 0, 1, 0.031849, -0.015287)">
    <path fill="#000" opacity=".07" d="M 35 0 L 3 0 C 1.3 0 0 1.3 0 3 L 0 21 C 0 22.7 1.4 24 3 24 L 35 24 C 36.7 24 38 22.7 38 21 L 38 3 C 38 1.3 36.6 0 35 0 Z"/>
    <path d="M 35 1 C 36.1 1 37 1.9 37 3 L 37 21 C 37 22.1 36.1 23 35 23 L 3 23 C 1.9 23 1 22.1 1 21 L 1 3 C 1 1.9 1.9 1 3 1 L 35 1 Z" style="fill: rgb(224, 23, 36);"/>
    <path fill="#FA9CA2" opacity="1.000000" stroke="none" d="M 30.312 21.746 C 30.312 21.857 30.312 21.967 30.312 22.077 C 23.362 22.078 16.412 22.078 9.408 22.046 C 9.353 21.972 9.349 21.931 9.4 21.883 C 16.147 21.88 22.84 21.881 29.53 21.875 C 29.751 21.875 29.972 21.79 30.222 21.745 C 30.272 21.746 30.292 21.746 30.312 21.746 Z" style=""/>
    <path fill="#FFDBDF" opacity="1.000000" stroke="none" d="M 9.345 21.888 C 9.349 21.931 9.353 21.972 9.354 22.046 C 9.275 22.041 9.144 22.018 9.129 21.966 C 9.095 21.846 9.12 21.711 9.12 21.582 C 9.12 15.073 9.12 8.563 9.181 2.095 C 9.256 2.19 9.265 2.244 9.278 2.349 C 9.277 8.841 9.272 15.281 9.261 21.748 C 9.252 21.815 9.271 21.845 9.323 21.865 C 9.334 21.87 9.345 21.888 9.345 21.888 Z" style=""/>
    <path fill="#FFA6AF" opacity="1.000000" stroke="none" d="M 9.469 2.054 C 16.341 2.054 23.212 2.054 30.123 2.077 C 30.135 2.128 30.106 2.15 30.018 2.173 C 28.29 2.177 26.617 2.178 24.942 2.177 C 19.786 2.173 14.629 2.168 9.471 2.137 C 9.469 2.109 9.469 2.054 9.469 2.054 Z" style=""/>
    <path fill="#FF97A0" opacity="1.000000" stroke="none" d="M 30.312 21.695 C 30.292 21.746 30.272 21.746 30.213 21.693 C 30.176 15.189 30.178 8.736 30.213 2.28 C 30.269 2.278 30.291 2.277 30.312 2.275 C 30.312 8.731 30.312 15.186 30.312 21.695 Z" style=""/>
    <path fill="#FA9CA2" opacity="1.000000" stroke="none" d="M 9.431 2.054 C 9.469 2.054 9.469 2.109 9.444 2.152 C 9.371 2.229 9.323 2.264 9.275 2.298 C 9.265 2.244 9.256 2.19 9.241 2.095 C 9.287 2.054 9.34 2.054 9.431 2.054 Z" style=""/>
    <path fill="#FA9CA2" opacity="1.000000" stroke="none" d="M 30.312 2.22 C 30.291 2.277 30.269 2.278 30.194 2.264 C 30.116 2.224 30.093 2.198 30.073 2.17 C 30.106 2.15 30.135 2.128 30.178 2.077 C 30.234 2.092 30.272 2.128 30.312 2.22 Z" style=""/>
    <path opacity="1.000000" stroke="none" d="M 30.018 2.173 C 30.093 2.198 30.116 2.224 30.161 2.265 C 30.178 8.736 30.176 15.189 30.182 21.693 C 29.972 21.79 29.751 21.875 29.53 21.875 C 22.84 21.881 16.147 21.88 9.4 21.883 C 9.345 21.888 9.334 21.87 9.328 21.84 C 9.319 21.772 9.303 21.743 9.269 21.722 C 9.272 15.281 9.277 8.841 9.278 2.349 C 9.323 2.264 9.371 2.229 9.446 2.179 C 14.629 2.168 19.786 2.173 24.942 2.177 C 26.617 2.178 28.29 2.177 30.018 2.173 M 18.99 6.755 C 18.983 7.592 18.983 7.592 18.118 7.594 C 17.983 7.594 17.845 7.592 17.709 7.594 C 17.14 7.608 16.918 7.809 16.911 8.318 C 16.906 8.863 17.124 9.073 17.724 9.087 C 17.997 9.093 18.277 9.056 18.54 9.103 C 18.698 9.133 18.915 9.261 18.961 9.389 C 19.218 10.121 18.947 10.454 18.138 10.456 C 18.04 10.456 17.943 10.456 17.844 10.456 C 17.14 10.465 16.906 10.66 16.914 11.233 C 16.92 11.774 17.158 11.969 17.819 11.979 C 18.072 11.983 18.331 11.953 18.579 11.996 C 18.72 12.021 18.913 12.134 18.959 12.251 C 19.213 12.91 18.936 13.262 18.196 13.267 C 18.02 13.268 17.844 13.26 17.671 13.271 C 17.111 13.303 16.905 13.52 16.91 14.04 C 16.917 14.539 17.169 14.785 17.708 14.778 C 19.164 14.755 18.978 14.685 18.99 16.054 C 18.99 16.109 19.014 16.182 18.984 16.217 C 18.849 16.383 18.728 16.629 18.547 16.684 C 18.047 16.834 17.522 16.906 17.005 17.004 C 16.563 17.091 16.228 17.261 16.288 17.77 C 16.357 18.386 16.596 18.656 17.206 18.61 C 19.112 18.461 20.938 18.042 22.532 16.974 C 22.994 16.664 23.071 16.235 22.762 15.77 C 22.471 15.33 22.088 15.429 21.693 15.629 C 21.572 15.69 21.446 15.743 21.321 15.792 C 20.767 16.009 20.575 15.874 20.579 15.305 C 20.582 14.933 20.75 14.76 21.145 14.776 C 21.379 14.785 21.614 14.783 21.848 14.774 C 22.403 14.753 22.622 14.534 22.627 14.02 C 22.632 13.517 22.368 13.271 21.841 13.268 C 21.607 13.267 21.372 13.258 21.139 13.268 C 20.641 13.288 20.576 12.998 20.579 12.621 C 20.581 12.252 20.613 11.958 21.13 11.976 C 21.735 11.997 22.34 11.979 22.944 11.981 C 23.778 11.982 23.778 11.983 23.778 12.792 C 23.778 14.542 23.786 16.293 23.776 18.045 C 23.773 18.542 23.983 18.806 24.532 18.806 C 25.142 18.806 25.353 18.639 25.354 18.061 C 25.362 16.254 25.371 14.449 25.349 12.642 C 25.343 12.139 25.528 11.934 26.064 11.973 C 26.493 12.004 26.925 11.989 27.353 11.973 C 27.788 11.957 28.028 11.745 28.048 11.314 C 28.081 10.683 27.868 10.461 27.151 10.459 C 25.161 10.453 23.172 10.448 21.182 10.461 C 20.661 10.466 20.573 10.21 20.576 9.8 C 20.58 9.39 20.608 9.048 21.186 9.085 C 21.478 9.102 21.776 9.111 22.063 9.072 C 22.527 9.011 22.635 8.685 22.626 8.298 C 22.618 7.927 22.477 7.652 22.04 7.601 C 21.588 7.548 20.964 7.646 20.731 7.405 C 20.486 7.15 20.608 6.574 20.582 6.138 C 20.556 5.649 20.271 5.467 19.781 5.467 C 19.28 5.469 19.009 5.676 18.993 6.155 C 18.987 6.32 18.99 6.486 18.99 6.755 M 13.945 17.79 C 13.966 18.185 13.862 18.64 14.436 18.784 C 15.133 18.959 15.537 18.671 15.541 17.982 C 15.549 16.104 15.53 14.226 15.559 12.347 C 15.562 12.066 15.72 11.767 15.873 11.51 C 16.149 11.048 16.518 10.633 16.771 10.161 C 17.054 9.636 16.604 9.325 16.227 9.087 C 16.077 8.991 15.641 9.036 15.543 9.161 C 14.59 10.4 13.439 11.423 12.066 12.236 C 11.91 12.327 11.791 12.661 11.841 12.835 C 12.035 13.511 12.631 13.729 13.29 13.421 C 13.473 13.335 13.657 13.253 13.945 13.122 C 13.945 14.716 13.945 16.2 13.945 17.79 M 14.082 7.243 C 13.49 7.658 12.884 8.061 12.312 8.5 C 12.138 8.632 11.94 8.872 11.946 9.056 C 11.969 9.662 12.768 10.105 13.303 9.78 C 14.116 9.287 14.917 8.755 15.627 8.142 C 16.09 7.744 16.419 7.193 16.739 6.673 C 16.994 6.259 16.743 5.765 16.233 5.485 C 15.766 5.226 15.578 5.565 15.342 5.838 C 14.951 6.293 14.543 6.739 14.082 7.243 M 25.892 6.225 C 25.427 5.484 24.764 5.22 24.05 5.49 C 23.4 5.738 22.952 6.458 23.198 7.12 C 23.559 8.094 24.048 9.027 24.482 9.976 C 24.535 9.975 24.588 9.974 24.641 9.972 C 25.022 9.197 25.452 8.44 25.765 7.641 C 25.926 7.234 25.88 6.755 25.892 6.225 Z" style="fill: rgb(224, 23, 36);"/>
    <path fill="#FA9CA2" opacity="1.000000" stroke="none" d="M 9.261 21.748 C 9.303 21.743 9.319 21.772 9.317 21.835 C 9.271 21.845 9.252 21.815 9.261 21.748 Z" style=""/>
    <path fill="#FFF3F4" opacity="1.000000" stroke="none" d="M 18.99 6.704 C 18.99 6.486 18.987 6.32 18.993 6.155 C 19.009 5.676 19.28 5.469 19.781 5.467 C 20.271 5.467 20.556 5.649 20.582 6.138 C 20.608 6.574 20.486 7.15 20.731 7.405 C 20.964 7.646 21.588 7.548 22.04 7.601 C 22.477 7.652 22.618 7.927 22.626 8.298 C 22.635 8.685 22.527 9.011 22.063 9.072 C 21.776 9.111 21.478 9.102 21.186 9.085 C 20.608 9.048 20.58 9.39 20.576 9.8 C 20.573 10.21 20.661 10.466 21.182 10.461 C 23.172 10.448 25.161 10.453 27.151 10.459 C 27.868 10.461 28.081 10.683 28.048 11.314 C 28.028 11.745 27.788 11.957 27.353 11.973 C 26.925 11.989 26.493 12.004 26.064 11.973 C 25.528 11.934 25.343 12.139 25.349 12.642 C 25.371 14.449 25.362 16.254 25.354 18.061 C 25.353 18.639 25.142 18.806 24.532 18.806 C 23.983 18.806 23.773 18.542 23.776 18.045 C 23.786 16.293 23.778 14.542 23.778 12.792 C 23.778 11.983 23.778 11.982 22.944 11.981 C 22.34 11.979 21.735 11.997 21.13 11.976 C 20.613 11.958 20.581 12.252 20.579 12.621 C 20.576 12.998 20.641 13.288 21.139 13.268 C 21.372 13.258 21.607 13.267 21.841 13.268 C 22.368 13.271 22.632 13.517 22.627 14.02 C 22.622 14.534 22.403 14.753 21.848 14.774 C 21.614 14.783 21.379 14.785 21.145 14.776 C 20.75 14.76 20.582 14.933 20.579 15.305 C 20.575 15.874 20.767 16.009 21.321 15.792 C 21.446 15.743 21.572 15.69 21.693 15.629 C 22.088 15.429 22.471 15.33 22.762 15.77 C 23.071 16.235 22.994 16.664 22.532 16.974 C 20.938 18.042 19.112 18.461 17.206 18.61 C 16.596 18.656 16.357 18.386 16.288 17.77 C 16.228 17.261 16.563 17.091 17.005 17.004 C 17.522 16.906 18.047 16.834 18.547 16.684 C 18.728 16.629 18.849 16.383 18.984 16.217 C 19.014 16.182 18.99 16.109 18.99 16.054 C 18.978 14.685 19.164 14.755 17.708 14.778 C 17.169 14.785 16.917 14.539 16.91 14.04 C 16.905 13.52 17.111 13.303 17.671 13.271 C 17.844 13.26 18.02 13.268 18.196 13.267 C 18.936 13.262 19.213 12.91 18.959 12.251 C 18.913 12.134 18.72 12.021 18.579 11.996 C 18.331 11.953 18.072 11.983 17.819 11.979 C 17.158 11.969 16.92 11.774 16.914 11.233 C 16.906 10.66 17.14 10.465 17.844 10.456 C 17.943 10.456 18.04 10.456 18.138 10.456 C 18.947 10.454 19.218 10.121 18.961 9.389 C 18.915 9.261 18.698 9.133 18.54 9.103 C 18.277 9.056 17.997 9.093 17.724 9.087 C 17.124 9.073 16.906 8.863 16.911 8.318 C 16.918 7.809 17.14 7.608 17.709 7.594 C 17.845 7.592 17.983 7.594 18.118 7.594 C 18.983 7.592 18.983 7.592 18.99 6.704 Z" style=""/>
    <path fill="#FFF2F4" opacity="1.000000" stroke="none" d="M 13.945 17.737 C 13.945 16.2 13.945 14.716 13.945 13.122 C 13.657 13.253 13.473 13.335 13.29 13.421 C 12.631 13.729 12.035 13.511 11.841 12.835 C 11.791 12.661 11.91 12.327 12.066 12.236 C 13.439 11.423 14.59 10.4 15.543 9.161 C 15.641 9.036 16.077 8.991 16.227 9.087 C 16.604 9.325 17.054 9.636 16.771 10.161 C 16.518 10.633 16.149 11.048 15.873 11.51 C 15.72 11.767 15.562 12.066 15.559 12.347 C 15.53 14.226 15.549 16.104 15.541 17.982 C 15.537 18.671 15.133 18.959 14.436 18.784 C 13.862 18.64 13.966 18.185 13.945 17.737 Z" style=""/>
    <path fill="#FFF3F4" opacity="1.000000" stroke="none" d="M 14.112 7.215 C 14.543 6.739 14.951 6.293 15.342 5.838 C 15.578 5.565 15.766 5.226 16.233 5.485 C 16.743 5.765 16.994 6.259 16.739 6.673 C 16.419 7.193 16.09 7.744 15.627 8.142 C 14.917 8.755 14.116 9.287 13.303 9.78 C 12.768 10.105 11.969 9.662 11.946 9.056 C 11.94 8.872 12.138 8.632 12.312 8.5 C 12.884 8.061 13.49 7.658 14.112 7.215 Z" style=""/>
    <path fill="#FEEFF1" opacity="1.000000" stroke="none" d="M 25.911 6.268 C 25.88 6.755 25.926 7.234 25.765 7.641 C 25.452 8.44 25.022 9.197 24.641 9.972 C 24.588 9.974 24.535 9.975 24.482 9.976 C 24.048 9.027 23.559 8.094 23.198 7.12 C 22.952 6.458 23.4 5.738 24.05 5.49 C 24.764 5.22 25.427 5.484 25.911 6.268 M 24.048 6.692 C 24.092 7.194 24.37 7.462 24.727 7.293 C 24.896 7.213 25.083 6.974 25.081 6.809 C 25.077 6.64 24.862 6.344 24.727 6.336 C 24.514 6.325 24.291 6.511 24.048 6.692 Z" style=""/>
    <path fill="#DA323D" opacity="1.000000" stroke="none" d="M 24.061 6.653 C 24.291 6.511 24.514 6.325 24.727 6.336 C 24.862 6.344 25.077 6.64 25.081 6.809 C 25.083 6.974 24.896 7.213 24.727 7.293 C 24.37 7.462 24.092 7.194 24.061 6.653 Z" style=""/>
  </g>
  <path fill="rgb(255,0,0)" stroke="rgb(255,0,0)" stroke-width="0" opacity="0.9568627450980393" d="M 9.845 7.586 C 10.106 8.028 9.924 9.675 9.908 10.566 C 9.897 11.19 9.9 11.953 9.838 12.399 C 9.829 12.531 9.818 12.67 9.807 12.81 C 9.769 13.302 9.588 14.007 9.448 14.672 C 9.486 14.694 9.518 14.718 9.54 14.743 C 9.643 14.863 9.594 14.993 9.604 15.25 C 9.621 15.718 9.497 16.862 9.54 17.532 C 9.569 17.977 9.731 18.486 9.783 18.817 C 9.862 19.058 9.834 19.452 9.794 19.656 C 9.758 19.837 9.695 19.987 9.572 20.068 C 9.516 20.105 9.433 20.13 9.344 20.144 C 9.47 20.662 9.756 21.261 9.819 21.653 C 10.032 21.731 10.278 21.797 10.552 21.851 C 10.576 21.771 10.615 21.724 10.7 21.666 C 10.849 21.563 11.028 21.486 11.461 21.412 C 12.367 21.258 15.251 21.139 16.532 21.095 C 17.431 21.065 18.217 20.988 18.624 21.095 C 18.854 21.156 18.959 21.261 19.036 21.38 C 19.106 21.488 19.124 21.641 19.1 21.761 C 19.097 21.774 19.095 21.788 19.094 21.801 C 20.364 21.702 21.491 21.604 22.276 21.564 C 24.224 21.464 25.176 21.109 26.523 20.994 C 27.607 20.901 29.071 21.194 29.813 20.998 C 29.816 19.356 29.892 14.252 30.13 13.393 C 30.137 13.368 30.144 13.345 30.152 13.324 C 29.957 11.589 29.722 9.712 29.661 8.601 C 29.595 7.403 29.644 6.643 29.661 5.938 C 29.673 5.414 29.743 5.134 29.724 4.67 C 29.702 4.142 29.797 3.239 29.502 2.927 C 29.237 2.647 28.996 2.768 28.171 2.737 C 26.098 2.659 17.914 3.225 14.732 3.117 C 12.661 3.047 11.003 2.635 10.168 2.61 C 9.767 2.598 9.572 2.537 9.439 2.674 C 9.301 2.815 9.364 3.044 9.375 3.466 C 9.395 4.221 9.849 6.607 9.84 7.577 C 9.841 7.58 9.843 7.583 9.845 7.586 Z M 9.851 1.533 C 10.401 1.515 11.134 1.52 11.753 1.596 C 12.359 1.67 12.72 1.894 13.528 1.976 C 13.658 1.989 13.795 2.001 13.939 2.011 C 13.938 1.982 13.939 1.955 13.94 1.932 C 13.945 1.841 13.957 1.768 14.003 1.71 C 14.05 1.65 14.047 1.616 14.225 1.583 C 14.823 1.473 18.601 1.463 19.55 1.583 C 20.001 1.641 20.195 1.691 20.342 1.837 C 20.382 1.876 20.412 1.925 20.433 1.979 C 23.503 1.828 27.881 1.469 29.312 1.659 C 30.068 1.76 30.277 1.733 30.548 2.166 C 30.962 2.828 30.776 4.866 30.802 6.002 C 30.824 6.973 30.692 7.38 30.738 8.601 C 30.778 9.655 30.979 11.434 31.165 13.208 C 31.246 13.37 31.252 13.616 31.24 13.937 C 31.374 15.26 31.485 16.522 31.499 17.412 C 31.523 18.987 31.451 20.35 31.246 21.089 C 31.144 21.453 31.217 21.615 30.94 21.791 C 30.935 21.874 30.923 21.94 30.891 22.014 C 30.83 22.154 30.711 22.242 30.605 22.3 C 30.509 22.352 30.4 22.381 30.288 22.363 C 30.159 22.342 29.961 22.283 29.876 22.141 C 29.871 22.132 29.865 22.123 29.861 22.113 C 27.541 22.509 22.22 22.652 20.437 22.642 C 19.303 22.635 19.334 22.443 18.219 22.388 C 17.94 22.374 17.572 22.369 17.143 22.37 C 14.922 22.576 11.389 22.71 10.827 22.617 C 10.639 22.586 10.651 22.554 10.614 22.475 C 9.649 22.477 8.895 22.456 8.583 22.388 C 8.247 22.316 8.283 22.388 8.171 22.103 C 7.842 21.262 7.742 16.624 7.854 14.623 C 7.94 13.103 8.161 11.402 8.488 10.915 C 8.535 10.845 8.588 10.798 8.644 10.767 C 8.653 9.776 8.713 8.667 8.783 8.082 C 8.767 8.065 8.753 8.048 8.742 8.03 C 8.585 7.785 8.805 7.217 8.742 6.826 C 8.678 6.435 8.442 6.189 8.361 5.685 C 8.246 4.965 8.207 3.482 8.298 2.769 C 8.36 2.275 8.392 1.866 8.646 1.659 C 8.905 1.449 9.391 1.548 9.851 1.533 Z M 24.499 6.298 C 24.584 6.285 24.696 6.293 24.778 6.323 C 24.858 6.352 24.934 6.407 24.988 6.469 C 25.042 6.531 25.084 6.622 25.102 6.697 C 25.118 6.766 25.125 6.823 25.102 6.9 C 25.07 7.004 24.964 7.188 24.88 7.262 C 24.814 7.32 24.731 7.337 24.664 7.35 C 24.606 7.362 24.564 7.37 24.499 7.35 C 24.41 7.323 24.244 7.228 24.176 7.154 C 24.122 7.096 24.104 7.028 24.087 6.964 C 24.071 6.901 24.066 6.841 24.074 6.773 C 24.084 6.698 24.113 6.599 24.151 6.532 C 24.185 6.472 24.228 6.425 24.284 6.386 C 24.343 6.345 24.42 6.309 24.499 6.298 Z M 26.301 5.709 C 26.373 5.691 26.442 5.689 26.516 5.709 C 26.6 5.732 26.715 5.799 26.776 5.855 C 26.827 5.901 26.854 5.948 26.878 6.007 C 26.903 6.073 26.921 6.159 26.916 6.236 C 26.91 6.315 26.875 6.414 26.84 6.477 C 26.81 6.529 26.774 6.563 26.732 6.597 C 26.688 6.633 26.64 6.667 26.58 6.686 C 26.511 6.708 26.424 6.73 26.339 6.711 C 26.238 6.689 26.088 6.617 26.015 6.527 C 25.942 6.437 25.894 6.287 25.901 6.172 C 25.908 6.057 25.986 5.914 26.06 5.836 C 26.124 5.767 26.221 5.729 26.301 5.709 Z" style="fill: rgb(224, 23, 36); fill-opacity: 1; fill-rule: nonzero; stroke: none; stroke-dasharray: none; stroke-dashoffset: 0px; stroke-linecap: butt; stroke-linejoin: miter; stroke-miterlimit: 4; stroke-opacity: 1; stroke-width: 1px; paint-order: normal; vector-effect: none; opacity: 1; mix-blend-mode: normal; isolation: auto;"/>
</svg>
