<!-- DO NOT DELETE EXAMPLE -->
<svg viewBox="0 0 38 24" xmlns="http://www.w3.org/2000/svg" role="img" width="38" height="24" aria-labelledby="pi-visa"><title id="pi-visa">Visa</title><path opacity=".07" d="M35 0H3C1.3 0 0 1.3 0 3v18c0 1.7 1.4 3 3 3h32c1.7 0 3-1.3 3-3V3c0-1.7-1.4-3-3-3z"/><path fill="#fff" d="M35 1c1.1 0 2 .9 2 2v18c0 1.1-.9 2-2 2H3c-1.1 0-2-.9-2-2V3c0-1.1.9-2 2-2h32"/><path d="M28.3 10.1H28c-.4 1-.7 1.5-1 3h1.9c-.3-1.5-.3-2.2-.6-3zm2.9 5.9h-1.7c-.1 0-.1 0-.2-.1l-.2-.9-.1-.2h-2.4c-.1 0-.2 0-.2.2l-.3.9c0 .1-.1.1-.1.1h-2.1l.2-.5L27 8.7c0-.5.3-.7.8-.7h1.5c.1 0 .2 0 .2.2l1.4 6.5c.1.4.2.7.2 1.1.1.1.1.1.1.2zm-13.4-.3l.4-1.8c.1 0 .2.1.2.1.7.3 1.4.5 2.1.4.2 0 .5-.1.7-.2.5-.2.5-.7.1-1.1-.2-.2-.5-.3-.8-.5-.4-.2-.8-.4-1.1-.7-1.2-1-.8-2.4-.1-3.1.6-.4.9-.8 1.7-.8 1.2 0 2.5 0 3.1.2h.1c-.1.6-.2 1.1-.4 1.7-.5-.2-1-.4-1.5-.4-.3 0-.6 0-.9.1-.2 0-.3.1-.4.2-.2.2-.2.5 0 .7l.5.4c.4.2.8.4 1.1.6.5.3 1 .8 1.1 1.4.2.9-.1 1.7-.9 2.3-.5.4-.7.6-1.4.6-1.4 0-2.5.1-3.4-.2-.1.2-.1.2-.2.1zm-3.5.3c.1-.7.1-.7.2-1 .5-2.2 1-4.5 1.4-6.7.1-.2.1-.3.3-.3H18c-.2 1.2-.4 2.1-.7 3.2-.3 1.5-.6 3-1 4.5 0 .2-.1.2-.3.2M5 8.2c0-.1.2-.2.3-.2h3.4c.5 0 .9.3 1 .8l.9 4.4c0 .1 0 .1.1.2 0-.1.1-.1.1-.1l2.1-5.1c-.1-.1 0-.2.1-.2h2.1c0 .1 0 .1-.1.2l-3.1 7.3c-.1.2-.1.3-.2.4-.1.1-.3 0-.5 0H9.7c-.1 0-.2 0-.2-.2L7.9 9.5c-.2-.2-.5-.5-.9-.6-.6-.3-1.7-.5-1.9-.5L5 8.2z" fill="#142688"/></svg>
<svg xmlns="http://www.w3.org/2000/svg" width="38" height="24" aria-labelledby="pi-exito"><title id="pi-exito">Exito</title><path opacity=".07" d="M35 0H3C1.3 0 0 1.3 0 3v18c0 1.7 1.4 3 3 3h32c1.7 0 3-1.3 3-3V3c0-1.7-1.4-3-3-3z"/><path fill="#fff" d="M35 1c1.1 0 2 .9 2 2v18c0 1.1-.9 2-2 2H3c-1.1 0-2-.9-2-2V3c0-1.1.9-2 2-2h32"/><path fill="#262324" d="M9.67 11.3A3.92 3.92 0 009 9.85c-.32-.44-.73-.79-1.21-1.03-.53-.25-1.11-.37-1.7-.37-.54 0-1.07.11-1.58.3-.48.19-.91.48-1.27.85-.35.36-.62.8-.79 1.27-.19.51-.3 1.05-.3 1.59-.02.56.07 1.11.24 1.64.17.48.44.91.79 1.27.35.38.78.68 1.27.85.52.2 1.08.3 1.64.3.79.03 1.57-.18 2.24-.61.32-.2.59-.47.79-.79.25-.35.44-.74.55-1.15l.06-.18s-.03-.06-.06-.06h-2c-.12 0-.12.06-.12.06v.06c-.02.09-.06.18-.12.24-.06.12-.18.18-.3.3-.29.19-.63.27-.97.24-.23 0-.45-.05-.67-.12a1.29 1.29 0 01-.79-.79c-.08-.19-.12-.4-.12-.61h5.21c.06 0 .06-.12.06-.12v-.43c0-.43-.06-.86-.18-1.27m-4.8-.47c.13-.14.27-.26.43-.37.23-.11.48-.15.73-.12.2-.01.41 0 .61.06.15.03.28.12.37.24.2.25.35.54.43.85H4.59c0-.06.06-.18.06-.24.06-.15.14-.3.24-.43"/><path fill="#262324" d="M17.24 16.27l-2.79-4 2.54-3.58s.06-.06-.06-.06h-2.54s-.09.03-.12.06l-1.15 1.7-1.15-1.7s-.08-.05-.12-.06h-2.6s-.06.03-.06.06l.18.24 2.36 3.39-2.73 4s-.06.06.06.06h2.55c.12 0 .12-.06.12-.06l1.4-2.06 1.4 2.06s.08.05.12.06h2.55c.12-.06.06-.12.06-.12m3.19-7.62h-2.97c-.12 0-.06.06-.06.06l.43 7.58s0 .12.06.12h2.06c.06 0 .06-.12.06-.12l.43-7.58c.06 0 .06-.06 0-.06m5.57 1.69s.06 0 .06-.12V8.63s-.03-.06-.06-.06h-1.4V6.45s-.03-.06-.06-.06h-2.24s-.06.03-.06.06v2.12h-1.15c-.12 0-.12.06-.12.06v1.58s.03.06.06.06h1.15v4.12c0 .33.05.66.18.97.14.26.35.47.61.61.25.14.51.24.79.3.3.05.6.07.91.06h.61c.2.01.41 0 .61-.06h.06s.06 0 .06-.12v-1.82c0-.12-.06-.06-.06-.06h-.18c-.1.03-.2.05-.3.06h-.31c-.18 0-.3 0-.37-.06-.06 0-.12-.06-.18-.06a.3.3 0 01-.06-.18c0-.12-.06-.24-.06-.37v-3.45h1.51v.12zm7.94.49c-.19-.47-.46-.9-.79-1.27a4.365 4.365 0 00-4.55-.85c-.48.19-.91.48-1.27.85-.35.36-.62.8-.79 1.27-.2.54-.3 1.12-.3 1.7 0 .56.11 1.11.3 1.64.19.47.46.9.79 1.27a4.365 4.365 0 004.55.85c.48-.19.91-.48 1.27-.85.35-.36.62-.8.79-1.27.2-.52.3-1.08.3-1.64 0-.58-.11-1.15-.3-1.7M31 14.45c-.24.14-.51.2-.79.18-.26.01-.51-.05-.73-.18-.21-.11-.37-.28-.49-.49-.12-.21-.2-.43-.24-.67-.05-.26-.07-.52-.06-.79 0-.28.01-.57.06-.85.04-.23.13-.46.24-.67.13-.19.3-.36.49-.49.22-.13.47-.19.73-.18.27 0 .54.06.79.18.19.13.36.3.49.49.14.19.23.43.24.67.05.28.07.56.06.85 0 .28-.01.57-.06.85-.04.23-.13.46-.24.67-.12.19-.29.34-.49.43"/><path fill="#ee3124" d="M20.39 18.21a1.451 1.451 0 00-2.9 0c0 .8.65 1.45 1.45 1.45.8-.01 1.44-.66 1.45-1.45"/><path fill="#262324" d="M6.39 6.46L5.24 7.85s-.06.06 0 .06h1.33c.07 0 .13-.02.18-.06L8.63 6.4s.06-.06 0-.06H6.51l-.12.12m29.76 2.9c-.01.17-.05.33-.12.49-.09.15-.21.28-.37.37-.15.08-.32.12-.49.12a1.41 1.41 0 01-.49-.12 1.01 1.01 0 01-.37-.37c-.08-.15-.12-.32-.12-.49.01-.17.05-.33.12-.49.09-.15.21-.28.37-.37.15-.08.32-.12.49-.12.17.01.33.05.49.12.15.09.28.21.37.37.07.15.11.32.12.49m-.18 0c0-.21-.09-.41-.24-.55a.756.756 0 00-.55-.24c-.21 0-.41.09-.55.24-.15.14-.24.34-.24.55 0 .21.09.41.24.55.14.15.34.24.55.24.21 0 .41-.09.55-.24a.58.58 0 00.24-.55m-1.21-.48h.42c.11-.02.21 0 .3.06.08.11.08.26 0 .37-.06.06-.12.06-.18.12q.06 0 .06.06s.05.08.06.12c.06.11.12.21.18.3h-.24a.854.854 0 01-.18-.37q-.06-.06-.12-.06v.43h-.3V8.87zm.24.42h.12c.07 0 .13-.01.18-.06.03-.03.05-.08.06-.12q0-.06-.06-.06s-.08-.05-.12-.06h-.12v.3H35z"/></svg>
<br/>
<svg xmlns="http://www.w3.org/2000/svg" width="38" height="24" aria-labelledby="pi-illicado"><title id="pi-illicado">Illicado</title><path opacity=".07" d="M35 0H3C1.3 0 0 1.3 0 3v18c0 1.7 1.4 3 3 3h32c1.7 0 3-1.3 3-3V3c0-1.7-1.4-3-3-3z"/><path fill="#fff" d="M35 1c1.1 0 2 .9 2 2v18c0 1.1-.9 2-2 2H3c-1.1 0-2-.9-2-2V3c0-1.1.9-2 2-2h32"/><path fill="#221b45" d="M28.09 21.1H4.14c-.52 0-1.03-.22-1.4-.59s-.59-.88-.59-1.4V6.89c0-.52.22-1.03.59-1.4.37-.37.88-.59 1.4-.59h23.95c2.13 0 4.19.85 5.7 2.35 1.51 1.51 2.35 3.57 2.35 5.74s-.81 4.19-2.35 5.74a8.068 8.068 0 01-5.7 2.35z"/><path fill="#fff" d="M16.65 12.67c-.15 0-.29.04-.44.07-.15.07-.26.15-.37.26-.22.22-.29.52-.29.85 0 .29.07.63.29.85.11.11.22.18.37.26s.29.07.44.07c.18 0 .4-.04.59-.11.18-.07.33-.22.48-.37l.59.48c-.18.26-.4.44-.7.59-.33.15-.66.22-1.03.22s-.7-.07-1.03-.26c-.29-.15-.55-.4-.7-.7-.15-.33-.26-.7-.26-1.03s.07-.74.26-1.03c.15-.29.4-.55.7-.7.33-.18.66-.26 1.03-.26.33 0 .66.07.96.18.26.11.52.29.66.55l-.59.55c-.11-.15-.29-.26-.44-.33a.858.858 0 00-.52-.15zM21.28 15.8v-.48c-.15.18-.33.29-.52.4-.22.07-.48.15-.74.15s-.52-.04-.74-.15c-.18-.11-.37-.26-.48-.44s-.18-.4-.18-.63c0-.15.04-.33.11-.48s.18-.29.29-.37c.33-.22.7-.33 1.1-.33h1.14v-.11c0-.11 0-.22-.04-.29-.04-.11-.11-.18-.18-.26a.841.841 0 00-.66-.18c-.4 0-.81.15-1.18.37l-.33-.66c.26-.15.55-.29.85-.37s.59-.11.88-.11c.44-.04.85.11 1.18.37.15.11.26.29.33.44.07.18.11.37.11.55v2.58h-.96zm-.33-.89c.07-.04.18-.11.22-.22.07-.07.11-.18.11-.29v-.33h-1.03c-.18 0-.4.04-.55.11-.07.04-.11.11-.15.15-.04.07-.04.15-.04.22s0 .15.04.22.07.11.15.18c.15.11.33.15.52.15.29 0 .52-.07.74-.18zM27.1 10.31v5.45h-.96v-.63c-.15.22-.33.4-.55.52-.26.11-.52.18-.77.18-.33 0-.7-.07-.99-.26s-.52-.4-.66-.7c-.15-.33-.26-.7-.22-1.07 0-.37.07-.7.22-1.03.15-.29.4-.55.7-.7.29-.18.63-.26.96-.26.26 0 .55.04.77.18.22.11.4.29.55.52v-2.17h.96v-.04zm-1.25 4.38c.18-.26.29-.55.29-.85s-.11-.63-.29-.85c-.11-.11-.22-.18-.37-.26s-.29-.11-.44-.11-.29.04-.44.07c-.15.07-.26.15-.37.26-.18.26-.29.55-.29.85s.11.63.29.85c.11.11.22.18.37.26s.29.07.44.07.29-.04.44-.07c.15-.04.26-.11.37-.22zM31.15 12.08c.29.15.55.4.74.7.18.33.26.66.26 1.03s-.07.74-.26 1.07c-.18.29-.4.55-.74.7-.33.18-.7.26-1.07.26s-.74-.07-1.1-.26c-.29-.15-.55-.4-.74-.7-.18-.33-.26-.7-.26-1.07s.07-.74.26-1.03.44-.55.74-.7c.33-.18.7-.26 1.1-.26.33 0 .7.07 1.07.26zm-1.92.88c-.18.26-.29.55-.29.85s.11.63.29.85c.11.11.22.18.37.26s.29.07.44.07.29-.04.44-.07.26-.15.37-.26c.18-.26.29-.55.29-.85s-.11-.63-.29-.85c-.11-.11-.22-.18-.37-.26s-.29-.07-.44-.07-.29.04-.44.07c-.11.07-.26.15-.37.26z"/><path fill="#ff9699" d="M9.44 8.69h-.63c-.07 0-.15.04-.18.07s-.07.11-.07.18v6.55c0 .07.04.11.07.18.04.04.11.07.18.07h.63c.07 0 .11-.04.18-.07s.07-.11.07-.18V8.94c0-.07-.04-.11-.07-.18-.07-.04-.15-.04-.18-.07zm-2.03 3.1h-.63s-.07 0-.11.04c-.04 0-.07.04-.07.04 0 .04-.04.07-.04.11v3.72l.04.07.07.04h.85l.07-.04.04-.07v-3.72l-.04-.07-.07-.04s-.07-.07-.11-.07zm4.01-3.06h-.63s-.07 0-.11.04c-.04 0-.07.04-.07.04l-.04.07s-.04.07-.04.11v6.55c0 .07.04.11.07.18.04.04.11.07.18.07h.63c.07 0 .11-.04.18-.07.04-.04.07-.11.07-.18V8.95c0-.07-.04-.11-.07-.18-.04-.04-.11-.04-.18-.04zm1.7 2.47c.15 0 .26-.04.37-.11.11-.07.18-.18.26-.29.04-.11.07-.26.04-.37s-.07-.26-.18-.33c-.07-.11-.22-.15-.33-.18s-.26 0-.37.04-.22.11-.29.22c-.07.11-.11.22-.11.37 0 .07 0 .18.04.26s.07.15.15.22c.07.07.15.11.22.15.07.04.15.04.22.04zm.33.59h-.63c-.07 0-.11.04-.18.07-.04.04-.07.11-.07.18v3.5c0 .07.04.11.07.18.04.04.11.07.18.07h.63c.07 0 .11-.04.18-.07s.07-.11.07-.18v-3.5c0-.07-.04-.11-.07-.18a.267.267 0 00-.18-.07z"/><path fill="#fff" d="M6.93 9.91l-.48.48c-.07.07-.07.22 0 .29l.48.48c.07.07.22.07.29 0l.48-.48c.07-.07.07-.22 0-.29l-.48-.48c-.04-.07-.18-.07-.29 0z"/></svg>
<br/>
<svg xmlns="http://www.w3.org/2000/svg" width="38" height="24" aria-labelledby="pi-colsubsidio"><title id="pi-colsubsidio">Colsubsidio</title><path opacity=".07" d="M35 0H3C1.3 0 0 1.3 0 3v18c0 1.7 1.4 3 3 3h32c1.7 0 3-1.3 3-3V3c0-1.7-1.4-3-3-3z"/><path fill="#fff" d="M35 1c1.1 0 2 .9 2 2v18c0 1.1-.9 2-2 2H3c-1.1 0-2-.9-2-2V3c0-1.1.9-2 2-2h32"/><g fill="#ffcf00"><path d="M2.15 13l1.45-1.44v2.89L2.15 13zM5.26 14.7v1.41l-1.48-1.49v-1.4l1.48 1.48zM3.91 11.25l1.35-1.36v1.36H3.91zM3.78 11.43h1.48v1.48H3.78zM3.91 13.09h1.35v1.35l-1.35-1.35zM8.46 9.77l-3.02 3.02V9.77h3.02zM5.44 16.23v-3.01l3.02 3.01H5.44z"/></g><path fill="#0067b0" d="M10.42 14.16c-.33 0-.6-.11-.83-.32-.22-.22-.33-.49-.33-.82s.11-.6.33-.82.5-.33.82-.33c.37 0 .68.14.93.41l.55-.47c-.37-.42-.89-.68-1.47-.68-.55 0-1.01.18-1.39.54-.38.36-.57.81-.57 1.34s.19.98.57 1.34c.38.36.84.53 1.39.53.58 0 1.11-.25 1.48-.69l-.55-.47c-.25.28-.55.42-.93.42zm2.95-2.04c-.41 0-.75.14-1.04.41-.28.27-.42.6-.42.99s.14.72.42.99c.29.27.63.4 1.04.4s.75-.14 1.04-.4c.29-.27.43-.6.43-.99s-.14-.72-.43-.99-.63-.41-1.04-.41zm.48 1.89c-.13.13-.29.2-.49.2s-.36-.07-.49-.2-.2-.3-.2-.49.07-.36.2-.49c.13-.14.29-.2.49-.2s.36.07.49.2.2.29.2.49-.07.36-.2.49zm1.96-.15v-2.67h-.78v2.79c0 .62.3.93.9.93h.37v-.71c-.41 0-.49-.1-.49-.34zm5.67.05V12.2h-.78v1.48c0 .31-.2.52-.49.52s-.46-.19-.46-.5v-1.51h-.78v1.6c0 .69.37 1.09 1.04 1.09.38 0 .64-.13.77-.39.04.11.11.2.24.28.11.06.26.09.43.09.15 0 .27-.02.35-.04v-.65h-.13c-.14 0-.19-.07-.19-.28zm2.13-1.76c-.4 0-.71.16-.78.39v-1.35h-.78v3.65h.78v-.35c.08.23.39.39.78.39.37 0 .69-.13.93-.39.25-.27.38-.59.38-.97s-.13-.71-.38-.97c-.25-.27-.56-.4-.93-.4zm.34 1.84c-.13.13-.29.19-.48.19s-.36-.06-.49-.19a.65.65 0 010-.94c.14-.13.3-.19.49-.19a.648.648 0 01.67.66c0 .19-.06.34-.19.47zm2.65-.72c-.29-.1-.51-.14-.61-.18-.08-.04-.11-.07-.11-.14 0-.1.09-.17.26-.17.22 0 .41.06.55.19l.37-.51c-.24-.22-.53-.34-.9-.34-.29 0-.53.07-.73.22-.2.15-.3.36-.3.62 0 .35.2.59.61.73.08.03.2.06.36.1.16.04.26.07.32.1s.09.07.09.13c0 .14-.13.21-.4.21-.3 0-.58-.11-.72-.29l-.45.48c.26.31.64.47 1.15.47.77 0 1.16-.35 1.16-.89 0-.35-.21-.6-.65-.75zm-8.45 0c-.29-.1-.51-.14-.61-.18-.08-.04-.11-.07-.11-.14 0-.1.09-.17.26-.17.22 0 .41.06.55.19l.37-.51c-.24-.22-.53-.34-.9-.34-.29 0-.53.07-.73.22-.2.15-.3.36-.3.62 0 .35.2.59.61.73.08.03.2.06.36.1s.26.07.32.1.09.07.09.13c0 .14-.13.21-.4.21-.3 0-.58-.11-.72-.29l-.45.48c.26.31.64.47 1.15.47.77 0 1.16-.35 1.16-.89 0-.35-.21-.6-.65-.75zm9.76-1.3c.25 0 .44-.19.44-.44s-.2-.44-.44-.44-.44.19-.44.44.2.44.44.44zm.47 2.19s-.05-.06-.06-.09c-.02-.05-.02-.11-.02-.16V12.2h-.78v1.94c0 .5.23.74.69.74h.36v-.69h-.05c-.05 0-.11 0-.15-.03zm3.16-.25v-2.72h-.78v1.35c-.08-.23-.39-.39-.78-.39-.37 0-.69.13-.94.4-.25.26-.37.59-.37.97s.13.71.37.98c.25.26.57.39.94.39.41 0 .7-.13.87-.38.04.11.11.2.24.28.11.06.26.09.43.09h.35v-.69h-.13c-.14 0-.19-.07-.19-.28zm-.93.08c-.13.13-.29.19-.49.19s-.35-.06-.48-.19-.19-.29-.19-.47.06-.34.19-.47c.13-.13.29-.19.48-.19s.36.06.49.19c.14.13.2.28.2.47s-.07.34-.2.47zm5.11-1.46c-.29-.27-.63-.41-1.04-.41s-.75.14-1.04.41c-.28.27-.42.6-.42.99s.14.72.42.99c.29.27.63.4 1.04.4s.75-.14 1.04-.4c.29-.27.43-.6.43-.99s-.14-.72-.43-.99zm-.55 1.48c-.13.13-.29.2-.49.2s-.36-.07-.49-.2-.2-.3-.2-.49.07-.36.2-.49c.13-.14.29-.2.49-.2s.36.07.49.2.2.29.2.49-.07.36-.2.49zm-2.76-2.04c.25 0 .44-.19.44-.44s-.2-.44-.44-.44-.44.19-.44.44.2.44.44.44zm.47 2.19s-.05-.06-.06-.09c-.02-.05-.02-.11-.02-.16V12.2h-.78v1.94c0 .5.23.74.69.74h.36v-.69h-.05c-.05 0-.11 0-.15-.03z"/></svg>
<br/>
<svg xmlns="http://www.w3.org/2000/svg" width="38" height="24" aria-labelledby="pi-alkosto"><title id="pi-alkosto">Alkosto</title><path opacity=".07" d="M35 0H3C1.3 0 0 1.3 0 3v18c0 1.7 1.4 3 3 3h32c1.7 0 3-1.3 3-3V3c0-1.7-1.4-3-3-3z"/><path fill="#fff" d="M35 1c1.1 0 2 .9 2 2v18c0 1.1-.9 2-2 2H3c-1.1 0-2-.9-2-2V3c0-1.1.9-2 2-2h32"/><path fill="#fff" d="M2.15 16.78V9.22c0-1.06.86-1.92 1.92-1.92h30.15c1.06 0 1.92.86 1.92 1.92v7.57c0 1.06-.86 1.92-1.92 1.92H4.07c-1.06 0-1.92-.86-1.92-1.93z"/><path fill="#ea5c25" d="M6.36 11.89h.65L6.7 10.2l-.34 1.69zM19.23 10.41h-.86c-.15 0-.27.12-.27.27v.94c0 .15.12.27.27.27h.86c.15 0 .27-.12.27-.27v-.94c0-.15-.12-.27-.27-.27z"/><path fill="#ea5c25" d="M35.35 9.45c0-.75-.61-1.37-1.37-1.37H4.31c-.75 0-1.37.61-1.37 1.37v5.74h13.92l-2.69-3.36-.16.28v1.06h-1.22V9.13h1.22v1.4l1.14-1.4h1.59l-1.46 2.03 3.27 4.03h16.8V9.45zM7.29 13.17l-.16-.42h-.87l-.14.42H4.73L6.1 9.08h1.26l1.26 4.09H7.29zm4.7.02H9.41V9.14h1.26v2.65h1.31v1.4zm8.69-.8c0 .45-.37.81-.82.81H17.7c-.45 0-.81-.37-.81-.81V9.97c0-.45.36-.81.81-.81h2.16c.45 0 .82.36.82.81v2.42zm4.76-2.15h-1.22s-.04-.31-.28-.31h-.75c-.31 0-.38.14-.38.36s.05.36.24.36h1.58c.39 0 .78.24.78.82v.76c0 .61-.37.92-1.01.92-.31 0-1.5.03-1.94.03s-.86-.34-.86-.69v-.41h1.2s.02.31.31.31h.76c.37 0 .44-.24.44-.48s-.21-.36-.41-.36h-1.45c-.46 0-.84-.39-.84-.69v-.92c0-.41.29-.76.96-.76h2.1c.85 0 .77 1.07.77 1.07zm4.48.15h-1.36v2.81h-1.23v-2.81h-1.32V9.15h3.91v1.24zm4.28 2c0 .45-.36.81-.81.81h-2.16c-.45 0-.82-.37-.82-.81V9.97c0-.45.36-.81.82-.81h2.16c.45 0 .81.36.81.81v2.42z"/><path fill="#ea5c25" d="M32.75 10.41h-.86c-.15 0-.27.12-.27.27v.94c0 .15.12.27.27.27h.86c.15 0 .27-.12.27-.27v-.94c0-.15-.12-.27-.27-.27z"/><path fill="#004996" d="M17.3 9.27l-.04.02s.03-.01.04-.02zM17.4 9.22s.03 0 .04-.01c-.01 0-.03.01-.04.01zM20.44 9.39l.03.03c0-.01-.01-.02-.03-.03zM19.23 11.89c.15 0 .27-.12.27-.27v-.94c0-.15-.12-.27-.27-.27h-.86c-.15 0-.27.12-.27.27v.37h.2c.15 0 .27.12.27.27v.56h.66zM19.87 9.16z"/><path fill="#004996" d="M19.87 13.2h-2.16c-.45 0-.81-.37-.81-.81V9.97a.791.791 0 01.25-.58l-.73.59c-.22.14-.37.39-.37.69v1.43l1.46 1.8h1.51c.24 0 .45-.1.6-.27l.65-.53s.02-.01.03-.02c-.12.07-.27.12-.42.12zM7.01 11.89L6.7 10.2l-.34 1.69h.65zM14.01 10.54l1.14-1.4h.01-.01l-1.14.97v.44z"/><path fill="#004996" d="M14.18 11.83l-.16.29v1.06H12.8V9.13l-.91.67v1.99H12v1.4H9.42V9.14l-.88.67v3.09l.1.29H7.3l-.16-.42h-.87l-.13.42H4.75L6.12 9.1l-.84.68-1.37 4.09h1.4l.45-.43h.55l.16.43H7.8l.75-.62v.62h2.58l.77-.58v.57h1.22l.81-.57 1.49 1.92h1.47l-2.69-3.36zM30.92 9.22s.05-.01.08-.03c-.03.01-.05.02-.08.03zM32.75 11.89c.15 0 .27-.12.27-.27v-.94c0-.15-.12-.27-.27-.27h-.86c-.15 0-.27.12-.27.27v.37h.2c.15 0 .27.12.27.27v.56h.66zM30.82 9.26s-.03.01-.04.03c.01 0 .03-.01.04-.03zM24.67 9.17s.1 0 .14.01c-.05-.01-.1-.01-.14-.01zM25.06 9.28zM17.71 9.16c-.05 0-.11 0-.16.01.05 0 .1-.01.16-.01zM25.02 10.75s-.05-.03-.08-.03c.03 0 .06.02.08.03z"/><path fill="#004996" d="M27.33 10.39h-1.32V9.15l-.69.44a.61.61 0 00-.18-.24c.33.31.29.9.29.9h-1.22s-.04-.31-.28-.31h-.75c-.31 0-.38.14-.38.36s.05.36.24.36h1.58c.09 0 .18.01.27.04-.01 0-.02 0-.03-.01l.25-.19v.32s-.02-.01-.03-.02c.1.07.19.16.24.29v-.02h1.17v2.81h1.23l.84-.67h-1.23V10.4zM33.38 13.2h-2.16c-.45 0-.82-.37-.82-.81V9.97c0-.25.1-.46.29-.62l-.03.03-.73.59v.41h-1.36v.67h.53l.46-.37v2.4c0 .45.37.82.81.82h2.16c.24 0 .45-.1.6-.27l.65-.53s.01 0 .03-.01a.96.96 0 01-.43.12zM20.4 13s.03-.02.05-.03c-.02.01-.03.02-.05.03zM20.58 12.77s-.02.03-.03.05c0-.02.01-.03.03-.05z"/><path fill="#004996" d="M24.41 13.15c-.31 0-1.5.03-1.94.03s-.86-.34-.86-.69v-.41h1.2s.02.31.31.31h.76c.37 0 .44-.24.44-.48s-.21-.36-.41-.36h-1.45c-.46 0-.84-.39-.84-.69v-.92c0-.25.11-.48.35-.63-.05.03-.11.07-.15.11l-.75.59s-.05.04-.07.05c-.16.14-.23.34-.23.54v.93c0 .27.28.58.65.67l-.65.55v.4c0 .35.43.69.86.69s1.62-.03 1.93-.03c.2 0 .37-.03.52-.09l.02-.02c.11-.05.2-.12.28-.2l.64-.49c-.16.09-.36.13-.6.13zM25.17 12.89s.02-.03.03-.03l-.03.03zM22.25 9.2s.04-.01.07-.01c-.02 0-.04 0-.07.01zM25.32 12.68s-.02.04-.03.05c0-.02.01-.03.03-.05zM22.03 9.28s.06-.03.1-.04c-.03 0-.06.03-.1.04zM34 17.9H4.28c-.75 0-1.37-.61-1.37-1.37v-.78h32.46v.78c0 .75-.61 1.37-1.37 1.37z"/></svg>