<svg viewBox="0 0 38 24" xmlns="http://www.w3.org/2000/svg" role="img" width="38" height="24" aria-labelledby="pi-transfer">
  <title id="pi-transfer">transfer</title>
  <path fill="#000" opacity=".07" d="M35 0H3C1.3 0 0 1.3 0 3v18c0 1.7 1.4 3 3 3h32c1.7 0 3-1.3 3-3V3c0-1.7-1.4-3-3-3z"/>
  <path fill="#fff" d="M35 1c1.1 0 2 .9 2 2v18c0 1.1-.9 2-2 2H3c-1.1 0-2-.9-2-2V3c0-1.1.9-2 2-2h32"/>
  <path fill="#8B1D36" opacity="1.000000" stroke="none" d="M 20.057 2.825 C 20.094 2.844 20.117 2.877 20.142 2.88 C 20.87 2.964 21.572 3.161 22.253 3.443 C 22.85 3.692 23.413 4.013 23.944 4.398 C 24.499 4.8 25.008 5.262 25.457 5.791 C 25.959 6.382 26.387 7.03 26.734 7.742 C 27.054 8.397 27.307 9.077 27.458 9.795 C 27.555 10.258 27.625 10.731 27.665 11.203 C 27.703 11.66 27.718 12.124 27.691 12.582 C 27.63 13.62 27.408 14.622 27.019 15.581 C 26.801 16.12 26.537 16.633 26.23 17.121 C 25.854 17.72 25.414 18.262 24.916 18.746 C 24.363 19.283 23.753 19.737 23.086 20.107 C 22.472 20.448 21.833 20.718 21.16 20.879 C 20.726 20.983 20.283 21.057 19.84 21.1 C 19.411 21.141 18.976 21.152 18.546 21.128 C 17.94 21.094 17.337 20.998 16.758 20.793 C 16.288 20.626 15.817 20.454 15.368 20.234 C 14.792 19.951 14.247 19.596 13.763 19.153 C 13.444 18.86 13.125 18.564 12.832 18.242 C 12.376 17.741 11.994 17.178 11.666 16.572 C 11.354 15.996 11.099 15.394 10.913 14.759 C 10.751 14.209 10.615 13.65 10.579 13.074 C 10.544 12.511 10.51 11.944 10.53 11.381 C 10.552 10.734 10.65 10.091 10.842 9.474 C 10.998 8.974 11.16 8.471 11.366 7.993 C 11.632 7.378 11.964 6.798 12.381 6.282 C 12.655 5.941 12.933 5.601 13.235 5.288 C 13.704 4.803 14.233 4.395 14.801 4.046 C 15.338 3.717 15.898 3.446 16.489 3.248 C 17.014 3.072 17.547 2.938 18.095 2.88 C 18.114 2.878 18.132 2.859 18.15 2.837 C 18.781 2.825 19.412 2.825 20.057 2.825 M 23.586 18.237 C 23.919 17.911 24.259 17.594 24.581 17.256 C 24.752 17.077 24.903 16.872 25.044 16.664 C 25.364 16.192 25.64 15.693 25.864 15.16 C 26.215 14.324 26.417 13.449 26.475 12.541 C 26.521 11.807 26.488 11.07 26.339 10.348 C 26.137 9.366 25.781 8.45 25.253 7.614 C 24.95 7.134 24.61 6.686 24.206 6.299 C 23.98 6.081 23.761 5.852 23.516 5.662 C 23.071 5.317 22.599 5.02 22.094 4.78 C 21.309 4.407 20.489 4.188 19.638 4.129 C 18.999 4.085 18.356 4.108 17.724 4.242 C 16.75 4.449 15.843 4.838 15.015 5.43 C 14.443 5.838 13.938 6.326 13.488 6.882 C 13.135 7.317 12.836 7.79 12.583 8.294 C 12.095 9.265 11.814 10.305 11.745 11.401 C 11.702 12.092 11.725 12.786 11.852 13.469 C 12.045 14.494 12.405 15.449 12.948 16.321 C 13.333 16.94 13.796 17.487 14.326 17.972 C 14.777 18.383 15.261 18.744 15.797 19.009 C 16.226 19.221 16.67 19.403 17.12 19.556 C 17.679 19.746 18.26 19.833 18.849 19.837 C 19.059 19.839 19.271 19.852 19.48 19.834 C 19.831 19.803 20.184 19.77 20.53 19.703 C 21.085 19.594 21.618 19.408 22.134 19.16 C 22.647 18.913 23.121 18.605 23.586 18.237 Z" style=""/>
  <path fill="#8B1D36" opacity="1.000000" stroke="none" d="M 2.407 10.22 C 2.426 10.187 2.449 10.17 2.463 10.147 C 2.583 9.959 2.676 9.74 2.827 9.587 C 3.029 9.384 3.264 9.206 3.508 9.062 C 4.321 8.581 5.204 8.308 6.114 8.132 C 6.632 8.033 7.153 7.949 7.674 7.877 C 7.962 7.836 8.254 7.828 8.545 7.815 C 8.886 7.8 9.227 7.794 9.569 7.784 C 9.618 7.783 9.666 7.784 9.726 7.784 C 9.726 8.459 9.726 9.119 9.726 9.793 C 9.681 9.797 9.638 9.801 9.594 9.803 C 9.204 9.813 8.811 9.803 8.422 9.837 C 7.884 9.884 7.349 9.961 6.813 10.03 C 6.133 10.118 5.468 10.282 4.817 10.502 C 4.227 10.7 3.659 10.959 3.149 11.341 C 3.091 11.384 3.045 11.443 2.969 11.518 C 3.195 11.672 3.404 11.834 3.63 11.964 C 4.356 12.381 5.142 12.62 5.944 12.797 C 6.393 12.896 6.849 12.958 7.303 13.033 C 7.474 13.06 7.646 13.079 7.837 13.103 C 7.837 12.758 7.837 12.439 7.837 12.12 C 7.849 12.113 7.861 12.106 7.873 12.099 C 8.5 12.798 9.127 13.497 9.766 14.208 C 9.135 14.852 8.507 15.491 7.879 16.131 C 7.868 16.125 7.856 16.119 7.844 16.113 C 7.844 15.866 7.844 15.619 7.844 15.371 C 7.844 15.128 7.841 15.142 7.615 15.105 C 6.981 15 6.347 14.895 5.717 14.766 C 4.954 14.61 4.222 14.344 3.538 13.95 C 3.102 13.699 2.702 13.393 2.478 12.894 C 2.463 12.861 2.444 12.83 2.417 12.8 C 2.407 11.946 2.407 11.089 2.407 10.22 M 7.763 7.943 C 7.562 7.968 7.36 7.988 7.159 8.017 C 6.048 8.179 4.954 8.416 3.925 8.914 C 3.512 9.114 3.123 9.353 2.807 9.709 C 2.354 10.22 2.353 10.83 2.797 11.331 C 2.877 11.419 2.945 11.444 3.037 11.355 C 3.097 11.297 3.164 11.246 3.231 11.199 C 3.863 10.751 4.569 10.49 5.294 10.282 C 6.656 9.892 8.051 9.762 9.455 9.718 C 9.664 9.712 9.682 9.698 9.683 9.482 C 9.684 9.011 9.684 8.54 9.683 8.069 C 9.682 7.866 9.661 7.835 9.474 7.844 C 8.912 7.872 8.35 7.907 7.763 7.943 Z" style=""/>
  <path fill="#8B1D36" opacity="1.000000" stroke="none" d="M 35.812 13.74 C 35.797 13.76 35.772 13.761 35.768 13.772 C 35.558 14.344 35.118 14.663 34.64 14.939 C 33.844 15.396 32.987 15.655 32.104 15.828 C 31.587 15.928 31.067 16.011 30.545 16.083 C 30.257 16.124 29.964 16.132 29.674 16.145 C 29.333 16.16 28.991 16.166 28.65 16.175 C 28.601 16.177 28.553 16.175 28.493 16.175 C 28.493 15.5 28.493 14.84 28.493 14.167 C 28.538 14.163 28.582 14.159 28.625 14.157 C 29.016 14.147 29.408 14.157 29.797 14.123 C 30.335 14.076 30.871 13.999 31.407 13.93 C 32.087 13.842 32.752 13.678 33.403 13.458 C 33.993 13.259 34.561 13.001 35.071 12.619 C 35.128 12.576 35.175 12.517 35.25 12.442 C 35.024 12.288 34.815 12.125 34.588 11.995 C 33.862 11.579 33.076 11.34 32.274 11.163 C 31.825 11.063 31.369 11.002 30.915 10.927 C 30.744 10.9 30.572 10.882 30.382 10.857 C 30.382 11.202 30.382 11.522 30.382 11.841 C 30.37 11.848 30.358 11.854 30.346 11.861 C 29.719 11.162 29.092 10.463 28.453 9.751 C 29.084 9.108 29.712 8.468 30.34 7.828 C 30.352 7.835 30.364 7.841 30.375 7.847 C 30.375 8.109 30.375 8.371 30.375 8.633 C 30.375 8.844 30.377 8.828 30.577 8.855 C 31.002 8.911 31.425 8.983 31.849 9.051 C 32.446 9.147 33.028 9.306 33.599 9.514 C 34.141 9.713 34.668 9.948 35.132 10.32 C 35.397 10.532 35.625 10.774 35.752 11.109 C 35.759 11.129 35.779 11.145 35.802 11.161 C 35.812 12.014 35.812 12.87 35.812 13.74 M 29.163 16.112 C 29.791 16.057 30.422 16.022 31.047 15.94 C 32.165 15.795 33.261 15.545 34.295 15.045 C 34.707 14.846 35.097 14.606 35.412 14.25 C 35.862 13.742 35.866 13.147 35.431 12.639 C 35.344 12.538 35.28 12.534 35.169 12.611 C 34.899 12.801 34.628 12.996 34.336 13.143 C 33.402 13.613 32.403 13.846 31.389 14.013 C 30.506 14.159 29.615 14.213 28.723 14.241 C 28.605 14.245 28.535 14.278 28.536 14.421 C 28.539 14.93 28.538 15.44 28.537 15.949 C 28.536 16.062 28.583 16.118 28.691 16.117 C 28.84 16.115 28.989 16.115 29.163 16.112 Z" style=""/>
  <path fill="#70172B" opacity="1.000000" stroke="none" d="M 7.776 7.941 C 8.35 7.907 8.912 7.872 9.474 7.844 C 9.661 7.835 9.682 7.866 9.683 8.069 C 9.684 8.54 9.684 9.011 9.683 9.482 C 9.682 9.698 9.664 9.712 9.455 9.718 C 8.051 9.762 6.656 9.892 5.294 10.282 C 4.569 10.49 3.863 10.751 3.231 11.199 C 3.164 11.246 3.097 11.297 3.037 11.355 C 2.945 11.444 2.877 11.419 2.797 11.331 C 2.353 10.83 2.354 10.22 2.807 9.709 C 3.123 9.353 3.512 9.114 3.925 8.914 C 4.954 8.416 6.048 8.179 7.159 8.017 C 7.36 7.988 7.562 7.968 7.776 7.941 Z" style=""/>
  <path fill="#70172B" opacity="1.000000" stroke="none" d="M 29.15 16.113 C 28.989 16.115 28.84 16.115 28.691 16.117 C 28.583 16.118 28.536 16.062 28.537 15.949 C 28.538 15.44 28.539 14.93 28.536 14.421 C 28.535 14.278 28.605 14.245 28.723 14.241 C 29.615 14.213 30.506 14.159 31.389 14.013 C 32.403 13.846 33.402 13.613 34.336 13.143 C 34.628 12.996 34.899 12.801 35.169 12.611 C 35.28 12.534 35.344 12.538 35.431 12.639 C 35.866 13.147 35.862 13.742 35.412 14.25 C 35.097 14.606 34.707 14.846 34.295 15.045 C 33.261 15.545 32.165 15.795 31.047 15.94 C 30.422 16.022 29.791 16.057 29.15 16.113 Z" style=""/>
  <path fill="#8B1D36" opacity="1.000000" stroke="none" d="M 18.799 15.112 C 18.799 15.031 18.799 14.965 18.799 14.892 C 18.573 14.847 18.357 14.816 18.146 14.76 C 17.599 14.616 17.17 14.294 16.91 13.753 C 16.806 13.537 16.714 13.307 16.721 13.044 C 16.997 13.011 17.262 12.979 17.527 12.946 C 17.718 12.922 17.909 12.9 18.098 12.871 C 18.201 12.854 18.269 12.841 18.292 12.997 C 18.352 13.382 18.5 13.581 18.787 13.715 C 18.791 13.681 18.798 13.649 18.798 13.618 C 18.799 13.233 18.796 12.849 18.8 12.465 C 18.801 12.373 18.771 12.334 18.687 12.305 C 18.398 12.209 18.106 12.115 17.826 11.994 C 17.369 11.796 17.073 11.424 16.967 10.916 C 16.877 10.48 16.911 10.047 17.139 9.646 C 17.406 9.176 17.808 8.933 18.294 8.824 C 18.451 8.789 18.612 8.772 18.79 8.744 C 18.794 8.634 18.8 8.512 18.805 8.376 C 18.994 8.376 19.18 8.376 19.384 8.376 C 19.39 8.496 19.396 8.621 19.402 8.757 C 20.008 8.794 20.563 8.949 20.959 9.473 C 21.121 9.688 21.23 9.939 21.268 10.229 C 20.815 10.308 20.371 10.385 19.928 10.464 C 19.848 10.478 19.821 10.432 19.796 10.359 C 19.703 10.091 19.614 9.987 19.403 9.888 C 19.4 9.932 19.394 9.973 19.394 10.013 C 19.393 10.287 19.4 10.561 19.391 10.834 C 19.386 10.968 19.437 11.012 19.55 11.045 C 19.992 11.179 20.435 11.319 20.819 11.602 C 21.158 11.852 21.345 12.208 21.42 12.631 C 21.611 13.71 20.801 14.69 19.85 14.822 C 19.705 14.842 19.56 14.868 19.394 14.894 C 19.394 15.091 19.388 15.291 19.395 15.491 C 19.4 15.615 19.363 15.668 19.242 15.658 C 19.13 15.649 19.017 15.655 18.904 15.657 C 18.83 15.658 18.798 15.622 18.799 15.544 C 18.8 15.405 18.799 15.265 18.799 15.112 M 19.397 13.742 C 19.41 13.751 19.425 13.77 19.435 13.767 C 19.606 13.729 19.756 13.651 19.864 13.499 C 19.982 13.333 20.035 13.155 19.939 12.954 C 19.828 12.717 19.631 12.619 19.395 12.542 C 19.395 12.95 19.395 13.333 19.397 13.742 M 18.458 10.575 C 18.55 10.676 18.63 10.794 18.789 10.807 C 18.789 10.487 18.789 10.175 18.789 9.862 C 18.484 9.89 18.328 10.21 18.458 10.575 Z" style=""/>
</svg>
