<svg viewBox="0 0 38 24" xmlns="http://www.w3.org/2000/svg" role="img" width="38" height="24" aria-labelledby="pi-zingala">
  <title id="pi-zingala">zingala</title>
  <path fill="#000" opacity=".07" d="M35 0H3C1.3 0 0 1.3 0 3v18c0 1.7 1.4 3 3 3h32c1.7 0 3-1.3 3-3V3c0-1.7-1.4-3-3-3z"/>
  <path fill="#fff" d="M35 1c1.1 0 2 .9 2 2v18c0 1.1-.9 2-2 2H3c-1.1 0-2-.9-2-2V3c0-1.1.9-2 2-2h32"/>
  <path fill="#919497" opacity="1.000000" stroke="none" d="M 9.861 20.055 C 7.091 20.824 4.133 17.936 4.347 14.983 C 4.385 14.47 4.365 13.951 4.401 13.331 C 4.456 13.172 4.445 13.124 4.4 13.085 C 4.396 13.01 4.391 12.936 4.445 12.79 C 4.659 12.486 4.794 12.23 4.977 12.031 C 5.514 11.449 6.068 10.89 6.691 10.325 C 6.927 10.331 7.089 10.332 7.251 10.332 C 8.382 10.336 8.378 10.336 8.385 11.652 C 8.391 13.415 8.403 15.179 8.41 17.026 C 8.397 19.135 8.566 19.478 9.861 20.055 Z" style=""/>
  <path fill="#E4486E" opacity="1.000000" stroke="none" d="M 8.426 4.839 C 11.84 4.3 14.368 7.583 13.675 11.694 C 13.097 12.918 12.654 14.11 11.418 14.585 C 11.157 14.57 10.968 14.566 10.779 14.565 C 9.711 14.561 9.713 14.561 9.709 13.371 C 9.703 11.575 9.694 9.779 9.695 7.898 C 9.851 6.509 9.581 5.432 8.426 4.839 Z" style=""/>
  <path fill="#ED94A1" opacity="1.000000" stroke="none" d="M 8.362 4.82 C 9.581 5.432 9.851 6.509 9.645 7.916 C 8.596 8.787 7.606 9.555 6.616 10.321 C 6.068 10.89 5.514 11.449 4.977 12.031 C 4.794 12.23 4.659 12.486 4.451 12.734 C 4.43 11.355 4.264 9.909 4.534 8.574 C 4.968 6.415 6.376 5.215 8.362 4.82 Z" style=""/>
  <path fill="#C3C5C9" opacity="1.000000" stroke="none" d="M 11.491 14.596 C 12.654 14.11 13.097 12.918 13.675 11.775 C 13.765 13.548 14.059 15.384 13.313 17.128 C 12.629 18.728 11.492 19.657 9.924 20.059 C 8.566 19.478 8.397 19.135 8.461 17.002 C 9.509 16.129 10.5 15.362 11.491 14.596 Z" style=""/>
  <path fill="#4F4D4C" opacity="1.000000" stroke="none" d="M 23.796 15.572 C 23.796 15.986 23.794 16.322 23.798 16.657 C 23.809 17.736 23.781 17.762 22.675 17.603 C 22.863 17.473 23.012 17.417 23.093 17.302 C 23.187 17.168 23.312 16.899 23.266 16.835 C 23.151 16.678 22.947 16.519 22.776 16.517 C 22.416 16.509 22.053 16.601 21.691 16.653 C 21.67 16.576 21.65 16.501 21.629 16.425 C 21.38 16.855 21.131 17.283 20.768 17.909 C 20.768 16.674 20.713 15.709 20.801 14.76 C 20.828 14.478 21.233 14.078 21.51 14.023 C 22.086 13.908 22.69 13.988 23.378 13.988 C 23.287 14.28 23.215 14.511 23.212 14.515 C 23.456 14.925 23.626 15.209 23.796 15.572 M 22.191 14.923 C 22.265 14.894 22.337 14.865 22.411 14.836 C 22.398 14.784 22.385 14.731 22.371 14.678 C 22.061 14.765 21.749 14.852 21.509 15.029 C 21.703 14.999 21.895 14.968 22.191 14.923 M 21.154 14.655 C 21.182 14.659 21.211 14.663 21.24 14.667 C 21.227 14.649 21.214 14.629 21.154 14.655 Z" style=""/>
  <path fill="#4C4948" opacity="1.000000" stroke="none" d="M 26.731 10.705 C 26.731 10.971 26.733 11.154 26.731 11.339 C 26.718 12.765 26.22 13.2 24.89 12.748 C 25.136 12.681 25.402 12.66 25.621 12.535 C 25.817 12.423 25.959 12.195 26.208 11.929 C 24.594 11.706 24.124 10.973 24.567 9.346 C 24.674 8.952 25.213 8.541 25.608 8.454 C 26.159 8.33 26.584 8.779 26.693 9.433 C 26.756 9.819 26.721 10.223 26.731 10.705 M 25.719 11.373 C 26.089 10.969 26.301 9.486 25.978 9.135 C 25.838 8.984 25.446 8.922 25.292 9.035 C 24.842 9.364 25.083 11.054 25.719 11.373 Z" style=""/>
  <path fill="#565453" opacity="1.000000" stroke="none" d="M 18.053 14.029 C 18.56 14.029 19.067 14.029 19.666 14.029 C 19.666 14.959 19.666 15.871 19.666 16.781 C 19.604 16.782 19.541 16.782 19.477 16.783 C 19.606 17.03 19.735 17.277 19.864 17.523 C 19.788 17.583 19.71 17.642 19.633 17.7 C 19.278 17.112 18.924 16.523 18.569 15.934 C 18.569 16.438 18.569 16.953 18.569 17.535 C 18.449 17.549 18.27 17.57 18.068 17.458 C 18.048 16.227 18.051 15.129 18.053 14.029 Z" style=""/>
  <path fill="#484645" opacity="1.000000" stroke="none" d="M 28.526 11.832 C 27.793 11.657 27.462 11.185 27.603 10.433 C 27.766 9.545 28.401 9.487 29.106 9.58 C 29.017 8.523 28.255 9.074 27.838 8.598 C 28.211 8.558 28.645 8.367 28.942 8.519 C 29.276 8.69 29.646 9.134 29.716 9.523 C 29.84 10.223 29.75 10.97 29.75 11.736 C 29.332 11.771 28.964 11.803 28.526 11.832 M 29.113 10.611 C 28.94 10.397 28.768 10.183 28.595 9.97 C 28.452 10.218 28.21 10.461 28.198 10.718 C 28.187 10.932 28.446 11.162 28.586 11.387 C 28.761 11.177 28.938 10.969 29.113 10.611 Z" style=""/>
  <path fill="#4E4B4A" opacity="1.000000" stroke="none" d="M 32.862 8.875 C 32.763 8.773 32.689 8.61 32.711 8.59 C 33.248 8.127 34.371 8.658 34.46 9.41 C 34.474 9.531 34.464 9.654 34.464 9.776 C 34.464 10.414 34.464 11.051 34.464 11.673 C 32.803 12.062 32.494 11.659 32.355 10.796 C 32.226 9.995 32.731 9.581 33.819 9.503 C 33.676 8.917 33.676 8.917 32.862 8.875 M 33.549 9.996 C 32.905 9.93 32.92 10.451 33.004 10.889 C 33.041 11.08 33.351 11.205 33.536 11.359 C 33.639 11.026 33.754 10.697 33.832 10.357 C 33.849 10.282 33.728 10.165 33.549 9.996 Z" style=""/>
  <path fill="#494645" opacity="1.000000" stroke="none" d="M 21.331 11.185 C 21.336 10.583 21.333 10.063 21.346 9.544 C 21.362 8.785 21.775 8.45 22.387 8.427 C 23.053 8.403 23.486 8.8 23.544 9.552 C 23.596 10.247 23.555 10.952 23.377 11.844 C 23.223 11.667 22.958 11.505 22.938 11.31 C 22.878 10.738 22.964 10.144 22.892 9.575 C 22.86 9.326 22.581 9.119 22.415 8.894 C 22.26 9.113 21.99 9.321 21.97 9.556 C 21.91 10.25 21.949 10.954 21.949 11.655 C 21.882 11.716 21.815 11.775 21.748 11.836 C 21.61 11.647 21.471 11.457 21.331 11.185 Z" style=""/>
  <path fill="#5B5958" opacity="1.000000" stroke="none" d="M 29.954 14.114 C 30.332 14.361 30.675 14.54 31.201 14.815 C 30.718 14.889 30.381 14.942 30.044 14.994 C 30.026 15.089 30.007 15.185 29.988 15.28 C 30.469 15.366 30.948 15.451 31.429 15.536 C 31.435 15.597 31.441 15.658 31.447 15.718 C 31.009 15.772 30.57 15.827 29.983 15.901 C 30.384 16.201 30.69 16.432 31.154 16.781 C 30.691 16.755 30.396 16.739 30.072 16.722 C 30.084 16.709 30.063 16.729 30.046 16.751 C 29.485 17.468 29.469 17.469 29.459 17.192 C 29.444 16.771 29.455 16.349 29.455 15.876 C 28.989 15.835 28.586 15.8 28.184 15.764 C 28.182 15.678 28.179 15.591 28.178 15.504 C 28.572 15.469 28.968 15.434 29.231 15.41 C 29.809 15.068 28.913 14.04 29.954 14.114 Z" style=""/>
  <path fill="#524F4E" opacity="1.000000" stroke="none" d="M 18.028 9.998 C 17.823 10.422 17.644 10.784 17.421 11.235 C 17.893 11.286 18.253 11.323 18.636 11.364 C 18.29 11.876 18.29 11.876 16.428 11.755 C 16.867 10.841 17.276 9.986 17.728 9.044 C 17.301 8.991 16.95 8.947 16.57 8.898 C 16.948 8.415 17.427 8.347 18.713 8.581 C 18.485 9.049 18.27 9.492 18.028 9.998 Z" style=""/>
  <path fill="#444241" opacity="1.000000" stroke="none" d="M 24.932 16.356 C 25.074 16.247 25.216 16.14 25.451 16.012 C 25.589 15.95 25.631 15.906 25.726 15.845 C 26.094 15.563 26.073 15.378 25.674 15.288 C 25.671 15.291 25.678 15.295 25.668 15.235 C 25.495 15.216 25.332 15.255 25.142 15.291 C 25.114 15.285 25.058 15.287 25.058 15.287 C 24.945 14.901 24.833 14.516 24.674 13.975 C 25.534 13.975 26.147 13.991 26.76 13.971 C 27.49 13.947 27.725 14.443 27.715 15.205 C 27.307 15.165 26.969 15.069 26.631 14.972 C 26.582 15.321 26.53 15.669 26.487 16.019 C 26.472 16.138 26.484 16.261 26.411 16.387 C 26.008 16.392 25.675 16.391 25.273 16.388 C 25.114 16.375 25.023 16.365 24.932 16.356 Z" style=""/>
  <path fill="#595756" opacity="1.000000" stroke="none" d="M 31.185 11.794 C 31.002 11.611 30.793 11.426 30.788 11.233 C 30.756 10.075 30.751 8.914 30.79 7.756 C 30.797 7.534 31.033 7.321 31.163 7.103 C 31.282 7.156 31.4 7.208 31.517 7.26 C 31.43 8.769 31.342 10.279 31.185 11.794 Z" style=""/>
  <path fill="#484645" opacity="1.000000" stroke="none" d="M 16.759 14.166 C 17.073 14.109 17.387 14.052 17.775 14.072 C 17.759 14.819 17.624 15.484 17.59 16.156 C 17.569 16.572 17.32 17.07 17.765 17.417 C 17.328 17.501 16.892 17.584 16.545 17.651 C 16.582 16.995 16.617 16.393 16.651 15.79 C 16.576 15.784 16.501 15.778 16.425 15.771 C 16.619 15.666 16.811 15.561 17.023 15.325 C 17.156 14.938 17.27 14.682 17.428 14.326 C 17.246 14.283 17.003 14.224 16.759 14.166 Z" style=""/>
  <path fill="#4A4746" opacity="1.000000" stroke="none" d="M 20.293 9.971 C 20.293 10.457 20.341 10.865 20.275 11.249 C 20.236 11.476 20.018 11.663 19.882 11.868 C 19.813 11.818 19.745 11.766 19.676 11.716 C 19.676 10.684 19.676 9.65 19.676 8.618 C 19.726 8.554 19.775 8.491 19.824 8.426 C 19.98 8.606 20.213 8.757 20.273 8.971 C 20.352 9.249 20.293 9.577 20.293 9.971 Z" style=""/>
  <path fill="#5A5857" opacity="1.000000" stroke="none" d="M 26.482 16.381 C 26.484 16.261 26.472 16.138 26.487 16.019 C 26.53 15.669 26.582 15.321 26.631 14.972 C 26.969 15.069 27.307 15.165 27.704 15.275 C 27.45 15.431 27.138 15.576 26.79 15.737 C 27.029 15.929 27.238 16.099 27.38 16.336 C 27.034 16.396 26.758 16.389 26.482 16.381 Z" style=""/>
  <path fill="#52504F" opacity="1.000000" stroke="none" d="M 27.38 16.766 C 27.386 16.917 27.451 17.117 27.388 17.206 C 27.265 17.385 27.072 17.502 26.908 17.645 C 26.848 17.448 26.788 17.249 26.67 16.857 C 26.452 17.132 26.241 17.396 25.965 17.744 C 25.89 17.484 25.825 17.258 25.751 17.002 C 25.534 16.97 25.301 16.936 25.094 16.828 C 25.153 16.753 25.184 16.749 25.288 16.746 C 26.034 16.753 26.706 16.759 27.38 16.766 Z" style=""/>
  <path fill="#D9D7D7" opacity="1.000000" stroke="none" d="M 17.828 17.444 C 17.32 17.07 17.569 16.572 17.59 16.156 C 17.624 15.484 17.759 14.819 17.845 14.084 C 17.875 14.017 17.912 14.019 17.999 14.025 C 18.051 15.129 18.048 16.227 18.032 17.412 C 17.977 17.488 17.933 17.478 17.828 17.444 Z" style=""/>
  <path fill="#9A9898" opacity="1.000000" stroke="none" d="M 27.432 16.751 C 26.706 16.759 26.034 16.753 25.293 16.698 C 25.265 16.564 25.303 16.477 25.342 16.391 C 25.675 16.391 26.008 16.392 26.411 16.387 C 26.758 16.389 27.034 16.396 27.378 16.4 C 27.555 16.417 27.661 16.44 27.769 16.461 C 27.674 16.552 27.58 16.645 27.432 16.751 Z" style=""/>
  <path fill="#5F5C5C" opacity="1.000000" stroke="none" d="M 16.71 14.187 C 17.003 14.224 17.246 14.283 17.428 14.326 C 17.27 14.682 17.156 14.938 17.033 15.262 C 16.307 15.203 16.36 14.757 16.71 14.187 Z" style=""/>
  <path fill="#5A5857" opacity="1.000000" stroke="none" d="M 25.673 15.863 C 25.631 15.906 25.589 15.95 25.502 15.998 C 25.325 15.804 25.192 15.609 25.059 15.349 C 25.058 15.287 25.114 15.285 25.206 15.288 C 25.424 15.291 25.551 15.293 25.678 15.295 C 25.678 15.295 25.671 15.291 25.67 15.36 C 25.67 15.573 25.671 15.718 25.673 15.863 Z" style=""/>
  <path fill="#5A5857" opacity="1.000000" stroke="none" d="M 25.273 16.388 C 25.303 16.477 25.265 16.564 25.221 16.698 C 25.184 16.749 25.153 16.753 25.076 16.758 C 24.882 16.741 24.736 16.721 24.475 16.686 C 24.638 16.535 24.73 16.45 24.878 16.36 C 25.023 16.365 25.114 16.375 25.273 16.388 Z" style=""/>
  <path fill="#ED94A1" opacity="1.000000" stroke="none" d="M 4.388 13.128 C 4.445 13.124 4.456 13.172 4.412 13.247 C 4.388 13.233 4.382 13.204 4.388 13.128 Z" style=""/>
  <path fill="#FEFAFC" opacity="1.000000" stroke="none" d="M 11.418 14.585 C 10.5 15.362 9.509 16.129 8.465 16.92 C 8.403 15.179 8.391 13.415 8.385 11.652 C 8.378 10.336 8.382 10.336 7.251 10.332 C 7.089 10.332 6.927 10.331 6.691 10.325 C 7.606 9.555 8.596 8.787 9.636 8 C 9.694 9.779 9.703 11.575 9.709 13.371 C 9.713 14.561 9.711 14.561 10.779 14.565 C 10.968 14.566 11.157 14.57 11.418 14.585 Z" style=""/>
  <path fill="#8B8988" opacity="1.000000" stroke="none" d="M 21.437 14.939 C 21.749 14.852 22.061 14.765 22.371 14.678 C 22.385 14.731 22.398 14.784 22.411 14.836 C 22.337 14.865 22.265 14.894 22.074 14.925 C 21.785 14.931 21.611 14.935 21.437 14.939 Z" style=""/>
  <path fill="#5A5958" opacity="1.000000" stroke="none" d="M 21.472 14.984 C 21.611 14.935 21.785 14.931 22.024 14.933 C 21.895 14.968 21.703 14.999 21.472 14.984 Z" style=""/>
  <path fill="#8B8988" opacity="1.000000" stroke="none" d="M 21.178 14.633 C 21.214 14.629 21.227 14.649 21.24 14.667 C 21.211 14.663 21.182 14.659 21.178 14.633 Z" style=""/>
  <path fill="#E5E5E5" opacity="1.000000" stroke="none" d="M 25.655 11.384 C 25.083 11.054 24.842 9.364 25.292 9.035 C 25.446 8.922 25.838 8.984 25.978 9.135 C 26.301 9.486 26.089 10.969 25.655 11.384 Z" style=""/>
  <path fill="#E7E7E7" opacity="1.000000" stroke="none" d="M 29.113 10.685 C 28.938 10.969 28.761 11.177 28.586 11.387 C 28.446 11.162 28.187 10.932 28.198 10.718 C 28.21 10.461 28.452 10.218 28.595 9.97 C 28.768 10.183 28.94 10.397 29.113 10.685 Z" style=""/>
  <path fill="#F2F2F2" opacity="1.000000" stroke="none" d="M 33.61 10.032 C 33.728 10.165 33.849 10.282 33.832 10.357 C 33.754 10.697 33.639 11.026 33.536 11.359 C 33.351 11.205 33.041 11.08 33.004 10.889 C 32.92 10.451 32.905 9.93 33.61 10.032 Z" style=""/>
  <path fill="#9C9B9A" opacity="1.000000" stroke="none" d="M 25.668 15.235 C 25.551 15.293 25.424 15.291 25.233 15.292 C 25.332 15.255 25.495 15.216 25.668 15.235 Z" style=""/>
  <path fill="#71706F" opacity="1.000000" stroke="none" d="M 25.726 15.845 C 25.671 15.718 25.67 15.573 25.673 15.357 C 26.073 15.378 26.094 15.563 25.726 15.845 Z" style=""/>
</svg>
