<svg xmlns="http://www.w3.org/2000/svg" role="img" viewBox="0 0 38 24" width="38" height="24" aria-labelledby="pi-pivo"><title id="pi-pivo">Pivo</title><path opacity=".07" d="M35 0H3C1.3 0 0 1.3 0 3v18c0 1.7 1.4 3 3 3h32c1.7 0 3-1.3 3-3V3c0-1.7-1.4-3-3-3z"/><path fill="#fff" d="M35 1c1.1 0 2 .9 2 2v18c0 1.1-.9 2-2 2H3c-1.1 0-2-.9-2-2V3c0-1.1.9-2 2-2h32"/><path fill="#50E3C2" d="M34.25 11.835c0-2.465-2.119-4.472-4.724-4.472s-4.724 2.007-4.724 4.472c0 2.466 2.119 4.472 4.724 4.472s4.724-2.006 4.724-4.472m-1.595.044c0 1.644-1.393 3.015-3.129 3.015s-3.128-1.37-3.129-3.015c0-1.644 1.393-3.014 3.129-3.014s3.128 1.37 3.129 3.014M21.05 15.158c1.821-1.637 2.874-4.7 2.874-5.728 0-.534-.33-.785-.738-.785-.448 0-.726.323-.802.758-.317 1.805-1.031 3.389-2.004 4.362-.973-.973-1.688-2.557-2.005-4.362-.076-.435-.354-.758-.802-.758-.408 0-.737.251-.737.785 0 1.028 1.051 4.09 2.873 5.728.179.16.393.28.672.28.28 0 .49-.12.669-.28m-5.511-8.775c0-.487-.418-.883-.932-.883-.516 0-.933.396-.933.883 0 .488.417.883.933.883.514 0 .932-.395.932-.883m-3.221 5.505c0-2.106-1.81-3.818-4.033-3.818-.9 0-1.757.277-2.429.75-1.149.81-1.605 1.882-1.605 3.483l-.001 5.47c0 .4.343.726.767.727.426 0 .77-.326.77-.728V14.84c.635.513 1.498.855 2.498.855 2.224 0 4.033-1.7 4.033-3.806m-1.55.023c0 1.304-1.117 2.365-2.494 2.365-1.45 0-2.497-1.066-2.497-2.37 0-.692.277-1.316.779-1.75.443-.382 1.072-.608 1.718-.608 1.377 0 2.494 1.06 2.494 2.363m3.07-2.541v5.109c0 .4.34.727.77.727.424 0 .767-.326.767-.727V9.37c0-.389-.33-.727-.766-.727-.44 0-.77.337-.771.727"/></svg>