<svg role="img" width="38" height="24" viewBox="0 0 38 24" aria-labelledby="pi-bsi" xmlns="http://www.w3.org/2000/svg"><title id="pi-bsi">BSI</title><path fill="#000" opacity=".07" d="M35 0H3C1.3 0 0 1.3 0 3v18c0 1.7 1.4 3 3 3h32c1.7 0 3-1.3 3-3V3c0-1.7-1.4-3-3-3z"/><path fill="#fff" d="M35 1c1.1 0 2 .9 2 2v18c0 1.1-.9 2-2 2H3c-1.1 0-2-.9-2-2V3c0-1.1.9-2 2-2h32"/><g clip-path="url(#pi-bsi-clip0)"><path d="M21.333 4.732h-.016v.001l.016-.001ZM21.436 4.586v9.324h2.22V6.922c0-.522-.283-2.099-2.22-2.336ZM9.64 12.288c.283 0 .513-.036.692-.107.18-.07.32-.162.42-.274a.92.92 0 0 0 .21-.38c.037-.142.056-.286.056-.431 0-.167-.022-.317-.066-.45a.744.744 0 0 0-.228-.337 1.118 1.118 0 0 0-.426-.212c-.177-.05-.4-.075-.67-.075H8.136v2.266H9.64ZM8.136 6.364v2.247H9.25c.235 0 .448-.016.638-.05.19-.033.35-.091.483-.174a.804.804 0 0 0 .304-.344c.07-.145.104-.328.104-.549a1.53 1.53 0 0 0-.082-.54.776.776 0 0 0-.253-.346 1.07 1.07 0 0 0-.433-.187 3.005 3.005 0 0 0-.622-.057H8.136Zm1.252-1.579c.636 0 1.177.059 1.624.175.446.117.811.28 1.093.493.282.212.488.47.617.774.128.304.192.643.192 1.017 0 .204-.03.401-.088.59a1.69 1.69 0 0 1-.278.53 2.158 2.158 0 0 1-.487.453 3.071 3.071 0 0 1-.714.356c.607.146 1.055.38 1.346.705.29.325.436.745.436 1.261a2.474 2.474 0 0 1-.894 1.95 3.17 3.17 0 0 1-1.084.581c-.43.14-.92.21-1.473.21H6V4.784h3.388ZM19.55 6.632a.793.793 0 0 1-.199.225.449.449 0 0 1-.268.075.663.663 0 0 1-.313-.09 63.49 63.49 0 0 0-.38-.203 3.18 3.18 0 0 0-.483-.203 1.958 1.958 0 0 0-.62-.09c-.4 0-.698.083-.893.252-.196.169-.294.396-.294.683 0 .184.059.336.176.456.118.12.273.225.465.312.192.088.411.168.657.24.247.073.499.155.756.244.257.09.509.195.755.315s.466.275.657.462c.192.187.347.415.465.683.118.269.177.592.177.971 0 .42-.074.813-.221 1.18a2.763 2.763 0 0 1-.642.958c-.28.272-.626.486-1.036.643-.411.156-.878.234-1.4.234-.287 0-.579-.03-.876-.088a5.25 5.25 0 0 1-1.646-.624 3.324 3.324 0 0 1-.639-.487l.632-.986c.051-.07.117-.13.2-.178a.523.523 0 0 1 .268-.072c.127 0 .254.04.383.12.128.078.274.165.436.261.162.096.348.183.559.262.21.08.46.119.746.119.387 0 .689-.084.904-.253.214-.168.322-.436.322-.802a.752.752 0 0 0-.177-.518 1.367 1.367 0 0 0-.465-.33 4.337 4.337 0 0 0-.654-.232c-.244-.066-.495-.14-.752-.221a5.542 5.542 0 0 1-.752-.3 2.365 2.365 0 0 1-.654-.468 2.182 2.182 0 0 1-.465-.724c-.117-.29-.177-.646-.177-1.07a2.574 2.574 0 0 1 .822-1.866c.27-.254.6-.457.992-.61.392-.151.84-.227 1.346-.227.283 0 .558.022.825.066a4.205 4.205 0 0 1 1.435.5 3.1 3.1 0 0 1 .56.401l-.532.98Z" fill="#168F8C"/><path d="M23.899 1.225A2.524 2.524 0 0 0 23.873 1a2.537 2.537 0 0 0 1.974.755c.367-.023.71-.123 1.016-.282a2.47 2.47 0 0 0 .398 2.992 2.556 2.556 0 0 0-.659-.045 2.526 2.526 0 0 0-2.058 1.297 2.51 2.51 0 0 0-2.058-2.093A2.49 2.49 0 0 0 23.9 1.225Z" fill="#F9AD3C"/><path d="M6.954 19.26c.102 0 .19-.011.263-.034a.49.49 0 0 0 .18-.096.382.382 0 0 0 .105-.15.534.534 0 0 0 .033-.19.385.385 0 0 0-.145-.318c-.097-.079-.242-.118-.436-.118h-.57v.906h.57Zm-.57-2.045v.888h.47c.101 0 .188-.01.262-.033a.521.521 0 0 0 .184-.09.354.354 0 0 0 .108-.14.465.465 0 0 0 .035-.182c0-.154-.046-.266-.14-.336-.093-.071-.238-.107-.434-.107h-.486Zm.485-.278c.162 0 .301.016.418.047a.804.804 0 0 1 .289.135.52.52 0 0 1 .167.214.717.717 0 0 1 .054.283.555.555 0 0 1-.122.35.655.655 0 0 1-.155.137.847.847 0 0 1-.217.098c.194.037.34.105.436.206.099.099.148.23.148.392 0 .11-.021.21-.063.302-.04.09-.1.168-.18.234a.844.844 0 0 1-.29.152 1.353 1.353 0 0 1-.395.053h-.93v-2.603h.84ZM9.772 18.574l-.414-1.06a2.215 2.215 0 0 1-.078-.243c-.025.098-.052.18-.079.245l-.414 1.058h.985Zm.743.966h-.276a.12.12 0 0 1-.077-.023.146.146 0 0 1-.044-.06l-.247-.629H8.688l-.247.628a.127.127 0 0 1-.042.059.118.118 0 0 1-.077.025h-.276L9.1 16.937h.36l1.055 2.603ZM12.998 16.937v2.603h-.178a.163.163 0 0 1-.072-.014.185.185 0 0 1-.055-.05l-1.526-1.961a2.336 2.336 0 0 1 .008.17v1.855h-.313v-2.603h.184a.194.194 0 0 1 .07.013c.008.003.017.01.026.018a.212.212 0 0 1 .027.029l1.526 1.96-.008-.09a1.992 1.992 0 0 1-.002-.086v-1.844h.313ZM14.028 18.078h.134a.32.32 0 0 0 .112-.017.21.21 0 0 0 .078-.06l.877-.98a.21.21 0 0 1 .078-.066.242.242 0 0 1 .099-.018h.302l-1.005 1.12a.59.59 0 0 1-.072.073.342.342 0 0 1-.072.046c.034.01.064.027.09.049.028.02.054.048.08.082l1.049 1.233h-.31a.448.448 0 0 1-.06-.003.204.204 0 0 1-.042-.015.235.235 0 0 1-.034-.024.389.389 0 0 1-.025-.032l-.91-1.034a.21.21 0 0 0-.079-.064.316.316 0 0 0-.128-.02h-.162v1.192h-.356v-2.603h.356v1.14ZM18.4 17.344a.14.14 0 0 1-.037.042.08.08 0 0 1-.046.012c-.02 0-.045-.01-.074-.03a1.1 1.1 0 0 0-.26-.137.659.659 0 0 0-.214-.03.63.63 0 0 0-.212.032.452.452 0 0 0-.153.085.358.358 0 0 0-.092.13.395.395 0 0 0-.031.157c0 .073.018.134.053.182a.487.487 0 0 0 .144.122c.06.034.127.063.202.089l.232.076c.08.027.157.057.232.09a.777.777 0 0 1 .203.126c.06.051.107.114.143.187a.606.606 0 0 1 .055.273c0 .114-.02.22-.059.321a.734.734 0 0 1-.173.26.797.797 0 0 1-.277.175c-.11.042-.234.063-.374.063a1.107 1.107 0 0 1-.826-.34l.103-.167a.13.13 0 0 1 .035-.033.085.085 0 0 1 .047-.014c.017 0 .034.007.054.02.02.012.044.028.07.047l.088.064a.759.759 0 0 0 .666.096.48.48 0 0 0 .168-.096.425.425 0 0 0 .107-.151.495.495 0 0 0 .036-.194.314.314 0 0 0-.055-.193.433.433 0 0 0-.142-.127.965.965 0 0 0-.202-.085 27.449 27.449 0 0 0-.232-.073 2.688 2.688 0 0 1-.232-.087.753.753 0 0 1-.202-.127.597.597 0 0 1-.144-.195.703.703 0 0 1-.053-.29.692.692 0 0 1 .212-.496.787.787 0 0 1 .255-.16.951.951 0 0 1 .35-.06c.147 0 .28.023.401.069a.95.95 0 0 1 .32.2l-.086.167ZM19.985 18.503v1.037h-.357v-1.037l-.966-1.566h.313c.032 0 .057.008.075.023a.191.191 0 0 1 .048.059l.604 1.012.06.12a.986.986 0 0 1 .049.11c.013-.037.028-.074.045-.11l.057-.12.602-1.012a.198.198 0 0 1 .046-.057.11.11 0 0 1 .076-.025h.314l-.966 1.566ZM22.434 18.574l-.415-1.06a2.25 2.25 0 0 1-.077-.243c-.025.098-.052.18-.079.245l-.414 1.058h.985Zm.743.966h-.276a.12.12 0 0 1-.077-.023.146.146 0 0 1-.044-.06l-.247-.629H21.35l-.247.628a.126.126 0 0 1-.12.084h-.275l1.054-2.603h.36l1.055 2.603ZM24.255 18.198a.923.923 0 0 0 .272-.037.572.572 0 0 0 .199-.105.443.443 0 0 0 .121-.164.525.525 0 0 0 .04-.208c0-.155-.05-.272-.154-.351-.103-.079-.258-.118-.464-.118h-.39v.983h.375Zm1.218 1.342h-.317c-.065 0-.113-.025-.143-.074l-.685-.93a.188.188 0 0 0-.068-.062.231.231 0 0 0-.11-.02h-.27v1.086h-.356v-2.603h.745c.167 0 .311.017.433.05.121.034.221.081.3.144.08.063.138.14.176.23a.746.746 0 0 1 .057.297.74.74 0 0 1-.044.258.682.682 0 0 1-.129.216.752.752 0 0 1-.204.162 1.01 1.01 0 0 1-.272.102.351.351 0 0 1 .118.11l.769 1.034ZM26.188 19.54h-.357v-2.603h.357v2.603ZM28.263 18.574l-.414-1.06a2.055 2.055 0 0 1-.077-.243 1.96 1.96 0 0 1-.08.245l-.413 1.058h.984Zm.744.966h-.276a.12.12 0 0 1-.078-.023.146.146 0 0 1-.044-.06l-.246-.629h-1.184l-.246.628a.127.127 0 0 1-.043.059.118.118 0 0 1-.077.025h-.276l1.055-2.603h.36l1.055 2.603ZM31.49 16.937v2.603h-.357v-1.184H29.71v1.184h-.357v-2.603h.357v1.16h1.423v-1.16h.357ZM6.385 22.97h-.357v-2.602h.357v2.603ZM9.196 20.368v2.603h-.179a.16.16 0 0 1-.071-.015.184.184 0 0 1-.056-.049l-1.525-1.962a2.228 2.228 0 0 1 .007.171v1.855H7.06v-2.603h.184a.186.186 0 0 1 .07.012.212.212 0 0 1 .053.047l1.526 1.96a2.16 2.16 0 0 1-.01-.176v-1.843h.314ZM12.155 21.67c0 .195-.03.372-.093.532-.063.16-.151.297-.265.411a1.188 1.188 0 0 1-.413.265c-.159.062-.336.093-.53.093H9.87v-2.603h.985c.193 0 .37.031.53.094a1.156 1.156 0 0 1 .677.676c.062.16.094.337.094.532Zm-.366 0c0-.16-.022-.303-.066-.429a.902.902 0 0 0-.188-.32.802.802 0 0 0-.294-.2 1.035 1.035 0 0 0-.386-.068h-.628v2.033h.627c.143 0 .272-.023.387-.07a.812.812 0 0 0 .482-.517 1.29 1.29 0 0 0 .066-.429ZM15.106 21.67c0 .195-.031.375-.094.538a1.195 1.195 0 0 1-.677.694 1.41 1.41 0 0 1-.53.096c-.194 0-.37-.032-.53-.096a1.2 1.2 0 0 1-.675-.694 1.493 1.493 0 0 1-.094-.537c0-.195.031-.374.094-.536a1.184 1.184 0 0 1 .675-.698c.16-.065.336-.098.53-.098s.37.033.53.098a1.18 1.18 0 0 1 .677.698c.063.162.094.34.094.536Zm-.366 0c0-.16-.022-.303-.066-.43a.898.898 0 0 0-.188-.321.809.809 0 0 0-.295-.204 1.011 1.011 0 0 0-.386-.07c-.141 0-.27.023-.384.07a.827.827 0 0 0-.484.525c-.045.127-.067.27-.067.43 0 .16.022.304.067.431a.922.922 0 0 0 .187.322.84.84 0 0 0 .296.201c.116.046.244.07.385.07.142 0 .271-.024.386-.07a.82.82 0 0 0 .483-.523c.044-.127.066-.27.066-.43ZM17.753 20.368v2.603h-.178a.16.16 0 0 1-.072-.015.183.183 0 0 1-.055-.049l-1.526-1.962a2.155 2.155 0 0 1 .008.171v1.855h-.313v-2.603h.184a.186.186 0 0 1 .07.012.2.2 0 0 1 .053.047l1.526 1.96a2.149 2.149 0 0 1-.01-.176v-1.843h.313ZM20.054 22.684l-.002.287h-1.625v-2.603h1.625v.287h-1.267v.864h1.026v.277h-1.026v.888h1.27ZM21.9 20.775a.141.141 0 0 1-.037.042.079.079 0 0 1-.046.013c-.02 0-.045-.01-.073-.031a1.106 1.106 0 0 0-.26-.137.659.659 0 0 0-.215-.03c-.08 0-.15.01-.212.032-.06.02-.11.05-.152.086a.356.356 0 0 0-.092.129.396.396 0 0 0-.031.158c0 .072.017.133.053.181a.484.484 0 0 0 .143.122c.06.034.128.064.203.089l.232.076c.08.027.157.057.232.091a.782.782 0 0 1 .202.125.563.563 0 0 1 .199.46c0 .114-.02.221-.06.322a.735.735 0 0 1-.172.26.793.793 0 0 1-.278.174c-.11.042-.234.063-.373.063-.172 0-.328-.03-.468-.09a1.11 1.11 0 0 1-.359-.25l.103-.166a.125.125 0 0 1 .035-.033.086.086 0 0 1 .048-.015c.016 0 .034.007.053.02.021.012.044.028.07.047.026.02.056.041.089.064a.754.754 0 0 0 .44.13.69.69 0 0 0 .226-.034.48.48 0 0 0 .167-.096.426.426 0 0 0 .107-.15.497.497 0 0 0 .037-.195.315.315 0 0 0-.055-.193.433.433 0 0 0-.142-.127.97.97 0 0 0-.203-.085 26.32 26.32 0 0 0-.231-.073 2.652 2.652 0 0 1-.232-.087.748.748 0 0 1-.203-.127.597.597 0 0 1-.143-.194.704.704 0 0 1-.054-.291.69.69 0 0 1 .468-.656.953.953 0 0 1 .35-.06c.147 0 .28.023.4.07a.95.95 0 0 1 .32.199l-.086.167ZM22.907 22.97h-.357v-2.602h.357v2.603ZM24.982 22.004l-.414-1.059a2.48 2.48 0 0 1-.078-.243c-.025.098-.052.18-.079.245l-.414 1.057h.985Zm.743.967h-.276a.12.12 0 0 1-.077-.024.145.145 0 0 1-.044-.06l-.247-.628h-1.183l-.247.628a.128.128 0 0 1-.042.058.12.12 0 0 1-.077.026h-.276l1.054-2.603h.36l1.055 2.603Z" fill="#168F8C"/></g><defs><clipPath id="pi-bsi-clip0"><path fill="#fff" transform="translate(6 1)" d="M0 0h26v22H0z"/></clipPath></defs></svg>