<svg width="38" height="24" role="img" viewBox="0 0 38 24" xmlns="http://www.w3.org/2000/svg" aria-labelledby="pi-ab"><title id="pi-ab">Aruba Bank</title><path d="M35 .5c.688 0 1.313.28 1.766.734.453.453.734 1.079.734 1.766v18c0 .688-.28 1.313-.734 1.766A2.493 2.493 0 0135 23.5H3c-.688 0-1.313-.28-1.766-.734A2.493 2.493 0 01.5 21V3c0-.688.28-1.313.734-1.766A2.493 2.493 0 013 .5h32z" fill="#fff" fill-rule="nonzero" stroke="#000" stroke-opacity=".07" stroke-width="2"/><g transform="translate(4.002 8.843)" fill-rule="nonzero"><path d="M.085 6.315H7.26l22.735-4.512L.085 6.315zm11.18 0h6.713l12.018-4.512-18.731 4.512z" id="Shape" fill="#134B8D"/><path d="M2.154 3.195l-.21-.603H.798l-.211.603H0L1.06.247h.659L2.8 3.195h-.646zm-.646-1.826a3.615 3.615 0 01-.14-.471h-.004c-.04.167-.087.331-.143.493l-.274.751h.843l-.282-.773z" id="Shape" fill="#C51E54"/><path d="M3.55 1.461h.01c.106-.275.322-.515.708-.485l-.027.55c-.413-.082-.62.18-.62.782v.887h-.57V1.452a4.63 4.63 0 00-.39-.043v-.35c.283-.035.629-.048.93-.04 0 .115-.014.289-.041.442M6.319 3.199c0-.1.004-.266.027-.389l-.01-.004c-.13.258-.39.437-.753.437-.507 0-.669-.315-.669-.695V1.453a4.357 4.357 0 00-.386-.044v-.35c.296-.035.651-.048.96-.04v1.394c0 .227.064.362.274.362.292 0 .521-.323.521-.702V1.024h.57v1.743c.107.017.26.035.39.043v.35a6.502 6.502 0 01-.924.039" id="Path" fill="#C51E54"/><path d="M8.125.941c0 .131-.013.31-.035.424h.004c.112-.236.359-.384.673-.384.534 0 .822.376.822 1.017 0 .734-.44 1.24-1.208 1.24-.323 0-.574-.035-.83-.105V.435c-.13-.02-.26-.035-.39-.044v-.35c.287-.034.633-.047.964-.038V.941zm.476.503c-.296 0-.476.336-.476.698v.612a.963.963 0 00.297.039c.328 0 .56-.2.56-.738 0-.406-.12-.611-.381-.611M11.201 3.199c0-.127.005-.258.023-.371l-.004-.004c-.108.244-.382.414-.714.414-.404 0-.637-.222-.637-.571 0-.52.53-.796 1.288-.796v-.117c0-.227-.113-.345-.435-.345-.202 0-.472.065-.66.17l-.05-.467c.225-.08.512-.135.8-.135.717 0 .92.279.92.755v1.035c.107.017.26.035.39.043v.35a6.438 6.438 0 01-.92.039m-.045-.965c-.606 0-.74.17-.74.345 0 .14.098.231.264.231.283 0 .476-.261.476-.524v-.052z" id="Shape" fill="#C51E54"/><path d="M12.952.941c0 .131-.014.31-.036.424h.004c.112-.236.359-.384.673-.384.534 0 .822.376.822 1.017 0 .734-.44 1.24-1.208 1.24-.323 0-.574-.035-.83-.105V.435a4.51 4.51 0 00-.39-.044v-.35a6.95 6.95 0 01.965-.038V.941zm.475.503c-.296 0-.475.336-.475.698v.612c.08.026.175.039.296.039.327 0 .56-.2.56-.738 0-.406-.12-.611-.38-.611M16.02 3.199c0-.127.003-.258.021-.371l-.004-.004c-.108.244-.381.414-.713.414-.404 0-.638-.222-.638-.571 0-.52.53-.796 1.288-.796v-.117c0-.227-.112-.345-.435-.345-.202 0-.47.065-.66.17l-.049-.467a2.49 2.49 0 01.799-.135c.718 0 .92.279.92.755v1.035c.108.017.26.035.39.043v.35a6.44 6.44 0 01-.92.039m-.045-.965c-.605 0-.74.17-.74.345 0 .14.099.231.265.231.282 0 .475-.261.475-.524v-.052z" id="Shape" fill="#134B8D"/><path d="M17.777 1.409l.005.004c.135-.258.395-.437.758-.437.502 0 .664.315.664.695v1.524h-.57V1.806c0-.227-.063-.362-.273-.362-.292 0-.52.323-.52.703v1.048h-.57V1.452a4.66 4.66 0 00-.391-.043v-.35c.283-.035.628-.048.929-.04 0 .106-.009.276-.032.39M20.935 3.195l-.691-1.075v1.308h-.574V.435c-.13-.02-.26-.035-.39-.044v-.35c.286-.034.632-.047.964-.038v1.925l.65-.904h.7l-.785.992.844 1.179h-.718z" id="Path" fill="#134B8D"/><path d="M22.233 1.82a.412.412 0 01-.415.403.405.405 0 01-.417-.402c0-.223.186-.402.417-.402.232 0 .415.176.415.402m-.717-.002c0 .161.134.301.302.301a.3.3 0 00.301-.295.303.303 0 00-.514-.217.298.298 0 00-.089.211m.362.21l-.1-.176h-.007v.175h-.093V1.61h.15c.105 0 .146.045.146.11 0 .068-.04.109-.1.12.01.011.023.033.036.055l.081.134h-.113zm-.068-.35h-.04v.116h.027c.058 0 .079-.033.079-.064 0-.035-.017-.052-.066-.052" id="Shape" fill="#134B8D"/></g></svg>