<svg version="1.1" xmlns="http://www.w3.org/2000/svg" xmlns:xlink="http://www.w3.org/1999/xlink" width="38" 
	 role="img" viewBox="0 0 38 24" style="enable-background:new 0 0 38 24;" xml:space="preserve" aria-labelledby="pi-abitab">
<style type="text/css">
	.st0{opacity:7.000000e-02;enable-background:new    ;}
	.st1{fill:#FFFFFF;}
	.st2{fill:#002670;}
	.st3{fill:#DE2739;}
	.st4{fill:none;}
</style>
<title id="pi-abitab">Abitab</title>
<path class="st0" d="M35,0H3C1.3,0,0,1.3,0,3v18c0,1.7,1.4,3,3,3h32c1.7,0,3-1.3,3-3V3C38,1.3,36.6,0,35,0z"/>
<path class="st1" d="M35,1c1.1,0,2,0.9,2,2v18c0,1.1-0.9,2-2,2H3c-1.1,0-2-0.9-2-2V3c0-1.1,0.9-2,2-2H35"/>
<g>
	<polygon class="st1" points="11.9,10.1 11.9,10.1 11.9,10.1 	"/>
	<g>
		<path class="st2" d="M14.6,12c0,1.5-1.2,2.7-2.7,2.7c-1.5,0-2.7-1.2-2.7-2.7c0-1.5,1.2-2.7,2.7-2.7C13.4,9.3,14.6,10.5,14.6,12z"
			/>
		<path class="st3" d="M13.8,12c0-1.1-0.9-1.9-2-1.9l1.8,2.7C13.8,12.5,13.8,12.3,13.8,12z"/>
		<path class="st3" d="M10.7,13.5c0.3,0.2,0.7,0.4,1.2,0.4c0.4,0,0.9-0.1,1.2-0.4l-1.2-1.8L10.7,13.5z"/>
		<path class="st3" d="M11.9,10.1c-1.1,0-2,0.9-2,1.9c0,0.3,0.1,0.6,0.2,0.8L11.9,10.1C11.9,10.1,11.9,10.1,11.9,10.1z"/>
		<path class="st1" d="M13.7,12.8l-1.8-2.7c0,0,0,0,0,0l-1.8,2.8c0.1,0.3,0.3,0.5,0.6,0.7l1.2-1.8l1.2,1.8
			C13.3,13.4,13.5,13.1,13.7,12.8z"/>
	</g>
	<g>
		<g>
			<path class="st2" d="M18.2,13.4h-0.8l0-0.4h-0.9l-0.2,0.4h-0.9l1.5-2.7h0.9L18.2,13.4z M17.3,12.4l-0.1-1h0l-0.5,1H17.3z"/>
			<path class="st2" d="M19.6,11.6c0.1-0.1,0.2-0.1,0.2-0.1c0.1,0,0.2,0,0.3,0c0.2,0,0.4,0.1,0.5,0.2c0.1,0.2,0.2,0.3,0.2,0.6
				c0,0.3-0.1,0.6-0.3,0.8c-0.2,0.3-0.4,0.4-0.7,0.4c-0.3,0-0.5-0.1-0.6-0.4l-0.1,0.3h-0.7l0.6-2.7h0.8L19.6,11.6z M19.7,13
				c0.1,0,0.2-0.1,0.3-0.2c0.1-0.1,0.1-0.3,0.1-0.5c0-0.2-0.1-0.3-0.3-0.3c-0.1,0-0.2,0.1-0.3,0.2c-0.1,0.1-0.1,0.3-0.1,0.5
				c0,0.1,0,0.2,0.1,0.3C19.5,13,19.6,13,19.7,13z"/>
			<path class="st2" d="M23.9,11.5L23.8,12h-0.4l-0.1,0.7c0,0,0,0.1,0,0.1c0,0.1,0.1,0.1,0.2,0.1c0,0,0.1,0,0.2,0l-0.1,0.5
				c-0.2,0-0.4,0-0.5,0c-0.2,0-0.4-0.1-0.4-0.2c-0.1-0.1-0.1-0.2-0.1-0.3c0,0,0-0.1,0.1-0.3l0.1-0.7h-0.3l0.1-0.5h0.3l0.1-0.3
				l0.8-0.4l-0.2,0.7H23.9z"/>
			<path class="st2" d="M24.2,12c0-0.2,0.1-0.3,0.3-0.4c0.2-0.1,0.4-0.2,0.8-0.2c0.4,0,0.6,0,0.8,0.1c0.1,0.1,0.2,0.2,0.2,0.4
				c0,0.1,0,0.3-0.1,0.6c-0.1,0.3-0.1,0.5-0.1,0.6c0,0.1,0,0.2,0,0.3h-0.7c0-0.1,0-0.2,0-0.2c-0.2,0.2-0.4,0.3-0.7,0.3
				c-0.2,0-0.4-0.1-0.5-0.2C24,13.2,24,13.1,24,12.9c0-0.2,0-0.3,0.1-0.4c0.1-0.1,0.2-0.2,0.4-0.2c0.1,0,0.3-0.1,0.6-0.1
				c0.2,0,0.4,0,0.4-0.1c0-0.1,0-0.1,0-0.1c0,0,0-0.1-0.1-0.1c0,0-0.1,0-0.2,0c-0.1,0-0.2,0-0.2,0c-0.1,0-0.1,0.1-0.1,0.2L24.2,12z
				 M25.4,12.6c-0.3,0.1-0.5,0.1-0.6,0.2c-0.1,0-0.1,0.1-0.1,0.2c0,0.1,0,0.1,0.1,0.1c0,0,0.1,0.1,0.2,0.1c0.1,0,0.2,0,0.3-0.1
				C25.3,12.9,25.4,12.8,25.4,12.6z"/>
			<path class="st2" d="M27.6,11.6c0.1-0.1,0.2-0.1,0.2-0.1c0.1,0,0.2,0,0.3,0c0.2,0,0.4,0.1,0.5,0.2c0.1,0.2,0.2,0.3,0.2,0.6
				c0,0.3-0.1,0.6-0.3,0.8c-0.2,0.3-0.4,0.4-0.7,0.4c-0.3,0-0.5-0.1-0.6-0.4l-0.1,0.3h-0.7l0.6-2.7h0.8L27.6,11.6z M27.7,13
				c0.1,0,0.2-0.1,0.3-0.2c0.1-0.1,0.1-0.3,0.1-0.5c0-0.2-0.1-0.3-0.3-0.3c-0.1,0-0.2,0.1-0.3,0.2c-0.1,0.1-0.1,0.3-0.1,0.5
				c0,0.1,0,0.2,0.1,0.3C27.6,13,27.6,13,27.7,13z"/>
			<polygon class="st2" points="21,13.4 21.7,13.4 22.2,11.5 21.4,11.5 			"/>
		</g>
		<g>
			<path class="st4" d="M21.7,11c0-0.1,0-0.1,0-0.2h-0.2C21.5,10.9,21.6,11,21.7,11z"/>
			<path class="st4" d="M22,11c0-0.1,0-0.1,0-0.2h-0.3c0,0.1,0,0.1,0,0.2c0,0,0.1,0,0.1,0C21.9,11.1,22,11.1,22,11z"/>
			<path class="st4" d="M21.5,10.8h0.2c0-0.1,0-0.1,0-0.2C21.6,10.6,21.5,10.7,21.5,10.8z"/>
			<path class="st4" d="M21.8,10.6c0,0.1,0,0.1,0,0.2H22c0-0.1,0-0.1,0-0.2c0,0-0.1,0-0.1,0C21.9,10.6,21.8,10.6,21.8,10.6z"/>
			<path class="st4" d="M22.3,10.6c0-0.1-0.1-0.2-0.2-0.2c0,0,0,0.1,0,0.1C22.2,10.5,22.3,10.6,22.3,10.6z"/>
			<path class="st4" d="M22.1,10.6c0,0.1,0,0.1,0,0.2h0.2C22.3,10.7,22.2,10.6,22.1,10.6z"/>
			<path class="st4" d="M22.3,10.8h-0.2c0,0.1,0,0.1,0,0.2C22.2,11,22.3,10.9,22.3,10.8z"/>
			<path class="st4" d="M21.9,11.1C21.9,11.1,21.8,11.1,21.9,11.1c-0.1,0-0.1,0.1-0.1,0.1c0,0,0,0,0.1,0
				C21.9,11.2,22,11.2,21.9,11.1c0.1,0.1,0.1,0,0.1,0C22,11.1,21.9,11.1,21.9,11.1z"/>
			<path class="st4" d="M21.5,11c0.1,0.1,0.1,0.2,0.3,0.2c0,0,0-0.1,0-0.1C21.6,11.1,21.6,11.1,21.5,11z"/>
			<path class="st4" d="M22.1,11.1C22.1,11.1,22.1,11.2,22.1,11.1c0.1,0.1,0.2,0,0.2-0.1C22.2,11,22.2,11.1,22.1,11.1z"/>
			<path class="st4" d="M21.9,10.5c0,0,0.1,0,0.1,0c0,0,0-0.1,0-0.1c0,0-0.1,0-0.1,0c0,0,0,0-0.1,0c0,0,0,0.1,0,0.1
				C21.8,10.5,21.9,10.5,21.9,10.5z"/>
			<path class="st4" d="M21.7,10.5c0,0,0-0.1,0-0.1c-0.1,0-0.2,0.1-0.3,0.2C21.5,10.6,21.6,10.5,21.7,10.5z"/>
			<path class="st3" d="M22,10.3C22,10.3,22,10.3,22,10.3c-0.1,0-0.1,0-0.1,0c0,0,0,0,0,0c0,0-0.1,0-0.1,0c-0.2,0.1-0.4,0.2-0.4,0.5
				c0,0.2,0.2,0.4,0.4,0.5c0,0,0.1,0,0.1,0c0,0,0,0,0,0c0,0,0,0,0,0c0,0,0.1,0,0.1,0c0.2-0.1,0.4-0.3,0.4-0.5
				C22.4,10.6,22.3,10.4,22,10.3z M22.1,10.8c0-0.1,0-0.1,0-0.2c0.1,0,0.2,0.1,0.2,0.2H22.1z M22,10.8h-0.3c0-0.1,0-0.1,0-0.2
				c0,0,0.1,0,0.1,0c0,0,0.1,0,0.1,0C22,10.6,22,10.7,22,10.8z M21.7,10.8h-0.2c0-0.1,0.1-0.2,0.2-0.2
				C21.7,10.6,21.7,10.7,21.7,10.8z M21.7,10.8c0,0.1,0,0.1,0,0.2c-0.1,0-0.2-0.1-0.3-0.2H21.7z M21.8,10.8H22c0,0.1,0,0.1,0,0.2
				c0,0-0.1,0-0.1,0c0,0-0.1,0-0.1,0C21.8,11,21.8,10.9,21.8,10.8z M22.1,10.8h0.2c0,0.1-0.1,0.1-0.2,0.2
				C22.1,11,22.1,10.9,22.1,10.8z M22.3,10.6c-0.1-0.1-0.1-0.1-0.2-0.1c0,0,0-0.1,0-0.1C22.2,10.4,22.3,10.5,22.3,10.6z M21.9,10.4
				C21.9,10.4,22,10.4,21.9,10.4c0.1,0,0.1,0.1,0.1,0.1c0,0-0.1,0-0.1,0c0,0-0.1,0-0.1,0C21.8,10.5,21.8,10.4,21.9,10.4
				C21.8,10.4,21.9,10.4,21.9,10.4z M21.7,10.4c0,0,0,0.1,0,0.1c-0.1,0-0.2,0.1-0.2,0.1C21.5,10.5,21.6,10.4,21.7,10.4z M21.5,11
				c0.1,0,0.1,0.1,0.2,0.1c0,0,0,0.1,0,0.1C21.6,11.2,21.5,11.1,21.5,11z M21.9,11.2C21.9,11.2,21.9,11.2,21.9,11.2
				c-0.1,0-0.1-0.1-0.1-0.1c0,0,0.1,0,0.1,0c0,0,0.1,0,0.1,0C22,11.2,22,11.2,21.9,11.2C22,11.2,21.9,11.2,21.9,11.2z M22.1,11.2
				C22.1,11.2,22.1,11.1,22.1,11.2c0.1-0.1,0.2-0.2,0.2-0.2C22.2,11.1,22.2,11.2,22.1,11.2z"/>
		</g>
	</g>
</g>
</svg>
