<svg
    xmlns="http://www.w3.org/2000/svg" width="38" height="24" role="img" viewBox="0 0 38 24" aria-labelledby="pi-abitab">
    <title id="pi-abitab">Abitab</title>
    <path opacity=".07" d="M35 0H3C1.3 0 0 1.3 0 3v18c0 1.7 1.4 3 3 3h32c1.7 0 3-1.3 3-3V3c0-1.7-1.4-3-3-3z"/>
    <path fill="#FFF" d="M35 1c1.1 0 2 .9 2 2v18c0 1.1-.9 2-2 2H3c-1.1 0-2-.9-2-2V3c0-1.1.9-2 2-2h32M11.9 10.1z"/>
    <path fill="#002670" d="M14.6 12c0 1.5-1.2 2.7-2.7 2.7-1.5 0-2.7-1.2-2.7-2.7 0-1.5 1.2-2.7 2.7-2.7 1.5 0 2.7 1.2 2.7 2.7z"/>
    <path fill="#DE2739" d="M13.8 12c0-1.1-.9-1.9-2-1.9l1.8 2.7c.2-.3.2-.5.2-.8zM10.7 13.5c.3.2.7.4 1.2.4.4 0 .9-.1 1.2-.4l-1.2-1.8-1.2 1.8z"/>
    <path fill="#DE2739" d="M11.9 10.1c-1.1 0-2 .9-2 1.9 0 .3.1.6.2.8l1.8-2.7z"/>
    <path fill="#FFF" d="M13.7 12.8l-1.8-2.7-1.8 2.8c.1.3.3.5.6.7l1.2-1.8 1.2 1.8c.2-.2.4-.5.6-.8z"/>
    <g>
        <g fill="#002670">
            <path d="M18.2 13.4h-.8V13h-.9l-.2.4h-.9l1.5-2.7h.9l.4 2.7zm-.9-1l-.1-1-.5 1h.6zM19.6 11.6c.1-.1.2-.1.2-.1h.3c.2 0 .4.1.5.2.1.2.2.3.2.6s-.1.6-.3.8c-.2.3-.4.4-.7.4-.3 0-.5-.1-.6-.4l-.1.3h-.7l.6-2.7h.8l-.2.9zm.1 1.4c.1 0 .2-.1.3-.2.1-.1.1-.3.1-.5s-.1-.3-.3-.3c-.1 0-.2.1-.3.2-.1.1-.1.3-.1.5 0 .1 0 .2.1.3h.2zM23.9 11.5l-.1.5h-.4l-.1.7v.1c0 .1.1.1.2.1h.2l-.1.5h-.5c-.2 0-.4-.1-.4-.2-.1-.1-.1-.2-.1-.3 0 0 0-.1.1-.3l.1-.7h-.3l.1-.5h.3l.1-.3.8-.4-.2.7h.3zM24.2 12c0-.2.1-.3.3-.4.2-.1.4-.2.8-.2s.6 0 .8.1c.1.1.2.2.2.4 0 .1 0 .3-.1.6s-.1.5-.1.6v.3h-.7v-.2c-.2.2-.4.3-.7.3-.2 0-.4-.1-.5-.2-.2-.1-.2-.2-.2-.4s0-.3.1-.4c.1-.1.2-.2.4-.2.1 0 .3-.1.6-.1.2 0 .4 0 .4-.1V12s0-.1-.1-.1H25c-.1 0-.1.1-.1.2l-.7-.1zm1.2.6c-.3.1-.5.1-.6.2-.1 0-.1.1-.1.2s0 .1.1.1c0 0 .1.1.2.1s.2 0 .3-.1c0-.2.1-.3.1-.5zM27.6 11.6c.1-.1.2-.1.2-.1h.3c.2 0 .4.1.5.2.1.2.2.3.2.6s-.1.6-.3.8c-.2.3-.4.4-.7.4-.3 0-.5-.1-.6-.4l-.1.3h-.7l.6-2.7h.8l-.2.9zm.1 1.4c.1 0 .2-.1.3-.2.1-.1.1-.3.1-.5s-.1-.3-.3-.3c-.1 0-.2.1-.3.2-.1.1-.1.3-.1.5 0 .1 0 .2.1.3h.2zM21 13.4h.7l.5-1.9h-.8z"/>
        </g>
        <path fill="none" d="M21.7 11v-.2h-.2c0 .1.1.2.2.2zM22 11v-.2h-.3v.2h.1c.1.1.2.1.2 0zM21.5 10.8h.2v-.2c-.1 0-.2.1-.2.2zM21.8 10.6v.2h.2v-.2h-.1-.1zM22.3 10.6c0-.1-.1-.2-.2-.2v.1c.1 0 .2.1.2.1zM22.1 10.6v.2h.2c0-.1-.1-.2-.2-.2zM22.3 10.8h-.2v.2c.1 0 .2-.1.2-.2zM21.9 11.1s-.1 0 0 0c-.1 0-.1.1-.1.1h.1s.1 0 0-.1c.1.1.1 0 .1 0h-.1z"/>
        <path fill="none" d="M21.5 11c.1.1.1.2.3.2v-.1c-.2 0-.2 0-.3-.1zM22.1 11.1s0 .1 0 0c.1.1.2 0 .2-.1-.1 0-.1.1-.2.1zM21.9 10.5h.1v-.1h-.1-.1v.1h.1zM21.7 10.5v-.1c-.1 0-.2.1-.3.2.1 0 .2-.1.3-.1z"/>
        <path fill="#DE2739" d="M22 10.3h-.1-.1c-.2.1-.4.2-.4.5 0 .2.2.4.4.5h.2c.2-.1.4-.3.4-.5s-.1-.4-.4-.5zm.1.5v-.2c.1 0 .2.1.2.2h-.2zm-.1 0h-.3v-.2h.2c.1 0 .1.1.1.2zm-.3 0h-.2c0-.1.1-.2.2-.2v.2zm0 0v.2c-.1 0-.2-.1-.3-.2h.3zm.1 0h.2v.2h-.1-.1v-.2zm.3 0h.2c0 .1-.1.1-.2.2v-.2zm.2-.2c-.1-.1-.1-.1-.2-.1v-.1c.1 0 .2.1.2.2zm-.4-.2s.1 0 0 0c.1 0 .1.1.1.1h-.1-.1s0-.1.1-.1c-.1 0 0 0 0 0zm-.2 0v.1c-.1 0-.2.1-.2.1 0-.1.1-.2.2-.2zm-.2.6c.1 0 .1.1.2.1v.1c-.1 0-.2-.1-.2-.2zm.4.2c-.1 0-.1-.1-.1-.1h.2c0 .1 0 .1-.1.1.1 0 0 0 0 0zm.2 0s0-.1 0 0l.2-.2c-.1.1-.1.2-.2.2z"/>
    </g>
</svg>