<svg xmlns="http://www.w3.org/2000/svg" viewBox="0 0 38 24" width="38" height="24" role="img" aria-labelledby="pi-acima_leasing"><title id="pi-acima_leasing">Acima Leasing</title><path fill="#fff" d="M0 0h38v24H0z"/><path d="M3.761 6.385a3.718 3.718 0 10-.085 7.437h.085c.732 0 1.448-.218 2.056-.627v.53h1.657v-3.632a3.718 3.718 0 00-3.718-3.719l.005.011zm-.005 5.705a2.008 2.008 0 112.013-1.997A2.008 2.008 0 013.76 12.1M33.565 6.385a3.718 3.718 0 000 7.437c.731 0 1.445-.218 2.05-.627v.53h1.663v-3.632a3.718 3.718 0 00-3.718-3.719l.005.011zm-.005 5.705a2.008 2.008 0 110-4.016 2.008 2.008 0 010 4.016zM11.75 13.816a3.718 3.718 0 113.017-5.88l-1.37.988a2.013 2.013 0 10.074 2.247l1.424.882a3.719 3.719 0 01-3.156 1.763M17.269 13.705h-1.62V7.777l1.62-1.174v7.102zM29.088 9.492v4.213h-1.764V9.492a1.216 1.216 0 00-2.433 0v4.213h-1.784V9.492A1.22 1.22 0 0021.4 8.291a1.222 1.222 0 00-.733 1.201v4.213h-1.763V9.492a2.985 2.985 0 015.104-2.098 2.97 2.97 0 015.079 2.098zM13.46 4.818l2.327 1.551.026-.037.006-1.514H13.46z" fill="#6BC4E8"/><path d="M15.787 4l1.615.85-1.6-.005-.015-.027V4z" fill="#0033A1"/><path d="M17.423 5.28l-1.636 1.09V4.817h1.492a.25.25 0 01.255.255.297.297 0 01-.111.207zM11.282 19.339H9.164A.164.164 0 019 19.174v-4.01A.164.164 0 019.164 15h.128a.164.164 0 01.164.164v3.73h1.826a.164.164 0 01.164.165v.097a.164.164 0 01-.164.165M13.028 19.418a1.47 1.47 0 01-.608-.122 1.393 1.393 0 01-.463-.328 1.455 1.455 0 01-.304-.506 1.868 1.868 0 01-.103-.608 1.607 1.607 0 01.11-.609c.067-.177.168-.34.297-.48.124-.14.278-.25.45-.323a1.466 1.466 0 011.157 0 1.28 1.28 0 01.688.78c.055.162.084.332.085.504v.11a.17.17 0 01-.17.164H12.03c.013.086.031.172.055.256.039.131.1.255.183.365a.994.994 0 001.009.322c.232-.06.435-.2.573-.395a.176.176 0 01.243 0l.091.079a.177.177 0 010 .231 1.54 1.54 0 01-.505.426c-.208.1-.438.15-.669.146l.018-.012zm-.998-1.813h1.826a.97.97 0 00-.06-.238.895.895 0 00-.19-.304.795.795 0 00-.286-.195 1.004 1.004 0 00-.797.03.912.912 0 00-.292.256 1.098 1.098 0 00-.17.323c0 .048 0 .091-.03.128zM15.718 19.418a1.253 1.253 0 01-.688-.213.846.846 0 01-.347-.7.822.822 0 01.183-.554 1.18 1.18 0 01.42-.31c.163-.07.335-.115.511-.134.156-.019.312-.029.469-.03h.286v-.043a.656.656 0 00-.177-.511.712.712 0 00-.499-.158c-.125 0-.248.022-.365.067-.115.05-.222.118-.316.2a.182.182 0 01-.128.043.153.153 0 01-.116-.073l-.067-.097a.17.17 0 010-.22c.137-.116.293-.207.463-.267.161-.061.332-.094.505-.098.297-.015.588.083.815.274a1.078 1.078 0 01.323.846v1.442a2.077 2.077 0 000 .262.178.178 0 01-.037.134.171.171 0 01-.127.06h-.122a.164.164 0 01-.158-.133v-.134a.915.915 0 01-.19.146c-.201.133-.439.203-.68.2h.042zm.566-1.503h-.432a1.507 1.507 0 00-.396.097.61.61 0 00-.261.183.432.432 0 00-.085.286.45.45 0 00.048.219c.03.057.073.106.128.14.06.038.126.067.195.085a.784.784 0 00.608-.06.695.695 0 00.292-.196.998.998 0 00.134-.31c.029-.118.043-.238.043-.359v-.06l-.274-.025zM18.548 19.406a1.351 1.351 0 01-.609-.128 1.218 1.218 0 01-.456-.377.188.188 0 010-.128.165.165 0 01.073-.11l.097-.067a.17.17 0 01.231.043.766.766 0 00.676.329.852.852 0 00.207-.03.549.549 0 00.176-.098.396.396 0 00.17-.335.377.377 0 00-.048-.2.438.438 0 00-.152-.128 1.023 1.023 0 00-.238-.098l-.28-.079a1.962 1.962 0 01-.285-.091 1.016 1.016 0 01-.262-.152.675.675 0 01-.189-.244.802.802 0 01-.073-.359.78.78 0 01.316-.633.912.912 0 01.31-.146c.11-.036.226-.055.342-.055a1.065 1.065 0 01.93.45.176.176 0 010 .135.158.158 0 01-.078.11l-.104.06a.17.17 0 01-.219-.043.608.608 0 00-.237-.206.719.719 0 00-.505-.037.609.609 0 00-.17.067.426.426 0 00-.11.122.304.304 0 00-.043.176.365.365 0 00.037.189.189.189 0 00.091.103c.059.04.125.07.195.085.094.032.189.058.286.08.107.028.213.062.316.103.105.036.203.087.292.152.093.065.17.15.225.25.061.116.09.246.086.377a.853.853 0 01-.31.675.876.876 0 01-.323.177 1.103 1.103 0 01-.384.06M20.276 19.339h-.122a.17.17 0 01-.17-.165V16.57a.176.176 0 01.17-.17h.122a.17.17 0 01.164.17v2.586a.165.165 0 01-.164.165v.018zm-.061-3.603a.292.292 0 01-.207-.085.31.31 0 01-.053-.366.3.3 0 01.554.099.298.298 0 01-.093.267.281.281 0 01-.201.085zM23.306 19.339h-.128a.163.163 0 01-.157-.114.164.164 0 01-.007-.069V17.61a1.9 1.9 0 00-.03-.31.79.79 0 00-.104-.268.56.56 0 00-.2-.194.754.754 0 00-.652 0 .903.903 0 00-.267.213c-.087.102-.153.22-.195.347a1.424 1.424 0 00-.073.48v1.278a.164.164 0 01-.165.165h-.121a.17.17 0 01-.17-.165v-2.264-.17-.14a.17.17 0 01.042-.128.177.177 0 01.122-.054h.127a.17.17 0 01.165.152v.152c.052-.054.11-.103.17-.146.102-.08.218-.139.341-.177.122-.038.25-.059.377-.06a1.18 1.18 0 01.536.115c.138.075.257.181.347.31.082.127.141.267.176.414.031.144.048.291.049.438v1.558a.164.164 0 01-.165.165M25.4 20.75a1.727 1.727 0 01-.724-.14 1.557 1.557 0 01-.548-.401.164.164 0 010-.225l.085-.085a.169.169 0 01.122-.05c.046.004.089.023.121.056.113.138.26.245.426.31a1.254 1.254 0 00.998 0 .761.761 0 00.299-.274c.076-.125.13-.263.158-.407.034-.169.05-.34.048-.512-.07.072-.147.135-.23.189a1.216 1.216 0 01-.378.17 1.49 1.49 0 01-1.004-.06 1.473 1.473 0 01-.463-.323 1.37 1.37 0 01-.304-.493 1.63 1.63 0 01-.11-.608 1.66 1.66 0 01.11-.609 1.45 1.45 0 012.136-.724c.088.058.17.126.243.2v-.176a.176.176 0 01.17-.17h.122a.17.17 0 01.165.17v2.434c0 .205-.022.41-.067.609a1.6 1.6 0 01-.244.56c-.117.166-.274.3-.456.39a1.449 1.449 0 01-.681.145l.006.024zm-.006-4.01a.917.917 0 00-.414.086.979.979 0 00-.323.243 1.112 1.112 0 00-.2.353c-.098.278-.098.58 0 .858.044.13.112.252.2.359a.986.986 0 001.144.231 1.034 1.034 0 00.542-.59 1.217 1.217 0 000-.864 1.033 1.033 0 00-.542-.59.886.886 0 00-.407-.086zM27.548 18.7h-.232v-.122h.597v.122h-.232v.639h-.133v-.64zM28.004 18.578h.207l.2.542.195-.542h.213v.76h-.133v-.608l-.232.609h-.097l-.225-.609v.609h-.128v-.76z" fill="#EB5E1B"/></svg>