<svg xmlns="http://www.w3.org/2000/svg" viewBox="0 0 38 24" role="img" aria-labelledby="pi-acima_leasing" width="38" height="24" fill="none"><title id="pi-acima_leasing">Acima Leasing</title><path fill="#fff" d="M0 0h38v24H0z"/><path fill="#6BC4E8" d="M6.928 7.14a3.017 3.017 0 0 0-.07 6.034h.07a2.99 2.99 0 0 0 1.668-.509v.43h1.345v-2.947A3.017 3.017 0 0 0 6.924 7.13l.004.01Zm-.004 4.629a1.63 1.63 0 1 1 1.633-1.62 1.63 1.63 0 0 1-1.63 1.628m24.185-4.638a3.017 3.017 0 1 0 0 6.035 2.97 2.97 0 0 0 1.664-.509v.43h1.35v-2.947a3.016 3.016 0 0 0-3.018-3.018l.004.01v-.001Zm-.004 4.63a1.63 1.63 0 1 1 0-3.26 1.63 1.63 0 0 1 0 3.26Zm-17.697 1.4a3.017 3.017 0 1 1 2.448-4.771l-1.112.801a1.633 1.633 0 1 0 .06 1.824l1.156.715a3.018 3.018 0 0 1-2.561 1.431m4.487-.09h-1.315v-4.81l1.315-.953v5.763Zm9.59-3.419v3.419h-1.43V9.66a.987.987 0 1 0-1.975 0v3.419h-1.448V9.66a.99.99 0 0 0-1.837-.581.992.992 0 0 0-.143.581v3.419h-1.43V9.66a2.421 2.421 0 0 1 4.141-1.702A2.41 2.41 0 0 1 27.48 9.66h-.001ZM14.8 5.868l1.887 1.258.021-.03.005-1.228h-1.914.001Z"/><path fill="#0033A1" d="m16.686 5.204 1.31.69L16.7 5.89l-.013-.022v-.664h-.001Z"/><path fill="#EB5E1B" d="m18.014 6.243-1.328.884v-1.26h1.211a.204.204 0 0 1 .207.207.24.24 0 0 1-.09.168v.001ZM13.03 17.65h-1.719a.134.134 0 0 1-.133-.134v-3.254a.133.133 0 0 1 .133-.133h.104a.133.133 0 0 1 .133.133v3.027h1.482a.134.134 0 0 1 .123.083c.007.016.01.034.01.051v.078a.134.134 0 0 1-.133.134m1.417.079a1.194 1.194 0 0 1-.494-.1 1.129 1.129 0 0 1-.622-.675 1.516 1.516 0 0 1-.084-.494 1.304 1.304 0 0 1 .33-.884c.101-.114.226-.203.366-.262a1.19 1.19 0 0 1 .939 0 1.04 1.04 0 0 1 .558.633c.044.131.068.27.069.409v.09a.138.138 0 0 1-.138.132h-1.734c.01.07.025.14.044.208a.933.933 0 0 0 .149.296.807.807 0 0 0 .819.261.821.821 0 0 0 .465-.32.143.143 0 0 1 .197 0l.074.064a.144.144 0 0 1 0 .187 1.25 1.25 0 0 1-.41.346c-.17.081-.355.122-.543.119l.015-.01Zm-.81-1.471h1.481a.788.788 0 0 0-.202-.44.646.646 0 0 0-.233-.158.815.815 0 0 0-.646.024.74.74 0 0 0-.237.208.892.892 0 0 0-.138.262c0 .039 0 .074-.024.104h-.001Zm2.992 1.47a1.018 1.018 0 0 1-.558-.172.685.685 0 0 1-.281-.568.667.667 0 0 1 .148-.45.958.958 0 0 1 .34-.251c.133-.057.273-.093.415-.109a3.48 3.48 0 0 1 .381-.024h.232v-.035a.53.53 0 0 0-.143-.415.578.578 0 0 0-.405-.128.821.821 0 0 0-.297.054.994.994 0 0 0-.256.163.148.148 0 0 1-.104.035.124.124 0 0 1-.094-.06l-.054-.078a.138.138 0 0 1 0-.179 1.17 1.17 0 0 1 .375-.216c.131-.05.27-.077.41-.08a.952.952 0 0 1 .661.222.875.875 0 0 1 .263.687v1.17c-.005.07-.005.142 0 .213a.142.142 0 0 1-.03.108.14.14 0 0 1-.104.049h-.099a.133.133 0 0 1-.128-.108v-.109a.74.74 0 0 1-.154.119.98.98 0 0 1-.552.162h.034Zm.46-1.219h-.35c-.11.012-.219.038-.322.079a.496.496 0 0 0-.212.148.35.35 0 0 0-.069.233.365.365 0 0 0 .039.177.3.3 0 0 0 .104.114c.049.03.102.054.158.069a.637.637 0 0 0 .493-.049.565.565 0 0 0 .237-.159.808.808 0 0 0 .11-.251c.023-.096.034-.194.034-.292v-.048l-.222-.02v-.001Zm1.837 1.21c-.17.004-.34-.031-.494-.104a.988.988 0 0 1-.37-.306.154.154 0 0 1 0-.104.134.134 0 0 1 .059-.089l.079-.054a.138.138 0 0 1 .187.035.622.622 0 0 0 .549.267.693.693 0 0 0 .167-.025.445.445 0 0 0 .143-.08.32.32 0 0 0 .138-.271.307.307 0 0 0-.039-.162.356.356 0 0 0-.123-.104.829.829 0 0 0-.193-.08l-.227-.064a1.585 1.585 0 0 1-.232-.074.824.824 0 0 1-.212-.123.547.547 0 0 1-.154-.198.648.648 0 0 1-.059-.291.632.632 0 0 1 .257-.514.74.74 0 0 1 .251-.118.893.893 0 0 1 .278-.045.865.865 0 0 1 .754.365.142.142 0 0 1 0 .11.127.127 0 0 1-.063.089l-.084.049a.138.138 0 0 1-.178-.035.493.493 0 0 0-.192-.167.583.583 0 0 0-.41-.03.496.496 0 0 0-.138.054.346.346 0 0 0-.09.099.247.247 0 0 0-.034.143.295.295 0 0 0 .03.153c.013.036.04.066.074.084a.451.451 0 0 0 .158.069c.076.026.153.047.232.065.087.022.173.05.256.083a.89.89 0 0 1 .237.123.6.6 0 0 1 .183.203c.05.094.073.2.07.306a.691.691 0 0 1-.252.548.71.71 0 0 1-.262.144.894.894 0 0 1-.312.048m1.418-.053h-.099a.138.138 0 0 1-.138-.134v-2.113a.143.143 0 0 1 .138-.138h.099a.138.138 0 0 1 .133.138v2.098a.134.134 0 0 1-.133.134v.015Zm-.05-2.924a.237.237 0 0 1-.167-.069.252.252 0 0 1-.043-.297.243.243 0 0 1 .44.198.242.242 0 0 1-.066.099.227.227 0 0 1-.164.07v-.001Zm2.509 2.924h-.104a.132.132 0 0 1-.133-.149v-1.254a1.545 1.545 0 0 0-.025-.252.64.64 0 0 0-.084-.217.453.453 0 0 0-.162-.158.612.612 0 0 0-.53 0 .733.733 0 0 0-.216.173.84.84 0 0 0-.158.282 1.156 1.156 0 0 0-.06.39v1.036a.134.134 0 0 1-.133.134h-.099a.138.138 0 0 1-.138-.134v-2.088a.138.138 0 0 1 .035-.104.144.144 0 0 1 .099-.044h.103a.138.138 0 0 1 .134.123v.124c.042-.044.089-.084.137-.119a.859.859 0 0 1 .277-.144c.1-.03.203-.047.306-.048.15-.004.3.028.435.093a.822.822 0 0 1 .282.252c.066.103.114.216.142.336.026.116.04.236.04.355v1.264a.133.133 0 0 1-.134.134m1.685 1.16a1.402 1.402 0 0 1-.588-.114 1.263 1.263 0 0 1-.444-.325.133.133 0 0 1 0-.183l.069-.069a.135.135 0 0 1 .099-.04.154.154 0 0 1 .098.045.846.846 0 0 0 .346.252 1.018 1.018 0 0 0 .81 0 .618.618 0 0 0 .242-.223.999.999 0 0 0 .128-.33 2.07 2.07 0 0 0 .04-.415 1.127 1.127 0 0 1-.494.291 1.21 1.21 0 0 1-.815-.049 1.195 1.195 0 0 1-.376-.262 1.113 1.113 0 0 1-.246-.4 1.323 1.323 0 0 1-.09-.493c-.001-.17.03-.337.09-.495a1.177 1.177 0 0 1 1.733-.587c.071.047.138.102.197.162v-.143a.143.143 0 0 1 .138-.137h.1a.138.138 0 0 1 .133.137v1.976c0 .166-.018.332-.054.494a1.3 1.3 0 0 1-.198.454.99.99 0 0 1-.37.317 1.176 1.176 0 0 1-.553.117l.005.02Zm-.005-3.254a.744.744 0 0 0-.336.07.793.793 0 0 0-.424.483 1.04 1.04 0 0 0 .162.988.8.8 0 0 0 .928.187.84.84 0 0 0 .44-.479.988.988 0 0 0 0-.7.838.838 0 0 0-.44-.48.718.718 0 0 0-.33-.07v.001Zm1.748 1.59h-.188v-.099h.484v.1h-.188v.518h-.108v-.52.001Zm.37-.099h.168l.162.44.158-.44h.173v.617h-.108v-.493l-.188.494h-.079l-.182-.494v.494H26.6v-.617l-.001-.001Z"/></svg>