<svg xmlns="http://www.w3.org/2000/svg" role="img" width="38" height="24" viewBox="0 0 38 24"
  aria-labelledby="pi-acuotaz">
  <title id="pi-acuotaz">aCuotaz</title>
  <defs>
    <linearGradient transform="matrix(1 0 0 1 0 0)" id="1" x1="-72.65" y1="725.01" x2="-72.05" y2="725.06">
      <stop stop-color="#4BBED2" offset="0%" />
      <stop stop-color="#64B879" offset="100%" />
    </linearGradient>
  </defs>

  <g transform="matrix(0.029118052 0 0 0.029118052 4.5918503 -2.416798)">
    <path transform="matrix(1 0 0 1 0 2.842171E-14)"
      d="M903.241 194.68L89.052 194.68C 45.798 194.68 12.722 227.756 12.722 271.01L12.722 271.01L12.722 728.99097C 12.722 772.245 48.343 805.321 89.052 805.321L89.052 805.321L903.241 805.321C 946.49506 805.321 979.57104 772.245 979.57104 728.99097L979.57104 728.99097L979.57104 271.01C 979.57104 227.75601 943.9501 194.68001 903.241 194.68001L903.241 194.68001L903.241 194.68z"
      stroke="none" fill="#000000" fill-rule="nonzero" fill-opacity="0.06666667" />
    <path transform="matrix(1 0 0 1 0 2.842171E-14)"
      d="M903.241 220.123C 931.229 220.123 954.12805 243.022 954.12805 271.01L954.12805 271.01L954.12805 728.99097C 954.12805 756.97894 931.22906 779.878 903.241 779.878L903.241 779.878L89.052 779.878C 61.064003 779.878 38.165 756.979 38.165 728.99097L38.165 728.99097L38.165 271.01C 38.165 243.022 61.064003 220.12302 89.052 220.12302L89.052 220.12302L903.241 220.12302"
      stroke="none" fill="#FFFFFF" fill-rule="nonzero" />
    <g transform="matrix(8.1169 0 0 8.1169 192.156 500)">
      <path
        d="M-12.97 -2.54C -9.780001 0.22000003 -5.1200004 4.46 -5.1200004 4.46C -5.1200004 4.46 5.59 -8.25 15.72 -14.36L15.72 -14.36L16.5 -12.23C 12.82 -9.88 1.69 2.98 -2.67 14.36C -2.67 14.36 -14.29 2.83 -16.5 0.19999981L-16.5 0.19999981L-12.97 -2.5400002L-12.97 -2.54z"
        stroke="none" fill="url(#1)" />
    </g>
    <path transform="matrix(1 0 0 1 0 2.842171E-14)"
      d="M453.927 441.593C 457.0205 441.57993 460.11136 441.76965 463.18 442.16098C 471.324 443.14597 479.20398 445.68097 486.39398 449.62897C 487.3204 450.01062 488.03812 450.7721 488.36435 451.71948C 488.6906 452.66684 488.59393 453.70877 488.09897 454.57996C 485.90698 460.75696 481.47498 465.88394 475.67996 468.94696C 474.50912 469.76187 472.9548 469.76187 471.78397 468.94696C 463.2553 463.7575 452.76407 462.9434 443.53696 466.75497C 429.33197 472.43698 424.94894 489.64496 426.16696 504.41696C 426.57495 513.56995 430.36395 522.24695 436.79996 528.76794C 448.08206 537.12897 463.50485 537.12897 474.78696 528.76794C 475.4989 528.19885 476.51 528.19885 477.22195 528.76794C 483.6405 532.1743 488.41153 538.0282 490.45294 545.00195C 491.1037 546.3485 490.5636 547.96844 489.23495 548.65497C 472.3743 558.28174 452.29395 560.5422 433.71497 554.90497C 411.7811 548.0896 396.58942 528.10565 395.88995 505.14798C 394.73666 491.46997 398.00882 477.78333 405.22394 466.106C 408.6112 460.86896 412.96353 456.32388 418.04895 452.71298C 422.97134 449.1236 428.45798 446.38028 434.28296 444.59598C 440.6415 442.60925 447.26425 441.59677 453.92596 441.593L453.92596 441.593L453.927 441.593zM640.614 557.82697C 631.9399 558.36426 623.28 556.57056 615.533 552.63196C 605.6911 547.80725 598.6876 538.63916 596.62103 527.87494C 593.6592 516.4107 594.5431 504.29108 599.137 493.37793C 603.7961 483.1855 612.7011 475.55713 623.48804 472.51794C 631.3678 470.1108 639.6768 469.4461 647.83905 470.56995C 662.61926 471.11035 675.8497 479.8888 682.09204 493.29694C 685.4373 501.46378 686.7198 510.32886 685.82605 519.10895C 685.57 527.1575 682.8816 534.9396 678.11505 541.42993C 672.944 548.4161 665.5643 553.4503 657.17303 555.71594C 651.8053 557.3157 646.21246 558.0284 640.61505 557.8259zM640.614 536.72296C 648.3053 537.37775 655.27435 532.186 656.848 524.62897C 658.3091 518.2175 658.3091 511.55948 656.848 505.14798C 656.237 500.287 653.463 495.96097 649.299 493.378C 645.9792 491.7477 642.25415 491.12674 638.585 491.59198C 631.2554 492.21597 625.34644 497.8545 624.38 505.14697C 623.53326 510.52518 623.53326 516.00275 624.38 521.381C 624.855 529.996 631.986 536.735 640.614 536.722zM854.17004 523.087C 854.17004 526.496 853.52106 542.811 853.60205 547.438C 853.905 549.3088 852.6933 551.09033 850.84204 551.496C 845.22064 553.2801 839.5025 554.7434 833.715 555.87897C 827.776 556.81195 821.78503 557.38196 815.77704 557.584C 802.70905 558.152 785.58203 557.584 776.81604 545.81396C 769.53705 535.183 771.27405 520.80194 780.874 512.20996C 786.24286 508.13837 792.6646 505.68793 799.38104 505.14795C 805.7498 504.49838 812.1683 504.49838 818.53705 505.14795C 821.78406 505.14795 825.35504 507.50195 825.19305 502.46896C 825.13007 497.30298 821.16705 493.02396 816.02106 492.56598C 806.98206 491.15088 797.7309 492.86926 789.80304 497.43597C 788.97205 498.00797 787.874 498.00797 787.043 497.43597C 781.77905 494.72397 777.744 490.11 775.76105 484.52997C 775.27405 482.98798 775.35504 482.17596 776.65405 481.28296C 788.4834 473.64792 802.4603 470.0329 816.50806 470.97495C 825.75104 471.06592 834.7603 473.89017 842.40106 479.09195C 848.7063 484.49622 852.5443 492.23105 853.03406 500.52094C 853.7651 507.90692 854.17004 515.5369 854.17004 523.08594zM825.19305 524.22296C 825.19305 522.92395 825.19305 522.03094 823.57007 521.707C 818.25604 520.25696 812.6501 520.25696 807.33606 521.707C 803.29803 522.66595 800.48706 526.32495 800.59906 530.47296C 800.53864 534.8606 803.4911 538.7187 807.74207 539.80695C 812.90027 541.1881 818.33093 541.1881 823.4891 539.80695C 824.7071 539.80695 825.03107 538.83295 825.03107 537.69696zM383.31006 524.14197L383.31006 547.519C 383.31006 550.11597 382.41705 551.496 380.14407 552.06396C 370.94272 554.6587 361.55276 556.53143 352.06006 557.665C 342.26816 558.49304 332.40894 557.97424 322.75806 556.123C 317.69254 554.9413 313.03842 552.418 309.28406 548.818C 301.49606 540.427 300.14307 527.917 305.95605 518.055C 309.04968 513.5557 313.437 510.10226 318.53705 508.15198C 329.24707 504.1348 340.89377 503.31696 352.06006 505.79797C 354.90106 506.36597 355.71307 504.74298 355.22604 501.90198C 354.60306 497.88797 351.78104 494.563 347.92105 493.29797C 345.50073 492.57187 342.97867 492.24295 340.45306 492.32397C 333.42807 492.20398 326.49106 493.90997 320.32306 497.27496C 319.21405 498.00244 317.77905 498.00244 316.67004 497.27496C 311.796 494.5949 307.98642 490.32693 305.87503 485.18097C 305.47104 484.46097 305.37204 483.60898 305.60104 482.81598C 305.83005 482.02298 306.36703 481.35397 307.09305 480.96C 319.49805 473.087 334.20505 469.65298 348.81406 471.22C 355.15692 471.41006 361.38498 472.96002 367.07706 475.765C 374.08865 479.31488 379.4027 485.50485 381.85007 492.97302C 383.50607 500.976 383.96906 509.182 383.23007 517.32404L383.23007 517.32404L383.31107 524.142zM355.38806 530.798L355.38806 525.847C 355.38806 524.14197 355.38806 522.194 353.76508 521.707C 348.12808 520.0027 342.11307 520.0027 336.47607 521.707C 332.92734 522.7798 330.55585 526.12 330.71307 529.824C 330.32306 533.29 332.0121 536.65796 335.01508 538.428C 339.0031 540.5143 343.5502 541.2818 348.00208 540.62C 349.95007 540.62 353.76508 540.62 354.90106 538.347C 355.34702 537.07166 355.51312 535.7153 355.38806 534.37zM581.84906 546.464C 582.18207 548.674 580.82904 550.79 578.68304 551.415C 567.7973 555.5162 556.3017 557.7659 544.67303 558.071C 533.51404 559.272 522.24506 557.24396 512.205 552.227C 507.18744 549.3443 503.36047 544.769 501.41 539.321C 500.1015 534.6225 499.55356 529.74475 499.78702 524.873L499.78702 524.873L499.78702 487.53497L499.78702 476.82098C 499.78702 474.629 500.68002 472.68097 503.03403 472.59998L503.03403 472.59998L524.70605 472.59998C 527.70905 472.59998 528.11505 474.79196 528.11505 477.55096L528.11505 477.55096L528.11505 524.30396C 528.0882 526.60504 528.58795 528.8817 529.57605 530.95996C 531.624 534.256 535.19403 536.3 539.07306 536.39795C 543.1892 536.5049 547.3036 536.12354 551.3301 535.26196C 553.44006 534.85596 554.2521 533.55695 554.2521 531.12195L554.2521 531.12195L554.2521 476.90094C 554.2521 472.67993 554.2521 472.59894 558.1481 472.51794L558.1481 472.51794L577.54706 472.51794C 581.93005 472.51794 582.1741 472.51794 582.1741 477.71295L582.1741 477.71295L581.84906 546.46295zM706.4441 514.402L706.4441 496.30096C 706.4441 494.02795 705.7131 493.13498 703.5221 493.21695L703.5221 493.21695L695.4051 493.21695C 693.5381 493.21695 692.6451 492.40494 692.1581 490.37595C 691.10406 485.28894 691.10406 480.04095 692.1581 474.95395C 692.1581 473.33096 693.4571 473.16794 694.6741 473.16794L694.6741 473.16794L702.7911 473.16794C 705.30707 473.16794 706.28107 472.35593 706.2001 469.67795L706.2001 469.67795L706.2001 456.61C 706.2001 454.175 707.0121 453.201 709.3661 453.03897C 716.4925 452.3491 723.66864 452.3491 730.7951 453.03897C 734.1231 453.03897 734.4481 453.60696 734.4481 457.25998L734.4481 457.25998L734.4481 470.00397C 734.4481 472.27698 735.17914 473.16995 737.2891 473.08798L737.2891 473.08798L759.28613 473.08798C 762.8571 473.08798 762.93915 473.08798 763.3441 477.228C 763.7091 481.27814 763.7091 485.35284 763.3441 489.40298C 763.3441 492.163 762.1261 493.218 759.6101 493.137L759.6101 493.137L738.0191 493.137C 734.6101 493.137 734.4481 493.137 734.4481 496.871L734.4481 496.871L734.4481 527.796C 734.2661 530.059 735.04114 532.294 736.5831 533.96C 738.1251 535.62604 740.2951 536.56903 742.5651 536.562C 746.86707 537.10443 751.2152 536.003 754.7401 533.478C 757.0131 531.773 758.5551 533.478 760.0971 534.533C 763.56885 537.59283 766.2668 541.4312 767.9701 545.734C 769.2691 548.656 769.0251 549.711 766.2651 551.335C 761.89105 553.953 757.1216 555.84454 752.1421 556.93604C 746.0812 558.1813 739.8576 558.4282 733.7171 557.66705C 725.01965 557.46576 716.829 553.53326 711.2331 546.8721C 708.0464 542.6441 706.36115 537.4739 706.4441 532.18005L706.4441 532.18005L706.4441 514.40405zM903.44006 493.055C 903.44006 492.487 901.57306 493.055 900.68005 493.055L900.68005 493.055L870.32306 493.055C 868.05005 493.055 866.7521 492.649 866.10205 490.133C 865.006 485.79077 865.006 481.24426 866.10205 476.902C 867.15704 472.681 872.1091 473.493 875.19305 473.493L875.19305 473.493L932.57904 473.493C 937.77405 473.493 939.31604 475.84702 938.74805 481.61002C 937.85205 488.18103 935.0281 494.33902 930.63104 499.30502L930.63104 499.30502L905.71204 530.961L902.952 534.208C 902.76495 534.5636 902.76495 534.9884 902.952 535.344C 902.952 536.318 904.494 535.912 905.306 535.912L905.306 535.912L935.663 535.912C 937.692 535.912 939.965 535.912 940.85803 538.266C 942.0755 542.7298 942.0755 547.4382 940.85803 551.902C 940.37103 554.581 939.559 556.204 936.96204 556.204L936.96204 556.204L869.99805 556.204C 867.5162 555.96 865.6032 553.90784 865.53406 551.415C 864.6505 544.7184 867.0003 538.0001 871.86505 533.31396L871.86505 533.31396L902.79004 495.65198C 902.62805 494.597 903.52106 493.623 903.439 493.055z"
      stroke="none" fill="#31AE78" fill-rule="nonzero" />
  </g>
</svg>