<svg xmlns="http://www.w3.org/2000/svg" width="38" height="24" fill="none" aria-labelledby="pi-acuotaz" role="img" viewBox="0 0 38 24"><title id="pi-acuotaz">acuotaz</title><path fill="#fff" d="M0 0h38v24H0z"/><path fill="url(#pi-actuoz-a)" d="M2.422 11.153a168 168 0 0 1 2.48 2.212S8.286 9.35 11.487 7.42l.246.673c-1.162.742-4.679 4.806-6.057 8.401 0 0-3.671-3.643-4.37-4.474z"/><path fill="#31AE78" d="M17.736 9.684q.18 0 .36.023c.317.038.624.137.904.29a.136.136 0 0 1 .066.193 1.02 1.02 0 0 1-.483.56.13.13 0 0 1-.152 0 1.22 1.22 0 0 0-1.1-.086c-.552.221-.723.89-.676 1.466.016.356.163.694.414.948a1.24 1.24 0 0 0 1.479 0 .076.076 0 0 1 .095 0 1.05 1.05 0 0 1 .515.632.107.107 0 0 1-.048.142 2.75 2.75 0 0 1-2.16.243 2.1 2.1 0 0 1-1.473-1.937 2.5 2.5 0 0 1 .363-1.52 2.13 2.13 0 0 1 1.131-.837 2.6 2.6 0 0 1 .765-.117m7.267 4.525a1.9 1.9 0 0 1-.976-.202 1.36 1.36 0 0 1-.737-.964 2.1 2.1 0 0 1 .098-1.343 1.49 1.49 0 0 1 .948-.812c.307-.094.63-.12.948-.076a1.53 1.53 0 0 1 1.334.885c.13.318.18.663.145 1.005-.01.313-.115.616-.3.869a1.5 1.5 0 0 1-.815.556q-.317.093-.645.082m0-.822a.594.594 0 0 0 .632-.47c.057-.25.057-.509 0-.759a.63.63 0 0 0-.294-.458.74.74 0 0 0-.417-.07.61.61 0 0 0-.553.528 2 2 0 0 0 0 .632.63.63 0 0 0 .632.597m8.313-.53c0 .132-.025.767-.022.948a.14.14 0 0 1-.108.158 6 6 0 0 1-.666.17 6 6 0 0 1-.699.067c-.508.022-1.175 0-1.516-.459a1 1 0 0 1 .158-1.308 1.37 1.37 0 0 1 .72-.275 3.7 3.7 0 0 1 .746 0c.126 0 .265.092.259-.104a.39.39 0 0 0-.357-.385 1.56 1.56 0 0 0-1.02.19.095.095 0 0 1-.108 0 .9.9 0 0 1-.44-.503c-.018-.06-.015-.092.035-.127a2.55 2.55 0 0 1 1.552-.4c.36.003.71.113 1.008.315a1.2 1.2 0 0 1 .414.834c.028.288.044.585.044.879m-1.128.044c0-.05 0-.085-.063-.098a1.2 1.2 0 0 0-.632 0 .34.34 0 0 0-.262.341.37.37 0 0 0 .278.364c.2.054.412.054.613 0 .047 0 .06-.038.06-.083zm-17.2-.003v.91c0 .1-.036.155-.124.177a7 7 0 0 1-1.093.218 4.2 4.2 0 0 1-1.141-.06 1.13 1.13 0 0 1-.524-.285 1.01 1.01 0 0 1-.13-1.197c.12-.175.291-.31.49-.386.417-.156.87-.188 1.305-.091.11.022.142-.041.123-.152a.42.42 0 0 0-.285-.335.9.9 0 0 0-.29-.038 1.6 1.6 0 0 0-.784.193.13.13 0 0 1-.142 0 .95.95 0 0 1-.435-.515.12.12 0 0 1 .062-.12 2.53 2.53 0 0 1 1.624-.38c.247.008.49.068.711.178a1.15 1.15 0 0 1 .575.67c.065.311.083.63.054.947zm-1.088.259v-.193c0-.066 0-.142-.063-.161a1.16 1.16 0 0 0-.673 0 .316.316 0 0 0-.224.316.34.34 0 0 0 .167.335.83.83 0 0 0 .506.085c.075 0 .224 0 .268-.088a.4.4 0 0 0 .02-.155zm8.815.61a.174.174 0 0 1-.123.192c-.424.16-.871.248-1.324.26a2.3 2.3 0 0 1-1.263-.228.95.95 0 0 1-.42-.502 1.8 1.8 0 0 1-.064-.563v-1.87c0-.086.035-.161.126-.165h.844c.117 0 .133.086.133.193v1.82a.6.6 0 0 0 .057.26.45.45 0 0 0 .37.21 2 2 0 0 0 .476-.043c.083-.016.114-.067.114-.162v-2.11c0-.164 0-.168.152-.17h.755c.17 0 .18 0 .18.201zm4.85-1.248v-.705c0-.088-.028-.123-.113-.12h-.316c-.073 0-.108-.032-.127-.11a1.5 1.5 0 0 1 0-.601c0-.063.05-.07.098-.07h.316c.098 0 .136-.031.133-.135v-.509c0-.095.032-.133.123-.14q.417-.04.834 0c.13 0 .142.023.142.165v.496c0 .089.029.124.111.12h.856c.14 0 .143 0 .158.161a2.7 2.7 0 0 1 0 .474c0 .108-.047.149-.145.146h-.84c-.133 0-.14 0-.14.145v1.204a.316.316 0 0 0 .316.341.67.67 0 0 0 .474-.12c.089-.066.149 0 .209.041.135.12.24.269.306.436.051.114.041.155-.066.218-.17.102-.356.176-.55.218a2.2 2.2 0 0 1-.717.029 1.18 1.18 0 0 1-.875-.42.93.93 0 0 1-.187-.572c-.003-.231 0-.462 0-.692m7.669-.831c0-.022-.073 0-.108 0h-1.181c-.089 0-.14-.016-.165-.114a1.05 1.05 0 0 1 0-.515c.041-.164.234-.133.354-.133h2.234c.202 0 .262.092.24.316a1.3 1.3 0 0 1-.316.689q-.483.618-.97 1.232l-.107.127a.05.05 0 0 0 0 .044c0 .038.06.022.091.022h1.182c.08 0 .168 0 .202.092a1 1 0 0 1 0 .53c-.019.105-.05.168-.151.168h-2.607a.193.193 0 0 1-.174-.187.83.83 0 0 1 .247-.704l1.204-1.466c-.007-.041.028-.08.025-.101"/><defs><linearGradient id="pi-actuoz-a" x1="3.958" x2="10.2" y1="12.737" y2="12.139" gradientUnits="userSpaceOnUse"><stop stop-color="#4BBED2"/><stop offset="1" stop-color="#64B879"/></linearGradient></defs></svg>