<svg xmlns="http://www.w3.org/2000/svg" role="img" viewBox="0 0 38 24" width="38" height="24" fill="none" aria-labelledby="pi-acuotaz"><title id="pi-acuotaz">acuotaz</title><path fill="#fff" d="M0 0h38v24H0z"/><path fill="url(#pi-actuoz-a)" d="M2.422 11.153a167.62 167.62 0 0 1 2.48 2.212S8.286 9.35 11.487 7.42l.246.673c-1.162.742-4.679 4.806-6.057 8.401 0 0-3.671-3.643-4.37-4.474l1.116-.866Z"/><path fill="#31AE78" d="M17.736 9.684c.12 0 .24.007.36.023.317.038.624.137.904.29a.136.136 0 0 1 .066.193c-.085.24-.257.44-.483.56a.133.133 0 0 1-.152 0 1.221 1.221 0 0 0-1.1-.086c-.552.221-.723.89-.676 1.466.016.356.163.694.414.948a1.242 1.242 0 0 0 1.479 0 .076.076 0 0 1 .095 0 1.048 1.048 0 0 1 .515.632.107.107 0 0 1-.048.142 2.75 2.75 0 0 1-2.16.243 2.096 2.096 0 0 1-1.473-1.937 2.493 2.493 0 0 1 .363-1.52 2.133 2.133 0 0 1 1.131-.837 2.57 2.57 0 0 1 .765-.117Zm7.267 4.525a1.896 1.896 0 0 1-.976-.202 1.36 1.36 0 0 1-.737-.964 2.104 2.104 0 0 1 .098-1.343 1.485 1.485 0 0 1 .948-.812c.307-.094.63-.12.948-.076a1.532 1.532 0 0 1 1.334.885c.13.318.18.663.145 1.005-.01.313-.115.616-.3.869a1.5 1.5 0 0 1-.815.556c-.21.062-.427.09-.645.082Zm0-.822a.594.594 0 0 0 .632-.47c.057-.25.057-.509 0-.759a.632.632 0 0 0-.294-.458.736.736 0 0 0-.417-.07.61.61 0 0 0-.553.528 2.03 2.03 0 0 0 0 .632.632.632 0 0 0 .632.597Zm8.313-.53c0 .132-.025.767-.022.948a.139.139 0 0 1-.108.158 6.13 6.13 0 0 1-.666.17 5.725 5.725 0 0 1-.699.067c-.508.022-1.175 0-1.516-.459a.998.998 0 0 1 .158-1.308c.209-.159.459-.254.72-.275.248-.025.498-.025.746 0 .126 0 .265.092.259-.104a.392.392 0 0 0-.357-.385 1.56 1.56 0 0 0-1.02.19.095.095 0 0 1-.108 0 .907.907 0 0 1-.44-.503c-.018-.06-.015-.092.035-.127a2.547 2.547 0 0 1 1.552-.4c.36.003.71.113 1.008.315a1.19 1.19 0 0 1 .414.834c.028.288.044.585.044.879Zm-1.128.044c0-.05 0-.085-.063-.098a1.2 1.2 0 0 0-.632 0 .34.34 0 0 0-.262.341.37.37 0 0 0 .278.364c.2.054.412.054.613 0 .047 0 .06-.038.06-.083l.006-.524Zm-17.2-.003v.91c0 .1-.036.155-.124.177a7.146 7.146 0 0 1-1.093.218 4.182 4.182 0 0 1-1.141-.06 1.128 1.128 0 0 1-.524-.285 1.008 1.008 0 0 1-.13-1.197c.12-.175.291-.31.49-.386.417-.156.87-.188 1.305-.091.11.022.142-.041.123-.152a.42.42 0 0 0-.285-.335.912.912 0 0 0-.29-.038 1.581 1.581 0 0 0-.784.193.13.13 0 0 1-.142 0 .948.948 0 0 1-.435-.515.12.12 0 0 1 .062-.12 2.528 2.528 0 0 1 1.624-.38c.247.008.49.068.711.178a1.152 1.152 0 0 1 .575.67c.065.311.083.63.054.947l.004.266Zm-1.088.259v-.193c0-.066 0-.142-.063-.161a1.163 1.163 0 0 0-.673 0 .316.316 0 0 0-.224.316.344.344 0 0 0 .167.335.828.828 0 0 0 .506.085c.075 0 .224 0 .268-.088a.368.368 0 0 0 .02-.155l-.001-.139Zm8.815.61a.174.174 0 0 1-.123.192c-.424.16-.871.248-1.324.26a2.282 2.282 0 0 1-1.263-.228.948.948 0 0 1-.42-.502 1.778 1.778 0 0 1-.064-.563v-1.87c0-.086.035-.161.126-.165h.844c.117 0 .133.086.133.193v1.82a.589.589 0 0 0 .057.26.448.448 0 0 0 .37.21c.16.005.32-.01.476-.043.083-.016.114-.067.114-.162v-2.11c0-.164 0-.168.152-.17h.755c.17 0 .18 0 .18.201l-.013 2.677Zm4.85-1.248v-.705c0-.088-.028-.123-.113-.12h-.316c-.073 0-.108-.032-.127-.11a1.48 1.48 0 0 1 0-.601c0-.063.05-.07.098-.07h.316c.098 0 .136-.031.133-.135v-.509c0-.095.032-.133.123-.14.277-.027.557-.027.834 0 .13 0 .142.023.142.165v.496c0 .089.029.124.111.12h.856c.14 0 .143 0 .158.161.014.158.014.316 0 .474 0 .108-.047.149-.145.146h-.84c-.133 0-.14 0-.14.145v1.204a.316.316 0 0 0 .316.341.67.67 0 0 0 .474-.12c.089-.066.149 0 .209.041.135.12.24.269.306.436.051.114.041.155-.066.218-.17.102-.356.176-.55.218a2.213 2.213 0 0 1-.717.029 1.179 1.179 0 0 1-.875-.42.926.926 0 0 1-.187-.572c-.003-.231 0-.462 0-.692Zm7.669-.831c0-.022-.073 0-.108 0h-1.181c-.089 0-.14-.016-.165-.114a1.051 1.051 0 0 1 0-.515c.041-.164.234-.133.354-.133h2.234c.202 0 .262.092.24.316a1.304 1.304 0 0 1-.316.689c-.322.412-.645.823-.97 1.232l-.107.127a.047.047 0 0 0 0 .044c0 .038.06.022.091.022h1.182c.08 0 .168 0 .202.092a.993.993 0 0 1 0 .53c-.019.105-.05.168-.151.168h-2.607a.193.193 0 0 1-.174-.187.828.828 0 0 1 .247-.704l1.204-1.466c-.007-.041.028-.08.025-.101Z"/><defs><linearGradient id="pi-actuoz-a" x1="3.958" x2="10.2" y1="12.737" y2="12.139" gradientUnits="userSpaceOnUse"><stop stop-color="#4BBED2"/><stop offset="1" stop-color="#64B879"/></linearGradient></defs></svg>