<svg xmlns="http://www.w3.org/2000/svg" role="img" width="38" height="24" viewBox="0 0 38 24"
  aria-labelledby="pi-acuotaz">
  <title id="pi-acuotaz">aCuotaz</title>
  <defs>
    <linearGradient transform="matrix(33 0 0 -28.72 2950.34 20426.7)" id="a" x1="-89.15" y1="710.65" x2="-88.55"
      y2="710.7">
      <stop stop-color="#4BBED2" offset="0%" />
      <stop stop-color="#64B879" offset="100%" />
    </linearGradient>
  </defs>
  <path d="M35.033.036h-32c-1.7 0-3 1.3-3 3v18c0 1.7 1.4 3 3 3h32c1.7 0 3-1.3 3-3v-18c0-1.7-1.4-3-3-3z"
    fill-opacity=".067" />
  <path d="M35.033 1.036c1.1 0 2 .9 2 2v18c0 1.1-.9 2-2 2h-32c-1.1 0-2-.9-2-2v-18c0-1.1.9-2 2-2h32" fill="#FFF" />
  <g>
    <path transform="translate(1.526 7.467) scale(.31262)"
      d="M3.53 11.82c3.19 2.76 7.85 7 7.85 7S22.09 6.11 32.22 0L33 2.13c-3.68 2.35-14.81 15.21-19.17 26.59 0 0-11.62-11.53-13.83-14.16l3.53-2.74z"
      fill="url(#a)" />
    <path
      d="M17.782 9.708c.12 0 .239.007.357.022.313.038.617.136.894.288a.134.134 0 0 1 .066.19 1.007 1.007 0 0 1-.479.554.131.131 0 0 1-.15 0 1.207 1.207 0 0 0-1.088-.084c-.547.218-.716.881-.669 1.45.016.353.162.687.41.938a1.229 1.229 0 0 0 1.463 0 .075.075 0 0 1 .094 0c.247.131.43.357.51.625a.106.106 0 0 1-.048.141 2.72 2.72 0 0 1-2.138.24 2.073 2.073 0 0 1-1.457-1.916 2.467 2.467 0 0 1 .36-1.503c.13-.202.298-.377.494-.516.19-.138.4-.244.625-.313.245-.076.5-.115.756-.116zM24.973 14.185a1.876 1.876 0 0 1-.966-.2 1.344 1.344 0 0 1-.729-.953 2.082 2.082 0 0 1 .097-1.329 1.47 1.47 0 0 1 .938-.803c.304-.093.624-.119.938-.075.57.02 1.079.358 1.32.875.128.314.177.656.143.994-.01.31-.113.61-.297.86-.2.269-.483.463-.807.55-.206.062-.422.089-.637.081zm0-.813a.588.588 0 0 0 .625-.465 1.691 1.691 0 0 0 0-.75.625.625 0 0 0-.29-.454.728.728 0 0 0-.413-.069.603.603 0 0 0-.548.522 2.01 2.01 0 0 0 0 .626.625.625 0 0 0 .626.59zM33.198 12.847c0 .132-.025.76-.022.938a.138.138 0 0 1-.106.156 6 6 0 0 1-.66.17c-.229.035-.46.057-.691.065-.503.022-1.163 0-1.5-.453a.988.988 0 0 1 .156-1.295 1.36 1.36 0 0 1 .713-.272c.245-.025.492-.025.737 0 .125 0 .263.091.257-.103a.388.388 0 0 0-.354-.381 1.544 1.544 0 0 0-1.01.187.094.094 0 0 1-.106 0 .897.897 0 0 1-.434-.497c-.019-.06-.016-.09.034-.125a2.52 2.52 0 0 1 1.535-.397c.356.004.703.112.997.313.243.208.391.506.41.825.028.285.044.578.044.87zm-1.116.044c0-.05 0-.084-.063-.097a1.188 1.188 0 0 0-.625 0 .338.338 0 0 0-.26.338.366.366 0 0 0 .276.36c.198.052.407.052.606 0 .047 0 .06-.038.06-.082zM15.063 12.888v.9c0 .1-.035.153-.122.175-.355.1-.716.172-1.082.216a4.14 4.14 0 0 1-1.129-.06 1.116 1.116 0 0 1-.518-.28.997.997 0 0 1-.129-1.186c.12-.173.288-.306.485-.381a2.273 2.273 0 0 1 1.291-.09c.11.021.14-.041.122-.15a.416.416 0 0 0-.281-.332.9.9 0 0 0-.288-.038 1.563 1.563 0 0 0-.775.191.128.128 0 0 1-.141 0 .938.938 0 0 1-.416-.466.119.119 0 0 1 .047-.162 2.501 2.501 0 0 1 1.607-.375c.244.007.484.067.703.175.27.136.475.375.57.662.063.309.08.625.052.938l.004.263zm-1.076.256v-.19c0-.066 0-.141-.062-.16a1.15 1.15 0 0 0-.666 0 .313.313 0 0 0-.222.313.34.34 0 0 0 .166.331.82.82 0 0 0 .5.084c.075 0 .222 0 .265-.087a.363.363 0 0 0 .02-.153zM22.71 13.748a.172.172 0 0 1-.123.19c-.419.158-.862.245-1.31.257a2.257 2.257 0 0 1-1.25-.225.938.938 0 0 1-.416-.498 1.76 1.76 0 0 1-.062-.556v-1.851c0-.084.034-.16.125-.162h.834c.116 0 .132.084.132.19v1.801a.581.581 0 0 0 .056.256.444.444 0 0 0 .366.21c.158.004.317-.01.472-.044.081-.015.112-.066.112-.16v-2.088c0-.162 0-.165.15-.168h.748c.168 0 .178 0 .178.2l-.013 2.648zM27.508 12.513v-.697c0-.088-.028-.122-.113-.12h-.312c-.072 0-.106-.03-.125-.109a1.463 1.463 0 0 1 0-.594c0-.062.05-.068.097-.068h.312c.097 0 .135-.032.132-.135v-.503c0-.094.03-.131.122-.138.274-.026.55-.026.825 0 .128 0 .14.022.14.163v.49c0 .088.029.123.11.12h.847c.138 0 .14 0 .156.159a2.61 2.61 0 0 1 0 .469c0 .106-.046.147-.143.144h-.832c-.131 0-.137 0-.137.143v1.192a.313.313 0 0 0 .312.337.663.663 0 0 0 .47-.119c.087-.065.146 0 .205.041.134.118.238.266.304.431.05.113.04.154-.066.216-.168.101-.352.174-.544.216a2.188 2.188 0 0 1-.71.028 1.166 1.166 0 0 1-.866-.416.916.916 0 0 1-.184-.566c-.003-.228 0-.456 0-.684zM35.095 11.69c0-.021-.072 0-.106 0h-1.17c-.087 0-.137-.015-.162-.112a1.041 1.041 0 0 1 0-.51c.04-.162.232-.13.35-.13h2.21c.2 0 .26.09.238.312-.034.253-.143.49-.312.681-.063.082-.894 1.141-.96 1.22l-.106.124a.047.047 0 0 0 0 .044c0 .038.059.022.09.022h1.17c.078 0 .165 0 .2.09a.997.997 0 0 1 0 .526c-.02.103-.05.166-.15.166h-2.58a.19.19 0 0 1-.172-.185.82.82 0 0 1 .244-.697l1.191-1.45c-.006-.041.028-.079.025-.1z"
      fill="#31AE78" />
  </g>
</svg>