<svg xmlns="http://www.w3.org/2000/svg" role="img" width="38" height="24" viewBox="0 0 38 24"
  aria-labelledby="pi-acuotaz">
  <title id="pi-acuotaz">aCuotaz</title>
  <defs>
    <linearGradient id="a" x1="-72.65" y1="725.01" x2="-72.05" y2="725.06">
      <stop stop-color="#4BBED2" offset="0%" />
      <stop stop-color="#64B879" offset="100%" />
    </linearGradient>
  </defs>
  <path
    d="M34.786.183H3.033C1.346.183.056 1.473.056 3.159v17.862c0 1.687 1.389 2.977 2.977 2.977h31.753c1.687 0 2.977-1.29 2.977-2.977V3.159c0-1.687-1.39-2.976-2.977-2.976z"
    fill-opacity=".067" />
  <path
    d="M34.786 1.175a1.99 1.99 0 0 1 1.985 1.984v17.862a1.99 1.99 0 0 1-1.985 1.984H3.033a1.99 1.99 0 0 1-1.985-1.984V3.159a1.99 1.99 0 0 1 1.985-1.984h31.753"
    fill="#FFF" />
  <path transform="translate(7.056 12.092) scale(.31668)"
    d="M-12.97-2.54c3.19 2.76 7.85 7 7.85 7S5.59-8.25 15.72-14.36l.78 2.13C12.82-9.88 1.69 2.98-2.67 14.36c0 0-11.62-11.53-13.83-14.16l3.53-2.74z"
    fill="url(#a)" />
  <path
    d="M17.263 9.812c.12 0 .241.007.361.022.318.039.625.138.905.292a.136.136 0 0 1 .067.193 1.02 1.02 0 0 1-.484.56.133.133 0 0 1-.152 0 1.222 1.222 0 0 0-1.102-.086c-.554.222-.725.893-.677 1.47.015.356.163.695.414.949.44.326 1.042.326 1.482 0a.076.076 0 0 1 .095 0c.25.133.436.361.516.633a.108.108 0 0 1-.048.143 2.754 2.754 0 0 1-2.165.243A2.099 2.099 0 0 1 15 12.291a2.498 2.498 0 0 1 .364-1.523c.132-.204.302-.381.5-.522.192-.14.406-.247.633-.317.248-.077.506-.117.766-.117zm7.28 4.533a1.9 1.9 0 0 1-.977-.202 1.361 1.361 0 0 1-.738-.966 2.108 2.108 0 0 1 .098-1.345c.182-.398.53-.695.95-.814.307-.094.631-.12.95-.076a1.535 1.535 0 0 1 1.336.887c.13.318.18.664.145 1.006-.01.314-.115.618-.3.87-.202.273-.49.47-.817.558-.21.062-.428.09-.646.082zm0-.823c.3.026.573-.177.634-.471a1.71 1.71 0 0 0 0-.76.633.633 0 0 0-.294-.46.737.737 0 0 0-.418-.069.611.611 0 0 0-.554.529c-.033.21-.033.423 0 .633a.633.633 0 0 0 .633.598zm8.33-.532c0 .133-.026.77-.023.95a.14.14 0 0 1-.107.158c-.22.07-.442.127-.668.171a5.754 5.754 0 0 1-.7.067c-.51.022-1.177 0-1.52-.46a1 1 0 0 1 .16-1.31c.208-.159.459-.254.72-.275.25-.026.5-.026.748 0 .127 0 .266.092.26-.105a.393.393 0 0 0-.358-.386 1.564 1.564 0 0 0-1.023.19.095.095 0 0 1-.107 0 .908.908 0 0 1-.44-.503c-.02-.06-.016-.092.035-.127a2.551 2.551 0 0 1 1.554-.402c.36.004.712.114 1.01.317.246.21.395.512.414.835.029.288.045.586.045.88zm-1.13.045c0-.051 0-.086-.064-.098a1.203 1.203 0 0 0-.633 0 .342.342 0 0 0-.263.341.37.37 0 0 0 .279.364c.201.054.413.054.614 0 .048 0 .06-.038.06-.082zm-17.234-.003v.911c0 .102-.035.155-.123.177a7.166 7.166 0 0 1-1.096.219 4.191 4.191 0 0 1-1.142-.06 1.13 1.13 0 0 1-.526-.285 1.01 1.01 0 0 1-.13-1.2c.12-.175.292-.31.49-.386a2.301 2.301 0 0 1 1.308-.092c.111.022.143-.041.124-.152a.421.421 0 0 0-.285-.335.912.912 0 0 0-.291-.038 1.583 1.583 0 0 0-.785.193.13.13 0 0 1-.143 0 .95.95 0 0 1-.42-.472.12.12 0 0 1 .047-.165 2.532 2.532 0 0 1 1.627-.38c.247.008.49.068.712.178.273.138.48.38.576.67.065.313.083.633.054.95l.003.267zm-1.089.26v-.194c0-.066 0-.142-.063-.161a1.165 1.165 0 0 0-.674 0 .317.317 0 0 0-.225.316.345.345 0 0 0 .168.336.83.83 0 0 0 .506.085c.076 0 .225 0 .27-.088a.367.367 0 0 0 .018-.156zm8.832.61a.174.174 0 0 1-.123.193c-.425.16-.873.248-1.327.26a2.286 2.286 0 0 1-1.266-.228.95.95 0 0 1-.421-.503 1.782 1.782 0 0 1-.063-.564V11.186c0-.085.035-.161.126-.165h.846c.117 0 .132.086.132.193v1.824a.589.589 0 0 0 .057.26.45.45 0 0 0 .37.212c.161.004.322-.011.479-.045.082-.016.114-.066.114-.161v-2.115c0-.164 0-.168.152-.17h.756c.171 0 .18 0 .18.202l-.012 2.681zm4.86-1.25v-.706c0-.089-.03-.124-.115-.12h-.316c-.073 0-.108-.032-.127-.111a1.482 1.482 0 0 1 0-.602c0-.063.05-.07.098-.07h.317c.098 0 .136-.031.133-.136v-.51c0-.094.031-.132.123-.138.278-.027.558-.027.836 0 .13 0 .142.022.142.164v.497c0 .089.029.124.111.12h.858c.14 0 .143 0 .158.162.015.158.015.317 0 .475 0 .107-.047.149-.145.145h-.842c-.133 0-.14 0-.14.146v1.206a.317.317 0 0 0 .317.342.671.671 0 0 0 .475-.12c.089-.067.149 0 .209.04.135.12.24.27.307.438.05.114.041.155-.067.218a1.84 1.84 0 0 1-.55.219c-.237.048-.48.058-.719.028a1.18 1.18 0 0 1-.877-.421.928.928 0 0 1-.187-.573v-.693zm7.682-.833c0-.022-.073 0-.107 0h-1.184c-.089 0-.14-.016-.165-.114a1.054 1.054 0 0 1 0-.516c.041-.164.234-.133.355-.133h2.238c.202 0 .262.092.24.317a1.307 1.307 0 0 1-.316.69l-.972 1.234-.108.127a.048.048 0 0 0 0 .044c0 .038.06.023.092.023h1.184c.079 0 .168 0 .202.091a1.01 1.01 0 0 1 0 .532c-.019.105-.05.168-.151.168H33.49a.193.193 0 0 1-.174-.187.83.83 0 0 1 .247-.706l1.206-1.469c-.007-.04.028-.079.025-.1z"
    fill="#31AE78" />
</svg>