<svg id="pi-ada" xmlns="http://www.w3.org/2000/svg" viewBox="0 0 38 24" width="38" height="24"><title id="pi-ada">Cardano</title><path d="M35 0H3a2.946 2.946 0 00-3 3v18a3.009 3.009 0 003 3h32a2.946 2.946 0 003-3V3a3.009 3.009 0 00-3-3z" style="isolation:isolate" opacity=".07"/><path d="M35 1a2.006 2.006 0 012 2v18a2.006 2.006 0 01-2 2H3a2.006 2.006 0 01-2-2V3a2.006 2.006 0 012-2h32" fill="#fff"/><path d="M19 4a8 8 0 108 8 8.024 8.024 0 00-8-8zm3.9 5.4a.338.338 0 01.5.3c0 .2-.3.4-.4.3-.3-.2-.3-.5-.1-.6zm-1 1.1a.48.48 0 01-.7.4c-.3-.2-.3-.6 0-.7.4-.2.8 0 .7.3zm-.8 2.1c-.3.2-.9.1-1-.3a.703.703 0 01.4-1 .63.63 0 01.8.3.775.775 0 01-.2 1zm.4-5.3c.2-.1.3.1.3.2s-.1.3-.3.2c-.2.1-.3-.3 0-.4zm-.9 1.3c.1-.3.5-.3.7 0 .1.2 0 .5-.2.5-.4 0-.7-.3-.5-.5zm-.1 1.5a.775.775 0 01-.2 1 .703.703 0 01-1-.4.666.666 0 01.4-.9c.2-.1.6.1.8.3zm-1.6-3c.2-.1.5.2.4.4s-.3.2-.5.1c-.2-.2-.1-.5.1-.5zm-.3 2a.43.43 0 01.4-.4.758.758 0 01.4.2.48.48 0 01-.2.6c-.1.1-.2 0-.3 0-.2-.1-.3-.2-.3-.4zm-.8.8a.81.81 0 011 .3.738.738 0 11-1.3.7.744.744 0 01.3-1zm0 2.7a.722.722 0 01-1.1-.2.69.69 0 01.5-1 .756.756 0 01.8.3 1.08 1.08 0 01-.2.9zm-.9-4.2c.2-.2.6.1.5.3 0 .3-.4.4-.6.3a.471.471 0 01.1-.6zm-.5-1.1c.1-.1.3.1.3.2 0 .2-.2.3-.3.2-.3 0-.2-.3 0-.4zM14.1 12a.215.215 0 01-.4.1c-.1-.1 0-.3.1-.4a.45.45 0 01.3.3zm.7-2.6c.2-.1.5.1.4.3 0 .2-.3.3-.5.2a.348.348 0 01.1-.5zm.5 5c0 .2-.3.3-.5.2a.283.283 0 010-.5c.2-.2.5 0 .5.3zm.3-2.3a.48.48 0 01-.6.2.377.377 0 01.1-.6c.3-.1.6.2.5.4zm.5-1.6a.4.4 0 11.4.4.308.308 0 01-.4-.4zm.3 2.5c.3-.1.6.3.5.6a.388.388 0 01-.7.1c-.3-.2-.1-.6.2-.7zm.2 3.6c-.2.1-.4 0-.4-.2 0-.1.1-.2.3-.2a.215.215 0 01.1.4zm.9-1.3a.43.43 0 01-.4.4.32.32 0 01-.3-.3.52.52 0 01.2-.4c.2-.2.5 0 .5.3zm.5-1.1a.858.858 0 01-.6-.7.73.73 0 01.6-.7.737.737 0 01.9.7.748.748 0 01-.9.7zm1.2 2.6a.215.215 0 01-.2.2c-.2 0-.4-.2-.3-.4a.271.271 0 01.4-.2c.1 0 .1.2.2.3a.098.098 0 01-.1.1zm-.5-1.5a.47.47 0 01.1-.8.44.44 0 01.6.4.48.48 0 01-.7.4zm1-1.1a.779.779 0 01-.6-.9c.1-.3.3-.5.5-.5a.737.737 0 01.9.7.631.631 0 01-.8.7zm1.6 1.1c0 .3-.4.5-.6.3a.375.375 0 010-.6.367.367 0 01.6.3zm.5 1.2a.215.215 0 01-.4.1c-.1-.2 0-.3.2-.4.1 0 .2.1.2.3zm.2-3c0 .3-.4.5-.7.4a.47.47 0 01.1-.8c.2-.2.6.1.6.4zm.4-1.4a.43.43 0 01.4-.4c.2 0 .4.2.3.4a.338.338 0 01-.5.3c-.1-.1-.1-.2-.2-.3zm.9 2.4c-.1.2-.4.1-.5-.1-.1-.2.1-.5.3-.4.1 0 .2.1.3.2-.1.1 0 .2-.1.3zm.8-2.3a.215.215 0 01-.1-.4.192.192 0 01.3.1c.1.1 0 .3-.2.3z" fill="#0033ad" id="pi-ada"/></svg>