<svg xmlns="http://www.w3.org/2000/svg" width="38" height="24" fill="none" aria-labelledby="pi-ada" role="img" viewBox="0 0 38 24"><title id="pi-ada">Cardano</title><path fill="#0033AD" d="M0 0h38v24H0z"/><path fill="#F5F5F5" d="M10.417 12.028a.396.396 0 1 0-.044.79.396.396 0 0 0 .044-.79m4.487-6.795a.397.397 0 1 0-.33-.722.397.397 0 0 0 .33.722M16.146 7.4a.611.611 0 1 0-.55-1.092.611.611 0 0 0 .55 1.092m-4.179 1.485a.504.504 0 1 0 .598-.81.504.504 0 0 0-.598.81m.743 2.917a.61.61 0 1 0 .001 0m-.678 4.112a.503.503 0 1 0 .453.897.503.503 0 0 0-.453-.897m2.377-5.377a.719.719 0 0 0 1.002-1.009.72.72 0 1 0-1.002 1.009m7.54-3.187a.612.612 0 1 0 .667-1.024.612.612 0 0 0-.667 1.024m1.254-2.162a.396.396 0 1 0 .466-.641.396.396 0 0 0-.466.641m-1.158 5.981a1.225 1.225 0 0 0-.14 2.444h.07a1.224 1.224 0 0 0 .07-2.444m-5.498-.714a1.225 1.225 0 1 0 2.195-1.086 1.225 1.225 0 0 0-2.195 1.086m9.599-1.572a.503.503 0 1 0-.453-.898.503.503 0 0 0 .453.898m-3.104.393a.72.72 0 1 0 .592 1.312.72.72 0 0 0-.592-1.312m-3.999-4.269A.504.504 0 1 0 19.1 4a.504.504 0 0 0-.056 1.007m-.005 3.17a.72.72 0 1 0 .126-1.435.72.72 0 0 0-.126 1.435m-3.9 7.346a.72.72 0 1 0-.648-1.286.72.72 0 0 0 .648 1.286m4.364-6.298a1.223 1.223 0 1 0 2.045 1.342 1.223 1.223 0 0 0-2.045-1.342m2.128 5.124a1.223 1.223 0 1 0-2.185 1.101 1.223 1.223 0 0 0 2.185-1.101m2.139-.09a.72.72 0 0 0-.997.207.723.723 0 0 0 .207.997.72.72 0 1 0 .79-1.204m2.344-1.839a.611.611 0 1 0-1.22-.07.611.611 0 0 0 1.22.07m1.693-.435a.396.396 0 1 0-.079.788.396.396 0 0 0 .079-.788m-1.594 3.925a.504.504 0 0 0-.552.842.503.503 0 0 0 .552-.841m-11.237 3.693a.395.395 0 1 0-.444.653.395.395 0 0 0 .444-.653m8.3-.038a.396.396 0 1 0 .004 0zm-4.599-3.993a1.223 1.223 0 1 0-2.005-1.4 1.223 1.223 0 0 0 2.005 1.4m-2.447 1.878a.61.61 0 0 0-.94.636.61.61 0 0 0 .272.387.611.611 0 0 0 .669-1.023m2.854 2.343a.504.504 0 1 0-.084 1.004.504.504 0 0 0 .084-1.004m.005-3.168a.72.72 0 1 0-.15 1.433.72.72 0 0 0 .15-1.433m2.943.776a.613.613 0 1 0 .002 0z"/><path fill="#F5F5F5" d="M10.417 12.028a.396.396 0 1 0-.044.79.396.396 0 0 0 .044-.79m4.565.309a1.227 1.227 0 0 0 1.153 1.295h.067a1.223 1.223 0 1 0-1.224-1.295z"/></svg>