<svg xmlns="http://www.w3.org/2000/svg" width="38" height="24" aria-labelledby="pi-addi"><path d="M0 .945h38v23.04H0Zm0 0"/><path fill="#4e7eff" d="M-2 .96h42V24H-2Zm0 0"/><path fill="#fff" d="M30.3 17.168h2.2v-6.121h-2.2Zm2.512-8.2c0-.741-.632-1.34-1.41-1.34-.78 0-1.414.599-1.414 1.34 0 .739.633 1.337 1.414 1.337.778 0 1.41-.598 1.41-1.336Zm-7.21 6.294c-.84.008-1.524-.64-1.532-1.45 0-.796.684-1.445 1.532-1.445.843 0 1.527.649 1.527 1.445 0 .801-.684 1.45-1.527 1.45Zm3.734-1.45V7.978h-2.207V10.7c-.418-.254-.984-.394-1.527-.394-2.067 0-3.739 1.57-3.739 3.508 0 1.94 1.672 3.511 3.739 3.511 1.992 0 3.734-1.453 3.734-3.512Zm-11.93 1.45c-.84.004-1.523-.64-1.527-1.45 0-.796.684-1.445 1.527-1.445.844 0 1.528.649 1.528 1.445 0 .801-.684 1.45-1.528 1.45Zm3.735-1.45V7.978h-2.207V10.7c-.418-.254-.985-.394-1.528-.394-2.062 0-3.734 1.57-3.734 3.508 0 1.94 1.672 3.511 3.734 3.511 1.996 0 3.735-1.453 3.735-3.512ZM9.164 12.09c-.695 0-1.293.418-1.527 1v-1.942c0-.8.683-1.449 1.527-1.449.848 0 1.531.649 1.531 1.45v1.94c-.246-.6-.851-1-1.53-1Zm1.531 2.101v2.946h2.2v-5.848c.003-.047.007-.094.007-.14 0-1.942-1.672-3.512-3.738-3.512-2.062 0-3.734 1.574-3.734 3.511v5.989h2.203v-2.965c.226.594.828 1.015 1.531 1.015.691 0 1.281-.406 1.52-.976Zm0 0"/></svg>