<svg xmlns="http://www.w3.org/2000/svg" width="38" height="22" viewBox="0 0 38 22" role="img" aria-labelledby="pi-addi"><title id="pi-addi">ADDI</title><rect width="38" height="22" rx="2" fill="white"/><path fill="#4E7EFF" d="M29.2236 16.4761H31.2152V10.6313H29.2236V16.4761Z"/><path fill="#4E7EFF" d="M31.498 8.6462C31.498 7.94062 30.9256 7.36865 30.2195 7.36865C29.5134 7.36865 28.9409 7.94062 28.9409 8.6462C28.9409 9.35177 29.5134 9.92374 30.2195 9.92374C30.9256 9.92374 31.498 9.35177 31.498 8.6462Z"/><path fill="#4E7EFF" d="M24.9712 14.6565C24.2074 14.6565 23.5882 14.0378 23.5882 13.2746C23.5882 12.5114 24.2074 11.8927 24.9712 11.8927C25.735 11.8927 26.3541 12.5114 26.3541 13.2746C26.3541 14.0378 25.735 14.6565 24.9712 14.6565ZM28.3508 13.2746V7.70117H26.3541V10.3012C25.9758 10.0586 25.4641 9.92356 24.9712 9.92356C23.1046 9.92356 21.5916 11.4239 21.5916 13.2746C21.5916 15.1253 23.1046 16.6256 24.9712 16.6256C26.7759 16.6256 28.3508 15.2385 28.3508 13.2746Z" /><path fill="#4E7EFF" d="M17.5579 14.6565C16.794 14.6565 16.1749 14.0378 16.1749 13.2746C16.1749 12.5114 16.794 11.8927 17.5579 11.8927C18.3217 11.8927 18.9408 12.5114 18.9408 13.2746C18.9408 14.0378 18.3217 14.6565 17.5579 14.6565ZM20.9375 13.2746V7.70117H18.9408V10.3012C18.5625 10.0586 18.0508 9.92356 17.5579 9.92356C15.6913 9.92356 14.1782 11.4239 14.1782 13.2746C14.1782 15.1253 15.6913 16.6256 17.5579 16.6256C19.3626 16.6256 20.9375 15.2385 20.9375 13.2746Z" /><path fill="#4E7EFF" d="M10.1027 11.629C9.47046 11.629 8.93113 12.0257 8.71976 12.5835V10.7275C8.71976 9.96428 9.33894 9.34559 10.1027 9.34559C10.8666 9.34559 11.4857 9.96428 11.4857 10.7275V12.5835C11.2744 12.0257 10.7351 11.629 10.1027 11.629ZM11.4857 13.6343V16.4448H13.4773V10.8614C13.4791 10.8168 13.4824 10.7725 13.4824 10.7275C13.4824 8.87679 11.9693 7.37646 10.1027 7.37646C8.23624 7.37646 6.72314 8.87679 6.72314 10.7275V16.4448H8.71476V13.6165C8.92265 14.181 9.46559 14.5838 10.1027 14.5838C10.7259 14.5838 11.2589 14.1986 11.4765 13.6535L11.4857 13.6343Z" /></svg>
