<svg xmlns="http://www.w3.org/2000/svg" width="38" height="24" fill="none" aria-labelledby="pi-addi" role="img" viewBox="0 0 38 24"><title id="pi-addi">ADDI</title><path fill="#fff" d="M0 0h38v24H0z"/><path fill="#4E7EFF" d="M28.724 16.28h1.834v-5.313h-1.834zm2.096-7.119A1.17 1.17 0 0 0 29.641 8c-.65 0-1.178.52-1.178 1.161a1.17 1.17 0 0 0 1.178 1.162c.65 0 1.177-.52 1.177-1.162zm-6.013 5.465a1.266 1.266 0 0 1-1.274-1.256c0-.694.57-1.257 1.274-1.257s1.274.563 1.274 1.257c0 .693-.57 1.256-1.274 1.256m3.113-1.256V8.303h-1.84v2.363c-.347-.22-.819-.343-1.273-.343-1.719 0-3.113 1.364-3.113 3.046 0 1.683 1.394 3.047 3.113 3.047 1.662 0 3.113-1.261 3.113-3.046m-9.941 1.256a1.266 1.266 0 0 1-1.274-1.256c0-.694.57-1.257 1.274-1.257s1.274.563 1.274 1.257c0 .693-.57 1.256-1.274 1.256m3.113-1.256V8.303h-1.84v2.363c-.348-.22-.819-.343-1.273-.343-1.72 0-3.113 1.364-3.113 3.046 0 1.683 1.394 3.047 3.113 3.047 1.662 0 3.113-1.261 3.113-3.046m-9.979-1.496c-.583 0-1.08.36-1.274.867v-1.687c0-.694.57-1.256 1.274-1.256.703 0 1.274.562 1.274 1.256v1.688a1.36 1.36 0 0 0-1.274-.868m1.274 1.823v2.555h1.834v-5.076q.004-.06.005-.122c0-1.682-1.394-3.046-3.113-3.046S8 9.372 8 11.054v5.198h1.834V13.68c.192.513.692.879 1.279.879a1.36 1.36 0 0 0 1.265-.846z"/></svg>