<?xml version="1.0" standalone="no"?><!DOCTYPE svg PUBLIC "-//W3C//DTD SVG 1.1//EN" "http://www.w3.org/Graphics/SVG/1.1/DTD/svg11.dtd"><svg class="icon" width="32px" height="20.21px" viewBox="0 0 1621 1024" version="1.1" xmlns="http://www.w3.org/2000/svg"><path d="M810.666667 512m-507.733334 0a507.733333 507.733333 0 1 0 1015.466667 0 507.733333 507.733333 0 1 0-1015.466667 0Z" fill="#00C170" /><path d="M1139.2 550.4H896l42.666667 98.133333h128l72.533333-98.133333z m115.2-179.2H819.2l42.666667 98.133333h320l72.533333-98.133333z" fill="#00364F" /><path d="M819.2 102.4l-337.066667 738.133333h128l209.066667-477.866666 209.066667 477.866666h128L819.2 102.4z" fill="#FFFFFF" /><path d="M366.933333 371.2l72.533334 98.133333h422.4l-42.666667-98.133333H366.933333z m128 179.2l72.533334 98.133333H938.666667l-42.666667-98.133333h-401.066667z" fill="#00364F" /></svg>