<svg xmlns="http://www.w3.org/2000/svg" width="38" height="24" fill="none" aria-labelledby="pi-affinbank" role="img" viewBox="0 0 38 24"><title id="pi-affinbank">Affin Bank</title><path fill="#fff" d="M0 0h38v24H0z"/><path fill="#0867B3" d="M5.792 12.286a1.7 1.7 0 0 1 .483-.186c.407.38.89.53 1.455.42a.2.2 0 0 0-.042-.062 1.6 1.6 0 0 0-.882-.475 1.53 1.53 0 0 0-1.069.2 5 5 0 0 1-.193.124c.207.29.324.6.366.938a2.04 2.04 0 0 1-.704 1.82 2.04 2.04 0 0 1-.696-1.31c-.062-.524.069-1 .372-1.441l-.165-.124c-.745.965-1.959 1.013-2.717.524.02-.042.034-.09.055-.132.062-.11.124-.22.2-.317.076-.09.152-.186.241-.262.09-.075.173-.151.276-.213.22-.145.462-.235.724-.29a2.2 2.2 0 0 1 .972.048c.049.014.049.014.063-.034.04-.124.082-.255.09-.393 0-.07.013-.138.006-.207a1.5 1.5 0 0 0-.303-.869 1.3 1.3 0 0 0-.318-.317q-.136-.091-.282-.172c-.014-.007-.028-.014-.055-.021q.029.414.255.745c.145.22.345.4.579.524.007.062.014.13.007.193a3 3 0 0 1-.035.282c0 .028-.02.035-.041.021a1.9 1.9 0 0 1-.503-.303 2.7 2.7 0 0 1-.407-.441 2 2 0 0 1-.283-.642c-.027-.117-.055-.234-.048-.358 0-.062-.014-.125-.007-.18q.02-.196.048-.393c0-.014.014-.027.02-.048.677.083 1.214.393 1.573.986.352.586.38 1.207.145 1.841.09.062.172.124.262.186 1.158-.951 2.758-.386 3.2.786a2 2 0 0 1-1.249.283c-.558-.041-1.02-.297-1.393-.731m-1.53-.29a1.47 1.47 0 0 0-.828.021c-.283.09-.524.242-.717.476.51.145 1.165-.042 1.545-.497m.958.704a1.53 1.53 0 0 0-.007 1.62 1.53 1.53 0 0 0 .007-1.62m26.85.048c0-.014.007-.02.007-.028l-.042-.303a1 1 0 0 1-.013-.131 2 2 0 0 1-.014-.214c-.007-.51-.007-1.02-.014-1.537v-.076h.655v3.061h-.93q-.425-1.136-.849-2.282h-.014c0 .014.007.028.007.041.007.076.02.152.028.228.014.117.02.234.034.351v.014q.012.145.014.29v1.352h-.648v-3.062h.903c.297.772.586 1.53.876 2.296m-10.708-2.282h.655v3.061h-.931c-.283-.758-.566-1.524-.848-2.282h-.007c.007.034.007.069.014.103.013.083.02.166.034.255.007.049.007.097.014.145.007.097.007.193.014.29.027.476.007.944.013 1.42v.07h-.64v-3.062h.902l.87 2.275h.006c0-.034-.007-.062-.007-.096-.014-.118-.034-.228-.041-.345q-.012-.104-.014-.207c-.007-.524-.007-1.041-.014-1.565-.02-.014-.02-.035-.02-.062m2.937 3.061V10.46h.958c.09 0 .18.014.27.02q.175.012.35.056c.132.034.256.082.366.165a.57.57 0 0 1 .235.366.9.9 0 0 1-.007.379.6.6 0 0 1-.166.269.8.8 0 0 1-.337.186q.166.04.303.11.291.156.345.476c.027.2.014.393-.09.572a.7.7 0 0 1-.248.262 1.3 1.3 0 0 1-.469.166c-.131.02-.269.027-.4.034-.358.021-.717 0-1.069.007-.02.007-.027.007-.041 0Zm.73-.53c.015 0 .028.006.042 0 .11 0 .22-.008.331-.014.07-.007.131-.007.193-.028.138-.035.235-.117.262-.262a.7.7 0 0 0 .007-.172.35.35 0 0 0-.145-.256.6.6 0 0 0-.324-.096c-.103-.007-.207 0-.317 0-.014 0-.027 0-.048.007v.82Zm0-2.014v.71c.146-.007.29-.007.428-.02.097-.014.186-.056.235-.145a.4.4 0 0 0 .048-.262.26.26 0 0 0-.2-.235c-.055-.014-.103-.027-.159-.027-.117-.014-.234-.014-.351-.021Zm2.89-.517h.883q.059.184.11.358c.034.11.062.214.096.324q.104.34.207.69c.055.172.104.345.159.517.069.22.13.441.2.662.041.145.09.283.13.428q.011.039.021.09h-.779c-.055-.222-.103-.435-.158-.656h-.876c-.062.214-.103.434-.159.655h-.751V13.5l.165-.559c.076-.241.145-.49.221-.73.041-.146.09-.29.131-.435.069-.22.131-.441.2-.662.041-.145.09-.29.13-.434.029-.07.05-.145.07-.214m.441.572h-.007l-.31 1.296h.628c-.104-.434-.207-.861-.31-1.296Zm-15.686 2.489h-.78c-.055-.22-.103-.434-.158-.662h-.821c-.062 0-.062 0-.075.055-.042.166-.076.325-.118.49-.006.034-.013.076-.027.11h-.752v-.034c.062-.214.124-.42.193-.635l.228-.765c.041-.145.09-.29.13-.434.07-.221.132-.442.2-.67.042-.144.09-.282.132-.427.014-.034.02-.069.027-.103h.883c.317 1.034.627 2.055.938 3.075m-1.697-1.193h.628l-.31-1.296h-.007c-.104.434-.2.862-.31 1.296Zm4.696-1.868h1.82c-.02.172-.048.345-.075.517h-1.02v.8h.902c-.027.179-.048.351-.076.53h-.834v1.207h-.724c.007-1.006.007-2.027.007-3.054m-.8 1.324c-.027.179-.048.351-.076.537h-.827v1.207h-.724v-3.061h1.82c-.027.172-.048.337-.075.517H13.97v.8zM36 13.534h-.855c-.048-.076-.097-.159-.145-.234a35 35 0 0 1-.407-.683c-.096-.166-.2-.33-.296-.503a1 1 0 0 0-.097-.152c-.02-.034-.027-.069 0-.11.166-.242.324-.483.49-.724.117-.18.241-.352.365-.531q.04-.063.09-.124h.772a7 7 0 0 1-.241.344c-.083.118-.166.228-.248.345-.083.11-.159.228-.242.345-.082.11-.158.227-.248.345.359.551.71 1.11 1.062 1.682m-2.572-3.068h.731v3.061h-.73v-3.061Zm-15.238 0h.717v3.061c-.041.014-.586.02-.717.007z"/><path fill="#0867B3" d="M7.24 8.949c.042.076.076.38.055.482q-.102.009-.206.028c-.118.02-.242.048-.352.097a1.55 1.55 0 0 0-.71.634 1.6 1.6 0 0 0-.193.524 1.4 1.4 0 0 0-.021.476l.02.152c0 .02 0 .04-.027.048-.145.041-.29.076-.434.117-.117-.607-.035-1.172.317-1.69.434-.627 1.13-.882 1.551-.868"/><path fill="#EE2E30" d="M6.723 10.72a.234.234 0 0 1-.241-.24c0-.152.096-.242.241-.242.138 0 .235.083.248.242a.233.233 0 0 1-.248.24m-.731.25c-.014-.132.117-.25.242-.25.138.008.255.111.248.242-.007.152-.097.248-.248.248-.138 0-.249-.103-.242-.24M7.02 9.625c.117-.021.241.117.241.234a.256.256 0 0 1-.248.248.255.255 0 0 1-.242-.248c.007-.11.104-.248.249-.234"/></svg>