<svg xmlns="http://www.w3.org/2000/svg" viewBox="0 0 38 24" width="38" height="24" fill="none" aria-labelledby="pi-affinbank" role="img"><title id="pi-affinbank">Affin Bank</title><path fill="#fff" d="M0 0h38v24H0z"/><path fill="#0867B3" d="M5.792 12.286c.159-.09.318-.152.483-.186.407.38.89.53 1.455.42a.24.24 0 0 0-.042-.062 1.582 1.582 0 0 0-.882-.475 1.533 1.533 0 0 0-1.069.2 4.601 4.601 0 0 1-.193.124c.207.29.324.6.366.938a2.039 2.039 0 0 1-.704 1.82 2.037 2.037 0 0 1-.696-1.31c-.062-.524.069-1 .372-1.441l-.165-.124c-.745.965-1.959 1.013-2.717.524.02-.042.034-.09.055-.132.062-.11.124-.22.2-.317.076-.09.152-.186.241-.262.09-.075.173-.151.276-.213.22-.145.462-.235.724-.29.18-.034.366-.041.552-.028.145.007.283.035.42.076.049.014.049.014.063-.034.04-.124.082-.255.09-.393 0-.07.013-.138.006-.207a1.506 1.506 0 0 0-.303-.869 1.26 1.26 0 0 0-.318-.317c-.09-.062-.186-.117-.282-.172-.014-.007-.028-.014-.055-.021.02.276.103.524.255.745.145.22.345.4.579.524.007.062.014.13.007.193-.007.096-.02.193-.035.282 0 .028-.02.035-.041.021a1.864 1.864 0 0 1-.503-.303 2.7 2.7 0 0 1-.407-.441 1.98 1.98 0 0 1-.283-.642c-.027-.117-.055-.234-.048-.358 0-.062-.014-.125-.007-.18.014-.13.028-.262.048-.393 0-.014.014-.027.02-.048.677.083 1.214.393 1.573.986.352.586.38 1.207.145 1.841.09.062.172.124.262.186 1.158-.951 2.758-.386 3.2.786a1.993 1.993 0 0 1-1.249.283c-.558-.041-1.02-.297-1.393-.731Zm-1.53-.29a1.468 1.468 0 0 0-.828.021c-.283.09-.524.242-.717.476.51.145 1.165-.042 1.545-.497Zm.958.704a1.525 1.525 0 0 0-.007 1.62 1.526 1.526 0 0 0 .007-1.62ZM32.07 12.748c0-.014.007-.02.007-.028l-.042-.303a.764.764 0 0 1-.013-.131 2.221 2.221 0 0 1-.014-.214c-.007-.51-.007-1.02-.014-1.537v-.076h.655v3.061h-.93c-.284-.758-.566-1.517-.849-2.282h-.014c0 .014.007.028.007.041.007.076.02.152.028.228.014.117.02.234.034.351v.014c.007.097.014.193.014.29v1.352h-.648v-3.062h.903c.297.772.586 1.53.876 2.296ZM21.362 10.466h.655v3.061h-.931c-.283-.758-.566-1.524-.848-2.282h-.007c.007.034.007.069.014.103.013.083.02.166.034.255.007.049.007.097.014.145.007.097.007.193.014.29.027.476.007.944.013 1.42v.07h-.64v-3.062h.902l.87 2.275h.006c0-.034-.007-.062-.007-.096-.014-.118-.034-.228-.041-.345-.007-.07-.014-.138-.014-.207-.007-.524-.007-1.041-.014-1.565-.02-.014-.02-.035-.02-.062ZM24.299 13.527V10.46h.958c.09 0 .18.014.27.02.116.007.234.028.35.056.132.034.256.082.366.165.125.09.207.214.235.366a.881.881 0 0 1-.007.379.609.609 0 0 1-.166.269.807.807 0 0 1-.337.186c.11.027.213.062.303.11.193.104.31.262.345.476.027.2.014.393-.09.572a.698.698 0 0 1-.248.262c-.145.09-.304.138-.469.166-.131.02-.269.027-.4.034-.358.021-.717 0-1.069.007-.02.007-.027.007-.041 0Zm.73-.53c.015 0 .028.006.042 0 .11 0 .22-.008.331-.014.07-.007.131-.007.193-.028.138-.035.235-.117.262-.262a.722.722 0 0 0 .007-.172.348.348 0 0 0-.145-.256.612.612 0 0 0-.324-.096c-.103-.007-.207 0-.317 0-.014 0-.027 0-.048.007v.82Zm0-2.014v.71c.146-.007.29-.007.428-.02.097-.014.186-.056.235-.145a.391.391 0 0 0 .048-.262.264.264 0 0 0-.2-.235c-.055-.014-.103-.027-.159-.027-.117-.014-.234-.014-.351-.021ZM27.919 10.466h.883c.04.124.075.241.11.358.034.11.062.214.096.324.07.228.138.456.207.69.055.172.104.345.159.517.069.22.13.441.2.662.041.145.09.283.13.428.008.027.014.055.021.09h-.779c-.055-.222-.103-.435-.158-.656h-.876c-.062.214-.103.434-.159.655h-.751V13.5l.165-.559c.076-.241.145-.49.221-.73.041-.146.09-.29.131-.435.069-.22.131-.441.2-.662.041-.145.09-.29.13-.434.029-.07.05-.145.07-.214Zm.441.572h-.007l-.31 1.296h.628c-.104-.434-.207-.861-.31-1.296ZM12.674 13.527h-.78c-.055-.22-.103-.434-.158-.662h-.821c-.062 0-.062 0-.075.055-.042.166-.076.325-.118.49-.006.034-.013.076-.027.11h-.752v-.034c.062-.214.124-.42.193-.635l.228-.765c.041-.145.09-.29.13-.434.07-.221.132-.442.2-.67.042-.144.09-.282.132-.427.014-.034.02-.069.027-.103h.883c.317 1.034.627 2.055.938 3.075Zm-1.697-1.193h.628l-.31-1.296h-.007c-.104.434-.2.862-.31 1.296ZM15.673 10.466h1.82c-.02.172-.048.345-.075.517h-1.02v.8h.902c-.027.179-.048.351-.076.53h-.834v1.207h-.724c.007-1.006.007-2.027.007-3.054ZM14.873 11.79c-.027.179-.048.351-.076.537h-.827v1.207h-.724v-3.061h1.82c-.027.172-.048.337-.075.517H13.97v.8h.903ZM36 13.534h-.855c-.048-.076-.097-.159-.145-.234a35.207 35.207 0 0 1-.407-.683c-.096-.166-.2-.33-.296-.503-.028-.056-.062-.104-.097-.152-.02-.034-.027-.069 0-.11.166-.242.324-.483.49-.724.117-.18.241-.352.365-.531.028-.042.056-.083.09-.124h.772a7.383 7.383 0 0 1-.241.344c-.083.118-.166.228-.248.345-.083.11-.159.228-.242.345-.082.11-.158.227-.248.345.359.551.71 1.11 1.062 1.682ZM33.428 10.466h.731v3.061h-.73v-3.061ZM18.19 10.466h.717v3.061c-.041.014-.586.02-.717.007v-3.068Z"/><path fill="#0867B3" d="M7.24 8.949c.042.076.076.38.055.482-.068.007-.137.014-.206.028-.118.02-.242.048-.352.097a1.554 1.554 0 0 0-.71.634 1.601 1.601 0 0 0-.193.524 1.382 1.382 0 0 0-.021.476l.02.152c0 .02 0 .04-.027.048-.145.041-.29.076-.434.117-.117-.607-.035-1.172.317-1.69.434-.627 1.13-.882 1.551-.868Z"/><path fill="#EE2E30" d="M6.723 10.72c-.11.008-.248-.089-.241-.24 0-.152.096-.242.241-.242.138 0 .235.083.248.242a.233.233 0 0 1-.248.24ZM5.992 10.97c-.014-.132.117-.25.242-.25.138.008.255.111.248.242-.007.152-.097.248-.248.248-.138 0-.249-.103-.242-.24ZM7.02 9.625c.117-.021.241.117.241.234a.256.256 0 0 1-.248.248.255.255 0 0 1-.242-.248c.007-.11.104-.248.249-.234Z"/></svg>