<svg width="38" height="24" viewBox="0 0 38 24" role="img" fill="none" xmlns="http://www.w3.org/2000/svg" aria-labelledby="pi-affirm"><title id="pi-affirm">Affirm</title><rect width="38" height="24" rx="2" fill="#fff"/><rect x=".5" y=".5" width="37" height="23" rx="1.5" stroke="#000" stroke-opacity=".7"/><g clip-path="url(#clip0)"><path fill-rule="evenodd" clip-rule="evenodd" d="M5.098 16.669c-.395 0-.597-.195-.597-.515 0-.598.666-.799 1.88-.928 0 .796-.538 1.443-1.286 1.443h.003zm.523-4.477c-.868 0-1.867.409-2.409.841l.495 1.045c.435-.398 1.137-.738 1.771-.738.603 0 .936.202.936.608 0 .272-.22.41-.637.465-1.558.202-2.778.632-2.778 1.832 0 .95.677 1.527 1.735 1.527.756 0 1.428-.42 1.747-.971v.821H7.89v-3.441c0-1.419-.984-1.992-2.267-1.992l-.001.003zM19.755 12.347v5.269h1.507v-2.54c0-1.205.73-1.56 1.239-1.56.229-.002.453.065.644.19l.276-1.392a1.704 1.704 0 00-.672-.122c-.774 0-1.261.343-1.582 1.04v-.885h-1.412zM30.404 12.192c-.797 0-1.392.47-1.702.925-.288-.587-.897-.925-1.628-.925-.796 0-1.348.442-1.603.952v-.797h-1.453v5.269h1.509v-2.713c0-.97.51-1.44.985-1.44.431 0 .827.278.827.997v3.156h1.505v-2.713c0-.985.497-1.44.996-1.44.398 0 .82.29.82.987v3.166h1.506v-3.643c0-1.183-.796-1.78-1.759-1.78M16.088 12.347h-1.365v-.536c0-.697.398-.896.741-.896.234.004.464.061.672.168l.465-1.062s-.472-.308-1.328-.308c-.963 0-2.058.543-2.058 2.246v.388h-2.281v-.536c0-.697.397-.896.74-.896.235 0 .466.058.673.168l.464-1.062c-.277-.162-.723-.308-1.327-.308-.962 0-2.058.543-2.058 2.246v.388h-.872v1.162h.874v4.107h1.506v-4.107h2.284v4.107h1.505v-4.107h1.365v-1.162z" fill="#101820"/><path d="M18.491 12.347h-1.504v5.266h1.504v-5.266z" fill="#101820"/><path fill-rule="evenodd" clip-rule="evenodd" d="M17.043 11.451h1.473c.86-2.702 3.775-5.077 7.243-5.077 4.217 0 7.862 3.21 7.862 8.21a10.276 10.276 0 01-.418 3.032h1.43l.014-.05c.24-.974.36-1.975.354-2.978 0-5.574-4.062-9.586-9.24-9.586-4.066 0-7.69 2.822-8.718 6.451v-.002z" fill="#4A4AF4"/></g><defs><clipPath id="clip0"><path fill="#fff" transform="translate(3 5)" d="M0 0h32v12.769H0z"/></clipPath></defs></svg>