<svg xmlns="http://www.w3.org/2000/svg" width="38" height="24" fill="none" aria-labelledby="pi-aftee" role="img" viewBox="0 0 38 24"><title id="pi-aftee">AFTEE</title><path fill="#fff" d="M0 0h38v24H0z"/><path fill="#5AC0B1" d="m7.339 11.797-1.742-.933v.523L6.742 12l-1.145.613v.523l1.742-.932a.23.23 0 0 0 .089-.085.23.23 0 0 0 0-.238.23.23 0 0 0-.089-.085zm.433-.907h.44v2.22h-.44z"/><path fill="#5AC0B1" d="M6.844 8.859A3.144 3.144 0 0 0 3.703 12a3.144 3.144 0 0 0 3.141 3.141A3.144 3.144 0 0 0 9.985 12a3.144 3.144 0 0 0-3.141-3.141m0 5.842A2.704 2.704 0 0 1 4.143 12a2.704 2.704 0 0 1 2.701-2.701A2.704 2.704 0 0 1 9.545 12a2.704 2.704 0 0 1-2.701 2.701m13.457-2.305h-1.869v-.847h2.101v-.642h-2.815v3.527h.714v-1.396h1.869zm4.848-1.489h-3.131v.653h1.209v2.874h.714V11.56h1.208zm4.282 2.064v-.627h-1.848v-.81h2.08v-.627h-2.789v3.527h2.815v-.626h-2.106v-.837zm4.608 0v-.627h-1.848v-.81h2.08v-.627h-2.789v3.527h2.815v-.626h-2.106v-.837zm-18.883 1.465h.777l-1.765-3.484a.34.34 0 0 0-.478-.134.35.35 0 0 0-.126.134l-1.765 3.484h.777l1.289-2.582 1.289 2.582zm-3.382-4.872h4.186v.545h-4.186z"/></svg>