<?xml version="1.0" encoding="utf-8"?>
<!-- Generator: Adobe Illustrator 16.0.0, SVG Export Plug-In . SVG Version: 6.00 Build 0)  -->
<!DOCTYPE svg PUBLIC "-//W3C//DTD SVG 1.1//EN" "http://www.w3.org/Graphics/SVG/1.1/DTD/svg11.dtd">
<svg version="1.1" xmlns="http://www.w3.org/2000/svg" xmlns:xlink="http://www.w3.org/1999/xlink" x="0px" y="0px" width="40px"
	 height="20px" viewBox="0 0 40 20" enable-background="new 0 0 40 20" xml:space="preserve">
<g id="Layer_3">
	<g>
		<g>
			<path fill-rule="evenodd" clip-rule="evenodd" fill="#FFFFFF" d="M0.25,16.094V3.175c0-0.049,0-0.098,0-0.146
				c0-1.853,0.955-2.779,2.863-2.779h32.859c1.86,0.036,2.79,0.962,2.79,2.779v12.968c0,1.852-0.971,2.778-2.914,2.778H3.113
				C1.241,18.775,0.286,17.881,0.25,16.094z"/>
			
				<path fill-rule="evenodd" clip-rule="evenodd" fill="none" stroke="#CECECE" stroke-linecap="round" stroke-linejoin="round" stroke-miterlimit="3" d="
				M35.973,0.25H3.113c-1.909,0-2.863,0.926-2.863,2.779c0,0.048,0,0.097,0,0.146v12.919v0.731c0,1.95,0.971,2.925,2.914,2.925
				h33.575c2.008,0,3.012-0.975,3.012-2.925V3.175c0-1.95-1.004-2.925-3.012-2.925H35.973z"/>
		</g>
	</g>
</g>
<g id="Layer_1">
	<g>
		<path fill-rule="evenodd" clip-rule="evenodd" d="M11.811,5.474C12.372,4.702,13.178,4.211,14.23,4c0.14,0,0.42,0,0.841,0
			c0.351,0,0.631,0,0.841,0c1.052,0.211,1.858,0.701,2.419,1.473c0.631,0.702,0.947,1.579,0.947,2.631v6.633
			c0,0.42-0.104,0.701-0.315,0.84c-0.141,0.072-0.28,0.107-0.421,0.107c-0.28,0-0.491-0.107-0.631-0.316
			c-0.07-0.141-0.105-0.352-0.105-0.631v-2.736h-5.574v2.736c0,0.42-0.104,0.701-0.315,0.84c-0.07,0.072-0.211,0.107-0.421,0.107
			c-0.28,0-0.455-0.107-0.526-0.316c-0.14-0.281-0.174-0.492-0.104-0.631V8.105C10.864,7.052,11.179,6.176,11.811,5.474z
			 M15.071,5.264c-0.561,0-1.086,0.175-1.578,0.526c-0.771,0.49-1.156,1.262-1.156,2.315v2.528h5.468V8.105
			c0-0.981-0.385-1.753-1.157-2.315l-1.052-0.421L15.071,5.264z M27.587,8.105c0-0.701-0.211-1.298-0.632-1.789
			c-0.491-0.421-1.087-0.667-1.788-0.737h-0.105c-0.63-0.07-1.227,0.175-1.788,0.737c-0.42,0.49-0.63,1.158-0.63,2v2.211h2.313
			c0.771,0,1.402-0.211,1.893-0.632C27.341,9.475,27.587,8.877,27.587,8.105z M28.322,5.684c0.771,0.913,1.017,1.966,0.736,3.158
			c-0.211,1.053-0.666,1.824-1.367,2.316c-0.702,0.561-1.578,0.844-2.63,0.844h-2.418v3.051c0,0.42-0.106,0.703-0.315,0.842
			C22.188,15.965,22.048,16,21.906,16c-0.28,0-0.49-0.105-0.63-0.314l-0.106-0.633V8.422c0-1.194,0.352-2.176,1.052-2.948
			c0.702-0.772,1.647-1.192,2.84-1.262h0.105C26.429,4.211,27.48,4.702,28.322,5.684z"/>
	</g>
</g>
</svg>
