<svg xmlns="http://www.w3.org/2000/svg" width="38" height="24" fill="none" aria-labelledby="pi-airtel_money" role="img" viewBox="0 0 38 24"><title id="pi-airtel_money">Airtel Money</title><path fill="#fff" d="M0 0h38v24H0z"/><path fill="#EB2227" fill-rule="evenodd" d="M22.3 3c.6.1 1.2.2 1.7.3 2.2.4 3.9 2 4.5 4.1.3 1.6.1 3.3-.7 4.7-.9 1.8-2.1 3.3-3.7 4.5-2.1 1.8-4.6 3.2-7.3 4.1-.6.2-1.3.3-1.9.3-1.1.1-2.1-.7-2.2-1.8v-.5c.2-2.1 1.7-3.8 3.8-4.4.5 0 1 0 1.4.2.5.2.8.8.6 1.4-.1.2-.2.3-.3.4-.4.4-.8.8-1.2 1.1s-.7.6-1 1c-.2.2-.3.4-.4.6-.2.4 0 .6.4.6.2 0 .4 0 .6-.1 3.5-1.3 6.3-3.7 8.1-6.9.3-.5.4-1 .4-1.6.1-1.7-1-2.7-2.6-2.2-1.2.4-2.5.9-3.6 1.5-1.2.6-2.4 1.4-3.6 2q-1.35.75-3 .9c-.5.1-1 0-1.4-.1-1-.1-1.8-1.1-1.6-2.3 0-.1 0-.2.1-.3.5-1.4 1.4-2.7 2.6-3.5 2.3-1.8 5-3.1 7.9-3.7.5-.1 1.1-.2 1.6-.3z" clip-rule="evenodd"/></svg>