<?xml version="1.0" encoding="UTF-8" standalone="no"?><svg xmlns="http://www.w3.org/2000/svg" height="24px" width="38px" version="1.1" xmlns:xlink="http://www.w3.org/1999/xlink" viewBox="0 0 38 24"><title>airtel money</title><desc>Created with Sketch.</desc><g fill-rule="evenodd" fill="none"><g id="airtel-money"><g id="airtel-money"><path id="Shape" fill="#EDEDED" d="m34.5 24h-31c-1.9 0-3.5-1.6-3.5-3.5v-17c0-1.9 1.6-3.5 3.5-3.5h31c1.9 0 3.5 1.6 3.5 3.5v17c0 1.9-1.6 3.5-3.5 3.5z"/><path id="Shape-path" fill="#fff" d="m3.5 1c-1.4 0-2.5 1.1-2.5 2.5v17c0 1.4 1.1 2.5 2.5 2.5h31c1.4 0 2.5-1.1 2.5-2.5v-17c0-1.4-1.1-2.5-2.5-2.5h-31z"/><path id="Shape" fill="#EB2227" d="m22.3 3c0.6 0.1 1.2 0.2 1.7 0.3 2.2 0.4 3.9 2 4.5 4.1 0.3 1.6 0.1 3.3-0.7 4.7-0.9 1.8-2.1 3.3-3.7 4.5-2.1 1.8-4.6 3.2-7.3 4.1-0.6 0.2-1.3 0.3-1.9 0.3-1.1 0.1-2.1-0.7-2.2-1.8v-0.5c0.2-2.1 1.7-3.8 3.8-4.4 0.5 0 1 0 1.4 0.2 0.5 0.2 0.8 0.8 0.6 1.4-0.1 0.2-0.2 0.3-0.3 0.4-0.4 0.4-0.8 0.8-1.2 1.1s-0.7 0.6-1 1c-0.2 0.2-0.3 0.4-0.4 0.6-0.2 0.4 0 0.6 0.4 0.6 0.2 0 0.4 0 0.6-0.1 3.5-1.3 6.3-3.7 8.1-6.9 0.3-0.5 0.4-1 0.4-1.6 0.1-1.7-1-2.7-2.6-2.2-1.2 0.4-2.5 0.9-3.6 1.5-1.2 0.6-2.4 1.4-3.6 2-0.9 0.5-1.9 0.8-3 0.9-0.5 0.1-1 0-1.4-0.1-1-0.1-1.8-1.1-1.6-2.3 0-0.1 0-0.2 0.1-0.3 0.5-1.4 1.4-2.7 2.6-3.5 2.3-1.8 5-3.1 7.9-3.7 0.5-0.1 1.1-0.2 1.6-0.3h0.8z"/></g></g></g></svg>