<svg xmlns="http://www.w3.org/2000/svg" width="38" height="24" viewBox="0 0 38 24" fill="none" aria-labelledby="pi-airtel_money" role="img"><title id="pi-airtel_money">Airtel Money</title><rect width="38" height="24" fill="white"/><path fill-rule="evenodd" clip-rule="evenodd" d="M22.3 3C22.9 3.1 23.5 3.2 24 3.3C26.2 3.7 27.9 5.3 28.5 7.4C28.8 9 28.6 10.7 27.8 12.1C26.9 13.9 25.7 15.4 24.1 16.6C22 18.4 19.5 19.8 16.8 20.7C16.2 20.9 15.5 21 14.9 21C13.8 21.1 12.8 20.3 12.7 19.2V18.7C12.9 16.6 14.4 14.9 16.5 14.3C17 14.3 17.5 14.3 17.9 14.5C18.4 14.7 18.7 15.3 18.5 15.9C18.4 16.1 18.3 16.2 18.2 16.3C17.8 16.7 17.4 17.1 17 17.4C16.6 17.7 16.3 18 16 18.4C15.8 18.6 15.7 18.8 15.6 19C15.4 19.4 15.6 19.6 16 19.6C16.2 19.6 16.4 19.6 16.6 19.5C20.1 18.2 22.9 15.8 24.7 12.6C25 12.1 25.1 11.6 25.1 11C25.2 9.3 24.1 8.3 22.5 8.8C21.3 9.2 20 9.7 18.9 10.3C17.7 10.9 16.5 11.7 15.3 12.3C14.4 12.8 13.4 13.1 12.3 13.2C11.8 13.3 11.3 13.2 10.9 13.1C9.9 13 9.1 12 9.3 10.8C9.3 10.7 9.3 10.6 9.4 10.5C9.9 9.1 10.8 7.8 12 7C14.3 5.2 17 3.9 19.9 3.3C20.4 3.2 21 3.1 21.5 3H22.3V3Z" fill="#EB2227"/></svg>