<svg xmlns="http://www.w3.org/2000/svg" fill="none" viewBox="0 0 38 24" width="38" height="24" aria-labelledby="pi-akulakupaylater" role="img"><title id="pi-akulakupaylater">Akulaku PayLater</title><path fill="#fff" d="M0 0h38v24H0z"/><path fill="#EB3223" d="M6.878 9.696a1.351 1.351 0 0 0-.593-.286 1.285 1.285 0 0 0-.608.027c-.232.069-.45.204-.636.395a2.036 2.036 0 0 0-.439.71c-.136.365-.185.8-.14 1.268.036.354.147.688.32.968.352.577.944.88 1.502.762.217-.045.424-.147.61-.298.185-.151.344-.35.468-.582.229-.44.305-.993.245-1.53a2.394 2.394 0 0 0-.24-.821 1.85 1.85 0 0 0-.49-.613h.001Z"/><path fill="#EB3223" d="M7.28 5.665c-.977-.188-1.976 0-2.87.54-.895.54-1.644 1.407-2.153 2.492-.51 1.086-.757 2.34-.71 3.606.047 1.266.385 2.485.973 3.504.587 1.02 1.397 1.792 2.327 2.22.93.43 1.938.495 2.897.19.96-.306 1.826-.97 2.491-1.907s1.098-2.106 1.245-3.359a8.17 8.17 0 0 0-.092-2.497 7.329 7.329 0 0 0-.83-2.261A5.715 5.715 0 0 0 9.114 6.51a4.353 4.353 0 0 0-1.835-.846Zm1.545 8.447a.484.484 0 0 1-.353.194.47.47 0 0 1-.343-.15.616.616 0 0 1-.133-.207.115.115 0 0 0-.023-.045.08.08 0 0 0-.038-.025.066.066 0 0 0-.042.001.083.083 0 0 0-.036.028c-.036.045-.075.084-.115.128a2.342 2.342 0 0 1-1.261.742 2.016 2.016 0 0 1-.624.029 2.232 2.232 0 0 1-1.107-.448 3.085 3.085 0 0 1-.843-1.014 3.917 3.917 0 0 1-.406-1.28 4.262 4.262 0 0 1 .034-1.381c.086-.453.245-.877.466-1.246.222-.369.501-.675.82-.897a2.28 2.28 0 0 1 .85-.364c.752-.154 1.479.144 2.02.683a3 3 0 0 1 .563.795c.061.11.202.36.36 1.039.124.556.215 1.123.275 1.696.047.413.077.827.09 1.242 0 .18-.055.352-.154.48Zm1.555-.241a.45.45 0 0 1-.343.18.454.454 0 0 1-.354-.189.744.744 0 0 1-.146-.454l-.006-.143a14.212 14.212 0 0 0-.076-1.238 22.53 22.53 0 0 0-.172-1.386 19.44 19.44 0 0 0-.737-3.062c-.055-.162-.105-.32-.153-.445a.915.915 0 0 1-.067-.232.33.33 0 0 1 .008-.103.287.287 0 0 1 .038-.091.223.223 0 0 1 .072-.074.167.167 0 0 1 .091-.026 1.025 1.025 0 0 1 .477.208c.143.107.268.25.367.422.059.105.11.216.153.333l.12.359a24.751 24.751 0 0 1 .491 1.751c.03.14.067.29.099.439.015.074.035.164.047.246.027.166.045.33.066.49.099.787.157 1.578.174 2.371l.003.185c0 .086-.014.17-.04.25a.672.672 0 0 1-.112.209Zm4.723-2.364h-1.566v5.364h.828v-1.756h.738c.419 0 .768-.17 1.04-.509.272-.339.403-.775.403-1.299 0-.524-.135-.953-.404-1.292a1.273 1.273 0 0 0-1.039-.508Zm.442 2.36a.604.604 0 0 1-.203.17.478.478 0 0 1-.239.052h-.738v-1.556h.738a.48.48 0 0 1 .24.053.605.605 0 0 1 .203.171.77.77 0 0 1 .132.252c.03.094.043.196.04.298a.926.926 0 0 1-.04.304.777.777 0 0 1-.133.256Zm11.903-1.071a1.31 1.31 0 0 0-.703.21 1.75 1.75 0 0 0-.559.586c-.148.248-.25.536-.298.842a2.59 2.59 0 0 0 .023.925c.063.302.18.58.34.816.16.235.361.42.587.54a1.283 1.283 0 0 0 1.403-.117v.273h.797v-2.07c-.007-.535-.178-1.045-.475-1.42-.298-.375-.698-.585-1.115-.585Zm0 3.054a.676.676 0 0 1-.44-.171 1.004 1.004 0 0 1-.293-.457 1.285 1.285 0 0 1-.045-.587 1.13 1.13 0 0 1 .217-.521.76.76 0 0 1 .406-.279.633.633 0 0 1 .459.058.874.874 0 0 1 .355.375c.088.167.134.364.134.565 0 .27-.084.528-.232.719a.718.718 0 0 1-.561.298Zm-1.848-.005h-1.35v-4.338h-.828v5.364h2.816a2.54 2.54 0 0 1-.637-1.026H25.6Zm-7.334-3.049c-.244 0-.485.071-.703.21a1.75 1.75 0 0 0-.56.585 2.36 2.36 0 0 0-.298.843c-.048.306-.04.622.023.924.063.302.18.582.34.817.16.235.361.42.586.54a1.283 1.283 0 0 0 1.404-.117v.273h.795v-2.07c-.007-.534-.177-1.044-.474-1.418-.297-.375-.696-.586-1.113-.587Zm0 3.054a.675.675 0 0 1-.44-.17 1.002 1.002 0 0 1-.293-.457 1.285 1.285 0 0 1-.046-.588 1.12 1.12 0 0 1 .217-.52.76.76 0 0 1 .406-.28.633.633 0 0 1 .458.058.873.873 0 0 1 .356.375c.088.167.134.364.134.565 0 .27-.083.528-.232.718a.719.719 0 0 1-.56.299Zm13.196-3.034h-.941v-1.063l-.829.284v.779h-.9l.011.026c.234.276.412.62.521 1.002h.369v3.03h.828v-3.03h.366a2.5 2.5 0 0 1 .575-1.028Zm-9.991 2.517-.745-2.536h-.871l1.15 4.002-.416 1.53h.88l1.614-5.532h-.872l-.74 2.536Zm-7.747-4.871a.174.174 0 0 0 .166-.006.262.262 0 0 0 .115-.154l.216-.718h1.176l.215.717a.281.281 0 0 0 .08.13c.037.033.08.05.124.05a.173.173 0 0 0 .078-.02.253.253 0 0 0 .12-.147.354.354 0 0 0 .005-.213l-.857-2.856a.485.485 0 0 0-.139-.226.323.323 0 0 0-.214-.086.323.323 0 0 0-.214.086.486.486 0 0 0-.139.226l-.857 2.855a.352.352 0 0 0 .004.214.292.292 0 0 0 .05.09.22.22 0 0 0 .071.058Zm1.085-2.837.422 1.4h-.842l.42-1.4Zm6.521 2.855c.058 0 .113-.03.154-.082a.323.323 0 0 0 .064-.198l-.008-3.03a.323.323 0 0 0-.064-.197.198.198 0 0 0-.154-.082.198.198 0 0 0-.154.082.324.324 0 0 0-.064.198l.006 3.029a.32.32 0 0 0 .064.197.195.195 0 0 0 .154.082l.002.001Zm-4.48-.096.542-.78.627.795c.04.053.096.082.154.082a.197.197 0 0 0 .155-.082.325.325 0 0 0 .064-.198.326.326 0 0 0-.064-.198l-.64-.813a.02.02 0 0 0-.004-.005l.654-.948a.332.332 0 0 0 .054-.203.314.314 0 0 0-.075-.192.214.214 0 0 0-.074-.055.175.175 0 0 0-.085-.014.207.207 0 0 0-.15.095l-1.101 1.585V7.174a.324.324 0 0 0-.064-.198.198.198 0 0 0-.155-.082.198.198 0 0 0-.155.082.324.324 0 0 0-.064.198v3.028c0 .057.014.113.04.16a.235.235 0 0 0 .102.102c.025.012.05.018.077.018a.18.18 0 0 0 .09-.027.234.234 0 0 0 .073-.071h-.001Zm2.901.096c.244 0 .479-.125.652-.347a1.37 1.37 0 0 0 .271-.835V8.069a.324.324 0 0 0-.064-.198.198.198 0 0 0-.155-.082.198.198 0 0 0-.155.082.324.324 0 0 0-.064.198v1.229a.721.721 0 0 1-.142.44.439.439 0 0 1-.343.182.438.438 0 0 1-.343-.182.72.72 0 0 1-.142-.44V8.069a.352.352 0 0 0-.012-.113.3.3 0 0 0-.047-.097.229.229 0 0 0-.072-.066.179.179 0 0 0-.175 0 .229.229 0 0 0-.073.066.303.303 0 0 0-.046.097.352.352 0 0 0-.012.113v1.229c0 .313.098.614.27.835.174.222.408.346.652.347Zm3.277 0c.22 0 .435-.089.613-.254a.312.312 0 0 0 .075.185.192.192 0 0 0 .153.068.202.202 0 0 0 .148-.086.325.325 0 0 0 .061-.193V9.134c0-.266-.062-.526-.177-.748a1.156 1.156 0 0 0-.471-.496.838.838 0 0 0-.607-.076 1.01 1.01 0 0 0-.538.368 1.496 1.496 0 0 0-.287.69c-.04.26-.02.531.06.777s.214.456.387.604a.895.895 0 0 0 .583.227Zm0-2.13c.121 0 .24.046.34.132.1.087.18.21.226.353a.993.993 0 0 1 .034.454.873.873 0 0 1-.168.401.586.586 0 0 1-.313.215.488.488 0 0 1-.354-.045.674.674 0 0 1-.274-.29.95.95 0 0 1-.103-.436.91.91 0 0 1 .18-.554.555.555 0 0 1 .432-.23Zm1.628 2.112a.174.174 0 0 0 .168-.007.233.233 0 0 0 .074-.071l.541-.78.627.795c.04.053.096.082.154.082a.197.197 0 0 0 .155-.082.325.325 0 0 0 .064-.198.326.326 0 0 0-.064-.198l-.64-.813a.02.02 0 0 0-.004-.005l.654-.948a.3.3 0 0 0 .046-.095.35.35 0 0 0-.007-.22.284.284 0 0 0-.053-.088.213.213 0 0 0-.076-.056.174.174 0 0 0-.171.019.241.241 0 0 0-.068.071l-1.102 1.585V7.174a.35.35 0 0 0-.017-.107.295.295 0 0 0-.047-.091.225.225 0 0 0-.071-.06.178.178 0 0 0-.168 0 .225.225 0 0 0-.07.06.295.295 0 0 0-.048.09.35.35 0 0 0-.017.108v3.027c0 .057.014.112.039.158.024.047.06.083.101.103Zm3.143.018c.244 0 .479-.125.651-.347.173-.221.27-.522.271-.835V8.069a.324.324 0 0 0-.064-.198.198.198 0 0 0-.155-.082.198.198 0 0 0-.155.082.324.324 0 0 0-.064.198v1.229a.721.721 0 0 1-.142.44.439.439 0 0 1-.343.182.438.438 0 0 1-.343-.182.72.72 0 0 1-.142-.44V8.069a.352.352 0 0 0-.012-.113.3.3 0 0 0-.046-.097.229.229 0 0 0-.073-.066.179.179 0 0 0-.175 0 .229.229 0 0 0-.073.066.303.303 0 0 0-.046.097.352.352 0 0 0-.012.113v1.229c0 .314.098.614.271.835.173.222.408.347.652.347Zm4.981 2.318c-.46 0-.848.195-1.152.58-.304.385-.454.871-.454 1.457 0 .586.153 1.076.454 1.458.301.382.692.58 1.151.58a1.38 1.38 0 0 0 .933-.353c.261-.23.46-.56.569-.941l.015-.05h-.94l-.035.045-.035.04-.008.008a.866.866 0 0 1-.054.051l-.011.01-.043.033a.675.675 0 0 1-.314.127.629.629 0 0 1-.327-.047.777.777 0 0 1-.283-.214 1.047 1.047 0 0 1-.191-.343h2.3l.007-.057c.014-.115.023-.231.024-.348 0-.585-.155-1.076-.46-1.455-.305-.379-.687-.581-1.147-.581h.001Zm0 1.023c.154 0 .304.058.433.166.129.109.23.263.291.444h-1.45a.992.992 0 0 1 .291-.444.672.672 0 0 1 .434-.166h.001Zm3.52-1.023c-.258 0-.511.082-.738.238v-.238h-.828v4.073h.828v-2.084c.002-.246.08-.482.215-.656a.672.672 0 0 1 .51-.28h.172v-1.043a1.227 1.227 0 0 0-.159-.01Z"/></svg>