<svg xmlns="http://www.w3.org/2000/svg" width="38" height="24" fill="none" aria-labelledby="pi-akulakupaylater" role="img" viewBox="0 0 38 24"><title id="pi-akulakupaylater">Akulaku PayLater</title><path fill="#fff" d="M0 0h38v24H0z"/><path fill="#EB3223" d="M6.878 9.696a1.35 1.35 0 0 0-.593-.286 1.3 1.3 0 0 0-.608.027c-.232.069-.45.204-.636.395a2 2 0 0 0-.439.71c-.136.365-.185.8-.14 1.268.036.354.147.688.32.968.352.577.944.88 1.502.762.217-.045.424-.147.61-.298.185-.151.344-.35.468-.582.229-.44.305-.993.245-1.53a2.4 2.4 0 0 0-.24-.821 1.85 1.85 0 0 0-.49-.613z"/><path fill="#EB3223" d="M7.28 5.665c-.977-.188-1.976 0-2.87.54S2.766 7.612 2.257 8.697c-.51 1.086-.757 2.34-.71 3.606s.385 2.485.973 3.504c.587 1.02 1.397 1.792 2.327 2.22.93.43 1.938.495 2.897.19.96-.306 1.826-.97 2.491-1.907s1.098-2.106 1.245-3.359a8.2 8.2 0 0 0-.092-2.497 7.3 7.3 0 0 0-.83-2.261A5.7 5.7 0 0 0 9.114 6.51a4.35 4.35 0 0 0-1.835-.846Zm1.545 8.447a.48.48 0 0 1-.353.194.47.47 0 0 1-.343-.15.6.6 0 0 1-.133-.207.1.1 0 0 0-.023-.045.1.1 0 0 0-.038-.025.07.07 0 0 0-.042.001.1.1 0 0 0-.036.028c-.036.045-.075.084-.115.128a2.34 2.34 0 0 1-1.261.742 2 2 0 0 1-.624.029 2.23 2.23 0 0 1-1.107-.448 3.1 3.1 0 0 1-.843-1.014 3.9 3.9 0 0 1-.406-1.28 4.3 4.3 0 0 1 .034-1.381c.086-.453.245-.877.466-1.246s.501-.675.82-.897a2.3 2.3 0 0 1 .85-.364c.752-.154 1.479.144 2.02.683a3 3 0 0 1 .563.795c.061.11.202.36.36 1.039q.185.835.275 1.696.07.62.09 1.242c0 .18-.055.352-.154.48m1.555-.241a.45.45 0 0 1-.343.18.45.45 0 0 1-.354-.189.74.74 0 0 1-.146-.454l-.006-.143a14 14 0 0 0-.076-1.238 23 23 0 0 0-.172-1.386 19.4 19.4 0 0 0-.737-3.062c-.055-.162-.105-.32-.153-.445a1 1 0 0 1-.067-.232.3.3 0 0 1 .008-.103.3.3 0 0 1 .038-.091.2.2 0 0 1 .072-.074.17.17 0 0 1 .091-.026 1 1 0 0 1 .477.208q.217.162.367.422.088.157.153.333l.12.359a25 25 0 0 1 .491 1.751c.03.14.067.29.099.439.015.074.035.164.047.246.027.166.045.33.066.49q.149 1.181.174 2.371l.003.185q0 .13-.04.25a.7.7 0 0 1-.112.209m4.723-2.364h-1.566v5.364h.828v-1.756h.738q.63 0 1.04-.509c.272-.339.403-.775.403-1.299q0-.785-.404-1.292a1.27 1.27 0 0 0-1.039-.508m.442 2.36a.6.6 0 0 1-.203.17.5.5 0 0 1-.239.052h-.738v-1.556h.738a.5.5 0 0 1 .24.053.6.6 0 0 1 .203.171.8.8 0 0 1 .132.252q.045.143.04.298a1 1 0 0 1-.04.304.8.8 0 0 1-.133.256m11.903-1.071a1.3 1.3 0 0 0-.703.21 1.75 1.75 0 0 0-.559.586c-.148.248-.25.536-.298.842a2.6 2.6 0 0 0 .023.925c.063.302.18.58.34.816.16.235.361.42.587.54a1.28 1.28 0 0 0 1.403-.117v.273h.797v-2.07c-.007-.535-.178-1.045-.475-1.42-.298-.375-.698-.585-1.115-.585m0 3.054a.68.68 0 0 1-.44-.171 1 1 0 0 1-.293-.457 1.3 1.3 0 0 1-.045-.587 1.13 1.13 0 0 1 .217-.521.76.76 0 0 1 .406-.279.63.63 0 0 1 .459.058.87.87 0 0 1 .355.375c.088.167.134.364.134.565 0 .27-.084.528-.232.719a.72.72 0 0 1-.561.298m-1.848-.005h-1.35v-4.338h-.828v5.364h2.816a2.54 2.54 0 0 1-.637-1.026zm-7.334-3.049c-.244 0-.485.071-.703.21a1.75 1.75 0 0 0-.56.585 2.4 2.4 0 0 0-.298.843c-.048.306-.04.622.023.924s.18.582.34.817.361.42.586.54a1.28 1.28 0 0 0 1.404-.117v.273h.795v-2.07c-.007-.534-.177-1.044-.474-1.418-.297-.375-.696-.586-1.113-.587m0 3.054a.68.68 0 0 1-.44-.17 1 1 0 0 1-.293-.457 1.3 1.3 0 0 1-.046-.588 1.1 1.1 0 0 1 .217-.52.76.76 0 0 1 .406-.28.63.63 0 0 1 .458.058.87.87 0 0 1 .356.375c.088.167.134.364.134.565 0 .27-.083.528-.232.718a.72.72 0 0 1-.56.299m13.196-3.034h-.941v-1.063l-.829.284v.779h-.9l.011.026c.234.276.412.62.521 1.002h.369v3.03h.828v-3.03h.366a2.5 2.5 0 0 1 .575-1.028m-9.991 2.517-.745-2.536h-.871l1.15 4.002-.416 1.53h.88l1.614-5.532h-.872zm-7.747-4.871a.17.17 0 0 0 .166-.006.26.26 0 0 0 .115-.154l.216-.718h1.176l.215.717a.3.3 0 0 0 .08.13q.057.05.124.05a.2.2 0 0 0 .078-.02.25.25 0 0 0 .12-.147.35.35 0 0 0 .005-.213l-.857-2.856a.5.5 0 0 0-.139-.226.32.32 0 0 0-.214-.086.32.32 0 0 0-.214.086.5.5 0 0 0-.139.226l-.857 2.855a.35.35 0 0 0 .004.214.3.3 0 0 0 .05.09.2.2 0 0 0 .071.058m1.085-2.837.422 1.4h-.842zm6.521 2.855c.058 0 .113-.03.154-.082a.32.32 0 0 0 .064-.198l-.008-3.03a.32.32 0 0 0-.064-.197.2.2 0 0 0-.154-.082.2.2 0 0 0-.154.082.32.32 0 0 0-.064.198l.006 3.029a.32.32 0 0 0 .064.197.2.2 0 0 0 .154.082zm-4.48-.096.542-.78.627.795c.04.053.096.082.154.082a.2.2 0 0 0 .155-.082.33.33 0 0 0 .064-.198.33.33 0 0 0-.064-.198l-.64-.813-.004-.005.654-.948a.33.33 0 0 0 .054-.203.3.3 0 0 0-.075-.192.2.2 0 0 0-.074-.055.2.2 0 0 0-.085-.014.2.2 0 0 0-.15.095l-1.101 1.585V7.174a.32.32 0 0 0-.064-.198.2.2 0 0 0-.155-.082.2.2 0 0 0-.155.082.32.32 0 0 0-.064.198v3.028q0 .088.04.16a.24.24 0 0 0 .102.102q.037.018.077.018a.2.2 0 0 0 .09-.027.2.2 0 0 0 .073-.071zm2.901.096c.244 0 .479-.125.652-.347a1.37 1.37 0 0 0 .271-.835V8.069a.32.32 0 0 0-.064-.198.2.2 0 0 0-.155-.082.2.2 0 0 0-.155.082.32.32 0 0 0-.064.198v1.229a.72.72 0 0 1-.142.44.44.44 0 0 1-.343.182.44.44 0 0 1-.343-.182.72.72 0 0 1-.142-.44V8.069a.4.4 0 0 0-.012-.113.3.3 0 0 0-.047-.097.2.2 0 0 0-.072-.066.18.18 0 0 0-.175 0 .2.2 0 0 0-.073.066.3.3 0 0 0-.046.097.4.4 0 0 0-.012.113v1.229c0 .313.098.614.27.835.174.222.408.346.652.347m3.277 0c.22 0 .435-.089.613-.254a.3.3 0 0 0 .075.185.2.2 0 0 0 .153.068.2.2 0 0 0 .148-.086.33.33 0 0 0 .061-.193V9.134c0-.266-.062-.526-.177-.748a1.16 1.16 0 0 0-.471-.496.84.84 0 0 0-.607-.076 1 1 0 0 0-.538.368 1.5 1.5 0 0 0-.287.69c-.04.26-.02.531.06.777s.214.456.387.604a.9.9 0 0 0 .583.227m0-2.13c.121 0 .24.046.34.132s.18.21.226.353a1 1 0 0 1 .034.454.9.9 0 0 1-.168.401.6.6 0 0 1-.313.215.5.5 0 0 1-.354-.045.67.67 0 0 1-.274-.29.95.95 0 0 1-.103-.436.9.9 0 0 1 .18-.554.56.56 0 0 1 .432-.23m1.628 2.112a.17.17 0 0 0 .168-.007.2.2 0 0 0 .074-.071l.541-.78.627.795c.04.053.096.082.154.082a.2.2 0 0 0 .155-.082.33.33 0 0 0 .064-.198.33.33 0 0 0-.064-.198l-.64-.813-.004-.005.654-.948a.3.3 0 0 0 .046-.095.35.35 0 0 0-.007-.22.3.3 0 0 0-.053-.088.2.2 0 0 0-.076-.056.17.17 0 0 0-.171.019.24.24 0 0 0-.068.071l-1.102 1.585V7.174a.4.4 0 0 0-.017-.107.3.3 0 0 0-.047-.091.2.2 0 0 0-.071-.06.18.18 0 0 0-.168 0 .2.2 0 0 0-.07.06.3.3 0 0 0-.048.09.4.4 0 0 0-.017.108v3.027q0 .087.039.158.038.072.101.103m3.143.018c.244 0 .479-.125.651-.347s.27-.522.271-.835V8.069a.32.32 0 0 0-.064-.198.2.2 0 0 0-.155-.082.2.2 0 0 0-.155.082.32.32 0 0 0-.064.198v1.229a.72.72 0 0 1-.142.44.44.44 0 0 1-.343.182.44.44 0 0 1-.343-.182.72.72 0 0 1-.142-.44V8.069a.4.4 0 0 0-.012-.113.3.3 0 0 0-.046-.097.2.2 0 0 0-.073-.066.18.18 0 0 0-.175 0 .2.2 0 0 0-.073.066.3.3 0 0 0-.046.097.4.4 0 0 0-.012.113v1.229c0 .314.098.614.271.835.173.222.408.347.652.347m4.981 2.318c-.46 0-.848.195-1.152.58q-.455.578-.454 1.457c0 .586.153 1.076.454 1.458s.692.58 1.151.58a1.38 1.38 0 0 0 .933-.353c.261-.23.46-.56.569-.941l.015-.05h-.94l-.035.045-.035.04-.008.008-.054.051-.011.01-.043.033a.7.7 0 0 1-.314.127.63.63 0 0 1-.327-.047.8.8 0 0 1-.283-.214 1 1 0 0 1-.191-.343h2.3l.007-.057q.022-.172.024-.348c0-.585-.155-1.076-.46-1.455s-.687-.581-1.147-.581zm0 1.023c.154 0 .304.058.433.166s.23.263.291.444h-1.45a1 1 0 0 1 .291-.444.67.67 0 0 1 .434-.166zm3.52-1.023c-.258 0-.511.082-.738.238v-.238h-.828v4.073h.828v-2.084c.002-.246.08-.482.215-.656a.67.67 0 0 1 .51-.28h.172v-1.043a1 1 0 0 0-.159-.01"/></svg>