<svg xmlns="http://www.w3.org/2000/svg" fill="none" viewBox="0 0 38 24" width="38" height="24" aria-labelledby="pi-alipay" role="img"><title id="pi-alipay">AliPay</title><path fill="#fff" d="M0 0h38v24H0z"/><path fill="#00A0E9" d="M10.685 8.203H5.517c-.671 0-1.213.542-1.213 1.213v5.159c0 .68.542 1.222 1.213 1.222h5.158c.681 0 1.223-.542 1.223-1.212v-.08s-1.962-.817-2.959-1.302c-.671.809-1.529 1.312-2.417 1.312-1.509 0-2.022-1.321-1.312-2.188.158-.188.424-.376.829-.475.641-.157 1.667.099 2.623.415.168-.316.316-.671.424-1.046H6.128v-.295h1.529v-.543H5.823v-.296h1.844v-.77s0-.128.128-.128h.75v.897h1.825v.296H8.545v.543h1.49a5.877 5.877 0 0 1-.631 1.597c.454.168.858.316 1.164.424 1.085.365 1.332.385 1.332.385V9.416a1.215 1.215 0 0 0-1.215-1.213Z"/><path fill="#00A0E9" d="M5.468 12.522c-.592.494-.237 1.401.957 1.401.69 0 1.381-.425 1.923-1.104-.77-.366-1.43-.622-2.13-.553-.198.01-.553.089-.75.256Z"/><path fill="#000" d="m15.075 10.965.868 1.874h-1.775l.907-1.874Zm1.301 2.859h1.045l-1.953-4.241h-.286a.201.201 0 0 0-.128.04.287.287 0 0 0-.089.099l-1.982 4.103h.7l.355-.69h2.012l.326.689Zm2.427 0h-.986V9.761a.186.186 0 0 1 .198-.178h.798v4.241h-.01Zm.789-2.869c0-.05.02-.089.059-.129a.192.192 0 0 1 .139-.049h.799v3.156h-.986v-2.979l-.011.001Zm2.762 2.11a.562.562 0 0 0 .157.395c.051.05.119.089.188.118a.641.641 0 0 0 .237.039.396.396 0 0 0 .227-.078.732.732 0 0 0 .188-.228c.049-.098.1-.217.129-.355a2.13 2.13 0 0 0 .049-.443c0-.207-.01-.384-.039-.542a1.701 1.701 0 0 0-.119-.395.559.559 0 0 0-.177-.237.395.395 0 0 0-.228-.078c-.06 0-.12.01-.178.029a.488.488 0 0 0-.157.089c-.049.039-.1.079-.148.128a1.153 1.153 0 0 0-.128.157l-.001 1.401Zm-.987-2.15c0-.049.02-.099.049-.128.04-.04.08-.06.129-.06h.77v.247c.108-.089.236-.168.374-.228.139-.059.307-.089.493-.089.197 0 .385.04.543.119.168.079.306.188.425.315.117.139.207.296.266.474.059.177.099.364.099.572 0 .256-.04.493-.108.71a1.59 1.59 0 0 1-.829.937c-.197.09-.424.139-.67.139-.129 0-.237 0-.325-.01a.846.846 0 0 1-.267-.07v1.263h-.947v-4.191h-.002Zm4.34 1.934a.69.69 0 0 1 .642-.69c.227-.02.364.029.444.079v1.114a.617.617 0 0 1-.444.188.678.678 0 0 1-.642-.691Zm1.342-2.081c-.454-.129-1.036-.158-1.824.049.029.079.059.217.088.296 1.253-.217 1.49-.05 1.49.493v.167c-.228-.02-.504-.049-.721-.059-.857-.01-1.164.661-1.164 1.096 0 .749.71 1.448 1.885.927v.117h.976v-2.277c-.001-.445-.385-.711-.73-.809Zm1.025-.1h1.006l.997 1.943.818-1.824c.02-.04.04-.069.079-.089a.243.243 0 0 1 .117-.03h.544l-1.579 3.512c-.384.956-1.301.819-1.469.819v-.533c.128 0 .552.01.738-.208a.718.718 0 0 0 .109-.197c.029-.059.049-.107.079-.156l.108-.257-1.547-2.98Z"/><path fill="#00A0E9" d="M20.578 9.83c0 .247-.216.444-.493.444-.276 0-.493-.197-.493-.444s.217-.443.493-.443c.277 0 .493.196.493.443Z"/><path fill="#000" d="M32.514 9.88v.079h.186v.513h.108v-.513h.188V9.88h-.482Zm1.085 0-.199.364-.197-.364h-.099v.592h.099v-.395l.158.286h.079l.158-.286v.395h.098V9.88h-.097Z"/></svg>