<svg width="38" height="24" viewBox="0 0 38 24" role="img" aria-labelledby="pi-alma" fill="none" xmlns="http://www.w3.org/2000/svg"><title id="pi-alma">Alma</title><path fill="#000" opacity=".07" d="M35 0H3C1.3 0 0 1.3 0 3v18c0 1.7 1.4 3 3 3h32c1.7 0 3-1.3 3-3V3c0-1.7-1.4-3-3-3z"/><path fill="#fff" d="M35 1c1.1 0 2 .9 2 2v18c0 1.1-.9 2-2 2H3c-1.1 0-2-.9-2-2V3c0-1.1.9-2 2-2h32"/><path d="M7.973 10.209v-.08H6.836c-.535 0-.932.053-1.19.16-.25.098-.375.316-.375.654 0 .507.357.761 1.07.761.598 0 1.017-.125 1.258-.374.25-.258.374-.632.374-1.121zM5.9 13.173c-.839 0-1.459-.205-1.86-.614-.401-.419-.602-.957-.602-1.616 0-.792.259-1.362.776-1.709C4.73 8.878 5.52 8.7 6.582 8.7h1.391v-.293c0-.659-.419-.988-1.257-.988-.75 0-1.164.285-1.245.854H3.6c.062-.685.347-1.26.856-1.722.508-.463 1.275-.694 2.3-.694 1.018 0 1.785.227 2.302.68.517.455.776 1.095.776 1.923v4.552H8.147v-.774c-.401.623-1.15.935-2.247.935zM14.103 11.384v1.615a4.17 4.17 0 01-.589.04c-.74 0-1.266-.156-1.579-.467-.312-.32-.468-.832-.468-1.535V3h1.9v7.903c0 .17.031.294.093.374.063.08.192.12.388.12h.148c.062-.009.098-.013.107-.013zM21.61 9.034v3.978h-1.9V8.861c0-.917-.374-1.375-1.124-1.375-.437 0-.775.133-1.016.4-.232.267-.348.636-.348 1.108v4.018h-1.9V6.017h1.753v.854c.365-.676 1.039-1.014 2.02-1.014.927 0 1.605.33 2.033.988.598-.659 1.374-.988 2.328-.988.82 0 1.45.254 1.886.76.437.508.656 1.184.656 2.03v4.365h-1.9V8.861c0-.917-.374-1.375-1.124-1.375-.445 0-.784.137-1.016.413-.232.267-.348.646-.348 1.135zM31.842 10.209v-.08h-1.137c-.535 0-.932.053-1.19.16-.25.098-.375.316-.375.654 0 .507.357.761 1.07.761.598 0 1.017-.125 1.258-.374.25-.258.374-.632.374-1.121zm-2.073 2.964c-.839 0-1.459-.205-1.86-.614-.401-.419-.602-.957-.602-1.616 0-.792.259-1.362.776-1.709.517-.356 1.307-.534 2.368-.534h1.391v-.293c0-.659-.419-.988-1.257-.988-.75 0-1.164.285-1.245.854h-1.872c.062-.685.347-1.26.856-1.722.508-.463 1.275-.694 2.3-.694 1.018 0 1.784.227 2.302.68.517.455.776 1.095.776 1.923v4.552h-1.686v-.774c-.401.623-1.15.935-2.247.935z" fill="#00425D"/><path fill="#FF414D" d="M3 18.12h31.154v2.211H3z"/></svg>