<svg xmlns="http://www.w3.org/2000/svg" role="img" viewBox="0 0 38 24" width="38" height="24" aria-labelledby="pi-alma"><title id="pi-alma">Alma</title><path style="stroke:none;fill-rule:nonzero;fill:#00425d;fill-opacity:1" d="M6.066 10.57v-.105H4.68c-.653 0-1.137.07-1.453.215-.305.129-.457.422-.457.87 0 .677.433 1.016 1.304 1.016.73 0 1.242-.168 1.535-.5.305-.343.457-.843.457-1.496Zm-2.53 3.953c-1.02 0-1.778-.273-2.266-.82-.493-.555-.735-1.273-.735-2.152 0-1.055.317-1.817.945-2.278.633-.476 1.594-.714 2.887-.714h1.7v-.391c0-.879-.512-1.316-1.536-1.316-.914 0-1.418.378-1.515 1.14H.73c.075-.914.426-1.68 1.043-2.297.622-.617 1.559-.925 2.809-.925 1.238 0 2.176.3 2.805.906.633.605.949 1.46.949 2.562v6.07H6.277v-1.03c-.488.831-1.402 1.245-2.742 1.245ZM13.543 12.137v2.156c-.23.035-.469.05-.719.05-.902 0-1.543-.206-1.926-.62-.378-.426-.57-1.11-.57-2.047V.96h2.317v10.535c0 .227.039.395.113.5.078.106.234.16.476.16h.176c.078-.011.121-.02.133-.02ZM22.7 9.004v5.305h-2.317V8.773c0-1.222-.457-1.832-1.371-1.832-.532 0-.946.176-1.242.536-.282.355-.422.847-.422 1.476v5.356H15.03V4.984h2.137v1.137c.445-.902 1.266-1.351 2.465-1.351 1.129 0 1.957.437 2.48 1.316.727-.879 1.676-1.316 2.84-1.316 1 0 1.766.335 2.3 1.015.532.676.798 1.578.798 2.703v5.82h-2.317V8.774c0-1.222-.457-1.832-1.37-1.832-.544 0-.958.184-1.239.551-.285.356-.426.86-.426 1.512ZM35.18 10.57v-.105h-1.387c-.652 0-1.137.07-1.453.215-.305.129-.457.422-.457.87 0 .677.437 1.016 1.308 1.016.727 0 1.239-.168 1.532-.5.304-.343.457-.843.457-1.496Zm-2.528 3.953c-1.023 0-1.78-.273-2.27-.82-.487-.555-.734-1.273-.734-2.152 0-1.055.317-1.817.946-2.278.633-.476 1.593-.714 2.89-.714h1.696v-.391c0-.879-.512-1.316-1.532-1.316-.914 0-1.421.378-1.52 1.14h-2.284c.078-.914.426-1.68 1.047-2.297.617-.617 1.554-.925 2.804-.925 1.242 0 2.176.3 2.809.906.629.605.945 1.46.945 2.562v6.07h-2.058v-1.03c-.489.831-1.403 1.245-2.739 1.245Zm0 0"/><path style="stroke:none;fill-rule:nonzero;fill:#ff414d;fill-opacity:1" d="M0 21.121h38v2.95H0Zm0 0"/></svg>
