<svg xmlns="http://www.w3.org/2000/svg" width="38" height="24" viewBox="0 0 38 24" role="img" aria-labelledby="pi-aman">
  <title id="pi-aman">Aman</title>
  <g transform="translate(-352 -765)">
    <g transform="translate(352 765)">
      <path data-name="Path 1666" d="M35,0H3A2.946,2.946,0,0,0,0,3V21a3.009,3.009,0,0,0,3,3H35a2.946,2.946,0,0,0,3-3V3A3.009,3.009,0,0,0,35,0Z" opacity="0.07"/>
      <path data-name="Path 1667" d="M35,1a2.006,2.006,0,0,1,2,2V21a2.006,2.006,0,0,1-2,2H3a2.006,2.006,0,0,1-2-2V3A2.006,2.006,0,0,1,3,1H35" fill="#fff"/>
    </g>
    <g transform="translate(352.344 766.926)">
      <path data-name="Path 53904" d="M2.546.808a2,2,0,0,0-1.172.751,2.577,2.577,0,0,0-.28.537.556.556,0,0,1-.033.12c-.088.257-.088.072-.088,8.159,0,5.488.007,7.686.023,7.791a3.178,3.178,0,0,0,.128.537c.014.03.042.09.06.135a1.965,1.965,0,0,0,1.557,1.1c.2.028,32.362.028,32.545,0A1.954,1.954,0,0,0,37,18.353c.042-.181.042-15.778,0-15.975A1.956,1.956,0,0,0,35.616.847L35.455.806c-.109-.03-32.8-.029-32.909,0M33.81,2.793a1.251,1.251,0,0,1,.686.35c.125.12.13.1-.135.474s-.241.364-.372.23A.619.619,0,0,0,33,3.923a.538.538,0,0,0,.09.579c.141.144.208.155.88.155.324,0,.6.009.614.017a4.487,4.487,0,0,1,.019.848c-.021.021-2.831.018-2.852,0a3.617,3.617,0,0,1,.012-.841A.831.831,0,0,1,32,4.657c.13,0,.2-.007.192-.018a1.87,1.87,0,0,1-.053-.839,1.435,1.435,0,0,1,.721-.892,1.183,1.183,0,0,1,.327-.109.308.308,0,0,0,.1-.019,1.49,1.49,0,0,1,.524.012M11.2,6.9c-.007,1.29-.012,3.9-.012,5.794v3.447l-.139-.1q-.941-.672-1.872-1.357l-.16-.113c-.016-.016-.077-.06-.13-.1-.1-.069-.246-.176-.519-.373-.192-.141-.394-.285-.552-.4l-1.091-.792c-1.067-.776-1.156-.841-1.336-.968a1.6,1.6,0,0,1-.136-.1,1.716,1.716,0,0,0-.142-.1q-.071-.049-.139-.1a1.605,1.605,0,0,0-.136-.1c-.07-.049-.186-.132-.26-.186s-.195-.141-.271-.2-.2-.144-.271-.2-.172-.125-.26-.185l-.208-.153c-.044-.033-.144-.107-.222-.162-.193-.135-.2-.119.224-.417a1.341,1.341,0,0,0,.13-.1,1.412,1.412,0,0,1,.139-.1,1.676,1.676,0,0,0,.139-.1c.007-.007.069-.053.141-.1s.132-.093.139-.1a1.323,1.323,0,0,1,.139-.1,1.5,1.5,0,0,0,.139-.1c.007-.007.07-.053.139-.1s.134-.093.141-.1a1.4,1.4,0,0,1,.139-.1c.07-.051.135-.095.139-.1s.067-.051.139-.1a1.659,1.659,0,0,0,.139-.1c.007,0,.152-.113.329-.241.352-.255.489-.355.7-.507a1.611,1.611,0,0,1,.209-.132.261.261,0,0,0,.078-.044A1.642,1.642,0,0,1,6.829,7.7c.071-.049.134-.093.139-.1s.417-.305.915-.664l.989-.716c.044-.035.151-.111.236-.174s.211-.151.281-.2l.278-.2c.085-.06.211-.151.278-.2s.195-.141.28-.2.209-.152.278-.2.195-.141.281-.2l.266-.2a.508.508,0,0,1,.139-.086A22.735,22.735,0,0,1,11.2,6.9M22.7,4.7c.012.018.019,1.218.019,3.141,0,3.331,0,3.2.1,3.422.157.352.3.38,1.9.38h1.207l.012-.612c.007-.336.023-.664.034-.729s.03-.171.042-.234a2.677,2.677,0,0,1,.077-.321,2.3,2.3,0,0,1,1.672-1.712,3.143,3.143,0,0,1,1.434.014l.141.04A2.39,2.39,0,0,1,30.3,8.7a2.414,2.414,0,0,1,.547.872.085.085,0,0,0,.016.046,1.749,1.749,0,0,1,.1.373,3.46,3.46,0,0,1-.091,1.542,2.328,2.328,0,0,1-1.524,1.522,2.124,2.124,0,0,1-.76.123h-.257l-.164-.144-.426-.375a2.348,2.348,0,0,1-.264-.25c0-.009.195-.186.431-.391l.431-.374h.176a.9.9,0,0,0,.22-.018l.125-.042c.427-.128.6-.406.6-.969,0-.642-.215-.973-.707-1.089a1.011,1.011,0,0,0-1.149.47c-.144.3-.141.262-.141,1.773,0,.739-.007,1.36-.014,1.376-.014.039-4.167.051-4.406.012a1.9,1.9,0,0,1-1.834-1.865c-.04-.417-.025-6.586.014-6.609A9.5,9.5,0,0,1,22.7,4.7M16.915,6.138c0,1.552-.012,2.133-.034,2.133a2.4,2.4,0,0,1-.292-.192c-.148-.107-.3-.206-.329-.222a1.949,1.949,0,0,1-.2-.136l-.3-.216c-.085-.062-.213-.155-.285-.206s-.142-.1-.216-.151c-.1-.068-.109-.093-.032-.142.03-.021.058-.042.065-.049q.067-.052.138-.1c.07-.051.135-.095.139-.1s.067-.05.139-.1q.071-.047.139-.1c.007-.007.069-.051.139-.1s.135-.095.141-.1a1.446,1.446,0,0,1,.139-.1q.071-.047.139-.1a1.4,1.4,0,0,1,.139-.1c.072-.049.144-.1.16-.116.206-.172.208-.169.208.2M33.984,9.624v3.542H32.45l0-3.523c0-1.937,0-3.533,0-3.546a3.134,3.134,0,0,1,.771-.021l.763.007V9.624M13.739,7.6a.234.234,0,1,1-.3.34.235.235,0,0,1,.3-.34m-.2.078a.21.21,0,0,0-.062.186c.046.187.368.123.338-.069a.178.178,0,0,0-.276-.116m.2.04c.049.06.009.241-.044.2a.177.177,0,0,0-.095-.018c-.074.007-.1-.047-.069-.158.014-.056.166-.072.208-.021m5.826.322a23.81,23.81,0,0,1,0,2.476q-.025.115-.044.232c-.014.079-.03.169-.039.2a3.393,3.393,0,0,1-.123.384.075.075,0,0,0-.016.047,2.98,2.98,0,0,1-.568.929,2.921,2.921,0,0,1-1.031.67.074.074,0,0,0-.046.018,3.284,3.284,0,0,1-.667.16,5.617,5.617,0,0,1-1.075,0,3.989,3.989,0,0,1-.628-.141,2.816,2.816,0,0,1-1.446-1.089,2.89,2.89,0,0,1-.275-.54.082.082,0,0,0-.017-.049.468.468,0,0,1-.042-.111l-.044-.141c-.007-.028-.026-.1-.037-.155l-.044-.213a6.2,6.2,0,0,1,0-1.1c.012-.058.033-.153.044-.211a3.741,3.741,0,0,1,.468-1.145c.118-.183.044-.211.686.259.171.123.372.271.451.324.183.128.179.109.088.285a2.318,2.318,0,0,0-.183.492,3.6,3.6,0,0,0,0,.89,1.318,1.318,0,0,0,.693.948,1.481,1.481,0,0,0,.537.174,2.793,2.793,0,0,0,.684-.019,1.343,1.343,0,0,0,1.153-1.186c.014-.081.024-.484.024-1.235a5.072,5.072,0,0,1,.03-1.145,8.634,8.634,0,0,1,1.471,0m2.6,7.573c.006,1.325.032,1.183-.221,1.177l-.2-.007-.007-1.11c0-.61,0-1.121,0-1.135s.063-.026.216-.021l.2.007.007,1.089m11.884.04v1.13l-.2.007c-.28.007-.253.134-.253-1.135s-.025-1.145.25-1.137l.2.007v1.129M14.11,14.762c.255.123.079.552-.181.441a.236.236,0,0,1-.125-.352.217.217,0,0,1,.305-.088m6.841,0a.23.23,0,0,1,.086.345.221.221,0,0,1-.371.021.237.237,0,0,1,.285-.366m9.827,0a.236.236,0,0,1-.014.438.229.229,0,0,1-.315-.225.225.225,0,0,1,.329-.212m1.877.829a3.036,3.036,0,0,1,.361.672.4.4,0,0,1-.125.421c-.1.093-.13.095-.63.095h-.447V16.4l.368-.012c.2-.006.371-.014.374-.015.026-.017-.024-.109-.2-.366-.243-.371-.243-.35-.026-.493s.186-.141.32.081m-14.048-.123a.864.864,0,0,1,.584.8l.017.111H20.62l.012-.433.009-.433.2-.007c.169,0,.2,0,.222.03a7.024,7.024,0,0,1,0,1.223c-.028.037-6.635.067-6.713.03l-.075-.037c-.055-.028-.055-.03-.069.1a.67.67,0,0,1-.729.61c-.053,0-.077-.072-.077-.23,0-.186.014-.213.114-.213a.3.3,0,0,0,.215-.1c.037-.042.04-.079.046-.649.007-.7-.025-.628.272-.619l.18,0,.009.317c.007.253.016.326.042.356a16.17,16.17,0,0,0,2.746.056l1.723,0-.007-.09a.442.442,0,0,0-.383-.412,1.272,1.272,0,0,0-.421.032c-.086.044-.148-.317-.068-.387a1.329,1.329,0,0,1,.737-.051m7.962.039a.47.47,0,0,1,.139.783.524.524,0,0,0-.062.079s.767.007,1.7.007h1.7l0-.187a.634.634,0,0,1,1.188-.387,2.882,2.882,0,0,1,.042.978c-.044.016-4.179.025-4.547.012a1.032,1.032,0,0,1-.429-.058c-.111-.056-.148-.056-.227,0-.294.2-.374.468-.188.635.153.139.468.132.832-.018.062-.028.246.264.2.32a1.406,1.406,0,0,1-.489.211,1.063,1.063,0,0,1-.906-.213.765.765,0,0,1,.25-1.21c.107-.055.107-.059-.051-.249s-.162-.211-.093-.371a.77.77,0,0,1,.933-.329m-3.044,0c.329.1.431.318.431.917,0,.718-.146.909-.779,1.01-.32.051-.34.04-.332-.225l0-.187.169-.012c.239-.018.306-.034.387-.1.125-.1.1-.125-.132-.128a.49.49,0,0,1-.285-.049.678.678,0,0,1,.535-1.223m2.569.378c-.1.028-.095.044.009.172.164.2.19.2.273.058.116-.2-.016-.308-.282-.23m-2.852.033a.255.255,0,0,0,.188.468l.088-.024v-.122c0-.276-.111-.4-.276-.322m7.295.018c-.042.044-.049.072-.049.181,0,.2.072.269.285.269l.075,0v-.2c0-.172-.007-.209-.042-.253a.187.187,0,0,0-.269,0m-8.4,1.019c.033.034.033.238,0,.241-.014,0-.053,0-.085,0-.074,0-.119.042-.1.1.012.035.03.042.12.042.129,0,.169.033.169.142,0,.129-.025.141-.329.141-.338,0-.329,0-.329-.144,0-.109,0-.119.051-.13s.049-.026.049-.1A.29.29,0,0,1,22,16.93a.294.294,0,0,1,.144.024m11.9.007c.084.085.028.241-.083.234-.186-.009-.16.123.028.139l.116.009v.264l-.285,0c-.329.007-.341,0-.341-.134,0-.1.024-.144.079-.144.024,0,.03-.026.033-.109,0-.227.313-.408.454-.264m-15.493.162a.236.236,0,0,1-.282.373.22.22,0,0,1-.049-.364.207.207,0,0,1,.331-.009" transform="translate(-0.418 -0.335)" fill="#04bcc4" fill-rule="evenodd"/>
      <path data-name="Path 53905" d="M12.592,7.234l-.267.2c-.085.06-.211.151-.28.2s-.195.141-.278.2-.211.153-.28.2-.193.141-.279.2l-.278.2c-.069.05-.195.141-.281.2s-.192.138-.236.173-.489.355-.989.716-.91.658-.915.665a1.638,1.638,0,0,1-.139.1,1.622,1.622,0,0,0-.142.107.261.261,0,0,1-.078.044,1.621,1.621,0,0,0-.209.132c-.209.153-.345.252-.7.507-.176.128-.322.237-.329.241a1.638,1.638,0,0,1-.139.1c-.071.051-.134.095-.139.1s-.069.051-.139.1a1.486,1.486,0,0,0-.139.1q-.069.052-.141.1c-.069.049-.132.095-.139.1a1.638,1.638,0,0,1-.139.1,1.323,1.323,0,0,0-.139.1c-.007.007-.07.053-.139.1s-.134.095-.141.1a1.445,1.445,0,0,1-.139.1,1.5,1.5,0,0,0-.139.1,1.288,1.288,0,0,1-.13.1c-.426.3-.417.283-.224.417.078.055.178.129.222.162l.208.153c.072.049.188.132.26.185s.195.142.271.2l.271.2.259.186a1.47,1.47,0,0,1,.136.1c.007.007.07.053.139.1a1.573,1.573,0,0,1,.141.1c0,.007.068.053.136.1.181.128.269.193,1.337.968.525.383,1.017.739,1.091.792.157.114.359.257.552.4.273.2.419.3.518.373.053.039.114.083.13.1s.09.065.16.113q.931.686,1.872,1.358l.139.1V15.289c0-1.9,0-4.5.012-5.794a22.735,22.735,0,0,0-.014-2.347.508.508,0,0,0-.139.086M18.349,8.45q-.051.036-.1.075-.078.061-.16.116a1.486,1.486,0,0,0-.139.1q-.068.052-.139.1a1.445,1.445,0,0,0-.139.1c-.007,0-.069.051-.141.1s-.132.095-.139.1q-.068.052-.139.1c-.071.051-.134.095-.139.1s-.069.051-.139.1q-.071.047-.139.1a.74.74,0,0,1-.065.049c-.076.049-.069.074.033.142.049.03.146.1.216.151s.2.144.285.206l.3.215a1.827,1.827,0,0,0,.2.136c.033.017.181.116.329.223a2.4,2.4,0,0,0,.292.192,4.526,4.526,0,0,0,.03-.908c.009-1.751.021-1.592-.1-1.5M9.824,12.415c0,.012-.012.021-.028.021s-.03-.009-.03-.021.011-.021.03-.021.028.009.028.021m-1.193.2a.442.442,0,0,0,.021.195,1.124,1.124,0,0,0,.413.012c.1-.053,0-.181-.142-.2-.053,0-.093-.021-.093-.035,0-.046.063-.151.09-.151s.037.024,0,.053,0,.081.069.095a.191.191,0,0,1,.158.2l0,.09-.26,0c-.314.007-.314.009-.324-.22-.007-.165,0-.218.037-.218.012,0,.021.07.021.179m3.042.049c-.008.255-.044.267-.052.017-.007-.2,0-.264.037-.232a.622.622,0,0,1,.014.215m-1.147-.071c-.081.069-.081.081.012.09s.109.072.053.176a.211.211,0,0,1-.375.033c-.035-.056-.044-.192-.012-.192.009,0,.019.028.019.062,0,.2.31.243.324.046,0-.053,0-.06-.07-.065-.046,0-.074-.016-.074-.035a.186.186,0,0,1,.084-.15c.088-.036.107-.021.039.034m-2.076.26a.533.533,0,0,1-.4-.017c-.069-.058-.106-.257-.046-.257.023,0,.032.018.032.085,0,.119.046.16.19.172.165.014.209-.017.209-.148,0-.155.028-.155.035,0a.336.336,0,0,1-.017.164m.994-.037c.116.009.142-.018.142-.148,0-.157.037-.134.044.028.009.209.134.19.134-.021,0-.072.009-.095.033-.095s.028.026.028.118c0,.132.009.146.077.12.037-.014.044-.03.044-.128s.007-.111.03-.111c.042,0,.042.2,0,.257-.028.042-.044.044-.317.044s-.288,0-.336.05-.093.065-.093.03c0-.009.018-.028.042-.039s.04-.044.04-.181c0-.192.026-.234.039-.06l.009.129.088,0m1.427-.208a.279.279,0,0,1,.086.129l.026.083h.474V12.76a.148.148,0,0,0-.227-.111c-.077.039-.113,0-.044-.042a.23.23,0,0,1,.348.2l-.007.059-.408.005c-.407.007-.507,0-.428-.037a.535.535,0,0,1,.128-.016l.085,0-.007-.074c0-.065-.018-.083-.081-.119-.042-.023-.069-.048-.06-.055.024-.024.049-.016.116.035m.807.331a.136.136,0,0,1-.04.053c-.039.035-.039.035-.039,0a.062.062,0,0,1,.063-.065.016.016,0,0,1,.016.017m-2.7.433a.321.321,0,0,1,.125.452.22.22,0,0,1-.06.068c-.009,0,.009.034.042.077a.374.374,0,0,1,.068.125c.014.121.049.063.281-.463l.093-.209.042-.095h.477l.042.095c.024.053.065.144.091.2s.046.109.046.114.06.148.134.308c.051.113.033.136-.12.144l-.136,0,.014.056c.04.164.04.164-.025.164a.069.069,0,0,1-.079-.055q-.034-.088-.065-.176t-.06-.162c-.009-.021-.032-.083-.053-.139-.05-.132-.069-.132-.109-.007-.053.172-.158.466-.178.505s-.056.034-.394.034c-.431,0-.421,0-.435-.171-.012-.144-.049-.171-.227-.171H8.353l-.007.167,0,.166-.2.008c-.146,0-.2,0-.215-.021a9.724,9.724,0,0,1,0-1.051,4.274,4.274,0,0,1,1.051.033m1.763-.04a2.955,2.955,0,0,1-.234.431,2.126,2.126,0,0,1-.225-.429,1.532,1.532,0,0,1,.23-.009,1.767,1.767,0,0,1,.23.007m.941.519c.141.289.255.536.255.547a.624.624,0,0,1-.225.014l-.222-.007-.076-.2-.1-.253q-.035-.083-.063-.169c-.014-.044-.072-.012-.072.042a.217.217,0,0,1-.018.063.84.84,0,0,0-.049.125q-.06.187-.135.369a.879.879,0,0,1-.457.016.02.02,0,0,1,.019-.021,5.672,5.672,0,0,0,.442-1.005c.016-.042.028-.044.231-.044h.216l.253.526m-3.327-.208a.2.2,0,0,0-.009.1l.009.065H8.49c.139,0,.2-.033.2-.107s-.292-.141-.334-.06" transform="translate(-1.961 -2.925)" fill="#f25104" fill-rule="evenodd"/>
      <path data-name="Path 53906" d="M2.815.706C2.754.713,10.035.719,19,.719S35.233.713,35.168.706c-.152-.018-32.2-.018-32.354,0M2.506.745,2.464.763h.042A.12.12,0,0,0,2.575.745c.04-.026-.012-.026-.069,0m32.9,0a.228.228,0,0,0,.09.018c.044,0,.046,0,.009-.018a.285.285,0,0,0-.091-.017c-.044,0-.046,0-.009.016M2.337.786c-.042.026.009.026.069,0l.04-.018h-.04a.137.137,0,0,0-.069.018M35.6.786a.137.137,0,0,0,.058.019c.028,0,.028,0,0-.018A.117.117,0,0,0,35.6.765c-.028,0-.028,0,0,.021M2.238.821,2.159.849c-.026.012-.044.024-.037.028s.049-.007.1-.028C2.3.812,2.312.793,2.238.821m33.477,0a.119.119,0,0,0,.059.021c.026,0,.026,0,0-.021a.151.151,0,0,0-.059-.018c-.026,0-.026,0,0,.018m.1.028a1.229,1.229,0,0,0,.165.093,2.009,2.009,0,0,1,.94,1.066c.017.042.028.06.03.042a1.993,1.993,0,0,0-.415-.706c-.2-.213-.721-.575-.721-.493M1.957.951c-.287.16-.836.729-.771.795a.335.335,0,0,0,.076-.1A2.037,2.037,0,0,1,2.057.928a.043.043,0,0,0,.03-.021c.021-.033-.014-.021-.13.044M1.072,1.977a.08.08,0,0,0,0,.053s.017-.009.024-.032a.1.1,0,0,0,0-.056c-.007,0-.016.012-.023.034M1.031,2.1c-.007.023-.009.049,0,.053s.016-.009.023-.033a.089.089,0,0,0,0-.053c-.007-.007-.017.009-.026.032m35.918.021a.128.128,0,0,0,.021.06c.017.028.019.028.019,0a.151.151,0,0,0-.019-.06c-.018-.028-.021-.028-.021,0M.991,2.239a.133.133,0,0,0,0,.074s.016-.018.023-.053a.141.141,0,0,0,0-.074S1,2.2.991,2.239m36,.021a.285.285,0,0,0,.017.09c.016.037.016.037.016-.009a.273.273,0,0,0-.016-.091c-.017-.037-.017-.037-.017.009m-36.036.2a.65.65,0,0,0-.012.132c0,.053,0,.049.019-.028a.536.536,0,0,0,.014-.132c0-.028-.012-.018-.021.028m36.076,7.865c0,4.329.009,7.834.018,7.79.021-.1.018-15.546,0-15.613-.009-.028-.016,3.493-.016,7.823M33.261,2.76a.981.981,0,0,0,.253.014.96.96,0,0,0,.253-.014,1.549,1.549,0,0,0-.253-.014,1.505,1.505,0,0,0-.252.014m-.2.039-.078.028c-.095.037-.028.035.078,0,.06-.021.091-.037.07-.037a.208.208,0,0,0-.07.012m.807,0c.06.026.109.026.069,0a.142.142,0,0,0-.069-.018l-.04,0,.04.016M34,2.846a.138.138,0,0,0,.06.018c.026,0,.026,0,0-.018A.134.134,0,0,0,34,2.825c-.027,0-.027,0,0,.021m-1.253.1c-.19.119-.537.493-.5.536,0,0,.04-.037.077-.095a1.34,1.34,0,0,1,.537-.485c.037-.018.056-.035.04-.035a.539.539,0,0,0-.158.079m1.362-.06a.047.047,0,0,0,.035.021,1.65,1.65,0,0,1,.343.238l.081.074L34.5,3.14c-.1-.113-.438-.333-.389-.255m.23.651c-.262.378-.237.359-.343.246a.667.667,0,0,0-.3-.19c-.014,0,.018.024.074.049a.8.8,0,0,1,.2.151c.123.13.12.132.238-.039.056-.079.119-.167.141-.2a1.891,1.891,0,0,0,.2-.315q-.113.144-.215.3m-.922.051a1.352,1.352,0,0,0,.139,0c.042,0,.014-.009-.062-.009s-.111,0-.076.009m-.222.046A.435.435,0,0,0,33,3.8c-.03.044-.018.037.044-.025a.635.635,0,0,1,.172-.128.4.4,0,0,0,.088-.049c0-.017-.03-.009-.109.032m-1.051.128a.217.217,0,0,0-.015.079c0,.042,0,.042.021,0a.186.186,0,0,0,.014-.081c0-.026-.009-.026-.021.007m-.028.336c0,.093,0,.132.007.085a1.18,1.18,0,0,0,0-.171c0-.049-.007-.009-.007.086m.8.018c0,.063,0,.089.007.056a.447.447,0,0,0,0-.111c0-.03-.007,0-.007.056m.014.162a.158.158,0,0,0,.018.06c.019.028.019.028.019,0a.122.122,0,0,0-.019-.06c-.016-.026-.018-.026-.018,0m-.795.091a.233.233,0,0,0,.017.081l.018.042V4.449a.272.272,0,0,0-.018-.081l-.017-.04v.04m.874.067c.046.072.192.181.213.16.006-.007-.005-.019-.026-.028a.612.612,0,0,1-.136-.1c-.086-.083-.093-.086-.051-.028m-.827.139.014.065-.227.007-.225,0,0,.391a1.5,1.5,0,0,0,.017.419c.032.037,2.784.042,2.821,0a4.068,4.068,0,0,0,.012-.792c-.009-.028-.079-.032-.591-.028l-.581,0,.572.007.572,0V5.45H31.77V4.662h.218c.234,0,.269-.021.2-.123-.016-.021-.018-.014-.009.034m1.086.046a.117.117,0,0,0,.058.021c.028,0,.028,0,0-.021a.141.141,0,0,0-.058-.018c-.028,0-.028,0,0,.018m-12.059.068c0,.023-.007,1.489,0,3.255l0,3.208,0-3.234,0-3.236.723.007.722,0,.019,6.115.007-3.072c0-2.784,0-3.072-.027-3.083s-.348-.012-.737-.012h-.7l-.012.047M13.55,7.567c0,.012.035.021.079.021.086,0,.178.068.178.13,0,.018.009.032.021.032.044,0,.016-.069-.053-.135s-.225-.1-.225-.049m-.095.072c-.178.195.128.466.32.285.071-.065.092-.113.053-.113a.021.021,0,0,0-.021.02c0,.109-.22.16-.308.072a.2.2,0,0,1-.009-.255c.039-.028.053-.06.026-.058a.175.175,0,0,0-.06.049m.074.13c0,.111,0,.113.06.077a.062.062,0,0,1,.078,0,.268.268,0,0,0,.047.026.581.581,0,0,0,.009-.1l0-.1h-.2v.1m.148-.042c.014.025-.042.069-.067.053a.038.038,0,0,1,.016-.072.068.068,0,0,1,.051.019m14.694.219a1.237,1.237,0,0,0,.148,0c.042,0,.009-.009-.074-.009s-.116,0-.074.009m-.423.026c-.021.014,0,.016.081.007a.575.575,0,0,0,.119-.021c.018-.018-.172,0-.2.014m.817-.014a.469.469,0,0,0,.109.021c.067.007.086,0,.06-.007s-.186-.03-.17-.014M18.084,8c-.007.007-.012.51-.009,1.117l0,1.1.007-1.078a9.384,9.384,0,0,1,.028-1.1,2.566,2.566,0,0,1,.72-.023l.7,0,.009,1.031.012,1.028,0-1.012c0-.556,0-1.026-.007-1.044A11.091,11.091,0,0,0,18.084,8m9.665.007c-.04.026.032.026.09,0,.037-.016.035-.016-.009-.018a.168.168,0,0,0-.081.018m1.3,0c.06.026.13.026.09,0a.158.158,0,0,0-.079-.018c-.046,0-.046,0-.012.018m-1.443.042c-.026.017-.026.019,0,.019a.151.151,0,0,0,.06-.019c.025-.018.025-.021,0-.021a.126.126,0,0,0-.06.021m1.6,0c.06.026.109.026.07,0a.116.116,0,0,0-.07-.018h-.039l.039.018M27.433,8.1c-.1.047-.062.053.049.009.053-.021.079-.039.058-.039a.361.361,0,0,0-.107.03m1.91-.012a.115.115,0,0,0,.059.019c.026,0,.026,0,0-.018a.126.126,0,0,0-.059-.021c-.026,0-.026,0,0,.021m-15.371.06a.289.289,0,0,0-.044.07.483.483,0,0,1-.056.1,2.319,2.319,0,0,0-.218.449.644.644,0,0,0,.083-.148,2.84,2.84,0,0,1,.281-.491c.021-.018.044-.009.114.04l.225.164c.076.053.2.146.278.2s.2.146.281.2.164.123.2.151l.06.049-.065.136a.448.448,0,0,0-.056.144,1.427,1.427,0,0,0,.146-.278.421.421,0,0,0-.116-.1c-.067-.049-.183-.135-.259-.188s-.22-.162-.32-.234l-.31-.227c-.151-.111-.16-.111-.219-.035m15.536,0c.042.024.081.037.086.03a.353.353,0,0,0-.151-.072c-.007,0,.024.018.065.042M27.072,8.3a2.483,2.483,0,0,0-.639.644,2.343,2.343,0,0,0-.271.569c0,.012.023-.023.044-.076a2.307,2.307,0,0,1,.938-1.159c.074-.044.128-.081.116-.081a1.29,1.29,0,0,0-.187.1m2.657-.037a2.7,2.7,0,0,1,.48.362,2.388,2.388,0,0,1,.537.766c.037.081.069.136.069.121a1.739,1.739,0,0,0-.183-.38.566.566,0,0,1-.056-.1,2.767,2.767,0,0,0-.788-.757c-.074-.042-.123-.053-.06-.014M13.58,8.941a.073.073,0,0,0,0,.053s.017-.009.024-.033a.1.1,0,0,0,0-.056c-.007,0-.016.012-.023.035m-.042.12c-.007.023-.009.049,0,.053s.016-.009.023-.033a.1.1,0,0,0,0-.053c-.007-.007-.017.009-.026.033M13.5,9.2a.141.141,0,0,0,0,.074s.014-.018.024-.053.009-.069,0-.074-.016.018-.023.053m-.034.148a.208.208,0,0,0-.014.072c0,.021.009.016.021-.016a.119.119,0,0,0,.012-.069c0-.012-.012,0-.018.014m1.51.046a.123.123,0,0,0,0,.063c.007,0,.016-.014.026-.044a.123.123,0,0,0,0-.062c0-.007-.017.014-.024.044m13.406.042a.677.677,0,0,0,.139,0c.042,0,.014-.007-.065-.007s-.109,0-.074.007m-.234.026-.049.017.049,0a.145.145,0,0,0,.081-.019c.037-.023,0-.023-.081,0m.568,0a.2.2,0,0,0,.081.019h.04l-.04-.019a.253.253,0,0,0-.081-.016h-.04l.04.016m-13.782.081a.192.192,0,0,0,0,.074c.007,0,.017-.018.026-.053a.129.129,0,0,0,0-.074s-.016.018-.023.053m13.059-.028c-.037.017-.063.035-.058.042a.2.2,0,0,0,.088-.03c.088-.049.067-.056-.03-.012m.873-.012a.139.139,0,0,0,.06.019c.025,0,.025,0,0-.018a.134.134,0,0,0-.06-.021c-.027,0-.027,0,0,.021m-15.44.06a.385.385,0,0,0-.014.1c0,.042,0,.04.021-.018a.3.3,0,0,0,.014-.1c0-.025-.012-.018-.021.016m15.567-.014a1.022,1.022,0,0,1,.391.442c.021.046.033.062.026.034-.042-.176-.333-.509-.44-.5-.007,0,0,.012.024.026m-2.864.007a.1.1,0,0,0-.012.055c0,.04,0,.037.021-.007s.014-.072-.009-.049m4.687.007a.123.123,0,0,0,.021.06c.016.028.018.028.018,0a.151.151,0,0,0-.018-.06c-.019-.028-.021-.028-.021,0m-3.072.128c-.116.116-.206.25-.186.271,0,0,.025-.026.049-.069a.967.967,0,0,1,.172-.2c.071-.069.122-.125.111-.125a.841.841,0,0,0-.146.127m-1.655,0a.183.183,0,0,0-.011.069c0,.021.007.017.021-.016a.14.14,0,0,0,.012-.069c0-.012-.014,0-.021.016m4.767-.009a.241.241,0,0,0,.018.072l.016.04,0-.04a.144.144,0,0,0-.018-.071c-.017-.026-.019-.026-.019,0M14.9,9.77a2.693,2.693,0,0,0,0,.519,1,1,0,0,0,.014-.267c0-.345,0-.342-.018-.252m-7.872.065a.974.974,0,0,0,0,.176l.007.151,0-.164c0-.111.012-.169.028-.176s.021-.009,0-.012a.047.047,0,0,0-.037.026m.3-.007c-.007.012,0,.014.024.007s.027-.007.016.014-.007.021.007.012a.045.045,0,0,0,.024-.033c0-.025-.053-.025-.07,0m2.748,0a1.306,1.306,0,0,0,.021.406,1.084,1.084,0,0,0,.012-.417c-.014-.014-.024-.009-.033.012m15.977,0a.313.313,0,0,0-.014.081c0,.042,0,.042.021,0a.161.161,0,0,0,.014-.081c0-.026-.009-.026-.021,0M30.9,9.828a.342.342,0,0,0,.016.081l.017.051,0-.051a.168.168,0,0,0-.019-.081c-.016-.026-.018-.026-.016,0m-20.8.308c0,.058-.007.011-.007-.107s0-.165.007-.1a1.559,1.559,0,0,1,0,.211m3.3-.014c0,.132,0,.183.007.113a2.038,2.038,0,0,0,0-.241c0-.065-.007-.007-.007.128m-6.975-.1,0,.077.014-.072.014-.069.012.069.009.072,0-.077c0-.055,0-.074-.026-.074s-.03.018-.028.074m.955-.058-.052.016.053.009c.03.007.051,0,.046,0s0-.018.014-.026c.037-.014-.007-.012-.063,0m.834.088c0,.063,0,.107.007.1a.232.232,0,0,0,.009-.114l0-.1-.012.116m.044.009a.343.343,0,0,0,.012.135c.009,0,.014-.033.009-.084-.009-.162-.019-.181-.021-.051m.183,0c0,.068,0,.093.007.056a.523.523,0,0,0,0-.12c0-.03-.007,0-.007.065m17.569,0a.172.172,0,0,0,0,.083s.017-.024.024-.063a.219.219,0,0,0,0-.083c-.007-.007-.016.021-.023.062m1.5-.021c-.028.074-.049.164-.034.153a.631.631,0,0,0,.065-.2c-.005,0-.019.016-.031.046m3.438.063a.5.5,0,0,0,.021.109c.017.018,0-.132-.014-.169s-.014-.007-.007.06M8.928,10.06A.3.3,0,0,0,9,10.074c.037,0,.063,0,.058-.007s-.128-.024-.128-.007m.419.086c0,.037-.014.046-.095.051l-.095.009.095,0c.1,0,.132-.021.107-.081,0-.014-.009-.007-.012.018m20.075-.014a.219.219,0,0,0,.018.07l.016.042,0-.042a.142.142,0,0,0-.018-.07c-.017-.028-.019-.028-.019,0M7.811,10.2a.167.167,0,0,0,.093.009l.079-.007-.095-.009c-.052,0-.086,0-.077.007m1.729.009c.069,0,.18,0,.25,0S9.8,10.2,9.665,10.2s-.193,0-.125.009m17.9.065a.17.17,0,0,0,0,.074c.007,0,.017-.019.026-.053s.009-.069,0-.074-.016.018-.023.053m-1.473.046a.356.356,0,0,0,0,.118c0,.016.016-.021.023-.081a.276.276,0,0,0,0-.116c0-.007-.017.03-.024.079m-6.44-.017q0,.071-.014.142c-.009.069-.007.074.012.03a.359.359,0,0,0,.014-.141c0-.056-.009-.067-.012-.03m-9.458,0a.063.063,0,0,0-.023.053c0,.04,0,.04.039,0,.058-.053.051-.083-.016-.058m7.972.077a.169.169,0,0,0,0,.085c0,.007.016-.021.023-.063a.157.157,0,0,0,0-.085s-.017.023-.024.062m11.43.216c0,.183,0,.261.014.211a1.814,1.814,0,0,0,0-.454.769.769,0,0,0-.014.243M8.782,10.358c.012.018.09.018.12,0,.014-.009-.007-.014-.053-.014s-.071.007-.067.016m22.2.167c0,.088,0,.123.007.074a.919.919,0,0,0,0-.16c0-.042-.007,0-.007.086m-16.056-.071a.294.294,0,0,0,.016.093c.016.034.018.034.018-.012a.285.285,0,0,0-.018-.09c-.014-.037-.016-.037-.016.009m12.483,1.321a9.747,9.747,0,0,1-.026,1.332c-.014,0-.009.009.012.012s.034-.074.034-1.333c0-.732,0-1.332-.012-1.332q-.013.66-.009,1.321m-14-1.21a.42.42,0,0,0,.016.123l.016.039,0-.039a1.131,1.131,0,0,0-.016-.123l-.018-.081v.081M18,10.541c-.024.063-.018.114.007.07a.118.118,0,0,0,.014-.072c-.007-.033-.007-.03-.021,0m1.469.123a.169.169,0,0,0,0,.085c0,.007.016-.023.023-.062a.159.159,0,0,0,0-.086s-.017.024-.024.063m-1.57.16a1.33,1.33,0,0,1-.357.467c-.116.091-.123.114-.009.033.178-.125.482-.563.45-.649a.533.533,0,0,0-.083.148m8.033.315c0,.35-.007.466-.025.472s-.009.012.012.012.034-.035.034-.473a4.566,4.566,0,0,0-.012-.474s-.009.208-.009.463M6.368,10.722c0,.014-.007.253,0,.531l0,.5.012-.528c.009-.519.009-.558-.012-.505M15,10.731a1.5,1.5,0,0,0,.858.811c.016,0,.007-.012-.021-.023l-.139-.062a1.316,1.316,0,0,1-.609-.588c-.069-.144-.088-.172-.088-.136m-1.552.085a.192.192,0,0,0,.019.081c.025.04.025-.03,0-.09-.017-.037-.017-.037-.019.009m5.984.042a.089.089,0,0,0,0,.053c.007,0,.017-.009.026-.035s.009-.046,0-.053-.016.009-.023.035m11.516.1a.387.387,0,0,0-.007.119c.014.014.037-.123.028-.179,0-.03-.012-.007-.021.06m-1.515-.009a.243.243,0,0,0-.012.07c0,.021.008.016.021-.017a.146.146,0,0,0,.012-.069c0-.012-.012,0-.021.016m-6.741.024a.232.232,0,0,0,.017.078l.018.042v-.042a.243.243,0,0,0-.018-.079l-.017-.042v.042m-9.2.019a.166.166,0,0,0,.019.071c.016.026.021.024.021-.011a.144.144,0,0,0-.021-.069c-.014-.025-.018-.023-.018.009m5.9.023a.111.111,0,0,0,0,.062c0,.007.016-.014.023-.044a.128.128,0,0,0,0-.062c-.007-.007-.017.014-.025.044m-12.282.007a.092.092,0,0,1-.012.13c-.034.042-.034.042.012,0s.056-.1.009-.135c-.03-.023-.032-.023-.009,0m6.419.116a.066.066,0,0,0,.018.056c.024.016.024,0,0-.06-.018-.039-.018-.039-.018,0m17.374.062a.146.146,0,0,0,0,.079c.014.014.037-.088.028-.12,0-.014-.017,0-.026.042m-1.582.033a1.018,1.018,0,0,1-.241.238l-.049.037.06-.03c.093-.044.332-.315.281-.315a.312.312,0,0,0-.051.069m-15.753.012a.514.514,0,0,0,.037.111c.021.044.037.067.037.051a.4.4,0,0,0-.037-.111c-.018-.044-.037-.067-.037-.051m5.743.021a.083.083,0,0,0,0,.053s.016-.009.024-.033a.107.107,0,0,0,0-.056c-.007,0-.016.012-.025.035m3.456-.03c0,.107.352.382.445.348.012-.007,0-.017-.037-.026a.578.578,0,0,1-.35-.257c-.035-.067-.058-.095-.058-.065m-1.55.13a.2.2,0,0,0,.016.1c.024.037.024-.016,0-.111l-.014-.06,0,.07m9.649-.012a.256.256,0,0,0-.012.069c0,.024.007.019.021-.014a.155.155,0,0,0,.012-.069c0-.012-.012,0-.021.014M19.224,11.5a2.749,2.749,0,0,1-1.182,1.265c-.021.007-.032.018-.025.026s.058-.016.114-.051.107-.063.109-.063a2.658,2.658,0,0,0,.688-.632,2.918,2.918,0,0,0,.374-.681c0-.012-.037.051-.077.136m-1.916-.06c-.053.028-.09.056-.085.06a.685.685,0,0,0,.211-.107c0-.016-.025-.007-.125.046m-10.437,0a.6.6,0,0,0,.13,0c.037,0,.007-.009-.065-.009s-.1,0-.065.009m6.778.017a2.85,2.85,0,0,0,1.066,1.22c.119.07.06.019-.12-.1a2.934,2.934,0,0,1-.874-1.015c-.051-.1-.071-.136-.071-.1m17.161.09a.244.244,0,0,0-.026.1c.012.012.071-.141.065-.164s-.021.021-.04.067m-24.032.083c-.007.086,0,.148,0,.142a.415.415,0,0,0,.009-.158l0-.139-.009.155m10.334-.1c-.025.018-.025.021,0,.021a.118.118,0,0,0,.06-.021c.027-.016.027-.018,0-.018a.129.129,0,0,0-.06.018m-8.488.035a.673.673,0,0,0,.129,0c.035,0,.007-.007-.065-.007s-.1,0-.064.007m7.3.007c.06.026.109.026.069,0a.12.12,0,0,0-.069-.018H15.89l.039.018m1.045,0c-.04.026.012.026.069,0l.042-.018h-.042a.12.12,0,0,0-.069.018m11.879,0c-.014.024.008.024.06,0s.04-.018,0-.021a.077.077,0,0,0-.058.021m-21.692.06c0,.037,0,.053.009.034a.187.187,0,0,0,0-.071c0-.019-.009,0-.009.037m14.1-.03a.176.176,0,0,0,.018.069c.026.04.026-.009,0-.069l-.016-.042,0,.042m-5.149.009a.32.32,0,0,0,.1.016c.058,0,.06,0,.012-.016-.075-.024-.165-.024-.111,0m.637,0c-.051.023.03.023.12,0l.06-.017h-.07a.364.364,0,0,0-.111.017m6.553,0a.348.348,0,0,0,.109.016c.063,0,.065,0,.021-.016-.071-.024-.183-.024-.129,0m5.416,0-.04.016.04,0a.137.137,0,0,0,.069-.018c.039-.026-.009-.026-.069,0m-.489.107c-.049.046-.16.144-.246.215s-.2.174-.255.222-.1.09-.157.132c-.111.079-.111.081.285.427.063.053.2.168.294.254a1.528,1.528,0,0,0,.2.155c.009,0,0-.012-.017-.026s-.088-.074-.454-.4q-.137-.117-.271-.237c-.088-.074-.095-.088-.07-.113q.388-.341.783-.674c.033-.025.047-.044.031-.044a.409.409,0,0,0-.119.085M30.7,11.8a2.289,2.289,0,0,1-1.212,1.126c-.021.007-.03.019-.025.026a2.158,2.158,0,0,0,1.3-1.258.337.337,0,0,0-.065.107M21.3,11.737a.14.14,0,0,0,.017.07c.028.039.028-.009,0-.07L21.3,11.7v.042m.116.322a2.03,2.03,0,0,0,.542.651,1.147,1.147,0,0,0,.289.158s-.037-.033-.095-.063a1.724,1.724,0,0,1-.644-.621c-.069-.123-.093-.153-.093-.125m-6.252.838a.151.151,0,0,0,.06.019c.026,0,.026,0,0-.019a.126.126,0,0,0-.06-.021c-.026,0-.026,0,0,.021m7.109-.012a.422.422,0,0,0,.167.07c.011,0-.014-.018-.058-.039-.083-.04-.109-.046-.109-.03m-6.871.09a.125.125,0,0,0,.06.021c.026,0,.026,0,0-.021a.151.151,0,0,0-.06-.018c-.026,0-.026,0,0,.018m2.1,0L17.463,13H17.5a.116.116,0,0,0,.069-.019c.04-.026-.009-.026-.069,0m4.99,0A.115.115,0,0,0,22.55,13c.028,0,.028,0,0-.021a.141.141,0,0,0-.058-.018c-.028,0-.028,0,0,.018m6.871,0c-.028.019-.028.021,0,.021a.115.115,0,0,0,.058-.021c.028-.016.028-.018,0-.018a.141.141,0,0,0-.058.018m-13.822.042a.138.138,0,0,0,.069.019l.042,0-.042-.016c-.058-.026-.109-.026-.069,0m1.814,0c-.039.026.009.026.069,0l.04-.019h-.04a.132.132,0,0,0-.069.019m5.268,0c.058.026.109.026.069,0A.142.142,0,0,0,22.622,13H22.58l.042.019m6.612,0-.04.016.04,0a.144.144,0,0,0,.069-.018c.039-.026-.012-.026-.069,0m-13.5.039a.273.273,0,0,0,.09.018l.049,0-.049-.016a.356.356,0,0,0-.09-.016h-.039l.039.016m1.424,0-.051.016h.051a.373.373,0,0,0,.1-.016l.049-.016h-.049a.373.373,0,0,0-.1.016m5.646,0a.243.243,0,0,0,.079.018h.041l-.042-.018a.239.239,0,0,0-.079-.016h-.04l.04.016m6.273,0-.039.018h.039a.12.12,0,0,0,.069-.018c.04-.025-.009-.025-.069,0m-13.1.042a.557.557,0,0,0,.151.017l.109,0-.09-.017c-.125-.023-.222-.021-.17,0m.858,0c-.077.014-.077.014.03.014a.56.56,0,0,0,.158-.014c.067-.021-.069-.021-.187,0m6.213,0a.634.634,0,0,0,.248.014.983.983,0,0,0-.148-.018c-.09-.009-.125-.007-.1,0m5.787,0c-.049.017-.049.017.009.017a.32.32,0,0,0,.1-.017c.053-.023-.037-.023-.109,0m-6.718,2.5.007,1.112-.19-.007c-.121,0-.188,0-.184.014a.99.99,0,0,0,.348.021l.044-.012V15.61c0-.617-.007-1.119-.016-1.119s-.012.5-.009,1.112m11.5,0c0,1.075,0,1.11.037,1.13a.736.736,0,0,0,.357,0c.028-.025.037-2.236.009-2.236-.009,0-.012.5-.009,1.11l0,1.112-.186,0-.183-.007-.007-1.088a7.51,7.51,0,0,1,.021-1.105c.018-.012.016-.016-.009-.016s-.034.067-.034,1.11M14,14.73a.193.193,0,0,1,.172.111c.02.034.037.051.037.032,0-.074-.088-.144-.19-.15s-.093-.007-.019.007m6.73,0a.231.231,0,0,0-.107.146c0,.014.016,0,.037-.037.046-.079.069-.093.171-.109l.078-.014-.069,0a.376.376,0,0,0-.111.016m9.838,0a.221.221,0,0,0-.107.146c0,.014.016,0,.037-.037.047-.079.07-.093.172-.109l.078-.014-.069,0a.376.376,0,0,0-.111.016M13.818,14.8c-.053.07-.069.2-.03.225.014.009.016-.005.009-.04a.208.208,0,0,1,.063-.2c.03-.028.044-.051.03-.051s-.044.033-.071.069m7.144-.018a.2.2,0,0,1,.065.2c-.007.034,0,.049.009.039.06-.039-.028-.294-.1-.294-.012,0,0,.024.03.051m9.838,0a.2.2,0,0,1-.13.355c-.071,0-.079,0-.046.023.1.06.271-.081.271-.23,0-.065-.083-.2-.125-.2-.012,0,0,.024.03.051m-16.638.257a.221.221,0,0,1-.055.071c-.024.021-.025.026,0,.021s.111-.111.095-.128-.024.007-.037.035m6.456-.033c0,.033.077.13.1.13s0-.017-.018-.037a.3.3,0,0,1-.063-.074c-.014-.023-.023-.03-.023-.018m9.838,0c0,.033.077.13.1.13s0-.017-.019-.037a.382.382,0,0,1-.065-.074c-.012-.023-.021-.03-.021-.018m-16.651.058c0,.058.176.128.231.095.033-.018.026-.024-.044-.024a.226.226,0,0,1-.134-.042c-.028-.023-.053-.037-.053-.03m7.153.032a.221.221,0,0,1-.129.04c-.07,0-.077,0-.044.023a.225.225,0,0,0,.206-.058c.044-.044.021-.049-.033,0m11.372.387a.873.873,0,0,0-.162.12.7.7,0,0,0,.162-.095c.192-.13.16-.144.324.132a1.343,1.343,0,0,0,.144.213c.007,0-.016-.049-.049-.1a.628.628,0,0,1-.065-.107,1.528,1.528,0,0,0-.178-.273,1.834,1.834,0,0,0-.176.107m-14.3-.046c-.04.027.03.027.09,0,.035-.014.035-.017-.012-.019a.2.2,0,0,0-.078.019m.447,0a.226.226,0,0,0,.09.018c.046,0,.046,0,.009-.018a.259.259,0,0,0-.088-.017c-.046,0-.046,0-.012.017m7.719,0c-.055.012-.042.014.068.017a.434.434,0,0,0,.129,0,.374.374,0,0,0-.2-.012m4.42,0c-.056.012-.044.014.055.017a.455.455,0,0,0,.125,0c0-.016-.113-.023-.18-.012m-12.741.044a.767.767,0,0,0,0,.356c.014.024.028.025.063.007s.046-.024-.009-.024l-.056,0,.007-.155c0-.144.009-.16.056-.183s.046-.025.009-.025a.1.1,0,0,0-.065.025m2.778.012c-.028.03-.033.1-.037.449l-.007.412h-.7c-.4,0-.709-.009-.713-.018a.386.386,0,0,1-.028-.082l-.014-.062,0,.074a.146.146,0,0,0,.023.093,12.307,12.307,0,0,0,1.464,0,1.425,1.425,0,0,0,.025-.442V15.5h.359v1.21l-.334,0c-4.978,0-6.334.009-6.326.024.018.03,6.625.018,6.665-.012s.034-.079.034-.619c0-.69.014-.644-.222-.646-.12,0-.157.007-.183.037m2.523-.021c-.012.007.06.014.164.014s.169,0,.151-.014a.9.9,0,0,0-.315,0m2.768.028a.712.712,0,0,0-.276.241c-.049.095-.035.093.028,0a.7.7,0,0,1,.331-.248c.046-.016.063-.03.04-.03a.378.378,0,0,0-.123.042m.621.007a.693.693,0,0,1,.164.125c.034.04.065.063.065.052a.631.631,0,0,0-.3-.227c-.014,0,.018.023.074.051m3.822-.007c-.13.067-.32.294-.283.332.007.007.028-.024.046-.063a.6.6,0,0,1,.276-.264c.056-.026.088-.046.072-.046a.378.378,0,0,0-.111.042m.558,0a.468.468,0,0,1,.227.213c.046.081.058.069.014-.017a.566.566,0,0,0-.305-.246c-.018,0,.009.023.065.049m-12.179.028a.775.775,0,0,1,.269.313c.079.16.095.153.021-.012-.049-.109-.264-.338-.314-.336-.014,0,0,.016.025.035m4.221.021a.562.562,0,0,0-.195.2c-.049.085-.009.065.049-.03a.588.588,0,0,1,.167-.162c.06-.037.1-.067.088-.067a.461.461,0,0,0-.109.056m.621-.017a.606.606,0,0,1,.135.1c.034.035.062.056.062.044a.476.476,0,0,0-.243-.186c-.014,0,.007.018.046.039m-9.819.581c0,.279-.007.547-.014.6s0,.09,0,.081a10.754,10.754,0,0,0,.023-1.184,4.754,4.754,0,0,0-.014.5m.394-.294q.013.567.021.1a1.658,1.658,0,0,0-.012-.308.643.643,0,0,0-.009.206m17.988-.181c0,.007.09.151.2.317a2.16,2.16,0,0,0,.2.285c0-.016-.359-.574-.39-.6,0-.007-.009,0-.009,0m-5.377.095a.365.365,0,0,0,.019.072l.018.04v-.04a.144.144,0,0,0-.018-.071c-.017-.026-.019-.026-.019,0m-8.724.059c-.028.008.042.014.16.014s.187-.007.16-.016a.926.926,0,0,0-.32,0m8.039,0c-.024.009.018.016.1.014.111,0,.148.007.183.037s.042.028.042.016c0-.062-.222-.109-.326-.067m4.524.016a.18.18,0,0,0,.079,0c.018,0,0-.009-.044-.009s-.06,0-.034.009m.584,0c0,.053.035.1.037.053a.086.086,0,0,0-.018-.056c-.012-.007-.021-.007-.019,0m-12.676.072a.421.421,0,0,1,.151.179c.033.06.056.1.056.083a.457.457,0,0,0-.2-.282c-.109-.067-.113-.051-.007.021m4.677-.044c-.014.024.007.024.06,0s.039-.018,0-.018a.069.069,0,0,0-.058.018m.153.007a.47.47,0,0,1,.09.051c.018.014.012,0-.018-.025a.168.168,0,0,0-.09-.051c-.024,0-.017.009.018.026m2.616,0c-.037.028-.037.03.014.1a1.125,1.125,0,0,0,.264.273c.044,0,.19-.19.164-.215-.007-.007-.021.009-.03.037a.418.418,0,0,1-.081.107l-.063.06-.069-.069a1.44,1.44,0,0,1-.139-.164l-.068-.093.044-.032c.024-.017.036-.03.024-.033a.165.165,0,0,0-.06.028m4.515.018a.157.157,0,0,0-.042.077c0,.018.007.014.021-.012a.392.392,0,0,1,.065-.077c.023-.018.032-.034.021-.034a.148.148,0,0,0-.065.046m.3.016c.026.04.051.065.053.053s-.016-.044-.046-.071l-.053-.053.046.071m-.725.009a.12.12,0,0,0-.014.067l0,.053.018-.049c.021-.053.017-.095-.007-.071m2.807.129a.517.517,0,0,0,.079.134.964.964,0,0,0-.13-.264c-.009,0,.014.053.052.13m-8.993-.069a.489.489,0,0,0,.016.1l.017.06,0-.069a.228.228,0,0,0-.018-.1c-.017-.023-.019-.023-.017.012m2.912.021a.682.682,0,0,1-.148.276.47.47,0,0,0-.079.111c0,.009.792.018,1.763.018l1.763,0,0-.044a.37.37,0,0,0-.021-.095c-.014-.042-.016-.04-.009.023,0,.046,0,.079-.014.083s-3.431,0-3.459,0c0,0,.019-.033.051-.07.114-.12.213-.317.181-.352-.007,0-.018.016-.025.046m-3.7.009a.089.089,0,0,0,0,.053c.007,0,.016-.009.023-.034a.073.073,0,0,0,0-.053s-.017.009-.024.034m.39-.021a.155.155,0,0,0,.018.06c.019.028.019.028.019,0a.122.122,0,0,0-.019-.06c-.016-.028-.018-.028-.018,0M22.7,16a1.064,1.064,0,0,0,0,.336c.007.021.014-.055.014-.166,0-.218,0-.218-.018-.17m8.553.336,0,.378-.681,0-2.414,0c-.955,0-1.707.009-1.675.016.167.037,4.744.018,4.776-.018a2.047,2.047,0,0,0,.014-.681c-.009-.053-.016.042-.018.3M25.6,15.99a1.185,1.185,0,0,0,.13.172c.157.187.164.2.116.236-.021.016-.028.03-.017.03.1,0,.095-.058-.023-.2-.192-.238-.206-.252-.206-.236m4.844.095c0,.063,0,.086.009.056a.447.447,0,0,0,0-.111c0-.03-.009,0-.009.055m.41.081-.007.192-.129,0c-.091,0-.121,0-.1.014.136.093.28.007.278-.164,0-.216-.032-.239-.042-.037m-11.745-.141a.541.541,0,0,0,.019.081l.016.051v-.051a.168.168,0,0,0-.016-.081c-.019-.025-.019-.025-.019,0m3.982.176a.21.21,0,0,0,.192.185c.021,0,.012-.009-.023-.023a.184.184,0,0,1-.139-.125c-.016-.033-.028-.052-.03-.037m-4.337.055a.252.252,0,0,1-.012.086c-.014.021-.493.024-2.217.018l-2.2-.009-.06-.058c-.032-.03-.055-.044-.05-.028.034.116-.095.109,2.335.119,2.462.007,2.273.018,2.226-.123l-.024-.065.005.06m11.705-.027c0,.034.079.12.109.118.012,0,0-.016-.024-.035a.382.382,0,0,1-.065-.074c-.016-.032-.021-.032-.021-.009m2.52.049a.381.381,0,0,1-.187.394c-.042.021-.06.039-.042.039.143,0,.319-.355.236-.484-.014-.021-.017-.007-.007.051m-9.542.081c-.079.03-.079.03-.012.019a.193.193,0,0,0,.091-.03c.023-.024.021-.024-.079.012m9.032-.009a3.63,3.63,0,0,1-.372.018,1.272,1.272,0,0,0-.285.016,3.526,3.526,0,0,0,.738-.03c.014-.014.021-.026.017-.024s-.049.009-.1.019M22.73,16.4c0,.093.246.317.343.313.014,0-.021-.023-.077-.049-.095-.044-.227-.174-.227-.227a.047.047,0,0,0-.021-.037c-.009-.007-.018-.007-.018,0m2.968.081a1.291,1.291,0,0,0-.3.32c0,.014.012.007.025-.017a1.21,1.21,0,0,1,.287-.287.457.457,0,0,0,.086-.058c0-.018-.033,0-.1.042m.423.148a1.01,1.01,0,0,0-.259.2c-.109.12-.072.1.062-.028.179-.174.225-.192.352-.132.053.025.1.044.107.037.033-.032-.209-.109-.262-.081m-11.941.037a.171.171,0,0,0-.012.086v.071l.025-.074c.018-.06.028-.072.053-.056.046.03.069.023.028-.009s-.074-.039-.095-.018m9.716.1a.3.3,0,0,0,0,.1c.016.016.039-.125.03-.158-.007-.016-.016.012-.025.06m7.922-.046a4.074,4.074,0,0,0,.795.012c.046-.012-.063-.021-.368-.026a1.6,1.6,0,0,0-.427.014m-8.6.012a.425.425,0,0,0,.15,0c.065-.017.056-.019-.074-.019s-.141,0-.077.018m.269.018c.012.047-.034.107-.123.165-.034.021-.049.037-.034.037a.309.309,0,0,0,.174-.141c.037-.074.037-.1,0-.1-.019,0-.025.014-.019.042m-9.76.135a.259.259,0,0,1-.095.072c-.033.012-.056.026-.049.03.021.021.13-.039.162-.09s.027-.074-.019-.012m11.647-.014a.1.1,0,0,0,0,.053c.007.007.016-.009.026-.033a.082.082,0,0,0,0-.053c0-.007-.016.009-.024.033m-11.246.116a.543.543,0,0,1-.3.32c-.067.025-.1.049-.085.049.167,0,.458-.3.428-.44,0-.014-.021.018-.039.071m7.7-.048a.267.267,0,0,0-.129.181c0,.014.018-.009.042-.051a.288.288,0,0,1,.113-.116c.04-.021.06-.039.044-.039a.16.16,0,0,0-.07.025m.248-.012a.109.109,0,0,1,.044.033c.009.014.016.009.016-.012s-.014-.034-.044-.034-.035.007-.017.014m11.6.049a.192.192,0,0,0-.069.095c0,.021.012.014.03-.023a.3.3,0,0,1,.1-.095c.042-.021.06-.039.04-.039a.248.248,0,0,0-.1.062m.317-.03a.1.1,0,0,1-.039.164c-.081.007-.148.044-.148.081s.007.023.027-.007.053-.04.114-.04h.088l0-.088c.007-.083-.018-.146-.06-.146-.009,0,0,.016.014.035m-10.813.027c-.035.014-.035.017.012.019a.2.2,0,0,0,.078-.019c.039-.025-.03-.025-.09,0m2.154.044a.558.558,0,0,0,.007.248c.009.026.016-.021.016-.125,0-.176,0-.2-.023-.123m-11.918.171c.007.219.012.227.153.195l.071-.016-.1-.009-.1-.012,0-.151c0-.125,0-.155.028-.178s.032-.025-.009-.025-.044.007-.039.2m9.435-.181c0,.009.039.014.085.009.139-.012.151-.021.03-.024-.062,0-.116,0-.116.014m.917.079a.624.624,0,0,1-.19.162c-.139.077-.135.091.007.017a.537.537,0,0,0,.22-.188c.072-.1.04-.095-.037.009m-5.555.018a.2.2,0,0,0,.007.3c.114.113.371.051.371-.091,0-.021-.016-.007-.042.033a.2.2,0,0,1-.218.1.2.2,0,0,1-.056-.375c.039-.023.053-.039.033-.039a.209.209,0,0,0-.095.072m.271-.016a.472.472,0,0,1,.083.095c.019.033.021.034.021.007a.3.3,0,0,0-.144-.158c-.012,0,0,.025.04.056m3.451.065a.093.093,0,0,0-.014.138c.021.017.023.007.018-.046-.009-.083.04-.118.132-.1.035.007.063,0,.063-.007,0-.04-.158-.03-.2.014m11.657.04c0,.05,0,.071.007.046a.3.3,0,0,0,0-.091c0-.025-.007,0-.007.044m-7.832,0a.363.363,0,0,0,.162.206c.109.063.116.051.012-.018a.4.4,0,0,1-.133-.135c-.023-.044-.042-.068-.042-.053m-4.063.085c0,.009-.025.03-.056.046s-.056.042-.06.107c-.009.125.009.132.338.125l.285,0v-.222l-.12,0c-.1,0-.107,0-.018.007.107.009.128.028.129.109s-.034.1-.313.095l-.255-.007-.007-.086c0-.076,0-.088.044-.1s.077-.081.042-.081c0,0-.009.007-.009.018m12.109,0a.055.055,0,0,0,.025.04.559.559,0,0,0,.252.023c0-.009-.046-.016-.1-.016a.212.212,0,0,1-.141-.035c-.018-.018-.034-.024-.034-.012m-.264.04c-.053.009-.055.014-.055.13v.118h.3a1.662,1.662,0,0,0,.3-.014,1.254,1.254,0,0,0-.289-.009l-.287.007v-.1c0-.095,0-.1.049-.1.028,0,.051-.007.051-.018s0-.019,0-.019a.374.374,0,0,1-.06.012m-10.2.026-.039.018h.039a.116.116,0,0,0,.069-.018c.04-.026-.009-.026-.069,0m3.3.014c-.091.04-.068.056.025.017s.095-.035.16.093.062.146.006.187c-.025.019-.037.033-.025.033a.158.158,0,0,0,.067-.037l.049-.037-.071-.139c-.077-.151-.1-.165-.211-.116m-3.785.012c0,.039.218.049.317.014.03-.009-.014-.012-.116,0-.13.009-.172,0-.186-.016s-.016-.021-.016.007m3.593.056-.039.018h.039a.111.111,0,0,0,.07-.018c.039-.026-.009-.026-.07,0m-1.044.034c0,.053.243.292.271.264,0,0-.028-.034-.072-.062a.559.559,0,0,1-.132-.135c-.051-.078-.067-.095-.067-.067m.686.007a.586.586,0,0,0,.269,0c.035-.012-.009-.016-.128-.016s-.167,0-.141.016m.429.322c-.025.018-.025.021,0,.021a.126.126,0,0,0,.06-.021c.028-.017.028-.018,0-.018a.151.151,0,0,0-.06.018m-.587.042a.337.337,0,0,0,.109.016l.069,0-.06-.014c-.088-.023-.172-.023-.119,0m.4,0-.06.014.069,0a.228.228,0,0,0,.1-.016c.037-.025-.017-.025-.109,0M.948,18.084a.719.719,0,0,0,.014.129c.016.058.016.058.016-.018a.527.527,0,0,0-.016-.132c-.014-.046-.017-.044-.014.021M37,18.334a.171.171,0,0,0,0,.084c0,.007.014-.023.024-.062s.009-.079,0-.084-.016.023-.023.062M.985,18.355c0,.069.034.134.034.071A.168.168,0,0,0,1,18.346c-.016-.025-.021-.024-.018.009m.037.152a.128.128,0,0,0,.021.06c.017.028.019.028.019,0a.151.151,0,0,0-.019-.06c-.018-.028-.021-.028-.021,0m.081.209a2.133,2.133,0,0,0,.667.852,2.223,2.223,0,0,0,.458.246.5.5,0,0,0-.141-.083c-.333-.16-.866-.656-.866-.807a1.2,1.2,0,0,0-.119-.208M36.732,19a1.947,1.947,0,0,1-.6.627c-.044.035-.044.035.014,0a2.04,2.04,0,0,0,.665-.709c.046-.088,0-.044-.077.081m-.783.716c-.053.028-.093.055-.088.06a.715.715,0,0,0,.213-.1c0-.016-.028-.007-.125.044m-.255.109c-.049.018-.069.037-.049.035a.4.4,0,0,0,.12-.037c.1-.049.046-.046-.071,0M2.3,19.84a.151.151,0,0,0,.06.019c.028,0,.028,0,0-.019a.126.126,0,0,0-.06-.021c-.026,0-.026,0,0,.021m.129.04a.255.255,0,0,0,.081.018h.04l-.04-.018a.253.253,0,0,0-.081-.016H2.387l.039.016m33.059,0c-.037.016-.034.018.012.018a.142.142,0,0,0,.079-.018c.039-.026-.03-.026-.091,0m-32.86.042a.788.788,0,0,0,.139.014c.077,0,.077,0,.021-.014a.619.619,0,0,0-.139-.016c-.077,0-.077,0-.021.016m32.591,0c-.042.014-.037.017.03.017a.507.507,0,0,0,.13-.017c.042-.014.037-.016-.03-.016a.507.507,0,0,0-.13.016" transform="translate(-0.407 -0.298)" fill="#64dce2" fill-rule="evenodd"/>
      <path data-name="Path 53907" d="M2.588.766c-.021.014,15.764.014,28.123,0,2.574,0-2.7-.007-11.71-.009S2.6.76,2.588.766M35.52.813c.162.039.193.042.109.012A.4.4,0,0,0,35.5.794c-.042,0-.037.007.018.019M2.3.848c-.053.016-.09.035-.086.04A.751.751,0,0,0,2.421.82C2.421.808,2.4.813,2.3.848m-.468.238a.505.505,0,0,0-.1.081A.48.48,0,0,0,1.833,1.1c.1-.065.125-.088.1-.088q-.055.034-.109.072m34.428.056a.727.727,0,0,0,.065.065l.065.06L36.329,1.2c-.056-.062-.072-.076-.072-.059M1.594,1.274c-.044.042-.1.1-.13.134s.012,0,.086-.071q.069-.065.135-.135c0-.012-.014,0-.091.071M36.607,1.5c.093.111.095.113.074.071a.381.381,0,0,0-.079-.092l-.055-.049.06.069M1.242,1.7a1.337,1.337,0,0,0-.132.279.642.642,0,0,0,.09-.156c.074-.146.107-.243.042-.123m-.19.441c-.034.113-.03.148.007.044a.3.3,0,0,0,.023-.107c0-.009-.016.018-.03.063m-.06.282c0,.049,0,.069.009.044a.3.3,0,0,0,0-.09c0-.026-.009,0-.009.046m36.017.051a1.191,1.191,0,0,0,.016.148.672.672,0,0,0-.012-.25c-.009-.023-.011.021,0,.1M.957,10.36c0,4.234,0,5.967,0,3.849s0-5.583,0-7.7,0-.384,0,3.85M33.4,2.766c.058,0,.151,0,.208,0s.012-.009-.1-.009-.162,0-.1.009m-.334.044c-.018.012,0,.014.06.007a.49.49,0,0,0,.1-.018c.018-.017-.13-.005-.158.011m-.151.055c-.06.014-.078.042-.021.033a.126.126,0,0,0,.063-.03c.007-.009.009-.017,0-.014s-.024.007-.047.012m-.185.095c-.086.062-.109.09-.033.044.1-.065.139-.093.119-.093a.4.4,0,0,0-.086.049m1.55.025c.241.16.3.248.248.345l-.032.055.042-.051a.176.176,0,0,0,.042-.081,1.1,1.1,0,0,0-.391-.343c-.009,0,.033.032.093.074m-1.8.183a1.772,1.772,0,0,0-.174.206l-.044.072.046-.06c.026-.034.107-.127.183-.208a1.3,1.3,0,0,0,.13-.146,1.552,1.552,0,0,0-.142.136m1.956.288c-.024.034-.04.06-.033.06a.253.253,0,0,0,.053-.06c.023-.033.037-.06.033-.06s-.03.028-.053.06m-.083.116c-.036.042-.063.085-.052.085a.219.219,0,0,0,.051-.06c.049-.065.049-.081,0-.026m-1.059.06c0,.009.056.014.132.012.243-.009.271-.018.069-.024a.937.937,0,0,0-.2.012m-1.147.07a.28.28,0,0,1-.014.071c-.009.036-.009.036.012,0a.1.1,0,0,0,.014-.069c-.007-.033-.009-.033-.012,0m2.09.037c-.024.035-.037.06-.033.06a.253.253,0,0,0,.053-.06c.024-.033.037-.06.033-.06s-.03.027-.053.06m-2.127.153c0,.044,0,.06.009.035a.237.237,0,0,0,0-.081c0-.018-.009,0-.009.046m2.02-.012c-.03.035-.046.06-.037.06s.037-.026.06-.06.042-.06.037-.06a.438.438,0,0,0-.06.06m-1.145-.014c-.018.026-.058.135-.039.116a.678.678,0,0,0,.067-.141s-.016.012-.028.026m-.894.257c0,.083,0,.116.009.074a.8.8,0,0,0,0-.151c0-.042-.009-.007-.009.077m.836.018c0,.084,0,.119.009.077a.8.8,0,0,0,0-.151c0-.042-.009-.007-.009.074m-.818.213c0,.043.005.059.01.034a.237.237,0,0,0,0-.081c0-.018-.009,0-.009.046m.852.012a.156.156,0,0,0,.053.081l.056.049-.042-.05a.337.337,0,0,1-.053-.081c-.009-.026-.012-.026-.014,0m.364.285c.014.009.3.014.632.012a3.216,3.216,0,0,0,.438-.009c-.412-.014-1.091-.014-1.07,0m-11.752.012c.195,0,.514,0,.709,0s.034-.007-.355-.007-.549,0-.355.007m10.3,0c.065,0,.162,0,.219,0s0-.007-.116-.007-.166,0-.1.007m-10.687.018c-.007.007-.012,1.467-.009,3.243l0,3.231L21.2,7.918c0-1.781.009-3.243.007-3.246s-.007,0-.014.009M22.7,7.837c0,1.726,0,2.433,0,1.569s0-2.275,0-3.137,0-.157,0,1.569m9.02-2.745c0,.206,0,.29.005.188q.007-.188,0-.375c0-.1,0-.018,0,.187m.753.438c.38,0,1,0,1.382,0s.07,0-.69,0-1.072,0-.693,0m-.034.556c-.007.014-.009,1.61,0,3.546l0,3.524h1.534V6.072l-.762-.007a3.216,3.216,0,0,0-.772.021m1.524,3.529v3.53H32.453V6.081h1.515V9.613M13.6,7.568a.176.176,0,0,0,.07,0c.018,0,0-.009-.035-.009s-.053,0-.035.009m-.125.063c-.04.034-.058.065-.044.065s.025.021.025.046c0,.042,0,.042.019,0s.007-.046-.007-.056c-.04-.026,0-.039.046-.016a.314.314,0,0,0,.125.016l.086-.009-.1,0c-.071,0-.093-.009-.076-.026a.156.156,0,0,1,.1-.017c.044,0,.081,0,.081-.007s.009-.017.024-.017.015.014.009.03,0,.026.018.016.028,0,.024.037,0,.037,0,.023a.037.037,0,0,1,.03-.026c.012,0,.005-.018-.016-.042-.044-.049-.12-.1-.1-.06.009.014-.016.021-.074.021s-.093-.009-.1-.023-.037,0-.076.04M13.4,7.8c0,.051,0,.072.009.046a.3.3,0,0,0,0-.09c0-.026-.009,0-.009.044m.12,0c0,.051,0,.072.007.046a.2.2,0,0,0,0-.09c0-.026-.007,0-.007.044m.211-.024a.585.585,0,0,0,0,.091c0,.037-.028.046-.046.014a.074.074,0,0,0-.1,0c-.007.009.007.012.028.007a.086.086,0,0,1,.072.014c.016.014.037.021.044.012a.4.4,0,0,0,.014-.193s-.012.024-.012.056m.123-.026c0,.016-.009.03-.021.03-.03,0-.024.04.009.075s.03.021.03-.053a.2.2,0,0,0-.009-.081c-.007,0-.009.014-.009.03m-.259.018a.05.05,0,0,0,.021.042c.026.017.081-.027.067-.053s-.088-.02-.088.012m-.139.1a.028.028,0,0,1-.023.03c-.014,0-.007.019.014.042.044.049.12.1.1.063-.009-.017.021-.024.09-.024.116,0,.113.033,0,.047l-.069.007.074,0c.1,0,.234-.111.181-.157-.028-.024-.028-.024-.019.014s-.039.107-.065.074-.2-.026-.2,0a.019.019,0,0,1-.021.017c-.014,0-.018-.014-.012-.03s0-.026-.018-.017-.028,0-.019-.042.009-.053,0-.053-.012.014-.012.03m14.708.09c-.088,0,.042.012.287.012.311,0,.394,0,.269-.014a3.434,3.434,0,0,0-.556,0m-.3.042-.081.014.07,0a.222.222,0,0,0,.1-.016c.032-.024.027-.024-.088,0m-9.394.014c.2,0,.522,0,.716,0s.03,0-.364,0-.554,0-.352,0M29,8.013a.224.224,0,0,0,.079,0c.018-.007,0-.009-.044-.009s-.06,0-.035.009m-9.44.76c0,.413.007.876.009,1.031a6.672,6.672,0,0,0,.012-.739c0-.563,0-1.029-.012-1.034s-.012.329-.009.741m8.119-.734c-.113.033-.178.058-.15.058a.865.865,0,0,0,.211-.058c.051-.021.018-.021-.06,0m-9.625,1.14q0,.591-.014,1.181l-.012.051.021-.049c.014-.03.021-.431.016-1.179l0-1.135-.007,1.13M29.325,8.092l.107.039a.149.149,0,0,0,.074.019.4.4,0,0,0-.176-.07c-.028,0-.028,0,0,.012m-15.35.067c-.026.035-.042.06-.037.06a.426.426,0,0,0,.06-.06c.028-.032.046-.06.037-.06s-.037.028-.06.06M27.3,8.182a.252.252,0,0,0-.086.05s.007.007.017,0,.049-.023.088-.044A.282.282,0,0,0,27.4,8.15c0-.014,0-.014-.1.032m2.354.049a.541.541,0,0,0,.144.063,1.176,1.176,0,0,0-.26-.135c-.014,0,.04.033.116.072M14.191,8.207a.376.376,0,0,0,.088.074c.051.033.09.058.09.051a.468.468,0,0,0-.09-.071.333.333,0,0,0-.088-.053m-.3.078c-.014.026-.04.065-.056.09s-.026.047-.018.047a.579.579,0,0,0,.109-.174s-.018.014-.034.037m13.222,0c-.032.028-.037.035-.009.021.065-.032.1-.062.079-.06a.224.224,0,0,0-.07.039m-12.646.128a1.608,1.608,0,0,0,.213.162c.071.042.012-.014-.093-.088a.655.655,0,0,0-.12-.074m12.262.178a1.539,1.539,0,0,0-.306.381,1.062,1.062,0,0,0,.111-.142,2.348,2.348,0,0,1,.257-.282.992.992,0,0,0,.139-.142,1.74,1.74,0,0,0-.2.186m3.533.088c.1.1.192.19.2.19a1.917,1.917,0,0,0-.178-.19,2.38,2.38,0,0,0-.2-.192q.086.1.181.192M14.747,8.611a.742.742,0,0,0,.1.083c.056.042.1.065.09.053a.811.811,0,0,0-.192-.136m.326.238.1.081c.034.028.037.039.018.06a.083.083,0,0,0-.025.046c0,.012.014,0,.03-.026.04-.056.031-.069-.085-.146-.051-.035-.067-.042-.037-.017m15.428.1a.226.226,0,0,0,.051.06c.007,0-.009-.026-.032-.06a.269.269,0,0,0-.051-.06c-.007,0,.009.028.032.06m-4.116.065c-.067.118-.072.13-.037.085s.074-.109.063-.109-.016.009-.026.023m4.2.042a.653.653,0,0,0,.116.176.574.574,0,0,0-.088-.151c-.016-.021-.028-.033-.028-.026m-4.318.187c-.06.125-.053.142.009.024a.33.33,0,0,0,.042-.107s-.028.033-.051.083m-12.778,0c-.028.135-.03.16-.014.13A.43.43,0,0,0,13.5,9.19s-.014.023-.018.05m1.552.063a.313.313,0,0,0-.026.1c0,.014.021-.021.04-.077.037-.115.03-.132-.014-.025m-1.6.178c0,.044,0,.06.009.036a.237.237,0,0,0,0-.081c0-.019-.009,0-.009.046m14.8,0a.771.771,0,0,0,.243.016.751.751,0,0,0,.231-.014,2.05,2.05,0,0,0-.474,0m.642.067a.041.041,0,0,0,.037.018.273.273,0,0,1,.1.044c.04.024.07.037.07.03a.491.491,0,0,0-.174-.1c-.026-.007-.04,0-.033,0m-1.031.1c-.037.037-.051.051-.028.034s.062-.049.09-.067.04-.033.028-.033a.281.281,0,0,0-.09.065m3.009,0a.34.34,0,0,0,.033.079c.018.018-.014-.107-.035-.128s-.007.012,0,.049M13.4,9.774c0,.083,0,.119.007.077a.8.8,0,0,0,0-.151c0-.042-.007-.009-.007.074m1.531-.03c0,.055,0,.076.009.046a.375.375,0,0,0,0-.1c0-.023-.009,0-.009.056m14.254,0a.381.381,0,0,0,.078.072.291.291,0,0,0-.058-.071.416.416,0,0,0-.079-.07.262.262,0,0,0,.058.069M27.68,9.82a.442.442,0,0,0-.058.076c-.016.033-.012.028.069-.067.025-.03.044-.056.037-.056a.186.186,0,0,0-.049.046m1.6.046a.514.514,0,0,0,.053.079l.032.042-.021-.042a.5.5,0,0,0-.051-.079l-.033-.042.019.042m-14.369.181c0,.111,0,.153.009.095s0-.148,0-.2-.009,0-.009.107m11.111-.09c0,.039,0,.053.009.034a.176.176,0,0,0,0-.069c0-.021-.009,0-.009.035m4.916,0a.441.441,0,0,0,.018.109c.012.026.014,0,.008-.06-.014-.12-.025-.146-.025-.049m-17.56.19c0,.121,0,.17.009.1s0-.165,0-.222-.009,0-.009.118m15.986-.142a.538.538,0,0,0,.028.1c.017.044.03.068.03.049a.342.342,0,0,0-.027-.1c-.016-.037-.03-.058-.03-.047m-9.814.271c0,.107,0,.148.009.1s0-.139,0-.193-.009-.009-.009.095m6.431-.1c0,.049,0,.069.009.044a.3.3,0,0,0,0-.091c0-.026-.009,0-.009.047m5,.049c0,.067.007.2.014.294.014.152.017.157.017.051s-.005-.2-.014-.295c-.014-.152-.014-.157-.016-.05m-1.534.123c0,.055,0,.074.009.044a.358.358,0,0,0,0-.1c0-.026-.009,0-.009.056m-14.518.009c0,.051,0,.069.009.046a.311.311,0,0,0,0-.093c0-.023-.009,0-.009.046m12.514,0c-.007.026-.009.66-.007,1.408l0,1.362.009-1.4c.007-.774.009-1.406.009-1.411s-.009.017-.016.042m-1.5.167c0,.1,0,.144.007.1a1.205,1.205,0,0,0,0-.183c0-.053-.007-.014-.007.085M13.4,10.522c0,.083,0,.116.007.074a.8.8,0,0,0,0-.151c0-.042-.007-.007-.007.077m4.617-.042c0,.039,0,.055.009.037a.187.187,0,0,0,0-.072c0-.019-.009,0-.009.034m11.453.132c0,.067,0,.09.009.056a.523.523,0,0,0,0-.12c0-.033-.009,0-.009.065m-14.5-.06a.556.556,0,0,0,.062.2c.007.007,0-.018-.007-.056s-.028-.095-.037-.127-.016-.049-.018-.021m4.543.07c0,.051,0,.071.009.046a.3.3,0,0,0,0-.091c0-.026-.009,0-.009.044m-1.542.021q-.014.051-.024.1c-.009.03,0,.023.019-.021a.222.222,0,0,0,.023-.1c0-.021-.009-.014-.018.018m13.017.223c0,.095,0,.132.007.085a1.033,1.033,0,0,0,0-.171c0-.049-.007-.009-.007.086M19.478,10.8a2.355,2.355,0,0,1-.069.275c-.025.086-.023.144,0,.063a1.86,1.86,0,0,0,.086-.408s-.014.026-.021.069m6.451.38c0,.255,0,.357.007.225s0-.338,0-.463-.007-.017-.007.238m-12.491-.364c0,.044,0,.06.009.034a.237.237,0,0,0,0-.081c0-.019-.009,0-.009.046m16.012.042c0,.056,0,.074.009.044a.375.375,0,0,0,0-.1c0-.023-.009,0-.009.058m-15.984.109c.016.088.028.1.028.039a.165.165,0,0,0-.021-.079c-.014-.021-.017-.009-.007.04m1.675.026a1.714,1.714,0,0,0,.313.343c.033.023,0-.012-.071-.081a1.435,1.435,0,0,1-.2-.225c-.072-.113-.1-.139-.046-.037m14.268.042a.811.811,0,0,1-.5.521c-.024,0-.026,0,0,.012.123.05.549-.4.514-.536-.009-.03-.009-.03-.012,0m-6.672.051c0,.044.075.234.091.22a.259.259,0,0,0-.025-.074.694.694,0,0,1-.049-.13c-.012-.049-.016-.053-.016-.016m-5.06.1c-.037.039-.062.074-.058.079s.039-.028.074-.072c.079-.1.069-.1-.017-.007m13.267,0c0,.044,0,.06.009.035a.237.237,0,0,0,0-.081c0-.018-.009,0-.009.046m-9.736.12c0,.079,0,.107.007.065a.707.707,0,0,0,0-.142c0-.034-.007,0-.007.077m-7.658-.04a.121.121,0,0,0,.024.06c.007,0,.009-.014,0-.042a.116.116,0,0,0-.023-.058c-.009-.007-.012.012,0,.04m5.808-.021c0,.016-.014.044-.018.062s0,.026.006.021a.1.1,0,0,0,.028-.062c.012-.056,0-.069-.017-.021m11.546.1a.736.736,0,0,1-.014.081c-.012.035-.012.035.012,0a.13.13,0,0,0,.014-.079c-.009-.046-.009-.046-.012,0m-8.055.017c.024.046.1.128.1.1a.354.354,0,0,0-.063-.079c-.034-.037-.053-.049-.042-.026m-9.254,0a.482.482,0,0,0,.069.166.215.215,0,0,0-.024-.085c-.037-.095-.046-.111-.046-.081m1.971.044a.184.184,0,0,0,.069.042c.021,0-.014-.028-.079-.06-.028-.014-.023-.007.009.018m5.671.146a.356.356,0,0,0,.019.1c.016.018,0-.132-.012-.16s-.016,0-.007.063M16,11.592c.028.017.176.028.158.012a.49.49,0,0,0-.1-.018c-.056-.007-.079,0-.06.007m7.209,0a.217.217,0,0,0,.088.019c.077,0,.06-.012-.037-.026-.055-.009-.071-.007-.051.007m5.58,0a.259.259,0,0,0-.078.03c-.019.018.123-.012.144-.032s.014-.017.009-.014-.037.009-.074.016m-11.959.017a.291.291,0,0,0,.091,0c.023,0,0-.009-.046-.009s-.069,0-.044.009m13.978.016c-.042.125-.048.151-.03.139a.066.066,0,0,0,.018-.047.106.106,0,0,1,.021-.058.055.055,0,0,0,.014-.049c0-.017-.014-.012-.024.014m-14.321.009-.238.012.227,0a1.324,1.324,0,0,0,.269-.014c.023-.009.028-.017.012-.014l-.269.014m7.582.016q.613,0,1.226,0c.336,0,.06-.007-.614-.007s-.948,0-.612.007m4.341,0a1.275,1.275,0,0,0,.19,0c.051,0,.009-.007-.095-.007s-.146,0-.095.007m-.253.141c-.111.1-.113.107-.018.03s.162-.146.144-.144c0,0-.06.051-.125.113m-14.379-.009c.044.071.171.257.178.257a.925.925,0,0,0-.083-.141,1.374,1.374,0,0,0-.1-.141s0,.012,0,.025M27.912,12c-.06.056-.083.083-.049.06.056-.039.186-.166.167-.164a1.068,1.068,0,0,0-.118.1m2.662.1q-.055.081-.113.16c-.023.03-.037.055-.033.055a2.26,2.26,0,0,0,.2-.267c.063-.1.018-.059-.056.052M18.9,12.111c-.042.053-.13.155-.195.227-.12.13-.12.13-.017.03a2,2,0,0,0,.295-.352.628.628,0,0,0-.084.095m-4.832.056a2.251,2.251,0,0,0,.166.181c.052.049.036.023-.042-.06-.18-.2-.219-.238-.125-.12m7.392.028a.364.364,0,0,0,.06.093c.009.007,0-.03-.033-.079-.06-.113-.081-.123-.028-.014m6.176.046c-.077.072-.085.083-.03.042.074-.058.164-.148.146-.146a1.558,1.558,0,0,0-.116.1m2.666.213-.109.116.116-.111c.107-.1.123-.12.109-.12a1.562,1.562,0,0,0-.116.116m-2.812-.083c-.026.028-.014.044.13.169l.145.125-.139-.129c-.079-.077-.13-.141-.123-.155s.007-.03-.014-.009m-5.821.113a.853.853,0,0,0,.107.116,1.24,1.24,0,0,0-.181-.216c-.014-.009.021.037.074.1m8.377.183c-.06.046-.132.1-.16.12-.049.037-.049.037.009,0,.1-.056.3-.213.264-.209,0,0-.053.04-.113.086m-8.244-.06a.486.486,0,0,0,.065.065l.065.06-.06-.065c-.053-.062-.069-.076-.069-.059m5.974.058a1.577,1.577,0,0,0,.144.136c.081.072.123.1.095.074a1.633,1.633,0,0,0-.238-.211m-9.618.088c-.09.065-.06.065.035,0,.039-.028.065-.051.053-.051a.3.3,0,0,0-.088.051m-3.109.142a.268.268,0,0,0,.081.028c.016,0,0-.014-.037-.03-.085-.037-.109-.037-.044,0m7.142,0c.044.03.109.058.109.044a.507.507,0,0,0-.136-.072c-.007,0,0,.014.028.028m-4.413.037-.09.037L17.6,13l-.051.024.051-.012a.436.436,0,0,0,.088-.028c.024-.009.077-.03.12-.049s.067-.03.051-.03a.277.277,0,0,0-.081.02m-2.6.019a.139.139,0,0,0,.06.023c.026,0,.044,0,.04,0s-.03-.018-.058-.026-.046,0-.042.007m13.035.113.109.1.289,0,.289,0-.289,0c-.283-.007-.289-.009-.348-.062-.12-.109-.16-.132-.051-.03m-12.836-.046a.391.391,0,0,0,.12.03c.023,0,.009-.009-.03-.021-.128-.034-.169-.039-.09-.009m7.1,0a.291.291,0,0,0,.1.028c.019,0,0-.014-.046-.028-.1-.04-.139-.037-.053,0m-5.126.051c-.053.014-.056.014-.009.016a.159.159,0,0,0,.079-.016c.035-.024.018-.024-.069,0m5.3,0a1.8,1.8,0,0,0,.35.069c.06.007.077,0,.049-.007a.346.346,0,0,0-.111-.018.724.724,0,0,1-.13-.021c-.083-.025-.209-.044-.158-.024m-7.058.009a.771.771,0,0,0,.1.019c.058.009.074.007.049,0s-.164-.03-.148-.014m.2.04a.625.625,0,0,0,.119.018c.069.007.095,0,.069,0s-.2-.028-.187-.014m1.309.007a.224.224,0,0,0,.079,0c.018,0,0-.009-.044-.009s-.06,0-.035.009m11.845.007c-.025.012,0,.014.06,0a.418.418,0,0,0,.107-.018c.018-.014-.13,0-.167.014m-12.663.035c.123,0,.326,0,.45,0s.021-.007-.225-.007-.348,0-.225.007m7.918,0c.6,0,1.577,0,2.171,0s.1,0-1.091,0-1.679,0-1.079,0m-2.463,1.35c-.018.018-.016,2.242,0,2.254s.012-.5.009-1.119l0-1.128h.4l.009,2.219V14.508l-.2-.007a.885.885,0,0,0-.216.009m12.09,0,.2.007v1.1A8.118,8.118,0,0,1,34,16.755c-.02.024-.02.025,0,.019a4.959,4.959,0,0,0,.03-1.137V14.508l-.211,0h-.209l.2.007m-.229,1.117c0,1.107,0,1.149.063,1.149.012,0,0-.012-.014-.025s-.032-.12-.037-1.126l-.007-1.1,0,1.1m-19.681-.9a.273.273,0,0,0-.123.119c-.012.021,0,.009.037-.026a.237.237,0,0,1,.146-.085c.068-.012.074-.016.03-.016a.433.433,0,0,0-.09.009m6.873-.007a.36.36,0,0,0,.088.021c.053.007.069,0,.051-.007s-.158-.03-.139-.014m.218.088a.431.431,0,0,0,.053.067c.016,0-.033-.077-.068-.1s-.016,0,.014.037m9.838,0a.431.431,0,0,0,.053.067c.016,0-.036-.077-.068-.1s-.016,0,.014.037m-10.2.016c-.033.049-.046.222-.019.239.009,0,.014-.035.009-.088a.233.233,0,0,1,.028-.148c.018-.03.028-.053.023-.053a.182.182,0,0,0-.042.051m9.838,0c-.033.049-.047.222-.019.239.009,0,.012-.035.009-.088a.219.219,0,0,1,.028-.148c.018-.03.028-.053.023-.053a.154.154,0,0,0-.042.051m-16.265.146c0,.058,0,.1.007.088a.2.2,0,0,0,.009-.1l-.007-.09-.009.107m-.454-.014a.221.221,0,0,0,.028.109c.016.021.028.03.028.018a.068.068,0,0,0-.018-.039.222.222,0,0,1-.026-.088l-.009-.072,0,.071m7.309,0a.15.15,0,0,1-.023.088.044.044,0,0,0-.018.035c0,.014.014,0,.03-.021a.173.173,0,0,0,.024-.111c-.009-.065-.009-.065-.012.009m9.841,0c0,.037,0,.053.009.035a.187.187,0,0,0,0-.072c-.007-.018-.009,0-.009.037m-16.744.162a.239.239,0,0,1-.077.049c-.048.024-.05.028-.014.019s.146-.088.116-.088a.04.04,0,0,0-.026.021m6.512.012a.244.244,0,0,0,.09.056l.049.012-.051-.026a.664.664,0,0,1-.091-.053c-.032-.026-.032-.023,0,.012m9.838,0a.219.219,0,0,0,.09.056l.049.012-.051-.026a.547.547,0,0,1-.09-.053c-.033-.025-.033-.023,0,.012m1.816.362c-.118.078-.173.125-.173.152a4.778,4.778,0,0,0,.384.614c.033.033,0-.023-.187-.308a1.655,1.655,0,0,1-.176-.3.887.887,0,0,1,.34-.236c.018,0,.03-.007.026-.017-.018-.028-.037-.016-.213.1M18.189,15.44a2.294,2.294,0,0,0,.239,0c.062,0,.007-.007-.125-.007s-.183,0-.113.007m-.225.026c-.055.016-.055.016-.009.018a.165.165,0,0,0,.079-.018c.034-.021.016-.021-.069,0m8.383,0a.538.538,0,0,0,.121.016c.049,0,.046,0-.021-.016-.1-.021-.183-.021-.1,0m4.4,0a.538.538,0,0,0,.12.016c.049,0,.047,0-.021-.016-.1-.021-.183-.021-.1,0m1.821.012a.462.462,0,0,0,.052.081l.032.039-.018-.039a.445.445,0,0,0-.053-.081l-.033-.042.021.042m-9.3,0a.594.594,0,0,0,.13,0c.034,0,0-.009-.065-.009s-.1,0-.065.009m7.149.016c-.03.017-.053.035-.053.042s.018,0,.044-.016a.55.55,0,0,1,.1-.037c.053-.014.056-.017.009-.017a.227.227,0,0,0-.1.028m-12.558.014a.814.814,0,0,0-.007.352c.007.012.012-.053.007-.148a.424.424,0,0,1,.016-.2c.03-.036.019-.04-.016,0m5.263-.012a.225.225,0,0,0-.058.028c-.009.012.012.009.049,0,.1-.03.111-.051.009-.028m3.5.04c.025.018.077.058.109.085s.021.014-.028-.033a.4.4,0,0,0-.109-.085c-.012,0,0,.014.027.033m-.79.046a.523.523,0,0,0-.2.229c-.044.1-.021.095.025-.012a.626.626,0,0,1,.222-.24c.028-.019.044-.035.04-.035a.4.4,0,0,0-.091.058m-4.76.547c0,.326,0,.461.007.3s0-.431,0-.6-.007-.028-.007.3M31.1,15.618a.7.7,0,0,1,.107.155.242.242,0,0,0,.039.077c.033,0-.062-.164-.134-.231l-.084-.081.072.081m-12.192.035a.813.813,0,0,0,.095.095c.014,0,0-.016-.09-.1l-.093-.088.088.095m-4.9-.012.2.007v.311c0,.271,0,.313.034.338s.033.023.012,0a1.185,1.185,0,0,1-.03-.343l0-.313H13.8l.2,0m-.225.543c0,.3,0,.423.007.278s0-.391,0-.544-.007-.034-.007.267m18.91-.51a.653.653,0,0,0,.116.176c.009,0-.023-.056-.088-.151-.014-.023-.028-.033-.028-.025m-8.882.037a.508.508,0,0,0,.072.139s0-.016-.007-.035c-.014-.042-.065-.12-.065-.1m3,.028a.729.729,0,0,1,.016.174c0,.074.007.125.016.111a.473.473,0,0,0-.016-.276c-.018-.028-.023-.033-.016-.009m-4.036.065c-.042.085-.042.085-.033.085a.3.3,0,0,0,.065-.134s-.018.018-.033.049m7.318.037-.018.06c0,.018,0,.028.007.021a.1.1,0,0,0,.028-.062c.009-.053,0-.07-.016-.019m-11.884,0a.191.191,0,0,0,.082,0c.018,0,0-.009-.047-.009s-.058,0-.034.009m7.988,0a.272.272,0,0,0,.088,0c.026,0,0-.007-.044-.007s-.069,0-.044.007m-8.187.021a.287.287,0,0,0,.09,0c.026,0,0-.009-.044-.009s-.069,0-.046.009m.389,0a.53.53,0,0,1,.167.081c.049.035.084.053.077.039a.5.5,0,0,0-.257-.136c-.058,0-.056,0,.014.016m7.978.014c.037.026.044.049.04.1s0,.062.007.058c.051-.032-.012-.19-.074-.19-.009,0,0,.014.028.033m4.2-.017c0,.007.03.012.079.007a.167.167,0,0,1,.135.03l.044.037-.039-.044c-.037-.046-.195-.067-.218-.03m-11.5,0a.938.938,0,0,0,.03.091c.014.044.028.062.028.039s-.056-.162-.058-.13m4.163.014c-.051.018-.1.071-.1.1s.009.017.021-.012a.166.166,0,0,1,.083-.074c.06-.028.058-.042,0-.018m.658.018a.166.166,0,0,0,.018.068c.017.024.018.014.007-.03-.016-.075-.028-.091-.025-.037m7.371.028c0,.039,0,.053.009.034a.175.175,0,0,0,0-.069c0-.021-.009,0-.009.035m-7.835-.009a.117.117,0,0,1,.046.065c0,.023,0,.025.012.009s-.047-.107-.081-.107c-.012,0,0,.017.023.033m-.712.012A.28.28,0,0,1,22.7,16c-.009.036-.009.036.012,0a.1.1,0,0,0,.014-.069c-.007-.033-.009-.033-.012,0m2.87.037c0,.04,0,.056.009.037a.188.188,0,0,0,0-.072c0-.019-.009,0-.009.034m4.462.183v.211l-.068.014-.067.012.06,0c.095,0,.1-.009.088-.238l-.012-.213,0,.213m-3.973-.111c.081.116.181.2.209.174s.018-.023-.007-.014-.065-.024-.136-.1c-.058-.065-.088-.09-.065-.056m4.393.069c0,.072,0,.1.009.068a.629.629,0,0,0,0-.132c0-.037-.009-.007-.009.065m.377.065,0,.195-.065.009-.065.007.065,0c.083,0,.088-.009.079-.231l-.007-.179,0,.195m-6.908.238c0,.227,0,.32.007.206s0-.3,0-.412-.007-.021-.007.206m-.831-.352a.259.259,0,0,0,0,.165c.009.012.014-.028.014-.088,0-.12,0-.123-.016-.076m.4.13c0,.132,0,.16-.026.166s-.025.009,0,.007.065-.246.033-.3c-.009-.016-.014.042-.009.13m-.827-.009c0,.076,0,.107.007.065a.8.8,0,0,0,0-.141c0-.037-.007,0-.007.077m3.007-.026a.87.87,0,0,0,.107.116,1.209,1.209,0,0,0-.178-.215c-.014-.009.018.037.071.1m-6.532,0c0,.044,0,.06.007.035a.191.191,0,0,0,0-.081c0-.018-.009,0-.007.046m7.584.035a.645.645,0,0,1-.091.116c-.074.069-.049.081.153.077l.183,0-.174-.007c-.193-.007-.195-.012-.128-.086s.123-.162.107-.162a.29.29,0,0,0-.051.065m6.231,0a.277.277,0,0,0,.03.079c.018.018-.014-.107-.032-.128s-.009.012,0,.049m-14.235.06c0,.039,0,.055.009.037a.187.187,0,0,0,0-.071c0-.019-.009-.005-.009.034m4.4.039c0,.018.076.093.085.081s-.016-.03-.039-.053-.046-.037-.046-.028m2.7.037c.037.046.019.1-.034.107a.167.167,0,0,0-.074.042c-.035.028-.021.025.056-.017.116-.06.125-.083.06-.139l-.044-.04.037.047m6.723-.009a.052.052,0,0,1-.034.042c-.033.007-.033.009,0,.012s.069-.051.049-.074c-.007-.007-.014,0-.014.021m.464.056c0,.049,0,.069.009.044a.3.3,0,0,0,0-.09c0-.025-.009,0-.009.046m-18.709-.017a2,2,0,0,0,.352.012L15,16.364l-.352-.009a1.654,1.654,0,0,0-.338,0m4.431,0a3.284,3.284,0,0,1-.5.025l-.477,0,.479,0c.408,0,.485,0,.505-.025s.021-.042-.012-.009m-3.389.014a.187.187,0,0,0,.071,0c.019,0,0-.009-.034-.009s-.056,0-.037.009m.458,0a.176.176,0,0,0,.069,0c.021,0,0-.009-.034-.009s-.053,0-.035.009m.458,0a.176.176,0,0,0,.07,0c.018,0,0-.009-.035-.009s-.053,0-.035.009m.459,0a.175.175,0,0,0,.069,0c.018,0,0-.009-.035-.009s-.055,0-.034.009m.457,0a.187.187,0,0,0,.071,0c.019,0,0-.009-.037-.009s-.053,0-.035.009m.459,0a.175.175,0,0,0,.069,0c.021,0,0-.009-.035-.009s-.053,0-.034.009m2.608,0a.176.176,0,0,0,.069,0c.021,0,0-.009-.034-.009s-.053,0-.035.009m.255.007-.109.012.1,0a.232.232,0,0,0,.116-.016c.007-.012.009-.021.007-.019s-.055.009-.116.019m6.648-.007c.091,0,.234,0,.318,0s.012-.007-.164-.007-.246,0-.153.007m.824,0a.176.176,0,0,0,.07,0c.018,0,0-.009-.035-.009s-.053,0-.034.009m.458,0a.175.175,0,0,0,.069,0c.018,0,0-.009-.034-.009s-.056,0-.035.009m.457,0a.187.187,0,0,0,.071,0c.019,0,0-.009-.034-.009s-.056,0-.037.009m.459,0a.175.175,0,0,0,.069,0c.021,0,0-.009-.034-.009s-.053,0-.036.009m.459,0a.176.176,0,0,0,.07,0c.018,0,0-.009-.035-.009s-.053,0-.035.009m-14.717.021a.774.774,0,0,0,.148,0c.042,0,.007-.009-.074-.009s-.116,0-.074.009m.447,0a.677.677,0,0,0,.139,0c.042,0,.014-.009-.065-.009s-.109,0-.074.009m.458,0a.683.683,0,0,0,.139,0c.042,0,.012-.009-.065-.009s-.111,0-.074.009m.457,0a.7.7,0,0,0,.141,0c.04,0,.012-.009-.065-.009s-.111,0-.076.009m.458,0a.683.683,0,0,0,.139,0c.042,0,.014-.009-.063-.009s-.111,0-.077.009m.459,0a.677.677,0,0,0,.139,0c.042,0,.012-.009-.065-.009s-.109,0-.074.009m2.171,0a.594.594,0,0,0,.13,0c.034,0,.007-.009-.065-.009s-.1,0-.065.009m.45,0a.774.774,0,0,0,.148,0c.042,0,.007-.009-.074-.009s-.116,0-.074.009m7.716,0a.683.683,0,0,0,.139,0c.042,0,.012-.009-.065-.009s-.109,0-.074.009m.447,0a.8.8,0,0,0,.151,0c.042,0,.007-.009-.074-.009s-.116,0-.077.009m.468,0a.678.678,0,0,0,.139,0c.042,0,.014-.009-.063-.009s-.111,0-.077.009m.45,0a.774.774,0,0,0,.148,0c.042,0,.009-.009-.074-.009s-.116,0-.074.009m.468,0a.677.677,0,0,0,.139,0c.042,0,.012-.009-.065-.009s-.111,0-.074.009m2.268,0a1.32,1.32,0,0,0,0,.378.579.579,0,0,0,.009-.181l-.007-.187.306-.007.3-.007-.3,0a2.124,2.124,0,0,0-.315.009m-9.056.12a.373.373,0,0,0,.086.1l.086.081-.081-.09q-.043-.049-.083-.1s-.007,0-.007.009m2.773.136a.93.93,0,0,0-.123.146c0,.007,0,.012,0,.007l.134-.146a1.068,1.068,0,0,0,.116-.135,1.566,1.566,0,0,0-.132.128m7.345.016c-.051.046-.071.074-.051.063.037-.021.167-.148.148-.146a.723.723,0,0,0-.1.083m-18.611.077a.06.06,0,0,0,.049.02.067.067,0,0,1,.051.021,1.214,1.214,0,0,0,.324.017l.313,0-.3-.007a2.043,2.043,0,0,1-.338-.023c-.074-.034-.114-.042-.1-.023m8.77.007a.111.111,0,0,0,.074.009c.053-.007.051-.007-.019-.016-.042-.007-.067,0-.055.007m.419.007c.042.021.018.088-.053.148-.042.037-.058.055-.035.044.1-.053.165-.183.093-.2-.014,0-.017,0,0,0m-8.11.042a.237.237,0,0,0,.081,0c.018,0,0-.009-.046-.009s-.058,0-.036.009m.459,0a.224.224,0,0,0,.079,0c.021,0,0-.009-.044-.009s-.06,0-.035.009m.459,0a.22.22,0,0,0,.079,0c.018,0,0-.009-.044-.009s-.06,0-.034.009m.457,0a.237.237,0,0,0,.081,0c.018,0,0-.009-.046-.009s-.058,0-.035.009m.459,0a.237.237,0,0,0,.081,0c.018,0,0-.009-.047-.009s-.058,0-.034.009m.458,0a.224.224,0,0,0,.079,0c.021,0,0-.009-.044-.009s-.06,0-.035.009m1.7,0a.176.176,0,0,0,.069,0c.019,0,0-.009-.034-.009s-.053,0-.035.009m.459,0a.176.176,0,0,0,.069,0c.018,0,0-.009-.035-.009s-.055,0-.034.009m.457,0a.176.176,0,0,0,.069,0c.021,0,0-.009-.034-.009s-.053,0-.035.009m5.65.06-.068.077.074-.07a.446.446,0,0,0,.074-.077c0-.014-.016,0-.081.069m1.232-.06c.09,0,.236,0,.329,0s.017-.007-.164-.007-.255,0-.164.007m.836,0a.224.224,0,0,0,.079,0c.018,0,0-.009-.044-.009s-.06,0-.034.009m.458,0a.22.22,0,0,0,.079,0c.018,0,0-.009-.046-.009s-.058,0-.033.009m.457,0a.237.237,0,0,0,.081,0c.018,0,0-.009-.047-.009s-.058,0-.034.009m.458,0a.224.224,0,0,0,.079,0c.021,0,0-.009-.044-.009s-.06,0-.035.009m.459,0a.22.22,0,0,0,.079,0c.018,0,0-.009-.044-.009s-.06,0-.034.009m-4.436.083a.172.172,0,0,0-.014.1c.007.03.009.027.012-.009a.237.237,0,0,1,.023-.088c.012-.024.019-.044.012-.049s-.018.017-.033.049m-11.189.033c0,.046,0,.06.009.037a.237.237,0,0,0,0-.081c0-.021-.009,0-.009.044m-.489.021c-.03.028-.049.051-.037.051a.177.177,0,0,0,.063-.051c.06-.065.046-.062-.026,0m8.142.021c-.021.017-.03.03-.018.03a.076.076,0,0,0,.039-.018A.372.372,0,0,1,22,16.934l.129-.007-.129,0a.286.286,0,0,0-.17.025m12.049-.017c.144.009.164.025.174.135l.009.083,0-.083c0-.123-.03-.151-.183-.146l-.123,0,.12.007m-8.078.058c-.009.03-.017.058-.012.062s.018-.018.03-.053c.026-.074.01-.083-.018-.009m-3.655.079c0,.067,0,.093.007.055a.522.522,0,0,0,0-.12c0-.03-.007,0-.007.065m1.7-.028c-.024.046-.025.058,0,.039s.058-.1.042-.1a.207.207,0,0,0-.037.063m-10.373-.028a.237.237,0,0,0,.081,0c.019-.007,0-.009-.046-.009s-.06,0-.034.009m9.375.012a.986.986,0,0,0,0,.208l.007.178,0-.194,0-.2.31-.014-.155,0c-.114,0-.158,0-.165.024m-9.442.185c0,.1,0,.144.007.1a1.206,1.206,0,0,0,0-.183c0-.053-.007-.014-.007.086m4.976-.158a.21.21,0,0,1,.153.069.2.2,0,0,1,.067.155l.007.095,0-.095a.216.216,0,0,0-.232-.234l-.095,0,.095.007m7.387.077a.258.258,0,0,0,.028.111c.021.032.026.037.018.012s-.021-.075-.03-.111c-.014-.069-.014-.069-.017-.012M14.052,17.2c-.037.051-.049.079-.028.06s.116-.158.1-.158a.658.658,0,0,0-.074.1m11.256-.037c0,.039,0,.056.009.037a.187.187,0,0,0,0-.071c0-.019-.009,0-.009.034m-3.631.06c0,.088,0,.1-.049.111-.027.007-.051.021-.051.03s.028.005.06-.011c.053-.028.1-.229.049-.229a.286.286,0,0,0-.009.1m11.9.016c0,.074,0,.085-.037.088s-.037,0,0,.012c.055.014.067-.014.051-.1l-.014-.081,0,.086M18.141,17.21a.253.253,0,0,0,0,.086c0,.049.009.042.016-.028.009-.088.007-.107-.014-.058m15.667.046c0,.051.074.088.176.088h.1v.241l-.289.007-.287,0H34.1v-.264l-.113,0c-.091,0-.121-.016-.144-.051s-.03-.032-.03-.021M21.943,17.3c.007.024.039.033.128.033l.116,0-.109-.007a.262.262,0,0,1-.125-.033c-.012-.018-.014-.016-.009,0m1.515.044a.149.149,0,0,0-.065.028c0,.017.1-.014.128-.032s.023-.021-.063,0m10.017.119c0,.06,0,.085.009.055a.447.447,0,0,0,0-.111c0-.03-.009,0-.009.056M13.6,17.4c-.025.012,0,.014.06,0a.373.373,0,0,0,.107-.018c.018-.014-.128,0-.167.014m8.62.06c0,.051,0,.069.007.046a.311.311,0,0,0,0-.093c0-.024-.007,0-.007.046m1.024-.068a.287.287,0,0,0,.09,0c.025,0,0-.007-.044-.007s-.069,0-.046.007m2.734.035a.255.255,0,0,0,.109.03c.06,0,.06,0-.009-.016q-.055-.013-.109-.03c-.025-.009-.024,0,.009.016m-3.051.007a.5.5,0,0,0,.118,0c.03,0,0-.009-.065-.009s-.09,0-.053.009m2.449.026a.421.421,0,0,0,.079.116l.069.077-.063-.081a.348.348,0,0,1-.06-.1.052.052,0,0,0-.019-.037c-.009,0-.014.007-.007.03m.936-.007a.191.191,0,0,0,.081,0c.018,0,0-.009-.047-.007s-.058,0-.034.007m-7.932.046-.079.016.074,0a.126.126,0,0,0,.086-.018c.007-.01.009-.019,0-.017a.734.734,0,0,1-.085.016m3.2.058c0,.037.074.046.35.039l.257-.007-.278,0a.875.875,0,0,1-.3-.028c-.018-.019-.025-.019-.025,0m5.333.069a.351.351,0,0,1-.123.083.57.57,0,0,0-.111.065c0,.007.007.007.016,0,.2-.1.264-.141.239-.167-.007-.007-.017,0-.021.016m-1.353.06a.915.915,0,0,0,.315.155c.026,0,.021-.007-.014-.018a1.181,1.181,0,0,1-.266-.13c-.044-.028-.053-.03-.035-.007m1.02.116a.186.186,0,0,1-.079.023c-.042,0-.044,0-.009.012a.241.241,0,0,0,.109-.024c.037-.016.056-.03.04-.03a.151.151,0,0,0-.06.018m-.5.077c.058,0,.15,0,.208,0s.012-.007-.1-.007-.162,0-.1.007m10.946.3c0,.067,0,.093.007.055a.523.523,0,0,0,0-.12c0-.03-.007,0-.007.065M.99,18.252a.291.291,0,0,0,.016.119c.009.018.014-.009.007-.069C1,18.164.989,18.143.989,18.252m35.984.185c-.007.044,0,.069.007.058a.12.12,0,0,0,.012-.074c-.007-.053-.009-.053-.019.016m-35.946.019a.166.166,0,0,0,.021.078c.014.021.017.009.007-.042-.016-.085-.028-.1-.028-.037m35.886.18a.317.317,0,0,0-.026.1.418.418,0,0,0,.062-.176c0-.014-.021.021-.037.077m-35.8.092c.03.074.049.107.049.084a.577.577,0,0,0-.07-.157.184.184,0,0,0,.021.074m35.693.141c-.03.06-.046.1-.039.1a.646.646,0,0,0,.1-.2s-.033.042-.063.1m-35.585.074a1.381,1.381,0,0,0,.181.266c.012.007-.009-.03-.046-.083s-.083-.121-.1-.148-.033-.044-.033-.036m35.429.181c-.03.04-.034.053-.012.037s.082-.1.068-.1a.312.312,0,0,0-.056.067m-.218.255c-.13.13-.134.139-.042.06s.225-.225.2-.218c0,0-.074.071-.155.157m-34.9-.023a1.766,1.766,0,0,0,.208.187c.079.053.081.053.021,0s-.14-.123-.208-.187l-.139-.13.119.125m34.674.22c-.037.03-.044.042-.018.03s.1-.086.085-.083a.34.34,0,0,0-.068.053m-34,.238a.163.163,0,0,0,.091.023c.018,0,.014-.009-.014-.012a.075.075,0,0,1-.056-.021.056.056,0,0,0-.046-.021c-.021,0-.012.012.026.03m.366.1a.183.183,0,0,0,.088,0c.026,0,0-.007-.044-.007s-.069,0-.044.007m32.761,0a.183.183,0,0,0,.088,0c.026,0,0-.007-.044-.007s-.069,0-.044.007m-24.416.042c4.45,0,11.731,0,16.181,0s.808,0-8.092,0-12.539,0-8.089,0" transform="translate(-0.412 -0.324)" fill="#27d4dc" fill-rule="evenodd"/>
    </g>
  </g>
</svg>
