<svg xmlns="http://www.w3.org/2000/svg" width="38" height="24" fill="none" aria-labelledby="pi-aman" role="img" viewBox="0 0 38 24"><title id="pi-aman">Aman</title><path fill="#00A8C4" d="M0 0h38v24H0z"/><path fill="#fff" d="M31.415 6.438a1.44 1.44 0 0 0-.79-.403 1.7 1.7 0 0 0-.602-.015.4.4 0 0 1-.117.022 1.4 1.4 0 0 0-.376.125 1.65 1.65 0 0 0-.825 1.026 2.15 2.15 0 0 0 .061.965c.016.013-.07.021-.22.021a1 1 0 0 0-.272.028q-.064.482-.014.967c.024.021 3.256.023 3.28 0a5 5 0 0 0-.022-.976 7 7 0 0 0-.707-.02c-.777 0-.85-.012-1.013-.178a.62.62 0 0 1-.103-.665.707.707 0 0 1 1.137-.088c.056.058.088.096.121.098.055.002.116-.094.306-.362.2-.279.266-.367.249-.433-.01-.035-.043-.064-.093-.112M17.872 11.84c0-2.211-.009-3.591-.023-3.612l.006-.007a11 11 0 0 0-1.699-.02c-.045.026-.062 7.12-.016 7.6a2.185 2.185 0 0 0 2.109 2.144c.274.045 5.05.03 5.066-.014.009-.019.017-.733.017-1.582 0-1.385-.002-1.638.081-1.859.021-.056.048-.11.081-.18a1.16 1.16 0 0 1 1.321-.54c.566.133.813.513.813 1.252 0 .643-.199.967-.69 1.115l-.144.048a1 1 0 0 1-.253.021h-.203l-.496.43a8 8 0 0 0-.496.45q.14.156.304.288l.679.597h.296c.297.007.593-.041.874-.141a2.68 2.68 0 0 0 1.752-1.75 4 4 0 0 0 .105-1.767 2 2 0 0 0-.118-.43.1.1 0 0 1-.019-.052 2.83 2.83 0 0 0-1.734-1.705l-.163-.046a3.6 3.6 0 0 0-1.65-.017 2.65 2.65 0 0 0-1.92 1.968 3 3 0 0 0-.089.369l-.044.247-.004.021c-.013.075-.03.452-.039.838l-.014.707h-1.388c-1.84 0-2.004-.032-2.184-.437q-.02-.038-.033-.071c-.085-.196-.085-.429-.085-3.865m12.954 6.11v-4.073l-.004.014V9.804l-.877-.008a3.6 3.6 0 0 0-.887.024v8.13zm-16.581-5.868v-.008l.003.008zm0 2.84q.075-1.42 0-2.84a10 10 0 0 0-1.689 0 5.8 5.8 0 0 0-.034 1.317c0 .864-.01 1.327-.027 1.42a1.544 1.544 0 0 1-1.324 1.37 3.2 3.2 0 0 1-.787.022 1.7 1.7 0 0 1-.618-.2 1.52 1.52 0 0 1-.796-1.09 4.1 4.1 0 0 1 0-1.024q.073-.295.21-.566c.05-.097.078-.143.07-.18-.01-.04-.061-.071-.17-.148-.06-.04-.181-.127-.313-.223-.068-.05-.14-.1-.206-.149-.49-.358-.618-.465-.688-.435-.035.015-.056.066-.102.137a4.3 4.3 0 0 0-.538 1.317l-.05.243a7 7 0 0 0 0 1.265l.05.246q.02.09.042.178l.05.162a.5.5 0 0 0 .05.127.1.1 0 0 1 .02.057 3.2 3.2 0 0 0 .315.62 3.24 3.24 0 0 0 1.663 1.254q.354.11.722.162c.41.04.825.04 1.236 0a3.8 3.8 0 0 0 .767-.184.1.1 0 0 1 .053-.02c.445-.17.85-.434 1.185-.772.282-.313.503-.675.653-1.068q0-.031.019-.054.084-.217.141-.442c.009-.033.021-.103.034-.176z"/><path fill="#EE6F2A" d="M11.164 12.323c.024 0 .038-.668.038-2.453h-.009c0-.43 0-.433-.236-.235a4 4 0 0 1-.184.133 2 2 0 0 0-.16.118 2 2 0 0 1-.16.117q-.084.055-.16.118l-.163.118-.04.03a2 2 0 0 0-.12.088l-.22.16a1 1 0 0 0-.1.076 1 1 0 0 1-.075.055l-.086.062a4 4 0 0 0-.233.175c-.088.056-.081.086.036.164l.243.17q.165.115.328.235l.35.237q.114.086.237.156c.033.02.208.138.378.256q.159.123.336.22"/></svg>