<svg xmlns="http://www.w3.org/2000/svg" viewBox="0 0 38 24" width="38" height="24" fill="none" aria-labelledby="pi-aman" role="img"><title id="pi-aman">Aman</title><path fill="#00A8C4" d="M0 0h38v24H0z"/><path fill="#fff" d="M31.415 6.438a1.439 1.439 0 0 0-.79-.403 1.713 1.713 0 0 0-.602-.015.354.354 0 0 1-.117.022 1.36 1.36 0 0 0-.376.125 1.65 1.65 0 0 0-.825 1.026 2.15 2.15 0 0 0 .061.965c.016.013-.07.021-.22.021a.956.956 0 0 0-.272.028c-.043.32-.047.645-.014.967.024.021 3.256.023 3.28 0a5.155 5.155 0 0 0-.022-.976 7.34 7.34 0 0 0-.707-.02c-.777 0-.85-.012-1.013-.178a.62.62 0 0 1-.103-.665.707.707 0 0 1 1.137-.088c.056.058.088.096.121.098.055.002.116-.094.306-.362.2-.279.266-.367.249-.433-.01-.035-.043-.064-.093-.112ZM17.872 11.84c0-2.211-.009-3.591-.023-3.612l.006-.007a10.924 10.924 0 0 0-1.699-.02c-.045.026-.062 7.12-.016 7.6a2.185 2.185 0 0 0 2.109 2.144c.274.045 5.05.03 5.066-.014.009-.019.017-.733.017-1.582 0-1.385-.002-1.638.081-1.859.021-.056.048-.11.081-.18a1.162 1.162 0 0 1 1.321-.54c.566.133.813.513.813 1.252 0 .643-.199.967-.69 1.115l-.144.048a1.031 1.031 0 0 1-.253.021h-.203l-.496.43c-.272.236-.496.44-.496.45.094.104.195.2.304.288l.679.597h.296c.297.007.593-.041.874-.141a2.678 2.678 0 0 0 1.752-1.75 3.98 3.98 0 0 0 .105-1.767 2.012 2.012 0 0 0-.118-.43.098.098 0 0 1-.019-.052 2.828 2.828 0 0 0-1.734-1.705l-.163-.046a3.617 3.617 0 0 0-1.65-.017 2.645 2.645 0 0 0-1.92 1.968 3.091 3.091 0 0 0-.089.369l-.044.247-.004.021c-.013.075-.03.452-.039.838l-.014.707h-1.388c-1.84 0-2.004-.032-2.184-.437-.013-.026-.024-.048-.033-.071-.085-.196-.085-.429-.085-3.865ZM30.826 17.95v-4.073l-.004.014V9.804l-.877-.008a3.605 3.605 0 0 0-.887.024v8.13h1.768ZM14.245 12.082v-.008l.003.008h-.003ZM14.245 14.922c.05-.946.05-1.894 0-2.84a9.922 9.922 0 0 0-1.689 0 5.834 5.834 0 0 0-.034 1.317c0 .864-.01 1.327-.027 1.42a1.544 1.544 0 0 1-1.324 1.37c-.26.04-.525.047-.787.022a1.705 1.705 0 0 1-.618-.2 1.516 1.516 0 0 1-.796-1.09 4.14 4.14 0 0 1 0-1.024c.048-.196.119-.386.21-.566.05-.097.078-.143.07-.18-.01-.04-.061-.071-.17-.148-.06-.04-.181-.127-.313-.223-.068-.05-.14-.1-.206-.149-.49-.358-.618-.465-.688-.435-.035.015-.056.066-.102.137a4.3 4.3 0 0 0-.538 1.317l-.05.243a7.13 7.13 0 0 0 0 1.265l.05.246c.013.06.027.119.042.178l.05.162a.54.54 0 0 0 .05.127c.012.017.019.036.02.057.082.217.188.426.315.62.401.59.986 1.03 1.663 1.254.236.073.477.127.722.162.41.04.825.04 1.236 0a3.78 3.78 0 0 0 .767-.184.084.084 0 0 1 .053-.02c.445-.17.85-.434 1.185-.772.282-.313.503-.675.653-1.068 0-.02.007-.04.019-.054.056-.145.103-.292.141-.442.009-.033.021-.103.034-.176a17.506 17.506 0 0 1 .062-.326Z"/><path fill="#EE6F2A" d="M11.164 12.323c.024 0 .038-.668.038-2.453h-.009c0-.43 0-.433-.236-.235a3.498 3.498 0 0 1-.184.133c-.055.036-.109.075-.16.118a2.191 2.191 0 0 1-.16.117c-.056.037-.11.076-.16.118l-.163.118-.04.03c-.064.045-.113.081-.12.088a12.084 12.084 0 0 1-.22.16.995.995 0 0 0-.1.076.677.677 0 0 1-.075.055l-.086.062a3.679 3.679 0 0 0-.233.175c-.088.056-.081.086.036.164l.243.17c.11.077.22.155.328.235l.35.237c.076.057.155.11.237.156.033.02.208.138.378.256.106.082.218.155.336.22Z"/></svg>