<svg xmlns="http://www.w3.org/2000/svg" width="38" height="24" viewBox="0 0 38 24"><path opacity="0.07" d="M35,0H3C1.3,0,0,1.3,0,3v18c0,1.7,1.4,3,3,3h32c1.7,0,3-1.3,3-3V3
	C38,1.3,36.6,0,35,0z"/><path fill="#FFFFFF" d="M35,1c1.1,0,2,0.9,2,2v18c0,1.1-0.9,2-2,2H3c-1.1,0-2-0.9-2-2V3c0-1.1,0.9-2,2-2H35"/>
	<path fill="#EC1C24" d="M25.24,8.564c1.901,0,3.439,1.54,3.439,3.442c0,1.901-1.538,3.44-3.439,3.44
		c-0.414,0-0.811-0.073-1.181-0.209v5.436c0.388,0.052,0.784,0.083,1.186,0.083c4.836,0,8.755-3.922,8.755-8.754
		c0-4.836-3.919-8.755-8.755-8.755c-2.138,0-4.096,0.769-5.618,2.042c1.336,1.331,2.266,3.115,2.567,5.122
		C22.764,9.314,23.914,8.564,25.24,8.564"/>
	<path fill="#EC1C24" d="M12.769,20.755c0.899,0,1.765-0.137,2.582-0.39v-6.082
		c-0.634,0.714-1.552,1.164-2.578,1.164c-1.904,0-3.444-1.541-3.444-3.442c0-1.902,1.54-3.442,3.444-3.442
		c1.901,0,3.438,1.54,3.438,3.442h0.002v8.749h5.323v-8.749h-0.002V12c0-4.835-3.928-8.757-8.766-8.757C7.926,3.243,4,7.165,4,12
		C4,16.834,7.926,20.755,12.769,20.755"/>

</svg>
