<svg xmlns="http://www.w3.org/2000/svg" width="38" height="24" fill="none" aria-labelledby="pi-ambank" role="img" viewBox="0 0 38 24"><title id="pi-ambank">AmBank</title><path fill="#fff" d="M0 0h38v24H0z"/><path fill="#EC1C24" d="M25.24 8.564a3.44 3.44 0 0 1 3.439 3.442 3.44 3.44 0 0 1-4.62 3.231v5.436A8.757 8.757 0 0 0 34 12.003a8.754 8.754 0 0 0-14.373-6.714 9.14 9.14 0 0 1 2.567 5.122 3.43 3.43 0 0 1 3.046-1.847"/><path fill="#EC1C24" d="M12.769 20.755c.875 0 1.746-.13 2.582-.39v-6.082a3.442 3.442 0 1 1 .86-2.278h.002v8.749h5.323v-8.749h-.002V12c0-4.835-3.928-8.757-8.766-8.757C7.926 3.243 4 7.165 4 12s3.926 8.755 8.769 8.755"/></svg>