<svg xmlns="http://www.w3.org/2000/svg" width="38" height="24" aria-labelledby="pi-american_express" role="img" viewBox="0 0 38 24"><title id="pi-american_express">American Express</title><path fill-opacity=".07" d="M38 2v20a2 2 0 0 1-2 2H2a2 2 0 0 1-2-2V2a2 2 0 0 1 2-2h34a2 2 0 0 1 2 2Z"/><path fill="#006fcf" d="M37 3v18a2 2 0 0 1-2 2H3a2 2 0 0 1-2-2V3a2 2 0 0 1 2-2h32a2 2 0 0 1 2 2Z"/><path fill="#fff" d="m33.077 6.397.704-1.914H37v15.041h-3.036l-1.122-1.313-1.166 1.313h-8.624v-6.989h-2.845l3.556-8.052h3.462l.836 1.826V4.483h4.297l.719 1.914Zm-2.428 1.269-.007-.77.293.77 1.43 3.821h1.423l1.437-3.821.279-.763v4.584H37V5.62h-2.486l-1.129 2.977-.301.807-.308-.807-1.137-2.977h-2.486v5.867h1.496V7.666Zm-3.219 3.821h1.723L26.572 5.62H24.57l-2.596 5.867h1.701l.455-1.13h2.845l.455 1.13Zm-2.171-3.88.294-.733.293.733.609 1.482h-1.804l.608-1.482Zm-1.004 4.936v5.844h4.898v-1.268h-3.402v-1.02h3.336v-1.261h-3.336v-1.027h3.402v-1.268h-4.898Zm10.347 5.844h1.943l-2.742-2.933 2.742-2.911h-1.914l-1.767 1.899-1.76-1.899h-1.951l2.736 2.933-2.736 2.911h1.892l1.782-1.906 1.775 1.906Zm.741-2.94L37 17.133v-3.351l-1.657 1.665Z"/></svg>
