<svg xmlns="http://www.w3.org/2000/svg" width="38" height="24" fill="none" aria-labelledby="pi-american_express" role="img" viewBox="0 0 38 24"><title id="pi-american_express">American Express</title><g clip-path="url(#pi-american_express_clip)"><path fill="#006FCF" d="M0 0h38v24H0z"/><path fill="#fff" d="M23.012 19.936v-8.421L38 11.528v2.326l-1.732 1.852L38 17.573v2.375h-2.766l-1.47-1.622-1.46 1.628-9.292-.02z"/><path fill="#006FCF" d="M24.013 19.012v-6.57h5.572v1.513h-3.768v1.028h3.678v1.488h-3.678v1.01h3.768v1.531z"/><path fill="#006FCF" d="m29.557 19.012 3.083-3.289-3.083-3.282h2.386l1.884 2.083 1.89-2.082H38v.051l-3.017 3.23L38 18.92v.093h-2.307l-1.917-2.103-1.898 2.104h-2.321z"/><path fill="#fff" d="M23.71 4.04h3.614l1.269 2.881V4.04h4.46l.77 2.159.771-2.159H38v8.421H20z"/><path fill="#006FCF" d="m24.395 4.955-2.916 6.566h2l.55-1.315h2.98l.55 1.315h2.05l-2.904-6.566zm.25 3.777.875-2.09.873 2.09z"/><path fill="#006FCF" d="M29.581 11.52V4.953l2.811.01L33.84 9l1.456-4.046H38v6.565l-1.74.016v-4.51l-1.644 4.494h-1.59L31.35 7.01v4.51h-1.769"/></g><defs><clipPath id="pi-american_express_clip"><path fill="#fff" d="M0 0h38v24H0z"/></clipPath></defs></svg>