<svg xmlns="http://www.w3.org/2000/svg" role="img" viewBox="0 0 38 24" width="38" height="24" aria-labelledby="pi-amwalpay">
  <title id="pi-amwalpay">AmwalPay</title>
  <path fill="#000" opacity=".07" d="M35 0H3C1.3 0 0 1.3 0 3v18c0 1.7 1.4 3 3 3h32c1.7 0 3-1.3 3-3V3c0-1.7-1.4-3-3-3z"/>
  <path fill="#fff" d="M35 1c1.1 0 2 .9 2 2v18c0 1.1-.9 2-2 2H3c-1.1 0-2-.9-2-2V3c0-1.1.9-2 2-2h32"/>
  <g transform="translate(6.74, 0.70) scale(0.0799)">
    <path fill="#ac2ced" d="M221 29a121 121 0 0 1 47 84v4h2v162q-18 1-31-10l-3-2q-7-6-11-14-3-5-9-6h-68q-20 1-39-7v-38l13 4a84 84 0 0 0 94-30l1-2c15-18 17-42 15-64q-7-32-34-53-15-9-32-14l-2-1c-20-4-44 2-61 12l-8 6-3 2a86 86 0 0 0-26 40l-1 2q-3 17-3 33v75l-3-3-2-1c-18-16-29-45-31-69q-3-39 16-73l2-3a119 119 0 0 1 72-54l6-2c34-8 71 2 99 22"/>
    <path fill="#b42eea" d="M170 92q14 10 17 26 2 20-11 35-11 12-28 12a41 41 0 0 1-37-20l-1-2c-5-8-4-21-2-30q8-19 24-26 20-6 38 5"/>
    <path fill="#bb5edb" d="M269 117h1v162q-18 1-31-10l-3-2q-7-6-11-14-3-5-9-6h-68q-20 1-39-7v-38l13 4q37 11 70-7l3-2v2q-4 4-7 3v2q-28 14-60 8l-2-2h-6v-2h-6v-2h-2l-1 33 12 1 7 2 10 1h3l43 2h34v2l2 1q8 3 10 11l3 3v2h2l4 3 13 7 2 1 13 3z"/>
    <path fill="#832fdd" d="M192 14c24 7 47 27 60 49q8 15 13 30l1 2q4 20 3 38v145q-7 1-13-2c6-3 6-3 11-2V119l-2-1v-4l-2-18h-2l-1-3q-1-11-6-20l-2-1v-6l-3-1-3-5-2-1-1-3-1-4-3-1-4-4-2-2-1-4-8-2v-2q0-3-4-5l-8-1v-3l-3-1-2-2-8-5-1-2h-6z"/>
    <path fill="#8b38dd" d="M200 58q7 1 12 7l4 2v4l2 1q4 3 4 7 1 6 6 11 5 8 6 18l1 4 1 6v8l-1 17-3 1v3q-1 12-7 20l-2 5-4 4-2-1 2-3q6-10 10-22l1-3a86 86 0 0 0-27-86z"/>
    <path fill="#c94dce" d="m111 12-2 1-4 3-8 1v2l-18 9v2h-2l-1 2q-5 7-12 11l-3 3-2 2h-2l-1 2-4 7-7 13-3 3-6 11-1-4 3-7 1-3q17-29 45-47l3-2c18-11 18-11 24-9"/>
    <path fill="#a74ad2" d="M160 88q6 1 11 5l2 1q11 10 14 24 2 20-11 35-10 11-26 12l-15-1v-2h13q9 1 17-4l3-2 4-4h3l1-5h2v-2l2-1 1-5h2q5-18-4-34v-2l-4-1v-2h-2l-1-2-3-4-3-1-2-1v-2z"/>
    <path fill="#f4c7f3" d="M64 106h1l-1 107-3-1 1-88v-3q0-7 2-15"/>
    <path fill="#bd46cd" d="M108 49h2l-10 7a86 86 0 0 0-36 54l-2-1q2-14 8-26h2v-3h2v-2l1-2 3-1 1-4 2-4 2-2 5-2v-2l3-1 1-4 7-1v-3l2-1z"/>
    <path fill="#b650ce" d="M128 90v2l-2 1-3 3h-2l-1 3-2 2q-9 11-8 25l-1 3q1 7 4 13v3l2 1 3 4v2l4 1v2h2l1 1q4 4 9 4v3q-14-4-23-18l-1-2c-5-8-4-21-2-30 3-8 10-23 20-23"/>
    <path fill="#ca44c5" d="m62 110 1 8v42l-1 17v35l-3-3h2v-3l-1-30v-15l-1-15v-6c0-20 0-20 2-29z"/>
    <path fill="#9a48d0" d="M191 13v2c-17-3-17-3-19-5h-4l-6-2h-20q-12 0-22 2h-6c23-10 54-6 77 3"/>
    <path fill="#a046d0" d="M188 245h32v2l2 1q8 3 10 11l3 3v2h2l4 3 7 5 3 1 11 4q-7 2-14-2l-9-6-3-2q-7-6-11-14-3-5-9-6l-14-1h-14z"/>
    <path fill="#7d37dc" d="M241 49c11 10 22 30 24 45l-1 4-2-7h-2l-1-2c-1-9-1-9-5-16l-2-1v-6l-3-1-3-5-2-1-2-5v-3z"/>
    <path fill="#ae4bcd" d="m111 12-2 1-4 3-8 1v2l-18 9v2h-2v2l-5 1-1 3-4 4-3 1-6 4q11-13 26-22l3-2c18-11 18-11 24-9"/>
    <path fill="#973fcf" d="M140 39h12q11 0 21 2v2l5 2h-7l-5-2-2-1h-33q4-4 9-3"/>
    <path fill="#964dd5" d="M233 119h1q1 16-2 32l-1 3q-2 7-6 13l-2 5-4 4-2-1 2-3q7-10 10-22l1-3q3-13 3-28"/>
    <path fill="#922bec" d="M267 210h1v67c-9 0-9 0-12-2 5-2 6-2 11-1z"/>
    <path fill="#883bde" d="m192 14 16 7 2 1 9 7-13-5-2-1-6-5h-6z"/>
    <path fill="#7f31e6" d="M261 91q4 4 3 7h2q3 11 2 21v10h-1v-10l-2-1v-4l-2-18h-2l-1-4z"/>
    <path fill="#a447ce" d="M146 85h2q7 0 12 2l-10 1q-9 0-16 2l-6-1q8-4 18-4"/>
    <path fill="#f5c7fb" d="M168 208q-10 5-20 3h-10l-5-2z"/>
    <path fill="#c542d4" d="m72 33 3 1q-5 5-11 9l-3 3-2 2h-2l-1 2q-1 3-4 5 2-9 10-13c6-4 6-4 10-9"/>
    <path fill="#c63cd4" d="m110 204 10 3v1h-6v-2h-2l-1 33h-1z"/>
    <path fill="#f1c9fb" d="M148 84h9l5 2v2l-3-1q-15-3-31 2v-2h2v-2z"/>
    <path fill="#bd57cd" d="m79 26 1 2-1 2h-2v2l-5 1-1 3-4 4-3 1-6 4q9-11 21-19"/>
    <path fill="#8742df" d="M241 49q6 5 9 12l1 1 3 5-1 2-1-3-3-1-3-5-2-1-2-5v-3z"/>
    <path fill="#9d3dd8" d="M160 88q6 1 11 5l2 1 4 4v5l-2-1v-2h-2l-1-2-3-4-3-1-2-1v-2z"/>
    <path fill="#bd33e2" d="m92 21-1 3h-2l-1 2-4 3v2l-7 1v-2h2v-2l5-4 3-2z"/>
    <path fill="#8e33e1" d="M172 9q10 0 19 4v2l-18-4z"/>
    <path fill="#a339d8" d="M139 39h17v1h-8l-2 1-8 1h-7q3-4 8-3"/>
    <path fill="#9741d6" d="m244 271 12 4 3 1 3 1q-7 2-14-2z"/>
    <path fill="#9d45d7" d="M216 176v8l-5 2-4 2q4-7 9-12"/>
    <path fill="#8626f7" d="m209 25 10 4 1 3-8-1v-3l-3-1z"/>
    <path fill="#8a30e6" d="M214 67h2v4l2 1q4 3 4 8l-3-3-2-2-3-2z"/>
    <path fill="#f4d3fd" d="m240 270 2 1q7 4 16 6v1q-10 1-18-6z"/>
    <path fill="#e33bd4" d="M60 193h1v15l-1-4-3 1-1-5 4 1z"/>
    <path fill="#d645cf" d="m38 78 2 1-5 11-2-4z"/>
    <path fill="#a547d4" d="m206 188-1 5-6 2v2l-4-1z"/>
    <path fill="#f9e0fe" d="M225 156h2q-2 8-6 14l-1-4 4-6z"/>
    <path fill="#fadbfc" d="m89 21-12 7v-3h3v-2h2v-2z"/>
    <path fill="#9644d7" d="m188 50 7 1 2 4 3 1-1 2-5-3-4-2-2-2z"/>
    <path fill="#e7c5fa" d="m228 98 3 6 1 2-1 6v-2h-2z"/>
    <path fill="#fadcfe" d="M144 84v1l-6 1-3 1-5 2h-2v-2h2v-2z"/>
    <path fill="#c332d9" d="m109 126 3 8v5l-3-2v-11"/>
    <path fill="#bf34e0" d="M127 152v7l-3-2v-2h-2v-2z"/>
    <path fill="#b740d2" d="m111 139 2 6 2 1 3 3v2l-7-6z"/>
    <path fill="#da3dd2" d="m32 92 2 1v2l-1 6-1 3-3 2z"/>
    <path fill="#fbe4fe" d="m212 176 4 1-6 7-1-3h2z"/>
    <path fill="#994bd9" d="M223 165v7l-4 4-2-1z"/>
    <path fill="#d942c8" d="m55 201 1 2 4 1 1 5-4-1q-2-3-2-7"/>
    <path fill="#a74ed2" d="M160 88q6 1 11 5h-5l-2-1v-2z"/>
    <path fill="#fadcfb" d="m67 34 2 1-8 6v-4z"/>
    <path fill="#fcd9fd" d="m77 78 1 2-3 7-3 1q1-6 5-10"/>
    <path fill="#c733df" d="m72 33 3 1-8 6z"/>
    <path fill="#8942dc" d="M219 29q5 2 8 6l-2 1v-2l-5-1z"/>
    <path fill="#fdd4fa" d="m45 193 7 9-4-2v-2l-3-1z"/>
    <path fill="#ad40cf" d="M110 49c-5 4-5 4-9 5v-2q4-4 9-3"/>
    <path fill="#7e34dc" d="M236 44q6 3 6 6v2q-4-1-6-5z"/>
    <path fill="#bc31e2" d="m117 100 2 1v3l-6 3z"/>
    <path fill="#f5d8fe" d="m207 65 7 6-1 2-4-3v-2h-2z"/>
    <path fill="#ad50d2" d="m120 45-7 4-3-1q4-4 10-3"/>
  </g>
</svg>