<svg xmlns="http://www.w3.org/2000/svg" role="img" viewBox="0 0 38 24" width="38" height="24" aria-labelledby="pi-amwalpay"><title id="pi-amwalpay">AmwalPay</title><path fill="#000" opacity=".07" d="M35 0H3C1.3 0 0 1.3 0 3v18c0 1.7 1.4 3 3 3h32c1.7 0 3-1.3 3-3V3c0-1.7-1.4-3-3-3z"/><path fill="#fff" d="M35 1c1.1 0 2 .9 2 2v18c0 1.1-.9 2-2 2H3c-1.1 0-2-.9-2-2V3c0-1.1.9-2 2-2h32"/><path fill="#ac2ced" d="M19.916 2.417a10.083 10.083 0 013.916 7v.333H24v13.5q-1.5.082-2.583-.834l-.25-.167q-.583-.5-.917-1.167-.25-.416-.75-.5h-5.666q-1.667.084-3.25-.583v-3.166l1.083.333a7 7 0 007.833-2.5l.084-.167c1.25-1.5 1.416-3.5 1.25-5.333Q20.249 6.5 17.999 4.75 16.75 4 15.333 3.583l-.167-.083c-1.666-.333-3.666.167-5.083 1l-.667.5-.25.166A7.166 7.166 0 007 8.5l-.084.166q-.25 1.417-.25 2.75v6.25l-.25-.25-.166-.083c-1.5-1.334-2.417-3.75-2.583-5.75Q3.417 8.333 5 5.5l.167-.25a9.916 9.916 0 016-4.5l.5-.167c2.832-.666 5.916.167 8.249 1.834"/><path fill="#b42eea" d="M15.666 7.666q1.167.834 1.417 2.167.166 1.667-.917 2.916-.917 1-2.333 1a3.417 3.417 0 01-3.083-1.666l-.084-.167c-.416-.666-.333-1.75-.166-2.5q.666-1.583 2-2.166 1.666-.5 3.166.416"/><path fill="#bb5edb" d="M23.916 9.75h.083v13.5q-1.5.082-2.583-.834l-.25-.167q-.583-.5-.917-1.167-.25-.416-.75-.5h-5.666q-1.667.084-3.25-.583v-3.166l1.083.333q3.083.917 5.833-.583l.25-.167v.167q-.333.333-.583.25v.166q-2.333 1.167-5 .667L12 17.499h-.5v-.166H11v-.167h-.167l-.083 2.75 1 .083.583.167.833.083h.25l3.583.167h2.834v.167l.166.083q.667.25.834.916l.25.25V22h.166l.334.25 1.083.583.166.084 1.084.25z"/><path fill="#832fdd" d="M17.5 1.167c2 .583 3.916 2.25 5 4.083q.666 1.25 1.082 2.5l.084.166q.333 1.667.25 3.167v12.083q-.584.083-1.084-.167c.5-.25.5-.25.917-.167V9.916l-.167-.083V9.5L23.416 8h-.167l-.083-.25q-.084-.917-.5-1.667L22.499 6v-.5l-.25-.084L22 5l-.166-.084-.084-.25-.083-.333-.25-.083-.333-.333-.167-.167-.083-.333-.667-.167v-.167q0-.25-.333-.416l-.667-.084v-.25l-.25-.083-.167-.167-.666-.416-.084-.167h-.5z"/><path fill="#8b38dd" d="M18.166 4.833q.583.083 1 .583l.333.167v.333l.167.084q.333.25.333.583.084.5.5.917.417.666.5 1.5l.084.333.083.5v.667l-.083 1.416-.25.084v.25q-.084 1-.584 1.666l-.166.417-.334.333-.166-.083.166-.25q.5-.834.834-1.833l.083-.25a7.166 7.166 0 00-2.25-7.167z"/><path fill="#c94dce" d="M10.75 1l-.167.083-.333.25-.667.084v.166l-1.5.75V2.5h-.167l-.083.167q-.417.583-1 .916l-.25.25L6.416 4H6.25l-.084.166-.333.584-.583 1.083-.25.25L4.5 7l-.083-.334.25-.583.083-.25Q6.166 3.417 8.5 1.917l.25-.167c1.5-.917 1.5-.917 2-.75"/><path fill="#a74ad2" d="M14.833 7.333q.5.083.916.417l.167.083q.917.833 1.167 2 .166 1.667-.917 2.916-.833.917-2.167 1l-1.25-.083V13.5h1.084q.75.084 1.416-.333L15.5 13l.334-.333h.25l.083-.416h.167v-.167l.166-.083.084-.417h.166q.417-1.5-.333-2.833v-.167l-.333-.083v-.167h-.167l-.083-.167-.25-.333-.25-.083-.167-.084V7.5z"/><path fill="#f4c7f3" d="M6.833 8.833h.083l-.083 8.916-.25-.083.083-7.333v-.25q0-.583.167-1.25"/><path fill="#bd46cd" d="M10.5 4.083h.166l-.833.583a7.166 7.166 0 00-3 4.5l-.167-.083q.167-1.167.667-2.167H7.5v-.25h.166V6.5l.084-.167L8 6.25l.083-.334.167-.333.166-.167.417-.166v-.167L9.083 5l.083-.334.584-.083v-.25l.166-.083z"/><path fill="#b650ce" d="M12.166 7.5v.166L12 7.75l-.25.25h-.167l-.083.25-.167.166q-.75.917-.667 2.084l-.083.25q.083.583.333 1.083v.25l.167.083.25.334v.166l.333.083v.167h.167l.083.083q.334.334.75.334v.25q-1.166-.334-1.916-1.5l-.084-.167c-.416-.666-.333-1.75-.166-2.5.25-.666.833-1.916 1.666-1.916"/><path fill="#ca44c5" d="M6.666 9.166l.084.667v3.5l-.084 1.416v2.917l-.25-.25h.167v-.25l-.083-2.5v-1.25l-.084-1.25v-.5c0-1.666 0-1.666.167-2.416z"/><path fill="#9a48d0" d="M17.416 1.083v.167C15.999 1 15.999 1 15.833.833h-.334L15 .667h-1.666q-1 0-1.833.166H11c1.916-.833 4.5-.5 6.416.25"/><path fill="#a046d0" d="M17.166 20.416h2.667v.167l.166.083q.667.25.834.916l.25.25V22h.166l.334.25.583.417.25.083.916.333q-.583.167-1.166-.166l-.75-.5-.25-.167q-.583-.5-.917-1.167-.25-.416-.75-.5l-1.166-.083h-1.167z"/><path fill="#7d37dc" d="M21.583 4.083c.916.833 1.833 2.5 2 3.75l-.084.333-.167-.583h-.166l-.084-.167c-.083-.75-.083-.75-.416-1.333L22.499 6v-.5l-.25-.084L22 5l-.166-.084-.167-.416v-.25z"/><path fill="#ae4bcd" d="M10.75 1l-.167.083-.333.25-.667.084v.166l-1.5.75V2.5h-.167v.167L7.5 2.75 7.416 3l-.333.333-.25.084-.5.333Q7.25 2.667 8.5 1.917l.25-.167c1.5-.917 1.5-.917 2-.75"/><path fill="#973fcf" d="M13.166 3.25h1q.917 0 1.75.167v.166l.417.167h-.584l-.416-.167-.167-.083h-2.75q.334-.333.75-.25"/><path fill="#964dd5" d="M20.916 9.916h.083q.084 1.334-.166 2.667l-.084.25q-.166.583-.5 1.083l-.166.417-.334.333-.166-.083.166-.25q.584-.834.834-1.833l.083-.25q.25-1.084.25-2.334"/><path fill="#922bec" d="M23.75 17.5h.082v5.582c-.75 0-.75 0-1-.166.417-.167.5-.167.917-.084z"/><path fill="#883bde" d="M17.5 1.167l1.333.583.166.083.75.584L18.666 2l-.167-.083L18 1.5h-.5z"/><path fill="#7f31e6" d="M23.25 7.583q.332.333.25.583h.166q.25.917.166 1.75v.834h-.083v-.834l-.167-.083V9.5L23.416 8h-.167l-.083-.334z"/><path fill="#a447ce" d="M13.666 7.083h.167q.583 0 1 .167L14 7.333q-.75 0-1.334.167l-.5-.084q.667-.333 1.5-.333"/><path fill="#f5c7fb" d="M15.5 17.333q-.834.416-1.667.25H13l-.417-.167z"/><path fill="#c542d4" d="M7.5 2.75l.25.083q-.417.417-.917.75l-.25.25L6.416 4H6.25l-.084.166q-.083.25-.333.417.167-.75.833-1.083c.5-.333.5-.333.834-.75"/><path fill="#c63cd4" d="M10.666 17l.834.25v.083H11v-.167h-.167l-.083 2.75h-.084z"/><path fill="#f1c9fb" d="M13.833 7h.75l.416.166v.167l-.25-.083q-1.25-.25-2.583.166V7.25h.167v-.167z"/><path fill="#bd57cd" d="M8.083 2.167l.083.166-.083.167h-.167v.167L7.5 2.75 7.416 3l-.333.333-.25.084-.5.333q.75-.917 1.75-1.583"/><path fill="#8742df" d="M21.583 4.083q.5.417.75 1l.083.083.25.417-.084.167-.083-.25-.25-.084L22 5l-.166-.084-.167-.416v-.25z"/><path fill="#9d3dd8" d="M14.833 7.333q.5.083.916.417l.167.083.333.333v.417l-.166-.083v-.167h-.167l-.083-.167-.25-.333-.25-.083-.167-.084V7.5z"/><path fill="#bd33e2" d="M9.166 1.75L9.083 2h-.167l-.083.167-.333.25v.166l-.584.084V2.5h.167v-.167L8.5 2l.25-.167z"/><path fill="#8e33e1" d="M15.833.75q.833 0 1.583.333v.167l-1.5-.333z"/><path fill="#a339d8" d="M13.083 3.25h1.416v.083h-.666l-.167.084L13 3.5h-.584q.25-.333.667-.25"/><path fill="#9741d6" d="M21.833 22.582l1 .334.25.083.25.083q-.584.167-1.167-.166z"/><path fill="#9d45d7" d="M19.5 14.666v.667l-.417.166-.334.167q.334-.583.75-1"/><path fill="#8626f7" d="M18.916 2.083l.833.334.084.25-.667-.084v-.25l-.25-.083z"/><path fill="#8a30e6" d="M19.333 5.583h.166v.333l.167.084q.333.25.333.666l-.25-.25-.166-.166-.25-.167z"/><path fill="#f4d3fd" d="M21.5 22.5l.166.082q.583.334 1.333.5v.084q-.833.083-1.5-.5z"/><path fill="#e33bd4" d="M6.5 16.083h.083v1.25l-.083-.334-.25.084-.084-.417.334.083z"/><path fill="#d645cf" d="M4.667 6.5l.166.083-.416.917-.167-.334z"/><path fill="#a547d4" d="M18.666 15.666l-.083.417-.5.166v.167l-.334-.083z"/><path fill="#f9e0fe" d="M20.25 13h.166q-.167.666-.5 1.166l-.083-.333.333-.5z"/><path fill="#fadbfc" d="M8.916 1.75l-1 .583v-.25h.25v-.166h.167V1.75z"/><path fill="#9644d7" d="M17.166 4.167l.583.083.167.333.25.083-.083.167-.417-.25-.333-.167-.167-.166z"/><path fill="#e7c5fa" d="M20.5 8.166l.25.5.083.167-.084.5v-.167h-.166z"/><path fill="#fadcfe" d="M13.5 7v.083l-.5.083-.25.084-.417.166h-.167V7.25h.167v-.167z"/><path fill="#c332d9" d="M10.583 10.5l.25.666v.417l-.25-.167V10.5"/><path fill="#bf34e0" d="M12.083 12.666v.583l-.25-.166v-.167h-.167v-.167z"/><path fill="#b740d2" d="M10.75 11.583l.166.5.167.083.25.25v.167l-.583-.5z"/><path fill="#da3dd2" d="M4.167 7.666l.166.084v.166l-.083.5-.083.25-.25.167z"/><path fill="#fbe4fe" d="M19.166 14.666l.333.083-.5.584-.083-.25h.167z"/><path fill="#994bd9" d="M20.083 13.75v.583l-.334.333-.166-.083z"/><path fill="#d942c8" d="M6.083 16.75l.083.166.334.083.083.417-.333-.083q-.167-.25-.167-.584"/><path fill="#a74ed2" d="M14.833 7.333q.5.083.916.417h-.416l-.167-.084V7.5z"/><path fill="#fadcfb" d="M7.083 2.833l.167.084-.667.5v-.334z"/><path fill="#fcd9fd" d="M7.916 6.5L8 6.666l-.25.584-.25.083q.083-.5.416-.833"/><path fill="#c733df" d="M7.5 2.75l.25.083-.667.5z"/><path fill="#8942dc" d="M19.75 2.417q.416.166.666.5L20.249 3v-.167l-.416-.083z"/><path fill="#fdd4fa" d="M5.25 16.083l.583.75-.333-.167v-.167l-.25-.083z"/><path fill="#ad40cf" d="M10.666 4.083c-.416.333-.416.333-.75.417v-.167q.334-.333.75-.25"/><path fill="#7e34dc" d="M21.166 3.667q.5.25.5.5v.166q-.333-.083-.5-.416z"/><path fill="#bc31e2" d="M11.25 8.333l.166.083v.25l-.5.25z"/><path fill="#f5d8fe" d="M18.75 5.416l.583.5-.084.167-.333-.25v-.167h-.167z"/><path fill="#ad50d2" d="M11.5 3.75l-.584.333-.25-.083q.334-.333.834-.25"/></svg>