<svg xmlns="http://www.w3.org/2000/svg" width="38" height="24" fill="none" aria-labelledby="pi-ansa" role="img" viewBox="0 0 38 24"><title id="pi-ansa">Ansa</title><path fill="#fff" d="M0 0h38v24H0z"/><path fill="#271C6A" d="M17.337 3.197a8.68 8.68 0 0 1 6.034.886 8.95 8.95 0 0 1 4.032 4.663 9.16 9.16 0 0 1 .106 6.214 8.96 8.96 0 0 1-3.87 4.803 8.68 8.68 0 0 1-6 1.1 8.8 8.8 0 0 1-5.087-2.91.424.424 0 0 1 .175-.672.41.41 0 0 1 .44.119 7.97 7.97 0 0 0 4.615 2.64 7.88 7.88 0 0 0 5.442-.998 8.13 8.13 0 0 0 3.51-4.357 8.3 8.3 0 0 0-.096-5.637 8.12 8.12 0 0 0-3.657-4.23 7.87 7.87 0 0 0-5.473-.804 8 8 0 0 0-4.68 3.005 8.27 8.27 0 0 0-1.662 5.086.414.414 0 0 1-.405.423.414.414 0 0 1-.415-.413A9.1 9.1 0 0 1 12.18 6.51a8.8 8.8 0 0 1 5.158-3.312z"/><path fill="#271C6A" fill-rule="evenodd" d="M19.155 14.714c1.48 0 2.68-1.224 2.68-2.733 0-1.508-1.2-2.732-2.68-2.732s-2.68 1.223-2.68 2.732 1.2 2.733 2.68 2.733m0-.836c1.027 0 1.86-.85 1.86-1.897s-.833-1.896-1.86-1.896-1.86.85-1.86 1.896c0 1.048.832 1.897 1.86 1.897" clip-rule="evenodd"/><path fill="#271C6A" d="M13.61 13.691a5.9 5.9 0 0 0 2.4 3.273 5.72 5.72 0 0 0 6.325 0 .423.423 0 0 0 .01-.695.405.405 0 0 0-.457-.006 4.91 4.91 0 0 1-5.431 0 5.08 5.08 0 0 1-2.062-2.81 5.18 5.18 0 0 1 .216-3.505 5.04 5.04 0 0 1 2.392-2.525 4.9 4.9 0 0 1 3.427-.342 5 5 0 0 1 2.827 2.004c.441.644.73 1.38.845 2.152a.41.41 0 0 0 .467.35.417.417 0 0 0 .344-.475 6 6 0 0 0-.984-2.507 5.8 5.8 0 0 0-3.292-2.333 5.7 5.7 0 0 0-3.99.399 5.87 5.87 0 0 0-2.786 2.94 6.03 6.03 0 0 0-.251 4.08"/><path fill="#271C6A" fill-rule="evenodd" d="M11.513 16.516c.836 0 1.514-.69 1.514-1.543 0-.852-.678-1.543-1.514-1.543-.835 0-1.513.691-1.513 1.543s.678 1.543 1.513 1.543m0-.836a.7.7 0 0 0 .694-.707.7.7 0 0 0-.694-.707.7.7 0 0 0-.693.707.7.7 0 0 0 .693.707m13.924-1.477c0 .852-.678 1.543-1.514 1.543-.835 0-1.513-.69-1.513-1.543 0-.852.678-1.543 1.514-1.543.835 0 1.513.69 1.513 1.543m-.82 0a.7.7 0 0 1-.694.707.7.7 0 0 1-.693-.707.7.7 0 0 1 .694-.707.7.7 0 0 1 .693.707" clip-rule="evenodd"/></svg>