<svg width="38" height="24" fill="none" xmlns="http://www.w3.org/2000/svg" aria-labelledby="pi-ape"><path fill="#fff" d="M0 0h38v24H0z"/><path opacity=".07" d="M35 0H3C1.3 0 0 1.3 0 3v18c0 1.7 1.4 3 3 3h32c1.7 0 3-1.3 3-3V3c0-1.7-1.4-3-3-3Z" fill="#000"/><path d="M35 1c1.1 0 2 .9 2 2v18c0 1.1-.9 2-2 2H3c-1.1 0-2-.9-2-2V3c0-1.1.9-2 2-2h32Z" fill="#fff"/><path d="M27 12a8 8 0 1 0-16 0 8 8 0 0 0 16 0Z" fill="url(#a)"/><path d="M24.44 9.503a1.58 1.58 0 0 1-.118.4c-.05.12-.106.255-.157.523-.02.108-.03.187-.04.256v.008a1.381 1.381 0 0 1-.07.32 1.61 1.61 0 0 1-.245.486c-.12.158-.319.423-.585.455a.238.238 0 0 1-.091-.006c-.756-.386-1.405-.671-1.63-.735-.261-.074-.228-.644-.198-1.147.013-.225.026-.437.015-.619-.037-.635-.149-1.33-.702-1.668-.33-.202-.755-.262-1.162-.262a3.63 3.63 0 0 0 .25-.138l.004-.002c.24-.139.536-.31.832-.341l.285-.031c.596-.068 1.11-.126 1.653.06.246.085.75.366.88.628.092.184.247.328.556.615.16.15.266.236.344.3l.004.003c.108.09.13.108.162.174.1.204.064.42.013.72ZM21.691 12.112c.036.012.05.056.029.087-.081.123-.173.29-.284.496a9.9 9.9 0 0 1-.143.26 1.28 1.28 0 0 0-.167.633c-.01.177-.02.259-.126.33-.087.058-.177.078-.799.173-.109.017-.157.038-.2.056l-.035.015c-.036.013-.071-.017-.07-.055.006-.09.009-.202.01-.343v-.027a3.48 3.48 0 0 0-.007-.3c-.008-.16-.01-.226.033-.295.052-.084.093-.11.16-.152.092-.058.22-.139.409-.398a.667.667 0 0 0 .136-.277c.006-.026.008-.036.086-.095.081-.062.33-.25.649-.197.088.015.2.048.32.09ZM19.216 14.98a.064.064 0 0 1-.052.027c-.065.003-.111-.013-.141-.05-.064-.078-.056-.234-.04-.326l.262-.07c.02.139.03.342-.029.42ZM19.237 14.031c-.004.038-.009.082-.009.127l.001.05c0 .043.003.111-.003.142a.625.625 0 0 1-.245.029c-.001-.027 0-.067.001-.094l.002-.06v-.065c0-.05 0-.134.012-.158a.99.99 0 0 0 .077-.016.563.563 0 0 1 .17-.02.825.825 0 0 1-.006.065ZM18.75 14.9c-.012.134-.054.301-.18.326-.057.012-.085-.005-.102-.021-.085-.08-.1-.319-.087-.49.057.001.131-.011.22-.028l.15-.033a1.47 1.47 0 0 1 0 .245ZM18.69 14.415l-.285.1c.015-.11.034-.266.041-.37.005-.073.025-.095.03-.1.002-.002.006-.005.017-.005h.005l.006.001.18-.01c.008.085.008.271.007.384ZM18.23 14.327a1.774 1.774 0 0 0-.047.25l-.358-.011c.02-.11.048-.224.079-.313.03-.09.064-.156.095-.175a.156.156 0 0 1 .163.015c.079.067.1.143.068.234ZM18.096 15.42c-.027.039-.058.058-.096.062-.04.004-.07-.004-.094-.027-.112-.104-.103-.443-.099-.606.149-.034.309-.063.384-.067.012.136.015.49-.095.639ZM17.63 14.556c-.018.047-.035.09-.047.13-.042.013-.17.001-.299-.027l.09-.563c.146-.039.316-.051.357-.008.054.058-.055.346-.101.468ZM17.468 15.506c-.07.086-.174.126-.319.124-.1-.001-.136-.04-.154-.068-.08-.128-.001-.428.078-.62l.484.029c.005.034.009.075.01.12.006.136-.011.306-.1.415Z" fill="#fff"/><path d="M21.47 11.424c-.436-.124-.399-.761-.362-1.377.012-.218.024-.425.015-.593-.034-.577-.13-1.205-.595-1.49-.499-.304-1.315-.235-1.818-.17h-.002a1.547 1.547 0 0 1-.49.085c-.298-.015-.53-.14-.733-.25-.159-.086-.297-.16-.428-.16h-.021c-.39.025-.57.12-.733.266-.04.036-.09.141-.254.613-.083.238-.098.368-.114.495-.013.116-.027.235-.089.413-.043.122-.075.228-.105.33-.08.27-.145.484-.336.738-.023.03-.05.074-.083.124-.043.069-.097.154-.168.252-.05.07-.165.33-.159.409.01.126.05.204.097.295.047.09.1.192.11.333l.001.023c.017.223-.014.335-.439.714a4.53 4.53 0 0 0-.595.649c-.011.015.004.038.023.036h.013a.286.286 0 0 1 .072.001.453.453 0 0 1 .276.13.045.045 0 0 0 .048.01.451.451 0 0 1 .218-.017c.09.008.18.035.24.093a.075.075 0 0 0 .068.02.377.377 0 0 1 .212.01c.054.02.1.053.136.092a.08.08 0 0 0 .101.013.295.295 0 0 1 .065-.031.436.436 0 0 1 .284.019c.044.015.09.03.13.056.073.049.118.12.146.2.016.044.077.06.113.03.066-.056.118-.065.17-.041a.124.124 0 0 1 .058.049c.022.036.066.066.107.055a.644.644 0 0 1 .45.05.307.307 0 0 1 .125.116l.003-.025a.03.03 0 0 1 .02-.024l.03-.009c.071-.022.432-.126.572.021.006.006.016.007.022 0a.196.196 0 0 1 .045-.037.317.317 0 0 1 .351.03c.021.018.055.011.071-.011a.183.183 0 0 1 .167-.08l.198-.01a2.813 2.813 0 0 0 .265-.026l.07-.014c.097-.021.206-.045.295-.003.086.04.075.137.065.224-.004.035-.009.071-.008.106v.05c.002.074.004.142-.011.195l.009.042.001.005c.008.038.049.059.081.039a.678.678 0 0 0 .168-.136.33.33 0 0 0 .014-.061c.013-.074.026-.223.027-.526v-.033a3.468 3.468 0 0 0-.005-.283c-.009-.165-.015-.294.066-.426.08-.128.157-.176.231-.223.087-.054.184-.116.348-.34.08-.111.09-.156.098-.192.018-.083.045-.133.17-.227.1-.077.408-.31.823-.24a3.394 3.394 0 0 1 .574.181.137.137 0 0 1 .033.014c.194.078.383.164.505.233a.066.066 0 0 0 .084-.019.43.43 0 0 1 .13-.109c.017-.01.03-.019.043-.03l.013-.01c.036-.03.036-.092-.005-.114a7.46 7.46 0 0 0-1.317-.522Zm-4.155.134c-.135.59-1.049 1.239-1.464 1.239h-.008a.18.18 0 0 1-.047-.008l-.014-.004a.704.704 0 0 1-.259-.16.37.37 0 0 1-.11-.184l-.008-.036a.612.612 0 0 1 .038-.43l.033-.077.01-.024.025-.06a3.648 3.648 0 0 0 .04-.106c.026-.07.03-.097.033-.125.003-.021.006-.048.015-.085.026-.111.04-.205.051-.288.021-.15.04-.28.12-.4a.33.33 0 0 1 .047-.054l.018-.017.019-.014a.398.398 0 0 1 .063-.037l.024-.01a.473.473 0 0 1 .05-.015.736.736 0 0 1 .263-.008c.11.009.213.03.304.055.075.02.143.045.2.068l.017.007a.71.71 0 0 1 .032.014l.044.018.048.022.014.006a.995.995 0 0 1 .23.146.563.563 0 0 1 .173.566Zm.424-2.237-.018.107c-.04.241-.135.572-.482.657-.334.081-.413.099-.65.11a.15.15 0 0 1-.017 0c-.174 0-.508-.11-.567-.381-.038-.176.04-.303.167-.513l.068-.114c.168-.283.235-.488.288-.653.052-.16.095-.293.206-.403a.614.614 0 0 1 .256-.154.809.809 0 0 1 .244-.037.71.71 0 0 1 .439.14c.052.04.126.124.169.37.022.126-.016.358-.103.87Zm2.477.686c-.12.205-.185.318-.288.403a.99.99 0 0 1-.64.21c-.142 0-.262-.021-.333-.034-.203-.037-.582-.106-.708-.405a.323.323 0 0 1-.025-.144c0-.047 0-.126-.021-.314l-.002-.012a.907.907 0 0 1 .003-.305l.003-.015c.072-.363.09-.418.107-.45a.146.146 0 0 1 .261.128c-.007.02-.027.098-.083.378l-.002.015a.627.627 0 0 0 0 .215l.001.013c.024.204.024.297.024.347v.024l.002.007c.024.056.077.099.142.132.04.02.082-.019.073-.063-.064-.32-.06-.692.061-.923a7.43 7.43 0 0 1 .185-.318v-.001l.001-.001.021-.035.018-.03a12.4 12.4 0 0 1 .099-.162l.014-.022.005-.008.002-.004a.122.122 0 0 1 .006-.01l.008-.013.002-.003.072-.101c.032-.043-.005-.1-.054-.08a.936.936 0 0 0-.216.124.145.145 0 0 1-.204-.023.146.146 0 0 1 .023-.204c.075-.06.471-.348.946-.213.342.098.52.359.588.457.055.08.222.322.216.66-.004.258-.111.443-.307.78Z" fill="#fff"/><path d="m17.134 8.24-.085.21a7.497 7.497 0 0 1-.195.466c-.069.13-.122.212-.164.279-.05.076-.088.136-.117.22a.937.937 0 0 0-.028.488c-.09-.01-.24-.073-.256-.151-.013-.06.024-.123.131-.3l.07-.117c.185-.31.26-.542.315-.712.06-.184.087-.261.181-.325a.383.383 0 0 1 .148-.059ZM16.954 14.765c-.101.206-.227.396-.305.49-.064-.175-.177-.576-.147-.898a.624.624 0 0 1 .089-.292c.03-.048.117-.077.214-.077.072 0 .15.016.218.052.037.02.086.058.091.172.008.154-.066.36-.16.553Z" fill="#fff"/><path d="M22.472 12.46c.007.006.012.015.008.024a.724.724 0 0 1-.109.153c-.051.061-.11.13-.165.24-.078.152-.102.292-.116.65-.015.422.001.658.014.83.011.167.018.267-.011.43-.06.327-.2.544-.378.818-.222.344-.451.699-.832.812-.035.01-.036.01-.135.011-.087 0-.23 0-.502.01-.497.018-.746.027-.96.068-.223.043-.34.091-.453.137-.102.041-.198.08-.383.118-.11.023-.275.047-.837.048-.583 0-.936.001-1.4-.052-.64-.073-.96-.11-1.172-.223-.502-.268-.714-.75-1.065-1.547l-.002-.004c-.004-.01.008-.02.017-.014a.276.276 0 0 0 .1.037.3.3 0 0 0 .116-.004L14.21 15c.006-.003.013 0 .016.006a.258.258 0 0 0 .117.148c.06.03.128.033.194.033a1.96 1.96 0 0 0 .205-.013c.036-.004.073.013.087.047.062.151.14.26.255.277a.17.17 0 0 0 .025.001.218.218 0 0 0 .123-.046c.045-.03.113-.013.144.03.03.04.064.068.094.091.119.123.41.182.653.182a.81.81 0 0 0 .322-.052c.1-.049.1-.123.096-.154a4.77 4.77 0 0 1-.023-.16c0-.007.009-.01.011-.004.015.032.033.072.08.08l.018.001c.068 0 .174.022.192.088.01.033.022.064.04.092.04.065.124.142.288.145h.013c.19 0 .335-.062.433-.184a.532.532 0 0 0 .019-.024c.035-.05.14-.052.185-.011a.266.266 0 0 0 .22.069.297.297 0 0 0 .213-.13.58.58 0 0 0 .08-.178c.006-.02.033-.025.048-.012a.256.256 0 0 0 .178.07c.02 0 .042-.003.066-.008.164-.033.246-.169.284-.322.002-.005.01-.007.012-.003a.31.31 0 0 0 .252.11l.021-.001a.226.226 0 0 0 .174-.09.492.492 0 0 0 .077-.27.077.077 0 0 1 .048-.068c.141-.059.312-.186.362-.272a.169.169 0 0 0 .005-.01.082.082 0 0 1 .056-.044.808.808 0 0 0 .2-.06.471.471 0 0 1 .143-.04c.63-.097.754-.118.89-.209.205-.136.215-.324.225-.505.009-.154.019-.328.138-.532.043-.075.093-.168.146-.266.093-.172.223-.414.316-.54a.063.063 0 0 1 .076-.02c.219.093.404.185.445.218Z" fill="#fff"/><path d="M16.342 14.338c-.025.218-.04.51-.005.89.01.107.024.218.041.33-.03.017-.119.04-.278.037-.228-.005-.45-.062-.517-.134l-.01-.01c-.056-.044-.092-.073-.097-.153-.002-.027.01-.054.034-.091.014-.022.032-.046.054-.076a2.11 2.11 0 0 0 .135-.199 4.151 4.151 0 0 1 .283-.433c.04-.055.088-.122.16-.23.053-.082.097-.145.134-.195.06-.083.1-.128.126-.152-.004.037-.012.09-.02.139-.012.075-.028.166-.04.277ZM16.238 10.945l-.005.006c-.03.041-.064.088-.104.178-.109.242-.111.379-.113.489 0 .058-.001.104-.017.157-.011.036-.029.076-.05.123-.063.147-.147.34-.11.599-.052-.025-.131-.083-.142-.113a1.289 1.289 0 0 0-.009-.042c-.018-.08-.03-.133.021-.252.136-.312.152-.386.163-.47a.43.43 0 0 1 .01-.057c.028-.123.043-.228.056-.313.018-.128.03-.213.073-.277.016-.024.06-.036.125-.036.025 0 .053.002.085.007h.007l.01.001ZM16.06 14.02a.842.842 0 0 0-.048-.22L16 13.777l-.016-.027-.001-.001-.009-.01a.182.182 0 0 0-.025-.02l-.017-.01a.061.061 0 0 0-.01-.004l-.002-.001-.002-.001h-.002V13.7l-.004-.002c-.043-.015-.088-.033-.134-.04h-.002l-.017-.001h-.034l-.001.001-.032.01c-.005.001-.01.003-.014.006l-.011.007h-.002v.002l-.016.014a.312.312 0 0 0-.01.013h-.001v.001l-.001.001-.004.005a13.625 13.625 0 0 0-.377.557l.078.015a2.177 2.177 0 0 0 .563.05 6.841 6.841 0 0 0 .18-.266.124.124 0 0 1-.018-.053ZM15.624 14.525c-.01.095-.116.338-.28.57-.138.194-.221.241-.238.243-.066-.01-.132-.174-.184-.337a6.993 6.993 0 0 1-.055-.187 1.319 1.319 0 0 1-.036-.394c.139.076.382.097.725.099l.068.006ZM15.38 13.75c0 .003-.002.005-.004.008a65.622 65.622 0 0 1-.268.392c-.017.024-.04.05-.059.08-.048-.012-.097-.023-.145-.037a1.233 1.233 0 0 1-.139-.048.097.097 0 0 0-.026-.033v-.001c.014-.029.029-.057.042-.086.027-.052.053-.103.083-.153a.698.698 0 0 1 .204-.241l.013-.01a.263.263 0 0 1 .111-.041.5.5 0 0 1 .049 0l.005.001c.002 0 .004 0 .006.002l.032.009a.332.332 0 0 1 .01.005c.009.005.018.01.027.017-.014-.01.018.023.018.02a.23.23 0 0 1 .042.116ZM14.915 13.505c-.109.09-.188.209-.254.333-.037.068-.07.139-.105.209a.351.351 0 0 1-.011.02 1.079 1.079 0 0 1-.244-.087c.033-.062.071-.121.108-.179.053-.081.11-.161.17-.236.024-.029.048-.06.08-.08.034-.019.074-.014.112-.012.04.003.084.004.122.019a.132.132 0 0 1 .022.013ZM14.742 14.965a.082.082 0 0 0-.014.015c-.003.002-.007.002-.01.003a2.078 2.078 0 0 1-.232.01c-.029-.001-.054-.006-.066-.024-.019-.028-.025-.078-.031-.116a1.89 1.89 0 0 1-.014-.567c.097.034.197.061.299.078-.022.17.016.418.037.495l.031.106ZM14.43 13.443a2.9 2.9 0 0 0-.235.334c-.028.048-.06.097-.084.147a.366.366 0 0 1-.097-.043.92.92 0 0 1-.073-.05l-.032-.026-.007-.006c.007-.022.022-.047.03-.063a1.636 1.636 0 0 1 .194-.32c.019-.023.037-.053.066-.062a.26.26 0 0 1 .238.089ZM13.768 13.901c0-.004.007-.005.01-.001.022.032.053.06.087.086l.046.034a.006.006 0 0 1 .002.006c-.036.147-.06.304-.06.458 0 .007-.01.009-.012.002-.043-.18-.102-.48-.073-.585ZM14.188 14.222a2.174 2.174 0 0 0 0 .6.13.13 0 0 0-.047-.002h-.009l-.008-.001c-.018-.005-.02-.007-.034-.016a.176.176 0 0 1-.05-.056.436.436 0 0 1-.046-.2 1.757 1.757 0 0 1 .031-.396l.07.03.094.04Z" fill="#fff"/><mask id="c" style="mask-type:alpha" maskUnits="userSpaceOnUse" x="11" y="4" width="16" height="16"><path d="M27 12a8 8 0 1 0-16 0 8 8 0 0 0 16 0Z" fill="url(#b)"/></mask><g mask="url(#c)" stroke-miterlimit="10"><path d="M17.584 20.94c-.586 0-1.142-.036-1.608-.073l-.129-.01-.128-.017c-.056-.008-.133-.017-.206-.025-.45-.049-1.283-.14-2.204-.572l-.143-.067-.134-.075c-1.77-.992-2.432-2.485-2.79-3.288l-.075-.17c-.18-.369-.294-.701-.39-1.005l-.022-.068-.018-.066c-.257-.913-.322-1.702-.204-2.481.118-.784.408-1.496.912-2.241l.26-.427a.864.864 0 0 0 .111-.28c.2-.987.652-1.687.874-2.02.06-.405.162-.802.3-1.187l.021-.058.023-.057a5.317 5.317 0 0 1 .95-1.792l.224-.272.23-.207a5.312 5.312 0 0 1 2.052-1.16 5.797 5.797 0 0 1 1.307-.23l.043-.004.065-.003a4.843 4.843 0 0 1 1.053.065c.17.028.345.008.504-.058.473-.197.97-.33 1.478-.397l.108-.014a12.524 12.524 0 0 1 1.487-.096c.87 0 1.62.113 2.29.345l.057.02.056.02c1.48.56 2.234 1.342 2.776 2.031l.026.033.075.066c.49.383.905.852 1.229 1.383l.1.166.086.174c.724 1.478.494 2.843.407 3.356l-.005.027c-.062.379-.161.75-.296 1.109-.05.346-.13.687-.243 1.018a5.9 5.9 0 0 1-.84 1.643c-.21.297-.448.574-.709.827a.575.575 0 0 0-.17.334 6.198 6.198 0 0 1-.952 2.479l-.614.883c-.74.922-1.619 1.53-2.681 1.856l-.258.081-.278.049a5.48 5.48 0 0 1-.963.083l-.14-.001h-.014l-.055.003-.058.002h-.002a1.421 1.421 0 0 0-.363.06c-.687.21-1.463.309-2.412.309Z" stroke="url(#d)" stroke-width=".074"/><path d="M17.584 20.334c-.562 0-1.1-.036-1.553-.072l-.107-.008-.107-.015c-.067-.01-.149-.018-.228-.027-.436-.047-1.164-.126-1.977-.508l-.12-.056-.11-.062c-1.563-.876-2.14-2.177-2.486-2.954a20.601 20.601 0 0 0-.083-.186 6.554 6.554 0 0 1-.356-.915l-.018-.057-.015-.055c-.229-.812-.288-1.505-.186-2.181.102-.677.359-1.301.807-1.96l.335-.547c.059-.097.1-.204.12-.315.166-.929.605-1.587.804-1.887l.025-.038.01-.015a.714.714 0 0 0 .011-.027l.036-.114c.053-.381.145-.756.276-1.117l.018-.049.02-.048a2 2 0 0 0 .028-.083 4.57 4.57 0 0 1 .81-1.518l.187-.227.19-.172a4.606 4.606 0 0 1 1.78-1.004c.375-.112.762-.18 1.153-.203l.035-.003.054-.002c.065-.003.13-.005.194-.005.28 0 .56-.08.834-.025.212.044.433.02.63-.067.37-.163.868-.228 1.438-.299l.103-.014a11.36 11.36 0 0 1 1.397-.091c.79 0 1.463.1 2.057.306l.048.016.046.018c1.313.496 1.961 1.16 2.466 1.803l.068.086.012.01.096.086.013.013a4.43 4.43 0 0 1 1.092 1.217l.084.138.072.146c.623 1.271.428 2.428.344 2.922l-.004.026c-.06.359-.156.71-.289 1.05-.042.329-.117.653-.224.968-.17.52-.42 1.011-.743 1.454-.218.31-.47.595-.753.85a.71.71 0 0 0-.231.453 4.674 4.674 0 0 1-.055.377 5.503 5.503 0 0 1-.825 2.011l-.498.724c-.662.85-1.446 1.406-2.395 1.699l-.215.067-.232.04a4.783 4.783 0 0 1-.84.073l-.128-.001h-.04l-.027.001-.05.003-.049.002-.098.004a1.43 1.43 0 0 0-.385.067c-.633.201-1.363.297-2.266.297Z" stroke="url(#e)" stroke-width=".074"/><path d="M17.584 19.619c-.537 0-1.058-.035-1.498-.069l-.085-.007-.086-.011c-.077-.011-.164-.02-.248-.03-.417-.045-1.046-.114-1.75-.444l-.097-.045-.089-.05c-1.355-.76-1.852-1.88-2.181-2.621a68.57 68.57 0 0 0-.09-.201 5.758 5.758 0 0 1-.32-.826l-.014-.045-.012-.044c-.2-.71-.253-1.309-.167-1.88.087-.58.315-1.121.716-1.703l.048-.069.052-.066.094-.122.202-.37c.066-.12.11-.251.131-.387.128-.829.527-1.427.712-1.703v-.002l.032-.046.039-.063c.015-.034.036-.079.053-.125l.063-.197c.043-.353.127-.7.25-1.034l.013-.039.015-.04c.013-.032.023-.06.041-.116.088-.265.252-.756.687-1.293l.15-.182.152-.137a3.898 3.898 0 0 1 1.506-.85c.325-.096.66-.155.998-.174l.028-.002.044-.002a3.455 3.455 0 0 1 1.023.106c.243.061.5.034.726-.077a4.495 4.495 0 0 1 1.507-.444c.07-.008.182-.022.318-.035.236-.023.6-.05.989-.05.709 0 1.305.087 1.824.266l.038.013.037.014c1.205.456 1.745 1.053 2.156 1.576.09.115.104.133.167.188l.076.069.03.03c.198.154.604.47.959 1.055l.067.111.057.116c.522 1.065.36 2.026.282 2.489l-.005.025c-.055.339-.15.67-.281.988l-.004.029a4.282 4.282 0 0 1-.2.892c-.147.453-.365.88-.646 1.265a4.258 4.258 0 0 1-.838.893.684.684 0 0 0-.258.503c-.009.191-.03.381-.066.57a4.827 4.827 0 0 1-.736 1.777l-.386.57c-.582.776-1.271 1.279-2.104 1.534l-.172.054-.185.032a4.079 4.079 0 0 1-.718.062h-.167l-.072.002-.04.003-.038.001-.198.007c-.14.005-.278.03-.41.074-.579.195-1.262.287-2.121.287Z" stroke="url(#f)" stroke-width=".07"/><path d="M17.584 18.904c-.513 0-1.017-.034-1.442-.067l-.065-.005-.064-.009a8.807 8.807 0 0 0-.27-.032c-.39-.043-.926-.1-1.524-.381l-.071-.034-.067-.037c-1.147-.644-1.569-1.593-1.877-2.287l-.098-.22a5.068 5.068 0 0 1-.284-.732l-.01-.034-.01-.033c-.336-1.192-.21-2.028.45-2.983l.035-.052.04-.05.124-.16c.061-.08.122-.161.19-.245a.663.663 0 0 0 .1-.171l.075-.194a.926.926 0 0 0 .06-.256c.065-.765.437-1.322.621-1.598l.001-.002c.014-.02.034-.05.04-.061l.044-.07.013-.017c.023-.046.068-.144.107-.247.022-.07.055-.177.088-.275 0-.004 0-.008.002-.012.035-.32.109-.636.22-.939l.01-.029.012-.03c.02-.05.034-.093.053-.152.079-.236.21-.632.563-1.067l.113-.136.113-.102c.833-.756 1.765-.821 2.076-.842l.022-.002.033-.002.126-.002c.37 0 .736.076 1.076.22a.442.442 0 0 0 .378-.018h.001c.317-.184.897-.517 1.637-.606.035-.005.068-.01.092-.012a10.56 10.56 0 0 1 1.218-.08c.628 0 1.148.075 1.59.228l.029.01.027.01c1.033.39 1.479.88 1.846 1.348.1.125.143.184.254.281l.058.051.046.048.035.028c.175.136.501.388.79.863l.05.083.043.087c.42.859.29 1.637.218 2.055l-.004.025c-.05.304-.136.601-.257.884l-.01.025a1.283 1.283 0 0 0-.017.105l-.005.033a3.56 3.56 0 0 1-.168.753 3.84 3.84 0 0 1-.55 1.076c-.235.335-.5.608-.797.824a1.042 1.042 0 0 0-.427.827 3.542 3.542 0 0 1-.06.6c-.136.738-.451 1.238-.647 1.543l-.28.42c-.503.701-1.095 1.15-1.808 1.368l-.038.011c-.06.02-.122.034-.184.045l-.046.008a3.37 3.37 0 0 1-.595.052l-.106-.001h-.062c-.014 0-.05 0-.117.004l-.03.002h-.028l-.32.013a1.43 1.43 0 0 0-.427.083c-.513.184-1.14.27-1.954.27Z" stroke="url(#g)" stroke-width=".065"/><path d="M17.584 18.188c-.489 0-.975-.032-1.387-.064l-.043-.003-.043-.007a9.83 9.83 0 0 0-.29-.034c-.36-.04-.808-.088-1.298-.318l-.048-.022-.044-.025c-.94-.527-1.291-1.318-1.573-1.954l-.108-.237a4.358 4.358 0 0 1-.247-.641l-.007-.022-.006-.022c-.277-.984-.186-1.608.35-2.383l.023-.034.026-.033c.047-.06.09-.116.13-.17.14-.183.274-.359.475-.573a.278.278 0 0 0 .075-.173l.015-.231-.006-.076.003-.078c.02-.635.34-1.112.51-1.369l.052-.08.029-.045.027-.036c.031-.052.115-.23.178-.4.022-.071.064-.208.102-.316.01-.034.012-.043.02-.117.03-.267.091-.53.184-.784l.007-.02.008-.02c.026-.067.045-.122.066-.186a2.47 2.47 0 0 1 .44-.842l.075-.091.075-.068c.583-.53 1.219-.63 1.648-.659l.014-.001h.023l.092-.002c.366 0 .805.176 1.035.282a.462.462 0 0 0 .352.013c.143-.052.283-.114.418-.184.293-.17.778-.45 1.381-.521l.088-.012.275-.03c.206-.02.52-.043.853-.043.547 0 .991.061 1.356.187l.02.007.017.007c.863.326 1.206.7 1.536 1.121.108.136.183.232.341.373l.038.034.036.036a.861.861 0 0 0 .104.088c.147.114.396.306.616.669l.034.055.028.058c.319.651.216 1.258.155 1.621l-.004.025c-.04.25-.112.495-.212.728v.002a.711.711 0 0 0-.057.19 2.001 2.001 0 0 0-.02.123l-.004.033c-.023.21-.069.415-.136.615a3.107 3.107 0 0 1-.453.887c-.29.415-.628.708-1.034.894a.587.587 0 0 0-.343.509c-.002.044-.003.08-.001.1.02.314.042.668-.027 1.033-.112.604-.368 1.01-.56 1.308 0 0-.882 1.227-1.684 1.472l-.087.027-.093.016a2.641 2.641 0 0 1-.473.041h-.166c-.032 0-.084 0-.163.005l-.02.001h-.02a8.43 8.43 0 0 0-.677.038.494.494 0 0 0-.125.036c-.454.2-1.05.292-1.871.292Z" stroke="url(#h)" stroke-width=".06"/><path d="M17.584 17.474c-.464 0-.934-.032-1.332-.063l-.02-.002-.022-.003a10.876 10.876 0 0 0-.313-.037c-.338-.037-.688-.075-1.07-.254l-.024-.011-.022-.013c-.733-.41-1.006-1.025-1.27-1.62a19.332 19.332 0 0 0-.116-.258 3.629 3.629 0 0 1-.21-.546l-.003-.01-.004-.012c-.22-.783-.164-1.183.25-1.782l.013-.018.013-.017.135-.175c.2-.262.371-.488.757-.844h.001a.202.202 0 0 0 .051-.215l-.07-.199a1.43 1.43 0 0 1-.029-.19v-.002l-.004-.053.001-.04c.015-.43.241-.77.391-.994l.063-.097.014-.023.017-.021c.08-.108.208-.405.276-.589.018-.056.064-.208.102-.319a1.15 1.15 0 0 0 .052-.256c.023-.215.072-.426.147-.63l.004-.01.004-.01c.033-.084.056-.154.079-.222.06-.18.127-.384.316-.616l.038-.046.037-.034c.414-.376.869-.452 1.22-.475H17.073l.059-.001c.34 0 .603.14.776.232l.04.021.007.004.128.067a.494.494 0 0 0 .348.036c.238-.064.608-.204.857-.341l.005-.004c.263-.152.657-.38 1.12-.431l.083-.012c.054-.006.143-.017.253-.027.19-.018.48-.04.785-.04.466 0 .833.048 1.122.148l.01.004.01.003c.692.262.944.536 1.225.894.115.146.223.284.428.466l.02.018.017.018c.055.056.115.107.179.154.123.095.291.226.443.475l.017.028.014.029c.218.444.145.874.092 1.187l-.004.025c-.032.197-.088.39-.169.574a1.37 1.37 0 0 0-.099.33c-.012.067-.02.118-.025.166l-.005.034a2.209 2.209 0 0 1-.104.476c-.08.25-.2.486-.355.698-.263.377-.555.61-.942.733a.846.846 0 0 0-.452.342l-.03.047-.034.039c-.099.112-.07.546-.054.804.018.285.037.578-.016.855-.087.473-.29.792-.471 1.073 0 0-.674.971-1.281 1.156l-.044.014-.047.008c-.116.02-.233.03-.35.03h-.168c-.04 0-.107 0-.207.007h-.02c-.407.015-.653.024-.789.05-.091.016-.18.043-.266.08-.364.161-.872.237-1.596.237Z" stroke="url(#i)" stroke-width=".06"/></g><defs><linearGradient id="d" x1="9.476" y1="2.585" x2="27.81" y2="21.828" gradientUnits="userSpaceOnUse"><stop offset=".206" stop-color="#89D0FF"/><stop offset=".398" stop-color="#EBBF9A"/><stop offset=".602" stop-color="#EB8280"/><stop offset=".841" stop-color="#A281FF"/></linearGradient><linearGradient id="e" x1="10.19" y1="3.409" x2="27.092" y2="21.221" gradientUnits="userSpaceOnUse"><stop offset=".206" stop-color="#89D0FF"/><stop offset=".398" stop-color="#EBBF9A"/><stop offset=".602" stop-color="#EB80DA"/><stop offset=".841" stop-color="#A281FF"/></linearGradient><linearGradient id="f" x1="10.907" y1="4.124" x2="26.377" y2="20.505" gradientUnits="userSpaceOnUse"><stop offset=".206" stop-color="#89D0FF"/><stop offset=".398" stop-color="#EBBF9A"/><stop offset=".602" stop-color="#EB8280"/><stop offset=".841" stop-color="#A281FF"/></linearGradient><linearGradient id="g" x1="11.622" y1="4.842" x2="25.656" y2="19.788" gradientUnits="userSpaceOnUse"><stop offset=".206" stop-color="#89D0FF"/><stop offset=".398" stop-color="#EBBF9A"/><stop offset=".602" stop-color="#EB80E7"/><stop offset=".841" stop-color="#A281FF"/></linearGradient><linearGradient id="h" x1="12.337" y1="5.557" x2="24.939" y2="19.067" gradientUnits="userSpaceOnUse"><stop offset=".206" stop-color="#89D0FF"/><stop offset=".398" stop-color="#EBBF9A"/><stop offset=".602" stop-color="#EB80D3"/><stop offset=".841" stop-color="#A281FF"/></linearGradient><linearGradient id="i" x1="13.052" y1="6.272" x2="24.219" y2="18.351" gradientUnits="userSpaceOnUse"><stop offset=".206" stop-color="#89D0FF"/><stop offset=".398" stop-color="#EBBF9A"/><stop offset=".602" stop-color="#A280EB"/><stop offset=".841" stop-color="#A281FF"/></linearGradient><radialGradient id="a" cx="0" cy="0" r="1" gradientUnits="userSpaceOnUse" gradientTransform="rotate(90 3.08 15.92) scale(8.98781)"><stop offset=".167" stop-color="#073183"/><stop offset="1" stop-color="#0054F9"/></radialGradient><radialGradient id="b" cx="0" cy="0" r="1" gradientUnits="userSpaceOnUse" gradientTransform="rotate(90 3.08 15.92) scale(8.98781)"><stop offset=".167" stop-color="#073183"/><stop offset="1" stop-color="#0054F9"/></radialGradient></defs></svg>