<svg xmlns="http://www.w3.org/2000/svg" width="38" height="24" fill="none" viewBox="0 0 38 24" aria-labelledby="pi-apecoin" role="img"><title id="pi-apecoin">ApeCoin</title><path fill="#fff" d="M0 0h38v24H0z"/><path fill="#024CDD" d="M27.2 12a8.2 8.2 0 1 0-16.4 0 8.2 8.2 0 0 0 16.4 0Z"/><path fill="#fff" d="M24.576 9.44c-.107.628-.271 1.547-.646 2.043-.122.162-.327.434-.6.467a.246.246 0 0 1-.093-.007c-.774-.395-1.44-.688-1.67-.753-.268-.076-.234-.66-.204-1.175v-.003c.047-.792.057-1.876-.703-2.342-.339-.207-.775-.268-1.192-.269.955-.453 2.04-.825 3.1-.462.252.086.769.375.902.643.239.48.869.662 1.093 1.12.102.209.065.43.013.738Zm-2.833 2.67a.073.073 0 0 1 .036.108 7.49 7.49 0 0 0-.282.495c-.054.099-.104.193-.147.266-.15.258-.162.474-.171.648-.01.182-.02.266-.129.339-.09.06-.181.08-.82.177-.06.01-.317.133-.31 0 .013-.264-.106-.741.035-.973.2-.319.637-.447.723-.847.054-.24.575-.33.753-.3.086.015.195.047.312.086Zm-2.522 2.945c-.043.06-.16.023-.198-.024-.066-.08-.057-.24-.041-.335l.27-.072c.02.143.03.351-.03.43Zm.01-.645a.642.642 0 0 1-.25.028c-.006-.097-.031-.297.014-.386.076-.011.185-.047.254-.036-.007.126.006.27-.018.393Zm-.672.897c-.23.047-.203-.399-.194-.524.092.002.238-.03.38-.063.012.168.032.543-.186.587Zm.124-.831-.293.102c.008-.054.01-.492.095-.487l.191-.009c.008.087.008.278.007.394Zm-.473-.091a1.819 1.819 0 0 0-.048.256l-.366-.011c.041-.227.115-.462.178-.5.155-.093.285.122.236.255Zm-.236 1.184c-.222.025-.202-.44-.197-.646v-.003c.152-.035.316-.064.394-.069.014.161.052.692-.197.718Zm-.427-.816c-.043.013-.173.002-.306-.028l.092-.576c.15-.04.324-.053.366-.008.105.11-.106.472-.152.612Zm-.444.968c-.34-.006-.15-.53-.079-.706l.497.03c.046.322-.038.68-.418.676Z"/><path fill="#fff" fill-rule="evenodd" d="M21.531 11.409c-.447-.127-.408-.78-.371-1.411.041-.7.08-1.721-.594-2.134-.511-.313-1.348-.242-1.864-.176h-.001a1.587 1.587 0 0 1-.504.088c-.303-.016-.54-.144-.748-.256h-.002c-.163-.089-.305-.165-.438-.165h-.022c-.4.026-.584.124-.751.273-.246.217-.338.81-.377 1.133-.033.27-.13.535-.195.75-.083.275-.173.538-.35.77-.145.194-.44.548-.42.805.019.239.198.425.214.668.018.228-.015.343-.45.732a4.65 4.65 0 0 0-.61.665c-.011.015.004.039.024.037a.464.464 0 0 1 .37.134.046.046 0 0 0 .05.01.464.464 0 0 1 .223-.018.415.415 0 0 1 .238.09.099.099 0 0 0 .086.025.384.384 0 0 1 .209.013.35.35 0 0 1 .127.082.11.11 0 0 0 .062.03c.042.005.077-.023.12-.037a.466.466 0 0 1 .31.026c.04.014.08.028.114.051a.383.383 0 0 1 .14.18c.023.055.098.073.146.039.058-.042.106-.047.154-.026.02.009.036.02.048.034.034.04.09.08.14.067a.664.664 0 0 1 .443.057.314.314 0 0 1 .127.119c.006-.04.02-.048.056-.06.072-.022.441-.128.585.023.019.019.053-.03.068-.04a.325.325 0 0 1 .361.032c.045.038.078-.024.107-.049a.188.188 0 0 1 .137-.044l.203-.011c.09-.005.182-.01.271-.026l.062-.012c.1-.021.214-.051.312-.006.088.04.077.141.066.23-.004.036-.008.072-.008.109l.002.05c0 .066.005.136-.013.201l.01.042c.01.042.053.065.09.043.329-.204.223-.727.202-1.062-.008-.168-.015-.301.069-.436.178-.288.615-.421.693-.774.08-.375.715-.53 1.018-.479.146.025.381.104.623.2.193.077.38.163.505.232.096.055.415-.215.268-.29a7.669 7.669 0 0 0-1.335-.528Zm-4.258.137c-.138.606-1.075 1.27-1.501 1.27-.414 0-.553-.53-.418-.843.113-.254.177-.51.212-.783.032-.229.09-.501.35-.56.531-.13 1.506.272 1.357.916Zm.416-2.183c-.042.248-.138.586-.494.674-.378.092-1.142.288-1.265-.278-.052-.239.128-.448.24-.642.173-.29.241-.5.296-.669.053-.165.097-.301.211-.414.251-.25.71-.255.963-.053.053.043.128.128.172.38.056.318-.07.687-.123 1.002Zm2.262 1.007c-.393.322-1.488.322-1.723-.234-.144-.347-.105-.935.066-1.271a.15.15 0 0 1 .201-.065.15.15 0 0 1 .067.195c-.007.022-.028.1-.085.388a.864.864 0 0 0 0 .249c.024.21.024.304.024.356 0 .072.068.123.127.155.049.028.102-.02.091-.075-.061-.323-.055-.693.067-.924.112-.213.247-.415.37-.622.016-.026.035-.05.053-.075.039-.054-.007-.123-.067-.096-.082.037-.155.115-.241.14-.152.043-.252-.166-.134-.26.077-.06.483-.357.97-.218.35.1.533.367.603.468l.001.002c.057.083.226.33.22.675-.006.376-.311.967-.61 1.212Z" clip-rule="evenodd"/><path fill="#fff" d="M16.59 15.337c.156-.188.493-.744.477-1.07-.008-.173-.162-.23-.317-.23-.217 0-.284.156-.307.351-.048.307.041.661.148.949Z"/><path fill="#fff" d="M22.558 12.472c.042.034-.245.374-.272.426-.219.432-.138 1.052-.105 1.519.054.772-.457 2.119-1.39 2.122-.493 0-1.012-.013-1.497.08-.297.058-.563.201-.858.262-.72.146-1.568.078-2.294-.005-.383-.043-.851-.042-1.2-.228-.592-.316-.841-1.012-1.094-1.59-.004-.01.008-.02.018-.014.06.036.131.05.204.038.012-.002.027-.013.037 0 .079.217.314.196.529.171.197-.02.214.458.48.301.108-.064.19.05.265.11.123.126.42.186.67.186a.827.827 0 0 0 .33-.053c.103-.05.103-.126.098-.157a5.094 5.094 0 0 1-.023-.166s.109.08.111.08c.159 0 .17.077.238.185.042.066.127.145.296.148.184 0 .366-.058.476-.214.036-.05.144-.053.19-.01.06.055.136.08.226.07a.304.304 0 0 0 .217-.133.596.596 0 0 0 .083-.182c.006-.02.034-.026.049-.012a.27.27 0 0 0 .25.063c.168-.034.252-.173.291-.33.002-.005.01-.007.013-.003a.318.318 0 0 0 .258.112.253.253 0 0 0 .2-.092.493.493 0 0 0 .078-.267c.01-.152.34-.219.42-.36.016-.026.04-.05.072-.056.531-.104 1.449-.164 1.486-.833.027-.485.33-.975.608-1.362.087-.117.46.128.54.194Z"/><path fill="#fff" d="M16.337 13.97a3.695 3.695 0 0 0-.95 1.41c.023.346.713.383.926.267-.088-.568-.032-1.11.024-1.678Zm-.4-.124c.033.086.018.203.068.28-.063.09-.122.183-.185.273-.127-.023-.267-.004-.397-.022a5.46 5.46 0 0 1-.26-.045c.115-.173.253-.503.427-.612.11-.067.296.022.347.126Zm-.397.743c-.271-.024-.564.03-.813-.109-.012.19.053.91.282.941.23-.022.51-.64.53-.832Zm-.333-.949c-.07-.04-.158-.019-.224.023-.176.11-.26.317-.35.5v.002c.09.074.203.094.317.12.107-.158.455-.473.257-.644Zm-.394-.098c-.057-.038-.2-.055-.262-.02-.163.095-.28.341-.368.507.079.042.164.07.25.09.116-.202.2-.429.38-.577Zm-.177 1.498a1.52 1.52 0 0 1-.07-.617 1.753 1.753 0 0 1-.307-.08c-.024.187-.067.529.046.7.044.07.284.035.33-.004Zm-.32-1.56a.267.267 0 0 0-.159-.092c-.063-.011-.104 0-.142.05a1.57 1.57 0 0 0-.241.406c.073.039.135.106.215.128.084-.18.203-.34.327-.493Zm-.68.47c-.027.109.03.402.074.586 0 0 .07-.436.075-.459a.685.685 0 0 0-.149-.126Zm.432.327a4.247 4.247 0 0 0-.167-.072c-.026.133-.037.27-.032.406.007.16.043.246.2.281a2.17 2.17 0 0 1 0-.615Z"/></svg>