<svg xmlns="http://www.w3.org/2000/svg" id="Option_3" version="1.1" viewBox="0 0 600 600">
  <defs>
    <style>
      .st0{fill:#aeb1b1}
    </style>
  </defs>
  <path d="M577.74 128.37H261.8c-167.51 0-87.51 254.55-230.17 341.27 0 0 255.92 4.5 337.38 0 141.59-7.82 80.05-251.76 208.73-341.27Z" style="fill:#ce2028"/>
  <g id="A">
    <path d="m291.82 225.87.12.27c9.21 21.25 13.75 44.69 21.58 76.92l.03.13h44.2l-.87-3.3c-8.09-30.15-14.75-65.44-20.7-75.87-5.49-9.62-16.7-15.23-24.66-16.19h-.03c-11.11 2.71-16.11 9.93-19.67 18.04ZM379.77 371.19c-5.45-9.62-9.28-20.06-12.48-30.98-1.33-.37-2.81-.59-4.43-.59h-40.41c3.97 15.41 7.99 28.77 12.86 38.89 4.18 8.7 11.37 12.83 17.75 13.95h43.53c-7.67-4.14-11.38-11.68-16.82-21.28Z" class="st0"/>
    <path d="M367.29 340.21c8.1 2.23 11 10.1 11 10.1v-36.44s-5.84-10.69-16.25-10.69H270.1l.03-.13c7.83-32.22 12.37-55.66 21.58-76.92l.12-.27c3.55-8.11 8.56-15.33 19.67-18.04h-39.36c-7.97.97-19.18 6.58-24.67 16.19-5.95 10.43-12.61 45.72-20.7 75.87-6.78 25.29-10.97 50.25-22.89 71.3-5.44 9.6-9.14 17.14-16.82 21.28h43.53c6.39-1.11 13.57-5.25 17.75-13.95 4.87-10.13 8.89-23.49 12.86-38.89h101.65c1.63 0 3.1.22 4.43.59Z" style="fill:#fff"/>
  </g>
  <path id="Plus" d="M403.29 228.01h-18.18v-18.18h-13.65v18.18h-18.18v13.64h18.18v18.19h13.65v-18.19h18.18v-13.64z" style="stroke:#fff;stroke-miterlimit:10;stroke-width:5px;fill:#fff"/>
</svg>
