<svg viewBox="0 0 38 24" xmlns="http://www.w3.org/2000/svg" role="img" width="38" height="24" aria-labelledby="pi-apple_pay"><title id="pi-apple_pay">Apple Pay</title><g fill="none" fill-rule="evenodd"><rect fill="#0A0B09" width="38" height="24" rx="3"/><rect fill="#FFF" x="1" y="1" width="36" height="22" rx="2"/><path d="M31.768 9.03l-1.504 4.091a17.508 17.508 0 0 0-.374 1.083h-.029a33.764 33.764 0 0 0-.115-.357c-.078-.24-.162-.476-.248-.7l-1.61-4.117h-.86l2.302 5.919a.67.67 0 0 1 .07.234.971.971 0 0 1-.07.236c-.145.355-.31.66-.49.909a5.335 5.335 0 0 1-.504.605 2.738 2.738 0 0 1-.539.427c-.187.11-.358.2-.51.268l-.086.038.28.682.089-.033a5.6 5.6 0 0 0 .418-.192 3.2 3.2 0 0 0 .69-.489c.214-.186.409-.406.582-.654.17-.244.34-.53.507-.849.165-.317.33-.678.49-1.074.162-.398.335-.841.513-1.319l1.86-4.708h-.862zm-6.293 4.347c0 .085-.02.204-.06.345a1.71 1.71 0 0 1-.568.806c-.139.11-.305.198-.494.263a1.974 1.974 0 0 1-.646.099c-.146 0-.288-.024-.425-.072a1.033 1.033 0 0 1-.357-.214 1.067 1.067 0 0 1-.251-.363 1.365 1.365 0 0 1-.096-.54c0-.345.093-.626.275-.83a1.81 1.81 0 0 1 .72-.488 3.69 3.69 0 0 1 .971-.221 8.86 8.86 0 0 1 .931-.04v1.255zm.82 1.257c-.01-.25-.013-.5-.013-.75v-2.456c0-.291-.03-.588-.087-.883a2.238 2.238 0 0 0-.334-.822 1.866 1.866 0 0 0-.68-.604c-.288-.153-.662-.232-1.11-.232-.329 0-.65.043-.952.127a3.013 3.013 0 0 0-.89.424l-.065.044.272.638.1-.066a2.66 2.66 0 0 1 1.47-.451c.337 0 .605.06.797.181.194.121.34.272.436.447.098.182.163.375.191.575.03.209.045.396.045.556v.071c-1.196-.005-2.13.194-2.75.593-.65.419-.98 1.015-.98 1.773 0 .217.04.437.116.654.078.22.197.415.352.584.156.17.357.308.598.411.24.105.523.158.838.158a2.362 2.362 0 0 0 1.86-.86h.031l.075.716h.777l-.021-.115a4.956 4.956 0 0 1-.077-.713zm-6.243-4.061c-.414.347-1 .523-1.744.523a6.08 6.08 0 0 1-.575-.026 2.707 2.707 0 0 1-.405-.068V7.246a5.683 5.683 0 0 1 1.097-.086c.336 0 .646.04.922.12.273.078.51.195.708.346.193.15.346.345.451.58.107.239.16.523.16.844 0 .668-.207 1.18-.614 1.523zm.742-3.374a2.529 2.529 0 0 0-.966-.561c-.386-.128-.849-.194-1.376-.194-.365 0-.705.018-1.012.053-.303.035-.585.074-.838.117l-.081.014v8.834h.807v-3.721c.272.046.583.071.925.071.457 0 .884-.058 1.272-.173a2.85 2.85 0 0 0 1.018-.532c.287-.237.515-.535.682-.884a2.86 2.86 0 0 0 .249-1.225c0-.383-.061-.727-.18-1.024a2.335 2.335 0 0 0-.5-.775zm-8.05 3.688c-.01-1.257 1.026-1.862 1.074-1.892-.585-.85-1.492-.967-1.815-.98-.772-.077-1.509.454-1.9.454s-.994-.442-1.637-.429c-.842.012-1.618.49-2.052 1.243-.873 1.522-.222 3.769.63 4.998.417.603.913 1.28 1.567 1.255.63-.024.865-.406 1.625-.406.759-.002.973.405 1.636.394.676-.014 1.106-.615 1.52-1.221.477-.697.674-1.375.684-1.409-.013-.008-1.316-.505-1.331-2.008zM11.309 7.2c.346-.42.58-1.003.516-1.584-.5.02-1.105.335-1.46.752-.323.371-.602.965-.525 1.534.556.044 1.123-.282 1.469-.702z" fill="#0A0A08"/></g></svg>