<svg xmlns="http://www.w3.org/2000/svg" fill="none" viewBox="0 0 38 24" height="24" width="38" aria-labelledby="pi-aqsat" role="img"><title id="pi-aqsat">AQSAT</title><path fill="#fff" d="M0 0h38v24H0z"/><path fill="#FDC507" fill-rule="evenodd" d="M9.265 9.805a22.187 22.187 0 0 0-.602-.492 2.81 2.81 0 0 0-.24-.15.145.145 0 0 0-.05.04 515.641 515.641 0 0 1-3.1 5.315c-1.027-1.129-1.358-2.44-.992-3.931.542-1.646 1.669-2.606 3.38-2.879a4.124 4.124 0 0 1 1.945.24c.196.083.384.18.561.292l-.902 1.564Z" clip-rule="evenodd" opacity=".993"/><path fill="#00A7A0" fill-rule="evenodd" d="M9.253 9.832c1.051 1.21 1.31 2.572.773 4.09-.58 1.303-1.573 2.082-2.979 2.339a3.68 3.68 0 0 1-2.487-.492c.239-.406.473-.813.701-1.224a533.093 533.093 0 0 0 3.1-5.314.145.145 0 0 1 .05-.04c.082.045.163.095.24.15.205.16.405.324.602.49Z" clip-rule="evenodd" opacity=".995"/><path fill="#FDC606" fill-rule="evenodd" d="M28.258 9.564c.23-.016.46.008.681.07a.799.799 0 0 1 .351.312c.5 1.296.999 2.593 1.494 3.89a4.593 4.593 0 0 1-.852 0l-1.264-3.349c-.073-.15-.182-.186-.33-.11a.569.569 0 0 0-.09.15l-1.304 3.31c-.277.02-.555.026-.832.02a201.832 201.832 0 0 1 1.554-3.931.848.848 0 0 1 .592-.362Zm-14.255-.013c.232-.017.46.007.682.07a.746.746 0 0 1 .37.331c.498 1.295.99 2.592 1.476 3.89-.281.007-.562 0-.843-.02-.415-1.11-.833-2.22-1.253-3.329-.057-.153-.16-.204-.311-.15a.426.426 0 0 0-.13.19 363.677 363.677 0 0 1-1.295 3.29c-.28.027-.562.027-.842 0 .512-1.299 1.03-2.597 1.555-3.891a.85.85 0 0 1 .591-.381Z" clip-rule="evenodd" opacity=".975"/><path fill="#FDC606" fill-rule="evenodd" d="M18.384 9.584c2.17-.274 3.089.669 2.758 2.829a1.62 1.62 0 0 1-.892 1.213l.4.823c-.26.016-.522.013-.782-.01a13.726 13.726 0 0 0-.3-.623c-.395-.017-.79-.027-1.184-.03-.856-.107-1.36-.585-1.514-1.434a4.735 4.735 0 0 1-.02-1.203c.119-.912.63-1.433 1.534-1.565Zm.201.742c.287-.003.575 0 .862.01.488.02.799.265.932.733.11.47.089.963-.06 1.423a.821.821 0 0 1-.401.442 49.82 49.82 0 0 0-.37-.772 4.834 4.834 0 0 0-.762.01c.137.292.278.583.42.873a3.428 3.428 0 0 1-.963-.06.957.957 0 0 1-.63-.794 2.685 2.685 0 0 1 .059-1.223.873.873 0 0 1 .571-.572c.116-.027.23-.05.341-.07h.001Z" clip-rule="evenodd" opacity=".978"/><path fill="#FDC606" fill-rule="evenodd" d="M22.908 9.589h2.447v.742c-.756-.003-1.512 0-2.267.01-.28.038-.427.198-.44.482.006.24.127.395.36.46l1.665.06c.59.097.921.44.993 1.034.063.448-.062.832-.372 1.153-.2.145-.436.234-.682.26-.882.01-1.765.014-2.647.01v-.74c.823.002 1.644 0 2.467-.01a.476.476 0 0 0 .47-.372c.059-.27-.031-.466-.27-.592a1.157 1.157 0 0 0-.34-.06 29.334 29.334 0 0 1-1.465-.04c-.624-.144-.938-.538-.942-1.184.006-.69.348-1.096 1.023-1.213Zm7.715-.028h3.23v.742h-1.244v3.47h-.762v-3.47h-1.224V9.56Z" clip-rule="evenodd" opacity=".984"/></svg>