<svg xmlns="http://www.w3.org/2000/svg" width="38" height="24" aria-labelledby="pi-aqsat"><title id="pi-aqsat">Aqsat</title><path opacity=".07" fill="#000" d="M35 0H3C1.3 0 0 1.3 0 3v18c0 1.7 1.4 3 3 3h32c1.7 0 3-1.3 3-3V3c0-1.7-1.4-3-3-3z"/><path fill="#fff" d="M35 1c1.1 0 2 .9 2 2v18c0 1.1-.9 2-2 2H3c-1.1 0-2-.9-2-2V3c0-1.1.9-2 2-2h32"/><path d="M8.354 9.6a24.261 24.261 0 00-.658-.538 3.074 3.074 0 00-.263-.164.159.159 0 00-.055.043 564.047 564.047 0 01-3.389 5.813c-1.124-1.234-1.486-2.668-1.085-4.299.593-1.8 1.825-2.849 3.696-3.148a4.51 4.51 0 012.127.264c.215.089.42.195.614.318l-.987 1.71z" opacity=".993" clip-rule="evenodd" fill="#fdc507" fill-rule="evenodd"/><path d="M8.341 9.63c1.15 1.322 1.432 2.813.845 4.474-.634 1.424-1.72 2.276-3.257 2.556a4.025 4.025 0 01-2.72-.538c.261-.443.517-.889.767-1.338 1.14-1.929 2.27-3.866 3.39-5.812a.159.159 0 01.054-.044c.09.05.179.105.263.164.224.176.443.355.658.538z" opacity=".995" clip-rule="evenodd" fill="#00a7a0" fill-rule="evenodd"/><path d="M29.125 9.337a2.18 2.18 0 01.745.077c.163.075.29.189.384.34.547 1.418 1.092 2.836 1.634 4.255a5.006 5.006 0 01-.932 0l-1.382-3.663c-.08-.163-.2-.203-.362-.12a.623.623 0 00-.098.164l-1.426 3.62a9.577 9.577 0 01-.91.021 220.814 220.814 0 011.7-4.299.927.927 0 01.647-.395zm-15.589-.015c.254-.018.502.008.746.077a.816.816 0 01.405.362 500.942 500.942 0 011.613 4.255c-.308.007-.615 0-.922-.022a936.958 936.958 0 00-1.37-3.641c-.062-.168-.175-.223-.34-.165a.467.467 0 00-.143.209c-.466 1.201-.937 2.4-1.415 3.597-.307.03-.614.03-.921 0 .56-1.42 1.127-2.84 1.7-4.255a.928.928 0 01.647-.417z" opacity=".975" clip-rule="evenodd" fill="#fdc606" fill-rule="evenodd"/><path d="M18.327 9.359c2.373-.3 3.378.731 3.016 3.093-.11.606-.435 1.048-.976 1.327l.438.9c-.285.017-.57.014-.855-.012-.104-.23-.213-.456-.329-.68-.431-.018-.863-.03-1.294-.033-.936-.117-1.488-.64-1.656-1.568a5.175 5.175 0 01-.022-1.316c.13-.997.69-1.567 1.678-1.711zm.22.811c.314-.003.628 0 .942.011.534.022.874.29 1.02.801a2.933 2.933 0 01-.065 1.557.898.898 0 01-.44.483 44.78 44.78 0 00-.405-.844 5.29 5.29 0 00-.833.01c.15.32.304.638.46.955a3.748 3.748 0 01-1.053-.066c-.394-.155-.624-.444-.69-.867a2.935 2.935 0 01.065-1.338.954.954 0 01.625-.625c.127-.03.251-.056.373-.077z" opacity=".978" clip-rule="evenodd" fill="#fdc606" fill-rule="evenodd"/><path d="M23.274 9.364h2.676v.811c-.826-.003-1.653 0-2.479.011-.306.042-.467.217-.482.527.008.264.14.432.394.504l1.821.066c.646.105 1.008.481 1.086 1.13.069.49-.067.91-.406 1.261-.223.16-.472.255-.746.285-.965.011-1.93.015-2.895.011v-.811c.9.003 1.798 0 2.698-.011.269-.014.44-.15.515-.406.063-.294-.035-.51-.296-.647a1.266 1.266 0 00-.373-.066 32.112 32.112 0 01-1.601-.044c-.683-.157-1.026-.588-1.03-1.294.006-.756.38-1.199 1.118-1.327zm8.438-.031h3.531v.812h-1.36v3.795h-.833v-3.795h-1.338v-.812z" opacity=".984" clip-rule="evenodd" fill="#fdc606" fill-rule="evenodd"/></svg>