<svg xmlns="http://www.w3.org/2000/svg" role="img" viewBox="0 0 38 24" width="38" height="24" aria-labelledby="pi-aquipago"><title id="pi-aquipago">Aqui Pago</title><path opacity=".07" d="M35 0H3C1.3 0 0 1.3 0 3v18c0 1.7 1.4 3 3 3h32c1.7 0 3-1.3 3-3V3c0-1.7-1.4-3-3-3z"/><path fill="#FFF" d="M35 1c1.1 0 2 .9 2 2v18c0 1.1-.9 2-2 2H3c-1.1 0-2-.9-2-2V3c0-1.1.9-2 2-2h32"/><g fill-rule="evenodd" clip-rule="evenodd"><path fill="#00529B" d="M4.17 11.71c.63-4.58 6.44-8.45 13.55-9.2 3.85-.41 7.46.15 10.22 1.41 0 0-3.23-1.4-10.12-.67C6.06 4.49 4.17 11.71 4.17 11.71zM33.83 12.29c-.63 4.58-6.44 8.45-13.55 9.2-3.85.41-7.46-.15-10.22-1.41 0 0 3.23 1.4 10.12.67 11.76-1.24 13.65-8.46 13.65-8.46zM9.91 15.37l-.26 1.03c-.03.11-.04.24-.04.37 0 .08.01.16.04.24H7.59c.06-.08.1-.15.12-.2.07-.12.14-.32.21-.59L8.76 13c.03-.11.04-.23.04-.37 0-.07-.02-.16-.04-.24h3.6c.2 0 .35.01.44.03.26.05.44.18.56.38.08.14.12.28.12.43 0 .07-.02.18-.05.32l-.21.82c-.09.37-.24.64-.45.8-.16.11-.37.18-.61.2H9.91zm.2-.76h.82c.2 0 .34-.03.41-.09.06-.05.11-.16.16-.34l.17-.66c.01-.05.02-.1.02-.14 0-.09-.03-.15-.09-.19a.678.678 0 00-.27-.04h-.85l-.37 1.46zM17.23 12.39l.8 3.87c.05.2.09.36.13.48.04.09.1.19.19.29H16.2c.07-.14.11-.26.11-.36 0-.11-.02-.25-.05-.42l-.1-.48h-2.15l-.52.77c-.1.15-.15.27-.15.37 0 .03 0 .07.01.11h-1.23c.18-.15.37-.37.57-.65l2.48-3.71a.81.81 0 00-.17-.16 1.04 1.04 0 00-.21-.1l2.44-.01zm-1.22 2.65l-.36-1.77-1.18 1.77h1.54z"/><path fill="#00529B" d="M21.06 14.28h2.87c-.06.08-.1.15-.12.2-.07.12-.14.32-.21.59l-.34 1.33c-.03.11-.04.24-.04.37 0 .08.02.16.05.24H21.8l.01-.43c-.07.17-.15.29-.24.35-.08.05-.21.08-.39.08h-1.44c-.18 0-.34-.01-.48-.03a.756.756 0 01-.56-.35.843.843 0 01-.15-.47c0-.11.03-.27.08-.48l.59-2.3c.06-.24.14-.42.24-.55.09-.12.22-.22.38-.31s.33-.13.51-.14c.12-.01.38-.02.8-.02h3l-.08.88c-.18-.08-.44-.12-.79-.12H21.5c-.15 0-.27.01-.34.04-.1.05-.18.15-.22.32l-.6 2.33c-.02.08-.03.13-.03.17 0 .16.1.23.32.23h.58c.15 0 .25-.03.3-.1.04-.05.08-.17.12-.35l.19-.76h-.44c-.2 0-.38.03-.55.08l.23-.8zM26.21 12.39h2.23c.19 0 .34.01.46.03.27.05.47.18.6.41.09.15.14.32.14.5 0 .11-.02.24-.06.4L29 16.01c-.05.2-.1.35-.16.45-.06.11-.14.2-.25.29-.1.09-.21.15-.32.18-.17.06-.41.08-.7.08h-2.34c-.22 0-.38-.01-.49-.02a.798.798 0 01-.57-.4.94.94 0 01-.12-.47c0-.1.03-.25.08-.44l.58-2.27c.06-.22.13-.39.21-.52.08-.13.19-.23.32-.3.23-.14.56-.2.97-.2zm.22 1.2l-.57 2.24c-.03.13-.05.2-.05.22 0 .08.04.13.12.17.05.02.14.03.27.03h.66c.14 0 .24-.02.28-.06.04-.05.09-.16.13-.35l.58-2.24c.01-.05.02-.1.03-.12.02-.06.02-.1.02-.14 0-.13-.11-.19-.34-.19h-.64c-.16 0-.27.02-.33.07-.05.05-.11.18-.16.37z"/><g fill="#BE0811"><path d="M12.92 7.07l.91 3.99c.05.21.1.37.15.49.04.1.12.2.22.3h-2.46c.08-.14.12-.27.12-.37 0-.12-.02-.26-.05-.43l-.11-.5H9.24l-.59.8c-.11.15-.17.27-.17.38 0 .03.01.07.02.12H7.1c.2-.15.42-.38.65-.68l2.83-3.83a.8.8 0 00-.19-.16c-.05-.03-.13-.07-.24-.11h2.77zm-1.39 2.74l-.41-1.83-1.34 1.83h1.75zM17.88 11.84l.1.59h-.75l-.1-.59H15.7c-.44 0-.76-.06-.95-.19-.27-.18-.4-.4-.4-.68 0-.11.02-.25.07-.41l.71-2.5c.11-.4.3-.67.57-.81.25-.13.61-.19 1.07-.19h2.75c.22 0 .39.01.5.04a1 1 0 01.59.39c.11.14.17.3.17.47 0 .11-.02.25-.07.41l-.67 2.36c-.06.22-.12.38-.18.5-.25.43-.73.63-1.45.61h-.53zm-.25-1.47l.11.69c.1-.02.17-.07.2-.14.02-.05.05-.13.09-.26l.68-2.41c.02-.07.03-.13.03-.17a.22.22 0 00-.08-.18c-.03-.03-.14-.04-.32-.05h-.74c-.17 0-.29.02-.36.06-.07.05-.13.17-.18.35l-.68 2.42c-.02.06-.03.11-.03.16 0 .09.04.15.12.18.04.02.12.02.22.02H17l-.11-.69.74.02zM25.95 7.07h1.19c-.07.09-.11.16-.14.2-.08.13-.16.33-.24.61l-.82 2.88c-.06.22-.12.39-.16.51-.06.12-.14.22-.24.31-.1.09-.22.15-.34.18-.06.02-.15.03-.26.05-.11.02-.18.02-.23.02h-3.04c-.11 0-.27-.01-.47-.02a.836.836 0 01-.64-.34.784.784 0 01-.14-.46c0-.14.02-.3.08-.48l.8-2.84c.03-.12.05-.25.05-.38a.85.85 0 00-.05-.25h2.34c-.06.09-.11.16-.14.2-.08.13-.16.33-.24.61l-.76 2.69c-.03.09-.04.16-.04.22 0 .11.04.19.12.22.07.03.19.04.38.04h1.59c.19 0 .33-.03.41-.1.07-.05.11-.12.13-.21l.05-.19.81-2.86c.04-.09.05-.22.05-.36 0-.07-.01-.16-.05-.25zM29.86 7.07c-.07.09-.11.16-.14.2-.08.13-.16.33-.24.61l-.94 3.33c-.03.12-.05.24-.05.38 0 .07.02.16.05.25H26.2c.07-.09.11-.16.14-.2.08-.13.16-.33.24-.61l.94-3.33c.03-.11.05-.24.05-.38 0-.08-.02-.16-.05-.25h2.34zm.34-1.43l-1.02 1.14h-1.07l.78-1.14h1.31z"/></g><path fill="#BE0811" d="M29.15 11.98v-.09c.07 0 .15-.02.21-.06a.49.49 0 00.16-.16c.03-.07.06-.15.06-.23s-.02-.16-.06-.23a.41.41 0 00-.16-.16.42.42 0 00-.21-.06v-.09c.09 0 .18.02.26.07.08.05.15.11.19.2.05.08.07.17.07.28 0 .1-.02.2-.07.28s-.11.15-.19.2c-.08.02-.17.05-.26.05zm0-.5l.16.26h.1l-.16-.27c.1-.02.15-.07.15-.18 0-.06-.02-.11-.05-.13a.31.31 0 00-.16-.04h-.03v.08h.02c.08 0 .13.02.13.09 0 .04-.02.07-.04.08-.02.02-.06.02-.11.02l-.01.09zm0 .5v-.09a.38.38 0 01-.3-.13.438.438 0 01-.12-.32c0-.08.02-.16.06-.23.03-.07.09-.12.16-.16a.42.42 0 01.21-.06v-.09c-.1 0-.18.02-.26.07-.08.05-.15.11-.2.2-.05.09-.07.18-.07.28s.02.19.07.28c.05.08.11.15.2.2.07.02.16.05.25.05zm0-.86h-.2v.63h.09v-.27h.11l.01.01v-.09h-.11v-.2h.11v-.08z"/></g></svg>