<svg xmlns="http://www.w3.org/2000/svg" width="38" height="24" fill="none" aria-labelledby="pi-arhaus" role="img" viewBox="0 0 38 24"><title id="pi-arhaus">Arhaus</title><path fill="#fff" d="M0 0h38v24H0z"/><path fill="#1E372F" d="M26.7 19.4c-.3 0-.6 0-.8-.1-.4-.1-1-.4-1.8-2.2-1.3-3-4.5-11.3-4.8-12-.3-.6-.3-.7-.5-.7-.1 0-.2.1-.5.8l-4.7 12.4c-.4 1-.8 1.8-1.7 1.9h-.6c-.1 0-.2 0-.2.1s.1.2.4.2c1 0 2.1-.1 2.3-.1s1.1.1 1.6.1c.2 0 .3 0 .3-.2 0-.1-.1-.1-.2-.1h-.2c-.4 0-.8-.2-.8-.6 0-.5.1-.9.3-1.3l1.2-3.5c0-.1.1-.2.2-.2h4.4c.1 0 .2 0 .2.1l1.9 4.9c.1.3 0 .5-.1.5s-.1.1-.1.1c0 .1.2.1.6.1h3.2c.2 0 .4 0 .4-.2.2 0 .1 0 0 0m-6.2-6.3h-3.9c-.1 0-.1 0-.1-.1l1.8-5.4q.15-.45.3 0l2 5.4s0 .1-.1.1"/></svg>