<svg xmlns="http://www.w3.org/2000/svg" width="38" height="24" fill="none" aria-labelledby="pi-ashleyplcc" role="img" viewBox="0 0 38 24"><title id="pi-ashleyplcc">Ashley Credit Card</title><g clip-path="url(#pi-ashleyplcc-clip)"><path fill="#312D2E" d="M0 0h38v24H0z"/><path fill="#000" d="m2.49 0 10.443 24H6.629L.022 8.665 0 0s1.862-.005 2.49 0m29.02 4.25L31.48 0H29.5l2.01 4.249ZM15.085 0c-.437 1.616-.415 1.935-.421 2.066.034.648.178 1.286.425 1.886.532 1.13 1.244 1.654 1.96 2.222.844.65 1.737 1.072 2.702 1.407l4.36 1.385 3.309 1.115c.93.351 2.022.65 2.8 1.217.937.554 1.548 1.26 2.225 1.977.534.584.908 1.256 1.2 1.972.244.648.344 1.27.423 1.887.098 1.086.074 1.871-.044 2.43-.116.678-.274 1.35-.474 2.008a14 14 0 0 1-.78 1.741c-.334.549-.358.568-.474.687H30.29c.126-.363.061-.104.209-.712.101-.412.193-.832.19-1.332-.01-.42.091-.535-.09-1.444-.082-.523-.192-1.044-.51-1.506a4.4 4.4 0 0 0-1.064-1.242c-.494-.432-.923-.843-1.857-1.303-.742-.347-1.493-.69-2.437-.991-1.704-.478-3.256-.951-4.882-1.427-1.245-.359-2.266-.853-3.341-1.314a9.6 9.6 0 0 1-2.64-2.116c-.58-.776-1.113-1.58-1.417-2.533-.215-.701-.346-1.496-.436-2.34l.006-.821c.033-.435-.03-.646.18-1.501.075-.312.16-.647.49-1.55.143-.32.25-.608.57-1.065.23-.35.276-.468.563-.803h-.004z"/><path fill="#fff" d="m22.498 6.735.221.497h-.444zm-.05-.13-.445.982h.113l.116-.257h.53l.114.257h.119l-.445-.982zm.997.313q.01.027.04.05a.3.3 0 0 0 .08.042 1 1 0 0 0 .133.036.6.6 0 0 1 .24.1.22.22 0 0 1 .078.178.26.26 0 0 1-.198.258.6.6 0 0 1-.348-.018.6.6 0 0 1-.184-.117l.068-.081a.6.6 0 0 0 .155.104.45.45 0 0 0 .18.034.25.25 0 0 0 .158-.047q.06-.045.059-.12a.2.2 0 0 0-.011-.063.13.13 0 0 0-.04-.05.3.3 0 0 0-.077-.04 1 1 0 0 0-.126-.035 1 1 0 0 1-.146-.042.4.4 0 0 1-.103-.057.2.2 0 0 1-.06-.078.3.3 0 0 1-.02-.106.24.24 0 0 1 .09-.192.3.3 0 0 1 .103-.055.54.54 0 0 1 .316.01.5.5 0 0 1 .155.088l-.064.085a.42.42 0 0 0-.282-.106.3.3 0 0 0-.086.013.2.2 0 0 0-.065.033.14.14 0 0 0-.056.113q0 .034.011.063m1.649.669V7.15h-.563v.438h-.11v-.974h.11v.433h.563v-.433h.11v.974zm1.226 0h-.66v-.974h.11v.873h.55zm.384-.974h.705v.1h-.595v.333h.532v.1h-.532v.34h.602v.1h-.712zm1.148 0 .328.487.33-.487h.129l-.405.587v.387h-.11v-.385l-.406-.59zm1.548.309q.015.031.042.052a.3.3 0 0 0 .083.043q.052.02.136.037.136.023.247.103.08.065.08.182a.27.27 0 0 1-.204.265.6.6 0 0 1-.357-.02.6.6 0 0 1-.19-.12l.07-.082a.6.6 0 0 0 .16.107.5.5 0 0 0 .184.035.26.26 0 0 0 .163-.047.15.15 0 0 0 .06-.125.2.2 0 0 0-.01-.064.13.13 0 0 0-.041-.05.3.3 0 0 0-.08-.043 1 1 0 0 0-.13-.036 1 1 0 0 1-.15-.043.4.4 0 0 1-.105-.058.2.2 0 0 1-.062-.08.3.3 0 0 1-.02-.11.25.25 0 0 1 .093-.197.3.3 0 0 1 .105-.057.55.55 0 0 1 .324.01q.082.03.16.09l-.066.089a.43.43 0 0 0-.29-.11.28.28 0 0 0-.155.048.14.14 0 0 0-.058.116q0 .036.011.065m1.247.688v-.897h-.336v-.105h.786v.105h-.337v.897zm.963-.9v.343h.546v.103h-.547v.35h.619v.104h-.732V6.608h.725v.103zm1.35.907h-.095l-.358-1.01h.123l.286.836.275-.838h.094l.274.838.287-.835h.119l-.358 1.01h-.096l-.275-.814zm1.689-.883-.23.51h.457zm.51.876h-.12l-.118-.265h-.546l-.118.265h-.116l.456-1.01h.106zm.968-.845a.3.3 0 0 0-.19-.053h-.309v.408h.309q.053 0 .103-.014a.3.3 0 0 0 .082-.04.19.19 0 0 0 .073-.154.18.18 0 0 0-.068-.147m.078.845-.29-.39h-.287v.39h-.113V6.608h.43q.084 0 .15.022a.3.3 0 0 1 .114.06.27.27 0 0 1 .1.217q0 .063-.02.113a.3.3 0 0 1-.057.086.4.4 0 0 1-.196.095l.308.41zm.449-.897h.337v.897h.113v-.897h.337v-.105h-.787z"/></g><defs><clipPath id="pi-ashleyplcc-clip"><path fill="#fff" d="M0 0h38v24H0z"/></clipPath></defs></svg>