<svg xmlns="http://www.w3.org/2000/svg" width="38" height="24" fill="none" aria-labelledby="pi-ask" role="img" viewBox="0 0 38 24"><title id="pi-ask">ASK</title><path fill="#fff" d="M0 0h38v24H0z"/><path fill="#05AFF2" d="m6.37 15.74-.9 2.81H3.05L7.6 5.45h2.33l4.57 13.1h-2.48l-.91-2.81zm2.38-7.31-1.62 5.01h3.24zm7.99 9.93c-.75-.29-1.35-.65-1.81-1.1.08-.23.72-2.06.8-2.28q.66.615 1.56.99c.61.25 1.21.37 1.81.37.67 0 1.17-.12 1.49-.37.32-.27.48-.61.48-1.03 0-.31-.1-.57-.29-.77-.19-.21-.43-.38-.73-.5q-.435-.195-1.2-.42c-.77-.23-1.41-.47-1.91-.71-.49-.23-.92-.61-1.28-1.14-.35-.52-.53-1.22-.53-2.09 0-.77.16-1.45.49-2.06.32-.63.8-1.12 1.44-1.48.65-.36 1.44-.54 2.38-.54.65 0 1.29.1 1.91.3s1.16.48 1.63.86c-.07.23-.65 2.07-.73 2.3-.94-.69-1.88-1.03-2.83-1.03-.66 0-1.15.14-1.47.41-.31.28-.47.64-.47 1.09 0 .44.18.78.54 1.01q.555.315 1.68.63c.78.24 1.41.48 1.91.71.5.24.92.61 1.27 1.13q.54.765.54 2.07c0 .75-.17 1.44-.5 2.06-.32.61-.8 1.1-1.46 1.46q-.975.54-2.37.54c-.81 0-1.59-.13-2.35-.41m10.82-3.12v3.31h-2.35V5.45h2.35v6.12l4.52-6.12h2.63l-4.24 5.84 4.48 7.26H32.2l-3.27-5.15z"/></svg>