<svg width="38" height="24" viewBox="0 0 38 24" role="img" aria-labelledby="pi-ask" xmlns="http://www.w3.org/2000/svg"><title id="pi-ask">ASK</title>
<path d="M17.32 17.5H7.57L5.71 22H0.73L10.09 0.999999H14.89L24.28 22H19.18L17.32 17.5ZM15.79 13.81L12.46 5.77L9.13 13.81H15.79ZM33.7188 22.36C32.0588 22.36 30.4488 22.14 28.8888 21.7C27.3488 21.24 26.1088 20.65 25.1688 19.93L26.8188 16.27C27.7188 16.93 28.7888 17.46 30.0288 17.86C31.2688 18.26 32.5088 18.46 33.7488 18.46C35.1288 18.46 36.1488 18.26 36.8088 17.86C37.4688 17.44 37.7988 16.89 37.7988 16.21C37.7988 15.71 37.5988 15.3 37.1988 14.98C36.8188 14.64 36.3188 14.37 35.6988 14.17C35.0988 13.97 34.2788 13.75 33.2388 13.51C31.6388 13.13 30.3288 12.75 29.3088 12.37C28.2888 11.99 27.4088 11.38 26.6688 10.54C25.9488 9.7 25.5888 8.58 25.5888 7.18C25.5888 5.96 25.9188 4.86 26.5788 3.88C27.2388 2.88 28.2288 2.09 29.5488 1.51C30.8888 0.929999 32.5188 0.64 34.4388 0.64C35.7788 0.64 37.0888 0.799999 38.3688 1.12C39.6488 1.44 40.7688 1.9 41.7288 2.5L40.2288 6.19C38.2888 5.09 36.3488 4.54 34.4088 4.54C33.0488 4.54 32.0388 4.76 31.3788 5.2C30.7388 5.64 30.4188 6.22 30.4188 6.94C30.4188 7.66 30.7888 8.2 31.5288 8.56C32.2888 8.9 33.4388 9.24 34.9788 9.58C36.5788 9.96 37.8888 10.34 38.9088 10.72C39.9288 11.1 40.7988 11.7 41.5188 12.52C42.2588 13.34 42.6288 14.45 42.6288 15.85C42.6288 17.05 42.2888 18.15 41.6088 19.15C40.9488 20.13 39.9488 20.91 38.6088 21.49C37.2688 22.07 35.6388 22.36 33.7188 22.36ZM53.9596 13.75L51.1396 16.69V22H46.3096V0.999999H51.1396V10.81L60.4396 0.999999H65.8396L57.1396 10.36L66.3496 22H60.6796L53.9596 13.75Z" fill="#05AFF2"/>
</svg>
