<svg width="38" height="24" role="img" viewBox="0 0 38 24" fill="none" xmlns="http://www.w3.org/2000/svg" aria-labelledby="pi-astrapay"><title id="pi-astrapay">AstraPay</title><g clip-path="url(#pi-astrapay)"><path opacity=".07" d="M35 0H3C1.3 0 0 1.3 0 3v18c0 1.7 1.4 3 3 3h32c1.7 0 3-1.3 3-3V3c0-1.7-1.4-3-3-3z" fill="#000"/><path d="M35 1c1.1 0 2 .9 2 2v18c0 1.1-.9 2-2 2H3c-1.1 0-2-.9-2-2V3c0-1.1.9-2 2-2h32z" fill="#fff"/><path opacity=".07" d="M35 0H3C1.3 0 0 1.3 0 3v18c0 1.7 1.4 3 3 3h32c1.7 0 3-1.3 3-3V3c0-1.7-1.4-3-3-3z" fill="#000"/><path d="M35 1c1.1 0 2 .9 2 2v18c0 1.1-.9 2-2 2H3c-1.1 0-2-.9-2-2V3c0-1.1.9-2 2-2h32z" fill="#fff"/><path d="M19.935 2c.083.043.142.103.212.128.528.186 1 .47 1.353.901.286.35.513.752.745 1.143.404.677.793 1.362 1.185 2.046.756 1.321 1.509 2.644 2.258 3.968.238.419.37.865.425 1.35a3.178 3.178 0 01-.334 1.82c-.517 1.017-1.323 1.68-2.477 1.848-.133.02-.267.04-.402.041-2.618.002-5.237.007-7.855-.002-.72-.002-1.347-.285-1.908-.733-.67-.535-1.055-1.243-1.219-2.068-.127-.644-.073-1.298.222-1.884.398-.791.858-1.551 1.294-2.323.399-.706.798-1.41 1.2-2.113.404-.704.805-1.409 1.22-2.104.21-.353.415-.719.683-1.025a2.829 2.829 0 011.348-.866.457.457 0 00.175-.111C18.671 2 19.293 2 19.935 2V2zm3.16 9.887c.18-.535.11-1.05-.16-1.531-.662-1.171-1.32-2.344-2.01-3.498a2.213 2.213 0 00-3.834.013 182.755 182.755 0 00-2.01 3.497c-.506.899-.288 1.973.492 2.555.81.604 1.9.514 2.62-.219.157-.159.306-.328.465-.487.219-.217.488-.217.708 0 .14.138.267.285.404.425 1.04 1.052 2.791.669 3.325-.755zM9 20.538c.03-.043.073-.061.085-.092.296-.813.583-1.629.886-2.439.033-.089.137-.205.217-.213.478-.045.645-.076.805.417.28.864.58 1.722.868 2.582.073.215.017.272-.206.296-.246.028-.37-.07-.427-.306-.042-.176-.112-.346-.17-.52H9.795c-.048.163-.104.329-.146.498-.083.337-.292.429-.633.271C9 20.883 9 20.721 9 20.54zm1.689-1.48l-.251-.75-.492 1.417h.966a22.078 22.078 0 01-.223-.667zM27.033 22c-.154-.214-.013-.333.12-.477.182-.195.338-.415.448-.555-.188-.349-.36-.616-.482-.905-.167-.397-.299-.811-.442-1.219-.042-.119-.106-.247.068-.327.188-.085.384-.05.473.108.045.078.066.17.097.258.182.497.364.995.6 1.494.117-.328.244-.651.346-.983.077-.25.111-.513.185-.765.05-.172.21-.166.351-.15.06.009.116.052.19.079.017.204.017.408.001.625a.427.427 0 00-.07.119c-.226.748-.495 1.48-.914 2.146-.12.189-.257.368-.385.552h-.586zm-5-1.95c0 .282-.009.544.003.804.008.171-.06.236-.22.232-.17-.004-.364.032-.387-.221-.01-.115-.002-.232-.002-.348 0-.784.006-1.566-.005-2.349-.002-.179.046-.308.214-.345.575-.13 1.157-.209 1.698.108.494.29.522.673.462 1.153-.057.44-.425.764-.869.822-.24.032-.483.027-.725.05-.058.005-.112.048-.169.095zm0-1.51v.933c.317-.047.602-.064.87-.14.259-.073.303-.316.298-.556-.005-.229-.133-.43-.357-.473-.26-.05-.53-.046-.81-.068v.305-.001zm2.773 1.02c.16-.016.302-.027.442-.045.134-.017.266-.042.4-.063.03-.346-.229-.527-.498-.498-.223.024-.442.088-.664.123-.077.011-.225-.006-.23-.029-.019-.115-.046-.308.012-.344.172-.109.378-.203.578-.223.322-.031.654-.046.963.119.283.15.415.383.422.69.008.428-.002.857.003 1.285.003.18-.073.31-.229.38-.508.225-1.028.258-1.549.04-.257-.108-.447-.43-.427-.685.028-.375.234-.627.573-.707.062-.015.124-.029.204-.044zm-.064.52c-.179.196-.156.45.085.503.243.055.509.005.765-.009.027-.002.072-.067.075-.105.007-.183.003-.368.003-.582-.325.061-.613.116-.928.194zm-5.262-1.61c.35-.016.655.048.908.283a.669.669 0 01.217.516c-.002.435-.011.871.004 1.306.007.212-.1.326-.263.398-.415.18-.878.216-1.316.102-.391-.097-.642-.407-.633-.757.008-.401.278-.688.728-.756.3-.045.604-.072.906-.108-.021-.558-.377-.536-.852-.482-.096.011-.186.066-.281.094-.113.033-.242.13-.308-.071-.054-.16.005-.344.166-.387.23-.062.468-.093.724-.137zm-.478 1.818c-.012.159.06.294.206.306.248.022.5-.002.75-.017.03-.003.077-.067.078-.105.009-.184.004-.37.004-.551-.2.012-.375 0-.539.039-.19.043-.425.037-.5.328h.001zm-6.258-1.72c.421-.153.826-.131 1.226.008.167.058.254.196.22.373-.026.128-.084.204-.26.14-.215-.079-.45-.11-.68-.133-.17-.018-.34.076-.335.248.003.092.165.21.28.263.26.119.54.196.804.306.277.117.309.394.31.633a.624.624 0 01-.416.611c-.459.172-.92.173-1.369-.033-.29-.133-.312-.364-.122-.543.32.075.602.153.889.202.086.014.197-.031.275-.083.067-.045.146-.14.142-.208-.005-.08-.075-.196-.147-.227-.239-.102-.489-.177-.737-.254-.263-.082-.463-.222-.488-.522-.03-.337.041-.629.408-.782zm2.535 1.08v.588c0 .329.208.48.522.393.111-.03.255-.172.333.046.074.206.003.337-.225.408a1.14 1.14 0 01-1.017-.156c-.208-.143-.208-.409-.213-.628-.017-.769-.006-1.538-.009-2.308 0-.114.034-.168.16-.176.39-.023.449.027.449.424v.363c.228 0 .436.002.642-.001.126-.003.226-.003.228.175 0 .165-.027.292-.214.302-.209.01-.417.002-.656.002v.568zm1.306-.758c.144-.12.27-.277.424-.317.29-.07.587-.1.884-.093.297.008.371.217.245.446l-.846.112c-.123.015-.156.086-.155.208.006.521.005 1.043.002 1.565 0 .13.048.283-.185.278-.3-.006-.415-.07-.418-.301a36.118 36.118 0 010-1.196c.004-.23.028-.458.05-.703l-.001.001z" fill="#0045E5"/><path d="M23.088 11.902c-.527 1.409-2.277 1.792-3.318.74-.136-.14-.264-.287-.404-.425-.22-.216-.489-.217-.708 0-.159.159-.308.328-.465.487-.72.733-1.81.823-2.62.22-.78-.583-.998-1.657-.492-2.556a183.54 183.54 0 012.01-3.497 2.213 2.213 0 013.834-.013c.69 1.154 1.348 2.327 2.01 3.498.271.48.341.996.153 1.546zM20.22 7.548c-.042-.075-.082-.152-.129-.225a1.278 1.278 0 00-2.173.017c-.083.135-.16.275-.239.413-.588 1.03-1.185 2.055-1.763 3.092-.281.505-.169 1.017.25 1.318.432.311.985.246 1.37-.159.15-.158.3-.315.452-.469a1.424 1.424 0 012.04-.006c.122.123.24.25.36.376.413.443.982.508 1.436.162.455-.345.527-.811.209-1.367-.597-1.042-1.197-2.083-1.813-3.152z" fill="#EBE60B"/><path d="M20.23 7.562c.607 1.055 1.206 2.096 1.803 3.138.319.557.247 1.022-.208 1.367-.454.345-1.023.28-1.436-.162a15.765 15.765 0 00-.36-.375 1.426 1.426 0 00-2.04.005c-.152.155-.303.311-.452.47-.384.404-.939.47-1.37.158-.419-.301-.532-.813-.25-1.318.578-1.036 1.175-2.062 1.763-3.092.08-.137.155-.277.24-.412a1.277 1.277 0 012.172-.019c.047.074.087.151.139.24z" fill="#0146E4"/></g><defs><clipPath id="pi-astrapay"><path fill="#fff" d="M0 0h38v24H0z"/></clipPath></defs></svg>