<svg role="img" width="38" height="24" aria-labelledby="pi-astrapay" viewBox="0 0 38 24" fill="none" xmlns="http://www.w3.org/2000/svg"><title id="pi-astrapay">AstraPay</title><path fill="#fff" d="M0 0h38v24H0z"/><g clip-path="url(#pi-astrapay-clip0_0_1)"><path d="M20.119.052c.1.052.17.124.255.154.633.223 1.2.564 1.623 1.081.343.42.615.902.894 1.371.484.813.951 1.635 1.422 2.456a1155.779 1155.779 0 0 1 2.709 4.761c.285.503.444 1.038.509 1.62a3.814 3.814 0 0 1-.4 2.185c-.62 1.22-1.587 2.015-2.972 2.217-.16.023-.321.048-.482.049-3.142.002-6.284.008-9.425-.002-.864-.003-1.615-.342-2.289-.88-.804-.642-1.265-1.492-1.462-2.482-.153-.772-.088-1.557.266-2.26.478-.95 1.03-1.862 1.553-2.788.478-.847.957-1.693 1.44-2.536.484-.844.965-1.69 1.463-2.525.252-.423.498-.862.82-1.23A3.394 3.394 0 0 1 17.66.204a.547.547 0 0 0 .21-.133c.733-.018 1.479-.018 2.249-.018Zm3.791 11.864c.217-.642.133-1.26-.192-1.837-.793-1.405-1.584-2.812-2.411-4.197a2.656 2.656 0 0 0-4.6.015c-.822 1.388-1.62 2.79-2.412 4.197-.606 1.078-.345 2.367.591 3.066.972.724 2.279.616 3.144-.263.188-.191.366-.394.557-.584.263-.261.586-.261.85 0 .167.165.32.342.485.509 1.248 1.263 3.348.803 3.988-.906ZM7 22.298c.035-.052.088-.074.102-.111.355-.975.7-1.954 1.063-2.926.04-.107.164-.247.26-.256.574-.054.774-.091.966.5.336 1.037.695 2.066 1.042 3.098.087.258.02.327-.247.356-.296.033-.445-.084-.513-.367-.05-.212-.135-.416-.205-.625H7.955c-.058.196-.125.395-.175.598-.1.404-.351.515-.76.326C7 22.71 7 22.517 7 22.299Zm2.026-1.776-.301-.9-.59 1.7h1.159a26.69 26.69 0 0 1-.268-.8ZM28.635 24.052c-.184-.257-.015-.4.145-.572.218-.234.404-.499.537-.667-.226-.418-.433-.738-.579-1.085-.2-.477-.358-.974-.53-1.463-.05-.143-.127-.297.082-.392.225-.103.46-.06.567.129.054.094.079.205.117.31.218.596.436 1.193.72 1.792.14-.393.292-.781.414-1.179.093-.3.134-.616.222-.918.061-.207.253-.199.422-.18.072.01.139.062.228.094.02.246.02.49.001.75a.51.51 0 0 0-.084.143c-.272.898-.594 1.776-1.097 2.575-.144.227-.308.442-.462.663h-.703ZM22.637 21.713c0 .338-.011.652.003.964.01.205-.072.283-.265.278-.203-.005-.436.039-.463-.265-.013-.138-.003-.279-.003-.418 0-.94.008-1.879-.005-2.818-.003-.215.054-.37.256-.415.69-.155 1.388-.25 2.037.13.593.348.627.808.554 1.384-.068.528-.51.916-1.042.986-.288.038-.58.033-.87.06-.069.006-.134.058-.202.114Zm0-1.813v1.12c.38-.057.722-.077 1.044-.168.31-.088.363-.379.357-.668-.006-.274-.16-.515-.429-.567-.312-.06-.636-.056-.972-.082v.366ZM25.964 21.123c.192-.018.361-.032.53-.053.16-.02.319-.05.48-.075.036-.416-.275-.633-.598-.598-.268.029-.53.106-.797.147-.092.014-.27-.007-.275-.034-.023-.139-.055-.37.014-.413.206-.131.453-.244.693-.268.387-.037.785-.055 1.156.143.339.18.498.46.506.828.01.513-.002 1.028.004 1.542.003.216-.088.373-.275.456-.61.27-1.234.31-1.858.049-.309-.13-.537-.517-.513-.823.034-.45.281-.753.688-.848.074-.018.148-.035.245-.053Zm-.077.626c-.215.234-.188.538.102.603.291.065.61.005.917-.011.033-.002.087-.081.09-.126.009-.22.004-.442.004-.698-.39.073-.736.138-1.113.232ZM19.573 19.817c.421-.02.786.057 1.09.338.182.17.26.375.26.62-.002.522-.013 1.045.005 1.567.008.254-.12.391-.316.477a2.417 2.417 0 0 1-1.578.123c-.47-.116-.77-.489-.76-.908.01-.482.334-.826.873-.907.36-.054.725-.087 1.088-.13-.026-.67-.453-.643-1.023-.578-.115.013-.223.079-.337.112-.136.04-.29.156-.37-.085-.064-.192.006-.413.2-.465.275-.074.561-.111.868-.164ZM19 21.998c-.014.19.072.352.247.367.297.026.6-.003.9-.021.035-.003.092-.08.094-.125.01-.222.004-.445.004-.662-.24.015-.45.001-.646.047-.228.052-.51.045-.6.394ZM11.492 19.933c.505-.183.991-.157 1.471.01.2.07.305.235.263.448-.031.154-.1.245-.311.168-.258-.095-.541-.132-.817-.16-.204-.022-.407.092-.401.298.003.11.198.252.336.315.312.143.647.235.965.368.332.14.37.472.372.759a.748.748 0 0 1-.5.734c-.55.206-1.104.207-1.642-.04-.347-.16-.374-.437-.147-.652.385.09.723.184 1.067.243.103.017.237-.038.33-.1.08-.054.175-.167.17-.25-.005-.096-.09-.235-.176-.272-.286-.122-.586-.213-.884-.305-.316-.098-.556-.266-.586-.626-.035-.405.05-.755.49-.938ZM14.533 21.23v.705c.001.395.25.576.627.472.133-.036.305-.207.399.055.089.247.004.404-.27.49a1.367 1.367 0 0 1-1.22-.188c-.25-.171-.25-.49-.256-.753-.02-.923-.007-1.846-.01-2.77 0-.137.041-.202.191-.211.468-.028.539.032.539.509v.435c.274 0 .523.003.771-.001.15-.003.271-.004.273.21.001.198-.032.351-.257.362-.25.012-.5.003-.787.003v.681ZM16.1 20.32c.173-.145.324-.333.509-.38a4.066 4.066 0 0 1 1.061-.112c.356.009.445.26.293.535l-1.014.134c-.148.019-.188.104-.186.25.007.626.005 1.252.002 1.878 0 .156.057.34-.222.334-.36-.008-.498-.084-.502-.362a43.465 43.465 0 0 1 0-1.435c.005-.275.034-.549.06-.843Z" fill="#0045E5"/><path d="M23.902 11.935c-.632 1.69-2.732 2.15-3.98.887-.164-.167-.318-.344-.485-.509-.264-.26-.587-.261-.85 0-.19.19-.369.393-.557.584-.865.88-2.172.987-3.144.263-.936-.699-1.197-1.988-.59-3.066.79-1.406 1.59-2.808 2.411-4.197a2.656 2.656 0 0 1 4.6-.015c.827 1.385 1.618 2.792 2.411 4.197.326.577.41 1.195.184 1.856ZM20.463 6.71c-.051-.09-.099-.183-.155-.27a1.533 1.533 0 0 0-2.607.02c-.1.162-.192.33-.287.496-.706 1.236-1.422 2.466-2.115 3.71-.338.606-.203 1.22.3 1.582.518.373 1.182.295 1.644-.191.179-.19.359-.378.542-.563a1.71 1.71 0 0 1 2.446-.007c.147.147.29.299.433.451.496.531 1.178.609 1.723.194.546-.414.632-.973.25-1.64-.716-1.251-1.435-2.5-2.174-3.782Z" fill="#EBE60B"/><path d="M20.474 6.726c.728 1.266 1.446 2.515 2.163 3.766.382.668.296 1.226-.25 1.64-.545.415-1.227.337-1.723-.194a19.003 19.003 0 0 0-.433-.45 1.71 1.71 0 0 0-2.446.006 37.91 37.91 0 0 0-.543.563c-.46.486-1.126.564-1.643.191-.503-.362-.638-.976-.3-1.582.693-1.243 1.409-2.474 2.115-3.71.095-.165.186-.333.287-.495a1.533 1.533 0 0 1 2.607-.022c.056.088.104.181.166.287Z" fill="#0146E4"/></g><defs><clipPath id="pi-astrapay-clip0_0_1"><path fill="#fff" d="M0 0h38v24H0z"/></clipPath></defs></svg>
