<svg xmlns="http://www.w3.org/2000/svg" width="38" height="24" viewBox="0 0 38 24" role="img" aria-labelledby="pi-astropay"><title id="pi-astropay">AstroPay</title><path opacity=".07" d="M35 0H3C1.3 0 0 1.3 0 3v18c0 1.7 1.4 3 3 3h32c1.7 0 3-1.3 3-3V3c0-1.7-1.4-3-3-3z"/><path fill="#fff" d="M35 1c1.1 0 2 .9 2 2v18c0 1.1-.9 2-2 2H3c-1.1 0-2-.9-2-2V3c0-1.1.9-2 2-2h32"/><path fill-rule="evenodd" clip-rule="evenodd" d="M21.41 4.266l2.988 7.384a14.197 14.197 0 00-3.732.092l-1.139-2.818-1.401 3.47a14.004 14.004 0 00-5.066 3.188l4.57-11.315h3.78v-.001z" fill="#0C2825"/><path fill-rule="evenodd" clip-rule="evenodd" d="M22.876 12.736a12.9 12.9 0 012.022.158l1.655 4.098a9.318 9.318 0 00-3.677-.752 9.322 9.322 0 00-7.294 3.505H11.43c2.127-4.16 6.454-7.01 11.446-7.01z" fill="#00D5B9"/></svg>