<svg xmlns="http://www.w3.org/2000/svg" width="38" height="24" fill="none" aria-labelledby="pi-atm"><g clip-path="url(#a)"><path fill="#000" d="M35 0H3C1.3 0 0 1.3 0 3v18c0 1.7 1.4 3 3 3h32c1.7 0 3-1.3 3-3V3c0-1.7-1.4-3-3-3Z" opacity=".07"/><path fill="#fff" d="M35 1c1.1 0 2 .9 2 2v18c0 1.1-.9 2-2 2H3c-1.1 0-2-.9-2-2V3c0-1.1.9-2 2-2h32Z"/><path fill="#0380FF" d="M26.45 5H12.083A3.083 3.083 0 0 0 9 8.083v7.834A3.083 3.083 0 0 0 12.083 19H26.45a3.083 3.083 0 0 0 3.083-3.083V8.083A3.083 3.083 0 0 0 26.45 5Z"/><path fill="#fff" fill-rule="evenodd" d="M12.348 14.095c-.112.239-.37.287-.623.239-.224-.127-.364-.378-.224-.672l2.01-3.927c.188-.371.692-.385.867 0l1.974 3.927c.287.545-.56.98-.812.433l-.308-.616H12.65l-.3.617Zm.735-1.54h1.652l-.79-1.729-.862 1.73Zm4.82 1.345v-3.536h-1.225c-.609 0-.609-.895 0-.895h3.311c.623 0 .623.896 0 .896h-1.162v3.534c0 .61-.924.624-.924 0Zm5.394-1.17-1.043-1.47v2.59c0 .309-.252.484-.504.484-.224 0-.42-.175-.42-.483V9.91c0-.364.308-.483.42-.483.203 0 .322.119.441.252l1.54 2.079 1.596-2.156c.231-.287.798-.175.798.308v3.94c0 .309-.196.484-.42.484-.252 0-.448-.175-.448-.483v-2.59l-1.162 1.47c-.252.308-.567.308-.798 0Z" clip-rule="evenodd"/></g><defs><clipPath id="a"><path fill="#fff" d="M0 0h38v24H0z"/></clipPath></defs></svg>