<svg width="38" height="24" viewBox="0 0 38 24" fill="none" xmlns="http://www.w3.org/2000/svg" aria-labelledby="pi-atrato"><title id="pi-atrato">Atrato</title><g clip-path="url(#clip0_275_1735)"><path opacity=".07" d="M35 0H3C1.3 0 0 1.3 0 3v18c0 1.7 1.4 3 3 3h32c1.7 0 3-1.3 3-3V3c0-1.7-1.4-3-3-3z" fill="#000"/><path d="M35 1c1.1 0 2 .9 2 2v18c0 1.1-.9 2-2 2H3c-1.1 0-2-.9-2-2V3c0-1.1.9-2 2-2h32z" fill="#fff"/><path d="M34.615 9h-3.643c-.765 0-1.386.695-1.386 1.552v3.766c0 .857.62 1.552 1.386 1.552h3.643c.765 0 1.385-.695 1.385-1.552v-3.766C36 9.695 35.38 9 34.615 9z" fill="#DED0F9"/><path d="M9.538 13.398v-2.27h1.166v-.84H9.538V9.225H8.46v1.063h-.955v.84h.955v2.438c0 .698.398 1.122 1.113 1.122h1.308v-.875h-.937c-.282 0-.406-.132-.406-.415M12.799 11.26v-.972h-1.052v4.4h1.07v-1.855c0-1.078.406-1.529 1.333-1.529.16 0 .319.01.477.027v-1.096a1.316 1.316 0 00-.291-.027c-.98 0-1.387.698-1.537 1.052M18.958 13.575v-1.776c0-1.078-.663-1.644-1.874-1.644-1.21 0-1.926.645-2.024 1.3l.981.255c.116-.389.39-.742 1.043-.742.566 0 .805.265.805.698v.15c-1.441.133-2.766.512-2.766 1.74 0 .779.583 1.264 1.405 1.264.742 0 1.21-.37 1.476-.786.052.389.247.654.804.654h.822v-.849h-.407c-.23 0-.265-.052-.265-.264m-1.07-.698c0 .786-.494 1.13-1.007 1.13-.441 0-.662-.212-.662-.548 0-.636.769-.839 1.67-.936v.354zM21.794 13.398v-2.27h1.166v-.84h-1.166V9.225h-1.078v1.063h-.955v.84h.955v2.438c0 .698.397 1.122 1.113 1.122h1.308v-.875H22.2c-.282 0-.406-.132-.406-.415M25.85 10.155c-1.29 0-2.227.954-2.227 2.333 0 1.379.945 2.333 2.227 2.333 1.28 0 2.217-.937 2.217-2.333 0-1.396-.927-2.333-2.217-2.333m0 3.791c-.654 0-1.105-.468-1.105-1.44 0-.973.45-1.476 1.105-1.476.653 0 1.095.495 1.095 1.476 0 .98-.45 1.44-1.095 1.44zM4.084 9.225L2 14.688h1.217l.458-1.269h2.226l.447 1.27H7.58L5.511 9.224H4.084zm-.085 3.298l.802-2.22.783 2.22H4zM32.788 14.466c-.604 0-1.09-.184-1.486-.564-.396-.38-.588-.848-.588-1.434v-.033c.005-.337.076-.645.211-.915l.788.461a1.43 1.43 0 00-.08.45v.037c0 .343.106.627.318.847.211.226.492.342.831.342.34 0 .628-.109.845-.323.213-.215.321-.506.321-.866v-.033a1.36 1.36 0 00-.084-.455l.787-.461c.138.268.21.576.215.918 0 .015 0 .032.005.05-.004.576-.195 1.039-.582 1.415-.391.38-.883.565-1.502.565M32.203 11.519h-.127a.326.326 0 01-.326-.326v-.287c0-.18.146-.326.326-.326h.127c.18 0 .325.146.325.326v.287c0 .18-.145.326-.325.326zM33.511 11.519h-.127a.326.326 0 01-.325-.326v-.287c0-.18.146-.326.326-.326h.126c.18 0 .326.146.326.326v.287c0 .18-.146.326-.326.326z" fill="#000"/></g><defs><clipPath id="clip0_275_1735"><path fill="#fff" d="M0 0h38v24H0z"/></clipPath></defs></svg>