<svg xmlns="http://www.w3.org/2000/svg" width="38" height="24" fill="none" aria-labelledby="pi-au_kantan_kessai" role="img" viewBox="0 0 38 24"><title id="pi-au_kantan_kessai">au Kantan Kessai</title><path fill="#fff" d="M0 0h38v24H0z"/><path fill="#EA5404" d="M10.877 12.68a5.9 5.9 0 0 1-.753 1.715c-.988 1.511-2.297 2.093-3.209 2.146-.987-.049-1.09-.631-.692-2.119 1.375-5.14 4.473-6.302 5.956-6.607zm22.417-2.359c-1.324 2.023-2.847 4.155-4.087 5.322-.812.766-2.525 1.855-1.838-.713l2.26-8.443c-.554 0-3.308-.149-4.23 3.286 0 0-.584 2.18-.832 3.1a5.8 5.8 0 0 1-.697 1.522c-.989 1.511-2.298 2.093-3.21 2.146-.535-.026-.792-.216-.884-.6-.092-.374.091-1.142.191-1.515l2.124-7.939c-.296-.004-3.273-.278-4.228 3.286l-1.007 3.74a4.1 4.1 0 0 1-.528 1.109c-.645.929-1.791 1.92-2.399 1.92-.432 0-.604-.497-.306-1.612l2.26-8.443H14.88c-3.543 0-6.067.571-7.942 1.797C3.794 10.337 3 14.403 3 15.239c0 .893.275 2.76 3.371 2.76 1.932 0 3.297-1.016 4.116-1.951l.094-.109c.064.44.218.92.548 1.307.409.476 1.18.753 1.92.753 1.63 0 3.023-1.094 3.764-2.057v.003c.193.923.893 2.055 3.304 2.055 1.933 0 3.297-1.015 4.116-1.951l.092-.107c.066.44.22.918.549 1.304l.035.038.01.01c.407.435 1.202.704 1.847.704 1.4 0 2.78-.801 3.943-2.027 1.509-1.591 3.491-4.459 4.291-5.65"/></svg>