<svg xmlns="http://www.w3.org/2000/svg" width="38" height="24" fill="none" aria-labelledby="pi-authorizenet" role="img" viewBox="0 0 38 24"><title id="pi-authorizenet">Authorize Net</title><path fill="#fff" d="M0 0h38v24H0z"/><mask id="pi-authorizenet-mask-a" width="3" height="3" x="4" y="11" maskUnits="userSpaceOnUse" style="mask-type:luminance"><path fill="#fff" d="M4 11.013h2.803v2.772H4z"/></mask><g mask="url(#pi-authorizenet-mask-a)"><path fill="#19303F" d="M4.852 12.313a.49.49 0 1 0 .979 0 .49.49 0 0 0-.98 0zm.968 1.097v-.041a.8.8 0 0 1-.267.17.9.9 0 0 1-.325.058 1.16 1.16 0 0 1-.874-.372 1.27 1.27 0 0 1-.355-.912q0-.54.355-.911a1.16 1.16 0 0 1 1.199-.315q.15.058.267.17v-.044q0-.05.032-.083a.12.12 0 0 1 .082-.031h.62q.05 0 .082.031.032.033.032.083v2.197a.11.11 0 0 1-.034.082.1.1 0 0 1-.077.034h-.619a.12.12 0 0 1-.082-.034.11.11 0 0 1-.036-.082"/></g><path fill="#19303F" d="M8.161 12.84q.167 0 .252-.096.086-.096.086-.28v-1.266a.09.09 0 0 1 .036-.072.13.13 0 0 1 .083-.03h.612q.045 0 .083.03a.1.1 0 0 1 .036.072v1.38a.93.93 0 0 1-.322.73q-.32.289-.86.288-.546 0-.876-.29a.93.93 0 0 1-.33-.728v-1.38q0-.04.035-.072.035-.03.08-.03h.614q.045 0 .083.03t.038.072v1.265a.4.4 0 0 0 .09.279q.092.097.26.097Zm2.58.732q-.397 0-.637-.21-.237-.209-.238-.577v-.987h-.25a.1.1 0 0 1-.079-.035.12.12 0 0 1-.033-.083v-.175a.4.4 0 0 1 .015-.127.3.3 0 0 1 .054-.091l.603-.67a.5.5 0 0 1 .13-.11.3.3 0 0 1 .132-.024h.162q.049 0 .081.033a.1.1 0 0 1 .034.08v.5h.533q.049 0 .082.033a.1.1 0 0 1 .034.08v.47a.12.12 0 0 1-.034.084.1.1 0 0 1-.082.035h-.533v.809q0 .089.047.14a.17.17 0 0 0 .13.052q.053-.001.102-.02a1 1 0 0 0 .126-.06q.071-.04.12-.03.049.012.092.073l.214.32a.2.2 0 0 1 .034.11.14.14 0 0 1-.042.096.9.9 0 0 1-.344.208 1.4 1.4 0 0 1-.453.076m2.248-1.808a.4.4 0 0 0-.285.108.39.39 0 0 0-.111.29v1.247a.11.11 0 0 1-.114.115h-.62a.11.11 0 0 1-.107-.07.1.1 0 0 1-.008-.045v-3.204a.11.11 0 0 1 .114-.114h.62a.11.11 0 0 1 .107.07.1.1 0 0 1 .008.044v1.18a.76.76 0 0 1 .295-.266.9.9 0 0 1 .41-.092q.46 0 .695.273.236.273.236.792v1.317q0 .05-.031.083a.11.11 0 0 1-.083.032h-.62a.11.11 0 0 1-.082-.032.11.11 0 0 1-.032-.083v-1.246a.4.4 0 0 0-.109-.291.4.4 0 0 0-.283-.108m2.301.546q0 .21.141.354a.47.47 0 0 0 .348.146.47.47 0 0 0 .348-.146.49.49 0 0 0 .142-.353.49.49 0 0 0-.98 0zm-.853 0q0-.533.392-.908.391-.375.95-.374c.559.001.69.125.95.374q.393.375.392.909 0 .533-.392.908-.391.375-.95.375t-.95-.375a1.21 1.21 0 0 1-.392-.91Zm3.033-1.214h.442q.073-.001.124.034a.24.24 0 0 1 .084.103l.068.152q.135-.16.277-.244a.55.55 0 0 1 .28-.083q.146-.001.224.065.075.064.06.185l-.068.554a.25.25 0 0 1-.062.144.18.18 0 0 1-.13.048.4.4 0 0 1-.057-.006l-.089-.022a1 1 0 0 0-.1-.026.4.4 0 0 0-.063-.006.25.25 0 0 0-.187.069.25.25 0 0 0-.071.187v1.17a.1.1 0 0 1-.036.073.12.12 0 0 1-.08.03h-.618a.1.1 0 0 1-.081-.032.1.1 0 0 1-.033-.08v-2.2a.11.11 0 0 1 .033-.082.12.12 0 0 1 .083-.033"/><mask id="pi-authorizenet-mask-b" width="2" height="2" x="19" y="10" maskUnits="userSpaceOnUse" style="mask-type:luminance"><path fill="#fff" d="M19.15 10h1.008v1.012H19.15z"/></mask><g mask="url(#pi-authorizenet-mask-b)"><path fill="#0073FF" d="M20.108 10.464a.43.43 0 0 1-.14.322.46.46 0 0 1-.334.135.47.47 0 0 1-.335-.134.43.43 0 0 1-.141-.323q0-.188.14-.325a.47.47 0 0 1 .336-.138.46.46 0 0 1 .334.138q.14.137.14.325"/></g><path fill="#19303F" d="m22.425 11.76-.962 1.038h.958q.047.001.08.032.03.034.031.08v.501a.11.11 0 0 1-.068.104.1.1 0 0 1-.043.008h-1.99a.12.12 0 0 1-.083-.034.11.11 0 0 1-.035-.082v-.412q0-.044.011-.073a.2.2 0 0 1 .04-.06l.983-1.042h-.879a.12.12 0 0 1-.083-.034.12.12 0 0 1-.034-.082v-.49a.12.12 0 0 1 .035-.083.11.11 0 0 1 .082-.035h1.894a.11.11 0 0 1 .082.035.12.12 0 0 1 .034.083v.41a.2.2 0 0 1-.012.073.2.2 0 0 1-.041.062m1.092.238h.805a.396.396 0 0 0-.395-.32.4.4 0 0 0-.26.09.4.4 0 0 0-.15.23m1.526 1.13a1 1 0 0 1-.437.34c-.2.086-.415.13-.633.127q-.58 0-.953-.36a1.21 1.21 0 0 1-.373-.91q0-.57.349-.934.35-.363.917-.363.549 0 .89.35.342.345.342.852v.14a.22.22 0 0 1-.035.127.11.11 0 0 1-.098.047h-1.513a.42.42 0 0 0 .166.267.52.52 0 0 0 .32.098.58.58 0 0 0 .434-.19.15.15 0 0 1 .09-.047.15.15 0 0 1 .097.028l.41.268a.1.1 0 0 1 .05.073.12.12 0 0 1-.023.087"/><path fill="#FFC200" d="M26.412 13.049a.52.52 0 0 1-.16.384.53.53 0 0 1-.387.16.52.52 0 0 1-.383-.16.52.52 0 0 1-.16-.384q0-.226.16-.385a.53.53 0 0 1 .383-.16q.226 0 .387.16a.52.52 0 0 1 .16.385"/><path fill="#19303F" d="M27.913 11.763a.4.4 0 0 0-.286.109.4.4 0 0 0-.111.291v1.246a.11.11 0 0 1-.032.083.11.11 0 0 1-.082.031h-.62a.11.11 0 0 1-.082-.031.11.11 0 0 1-.032-.083V11.21q0-.049.032-.083a.11.11 0 0 1 .082-.031h.62a.11.11 0 0 1 .114.114v.175a.77.77 0 0 1 .295-.266.9.9 0 0 1 .41-.092q.46 0 .696.273.234.273.235.792v1.317q0 .05-.031.083a.11.11 0 0 1-.083.031h-.62q-.047 0-.082-.031a.11.11 0 0 1-.031-.083v-1.246a.4.4 0 0 0-.11-.291.39.39 0 0 0-.282-.109m2.321.234h.804a.37.37 0 0 0-.135-.23.4.4 0 0 0-.259-.09.4.4 0 0 0-.26.09.4.4 0 0 0-.15.23m1.525 1.13a1 1 0 0 1-.436.34c-.2.086-.416.13-.634.127q-.58 0-.953-.36a1.22 1.22 0 0 1-.373-.911q0-.57.35-.933.349-.363.917-.363.547 0 .89.349.34.346.34.853v.139a.2.2 0 0 1-.034.128.11.11 0 0 1-.097.047h-1.513a.42.42 0 0 0 .166.267.52.52 0 0 0 .32.098.58.58 0 0 0 .434-.19.15.15 0 0 1 .09-.047.15.15 0 0 1 .097.028l.41.268a.1.1 0 0 1 .05.073.12.12 0 0 1-.024.087"/><mask id="pi-authorizenet-c" width="3" height="4" x="31" y="10" maskUnits="userSpaceOnUse" style="mask-type:luminance"><path fill="#fff" d="M31.75 10.257H34v3.528h-2.25z"/></mask><g mask="url(#pi-authorizenet-c)"><path fill="#19303F" d="M33.16 13.576q-.397 0-.636-.209-.239-.21-.238-.578v-.987h-.251a.1.1 0 0 1-.079-.034.12.12 0 0 1-.033-.084v-.175q0-.079.015-.126a.3.3 0 0 1 .053-.092l.604-.67a.5.5 0 0 1 .129-.109.3.3 0 0 1 .134-.025h.161a.1.1 0 0 1 .08.033.1.1 0 0 1 .034.081v.5h.534a.12.12 0 0 1 .108.069.1.1 0 0 1 .008.044v.47a.11.11 0 0 1-.034.084.11.11 0 0 1-.082.034h-.534v.81a.2.2 0 0 0 .048.14.17.17 0 0 0 .13.051q.053-.001.103-.02a1 1 0 0 0 .125-.06q.07-.04.12-.03.048.011.092.074l.214.32q.035.049.035.11a.14.14 0 0 1-.044.095.9.9 0 0 1-.343.208q-.214.075-.453.076"/></g><path fill="#19303F" d="M20.06 11.21v2.2a.1.1 0 0 1-.034.08.11.11 0 0 1-.083.033h-.615a.11.11 0 0 1-.107-.07.1.1 0 0 1-.009-.044V11.21a.11.11 0 0 1 .116-.114h.615q.05 0 .083.033a.1.1 0 0 1 .034.081"/></svg>