<svg width="38" height="24" viewBox="0 0 38 24" fill="none" role="img" aria-labelledby="pi-avardapartpayment" xmlns="http://www.w3.org/2000/svg"><title id="pi-avardapartpayment">Avarda Part Payment</title><path fill="#000" opacity=".07" d="M35 0H3C1.3 0 0 1.3 0 3v18c0 1.7 1.4 3 3 3h32c1.7 0 3-1.3 3-3V3c0-1.7-1.4-3-3-3z"/><path fill="#fff" d="M35 1c1.1 0 2 .9 2 2v18c0 1.1-.9 2-2 2H3c-1.1 0-2-.9-2-2V3c0-1.1.9-2 2-2h32"/><path d="M19.3333 11L22.2095 6.01828M19.3333 11H22.3169M19.3333 11L17.7429 8.2452M22.2095 6.01828C22.9674 6.49466 23.6227 7.11936 24.1346 7.85167M22.2095 6.01828C21.4276 5.52678 20.5364 5.19316 19.5806 5.06213M22.3169 11H25.3004C25.1849 9.83657 24.7703 8.76113 24.1346 7.85167M22.3169 11L24.1346 7.85167M17.7429 8.2452L16.1524 5.49041C16.9283 5.17422 17.7771 5 18.6667 5C18.9767 5 19.2818 5.02116 19.5806 5.06213M17.7429 8.2452L19.5806 5.06213M25.0281 13.6667C24.9566 13.8944 24.8732 14.1169 24.7786 14.3333C23.7499 16.6879 21.4004 18.3333 18.6667 18.3333C14.9848 18.3333 12 15.3486 12 11.6667C12 10.1656 12.4961 8.78034 13.3333 7.66602C13.5095 7.43153 13.7008 7.20905 13.9057 7" stroke="#202020" stroke-width="1.33333" stroke-linecap="round" stroke-linejoin="round"/></svg>