<svg width="38" height="24" role="img" viewBox="0 0 38 24" fill="none" aria-labelledby="pi-avardapartpayment" xmlns="http://www.w3.org/2000/svg"><title id="pi-avardapartpayment">Avarda Part Payment</title><rect width="38" height="24" rx="2" fill="#004B4B"/><g clip-path="url(#pi-clip0_2650_1178)"><mask id="pi-path-2-inside-1_2650_1178" fill="#fff"><path d="M25.762 13.812c.373.1.598.485.464.848a7.7 7.7 0 11-13.142-7.588c.247-.297.693-.295.966-.022.273.273.27.714.028 1.016a6.297 6.297 0 00-.317 7.435 6.304 6.304 0 007.65 2.32 6.302 6.302 0 003.457-3.526c.14-.36.52-.583.894-.483z"/></mask><path d="M25.762 13.812c.373.1.598.485.464.848a7.7 7.7 0 11-13.142-7.588c.247-.297.693-.295.966-.022v0c.273.273.27.714.028 1.016a6.297 6.297 0 00-.317 7.435 6.304 6.304 0 007.65 2.32 6.302 6.302 0 003.457-3.526c.14-.36.52-.583.894-.483v0z" stroke="#9BF9A4" stroke-width="2.8" stroke-linecap="round" stroke-linejoin="round" stroke-dasharray="2.8 5.6 8.4 11.2" mask="url(#pi-path-2-inside-1_2650_1178)"/><mask id="pi-path-3-inside-2_2650_1178" fill="#fff"><path d="M15.45 6.144c-.387-.67-.16-1.54.57-1.798a7.7 7.7 0 0110.153 5.862c.14.76-.5 1.392-1.273 1.392h-5.492a1.4 1.4 0 01-1.212-.7L15.45 6.144z"/></mask><path d="M15.45 6.144c-.387-.67-.16-1.54.57-1.798a7.7 7.7 0 0110.153 5.862c.14.76-.5 1.392-1.273 1.392h-5.492a1.4 1.4 0 01-1.212-.7L15.45 6.144z" stroke="#9BF9A4" stroke-width="2.8" mask="url(#pi-path-3-inside-2_2650_1178)"/></g><defs><clipPath id="pi-clip0_2650_1178"><path fill="#fff" transform="translate(10.6 3.6)" d="M0 0h16.8v16.8H0z"/></clipPath></defs></svg>
