<svg width="38" height="24" viewBox="0 0 38 24" fill="none" role="img" aria-labelledby="pi-avardapaylater" xmlns="http://www.w3.org/2000/svg"><title id="pi-avardapaylater">Avarda Pay Later</title><path fill="#000" opacity=".07" d="M35 0H3C1.3 0 0 1.3 0 3v18c0 1.7 1.4 3 3 3h32c1.7 0 3-1.3 3-3V3c0-1.7-1.4-3-3-3z"/><path fill="#fff" d="M35 1c1.1 0 2 .9 2 2v18c0 1.1-.9 2-2 2H3c-1.1 0-2-.9-2-2V3c0-1.1.9-2 2-2h32"/><path d="M16.3333 14V6.4C16.3333 6.17909 16.5124 6 16.7333 6H24.6C24.8209 6 25 6.17909 25 6.4V15.3333C25 16.8061 23.8061 18 22.3333 18M16.3333 14H14.3333C13.597 14 13 14.5969 13 15.3333V16C13 17.1046 13.8954 18 15 18H16.3333H22.3333M16.3333 14H19.2667C19.4876 14 19.6687 14.1779 19.6865 14.3981C19.7684 15.4098 20.1875 18 22.3333 18M19 11.3333H20.6667H22.3333M19 8.66667H20.6667H22.3333" stroke="#202020" stroke-width="1.33333" stroke-linecap="round" stroke-linejoin="round"/></svg>