<svg
    xmlns="http://www.w3.org/2000/svg" aria-labelledby="pi-baloto" width="38" height="24" viewBox="0 0 38 24" role="img">
    <title id="pi-baloto">Baloto</title>
    <defs>
        <style>

      .cls-25 {
        fill: #1f2449;
      }

      .cls-26 {
        fill: #341130;
      }

      .cls-27 {
        fill: #1f1d40;
      }

      .cls-28 {
        fill: #22305d;
      }

      .cls-29 {
        fill: #eb674a;
      }

      .cls-30 {
        fill: #f18e76;
      }

      .cls-31 {
        fill: #5dc1e7;
      }

      .cls-32 {
        fill: #58bee7;
      }

      .cls-33 {
        fill: #8dcced;
      }

      .cls-34 {
        fill: #0a4791;
      }

      .cls-35 {
        fill: #233161;
      }

      .cls-36 {
        fill: #1c3f7e;
      }

      .cls-37 {
        fill: #23305e;
      }

      .cls-38 {
        fill: #8aa0c3;
      }

      .cls-39 {
        fill: #537bab;
      }

      .cls-40 {
        fill: #d9e2ef;
      }

      .cls-41 {
        fill: #47709f;
      }

      .cls-42 {
        fill: #a0d7f0;
      }

      .cls-43 {
        fill: #d9eef7;
      }

      .cls-44 {
        fill: #add7e2;
      }

      .cls-45 {
        fill: #e5292a;
      }

      .cls-46 {
        fill: #e52a2b;
      }

      .cls-47 {
        fill: #ec6e1f;
      }

      .cls-48 {
        fill: #f6a70e;
      }

      .cls-49 {
        fill: #232d5a;
      }

      .cls-50 {
        fill: #22376e;
      }

      .cls-51 {
        fill: #055b9e;
      }

      .cls-52 {
        fill: #5480b3;
      }

      .cls-53 {
        fill: #d0d6e9;
      }

      .cls-54 {
        fill: #4678ab;
      }

      .cls-55 {
        fill: #a2b7db;
      }

      .cls-56 {
        fill: #6f8ab4;
      }

      .cls-57 {
        fill: #859fc6;
      }

      .cls-58 {
        fill: #3c6a9c;
      }

      .cls-59 {
        fill: #181832;
      }

      .cls-60 {
        fill: #184286;
      }

      .cls-61 {
        fill: #7496c5;
      }

      .cls-62 {
        fill: #4e7faf;
      }

      .cls-63 {
        fill: #f7f8f3;
      }

      .cls-64 {
        fill: #e53324;
      }

      .cls-65 {
        fill: #e85123;
      }

      .cls-66 {
        fill: #ce1617;
      }

      .cls-67 {
        fill: #8b1812;
      }

      .cls-68 {
        fill: #ed741b;
      }

      .cls-69 {
        fill: #eaaa4d;
      }

      .cls-70 {
        fill: #f4d6ab;
      }

      .cls-71 {
        fill: #ef821d;
      }

      .cls-72 {
        fill: #f3985d;
      }

      .cls-73 {
        fill: #ef7e41;
      }

      .cls-74 {
        fill: #f8bf92;
      }

      .cls-75 {
        fill: #fce2c5;
      }

      .cls-76 {
        fill: #fbf2e2;
      }
    </style>
    </defs>
    <g data-name="Capa 2">
        <g data-name="Capa 1">
            <g>
                <path fill="#f6faf8" d="M2.12.84,2.51.27A.65.65,0,0,1,3.28.05a.61.61,0,0,1,.34.74c0,.07,0,.09.06.08H16A2.07,2.07,0,0,1,16.46,5,2.15,2.15,0,0,1,16,5H4.14A.24.24,0,0,0,4,5.12a1.9,1.9,0,0,1-1.78.75,1.93,1.93,0,0,1-1.74-2A5.79,5.79,0,0,0,.27,2.46C.19,2,.09,1.54,0,1.09A.54.54,0,0,1,.25.5.56.56,0,0,1,.9.5C1,.55,1,.51,1,.45A.57.57,0,0,1,2.09.39,3.09,3.09,0,0,1,2.12.84Z"/>
                <path fill="#c8e6f0" d="M17.59,1.11c0-.16.08-.24.25-.24a.24.24,0,0,1,.25.25.26.26,0,0,1-.26.26C17.68,1.38,17.59,1.28,17.59,1.11Z"/>
                <path fill="#e5282a" d="M17.32,1.55l0,0c0,.1,0,.2.11.27a.51.51,0,0,1-.09-.16s0-.08.05-.05a1.91,1.91,0,0,1-.66,3.08,1,1,0,0,1-.48.12.29.29,0,0,1-.13,0h-12A.07.07,0,0,1,4,4.74a.38.38,0,0,1,0-.15.65.65,0,0,0,.15-.44c0-.14.09-.3,0-.44a0,0,0,0,1,0,0c0-.12,0-.22-.09-.3s0-.11.05-.14a.3.3,0,0,0,.11,0c-.22-.08-.2-.24-.17-.41a2.43,2.43,0,0,0,0-.27.31.31,0,0,1,0-.1c0-.05,0-.1.09-.09s.06.05.07.09,0,.26,0,.39v.06c0-.2,0-.42.06-.63a3.51,3.51,0,0,0,0-.65c0-.06,0-.14.08-.15s0,.11,0,.18V4.19c0,.21,0,.27.27.25s.53,0,.79,0,.22,0,.33,0a.67.67,0,0,0,.24,0,1,1,0,0,0,.68-.46.89.89,0,0,0-.2-1.12c-.12-.1-.12-.1,0-.25l.08-.18c.06-.07,0-.16,0-.24s0-.12,0-.13.08.06.09.1.07.17.2.16a.55.55,0,0,1,.22,0s.08,0,.09.07a2.29,2.29,0,0,1-.16.31,1.2,1.2,0,0,0,.89,1.7,1.07,1.07,0,0,0,.66-.08c.1,0,.19-.07.25.06s.06,0,.09,0c.48,0,.38.06.39-.35s0-.53,0-.8a1.23,1.23,0,0,0-.2-.72s-.06-.08-.06-.13,0-.07,0-.06.26,0,.36.07,0,.52,0,.78a.71.71,0,0,0,0,.25,1.15,1.15,0,0,0,.35.67,1,1,0,0,0,.38.24l.19.08a1.67,1.67,0,0,0,.5,0c.05,0,0,0,0-.07s0-.22,0-.33,0-.12.08-.13.09,0,.13.08a1.14,1.14,0,0,0,1.16.37,1.19,1.19,0,0,0,.91-.87,1.09,1.09,0,0,0-.15-.94s-.08-.1,0-.18a.43.43,0,0,1,.35,0,.21.21,0,0,1,.05.17c0,.22,0,.44,0,.66a1.25,1.25,0,0,0,.94,1.18,2.16,2.16,0,0,0,.44,0c.06,0,.08,0,.08-.09V4c0-.08,0-.1-.11-.1a2,2,0,0,1-.25,0,.69.69,0,0,1-.59-.67V2.7c0-.16,0-.2.2-.2a.59.59,0,0,1,.19,0c.09,0,.18,0,.21-.12s0,0,.05,0a1.55,1.55,0,0,1,.43,0,.11.11,0,0,1,.1.06c0,.06,0,.1,0,.15a1.23,1.23,0,0,0,.43,1.71A1.22,1.22,0,0,0,17.13,4a1.19,1.19,0,0,0,.11-1.44s-.08-.09-.06-.16.13,0,.2,0,.18,0,.09-.17a1.21,1.21,0,0,0-.2-.3.44.44,0,0,1-.08-.11.27.27,0,0,0,0-.09C17.17,1.55,17.19,1.54,17.32,1.55Z"/>
                <path fill="#e52a2c" d="M4.46,1.42c0,.05,0,.1,0,.15,0,.46-.07.92-.08,1.39a.45.45,0,0,1,0,.08.25.25,0,0,1-.08-.19,3.38,3.38,0,0,0,0-.45s0,0,0-.06-.05,0-.05.06c0,.2,0,.39,0,.59s0,.15.12.12.07,0,.09.07,0,.07,0,.09-.06,0-.09,0-.09,0-.12,0,0,.06,0,.09.09,0,.14.07a.36.36,0,0,0,0,.35.24.24,0,0,1,0,.2s0,.07,0,.11,0,0,0,0,0,.19-.08.25,0,0,0,0-.11.2-.14.32,0,.09.06.1H16.27a.66.66,0,0,1-.24,0H4s0-.06,0-.09a3,3,0,0,0,.23-.65,1.55,1.55,0,0,0,0-.43.5.5,0,0,0-.29-.34c-.1,0-.12-.11-.09-.22a.38.38,0,0,0-.11-.43A1.43,1.43,0,0,0,3,2.21l-.27-.08A.1.1,0,0,1,2.59,2,1.62,1.62,0,0,1,2.9,1.6.13.13,0,0,0,3,1.53a.16.16,0,0,1,.15-.08c.09,0,.11-.05.07-.14s0-.13.06-.19.08,0,.12,0a.1.1,0,0,0,.12,0c.17,0,.32.05.48.05a.13.13,0,0,1,.1.07.18.18,0,0,0,.13.08c-.12-.2-.34-.17-.53-.21s-.08,0-.11,0-.05-.06,0-.08h.28a.58.58,0,0,1,.53.16.29.29,0,0,0,.25.08c.07,0,.16,0,.18.09S4.58,1.4,4.46,1.42Z"/>
                <path fill="#e52c2f" d="M4.83,1.37a.33.33,0,0,0-.22,0,.2.2,0,0,1-.21-.07c-.06-.06-.17-.08-.2-.17s-.06,0-.1,0H3.73c0-.07.08,0,.12,0H6.16c.36,0,.72,0,1.08,0s.81,0,1.22,0H16l.43,0a1.62,1.62,0,0,1,.92.48c-.06,0-.14,0-.09.13s0,.05,0,.07-.12,0-.16-.08a2,2,0,0,0-.68-.34,1,1,0,0,1-.3-.05,1,1,0,0,0-.24,0H14.11c-.32,0-.63,0-.95,0h-.72a4,4,0,0,0-.6,0c-.37,0-.73,0-1.1,0s-.84,0-1.25,0c-.16,0-.32,0-.48,0-.37,0-.74,0-1.11,0a8.71,8.71,0,0,0-1.35.05.17.17,0,0,1-.12,0c-.09,0-.17-.05-.23.05s-.07,0-.11,0a.12.12,0,0,0-.15,0,.6.6,0,0,1-.35,0c-.21,0-.42,0-.62,0C4.92,1.41,4.87,1.42,4.83,1.37Z"/>
                <path fill="#03a3da" d="M1.08,1.39c0-.07,0-.16,0-.23a.56.56,0,0,1,0,.22,2.43,2.43,0,0,0,0-.27,5.24,5.24,0,0,1,0-.56A.2.2,0,0,1,1.23.37c.16.11.35.09.52.16s.08,0,.13-.06.05.07.05.1,0,.31,0,.46a.59.59,0,0,1-.16.3,4.07,4.07,0,0,0-.37.55c-.07,0-.09.11-.13.17-.15.21-.31.41-.46.63,0,.06-.1.16-.19.13s-.09-.14-.1-.22c-.06-.34-.12-.67-.19-1A5.67,5.67,0,0,1,.19,1C.18.93.17.85.25.79s0,0,0,.06.1,0,.14,0L.9.81C1,.84,1,.92,1,1A3.1,3.1,0,0,0,1,1.39S1.06,1.4,1.08,1.39Z"/>
                <path fill="#1a1a37" d="M4,4.78s0,0,0,.07a1.83,1.83,0,0,1-1.06.81,1.45,1.45,0,0,1-.62,0A.24.24,0,0,0,2,5.54a.25.25,0,0,1-.16-.06,1.93,1.93,0,0,0-.34-.19A2.1,2.1,0,0,1,.79,4.6c-.05,0-.07-.13-.14-.17a.76.76,0,0,1-.05-.3,1.19,1.19,0,0,1,0-.46.75.75,0,0,0,0-.15.54.54,0,0,1,.09-.27s0,0,.06,0a3.27,3.27,0,0,1,0,.44,1,1,0,0,0,0,.38,1.48,1.48,0,0,0,.66.81,1,1,0,0,1,.25.19c.09.09.23.11.33.17a1.45,1.45,0,0,0,.86.18l.16,0c.13,0,.26-.11.39-.16s.25-.2.35-.32a1.34,1.34,0,0,1,.11-.14S3.94,4.74,4,4.78Z"/>
                <path fill="#191a36" d="M.75,3.28l0,0A1.93,1.93,0,0,1,1,2.76L2.62.39a.46.46,0,0,1,.79,0,.44.44,0,0,1,0,.51L3.33,1a.08.08,0,0,1,0,.07c-.07,0-.07.14-.16.16l0,0a.71.71,0,0,1,.21-.4L3.37.72a.14.14,0,0,0,0-.06v0a.26.26,0,0,0,0-.15A.35.35,0,0,0,3,.26a.16.16,0,0,0-.1,0l-.09,0,0,0-.08.1c-.2.27-.39.56-.58.84s-.33.5-.51.74a3.92,3.92,0,0,0-.48.72l-.07.09a.51.51,0,0,0-.18.25C.86,3.16.86,3.26.75,3.28Z"/>
                <path fill="#e5312e" d="M3.3,1.07s0,0,0-.05H16a1.14,1.14,0,0,1,.37,0c-.73,0-1.46,0-2.18,0h-3.6c-.52,0-1,0-1.56,0s-1,0-1.44,0c-1.24-.05-2.49,0-3.73,0-.06,0-.11,0-.16,0H3.58C3.49,1.08,3.39,1.14,3.3,1.07Z"/>
                <path fill="#0e0f21" d="M.65,4.43c.14,0,.17.17.24.26a2.14,2.14,0,0,0,.83.66l0,0a.5.5,0,0,0,.38.15c.14,0,.15.08.14.19A1.75,1.75,0,0,1,.85,4.86,1.4,1.4,0,0,1,.65,4.43Z"/>
                <path fill="#0080b5" d="M.25.8a1.06,1.06,0,0,0,0,.56c0,.23.08.46.12.69a4,4,0,0,0,.14.67c0,.12.08.06.12,0a1.48,1.48,0,0,0,.22-.29c.07-.14.2-.24.27-.37A.45.45,0,0,0,1.22,2a.12.12,0,0,1,.13-.09h0c0,.05,0,.08,0,.11-.23.3-.44.62-.66.92C.63,3,.59,3,.52,2.93.45,2.55.37,2.18.3,1.8c0-.23-.08-.47-.13-.7A.43.43,0,0,1,.4.58a.25.25,0,0,1,.25,0s.1,0,.13.06l0,0a.54.54,0,0,1-.18,0,.31.31,0,0,0-.24.1S.29.8.25.8Z"/>
                <path fill="#0080b5" d="M1.26.37A.18.18,0,0,0,1.2.52c0,.27,0,.54,0,.8a.13.13,0,0,1,0,.12V1.16a3.9,3.9,0,0,1,0-.59.4.4,0,0,1,.45-.4A.41.41,0,0,1,2,.58a3,3,0,0,1,0,.6.08.08,0,0,1,0,0h0a3.76,3.76,0,0,1-.39.59c0,.05-.06.14-.15.14h0c0-.07,0-.12.07-.17.12-.21.28-.38.4-.58,0,0,0,0,0,0a3.35,3.35,0,0,0,0-.63.1.1,0,0,1,0,0A.18.18,0,0,0,1.75.34a.33.33,0,0,0-.39,0l0,0S1.29.38,1.26.37Z"/>
                <path fill="#035884" d="M1.36,1.88a5.9,5.9,0,0,0,.5-.7l0-.09s0,.06,0,.09c-.18.26-.35.52-.53.77L.65,3l-.08.1a.41.41,0,0,1,0-.18c.07,0,.11,0,.14-.05l.52-.72C1.24,2.07,1.34,2,1.36,1.88Z"/>
                <path fill="#0484b9" d="M.74.63h0C.92.66,1,.78,1,.91l.09.48s0,.08,0,.11S1,1.45,1,1.42C.94,1.22,1,1,.9.82c0,0,0,0-.06-.06S.8.71.78.7A.1.1,0,0,1,.74.63Z"/>
                <path fill="#e52c2f" d="M17.41,1.63a.32.32,0,0,0,.06.16s.09.05,0,.1-.06,0-.09,0a.22.22,0,0,1-.06-.28S17.39,1.6,17.41,1.63Z"/>
                <path fill="#191a36" d="M.62,3.52a.14.14,0,0,1,0,.14,1.52,1.52,0,0,0,0,.47A1.26,1.26,0,0,1,.62,3.52Z"/>
                <path fill="#c1e3f0" d="M.65.56A.71.71,0,0,0,.4.58.19.19,0,0,1,.65.56Z"/>
                <path fill="#0d4876" d="M17.72,1c.11-.08.2-.06.26,0a.17.17,0,0,1,0,.24h0a.11.11,0,0,1,0-.07c0-.12-.06-.15-.16-.15S17.71,1,17.72,1Z"/>
                <path fill="#0d4e7a" d="M17.94,1.25c-.07.1-.18.09-.27,0a.09.09,0,0,1,.06,0c.1-.07.16,0,.21.07Z"/>
                <path fill="#14427d" d="M17.72,1.19a0,0,0,0,1,0,0,.18.18,0,0,1,0-.24l0,0A.12.12,0,0,1,17.72,1.19Z"/>
                <path fill="#f8e825" d="M6.66,2.4c0,.11-.14.21-.12.3s.15.14.22.23a.94.94,0,0,1-.61,1.5,2.44,2.44,0,0,1-.54,0h-1c-.17,0-.18,0-.18-.17V1.57c0-.17,0-.17.17-.17.34,0,.67,0,1,0l.24,0a.78.78,0,0,1,.62.27A.79.79,0,0,1,6.66,2.4Z"/>
                <path fill="#f8e825" d="M9.21,2.38a1.54,1.54,0,0,1,.28,1c0,.3,0,.59,0,.89,0,.1,0,.13-.13.12H9s-.09,0-.09-.06-.05-.1-.13-.06a1.23,1.23,0,0,1-1.65-.58,1.25,1.25,0,0,1,.18-1.38.22.22,0,0,1,.09-.13A1.44,1.44,0,0,1,8,1.94a1.47,1.47,0,0,1,.59,0A.6.6,0,0,1,8.73,2a2.07,2.07,0,0,1,.32.19A.49.49,0,0,1,9.21,2.38Z"/>
                <path fill="#f8e825" d="M13.16,2.4a1.82,1.82,0,0,1,.27.64,1.27,1.27,0,0,1-.87,1.33A1.2,1.2,0,0,1,11.2,4l0,0A.41.41,0,0,1,11,3.7a1.38,1.38,0,0,1,.15-1.29A1.15,1.15,0,0,1,11.57,2L11.76,2a1.29,1.29,0,0,1,1.31.29A.29.29,0,0,1,13.16,2.4Z"/>
                <path fill="#f8e825" d="M17.18,2.37a2.06,2.06,0,0,1,.25.49,1.23,1.23,0,0,1-.6,1.41,1.16,1.16,0,0,1-1.14.05A1.15,1.15,0,0,1,15,3.39a1.23,1.23,0,0,1,.23-1,.18.18,0,0,1,.09-.18,1.1,1.1,0,0,1,.61-.3l.08,0a1.36,1.36,0,0,1,.84.15,2.26,2.26,0,0,1,.26.2S17.19,2.31,17.18,2.37Z"/>
                <path fill="#f8e825" d="M14.71,2.36c-.05.18-.05.18-.25.18H14.2c-.07,0-.09,0-.09.1s0,.42,0,.63a.59.59,0,0,0,.53.56,1.06,1.06,0,0,0,.31,0c.08,0,.11,0,.11.11s0,.26,0,.4,0,.07-.07.08a1.29,1.29,0,0,1-1.31-.61,1.23,1.23,0,0,1-.17-.62c0-.28,0-.55,0-.83-.06-.05,0-.13,0-.2a4.33,4.33,0,0,1,0-.72l0,0,0,0c.15,0,.3,0,.45,0s.15.05.16.15v.22c0,.08,0,.12.11.12h.29a.19.19,0,0,1,.2.2C14.76,2.17,14.79,2.28,14.71,2.36Z"/>
                <path fill="#f8e825" d="M10.51,4.43a1.22,1.22,0,0,1-.93-.95.89.89,0,0,1,0-.23c0-.55,0-1.1,0-1.66,0-.19,0-.21.22-.21H10c.11,0,.16.05.17.16s0,.51,0,.76,0,.68,0,1a.22.22,0,0,0,0,.13.6.6,0,0,0,.61.36.21.21,0,0,1,.11,0c.09,0,.14,0,.13.14s0,.27,0,.4,0,.1-.06.1A1.82,1.82,0,0,1,10.51,4.43Z"/>
                <path fill="#e5312e" d="M8.73,2A.35.35,0,0,1,8.56,2a1.34,1.34,0,0,0-.63,0,1.73,1.73,0,0,0-.62.38.35.35,0,0,0-.23,0c-.07,0-.16,0-.24,0s0,0,0,0S6.75,2.13,6.73,2a.38.38,0,0,0,0,.21c0,.06,0,.12,0,.15a.82.82,0,0,0-.24-.77.74.74,0,0,0-.48-.2H4.61c-.11,0-.11.06-.11.14V4.14c0,.29,0,.29.29.29H6.15a.68.68,0,0,1-.4,0,4.22,4.22,0,0,0-.94,0h0c-.3,0-.32,0-.32-.31V1.42c.11-.09.25,0,.37,0a2,2,0,0,0,.49,0s.11,0,.17,0a.72.72,0,0,0,.43-.06c.06,0,.14-.07.2,0s.08,0,.08,0,.1-.11.14-.08a.39.39,0,0,0,.3,0,2.09,2.09,0,0,1,.56,0h.68c.07.22.27.31.43.42s.3.2.44.31.05,0,0,.07S8.75,2,8.73,2Z"/>
                <path fill="#e84736" d="M10.21,3.48c-.07-.06-.05-.13-.05-.2,0-.57,0-1.13,0-1.7,0-.12,0-.17-.16-.16h-.3c-.1,0-.13,0-.13.13,0,.62,0,1.24,0,1.85a.2.2,0,0,1,0,.07s0-.1,0-.15c0-.32,0-.63,0-1a.32.32,0,0,1,0-.17c0-.19,0-.38,0-.57s0-.18-.14-.19-.09-.07,0-.14.11-.05.16-.08h1.26a2.12,2.12,0,0,1,.44.35c.14.11.33.15.43.31s0,0,.06,0,.09,0,.09.08a1.29,1.29,0,0,0-.57.43c-.28,0-.55,0-.83,0-.1,0-.13,0-.13.13,0,.26,0,.52,0,.78C10.23,3.38,10.25,3.43,10.21,3.48Z"/>
                <path fill="#ee7d60" d="M14.71,2.36V2.1c0-.15,0-.17-.18-.17h-.32c-.07,0-.1,0-.1-.09s0-.2,0-.3,0-.12-.12-.12-.3,0-.46,0c0,0,0,0,.05,0h0s-.08,0-.11,0h0c-.08.09-.1.09-.14,0s0,0-.06,0l-.08,0c-.05,0-.1,0-.09-.09s.07,0,.1,0c.29,0,.58,0,.87,0h1.76a0,0,0,0,1,0,0c-.06,0-.13,0-.2,0a7,7,0,0,1-.92,0,.35.35,0,0,1,.29.12l.11.08a1,1,0,0,1,.4.32.18.18,0,0,0,.17.06.42.42,0,0,1,.32.08C16,2,15.83,2,15.74,2a1.14,1.14,0,0,0-.5.4c0-.07-.07,0-.12,0A2.88,2.88,0,0,1,14.71,2.36Z"/>
                <path fill="#e5292b" d="M10.21,3.48a9.2,9.2,0,0,1,0-1s0-.06.06-.06h.87s.06,0,.07,0a1.33,1.33,0,0,0-.13,1.32c0,.07.07.12.1.19s-.05,0-.05.06a1.33,1.33,0,0,0,0,.44s0,0,0,0a2.9,2.9,0,0,1-.59,0s0,0,0,0H11c.08,0,.1,0,.1-.1s0-.25,0-.38,0-.11-.12-.11a.78.78,0,0,1-.54-.11A.51.51,0,0,1,10.21,3.48Z"/>
                <path fill="#e63a32" d="M9.48,1.23c0,.05-.1.07-.14.11s0,0,0,.07h0c.13,0,.19,0,.19.16s0,.53,0,.8c-.1,0-.22,0-.33,0v0A2,2,0,0,0,8.73,2s0,0,0,0-.31-.23-.48-.32a3.37,3.37,0,0,1-.37-.29.12.12,0,0,1,0-.16Z"/>
                <path fill="#ea5942" d="M11.76,2c0-.08-.13,0-.18,0s0-.14-.1-.16-.26-.2-.42-.26S11,1.5,11,1.48a.19.19,0,0,0-.17-.14c-.05,0-.14,0-.09-.11h1.7c0,.07-.08.05-.12.06H12a.15.15,0,0,1,.1,0,2.49,2.49,0,0,0,.59.35s0,0,.05,0a1.5,1.5,0,0,0,.48.3c.11,0,.13.16.19.25s0-.12.09-.09v.2c-.11,0-.24,0-.35,0a1.72,1.72,0,0,0-.46-.34A1.14,1.14,0,0,0,11.89,2Z"/>
                <path fill="#f39b83" d="M15.64,1.25h.22a.53.53,0,0,1,.25,0,2.31,2.31,0,0,1,.52.12,2.05,2.05,0,0,1,.59.38,1.78,1.78,0,0,1,.33.48c.06.13.05.15-.09.15h-.28c-.08-.12-.23-.17-.32-.29s-.35-.29-.54-.41a.67.67,0,0,1-.19-.14,1.11,1.11,0,0,0-.37-.2S15.65,1.32,15.64,1.25Z"/>
                <path fill="#1f2449" d="M.75,3.28a.61.61,0,0,0,.11-.21c0-.1.08-.2.19-.24s0,.08,0,.12a1.31,1.31,0,0,0-.21.62.73.73,0,0,0,.29.72,2.21,2.21,0,0,1,.58.52A1.39,1.39,0,0,0,2,5a2.11,2.11,0,0,1,.46.21.79.79,0,0,0,.85,0A1.28,1.28,0,0,0,3.8,4.8,1.14,1.14,0,0,0,4.07,4V3.93a.43.43,0,0,0,0-.11s0-.11,0-.16-.14-.2-.21-.31,0,0,0,0c.19,0,.25.18.31.33a3.84,3.84,0,0,1,0,.48A2.19,2.19,0,0,1,4,4.78c-.08,0-.11.06-.13.1s-.14.15-.19.25-.17.14-.27.18l-.18.07A1.42,1.42,0,0,1,2,5.32a3.89,3.89,0,0,1-.8-.51,1.3,1.3,0,0,1-.54-1A1.33,1.33,0,0,1,.75,3.28Z"/>
                <path fill="#e52c2f" d="M3.3,1.07c.09,0,.19-.06.28,0s.08.09.24.08a.51.51,0,0,1,.46.22s0,0,0,.06,0,0-.07,0-.18,0-.21-.15-.06,0-.09,0a.26.26,0,0,1-.21-.06s-.1,0-.15,0-.2,0-.25-.09l-.13.17c.08,0,.14,0,.09.1s0,.18-.16.11S3,1.52,3,1.55a.11.11,0,0,1-.11.08s0,0,0-.07a1.19,1.19,0,0,1,.26-.33C3.23,1.2,3.22,1.09,3.3,1.07Z"/>
                <path class="cls-26" d="M2.61,2c0,.09.08.07.14.08a1.78,1.78,0,0,1,.89.46s.07.05.07.1,0,0,0,0-.12-.1-.18-.14a1.79,1.79,0,0,0-.61-.32l-.07,0c-.08,0-.17,0-.24,0s-.05,0-.06-.06a.08.08,0,0,1,0-.1A0,0,0,0,1,2.61,2Z"/>
                <path class="cls-27" d="M2.61,2h0a.07.07,0,0,1,0-.12A6.82,6.82,0,0,1,3,1.29s.06-.08.11-.07h.06a2,2,0,0,1-.23.34.11.11,0,0,0,0,.06Z"/>
                <path class="cls-28" d="M3.7,2.71v0a.4.4,0,0,1,.13.48c0,.1,0,.13.06.17v0s-.08,0-.12,0l-.07,0s-.07,0-.06-.08,0-.22.11-.3v0a.22.22,0,0,0-.07-.17s0,0,0,0S3.7,2.72,3.7,2.71Z"/>
                <path fill="#e5282a" d="M4.21,4.13V3.65A1.29,1.29,0,0,1,4.21,4.13Z"/>
                <path class="cls-29" d="M13.51,2.17l0,0s0,.1-.05.1-.07-.06-.08-.1S13.12,2,13,1.94a.34.34,0,0,1-.14-.08,1.57,1.57,0,0,0-.54-.33.4.4,0,0,1-.19-.15A.14.14,0,0,0,12,1.32a.16.16,0,0,1-.14-.05c.09,0,.16,0,.24,0s.22,0,.33,0h1.67s-.11,0-.17,0h-.8a.21.21,0,0,0,.24.06s.09,0,.07.06-.08,0,0,.09.06-.05.1,0Z"/>
                <path fill="#e52a2c" d="M4.56,1.17c.26,0,.51,0,.77,0,0,0,.14.05.15-.06s.2,0,.2,0,.08,0,.12.08H4.56Z"/>
                <path fill="#e52a2c" d="M5.23,1.09a.3.3,0,0,1-.25,0C5.07,1.05,5.15,1.09,5.23,1.09Z"/>
                <path fill="#e52a2c" d="M6,1.1a.25.25,0,0,1-.22,0A.32.32,0,0,1,6,1.1Z"/>
                <path fill="#e52a2c" d="M4.4,1.09s.08,0,.11,0,0,0,0,0S4.42,1.13,4.4,1.09Z"/>
                <path class="cls-30" d="M16.11,1.25h-.25v0A.49.49,0,0,1,16.11,1.25Z"/>
                <path class="cls-31" d="M1.26.37l0,0a1.33,1.33,0,0,0,.56.1l0,0c0,.1-.06.13-.13.1s-.28,0-.41-.1S1.25.44,1.26.37Z"/>
                <path class="cls-32" d="M.86.74A.12.12,0,0,1,.9.82s0,.05,0,.05C.68.86.51,1,.32.93c0,0-.07,0-.07-.06A.68.68,0,0,1,.59.79.62.62,0,0,0,.86.74Z"/>
                <path class="cls-33" d="M.86.74s0,.09-.1.08S.42.88.25.87V.8L.3.72a.85.85,0,0,0,.5,0A.12.12,0,0,1,.86.74Z"/>
                <path class="cls-34" d="M3.8,3V3a.5.5,0,0,0-.13.19c-.06.19-.16.21-.33.11a.94.94,0,0,1-.19-.14C3.15,3.05,3.1,3,3,3a2,2,0,0,0-.54-.18.9.9,0,0,0-.43,0l-.19.06a.28.28,0,0,1-.36-.12.23.23,0,0,1,0-.27A8.74,8.74,0,0,1,2,1.71l.35-.53c.12-.18.26-.35.37-.53a.23.23,0,0,0,0-.24.1.1,0,0,1,0-.09l0,0s.07,0,.11,0,.23.17.35.25.11.06.13.13l0,.11a.33.33,0,0,0-.24.2,1.14,1.14,0,0,1-.18.25,3.29,3.29,0,0,0-.36.6c0,.08-.12.15,0,.23l0,0c.37.15.63.47,1,.61C3.67,2.83,3.78,2.84,3.8,3Z"/>
                <path class="cls-35" d="M3.15,3.13c.11,0,.17.08.25.13s.14.06.2,0S3.68,3,3.8,3c-.08.09-.06.21-.12.3s0,0,0,0-.07,0-.1.07l-.07,0,0,0h0a.08.08,0,0,1-.07,0c-.21-.1-.36-.29-.56-.39A.94.94,0,0,0,2.2,3a1.17,1.17,0,0,0-.63.47.26.26,0,0,0-.07.16.46.46,0,0,1-.13.27.09.09,0,0,0,0,.09,1,1,0,0,0,.11.38.92.92,0,0,0,.46.49s.1,0,.1.1-.09,0-.12,0l-.21-.11A2.64,2.64,0,0,0,1,4.28.39.39,0,0,1,.86,4,1.66,1.66,0,0,0,.8,3.82a1.15,1.15,0,0,1,.08-.61,1.84,1.84,0,0,1,.17-.38,4.41,4.41,0,0,1,.63-.92c.09-.13.17-.28.26-.41s.19-.28.28-.42L2.66.45l0,0c.06,0,0,.09,0,.14a.76.76,0,0,1-.11.22c-.27.32-.48.68-.72,1s-.48.69-.69,1.06A1.15,1.15,0,0,0,1,3.34a.28.28,0,0,0,.05.22c.06.07.13.07.16,0s.26-.34.4-.5A.29.29,0,0,1,1.8,3a1.73,1.73,0,0,1,.7-.15A.87.87,0,0,1,3.15,3.13Z"/>
                <path class="cls-36" d="M3.15,3.13a1.45,1.45,0,0,0-.54-.27.73.73,0,0,0-.36,0c-.13,0-.27.06-.4.11h0a1.29,1.29,0,0,0-.53.58.12.12,0,0,1-.2.07A.26.26,0,0,1,1,3.39a1.11,1.11,0,0,1,.17-.54c.21-.35.43-.69.67-1s.29-.44.44-.66A2.07,2.07,0,0,1,2.57.77.41.41,0,0,0,2.7.42s0-.07.08-.1c.1.17,0,.28-.07.43a3,3,0,0,0-.3.4,1.46,1.46,0,0,1-.23.34c-.05.06-.07.14-.12.21l-.44.61a1.69,1.69,0,0,0-.13.27c0,.1.06.15.1.22a.17.17,0,0,0,.21.06,2.91,2.91,0,0,1,.51-.12.8.8,0,0,1,.31,0A1.61,1.61,0,0,1,3.11,3C3.19,3,3.21,3.05,3.15,3.13Z"/>
                <path class="cls-37" d="M2.56,2.12c-.12-.05-.14-.1-.05-.18s0-.11.06-.17A6.5,6.5,0,0,1,3,1.14c.07-.07.09-.19.17-.26s.11-.07.17,0c-.14.09-.14.27-.25.38a3,3,0,0,0-.39.54c0,.09-.17.14-.15.27Z"/>
                <path class="cls-38" d="M3.4.48a.25.25,0,0,1,0,.17.44.44,0,0,1-.22-.1A2.78,2.78,0,0,1,2.94.34S2.87.29,2.9.25A.15.15,0,0,1,3,.23.82.82,0,0,1,3.4.48Z"/>
                <path class="cls-39" d="M2.9.25a1.66,1.66,0,0,0,.39.31l.14.09v0c-.06,0-.11,0-.17,0A2,2,0,0,1,2.81.3S2.86.25,2.9.25Z"/>
                <path class="cls-40" d="M3.4.48s0,0,0,0L3,.23A.33.33,0,0,1,3.4.48Z"/>
                <path class="cls-41" d="M3.25.63c.07,0,.11,0,.17,0l0,.06S3.28.69,3.25.63Z"/>
                <path fill="#c1e3f0" d="M.8.68S.78.77.73.77a2.55,2.55,0,0,0-.39,0s0,0,0-.07A.37.37,0,0,1,.74.63Z"/>
                <path class="cls-42" d="M1.86.42a.11.11,0,0,1-.15,0L1.35.38s0,0-.05-.06l0,0a.69.69,0,0,1,.32,0,.33.33,0,0,0,.14,0C1.84.33,1.84.38,1.86.42Z"/>
                <path class="cls-43" d="M1.78.32a.1.1,0,0,1-.13,0L1.32.3A.33.33,0,0,1,1.78.32Z"/>
                <path class="cls-44" d="M17.72,1.19l0-.19a.25.25,0,0,1,.12,0c.06,0,.11,0,.07.11s0,.1,0,.15-.05,0-.07,0-.05-.11-.08,0S17.77,1.26,17.72,1.19Z"/>
                <path class="cls-45" d="M5.58,3.83a2.67,2.67,0,0,0-.4,0c-.08,0-.11,0-.1-.11V3.15s0-.1.07-.1a6.32,6.32,0,0,1,.87,0,.36.36,0,0,1,.3.4A.38.38,0,0,1,6,3.82H5.58Z"/>
                <path class="cls-46" d="M6,2.4a.24.24,0,0,1-.24.12H5.19c-.08,0-.11,0-.11-.12,0-.38,0-.38.37-.38h.32A.24.24,0,0,1,6,2.17.24.24,0,0,1,6,2.4Z"/>
                <path class="cls-47" d="M6,2.4a.89.89,0,0,0,0-.23A.15.15,0,0,1,6,2.4Z"/>
                <path fill="#e5292b" d="M8.22,3.84a.65.65,0,0,1-.62-.72.66.66,0,0,1,.69-.59.67.67,0,0,1,.61.69A.66.66,0,0,1,8.22,3.84Z"/>
                <path fill="#e63a32" d="M7.93,2a.91.91,0,0,1,.63,0A2.22,2.22,0,0,0,7.93,2Z"/>
                <path fill="#e5292b" d="M12.17,2.53a.7.7,0,0,1,.67.66.7.7,0,0,1-.67.66.66.66,0,0,1-.64-.66A.65.65,0,0,1,12.17,2.53Z"/>
                <path fill="#e5292b" d="M16.07,3.83a.66.66,0,0,1,.16-1.3.72.72,0,0,1,.65.56.69.69,0,0,1-.39.69l-.1,0A.44.44,0,0,1,16.07,3.83Z"/>
                <path class="cls-30" d="M15.64,1.25a1.54,1.54,0,0,1,.47.21,5.74,5.74,0,0,0,.5.36c.09.07.21.14.25.26l-.43-.14a1.4,1.4,0,0,0-.41,0c-.09,0-.18-.05-.27,0s-.07,0-.1,0a.07.07,0,0,1-.11,0,.7.7,0,0,0-.24-.27c-.12-.1-.27-.15-.38-.26s-.18-.05-.27-.11Z"/>
                <path class="cls-48" d="M16.07,3.83h.32A.25.25,0,0,1,16.07,3.83Z"/>
                <path class="cls-29" d="M13.51,1.43a.06.06,0,0,1,.07-.06,2.8,2.8,0,0,1,.5,0h-.4s-.1,0-.14,0Z"/>
                <path class="cls-49" d="M1.68,4.83c.06,0,.08,0,.13,0S1.93,5,2,5s.1,0,.15,0,.18.07.26,0a.3.3,0,0,1,.18-.08,1,1,0,0,0,.56-.4s.06-.12.15-.1a.1.1,0,0,1,0,.09A1.1,1.1,0,0,1,3,4.91C2.93,5,2.93,5,3,5a.25.25,0,0,0,.2.07.9.9,0,0,0,.63-.52A2.09,2.09,0,0,0,4,4.05s0-.06.07,0a1,1,0,0,1,0,.42.33.33,0,0,1-.06.1.78.78,0,0,0-.11.2.91.91,0,0,1-.35.4,1.27,1.27,0,0,1-.47.22.86.86,0,0,1-.73-.17.88.88,0,0,0-.22-.1A1.18,1.18,0,0,1,1.68,4.83Z"/>
                <path class="cls-50" d="M4.1,4c-.08.06,0,.17-.08.25l-.09.21A1.14,1.14,0,0,1,3.48,5a.6.6,0,0,1-.37.11C3,5.16,3,5,2.87,5s0-.07.06-.09a.87.87,0,0,0,.37-.55s0-.08,0-.13a1.18,1.18,0,0,0,0-.46.33.33,0,0,1,.09-.28l0,0a.53.53,0,0,1,.09.3,2.41,2.41,0,0,1-.07.71.29.29,0,0,1,0,.09.14.14,0,0,0,.06.14c.06,0,.09,0,.13-.05a.7.7,0,0,0,.25-.42.61.61,0,0,1,.17-.29h0Z"/>
                <path class="cls-51" d="M4.1,3.92h0a.38.38,0,0,1-.55-.27c0-.07-.09-.13,0-.21a.05.05,0,0,1,0-.05c.13.05.21.17.33.24s.21.09.28.19A.1.1,0,0,1,4.1,3.92Z"/>
                <path class="cls-52" d="M4.12,3.83C4,3.83,4,3.76,3.9,3.72a1.2,1.2,0,0,1-.39-.32l.07,0A3,3,0,0,1,4,3.61s.09.08.16.05h0C4.19,3.71,4.13,3.77,4.12,3.83Z"/>
                <path class="cls-53" d="M3.78,3.33l.12,0a.38.38,0,0,1,.23.3h0s0,0,0,0a2.14,2.14,0,0,1-.44-.3S3.74,3.35,3.78,3.33Z"/>
                <path class="cls-54" d="M3.6,2.78A1.66,1.66,0,0,1,3,2.44a1,1,0,0,0-.36-.22.07.07,0,0,1-.06-.07c.08,0,.17,0,.25.05a1,1,0,0,0,.43.25l0,0a.46.46,0,0,0,.28.18l.11.1h0C3.69,2.82,3.65,2.8,3.6,2.78Z"/>
                <path class="cls-55" d="M3.71,2.75s-.08,0-.11-.07a1.43,1.43,0,0,1-.3-.2h0L3,2.31s-.08,0-.07-.08a1.31,1.31,0,0,1,.74.43l.05,0Z"/>
                <path class="cls-56" d="M2.91,2.23a2.69,2.69,0,0,1,.29.16s.09,0,.1.09c-.16,0-.26-.11-.39-.19l-.09-.06s0,0,0,0h0A.05.05,0,0,1,2.91,2.23Z"/>
                <path class="cls-57" d="M3.78,3.33l-.1,0c.16.08.29.21.44.29s0,.11-.06.06a2.32,2.32,0,0,1-.48-.34c0-.05.08,0,.12-.05Z"/>
                <path class="cls-58" d="M3.6,2.78s.08,0,.11,0,.09.12.09.2C3.75,2.87,3.63,2.88,3.6,2.78Z"/>
                <path class="cls-59" d="M3.41,3.48c0,.13-.1.27,0,.41-.07.11,0,.25-.08.37s0,.06,0,.09,0,0-.06,0c-.06.18-.24.25-.35.39a.36.36,0,0,1-.21.09A.8.8,0,0,0,2.42,5a.89.89,0,0,1-.59-.15,1,1,0,0,1-.4-.46.86.86,0,0,1-.08-.47c0-.1.08-.21.12-.31A1.1,1.1,0,0,1,2.06,3,1,1,0,0,1,2.83,3a.45.45,0,0,1,.14.1C3.1,3.27,3.28,3.34,3.41,3.48Z"/>
                <path class="cls-60" d="M3.48,3.45a2.52,2.52,0,0,0,.12.29A.34.34,0,0,0,4,3.91l.07,0a2.78,2.78,0,0,0-.24.56.61.61,0,0,1-.28.27c-.07,0-.17-.1-.15-.2l.06-.34a1.49,1.49,0,0,0,0-.63.68.68,0,0,1,0-.14Z"/>
                <path class="cls-61" d="M1.46,4.35a1,1,0,0,0,.91.58s0,0,0,0,0,.06-.07.06L2,5a1.18,1.18,0,0,1-.53-.46l-.06-.11S1.43,4.34,1.46,4.35Z"/>
                <path class="cls-62" d="M1.46,4.35l0,0A.81.81,0,0,1,1.31,4s0-.07,0-.07A2.47,2.47,0,0,0,1.46,4.35Z"/>
                <path class="cls-56" d="M3.3,2.48a.61.61,0,0,1,.3.2C3.48,2.65,3.35,2.62,3.3,2.48Z"/>
                <path class="cls-63" d="M1.51,3.8a.83.83,0,0,1,.54-.72.86.86,0,0,1,1,.18l.06.06c.07.09.19.11.28.17s0,0,0,0c0,.63-.13,1.25-1,1.26A.9.9,0,0,1,1.51,3.8Z"/>
                <path class="cls-64" d="M1.65,4a.31.31,0,0,1,0-.25c.06-.12.08-.12.2-.06.34.18.65.41,1,.59.11.06.11.12,0,.19l-.06,0c-.17.07-.29,0-.41-.11S1.9,4.18,1.68,4C1.67,4,1.67,4,1.65,4Z"/>
                <path class="cls-65" d="M2.78,4.53l.06,0c.09,0,.08-.1,0-.13A5.26,5.26,0,0,1,2.19,4a3.26,3.26,0,0,1-.4-.24c-.08-.06-.1,0-.14,0a.23.23,0,0,1,.06-.2c.07-.14.09-.14.23-.07s.18.15.29.21A1.31,1.31,0,0,1,2.58,4,.38.38,0,0,0,3,4.11h0a.19.19,0,0,1,0,.19.44.44,0,0,1-.31.25S2.77,4.54,2.78,4.53Z"/>
                <path class="cls-66" d="M2.78,4.53l0,0-.06.07a.55.55,0,0,1-.25,0c0-.07-.12-.1-.18-.14a2.7,2.7,0,0,0-.4-.25.17.17,0,0,0-.12,0A.4.4,0,0,1,1.65,4V3.9c.06.15.21.19.33.25a4,4,0,0,1,.56.35C2.63,4.57,2.71,4.51,2.78,4.53Z"/>
                <path class="cls-67" d="M1.73,4.26s0-.1.07,0a2.09,2.09,0,0,1,.53.34s.11,0,.16,0-.07,0-.09.05a.54.54,0,0,1-.52-.18C1.83,4.4,1.75,4.35,1.73,4.26Z"/>
                <path class="cls-68" d="M2.2,3.75c-.09,0-.17-.14-.26-.2s-.16-.06-.23,0a.68.68,0,0,1,.42-.41c.05,0,.1,0,.14,0s-.07.12-.09.18a.15.15,0,0,0,0,.11s0,.09,0,.14S2.24,3.7,2.2,3.75Z"/>
                <path class="cls-69" d="M2.25,3.22c0-.08-.08,0-.12-.05a.73.73,0,0,1,.56,0,.78.78,0,0,1,.49.77.15.15,0,0,1,0,.09s0-.07,0-.1,0,.07-.06,0,0,0,0,0,0-.2,0-.28a.68.68,0,0,0-.41-.4c-.12-.06-.24,0-.35,0Z"/>
                <path class="cls-70" d="M1.88,4.47a.75.75,0,0,0,.52.18c.1,0,.18,0,.28,0-.06.09-.15,0-.23.06A.71.71,0,0,1,2,4.57S1.89,4.52,1.88,4.47Z"/>
                <path class="cls-71" d="M3.11,4l0-.08V4a.52.52,0,0,1-.11.28c0-.07,0-.13,0-.19s0-.07,0-.11A.07.07,0,0,1,3.11,4Z"/>
                <path class="cls-72" d="M3.08,4,3,4.12H3a.17.17,0,0,1-.2,0l-.58-.46a.33.33,0,0,1-.11-.16s0-.09,0-.1.09,0,.13,0a6.19,6.19,0,0,0,.55.47C2.9,4,3,4,3.08,4Z"/>
                <path class="cls-73" d="M2.11,3.48c.21.21.45.38.68.57A.28.28,0,0,0,3,4.13a.27.27,0,0,1-.36,0,2.51,2.51,0,0,0-.44-.35C2.18,3.66,2.07,3.59,2.11,3.48Z"/>
                <path class="cls-74" d="M3.08,4c-.19,0-.29-.11-.41-.21l-.52-.43a.18.18,0,0,1,.1-.16v0a1,1,0,0,1,.42.41A.32.32,0,0,0,3,3.84a.15.15,0,0,1,.14.08V4Z"/>
                <path class="cls-75" d="M3.1,3.92a.53.53,0,0,0-.18,0,.32.32,0,0,1-.28-.2.81.81,0,0,0-.27-.31s-.11-.06-.11-.12a.33.33,0,0,1,.37,0,.11.11,0,0,0,0,.1.24.24,0,0,1,.1.24c0,.09.1.12.17.16s.07-.08.12-.1S3.1,3.82,3.1,3.92Z"/>
                <path class="cls-76" d="M3.06,3.62c0,.19,0,.2-.21.1s-.17-.14-.09-.29c-.12,0-.11-.11-.19-.16s0,0,.06,0A.68.68,0,0,1,3.06,3.62Z"/>
            </g>
        </g>
    </g>
</svg>
