<svg xmlns="http://www.w3.org/2000/svg" width="38" height="24" fill="none" aria-labelledby="pi-bancontact" role="img" viewBox="0 0 38 24"><title id="pi-bancontact">Bancontact</title><path fill="#fff" d="M0 0h38v24H0z"/><path fill="#1E3764" d="M6.38 18.562v-3.077h1.125c.818 0 1.344.259 1.344.795 0 .304-.167.515-.401.638.338.132.536.387.536.734 0 .62-.536.91-1.37.91zm.724-1.798h.537c.328 0 .468-.136.468-.387 0-.268-.255-.356-.599-.356h-.406zm0 1.262h.448c.438 0 .693-.093.693-.383 0-.286-.219-.404-.63-.404h-.51zm3.284.589c-.713 0-1.073-.295-1.073-.69 0-.436.422-.69 1.047-.695q.234.003.464.035v-.105c0-.269-.183-.396-.531-.396a2.1 2.1 0 0 0-.688.105l-.13-.474c.292-.09.595-.134.9-.132.767 0 1.147.343 1.147.936v1.222c-.214.093-.615.194-1.136.194m.438-.497v-.47a2 2 0 0 0-.37-.036c-.24 0-.427.08-.427.286 0 .185.156.281.432.281a1 1 0 0 0 .365-.061m1.204.444v-2.106c.38-.128.777-.193 1.177-.193.76 0 1.198.316 1.198.9v1.399h-.719v-1.354c0-.303-.167-.444-.484-.444a1.3 1.3 0 0 0-.459.079v1.719zm4.886-2.167-.135.479a1.8 1.8 0 0 0-.588-.11c-.422 0-.652.25-.652.664 0 .453.24.685.688.685.2-.004.397-.043.578-.114l.115.488c-.24.09-.494.133-.75.128-.865 0-1.365-.453-1.365-1.17 0-.712.495-1.182 1.323-1.182.27-.001.537.043.786.132m1.553 2.22c-.802 0-1.302-.47-1.302-1.178 0-.704.5-1.174 1.302-1.174.807 0 1.297.47 1.297 1.173 0 .708-.49 1.179-1.297 1.179m0-.502c.37 0 .563-.259.563-.677 0-.413-.193-.672-.563-.672-.364 0-.568.26-.568.672 0 .418.204.677.568.677m1.713.449v-2.106c.38-.128.777-.193 1.177-.193.76 0 1.198.316 1.198.9v1.399h-.719v-1.354c0-.303-.166-.444-.484-.444a1.3 1.3 0 0 0-.459.079v1.719zm3.996.053c-.62 0-.938-.286-.938-.866v-.95h-.354v-.484h.355v-.488l.718-.03v.518h.578v.484h-.578v.94c0 .256.125.374.36.374q.14 0 .276-.026l.036.488q-.223.042-.453.04m1.814 0c-.713 0-1.073-.295-1.073-.69 0-.436.422-.69 1.047-.695q.233.003.464.035v-.105c0-.269-.183-.396-.532-.396a2.1 2.1 0 0 0-.687.105l-.13-.474c.292-.09.595-.134.9-.132.766 0 1.146.343 1.146.936v1.222c-.213.093-.614.194-1.135.194m.438-.497v-.47a2 2 0 0 0-.37-.036c-.24 0-.427.08-.427.286 0 .185.156.281.432.281a.95.95 0 0 0 .365-.061m3.157-1.723-.136.479a1.8 1.8 0 0 0-.588-.11c-.422 0-.651.25-.651.664 0 .453.24.685.687.685.2-.004.397-.043.578-.114l.115.488c-.24.09-.494.133-.75.128-.865 0-1.365-.453-1.365-1.17 0-.712.495-1.182 1.323-1.182.27-.001.538.043.787.132m1.58 2.22c-.62 0-.938-.286-.938-.866v-.95h-.354v-.484h.354v-.488l.72-.03v.518h.577v.484h-.578v.94c0 .256.125.374.36.374q.139 0 .276-.026l.036.488q-.224.042-.453.04"/><path fill="url(#pi-bancontact-linear-gradient-a)" d="M11.394 13.946c3.803 0 5.705-2.14 7.606-4.28H6.38v4.28z"/><path fill="url(#pi-bancontact-linear-gradient-b)" d="M26.607 5.385c-3.804 0-5.705 2.14-7.607 4.28h12.62v-4.28z"/><defs><linearGradient id="pi-bancontact-linear-gradient-a" x1="8.933" x2="17.734" y1="12.003" y2="8.13" gradientUnits="userSpaceOnUse"><stop stop-color="#005AB9"/><stop offset="1" stop-color="#1E3764"/></linearGradient><linearGradient id="pi-bancontact-linear-gradient-b" x1="19.764" x2="29.171" y1="10.037" y2="6.235" gradientUnits="userSpaceOnUse"><stop stop-color="#FBA900"/><stop offset="1" stop-color="#FFD800"/></linearGradient></defs></svg>