<svg width="38" height="24" viewBox="0 0 38 24" fill="none" xmlns="http://www.w3.org/2000/svg"><g clip-path="url(#clip0_10213_23)"><mask id="mask0_10213_23" style="mask-type:luminance" maskUnits="userSpaceOnUse" x="0" y="0" width="38" height="24"><path d="M38 0H0v24h38V0z" fill="#fff"/></mask><g mask="url(#mask0_10213_23)" stroke="#000"><path d="M36 0H2a2 2 0 00-2 2v20a2 2 0 002 2h34a2 2 0 002-2V2a2 2 0 00-2-2z" fill="#fff" stroke-opacity=".07"/><path fill-rule="evenodd" clip-rule="evenodd" d="M24.685 16.515a71.279 71.279 0 00-7.165 2.155c-.337.127-.702-.038-.791-.361-.19-.689-.358-1.218-.546-1.904a.602.602 0 01.389-.71c2.356-.804 4.735-1.436 7.168-1.96.268-.055.55.143.647.445.197.615.368 1.11.56 1.727.086.28-.029.552-.262.608zM12.491 15.2c-.144-.74-.289-1.296-.43-2.035-.055-.289.102-.617.365-.74 3.598-1.581 7.393-2.538 11.29-3.031.257-.033.517.156.612.44.206.608.381 1.1.58 1.712.097.295-.031.582-.283.623-3.963.63-7.826 1.689-11.48 3.351-.294.142-.592-.003-.654-.32zm1.752-8.415c2.41-.693 4.816-1.144 7.305-1.448a.622.622 0 01.635.413c.232.63.42 1.132.646 1.766.107.3-.052.6-.344.64-2.548.374-5.017.889-7.48 1.641-.3.1-.595-.052-.671-.344-.18-.691-.342-1.223-.518-1.912a.647.647 0 01.427-.756zM19 1C12.925 1 8 5.925 8 12s4.925 11 11 11 11-4.925 11-11S25.075 1 19 1z" fill="#2C2A29" stroke-opacity=".01" stroke-width=".1"/></g></g><defs><clipPath id="clip0_10213_23"><path fill="#fff" d="M0 0h38v24H0z"/></clipPath></defs></svg>