<svg xmlns="http://www.w3.org/2000/svg" width="38" height="24" fill="none" aria-labelledby="pi-bancomat" role="img" viewBox="0 0 38 24"><title id="pi-bancomat">Bancomat</title><path fill="#fff" d="M0 0h38v24H0z"/><path fill="#002D73" d="m26.683 11.239-6.927-6.925a1.083 1.083 0 0 0-1.526 0l-6.913 6.925a1.07 1.07 0 0 0 0 1.522l6.918 6.925a1.084 1.084 0 0 0 1.525 0l6.923-6.925a1.073 1.073 0 0 0 0-1.522m-4.721 2.42c-.179 1.451-1.23 2.151-2.948 2.151h-3.478l.202-1.616h3.436c.44 0 .68-.268.736-.738a1 1 0 0 0 0-.145h2.08c0 .098-.028.225-.043.347zm1.407-.94h-7.48l.178-1.457h3.355c.47 0 .643-.343.695-.751.052-.409 0-.667-.526-.667h-3.35l.201-1.678h3.426c1.953 0 2.478.832 2.347 1.974-.035.4-.165.784-.38 1.122h.202a1.3 1.3 0 0 1 1.295 1.48z"/></svg>