<svg xmlns="http://www.w3.org/2000/svg" width="38" height="24" aria-labelledby="pi-bancoripley"><g clip-path="url(#clip0_3326_8134)"><path d="M35 0H3C1.3 0 0 1.3 0 3v18c0 1.7 1.4 3 3 3h32c1.7 0 3-1.3 3-3V3c0-1.7-1.4-3-3-3Z" opacity=".07"/><path fill="#582982" d="M35 1c1.1 0 2 .9 2 2v18c0 1.1-.9 2-2 2H3c-1.1 0-2-.9-2-2V3c0-1.1.9-2 2-2h32Z"/><path fill="#fff" fill-rule="evenodd" d="M10.105 12.97c-.088 0-.172.01-.252.029-.08.02-.15.037-.206.053-.072.03-.14.061-.202.092v3.147c0 .02-.014.035-.033.036H8.47a.035.035 0 0 1-.034-.036v-3.853c.153-.074.31-.137.473-.188.168-.052.339-.094.511-.127a3.26 3.26 0 0 1 .607-.053c.19 0 .366.016.524.05a3.043 3.043 0 0 1 .769.264.038.038 0 0 1 .017.043l-.25.794c-.006.023-.03.032-.049.02a1.93 1.93 0 0 0-.228-.123 2.222 2.222 0 0 0-.314-.103 1.6 1.6 0 0 0-.392-.045ZM11.88 12.234h.941c.02 0 .034.016.034.036v4.021a.034.034 0 0 1-.033.036h-.926a.051.051 0 0 1-.05-.052V12.27c0-.02.015-.036.035-.036Zm-.15-1.187c0-.164.06-.307.178-.43a.59.59 0 0 1 .443-.184c.175 0 .323.062.442.184.12.123.18.267.18.43 0 .164-.06.307-.18.43a.592.592 0 0 1-.441.184.59.59 0 0 1-.444-.184.598.598 0 0 1-.178-.43ZM15.475 12.95c-.089 0-.177.008-.265.02l-.233.038a10.5 10.5 0 0 0-.24.065v2.374c.077.022.158.04.24.057a1.875 1.875 0 0 0 .498.066c.173.002.346-.03.508-.094.152-.063.283-.151.392-.266a1.19 1.19 0 0 0 .252-.414c.061-.172.091-.353.09-.536 0-.197-.031-.375-.09-.536a1.132 1.132 0 0 0-.644-.68 1.324 1.324 0 0 0-.508-.094Zm-.773 4.912h-.94a.036.036 0 0 1-.035-.036v-5.383c0-.015.01-.028.022-.034.169-.069.34-.128.514-.18.188-.05.379-.093.571-.126.204-.035.417-.053.64-.053.342 0 .652.057.932.172.278.115.52.271.722.47.202.201.362.44.47.704.11.27.166.559.166.864.002.296-.055.59-.167.864a2.118 2.118 0 0 1-1.191 1.175c-.28.115-.59.172-.931.172-.089 0-.177-.007-.265-.021l-.233-.036-.24-.066v1.478c0 .02-.015.036-.034.036M18.529 16.328a.035.035 0 0 1-.034-.035v-4.835l-.003-.823c0-.02.016-.037.035-.037h.943c.02 0 .035.016.035.037v5.657c0 .02-.016.035-.035.036M23.175 13.892a1.2 1.2 0 0 0-.325-.671.866.866 0 0 0-.645-.27.88.88 0 0 0-.648.27c-.178.18-.288.403-.33.671h1.948Zm.569.86h-2.517c.084.225.226.424.412.576.191.162.47.242.837.242a1.629 1.629 0 0 0 .738-.164c.09-.042.17-.09.24-.14a.033.033 0 0 1 .047.007l.003.005.356.673a.038.038 0 0 1-.01.047 2.138 2.138 0 0 1-.38.227c-.15.072-.308.13-.47.172a2.297 2.297 0 0 1-.6.074c-.342 0-.652-.057-.928-.168a2.015 2.015 0 0 1-1.164-1.162 2.376 2.376 0 0 1-.16-.88c0-.328.05-.627.152-.897.094-.26.24-.497.426-.7.183-.196.406-.351.653-.455.25-.106.526-.16.826-.16.3 0 .576.054.827.16.251.106.468.258.652.455.187.203.332.44.427.7.1.266.15.559.151.88a.04.04 0 0 1-.011.027l-.483.47a.033.033 0 0 1-.024.01ZM28.771 15.974a1.753 1.753 0 0 1-.582 1.31 2.159 2.159 0 0 1-.695.418 2.613 2.613 0 0 1-.935.155c-.232 0-.442-.026-.629-.078-.162-.043-.32-.1-.473-.168a2.06 2.06 0 0 1-.412-.245l.372-.705a.032.032 0 0 1 .042-.015l.004.002c.086.052.182.101.289.145.104.044.223.082.357.115.134.032.284.049.45.049.264 0 .475-.046.633-.14a1.156 1.156 0 0 0 .57-.761v-.082a5.701 5.701 0 0 1-.853.082c-.332 0-.624-.047-.877-.14a1.879 1.879 0 0 1-.645-.384 1.614 1.614 0 0 1-.4-.581 1.963 1.963 0 0 1-.135-.737v-2.133c0-.02.015-.037.034-.037h.94c.02 0 .035.017.035.037v2.133a.9.9 0 0 0 .275.671c.184.18.441.27.772.27.109 0 .213-.006.314-.02a4.388 4.388 0 0 0 .54-.102V12.08c0-.02.015-.037.034-.037h.942c.018 0 .033.017.033.037v3.893Z" clip-rule="evenodd"/><path fill="#D73941" d="M28.739 19.439H8.437V21H28.74V19.44Z"/><path fill="#E7A457" d="M28.738 19.439h-9.89V21h9.89V19.44Z"/><path fill="#794887" d="M28.74 19.439h-7.288V21h7.288V19.44Z"/><path fill="#fff" fill-rule="evenodd" d="M9.746 7.994c.174.002.347-.03.508-.095a1.12 1.12 0 0 0 .645-.68c.06-.16.089-.34.089-.536a1.552 1.552 0 0 0-.09-.536 1.125 1.125 0 0 0-.644-.68 1.337 1.337 0 0 0-.508-.093c-.088 0-.177.007-.264.02-.088.015-.166.027-.233.037l-.24.066V7.87c.078.021.158.04.24.057.073.022.152.038.237.049.085.011.172.017.26.017Zm-.737-3.398.24-.066c.073-.016.152-.03.237-.04a2.429 2.429 0 0 1 1.192.156A2.11 2.11 0 0 1 11.87 5.82c.112.27.168.558.168.863.001.297-.055.59-.168.865a2.105 2.105 0 0 1-.47.703 2.198 2.198 0 0 1-.72.47c-.28.116-.591.173-.933.173-.222 0-.438-.02-.648-.057a5.32 5.32 0 0 1-.562-.132A4.053 4.053 0 0 1 8 8.525v-5.49c0-.02.015-.035.034-.035h.94c.02 0 .035.016.034.035v1.561ZM24.954 8.397a.038.038 0 0 1-.008.046 2.06 2.06 0 0 1-.365.227c-.147.07-.3.128-.458.171-.17.05-.368.074-.59.074-.342 0-.652-.057-.932-.172a2.114 2.114 0 0 1-1.191-1.174 2.232 2.232 0 0 1-.167-.864c-.002-.296.055-.59.167-.864a2.108 2.108 0 0 1 1.191-1.174c.28-.115.59-.173.932-.173.194-.002.387.022.574.07.172.046.319.097.443.152.129.066.247.135.354.21.015.012.02.032.011.048l-.355.674a.032.032 0 0 1-.043.015l-.005-.002a1.88 1.88 0 0 0-.226-.127 1.889 1.889 0 0 0-.299-.098 1.55 1.55 0 0 0-.376-.04c-.187 0-.36.035-.52.106a1.309 1.309 0 0 0-.8 1.203c.002.344.139.673.38.917.12.12.26.215.42.287.164.07.341.107.52.106a1.54 1.54 0 0 0 .707-.164c.085-.042.162-.09.232-.14a.033.033 0 0 1 .05.012l.355.674ZM28.304 6.705c0-.197-.03-.375-.09-.536a1.308 1.308 0 0 0-.24-.414 1.055 1.055 0 0 0-1.234-.265 1.057 1.057 0 0 0-.357.265 1.305 1.305 0 0 0-.24.414 1.529 1.529 0 0 0-.09.536c0 .196.03.375.09.536.053.152.135.292.24.413.2.23.49.362.795.36a1.049 1.049 0 0 0 .796-.359c.1-.115.181-.253.24-.414.06-.16.09-.34.09-.536Zm-3.3 0a2.252 2.252 0 0 1 .626-1.568 2.141 2.141 0 0 1 1.548-.643 2.162 2.162 0 0 1 1.557.643c.196.203.35.442.454.704.11.275.165.568.163.864.002.296-.054.59-.163.864-.104.262-.258.5-.454.704-.197.2-.432.36-.691.47a2.175 2.175 0 0 1-.865.172 2.132 2.132 0 0 1-2.007-1.346 2.246 2.246 0 0 1-.167-.864ZM16.813 8.676v-3.76c0-.032.019-.06.047-.07.18-.066.364-.123.55-.172.192-.049.394-.09.609-.126.217-.036.436-.053.656-.054.33 0 .624.047.88.14.257.093.47.22.645.384.172.163.307.362.395.581.092.235.138.484.136.736v2.34a.071.071 0 0 1-.07.074h-.87a.072.072 0 0 1-.07-.073v-2.34a.9.9 0 0 0-.274-.671c-.184-.18-.441-.27-.772-.27-.109 0-.213.01-.315.028-.093.019-.186.037-.28.054a7.13 7.13 0 0 0-.212.074.072.072 0 0 0-.047.069v3.056a.072.072 0 0 1-.07.074h-.87a.072.072 0 0 1-.069-.074M15.153 7.864a5.265 5.265 0 0 1-.555.103c-.112.014-.225.02-.338.02-.332 0-.563-.053-.695-.16-.132-.106-.198-.23-.198-.372s.066-.266.198-.373c.132-.106.364-.16.695-.16.12 0 .23.004.334.013.103.008.2.018.287.028.098.012.188.025.272.041v.86Zm1.009-1.597c0-.556-.16-.995-.482-1.317-.32-.322-.794-.483-1.42-.483a2.584 2.584 0 0 0-1.087.221c-.127.059-.248.13-.362.21-.016.011-.019.031-.011.048l.357.676c.01.018.03.024.046.015.09-.05.184-.094.28-.13.1-.033.214-.064.346-.095.142-.03.286-.046.431-.045.31 0 .537.066.68.197.142.13.213.31.213.54a3.241 3.241 0 0 0-.257-.041 5.233 5.233 0 0 0-.636-.04 3.06 3.06 0 0 0-.877.11 1.802 1.802 0 0 0-.602.298 1.146 1.146 0 0 0-.349.45 1.428 1.428 0 0 0-.113.574c0 .201.038.392.113.568.075.179.19.33.35.455.157.126.358.225.6.299.244.074.537.11.878.11.254 0 .491-.013.714-.04.19-.023.378-.053.566-.09l.622-.581V6.267Z" clip-rule="evenodd"/></g></svg>