<svg
    xmlns="http://www.w3.org/2000/svg" width="38" height="24" role="img" viewBox="0 0 38 24" aria-labelledby="pi-bancobrasil">
    <title id="pi-bancobrasil">Banco Do Brasil</title>
    <style>.st2{fill-rule:evenodd;clip-rule:evenodd;fill:#263675}</style>
    <path d="M35 0H3C1.3 0 0 1.3 0 3v18c0 1.7 1.4 3 3 3h32c1.7 0 3-1.3 3-3V3c0-1.7-1.4-3-3-3z" opacity=".07"/>
    <path d="M35 1c1.1 0 2 .9 2 2v18c0 1.1-.9 2-2 2H3c-1.1 0-2-.9-2-2V3c0-1.1.9-2 2-2h32" fill="#fff"/>
    <path class="st2" d="M21.1 7.5l.7.5.7-.5v-.9zM15.3 13.8l1.4-1-.7-.5-.7.5zM19.3 11.5l1.7-1.1 1.4.9-3.5 2.4-3.6-2.4 4.3-2.8.7.5-3.4 2.3 2.1 1.4 1-.6z"/>
    <path class="st2" d="M17.5 11.3l.7.5 4.2-2.9-3.5-2.4-3.6 2.4 1.4 1 1.8-1.2-.7-.5 1-.7L20.9 9zM15.4 16.3v-.5c0-.1.1-.2.1-.2.1-.1.1-.1.2-.1h.6c.1 0 .2.1.2.1.1.1.1.1.1.2v1.4c0 .1-.1.2-.1.2-.1.1-.1.1-.2.1h-.6c-.1 0-.1-.1-.2-.1-.1-.1-.1-.1-.1-.2v-.9zm.9.4v-.5-.3c0-.1-.1-.1-.2-.1s-.1 0-.2.1V17c0 .1.1.1.2.1s.1 0 .2-.1c-.1 0 0-.1 0-.3zm-2.6-.4v-.5c0-.1.1-.2.1-.2.1-.1.1-.1.2-.1h.3c.2 0 .3.1.5.2.1.1.2.2.2.4v.1h-.4c0-.1 0-.2-.1-.2 0 0-.1-.1-.2-.1s-.1 0-.2.1v1.1c0 .1.1.1.2.1s.1 0 .2-.1c0-.1.1-.1.1-.3h.4v.1c0 .2-.1.3-.2.4-.1.1-.3.2-.5.2H14c-.1 0-.1-.1-.2-.1-.1-.1-.1-.1-.1-.2v-.9zm-1.9 1.2v-2h.4l.6 1.2v-1.2h.4v2h-.3l-.7-1.4v1.4h-.4zm-.7 0l-.1-.4h-.6l-.1.4h-.4l.5-2h.5l.5 2h-.3zm-.6-.8h.4l-.2-.9-.2.9zM8.1 17.5v-2.6H9c.3 0 .5.1.7.2.1.1.2.3.2.5 0 .1 0 .3-.1.4-.1.1-.2.2-.3.2.1 0 .2.1.3.2.1.1.1.2.1.4 0 .3-.1.4-.2.6-.1.1-.4.2-.7.2h-.9zm.6-1.2v.7H9c.1 0 .2 0 .3-.1.1-.1.1-.2.1-.3 0-.1 0-.2-.1-.3-.1-.1-.2-.1-.3-.1h-.3zm0-1.1v.6h.2c.1 0 .2 0 .3-.1.1-.1.1-.1.1-.2s0-.2-.1-.2c-.1-.1-.1-.1-.3-.1h-.2zM28.8 17.4v-2h.4V17h.8v.4h-1.2zm-.9 0v-2h.4v2h-.4zm-1.8 0l-.1-.3s.9 0 1.1-.1l.1-.1v-.1l-.1-.1H27c-.2-.1-.3-.1-.3-.2-.1-.1-.1-.1-.1-.2v-.2c0-.2.1-.3.2-.4.1-.1.2-.2.4-.2.1 0 .2 0 .3.1.1.1.2.1.2.3l-.3.2c0-.1-.1-.1-.1-.2-.1 0-.1-.1-.2-.1H27l-.1.1v.1s.1.1.2.1c0 0 .1 0 .1.1.2.1.3.1.3.2.1.1.1.1.1.2v.3c0 .2-.1.3-.2.4-.3.1-1 0-1.3.1zm-.4 0l-.1-.4h-.5l-.1.4h-.4l.5-2h.5l.5 2h-.4zm-.6-.8h.4l-.2-.9-.2.9zm-2-1.2h.8c.1 0 .1 0 .2.1.1 0 .1.1.2.2 0 .1.1.2.1.3 0 .1 0 .2-.1.3-.1.1-.1.2-.2.2l.4.8H24l-.3-.8h-.1v.8h-.4v-1.9zm.4.3v.5h.1c.1 0 .2 0 .3-.1 0 0 .1-.1.1-.2s0-.2-.1-.2c0 0-.1-.1-.3-.1h-.1zM19.2 16.2v-.5c0-.1.1-.2.1-.2.1-.1.1-.1.2-.1h.6c.1 0 .2.1.2.1.1.1.1.1.1.2v1.4c0 .1-.1.2-.1.2-.1.1-.1.1-.2.1h-.6c-.1 0-.2-.1-.2-.1-.1-.1-.1-.1-.1-.2v-.9zm.9.5v-.5-.3c0-.1-.1-.1-.2-.1s-.1 0-.2.1V17c0 .1.1.1.2.1s.1 0 .2-.1v-.3zm-2.8-1.3h1c.1 0 .1 0 .2.1l.2.2c0 .1.1.2.1.4v.6c0 .1 0 .3-.1.4 0 .1-.1.2-.2.2s-.1.1-.2.1h-1v-2zm.5 1.6h.1c.1 0 .3 0 .3-.1.1-.1.1-.2.1-.3v-.4c0-.1 0-.3-.1-.3-.1-.1-.2-.1-.3-.1h-.1V17zM21.1 17.4v-2.6h.9c.3 0 .5.1.7.2.1.1.2.3.2.5 0 .1 0 .3-.1.4-.1.1-.2.2-.3.2.1 0 .2.1.3.2.1.1.1.2.1.4 0 .3-.1.4-.2.6-.1.1-.4.2-.7.2h-.9zm.6-1.1v.7h.3c.1 0 .2 0 .3-.1.1-.1.1-.2.1-.3 0-.1 0-.2-.1-.3-.1-.1-.2-.1-.3-.1h-.3zm0-1.1v.6h.2c.1 0 .2 0 .3-.1.1-.1.1-.1.1-.2s0-.2-.1-.2c-.1-.1-.1-.1-.3-.1h-.2z"/>
</svg>