<svg xmlns="http://www.w3.org/2000/svg" role="img" viewBox="0 0 38 24" width="38" height="24" aria-labelledby="pi-bancontact"><title id="pi-bancontact">Bancontact</title><path fill="#fff" d="M38.012 21.89c0 1.133-1.04 2.06-2.309 2.06H2.32c-1.27 0-2.308-.927-2.308-2.06V2.06C.012.926 1.05 0 2.32 0h33.383c1.27 0 2.309.926 2.309 2.059zm0 0"/><path fill="#005498" d="M30.54 6.691h-9.126l-.934.934-3.007 3.023-.934.938H7.543l.906-.945.434-.45.91-.945h-4.14c-.758 0-1.376.57-1.376 1.258v2.66c0 .695.618 1.258 1.375 1.258h15.88c.757 0 1.792-.418 2.292-.938l2.403-2.43zm0 0"/><path fill="#ffd800" d="M32.371 3.855c.758 0 1.375.57 1.375 1.258v2.649c0 .695-.617 1.258-1.375 1.258h-4.129l.922-.938.453-.465.922-.937h-9.125l-4.863 4.883H7.496l6.492-6.543.246-.25c.512-.512 1.547-.938 2.305-.938h15.832zm0 0"/><path fill="#005498" d="M33.746 19.988v-.383c0-.05-.035-.082-.117-.082h-.281c-.082 0-.137-.011-.149-.043-.023-.03-.023-.093-.023-.199v-1.453h.453a.119.119 0 0 0 .082-.031.089.089 0 0 0 .035-.07v-.407a.09.09 0 0 0-.035-.074.119.119 0 0 0-.082-.031h-.453v-.527c0-.032-.012-.055-.024-.063-.023-.012-.047-.023-.07-.023h-.012l-.675.105c-.036.012-.06.02-.083.031-.023.02-.035.04-.035.063v.406h-.457a.1.1 0 0 0-.078.031c-.023.02-.035.04-.035.07v.333c0 .03.012.054.035.062.024.024.047.031.078.043l.457.063v1.453c0 .175.024.324.059.437a.682.682 0 0 0 .176.258.61.61 0 0 0 .289.125c.117.023.258.031.41.031.078 0 .148 0 .219-.008.058-.011.14-.023.222-.03.059 0 .094-.032.094-.087m-2.426-.05v-.446c0-.031-.011-.055-.035-.062a.167.167 0 0 0-.07-.024h-.012c-.105.012-.207.024-.3.024-.094.008-.223.008-.387.008a.427.427 0 0 1-.176-.032.433.433 0 0 1-.149-.093c-.046-.04-.07-.102-.093-.176a.915.915 0 0 1-.035-.282v-.414a.95.95 0 0 1 .035-.28.572.572 0 0 1 .093-.177.433.433 0 0 1 .149-.093.556.556 0 0 1 .176-.032c.164 0 .293 0 .386.012.094.008.196.008.301.02h.012a.126.126 0 0 0 .07-.02c.024-.012.035-.031.035-.062v-.45c0-.039-.011-.062-.023-.07-.024-.012-.047-.031-.094-.043-.082-.02-.172-.031-.3-.05-.13-.02-.27-.02-.446-.02-.395 0-.71.101-.953.32-.234.219-.363.531-.363.945v.414c0 .407.117.73.363.946.23.219.558.324.953.324.164 0 .316-.012.445-.02.13-.023.23-.03.301-.054a.174.174 0 0 0 .094-.04c.023-.011.023-.042.023-.073m-3.648-.532a1.24 1.24 0 0 1-.465.106.614.614 0 0 1-.27-.043c-.058-.032-.082-.094-.082-.207v-.04a.55.55 0 0 1 .024-.156.268.268 0 0 1 .082-.117.339.339 0 0 1 .152-.062c.059-.008.14-.02.246-.02h.313zm.887-1.215c0-.187-.036-.343-.094-.464a.873.873 0 0 0-.258-.313.896.896 0 0 0-.406-.176 2.19 2.19 0 0 0-.547-.062 4.22 4.22 0 0 0-.55.031c-.173.02-.313.04-.419.07-.07.02-.105.051-.105.114v.406c0 .031.011.05.023.074.024.008.047.02.07.02h.024c.047 0 .105-.012.164-.012.07 0 .14-.008.219-.008.082 0 .175-.012.27-.012h.269c.129 0 .23.02.3.063.07.043.118.137.118.281v.176h-.301c-.48 0-.84.062-1.05.2-.224.132-.329.35-.329.644v.039c0 .168.023.3.082.406a.793.793 0 0 0 .223.27.997.997 0 0 0 .304.144c.114.031.23.043.36.043.164 0 .316-.02.433-.063.114-.042.23-.093.348-.167v.085c0 .032.012.051.035.07.024.024.047.032.082.032h.63c.034 0 .058-.008.081-.031.024-.02.035-.04.035-.07v-1.79zm-2.997 1.797v-.383c0-.05-.035-.082-.117-.082h-.277c-.082 0-.14-.011-.152-.043-.024-.03-.024-.093-.024-.199v-1.453h.453a.119.119 0 0 0 .082-.031.089.089 0 0 0 .035-.07v-.407a.09.09 0 0 0-.035-.074.119.119 0 0 0-.082-.031h-.453v-.527c0-.032-.012-.055-.023-.063-.024-.012-.047-.023-.07-.023h-.012l-.676.105c-.035.012-.059.02-.082.031-.024.02-.035.04-.035.063v.406h-.465c-.035 0-.059.008-.082.031-.024.02-.035.04-.035.07v.333c0 .03.011.054.035.062a.183.183 0 0 0 .082.043l.453.063v1.453c0 .175.023.324.059.437a.682.682 0 0 0 .175.258.628.628 0 0 0 .29.125c.117.023.257.031.41.031.082 0 .152 0 .218-.008.059-.011.141-.023.223-.03.07 0 .105-.032.105-.087m-2.449-.008v-1.664c0-.156-.011-.3-.047-.445a.915.915 0 0 0-.148-.363.676.676 0 0 0-.305-.242 1.205 1.205 0 0 0-.5-.09c-.175 0-.34.02-.48.062-.137.04-.278.102-.442.207v-.125a.09.09 0 0 0-.035-.074.119.119 0 0 0-.082-.031h-.629a.119.119 0 0 0-.082.031.09.09 0 0 0-.035.074v2.66c0 .032.012.051.035.07.024.024.047.032.082.032h.676c.035 0 .059-.008.082-.031.024-.02.035-.04.035-.07v-1.965a2.82 2.82 0 0 1 .282-.114.708.708 0 0 1 .253-.043c.082 0 .153.012.211.02.059.012.094.043.13.074a.284.284 0 0 1 .058.145c.012.062.012.136.012.218v1.664c0 .032.011.051.035.07a.1.1 0 0 0 .078.032h.68a.095.095 0 0 0 .078-.031c.047-.02.058-.051.058-.07m-4.242-1.157c0 .406-.164.613-.5.613-.164 0-.293-.05-.375-.156-.082-.101-.125-.258-.125-.457v-.351c0-.207.043-.352.125-.457.082-.106.211-.157.375-.157.324 0 .5.207.5.614zm.91-.351c0-.2-.035-.383-.093-.54a1.105 1.105 0 0 0-.27-.406 1.174 1.174 0 0 0-.441-.261 1.882 1.882 0 0 0-.606-.09c-.234 0-.433.031-.605.09a1.223 1.223 0 0 0-.446.261c-.117.114-.207.25-.265.407-.059.156-.094.34-.094.539v.351c0 .2.035.387.094.543.058.156.148.29.265.403.117.117.27.199.446.261.172.063.37.094.605.094.234 0 .43-.031.606-.094a1.126 1.126 0 0 0 .71-.664c.06-.156.094-.344.094-.543zm-3.113 1.465v-.446c0-.031-.012-.055-.035-.062-.024-.012-.047-.024-.082-.024h-.012a2.74 2.74 0 0 1-.3.024 5.305 5.305 0 0 1-.387.008.397.397 0 0 1-.172-.032.413.413 0 0 1-.153-.093c-.047-.04-.07-.102-.093-.176a.914.914 0 0 1-.036-.282v-.414a.95.95 0 0 1 .036-.28.572.572 0 0 1 .093-.177.413.413 0 0 1 .153-.093.515.515 0 0 1 .172-.032c.164 0 .293 0 .386.012.094.008.2.008.301.02h.012c.035 0 .058-.012.082-.02.023-.012.035-.031.035-.062v-.45c0-.039-.012-.062-.023-.07-.024-.012-.047-.031-.094-.043-.082-.02-.172-.031-.301-.05-.129-.02-.27-.02-.445-.02-.395 0-.711.101-.953.32-.235.219-.364.531-.364.945v.414c0 .407.117.73.364.946.23.219.558.324.953.324.164 0 .316-.012.445-.02.129-.023.219-.03.3-.054a.174.174 0 0 0 .095-.04c.011-.011.023-.042.023-.073m-2.762.042v-1.664c0-.156-.011-.3-.047-.445a.92.92 0 0 0-.152-.363.687.687 0 0 0-.3-.242 1.212 1.212 0 0 0-.505-.09c-.172 0-.336.02-.476.062-.14.04-.281.102-.442.207v-.125a.09.09 0 0 0-.035-.074.119.119 0 0 0-.082-.031h-.629a.119.119 0 0 0-.082.031.09.09 0 0 0-.035.074v2.66c0 .032.012.051.035.07.024.024.047.032.082.032h.676c.035 0 .059-.008.082-.031.024-.02.035-.04.035-.07v-1.965a2.43 2.43 0 0 1 .278-.114.744.744 0 0 1 .257-.043c.082 0 .153.012.211.02.055.012.09.043.125.074a.284.284 0 0 1 .059.145c.012.062.012.136.012.218v1.664c0 .032.011.051.035.07.023.024.047.032.082.032h.676c.035 0 .058-.008.082-.031.047-.02.058-.051.058-.07m-4.336-.575a1.24 1.24 0 0 1-.465.106.614.614 0 0 1-.27-.043c-.058-.032-.081-.094-.081-.207v-.04a.55.55 0 0 1 .023-.156.268.268 0 0 1 .082-.117.339.339 0 0 1 .153-.062c.058-.008.136-.02.242-.02h.316zm.899-1.215c0-.187-.035-.343-.094-.464a.873.873 0 0 0-.258-.313.935.935 0 0 0-.406-.176 2.2 2.2 0 0 0-.55-.062c-.184 0-.372.008-.548.031-.175.02-.312.04-.418.07-.07.02-.105.051-.105.114v.406c0 .031.012.05.023.074.024.008.047.02.07.02h.024c.047 0 .105-.012.164-.012.066 0 .137-.008.23-.008.083 0 .176-.012.27-.012h.266a.6.6 0 0 1 .304.063c.07.043.118.137.118.281v.176h-.305c-.477 0-.84.062-1.047.2-.223.132-.328.35-.328.644v.039c0 .168.023.3.082.406a.793.793 0 0 0 .223.27c.093.062.187.113.3.144.118.031.235.043.364.043.164 0 .312-.02.43-.063.117-.042.234-.093.35-.167v.085c0 .032.013.051.036.07.024.024.047.032.082.032h.629c.035 0 .059-.008.082-.031.023-.02.035-.04.035-.07v-1.79zm-4.012.79c0 .136-.059.25-.164.324-.102.07-.313.113-.594.113H5.234v-.934h.63c.222 0 .382.04.464.133.082.094.129.2.129.313zm-.023-1.485a.72.72 0 0 1-.024.156.273.273 0 0 1-.094.125.639.639 0 0 1-.171.082c-.07.02-.165.032-.282.032h-.629v-.864H5.664c.293 0 .492.032.606.094a.322.322 0 0 1 .175.3zm.957 1.434a.713.713 0 0 0-.141-.446.879.879 0 0 0-.36-.293.77.77 0 0 0 .348-.289.84.84 0 0 0 .13-.437v-.094a.96.96 0 0 0-.13-.5.956.956 0 0 0-.36-.32 1.87 1.87 0 0 0-.562-.176 4.997 4.997 0 0 0-.722-.055h-.278c-.093 0-.187.012-.28.012-.095 0-.177.012-.259.02-.078.011-.136.011-.183.023-.106.02-.188.04-.235.094-.046.039-.07.125-.07.238v3.043c0 .113.024.188.07.238a.487.487 0 0 0 .235.094c.058.012.129.023.195.023.082.008.164.008.258.02s.187.012.281.012h.29c.245 0 .48-.024.687-.055.21-.031.398-.094.562-.176.16-.082.278-.195.383-.343.094-.145.14-.333.14-.551zm0 0"/></svg>