<svg xmlns="http://www.w3.org/2000/svg" xmlns:xlink="http://www.w3.org/1999/xlink"viewBox="0 0 38 24" role="img" aria-labelledby="pi-kasikorn" width="38" height="24"><title id="pi-bangkokbank">Bangkok Bank</title><path opacity=".1" d="M35 0H3a3 3 0 0 0-3 3v18a3 3 0 0 0 3 3h32a3 3 0 0 0 3-3V3a3 3 0 0 0-3-3z"/><path fill="#FFF" d="M35 1a2 2 0 0 1 2 2v18a2 2 0 0 1-2 2H3a2 2 0 0 1-2-2V3c0-1.1.9-2 2-2h32"/><defs><path id="a" d="M1.3 8h35.5v8H1.3z"/></defs><clipPath id="b"><use xlink:href="#a" overflow="visible"/></clipPath><path clip-path="url(#b)" fill="#1E4595" d="M7.6 11h.2s.2 0 .2-.2l-.2-.2h-.2m0-.3h.1l.2-.1c0-.2 0-.2-.2-.2h-.1v.3zm-.7 1.1v-.2l.1-.1V9.9 9.6h1.3l.2.5c0 .2-.1.3-.3.4.2 0 .3.2.3.4l-.1.4-.6.1H7zM9.4 10.8c-.1 0-.3 0-.3.2l.1.1h.2m0 .2l-.4.1c-.3 0-.4-.1-.4-.4 0-.2.2-.3.4-.4h.4v-.2l-.1-.1-.2.1v.1h-.4v-.3l.6-.2.4.1c.2.2.2.3.2.5v.8h-.4M18.7 11h.2c.2 0 .2 0 .2-.2 0-.1 0-.2-.2-.2h-.2m0-.3h.2l.2-.1c0-.2 0-.2-.2-.2h-.2v.3zm-.6 1.1v-.2-1.3V9.6h1.4l.2.5c0 .2-.1.3-.4.4.3 0 .4.2.4.4 0 .1 0 .3-.2.4l-.5.1h-1zM20.6 10.8c-.1 0-.4 0-.4.2l.2.1h.2m0 .2l-.4.1c-.3 0-.4-.1-.4-.4 0-.2.1-.3.4-.4h.3v-.2-.1l-.2.1v.1h-.5v-.3l.7-.2.4.1.1.5v.4l.1.2v.2h-.5v-.1zM10.6 10.2l.4-.2.3.1.1.3v.6l.1.2v.2H11v-.9c0-.1-.1-.2-.2-.1v1h-.6v-.2-.7-.4h.5"/><path clip-path="url(#b)" fill="#1E4595" d="M21.8 10.2l.4-.2.3.1V11l.2.2v.2H22v-.9c0-.1-.2-.2-.3-.1v.6l.1.2v.2h-.7v-.2l.1-.1v-.6-.4h.5M12.4 10.4h-.1c-.2 0-.2 0-.2.2v.3s0 .2.2.2h.1m.6-.9v1.2s0 .3-.2.4l-.5.1c-.2 0-.4 0-.6-.2v-.2h.4v.1h.2l.1-.2h-.3c-.4 0-.5-.2-.5-.5v-.3c0-.3 0-.6.4-.6l.4.1h.6v.1zM13.6 10.5l.2-.1V10h.6v.2l-.4.3.3.4c0 .1 0 .2.2.2v.2H14l-.4-.6v.2l.1.2v.2h-.6v-.2V10 9.6h.5M23.3 10.5l.2-.1V10h.6v.2l-.4.3.3.4c0 .1 0 .2.2.2v.2h-.5l-.4-.6v.2l.1.2v.2h-.6v-.2V10 9.6h.5M16.4 10.5l.2-.1.1-.3h.6v.1l-.2.1-.3.3.3.4.2.2v.2h-.5l-.3-.6V11.4H16v-.2V10 9.6h.5M15 11s0 .2.2.2l.1-.2v-.5l-.1-.2c-.2 0-.2.1-.2.2m.8.4l-.1.4-.5.1h-.5c-.2-.2-.2-.3-.2-.5v-.4l.1-.3.5-.2.5.1c.2.1.2.3.2.4v.4zM36.7 14.5l-.1.2h-1.2l-.2-.1V13v-.1H35v1.6c0 .1 0 .2-.2.2h-1.1l-.3-.1V13v-.1h-.2l-.1-.1v-.4H34v1.8h.2v-1.5c0-.1 0-.3.3-.3h1l.3.1v1.7h.1v-1.7l.2-.1h.5v2.1M32.9 14.6l-.1.1h-.5V13l-.2-.1H32c-.2 0-.1.2-.1.3v1.3l-.1.2h-1.3c-.1 0-.2 0-.2-.2V13l-.1-.1H30l-.1-.1v-.4h1v1.8h.3v-1.6c0-.1 0-.2.2-.2h1.2c.2 0 .3 0 .3.2v2M30 14.7h-1-.1v-2.3h.6v1.7l.1.2h.3v.4M28.6 14.5c0 .1 0 .2-.2.2h-1.6l-.2-.1v-.8-.1h.6v.5H28V13l-.1-.2h-.3-.2v-.4h1.1l.2.1v2"/><g clip-path="url(#b)"><defs><path id="c" d="M1.3 8.1h35.5V16H1.3z"/></defs><clipPath id="d"><use xlink:href="#c" overflow="visible"/></clipPath><path clip-path="url(#d)" fill="#1E4595" d="M26.3 14.6l-.2.1h-1v-.4h.4l.1-.2v-.4-.1h-1c-.2 0-.2 0-.3-.2v-.8c0-.2.1-.2.3-.2H26.3v.4H25.1V13.2h1.1l.1.2v1.3M26.3 16H25.7c-.1-.2 0-.5-.2-.5h-.4V15h1.2V16"/></g><path clip-path="url(#b)" fill="#1E4595" d="M24.1 14.7h-.6V13l-.2-.2h-.5v1.8h-.1-.6v-2.2-.1h1.7c.2 0 .3 0 .3.3v2M21.7 14.6l-.1.1H20.4v-.4h.5l.1-.2v-.3l-.1-.2h-1c-.1 0-.2 0-.2-.2v-.8c0-.1 0-.2.3-.2h1.7v.4l-.2.1h-1c-.1.1-.1.2 0 .2h1l.2.3v1.2M19.5 14.6l-.1.1h-.6V13l-.1-.1h-.5c-.1 0 0 0 0 .1l-.2.1h-.5v-.6c0-.2 0-.1.2-.1h1.6l.2.1v2.1M14.4 14.6l-.1.1h-.5V13l-.2-.1h-.4c-.2 0-.1 0-.1.1l-.1.1h-.5-.1v-.6c0-.2.1-.1.2-.1h1.6l.2.1v2.1M17.2 14.6v.1h-.6V13h-.1l-.1-.1h-1l-.1.1v1.2h.2v-.8c0-.1 0-.2.2-.2h.6v.4c-.1 0-.2 0-.1.2v.8l-.3.1h-1l-.2-.1v-2.1l.2-.1H17l.2.1v2.1"/><path clip-path="url(#b)" fill="#1E4595" d="M12.9 14.7h-1.2l-.1-.1v-.7h-.1-.1v.6c0 .2-.2.2-.2.2H10 10V14 13l-.3-.1h-.1v-.4-.1h.8c.1 0 .2 0 .2.2v.2a5376.6 5376.6 0 0 1 .3 1.4v-.8h.4l.3-.1v-.8-.1h.7v.9h.6c.1 0 .2 0 .2.2v1l-.1.2m-.4-.6V14h-.2v.3h.1"/><g clip-path="url(#b)"><defs><path id="e" d="M1.3 8.1h35.5V16H1.3z"/></defs><clipPath id="f"><use xlink:href="#e" overflow="visible"/></clipPath><path clip-path="url(#f)" fill="#1E4595" d="M9.3 14.5l-.1.2H7.3l-.3-.1v-.7h.6c.1 0 0 .3.2.3h.7l.1-.4v-.1H7.1a.3.3 0 0 1-.2-.2v-.9l.1-.2h2.2v.4L9 13a1593.4 1593.4 0 0 0-1.4 0v.2h1.4l.2.2v1.2M6.5 11.8a3 3 0 0 0-.3-.7L6 11 4 8h-.1l-2 2.8c-.2 0-.2.1-.3.2a3 3 0 0 0-.3.7V13c0 .3.4.6.7.9l.5.3a46.5 46.5 0 0 0 1.4 1l1.4-1 .5-.3c.3-.3.6-.6.7-1v-1m-3 2.4l-.3-.2-1-.7c-.5-.5-.4-1-.3-1.6H2l.4.5 1 1.2c.2.2 0 .5 0 .8m.5-1l-1.3-1.6-.2-.4.1-.4.1-.1L3.9 9A59.6 59.6 0 0 1 5.3 11v.8l-1.4 1.5m1.7.2l-1 .7-.3.2.1-.8 1-1.2.4-.6v.1c.2.5.2 1-.2 1.6"/></g></svg>