<svg width="38" height="24" viewBox="0 0 38 24" fill="none" xmlns="http://www.w3.org/2000/svg" role="img" aria-labelledby="pi-banked"><title id="pi-banked">Banked</title><path fill="#000" opacity=".07" d="M35 0H3C1.3 0 0 1.3 0 3v18c0 1.7 1.4 3 3 3h32c1.7 0 3-1.3 3-3V3c0-1.7-1.4-3-3-3z"/><path fill="#fff" d="M35 1c1.1 0 2 .9 2 2v18c0 1.1-.9 2-2 2H3c-1.1 0-2-.9-2-2V3c0-1.1.9-2 2-2h32"/><path fill-rule="evenodd" clip-rule="evenodd" d="M19 9.84a2.4 2.4 0 100-4.8 2.4 2.4 0 000 4.8zm0 9.36a2.4 2.4 0 100-4.8 2.4 2.4 0 000 4.8z" fill="#1D1D1D"/></svg>