<svg width="38" height="24" viewBox="0 0 38 24" aria-labelledby="pi-boost" xmlns="http://www.w3.org/2000/svg"> <title id="pi-banked">Banked</title><path d="M35 0H3C1.3 0 0 1.3 0 3v18c0 1.7 1.3 3 3 3h32c1.7 0 3-1.3 3-3V3c0-1.7-1.3-3-3-3z" opacity=".07"/><path d="M35 1c1.1 0 2 .9 2 2v18c0 1.1-.9 2-2 2H3c-1.1 0-2-.9-2-2V3c0-1.1.9-2 2-2h32" fill="#fff"/><path d="M5.702 12.554c0-.762-.43-1.336-1.004-1.578.377-.27.7-.664.7-1.256 0-.52-.198-.941-.52-1.237-.333-.314-.799-.466-1.498-.466H1.47a.444.444 0 0 0-.448.448v5.586c0 .242.197.449.439.449h2.008c1.435 0 2.233-.852 2.233-1.946zM4.51 9.738c0 .52-.26.906-1.04.906H1.917v-1.82h1.435c.78 0 1.157.35 1.157.914zm.269 2.825c0 .672-.476 1.13-1.292 1.13H1.918v-2.26h1.605c.852 0 1.256.43 1.256 1.13zM9.96 13.908v.17a.42.42 0 1 0 .843 0v-3.972a.421.421 0 1 0-.843 0v.134c-.305-.412-.77-.6-1.237-.6-1.139 0-2.009.986-2.009 2.457 0 1.48.879 2.447 2.018 2.447.52 0 .96-.233 1.228-.636zm-1.201-.08c-.7 0-1.21-.646-1.21-1.731 0-1.076.51-1.74 1.21-1.74.681 0 1.21.664 1.21 1.74 0 1.085-.529 1.73-1.21 1.73zM13.203 10.106a.42.42 0 1 0-.843 0v3.972a.421.421 0 1 0 .843 0V11.63c0-.224.045-.484.17-.681.216-.359.646-.547 1.032-.547.43 0 .717.206.825.51.054.153.072.422.072.638v2.528a.42.42 0 1 0 .843 0v-2.573c0-.422-.036-.834-.234-1.166-.296-.502-.842-.7-1.345-.7-.583 0-1.076.243-1.363.575zM21.138 10.447a.485.485 0 0 0 .17-.35.417.417 0 0 0-.413-.413.436.436 0 0 0-.304.135l-2.08 2.08V8.44a.42.42 0 1 0-.844 0v5.64a.42.42 0 1 0 .843 0v-1.113l.628-.6 1.56 1.99a.403.403 0 0 0 .323.162.417.417 0 0 0 .412-.413.489.489 0 0 0-.125-.305l-1.605-1.972zM26.081 11.962c0-1.506-.834-2.322-1.892-2.322-1.067 0-2.035.878-2.035 2.457 0 1.515.878 2.447 2.035 2.447.771 0 1.291-.34 1.587-.789a.542.542 0 0 0 .1-.278c0-.215-.135-.376-.35-.376-.144 0-.252.072-.341.197-.251.35-.547.53-1.014.53-.672 0-1.12-.593-1.183-1.427h2.69c.224 0 .403-.134.403-.439zm-.825-.278h-2.25c.062-.816.537-1.327 1.183-1.327.637 0 1.04.511 1.067 1.327zM29.057 14.544c.503 0 .924-.233 1.238-.61v.144a.42.42 0 1 0 .843 0v-5.64a.421.421 0 1 0-.843 0v1.776c-.278-.323-.682-.574-1.291-.574-1.121 0-1.955.995-1.955 2.448 0 1.48.879 2.456 2.008 2.456zm.036-4.187c.682 0 1.211.646 1.211 1.73 0 1.077-.529 1.74-1.21 1.74-.7 0-1.211-.663-1.211-1.74 0-1.084.511-1.73 1.21-1.73zM37.022 10.438a.802.802 0 0 0-1.606 0 .802.802 0 1 0 1.606 0zm0 3.308a.804.804 0 1 0-1.608-.006.804.804 0 0 0 1.608.006z" fill="#141414" style="stroke-width:.0825892"/></svg>
