<svg xmlns="http://www.w3.org/2000/svg" width="38" height="24" fill="none" aria-labelledby="pi-bbvacie" role="img" viewBox="0 0 38 24"><title id="pi-bbvacie">BBVA CIE</title><path fill="#fff" d="M0 0h38v24H0z"/><path fill="#004580" d="M10.44 11.77q.149.05.344.148.342.197.588.542.295.49.294 1.18 0 2.36-2.843 2.36H5.147q-.146 0-.147-.148V8.278q0-.147.147-.147H9.02q1.03.001 1.666.565.638.567.638 1.5 0 .54-.245.96c-.148.263-.37.477-.638.615zm-1.665 3.098q.832 0 1.225-.27.391-.27.392-.934 0-.664-.392-.934-.393-.27-1.225-.27H6.47q-.197 0-.197.147v2.115q0 .148.197.148h2.304v-.002zM6.47 9.262q-.148 0-.148.148v1.77q0 .148.148.148h2.254q1.275 0 1.275-1.033c0-1.033-.425-1.033-1.275-1.033zm11.912 2.509q.147.05.294.147.39.197.588.542.343.49.343 1.18 0 2.36-2.843 2.36h-3.677q-.147 0-.147-.148V8.278q0-.147.147-.147h3.873q.98.001 1.643.565.661.567.662 1.5 0 .54-.245.96c-.148.263-.37.477-.638.615m-4.02-2.509q-.148 0-.148.148v1.77q0 .148.148.148h2.304q1.274 0 1.274-1.033c0-1.033-.425-1.033-1.274-1.033zm2.353 5.606q.832 0 1.225-.27.391-.27.392-.934 0-.664-.392-.934-.393-.27-1.225-.27h-2.353q-.148 0-.148.147v2.115q0 .148.148.148h2.353zm9.902-6.639q.048-.098.098-.098h1.274q.048 0 .099.049.048.05 0 .098l-4.069 7.673a.17.17 0 0 1-.123.049.16.16 0 0 1-.122-.05l-4.069-7.672q-.05-.048-.024-.098.023-.049.122-.05h1.226q.098 0 .147.1l2.598 4.918q0 .05.098.049.098 0 .147-.05zm1.47 6.542q-.05.098-.147.098h-1.274q-.05 0-.074-.049a.2.2 0 0 1-.024-.098l4.069-7.673Q30.685 7 30.784 7q.097 0 .148.05L35 14.721a.2.2 0 0 1-.025.098q-.025.05-.073.05h-1.275q-.099 0-.147-.1l-2.55-4.918q-.048-.098-.146-.098-.1 0-.148.098l-2.547 4.919z"/></svg>