<svg
    xmlns="http://www.w3.org/2000/svg" width="38" height="24" role="img" viewBox="0 0 38 24" aria-labelledby="pi-bcp">
    <title id="pi-bcp">BCP</title>
    <style>.st2{fill-rule:evenodd;clip-rule:evenodd;fill:#262e61}</style>
    <path d="M35 0H3C1.3 0 0 1.3 0 3v18c0 1.7 1.4 3 3 3h32c1.7 0 3-1.3 3-3V3c0-1.7-1.4-3-3-3z" opacity=".07"/>
    <path d="M35 1c1.1 0 2 .9 2 2v18c0 1.1-.9 2-2 2H3c-1.1 0-2-.9-2-2V3c0-1.1.9-2 2-2h32" fill="#fff"/>
    <path class="st2" d="M20.8 14.6l.2-.8h.2c.9 0 1.3-.6 1.3-1 0-.5-.3-.7-1-.7-.3 0-.5 0-.8.1l-.6 2.5h.7v-.1zm.4-2.2h.2c.2 0 .4.1.4.3 0 .3-.2.5-.6.5H21l.2-.8zm-2.3 1.1c0 .4.2.6.6.6.2 0 .3 0 .6-.2l-.1.6c-.1.1-.3.1-.6.1-.6 0-1.1-.3-1.1-1.1s.5-1.5 1.4-1.5c.3 0 .6.1.8.2l-.2.4c-.2-.1-.4-.1-.5-.1-.6 0-.9.6-.9 1zm-2.2-.1h.2c.3 0 .5.1.5.3 0 .3-.3.4-.6.4h-.2l.1-.7zm1.3.4c0-.4-.3-.5-.5-.6.3 0 .6-.2.6-.6 0-.4-.4-.6-1-.6-.3 0-.5 0-.8.1l-.6 2.5h.7c1.3 0 1.6-.4 1.6-.8zm-1.1-1.4h.3c.2 0 .4.1.4.3 0 .2-.2.3-.5.3h-.2v-.6z"/>
    <path d="M22.9 12.7l.7.7-1.2 1.2.3.3 1.5-1.5-.9-.9-.4.2zm-8.8-.4l1.1 1.1-1.6 1.6.3.3 1.8-1.8-1.3-1.3-.3.1z" fill-rule="evenodd" clip-rule="evenodd" fill="#e44415"/>
    <path class="st2" d="M13.7 12.7l.7.7-1.2 1.2.3.3 1.5-1.5-1-.9-.3.2zm9.5-.4l1.1 1.1-1.6 1.6.3.3 1.8-1.8-1.3-1.3-.3.1zM15.4 9.2c-.2 0-.4.1-.5.2-.1.1-.2.3-.2.5 0 .3.2.5.5.5.1 0 .3 0 .4-.1l.1-.3c-.1.1-.2.1-.4.1-.1 0-.3-.1-.3-.3 0-.2.1-.5.4-.5.1 0 .2 0 .3.1l.1-.2c-.1.1-.3 0-.4 0zm11.3 1.3c-.2 0-.3 0-.4-.1-.1-.1-.1-.2-.1-.4s.1-.4.2-.6c.1-.1.3-.2.4-.2.2 0 .3 0 .4.1.1.1.1.2.1.3.1.4 0 .9-.6.9zm.2-1.1c-.3 0-.4.4-.4.5 0 .2.1.3.2.3s.1 0 .2-.1.2-.4.2-.5c0-.1-.1-.2-.2-.2zm-.6-.2H26l.1-.5h-.3l-.3 1.3v.1c0 .1 0 .3.3.3.1 0 .2 0 .3-.1l.1-.2c-.1 0-.1.1-.2.1s-.1-.1-.1-.1l.1-.6h.3v-.3zm-1-.4h.3l-.1.3h-.3l.1-.3zm-.1.4h.3l-.3 1.2h-.3l.3-1.2zm-13.8.2h-.3l.1-.4h.3c.2 0 .2.1.2.2.1.1-.1.2-.3.2zm-.2.8h-.3l.1-.5h.3c.2 0 .3.1.3.2.1.3-.2.3-.4.3zm.9-1c0-.2-.2-.4-.6-.4h-.6l-.4 1.6h.6c.6 0 .8-.3.8-.5 0-.1-.1-.3-.3-.3.3-.1.5-.2.5-.4zm2.4.1c-.1-.1-.2-.1-.3-.1-.2 0-.2.1-.3.1v-.1h-.3l-.3 1.2h.3l.2-.9c.1 0 .1-.1.3-.1.1 0 .2.1.2.2l-.2.8h.3l.2-.7c0-.1 0-.3-.1-.4zm1.7 1.2c-.2 0-.3 0-.4-.1-.1-.1-.1-.2-.1-.4s.1-.4.2-.6c.1-.1.3-.2.4-.2.2 0 .3 0 .4.1.1.1.1.2.1.3.1.4 0 .9-.6.9zm.2-1.1c-.3 0-.4.4-.3.5 0 .2.1.3.2.3s.1 0 .2-.1.2-.4.2-.5c-.1-.1-.2-.2-.3-.2zm1.2.6c0-.1 0-.5.5-.5h.1l-.2.7c-.1.1-.1.1-.2.1s-.2-.2-.2-.3zm1.1-1.2h-.3l-.1.4h-.1c-.2 0-.4.1-.6.2-.2.2-.3.4-.3.6 0 .3.2.5.5.5.1 0 .2-.1.3-.1v.1h.3l.3-1.7zm3.8.5s-.1-.1-.2-.1-.2.1-.2.1v-.1h-.3l-.3 1.2h.3l.2-.8c.1 0 .1-.1.2-.1s.1 0 .2.1l.1-.3zm1.5.7c0-.1 0-.5.5-.5h.1l-.2.7c-.1.1-.1.1-.2.1s-.2-.2-.2-.3zm1-1.2h-.3l-.1.4h-.1c-.2 0-.4.1-.6.2-.2.2-.3.4-.3.6 0 .3.2.5.5.5.1 0 .2-.1.3-.1v.1h.3l.3-1.7zm-1.4 0l-.3.4H23c.1-.1.2-.3.2-.4h.4zm-.6.6c.2 0 .2.1.2.2v.1h-.5c.1-.1.2-.3.3-.3zm.1-.2c.3 0 .5.2.5.4v.2h-.8v.1c0 .2.1.3.3.3.2 0 .3-.1.5-.1l-.1.3c-.2.1-.3.1-.5.1-.4 0-.5-.2-.5-.5 0-.2 0-.4.2-.6 0-.1.2-.2.4-.2zm-3.9.2c.2 0 .2.1.2.2v.1H19c0-.1.1-.3.2-.3zm.1-.2c.3 0 .5.2.5.4v.2H19v.1c0 .2.1.3.3.3.2 0 .3-.1.5-.1l-.1.3c-.2.1-.3.1-.5.1-.4 0-.5-.2-.5-.5 0-.2 0-.4.2-.6 0-.1.2-.2.4-.2zm-6.4.7s-.1 0 0 0c-.3 0-.3 0-.4.1l-.1.1c0 .1.1.1.2.1s.1 0 .2-.1l.1-.2zm.4-.3v.1l-.2.8h-.3v-.1s-.1.1-.3.1c-.2 0-.4-.1-.4-.3 0-.1 0-.2.2-.3.1-.1.2-.1.5-.1h.1v-.1-.1s-.1-.1-.2-.1-.2 0-.4.1v-.3c.2-.1.3-.1.4-.1.4 0 .6.1.6.4zm7.2.2c0 .2.2.4.4.4s.4-.1.5-.2l-.1.3c-.2.1-.3.1-.5.1-.5 0-.7-.4-.7-.7 0-.4.2-1 .9-1 .3 0 .5.1.6.2l-.1.3c0-.1-.2-.2-.4-.2-.3 0-.6.4-.6.8z"/>
</svg>