<svg xmlns="http://www.w3.org/2000/svg" width="38" height="24" viewBox="0 0 38 24" fill="none" role="img" aria-labelledby="pi-benefitpay"><title id="pi-benefitpay">Benefitpay</title><g clip-path="url(#pi-benefitpay-clip0_2217_36)"><path d="M35 .5H3A2.5 2.5 0 00.5 3v18A2.5 2.5 0 003 23.5h32a2.5 2.5 0 002.5-2.5V3A2.5 2.5 0 0035 .5z" stroke="#000" stroke-opacity=".07"/><rect x="1" y="1" width="36" height="22" rx="2" fill="#FDFDFD"/><path d="M5.168 6.408h1.966l.9.023v.046H8.2l.118.138-.047.091-.095.023-.023.092.094.183.095.023.047.069v.069l.095.045.119.115.07.046.12.252.07.23v.068h-.047v.069l.07.022-.023.046.024.07-.024.022.071.023.024.069-1.421.023h-.592l-.024.206-.142.596-.071.343-.237 1.123-.047.092-.024.16 2.724-.023.402-.068.38-.115.355-.183.236-.206.095-.138.142.046.024.23v.16h.166l.165.045.166.138.048.114.118.046.024.092.07.069-.023.137.047.069h.072l.094.023.024.114-.45.275-.166.092-.118.115-.45.252-.64.366-.45.252-.734-.022h-2.7l-.142.55-.26 1.191-.072.275-.047.23-.047.091-.308.183-1.255.71-.83.482h-.047l.119-.596.213-.962.284-1.307.213-1.008.166-.733.308-1.444.331-1.535.356-1.605.165-.779z" fill="#EE3940"/><path d="M5.192 6.385h5.234l.545.046.379.092.403.137.355.184.308.229.213.229.19.298.165.367.095.39.024.137v.504l-.071.412-.143.482-.165.366-.213.367-.214.275-.26.275-.308.206-.592.344-.048-.023.38-.23.236-.137-.023-.114-.119-.023-.047.023-.047-.138.023-.114-.07-.069v-.069l-.12-.023-.07-.137-.143-.115-.236-.046-.095-.022-.024-.161v-.137l-.023-.092-.119-.046-.047.092-.166.183-.237.16-.355.16-.474.115-.19.023H6.4v-.16l.071-.206.213-1.009.142-.641.119-.504.592-.023 1.397-.023v-.046L8.84 8.15l.023-.046-.023-.069.023-.023-.047-.022v-.07h.047l-.142-.412-.047-.068v-.07l-.119-.045-.118-.138-.047-.022-.048-.138-.118-.023-.095-.183.047-.115.071-.046.048-.045-.095-.092v-.046h-.166l-.094-.023-.806-.023-1.942-.023v-.023z" fill="#F3986D"/><path d="M12.179 12.115l.095.046.118.229.142.412.071.367v.504l-.095.527-.142.458-.189.413-.19.32-.236.322-.26.298-.38.366-.308.23-.473.274-.403.184-.474.16-.379.092-.426.069-.592.045H3.889l-.805-.023.095-.091.521-.298.426-.252.948-.55.663-.39.45-.252.118-.069 2.108-.023.45-.068.426-.138.356-.206.094-.046v-.046l.119-.114.166-.184.166-.275.118-.298.071-.343v-.344l-.047-.138v-.114l.118-.092.26-.137.948-.55.45-.253.071-.022z" fill="#EE3A40"/><path d="M7.94 8.265h1.492l.64.045.307.07.26.137.143.16.07.16.024.321-.07.367-.143.367-.166.252-.236.229-.332.183-.332.115-.355.069-.308.022h-2.51v-.16l.165-.733.119-.55.166-.78.07-.252.995-.022z" fill="#FEFEFE"/><path d="M4.34 10.236h.047v.435l-.024.183.024.069.024.32h.07l.048-.045.071.046v.046h.095l.07.068v-.045l.072.022.047.115.024.046.095.023.023-.069.095.069.024.023.07.091v.046h.096v.046l.118.046.047.092v.068l.095.138.071.229v.092h.047l-.023-.092.07.023.048.069-.047.023.024.045-.024.046.237.046.023.023.237.023v.023h-.213l-.095.39-.308 1.397-.07.275-.048.23-.047.091-.308.183-1.255.71-.83.482h-.047l.119-.596.213-.962.284-1.306.213-1.009.166-.733.308-1.444.024-.091zM8.65 15.483l.095.023-.19.046-.047.16.024.16v.024h.118l.166.114.095.092.047.023.024.183.094.115.024.114-.071.023-.024.207-.023.068-.024.092.024.115h.094l.024.068h.166v.07l.07.022v.046l-.26.069-.426.068-.592.046H3.889l-.805-.023.095-.091.521-.298.426-.252.948-.55.663-.39.45-.252.07-.046 2.204-.023.189-.023z" fill="#B72C64"/><path d="M14.5 11.702h1.018l.285.046.213.091.095.07v.045l.07.023.119.23.024.114v.298l-.119.229-.165.16-.119.023.024.046.284.137.166.16.095.207.023.138v.229l-.07.229-.143.183-.142.115-.284.137-.237.046-1.09.023-.07-.069v-2.887l.023-.023z" fill="#EE4A48"/><path d="M27.669 11.702l1.207.023.38.092.212.114.166.184.095.183.047.206v.32l-.118.299-.166.183-.166.138-.213.091-.237.046-.236.023h-.45v1.054h-.545l-.024-.023v-2.91l.048-.023z" fill="#ED3E43"/><path d="M30.771 12.39h.379l.308.091.142.115.142.206.071.183.024.138v1.535l-.047.023-.403-.023-.024-.023-.023-.183-.095.046-.26.16-.261.069h-.19l-.213-.069-.19-.137-.142-.207-.023-.091v-.321l.07-.183.12-.115.165-.137.284-.115.545-.115.119-.023-.024-.137-.095-.137-.118-.07h-.285l-.308.092-.094.046h-.142l-.142-.275.023-.091.427-.184.26-.069z" fill="#EE3F42"/><path d="M32.216 12.435h.497l.095.207.213.573.213.618.071.23.048.022.023-.229.214-.71.213-.665.023-.023.19-.023h.331l-.023.184-.213.573-.237.641-.285.825-.189.436-.166.206-.118.115-.142.091-.166.046h-.403l-.094-.023.023-.206.071-.206.356-.046.118-.092.142-.275-.024-.206-.379-.917-.307-.756-.142-.32v-.047l.047-.023z" fill="#EE3E42"/><path d="M22.553 12.435l.307.046.214.115.165.183.119.252.047.16v.413l-.07.023-1.517.023.048.275.142.275.142.16.284.138h.38l.283-.092.142-.069.072.023v.138l-.19.115-.26.091-.332.023-.213-.046-.284-.137-.19-.184-.166-.275-.07-.206-.025-.137v-.344l.072-.275.165-.298.19-.183.237-.138.142-.046.166-.023z" fill="#FB3132"/><path d="M17.721 12.458h.403l.236.092.119.092.166.252.095.252.023.16v.275l-.07.046h-1.54l.07.321.143.275.095.114.189.115.142.046h.379l.284-.092.166-.069.047.092-.07.115-.238.114-.307.07-.308-.024-.308-.114-.213-.184-.166-.252-.095-.229-.024-.138v-.458l.072-.229.142-.252.165-.183.26-.16.143-.047z" fill="#FB3031"/><path d="M14.737 13.192h.852l.38.091.141.092.143.183.023.07v.343l-.118.229-.19.16-.307.092-.285.023h-.64l-.023-.115v-.595l.024-.573zM14.713 11.908h.877l.26.07.142.114.095.183v.344l-.119.183-.165.115-.143.046-.165.022h-.758l-.024-.183v-.894z" fill="#FEFEFE"/><path d="M20.113 12.458h.426l.142.07.119.114v.046h.047l.119.297.023.253v1.42l-.094.023-.142-.023-.024-1.604-.095-.252-.095-.091-.118-.046h-.237l-.26.091-.26.184-.072.068-.024.07v1.58l-.023.023h-.19l-.024-.023v-2.154l.166-.023.024.023.047.298.285-.229.26-.115z" fill="#FC282C"/><path d="M24.447 11.381h.26l.167.069.023.115-.047.045-.332-.022-.142.068-.094.138-.024.069-.024.618h.521v.184l-.023.023-.474.022v1.948l-.024.023h-.166l-.047-.023v-1.97h-.284l-.024-.16.024-.024.284-.023v-.687l.119-.23.142-.114.165-.069z" fill="#FC292D"/><path d="M26.318 11.885h.19l.024.046-.024.55h.64v.207l-.261.022h-.355v1.467l.07.206.119.092.213.023.26-.023.024.114-.118.092-.166.046h-.237l-.19-.092-.141-.16-.071-.23-.024-1.535-.308-.023-.024-.114.048-.069.308-.023v-.367l.023-.229z" fill="#EE3C41"/><path d="M28.213 12.16h.403l.355.046.19.16.047.115v.321l-.095.183-.118.092-.26.069h-.546v-.963l.024-.023zM22.434 12.642h.308l.213.091.142.184.071.16.048.344-.166.023h-1.208l-.024-.023.024-.23.142-.251.119-.138.236-.137.095-.023zM17.768 12.642h.332l.19.091.142.16.094.253.024.275-.166.023h-1.208l-.023-.092.07-.229.143-.23.166-.16.236-.091z" fill="#FEFEFE"/><path d="M25.182 12.504h.237v2.177h-.237v-2.177z" fill="#EF4B48"/><path d="M31.197 13.581l.095.023v.436l-.118.114-.19.115-.26.023-.119-.046-.095-.115-.023-.16.095-.16.189-.115.308-.092.118-.023z" fill="#FEFEFE"/><path d="M25.229 11.633h.166l.094.07.024.137-.07.137-.025.023h-.19l-.118-.115.024-.16.095-.092z" fill="#F04946"/></g><defs><clipPath id="pi-benefitpay-clip0_2217_36"><path fill="#fff" d="M0 0h38v24H0z"/></clipPath></defs></svg>