<svg xmlns="http://www.w3.org/2000/svg" fill="none" viewBox="0 0 38 24" height="24" width="38" aria-labelledby="pi-bestbuycard" role="img"><title id="pi-bestbuycard">Best Buy Card</title><path fill="#fff" d="M0 0h38v24H0z"/><path fill="#0046BE" d="M11 9a1 1 0 1 0 0-2 1 1 0 0 0 0 2Zm3 0a1 1 0 1 0 0-2 1 1 0 0 0 0 2Zm3 0a1 1 0 1 0 0-2 1 1 0 0 0 0 2Zm2-1a1 1 0 0 1 1-1h10v2H20a1 1 0 0 1-1-1Z"/><path fill="#0046BE" fill-rule="evenodd" d="M6 6a4 4 0 0 1 4-4h18a4 4 0 0 1 4 4v6.257a5.487 5.487 0 0 0-2-1.05V6a2 2 0 0 0-2-2H10a2 2 0 0 0-2 2v10a2 2 0 0 0 2 2h13.207c.21.742.572 1.421 1.05 2H10a4 4 0 0 1-4-4V6Z" clip-rule="evenodd"/><path fill="#0046BE" fill-rule="evenodd" d="M28.5 22a5.5 5.5 0 1 0 0-11 5.5 5.5 0 0 0 0 11Zm0-2a3.5 3.5 0 1 0 0-7 3.5 3.5 0 0 0 0 7Z" clip-rule="evenodd"/><path fill="#0046BE" d="M30.678 14.676a.838.838 0 0 0-.63-.168.863.863 0 0 0-.565.326l-1.51 1.98-.49-.557a.88.88 0 0 0-.584-.289.866.866 0 0 0-.611.214.887.887 0 0 0-.287.586.873.873 0 0 0 .213.614l1.176 1.33a.855.855 0 0 0 .63.288h.037c.25-.01.482-.13.639-.335l2.13-2.808a.846.846 0 0 0 .167-.633.803.803 0 0 0-.315-.548Z"/></svg>