<svg xmlns="http://www.w3.org/2000/svg" width="38" height="24" fill="none"><g clip-path="url(#a)"><path fill="#fff" d="M34.99.99h-32a2 2 0 0 0-2 2v18a2 2 0 0 0 2 2h32a2 2 0 0 0 2-2v-18a2 2 0 0 0-2-2"/><path fill="#000" d="M34.99.99c1.1 0 2 .9 2 2v18c0 1.1-.9 2-2 2h-32c-1.1 0-2-.9-2-2v-18a2 2 0 0 1 2-2zm0-.99h-32C1.33 0 0 1.34 0 2.99v18c0 1.65 1.35 3 3 3h32c1.65 0 3-1.35 3-3v-18A3 3 0 0 0 35 0z" opacity=".07"/><path fill="url(#b)" d="M24.934 6.857H2.857c-.492 0-.892.375-.892.838V21.13c0 .463.4.838.892.838h22.077c.493 0 .892-.375.892-.838V7.695c0-.463-.4-.838-.892-.838"/><path fill="#FFF200" d="M8 12h-.881l-.22-.213v-.3l.22-.215H8z"/><path fill="#fff" d="M5.004 10.06h.439v-.262h-.44V9.65h.54v-.28h-.9v1.15h.899v-.28h-.538zm1.753-.41v.87h.358v-.87h.294v-.28h-.946v.28zm-.838.993.417.739v.411h.36v-.411l.417-.739H6.75l-.236.391-.236-.39zm-1.538-.731.017-.006a.2.2 0 0 0 .04-.027l.046-.045a.25.25 0 0 0 .056-.159.27.27 0 0 0-.109-.214.46.46 0 0 0-.296-.09h-.543v1.15h.575c.148 0 .453-.03.453-.33 0-.23-.233-.276-.239-.279m-.43-.273h.133a.1.1 0 0 1 .066.025.08.08 0 0 1 .024.06.08.08 0 0 1-.024.06.1.1 0 0 1-.066.024h-.133V9.64Zm.248.585a.1.1 0 0 1-.078.03h-.17v-.207h.17a.1.1 0 0 1 .078.03q.03.03.03.073a.1.1 0 0 1-.03.073Zm.469.96.017-.006a.2.2 0 0 0 .04-.027l.045-.045a.25.25 0 0 0 .056-.159.27.27 0 0 0-.108-.214.45.45 0 0 0-.297-.09H3.88v1.15h.574c.148 0 .453-.03.453-.33 0-.228-.233-.277-.238-.279Zm-.43-.272h.133a.1.1 0 0 1 .065.025.08.08 0 0 1 .025.06.08.08 0 0 1-.025.06.1.1 0 0 1-.065.025h-.132v-.17Zm.248.584a.1.1 0 0 1-.079.031H4.24v-.207h.168a.1.1 0 0 1 .079.03q.03.03.03.073a.1.1 0 0 1-.03.073Zm1.569-1.273a.12.12 0 0 1-.082.026.24.24 0 0 1-.109-.03.3.3 0 0 1-.075-.048l-.02-.018-.211.209.014.014a.8.8 0 0 0 .153.107.7.7 0 0 0 .297.07.5.5 0 0 0 .336-.112.35.35 0 0 0 .125-.273.35.35 0 0 0-.036-.161.3.3 0 0 0-.09-.106.8.8 0 0 0-.234-.104.4.4 0 0 1-.09-.034q-.035-.02-.035-.047 0-.032.025-.053t.07-.02c.072 0 .117.033.14.058l.213-.21-.004-.004a.2.2 0 0 0-.049-.042.5.5 0 0 0-.197-.089.7.7 0 0 0-.152-.018.47.47 0 0 0-.322.11.34.34 0 0 0-.122.257q0 .078.027.141a.3.3 0 0 0 .07.1.5.5 0 0 0 .18.103l.017.006.095.031a.3.3 0 0 1 .07.032q.026.017.026.04 0 .039-.03.065m-.512 1.103c0 .075-.06.137-.133.138a.136.136 0 0 1-.135-.138v-.683h-.36v.665a.49.49 0 0 0 .481.498h.023a.49.49 0 0 0 .482-.498v-.665h-.357z"/><path fill="#1D252C" d="M7.076 11.636c0 .025-.02.045-.044.045a.045.045 0 0 1-.044-.045c0-.025.02-.045.044-.045s.044.02.044.045"/><path fill="#fff" d="M3 8.02h.208v.127A.27.27 0 0 1 3.457 8c.106 0 .188.046.229.15A.32.32 0 0 1 3.959 8c.151 0 .27.098.27.322v.537h-.207v-.514c0-.116-.05-.166-.137-.166s-.166.061-.166.18v.5H3.51v-.514c0-.116-.05-.166-.136-.166-.089 0-.167.061-.167.18v.5H3zm1.625.754-.322-.755h.224l.207.52.189-.52h.202l-.441 1.125h-.202zm2.487 2.23a.06.06 0 1 1 .12 0 .06.06 0 0 1-.116.024.1.1 0 0 1-.004-.024m.112 0c0-.031-.022-.054-.052-.054s-.052.023-.052.055c0 .03.023.053.052.053a.053.053 0 0 0 .052-.054m-.072-.033h.02q.02 0 .022.018 0 .015-.015.017l.018.029h-.01l-.017-.027h-.01v.027h-.008zm.02.03q.013 0 .013-.012 0-.011-.013-.011H7.16V11h.01Z"/><path fill="url(#c)" d="M35.111 1.998h-22.18c-.495 0-.897.374-.897.835v13.402c0 .461.401.835.896.835h22.181c.495 0 .896-.374.896-.835V2.833c0-.46-.401-.835-.896-.835"/><path fill="#fff" d="M31.602 15.967h-.49l.307-1.932h.489zm-.902-1.931-.467 1.328-.055-.286-.164-.868s-.02-.174-.233-.174h-.772l-.009.033s.236.05.512.22l.425 1.678h.51l.778-1.931h-.524Zm3.851 1.931H35l-.392-1.932h-.394c-.182 0-.225.144-.225.144l-.73 1.787h.51l.103-.287h.622zm-.538-.683.257-.723.145.723zm-.716-.784.07-.415s-.215-.085-.44-.085c-.243 0-.82.11-.82.64 0 .499.677.505.677.767s-.607.215-.807.05l-.074.434s.219.109.553.109.839-.178.839-.661c0-.503-.684-.55-.684-.767 0-.22.476-.19.686-.072"/><path fill="#fff" d="m30.178 15.078-.164-.868s-.02-.174-.233-.174h-.772l-.009.033s.371.078.726.375c.341.281.453.634.453.634Z"/><path fill="#FFF200" d="M17.119 6.272H18V7h-.881l-.22-.213v-.3z"/><path fill="#fff" d="M15.541 5.24h-.538v-.18h.44v-.262h-.44v-.149h.54V4.37h-.9v1.15h.898zm.921-.87v.28h.294v.87h.359v-.87h.294v-.28zm.053 1.664-.236-.39h-.36l.416.738v.41h.36v-.41l.417-.739h-.36zm-2.133-1.122.016-.006a.2.2 0 0 0 .04-.027l.046-.045a.25.25 0 0 0 .056-.159.27.27 0 0 0-.109-.214.45.45 0 0 0-.296-.09h-.544v1.15h.575c.148 0 .453-.03.453-.33 0-.23-.232-.276-.237-.279m-.43-.273h.132a.1.1 0 0 1 .066.025.08.08 0 0 1 .024.06.08.08 0 0 1-.024.06.1.1 0 0 1-.066.024h-.133zm.247.585a.1.1 0 0 1-.078.03h-.17v-.206h.17a.1.1 0 0 1 .078.03q.03.029.03.072a.1.1 0 0 1-.03.074m.469.96.017-.006a.2.2 0 0 0 .04-.027l.045-.045a.25.25 0 0 0 .056-.159.27.27 0 0 0-.109-.214.45.45 0 0 0-.296-.09h-.542v1.15h.574c.148 0 .453-.03.453-.33 0-.23-.233-.277-.238-.279m-.43-.272h.133a.1.1 0 0 1 .065.025.08.08 0 0 1 .025.06.08.08 0 0 1-.025.06.1.1 0 0 1-.065.025h-.132zm.248.584a.1.1 0 0 1-.079.031h-.168V6.32h.168a.1.1 0 0 1 .079.03q.03.03.03.073a.1.1 0 0 1-.03.073m1.569-1.273a.12.12 0 0 1-.082.026.24.24 0 0 1-.109-.03.3.3 0 0 1-.075-.048l-.019-.018-.212.209.014.014a.8.8 0 0 0 .153.107.7.7 0 0 0 .297.07q.21 0 .336-.112a.36.36 0 0 0 .125-.273.35.35 0 0 0-.036-.161.3.3 0 0 0-.09-.106.8.8 0 0 0-.224-.102l-.01-.002a.4.4 0 0 1-.09-.034q-.035-.02-.035-.047 0-.032.025-.053t.07-.02c.073 0 .117.033.14.058l.213-.21-.004-.004a.2.2 0 0 0-.049-.042.5.5 0 0 0-.197-.089.7.7 0 0 0-.151-.018.47.47 0 0 0-.323.11.34.34 0 0 0-.121.257q0 .078.026.141a.3.3 0 0 0 .07.1.5.5 0 0 0 .18.103l.017.006.095.031a.3.3 0 0 1 .07.032q.026.017.026.04 0 .038-.03.065m-.512 1.103c0 .075-.06.137-.133.138a.136.136 0 0 1-.135-.138v-.683h-.36v.665a.49.49 0 0 0 .482.498h.022a.49.49 0 0 0 .482-.498v-.665h-.357v.683Z"/><path fill="#1D252C" d="M17.076 6.636c0 .025-.02.045-.044.045a.045.045 0 0 1-.044-.045c0-.025.02-.045.044-.045s.044.02.044.045"/><path fill="#fff" d="M13 3.02h.208v.127A.27.27 0 0 1 13.457 3c.106 0 .188.046.229.15a.32.32 0 0 1 .273-.15c.151 0 .27.098.27.322v.537h-.207v-.514c0-.116-.05-.166-.137-.166s-.166.061-.166.18v.5h-.208v-.514c0-.116-.05-.166-.136-.166-.089 0-.167.061-.167.18v.5H13zm1.626.754-.322-.755h.223l.208.52.188-.52h.202l-.441 1.125h-.202zm2.485 2.23a.06.06 0 1 1 .12 0 .06.06 0 0 1-.06.062.06.06 0 0 1-.042-.019.06.06 0 0 1-.018-.043m.112 0c0-.031-.022-.054-.052-.054s-.052.023-.052.055c0 .03.023.053.052.053a.053.053 0 0 0 .052-.054m-.072-.033h.02q.02 0 .022.018 0 .015-.015.017l.018.029h-.01l-.017-.027h-.009v.027h-.009V5.97Zm.02.03q.014 0 .013-.012c-.001-.012-.005-.011-.013-.011h-.01V6h.01Zm14.352-.581-.009.009a.7.7 0 0 1-.484.21c-.359 0-.62-.252-.62-.598s.261-.597.62-.597c.172 0 .34.072.484.21l.01.008.231-.261-.006-.007a.9.9 0 0 0-.706-.314c-.284 0-.545.089-.732.25a.9.9 0 0 0-.311.71c0 .29.108.536.31.71.188.161.45.25.733.25a.9.9 0 0 0 .706-.315l.006-.007zm.467-1.308h.407v1.855h-.408V4.112Zm2.006 1.451a.6.6 0 0 1-.301.092c-.133 0-.191-.064-.191-.21v-.984h.415v-.35h-.415v-.578l-.402.202v.378h-.345v.35h.345v1.046c0 .286.183.48.454.485a.7.7 0 0 0 .363-.085l.004-.003.098-.358zm.339-1.451h.407v1.855h-.407z"/><path fill="#fff" d="M35 3.81c-.34-.475-.97-.81-1.642-.81-.66 0-1.29.326-1.641.81h.468a1.69 1.69 0 0 1 2.345 0z"/></g><defs><radialGradient id="b" cx="0" cy="0" r="1" gradientTransform="rotate(-.278 2956.122 -2160)scale(7.19199 22.3829)" gradientUnits="userSpaceOnUse"><stop stop-color="#284776"/><stop offset="1" stop-color="#00214E"/></radialGradient><radialGradient id="c" cx="0" cy="0" r="1" gradientTransform="matrix(7.22576 -.03475 .10735 22.32414 20.606 9.415)" gradientUnits="userSpaceOnUse"><stop stop-color="#284776"/><stop offset="1" stop-color="#00214E"/></radialGradient><clipPath id="a"><path fill="#fff" d="M0 0h38v24H0z"/></clipPath></defs></svg>