<svg xmlns="http://www.w3.org/2000/svg" role="img" viewBox="0 0 38 24" width="38" height="24" aria-labelledby="pi-biercheque_paynl_version"><title id="pi-biercheque_paynl_version">Biercheque (PAY. version)</title><path vector-effect="non-scaling-stroke" opacity=".07" fill-rule="nonzero" fill="#000" d="M35 0H3C1.3 0 0 1.3 0 3v18c0 1.7 1.4 3 3 3h32c1.7 0 3-1.3 3-3V3c0-1.7-1.4-3-3-3z"/><path vector-effect="non-scaling-stroke" fill-rule="nonzero" fill="#2b2b2b" d="M35 1c1.1 0 2 .9 2 2v18c0 1.1-.9 2-2 2H3c-1.1 0-2-.9-2-2V3c0-1.1.9-2 2-2h32"/><path stroke="null" fill="#fff" d="M14.138 4.159a1.263 1.537 0 00.163.098 1.543 1.878 0 01.6.42 1.857 2.26 0 01.551 1.17A3.293 4.008 0 0115.52 7.3a2.096 2.55 0 01-.275 1.05.078.095 0 00.015.088 4.732 5.759 0 011.078 1.144 3.821 4.65 0 01.59 1.15 3.894 4.74 0 01.242.995 4.162 5.066 0 01.064.732 4.252 5.175 0 01-.059 1.246 3.816 4.645 0 01-.243.996c-.06.156-.122.313-.18.473-.02.05-.049.056-.093.053-.14 0-.282-.016-.42 0a.185.225 0 00-.193.259v.737a.18.22 0 01-.068.195l-.402.41a.27.329 0 01-.065.035.304.37 0 01-.02-.095v-1.25a.207.252 0 000-.047c0-.05 0-.124-.053-.118s-.025.074-.025.112v1.748c0 .068.02.095.076.095h.562c.063 0 .075-.037.075-.105v-1.69c0-.143.04-.194.154-.194h.301c.095 0 .137.048.137.163v3.887c0 .115-.042.166-.134.166h-.317c-.102 0-.143-.054-.143-.178v-1.25c0-.125 0-.128-.102-.128h-.51c-.106 0-.11 0-.11.13v1.233c0 .166-.025.193-.164.193h-.285c-.1 0-.14-.05-.14-.172v-3.887c0-.296.038-.625.045-.939a1.161 1.413 0 00-.046-.364c0-.02-.05-.042-.078-.042-.073 0-.139 0-.17-.1v-.027a2.38 2.897 0 01-.034-.52.808.984 0 01.15-.342c.015-.027.066-.027.1-.036s.134-.03.217-.043a.53.646 0 01-.054-.128.26.317 0 010-.166c.032-.116.076-.14.17-.107.035 0 .067.033.103.044h.127c-.1.07-.088.15-.078.237a.141.172 0 01-.034.107.085.104 0 000 .17.141.172 0 01.034.126.436.53 0 00.03.345.175.213 0 00.218.06.467.569 0 01.08-.043c0 .048.042.11.027.146a.34.415 0 00-.015.206c0 .167 0 .336.013.5a.083.1 0 01-.013.052h-.024c0-.115 0-.228-.012-.343s0-.175 0-.261c0-.024-.02-.062-.032-.065h-.187a.71.865 0 00.11.628.762.927 0 01.036.296c0 .08 0 .157.015.234a.214.26 0 00.038.089c.022-.027.054-.05.064-.083a.58.705 0 00.017-.142c.053.08.078.056.104 0 .1-.228.22-.442.305-.68a2.48 3.019 0 00.17-.68 4.062 4.944 0 00.073-.86 2.77 3.371 0 00-.105-.92 3.003 3.656 0 00-.586-1.41 2.92 3.555 0 00-.803-.842 2.806 3.416 0 00-.998-.435.243.296 0 00-.302.296 15.73 15.73 0 00-.024.83c0 1.146 0 2.292.014 3.439v.998a.243.296 0 01-.282.308h-.553a.219.267 0 01-.243-.296q0-1.286-.012-2.571 0-3.21-.012-6.417c0-.154-.11-.225-.256-.234s-.287 0-.43 0a.338.412 0 01-.363-.441 3.507 4.269 0 000-.477.312.38 0 01.165-.362.127.154 0 00.037-.053h2.61zm-.665 2.512v1.073c0 .083.022.115.09.106a2.19 2.666 0 00.312-.044.77.936 0 00.616-.96 1.344 1.635 0 00-.13-.797.871 1.06 0 00-.313-.45.745.906 0 00-.455-.113c-.117 0-.12 0-.12.148V6.67zm1.621 7.809v.083a3.449 4.198 0 01-.068.512c-.022.1 0 .175.056.208a.487.592 0 00.207 0s.022-.036.022-.054v-.503a.034.041 0 000-.027l-.217-.22h0zm7.791-2.974V8.448a.292.355 0 01.193-.394.414.504 0 01.121-.027h.446a.292.355 0 01.311.38V9.92c0 .133 0 .145.107.15a1.326 1.614 0 00.91-.295.993 1.209 0 00.366-.907 1.704 2.074 0 00-.134-1.004 1.066 1.298 0 00-.59-.726.81.986 0 00-.277-.06h-1.144a.28.34 0 01-.3-.337v-.623a.282.344 0 01.281-.352h1.5a1.404 1.71 0 01.523.195 1.687 2.053 0 01.52.453 1.847 2.248 0 01.378.66 2.772 3.374 0 01.243 1.213 3.614 4.4 0 01-.066 1.365 1.967 2.394 0 01-.42 1.088.185.225 0 00-.032.263c.046.15.073.31.11.465l.162.688c.051.219.1.438.151.654.085.365.173.729.258 1.093.05.205.098.41.141.616a.3.364 0 01-.314.483h-.486a.292.355 0 01-.307-.296c-.078-.364-.156-.73-.243-1.09-.098-.43-.2-.86-.297-1.292-.05-.213-.095-.43-.144-.645a.195.237 0 00-.229-.196c-.143 0-.287 0-.43.018a.212.258 0 00-.244.278v2.806a.319.388 0 01-.32.405h-.432a.31.376 0 01-.32-.417c.011-1.016.01-2.041.01-3.066l-.002-.001zm-1.69-5.741h.972a.287.35 0 01.324.394v.503c0 .264-.097.39-.314.39h-.95a.27.329 0 00-.279.298.713.868 0 000 .12v1.974c0 .296.095.397.326.397a3.765 4.583 0 01.438.018.243.296 0 01.22.32v.592a.292.355 0 01-.307.382h-.41a.256.311 0 00-.267.32v1.908a.273.332 0 00.28.314h.954a.28.34 0 01.311.382v.542a.275.335 0 01-.262.373.419.51 0 01-.078 0h-1.967a.404.492 0 01-.143-.026.217.264 0 01-.154-.243V6.034a.29.353 0 01.29-.275c.345.003.681.006 1.015.006zm-3.749 6.179V9.338a.73.889 0 01.357-.797.448.545 0 00.212-.474c.022-.364.054-.725.085-1.087.02-.213.051-.423.073-.637a.158.193 0 00-.022-.103c0-.018-.029-.036-.029-.054a2.505 3.048 0 010-.402c0-.066.054-.101.115-.101h.516a.141.172 0 01.131.222.876 1.066 0 000 .169 1.098 1.336 0 01-.024.157.509.62 0 00-.027.157c.041.453.09.906.134 1.36.014.136.02.272.03.408a.372.453 0 00.186.362.784.954 0 01.392.847v5.223a.338.412 0 01-.343.423h-1.44a.316.385 0 01-.346-.426c-.003-.883 0-1.76 0-2.64v-.001zm.973-5.628h-.03a.29.353 0 00-.026.077c-.027.183-.058.367-.073.554-.036.42-.063.847-.095 1.27a.256.311 0 01-.014.072.414.504 0 01-.193.278.791.963 0 00-.36.847v4.906a.36.438 0 00.124.347.2.243 0 00.23.053c-.174-.116-.176-.296-.176-.51V9.408a.8.975 0 01.382-.87.394.48 0 00.19-.412c0-.37.014-.74.022-1.111 0-.184.014-.367.022-.548.004-.065.002-.113.002-.16l-.005.009zm-8.04 3.702a.974 1.185 0 01.47.297.324.394 0 01.015.503 3.115 3.792 0 00-.345.987 3.147 3.83 0 00-.066 1.588 2.92 3.555 0 00.243.96 3.042 3.703 0 00.73 1.235 2.811 3.421 0 00.765.592.102.124 0 01.073.134v1.08c0 .105 0 .105-.09.075a3.814 4.642 0 01-.774-.43 3.15 3.833 0 01-.68-.634 6.129 7.46 0 01-.46-.625 3.057 3.72 0 01-.447-.94 6.214 7.563 0 01-.244-.825 3.795 4.618 0 01-.114-.853 5.287 6.434 0 01.022-1.013 5.136 6.25 0 01.141-.83 3.865 4.704 0 01.372-1.075.372.453 0 01.39-.225v-.001zm9.318 7.4V16.29a.791.963 0 01.633-.963 1.407 1.712 0 01.487-.047.84 1.022 0 01.837.87 1.36 1.656 0 01.02.27v2.056a1.04 1.265 0 01-.113.566.107.13 0 00.025.18c.102.128.202.255.297.392a.156.19 0 01.03.154.15.184 0 01-.118.074h-.47a.168.204 0 01-.12-.077c-.104-.214-.245-.217-.435-.193a1.04 1.265 0 01-.76-.22.652.794 0 01-.274-.592c-.024-.433-.02-.865-.027-1.298v-.047l-.012.003h0zm.604.03h0v.593c0 .193 0 .373.012.56 0 .13.048.254.18.272a1.626 1.979 0 00.326.015c.097-.015.207-.05.243-.202a.888 1.081 0 00.022-.22v-2.239a.214.26 0 00-.15-.237.667.812 0 00-.414-.02.243.296 0 00-.195.295c-.027.4-.024.791-.024 1.182zm2.711-.435v1.48a.462.563 0 00.022.202.224.273 0 00.23.18c.111 0 .242 0 .286-.135a.601.732 0 00.056-.296v-2.936c0-.184.024-.213.18-.213h.243c.134 0 .168.04.168.2v2.946a.974 1.185 0 01-.146.663.75.912 0 01-.487.418 1.047 1.274 0 01-.632-.05.755.918 0 01-.487-.756 2.604 3.17 0 01-.03-.53v-2.708c0-.124.05-.186.15-.186h.294c.104 0 .153.059.153.19v1.53h0zm1.903.415v-1.88a.63.767 0 010-.14.105.127 0 01.112-.103h1.46c.115 0 .144.042.147.18v.28c0 .168-.032.207-.166.207h-.844c-.105 0-.105 0-.105.13v1.073c0 .089.02.124.095.12h.51a.136.166 0 01.154.188v.296c0 .163-.044.22-.177.216h-.492c-.06 0-.088.018-.088.098v.693c0 .077.027.098.088.098h.908c.12 0 .158.044.158.187v.296c0 .136-.044.19-.158.19h-1.45c-.096 0-.13-.033-.147-.15v-.09l-.005-1.89zm-7.494-.01v-1.943c0-.118.044-.17.144-.17h1.39a.416.507 0 01.077 0 .107.13 0 01.108.15v.343c0 .115-.032.169-.144.172h-.905c-.052 0-.076.024-.076.089v1.15c0 .073.032.085.083.085h.516c.114 0 .16.056.16.199v.296a.134.163 0 01-.153.187h-.516c-.066 0-.092.023-.09.106v.673c0 .088.027.112.095.11h.9c.113 0 .151.047.151.183v.329a.114.14 0 01-.129.154H17.55c-.087 0-.129-.057-.129-.166v-1.947z" /><path stroke="null" fill="#fff" d="M12.35 17.445v-1.14a.85 1.034 0 01.846-1.043.888 1.081 0 01.774.438.944 1.15 0 01.165.593v.243a.112.136 0 01-.116.15h-.348c-.116 0-.125-.047-.125-.165a.62.755 0 00-.075-.43.277.338 0 00-.268-.16.243.296 0 00-.23.199.613.747 0 00-.04.225v2.139c0 .14.017.296.14.358.242.13.432 0 .46-.296 0-.098.011-.198.013-.296s.027-.13.093-.136h.382a.117.142 0 01.114.142 1.278 1.555 0 01-.119.847.76.924 0 01-.54.465 1.083 1.318 0 01-.662-.071.762.927 0 01-.363-.424.935 1.138 0 01-.102-.562c.005-.365 0-.72 0-1.076z"/><path stroke="null" fill="#fff" d="M14.734 16.715v.551a.107.13 0 01-.08.146 3.408 4.147 0 01-1.047.263h-.518c-.054 0-.07-.032-.07-.094v-1.025c0-.063.02-.09.072-.086h.314c.051 0 .066.027.068.084a.19.231 0 00.205.234h.345a.187.228 0 00.198-.25c-.015-.171.02-.275.172-.313a1.341 1.632 0 00.263-.148c.06-.04.078-.018.078.059q-.002.296 0 .58z"/></svg>