<svg xmlns="http://www.w3.org/2000/svg" width="38" height="24" fill="none" aria-labelledby="pi-bierchequepaynlversion" role="img" viewBox="0 0 38 24"><title id="pi-bierchequepaynlversion">Biercheque (PAY. version)</title><path fill="#2B2B2B" d="M0 0h38v24H0z"/><path fill="#fff" fill-rule="evenodd" d="M14.138 4.159q.079.056.163.098c.65.241 1.033.94 1.151 1.59.163.811.156 1.743-.207 2.503a.11.11 0 0 0 .015.088 5.1 5.1 0 0 1 1.668 2.294c.188.546.29 1.135.306 1.727a5.9 5.9 0 0 1-.302 2.242q-.091.235-.18.473c-.034.085-.161.052-.233.05a2 2 0 0 0-.28.003c-.11-.007-.21.127-.193.259v.737a.25.25 0 0 1-.068.195l-.402.41a.3.3 0 0 1-.065.035.4.4 0 0 1-.02-.095v-1.25c.004-.046.014-.173-.053-.165-.053.006-.025.074-.025.112v1.748c0 .068.02.095.076.095h.562c.063 0 .075-.037.075-.105v-1.69c0-.143.04-.194.154-.194h.301c.095 0 .137.048.137.163v3.887c0 .115-.042.166-.134.166h-.317c-.102 0-.143-.054-.143-.178v-1.25c0-.125 0-.128-.102-.128h-.51c-.106 0-.11 0-.11.13v1.233c0 .166-.025.193-.164.193h-.285c-.1 0-.14-.05-.14-.172v-3.887c0-.296.038-.625.045-.939a1.7 1.7 0 0 0-.046-.364c0-.02-.05-.042-.078-.042-.086 0-.17-.028-.17-.127a3.5 3.5 0 0 1-.034-.52q.046-.189.15-.342c.015-.027.066-.027.1-.036s.134-.03.217-.043a.43.43 0 0 1-.054-.294c.032-.116.076-.14.17-.107.035 0 .067.033.103.044h.127c-.098.068-.088.146-.079.23l.001.007a.2.2 0 0 1-.034.107.11.11 0 0 0-.036.085c0 .033.014.066.036.085a.2.2 0 0 1 .034.126.64.64 0 0 0 .03.345c.05.079.145.105.218.06a.4.4 0 0 1 .08-.043c0 .048.042.11.027.146a.5.5 0 0 0-.015.206c0 .167 0 .336.013.5a.1.1 0 0 1-.013.052h-.024c0-.115 0-.228-.012-.343-.008-.077-.005-.13-.003-.181q.003-.038.003-.08c0-.024-.02-.062-.032-.065h-.187c-.03.219.009.444.11.628q.038.145.036.296c0 .08 0 .157.015.234q.011.049.038.089c.022-.027.054-.05.064-.083a1 1 0 0 0 .017-.142c.053.08.078.056.104 0q.056-.125.115-.246a3.5 3.5 0 0 0 .36-1.114q.068-.426.073-.86 0-.468-.105-.92a4 4 0 0 0-.586-1.41 3.2 3.2 0 0 0-.803-.842 2.5 2.5 0 0 0-.998-.435c-.175-.053-.306.138-.302.296q-.023.414-.024.83c0 1.479.014 2.958.014 4.437.008.177-.139.337-.282.308h-.553c-.131.019-.258-.136-.243-.296 0-2.999-.013-5.994-.024-8.988 0-.323-.468-.234-.686-.234-.146.014-.292-.1-.343-.267a.5.5 0 0 1-.02-.174 5 5 0 0 0 0-.477.41.41 0 0 1 .165-.362.2.2 0 0 0 .037-.053zm-.665 3.585c0 .083.022.115.09.106q.157-.008.312-.044a.77.77 0 0 0 .454-.342c.113-.176.17-.395.162-.618a1.9 1.9 0 0 0-.13-.797 1.03 1.03 0 0 0-.313-.45.64.64 0 0 0-.455-.113c-.117 0-.12 0-.12.148zm1.621 6.736c0 .2-.032.4-.068.595-.022.1 0 .175.056.208a.4.4 0 0 0 .207 0s.022-.036.022-.054v-.503a.1.1 0 0 0 0-.027z" clip-rule="evenodd"/><path fill="#fff" d="M22.885 8.448c-.027-.2.097-.413.314-.421h.446c.167-.014.323.177.311.38V9.92c0 .133 0 .145.107.15.722.09 1.262-.513 1.276-1.202.044-.618-.175-1.788-1.001-1.79h-1.144c-.153.013-.299-.151-.3-.337v-.623c-.003-.183.131-.351.281-.352h1.5c.41.05.794.329 1.043.648.425.514.593 1.22.621 1.873.066.82-.01 1.755-.486 2.453a.27.27 0 0 0-.032.263c.351 1.146.577 2.342.822 3.516.059.203-.067.514-.314.483h-.486c-.2.016-.282-.178-.316-.34-.214-.997-.447-1.982-.675-2.983-.016-.126-.126-.22-.229-.196-.143 0-.287 0-.43.018-.127-.024-.256.122-.244.278v2.806c.008.21-.147.406-.32.405h-.432c-.178.008-.34-.202-.32-.417.022-2.042.008-4.083.008-6.125m-.718-2.683c.212-.036.345.209.324.394v.503c0 .264-.097.39-.314.39h-.95c-.22-.01-.289.243-.279.418v1.974c0 .296.095.397.326.397a3 3 0 0 1 .438.018c.128.014.23.164.22.32v.592c.013.202-.14.393-.307.382h-.41c-.14-.008-.271.149-.267.32v1.908c.008.173.138.319.28.314h.954c.204-.03.33.203.311.382v.542c.019.201-.132.397-.34.373h-1.967c-.16.006-.292-.104-.297-.269V6.034c.03-.158.151-.276.314-.275q.982.008 1.964.006"/><path fill="#fff" fill-rule="evenodd" d="M17.446 9.338c-.01-.32.131-.634.357-.797a.59.59 0 0 0 .212-.474q.032-.494.076-.983c.021-.248.057-.494.082-.741 0-.046-.001-.086-.036-.13q-.014-.014-.015-.027a4 4 0 0 1 0-.402c0-.066.054-.101.115-.101h.516c.065.002.125.065.135.144.011.082-.01.165-.004.247-.01.106-.044.207-.051.314.05.543.12 1.088.155 1.632l.009.136c.008.149.08.288.186.362.122.085.222.21.291.358.07.15.104.318.101.489v5.223c.005.222-.16.426-.343.423h-1.44c-.226.028-.364-.228-.346-.426-.006-1.755 0-3.499 0-5.247m.973-3.022h-.03c-.026.058-.032.12-.042.181-.085.56-.109 1.145-.152 1.72a.48.48 0 0 1-.207.35c-.23.182-.371.513-.36.847v4.906c-.005.167.131.527.354.4-.174-.116-.176-.296-.176-.51V9.408c-.011-.347.14-.689.382-.87a.52.52 0 0 0 .19-.412c0-.553.02-1.113.044-1.659a1 1 0 0 0-.003-.151" clip-rule="evenodd"/><path fill="#fff" d="M10.38 10.018c-.152-.033-.315.061-.39.226-1.15 2.426-.518 6.148 2.184 7.225.09.03.09.03.09-.075v-1.08c.006-.058-.026-.118-.073-.134-1.84-.959-2.183-3.64-1.327-5.362.227-.358-.146-.714-.484-.8"/><path fill="#fff" fill-rule="evenodd" d="M19.697 16.29c-.01-.628.488-1.084 1.12-1.01.592-.005.854.638.857 1.14v2.056a1.5 1.5 0 0 1-.113.566c-.032.056-.02.14.025.18.102.128.202.255.297.392.056.088.033.226-.088.228h-.47a.16.16 0 0 1-.12-.077c-.104-.214-.245-.217-.435-.193a.9.9 0 0 1-.76-.22.86.86 0 0 1-.274-.592c-.046-.822-.03-1.648-.039-2.47m.616 2.311c0 .296.274.305.506.287.227-.035.262-.224.265-.422v-2.239c-.004-.107-.066-.205-.15-.237a.56.56 0 0 0-.414-.02c-.111.027-.197.157-.195.295-.052.77-.061 1.564-.012 2.336" clip-rule="evenodd"/><path fill="#fff" d="M23.012 18.493c-.006.153.052.403.252.382.27 0 .338-.185.342-.431v-2.936c0-.184.024-.213.18-.213h.243c.134 0 .168.04.168.2v2.946c.011.424-.177.965-.633 1.081a.87.87 0 0 1-.632-.05c-.485-.22-.523-.823-.517-1.286v-2.708q0-.186.15-.186h.294c.104 0 .153.059.153.19zm1.903-2.945c-.006-.08-.012-.256.112-.243h1.46c.115 0 .144.042.147.18v.28c0 .168-.032.207-.166.207h-.844c-.105 0-.105 0-.105.13v1.073c0 .089.02.124.095.12h.51c.084-.015.166.086.154.188v.296c0 .163-.044.22-.177.216h-.492c-.06 0-.088.018-.088.098v.693c0 .077.027.098.088.098h.908c.12 0 .158.044.158.187v.296c0 .136-.044.19-.158.19h-1.45c-.096 0-.13-.033-.147-.15zm-7.494-.073c0-.118.044-.17.144-.17h1.39c.097-.011.2.031.185.15v.343c0 .115-.032.169-.144.172h-.905c-.052 0-.076.024-.076.089v1.15c0 .073.032.085.083.085h.516c.114 0 .16.056.16.199v.296c.014.102-.07.203-.153.187h-.516c-.066 0-.092.023-.09.106v.673c0 .088.027.112.095.11h.9c.113 0 .151.047.151.183v.329c.008.085-.06.166-.129.154H17.55q-.13-.001-.129-.166zm-5.071.83c-.003-.48.313-1.04.846-1.043.298-.024.597.145.774.438.099.175.156.38.165.593v.243c.007.077-.052.153-.116.15h-.348c-.116 0-.125-.047-.125-.165a.9.9 0 0 0-.075-.43c-.107-.216-.427-.212-.498.039a1 1 0 0 0-.04.225v2.139c0 .14.017.296.14.358.242.13.432 0 .46-.296 0-.098.011-.198.013-.296s.027-.13.093-.136h.382c.061.002.114.068.114.142.027.29-.015.584-.119.847-.11.244-.314.419-.54.465a.9.9 0 0 1-.662-.071c-.303-.168-.478-.581-.465-.986.01-.739 0-1.478.001-2.216"/><path fill="#fff" d="M14.734 17.266q-.002-.565 0-1.13c0-.077-.018-.099-.078-.059a1.3 1.3 0 0 1-.263.148c-.152.038-.187.142-.172.313.01.132-.09.258-.198.25-.125 0-.305.038-.423-.012-.075-.032-.128-.125-.127-.222-.002-.057-.017-.084-.068-.084h-.314c-.052-.004-.072.023-.072.086v1.025c0 .062.016.094.07.094h.518a2.9 2.9 0 0 0 1.047-.263c.052-.016.088-.082.08-.146"/></svg>