<svg xmlns="http://www.w3.org/2000/svg" width="38" height="24" fill="none" aria-labelledby="pi-billease" role="img" viewBox="0 0 38 24"><title id="pi-billease">BillEase</title><path fill="#fff" d="M0 0h38v24H0z"/><path fill="#203AA9" d="M3.754 18.68q.51 0 1.005-.128a2.35 2.35 0 0 0 .888-.444q.394-.316.633-.883t.239-1.444q0-1.304-.633-2.027-.633-.722-1.899-.722-.233 0-.56.064a5 5 0 0 0-.767.217l-.106.046V11H1.4v6.46q0 .375.194.61.195.235.528.37.333.132.755.187.421.053.877.053m-.056-.973q-.266 0-.527-.038a1.06 1.06 0 0 1-.439-.155.38.38 0 0 1-.177-.331v-2.889a2.3 2.3 0 0 1 .627-.235q.339-.075.627-.075.522 0 .855.214.333.215.5.62.167.408.167 1.006 0 .524-.134.947a1.3 1.3 0 0 1-.488.679q-.356.257-1.01.257zm5.139-5.413v-1.016H7.593v1.016zm-.033 6.226-.011-5.338H7.627v5.338zm2.551 0v-7.402H10.2v7.402zm2.525 0v-7.402h-1.155v7.402z"/><path fill="#F84040" d="M17.5 18.68a4.9 4.9 0 0 0 1.957-.37v-1.056a5 5 0 0 1-.473.201 4 4 0 0 1-.599.169 3.5 3.5 0 0 1-.698.065q-.835 0-1.264-.473-.367-.407-.42-1.136l-.002-.035h3.874a5 5 0 0 0-.19-1.496l-.047-.143q-.247-.702-.797-1.094-.549-.392-1.44-.392-1.209 0-1.885.735t-.676 2.161q0 .926.324 1.568.324.643.924.97t1.412.326m1.2-3.484h-2.67l.004-.04q.028-.214.09-.42l.03-.09q.16-.43.467-.61t.747-.18q.682 0 1 .387.246.298.322.862zm4.234 3.484q.726 0 1.297-.103.571-.105.907-.392.335-.29.335-.823V14.75q0-.414-.12-.718a1.5 1.5 0 0 0-.336-.518 1.7 1.7 0 0 0-.49-.337 2.6 2.6 0 0 0-.587-.185 3.3 3.3 0 0 0-.621-.06 6 6 0 0 0-1.215.125q-.587.126-.896.332v1.067a2.3 2.3 0 0 1 .814-.408 3.4 3.4 0 0 1 .956-.147q.648 0 1 .267t.352.844v.515l-.078-.044-.098-.049-.104-.047a3 3 0 0 0-.605-.18 4 4 0 0 0-.753-.065q-.627 0-1.077.196t-.693.588-.242 1.002q0 .511.193.855.192.342.516.539.326.195.72.277.397.082.825.082zm.132-.893q-.307 0-.588-.092a1.1 1.1 0 0 1-.467-.294.75.75 0 0 1-.187-.528q0-.436.324-.654t.95-.218c.41-.003.817.073 1.199.222l.033.014v1.06q0 .284-.25.383l-.058.02q-.308.087-.956.087m5.359.893q.539 0 1.044-.174.506-.174.819-.556.314-.381.324-.99 0-.458-.16-.74a1.35 1.35 0 0 0-.411-.458 2 2 0 0 0-.55-.267q-.297-.092-.572-.18a15 15 0 0 1-.555-.174 1.1 1.1 0 0 1-.417-.24.55.55 0 0 1-.16-.413q0-.305.286-.463.285-.158.715-.158.46 0 .813.153.352.152.747.36l-.01-.98a5.5 5.5 0 0 0-.72-.317q-.369-.13-.951-.141-.352 0-.72.092a2.1 2.1 0 0 0-.671.294c-.202.134-.37.313-.49.523a1.53 1.53 0 0 0-.186.778q0 .415.148.697.15.284.396.463c.246.179.346.214.544.283q.297.105.594.18.285.097.55.196.263.098.434.24a.48.48 0 0 1 .17.391q0 .294-.27.49-.268.196-.741.196-.375 0-.676-.076a3 3 0 0 1-.577-.212 7 7 0 0 1-.561-.31v1.077q.396.186.808.31.412.126 1.006.126m5.64 0q.605 0 1.088-.103.484-.104.869-.267v-1.056a5 5 0 0 1-.473.201 4 4 0 0 1-.599.169 3.5 3.5 0 0 1-.698.065q-.835 0-1.264-.473-.367-.407-.42-1.136l-.002-.035h3.874a5 5 0 0 0-.19-1.496l-.047-.143q-.247-.702-.797-1.094-.549-.392-1.44-.392-1.209 0-1.885.735t-.676 2.161q0 .926.324 1.568.324.643.924.97.599.326 1.412.326m1.2-3.484h-2.671l.005-.04q.028-.214.09-.42l.03-.09q.159-.43.467-.61.307-.18.747-.18.682 0 1 .387.246.298.322.862z"/><path fill="#5B5D68" d="M19.102 6.561v-.917h.592q.438 0 .678-.216.24-.215.24-.618c0-.403-.08-.47-.24-.606Q20.132 4 19.694 4H18.68v2.561zm.538-1.278h-.538v-.926h.538q.165 0 .269.039a.4.4 0 0 1 .161.105.4.4 0 0 1 .079.152.7.7 0 0 1 0 .342.37.37 0 0 1-.24.251.8.8 0 0 1-.269.037m1.662 1.278.251-.695h1.048l.253.695h.445L22.328 4h-.45l-.998 2.561zm1.173-1.04h-.797l.397-1.1zm2.336 1.04V5.417L25.74 4h-.458l-.657 1.065L23.943 4h-.518l.964 1.413v1.148zm3.391 0 .605-1.923.601 1.923h.423L30.61 4h-.458l-.559 2.025L28.99 4h-.365l-.6 2.028L27.457 4h-.456l.775 2.561zm3.235 0V4h-.426v2.561zm1.635 0V4.357h.83V4H31.82v.357h.83v2.204zm1.638 0v-1.09h1.182v1.09h.427V4h-.427v1.102H34.71V4h-.423v2.561z"/></svg>