<svg xmlns="http://www.w3.org/2000/svg" width="38" height="24" fill="none" aria-labelledby="pi-billie" role="img" viewBox="0 0 38 24"><title id="pi-billie">Billie</title><path fill="#fff" d="M0 0h38v24H0z"/><path fill="#090A0E" d="M20.232 20.226H13V8.36a5.3 5.3 0 0 1 1.664-3.844 5.23 5.23 0 0 1 3.948-1.418c2.719.173 4.931 2.475 4.931 5.136-.005.81-.098 1.618-.279 2.408a5.27 5.27 0 0 1 2.24 4.312 5.28 5.28 0 0 1-5.272 5.272m-2.372-2.2h2.372a3.071 3.071 0 0 0 2.18-5.237c-1.047 1.99-2.536 3.707-4.552 5.237m-2.66-6.145v5.322c2.426-1.547 4.091-3.25 5.202-5.318a3 3 0 0 0-.17-.004zm0-2.2h5.032q.487 0 .966.089a9 9 0 0 0 .146-1.536c0-1.522-1.288-2.84-2.87-2.941A3.074 3.074 0 0 0 15.2 8.36z"/></svg>