<svg xmlns="http://www.w3.org/2000/svg" fill="none" viewBox="0 0 38 24" height="24" width="38" aria-labelledby="pi-billease" role="img"><title id="pi-billease">BillEase</title><path fill="#fff" d="M0 0h38v24H0z"/><path fill="#203AA9" d="M3.754 18.68c.34 0 .675-.043 1.005-.128a2.35 2.35 0 0 0 .888-.444c.263-.21.474-.505.633-.883.159-.378.239-.859.239-1.444 0-.87-.211-1.545-.633-2.027-.422-.481-1.055-.722-1.899-.722-.155 0-.342.022-.56.064a5.027 5.027 0 0 0-.767.217l-.106.046V11H1.4v6.46c0 .25.065.453.194.61.13.157.306.28.528.37.222.088.473.15.755.187.281.035.573.053.877.053Zm-.056-.973c-.177 0-.353-.013-.527-.038a1.056 1.056 0 0 1-.439-.155.375.375 0 0 1-.177-.331v-2.889a2.31 2.31 0 0 1 .627-.235c.226-.05.435-.075.627-.075.348 0 .633.072.855.214.222.143.389.35.5.62.111.272.167.607.167 1.006 0 .35-.045.665-.134.947a1.298 1.298 0 0 1-.488.679c-.237.171-.574.257-1.01.257h-.001Zm5.139-5.413v-1.016H7.593v1.016h1.244Zm-.033 6.226-.011-5.338H7.627v5.338h1.177Zm2.551 0v-7.402H10.2v7.402h1.155Zm2.525 0v-7.402h-1.155v7.402h1.155Z"/><path fill="#F84040" d="M17.5 18.68a4.877 4.877 0 0 0 1.957-.37v-1.056a5.39 5.39 0 0 1-.473.201 3.876 3.876 0 0 1-.599.169 3.54 3.54 0 0 1-.698.065c-.557 0-.978-.158-1.264-.473-.245-.271-.385-.65-.42-1.136l-.002-.035h3.874a4.928 4.928 0 0 0-.19-1.496l-.047-.143c-.165-.468-.43-.833-.797-1.094-.366-.261-.846-.392-1.44-.392-.806 0-1.434.245-1.885.735-.45.49-.676 1.21-.676 2.161 0 .617.108 1.14.324 1.568.216.429.524.752.924.97.4.217.87.326 1.412.326Zm1.2-3.484h-2.67l.004-.04c.018-.142.049-.283.09-.42l.03-.09c.106-.287.262-.49.467-.61.205-.12.454-.18.747-.18.455 0 .788.13 1 .387.164.198.271.486.322.862l.01.09v.001Zm4.234 3.484c.484 0 .916-.034 1.297-.103.381-.07.683-.2.907-.392.223-.193.335-.467.335-.823V14.75c0-.276-.04-.515-.12-.718a1.49 1.49 0 0 0-.336-.518 1.68 1.68 0 0 0-.49-.337 2.578 2.578 0 0 0-.587-.185 3.294 3.294 0 0 0-.621-.06 5.85 5.85 0 0 0-1.215.125c-.392.084-.69.194-.896.332v1.067a2.31 2.31 0 0 1 .814-.408 3.35 3.35 0 0 1 .956-.147c.432 0 .766.089 1 .267.235.178.352.459.352.844v.515l-.078-.044a2.419 2.419 0 0 0-.098-.049l-.104-.047a3.024 3.024 0 0 0-.605-.18 3.953 3.953 0 0 0-.753-.065c-.418 0-.777.066-1.077.196-.3.13-.532.327-.693.588-.161.262-.242.595-.242 1.002 0 .341.065.626.193.855.128.228.3.408.516.539.217.13.457.223.72.277.264.055.54.082.825.082v-.001Zm.132-.893c-.205 0-.401-.03-.588-.092a1.09 1.09 0 0 1-.467-.294.746.746 0 0 1-.187-.528c0-.29.108-.509.324-.654.216-.145.533-.218.95-.218.41-.003.817.073 1.199.222l.033.014v1.06c0 .19-.083.317-.25.383l-.058.02c-.205.058-.524.087-.956.087Zm5.359.893c.359 0 .707-.058 1.044-.174.337-.116.61-.301.819-.556.209-.254.317-.584.324-.99 0-.305-.053-.552-.16-.74a1.35 1.35 0 0 0-.411-.458 2.025 2.025 0 0 0-.55-.267c-.198-.062-.388-.121-.572-.18a14.735 14.735 0 0 1-.555-.174 1.106 1.106 0 0 1-.417-.24.547.547 0 0 1-.16-.413c0-.203.095-.358.286-.463.19-.105.429-.158.715-.158.307 0 .578.051.813.153.234.101.484.221.747.36l-.01-.98a5.48 5.48 0 0 0-.72-.317c-.246-.087-.563-.134-.951-.141-.235 0-.475.03-.72.092a2.139 2.139 0 0 0-.671.294c-.202.134-.37.313-.49.523a1.53 1.53 0 0 0-.186.778c0 .276.05.509.148.697.1.19.231.343.396.463s.346.214.544.283c.198.07.396.13.594.18.19.065.374.13.55.196.175.065.32.145.434.24a.48.48 0 0 1 .17.391c0 .196-.09.36-.27.49-.179.131-.426.196-.741.196-.25 0-.475-.025-.676-.076a2.87 2.87 0 0 1-.577-.212 7.358 7.358 0 0 1-.561-.31v1.077c.264.124.533.227.808.31.275.084.61.126 1.006.126Zm5.64 0c.403 0 .766-.034 1.088-.103.323-.07.612-.158.869-.267v-1.056a5.39 5.39 0 0 1-.473.201 3.876 3.876 0 0 1-.599.169 3.54 3.54 0 0 1-.698.065c-.557 0-.978-.158-1.264-.473-.245-.271-.385-.65-.42-1.136l-.002-.035h3.874a4.928 4.928 0 0 0-.19-1.496l-.047-.143c-.165-.468-.43-.833-.797-1.094-.366-.261-.846-.392-1.44-.392-.806 0-1.434.245-1.885.735-.45.49-.676 1.21-.676 2.161 0 .617.108 1.14.324 1.568.216.429.524.752.924.97.399.217.87.326 1.412.326Zm1.2-3.484h-2.671l.005-.04c.018-.142.049-.283.09-.42l.03-.09c.106-.287.261-.49.467-.61.205-.12.454-.18.747-.18.455 0 .788.13 1 .387.164.198.271.486.322.862l.01.09v.001Z"/><path fill="#5B5D68" d="M19.102 6.561v-.917h.592c.292 0 .518-.072.678-.216.16-.143.24-.349.24-.618s-.08-.47-.24-.606c-.16-.136-.386-.204-.678-.204H18.68v2.561h.422Zm.538-1.278h-.538v-.926h.538c.11 0 .2.013.269.039a.37.37 0 0 1 .161.105.367.367 0 0 1 .079.152.71.71 0 0 1 0 .342.367.367 0 0 1-.24.251.825.825 0 0 1-.269.037Zm1.662 1.278.251-.695h1.048l.253.695h.445L22.328 4h-.45l-.998 2.561h.422Zm1.173-1.04h-.797l.397-1.1.4 1.1Zm2.336 1.04V5.417L25.74 4h-.458l-.657 1.065L23.943 4h-.518l.964 1.413v1.148h.422Zm3.391 0 .605-1.923.601 1.923h.423L30.61 4h-.458l-.559 2.025L28.99 4h-.365l-.6 2.028L27.457 4h-.456l.775 2.561h.426Zm3.235 0V4h-.426v2.561h.426Zm1.635 0V4.357h.83V4H31.82v.357h.83v2.204h.422Zm1.638 0v-1.09h1.182v1.09h.427V4h-.427v1.102H34.71V4h-.423v2.561h.423Z"/></svg>