<svg xmlns="http://www.w3.org/2000/svg" role="img" viewBox="0 0 38 24" width="38" height="24" aria-labelledby="pi-billerpaynlversion"><title id="pi-billerpaynlversion">Biller (PAY. version)</title><path d="M35 0H3C1.3 0 0 1.3 0 3v18c0 1.7 1.4 3 3 3h32c1.7 0 3-1.3 3-3V3c0-1.7-1.4-3-3-3z" fill="#000" fill-rule="nonzero" opacity=".07" vector-effect="non-scaling-stroke"/><path d="M35 1c1.1 0 2 .9 2 2v18c0 1.1-.9 2-2 2H3c-1.1 0-2-.9-2-2V3c0-1.1.9-2 2-2h32" fill="#002b29" fill-rule="nonzero" vector-effect="non-scaling-stroke"/><path stroke="null" fill="#188571" d="M18.934 5.193h-2.862c-3.098 0-3.411 2.481-3.18 3.722l.863 1.781 1.591.7h4.91c.841-.212 2.239-1.177 2.239-3.34s-2.24-2.863-3.56-2.863z"/><path stroke="null" fill="#209F86" d="M12.856 15.083V8.14c0 2.685 2.962 3.155 4.442 3.055h3.47c3.59 0 4.391 2.592 4.343 3.888 0 2.895-2.993 3.657-4.49 3.676h-4.34c-2.994 0-3.53-2.451-3.425-3.676z"/></svg>