<svg width="38" height="24" viewBox="0 0 38 24" role="img" aria-labelledby="pi-bill" fill="none" xmlns="http://www.w3.org/2000/svg">
    <title id="pi-mada">Bill</title>
    <path
        d="M0 2C12.52 2.01 25.48 2.01 38 2V22.02C31.67 22.01 6.17 22.01 0 22.02V2ZM19.04 3.01C13.07 3.01 7.09 3.01 1.12 3.01C1.13 9.01 1.13 15.02 1.12 21.02C13.04 21.01 24.96 21.01 36.88 21.02C36.87 15.02 36.87 9.01 36.88 3.01C30.93 3.02 24.99 3.01 19.04 3.01V3.01Z"
        fill="#87C60D" />
    <path
        d="M19.04 3.02C24.99 3.02 30.93 3.02 36.88 3.02C36.87 9.02 36.87 15.02 36.88 21.03C24.96 21.02 13.04 21.02 1.12 21.03C1.13 15.03 1.13 9.02 1.12 3.02C7.08999 3.03 13.07 3.02 19.04 3.02V3.02ZM19 20.35H19.45C23.4 20.35 27.35 20.35 31.31 20.35C31.59 20.35 31.84 20.41 31.81 19.82C31.72 18.06 33.22 16.65 34.98 16.61C35.4 16.61 35.49 16.54 35.49 16.24C35.49 13.42 35.49 10.6 35.49 7.78C35.49 7.56 35.45 7.45 35.18 7.42C33.44 7.25 32 5.9 31.82 4.17C31.77 3.69 31.58 3.67 31.21 3.67C23.06 3.67 14.91 3.67 6.76 3.67C6.69 3.67 6.62 3.67 6.56 3.67C6.27 3.65 6.18 3.78 6.18 4.16C6.18 5.92 4.85 7.4 3.09 7.41C2.61 7.41 2.5 7.46 2.51 7.79C2.51 10.61 2.51 13.43 2.51 16.25C2.51 16.47 2.55 16.58 2.82 16.6C4.56 16.77 6 18.12 6.18 19.85C6.23 20.33 6.42 20.35 6.79 20.35C10.86 20.35 14.94 20.35 19.01 20.35H19Z"
        fill="#409617" />
    <path
        d="M19.01 20.35C14.94 20.35 10.86 20.35 6.79001 20.35C6.42001 20.35 6.23001 20.32 6.18001 19.85C6.00001 18.12 4.57001 16.77 2.82001 16.6C2.55001 16.57 2.51001 16.47 2.51001 16.25C2.51001 13.43 2.51001 10.61 2.51001 7.79C2.51001 7.53 2.58001 7.45 2.85001 7.42C4.63001 7.26 6.05001 5.8 6.20001 4.02C6.22001 3.75 6.32001 3.65 6.58001 3.67C6.65001 3.67 6.72001 3.67 6.78001 3.67C14.93 3.67 23.08 3.67 31.23 3.67C31.6 3.67 31.79 3.7 31.84 4.17C32.02 5.9 33.45 7.25 35.2 7.42C35.47 7.45 35.51 7.55 35.51 7.78C35.51 10.6 35.51 13.42 35.51 16.24C35.51 16.5 35.44 16.58 35.17 16.61C33.39 16.77 31.96 18.23 31.83 20.01C31.8 20.4 31.58 20.36 31.33 20.36C27.38 20.36 23.43 20.36 19.47 20.36H19.02L19.01 20.35ZM18.98 17.5C21.98 17.57 24.5 15.11 24.51 12.04C24.52 8.91 21.95 6.53 19.03 6.52C16.03 6.52 13.51 8.92 13.5 11.99C13.49 15.12 16.06 17.55 18.98 17.5V17.5Z"
        fill="#85C50A" />
    <path
        d="M18.98 17.49C16.05 17.54 13.48 15.11 13.5 11.98C13.51 8.91 16.03 6.49999 19.03 6.50999C21.96 6.50999 24.53 8.9 24.51 12.03C24.5 15.1 21.98 17.56 18.98 17.49Z"
        fill="#3D9B15" />
    <path
        d="M19.62 8V8.94C20.18 9 20.65 9.15 21.03 9.39L20.46 10.51C20.13 10.26 19.8 10.13 19.48 10.13C19.28 10.13 19.12 10.18 19 10.27C18.88 10.36 18.81 10.46 18.81 10.58C18.81 10.68 18.86 10.78 18.96 10.87C19.06 10.96 19.19 11.04 19.35 11.09L19.81 11.25C20.32 11.43 20.69 11.64 20.92 11.9C21.15 12.16 21.26 12.49 21.26 12.9C21.26 13.15 21.23 13.37 21.17 13.56C21.11 13.75 21.02 13.92 20.89 14.07C20.76 14.22 20.59 14.35 20.38 14.47C20.17 14.58 19.92 14.69 19.62 14.78V15.74H18.91V14.82C18.75 14.82 18.58 14.8 18.4 14.76C18.22 14.72 18.04 14.67 17.87 14.61C17.69 14.55 17.53 14.47 17.38 14.39C17.23 14.3 17.1 14.22 17 14.12L17.63 12.95C18.12 13.38 18.59 13.59 19.05 13.59C19.24 13.59 19.41 13.54 19.55 13.43C19.69 13.33 19.76 13.19 19.76 13.03C19.76 12.8 19.59 12.63 19.26 12.53L18.82 12.39C18.56 12.31 18.33 12.22 18.15 12.12C17.96 12.02 17.81 11.91 17.69 11.78C17.57 11.65 17.48 11.5 17.43 11.34C17.37 11.18 17.34 10.99 17.34 10.78C17.34 10.57 17.37 10.34 17.44 10.14C17.5 9.93 17.6 9.75 17.73 9.59C17.86 9.43 18.03 9.29 18.22 9.18C18.42 9.07 18.65 9 18.92 8.97V8.03H19.63L19.62 8Z"
        fill="#FAFCF9" />
</svg>