<svg width="38" height="24" viewBox="0 0 38 24" role="img" aria-labelledby="pi-bill" fill="none" xmlns="http://www.w3.org/2000/svg"><title id="pi-mada">Bill</title><path d="M0 2c12.52.01 25.48.01 38 0v20.02c-6.33-.01-31.83-.01-38 0V2zm19.04 1.01H1.12c.01 6 .01 12.01 0 18.01 11.92-.01 23.84-.01 35.76 0-.01-6-.01-12.01 0-18.01-5.95.01-11.89 0-17.84 0z" fill="#87C60D"/><path d="M19.04 3.02h17.84c-.01 6-.01 12 0 18.01-11.92-.01-23.84-.01-35.76 0 .01-6 .01-12.01 0-18.01 5.97.01 11.95 0 17.92 0zM19 20.35H31.31c.28 0 .53.06.5-.53-.09-1.76 1.41-3.17 3.17-3.21.42 0 .51-.07.51-.37V7.78c0-.22-.04-.33-.31-.36-1.74-.17-3.18-1.52-3.36-3.25-.05-.48-.24-.5-.61-.5H6.56c-.29-.02-.38.11-.38.49 0 1.76-1.33 3.24-3.09 3.25-.48 0-.59.05-.58.38v8.46c0 .22.04.33.31.35 1.74.17 3.18 1.52 3.36 3.25.05.48.24.5.61.5h12.22H19z" fill="#409617"/><path d="M19.01 20.35H6.79c-.37 0-.56-.03-.61-.5-.18-1.73-1.61-3.08-3.36-3.25-.27-.03-.31-.13-.31-.35V7.79c0-.26.07-.34.34-.37 1.78-.16 3.2-1.62 3.35-3.4.02-.27.12-.37.38-.35h24.65c.37 0 .56.03.61.5.18 1.73 1.61 3.08 3.36 3.25.27.03.31.13.31.36v8.46c0 .26-.07.34-.34.37a3.708 3.708 0 00-3.34 3.4c-.03.39-.25.35-.5.35H19.02l-.01-.01zm-.03-2.85c3 .07 5.52-2.39 5.53-5.46.01-3.13-2.56-5.51-5.48-5.52-3 0-5.52 2.4-5.53 5.47-.01 3.13 2.56 5.56 5.48 5.51z" fill="#85C50A"/><path d="M18.98 17.49c-2.93.05-5.5-2.38-5.48-5.51.01-3.07 2.53-5.48 5.53-5.47 2.93 0 5.5 2.39 5.48 5.52-.01 3.07-2.53 5.53-5.53 5.46z" fill="#3D9B15"/><path d="M19.62 8v.94c.56.06 1.03.21 1.41.45l-.57 1.12c-.33-.25-.66-.38-.98-.38-.2 0-.36.05-.48.14-.12.09-.19.19-.19.31 0 .1.05.2.15.29.1.09.23.17.39.22l.46.16c.51.18.88.39 1.11.65.23.26.34.59.34 1 0 .25-.03.47-.09.66-.06.19-.15.36-.28.51-.13.15-.3.28-.51.4-.21.11-.46.22-.76.31v.96h-.71v-.92c-.16 0-.33-.02-.51-.06-.18-.04-.36-.09-.53-.15-.18-.06-.34-.14-.49-.22-.15-.09-.28-.17-.38-.27l.63-1.17c.49.43.96.64 1.42.64.19 0 .36-.05.5-.16.14-.1.21-.24.21-.4 0-.23-.17-.4-.5-.5l-.44-.14c-.26-.08-.49-.17-.67-.27-.19-.1-.34-.21-.46-.34-.12-.13-.21-.28-.26-.44-.06-.16-.09-.35-.09-.56 0-.21.03-.44.1-.64.06-.21.16-.39.29-.55.13-.16.3-.3.49-.41.2-.11.43-.18.7-.21v-.94h.71L19.62 8z" fill="#FAFCF9"/></svg>