<svg xmlns="http://www.w3.org/2000/svg" fill="none" viewBox="0 0 38 24" height="24" width="38" aria-labelledby="pi-billinkmethod" role="img"><title id="pi-billinkmethod">Billink</title><path fill="#F28D20" d="M0 0h38v24H0z"/><path fill="#fff" d="M5.973 9.172c-.915 0-1.755.345-2.393.9.158-.375.458-.682.833-.847v-.338c0-.735-.6-1.335-1.335-1.335-.053 0-.105 0-.158.008v-.007h-.585v5.242c0 2.01 1.628 3.63 3.63 3.63A3.628 3.628 0 0 0 7.36 9.447a3.62 3.62 0 0 0-1.387-.275Zm4.725 1.403h1.68v5.865h-1.68v-5.865Zm1.642-2.573c-.106-.1-.228-.18-.36-.24a1.076 1.076 0 0 0-.435-.09c-.157 0-.3.03-.435.09s-.255.143-.352.24c-.098.098-.18.218-.24.353a1.05 1.05 0 0 0-.09.435c0 .158.03.3.09.435s.135.255.24.353c.097.097.217.18.352.24.135.06.285.09.435.09a1.16 1.16 0 0 0 .795-.33 1.102 1.102 0 0 0 0-1.576Zm1.313-.037h1.68v8.475h-1.68V7.965Zm2.955 0h1.68v8.475h-1.68V7.965Zm4.597.037c-.106-.1-.228-.18-.36-.24a1.076 1.076 0 0 0-.435-.09c-.157 0-.3.03-.435.09s-.255.143-.352.24c-.098.098-.18.218-.24.353a1.05 1.05 0 0 0-.09.435c0 .158.03.3.09.435s.135.255.24.353c.097.097.217.18.352.24.135.06.285.09.435.09a1.16 1.16 0 0 0 .795-.33 1.102 1.102 0 0 0 0-1.576Zm-1.642 2.573h1.68v5.865h-1.68v-5.865Zm7.957.045a2.836 2.836 0 0 0-.93-.63c-.7-.3-1.49-.31-2.197-.03a3.106 3.106 0 0 0-.915.562l-.548-.637h-.405v6.555h1.673v-3.743c0-.172.03-.33.097-.487.068-.15.158-.285.27-.398a1.277 1.277 0 0 1 1.38-.27c.15.068.285.158.398.27.112.113.202.248.27.398.067.15.097.315.097.487v3.743h1.673v-3.743c0-.405-.075-.787-.233-1.14a2.905 2.905 0 0 0-.63-.937Zm8.145-.72h-1.927l-2.49 3.158V7.965h-1.68v8.475h1.68v-.84l1.162-1.537 1.328 2.377h1.927l-2.175-3.81 2.175-2.73"/><path fill="#F28D20" d="M7.923 12.803v-.015h-3.9v.014a1.95 1.95 0 1 0 3.9 0v.001Z"/></svg>