<svg xmlns="http://www.w3.org/2000/svg" width="28" height="18" viewBox="0 0 28 18"><path fill="#F1F5F7" d="M-963-1092.975h1107v1785.975h-1107z"/><g><path fill="#fff" d="M28 16.006c0 1.101-.893 1.994-1.994 1.994h-24.012c-1.101 0-1.994-.893-1.994-1.994v-14.012c0-1.101.893-1.994 1.994-1.994h24.011c1.102 0 1.995.893 1.995 1.994v14.012z"/><path opacity=".25" fill="#A7A9AC" d="M26.006 0h-24.012c-1.101 0-1.994.893-1.994 1.994v14.011c0 1.102.893 1.995 1.994 1.995h24.011c1.102 0 1.995-.893 1.995-1.994v-14.012c0-1.101-.893-1.994-1.994-1.994zm.994 15.116c0 1.041-.843 1.884-1.884 1.884h-22.232c-1.041 0-1.884-.843-1.884-1.884v-12.232c0-1.041.843-1.884 1.884-1.884h22.233c1.04 0 1.883.843 1.883 1.884v12.232z"/><path fill="#EDA024" d="M16.373 2.375c-3.659-1.248-7.637.705-8.886 4.364s.705 7.637 4.364 8.886 7.637-.705 8.886-4.364c1.248-3.658-.705-7.637-4.364-8.886z"/><path fill="#fff" d="M11.594 5.76l.3-.879 1.671.57.465-1.362.831.284-.453 1.326.657.224.453-1.326.831.284-.464 1.36.37.183c.294.153.566.335.799.574.229.236.375.511.4.843.021.276-.039.537-.14.791-.17.43-.475.708-.928.816l-.151.032.028.02c.142.094.275.199.392.323.318.34.453.735.361 1.199l-.051.237-.053.155-.022.038-.217.432c-.296.479-.719.761-1.289.812-.427.038-.844-.018-1.257-.119l-.374-.096-.468 1.372-.831-.284.462-1.353-.657-.224-.462 1.353-.831-.284.47-1.377-1.666-.569.506-.932.606.207c.185.062.346-.017.409-.203l1.246-3.65.016-.069c.021-.229-.087-.398-.312-.479l-.587-.205-.06-.024zm1.031 5.23l.054.024c.362.128.724.258 1.102.334.233.047.468.082.708.058.151-.015.3-.039.432-.122.416-.261.498-.832.17-1.207-.147-.168-.33-.293-.523-.401-.295-.164-.612-.279-.932-.383l-.387-.132-.624 1.829zm.905-2.651l.024.011.624.207c.261.084.529.136.802.126.31-.012.586-.107.727-.422.113-.252.11-.499-.034-.736-.107-.176-.274-.291-.447-.393-.271-.16-.565-.265-.865-.357l-.266-.09-.565 1.654z"/></g></svg>
