<?xml version="1.0" encoding="UTF-8"?>
<svg xmlns="http://www.w3.org/2000/svg" xmlns:xlink="http://www.w3.org/1999/xlink" width="38px" height="24px" viewBox="0 0 38 24" version="1.1" style="background: #FFFFFF;" role="img">
    <!-- Generator: Sketch 48.2 (47327) - http://www.bohemiancoding.com/sketch -->
    <title>Bitcoin Cash</title>
    <defs/>
    <g id="Workspace" stroke="none" stroke-width="1" fill="none" fill-rule="evenodd">
        <g id="Artboard-2">
            <g id="Group-6" transform="translate(11.000000, 4.000000)">
                <circle id="Indicator" fill="#8DC451" cx="8" cy="8" r="8"/>
                <g id="Group" transform="translate(5.000000, 3.000000)" fill="#FFFFFF">
                    <path d="M5.28237798,4.82713362 C5.50058707,4.53723476 5.63639394,4.16368921 5.63639394,3.75003906 C5.63639394,2.44794217 4.95463257,1.66668403 3.81836362,1.66668403 L3.81909083,1.66668403 L3.81836362,0.104167752 C3.81836362,0.0466150689 3.77768519,0 3.72746211,0 L3.18205301,0 C3.13305709,0 3.09383309,0.0445317139 3.09187871,0.100105209 L3.09187871,1.66668403 L2.36466658,1.66668403 L2.36393937,0.104167752 C2.36393937,0.0466150689 2.32326094,0 2.27303785,0 L1.72762876,0 C1.67863284,0 1.63940884,0.0445317139 1.63745445,0.100105209 L1.63745445,1.66668403 L0.0908106143,1.6671007 C0.0407238791,1.6671007 0.000272704547,1.71350743 0,1.77074761 L0,2.39575412 C0.00168167804,2.45158804 0.0419965003,2.49992187 0.0911742203,2.49992187 L0.182075736,2.49992187 C0.583678633,2.49992187 0.909287862,2.87305076 0.909287862,3.33326389 L0.910242328,6.66663194 C0.910242328,7.10215731 0.618584815,7.45976521 0.246843066,7.49679684 C0.208255373,7.50059896 0.175939884,7.53216179 0.166531577,7.57518307 L0.0288612313,8.20373129 C0.0220436176,8.23487745 0.0281340191,8.26784654 0.0453598564,8.29321139 C0.0625856936,8.31847207 0.0890380347,8.33331597 0.117035702,8.33331597 L1.63745445,8.33331597 L1.63745445,9.89989479 C1.63940884,9.95562454 1.67863284,10 1.72762876,10 L2.27303785,10 C2.32326094,10 2.36393937,9.95359327 2.36393937,9.89583225 L2.36466658,8.33331597 L3.09187871,8.33331597 L3.09187871,9.89989479 C3.09383309,9.95562454 3.13305709,10 3.18205301,10 L3.72746211,10 C3.77768519,10 3.81836362,9.95359327 3.81836362,9.89583225 L3.81909083,8.33331597 L4.18196968,8.33331597 C5.31823863,8.33331597 6,7.55205783 6,6.24996094 C6,5.64000667 5.70970601,5.1156262 5.28237798,4.82713362 L5.28237798,4.82713362 Z M2.36393937,2.91664497 L3.45475756,2.91664497 C3.85636045,2.91664497 4.18196968,3.28977385 4.18196968,3.74998698 C4.18196968,4.21020011 3.85636045,4.58332899 3.45475756,4.58332899 L2.36393937,4.58332899 L2.36393937,2.91664497 L2.36393937,2.91664497 Z M3.81836362,7.08330295 L2.36393937,7.08330295 L2.36393937,5.41661892 L3.81836362,5.41661892 C4.21996652,5.41661892 4.54557575,5.78974781 4.54557575,6.24996094 C4.54557575,6.71017406 4.21996652,7.08330295 3.81836362,7.08330295 L3.81836362,7.08330295 Z" id="btc" transform="translate(3.000000, 5.000000) rotate(-10.000000) translate(-3.000000, -5.000000) "/>
                </g>
            </g>
        </g>
    </g>
</svg>
