<svg xmlns="http://www.w3.org/2000/svg" xmlns:xlink="http://www.w3.org/1999/xlink" width="113" height="75" viewBox="0 0 113 75">
  <defs>
    <rect id="bitpay-mark-std-a" width="113" height="75" rx="4"/>
  </defs>
  <g fill="none" fill-rule="evenodd">
    <mask id="bitpay-mark-std-b" fill="#fff">
      <use xlink:href="#bitpay-mark-std-a"/>
    </mask>
    <use fill="#2A3F90" xlink:href="#bitpay-mark-std-a"/>
    <g mask="url(#bitpay-mark-std-b)">
      <g transform="translate(13.721 24.387)">
        <path fill="#FFF" d="M87.9571732 7.35172174L83.3833462 7.35172174 80.7365631 18.542159 80.3650848 20.0776451C80.1096934 20.14744 79.8543021 20.2172348 79.5989107 20.2637647 79.1345628 20.3568244 78.6469975 20.4033543 78.1362148 20.4033543 77.5557799 20.4033543 77.091432 20.3102946 76.7431711 20.14744 76.4181275 19.9845854 76.1627362 19.751936 76.0234318 19.4262268 75.8841274 19.1237825 75.8376926 18.7515434 75.86091 18.3327745 75.8841274 17.9140055 75.976997 17.4487067 76.093084 16.9834078L77.4861277 11.1671723 78.3916062 7.30519186 73.7249096 7.30519186 71.6121266 16.2389297C71.3567353 17.309117 71.2174309 18.3327745 71.1709961 19.309902 71.1245613 20.2870296 71.2870831 21.1245675 71.6121266 21.8923106 71.9371702 22.6367888 72.5176051 23.2184123 73.3069965 23.6604462 74.096388 24.1024801 75.2340404 24.3118646 76.6735189 24.3118646 77.6718669 24.3118646 78.5541279 24.2188049 79.2970846 24.0559503 79.320302 24.0559503 79.3667368 24.0326853 79.3899542 24.0326853L79.3899542 24.0326853C79.1809976 24.963283 78.7630845 25.7077612 78.1129974 26.2893847 77.4396929 26.8710083 76.4645623 27.1734525 75.1643882 27.1734525 74.6071707 27.1734525 74.096388 27.1501876 73.63204 27.0803928L72.7265616 30.8725783C73.3302139 30.9423732 74.0035184 30.988903 74.746475 30.988903 76.1395188 30.988903 77.3468234 30.8260485 78.3916062 30.5236042 79.436389 30.197895 80.31865 29.7325962 81.0848241 29.0811778 81.8277807 28.4297594 82.4546504 27.6154864 82.9654331 26.6616238 83.4762158 25.6844962 83.8709116 24.544514 84.1727377 23.1951474L87.3303035 9.88760045 87.3303035 9.88760045 87.9571732 7.35172174 87.9571732 7.35172174zM68.8028217 16.913613C68.524213 18.0768601 68.4313434 19.2633722 68.5474304 20.4266193 68.6635174 21.6131313 69.1278653 23.4045319 69.5689958 24.3118646L65.1576906 24.3118646C64.6236905 23.4045319 64.6469079 22.962498 64.5308209 22.6833187 63.950386 23.1486175 63.3235164 23.5441215 62.6269945 23.8465658 61.9304726 24.14901 61.1642986 24.3118646 60.2820375 24.3118646 59.2604721 24.3118646 58.3782111 24.1257451 57.6584718 23.776771 56.9387325 23.4277968 56.3350802 22.939233 55.8707323 22.3343445 55.4063844 21.729456 55.0813409 21.0315078 54.8723843 20.2172348 54.6634278 19.4029618 54.5705582 18.542159 54.5705582 17.6115613 54.5705582 16.1923998 54.8259495 14.8662981 55.3135148 13.6099912 55.8242975 12.3536843 56.5208194 11.260232 57.4030805 10.3296343 58.2853415 9.39903666 60.4445593 7.3284568 63.9736034 7.3284568L71.0549091 7.3284568 68.8028217 16.913613 68.8028217 16.913613zM65.5756037 11.2137022C63.4396033 11.2137022 63.0449076 11.2137022 62.1626466 11.6557361 61.5357769 11.9814452 61.0249942 12.470009 60.5838637 13.0283676 60.1427331 13.5867263 59.7712548 14.2381446 59.5158635 14.9826228 59.2604721 15.7271009 59.1211677 16.494844 59.1211677 17.2858521 59.1211677 18.2629796 59.2836895 19.0539877 59.608733 19.6356112 59.9337766 20.2172348 60.5374289 20.4964141 61.4196899 20.4964141 61.8840378 20.4964141 62.3251683 20.4033543 62.6966467 20.2172348 63.068125 20.0311153 63.4860381 19.728671 63.9039512 19.2866371 63.950386 18.7748084 64.0200382 18.2397147 64.1129078 17.6813561 64.2057774 17.1229975 64.3218644 16.5879038 64.414734 16.122605L65.5756037 11.2137022 65.5756037 11.2137022zM53.3168188 14.07529C53.3168188 15.5875113 53.0614275 16.9601429 52.5738621 18.2164498 52.0862968 19.4727566 51.389775 20.542944 50.5075139 21.4502767 49.6252529 22.3576095 48.5804701 23.0555577 47.3499481 23.5673865 46.1194261 24.0792152 44.7960346 24.3351296 43.3565561 24.3351296 42.6600342 24.3351296 41.9635123 24.2653347 41.243773 24.14901L39.8507293 29.7558611 35.2769023 29.7558611 40.593686 7.37498669 46.699861 7.37498669C47.8607308 7.37498669 48.8590788 7.56110622 49.6716877 7.91008036 50.5075139 8.25905449 51.1808184 8.74761828 51.7380359 9.35250678 52.272036 9.95739527 52.6667317 10.6786085 52.9221231 11.4928815 53.2007318 12.2838895 53.3168188 13.1446924 53.3168188 14.07529L53.3168188 14.07529zM42.1028167 20.4266193C42.4510776 20.519679 42.8922081 20.542944 43.4029908 20.542944 44.2155997 20.542944 44.935339 20.4033543 45.6086434 20.1009101 46.2587305 19.7984658 46.8391654 19.3796969 47.3035133 18.8446032 47.7678612 18.3095095 48.1161222 17.6580911 48.3947309 16.913613 48.6501223 16.1691348 48.7894266 15.3315969 48.7894266 14.4242642 48.7894266 13.5401964 48.6036875 12.7724533 48.2089918 12.1675648 47.814296 11.5394113 47.1409915 11.2137022 46.1658609 11.2137022L44.3549041 11.2137022 42.1028167 20.4266193 42.1028167 20.4266193zM32.4908149 20.4266193C31.91038 20.4266193 31.4460321 20.3335595 31.0977711 20.1707049 30.7727276 20.0078503 30.5173362 19.7752009 30.3780319 19.4494917 30.2387275 19.1470475 30.1922927 18.7748084 30.2155101 18.3560394 30.2387275 17.9372705 30.3315971 17.4719716 30.447684 17.0066728L31.8407278 11.1904372 37.0414244 11.1904372 37.9933376 7.3284568 32.7694236 7.3284568 33.9767282 2.44281893 29.1010751 3.21056203 26.0131615 16.2854596C25.7577701 17.3556469 25.6184657 18.3793044 25.5720309 19.3564319 25.5255962 20.3335595 25.6881179 21.1710974 26.0131615 21.9388405 26.338205 22.6833187 26.9186399 23.2649422 27.7080313 23.7069761 28.4974228 24.14901 29.6350752 24.3583945 31.0745537 24.3583945 32.0729017 24.3583945 32.9551628 24.2653347 33.6981194 24.1024801 33.7677716 24.0792152 33.8838586 24.0559503 33.9535108 24.0326853L34.905424 20.0543802C34.5803805 20.1707049 34.2553369 20.2404997 33.9535108 20.2870296 33.4891629 20.3800894 33.0015976 20.4266193 32.4908149 20.4266193L32.4908149 20.4266193z"/>
        <polygon fill="#FFF" points="20.859 7.352 16.819 24.335 21.393 24.335 25.41 7.352"/>
        <polygon fill="#FFF" points="25.897 5.397 26.594 2.443 22.02 2.443 21.323 5.397"/>
        <path fill="#FFF" d="M10.7361151,7.37498669 C11.7112457,7.37498669 12.5702893,7.56110622 13.2900286,7.91008036 C14.0097679,8.25905449 14.5902028,8.72435333 15.0777681,9.32924183 C15.542116,9.93413033 15.8903769,10.6320786 16.1225509,11.4230866 C16.3547248,12.2140947 16.4708118,13.0748975 16.4708118,14.0054952 C16.4708118,15.4246567 16.2154205,16.7507584 15.6814204,18.0303302 C15.1474203,19.2866371 14.4508984,20.4033543 13.54542,21.333952 C12.6399415,22.2645497 11.5719413,23.0090279 10.3414194,23.5441215 C9.11089739,24.0792152 7.78750583,24.3583945 6.3480273,24.3583945 C6.16228813,24.3583945 5.83724459,24.3583945 5.37289668,24.3351296 C4.90854877,24.3351296 4.37454866,24.2885997 3.79411377,24.1955399 C3.19046148,24.1024801 2.5635918,23.9861554 1.91350472,23.8233008 C1.24020024,23.6604462 0.613330561,23.4277968 0.0328956681,23.1486175 L5.34967928,0.767743093 L10.1092454,0.0232649422 L8.22863635,7.95661024 C8.64654947,7.7704907 9.01802781,7.63090105 9.43594093,7.53784128 C9.83063665,7.42151657 10.2717672,7.37498669 10.7361151,7.37498669 L10.7361151,7.37498669 Z M6.74272303,20.542944 C7.46246229,20.542944 8.13576677,20.3800894 8.76263645,20.0078503 C9.38950614,19.6588762 9.94672363,19.1935773 10.4110715,18.6119538 C10.8754195,18.0303302 11.2468978,17.3556469 11.5022891,16.6344337 C11.7576805,15.8899555 11.8969849,15.1222124 11.8969849,14.3312044 C11.8969849,13.3540768 11.7344631,12.5863337 11.4094196,12.0279751 C11.084376,11.4696165 10.4110715,11.2137022 9.52881051,11.2137022 C9.25020176,11.2137022 8.94837562,11.2369671 8.4840277,11.3532918 C8.01967979,11.4463516 7.62498406,11.679001 7.25350573,12.0047102 L5.2568097,20.4498842 C5.86046199,20.542944 6.04620116,20.5662089 6.20872293,20.5662089 C6.3248099,20.542944 6.51054907,20.542944 6.74272303,20.542944 L6.74272303,20.542944 Z"/>
      </g>
    </g>
  </g>
</svg>
