<svg width="326" height="77" xmlns="http://www.w3.org/2000/svg" xmlns:xlink="http://www.w3.org/1999/xlink"><defs><path d="M25.446 50.893c14.054 0 25.447-11.393 25.447-25.447C50.893 11.393 39.5 0 25.446 0 11.393 0 0 11.393 0 25.446 0 39.5 11.393 50.893 25.446 50.893z" id="a"/><path d="M25.446 50.893c14.054 0 25.447-11.393 25.447-25.447C50.893 11.393 39.5 0 25.446 0 11.393 0 0 11.393 0 25.446 0 39.5 11.393 50.893 25.446 50.893z" id="b"/><path d="M25.446 50.893c14.054 0 25.447-11.393 25.447-25.447C50.893 11.393 39.5 0 25.446 0 11.393 0 0 11.393 0 25.446 0 39.5 11.393 50.893 25.446 50.893z" id="c"/><path d="M25.446 50.893c14.054 0 25.447-11.393 25.447-25.447C50.893 11.393 39.5 0 25.446 0 11.393 0 0 11.393 0 25.446 0 39.5 11.393 50.893 25.446 50.893z" id="d"/></defs><g fill="none" fill-rule="evenodd"><g transform="translate(1 1)"><rect stroke-opacity=".142" stroke="#9BA3AE" fill="#FFF" width="75" height="75" rx="4"/><use fill="#F7931A" xlink:href="#a" transform="translate(13.393 13.393)"/><path d="M44.884 35.927c-.688 2.787-5.202 1.44-6.674 1.096l1.243-4.948c1.439.344 6.15.94 5.43 3.852zm-.72 7.986c-.753 3.07-6.184 1.472-7.917 1.065l1.341-5.45c1.766.408 7.36 1.16 6.575 4.385zm5.823-7.986c.425-3.007-1.963-4.573-5.235-5.638l1.015-4.071-2.585-.595-.98 3.977a47.65 47.65 0 00-2.062-.438l.981-3.978-2.617-.595-1.014 4.072c-.556-.125-1.112-.22-1.669-.345l-3.565-.814-.655 2.631s1.93.407 1.865.438c1.047.25 1.243.909 1.21 1.41l-1.144 4.635c.065.031.163.031.261.094-.098-.032-.163-.032-.261-.063L31.96 43.13c-.13.313-.458.751-1.177.595.032.032-1.898-.438-1.898-.438l-1.243 2.85 3.37.751c.621.157 1.243.282 1.832.439L31.83 51.43l2.585.594 1.014-4.07c.72.187 1.407.344 2.061.5l-1.014 4.04 2.584.595 1.014-4.102c4.417.752 7.72.407 9.062-3.445 1.08-3.07-.098-4.823-2.453-5.982 1.734-.376 2.976-1.44 3.304-3.633z" fill="#FFF"/></g><g transform="translate(84 1)"><rect stroke-opacity=".142" stroke="#9BA3AE" fill="#FFF" width="75" height="75" rx="4"/><use fill="#2FCF6E" xlink:href="#b" transform="translate(13.393 13.393)"/><path d="M42.433 33.078c.884 2.71-3.654 3.969-5.083 4.459l-1.548-4.824c1.401-.472 5.71-2.468 6.631.365zm3.59 7.103c.976 2.982-4.47 4.516-6.154 5.092l-1.728-5.298c1.712-.593 6.851-2.925 7.882.206zm-6.666-11.779l-1.281-3.964-2.505.87 1.26 3.867c-.665.232-1.33.464-1.978.723l-1.26-3.868-2.532.886 1.281 3.964c-.538.19-1.059.405-1.597.594l-3.451 1.205.828 2.561s1.851-.68 1.812-.62c1.02-.343 1.532.106 1.768.545l1.467 4.508c.071-.008.155-.06.271-.06-.1.026-.155.061-.255.087l2.078 6.288c.054.333.007.876-.685 1.126.043.008-1.84.636-1.84.636l.444 3.057 3.253-1.152c.61-.198 1.203-.422 1.784-.603l1.298 3.991 2.505-.869-1.281-3.964c.709-.223 1.374-.455 2.011-.67l1.265 3.938 2.504-.87-1.297-3.99c4.14-1.707 6.76-3.748 5.873-7.7-.7-3.157-2.62-4.009-5.227-3.736 1.272-1.235 1.767-2.79.891-4.808-1.22-2.757-4.07-2.809-7.404-1.972z" fill="#FFF"/></g><g transform="translate(167 1)"><rect stroke-opacity=".142" stroke="#9BA3AE" fill="#FFF" width="75" height="75" rx="4"/><use fill="#6B71D6" xlink:href="#c" transform="translate(13.393 13.393)"/><path d="M39.202 22.37c-.074.178-2.306 3.966-4.96 8.417-2.655 4.451-4.849 8.151-4.876 8.223-.035.093 1.407 1 5.057 3.178l5.106 3.05 5.105-3.051c3.667-2.192 5.09-3.088 5.055-3.181-.185-.486-10.111-16.961-10.22-16.961-.073 0-.193.146-.267.325m-9.824 18.832c.197.34 10.109 14.433 10.15 14.432.069-.002 10.202-14.473 10.163-14.513-.037-.037-9.509 5.6-9.904 5.895l-.242.18-4.905-2.926a931.636 931.636 0 01-5.125-3.07c-.202-.131-.214-.131-.137.002" fill="#E9ECFF"/></g><g transform="translate(250 1)"><rect stroke-opacity=".142" stroke="#9BA3AE" fill="#FFF" width="75" height="75" rx="4"/><g transform="translate(13.393 13.393)"><use fill="#000" xlink:href="#d"/><path d="M33.964 14.732h3.485l-7.253 7.52c-2.626 2.723-6.884 2.723-9.504 0l-7.254-7.52h3.485l5.508 5.713a4.152 4.152 0 006.02 0l5.513-5.713zM16.877 35.65h-3.484l7.299-7.571a6.557 6.557 0 019.51 0L37.5 35.65h-3.484l-5.554-5.763a4.152 4.152 0 00-6.02 0l-5.565 5.763z" fill="#FFF" fill-rule="nonzero" mask="url(#mask-8)"/></g></g></g></svg>