<svg xmlns="http://www.w3.org/2000/svg" xmlns:xlink="http://www.w3.org/1999/xlink" width="113" height="75"><defs><rect id="a" width="113" height="75" rx="4"/></defs><g fill="none" fill-rule="evenodd"><use fill="#2A3F90" xlink:href="#a"/><g fill="#FFF" mask="url(#bitpay-mark-std-b)"><path d="M101.678 31.739h-4.574l-2.646 11.19-.372 1.536c-.255.07-.51.14-.766.186a7.43 7.43 0 01-1.463.14c-.58 0-1.045-.094-1.393-.257-.325-.162-.58-.395-.72-.72-.139-.303-.185-.675-.162-1.094.023-.419.116-.884.232-1.35l1.393-5.816.906-3.862h-4.667l-2.113 8.934a16.595 16.595 0 00-.441 3.07c-.046.978.116 1.816.441 2.583.325.745.906 1.326 1.695 1.768.79.442 1.927.652 3.367.652.998 0 1.88-.093 2.623-.256.023 0 .07-.023.093-.023-.209.93-.627 1.675-1.277 2.256-.673.582-1.648.884-2.949.884-.557 0-1.068-.023-1.532-.093l-.905 3.793c.603.07 1.277.116 2.02.116 1.393 0 2.6-.163 3.645-.465 1.044-.326 1.927-.791 2.693-1.443.743-.651 1.37-1.466 1.88-2.42.511-.977.906-2.116 1.208-3.466l3.157-13.307.627-2.536zM82.524 41.3a10.579 10.579 0 00-.256 3.513c.117 1.186.58 2.978 1.022 3.885h-4.411c-.534-.907-.511-1.35-.627-1.629-.58.466-1.207.861-1.904 1.164-.697.302-1.463.465-2.345.465-1.022 0-1.904-.186-2.624-.535a4.959 4.959 0 01-1.787-1.443c-.465-.605-.79-1.302-.999-2.117-.209-.814-.301-1.675-.301-2.605 0-1.42.255-2.746.743-4.002a10.416 10.416 0 012.09-3.28c.881-.931 3.04-3.002 6.57-3.002h7.08l-2.251 9.586zm-3.227-5.7c-2.136 0-2.531 0-3.413.442-.627.325-1.138.814-1.58 1.372a6.597 6.597 0 00-1.067 1.955 7.06 7.06 0 00-.395 2.303c0 .977.163 1.768.488 2.35.325.581.928.86 1.81.86a2.86 2.86 0 001.278-.279c.371-.186.789-.488 1.207-.93.046-.512.116-1.047.209-1.606.093-.558.209-1.093.302-1.558l1.16-4.91zm-12.26 2.861c0 1.513-.255 2.885-.742 4.141a9.527 9.527 0 01-2.066 3.234c-.883.908-1.928 1.606-3.158 2.117-1.23.512-2.554.768-3.993.768-.697 0-1.393-.07-2.113-.186l-1.393 5.607h-4.574l5.317-22.381h6.106c1.16 0 2.16.186 2.972.535.836.35 1.509.838 2.066 1.443a5.842 5.842 0 011.184 2.14c.279.79.395 1.652.395 2.582zm-11.213 6.352c.348.093.79.116 1.3.116.813 0 1.532-.14 2.206-.442a5.043 5.043 0 001.695-1.256c.464-.535.812-1.187 1.09-1.931a7.666 7.666 0 00.395-2.49c0-.884-.185-1.652-.58-2.256-.395-.629-1.068-.954-2.043-.954h-1.811l-2.252 9.213zm-9.612 0c-.58 0-1.045-.093-1.393-.256-.325-.163-.58-.396-.72-.722-.14-.302-.186-.674-.162-1.093.023-.419.116-.884.232-1.35l1.393-5.816h5.2l.952-3.862H46.49l1.208-4.885-4.876.768-3.088 13.074a16.595 16.595 0 00-.441 3.071c-.046.978.116 1.815.441 2.583.325.744.906 1.326 1.695 1.768.79.442 1.927.651 3.367.651.998 0 1.88-.093 2.623-.256.07-.023.186-.046.256-.07l.951-3.978c-.325.117-.65.186-.951.233a7.43 7.43 0 01-1.463.14zM34.58 31.739l-4.04 16.983h4.574l4.017-16.983zM39.618 29.784l.697-2.954h-4.574l-.697 2.954zM24.457 31.762c.975 0 1.834.186 2.554.535.72.35 1.3.814 1.788 1.42a6.328 6.328 0 011.045 2.093c.232.791.348 1.652.348 2.582 0 1.42-.256 2.746-.79 4.025-.534 1.257-1.23 2.373-2.136 3.304a9.995 9.995 0 01-3.204 2.21 9.884 9.884 0 01-3.993.814c-.186 0-.51 0-.975-.023-.464 0-.998-.046-1.579-.14-.604-.093-1.23-.209-1.88-.372a9.47 9.47 0 01-1.881-.674l5.317-22.381 4.76-.745-1.881 7.934c.418-.187.789-.326 1.207-.42a4.631 4.631 0 011.3-.162zM20.464 44.93c.72 0 1.393-.163 2.02-.535a5.557 5.557 0 001.648-1.396 6.838 6.838 0 001.091-1.978 7.06 7.06 0 00.395-2.303c0-.977-.163-1.745-.488-2.303-.325-.558-.998-.814-1.88-.814-.279 0-.58.023-1.045.14-.464.092-.859.325-1.23.65l-1.997 8.446c.603.093.79.116.952.116.116-.023.302-.023.534-.023z"/></g></g></svg>