<svg xmlns="http://www.w3.org/2000/svg" width="38" height="24" fill="none" aria-labelledby="pi-blik" role="img" viewBox="0 0 38 24"><title id="pi-blik">BLIK</title><path fill="url(#pi-blik-linear-gradient)" d="M0 0h38v24H0z"/><path fill="#fff" d="m30.343 17.155-2.785-3.639 2.563-3.236h-2.185l-2.456 3.138V6.78h-1.848v10.375h1.848v-3.532l2.456 3.532zM18.613 6.78h-1.848v10.366h1.848zm3.433 3.508h-1.848v6.867h1.848z"/><path fill="url(#pi-blik-radial-gradient)" d="M13.849 9.573a1.651 1.651 0 1 0 0-3.302 1.651 1.651 0 0 0 0 3.302"/><path fill="#fff" d="M12.041 10.206c-.574 0-1.138.144-1.642.419V6.82H8.534v6.9a3.516 3.516 0 1 0 3.507-3.515Zm0 5.175a1.644 1.644 0 1 1 0-3.287 1.644 1.644 0 0 1 0 3.287"/><defs><radialGradient id="pi-blik-radial-gradient" cx="0" cy="0" r="1" gradientTransform="matrix(5 0 0 5 12.51 6.18)" gradientUnits="userSpaceOnUse"><stop stop-color="red"/><stop offset=".49" stop-color="#E83E49"/><stop offset="1" stop-color="#F0F"/></radialGradient><linearGradient id="pi-blik-linear-gradient" x1="19" x2="19" y1="4.339" y2="59.569" gradientUnits="userSpaceOnUse"><stop/><stop offset=".732" stop-color="#fff"/><stop offset="1" stop-color="#fff"/></linearGradient></defs></svg>