<?xml version="1.0" encoding="UTF-8"?>
<svg xmlns="http://www.w3.org/2000/svg" xmlns:xlink="http://www.w3.org/1999/xlink" width="90px" height="38px" viewBox="0 0 90 38" version="1.1">
<defs>
<linearGradient id="linear0" gradientUnits="userSpaceOnUse" x1="19" y1="4.977" x2="19" y2="55.605" gradientTransform="matrix(2.368421,0,0,1.583333,0,0)">
<stop offset="0" style="stop-color:rgb(0%,0%,0%);stop-opacity:1;"/>
<stop offset="0.732" style="stop-color:rgb(100%,100%,100%);stop-opacity:1;"/>
<stop offset="1" style="stop-color:rgb(100%,100%,100%);stop-opacity:1;"/>
</linearGradient>
<radialGradient id="radial0" gradientUnits="userSpaceOnUse" cx="0" cy="0" fx="0" fy="0" r="1" gradientTransform="matrix(12.820192,0,0,8.570536,29.628948,9.785)">
<stop offset="0" style="stop-color:rgb(100%,0%,0%);stop-opacity:1;"/>
<stop offset="0.49" style="stop-color:rgb(90.980392%,24.313725%,28.627451%);stop-opacity:1;"/>
<stop offset="1" style="stop-color:rgb(100%,0%,100%);stop-opacity:1;"/>
</radialGradient>
</defs>
<g id="surface1">
<path style=" stroke:none;fill-rule:nonzero;fill:rgb(100%,100%,100%);fill-opacity:1;" d="M 82.894531 1.582031 C 85.5 1.582031 87.632812 3.007812 87.632812 4.75 L 87.632812 33.25 C 87.632812 34.992188 85.5 36.417969 82.894531 36.417969 L 7.105469 36.417969 C 4.5 36.417969 2.367188 34.992188 2.367188 33.25 L 2.367188 4.75 C 2.367188 3.007812 4.5 1.582031 7.105469 1.582031 L 82.894531 1.582031 "/>
<path style=" stroke:none;fill-rule:nonzero;fill:url(#linear0);" d="M 82.894531 1.582031 C 85.5 1.582031 87.632812 3.007812 87.632812 4.75 L 87.632812 33.25 C 87.632812 34.992188 85.5 36.417969 82.894531 36.417969 L 7.105469 36.417969 C 4.5 36.417969 2.367188 34.992188 2.367188 33.25 L 2.367188 4.75 C 2.367188 3.007812 4.5 1.582031 7.105469 1.582031 Z M 82.894531 1.582031 "/>
<path style=" stroke:none;fill-rule:nonzero;fill:rgb(100%,100%,100%);fill-opacity:1;" d="M 71.863281 27.160156 L 65.269531 21.398438 L 71.339844 16.277344 L 66.164062 16.277344 L 60.347656 21.246094 L 60.347656 10.734375 L 55.96875 10.734375 L 55.96875 27.160156 L 60.347656 27.160156 L 60.347656 21.570312 L 66.164062 27.160156 Z M 44.082031 10.734375 L 39.707031 10.734375 L 39.707031 27.148438 L 44.082031 27.148438 Z M 52.214844 16.289062 L 47.835938 16.289062 L 47.835938 27.160156 L 52.214844 27.160156 Z M 52.214844 16.289062 "/>
<path style=" stroke:none;fill-rule:nonzero;fill:url(#radial0);" d="M 32.800781 15.15625 C 34.960938 15.15625 36.710938 13.988281 36.710938 12.542969 C 36.710938 11.097656 34.960938 9.929688 32.800781 9.929688 C 30.640625 9.929688 28.890625 11.097656 28.890625 12.542969 C 28.890625 13.988281 30.640625 15.15625 32.800781 15.15625 Z M 32.800781 15.15625 "/>
<path style=" stroke:none;fill-rule:nonzero;fill:rgb(100%,100%,100%);fill-opacity:1;" d="M 28.519531 16.160156 C 27.160156 16.160156 25.824219 16.386719 24.628906 16.824219 L 24.628906 10.796875 L 20.210938 10.796875 L 20.210938 21.722656 C 20.210938 24.800781 23.941406 27.292969 28.546875 27.292969 C 33.148438 27.289062 36.875 24.792969 36.867188 21.714844 C 36.859375 18.640625 33.121094 16.148438 28.519531 16.15625 Z M 28.519531 24.351562 C 26.367188 24.351562 24.625 23.1875 24.625 21.75 C 24.625 20.316406 26.367188 19.152344 28.519531 19.152344 C 30.667969 19.152344 32.410156 20.316406 32.410156 21.75 C 32.410156 23.1875 30.667969 24.351562 28.519531 24.351562 Z M 28.519531 24.351562 "/>
</g>
</svg>
