<svg xmlns="http://www.w3.org/2000/svg" role="img" viewBox="0 0 38 24" width="38" height="24" aria-labelledby="pi-blink">
    <title id="pi-blink">blink</title>
	<rect fill="#FFFFFF" width="38" height="24"/>
    <g>
		<path fill="#010202" d="M19.79,18.72c0,0.19,0.13,0.33,0.3,0.33c0.17,0,0.3-0.14,0.3-0.33c0-0.19-0.13-0.33-0.3-0.33
			C19.91,18.39,19.79,18.53,19.79,18.72 M19.8,17.93v0.5c0.08-0.11,0.19-0.16,0.31-0.16c0.25,0,0.41,0.22,0.41,0.45
			c0,0.25-0.16,0.45-0.41,0.45c-0.14,0-0.26-0.07-0.32-0.18l-0.02,0.16h-0.11v-1.22H19.8z"/>
		<path fill="#010202" d="M20.74,18.28L21.01,19h0.01l0.27-0.72h0.14l-0.36,0.9c-0.05,0.13-0.12,0.25-0.26,0.25
			c-0.05,0-0.1-0.01-0.16-0.03l0.03-0.13c0.03,0.01,0.09,0.02,0.12,0.02c0.08,0,0.11-0.08,0.14-0.15l-0.34-0.86H20.74z"/>
		<path fill="#010202" d="M28.68,18.37v1.78c0,0.14-0.11,0.26-0.26,0.26c-0.14,0-0.25-0.11-0.25-0.26v-1.78h-0.62
			c-0.14,0-0.25-0.11-0.25-0.26c0-0.14,0.11-0.25,0.25-0.25h1.75c0.14,0,0.26,0.11,0.26,0.25c0,0.14-0.11,0.26-0.26,0.26H28.68z"/>
		<path fill="#010202" d="M32.92,19.89h0.67c0.14,0,0.25,0.11,0.25,0.25c0,0.14-0.11,0.25-0.25,0.25h-0.67c-0.42,0-0.76-0.34-0.76-0.76
			v-1.53c0-0.14,0.11-0.26,0.25-0.26c0.14,0,0.25,0.12,0.25,0.26v1.53C32.67,19.78,32.78,19.89,32.92,19.89"/>
		<path fill="#010202" d="M22.21,19.64c0,0.14,0.12,0.26,0.26,0.26h1.23c0.14,0,0.25,0.11,0.25,0.25c0,0.14-0.11,0.25-0.25,0.25h-1.23
			c-0.42,0-0.76-0.34-0.76-0.76v-1.02c0-0.42,0.34-0.76,0.76-0.76h1.23c0.14,0,0.25,0.11,0.25,0.25c0,0.14-0.11,0.25-0.25,0.25h-1.23
			c-0.14,0-0.26,0.11-0.26,0.26v0.25h1.49c0.14,0,0.25,0.11,0.25,0.25c0,0.14-0.11,0.25-0.25,0.25h-1.49V19.64z"/>
		<path fill="#010202" d="M30.15,19.64c0,0.14,0.12,0.26,0.26,0.26h1.23c0.14,0,0.25,0.11,0.25,0.25c0,0.14-0.11,0.25-0.25,0.25h-1.23
			c-0.42,0-0.76-0.34-0.76-0.76v-1.02c0-0.42,0.34-0.76,0.76-0.76h1.23c0.14,0,0.25,0.11,0.25,0.25c0,0.14-0.11,0.25-0.25,0.25h-1.23
			c-0.14,0-0.26,0.11-0.26,0.26v0.25h1.49c0.14,0,0.25,0.11,0.25,0.25c0,0.14-0.11,0.25-0.25,0.25h-1.49V19.64z"/>
		<path fill="#010202" d="M27.08,18.11c0-0.14-0.11-0.26-0.26-0.26c-0.09,0-0.18,0.05-0.22,0.13l0,0l-0.95,1.65l-0.95-1.65l0,0
			c-0.04-0.08-0.13-0.13-0.22-0.13c-0.14,0-0.26,0.11-0.26,0.26v2.03c0,0.14,0.11,0.26,0.26,0.26c0.14,0,0.26-0.11,0.26-0.26l0,0
			v-1.08l0.7,1.21l0,0c0.04,0.08,0.13,0.13,0.22,0.13c0.09,0,0.18-0.05,0.22-0.13l0,0l0.7-1.21v1.08v0c0,0.14,0.11,0.26,0.26,0.26
			c0.14,0,0.26-0.11,0.26-0.26V18.11z"/>
		<path fill="#E30613" d="M13.76,16.53h2.08V5.09c0-1.15-0.93-2.08-2.08-2.08V16.53z"/>
		<path fill="#E30613" d="M18.79,9.45v7.08h-2.08V7.37C17.86,7.37,18.79,8.3,18.79,9.45"/>
		<path fill="#E30613" d="M18.79,7.55v0.7c-0.46-0.77-1.23-1.2-2.08-1.2V5.47C17.86,5.47,18.79,6.4,18.79,7.55"/>
		<path fill="#E30613" d="M8.44,14.46c-1.28,0-2.32-1.04-2.32-2.32V9.82h2.32c1.28,0,2.32,1.04,2.32,2.32
			C10.76,13.42,9.72,14.46,8.44,14.46 M4.91,14.75c0.13,0.17,0.27,0.34,0.43,0.49c0.83,0.83,1.93,1.29,3.1,1.29
			c2.42,0,4.39-1.97,4.39-4.39c0-2.42-1.97-4.39-4.39-4.39H6.12V4.95c0-0.5-0.31-1.11-0.75-1.46C5.03,3.21,4.62,3.04,4.18,3.01H4.05
			v1.78V5v3.4v3.74c0,0.12,0.01,0.24,0.02,0.36c0.03,0.31,0.08,0.62,0.17,0.92c0.07,0.22,0.15,0.43,0.25,0.63
			c0.05,0.11,0.11,0.22,0.18,0.33c0.07,0.11,0.14,0.22,0.21,0.32L4.91,14.75z"/>
		<path fill="#E1261D" d="M21.67,9.17c0,0.01,0,0.02,0,0.03C21.67,9.19,21.67,9.18,21.67,9.17"/>
		<path fill="#E1261D" d="M21.67,9.2c0,0.01,0,0.02,0,0.03C21.67,9.22,21.67,9.21,21.67,9.2"/>
		<path fill="#E1261D" d="M21.66,9.14c0,0.01,0,0.02,0,0.02C21.67,9.16,21.66,9.15,21.66,9.14"/>
		<path fill="#E1261D" d="M21.68,9.23c0,0.03,0.01,0.05,0.01,0.08C21.68,9.29,21.68,9.26,21.68,9.23"/>
		<path fill="#E1261D" d="M21.68,9.32c0,0.01,0,0.03,0,0.04C21.69,9.35,21.69,9.33,21.68,9.32"/>
		<path fill="#E1261D" d="M21.65,9.09c0,0.01,0.01,0.03,0.01,0.04C21.66,9.12,21.66,9.11,21.65,9.09"/>
		<path fill="#E1261D" d="M21.64,9.03c0,0,0,0.01,0,0.02C21.64,9.04,21.64,9.04,21.64,9.03"/>
		<polyline fill="#E1261D" points="21.64,9.02 21.64,9.03 21.64,9.02 	"/>
		<polyline fill="#E1261D" points="21.64,9.02 21.64,9.02 21.64,9.02 21.64,9.02 	"/>
		<polyline fill="#E1261D" points="21.64,9.03 21.64,9.03 21.64,9.03 	"/>
		<path fill="#E1261D" d="M21.65,9.08c0,0,0,0.01,0,0.02C21.65,9.09,21.65,9.08,21.65,9.08"/>
		<path fill="#E1261D" d="M21.65,9.06c0,0,0,0.01,0,0.01C21.65,9.07,21.65,9.07,21.65,9.06"/>
		<path fill="#E1261D" d="M21.69,9.37c0,0.01,0,0.03,0,0.05C21.69,9.4,21.69,9.39,21.69,9.37"/>
		<polyline fill="#E1261D" points="21.65,9.05 21.65,9.06 21.65,9.05 	"/>
		<path fill="#E1261D" d="M21.69,9.42c0,0.06,0.01,0.12,0.01,0.19C21.7,9.54,21.7,9.48,21.69,9.42"/>
		<path fill="#E1261D" d="M21.71,9.61c0,0.02,0,0.05,0,0.07C21.71,9.66,21.71,9.64,21.71,9.61"/>
		<path fill="#E1261D" d="M21.71,9.69c0,0.02,0,0.05,0,0.07C21.71,9.74,21.71,9.72,21.71,9.69"/>
		<path fill="#E1261D" d="M21.72,9.77c0,0.08,0.01,0.17,0.01,0.28C21.72,9.95,21.72,9.86,21.72,9.77"/>
		<path fill="#E30613" d="M26.55,10.68c-0.58-1.22-1.83-2.05-3.27-2.05c-0.46,0-0.91,0.09-1.32,0.25v2.54c0.28-0.43,0.76-0.72,1.31-0.72
			c0.86,0,1.55,0.7,1.55,1.55v3.28v1.01h2.08v-4.28C26.9,11.69,26.77,11.15,26.55,10.68"/>
		<path fill="#E1261D" d="M21.73,10.12c0-0.02,0-0.05,0-0.07C21.73,10.07,21.73,10.1,21.73,10.12L21.73,10.12z"/>
		<path fill="#E30613" d="M21.73,10.12c0-0.02,0-0.05,0-0.07v0c0-0.1-0.01-0.19-0.01-0.28c0,0,0-0.01,0-0.01c0-0.02,0-0.05,0-0.07
			c0,0,0-0.01,0-0.01c0-0.02,0-0.05,0-0.07v0c0-0.07-0.01-0.13-0.01-0.19c0,0,0,0,0-0.01c0-0.02,0-0.03,0-0.05c0,0,0,0,0-0.01
			c0-0.02,0-0.03,0-0.04c0,0,0,0,0,0c0-0.03-0.01-0.06-0.01-0.08c0,0,0,0,0,0c0-0.01,0-0.02,0-0.03c0,0,0,0,0,0c0-0.01,0-0.02,0-0.03
			c0,0,0,0,0-0.01c0-0.01,0-0.02,0-0.02v0c0-0.02-0.01-0.03-0.01-0.04c0,0,0,0,0,0c0-0.01,0-0.01,0-0.02c0,0,0,0,0,0
			c0,0,0-0.01,0-0.01c0,0,0,0,0,0c0,0,0-0.01,0-0.01c0,0,0,0,0,0c0-0.01,0-0.01,0-0.02l0,0c0,0,0,0,0,0c0,0,0,0,0,0c0,0,0,0,0,0
			c0,0,0,0,0,0c0,0,0,0,0,0c-0.27-0.75-1.05-1.29-1.97-1.29v8.81h2.07v-0.08V16.4V10.12z"/>
		<polyline fill="#E1261D" points="21.64,9.03 21.64,9.03 21.64,9.03 	"/>
		<polyline fill="#E1261D" points="21.65,9.06 21.65,9.06 21.65,9.06 	"/>
		<polyline fill="#E1261D" points="21.65,9.05 21.65,9.05 21.65,9.05 	"/>
		<polyline fill="#E1261D" points="21.64,9.03 21.64,9.03 21.64,9.03 	"/>
		<polyline fill="#E1261D" points="21.64,9.02 21.64,9.02 21.64,9.02 	"/>
		<polyline fill="#E1261D" points="21.68,9.32 21.68,9.32 21.68,9.32 	"/>
		<polyline fill="#E1261D" points="21.65,9.07 21.65,9.08 21.65,9.07 	"/>
		<polyline fill="#E1261D" points="21.69,9.42 21.69,9.42 21.69,9.42 	"/>
		<polyline fill="#E1261D" points="21.71,9.68 21.71,9.69 21.71,9.68 	"/>
		<polyline fill="#E1261D" points="21.68,9.23 21.68,9.23 21.68,9.23 	"/>
		<polyline fill="#E1261D" points="21.69,9.36 21.69,9.37 21.69,9.36 	"/>
		<path fill="#E1261D" d="M21.71,9.61L21.71,9.61L21.71,9.61z"/>
		<polyline fill="#E1261D" points="21.67,9.2 21.67,9.2 21.67,9.2 	"/>
		<polyline fill="#E1261D" points="21.65,9.09 21.65,9.09 21.65,9.09 	"/>
		<path fill="#E1261D" d="M21.73,10.05L21.73,10.05L21.73,10.05z"/>
		<polyline fill="#E1261D" points="21.67,9.17 21.67,9.17 21.67,9.17 	"/>
		<polyline fill="#E1261D" points="21.66,9.14 21.66,9.14 21.66,9.14 	"/>
		<polyline fill="#E1261D" points="21.72,9.76 21.72,9.77 21.72,9.76 	"/>
		<path fill="#E30613" d="M33.95,16.53h-2.01l-1.98-2.66l-0.18-0.25v2.91H27.7V5.47c1.15,0,2.08,0.93,2.08,2.08v4.13l0.3-0.33l2.65-2.95
			c0.66,0.59,0.71,1.61,0.12,2.27l-1.79,1.99L33.95,16.53z"/>
	</g>
</svg>