<svg xmlns="http://www.w3.org/2000/svg" fill="none" viewBox="0 0 38 24" height="24" width="38" aria-labelledby="pi-bnbchain" role="img"><title id="pi-bnbchain">BNB Chain</title><path fill="#fff" d="M0 0h38v24H0z"/><path fill="#F0B90B" d="m14.62 6.53 4-2.32 4 2.32-1.47.86-2.51-1.47-2.54 1.47-1.48-.86Zm8 2.93-1.43-.86-2.55 1.46L16.1 8.6l-1.48.86v1.71l2.54 1.46v2.93l1.48.86 1.48-.86v-2.93l2.54-1.46-.04-1.71Zm0 4.64v-1.72l-1.47.86V15l1.47-.9Zm1.05.6-2.54 1.47v1.71l4-2.32v-4.64l-1.48.86.02 2.92ZM22.24 8l1.47.86v1.71l1.48-.85V8l-1.48-.86-1.47.86Zm-5.08 8.8v1.7l1.48.86 1.48-.86v-1.71l-1.48.86-1.48-.85Zm-2.54-2.7 1.48.9v-1.76l-1.48-.86v1.72ZM17.16 8l1.48.86L20.12 8l-1.48-.86-1.48.86Zm-3.59.86L15.05 8l-1.48-.86-1.48.86v1.71l1.48.85v-1.7Zm0 2.93-1.48-.86v4.64l4 2.32v-1.72l-2.52-1.47v-2.91Z"/></svg>