<svg xmlns="http://www.w3.org/2000/svg" width="38" height="24" fill="none" aria-labelledby="pi-bni" role="img" viewBox="0 0 38 24"><title id="pi-bni">BNI</title><path fill="#fff" d="M0 0h38v24H0z"/><path fill="#F15A23" fill-rule="evenodd" d="m3.483 11.161 2.635 3.325-2.635 2.184zm1.06 5.509 1.984-1.66 1.37 1.66zm-1.06-7.288.687.87 2.828 3.534.917-.73s-.761-.895-1.272-1.895c-.998-1.954-.291-3.17-.291-3.17h-2.87v1.391zm3.919 4.949.933-.77s.891 1.173 1.925 1.45c1.354.363 1.954-.525 1.954-.525v2.184H9.239l.67-.58s-.35.233-1.205-.36c-.505-.35-1.302-1.399-1.302-1.399m.085-6.347s-.297.406-.086 1.398c.227 1.06 1.128 2.183 1.126 2.158 0 0 .058-1.114.712-1.769 1.394-1.394 2.975-.564 2.975-.564V7.991z" clip-rule="evenodd"/><path fill="#F15A23" fill-rule="evenodd" d="M12.214 10.677s-.882-.755-1.649-.755c-.98 0-1.516.846-1.516 1.46 0 .895.43 1.392.86 1.823.62.62 1.373 1.287 2.305.75z" clip-rule="evenodd"/><path fill="#005E6A" fill-rule="evenodd" d="M22.256 8.075h2.08s1.844 2.791 2.75 3.944q.954 1.222 1.88 2.467V8.7c0-.25-.656-.625-.656-.625h2.4s-.788.324-.788.625v8.417s-.755-.419-1.612-1.414c-.962-1.119-4.386-5.634-4.386-5.634v5.848c0 .3.656.753.656.753h-2.324s.637-.457.637-.753V8.7c0-.265-.637-.625-.637-.625m9.798 0h2.67s-.717.34-.717.625v7.217c0 .312.717.753.717.753h-2.67s.667-.451.667-.753V8.7c0-.274-.667-.625-.667-.625m-17.655 0s.692.345.692.625v7.217c0 .307-.692.753-.692.753h3.956c.247 0 3.017-.453 3.017-2.588s-2.151-2.335-2.151-2.335 1.31-.364 1.31-1.825c0-1.575-1.929-1.847-2.176-1.847zm2.101 3.53V8.918h1.608c.247 0 1.113.29 1.113 1.36 0 .883-.866 1.327-1.113 1.327zm0 .705h1.855c.247 0 1.706.379 1.706 1.645 0 1.29-1.459 1.748-1.706 1.748H16.5z" clip-rule="evenodd"/></svg>