<svg width="38" height="24" viewBox="0 0 38 24" fill="none" role="img" xmlns="http://www.w3.org/2000/svg" aria-labelledby="pi-bob_pay_manual_eft"><title id="pi-bob_pay_manual_eft">Bob Pay Manual EFT</title><g clip-path="url(#pi-bob_pay_manual_eft-clip0_1198_1008)"><rect width="38" height="24" rx="2" fill="#fff"/><path d="M0 2a2 2 0 012-2h34a2 2 0 012 2v20a2 2 0 01-2 2H2a2 2 0 01-2-2V2z" fill="#fff"/><path d="M.5 2A1.5 1.5 0 012 .5h34A1.5 1.5 0 0137.5 2v20a1.5 1.5 0 01-1.5 1.5H2A1.5 1.5 0 01.5 22V2z" stroke="#000" stroke-opacity=".07"/><path d="M25.646 13.974v-3.728h.482v3.728h-.482zM23.612 11.286c.729 0 1.141.352 1.141 1.08v1.608h-.457v-.352c-.161.242-.457.382-.874.382-.604 0-.985-.321-.985-.784 0-.427.276-.778 1.07-.778h.764v-.096c0-.407-.236-.643-.714-.643-.316 0-.638.11-.844.286l-.201-.361c.276-.222.673-.342 1.1-.342zm-.11 2.347c.362 0 .648-.166.769-.473v-.372h-.744c-.477 0-.613.186-.613.412 0 .267.221.433.588.433zM21.242 11.311h.482v2.663h-.457v-.402c-.196.277-.527.432-.904.432-.689 0-1.146-.377-1.146-1.16V11.31h.483v1.477c0 .523.26.784.718.784.503 0 .824-.311.824-.884V11.31zM17.244 11.286c.648 0 1.105.372 1.105 1.156v1.532h-.482v-1.477c0-.523-.261-.779-.718-.779-.513 0-.845.307-.845.884v1.372h-.482v-2.663h.462v.402c.196-.271.538-.427.96-.427zM13.789 11.286c.728 0 1.14.352 1.14 1.08v1.608h-.457v-.352c-.16.242-.457.382-.874.382-.603 0-.985-.321-.985-.784 0-.427.277-.778 1.07-.778h.764v-.096c0-.407-.236-.643-.713-.643-.317 0-.639.11-.845.286l-.2-.361c.276-.222.673-.342 1.1-.342zm-.11 2.347c.361 0 .647-.166.768-.473v-.372h-.743c-.478 0-.614.186-.614.412 0 .267.222.433.588.433zM11.834 13.974h-.482l-.005-2.562-1.272 2.135h-.23l-1.272-2.12v2.547h-.482v-3.517h.412l1.467 2.472 1.447-2.472h.412l.005 3.517zM34.181 13.974V11.01h-1.166v-.553H36v.553h-1.166v2.964h-.653zM32.811 11.005h-1.914v1.07h1.698v.553h-1.698v1.346h-.653v-3.517h2.567v.548zM27.53 13.427h1.986v.547h-2.638v-3.517h2.567v.548h-1.914v.914h1.698v.538h-1.698v.97z" fill="#1E055B"/><path fill-rule="evenodd" clip-rule="evenodd" d="M3.01 10.713a.255.255 0 00-.51 0v2.043a1.213 1.213 0 10.51-.925v-1.118zm1.405 2.106a.702.702 0 11-1.404 0 .702.702 0 011.404 0z" fill="#1E055B"/><path d="M4.285 11.067L4.735 10M4.982 11.518l1.17-1.15M5.446 12.204l1.054-.44M5.54 13.018h.966" stroke="#00B5F4" stroke-width=".448" stroke-linecap="round"/></g><defs><clipPath id="pi-bob_pay_manual_eft-clip0_1198_1008"><rect width="38" height="24" rx="2" fill="#fff"/></clipPath></defs></svg>