<svg width="38" height="24" role="img" viewBox="0 0 38 24" xmlns="http://www.w3.org/2000/svg" aria-labelledby="pi-bocpay"><title id="pi-bocpay">bocpay</title><title>Layer 1</title><path id="svg_1" d="M35 0H3C1.3 0 0 1.3 0 3v18c0 1.7 1.4 3 3 3h32c1.7 0 3-1.3 3-3V3c0-1.7-1.4-3-3-3z" opacity=".07"/><path stroke="null" id="svg_2" d="M34.877.877c1.1 0 2 .9 2 2v18c0 1.1-.9 2-2 2h-32c-1.1 0-2-.9-2-2v-18c0-1.1.9-2 2-2h32" fill="#fefffc"/><g stroke="null"><g stroke="null" id="svg_35" fill-rule="evenodd"><path fill="#94152d" d="M18.142 2.4c-.279.026-.518.058-.614.081l-.233.056c-.206.05-.422.116-.481.149a.162.162 0 01-.058.02 5.304 5.304 0 00-1.419.814 6.754 6.754 0 00-.689.679 4.349 4.349 0 01-.123.148c-.05.055-.332.469-.332.487a4.34 4.34 0 00-.36.72 2.512 2.512 0 01-.087.206.205.205 0 00-.018.078c0 .023-.009.047-.02.053-.01.007-.023.038-.03.07a2.094 2.094 0 01-.035.144 4.984 4.984 0 00-.131.603c-.039.23-.048 9.409-.01 9.387.017-.01.091-.07.165-.136a9.647 9.647 0 01.293-.253c.006-.006.287-.249.625-.539a63.163 63.163 0 00.784-.677c.166-.14.418-.355.434-.371a6.66 6.66 0 01.148-.128 6.7 6.7 0 00.148-.127l.148-.127c.076-.063.143-.12.149-.127.005-.006.072-.063.148-.127.075-.063.152-.13.17-.148.017-.017.083-.074.147-.126.064-.052.131-.11.149-.127.017-.018.093-.085.169-.149.076-.064.142-.12.148-.127.006-.006.072-.064.148-.127l.18-.155c.032-.029.064-.036.127-.027.424.058 1.173.063 1.483.01.232-.039.516-.098.603-.124.03-.01.096-.028.148-.043.053-.014.115-.033.138-.043.023-.01.104-.038.18-.064.124-.042.208-.077.445-.185.535-.244 1.3-.844 1.688-1.325.067-.083.127-.155.133-.161.024-.024.233-.32.233-.33a5.403 5.403 0 00.53-1.078.815.815 0 00.04-.117c.015-.052.035-.114.044-.137a.746.746 0 00.03-.106l.036-.149c.089-.35.113-.599.112-1.175 0-.591-.013-.725-.112-1.186a4.895 4.895 0 00-.234-.725 5.148 5.148 0 00-.714-1.233 5.663 5.663 0 00-.922-.91 5.804 5.804 0 00-.502-.329c-.01 0-.023-.007-.027-.016-.013-.031-.713-.365-.765-.365a.085.085 0 01-.048-.017.484.484 0 00-.115-.045 2.935 2.935 0 00-.37-.107 39.45 39.45 0 01-.234-.056 9.215 9.215 0 00-1.069-.11c-.04.001-.208.015-.37.03m.963.707c.246.032.398.064.667.137.173.047.271.08.295.1.011.01.033.017.048.017.045 0 .43.18.62.29a4.403 4.403 0 011.938 5.353c-.128.343-.41.863-.589 1.083a4.553 4.553 0 01-1.116 1.046c-1.132.759-2.638.931-3.938.451a4.386 4.386 0 01-2.447-2.24c-.193-.406-.238-.541-.348-1.038-.054-.248-.07-.441-.07-.837-.001-.51.037-.792.174-1.276.141-.501.495-1.15.844-1.55.272-.311.597-.61.836-.77.047-.03.11-.073.14-.093.17-.112.441-.256.701-.371a4.977 4.977 0 01.763-.239c.1-.025.185-.038.422-.064.11-.011.205-.027.212-.033.016-.017.656.008.848.034m-1.292 1.02l-.159.044c-2.621.703-3.406 4.19-1.323 5.883l.114.094c.174.154.785.497.885.497.016 0 .04.008.05.017.042.035.433.144.56.156l.074.007.006-.778.006-.778h-.324c-.709 0-1.099-.275-1.241-.874-.033-.136-.033-1.75-.001-1.856l.044-.15c.083-.298.385-.589.716-.69.03-.009.22-.022.424-.028l.37-.012.006-.778.006-.778-.07.002a.734.734 0 00-.143.022m1.276.754l.005.778.37.012c.406.013.417.015.61.108.306.148.496.404.576.78.027.127.02 1.726-.008 1.863a1.167 1.167 0 01-.303.544c-.242.227-.426.289-.89.299l-.366.008.006.776.005.777.074-.008c.127-.012.519-.12.56-.156a.091.091 0 01.051-.016c.043 0 .462-.205.568-.279a.415.415 0 01.112-.06c.012 0 .022-.008.022-.017 0-.009.028-.033.063-.054a.645.645 0 00.09-.062c.015-.015.08-.07.143-.121 1.59-1.302 1.568-3.947-.042-5.22a3.138 3.138 0 00-.434-.3 2.607 2.607 0 00-.476-.24c-.198-.079-.602-.19-.688-.19h-.054l.006.778m-1.63 1.78c-.022.013-.026.19-.022.81l.006.792h2.223l.006-.792c.004-.62 0-.797-.022-.81-.034-.022-2.157-.022-2.192 0m-.439 10.256a3.228 3.228 0 00-.296.08c-.094.037-.34.16-.346.175-.004.01-.016.016-.026.016-.046 0-.316.252-.433.403-.48.624-.493 1.686-.027 2.293.213.277.459.465.768.586.042.017.152.047.276.077.157.039.862.01.89-.036.007-.01.03-.02.053-.02a.204.204 0 00.078-.018l.143-.068c.216-.1.496-.307.608-.448l.066-.084-.083-.077c-.36-.334-.351-.33-.486-.188-.649.686-1.75.385-1.956-.535a2.99 2.99 0 01.007-.71c.08-.332.467-.815.654-.815a.072.072 0 00.044-.014c.066-.066.555-.098.714-.047.22.071.27.104.49.32.093.091.173.165.18.165.012 0 .389-.338.412-.37.037-.052-.25-.348-.445-.46-.132-.076-.233-.123-.266-.123-.017 0-.038-.01-.045-.021-.007-.012-.034-.021-.06-.021-.026 0-.057-.009-.068-.02-.05-.046-.696-.077-.846-.04m-7.718 1.817v1.758h.773c.487 0 .81-.009.873-.024.056-.012.14-.033.186-.045.907-.23.955-1.475.069-1.76-.06-.02-.044-.052.05-.1.643-.328.477-1.314-.257-1.52-.215-.06-.311-.066-.985-.066h-.709v1.757m11.413 0v1.758h.593v-.623c0-.778-.048-.69.376-.69.192 0 .389-.01.437-.023l.172-.046c.509-.137.88-.774.733-1.257l-.047-.156a.97.97 0 00-.344-.485c-.176-.12-.226-.142-.493-.212-.053-.015-.346-.023-.757-.023h-.67v1.757m-10.05-1.204c.46.124.522.635.098.816-.1.043-.733.067-.8.03-.055-.03-.075-.791-.021-.845.033-.033.602-.034.723-.001m11.314 0c.126.05.167.073.226.124.241.212.24.683-.003.862-.154.113-.71.188-.848.114-.055-.03-.074-1.045-.02-1.099.033-.033.563-.034.645-.001m2.156.444c-.136.033-.25.065-.297.082a1.32 1.32 0 00-.304.162l-.05.045.072.103.134.19.064.087.158-.079c.522-.259 1.153-.087 1.098.298l-.007.052h-.413c-.45.001-.535.015-.758.123-.594.286-.61 1.167-.025 1.448.33.159.824.096 1.1-.14.089-.077.107-.068.107.053v.094h.571v-.875c0-.95-.007-1.027-.12-1.219a.952.952 0 00-.589-.417 3.911 3.911 0 00-.741-.007m-10.587.053c-1.023.144-1.432 1.453-.682 2.179.146.14.378.286.459.286.02 0 .043.007.051.016.082.082.7.05.806-.041a.086.086 0 01.049-.018c.095 0 .41-.277.536-.47.578-.895-.174-2.1-1.22-1.952m12.44.026a42.47 42.47 0 00.621 1.38l.12.261a11.898 11.898 0 00.32.696c.045.081.024.171-.102.44-.15.318-.37.413-.553.238-.046-.044-.066-.025-.199.184-.14.22-.141.21.038.296.513.246 1.006-.008 1.261-.649a11.399 11.399 0 01.083-.206 2.92 2.92 0 01.042-.106 8.31 8.31 0 00.128-.318 236.394 236.394 0 00.218-.519l.078-.19c.04-.104.061-.154.128-.307a28.077 28.077 0 00.319-.768c.12-.27.167-.387.167-.421 0-.024-.057-.029-.32-.024l-.32.006-.03.095a2.152 2.152 0 01-.05.138c-.01.023-.038.1-.064.17-.025.07-.054.145-.063.169-.01.023-.029.075-.043.116l-.042.117c-.01.023-.028.075-.042.116-.014.04-.033.093-.043.117a3.27 3.27 0 00-.042.116c-.03.09-.062.167-.087.217a.204.204 0 00-.019.078c0 .023-.01.047-.021.054-.012.008-.021.03-.021.051 0 .096-.08.117-.117.03a5.104 5.104 0 01-.096-.229 4.315 4.315 0 00-.052-.127 9.919 9.919 0 01-.159-.381 3.388 3.388 0 00-.063-.148 4.255 4.255 0 01-.064-.148 6.944 6.944 0 01-.127-.307 3.742 3.742 0 00-.078-.186l-.033-.069h-.336c-.185 0-.336.008-.336.018m-11.925.214c.921.368.903 1.684-.028 2.056-.604.242-1.345-.33-1.345-1.039 0-.735.73-1.275 1.373-1.017m-3.282.688c.57.152.564.829-.01.984-.122.033-.796.031-.83-.002-.026-.027-.038-.912-.012-.979.018-.046.681-.048.852-.003m14.159.412c.08.017.105.264.04.4-.24.507-1.159.425-1.02-.092.072-.27.512-.408.98-.308" id="svg_40"/><path fill="#fbfbfb" d="M17.666 1.429a.447.447 0 00-.158.029c-.01.01-.066.02-.121.02-.056 0-.102.01-.102.021 0 .012-.038.021-.085.021-.046 0-.085.01-.085.021 0 .012-.037.022-.083.022-.046 0-.09.01-.097.02-.007.012-.045.022-.084.022-.04 0-.078.01-.085.021-.007.012-.036.021-.063.021-.028 0-.057.01-.064.021-.007.012-.036.022-.063.022-.028 0-.057.01-.064.02-.007.012-.036.022-.064.022-.027 0-.056.01-.063.021-.007.012-.032.021-.054.021-.023 0-.041.01-.041.021 0 .012-.024.022-.052.022-.028 0-.058.01-.065.02-.007.012-.031.022-.054.022s-.041.01-.041.021c0 .012-.02.021-.042.021-.024 0-.043.01-.043.022 0 .011-.013.02-.03.02a.647.647 0 00-.22.112c-.004.009-.026.016-.048.016-.022 0-.04.01-.04.021 0 .012-.02.021-.043.021-.023 0-.042.01-.042.021 0 .012-.02.022-.043.022-.023 0-.042.009-.042.02 0 .012-.012.022-.028.022-.015 0-.048.019-.073.042-.025.023-.058.043-.073.043-.016 0-.042.019-.059.042-.017.023-.045.042-.063.042-.019 0-.047.02-.064.043-.017.023-.043.042-.059.042-.015 0-.051.024-.08.053-.03.029-.062.053-.073.053a.325.325 0 00-.094.074.34.34 0 01-.092.074c-.036 0-.682.62-.682.654a.786.786 0 01-.127.149.743.743 0 00-.127.15.297.297 0 01-.069.095c-.038.04-.097.11-.132.158a5.26 5.26 0 01-.1.13.323.323 0 00-.05.085c-.006.022-.02.04-.029.04-.01 0-.029.029-.043.064-.015.035-.035.063-.045.063-.01 0-.019.02-.019.042 0 .024-.008.043-.019.043-.01 0-.03.028-.045.063-.014.035-.034.064-.044.064-.01 0-.019.019-.019.042 0 .023-.01.043-.021.043-.012 0-.021.019-.021.042 0 .023-.01.042-.022.042-.011 0-.02.02-.02.043 0 .023-.01.042-.022.042-.012 0-.021.019-.021.042 0 .024-.01.043-.021.043-.012 0-.021.019-.021.042 0 .023-.01.042-.022.042-.011 0-.02.019-.02.041 0 .023-.01.047-.022.055-.012.007-.021.036-.021.064 0 .029-.01.052-.021.052-.012 0-.022.02-.022.042 0 .024-.009.043-.02.043-.012 0-.022.028-.022.063s-.01.064-.021.064c-.012 0-.021.023-.021.052 0 .028-.01.057-.021.064-.012.008-.022.036-.022.064 0 .028-.01.056-.02.063-.012.008-.022.041-.022.076 0 .034-.01.062-.021.062-.012 0-.021.033-.021.073 0 .04-.01.079-.021.086-.012.007-.022.045-.022.085 0 .039-.01.077-.02.084-.012.007-.022.05-.022.096 0 .045-.01.088-.021.095-.012.007-.021.06-.021.116 0 .057-.01.11-.022.117-.011.007-.02.084-.02.17 0 .091-.01.158-.022.158-.014 0-.021 1.616-.021 4.807 0 3.19.007 4.806.021 4.806.012 0 .021.029.021.064s.01.063.021.063c.012 0 .022.02.022.043 0 .023.01.042.02.042.012 0 .022.015.022.034 0 .02.017.05.037.07.02.018.05.059.066.09.016.03.054.068.085.084.03.016.07.045.09.066.019.02.05.037.069.037.019 0 .034.01.034.021 0 .012.02.021.043.021.063 0 .05.029-.027.06-.166.067-.312.14-.312.156 0 .01-.029.017-.064.017-.054 0-.063-.008-.063-.053 0-.03-.01-.07-.02-.09a1.348 1.348 0 01-.048-.105c-.015-.038-.035-.07-.043-.07-.01 0-.016-.018-.016-.042 0-.023-.01-.042-.022-.042-.011 0-.02-.013-.02-.029 0-.015-.03-.058-.064-.095a.273.273 0 01-.064-.086c0-.025-.21-.235-.235-.235-.01 0-.039-.021-.066-.047a.532.532 0 00-.106-.078c-.032-.017-.059-.038-.059-.048 0-.01-.019-.017-.042-.017-.023 0-.042-.01-.042-.021 0-.012-.02-.022-.043-.022-.023 0-.042-.01-.042-.02 0-.012-.02-.022-.042-.022-.024 0-.043-.01-.043-.021 0-.012-.028-.021-.063-.021s-.064-.01-.064-.021c0-.012-.028-.022-.063-.022s-.064-.01-.064-.02c0-.012-.038-.022-.085-.022-.046 0-.084-.01-.084-.021 0-.012-.056-.021-.126-.021s-.132-.01-.139-.022c-.018-.029-1.718-.029-1.736 0-.007.012-.046.022-.085.022-.04 0-.077.01-.085.02-.007.012-.031.022-.054.022-.022 0-.04.01-.04.021 0 .012-.018.021-.039.021-.02 0-.051.02-.068.043-.017.023-.04.042-.054.042-.029 0-.179.159-.179.19 0 .012-.008.022-.018.022-.01 0-.04.044-.068.099l-.051.1v2.17c0 1.716.005 2.171.026 2.178.015.005.027.027.027.05 0 .022.01.04.02.04.012 0 .022.014.022.032 0 .017.01.032.021.032.012 0 .021.011.022.026 0 .047.254.27.307.27.017 0 .031.01.031.021 0 .012.019.021.041.021.023 0 .047.01.054.022.008.011.036.02.064.02.028 0 .056.01.063.022.018.029 1.867.029 1.885 0 .007-.012.07-.021.138-.021s.13-.01.137-.021c.007-.012.05-.022.096-.022.045 0 .088-.01.095-.02.007-.012.036-.022.065-.022a.234.234 0 00.089-.019l.1-.045a2.78 2.78 0 00.328-.167.811.811 0 01.09-.066c.044-.029.08-.06.08-.068 0-.039.07-.01.142.058.043.04.084.074.092.074a.3.3 0 01.075.053c.033.03.073.053.088.053.014 0 .026.01.026.021 0 .012.02.021.042.021.024 0 .043.01.043.021 0 .012.019.022.042.022.023 0 .042.01.042.02 0 .012.015.022.033.022a.22.22 0 01.079.025c.102.052.122.06.162.06.023 0 .047.01.055.02.007.013.05.022.095.022s.088.01.095.021c.018.029.893.029.91 0 .008-.011.042-.02.076-.02.035 0 .08-.01.1-.02a.912.912 0 01.137-.048c.055-.015.1-.034.1-.043 0-.01.014-.017.03-.017.036 0 .211-.088.221-.111.004-.009.017-.016.028-.016.046 0 .26-.162.413-.312.108-.107.092-.103.168-.036a2.91 2.91 0 00.453.33c.02.024.19.103.222.103.018 0 .033.01.033.02 0 .012.018.022.04.022.023 0 .048.01.055.021.007.012.036.021.063.021.028 0 .057.01.064.022.007.011.036.02.063.02.028 0 .057.01.064.022.007.012.045.021.085.021.039 0 .077.01.084.021.007.012.07.021.138.021s.13.01.138.022c.017.028.73.028.73 0 0-.012.056-.022.126-.022s.132-.01.139-.02c.007-.012.045-.022.085-.022.039 0 .077-.01.084-.021.007-.012.032-.021.055-.021a.205.205 0 00.078-.019l.1-.045c.035-.014.08-.034.1-.045a.185.185 0 01.07-.018c.017 0 .031-.01.031-.021 0-.012.02-.022.043-.022.023 0 .042-.01.042-.02 0-.012.019-.022.042-.022.024 0 .043-.01.043-.021 0-.012.01-.021.022-.021.024 0 .32-.196.39-.258.16-.142.35-.337.35-.358 0-.013.029-.05.063-.083.035-.033.064-.07.064-.084 0-.013.02-.044.042-.07l.043-.045v.227c0 .136.008.226.02.226.013 0 .022.023.022.05 0 .055.095.249.16.33.04.049.076.083.177.17.059.05.238.137.33.161.103.026 1.115.035 1.14.01.013-.012.049-.022.08-.022.033 0 .065-.01.072-.021.007-.012.031-.022.054-.022s.041-.01.041-.02c0-.012.012-.022.028-.022.015 0 .048-.02.073-.042.025-.024.054-.043.064-.043a.597.597 0 00.174-.19c0-.012.01-.021.021-.021.012 0 .021-.015.021-.032 0-.018.01-.032.021-.032.012 0 .021-.019.021-.042 0-.024.01-.043.022-.043.011 0 .02-.028.02-.063s.01-.064.022-.064c.013 0 .021-.127.021-.338 0-.315.003-.34.04-.34.038 0 .087.08.087.14 0 .05.052.2.069.2.009 0 .016.018.016.04 0 .043.081.198.11.21.01.004.017.02.017.037 0 .027.034.078.1.147.015.016.027.035.027.043 0 .039.29.286.421.359.042.023.08.05.084.058.004.009.025.016.047.016.023 0 .041.01.041.021 0 .012.018.021.041.021.023 0 .047.01.054.022.007.011.036.02.064.02.028 0 .056.01.063.022.007.012.036.021.064.021.028 0 .056.01.063.021.007.012.065.021.127.021.063 0 .12.01.127.022.008.012.12.02.265.02.145 0 .257-.008.265-.02.007-.012.064-.022.127-.022.062 0 .12-.01.127-.02.007-.012.084-.022.17-.022h.158v.105c0 .057.01.11.021.117.012.008.021.031.021.053 0 .042.086.218.112.23.008.004.015.02.015.037 0 .016.01.03.022.03.011 0 .02.01.02.022 0 .027.097.126.124.126a.28.28 0 01.085.064c.037.034.081.063.099.063.017 0 .032.01.032.021 0 .012.019.021.042.021.023 0 .042.01.042.022 0 .011.02.02.043.02.023 0 .042.01.042.022 0 .012.019.021.042.021.024 0 .043.01.043.021 0 .012.028.021.061.021.034 0 .066.012.071.027.013.038 1.205.038 1.218 0 .004-.015.036-.027.07-.027.034 0 .062-.009.062-.02 0-.012.019-.022.042-.022.024 0 .043-.01.043-.021 0-.012.019-.021.042-.021.023 0 .042-.008.042-.018 0-.01.027-.03.059-.047a.398.398 0 00.092-.067c.019-.02.044-.038.055-.038.05 0 .408-.389.408-.443 0-.012.009-.022.019-.022.02 0 .278-.505.278-.546 0-.015.008-.043.019-.064.01-.02.028-.06.039-.09.037-.092.073-.178.093-.216a.209.209 0 00.018-.08c0-.023.01-.042.021-.042.012 0 .022-.019.022-.042 0-.024.01-.043.02-.043.012 0 .022-.023.022-.051 0-.029.01-.058.021-.065.012-.007.021-.032.021-.054 0-.023.01-.041.021-.041.012 0 .022-.019.022-.042 0-.022.01-.047.02-.054.012-.007.022-.036.022-.065 0-.028.01-.051.021-.051.012 0 .021-.02.021-.043 0-.023.008-.042.018-.042.01 0 .03-.048.046-.106.016-.058.036-.106.046-.106.01 0 .017-.019.017-.042 0-.023.01-.042.022-.042.011 0 .02-.029.02-.064s.01-.063.022-.063c.012 0 .021-.02.021-.043 0-.023.01-.042.021-.042.012 0 .021-.019.021-.041 0-.023.01-.047.022-.054.011-.008.02-.037.02-.065 0-.029.01-.052.022-.052.012 0 .021-.019.021-.042 0-.023.01-.043.021-.043.012 0 .021-.028.021-.063s.01-.064.022-.064c.011 0 .02-.019.02-.042 0-.023.01-.042.022-.042.012 0 .021-.019.021-.041 0-.023.01-.047.021-.055.012-.007.022-.036.022-.064 0-.029.01-.052.02-.052.012 0 .022-.02.022-.042 0-.024.01-.043.021-.043.012 0 .021-.023.021-.051 0-.029.01-.058.021-.065.012-.007.022-.032.022-.054 0-.023.01-.042.02-.042.012 0 .022-.018.022-.04 0-.023.01-.048.021-.055.012-.007.021-.035.021-.063 0-.027.012-.054.027-.059.02-.006.026-.11.026-.418s-.006-.411-.026-.418c-.015-.005-.027-.027-.027-.05 0-.022-.008-.04-.017-.04-.01 0-.031-.026-.048-.058-.082-.158-.312-.32-.571-.405-.103-.033-1.08-.033-1.183 0-.18.058-.302.118-.375.187l-.057.054-.064-.06c-.082-.077-.251-.163-.32-.163-.03 0-.054-.01-.054-.02 0-.028-1.157-.03-1.174-.003-.006.01-.045.025-.086.032l-.145.025c-.043.008-.078.003-.086-.01-.008-.013-.033-.024-.056-.024a.206.206 0 01-.078-.018.687.687 0 00-.276-.066c-.048 0-.093-.01-.1-.021-.008-.013-.162-.022-.392-.022s-.383.009-.391.022c-.007.011-.068.02-.135.02s-.132.012-.146.025c-.028.028-.062 0-.11-.093-.016-.032-.037-.058-.047-.058-.01 0-.018-.014-.018-.031 0-.038-.393-.435-.43-.435-.014 0-.04-.02-.057-.043-.016-.023-.046-.042-.066-.042-.02 0-.04-.007-.043-.016a1.193 1.193 0 00-.305-.153c-.017 0-.03-.01-.03-.021 0-.012-.029-.022-.064-.022s-.063-.01-.063-.02c0-.012-.038-.022-.085-.022-.047 0-.085-.01-.085-.021 0-.012-.06-.021-.136-.021-.075 0-.142-.01-.15-.022-.017-.029-1.633-.029-1.651 0-.007.012-.046.022-.086.022-.04 0-.073.01-.073.02 0 .012-.021.022-.048.022a.204.204 0 00-.1.042.225.225 0 01-.07.042c-.03.001-.29.28-.29.31 0 .016-.01.03-.021.03-.012 0-.021.018-.021.04 0 .023-.01.048-.022.055-.011.007-.02.036-.02.063 0 .028-.01.057-.022.064-.012.007-.021.106-.021.223 0 .127-.009.21-.021.21-.012 0-.022-.018-.022-.041 0-.024-.01-.043-.02-.043-.012 0-.022-.012-.022-.027s-.019-.04-.042-.057c-.024-.017-.043-.043-.043-.057 0-.032-.436-.473-.467-.473-.012 0-.045-.023-.073-.051a.303.303 0 00-.094-.065c-.024-.008-.043-.023-.043-.034 0-.01-.018-.02-.04-.02-.023 0-.045-.006-.048-.015a.648.648 0 00-.221-.111c-.017 0-.03-.01-.03-.022 0-.011-.018-.02-.041-.02-.023 0-.047-.01-.054-.022-.008-.012-.037-.021-.065-.021-.029 0-.052-.01-.052-.021 0-.012-.028-.021-.062-.021s-.068-.01-.075-.022c-.008-.011-.056-.02-.107-.02-.052 0-.095-.01-.095-.022 0-.012-.063-.021-.147-.021-.08 0-.152-.01-.16-.021-.007-.013-.137-.021-.318-.021-.19 0-.306.008-.306.02 0 .013-.06.022-.137.022-.075 0-.142.01-.15.021-.006.012-.05.021-.094.021-.046 0-.088.01-.096.021-.007.012-.04.022-.075.022-.034 0-.062.01-.062.02 0 .012-.024.022-.052.022-.028 0-.058.01-.065.021-.007.012-.031.021-.054.021s-.041.01-.041.021c0 .012-.02.022-.042.022-.024 0-.043.01-.043.02 0 .013-.019.022-.042.022-.023 0-.042.01-.042.021 0 .012-.02.021-.043.021-.023 0-.042.01-.042.022 0 .011-.02.02-.042.02-.024 0-.043.01-.043.02s-.028.03-.063.044c-.035.015-.064.033-.064.042 0 .008-.026.028-.058.045a.871.871 0 00-.147.114l-.174.16a.375.375 0 00-.086.091c0 .01-.027.044-.06.074-.033.031-.092.104-.131.162a.625.625 0 01-.089.113c-.01.004-.017.026-.017.048 0 .022-.01.04-.021.04-.012 0-.022.016-.022.034 0 .046-.067.113-.079.078-.005-.015-.027-.027-.05-.027-.022 0-.04-.008-.04-.017 0-.022-.188-.115-.307-.152a1.444 1.444 0 00-.399-.099c-.08-.012-.08-.012-.037-.052.023-.022.052-.04.065-.04.012 0 .022-.01.022-.02 0-.012.01-.022.022-.022a.509.509 0 00.126-.106.535.535 0 01.124-.106.773.773 0 00.15-.127.763.763 0 01.15-.127c.011 0 .02-.01.02-.021 0-.012.01-.021.023-.021a.506.506 0 00.126-.106.509.509 0 01.125-.106c.013 0 .023-.01.023-.021 0-.012.01-.021.021-.021.012 0 .08-.057.15-.127a.77.77 0 01.15-.127.502.502 0 00.12-.102c.054-.055.132-.124.173-.152.04-.029.119-.098.173-.153a.513.513 0 01.12-.102.921.921 0 00.162-.137.993.993 0 01.16-.138c.01 0 .076-.057.147-.127a.808.808 0 01.15-.127c.01 0 .07-.05.13-.111.062-.062.145-.135.185-.163.04-.029.124-.102.188-.164a.734.734 0 01.133-.112c.01 0 .076-.055.147-.121.071-.067.158-.142.192-.167a2.8 2.8 0 00.179-.154c.064-.06.121-.109.128-.109a.83.83 0 00.114-.106l.103-.106h.636c.4 0 .64-.008.648-.02.007-.013.074-.022.148-.022.075 0 .141-.01.148-.021.008-.012.06-.021.118-.021.058 0 .105-.01.105-.022 0-.011.038-.02.084-.02.047 0 .085-.01.085-.022 0-.012.038-.021.085-.021.046 0 .085-.01.085-.021 0-.012.038-.022.084-.022.047 0 .085-.01.085-.02 0-.012.029-.022.064-.022.034 0 .063-.01.063-.021 0-.012.029-.021.064-.021.034 0 .063-.01.063-.021 0-.012.029-.022.064-.022s.063-.01.063-.02c0-.012.024-.022.053-.022.03 0 .053-.01.053-.021 0-.012.024-.021.053-.021.03 0 .053-.01.053-.022 0-.011.018-.02.041-.02.023 0 .047-.01.054-.022.007-.011.032-.021.054-.021.023 0 .041-.01.041-.021 0-.012.02-.021.043-.021.023 0 .042-.01.042-.022 0-.011.013-.02.03-.02.035 0 .21-.089.22-.112.005-.009.026-.016.048-.016.023 0 .04-.01.04-.02 0-.013.02-.022.043-.022.024 0 .043-.01.043-.021 0-.012.012-.021.027-.021.016 0 .049-.02.074-.043.025-.023.06-.042.078-.042.018 0 .032-.008.032-.018 0-.01.027-.03.059-.047a.567.567 0 00.099-.068c.022-.02.051-.037.064-.037.013 0 .037-.019.054-.042.016-.023.04-.042.054-.042.013 0 .054-.029.09-.064a.278.278 0 01.086-.063c.01 0 .066-.046.122-.101.057-.056.137-.125.177-.154.097-.068.399-.37.465-.465.029-.041.088-.11.132-.152a.35.35 0 00.08-.098c0-.01.03-.05.064-.086.035-.036.064-.076.064-.088 0-.011.01-.02.02-.02.012 0 .022-.013.022-.028 0-.015.019-.04.042-.058.024-.016.043-.045.043-.063 0-.018.019-.047.042-.064.023-.017.042-.047.042-.068 0-.02.008-.038.018-.038.01 0 .031-.026.048-.058a.477.477 0 01.04-.069.854.854 0 00.1-.174c.006-.02.02-.037.03-.037.01 0 .019-.02.019-.043 0-.023.009-.042.02-.042.012 0 .022-.02.022-.042 0-.024.01-.043.021-.043.012 0 .021-.024.021-.053 0-.029.01-.053.021-.053.012 0 .022-.019.022-.042 0-.023.01-.042.02-.042.012 0 .022-.02.022-.043 0-.023.01-.042.021-.042.012 0 .021-.02.021-.042 0-.024.01-.043.021-.043.012 0 .022-.018.022-.04 0-.023.01-.048.02-.055.012-.007.022-.036.022-.065 0-.028.01-.051.021-.051.012 0 .021-.024.021-.052 0-.029.01-.058.021-.065.012-.007.022-.03.022-.05a.1.1 0 01.024-.061.52.52 0 00.081-.232c0-.025.009-.051.02-.058.01-.006.023-.038.03-.07a8.238 8.238 0 00.166-.853c.029-.204.029-1.356 0-1.577a6.943 6.943 0 00-.132-.71 5.796 5.796 0 01-.034-.153c-.007-.032-.02-.064-.03-.07-.011-.006-.02-.03-.02-.054 0-.063-.065-.252-.087-.252-.01 0-.018-.023-.018-.051 0-.029-.01-.058-.022-.065-.011-.007-.02-.032-.02-.054 0-.023-.01-.041-.022-.041-.012 0-.021-.029-.021-.064s-.01-.063-.021-.063c-.012 0-.021-.02-.021-.043 0-.023-.01-.042-.022-.042-.011 0-.02-.02-.02-.042 0-.024-.01-.043-.022-.043-.012 0-.021-.017-.021-.04 0-.047-.127-.299-.152-.299-.01 0-.017-.019-.017-.042 0-.023-.01-.042-.022-.042-.011 0-.02-.02-.02-.043 0-.023-.01-.042-.022-.042-.012 0-.021-.015-.021-.033 0-.018-.02-.053-.043-.078-.023-.025-.042-.058-.042-.073 0-.015-.01-.028-.021-.028-.012 0-.021-.017-.021-.037 0-.021-.02-.052-.043-.069-.023-.016-.042-.042-.042-.057s-.029-.058-.064-.094c-.034-.037-.063-.077-.063-.09 0-.014-.02-.038-.042-.055-.024-.017-.043-.042-.043-.055a.511.511 0 00-.106-.134.589.589 0 01-.105-.127c0-.042-.809-.827-.851-.827a.29.29 0 01-.084-.064.285.285 0 00-.085-.063.286.286 0 01-.085-.064.28.28 0 00-.085-.064c-.01 0-.04-.019-.065-.042-.025-.023-.058-.042-.073-.042-.015 0-.028-.01-.028-.021 0-.012-.014-.022-.032-.022-.018 0-.053-.019-.078-.042-.025-.023-.058-.042-.074-.042-.015 0-.027-.01-.027-.021 0-.012-.02-.022-.043-.022-.023 0-.042-.01-.042-.02 0-.012-.018-.022-.04-.022-.023 0-.044-.007-.048-.016a1.262 1.262 0 00-.307-.153c-.016 0-.029-.01-.029-.022 0-.011-.018-.02-.04-.02-.023 0-.048-.01-.055-.022-.007-.012-.031-.021-.054-.021s-.041-.01-.041-.021c0-.012-.023-.021-.052-.021-.028 0-.057-.01-.065-.022-.007-.011-.031-.02-.054-.02-.022 0-.04-.01-.04-.022 0-.012-.03-.021-.064-.021-.035 0-.064-.01-.064-.021 0-.012-.029-.021-.063-.021-.035 0-.064-.01-.064-.022 0-.011-.029-.02-.063-.02-.035 0-.064-.01-.064-.022 0-.012-.038-.021-.085-.021-.046 0-.084-.01-.084-.021 0-.012-.039-.022-.085-.022-.047 0-.085-.01-.085-.02 0-.012-.038-.022-.085-.022-.046 0-.084-.01-.084-.021 0-.012-.046-.021-.102-.021-.056 0-.113-.012-.128-.027-.026-.026-1.59-.044-1.93-.022m1.578.956l.275.045c.07.013.163.029.206.035.044.007.085.02.092.031.006.01.031.02.056.02.048 0 .172.034.233.065.02.01.055.019.078.019s.047.01.055.021c.007.012.031.021.054.021.04 0 .06.008.162.06a.22.22 0 00.08.025c.018 0 .032.01.032.021 0 .012.014.021.031.021s.065.02.107.043c.041.023.089.042.106.042s.031.01.031.021c0 .012.018.021.04.021.023 0 .045.008.048.016.007.015.118.079.246.141.026.013.047.03.047.04 0 .008.01.015.022.015a2.672 2.672 0 01.444.297c.364.253 1.25 1.234 1.25 1.384 0 .005.036.07.08.143.099.165.21.395.323.664.01.023.037.104.062.18s.054.154.065.175c.01.02.02.06.02.088 0 .029.01.058.021.065.012.008.021.044.021.082 0 .038.009.078.02.089.01.01.024.058.03.105l.034.211a5.37 5.37 0 01-.041 1.97 4.48 4.48 0 00-.036.175c-.006.038-.02.074-.03.08-.01.007-.02.033-.02.058 0 .05-.046.196-.07.22-.007.007-.014.031-.014.053a.2.2 0 01-.018.076c-.018.034-.037.08-.085.2a5.82 5.82 0 01-.264.561c-.014.027-.032.048-.04.048-.009 0-.016.01-.016.023 0 .012-.068.124-.152.249a5.141 5.141 0 01-2.39 1.935l-.089.04a.198.198 0 01-.075.019.105.105 0 00-.059.017.483.483 0 01-.115.045 2.089 2.089 0 00-.144.046.327.327 0 01-.1.019c-.027 0-.055.009-.062.019-.006.01-.047.024-.09.03a6.794 6.794 0 01-1.784.085c-.197-.023-.245-.014-.322.06a5.158 5.158 0 01-.187.166 10.75 10.75 0 00-.217.188c-.043.04-.1.087-.127.105a.846.846 0 00-.1.087c-.03.03-.106.097-.17.15-.064.051-.13.109-.148.126a2.756 2.756 0 01-.149.127c-.064.052-.13.11-.148.127a2.814 2.814 0 01-.148.128c-.063.052-.15.127-.19.166a2.113 2.113 0 01-.149.126c-.04.031-.088.071-.106.09a4.008 4.008 0 01-.17.148 17.985 17.985 0 01-1.546 1.333c-.075.064-.149.128-.163.142a3.503 3.503 0 01-.127.106 4.229 4.229 0 00-.185.16c-.163.152-.149.583-.147-4.453 0-3.327.008-4.573.026-4.721l.038-.318a.393.393 0 01.032-.137c.01-.01.019-.055.019-.099 0-.043.01-.085.021-.092.012-.007.021-.046.021-.085 0-.04.01-.077.021-.085.012-.007.022-.04.022-.075 0-.034.01-.062.02-.062.012 0 .022-.024.022-.053 0-.03.01-.073.021-.096l.043-.084a.205.205 0 00.02-.074c0-.018.01-.05.02-.07.01-.02.028-.06.04-.09.093-.22.32-.66.348-.673.01-.004.016-.016.016-.028 0-.032.268-.422.37-.539l.137-.159a4.692 4.692 0 01.827-.76c.022-.029.402-.275.423-.275.012 0 .022-.008.022-.017 0-.01.033-.03.074-.047.04-.016.074-.036.074-.046 0-.01.02-.017.042-.017.024 0 .043-.01.043-.021 0-.012.019-.022.042-.022.023 0 .042-.01.042-.02 0-.012.02-.022.043-.022.023 0 .042-.01.042-.021 0-.012.014-.021.03-.021s.071-.02.122-.046c.05-.025.116-.054.145-.066.029-.011.07-.029.09-.039a.205.205 0 01.078-.019c.022 0 .047-.01.054-.02.007-.012.032-.022.054-.022a.207.207 0 00.079-.019.751.751 0 01.232-.066c.025 0 .05-.008.057-.019.007-.01.048-.024.091-.03l.207-.035c.07-.013.196-.03.28-.04a.67.67 0 00.17-.032c.021-.022 1.026 0 1.202.026m-1.282.765a.32.32 0 01-.128.021c-.053 0-.105.01-.116.02a.27.27 0 01-.105.03 1.257 1.257 0 00-.17.035c-.046.014-.115.03-.153.037-.038.006-.074.019-.08.03-.007.01-.031.018-.054.018a.205.205 0 00-.078.019c-.02.01-.06.028-.09.04-.349.142-.87.423-.952.514a.963.963 0 01-.085.062 6.12 6.12 0 00-.44.37c-.161.146-.5.57-.66.827-.095.15-.319.58-.319.609a.61.61 0 01-.04.106c-.05.108-.107.273-.132.38l-.04.17c-.296 1.18-.017 2.64.676 3.542a105.888 105.888 0 00.17.222c.1.131.512.545.633.635.054.04.104.08.11.086.067.08.666.435.868.515.052.02.124.05.159.067.199.09.634.209.984.267.212.036 1.064.036 1.26 0 .553-.099.876-.2 1.323-.413.153-.073.659-.388.7-.436.005-.007.048-.04.094-.074.114-.083.56-.524.62-.612.026-.038.064-.088.085-.11.096-.107.316-.459.439-.703A4.339 4.339 0 0021.433 4.2a2.638 2.638 0 00-.273-.222 1.04 1.04 0 01-.085-.063c-.066-.073-.55-.344-.815-.456a2.13 2.13 0 01-.122-.055.193.193 0 00-.075-.02.105.105 0 01-.058-.017.483.483 0 00-.116-.045 2.089 2.089 0 01-.144-.046.318.318 0 00-.096-.019c-.026 0-.057-.008-.068-.019a.276.276 0 00-.105-.03 5.346 5.346 0 01-.211-.037c-.165-.032-1.26-.049-1.303-.02m.101 1.721l.006.82h-.29c-.378 0-.514.024-.738.13-.172.081-.455.375-.455.472 0 .019-.008.034-.019.034-.053 0-.097 2.094-.045 2.146a.093.093 0 01.022.058c0 .04.086.216.11.227.01.004.017.018.017.032 0 .035.239.26.293.278.025.008.046.023.046.034 0 .01.014.02.032.02.031 0 .057.01.158.063.035.019.171.03.413.036.198.005.382.013.408.019l.047.01v1.629h-.05a.472.472 0 01-.11-.018 3.157 3.157 0 00-.178-.045 2.643 2.643 0 01-.514-.172.184.184 0 00-.068-.019c-.018 0-.033-.01-.033-.021 0-.012-.019-.021-.042-.021-.023 0-.042-.01-.042-.021 0-.012-.02-.022-.043-.022-.023 0-.042-.007-.042-.016 0-.009-.036-.032-.08-.052a1.217 1.217 0 01-.216-.123 1.01 1.01 0 00-.085-.063.831.831 0 01-.085-.063.804.804 0 00-.084-.063 3.747 3.747 0 01-.312-.291c-1.657-1.68-1.158-4.489.979-5.522.109-.052.21-.095.227-.095a.087.087 0 00.049-.018c.042-.036.619-.193.687-.186.028.003.033.112.037.823m1.191-.788a2.606 2.606 0 01.625.19c.504.187 1.15.699 1.472 1.165.052.075.102.14.11.144.01.004.016.017.016.028s.027.06.06.11c.5.74.613 1.998.264 2.936-.102.275-.383.793-.47.868-.007.006-.04.047-.073.092a4.99 4.99 0 01-.543.543 4.012 4.012 0 01-.55.36.344.344 0 01-.064.035l-.159.071a7.169 7.169 0 01-.148.065 5.108 5.108 0 01-.574.166.699.699 0 01-.132.023h-.046V9.25l.048-.01c.026-.006.205-.015.397-.02.365-.011.41-.02.614-.127.112-.059.339-.264.339-.307 0-.011.007-.024.016-.028a.598.598 0 00.11-.23c0-.021.01-.045.022-.052.014-.008.021-.367.021-1.006s-.007-.997-.02-1.006c-.013-.007-.022-.04-.022-.075 0-.034-.01-.062-.021-.062-.012 0-.021-.02-.021-.043 0-.023-.008-.042-.016-.042-.01 0-.028-.027-.043-.06-.04-.09-.276-.304-.397-.361-.223-.106-.36-.13-.737-.13h-.29v-.813c0-.843.001-.852.085-.824.018.006.075.019.127.029m.439 2.576c.047.072.07 1.393.026 1.541-.042.144.014.137-1.164.137-1.13 0-1.102.002-1.159-.1-.052-.092-.036-1.498.017-1.574l.044-.061H19.655l.038.057m-1.932 10.234c.008.011.046.021.085.021.04 0 .077.01.085.021.007.012.031.021.054.021s.058.009.078.02l.143.068a.785.785 0 01.147.087c.022.02.051.037.064.037.034 0 .392.374.392.41 0 .028-.103.129-.38.372-.1.087-.127.082-.221-.04a.547.547 0 00-.094-.107.614.614 0 01-.106-.086c-.266-.243-.738-.295-1.104-.121-.308.146-.564.507-.627.885-.032.196-.008.641.037.669.01.006.018.028.018.05 0 .078.142.311.265.435.293.295.715.383 1.143.24.174-.059.254-.113.44-.3.148-.147.16-.152.227-.076.006.006.099.086.207.176.219.184.217.18.138.286-.148.198-.458.414-.768.537-.03.011-.07.03-.09.04a.234.234 0 01-.089.018c-.028 0-.057.008-.063.018-.036.059-.814.059-.85 0-.007-.01-.045-.018-.085-.018-.04 0-.073-.01-.073-.021 0-.012-.019-.021-.042-.021a.208.208 0 01-.08-.019 3.259 3.259 0 00-.1-.048.457.457 0 01-.074-.04.493.493 0 00-.064-.04l-.093-.052c-.758-.43-1.014-1.743-.503-2.586.165-.272.488-.583.665-.639.02-.006.037-.02.037-.03 0-.01.02-.019.043-.019.023 0 .042-.01.042-.021 0-.012.018-.021.041-.021.023 0 .047-.01.054-.021.007-.012.036-.022.064-.022.027 0 .056-.01.063-.02.007-.012.046-.022.085-.022.04 0 .077-.01.085-.021.008-.013.165-.021.402-.021.237 0 .394.008.402.02m-6.86.086c.007.011.036.02.065.02.028 0 .068.01.089.02l.1.046c.64.286.734 1.21.153 1.515-.076.04-.078.037.074.108.673.316.658 1.376-.023 1.69-.066.03-.136.064-.156.075a.25.25 0 01-.097.02c-.032 0-.068.008-.08.019-.038.038-1.566.088-1.695.056l-.05-.013v-3.578h.803c.513 0 .808.008.817.022m11.386.01c.044.008.08.024.08.034 0 .01.014.019.03.019.034 0 .153.062.256.134.166.116.311.329.393.575.036.112.037.573 0 .67-.137.361-.364.597-.69.717-.157.058-.249.07-.601.082l-.394.014-.006.633c-.003.424-.013.643-.029.662-.029.035-.57.04-.633.006-.04-.021-.041-.064-.041-1.8v-1.779l.778.008c.428.005.814.016.857.024m-.92.574c-.01.01-.017.248-.017.532v.515h.273c.35 0 .5-.045.613-.183.2-.242.12-.656-.156-.813-.087-.05-.675-.092-.714-.051m-11.386.401v.392h.306c.572 0 .787-.164.69-.525-.057-.212-.172-.259-.639-.259H9.98v.392m14.777-.04a.481.481 0 01.163.033c.006.01.029.018.05.018.231 0 .576.378.637.699.028.151.028 1.79-.001 1.843-.02.037-.047.041-.292.041-.293 0-.322-.01-.322-.109 0-.073-.034-.095-.08-.053a1.146 1.146 0 01-.32.162c-.02 0-.046.01-.059.023-.032.032-.552.033-.584.001a.098.098 0 00-.06-.024c-.122 0-.398-.233-.478-.403a1.065 1.065 0 01-.047-.615c.155-.486.535-.688 1.265-.673.253.005.331 0 .33-.02a4.393 4.393 0 01-.006-.083c-.018-.336-.612-.372-1.193-.074-.008.004-.044-.034-.08-.084a3.122 3.122 0 00-.096-.129c-.018-.02-.031-.045-.031-.054 0-.01-.018-.035-.039-.058-.109-.117.006-.237.346-.36.13-.046.613-.117.7-.102.024.004.113.014.197.021m-10.781.075a1.326 1.326 0 01.792 2.057c-.108.157-.355.375-.425.375-.012 0-.023.01-.023.021 0 .012-.019.021-.042.021-.023 0-.042.01-.042.021 0 .012-.019.022-.041.022-.023 0-.047.01-.055.02-.007.013-.045.022-.084.022-.04 0-.078.01-.085.021-.007.012-.116.021-.254.021s-.247-.009-.254-.02c-.007-.012-.037-.022-.065-.022a.227.227 0 01-.089-.02l-.153-.073c-.432-.2-.72-.67-.72-1.174a1.228 1.228 0 01.107-.53c.105-.278.55-.702.74-.702.021 0 .046-.01.053-.02.007-.012.038-.022.07-.022a.2.2 0 00.089-.021c.043-.028.358-.026.481.003m12.706.009c.026.018.047.047.047.064 0 .016.008.047.018.067.01.02.029.06.04.09a9.747 9.747 0 00.124.291c.048.112.075.179.093.228.009.023.037.09.063.148a4.343 4.343 0 01.146.355c.01.026.038.089.063.14a.44.44 0 01.046.132c0 .022.008.04.02.04.01 0 .022.02.026.046.007.05.02.03.083-.126.013-.032.032-.074.042-.095a.185.185 0 00.02-.069c0-.017.009-.05.02-.074l.043-.084a.206.206 0 00.02-.075c0-.017.01-.05.022-.074l.042-.084a.225.225 0 00.022-.085c0-.023.01-.042.02-.042.012 0 .022-.024.022-.052 0-.029.01-.058.021-.065.012-.007.021-.032.021-.054 0-.04.008-.061.06-.163a.237.237 0 00.025-.09c0-.023.01-.042.021-.042.012 0 .021-.02.021-.043 0-.023.011-.064.025-.09.051-.1.06-.122.06-.153 0-.055.097-.074.377-.074.394 0 .4.004.32.185a5.67 5.67 0 00-.137.323.61.61 0 01-.055.115.082.082 0 00-.018.047.76.76 0 01-.055.15c-.064.14-.112.252-.135.313-.033.086-.06.15-.106.254a4.378 4.378 0 00-.103.248 4.378 4.378 0 01-.11.26l-.068.159c-.011.029-.03.07-.04.09a.185.185 0 00-.018.068c0 .018-.01.032-.021.032-.012 0-.022.015-.022.032a.185.185 0 01-.018.07l-.04.089-.047.116a6.146 6.146 0 00-.048.117c-.012.029-.03.07-.04.09a.209.209 0 00-.018.079c0 .023-.01.042-.021.042-.012 0-.022.017-.021.038 0 .073-.183.395-.294.516-.252.274-.688.342-1.051.163-.197-.096-.197-.084-.002-.384.126-.192.155-.21.226-.145.19.177.408.027.572-.394.01-.026.03-.07.042-.098.02-.041.012-.074-.045-.196a22.7 22.7 0 01-.211-.463 14.692 14.692 0 00-.106-.233l-.138-.296c-.043-.093-.114-.25-.158-.35-.115-.257-.184-.409-.28-.614-.164-.345-.167-.355-.13-.391.047-.048.654-.047.723 0m-6.983.73c0 .438-.008.678-.021.678-.012 0-.022-.02-.022-.043 0-.023-.01-.042-.02-.042-.012 0-.022-.015-.022-.033 0-.034-.265-.306-.298-.306-.01 0-.08-.06-.157-.135l-.138-.135.055-.036c.031-.02.117-.096.192-.167.075-.072.174-.164.22-.204.045-.041.083-.084.083-.096 0-.012.02-.036.043-.053.023-.016.042-.047.042-.068 0-.02.01-.038.022-.038.013 0 .02.24.02.678m-6.225-.457c-.262.074-.635.394-.635.547a.089.089 0 01-.017.049c-.072.086-.103.563-.047.712.141.374.353.595.678.71.09.032.5.036.519.006.007-.012.031-.021.054-.021.09 0 .33-.168.443-.31.178-.222.223-.364.222-.696v-.254l-.09-.186c-.22-.451-.683-.68-1.127-.557M9.98 19.445v.482l.407-.012c.609-.017.757-.108.757-.464 0-.355-.173-.463-.767-.478l-.397-.01v.482m14.356-.039c-.361.039-.474.476-.162.632.07.035.371.043.432.012l.092-.044c.167-.077.253-.213.267-.421l.012-.166-.197-.014a2.27 2.27 0 00-.444.001" id="svg_39"/><path fill="#d7a2af" d="M18.391 2.362c.09.004.238.004.328 0 .09-.004.017-.007-.164-.007-.18 0-.254.003-.164.007m-.053.74a.3.3 0 00.096 0c.026-.005.004-.01-.048-.01-.052 0-.074.005-.048.01m.34 0c.025.005.068.005.094 0 .027-.005.005-.01-.047-.01-.053 0-.074.005-.048.01m-.582.02c.02.006.054.006.074 0 .02-.004.004-.009-.037-.009-.04 0-.058.005-.037.01m.847 0c.02.005.054.005.074 0 .02-.005.004-.01-.037-.01-.04 0-.058.005-.037.01m2.938.458c0 .003.03.034.069.069l.068.062-.062-.07c-.058-.063-.075-.078-.075-.061m-6.978.295l-.105.111.111-.105c.103-.098.12-.117.105-.117-.003 0-.053.05-.111.11m7.285-.004a.588.588 0 00.093.084.369.369 0 00-.072-.084.594.594 0 00-.093-.085.366.366 0 00.072.085m-3.121.22c-.017.02-.023.25-.018.809l.005.781.005-.788c.005-.724.008-.79.043-.809.02-.012.026-.022.013-.022s-.035.012-.048.028m-1.01.797c0 .437.004.615.007.397.003-.218.003-.576 0-.794-.003-.218-.006-.04-.006.397m-2.478-.63l-.062.069.069-.062c.064-.058.078-.076.062-.076a.529.529 0 00-.069.069m5.994.058a.59.59 0 00.093.085.369.369 0 00-.072-.085.589.589 0 00-.093-.084.37.37 0 00.072.084m-3.997 1.371c.084.004.223.004.307 0 .084-.004.015-.007-.153-.007-.17 0-.238.003-.154.007m1.64 0c.078.004.212.004.297 0 .085-.004.02-.007-.142-.007-.163 0-.233.003-.155.007m-1.195.932c.294.003.775.003 1.069 0 .294-.003.053-.006-.535-.006-.588 0-.828.003-.534.006m-1.552.842c0 .465.003.653.006.416a35.06 35.06 0 000-.847c-.003-.229-.006-.035-.006.43m4.171 0c0 .455.003.638.006.407.004-.23.004-.603 0-.826-.003-.223-.006-.035-.006.42m-3.24.01c0 .414.003.583.007.376.003-.207.003-.545 0-.752-.004-.206-.007-.037-.007.376m2.308-.01c0 .396.003.555.007.353.003-.202.003-.526 0-.72-.004-.194-.007-.03-.007.367m3.934-.52c0 .042.005.058.01.038a.174.174 0 000-.074c-.005-.02-.01-.004-.01.037m-10.206.307c0 .046.005.063.01.037a.232.232 0 000-.085c-.006-.02-.01.001-.01.048m10.228.032c0 .052.004.074.01.047a.3.3 0 000-.095c-.006-.026-.01-.005-.01.048m-9.484.19c0 .11.003.156.008.1a1.545 1.545 0 000-.2c-.005-.056-.008-.01-.008.1m8.743-.01c0 .058.005.08.01.047a.38.38 0 000-.106c-.006-.026-.01 0-.01.059m-7.813.01c0 .053.004.074.009.048a.304.304 0 000-.095c-.005-.027-.01-.005-.01.047m8.556.17c0 .064.004.09.009.058a.468.468 0 000-.117c-.005-.032-.01-.005-.01.059m-.022.338c0 .041.005.058.01.037a.174.174 0 000-.074c-.005-.02-.01-.003-.01.037m-5.605 2.076c0 .44.007.796.015.79.01-.005.016-.361.016-.79 0-.43-.007-.786-.016-.791-.008-.006-.015.35-.015.79m1.015-.778c-.03.077.002 1.57.033 1.578.024.006.025.004.004-.01-.02-.016-.025-.188-.02-.807a26.22 26.22 0 000-.787c-.004 0-.011.012-.017.026m2.943 1.97l-.062.068.069-.062a.528.528 0 00.068-.069c0-.016-.017-.002-.075.063M9.29 18.735c0 .973.003 1.37.006.884.003-.486.003-1.282 0-1.768s-.006-.088-.006.884m6.766-1.344a.483.483 0 00-.083.095.73.73 0 00.104-.095.48.48 0 00.083-.096.732.732 0 00-.104.096m-6.094.163c-.029.028-.038.79-.01.807.009.006.016-.172.016-.395v-.406l.318-.012.317-.011-.308-.004c-.216-.004-.315.003-.333.02m11.37.53c-.002.287.003.527.012.532.009.006.014-.148.01-.342-.01-.652-.017-.717-.021-.19m4.819-.073c.096.004.249.004.339 0 .09-.004.01-.007-.176-.007s-.26.003-.163.007m2.053 0c.084.004.222.004.307 0 .084-.004.015-.008-.154-.008-.169 0-.238.004-.153.008m-13.611.35c.088.093.107.11.107.094 0-.004-.046-.049-.101-.1l-.1-.095.094.1m.919.397c0 .1.003.14.008.09.004-.05.004-.13 0-.18-.005-.05-.008-.009-.008.09m.72-.02c0 .086.003.122.008.079a.92.92 0 000-.16c-.005-.043-.009-.007-.009.08m-4.686.07c0 .004.03.035.068.07l.07.061-.063-.069c-.058-.064-.075-.078-.075-.062m13.35.078l-.085.016.079.003c.043.001.084-.007.09-.019.008-.011.01-.02.007-.018-.003.002-.044.01-.09.018m-14.952.562c0 .256.003.358.007.226a9.698 9.698 0 000-.466c-.004-.124-.007-.017-.007.24m2.496-.149c0 .07.004.096.01.058a.568.568 0 00-.001-.127c-.005-.032-.009 0-.009.07m8.897.571c0 .35.002.495.006.324.004-.17.004-.457 0-.635-.003-.178-.006-.038-.006.311m3.373-.483a.231.231 0 00.085 0c.02-.005-.002-.01-.048-.01-.047.001-.063.005-.037.01m.131.53l-.073.08.08-.073c.073-.068.089-.086.072-.086a.723.723 0 00-.079.08m-7.595.042a.92.92 0 00.159 0c.043-.005.008-.009-.08-.009-.087 0-.123.004-.08.008m-4.22.096c.053.056.098.1.101.1.016 0 0-.018-.094-.106l-.1-.094.094.1m-.232.133c.04.04.076.074.082.074.006 0-.022-.034-.061-.074a.464.464 0 00-.082-.075c-.006 0 .021.034.06.075m.864.407c.038.004.1.004.137 0 .038-.005.007-.009-.068-.009-.076 0-.107.004-.07.009" id="svg_38"/><path fill="#e4c0c7" d="M18.015 2.368c-.027.011.004.014.085.006a.802.802 0 00.136-.02c.019-.017-.18-.004-.22.014m.859-.014a.804.804 0 00.136.02c.08.008.111.005.084-.006-.04-.018-.24-.03-.22-.014m-1.167.056c-.023.016-.014.018.032.008.078-.018.095-.03.04-.03a.154.154 0 00-.072.022m1.59-.014a.332.332 0 00.073.022c.046.01.054.008.031-.008-.028-.019-.125-.032-.104-.014m-.965.712c-.11.01-.054.015.22.018.203.002.365 0 .36-.004-.019-.017-.44-.027-.58-.014m-.445.043c-.058.014-.06.016-.01.018a.173.173 0 00.084-.018c.036-.024.018-.024-.074 0m1.25-.001c.04.018.154.03.135.014a.44.44 0 00-.093-.02c-.06-.01-.072-.008-.042.006m-1.483.043c-.04.017-.04.018.004.02.026 0 .053-.008.06-.02.015-.025-.005-.025-.064 0m1.726 0c.018.011.05.02.074.02l.043-.002-.043-.018c-.063-.027-.116-.027-.074 0m-4.383.574l-.201.193.206-.185c.182-.163.222-.202.201-.2-.002 0-.095.087-.206.192m6.998-.087c.058.058.11.106.115.106a.606.606 0 00-.094-.106.888.888 0 00-.115-.106.611.611 0 00.094.106m-5.754.076c-.08.043-.074.06.005.02.035-.019.064-.038.064-.044 0-.013-.002-.013-.069.024m6.104.273a.46.46 0 00.082.074c.006 0-.022-.033-.061-.074a.462.462 0 00-.083-.074c-.005 0 .022.034.062.074m-7.614.016l-.062.069.069-.062c.064-.058.078-.076.062-.076a.53.53 0 00-.069.07m1.064.026c-.033.03-.05.053-.04.053.01 0 .04-.024.068-.053.063-.068.05-.067-.028 0m5.45-.037c0 .008.026.034.057.056l.058.04-.051-.056c-.054-.06-.066-.066-.065-.04m-3.293.028c-.038.018-.037.02.01.01.028-.006.065.001.082.015.025.021.03.02.02-.006-.012-.039-.056-.046-.112-.02m1.117-.008c-.015.006-.027.02-.027.033 0 .014.01.014.028-.001.015-.013.05-.019.08-.013.045.009.046.008.009-.01-.049-.023-.054-.024-.09-.009m-1.318.05c-.023.014-.01.017.042.007.091-.017.109-.029.04-.028a.182.182 0 00-.082.02m1.484-.013a.39.39 0 00.083.021c.052.01.064.007.042-.007-.029-.02-.146-.032-.125-.014m-4.638.106l-.05.066.06-.057c.033-.032.056-.062.051-.066-.005-.005-.032.02-.06.057m2.983-.05c-.022.015-.01.017.043.007.091-.016.108-.028.04-.028a.182.182 0 00-.083.021m1.823-.014a.39.39 0 00.083.021c.052.01.065.008.042-.007-.028-.019-.146-.032-.125-.014m-3.762.083l-.062.068.07-.062a.532.532 0 00.068-.069c0-.016-.018-.001-.076.063m5.75-.063a.53.53 0 00.07.07l.068.061-.062-.068c-.058-.065-.075-.079-.075-.063m1.103.05c.028.036.055.061.06.057.005-.005-.018-.034-.05-.066l-.061-.058.05.066m-5.31.084c-.039.017-.07.035-.07.04 0 .01.169-.05.19-.066.022-.019-.06 0-.12.026m-2.763.13c-.05.06-.127.175-.116.175a.624.624 0 00.087-.105c.075-.105.09-.14.03-.07m8.364.173c.077.115.144.207.148.203a3.117 3.117 0 00-.27-.4c-.01-.007.044.082.122.197m-5.952-.126c-.085.054-.1.076-.027.037.09-.047.131-.078.106-.076a.279.279 0 00-.08.039m3.373-.019c.073.05.115.065.063.022a.203.203 0 00-.074-.043c-.011 0-.007.01.01.021m-4.88.073a3.299 3.299 0 01-.113.136.602.602 0 00-.083.108c.017 0 .233-.256.224-.265-.004-.005-.017.005-.029.02m6.541.125c.068.08.156.192.197.25a.603.603 0 00.085.103c.026 0-.296-.41-.365-.467-.022-.017.016.034.083.114m-7.638.056a.47.47 0 00-.056.1c0 .009.013-.003.029-.026.069-.101.102-.158.093-.158a.378.378 0 00-.066.084m2.21.035c-.053.04-.11.09-.127.108-.018.018.028-.012.1-.067a1.06 1.06 0 00.133-.109c0-.014-.005-.011-.106.068m4.203-.005a.41.41 0 00.104.076c.01 0 .016-.003.01-.006l-.103-.076-.096-.07.085.076m-5.561.092c-.061.074-.087.111-.076.111a.338.338 0 00.067-.074c.057-.075.064-.104.009-.037m.826.424c-.067.074-.11.132-.1.132a.692.692 0 00.088-.095c.088-.105.096-.13.012-.037m-1.13.017c-.02.03-.032.059-.027.063.004.005.024-.02.045-.055.045-.077.032-.083-.018-.008m.965.192c-.024.03-.044.066-.044.08 0 .012.012.004.025-.02a.567.567 0 01.055-.079c.018-.02.027-.037.02-.037-.007 0-.032.025-.056.056m-.11.161a3.455 3.455 0 01-.056.1c-.03.051-.03.052.005.011.042-.05.101-.159.086-.159-.005 0-.021.022-.035.048m1.664.1c-.057.015-.058.017-.01.017.029 0 .077-.007.106-.016.07-.023-.006-.023-.096 0m2.425 0c.03.01.077.017.106.016.047 0 .046-.002-.01-.016-.09-.023-.167-.023-.096 0m-2.901.24a1.46 1.46 0 00-.105.11c-.03.035-.003.015.058-.042.1-.096.121-.119.105-.117a.523.523 0 00-.058.05m3.504.052c.057.06.108.109.112.109.017 0-.093-.12-.153-.168-.036-.028-.017-.002.04.059m2.472.448c0 .055.034.145.035.095a.248.248 0 00-.018-.085c-.01-.025-.018-.03-.017-.01m-9.285.014c-.008.008-.014.034-.013.058.001.04.003.04.022-.006.02-.052.016-.077-.01-.052m10.079.039c.017.078.03.095.029.04a.154.154 0 00-.022-.072c-.016-.023-.018-.015-.007.032m-7.097.963c0 .507.003.714.006.46.003-.253.003-.667 0-.92-.003-.254-.006-.046-.006.46m4.129 0c0 .495.003.698.006.45.004-.247.004-.652 0-.9-.003-.247-.006-.045-.006.45m-6.371-.792c-.008.03-.01.06-.004.067.006.005.017-.015.025-.046s.01-.061.004-.067c-.006-.006-.017.015-.025.046m7.657-.023c0 .023.007.061.017.085.023.054.023-.002 0-.074-.014-.043-.017-.045-.017-.011m.942.063a.44.44 0 00.02.094c.016.018.004-.095-.014-.136-.014-.03-.015-.017-.006.043m-9.382 0a.242.242 0 00-.01.08c0 .033.007.026.022-.025.02-.073.012-.116-.012-.055m3.919-.018c-.02.02-.018 1.506.001 1.518.01.005.016-.337.016-.761l-.001-.771a.103.103 0 00-.016.014m2.325.759c0 .424.007.755.015.735.008-.02.014-.351.014-.735a10.3 10.3 0 00-.014-.735c-.008-.02-.015.31-.015.735m3.922-.689a.52.52 0 00.02.105c.016.018.004-.117-.014-.157-.013-.029-.015-.011-.006.052m-8.48.085c0 .04.005.058.01.037a.174.174 0 000-.074c-.005-.02-.01-.004-.01.037m-.945.13a.267.267 0 00-.005.097c.005.005.016-.03.024-.079.008-.048.01-.092.005-.097-.005-.005-.016.03-.024.078m8.685.083c.006.099.014.184.019.189.014.016.002-.241-.014-.306-.009-.035-.01.018-.005.117m-9.468.045c-.007.036-.013 2.085-.013 4.553 0 4.94-.01 4.573.128 4.456.036-.03.057-.055.046-.055-.01 0-.037.02-.058.042-.1.112-.096.346-.09-4.51.003-2.504.004-4.552.003-4.552a.452.452 0 00-.016.066m1.688.103c0 .1.004.14.008.09a1.21 1.21 0 000-.18c-.004-.05-.008-.009-.008.09m8.558.23c0 .224.006.385.014.359.018-.066.019-.579 0-.682-.007-.045-.014.1-.014.324m-1.676-.178c0 .093.004.129.008.079.005-.05.005-.126 0-.17-.005-.043-.008-.002-.008.091m0 .381c0 .093.004.129.008.08.005-.05.005-.127 0-.17-.005-.044-.008-.003-.008.09m-6.882.064c0 .093.004.128.008.079.005-.05.005-.126 0-.17-.004-.043-.008-.002-.008.09m7.792.075c0 .076.004.107.008.069a.675.675 0 000-.138c-.004-.038-.008-.007-.008.069m-8.705.085c0 .029.008.081.017.116.014.057.016.058.016.01a.576.576 0 00-.016-.116c-.015-.057-.017-.058-.017-.01M21.954 8c-.008.048-.01.092-.005.097.005.005.016-.03.024-.078a.266.266 0 00.005-.098c-.005-.005-.016.03-.024.079m-6.803.084c0 .041.004.058.01.037a.174.174 0 000-.074c-.006-.02-.01-.003-.01.037m8.49 0a.875.875 0 01-.016.106c-.01.046-.009.048.012.016a.192.192 0 00.016-.106c-.007-.053-.01-.057-.013-.016m-9.401.106c0 .018.008.051.018.074.011.027.018.03.018.01a.233.233 0 00-.018-.073c-.012-.027-.018-.03-.018-.01m3.23.132c.012.02 2.16.02 2.174 0 .005-.01-.484-.016-1.088-.016-.603 0-1.092.007-1.087.016m6.13.05a.429.429 0 01-.015.085c-.012.037-.011.037.012.002a.134.134 0 00.015-.085c-.01-.047-.01-.047-.012-.001m-8.367.061c0 .023.01.055.022.073.016.023.018.014.007-.032-.017-.078-.03-.095-.029-.04m7.54.118a.392.392 0 01-.014.074c-.012.037-.011.037.012 0a.108.108 0 00.015-.073c-.01-.033-.01-.033-.013-.001m-7.497.01a.36.36 0 00.03.095c.017.04.032.06.032.047a.36.36 0 00-.03-.095c-.017-.04-.031-.06-.032-.047m.095.255c.032.076.052.11.052.087a.581.581 0 00-.074-.165c-.006 0 .004.035.022.078m1.344.055c0 .004.031.035.069.07l.069.061-.062-.068c-.058-.065-.076-.079-.076-.063m3.601.064l-.051.067.067-.062c.07-.064.078-.076.052-.074-.01 0-.04.032-.068.069m-.176.132c-.08.043-.074.061.005.02.035-.018.064-.037.064-.043 0-.013-.002-.013-.069.023m-2.787.16c.028.008.193.014.368.014.383-.002.33-.012-.103-.021-.174-.004-.293 0-.265.008m2.04-.003l-.317.012.318.003c.174.002.336-.005.36-.015l.042-.018-.042.002-.36.016m2.975.339c-.024.046-.039.084-.033.084.006 0 .03-.038.054-.084.024-.047.038-.085.033-.085a.298.298 0 00-.054.085m-6.543.02a.671.671 0 00.091.1c.013.008-.012-.03-.057-.084a.663.663 0 00-.091-.1c-.006 0 .02.038.057.084m-1.037.096c0 .012.02.045.044.074.028.035.035.039.02.01-.035-.068-.064-.107-.064-.084m7.376.217c-.108.16-.118.175-.107.175.008 0 .158-.21.192-.27.042-.073-.012-.012-.085.095m-6.065-.01c.052.055.097.1.1.1.017 0 0-.019-.094-.107l-.1-.094.094.1m6.96.022l-.038.068.043-.053c.039-.046.056-.084.039-.084a.343.343 0 00-.044.069m-8.06.095a.375.375 0 00.058.069c.016 0-.037-.08-.071-.108-.023-.018-.018-.004.013.039m7.933.116l-.038.07.043-.054c.039-.047.056-.084.039-.084a.342.342 0 00-.044.068m-7.679.206c0 .018.421.434.428.423a2.187 2.187 0 00-.21-.222 2.38 2.38 0 00-.218-.201m6.373.228l-.18.186.186-.18a4.29 4.29 0 00.185-.185c0-.015-.024.007-.19.18m1.025-.023c-.032.042-.048.07-.035.062.027-.016.119-.14.104-.14a.398.398 0 00-.069.078m-.157.192c0 .012-.121.15-.269.305-.157.165-.196.212-.094.113.22-.212.394-.41.376-.428-.007-.007-.013-.003-.013.01m-4.584.133c.054.022.158.025.158.004 0-.008-.045-.017-.1-.018-.07-.002-.088.003-.058.014m1.132.004c0 .021.104.018.16-.004.028-.011.01-.016-.059-.014-.055.001-.1.01-.1.018m-3.05.131c0 .006.07.057.154.114.174.117.227.148.196.116a2.936 2.936 0 00-.35-.23m4.932.115l-.223.146c-.022.015-.006.011.034-.008.083-.04.381-.236.381-.252 0-.014.007-.018-.192.114m.722.43c-.17.13-.214.176-.081.082.108-.075.246-.19.229-.189-.006 0-.073.048-.148.106m-4.846-.077a.523.523 0 00.166.065c0-.006-.034-.025-.076-.043-.079-.033-.108-.04-.09-.022m3.395.034c-.046.022-.06.035-.031.027.06-.014.17-.07.137-.069a.516.516 0 00-.106.042m-3.144.072c.029.017.067.03.085.03.017 0 0-.013-.04-.03-.09-.04-.114-.039-.045 0m2.88.023c-.076.027-.124.05-.106.05.034.002.251-.073.27-.093.02-.019-.02-.008-.164.043m-2.732.03c.018.011.05.021.072.021.055 0 .038-.011-.04-.029-.046-.01-.055-.008-.032.007m2.499.044c-.044.014-.046.017-.01.019a.148.148 0 00.073-.02c.037-.023.012-.023-.063 0m-1.943.1c.02.005.054.005.074 0 .02-.005.004-.01-.037-.01-.04 0-.057.005-.037.01m1.514 0a.232.232 0 00.085 0c.02-.005-.001-.01-.048-.01-.047.001-.063.005-.037.01m-1.207.043c.038.005.1.005.138 0 .038-.005.007-.008-.07-.008-.075 0-.106.003-.068.008m.847 0c.038.005.1.005.138 0 .037-.005.007-.008-.07-.008-.075 0-.106.003-.068.008m-.476.022c.067.004.176.004.243 0 .067-.005.012-.008-.122-.008s-.188.003-.121.008m2.615.102c-.08.043-.075.06.005.02.035-.018.063-.038.063-.043 0-.014-.002-.013-.068.023m-1.011.433c-.044.014-.046.017-.011.018a.148.148 0 00.074-.018c.037-.024.011-.024-.063 0m-.149.042c-.043.014-.045.017-.01.019a.149.149 0 00.074-.02c.037-.023.011-.023-.064 0m-.169.043l-.053.017.057.002c.031.001.063-.007.07-.019.015-.024.001-.024-.074 0m-.18.043c-.059.015-.06.016-.01.018a.173.173 0 00.084-.018c.036-.024.018-.024-.074 0m-1.828.04c-.013.008.03.016.096.02.066.002.116 0 .11-.004a.474.474 0 00-.206-.016m1.563.002l-.095.015.085.003a.266.266 0 00.116-.018c.018-.011.022-.02.01-.018l-.116.018m-1.203.045c.063.018.876.018.959 0 .034-.007-.178-.013-.473-.013-.294 0-.512.006-.486.013m-.661.194c-.115.107-.094.094.07-.044.045-.038.073-.068.064-.068-.01 0-.07.05-.134.112m-.26.218c-.034.03-.057.057-.052.063.005.005.036-.02.07-.054.073-.077.064-.082-.019-.01m-.3.27l-.063.068.064-.053c.035-.03.067-.055.072-.058.005-.003.004-.01-.001-.016-.006-.006-.039.02-.073.058m-.296.254l-.062.069.063-.053.073-.058c.005-.003.004-.01-.002-.016-.006-.005-.038.02-.072.058m-.297.254l-.062.069.064-.053.072-.058c.005-.003.004-.01-.001-.016-.006-.005-.039.02-.073.058m-.369.315c-.057.052-.07.07-.031.044.058-.038.155-.132.135-.13a.953.953 0 00-.104.086m-.266.236l-.062.069.069-.062c.064-.058.079-.076.062-.076a.526.526 0 00-.069.069m-.296.254l-.062.069.068-.062c.065-.058.079-.076.063-.076a.528.528 0 00-.07.069m-.147.127l-.063.069.07-.062c.063-.058.078-.076.061-.076a.526.526 0 00-.068.069m-.297.254l-.062.069.069-.062c.064-.058.078-.076.062-.076a.528.528 0 00-.069.07m-.259.217a.547.547 0 00-.116.115c.009 0 .074-.052.144-.116.164-.149.145-.148-.028.001m-.296.254a.548.548 0 00-.117.115c.01 0 .074-.052.144-.115.165-.15.145-.15-.027 0m-.281.249c-.114.107-.094.094.07-.044.045-.038.073-.068.064-.068-.009 0-.07.05-.134.112m-.275.233c-.104.097-.078.085.05-.023.043-.038.072-.068.063-.067-.01 0-.06.04-.113.09m-2.932 1.074c.058.025.08.025.064 0-.007-.012-.034-.02-.06-.02-.044.001-.045.002-.004.02m9.815 1.756c0 1.736 0 1.779.04 1.8.061.033.605.029.633-.004.017-.021-.047-.026-.315-.02l-.338.006.006-1.78c.003-.979-.002-1.78-.01-1.78-.01 0-.016.8-.016 1.778m-2.026-1.36c.19.205.188.199.072.323l-.09.096.1-.095c.13-.122.131-.12-.071-.324l-.172-.174.161.174m-2.581.011c-.09.096-.19.218-.134.164.064-.061.236-.254.227-.254a.704.704 0 00-.093.09m6.745-.074c0 .012.015.034.034.05a.69.69 0 01.095.134c.062.109.086.12.032.016-.04-.076-.16-.227-.16-.2m-11.201.156c0 .008.013.046.03.085.017.04.03.057.03.04.001-.03-.059-.152-.06-.125m5.515.04l-.042.018.042.001a.153.153 0 00.074-.019c.042-.027-.01-.027-.074 0m4.245.037c0 .009.14.016.309.016.17 0 .286-.006.26-.014-.07-.02-.569-.021-.569-.002m-11.382.032a4.364 4.364 0 00-.005.408l.006.38.296.001.297.001-.291-.006-.291-.007v-.781l.333-.007.334-.006-.335-.005c-.255-.004-.336.002-.344.022m5.839.102c-.026.046-.044.083-.038.083.014 0 .103-.15.094-.158-.004-.005-.03.029-.056.075m2.157-.01c.002.022.145.145.154.133.004-.005-.03-.04-.074-.08-.045-.039-.08-.062-.08-.052m-6.283.209c0 .104.004.15.008.1a1.38 1.38 0 000-.19c-.004-.056-.008-.015-.008.09m4.969-.13a1.46 1.46 0 00-.106.11c-.029.034-.003.015.058-.043.1-.095.122-.119.106-.117a.533.533 0 00-.058.05m6.386.045c.017.078.03.095.03.04a.154.154 0 00-.023-.072c-.015-.023-.017-.015-.007.032m-7.33.055c-.018.036-.03.069-.025.074.004.004.024-.025.043-.066.044-.091.029-.098-.018-.008m-4.72.104c0 .08.006.13.014.11a.386.386 0 00.014-.11c0-.041-.006-.09-.014-.11-.008-.02-.015.029-.015.11m7.246-.016c.065.086.113.1.157.042.024-.031.023-.033-.002-.01-.046.04-.08.031-.15-.043l-.066-.069.06.08m6.17-.027c-.093.01-.072.014.101.015.12 0 .215-.001.212-.004-.02-.015-.213-.022-.313-.01m-.34.042c-.022.015-.009.017.043.007.091-.017.109-.029.04-.028a.182.182 0 00-.082.02m.74-.012c0 .004.029.012.063.017.035.005.058.001.052-.008-.01-.017-.114-.026-.114-.01m-11.3.051c-.013.009.089.016.227.016s.235-.007.215-.015c-.05-.02-.412-.02-.442-.001m8.85.1c0 .07.004.096.009.058a.562.562 0 000-.127c-.005-.032-.009 0-.009.07m.72-.011c0 .064.004.09.009.058a.468.468 0 000-.117c-.005-.032-.01-.005-.01.059m2.903-.09c-.014.009.119.012.294.009.361-.008.413 0 .44.065.013.035.018.038.02.012.003-.088-.636-.16-.754-.086m2.052.006c-.027.01-.048.031-.048.046 0 .019.007.017.02-.005.017-.025.081-.033.31-.038.36-.01.399-.001.38.076-.01.043-.007.05.009.026.036-.053.025-.1-.025-.114-.074-.02-.593-.013-.646.009m-2.049.162c.032.076.053.11.053.087a.58.58 0 00-.075-.165c-.006 0 .004.035.022.078m-.625.06c.064.063.12.116.126.116a.755.755 0 00-.104-.117 1.06 1.06 0 00-.126-.116.755.755 0 00.104.116m-14.493.02c-.047.045-.066.072-.043.06.047-.026.15-.13.136-.138a.388.388 0 00-.093.078m2.056.033c-.056.047-.094.085-.084.084.02 0 .216-.168.197-.168a.796.796 0 00-.113.084m2.646-.03c-.008.031-.01.06-.005.065.005.006.015-.016.023-.047.008-.03.01-.06.005-.065-.005-.005-.016.016-.023.047m-2.109.031c-.023.016-.014.018.032.008.078-.018.095-.03.04-.03a.154.154 0 00-.072.022m.426-.014a.334.334 0 00.072.021c.046.01.055.009.032-.007-.029-.02-.126-.033-.104-.014m.748.12c.144.162.179.194.102.094a1.358 1.358 0 00-.135-.148c-.04-.037-.027-.014.033.053m11.419-.069c.015.042.07.127.07.109a.53.53 0 00-.075-.146c-.005 0-.003.017.005.037m-2.998.02a.431.431 0 01-.015.084c-.011.037-.01.037.012.002a.134.134 0 00.015-.085c-.009-.047-.009-.047-.012-.001m-6.776.113a.937.937 0 01-.014.105l-.01.053.022-.052a.226.226 0 00.014-.106l-.008-.053-.004.053m-3.239.07c-.065.07-.057.091.01.025.03-.03.05-.06.046-.065-.005-.005-.03.013-.056.04m11.202-.031c-.027.007.056.014.184.014.129 0 .218-.007.198-.015a1.336 1.336 0 00-.382 0m.464.033c.022.02.146.077.146.067a.395.395 0 00-.14-.075c-.008 0-.011.004-.006.008m-9.88.12c.018.034.038.063.044.063.005 0-.005-.029-.023-.064s-.037-.063-.043-.063c-.006 0 .004.028.022.063m-3.58-.019c-.016.027.028.061.076.06.017 0 .01-.01-.018-.02-.027-.012-.043-.03-.035-.042.007-.012.008-.021.002-.021s-.017.01-.025.023m10.246.014c.067.004.172.004.232 0 .061-.005.006-.008-.122-.008s-.178.003-.11.008m1.433.046c0 .036-.22.26-.326.332-.06.04-.1.072-.09.072.04 0 .205-.133.317-.254.107-.115.142-.17.11-.17-.006 0-.01.01-.01.02m-11.435.078c.096.068.223.21.261.29.038.08.066.108.042.041a.767.767 0 00-.292-.332c-.062-.036-.063-.035-.011.001m3.106.06c.02.042.04.071.044.066.01-.01-.055-.139-.07-.139-.005 0 .007.033.026.074m10.368-.006c.002.043.01.071.019.063.008-.009.007-.044-.004-.079-.018-.062-.019-.062-.015.016m.66.81c0 .49.002.687.005.439a38.94 38.94 0 000-.89c-.003-.24-.006-.037-.006.452m-1.232-.736c.09.004.238.004.328 0 .09-.004.016-.007-.164-.007s-.255.003-.164.007m-8.132.037c0 .023.008.071.017.106.014.057.016.058.016.01a.408.408 0 00-.016-.105c-.014-.042-.017-.044-.017-.011m-6.284.059a6.292 6.292 0 00-.005.492l.006.465.308.006c.17.003.346-.002.392-.011.05-.011-.07-.014-.303-.009l-.386.01v-.958l.323-.006.322-.007-.323-.005c-.246-.003-.326.002-.334.023m4.992.005c0 .023.008.066.017.095.013.042.017.044.017.01a.383.383 0 00-.017-.095c-.014-.042-.017-.044-.017-.01m-4.276.004c.02.005.053.005.074 0 .02-.006.003-.01-.037-.01-.041 0-.058.004-.037.01m1.765.074a.365.365 0 00-.01.09c0 .024.01.006.02-.04.021-.087.012-.132-.01-.05m-1.44.073c.057.056.108.1.113.097.013-.008-.13-.153-.176-.178-.022-.012.007.024.063.08m1.718.056a1.27 1.27 0 00.003.238c.011.082.015.051.016-.132.002-.271-.003-.295-.02-.106m10.847-.01l-.073.079.079-.073c.074-.068.09-.086.073-.086a.725.725 0 00-.08.08m-8.567.121c0 .093.004.129.009.079.004-.05.004-.126 0-.17-.005-.043-.009-.002-.009.091m-.296 0c0 .082.003.112.008.069a.787.787 0 000-.149c-.005-.037-.009-.001-.008.08m7.414-.116l-.084.015.074.003a.232.232 0 00.106-.018c.034-.023.03-.023-.096 0m-.773.037c0 .008.098.013.217.01.395-.01.434-.018.106-.022-.177-.002-.323.003-.323.012m-5.788.058c.017.078.029.095.029.04a.154.154 0 00-.022-.072c-.016-.023-.018-.014-.007.032m-3.713.085c0 .058.004.08.01.047a.377.377 0 00-.001-.106c-.005-.026-.01 0-.009.059m-.698.095c0 .087.004.123.009.08a.92.92 0 000-.16c-.005-.043-.009-.007-.009.08m13.328-.07c.038.005.1.005.138 0 .037-.004.006-.008-.07-.008-.075 0-.106.004-.068.009m-.19.02a.232.232 0 00.084 0c.02-.005 0-.01-.048-.01-.046.001-.063.005-.036.01m.487 0a.568.568 0 00.127 0c.032-.004 0-.008-.07-.008s-.095.004-.057.009m-12.336.037c0 .024.007.062.017.085.023.054.023-.002 0-.074-.014-.043-.017-.045-.017-.01m12.535.066c-.002.06-.008.14-.014.18l-.01.071.021-.07a.6.6 0 00.015-.18l-.008-.11-.004.109m-1.622.062c-.008.03-.01.06-.005.065.005.005.015-.016.023-.047.008-.03.01-.06.005-.065-.005-.005-.015.016-.023.047m-11.504.073c0 .064.004.09.01.058a.468.468 0 000-.117c-.006-.032-.01-.006-.01.059m4.674-.066c0 .008.033.047.074.087.04.04.074.066.074.059a.427.427 0 00-.074-.087c-.041-.04-.074-.067-.074-.059m1.613.04c-.027.028-.045.055-.04.06.004.004.03-.016.057-.045.027-.03.046-.056.04-.06-.004-.003-.03.017-.057.045m-2.383.132c.021.035.06.09.087.121.027.032.014.004-.029-.063-.081-.127-.123-.17-.058-.058m8.228.01c0 .047.005.063.01.037a.232.232 0 000-.085c-.006-.02-.01.001-.01.048m-5.254.021c.031.035.061.078.068.095.01.028.011.028.013 0 0-.02-.03-.062-.067-.096l-.07-.062.056.063m-1.156.138c-.027.011-.03.018-.01.018.017 0 .05-.008.073-.018.027-.012.03-.018.01-.018a.233.233 0 00-.073.018m6.448-.009c0 .027.024.056.074.093.031.023.028.015-.011-.032a1.617 1.617 0 01-.058-.072c-.003-.004-.005 0-.005.011m-.675.03c0 .017.008.05.018.074.011.027.018.03.018.01a.235.235 0 00-.018-.073c-.011-.027-.018-.031-.018-.011m-8.896.053c-.028.029-.046.056-.041.06.005.005.03-.019.058-.052.06-.075.05-.08-.017-.008m-2.72.036a1.294 1.294 0 01-.115.153c-.057.064-.06.073-.016.033.066-.058.192-.23.178-.244-.005-.005-.026.021-.048.058m4.266.035c0 .01.024.04.053.067.03.027.053.043.053.036a.238.238 0 00-.053-.066c-.029-.03-.053-.046-.053-.037m-1.382.144c-.131.126-.16.177-.036.063.084-.077.18-.183.167-.182-.005 0-.064.053-.131.119m3.922-.04l-.052.058.064-.053c.035-.03.067-.055.072-.058.005-.003 0-.006-.012-.006s-.044.027-.072.059m-5.728.042c.046.049.088.085.094.079.005-.006.006-.013 0-.016a2.183 2.183 0 01-.093-.079l-.084-.074.083.09m10.705.097c0 .003.031.034.069.068l.069.063-.062-.07c-.058-.063-.076-.078-.076-.061m-9.85.03a.568.568 0 00.126 0c.032-.006 0-.01-.069-.01-.07 0-.096.005-.058.01m11.236.053l-.04.048.046-.04c.026-.021.057-.032.069-.025.012.008.022.004.022-.008 0-.039-.055-.025-.097.025m-11.876.005c.023.017.051.03.063.03.011 0 .002-.013-.02-.03a.152.152 0 00-.062-.031c-.012 0-.003.014.02.03m-2.066.097l-.053.017.057.002c.031 0 .063-.008.07-.02.015-.023 0-.023-.074 0m-1.673.025c0 .041 1.174.058 1.366.02.052-.011-.191-.02-.64-.026a9.702 9.702 0 00-.726.006m15.737.013c.015.018.102.026.293.026.381 0 .373-.039-.01-.046-.242-.006-.3-.001-.283.02m-11.555.048c.007.011.043.02.079.02.08 0 .072-.01-.022-.028-.044-.008-.065-.005-.057.008m.434 0l-.053.016.057.002c.031.001.063-.007.07-.019.015-.024.001-.024-.074 0m2.996 0c.007.012.034.02.06.02.044-.001.045-.002.004-.02-.059-.025-.08-.025-.064 0m.784 0c-.041.018-.041.019.004.02.025 0 .052-.008.06-.02.015-.025-.006-.025-.064 0m-.44.046a.427.427 0 00.18 0c.082-.018.073-.02-.09-.02-.163 0-.171.002-.09.02m9.053.404c-.041.054-.05.089-.01.04.026-.033.054-.047.075-.038.02.007.035.004.035-.008 0-.03-.076-.025-.1.006m.255.085c.033.011.08.011.113 0 .048-.015.038-.018-.056-.018-.095 0-.104.003-.057.018m.806.126c-.019.037-.083.12-.142.185l-.108.118.107-.102c.095-.09.22-.269.19-.269-.007 0-.028.03-.047.068m-.993.398c.023.01.057.018.074.018.02 0 .016-.007-.01-.018a.233.233 0 00-.074-.018c-.02 0-.016.006.01.018" id="svg_37"/><path fill="#c47c8c" d="M18.026 2.388l-.138.014.127.001c.07 0 .194-.006.276-.014l.148-.015H18.3a3.4 3.4 0 00-.275.014m.794.001c.082.008.205.015.275.015l.127-.001-.148-.015a3.104 3.104 0 00-.275-.015h-.127l.148.016m-1.122.042l-.085.015h.085a.54.54 0 00.137-.015l.053-.017h-.053a1.1 1.1 0 00-.137.017m1.577-.001c.053.017.227.03.21.014a.767.767 0 00-.136-.02c-.082-.008-.108-.006-.074.006m-1.747.032l-.227.055a.896.896 0 00-.197.057.94.94 0 00.196-.036c.25-.062.32-.082.281-.082a.214.214 0 00-.053.006m2.033.01c.138.043.437.111.445.103.01-.01-.316-.093-.434-.11-.072-.011-.072-.011-.01.008m.486.127c.007.012.034.02.06.02.044-.002.044-.002.004-.02-.059-.025-.08-.025-.064 0m-3.394.12c-.073.03-.128.06-.123.065.006.006.054-.01.107-.034a.504.504 0 01.127-.045c.017 0 .036-.01.043-.021.02-.031-.006-.025-.154.035m3.65-.034c.006.011.025.02.042.02s.074.02.127.045c.052.025.1.04.106.034.006-.005-.03-.027-.08-.047-.135-.055-.21-.075-.196-.052m-3.897.146c-.046.022-.074.04-.061.042.026.002.156-.06.156-.074 0-.013 0-.013-.095.032m4.206-.032c.023.023.471.244.479.236a1.056 1.056 0 00-.18-.104c-.184-.095-.324-.156-.299-.132m-4.497.175c-.055.03-.097.06-.092.064a.65.65 0 00.192-.102c.032-.031.007-.022-.1.038m-.36.218c-.124.081-.232.159-.24.172-.013.02.419-.258.467-.302.053-.049-.023-.005-.228.13m5.363-.128c0 .012.01.022.022.022.012 0 .123.068.246.15.124.083.219.141.211.13a1.986 1.986 0 00-.22-.158c-.262-.173-.259-.17-.259-.144m-2.922.02c-.04.007.12.013.358.013s.395-.007.35-.015a4.637 4.637 0 00-.708.002m-.349.045c-.027.012.004.014.085.006a.796.796 0 00.136-.02c.018-.016-.18-.004-.221.014m1.198-.014a.797.797 0 00.136.02c.08.008.112.006.085-.006-.04-.018-.24-.03-.22-.014m-1.421.057c-.023.015-.008.018.053.007.105-.017.122-.03.04-.03a.203.203 0 00-.093.023m1.717-.015a.45.45 0 00.093.022c.06.01.076.008.053-.007-.029-.02-.168-.033-.146-.015m-1.93.061c-.26.077-.592.198-.592.217 0 .006.05-.01.111-.034.126-.05.373-.13.545-.175.064-.017.093-.03.064-.03-.03 0-.086.01-.127.022m2.12-.019a.39.39 0 00.082.022c.052.01.065.007.042-.008-.028-.018-.146-.031-.125-.014m.284.078l.2.061c.04.013.064.015.053.005a1.585 1.585 0 00-.349-.107c-.017 0 .026.02.096.04m.288.093c.02.016.189.076.189.067a.519.519 0 00-.176-.075c-.012 0-.018.004-.013.008m-4.724.09c-.385.302-.887.854-1.112 1.226-.067.11 0 .028.113-.139a3.04 3.04 0 01.268-.348c.12-.152.503-.53.683-.675.132-.106.172-.144.149-.14-.003.001-.048.035-.1.076m6.247-.062c0 .01.054.055.119.102.142.102.623.574.727.714.04.055.082.1.092.1.034.002-.165-.223-.425-.48-.25-.246-.515-.472-.513-.436m-4.93.08c-.066.036-.087.06-.036.04.079-.03.147-.07.116-.069a.246.246 0 00-.08.029m3.785.061c.46.231.779.458 1.143.812.26.254.315.291.085.058a4.536 4.536 0 00-1.204-.88 1.017 1.017 0 00-.18-.081c-.013 0 .057.041.156.091m-3.991.048a1.454 1.454 0 01-.117.065c-.017.008-.07.039-.116.068l-.119.076c-.408.26-.832.663-1.145 1.091a4.49 4.49 0 00-.653 1.302 4.209 4.209 0 00-.177 1.133l-.01.328.028-.391c.016-.216.04-.445.05-.509.102-.546.197-.83.432-1.287a4.411 4.411 0 011.853-1.87c.091-.051.105-.062.078-.06a.504.504 0 00-.104.054m1.488.51l.048.01-.006.782c-.003.43.001.781.01.781.009 0 .016-.357.016-.794v-.794l-.058.003c-.05.003-.052.004-.01.012m1.099 0c-.02.019-.018 1.573.001 1.573.01 0 .014-.351.01-.781l-.005-.782.048-.01c.044-.008.044-.01.004-.012-.024-.001-.05.004-.058.011m-1.317.029l-.042.018h.042a.257.257 0 00.085-.018l.042-.019h-.042a.257.257 0 00-.085.019m1.504 0c.023.01.061.018.084.017.034 0 .032-.004-.01-.017-.073-.024-.128-.024-.074 0m-1.663.042c-.028.018-.028.02 0 .02a.14.14 0 00.064-.02c.028-.018.028-.02 0-.02a.14.14 0 00-.064.02m1.832 0c.063.027.116.027.074 0a.153.153 0 00-.074-.02l-.042.002.042.018m3.184.229a.413.413 0 00.072.081c.013.009.002-.015-.024-.051a.414.414 0 00-.072-.082c-.013-.008-.002.015.024.052m-2.517.013c0 .006.029.026.064.044.034.018.063.028.063.022 0-.006-.029-.025-.063-.043-.035-.018-.064-.028-.064-.023m-3.277.088c-.1.06-.123.09-.031.043.064-.034.149-.096.132-.097a.642.642 0 00-.1.054m3.424-.004c0 .005.032.027.07.05.04.023.097.059.128.079.031.02.056.032.056.027 0-.011-.226-.164-.243-.164-.006 0-.01.003-.01.008m1.73.246c.07.087.172.228.228.312.056.085.105.154.11.154.026 0-.255-.4-.365-.52-.082-.087-.077-.079.028.054m-5.48-.02l-.074.065.08-.057c.07-.05.093-.073.073-.073-.003 0-.04.03-.08.065m4.025-.058c0 .005.034.036.077.069.043.032.071.048.063.035-.017-.027-.14-.119-.14-.104m2.379.152a.673.673 0 00.066.106c.032.04.032.038.003-.021a.677.677 0 00-.066-.106c-.032-.04-.032-.039-.003.02m-6.712.165c-.22.21-.424.458-.556.676-.097.16-.257.47-.256.496 0 .01.055-.086.122-.214.21-.4.36-.603.675-.916.29-.288.3-.314.015-.042m4.502-.182c0 .01.033.04.073.068.067.045.285.265.414.417.208.246.407.576.542.899.027.064.05.1.05.081.001-.061-.284-.6-.413-.78-.189-.262-.667-.753-.666-.685m-6.545.074a1.56 1.56 0 01-.057.097c-.017.027-.026.048-.02.048a.523.523 0 00.114-.184c-.006-.005-.022.012-.037.04m8.885.165c.018.035.037.064.043.064.006 0-.004-.029-.022-.064s-.038-.063-.044-.063c-.005 0 .005.028.023.063m-.71.207c.001.008.02.04.044.068l.044.053-.034-.068c-.032-.066-.054-.088-.053-.053m.847.05c-.002.028.066.17.076.16.006-.006-.008-.047-.032-.092-.023-.045-.043-.075-.044-.068m-5.908.4c-.023.015-.003.017.063.008.119-.018.136-.03.04-.03-.04.001-.086.01-.103.022m2.394-.014a.613.613 0 00.115.021c.072.01.096.007.074-.007-.029-.019-.21-.032-.189-.014m3.683.035c0 .017.01.046.02.063.02.029.021.029.021 0a.14.14 0 00-.02-.063c-.018-.028-.02-.028-.02 0m-.761.01c0 .012.019.06.041.106.023.047.035.061.028.032-.015-.06-.07-.17-.07-.138m-5.625.098c-.163.102-.42.377-.385.412.005.005.04-.038.077-.096.079-.121.201-.233.352-.32.058-.034.096-.062.083-.062-.012 0-.069.03-.127.066m3.167.001c.222.127.481.47.489.646 0 .024.006.028.013.011.06-.148-.416-.725-.596-.724-.012 0 .03.03.094.067m3.262.018c0 .017.009.046.02.063.018.029.02.029.02 0a.14.14 0 00-.02-.063c-.018-.028-.02-.028-.02 0m-.72.09c0 .009.027.104.061.212.034.107.068.223.075.256.007.034.019.056.025.05.013-.014-.08-.35-.128-.46-.018-.04-.033-.067-.033-.058m-9.04.168a.388.388 0 01-.015.074c-.011.036-.01.036.012 0a.109.109 0 00.015-.073c-.009-.033-.01-.033-.012-.001m9.844.008c0 .023.01.055.022.073.016.023.018.014.007-.032-.017-.078-.03-.095-.029-.04m-9.886.15a.432.432 0 01-.015.084c-.012.037-.01.037.012.001a.134.134 0 00.015-.085c-.009-.046-.009-.047-.012 0m9.93.028a.175.175 0 00.02.084c.025.04.025-.003 0-.084l-.018-.053-.001.053m-1.739.022c0 .005.024.086.053.179.029.093.053.188.054.211.001.026.006.032.013.014.013-.03-.073-.361-.102-.394-.01-.01-.018-.015-.018-.01m-5.28.095a.202.202 0 00-.012.07c0 .019.01.007.02-.028.02-.066.013-.1-.009-.042m-2.953.041a.874.874 0 01-.016.096c-.01.045-.008.047.013.015a.162.162 0 00.015-.095c-.006-.038-.01-.043-.012-.016m1.726-.002a.223.223 0 00-.013.073c.001.023.009.018.022-.016.011-.028.017-.06.013-.073-.004-.012-.014-.005-.022.016m8.289.045a.204.204 0 00.019.095c.026.04.026-.025 0-.106-.017-.052-.017-.052-.02.01m-.717.032c0 .03.007.077.017.106.022.072.022-.005 0-.095-.015-.057-.017-.058-.017-.01m-6.386.054c-.018.046-.014 1.747.004 1.792.008.02.015-.382.015-.894s-.002-.931-.004-.931a.132.132 0 00-.015.033m4.19.888c0 .505.006.903.014.883.008-.02.015-.417.015-.883s-.007-.864-.015-.884c-.008-.02-.014.378-.014.884m-5.42-.837c-.009.037-.011.071-.006.077.006.005.016-.02.024-.058.017-.088 0-.106-.019-.019m-1.722.056a1.693 1.693 0 01-.015.138c-.01.065-.009.067.012.019a.342.342 0 00.015-.138c-.007-.07-.009-.073-.012-.02m3.95-.032c-.033.02-.036.082-.036.814v.791l.047.033c.063.045 2.123.05 2.183.007.03-.021-.182-.027-1.081-.027h-1.117l-.006-.798-.006-.8.048-.011c.027-.007.53-.01 1.12-.006.59.003 1.062 0 1.049-.01-.039-.024-2.157-.018-2.2.007m6.15.094c0 .046.008.108.017.137l.017.053v-.053a.8.8 0 00-.016-.137l-.017-.085v.085m-3.913.72c0 .43.003.604.006.385.004-.22.004-.572 0-.784-.003-.211-.006-.032-.006.399m3.19-.708c.002.04.01.101.02.136.011.042.013.02.006-.064-.013-.14-.03-.186-.026-.072m-7.7.062c-.007.048-.01.092-.004.097.005.006.016-.03.024-.078a.267.267 0 00.005-.097c-.005-.006-.016.03-.024.078m6.738.032c.006.058.015.11.02.114.015.019.003-.137-.014-.178-.012-.027-.014-.004-.006.064m-8.47.379c-.038.723-.018 8.906.023 8.906.021 0 .071-.036.111-.079l.073-.078-.084.072-.085.072-.01-4.594c-.007-2.526-.018-4.461-.027-4.3m1.692-.169a1.576 1.576 0 00-.011.212c.002.081.007.061.021-.083.02-.207.013-.296-.01-.129m6.815.415c0 .273.006.467.013.433a4.52 4.52 0 00.014-.433c0-.203-.006-.398-.014-.433-.007-.034-.013.161-.013.433m.971 0c0 .462.002.48.018.24.01-.142.01-.366 0-.498-.016-.215-.018-.19-.018.258m.719-.01c0 .393.002.428.014.225a4.426 4.426 0 000-.466c-.012-.183-.014-.138-.014.24m-8.517.235c.002.081.01.175.02.21.008.035.01-.027.004-.137-.013-.238-.027-.281-.024-.073m-.952.106c-.001.083.006.202.018.265l.033.196c.007.045.016.078.02.074a.619.619 0 00-.013-.146 5.543 5.543 0 01-.038-.338l-.016-.2-.004.15m7.75.212a1.834 1.834 0 01-.014.116c-.01.066-.01.067.011.02a.262.262 0 00.015-.117c-.005-.038-.01-.046-.012-.019m.96.087a1.81 1.81 0 01-.033.196.52.52 0 00-.018.117c.003.06.056-.169.073-.313.008-.067.01-.121.003-.121a.366.366 0 00-.025.121m-7.714-.047c0 .035.007.082.017.106l.019.042-.001-.042a.597.597 0 00-.018-.106l-.016-.064v.064m8.437.03a.713.713 0 00-.012.136c.002.046.009.03.022-.049.021-.127.013-.201-.01-.088m-1.727.15a.938.938 0 01-.015.085c-.01.046-.008.048.013.016a.134.134 0 00.015-.085c-.005-.026-.011-.033-.013-.015m-6.67.031c-.001.024.008.057.019.075.027.042.027-.011 0-.075l-.018-.042-.002.042m8.356.096a.432.432 0 00-.012.106c.001.038.007.029.021-.03.022-.092.013-.16-.009-.076m-9.309.027c-.002.065.123.503.189.66.067.161.157.349.164.341a.634.634 0 00-.058-.153 3.323 3.323 0 01-.241-.685c-.03-.11-.053-.184-.054-.163m7.582.019a.388.388 0 01-.015.074c-.011.036-.01.037.012 0a.108.108 0 00.015-.073c-.009-.033-.01-.033-.012-.001m-1.228.042a.355.355 0 01-.017.074c-.01.03-.007.033.013.015.014-.013.022-.047.016-.074-.005-.028-.01-.034-.012-.015m-4.13.032c-.001.026.008.052.02.06.024.015.024-.006 0-.064-.018-.04-.019-.04-.02.004m6.319.05c-.008.036-.01.07-.005.075.005.006.016-.02.023-.057.018-.089 0-.106-.018-.019m-1.034.1c-.02.053-.031.102-.026.108.006.005.017-.008.024-.03l.035-.1c.012-.032.018-.062.013-.067-.005-.005-.026.035-.046.088m1.756-.045a.24.24 0 00-.011.08c.001.033.008.025.022-.025.022-.073.013-.116-.01-.055m-.762.081a.221.221 0 00-.013.073c.001.024.008.018.022-.016.011-.028.017-.06.013-.073-.004-.012-.014-.004-.022.016m-2.285.105c-.213.338-.481.462-1.032.48l-.37.01-.007.79c-.004.622 0 .789.022.79.255.022 1.45-.439 1.363-.525-.006-.006-.051.018-.102.052-.109.075-.528.28-.571.28a.091.091 0 00-.05.017c-.042.035-.434.144-.56.157l-.075.007-.005-.777-.006-.776.366-.008c.464-.01.648-.072.89-.3.075-.069.216-.265.202-.278-.005-.005-.034.032-.065.081m3.005-.02a.222.222 0 00-.013.073c.001.023.008.018.022-.016.011-.028.017-.06.013-.073-.004-.012-.014-.005-.022.016m-1.854.206a3.597 3.597 0 01-.667.935c-.034.033-.056.064-.05.07.021.021.356-.377.5-.595.132-.198.334-.576.316-.593a1.043 1.043 0 00-.1.183m-4.945-.08c.16.252.526.395 1.021.395h.323l-.005.778-.006.779-.074-.007c-.127-.013-.518-.122-.56-.157a.096.096 0 00-.053-.017c-.032 0-.436-.196-.604-.294-.077-.044-.08-.045-.032-.004.197.167.968.468 1.26.493l.085.007V9.26l-.371-.012c-.491-.015-.673-.082-.929-.34-.066-.066-.081-.076-.055-.033m5.97.135a4.73 4.73 0 01-.098.234c-.068.15-.079.203-.018.087.056-.106.173-.403.163-.413-.005-.005-.026.037-.047.092m-7.146.032c-.004.178.644.927 1.048 1.21.098.069.026-.002-.094-.092-.347-.262-.613-.572-.908-1.06-.025-.04-.045-.066-.046-.058m6.915.475c-.03.054-.05.103-.045.108.005.005.034-.04.064-.099.068-.135.055-.141-.019-.009m-7.698.108c.1.18.284.449.372.545.093.102.074.071-.079-.128a3.976 3.976 0 01-.227-.344c-.124-.212-.176-.27-.066-.073m7.597.074c-.085.135-.128.218-.083.164.049-.06.137-.212.123-.212-.005 0-.023.022-.04.048m.738.148c-.055.108-.084.177-.065.154.045-.057.183-.33.172-.342a.954.954 0 00-.107.188m-.906.117c-.068.082-.086.11-.068.11.01 0 .04-.033.066-.073.051-.08.052-.098.002-.037m-1.331.053c-.03.026-.081.069-.115.095-.033.027-.056.053-.05.058a.448.448 0 00.124-.094.69.69 0 00.105-.105.263.263 0 00-.064.046m2.067.121c-.06.09-.075.144-.021.075.039-.051.097-.16.085-.16a.444.444 0 00-.064.085m-.95.101a5.874 5.874 0 01-.635.632.666.666 0 00-.1.087.72.72 0 00.16-.11 5.108 5.108 0 00.668-.693c.078-.109.024-.06-.093.084m-1.387-.01c-.037.026-.068.055-.069.064 0 .01.034-.008.074-.04a.42.42 0 00.074-.064c0-.012-.004-.01-.079.04m-5.33.1c.08.095.337.352.435.434.04.035.013.002-.062-.072a59.764 59.764 0 01-.286-.286c-.082-.083-.12-.117-.087-.076m7.544.005c-.106.142-.152.214-.127.199.027-.017.202-.268.187-.268a.333.333 0 00-.06.07m-.266.345c-.05.063-.083.114-.074.114a.605.605 0 00.107-.117c.05-.063.083-.114.074-.114a.588.588 0 00-.107.117m-.376.407a6.125 6.125 0 01-.497.436c-.252.188-.315.243-.16.14.295-.196 1.025-.854.94-.846-.004 0-.131.122-.283.27m-6.249-.148c.009.013.06.055.113.092.127.087.104.05-.028-.045-.055-.04-.093-.06-.085-.047m5.221.09l-.073.064.08-.048c.043-.027.079-.056.079-.065 0-.024-.007-.02-.086.049m-.311.201c-.1.06-.123.091-.032.043.064-.033.15-.095.133-.096a.635.635 0 00-.101.053m-4.494-.002c0 .006.03.025.068.044l.07.034-.054-.044c-.05-.041-.084-.055-.084-.034m4.026.237c-.04.017-.067.036-.06.042.005.006.047-.009.092-.032.094-.05.073-.056-.032-.01m-3.063.198c.023.01.057.018.074.018.02 0 .016-.007-.01-.018a.233.233 0 00-.075-.018c-.02 0-.016.006.011.018m2.53 0c-.042.027.011.027.075 0l.042-.018-.042-.001a.153.153 0 00-.075.019m-2.382.042c.024.01.057.018.074.018.02 0 .017-.006-.01-.018a.233.233 0 00-.074-.018c-.02 0-.016.007.01.018m2.234 0c-.042.027.011.027.074 0l.043-.018-.043-.001a.153.153 0 00-.074.02m-2.064.042c.023.01.061.018.084.018h.043l-.043-.018a.257.257 0 00-.084-.019h-.043l.043.019m1.884 0l-.042.018h.042a.257.257 0 00.085-.018l.042-.019h-.042a.257.257 0 00-.085.019m1.794.035c-.05.03-.087.059-.081.064a.6.6 0 00.182-.113c0-.012-.004-.01-.101.049m-3.456.007c.03.01.077.017.106.017h.053l-.053-.017a.418.418 0 00-.106-.017h-.053l.053.017m1.419 0l-.053.017h.053c.029 0 .076-.008.106-.017l.053-.017h-.053a.418.418 0 00-.106.017m-1.112.046c.058.008.263.014.455.014s.397-.006.456-.014c.058-.008-.147-.014-.456-.014-.308 0-.513.006-.455.014m2.97.05c-.032.018-.058.037-.058.042 0 .02.033.008.084-.032.063-.05.054-.053-.026-.01m-.148.085c-.08.043-.075.061.005.02.035-.018.063-.037.063-.043 0-.013-.002-.013-.068.023m-.652.285c-.028.018-.028.02 0 .02a.14.14 0 00.064-.02c.028-.018.028-.02 0-.02a.14.14 0 00-.064.02m-.254.085c-.028.018-.028.02 0 .02a.14.14 0 00.064-.02c.028-.019.028-.021 0-.021a.14.14 0 00-.064.02m-.148.043c-.028.018-.028.02 0 .02a.14.14 0 00.064-.02c.028-.018.028-.02 0-.02a.14.14 0 00-.064.02m-.18.042l-.042.018h.042a.257.257 0 00.085-.018l.042-.018h-.042a.258.258 0 00-.085.018m-.19.043l-.043.018h.043a.404.404 0 00.095-.018l.053-.017-.053-.001a.28.28 0 00-.095.018m-1.837.05c-.02.016-.037.036-.037.045 0 .01.018 0 .04-.02.033-.03.065-.035.154-.025.077.008.096.006.06-.007-.08-.027-.176-.024-.217.007m1.572-.008l-.053.017h.053c.029 0 .081-.008.116-.017l.064-.016h-.064a.451.451 0 00-.116.016m-1.101.045c.149.018.692.018.857 0 .07-.007-.12-.013-.423-.013s-.498.006-.434.013m-.604.075l-.134.117c-.04.034-.068.065-.064.07a.843.843 0 00.145-.118c.136-.122.178-.177.053-.069m-.297.256l-.156.137c-.05.044-.084.08-.073.08.019-.001.322-.274.304-.274a.364.364 0 00-.075.057m-.329.286l-.135.116c-.045.038-.073.068-.063.068.02 0 .282-.231.263-.23a.289.289 0 00-.065.046m-.305.263l-.135.117c-.039.034-.068.065-.063.069a.844.844 0 00.145-.117c.135-.122.177-.178.053-.07m-.297.255c-.091.08-.28.242-.402.347-.058.05-.095.086-.081.081.029-.01.497-.406.536-.453.04-.047.019-.037-.053.025m-.614.529c-.046.041-.17.147-.275.236a6.391 6.391 0 00-.201.173c-.006.007-.213.187-.46.4-.248.212-.45.392-.45.4 0 .007.02-.007.047-.03l.28-.242.244-.21.148-.127a4.65 4.65 0 00.148-.128c.006-.006.152-.133.324-.28a3.65 3.65 0 00.297-.269.465.465 0 00-.102.077m-1.57 1.349a1.011 1.011 0 00-.154.148c0 .01.068-.042.152-.116l.162-.14c.005-.003.005-.01 0-.014a.871.871 0 00-.16.122m-.25.218l-.135.117c-.04.034-.068.065-.064.07a.84.84 0 00.145-.118c.135-.122.178-.177.053-.069m3.394 1.103c.062.004.157.004.212 0 .055-.005.004-.008-.112-.008s-.161.003-.1.008m-.302.026l-.064.016.064.001a.312.312 0 00.106-.017l.042-.018-.042.001a.603.603 0 00-.106.017m.698 0c.024.01.071.018.106.017h.064l-.064-.017a.602.602 0 00-.106-.017l-.042-.001.042.018m-.868.043l-.042.018h.042a.152.152 0 00.074-.018c.042-.028-.01-.028-.074 0m1.08 0c.007.011.034.02.06.02.044-.002.045-.003.004-.02-.059-.025-.08-.025-.064 0m-8.22.015c.194.004.513.004.708 0 .196-.003.036-.006-.354-.006-.39 0-.55.003-.355.006m11.053.002c-.02.013-.025.382-.021 1.773l.005 1.756.323.006.323.006v-.63c0-.347.008-.643.017-.657.012-.018.111-.028.323-.032l.306-.007-.32-.004c-.39-.006-.347-.091-.347.685v.623h-.593V16.978l.662-.006.662-.005-.657-.005a7.373 7.373 0 00-.683.012M10.795 17c.023.01.07.018.106.017h.063l-.063-.017a.597.597 0 00-.106-.017l-.042-.001.042.018m7.196-.007a.51.51 0 00.178.062.659.659 0 00-.179-.076c-.007 0-.007.006.001.014m4.132.007a.28.28 0 00.096.017h.052l-.052-.017a.404.404 0 00-.096-.018h-.042l.042.018m-5.627.078a.338.338 0 00-.094.063.956.956 0 00.226-.111c0-.019-.035-.006-.132.048m-5.394-.005c0 .01.127.075.145.075.019 0-.066-.055-.108-.07-.02-.007-.037-.01-.037-.005m7.136.031c.05.042.084.055.084.034 0-.005-.03-.025-.068-.044l-.07-.033.054.043m4.256.008c0 .006.048.041.106.079.059.037.146.112.193.166.048.054.068.07.044.035-.071-.105-.343-.327-.343-.28m-11.223.055c0 .013.01.024.022.024.031 0 .207.184.245.257.018.035.038.059.045.052.019-.019-.126-.204-.222-.283-.05-.041-.09-.064-.09-.05m4.864.171c-.225.213-.464.552-.458.65 0 .01.035-.049.077-.13.118-.231.378-.538.525-.62.023-.013.036-.03.028-.037-.007-.008-.085.054-.172.137m2.272-.127c0 .012.01.022.022.022.06 0 .348.334.32.372-.024.034-.4.369-.414.369a1.29 1.29 0 01-.154-.15 1.536 1.536 0 00-.177-.168c-.02-.011.043.061.14.16.213.214.172.21.367.035l.219-.195c.078-.067.076-.075-.057-.223-.124-.14-.266-.258-.266-.222m-1.37.285c-.093.033-.113.058-.025.03.04-.012.134-.03.21-.038l.137-.016h-.127c-.07 0-.158.01-.195.024m.491-.008c.07.009.16.026.2.039.04.012.064.015.053.006-.036-.032-.193-.067-.287-.064-.086.002-.084.004.034.019m5.378.036c.018.038.038.069.044.069.02 0 .007-.034-.034-.085l-.044-.053.034.069m-12.964.01c-.029.028-.038.811-.01.828.009.006.013-.166.01-.381-.008-.498-.044-.458.39-.448.19.004.329 0 .309-.008-.067-.026-.672-.02-.7.009m11.392 0c-.028.028-.037 1.065-.01 1.083.01.005.014-.216.01-.492-.003-.275 0-.523.007-.55l.012-.05.315.008c.173.004.304 0 .29-.009-.043-.027-.595-.019-.624.01m-10.612.03c.103.036.173.08.22.14.03.038.055.059.055.046 0-.052-.202-.2-.27-.198-.029.001-.03.004-.005.013m6.048.06c-.134.092-.235.19-.312.3-.095.137-.072.132.03-.007a.868.868 0 01.32-.292c.07-.042.112-.075.096-.074a.488.488 0 00-.134.072m1.047-.067c.06.044.125.075.125.06 0-.01-.024-.028-.054-.042-.05-.023-.092-.033-.07-.018m4.243.027c.035.018.101.062.148.097l.085.065-.075-.071c-.083-.08-.154-.125-.195-.124-.015 0 .002.014.037.033m.9.051c0 .018.01.046.02.064.02.028.021.028.021 0a.14.14 0 00-.02-.064c-.018-.028-.02-.028-.02 0m-11.32.254c0 .127.007.215.015.195a.928.928 0 00.015-.195.928.928 0 00-.015-.195c-.008-.02-.014.068-.014.195m11.363-.116c0 .023.008.061.018.085l.018.042v-.042a.257.257 0 00-.018-.085l-.018-.043v.043m-.685.077c.019.048.038.077.042.065.007-.022-.051-.153-.068-.153-.005 0 .007.04.026.088m-11.313.103c0 .09.007.154.015.14a.448.448 0 00.016-.14.448.448 0 00-.016-.141c-.008-.014-.015.05-.015.14m13.387-.005c.061.005.161.005.223 0 .06-.004.01-.008-.112-.008s-.172.004-.11.008m-.313.027c-.042.013-.044.017-.01.017a.383.383 0 00.095-.017c.042-.013.044-.017.01-.017a.384.384 0 00-.095.017m.741 0c.018.011.05.02.074.02l.043-.002-.043-.018c-.063-.027-.116-.027-.074 0m-2.45.116c0 .07.004.096.01.058a.565.565 0 00-.001-.127c-.005-.032-.009 0-.009.07m.678 0c0 .07.004.095.009.057a.562.562 0 000-.127c-.005-.032-.01 0-.009.07m-9.531-.078c-.027.008.068.014.211.015.144 0 .233-.006.198-.014a1.554 1.554 0 00-.41 0m10.383.002l-.042.018.042.002a.153.153 0 00.074-.02c.042-.027-.01-.027-.074 0m-8.252.015c-.005.01-.021.06-.037.112a13.19 13.19 0 01-.046.157.514.514 0 00-.016.138c.002.068.005.065.02-.03.01-.06.037-.169.06-.243.037-.118.047-.188.019-.134m10.318.022c.001.022.006.027.013.01.018-.044.676-.036.693.01.007.018.02.028.027.021.007-.007 0-.028-.014-.045-.043-.053-.721-.048-.719.004m2.045-.02c-.005.008.137.012.316.009.272-.006.327-.001.327.024 0 .034-.047.151-.167.421a17.606 17.606 0 01-.324.773c-.014.026-.02.053-.013.06.006.006.033-.044.06-.112.027-.067.07-.17.096-.228.026-.058.078-.182.115-.276.037-.093.08-.198.096-.232.073-.155.174-.425.165-.44-.013-.02-.658-.02-.67 0m-14.678.027l-.042.018.042.001a.153.153 0 00.074-.02c.042-.027-.01-.027-.074 0m.71 0a.14.14 0 00.063.021c.028 0 .028-.002 0-.02a.14.14 0 00-.064-.02c-.028 0-.028.001 0 .02m-.91.086a.887.887 0 00-.16.107c-.022.024.02.005.094-.043a.735.735 0 01.163-.087c.015 0 .033-.01.04-.021.022-.035-.015-.023-.137.044m12.854-.041c-.002.028.065.17.076.16.006-.006-.009-.047-.033-.092-.023-.045-.043-.076-.043-.068m-15.028.07a.382.382 0 01-.098.096c-.048.035-.079.064-.069.064.03 0 .158-.105.181-.15.013-.022.017-.04.01-.04-.006 0-.017.014-.024.03m.622.044c-.02.04-.031.074-.026.074.014 0 .079-.13.07-.14-.006-.004-.025.025-.044.066m2.822.002c.269.212.445.46.517.731.017.063.032.093.032.068.007-.205-.275-.63-.527-.794-.09-.059-.091-.06-.022-.005m9.109-.012a.191.191 0 00-.046.054c0 .017.128.199.14.199.005 0-.02-.044-.058-.099l-.068-.098.049-.04c.027-.022.044-.044.039-.05-.005-.005-.03.01-.056.034m1.775-.028c0 .012.013.027.029.033.016.007.068.07.116.143.048.072.088.122.088.112 0-.033-.118-.205-.177-.26-.03-.028-.056-.04-.056-.028m-11.789.048a.504.504 0 00-.127.043c-.031.02-.029.021.016.009.22-.06.413-.06.656-.001.034.008.026 0-.02-.022-.088-.04-.392-.057-.525-.03m2.783.036c-.008.008-.014.034-.013.059.001.04.003.04.022-.007.02-.052.016-.077-.01-.052m6.048.043c-.028.08-.162.233-.22.251-.024.008-.037.02-.031.026.045.045.306-.247.283-.317-.005-.014-.02.004-.032.04m-9.518.087c-.052.057-.12.143-.151.191-.092.145-.063.13.038-.02.051-.076.124-.164.161-.196.038-.031.064-.061.058-.067-.005-.006-.053.036-.106.092m.47-.086c-.18.069-.51.434-.507.562 0 .014.035-.038.077-.117.083-.156.267-.343.396-.405.059-.027.11-.065.072-.054l-.037.014m.826-.006c0 .005.033.026.075.045.107.051.269.203.349.328.037.058.073.102.078.096.011-.01-.09-.161-.167-.248-.084-.094-.335-.26-.335-.22m8.904.053c-.008.037-.01.071-.004.077.005.006.017-.02.025-.056.008-.036.01-.071.004-.077-.006-.006-.017.02-.025.056m-11.59.078c-.063.064-.097.107-.075.095a.81.81 0 00.176-.178c.049-.065.016-.038-.102.083m16.444-.02a.332.332 0 00-.029.105c.004.004.025-.036.045-.09a.3.3 0 00.029-.105c-.005-.005-.025.035-.045.09m-17.188-.058c-.043.014-.045.017-.01.019a.148.148 0 00.074-.019c.037-.024.011-.024-.064 0m16.115-.018c-.002.028.066.17.076.16.006-.006-.008-.047-.032-.092-.023-.045-.043-.076-.044-.068m-16.681.055c.079.004.207.004.286 0 .078-.004.014-.007-.143-.007s-.222.003-.143.007m16.004-.013c-.002.028.065.17.076.16.006-.006-.009-.047-.032-.092-.024-.045-.044-.075-.044-.068m-9.877.051a.331.331 0 00-.01.102c.002.058.004.055.02-.027.02-.097.014-.136-.01-.075m8.103.025c.056.005.141.005.19 0 .05-.004.004-.008-.1-.008-.105 0-.146.004-.09.008m-.267.037a.378.378 0 00-.095.045c-.008.008.005.008.028-.001.023-.009.085-.029.137-.044.053-.015.077-.028.053-.028a.462.462 0 00-.123.028m.653.012a.502.502 0 01.174.119c.038.043.07.069.07.057 0-.06-.238-.221-.323-.218-.015 0 .02.02.079.042m-1.049.073l.066.095.105-.055c.104-.054.138-.082.068-.056a.798.798 0 00-.099.05l-.061.038-.06-.084c-.084-.115-.099-.105-.019.012m1.844-.059c.005.055.038.102.04.055 0-.025-.008-.052-.02-.059-.012-.007-.02-.005-.02.004m-9.988.24c0 .133.004.188.008.121a2.348 2.348 0 000-.243c-.004-.067-.008-.012-.008.121m7.372-.127c-.018.035-.028.064-.022.064.005 0 .025-.029.043-.064.018-.035.028-.063.022-.063-.006 0-.025.028-.043.063m3.294-.057c0 .009.037.098.083.198.047.1.085.19.085.2 0 .009.01.023.02.03.028.017.008-.034-.1-.265a.87.87 0 00-.088-.163m-15.022.032c-.021.034.002.068.046.067.022 0 .027-.006.012-.015a.1.1 0 01-.033-.047c-.007-.022-.014-.024-.025-.005m10.785.004c-.043.014-.045.018-.01.019a.149.149 0 00.074-.019c.037-.024.011-.024-.064 0m-.47.037c.072.004.191.004.264 0 .073-.004.013-.007-.132-.007-.146 0-.205.003-.133.007m4.088.915l.006.932-.292.006-.292.007h.296l.297-.002.005-.874a15.09 15.09 0 00-.01-.938c-.009-.034-.013.357-.01.87m-14.308-.88a.633.633 0 00.168.064c0-.014-.122-.073-.151-.073-.014 0-.022.004-.017.008m1.288.092c-.084.219-.091.257-.092.503-.002.391.096.648.342.904.077.08.143.141.147.137a.772.772 0 00-.118-.133 1.322 1.322 0 01-.294-1.315.678.678 0 00.047-.154c-.006 0-.02.026-.032.058m10.198.055a1.248 1.248 0 01-.244.19c-.076.043-.129.078-.118.078.066.001.363-.215.436-.318.063-.089.047-.078-.074.05m2.219-.028l.004.095-.35-.006a2.968 2.968 0 00-.406.01c-.034.01.117.017.36.017h.417l.007-.068a.218.218 0 00-.015-.106c-.017-.029-.02-.016-.017.058m-13.514-.036l.114.1.106.093-.094-.1a.472.472 0 00-.115-.1c-.011 0-.016.004-.011.007m3.196.142c0 .017.01.046.02.063.019.028.02.028.02 0a.14.14 0 00-.02-.063c-.018-.029-.02-.029-.02 0m1.568.044c0 .04.01.091.02.115.013.028.015.007.007-.064-.016-.126-.03-.152-.027-.051m11.426.034c-.02.054-.032.102-.026.108.006.006.016-.008.023-.03l.035-.099c.013-.032.018-.063.013-.068-.005-.005-.025.035-.045.089m-14.908-.064c-.007.008-.013.034-.012.058.001.04.003.04.021-.007.021-.051.017-.076-.009-.051m-2.817.04c-.026.067-.014.952.013.979.033.033.707.035.83.002.18-.049.31-.132.362-.23.052-.101.036-.1-.028 0-.113.179-.296.232-.795.232-.298 0-.35-.005-.36-.033-.02-.052-.015-.905.005-.938.015-.023.099-.027.425-.02.223.003.384 0 .357-.007-.116-.033-.796-.02-.809.015m14.068-.012c-.04.026.003.026.085 0l.053-.017-.053-.002a.174.174 0 00-.085.02m-13.15.046c.114.05.217.133.266.216.029.048.052.073.052.057 0-.081-.25-.301-.337-.297-.02 0-.011.01.02.024m.888.087c.03.061.057.104.06.096a.528.528 0 00-.097-.195c-.01-.006.007.039.037.1m3.814.004c0 .046.01.102.02.126.01.026.013-.002.006-.074-.015-.14-.028-.167-.026-.052m8.214-.031c-.035.029-.038.036-.01.021.069-.035.107-.065.084-.065a.203.203 0 00-.074.044m-9.049.072c.008.058.017.11.021.115.018.02.005-.16-.013-.189-.015-.022-.017.002-.008.074m11.696-.09a.58.58 0 00.075.164c.006 0-.004-.035-.022-.078-.032-.076-.053-.11-.053-.087m-13.708.065c-.017.063-.014.334.004.38.008.02.015-.068.015-.196 0-.254 0-.253-.019-.184m2.261.195c0 .209.001.221.019.12a.81.81 0 000-.233c-.017-.109-.018-.098-.019.113m7.318-.18c-.028.019-.028.021 0 .021a.14.14 0 00.064-.02c.028-.019.028-.021 0-.021a.14.14 0 00-.064.02m1.359.016c-.259.18-.364.707-.205 1.022.045.088.241.306.26.287a.373.373 0 00-.087-.096c-.31-.285-.314-.801-.009-1.135.058-.063.102-.114.098-.114a.4.4 0 00-.057.036m3.928.084c-.02.054-.031.102-.026.108.006.006.016-.008.024-.03l.035-.099c.012-.032.018-.063.013-.068-.005-.005-.026.035-.046.089m-11.3-.057c0 .017.01.046.02.063.019.029.021.029.021 0a.14.14 0 00-.02-.063c-.019-.028-.02-.028-.02 0m5.832 0l-.042.018h.042a.257.257 0 00.085-.018l.042-.018h-.042a.258.258 0 00-.085.018m-10.288.159c.008.058.017.11.021.114.019.021.005-.16-.013-.188-.014-.022-.017.001-.008.074m14.682-.091c0 .007.032.083.072.168l.148.322c.042.09.076.168.076.172 0 .008.155.345.224.487.028.059.051.094.051.08a.158.158 0 00-.02-.064 11.753 11.753 0 01-.305-.665 4.705 4.705 0 01-.183-.415c-.001-.02-.063-.103-.063-.085m-10.905.071c0 .023.01.055.022.073.016.023.018.014.007-.032-.017-.078-.03-.095-.029-.04m-4.421.146c0 .13.002.14.021.08a.256.256 0 000-.147c-.02-.077-.021-.073-.021.067m3.556-.061a1.712 1.712 0 01-.015.116c-.01.059-.008.065.012.034a.224.224 0 00.015-.116c-.004-.044-.01-.059-.012-.034m9.57-.015c-.018.01.043.014.15.007.099-.006.263-.004.365.004l.186.016-.008.177c-.004.097 0 .169.01.16.053-.054.005-.351-.06-.365-.097-.021-.61-.02-.643 0m3.81.029c-.065.169-.114.29-.143.35-.018.038-.028.075-.022.08.01.01.04-.06.166-.377.022-.055.035-.1.03-.1-.007 0-.02.02-.03.047m-3.977.037c-.096.058-.087.072.01.017.098-.056.102-.06.078-.06-.01 0-.05.02-.088.043m-8.495 0c-.007.154.38.678.612.83l.096.062-.072-.06c-.306-.25-.507-.52-.623-.832-.01-.028-.012-.028-.013 0m.762.009c-.01.153.566.55.746.514.042-.008.041-.01-.007-.012-.216-.012-.54-.227-.702-.469-.02-.029-.037-.044-.037-.033m11.075.026a.348.348 0 01-.016.064c-.01.03-.008.033.013.014.014-.013.021-.041.016-.063-.006-.022-.011-.028-.013-.015m-9.277.125c-.197.2-.388.305-.635.348-.088.015-.09.017-.022.019.176.006.48-.154.667-.352.135-.142.125-.146.486.188l.083.077-.066.084a1.58 1.58 0 01-.37.312c-.142.094-.16.12-.034.05.184-.104.501-.407.48-.46a3.897 3.897 0 00-.452-.383.601.601 0 00-.137.117m5.807-.032a.166.166 0 00-.026.068c0 .014.015-.001.032-.035.037-.07.032-.095-.006-.033m-9.082.066c-.014.05-.032.111-.04.134-.01.028-.008.035.005.021a.482.482 0 00.067-.22c-.004-.015-.019.015-.032.065m-3.095-.003a.954.954 0 01-.015.127c-.01.045-.009.047.012.015a.259.259 0 00.015-.127c-.007-.083-.008-.084-.012-.015m15.604-.019c-.002.05-.057.093-.072.057-.007-.02-.011-.02-.012-.002-.003.045.034.048.071.007.02-.023.032-.053.026-.069-.008-.019-.012-.017-.013.007m-12.76.04c-.007.025-.009.05-.003.056.006.006.017-.01.025-.035s.01-.05.004-.056c-.006-.006-.017.01-.025.035m9.277.072a.192.192 0 00.007.1c.016.042.02.034.02-.05.002-.111-.008-.128-.027-.05m-9.16.227c-.087.152-.238.31-.395.415-.123.081-.155.117-.049.055.202-.12.528-.478.528-.581 0-.032-.009-.02-.084.11m-3.033-.026c-.02.048-.03.088-.026.088.017 0 .075-.13.068-.153-.004-.012-.023.017-.042.065m1.107-.05c0 .028.059.106.07.094.006-.006-.008-.033-.03-.062-.022-.03-.04-.043-.04-.032m12.003.045a.75.75 0 01-.274.158c-.034.01-.04.016-.016.018.063.003.217-.08.292-.158.04-.04.066-.073.06-.073a.256.256 0 00-.062.055m-.888-.02c0 .035.105.155.134.155.014 0 .008-.011-.014-.024a.309.309 0 01-.079-.089c-.022-.037-.04-.056-.04-.042m-9.48.079a.992.992 0 01-.338.278c-.057.029-.092.052-.079.052.048 0 .206-.096.307-.187.107-.095.203-.215.173-.215-.01 0-.038.032-.063.072m2.783.007a.562.562 0 00.127 0c.032-.005 0-.01-.07-.009-.069 0-.095.004-.057.009m10.56.062c-.017.042-.027.082-.021.088.006.006.01.006.01 0 0-.007.015-.047.033-.089.018-.042.027-.077.021-.077-.005 0-.025.035-.043.078m-14.832.014c.073.081.235.205.268.205.01 0-.021-.025-.068-.056a1.796 1.796 0 01-.18-.143l-.094-.087.074.081m-1.34.022c-.033.049-.134.15-.217.215-.041.033-.041.033.005.011.054-.026.26-.23.26-.258 0-.03-.015-.02-.049.032m12.497-.002c.01.01.041.016.069.011.042-.007.04-.01-.02-.02-.041-.006-.061-.003-.05.009m.19.03a.565.565 0 00.126 0c.032-.004.001-.008-.069-.008s-.096.004-.058.009m-11.048.164c0 .02.153.075.199.072.042-.002.042-.003.002-.012a1.155 1.155 0 01-.121-.04c-.044-.016-.08-.025-.08-.02m11.602.076c-.04.035-.127.089-.193.12a.402.402 0 00-.113.065c.014.014.167-.064.27-.137.118-.082.116-.082.129-.034.008.03.01.027.012-.009.004-.072-.025-.073-.105-.005m-10.945-.023l-.053.017.057.002c.03.002.062-.007.07-.019.014-.024 0-.024-.074 0m2.392.01c0 .006.031.026.069.044l.069.034-.053-.044c-.051-.041-.085-.055-.085-.034m-2.726.039a.451.451 0 00.18 0c.094-.018.089-.02-.08-.02-.153 0-.168.003-.1.02m4.489.024c-.078.043-.081.057-.009.031a.208.208 0 00.08-.042c.015-.026-.013-.021-.071.011m-6.993.033c-.042.027.01.027.074 0l.043-.018-.043-.001a.153.153 0 00-.074.02m2-.003c.012.02.139.07.139.056a.6.6 0 00-.142-.075c-.005 0-.004.009.003.02m-2.201.044l-.042.018.042-.001c.023 0 .07-.009.106-.017l.063-.017h-.063a.314.314 0 00-.106.017m12.832.007c.047.031.116.06.116.046a.53.53 0 00-.145-.075c-.007 0 .006.013.03.029m-14.077.03c.212.003.56.003.773 0 .212-.004.038-.007-.387-.007s-.599.003-.386.007m3.637.005c.058.025.079.025.063 0-.007-.012-.034-.02-.06-.02-.044.002-.044.002-.003.02m3.379-.014a.333.333 0 00.072.022c.047.01.055.009.032-.007-.029-.02-.125-.033-.104-.015m1.13.014c-.015.025.006.025.064 0 .041-.018.041-.018-.004-.02-.025 0-.052.008-.06.02m9.181.133c-.142.367-.233.47-.413.47-.062 0-.102.007-.089.016.084.054.256-.005.338-.116.073-.1.243-.473.224-.492-.005-.005-.032.05-.06.122m-13.521-.09c.047.01.113.017.148.017.056-.001.053-.004-.02-.019a.827.827 0 00-.15-.016c-.054 0-.052.003.022.019m.35-.002l-.075.016h.074c.041 0 .103-.007.138-.016l.064-.016h-.064a.833.833 0 00-.138.016m3.009-.013a.453.453 0 00.094.022c.06.01.075.008.052-.008-.028-.019-.167-.033-.146-.014m.803.014c-.023.016-.008.018.053.008.105-.018.122-.03.04-.03a.203.203 0 00-.093.022m6.289 0c.081.025.125.025.084 0a.175.175 0 00-.084-.02l-.053.002.053.017m.519 0c-.054.023.001.023.074 0 .042-.013.044-.017.01-.017a.248.248 0 00-.084.017m-7.258.037c.073.004.192.004.265 0 .072-.004.013-.007-.133-.007-.145 0-.205.003-.132.007m6.956 0a.93.93 0 00.159 0c.043-.005.008-.008-.08-.008-.087 0-.123.003-.08.008m3.269.475a.432.432 0 00-.034.079c0 .018.055-.067.07-.109.022-.06 0-.042-.036.03m-1.11-.019c-.05.062-.238.36-.23.367.004.005.06-.075.125-.177.073-.116.13-.184.151-.182.02.001.03-.006.023-.016-.016-.027-.043-.023-.069.008m.986.233a.845.845 0 01-.482.331l-.095.022.101-.011c.17-.02.42-.192.503-.35.03-.056.012-.05-.027.008m-1.201.203c.114.096.491.203.594.168.014-.004-.062-.02-.17-.034a.89.89 0 01-.414-.14l-.063-.038.053.044" id="svg_36"/></g></g></svg>