<svg xmlns="http://www.w3.org/2000/svg" fill="none" viewBox="0 0 38 24" height="24" width="38" aria-labelledby="pi-bogus" role="img"><title id="pi-bogus">Bogus</title><g clip-path="url(#pi-bogus-a)"><path fill="#EDA024" d="M38 21.341C38 22.809 36.788 24 35.294 24H2.706C1.212 24 0 22.809 0 21.341V2.659C0 1.191 1.212 0 2.706 0h32.586C36.788 0 38 1.191 38 2.659v18.682Z"/><path fill="#EEAA3C" d="M6.418 0 0 6.305V8.43L8.581 0H6.418ZM38 19.206 33.12 24h2.163L38 21.331v-2.125Zm0-5.023L28.008 24h2.163L38 16.308v-2.125Zm0-10.047L17.782 24h2.163L38 6.262V4.136ZM36.695.395 12.668 24h2.163L37.724 1.509A2.677 2.677 0 0 0 36.695.395ZM31.984 0 7.556 24h2.163L34.147 0h-2.163ZM26.87 0 2.466 23.976l.24.024h1.899L29.033 0H26.87Zm-5.112 0L.003 21.373c.007.594.218 1.135.56 1.575L23.921 0h-2.163Zm-5.114 0L0 16.352v2.125L18.807 0h-2.163Zm-5.112 0L0 11.329v2.125L13.695 0h-2.163ZM38 9.159 22.894 24h2.163L38 11.284V9.159ZM2.706 0C1.212 0 0 1.191 0 2.659v.859L3.581 0h-.875Z"/><path fill="#fff" d="M15 18V6h6.509c2.123 0 3.157 1.477 3.157 3.078 0 1.494-.817 2.798-1.87 3.032 1.203.198 2.204 1.245 2.204 2.738 0 1.817-1.168 3.151-3.307 3.151L15 18Zm7.792-8.641A1.35 1.35 0 0 0 21.415 8h-4.428v3h4.428c.802 0 1.377-.867 1.377-1.641Zm.125 5.141c0-.756-.75-1.5-1.669-1.5H17v3h4.248c.886 0 1.669-.3 1.669-1.5Z"/></g><defs><clipPath id="pi-bogus-a"><path fill="#fff" d="M0 0h38v24H0z"/></clipPath></defs></svg>