<svg width="90" height="38" viewBox="0 0 90 38" fill="none" xmlns="http://www.w3.org/2000/svg">
<path d="M77 26C77 29 76 30 73 30H17C14 30 13 29 13 26L13 12C13 9 14 8 17 8H73C76 8 77 11 77 12V26Z" fill="#EDA024"/>
<path d="M23.8093 8L13 13.7796V15.7275L27.4522 8H23.8093ZM77 25.6055L68.7811 30H72.424L76.9 27.5L77 25.6055ZM77 21.0011L60.1714 30H63.8143L77 22.949V21.0011ZM77 11.7913L42.9486 30H46.5916L77 13.7402V11.7913ZM74.5 8.5L34.3356 30H37.9785L76 9.5C75.5 9 75.5 9 74.5 8.5ZM66.8678 8L25.7259 30H29.3688L70.5107 8H66.8678ZM58.2547 8L17.1533 29.978L17.5575 30H20.7558L61.8977 8H58.2547ZM49.6451 8L13 26C13 29 14.5 29.5 14.5 29.5L53.288 8H49.6451ZM41.032 8L13 22.9893V24.9373L44.6749 8H41.032ZM32.4223 8L13 18.3849V20.3328L36.0653 8H32.4223ZM77 16.3958L51.5583 30H55.2013L77 18.3437V16.3958ZM17 8C14 8 13 9 13 11.2248L19.0312 8H17Z" fill="#EEAA3C"/>
<path d="M40 25V13H46.509C48.632 13 49.666 14.477 49.666 16.078C49.666 17.572 48.849 18.876 47.796 19.11C48.999 19.308 50 20.355 50 21.848C50 23.665 48.832 24.999 46.693 24.999L40 25ZM47.792 16.359C47.7932 16.1787 47.7583 15.9999 47.6893 15.8333C47.6204 15.6667 47.5187 15.5156 47.3903 15.3889C47.262 15.2622 47.1095 15.1625 46.942 15.0957C46.7745 15.0289 46.5953 14.9964 46.415 15H41.987V18H46.415C47.217 18 47.792 17.133 47.792 16.359V16.359ZM47.917 21.5C47.917 20.744 47.167 20 46.248 20H42V23H46.248C47.134 23 47.917 22.7 47.917 21.5Z" fill="white"/>
</svg>
