<svg width="38" height="24" viewBox="0 0 38 24" role="img" style="background-color:#fff" xmlns="http://www.w3.org/2000/svg" aria-labelledby="pi-bol-kassa"><title id="pi-bol-kassa"/><path fill="#fff" d="M0 0h38v24H0z"/><rect x="2" y="2" width="34" height="20" rx="4" fill="#0000A4"/><path d="M19.394 9.087c3.18 0 4.397 2.07 4.398 3.898 0 1.999-1.4 3.898-4.369 3.898-3.18 0-4.424-2.056-4.424-3.898 0-1.942 1.314-3.898 4.395-3.898zm10.056 4.287a1.755 1.755 0 110 3.51 1.755 1.755 0 010-3.51zM8.894 9.4a4.907 4.907 0 011.757-.315c2.262 0 3.901 1.657 3.901 3.927 0 1.714-1.173 3.741-3.845 3.741H6.018V7.014h2.876v2.385zm18.356 7.353h-2.875V7.014h2.875v9.738zm-7.856-5.223c-.898 0-1.517.6-1.517 1.456s.618 1.457 1.517 1.457c.899 0 1.519-.6 1.519-1.457 0-.857-.62-1.456-1.519-1.456zm-9.312-.003c-.358 0-.787.05-1.188.18v2.63c.386.072.816.103 1.102.103 1.044 0 1.731-.575 1.731-1.456 0-.882-.672-1.457-1.646-1.457z" fill="#fff"/></svg>