<svg xmlns="http://www.w3.org/2000/svg" fill="none" viewBox="0 0 38 24" height="24" width="38" aria-labelledby="pi-boleto" role="img"><title id="pi-boleto">Boleto</title><path fill="#fff" d="M0 0h38v24H0z"/><path fill="#221F1F" d="M8.079 4.945h.7v6.298h-.7V4.945Zm-1.83 0h.7v6.298h-.7V4.945Zm7.256 0h1.901v6.298h-1.901V4.945Zm9.715 0h.95v6.298h-.95V4.945Zm2.324 0h.95v6.298h-.95V4.945Zm3.804 0h1.221v6.298h-1.221V4.945Zm-1.375 0h.395v6.298h-.395V4.945Zm-6.389 0h.395v6.298h-.395V4.945Zm-.845 0h.395v6.298h-.395V4.945Zm-2.746 0h.395v6.298h-.395V4.945Zm-6.31 0h.395v6.298h-.395V4.945Zm-1.163 0h.733v6.298h-.733V4.945ZM6.249 19.3v-6.478H8.68c.495 0 .891.065 1.191.196.299.13.532.333.701.606.17.27.255.556.255.855 0 .276-.075.537-.225.78-.165.26-.4.465-.679.594.392.115.694.31.903.588.211.276.317.603.317.98 0 .305-.065.587-.193.847a1.643 1.643 0 0 1-.475.603c-.189.14-.425.247-.709.32a4.32 4.32 0 0 1-1.046.109H6.248h.001Zm.86-3.755H8.51c.38 0 .653-.026.817-.075a.902.902 0 0 0 .493-.324.936.936 0 0 0 .166-.567 1.03 1.03 0 0 0-.155-.568.78.78 0 0 0-.442-.338c-.192-.06-.52-.09-.985-.09H7.109v1.963-.001Zm0 2.995h1.614c.277 0 .472-.011.585-.032.196-.035.362-.094.495-.176a.946.946 0 0 0 .327-.362c.086-.158.128-.341.128-.547 0-.243-.062-.452-.187-.632a.978.978 0 0 0-.516-.377c-.219-.072-.535-.11-.947-.11H7.109v2.236Zm4.813-1.588c0-.867.241-1.51.725-1.927.403-.347.896-.52 1.476-.52.644 0 1.172.21 1.582.633.409.42.614 1.004.614 1.748 0 .603-.09 1.077-.271 1.422a1.92 1.92 0 0 1-.792.805c-.346.191-.736.29-1.132.286-.657 0-1.188-.21-1.594-.63-.406-.421-.608-1.027-.608-1.817Zm.814.002c0 .6.131 1.05.394 1.347.264.299.594.448.994.448.395 0 .724-.15.988-.45.262-.3.394-.756.394-1.37 0-.58-.133-1.018-.397-1.315a1.262 1.262 0 0 0-.985-.448c-.4 0-.73.148-.994.445-.262.297-.394.745-.394 1.344v-.001Zm4.498 2.346v-6.478h.796V19.3h-.796Zm5.231-1.52.823.109c-.128.478-.368.85-.718 1.114-.35.264-.796.397-1.341.397-.685 0-1.227-.211-1.629-.633-.401-.421-.602-1.013-.602-1.775 0-.787.202-1.4.608-1.834.406-.436.932-.653 1.579-.653.626 0 1.137.213 1.534.639.397.427.596 1.027.596 1.8l-.004.21h-3.497c.03.515.175.91.437 1.183a1.3 1.3 0 0 0 .979.41c.291 0 .54-.077.745-.231.207-.154.369-.4.49-.737Zm-2.606-1.276h2.615c-.035-.395-.136-.691-.3-.888a1.216 1.216 0 0 0-.983-.46c-.365 0-.671.122-.92.366-.247.244-.385.572-.412.982Zm6.164 2.086.109.703a2.945 2.945 0 0 1-.599.07c-.288 0-.511-.044-.671-.136a.773.773 0 0 1-.335-.36c-.065-.15-.097-.463-.097-.941V15.22h-.588v-.615h.588v-1.161l.796-.478v1.639h.796v.615h-.796v2.75c0 .229.014.375.042.44.027.065.075.12.136.155a.53.53 0 0 0 .271.057l.347-.032.001-.001Zm.487-1.638c0-.867.241-1.51.725-1.927.403-.347.896-.52 1.476-.52.644 0 1.172.21 1.582.633.409.42.614 1.004.614 1.748 0 .603-.09 1.077-.271 1.422a1.92 1.92 0 0 1-.792.805c-.346.191-.736.29-1.132.286-.657 0-1.188-.21-1.594-.63-.406-.421-.608-1.027-.608-1.817Zm.814.002c0 .6.131 1.05.394 1.347.264.299.594.448.994.448.395 0 .724-.15.988-.45.262-.3.394-.756.394-1.37 0-.58-.133-1.018-.397-1.315a1.262 1.262 0 0 0-.985-.448c-.4 0-.73.148-.994.445-.262.297-.394.745-.394 1.344v-.001Z"/></svg>