<svg width="38" height="24" role="img" viewBox="0 0 38 24" xmlns="http://www.w3.org/2000/svg" aria-labelledby="pi-brazil_onlinebank"><title id="pi-brazil_onlinebank">brazil_onlinebank</title><title>Layer 1</title><path opacity=".07" d="M35 0H3C1.3 0 0 1.3 0 3v18c0 1.7 1.4 3 3 3h32c1.7 0 3-1.3 3-3V3c0-1.7-1.4-3-3-3z" id="svg_1"/><path fill="#fefffc" d="M34.752.94c1.1 0 2 .9 2 2v18c0 1.1-.9 2-2 2h-32c-1.1 0-2-.9-2-2v-18c0-1.1.9-2 2-2h32" id="svg_2" stroke="null"/><g stroke="null"><g stroke="null" id="svg_40" fill-rule="evenodd"><path fill="#e52626" d="M19.714 2.744c-.052.006-.077.023-.091.062-.028.073-.027 8.185 0 8.229.018.027.224.033 1.573.042l1.553.011.12-.052c.111-.048.118-.055.103-.107-.026-.09-.035-1.864-.01-1.864.013 0 .023-.01.023-.023 0-.066.075-.171.151-.21.08-.042.149-.042.149 0 0 .01.014.019.033.019.018 0 .076.04.128.09l.095.092v.9c0 .494-.009.933-.019.976-.017.075-.015.079.068.121.089.045.144.042.144-.007 0-.015.007-.03.016-.035.009-.004.008-.705-.001-1.558-.021-1.894-.06-1.722.4-1.749.5-.028.463-.167.463 1.754 0 1.437.003 1.575.035 1.602.039.032 3.254.046 3.331.014.05-.02.049-8.234 0-8.284-.028-.027-8.058-.05-8.264-.023m4.844.735c.07.013.162.045.204.071.084.054.145.078.34.134.079.023.164.066.203.102a.935.935 0 00.196.122c.13.06.224.127.224.16 0 .027.09.116.118.116.07 0 .16.132.16.234 0 .036.01.066.023.066.036 0 .089.061.074.085-.019.03-.054.027-.126-.01a.297.297 0 00-.096-.033 1.054 1.054 0 01-.406-.17c-.056-.052-.11-.075-.226-.099a4.163 4.163 0 01-.238-.054 2.047 2.047 0 01-.278-.1c-.23-.091-.815-.078-1.057.025-.143.06-.343.12-.401.12a.883.883 0 00-.333.134c-.04.029-.127.074-.194.1-.103.041-.126.06-.146.122-.014.04-.044.083-.067.096-.234.125-.102.159.283.072.293-.067.52-.065 1.09.008.206.026.471.058.59.07.375.037.508.065.663.14a.81.81 0 00.192.072c.172 0 .51.115.609.206.03.028.071.05.091.05.036 0 .078.015.226.08a.581.581 0 01.132.087.604.604 0 00.172.097.34.34 0 01.156.104.433.433 0 00.124.105c.156.083.528.483.587.633a.899.899 0 00.099.18c.171.223.136 1.155-.045 1.155-.011 0-.02.014-.02.03a.284.284 0 01-.03.092 5.523 5.523 0 00-.059.12.257.257 0 01-.087.096.182.182 0 00-.074.079c-.02.063-.347.374-.411.39a.256.256 0 00-.106.075c-.058.069-.153.124-.213.124-.021 0-.072.029-.113.064-.062.052-.094.063-.188.064-.156.001-.202-.043-.113-.108a.313.313 0 00.09-.114.774.774 0 01.151-.184.618.618 0 00.125-.141c0-.013.027-.047.06-.075.072-.063.132-.155.132-.204 0-.02.033-.066.072-.103.162-.153.183-.983.027-1.052-.024-.011-.07-.072-.102-.137a.774.774 0 00-.145-.195.369.369 0 01-.087-.096c0-.02-.06-.073-.18-.16-.042-.029-.076-.06-.076-.07-.001-.033-.054-.07-.144-.099a.496.496 0 01-.16-.098.887.887 0 00-.357-.183c-.052-.016-.098-.04-.104-.055-.012-.032-.184-.115-.24-.115a.855.855 0 01-.155-.034 15.06 15.06 0 00-.2-.057.6.6 0 01-.14-.06c-.073-.048-.325-.098-.631-.126a8.632 8.632 0 01-.385-.044c-.619-.094-1.53-.073-1.745.04-.116.062-.115.06-.172.248a2.55 2.55 0 01-.117.3c-.199.415-.207 1.753-.013 1.962a.41.41 0 01.066.132c.015.05.04.127.057.171.016.044.03.098.03.119 0 .021.016.057.037.08.133.144.166.398.056.425-.04.01-.067.003-.093-.024a3.85 3.85 0 00-.166-.15.718.718 0 01-.184-.228.885.885 0 00-.139-.202.634.634 0 01-.154-.33.365.365 0 00-.065-.118c-.165-.224-.25-1.389-.141-1.899.053-.244.003-.415-.103-.349-.175.11-.58.126-.647.025-.048-.074-.01-.122.158-.202a.889.889 0 00.166-.094c.072-.084.213-.142.514-.208.089-.02.152-.05.206-.099a.345.345 0 01.098-.07c.028 0 .114-.12.114-.158 0-.018.043-.067.096-.11a.384.384 0 00.096-.099c0-.043.098-.163.153-.187.033-.015.065-.044.072-.066.018-.059.118-.15.164-.15.022 0 .04-.01.04-.022 0-.012.014-.022.032-.022.017 0 .032-.012.032-.028 0-.042.069-.098.187-.153a.675.675 0 00.134-.078.704.704 0 01.289-.157c.202-.062.35-.12.373-.15.081-.097 1.058-.133 1.49-.053m-7.836 6.185c-.007.013.01.022.04.022s.06-.01.067-.022c.008-.012-.01-.021-.04-.021s-.06.01-.067.021m-2.14.043c.007.012.038.021.07.02.052-.001.053-.003.015-.02-.06-.025-.102-.025-.086 0m5.241 2.735a.14.14 0 01-.066.027.237.237 0 00-.092.044l-.063.044.001 4.104c0 3.192.007 4.111.027 4.138.05.066.217.07 4.258.076l4.082.007.044-.062c.048-.068.071-2.456.025-2.605a2.58 2.58 0 01-.044-.186c-.032-.155-.086-.172-.086-.027 0 .074-.018.124-.077.216-.073.114-.076.125-.062.253.017.158.005.173-.156.193-.163.021-.207-.024-.192-.194.012-.139-.017-.227-.103-.307l-.052-.049.166-.082a.976.976 0 01.201-.083c.02 0 .043-.01.05-.021.007-.012.06-.022.119-.022.058 0 .106-.008.106-.019 0-.01.018-.023.041-.03.11-.028.108.031.108-2.724 0-1.68-.007-2.56-.021-2.568-.012-.007-.021-.028-.021-.045 0-.098.191-.093-4.109-.1-3.21-.004-4.055 0-4.084.022m4.164 2.093c.02.035.042.069.05.075a.48.48 0 01.05.085c.02.041.08.116.131.166.052.05.094.104.094.12 0 .046.047.127.111.191a.57.57 0 01.092.128c.044.09.188.202.34.264.39.158.571.618.32.812a2.33 2.33 0 00-.128.111.686.686 0 01-.206.114c-.145.05-.212.076-.293.118-.247.125-1.133.107-1.403-.028a1.244 1.244 0 00-.182-.07c-.164-.047-.255-.11-.378-.263l-.12-.147.015-.121c.025-.223.244-.46.494-.537a1.13 1.13 0 00.167-.07l.081-.043.04.045c.02.025.045.045.053.045s.04.024.072.054c.032.029.075.053.096.053.021 0 .044.017.05.038.006.02.026.061.043.09.017.03.047.09.067.134.059.13.134.093.134-.064 0-.143-.05-.218-.144-.219-.037 0-.052-.019-.07-.091a1.302 1.302 0 00-.07-.187.736.736 0 01-.055-.22l-.009-.123h.066c.036 0 .091.01.124.022.085.033.11-.005.137-.204.043-.318.142-.437.231-.278m-.119.615c-.044.092-.043.114.007.177.095.119.18-.009.102-.153-.045-.084-.077-.091-.109-.024m.229.307c-.024.028-.023.043.006.09.048.079.072.081.097.01.037-.106-.038-.178-.103-.1m2.094 2c.031.063.037.14.038.514.001.24.01.483.019.537.028.161-.196.264-.372.17-.028-.015-.06-.015-.098-.001-.165.063-.311-.004-.343-.157a.418.418 0 00-.043-.114c-.047-.075.123-.414.208-.414.069 0 .108.092.094.222-.021.201.092.392.178.3.11-.12.112-.3.005-.573-.02-.048-.018-.072.004-.107a.934.934 0 00.09-.32c.026-.198.135-.227.22-.057m-6.178.166c.03.032.085.075.121.095.037.02.083.07.103.11a.282.282 0 00.13.124.57.57 0 01.134.092c.021.025.077.086.125.137.09.099.11.152.09.24-.032.132-.234.123-.28-.014-.024-.075-.027-.077-.292-.193a.335.335 0 01-.115-.096.713.713 0 00-.162-.14l-.115-.073v-.128c0-.21.137-.29.261-.154m3.072.184l.078.071-.036.142c-.054.218-.047.394.02.493.03.045.052.085.048.088-.25.222-.38.063-.388-.477l-.004-.264.07-.063c.089-.08.116-.078.212.01m-.803.105c.006.041.024.05.125.06.242.026.257.046.257.34 0 .253-.014.305-.103.377-.118.098-.207-.015-.2-.25.005-.132-.003-.183-.038-.252a.43.43 0 01-.045-.157c0-.053-.005-.062-.021-.038a.174.174 0 00-.021.079c0 .025-.013.06-.028.075-.116.12-.15.244-.1.374.042.108-.029.137-.356.145-.152.004-.371.014-.487.023-.193.014-.22.012-.305-.031-.085-.042-.13-.108-.073-.108.012 0 .021-.014.021-.03s.044-.052.097-.08c.082-.044.096-.06.096-.118 0-.207.096-.415.193-.415.034 0 .219.192.249.257l.024.054.015-.056c.02-.075.304-.206.53-.243.045-.008.08-.023.08-.034 0-.045.084-.02.09.028m2.657.026c.045.046.096.075.128.075.067 0 .157.089.173.172.007.035.032.08.056.1.055.047.055.053-.01.148a.305.305 0 00-.053.126c0 .068-.093.148-.154.131-.124-.033-.152-.08-.127-.213.024-.129.004-.215-.054-.237-.036-.014-.094.006-.094.033 0 .01-.012.019-.026.019-.07 0-.082.082-.03.19.05.102.05.104.007.13-.06.037-.34.06-.402.034-.104-.045-.105-.049-.05-.172.038-.089.046-.13.032-.176-.073-.231-.022-.299.271-.36.103-.02.202-.046.22-.055a.49.49 0 01.035-.019c.002 0 .037.033.078.074m-.975.034l.075.09c.028.032.038.082.038.191 0 .082.01.192.024.246.023.09.021.102-.016.127a1.04 1.04 0 00-.066.05c-.04.033-.387.027-.488-.008a1.153 1.153 0 00-.166-.044c-.044-.007-.08-.02-.08-.03 0-.017.015-.026.263-.148l.143-.07v-.136c0-.189.073-.29.22-.31.009-.001.033.018.053.042m3.163.06l.12.084-.06.041a.627.627 0 01-.156.068c-.24.065-.275.113-.16.214.04.036.074.075.074.087 0 .013.01.023.022.023.044 0 .019.063-.044.107-.081.058-.195.06-.264.005a.683.683 0 00-.147-.077c-.094-.036-.145-.113-.144-.219 0-.112.109-.309.17-.31a.72.72 0 00.225-.079c.093-.055.236-.033.364.057m-7.047.57c-.006.028-.171.059-.234.043-.065-.016-.067-.084-.004-.112.053-.023.245.033.238.069" id="svg_49"/><path fill="#0e40a8" d="M14.818 3.007c-.283.008-.986.017-1.563.018-1.112.003-2.007.032-2.184.069-.121.026-.267.083-.267.105 0 .008-.046.038-.102.066-.124.061-.38.319-.416.418-.014.04-.033.073-.04.073-.009 0-.021.017-.028.037a.712.712 0 01-.052.102.83.83 0 00-.067.16 8.606 8.606 0 01-.049.161c-.046.145-.12 1.626-.166 3.286-.055 2.025-.061 2.31-.052 2.358.035.166.067.253.128.354.037.063.09.167.116.232.026.065.06.118.076.118.026 0 .08.055.17.178.023.031.06.057.082.057.036 0 .142.069.234.152.098.087.26.091 3.307.076 3.193-.016 3.386-.02 3.45-.081.024-.022.052-.04.062-.04.01 0 .041-.024.069-.053.028-.03.06-.054.073-.054.106 0 .18-.047.198-.123.015-.066.035-.088.108-.123.065-.031.09-.056.091-.09.001-.058.072-.25.138-.375.083-.157.096-.4.12-2.318.036-2.945.028-3.94-.033-4.01a.49.49 0 00-.123.018c-.138.031-.207 0-.265-.122a.272.272 0 00-.117-.116.41.41 0 01-.135-.124c-.06-.096-.109-.109-.413-.11a1.7 1.7 0 01-.3-.024c-.137-.033-.327-.105-.327-.125 0-.023-.157-.08-.321-.116-.18-.04-.753-.054-1.402-.034m2.322 3.876l.104.045-.029.09a2.03 2.03 0 00-.04.145c-.009.038-.052.082-.13.135a.539.539 0 00-.15.14c-.064.123-.382.132-.48.014-.097-.118.282-.581.49-.598.053-.004.104-.01.114-.011a.488.488 0 01.12.04m-6.127.015c.185.085.177.021.177 1.441 0 1.312 0 1.307-.096 1.403-.055.055-.19.094-.33.093-.153 0-.18-.014-.26-.128l-.052-.075-.008-1.227c-.007-1.328-.004-1.374.11-1.497.058-.063.331-.07.459-.01m1.326.032c.08.084.124.238.108.374-.017.145.025.223.138.259.204.063.32.231.271.394-.03.1-.148.23-.21.23-.022 0-.046.01-.054.022-.007.012-.03.021-.051.021-.165 0-.154.91.011.952.027.006.06.024.076.04.016.014.064.048.107.075.1.06.161.217.125.316-.08.222-.11.24-.405.26-.16.01-.301-.034-.369-.116-.013-.015-.034-.028-.048-.028-.043 0-.135-.095-.179-.182a12.364 12.364 0 00-.088-.174c-.042-.081-.046-.13-.054-.568l-.011-.483a5.64 5.64 0 00-.13-.146c-.167-.185-.204-.332-.109-.443l.1-.113c.13-.147.138-.166.144-.356.01-.303.107-.398.412-.402.143-.002.154.001.216.068m2.161.65c.046.019.088.04.094.048a.7.7 0 00.113.065c.15.076.266.184.295.275a.474.474 0 00.045.105c.057.072.117 1.341.071 1.524-.052.21-.29.287-.544.175-.146-.064-.232-.065-.309-.004-.129.102-.498.14-.688.072-.388-.142-.585-.465-.504-.824l.032-.148c.032-.152.338-.375.58-.424.07-.014.156-.034.19-.045a.47.47 0 01.113-.019c.15 0 .337-.218.24-.28-.102-.064-.567-.02-.63.06-.048.062-.155.058-.222-.01-.162-.162-.114-.426.09-.489a.272.272 0 00.077-.038c.096-.078.798-.11.957-.043m1.468.01c.215.047.232.103.232.783 0 .714.01.755.214.832.119.045.157.045.278 0 .216-.08.215-.079.233-.825.017-.732.055-.802.428-.795.315.006.312-.006.305 1.126l-.007.92-.057.08c-.1.145-.288.165-.453.051-.143-.098-.288-.09-.481.028-.126.076-.133.078-.353.078h-.225l-.182-.103c-.347-.197-.426-.378-.43-.978 0-.218-.009-.507-.017-.642-.028-.441.044-.558.355-.576a.86.86 0 01.16.022m-1.96 1.28a.87.87 0 00-.175.137l-.072.078.055.124c.069.155.076.16.241.144.106-.01.147-.023.177-.06.021-.026.079-.087.127-.135.086-.087.097-.244.017-.244-.01 0-.02-.013-.02-.03 0-.086-.21-.094-.35-.014m.01 4.13a.358.358 0 00-.154.047.241.241 0 01-.078.042c-.01 0-.047.029-.081.065a.725.725 0 01-.17.118.903.903 0 00-.187.127c-.043.041-.092.075-.11.075-.016 0-.042.015-.057.032-.015.018-.04.032-.056.032s-.03.01-.03.022c0 .011-.01.021-.022.021-.012 0-.048.026-.08.057a.798.798 0 01-.188.116.493.493 0 00-.164.11.424.424 0 01-.137.102 1.332 1.332 0 00-.193.122 1.853 1.853 0 01-.214.139.702.702 0 00-.163.117.593.593 0 01-.161.108.953.953 0 00-.196.129.862.862 0 01-.185.122.649.649 0 00-.158.102.49.49 0 01-.106.082c-.172.091-.233.13-.291.182a.998.998 0 01-.2.12c-.105.047-.133.07-.125.1.006.02.017.08.024.134.013.094.017.099.123.14.06.022.15.077.198.12.048.045.099.08.114.081.014 0 .027.008.027.017 0 .009.04.035.09.058.05.024.123.074.16.113.039.038.08.07.091.07.034 0 .177.085.248.148.191.167.383.213.554.133a.648.648 0 01.115-.046c.01 0 .039-.028.064-.062.044-.06.156-.13.207-.13.014 0 .058-.035.099-.078.04-.042.14-.11.221-.15a.843.843 0 00.205-.136.546.546 0 01.157-.108.6.6 0 00.16-.106.687.687 0 01.133-.103l.14-.079.063-.036-.128-.133a1.137 1.137 0 00-.251-.195c-.212-.108-.23-.131-.212-.28.019-.16.03-.176.144-.227a.37.37 0 00.105-.061c.007-.012.03-.021.053-.021.021 0 .067-.033.102-.073a.677.677 0 01.172-.126.748.748 0 00.171-.12c.093-.098.312-.1.409-.002.035.035.115.09.178.12.063.031.133.078.157.105a.956.956 0 00.278.179.5.5 0 01.133.096c.026.03.106.084.177.12a.527.527 0 01.155.108c.015.023.037.043.049.043.011 0 .045.02.075.042.03.023.069.042.088.042.02 0 .077.042.128.092.052.05.15.117.217.149.15.07.177.12.157.28-.016.13-.036.154-.19.236-.058.03-.14.086-.183.125a.893.893 0 01-.19.123.914.914 0 00-.2.134c-.048.045-.102.082-.119.082-.042 0-.137.064-.193.13a.695.695 0 01-.172.117.874.874 0 00-.178.118.486.486 0 01-.22.135.4.4 0 00-.14.095.781.781 0 01-.19.131.669.669 0 00-.172.114.683.683 0 01-.167.114.792.792 0 00-.19.137c-.045.048-.095.087-.11.087-.048 0-.212.094-.267.153a.697.697 0 01-.175.115.467.467 0 00-.156.108c-.019.029-.048.052-.065.052-.018 0-.032.01-.032.021 0 .012-.013.022-.028.022-.016 0-.054.027-.086.06l-.057.06.071.073c.162.167.265.247.352.276.05.017.116.053.146.08.068.064.1.063.171-.004.032-.029.07-.053.086-.053.045 0 .226-.107.313-.184.044-.04.125-.095.182-.124a.729.729 0 00.165-.118c.035-.037.076-.066.091-.066.044 0 .117-.047.197-.126.081-.08.2-.153.25-.153.018 0 .068-.037.112-.082a.775.775 0 01.18-.131.96.96 0 00.17-.111c.114-.099.118-.101.215-.14a.65.65 0 00.183-.129c.05-.05.108-.092.13-.092.023 0 .084-.038.137-.085.054-.046.162-.119.241-.16a1.33 1.33 0 00.227-.15.444.444 0 01.137-.088c.03-.008.054-.022.054-.033 0-.01.013-.019.029-.019a.333.333 0 00.112-.072c.046-.04.134-.097.195-.128a.494.494 0 00.14-.097c.024-.036.121-.098.29-.186a.747.747 0 00.119-.087c.072-.065.155-.115.19-.115.085 0 .145-.09.145-.215 0-.1-.007-.128-.032-.128-.017 0-.032-.01-.032-.02 0-.013-.013-.022-.029-.022-.047 0-.151-.06-.205-.117a.862.862 0 00-.192-.123 1.346 1.346 0 01-.245-.161.447.447 0 00-.133-.092c-.04 0-.177-.084-.246-.15a.578.578 0 00-.153-.097.411.411 0 01-.145-.106.414.414 0 00-.149-.107.547.547 0 01-.156-.1 1.07 1.07 0 00-.204-.137 1.003 1.003 0 01-.209-.147.517.517 0 00-.164-.107.517.517 0 01-.159-.1c-.033-.034-.067-.062-.077-.062-.02 0-.19-.11-.336-.218a1.168 1.168 0 00-.175-.106.444.444 0 01-.13-.092c-.055-.064-.249-.178-.297-.175l-.127.01m3.606.07a.581.581 0 00-.165.102.57.57 0 01-.144.098c-.048.022-.087.048-.087.058 0 .01-.01.018-.024.018-.013 0-.04.017-.059.038-.02.02-.104.079-.189.129s-.186.12-.224.154c-.039.035-.083.064-.1.064-.198 0-.302.34-.125.407.14.053.177.074.23.135.05.056.15.107.266.135.057.014.281-.087.31-.139a.519.519 0 01.16-.111.484.484 0 00.14-.088c0-.01.044-.058.097-.108l.096-.09v-.39c0-.367-.016-.473-.071-.456l-.11.044m-2.837 1.895a.575.575 0 00-.172.103.7.7 0 01-.152.104c-.043.02-.125.074-.182.122a.546.546 0 01-.123.085.304.304 0 00-.09.054.393.393 0 01-.083.053.325.325 0 00-.075.06.767.767 0 01-.155.106c-.05.026-.135.086-.188.133a.388.388 0 01-.125.087c-.032 0-.134.067-.216.142a.487.487 0 01-.101.07l-.104.048a.809.809 0 00-.15.118c-.054.051-.116.093-.138.093a.12.12 0 00-.073.032c-.018.018-.04.032-.05.032a.395.395 0 00-.098.076.524.524 0 01-.15.1c-.085.03-.208.106-.208.13 0 .033-.053.07-.196.137a.93.93 0 00-.192.117c-.062.06-.16.125-.19.125-.021 0-.05.021-.18.134a.54.54 0 01-.136.084c-.039.015-.07.034-.07.043 0 .01-.013.017-.028.017-.015 0-.056.03-.09.067a.584.584 0 01-.157.11.662.662 0 00-.205.136.511.511 0 01-.088.057.506.506 0 00-.114.087l-.05.054.045.048c.025.027.045.057.045.066 0 .01.01.018.023.018.012 0 .058.033.101.074.044.041.091.075.106.075s.027.01.027.022c0 .012.015.021.034.021.042 0 .156.079.208.144.022.027.048.049.06.049.052 0 .23.1.29.164.037.04.123.097.192.127s.148.083.177.118a.632.632 0 00.166.12.988.988 0 01.18.118.725.725 0 00.158.102c.051.023.12.072.154.108.034.036.12.094.19.127.072.034.166.095.21.135.045.041.122.092.171.114.05.021.113.066.14.098.028.032.112.09.186.127.075.037.169.099.209.137a.86.86 0 00.178.12.693.693 0 01.169.12c.099.106.308.112.387.011a.908.908 0 01.202-.157c.08-.048.17-.109.196-.135a.797.797 0 01.172-.104.405.405 0 00.145-.1.325.325 0 01.124-.091c.09-.042.232-.134.262-.17a.81.81 0 01.22-.126c.017 0 .06-.033.098-.074a.706.706 0 01.17-.127c.057-.029.146-.088.198-.132a.986.986 0 01.191-.123.564.564 0 00.154-.104.5.5 0 01.128-.094.72.72 0 00.24-.157c.038-.036.08-.066.095-.066.014 0 .026-.008.026-.017 0-.009.04-.034.09-.056a.516.516 0 00.145-.096.632.632 0 01.165-.108c.063-.03.175-.112.255-.19l.144-.14-.095-.081a.477.477 0 00-.116-.083.334.334 0 01-.096-.07.553.553 0 00-.16-.1.462.462 0 01-.146-.09 1.281 1.281 0 00-.204-.145 1.067 1.067 0 01-.186-.13.623.623 0 00-.156-.102.531.531 0 01-.154-.107c-.077-.097-.298-.121-.343-.037a.43.43 0 01-.153.116 1.275 1.275 0 00-.215.14c-.092.078-.197.14-.24.14-.031 0-.141.095-.141.123 0 .02-.17.112-.207.112a.305.305 0 00-.081.063 1.162 1.162 0 01-.215.141c-.174.09-.225.131-.225.18 0 .02-.014.055-.031.078-.057.075-.038.107.104.18a.91.91 0 01.197.131c.033.034.071.062.086.062.032 0 .158.149.158.187 0 .038-.066.14-.107.164a.875.875 0 00-.108.098.544.544 0 01-.15.107.705.705 0 00-.224.143c-.198.246-.501.233-.856-.036a.696.696 0 00-.172-.106c-.017 0-.067-.033-.112-.073a1.095 1.095 0 00-.198-.131.94.94 0 01-.16-.099c-.12-.11-.177-.15-.231-.162a.366.366 0 01-.142-.106c-.045-.051-.093-.093-.106-.093-.083 0-.346-.203-.425-.329l-.052-.082.053-.08a.387.387 0 01.13-.117.253.253 0 00.098-.076.388.388 0 01.13-.095.87.87 0 00.196-.14c.046-.048.102-.087.123-.087.021 0 .05-.015.065-.032.015-.018.037-.033.05-.033a.629.629 0 00.141-.092 1.07 1.07 0 01.195-.122c.074-.03.128-.07.128-.096 0-.03.066-.076.182-.128a.909.909 0 00.202-.125.923.923 0 01.184-.121.57.57 0 00.158-.112.672.672 0 01.182-.123.804.804 0 00.192-.127.598.598 0 01.173-.11.432.432 0 00.158-.107.467.467 0 01.153-.11c.059-.028.107-.057.107-.066 0-.009.01-.016.022-.016a.315.315 0 00.096-.07.516.516 0 01.155-.099c.175-.059.177-.06.177-.211 0-.134-.028-.198-.085-.198-.044 0-.16-.07-.22-.13a.35.35 0 00-.38-.092m-3.739 3.892a.463.463 0 01-.147.1 1.142 1.142 0 00-.198.123c-.034.031-.124.1-.2.154-.128.091-.139.106-.164.215-.046.2-.027.7.03.787.003.004.034-.013.069-.037a.246.246 0 01.114-.046.305.305 0 00.129-.053.362.362 0 01.1-.054c.012 0 .034-.017.05-.038.04-.057.176-.154.214-.154a.367.367 0 00.126-.082 1.58 1.58 0 01.221-.152c.07-.039.141-.085.159-.102a2.17 2.17 0 01.146-.118c.132-.1.133-.104.055-.15a1.55 1.55 0 01-.162-.127c-.1-.088-.275-.19-.326-.19a.338.338 0 01-.104-.053c-.092-.063-.096-.064-.112-.023" id="svg_48"/><path fill="#ece719" d="M10.772 7.038c-.248.075-.227-.057-.22 1.383l.006 1.207.053.04c.122.09.41.05.469-.065.016-.031-.002-1.432-.028-2.162-.012-.353-.087-.461-.28-.403m1.168.038c-.06.06-.066.077-.066.213 0 .141-.047.299-.09.299-.009 0-.017.01-.017.024a.532.532 0 01-.175.169c-.009 0-.032.03-.05.066l-.035.067.128.12c.201.19.213.228.225.785.01.443.03.59.085.645.008.008.015.03.016.049 0 .055.067.118.18.17a.48.48 0 01.121.072c.086.135.533-.03.533-.198 0-.052-.004-.056-.195-.21-.22-.177-.236-.216-.247-.642l-.009-.357.06-.116a.446.446 0 01.092-.132c.017-.009.081-.039.142-.066.19-.085.194-.171.014-.263-.234-.119-.307-.23-.307-.467-.001-.266-.235-.398-.405-.228m4.77.038a.339.339 0 00-.07.117.287.287 0 01-.067.109c-.082.082-.052.12.096.12.116 0 .126-.005.173-.073.027-.04.09-.1.141-.133.153-.103.104-.202-.101-.2-.1 0-.124.008-.172.06m-2.837.571a2.22 2.22 0 01-.235.074c-.211.055-.269.104-.221.188l.032.058.396-.006c.546-.008.61.028.64.364.003.044-.123.083-.363.113-.415.052-.467.064-.53.123a.899.899 0 01-.123.093c-.081.049-.182.14-.182.164 0 .01-.026.054-.059.097-.097.128-.084.367.029.522.126.173.165.205.295.243.066.02.125.044.132.055.02.031.285.024.349-.01.031-.016.127-.052.213-.079l.157-.05.143.041c.251.07.346.068.422-.01l.064-.068-.006-.603a8.08 8.08 0 00-.026-.7 18.626 18.626 0 01-.033-.156c-.011-.06-.224-.293-.267-.293-.012 0-.021-.009-.021-.02 0-.01-.085-.043-.188-.074a17.12 17.12 0 01-.253-.078.694.694 0 00-.365.012m1.834.087c-.158.068-.15.034-.15.704 0 .662.01.739.129.926.035.055.063.11.064.122.001.042.074.11.149.138.041.016.104.04.139.055.178.073.21.08.326.072a.795.795 0 00.263-.076c.076-.036.174-.072.217-.08a.348.348 0 00.132-.055l.055-.043.07.07c.109.108.168.13.294.113.207-.028.202 0 .19-.988l-.01-.846-.051-.05c-.126-.124-.35-.116-.418.015-.03.057-.068.6-.066.927.002.452-.445.76-.741.512-.168-.14-.212-.337-.21-.954V7.87l-.058-.04c-.153-.102-.202-.111-.324-.058m-1.288.999c.14.067.141.326 0 .496-.01.012-.041.057-.068.098l-.049.075-.203.006c-.266.008-.355-.045-.412-.244-.04-.144-.04-.146.128-.32a.557.557 0 01.604-.111M10 12.42c-.2.014-.182-.415-.182 4.253 0 3.87.002 4.099.037 4.141.045.054-.525.048 4.581.047l3.794-.001.033-.064c.03-.057.032-.51.027-4.158-.006-4.574.007-4.211-.155-4.214-.294-.006-8.048-.009-8.135-.003m4.21.449a.985.985 0 00.157.105c.083.049.178.118.213.155.034.036.076.066.091.066.038 0 .192.098.257.162a.274.274 0 00.104.065c.029.007.052.021.052.032 0 .01.014.019.03.019.018 0 .068.035.113.078.045.042.12.095.168.116a.812.812 0 01.177.125c.05.047.125.098.166.112.04.015.074.035.074.044 0 .01.019.017.041.017.023 0 .044.008.048.016.028.062.168.148.227.14.07-.01.09-.04.136-.198a.345.345 0 01.064-.129c.092-.082.16-.128.187-.128.03 0 .135-.068.207-.135a.647.647 0 01.118-.08c.042-.02.124-.078.182-.126a.713.713 0 01.181-.111.53.53 0 00.163-.108c.083-.08.322-.211.384-.211.016 0 .055.034.087.076l.058.075-.004.422c-.004.397-.023.54-.072.54-.009 0-.016.015-.016.032 0 .018-.008.032-.017.032-.01 0-.038.02-.063.043a.942.942 0 01-.149.099 1.115 1.115 0 00-.178.124.64.64 0 01-.498.164c-.197-.023-.238.08-.042.107.105.014.148.047.165.123.01.043.041.07.125.11.105.05.296.185.311.22.004.01.023.017.043.017.047.001.272.154.266.182a3.59 3.59 0 00-.019.138c-.017.136-.027.149-.194.24a1.363 1.363 0 00-.197.13c-.04.034-.135.092-.21.128a.55.55 0 00-.17.114.436.436 0 01-.143.102.706.706 0 00-.174.12c-.035.036-.075.066-.09.066-.016 0-.029.01-.029.021 0 .012-.014.022-.03.022a.103.103 0 00-.06.026.487.487 0 01-.089.059.764.764 0 00-.135.101c-.04.039-.086.07-.1.07a.317.317 0 00-.096.044c-.095.058-.066.093.109.126l.184.036a.362.362 0 01.128.086.79.79 0 00.185.125c.06.027.148.082.197.121.154.125.186.148.212.148.014 0 .072.043.13.096a.463.463 0 00.13.096c.035 0 .198.102.198.124 0 .008.041.042.091.074.05.032.123.091.162.132l.072.074-.045.044a.188.188 0 00-.044.057c0 .035-.23.227-.327.275-.062.03-.144.083-.183.116a1.25 1.25 0 01-.182.12.853.853 0 00-.122.074 1.955 1.955 0 01-.3.205.71.71 0 00-.139.097.767.767 0 01-.166.107.47.47 0 00-.142.099c-.022.028-.047.05-.056.05a.31.31 0 00-.083.05.96.96 0 01-.141.084.491.491 0 00-.128.09.704.704 0 01-.166.112.587.587 0 00-.152.101c-.04.047-.076.072-.246.16a.38.38 0 00-.122.09.247.247 0 01-.09.072.935.935 0 00-.25.162.9.9 0 01-.184.117.86.86 0 00-.193.128c-.14.164-.6.148-.609-.022 0-.022-.02-.033-.167-.1a.395.395 0 01-.087-.053c-.016-.015-.035-.027-.043-.027a.315.315 0 01-.08-.061 1.03 1.03 0 00-.166-.118.97.97 0 01-.16-.112.722.722 0 00-.165-.103 1.053 1.053 0 01-.201-.128.992.992 0 00-.184-.12.53.53 0 01-.142-.096c-.045-.049-.322-.204-.364-.204-.04 0-.083.074-.083.14 0 .041-.01.074-.021.074-.012 0-.022.015-.022.032 0 .018-.008.032-.018.032a.753.753 0 00-.14.106 1.109 1.109 0 01-.2.143 1.46 1.46 0 00-.284.201.722.722 0 01-.113.06.536.536 0 00-.148.1c-.026.03-.055.054-.065.054a.31.31 0 00-.09.054.35.35 0 01-.085.053.255.255 0 00-.072.054c-.032.029-.07.053-.085.053s-.027.01-.027.021c0 .012-.019.022-.042.022-.023 0-.047.01-.054.021-.019.03-.1.026-.141-.006-.075-.057-.084-.115-.083-.522.002-.497.014-.54.17-.667.065-.052.143-.116.173-.142a1.34 1.34 0 01.182-.117c.07-.038.15-.09.18-.116.082-.07.143-.1.213-.1.159 0 .13-.111-.051-.203a.831.831 0 01-.186-.131c-.038-.04-.081-.072-.096-.072-.09 0-.306-.169-.44-.341l-.056-.074.11-.108c.148-.146.26-.23.358-.27a.716.716 0 00.163-.101 2.19 2.19 0 01.316-.22.481.481 0 00.088-.071.529.529 0 01.163-.101.488.488 0 00.155-.094c.037-.036.135-.1.217-.143.184-.096.192-.273.012-.309a1.778 1.778 0 01-.403-.2c-.08-.074-.193-.152-.22-.152-.015 0-.061-.034-.102-.076a.738.738 0 00-.186-.128.81.81 0 01-.18-.114.61.61 0 00-.094-.075c-.408-.192-.468-.452-.14-.61.055-.026.135-.077.18-.112.043-.035.13-.093.194-.129a1.19 1.19 0 00.186-.133.538.538 0 01.154-.098.506.506 0 00.147-.091.793.793 0 01.157-.108c.05-.025.09-.054.09-.064 0-.01.014-.017.03-.017s.066-.035.111-.078a.729.729 0 01.176-.118.829.829 0 00.176-.11c.045-.038.137-.097.206-.132a.848.848 0 00.18-.12.836.836 0 01.162-.116.648.648 0 00.14-.098c.02-.023.046-.042.06-.042.012 0 .023-.008.023-.017 0-.01.06-.049.133-.086.074-.037.164-.095.2-.129a.5.5 0 01.144-.09.505.505 0 00.14-.085c.081-.074.34-.236.409-.257.073-.023.231-.025.24-.004m-.316 1.284a.731.731 0 01-.127.08.669.669 0 00-.15.107.78.78 0 01-.184.123c-.144.067-.142.064-.16.214l-.013.117.162.08c.176.087.373.282.405.4.03.11.146.121.247.024a.1.1 0 01.058-.027c.016 0 .043-.018.059-.041a.67.67 0 01.158-.115 1.32 1.32 0 00.212-.151c.046-.043.1-.078.122-.078.022 0 .06-.01.084-.024a.694.694 0 01.214-.021c.269.004.29-.05.052-.13a.239.239 0 01-.122-.09c-.04-.068-.114-.122-.244-.183a.69.69 0 01-.152-.102.98.98 0 00-.187-.124c-.067-.033-.121-.069-.121-.079 0-.036-.268-.02-.313.02m2.41.131c0 .01.032.03.07.044.038.014.096.038.127.054.068.035.148-.042.098-.093-.029-.028-.294-.033-.294-.005m-.996.688c-.051.057.003.105.12.106.133.001.147-.053.029-.105-.12-.053-.102-.053-.15-.001m.404.24c-.057.027-.063.041-.082.194l-.015.12.083.013.114.018c.106.015.17-.275.076-.337-.06-.039-.108-.042-.176-.009m-2.04.231c0 .012-.025.027-.054.035-.074.018-.067.044.016.057.114.016.16-.025.097-.087-.03-.031-.06-.034-.06-.005m1.631.27c-.074.084.039.123.168.06.066-.034.068-.038.031-.065-.052-.038-.163-.036-.199.005m-2.116.021c-.02.053.026.085.084.057a.58.58 0 01.129-.036c.128-.022.092-.055-.06-.055-.107 0-.143.008-.153.034m1.87.191a.278.278 0 01-.094.032c-.08 0-.002.055.087.06.125.008.184-.034.124-.09-.047-.041-.042-.041-.118-.002m-2.145.018c-.061.035-.04.079.037.079.082 0 .13-.044.09-.081-.033-.032-.067-.03-.127.002m-.288.213c-.14.024-.182.05-.147.093.042.05.297-.006.297-.065 0-.046-.02-.05-.15-.028m1.962.033c-.033.037-.032.042.007.078.057.051.26-.03.214-.086-.037-.045-.177-.04-.22.008m-.277.222c-.132.057-.128.081.014.081.13 0 .189-.04.142-.096-.033-.039-.03-.039-.156.015m-2.13.006c-.093.041-.087.07.017.08.094.008.15-.012.15-.057 0-.056-.068-.065-.167-.023m1.714.236c-.1.07-.006.134.123.083.086-.035.116-.093.047-.094a.396.396 0 01-.08-.011c-.024-.007-.064.003-.09.022m-.212.201a.516.516 0 01-.11.045c-.106.033-.086.064.04.064.092 0 .147-.017.147-.046 0-.034-.057-.08-.077-.063m2.028.024c-.128.02-.16.04-.132.084.017.028.26.006.293-.027.012-.012-.016-.079-.032-.076l-.129.02m-.414.253c-.072.046-.044.089.057.088.098-.001.152-.049.107-.094-.043-.043-.09-.041-.164.006m-2.121.004c-.047.028-.013.084.05.084.053 0 .18-.056.157-.07-.044-.027-.172-.035-.207-.014m-.313.225c-.113.036-.128.048-.087.074.091.058.294.004.266-.07-.017-.044-.05-.044-.179-.004m2.17-.011c-.034.01-.091.024-.126.031-.126.027-.02.075.122.056.14-.02.15-.025.132-.074-.015-.039-.03-.04-.127-.013m-.445.252c-.057.038-.057.04-.02.075.077.07.237-.007.166-.078-.046-.046-.072-.045-.146.003m-2.118.011c-.046.036-.027.121.027.121.022 0 .046-.01.053-.023a.184.184 0 01.071-.045l.057-.023-.064-.028c-.08-.036-.098-.036-.144-.002m-.263.207l-.061.064.06.064a.392.392 0 00.133.087c.04.013.071.037.071.054 0 .078.173.113.201.04.01-.028-.098-.138-.137-.138-.02 0-.032-.035-.052-.155-.018-.108-.12-.116-.215-.016m2.081.038c-.103.006-.133.017-.182.067a.49.49 0 01-.139.095.537.537 0 00-.15.106.528.528 0 01-.138.102c-.038.017-.07.038-.07.047 0 .008-.01.016-.021.016a.433.433 0 00-.113.066c-.106.077-.216.126-.281.126-.163 0-.1.178.077.222.032.008.081.036.109.062a.727.727 0 00.223.144c.049.024.144.091.212.15.184.162.376.153.55-.025.051-.052.2-.146.232-.146a.471.471 0 00.128-.096.464.464 0 01.13-.097c.11-.003.096-.214-.013-.214a.367.367 0 01-.109-.075 1.382 1.382 0 00-.21-.143c-.183-.1-.25-.288-.128-.357.063-.035.017-.056-.107-.05m-1.567.454c-.027.044.038.08.165.092.129.013.173-.01.121-.06-.041-.04-.266-.065-.286-.032m-1.37.49c-.022.038.21.11.244.077.025-.024.025-.036.003-.063-.03-.036-.225-.047-.246-.013m.395.215c-.025.016-.027.03-.009.059.029.046.137.063.16.025.032-.052-.092-.121-.151-.084" id="svg_47"/><path fill="#fbfbfb" d="M3.825 11.805V22.51h30.913V1.101H3.825v10.704M17.397 2.52a.436.436 0 01.172.093.556.556 0 00.17.101c.1.033.215.13.215.18 0 .015.018.028.04.028.066 0 .143.077.175.173.02.06.052.104.096.13.168.099.161-.057.16 3.691 0 3.67.006 3.488-.13 3.631a.967.967 0 00-.135.2c-.043.087-.079.13-.127.15-.089.04-.126.072-.162.143-.032.062-.256.167-.355.167a.11.11 0 00-.08.038c-.094.13.113.122-3.314.128-3.346.006-3.29.008-3.402-.103-.034-.035-.083-.063-.107-.063-.087 0-.32-.11-.357-.168a.354.354 0 00-.175-.154c-.038-.017-.07-.043-.07-.058 0-.015-.009-.027-.02-.027-.012 0-.022-.02-.022-.043 0-.023-.01-.043-.022-.043-.011 0-.02-.018-.02-.04a.417.417 0 00-.094-.151c-.15-.175-.142.002-.142-3.54 0-3.59-.006-3.464.156-3.634a.924.924 0 00.116-.194.503.503 0 01.148-.2.892.892 0 00.13-.12.514.514 0 01.172-.107c.068-.027.162-.076.209-.108a.715.715 0 01.182-.087c.19-.052 6.38-.065 6.593-.013m10.637.03c.116.081.11-.152.11 4.35 0 4.573.01 4.246-.123 4.35-.055.043-.07.043-1.72.038l-1.664-.006-.057-.053c-.121-.114-.117-.054-.123-1.748-.007-1.801.017-1.635-.23-1.635-.355 0-.326-.152-.322 1.674.001.934-.005 1.479-.02 1.532-.034.126-.157.25-.231.231a3.435 3.435 0 00-.118-.026c-.032-.007-.059-.02-.059-.031 0-.01-.012-.02-.027-.02s-.042-.016-.06-.037c-.084-.101-.087-.13-.085-1.129.002-.95.001-.967-.042-1.006-.112-.101-.117-.064-.128 1.023-.013 1.176 0 1.114-.242 1.211-.043.017-.523.024-1.65.024H19.65l-.069-.066c-.14-.133-.13.185-.13-4.288 0-4.559-.008-4.333.161-4.402.093-.039 8.367-.024 8.421.014m-4.268 1.06c-.15.013-.252.036-.353.078-.03.012-.126.034-.214.048-.249.04-.456.105-.503.158a.352.352 0 01-.118.075.777.777 0 00-.303.178 1.015 1.015 0 01-.192.132.247.247 0 00-.115.111.307.307 0 01-.112.115.222.222 0 00-.094.094.68.68 0 01-.11.15c-.046.049-.124.147-.172.218-.048.07-.102.14-.12.155a.921.921 0 01-.33.135c-.046.001-.046.002-.004.027.084.05.182.173.182.227 0 .077-.077.32-.114.362-.077.087-.124 1.188-.059 1.36a.384.384 0 01.023.111c0 .06.006.062.071.028.073-.039.078-.058.079-.282 0-.253.031-.478.087-.631a.682.682 0 00.041-.17c0-.031.014-.11.03-.176.017-.065.043-.172.057-.237a.745.745 0 01.094-.214.911.911 0 00.097-.193c.058-.178.257-.326.493-.369.142-.025.09-.025.814.003.51.02.712.038 1.091.1.042.008.133.035.204.063.07.027.21.06.31.074.31.042.43.072.486.124.032.03.122.067.228.093.096.024.191.053.212.064.02.01.05.02.065.02s.045.02.066.045c.02.025.12.083.22.13s.187.098.193.115a.398.398 0 00.182.117c.06 0 .435.355.552.524.042.06.107.152.146.203.038.05.07.107.07.125 0 .018.008.063.02.099.094.301.107.405.066.548-.022.076-.05.196-.064.267a1.72 1.72 0 01-.048.192c-.07.198.07.263.167.078a.444.444 0 01.155-.178c.023-.01.131-.302.131-.354 0-.025.01-.052.02-.059.073-.045.09-.49.023-.627a.428.428 0 01-.043-.128.106.106 0 00-.017-.06.458.458 0 01-.044-.112.42.42 0 00-.098-.161.978.978 0 01-.126-.158.377.377 0 00-.127-.124.298.298 0 01-.11-.1.271.271 0 00-.11-.095.714.714 0 01-.169-.126.457.457 0 00-.121-.097c-.046 0-.288-.124-.327-.168-.036-.04-.104-.065-.424-.157a.38.38 0 01-.129-.07c-.062-.058-.14-.078-.523-.137a.793.793 0 01-.176-.044.205.205 0 00-.079-.023.215.215 0 01-.092-.04.41.41 0 00-.164-.052 9.468 9.468 0 00-1.38-.05c-.932.021-.92.022-.977-.045-.087-.102-.05-.233.075-.273.022-.007.065-.05.096-.097.04-.062.096-.103.21-.159.086-.041.183-.1.216-.13.032-.031.11-.07.17-.088.136-.039.252-.09.252-.111 0-.09.512-.154 1.232-.154.75 0 .811-.042.234-.158a3.44 3.44 0 01-.374-.095c-.134-.05-.307-.064-.525-.044m1.542.468c-.038.016-.036.019.017.02.035 0 .054-.007.047-.02-.007-.012-.015-.02-.018-.02l-.046.02m-4.035 3.414c-.04.047-.035.34.007.439.044.106.067.043.061-.17-.007-.241-.027-.319-.068-.27m5.47.808c-.03.061-.03.069.003.093.063.046.114-.036.08-.127-.02-.051-.045-.041-.082.034m-8.457 3.98c.135.066.127-.213.127 4.376v4.175l-.05.097a.393.393 0 01-.089.122c-.063.04-8.4.043-8.448.003a.526.526 0 01-.086-.143l-.05-.113v-4.127c0-4.812-.025-4.379.252-4.413.258-.031 8.276-.009 8.344.024m9.775.02c.097.096.093-.114.097 4.302.005 4.172.003 4.281-.069 4.354-.017.017-.032.038-.032.046 0 .073.011.072-4.17.073-4.075 0-4.286-.003-4.286-.068 0-.012-.022-.039-.05-.06a.287.287 0 01-.074-.124c-.04-.132-.035-8.149.005-8.31.04-.16.055-.193.09-.193.016 0 .03-.009.03-.02 0-.054 8.405-.055 8.459 0m-4.164 2.47c-.014.036.018.064.05.045.022-.014.005-.076-.021-.076-.01 0-.022.014-.03.032m.217.238c-.016.016.026.137.048.137.023 0 .048-.103.032-.13-.014-.022-.06-.027-.08-.007m-.444.275c0 .065.012.07.028.012.006-.024.002-.048-.009-.055-.01-.007-.02.013-.02.043m.71.237a.693.693 0 00-.024.15c0 .071-.099.203-.152.203-.073 0-.126.093-.126.22 0 .242-.143.312-.317.157a.86.86 0 00-.123-.094.207.207 0 01-.072-.084.83.83 0 00-.218-.304c-.116-.116-.134-.127-.182-.108a.45.45 0 01-.132.02c-.064 0-.093.017-.167.096a.419.419 0 01-.111.097c-.103 0-.129.337-.032.42.032.028.065.05.074.05.009 0 .046.034.084.076.04.045.088.075.118.075.028 0 .106.013.173.03.068.017.19.042.273.055.083.013.197.034.254.047.106.023.28.014.474-.025.059-.012.18-.032.268-.044a1.678 1.678 0 00.354-.082c.056-.015.098-.043.116-.076a.344.344 0 01.127-.102c.177-.09.198-.332.034-.4a.295.295 0 01-.111-.098.23.23 0 00-.129-.096c-.347-.104-.343-.102-.397-.205l-.033-.063-.023.085m-.48.18c-.013.054.032.096.066.062.016-.017.017-.037.003-.064-.028-.051-.055-.05-.069.003" id="svg_46"/><path fill="#2cb6f8" d="M15.038 2.698c-.007.006-.656.02-1.444.032-2.443.033-2.519.037-2.682.11-.24.108-.29.132-.318.16-.016.016-.037.028-.046.028-.01 0-.05.032-.09.07-.04.04-.102.093-.14.119-.058.04-.35.429-.35.466a.3.3 0 01-.042.073c-.06.084-.089 1.222-.096 3.81-.004 1.379 0 1.815.012 1.403l.04-1.424c.049-1.734.122-3.184.168-3.329a8.63 8.63 0 00.05-.16.83.83 0 01.066-.16.712.712 0 00.052-.103c.007-.02.02-.037.027-.037.008 0 .027-.033.041-.073.036-.1.292-.357.416-.418.056-.028.102-.058.102-.066 0-.02.141-.078.257-.104.344-.078 4.843-.126 5.159-.054.165.037.321.094.321.116 0 .02.19.092.327.125a1.7 1.7 0 00.3.025c.304 0 .352.013.413.11a.41.41 0 00.135.123c.05.026.096.071.117.116.058.121.127.153.265.122a.49.49 0 01.123-.019c.06.07.069 1.066.033 4.01-.024 1.919-.037 2.162-.12 2.32-.066.123-.137.316-.138.374 0 .034-.026.059-.09.09-.074.035-.094.057-.11.123-.017.076-.09.122-.197.123-.013 0-.046.024-.073.054-.028.029-.059.053-.069.053-.01 0-.038.018-.061.04-.065.06-.258.065-3.45.08-3.048.016-3.21.012-3.308-.075-.092-.083-.198-.152-.234-.152-.022 0-.059-.026-.082-.057-.09-.123-.144-.178-.17-.178-.016 0-.05-.053-.076-.118a2.009 2.009 0 00-.116-.232c-.06-.1-.096-.196-.127-.346-.005-.024-.01.012-.011.08-.002.091.01.15.048.225.158.312.211.402.285.483.045.05.102.116.127.148.025.031.073.07.107.085a.54.54 0 01.123.086c.067.064.202.108.435.143.2.03 6.009.032 6.226.002.227-.031.335-.064.417-.127.041-.031.11-.078.152-.104.042-.025.124-.098.182-.162.136-.15.14-.157.189-.265.022-.05.047-.091.055-.091.024 0 .1-.172.126-.284.032-.136.033-5.936.002-6.213-.031-.277-.056-.345-.132-.367-.06-.018-.167-.212-.167-.302 0-.088-.14-.002-.166.101-.025.1-.104.118-.125.029-.022-.092-.05-.114-.141-.114a.573.573 0 01-.196-.052c-.095-.045-.143-.052-.338-.052-.217 0-.452-.048-.554-.111a.816.816 0 01-.237-.172.389.389 0 00-.142-.096 5.781 5.781 0 01-.135-.033c-.08-.02-.905-.027-.925-.007m-2.088 10.95c-.039.034-.063.063-.054.063.023 0 .143-.106.132-.117-.005-.004-.04.02-.078.054m1 .333c.128.016.274.017.265.002a.473.473 0 00-.164-.012c-.084.001-.13.006-.1.01m-2.072.384c-.027.028-.04.052-.03.052.01 0 .04-.024.068-.054.028-.029.041-.052.03-.052-.01 0-.041.025-.068.054m5.005.02c.029.017.063.03.075.03.011 0-.003-.013-.033-.03a.236.236 0 00-.075-.03c-.011 0 .003.013.033.03m-1.408.931c0 .041.004.058.01.038a.175.175 0 000-.075c-.006-.021-.01-.004-.01.037m.578.022c0 .052.005.074.01.048a.305.305 0 000-.097c-.005-.026-.01-.004-.01.049m-4.511.816c.023.032.06.068.082.082.073.046.054.011-.036-.064-.075-.063-.082-.066-.046-.018m4.215.537l-.063.07.075-.064a1.94 1.94 0 01.084-.07c.005-.003 0-.005-.012-.005-.011 0-.05.031-.084.07m-4.303.454c-.022.017-.031.031-.02.031.012 0 .04-.014.063-.031.023-.018.032-.032.02-.032a.154.154 0 00-.063.032m5.213.018c.03.04.151.131.151.116a.608.608 0 00-.09-.081c-.05-.04-.078-.055-.061-.035m.344.235a.98.98 0 01.062.059c.025.026.026.024.005-.015a.134.134 0 00-.061-.059c-.033-.011-.034-.01-.006.015m-2.055.23c-.038.034-.06.063-.05.063.012 0 .048-.029.082-.064s.056-.064.05-.064a.376.376 0 00-.082.064m-2.913.216c-.018.035-.018.051.003.07.02.019.023.018.011-.002-.008-.014-.004-.046.009-.07.012-.023.018-.043.012-.043-.006 0-.022.02-.035.045m2.529 2.174c-.101.071-.11.084-.032.044a.36.36 0 00.094-.067c.036-.044.026-.04-.062.023" id="svg_45"/><path fill="#9bc0d1" d="M15.278 2.57c-.273.006-2.899.047-3.821.06-.473.006-.497.01-.793.155a1.638 1.638 0 01-.216.093.39.39 0 00-.11.084c-.05.046-.116.1-.15.12a.301.301 0 00-.098.114 1.507 1.507 0 01-.17.281.187.187 0 00-.037.056c0 .007-.012.025-.028.04-.083.083-.123 1.624-.122 4.769 0 1.863.008 1.994.12 2.037a.44.44 0 01.094.146c.065.139.232.333.364.423.042.029.097.072.123.098a.405.405 0 00.139.073l.177.054c.242.078.264.078 3.34.07 1.971-.006 3.055-.016 3.125-.03.117-.025.318-.08.386-.105a.576.576 0 00.12-.082c.042-.037.103-.086.137-.11a.996.996 0 00.307-.351.983.983 0 01.1-.163c.12-.154.117-.056.116-3.495 0-3.65.014-3.396-.203-3.63a1.098 1.098 0 01-.084-.136c-.033-.062-.079-.118-.101-.125a.503.503 0 01-.125-.096.533.533 0 00-.198-.119 1.645 1.645 0 01-.15-.054.176.176 0 00-.056-.019.308.308 0 01-.09-.066l-.072-.067-.504.016c-.333.01-.532.007-.589-.008-.102-.026-.53-.042-.931-.033m.685.135l.135.033c.034.007.098.05.142.096a.816.816 0 00.237.172c.102.063.337.11.554.11.195.001.243.008.338.053a.573.573 0 00.196.052c.092 0 .119.022.14.114.022.089.101.071.126-.029.02-.081.067-.128.127-.128.021 0 .039.012.039.027 0 .09.108.284.167.302.076.022.1.09.132.367.031.277.03 6.077-.002 6.213-.025.112-.102.284-.126.284-.008 0-.033.04-.055.09-.048.109-.053.116-.19.266-.057.064-.139.137-.181.162-.042.026-.11.073-.152.104-.082.063-.19.096-.417.127-.217.03-6.026.029-6.226-.002-.233-.035-.368-.079-.435-.143a.54.54 0 00-.123-.086.335.335 0 01-.107-.086 3.105 3.105 0 00-.127-.147c-.074-.081-.128-.172-.286-.486l-.053-.105.01-2.25c.012-2.861.04-3.974.1-4.06a.3.3 0 00.043-.072c0-.037.29-.425.349-.466.038-.026.1-.08.14-.118.04-.04.08-.07.09-.07.01 0 .03-.013.046-.028.029-.029.077-.053.318-.161.163-.073.24-.077 2.682-.11a44.85 44.85 0 001.444-.032c.02-.02.844-.014.925.007m1.133.054c.169.027.237.062.237.123 0 .085-.48.12-.725.052-.145-.04-.146-.041-.098-.13l.04-.076h.183c.1.001.264.014.363.03m-.192 4.096c-.207.017-.586.48-.489.598.098.118.416.109.48-.015a.539.539 0 01.15-.14c.078-.052.121-.096.13-.134.006-.031.02-.085.031-.119a.421.421 0 00.02-.089c0-.027-.168-.12-.205-.113a2.004 2.004 0 01-.117.012m-6.328.044c-.129.104-.125.067-.125 1.46v1.274l.052.075c.08.114.107.127.26.128.211.001.322-.052.391-.187.045-.086.054-2.487.01-2.609-.056-.153-.454-.25-.588-.141m1.304.007c-.126.058-.163.137-.17.36-.006.19-.014.208-.144.355l-.1.113c-.095.11-.058.258.11.443.07.077.128.143.129.146.001.002.006.22.01.483.009.438.013.487.055.568l.088.174c.044.087.136.181.18.182.013 0 .034.013.047.028.068.082.208.125.37.115.294-.018.324-.037.404-.259.036-.1-.026-.256-.125-.316a.822.822 0 01-.107-.076.197.197 0 00-.076-.04c-.165-.041-.176-.95-.011-.95.02 0 .044-.01.051-.022.008-.012.032-.022.054-.022.062 0 .18-.13.21-.23.049-.163-.067-.33-.27-.394-.114-.036-.156-.114-.139-.259.041-.358-.234-.552-.566-.399m-.978.136a.665.665 0 01.117.08l.055.05.003 1.027c.002.565.01 1.107.017 1.203.023.287-.278.443-.496.256l-.055-.047.003-1.228c.003-1.346 0-1.325.13-1.33a.328.328 0 00.096-.02c.059-.026.06-.026.13.01m1.361 0c.051.02.082.123.082.271 0 .227.076.34.307.458.19.097.177.174-.05.284-.231.112-.261.19-.249.654.011.422.027.462.247.639.19.153.195.157.195.21 0 .167-.447.332-.533.197a.478.478 0 00-.12-.071c-.231-.108-.27-.23-.285-.883l-.01-.467-.07-.117a1.167 1.167 0 00-.17-.21l-.1-.093.034-.067c.02-.036.043-.066.053-.066a.573.573 0 00.173-.174c0-.011.025-.06.056-.108.048-.077.054-.106.045-.213-.019-.223.162-.334.395-.244m4.783.048c.048.063.034.099-.063.164a.627.627 0 00-.141.133c-.047.068-.057.072-.173.072-.148 0-.173-.033-.095-.125.029-.035.053-.077.053-.094 0-.142.335-.262.42-.15m-3.377.484a.458.458 0 00-.128.049.272.272 0 01-.077.038c-.204.063-.252.327-.09.49.067.067.174.07.222.008.063-.08.528-.123.63-.059.097.062-.09.28-.24.28a.47.47 0 00-.113.02c-.035.01-.12.03-.19.044-.242.049-.548.272-.58.424a14.28 14.28 0 01-.032.148c-.081.36.116.682.504.823.19.07.56.031.688-.071.077-.061.163-.06.309.004.254.112.492.035.544-.175.046-.183-.014-1.452-.07-1.524A.474.474 0 0115 7.968c-.03-.091-.146-.2-.295-.275a.7.7 0 01-.113-.065c-.062-.08-.671-.115-.923-.054m2.001.011c-.094.017-.132.046-.172.131-.054.116-.062.191-.047.429.008.135.016.424.017.642.004.6.083.781.43.978l.182.103h.225c.22 0 .227-.002.353-.078.193-.118.338-.126.48-.028.166.114.353.093.454-.05l.057-.081.007-.92c.006-.981.008-.966-.1-1.075-.071-.073-.33-.075-.453-.004-.162.093-.165.108-.18.748-.018.746-.017.746-.233.825-.121.045-.159.045-.278 0-.204-.077-.214-.117-.216-.84-.001-.753-.073-.86-.526-.78m-1.356.104c.053.011.133.037.179.056.045.02.1.036.122.036.061 0 .336.277.35.353l.033.16c.012.053.024.368.027.7l.006.603-.063.066c-.066.068-.352.101-.387.044-.007-.011-.032-.021-.055-.021-.022 0-.041-.01-.041-.022 0-.048-.291.015-.453.1-.064.033-.33.04-.349.009a.411.411 0 00-.132-.055.473.473 0 01-.166-.082c-.306-.311-.313-.604-.019-.885.203-.193.314-.233.755-.277a.87.87 0 00.23-.057l.091-.042v-.122c0-.133-.032-.18-.156-.233-.088-.037-.629-.034-.739.005-.094.034-.098.032-.153-.079-.044-.086.022-.148.197-.184.073-.015.182-.045.24-.067.115-.042.298-.044.483-.006m1.608.076c.028.015.077.045.11.067l.058.04v.469c0 .614.06.886.204.93.023.007.091.037.15.066l.108.053.162-.075c.24-.11.324-.274.328-.635 0-.1.004-.32.007-.487l.005-.304.063-.064c.113-.117.371-.107.429.015.055.118.058 1.722.003 1.8-.079.11-.293.115-.406.008-.08-.075-.175-.073-.294.005a.208.208 0 01-.094.033.892.892 0 00-.185.053c-.208.079-.313.073-.554-.03a3.891 3.891 0 00-.118-.047c-.09-.034-.15-.082-.15-.12a.62.62 0 00-.106-.199c-.078-.054-.137-1.407-.066-1.52.046-.072.255-.107.346-.058m-1.908.984c-.093.024-.166.083-.305.25-.058.068-.063.14-.016.205a.303.303 0 01.03.08c.024.103.155.166.344.166h.16l.107-.105c.367-.366.177-.72-.32-.596m.275.083c.037.013.067.037.067.053 0 .017.01.03.02.03.08 0 .069.157-.017.244a2.78 2.78 0 00-.127.135c-.03.036-.071.05-.177.06-.166.015-.172.011-.241-.145l-.055-.123.072-.078c.146-.16.318-.225.458-.176m-.32 4.042c-.069.022-.327.184-.407.258a.505.505 0 01-.141.085.5.5 0 00-.145.09 1.056 1.056 0 01-.199.13.447.447 0 00-.133.084c0 .01-.01.018-.024.018-.013 0-.04.019-.059.042a.648.648 0 01-.14.098.836.836 0 00-.161.116.848.848 0 01-.181.12 1.256 1.256 0 00-.206.132.829.829 0 01-.176.11.73.73 0 00-.176.118c-.045.043-.095.078-.111.078s-.03.008-.03.017c0 .01-.04.039-.09.064a.793.793 0 00-.157.108.506.506 0 01-.147.091.538.538 0 00-.154.098 1.19 1.19 0 01-.186.133c-.063.036-.15.094-.195.13a1.163 1.163 0 01-.18.111c-.146.071-.197.13-.195.226.002.183.067.257.336.384a.61.61 0 01.094.075.81.81 0 00.18.114.738.738 0 01.186.128c.04.042.086.076.102.076.027 0 .14.078.22.152.05.046.332.186.403.2.18.036.172.213-.012.31a1.17 1.17 0 00-.217.142.488.488 0 01-.155.094.529.529 0 00-.163.1.48.48 0 01-.088.072c-.019 0-.23.147-.316.22a.716.716 0 01-.163.101c-.097.04-.21.124-.358.27l-.11.108.056.073c.133.173.35.342.44.342.014 0 .058.032.096.072.039.04.122.098.185.13.182.093.21.204.052.204-.07 0-.13.029-.213.1-.03.026-.11.078-.18.116-.07.038-.152.09-.182.117-.03.026-.108.09-.173.142-.156.126-.168.17-.17.667-.001.407.008.465.083.522.04.032.122.035.14.006.008-.012.032-.021.055-.021s.042-.01.042-.022c0-.011.012-.021.027-.021s.053-.024.085-.054a.255.255 0 01.072-.053.349.349 0 00.085-.054.31.31 0 01.09-.053c.01 0 .04-.024.065-.053a.536.536 0 01.148-.1.724.724 0 00.113-.06 1.46 1.46 0 01.283-.202c.044-.02.135-.084.202-.143a.753.753 0 01.139-.106c.01 0 .018-.014.018-.032 0-.018.01-.032.021-.032.012 0 .022-.033.022-.073 0-.067.044-.141.083-.141.042 0 .319.155.364.204a.53.53 0 00.142.096c.05.022.132.076.184.12.052.043.142.1.2.127a.722.722 0 01.166.104c.031.03.103.08.16.112.056.031.131.084.167.118.035.033.071.06.08.06.007 0 .026.013.042.028a.395.395 0 00.087.053c.147.067.166.078.167.1.009.17.468.186.61.022a.859.859 0 01.192-.128.9.9 0 00.184-.117.935.935 0 01.25-.162.247.247 0 00.09-.072.38.38 0 01.122-.09c.17-.089.207-.113.246-.16a.588.588 0 01.152-.101.704.704 0 00.166-.112.49.49 0 01.127-.09.959.959 0 00.142-.084.31.31 0 01.082-.05c.01 0 .035-.022.057-.05a.47.47 0 01.142-.099.766.766 0 00.166-.107.71.71 0 01.14-.097c.072-.036.278-.177.3-.205a.852.852 0 01.12-.074 1.25 1.25 0 00.183-.12c.039-.034.121-.086.183-.116.098-.048.327-.24.327-.275 0-.007.02-.032.044-.057l.044-.044-.07-.074a1.08 1.08 0 00-.163-.132c-.05-.032-.09-.066-.09-.074 0-.022-.164-.124-.198-.124a.464.464 0 01-.132-.096.477.477 0 00-.13-.097c-.025 0-.058-.022-.211-.147a1.107 1.107 0 00-.197-.121.79.79 0 01-.185-.125.362.362 0 00-.129-.086l-.183-.036c-.175-.033-.205-.068-.11-.126a.316.316 0 01.097-.043c.014 0 .059-.032.1-.07a.764.764 0 01.135-.103.488.488 0 00.09-.058.103.103 0 01.058-.026c.017 0 .03-.01.03-.022 0-.012.014-.021.03-.021.015 0 .055-.03.09-.067a.705.705 0 01.174-.12.436.436 0 00.143-.1.55.55 0 01.17-.115c.075-.036.17-.094.21-.128.04-.035.129-.093.197-.13.167-.091.177-.104.194-.24.008-.065.017-.127.02-.139.005-.027-.22-.18-.267-.18-.02-.001-.04-.009-.043-.018-.016-.035-.206-.17-.312-.22-.083-.04-.114-.067-.124-.11-.017-.077-.06-.109-.165-.123-.196-.027-.156-.13.042-.107a.64.64 0 00.498-.164c.041-.037.121-.093.178-.124a.944.944 0 00.148-.099c.026-.023.054-.043.064-.043.01 0 .017-.014.017-.032 0-.017.007-.032.016-.032.05 0 .068-.143.072-.54l.004-.422-.058-.076c-.032-.041-.07-.075-.087-.075-.062 0-.301.131-.384.21a.53.53 0 01-.163.109.713.713 0 00-.181.111c-.058.048-.14.105-.182.127a.648.648 0 00-.118.079c-.072.067-.176.135-.207.135-.028 0-.095.046-.187.128a.346.346 0 00-.064.128c-.047.16-.067.188-.136.199-.06.008-.2-.078-.227-.14-.004-.009-.025-.016-.048-.016-.022 0-.04-.007-.04-.017 0-.01-.034-.029-.075-.044a.622.622 0 01-.166-.112.812.812 0 00-.177-.125.749.749 0 01-.168-.116c-.045-.043-.095-.078-.112-.078s-.03-.009-.03-.02c0-.01-.025-.024-.054-.032a.274.274 0 01-.103-.064c-.065-.064-.22-.162-.257-.162-.016 0-.057-.03-.091-.066a1.252 1.252 0 00-.213-.155.985.985 0 01-.157-.105c-.009-.021-.168-.019-.24.003m.321.176a.5.5 0 01.151.104c.021.04.157.128.196.128a.66.66 0 01.143.094c.067.051.17.121.228.155.06.034.134.086.166.117.032.03.1.074.15.096.05.022.114.067.142.1a.77.77 0 00.19.129c.075.038.166.096.201.13a.649.649 0 00.16.101.643.643 0 01.174.12.779.779 0 00.176.129c.055.027.138.081.184.12.046.04.132.093.191.12a.65.65 0 01.164.109c.03.032.122.091.203.131.08.04.171.097.2.126a.89.89 0 00.183.119l.128.065-.007.117c-.01.14-.017.15-.16.22a.936.936 0 00-.175.11c-.034.03-.131.094-.215.14-.084.046-.17.104-.192.128a.954.954 0 01-.174.119.66.66 0 00-.152.104.906.906 0 01-.265.163.337.337 0 00-.101.074.98.98 0 01-.197.134c-.064.032-.15.09-.192.128a.656.656 0 01-.128.093c-.135.063-.186.095-.236.15a.392.392 0 01-.129.085 1.085 1.085 0 00-.279.196.543.543 0 01-.115.061.654.654 0 00-.171.116.748.748 0 01-.188.125.763.763 0 00-.193.13.628.628 0 01-.168.117.478.478 0 00-.138.089.584.584 0 01-.14.096.984.984 0 00-.181.128.84.84 0 01-.236.156c-.023.013-.079.039-.123.058-.044.02-.08.044-.08.055 0 .038-.083.021-.136-.028a.574.574 0 00-.16-.087c-.127-.045-.42-.308-.4-.358a.312.312 0 01.091-.084 1.83 1.83 0 00.166-.13.654.654 0 01.16-.105.57.57 0 00.15-.098c.085-.079.221-.16.269-.16.017 0 .07-.039.116-.087a.946.946 0 01.208-.15 1.01 1.01 0 00.177-.113c.03-.028.112-.082.182-.12a.622.622 0 00.158-.111.56.56 0 01.165-.106.618.618 0 00.175-.112c.038-.049.095-.085.241-.153a.622.622 0 00.154-.12.34.34 0 01.147-.098.375.375 0 00.144-.086.958.958 0 01.164-.12c.048-.026.1-.06.116-.074.015-.015.038-.027.05-.027.012 0 .048-.027.08-.06a.319.319 0 01.1-.076.918.918 0 00.144-.078l.1-.063v-.147c0-.167-.02-.198-.196-.28a.387.387 0 01-.132-.096.514.514 0 00-.157-.111.623.623 0 01-.132-.079c-.004-.009-.018-.016-.032-.016-.014 0-.037-.019-.051-.042a.451.451 0 00-.15-.098.881.881 0 01-.198-.126 1.239 1.239 0 00-.199-.14 1.17 1.17 0 01-.15-.094c-.067-.065-.183-.142-.215-.142-.02 0-.036-.01-.036-.021 0-.012-.013-.022-.028-.022-.016 0-.06-.029-.1-.064-.102-.091-.337-.096-.413-.009a.69.69 0 01-.17.118.547.547 0 00-.15.104.787.787 0 01-.186.126c-.23.122-.237.132-.237.278 0 .149.024.177.24.282.079.038.16.095.18.126.02.03.068.084.107.117l.072.062-.052.04a.19.19 0 01-.074.04c-.013 0-.024.008-.024.018 0 .01-.034.03-.077.047a.303.303 0 00-.117.087.402.402 0 01-.142.1.846.846 0 00-.197.132.407.407 0 01-.12.087c-.015 0-.039.015-.053.032a.097.097 0 01-.065.033c-.021 0-.079.038-.127.085a.77.77 0 01-.183.126.484.484 0 00-.143.099.413.413 0 01-.124.089 2.128 2.128 0 00-.113.052c-.121.064-.46-.03-.545-.152a.546.546 0 00-.152-.105.771.771 0 01-.173-.117.605.605 0 00-.14-.1 1.67 1.67 0 01-.205-.137 1.427 1.427 0 00-.225-.142c-.128-.06-.132-.065-.15-.196-.017-.124-.001-.147.134-.199a.646.646 0 00.17-.102.801.801 0 01.151-.105.824.824 0 00.248-.162.744.744 0 01.169-.112.748.748 0 00.16-.102c.033-.03.118-.089.189-.13.07-.042.153-.1.182-.13a.992.992 0 01.197-.128c.079-.04.168-.097.198-.125a.986.986 0 01.183-.114.453.453 0 00.15-.106.33.33 0 01.124-.09.82.82 0 00.17-.11.735.735 0 01.117-.088c.176-.091.267-.147.296-.181a.817.817 0 01.16-.108c.07-.039.157-.098.193-.132.036-.034.077-.061.091-.061.015 0 .026-.009.026-.02 0-.034.135-.073.293-.084a.55.55 0 01.177.064m3.47-.003c.04.021.042.049.041.423l-.001.4-.111.121a.84.84 0 01-.219.17.5.5 0 00-.146.1c-.153.192-.429.192-.616 0a.361.361 0 00-.14-.092c-.133-.027-.162-.071-.146-.22l.015-.132.139-.066a.949.949 0 00.174-.102c.02-.02.099-.076.175-.125.076-.05.18-.122.232-.16.052-.038.13-.086.175-.106a.495.495 0 00.14-.102c.032-.037.074-.067.093-.067a.243.243 0 00.087-.032c.065-.037.058-.036.109-.01m-3.556 1.088c0 .01.055.045.121.08.067.033.151.089.188.123a.69.69 0 00.152.102c.13.06.203.115.244.183a.239.239 0 00.121.09c.239.08.217.134-.05.13a.694.694 0 00-.215.021.216.216 0 01-.084.024c-.022 0-.077.035-.122.078-.046.043-.14.11-.212.15a.67.67 0 00-.159.116c-.016.022-.042.041-.058.041a.1.1 0 00-.058.027c-.101.097-.217.085-.247-.025-.032-.118-.23-.312-.405-.399l-.163-.08.014-.118c.018-.149.016-.146.16-.214a.78.78 0 00.185-.122.668.668 0 01.149-.108.732.732 0 00.127-.08c.044-.039.312-.056.312-.019m2.392.156c.05.05-.03.127-.097.093a1.427 1.427 0 00-.127-.054c-.038-.014-.07-.034-.07-.044 0-.028.266-.023.294.005m-1.514.689c.018.013.061.05.096.082a.722.722 0 00.164.103c.213.094.203.356-.017.427a.799.799 0 00-.204.123 1.317 1.317 0 01-.208.14.63.63 0 00-.15.104.646.646 0 01-.163.107.933.933 0 00-.196.13.88.88 0 01-.186.125.79.79 0 00-.186.13.408.408 0 01-.15.1.527.527 0 00-.166.102 1.31 1.31 0 01-.227.149.486.486 0 00-.155.111.413.413 0 01-.144.103c-.06.027-.151.085-.202.127a1.161 1.161 0 01-.217.135.386.386 0 00-.16.117.334.334 0 01-.134.104.864.864 0 00-.179.113 2.082 2.082 0 01-.136.108c-.14.097-.122.281.039.386a.62.62 0 01.081.065c.018.017.08.054.137.08.058.028.146.091.196.142.05.05.106.091.124.091.034 0 .144.075.243.165.029.025.101.073.16.104.06.032.129.076.153.097.023.02.096.066.162.101.067.035.182.111.257.17.246.193.513.2.697.016.049-.049.201-.148.29-.19a.344.344 0 00.107-.073.675.675 0 01.107-.095c.18-.134.173-.233-.026-.383a1.782 1.782 0 01-.122-.102c-.026-.025-.056-.045-.067-.045-.038 0-.217-.111-.217-.135 0-.032.066-.212.09-.243a.843.843 0 01.162-.096c.08-.04.173-.1.21-.137a.474.474 0 01.156-.095.55.55 0 00.173-.11.724.724 0 01.165-.117c.045-.02.121-.07.17-.107a1.45 1.45 0 01.28-.18.413.413 0 00.107-.088c.087-.097.265-.083.392.031a.979.979 0 00.174.122c.049.025.138.084.197.131.06.047.153.108.208.136.056.028.107.066.114.085.007.019.064.058.126.086a.85.85 0 01.183.117.38.38 0 00.086.065c.008 0 .057.037.108.082l.094.081-.138.138a.942.942 0 01-.328.24.366.366 0 00-.112.081.539.539 0 01-.15.098.965.965 0 00-.198.13c-.041.038-.087.07-.102.07-.014 0-.027.008-.027.018 0 .01-.038.036-.086.057a.642.642 0 00-.15.1.608.608 0 01-.149.098c-.047.02-.085.044-.085.053 0 .01-.014.017-.03.017-.017 0-.034.008-.038.018-.01.025-.222.174-.248.174a.516.516 0 00-.126.092.94.94 0 01-.195.132c-.05.022-.091.048-.091.058 0 .01-.01.018-.023.018-.012 0-.048.024-.08.053-.03.03-.11.081-.175.116a.932.932 0 00-.192.14c-.04.042-.087.076-.102.076-.037 0-.178.09-.227.146a.347.347 0 01-.107.071.822.822 0 00-.27.188c-.095.098-.292.083-.397-.03a.776.776 0 00-.167-.126 1.8 1.8 0 01-.212-.142 1.214 1.214 0 00-.197-.127.473.473 0 01-.136-.095.497.497 0 00-.139-.097.783.783 0 01-.156-.099.842.842 0 00-.143-.097.337.337 0 01-.092-.062c-.008-.012-.03-.022-.05-.022-.02 0-.079-.04-.131-.087a.886.886 0 00-.187-.129.54.54 0 01-.14-.093.795.795 0 00-.17-.114.865.865 0 01-.196-.14.339.339 0 00-.14-.092.189.189 0 01-.091-.043c-.014-.017-.034-.03-.045-.03-.01 0-.045-.03-.077-.067a.653.653 0 00-.183-.127.87.87 0 01-.185-.116.966.966 0 00-.18-.118.942.942 0 01-.262-.195c-.117-.1-.116-.246.003-.253.012-.001.072-.04.134-.087.062-.047.146-.1.188-.117a.636.636 0 00.155-.107c.044-.041.091-.076.106-.076s.027-.007.027-.016c0-.009.028-.028.062-.043a.597.597 0 00.136-.1.993.993 0 01.2-.137c.07-.035.155-.089.19-.12.036-.03.135-.09.22-.134.085-.044.155-.09.155-.102 0-.025.056-.064.182-.126a.99.99 0 00.17-.114c.047-.04.136-.096.198-.125a.926.926 0 00.21-.15c.053-.053.112-.096.13-.096.037 0 .13-.06.213-.137a.523.523 0 01.11-.075c.135-.064.191-.097.224-.135a.784.784 0 01.208-.145.29.29 0 00.078-.06c.07-.065.084-.073.259-.165a.54.54 0 00.151-.109.424.424 0 01.142-.096.658.658 0 00.177-.121c.036-.039.08-.07.097-.07a.088.088 0 00.053-.02c.05-.047.264-.044.331.005m.373-.005c.119.052.104.106-.028.105-.117-.001-.172-.05-.12-.106.047-.052.028-.052.148.001m.43.247c.095.062.03.352-.075.337a6.685 6.685 0 01-.115-.018l-.082-.014.015-.12c.026-.208.12-.275.258-.185m-2.157.227c.063.062.016.103-.097.087-.083-.013-.09-.039-.016-.057.03-.008.053-.023.053-.035 0-.029.03-.026.06.005m1.77.26c.037.027.035.03-.031.064-.088.044-.17.046-.185.004-.03-.08.13-.13.216-.068m-2.022.013c0 .011-.037.026-.08.033a.58.58 0 00-.13.037c-.057.028-.103-.004-.083-.057.015-.038.293-.05.293-.013m1.694.207c.06.055 0 .097-.124.09-.09-.006-.167-.06-.087-.06a.278.278 0 00.093-.033c.076-.04.071-.04.118.003m-2.136.013c.04.037-.008.08-.09.08-.078 0-.099-.043-.037-.078.06-.033.094-.034.127-.002m-.265.243c0 .06-.256.115-.297.065-.036-.043.007-.07.147-.093.13-.022.15-.018.15.028m2.033-.003c.046.056-.157.137-.214.086-.04-.036-.04-.041-.007-.078.044-.048.184-.053.221-.008m-.342.215c.047.057-.011.096-.141.096-.142 0-.147-.024-.014-.08.126-.055.123-.055.155-.016m-2.153.002c.043.017.044.065.002.089-.04.022-.204.007-.204-.02 0-.04.147-.09.202-.069m1.752.244c.068 0 .039.06-.048.094-.09.036-.14.03-.158-.02-.016-.04.072-.1.126-.086.023.007.06.012.08.012m-.305.275c0 .03-.055.046-.146.046-.127 0-.147-.031-.042-.064.05-.016.1-.036.11-.045.02-.018.078.029.078.063m2.107-.025c.023.061-.252.129-.288.07-.028-.045.004-.065.132-.084l.128-.019c.008-.001.02.013.028.033m-.406.234c.045.045-.01.093-.107.094-.1 0-.129-.042-.058-.088.075-.047.122-.05.165-.006m-2.079.024c.023.014-.103.07-.157.07-.063 0-.096-.056-.05-.084.036-.021.164-.013.207.014m-.34.214c.028.075-.175.129-.266.071-.041-.026-.027-.038.087-.074.129-.04.162-.04.179.003m2.118-.002c.02.05.008.056-.132.075-.141.02-.247-.03-.12-.056.033-.007.09-.021.126-.031.096-.027.112-.026.126.012m-.426.237c.072.071-.088.147-.165.078-.038-.035-.037-.037.02-.075.073-.048.1-.049.145-.003m-2.12.016l.065.028-.057.023a.184.184 0 00-.07.045c-.026.04-.092.025-.105-.023-.023-.086.06-.121.168-.073m-.192.22c.02.12.032.156.052.156.038 0 .148.11.137.138-.028.073-.2.038-.2-.04 0-.017-.033-.041-.072-.054a.392.392 0 01-.133-.087l-.06-.064.06-.064c.096-.1.198-.092.216.016m1.973.072c-.123.069-.056.258.127.357.069.037.164.102.21.143a.367.367 0 00.11.075c.11 0 .123.211.013.214a.463.463 0 00-.13.097.471.471 0 01-.129.096.733.733 0 00-.23.146c-.176.178-.367.187-.552.025a1.22 1.22 0 00-.212-.15.727.727 0 01-.223-.144.29.29 0 00-.108-.062c-.178-.045-.24-.222-.078-.222.066 0 .176-.049.282-.126.05-.037.1-.066.112-.066.012 0 .022-.008.022-.017 0-.008.031-.03.07-.046a.53.53 0 00.138-.102.536.536 0 01.15-.106.49.49 0 00.139-.095c.048-.05.078-.061.182-.067.124-.006.17.015.107.05m-1.388.436c.052.05.008.072-.12.06-.129-.012-.193-.048-.166-.092.02-.033.244-.008.286.032m-1.41.472c.023.027.023.039-.002.063-.035.033-.267-.039-.244-.076.022-.034.216-.024.247.013m-.457.037c.021.033.103.08.141.08.05 0 .217.09.274.147.048.049.17.15.242.202.015.01-.002.037-.05.074l-.177.146a1.102 1.102 0 01-.188.129c-.047.022-.086.048-.086.056 0 .01-.014.017-.031.017-.018 0-.042.019-.054.042a.47.47 0 01-.154.108c-.073.036-.17.099-.215.14a.727.727 0 01-.136.1c-.029.012-.052.031-.052.041 0 .01-.018.018-.04.018-.052 0-.189.057-.206.085-.052.085-.097-.124-.096-.445.002-.388.028-.455.245-.614a3.43 3.43 0 00.156-.122c.038-.032.125-.084.192-.115.068-.03.131-.07.14-.086a.054.054 0 01.095-.003m.747.197c.039.039 0 .08-.067.072-.075-.009-.122-.074-.074-.104.035-.022.102-.007.141.032" id="svg_44"/><path fill="#ef9b9a" d="M19.613 2.535c-.169.069-.16-.157-.16 4.402 0 4.473-.01 4.155.13 4.288l.069.066h1.59c1.128 0 1.608-.007 1.65-.024.251-.1.243-.057.243-1.224 0-.944 0-.972.042-1.01.042-.037.045-.037.087 0 .042.039.043.062.041 1.006-.002.999 0 1.028.086 1.13.017.02.044.037.059.037s.027.008.027.019c0 .01.027.024.059.03l.118.027c.05.012.07.002.134-.068.124-.135.123-.123.111-1.678-.014-1.814-.037-1.677.281-1.688.302-.01.27-.196.277 1.632.006 1.694.002 1.634.123 1.748l.057.053 1.664.006c1.65.005 1.665.005 1.72-.038.132-.104.123.223.123-4.35 0-4.502.006-4.269-.11-4.35-.054-.038-8.328-.053-8.42-.014m8.363.232c.05.05.051 8.264.001 8.284-.077.032-3.292.018-3.33-.014-.033-.027-.036-.165-.036-1.602 0-1.92.036-1.782-.464-1.754-.46.027-.42-.145-.4 1.75.01.852.011 1.553.002 1.557-.009.004-.016.02-.016.035 0 .05-.055.052-.144.007-.083-.042-.085-.046-.068-.121.01-.043.019-.482.019-.977v-.899l-.095-.091c-.052-.05-.11-.091-.128-.091-.019 0-.033-.009-.033-.02 0-.04-.07-.041-.149 0-.076.04-.151.145-.151.21 0 .013-.01.024-.023.024-.025 0-.016 1.774.01 1.864.015.052.008.06-.103.107l-.12.052-1.553-.01c-1.349-.01-1.555-.016-1.573-.043-.027-.044-.028-8.156 0-8.229.014-.039.04-.056.09-.062.207-.026 8.237-.004 8.264.023m-4.329.672c-.308.017-.547.055-.579.094-.024.028-.171.087-.373.149a.704.704 0 00-.289.157.674.674 0 01-.134.078c-.118.055-.187.111-.187.153 0 .016-.015.028-.032.028-.018 0-.033.01-.033.022 0 .012-.018.021-.04.021-.045 0-.145.092-.163.151-.007.022-.04.051-.072.066-.055.024-.153.144-.153.187 0 .01-.043.055-.096.098-.053.044-.096.093-.096.11 0 .04-.086.159-.114.159a.345.345 0 00-.098.07.426.426 0 01-.206.099c-.301.066-.442.124-.514.208a.888.888 0 01-.166.094c-.168.08-.206.128-.158.202.067.1.472.086.647-.025.106-.066.156.105.103.35-.11.51-.024 1.674.14 1.898a.365.365 0 01.066.117c0 .085.08.254.154.331a.885.885 0 01.139.202.718.718 0 00.184.228c.07.061.145.129.166.15.026.027.053.034.093.024.11-.027.077-.28-.056-.425a.146.146 0 01-.038-.08.483.483 0 00-.03-.119 3.698 3.698 0 01-.056-.171.41.41 0 00-.066-.132c-.194-.209-.186-1.547.013-1.961a2.55 2.55 0 00.117-.3c.057-.19.056-.187.172-.249.214-.113 1.126-.134 1.745-.04.07.011.244.03.385.044.306.028.558.078.632.127a.6.6 0 00.139.059l.2.057a.855.855 0 00.156.034c.055 0 .227.083.24.115.005.015.051.04.103.055.162.05.283.111.357.183.039.038.111.083.16.098.09.03.143.066.144.099 0 .01.034.041.075.07.12.087.181.14.181.16 0 .01.039.054.087.096.048.043.113.13.145.195.032.065.078.126.102.137.156.07.135.9-.027 1.052-.04.037-.072.084-.072.103 0 .049-.06.141-.133.204-.032.028-.06.062-.06.075a.618.618 0 01-.124.141.774.774 0 00-.151.184.313.313 0 01-.09.114c-.089.065-.043.11.113.108.094 0 .126-.012.188-.064.04-.035.092-.064.113-.064.06 0 .155-.055.213-.124a.256.256 0 01.106-.075c.064-.016.391-.327.411-.39a.182.182 0 01.074-.079.257.257 0 00.087-.096l.058-.12a.284.284 0 00.03-.091c0-.017.01-.03.021-.03.18 0 .216-.933.045-1.157a.899.899 0 01-.1-.18c-.058-.15-.43-.55-.586-.632a.433.433 0 01-.124-.105.341.341 0 00-.156-.104.604.604 0 01-.172-.097.581.581 0 00-.132-.088c-.148-.064-.19-.078-.226-.078-.02 0-.061-.023-.091-.051-.099-.091-.437-.206-.609-.206a.81.81 0 01-.192-.072c-.155-.075-.288-.103-.664-.14a28.216 28.216 0 01-.589-.07c-.57-.073-.797-.075-1.09-.008-.385.087-.517.053-.283-.072.023-.013.053-.056.067-.096.02-.062.043-.08.146-.121.067-.027.154-.072.194-.101a.883.883 0 01.333-.134c.058 0 .258-.06.401-.12.242-.103.827-.116 1.057-.025.182.073.19.076.278.1.047.013.154.038.238.054.116.024.17.047.226.098.068.062.32.169.406.17.019.001.062.016.096.034.072.037.107.04.126.01.015-.024-.038-.085-.074-.085-.012 0-.023-.03-.023-.066 0-.102-.09-.234-.16-.234-.028 0-.118-.089-.118-.117 0-.032-.095-.1-.224-.16a.935.935 0 01-.196-.121.577.577 0 00-.204-.102c-.194-.056-.255-.08-.34-.134-.14-.09-.626-.138-1.113-.111m.643.214c.064.024.233.066.374.095.577.116.515.158-.236.158-.722 0-1.072.041-1.172.139-.041.04-.306.14-.372.14a.291.291 0 00-.095.064c-.04.035-.143.098-.228.14-.115.055-.17.098-.212.16-.03.046-.073.089-.095.096-.127.04-.163.171-.073.275l.05.058.788-.013c.735-.013.974-.006 1.495.047.072.007.154.03.186.053.03.022.073.04.092.04.02 0 .055.01.08.023a.791.791 0 00.174.044c.384.059.462.08.524.137a.38.38 0 00.13.07c.32.092.387.118.423.157.039.044.28.168.327.168.013 0 .067.044.121.097.054.053.13.11.169.126.039.016.088.06.11.096.021.036.07.08.11.1.039.018.096.074.127.123.03.05.087.12.125.157a.42.42 0 01.095.15c.014.045.033.102.043.125.01.024.03.085.046.136.015.052.038.098.052.103a.044.044 0 01.026.035c.016.25-.018.468-.083.539-.01.01-.019.04-.019.063 0 .05-.109.341-.131.35a.443.443 0 00-.154.18c-.043.08-.06.094-.129.1-.1.008-.117-.03-.058-.128a.3.3 0 00.044-.12c0-.054.03-.185.087-.39.04-.143.028-.248-.066-.548a.451.451 0 01-.02-.099.373.373 0 00-.07-.125 8.594 8.594 0 01-.146-.203c-.12-.172-.492-.524-.554-.524-.034 0-.133-.064-.183-.12a.849.849 0 00-.204-.118.925.925 0 01-.193-.106c-.046-.05-.156-.095-.356-.146a.643.643 0 01-.228-.094c-.055-.05-.168-.08-.475-.123-.215-.03-.352-.062-.407-.096-.125-.076-.992-.154-1.852-.165-.295-.004-.592.17-.664.39a.91.91 0 01-.097.192.746.746 0 00-.094.214c-.015.065-.04.172-.057.237a.987.987 0 00-.03.176.682.682 0 01-.04.17 1.944 1.944 0 00-.088.627c0 .182-.033.332-.074.332a.222.222 0 00-.042.013c-.026.01-.034-.001-.034-.049a.588.588 0 00-.022-.136c-.077-.26-.011-1.36.086-1.455.02-.02.086-.224.086-.265 0-.065-.084-.183-.157-.222-.058-.03-.062-.037-.025-.043a.62.62 0 00.454-.294c.048-.071.122-.165.165-.21a.512.512 0 00.102-.145c.014-.042.052-.08.107-.108a.236.236 0 00.116-.117.188.188 0 01.109-.106.771.771 0 00.177-.125.784.784 0 01.315-.184.377.377 0 00.122-.087.243.243 0 01.136-.075c.044-.008.11-.022.145-.031.035-.01.137-.029.225-.043a1.66 1.66 0 00.235-.054c.28-.104.618-.115.857-.028m1.08.424c.008.013-.011.02-.046.02-.058-.001-.051-.01.03-.04.002 0 .01.008.017.02M11.052 7.18a2.73 2.73 0 00.02.491c.005.006.01-.106.01-.25 0-.25-.004-.284-.03-.24m.76.333c-.024.041-.036.075-.027.075.01 0 .033-.034.053-.075.02-.041.032-.075.027-.075a.324.324 0 00-.052.075m9.525.15c.02.178.01.332-.021.332-.06 0-.1-.437-.046-.502.04-.048.043-.041.067.17m-5.71.117a.12.12 0 00-.059.057c-.013.034-.011.035.024.004a.58.58 0 01.081-.057c.05-.027.02-.03-.045-.004m-2.21.05c-.05.053-.059.09-.027.11.01.007.015-.006.01-.028-.008-.026.009-.056.047-.086.032-.025.049-.045.037-.045-.01 0-.041.022-.067.05m3.65.047a.33.33 0 00-.011.102c.002.057.005.052.018-.028.017-.103.014-.131-.008-.074m-3.652.11c0 .04.051.066.096.048.042-.017.042-.017-.001-.018a.119.119 0 01-.07-.028c-.016-.016-.025-.017-.025-.002m-1.66.2c.019.035.039.064.044.064.006 0-.004-.03-.022-.065s-.038-.064-.044-.064c-.006 0 .004.03.022.064m2.689.11c-.002.065-.013.083-.071.112-.057.028-.061.034-.024.035.09 0 .142-.066.118-.15l-.021-.075-.002.078m12.38-.033c.035.091-.016.173-.079.127-.033-.024-.033-.032-.003-.093.038-.075.063-.085.082-.034m-10.75.127c0 .047.005.064.01.037a.235.235 0 000-.086c-.006-.02-.01.002-.01.049m-2.568.23c-.093.065-.113.117-.026.065.074-.043.144-.113.114-.113-.01 0-.05.021-.088.048m-.246.225c-.042.048-.087.135-.076.146.01.01.09-.096.108-.146.008-.02.011-.038.007-.038a.173.173 0 00-.039.038m1.048.52c-.044.047-.067.084-.051.084.032 0 .082-.05.119-.123.032-.063.027-.06-.068.04m2.007-.061a.32.32 0 00.086.042l.086.027c.023.009.011-.004-.027-.029-.086-.055-.215-.091-.145-.04m.676.26c-.02.024-.015.03.027.027.032-.002.048-.014.042-.03-.014-.035-.038-.034-.069.003m2.734 2.705c-.14.01-.22.091-.24.24-.026.205-.019 8.268.009 8.339.094.242-.24.225 4.408.225h4.068l.076-.079c.113-.117.108.115.108-4.374v-4.185l-.051-.071a.292.292 0 00-.103-.091c-.05-.019-8.04-.023-8.275-.004m8.26.186c.016.017.03.045.03.063 0 .017.01.038.02.045.015.009.022.888.022 2.568 0 2.755.003 2.696-.108 2.725-.023.006-.041.02-.041.03 0 .01-.048.018-.106.018-.058 0-.112.01-.12.022-.006.012-.029.021-.049.021s-.11.038-.201.083l-.166.082.052.049c.085.08.115.168.103.307-.015.17.029.215.192.194.161-.02.173-.035.156-.193-.014-.128-.011-.139.062-.253.059-.092.077-.142.077-.216 0-.145.054-.128.086.028.014.067.034.15.044.185.046.149.023 2.538-.025 2.605l-.044.062-4.082-.007c-4.04-.007-4.207-.01-4.258-.076-.02-.027-.026-.945-.027-4.138v-4.104l.062-.044a.237.237 0 01.092-.044.14.14 0 00.066-.027c.058-.042 8.12-.028 8.162.015m-4.127 2.052c-.065.06-.072.082-.102.304-.027.2-.052.237-.137.204a.417.417 0 00-.124-.022h-.066l.01.123c.004.068.029.167.054.22.025.053.056.137.07.187.018.072.033.091.07.091.094 0 .144.076.144.219 0 .157-.075.193-.134.065a1.855 1.855 0 00-.067-.134.56.56 0 01-.043-.091.056.056 0 00-.05-.038c-.021 0-.064-.024-.096-.053a.26.26 0 00-.072-.054c-.008 0-.032-.02-.054-.045l-.039-.044-.08.043a1.13 1.13 0 01-.168.07c-.25.076-.469.313-.494.536l-.014.12.119.148c.123.153.214.216.378.263.053.015.135.046.182.07.27.136 1.156.153 1.403.028.081-.042.148-.069.293-.118a.686.686 0 00.206-.114c.04-.037.098-.087.128-.11.251-.195.07-.654-.32-.813-.152-.062-.296-.174-.34-.264a.57.57 0 00-.092-.127c-.064-.065-.111-.146-.111-.191 0-.017-.042-.071-.094-.121a.794.794 0 01-.131-.166.48.48 0 00-.05-.085.444.444 0 01-.05-.075c-.047-.083-.063-.086-.129-.026m.102.252c.018.03-.022.072-.052.054-.024-.015-.009-.077.02-.077.01 0 .024.01.032.023m.235.26a.2.2 0 01-.009.092l-.019.064-.032-.075c-.018-.04-.029-.082-.023-.09.016-.027.072-.02.083.01m-.218.152c.078.144-.007.272-.102.154-.05-.064-.051-.086-.007-.178.032-.067.064-.06.11.024m-.28.12c-.016.06-.028.054-.028-.011 0-.03.009-.05.02-.043.01.007.014.031.007.055m.505.164c.023.042-.012.163-.044.152-.05-.017-.09-.12-.061-.154.036-.044.08-.043.105.002m.26.084c0 .035.212.126.35.15.063.01.096.033.14.096a.35.35 0 00.12.108c.152.064.143.326-.014.392a.417.417 0 00-.133.098c-.063.075-.222.135-.452.168a6.828 6.828 0 00-.29.05c-.17.034-.483.033-.642-.002a5.149 5.149 0 00-.235-.045c-.271-.045-.365-.076-.45-.15a3.605 3.605 0 00-.137-.118c-.08-.063-.082-.31-.003-.38a3.89 3.89 0 00.195-.19c.018-.019.078-.04.133-.046a.822.822 0 00.134-.025c.018-.007.054.007.08.03.025.024.056.044.068.044.013 0 .023.012.023.027s.043.07.096.12c.055.054.096.113.096.14 0 .026.033.072.077.11.042.034.109.094.148.132.159.152.31.072.31-.164 0-.119.055-.215.122-.215.054 0 .157-.132.157-.201 0-.172.101-.294.106-.13m-.493.156c.014.027.013.047-.003.064-.034.034-.08-.008-.066-.061.014-.053.041-.054.069-.003m2.058 1.672a.289.289 0 00-.054.144.934.934 0 01-.091.32c-.022.035-.023.06-.004.107.107.273.106.454-.005.573-.086.092-.2-.099-.178-.3.014-.13-.025-.222-.094-.222-.085 0-.255.34-.208.414a.418.418 0 01.043.114c.032.153.178.22.343.157.039-.014.07-.014.098.001.176.094.4-.009.372-.17a5.989 5.989 0 01-.019-.537c0-.373-.007-.45-.038-.514-.055-.11-.112-.14-.165-.087m-6.237.237c-.026.03-.037.08-.037.17v.128l.115.074c.063.04.136.103.162.139.025.036.077.08.115.096.265.117.268.118.292.193.046.137.248.147.28.013.02-.087 0-.14-.09-.238a10.716 10.716 0 01-.125-.137.57.57 0 00-.134-.093.282.282 0 01-.13-.123.286.286 0 00-.103-.11.564.564 0 01-.12-.096c-.067-.072-.17-.08-.225-.016m3.084.19l-.07.063.004.264c.005.38.063.575.172.575a.954.954 0 00.216-.098c.004-.003-.017-.043-.048-.088-.067-.1-.075-.275-.02-.493l.036-.142-.078-.071c-.096-.088-.123-.089-.212-.01m-.68.087c0 .011-.036.027-.08.034-.227.038-.512.168-.531.243l-.015.056-.024-.054c-.03-.065-.216-.256-.25-.256-.096 0-.192.207-.192.415 0 .057-.014.074-.096.117-.053.028-.097.065-.097.08 0 .017-.01.03-.021.03-.056 0-.012.066.072.108.086.043.113.046.305.031.117-.009.336-.019.488-.023.327-.008.398-.037.357-.144-.05-.131-.018-.255.099-.375a.125.125 0 00.028-.075c0-.026.01-.061.02-.079.017-.024.022-.015.022.038 0 .04.02.11.044.158.036.069.044.12.04.25-.008.236.081.349.2.252.088-.073.102-.125.102-.377 0-.295-.015-.315-.257-.34-.102-.011-.119-.02-.125-.061-.007-.047-.09-.073-.09-.028m2.634-.001c-.018.01-.117.035-.22.056-.293.06-.344.128-.272.36.015.045.007.086-.032.176-.054.122-.053.126.05.17.064.028.343.004.403-.033.042-.026.042-.028-.008-.13-.052-.108-.039-.19.03-.19.015 0 .027-.009.027-.02 0-.025.058-.045.094-.032.058.023.078.108.054.237-.025.133.003.18.126.214.062.016.154-.064.154-.132 0-.026.025-.083.054-.126.065-.095.065-.1.01-.147a.208.208 0 01-.056-.101c-.017-.083-.106-.171-.173-.171-.032 0-.083-.03-.128-.075a1.096 1.096 0 00-.078-.075.499.499 0 00-.035.019m-.985.064c-.092.026-.15.14-.15.294v.135l-.143.07c-.248.123-.264.132-.264.148 0 .01.037.023.08.03.045.007.12.027.167.044.1.036.449.042.488.008a1.04 1.04 0 01.066-.05c.037-.025.039-.038.016-.126a1.25 1.25 0 01-.024-.246c0-.11-.01-.16-.038-.193l-.075-.088c-.04-.048-.042-.049-.123-.026m2.922.03a.72.72 0 01-.225.079c-.061 0-.17.197-.17.31-.001.105.05.182.144.218.052.02.117.055.146.077.07.055.184.053.265-.004.062-.045.088-.108.044-.108a.022.022 0 01-.022-.022c0-.012-.034-.052-.075-.088-.115-.1-.079-.148.16-.214a.627.627 0 00.157-.067l.06-.041-.12-.084c-.128-.09-.271-.112-.364-.057m-6.384.147c-.017.017-.035.017-.063 0-.034-.02-.032-.023.024-.023.046 0 .056.006.04.023m-.538.411c-.063.029-.06.096.004.112.062.016.228-.014.234-.043.007-.036-.185-.092-.238-.069" id="svg_43"/><path fill="#fcfc9c" d="M23.19 4.068c-.008.021-.003.03.013.026.032-.011.05-.06.021-.06-.011 0-.026.016-.034.034m-2.103 1.775c-.014.03-.016.048-.006.042.029-.018.067-.095.047-.095-.009 0-.028.024-.041.053m6.374 1.283c.001.091.007.16.013.154.014-.014.01-.295-.004-.309a.516.516 0 00-.009.155m-6.355.254c-.046.021-.066.058-.03.058.026 0 .101-.06.089-.07-.006-.006-.032 0-.059.012m2.785 1.032c0 .094.004.13.009.08.004-.05.004-.128 0-.171-.005-.044-.009-.003-.009.091m-.001 1.113c0 .06.004.08.01.048a.384.384 0 00-.001-.107c-.005-.026-.01 0-.009.06m-13.948 2.73c-.276.033-.251-.4-.251 4.412v4.127l.05.113a.526.526 0 00.086.143c.048.04 8.385.037 8.448-.003a.393.393 0 00.09-.122l.05-.097v-4.175c0-4.59.007-4.31-.128-4.375-.068-.033-8.087-.055-8.345-.024m8.194.17c.163.003.15-.36.155 4.214.005 3.647.002 4.101-.027 4.158l-.033.064h-3.794c-5.106.002-4.536.008-4.58-.046-.036-.042-.038-.271-.038-4.141 0-4.668-.018-4.24.182-4.252.087-.006 7.84-.003 8.135.003m1.327 2.688c0 1.271.002 1.788.006 1.149.003-.64.003-1.68 0-2.312-.004-.632-.006-.109-.006 1.163m-.003 3.254c0 .117.004.163.008.1a1.75 1.75 0 000-.213c-.004-.056-.008-.005-.008.113m.002 1.252c0 .512.003.722.007.466.003-.256.003-.675 0-.932-.004-.256-.007-.046-.007.466" id="svg_42"/><path fill="#c4dcec" d="M12.998 2.493c-2.25.014-2.213.012-2.376.126a1.264 1.264 0 01-.21.108.514.514 0 00-.17.108.892.892 0 01-.131.12.503.503 0 00-.148.2.924.924 0 01-.116.193c-.162.17-.156.043-.156 3.633 0 3.543-.008 3.366.142 3.54.051.061.093.129.093.151 0 .023.01.041.021.041.012 0 .022.02.022.043 0 .024.01.043.021.043.012 0 .022.012.022.027s.031.04.07.058c.08.035.122.073.174.154.038.059.27.168.357.168.024 0 .073.028.107.063.111.11.056.11 3.402.103 3.427-.006 3.22.002 3.314-.128a.11.11 0 01.08-.038c.1 0 .323-.105.355-.167.036-.07.073-.103.162-.142.048-.022.084-.064.127-.15a.967.967 0 01.135-.2c.136-.144.13.037.13-3.632.001-3.748.008-3.592-.16-3.69a.224.224 0 01-.096-.13c-.032-.097-.11-.174-.175-.174-.022 0-.04-.013-.04-.029 0-.05-.115-.146-.215-.179a.556.556 0 01-.17-.101c-.143-.133-.545-.143-4.57-.119m3.21.11c.057.015.256.018.59.008l.503-.016.071.067c.04.036.08.066.091.066.01 0 .036.009.057.019.02.01.088.034.15.054.069.022.144.068.197.12a.503.503 0 00.125.095c.022.007.068.063.101.125.033.061.071.123.084.136.217.234.202-.02.203 3.63.001 3.44.005 3.34-.115 3.495a.983.983 0 00-.1.163.996.996 0 01-.308.352 2.418 2.418 0 00-.138.109.576.576 0 01-.12.082c-.067.026-.268.08-.385.104-.07.015-1.153.025-3.125.03-3.076.009-3.098.009-3.34-.069-.047-.015-.127-.04-.177-.054a.405.405 0 01-.14-.073 1.166 1.166 0 00-.121-.098c-.133-.09-.3-.284-.365-.423a.44.44 0 00-.094-.146c-.112-.043-.12-.174-.12-2.037 0-3.145.039-4.686.122-4.769.016-.015.028-.033.028-.04 0-.007.017-.032.038-.056.046-.054.121-.178.17-.28a.301.301 0 01.097-.115c.034-.02.1-.074.15-.12a.39.39 0 01.11-.084c.013 0 .11-.042.216-.093.296-.144.32-.149.793-.155.922-.013 3.548-.054 3.821-.06.402-.009.83.007.931.033m.301.2c-.022.042-.035.08-.028.087.074.075.66.107.782.044.193-.1-.077-.204-.53-.205h-.183l-.04.074" id="svg_41"/></g></g></svg>