<svg xmlns="http://www.w3.org/2000/svg" role="img" viewBox="0 0 38 24" width="38" height="24" aria-labelledby="pi-breb"><title id="pi-breb">Bre-B</title><path fill="#000" opacity=".07" d="M35 0H3C1.3 0 0 1.3 0 3v18c0 1.7 1.4 3 3 3h32c1.7 0 3-1.3 3-3V3c0-1.7-1.4-3-3-3z"/><path fill="#fff" d="M35 1c1.1 0 2 .9 2 2v18c0 1.1-.9 2-2 2H3c-1.1 0-2-.9-2-2V3c0-1.1.9-2 2-2h32"/><path id="pi-breb-logo-1" d="M10.6759 12.0185C10.6759 12.0185 11.8171 11.669 11.6909 10.1812C11.5741 8.79326 10.2952 8.15637 8.91841 8.15637H4.98271C4.82495 8.15637 4.71662 8.3082 4.77026 8.45087L6.14491 11.9838L4.7629 15.8205C4.71136 15.9621 4.82074 16.1109 4.9764 16.1109H9.29915C11.2207 16.1109 12.0358 14.776 12.0358 13.8803C12.0358 12.3171 10.6759 12.0185 10.6759 12.0185ZM6.736 9.53817H8.84058C9.47479 9.53817 10.0354 9.94782 10.0354 10.5715C10.0354 11.1268 9.46427 11.5273 8.89106 11.5273H7.51641C7.46908 11.5273 7.42701 11.4988 7.41123 11.456L6.63082 9.68491C6.60348 9.61358 6.65817 9.53817 6.736 9.53817ZM9.24656 14.7373H6.736C6.65817 14.7373 6.60348 14.6619 6.63082 14.5905L7.30606 12.8195C7.32183 12.7767 7.3639 12.7481 7.41123 12.7481H9.29704C9.87025 12.7481 10.4414 13.1486 10.4414 13.704C10.4414 14.3286 9.88182 14.7373 9.24656 14.7373Z" fill="#32005F"/><path id="pi-breb-logo-2" d="M31.8901 12.0185C31.8901 12.0185 32.9639 11.673 32.905 10.1812C32.8482 8.75556 31.5093 8.15535 30.1315 8.15535H26.1958C26.0391 8.15535 25.9297 8.30719 25.9844 8.44985L27.3591 11.9828L25.9771 15.8195C25.9255 15.9611 26.0349 16.1099 26.1906 16.1099H30.5133C32.4349 16.1099 33.25 14.775 33.25 13.8792C33.25 12.3161 31.8901 12.0175 31.8901 12.0175V12.0185ZM27.9491 9.53817H30.0537C30.6879 9.53817 31.2485 9.94782 31.2485 10.5715C31.2485 11.1268 30.6774 11.5273 30.1042 11.5273H28.7295C28.6822 11.5273 28.6401 11.4988 28.6243 11.456L27.8439 9.68491C27.8166 9.61358 27.8713 9.53817 27.9491 9.53817ZM30.4597 14.7373H27.9491C27.8713 14.7373 27.8166 14.6619 27.8439 14.5905L28.5192 12.8195C28.536 12.7767 28.577 12.7481 28.6243 12.7481H30.5102C31.0834 12.7481 31.6545 13.1486 31.6545 13.704C31.6545 14.3286 31.0949 14.7373 30.4597 14.7373Z" fill="#32005F"/><path id="pi-breb-logo-3" d="M17.766 9.85305C17.868 9.77968 17.8154 9.62275 17.6881 9.62275H15.878C14.7527 9.62275 14.3593 10.9139 14.3593 10.9139V9.62275H12.7427V16.1119H14.3593V12.3436C14.3593 11.5813 15.0145 11.3592 15.5068 11.3592H16.6753C16.9046 10.5898 17.4115 10.1088 17.766 9.85407V9.85305Z" fill="#32005F"/><path id="pi-breb-logo-4" d="M20.3133 9.60135C18.3465 9.60135 17.0907 10.9128 17.0907 12.9214C17.0907 14.7444 18.3791 16.221 20.144 16.221C21.7332 16.221 22.8376 15.4638 23.2088 14.5538L21.7627 14.0749C21.4913 14.5131 20.9454 14.8432 20.2103 14.8432C19.4751 14.8432 18.8672 14.297 18.6431 13.5318C18.6147 13.4339 18.6926 13.3361 18.7988 13.3361H23.3413V12.1826C23.3413 11.1452 22.358 9.60033 20.3154 9.60033L20.3133 9.60135ZM21.73 12.1836H18.8324C18.7231 12.1836 18.6442 12.0796 18.6789 11.9798C18.9292 11.2624 19.5087 10.8293 20.3007 10.8293C21.1873 10.8293 21.7069 11.4213 21.8826 11.9808C21.9141 12.0817 21.8384 12.1846 21.729 12.1846L21.73 12.1836Z" fill="#32005F"/><path id="pi-breb-logo-5" d="M26.5324 12.0012C26.5324 11.6425 26.2316 11.351 25.8614 11.351H24.6981C24.3279 11.351 24.0271 11.6425 24.0271 12.0012C24.0271 12.3599 24.3279 12.6513 24.6981 12.6513H25.8614C26.2316 12.6513 26.5324 12.3599 26.5324 12.0012Z" fill="#32005F"/></svg>

