<svg xmlns="http://www.w3.org/2000/svg" width="38" height="24" fill="none" aria-labelledby="pi-bri" role="img" viewBox="0 0 38 24"><title id="pi-bri">BRI</title><path fill="#fff" d="M0 0h38v24H0z"/><path fill="#034EA2" fill-rule="evenodd" d="M4.12 9h4.972c.616 0 1.12.46 1.12 1.023v4.63c0 .563-.504 1.023-1.12 1.023H4.12c-.616 0-1.12-.46-1.12-1.023v-4.63C3 9.46 3.504 9 4.12 9m.12.475h.882c.227.094.425.247.572.443.162.22.232.463.183.667l-.008.029c-.122.399-.536.765-.96 1.138q-.181.16-.364.33l-.25.233.252.231q.18.168.362.326c.422.373.837.74.959 1.138l.008.029c.049.204-.02.448-.183.666a1.4 1.4 0 0 1-.719.496H4.24a.45.45 0 0 1-.447-.448v-4.83a.45.45 0 0 1 .447-.448m1.996 0h.89c.227.094.425.247.572.443.162.22.233.463.183.667l-.008.029c-.122.399-.537.765-.959 1.138q-.183.16-.365.33l-.244.228.242.23 2.693 2.57a.44.44 0 0 1-.268.09h-2.78q.055-.06.102-.125c.27-.365.38-.796.288-1.18l-.017-.062c-.176-.573-.66-1.002-1.155-1.438l-.094-.084.094-.083c.494-.436.979-.864 1.154-1.438l.017-.063c.093-.383-.018-.815-.287-1.179l-.057-.073zm2.005 0h.73a.45.45 0 0 1 .447.449v4.402l-2.104-2.009.101-.089c.494-.436.979-.864 1.154-1.438l.017-.063c.093-.383-.018-.815-.287-1.179zm13.799 1.34h.934v1.339l1.166-1.34h1.11l-1.275 1.427 1.337 1.65h-1.184l-1.154-1.439v1.44h-.934zm-3.707 0h1.29l1.115 2.273v-2.273h.824v3.077H20.27l-1.111-2.308v2.308h-.825v-3.077zm-2.732 0h1.194l1.39 3.077H17.07l-.236-.67H15.45l-.23.67h-1.042zm.964 1.874-.42-1.241-.466 1.241zm-5.272-1.874h1.516l.263.013q.189.009.372.06c.165.042.321.117.457.22q.21.157.238.48v.015q0 .008.004.015v.03q0 .255-.202.436a.9.9 0 0 1-.532.208c.199.05.387.133.556.249q.248.17.248.518 0 .45-.354.641-.354.192-1.049.192h-1.517zm.963 2.473h.516q.21.005.31-.07a.3.3 0 0 0 .128-.196.3.3 0 0 0-.002-.085.37.37 0 0 0-.143-.208.4.4 0 0 0-.256-.07l-.554-.004v.633zm0-1.27h.478q.219.003.315-.074.094-.076.094-.225a.27.27 0 0 0-.108-.211.46.46 0 0 0-.3-.09l-.48-.004v.605-.002zm21.774-1.203H35v3.077h-.97zm-3.517 0h1.528q.023.004.045.004h.045c.303.002.603.058.886.166q.402.157.402.637 0 .375-.241.546c-.172.12-.37.196-.578.223q.507.018.627.306c.165.395.31.81.468 1.195h-1.041c-.137-.278-.26-.668-.37-.965q-.077-.204-.356-.204l-.445-.004v1.173h-.97zm.97.633v.671h.374l.044.004h.046c.11-.005.22-.03.321-.073q.147-.063.146-.263a.27.27 0 0 0-.151-.255.8.8 0 0 0-.374-.081l-.407-.004zm-4.358-.633h1.528l.266.013q.189.009.373.06c.167.041.324.116.462.22q.21.158.24.48v.015q0 .008.004.015v.03q0 .255-.203.436-.203.18-.545.205a1.7 1.7 0 0 1 .568.252q.252.17.251.518 0 .45-.357.641-.357.192-1.058.192h-1.529zm.97 2.473h.52q.214.005.313-.07a.3.3 0 0 0 .13-.196.3.3 0 0 0-.003-.085.37.37 0 0 0-.144-.208.42.42 0 0 0-.258-.07l-.558-.004zm0-1.27h.483q.222.003.316-.074.095-.076.095-.225a.27.27 0 0 0-.109-.212.47.47 0 0 0-.303-.09l-.483-.004v.606-.002z" clip-rule="evenodd"/></svg>