<svg xmlns="http://www.w3.org/2000/svg" fill="none" viewBox="0 0 38 24" height="24" width="38" aria-labelledby="pi-bri_direct_debit" role="img"><title id="pi-bri_direct_debit">BRI Direct Debit</title><path fill="#fff" d="M0 0h38v24H0z"/><path fill="#00529C" d="M3.8 8.114h3.503c1.42 0 2.478.67 2.478 2.083 0 1.038-.49 1.614-1.34 1.915v.027c1.012.22 1.54.81 1.54 1.808 0 1.962-1.6 2.378-2.966 2.378H3.8V8.114Zm2.03 3.248h.569c.663 0 1.352-.174 1.352-.87 0-.75-.656-.825-1.332-.825h-.59v1.695h.001Zm0 3.409h.602c.743 0 1.514-.12 1.514-.951 0-.898-.797-.978-1.494-.978H5.83v1.929Zm5.083-6.657h3.623c1.353 0 2.451.656 2.451 2.07 0 1.09-.482 1.82-1.46 2.069v.026c.656.188.697.81 1.078 1.815l.744 2.237h-2.117l-.435-1.48c-.415-1.413-.676-1.768-1.427-1.768h-.428v3.248h-2.03V8.114h.001Zm2.022 3.409h.536c.656 0 1.48-.027 1.48-.951 0-.764-.71-.905-1.48-.905h-.536v1.856Zm5.237-3.409h2.03v8.21h-2.03v-8.21Z"/><path fill="#F37021" d="M22.834 11.918c-.322 0-.61-.134-.864-.409a1.445 1.445 0 0 1-.382-1.018c0-.408.12-.736.368-.998.248-.26.536-.388.871-.388.335 0 .603.114.81.348v-1.34h.764v3.765h-.763v-.362c-.215.268-.483.402-.804.402Zm-.482-1.4c0 .221.067.402.2.542a.62.62 0 0 0 .71.155.57.57 0 0 0 .201-.155.808.808 0 0 0 .188-.542.822.822 0 0 0-.188-.556.59.59 0 0 0-.918 0 .826.826 0 0 0-.193.556Zm2.625-1.721a.43.43 0 0 1-.127-.315.422.422 0 0 1 .127-.315.43.43 0 0 1 .315-.127.42.42 0 0 1 .315.127.43.43 0 0 1 .127.315.42.42 0 0 1-.127.315.43.43 0 0 1-.315.127.43.43 0 0 1-.315-.127Zm.697 3.08h-.764V9.146h.764v2.733-.002Zm1.956-2.062c-.229 0-.396.08-.51.24-.114.162-.167.376-.167.637v1.186h-.764V9.145h.764v.362c.1-.114.22-.208.368-.282a.92.92 0 0 1 .449-.12l.007.717h-.148v-.007h.001Zm2.779 1.667a1.54 1.54 0 0 1-1.085.436c-.416 0-.757-.127-1.025-.382-.268-.255-.409-.596-.409-1.025 0-.428.141-.77.416-1.024.274-.255.602-.382.977-.382s.697.114.958.341c.261.228.395.536.395.931v.402h-1.989a.57.57 0 0 0 .235.369.76.76 0 0 0 .448.14.877.877 0 0 0 .663-.268l.416.462Zm-.73-1.62a.589.589 0 0 0-.382-.134.73.73 0 0 0-.415.134.524.524 0 0 0-.221.368h1.198a.57.57 0 0 0-.18-.368Zm2.705 1.379c.255 0 .483-.127.684-.381l.448.509c-.355.368-.73.549-1.145.549-.409 0-.757-.127-1.038-.389-.281-.26-.422-.596-.422-1.018 0-.415.14-.756.429-1.018.276-.258.64-.4 1.018-.395.194 0 .395.04.596.12.2.081.375.202.529.362l-.395.516a.815.815 0 0 0-.322-.241.873.873 0 0 0-.375-.087.76.76 0 0 0-.516.194c-.14.127-.214.308-.214.543 0 .234.074.415.214.542.14.126.322.195.51.194h-.001Zm2.499-1.547v1.22c0 .106.026.187.08.247a.251.251 0 0 0 .194.087c.14 0 .261-.067.362-.194l.281.536c-.234.214-.489.321-.75.321a.92.92 0 0 1-.663-.261c-.181-.174-.275-.409-.275-.703V9.694h-.321v-.549h.321v-.817h.764v.817h.663v.55h-.657l.001-.001Zm-12.049 6.711c-.322 0-.61-.134-.864-.408a1.445 1.445 0 0 1-.382-1.018c0-.409.12-.737.368-.998.248-.262.536-.389.871-.389.335 0 .603.114.81.348v-1.339h.764v3.764h-.763v-.362c-.215.268-.483.402-.804.402Zm-.482-1.4a.76.76 0 0 0 .2.543.623.623 0 0 0 .71.155.57.57 0 0 0 .201-.155.808.808 0 0 0 .188-.543.822.822 0 0 0-.188-.556.588.588 0 0 0-.918 0 .826.826 0 0 0-.193.556Zm5.331.965a1.54 1.54 0 0 1-1.085.435c-.415 0-.757-.127-1.025-.382-.268-.254-.408-.596-.408-1.024 0-.429.14-.77.415-1.025.275-.255.603-.382.978-.382s.696.114.957.342c.262.228.395.536.395.93v.41h-1.989a.57.57 0 0 0 .235.368.76.76 0 0 0 .449.14.877.877 0 0 0 .663-.268l.415.456Zm-.73-1.621a.59.59 0 0 0-.382-.134.73.73 0 0 0-.415.134.524.524 0 0 0-.221.368h1.199a.514.514 0 0 0-.181-.368Zm3.282-.764c.334 0 .622.128.87.389s.369.59.369.998c0 .408-.128.743-.382 1.018-.255.274-.543.408-.864.408-.322 0-.59-.134-.804-.401v.361h-.763v-3.757h.763v1.34c.208-.235.476-.356.81-.356h.001ZM29.41 15c0 .22.06.401.187.542a.57.57 0 0 0 .449.208.616.616 0 0 0 .462-.208.752.752 0 0 0 .201-.542.838.838 0 0 0-.194-.556.59.59 0 0 0-.918-.001.833.833 0 0 0-.187.557Zm2.793-1.716a.43.43 0 0 1-.127-.315.42.42 0 0 1 .127-.314.43.43 0 0 1 .315-.128c.128 0 .228.04.315.128a.43.43 0 0 1 .127.314.421.421 0 0 1-.127.315.429.429 0 0 1-.315.127.404.404 0 0 1-.315-.127Zm.697 3.08h-.763v-2.732h.763v2.733-.001Zm1.936-2.183v1.226c0 .107.026.188.08.248a.251.251 0 0 0 .194.087c.14 0 .261-.067.362-.194l.281.536c-.234.214-.489.321-.75.321a.92.92 0 0 1-.663-.261c-.18-.174-.275-.409-.275-.703v-1.26h-.321v-.549h.321v-.817h.764v.817h.663v.55h-.656v-.001Z"/></svg>