<svg xmlns="http://www.w3.org/2000/svg" width="38" height="24" fill="none" aria-labelledby="pi-bri_direct_debit" role="img" viewBox="0 0 38 24"><title id="pi-bri_direct_debit">BRI Direct Debit</title><path fill="#fff" d="M0 0h38v24H0z"/><path fill="#00529C" d="M3.8 8.114h3.503c1.42 0 2.478.67 2.478 2.083 0 1.038-.49 1.614-1.34 1.915v.027c1.012.22 1.54.81 1.54 1.808 0 1.962-1.6 2.378-2.966 2.378H3.8zm2.03 3.248h.569c.663 0 1.352-.174 1.352-.87 0-.75-.656-.825-1.332-.825h-.59zm0 3.409h.602c.743 0 1.514-.12 1.514-.951 0-.898-.797-.978-1.494-.978H5.83zm5.083-6.657h3.623c1.353 0 2.451.656 2.451 2.07 0 1.09-.482 1.82-1.46 2.069v.026c.656.188.697.81 1.078 1.815l.744 2.237h-2.117l-.435-1.48c-.415-1.413-.676-1.768-1.427-1.768h-.428v3.248h-2.03V8.114zm2.022 3.409h.536c.656 0 1.48-.027 1.48-.951 0-.764-.71-.905-1.48-.905h-.536zm5.237-3.409h2.03v8.21h-2.03z"/><path fill="#F37021" d="M22.834 11.918q-.483.002-.864-.409a1.45 1.45 0 0 1-.382-1.018c0-.408.12-.736.368-.998q.37-.389.871-.388.501-.001.81.348v-1.34h.764v3.765h-.763v-.362q-.322.402-.804.402m-.482-1.4q0 .332.2.542a.62.62 0 0 0 .71.155.6.6 0 0 0 .201-.155.8.8 0 0 0 .188-.542.82.82 0 0 0-.188-.556.59.59 0 0 0-.918 0 .83.83 0 0 0-.193.556m2.625-1.721a.43.43 0 0 1-.127-.315.42.42 0 0 1 .127-.315.43.43 0 0 1 .315-.127.42.42 0 0 1 .315.127.43.43 0 0 1 .127.315.42.42 0 0 1-.127.315.43.43 0 0 1-.315.127.43.43 0 0 1-.315-.127m.697 3.08h-.764V9.146h.764v2.733zm1.956-2.062c-.229 0-.396.08-.51.24q-.169.244-.167.637v1.186h-.764V9.145h.764v.362c.1-.114.22-.208.368-.282a.9.9 0 0 1 .449-.12l.007.717h-.148v-.007zm2.779 1.667a1.54 1.54 0 0 1-1.085.436q-.623 0-1.025-.382c-.268-.255-.409-.596-.409-1.025q.002-.643.416-1.024.413-.382.977-.382c.564 0 .697.114.958.341q.393.34.395.931v.402h-1.989a.57.57 0 0 0 .235.369.76.76 0 0 0 .448.14.88.88 0 0 0 .663-.268zm-.73-1.62a.6.6 0 0 0-.382-.134.73.73 0 0 0-.415.134.52.52 0 0 0-.221.368h1.198a.57.57 0 0 0-.18-.368m2.705 1.379q.383 0 .684-.381l.448.509c-.355.368-.73.549-1.145.549-.409 0-.757-.127-1.038-.389-.281-.26-.422-.596-.422-1.018 0-.415.14-.756.429-1.018.276-.258.64-.4 1.018-.395q.293 0 .596.12.299.122.529.362l-.395.516a.8.8 0 0 0-.322-.241.9.9 0 0 0-.375-.087.76.76 0 0 0-.516.194q-.212.19-.214.543c0 .234.074.415.214.542.14.126.322.195.51.194zm2.499-1.547v1.22q0 .158.08.247a.25.25 0 0 0 .194.087q.21-.002.362-.194l.281.536c-.234.214-.489.321-.75.321a.92.92 0 0 1-.663-.261q-.273-.262-.275-.703V9.694h-.321v-.549h.321v-.817h.764v.817h.663v.55h-.657zm-12.049 6.711q-.483.001-.864-.408a1.45 1.45 0 0 1-.382-1.018c0-.409.12-.737.368-.998q.37-.391.871-.389.501-.002.81.348v-1.339h.764v3.764h-.763v-.362q-.323.402-.804.402m-.482-1.4a.76.76 0 0 0 .2.543.62.62 0 0 0 .71.155.6.6 0 0 0 .201-.155.8.8 0 0 0 .188-.543.82.82 0 0 0-.188-.556.588.588 0 0 0-.918 0 .83.83 0 0 0-.193.556m5.331.965a1.54 1.54 0 0 1-1.085.435q-.623 0-1.025-.382c-.268-.254-.408-.596-.408-1.024q.001-.643.415-1.025t.978-.382c.564 0 .696.114.957.342q.394.34.395.93v.41h-1.989a.57.57 0 0 0 .235.368.76.76 0 0 0 .449.14.88.88 0 0 0 .663-.268zm-.73-1.621a.6.6 0 0 0-.382-.134.73.73 0 0 0-.415.134.52.52 0 0 0-.221.368h1.199a.51.51 0 0 0-.181-.368m3.282-.764q.5-.001.87.389c.37.39.369.59.369.998s-.128.743-.382 1.018q-.382.41-.864.408-.483 0-.804-.401v.361h-.763v-3.757h.763v1.34q.31-.354.81-.356zM29.41 15q-.002.33.187.542a.57.57 0 0 0 .449.208.62.62 0 0 0 .462-.208.75.75 0 0 0 .201-.542.84.84 0 0 0-.194-.556.59.59 0 0 0-.918-.001.83.83 0 0 0-.187.557m2.793-1.716a.43.43 0 0 1-.127-.315.42.42 0 0 1 .127-.314.43.43 0 0 1 .315-.128c.128 0 .228.04.315.128a.43.43 0 0 1 .127.314.42.42 0 0 1-.127.315.43.43 0 0 1-.315.127.4.4 0 0 1-.315-.127m.697 3.08h-.763v-2.732h.763v2.733zm1.936-2.183v1.226q0 .16.08.248a.25.25 0 0 0 .194.087q.21-.002.362-.194l.281.536c-.234.214-.489.321-.75.321a.92.92 0 0 1-.663-.261c-.18-.174-.275-.409-.275-.703v-1.26h-.321v-.549h.321v-.817h.764v.817h.663v.55h-.656z"/></svg>