<svg xmlns="http://www.w3.org/2000/svg" width="38" height="24" fill="none" aria-labelledby="pi-brimo" role="img" viewBox="0 0 38 24"><title id="pi-brimo">BRI Direct Debit</title><path fill="#fff" d="M0 0h38v24H0z"/><path fill="#00539A" d="M24.231 13.869c1.222-.153 2.198.765 2.328 1.819a2.1 2.1 0 0 1-1.821 2.348 2.104 2.104 0 0 1-2.347-1.828c-.148-1.252.762-2.203 1.84-2.339m-2.39 1.848.037 2.222-1.124-.008-.003-2.086a.974.974 0 0 0-.99-.875.976.976 0 0 0-.955.872l-.012 2.097-1.123-.007-.01-2.11c-.083-.838-1.131-1.148-1.714-.501-.439.488-.17 1.868-.245 2.611l-1.103-.01c-.043-.548-.033-1.546-.001-2.104.099-1.715 2.22-2.698 3.636-1.309.286-.22.478-.44.97-.577a2.1 2.1 0 0 1 1.32.057c.752.299 1.4 1.139 1.317 1.728m2.376-9.65 1.773.009-.003 6.657-1.787.002.017-6.667zm-12.205.007c.23-.032 1.986-.01 2.371-.01.8 0 1.457-.074 2.09.291.476.273.863.784.799 1.594-.079.99-.747 1.066-1.08 1.293.062.045.344.144.448.2 1.168.637 1.054 2.141.046 2.867-.56.404-1.326.42-2.137.42-.394 0-2.313.026-2.544-.012zm5.876 0c.335-.041.885-.007 1.243-.007.95.002 2.784-.108 3.433.24.612.327.787 1.137.7 1.757a1.4 1.4 0 0 1-.398.83c-.208.22-.768.442-.768.441-.004-.007-.016.01-.023.016.595.245 1.273 2.533 1.528 3.381l-1.727.001c-.234-.55-.434-1.218-.689-1.763-.277-.593-.57-1.086-1.483-.928l-.005 2.692-1.818-.016.007-6.643zm11.545 12.862c.1-.66.031-1.867.031-2.59V5.89c0-.886-.094-1.499-.451-2.18-.544-1.034-1.575-1.948-3.064-2.144-.626-.082-4.292-.034-5.225-.034h-7.835c-.858 0-1.523.11-2.179.453-1.03.54-1.95 1.577-2.143 3.063-.097.741-.035 1.824-.035 2.602v10.457c0 .869.098 1.507.453 2.18.543 1.03 1.575 1.95 3.064 2.144.737.095 1.822.034 2.6.034h10.457c.857 0 1.531-.098 2.18-.45 1.078-.587 1.913-1.542 2.147-3.078z"/><path fill="#FEFEFE" d="m13.808 11.44-.002-1.575c.77 0 1.917-.132 1.912.772-.006.947-1.107.804-1.91.804zm.021-4.178c.768 0 1.684-.16 1.69.72.005.825-1.244.698-1.713.698zm-1.824 5.455c.231.038 2.15.013 2.544.013.81 0 1.576-.017 2.137-.421 1.008-.726 1.122-2.23-.046-2.866-.104-.057-.386-.156-.448-.2.333-.228 1.001-.304 1.08-1.294.064-.81-.323-1.32-.798-1.594-.634-.365-1.292-.291-2.09-.291-.386 0-2.142-.022-2.372.01zm8.898-3.993c-.03.091-1.048.066-1.198.044-.033-.167-.033-1.381.004-1.535.183-.025 1.007-.056 1.105.028.347-.009.676.343.712.688.044.42-.25.78-.623.775m-3.022 3.994 1.818.016.005-2.692c.913-.158 1.206.335 1.483.928.255.545.455 1.212.689 1.763l1.727-.001c-.255-.848-.933-3.136-1.528-3.381.007-.006.019-.023.023-.016 0 0 .56-.221.768-.441.204-.217.345-.445.398-.83.087-.62-.087-1.43-.7-1.757-.649-.348-2.483-.238-3.433-.24-.358 0-.908-.034-1.243.008z"/><path fill="#F06F24" d="M17.662 15.822c.1.176.04 1.747.04 2.085h1.063v-1.826l.027-.216.014-.023a.976.976 0 0 1 .955-.872.974.974 0 0 1 .99.875c.031.051.008-.052.033.072.01.043.009.085.01.13l-.002 1.86h1.067l-.018-2.19c.083-.589-.565-1.43-1.316-1.728a2.1 2.1 0 0 0-1.32-.057c-.493.136-.685.357-.97.577-1.416-1.389-3.538-.406-3.637 1.31-.032.557-.042 1.555.001 2.103l1.103.01c.074-.743-.194-2.123.245-2.61.583-.648 1.63-.338 1.715.5"/><path fill="#FEFEFE" d="m24.2 12.735 1.787-.002.003-6.657-1.773-.008z"/><path fill="#F06F24" d="M24.233 15.001c1.272-.32 1.721 1.574.5 1.9a.97.97 0 0 1-1.202-.672.98.98 0 0 1 .702-1.228m-.002-1.132c-1.078.136-1.988 1.087-1.84 2.339a2.105 2.105 0 0 0 2.347 1.828 2.1 2.1 0 0 0 1.821-2.348c-.13-1.054-1.106-1.972-2.328-1.819"/><path fill="#00539A" d="M24.233 15.001a.98.98 0 0 0-.702 1.228.97.97 0 0 0 1.202.672c1.221-.326.772-2.22-.5-1.9M13.808 11.44c.803 0 1.904.144 1.91-.803.005-.904-1.141-.772-1.912-.772zm7.095-2.716c.373.006.667-.356.623-.775-.036-.345-.365-.697-.712-.688l-1.088-.005-.003 1.488q.302-.002.603.001c.186.002.426-.026.577-.02zm-7.097-.044c.469 0 1.718.127 1.713-.699-.006-.88-.922-.719-1.69-.719z"/><path fill="#B36843" d="m18.806 15.842-.014.023-.027.216v1.826h-1.063c0-.338.06-1.91-.04-2.085l.01 2.11 1.122.007z"/><path fill="#6798C2" d="M20.903 8.724c-.15-.005-.39.023-.577.021-.201-.003-.402 0-.603 0l.003-1.489 1.088.005c-.098-.084-.922-.053-1.105-.028-.037.154-.037 1.368-.004 1.535.15.022 1.167.047 1.198-.044"/><path fill="#B36843" d="m20.75 15.845.004 2.086 1.124.008-.037-2.222.018 2.19h-1.067l.001-1.86c0-.045 0-.087-.009-.13-.025-.124-.002-.02-.033-.072z"/></svg>