<svg width="38" height="24" viewBox="0 0 38 24" fill="none" xmlns="http://www.w3.org/2000/svg" role="img" aria-labelledby="pi-broadnet"><title id="pi-broadnet">Broadnet</title><g clip-path="url(#pi-broadnet-clip0)"><path d="M35 .5H3A2.5 2.5 0 00.5 3v18A2.5 2.5 0 003 23.5h32a2.5 2.5 0 002.5-2.5V3A2.5 2.5 0 0035 .5z" stroke="#000" stroke-opacity=".07"/><g clip-path="url(#pi-broadnet-clip1)"><path d="M1 1h36v22H1V1z" fill="#FDFEFD"/><path d="M6.187 8.631h.26l.45.046.38.092.45.183.355.183.307.23.214.183.165.183.237.298.237.413.142.343.119.436.047.32v.482l-.071.435-.142.459-.213.435-.19.275-.213.252-.332.321-.355.252-.402.206-.569.184-.355.068-.426.023-.521-.046-.545-.137-.26-.115-.024-.045.047-.092-.426-.23-.237-.183-.308-.252-.166-.183-.047-.115h-.19l-.237-.412-.142-.32-.142-.574-.023-.206v-.435l.07-.459.143-.481.142-.32.237-.368.19-.229.212-.229.308-.252.332-.206.379-.184.426-.137.403-.069.284-.023z" fill="#053E7F"/><path d="M6.613 9.64l.071.068.095.367.071.412.024.23v.825l-.024.252-.047.137v.16l.592.115.142.069.07.114.072.459v.344l-.071.366-.19.367-.213.23-.237.16-.284.114-.26.069-.38.046h-.52l-.545-.046-.426-.23-.237-.183-.308-.252-.166-.183-.047-.115h-.19l-.047-.068-.024-.138.024-.687.07-.413.096-.32.094-.23.095-.206.142-.252.213-.275.26-.275.261-.207.261-.183.355-.206.403-.183.71-.23.095-.022z" fill="#EE1A27"/><path d="M10.166 9.433h2.131l.45.07.308.114.213.16.143.183.094.207.048.229v.275l-.071.344-.095.137-.119.092-.26.091-.19.023v.046l.308.046.237.115.19.206.07.183.024.183v.642l-.047.252-.118.23-.166.16-.26.114-.593.115-.355.023h-1.942l-.024-4.217.024-.023zM24.045 9.433h1.279v1.055L25.3 13.65l-.047.023h-1.16l-.072-.046.047-.206-.45.206-.165.046h-.45l-.308-.092-.142-.091-.143-.16-.07-.184V10.67l.07-.206.166-.16.213-.092.166-.023h.38l.45.068.283.138-.023-.046v-.917z" fill="#EF1B27"/><path d="M17.508 10.167l.45.023.379.091.237.092.213.16.142.184.095.229.023.229v1.49l-.07.32-.143.275-.19.16-.284.138-.378.092-.285.023h-.592l-.308-.046-.236-.092-.237-.183-.143-.206-.07-.252-.024-.252v-1.49l.07-.32.12-.207.212-.206.332-.16.284-.07.403-.022zM20.09 10.236h1.136l.38.068.236.115.19.206.094.298.024.252v2.498l-.071.023h-.805l-.38-.023-.023-.069.024-.16-.095.023-.166.137-.166.069-.236.023h-.214l-.331-.046-.213-.114-.142-.184-.072-.229-.023-.183v-.482l.047-.252.095-.137.213-.138.332-.137.758-.252.118-.115.024-.069v-.366l-.071-.184-.166-.022-.071.022-.048.207v.412h-1.207l-.024-.023v-.206l.07-.412.096-.184.165-.16.237-.138.284-.069z" fill="#EF1C27"/><path d="M6.353 8.883l.379.023.426.138.355.183.284.183.237.184.332.32.213.253.213.275.19.366.118.252.142.482.071.573-.047.343-.119.23-.19.229-.165-.023-.047-.023v-.069l-.142-.046-.214-.137-.118-.046-.024-.069-.165-.046-.071-.068-.214.068-.118.023.047.482-.023.32-.048.23-.118.274-.071.07.047-.138.095-.252.047-.275v-.344l-.07-.458-.072-.115-.308-.092-.402-.068-.024-.023v-.16l.047-.138.024-.252v-.825l-.071-.55-.095-.367-.047-.138-.426.115-.19.023-.024-.092.071-.091-.023-.092-.048-.023-.047-.092-.095-.068-.118-.046-.048-.069-.07-.023-.048-.092.047-.068.19-.092.213-.046.332-.023z" fill="#204E8B"/><path d="M6.14 12.16l.663.023.592.115.213.092.071.458v.344l-.071.366-.19.367-.213.23-.237.16-.284.114-.26.069-.38.046h-.52l-.545-.046-.426-.23-.237-.183-.308-.252v-.068l.095-.298.237-.436.165-.206.213-.206.332-.207.284-.114.332-.092.474-.046z" fill="#F7942D"/><path d="M30.582 10.19h.686l.285.068.236.092.285.183.118.092.213.252.19.32.095.276.047.23v.251l-3.127.023.048.32.118.299.142.206.024.069h.047v.046h.048v.046l.095.045.26.138.213.069.166.023h.308l.379-.092.332-.16.142-.115.213-.275.07-.115.12.023.283.138-.047.114-.142.207-.213.229-.237.183-.379.183-.426.092h-.45l-.356-.069-.307-.114-.214-.138-.237-.206-.213-.275-.165-.344-.072-.298-.023-.183v-.23l.07-.389.12-.275.165-.275.284-.298.26-.183.261-.115.285-.068z" fill="#063E7F"/><path d="M15.897 10.12l.071.024v1.214l-.379.046-.19.115-.094.091-.07.253-.024.504-.024 1.306h-1.255l-.024-.55v-2.796l.024-.137h1.255l.024.091-.048.275.118-.114.19-.16.237-.115.19-.046z" fill="#EF1C27"/><path d="M27.218 10.19h.569l.308.091.26.16.166.161.166.275.095.298.047.412v2.017l-.45-.023-.024-1.97-.047-.39-.095-.252-.166-.207-.284-.137-.26-.046h-.19l-.284.069-.237.114-.213.184-.166.229-.118.252-.048.23-.023.297-.024 1.65-.426-.023v-3.323h.426v.573l.355-.343.308-.184.26-.091.095-.023zM33.495 9.48h.45v.71l.687.023v.366l-.664.023-.023 3.002-.45-.023-.024-2.956-.024-.023-.544-.023-.024-.115.024-.252.544-.022.024-.023.024-.688z" fill="#073F80"/><path d="M30.724 10.58h.402l.355.09.308.161.237.23.19.366.023.138-.331.023h-2.25l-.024-.07.19-.366.165-.206.214-.183.308-.138.213-.046zM23.713 10.762h.237l.071.115.024.069v1.81l-.071.298-.048.023h-.213l-.095-.092V10.9l.048-.115.047-.023zM17.484 10.762h.142l.095.092.024.275v1.123l-.024.802-.095.046h-.142l-.095-.115-.023-.068-.024-.367.024-1.581.07-.184.048-.023z" fill="#FDFEFD"/><path d="M20.966 14.544h.166l.118.091.119.023.047-.091.379-.023.095.091v.298l-.095.138-.095.069-.071.022h-.166l-.047-.023-.024.23-.023.023h-.119v-.07h-.071l-.024-.09-.094-.024v-.046h-.214l-.118-.114-.024-.206.095-.184.119-.091.047-.023z" fill="#F8FEFD"/><path d="M23.832 14.292h.094l.024.114.166.046.095.069v.16l-.095.459-.024.045h-.213l-.19-.046-.284.024-.095-.115v-.23l.072-.137.118-.091.166-.046h.118l.024-.23.024-.022z" fill="#0E2486"/><path d="M17.863 14.544h.19l.094.069.024.137.095-.023.047.092.048-.16.094-.092.166-.023.071.023-.023.091h-.143l-.023.092.118.114.048.07-.024.137-.071.069-.095.045v.023l-.166.023-.118-.069h-.142v.046h-.19l-.095-.046-.118-.068-.047-.092v-.206l.142-.183.118-.07z" fill="#0F2587"/><path d="M32.76 14.315h.19l.142.091.071.138v.229l-.07.206-.12.115-.141.069h-.214l-.142-.092-.07-.138v-.183l.07-.23.119-.137.166-.068z" fill="#0D2286"/><path d="M31.837 14.315h.19l.189.091.07.115v.344l-.094.137-.142.115-.166.045H31.6l-.047-.045.047-.39.095-.367.142-.045z" fill="#0E2386"/><path d="M24.566 14.544l.19.023.07.114h.071v.046h.048l.047-.16.166.022.118-.045h.119l.07.069v.252l-.046.229-.072.069-.094-.024.07-.32v-.138h-.141l-.071.069-.072.367-.213.068-.142-.023h-.237l-.118-.091-.024-.046v-.252l.119-.16.142-.07z" fill="#F8FEFD"/><path d="M11.705 11.77h.213l.166.07.048.091v.665l-.024.206-.119.092-.094.023h-.19l-.024-.023v-1.1l.024-.023z" fill="#FDFEFD"/><path d="M14.997 14.544h.166l.142.091h.071l.048.023.023-.091h.095v.046l.237-.046-.047.114-.071.046h-.095l-.048.298-.047.16-.213.023-.142-.023-.213-.023-.119-.114-.024-.046v-.206l.143-.207.094-.045zM28.284 14.292h.119l-.024.206-.118.596-.072.069-.07.022-.072-.023-.094.023-.048-.023h-.236l-.119-.091-.024-.046v-.23l.095-.137.095-.091.213-.023.118.114v.046h.142l.072-.39.023-.022zM11.681 10.167h.237l.143.068.047.046.024.115v.412l-.048.23-.118.045h-.284l-.024-.091.024-.825zM23.808 10.785h.166l.047.092v.642l-.024.114-.047 1.146.024.206h-.048l-.047-.045v.091l-.095.023-.047-.16.024-.275.023-.184.048.023.023-.229-.023-.298-.024-.825-.047-.091.023-.16.024-.07z" fill="#F7FEFD"/><path d="M20.776 12.069h.095v.618l-.024.344-.094.069h-.19l-.095-.092-.023-.114v-.39l.07-.206.166-.16.095-.07z" fill="#FEFEFD"/><path d="M13.15 14.292h.118l-.023.229-.095.527-.095.091-.308.024-.118-.092-.024-.184.048-.16.19-.16.094-.023h.166l.023-.23.024-.022z" fill="#0E2486"/><path d="M27.36 14.292h.119l-.024.252-.095.527-.023.046-.237.045h-.142l-.118-.114v-.252l.094-.138.119-.091.26-.023.024-.23.023-.022z" fill="#0E2386"/><path d="M20.587 14.292h.095l-.024.183-.095.573-.095.091-.331.024-.095-.115-.024-.046.024-.23.166-.183.284-.068.047-.207.048-.022z" fill="#0F2687"/><path d="M21.676 14.544l.166.023.048.068v.298l-.095.138-.095.069-.071.022h-.166l-.047-.023-.024.23-.024.023h-.118l.024-.207.07-.343.048-.253.024-.022.26-.023z" fill="#0F2586"/><path d="M33.566 14.315l.19.023.118.114v.183l-.119.115-.023.046.047.137.024.207-.024.022h-.118l-.048-.275-.07-.068-.096-.023-.047.32-.118.046-.048-.068.095-.573.071-.16.166-.046z" fill="#0D2386"/><path d="M10.687 14.315l.237.023.118.114v.16l-.047.07h-.048l-.023.137.047.298-.047.045-.095-.022-.024-.07-.024-.183-.094-.068-.095-.023-.024.298-.023.046h-.142l.07-.482.072-.275.047-.045.095-.023z" fill="#0F2587"/><path d="M12.226 14.292h.119l-.024.252-.095.504-.047.091-.355.024-.095-.07-.024-.274.142-.184.095-.068.237-.023.047-.252z" fill="#0E2487"/><path d="M31.174 14.338h.118l.047.068.048.413v.343l-.119-.022v-.207h-.284l-.118.23h-.119l.024-.138.284-.573.119-.114z" fill="#0E2486"/><path d="M17.105 14.544l.142.023v.091l-.213.023-.118.138v.16l.07.069.167-.046-.024-.138.071-.091.024-.069.118.023.048-.16.07-.023.072.069-.095.435-.071.137h-.237l-.213-.023-.142-.091-.024-.069v-.16l.095-.184.118-.091.142-.023zM18.597 14.544l.095.023-.024.091h-.142l-.023.092.118.114.047.07-.023.137-.071.069-.095.045v.023l-.166.023-.118-.069h-.142v.046h-.19l.071-.069.119-.068.07-.069.072-.252h.095l.023.023h.024l.047-.138.071-.068.142-.023z" fill="#F7FEFD"/><path d="M30.203 14.315l.07.023-.023.275-.047.229.023.16.024.023h.142l.095-.092.142-.595h.118l.024.068-.095.459-.094.206-.095.069-.071.022h-.213l-.119-.091-.023-.046v-.275l.07-.298.048-.114.024-.023z" fill="#0E2286"/><path d="M32.784 14.43l.142.022.095.092v.252l-.071.16-.118.092h-.166l-.119-.115v-.275l.143-.183.094-.046z" fill="#FDFEFD"/><path d="M28.829 14.338h.45l-.024.114-.094.023h-.214l-.047.183h.26l.024.092-.023.023h-.285l-.07.252h.33v.115l-.023.022-.45-.022.024-.23.095-.48.047-.092z" fill="#0F2687"/><path d="M23.926 14.406l.119.023.165.092v.16l-.094.459-.024.045h-.213l-.095-.023.071-.366.048-.321.023-.069zM31.837 14.43l.19.022.118.092.023.206-.07.16-.12.092-.189.069-.094-.046.07-.412.048-.16.024-.024z" fill="#FDFEFD"/><path d="M14.997 14.544h.166l.119.091v.138l-.119.114-.07.023h-.19l.023.115.048.023h.236l-.07.114h-.237l-.119-.114-.024-.046v-.206l.143-.207.094-.045z" fill="#0F2687"/><path d="M26.247 14.544h.166l.119.114-.024.16-.047.046-.119.046h-.213l.047.115.166.023.142-.023-.07.114-.072.024h-.19l-.118-.092-.023-.046v-.252l.165-.184.071-.045z" fill="#0E2386"/><path d="M11.374 14.544h.142l.07.045.024.184-.118.114-.047.023h-.213l.047.115h.26l-.023.092-.048.045h-.236l-.095-.091-.024-.046v-.252l.071-.115.119-.091.07-.023z" fill="#0F2687"/><path d="M13.553 14.544h.165l.095.091.024.092-.071.115-.119.068h-.213l.024.115.142.023.166-.023-.048.114-.07.024h-.19l-.119-.092-.023-.046v-.252l.118-.16.119-.07z" fill="#0E2487"/><path d="M22.268 14.544l.19.023.071.091-.024.16-.165.092-.19.023.024.092.142.023.142-.023-.024.092-.047.045h-.213l-.119-.068-.047-.092v-.16l.095-.184.094-.091.072-.023z" fill="#0F2687"/><path d="M29.753 14.315h.19l.023.023v.114l-.071.023h-.237l-.071.023-.047.092-.048.068v.252l.047.092.048.023h.308l-.024.115-.047.022h-.285l-.142-.091-.07-.115-.024-.16.047-.206.071-.115.166-.115.166-.045z" fill="#0E2386"/><path d="M14.453 14.315l.213.023.024.091-.024.023h-.237l-.071.046.024.115.213.137.047.092-.024.183-.142.115-.047.022h-.166l-.142-.045v-.092h.26l.095-.023v-.137l-.237-.184-.047-.091.047-.16.119-.092.095-.023z" fill="#0F2587"/><path d="M19.71 14.544l.166.023.024.046v.252l-.047.252-.024.022h-.119l.024-.183.024-.298-.166.046-.095.252-.023.184-.119.022-.024-.114.095-.459.071-.022h.166l.047-.023z" fill="#102987"/><path d="M11.681 10.167h.237v.023h-.213l.024.045.024.436v.114l.118.138.047-.092.143-.114v-.482l.047.046.024.115v.412l-.048.23-.118.045h-.284l-.024-.091.024-.825z" fill="#FEFEFD"/><path d="M25.276 14.544h.119l.07.069v.252l-.047.229-.07.069-.095-.024.07-.32v-.138h-.142l-.07.069-.072.367-.023.022h-.119l.071-.48.024-.092.166.022.118-.045z" fill="#0E2686"/><path d="M23.026 14.544l.142.045v.321l-.047.207-.047.045-.095-.023.024-.206.023-.091v-.16h-.19l-.094.412-.047.069-.095-.024.095-.55.094-.022.071.046.048-.046.118-.023z" fill="#0D2186"/><path d="M20.966 14.544h.166l.094.091v.138l-.118.114-.213.023.024-.068.142-.07h.047v-.114h-.142l-.071.16-.024.184.071.046.213-.023-.023.092-.048.045h-.237l-.118-.114-.024-.206.095-.184.119-.091.047-.023z" fill="#102A87"/><path d="M27.787 14.544h.142l.118.114-.023.138-.071.069-.095.045h-.166l.119-.114.094-.023-.023-.115-.119.023-.095.23.024.114.166.023.118-.023-.023.092-.048.045h-.236l-.119-.091-.024-.046v-.23l.095-.137.095-.091.07-.023zM24.566 14.544l.19.023.047.046v.183l-.119.091-.047.023h-.166l.047-.091.166-.046-.023-.115-.119.023-.07.115-.025.206.072.046h.236l-.07.114h-.238l-.118-.091-.024-.046v-.252l.119-.16.142-.07z" fill="#0E2586"/><path d="M15.85 14.567h.118l.048.16.047.23.213-.39h.119l-.024.114-.284.459-.119.022-.07-.183-.048-.412z" fill="#0F2886"/><path d="M22.529 14.681h.118l.024.023-.024.252-.023.184.07.045h-.189l-.094-.068.047-.092-.213.046-.095-.046-.024-.092.024-.023.237-.045.095-.046.047-.138z" fill="#F7FEFD"/><path d="M17.105 14.544l.142.023v.091l-.213.023-.118.138v.16l.07.069h.167l-.024.091-.024.024h-.19l-.141-.092-.024-.069v-.16l.095-.184.118-.091.142-.023z" fill="#0F2787"/><path d="M11.61 14.658l.143.07-.024.205.024.16.023.092-.19-.023-.07-.022.024-.115-.048.023h-.213l-.047-.069v-.069l.213-.023.118-.068.047-.16z" fill="#F7FEFD"/><path d="M25.75 14.43l.095.022.023.092.095.046v.068l-.142.046-.024.069v.252l.071.069-.023.069h-.142l-.071-.092.023-.504.095-.138z" fill="#0E2586"/><path d="M18.597 14.544l.095.023-.024.091h-.142l-.023.092.118.114.047.07-.023.137-.071.069-.071.022h-.214v-.114h.214l-.024-.115-.119-.091v-.184l.095-.091.142-.023z" fill="#0F2787"/><path d="M11.966 11.794l.118.045.048.092v.665l-.024.206-.071.046-.095-.023-.047-.183h.047l.024-.367.047-.046.048.046v-.39l-.095-.091z" fill="#FEFEFD"/><path d="M28.284 14.292h.119l-.024.206-.119.596-.07.069-.072-.024.119-.733.047-.114z" fill="#0E2486"/><path d="M11.966 11.817l.118.068v.436l-.07.069-.024-.115-.048.367h-.024l-.023-.459-.095-.229.118-.114.048-.023z" fill="#F7FFFD"/><path d="M19.166 14.338l.118.022-.023.207-.119.55-.047.045L19 15.14l.047-.298.119-.505z" fill="#0F2687"/><path d="M18.74 14.59l.118.045.166.07.023.09v.161l-.047.069-.024-.092-.118-.091h-.071l.024.137-.119.092h-.047v-.275l.095-.206z" fill="#F7FEFD"/><path d="M17.863 14.658h.142l.048.046v.23l-.095.114-.118.023-.095-.069v-.206l.118-.138zM23.571 14.658h.166v.207l-.071.137-.071.069-.119-.023-.047-.046v-.183l.142-.16z" fill="#FCFEFD"/><path d="M15.447 14.567h.095v.046l.237-.046-.047.114-.071.046h-.095l-.048.298-.047.137h-.095l-.023-.068.094-.527z" fill="#102C87"/><path d="M21.605 14.658h.119l.047.046v.183l-.095.138-.094.046-.119-.023v-.16l.071-.16.071-.07zM12.89 14.658h.165v.207l-.07.137-.072.046h-.118l-.048-.069v-.137l.095-.138.047-.046z" fill="#FDFEFD"/><path d="M9.976 11.496H10l.047.252v.619l-.047.16h-.047l-.024-.252v-.481l.024-.275.023-.023z" fill="#F7FFFD"/><path d="M11.99 14.658h.142l.023.092-.07.252-.096.069-.094-.023-.048-.046v-.183l.095-.138.047-.023z" fill="#FDFEFD"/><path d="M20.374 14.635l.094.023-.023.23-.048.114-.047.046h-.142l-.047-.046v-.16l.094-.138.119-.069zM27.124 14.658h.142v.207l-.071.16-.119.046-.094-.046v-.206l.094-.138.048-.023z" fill="#FCFEFD"/><path d="M27.479 14.567l.142.068-.047.115-.024.046v.229l.047.069v.069h-.07v-.07l-.143.024-.024-.16.048-.322.07-.068z" fill="#FDFEFD"/><path d="M19.71 14.544l.166.023.024.046v.252l-.047.252-.024.022h-.118l.023-.183.024-.298-.118-.023.023-.068.048-.023z" fill="#0F2587"/><path d="M15.021 14.635l.19.023.023.023.047-.046v.138l-.118.114-.07.023h-.19l-.024.046.024-.137.047-.115.071-.069z" fill="#133D86"/><path d="M24.092 14.567h.119l-.024.183-.071.39-.119.022v-.206l.071-.366.024-.023z" fill="#0F2786"/><path d="M16.537 14.567h.118l-.023.252-.071.32-.119.024-.023-.092.118-.504z" fill="#0F2687"/><path d="M24.992 14.567l.213.023-.095.16-.07.367-.024.023h-.119l.071-.482.024-.091z" fill="#0F2787"/><path d="M10.592 14.796l.142.023.071.068.024.184-.047.069-.071.022-.143-.045v-.253l.024-.068z" fill="#F7FEFD"/><path d="M22.718 14.567l.095.023.047.091-.07.207-.072.252-.094.022-.024-.068.095-.504.023-.023z" fill="#102887"/><path d="M17.437 14.544l.095.045-.095.459-.071.114h-.071l.023-.275.071-.32.048-.023z" fill="#0F2586"/><path d="M25.608 14.635l.071.023-.024.413.024.114-.166-.046.024-.091-.047-.069.023-.298.095-.046zM16.419 14.819h.047v.16l-.024.16.095.046-.26.023-.072-.068.024-.115.095-.138.095-.068zM21.913 14.681h.095l.024.16v.161l.094.16-.047.023-.19-.091h-.118l.118-.207.024-.206z" fill="#F7FEFD"/><path d="M33.542 14.43l.166.022.047.046-.023.115-.072.068-.047.023h-.142v-.183l.071-.092zM27.787 14.635l.118.023.024.069-.071.069-.142.091.118.023v.092l.048.023-.024.046-.166-.023-.047-.046.024-.16.094-.184.024-.023zM10.71 14.43l.143.022.07.069-.023.114-.095.07h-.165v-.184l.07-.092zM26.366 14.865l.166.022v.138l-.119.023-.166.023-.118-.069v-.091l.213-.024.024-.022z" fill="#FDFEFD"/><path d="M13.695 14.865h.118l.047.068-.023.092-.26.046-.143-.046v-.114l.213-.024.048-.022zM13.695 12.275l.07.023v.687l-.07.023-.024-.068v-.527l.024-.138z" fill="#F7FEFD"/><path d="M22.197 11.863h.024l.024.252.023.962-.07.046v-1.26z" fill="#F7FFFD"/><path d="M14.429 14.43l.26.022-.047.069-.047.114-.19.023-.07-.091.023-.092.071-.046z" fill="#F7FEFD"/><path d="M31.174 14.475h.047l.024.069v.252l-.048.046h-.142l-.023-.092.142-.275zM20.966 14.635l.142.023v.115l-.19.091-.023.046h.142l-.142.138-.048-.046.024-.183.071-.16.024-.024z" fill="#FDFEFD"/><path d="M22.955 14.819l.071.023-.023.298.07.045-.165.023-.095-.206h.047l.048-.137.047-.046z" fill="#F7FEFD"/><path d="M17.626 10.808h.048l-.024.207-.071.114h-.047l-.048-.137h-.047l.024-.138.094-.023.071.023v-.046z" fill="#F7FFFD"/><path d="M11.847 12.504h.024l.071.23v.091l.095-.023v.069l-.048.023h-.26v-.046h.095l-.048-.046.024-.183h.047v-.115zM23.855 14.887l.024.046h.095l.023.046v.184l.095.022h-.213l-.095-.023.071-.275z" fill="#F7FEFD"/><path d="M18.242 14.865h.047v.137l.024.023.024-.114h.047l.024-.046.118.091-.023.115-.214-.023-.023.092-.048-.07.024-.205z" fill="#FDFEFD"/><path d="M23.926 14.406l.119.023.165.092v.046h-.142l-.07.068-.095-.022.023-.207z" fill="#F8FEFD"/><path d="M13.174 14.842l.07.045v.046h.048l.095.16v.07l-.213-.046-.024-.046.024-.23zM15.755 14.475l.166.046-.071.023.024.069v.229h-.071v-.046l-.095-.046.047-.092.024-.091-.071-.023.047-.069zM25.916 14.704l.07.023.024.069v.23l-.047.022-.07-.023-.048-.206.07-.115zM27.384 14.865l.095.022v.07h.047l.071.137v.069h-.07v-.07l-.143.024-.024-.16.024-.092zM20.681 14.865h.024l.071.229.048.023-.024.045-.237-.045-.024-.069.071-.115.048.023.023-.091z" fill="#F7FEFD"/><path d="M23.24 14.796l.07.023v.229l-.118.046-.095.068.048-.183.047-.092.047-.091z" fill="#F8FEFD"/><path d="M4.979 14.52l.213.024v.046h.118v.046l-.118.022h-.213l-.047-.068.047-.07z" fill="#0D2186"/><path d="M19.995 14.887h.023l.072.207v.091l-.119-.023-.071-.068.024-.184.07-.023z" fill="#F7FEFD"/><path d="M15.021 14.635l.142.023-.024.115-.213.091v-.137l.095-.092z" fill="#FDFEFD"/><path d="M22.268 14.635h.119l.023.115-.118.069-.118.045v-.114l.094-.115z" fill="#F9FEFD"/><path d="M26.271 14.635l.118.023.024.092-.118.069-.119.045.024-.16.071-.069z" fill="#FCFEFD"/><path d="M24.566 14.635l.118.023v.115l-.166.069-.07.068.023-.16.095-.115z" fill="#FDFEFD"/><path d="M31.387 14.933l.023.046.119-.046.024.023.023.16.024.024.26.022v.023h-.284l-.07-.045-.096-.023-.023-.184zM24.21 14.887l.095.092.071.115v.069l-.118-.024-.095-.022-.023-.138.07-.091z" fill="#F7FEFD"/><path d="M11.35 14.635l.142.023-.024.115-.094.069-.119-.023.071-.16.024-.024z" fill="#FDFEFD"/><path d="M17.508 12.55l.047.046.071.252-.023.16-.095-.091-.024-.115.024-.252z" fill="#F7FFFD"/><path d="M4.505 14.246l.142.046.119.114.047.069-.19-.023-.118-.114v-.092z" fill="#F8FEFD"/><path d="M13.576 14.635l.119.023-.024.115-.142.069-.071-.023.047-.115.071-.069z" fill="#FCFEFD"/><path d="M14.737 14.773h.024v.23l-.119.068-.047.023.047-.252.024-.046.07-.023z" fill="#F7FEFD"/><path d="M3.818 13.627l.214.206-.024.046h-.071l-.071-.069-.095-.045-.024-.115.071-.023z" fill="#F8FEFD"/><path d="M13.434 14.796l.095.023.118-.023.048.091-.048.023h-.213l-.023.092-.024-.138.047-.068z" fill="#154786"/><path d="M22.884 14.475h.26l.024.092-.26.023-.071.045-.024-.068.047-.023.024-.069z" fill="#F8FEFD"/><path d="M11.232 14.91h.189v.092l.071.023v.023h-.213l-.047-.069v-.069z" fill="#FDFEFD"/><path d="M26.413 14.865l.119.022v.138l-.048.023-.166-.046v-.069l.119-.022-.024-.046z" fill="#F7FEFD"/><path d="M13.434 14.91h.19v.07h-.048l.024.09-.166-.045v-.115z" fill="#FCFEFD"/><path d="M30.653 14.98l.118.022-.024.16.095.023h-.118l-.095-.046-.024-.068.048-.046v-.046z" fill="#F7FEFD"/><path d="M22.15 14.773l.024.092.118-.07.095.024v.068l-.237.046-.024-.091.024-.07z" fill="#114584"/><path d="M19.64 14.98l.07.022-.023.16.047.023-.118-.023-.071-.068.047-.092.047-.023z" fill="#F7FFFD"/><path d="M33.21 14.91l.048.046v.207l-.047-.023v-.046h-.072l-.023-.138h.095v-.046z" fill="#F7FEFD"/><path d="M26.153 14.773l.023.092.119-.07h.047l.024.092-.024.023h-.213l-.024.046.024-.114.024-.07z" fill="#124685"/><path d="M23.618 14.452l.119.046.047-.023v.069l-.284.045-.047-.045.165-.092z" fill="#F8FEFD"/><path d="M11.397 14.796l.095.023v.068l-.047.023h-.213l.047-.091.118-.023z" fill="#154886"/><path d="M20.847 13.444l.048.023v.137l-.166.023.024-.092.094-.091zM16.063 10.74h.119l-.024.16-.071.023-.048-.046v-.115l.024-.022z" fill="#F7FEFD"/><path d="M10.592 14.796l.095.023h-.047l.023.114-.024.16-.047-.022-.024-.207.024-.068z" fill="#FDFEFD"/><path d="M4.908 14.613l.213.068.047.023v.069l-.142-.023-.118-.069v-.068z" fill="#F9FEFD"/><path d="M14.903 14.91h.165l-.094.023.047.07.095.045v.023h-.142l-.095-.092.024-.069z" fill="#FDFEFD"/><path d="M11.066 14.887h.023l.048.138.024.092h.047l-.024.045-.142-.068v-.184l.024-.023zM15.163 14.452l.024.046-.024.046-.26.045-.024-.068.095-.023.023-.023.166-.023zM25.229 15.002h.047v.138l.071.045-.118.023-.095-.091.071-.023.024-.092zM27.479 14.567l.142.068-.024.07-.142.022-.023-.114.047-.046z" fill="#F7FEFD"/><path d="M15.921 11.45l.071.069-.024.114-.094-.023v-.137l.047-.023z" fill="#F7FFFD"/><path d="M27.716 14.452l.213.069v.023l-.26.045v-.114l.047-.023z" fill="#F7FEFD"/><path d="M24.59 14.796l.07.023.024.068-.047.023h-.166l.047-.091.072-.023z" fill="#104484"/><path d="M22.15 14.91h.166v.023h-.142l.07.046.072.092-.142-.023-.048-.115.024-.023z" fill="#FDFEFD"/><path d="M17.46 14.315l.095.023v.091l-.118.023-.024-.092.048-.045z" fill="#133188"/><path d="M16.632 14.315l.07.023-.023.114-.118-.023.023-.091.048-.023z" fill="#122C88"/><path d="M14.429 14.43h.118l-.094.045-.024.069.071.023-.095.023-.07-.023.023-.092.071-.046z" fill="#FDFEFD"/><path d="M27.81 14.796h.048l.047.091-.047.023h-.166l.119-.114z" fill="#0D4183"/><path d="M22.268 14.635h.119v.046l-.119.092-.094-.023.094-.115z" fill="#FDFEFD"/><path d="M24.14 14.315l.094.023-.023.114h-.095v-.114l.024-.023z" fill="#102887"/><path d="M3.463 13.33h.047l.095.183.095.045-.071.023-.071-.023v-.068H3.51l-.048-.16z" fill="#F8FEFD"/></g></g><defs><clipPath id="pi-broadnet-clip0"><path fill="#fff" d="M0 0h38v24H0z"/></clipPath><clipPath id="pi-broadnet-clip1"><rect x="1" y="1" width="36" height="22" rx="2" fill="#fff"/></clipPath></defs></svg>