<svg xmlns="http://www.w3.org/2000/svg" width="38" height="24" fill="none" aria-labelledby="pi-bsi" role="img" viewBox="0 0 38 24"><title id="pi-bsi">BSI</title><path fill="#fff" d="M0 0h38v24H0z"/><path fill="#168F8C" d="M26.327 6.647v9.483h2.923V9.025c0-.532-.372-2.134-2.923-2.378m-15.533 7.835q.557-.001.91-.109.354-.107.555-.28a.9.9 0 0 0 .274-.387c.05-.14.075-.289.075-.438q0-.253-.088-.457a.8.8 0 0 0-.299-.343 1.7 1.7 0 0 0-.562-.215 4.3 4.3 0 0 0-.881-.077H8.81v2.305h1.982l.001.001ZM8.811 8.454v2.285h1.466q.42.004.84-.05.373-.05.637-.177a.93.93 0 0 0 .4-.35c.097-.17.144-.363.137-.558a1.24 1.24 0 0 0-.11-.55.84.84 0 0 0-.332-.352 1.6 1.6 0 0 0-.57-.19 5 5 0 0 0-.819-.056zm1.65-1.605q1.255 0 2.138.177.881.179 1.44.502.555.325.811.786.253.465.254 1.035 0 .313-.117.602a1.6 1.6 0 0 1-.366.538 2.7 2.7 0 0 1-.64.462q-.391.208-.942.36 1.199.223 1.774.718.574.495.573 1.283.002.59-.3 1.098a2.7 2.7 0 0 1-.878.885q-.576.378-1.426.59a8 8 0 0 1-1.94.214H6V6.85zm13.382 1.88a.9.9 0 0 1-.261.229.7.7 0 0 1-.354.075 1.1 1.1 0 0 1-.413-.092l-.499-.206a5 5 0 0 0-.636-.207 3.3 3.3 0 0 0-.816-.092q-.791.001-1.177.257a.8.8 0 0 0-.388.695.57.57 0 0 0 .234.465q.233.184.611.317t.867.244q.485.11.993.247a11 11 0 0 1 .995.322q.488.184.867.47.378.284.61.695.233.409.233.986 0 .642-.29 1.2a2.9 2.9 0 0 1-.846.975q-.554.415-1.365.654-.81.238-1.843.238-.567 0-1.152-.09a8.5 8.5 0 0 1-1.136-.25 8 8 0 0 1-1.032-.383 4.4 4.4 0 0 1-.84-.496l.831-1.003a.85.85 0 0 1 .616-.253q.25 0 .503.12l.574.266q.321.147.737.267t.983.121q.764 0 1.189-.257t.425-.817a.67.67 0 0 0-.234-.527 1.9 1.9 0 0 0-.61-.336 7 7 0 0 0-.862-.235 31 31 0 0 1-.99-.225 9 9 0 0 1-.99-.305q-.483-.181-.862-.475a2.25 2.25 0 0 1-.613-.737q-.232-.441-.232-1.09-.001-.52.274-1.015a2.7 2.7 0 0 1 .807-.881 4.3 4.3 0 0 1 1.308-.62q.774-.231 1.772-.232.558 0 1.087.067.527.066 1.002.196.473.13.887.312.412.18.736.41l-.7.995Z"/><path fill="#F9AD3C" d="M29.57 3.23a2 2 0 0 0-.032-.23c.654.515 1.588.817 2.6.77a4.2 4.2 0 0 0 1.337-.289c-.311.417-.475.905-.432 1.42.053.636.41 1.203.957 1.622a4.3 4.3 0 0 0-.868-.043c-1.184.056-2.182.579-2.711 1.319-.21-1.094-1.32-1.943-2.71-2.13 1.176-.438 1.948-1.384 1.861-2.44h-.003Z"/></svg>