<svg xmlns="http://www.w3.org/2000/svg" width="38" height="24" fill="none" aria-labelledby="pi-bss" role="img" viewBox="0 0 38 24"><title id="pi-bss">BSS</title><path fill="#fff" d="M0 0h38v24H0z"/><path fill="url(#pi-bss-linear-gradient-a)" stroke="#A3822E" stroke-miterlimit="10" stroke-width=".3" d="M11.62 7.43s-.35-.8-.53-.86C10.9 6.5 10.5 9 10.7 9.54c0 0 1.03.81 1.2 1.51l.62-.78.4-1.46z"/><path stroke="#A3822E" stroke-miterlimit="10" stroke-width=".1" d="M11.83 10.13s-.57-1.2-.61-2.75"/><path fill="url(#pi-bss-b)" stroke="#A3822E" stroke-miterlimit="10" stroke-width=".3" d="M26.38 7.43s.35-.8.53-.86c.19-.07.58 2.43.39 2.97 0 0-1.03.81-1.2 1.51l-.62-.78-.4-1.46z"/><path stroke="#A3822E" stroke-miterlimit="10" stroke-width=".1" d="M26.17 10.13s.57-1.2.61-2.75"/><path fill="url(#pi-bss-c)" stroke="#A3822E" stroke-miterlimit="10" stroke-width=".3" d="M13.65 5.5s-.44-.88-.66-.88-.73 1.51-.5 2.26c.24.74.58.83.5 1.29-.09.46 1.33-.8 1.34-.9.02-.1-.08-1.2-.08-1.2z"/><path fill="url(#pi-bss-d)" stroke="#A3822E" stroke-miterlimit="10" stroke-width=".3" d="M14.76 3.67s-1.53.36-1 3.5c.54 3.15 1.66-.44 1.66-.44s1.65-1.31 1.06-1.63a11.8 11.8 0 0 1-1.72-1.43Z"/><path fill="url(#pi-bss-e)" stroke="#A3822E" stroke-miterlimit="10" stroke-width=".3" d="M13.77 7.17s.5-2.5 1.72-2.62 1.43 1.31 1.43 1.31l-2.59.98z"/><path fill="url(#pi-bss-f)" stroke="#A3822E" stroke-miterlimit="10" stroke-width=".3" d="m12.68 18.29-.85.27s.67.69 1.24.54c.58-.14 1.3-.92 1.3-.92s.06-.49-.02-.51c-.07-.03-1.64.35-1.64.35z"/><path fill="url(#pi-bss-g)" stroke="#A3822E" stroke-miterlimit="10" stroke-width=".3" d="m11.72 16.37-1.09.02s.85 1.45 1.88 1.8c0 0 .44.38 1.27.06.83-.33 1.01-.88 1.01-.88l-1.5-1.4-.98.11c-.07.01-.6.3-.6.3Z"/><path fill="url(#pi-bss-h)" stroke="#A3822E" stroke-miterlimit="10" stroke-width=".3" d="M12.75 16.54s-1.39.11-2.04-1.01c-.64-1.13-.54-1.57-.54-1.57s-.05-.22.76.35l1.9.14s.1.55.1.78.14.96.14 1.03c0 .08-.32.28-.32.28Z"/><path fill="url(#pi-bss-i)" stroke="#A3822E" stroke-miterlimit="10" stroke-width=".3" d="M14.08 17.88s-.9-.44-1.4-1.48c-.52-1.05-.37-1.37-.37-1.37l.64-.12s.38.4.53.78c.16.38.8 1.2.96 1.34.15.14.16.56.16.56z"/><path fill="url(#pi-bss-j)" stroke="#A3822E" stroke-miterlimit="10" stroke-width=".3" d="M10.8 11.99s-.57-.37-.8-.37c0 0-.09.96.4 1.9.49.93 1.03 1.42 2.07 1.54 0 0 .83-1.5.31-1.97-.5-.47-1.99-1.1-1.99-1.1Z"/><path fill="url(#pi-bss-k)" stroke="#A3822E" stroke-miterlimit="10" stroke-width=".3" d="M11.9 11.05s.02-.75-1.43-1.75c0 0-.8 2.22 1.02 3.3l.38.26.44-1-.4-.8Z"/><path fill="url(#pi-bss-l)" stroke="#A3822E" stroke-miterlimit="10" stroke-width=".3" d="M13.05 8.14s0-1.4-1.22-1.92c0 0-.81 1.6.73 2.7 0 0 .55-.38.5-.78Z"/><path stroke="#A3822E" stroke-miterlimit="10" stroke-width=".1" d="M13.54 17.77a3.7 3.7 0 0 1-1.42-.5 7 7 0 0 1-.82-.49m.86-.81s-1.07-.68-1.53-1.52m1.16-.39s-1.1-.68-1.62-1.98m1.45-.22s-.77-.67-.99-2.06m1.8-1.5-.48-1.73"/><path fill="url(#pi-bss-m)" stroke="#A3822E" stroke-miterlimit="10" stroke-width=".3" d="M24.35 5.5s.44-.88.66-.88.73 1.51.5 2.26c-.24.74-.58.83-.5 1.29.09.46-1.33-.8-1.34-.9-.02-.1.08-1.2.08-1.2z"/><path fill="url(#pi-bss-n)" stroke="#A3822E" stroke-miterlimit="10" stroke-width=".3" d="M23.24 3.67s1.53.36 1 3.5c-.54 3.15-1.66-.44-1.66-.44s-1.65-1.31-1.06-1.63c.59-.31 1.72-1.43 1.72-1.43Z"/><path fill="url(#pi-bss-o)" stroke="#A3822E" stroke-miterlimit="10" stroke-width=".3" d="M24.23 7.17s-.5-2.5-1.72-2.62-1.43 1.31-1.43 1.31l2.59.98z"/><path fill="url(#pi-bss-p)" stroke="#A3822E" stroke-miterlimit="10" stroke-width=".3" d="m25.32 18.29.85.27s-.67.69-1.24.54c-.58-.14-1.3-.92-1.3-.92s-.06-.49.02-.51c.07-.03 1.64.35 1.64.35z"/><path fill="url(#pi-bss-q)" stroke="#A3822E" stroke-miterlimit="10" stroke-width=".3" d="m26.28 16.37 1.09.02s-.85 1.45-1.88 1.8c0 0-.44.38-1.27.05-.83-.32-1.01-.87-1.01-.87l1.5-1.4.98.11c.07.01.6.3.6.3Z"/><path fill="url(#pi-bss-r)" stroke="#A3822E" stroke-miterlimit="10" stroke-width=".3" d="M25.25 16.54s1.39.11 2.04-1.01c.64-1.13.54-1.57.54-1.57s.05-.22-.76.35l-1.9.14s-.1.55-.1.78-.14.96-.14 1.03c0 .08.32.28.32.28Z"/><path fill="url(#pi-bss-s)" stroke="#A3822E" stroke-miterlimit="10" stroke-width=".3" d="M23.92 17.88s.9-.44 1.4-1.48c.52-1.05.37-1.37.37-1.37l-.64-.12s-.38.4-.53.78c-.16.38-.8 1.2-.96 1.34-.15.14-.16.56-.16.56z"/><path fill="url(#pi-bss-t)" stroke="#A3822E" stroke-miterlimit="10" stroke-width=".3" d="M27.2 11.99s.57-.37.8-.37c0 0 .09.96-.4 1.9-.49.93-1.03 1.42-2.07 1.54 0 0-.83-1.5-.32-1.97.52-.47 2-1.1 2-1.1Z"/><path fill="url(#pi-bss-u)" stroke="#A3822E" stroke-miterlimit="10" stroke-width=".3" d="M26.1 11.05s-.02-.75 1.43-1.75c0 0 .8 2.22-1.02 3.3l-.38.26-.44-1 .4-.8Z"/><path fill="url(#pi-bss-v)" stroke="#A3822E" stroke-miterlimit="10" stroke-width=".3" d="M24.95 8.14s0-1.4 1.22-1.92c0 0 .81 1.6-.73 2.7 0 0-.55-.38-.5-.78Z"/><path fill="url(#pi-bss-w)" stroke="#A3822E" stroke-miterlimit="10" stroke-width=".3" d="M14.55 17.41a30 30 0 0 0-1.64 2.05s1.93 2.12 6.27 2.12 5.88-2.32 5.88-2.32l-1.68-2.03s-2.91 2.88-8.83.18Z"/><path fill="url(#pi-bss-x)" stroke="#A3822E" stroke-miterlimit="10" stroke-width=".3" d="M15.76 5.75s-.23-1.7-1.03-2.08c0 0 4.18-2.83 8.51 0 0 0-1.14 1.05-1.1 1.94z"/><path fill="url(#pi-bss-y)" d="M18.99 19.27a7.18 7.18 0 1 0 0-14.37 7.18 7.18 0 0 0 0 14.37"/><path fill="#A3822E" fill-rule="evenodd" d="M18.99 5.05a7.03 7.03 0 1 0 0 14.07 7.03 7.03 0 0 0 0-14.07m-7.34 7.03a7.33 7.33 0 1 1 14.67 0 7.33 7.33 0 0 1-14.67 0" clip-rule="evenodd"/><path fill="#fff" d="M19.1 17.41a5.55 5.55 0 1 0 0-11.1 5.55 5.55 0 0 0 0 11.1"/><path fill="#000" d="M19.1 17.6a5.74 5.74 0 1 1 0-11.48 5.74 5.74 0 0 1 0 11.47Zm0-11.1a5.37 5.37 0 1 0 0 10.74 5.37 5.37 0 0 0 0-10.74"/><path fill="red" d="M19.4 12.05c.09-.08-.33-.94-.47-.76 0 0-.43.55-.37.71.06.17.76.13.84.05m-3.2-1.79s.34 1.17 1.63 1.5c0 0 0-.62.62-.99 0 0-.79-.73-2.26-.5Zm2.12 2.44s-.07 1.17.62 2.11c0 0 .85-.85.69-2.11 0 0-.73.16-1.3 0Zm1.22-1.98s.59.56.74 1.04c0 0 1-.5 1.42-1.6 0 0-1.18-.25-2.16.56"/><path fill="red" fill-rule="evenodd" d="M14.17 11.86a4.92 4.92 0 1 1 9.84 0 4.92 4.92 0 0 1-9.84 0M19 10.2s1.26-1.52 3.69-.67c0 0-.17 2.23-2.1 2.94 0 0 .07 2.68-1.6 3.62 0 0-1.96-1.6-1.36-3.55 0 0-1.92-.26-2.46-2.77 0 0 1.87-1.18 3.83.43" clip-rule="evenodd"/><path fill="#A3822E" fill-rule="evenodd" d="M26.72 16.82c-.29.2-.57.37-.82.5l-.02-.04.02.04a5.7 5.7 0 0 1-1.39.5h-.06l.02-.1h.03l.09-.01.3-.07a7.7 7.7 0 0 0 1.79-.9zm-.85-.82-.06-.08h.02l.03-.03a5 5 0 0 0 .54-.4c.32-.28.7-.65.92-1.06l.1.04a4.3 4.3 0 0 1-.96 1.1 7 7 0 0 1-.58.43zm.37-1.9-.05-.08V14a3 3 0 0 0 .17-.12 4.5 4.5 0 0 0 1.43-1.83l.1.04a4.46 4.46 0 0 1-1.64 2h-.01Zm.18-2.2-.07-.08.03-.03.09-.09c.07-.08.18-.2.28-.38.22-.33.46-.84.57-1.53l.1.01a4.06 4.06 0 0 1-.97 2.07l-.02.02h-.01Zm-.32-5.32-.48 1.73-.1-.03.48-1.73z" clip-rule="evenodd"/><defs><linearGradient id="pi-bss-linear-gradient-a" x1="11.66" x2="10.39" y1="8.6" y2="10.12" gradientUnits="userSpaceOnUse"><stop stop-color="#F7E349"/><stop offset="1" stop-color="#A3822E"/></linearGradient><linearGradient id="pi-bss-b" x1="26.34" x2="27.61" y1="8.6" y2="10.12" gradientUnits="userSpaceOnUse"><stop stop-color="#F7E349"/><stop offset="1" stop-color="#A3822E"/></linearGradient><linearGradient id="pi-bss-c" x1="13.32" x2="11.8" y1="6.42" y2="6.53" gradientUnits="userSpaceOnUse"><stop stop-color="#F7E349"/><stop offset="1" stop-color="#A3822E"/></linearGradient><linearGradient id="pi-bss-d" x1="15.19" x2="14.14" y1="5.11" y2="7.32" gradientUnits="userSpaceOnUse"><stop stop-color="#F7E349"/><stop offset="1" stop-color="#A3822E"/></linearGradient><linearGradient id="pi-bss-e" x1="16.28" x2="12.96" y1="5.86" y2="5.86" gradientUnits="userSpaceOnUse"><stop stop-color="#F7E349"/><stop offset="1" stop-color="#A3822E"/></linearGradient><linearGradient id="pi-bss-f" x1="11.61" x2="14.4" y1="18.09" y2="18.52" gradientUnits="userSpaceOnUse"><stop stop-color="#F7E349"/><stop offset="1" stop-color="#A3822E"/></linearGradient><linearGradient id="pi-bss-g" x1="12.79" x2="12.26" y1="16.53" y2="18.91" gradientUnits="userSpaceOnUse"><stop stop-color="#F7E349"/><stop offset="1" stop-color="#A3822E"/></linearGradient><linearGradient id="pi-bss-h" x1="11.74" x2="10.86" y1="14.9" y2="16.42" gradientUnits="userSpaceOnUse"><stop stop-color="#F7E349"/><stop offset="1" stop-color="#A3822E"/></linearGradient><linearGradient id="pi-bss-i" x1="12.66" x2="15.08" y1="15.61" y2="18.11" gradientUnits="userSpaceOnUse"><stop stop-color="#F7E349"/><stop offset="1" stop-color="#A3822E"/></linearGradient><linearGradient id="pi-bss-j" x1="11.51" x2="10.24" y1="12.74" y2="15.61" gradientUnits="userSpaceOnUse"><stop stop-color="#F7E349"/><stop offset="1" stop-color="#A3822E"/></linearGradient><linearGradient id="pi-bss-k" x1="11.64" x2="9.73" y1="10.51" y2="12.84" gradientUnits="userSpaceOnUse"><stop stop-color="#F7E349"/><stop offset="1" stop-color="#A3822E"/></linearGradient><linearGradient id="pi-bss-l" x1="12.73" x2="10.99" y1="7.49" y2="7.74" gradientUnits="userSpaceOnUse"><stop stop-color="#F7E349"/><stop offset="1" stop-color="#A3822E"/></linearGradient><linearGradient id="pi-bss-m" x1="24.68" x2="26.2" y1="6.42" y2="6.53" gradientUnits="userSpaceOnUse"><stop stop-color="#F7E349"/><stop offset="1" stop-color="#A3822E"/></linearGradient><linearGradient id="pi-bss-n" x1="22.81" x2="23.86" y1="5.11" y2="7.32" gradientUnits="userSpaceOnUse"><stop stop-color="#F7E349"/><stop offset="1" stop-color="#A3822E"/></linearGradient><linearGradient id="pi-bss-o" x1="21.72" x2="25.04" y1="5.86" y2="5.86" gradientUnits="userSpaceOnUse"><stop stop-color="#F7E349"/><stop offset="1" stop-color="#A3822E"/></linearGradient><linearGradient id="pi-bss-p" x1="26.39" x2="23.6" y1="18.09" y2="18.52" gradientUnits="userSpaceOnUse"><stop stop-color="#F7E349"/><stop offset="1" stop-color="#A3822E"/></linearGradient><linearGradient id="pi-bss-q" x1="25.21" x2="25.74" y1="16.53" y2="18.91" gradientUnits="userSpaceOnUse"><stop stop-color="#F7E349"/><stop offset="1" stop-color="#A3822E"/></linearGradient><linearGradient id="pi-bss-r" x1="26.26" x2="27.14" y1="14.9" y2="16.42" gradientUnits="userSpaceOnUse"><stop stop-color="#F7E349"/><stop offset="1" stop-color="#A3822E"/></linearGradient><linearGradient id="pi-bss-s" x1="25.34" x2="22.92" y1="15.61" y2="18.11" gradientUnits="userSpaceOnUse"><stop stop-color="#F7E349"/><stop offset="1" stop-color="#A3822E"/></linearGradient><linearGradient id="pi-bss-t" x1="26.49" x2="27.76" y1="12.74" y2="15.61" gradientUnits="userSpaceOnUse"><stop stop-color="#F7E349"/><stop offset="1" stop-color="#A3822E"/></linearGradient><linearGradient id="pi-bss-u" x1="26.36" x2="28.27" y1="10.51" y2="12.84" gradientUnits="userSpaceOnUse"><stop stop-color="#F7E349"/><stop offset="1" stop-color="#A3822E"/></linearGradient><linearGradient id="pi-bss-v" x1="25.27" x2="27.01" y1="7.49" y2="7.74" gradientUnits="userSpaceOnUse"><stop stop-color="#F7E349"/><stop offset="1" stop-color="#A3822E"/></linearGradient><linearGradient id="pi-bss-w" x1="18.99" x2="18.99" y1="17.23" y2="21.58" gradientUnits="userSpaceOnUse"><stop stop-color="#F7E349"/><stop offset="1" stop-color="#A3822E"/></linearGradient><linearGradient id="pi-bss-x" x1="18.99" x2="18.99" y1="5.75" y2="2.41" gradientUnits="userSpaceOnUse"><stop stop-color="#F7E349"/><stop offset="1" stop-color="#A3822E"/></linearGradient><linearGradient id="pi-bss-y" x1="18.99" x2="18.99" y1="4.9" y2="19.27" gradientUnits="userSpaceOnUse"><stop stop-color="#F7E349"/><stop offset="1" stop-color="#A3822E"/></linearGradient></defs></svg>