<svg width="38" height="24" fill="none" xmlns="http://www.w3.org/2000/svg" aria-labelledby="pi-busd"><path fill="#fff" d="M0 0h38v24H0z"/><path opacity=".07" d="M35 0H3C1.3 0 0 1.3 0 3v18c0 1.7 1.4 3 3 3h32c1.7 0 3-1.3 3-3V3c0-1.7-1.4-3-3-3Z" fill="#000"/><path d="M35 1c1.1 0 2 .9 2 2v18c0 1.1-.9 2-2 2H3c-1.1 0-2-.9-2-2V3c0-1.1.9-2 2-2h32Z" fill="#fff"/><circle cx="19" cy="12" r="8" fill="#F3BA2D"/><path fill-rule="evenodd" clip-rule="evenodd" d="m19.024 6.64-3.394 3.395 1.357 1.357 3.395-3.394-1.358-1.358Zm-4.058 4.219-1.358 1.357 1.358 1.358 1.357-1.358-1.357-1.357Zm.766 3.394 5.43-5.43 1.358 1.357-5.43 5.43-1.358-1.357Zm7.67-3.51-5.43 5.43 1.357 1.358 5.43-5.431-1.357-1.358Z" fill="#fff"/></svg>