<svg width="38" height="24" viewBox="0 0 38 24" fill="none" role="img"
    xmlns="http://www.w3.org/2000/svg" aria-labelledby="pi-capitec_pay">
    <title id="pi-capitec_pay">Capitec Pay</title>
    <g clip-path="url(#pi-capitec_pay-clip0_1198_1061)">
        <rect width="38" height="24" rx="2" fill="#fff" />
        <rect width="38" height="24" rx="2" fill="#fff" />
        <rect x=".5" y=".5" width="37" height="23" rx="2" stroke="#000" stroke-opacity=".07" />
        <path
            d="M10.904 9.002H6.46v1.909a1.208 1.208 0 001.21 1.204h2.324a1.553 1.553 0 011.511 1.553v1.808c1.613-.266 2.847-1.67 2.847-3.236 0-1.754-1.552-3.238-3.448-3.238z"
            fill="#E61414" />
        <path
            d="M9.065 12.343H6.75a1.508 1.508 0 01-1.513-1.498V9C3.438 9.103 2 10.545 2 12.234c0 1.755 1.551 3.24 3.448 3.24h4.827v-1.922a1.213 1.213 0 00-1.21-1.209z"
            fill="#00486D" />
        <path
            d="M18.269 14.04c.515 0 .886-.308.886-.823v-.357h-.55v.323c0 .192-.125.322-.327.322-.216 0-.342-.125-.342-.36v-1.763c0-.207.101-.352.337-.352.207 0 .333.13.333.333v.322h.549v-.38c0-.501-.376-.8-.882-.8-.539 0-.953.313-.953.862v1.81c0 .579.395.863.949.863zM20.022 14.04c.144 0 .385-.077.482-.308h.014c.01.14.024.24.024.26h.52c0-.063-.024-.385-.024-.592v-1.344c0-.428-.294-.684-.751-.684-.462 0-.775.26-.775.655v.227h.515v-.217c0-.12.062-.212.221-.212.154 0 .227.087.227.212v.39h-.15c-.467.01-.866.299-.866.838 0 .544.255.775.563.775zm.212-.443c-.125 0-.207-.115-.207-.4 0-.293.14-.423.313-.423h.135v.53c0 .163-.116.293-.241.293zM21.467 14.767h.568v-.948h.005c.101.149.274.221.434.221.385 0 .601-.27.601-.607V11.99c0-.337-.159-.612-.549-.612a.601.601 0 00-.496.294h-.01v-.24h-.553v3.336zm.824-1.18c-.14 0-.256-.11-.256-.298v-1.122c0-.217.111-.332.256-.332.144 0 .221.096.221.245v1.257c0 .169-.091.25-.221.25zM23.48 13.992h.569V11.43h-.569v2.562zm0-2.9h.569v-.62h-.569v.62zM25.161 14.025c.12 0 .265-.019.38-.062v-.453a.876.876 0 01-.207.024c-.105 0-.144-.053-.144-.159v-1.483h.366v-.443h-.366v-.582h-.563v.582h-.236v.443h.236v1.652c0 .342.24.481.534.481zM26.664 14.045c.27 0 .496-.058.693-.154l-.105-.41a1.49 1.49 0 01-.477.102c-.231 0-.361-.126-.361-.366v-.309h.972v-.79c0-.447-.27-.746-.736-.746-.448 0-.8.29-.8.8v1.112c0 .51.337.76.814.76zm-.25-1.541v-.41c0-.139.072-.269.235-.269.17 0 .232.125.232.265v.414h-.467zM28.518 14.04c.458 0 .752-.236.752-.66v-.23h-.506v.201c0 .111-.053.236-.226.236-.169 0-.236-.125-.236-.279v-1.204c0-.149.072-.27.236-.27.159 0 .226.107.226.232v.202h.506v-.24c0-.376-.285-.656-.742-.656-.433 0-.795.27-.795.77v1.152c0 .49.333.746.785.746zM30.354 13.992h.606v-1.286h.337c.593 0 .853-.424.853-1.112 0-.655-.265-1.036-.828-1.036h-.968v3.434zm.606-1.787v-1.141h.26c.241 0 .338.193.338.544 0 .4-.116.597-.347.597h-.25zM33.017 14.04c.144 0 .385-.077.482-.308h.014c.01.14.024.24.024.26h.52c0-.063-.024-.385-.024-.592v-1.344c0-.428-.294-.684-.751-.684-.462 0-.775.26-.775.655v.227h.515v-.217c0-.12.063-.212.221-.212.154 0 .227.087.227.212v.39h-.15c-.467.01-.866.299-.866.838 0 .544.255.775.563.775zm.212-.443c-.125 0-.207-.115-.207-.4 0-.293.14-.423.313-.423h.135v.53c0 .163-.116.293-.241.293zM34.737 14.815c.337 0 .544-.212.654-.66l.617-2.725h-.515l-.28 1.613H35.2l-.328-1.613h-.587l.64 2.538-.053.23c-.033.117-.1.16-.202.16-.057 0-.125-.015-.202-.029l-.058.448c.097.024.197.038.328.038z"
            fill="#00466E" />
    </g>
    <defs>
        <clipPath id="pi-capitec_pay-clip0_1198_1061">
            <rect width="38" height="24" rx="2" fill="#fff" />
        </clipPath>
    </defs>
</svg>