<svg xmlns="http://www.w3.org/2000/svg" width="38" height="24" fill="none" aria-labelledby="pi-careempay" role="img" viewBox="0 0 38 24"><title id="pi-careempay">Careem Pay</title><path fill="#fff" d="M0 0h38v24H0z"/><path fill="#001942" d="M20.917 9.528c1.69 0 2.444.916 2.444 1.996 0 1.06-.896 1.996-2.302 1.996h-1.344v2.282h-1.202V9.528zm.122 2.994c.611 0 1.1-.428 1.1-.957 0-.611-.489-.957-1.1-.957h-1.324v1.914zm5.703.448c0-.631-.244-.998-.937-.998-.57 0-.855.326-.977.713l-1.06-.264c.204-.754.937-1.386 2.119-1.386 1.018 0 2.017.428 2.017 2.16v2.627h-1.06v-.835c-.285.489-.774.917-1.568.917-1.06 0-1.63-.632-1.63-1.467-.02-1.283 1.283-1.611 3.096-1.467m-1.181 1.976c.53-.02 1.1-.61 1.202-1.242-.937-.143-1.976.06-1.976.672-.02.387.265.59.774.57m2.485-3.85h1.263l1.08 3.036 1.08-3.036h1.263l-1.854 4.522c-.652 1.61-1.182 2.241-2.017 2.241-.244 0-.509-.04-.631-.06l-.143-1.06c1.019.163 1.202-.285 1.61-1.222l-1.65-4.42zM12.85 8h-2.159a3.517 3.517 0 0 0-3.503 3.504v2.159a3.517 3.517 0 0 0 3.503 3.504h2.16a3.517 3.517 0 0 0 3.503-3.504v-2.16C16.334 9.59 14.764 8 12.85 8m-2.362 1.65c.509 0 .916.407.916.917a.91.91 0 0 1-.916.916.914.914 0 0 1-.917-.916c.02-.51.428-.917.917-.917m1.588 6.213a3.277 3.277 0 0 1-3.28-3.28v-.203h1.447c0 .06-.02.142-.02.203 0 1.019.835 1.834 1.833 1.834.55 0 1.06-.245 1.406-.652l1.08.937a3.18 3.18 0 0 1-2.466 1.161m1.549-4.278a1.77 1.77 0 0 0-1.304-.815l.367-1.385a3.23 3.23 0 0 1 2.037 1.304z"/></svg>