<svg xmlns="http://www.w3.org/2000/svg" width="38" height="24" aria-labelledby="pi-careempay"><title id="pi-careempay">Careem Pay</title><path opacity=".07" fill="#000" d="M35 0H3C1.3 0 0 1.3 0 3v18c0 1.7 1.4 3 3 3h32c1.7 0 3-1.3 3-3V3c0-1.7-1.4-3-3-3z"/><path fill="#fff" d="M35 1c1.1 0 2 .9 2 2v18c0 1.1-.9 2-2 2H3c-1.1 0-2-.9-2-2V3c0-1.1.9-2 2-2h32"/><g clip-rule="evenodd" fill="#56b23f" fill-rule="evenodd"><path d="M10.241 5.514h.076a.18.18 0 00.093.02c-.011.006-.011.012 0 .018.03-.002.06.007.084.025.047.01.095.018.143.021v.025c.063.019.128.032.195.043v.025a.273.273 0 01.066.004c-.01.008-.006.014.01.017a.334.334 0 00.1.02v.027c.02-.002.04 0 .06.003-.012.006-.012.012 0 .017.032.013.066.021.101.025-.011.006-.011.012 0 .017a.602.602 0 00.142.047v.025c.044.019.09.033.136.042v.026a1.6 1.6 0 00.135.045c-.011.006-.011.012 0 .017.01.005.022.006.033.005v.025a.47.47 0 01.086.022l-.01.007a.249.249 0 00.119.055v.026c.035.016.072.03.109.042v.025a.071.071 0 01.033.004c-.01.006-.01.012 0 .017l.069.026c-.012.006-.012.01 0 .016.028.02.058.036.092.048v.024c.03.016.06.03.093.042v.026h.033v.025l.06.021-.01.009a.298.298 0 00.093.059c-.01.005-.01.011 0 .017.02.01.036.02.052.038.01.007.02.01.033.007v.026h.025v.025a.2.2 0 01.05.021c-.01.006-.01.012 0 .017a.257.257 0 00.077.046v.026h.025v.025c.025.003.04.016.042.042.024.016.05.03.076.042.006.034.033.06.067.067a.1.1 0 00.068.072l-.009.009a.04.04 0 01.026.038.2.2 0 01.05.02l-.008.01c.015.009.025.021.034.037a.039.039 0 00.033.017c0 .029.017.054.043.067.007.007.01.016.007.026h.026a.355.355 0 01.009.067.042.042 0 00-.026.005c-.011.005-.011.011 0 .016a.178.178 0 00-.084.06l.009.008a.68.68 0 00-.093.054c.002.005.004.01.009.014l-.052.024c-.011.006-.011.012 0 .017a.066.066 0 00-.033.017l.009.009a.095.095 0 00-.086.071.207.207 0 00-.083.047c-.012.005-.012.011 0 .017a.2.2 0 01-.05.02v.025h-.026v.026a.04.04 0 00-.034.009.036.036 0 01-.025.02l.008.01a.071.071 0 01-.034.004v.024l-.05.018v.025h-.026v.025a.392.392 0 00-.083.043v.024l-.052.017v.026h-.024v.025c-.029.013-.056.028-.085.042v.025a.264.264 0 00-.076.048c-.011.004-.011.01 0 .016l-.059.02v.026h-.025v.025l-.085.043v.024a.807.807 0 01-.16.11v.025a.492.492 0 00-.075.043v.025a.042.042 0 00-.026.004.05.05 0 01-.033.026l.008.007a.086.086 0 00-.034.014c.002.005.005.01.009.012a.093.093 0 00-.076.072.11.11 0 01-.042-.004l.009-.009a.04.04 0 01-.026-.038c-.026-.003-.04-.016-.042-.042a.042.042 0 01-.025-.005l.008-.007a.467.467 0 00-.11-.102c.011-.005.011-.011 0-.017a.292.292 0 01-.066-.066l-.035-.01c.012-.005.012-.01 0-.016a.068.068 0 00-.042-.022v-.024h-.025v-.026l-.051-.017v-.024a.296.296 0 00-.084-.043V8.12a.316.316 0 00-.093-.043v-.025a.686.686 0 00-.093-.042v-.025a.545.545 0 00-.1-.043v-.024a2.831 2.831 0 00-.12-.048c.012-.005.012-.01 0-.016a.365.365 0 00-.126-.05c.012-.006.012-.012 0-.017a.066.066 0 01-.05-.026.203.203 0 00-.084-.021v-.026a1.538 1.538 0 00-.16-.045c.01-.006.01-.012 0-.017a.095.095 0 01-.068-.026.76.76 0 00-.126-.025c.01-.005.01-.011 0-.017a.114.114 0 01-.076-.025 7.974 7.974 0 00-.16-.029.119.119 0 01-.005-.076c.01.01.015.006.017-.01l.009-.083c.008.01.014.007.017-.01.01-.057.017-.116.02-.176h.026a.17.17 0 01.021-.11c.014-.083.03-.164.05-.244a.062.062 0 00.018-.025l.025-.169.009.009a.304.304 0 00.012-.11h.025c.002-.06.01-.119.026-.177a.03.03 0 00.012-.008.44.44 0 01.012-.085.03.03 0 00.014-.008c.01-.058.018-.117.02-.177h.026a.61.61 0 01.004-.1c.01.009.014.006.017-.01a.595.595 0 00.021-.177h.026v-.092h.024l.017-.177z" opacity=".968"/><path d="M6.118 5.889c.126-.003.253 0 .38.008 0 .005.004.01.007.013.074.006.147.015.22.025-.012.006-.012.012 0 .017a.91.91 0 00.185.046v.025a.06.06 0 01.06.021c.026.012.054.02.083.026a.03.03 0 00-.008.012.06.06 0 00.042.009v.025a.194.194 0 01.067.017v.025c.015 0 .028 0 .043.004-.012.006-.012.011 0 .017.016.01.033.017.05.021v.026l.084.041v.026h.026v.026a.2.2 0 01.05.02c-.01.016-.003.022.017.021.003.026.018.04.042.043v.025h.026c.002.02.015.038.034.046-.008.014-.002.022.016.026l-.008.009a.412.412 0 01.085.1l-.01.009c.015.01.02.022.018.038h.025a.94.94 0 01.042.135h.026a.078.078 0 00.024.063.033.033 0 01-.007.016c.069.143.1.301.092.46h.026a.56.56 0 01-.021.202 2.716 2.716 0 01-.026.278c-.009-.01-.014-.006-.017.01a.273.273 0 00-.004.066h-.025a1.073 1.073 0 01-.042.186h-.026a.684.684 0 01-.046.127.122.122 0 00-.038.038 1.17 1.17 0 00-.05.104.04.04 0 00-.034.017.092.092 0 01-.034.038c.007.02-.001.03-.026.03 0 .018-.008.03-.024.037l.008.01a.2.2 0 01-.051.02c0 .018-.01.03-.025.039l.009.007a.2.2 0 01-.052.022v.025h-.024v.026a.25.25 0 00-.06.017v.024a.042.042 0 00-.025.005c-.011.006-.011.011 0 .016a.487.487 0 00-.067.022v.025a.071.071 0 00-.034.004c-.01.006-.01.012 0 .017a.476.476 0 00-.118.05c-.011.007-.011.012 0 .017-.054.015-.107.03-.16.047v.024a2.407 2.407 0 00-.228.047c-.01.005-.01.011 0 .017-.104.01-.207.016-.312.02A5.522 5.522 0 016 8.945c.012-.006.012-.012 0-.017a3.168 3.168 0 00-.235-.05c.011-.006.011-.012 0-.018-.05-.02-.1-.037-.152-.05.011-.006.011-.011 0-.017a.43.43 0 00-.118-.048V8.72a.545.545 0 00-.101-.042v-.026a.296.296 0 00-.085-.041.026.026 0 00-.008-.026.441.441 0 01-.143-.142.026.026 0 00-.025-.01l-.017-.05H5.09a.69.69 0 01-.043-.093c-.024 0-.032-.01-.026-.029a.062.062 0 00-.024-.017c.01-.01.006-.017-.009-.022a.06.06 0 01-.008-.041h-.026V8.14h-.026a.834.834 0 00-.017-.093h-.025a.05.05 0 00-.021-.05.667.667 0 01-.021-.128h-.026a.408.408 0 00-.004-.083.03.03 0 00-.012-.01 2.32 2.32 0 01-.025-.345c.002-.118.008-.237.017-.354h.024l.043-.219h.025l.047-.152.042-.042c.014-.034.03-.068.046-.101h.025a.69.69 0 01.043-.092h.025a.215.215 0 00.025-.068c.025-.003.04-.017.042-.043h.026a.096.096 0 01.05-.055l-.009-.007a.042.042 0 01.026-.005v-.026a.392.392 0 00.084-.041V6.2a.39.39 0 00.093-.042v-.025a.318.318 0 00.067-.021.056.056 0 01.043-.025c.011-.006.011-.011 0-.017a.722.722 0 00.135-.05c.01-.006.01-.012 0-.017.066-.013.132-.03.193-.05.012-.006.012-.012 0-.018.073-.011.146-.02.219-.025a.024.024 0 00.01-.021z" opacity=".975"/><path d="M21.3 11.308a.184.184 0 01-.068.08l.008.01a.092.092 0 00-.025.037.026.026 0 01-.026.008c0 .018-.01.03-.025.038l.009.008a.042.042 0 01-.026.004.213.213 0 01-.025.067c-.025.003-.04.018-.042.043h-.026a.135.135 0 01-.066.08l.007.008-.066.05c-.012.006-.012.012 0 .018a.264.264 0 01-.076.046v.025a.133.133 0 00-.076.06.269.269 0 01-.06.025v.025h-.025v.025a.19.19 0 00-.101.055l.008.01-.11.045v.026a.73.73 0 00-.117.041v.026a.696.696 0 00-.127.042v.025a.337.337 0 00-.093.021.08.08 0 01-.059.025c-.01.006-.01.011 0 .017a.806.806 0 00-.126.034l.009.009-.068.007c-.011.006-.011.012 0 .018a8.67 8.67 0 00-.236.047v.025a1.529 1.529 0 00-.228.028l.01.01-.136.008c-.012.005-.012.01 0 .016-.089 0-.176.006-.261.017-.669.002-1.338.006-2.006.013.01 1.163.011 2.326.003 3.49-.523.01-1.047.011-1.572.01V6.99c1.24 0 2.478 0 3.718.006-.011.005-.011.011 0 .017l.185.008c-.011.006-.011.012 0 .017.079.007.158.016.237.025-.012.006-.012.011 0 .017a.504.504 0 01.084.012c.002.006.004.01.009.014.05.01.1.016.152.02v.026a.088.088 0 01.075.021c.038.01.077.02.118.025-.011.006-.011.011 0 .017a.156.156 0 00.05.005v.024a.652.652 0 01.101.021c-.01.006-.01.012 0 .017a.156.156 0 00.051.005v.025a.489.489 0 01.084.02c-.01.006-.01.012 0 .018.038.02.076.036.119.047v.025a.838.838 0 00.109.046c-.012.005-.012.01 0 .017.01.004.022.006.034.004v.025a.21.21 0 00.059.017v.026h.033v.024a.207.207 0 00.06.018v.025h.025v.025l.05.017v.026c.01-.002.018 0 .026.003-.012.006-.012.012 0 .017a.086.086 0 01.034.013c.04.04.08.08.117.123a.064.064 0 00.042.02.062.062 0 010 .038.152.152 0 00.052.034l-.01.009a.04.04 0 01.026.038.04.04 0 01.034.016.09.09 0 00.059.067c.015.03.03.062.041.093h.026v.042c.021-.003.027.003.017.017.007.008.015.01.025.01v.04h.026a.046.046 0 00.025.048c-.01.014-.004.022.016.021v.05h.026a.935.935 0 01.042.135h.025a.078.078 0 00.026.063.033.033 0 01-.01.017.079.079 0 01.022.013c.002.02.006.04.013.059a.77.77 0 00.042.084c-.013.016-.01.027.009.034l.033.152h.026l.017.185h.025a.946.946 0 00.004.126c.006.011.01.011.016 0 .029.329.029.657 0 .987a.03.03 0 01-.012.008.964.964 0 00-.012.126c-.01-.01-.014-.006-.017.01-.01.058-.016.117-.021.176h-.026c.002.026 0 .051-.004.076l-.01-.01a1.224 1.224 0 00-.032.145c-.006-.011-.01-.011-.017 0-.026.072-.05.145-.072.219h-.025a.71.71 0 01-.042.134h-.026a.11.11 0 01-.041.081c.007.019-.001.029-.026.029v.05c-.014-.001-.022.005-.025.018zM17.05 8.4c.62-.01 1.24-.012 1.863-.005.042.011.084.017.127.017.015.003.019.009.01.017l.091.009c.012.005.012.01 0 .016.048.006.096.014.143.026a.08.08 0 00.06.025c.01.006.01.01 0 .016.05.009.098.026.142.052.012.005.012.011 0 .016.04.012.076.028.11.051.011.006.011.011 0 .016a.547.547 0 01.067.022v.025h.026v.025a.15.15 0 01.076.055l-.01.009c.035.01.06.037.069.071.01-.002.019.001.025.009a.206.206 0 00.042.046l-.008.009c.028.02.047.053.05.088h.026c.01.024.016.05.02.076.006-.011.012-.011.018 0a.111.111 0 00.025.059c.01.03.016.062.021.093h.025c.023.094.039.19.051.286.005.002.01.004.012.01.004.156.006.312.004.471h-.024c-.002.065-.01.13-.021.194a.088.088 0 00-.022.076h-.024a.505.505 0 01-.017.109h-.026a.344.344 0 01-.033.093 1.671 1.671 0 00-.118.176h-.025c-.003.026-.017.04-.042.043a.084.084 0 01-.067.067v.025h-.026v.026a.547.547 0 01-.067.02c.01.007.01.012 0 .018a.28.28 0 01-.102.05c.011.006.011.012 0 .017a.313.313 0 00-.084.038.084.084 0 01-.05.009v.025a.21.21 0 00-.06.004c.012.006.012.012 0 .017a.456.456 0 01-.135.025c.012.006.012.011 0 .017a.133.133 0 00-.084.026c-.095.013-.19.022-.287.024.012.006.012.012 0 .018-.59.006-1.18.005-1.77-.004.012-.91.012-1.817 0-2.723z" opacity=".973"/><path d="M24.837 9.592c.1-.01.202-.011.304-.004-.013.005-.013.01 0 .016.109.002.218.005.328.013.001.005.004.01.008.012.101.007.203.016.303.026-.011.006-.011.011 0 .017l.102.008c-.01.01-.007.014.009.017.052.011.106.018.16.02v.026c.024-.001.05 0 .075.004-.011.006-.011.011 0 .017l.126.026c-.01.005-.01.011 0 .017l.06.007c-.011.006-.011.012 0 .018.051.01.102.025.151.046v.026c.031.005.062.012.093.02l-.008.01a.244.244 0 00.117.053v.026a.544.544 0 00.102.042v.025c.028.016.06.03.093.043v.025a.597.597 0 00.083.046l-.007.009a.04.04 0 01.025.038l.05.017a.1.1 0 00.067.071l-.007.009a.04.04 0 01.024.038c.018 0 .033.009.043.025.005.015.012.03.021.042.014-.008.015-.003.004.012a.042.042 0 00.025.005v.025h.026a.057.057 0 00.008.034c.05.072.1.145.148.218.005.012.004.021-.005.03.02.013.028.031.026.055h.025c.017.052.033.105.046.161.038.067.063.14.072.219.005.001.01.004.012.008a.39.39 0 00.017.1l.009-.007c.011.1.02.201.026.304a.03.03 0 00.012.008c.009 1.466.011 2.933.009 4.4-.512.001-1.024 0-1.535-.004a15.057 15.057 0 01-.025-.712.215.215 0 00-.042.067.15.15 0 00-.076.055l.008.008c-.035.025-.069.052-.101.08a.76.76 0 01-.059.034v.025a.197.197 0 00-.093.055l.01.009a.561.561 0 00-.102.05c-.012.006-.012.011 0 .017a.478.478 0 00-.119.05c-.01.006-.01.012 0 .017a.366.366 0 00-.083.026.066.066 0 01-.052.025c-.011.005-.011.011 0 .017-.054.013-.107.03-.16.05-.01.006-.01.011 0 .017l-.134.026a.114.114 0 01-.076.024c-.011.006-.011.012 0 .018a1.463 1.463 0 00-.195.034l.01.008-.119.008c-.011.006-.011.011 0 .017a6.492 6.492 0 01-.43.026c-.015.002-.018.007-.008.017a3.357 3.357 0 01-.337 0c.01-.01.006-.015-.009-.017a5.481 5.481 0 01-.38-.026c.012-.006.012-.011 0-.017a4.044 4.044 0 00-.277-.05c.01-.006.01-.012 0-.018a1.987 1.987 0 00-.195-.05c.012-.006.012-.011 0-.017l-.05-.008.009-.008a.627.627 0 00-.102-.03v-.025a.696.696 0 00-.126-.043v-.025a1.268 1.268 0 00-.11-.042v-.025h-.034v-.026a.249.249 0 00-.058-.017v-.024a.598.598 0 00-.093-.048l.008-.007a.15.15 0 00-.076-.056v-.024h-.025l-.042-.068h-.025c-.003-.025-.017-.04-.043-.042a.214.214 0 00-.024-.067h-.026a.69.69 0 01-.042-.093h-.025a2.5 2.5 0 00-.047-.093c-.006-.011-.011-.011-.016 0a1.297 1.297 0 01-.072-.177h-.026a.612.612 0 00-.054-.177l-.01.009a.664.664 0 01-.02-.144h-.025a.276.276 0 00-.012-.11l-.01.01a4.4 4.4 0 010-.86c.01.009.015.006.018-.01l.008-.084a.03.03 0 01.013-.008.577.577 0 00.025-.135h.025a.21.21 0 01.004-.059.098.098 0 00.03-.05.32.32 0 01.034-.11h.025a.195.195 0 00.017-.067h.025a.11.11 0 01.005-.043.522.522 0 01.097-.117l.033-.069h.026c.002-.024.017-.039.041-.041v-.026h.026v-.025c.025-.003.039-.017.042-.042h.025v-.025a.489.489 0 00.076-.043v-.025c.013.002.024 0 .034-.009a.116.116 0 01.058-.042.03.03 0 00-.007-.012.547.547 0 00.066-.021v-.026h.043v-.024a.317.317 0 00.067-.022.056.056 0 01.042-.025c.012-.006.012-.011 0-.017.032-.008.063-.015.093-.02v-.026h.05v-.025a.308.308 0 00.102-.022.095.095 0 01.068-.025c.011-.005.011-.011 0-.017a.938.938 0 00.142-.033l-.008-.01a.425.425 0 01.085-.003v-.025a.898.898 0 00.194-.03l-.009-.008c.042-.005.085-.006.126-.005v-.024c.14-.01.281-.017.422-.022.015-.002.019-.008.01-.016.675-.005 1.353-.006 2.03-.005.002-.09 0-.18-.004-.27l-.01-.025-.007.01a4.868 4.868 0 00-.02-.229H26a.088.088 0 00-.021-.076.469.469 0 01-.021-.085h-.026a.344.344 0 00-.034-.092.079.079 0 01-.042-.067.04.04 0 00-.033-.018.097.097 0 00-.068-.07l.01-.01a.15.15 0 00-.077-.055v-.024a.544.544 0 00-.101-.043v-.025a.406.406 0 00-.127-.042v-.025a1.46 1.46 0 01-.11-.034.178.178 0 00-.076-.009v-.024a6.833 6.833 0 01-.185-.035 1.88 1.88 0 00-.176-.012c.01-.006.01-.011 0-.017-.166-.004-.333-.006-.498-.004v.025a1.51 1.51 0 00-.32.03l.009.009-.093.007c-.012.006-.012.012 0 .017a.802.802 0 00-.186.034l.01.01-.077.007c-.012.005-.012.011 0 .017a.759.759 0 00-.127.025.095.095 0 01-.067.025c-.012.006-.012.012 0 .017a.517.517 0 00-.11.025.08.08 0 01-.06.026c-.01.005-.01.011 0 .017a.939.939 0 00-.151.046v.025a.156.156 0 00-.05.005.588.588 0 01-.093.038v.024a.218.218 0 00-.076.022.056.056 0 01-.042.025c-.012.005-.012.011 0 .017a.365.365 0 00-.085.026c-.01.004-.01.01 0 .016a.11.11 0 01-.042.004v.025a.188.188 0 00-.066.017.078.078 0 01-.048-.025.758.758 0 00-.02-.085h-.026a1.39 1.39 0 01-.042-.134h-.026a3.503 3.503 0 00-.066-.177h-.026a.07.07 0 00-.038-.076.624.624 0 01-.047-.127h-.025v-.05h-.024a.037.037 0 01.008-.03.053.053 0 01-.026-.054h-.025v-.05h-.025a.68.68 0 00-.047-.127c-.005-.011-.01-.011-.016 0a.201.201 0 00-.026-.076c-.006-.011-.01-.011-.016 0a.433.433 0 01-.014-.085h.035v-.025h.041v-.025a.218.218 0 00.076-.022.056.056 0 01.043-.024c.01-.006.01-.012 0-.017a.365.365 0 00.084-.026c.011-.006.011-.01 0-.016a.17.17 0 00.05-.013.03.03 0 00-.009-.013.869.869 0 00.093-.025c.012-.006.012-.01 0-.017a.17.17 0 00.052-.013.03.03 0 00-.01-.012.869.869 0 00.093-.026c.012-.006.012-.011 0-.016a.156.156 0 01.052-.005v-.025a.9.9 0 00.151-.042v-.026a.337.337 0 00.093-.02.08.08 0 01.058-.025c.012-.006.012-.012 0-.017a2.61 2.61 0 00.186-.047v-.026a.398.398 0 00.135-.028l-.01-.01a.345.345 0 01.077-.003v-.026c.051-.004.102-.011.152-.02a.03.03 0 00.01-.013.44.44 0 01.083-.013c.011-.005.011-.01 0-.017.07-.006.142-.019.21-.034l-.008-.008.127-.008c.01-.006.01-.011 0-.017.118-.01.236-.019.353-.026a.03.03 0 00.01-.012c.13-.008.263-.011.396-.013.01-.006.01-.01 0-.013zm-.54 3.793h1.77v.446h-.025a.368.368 0 01-.063.211c-.006.012-.005.021.004.03a.053.053 0 00-.025.055h-.026v.041c-.02-.002-.026.003-.017.018a.026.026 0 01-.024.009.216.216 0 01-.076.11.026.026 0 00-.01.024h-.025c-.002.026-.017.04-.041.043v.024a.042.042 0 00-.026.005c.011.006.011.01 0 .016a.108.108 0 01-.05.026.03.03 0 01.008.012.04.04 0 01-.034.01v.024a.249.249 0 01-.059.017v.025h-.034v.026l-.076.02c.011.006.011.012 0 .018a.515.515 0 01-.126.05.03.03 0 01.01.012.228.228 0 01-.06.014c.01.005.01.011 0 .017-.037.01-.073.018-.11.024.012.006.012.012 0 .018l-.067.008c.01.006.01.012 0 .017a1.522 1.522 0 01-.16.025.03.03 0 01.008.012l-.11.017a.03.03 0 01-.008.014 3.733 3.733 0 01-.784 0c-.015-.003-.019-.01-.01-.017l-.092-.01c-.01-.005-.01-.01 0-.016a2.02 2.02 0 01-.126-.025c-.011-.005-.011-.011 0-.017l-.05-.01c-.012-.004-.012-.009 0-.016a.52.52 0 01-.076-.024c-.011-.006-.011-.012 0-.017a.11.11 0 00-.043-.005v-.025a.197.197 0 01-.092-.055l.009-.008a.13.13 0 01-.048-.03 1.944 1.944 0 01-.087-.117.057.057 0 01-.01-.035h-.024a5.936 5.936 0 00-.047-.168c-.008.01-.014.007-.016-.01a.905.905 0 01.004-.403.03.03 0 00.012-.01.2.2 0 00.005-.058c.008.002.017 0 .025-.004l-.009-.008a.19.19 0 00.026-.055h.025a.084.084 0 01.06-.067v-.026a.485.485 0 01.108-.046c-.01-.006-.01-.011 0-.017a.538.538 0 01.178-.05c-.012-.006-.012-.012 0-.018a.817.817 0 01.228-.038c.095-.006.19-.011.286-.012-.01-.007-.01-.013 0-.02zm1.77 1.889c.015 0 .02.006.009.016-.007-.004-.01-.01-.009-.016z" opacity=".972"/><path d="M34.321 9.77v.043a.098.098 0 01-.034.054.03.03 0 01.009.017.078.078 0 00-.026.063h-.025a.837.837 0 00-.017.092h-.025c.002.02 0 .04-.004.06a.156.156 0 00-.038.092h-.026v.052h-.024a.806.806 0 01-.043.152h-.025a.837.837 0 01-.017.092H34a.228.228 0 00-.033.109c-.019.006-.022.016-.01.03a.078.078 0 00-.024.063h-.025a.837.837 0 00-.017.093h-.025a.207.207 0 01-.004.059.644.644 0 01-.048.063c.008.009.01.018.01.029h-.026a2.305 2.305 0 00-.066.203h-.027a.837.837 0 01-.016.092h-.026a1.87 1.87 0 01-.067.202h-.026a5.096 5.096 0 00-.02.102c-.01-.01-.015-.007-.018.008a.6.6 0 00-.045.135h-.026l-.03.11a.079.079 0 01-.02.013c.004.005.007.01.008.016a.078.078 0 00-.025.064h-.026a.837.837 0 01-.016.093h-.026v.066h-.025a1.39 1.39 0 01-.042.136h-.026a.505.505 0 00-.017.109h-.024v.051h-.026l-.017.084h-.025a.805.805 0 00-.043.16h-.024a.71.71 0 00-.043.135h-.025c.001.02 0 .04-.004.059a.644.644 0 01-.047.064c.01.009.01.019.005.028a.644.644 0 01-.047.065l.009.007a.181.181 0 00-.03.09c-.005-.012-.011-.012-.017 0a.155.155 0 00-.003.05h-.026a1.6 1.6 0 01-.021.093c-.006-.012-.011-.012-.017 0a.515.515 0 00-.047.152h-.024a2.502 2.502 0 00-.068.201h-.025a.053.053 0 01-.026.055c.01.01.01.019.005.03a.644.644 0 01-.048.063c.008.027 0 .05-.024.067.007.009.01.019.01.03h-.027v.05h-.025a1.6 1.6 0 01-.021.093c-.006-.011-.011-.011-.017 0a.203.203 0 00-.005.06h-.025v.05a.042.042 0 00-.025.004c.007.012.01.024.01.038h-.027a2.398 2.398 0 00-.067.202h-.025a.838.838 0 00-.017.093h-.026a.053.053 0 01-.025.055l.009.01a.337.337 0 00-.026.086h-.026v.052h-.024a.647.647 0 01-.043.152h-.025v.05a.042.042 0 00-.025.004.06.06 0 01.008.038h-.025a2.507 2.507 0 00-.067.202h-.025a.838.838 0 00-.018.093h-.025a.21.21 0 01-.004.059.156.156 0 00-.038.093h-.026v.05h-.024a.804.804 0 01-.043.152h-.025v.05a.042.042 0 00-.025.004.06.06 0 01.008.038h-.025a.228.228 0 00-.034.11c-.019.006-.021.015-.01.03a.078.078 0 00-.024.063h-.025a.838.838 0 00-.017.092h-.025a.21.21 0 01-.004.06.64.64 0 01-.047.063c.007.008.01.019.009.03h-.026a2.656 2.656 0 00-.067.202h-.026a.838.838 0 01-.016.093h-.025a1.485 1.485 0 01-.068.202h-.025l-.021.1c-.009-.009-.015-.006-.017.01a.598.598 0 00-.046.134h-.026c-.026.066-.049.133-.067.202h-.026a.838.838 0 01-.017.093h-.024v.068h-.026c-.012.045-.026.09-.042.134h-.025a.97.97 0 01-.042.16h-.026a.218.218 0 01-.02.077l-.043.066-.01.051a.078.078 0 01-.02.013c.008.012.01.024.01.038h-.026a.71.71 0 00-.043.136h-.024v.066h-.026a.053.053 0 01-.026.055c.01.01.01.02.005.03-.03.052-.059.105-.085.16a.155.155 0 00-.003.05h-.026a1.595 1.595 0 01-.02.093c-.007-.011-.012-.011-.018 0a.515.515 0 00-.046.152h-.025c-.015.035-.03.071-.043.11h-1.619l.017-.085h.026v-.05h.025l.017-.085h.026v-.066h.024v-.052c.01.001.018 0 .026-.003a.055.055 0 01-.009-.038h.026c.019-.05.035-.101.05-.152a.05.05 0 00.017-.05h.026a.469.469 0 01.02-.086.432.432 0 00.067-.151.331.331 0 00.038-.059.247.247 0 00.026-.084h.026c.026-.067.049-.133.067-.203h.026a.838.838 0 01.016-.093h.025c.017-.066.04-.133.068-.202h.025a.838.838 0 00.017-.093h.025a.053.053 0 01.026-.054l-.01-.01a.426.426 0 01.026-.087h.026a.05.05 0 01.017-.051.247.247 0 00.025-.084h.025v-.067h.026a.583.583 0 00.017-.093h.024a.71.71 0 00.043-.135h.025v-.068h.025c.012-.045.026-.09.042-.135h.026l.02-.102.01.01a.19.19 0 00.016-.06c.009.01.015.007.017-.009a.469.469 0 00.021-.084h.025v-.05h.026a.804.804 0 01.041-.152h.026a.838.838 0 01.017-.093h.025c.017-.05.032-.101.047-.152.008.01.014.007.016-.008a.11.11 0 00.004-.043h.026a.224.224 0 01.067-.147v-.067a.053.053 0 01-.025-.055h-.025a.71.71 0 00-.043-.135h-.024a.838.838 0 01-.017-.092h-.026v-.043h-.025a.055.055 0 01.009-.038.042.042 0 00-.026-.004v-.05h-.026a.593.593 0 01-.041-.136h-.026a.11.11 0 00-.004-.042l-.067-.151c-.006-.012-.012-.012-.017 0a1.595 1.595 0 01-.021-.093h-.026v-.05h-.024l-.018-.085h-.025v-.05h-.024a.037.037 0 01.008-.03.053.053 0 01-.025-.055h-.026a.155.155 0 00-.003-.05c-.006-.012-.012-.012-.018 0a.704.704 0 00-.05-.135c-.006-.012-.011-.012-.017 0a3.07 3.07 0 00-.046-.152h-.026a.837.837 0 00-.016-.092h-.026a.71.71 0 01-.042-.136h-.025a1.39 1.39 0 01-.042-.135h-.026a.722.722 0 01-.041-.135h-.026a.103.103 0 00-.012-.058l-.01.009c-.015-.055-.031-.106-.045-.152h-.026a1.01 1.01 0 01-.042-.136h-.026a.71.71 0 00-.041-.134h-.026a.055.055 0 01.01-.038.042.042 0 00-.026-.004v-.052h-.026v-.041h-.025a.055.055 0 01.01-.038.042.042 0 00-.027-.004v-.051h-.025a.593.593 0 01-.043-.135h-.025a.21.21 0 00-.004-.059c-.006-.011-.01-.011-.016 0a.366.366 0 00-.026-.085.066.066 0 01-.026-.05c-.005-.011-.01-.011-.016 0a1.6 1.6 0 01-.022-.093h-.024v-.05h-.026l-.017-.085h-.025v-.05h-.025a.037.037 0 01.008-.03.053.053 0 01-.025-.055h-.025a.155.155 0 00-.005-.05.98.98 0 01-.059-.093.19.19 0 00-.017-.059l-.008.01a2.868 2.868 0 01-.046-.145h-.026a.837.837 0 00-.017-.093h-.024a.71.71 0 01-.043-.134h-.025a1.39 1.39 0 01-.043-.135h-.024a.103.103 0 00-.013-.06l-.009.01a.758.758 0 00-.02-.085H28.2a.103.103 0 00-.012-.059l-.008.009a6.231 6.231 0 00-.047-.152h-.025a.71.71 0 00-.042-.135h-.025a.71.71 0 00-.043-.135h-.024a.055.055 0 01.008-.038.042.042 0 00-.026-.004v-.05h-.025v-.043h-.025a.582.582 0 00-.017-.093h-.026a.895.895 0 01-.046-.142.066.066 0 01-.025-.051c-.006-.012-.011-.012-.017 0a.173.173 0 00-.038-.093.083.083 0 01-.008-.05h-.025l-.017-.085h-.026v-.05h-.025l-.017-.085c.568-.003 1.135 0 1.703.01.022.012.03.032.025.057h.026a.037.037 0 01-.01.03c.025.019.034.04.026.067.017.02.033.042.048.064.004.01.003.02-.005.03.019.012.028.03.025.054h.025a.884.884 0 01.042.16h.026l.076.203a.03.03 0 00.012-.01c.012.052.03.1.051.145a.858.858 0 01.046.088l-.008.009c.017.02.032.04.046.062.005.012.004.021-.004.03.017.02.032.041.046.063a.127.127 0 00.013.038c-.01.008-.009.015.004.021l.008-.008c.01.033.017.067.022.101h.025l.076.202a.03.03 0 00.013-.008c.012.05.028.099.05.143a.864.864 0 01.047.089l-.01.009c.017.02.033.04.048.063.005.01.003.02-.005.028.017.02.032.042.046.064a.127.127 0 00.013.038c-.01.008-.009.015.005.022l.008-.01c.01.033.017.067.021.102h.025l.076.202a.03.03 0 00.013-.009.691.691 0 00.05.144.88.88 0 01.047.089l-.01.009c.017.02.033.04.048.062.005.012.004.021-.005.03.017.02.033.041.047.063a.127.127 0 00.012.038c-.01.008-.008.014.005.021l.008-.008c.01.033.017.067.021.101h.026l.038.1a.155.155 0 01.003.051h.026a.083.083 0 00.009.051.03.03 0 00.012-.01c.03.07.057.14.08.213l.055.092c.005.011.004.02-.005.03.017.02.033.04.047.063.004.019.005.039.004.059h.025c.007.03.013.061.017.093h.026v.041h.024a.055.055 0 01-.007.038c.01.004.017.012.02.022a.533.533 0 00.034.092c.006.012.011.012.017 0 .028.083.06.159.093.228l.042-.084a.155.155 0 00.004-.05c.01 0 .018 0 .025-.005a.055.055 0 01-.008-.038h.025v-.067h.026a.053.053 0 01.025-.055.055.055 0 01-.009-.038h.026a.21.21 0 01.004-.059.196.196 0 00.042-.101.03.03 0 00.013.008.142.142 0 00.008-.067h.026a.837.837 0 01.016-.093h.026v-.067h.025a.837.837 0 00.016-.093h.026a.21.21 0 01.004-.06.783.783 0 00.06-.117.11.11 0 00.003-.042h.026a.796.796 0 01.042-.16h.025a.505.505 0 00.017-.11h.025a.11.11 0 01.005-.042.188.188 0 00.042-.11l.041-.058c.016-.054.03-.104.048-.152h.025a.505.505 0 00.017-.11h.024v-.05h.026l.02-.101.043-.06a1.68 1.68 0 01.047-.152h.025l.017-.11h.025a.598.598 0 01.085-.214.32.32 0 01.075-.16l-.008-.009a.337.337 0 00.025-.088h.025a.576.576 0 00.025-.118c.01 0 .018 0 .026-.005a.055.055 0 01-.01-.038h.026c.03-.104.067-.208.11-.311h.025a.576.576 0 00.026-.119.04.04 0 00.025-.004.055.055 0 01-.01-.038h.027v-.067h.025a.053.053 0 01.026-.055.055.055 0 01-.01-.038h.027a.21.21 0 01.004-.059.196.196 0 00.041-.1.03.03 0 00.014.007.142.142 0 00.008-.066h.025a.837.837 0 01.017-.093h.026v-.043h1.601z" opacity=".97"/><path d="M3.667 10.762c.668-.001 1.336 0 2.006.005l.012.012.009.363.017.017c.005.093.012.185.02.278h.026a.364.364 0 00.008.11.03.03 0 00.013-.01c.006.058.013.114.021.17h.026a.133.133 0 00.024.1.086.086 0 01-.008.026c.018.02.027.048.025.076h.026a.1.1 0 00.025.084c-.012.016-.007.027.013.034l.008.05.047.077c-.012.017-.006.025.016.024-.002.02.003.041.013.06l.01-.01a.084.084 0 00.028.06c-.012.018-.006.026.017.025v.043h.025a.084.084 0 00.009.05c.033.048.066.095.097.143.004.01.005.022.004.034h.025v.043c.02-.004.026.002.017.016.007.007.015.01.025.01.012.03.027.061.043.091.023 0 .032.01.024.03.016.013.03.028.043.046.007.008.015.01.025.009.012.02.02.043.025.066h.026a.266.266 0 00.059.093h.025c.003.025.018.041.042.048l-.01.007c.021.026.047.046.077.06l-.008.009c.02.025.047.045.076.058l-.01.01c.01.008.022.013.035.015-.01.006-.01.012 0 .017a.07.07 0 00.043.021v.026h.024v.025l.06.02c-.011.006-.011.012 0 .018a.26.26 0 00.076.046v.026c.028.016.06.03.092.042v.025c.032.017.067.032.102.047l-.01.007c.013.01.028.016.043.017-.012.006-.012.012 0 .017.02.014.043.021.067.021v.026a.881.881 0 00.119.047l-.01.007a.11.11 0 00.052.017c-.012.006-.012.012 0 .017.026.013.055.02.084.021v.026a.712.712 0 00.135.042v.025c.054.018.11.033.168.042v.026c.063.019.127.033.195.041v.026c.081.02.165.036.252.047-.011.005-.011.011 0 .017l.11.007c-.01.01-.007.015.009.017.105.014.213.022.32.026-.011.006-.011.011 0 .017.188.005.376.005.565 0 .01-.006.01-.011 0-.017.107-.005.213-.013.32-.026a.03.03 0 00.008-.012.73.73 0 01.11-.012c.01-.006.01-.012 0-.017a1.02 1.02 0 00.186-.035l-.01-.008.076-.009c.012-.004.012-.01 0-.016.047-.006.091-.015.136-.025.011-.006.011-.012 0-.018l.059-.008c.011-.005.011-.01 0-.016a.603.603 0 00.168-.055.03.03 0 00-.008-.013l.1-.021v-.025a.11.11 0 00.043-.005c.01-.006.01-.01 0-.016a.981.981 0 00.135-.048v-.024a.484.484 0 01.076-.017v-.025h.033v-.026a.19.19 0 00.11-.055l-.008-.007a.209.209 0 00.067-.026c.01-.006.01-.011 0-.017a.071.071 0 01.034-.004v-.025a.25.25 0 00.059-.018v-.024h.034v-.026a.164.164 0 00.084-.05.03.03 0 00-.01-.013l.06-.021v-.025c.01 0 .018 0 .025-.005.012-.005.012-.011 0-.017l.076-.045v-.026c.026-.003.04-.017.043-.042h.025v-.025c.025-.003.04-.018.042-.043h.025v-.025a.206.206 0 00.068-.055l-.01-.008a.042.042 0 01.027-.004.111.111 0 01.034-.055l-.01-.009a.21.21 0 01.06-.004v.025a.071.071 0 01.034.005c-.011.005-.011.011 0 .017.02.01.038.019.059.025l-.01.009a.177.177 0 00.086.058l-.01.01c.01.008.022.014.035.016l-.009.008a.247.247 0 00.06.029v.026c.024.016.05.03.076.042v.026l.083.041v.026h.026v.025a.21.21 0 00.059.017v.025c.024.017.05.03.076.042v.026a.597.597 0 00.084.045c-.011.006-.011.012 0 .017a.042.042 0 00.025.005v.025l.051.017v.026a.392.392 0 00.084.041v.026h.026v.025l.05.017v.025a.04.04 0 01.034.009c.013.017.03.03.05.038-.011.006-.011.01 0 .016a.042.042 0 00.026.005v.025l.059.021-.009.009c.01.008.022.014.034.016-.01.006-.01.011 0 .017.017.01.033.016.05.021v.026a.597.597 0 00.085.046l-.01.009a.17.17 0 00.086.059l-.01.008c.01.009.022.014.035.016-.011.006-.011.012 0 .017.019.01.038.02.059.026l-.009.009c.01.008.022.014.034.016l-.008.01c.035.025.072.054.11.087.01.008.02.01.033.008a.133.133 0 010 .093h-.025v.026a.068.068 0 00-.042.02c-.012.006-.012.012 0 .018a.042.042 0 01-.026.004v.025h-.024a.083.083 0 01-.042.054l.01.01a.042.042 0 01-.026.004c.002.025-.01.04-.035.041v.026c-.025.003-.038.017-.041.042h-.026v.025c-.026.003-.039.017-.042.042h-.025v.026c-.026.003-.04.017-.042.042h-.026v.025a.232.232 0 00-.084.055l.008.008c-.028.003-.046.019-.05.047a.042.042 0 00-.026.004.292.292 0 01-.084.076l.01.009a.598.598 0 00-.086.045v.026l-.084.042v.025a.69.69 0 00-.093.042v.026a.346.346 0 00-.067.03l.008.008a.907.907 0 00-.134.084l.008.009-.11.046v.025l-.066.017v.026h-.043v.024a1.263 1.263 0 00-.11.043v.025a.73.73 0 00-.118.042v.025a.47.47 0 00-.085.021c-.01.006-.01.011 0 .017l-.041.01c-.012.004-.012.009 0 .016a2.42 2.42 0 00-.144.046v.025a.083.083 0 00-.05.01.173.173 0 01-.093.037c-.011.005-.011.01 0 .017a.82.82 0 00-.16.05c-.012.006-.012.011 0 .017a2.07 2.07 0 00-.186.046v.025c-.068.01-.135.025-.202.043v.025a.878.878 0 00-.143.021.03.03 0 00-.009.013.445.445 0 01-.084.012c-.012.006-.012.011 0 .017a5.217 5.217 0 00-.177.026.03.03 0 00-.01.012.363.363 0 01-.109.009v.025c-.138.01-.276.025-.413.046-.01.006-.01.011 0 .017a9.867 9.867 0 01-1.297 0c.011-.006.011-.011 0-.017a7.81 7.81 0 00-.413-.05c.011-.006.011-.012 0-.018l-.102-.008.01-.008-.026-.01a.868.868 0 00-.178-.024c.012-.006.012-.011 0-.017a1.754 1.754 0 00-.227-.05c.01-.006.01-.012 0-.017a1.438 1.438 0 00-.203-.05c.012-.006.012-.012 0-.018A.095.095 0 017.1 15.8a.483.483 0 00-.11-.022v-.025a.21.21 0 01-.06-.005l.01-.008a.481.481 0 00-.12-.033c.012-.006.012-.012 0-.018a.111.111 0 01-.058-.024.203.203 0 00-.085-.022v-.025a.598.598 0 00-.134-.043v-.024a1.148 1.148 0 00-.135-.048c.011-.004.011-.01 0-.016a.478.478 0 00-.118-.05l.009-.01a.326.326 0 00-.127-.058l.009-.009a.19.19 0 00-.11-.054v-.025a.546.546 0 00-.101-.043v-.024h-.034v-.026a.319.319 0 01-.068-.02c.012-.006.012-.012 0-.018l-.176-.114v-.025a.256.256 0 01-.119-.089.111.111 0 00-.059-.024l.009-.01a.15.15 0 00-.076-.054v-.026a.497.497 0 00-.076-.041v-.026a.114.114 0 01-.076-.067 7.987 7.987 0 00-.076-.047l.01-.008a.525.525 0 01-.102-.101.068.068 0 00-.043-.021.245.245 0 00-.084-.102.057.057 0 01-.008-.033h-.026l-.017-.051c-.024-.002-.039-.016-.041-.042H4.88a.987.987 0 00-.085-.135h-.024a.057.057 0 00-.034-.046l.01-.009a.209.209 0 00-.07-.059v-.033a.042.042 0 00-.025-.005l-.016-.05h-.026v-.042a.042.042 0 01-.025-.004l.01-.009-.081-.104a.074.074 0 01-.013-.043h-.025a.042.042 0 00-.004-.026c-.006-.011-.012-.011-.017 0-.006-.01-.005-.02.003-.028a.27.27 0 00-.07-.09 1.455 1.455 0 01-.12-.227.085.085 0 01-.037-.076h-.025v-.05h-.028l-.017-.085h-.024v-.05h-.025a1.308 1.308 0 00-.029-.11l-.01.009a.156.156 0 01-.003-.051h-.025a.835.835 0 00-.018-.093h-.024v-.067h-.026a.324.324 0 01-.017-.11h-.025v-.067h-.025c0-.04-.008-.08-.021-.118-.003-.015-.009-.02-.017-.01a.253.253 0 00-.017-.076l-.009.01a2.26 2.26 0 01-.02-.143h-.025c0-.029 0-.057-.005-.085a.03.03 0 00-.013-.009.835.835 0 00-.042-.176.262.262 0 01-.008-.093h-.026a7.15 7.15 0 00-.02-.237.06.06 0 00-.021-.016v-.894z" opacity=".978"/></g></svg>