<svg xmlns="http://www.w3.org/2000/svg" viewBox="0 0 38 24" width="38" height="24" role="img" aria-labelledby="pi-carte_bleue"><title id="pi-carte_bleue">Carte Bleue</title><g clip-path="url(#carte_bleue_clip0_15_58)"><path d="M35 .001H3c-1.7 0-3 1.3-3 3v18C0 22.7 1.4 24 3 24h32c1.7 0 3-1.3 3-3V3c0-1.7-1.4-3-3-3v.001z" fill="#2D2341" fill-opacity=".07"/><path d="M35 1c1.1 0 2.001.9 2.001 2v18a2.006 2.006 0 01-2 2H3A2.007 2.007 0 011 21V3c0-1.1.9-2 2.001-2h32z" fill="#fff"/><path d="M30 4H8v16h22V4z" fill="url(#carte_bleue_paint0_linear_15_58)"/><path d="M19.762 11.94v3.623h6.563c.95-.04 1.734-.814 1.734-1.792 0-.977-.785-1.79-1.734-1.832h-6.563zM27.935 9.986c0-.937-.743-1.67-1.693-1.67h-6.48v3.339h6.604c.908-.082 1.569-.814 1.569-1.67zM14.727 11.613h4.706c-.041-.936-.29-1.873-.99-2.484-.868-.732-2.354-.977-3.716-.977-1.403 0-2.93.285-3.797 1.059-.743.651-.908 1.75-.908 2.728 0 1.017.33 2.198 1.114 2.89.867.733 2.27.896 3.591.896 1.321 0 2.725-.204 3.55-.896.867-.692 1.156-1.832 1.156-2.89h-4.706v-.326z" fill="#fff"/></g><defs><linearGradient id="carte_bleue_paint0_linear_15_58" x1="18.993" y1="3.989" x2="18.993" y2="19.987" gradientUnits="userSpaceOnUse"><stop stop-color="#1B1F46"/><stop offset=".351" stop-color="#1B1F46"/><stop offset=".474" stop-color="#2E467E"/><stop offset=".551" stop-color="#3665A9"/><stop offset=".593" stop-color="#3665A8"/><stop offset=".631" stop-color="#3565A2"/><stop offset=".67" stop-color="#369"/><stop offset=".707" stop-color="#30668C"/><stop offset=".745" stop-color="#2D667A"/><stop offset=".782" stop-color="#296663"/><stop offset=".818" stop-color="#256449"/><stop offset=".849" stop-color="#216230"/><stop offset="1" stop-color="#216230"/></linearGradient><clipPath id="carte_bleue_clip0_15_58"><path fill="#fff" d="M0 0h38v24H0z"/></clipPath></defs></svg>