<svg xmlns="http://www.w3.org/2000/svg" role="img" viewBox="0 0 38 24" width="38" height="24" aria-labelledby="pi-cartes_bancaires"><title id="pi-cartes_bancaires">Cartes Bancaires</title><path fill="#000" opacity=".07" d="M35 0H3C1.3 0 0 1.3 0 3v18c0 1.7 1.4 3 3 3h32c1.7 0 3-1.3 3-3V3c0-1.7-1.4-3-3-3z"/><path fill="url(#pi-cartes_bancaires-bg)" d="M35 1c1.1 0 2 .9 2 2v18c0 1.1-.9 2-2 2H3c-1.1 0-2-.9-2-2V3c0-1.1.9-2 2-2h32"/><path d="M359.76,172.39L377.69,176.41C391.283,180.103 404.573,185.387 417.56,192.26L436.24,204.32C444.133,210.28 451.377,216.933 457.97,224.28C468.75,236.533 477.46,250.08 484.1,264.92C491.547,282.307 496.263,300.463 498.25,319.39L498.88,325.76C498.884,325.797 498.885,325.833 498.885,325.87C498.885,326.477 498.387,326.978 497.78,326.98L488.04,327.03L463.22,327.01L364.28,327.01L314.43,327.03C314.189,327.03 313.99,327.229 313.99,327.47L313.97,358.76C313.97,359.149 314.291,359.47 314.68,359.47L347.03,359.44L392.51,359.36L455.5,359.39L476.03,359.37L497.93,359.27C497.934,359.27 497.938,359.27 497.942,359.27C498.436,359.27 498.842,359.676 498.842,360.17C498.842,360.19 498.841,360.21 498.84,360.23C497.793,375.25 495.07,389.85 490.67,404.03C481.463,433.73 465.017,458.42 441.33,478.1C434.7,482.97 427.99,488.11 421.1,492.01C414.607,495.677 407.88,499.007 400.92,502C390.773,505.96 380.283,509.25 369.45,511.87C358.57,514.083 347.61,515.697 336.57,516.71C323.27,517.67 310.147,517.68 297.2,516.74C284.933,515.8 273.123,514.087 261.77,511.6L238.33,504.64L222.81,498.06C213.743,493.66 205.42,488.693 197.84,483.16C194.92,481.02 191.367,478.213 187.18,474.74C179.267,467.567 172.037,459.82 165.49,451.5C149.837,429.727 139.937,405.473 135.79,378.74C134.997,373.607 134.313,368.713 133.74,364.06C133.493,359.447 133.287,355.093 133.12,351C130.62,288.62 154.03,229.02 209.21,195.62C221.257,188.393 234.053,182.7 247.6,178.54C266.753,172.68 286.397,169.49 306.53,168.97C310.04,168.99 313.69,168.59 316.97,168.67C332.75,169.1 344.72,169.82 359.76,172.39Z" fill="#fff" transform="matrix(.0373 0 0 .0321 1 1)"/><path d="M543.53,178.39L564.53,178.48L615.29,178.46L626.64,178.39L658.03,178.43L695.21,178.41L715.29,178.46L742.47,178.47C754.77,178.27 765.197,178.96 773.75,180.54C775.25,180.813 778.343,181.547 783.03,182.74C791.683,185.62 799.43,190.06 806.27,196.06C821.137,209.253 829.46,225.9 831.24,246C831.54,249.353 831.53,254.247 831.21,260.68C830.883,262.76 830.52,264.863 830.12,266.99C826.12,288.283 815.17,304.643 797.27,316.07C791.15,319.983 784.14,322.75 776.24,324.37C766.087,326.103 757.34,326.973 750,326.98C729.9,327.007 709.807,327.017 689.72,327.01L640.23,327.03L610.96,327.03L552.22,327.08L529.14,326.99C528.66,326.99 528.42,326.75 528.42,326.27L528.39,210.79L528.46,182.34L528.39,178.97C528.39,178.966 528.39,178.963 528.39,178.959C528.385,178.641 528.647,178.375 528.971,178.37C528.974,178.37 528.977,178.37 528.98,178.37L543.53,178.39Z" fill="#fff" transform="matrix(.0373 0 0 .0321 1 1)"/><path d="M544.02,359.28L600.29,359.41L629.53,359.47L686.76,359.42C710.667,359.473 734.58,359.523 758.5,359.57C761.013,359.57 764.993,359.987 770.44,360.82C794.68,363.74 814.59,379.34 824.72,401.32C830.253,413.787 832.43,426.597 831.25,439.75C828.89,466.217 816.147,486.057 793.02,499.27C777.79,506.54 761.85,507.5 745.02,507.51C735.833,507.517 726.643,507.513 717.45,507.5L680.94,507.51L653.28,507.52L592.8,507.63L585.32,507.53L539.82,507.52L529.54,507.64C528.88,507.58 528.55,507.367 528.55,507C528.557,475.087 528.537,443.147 528.49,411.18L528.47,360.61C528.47,359.71 528.917,359.263 529.81,359.27L544.02,359.28Z" fill="#fff" transform="matrix(.0373 0 0 .0321 1 1)"/><defs><linearGradient id="pi-cartes_bancaires-bg" x1="1" y1="23" x2="37" y2="1" gradientUnits="userSpaceOnUse"><stop stop-color="#003087"/><stop offset=".32" stop-color="#005AA8"/><stop offset=".5" stop-color="#E7DFDC"/><stop offset=".74" stop-color="#C8102E"/><stop offset="1" stop-color="#B00020"/></linearGradient></defs></svg>
