<svg xmlns="http://www.w3.org/2000/svg" width="38" height="24" fill="none" aria-labelledby="pi-cartes_bancaires" role="img" viewBox="0 0 38 24"><title id="pi-cartes_bancaires">Cartes Bancaires</title><path fill="url(#pi-cartes_bancaires-paint0_linear_4071_345)" d="M0 0h38v24H0z"/><path fill="#fff" fill-rule="evenodd" d="M28 9.934c0 1.067-.8 1.932-1.79 1.934v.002h-6.52V8h6.52c.99.002 1.79.867 1.79 1.934m0 4.104c0 1.067-.8 1.932-1.79 1.934v.003h-6.52v-3.87h6.52c.99.002 1.79.867 1.79 1.933m-13.224-1.934h4.788v.378c0 1.943-1.46 3.518-3.26 3.518H13.26c-1.8 0-3.26-1.575-3.26-3.518v-.938c0-1.943 1.46-3.518 3.26-3.518h3.044c1.8 0 3.26 1.575 3.26 3.518v.326h-4.788z" clip-rule="evenodd"/><defs><linearGradient id="pi-cartes_bancaires-paint0_linear_4071_345" x1="38" x2="16.328" y1="0" y2="34.313" gradientUnits="userSpaceOnUse"><stop stop-color="#083969"/><stop offset=".492" stop-color="#007B9D"/><stop offset="1" stop-color="#00A84A"/></linearGradient></defs></svg>