<svg viewBox="0 0 38 24" xmlns="http://www.w3.org/2000/svg" role="img" width="38" height="24" aria-labelledby="pi-cartebleue"><title id="pi-cartebleue">Carte Bleue</title><defs><linearGradient id="cartebleue_id0" gradientUnits="userSpaceOnUse" x1="19" y1="2.539" x2="19" y2="21.464"><stop offset="0" stop-color="#1b1f46"/><stop offset=".349" stop-color="#1b1f46"/><stop offset=".412" stop-color="#1b1f46"/><stop offset=".471" stop-color="#2e467e"/><stop offset=".549" stop-color="#3665a9"/><stop offset=".588" stop-color="#3665a8"/><stop offset=".631" stop-color="#3565a2"/><stop offset=".671" stop-color="#369"/><stop offset=".71" stop-color="#30668c"/><stop offset=".749" stop-color="#2d667a"/><stop offset=".78" stop-color="#296663"/><stop offset=".82" stop-color="#256449"/><stop offset=".851" stop-color="#216230"/><stop offset="1" stop-color="#216230"/></linearGradient><style type="text/css">.fil1{fill:#fff}</style></defs><path d="M34.913.057H2.992C1.297.057 0 1.354 0 3.049v17.955c0 1.695 1.396 2.992 2.993 2.992h31.92c1.696 0 2.993-1.297 2.993-2.992V3.05c0-1.697-1.397-2.993-2.993-2.993z" fill="#000" fill-opacity=".07"/><path class="fil1" d="M34.96 1.241c1.097 0 1.996.898 1.996 1.995v17.956a2.001 2.001 0 01-1.996 1.995H3.04a2.002 2.002 0 01-1.996-1.995V3.236c0-1.097.898-1.995 1.996-1.995h31.92z"/><path fill="url(#cartebleue_id0)" d="M32.248 2.54H5.752v18.924h26.496z"/><path class="fil1" d="M19.918 11.93v4.286h7.904c1.143-.048 2.087-.963 2.087-2.119 0-1.155-.944-2.119-2.087-2.167h-7.904zM29.76 9.62c0-1.109-.895-1.976-2.037-1.976h-7.805v3.949h7.954c1.093-.096 1.888-.963 1.888-1.974zM13.854 11.543h5.667c-.05-1.106-.347-2.214-1.193-2.937-1.044-.867-2.834-1.155-4.474-1.155-1.69 0-3.53.336-4.573 1.252-.895.77-1.093 2.07-1.093 3.227 0 1.203.397 2.6 1.341 3.418 1.045.867 2.735 1.06 4.325 1.06 1.59 0 3.28-.242 4.275-1.06 1.045-.819 1.392-2.166 1.392-3.418h-5.667v-.387z"/></svg>