<svg xmlns="http://www.w3.org/2000/svg" width="38" height="24" fill="none" aria-labelledby="pi-cash" role="img" viewBox="0 0 38 24"><title id="pi-cash">Cash</title><path fill="#F5F5F5" d="M0 0h38v24H0z"/><path fill="#707070" d="M16.633 9.778c0-.611.556-1.193 1.617-1.384v2.794c-1.193-.296-1.617-.788-1.617-1.41m4.954 4.383c0 .737-.518 1.328-1.837 1.475v-2.982c1.437.325 1.837.792 1.837 1.507"/><path fill="#707070" fill-rule="evenodd" d="M19 21a9 9 0 1 0 0-18 9 9 0 0 0 0 18m.002-3H19a.75.75 0 0 1-.75-.75v-.561c-1.542-.176-2.84-.871-3.201-2.01a1 1 0 0 1-.049-.307c0-.327.276-.551.666-.551.333 0 .585.143.723.483.248.649.795 1.152 1.861 1.315v-3.271c-1.971-.412-3.03-1.166-3.03-2.489 0-1.395 1.246-2.338 3.03-2.547V6.75A.75.75 0 0 1 19 6h.004a.75.75 0 0 1 .746.75v.555c1.495.18 2.677.915 3.03 2.01a1 1 0 0 1 .05.306c0 .327-.277.551-.666.551-.382 0-.61-.19-.723-.483-.325-.717-.87-1.147-1.691-1.302v3.107c2.083.422 3.25 1.144 3.25 2.572 0 1.566-1.45 2.45-3.25 2.633v.551a.75.75 0 0 1-.746.75z" clip-rule="evenodd"/><path fill="#707070" d="M5 14a2 2 0 1 0 0-4 2 2 0 0 0 0 4m28 0a2 2 0 1 0 0-4 2 2 0 0 0 0 4"/></svg>