<svg width="38" height="24" viewBox="0 0 38 24" fill="none" role="img" aria-labelledby="pi-cashapppay" xmlns="http://www.w3.org/2000/svg"><title id="pi-cashapppay">Cash App Pay</title><g clip-path="url(#a)"><path opacity=".07" d="M35 0H3C1.3 0 0 1.3 0 3v18c0 1.7 1.4 3 3 3h32c1.7 0 3-1.3 3-3V3c0-1.7-1.4-3-3-3z" fill="#000"/><path d="M35 1c1.1 0 2 .9 2 2v18c0 1.1-.9 2-2 2H3c-1.1 0-2-.9-2-2V3c0-1.1.9-2 2-2h32z" fill="#fff"/><path fill-rule="evenodd" clip-rule="evenodd" d="M21.725 2.998c1.807 0 2.71 0 3.683.308a3.823 3.823 0 012.286 2.285c.308.973.308 1.877.308 3.684v5.45c0 1.807 0 2.71-.308 3.683a3.823 3.823 0 01-2.285 2.285c-.973.308-1.877.308-3.684.308h-5.45c-1.807 0-2.71 0-3.683-.308a3.823 3.823 0 01-2.286-2.285C10 17.435 10 16.532 10 14.724v-5.45c0-1.806 0-2.71.307-3.683a3.823 3.823 0 012.286-2.285c.972-.308 1.876-.308 3.683-.308h5.45z" fill="#00D64F"/><path fill-rule="evenodd" clip-rule="evenodd" d="M19.435 9.081c.87 0 1.705.352 2.25.836a.343.343 0 00.474-.01l.648-.657a.338.338 0 00-.016-.493 5.126 5.126 0 00-1.738-.978l.203-.968a.34.34 0 00-.332-.41H19.67a.34.34 0 00-.332.27l-.183.86c-1.666.084-3.078.915-3.078 2.62 0 1.477 1.168 2.11 2.401 2.548 1.168.438 1.785.6 1.785 1.217 0 .633-.617 1.006-1.525 1.006-.829 0-1.697-.274-2.37-.938a.338.338 0 00-.476 0l-.697.687a.342.342 0 00.003.488c.543.528 1.23.91 2.016 1.123l-.191.898a.34.34 0 00.33.41l1.255.01a.34.34 0 00.335-.27l.181-.863c1.995-.123 3.216-1.207 3.216-2.794 0-1.46-1.217-2.077-2.694-2.58-.843-.309-1.573-.52-1.573-1.152 0-.616.681-.86 1.362-.86" fill="#fff"/></g></svg>
