<svg xmlns="http://www.w3.org/2000/svg" xmlns:xlink="http://www.w3.org/1999/xlink" width="38" height="24" fill="none" aria-labelledby="pi-cashinvoicelatinamerica" role="img" viewBox="0 0 38 24"><title id="pi-cashinvoicelatinamerica">Cash/Invoice Latin America</title><defs><path id="pi-cashinvoicelatinamerica-b" fill="#fff" d="M0 0h38v24H0z"/></defs><g clip-path="url(#pi-cashinvoicelatinamerica-a)"><use xlink:href="#pi-cashinvoicelatinamerica-b"/><mask id="pi-cashinvoicelatinamerica-c" width="38" height="24" x="0" y="0" maskUnits="userSpaceOnUse" style="mask-type:luminance"><path fill="#fff" d="M0 0h38v24H0z"/></mask><g mask="url(#pi-cashinvoicelatinamerica-c)"><path fill="#086981" d="M14.39 19.378V5.11a.11.11 0 0 0-.108-.109h-4.174a.11.11 0 0 0-.108.11v14.268c0 .06.049.11.108.11h4.174a.11.11 0 0 0 .108-.111"/><path fill="#fff" d="M12.854 17.979V6.508c0-.106-.079-.192-.175-.192h-1.187c-.097 0-.175.086-.175.192v11.47c0 .106.078.192.175.192h1.187c.096 0 .175-.085.175-.191"/><path fill="#29CFD4" d="m27.908 7.48-16.81-.065.092 9.373 16.81.066z"/><path fill="#fff" fill-opacity=".9" d="M19.312 8.512c.174-.001.315.18.316.403l.03 6.433c.002.224-.138.407-.312.408-.173.001-.315-.18-.316-.403L19 8.92c-.001-.224.139-.406.312-.408m-1.652 0c.232-.001.42.18.422.403l.04 6.433a.41.41 0 0 1-.416.408.413.413 0 0 1-.422-.403l-.04-6.433a.41.41 0 0 1 .416-.408m-1.756 0c.231-.001.42.18.422.403l.04 6.433a.41.41 0 0 1-.416.408.413.413 0 0 1-.422-.403l-.04-6.433a.41.41 0 0 1 .416-.408m-1.537 0c.232-.001.42.18.422.403l.04 6.433a.41.41 0 0 1-.416.408.41.41 0 0 1-.421-.403l-.04-6.433a.41.41 0 0 1 .415-.408"/><path fill="#fff" d="M24.302 11.81c-.202-.106-.416-.188-.628-.272a1.5 1.5 0 0 1-.345-.185c-.206-.156-.17-.405.067-.501a.6.6 0 0 1 .21-.039q.412-.018.79.155c.125.058.166.04.206-.082.043-.13.078-.26.117-.39.026-.088-.008-.146-.096-.184a2.1 2.1 0 0 0-.5-.145c-.226-.035-.226-.036-.23-.25-.005-.303-.005-.303-.325-.306q-.07-.001-.14-.001c-.149.002-.174.027-.176.17q0 .095.002.192c.001.19 0 .187-.19.25-.463.156-.745.452-.77.93-.021.424.217.713.587.925.229.13.48.209.722.311.095.04.185.086.263.149.234.182.196.482-.077.593a.9.9 0 0 1-.46.053 2.2 2.2 0 0 1-.704-.205c-.13-.065-.169-.049-.211.083q-.054.173-.101.345c-.043.156-.026.193.132.267.202.094.416.142.635.177.171.028.177.035.18.202q.004.115.006.229c.002.095.052.152.156.155q.177.005.355.002.146-.002.145-.143c-.002-.104.002-.209-.003-.312-.007-.106.04-.16.148-.186a1.17 1.17 0 0 0 .616-.372c.444-.514.262-1.275-.381-1.615"/></g></g><defs><clipPath id="pi-cashinvoicelatinamerica-a"><use xlink:href="#pi-cashinvoicelatinamerica-b"/></clipPath></defs></svg>