<svg width="38" height="24" viewBox="0 0 38 24" fill="none" xmlns="http://www.w3.org/2000/svg"><path d="M0 9.62c0-3.36 0-5.04.654-6.324A6 6 0 013.276.674C4.56.02 6.24.02 9.6.02L28.382 0c3.36 0 5.054.02 6.338.674a6 6 0 012.622 2.622c.654 1.284.654 2.964.654 6.324l.002 4.78c0 3.361 0 5.041-.654 6.325a6.001 6.001 0 01-2.622 2.622C33.44 24 31.76 24 28.398 24H9.602c-3.36 0-5.04 0-6.323-.654a6 6 0 01-2.623-2.622C.002 19.44.002 17.76.002 14.4L0 9.62z" fill="#00D64F"/><path fill-rule="evenodd" clip-rule="evenodd" d="M19.905 8.263c1.114 0 2.182.451 2.88 1.07.176.157.44.156.606-.012l.83-.842a.433.433 0 00-.02-.63 6.563 6.563 0 00-2.226-1.252l.26-1.24a.435.435 0 00-.425-.524h-1.604a.435.435 0 00-.425.344l-.235 1.103c-2.133.106-3.94 1.17-3.94 3.354 0 1.89 1.496 2.7 3.074 3.26 1.495.561 2.284.769 2.284 1.558 0 .81-.789 1.288-1.952 1.288-1.06 0-2.172-.35-3.034-1.2a.433.433 0 00-.608-.001l-.892.88a.438.438 0 00.002.625c.696.675 1.577 1.163 2.582 1.437l-.245 1.149a.435.435 0 00.422.525l1.607.012a.434.434 0 00.428-.345l.232-1.104c2.554-.158 4.116-1.546 4.116-3.577 0-1.87-1.557-2.659-3.447-3.303-1.08-.394-2.015-.664-2.015-1.474 0-.789.873-1.1 1.745-1.1" fill="#fff"/></svg>