<svg width="38" height="24" viewBox="0 0 38 24" fill="none" xmlns="http://www.w3.org/2000/svg"><rect width="38" height="24" rx="2" fill="#fff"/><rect x=".5" y=".5" width="37" height="23" rx="1.5" stroke="#000" stroke-opacity=".07"/><path fill-rule="evenodd" clip-rule="evenodd" d="M21.568 2.998c1.807 0 2.71 0 3.684.308a3.823 3.823 0 012.285 2.285c.308.973.308 1.877.308 3.684v5.45c0 1.807 0 2.71-.308 3.683a3.823 3.823 0 01-2.285 2.285c-.973.308-1.877.308-3.684.308h-5.45c-1.807 0-2.71 0-3.683-.308a3.823 3.823 0 01-2.286-2.285c-.307-.973-.307-1.876-.307-3.684v-5.45c0-1.806 0-2.71.307-3.683a3.823 3.823 0 012.286-2.285c.972-.308 1.876-.308 3.684-.308h5.45z" fill="#00D64F"/><path fill-rule="evenodd" clip-rule="evenodd" d="M19.215 9.08c.87 0 1.704.352 2.25.836a.342.342 0 00.473-.01l.648-.657a.338.338 0 00-.016-.493 5.127 5.127 0 00-1.738-.978l.203-.968a.34.34 0 00-.332-.41H19.45a.34.34 0 00-.333.27l-.183.86c-1.666.084-3.078.915-3.078 2.62 0 1.477 1.168 2.11 2.401 2.548 1.169.438 1.785.6 1.785 1.217 0 .633-.616 1.006-1.525 1.006-.829 0-1.697-.273-2.37-.938a.338.338 0 00-.475 0l-.697.687a.342.342 0 00.002.488c.543.528 1.231.91 2.016 1.123l-.191.898a.34.34 0 00.33.41l1.255.01a.34.34 0 00.335-.27l.181-.863c1.995-.123 3.216-1.207 3.216-2.794 0-1.46-1.217-2.077-2.693-2.58-.844-.309-1.574-.52-1.574-1.152 0-.616.681-.86 1.363-.86" fill="#fff"/></svg>