<?xml version="1.0" encoding="UTF-8" standalone="no"?>
<!-- Generator: Adobe Illustrator 16.0.0, SVG Export Plug-In . SVG Version: 6.00 Build 0)  -->

<svg
   xmlns:dc="http://purl.org/dc/elements/1.1/"
   xmlns:cc="http://creativecommons.org/ns#"
   xmlns:rdf="http://www.w3.org/1999/02/22-rdf-syntax-ns#"
   xmlns:svg="http://www.w3.org/2000/svg"
   xmlns="http://www.w3.org/2000/svg"
   xmlns:sodipodi="http://sodipodi.sourceforge.net/DTD/sodipodi-0.dtd"
   xmlns:inkscape="http://www.inkscape.org/namespaces/inkscape"
   version="1.1"
   id="Calque_1"
   x="0px"
   y="0px"
   width="37.999821"
   height="23.999998"
   viewBox="0 0 37.999821 23.999998"
   enable-background="new 0 0 500 368.357"
   xml:space="preserve"
   sodipodi:docname="logo_cb.svg"
   inkscape:version="0.92.1 r15371"><metadata
   id="metadata3720"><rdf:RDF><cc:Work
       rdf:about=""><dc:format>image/svg+xml</dc:format><dc:type
         rdf:resource="http://purl.org/dc/dcmitype/StillImage" /><dc:title></dc:title></cc:Work></rdf:RDF></metadata><defs
   id="defs3718" /><sodipodi:namedview
   pagecolor="#ffffff"
   bordercolor="#666666"
   borderopacity="1"
   objecttolerance="10"
   gridtolerance="10"
   guidetolerance="10"
   inkscape:pageopacity="0"
   inkscape:pageshadow="2"
   inkscape:window-width="1920"
   inkscape:window-height="1017"
   id="namedview3716"
   showgrid="false"
   inkscape:zoom="1.132054"
   inkscape:cx="-231.07291"
   inkscape:cy="1.0834537"
   inkscape:window-x="-8"
   inkscape:window-y="-8"
   inkscape:window-maximized="1"
   inkscape:current-layer="Calque_1"
   fit-margin-top="0"
   fit-margin-left="0"
   fit-margin-right="0"
   fit-margin-bottom="0" />
<linearGradient
   id="SVGID_1_"
   gradientUnits="userSpaceOnUse"
   x1="62.078602"
   y1="-151.207"
   x2="75.723099"
   y2="-151.207"
   gradientTransform="matrix(0,26.9963,-0.8337,0,123.9389,-1675.8774)">
	<stop
   offset="0"
   style="stop-color:#1B1F46"
   id="stop3680" />
	<stop
   offset="0.3515"
   style="stop-color:#1B1F46"
   id="stop3682" />
	<stop
   offset="0.4737"
   style="stop-color:#2E467E"
   id="stop3684" />
	<stop
   offset="0.5515"
   style="stop-color:#3665A9"
   id="stop3686" />
	<stop
   offset="0.5925"
   style="stop-color:#3665A8"
   id="stop3688" />
	<stop
   offset="0.6315"
   style="stop-color:#3565A2"
   id="stop3690" />
	<stop
   offset="0.6697"
   style="stop-color:#336699"
   id="stop3692" />
	<stop
   offset="0.7074"
   style="stop-color:#30668C"
   id="stop3694" />
	<stop
   offset="0.7448"
   style="stop-color:#2D667A"
   id="stop3696" />
	<stop
   offset="0.7819"
   style="stop-color:#296663"
   id="stop3698" />
	<stop
   offset="0.8181"
   style="stop-color:#256449"
   id="stop3700" />
	<stop
   offset="0.8485"
   style="stop-color:#216230"
   id="stop3702" />
	<stop
   offset="1"
   style="stop-color:#216230"
   id="stop3704" />
</linearGradient>
<polygon
   points="500,368.357 0,368.348 0,0 500,0 "
   id="polygon3707"
   style="fill:url(#SVGID_1_)"
   transform="scale(0.07599964,0.06515418)" />
<path
   d="m 11.66389,11.46557 h 8.14846 C 19.73995,10.08593 19.32944,8.66329 18.08442,7.7495 16.60174,6.66091 14.00514,6.25715 11.68472,6.25715 c -2.41573,0 -5.08681,0.44318 -6.57716,1.61113 -1.28508,1.00565 -1.56339,2.62448 -1.56339,4.07872 0,1.52343 0.54408,3.29497 1.93844,4.31614 1.48268,1.08559 3.88518,1.37371 6.20211,1.37371 2.2508,0 4.68879,-0.32506 6.16243,-1.35638 1.46983,-1.0295 1.97766,-2.7641 1.97766,-4.33347 0,-0.002 0,-0.005 0,-0.007 h -8.16092 z"
   id="path3709"
   inkscape:connector-curvature="0"
   style="fill:#ffffff;stroke-width:0.07036828" />
<path
   d="m 20.35932,11.93976 v 5.44285 h 11.33542 v -0.007 c 1.65869,-0.071 2.97797,-1.24242 2.97797,-2.68116 0,-1.43873 -1.3192,-2.68539 -2.97797,-2.75693 v 0.002 H 20.35932 Z"
   id="path3711"
   inkscape:connector-curvature="0"
   style="fill:#ffffff;stroke-width:0.07036828" />
<path
   d="m 34.46531,8.97049 c 0,-1.38622 -1.28303,-2.4855 -2.89992,-2.4855 -0.11134,0 -0.24905,-0.0179 -0.35766,-0.008 H 20.35932 v 4.9884 h 11.42875 c 1.49863,-0.11044 2.67724,-1.18229 2.67724,-2.49515 z"
   id="path3713"
   inkscape:connector-curvature="0"
   style="fill:#ffffff;stroke-width:0.07036828" />
</svg>