<svg xmlns="http://www.w3.org/2000/svg" width="38" height="24" fill="none" aria-labelledby="pi-cembrapay" role="img" viewBox="0 0 38 24"><title id="pi-cembrapay">CembraPay</title><path fill="#fff" d="M0 0h38v24H0z"/><path fill="#BAEC9F" d="M4.315 14.103A.876.876 0 0 1 3 13.343V9.878a.876.876 0 0 1 1.315-.76l3.614 2.087-3.614 2.9z"/><path fill="#004D8C" d="M32.771 14.538q.27-.048.43-.135a.75.75 0 0 0 .26-.228c.06-.087.131-.212.186-.356h-.13a23 23 0 0 1-.928-2.717c.11-.022.283-.037.399-.037l.7 2.152c.034.106.074.23.09.347h.022c.022-.117.056-.24.095-.353l.707-2.147c.104 0 .288.01.399.037q-.798 2.346-.94 2.717c-.142.371-.26.573-.453.76q-.275.263-.77.33a1.5 1.5 0 0 1-.067-.37m-2.79-3.27c0-.781-.625-1.17-1.265-1.17-.336 0-.582.025-.965.073v3.648h.435v-1.338h.503c.625 0 1.291-.42 1.291-1.213zm-.447 0c0 .551-.42.846-.907.846h-.44v-1.628c.215-.021.393-.032.519-.032.404 0 .829.269.829.815zm2.992 2.194h-.288c-.12 0-.158-.047-.158-.173v-2.004c-.226-.179-.619-.257-.97-.257-.268 0-.478.037-.709.105 0 .12.021.277.053.377.152-.068.414-.115.645-.115.215 0 .456.053.587.126v.76l-.576.027c-.646.026-.976.251-.976.823 0 .504.325.74.792.74.273 0 .52-.074.776-.283h.021c.09.215.273.283.483.283s.32-.084.32-.288zm-.84-.163a1.25 1.25 0 0 1-.687.226c-.31 0-.435-.12-.435-.42 0-.34.126-.471.53-.487l.592-.026zm-23.878-2.15L4.56 9.965a.762.762 0 0 0-1.01.848l.6 3.404a.762.762 0 0 0 1.24.452l2.648-2.222a.763.763 0 0 0-.23-1.3zm3.592 2.724c-1.071 0-1.645-.656-1.645-1.902 0-1.316.705-1.89 1.59-1.89.344 0 .798.07 1.006.175a5 5 0 0 1-.11.72 2.1 2.1 0 0 0-.852-.185c-.426 0-.765.246-.765 1.175s.262 1.197.798 1.197c.311 0 .677-.115.89-.257.055.218.099.464.115.721-.273.164-.705.246-1.027.246m3.556-1.262h-1.574v.033c0 .36.142.535.628.535.252 0 .596-.077.77-.175.066.191.127.464.16.694-.252.114-.684.175-.94.175-.902 0-1.41-.492-1.41-1.443 0-1.006.524-1.52 1.257-1.52.798 0 1.131.51 1.131 1.269 0 .12-.005.3-.022.431zm-.722-.64c0-.338-.12-.508-.398-.508-.28 0-.449.197-.449.656h.842c.005-.033.005-.12.005-.148m4.21 1.847v-1.94c0-.202-.066-.322-.334-.322a.72.72 0 0 0-.443.147v2.115h-.737v-1.934c0-.213-.06-.328-.312-.328a.85.85 0 0 0-.464.147v2.115h-.738v-2.825a6 6 0 0 1 .738-.044v.284h.038c.268-.24.46-.322.727-.322s.497.093.617.36c.279-.284.514-.36.81-.36.48 0 .835.262.835.885v2.022zm2.437.055c-.454 0-.885-.11-1.186-.35V9.802c.213-.028.502-.05.738-.05v1.46h.038a.81.81 0 0 1 .667-.301c.579 0 1.038.382 1.038 1.366 0 .983-.476 1.596-1.295 1.596m.021-2.318c-.18 0-.355.06-.47.17v1.41c.099.07.257.104.405.104.415 0 .552-.257.552-.897s-.164-.787-.487-.787m3.224.154a1.3 1.3 0 0 0-.268-.033.85.85 0 0 0-.53.159v1.983h-.737v-2.825q.367-.044.737-.044v.366h.038c.268-.371.443-.404.624-.404a.7.7 0 0 1 .202.033c0 .256-.028.513-.066.765m2.281 2.164c-.245 0-.431-.066-.53-.295h-.032c-.203.19-.471.296-.75.295-.496 0-.857-.252-.857-.826 0-.628.387-.842 1.07-.868l.449-.017v-.486c-.136-.082-.334-.11-.53-.11-.23 0-.481.05-.645.121a3.7 3.7 0 0 1-.104-.66c.252-.072.525-.116.81-.116.426 0 .89.104 1.174.334v1.7c0 .141.038.19.17.19h.294v.246c0 .378-.224.492-.519.492m-.65-1.224-.448.016c-.24.011-.334.077-.334.334 0 .218.093.306.301.306.158 0 .361-.038.48-.131z"/></svg>