<svg xmlns="http://www.w3.org/2000/svg" width="38" height="24" fill="none" aria-labelledby="pi-centi" role="img" viewBox="0 0 38 24"><title id="pi-centi">Centi</title><path fill="#fff" d="M0 0h38v24H0z"/><path fill="#000" fill-rule="evenodd" d="M8.11 15.76c-2.17 0-3.79-1.61-3.79-3.75s1.62-3.76 3.79-3.76c1.87 0 3.32 1.24 3.61 3.05H9.73c-.24-.73-.86-1.21-1.61-1.21-1.01 0-1.75.81-1.75 1.92s.74 1.91 1.75 1.91c.79 0 1.41-.52 1.61-1.31h2.01c-.27 1.88-1.73 3.16-3.63 3.16zm4.39-7.33h4.56v1.68H12.5zm0 2.77h4.56v1.68H12.5zm0 2.71h4.56v1.68H12.5zm10.05-5.49h1.91v7.15h-1.62l-2.83-3.88v3.88H18.1V8.42h1.72l2.74 3.75V8.42zm8.45 0v1.77h-1.94v5.38h-1.97v-5.38h-1.94V8.42zm.69 7.15V8.42h1.99v7.15z" clip-rule="evenodd"/></svg>