<svg xmlns="http://www.w3.org/2000/svg" width="38" height="24" fill="none" aria-labelledby="pi-cetelem" role="img" viewBox="0 0 38 24"><title id="pi-cetelem">Cetelem</title><path fill="#fff" d="M0 0h38v24H0z"/><path fill="#3A9044" d="M18.57 2.65a7.05 7.05 0 0 0-5.79 3.97 7.06 7.06 0 0 0 1.32 8.05 6.98 6.98 0 0 0 5.04 2.1c1.05 0 1.91-.18 2.87-.6.88-.38 2-1.2 2.31-1.69.34-.54.27-1.23-.19-1.68-.1-.1-.27-.22-.39-.28-.18-.08-.26-.1-.54-.1-.43 0-.64.1-1.07.47-.89.79-1.86 1.17-3 1.17-1.15 0-2.18-.41-3.02-1.21-.37-.36-.61-.67-.84-1.12-.35-.68-.5-1.28-.5-2.04 0-.9.23-1.65.71-2.4.22-.34.7-.85 1.04-1.1.33-.26 1.05-.6 1.5-.72.34-.09.43-.1 1.09-.1.62 0 .77.01 1.04.08.79.2 1.38.52 2.07 1.14.44.39.87.51 1.35.35.98-.3 1.28-1.46.58-2.22-.11-.12-.35-.34-.54-.49-1.16-.94-2.48-1.46-3.98-1.58-.27-.02-.54-.03-.59-.03s-.26.01-.47.03m-4.71 16.3c-.35.09-.64.32-.81.65-.11.22-.12.28-.12.54 0 .24.02.33.1.5.11.24.33.48.54.58.31.16.37.16 5.43.14l4.84-.01.22-.1c.82-.38.99-1.42.33-2.02-.38-.35.11-.32-5.47-.33-2.81.02-4.98.04-5.06.05"/></svg>