<svg viewBox="0 0 38 24" xmlns="http://www.w3.org/2000/svg" width="38" height="24" xmlns="http://www.w3.org/2000/svg" role="img" aria-labelledby="pi-cetelem"><title id="pi-cetelem">Cetelem</title><path d="m35 0h-32c-1.7 0-3 1.3-3 3v18c0 1.7 1.4 3 3 3h32c1.7 0 3-1.3 3-3v-18c0-1.7-1.4-3-3-3z" opacity=".07"/><path d="m35 1c1.1 0 2 .9 2 2v18c0 1.1-.9 2-2 2h-32c-1.1 0-2-.9-2-2v-18c0-1.1.9-2 2-2z" fill="#fff"/><g fill="#3a9044" transform="matrix(.1 0 0 -.1 0 512)"><path d="m185.7 5093.5c-24.8-1.9-46.9-17-57.9-39.7-13.1-27-7.8-59.2 13.2-80.5 13.5-13.7 31.2-21 50.4-21 10.5 0 19.1 1.8 28.7 6 8.8 3.8 20 12 23.1 16.9 3.4 5.4 2.7 12.3-1.9 16.8-1 1-2.7 2.2-3.9 2.8-1.8.8-2.6 1-5.4 1-4.3 0-6.4-1-10.7-4.7-8.9-7.9-18.6-11.7-30-11.7-11.5 0-21.8 4.1-30.2 12.1-3.7 3.6-6.1 6.7-8.4 11.2-3.5 6.8-5 12.8-5 20.4 0 9 2.3 16.5 7.1 24 2.2 3.4 7 8.5 10.4 11 3.3 2.6 10.5 6 15 7.2 3.4.9 4.3 1 10.9 1 6.2 0 7.7-.1 10.4-.8 7.9-2 13.8-5.2 20.7-11.4 4.4-3.9 8.7-5.1 13.5-3.5 9.8 3 12.8 14.6 5.8 22.2-1.1 1.2-3.5 3.4-5.4 4.9-11.6 9.4-24.8 14.6-39.8 15.8-2.7.2-5.4.3-5.9.3s-2.6-.1-4.7-.3z"/><path d="m138.6 4930.5c-3.5-.9-6.4-3.2-8.1-6.5-1.1-2.2-1.2-2.8-1.2-5.4 0-2.4.2-3.3 1-5 1.1-2.4 3.3-4.8 5.4-5.8 3.1-1.6 3.7-1.6 54.3-1.4l48.4.1 2.2 1c8.2 3.8 9.9 14.2 3.3 20.2-3.8 3.5 1.1 3.2-54.7 3.3-28.1-.2-49.8-.4-50.6-.5z"/></g></svg>
