<svg xmlns="http://www.w3.org/2000/svg" fill="none" viewBox="0 0 38 24" height="24" width="38" aria-labelledby="pi-checkout_finance" role="img"><title id="pi-checkout_finance">Checkout Finance</title><path fill="#fff" d="M0 0h38v24H0z"/><path fill="#2A3156" d="M7.166 15.492a1.787 1.787 0 0 1-.705-.658 1.789 1.789 0 0 1-.256-.952 1.787 1.787 0 0 1 .961-1.61c.312-.16.658-.242 1.009-.236.314 0 .598.054.852.162.255.108.467.265.64.47l-.539.489a1.166 1.166 0 0 0-.912-.418c-.224 0-.424.048-.6.145a1.045 1.045 0 0 0-.413.406c-.1.18-.151.384-.148.591 0 .222.05.42.148.593.098.174.236.308.412.405.177.098.377.146.601.146a1.157 1.157 0 0 0 .912-.424l.54.49c-.173.208-.394.37-.643.475a2.17 2.17 0 0 1-.855.163c-.37 0-.704-.08-1.003-.237h-.001Zm5.49-2.304c.212.204.318.506.318.908v1.572h-.808v-1.449c0-.218-.048-.38-.146-.488-.097-.107-.236-.16-.42-.16a.648.648 0 0 0-.487.186c-.121.124-.181.309-.181.554v1.357h-.81v-3.786h.81v1.327c.11-.107.243-.19.388-.243.152-.056.317-.084.497-.084.346 0 .626.102.838.306h.001Z"/><path fill="#2A3156" fill-rule="evenodd" d="M14.292 14.52H16.4l.015-.214c0-.288-.062-.538-.188-.755a1.285 1.285 0 0 0-.522-.496 1.572 1.572 0 0 0-.741-.174c-.28 0-.533.06-.759.182-.221.116-.406.29-.534.505-.13.22-.198.471-.195.727 0 .272.066.516.198.73.132.213.318.381.56.502.242.121.52.181.834.181.504 0 .888-.147 1.15-.443l-.43-.46a.939.939 0 0 1-.699.266.906.906 0 0 1-.529-.148.646.646 0 0 1-.27-.403h.002Zm-.011-.466a.649.649 0 0 1 .229-.417.7.7 0 0 1 .46-.153.68.68 0 0 1 .456.156c.125.102.2.241.229.414H14.28h.001Z" clip-rule="evenodd"/><path fill="#2A3156" d="M17.45 15.527a1.355 1.355 0 0 1-.754-1.233c0-.272.066-.515.2-.73.133-.214.317-.381.554-.502a1.73 1.73 0 0 1 .802-.182c.293 0 .55.06.77.182.218.12.38.293.479.517l-.628.331c-.146-.25-.354-.377-.627-.377a.716.716 0 0 0-.522.204c-.14.136-.208.322-.208.557 0 .234.069.42.207.556a.717.717 0 0 0 .523.204c.277 0 .486-.126.627-.377l.628.336c-.1.218-.269.397-.48.51-.236.127-.502.19-.77.184a1.71 1.71 0 0 1-.8-.18h-.001Zm3.64-.937-.387.378v.7h-.809V11.88h.809v2.143l1.18-1.102h.965l-1.161 1.164 1.264 1.582h-.98l-.88-1.078-.001.001Z"/><path fill="#2A3156" fill-rule="evenodd" d="M23.134 15.024c.131.214.314.382.547.503.233.121.497.181.79.181.293 0 .557-.06.788-.18a1.364 1.364 0 0 0 .742-1.234c0-.272-.066-.516-.198-.73a1.362 1.362 0 0 0-.544-.502 1.673 1.673 0 0 0-.788-.182c-.294 0-.557.06-.79.182a1.363 1.363 0 0 0-.547.502 1.37 1.37 0 0 0-.197.73c0 .273.066.517.197.73Zm2.048-.729c0 .232-.067.417-.2.554a.682.682 0 0 1-.51.206.686.686 0 0 1-.514-.206c-.135-.139-.203-.323-.203-.554 0-.231.069-.416.203-.553a.688.688 0 0 1 .514-.207c.206 0 .377.069.51.206.133.139.2.323.2.554Z" clip-rule="evenodd"/><path fill="#2A3156" d="M29.297 12.83v2.747h-.767v-.327a1.073 1.073 0 0 1-.384.273 1.23 1.23 0 0 1-.483.095c-.366 0-.656-.104-.871-.311-.214-.208-.32-.515-.32-.924v-1.551h.808v1.433c0 .441.188.663.566.663a.614.614 0 0 0 .465-.186c.118-.124.177-.308.177-.554V12.83h.809Zm2.498 2.614a.84.84 0 0 1-.293.13 1.546 1.546 0 0 1-.365.043c-.332 0-.588-.083-.77-.25-.181-.167-.272-.412-.272-.735v-1.127h-.43v-.613h.43v-.668h.808v.668h.695v.613h-.695v1.117c0 .116.03.205.091.267.06.063.146.094.257.094a.526.526 0 0 0 .326-.1l.218.56v.001ZM9.157 17.935v.945h1.68v.662h-1.68v1.302h-.839v-3.572h2.742v.663H9.157Z"/><path fill="#2A3156" fill-rule="evenodd" d="M11.371 17.272c0 .126.046.232.14.316.1.087.23.133.362.128.15 0 .27-.042.363-.13a.428.428 0 0 0 .14-.33.388.388 0 0 0-.14-.305.532.532 0 0 0-.363-.123.519.519 0 0 0-.362.128.41.41 0 0 0-.14.316Zm.907.826h-.808v2.746h.808v-2.746Z" clip-rule="evenodd"/><path fill="#2A3156" d="M15.51 18.364c.213.204.319.506.319.908v1.572h-.809v-1.449c0-.218-.048-.38-.145-.488-.097-.107-.237-.16-.42-.16a.65.65 0 0 0-.487.186c-.121.124-.181.309-.181.554v1.357h-.81v-2.746h.774v.322c.11-.118.247-.21.398-.267.16-.063.334-.095.523-.095.346-.001.625.1.838.306Z"/><path fill="#2A3156" fill-rule="evenodd" d="M18.975 19.277c0-.408-.116-.714-.347-.916-.232-.202-.563-.303-.997-.305-.221 0-.441.028-.655.086a1.78 1.78 0 0 0-.547.245l.29.557c.11-.084.234-.147.366-.187.144-.045.289-.068.437-.068.215 0 .376.047.483.14a.504.504 0 0 1 .16.401h-.642c-.408 0-.71.073-.905.22a.713.713 0 0 0-.293.603c-.002.152.042.3.125.428a.83.83 0 0 0 .36.296c.157.072.343.107.558.107.415 0 .698-.128.85-.382v.341h.757v-1.566Zm-.808.7a.518.518 0 0 1-.23.278.724.724 0 0 1-.366.094.556.556 0 0 1-.334-.089.286.286 0 0 1-.122-.243c0-.214.165-.321.497-.321h.555v.281Z" clip-rule="evenodd"/><path fill="#2A3156" d="M22.186 18.364c.212.204.319.506.319.908v1.572h-.809v-1.449c0-.218-.049-.38-.146-.488-.096-.107-.236-.16-.42-.16a.65.65 0 0 0-.487.186c-.12.124-.181.309-.181.554v1.357h-.809v-2.746h.773v.322c.111-.118.248-.21.4-.267.158-.063.333-.095.522-.095.346-.001.626.1.838.306Zm1.576 2.34a1.355 1.355 0 0 1-.754-1.234c0-.272.066-.515.2-.73.132-.214.317-.381.554-.502.237-.121.503-.182.801-.182.293 0 .55.06.77.182.218.12.38.293.48.517l-.628.332c-.145-.252-.354-.378-.626-.378a.715.715 0 0 0-.523.204c-.14.136-.208.322-.208.557 0 .235.069.42.207.556a.72.72 0 0 0 .523.204c.278 0 .486-.126.627-.377l.628.336a1.1 1.1 0 0 1-.48.51 1.55 1.55 0 0 1-.77.183 1.71 1.71 0 0 1-.8-.18v.001l-.001.001Z"/><path fill="#2A3156" fill-rule="evenodd" d="M26.797 19.696h2.109a7.69 7.69 0 0 0 .015-.214c0-.288-.062-.538-.188-.755a1.286 1.286 0 0 0-.52-.496 1.575 1.575 0 0 0-.742-.174c-.28 0-.533.06-.76.182a1.357 1.357 0 0 0-.728 1.231c0 .273.066.517.197.73.131.214.318.382.56.503.241.121.52.181.835.181.504 0 .887-.147 1.15-.443l-.431-.46a.942.942 0 0 1-.7.266.9.9 0 0 1-.528-.148.646.646 0 0 1-.269-.403Zm-.011-.466a.649.649 0 0 1 .228-.417.703.703 0 0 1 .46-.154c.18 0 .333.052.457.156a.654.654 0 0 1 .228.415h-1.373Z" clip-rule="evenodd"/><path fill="#4971FF" fill-rule="evenodd" d="M22.201 3.116h-6.375a.292.292 0 0 0-.291.292v6.376c0 .161.13.292.291.292h6.375a.293.293 0 0 0 .292-.293V3.408a.292.292 0 0 0-.292-.291v-.001Zm-1.958 4.571c.285-.285.448-.663.46-1.065v-.05a.292.292 0 0 1 .583.001v.067a2.16 2.16 0 0 1-4.275.345h-.458a.147.147 0 0 1-.106-.25l.761-.793a.15.15 0 0 1 .214 0l.762.794a.148.148 0 0 1-.107.25h-.466a1.575 1.575 0 0 0 2.632.701Zm.197-2.042a.29.29 0 0 1 .075-.406.29.29 0 0 1 .449.18.294.294 0 0 1-.12.3.291.291 0 0 1-.405-.075h.001v.001Zm-2.746-.32a.292.292 0 1 1 .439-.384.292.292 0 0 1-.439.384Zm2.07-.235a.291.291 0 1 1 .23-.535.291.291 0 0 1-.23.535Zm-1.2-.351a.292.292 0 1 1 .577-.09.292.292 0 0 1-.577.09Z" clip-rule="evenodd"/></svg>