<svg xmlns="http://www.w3.org/2000/svg" width="38" height="24" fill="none" aria-labelledby="pi-checkout_finance" role="img" viewBox="0 0 38 24"><title id="pi-checkout_finance">Checkout Finance</title><path fill="#fff" d="M0 0h38v24H0z"/><path fill="#2A3156" d="M7.166 15.492a1.8 1.8 0 0 1-.705-.658 1.8 1.8 0 0 1-.256-.952 1.79 1.79 0 0 1 .961-1.61c.312-.16.658-.242 1.009-.236q.471 0 .852.162.382.162.64.47l-.539.489a1.17 1.17 0 0 0-.912-.418q-.336 0-.6.145a1.05 1.05 0 0 0-.413.406c-.1.18-.151.384-.148.591q0 .333.148.593.147.26.412.405t.601.146a1.16 1.16 0 0 0 .912-.424l.54.49c-.173.208-.394.37-.643.475a2.2 2.2 0 0 1-.855.163q-.555 0-1.003-.237zm5.49-2.304q.318.306.318.908v1.572h-.808v-1.449q0-.327-.146-.488-.145-.16-.42-.16a.65.65 0 0 0-.487.186q-.181.186-.181.554v1.357h-.81v-3.786h.81v1.327c.11-.107.243-.19.388-.243q.227-.084.497-.084.52 0 .838.306z"/><path fill="#2A3156" fill-rule="evenodd" d="M14.292 14.52H16.4l.015-.214q0-.43-.188-.755a1.3 1.3 0 0 0-.522-.496 1.6 1.6 0 0 0-.741-.174q-.42 0-.759.182c-.221.116-.406.29-.534.505-.13.22-.198.471-.195.727q0 .409.198.73.197.32.56.502.363.181.834.181.756 0 1.15-.443l-.43-.46a.94.94 0 0 1-.699.266.9.9 0 0 1-.529-.148.65.65 0 0 1-.27-.403zm-.011-.466a.65.65 0 0 1 .229-.417.7.7 0 0 1 .46-.153.68.68 0 0 1 .456.156q.186.154.229.414H14.28z" clip-rule="evenodd"/><path fill="#2A3156" d="M17.45 15.527a1.36 1.36 0 0 1-.754-1.233q0-.408.2-.73.199-.32.554-.502a1.7 1.7 0 0 1 .802-.182q.44 0 .77.182.329.18.479.517l-.628.331q-.218-.376-.627-.377a.72.72 0 0 0-.522.204q-.209.204-.208.557 0 .351.207.556a.72.72 0 0 0 .523.204q.416 0 .627-.377l.628.336c-.1.218-.269.397-.48.51-.236.127-.502.19-.77.184a1.7 1.7 0 0 1-.8-.18zm3.64-.937-.387.378v.7h-.809V11.88h.809v2.143l1.18-1.102h.965l-1.161 1.164 1.264 1.582h-.98z"/><path fill="#2A3156" fill-rule="evenodd" d="M23.134 15.024q.197.321.547.503.35.181.79.181t.788-.18a1.36 1.36 0 0 0 .742-1.234q0-.409-.198-.73a1.36 1.36 0 0 0-.544-.502 1.7 1.7 0 0 0-.788-.182q-.44 0-.79.182a1.36 1.36 0 0 0-.547.502 1.37 1.37 0 0 0-.197.73q0 .41.197.73m2.048-.729q0 .348-.2.554a.68.68 0 0 1-.51.206.69.69 0 0 1-.514-.206q-.203-.208-.203-.554.001-.347.203-.553a.69.69 0 0 1 .514-.207q.31 0 .51.206.2.208.2.554" clip-rule="evenodd"/><path fill="#2A3156" d="M29.297 12.83v2.747h-.767v-.327a1.1 1.1 0 0 1-.384.273 1.2 1.2 0 0 1-.483.095q-.549 0-.871-.311-.32-.311-.32-.924v-1.551h.808v1.433q0 .662.566.663a.61.61 0 0 0 .465-.186q.177-.186.177-.554V12.83zm2.498 2.614a.8.8 0 0 1-.293.13 1.6 1.6 0 0 1-.365.043q-.498 0-.77-.25t-.272-.735v-1.127h-.43v-.613h.43v-.668h.808v.668h.695v.613h-.695v1.117q0 .174.091.267.09.094.257.094a.53.53 0 0 0 .326-.1l.218.56zM9.157 17.935v.945h1.68v.662h-1.68v1.302h-.839v-3.572h2.742v.663z"/><path fill="#2A3156" fill-rule="evenodd" d="M11.371 17.272q0 .19.14.316c.1.087.23.133.362.128q.224.001.363-.13a.43.43 0 0 0 .14-.33.39.39 0 0 0-.14-.305.53.53 0 0 0-.363-.123.52.52 0 0 0-.362.128.41.41 0 0 0-.14.316m.907.826h-.808v2.746h.808z" clip-rule="evenodd"/><path fill="#2A3156" d="M15.51 18.364q.32.305.319.908v1.572h-.809v-1.449q0-.326-.145-.488-.146-.16-.42-.16a.65.65 0 0 0-.487.186q-.181.186-.181.554v1.357h-.81v-2.746h.774v.322c.11-.118.247-.21.398-.267q.24-.095.523-.095.519-.002.838.306"/><path fill="#2A3156" fill-rule="evenodd" d="M18.975 19.277q0-.613-.347-.916t-.997-.305q-.333 0-.655.086a1.8 1.8 0 0 0-.547.245l.29.557q.167-.126.366-.187.216-.068.437-.068.323 0 .483.14a.5.5 0 0 1 .16.401h-.642q-.612 0-.905.22a.71.71 0 0 0-.293.603c-.002.152.042.3.125.428a.83.83 0 0 0 .36.296q.235.107.558.107.622 0 .85-.382v.341h.757zm-.808.7a.52.52 0 0 1-.23.278.7.7 0 0 1-.366.094.56.56 0 0 1-.334-.089.29.29 0 0 1-.122-.243q0-.321.497-.321h.555z" clip-rule="evenodd"/><path fill="#2A3156" d="M22.186 18.364q.319.305.319.908v1.572h-.809v-1.449q0-.326-.146-.488-.144-.16-.42-.16a.65.65 0 0 0-.487.186q-.18.186-.181.554v1.357h-.809v-2.746h.773v.322c.111-.118.248-.21.4-.267q.238-.095.522-.095.52-.002.838.306m1.576 2.34a1.36 1.36 0 0 1-.754-1.234q0-.408.2-.73.198-.32.554-.502.355-.182.801-.182.44 0 .77.182.329.18.48.517l-.628.332q-.218-.378-.626-.378a.72.72 0 0 0-.523.204q-.209.204-.208.557 0 .352.207.556a.72.72 0 0 0 .523.204q.416 0 .627-.377l.628.336a1.1 1.1 0 0 1-.48.51 1.55 1.55 0 0 1-.77.183 1.7 1.7 0 0 1-.8-.18z"/><path fill="#2A3156" fill-rule="evenodd" d="M26.797 19.696h2.109l.015-.214q0-.43-.188-.755a1.3 1.3 0 0 0-.52-.496 1.6 1.6 0 0 0-.742-.174q-.42 0-.76.182a1.36 1.36 0 0 0-.728 1.231q0 .41.197.73.197.321.56.503.362.181.835.181.756 0 1.15-.443l-.431-.46a.94.94 0 0 1-.7.266.9.9 0 0 1-.528-.148.65.65 0 0 1-.269-.403m-.011-.466a.65.65 0 0 1 .228-.417.7.7 0 0 1 .46-.154q.27 0 .457.156a.65.65 0 0 1 .228.415z" clip-rule="evenodd"/><path fill="#4971FF" fill-rule="evenodd" d="M22.201 3.116h-6.375a.29.29 0 0 0-.291.292v6.376c0 .161.13.292.291.292h6.375a.293.293 0 0 0 .292-.293V3.408a.29.29 0 0 0-.292-.291zm-1.958 4.571c.285-.285.448-.663.46-1.065v-.05a.292.292 0 0 1 .583.001v.067a2.16 2.16 0 0 1-4.275.345h-.458a.147.147 0 0 1-.106-.25l.761-.793a.15.15 0 0 1 .214 0l.762.794a.148.148 0 0 1-.107.25h-.466a1.575 1.575 0 0 0 2.632.701m.197-2.042a.29.29 0 0 1 .075-.406.29.29 0 0 1 .449.18.29.29 0 0 1-.12.3.29.29 0 0 1-.405-.075h.001zm-2.746-.32a.292.292 0 1 1 .439-.384.292.292 0 0 1-.439.384m2.07-.235a.291.291 0 1 1 .23-.535.291.291 0 0 1-.23.535m-1.2-.351a.292.292 0 1 1 .577-.09.292.292 0 0 1-.577.09" clip-rule="evenodd"/></svg>