<?xml version="1.0"?>
<svg xmlns="http://www.w3.org/2000/svg" viewBox="0 0 38 23.999999" height="24" width="38" role="img">
  <title>Citadele</title><path fill="#fff" stroke-width=".996" d="M0 0h38v24H0z"/>
  <path d="M.554 9.38c-.343 0-.377-.121-.377-1v-.15c0-.882.034-1.001.377-1.001h7.847c.344 0 .378.119.378 1v.15c0 .88-.034 1-.378 1H.554zM.554 5.509c-.343 0-.377-.12-.377-1v-.15c0-.883.034-1.002.377-1.002h7.847c.344 0 .378.12.378 1.002v.15c0 .88-.034 1-.378 1H.554zM1.73 17.004c0-1.457.702-2.258 1.759-2.258.399 0 .718.118 1.118.319.145.074.265.044.455-.411l.138-.31c.137-.373.147-.527-.019-.61-.49-.29-1.248-.473-1.903-.473C1.412 13.261 0 14.755 0 17.004c0 2.248 1.412 3.742 3.278 3.742.655 0 1.43-.182 1.922-.474.164-.081.153-.237.018-.61l-.137-.327c-.19-.456-.31-.482-.456-.411-.4.202-.737.32-1.136.32-1.057 0-1.758-.784-1.758-2.24M23.965 20.402c0 .198-.073.252-.627.252h-.055c-.584 0-.665-.027-.711-.172a2.451 2.451 0 0 1-.073-.299c-.309.373-.681.572-1.248.572-1.375 0-2.202-1.02-2.202-2.66 0-1.773.92-2.823 2.284-2.823.384 0 .738.12 1.011.338v-2.304c0-.154.018-.218.784-.218h.055c.709 0 .782.064.782.218v7.096zm-1.62-3.498a.993.993 0 0 0-.738-.328c-.61 0-.9.536-.9 1.52 0 .564.118.922.29 1.11.154.194.392.256.62.256.282 0 .5-.07.601-.2.09-.1.126-.254.126-.609v-1.75zM32.228 20.438c0 .153-.073.216-.784.216h-.054c-.765 0-.781-.063-.781-.216v-7.132c0-.154.016-.218.78-.218h.055c.71 0 .784.064.784.218v7.132zM26.526 18.542c.09.646.49.957 1.119.957.484 0 .937-.108 1.467-.337.11-.045.209 0 .326.362l.083.203c.117.373.107.456-.019.527-.629.355-1.284.5-2.012.5-1.611 0-2.621-.99-2.621-2.685 0-1.648.928-2.797 2.521-2.797 1.576 0 2.385 1.13 2.385 2.696 0 .52-.045.574-.227.574h-3.022zm1.628-1.01c-.025-.545-.244-1.02-.781-1.02-.466 0-.803.354-.867 1.02h1.648zM34.75 18.542c.09.646.491.957 1.12.957.48 0 .937-.108 1.465-.337.108-.045.21 0 .328.362l.082.203c.117.373.108.456-.018.527-.629.355-1.285.5-2.014.5-1.611 0-2.62-.99-2.62-2.685 0-1.648.927-2.797 2.52-2.797 1.577 0 2.387 1.13 2.387 2.696 0 .52-.046.574-.228.574H34.75zm1.63-1.01c-.03-.545-.246-1.02-.783-1.02-.465 0-.803.354-.866 1.02h1.648zM16.458 16.94a.882.882 0 0 0-.701-.354c-.61 0-.9.537-.9 1.492 0 .81.216 1.412.881 1.412.247 0 .428-.064.556-.193.118-.126.164-.3.164-.68V16.94zm1.639 3.462c0 .198-.072.252-.627.252h-.075c-.582 0-.664-.027-.709-.172-.028-.08-.055-.2-.073-.299-.309.373-.683.572-1.248.572-1.32 0-2.167-1.003-2.167-2.64 0-1.821 1.047-2.843 2.286-2.843.501 0 .937.211 1.174.511l.028-.228c.008-.108.037-.18.636-.18h.064c.62 0 .71.044.71.21v4.817zM10.497 13.836c.609 0 .646.008.646.208v1.33h1.048c.145 0 .19.027.19.527v.074c0 .499-.045.528-.19.528h-1.048v2.386c0 .4.072.61.436.61.19 0 .356-.037.52-.09.172-.067.237.017.355.435l.027.1c.127.458.09.494-.072.574-.328.155-.766.237-1.175.237-1.293 0-1.657-.655-1.657-1.795v-2.457h-.61c-.155 0-.193-.03-.193-.528v-.074c0-.5.038-.526.193-.526h.683c.074-.428.2-1.03.282-1.331.046-.173.073-.208.565-.208M7.11 15.375c.711 0 .774.062.774.218v4.845c0 .162-.063.216-.774.216h-.046c-.782 0-.8-.054-.8-.216v-4.845c0-.156.018-.218.8-.218h.046zm-.046-2.368c.513 0 .885.4.885.855a.865.865 0 0 1-.885.847c-.507 0-.883-.4-.883-.847 0-.456.376-.855.883-.855" fill="#ee293d"/>
</svg>
