<svg xmlns="http://www.w3.org/2000/svg" width="38" height="24" fill="none" aria-labelledby="pi-clerq" role="img" viewBox="0 0 38 24"><title id="pi-clerq">Clerq</title><path fill="#fff" d="M0 0h38v24H0z"/><path fill="#000" d="M22.699 7h-1.127c-.153 0-.283-.13-.303-.303-.138-.985-.886-1.71-1.764-1.711-.878 0-1.626.724-1.765 1.709-.022.172-.15.3-.304.303h-1.128a.29.29 0 0 1-.217-.101.37.37 0 0 1-.09-.246q-.002-.015 0-.03C16.17 4.569 17.685 3 19.499 3c1.813 0 3.33 1.566 3.5 3.618.014.19-.11.357-.277.374h-.03zm-1.073 7h-5.252a.374.374 0 0 0-.374.374v1.252c0 .207.167.374.374.374h5.252a.374.374 0 0 0 .374-.374v-1.252a.374.374 0 0 0-.374-.374m4.049-1H24.33a.33.33 0 0 1-.304-.197.3.3 0 0 1-.025-.123V9.955H21.33a.324.324 0 0 1-.328-.318q-.001-.005 0-.006V8.319c0-.176.145-.319.327-.319h2.97C25.237 8 26 8.743 26 9.66v3.016c0 .176-.147.32-.328.32zm-11.003 0h-1.343a.324.324 0 0 1-.329-.32V9.663c0-.442.18-.865.499-1.177A1.72 1.72 0 0 1 14.702 8h2.968a.33.33 0 0 1 .232.09c.062.06.097.14.098.225v1.313a.327.327 0 0 1-.328.32H15v2.73a.326.326 0 0 1-.33.321v-.002zm9.625 8h-2.969a.323.323 0 0 1-.328-.316v-1.313c0-.177.146-.32.328-.32H24V16.32c0-.177.146-.32.328-.32h1.344c.18 0 .326.14.328.316v3.019c-.001.919-.763 1.664-1.703 1.665m-6.625 0h-2.968c-.94-.003-1.704-.747-1.704-1.666V16.32c0-.177.145-.32.326-.32h1.345a.33.33 0 0 1 .231.091c.062.06.097.14.097.225v2.73h2.672c.087 0 .17.033.232.093s.097.141.097.226v1.319a.327.327 0 0 1-.328.316"/></svg>