<svg xmlns="http://www.w3.org/2000/svg" fill="none" viewBox="0 0 38 24" height="24" width="38" aria-labelledby="pi-cleverpay" role="img"><title id="pi-cleverpay">CleverPay</title><path fill="#fff" d="M0 0h38v24H0z"/><path fill="#3E64FF" d="M19 21a9 9 0 1 0 0-18 9 9 0 0 0 0 18Z"/><path fill="#00F9FF" d="M17.869 12.85a.197.197 0 0 0 .184.043.2.2 0 0 0 .138-.13l1.364-5.234a.186.186 0 0 0-.135-.228.193.193 0 0 0-.098 0l-5.164 1.384a.194.194 0 0 0-.135.132.185.185 0 0 0 .047.181l3.799 3.852Z"/><path fill="#fff" d="M20.132 11.156a.197.197 0 0 0-.184-.043.2.2 0 0 0-.138.13l-1.364 5.235a.188.188 0 0 0 .02.142.188.188 0 0 0 .115.085.192.192 0 0 0 .098 0l5.164-1.384a.192.192 0 0 0 .135-.132.187.187 0 0 0-.047-.181l-3.799-3.851v-.001Z"/></svg>