<svg width="38" height="24" viewBox="0 0 38 24" aria-labelledby="pi-clip" role="img" fill="#fff" xmlns="http://www.w3.org/2000/svg"><title id="pi-clip">Clip</title><rect x=".5" y=".5" width="37" height="23" rx="2.5" stroke="#000" stroke-opacity=".07"/><path fill-rule="evenodd" clip-rule="evenodd" d="M30.4 4.72C30.39 2.664 28.698 1 26.612 1c-.518 0-1.026.097-1.461.289l-13.8 5.783C9.382 7.892 8 9.816 8 12.052v7.314c0 2.064 1.695 3.737 3.788 3.737.53 0 1.035-.108 1.494-.303l13.742-5.757c1.98-.815 3.376-2.745 3.376-4.991V4.72z" fill="#FC4C02"/><path fill-rule="evenodd" clip-rule="evenodd" d="M17.703 14.988c-.16 0-.29-.143-.29-.318V7.943c0-.176.13-.318.29-.318.161 0 .292.142.292.318v6.727c0 .175-.13.318-.292.318zM20.236 14.688v-5.26c0-.178-.13-.322-.292-.322-.16 0-.29.144-.29.322v5.26c0 .178.13.322.29.322.161 0 .292-.144.292-.322zM20.236 7.92v-.016c0-.154-.13-.28-.292-.28-.16 0-.29.126-.29.28v.016c0 .155.13.28.29.28a.286.286 0 00.292-.28zM15.68 14.279a.317.317 0 000-.456.333.333 0 00-.466 0c-.95.93-2.495.93-3.445 0a2.353 2.353 0 010-3.373 2.447 2.447 0 011.722-.699c.651 0 1.263.248 1.723.699a.334.334 0 00.466 0 .318.318 0 000-.457 3.107 3.107 0 00-2.189-.887c-.826 0-1.603.315-2.188.887a2.989 2.989 0 000 4.286c.603.59 1.395.886 2.188.886.793 0 1.585-.295 2.189-.886zM22.548 16.302V12.13c0-1.312 1.084-2.38 2.416-2.38 1.333 0 2.417 1.068 2.417 2.38 0 1.312-1.084 2.38-2.417 2.38-.768 0-1.288-.29-1.292-.291a.33.33 0 00-.447.114.32.32 0 00.116.441c.027.016.669.38 1.623.38 1.693 0 3.07-1.357 3.07-3.024s-1.377-3.023-3.07-3.023c-1.693 0-3.07 1.356-3.07 3.023v4.173c0 .178.147.322.327.322.18 0 .327-.144.327-.322z" fill="#fff"/><path fill-rule="evenodd" clip-rule="evenodd" d="M30.343 18.438a.935.935 0 01-.942.928.935.935 0 01-.94-.928c0-.513.42-.929.94-.929s.942.416.942.929zm-.149 0a.792.792 0 10-1.582 0 .792.792 0 001.582 0zm-.397.508h-.167l-.236-.416h-.156v.416h-.143v-1.019h.35c.18 0 .326.134.326.306 0 .148-.094.24-.221.28l.247.433zm-.172-.713c0-.103-.08-.18-.195-.18h-.192v.357h.192c.114 0 .195-.075.195-.177z" fill="#FC4C02"/></svg>