<svg xmlns="http://www.w3.org/2000/svg" width="38" height="24" fill="none" aria-labelledby="pi-clip" role="img" viewBox="0 0 38 24"><title id="pi-clip">Clip</title><path fill="#fff" d="M0 0h38v24H0z"/><path fill="#FC4C02" fill-rule="evenodd" d="M29.5 5.034A3.55 3.55 0 0 0 25.948 1.5c-.486 0-.962.092-1.37.274L11.64 7.27A5.14 5.14 0 0 0 8.5 12v6.95a3.55 3.55 0 0 0 4.952 3.262l12.882-5.47A5.14 5.14 0 0 0 29.5 12z" clip-rule="evenodd"/><path fill="#fff" fill-rule="evenodd" d="M17.597 14.79c-.15 0-.273-.136-.273-.303v-6.39c0-.168.122-.303.273-.303.15 0 .273.135.273.303v6.39c0 .167-.122.303-.273.303m2.374-.286V9.508c0-.17-.122-.307-.274-.307-.15 0-.272.137-.272.307v4.996c0 .17.122.307.272.307.152 0 .274-.137.274-.307m0-6.429v-.016a.27.27 0 0 0-.274-.265.27.27 0 0 0-.272.265v.016c0 .146.122.265.272.265a.27.27 0 0 0 .274-.265M15.7 14.116a.303.303 0 0 0 0-.433.31.31 0 0 0-.437 0 2.3 2.3 0 0 1-3.23 0 2.257 2.257 0 0 1 .741-3.698 2.3 2.3 0 0 1 .874-.171c.61 0 1.184.236 1.615.664a.31.31 0 0 0 .528-.217.3.3 0 0 0-.091-.217 2.9 2.9 0 0 0-2.052-.843 2.895 2.895 0 0 0-2.679 1.776 2.87 2.87 0 0 0 .628 3.139c.545.54 1.283.844 2.051.842.743 0 1.486-.28 2.052-.842m6.438 1.923v-3.965a2.266 2.266 0 0 1 4.531 0 2.266 2.266 0 0 1-2.265 2.26c-.72 0-1.208-.274-1.212-.276a.307.307 0 0 0-.31.528c.025.014.627.36 1.522.36a2.88 2.88 0 0 0 2.878-2.872 2.879 2.879 0 0 0-5.757 0v3.965a.306.306 0 0 0 .613 0" clip-rule="evenodd"/></svg>