<svg xmlns="http://www.w3.org/2000/svg" width="38" height="24" aria-labelledby="pi-cliq"><title id="pi-cliq">CliQ</title><path opacity=".07" fill="#000" d="M35 0H3C1.3 0 0 1.3 0 3v18c0 1.7 1.4 3 3 3h32c1.7 0 3-1.3 3-3V3c0-1.7-1.4-3-3-3z"/><path fill="#fff" d="M35 1c1.1 0 2 .9 2 2v18c0 1.1-.9 2-2 2H3c-1.1 0-2-.9-2-2V3c0-1.1.9-2 2-2h32"/><g clip-rule="evenodd" fill-rule="evenodd"><path d="M26.148 5.744h.1v.146c-.13-.002-.262-.004-.393-.008a.645.645 0 01-.007-.123c.101-.002.202-.007.3-.015z" opacity=".932" fill="#fcb712"/><path d="M26.617 5.744c.133.008.267.017.4.027-.008.063-.02.126-.034.189-.127-.02-.254-.038-.381-.055.004-.054.008-.108.015-.161z" opacity=".949" fill="#fcb712"/><path d="M27.41 5.828c.133.022.266.047.4.073l-.066.235a25.36 25.36 0 00-.365-.1l-.008-.011c.015-.065.028-.13.038-.197z" opacity=".955" fill="#fcb712"/><path d="M28.179 5.967c.13.039.262.078.392.119l-.108.277a2.705 2.705 0 01-.36-.142c.028-.084.053-.169.076-.254z" opacity=".957" fill="#fcb712"/><path d="M28.933 6.244c.127.047.25.102.37.166-.055.108-.11.214-.17.318a6.658 6.658 0 01-.327-.177c.035-.104.077-.206.127-.307z" opacity=".961" fill="#fcb712"/><path d="M25.902 6.275c1.572-.053 2.963.418 4.169 1.41 1.286 1.123 1.989 2.539 2.112 4.25a6.025 6.025 0 01-.989 3.647c.438.316.879.627 1.323.935a.156.156 0 01.046.045c-.39.564-.785 1.124-1.185 1.681l-1.63-1.146c-1.418 1.01-2.987 1.36-4.708 1.05-1.493-.308-2.702-1.063-3.627-2.265-1.026-1.399-1.398-2.958-1.114-4.676.31-1.615 1.13-2.898 2.457-3.85a5.995 5.995 0 013.146-1.081zm.138 1.746c1.325-.017 2.433.458 3.327 1.423.929 1.09 1.253 2.341.97 3.753-.334 1.349-1.126 2.324-2.374 2.927a4.243 4.243 0 01-5.426-1.712 4.244 4.244 0 01-.462-3.145c.345-1.315 1.128-2.267 2.35-2.858a4.34 4.34 0 011.615-.388z" opacity=".996" fill="#121721"/><path d="M29.648 6.582c.125.06.245.128.361.204-.08.12-.163.24-.246.358a7.246 7.246 0 00-.262-.18.143.143 0 01-.045-.047c.065-.111.129-.223.192-.335z" opacity=".962" fill="#fcb712"/><path d="M30.333 6.963c.114.077.224.159.33.246l-.322.377c-.1-.08-.195-.164-.286-.254l.278-.37z" opacity=".963" fill="#fcb712"/><path d="M30.963 7.513c.103.092.203.187.3.285-.133.128-.269.254-.407.377a2.622 2.622 0 01-.254-.281c.116-.13.237-.258.361-.38z" opacity=".966" fill="#fcb712"/><path d="M31.525 8.075c.015.003.026.01.034.022.078.1.155.197.235.292a30.59 30.59 0 01-.496.363 10.116 10.116 0 01-.22-.309l.447-.369z" opacity=".967" fill="#fcb712"/><path d="M26.017 8.255h.069v.092h-.238v-.083a.92.92 0 00.169-.008z" opacity=".872" fill="#9ca1a1"/><path d="M26.318 8.274c.079.003.158.009.237.016a.354.354 0 01-.023.116 2.912 2.912 0 00-.223-.031.403.403 0 01.009-.1z" opacity=".92" fill="#9ca1a1"/><path d="M26.779 8.328c.08.01.16.024.239.039a.44.44 0 01-.04.146l-.215-.058a.027.027 0 01-.007-.012.775.775 0 00.023-.115z" opacity=".924" fill="#9ca1a1"/><path d="M27.249 8.415c.073.026.146.052.22.076.009.008.009.02.003.03a1.87 1.87 0 01-.065.145l-.206-.091c.013-.053.029-.107.048-.16z" opacity=".931" fill="#9ca1a1"/><path d="M27.687 8.575c.079.026.156.06.23.1-.035.065-.07.13-.108.192a1.905 1.905 0 01-.2-.115c.029-.059.054-.118.078-.177z" opacity=".935" fill="#9ca1a1"/><path d="M32.017 8.713a.049.049 0 01.034.031l.185.292c.008.008.01.02.009.031-.19.106-.377.211-.567.315a2.609 2.609 0 01-.18-.33c.176-.11.348-.224.52-.339z" opacity=".968" fill="#fcb712"/><path d="M28.14 8.774c.076.037.147.08.215.127a2.994 2.994 0 01-.146.212 1.206 1.206 0 01-.184-.135c.038-.068.076-.137.115-.204z" opacity=".94" fill="#9ca1a1"/><path d="M28.517 9.028a.07.07 0 01.039.011c.057.043.114.089.169.135a2.72 2.72 0 01-.197.224 2.39 2.39 0 01-.172-.15c.058-.07.112-.143.161-.22z" opacity=".941" fill="#9ca1a1"/><path d="M28.902 9.32c.063.056.124.115.185.174-.081.077-.164.153-.247.227a1.833 1.833 0 01-.154-.17c.07-.079.141-.156.215-.23z" opacity=".943" fill="#9ca1a1"/><path d="M32.433 9.413c.008 0 .015.006.019.016.056.12.11.24.161.36-.209.089-.417.176-.627.262a8.311 8.311 0 01-.142-.323c-.006-.01-.005-.021.004-.03.197-.092.392-.186.584-.285z" opacity=".97" fill="#fcb712"/><path d="M29.233 9.644c.017.005.03.016.043.03.042.053.085.107.126.162a17.29 17.29 0 01-.297.215 3.743 3.743 0 01-.134-.184l.262-.224z" opacity=".947" fill="#9ca1a1"/><path d="M29.525 10.051c.016 0 .027.009.034.023.039.06.076.12.112.18-.11.072-.223.138-.339.197a2.477 2.477 0 01-.115-.195c.104-.067.206-.135.308-.205z" opacity=".948" fill="#9ca1a1"/><path d="M32.756 10.155c.007 0 .013.004.015.012.045.129.086.258.123.388-.228.06-.455.124-.681.193-.035-.12-.072-.24-.112-.358l.655-.235z" opacity=".973" fill="#fcb712"/><path d="M29.79 10.482h.023c.031.075.065.15.1.224-.124.055-.25.109-.377.161a1.475 1.475 0 01-.092-.204l.346-.18z" opacity=".95" fill="#9ca1a1"/><path d="M28.41 10.482c.037 0 .053.018.05.054-.687.865-1.373 1.731-2.054 2.6a.043.043 0 01-.043.011l-1.111-1.704c-.002-.053.023-.07.073-.05.311.178.622.358.93.54.055.034.106.03.155-.016.665-.481 1.332-.959 2-1.435z" opacity=".982" fill="#121723"/><path d="M29.963 10.913h.024c.019.07.04.139.065.208a.032.032 0 01-.004.034c-.13.036-.26.073-.389.112-.014-.005-.022-.015-.023-.031a1.77 1.77 0 01-.05-.192c.128-.04.254-.083.377-.131z" opacity=".952" fill="#9ca1a1"/><path d="M32.964 10.944H33c.029.135.054.271.078.408-.24.036-.478.073-.716.115a8.805 8.805 0 00-.069-.365l.67-.158z" opacity=".974" fill="#fcb712"/><path d="M30.094 11.382h.046c.014.082.03.165.046.246a8.658 8.658 0 00-.423.069.034.034 0 01-.012-.015 2.229 2.229 0 01-.034-.214c.128-.024.253-.052.377-.086z" opacity=".956" fill="#9ca1a1"/><path d="M33.125 11.744h.03l.031.415c-.246.013-.492.024-.739.03a32.797 32.797 0 00-.022-.368c.235-.024.468-.05.7-.078z" opacity=".977" fill="#fcb712"/><path d="M30.171 11.86h.046c.008.083.017.168.023.253l-.447.015a4.072 4.072 0 00-.014-.223c.132-.013.263-.029.392-.046z" opacity=".96" fill="#9ca1a1"/><path d="M29.787 12.344h.438c0 .085-.002.169-.008.254l-.447-.031.017-.223z" opacity=".964" fill="#9ca1a1"/><path d="M32.44 12.551c.246.005.493.007.74.008l-.017.415-.739-.046c.004-.126.01-.251.016-.377z" opacity=".977" fill="#fcb712"/><path d="M29.732 12.763l.438.057a.038.038 0 01.01.02 5.36 5.36 0 00-.04.23 16.072 16.072 0 01-.43-.084l-.008-.015c.013-.07.023-.138.03-.208z" opacity=".957" fill="#9ca1a1"/><path d="M29.67 13.19c.147.031.29.07.432.115a8.468 8.468 0 00-.066.224.03.03 0 01-.015.007 7.082 7.082 0 01-.412-.134c.023-.07.044-.141.062-.212z" opacity=".955" fill="#9ca1a1"/><path d="M32.386 13.297c.247.028.493.062.739.1-.023.137-.047.273-.073.408-.24-.048-.48-.094-.72-.138a6.87 6.87 0 01.054-.37z" opacity=".975" fill="#fcb712"/><path d="M29.532 13.62c.136.049.27.1.404.154a1.24 1.24 0 01-.088.227 4.174 4.174 0 01-.384-.165l-.009-.012c.03-.067.055-.135.077-.203z" opacity=".954" fill="#9ca1a1"/><path d="M32.256 14.001c.235.062.47.12.708.177-.033.129-.067.258-.104.385a.03.03 0 01-.02.015l-.677-.21a.03.03 0 01-.008-.016c.032-.118.066-.235.1-.35z" opacity=".973" fill="#fcb712"/><path d="M29.402 14.02c.129.064.253.132.377.204a2.894 2.894 0 01-.123.212c-.122-.07-.242-.141-.362-.215l.108-.2z" opacity=".95" fill="#9ca1a1"/><path d="M32.051 14.697c.227.086.452.173.677.262-.051.125-.105.249-.161.373a.076.076 0 01-.038-.007l-.608-.273c-.009-.007-.01-.015-.004-.024l.134-.33z" opacity=".972" fill="#fcb712"/><path d="M31.74 15.375c.217.1.43.21.639.326-.068.121-.138.24-.212.358a61.173 61.173 0 00-.596-.362l.17-.322z" opacity=".97" fill="#fcb712"/><path d="M10.415 6.34c.703-.026 1.399.035 2.087.183.363.079.71.206 1.039.38a.03.03 0 01.008.016l-.447 1.477c-.009.009-.017.01-.027.004a4.678 4.678 0 00-1.644-.48 5.365 5.365 0 00-2.095.163c-1.126.35-1.903 1.076-2.331 2.175-.15.404-.25.82-.295 1.249a6.127 6.127 0 00.148 2.218 3.64 3.64 0 001.113 1.835c.447.375.975.638 1.544.769.534.12 1.083.159 1.629.116a5.678 5.678 0 001.613-.334l.396-.174c.12.487.24.975.365 1.462a.042.042 0 01-.009.023 4.352 4.352 0 01-1.116.395 9.053 9.053 0 01-2.848.156 5.658 5.658 0 01-2.381-.83 4.968 4.968 0 01-1.982-2.556 7.063 7.063 0 01-.365-2.49A6.386 6.386 0 015.5 9.28c.763-1.404 1.92-2.313 3.472-2.726.472-.12.956-.191 1.443-.213z" opacity=".995" fill="#121721"/><path d="M14.785 6.632h1.65v11.161h-1.65V6.632zm3.676.535c.361-.02.653.11.876.39.198.313.236.643.112.993a.95.95 0 01-.732.582.997.997 0 01-.928-.296 1.057 1.057 0 01-.174-1.06.945.945 0 01.628-.568 1.65 1.65 0 01.218-.04zm-.768 2.907h1.686v7.717h-1.686v-7.717z" fill="#121721"/></g></svg>