<svg xmlns="http://www.w3.org/2000/svg" fill="none" viewBox="0 0 38 24" height="24" width="38" aria-labelledby="pi-codensa" role="img"><title id="pi-codensa">Codensa</title><g clip-path="url(#pi-codensa-a)"><path fill="#F3CE13" d="M0 0h38v24H0z"/><mask id="pi-codensa-b" width="38" height="24" x="0" y="0" maskUnits="userSpaceOnUse" style="mask-type:luminance"><path fill="#fff" d="M0 0h38v24H0V0Z"/></mask><g mask="url(#pi-codensa-b)"><path fill="#000" d="M6.35 7.9a1.83 1.83 0 0 0-.902.216 1.376 1.376 0 0 0-.564.573c-.127.257-.19.54-.187.827 0 .234.037.44.103.638.066.188.169.357.3.508.132.14.31.253.526.338.216.075.46.122.742.122.357 0 .724-.075 1.109-.235l.094.385c-.31.169-.733.244-1.268.244a2.699 2.699 0 0 1-.94-.15 1.786 1.786 0 0 1-.685-.413 1.827 1.827 0 0 1-.413-.64 2.276 2.276 0 0 1-.141-.826 2 2 0 0 1 .15-.807c.103-.244.244-.46.432-.63.188-.178.423-.31.704-.413.282-.094.592-.15.93-.15.517 0 .958.094 1.315.29l-.216.367A2.43 2.43 0 0 0 6.34 7.88l.01.019Zm5.954 1.616c0 .3-.047.563-.15.817a1.62 1.62 0 0 1-.423.629c-.178.178-.413.31-.695.413-.303.1-.62.151-.939.15-.47 0-.873-.084-1.202-.253a1.71 1.71 0 0 1-.752-.704 2.103 2.103 0 0 1-.253-1.052c0-.62.197-1.118.582-1.475.385-.357.93-.535 1.625-.535s1.221.178 1.606.544c.385.367.582.855.582 1.475l.02-.01h-.001Zm-3.822 0c0 .497.14.892.413 1.174.272.28.676.432 1.211.432.536 0 .94-.141 1.212-.423.272-.282.404-.676.404-1.174 0-.498-.141-.911-.413-1.193-.273-.282-.677-.422-1.203-.422s-.93.14-1.211.422c-.282.282-.413.676-.413 1.193v-.01Zm8.35 0c0 .629-.217 1.117-.64 1.446-.431.329-1.023.498-1.793.498h-1.381V7.57h1.287c.385 0 .732.038 1.042.113.3.075.573.188.799.348.225.16.394.357.516.61.122.254.179.545.179.874h-.01.001Zm-.583.01c0-.546-.17-.94-.498-1.184-.338-.245-.817-.367-1.465-.367h-.723v3.1h.817c.61 0 1.07-.132 1.39-.385.32-.263.479-.64.479-1.156v-.01.002Zm1.409 1.934V7.57h2.986v.404h-2.451v1.278h1.991v.394h-1.991v1.418h2.451v.404h-2.986v-.01.002Zm7.805 0h-.667l-2.611-3.062-.17-.178c.02.366.029.695.029.986v2.254h-.554V7.57h.657l2.62 3.062.17.179a55.77 55.77 0 0 1-.029-.968V7.57h.545v3.889h.01Zm.864-.64c.479.198.995.3 1.55.3.675 0 1.023-.261 1.023-.778a.58.58 0 0 0-.16-.413c-.103-.113-.3-.188-.591-.244l-.92-.198c-.705-.15-1.053-.46-1.053-.948 0-.366.15-.648.451-.827.3-.178.723-.272 1.259-.272.281 0 .544.028.789.075.244.047.45.122.61.207l-.16.366a2.607 2.607 0 0 0-.554-.17 3.516 3.516 0 0 0-.704-.074c-.76 0-1.136.216-1.136.657 0 .15.056.273.178.357.113.094.291.16.526.207l.883.178c.375.075.657.198.854.367.198.169.292.403.292.704 0 .394-.141.695-.433.892-.29.197-.685.3-1.183.3a4.52 4.52 0 0 1-.995-.093 3.076 3.076 0 0 1-.686-.226l.16-.375v.01-.001Zm6.987.64-.544-1.23h-1.85l-.564 1.23h-.554l1.784-3.898h.554l1.729 3.898h-.555ZM32.6 9.844a74.527 74.527 0 0 1-.732-1.812l-.76 1.812H32.6Z"/><path fill="#00559E" d="M24.936 14.372h-.394l-.263.46h.197l.46-.46Zm-12.37 1.437h.789v-.216h-.79v-.442h.827l.01-.216h-1.108v1.597h1.117l.01-.216h-.855v-.507Zm-3.7-.612a.657.657 0 0 1 .347-.085c.15 0 .292.038.423.104h.028l.113-.18h-.028c-.141-.093-.329-.13-.536-.13-.14 0-.263.019-.375.056a.728.728 0 0 0-.47.432.931.931 0 0 0-.01.667.705.705 0 0 0 .452.432c.112.038.244.056.385.056.216 0 .385-.037.516-.103h.019l-.047-.216h-.028a.94.94 0 0 1-.714.057.507.507 0 0 1-.197-.123.767.767 0 0 1-.113-.188.84.84 0 0 1 .028-.563.48.48 0 0 1 .216-.216h-.009Zm6.453-.074a.874.874 0 0 0-.33-.14 1.88 1.88 0 0 0-.422-.048h-.535v1.597h.573c.31 0 .554-.066.732-.207.179-.14.263-.338.263-.6a.866.866 0 0 0-.075-.358.627.627 0 0 0-.216-.253l.01.009Zm-1.005.028h.263c.244 0 .432.047.563.14.122.095.188.245.188.45 0 .19-.056.34-.179.434-.122.094-.3.15-.535.15h-.291V15.15h-.009Zm-.911-.78h-.404l-.263.46h.207l.46-.46Zm-2.039 1.485s-.047-.066-.056-.085a.451.451 0 0 0 .235-.14.402.402 0 0 0 .093-.273c0-.056 0-.103-.018-.14a.319.319 0 0 0-.057-.114c-.018-.028-.056-.056-.084-.084l-.113-.056c-.037-.01-.084-.03-.14-.03-.048 0-.104-.008-.16-.017h-.799v1.615h.273v-.723h.497c.02.037.066.103.123.216l.263.498h.31l-.32-.583s-.028-.056-.056-.084h.01-.001Zm0-.507c0 .084-.028.15-.084.187-.057.038-.16.057-.31.057h-.423v-.47h.46c.132 0 .226.019.282.056.056.038.075.095.075.17Zm16.539-.414h-.273v1.597h.273v-1.597Zm-3.625-.01-.733 1.606h.282l.226-.488h.695l.216.488h.282l-.714-1.606h-.254Zm.376.902h-.507l.253-.61c.038.103.122.31.244.61h.01Zm1.531-.63a.657.657 0 0 1 .348-.085c.15 0 .29.038.422.104h.029l.112-.18h-.028c-.14-.093-.329-.13-.535-.13-.141 0-.263.019-.376.056a.729.729 0 0 0-.47.432.976.976 0 0 0-.065.329c0 .113.018.235.056.338a.704.704 0 0 0 .45.432c.114.038.245.056.386.056.216 0 .385-.037.517-.103h.018l-.047-.216h-.028a.94.94 0 0 1-.714.057.507.507 0 0 1-.197-.123.766.766 0 0 1-.113-.188.7.7 0 0 1-.037-.244c0-.122.028-.225.075-.32a.48.48 0 0 1 .216-.215h-.019Zm2.715 1.119v-1.38h-.282v1.596h1.08l.01-.216H28.9Zm-12.39-1.381h-.272v1.597h.272v-1.597Zm5.693 1.597h.272v-.695h.76v-.207h-.76v-.48h.798l.01-.215h-1.08v1.597Zm-5.185-1.381h.564v1.38h.272v-1.38h.573v-.216h-1.409v.216Zm2.705-.245c-.282 0-.508.075-.667.225-.16.15-.235.348-.235.6 0 .16.038.31.103.433.066.123.17.216.31.29.132.067.3.105.489.105.14 0 .272-.02.385-.056a.707.707 0 0 0 .45-.433.967.967 0 0 0 .057-.328.814.814 0 0 0-.235-.601c-.16-.15-.376-.226-.657-.226v-.01Zm0 .216c.197 0 .356.056.46.16.103.103.15.262.15.45a.685.685 0 0 1-.15.45c-.104.105-.254.16-.46.16-.207 0-.357-.055-.46-.16-.104-.102-.16-.252-.16-.45 0-.197.056-.347.16-.45.103-.104.262-.16.46-.16Z"/><path fill="#000" d="M34.6 12.934H3.4v.282h31.2v-.282Z"/></g></g><defs><clipPath id="pi-codensa-a"><path fill="#fff" d="M0 0h38v24H0z"/></clipPath></defs></svg>