<svg width="38" height="24" viewBox="0 0 38 24" role="img" version="1.1" xmlns="http://www.w3.org/2000/svg" aria-labelledby="pi-cofidisexpressz"><title id="pi-cofidisexpressz">Cofidis Expressz</title><path d="M35 0H3C1.3 0 0 1.3 0 3v18c0 1.7 1.4 3 3 3h32c1.7 0 3-1.3 3-3V3c0-1.7-1.4-3-3-3z" opacity=".07"/><path d="M37 3v18c0 1.1-.9 2-2 2H3c-1.1 0-2-.9-2-2V3c0-1.1.9-2 2-2h32c1.1 0 2 .9 2 2z" fill="#fff" fill-rule="nonzero"/><g stroke-width="1" fill-rule="evenodd"><path d="M3.118 6h31.764C35.5 6 36 6.5 36 7.118v8.942c0 .617-.5 1.118-1.118 1.118H3.118C2.5 17.178 2 16.678 2 16.06V7.118C2 6.5 2.5 6 3.118 6" fill="#D0103A"/><path d="M8.556 11.89a.396.396 0 01-.115.2.492.492 0 01-.26.13.692.692 0 01-.15.015c-.394 0-.595-.275-.595-.64 0-.366.193-.66.586-.66.134 0 .237.028.324.08a.698.698 0 01.2.192l.26-.126c-.161-.243-.415-.343-.742-.343-.569 0-.927.32-.927.852 0 .531.312.845.899.845.394 0 .785-.163.83-.546h-.312.002z" fill="#FFF"/><path d="M6.354 10.05c-.352-.28-.942-.586-1.04-.607l-.017-.003h-.004c-.008 0-.013.003-.016.007-.01.02.136.186.228.295.352.424.944 1.134 1.496 1.18a.777.777 0 00.054.002c.045 0 .061-.02.067-.038a.074.074 0 00.003-.017c0-.188-.764-.813-.771-.82M6.752 12.378c-.009-.01-.024-.02-.048-.025a.226.226 0 00-.054-.005c-.249 0-.718.187-1.252.672 0 0-.053.053-.023.054.067.005.699-.19.897-.286.461-.221.516-.304.517-.344 0-.013-.003-.02-.005-.027 0-.008-.006-.028-.032-.04M6.838 11.59c-.013-.023-.087-.098-.433-.134a8.061 8.061 0 00-.791-.036c-.743 0-1.578.183-1.616.23v.004c.007.056.81.12 1.112.13.165.005.505.025.682.025.464 0 .771-.036.97-.114.007-.002.069-.029.083-.068a.047.047 0 00-.005-.039M8.654 8.372c-.003-.024-.003-.037-.02-.04-.006 0-.01.01-.02.02-.081.094-.425 1.036-.43 1.724-.003.303.02.324.032.334a.033.033 0 00.02.009c.023.005.05-.013.08-.053.157-.208.349-.839.351-1.624v-.04c0-.108-.005-.219-.012-.332M6.307 7.86s-.027-.03-.036-.031h-.002c-.03.025 0 .166.067.404.06.205.168.563.408 1.136.342.813.65.977.662.983l.012.007.01-.007s.084-.044.085-.114v-.004c-.001-.089-.098-.478-.536-1.27-.532-.962-.637-1.069-.669-1.105M7.426 12.595a.055.055 0 00-.024-.01H7.4c-.043 0-.241.062-.463.313-.46.524-.595.905-.835 1.293-.133.216-.34.614-.324.667 0 .002.003.004.006.004h.002c.064-.003.497-.416.835-.82.256-.306.673-.87.826-1.324a.178.178 0 00.007-.047v-.007c0-.026-.007-.054-.028-.07" fill="#FECB00"/><path d="M9.985 8.686h-.004c-.13.066-.956.95-1.119 1.454a.929.929 0 00-.043.18v.009c0 .007.002.012.004.015.03.02.528-.482.68-.755.24-.429.48-.837.485-.895v-.002s-.002-.004-.004-.004" fill="#FFF"/><path d="M8.068 12.921s-.011-.004-.016-.004a.035.035 0 00-.024.01c-.004.003-.008.005-.011.01-.224.316-.171 1.47-.043 2.278.011.07.038.164.055.166 0 0 .003 0 .003-.002.059-.047.124-.747.16-1.187.018-.206.028-.46.006-.74-.04-.484-.115-.52-.131-.53M8.86 12.824c-.178-.193-.206-.196-.224-.196a.038.038 0 00-.029.014c-.005.007-.025.024-.012.082.085.382.655 1.212.901 1.41 0 0 .13.109.136.086.018-.063-.132-.393-.219-.562-.103-.198-.31-.57-.552-.834M10.08 12.694a3.747 3.747 0 00-.533-.326c-.238-.116-.346-.143-.397-.144h-.01c-.02 0-.03.006-.033.009a.029.029 0 00-.014.031c0 .004.001.008.004.013.13.299.987.76 1.627 1.02.059.024.143.046.144.03-.009-.064-.486-.416-.788-.633M9.067 11.023l.051.008a.643.643 0 00.07.003c.512 0 1.146-.525 1.532-.845.102-.084.259-.208.264-.234v-.002s-.01-.01-.026-.01h-.008c-.095.004-.699.236-1.077.436-.009.005-.858.423-.864.59V10.978c.003.017.015.039.057.048M11.937 11.651c-.039-.046-.873-.23-1.615-.23-.285 0-.552.013-.792.037-.344.035-.418.11-.433.133a.047.047 0 00-.005.039c.012.039.075.065.083.068.198.078.506.114.97.114.178 0 .517-.02.682-.025.301-.01 1.105-.074 1.112-.13v-.005" fill="#FECB00"/><path d="M16.35 11.985a1.007 1.007 0 01-.29.504 1.247 1.247 0 01-.656.33 1.77 1.77 0 01-.376.038c-.993 0-1.502-.693-1.502-1.618 0-.924.485-1.663 1.478-1.663.34 0 .598.07.818.201.245.145.427.37.505.485l.654-.315c-.405-.612-1.045-.865-1.87-.865-1.436 0-2.339.81-2.339 2.15 0 1.34.785 2.132 2.269 2.132.996 0 1.983-.412 2.095-1.377h-.788l.002-.002zM19.333 10.6c-.748 0-1.23.463-1.23 1.182 0 .718.482 1.182 1.23 1.182.747 0 1.23-.464 1.23-1.182 0-.719-.483-1.182-1.23-1.182m0 2.81c-1.219 0-1.89-.578-1.89-1.627s.689-1.627 1.89-1.627c1.2 0 1.888.578 1.888 1.627s-.671 1.627-1.888 1.627M22.611 13.297h-.623v-2.583h-.779v-.445h.78v-.158c0-.82.337-1.187 1.097-1.187.176 0 .38.014.544.037l.018.002v.447l-.024-.003a2.217 2.217 0 00-.383-.036c-.453 0-.628.184-.628.652v.248h.958v.444h-.958v2.583l-.002-.001zM29.447 9.595h.623v-.636h-.623zM30.07 13.297h-.623V10.55l.595-.282h.028zM24.088 9.595h.625v-.636h-.625zM24.713 13.297h-.625v-2.742l.625-.296zM32.132 13.41c-.772 0-1.295-.243-1.472-.682l-.007-.018.601-.285.004.026c.06.346.367.514.939.514.616 0 .955-.177.955-.497 0-.284-.44-.355-.95-.435-.688-.108-1.465-.231-1.465-.922 0-.607.536-.955 1.472-.955.503 0 1.15.098 1.386.566l.01.019-.548.26-.008-.02c-.099-.258-.358-.379-.815-.379-.521 0-.873.174-.873.432 0 .199.191.323.62.404l.988.184c.584.112.844.36.844.805 0 .662-.55.985-1.68.985M27.021 10.6c-.703 0-1.158.463-1.158 1.182 0 .718.455 1.182 1.158 1.182.704 0 1.159-.464 1.159-1.182 0-.719-.455-1.182-1.159-1.182m-.13 2.81c-.961 0-1.687-.7-1.687-1.627s.725-1.627 1.687-1.627c.546 0 .97.156 1.289.476V9.241l.595-.28h.028v3.615c0 .193.01.432.023.7v.022h-.621l-.003-.019c-.01-.113-.021-.235-.024-.373-.304.32-.77.504-1.288.504M22.55 14.548c-.024-.182-.13-.304-.302-.304-.17 0-.277.12-.31.304h.612zm-1.01.12v-.006c0-.408.291-.745.707-.745.479 0 .697.372.697.778 0 .032-.002.069-.005.106h-.996c.04.185.168.28.35.28a.468.468 0 00.347-.146l.233.206a.715.715 0 01-.586.267c-.43 0-.747-.301-.747-.74zM23.854 14.363l.27-.42h.424l-.483.7.505.732h-.436l-.29-.445-.288.445h-.425l.503-.726-.484-.704h.436l.268.42zM25.968 14.662v-.005c0-.237-.161-.396-.35-.396-.19 0-.348.157-.348.396v.005c0 .237.157.396.347.396.19 0 .35-.155.35-.396zm-1.098-.718h.405v.206a.527.527 0 01.446-.233c.334 0 .652.261.652.74v.005c0 .479-.312.74-.652.74a.55.55 0 01-.446-.214v.615h-.405v-1.86zM26.759 13.944h.406v.288c.083-.197.216-.326.457-.315v.425H27.6c-.27 0-.434.163-.434.505v.528h-.406v-1.431h-.001zM28.878 14.548c-.024-.182-.13-.304-.302-.304-.17 0-.277.12-.31.304h.612zm-1.009.12v-.006c0-.408.292-.745.709-.745.478 0 .697.372.697.778 0 .032-.003.069-.005.106h-.996c.04.185.168.28.349.28a.466.466 0 00.347-.146l.232.206a.715.715 0 01-.585.267c-.43 0-.748-.301-.748-.74zM29.526 15.186l.173-.268a.81.81 0 00.451.171c.118 0 .171-.043.171-.107v-.005c0-.088-.138-.117-.296-.165-.2-.06-.427-.152-.427-.43v-.005c0-.292.235-.455.523-.455.183 0 .38.062.534.166l-.154.28a.845.845 0 00-.387-.133c-.1 0-.15.043-.15.1v.004c0 .08.136.117.292.171.2.067.433.163.433.425v.005c0 .317-.237.462-.547.462-.2 0-.425-.067-.615-.216zM30.94 15.186l.174-.268a.81.81 0 00.45.171c.119 0 .172-.043.172-.107v-.005c0-.088-.14-.117-.297-.165-.2-.06-.427-.152-.427-.43v-.005c0-.292.235-.455.524-.455.182 0 .38.062.534.166l-.155.28a.845.845 0 00-.387-.133c-.099 0-.15.043-.15.1v.004c0 .08.138.117.292.171.2.067.434.163.434.425v.005c0 .317-.238.462-.548.462-.2 0-.425-.067-.614-.216h-.002zM32.403 15.09l.74-.819h-.717v-.329h1.221v.285l-.742.818h.742v.33h-1.244z" fill="#FFF"/><path fill="#FECB00" d="M12.996 15.373h7.99v-1.47h-7.99z"/></g></svg>
