<svg xmlns="http://www.w3.org/2000/svg" role="img" viewBox="0 0 38 24" width="38" height="24" aria-labelledby="pi-cofidis3x">    <title id="pi-cofidis3x">Cofidis en 3 fois</title>    <style type="text/css">	.st0{fill:#FFFFFF;}	.st1{opacity:7.000000e-02;}	.st2{fill:#FECB05;}	.st3{fill:#D0103B;}</style><path class="st0" d="M36,24H2c-1.1,0-2-0.9-2-2V2c0-1.1,0.9-2,2-2h34c1.1,0,2,0.9,2,2v20C38,23.1,37.1,24,36,24z"/><g class="st1">	<path d="M36,1c0.6,0,1,0.4,1,1v20c0,0.6-0.4,1-1,1H2c-0.6,0-1-0.4-1-1V2c0-0.6,0.4-1,1-1H36 M36,0H2C0.9,0,0,0.9,0,2v20		c0,1.1,0.9,2,2,2h34c1.1,0,2-0.9,2-2V2C38,0.9,37.1,0,36,0L36,0z"/></g><g>	<path class="st2" d="M8.4,4.2h22.9c0.4,0,0.8,0.4,0.8,0.8v4.5c0,2.5-2,4.5-4.5,4.5H8.4c-2.7,0-4.9-2.2-4.9-4.9l0,0		C3.5,6.4,5.7,4.2,8.4,4.2z"/>	<path class="st3" d="M10.8,4.2h22.9c0.4,0,0.8,0.4,0.8,0.8v4.5c0,2.5-2,4.5-4.5,4.5H10.8c-2.7,0-4.9-2.2-4.9-4.9l0,0		C5.9,6.4,8.1,4.2,10.8,4.2L10.8,4.2z"/>	<g>		<path class="st0" d="M12.3,11.2c-0.1-0.1-0.2-0.2-0.2-0.4c0-0.3,0.2-0.5,0.5-0.5c0.1,0,0.2,0.1,0.3,0.1c0.3,0.2,0.5,0.3,0.9,0.3			c0.4,0,0.7-0.2,0.7-0.6v0c0-0.4-0.3-0.6-0.9-0.6h-0.2c-0.2,0-0.4-0.2-0.4-0.4C13,9,13,8.9,13.2,8.8l0.9-0.9h-1.4			c-0.2,0-0.4-0.2-0.4-0.4S12.4,7,12.7,7h2.3c0.3,0,0.5,0.2,0.5,0.4c0,0.3-0.1,0.4-0.3,0.6l-0.9,0.9c0.6,0.1,1.2,0.4,1.2,1.3v0			c0,0.9-0.6,1.5-1.7,1.5C13.2,11.7,12.7,11.5,12.3,11.2L12.3,11.2z"/>		<path class="st0" d="M16.1,10.9L17,9.8l-0.8-1C16.1,8.7,16,8.6,16,8.5C16,8.2,16.2,8,16.5,8c0.2,0,0.3,0.1,0.5,0.3l0.7,0.9			l0.7-0.9C18.4,8.1,18.6,8,18.7,8c0.3,0,0.5,0.2,0.5,0.4c0,0.1-0.1,0.2-0.1,0.3l-0.9,1l0.9,1c0.1,0.1,0.2,0.3,0.2,0.4			c0,0.3-0.2,0.5-0.5,0.5c-0.2,0-0.3-0.1-0.5-0.3l-0.7-0.9l-0.7,0.9c-0.1,0.1-0.3,0.3-0.4,0.3c-0.3,0-0.5-0.2-0.5-0.4			C16,11.1,16,11,16.1,10.9L16.1,10.9z"/>		<path class="st0" d="M19.7,9.3L19.7,9.3c0-1.3,1-2.4,2.4-2.4c0.7,0,1.2,0.2,1.5,0.5c0.1,0.1,0.2,0.2,0.2,0.4			c0,0.3-0.2,0.5-0.5,0.5c-0.1,0-0.2,0-0.3-0.1c-0.3-0.2-0.6-0.3-0.9-0.3c-0.8,0-1.3,0.6-1.3,1.4v0c0,0.8,0.5,1.5,1.3,1.5			c0.4,0,0.7-0.1,1-0.4c0.1-0.1,0.2-0.1,0.3-0.1c0.3,0,0.5,0.2,0.5,0.5c0,0.2-0.1,0.3-0.2,0.4c-0.4,0.4-0.9,0.6-1.6,0.6			C20.7,11.7,19.7,10.7,19.7,9.3L19.7,9.3z"/>		<path class="st0" d="M24.6,7.5c0-0.3,0.2-0.5,0.5-0.5h1.6c0.5,0,0.9,0.1,1.2,0.4c0.2,0.2,0.3,0.5,0.3,0.8v0c0,0.5-0.3,0.8-0.6,1			c0.5,0.2,0.9,0.5,0.9,1.1v0c0,0.8-0.7,1.3-1.7,1.3h-1.7c-0.3,0-0.5-0.2-0.5-0.5L24.6,7.5L24.6,7.5z M26.6,8.9			c0.4,0,0.7-0.1,0.7-0.5v0c0-0.3-0.2-0.5-0.7-0.5h-1v1H26.6z M26.8,10.7c0.4,0,0.7-0.2,0.7-0.5v0c0-0.3-0.2-0.5-0.8-0.5h-1.2v1			L26.8,10.7L26.8,10.7z"/>	</g>	<g>		<path class="st3" d="M11.9,18.2c0,0.1-0.1,0.3-0.2,0.4c-0.1,0.1-0.3,0.2-0.5,0.2c-0.1,0-0.2,0-0.3,0c-0.7,0-1-0.5-1-1.1			s0.3-1.2,1-1.2c0.2,0,0.4,0,0.6,0.1c0.1,0.1,0.3,0.2,0.4,0.3l0.5-0.2c-0.3-0.4-0.7-0.6-1.3-0.6c-1,0-1.6,0.6-1.6,1.5			s0.5,1.5,1.6,1.5c0.7,0,1.4-0.3,1.5-1L11.9,18.2L11.9,18.2z"/>		<path class="st3" d="M14,19.2c-0.9,0-1.3-0.4-1.3-1.1S13.2,17,14,17c0.8,0,1.3,0.4,1.3,1.1S14.9,19.2,14,19.2z M14,17.3			c-0.5,0-0.9,0.3-0.9,0.8c0,0.5,0.3,0.8,0.9,0.8s0.9-0.3,0.9-0.8C14.9,17.6,14.5,17.3,14,17.3z"/>		<path class="st3" d="M16.3,19.2h-0.4v-1.8h-0.5V17h0.5v-0.1c0-0.6,0.2-0.8,0.8-0.8c0.1,0,0.3,0,0.4,0h0v0.3h0c-0.1,0-0.2,0-0.3,0			c-0.3,0-0.4,0.1-0.4,0.5V17H17v0.3h-0.7L16.3,19.2L16.3,19.2z"/>		<path class="st3" d="M21.5,16.6h-0.4v-0.4h0.4V16.6z"/>		<path class="st3" d="M21.5,19.2h-0.4v-1.9l0.4-0.2h0V19.2z"/>		<path class="st3" d="M17.8,16.6h-0.4v-0.4h0.4V16.6L17.8,16.6z"/>		<path class="st3" d="M17.8,19.2h-0.4v-1.9l0.4-0.2V19.2L17.8,19.2L17.8,19.2z"/>		<path class="st3" d="M23,19.2c-0.5,0-0.9-0.2-1-0.5l0,0l0.4-0.2v0c0,0.2,0.3,0.4,0.7,0.4c0.4,0,0.7-0.1,0.7-0.4			c0-0.2-0.3-0.2-0.7-0.3c-0.5-0.1-1-0.2-1-0.6c0-0.4,0.4-0.7,1-0.7c0.4,0,0.8,0.1,1,0.4v0l-0.4,0.2v0c-0.1-0.2-0.3-0.3-0.6-0.3			c-0.4,0-0.6,0.1-0.6,0.3c0,0.1,0.1,0.2,0.4,0.3l0.7,0.1c0.4,0.1,0.6,0.3,0.6,0.6C24.1,19,23.8,19.3,23,19.2L23,19.2L23,19.2z"/>		<path class="st3" d="M19.3,19.2c-0.6,0-1.2-0.5-1.2-1.1c0-0.6,0.5-1.2,1.1-1.2c0,0,0,0,0.1,0c0.3,0,0.7,0.1,0.9,0.3v-1l0.4-0.2h0			v2.5c0,0.1,0,0.3,0,0.5v0h-0.4v0c0-0.1,0-0.2,0-0.3C20,19.1,19.6,19.3,19.3,19.2L19.3,19.2z M19.4,17.3c-0.5,0-0.8,0.3-0.8,0.8			c0,0.5,0.3,0.8,0.8,0.8c0.5,0,0.8-0.3,0.8-0.8C20.2,17.6,19.9,17.3,19.4,17.3z"/>	</g>	<g>		<path class="st3" d="M26.3,16.2h-0.9c-0.1,0-0.2,0.1-0.2,0.2v2.5c0,0.1,0.1,0.2,0.2,0.2s0.2-0.1,0.2-0.2v-0.8h0.7			c0.7,0,1.2-0.4,1.2-1S26.9,16.2,26.3,16.2L26.3,16.2z M26.2,17.8h-0.7v-1.2h0.7c0.4,0,0.7,0.2,0.7,0.6			C26.9,17.5,26.6,17.8,26.2,17.8z"/>		<path class="st3" d="M29.5,17.8c0-0.3-0.1-0.5-0.2-0.7s-0.4-0.2-0.7-0.2c-0.3,0-0.5,0-0.7,0.1c0,0-0.1,0.1-0.1,0.2			c0,0.1,0.1,0.2,0.2,0.2c0,0,0,0,0.1,0c0.2-0.1,0.3-0.1,0.5-0.1c0.4,0,0.6,0.2,0.6,0.6v0.1l-0.1,0c-0.2,0-0.3-0.1-0.6-0.1			c-0.6,0-0.9,0.2-0.9,0.7l0,0c0,0.5,0.4,0.7,0.8,0.7c0.3,0,0.5-0.1,0.7-0.3l0.1-0.1V19c0,0.1,0.1,0.2,0.2,0.2			c0.1,0,0.2-0.1,0.2-0.2L29.5,17.8L29.5,17.8z M29.1,18.3c0,0.3-0.3,0.6-0.7,0.6c-0.3,0-0.5-0.2-0.5-0.4c0-0.3,0.2-0.4,0.6-0.4			c0.2,0,0.4,0,0.5,0.1l0,0L29.1,18.3L29.1,18.3z"/>		<path class="st3" d="M31.9,17.2c0,0,0-0.1,0-0.1c0-0.1-0.1-0.2-0.2-0.2c-0.1,0-0.2,0-0.2,0.2l-0.6,1.7l-0.7-1.7			c0-0.1-0.1-0.2-0.2-0.2c-0.1,0-0.2,0.1-0.2,0.2c0,0,0,0.1,0,0.1l0.9,1.9l0,0.1c-0.1,0.2-0.2,0.3-0.4,0.3c-0.1,0-0.1,0-0.2,0			c0,0,0,0-0.1,0c-0.1,0-0.2,0.1-0.2,0.2c0,0.1,0.1,0.1,0.1,0.2l0,0c0.1,0,0.2,0.1,0.3,0.1c0.3,0,0.5-0.2,0.7-0.6L31.9,17.2			L31.9,17.2z"/>	</g></g> </svg>