<svg xmlns="http://www.w3.org/2000/svg" width="38" height="24" fill="none" aria-labelledby="pi-coinsph" role="img" viewBox="0 0 38 24"><title id="pi-coinsph">Coins.ph</title><path fill="#fff" d="M0 0h38v24H0z"/><path stroke="#47BAEB" stroke-linecap="square" stroke-linejoin="bevel" stroke-width=".62" d="M15.14 11.2c.213-.26.427-.52.648-.71s.45-.308.757-.384c.308-.077.694-.112.99-.014s.501.328.65.543.243.415.29.549c.045.133.045.2.045.267m13.86-.221c.213-.26.427-.52.648-.71s.45-.307.758-.384c.307-.077.693-.112.99-.014.295.098.5.328.65.543.149.215.242.415.288.549.046.133.046.2.046.267"/><path fill="#F0F" d="M35.76 11.77v3.141Z"/><path stroke="#47BAEB" stroke-width=".62" d="M35.76 11.77v3.141"/><path fill="#47BAEB" d="M28.44 15.081c1.402 0 2.539-1.191 2.539-2.661s-1.137-2.661-2.539-2.661-2.539 1.191-2.539 2.661 1.137 2.661 2.539 2.661"/><path fill="#fff" d="M28.46 14.439c1.054 0 1.909-.9 1.909-2.009 0-1.11-.855-2.009-1.909-2.009s-1.909.9-1.909 2.009c0 1.11.855 2.009 1.909 2.009"/><path stroke="#51BAEB" stroke-width=".586" d="M6.466 13.7a2.44 2.44 0 0 1-1.224.882 2.56 2.56 0 0 1-1.532.013 2.44 2.44 0 0 1-1.24-.86 2.27 2.27 0 0 1-.462-1.397c.007-.5.181-.986.498-1.385s.76-.69 1.263-.83a2.56 2.56 0 0 1 1.532.05 2.43 2.43 0 0 1 1.2.91l-2.046 1.284z"/><path fill="#fff" d="M4.46 14.411c1.19 0 2.154-.914 2.154-2.041s-.964-2.041-2.154-2.041-2.154.914-2.154 2.041.964 2.041 2.154 2.041"/><path fill="#47BAEB" d="M9.627 15.051c1.402 0 2.539-1.191 2.539-2.661s-1.137-2.661-2.539-2.661-2.539 1.191-2.539 2.661 1.137 2.661 2.539 2.661"/><path fill="#fff" d="M9.647 14.409c1.054 0 1.909-.9 1.909-2.009 0-1.11-.855-2.009-1.909-2.009s-1.909.9-1.909 2.009c0 1.11.855 2.009 1.909 2.009"/><path fill="#47BAEB" d="M13.27 9.892v4.975Z"/><path stroke="#47BAEB" stroke-width=".625" d="M13.27 9.892v4.975"/><path fill="#F0F" d="M14.89 9.892v4.975Z"/><path stroke="#47BAEB" stroke-width=".625" d="M14.89 9.892v4.975"/><path fill="#EFA023" d="M13.26 8.843a.49.49 0 1 0 0-.98.49.49 0 0 0 0 .98"/><path fill="#F0F" d="M18.52 11.74v3.141Z"/><path stroke="#47BAEB" stroke-width=".62" d="M18.52 11.74v3.141"/><path fill="#51BAEB" d="M24.43 15.047a.447.447 0 1 0 0-.894.447.447 0 0 0 0 .894"/><path fill="#F0F" d="M26.17 9.837v6.878Z"/><path stroke="#47BAEB" stroke-width=".625" d="M26.17 9.837v6.878"/><path fill="#F0F" d="M32.14 8.027v6.878Z"/><path stroke="#47BAEB" stroke-width=".625" d="M32.14 8.027v6.878"/><path stroke="#47BAEB" stroke-width=".62" d="M22.83 10.77c-.41-.358-.822-.716-1.276-.797s-.953.115-1.271.374c-.319.26-.457.581-.383.91s.357.661.825.857 1.117.254 1.561.499c.444.244.682.673.607 1.07-.076.396-.465.76-.91.93-.444.17-.944.147-1.344-.008-.4-.156-.7-.443-1.002-.73"/></svg>