<?xml version="1.0" encoding="utf-8"?>
<!-- Generator: Adobe Illustrator 20.1.0, SVG Export Plug-In . SVG Version: 6.00 Build 0)  -->
<svg version="1.1" id="Lager_1" xmlns="http://www.w3.org/2000/svg" xmlns:xlink="http://www.w3.org/1999/xlink" x="0px" y="0px"
	 viewBox="0 0 38 24" style="enable-background:new 0 0 38 24;" xml:space="preserve">
<style type="text/css">
	.st0{fill:#582E87;}
	.st1{fill:#FFFFFF;}
</style>
<path class="st0" d="M38,22c0,1.1-0.9,2-2,2H2c-1.1,0-2-0.9-2-2V2c0-1.1,0.9-2,2-2h34c1.1,0,2,0.9,2,2V22z"/>
<path class="st1" d="M11.4,7.6c-1.1,0-2,0.9-2,1.9c0,0.9,0.7,1.9,2,1.9c1.2,0,2-1,2-1.9C13.4,8.5,12.5,7.6,11.4,7.6z M11.4,10.8
	c-0.8,0-1.3-0.6-1.3-1.3c0-0.7,0.5-1.3,1.3-1.3c0.8,0,1.3,0.6,1.3,1.3C12.7,10.2,12.1,10.8,11.4,10.8z"/>
<rect x="14" y="6.6" class="st1" width="0.7" height="4.7"/>
<rect x="15.7" y="6.6" class="st1" width="0.7" height="4.7"/>
<path class="st1" d="M29.2,7.6c-1.1,0-2,0.9-2,1.9c0,0.9,0.7,1.9,2,1.9c1.2,0,2-1,2-1.9C31.2,8.5,30.3,7.6,29.2,7.6z M29.2,10.8
	c-0.8,0-1.3-0.6-1.3-1.3c0-0.7,0.5-1.3,1.3-1.3c0.8,0,1.3,0.6,1.3,1.3C30.5,10.2,29.9,10.8,29.2,10.8z"/>
<path class="st1" d="M32.5,8.1L32.5,8.1l0-0.3h-0.6v3.7h0.7v-2c0-0.5,0.2-0.8,0.4-0.9c0.2-0.1,0.4-0.1,0.5-0.1V7.6
	C33.3,7.6,32.8,7.6,32.5,8.1z"/>
<path class="st1" d="M7.4,8.3c0.5,0,0.8,0.2,1.1,0.6L9,8.4C8.6,7.9,8,7.6,7.4,7.6c-1.1,0-2,0.9-2,1.9c0,0.9,0.7,1.9,2,1.9
	c0.7,0,1.2-0.3,1.6-0.8l-0.5-0.4c-0.2,0.3-0.6,0.6-1.1,0.6c-0.8,0-1.3-0.6-1.3-1.3C6.1,8.9,6.6,8.3,7.4,8.3z"/>
<path class="st1" d="M23.2,8.3c0.5,0,0.8,0.2,1.1,0.6l0.5-0.4c-0.4-0.5-0.9-0.8-1.6-0.8c-1.1,0-2,0.9-2,1.9c0,0.9,0.7,1.9,2,1.9
	c0.7,0,1.2-0.3,1.6-0.8l-0.5-0.4c-0.2,0.3-0.6,0.6-1.1,0.6c-0.8,0-1.3-0.6-1.3-1.3C21.9,8.9,22.4,8.3,23.2,8.3z"/>
<path class="st1" d="M19,7.6c-1,0-1.9,0.8-1.9,1.9c0,1,0.8,1.9,1.9,1.9c0.5,0,1.3-0.3,1.7-1.1h-0.7c-0.2,0.3-0.5,0.5-0.9,0.5
	c-0.5,0-1-0.3-1.2-1h3c0,0,0-0.2,0-0.3C20.8,8.4,19.9,7.6,19,7.6z M17.8,9.3c0-0.5,0.5-1.1,1.2-1.1c0.7,0,1.1,0.5,1.2,1.1H17.8z"/>
<polygon class="st1" points="26.5,6.6 25.8,6.6 25.8,7.7 25.2,7.7 25.2,8.4 25.8,8.4 25.8,11.4 26.5,11.4 26.5,8.4 27.1,8.4 
	27.1,7.7 26.5,7.7 "/>
<g>
	<path class="st1" d="M7.8,13.5c-0.5,0-0.9,0.2-1.3,0.5v-1.4H5.9v4.7h0.7v-0.4c0.3,0.3,0.8,0.5,1.3,0.5c1.2,0,2-1,2-1.9
		C9.8,14.4,9,13.5,7.8,13.5z M7.8,16.7c-0.8,0-1.3-0.6-1.3-1.3v0c0-0.7,0.5-1.3,1.3-1.3c0.8,0,1.3,0.6,1.3,1.3
		C9.1,16.1,8.6,16.7,7.8,16.7z"/>
	<path class="st1" d="M14.1,15.4C14.1,15.4,14.1,15.4,14.1,15.4l0-1.8h-0.7V14c-0.3-0.3-0.8-0.5-1.3-0.5c-1.1,0-2,0.9-2,1.9
		c0,0.9,0.7,1.9,2,1.9c0.5,0,1-0.2,1.3-0.5v0.4h0.7L14.1,15.4C14.1,15.4,14.1,15.4,14.1,15.4z M12.1,16.7c-0.8,0-1.3-0.6-1.3-1.3
		c0-0.7,0.5-1.3,1.3-1.3c0.8,0,1.3,0.6,1.3,1.3v0C13.4,16.1,12.9,16.7,12.1,16.7z"/>
	<path class="st1" d="M16.4,13.5c-0.1,0-0.7,0-1.1,0.5h0v-0.4h-0.6v3.7h0.7v-2c0-0.7,0.4-1.1,1-1.1c0.9,0,0.9,0.9,0.9,1.1v2H18v-2.2
		c0-0.4-0.1-0.7-0.2-0.9C17.5,13.8,17,13.5,16.4,13.5"/>
	<path class="st1" d="M18.6,12.5h0.7V15l1.4-1.4h0.8l-1.6,1.6l1.7,2h-0.8l-1.5-1.9v1.9h-0.7V12.5z"/>
</g>
</svg>
