<svg xmlns="http://www.w3.org/2000/svg" xml:space="preserve" viewBox="0 0 259 60">
  <path fill="#fff" d="M1 1h55v55H1Z"/>
  <path fill="#ff1616" d="M0 0h60v60H0Zm21.576 22.5c1.183 0 3.252.195 4.828.584l.788-4.772c-1.773-.585-4.138-.877-5.714-.877-7.39 0-10.246 2.63-10.246 8.961v6.331c0 6.234 2.758 8.961 10.246 8.961 1.872 0 4.138-.292 5.714-.876l-.788-4.773a20.45 20.45 0 0 1-4.828.584c-3.448 0-4.433-.974-4.433-3.896V26.3c0-2.825 1.084-3.799 4.433-3.799zm24.828-.974c.788-.195 1.773-.487 2.562-.682v-2.922h-7.291c-1.28-.292-2.66-.487-4.04-.487-6.798 0-9.36 2.922-9.458 7.792v2.143c0 2.825.986 4.968 3.153 6.234-1.182.78-2.463 2.045-2.463 3.993 0 2.922 1.28 4.091 4.63 4.48 3.055.293 4.04.488 6.799.78 1.773.195 2.266.487 2.266 1.85 0 1.56-.986 1.851-5.715 1.851-2.66 0-5.32-.39-7.98-.974l-.69 4.384c2.66.779 6.306 1.168 9.064 1.168 8.867 0 10.64-1.948 10.64-6.915 0-3.312-1.181-5.163-5.024-5.65-2.758-.292-4.138-.487-6.798-.681-.887-.098-1.28-.39-1.28-.974 0-.682.59-1.364 1.379-1.851.492 0 .886.097 1.379.097 6.6 0 9.557-2.824 9.557-7.597v-2.143c.098-1.558-.197-2.922-.69-3.896Zm-4.73 3.896c0-2.24-1.083-3.214-4.039-3.214-2.857 0-3.94 1.071-3.94 3.214v1.753c0 2.338 1.182 3.117 3.94 3.117 2.76 0 4.04-.876 4.04-3.117zm81.632 8.515V27.38c0-5.264-2.488-10.23-11.349-10.23-8.86 0-11.25 4.867-11.25 10.23v6.556c0 5.264 2.39 10.23 11.25 10.23 8.96-.1 11.35-4.966 11.35-10.23zm-6.47-6.754v6.952c0 2.88-1.394 4.47-4.78 4.47-3.384 0-4.778-1.49-4.778-4.47v-6.952c0-2.88 1.394-4.47 4.779-4.47s4.778 1.49 4.778 4.47zm33.45 16.09V25.395c1.991-1.192 5.077-2.185 6.77-2.185 1.493 0 2.09.695 2.09 2.086v18.076h6.471V24.6c0-4.568-1.493-7.647-5.774-7.647-3.086 0-7.367 1.191-10.453 2.78-.797-1.787-2.39-2.78-4.878-2.78-2.987 0-7.069 1.092-10.354 2.681l-.597-2.185h-4.978v25.824h6.47V25.395c2.39-1.192 5.178-2.185 6.77-2.185 1.494 0 2.091.695 2.091 2.086v18.076h6.372zm30.663-7.25c7.168 0 10.354-3.179 10.354-8.443v-2.483c0-1.49-.3-2.88-.896-4.072.896-.298 1.99-.497 2.887-.795v-3.277h-8.064c-1.394-.398-2.887-.497-4.38-.497-7.567 0-10.354 3.278-10.454 8.641v2.483c0 3.178 1.195 5.562 3.484 6.953-1.294.894-2.787 2.284-2.787 4.37 0 3.278 1.493 4.47 5.077 4.966 3.286.397 4.58.497 7.467.894 1.99.199 2.489.497 2.489 2.086 0 1.688-1.095 2.086-6.173 2.086-2.986 0-5.873-.398-8.76-1.093l-.797 4.867c2.887.894 7.068 1.291 10.055 1.291 9.756 0 11.648-2.185 11.648-7.648 0-3.675-1.294-5.76-5.476-6.257-3.086-.298-4.679-.497-7.466-.795-1.095-.1-1.493-.397-1.493-1.092 0-.795.696-1.49 1.493-2.086.697-.1 1.294-.1 1.792-.1zm4.38-10.727v1.986c0 2.483-1.294 3.476-4.38 3.476s-4.38-.993-4.38-3.476v-1.986c0-2.483 1.194-3.576 4.38-3.576s4.38 1.192 4.38 3.576zm30.862.894c0-6.456-2.489-9.337-10.553-9.337-2.887 0-6.371.497-8.86 1.192l.797 4.966c2.29-.496 4.778-.794 7.167-.794 4.082 0 4.978.993 4.978 3.873v2.682h-6.272c-5.276 0-7.566 1.986-7.566 7.25 0 4.47 2.09 7.648 6.77 7.648 2.787 0 5.376-.794 7.765-2.284l.498 1.788h5.376zm-6.47 11.124c-1.494.894-3.187 1.291-4.879 1.291-2.09 0-2.588-.795-2.588-2.582 0-1.987.497-2.583 2.688-2.583h4.778zm25.386.496c-.996.298-2.09.497-3.186.497-1.692 0-2.39-.894-2.39-2.284V22.515h6.273l.398-5.165h-6.67V10l-6.471.894v6.456h-3.783v5.165h3.783v14.401c0 4.57 2.488 6.854 7.168 6.854 1.592 0 4.28-.398 5.674-.993zm9.557-4.072v-1.291H259v-5.562c0-5.562-1.792-10.429-10.155-10.429-8.263 0-10.652 4.569-10.652 10.032v6.853c0 6.158 2.788 9.932 10.951 9.932 3.086 0 6.67-.496 9.557-1.688l-.995-4.867a27.153 27.153 0 0 1-7.965 1.192c-3.982.198-5.077-1.093-5.077-4.172zm0-7.846c0-2.483 1.095-4.172 4.28-4.172 3.187 0 3.983 1.689 3.983 4.172v1.29h-8.263zM91.15 43.77c2.09 0 4.68-.398 6.372-.993l-.797-5.265c-1.792.497-3.584.696-5.376.696-3.783 0-4.778-1.093-4.778-4.271v-7.151c0-3.179 1.095-4.271 4.778-4.271 1.294 0 3.584.198 5.376.695l.797-5.264c-1.892-.596-4.48-.993-6.372-.993-8.163 0-11.15 2.98-11.15 9.932v7.052c0 6.952 2.987 9.833 11.15 9.833z"/>
</svg>
