<svg xmlns="http://www.w3.org/2000/svg" width="38" height="24" fill="none" aria-labelledby="pi-coop" role="img" viewBox="0 0 38 24"><title id="pi-coop">Coop</title><path fill="#fff" d="M0 0h38v24H0z"/><path fill="#0078D2" d="M24.7 4.7c-3.3 0-5.9 1.2-6.8 3.3-.3.7-.6 1.5-.6 5.9v1.8l-1.8-2q-.9.3-2.1.3c-2.4 0-3.3-1.5-3.3-3.3s.9-3.3 3.3-3.3c1.2 0 2.1.6 2.7 1.2l1.8-3q-1.8-.9-4.5-.9c-4.7 0-7.7 2.7-7.7 6.2 0 3.6 2.7 6.2 7.7 6.2 1.6 0 2.9-.3 3.9-.7v2.8h3.9v-2.7c.9.3 2.1.6 3.3.6 4.7 0 7.7-2.7 7.7-6.2.2-3.6-2.7-6.2-7.5-6.2m0 9.2c-.6 0-.9 0-1.5-.3l-1.8 2.1v-5.1c0-1.8.9-3.3 3.3-3.3S28 8.8 28 10.6s-.9 3.3-3.3 3.3"/></svg>