<svg xmlns="http://www.w3.org/2000/svg" xmlns:xlink="http://www.w3.org/1999/xlink" width="38" height="24" fill="none" aria-labelledby="pi-coppelpay" role="img" viewBox="0 0 38 24"><title id="pi-coppelpay">Coppel Pay</title><defs><path id="pi-coppelpay-a" fill="#195FA7" d="M31.888 9.98h-9.53c-.176 0-.318.117-.318.262v5.82c0 .143.142.26.317.26h9.53c.176 0 .318-.117.318-.26v-5.82c0-.145-.142-.26-.317-.26z"/></defs><path fill="#fff" d="M0 0h38v24H0z"/><path fill="#195FA7" d="M29.557 9.98h-7.275a.24.24 0 0 0-.224.15.2.2 0 0 0-.018.092v5.36c0 .133.108.241.242.241h7.275a.24.24 0 0 0 .242-.24v-5.36a.24.24 0 0 0-.242-.242Z"/><path fill="#FD4A5C" d="m34.824 10.72-8.283-4.672c-.153-.086-.335-.054-.408.071l-2.903 5.06c-.071.125-.006.296.146.382l8.284 4.671c.153.086.335.054.408-.071l2.904-5.059c.07-.125.004-.296-.148-.383z"/><path fill="#6AAAE4" d="m33.985 10.312-8.927-3.305c-.164-.06-.339 0-.39.135l-2.055 5.453c-.051.135.04.294.205.355l8.927 3.305c.164.061.339 0 .39-.134l2.056-5.45c.05-.137-.042-.296-.206-.359"/><path fill="#F18A00" d="M32.871 10.06 23.47 8.517c-.173-.03-.332.063-.356.206l-.96 5.741c-.025.142.096.28.271.31l9.402 1.544c.173.03.333-.063.357-.206l.96-5.74c.022-.143-.1-.283-.272-.31z"/><use xlink:href="#pi-coppelpay-a"/><use xlink:href="#pi-coppelpay-a"/><path fill="#FFE939" d="M23.735 13.007h-.487v-1.28h.487c.336 0 .677.22.677.64s-.34.64-.677.64m0-1.869H22.65v3.506h.598v-1.049h.487c.725 0 1.272-.528 1.272-1.229 0-.7-.547-1.23-1.272-1.23m2.874 2.97h-.014a.75.75 0 0 1-.765-.767.75.75 0 0 1 .765-.767h.014a.75.75 0 0 1 .765.767.75.75 0 0 1-.765.767m-.007-2.069c-.742 0-1.357.53-1.36 1.303-.002.773.616 1.302 1.36 1.302.273.002.542-.074.772-.22v.18h.585V13.34c0-.767-.615-1.303-1.359-1.303m3.659 0v1.368a.613.613 0 0 1-.615.593.613.613 0 0 1-.616-.593v-1.368h-.589v1.368a1.203 1.203 0 0 0 1.84 1.013.823.823 0 0 1-1.49.184h-.59a1.36 1.36 0 0 0 1.5.911 1.35 1.35 0 0 0 1.151-1.319v-2.156z"/><path fill="#165B96" d="M7.942 11.87c-.78 0-1.426.555-1.426 1.366 0 .81.647 1.367 1.426 1.367s1.424-.556 1.425-1.367-.646-1.367-1.425-1.367zm.007 2.171h-.015a.787.787 0 0 1-.804-.805c0-.442.329-.805.804-.805h.015c.476 0 .804.363.804.805a.786.786 0 0 1-.804.804zm-2.036-.48a1.292 1.292 0 0 1-2.033-.08 1.27 1.27 0 0 1-.237-.729 1.27 1.27 0 0 1 .838-1.2 1.29 1.29 0 0 1 1.424.37l.448-.389a1.92 1.92 0 0 0-1.447-.646C3.853 10.887 3 11.72 3 12.745s.853 1.858 1.906 1.858a1.92 1.92 0 0 0 1.452-.653l-.445-.39Zm8.198-1.695c-.78 0-1.428.562-1.428 1.37v2.482h.616V14.37c.242.153.525.233.812.231.78 0 1.427-.557 1.428-1.369.001-.81-.648-1.366-1.428-1.366m.007 2.175h-.016a.79.79 0 0 1-.805-.809c0-.444.328-.808.805-.808h.015c.476 0 .804.364.804.808a.787.787 0 0 1-.803.808zm-3.093-2.175c-.78 0-1.427.562-1.427 1.37v2.482h.615V14.37c.243.153.525.233.812.231.78 0 1.427-.557 1.428-1.369.001-.81-.647-1.366-1.428-1.366m.008 2.175h-.015a.79.79 0 0 1-.805-.809c0-.444.329-.808.805-.808h.015c.476 0 .804.364.804.808a.785.785 0 0 1-.804.808zm5.982-2.175c-.722 0-1.322.557-1.322 1.37 0 .811.6 1.368 1.322 1.368.435 0 .894-.135 1.136-.473l-.363-.36a.9.9 0 0 1-.699.294c-.474 0-.791-.277-.791-.67h2.03q.009-.082.009-.16c0-.812-.514-1.369-1.322-1.369m-.705 1.096c0-.243.317-.574.743-.574.28 0 .653.21.653.574zm2.874.273v-2.307h-.616v2.307c0 .803.635 1.356 1.405 1.368v-.563a.787.787 0 0 1-.79-.805z"/><path fill="#FFE939" d="M31.598 14.365a.29.29 0 0 1-.578.068.296.296 0 0 1 .493-.273.28.28 0 0 1 .085.205m-.512 0a.22.22 0 0 0 .44-.01.22.22 0 0 0-.306-.202.22.22 0 0 0-.132.212zm.175.15h-.066v-.287a.6.6 0 0 1 .11-.009.2.2 0 0 1 .098.021.08.08 0 0 1 .028.063.07.07 0 0 1-.059.067v.003a.09.09 0 0 1 .052.07q.005.038.021.072h-.071a.3.3 0 0 1-.023-.07c-.005-.032-.022-.046-.059-.046h-.031zm0-.136h.037c.043 0 .077-.016.077-.054q.001-.06-.071-.06a.2.2 0 0 0-.043.004z"/></svg>