<svg xmlns="http://www.w3.org/2000/svg" xmlns:xlink="http://www.w3.org/1999/xlink" width="38" height="24" fill="none" aria-labelledby="pi-creditclickpaynlversion" role="img" viewBox="0 0 38 24"><title id="pi-creditclickpaynlversion">CreditClick (PAY. version)</title><defs><path id="pi-creditclickpaynlversion-b" fill="#fff" d="M0 0h38v24H0z"/></defs><g clip-path="url(#pi-creditclickpaynlversion-a)"><use xlink:href="#pi-creditclickpaynlversion-b"/><path fill="#30A4C0" d="M35.894 0h2.111v21.847c0 1.2-.005.653 0 2.153h-38c-.005-.5 0-.953 0-2.153L0 0z"/><path fill="#DF8A4A" d="M38.005 4v20h-20"/><path fill="#DB8016" d="M38 22v2h-2"/><path fill="#009DC8" d="M24.005 0C24.042-.027 1 24 1 24H0V0z"/><path fill="#0097CC" d="M5 0S-.02 6.07 0 6V0z"/><path fill="#fff" d="M15.34 6.918h1.046q.054.025.11.04c.427.112.858.204 1.279.336q.355.14.686.33a1 1 0 0 1-.062.095c-.464.466-.926.932-1.399 1.388a.27.27 0 0 1-.22.033 3.2 3.2 0 0 0-1.368-.101 2.999 2.999 0 1 0 2.86 4.75.34.34 0 0 0 .044-.265 5.1 5.1 0 0 1-.196-2.12 5.06 5.06 0 0 1 3.634-4.284c.289-.081.581-.134.88-.202h1.087q.292.061.583.125c.49.109.96.292 1.393.544a.3.3 0 0 1-.038.066c-.48.48-.957.959-1.44 1.432a.24.24 0 0 1-.19.04c-.204-.031-.405-.097-.61-.113a2.98 2.98 0 0 0-3.211 3.43 2.82 2.82 0 0 0 2.154 2.438c1.214.343 2.257 0 3.1-.944.118-.13.22-.28.33-.44.468.486.941.946 1.41 1.408.088.088.04.147-.018.22a5.086 5.086 0 0 1-6.996.99c-.235-.174-.44-.37-.68-.559l-.092.088a5.095 5.095 0 0 1-8.46-2.301c-.098-.363-.138-.744-.206-1.118v-.482c.026-.169.05-.34.081-.512q.535-2.968 3.347-4.022a10 10 0 0 1 1.161-.29Z"/></g><defs><clipPath id="pi-creditclickpaynlversion-a"><use xlink:href="#pi-creditclickpaynlversion-b"/></clipPath></defs></svg>