<svg xmlns="http://www.w3.org/2000/svg" role="img" viewBox="0 0 38 24" width="38" height="24" aria-labelledby="pi-{credit-key}">
<title id="pi-{credit-key}">{Credit Key}</title>
<style type="text/css">
	.st0{opacity:7.000000e-02;enable-background:new    ;}
	.st1{fill:#FFFFFF;}
	.st2{fill:#3D9CE5;}
</style>
<path class="st0" d="M35,0H3C1.3,0,0,1.3,0,3v18c0,1.7,1.4,3,3,3h32c1.7,0,3-1.3,3-3V3C38,1.3,36.6,0,35,0z"/>
<path class="st1" d="M35,1c1.1,0,2,0.9,2,2v18c0,1.1-0.9,2-2,2H3c-1.1,0-2-0.9-2-2V3c0-1.1,0.9-2,2-2H35"/>
<desc>Created with Sketch.</desc>
<g id="Page-1_1_">
	<g id="Artboard">
		<path class="st0" d="M35,0H3C1.3,0,0,1.3,0,3v18c0,1.7,1.4,3,3,3h32c1.7,0,3-1.3,3-3V3C38,1.3,36.6,0,35,0z"/>
		<path class="st1" d="M35,1c1.1,0,2,0.9,2,2v18c0,1.1-0.9,2-2,2H3c-1.1,0-2-0.9-2-2V3c0-1.1,0.9-2,2-2H35"/>
		<g id="Group-2">
			<g id="Page-1">
				<g id="Clip-2">
				</g>
				<path id="Fill-1" class="st2" d="M19.3,11.7v-4h4C23.3,9.9,21.4,11.7,19.3,11.7L19.3,11.7z M19.3,16.1v-4c2.2,0,4,1.7,4,4H19.3z
					 M18.7,11.7h-3.8c0-2.2,1.7-4,3.8-4V11.7z M18.7,16.1c-2.2,0-4-1.7-4-4h4C18.7,12.2,18.7,16.1,18.7,16.1z M25,6.8l-6-3.6l-6,3.6
					c-0.9,0.5-1.4,1.4-1.4,2.4v5.5c0,1,0.5,1.9,1.4,2.4l6,3.6l6-3.6c0.9-0.5,1.4-1.4,1.4-2.4V9.3C26.4,8.2,25.9,7.4,25,6.8L25,6.8z"
					/>
			</g>
		</g>
	</g>
</g>
</svg>
