<svg class="icon" width="38" height="24" viewBox="0 0 38 24" version="1.1" xmlns="http://www.w3.org/2000/svg" role="img" aria-labelledby="pi-credit_agricole"><title id="pi-credit_agricole">Credit Agricole</title><path d="M1472 345.6c0 12.8-8.533 17.067-17.067 21.333C1382.4 409.6 1314.133 448 1241.6 490.667c-4.267 4.266-12.8 8.533-21.333 12.8 38.4 89.6 81.066 174.933 119.466 264.533h-157.866c-29.867 0-25.6-21.333-38.4-51.2-17.067-46.933 34.133-110.933 0-162.133-8.534 4.266-89.6 34.133-98.134 38.4C934.4 648.533 823.467 704 699.733 738.133c-85.333 25.6-174.933 38.4-264.533 34.134-76.8-4.267-153.6-21.334-213.333-76.8-81.067-76.8-115.2-221.867-42.667-345.6 55.467-76.8 123.733-132.267 196.267-179.2C448 123.733 524.8 93.867 610.133 85.333c55.467-8.533 85.334 8.534 102.4 59.734C721.067 166.4 725.333 192 729.6 217.6c-119.467-4.267-217.6 46.933-311.467 106.667-51.2 34.133-102.4 72.533-140.8 128-17.066 25.6-29.866 51.2-34.133 85.333-4.267 34.133 8.533 59.733 38.4 76.8 34.133 21.333 76.8 29.867 115.2 29.867C537.6 652.8 674.133 614.4 802.133 563.2c68.267-29.867 132.267-64 200.534-93.867 12.8-8.533 64-42.666 21.333-42.666-42.667-42.667-55.467-102.4-76.8-162.134-4.267-4.266-4.267-42.666-8.533-51.2-4.267 8.534-38.4 38.4-42.667 42.667-29.867 64-55.467 149.333-85.333 213.333-17.067 38.4-46.934 25.6-85.334 42.667-51.2 25.6-72.533 64-132.266 72.533 17.066-38.4 34.133-68.266 51.2-102.4 68.266-123.733 145.066-145.066 209.066-268.8 4.267-12.8-12.8-85.333 0-85.333H1024c12.8 0 12.8-29.867 17.067-21.333l115.2 243.2c8.533 21.333 8.533 21.333 29.866 12.8 85.334-46.934 170.667-93.867 260.267-140.8 8.533-4.267 12.8-8.534 21.333-12.8" fill="#00989D"/><path d="M1382.4 853.333v102.4H149.333v-102.4H1382.4z" fill="#00704A"/><path d="M1152 196.267l320-166.4V140.8c0 4.267-4.267 8.533-8.533 12.8-72.534 42.667-149.334 81.067-221.867 123.733-29.867 17.067-51.2 4.267-64-21.333-8.533-25.6-17.067-42.667-25.6-59.733z" fill="#E50716"/><path d="M1032.533 85.333c38.4 76.8 72.534 149.334 110.934 226.134C1220.267 465.067 1292.8 614.4 1369.6 768c4.267 4.267 4.267 12.8 8.533 21.333H1203.2c-34.133 0-55.467-12.8-68.267-42.666-59.733-157.867-128-332.8-196.266-490.667 0-4.267 4.266 4.267 0 0 0-4.267 0 0 0 0-4.267 0-17.067-4.267-21.334 0-8.533 17.067-17.066 34.133-25.6 46.933-25.6 55.467-55.466 106.667-81.066 162.134-17.067 38.4-46.934 68.266-89.6 85.333-55.467 25.6-115.2 34.133-179.2 42.667 4.266-8.534 8.533-17.067 8.533-21.334C640 413.867 725.333 260.267 814.933 102.4c8.534-12.8 12.8-17.067 25.6-17.067h128c25.6 4.267 46.934 0 64 0z" fill="#00704A"/><path d="M1019.733 456.533l153.6-85.333 64 128-166.4 85.333z" fill="#00989D"/></svg>