<svg xmlns="http://www.w3.org/2000/svg" role="img" viewBox="0 0 38 24" width="38" height="24" aria-labelledby="pi-credova"><title id="pi-credova">Credova</title><path opacity=".07" d="M35 0H3C1.3 0 0 1.3 0 3v18c0 1.7 1.4 3 3 3h32c1.7 0 3-1.3 3-3V3c0-1.7-1.4-3-3-3z"/><path fill="#fff" d="M35 1c1.1 0 2 .9 2 2v18c0 1.1-.9 2-2 2H3c-1.1 0-2-.9-2-2V3c0-1.1.9-2 2-2h32"/><path d="M27.271 15.029l-.607.6-1.992-1.969-.669.662-1.894-1.872-.577.573-1.389-1.378-2.747 2.716-.468-.462-1.654 1.634a5.676 5.676 0 01-1.131-3.4 5.839 5.839 0 0110.732-3.108l.251.387 4.578-2.9-.251-.385a11.22 11.22 0 10-9.487 17.145 11.547 11.547 0 008.977-4.413c.811-1.209.711-1.506.711-1.506zm-2.6-.711l1.264 1.248h-.417v.779l-.847-.836zm-10.409 2.894l-1.3.482.858-.849v-.852l1.721 1.7zm3.829-.691h-1.167l.418-.415-.418-1.548 3.219 3.178zm5.493.473l-1.958.52-1.483-1.489h1.751l-2.771-1.239 2.125-.359-1.944-.672 1.295-.342-.456-1.11 6 5.939zm4.846.253h-1.161v-.975h-.593l.593-.585 2.148 2.122z" fill="#021a26"/></svg>