<svg xmlns="http://www.w3.org/2000/svg" role="img" viewBox="0 0 38 24" width="38" height="24" aria-labelledby="pi-creditclick_paynl_version"><title id="pi-creditclick_paynl_version">CreditClick (PAY. version)</title><path vector-effect="non-scaling-stroke" transform="matrix(.21 0 0 .21 6.174 8.472)" d="M0 33.6V0h132.33v33.6z" stroke-linecap="butt" stroke="none" stroke-width="1" stroke-dasharray="none" stroke-dashoffset="0" stroke-linejoin="miter" stroke-miterlimit="4" fill="#30a4c0" fill-rule="nonzero" opacity="1" id="pi-r-ct_QnFr6yM8hWIUAPV_"/><path vector-effect="non-scaling-stroke" transform="matrix(.21 0 0 .21 8.5 1.502)" d="M33.36 26.89h4.76c.162.073.329.133.5.18 1.94.51 3.9.93 5.81 1.53a23.35 23.35 0 013.12 1.5 4 4 0 01-.28.43c-2.11 2.12-4.21 4.24-6.36 6.31a1.23 1.23 0 01-1 .15 14.53 14.53 0 00-6.22-.46 13.63 13.63 0 1013 21.59c.23-.355.302-.79.2-1.2a23.3 23.3 0 01-.89-9.64 23 23 0 0116.52-19.47c1.31-.37 2.64-.61 4-.92h4.94c.88.19 1.77.37 2.65.57a22.16 22.16 0 016.33 2.47 1.42 1.42 0 01-.17.3c-2.18 2.18-4.35 4.36-6.55 6.51a1.09 1.09 0 01-.86.18c-.93-.14-1.84-.44-2.77-.51A13.54 13.54 0 0055.49 52a12.83 12.83 0 009.79 11.08c5.52 1.56 10.26 0 14.09-4.29.54-.59 1-1.27 1.5-2 2.13 2.21 4.28 4.3 6.41 6.4.4.4.18.67-.08 1-7.658 9.819-21.718 11.809-31.8 4.5-1.07-.79-2-1.68-3.09-2.54l-.42.4a23.16 23.16 0 01-38.45-10.46c-.45-1.65-.63-3.38-.94-5.08v-2.19c.12-.77.23-1.55.37-2.33 1.62-9 6.69-15.08 15.21-18.28a46.83 46.83 0 015.28-1.32z" stroke-linecap="butt" stroke="none" stroke-width="1" stroke-dasharray="none" stroke-dashoffset="0" stroke-linejoin="miter" stroke-miterlimit="4" fill="#fff" fill-rule="nonzero" opacity="1" id="pi-rMqTUbMbmfX3Q1fV6B6z7"/><path vector-effect="non-scaling-stroke" transform="translate(19 12)" d="M16-12h-32c-1.7 0-3 1.3-3 3V9c0 1.7 1.4 3 3 3h32c1.7 0 3-1.3 3-3V-9c0-1.7-1.4-3-3-3z" stroke-linecap="butt" stroke="none" stroke-width="1" stroke-dasharray="none" stroke-dashoffset="0" stroke-linejoin="miter" stroke-miterlimit="4" fill="#000" fill-rule="nonzero" opacity=".07" id="pi-85qVw4dP5XCrOLyXj60xe"/><path vector-effect="non-scaling-stroke" transform="translate(19 12)" d="M16-11c1.1 0 2 .9 2 2V9c0 1.1-.9 2-2 2h-32c-1.1 0-2-.9-2-2V-9c0-1.1.9-2 2-2h32" stroke-linecap="butt" stroke="none" stroke-width="1" stroke-dasharray="none" stroke-dashoffset="0" stroke-linejoin="miter" stroke-miterlimit="4" fill="#30a4c0" fill-rule="nonzero" opacity="1" id="pi-lvVnrJvyUJvObFWQ_a41V"/><path vector-effect="non-scaling-stroke" transform="translate(27.79 13.9)" d="M9.215-9.129V7.084c0 1.1-.963 2.045-2.063 2.045 0 0-16.24-.003-16.367-.045" stroke-linecap="butt" stroke="none" stroke-width="1" stroke-dasharray="none" stroke-dashoffset="0" stroke-linejoin="miter" stroke-miterlimit="4" fill="#df8a4a" fill-rule="nonzero" opacity="1" id="pi-7zAe5JbSrq5WaSjfw7qgW"/><path vector-effect="non-scaling-stroke" transform="translate(35.95 22)" d="M.984-.995v.212C.984.317.116.995-.984.995" stroke-linecap="butt" stroke="none" stroke-width="1" stroke-dasharray="none" stroke-dashoffset="0" stroke-linejoin="miter" stroke-miterlimit="4" fill="#db8016" fill-rule="nonzero" opacity="1" id="pi-9deqR4bTGxybxcxs9gbuC"/><path vector-effect="non-scaling-stroke" transform="translate(12.25 11.85)" d="M11.247-10.826c.035-.024-21.664 21.607-21.573 21.652-.133 0-.92-.552-.92-1.652v-18c0-1.1.9-2 2-2z" stroke-linecap="butt" stroke="none" stroke-width="1" stroke-dasharray="none" stroke-dashoffset="0" stroke-linejoin="miter" stroke-miterlimit="4" fill="#009dc8" fill-rule="nonzero" opacity="1" id="pi-GSFuHaOXDr_tmRv3Iy7pZ"/><path vector-effect="non-scaling-stroke" transform="translate(3.58 3.83)" d="M2.578-2.805c.036-.024-5.177 5.695-5.157 5.629V-.805c0-1.1.9-2 2-2 0 0 2.12-.043 3.157 0z" stroke-linecap="butt" stroke="none" stroke-width="1" stroke-dasharray="none" stroke-dashoffset="0" stroke-linejoin="miter" stroke-miterlimit="4" fill="#0097cc" fill-rule="nonzero" opacity="1" id="pi-siKXwUmT6ZOQNHZtbt9SM"/><path vector-effect="non-scaling-stroke" transform="matrix(.22 0 0 .22 8 1.002)" d="M33.36 26.89h4.76c.162.073.329.133.5.18 1.94.51 3.9.93 5.81 1.53a23.35 23.35 0 013.12 1.5 4 4 0 01-.28.43c-2.11 2.12-4.21 4.24-6.36 6.31a1.23 1.23 0 01-1 .15 14.53 14.53 0 00-6.22-.46 13.63 13.63 0 1013 21.59c.23-.355.302-.79.2-1.2a23.3 23.3 0 01-.89-9.64 23 23 0 0116.52-19.47c1.31-.37 2.64-.61 4-.92h4.94c.88.19 1.77.37 2.65.57a22.16 22.16 0 016.33 2.47 1.42 1.42 0 01-.17.3c-2.18 2.18-4.35 4.36-6.55 6.51a1.09 1.09 0 01-.86.18c-.93-.14-1.84-.44-2.77-.51A13.54 13.54 0 0055.49 52a12.83 12.83 0 009.79 11.08c5.52 1.56 10.26 0 14.09-4.29.54-.59 1-1.27 1.5-2 2.13 2.21 4.28 4.3 6.41 6.4.4.4.18.67-.08 1-7.658 9.819-21.718 11.809-31.8 4.5-1.07-.79-2-1.68-3.09-2.54l-.42.4a23.16 23.16 0 01-38.45-10.46c-.45-1.65-.63-3.38-.94-5.08v-2.19c.12-.77.23-1.55.37-2.33 1.62-9 6.69-15.08 15.21-18.28a46.83 46.83 0 015.28-1.32z" stroke-linecap="butt" stroke="none" stroke-width="1" stroke-dasharray="none" stroke-dashoffset="0" stroke-linejoin="miter" stroke-miterlimit="4" fill="#fff" fill-rule="nonzero" opacity="1" id="pi-O1Ot9_VGIi2UylI9kAkC8"/></svg>