<svg role="img" viewBox="0 0 38 24" width="38" height="24" aria-labelledby="pi-cuotas"><title id="pi-cuotas">Cuotas</title><path fill="#000" opacity=".07" d="M35 0H3C1.3 0 0 1.3 0 3v18c0 1.7 1.4 3 3 3h32c1.7 0 3-1.3 3-3V3c0-1.7-1.4-3-3-3z"/><path fill="#fff" d="M35 1c1.1 0 2 .9 2 2v18c0 1.1-.9 2-2 2H3c-1.1 0-2-.9-2-2V3c0-1.1.9-2 2-2h32"/><path d="M22.162 7.33h1.87v1.129h.258c.243 0 .486-.004.725.003.03 0 .088.038.088.061.004.395.004.794.004 1.201h-1.068c-.004.053-.004.091-.004.13v2.139c0 .391.194.585.585.573.133-.003.266-.038.403-.057.053-.007.08-.034.08-.095 0-.9.524-1.352 1.231-1.577.46-.148.931-.197 1.41-.205.254-.004.513 0 .764 0 .11-.418-.076-.866-.4-.961a.956.956 0 00-.687.038c-.171.08-.205.14-.373.566h-1.744c.023-.144.038-.285.072-.422a1.777 1.777 0 011.114-1.277 3.805 3.805 0 012.702-.06c.706.243 1.086.771 1.17 1.508.015.13.023.262.023.395v3.492h-1.809v-.592c-.023.007-.034.007-.042.011-.285.395-.68.608-1.151.68-.452.073-.9.046-1.334-.125-.456-.182-.768-.505-.893-.992a.32.32 0 00-.038-.083v1.071c-.353.103-.703.175-1.06.156a3.514 3.514 0 01-.749-.099c-.63-.17-.984-.608-1.098-1.242a3.05 3.05 0 01-.046-.559c-.003-.638 0-1.277-.003-1.919 0-.16-.008-.323-.012-.483-.16-.003-.319-.011-.479-.015h-.16V8.451h.65V7.33zm5.996 4.347c-.068 0-.14-.004-.209 0-.243.012-.49.015-.722.122-.205.099-.304.277-.285.524.015.213.144.384.365.426.16.03.327.038.49.023.407-.046.688-.323.726-.692.011-.106 0-.213.004-.32.003-.06-.023-.083-.084-.083h-.285zM9.732 9.2c-.038.003-.08.003-.118.003-.65 0-1.3 0-1.95.004-.094 0-.125-.026-.144-.125a1.96 1.96 0 00-.144-.46c-.194-.395-.54-.57-.962-.593-.737-.038-1.273.297-1.512.996-.281.817-.281 1.649.057 2.455.24.57.703.843 1.322.855.38.007.73-.073 1.019-.339.254-.231.36-.535.414-.874H9.85c-.03.179-.046.358-.088.529-.262 1.159-.98 1.9-2.116 2.219a4.86 4.86 0 01-3.021-.11c-.98-.354-1.63-1.042-1.942-2.033-.308-.985-.338-1.988.004-2.968.463-1.33 1.432-2.098 2.804-2.356a4.522 4.522 0 012.261.144c1.08.354 1.706 1.11 1.927 2.212.026.129.038.262.057.391.003.02 0 .03-.004.05z" fill="#E4002B"/><path d="M21.755 11.176c0 .733-.198 1.394-.695 1.945-.441.487-1 .76-1.642.87-.733.126-1.452.073-2.132-.25-.912-.43-1.398-1.163-1.5-2.159-.058-.547-.005-1.079.212-1.588.3-.707.82-1.197 1.539-1.46.973-.353 1.938-.319 2.854.175.775.418 1.204 1.095 1.326 1.965.023.171.027.334.038.502zm-1.908.015c.008 0 .02-.004.027-.004-.038-.243-.057-.49-.122-.722-.129-.486-.478-.745-.972-.752-.49-.008-.852.243-1 .722a2.513 2.513 0 00.015 1.55c.152.464.494.688.988.684.456 0 .795-.247.95-.695.095-.255.122-.517.114-.783zm-4.335 2.729h-1.859v-.791c-.007-.004-.015-.004-.019-.008-.015.027-.034.05-.049.076-.296.49-.741.753-1.3.829a2.281 2.281 0 01-.961-.054c-.695-.201-1.064-.695-1.197-1.383a3.05 3.05 0 01-.046-.558c-.003-1.144-.003-2.284-.003-3.428v-.137a1.3 1.3 0 01.117-.007c.54 0 1.08.003 1.62-.004.098 0 .128.026.128.129-.003 1.03-.003 2.056 0 3.086 0 .148.012.3.05.444.08.338.311.513.657.525.616.019.988-.327.996-.947.011-.991.004-1.983.004-2.975v-.25h1.858c.004 1.816.004 3.628.004 5.452zm19.885-3.843h-1.676c-.007-.015-.011-.03-.019-.045-.102-.346-.289-.494-.65-.49-.144 0-.292.03-.429.08-.16.056-.236.193-.232.364.004.164.118.259.255.293.277.068.558.106.84.167.36.08.73.14 1.079.258.585.194.93.608.984 1.24.042.493-.027.96-.346 1.363a1.622 1.622 0 01-.779.54c-.9.296-1.805.308-2.698-.011-.669-.24-1.052-.734-1.14-1.448-.007-.053 0-.11 0-.175a.895.895 0 01.107-.008c.497 0 .999 0 1.497-.003.08 0 .114.026.129.106.072.315.258.479.585.498.156.007.316-.008.468-.023.064-.008.129-.046.19-.08.197-.114.288-.494-.027-.623-.209-.084-.433-.13-.654-.179-.387-.087-.782-.155-1.17-.247a1.542 1.542 0 01-.372-.163c-.4-.217-.608-.562-.67-1.003a2.06 2.06 0 01.031-.821c.156-.578.555-.927 1.09-1.136.533-.21 1.088-.243 1.646-.183.285.03.574.092.844.187.65.231.992.722 1.098 1.394.008.046.011.095.015.14.008-.007.008-.003.004.008z" fill="#E4002B"/><path d="M5.556 14.903c.235 0 .364.114.402.354l.004.019h.228v-.023c-.023-.338-.262-.551-.623-.551-.502 0-.882.422-.882.977 0 .444.293.73.741.73a.72.72 0 00.719-.575l.007-.03h-.235l-.004.015c-.076.247-.251.384-.483.384-.323 0-.494-.182-.494-.528-.004-.46.247-.772.62-.772zm1.402.24c-.373 0-.65.308-.65.718 0 .327.22.547.551.547.38 0 .654-.304.654-.722-.004-.327-.225-.543-.555-.543zm-.095 1.064c-.205 0-.32-.126-.32-.35 0-.304.164-.517.4-.517.205 0 .319.126.319.35.004.308-.156.517-.4.517zm2.242-1.068a.48.48 0 00-.4.22c-.045-.144-.159-.22-.33-.22a.441.441 0 00-.346.179c.004-.042.004-.088.004-.137v-.023h-.22v.023a3.09 3.09 0 01-.03.35l-.137.854h.235l.114-.722c.034-.22.194-.323.338-.323.065 0 .11.02.141.054.038.045.05.117.034.216l-.121.772h.235l.114-.722c.038-.22.194-.323.338-.323.069 0 .114.015.141.049.038.046.05.122.03.232l-.117.76h.235l.114-.722c.03-.183.004-.323-.072-.414a.448.448 0 00-.3-.103zm1.349 0a.522.522 0 00-.4.19c.005-.05.005-.099.005-.144v-.027h-.22v.023a3.09 3.09 0 01-.031.35L9.606 16.8h.236l.095-.59a.46.46 0 00.403.198c.36 0 .612-.3.612-.726 0-.319-.206-.543-.498-.543zm.25.555c0 .311-.148.513-.38.513-.212 0-.341-.13-.341-.346 0-.308.178-.524.433-.524.182.003.289.133.289.357zm.768-.354c.004-.057.008-.11.008-.16v-.022h-.22v.023a3.09 3.09 0 01-.031.35l-.137.854h.236l.099-.634c.041-.259.17-.38.429-.392h.019l.034-.22h-.026c-.21.004-.32.08-.41.201zm1.057-.201c-.1 0-.43.027-.498.388l-.004.026h.236l.003-.019c.03-.133.11-.194.259-.194.083 0 .14.02.17.054.031.038.043.098.027.186l-.011.064h-.209c-.494 0-.597.217-.597.4 0 .22.156.357.407.357.13 0 .243-.054.33-.152 0 .038.004.08.004.114l.004.019h.224l-.003-.027a1.28 1.28 0 01.019-.346l.064-.41c.023-.145 0-.259-.068-.338-.072-.08-.194-.122-.357-.122zm.152.688l-.016.102c-.026.179-.148.285-.33.285-.126 0-.198-.06-.198-.163 0-.16.103-.22.369-.22h.175v-.004zm1.664-.688c-.099 0-.43.027-.498.388l-.004.026h.236l.004-.019c.03-.133.11-.194.258-.194.084 0 .14.02.171.054.03.038.042.098.027.186l-.012.064h-.209c-.494 0-.596.217-.596.4 0 .22.156.357.406.357.13 0 .244-.054.331-.152 0 .038.004.08.004.114l.004.019h.224l-.004-.027a1.28 1.28 0 01.019-.346l.065-.41c.022-.145 0-.259-.069-.338-.076-.08-.194-.122-.357-.122zm.152.688l-.015.102c-.027.179-.148.285-.33.285-.126 0-.198-.06-.198-.163 0-.16.102-.22.368-.22h.175v-.004zm1.235-.688a.494.494 0 00-.361.163l.11-.71h-.235l-.282 1.793h.236l.11-.706c.034-.202.186-.335.38-.335.069 0 .118.02.148.053.038.042.05.114.03.213l-.125.775h.236l.118-.725c.03-.183.004-.32-.072-.407-.061-.076-.16-.114-.293-.114zm1.22.004c-.373 0-.65.308-.65.718 0 .327.22.547.551.547.38 0 .654-.304.654-.722-.004-.327-.228-.543-.555-.543zm-.095 1.064c-.205 0-.32-.126-.32-.35 0-.304.164-.517.4-.517.205 0 .319.126.319.35.004.308-.156.517-.4.517zm1.163-.867c.003-.057.007-.11.007-.16v-.022h-.22v.023a3.09 3.09 0 01-.03.35l-.137.854h.235l.099-.634c.042-.259.171-.38.43-.392h.018l.035-.22h-.027a.473.473 0 00-.41.201zm1.056-.201c-.099 0-.43.027-.498.388l-.004.026h.236l.004-.019c.03-.133.11-.194.258-.194.084 0 .14.02.171.054.03.038.042.098.027.186l-.012.064h-.209c-.494 0-.596.217-.596.4 0 .22.156.357.406.357.13 0 .244-.054.331-.152 0 .038.004.08.004.114l.004.019h.224l-.004-.027a1.28 1.28 0 01.019-.346l.065-.41c.022-.145 0-.259-.069-.338-.072-.08-.194-.122-.357-.122zm.152.688l-.015.102c-.027.179-.148.285-.33.285-.126 0-.198-.06-.198-.163 0-.16.102-.22.368-.22h.175v-.004zm.35.76l.152.087.35-.513-.214-.106-.288.532zm2.139-1.448a.522.522 0 00-.399.19c.004-.05.004-.099.004-.144v-.027h-.22v.023a3.09 3.09 0 01-.031.35L20.87 16.8h.235l.095-.59a.46.46 0 00.403.198c.361 0 .612-.3.612-.726 0-.319-.205-.543-.498-.543zm.25.555c0 .311-.147.513-.38.513-.212 0-.341-.13-.341-.346 0-.308.178-.524.433-.524.186.003.289.133.289.357zm.981-.555c-.099 0-.43.027-.498.388l-.003.026h.235l.004-.019c.03-.133.11-.194.258-.194.084 0 .141.02.171.054.03.038.042.098.027.186l-.011.064h-.21c-.493 0-.596.217-.596.4 0 .22.156.357.407.357a.433.433 0 00.33-.152c0 .038.004.08.004.114l.004.019h.224l-.004-.027a1.28 1.28 0 01.02-.346l.064-.41c.023-.145 0-.259-.069-.338-.076-.08-.193-.122-.357-.122zm.152.688l-.015.102c-.027.179-.148.285-.33.285-.126 0-.198-.06-.198-.163 0-.16.102-.22.368-.22h.175v-.004zm1.486-.498a.444.444 0 00-.388-.19c-.345 0-.619.296-.619.68 0 .312.213.528.517.528a.48.48 0 00.353-.14l-.011.08c-.038.231-.152.33-.384.33-.179 0-.285-.064-.308-.186l-.004-.019h-.235l.004.027c.019.144.114.38.55.38.346 0 .56-.175.612-.51l.183-1.151h-.236l-.034.171zm-.053.334c0 .32-.21.487-.418.487-.183 0-.293-.126-.293-.338 0-.232.133-.468.384-.468.198-.004.327.122.327.32zm1.041-.524c-.099 0-.43.027-.498.388l-.004.026h.236l.004-.019c.03-.133.11-.194.258-.194.084 0 .14.02.171.054.03.038.042.098.027.186l-.012.064h-.209c-.494 0-.596.217-.596.4 0 .22.156.357.406.357.13 0 .244-.054.331-.152 0 .038.004.08.004.114l.004.019h.224l-.004-.027a1.28 1.28 0 01.019-.346L26 15.6c.022-.145 0-.259-.069-.338-.076-.08-.194-.122-.357-.122zm.152.688l-.015.102c-.027.179-.148.285-.33.285-.126 0-.198-.06-.198-.163 0-.16.102-.22.368-.22h.175v-.004zm2.086-.498a.441.441 0 00-.384-.19c-.368 0-.634.304-.634.722 0 .327.209.543.524.543a.484.484 0 00.373-.174.774.774 0 000 .133v.022h.224v-.022c-.004-.088 0-.179.026-.35l.225-1.421h-.236l-.118.737zm-.053.35c0 .323-.16.528-.422.528-.19 0-.3-.13-.3-.354 0-.311.156-.513.399-.513.194 0 .323.133.323.339zm1.075-.536c-.364 0-.638.315-.638.737 0 .323.209.528.532.528.27 0 .471-.14.543-.376l.008-.03h-.236l-.003.015c-.042.125-.149.19-.304.19-.206 0-.304-.103-.304-.32v-.053h.874l.011-.06c.03-.202 0-.369-.095-.48a.498.498 0 00-.388-.151zm-.372.494c.053-.19.186-.297.361-.297.103 0 .171.023.217.073.045.049.064.121.057.224h-.635zm1.505-.297c.133 0 .216.061.224.164v.023h.22v-.023c-.011-.232-.174-.365-.44-.365-.21 0-.434.114-.434.365 0 .19.107.292.377.36.19.05.22.092.22.172 0 .114-.072.17-.22.17-.168 0-.251-.064-.263-.208v-.023h-.228v.023c.004.186.133.406.483.406.277 0 .456-.148.456-.383 0-.232-.14-.312-.384-.373-.19-.045-.22-.087-.22-.16 0-.125.133-.148.209-.148zm1.36-.201a.522.522 0 00-.399.19c.004-.05.004-.099.004-.144v-.027h-.22v.023a3.09 3.09 0 01-.03.35L30.48 16.8h.235l.095-.59a.46.46 0 00.403.198c.361 0 .612-.3.612-.726 0-.319-.205-.543-.498-.543zm.255.555c0 .311-.148.513-.38.513-.213 0-.342-.13-.342-.346 0-.308.178-.524.433-.524.182.003.289.133.289.357zm1.216.171c-.034.205-.179.334-.376.334-.065 0-.114-.019-.145-.053-.038-.046-.05-.114-.034-.213l.125-.775h-.235l-.118.726c-.03.182-.004.319.072.406.065.076.164.114.289.114a.484.484 0 00.38-.19c-.004.054-.004.107-.004.149v.022h.224v-.022c-.003-.088 0-.179.027-.35l.137-.855h-.236l-.106.707zm1.117-.722c-.365 0-.638.315-.638.737 0 .323.209.528.532.528.27 0 .47-.14.543-.376l.008-.03h-.236l-.004.015c-.042.125-.148.19-.304.19-.205 0-.304-.103-.304-.32v-.053h.874l.012-.06c.03-.202 0-.369-.095-.48-.084-.098-.217-.151-.388-.151zm-.369.494c.054-.19.187-.297.361-.297.103 0 .171.023.217.073.046.049.065.121.057.224h-.635zm.776-1.015h-.308l-.202.38h.198l.312-.38zm.741 1.03c-.19-.046-.22-.087-.22-.16 0-.133.128-.152.208-.152.133 0 .217.061.224.164v.023h.22v-.023c-.01-.232-.174-.365-.44-.365-.209 0-.433.114-.433.365 0 .19.106.292.376.36.19.05.22.092.22.172 0 .114-.072.17-.22.17-.167 0-.25-.064-.262-.208v-.023h-.228v.023c.004.186.133.406.482.406.278 0 .456-.148.456-.383 0-.228-.14-.308-.383-.369z" fill="#575656"/></svg>