<svg xmlns="http://www.w3.org/2000/svg" width="38" height="24" viewBox="0 0 38 24" role="img" aria-labelledby="pi-curacaopay"><title id="pi-curacaopay">Curacao Pay</title><g id="cpay-light-38x24" clip-path="url(#clip-cpay-light-38x24)"><g id="Group_4865" data-name="Group 4865" transform="translate(-1.417 -.866)"><g id="Group_4856" data-name="Group 4856" transform="translate(2.75 7.866)"><path id="Path_2050" data-name="Path 2050" d="M2.249 2.644a3.163 3.163 0 01-.175-.9 1.056 1.056 0 01.513-.93 1.461 1.461 0 011.139.015 9.2 9.2 0 011.549.6 3.529 3.529 0 01.237-.693 1.668 1.668 0 01.52-.6.807.807 0 01.712-.09 2.65 2.65 0 01.936.677 10.491 10.491 0 011.059 1.333S9.067 1.7 9.3 1.5a2.992 2.992 0 01.863-.508.78.78 0 01.874.211 2.356 2.356 0 01.529 1.132 13.15 13.15 0 01.3 2.044 13.442 13.442 0 01-.013 1.6 3.887 3.887 0 01-.227 1.065 1.969 1.969 0 01-.588.773 8.175 8.175 0 01-1.386.983 15.5 15.5 0 01-1.781.9 4.913 4.913 0 01-1.433.418A1.27 1.27 0 015.425 9.8 1.138 1.138 0 015.2 8.775a3.958 3.958 0 01.142-.624s-.1-.394-.121-.544a2.594 2.594 0 01-.232-.247 8.6 8.6 0 01-1.464-.606A17.694 17.694 0 011.7 5.7 7.007 7.007 0 01.224 4.471 1.025 1.025 0 01.061 3.5s.116-.387.874-.616a9.17 9.17 0 011.315-.24" fill="#fff"/><path id="Path_2051" data-name="Path 2051" d="M71.25 16.864a.72.72 0 01.277-.093s.2-.016.365.381a4.127 4.127 0 01.317 1.1 14.144 14.144 0 01.193 1.841 7.659 7.659 0 01-.08 1.524 2.819 2.819 0 01-.188.638 2.146 2.146 0 01-.3.37 7.05 7.05 0 01-.979.75 15.651 15.651 0 01-1.657.917 10.446 10.446 0 01-1.351.521 1.692 1.692 0 01-.651.053s-.238-.058-.217-.473a4.28 4.28 0 01.258-1.1s.32-.856.621-1.467c0 0 .732-1.431 1.075-1.98a21.048 21.048 0 011.367-2.033 5.322 5.322 0 01.948-.949" transform="translate(-61.062 -15.291)" fill="#97d700"/><path id="Path_2052" data-name="Path 2052" d="M67.608 8.2s-.327.477-.441.634c0 0-.407.631-.644 1.026 0 0-.58.979-.812 1.461 0 0-.345.7-.495 1.028 0 0-.134.286-.18.415 0 0-.1-.716-.142-1.431 0 0-.046-1.016-.034-1.436 0 0 .013-.879.044-1.291 0 0 .062-.7.1-1.028a5.543 5.543 0 01.27-1.139s.1-.268.266-.332c.005 0 .124-.044.371.111a3.925 3.925 0 01.688.632s.348.4.634.8c0 0 .333.485.371.554" transform="translate(-59.133 -5.566)" fill="#c8102e"/><path id="Path_2053" data-name="Path 2053" d="M33.246 15.134a11.438 11.438 0 00-1.129-.51 5.769 5.769 0 00-.979-.268s-.314-.031-.417.049a.305.305 0 00-.093.258 2.178 2.178 0 00.1.536 7.912 7.912 0 00.283.768s.335.747.547 1.137c0 0 .43.786.629 1.106 0 0 .482.765.727 1.106 0 0 .188.253.3.394 0 0-.07-.784-.08-1.108 0 0-.044-1.036-.018-1.425 0 0 .036-1.005.07-1.43 0 0 .054-.546.064-.611" transform="translate(-27.924 -13.083)" fill="#ff671f"/><path id="Path_2054" data-name="Path 2054" d="M8.388 35.792s.492 1.083.76 1.513c0 0 .436.773.678 1.142 0 0 .43.647.492.722 0 0-.34-.154-.572-.265 0 0-.7-.358-1.1-.6 0 0-.686-.4-.964-.608a8.791 8.791 0 01-.953-.737 1.609 1.609 0 01-.369-.462.205.205 0 01.049-.242 1.245 1.245 0 01.5-.234 6.811 6.811 0 01.73-.157s.554-.062.75-.075" transform="translate(-5.777 -32.633)" fill="#ffcd00"/></g><path id="Path_2055" data-name="Path 2055" d="M3.66.688A3.609 3.609 0 012.346.453 3.132 3.132 0 011.294-.21 3.027 3.027 0 01.6-1.223 3.227 3.227 0 01.352-2.5 3.227 3.227 0 01.6-3.77a3 3 0 01.7-1.013 3.192 3.192 0 011.052-.663 3.6 3.6 0 011.317-.234 3.585 3.585 0 011.389.261 2.75 2.75 0 011.061.774l-.743.7a2.247 2.247 0 00-.752-.544 2.232 2.232 0 00-.9-.181 2.4 2.4 0 00-.889.159 2.067 2.067 0 00-.7.451 2.052 2.052 0 00-.46.69 2.281 2.281 0 00-.164.876 2.281 2.281 0 00.164.876 2.052 2.052 0 00.46.69 2.067 2.067 0 00.7.451 2.4 2.4 0 00.889.159 2.232 2.232 0 00.9-.181 2.2 2.2 0 00.752-.553l.743.708a2.832 2.832 0 01-1.062.766A3.556 3.556 0 013.66.688zM6.791.6v-6.192h2.547a3.413 3.413 0 011.411.265 2.046 2.046 0 01.907.761 2.128 2.128 0 01.318 1.176 2.128 2.128 0 01-.318 1.176 2.046 2.046 0 01-.907.761 3.413 3.413 0 01-1.411.265H7.427l.513-.539V.6zM7.94-1.6l-.513-.56h1.858a1.746 1.746 0 001.145-.323 1.118 1.118 0 00.385-.907 1.115 1.115 0 00-.385-.91 1.763 1.763 0 00-1.145-.318H7.427l.513-.566zM15.449.6v-.956l-.062-.2v-1.675a.978.978 0 00-.292-.756 1.265 1.265 0 00-.884-.27 2.54 2.54 0 00-.783.124 1.923 1.923 0 00-.65.345l-.433-.8a2.622 2.622 0 01.907-.438 4.068 4.068 0 011.092-.146 2.336 2.336 0 011.588.491 1.91 1.91 0 01.562 1.517V.6zm-1.486.061a2.221 2.221 0 01-.929-.181 1.435 1.435 0 01-.615-.5 1.279 1.279 0 01-.217-.73 1.37 1.37 0 01.19-.716 1.282 1.282 0 01.624-.5 2.963 2.963 0 011.15-.186h1.371v.734h-1.291a1.152 1.152 0 00-.761.181.586.586 0 00-.195.447.564.564 0 00.239.478 1.1 1.1 0 00.663.177 1.436 1.436 0 00.73-.186 1.053 1.053 0 00.464-.548l.186.663A1.229 1.229 0 0115 .431a2.11 2.11 0 01-1.037.23zm3.812 1.716a2.17 2.17 0 01-.69-.115 1.636 1.636 0 01-.575-.318l.442-.814a1.337 1.337 0 00.38.239 1.117 1.117 0 00.433.088.749.749 0 00.486-.15A1.36 1.36 0 0018.6.8l.274-.619.086-.13 1.787-4.174h1.061L19.6.98a3.08 3.08 0 01-.491.84 1.491 1.491 0 01-.6.433 2.071 2.071 0 01-.734.124zm.973-1.61l-2.132-4.89h1.15L19.5-.046z" transform="translate(15.775 15.153)" fill="#045741"/></g></g></svg>