<svg xmlns="http://www.w3.org/2000/svg" width="38" height="24" fill="none" aria-labelledby="pi-dai" role="img" viewBox="0 0 38 24"><title id="pi-dai">DAI</title><path fill="#fff" d="M0 0h38v24H0z"/><path fill="#F5AC37" d="M19 20.2a8.2 8.2 0 1 0 0-16.4 8.2 8.2 0 0 0 0 16.4"/><path fill="#fff" d="M15.002 16.462v-2.777c0-.066 0-.076-.08-.076h-1.09c-.06 0-.086 0-.086-.08v-.954h1.165c.066 0 .09 0 .09-.086v-.944c0-.06 0-.075-.08-.075h-1.09c-.06 0-.085 0-.085-.08v-.885c0-.055 0-.07.08-.07h1.08c.076 0 .096 0 .096-.095V7.632c0-.08 0-.1.1-.1h3.767q.41.015.814.09c.553.103 1.085.3 1.572.583.322.19.62.42.884.683q.298.31.537.668.238.364.392.769a.13.13 0 0 0 .15.105h.9c.115 0 .115 0 .12.11v.824c0 .08-.03.1-.11.1h-.693c-.07 0-.09 0-.086.091q.042.46 0 .92c0 .085 0 .095.096.095h.793c.035.045 0 .09 0 .135q.007.088 0 .176v.608c0 .085-.025.11-.1.11h-.95a.126.126 0 0 0-.145.096 4 4 0 0 1-1.055 1.537 6 6 0 0 1-.537.432c-.201.115-.397.236-.603.331q-.572.256-1.185.377a6 6 0 0 1-1.176.095h-3.485zm6.936-2.843a1 1 0 0 0-.256 0h-5.57c-.076 0-.1 0-.1.1v1.744c0 .08 0 .1.1.1h2.571q.186.014.367-.025a3.9 3.9 0 0 0 1.09-.241 2 2 0 0 0 .367-.17h.035a3.27 3.27 0 0 0 1.401-1.412s.035-.08-.005-.1zm0-3.194a.1.1 0 0 0 0-.07 2 2 0 0 0-.18-.317 2.6 2.6 0 0 0-.373-.467 1.2 1.2 0 0 0-.23-.226 3.6 3.6 0 0 0-2.361-.859h-2.697c-.076 0-.086.03-.086.096v1.783c0 .075 0 .095.096.095h5.796s.05-.01.06-.04zm-2.813 2.15h3.054c.065 0 .095 0 .1-.086q.037-.466 0-.934c0-.06-.03-.085-.095-.085h-6.077c-.076 0-.096.025-.096.095v.89c0 .115 0 .115.12.115z"/></svg>