<svg id="original" xmlns="http://www.w3.org/2000/svg" width="38" height="24" viewBox="0 0 51 32">
    <title>creditcards_dailyyamazaki</title>
    <path fill="#d3261f" d="M46.667 0H4a4 4 0 0 0-4 4v24a4 4 0 0 0 4 4h42.667a4 4 0 0 0 4-4V4a4 4 0 0 0-4-4z"></path>
    <path fill="#fff" d="M11.573 7.133a12.77 12.77 0 0 1 2.54.323l-.087-.017c.606.13 1.14.318 1.642.564l-.042-.018c.557.284 1.028.572 1.476.89l-.036-.023c.24.173.467.36.693.547.17.155.326.316.473.486l.006.007c.218.235.42.492.6.765l.012.022c.144.21.282.45.4.702l.013.03c.08.174.16.334.24.508s.173.52.253.787 0 0 .093 0l.148-.04a4.327 4.327 0 0 1 1.49-.78l.03-.007a3.72 3.72 0 0 1 1.135-.173h.123c.29 0 .575.024.852.07l-.03-.003a2.21 2.21 0 0 0 .423 0h-.008H29c.132 0 .132 0 .08-.12a1.905 1.905 0 0 1-.196-.846c0-.367.102-.71.28-1.002l-.005.01c.135-.183.29-.34.46-.477l.005-.005a3.01 3.01 0 0 1 1.033-.66l.02-.007c.228-.088.49-.15.764-.173h.01a13.695 13.695 0 0 1 1.638 0h-.038.024c.357 0 .697.073 1.006.205l-.017-.006a.164.164 0 0 0 .16 0 1.433 1.433 0 0 1 .75-.174h-.004H38.614c.212 0 .41.06.576.163l-.006-.003a1.026 1.026 0 0 1 .493 1.018v-.005c0 .36-.12.707-.172 1.067s-.107.587-.16.893v.24h2.707c.19.027.358.103.495.215h-.002a.186.186 0 0 0 .24 0c.115-.074.248-.133.39-.172l.01-.002a1.887 1.887 0 0 1 .503 0h-.01 2.987a6.59 6.59 0 0 1 .915 0h-.02a.854.854 0 0 1 .716 1.205l.002-.006a1.997 1.997 0 0 1-.218.393l.004-.006-.84 1.334-.32.533c-.307.48-.613.96-.907 1.453s-.587.96-.893 1.44l-.68 1.08L43.41 21l-.906 1.453c-.227.373-.467.747-.693 1.12-.23.397-.6.693-1.04.823l-.013.003a2.16 2.16 0 0 1-.72-.003l.014.002H36.68c-.197 0-.38-.055-.538-.15l.005.003c-.02-.016-.046-.025-.073-.025s-.053.01-.074.025a.937.937 0 0 1-.508.148h-.054.002-9.56a1.41 1.41 0 0 0-.475 0h.008-5.226a1.212 1.212 0 0 1-.313 0h.007-.08a2.85 2.85 0 0 1-.708 0h.013-1.944a.85.85 0 0 1-.552-.2.785.785 0 0 1-.252-.778v.005-.307a.468.468 0 0 0-.002-.177v.003a.652.652 0 0 0-.187.12 9.594 9.594 0 0 1-.772.507 8.2 8.2 0 0 1-.836.43l-.058.023a8.895 8.895 0 0 1-2.28.7l-.053.006c-.508.08-1.028.12-1.548.173a16.204 16.204 0 0 1-1.884-.002l.044.002a11.833 11.833 0 0 1-1.775-.156l.068.008a6.386 6.386 0 0 1-1.375-.416l.042.016a6.772 6.772 0 0 1-1.355-.735l.022.015a3.426 3.426 0 0 1-.993-1.026l-.008-.014a2.263 2.263 0 0 1-.348-1.157v-.015c0-.365.074-.714.207-1.03l-.008.017.333-.84.56-1.333v-.268a5.635 5.635 0 0 1-1.092-1.45l-.015-.03A5.834 5.834 0 0 1 2.44 14.7l-.005-.035c0-.24-.08-.493-.093-.733a4.832 4.832 0 0 1 .003-1.21l-.002.024c.094-.504.233-.95.416-1.375l-.017.042a5.99 5.99 0 0 1 .732-1.35l-.012.017a6.71 6.71 0 0 1 .81-.904l.003-.004c.208-.19.434-.368.672-.533l.022-.015c.244-.172.523-.34.814-.49l.04-.017a8.14 8.14 0 0 1 1.446-.572l.06-.015.772-.2c.235-.053.517-.095.806-.118h.02c.428 0 .868 0 1.334-.068h.6z"></path>
    <path fill="#fff" d="M29.947 12.107H24a2.597 2.597 0 0 1-.53 0h.01a4.208 4.208 0 0 0-2.175.237l.03-.01c-.318.13-.59.277-.843.45l.016-.01a5.12 5.12 0 0 0-.68.573l-.094.094h-.08v-.08a5.528 5.528 0 0 0-.253-.918l.014.04a7.338 7.338 0 0 0-.58-1.373l.02.037a5.978 5.978 0 0 0-.516-.758l.01.01a7.043 7.043 0 0 0-.572-.624l-.002-.002a5.393 5.393 0 0 0-.554-.428l-.02-.012-.52-.373-.68-.426a3.634 3.634 0 0 0-.427-.23l-.025-.01a9.244 9.244 0 0 0-1.035-.38l-.072-.02a10.322 10.322 0 0 0-1.614-.315l-.05-.006c-.5-.068-1.08-.107-1.667-.107h-.086.004a3.847 3.847 0 0 0-.56 0h.014-.68c-.49.018-.95.06-1.402.128l.07-.008c-.228 0-.468.093-.694.133-.515.11-.96.247-1.39.42l.057-.02c-.41.16-.76.344-1.088.56l.022-.013c-.216.132-.398.26-.573.397l.013-.01a6.505 6.505 0 0 0-1.2 1.312l-.013.022a5.35 5.35 0 0 0-.587 1.083l-.013.038c-.126.31-.24.686-.325 1.072l-.01.048a4.567 4.567 0 0 0-.08 1.268v-.015c.033.435.1.836.197 1.224l-.01-.05c.116.535.3 1.007.546 1.44l-.013-.025a5.55 5.55 0 0 0 1.154 1.42l.006.005c.02.023.032.053.032.087s-.012.064-.032.087v.106c0 .147-.133.293-.2.453l-.707 1.76a2.604 2.604 0 0 0-.212.746v.013a2.01 2.01 0 0 0 .002.798l-.002-.013c.173.29.39.533.647.73l.006.004c.29.34.634.626 1.02.843l.02.01c.266.16.582.32.908.46l.053.02c.35.15.76.267 1.186.33l.027.003c.625.11 1.357.182 2.102.2h1.657c.453 0 .893-.08 1.333-.16a7.208 7.208 0 0 0 1.072-.392l-.046.02a9.76 9.76 0 0 0 1.287-.507l-.06.026c.51-.22.948-.47 1.355-.76l-.022.014c.147-.107.307-.213.44-.333l.44-.387h.12a.578.578 0 0 1 0 .324v-.003c0 .307-.107.613-.16.933a.44.44 0 0 0 .427.547H18.418a9.375 9.375 0 0 0 1.187-.002h-.027a4.385 4.385 0 0 1 .546.002h-.013 4.987a1.4 1.4 0 0 0 .407-.002h-.008a.69.69 0 0 1 .43.002h-.004 3.813a5.7 5.7 0 0 0 .737-.002h-.017a1.004 1.004 0 0 1 .473.002h-.007 4.622a.532.532 0 0 0 .405-.187l.12-.148a.627.627 0 0 0 .515.268h.035-.002 3.667a1.332 1.332 0 0 0 1.064-.557l.003-.004c.092-.134.172-.28.266-.428s.413-.667.627-1 .373-.613.573-.92l.493-.8.706-1.12c.133-.213.24-.427.373-.627s.4-.653.612-.973.36-.613.56-.907.373-.627.573-.933l.387-.627.227-.36.72-1.147c.132-.213.28-.4.386-.627a.6.6 0 0 0 0-.417v.004a.48.48 0 0 0-.466-.387 4.112 4.112 0 0 0-.71 0h.016-3.02c-.155 0-.304.025-.443.07l.01-.003a2.02 2.02 0 0 0-.486.257l.006-.004h-.147a.88.88 0 0 0-.668-.307h-2.892c-.12 0-.133 0-.12-.147l.227-1.253.187-1.08a.828.828 0 0 0-.002-.486l.002.006a.617.617 0 0 0-.396-.36h-.004a1.206 1.206 0 0 0-.38 0h.006-3.64c-.236 0-.454.074-.63.202l.002-.002a.145.145 0 0 1-.188 0 2.04 2.04 0 0 0-.942-.227h-.047.002-1.573a3.023 3.023 0 0 0-.82.18l.02-.006a2.492 2.492 0 0 0-.776.47l.002-.003a1.955 1.955 0 0 0-.677 1.026l-.002.014a1.33 1.33 0 0 0 .398 1.412h.002z"></path>
    <path fill="#361910" d="M29.947 12.107 29.707 11.88A1.33 1.33 0 0 1 29.337 10.444L29.334 10.454C29.447 10.029 29.687 9.672 30.01 9.416L30.014 9.413C30.234 9.218 30.489 9.06 30.77 8.953L30.787 8.946C31.022 8.856 31.294 8.796 31.577 8.773H33.205C33.549 8.773 33.873 8.856 34.158 9.005L34.148 9A.145.145 0 0 0 34.334 9 1.07 1.07 0 0 1 35.017 8.8H35.014 38.547A1.206 1.206 0 0 1 38.927 8.8H38.921A.615.615 0 0 1 39.321 9.156V9.16A.828.828 0 0 1 39.321 9.646V9.64L39.135 10.72 38.935 12C38.935 12.12 38.935 12.147 39.055 12.147H41.947C42.214 12.147 42.452 12.265 42.614 12.453H42.762C42.902 12.353 43.06 12.268 43.229 12.205L43.243 12.2C43.373 12.157 43.523 12.133 43.676 12.133H43.712 43.709 46.856A4.112 4.112 0 0 1 47.566 12.133H47.55A.48.48 0 0 1 48.016 12.517V12.52A.6.6 0 0 1 48.016 12.938V12.934C47.91 13.147 47.764 13.347 47.63 13.561L46.91 14.709 46.683 15.069 46.297 15.696C46.097 16.003 45.924 16.323 45.724 16.629S45.364 17.242 45.164 17.536 44.764 18.189 44.552 18.509 44.299 18.922 44.179 19.136L43.472 20.256 42.979 21.056C42.779 21.363 42.606 21.683 42.406 21.976S42.006 22.643 41.779 22.976 41.606 23.256 41.512 23.403A1.334 1.334 0 0 1 40.446 23.963H36.648A.624.624 0 0 1 36.136 23.698V23.696L36.016 23.843A.532.532 0 0 1 35.609 24.03H30.92A1.004 1.004 0 0 0 30.448 24.03H30.455A5.7 5.7 0 0 1 29.718 24.028H29.735 25.868A.69.69 0 0 0 25.438 24.03H25.442A1.4 1.4 0 0 1 25.035 24.028H25.043 20.056A4.385 4.385 0 0 0 19.51 24.03H19.523A9.375 9.375 0 0 1 18.336 24.028H18.363 17.136L17.109 24.03A.44.44 0 0 1 16.682 23.48V23.482C16.682 23.175 16.788 22.869 16.842 22.549A.578.578 0 0 0 16.84 22.224L16.842 22.228C16.842 22.148 16.842 22.134 16.722 22.228L16.282 22.614C16.149 22.734 15.989 22.827 15.842 22.947A7.076 7.076 0 0 1 14.555 23.675L14.509 23.693A9.12 9.12 0 0 1 13.399 23.989L13.335 23.999C13.069 24.089 12.742 24.173 12.405 24.233L12.361 24.24C11.921 24.32 11.468 24.373 11.028 24.4H9.256C8.516 24.4 7.791 24.347 7.081 24.243L7.161 24.253A5.01 5.01 0 0 1 5.967 23.989L6.002 23.999A7.738 7.738 0 0 1 4.952 23.486L4.988 23.506A3.732 3.732 0 0 1 4.005 22.671L4 22.665A2.534 2.534 0 0 1 3.565 21.882L3.56 21.864A2.01 2.01 0 0 1 3.562 21.064L3.56 21.077C3.596 20.795 3.67 20.537 3.78 20.3L3.773 20.317 4.48 18.557C4.48 18.41 4.613 18.264 4.68 18.104V17.997C4.7 17.974 4.712 17.944 4.712 17.91S4.7 17.846 4.68 17.823A5.53 5.53 0 0 1 3.534 16.423L3.52 16.395A5.005 5.005 0 0 1 2.993 15.015L2.987 14.982A6.652 6.652 0 0 1 2.674 13.892L2.666 13.847A4.655 4.655 0 0 1 2.75 12.563L2.745 12.593C2.837 12.16 2.952 11.785 3.095 11.425L3.078 11.475C3.248 11.045 3.45 10.677 3.688 10.337L3.678 10.354C4.028 9.846 4.428 9.408 4.881 9.03L4.891 9.022C5.053 8.895 5.235 8.768 5.425 8.65L5.451 8.635A5.596 5.596 0 0 1 6.479 8.103L6.519 8.089C6.889 7.937 7.336 7.799 7.797 7.699L7.852 7.689C8.079 7.689 8.305 7.582 8.545 7.556 8.929 7.498 9.389 7.456 9.855 7.438H9.878A5.948 5.948 0 0 0 10.575 7.438H10.558A3.847 3.847 0 0 1 11.118 7.438H11.104 11.154C11.744 7.438 12.322 7.478 12.889 7.552L12.822 7.545C13.452 7.615 14.018 7.729 14.566 7.883L14.488 7.863C14.938 7.998 15.304 8.133 15.66 8.29L15.6 8.27C15.755 8.36 15.885 8.448 16.01 8.543L16 8.536 16.733 8.989 17.2 9.335C17.396 9.485 17.57 9.638 17.733 9.802 17.933 9.996 18.123 10.202 18.296 10.416L18.306 10.429C18.481 10.647 18.649 10.891 18.796 11.147L18.812 11.175C19.022 11.555 19.212 11.995 19.358 12.455L19.372 12.508C19.465 12.753 19.548 13.048 19.606 13.352L19.612 13.387V13.467H19.692L19.785 13.373C19.99 13.167 20.212 12.979 20.449 12.81L20.464 12.8C20.714 12.625 20.999 12.468 21.301 12.343L21.331 12.333C21.781 12.153 22.301 12.053 22.845 12.053 23.082 12.053 23.315 12.073 23.542 12.109L23.517 12.106A2.597 2.597 0 0 0 24.047 12.104H24.037 29.957Z" />
    <path fill="#361910" d="M8.92 24.213H9.627A11.058 11.058 0 0 0 11.379 23.987L11.306 24A7.813 7.813 0 0 0 12.98 23.42L12.934 23.44C13.301 23.28 13.604 23.123 13.894 22.95L13.854 22.973A7.466 7.466 0 0 0 15.188 21.933C15.388 21.733 15.574 21.52 15.774 21.32 16.118 20.964 16.422 20.566 16.678 20.136L16.694 20.106C16.867 19.824 17.049 19.483 17.214 19.132L17.24 19.066C17.472 18.584 17.69 18.008 17.86 17.412L17.88 17.332C17.975 17.018 18.046 16.652 18.08 16.272V15.345A6.65 6.65 0 0 0 18.08 14.268V14.292A9.552 9.552 0 0 0 17.867 13.079L17.881 13.144A7.707 7.707 0 0 0 17.421 11.761L17.441 11.811A5.542 5.542 0 0 0 16.571 10.471L16.575 10.478A6.253 6.253 0 0 0 15.693 9.606L15.681 9.596A8.608 8.608 0 0 0 14.616 8.873L14.574 8.851A6.83 6.83 0 0 0 13.871 8.469L13.828 8.452Q13.455 8.305 13.081 8.185A6.89 6.89 0 0 0 12.217 8.005L12.173 8A9.766 9.766 0 0 0 11.013 7.868H9.386C9.066 7.868 8.746 7.868 8.426 7.96S7.866 8.08 7.586 8.16L6.933 8.36A8.04 8.04 0 0 0 5.981 8.782L6.028 8.76C5.773 8.89 5.555 9.027 5.35 9.18L5.36 9.173A7.538 7.538 0 0 0 4.56 9.853 5.422 5.422 0 0 0 3.68 11.013L3.667 11.04A5.533 5.533 0 0 0 3.36 11.72L3.347 11.76A4.694 4.694 0 0 0 3.015 13.072L3.013 13.092A3.447 3.447 0 0 0 3.013 13.666V13.653 14.12C3.013 14.28 3.013 14.573 3.12 14.8 3.186 15.103 3.264 15.362 3.36 15.612L3.347 15.574C3.474 15.941 3.632 16.258 3.824 16.551L3.814 16.535C3.814 16.628 3.947 16.708 4.001 16.788 4.204 17.071 4.419 17.318 4.654 17.548H4.656C4.746 17.644 4.842 17.731 4.944 17.81L4.95 17.813C4.966 17.828 4.976 17.849 4.976 17.873S4.966 17.918 4.949 17.933C4.855 18.16 4.761 18.4 4.669 18.626 4.415 19.199 4.189 19.799 3.949 20.386 3.831 20.626 3.746 20.906 3.709 21.2V21.213A1.482 1.482 0 0 0 3.792 21.877L3.789 21.867C3.855 22.05 3.936 22.209 4.034 22.355L4.029 22.347C4.105 22.467 4.184 22.572 4.271 22.669L4.269 22.666C4.425 22.826 4.595 22.97 4.777 23.098L4.789 23.105C5.172 23.358 5.612 23.582 6.076 23.757L6.122 23.771 6.309 23.838C6.759 24.013 7.281 24.132 7.825 24.171H7.843C8.117 24.198 8.436 24.213 8.758 24.213H8.931 8.921Z" />
    <path fill="#361910" d="M25.333 19.827H26.463A.64.64 0 0 0 27.093 19.311V19.308C27.093 19.015 27.186 18.721 27.253 18.428S27.373 17.721 27.44 17.375C27.573 16.668 27.667 15.948 27.813 15.228 27.893 14.801 27.96 14.375 28.026 13.895S28.146 13.228 28.199 12.882A.44.44 0 0 0 27.999 12.472V12.47A.572.572 0 0 0 27.687 12.47H27.691 25.524A.68.68 0 0 0 24.851 13.053V13.165A.927.927 0 0 0 24.678 12.952V12.95A1.867 1.867 0 0 0 23.633 12.458H23.623A4.443 4.443 0 0 0 22.427 12.46L22.449 12.457A3.717 3.717 0 0 0 21.203 12.867L21.223 12.857A3.677 3.677 0 0 0 20.356 13.497 5.095 5.095 0 0 0 19.58 14.437L19.568 14.457C19.35 14.817 19.168 15.234 19.043 15.674L19.033 15.71V15.99A6.027 6.027 0 0 0 18.915 16.836L18.913 16.856A3.538 3.538 0 0 0 19.025 18.029L19.019 18.004C19.137 18.452 19.344 18.841 19.622 19.168L19.619 19.164C19.877 19.467 20.204 19.704 20.576 19.852L20.593 19.858A3.26 3.26 0 0 0 22.265 20.015L22.245 20.018A3.393 3.393 0 0 0 23.497 19.491L23.485 19.497 23.912 19.204H23.979C24.046 19.204 23.979 19.204 23.979 19.284V19.524A.307.307 0 0 0 24.072 19.804.558 .558 0 0 0 24.514 19.951H24.51Z" />
    <path fill="#361910" d="M41.547 14.787A.267.267 0 0 1 41.547 14.639L41.335 13.627C41.335 13.387 41.255 13.16 41.188 12.92A.613.613 0 0 0 40.671 12.455H40.669A2.297 2.297 0 0 0 40.274 12.455H40.284 38.004A.36.36 0 0 0 37.67 12.869V12.866C37.702 13.086 37.748 13.278 37.81 13.466L37.803 13.439 38.003 14.212 38.336 15.545C38.336 15.625 38.336 15.705 38.403 15.785S38.483 16.118 38.523 16.292 38.683 16.892 38.75 17.185C38.797 17.407 38.848 17.59 38.908 17.769L38.898 17.731C38.978 17.931 39.004 18.144 39.058 18.344A.75.75 0 0 1 39.056 18.589V18.584 18.604C39.056 18.91 38.962 19.194 38.8 19.429L38.803 19.424C38.616 19.691 38.47 19.997 38.283 20.264S37.99 20.731 37.856 20.957L37.149 22.09C36.961 22.384 36.789 22.69 36.601 22.984S36.468 23.211 36.401 23.331A.267.267 0 0 0 36.624 23.746H36.644 36.642 38.958C39.325 23.746 39.648 23.549 39.824 23.256L39.827 23.251 40.293 22.504 41.2 21.064 41.667 20.304 42.334 19.251C42.467 19.038 42.587 18.811 42.721 18.611S43.161 17.904 43.388 17.558 44.028 16.531 44.348 16.011L45.136 14.678 45.483 14.118C45.736 13.745 45.95 13.345 46.203 12.971L46.296 12.811A.24.24 0 0 0 46.111 12.451H44.311A7.373 7.373 0 0 0 43.531 12.451H43.551A1.015 1.015 0 0 0 42.911 12.771 2.723 2.723 0 0 0 42.623 13.159L42.616 13.171 41.869 14.304Z" />
    <path fill="#361910" d="M34.187 19.827H35.354A.64.64 0 0 0 35.987 19.284V19.147C36.107 18.52 36.227 17.894 36.334 17.267S36.601 15.64 36.747 14.84 37.067 12.893 37.267 11.92C37.414 11.2 37.534 10.467 37.654 9.733A1.038 1.038 0 0 0 37.654 9.421V9.428A.4.4 0 0 0 37.337 9.095H34.907A.693.693 0 0 0 34.241 9.678V9.682C34.161 10.19 34.068 10.682 33.974 11.19S33.801 12.11 33.721 12.523Q33.521 13.711 33.294 14.897 33.121 15.83 32.974 16.777C32.894 17.31 32.774 17.857 32.694 18.39 32.694 18.683 32.587 18.977 32.547 19.283A.387.387 0 0 0 32.771 19.763H32.774A.45.45 0 0 0 32.991 19.763H32.988Z" />
    <path fill="#361910" d="M29.733 19.827H30.93A.656.656 0 0 0 31.27 19.732L31.267 19.734A.696.696 0 0 0 31.587 19.217V19.214L31.854 17.654 32.267 15.267 32.587 13.4C32.587 13.267 32.587 13.12 32.654 12.987A.468.468 0 0 0 32.654 12.65V12.653A.44.44 0 0 0 32.269 12.425H29.973A.757.757 0 0 0 29.688 12.425H29.692A.668.668 0 0 0 29.239 12.955V12.959C29.239 13.119 29.239 13.291 29.159 13.451 29.159 13.838 29.039 14.211 28.959 14.598S28.799 15.53 28.707 15.93 28.547 16.863 28.467 17.33L28.32 18.103C28.32 18.303 28.32 18.49 28.228 18.69A4.223 4.223 0 0 0 28.136 19.245V19.263A.414.414 0 0 0 28.136 19.506V19.503C28.212 19.639 28.356 19.73 28.52 19.73H28.536Z" />
    <path fill="#361910" d="M31.067 12.08A2.194 2.194 0 0 0 31.584 12.08H31.574A2.508 2.508 0 0 0 32.724 11.504L32.72 11.506C33.062 11.226 33.282 10.806 33.293 10.336V10.292A.992.992 0 0 0 33.091 9.689L33.094 9.691A1.545 1.545 0 0 0 31.756 9.091H31.761 31.703C31.326 9.091 30.97 9.179 30.653 9.337L30.668 9.331A2.69 2.69 0 0 0 29.961 9.838C29.743 10.058 29.591 10.348 29.536 10.668V10.678A1.03 1.03 0 0 0 29.536 11.098V11.09C29.61 11.46 29.848 11.764 30.168 11.927L30.175 11.929A1.802 1.802 0 0 0 31.035 12.075H31.028Z" />
    <path fill="#361910" d="M22.8 21.747C22.793 21.737 22.79 21.722 22.79 21.707S22.793 21.677 22.8 21.667V20.76A.213.213 0 0 0 22.59 20.52H22.573A6.135 6.135 0 0 0 21.81 20.522H21.828C21.681 20.522 21.628 20.522 21.588 20.734S21.588 20.934 21.588 21.027L21.361 22.36 21.175 23.4C21.175 23.56 21.175 23.627 21.362 23.64H21.71C21.897 23.64 21.99 23.64 22.03 23.373S22.03 23.08 22.11 22.933C22.13 22.778 22.16 22.643 22.195 22.51L22.19 22.533V23A2.772 2.772 0 0 0 22.19 23.436V23.426C22.19 23.559 22.19 23.586 22.39 23.599H22.65A.226.226 0 0 0 22.842 23.492C22.89 23.418 22.93 23.334 22.962 23.246V23.238L23.176 22.638A.96.96 0 0 1 23.246 22.513L23.243 22.517C23.251 22.527 23.255 22.541 23.255 22.557S23.251 22.585 23.245 22.597L23.165 23.049A1.732 1.732 0 0 0 23.165 23.389V23.383C23.165 23.516 23.165 23.583 23.351 23.583H23.778A.253.253 0 0 0 24.031 23.343L24.431 21.036V20.662C24.431 20.542 24.431 20.462 24.244 20.449H23.529C23.366 20.449 23.229 20.561 23.192 20.713V20.715C23.125 20.915 23.045 21.115 22.965 21.315A1.952 1.952 0 0 1 22.801 21.751L22.806 21.741Z" />
    <path fill="#fff" d="M38.187 16.32 37.894 17.947C37.894 18.227 37.787 18.52 37.747 18.814 37.719 19.047 37.677 19.254 37.62 19.457L37.627 19.427A.883.883 0 0 1 36.885 20.067H36.881A7.557 7.557 0 0 1 35.818 20.067H35.842 24.736A4.248 4.248 0 0 1 24 20.067H24.016A.75.75 0 0 0 23.546 20.163L23.549 20.161H24.697C24.827 20.161 24.945 20.201 25.043 20.271L25.041 20.269C25.065 20.289 25.095 20.301 25.129 20.301S25.193 20.289 25.216 20.269A.71.71 0 0 1 25.546 20.162H26.794C26.894 20.162 26.984 20.198 27.057 20.257 27.08 20.28 27.113 20.294 27.149 20.294S27.219 20.279 27.242 20.256A.516.516 0 0 1 27.578 20.163H27.576 29.709A.598.598 0 0 1 30.072 20.233L30.069 20.23C30.106 20.263 30.155 20.282 30.209 20.282S30.312 20.262 30.349 20.228A.47.47 0 0 1 30.629 20.161H31.589A.86.86 0 0 1 32.152 20.281H32.148 32.295A.594.594 0 0 1 32.657 20.187H32.655 36.108A.454.454 0 0 1 36.521 20.71V20.706C36.453 21.239 36.347 21.759 36.253 22.293 36.253 22.493 36.173 22.68 36.16 22.893A.174.174 0 0 0 36.265 22.801C36.412 22.548 36.585 22.308 36.732 22.068S37.265 21.215 37.519 20.735C37.651 20.522 37.799 20.322 37.919 20.095S38.305 19.468 38.505 19.148C38.593 19.011 38.659 18.848 38.69 18.676L38.692 18.668A1.03 1.03 0 0 0 38.692 18.248V18.254Q38.519 17.534 38.319 16.801C38.319 16.628 38.211 16.468 38.171 16.294 38.175 16.304 38.179 16.314 38.185 16.321Z" />
    <path fill="#361910" d="M32.987 22.36 33.2 23.427A.254.254 0 0 0 33.452 23.654H33.973C34.08 23.654 34.106 23.654 34.106 23.494L34.108 23.454 34.106 23.412V23.414L33.986 22.881 33.826 22.161A.327.327 0 0 1 33.826 21.906V21.908C34.013 21.601 34.173 21.268 34.359 20.961L34.491 20.721C34.491 20.614 34.491 20.521 34.371 20.521H33.971C33.958 20.519 33.944 20.519 33.929 20.519A.372.372 0 0 0 33.586 20.746V20.748C33.466 21.001 33.318 21.228 33.198 21.468S33.104 21.628 33.038 21.735A.337.337 0 0 1 33.038 21.573L33.036 21.575C33.036 21.308 33.116 21.028 33.169 20.762S33.169 20.496 32.957 20.51H32.624C32.437 20.51 32.371 20.51 32.331 20.75S32.224 21.323 32.171 21.617L32 23.095V23.482A.16.16 0 0 0 32.154 23.682H32.174 32.172 32.6A.226.226 0 0 0 32.825 23.482Q32.825 23.269 32.918 23.042L33.025 22.442S32.945 22.389 32.998 22.362Z" />
    <path fill="#361910" d="M27.893 23.693H28.733C28.84 23.693 28.946 23.693 28.986 23.546 29.036 23.396 29.069 23.224 29.079 23.046V23.04C29.079 22.92 29.079 22.867 28.905 22.867H28.225C28.158 22.867 28.225 22.867 28.225 22.8S28.385 22.573 28.478 22.453L29.224 21.48A.686.686 0 0 0 29.369 21.245L29.372 21.24A3.63 3.63 0 0 0 29.45 20.806L29.453 20.786C29.453 20.64 29.453 20.586 29.266 20.586H27.59A.227.227 0 0 0 27.373 20.746V20.748A2.57 2.57 0 0 0 27.293 21.233V21.241C27.293 21.335 27.293 21.375 27.426 21.401H28.146C28.173 21.401 28.146 21.495 28.146 21.535L27.159 22.868A.57.57 0 0 0 27.039 23.118V23.122A2.626 2.626 0 0 0 27.039 23.452V23.442C27.039 23.616 27.039 23.722 27.265 23.722Z" />
    <path fill="#361910" d="M20.093 20.533H19.786A.292.292 0 0 0 19.48 20.717V20.719L19.32 21.079C19.12 21.559 18.946 22.051 18.732 22.545S18.492 23.145 18.372 23.452 18.372 23.665 18.519 23.665H18.959A.308.308 0 0 0 19.251 23.453V23.358A.134.134 0 0 1 19.401 23.263H19.4 19.64A.292.292 0 0 1 19.802 23.263H19.8V23.49A.173.173 0 0 0 19.97 23.637L19.987 23.635H20.467C20.627 23.635 20.679 23.635 20.667 23.422V20.702A.2.2 0 0 0 20.467 20.502H20.452Z" />
    <path fill="#361910" d="M30.973 20.533H30.639A.308.308 0 0 0 30.346 20.743V20.746C30.198 21.093 30.052 21.426 29.932 21.773S29.519 22.8 29.319 23.306A1.162 1.162 0 0 0 29.319 23.484V23.48C29.319 23.6 29.319 23.667 29.466 23.68H29.93A.308.308 0 0 0 30.213 23.495V23.36A.107.107 0 0 1 30.307 23.293H30.667C30.707 23.293 30.74 23.323 30.747 23.359V23.455 23.452C30.747 23.625 30.827 23.679 30.987 23.679H31.4C31.56 23.679 31.627 23.679 31.627 23.452V20.76C31.627 20.573 31.547 20.533 31.374 20.533Z" />
    <path fill="#361910" d="M26.493 21.333V20.813C26.493 20.64 26.413 20.573 26.253 20.573H25.617A.333.333 0 0 0 25.294 20.823V20.826C25.134 21.266 24.947 21.693 24.774 22.159S24.427 23.011 24.254 23.491A.457.457 0 0 0 24.254 23.627V23.625C24.254 23.745 24.254 23.785 24.388 23.785H24.735A.386.386 0 0 0 25.187 23.507V23.504A.147.147 0 0 1 25.329 23.397H25.614C25.747 23.397 25.747 23.397 25.747 23.53S25.827 23.784 25.974 23.784H26.456A.173.173 0 0 0 26.626 23.638.457 .457 0 0 0 26.626 23.501V23.504 22.331C26.626 21.944 26.493 21.611 26.493 21.331Z" />
    <path fill="#361910" d="M17.333 23.68H17.575A.226.226 0 0 0 17.8 23.48V23.387L17.973 22.427A.468.468 0 0 1 17.973 22.25V22.253L18.626 21.173 18.893 20.746C18.973 20.599 18.893 20.546 18.773 20.533H18.411A.44.44 0 0 0 18.015 20.783V20.787C17.935 20.92 17.855 21.054 17.761 21.174S17.761 21.254 17.694 21.241 17.694 21.241 17.694 21.149L17.6 20.8A.28.28 0 0 0 17.334 20.574H16.907C16.774 20.574 16.734 20.654 16.76 20.774L16.88 21.254C16.947 21.547 17.027 21.841 17.107 22.121A.836.836 0 0 1 17.107 22.501V22.495L17.014 22.962C17.014 23.136 17.014 23.296 16.921 23.47S16.921 23.723 17.135 23.723Z" />
    <path fill="#361910" d="M34.667 23.68H34.934A.226.226 0 0 0 35.187 23.468C35.187 23.334 35.187 23.188 35.267 23.054L35.534 21.561C35.534 21.281 35.641 21.015 35.667 20.735S35.667 20.548 35.52 20.548A3.377 3.377 0 0 0 35.043 20.548H35.053 35.05A.227.227 0 0 0 34.827 20.733 1.642 1.642 0 0 0 34.827 20.883V20.88L34.654 21.892 34.387 23.359A.66.66 0 0 0 34.387 23.521V23.518C34.387 23.605 34.459 23.678 34.547 23.678Z" />
    <path fill="#361910" d="M20.627 20.2A4.8 4.8 0 0 1 20.114 20.014L20.147 20.027A2.75 2.75 0 0 1 19.645 19.741L19.653 19.748A3.323 3.323 0 0 1 19.097 19.22L19.093 19.214C19.093 19.134 19.013 19.134 18.96 19.214L18.72 19.694 18.467 20.161V20.255H20.534S20.601 20.242 20.627 20.202Z" />
    <path fill="#361910" d="M27.413 21.827A.177.177 0 0 0 27.506 21.747C27.386 21.68 27.373 21.734 27.399 21.84Z" />
    <path fill="#f1db32" d="M8.92 24.213A9.91 9.91 0 0 1 7.814 24.213H7.84A5.444 5.444 0 0 1 6.27 23.867L6.306 23.88 6.119 23.813A6.666 6.666 0 0 1 4.759 23.131L4.784 23.148A3.732 3.732 0 0 1 4.309 22.674L4.304 22.668A2.594 2.594 0 0 1 4.07 22.358L4.065 22.348A2.157 2.157 0 0 1 3.83 21.883L3.825 21.868A1.44 1.44 0 0 1 3.745 21.208V21.214C3.785 20.901 3.875 20.618 4.005 20.359L3.997 20.374C4.224 19.787 4.464 19.201 4.717 18.614 4.81 18.387 4.904 18.161 4.997 17.921 5.014 17.906 5.024 17.885 5.024 17.861S5.014 17.816 4.997 17.801A2.49 2.49 0 0 1 4.705 17.536 5.56 5.56 0 0 1 4.005 16.8L3.997 16.787C3.997 16.694 3.877 16.614 3.81 16.534A4.272 4.272 0 0 1 3.353 15.604L3.343 15.574A5.112 5.112 0 0 1 3.123 14.838L3.117 14.801C3.117 14.575 3.037 14.349 3.01 14.121S3.01 13.815 3.01 13.655A3.447 3.447 0 0 1 3.01 13.082V13.096C3.06 12.603 3.18 12.152 3.355 11.731L3.343 11.761C3.448 11.476 3.556 11.239 3.679 11.011L3.663 11.041C3.918 10.589 4.213 10.199 4.557 9.855 4.797 9.599 5.049 9.365 5.317 9.145L5.33 9.135A4.46 4.46 0 0 1 5.972 8.733L5.997 8.721C6.241 8.591 6.539 8.457 6.847 8.341L6.903 8.321 7.556 8.121C7.836 8.054 8.116 7.974 8.396 7.921S9.036 7.841 9.356 7.828 9.996 7.828 10.316 7.828H10.956C11.396 7.852 11.806 7.9 12.206 7.97L12.143 7.96C12.503 8.028 12.809 8.107 13.106 8.202L13.05 8.186Q13.437 8.306 13.797 8.453C14.093 8.59 14.337 8.723 14.574 8.87L14.544 8.853C14.966 9.093 15.327 9.341 15.668 9.613L15.65 9.6C15.98 9.867 16.274 10.155 16.536 10.47L16.544 10.48C16.884 10.864 17.174 11.303 17.396 11.78L17.41 11.814C17.578 12.189 17.73 12.634 17.84 13.094L17.85 13.147A8.9 8.9 0 0 1 18.046 14.249L18.05 14.293A6.65 6.65 0 0 1 18.05 15.37V15.347 16.254A5.533 5.533 0 0 1 17.84 17.374L17.85 17.334C17.7 17.984 17.522 18.54 17.304 19.076L17.33 19C17.14 19.42 16.957 19.76 16.757 20.09L16.784 20.04A6.45 6.45 0 0 1 15.862 21.256L15.864 21.254C15.664 21.454 15.477 21.667 15.277 21.867 14.884 22.253 14.447 22.597 13.975 22.889L13.943 22.906A7.99 7.99 0 0 1 13.078 23.351L13.023 23.373A7.67 7.67 0 0 1 11.357 23.989L11.303 23.999C10.818 24.114 10.243 24.199 9.656 24.239H9.623Z" />
    <path fill="#361910" d="M9.88 11.187A5.884 5.884 0 0 0 9.315 11.201H9.333A5.52 5.52 0 0 0 8.216 11.355L8.253 11.347A4.23 4.23 0 0 0 7.15 11.745L7.173 11.735C6.807 11.925 6.508 12.2 6.298 12.538L6.293 12.548A1.2 1.2 0 0 0 6.106 13.173 2.202 2.202 0 0 0 6.106 13.475V13.468C6.132 13.676 6.189 13.865 6.271 14.04L6.267 14.027C6.305 14.113 6.35 14.187 6.402 14.257V14.253H6.508C6.695 13.84 6.868 13.426 7.028 13A.67.67 0 0 1 7.66 12.546H8.19A4.89 4.89 0 0 1 8.872 12.546H8.855C9.09 12.586 9.295 12.642 9.495 12.714L9.468 12.706C9.806 12.819 10.098 12.982 10.353 13.19L10.349 13.186 10.482 13.306A.386.386 0 0 1 10.6 13.696V13.692C10.6 13.892 10.454 14.092 10.388 14.292 10.228 14.745 10.041 15.199 9.855 15.625L9.335 17.065C9.202 17.385 9.055 17.718 8.908 18.038 8.744 18.335 8.638 18.685 8.615 19.058V19.065A.827.827 0 0 0 9.195 19.945H9.2C9.444 20.045 9.728 20.102 10.026 20.102S10.608 20.045 10.868 19.94L10.853 19.945C11.105 19.849 11.32 19.741 11.523 19.615L11.507 19.625A5.306 5.306 0 0 0 12.54 18.675L12.547 18.665A6.45 6.45 0 0 0 13.237 17.771L13.253 17.746C13.413 17.503 13.565 17.222 13.693 16.929L13.706 16.893C13.801 16.685 13.884 16.44 13.941 16.186L13.947 16.16A4.555 4.555 0 0 0 14.027 14.877V14.893A4.813 4.813 0 0 0 14.027 14.32V14.334A3.386 3.386 0 0 0 13.929 13.884L13.935 13.907A6.698 6.698 0 0 0 13.611 13.093L13.629 13.133A1.335 1.335 0 0 0 13.506 12.889L13.509 12.893A5.026 5.026 0 0 0 12.909 12.159 3.29 3.29 0 0 0 12.024 11.607L12 11.6A6.176 6.176 0 0 0 11.37 11.372L11.32 11.36A3.136 3.136 0 0 0 10.778 11.242L10.761 11.24A4.292 4.292 0 0 0 9.873 11.187H9.883Z" />
    <path fill="#f1db32" d="M25.333 19.827H24.253A.56.56 0 0 1 23.813 19.68.303 .303 0 0 1 23.719 19.398V19.4 19.08C23.719 19 23.719 19.08 23.651 19.08L23.224 19.373C22.871 19.616 22.454 19.797 22.006 19.889L21.984 19.892A3.22 3.22 0 0 1 20.309 19.724L20.331 19.731A2.466 2.466 0 0 1 19.361 19.041L19.357 19.038A2.89 2.89 0 0 1 18.762 17.898L18.757 17.878A3.455 3.455 0 0 1 18.651 16.718V16.731C18.673 16.408 18.715 16.111 18.778 15.821L18.768 15.864V15.584C18.902 15.107 19.084 14.691 19.315 14.308L19.302 14.331C19.532 13.967 19.792 13.653 20.087 13.373V13.371A3.64 3.64 0 0 1 20.935 12.741L20.955 12.731A3.644 3.644 0 0 1 22.161 12.333L22.181 12.331A4.443 4.443 0 0 1 23.378 12.334L23.356 12.331A1.88 1.88 0 0 1 24.41 12.825.926 .926 0 0 1 24.58 13.033L24.582 13.037V13.009A.68.68 0 0 1 25.256 12.422H25.291 25.289 27.423A.572.572 0 0 1 27.733 12.424H27.73A.44.44 0 0 1 27.958 12.894V12.89C27.958 13.223 27.851 13.557 27.785 13.903S27.652 14.756 27.572 15.236C27.425 15.942 27.332 16.662 27.199 17.382 27.199 17.729 27.091 18.089 27.011 18.435S26.904 19.021 26.851 19.315A.64.64 0 0 1 26.221 19.835H25.331Z" />
    <path fill="#361910" d="M24 15.827A.628.628 0 0 0 24 15.623V15.627A.813.813 0 0 0 23.707 15.107.69 .69 0 0 0 23.197 14.96H23.199 23.193A.983.983 0 0 0 22.491 15.253 1.528 1.528 0 0 0 22.039 16.513V16.506A.824.824 0 0 0 22.329 17.078H22.331A.81.81 0 0 0 23.111 17.198H23.104C23.37 17.125 23.589 16.958 23.728 16.738L23.73 16.733C23.893 16.489 23.992 16.19 23.997 15.867Z" />
    <path fill="#f1db32" d="M41.547 14.787 41.88 14.294 42.667 13.174C42.757 13.024 42.854 12.892 42.962 12.772L42.96 12.774C43.123 12.599 43.346 12.481 43.596 12.454H43.6A7.373 7.373 0 0 1 44.378 12.454H44.36 46.16A.24.24 0 0 1 46.346 12.814L46.254 12.974C46.001 13.347 45.787 13.747 45.534 14.121L45.187 14.681 44.4 16.015C44.08 16.535 43.773 17.055 43.44 17.562S43.013 18.27 42.773 18.616 42.52 19.043 42.386 19.256L41.719 20.309 41.251 21.069 40.344 22.509 39.877 23.256C39.697 23.554 39.375 23.75 39.007 23.75H36.634A.267.267 0 0 1 36.412 23.336C36.412 23.216 36.532 23.096 36.612 22.99S36.985 22.39 37.159 22.097L37.866 20.964C38.013 20.724 38.146 20.497 38.293 20.271S38.627 19.697 38.813 19.431A1.44 1.44 0 0 0 39.067 18.611V18.589A.75.75 0 0 0 39.067 18.345V18.35C39.067 18.15 38.974 17.936 38.907 17.736A4.76 4.76 0 0 1 38.767 17.226L38.761 17.19C38.681 16.897 38.601 16.59 38.534 16.297S38.442 15.964 38.414 15.79 38.414 15.63 38.348 15.55L38.015 14.217 37.815 13.444A3.377 3.377 0 0 1 37.685 12.891L37.683 12.871A.36.36 0 0 1 38.015 12.459H40.255A2.297 2.297 0 0 1 40.651 12.459H40.641C40.897 12.491 41.101 12.677 41.161 12.919V12.924C41.161 13.151 41.255 13.391 41.309 13.631L41.509 14.644V14.65C41.509 14.7 41.524 14.75 41.549 14.79Z" />
    <path fill="#f1db32" d="M34.187 19.827H33A.45.45 0 0 1 32.783 19.827H32.786A.388.388 0 0 1 32.56 19.344V19.347C32.56 19.054 32.652 18.76 32.706 18.454 32.799 17.921 32.906 17.374 32.986 16.841S33.199 15.589 33.306 14.961 33.599 13.389 33.733 12.589C33.813 12.122 33.906 11.669 33.986 11.256S34.173 10.256 34.253 9.749A.695.695 0 0 1 34.919 9.162H37.332A.4.4 0 0 1 37.665 9.522 1.038 1.038 0 0 1 37.665 9.835V9.829C37.532 10.562 37.412 11.282 37.278 12.016 37.09 12.989 36.944 13.963 36.758 14.936S36.464 16.563 36.344 17.363 36.117 18.617 35.997 19.243V19.377A.64.64 0 0 1 35.363 19.924H34.2Z" />
    <path fill="#f1db32" d="M29.733 19.827H28.545A.44.44 0 0 1 28.161 19.602V19.6A.414.414 0 0 1 28.161 19.357V19.36C28.181 19.142 28.215 18.947 28.261 18.756L28.254 18.786C28.254 18.586 28.254 18.399 28.347 18.199L28.494 17.425 28.734 16.025C28.814 15.558 28.881 15.092 28.987 14.692S29.12 13.932 29.187 13.545C29.187 13.385 29.187 13.212 29.267 13.052A.67.67 0 0 1 29.717 12.52H29.721A.757.757 0 0 1 30.006 12.52H30 32.267L32.295 12.518A.44.44 0 0 1 32.679 12.743V12.745A.468.468 0 0 1 32.679 13.082V13.079C32.679 13.211 32.679 13.359 32.612 13.491L32.292 15.358 31.879 17.744C31.786 18.264 31.706 18.784 31.612 19.304A.694.694 0 0 1 31.295 19.822L31.292 19.824A.642.642 0 0 1 30.955 19.917H29.731Z" />
    <path fill="#f1db32" d="M31.027 12.08A1.82 1.82 0 0 1 30.204 11.875L30.214 11.88A1.206 1.206 0 0 1 29.574 11.048V11.04A1.03 1.03 0 0 1 29.576 10.62V10.627C29.632 10.297 29.784 10.01 30.002 9.787 30.192 9.609 30.412 9.457 30.652 9.341L30.669 9.335A2.3 2.3 0 0 1 31.669 9.108 1.543 1.543 0 0 1 32.999 9.704L33.001 9.708A.994.994 0 0 1 33.201 10.308V10.35 10.347A1.557 1.557 0 0 1 32.631 11.517L32.627 11.52A2.487 2.487 0 0 1 31.497 12.09L31.481 12.093A2.16 2.16 0 0 1 31.016 12.078H31.028Z" />
    <path fill="#f1db32" d="M22.8 21.747A1.86 1.86 0 0 0 22.956 21.401L22.96 21.388C23.04 21.188 23.12 20.988 23.187 20.788A.347.347 0 0 1 23.547 20.522H24.24C24.387 20.522 24.44 20.522 24.427 20.736S24.427 20.989 24.427 21.109L24 23.44A.253.253 0 0 1 23.747 23.68H23.32C23.187 23.68 23.147 23.68 23.133 23.48A1.732 1.732 0 0 1 23.133 23.14V23.146L23.213 22.693C23.22 22.683 23.223 22.668 23.223 22.653S23.22 22.623 23.213 22.613A.825.825 0 0 0 23.149 22.727L23.146 22.733 22.933 23.333A1.14 1.14 0 0 1 22.81 23.591L22.814 23.587A.227.227 0 0 1 22.622 23.694H22.362C22.228 23.694 22.188 23.694 22.162 23.521A2.772 2.772 0 0 1 22.162 23.085L22.16 23.095V22.628A2.898 2.898 0 0 0 22.082 23.011L22.08 23.028C22.08 23.175 22.08 23.321 22 23.468S21.867 23.748 21.68 23.735H21.333C21.173 23.735 21.12 23.655 21.146 23.495L21.333 22.455 21.56 21.122V20.83C21.56 20.683 21.653 20.63 21.8 20.617A6.135 6.135 0 0 1 22.564 20.617H22.546 22.561C22.681 20.617 22.775 20.712 22.775 20.829L22.773 20.857V21.763A.113.113 0 0 0 22.8 21.751Z" />
    <path fill="#f1db32" d="M33 22.36V22.44L32.893 23.04C32.893 23.187 32.893 23.333 32.8 23.48A.228.228 0 0 1 32.575 23.68H32.126A.16.16 0 0 1 31.973 23.48V23.093L32.226 21.666C32.226 21.373 32.333 21.079 32.386 20.799S32.493 20.559 32.679 20.559H33.012C33.185 20.559 33.252 20.665 33.225 20.811A34.154 34.154 0 0 0 33.082 21.704C33.082 21.732 33.086 21.76 33.092 21.786V21.784C33.092 21.677 33.212 21.597 33.252 21.517S33.518 21.037 33.638 20.797A.373.373 0 0 1 34.025 20.571H34.023 34.423C34.57 20.571 34.61 20.664 34.543 20.771L34.41 21.011C34.223 21.331 34.077 21.651 33.877 21.958A.327.327 0 0 0 33.877 22.213V22.211L34.037 22.931 34.157 23.464V23.546 23.544C34.157 23.651 34.157 23.691 34.023 23.704H33.501A.254.254 0 0 1 33.249 23.478L33.036 22.41Z" />
    <path fill="#f1db32" d="M27.907 23.68H27.12C26.867 23.68 26.88 23.573 26.893 23.4A2.626 2.626 0 0 1 26.893 23.072V23.08A.572.572 0 0 1 27.013 22.826L28 21.495S28.08 21.415 28 21.362 28 21.336 28 21.336H27.453C27.36 21.336 27.32 21.336 27.32 21.176 27.333 20.994 27.36 20.826 27.404 20.664L27.4 20.684A.214.214 0 0 1 27.628 20.524H29.334C29.481 20.524 29.547 20.524 29.521 20.724 29.501 20.899 29.473 21.054 29.436 21.204L29.442 21.177A.696.696 0 0 1 29.296 21.417L28.549 22.39C28.469 22.497 28.389 22.63 28.296 22.737S28.296 22.737 28.296 22.804 28.296 22.804 28.363 22.804H28.977C29.097 22.804 29.15 22.804 29.15 22.977A2.082 2.082 0 0 1 29.053 23.497L29.057 23.483C29.057 23.603 28.91 23.631 28.804 23.631H27.964Z" />
    <path fill="#f1db32" d="M20.093 20.533H20.439C20.549 20.533 20.639 20.623 20.639 20.733V23.453C20.639 23.6 20.639 23.666 20.439 23.666H19.954A.187.187 0 0 1 19.772 23.521V23.294A.292.292 0 0 0 19.61 23.294H19.613 19.353C19.293 23.294 19.243 23.332 19.227 23.387V23.481A.308.308 0 0 1 18.935 23.695H18.534C18.387 23.695 18.334 23.628 18.387 23.482S18.614 22.87 18.747 22.576 19.134 21.603 19.334 21.109L19.494 20.749A.295.295 0 0 1 19.802 20.562H20.108Z" />
    <path fill="#f1db32" d="M19.867 21.867A.42.42 0 0 0 19.801 21.997V22L19.628 22.44C19.548 22.64 19.535 22.64 19.775 22.653 19.895 22.653 19.922 22.653 19.922 22.506V21.933A.067.067 0 0 0 19.869 21.826Z" />
    <path fill="#f1db32" d="M30.973 20.547H31.293C31.466 20.547 31.533 20.547 31.546 20.774S31.546 21.134 31.546 21.321V23.469C31.546 23.749 31.546 23.696 31.319 23.696H30.905C30.745 23.696 30.678 23.696 30.665 23.469V23.376A.08.08 0 0 0 30.585 23.309H30.212A.106.106 0 0 0 30.119 23.375V23.509A.307.307 0 0 1 29.837 23.696H29.373C29.253 23.696 29.2 23.616 29.226 23.496A1.162 1.162 0 0 1 29.226 23.318V23.322C29.439 22.816 29.639 22.31 29.839 21.79S30.119 21.11 30.252 20.763A.308.308 0 0 1 30.574 20.55H30.866Z" />
    <path fill="#f1db32" d="M30.76 21.813 30.533 22.346C30.531 22.364 30.531 22.386 30.531 22.406L30.535 22.469V22.465 22.545H30.668C30.761 22.545 30.761 22.545 30.761 22.438V21.918C30.761 21.744 30.828 21.878 30.761 21.81Z" />
    <path fill="#f1db32" d="M26.493 21.333V23.44A.457.457 0 0 1 26.493 23.576V23.574A.173.173 0 0 1 26.321 23.721H25.841C25.693 23.721 25.627 23.615 25.613 23.469S25.613 23.336 25.48 23.336H25.326A.147.147 0 0 0 25.186 23.442V23.444A.387.387 0 0 1 24.729 23.724H24.731 24.384C24.264 23.724 24.237 23.724 24.251 23.564A.457.457 0 0 1 24.251 23.427V23.43C24.424 23.003 24.611 22.577 24.771 22.097S25.118 21.23 25.291 20.764A.334.334 0 0 1 25.639 20.511H26.251C26.451 20.511 26.491 20.591 26.491 20.751S26.504 21.123 26.491 21.337Z" />
    <path fill="#f1db32" d="M25.707 21.853A.844.844 0 0 0 25.589 22.087L25.586 22.093A3.357 3.357 0 0 0 25.419 22.521L25.412 22.547V22.64H25.599C25.679 22.64 25.692 22.64 25.706 22.532A3.51 3.51 0 0 0 25.706 21.81V21.825Z" />
    <path fill="#f1db32" d="M17.333 23.68H17.173C17 23.68 16.933 23.613 16.96 23.427S16.96 23.094 17.053 22.92L17.146 22.453A.836.836 0 0 0 17.146 22.073V22.08C17.066 21.787 16.999 21.507 16.919 21.213L16.799 20.733C16.799 20.6 16.799 20.533 16.945 20.533H17.332A.28.28 0 0 1 17.598 20.758V20.76L17.69 21.107V21.2C17.69 21.213 17.69 21.2 17.757 21.133S17.929 20.88 18.009 20.746A.44.44 0 0 1 18.409 20.492H18.77C18.93 20.492 18.97 20.559 18.89 20.705L18.623 21.132 17.97 22.212A.468.468 0 0 0 17.97 22.389V22.385L17.797 23.345V23.438A.228.228 0 0 1 17.572 23.638H17.329Z" />
    <path fill="#f1db32" d="M34.667 23.693H34.494A.16.16 0 0 1 34.334 23.533.66 .66 0 0 1 34.334 23.37V23.373L34.601 21.906 34.775 20.893A1.642 1.642 0 0 1 34.775 20.743V20.747A.227.227 0 0 1 34.998 20.56H35A3.377 3.377 0 0 1 35.478 20.56H35.468C35.574 20.56 35.628 20.56 35.614 20.747S35.534 21.294 35.481 21.574L35.215 23.067C35.215 23.2 35.215 23.347 35.135 23.48A.226.226 0 0 1 34.909 23.695L34.881 23.693Z" />
    <path fill="#fff" d="M13.747 15.173v.06c0 .453-.063.89-.182 1.307l.008-.034c-.076.25-.17.466-.288.668l.008-.015c-.16.306-.31.56-.473.803l.02-.03a4.937 4.937 0 0 1-1.005 1.085l-.01.008a4.38 4.38 0 0 1-1.064.63l-.028.01a.203.203 0 0 1-.2 0 .575.575 0 0 1-.28-.55v.003a2.25 2.25 0 0 1 .26-.92l-.006.012c.133-.28.253-.547.373-.84.212-.507.44-1.013.652-1.52s.467-1.187.627-1.68l.106-.293a.756.756 0 0 0 0-.433v.005a.402.402 0 0 0 0-.163v.002a1.673 1.673 0 0 0-.618-.53l-.01-.003c-.173-.08-.333-.188-.507-.268a6.34 6.34 0 0 0-1.29-.393l-.042-.008-.84-.093h.133c.21-.087.453-.153.706-.186l.015-.002a5.968 5.968 0 0 1 .833 0h-.02.036c1.11 0 2.08.587 2.623 1.467l.008.012c.204.31.36.67.45 1.058l.004.022c.054.22.096.484.12.754v.02a1.066 1.066 0 0 1-.113.025l-.006.002z"></path>
    <path fill="#361910" d="M9.88 11.187a4.515 4.515 0 0 1 .885.002l-.02-.003c.213.027.402.07.585.126l-.024-.006c.28.1.51.2.732.31l-.04-.016c.345.164.64.37.895.615.217.218.414.458.588.715l.012.017c.044.07.085.148.117.23l.002.01c.1.206.204.462.293.725l.014.048c.034.116.067.26.09.408l.002.02a4.813 4.813 0 0 1 0 .572v-.014a4.704 4.704 0 0 1-.085 1.297l.005-.03a3.83 3.83 0 0 1-.25.758l.01-.023c-.14.33-.293.61-.466.875l.013-.02c-.22.345-.454.645-.71.923l.003-.004a5.298 5.298 0 0 1-1.057.855l-.023.013a3.738 3.738 0 0 1-.627.31l-.027.01c-.246.1-.53.156-.828.156s-.582-.057-.842-.162l.015.005a.828.828 0 0 1-.586-.883v.004c.023-.38.128-.73.3-1.04l-.007.014c.16-.32.293-.64.427-.973l.6-1.4c.187-.454.373-.894.533-1.334.067-.2.16-.387.213-.6a.384.384 0 0 0-.107-.36l-.134-.12a2.75 2.75 0 0 0-.86-.474l-.02-.006a3.522 3.522 0 0 0-.59-.157l-.023-.004a4.89 4.89 0 0 0-.682 0h.017-.542a.667.667 0 0 0-.63.45v.004c-.16.427-.334.84-.52 1.253s-.068 0-.108 0a1.142 1.142 0 0 1-.13-.22l-.004-.007a1.84 1.84 0 0 1-.16-.55v-.01a2.202 2.202 0 0 1 0-.3v.006c.004-.233.073-.45.19-.632l-.003.005c.216-.346.514-.623.868-.807l.012-.006a4.166 4.166 0 0 1 1.052-.382l.028-.005a5.172 5.172 0 0 1 1.037-.172h.017a5.026 5.026 0 0 1 .554-.014H9.88zm3.867 4a1.215 1.215 0 0 0 0-.286v.007a5.403 5.403 0 0 0-.127-.81l.007.036a3.325 3.325 0 0 0-.46-1.093l.007.013a3.084 3.084 0 0 0-2.632-1.48h-.037.002a5.13 5.13 0 0 0-.832.002h.02c-.27.034-.512.1-.74.193l.02-.007H8.84l.774.12c.506.098.953.236 1.377.418l-.043-.017c.173.08.333.174.507.268.255.126.466.307.623.528l.003.005a.402.402 0 0 1 0 .164v-.003a.756.756 0 0 1-.002.433v-.005l-.106.293c-.187.56-.427 1.094-.64 1.64s-.44 1.014-.653 1.52c-.12.28-.24.56-.374.84a2.212 2.212 0 0 0-.253.9v.008c-.002.016-.002.034-.002.053 0 .21.113.394.28.494h.004a.203.203 0 0 0 .2 0 4.41 4.41 0 0 0 1.102-.646l-.01.007A4.957 4.957 0 0 0 12.63 17.7l.01-.018c.144-.214.295-.467.432-.728l.022-.046c.11-.187.204-.404.274-.63l.006-.023c.155-.31.283-.67.367-1.048l.007-.032zm10.253.68c-.005.34-.114.654-.297.912l.003-.006a1.072 1.072 0 0 1-.62.465h-.007a.808.808 0 0 1-.776-.12h.002a.825.825 0 0 1-.293-.57v-.003a1.53 1.53 0 0 1 .453-1.253.983.983 0 0 1 .702-.293h.005a.69.69 0 0 1 .508.15v-.002a.815.815 0 0 1 .293.516v.004a.65.65 0 0 1 .027.187v.014-.002zm-4.133 5.96a.067.067 0 0 1 0 .067v.573c0 .187 0 .147-.147.147-.24 0-.213 0-.147-.213l.173-.44a.435.435 0 0 1 .12-.132zm10.893-.014v.693c0 .173 0 .093-.093.107h-.187s-.08 0 0-.08c-.002-.018-.002-.04-.002-.06l.003-.063v.003l.228-.533zm-5.053.014a3.56 3.56 0 0 1 0 .695v-.015c0 .08 0 .107-.107.107h-.187s-.067 0 0-.093c.055-.18.114-.33.182-.474l-.01.022a.866.866 0 0 1 .123-.243l-.002.003z"></path>
</svg>
