<svg xmlns="http://www.w3.org/2000/svg" width="38" height="24" fill="none" aria-labelledby="pi-dailyyamazaki" role="img" viewBox="0 0 38 24"><title id="pi-dailyyamazaki">Daily Yamazaki</title><path fill="#D3261F" d="M0 0h38v24H0z"/><path fill="#fff" d="M9.204 14.926c1.962 0 3.553-1.713 3.553-3.826s-1.591-3.827-3.553-3.827-3.55 1.714-3.55 3.827 1.588 3.826 3.55 3.826"/><path fill="#430307" d="M33.959 9.289c-.066-.116-.192-.182-.352-.182h-2.51a.88.88 0 0 0-.616.29.61.61 0 0 0-.508-.29h-2.01l.294-1.682a.5.5 0 0 0-.102-.392.48.48 0 0 0-.369-.167h-2.49a.6.6 0 0 0-.435.192 1.3 1.3 0 0 0-.702-.199l-.972-.005v.006c-.679.013-1.42.462-1.568 1.16a.99.99 0 0 0 .543 1.087l-4.272-.002a2.4 2.4 0 0 0-.547-.056c-.829 0-1.589.387-2.124 1.011a6 6 0 0 0-.076-.361 4.53 4.53 0 0 0-1.29-2.239c-.42-.383-1.097-.81-1.567-.997a5 5 0 0 0-1.106-.314 8.7 8.7 0 0 0-3.53-.007c-1.119.235-1.728.645-1.807.702-.022.019.023-.015 0 0a3.9 3.9 0 0 0-1.548 1.829c-.386.955-.3 1.577-.25 1.949.091.654.29 1.197.611 1.661.222.324.498.586.644.716-.23.544-.765 1.81-.795 2.016-.066.44 0 .733.244 1.083.293.425.85.788 1.649 1.078.318.116.72.181 1.154.206l-.004.002s.88.09 1.915-.011c.638-.044 1.255-.158 1.701-.318 1.129-.409 1.733-.886 2.19-1.343l.054.212-.136.765a.3.3 0 0 0 .06.243.3.3 0 0 0 .227.103c.24 0 .548.061.773-.02.237.08.555.018.8.018a.35.35 0 0 0 .183-.052.3.3 0 0 0 .173.052h3.5a.35.35 0 0 0 .18-.052.3.3 0 0 0 .17.052h3.003a.36.36 0 0 0 .18-.052q.075.051.17.052h1.407a.3.3 0 0 0 .13-.028q.061.027.13.029h1.39c.16 0 .304-.122.332-.281l.33-1.87a.3.3 0 0 0-.064-.242.29.29 0 0 0-.225-.102c-.478 0-.955.004-1.433.004a.4.4 0 0 0-.108.019.3.3 0 0 0-.106-.021h-.67a.34.34 0 0 0-.252.117.32.32 0 0 0-.245-.119h-.823a.4.4 0 0 0-.264.114c-.039-.078-.152-.113-.231-.113h-1.53a.35.35 0 0 0-.256.123.33.33 0 0 0-.252-.123h-.822a.38.38 0 0 0-.271.123.28.28 0 0 0-.237-.122h-.883c-.07 0-.115.024-.181.008v-.027a2 2 0 0 0 .47-.116.6.6 0 0 0 .172.024h8.327a.616.616 0 0 0 .593-.498l.389-2.233.398 1.542a.8.8 0 0 1-.072.506l-1.664 2.714c-.08.136-.091.28-.027.395.066.115.197.18.355.18h2.448a.87.87 0 0 0 .69-.386l4.295-6.966c.08-.137.091-.281.028-.395M9.253 14.162c-.07.036-.214-.14-.24-.194-.133-.217.013-.556.105-.758.326-.662.596-1.355.87-2.04.133-.328.298-.734.355-.943l-.002.008c.146-.382-.398-.707-.67-.829h.02c-.591-.268-1.257-.372-1.725-.411.132-.072.29-.136.484-.192.747-.158 1.185-.04 1.185-.04-.13-.04.28.081.341.109.274.124.397.19.576.352.458.417.691.987.757 1.594.147 1.375-.734 2.872-2.056 3.344m5.038.416a7 7 0 0 0 .467-.883c.33.493.814.772 1.446.826v.036a.3.3 0 0 0-.106-.018c-.587 0-1.249-.189-1.807.039m7.324 1.517h-.025l.05-.066zm-1.132-.619-.175.236-.012-.244a.2.2 0 0 0 .064.007z"/><path fill="#F5E829" d="M17.849 12.299c-.237.253-.746.372-.947.009-.188-.342-.063-.803.193-1.075.243-.26.733-.337.937.013.18.327.047.786-.183 1.053m3.055-2.662a.287.287 0 0 0-.29-.35h-1.548a.44.44 0 0 0-.414.35l-.036.198q-.314-.605-1.271-.606-1.05 0-1.825.774-.724.723-.913 1.799-.19 1.074.295 1.787.505.765 1.544.764c.667 0 1.223-.449 1.223-.449.026-.022.271-.187.271-.187s-.037.188-.046.248c-.026.157.11.285.304.285h1.545a.44.44 0 0 0 .415-.349zm3.32-1.58c-.128.626-.828 1.01-1.427 1.01-.56 0-1.133-.39-1.002-1.01.138-.631.822-1.02 1.432-1.02.56 0 1.128.404.997 1.02m-1.119 5.845a.435.435 0 0 1-.413.348h-1.59a.287.287 0 0 1-.293-.348l.744-4.265a.44.44 0 0 1 .417-.35h1.59c.194 0 .323.157.292.35zm9.599-4.614c.195 0 .27.136.17.302l-4.293 6.963a.7.7 0 0 1-.539.301h-1.544c-.194 0-.271-.136-.173-.302l1.663-2.713a.98.98 0 0 0 .093-.645l-.922-3.563c-.049-.19.07-.343.265-.343h1.646a.44.44 0 0 1 .416.35l.24 1.24.836-1.286a.7.7 0 0 1 .535-.304zM26.038 13.9a.436.436 0 0 1-.415.348h-1.588a.288.288 0 0 1-.295-.348l1.14-6.505a.436.436 0 0 1 .416-.347h1.587c.195 0 .327.157.292.347zm-15.82-7.58c-.398-.068-1.644-.188-2.533 0-1.387.29-2.67 1.048-3.223 2.42-.356.881-.293 1.447-.236 1.857.126.923.56 1.766 1.295 2.35 0 0-.804 1.876-.837 2.095-.158 1.071.91 1.65 1.776 1.965.948.343 2.745.236 3.74-.122 1.493-.54 2.037-1.199 2.573-1.78.983-1.06 1.466-2.599 1.466-4.028-.01-2.333-1.698-4.362-4.02-4.757Zm-.906 8.014c-.416.125-1.117.197-1.358-.278-.249-.415.128-.955.293-1.34.344-.826.79-1.671 1.02-2.537h.002c.047-.121-.03-.244-.12-.322l-.01-.01c-.501-.425-1.22-.513-1.627-.51l-.254.016a.41.41 0 0 0-.351.256l-.402.984a1.25 1.25 0 0 1-.252-.871c.032-.298.388-1.144 2.227-1.243.923-.048 1.885.17 2.478.921.099.126.171.244.259.411.806 1.678-.17 3.896-1.905 4.523m16.072 2.519c.074 0 .144-.06.157-.133l.33-1.868c.011-.074-.038-.134-.11-.134h-.31a.17.17 0 0 0-.157.134l-.33 1.868a.108.108 0 0 0 .111.133zm-10.625-2.13h-.309a.27.27 0 0 0-.206.123l-.244.41-.098-.41a.175.175 0 0 0-.165-.123h-.31c-.073 0-.118.055-.102.123l.267 1.069-.143.803a.11.11 0 0 0 .11.135h.31c.075 0 .144-.06.156-.135l.143-.8.65-1.072c.042-.068.017-.123-.06-.123Zm3.501-.004h-.522a.21.21 0 0 0-.181.131l-.283.754-.013-.754a.136.136 0 0 0-.136-.131h-.523a.17.17 0 0 0-.158.134l-.327 1.865a.107.107 0 0 0 .108.132h.31c.073 0 .144-.06.156-.132l.13-.737.015.738c.017.242.414.185.484 0l.274-.733-.128.731a.107.107 0 0 0 .11.133h.308a.17.17 0 0 0 .158-.133l.33-1.865a.11.11 0 0 0-.111-.133Zm6.555 2.009-.215-.975.499-.905c.036-.069.008-.125-.065-.125h-.346a.26.26 0 0 0-.2.126l-.398.762.132-.758c.012-.073-.037-.133-.11-.133h-.31a.17.17 0 0 0-.158.133l-.326 1.865c-.015.073.034.135.108.135h.31c.073 0 .144-.06.155-.135l.147-.832.164.84c.01.069.081.124.155.124h.352c.072.003.122-.053.106-.122m-3.077-1.875c.014-.073-.035-.134-.107-.134h-1.17a.17.17 0 0 0-.157.134l-.055.31a.108.108 0 0 0 .11.132h.486l-.772 1.03a.2.2 0 0 0-.044.085l-.055.31c-.012.073.038.133.11.133h1.168a.16.16 0 0 0 .155-.133l.054-.31c.014-.072-.033-.134-.106-.134h-.49l.775-1.033c.025-.02.04-.05.043-.082zm-5.782 1.868-.08-1.872a.14.14 0 0 0-.138-.13h-.462a.22.22 0 0 0-.186.13l-.736 1.872c-.028.071.007.13.08.13h.34a.21.21 0 0 0 .183-.13l.053-.137h.336l.004.137c.001.071.062.13.137.13h.339a.127.127 0 0 0 .13-.13m-.815-.604.224-.585.015.585zm4.669.604-.08-1.872a.14.14 0 0 0-.14-.13h-.46a.22.22 0 0 0-.185.13l-.737 1.872c-.03.071.007.13.081.13h.338a.21.21 0 0 0 .184-.13l.052-.137h.338l.002.137c.003.071.064.13.138.13h.34a.13.13 0 0 0 .13-.13Zm-.817-.604.225-.585.018.585zm4.17.604-.082-1.872a.14.14 0 0 0-.138-.13h-.462a.22.22 0 0 0-.184.13l-.737 1.872c-.03.071.008.13.08.13h.34a.22.22 0 0 0 .182-.13l.053-.137h.337l.003.137c.002.071.064.13.137.13h.34a.13.13 0 0 0 .13-.13Zm-.816-.604.224-.585.016.585z"/></svg>