<svg xmlns="http://www.w3.org/2000/svg" width="38" height="24" fill="none" aria-labelledby="pi-dana" role="img" viewBox="0 0 38 24"><title id="pi-dana">Dana</title><path fill="#fff" d="M0 0h38v24H0z"/><path fill="#008EF0" d="M10.314 12.313c.101-2.759 1.298-4.915 3.741-6.502a8.7 8.7 0 0 1 3.59-1.307q.871-.12 1.75-.089c1.663.067 3.187.514 4.548 1.374 1.587 1.005 2.682 2.324 3.3 3.966.201.514.34 1.05.378 1.597.025.369.076.749.063 1.117a7.14 7.14 0 0 1-1.134 3.654c-.819 1.284-1.965 2.29-3.413 3.005a9.3 9.3 0 0 1-2.708.837c-.63.09-1.273.145-1.902.101a9.2 9.2 0 0 1-2.456-.47c-2.154-.726-3.742-2.01-4.787-3.82a6.7 6.7 0 0 1-.819-2.29c-.088-.413-.114-.826-.151-1.173m13.767 2.167v-4.435c0-.011 0-.022-.012-.033-.013-.146-.114-.246-.24-.324-.755-.47-1.587-.626-2.494-.48-.465.078-.92.2-1.373.335-.843.256-1.675.536-2.518.793a4.5 4.5 0 0 1-1.764.178 3.6 3.6 0 0 1-1.473-.502c-.19-.112-.215-.101-.277.1v4.323c0 .023.012.045.012.067.05.09.076.213.164.269a3.43 3.43 0 0 0 1.662.525c.756.044 1.487-.09 2.192-.302.868-.256 1.75-.525 2.633-.76.717-.19 1.46-.234 2.191-.067.365.09.718.258 1.07.392.089.033.177.1.215-.045 0-.012 0-.022.012-.034"/></svg>