<svg role="img" width="38" height="24" viewBox="0 0 38 24" aria-labelledby="pi-dana" xmlns="http://www.w3.org/2000/svg"><title id="pi-dana">Dana</title><path d="M35 0H3a3 3 0 00-3 3v18a3 3 0 003 3h32a3 3 0 003-3V3a3 3 0 00-3-3z" opacity=".07" style="isolation:isolate"/><path d="M35 1a2 2 0 012 2v18a2 2 0 01-2 2H3a2 2 0 01-2-2V3a2 2 0 012-2h32" fill="#fff"/><path fill="#fff" d="M0 0h38v24H0z"/><g clip-path="url(#pi-dana-clip0)" fill="#108DE8"><path d="M25.32 12.566V11.33c0-.96.651-1.76 1.589-1.965 1.085-.24 2.205.537 2.365 1.645.023.126.023.24.023.366v2.549c0 .091-.023.114-.114.114a8.835 8.835 0 00-.777 0c-.092 0-.115-.023-.115-.114v-2.572a1 1 0 00-.994-1.017c-.537 0-.971.446-.983.994v2.583c0 .092-.023.115-.114.115-.263 0-.514-.012-.777 0-.092 0-.103-.023-.103-.115v-1.348zM11.651 9.503c-1.211-2.4-4.228-3.234-6.491-1.794-2.103 1.325-2.789 4.148-1.531 6.308 1.005 1.749 3.017 2.64 4.925 2.217a4.673 4.673 0 003.623-4.56 4.821 4.821 0 00-.526-2.171zm-1.394 2.183v1.257c0 .16-.023.171-.148.091-.538-.32-1.12-.32-1.703-.16-.503.137-.995.343-1.497.492-.469.137-.949.205-1.44.057-.149-.046-.275-.114-.412-.183a.264.264 0 01-.148-.251v-.229-2.091c0-.08 0-.172.011-.252 0-.103.034-.126.126-.057.285.194.605.309.96.309.4.011.777-.103 1.143-.24.48-.172.948-.378 1.44-.503.525-.137 1.028-.092 1.497.217.114.08.171.171.171.32v1.223zM35 11.331c0-.205-.034-.411-.091-.605-.298-.915-1.189-1.509-2.103-1.395-.972.126-1.714.892-1.772 1.852-.022.446 0 .903 0 1.36h-.011v1.394c0 .08.023.114.114.114.263-.011.526 0 .789 0 .08 0 .103-.022.103-.102v-.812c0-.08.022-.103.102-.103h1.795c.068 0 .091.023.091.092v.811c0 .08.012.114.103.114.263-.011.526-.011.789 0 .091 0 .102-.022.102-.114C35 13.07 35 12.2 35 11.331zm-1.097.686H32.12c-.091 0-.114-.023-.114-.114.011-.217-.012-.434.011-.652a.982.982 0 011.006-.914c.503.012.926.423.96.949.011.217 0 .434.011.651.012.08-.034.08-.091.08zM23.583 12.566v-1.223c0-.103-.011-.206-.023-.309-.148-1.04-1.04-1.76-2.114-1.714-.972.046-1.817.903-1.84 1.92-.023.903 0 1.806-.012 2.72 0 .069.023.08.092.08h.823c.068 0 .091-.023.091-.091v-.823c0-.069.023-.103.091-.103h1.783c.08 0 .103.034.103.103v.811c0 .08.023.103.103.103h.8c.08 0 .103-.023.103-.103v-1.371zm-1.086-.549h-1.783c-.08 0-.102-.023-.102-.103.01-.263-.023-.525.022-.788a.993.993 0 011.075-.777c.468.045.857.457.88.937.011.217 0 .423 0 .64 0 .068-.023.091-.092.091zM15.572 9.32h-1.555c-.103 0-.114.034-.114.126v4.491c0 .092.023.114.114.103h1.577c.138 0 .263-.011.389-.034 1.074-.217 1.806-1.052 1.897-2.16.103-1.349-.971-2.515-2.308-2.526zm1.302 2.56a1.335 1.335 0 01-1.291 1.143h-.594c-.069 0-.092-.023-.092-.092v-1.257-1.223c0-.102.034-.125.126-.114.297.023.594-.034.891.046.64.183 1.052.811.96 1.497z"/></g><defs><clipPath id="pi-dana-clip0"><path fill="#fff" transform="translate(3 7)" d="M0 0h32v9.337H0z"/></clipPath></defs></svg>