<svg xmlns="http://www.w3.org/2000/svg" width="38" height="24" fill="none" aria-labelledby="pi-dankort" role="img" viewBox="0 0 38 24"><title id="pi-dankort">Dankort</title><path fill="#fff" d="M0 0h38v24H0z"/><path fill="#E31F28" fill-rule="evenodd" d="M18.309 15.378q1.478-.967 1.907-2.991l3.145 3.968h6.028a6.86 6.86 0 0 1-2.394 1.918 6.76 6.76 0 0 1-3.086.727H12.566a6.8 6.8 0 0 1-3.086-.728 6.8 6.8 0 0 1-2.395-1.931h7.089q2.67.002 4.135-.963m-3.062-4.623q.38.345.202 1.013-.226.775-.571 1.084-.417.37-1.264.37H9.552l1.001-2.765h3.67q.68 0 1.024.298m11.651-5.088a6.9 6.9 0 0 1 2.337 1.799h-5.899l-2.979 3.086q-.155-1.68-1.607-2.443-1.251-.644-3.551-.644H7.24A7 7 0 0 1 12.566 5h11.343q1.573 0 2.989.667m-.999 5.814 3.644-3.634a7 7 0 0 1 1.014 1.931q.358 1.073.357 2.228 0 1.085-.32 2.108a7 7 0 0 1-.919 1.858z" clip-rule="evenodd"/></svg>