<?xml version="1.0" encoding="utf-8"?>
<!-- Generator: Adobe Illustrator 16.0.0, SVG Export Plug-In . SVG Version: 6.00 Build 0)  -->
<!DOCTYPE svg PUBLIC "-//W3C//DTD SVG 1.1//EN" "http://www.w3.org/Graphics/SVG/1.1/DTD/svg11.dtd">
<svg version="1.1" xmlns="http://www.w3.org/2000/svg" xmlns:xlink="http://www.w3.org/1999/xlink" x="0px" y="0px" width="38px"
	 height="24px" viewBox="0 0 38 24" enable-background="new 0 0 38 24" xml:space="preserve" aria-labelledby="pi-dankort" role="img">
	   <title id="pi-dankort">Dankort</title>
<g id="pi-dankort-Layer_3">
	<g>
		<g>
			<path fill-rule="evenodd" clip-rule="evenodd" fill="#FFFFFF" d="M0.25,16.094V3.175c0-0.05,0-0.099,0-0.146
				c0-1.852,0.906-2.779,2.719-2.779h31.195c1.766,0.036,2.648,0.962,2.648,2.779v12.967c0,1.853-0.921,2.778-2.767,2.778H2.969
				C1.19,18.774,0.284,17.881,0.25,16.094z"/>
			
				<path fill-rule="evenodd" clip-rule="evenodd" fill="none" stroke="#CECECE" stroke-linecap="round" stroke-linejoin="round" stroke-miterlimit="3" d="
				M34.164,0.25H2.969c-1.813,0-2.719,0.927-2.719,2.779c0,0.048,0,0.097,0,0.146v12.918v0.731c0,1.949,0.922,2.925,2.766,2.925
				h31.875c1.906,0,2.859-0.976,2.859-2.925V3.175c0-1.95-0.953-2.925-2.859-2.925H34.164z"/>
		</g>
	</g>
</g>
<g id="pi-dankort-Layer_1">
	<g>
		<path fill-rule="evenodd" clip-rule="evenodd" fill="#E31F28" d="M15.786,8.936c0.218,0.196,0.275,0.485,0.172,0.868
			c-0.126,0.441-0.289,0.75-0.491,0.925c-0.234,0.213-0.595,0.319-1.08,0.319h-3.476l0.858-2.374h3.141
			C15.298,8.674,15.59,8.761,15.786,8.936z M25.846,15.378C25.018,15.793,24.137,16,23.205,16h-9.718
			c-0.933,0-1.813-0.207-2.642-0.622c-0.808-0.393-1.489-0.944-2.045-1.653h6.069c1.521,0,2.701-0.275,3.541-0.827
			c0.841-0.551,1.382-1.405,1.628-2.562l2.691,3.396h5.16C27.336,14.437,26.654,14.985,25.846,15.378z M23.205,4
			c0.895,0,1.744,0.191,2.551,0.573c0.781,0.366,1.449,0.879,2.004,1.539h-5.055l-2.543,2.644c-0.088-0.955-0.545-1.651-1.374-2.087
			c-0.715-0.371-1.729-0.557-3.043-0.557H8.932c0.562-0.66,1.232-1.173,2.012-1.539C11.745,4.191,12.593,4,13.487,4H23.205z
			 M28.889,8.093c0.207,0.617,0.311,1.252,0.311,1.907c0,0.622-0.092,1.228-0.277,1.817c-0.186,0.567-0.447,1.097-0.785,1.588
			l-3.23-3.847l3.115-3.119C28.398,6.941,28.688,7.493,28.889,8.093z"/>
	</g>
</g>
</svg>

