<?xml version="1.0" encoding="UTF-8" standalone="no"?>
<svg
   xmlns:dc="http://purl.org/dc/elements/1.1/"
   xmlns:cc="http://creativecommons.org/ns#"
   xmlns:rdf="http://www.w3.org/1999/02/22-rdf-syntax-ns#"
   xmlns:svg="http://www.w3.org/2000/svg"
   xmlns="http://www.w3.org/2000/svg"
   xmlns:sodipodi="http://sodipodi.sourceforge.net/DTD/sodipodi-0.dtd"
   xmlns:inkscape="http://www.inkscape.org/namespaces/inkscape"
   version="1.0"
   xml:space="preserve"
   viewBox="0 0 60.705 38.339938"
   width="38"
   height="24"
   id="svg2"
   inkscape:version="0.91+devel r14880"
   sodipodi:docname="danske_bank.svg"><metadata
     id="metadata40"><rdf:RDF><cc:Work
         rdf:about=""><dc:format>image/svg+xml</dc:format><dc:type
           rdf:resource="http://purl.org/dc/dcmitype/StillImage" /><dc:title>Danske Bank</dc:title></cc:Work></rdf:RDF></metadata><defs
     id="defs38" /><sodipodi:namedview
     pagecolor="#ffffff"
     bordercolor="#666666"
     borderopacity="1"
     objecttolerance="10"
     gridtolerance="10"
     guidetolerance="10"
     inkscape:pageopacity="0"
     inkscape:pageshadow="2"
     inkscape:window-width="1246"
     inkscape:window-height="791"
     id="namedview36"
     showgrid="false"
     inkscape:zoom="9.312"
     inkscape:cx="19.686001"
     inkscape:cy="21.152921"
     inkscape:window-x="481"
     inkscape:window-y="52"
     inkscape:window-maximized="0"
     inkscape:current-layer="svg2"
     inkscape:pagecheckerboard="true" /><title
     id="title4">Danske Bank</title><rect
     style="fill:#ffffff;fill-opacity:1;stroke:none;stroke-width:0.84915912;stroke-miterlimit:4;stroke-dasharray:none;stroke-opacity:1"
     id="rect18734"
     width="60.705002"
     height="38.34"
     x="-2.220446e-016"
     y="-3.1080246e-005" /><g
     id="g18769"
     transform="matrix(2.2500386,0,0,2.2500386,-20.543185,-28.021289)"><path
       style="fill:#03426a;fill-opacity:1;fill-rule:nonzero;stroke-width:0.54951566"
       inkscape:connector-curvature="0"
       id="path16"
       d="m 13.133424,20.678742 c 0,0.901206 -0.483574,1.346314 -1.56612,1.346314 H 9.8638057 V 18.65103 h 1.6485473 c 1.307847,0 1.621071,0.637438 1.621071,1.335323 z m 0.697885,-0.02747 V 20.07428 c 0,-1.840877 -1.450722,-1.912314 -2.423364,-1.912314 H 9.1604257 v 4.363154 h 2.4398493 c 1.91781,0 2.231034,-1.038585 2.231034,-1.873848" /><path
       style="fill:#03426a;fill-opacity:1;fill-rule:nonzero;stroke-width:0.54951566"
       inkscape:connector-curvature="0"
       id="path18"
       d="m 17.633957,21.448064 c 0,0.252777 -0.02198,0.483574 -0.313224,0.587982 -0.17035,0.06594 -0.412137,0.08792 -0.818778,0.08792 -0.406642,0 -0.648429,-0.03847 -0.791303,-0.131883 -0.09891,-0.06045 -0.137379,-0.15936 -0.137379,-0.368176 0,-0.263767 0.06594,-0.412137 0.192331,-0.472583 0.126389,-0.06045 0.285748,-0.07144 0.780312,-0.07144 h 1.088041 z m 0.659419,1.077051 v -1.714489 c 0,-0.324214 0,-0.549516 -0.02748,-0.71437 -0.03297,-0.17035 -0.08792,-0.291244 -0.225301,-0.395652 -0.318719,-0.247282 -1.099032,-0.252777 -1.483693,-0.252777 -0.291243,0 -1.082545,0.03297 -1.373789,0.280253 -0.09891,0.08243 -0.120893,0.18134 -0.120893,0.302234 0,0.07693 0.01099,0.18134 0.01648,0.318719 h 0.642934 c 0.01099,-0.07693 0.02747,-0.263768 0.09891,-0.3407 0.08792,-0.08243 0.236292,-0.115398 0.675905,-0.115398 0.505554,0 0.857244,0.01648 1.005613,0.09891 0.137379,0.07693 0.131884,0.241787 0.131884,0.368175 v 0.296739 h -1.483692 c -0.401147,0 -0.86274,0.01099 -1.115517,0.357185 -0.115398,0.148369 -0.164855,0.3407 -0.164855,0.587982 0,0.72536 0.445108,0.967147 1.588101,0.967147 0.593477,0 0.983633,-0.09342 1.219924,-0.296738 l 0.06045,0.252777 h 0.555011" /><path
       style="fill:#03426a;fill-opacity:1;fill-rule:nonzero;stroke-width:0.54951566"
       inkscape:connector-curvature="0"
       id="path20"
       d="m 22.271869,22.525115 v -1.670528 c 0,-0.576991 -0.02747,-0.697885 -0.164854,-0.802293 -0.131884,-0.09891 -0.395652,-0.159359 -0.796798,-0.159359 -0.35169,0 -0.71437,0.04396 -1.05507,0.137379 v 2.494801 h -0.653924 v -3.055307 h 0.587982 l 0.04396,0.219806 c 0.131884,-0.07144 0.230797,-0.126388 0.368176,-0.164855 0.219806,-0.06594 0.494564,-0.09891 0.862739,-0.09891 0.417632,0 0.741846,0.06594 0.989128,0.175845 0.241787,0.104408 0.373671,0.302233 0.423128,0.53303 0.03297,0.159359 0.04946,0.296738 0.04946,0.642933 v 1.74746 h -0.653924" /><path
       style="fill:#03426a;fill-opacity:1;fill-rule:nonzero;stroke-width:0.54951566"
       inkscape:connector-curvature="0"
       id="path22"
       d="m 27.124093,22.33828 c -0.302234,0.153864 -0.796798,0.219806 -1.439731,0.219806 -0.445108,0 -0.813284,-0.03297 -1.099032,-0.109903 -0.307729,-0.07144 -0.461593,-0.214311 -0.478078,-0.478079 -0.01099,-0.137379 0,-0.258272 0.01648,-0.423127 h 0.631943 c 0.02198,0.153864 0.02198,0.203321 0.02748,0.236292 0.02198,0.142874 0.01099,0.219806 0.18134,0.274758 0.164855,0.04946 0.428622,0.07144 0.763827,0.07144 0.417632,0 0.708875,-0.04396 0.901206,-0.131884 0.137378,-0.06045 0.20332,-0.17035 0.20332,-0.379166 0,-0.241787 -0.04946,-0.3407 -0.302233,-0.379166 -0.07693,-0.01648 -0.153865,-0.01648 -0.236292,-0.02198 -0.04396,-0.0055 -0.186835,-0.0055 -0.417632,-0.01099 -0.109903,0 -0.236292,-0.01099 -0.384661,-0.01648 -0.653924,-0.03297 -1.346313,-0.06045 -1.346313,-0.824274 0,-0.692389 0.423127,-0.934176 1.5881,-0.934176 0.296738,0 0.659419,0.02198 0.879225,0.04946 0.252777,0.03297 0.445108,0.07693 0.582487,0.153865 0.153864,0.08792 0.20332,0.225301 0.20332,0.467088 0,0.06594 0,0.131884 -0.01099,0.236292 h -0.637438 l -0.02748,-0.137379 c -0.03297,-0.164855 -0.04396,-0.197826 -0.09891,-0.236292 -0.09342,-0.07144 -0.37367,-0.104408 -0.769322,-0.104408 -0.395651,0 -0.620952,0.01648 -0.802292,0.08243 -0.17035,0.06045 -0.247282,0.17035 -0.247282,0.390156 0,0.14837 0.05495,0.258273 0.126388,0.307729 0.17035,0.104408 1.071556,0.09342 1.379284,0.09891 0.32971,0.0055 0.544021,0.03297 0.730856,0.09891 0.335205,0.115398 0.467089,0.335204 0.467089,0.780312 0,0.357185 -0.115399,0.582487 -0.384661,0.719866" /><path
       style="fill:#03426a;fill-opacity:1;fill-rule:nonzero;stroke-width:0.54951566"
       inkscape:connector-curvature="0"
       id="path24"
       d="m 31.157538,22.525115 -1.57711,-1.445226 h -0.230797 v 1.445226 h -0.659419 v -4.363154 h 0.659419 v 2.48381 h 0.230797 l 1.307847,-1.175963 h 0.769322 l -1.522159,1.346313 1.895829,1.708994 h -0.873729" /><path
       style="fill:#03426a;fill-opacity:1;fill-rule:nonzero;stroke-width:0.54951566"
       inkscape:connector-curvature="0"
       id="path26"
       d="m 35.2844,20.700723 h -2.104645 c 0.02198,-0.384661 0.104408,-0.555011 0.252777,-0.664914 0.153865,-0.109903 0.434118,-0.164855 0.846254,-0.164855 0.571497,0 0.840759,0.126389 0.939672,0.390156 0.03847,0.109904 0.06594,0.214311 0.06594,0.439613 z m 0.604467,0.868235 h -0.648428 c -0.02198,0.09342 -0.03297,0.329709 -0.120894,0.417632 -0.09891,0.09891 -0.296738,0.142874 -0.824273,0.142874 -0.52204,0 -0.807788,-0.07144 -0.956157,-0.219807 -0.109903,-0.109903 -0.175845,-0.340699 -0.175845,-0.697885 v -0.08243 h 2.742083 c 0.0055,-0.148369 0.01649,-0.186835 0.01649,-0.307729 0,-0.505554 -0.07144,-0.785807 -0.291243,-1.000118 -0.247282,-0.258272 -0.725361,-0.384661 -1.384779,-0.384661 -0.840759,0 -1.357304,0.19233 -1.571615,0.615457 -0.126389,0.241787 -0.197826,0.582487 -0.197826,1.005614 0,0.664914 0.175845,1.082546 0.566001,1.291362 0.241787,0.131884 0.659419,0.208816 1.192449,0.214311 0.445108,0 0.802293,-0.02198 1.192449,-0.137379 0.379166,-0.120893 0.472584,-0.335204 0.472584,-0.516545 0,-0.04396 0,-0.19233 -0.01099,-0.340699" /></g></svg>