<svg xmlns="http://www.w3.org/2000/svg" role="img" viewBox="0 0 38 24" width="38" height="24" aria-labelledby="pi-dappmx"><title id="pi-dappmx">dappmx</title><path fill="#000" opacity=".07" d="M35 0H3C1.3 0 0 1.3 0 3v18c0 1.7 1.4 3 3 3h32c1.7 0 3-1.3 3-3V3c0-1.7-1.4-3-3-3z"/><path fill="#FFF" d="M2.7.7h32.6c1.1 0 1.9.8 1.9 1.9v18.8c0 1-.9 1.9-1.9 1.9H2.7c-1.1 0-1.9-.8-1.9-1.9V2.5c0-1 .8-1.8 1.9-1.8z"/><g><path fill="#004B97" d="M5.3 14.5c-.5 0-1.6-.5-1.6-2.4s.9-2.4 1.6-2.4c.5 0 1.7.1 1.8 2.1v.5c0 2.2-1.3 2.1-1.8 2.2m3.5-9l-1.3.1c-.2 0-.4.1-.4.4v3.2c-.6-.7-1.5-1-2.4-1-.4-.1-3.1.4-3.1 3.7s2.3 4 3.2 4 1.8-.4 2.5-1v.5c0 .2.2.4.4.4h1.1c.2 0 .4-.2.4-.4V6c-.1-.3-.3-.5-.4-.5M22.2 14.4c-.6 0-1.8-.1-1.8-2.5 0-2.3 1.4-2.3 1.8-2.3.5 0 1.6.5 1.6 2.4 0 1.7-.9 2.4-1.6 2.4m.5-6.3c-.9 0-1.8.4-2.5 1.1v-.5c0-.2-.2-.4-.4-.4h-1.1c-.2 0-.4.2-.4.4v9.4c0 .2.2.4.4.4h1.2c.2 0 .4-.2.4-.4l-.1-3.2c.6.6 1.5 1 2.4.9.4 0 3.2-.4 3.1-3.8.2-3.2-2.1-3.9-3-3.9M30.5 14.3c-.6 0-1.8-.1-1.8-2.5 0-2.3 1.4-2.3 1.8-2.3.5 0 1.6.5 1.6 2.4.2 1.8-.8 2.4-1.6 2.4m.6-6.2c-.9 0-1.8.4-2.5 1.1v-.5c0-.2-.2-.4-.4-.4h-1.1c-.2 0-.4.2-.4.4v9.4c0 .2.2.4.4.4h1.2c.2 0 .4-.2.4-.4l-.1-3.2c.6.6 1.5 1 2.4.9.4 0 3.2-.4 3.1-3.8.1-3.2-2.1-3.9-3-3.9M13.7 14.4c-.5 0-1.6-.5-1.6-2.4s.9-2.4 1.6-2.4c.5 0 1.7.1 1.8 2v1c-.2 1.8-1.3 1.8-1.8 1.8m3.4-6.1H16c-.2 0-.4.2-.4.4v.5c-.6-.6-1.6-1-2.5-1-.4 0-3.2.4-3.1 3.8 0 3.3 2.3 4 3.2 4 .8 0 1.7-.4 2.3-.9v.5c0 .2.2.4.4.4h1.2c.2 0 .4-.2.4-.4V8.8c-.1-.3-.1-.5-.4-.5"/><path fill="#00CF7F" d="M34.7 8.2c-.9 0-1.6.7-1.6 1.7 0 .9.7 1.6 1.7 1.6.9 0 1.6-.7 1.6-1.7 0-.8-.8-1.6-1.7-1.6m.1 2.5v.1s0 .1-.1.1c0 0-.1 0-.1-.1v-.1c-.2 0-.5-.2-.5-.5 0-.1 0-.1.2-.1.1 0 .1 0 .1.1s.2.3.3.2c.3 0 .3-.2.3-.2 0-.3-.9-.1-.9-.7 0-.4.2-.4.5-.5v-.1s0-.1.1-.1c0 0 .1 0 .1.1V9c.2 0 .5.1.5.4 0 0-.1.1-.2.1s-.1-.1-.1-.1c0-.1-.2-.2-.3-.2s-.2.1-.2.2c0 .2.7.2.8.7 0 .4-.2.5-.5.6"/></g></svg>