<svg version="1.1" id="Capa_1" xmlns="http://www.w3.org/2000/svg" x="0" y="0" viewBox="0 0 38 24" width="38" height="24" role="img" aria-labelledby="pi-dappmx" xml:space="preserve"><title id="pi-dappmx">dappmx</title><style type="text/css"></style><path fill="#fff" d="M0 0h38v24H0z"/><path d="M4 14.7c-.6 0-1.8-.6-1.8-2.6s1-2.6 1.8-2.6c.6 0 1.9.1 2 2.3v.5c0 2.4-1.4 2.3-2 2.4m3.8-9.8L6.4 5c-.2 0-.4.1-.4.4v3.5c-.7-.7-1.6-1-2.6-1-.4-.1-3.4.4-3.4 4s2.5 4.4 3.5 4.4 2-.4 2.7-1.1v.5c0 .2.2.4.4.4h1.2c.2 0 .4-.2.4-.4V5.4c0-.3-.2-.5-.4-.5M22.5 14.6c-.7 0-2-.1-2-2.7 0-2.5 1.5-2.5 2-2.5.6 0 1.8.6 1.8 2.6 0 1.9-1 2.6-1.8 2.6m.5-6.9c-1 0-2 .4-2.7 1.2v-.5c0-.2-.2-.4-.4-.4h-1.2c-.2 0-.4.2-.4.4v10.3c0 .2.2.4.4.4H20c.2 0 .4-.2.4-.4l-.1-3.5c.7.7 1.6 1.1 2.6 1 .4 0 3.5-.4 3.4-4.1.2-3.6-2.3-4.4-3.3-4.4M31.6 14.5c-.7 0-2-.1-2-2.7 0-2.5 1.5-2.5 2-2.5.6 0 1.8.6 1.8 2.6.1 2-1 2.6-1.8 2.6m.6-6.8c-1 0-2 .4-2.7 1.2v-.5c0-.2-.2-.4-.4-.4h-1.2c-.2 0-.4.2-.4.4v10.3c0 .2.2.4.4.4h1.3c.2 0 .4-.2.4-.4l-.1-3.5c.7.7 1.6 1.1 2.6 1 .4 0 3.5-.4 3.4-4.1.1-3.6-2.3-4.4-3.3-4.4M13.2 14.6c-.6 0-1.8-.6-1.8-2.6s1-2.6 1.8-2.6c.6 0 1.9.1 2 2.2v1.1c-.2 1.9-1.5 1.9-2 1.9M16.9 8h-1.2c-.2 0-.4.2-.4.4v.5c-.7-.7-1.7-1.1-2.7-1.1-.4 0-3.5.4-3.4 4.1 0 3.6 2.5 4.4 3.5 4.4.9 0 1.9-.4 2.5-1v.5c0 .2.2.4.4.4h1.3c.2 0 .4-.2.4-.4V8.5c0-.3-.1-.5-.4-.5" fill="#004b97"/><path d="M36.2 7.9c-1 0-1.8.8-1.8 1.8s.8 1.8 1.8 1.8 1.8-.8 1.8-1.8-.8-1.8-1.8-1.8m.1 2.7v.1s0 .1-.1.1-.1 0-.1-.1v-.1c-.3 0-.6-.2-.6-.5 0-.1 0-.1.2-.1.1 0 .1 0 .2.1 0 .1.1.3.3.3.3 0 .3-.2.3-.2 0-.3-1-.1-1-.8 0-.4.4-.5.6-.5v-.1s0-.1.1-.1c0 0 .1 0 .1.1v.1c.2 0 .5.1.5.5 0 .1-.1.1-.2.1 0 0-.2 0-.2-.1s-.1-.2-.3-.2c-.2 0-.3.1-.3.2 0 .3 1 .1 1 .7.1.4-.3.5-.5.5" fill="#00cf7f"/></svg>