<svg xmlns="http://www.w3.org/2000/svg" width="38" height="24" fill="none" aria-labelledby="pi-daviplata" role="img" viewBox="0 0 38 24"><title id="pi-daviplata">DaviPlata</title><path fill="#fff" d="M0 0h38v24H0z"/><path fill="#2C2A29" stroke="#000" stroke-opacity=".01" stroke-width=".1" d="m19.67 12.25-.02-.78h.39l.02.41a.93.93 0 0 1 .85-.46c.58 0 1.01.48 1.01 1.2 0 .86-.52 1.29-1.08 1.29a.83.83 0 0 1-.73-.38h-.01v1.3h-.43zm.43.63a.66.66 0 0 0 .67.68c.45 0 .72-.37.72-.91 0-.48-.25-.89-.71-.89a.69.69 0 0 0-.65.54.7.7 0 0 0-.03.17zm2.36-2.52h.44v3.49h-.43v-3.49Zm2.48 3.49-.03-.3h-.02a.89.89 0 0 1-.73.35c-.48 0-.72-.33-.72-.68 0-.57.5-.89 1.43-.88v-.05c0-.2-.06-.55-.54-.55-.22 0-.46.06-.62.17l-.1-.28c.2-.13.48-.21.78-.21.73 0 .9.5.9.97v.89c0 .2.01.4.04.57zm-.06-1.21c-.47-.01-1 .07-1 .53 0 .28.18.42.4.42a.6.6 0 0 0 .57-.4l.03-.14zm1.62-1.85v.68h.61v.33h-.61v1.28c0 .3.08.47.32.47.08 0 .17-.01.25-.03l.02.32a.9.9 0 0 1-.38.06.6.6 0 0 1-.47-.18c-.12-.13-.17-.34-.17-.62v-1.3h-.37v-.33h.37v-.57zm2.42 3.06-.04-.3h-.01a.89.89 0 0 1-.73.35c-.48 0-.73-.34-.73-.68 0-.58.52-.89 1.43-.88v-.05c0-.2-.05-.55-.54-.55-.22 0-.45.06-.62.17l-.1-.28c.2-.13.49-.21.79-.21.72 0 .9.5.9.97v.89c0 .2.01.4.04.57h-.4Zm-.07-1.21c-.47-.01-1 .07-1 .53 0 .28.18.42.4.42a.59.59 0 0 0 .58-.4l.03-.14v-.41Zm-16.93-2.06c-.86-.03-1.98 2.21-2.27 2.95-.17.42.35.71.51.3.28-.69 1.21-2.61 1.76-2.6.55 0 1.45 1.93 1.71 2.62.16.42.68.12.52-.3-.29-.74-1.37-2.99-2.23-2.97ZM9.6 12.2a1.5 1.5 0 0 0-.27-.7l-.03-.03-.13-.15-.01-.02c-.9-.9-2.88-.8-3.44-.56-.38.16-.25.63.16.45a4 4 0 0 1 2 0c.56.13 1.13.61 1.13 1.13-.04 1.28-1.73 1.33-2.42 1.16v-1.6c0-.37-.5-.38-.5 0v1.6c0 .33.17.45.4.5.51.11 2.68.24 3.07-1.3l.02-.09.01-.08a1 1 0 0 0 .01-.3zm9.1-1.27c0-.45-.55-.45-.55-.01v2.8c0 .42.56.43.56.01v-2.8Zm-1.39-.17c-.24.7-1.08 2.63-1.59 2.64-.5 0-1.37-1.92-1.62-2.6-.16-.42-.63-.12-.47.3.27.74 1.31 2.97 2.1 2.94.8.01 1.8-2.24 2.06-2.99.14-.41-.33-.7-.48-.29Z"/><path fill="#2C2A29" stroke="#000" stroke-opacity=".01" stroke-width=".1" d="M31.63 9.26a30 30 0 0 0-1.39-1.08c.03-.34.09-.67.17-1 .09-.36.16-.66 0-.88-.11-.14-.31-.2-.62-.2h-1.15c-.26 0-.45.07-.57.22a.6.6 0 0 0-.1.43 7.7 7.7 0 0 0-2.9-1.08c-.65 0-1.84.46-3.2 1.23a22.7 22.7 0 0 0-3.38 2.35 3.4 3.4 0 0 0-.59.63.14.14 0 0 0 .07.16c.02.02.04.02.07.02a.14.14 0 0 0 .1-.05l.08-.1q.18-.21.45-.45c.5-.42 1.43-1.09 1.44-1.1.56-.43 1.72-1.1 1.9-1.21 1.32-.75 2.46-1.2 3.05-1.2.6 0 1.73.45 3.05 1.2a.14.14 0 0 0 .2-.16l-.02-.1-.02-.05c-.02-.1-.05-.25.02-.35s.23-.12.35-.12h1.15c.2 0 .35.04.4.1.08.11.01.37-.05.64a7 7 0 0 0-.17 1.2c0 .02.02.04.04.05.01.01.94.7 1.44 1.12.61.51.88 1 .73 1.35-.15.4-.8.64-1.62.6l-.28-.02h-.18a.14.14 0 0 0-.1.04.14.14 0 0 0-.04.1c0 .44.14 1.33.9 2.35.67.8.77 1.74.27 2.56-.6.98-2.1 1.77-4.1 1.32h-.08a7.24 7.24 0 0 1-3.85 0c-2 .45-3.5-.34-4.1-1.32a2 2 0 0 1-.22-1.68v-.06a.14.14 0 0 0-.1-.12.14.14 0 0 0-.15.06 2.29 2.29 0 0 0 .23 1.94c.52.86 1.67 1.59 3.21 1.59.36 0 .75-.04 1.15-.13a7.56 7.56 0 0 0 3.88 0c2.12.46 3.72-.4 4.36-1.45.56-.92.45-2-.29-2.88a4 4 0 0 1-.83-2.04h.02l.29.02c.95.04 1.69-.26 1.9-.77.13-.34.1-.9-.82-1.67Z"/></svg>