<svg xmlns="http://www.w3.org/2000/svg" role="img" viewBox="0 0 38 24" width="38" height="24" aria-labelledby="pi-decadeaukaart"><title id="pi-afterpay_paynl_version">De cadeau kaart</title><path d="m35,0l-32,0c-1.7,0 -3,1.3 -3,3l0,18c0,1.7 1.4,3 3,3l32,0c1.7,0 3,-1.3 3,-3l0,-18c0,-1.7 -1.4,-3 -3,-3z" opacity="0.07" /><path fill="#ff8200" d="m35,1c1.1,0 2,0.9 2,2l0,18c0,1.1 -0.9,2 -2,2l-32,0c-1.1,0 -2,-0.9 -2,-2l0,-18c0,-1.1 0.9,-2 2,-2l32,0" /><rect stroke="null" x="7.25227" y="0.35323" fill="none" rx="10.37" height="23.36839" width="23.36839" class="cls-1"/><path stroke="null" d="m16.77256,3.27428s0,0.01402 0.01869,0.01402l0.05375,0a0.28276,0.28276 0 0 1 0.12385,0.01402l0.01636,0c0.06309,0 0.12619,0 0.18695,0.02103s0.19396,0.0444 0.28977,0.06777c0.05375,0.01168 0.10749,0.02571 0.15891,0.04206s0.09114,0.03272 0.13787,0.05141s0.09581,0.03272 0.14255,0.05375c0.08413,0.03505 0.16825,0.07244 0.25004,0.11451s0.17059,0.10048 0.25472,0.15423a2.22701,2.22701 0 0 1 0.50008,0.44867a2.47705,2.47705 0 0 1 0.31547,0.48606a2.80421,2.80421 0 0 1 0.15189,0.3809c0.02571,0.08413 0.0444,0.16825 0.06543,0.25238c0,0.0444 0.02103,0.09114 0.03038,0.13554l0,0l0.02103,0.18461c0,0.05842 0.01402,0.11684 0.01636,0.17293s0,0.17526 0,0.26173l0,3.03789c0,0.08413 0,0.17059 0,0.25472a1.02821,1.02821 0 0 1 0,0.11918c0,0.02337 0,0.0444 0,0.06543c0,0.06076 0,0.12152 -0.02103,0.18227c-0.01869,0.09815 -0.04206,0.19396 -0.06777,0.28977a2.67101,2.67101 0 0 1 -0.11451,0.32248a2.50743,2.50743 0 0 1 -0.61926,0.90202a2.52612,2.52612 0 0 1 -0.30846,0.23368a2.42097,2.42097 0 0 1 -0.35053,0.19162c-0.07945,0.03505 -0.15657,0.07244 -0.23368,0.10282s-0.16825,0.05375 -0.25472,0.07945l-0.17526,0.04907l-0.12619,0.02337l-0.15189,0.02804l-0.01869,0l-0.13554,0.01402a2.75747,2.75747 0 0 1 -0.34118,0.02103l-3.35336,0a0.25238,0.25238 0 0 1 -0.23368,-0.14021a0.20097,0.20097 0 0 1 -0.02804,-0.09815l0,-8.26306a0.26874,0.26874 0 0 1 0.03272,-0.14021a0.23368,0.23368 0 0 1 0.13787,-0.11684s0,0 0.01168,-0.01402l3.61743,0zm-1.96528,4.39092l0,2.76448c0,0.02103 0,0.04206 0,0.06543a0.23368,0.23368 0 0 0 0.20798,0.20798l0.03505,0l1.50259,0a0.72208,0.72208 0 0 0 0.15891,-0.02103c0.05375,0 0.10749,-0.03272 0.15891,-0.04907a0.90669,0.90669 0 0 0 0.26874,-0.14488a1.03989,1.03989 0 0 0 0.23368,-0.25238a1.3577,1.3577 0 0 0 0.12385,-0.21966a1.16842,1.16842 0 0 0 0.07244,-0.2033c0,-0.0444 0.02337,-0.08646 0.03272,-0.1332a0.75947,0.75947 0 0 0 0.01869,-0.10048a1.86947,1.86947 0 0 0 0.03272,-0.19396c0,-0.10749 0.01402,-0.21499 0.01402,-0.32248l0,-2.79486c0,-0.10983 0,-0.21966 -0.01402,-0.32716a0.23368,0.23368 0 0 0 0,-0.03973l-0.02103,-0.17293a1.22684,1.22684 0 0 0 -0.02103,-0.12853c-0.02103,-0.06777 -0.0444,-0.13554 -0.06777,-0.2033a1.16842,1.16842 0 0 0 -0.16825,-0.32015a1.01886,1.01886 0 0 0 -0.30846,-0.28276a1.11935,1.11935 0 0 0 -0.42063,-0.14956a1.83442,1.83442 0 0 0 -0.25238,-0.01869l-1.28994,0a0.52345,0.52345 0 0 0 -0.12152,0.01168a0.23368,0.23368 0 0 0 -0.17293,0.20798c0,0.02103 0,0.0444 0,0.06543l-0.00234,2.75513z"/><path stroke="null" fill="#fff" d="m12.72749,20.25843a0.11217,0.11217 0 0 0 0.02571,-0.02103a0.11684,0.11684 0 0 1 0.10048,-0.05608l12.15156,0a0.28743,0.28743 0 0 1 0.07712,0a0.12853,0.12853 0 0 1 0.07011,0.06076l0,0.46737a0.16124,0.16124 0 0 1 -0.08413,0.06309a0.30145,0.30145 0 0 1 -0.09114,0l-12.09548,0a0.14956,0.14956 0 0 1 -0.12853,-0.06543s-0.01636,0 -0.02571,-0.01402l0,-0.43465z" class="cls-2"/><path stroke="null" fill="#fff" d="m24.0448,3.27428s0.02103,0.01636 0.03272,0.01636a0.65899,0.65899 0 0 1 0.14956,0.03272a0.93474,0.93474 0 0 1 0.23368,0.09347a1.04457,1.04457 0 0 1 0.34352,0.30379a1.42547,1.42547 0 0 1 0.13787,0.2477a0.84594,0.84594 0 0 1 0.03973,0.13086c0.01869,0.06543 0.03272,0.13086 0.04907,0.19629c0,0 0,0 0,0a2.2013,2.2013 0 0 1 0.00467,0.26406a1.1544,1.1544 0 0 1 -0.02571,0.20097a1.68486,1.68486 0 0 1 -0.07011,0.21733a1.03055,1.03055 0 0 1 -0.19162,0.28276a1.31798,1.31798 0 0 1 -0.43699,0.3108a1.50259,1.50259 0 0 1 -0.21499,0.08179a0.44867,0.44867 0 0 1 -0.13554,0.02571c-0.13787,0 -0.27341,0 -0.41128,0c-0.28509,0.02103 -0.57253,0 -0.85762,0.01869c-0.14722,0 -0.2921,0 -0.43699,0l-0.34819,0.01168a0.23368,0.23368 0 0 1 -0.05375,-0.01168l-0.03973,0c-0.16825,0 -0.3365,0 -0.50476,0c-0.23368,-0.01402 -0.48139,0 -0.71975,0a0.43699,0.43699 0 0 1 -0.09581,-0.02103c-0.05842,-0.01869 -0.11684,-0.04206 -0.17293,-0.06309a1.34135,1.34135 0 0 1 -0.28977,-0.15891a1.13103,1.13103 0 0 1 -0.32015,-0.32949a0.93474,0.93474 0 0 1 -0.11684,-0.25004c-0.01402,-0.04907 -0.02337,-0.10048 -0.03505,-0.14956a1.26189,1.26189 0 0 1 0,-0.32482a0.88333,0.88333 0 0 1 0.03038,-0.15657c0,-0.03038 0,-0.05842 0.01869,-0.0888a1.18711,1.18711 0 0 1 0.09114,-0.25004a1.03756,1.03756 0 0 1 0.17293,-0.28042a1.01419,1.01419 0 0 1 0.36455,-0.25238a1.16842,1.16842 0 0 1 0.17526,-0.05608l0.0888,-0.01402s0.01869,-0.01168 0.02804,-0.01636l0.35987,0c0,0.02103 0.02103,0.01402 0.03505,0.01636a1.10065,1.10065 0 0 1 0.12152,0.02103a1.8204,1.8204 0 0 1 0.19863,0.07244a0.89968,0.89968 0 0 1 0.23368,0.14021a1.47688,1.47688 0 0 1 0.25004,0.28977c0.08179,0.11918 0.15891,0.23368 0.23368,0.35987c0.04674,0.07244 0.0888,0.14722 0.12853,0.23368c0.06543,0.11918 0.12853,0.23368 0.19396,0.36688a0.32716,0.32716 0 0 0 0.02804,-0.04206c0.06076,-0.11684 0.11918,-0.23368 0.18461,-0.34819c0.09581,-0.16825 0.19162,-0.33417 0.30379,-0.49307a2.83459,2.83459 0 0 1 0.23368,-0.29678a0.90202,0.90202 0 0 1 0.35286,-0.23368l0.11918,-0.03739l0.13554,-0.03038c0.01869,0 0.03973,0 0.05141,-0.01869l0.35286,-0.01168zm-1.29928,1.85311l0.21966,0l0.91604,-0.01402a0.23368,0.23368 0 0 0 0.08179,-0.01168c0.03973,0 0.07712,-0.03038 0.11451,-0.0444a0.66834,0.66834 0 0 0 0.28977,-0.23368a0.56785,0.56785 0 0 0 0.10048,-0.37623c0,-0.05375 -0.01636,-0.10516 -0.02571,-0.15891a0.65665,0.65665 0 0 0 -0.07478,-0.19863a0.50943,0.50943 0 0 0 -0.44634,-0.26173a0.73377,0.73377 0 0 0 -0.30145,0.03505a0.54916,0.54916 0 0 0 -0.16358,0.08646a0.83893,0.83893 0 0 0 -0.13787,0.16358a5.23686,5.23686 0 0 0 -0.33183,0.53514c-0.07244,0.1332 -0.14255,0.2664 -0.21265,0.40194a0.34352,0.34352 0 0 0 -0.02804,0.07712zm-0.90903,0l-0.11684,-0.23368c-0.09581,-0.18227 -0.19396,-0.36221 -0.30145,-0.53514a3.37673,3.37673 0 0 0 -0.23368,-0.33884a0.53514,0.53514 0 0 0 -0.37389,-0.18461a1.13337,1.13337 0 0 0 -0.15423,0a0.55149,0.55149 0 0 0 -0.17293,0.03272a0.46737,0.46737 0 0 0 -0.26406,0.21966a0.63796,0.63796 0 0 0 -0.07478,0.17994a0.68703,0.68703 0 0 0 -0.03272,0.20564l0,0.08646a0.46737,0.46737 0 0 0 0.04206,0.18461a0.55383,0.55383 0 0 0 0.16124,0.21265a0.83893,0.83893 0 0 0 0.21032,0.12619a0.49074,0.49074 0 0 0 0.19162,0.04674c0.07478,0 0.14722,0 0.21966,0l0.84594,0l0.05375,-0.00234z" class="cls-2"/><path stroke="null" d="m21.60748,7.18615l0,1.43716l1.96996,0a0.19863,0.19863 0 0 1 0.09815,0.01636a0.19162,0.19162 0 0 1 0.11451,0.16592c0,0.07244 0,0.14255 0,0.21499l0,0.36688a0.2033,0.2033 0 0 1 -0.07712,0.17526a0.21966,0.21966 0 0 1 -0.11684,0.0444l-1.98865,0l0,1.44884l2.47004,0a0.43933,0.43933 0 0 1 0.07945,0a0.19629,0.19629 0 0 1 0.14722,0.11217a0.17293,0.17293 0 0 1 0.01869,0.09114c0,0.19162 0,0.38558 0,0.5772a0.21032,0.21032 0 0 1 -0.14021,0.19863l-0.02571,0l-3.67351,0a0.23368,0.23368 0 0 1 -0.10983,-0.01636a0.21265,0.21265 0 0 1 -0.10749,-0.1332a0.49541,0.49541 0 0 1 0,-0.11684l0,-5.33968a0.28042,0.28042 0 0 1 0.03272,-0.14488a0.19162,0.19162 0 0 1 0.17293,-0.10048c0.40427,0 0.80855,0 1.21282,0c0.78985,0 1.5797,0 2.36955,0a0.20097,0.20097 0 0 1 0.16592,0.07945a0.15189,0.15189 0 0 1 0.03739,0.0888c0,0.02103 0,0.04206 0,0.06309l0,0.53981a0.23368,0.23368 0 0 1 -0.02103,0.11918a0.20097,0.20097 0 0 1 -0.17526,0.11217a0.34352,0.34352 0 0 1 -0.04907,0l-2.40461,0z"/><path stroke="null" d="m13.68326,18.49645l0,0.84827a0.19396,0.19396 0 0 1 -0.06777,0.15189a0.16825,0.16825 0 0 1 -0.11918,0.05141c-0.17059,0 -0.33884,0 -0.50709,0a0.20097,0.20097 0 0 1 -0.18461,-0.17994c0,-0.02337 0,-0.04674 0,-0.07011l0,-3.45852c0,-0.02804 0,-0.05842 0,-0.08646a0.18928,0.18928 0 0 1 0.14021,-0.16124c0.03272,0 0.06543,0 0.10048,0c0.13787,0 0.27808,0 0.41829,0a0.23368,0.23368 0 0 1 0.11684,0.02804a0.19162,0.19162 0 0 1 0.10048,0.1776l0,1.9092a0.13554,0.13554 0 0 0 0.03038,-0.02337c0.06777,-0.10749 0.13554,-0.21499 0.20564,-0.32015l0.1776,-0.27107l0.2033,-0.31547a0.36688,0.36688 0 0 1 0.19629,-0.15423a0.53747,0.53747 0 0 1 0.17293,-0.03038l0.47905,0a0.15423,0.15423 0 0 1 0.09114,0.02571a0.10048,0.10048 0 0 1 0.02103,0.15189l-0.32248,0.44634l-0.32949,0.45568l-0.27341,0.37623c-0.02337,0.03272 -0.02571,0.03505 0,0.07011c0.05842,0.07712 0.11918,0.15189 0.17994,0.23368c0.13787,0.17293 0.27808,0.34585 0.41362,0.52112l0.41362,0.52345a0.09347,0.09347 0 0 1 -0.02337,0.15423a0.0888,0.0888 0 0 1 -0.0444,0l-0.61926,0a0.43232,0.43232 0 0 1 -0.20564,-0.06309a0.48373,0.48373 0 0 1 -0.14488,-0.14722l-0.21966,-0.31314l-0.2033,-0.28276c-0.05375,-0.07712 -0.10749,-0.15189 -0.16358,-0.23368a0.2033,0.2033 0 0 0 -0.02103,-0.02571l-0.01168,0.01168z"/><path stroke="null" d="m19.92495,16.8373a0.1776,0.1776 0 0 0 0.01869,-0.03505a0.25705,0.25705 0 0 1 0.15189,-0.19863a0.33884,0.33884 0 0 1 0.10983,-0.02103c0.10983,0 0.21966,0 0.32716,0a0.20798,0.20798 0 0 1 0.20564,0.13554a0.23368,0.23368 0 0 1 0,0.04206c0,0.02337 0,0.04907 0,0.07478l0,2.47004a0.23368,0.23368 0 0 1 -0.01869,0.12853a0.19396,0.19396 0 0 1 -0.16592,0.11451c-0.13787,0 -0.27341,0 -0.41128,0a0.21499,0.21499 0 0 1 -0.18928,-0.12853a0.37623,0.37623 0 0 1 -0.02103,-0.06777c0,-0.01402 -0.01168,-0.02571 -0.01636,-0.03739l-0.14722,0.11217a0.91604,0.91604 0 0 1 -0.26874,0.13787a0.71274,0.71274 0 0 1 -0.25238,0.03973c-0.04206,0 -0.08413,0 -0.12619,0a1.44183,1.44183 0 0 1 -0.23368,-0.03272a0.70105,0.70105 0 0 1 -0.16825,-0.05375a0.64263,0.64263 0 0 1 -0.32248,-0.30145a0.888,0.888 0 0 1 -0.09581,-0.29444c0,-0.07011 -0.02103,-0.14021 -0.03038,-0.21265a0.32015,0.32015 0 0 1 0,-0.06777c0,-0.38324 0,-0.76415 0,-1.14505a1.0913,1.0913 0 0 1 0.03038,-0.25939c0,-0.03505 0,-0.07011 0.02103,-0.10516a0.84594,0.84594 0 0 1 0.14722,-0.28743a0.61693,0.61693 0 0 1 0.23368,-0.20097c0.03739,-0.01869 0.07712,-0.02804 0.11451,-0.04674a1.29461,1.29461 0 0 1 0.18695,-0.04907l0,0a1.91387,1.91387 0 0 1 0.30613,0a1.21749,1.21749 0 0 1 0.16124,0.02337a1.1544,1.1544 0 0 1 0.25939,0.10983a0.98381,0.98381 0 0 1 0.19396,0.15657zm-0.05375,1.23385c0,-0.19162 0,-0.38558 0,-0.5772a0.08646,0.08646 0 0 0 -0.03038,-0.06777a0.84126,0.84126 0 0 0 -0.15657,-0.11451a0.39493,0.39493 0 0 0 -0.23368,-0.06076l-0.04674,0a0.2033,0.2033 0 0 0 -0.14255,0.06543a0.31314,0.31314 0 0 0 -0.07244,0.18227a1.24086,1.24086 0 0 0 0,0.16124q0,0.40661 0,0.81322a0.7548,0.7548 0 0 0 0.02571,0.23368a0.20097,0.20097 0 0 0 0.10983,0.14255a0.37623,0.37623 0 0 0 0.28042,0a0.76882,0.76882 0 0 0 0.24537,-0.15189a0.10282,0.10282 0 0 0 0.03272,-0.07945c-0.01168,-0.17059 -0.01168,-0.35987 -0.01168,-0.54682z"/><path stroke="null" d="m17.067,16.83496a0.41362,0.41362 0 0 0 0.01402,-0.03973a0.25939,0.25939 0 0 1 0.15657,-0.19396a0.25238,0.25238 0 0 1 0.10282,-0.01869c0.10983,0 0.21966,0 0.33183,0a0.2033,0.2033 0 0 1 0.20097,0.1332a0.07945,0.07945 0 0 1 0.01168,0.03973c0,0.03038 0,0.05842 0,0.0888l0,2.44901c0,0.02571 0,0.04907 0,0.07478a0.20097,0.20097 0 0 1 -0.18461,0.17994c-0.13554,0 -0.27107,0 -0.40427,0a0.23368,0.23368 0 0 1 -0.19396,-0.12853a0.28743,0.28743 0 0 1 -0.02103,-0.06777l-0.01402,-0.04206l-0.01636,0a1.09364,1.09364 0 0 1 -0.39726,0.23368c-0.03505,0 -0.07478,0 -0.10983,0.02337a0.99783,0.99783 0 0 1 -0.26406,0.01636a1.25488,1.25488 0 0 1 -0.23368,-0.03272a0.70105,0.70105 0 0 1 -0.21966,-0.07945a0.64964,0.64964 0 0 1 -0.2921,-0.32015a1.14739,1.14739 0 0 1 -0.07011,-0.20798a1.18244,1.18244 0 0 1 -0.02337,-0.15891a5.7089,5.7089 0 0 1 -0.00935,-0.64497c0,-0.21966 0,-0.43933 0,-0.65899a0.99783,0.99783 0 0 1 0.01869,-0.2033a1.16842,1.16842 0 0 1 0.10282,-0.33183a0.64497,0.64497 0 0 1 0.26406,-0.28276a0.53981,0.53981 0 0 1 0.13554,-0.05842c0.04674,-0.01402 0.09347,-0.02337 0.14021,-0.03505a1.13337,1.13337 0 0 1 0.23368,-0.02337a0.76181,0.76181 0 0 1 0.20564,0a0.97213,0.97213 0 0 1 0.4253,0.18928c0.03739,0.03038 0.07244,0.06309 0.10983,0.10048zm-0.06076,1.23619l0,-0.5772a0.06777,0.06777 0 0 0 -0.02804,-0.06309c-0.03505,-0.02571 -0.06543,-0.05608 -0.10048,-0.08179a0.46737,0.46737 0 0 0 -0.19629,-0.09114a0.40427,0.40427 0 0 0 -0.21032,0a0.21499,0.21499 0 0 0 -0.13554,0.15423a0.52345,0.52345 0 0 0 -0.02337,0.17994l0,0.9137a0.64263,0.64263 0 0 0 0.02337,0.19863a0.21499,0.21499 0 0 0 0.0888,0.13086a0.46737,0.46737 0 0 0 0.07945,0.03038a0.34118,0.34118 0 0 0 0.23368,-0.01402a0.75947,0.75947 0 0 0 0.21032,-0.12152a0.14021,0.14021 0 0 0 0.06076,-0.12853c-0.00234,-0.17059 0.00234,-0.35053 0.00234,-0.53046l-0.00467,0z"/><path stroke="null" d="m23.96535,16.58258l0.05608,0c0.13086,0 0.25939,0 0.38792,0a0.21499,0.21499 0 0 1 0.18227,0.08646a0.14255,0.14255 0 0 1 0.03272,0.07945c0,0.10749 0,0.21499 0,0.32248a0.19629,0.19629 0 0 1 -0.14021,0.14956a1.0656,1.0656 0 0 1 -0.17059,0l-0.34352,0a0.23368,0.23368 0 0 0 0,0.03739c0,0.42764 0,0.85528 0,1.28526a0.46737,0.46737 0 0 0 0.05375,0.21966a0.2477,0.2477 0 0 0 0.20564,0.1332a2.28543,2.28543 0 0 0 0.25238,0a0.14722,0.14722 0 0 1 0.15189,0.07945a0.29912,0.29912 0 0 1 0.02337,0.10048q0,0.1332 0,0.2664a0.23368,0.23368 0 0 1 -0.15891,0.23368l-0.01402,0c-0.05375,0 -0.10749,0.01636 -0.16124,0.01869c-0.11684,0 -0.23368,0 -0.35053,0a1.91387,1.91387 0 0 1 -0.19162,-0.03038a0.65665,0.65665 0 0 1 -0.18928,-0.05608a0.70105,0.70105 0 0 1 -0.35053,-0.31547a1.25255,1.25255 0 0 1 -0.09815,-0.2477c0,-0.03973 0,-0.08179 -0.02337,-0.12152a1.81339,1.81339 0 0 1 -0.03739,-0.24303a0.52112,0.52112 0 0 1 0,-0.08646l0,-1.25722l-0.09581,-0.01869a0.19629,0.19629 0 0 1 -0.14488,-0.14255a1.0913,1.0913 0 0 1 0,-0.27575a0.19863,0.19863 0 0 1 0.11684,-0.19162a0.39025,0.39025 0 0 1 0.10282,-0.02571a0.46737,0.46737 0 0 1 0.08179,0c0,-0.05141 0.01402,-0.09815 0.02103,-0.14488c0,-0.08646 0.02103,-0.17526 0.03272,-0.26406c0,-0.03038 0,-0.06076 0,-0.09114a0.28042,0.28042 0 0 1 0.05141,-0.14722a0.21733,0.21733 0 0 1 0.17293,-0.08646l0.35286,0a0.20097,0.20097 0 0 1 0.19162,0.19396c0,0.16124 0,0.32015 0,0.48139l0,0.05842z"/><path stroke="null" d="m17.90592,13.20585l0,-0.66834a0.16358,0.16358 0 0 1 0.03739,-0.11217a0.12385,0.12385 0 0 1 0.10048,-0.05141l0.36688,0a0.14956,0.14956 0 0 1 0.1332,0.13554c0,0.01168 0,0.02337 0,0.03505c0,0.83425 0,1.67084 0,2.50509a0.15891,0.15891 0 0 1 -0.05375,0.13554a0.11918,0.11918 0 0 1 -0.07478,0.03272l-0.30379,0a0.15423,0.15423 0 0 1 -0.13086,-0.09114a0.59122,0.59122 0 0 1 -0.02804,-0.07712a0.25472,0.25472 0 0 0 -0.03973,0.03038a0.72208,0.72208 0 0 1 -0.23368,0.14021a0.48606,0.48606 0 0 1 -0.18928,0.03505l-0.15423,0a0.70105,0.70105 0 0 1 -0.15189,-0.03038a0.5328,0.5328 0 0 1 -0.13086,-0.05375a0.47905,0.47905 0 0 1 -0.20097,-0.23368a1.07261,1.07261 0 0 1 -0.05608,-0.23368a1.98865,1.98865 0 0 1 -0.02103,-0.32949c0,-0.18695 0,-0.37623 0,-0.56318a1.55633,1.55633 0 0 1 0.03272,-0.29444a0.60991,0.60991 0 0 1 0.11217,-0.25472a0.41128,0.41128 0 0 1 0.17293,-0.13554a0.71741,0.71741 0 0 1 0.21032,-0.05608a0.89501,0.89501 0 0 1 0.1776,0a1.1544,1.1544 0 0 1 0.15189,0.02804a0.7361,0.7361 0 0 1 0.25939,0.13086l0.01402,-0.02337zm0,0.93474l0,-0.3552c0,-0.08179 0,-0.08413 -0.06309,-0.12853a0.36688,0.36688 0 0 0 -0.28276,-0.08413a0.14021,0.14021 0 0 0 -0.10749,0.07011a0.34118,0.34118 0 0 0 -0.03973,0.14956c0,0.23368 0,0.45101 0,0.67768a0.48373,0.48373 0 0 0 0.02103,0.15423a0.14255,0.14255 0 0 0 0.0888,0.09815a0.27575,0.27575 0 0 0 0.21966,-0.01168a0.54916,0.54916 0 0 0 0.12152,-0.07478a0.0888,0.0888 0 0 0 0.04206,-0.08179l0,-0.41362z"/><path stroke="null" d="m21.95099,16.89572c0.01636,-0.01168 0.02571,-0.01402 0.03038,-0.02103a0.87865,0.87865 0 0 1 0.3552,-0.28276a0.65899,0.65899 0 0 1 0.23368,-0.05608a0.1776,0.1776 0 0 1 0.11918,0.02571a0.10282,0.10282 0 0 1 0.04674,0.07011c0,0.04907 0,0.09815 0,0.14722q0,0.14021 0,0.28042a0.71741,0.71741 0 0 1 -0.01168,0.12385a0.12385,0.12385 0 0 1 -0.07244,0.08646a0.16825,0.16825 0 0 1 -0.08179,0.01869a0.70105,0.70105 0 0 0 -0.3365,0.07712a0.52112,0.52112 0 0 0 -0.20798,0.17526a0.07712,0.07712 0 0 0 0,0.03272a0.25472,0.25472 0 0 0 0,0.04206l0,1.69888a0.23368,0.23368 0 0 1 -0.01869,0.11918a0.19396,0.19396 0 0 1 -0.16592,0.11451c-0.17059,0 -0.34352,0 -0.5141,0a0.19863,0.19863 0 0 1 -0.17994,-0.17059c0,-0.02571 0,-0.05141 0,-0.07478l0,-2.4677c0,-0.02103 0,-0.04206 0,-0.06543a0.19162,0.19162 0 0 1 0.11918,-0.16825a0.21032,0.21032 0 0 1 0.09347,-0.01869c0.10983,0 0.222,0 0.33183,0a0.2477,0.2477 0 0 1 0.23368,0.14956a0.45101,0.45101 0 0 1 0.02337,0.10048c0,0.01636 0,0.03505 0.00234,0.06309z"/><path stroke="null" d="m21.94164,13.26427a0.20564,0.20564 0 0 1 0.10282,-0.14956a0.21499,0.21499 0 0 1 0.09114,-0.02571c0.08179,0 0.16124,0 0.23368,0a0.16358,0.16358 0 0 1 0.14956,0.10282a0.05375,0.05375 0 0 1 0,0.02571a0.17526,0.17526 0 0 1 0,0.03505q0,0.90436 0,1.80871a0.15657,0.15657 0 0 1 -0.03973,0.10983a0.12152,0.12152 0 0 1 -0.09815,0.04674l-0.27341,0a0.16358,0.16358 0 0 1 -0.14021,-0.08646a0.37389,0.37389 0 0 1 -0.02804,-0.08179a0.25472,0.25472 0 0 0 -0.03973,0.03038a0.68469,0.68469 0 0 1 -0.23368,0.14021a0.49541,0.49541 0 0 1 -0.18227,0.03505l-0.09114,0a0.71274,0.71274 0 0 1 -0.23368,-0.03505a0.51878,0.51878 0 0 1 -0.17526,-0.0888a0.49074,0.49074 0 0 1 -0.16358,-0.25004a1.11935,1.11935 0 0 1 -0.05375,-0.34118l0,-0.75246a1.38808,1.38808 0 0 1 0.03973,-0.29444a0.57019,0.57019 0 0 1 0.12619,-0.26173a0.46737,0.46737 0 0 1 0.20097,-0.13086a1.08663,1.08663 0 0 1 0.16825,-0.03739a0.68002,0.68002 0 0 1 0.16825,0a0.68703,0.68703 0 0 1 0.15657,0.03038a0.67301,0.67301 0 0 1 0.31547,0.17059zm-0.04674,0.89267c0,-0.13787 0,-0.27575 0,-0.41128a0.06309,0.06309 0 0 0 -0.02804,-0.05842a0.59589,0.59589 0 0 0 -0.09114,-0.06543a0.40194,0.40194 0 0 0 -0.10983,-0.0444a0.43933,0.43933 0 0 0 -0.12385,0a0.11918,0.11918 0 0 0 -0.10282,0.06777a0.32949,0.32949 0 0 0 -0.03739,0.14956c0,0.23368 0,0.46737 0,0.70105a0.49074,0.49074 0 0 0 0.02103,0.14255a0.14021,0.14021 0 0 0 0.08179,0.0888a0.27107,0.27107 0 0 0 0.222,-0.01168a0.99316,0.99316 0 0 0 0.13554,-0.08179a0.07945,0.07945 0 0 0 0.03272,-0.07011c-0.00234,-0.14021 0,-0.27341 0,-0.40661z"/><path stroke="null" d="m15.94765,15.04494a0.39259,0.39259 0 0 1 -0.04907,0.04206a0.74078,0.74078 0 0 1 -0.25004,0.14255a0.54916,0.54916 0 0 1 -0.12385,0.02103a1.23619,1.23619 0 0 1 -0.20798,0a0.51177,0.51177 0 0 1 -0.49074,-0.36922a1.81806,1.81806 0 0 1 -0.03973,-0.18928a1.3577,1.3577 0 0 1 -0.01168,-0.23368c0,-0.21032 0,-0.42063 0,-0.63095a1.4021,1.4021 0 0 1 0.03038,-0.31314a0.63095,0.63095 0 0 1 0.11451,-0.25472a0.40661,0.40661 0 0 1 0.17293,-0.1332a0.70105,0.70105 0 0 1 0.20564,-0.05608a1.24787,1.24787 0 0 1 0.16124,0a0.72208,0.72208 0 0 1 0.17293,0.02804a0.71274,0.71274 0 0 1 0.31781,0.18695c0,-0.02103 0.01636,-0.03973 0.02571,-0.06076a0.17293,0.17293 0 0 1 0.11684,-0.10749a0.35286,0.35286 0 0 1 0.09815,0l0.19162,0a0.18227,0.18227 0 0 1 0.10282,0.03505a0.12619,0.12619 0 0 1 0.05375,0.10048s0,0.02337 0,0.03505c0,0.59823 0,1.1988 0,1.79937a0.15189,0.15189 0 0 1 -0.05141,0.12619a0.12152,0.12152 0 0 1 -0.07712,0.03272l-0.29912,0a0.15423,0.15423 0 0 1 -0.1332,-0.09114c-0.01168,-0.05375 -0.01869,-0.07945 -0.03038,-0.10983zm-0.04907,-0.888c0,-0.12853 0,-0.25472 0,-0.3809a0.12152,0.12152 0 0 0 -0.05842,-0.11451c-0.01869,-0.01168 -0.03739,-0.02804 -0.05608,-0.03739a0.42297,0.42297 0 0 0 -0.11217,-0.04674a0.44634,0.44634 0 0 0 -0.11217,0a0.1332,0.1332 0 0 0 -0.12385,0.08646a0.32716,0.32716 0 0 0 -0.03038,0.1332c0,0.21265 0,0.42297 0,0.63328a0.64497,0.64497 0 0 0 0.02571,0.1776a0.15189,0.15189 0 0 0 0.09114,0.10749a0.27575,0.27575 0 0 0 0.21966,-0.01168a0.70105,0.70105 0 0 0 0.11918,-0.07244a0.09114,0.09114 0 0 0 0.0444,-0.0888c-0.00701,-0.12385 -0.00701,-0.25472 -0.00701,-0.38558z"/><path stroke="null" d="m19.40384,14.26911a0.23368,0.23368 0 0 0 0,0.03739c0,0.05842 0,0.11684 0,0.17526a0.38558,0.38558 0 0 0 0.03505,0.16124a0.18227,0.18227 0 0 0 0.14956,0.11451a0.65665,0.65665 0 0 0 0.16592,0a0.19396,0.19396 0 0 0 0.15891,-0.17994a0.12385,0.12385 0 0 1 0.1332,-0.12853l0.36221,0a0.12853,0.12853 0 0 1 0.13787,0.13787a0.50709,0.50709 0 0 1 -0.06309,0.23368a0.75714,0.75714 0 0 1 -0.35987,0.32949a1.1801,1.1801 0 0 1 -0.19162,0.07011a0.74779,0.74779 0 0 1 -0.14488,0.02103l-0.23368,0a0.82257,0.82257 0 0 1 -0.21265,-0.03272a0.76882,0.76882 0 0 1 -0.23368,-0.09581a0.68703,0.68703 0 0 1 -0.21032,-0.19162a0.7805,0.7805 0 0 1 -0.09114,-0.17526a1.06092,1.06092 0 0 1 -0.05375,-0.36455c0,-0.18461 0,-0.37156 0,-0.5585a0.82724,0.82724 0 0 1 0.12152,-0.41596a0.68002,0.68002 0 0 1 0.25472,-0.23368a0.7361,0.7361 0 0 1 0.15189,-0.06777a1.14038,1.14038 0 0 1 0.20097,-0.0444a1.72225,1.72225 0 0 1 0.19162,0a1.21282,1.21282 0 0 1 0.23368,0.03038a0.72442,0.72442 0 0 1 0.18695,0.05842a0.70105,0.70105 0 0 1 0.23368,0.17059a0.70105,0.70105 0 0 1 0.14956,0.23368a0.60057,0.60057 0 0 1 0.04206,0.19396c0,0.10516 0,0.20798 0,0.31314c0,0.03038 0,0.05842 0,0.08646a0.15423,0.15423 0 0 1 -0.1332,0.12385l-0.98147,0l0,-0.00234zm0,-0.36221l0.5328,-0.01636a0.52112,0.52112 0 0 0 -0.05375,-0.23368a0.19162,0.19162 0 0 0 -0.09815,-0.0888a0.27107,0.27107 0 0 0 -0.13086,-0.02103a0.25238,0.25238 0 0 0 -0.16825,0.07244a0.28042,0.28042 0 0 0 -0.07478,0.15657a1.16842,1.16842 0 0 0 -0.00701,0.13086z"/><path stroke="null" d="m23.89057,15.04728a0.74779,0.74779 0 0 1 -0.23368,0.15891a0.49074,0.49074 0 0 1 -0.19162,0.04674c-0.06076,0 -0.12385,0 -0.18461,0a0.55149,0.55149 0 0 1 -0.37156,-0.1776a0.5328,0.5328 0 0 1 -0.10516,-0.23368a1.31097,1.31097 0 0 1 -0.03505,-0.34352l0,-1.25021a0.14488,0.14488 0 0 1 0.07011,-0.1332a0.16592,0.16592 0 0 1 0.0888,-0.02804c0.10516,0 0.21265,0 0.31781,0a0.15891,0.15891 0 0 1 0.16124,0.16358l0,1.1988a0.89968,0.89968 0 0 0 0,0.11217a0.23368,0.23368 0 0 0 0.03272,0.10983a0.12619,0.12619 0 0 0 0.09581,0.06543a0.27575,0.27575 0 0 0 0.19162,-0.03739a0.72909,0.72909 0 0 0 0.09347,-0.07478a0.08179,0.08179 0 0 0 0.03505,-0.07712l0,-1.26189c0,-0.02571 0,-0.05141 0,-0.07478a0.14021,0.14021 0 0 1 0.09114,-0.10983a0.34585,0.34585 0 0 1 0.10983,-0.01402l0.23368,0a0.23368,0.23368 0 0 1 0.11451,0.01869a0.12152,0.12152 0 0 1 0.07478,0.07712a0.36688,0.36688 0 0 1 0,0.08646c0,0.58888 0,1.16842 0,1.76899a0.19396,0.19396 0 0 1 -0.03038,0.11918a0.13086,0.13086 0 0 1 -0.10983,0.05842l-0.28509,0a0.14488,0.14488 0 0 1 -0.14255,-0.11451l0,-0.01636a0.14956,0.14956 0 0 0 -0.02103,-0.03739z"/><path stroke="null" d="m12.77189,14.18031c0,-0.11451 0,-0.20097 0,-0.28509a0.89267,0.89267 0 0 1 0.02103,-0.23368a0.73377,0.73377 0 0 1 0.49074,-0.55383a0.95109,0.95109 0 0 1 0.25238,-0.05141l0.05608,0l0.11217,0l0.15423,0a0.70105,0.70105 0 0 1 0.15189,0.03038a1.12869,1.12869 0 0 1 0.11684,0.03739a0.65665,0.65665 0 0 1 0.2664,0.18928a0.59823,0.59823 0 0 1 0.12853,0.23368a0.76648,0.76648 0 0 1 0.03505,0.25238a0.12853,0.12853 0 0 1 -0.11918,0.12853c-0.07945,0 -0.16124,0 -0.23368,0s-0.11451,0 -0.17059,0a0.09815,0.09815 0 0 1 -0.08646,-0.07244a0.3809,0.3809 0 0 1 -0.01869,-0.10282a0.20798,0.20798 0 0 0 -0.14255,-0.20097a0.29444,0.29444 0 0 0 -0.28276,0.05608a0.28977,0.28977 0 0 0 -0.06777,0.14255a1.49324,1.49324 0 0 0 -0.01636,0.33884q0,0.14956 0,0.30145a0.78518,0.78518 0 0 0 0.02103,0.16358a0.23368,0.23368 0 0 0 0.31314,0.17994a0.18928,0.18928 0 0 0 0.14488,-0.09815a0.32248,0.32248 0 0 0 0.02804,-0.07945c0,-0.04206 0.01168,-0.08413 0.01869,-0.12385a0.11918,0.11918 0 0 1 0.10048,-0.0888l0.3996,0a0.14255,0.14255 0 0 1 0.11918,0.12152a0.95577,0.95577 0 0 1 -0.01168,0.18227a0.81088,0.81088 0 0 1 -0.09114,0.23368a0.70105,0.70105 0 0 1 -0.15657,0.17293a0.76415,0.76415 0 0 1 -0.20564,0.11217a1.23619,1.23619 0 0 1 -0.23368,0.05608a1.41612,1.41612 0 0 1 -0.32949,0.01168a1.30396,1.30396 0 0 1 -0.16124,-0.03038a0.65198,0.65198 0 0 1 -0.20798,-0.07478a0.72208,0.72208 0 0 1 -0.32949,-0.35286a1.13804,1.13804 0 0 1 -0.05375,-0.19396a3.25054,3.25054 0 0 1 -0.01168,-0.40194z"/></svg>
