<svg xmlns="http://www.w3.org/2000/svg" width="38" height="24" viewBox="0 0 38 24" role="img" aria-labelledby="pi-deema"><title id="pi-deema">Deema</title><path opacity=".07" d="M35 0H3C1.3 0 0 1.3 0 3v18c0 1.7 1.4 3 3 3h32c1.7 0 3-1.3 3-3V3c0-1.7-1.4-3-3-3z"/><path fill="#fff" d="M35 1c1.1 0 2 .9 2 2v18c0 1.1-.9 2-2 2H3c-1.1 0-2-.9-2-2V3c0-1.1.9-2 2-2h32"/><path fill="#c17283" d="M24.998 0c-1.684 0-3.286.347-4.739.973a13.3 13.3 0 0 1 2.072 1.692A13.1 13.1 0 0 1 26.197 12h-1.2A11.99 11.99 0 0 0 17.734.974a11.9 11.9 0 0 0-4.74-.972C6.373 0 1 5.372 1 12s5.372 12 11.999 12c1.683 0 3.286-.347 4.739-.973a13.3 13.3 0 0 1-2.072-1.693A13.1 13.1 0 0 1 11.8 12H13a11.99 11.99 0 0 0 7.262 11.026 11.9 11.9 0 0 0 4.739.973c6.627 0 11.999-5.373 11.999-12C37 5.37 31.625 0 24.998 0"/></svg>