<svg xmlns="http://www.w3.org/2000/svg" width="38" height="24" fill="none" aria-labelledby="pi-deema" viewBox="0 0 38 24" role="img"><title id="pi-deema">Deema</title><path fill="url(#pi-deema-fill)" d="M24.998 0c-1.684 0-3.286.347-4.739.973a13.3 13.3 0 0 1 2.072 1.692A13.1 13.1 0 0 1 26.197 12h-1.2A11.99 11.99 0 0 0 17.734.974a11.9 11.9 0 0 0-4.74-.972C6.373 0 1 5.372 1 12s5.372 12 11.999 12c1.683 0 3.286-.347 4.739-.973a13.3 13.3 0 0 1-2.072-1.693A13.1 13.1 0 0 1 11.8 12H13a11.99 11.99 0 0 0 7.262 11.026 11.9 11.9 0 0 0 4.739.973c6.627 0 11.999-5.373 11.999-12C37 5.37 31.625 0 24.998 0"/><defs><linearGradient id="pi-deema-fill" x1="1" x2="38.887" y1="24" y2="3.485" gradientUnits="userSpaceOnUse"><stop stop-color="#d48a9a"/><stop offset="1" stop-color="#b56576"/></linearGradient></defs></svg>