<svg xmlns="http://www.w3.org/2000/svg" width="144" height="91" aria-labelledby="pi-deema" viewBox="0 0 108 68.25"><title>Deema</title><defs><clipPath id="a"><path d="M.586 0H107.41v67.508H.586Zm0 0"/></clipPath><clipPath id="c"><path d="M.586 0H107.41v67.508H.586Zm0 0"/></clipPath><clipPath id="d"><path d="M10.371 46h87.024v21.508H10.37Zm0 0"/></clipPath><clipPath id="b"><path d="M0 0h108v68H0z"/></clipPath></defs><g clip-path="url(#a)"><path fill="#fff" d="M.586 0h106.828v67.508H.586Zm0 0"/><g clip-path="url(#b)"><g clip-path="url(#c)"><path fill="#fff" d="M.586 0h107.11v67.688H.585Zm0 0"/></g><path fill="#b56576" d="M63.695.031c-2.754 0-5.375.57-7.75 1.602 1.207.8 2.344 1.73 3.387 2.785 4.082 4.102 6.324 9.555 6.324 15.355h-1.96A19.76 19.76 0 0 0 51.82 1.633 19.4 19.4 0 0 0 44.066.03c-10.84 0-19.625 8.84-19.625 19.742 0 10.907 8.786 19.747 19.625 19.747 2.754 0 5.375-.57 7.754-1.602a22 22 0 0 1-3.39-2.79c-4.078-4.097-6.325-9.554-6.325-15.355h1.961c0 7.309 3.95 13.688 9.813 17.102q.995.58 2.066 1.043a19.4 19.4 0 0 0 7.75 1.602c10.84 0 19.625-8.84 19.625-19.747C83.32 8.871 74.535.031 63.695.031m0 0"/><g clip-path="url(#d)"><path fill="#58595b" d="M26.652 60.156c0-4.328 3.153-7.496 7.625-7.496 4.47 0 7.57 3.172 7.57 7.496v1.211H30.235c.457 2.078 2.036 3.176 4.043 3.176 1.52 0 2.637-.434 3.352-1.36h3.64c-1.058 2.715-3.64 4.473-6.992 4.473-4.472 0-7.625-3.172-7.625-7.496Zm11.582-1.527c-.547-1.902-2.093-2.856-3.957-2.856s-3.41.98-3.957 2.856Zm4.633 1.527c0-4.328 3.156-7.496 7.625-7.496 4.473 0 7.57 3.172 7.57 7.496v1.211H46.454c.457 2.078 2.035 3.176 4.04 3.176 1.523 0 2.64-.434 3.355-1.36h3.64c-1.058 2.715-3.64 4.473-6.996 4.473-4.472 0-7.625-3.172-7.625-7.496ZM54.45 58.63c-.543-1.902-2.09-2.856-3.957-2.856-1.863 0-3.41.98-3.953 2.856Zm4.989.52c0-4.47 2.582-6.489 5.937-6.489 2.121 0 3.867.895 4.902 2.567 1.004-1.672 2.75-2.567 4.903-2.567 3.351 0 5.933 2.02 5.933 6.488v8.508h-3.41v-8.508c0-2.336-1.207-3.289-2.867-3.289s-2.84.98-2.84 3.29v8.507h-3.41v-8.508c0-2.308-1.23-3.289-2.867-3.289-1.633 0-2.864.953-2.864 3.29v8.507h-3.414v-8.508ZM89.94 52.66c-4.12 0-7.457 3.36-7.457 7.5 0 4.137 3.336 7.496 7.457 7.496a7.4 7.4 0 0 0 4.043-1.199v1.2h3.41V60.16c0-4.14-3.34-7.5-7.457-7.5Zm0 11.567c-2.238 0-4.046-1.82-4.046-4.067 0-2.25 1.812-4.07 4.046-4.07 2.23 0 4.043 1.824 4.043 4.07 0 2.242-1.812 4.067-4.043 4.067m-72.117 3.43c-4.117 0-7.453-3.36-7.453-7.497 0-4.14 3.336-7.5 7.453-7.5 1.492 0 2.88.442 4.043 1.2v-7.731h3.41V60.16c0 4.137-3.34 7.496-7.457 7.496Zm0-11.567c-2.238 0-4.043 1.82-4.043 4.07 0 2.246 1.809 4.067 4.043 4.067s4.043-1.825 4.043-4.067c0-2.246-1.808-4.07-4.043-4.07m0 0"/></g></g></g></svg>