<svg viewBox="0 0 38 24" xmlns="http://www.w3.org/2000/svg" xmlns:xlink="http://www.w3.org/1999/xlink" width="38" height="24" role="img" aria-labelledby="pi-depay"><title id="pi-depay">DePay</title><defs><linearGradient id="pi-linear-gradient-depay" x1="5.6" y1="6.25" x2="4.24" y2="11.1" gradientUnits="userSpaceOnUse"><stop offset=".09" stop-color="#6fa0d3"/><stop offset=".45" stop-color="#447fc0"/><stop offset=".66" stop-color="#3e75af"/><stop offset="1" stop-color="#275280"/></linearGradient><linearGradient id="pi-linear-gradient-depay-2" x1="14.82" y1="10.99" x2="13.43" y2="15.93" xlink:href="#pi-linear-gradient-depay"/><linearGradient id="pi-linear-gradient-depay-3" x1="17.16" y1="12.27" x2="1.44" y2="13.47" gradientUnits="userSpaceOnUse"><stop offset=".09" stop-color="#fce876"/><stop offset=".52" stop-color="#ffe63f"/><stop offset=".7" stop-color="#e8cf3a"/><stop offset="1" stop-color="#b9a231"/></linearGradient><linearGradient id="pi-linear-gradient-depay-4" x1="16.99" y1="10.12" x2="1.28" y2="11.32" gradientUnits="userSpaceOnUse"><stop offset="0" stop-color="#fce876"/><stop offset=".16" stop-color="#ffe63f"/><stop offset="1" stop-color="#b9a231"/></linearGradient><linearGradient id="pi-linear-gradient-depay-5" x1="10.96" y1="18.33" x2="7.54" y2="5.37" gradientUnits="userSpaceOnUse"><stop offset=".09" stop-color="#cb296b"/><stop offset=".55" stop-color="#ed3a85"/><stop offset="1" stop-color="#f185b5"/></linearGradient></defs><rect width="38" height="24" rx="3" fill-opacity=".07"/><rect x="1" y="1" width="36" height="22" rx="2" fill="#fff"/><g fill="#06364c"><path d="M17.62 16V8.78H21a3.16 3.16 0 012 .56 2.11 2.11 0 01.72 1.76 2.36 2.36 0 01-.73 1.84 2.84 2.84 0 01-2 .65h-1.5V16zm1.83-3.81h1.25a1.18 1.18 0 00.39-.06.61.61 0 00.3-.21.79.79 0 00.18-.31 1.07 1.07 0 00.07-.41 1.25 1.25 0 00-.07-.45 1.2 1.2 0 00-.17-.34.73.73 0 00-.3-.22 1.24 1.24 0 00-.4-.07h-1.25z"/><path d="M17.67 16V8.83H21a3.15 3.15 0 011.94.55 2.06 2.06 0 01.69 1.72 2.29 2.29 0 01-.7 1.8 2.81 2.81 0 01-1.93.64h-1.6V16zm1.73-3.71h1.3a1.07 1.07 0 00.41-.07.64.64 0 00.32-.21.84.84 0 00.19-.33 1.18 1.18 0 00.07-.43 1.37 1.37 0 00-.07-.47 1.06 1.06 0 00-.18-.35.76.76 0 00-.33-.23 1.07 1.07 0 00-.41-.08h-1.3zM26.22 16a4.75 4.75 0 01-1-.09 2.21 2.21 0 01-.77-.3 1.46 1.46 0 01-.5-.57 2 2 0 01-.18-.9 1.62 1.62 0 01.19-.81 1.31 1.31 0 01.62-.56 2.37 2.37 0 011.07-.21 2.66 2.66 0 01.69.08 2.57 2.57 0 01.61.21l.13.06.09.05v-.37a.83.83 0 00-.33-.73 1.59 1.59 0 00-.91-.22 2.88 2.88 0 00-1 .18 3.67 3.67 0 00-.69.35v-1.38a2.85 2.85 0 01.82-.3 5.55 5.55 0 011.36-.15 3.81 3.81 0 01.54 0 2.85 2.85 0 01.63.14 1.9 1.9 0 01.6.31 1.5 1.5 0 01.45.54 1.92 1.92 0 01.16.85v2.62a.89.89 0 01-.29.69 1.91 1.91 0 01-.87.41 6.69 6.69 0 01-1.42.1zm.24-2.43a1.43 1.43 0 00-.75.15.51.51 0 00-.25.48.61.61 0 00.11.35.88.88 0 00.29.25.86.86 0 00.39.09 2.38 2.38 0 00.73-.07.31.31 0 00.23-.32v-.8h-.13a2.79 2.79 0 00-.62-.1z"/><path d="M26.22 16a4.72 4.72 0 01-.95-.09 2.3 2.3 0 01-.75-.29 1.29 1.29 0 01-.48-.55 1.94 1.94 0 01-.18-.88 1.57 1.57 0 01.19-.79 1.36 1.36 0 01.59-.54 2.42 2.42 0 011.05-.2 2.58 2.58 0 01.68.08 3.25 3.25 0 01.6.2l.13.07.16.09v-.46a.88.88 0 00-.35-.77 1.62 1.62 0 00-.94-.23 2.82 2.82 0 00-1 .19 4 4 0 00-.62.29v-1.3a3.2 3.2 0 01.78-.28 5.46 5.46 0 011.35-.15 3.68 3.68 0 01.53 0 2.85 2.85 0 01.63.14 2.13 2.13 0 01.58.3 1.47 1.47 0 01.43.52 1.86 1.86 0 01.16.83v2.57a.87.87 0 01-.27.66 1.87 1.87 0 01-.85.4 6.65 6.65 0 01-1.47.19zm.24-2.43a1.56 1.56 0 00-.78.15.58.58 0 00-.27.53.64.64 0 00.12.38.79.79 0 00.31.26.86.86 0 00.41.1 2.58 2.58 0 00.75-.09.37.37 0 00.26-.37v-.84H27.05a2.32 2.32 0 00-.59-.14zM30.85 18a3.55 3.55 0 01-.57 0 2.77 2.77 0 01-.46-.14v-1.37l.29.07a1.87 1.87 0 00.34 0 .94.94 0 00.47-.12.88.88 0 00.35-.42l.06-.18-2.26-5.54H31l1.2 3.76 1.08-3.76h1.79L33 15.9a5.37 5.37 0 01-.64 1.23 2.07 2.07 0 01-.71.66 1.67 1.67 0 01-.8.21z"/><path d="M30.85 17.94a2.6 2.6 0 01-.56-.06 1.64 1.64 0 01-.41-.11v-1.21l.22.05a2.09 2.09 0 00.35 0 1 1 0 00.49-.13.94.94 0 00.37-.45 1.34 1.34 0 00.07-.18l-2.24-5.5h1.79l1.24 3.89 1.12-3.89H35l-2 5.53a5.09 5.09 0 01-.63 1.22 2 2 0 01-.7.64 1.55 1.55 0 01-.82.2z"/></g><path d="M4.43 11.72c-.58-.78-.8-1.48-.53-1.94s1.27-.66 2.5-.38a9.88 9.88 0 01.46-1.71c-1.67-.32-3-.07-3.52.79s-.09 2.11 1 3.39z" fill="url(#pi-linear-gradient-depay)"/><path d="M4.43 11.72l-.09-.13-.13.17.09.11zM6.4 9.4a9.88 9.88 0 01.46-1.71l-.63-.09a10.87 10.87 0 00-.48 1.69 5.89 5.89 0 01.65.11z" opacity=".3"/><path d="M14 11.87a10.26 10.26 0 01-1.28 1.27c.83.94 1.2 1.82.88 2.37s-.93.59-1.82.49c0 .08-.05.15-.07.23 1.6.28 2.88 0 3.37-.82s.1-2.21-1.08-3.54z" fill="url(#pi-linear-gradient-depay-2)"/><path d="M14 11.87a10.26 10.26 0 01-1.28 1.27l.29.35a10.09 10.09 0 001.25-1.3c-.05-.1-.13-.19-.26-.32zM11.82 16c0 .08-.05.15-.07.23l.09-.23z" opacity=".3"/><path d="M6.35 14.36c-1.19.25-2.09.13-2.41-.4-.47-.81.53-2.31 2.32-3.68v-.27c-2.44 1.81-3.75 4-3 5.29.5.86 1.83 1.11 3.49.8a11.63 11.63 0 01-.4-1.74z" fill="url(#pi-linear-gradient-depay-3)"/><path d="M15.09 8.38c-.5-.85-1.8-1.1-3.42-.81l.07.18c1-.13 1.67 0 1.94.49.37.63-.17 1.69-1.29 2.79v1a13.87 13.87 0 01-.08 1.47c2.31-1.8 3.5-3.89 2.78-5.12z" fill="url(#pi-linear-gradient-depay-4)"/><path d="M5.72 14.46a10.64 10.64 0 00.47 1.73l.6-.09a11.63 11.63 0 01-.44-1.74c-.22.04-.43.08-.63.1zM6.26 10.28v-.27c-.26.19-.51.39-.74.59v.28c.24-.2.48-.4.74-.6zM12.39 11v1a13.87 13.87 0 01-.08 1.47l.09-.07a13.49 13.49 0 00.11-1.4v-1zM11.82 7.74l-.07-.19h-.08l.07.18z" opacity=".3"/><path d="M9.29 5.16c-1.73 0-3.13 3.06-3.13 6.84s1.4 6.84 3.13 6.84 3.13-3.06 3.13-6.84S11 5.16 9.29 5.16zm.83 12.53C9 17.69 8 15.16 8 12.05S9 6.4 10.12 6.4s2.11 2.53 2.11 5.65-.94 5.64-2.11 5.64z" fill="url(#pi-linear-gradient-depay-5)"/></svg>