<?xml version="1.0" encoding="utf-8"?>
<!-- Generator: Adobe Illustrator 21.0.0, SVG Export Plug-In . SVG Version: 6.00 Build 0)  -->
<svg version="1.1" id="图层_1" xmlns="http://www.w3.org/2000/svg" xmlns:xlink="http://www.w3.org/1999/xlink" x="0px" y="0px"
	 viewBox="0 0 38 24" style="enable-background:new 0 0 38 24;" xml:space="preserve">
<style type="text/css">
	.st0{fill:#0018A8;}
	.st1{fill:#FFFFFF;}
</style>
<g>
	<path class="st0" d="M7.2,23.9c0-7.9,0-15.8,0-23.7c7.9,0,15.8,0,23.7,0c0,7.9,0,15.8,0,23.7C23,23.9,15.1,23.9,7.2,23.9z
		 M10.5,20.7c0,0,0.1,0,0.1,0c5.6,0,11.3,0,16.9,0c0.1,0,0.1,0,0.1-0.1c0-5.6,0-11.3,0-16.9c0-0.1,0-0.1-0.1-0.1
		c-5.6,0-11.3,0-16.9,0c0,0-0.1,0-0.1,0C10.5,9.3,10.5,15,10.5,20.7z"/>
	<path class="st1" d="M12.5,18.3c0,0,0.1,0,0.1,0c1.4,0,2.7,0,4.1,0c0.1,0,0.1,0,0.2-0.1c2.9-4,5.9-8.1,8.8-12.1
		c0,0,0.1-0.1,0.1-0.1c-0.1,0-0.1,0-0.1,0c-1.3,0-2.7,0-4,0c-0.1,0-0.2,0-0.2,0.1c-2.9,4-5.9,8.1-8.8,12.1
		C12.5,18.2,12.5,18.2,12.5,18.3z"/>
	<path class="st0" d="M12.5,18.3c0,0,0-0.1,0.1-0.1c2.9-4,5.9-8.1,8.8-12.1c0.1-0.1,0.1-0.1,0.2-0.1c1.3,0,2.7,0,4,0
		c0,0,0.1,0,0.1,0c0,0.1-0.1,0.1-0.1,0.1c-2.9,4-5.9,8.1-8.8,12.1c0,0.1-0.1,0.1-0.2,0.1c-1.4,0-2.7,0-4.1,0
		C12.6,18.3,12.5,18.3,12.5,18.3z"/>
</g>
</svg>
