<svg version="1.1" id="图层_1" xmlns="http://www.w3.org/2000/svg" x="0" y="0" viewBox="0 0 38 24" xml:space="preserve"><style type="text/css">.st0{fill:#0018a8}</style><path class="st0" d="M7.2 23.9V.2h23.7v23.7H7.2zm3.3-3.2h17c.1 0 .1 0 .1-.1V3.7c0-.1 0-.1-.1-.1H10.6h-.1v17.1z"/><path d="M12.5 18.3H16.7c.1 0 .1 0 .2-.1 2.9-4 5.9-8.1 8.8-12.1l.1-.1h-4.1c-.1 0-.2 0-.2.1-2.9 4-5.9 8.1-8.8 12.1-.2 0-.2 0-.2.1z" fill="#fff"/><path class="st0" d="M12.5 18.3s0-.1.1-.1c2.9-4 5.9-8.1 8.8-12.1.1-.1.1-.1.2-.1h4.1c0 .1-.1.1-.1.1-2.9 4-5.9 8.1-8.8 12.1 0 .1-.1.1-.2.1h-4.1c.1 0 0 0 0 0z"/></svg>