<svg xmlns="http://www.w3.org/2000/svg" role="img" viewBox="0 0 38 24" width="38" height="24" aria-labelledby="pi-dinacard"><title id="pi-dinacard">Dinacard</title><path fill="#000" opacity=".07" d="M35 0H3C1.3 0 0 1.3 0 3v18c0 1.7 1.4 3 3 3h32c1.7 0 3-1.3 3-3V3c0-1.7-1.4-3-3-3z"/><path fill="#fff" d="M35 1c1.1 0 2 .9 2 2v18c0 1.1-.9 2-2 2H3c-1.1 0-2-.9-2-2V3c0-1.1.9-2 2-2h32"/><path id="path14" fill="#2350a9" d="M2.653 13.2c1.066.376 2.274-.851 1.187-1.682-.758-.302-1.447-.191-1.187.715v.968zm-1.718.924v-3.639c1.302.06 2.645-.16 3.912.203 1.866.583 1.154 3.475-.711 3.382-1.065.088-2.134.043-3.201.054zm5.648-2.955c-.135-.643.075-.936.734-.776.57-.073 1.046-.053.838.659-.23.273-.962.039-1.386.117h-.186zm0 2.955v-2.697h1.572v2.697H6.583zm2.34 0v-2.697c.445.058 1.118-.114 1.426.083.057.564 1.606-.69 2.276.035.85.524.443 1.656.539 2.494-.284.208-.958.022-1.386.085-.39-.102-.058-.933-.168-1.318-.17-1.283-1.51-.254-1.115.656.204.701-.244.744-.815.662h-.757zm7.586-1.2c-.821-.132-1.735.802-.393.616.288-.037.495-.34.393-.616zm.146 1.2c-.5-.428-2.427.788-2.885-.57-.276-1.632 2.693-.545 2.63-1.517-.75-.118-1.22.4-2.01.222-1.335-.208 1.222-1.304 1.866-.92 1.112-.138 2.09.574 1.807 1.735-.159.57.489 1.27-.406 1.05h-1.002zm5.704-1.422h1.608c-.224 1.563-2.22 1.638-3.429 1.444-1.43-.035-2.442-1.815-1.45-2.967 1.106-1.045 2.994-1.047 4.268-.314.866.603.575 1.265-.385 1.006-.911.195-1.546-1.298-2.43-.175-.8 1.325 1.249 2.355 1.818 1.006zm4.79.222c-.833-.134-1.754.798-.4.616.3-.033.478-.336.4-.616zm.145 1.2c-.509-.43-2.424.787-2.9-.57-.137-1.576 2.31-.604 2.736-1.445-.736-.34-1.25.367-2.039.15-1.384.04.656-1.25 1.312-.92 1.053-.132 2.616.196 2.28 1.57-.236.45.461 1.342-.143 1.215h-1.246zm2.194 0v-2.697c.453.057 1.127-.111 1.444.083-.347 1.022 1.538-1.041 1.353.274.44 1.19-1.43.187-1.243 1.397.001.508.166 1.182-.571.943h-.983zm7.421 0c-.43-.061-1.098.12-1.389-.082-.311-.239-2.455.809-2.858-.67-.824-1.862 1.945-2.348 2.712-1.814.098-.396-.29-1.283.408-1.073.411.102 1.315-.295 1.127.412v3.227zm-2.157-.702c1.664-.22-.394-2.245-.64-.628-.038.363.289.665.64.628z"/><path id="path16" fill="#2350a9" d="M9.453 20.275c6.429-.015 12.859.031 19.287-.023 2.876-.195 5.535-2.165 6.597-4.872-1.16-.35-1.237 1.033-1.932 1.662-1.488 1.824-3.882 2.606-6.167 2.44-6.101-.014-12.204.025-18.305-.02-2.479-.163-4.788-1.793-5.805-4.082-1.61-.372-.14 1.33.292 1.973 1.442 1.829 3.716 2.94 6.033 2.922zM35.337 9.543c-1.207-3.142-4.551-5.158-7.854-4.895-6.211.015-12.424-.03-18.634.024-2.874.193-5.522 2.17-6.58 4.871 1.155.352 1.218-1.048 1.917-1.661 1.49-1.82 3.88-2.607 6.164-2.44 6.103.013 12.206-.025 18.308.02 2.48.159 4.788 1.791 5.802 4.081h.877z"/><path id="path18" fill="#ed1c24" d="M18.867 2.468c4.235-.064 8.243 2.982 9.433 7.075H9.398c1.212-4.125 5.201-7.13 9.47-7.075zM28.3 15.38c-1.259 4.378-5.757 7.509-10.26 7.04-3.946-.28-7.52-3.212-8.642-7.04H28.3z"/></svg>