<svg xmlns="http://www.w3.org/2000/svg" width="38" height="24" fill="none" aria-labelledby="pi-dinacard" role="img" viewBox="0 0 38 24"><title id="pi-dinacard">DinaCard</title><path fill="#fff" d="M0 0h38v24H0z"/><path fill="#2350A9" d="M3.547 12.628h.438c.403 0 .684-.07.842-.194.157-.122.245-.35.245-.65 0-.315-.088-.544-.245-.667-.158-.14-.439-.193-.824-.193h-.456zm-1.648.878v-3.46H3.88c.508 0 .877 0 1.14.035q.367.053.63.158c.351.14.632.334.807.597q.263.396.263.949c0 .553-.105.702-.333.983-.21.264-.544.457-.982.597q-.3.09-.613.106-.604.038-1.21.035zm5.417-2.81v-.738h1.507v.738zm0 2.81v-2.564h1.507v2.564zm2.244 0v-2.564h1.367v.386c.167-.15.364-.264.578-.333a2.5 2.5 0 0 1 .737-.106c.228 0 .438.018.613.07.193.053.333.123.456.229.123.105.193.21.245.35.053.124.07.352.07.633v1.335h-1.49V12.17c0-.193-.035-.316-.122-.386-.07-.07-.21-.106-.386-.106-.193 0-.333.035-.438.123-.088.088-.123.193-.123.369v1.335zm7.275-1.142a7 7 0 0 1-.561.106c-.386.07-.561.158-.561.28 0 .07.035.123.105.176q.151.061.315.053c.246 0 .439-.035.544-.123.122-.07.175-.193.175-.369V12.4c0-.017 0-.036-.017-.036m.14 1.142-.088-.246q-.291.161-.613.246c-.228.07-.474.087-.754.087q-.63 0-1-.21a.67.67 0 0 1-.333-.597c0-.264.106-.457.334-.58.227-.105.666-.193 1.297-.263.087 0 .193-.018.333-.018.473-.017.701-.105.701-.228 0-.088-.035-.14-.123-.176-.087-.035-.228-.035-.42-.035a1 1 0 0 0-.351.053c-.088.035-.123.105-.14.193h-1.473c.018-.28.193-.51.526-.65.333-.158.842-.228 1.49-.228.316 0 .596.018.86.07.262.035.472.088.613.158.175.07.315.176.385.264.07.105.106.263.106.456v1.405c0 .053.017.088.035.123.035.053.07.07.122.105v.07zm5.469-1.352h1.543c-.035.456-.28.807-.702 1.07q-.63.37-1.735.37c-.824 0-1.473-.159-1.928-.492-.474-.316-.684-.773-.684-1.317 0-.562.21-1.019.666-1.352.473-.316 1.104-.492 1.91-.492q1.106 0 1.736.369c.421.246.666.597.719 1.053h-1.578a.5.5 0 0 0-.245-.404c-.14-.087-.35-.14-.614-.14-.333 0-.56.07-.718.246-.176.158-.246.386-.246.72 0 .298.088.544.246.702.175.158.438.246.753.246.263 0 .456-.053.614-.158a.63.63 0 0 0 .263-.421m4.593.21q-.287.067-.579.106c-.368.07-.56.158-.56.28 0 .07.034.123.122.176q.105.053.316.053c.245 0 .42-.035.543-.123.105-.07.175-.193.175-.369 0-.035 0-.07-.017-.088zm.14 1.142-.088-.246q-.299.166-.63.246c-.229.07-.474.087-.755.087-.42 0-.753-.07-.981-.21a.69.69 0 0 1-.35-.597.62.62 0 0 1 .35-.58c.228-.105.666-.193 1.297-.263.07 0 .193-.018.316-.018.473-.017.718-.105.718-.228 0-.088-.052-.14-.122-.176-.088-.035-.228-.035-.421-.035-.158 0-.28.018-.35.053a.25.25 0 0 0-.159.193h-1.455c0-.28.176-.51.526-.65.333-.158.824-.228 1.49-.228.316 0 .596.018.86.07.262.035.473.088.613.158.175.07.298.176.368.264.07.105.105.263.105.456v1.405a.16.16 0 0 0 .053.123c.017.053.07.07.123.105v.07zm2.104 0v-2.564h1.384v.474a.86.86 0 0 1 .421-.404c.193-.088.438-.123.736-.123h.14v1.019c-.052-.018-.105-.018-.157-.018h-.14c-.316 0-.526.035-.667.123-.157.088-.227.228-.227.44v1.053zm7.117 0h-1.333v-.316a1.4 1.4 0 0 1-.543.298 2.2 2.2 0 0 1-.701.105q-.711 0-1.157-.368c-.298-.246-.456-.58-.456-1.001 0-.387.158-.72.456-.966.298-.263.683-.386 1.157-.386.228 0 .42.035.613.087.175.053.35.14.491.264v-1.177h1.473zm-2.069-.668c.167.007.33-.05.456-.158.105-.105.158-.246.158-.439s-.053-.333-.158-.421c-.088-.106-.246-.158-.456-.158s-.368.052-.456.158q-.158.132-.158.421c0 .193.053.334.158.44s.263.157.456.157m-24.261 6.515h17.915A7.47 7.47 0 0 0 34.89 14.7h-.841a6.66 6.66 0 0 1-6.066 3.898H10.068A6.68 6.68 0 0 1 4.003 14.7h-.824c1.104 2.722 3.769 4.653 6.89 4.653zM34.89 9.151a7.47 7.47 0 0 0-6.907-4.654H10.068c-3.12 0-5.785 1.932-6.89 4.654h.825a6.68 6.68 0 0 1 6.065-3.899h17.915a6.66 6.66 0 0 1 6.066 3.899z"/><path fill="#ED1C24" d="M19.096 2.425c4.242 0 7.853 2.845 9.045 6.726H10.015c1.193-3.881 4.804-6.726 9.08-6.726zM28.14 14.7c-1.192 3.88-4.803 6.725-9.045 6.725-4.277 0-7.888-2.844-9.08-6.725z"/></svg>