<svg xmlns="http://www.w3.org/2000/svg" xmlns:xlink="http://www.w3.org/1999/xlink" width="38" height="24" fill="none" aria-labelledby="pi-directbanktransferlatinamerica" role="img" viewBox="0 0 38 24"><title id="pi-directbanktransferlatinamerica">Direct Bank Transfer Latin America</title><defs><path id="pi-directbanktransferlatinamerica-b" fill="#fff" d="M0 0h38v24H0z"/></defs><g clip-path="url(#pi-directbanktransferlatinamerica-a)"><use xlink:href="#pi-directbanktransferlatinamerica-b"/><mask id="pi-directbanktransferlatinamerica-c" width="38" height="24" x="0" y="0" maskUnits="userSpaceOnUse" style="mask-type:luminance"><path fill="#fff" d="M0 0h38v24H0z"/></mask><g mask="url(#pi-directbanktransferlatinamerica-c)"><path fill="#086981" d="M14 5.626C13.999 4.732 14.578 4 15.294 4h7.425C23.426 4 24 4.716 24 5.6v12.8c0 .884-.573 1.6-1.281 1.6h-7.438c-.707 0-1.28-.715-1.28-1.6V5.93z"/><path fill="#29CFD4" d="M19.179 19.273a.54.54 0 0 0 .535-.546.54.54 0 0 0-.535-.545.54.54 0 0 0-.536.545c0 .302.24.546.536.546M14.857 6.482c0-.688.477-1.251 1.068-1.251h6.127c.584 0 1.057.55 1.057 1.23v9.847c0 .68-.473 1.23-1.057 1.23h-6.138c-.584 0-1.057-.55-1.057-1.23z"/><path fill="#fff" d="M19.311 9.132a.24.24 0 0 0-.265 0l-2.082 1.4c-.197.133-.104.443.133.443h.147v1.885h3.87v-1.885h.146c.237 0 .33-.31.133-.442zm-2.067 3.728a.196.196 0 0 0-.193.198h.055a.257.257 0 0 0-.249.26v.137H21.5v-.137a.257.257 0 0 0-.249-.26h.055a.196.196 0 0 0-.192-.198z"/><path fill="#000" fill-opacity=".08" d="M19.14 17.539h2.912c.584 0 1.057-.551 1.057-1.231V6.462c0-.68-.473-1.231-1.057-1.231h-3.309c3.97 4.5-2.207 8 .397 12.308"/></g></g><defs><clipPath id="pi-directbanktransferlatinamerica-a"><use xlink:href="#pi-directbanktransferlatinamerica-b"/></clipPath></defs></svg>