<svg xmlns="http://www.w3.org/2000/svg" role="img" viewBox="0 0 38 24" width="38" height="24" aria-labelledby="pi-divido"><title id="pi-divido">divido</title><path d="M5.87 7.79v2.29l-.21-.17c-.31-.24-.71-.48-1.03-.59-.39-.15-1.24-.18-1.72-.07-1.15.26-2.09 1.24-2.4 2.49-.15.61-.12 1.75.06 2.28.33 1 .97 1.73 1.83 2.11.41.18.76.25 1.3.25.73 0 1.33-.2 1.9-.64l.27-.2v.64h1.64V5.52H5.87v2.29zm-1.11 2.99c.74.33 1.17 1.04 1.17 1.97 0 .76-.21 1.29-.67 1.7-.39.35-.65.45-1.24.45-.43 0-.52-.01-.78-.13-1.23-.59-1.55-2.49-.59-3.55.51-.57 1.4-.75 2.11-.44zM9.29 5.6c-.63.28-.82 1.13-.36 1.63.28.31.81.45 1.2.3.21-.07.47-.33.59-.57.41-.85-.54-1.76-1.43-1.37zm11.65-.05c-.23.07-.49.3-.6.52-.2.4-.1.98.21 1.26.47.41 1.26.33 1.62-.17.14-.19.15-.25.15-.6 0-.33-.02-.41-.13-.57-.2-.28-.48-.44-.82-.46-.16-.01-.35 0-.43.02zm6.86 2.24v2.28l-.32-.25c-.59-.46-1.12-.65-1.85-.65-.93 0-1.54.24-2.18.86-.61.6-.92 1.18-1.05 1.97-.34 2.03.73 3.9 2.47 4.29.42.09 1.17.09 1.53 0 .39-.1.8-.3 1.12-.55l.28-.22v.64h1.64V5.5H27.8v2.28zm-1.37 2.9c1.01.25 1.62 1.32 1.43 2.5-.12.74-.52 1.32-1.13 1.59-.25.11-.36.13-.78.13-.55 0-.81-.08-1.16-.38-.52-.45-.78-1.1-.74-1.93.02-.43.05-.53.21-.86.44-.88 1.25-1.28 2.16-1.05zm6.63-1.44c-1.55.34-2.72 1.69-2.82 3.25-.07 1.14.34 2.19 1.13 2.92.69.63 1.38.9 2.36.94.94.03 1.58-.11 2.29-.55.39-.23.97-.82 1.19-1.19.54-.9.64-2.24.24-3.22-.39-.95-1.24-1.73-2.25-2.06-.36-.12-.51-.14-1.11-.15-.47-.01-.8.01-1.02.06zm1.34 1.42c1 .21 1.59.99 1.59 2.13 0 1.24-.72 2.05-1.88 2.12-1.22.07-2.08-.69-2.17-1.95-.11-1.53 1.02-2.6 2.47-2.3zM8.91 12.75v3.42h1.64V9.33H8.91v3.42zm2.73-3.36c.01.1 3.53 7.21 3.58 7.22.05.01 3.62-7.1 3.62-7.22 0-.04-.23-.06-.91-.06h-.92l-.87 1.86c-.48 1.02-.89 1.86-.91 1.86-.02 0-.43-.84-.91-1.86l-.87-1.86h-.91c-.7 0-.92.01-.92.06zm7.26 3.32c-.86 1.86-1.57 3.4-1.59 3.42-.01.02.36.04.82.04h.84l1.54-3.33c.85-1.84 1.56-3.37 1.58-3.42.04-.09 0-.09-.8-.09h-.83l-1.57 3.38z" fill="#3e445f"/></svg>