<svg xmlns="http://www.w3.org/2000/svg" width="38" height="24" fill="none" aria-labelledby="pi-dnb" role="img" viewBox="0 0 38 24"><title id="pi-dnb">DNB</title><g clip-path="url(#pi-dnb-a)"><path fill="#007582" d="M0 0h38v24H0z"/><path fill="#007582" d="M0 21.91h38V2.466H0z"/><path fill="#fff" d="M29.696 16.56h-2.842v-4.148h3.236c1.412 0 2.397.794 2.397 1.93 0 .549 0 2.218-2.791 2.218m-2.842-8.744h2.404c.847 0 1.48.143 1.88.426.26.184.609.534.609 1.432 0 1.61-1.268 1.735-1.657 1.735h-3.236zm6.337 8.007c.199-.425.3-.923.3-1.48 0-.85-.362-1.613-1.018-2.15a3.2 3.2 0 0 0-.562-.367l-.054-.028.045-.04c.387-.34.848-.978.848-2.084 0-1.01-.348-1.768-1.034-2.252-.581-.41-1.385-.61-2.458-.61h-3.082a.326.326 0 0 0-.325.326v10.099c0 .18.146.326.325.326h3.52c1.11 0 1.998-.238 2.64-.706a2.66 2.66 0 0 0 .855-1.034M23.132 17.61a.31.31 0 0 0 .309-.308V-.535h-1.006V15.29l-6.613-8.43a.31.31 0 0 0-.498 0 .3.3 0 0 0-.059.181v17.87h1.005V9.059l6.614 8.425a.31.31 0 0 0 .248.126M8.466 16.56H6.221V7.816h2.245c.825 0 1.982.213 2.812 1.231.891 1.094.96 2.73.96 3.205 0 .709-.125 2.051-.96 3.076-.83 1.018-1.987 1.232-2.812 1.232m3.59-.598c1.03-1.265 1.185-2.868 1.186-3.71 0-.717-.116-2.525-1.187-3.838a4.2 4.2 0 0 0-1.698-1.249 5 5 0 0 0-1.89-.352H5.542a.326.326 0 0 0-.325.326v10.098c0 .18.146.326.325.326h2.923c.677 0 1.313-.119 1.891-.353a4.2 4.2 0 0 0 1.698-1.248"/></g><defs><clipPath id="pi-dnb-a"><path fill="#fff" d="M0 0h38v24H0z"/></clipPath></defs></svg>