<svg xmlns="http://www.w3.org/2000/svg" xmlns:xlink="http://www.w3.org/1999/xlink" width="38" height="24" fill="none" aria-labelledby="pi-docomo_barai" role="img" viewBox="0 0 38 24"><title id="pi-docomo_barai">DOCOMO Barai</title><defs><path id="pi-docomo_barai-b" fill="#fff" d="M0 0h38v24H0z"/></defs><g clip-path="url(#pi-docomo_barai-a)"><use xlink:href="#pi-docomo_barai-b"/><path fill="#fff" d="M0 0h38v24H0z"/><path fill="#000" d="M24.96 10.118v.756h-.704v.928l.709-.261v.798l-.74.354c0 .419-.003.853 0 1.287.009.967-.264 1.209-1.297 1.112l-.304-.79.731-.084v-1.225l-.832.184-.175-.804 1.035-.28v-1.197h-.844v-.78c.167-.008.757.006.893 0V9h.802v1.116l.727.002zm-6.993 2.195c0 .45-.019.844.005 1.236.024.396.31.534.666.541.6.012 1.202.009 1.804.011h.462v.793c-1.006 0-2.015.043-3.018-.017-.537-.032-.843-.45-.88-.981-.034-.509-.007-1.022-.007-1.573h-1.735v-.846h1.667v-1.178h-1.362V9.49h5.305v.777h-2.89v1.182h3.211v.865zm-3.85-2.659v5.12h-5.15v-.838h4.155v-3.422H8.996v-.86z"/><path fill="#000" d="m25.785 13.951 1.53-.373-.553-1.43.741-.39 1.145 2.988-.828.41-.24-.729-3.098.638-.19-.868.534-.144q.61-2.437 1.25-4.983l.88.138-1.17 4.743zM7.858 11.969v.976l-3.893-.921v3.055H3V9.222h.94v1.848zm24.568 1.351v1.063c-.307.142-.618.325-.954.432-.854.272-1.554.006-1.857-.837-.158-.44-.274-.982-.27-1.445.008-.984.106-1.968.168-2.979h.95c-.075.844-.17 1.668-.212 2.495-.02.404.018.822.11 1.216.167.72.625.904 1.29.553.254-.134.486-.31.775-.497zm.442-3.605h1.05c.877 1.43 1.093 3.006 1.081 4.666h-.909c-.018-1.625-.23-3.21-1.222-4.666m-25.508.662h-.592v-.961h.593v.961zm-1.477-.963h.593v.962h-.593z"/></g><defs><clipPath id="pi-docomo_barai-a"><use xlink:href="#pi-docomo_barai-b"/></clipPath></defs></svg>