<svg id="pi-layer-1" xmlns="http://www.w3.org/2000/svg" width="38" height="24" viewBox="0 0 38 24" role="img" aria-labelledby="pi-dopple"><title id="pi-dopple">Dopple</title><rect fill="#fff" x="0" y="0" width="38" height="24" rx="3" ry="3"/><path fill="#f66" d="M18.55 8.98c-.51 0-1 .11-1.42.31V9h-1.78v7.92h1.78v-1.94c.43.2.91.31 1.42.31 1.79 0 3.2-1.32 3.2-3.18s-1.41-3.14-3.2-3.14zm0 4.66c-.8 0-1.42-.68-1.42-1.5s.63-1.5 1.41-1.5c.84 0 1.43.71 1.43 1.5s-.59 1.5-1.42 1.5zM25.22 8.98c-.51 0-1 .11-1.42.31V9h-1.78v7.92h1.78v-1.94c.43.2.91.31 1.42.31 1.79 0 3.2-1.32 3.2-3.18s-1.41-3.14-3.2-3.14zm0 4.66c-.8 0-1.42-.68-1.42-1.5s.63-1.5 1.41-1.5c.84 0 1.43.71 1.43 1.5s-.59 1.5-1.42 1.5zM6.63 7.56c-.56-.31-1.34-.48-2.32-.48h-2.7v1.78h2.93c1.17 0 1.88.78 1.88 2.19s-.73 2.17-1.9 2.17h-.91V8.98c-.52.23-1.49.69-2.02.95v5.06h2.84c2.47 0 4.02-1.35 4.02-3.96 0-1.62-.71-2.84-1.83-3.48zM11.86 8.86c-1.78 0-3.2 1.32-3.2 3.16s1.39 3.16 3.2 3.16 3.2-1.32 3.2-3.18-1.41-3.14-3.2-3.14zm0 4.66c-.8 0-1.42-.69-1.42-1.5s.63-1.5 1.41-1.5c.84 0 1.43.71 1.43 1.5s-.59 1.5-1.42 1.5zM28.69 7.08h1.78V15h-1.78zM36.96 12.1c0-1.84-1.36-3.24-3.14-3.24s-3.12 1.48-3.12 3.19 1.43 3.15 3.15 3.15c1.25 0 2.33-.76 2.9-2.06h-1.82c-.29.37-.6.56-1.08.56-.73 0-1.3-.45-1.39-1.12h4.45c.03-.16.04-.3.04-.47zm-4.47-.73c.14-.63.7-1.02 1.34-1.02.69 0 1.22.41 1.36 1.02h-2.7zM35.99 7.89v.16h-.28v.76h-.19v-.76h-.28v-.16h.75zM36.72 7.89H37v.93h-.18v-.63-.08-.08l-.18.78h-.19l-.17-.78v.79h-.18v-.93h.28l.17.73.17-.73z"/></svg>