<svg xmlns="http://www.w3.org/2000/svg" width="38" height="24" viewBox="0 0 38 24" role="img"
     aria-labelledby="pi-dpo-orangemoney">
    <title id="pi-dpo-orangemoney">Orange Money</title>
    <g id="pi-dpo-orangemoney-svgg" fill-rule="evenodd">
        <path d="M17.722 5.872a1.072 1.072 0 00-.274.13 13.22 13.22 0 00-.744.766c-.122.156-1.062 1.095-1.231 1.229a1.447 1.447 0 00-.233.213.825.825 0 01-.07.068 1.826 1.826 0 00-.147.17 16.564 16.564 0 01-1.342 1.325c-.169.07-.163.112-.17-1.216a5.033 5.033 0 00-.049-1.256.896.896 0 00-.222-.296.752.752 0 01-.13-.085 1.293 1.293 0 00-.174-.113 2.379 2.379 0 01-.14-.076.65.65 0 00-.455.023.546.546 0 01-.135.083.982.982 0 00-.384.372 2.68 2.68 0 01-.082.161 23.86 23.86 0 00-.034 2.542v2.484l.091.176a.799.799 0 00.35.388.886.886 0 01.15.08 11.62 11.62 0 002.527.054l2.456.006.095-.05a1.434 1.434 0 01.199-.081.81.81 0 00.463-.742 1.472 1.472 0 00-.14-.566c-.012 0-.047-.041-.08-.092s-.07-.093-.085-.093a.52.52 0 01-.133-.067c-.176-.112-.263-.119-1.48-.119-1.325 0-1.261.012-1.123-.209a.439.439 0 01.127-.147.084.084 0 00.054-.055.187.187 0 01.08-.085c.036-.022.067-.05.067-.062s.034-.043.075-.068a4.143 4.143 0 00.585-.578.195.195 0 01.072-.081c.031-.021.057-.053.057-.072s.01-.034.02-.034a1.95 1.95 0 00.328-.325c0-.01.021-.024.048-.03a.094.094 0 00.06-.061c.007-.027.021-.048.031-.048a2.077 2.077 0 00.325-.324c0-.01.021-.024.048-.031a.094.094 0 00.06-.061c.007-.027.021-.048.031-.048a1.95 1.95 0 00.324-.327.025.025 0 01.028-.021.287.287 0 00.103-.075c.041-.042.092-.091.112-.11a1.688 1.688 0 00.221-.256c0-.01.021-.023.046-.03a.125.125 0 00.07-.072c.012-.033.033-.06.045-.06a1.634 1.634 0 00.303-.302c0-.01.022-.023.048-.03a.094.094 0 00.06-.06c.008-.027.021-.049.03-.049a1.446 1.446 0 00.298-.301 1.222 1.222 0 01.085-.134 1.079 1.079 0 00.072-.6.671.671 0 00-.199-.46 20.67 20.67 0 01-.101-.1.275.275 0 00-.111-.075.994.994 0 01-.182-.058.741.741 0 00-.594.021m4.454-.03c-.057.063-.071 12.1-.014 12.156.025.025 1.138.03 6.03.03h6l.018-.124c.025-.171.011-12.02-.014-12.07-.018-.039-.327-.04-5.998-.04H22.22l-.044.048m10.845 8.868a.138.138 0 01.004.13.74.74 0 00-.026.197.265.265 0 01-.045.176l-.044.055-.026-.066a1.3 1.3 0 01-.046-.213.839.839 0 00-.047-.193c-.04-.076.014-.142.117-.142.064 0 .09.012.113.056m.775-.008c.056.044.06.062.06.22v.172h-.079c-.059 0-.083.012-.094.046-.045.143-.147.154-.24.025l-.063-.087-.068.09c-.094.125-.13.084-.15-.177a.96.96 0 00-.032-.214c-.037-.037.064-.1.16-.1.103 0 .13.02.193.143.05.096.077.095.106-.007.047-.16.104-.192.207-.111m-10.016.58a.503.503 0 01.238.079.419.419 0 00.115.068.213.213 0 01.093.079.586.586 0 00.078.097 1.744 1.744 0 01.168.488 1.615 1.615 0 01-.17.688.81.81 0 00-.081.114.312.312 0 01-.209.148.82.82 0 00-.175.058.688.688 0 01-.302.058.485.485 0 01-.273-.058.545.545 0 00-.14-.058.357.357 0 01-.2-.159.596.596 0 00-.076-.108.64.64 0 01-.085-.197 1.577 1.577 0 00-.063-.191 1.077 1.077 0 010-.417c.011-.03.04-.12.062-.2a.342.342 0 01.093-.181.166.166 0 00.063-.08.175.175 0 01.095-.08c.046-.02.083-.043.083-.054 0-.088.375-.14.686-.093m3.132.01a.298.298 0 01.14.052 1.502 1.502 0 00.12.094c.141.1.144.115.144.883v.696l-.058.038c-.059.039-.125.038-.429-.005a.975.975 0 00-.324.037l-.221.05-.197-.065c-.167-.055-.202-.076-.23-.135a.564.564 0 00-.075-.117c-.18-.2.02-.716.302-.778a.544.544 0 00.164-.067 1.2 1.2 0 01.442-.099.116.116 0 00.066-.195c-.047-.057-.303-.033-.375.035-.184.172-.503.08-.503-.144a.208.208 0 01.148-.154.378.378 0 00.113-.059 1.302 1.302 0 01.773-.067m2.012.01a.431.431 0 01.261.339 7.515 7.515 0 01.006 1.338.3.3 0 01-.416.056l-.079-.053-.013-.58c-.015-.69-.02-.715-.162-.724a.307.307 0 00-.184.041 2.19 2.19 0 01-.157.083l-.075.034v.565c0 .536-.003.568-.048.626a.357.357 0 01-.459-.044 13.1 13.1 0 01-.006-1.518.305.305 0 01.446-.105c.07.072.102.072.206 0a.98.98 0 01.68-.057m1.517-.01a.191.191 0 01.13.057c.03.044.032.044.07.001a.426.426 0 01.454 0c.047.045.048.066.048.932v.887l-.058.109a.56.56 0 00-.058.138.657.657 0 01-.274.241c-.034.008-.12.031-.19.052a1.113 1.113 0 01-.602-.002.235.235 0 00-.112-.04c-.071 0-.123-.03-.216-.122-.23-.226.058-.462.37-.304.22.111.513.084.578-.055.069-.147.002-.18-.243-.119-.297.075-.712-.102-.764-.326a.791.791 0 00-.075-.164 1.2 1.2 0 01.003-.814.484.484 0 00.064-.14.666.666 0 01.199-.23l.085-.065a.992.992 0 01.591-.036m1.87-.013a.553.553 0 01.275.075.878.878 0 01.289.292 1.837 1.837 0 00.07.196c.156.377.077.433-.612.433-.525 0-.522 0-.498.107a.357.357 0 00.578.199c.24-.154.465-.085.473.146.008.204-.182.319-.676.41a.776.776 0 01-.788-.44.603.603 0 00-.07-.167 1.042 1.042 0 01.01-.74.297.297 0 00.05-.106.518.518 0 01.224-.27c.035-.014.064-.035.064-.045 0-.037.104-.076.243-.092.077-.009.145-.017.151-.019s.104.008.217.02m-7.165.077l.048.059.069-.056c.161-.13.413-.086.443.076.037.197-.055.32-.268.358-.217.038-.232.081-.232.673a2.698 2.698 0 01-.027.514c-.068.15-.42.142-.503-.011a8.467 8.467 0 01.022-1.61.387.387 0 01.448-.003m5.027.31a.112.112 0 00-.073.065.233.233 0 01-.073.09c-.118.082-.09.544.04.671.35.34.742-.243.46-.683a.282.282 0 00-.354-.142m1.81-.002a.046.046 0 00-.028.038.23.23 0 01-.06.089l-.061.063.09.025a.936.936 0 00.42 0l.071-.025-.058-.085a.325.325 0 00-.373-.105m-8.588.108c-.101.05-.106.056-.147.224-.113.453.189.81.48.566a.295.295 0 01.081-.055c.064 0 .093-.406.042-.577a.321.321 0 00-.456-.158M3.854 16.1c-.24.085-.325.196-.408.525a.626.626 0 00-.007.426c.087.386.217.523.55.58.238.04.642-.036.642-.123 0-.01.036-.041.08-.067a.328.328 0 00.118-.135c.021-.05.06-.131.088-.182a.741.741 0 00-.012-.572 1.549 1.549 0 01-.084-.18.164.164 0 00-.082-.093.234.234 0 01-.092-.072.873.873 0 00-.793-.107m8.205.01a2.899 2.899 0 00-.023.748l.006.728.077.022c.122.035.13.011.145-.436.017-.55.075-.658.182-.342a.996.996 0 00.095.209.703.703 0 01.078.212c.053.251.155.384.272.355.09-.022.11-.049.14-.188a.693.693 0 01.067-.19.898.898 0 00.08-.197.482.482 0 01.153-.25c.152-.147.16-.126.16.376 0 .451.03.524.173.43l.06-.04v-.691c0-.812.017-.764-.269-.764-.174 0-.242.035-.242.126a.51.51 0 01-.056.149 1.137 1.137 0 00-.084.27c-.083.47-.37.583-.37.146a.412.412 0 00-.05-.147 1.442 1.442 0 01-.092-.266c-.059-.235-.108-.278-.317-.278a.628.628 0 00-.185.019m-7.752.144a.665.665 0 01.107.08.254.254 0 00.081.058c.081 0 .14.45.093.708-.026.139-.04.16-.207.294a.382.382 0 01-.435.01.51.51 0 00-.105-.073c-.177-.092-.197-.894-.024-.95a.54.54 0 00.119-.081.393.393 0 01.372-.046m22.26.007c-.279.055-.337.406-.068.409a.319.319 0 00.246-.12c.062-.089.038-.331-.032-.318l-.147.03m-20.092.223a.092.092 0 01-.068.023.321.321 0 00-.12.035.305.305 0 01-.106.035c-.061 0-.106.184-.055.222.042.03.199-.003.199-.042 0-.058.126-.134.225-.134.318 0 .278.4-.042.412-.24.01-.287.024-.389.124-.236.232-.02.53.332.457a1.543 1.543 0 01.316-.013c.32.018.31.034.302-.445-.008-.547-.062-.65-.343-.65a.087.087 0 01-.065-.024.197.197 0 00-.186 0m1.42.035c-.124.064-.218.073-.28.028a.164.164 0 00-.22.045 3.978 3.978 0 00.005.98c.164.136.21.06.224-.369.015-.47.096-.596.34-.53.163.045.17.065.19.564l.015.347.078.023c.13.037.142-.003.142-.449 0-.528-.01-.552-.264-.667-.088-.04-.1-.038-.23.028m1.02.007a.517.517 0 00-.288.509l-.012.19.1.153c.117.18.182.22.367.22.155 0 .252-.03.294-.088.06-.082.171.122.127.234a.513.513 0 01-.21.202.35.35 0 01-.275-.06c-.15-.126-.35-.094-.254.041.073.103.171.134.426.134.29 0 .422-.074.523-.294a5.29 5.29 0 00.027-1.18.2.2 0 00-.216-.043c-.08.045-.124.04-.267-.025a.285.285 0 00-.342.007m1.515-.037l-.131.056a.407.407 0 01-.096.032c-.013 0-.045.034-.071.075s-.065.099-.086.127c-.077.105-.063.633.017.633.011 0 .042.036.069.08.1.17.762.188.762.022a.083.083 0 01.046-.056c.081-.043.057-.092-.044-.092a.193.193 0 00-.16.07.291.291 0 01-.48-.142c-.027-.146.01-.16.391-.16.39 0 .385.002.368-.205-.012-.157-.144-.375-.226-.375a.565.565 0 01-.13-.046c-.114-.052-.146-.055-.229-.02m3.897.033c-.233.09-.292.16-.326.392a.611.611 0 00.193.657.72.72 0 00.729-.077c.227-.238.132-.94-.127-.94a.102.102 0 01-.06-.015c-.08-.081-.227-.087-.409-.017m1.545-.013a.369.369 0 01-.334.041.13.13 0 00-.161.015l-.075.048v.932l.076.041c.07.038.082.039.147.005l.071-.037.013-.32c.02-.467.058-.554.249-.566.209-.014.282.126.3.576.015.376.025.399.15.339l.087-.041-.01-.337c-.012-.454-.054-.584-.216-.677-.131-.076-.235-.082-.297-.02m1.095.018c-.287.117-.38.317-.333.722.034.29.287.433.658.372.072-.012.138-.021.147-.021.04 0 .208-.19.196-.221-.025-.066-.172-.043-.245.037a.316.316 0 01-.48-.039c-.086-.207-.029-.241.4-.241.391 0 .394-.002.372-.213-.015-.144-.138-.336-.22-.342a.261.261 0 01-.08-.03.358.358 0 00-.415-.024m-11.753.043a4.9 4.9 0 000 1.01c.02.038.04.045.096.033.129-.025.133-.038.133-.38v-.314l.11-.1a1.096 1.096 0 01.213-.152l.102-.05-.063-.054c-.073-.063-.113-.068-.153-.019-.036.044-.164.044-.305.002-.105-.032-.107-.032-.133.024m12.699-.001c-.024.062-.017.1.044.232a1.465 1.465 0 01.082.236.727.727 0 00.072.185c.144.233.137.58-.012.618-.072.018-.131.147-.082.179.112.07.415-.048.415-.163a.473.473 0 01.06-.14 1.366 1.366 0 00.1-.254 1.304 1.304 0 01.09-.234.943.943 0 00.074-.22.58.58 0 01.058-.174c.113-.134.095-.302-.033-.302-.1 0-.117.028-.161.248a.738.738 0 01-.071.197.32.32 0 00-.047.114.173.173 0 01-.056.089l-.056.052-.047-.047a.3.3 0 01-.064-.135.908.908 0 00-.07-.198.513.513 0 01-.055-.163c0-.129-.2-.228-.241-.12m-8.578.112c.131.068.179.168.179.377v.19l-.114.109c-.31.297-.747-.229-.464-.558a.295.295 0 00.056-.081c0-.063.243-.09.343-.037m1.367.027c.043.028.053.055.053.147 0 .15-.03.17-.244.17-.209 0-.244-.023-.243-.154.002-.196.245-.287.434-.163m3.925-.034c.258.077.265.726.01.81-.292.096-.476-.144-.406-.527.051-.276.16-.354.396-.283m2.691.04c.072.053.096.232.038.28a.662.662 0 01-.434-.012.24.24 0 01.008-.259.347.347 0 01.388-.01m-10.596.448a.253.253 0 01-.013.288c-.076.116-.454.062-.454-.065a.264.264 0 01.235-.247c.157-.03.179-.028.232.024"
              fill="#f46f28"/>
        <path d="M4.954 6.75a5.448 5.448 0 01-.22.104.91.91 0 00-.393 1.083.615.615 0 01.058.144c0 .083.344.383.48.418a.662.662 0 01.167.062 8.885 8.885 0 001.145.039c1.188.012 1.177.011 1.177.123a3.414 3.414 0 01-.441.437c-.109.082-.872.846-.948.947-.08.108-1.153 1.183-1.18 1.183a.225.225 0 00-.08.064c-.032.035-.149.152-.259.26a1.75 1.75 0 00-.2.214 4.145 4.145 0 01-.307.333c-.255.26-.352.365-.43.46a1.13 1.13 0 00-.121.65c.013.04.04.132.06.206a.832.832 0 00.317.42c.041.024.107.066.145.093a1.353 1.353 0 00.722.01.726.726 0 01.156-.087 2.344 2.344 0 00.56-.526c.074-.097 1.075-1.111 2.355-2.387.436-.433.817-.827.848-.875.061-.094.11-.107.19-.051l.051.036v1.1a7.335 7.335 0 00.032 1.187c.018.049.044.13.058.182a1.083 1.083 0 00.757.528.942.942 0 00.425-.044.759.759 0 01.143-.086.78.78 0 00.374-.453l.067-.178V7.498l-.065-.182a.967.967 0 00-.431-.503A3.644 3.644 0 0110 6.726a16.513 16.513 0 00-2.482-.046l-2.412-.006-.153.076"
              fill="#9c9c9d"/>
        <path d="M1.999.12c0 .028-.033.036-.141.037-.256.003-.336.026-.345.1-.007.061-.015.065-.127.065-.163 0-.196.017-.196.098 0 .063-.008.069-.086.069-.078 0-.086.006-.086.07 0 .06-.01.07-.08.077C.87.642.859.653.853.719.845.785.834.796.766.802.697.81.686.82.68.887.673.955.664.964.6.964c-.066 0-.072.007-.072.083s-.006.084-.07.084c-.084 0-.101.032-.101.192 0 .113-.003.117-.07.117-.082 0-.1.062-.101.327 0 .116-.009.148-.037.148-.033 0-.037 1.134-.037 10.06s.004 10.058.037 10.058c.028 0 .037.032.038.137.002.248.026.326.103.334.063.008.067.015.067.131 0 .146.016.175.098.186.049.007.063.024.069.086.007.068.016.077.078.077s.071.01.078.078.017.078.086.084c.068.007.08.017.086.084.006.066.017.076.087.083.07.006.08.016.08.077s.008.07.07.07c.057 0 .073.013.092.077.022.076.027.078.175.085.15.007.153.008.153.074 0 .083.032.097.222.097.113 0 .145.008.145.036 0 .031 1.91.035 17.042.035s17.041-.004 17.041-.035c0-.03.038-.036.19-.036.26 0 .3-.014.3-.097 0-.066.003-.067.153-.074.15-.007.154-.01.177-.085.019-.063.036-.077.092-.077.06 0 .068-.01.068-.071 0-.064.008-.072.074-.072a.356.356 0 00.27-.261c0-.064.007-.072.073-.072s.073-.008.073-.07c0-.055.011-.072.047-.072.109 0 .125-.023.125-.18v-.15l.08-.008c.079-.007.079-.007.086-.156.006-.11.017-.148.043-.148.031 0 .036-1.302.036-10.226S37.84 1.75 37.81 1.75c-.026 0-.037-.038-.043-.149-.007-.148-.007-.148-.087-.156l-.08-.007v-.304l-.085-.016c-.074-.013-.086-.025-.086-.082a.237.237 0 00-.077-.145.396.396 0 01-.093-.15.093.093 0 00-.088-.086.413.413 0 01-.155-.09.244.244 0 00-.153-.075c-.054 0-.07-.011-.07-.046 0-.09-.029-.12-.11-.12a.244.244 0 01-.171-.084.253.253 0 00-.236-.083c-.113 0-.145-.008-.145-.036 0-.032-1.913-.036-17.066-.036S1.999.088 1.999.12M18.32 5.698a.452.452 0 01.159.08.255.255 0 00.11.062.787.787 0 01.26.239c0 .011.025.04.055.064a.219.219 0 01.07.144.688.688 0 00.061.186.597.597 0 010 .468.513.513 0 00-.061.172.307.307 0 01-.069.157.745.745 0 00-.093.121.188.188 0 01-.083.08.123.123 0 00-.065.071.18.18 0 01-.081.087.145.145 0 00-.072.07.18.18 0 01-.082.078c-.037.02-.067.046-.067.06 0 .03-.047.077-.1.097a.112.112 0 00-.056.056c-.02.053-.066.1-.098.1-.014 0-.038.026-.053.06a.235.235 0 01-.092.092c-.036.019-.065.046-.065.06a2.522 2.522 0 01-.415.412c-.027.015-.05.037-.05.05 0 .032-.046.078-.098.097a.111.111 0 00-.057.057c-.02.052-.066.1-.097.1-.013 0-.04.03-.06.067a.181.181 0 01-.078.082.144.144 0 00-.07.072.177.177 0 01-.084.08.16.16 0 00-.081.08.177.177 0 01-.08.086.145.145 0 00-.072.07.181.181 0 01-.082.078c-.037.02-.068.05-.068.07s-.03.053-.068.075a.255.255 0 00-.093.092.189.189 0 01-.082.079.143.143 0 00-.071.069.235.235 0 01-.07.086c-.031.025-.057.055-.057.068a4.122 4.122 0 01-.528.538.385.385 0 00-.118.093.412.412 0 01-.116.093c-.013 0-.03.022-.038.048a.145.145 0 01-.071.073c-.07.032-.073.078-.004.096.028.008.486.015 1.017.015.937 0 1.093.01 1.136.074a.325.325 0 00.132.034.51.51 0 01.184.058l.14.092c.041.027.076.057.076.067a.334.334 0 00.078.094.342.342 0 01.093.141 1.151 1.151 0 00.074.195.858.858 0 01-.007.645.389.389 0 00-.066.142.373.373 0 01-.105.165.356.356 0 00-.09.117c0 .015-.05.046-.11.068a.62.62 0 00-.159.083c-.094.084-.245.09-2.737.09-2.576 0-2.628-.003-2.725-.106a.177.177 0 00-.083-.057.845.845 0 01-.264-.25.219.219 0 00-.056-.087c-.106-.114-.107-.156-.1-2.854l.006-2.553.07-.103c.037-.056.08-.124.092-.15a1.153 1.153 0 01.281-.266.744.744 0 00.148-.08c.184-.12.765-.113.765.008 0 .012.047.04.104.062a.339.339 0 01.137.09.268.268 0 00.106.082c.039.016.071.043.071.06a.138.138 0 00.054.073.26.26 0 01.108.209.401.401 0 00.047.152c.044.083.046.13.046 1.082 0 1.015.004 1.069.086 1.069.028 0 1.283-1.284 1.283-1.313a1.837 1.837 0 01.263-.264c.034 0 1.29-1.235 1.29-1.269 0-.021.012-.034.49-.514.291-.293.371-.361.456-.387a.476.476 0 00.146-.07 1.105 1.105 0 01.653-.058m15.913.003c.13.06.12-.383.128 6.145.007 6.345.01 6.144-.077 6.23l-.055.056h-6.064c-5.936 0-6.065-.001-6.119-.045l-.054-.044v-6.096c0-6.386-.003-6.207.098-6.244.092-.034 12.069-.036 12.143-.002m-24.272.927a.356.356 0 01.168.082.174.174 0 00.096.056 1.06 1.06 0 01.39.397.41.41 0 00.067.134c.07.082.075.264.067 2.79l-.007 2.358-.053.071a.435.435 0 00-.066.142.814.814 0 01-.217.295 1.545 1.545 0 01-.174.118l-.14.085h-.34c-.336 0-.341 0-.406-.06a.466.466 0 00-.147-.088.849.849 0 01-.347-.35 1.198 1.198 0 00-.08-.163c-.046-.078-.048-.116-.06-1.199-.012-1.185-.018-1.243-.111-1.093-.027.043-.406.434-.844.87-1.672 1.667-2.38 2.39-2.428 2.482a.145.145 0 01-.069.064.156.156 0 00-.072.069.237.237 0 01-.082.083.234.234 0 00-.082.082.227.227 0 01-.101.083 1.136 1.136 0 00-.158.085 1.24 1.24 0 01-.942-.003.9.9 0 00-.128-.084.243.243 0 01-.09-.08.346.346 0 00-.078-.089.417.417 0 01-.094-.15.652.652 0 00-.055-.122.959.959 0 01-.021-.682.48.48 0 00.07-.14c.027-.1.074-.156.455-.541a4.468 4.468 0 00.308-.328 1.194 1.194 0 01.145-.171 18.4 18.4 0 00.182-.196 1.143 1.143 0 01.235-.192c.028 0 1.154-1.14 1.154-1.169a3.863 3.863 0 01.481-.507 4.365 4.365 0 01.505-.481c.05-.002.408-.367.377-.387-.016-.01-.53-.024-1.143-.03-1.084-.012-1.115-.014-1.194-.062a.928.928 0 00-.166-.076 1.142 1.142 0 01-.407-.393.502.502 0 00-.076-.124c-.1-.107-.08-.807.022-.807a.246.246 0 00.056-.093.824.824 0 01.35-.338.463.463 0 00.147-.072.507.507 0 01.185-.076c.172-.03 4.783-.029 4.918 0m13.405 8.736c-.035.006-.064.02-.064.03a.51.51 0 01-.15.09.458.458 0 00-.151.094.45.45 0 01-.08.116 1.22 1.22 0 00-.018.943.176.176 0 01.06.088c.092.367 1.006.376 1.208.011a.384.384 0 01.084-.117c.096-.031.077-.79-.023-.907a1.453 1.453 0 01-.1-.134.244.244 0 00-.145-.09.577.577 0 01-.164-.075.896.896 0 00-.457-.05m3.096 0c-.041.007-.075.02-.075.03a.482.482 0 01-.163.072c-.19.06-.192.064-.16.159.032.09.093.094.195.016a.73.73 0 01.465-.072c.104.015.11.02.165.144.077.176.018.24-.253.273a.301.301 0 00-.133.033.62.62 0 01-.297.096.19.19 0 00-.13.052.634.634 0 01-.094.076.542.542 0 00-.122.263.583.583 0 00.172.436 1.575 1.575 0 00.648-.004.282.282 0 01.264 0 .421.421 0 00.167.034c.144.001.14.02.13-.688l-.007-.576-.089-.108a.49.49 0 00-.16-.133.39.39 0 01-.11-.059.913.913 0 00-.413-.043m2.073 0a.256.256 0 00-.086.051.579.579 0 01-.439.084c-.275-.097-.276-.095-.277.734 0 .77-.006.747.166.735l.1-.008.012-.58c.012-.594.02-.649.093-.672a.098.098 0 00.057-.057c.018-.057.078-.07.315-.07h.198l.08.11.08.11.012.58.011.58h.232l.007-.604c.01-.796.014-.768-.163-.892a.47.47 0 00-.398-.101m1.511 0c-.035.006-.064.02-.064.032s-.034.038-.075.059a.908.908 0 00-.299 1.018l.04.169a.576.576 0 00.868.24c.068-.068.08-.071.124-.042.11.074.108.45-.003.488a.548.548 0 00-.16.1.42.42 0 01-.404-.018c-.05-.082-.396-.094-.411-.014-.004.022.003.04.016.04a.27.27 0 01.093.074l.07.074.348.01c.398.011.523-.01.62-.108a.402.402 0 01.096-.076c.055-.018.074-.301.074-1.1 0-.981.009-.954-.271-.84l-.121.049-.118-.074a.63.63 0 00-.423-.081m1.932 0a.509.509 0 00-.138.068.32.32 0 01-.123.055.128.128 0 00-.08.064.496.496 0 01-.084.1 1.256 1.256 0 00-.086.77c.043.24.046.25.088.29a1.147 1.147 0 01.094.117c.09.126.156.146.48.146.37 0 .5-.018.514-.074a.147.147 0 01.079-.072c.09-.04.084-.091-.019-.181l-.085-.076-.048.056a.786.786 0 01-.642.1c-.174-.104-.268-.39-.162-.495.046-.046.071-.049.53-.049a3.622 3.622 0 00.514-.021c.065-.041-.004-.454-.09-.534a.247.247 0 01-.07-.092.026.026 0 00-.026-.025.978.978 0 01-.172-.07.865.865 0 00-.474-.077m-6.53.041a.43.43 0 01-.144.08l-.12.047-.085-.058c-.11-.075-.218-.07-.26.013a8.7 8.7 0 00-.001 1.457.242.242 0 00.222 0 1.991 1.991 0 00.028-.54c0-.59.004-.604.174-.67l.177-.07a.159.159 0 00.101-.202c-.016-.093-.052-.116-.092-.057m5.133.264a.879.879 0 01.12.746c-.076.272-.493.416-.66.23a.224.224 0 00-.082-.067c-.063 0-.093-.142-.093-.441 0-.325.009-.358.124-.48a.475.475 0 01.59.012m1.737-.082c.167.063.27.25.192.35a1.451 1.451 0 01-.708.043c-.127-.085-.03-.365.141-.406a.958.958 0 01.375.013m-8.518.099a.485.485 0 01.13.134.385.385 0 00.06.117.478.478 0 01.014.45.518.518 0 00-.061.114.465.465 0 01-.68.155.673.673 0 01-.138-.757c.16-.327.43-.412.675-.213m-19.436.231a.385.385 0 01.158.071.233.233 0 00.107.056.244.244 0 01.113.076l.114.116a.85.85 0 01.207.26l.027.07.017-.064c.034-.13.202-.173.36-.092.08.04.083.04.155-.008a.236.236 0 01.368.139c.015.067.016.067.053.021a.773.773 0 01.995-.077c.17.113.164.09.17.65.007.644-.006.662-.425.612a.432.432 0 00-.202.013.579.579 0 01-.409-.013 3.715 3.715 0 00-.099-.068.383.383 0 01-.109-.534.424.424 0 00.083-.118.152.152 0 01.074-.077c.04-.017.043-.022.012-.023a.647.647 0 01-.158-.058c-.125-.06-.135-.06-.317.03-.113.055-.145.163-.145.478 0 .242-.005.27-.053.322-.147.16-.365.045-.365-.194 0-.179-.11-.223-.203-.08-.029.044-.068.08-.088.08s-.046.026-.06.058a.234.234 0 01-.134.097.897.897 0 00-.172.088c-.114.082-.619.053-.619-.036 0-.01-.039-.03-.087-.043-.106-.03-.132-.047-.152-.102a.099.099 0 00-.06-.054.148.148 0 01-.073-.085 1.067 1.067 0 00-.089-.164 1.204 1.204 0 01.003-.817.365.365 0 00.064-.13.733.733 0 01.278-.284.331.331 0 00.107-.061.424.424 0 01.185-.064.967.967 0 01.368.01m8.123.059c.097.06.121.104.148.265a.415.415 0 00.065.175.496.496 0 01.073.203c.046.258.069.29.104.15a.46.46 0 01.061-.126.837.837 0 00.08-.245.806.806 0 01.205-.419.598.598 0 01.553.016l.076.068.012.359c.012.38.028.449.067.301a.644.644 0 01.948-.27c.19.127.204.148.25.344.022.096.053.02.055-.136.002-.142.06-.268.126-.274.028-.003.154-.006.282-.008a2.964 2.964 0 00.341-.021.484.484 0 01.548.356c.044.15.067.162.085.045a.633.633 0 01.893-.329 1.274 1.274 0 00.144.1.23.23 0 01.138.177c.036.145.072.065.062-.138-.009-.164.027-.201.193-.201.108 0 .205.059.205.125a.368.368 0 00.057.106.634.634 0 01.08.227c.036.225.062.249.095.085a.888.888 0 01.067-.207 1.587 1.587 0 00.081-.18c.065-.17.36-.23.414-.082a1.407 1.407 0 01-.104.567.833.833 0 00-.086.229.508.508 0 01-.076.19.388.388 0 00-.066.168.672.672 0 01-.049.172l-.095.176c-.147.273-.689.274-.689.001 0-.116.06-.18.186-.2a.25.25 0 00.104-.032.728.728 0 00-.086-.35.511.511 0 01-.067-.185c-.023-.144-.038-.164-.08-.103-.097.142-.13.151-.57.151a3.104 3.104 0 00-.322.009.78.78 0 00.083.096l.083.088.059-.063c.155-.167.54-.149.54.026 0 .109-.145.285-.235.285a.345.345 0 00-.111.056.56.56 0 01-.503.016.314.314 0 00-.103-.06.454.454 0 01-.241-.259c-.02-.108-.05-.08-.069.065-.03.222-.118.3-.303.265-.161-.03-.197-.114-.198-.462-.001-.357-.039-.542-.107-.53a.073.073 0 00-.05.03.04.04 0 01-.038.02c-.061 0-.083.12-.083.464 0 .392-.022.45-.185.485a.26.26 0 01-.35-.248c-.002-.17-.03-.216-.063-.104a.496.496 0 01-.25.272.264.264 0 00-.103.06.577.577 0 01-.49-.001.437.437 0 00-.121-.059.389.389 0 01-.217-.223c-.043-.1-.071-.077-.075.06a.25.25 0 01-.372.217c-.131-.065-.149-.109-.162-.407-.014-.298-.039-.327-.093-.111a.625.625 0 01-.078.195.285.285 0 00-.053.123c-.03.188-.23.296-.354.192a.312.312 0 00-.083-.056c-.043 0-.085-.081-.114-.22-.05-.236-.128-.223-.149.025-.021.26-.264.391-.416.226a6.806 6.806 0 01-.013-1.703c.054-.09.375-.102.51-.02m14.303.117c.243.11.133.605-.147.658a1.013 1.013 0 00-.142.039.365.365 0 01-.293-.138c-.102-.13.038-.41.23-.464a.754.754 0 00.159-.07c.093-.058.115-.06.193-.025m-18.596.277a.372.372 0 01.113.075.527.527 0 00.093.076c.059.034.078.195.08.68.002.51-.04.605-.243.56-.156-.036-.172-.079-.172-.48v-.354l-.073-.082c-.07-.08-.16-.11-.16-.053a.654.654 0 01-.057.145.716.716 0 00-.058.395c-.001.414-.159.572-.37.37a2.792 2.792 0 01.003-1.292.34.34 0 01.34.015c.038.034.048.035.065.007.044-.075.308-.112.44-.062m1.146.017c.068.035.09.036.138.012.231-.117.37.005.372.327.003.285.032.388.055.19.027-.242.061-.297.29-.473.242-.185.792-.054.864.206.009.03.042.14.074.24.095.3.044.338-.465.34-.307 0-.337.004-.284.032a.233.233 0 01.086.092c.032.07.082.06.163-.03a.47.47 0 01.393-.052c.122.065.055.311-.105.387a1.08 1.08 0 00-.147.085.626.626 0 01-.491 0 .519.519 0 00-.123-.079.515.515 0 01-.267-.495l-.004-.092-.018.116a3.035 3.035 0 00-.02.336c-.003.264-.03.377-.105.426a.192.192 0 00-.07.081 1.029 1.029 0 01-.581.141.423.423 0 00-.144-.033c-.143-.018-.262-.067-.262-.108a.254.254 0 00-.072-.092.137.137 0 01.016-.235.116.116 0 00-.024-.213c-.104-.044-.113-.084-.101-.452.01-.346.019-.364.29-.61a.602.602 0 01.542-.047m-5.382.045c-.127.089-.128.091-.136.401-.007.288-.006.295.053.365a.416.416 0 00.492.05l.087-.09a.949.949 0 00.051-.494.387.387 0 00-.547-.232m2.491.347a.174.174 0 01-.128.141c-.076.029-.074.03.062.022a.408.408 0 00.18-.04c.095-.08.11-.1.102-.124-.016-.048-.2-.047-.216.001m2.637.003c-.097.182-.119.281-.08.376.077.195.282.192.387-.007l.043-.08-.078-.16c-.086-.176-.214-.237-.272-.13m1.372-.026c-.02.009-.022.024-.005.057.029.054.076.057.117.007.045-.054-.03-.097-.112-.064m3.958.054c-.076.066-.079.075-.087.263l-.008.194.098.072c.097.072.147.076.17.015a.05.05 0 01.04-.033c.11 0 .13-.344.028-.468-.112-.136-.131-.14-.241-.043m2.67-.047c-.03.02-.03.028.004.062.047.046.119.026.108-.031-.01-.048-.063-.062-.112-.03M6.53 17.22c-.107.017-.129.193-.024.193a.132.132 0 00.15-.127c.005-.073-.015-.083-.126-.066m2.578.47c-.11.011-.118.015-.058.028a.969.969 0 01.142.044.1.1 0 00.133-.018l.06-.048-.051-.014a.26.26 0 00-.075-.01l-.151.017"
              fill="#fbfbfb"/>
        <path d="M17.788 5.7a.324.324 0 00-.12.057.476.476 0 01-.146.07c-.085.026-.165.094-.457.387-.477.48-.488.493-.488.514 0 .034-1.257 1.269-1.29 1.269a1.837 1.837 0 00-.264.264c0 .029-1.255 1.313-1.283 1.313-.082 0-.086-.054-.086-1.069 0-.951-.002-1-.046-1.082a.401.401 0 01-.047-.152.26.26 0 00-.108-.21.138.138 0 01-.054-.072c0-.017-.032-.044-.071-.06a.268.268 0 01-.106-.081.339.339 0 00-.137-.091c-.057-.022-.104-.05-.104-.062 0-.12-.581-.127-.765-.009a.744.744 0 01-.148.081 1.153 1.153 0 00-.281.266 1.766 1.766 0 01-.093.15l-.07.103-.006 2.553c-.006 2.698-.005 2.74.1 2.854a.219.219 0 01.057.088.845.845 0 00.264.249.177.177 0 01.083.057c.097.103.15.105 2.725.105 2.492 0 2.643-.005 2.737-.089a.62.62 0 01.158-.083c.06-.022.11-.053.11-.069a.356.356 0 01.091-.116.373.373 0 00.105-.165.389.389 0 01.066-.142.858.858 0 00.007-.645 1.151 1.151 0 01-.074-.195.342.342 0 00-.093-.142.334.334 0 01-.078-.093c0-.01-.034-.04-.076-.068l-.14-.092a.51.51 0 00-.184-.057.325.325 0 01-.132-.034c-.043-.064-.2-.074-1.136-.074-.53 0-.989-.007-1.017-.015-.069-.018-.067-.064.003-.096a.145.145 0 00.072-.073c.008-.027.025-.048.038-.048a.412.412 0 00.116-.093.385.385 0 01.118-.093 4.122 4.122 0 00.528-.538c0-.013.026-.043.057-.068a.235.235 0 00.07-.086.143.143 0 01.071-.07.189.189 0 00.082-.078.255.255 0 01.093-.092c.037-.022.068-.055.068-.075s.03-.051.068-.07a.181.181 0 00.082-.079.145.145 0 01.071-.07.177.177 0 00.08-.084.16.16 0 01.082-.081.177.177 0 00.085-.08.144.144 0 01.07-.072.181.181 0 00.078-.082c.019-.037.046-.068.059-.068.031 0 .077-.047.097-.099a.111.111 0 01.057-.057c.052-.02.099-.065.099-.097 0-.013.022-.035.049-.05a2.522 2.522 0 00.415-.411c0-.015.029-.042.065-.06a.235.235 0 00.092-.094c.015-.033.039-.06.053-.06.032 0 .078-.046.098-.099a.112.112 0 01.057-.056c.052-.02.099-.066.099-.098 0-.013.03-.04.067-.059a.18.18 0 00.082-.078.145.145 0 01.072-.07.18.18 0 00.08-.087.123.123 0 01.066-.071.188.188 0 00.083-.08.745.745 0 01.093-.121.307.307 0 00.069-.157.513.513 0 01.06-.172.597.597 0 00.001-.468.688.688 0 01-.06-.186.219.219 0 00-.071-.144c-.03-.024-.055-.053-.055-.064a.787.787 0 00-.26-.24.255.255 0 01-.11-.06 1.01 1.01 0 00-.692-.079m4.303.004c-.101.037-.098-.142-.098 6.244v6.096l.054.045c.054.043.183.044 6.119.044h6.064l.055-.056c.087-.086.084.115.077-6.23-.007-6.528.002-6.086-.128-6.145-.074-.034-12.05-.032-12.143.002m-3.666.111a1.13 1.13 0 01.413.327 1.107 1.107 0 010 1.135c-.054.067-.91.94-1.191 1.214a77.51 77.51 0 00-1.557 1.571c-.112.135-.572.596-.692.695a1.412 1.412 0 00-.33.341c0 .128-.041.123 1.086.123 1.123 0 1.375.023 1.496.132a.89.89 0 00.127.09c.041.023.075.051.075.061a.329.329 0 00.07.092.473.473 0 01.096.168 9.4 9.4 0 00.07.232.817.817 0 01-.092.663c-.053.114-.243.324-.293.325a.893.893 0 00-.164.075l-.139.075h-2.54a17.954 17.954 0 01-2.61-.04 6.003 6.003 0 00-.15-.082.915.915 0 01-.313-.31 3.788 3.788 0 00-.081-.16 14.874 14.874 0 01-.046-2.62v-2.54l.086-.17a.972.972 0 01.856-.56c.16 0 .236.009.262.032a1.187 1.187 0 00.152.096 1.335 1.335 0 01.192.13.337.337 0 00.096.066.832.832 0 01.235.36 11.656 11.656 0 01.039 1.23l.01 1.114.076-.009A12.557 12.557 0 0015 8.373a3.532 3.532 0 01.411-.411 30.752 30.752 0 001.27-1.274 3.364 3.364 0 01.957-.849.11.11 0 00.068-.024.738.738 0 01.719 0m15.807-.053c.063.057.067 12.213.004 12.282-.062.068-12.058.066-12.142-.002l-.055-.044v-6.074c0-6.471-.006-6.162.11-6.184.187-.036 12.043-.014 12.083.022m-29.188.867a.507.507 0 00-.185.076.463.463 0 01-.147.072.824.824 0 00-.35.338.246.246 0 01-.056.093c-.103 0-.122.7-.022.807a.502.502 0 01.076.124 1.142 1.142 0 00.407.393.928.928 0 01.166.076c.079.048.11.05 1.194.061.613.007 1.127.02 1.143.031.03.02-.326.385-.377.387a4.365 4.365 0 00-.505.481 3.863 3.863 0 00-.48.507c-.001.03-1.127 1.169-1.155 1.169a1.143 1.143 0 00-.235.192 18.4 18.4 0 01-.182.196 1.194 1.194 0 00-.145.17 4.468 4.468 0 01-.308.329c-.38.385-.428.442-.455.54a.48.48 0 01-.07.141.959.959 0 00.021.682.652.652 0 01.055.121.417.417 0 00.094.151.346.346 0 01.077.089.243.243 0 00.091.08.9.9 0 01.128.084 1.24 1.24 0 00.942.003 1.136 1.136 0 01.158-.085.227.227 0 00.101-.083.234.234 0 01.082-.082.237.237 0 00.082-.083.156.156 0 01.072-.069.145.145 0 00.07-.064c.048-.092.755-.815 2.427-2.482.438-.436.817-.827.844-.87.093-.15.1-.092.112 1.093.01 1.083.013 1.12.06 1.2a1.198 1.198 0 01.079.162.849.849 0 00.347.35.466.466 0 01.147.087c.065.06.07.061.406.061h.34l.14-.085a1.545 1.545 0 00.174-.119.814.814 0 00.217-.294.435.435 0 01.066-.142l.053-.07.007-2.36c.008-2.525.004-2.707-.067-2.789a.41.41 0 01-.067-.134 1.06 1.06 0 00-.39-.397.174.174 0 01-.096-.056.356.356 0 00-.168-.082c-.135-.029-4.746-.03-4.918 0m4.957.097c.038.022.112.06.165.087a.967.967 0 01.43.503l.066.182v4.848l-.067.178a.78.78 0 01-.374.453.759.759 0 00-.143.085.942.942 0 01-.425.045 1.083 1.083 0 01-.757-.528 2.613 2.613 0 00-.058-.182 7.335 7.335 0 01-.032-1.187v-1.1l-.051-.036c-.08-.057-.129-.043-.19.05-.03.049-.412.443-.848.876-1.28 1.276-2.281 2.29-2.356 2.387a2.344 2.344 0 01-.56.526.726.726 0 00-.155.087 1.353 1.353 0 01-.722-.01 2.675 2.675 0 00-.145-.094.832.832 0 01-.317-.42 5.674 5.674 0 00-.06-.204 1.13 1.13 0 01.12-.65c.079-.097.176-.2.43-.461a4.145 4.145 0 00.308-.333 1.75 1.75 0 01.2-.215c.11-.107.226-.224.259-.259a.225.225 0 01.08-.064c.027 0 1.1-1.075 1.18-1.183.076-.101.84-.865.948-.947a3.414 3.414 0 00.441-.437c0-.112.01-.11-1.177-.123a8.885 8.885 0 01-1.145-.039.662.662 0 00-.167-.062c-.136-.035-.48-.335-.48-.418a.615.615 0 00-.058-.144.91.91 0 01.393-1.083c.037-.016.136-.063.22-.104l.153-.076 2.412.006a16.513 16.513 0 012.482.046m23.68 8.03a.137.137 0 00.008.09c.023.05.024.05.04-.014.02-.076-.023-.144-.048-.077m-.168.322c.004.029.018.052.03.052s.027-.023.031-.052c.005-.036-.004-.052-.03-.052s-.036.016-.031.052m-10.082.241c-.111.013-.244.055-.244.076 0 .011-.04.036-.09.056a.38.38 0 00-.144.113.763.763 0 01-.081.1 1.397 1.397 0 00-.08.79.732.732 0 00.908.603c.353-.074.43-.117.517-.286.02-.041.047-.075.058-.075.023 0 .06-.14.095-.357a1.134 1.134 0 00-.103-.675.735.735 0 01-.076-.095 1 1 0 00-.76-.25m2.008.025a.904.904 0 00-.113.068c-.103.07-.146.069-.214-.004a.225.225 0 00-.318.005 9.63 9.63 0 00-.043 1.504c.015.061.105.103.22.103.156 0 .16-.014.169-.606.008-.613.001-.595.254-.67.144-.043.163-.056.194-.132.07-.168-.015-.321-.149-.268m.903.005a1.758 1.758 0 00-.156.069.651.651 0 01-.116.049.118.118 0 00-.099.153c.05.146.168.163.362.053.244-.139.519-.077.519.117 0 .096-.052.138-.174.14a.837.837 0 00-.22.049c-.07.025-.196.068-.279.094a.497.497 0 00-.303.759.633.633 0 00.764.163.524.524 0 01.207-.01c.466.055.422.125.422-.67 0-.751.007-.727-.266-.91a1.28 1.28 0 00-.661-.056m2.11 0a1.732 1.732 0 00-.155.069.268.268 0 01-.276.016.21.21 0 00-.296.016l-.085.08v.693c.001.736.001.735.101.773.287.109.315.054.322-.625l.007-.565.108-.078a.496.496 0 01.432-.098c.128.072.142.142.143.745v.55l.062.047a.26.26 0 00.295.006 6.67 6.67 0 00.013-1.359.54.54 0 00-.67-.27m1.51-.007a.346.346 0 00-.073.052c-.023.02-.078.064-.123.095a1.076 1.076 0 00-.233.978 1.343 1.343 0 01.066.162.65.65 0 00.95.3c.064-.06.1-.03.121.098.045.279-.308.463-.608.317-.309-.15-.564-.027-.36.173a1.13 1.13 0 001.167-.013c.174-.17.203-.35.203-1.258 0-.656-.016-.833-.08-.878a.357.357 0 00-.305.04l-.085.059-.083-.064a.993.993 0 00-.557-.06m1.922.005a.722.722 0 00-.441.427 1.717 1.717 0 01-.051.164 1.216 1.216 0 00.205.925c.285.317 1.29.193 1.226-.15a.14.14 0 00-.092-.121c-.105-.05-.127-.047-.248.033-.299.198-.715.048-.715-.257 0-.13.027-.137.561-.138.58 0 .592-.006.567-.222a.673.673 0 00-.377-.61 1.302 1.302 0 00-.635-.051m-8.061.067a.577.577 0 00.164.075.244.244 0 01.145.09 1.453 1.453 0 00.1.134c.1.117.119.875.023.907a.384.384 0 00-.084.117c-.099.178-.183.227-.43.246-.459.036-.727-.053-.778-.257a.176.176 0 00-.06-.088 1.22 1.22 0 01.019-.944.45.45 0 00.079-.115.458.458 0 01.15-.094.51.51 0 00.151-.09c0-.062.439-.046.52.019m3.053-.006a.39.39 0 00.11.059.49.49 0 01.16.133l.089.108.008.576c.01.707.013.69-.13.688a.421.421 0 01-.168-.034.282.282 0 00-.264 0 1.575 1.575 0 01-.648.004.583.583 0 01-.172-.436.542.542 0 01.122-.263.634.634 0 00.094-.076.19.19 0 01.13-.052.62.62 0 00.297-.096.301.301 0 01.133-.033c.271-.033.33-.097.253-.273-.055-.124-.061-.129-.165-.144a.73.73 0 00-.465.072c-.102.078-.163.073-.194-.016-.033-.095-.03-.099.159-.16a.482.482 0 00.163-.07c0-.054.427-.042.488.013m2.058.057c.177.125.172.096.163.893l-.007.603h-.232l-.011-.58-.012-.58-.08-.11-.08-.11h-.198c-.237 0-.297.014-.315.071a.098.098 0 01-.057.056c-.074.024-.081.079-.093.673l-.012.58-.1.008c-.172.012-.167.035-.166-.735 0-.83.002-.831.277-.734a.579.579 0 00.439-.084c.11-.102.297-.082.484.05m1.536-.02l.118.074.12-.05c.28-.113.272-.14.272.842 0 .798-.02 1.081-.074 1.1a.402.402 0 00-.095.075c-.098.098-.223.12-.62.108l-.35-.01-.07-.074a.27.27 0 00-.092-.074c-.013 0-.02-.018-.016-.04.015-.08.36-.068.411.014a.42.42 0 00.404.017.548.548 0 01.16-.099c.111-.037.113-.414.003-.488-.045-.03-.056-.026-.124.042a.576.576 0 01-.869-.24 7.803 7.803 0 00-.039-.169.908.908 0 01.299-1.018c.041-.021.075-.048.075-.06 0-.076.339-.042.487.05m1.983-.004a.978.978 0 00.172.07.026.026 0 01.026.025.247.247 0 00.07.092c.086.08.155.493.09.534a3.622 3.622 0 01-.514.021c-.459 0-.484.003-.53.05-.106.105-.012.39.162.494a.786.786 0 00.642-.1l.048-.056.085.076c.103.09.108.141.019.181a.147.147 0 00-.079.072c-.014.056-.143.075-.514.075-.324 0-.39-.021-.48-.147a1.147 1.147 0 00-.094-.116c-.042-.042-.045-.05-.088-.292a1.256 1.256 0 01.086-.769.496.496 0 00.084-.1.128.128 0 01.08-.063.32.32 0 00.123-.056.62.62 0 01.612.009m-6.912.021a.159.159 0 01-.101.203l-.177.069c-.17.066-.173.08-.174.67a1.991 1.991 0 01-.028.54.242.242 0 01-.222 0 8.7 8.7 0 01.002-1.456c.041-.083.149-.089.258-.014l.086.058.12-.046a.43.43 0 00.143-.08c.04-.06.077-.037.093.056m4.591.11a.435.435 0 00-.238.21c-.074.138-.019.796.066.796a.224.224 0 01.082.066.381.381 0 00.535-.047c.124-.122.148-.199.148-.478 0-.43-.188-.604-.593-.546m1.811 0c-.17.042-.268.322-.141.407a1.451 1.451 0 00.708-.043c.156-.2-.227-.445-.567-.363m-8.559.043a.667.667 0 00-.236.884c.153.219.155.22.334.233.243.018.41-.066.46-.233a.518.518 0 01.062-.115.478.478 0 00-.014-.449.385.385 0 01-.06-.117c0-.145-.384-.287-.546-.203m8.878 0a.42.42 0 01.156.125l.092.11-.048.044a1.11 1.11 0 01-.66-.001c-.084-.115.185-.34.361-.301l.099.023m-1.715.106a.448.448 0 01.132.405c0 .472-.349.704-.646.43l-.12-.11v-.613l.115-.119.115-.119.158.013c.15.012.161.017.246.113m-6.783.006a.625.625 0 01.22.495c-.122.654-.836.616-.842-.045-.003-.43.325-.668.622-.45m-19.769.179a.424.424 0 00-.185.064.331.331 0 01-.107.061.733.733 0 00-.278.283.365.365 0 01-.064.131 1.204 1.204 0 00-.003.817 1.067 1.067 0 01.089.164.148.148 0 00.073.085.099.099 0 01.06.054c.02.055.046.072.152.102.048.013.087.033.087.043 0 .09.505.118.619.036a.897.897 0 01.172-.088.234.234 0 00.133-.097c.015-.032.042-.057.061-.057s.06-.037.088-.081c.092-.143.203-.099.203.08 0 .239.218.355.365.194.048-.052.053-.08.053-.322 0-.315.032-.423.145-.478.182-.09.192-.09.317-.03a.647.647 0 00.158.058c.031.001.028.007-.012.023a.152.152 0 00-.074.077.424.424 0 01-.083.118.383.383 0 00.109.535c.02.012.064.043.099.067a.579.579 0 00.409.013.432.432 0 01.202-.013c.42.05.431.032.425-.613-.006-.559 0-.536-.17-.65a.773.773 0 00-.995.078c-.037.046-.038.046-.053-.02a.236.236 0 00-.368-.14c-.072.048-.076.048-.154.008-.16-.08-.327-.038-.361.092l-.018.064-.026-.07a.85.85 0 00-.207-.26 10.761 10.761 0 01-.114-.116.244.244 0 00-.113-.076.233.233 0 01-.107-.056.745.745 0 00-.527-.08m7.982.088a6.806 6.806 0 00.013 1.703c.151.165.395.033.416-.226.02-.248.1-.261.149-.025.029.139.071.22.114.22a.312.312 0 01.083.056c.123.104.323-.004.354-.192a.285.285 0 01.053-.123.625.625 0 00.078-.195c.054-.216.079-.187.093.111.013.298.03.342.162.407a.25.25 0 00.372-.218c.004-.136.032-.158.075-.059a.389.389 0 00.217.223.437.437 0 01.12.059.577.577 0 00.49.001.264.264 0 01.103-.06.496.496 0 00.251-.272c.034-.112.06-.067.063.104a.26.26 0 00.35.248c.163-.034.185-.093.185-.485 0-.343.022-.463.083-.463a.04.04 0 00.037-.021.073.073 0 01.051-.03c.068-.012.106.173.107.53 0 .348.037.431.197.462.186.034.275-.043.304-.265.02-.145.049-.173.069-.065a.454.454 0 00.24.259.314.314 0 01.104.06.56.56 0 00.503-.016.345.345 0 01.11-.056c.091 0 .237-.176.237-.285 0-.175-.386-.193-.541-.026l-.059.063-.083-.088a.78.78 0 01-.083-.096 3.104 3.104 0 01.322-.009c.44 0 .473-.009.57-.15.042-.062.057-.042.08.102a.511.511 0 00.067.186.728.728 0 01.086.349.25.25 0 01-.104.032c-.127.02-.186.084-.186.2 0 .273.542.272.689-.001l.095-.176a.672.672 0 00.05-.172.388.388 0 01.065-.168.508.508 0 00.076-.19.833.833 0 01.086-.23 1.407 1.407 0 00.104-.566c-.054-.148-.35-.088-.414.082a1.587 1.587 0 01-.081.18.888.888 0 00-.067.207c-.033.164-.06.14-.095-.085a.634.634 0 00-.08-.227.368.368 0 01-.057-.106c0-.066-.097-.125-.205-.125-.166 0-.202.037-.193.201.01.203-.026.283-.062.138a.23.23 0 00-.138-.177 1.274 1.274 0 01-.144-.1.633.633 0 00-.893.329c-.018.117-.041.105-.085-.045a.484.484 0 00-.548-.356 2.964 2.964 0 01-.341.021 7.11 7.11 0 00-.282.008c-.066.006-.124.131-.126.274-.002.156-.033.232-.055.136-.046-.196-.06-.217-.25-.345a.644.644 0 00-.948.271c-.04.148-.055.078-.067-.301l-.012-.36-.076-.067a.598.598 0 00-.553-.016.806.806 0 00-.204.42.837.837 0 01-.08.244.46.46 0 00-.062.127c-.035.14-.058.107-.104-.15a.496.496 0 00-.073-.204.415.415 0 01-.066-.175c-.04-.25-.127-.314-.42-.314-.192 0-.197.002-.236.068m-7.635-.026a1.36 1.36 0 00.178.084.518.518 0 01.192.12c.02.03.047.056.06.056.035 0 .082.051.1.107a.307.307 0 00.059.094.797.797 0 01-.006.847.34.34 0 00-.062.106c0 .014-.034.05-.075.079a.729.729 0 00-.11.094.54.54 0 01-.174.09.799.799 0 00-.162.069.73.73 0 01-.462-.037.82.82 0 00-.16-.058c-.06 0-.244-.219-.283-.335a.661.661 0 00-.066-.149c-.123-.148.016-.742.22-.945.181-.18.643-.316.751-.222m8.105.074c.111.057.114.061.153.247a.886.886 0 00.078.225.735.735 0 01.068.217q.044.268.106.217a1.398 1.398 0 00.198-.473c.054-.33.178-.48.4-.48.321 0 .335.02.351.476.009.254.097.692.106.526a.611.611 0 01.872-.536.496.496 0 01.324.431c.078.312-.08.746-.272.751a.517.517 0 00-.122.046.6.6 0 01-.767-.377l-.041-.133-.04.098a.994.994 0 00-.056.206.192.192 0 01-.315.154l-.08-.054-.011-.283c-.017-.41-.113-.485-.198-.156a.626.626 0 01-.067.173.528.528 0 00-.062.158c-.07.281-.388.265-.462-.023l-.048-.182a.334.334 0 00-.082-.144.347.347 0 01-.083-.151c-.041-.165-.064-.07-.065.269 0 .393-.038.466-.222.432-.144-.028-.15-.057-.15-.838 0-.848 0-.842.245-.842a.513.513 0 01.242.046m14.15.073a.754.754 0 01-.158.071c-.194.054-.333.334-.23.464a.365.365 0 00.291.138 1.013 1.013 0 01.143-.04.392.392 0 00.24-.552.176.176 0 00-.286-.08m.21.094c.204.245-.167.652-.447.49a.268.268 0 01.107-.474.526.526 0 00.13-.033c.117-.045.16-.042.21.017m-22.827.151a.646.646 0 00-.048.946c.387.22.698-.101.611-.628a.378.378 0 00-.563-.318m3.864.011a.2.2 0 00-.09.058c-.016.028-.026.027-.064-.007a.34.34 0 00-.34-.015 2.792 2.792 0 00-.003 1.292c.211.202.369.044.37-.37a.716.716 0 01.058-.395.654.654 0 00.057-.145c0-.057.09-.027.16.053l.072.082v.353c.001.402.016.445.172.48.204.046.246-.05.244-.56-.002-.484-.021-.646-.08-.68a.527.527 0 01-.093-.075.477.477 0 00-.463-.071m1.056-.003c-.06.024-.093.051-.226.183-.15.15-.155.168-.165.49-.012.368-.003.408.1.452a.116.116 0 01.025.213.137.137 0 00-.016.235.254.254 0 01.072.092c0 .04.12.09.262.108a.423.423 0 01.144.033 1.029 1.029 0 00.581-.141.192.192 0 01.07-.081c.075-.05.102-.162.105-.426a3.035 3.035 0 01.02-.337l.018-.116.004.093a.515.515 0 00.267.495.519.519 0 01.123.078.626.626 0 00.491.001 1.08 1.08 0 01.147-.085c.16-.076.227-.322.105-.388a.47.47 0 00-.393.053c-.081.09-.131.1-.163.03a.233.233 0 00-.086-.092c-.053-.029-.023-.032.284-.033.509-.001.56-.04.465-.339a10.78 10.78 0 01-.074-.24.794.794 0 00-.354-.278.616.616 0 00-.8.544c-.023.199-.052.096-.055-.189-.002-.322-.14-.444-.372-.327-.048.024-.07.022-.138-.012a.781.781 0 00-.441-.016m-4.489.124a.693.693 0 01.044.663l-.087.09a.416.416 0 01-.492-.05 1.14 1.14 0 01-.01-.692.386.386 0 01.545-.01m2.484-.027a.813.813 0 01.183.131l.07.073.006.457c.008.58.026.55-.32.542-.2-.004-.268.002-.307.03-.32.224-.731-.293-.464-.584l.11-.12.186-.015c.274-.02.286-.025.325-.12.032-.076.032-.088-.003-.127-.078-.086-.31-.029-.31.076 0 .029-.177.07-.237.055-.095-.024-.169-.094-.138-.13a1.49 1.49 0 00.08-.11.378.378 0 01.098-.105c.025-.014.072-.043.104-.064a.757.757 0 01.617.011m1.4.038c.136.114.14.13.14.68 0 .478-.016.523-.182.493-.147-.027-.153-.043-.167-.46-.015-.435-.019-.447-.144-.485-.183-.054-.272.13-.272.564 0 .33-.037.407-.183.381-.159-.028-.165-.05-.165-.595 0-.596.013-.647.168-.647a.298.298 0 01.146.034.123.123 0 00.176-.008.378.378 0 01.482.043m1.049-.047c.07.052.075.052.151.016.287-.136.32-.065.317.681-.002.648 0 .634-.144.807a.728.728 0 01-.68.144c-.187-.03-.198-.037-.3-.165l-.07-.089.06-.058a.316.316 0 01.405.042c.075.092.374-.028.374-.15 0-.065-.031-.07-.273-.045-.307.031-.393.016-.432-.077a.627.627 0 00-.103-.15.731.731 0 01-.018-.71.368.368 0 00.06-.098 1.3 1.3 0 01.279-.198.544.544 0 01.374.05m1.388-.008a.49.49 0 01.335.404c.009.057.021.132.028.167.025.132-.042.158-.416.158-.41 0-.45.026-.298.191a.233.233 0 00.336-.006c.1-.11.34-.083.34.04a.702.702 0 01-.273.262.176.176 0 00-.088.034c-.11.084-.476-.012-.602-.158-.036-.04-.078-.09-.095-.11-.164-.192-.001-.917.208-.925a.281.281 0 00.081-.045.42.42 0 01.445-.012m5.485.012a.858.858 0 01.282.679c-.055.422-.09.525-.176.525a.267.267 0 00-.08.014c-.023.008-.063-.013-.107-.057l-.07-.07-.001-.309c-.002-.446-.086-.599-.275-.5-.088.046-.114.16-.116.507-.002.394-.017.421-.22.421-.16 0-.199-.03-.215-.171a2.64 2.64 0 00-.045-.247.528.528 0 01-.01-.267c.014-.067.035-.2.047-.294a.55.55 0 01.052-.2.256.256 0 01.25-.043.334.334 0 00.301-.015.387.387 0 01.383.027m1.165-.003a.218.218 0 00.087.047c.069 0 .22.19.257.32a2.2 2.2 0 00.06.188c.05.123-.027.152-.443.165-.4.012-.443.025-.394.119a.236.236 0 00.393.066c.117-.114.371-.088.371.038 0 .11-.374.333-.56.333a.868.868 0 01-.455-.203.747.747 0 01.135-1.026 2.23 2.23 0 00.138-.073.457.457 0 01.411.026m-11.914.025a.132.132 0 00.172-.024c.09-.1.243-.047.287.1.037.129.03.141-.095.176-.28.079-.342.184-.343.582 0 .268-.025.327-.149.356-.184.044-.202-.013-.194-.62.01-.658.044-.72.322-.57m12.593-.038c.056.011.076.042.176.257a1.462 1.462 0 01.066.219c.059.256.127.249.191-.02a.292.292 0 01.032-.083.976.976 0 00.059-.157c.055-.176.103-.225.22-.225.164 0 .182.215.043.509a.732.732 0 00-.068.197.506.506 0 01-.06.164 1.373 1.373 0 00-.095.253.822.822 0 01-.076.199.844.844 0 00-.07.134.414.414 0 01-.541.16c-.109-.07-.044-.233.104-.264.14-.028.164-.26.046-.454a1.299 1.299 0 01-.094-.237.398.398 0 00-.095-.192c-.113-.07-.052-.502.067-.48l.095.02m-8.976.275c-.16.13-.22.424-.11.53.298.286.648-.077.412-.427-.09-.135-.212-.176-.302-.103m1.353.006c-.136.056-.145.21-.014.223.194.019.25-.005.25-.105 0-.114-.112-.17-.236-.118m3.99 0c-.18.08-.204.592-.03.684.186.1.371-.057.368-.311-.005-.302-.145-.457-.338-.373m2.636-.001c-.187.063-.12.225.092.224.175 0 .177-.003.143-.117-.034-.112-.113-.148-.235-.107m-10.398.05c.008.025-.007.044-.101.123a.408.408 0 01-.18.041c-.137.007-.14.007-.063-.022a.174.174 0 00.128-.14c.015-.049.2-.05.216-.002m2.693.133l.078.16-.043.08c-.158.299-.503.112-.378-.205.08-.204.086-.21.18-.201.08.006.09.016.163.166m1.209-.15c.027.018.028.028.003.059-.041.049-.088.046-.117-.008-.033-.062.043-.095.114-.05m4.003-.004c.171.124.218.562.06.562a.05.05 0 00-.04.033c-.024.061-.074.057-.171-.015l-.098-.072.008-.194c.01-.232.133-.392.24-.314m2.629.035c.01.057-.061.077-.108.03-.034-.034-.035-.041-.004-.06.05-.032.102-.018.112.03m-10.66.39c-.13.024-.14.031-.166.13-.052.189.255.207.318.018q.062-.188-.152-.148m.117.103a.132.132 0 01-.15.127c-.105 0-.082-.176.024-.193.112-.017.131-.007.126.066m2.678.396l.052.014-.06.048a.1.1 0 01-.134.018.969.969 0 00-.142-.044c-.06-.013-.052-.017.058-.029l.15-.017a.26.26 0 01.076.01"
              fill="#f2c8a8"/>
        <path d="M17.82 5.758a.426.426 0 00-.114.057.11.11 0 01-.068.025 3.364 3.364 0 00-.957.849 30.783 30.783 0 01-1.27 1.273 3.532 3.532 0 00-.411.411 12.557 12.557 0 01-1.336 1.298l-.076.01-.01-1.115a11.656 11.656 0 00-.04-1.23.832.832 0 00-.234-.36.337.337 0 01-.096-.066 1.335 1.335 0 00-.192-.13 1.187 1.187 0 01-.152-.096c-.026-.023-.102-.033-.262-.033a.972.972 0 00-.856.561l-.087.17.001 2.54a14.874 14.874 0 00.046 2.62c.024.045.06.117.081.16a.915.915 0 00.313.31c.045.024.112.06.15.083a17.954 17.954 0 002.61.04h2.54l.14-.076a.893.893 0 01.163-.075c.05 0 .24-.21.293-.325a.817.817 0 00.092-.663 9.4 9.4 0 01-.07-.232.473.473 0 00-.096-.168.329.329 0 01-.07-.092c0-.01-.034-.038-.075-.061a.89.89 0 01-.127-.09c-.121-.11-.373-.132-1.496-.132-1.127 0-1.085.004-1.085-.123a1.412 1.412 0 01.329-.341c.12-.1.58-.56.692-.695a77.51 77.51 0 011.557-1.57 57.832 57.832 0 001.191-1.215 1.107 1.107 0 000-1.135.973.973 0 00-1.018-.384m4.33-.018c-.116.022-.111-.287-.111 6.184v6.074l.055.044c.084.068 12.08.07 12.142.002.063-.07.059-12.225-.004-12.282-.04-.036-11.896-.058-12.083-.022m-3.833.111a.994.994 0 00.182.058.275.275 0 01.111.075l.102.099a.671.671 0 01.199.46 1.079 1.079 0 01-.073.6 1.222 1.222 0 00-.085.135 1.446 1.446 0 01-.298.301c-.009 0-.022.022-.029.048a.094.094 0 01-.06.061c-.027.007-.049.02-.049.03a1.634 1.634 0 01-.303.302c-.012 0-.033.027-.046.06a.125.125 0 01-.069.072c-.025.007-.046.02-.046.03a1.688 1.688 0 01-.221.255l-.112.11a.287.287 0 01-.103.076.025.025 0 00-.028.02 1.95 1.95 0 01-.324.328c-.01 0-.024.021-.03.048a.094.094 0 01-.061.06c-.027.008-.048.021-.048.031a2.077 2.077 0 01-.325.325c-.01 0-.024.021-.03.048a.094.094 0 01-.061.06c-.027.007-.048.021-.048.031a1.95 1.95 0 01-.327.325c-.012 0-.021.015-.021.034s-.026.05-.057.071a.195.195 0 00-.072.082 4.143 4.143 0 01-.585.578c-.041.025-.075.056-.075.068s-.03.04-.068.062a.187.187 0 00-.08.084.084.084 0 01-.053.056.439.439 0 00-.127.147c-.138.221-.202.21 1.123.21 1.217 0 1.304.006 1.48.118a.52.52 0 00.133.067c.015 0 .053.042.086.093s.067.092.079.092a1.472 1.472 0 01.14.566.81.81 0 01-.463.742 1.434 1.434 0 00-.199.082l-.095.049-2.456-.006a11.62 11.62 0 01-2.527-.054.886.886 0 00-.15-.08.799.799 0 01-.35-.388l-.091-.177V9.912a23.86 23.86 0 01.034-2.542 2.69 2.69 0 00.082-.161.982.982 0 01.384-.372.546.546 0 00.135-.083.65.65 0 01.455-.023c.032.02.095.054.14.076a1.293 1.293 0 01.174.113.752.752 0 00.13.085.896.896 0 01.222.296 5.033 5.033 0 01.048 1.256c.008 1.328.002 1.286.17 1.216a16.564 16.564 0 001.343-1.325 1.826 1.826 0 01.147-.17.825.825 0 00.07-.068 1.447 1.447 0 01.233-.213c.169-.134 1.11-1.073 1.231-1.23.082-.104.57-.607.744-.765a1.031 1.031 0 01.868-.15m15.88-.018c.025.05.039 11.899.014 12.07l-.018.124h-6c-4.892 0-6.006-.005-6.03-.03-.057-.057-.043-12.093.014-12.156l.044-.049h5.978c5.67 0 5.98.002 5.998.04m-1.401 8.868a.08.08 0 00-.004.095.839.839 0 01.047.193 1.3 1.3 0 00.046.213l.025.066.045-.055a.265.265 0 00.045-.176.74.74 0 01.026-.196c.054-.156-.145-.277-.23-.14m.85-.01a.412.412 0 00-.056.122c-.029.102-.056.103-.106.007-.064-.124-.09-.143-.194-.143-.095 0-.196.063-.16.1a.96.96 0 01.032.214c.02.26.056.302.15.176l.068-.09.064.088c.093.129.194.118.24-.025.01-.034.035-.046.094-.046h.08v-.172c0-.219-.116-.345-.212-.23m.084.14c-.016.064-.017.064-.04.014-.03-.063-.005-.143.032-.105a.102.102 0 01.008.09m-.155.246c-.004.029-.018.052-.03.052s-.027-.023-.031-.052c-.005-.036.004-.052.03-.052s.036.016.031.052m-10.259.204c-.121.02-.22.063-.22.095 0 .01-.038.035-.084.054a.175.175 0 00-.095.08.166.166 0 01-.063.08.342.342 0 00-.093.18c-.023.081-.05.172-.062.201a1.077 1.077 0 000 .417 1.577 1.577 0 01.063.19.64.64 0 00.085.198.596.596 0 01.076.108.357.357 0 00.2.159.545.545 0 01.14.058.485.485 0 00.273.058.688.688 0 00.302-.058.82.82 0 01.175-.058.312.312 0 00.209-.149.81.81 0 01.08-.113 1.615 1.615 0 00.17-.688 1.744 1.744 0 00-.167-.489.586.586 0 01-.078-.096.213.213 0 00-.093-.079.419.419 0 01-.115-.068 1.148 1.148 0 00-.703-.08m3.078.002a.53.53 0 00-.254.077.378.378 0 01-.113.059.208.208 0 00-.148.154c0 .225.319.316.502.144.072-.068.329-.092.376-.035a.116.116 0 01-.067.195 1.2 1.2 0 00-.44.1.544.544 0 01-.165.066c-.283.062-.483.578-.302.778a.564.564 0 01.075.117c.028.06.063.08.23.135l.197.066.22-.051a.975.975 0 01.325-.037c.304.043.37.044.429.005l.058-.038v-.696c0-.768-.003-.783-.145-.883a1.502 1.502 0 01-.12-.094 1.28 1.28 0 00-.658-.062m2.073-.002a.599.599 0 00-.222.08c-.105.072-.137.072-.206 0a.305.305 0 00-.446.105 13.1 13.1 0 00.006 1.517.357.357 0 00.458.045c.046-.058.048-.09.048-.626v-.565l.076-.035a2.19 2.19 0 00.156-.082.307.307 0 01.184-.04c.142.008.147.032.163.724l.013.579.079.053a.3.3 0 00.416-.056 7.515 7.515 0 00-.006-1.338c-.058-.3-.305-.425-.72-.36m1.547-.001a.448.448 0 00-.162.049l-.086.066a.666.666 0 00-.198.228.484.484 0 01-.064.14 1.2 1.2 0 00-.003.815.791.791 0 01.075.164c.051.224.467.401.764.326.245-.061.311-.028.242.12-.064.138-.357.165-.578.054-.312-.158-.598.078-.37.304.094.093.146.122.217.122a.235.235 0 01.112.04 1.113 1.113 0 00.602.002c.07-.021.155-.044.19-.052a.657.657 0 00.274-.241.56.56 0 01.058-.139l.058-.108v-.887c0-.866-.001-.887-.048-.931a.426.426 0 00-.453 0c-.039.042-.04.042-.071-.002a.926.926 0 00-.56-.07m1.932-.002c-.14.016-.243.055-.243.092 0 .01-.03.031-.064.046a.518.518 0 00-.224.269.297.297 0 01-.05.106 1.042 1.042 0 00-.01.74.603.603 0 01.07.166.776.776 0 00.788.441c.494-.091.684-.206.676-.41-.009-.23-.234-.3-.473-.146a.357.357 0 01-.578-.2c-.024-.107-.027-.106.498-.106.689 0 .768-.056.612-.433a1.837 1.837 0 01-.07-.196.878.878 0 00-.29-.292 1.338 1.338 0 00-.491-.096c-.006.002-.074.01-.15.019m-7.13.023c-.158.04-.153.015-.161.853-.009.911-.002.934.295.934.238 0 .257-.046.258-.622 0-.592.015-.635.232-.673.212-.038.305-.161.268-.358-.03-.162-.282-.206-.443-.076l-.07.055-.047-.058a.352.352 0 00-.332-.055m-1.07.036a.875.875 0 01.447.23.735.735 0 00.076.095 1.134 1.134 0 01.103.675c-.034.218-.072.357-.095.357-.01 0-.037.034-.058.075a.443.443 0 01-.257.225c-.55.156-.828.086-1.063-.265a1.32 1.32 0 01-.025-1.067.763.763 0 00.08-.1.38.38 0 01.145-.113c.05-.02.09-.045.09-.056 0-.021.133-.063.244-.076a1.19 1.19 0 01.312.02m1.809.01c.155.084.057.33-.157.395-.254.075-.247.057-.255.67-.009.592-.013.606-.17.606-.114 0-.204-.042-.219-.103a9.63 9.63 0 01.043-1.504.225.225 0 01.318-.005c.068.073.111.073.214.004.128-.087.162-.097.226-.062m1.45.054c.274.184.267.16.267.91 0 .796.044.726-.421.67a.524.524 0 00-.207.01.633.633 0 01-.765-.162.497.497 0 01.303-.759c.083-.026.209-.069.279-.094a.837.837 0 01.22-.049c.122-.002.174-.044.174-.14 0-.194-.274-.256-.519-.117-.193.11-.311.093-.362-.053a.118.118 0 01.1-.153.651.651 0 00.115-.05.725.725 0 01.469-.082c.232.007.263.013.348.07m1.989.025c.147.124.156.175.156.897 0 .534-.004.614-.038.651a.26.26 0 01-.295-.006l-.061-.048-.001-.549c-.001-.603-.015-.673-.142-.745a.496.496 0 00-.433.098l-.108.078-.006.565c-.008.679-.036.734-.323.625-.1-.038-.1-.037-.1-.773v-.693l.085-.08a.21.21 0 01.296-.017.268.268 0 00.275-.015.65.65 0 01.695.013m1.528-.028l.083.064.085-.059a.357.357 0 01.306-.04c.063.045.08.222.08.878 0 .909-.03 1.088-.204 1.258a1.13 1.13 0 01-1.167.013c-.204-.2.051-.322.36-.173.3.146.654-.038.608-.317-.02-.128-.057-.158-.12-.098a.65.65 0 01-.95-.3 1.343 1.343 0 00-.067-.162 1.076 1.076 0 01.233-.977c.045-.032.1-.075.123-.096a.715.715 0 01.63.01m2-.005a.673.673 0 01.377.61c.025.217.012.222-.567.222-.534 0-.56.007-.56.138 0 .305.415.455.714.257.12-.08.143-.083.248-.033a.14.14 0 01.092.12c.065.344-.941.468-1.226.151a1.216 1.216 0 01-.205-.925 1.717 1.717 0 00.051-.164.804.804 0 011.076-.376m-.483.207c-.082.015-.267.177-.268.233 0 .111.58.161.693.06l.049-.045-.093-.11a.42.42 0 00-.156-.125 6.418 6.418 0 00-.098-.023.462.462 0 00-.127.01m-2.008.112l-.115.12v.611l.12.11c.296.275.645.043.645-.43 0-.334-.119-.497-.378-.517l-.158-.013-.114.12m-6.656-.025c-.4.27-.27 1.002.178 1.002.43 0 .583-.694.213-.965a.354.354 0 00-.391-.037m7.01-.022a.567.567 0 01.239.354c.07.417-.292.723-.554.468-.131-.127-.159-.589-.041-.671a.233.233 0 00.072-.09c.027-.07.14-.094.284-.061m1.878-.001a.336.336 0 01.096.101l.058.085-.071.025a.936.936 0 01-.42 0l-.09-.025.06-.063a.23.23 0 00.06-.09c0-.047.213-.07.307-.033m-8.565.107c.113.049.129.064.156.155.05.17.022.577-.042.577a.295.295 0 00-.082.055c-.29.244-.592-.113-.48-.566.064-.255.206-.325.448-.221m-19.838.244a.832.832 0 00-.514.85.714.714 0 00.027.267.661.661 0 01.066.149c.04.116.223.336.282.336a.82.82 0 01.16.058.73.73 0 00.463.036.799.799 0 01.162-.07.54.54 0 00.174-.089.729.729 0 01.11-.094c.041-.03.075-.065.075-.079a.34.34 0 01.062-.106.797.797 0 00.006-.846.307.307 0 01-.059-.095c-.018-.056-.065-.107-.1-.107-.013 0-.04-.025-.06-.056a.518.518 0 00-.192-.12 1.36 1.36 0 01-.178-.083.794.794 0 00-.484.049m8.149.053c-.043.071-.046.119-.046.767 0 .78.005.81.15.838.183.034.22-.039.221-.432 0-.338.024-.434.065-.27a.347.347 0 00.083.152.334.334 0 01.083.144l.047.182c.074.289.392.304.463.023a.528.528 0 01.061-.158.626.626 0 00.067-.173c.086-.329.181-.253.198.157l.012.282.08.054a.192.192 0 00.315-.153.994.994 0 01.054-.206l.04-.099.042.133a.6.6 0 00.767.377.517.517 0 01.122-.045c.193-.006.35-.44.272-.752a.496.496 0 00-.324-.43.611.611 0 00-.871.535c-.01.166-.098-.271-.107-.526-.015-.456-.03-.475-.35-.475-.222 0-.347.149-.4.48a1.398 1.398 0 01-.199.472q-.062.052-.105-.216a.735.735 0 00-.07-.218.886.886 0 01-.077-.225c-.039-.186-.041-.19-.153-.247-.158-.08-.382-.066-.44.03m-7.554.026a.513.513 0 01.194.106.234.234 0 00.092.072.164.164 0 01.082.093 1.549 1.549 0 00.084.18.741.741 0 01.012.572 3.528 3.528 0 00-.088.182.328.328 0 01-.118.135c-.044.026-.08.056-.08.067 0 .087-.404.164-.642.123-.333-.057-.463-.194-.55-.58a1.049 1.049 0 01.076-.665.77.77 0 01.939-.285m8.004.043a.436.436 0 01.102.226 1.442 1.442 0 00.093.267.412.412 0 01.05.146c0 .437.287.324.37-.146a1.137 1.137 0 01.084-.27.51.51 0 00.056-.15c0-.09.068-.125.242-.125.285 0 .269-.048.269.764v.692l-.06.039c-.143.094-.172.021-.172-.43 0-.502-.01-.523-.161-.375a.482.482 0 00-.153.25.898.898 0 01-.08.196.693.693 0 00-.067.19c-.03.14-.05.166-.14.188-.117.03-.22-.104-.272-.355a.703.703 0 00-.078-.212.996.996 0 01-.095-.21c-.107-.315-.165-.207-.182.343-.015.447-.023.471-.146.436l-.076-.022-.006-.728a2.899 2.899 0 01.023-.747.563.563 0 01.4.033m14.138.052a.526.526 0 01-.13.033.303.303 0 00-.214.331c.103.323.6.184.598-.166-.001-.208-.076-.267-.254-.198M3.935 16.3a.54.54 0 01-.118.082c-.173.056-.153.858.024.95a.51.51 0 01.105.072c.182.182.588-.01.642-.303.047-.258-.012-.708-.093-.708a.254.254 0 01-.081-.057.356.356 0 00-.479-.036m22.82-.041c.13.13-.047.414-.256.412-.268-.003-.21-.354.068-.409l.147-.029c.007-.001.025.01.04.026m-22.462.089a.652.652 0 01.189.865.42.42 0 01-.68-.035 1.394 1.394 0 01.01-.663.376.376 0 01.48-.167m2.103.06a.412.412 0 00-.116.051c-.032.021-.079.05-.104.064a.378.378 0 00-.098.104 1.486 1.486 0 01-.08.111c-.03.037.043.106.138.13.06.015.237-.026.237-.055 0-.105.232-.162.31-.076.035.04.035.05.003.128-.04.094-.051.099-.325.12l-.185.013-.111.121c-.267.291.144.808.464.584.04-.027.108-.034.306-.03.347.008.329.039.321-.542l-.006-.457-.07-.073a.811.811 0 00-.684-.192m1.52 0a.368.368 0 00-.102.057.123.123 0 01-.176.007.298.298 0 00-.146-.034c-.155 0-.168.051-.168.647 0 .545.006.567.165.595.146.026.183-.05.183-.38 0-.434.09-.62.272-.564.125.037.129.05.144.485.014.416.02.432.167.459.166.03.182-.015.182-.493 0-.55-.004-.566-.14-.68a.431.431 0 00-.382-.099m1.056.002a1.3 1.3 0 00-.279.198.368.368 0 01-.06.099.731.731 0 00.018.71.627.627 0 01.103.15c.039.092.125.107.432.076.242-.025.273-.02.273.046 0 .121-.299.24-.374.15a.316.316 0 00-.406-.043l-.058.058.07.09c.101.127.112.133.3.164a.728.728 0 00.679-.144c.145-.173.142-.159.144-.807.003-.746-.03-.817-.317-.68-.076.035-.082.035-.151-.017a.544.544 0 00-.374-.05m1.426 0a.409.409 0 00-.108.054.281.281 0 01-.081.045c-.21.008-.372.734-.208.926l.095.11c.126.145.491.24.602.157a.176.176 0 01.088-.034.702.702 0 00.273-.262c0-.123-.24-.15-.34-.04a.233.233 0 01-.336.006c-.153-.165-.111-.191.298-.191.374 0 .44-.026.416-.158a5.435 5.435 0 01-.028-.167.573.573 0 00-.671-.447m5.44.028a.334.334 0 01-.302.015.256.256 0 00-.25.043.55.55 0 00-.052.2 5.03 5.03 0 01-.047.294.528.528 0 00.01.267c.018.08.039.19.045.247.016.14.055.171.215.171.203 0 .217-.027.22-.42.002-.349.028-.462.116-.508.189-.099.273.054.275.5l.001.31.07.07c.044.043.084.064.106.056a.267.267 0 01.08-.014c.088 0 .122-.103.177-.525.057-.444-.355-.88-.665-.706m1.137-.002a2.213 2.213 0 01-.138.073.747.747 0 00-.135 1.026.868.868 0 00.454.203c.187 0 .56-.222.56-.333 0-.126-.254-.152-.37-.038a.236.236 0 01-.394-.066c-.048-.094-.005-.107.394-.12.416-.012.494-.041.443-.164a2.201 2.201 0 01-.06-.187c-.035-.131-.187-.32-.256-.32a.218.218 0 01-.087-.047.457.457 0 00-.411-.027m-11.779.045a3.072 3.072 0 00.002 1.154c.05.058.062.062.146.042.124-.03.148-.088.15-.356 0-.398.062-.503.342-.582.126-.035.132-.047.094-.176-.043-.147-.195-.2-.286-.1a.132.132 0 01-.173.024c-.123-.066-.233-.068-.275-.006m12.699-.03a.573.573 0 00.008.458.398.398 0 01.095.192 1.299 1.299 0 00.094.237c.118.193.095.426-.046.454-.149.03-.213.193-.105.264a.414.414 0 00.542-.16.844.844 0 01.07-.134.822.822 0 00.076-.2 1.373 1.373 0 01.095-.252.506.506 0 00.06-.164.732.732 0 01.068-.197c.139-.294.12-.51-.044-.51-.116 0-.165.05-.22.226a.976.976 0 01-.059.157.292.292 0 00-.031.083c-.064.269-.133.276-.191.02a1.346 1.346 0 00-.141-.376c-.041-.084-.055-.092-.196-.12a.114.114 0 00-.075.022m-11.23.035a.087.087 0 00.065.023c.28 0 .335.104.343.65.007.48.018.464-.303.446a1.543 1.543 0 00-.315.012c-.351.074-.568-.225-.332-.456.102-.1.148-.115.389-.124.32-.013.36-.412.041-.412-.098 0-.225.076-.225.134 0 .04-.156.072-.198.042-.051-.038-.006-.222.054-.222a.305.305 0 00.107-.035.321.321 0 01.12-.035.092.092 0 00.068-.023.197.197 0 01.186 0m1.464.007c.254.115.264.14.264.667 0 .446-.013.486-.142.448l-.078-.022-.015-.347c-.02-.499-.027-.52-.19-.563-.245-.067-.325.058-.34.529-.014.43-.06.505-.225.368a3.978 3.978 0 01-.005-.98.164.164 0 01.22-.044c.063.045.157.036.28-.028.13-.067.143-.068.231-.028m1.131.028c.144.065.187.07.268.025a.2.2 0 01.216.042 5.29 5.29 0 01-.027 1.18c-.101.22-.233.295-.523.295-.255 0-.353-.03-.426-.134-.097-.135.103-.167.254-.041a.35.35 0 00.275.06.513.513 0 00.21-.202c.044-.112-.067-.316-.127-.234-.043.059-.14.087-.294.087-.185 0-.25-.038-.368-.22l-.099-.151.011-.191c.026-.426.313-.661.63-.516m1.403-.011a.565.565 0 00.13.046c.082 0 .213.217.226.375.017.207.021.204-.368.204-.382 0-.418.015-.39.16a.291.291 0 00.478.142.193.193 0 01.16-.07c.102 0 .126.05.045.093a.083.083 0 00-.046.056c0 .166-.663.147-.763-.021-.026-.045-.057-.081-.068-.081-.08 0-.095-.528-.017-.633.02-.029.06-.085.085-.127s.059-.075.072-.075a.407.407 0 00.096-.032l.13-.056c.084-.036.116-.033.23.019m3.975-.016a.45.45 0 01.102.046.102.102 0 00.06.016c.259 0 .353.701.126.938a.72.72 0 01-.728.078.611.611 0 01-.193-.658.503.503 0 01.633-.42m1.535.035c.162.093.203.223.216.676l.01.337-.087.042c-.125.06-.135.037-.15-.34-.018-.449-.091-.59-.3-.576-.191.013-.23.1-.249.567l-.013.32-.07.037c-.066.033-.078.033-.148-.005l-.077-.041v-.933l.076-.047a.13.13 0 01.16-.015.369.369 0 00.335-.041c.062-.063.165-.057.297.019m1.08-.036a1.099 1.099 0 01.132.057.261.261 0 00.081.03c.082.007.205.198.22.343.022.211.02.212-.372.212-.43 0-.486.035-.4.242a.316.316 0 00.48.04c.073-.081.22-.104.245-.039.012.032-.156.221-.196.221-.009 0-.075.01-.147.022-.49.08-.71-.147-.657-.677a.514.514 0 01.614-.451m-11.71.085a.17.17 0 00.113-.034c.04-.049.08-.044.153.02l.063.053-.102.05a1.096 1.096 0 00-.213.15l-.11.102v.314c0 .341-.004.354-.133.38-.112.023-.122-.023-.122-.533 0-.557.007-.58.16-.534a.82.82 0 00.19.033m12.58.005a.218.218 0 01.036.105.513.513 0 00.055.163.908.908 0 01.07.198.3.3 0 00.064.135l.047.047.056-.052a.173.173 0 00.056-.09.32.32 0 01.047-.113.738.738 0 00.07-.197c.045-.22.063-.248.162-.248.128 0 .147.168.033.302a.58.58 0 00-.058.174.943.943 0 01-.075.22 1.304 1.304 0 00-.088.234 1.366 1.366 0 01-.101.255.473.473 0 00-.06.14c0 .114-.303.233-.415.162-.05-.031.01-.16.082-.179.15-.037.156-.385.012-.618a.727.727 0 01-.072-.185 1.465 1.465 0 00-.082-.235c-.06-.132-.068-.171-.044-.233.022-.058.16-.048.205.015m-9.074.093c-.029.014-.052.032-.052.04a.295.295 0 01-.056.082c-.283.33.154.855.464.558l.114-.109v-.19c0-.32-.222-.5-.47-.381m1.351-.001a.172.172 0 00-.127.196c0 .13.035.153.243.153.214 0 .244-.02.244-.17 0-.162-.174-.249-.36-.179m3.986.006c-.265.115-.207.772.072.814.215.032.321-.052.357-.28.063-.404-.141-.66-.43-.534m2.646-.01c-.092.029-.116.059-.135.175-.023.141.029.177.254.176.217 0 .248-.021.239-.162-.011-.161-.17-.246-.358-.189m-7.746.037a.414.414 0 01.107.118c.236.35-.114.713-.412.426-.19-.18.066-.636.305-.544m1.394.139c0 .085-.005.09-.082.102-.22.031-.292-.015-.24-.152.055-.142.322-.101.322.05m3.956-.1c.242.163.151.702-.118.694-.327-.01-.314-.721.014-.745a.298.298 0 01.104.05m2.67.09c.033.113.031.115-.144.116-.167 0-.191-.015-.181-.12.016-.167.274-.164.324.003m-10.809.301a.264.264 0 00-.235.247c0 .127.378.181.454.065a.253.253 0 00.012-.288c-.052-.052-.074-.055-.23-.024m.2.195c-.034.101-.113.14-.244.116-.173-.03-.105-.227.092-.264q.215-.04.152.148"
              fill="#fcb47c"/>
    </g>
</svg>
