<svg xmlns="http://www.w3.org/2000/svg" width="38" height="24" viewBox="0 0 38 24" role="img"
     aria-labelledby="pi-dpo-airtelmoney">
    <title id="pi-dpo-airtelmoney">Airtel Money</title>
    <g fill-rule="evenodd" id="pi-dpo-airtelmoney-svgg">
        <path d="M19.262 3.498a1.492 1.492 0 00-.262.08 1.393 1.393 0 01-.23.074.752.752 0 00-.19.07 1.011 1.011 0 01-.234.082 1.414 1.414 0 00-.277.099.755.755 0 01-.177.069.381.381 0 00-.133.07.583.583 0 01-.172.086.315.315 0 00-.131.071.428.428 0 01-.143.084.561.561 0 00-.141.07.564.564 0 01-.143.072.529.529 0 00-.172.114 1.954 1.954 0 01-.154.14l-.153.12c-.046.037-.12.091-.166.123a.588.588 0 00-.113.097.192.192 0 01-.099.056.198.198 0 00-.107.073c-.021.032-.052.058-.068.058a1.386 1.386 0 00-.318.342c-.05.064-.114.142-.144.173a.686.686 0 00-.092.133 1.065 1.065 0 01-.108.159l-.117.14a.63.63 0 00-.124.244.253.253 0 01-.054.102 1.061 1.061 0 00-.076.638l.03.235.163.163a.85.85 0 00.196.163.477.477 0 01.142.078.87.87 0 00.676.046 1.803 1.803 0 00.45-.197c0-.011.045-.043.1-.071a.542.542 0 00.136-.095.333.333 0 01.124-.075 1.98 1.98 0 00.47-.37.91.91 0 01.167-.123.537.537 0 00.129-.092.15.15 0 01.088-.05.124.124 0 00.081-.058.347.347 0 01.143-.098.429.429 0 00.132-.073.495.495 0 01.125-.08 2.004 2.004 0 00.395-.274.222.222 0 01.085-.058.183.183 0 00.077-.056.403.403 0 01.152-.085 1.006 1.006 0 00.21-.098.444.444 0 01.158-.07.238.238 0 00.116-.055.553.553 0 01.189-.085 1.295 1.295 0 00.235-.087 1.18 1.18 0 01.676-.022c.033.02.092.05.132.07a1.327 1.327 0 01.32 1.446 1.227 1.227 0 00-.073.233.667.667 0 01-.07.196 1.339 1.339 0 00-.084.156 1.15 1.15 0 01-.166.273 6.415 6.415 0 00-.144.217 2.3 2.3 0 01-.549.589.105.105 0 00-.065.056 2.712 2.712 0 01-.598.574.14.14 0 00-.072.054.48.48 0 01-.149.1.643.643 0 00-.159.1.178.178 0 01-.089.055.15.15 0 00-.081.059c-.026.033-.057.06-.069.06a.436.436 0 00-.115.079 1.12 1.12 0 01-.177.122.433.433 0 00-.094.06.455.455 0 01-.214.094c-.07 0-.142.043-.142.083 0 .079-.507.079-.594 0a.32.32 0 01.001-.34 1.406 1.406 0 00.087-.175.556.556 0 01.088-.147c.027-.029.103-.114.168-.19s.155-.172.199-.213a5.547 5.547 0 00.59-.629.458.458 0 00.033-.364c-.07-.186-.569-.293-.796-.173a.598.598 0 01-.139.06 8.618 8.618 0 00-.648.648.571.571 0 00-.071.173.706.706 0 01-.082.195.553.553 0 00-.07.195 1.304 1.304 0 01-.046.197.776.776 0 00.445.939 1.753 1.753 0 00.917-.084.329.329 0 01.18-.06.688.688 0 00.287-.103.71.71 0 01.163-.083.52.52 0 00.142-.083.476.476 0 01.149-.083.125.125 0 00.074-.06c.022-.032.054-.059.072-.059a.405.405 0 00.134-.084.903.903 0 01.18-.117c.044-.019.08-.045.08-.058s.034-.042.076-.064a1.743 1.743 0 00.229-.168 1.512 1.512 0 01.255-.177c.057-.027.104-.062.104-.078s.027-.042.06-.057a.204.204 0 00.087-.086c.015-.033.037-.06.049-.06a3.427 3.427 0 00.445-.45c0-.01.021-.025.047-.032a.109.109 0 00.066-.058 1.543 1.543 0 01.232-.31 2.41 2.41 0 00.154-.2.279.279 0 01.077-.09c.01 0 .017-.016.017-.035a.241.241 0 01.068-.106.522.522 0 00.098-.166.47.47 0 01.077-.143.516.516 0 00.078-.177.827.827 0 01.09-.212.568.568 0 00.075-.198.801.801 0 01.064-.204 2.612 2.612 0 00-.015-1.648.868.868 0 01-.06-.194.236.236 0 00-.056-.113.452.452 0 01-.073-.12 1.63 1.63 0 00-.694-.576.798.798 0 01-.176-.085.522.522 0 00-.15-.068.533.533 0 01-.153-.069 3.52 3.52 0 00-1.303-.086m-3.71 8.399c-.247.062-.438.416-.32.591a.42.42 0 01.06.112c.004.087.197.203.337.2a.615.615 0 00.362-.105c.014-.025.06-.098.102-.162.206-.31-.153-.733-.54-.636m8.522.433c-.369.02-.396.033-.416.192-.038.308-.001 3.16.042 3.247.16.322.267.439.462.503.076.025.173.062.217.082a.995.995 0 00.467.003.648.648 0 00.029-.18c.015-.212-.022-.273-.193-.323a.474.474 0 01-.194-.11l-.07-.073-.012-1.642c-.007-1.035-.02-1.656-.036-1.678-.02-.03-.069-.033-.296-.02m-4.938.02c-.26.036-.243-.104-.23 1.851.01 1.62.009 1.609.132 1.719a.155.155 0 01.05.067c0 .168.722.455.98.39.28-.07.195-.481-.108-.527a.308.308 0 01-.198-.11l-.092-.093v-.935c0-1.096-.025-1.007.285-1.009.26-.001.297-.036.297-.273s-.038-.272-.297-.273c-.284-.002-.282 0-.296-.422a2.303 2.303 0 00-.032-.38 1.131 1.131 0 00-.49-.005m-6.077.79a.761.761 0 00-.273.077.956.956 0 01-.209.091l-.137.042.006.17c.01.25.074.28.412.193l.331-.085a.508.508 0 01.677.44c0 .175-.032.188-.497.206-.35.013-.408.021-.468.064a.63.63 0 01-.168.075.233.233 0 00-.124.07.213.213 0 01-.09.073.616.616 0 00-.16.147 3.249 3.249 0 01-.158.182 1.068 1.068 0 00-.054.752l.094.131a2.088 2.088 0 00.442.475.724.724 0 01.16.077l.133.077h.344a1.21 1.21 0 00.56-.078 1.907 1.907 0 01.25-.076 1.563 1.563 0 00.384-.275l.091-.084-.008-1.039-.007-1.039-.065-.098a.39.39 0 01-.066-.146c0-.076-.134-.208-.28-.277a.673.673 0 01-.15-.086 2.353 2.353 0 00-.97-.059m4.735.005a.665.665 0 00-.308.074.724.724 0 01-.166.08.512.512 0 00-.131.06 1.566 1.566 0 01-.147.093.706.706 0 00-.22.224l-.11.161.007 1.185c.004.652.017 1.203.027 1.225.03.06.076.071.375.085l.276.012.044-.067c.042-.063.045-.143.052-1.184.009-1.369-.005-1.304.298-1.402a1.17 1.17 0 01.377-.063l.186-.001.082-.109c.258-.337.073-.445-.642-.373m3.786.008a.339.339 0 00-.186.066.317.317 0 01-.142.065.545.545 0 00-.303.257c-.02.037-.045.067-.057.067s-.041.054-.064.12a.7.7 0 01-.096.181.235.235 0 00-.054.088c0 .015-.016.133-.034.264a2.522 2.522 0 00-.015.942c.052.364.066.422.096.422a.37.37 0 01.078.125.735.735 0 00.122.182.192.192 0 01.062.09c0 .018.026.042.058.054a.242.242 0 01.097.081.208.208 0 00.114.075 1.191 1.191 0 01.217.09 1.768 1.768 0 00.927.038 1.682 1.682 0 01.234-.083.357.357 0 00.207-.11.302.302 0 01.13-.091c.062-.02.078-.035.06-.054a.101.101 0 01-.027-.062.213.213 0 00-.345-.202c-.261.153-1.079.138-1.079-.02a.233.233 0 00-.06-.08c-.098-.098-.124-.176-.15-.46l-.026-.273.06-.053c.06-.053.066-.054.804-.054.99 0 .987.002.848-.405a1.522 1.522 0 01-.06-.28.81.81 0 00-.085-.284 1.37 1.37 0 01-.095-.23.399.399 0 00-.096-.162.276.276 0 01-.072-.087c0-.012-.05-.043-.112-.07a.744.744 0 01-.16-.094 2.261 2.261 0 00-.796-.053m-5.78.02a.234.234 0 00-.07.032.778.778 0 01-.179.047.836.836 0 00-.208.063l-.053.033v1.422c0 1.621-.01 1.533.185 1.558a1.726 1.726 0 00.501-.028c.008-.008.014-.715.014-1.573V13.17l-.071-.004a.49.49 0 00-.119.009m6.295.575c.2.122.298.53.147.608a1.75 1.75 0 01-.801 0c-.113-.1-.052-.4.114-.563a.52.52 0 01.54-.045m-8.283 1.085a2.028 2.028 0 01.012.932.724.724 0 01-.513.097 13.891 13.891 0 00-.172-.037.47.47 0 01-.152-.145.54.54 0 01.273-.87c.066-.011.162-.03.214-.039a.376.376 0 01.338.062"
              fill="#f4f0ee"/>
        <path d="M1.9.328c0 .028-.032.036-.141.037-.257.003-.338.026-.347.1-.007.06-.015.065-.127.065-.165 0-.198.016-.198.097 0 .063-.008.07-.086.07-.08 0-.087.005-.087.069 0 .061-.01.07-.08.077C.764.849.753.86.746.926.74.992.73 1.003.66 1.01c-.069.007-.08.017-.086.085-.007.067-.017.077-.08.077-.067 0-.073.007-.073.083s-.006.083-.071.083c-.085 0-.102.032-.102.192 0 .113-.002.117-.07.117-.085 0-.102.053-.102.311 0 .13-.008.163-.037.163-.033 0-.037 1.132-.037 10.041s.004 10.04.037 10.04c.028 0 .037.032.038.137.003.248.027.325.104.334.063.007.067.015.067.123 0 .158.018.19.102.19.065 0 .071.007.071.083s.006.083.072.083c.064 0 .074.01.08.077.007.068.018.078.087.085.069.006.08.017.086.083.007.066.018.077.088.083.07.006.08.016.08.077 0 .062.009.07.074.07.062 0 .076.012.094.077.02.075.024.077.173.084.15.007.153.009.153.075 0 .08.033.096.211.096.103 0 .134.008.134.036 0 .031 1.924.035 17.166.035s17.165-.004 17.165-.035c0-.029.038-.036.191-.036.262 0 .303-.013.303-.096 0-.066.003-.068.154-.075.15-.007.154-.009.177-.084.02-.063.036-.077.093-.077.06 0 .069-.01.069-.071 0-.066.007-.072.086-.072.082 0 .086-.004.086-.083s.005-.083.087-.083.086-.004.086-.083c0-.076.006-.083.074-.083.066 0 .074-.008.074-.071 0-.054.011-.071.047-.071.11 0 .126-.023.126-.18v-.15l.08-.007c.08-.007.08-.007.087-.156.006-.11.017-.148.044-.148.03 0 .035-1.298.035-10.195 0-8.904-.004-10.195-.035-10.195-.028 0-.038-.04-.044-.16l-.007-.16-.08-.008-.08-.007v-.304l-.087-.015c-.074-.014-.086-.025-.086-.083a.214.214 0 00-.107-.211.135.135 0 01-.075-.083.103.103 0 00-.08-.075.137.137 0 01-.085-.072.228.228 0 00-.222-.104c-.055 0-.072-.01-.072-.045 0-.106-.023-.121-.188-.121h-.157V.46c0-.074-.057-.106-.164-.095-.102.01-.157-.003-.157-.037 0-.031-1.925-.035-17.178-.035S1.9.297 1.9.328m18.286 3.038a1.772 1.772 0 00.258.05.406.406 0 01.208.068.58.58 0 00.178.084.568.568 0 01.179.085.51.51 0 00.165.08.392.392 0 01.142.068.94.94 0 00.138.1 1.6 1.6 0 01.365.388.277.277 0 00.056.087.413.413 0 01.072.174.276.276 0 00.052.136c.06.05.085.116.106.284a.756.756 0 00.069.24 1.48 1.48 0 010 .792.778.778 0 00-.062.26c-.013.167-.07.368-.104.368a.274.274 0 00-.046.125.698.698 0 01-.12.303.37.37 0 00-.056.137.584.584 0 01-.083.186.782.782 0 00-.095.153 1.77 1.77 0 01-.247.364.528.528 0 00-.077.11.255.255 0 01-.083.094.086.086 0 00-.047.06.301.301 0 01-.083.116.376.376 0 00-.083.104c0 .012-.027.033-.06.048s-.059.04-.059.058a1.194 1.194 0 01-.276.281c-.024.021-.118.12-.207.22a.711.711 0 01-.238.201.484.484 0 00-.158.096 1.328 1.328 0 01-.237.2.45.45 0 00-.18.132.117.117 0 01-.078.05.199.199 0 00-.103.07.412.412 0 01-.151.097.381.381 0 00-.147.098.195.195 0 01-.086.068.186.186 0 00-.085.059.395.395 0 01-.14.086.544.544 0 00-.15.082.518.518 0 01-.185.08.59.59 0 00-.185.072.868.868 0 01-.254.085 1.89 1.89 0 00-.237.058 1.281 1.281 0 01-.641.012 1.713 1.713 0 00-.155-.057c-.095-.03-.332-.235-.332-.288a.386.386 0 00-.065-.13 1.035 1.035 0 01-.012-.736.452.452 0 00.07-.198.547.547 0 01.065-.201 1.139 1.139 0 00.092-.179 2.563 2.563 0 01.831-.85 1.054 1.054 0 01.878.09c.293.294.218.532-.34 1.08a27.461 27.461 0 00-.421.422.302.302 0 00-.077.103c0 .015-.028.048-.06.074a.59.59 0 00-.128.448c.032.097.195.113.3.03a.392.392 0 01.152-.062.717.717 0 00.215-.095.542.542 0 01.165-.08.142.142 0 00.085-.056.239.239 0 01.09-.071.61.61 0 00.142-.098.395.395 0 01.125-.083.353.353 0 00.117-.084.356.356 0 01.116-.083.375.375 0 00.117-.07.344.344 0 01.124-.072.257.257 0 00.108-.083.33.33 0 01.093-.083.69.69 0 00.137-.125l.177-.187a.225.225 0 00.061-.09c0-.014.03-.045.066-.067a2.257 2.257 0 00.395-.358l.12-.124a.202.202 0 00.06-.107.293.293 0 01.068-.13 1.12 1.12 0 00.108-.16.227.227 0 01.074-.092.141.141 0 00.048-.094.634.634 0 01.084-.184.535.535 0 00.082-.22 1.67 1.67 0 01.111-.428 1.108 1.108 0 000-.42 2.148 2.148 0 01-.122-.365c-.016-.056-.042-.101-.06-.101s-.045-.032-.06-.071c-.074-.178-.839-.176-1.115.003a.42.42 0 01-.157.068.323.323 0 00-.142.071.47.47 0 01-.18.086 1.054 1.054 0 00-.402.257.21.21 0 01-.088.06.224.224 0 00-.093.072.382.382 0 01-.16.097.268.268 0 00-.124.067.4.4 0 01-.131.086.736.736 0 00-.162.1.201.201 0 01-.101.053.171.171 0 00-.095.062.494.494 0 01-.12.096 2.235 2.235 0 00-.31.22 1.039 1.039 0 01-.307.263.598.598 0 00-.156.095.58.58 0 01-.158.095c-.018 0-.039.021-.047.047-.01.03-.05.056-.114.073a.716.716 0 00-.185.084c-.21.144-1.016.126-1.073-.023a.122.122 0 00-.08-.049.749.749 0 01-.412-.518.59.59 0 00-.034-.148.37.37 0 01-.002-.305 1.622 1.622 0 00.072-.24 1.146 1.146 0 01.096-.266.46.46 0 00.059-.131.205.205 0 01.053-.09c.03-.033.085-.103.124-.155s.09-.115.112-.14a.289.289 0 00.055-.086.144.144 0 01.072-.066.096.096 0 00.058-.07 1.966 1.966 0 01.558-.585 1.41 1.41 0 00.297-.224.262.262 0 01.11-.075.326.326 0 00.122-.085l.16-.154a.246.246 0 01.114-.07.144.144 0 00.082-.041.471.471 0 01.203-.125.213.213 0 00.092-.046.938.938 0 01.188-.097.72.72 0 00.178-.097.403.403 0 01.142-.072.428.428 0 00.14-.066.563.563 0 01.303-.106.453.453 0 00.178-.06.762.762 0 01.207-.084 1.519 1.519 0 00.26-.096.573.573 0 01.201-.06 2.271 2.271 0 00.299-.045 2.275 2.275 0 01.824-.014m-4.219 8.484a.55.55 0 01.18.832.285.285 0 00-.073.093c0 .012-.045.045-.1.073s-.128.067-.16.087c-.135.08-.594-.09-.594-.219a.11.11 0 00-.05-.064.554.554 0 01-.116-.342c0-.123.03-.173.233-.38l.122-.125h.244c.198 0 .256.009.314.045m3.73.361c.039.043.045.09.046.35 0 .165.003.34.006.39l.004.088h.162c.38 0 .445.058.442.392-.003.346-.002.344-.366.365l-.25.015.004.866.003.867.096.1a.327.327 0 00.243.123c.263.043.356.284.232.601-.047.12-.672.163-.863.058a5.293 5.293 0 00-.167-.086.3.3 0 01-.124-.107c-.015-.033-.042-.06-.06-.06a.801.801 0 01-.22-.216 5.287 5.287 0 01-.082-1.446c-.002-1.134-.007-1.199-.094-1.199-.053 0-.061.014-.085.143-.048.266-.125.32-.457.32a1.45 1.45 0 00-.479.064c-.006.006-.017.558-.023 1.226-.014 1.368-.007 1.319-.186 1.38a1.321 1.321 0 01-.804-.05 9.033 9.033 0 01-.031-1.374V13.69l.1-.132a.782.782 0 01.179-.175c.042-.023.077-.05.077-.06 0-.024.14-.093.19-.093a.237.237 0 00.108-.058.37.37 0 01.129-.072 2.814 2.814 0 01.934-.085.134.134 0 00.08.025.442.442 0 01.152.049c.186.095.204.063.218-.386.011-.36.027-.394.203-.439l.247-.064c.197-.054.38-.048.435.012m4.743-.006a7.817 7.817 0 01.045 1.692l.005 1.648.092.112c.083.101.101.112.192.112.267 0 .375.558.133.688a1.578 1.578 0 01-.832-.07c0-.01-.034-.032-.075-.046-.082-.028-.258-.199-.258-.25a.223.223 0 00-.059-.094.299.299 0 01-.069-.116l-.048-.266a.691.691 0 01-.016-.291.302.302 0 00.003-.145c-.022-.077-.011-2.424.012-2.669.018-.182.046-.222.172-.243a.832.832 0 00.124-.03c.213-.084.515-.102.579-.032m-10.526.843a1.283 1.283 0 01.253.08l.18.098a.373.373 0 01.185.26.145.145 0 00.046.062c.106.096.125.307.122 1.372-.002 1.145.007 1.096-.217 1.236a.5.5 0 00-.14.11c0 .011-.049.037-.108.057a.483.483 0 00-.142.072 2.968 2.968 0 01-1.357.02.823.823 0 00-.146-.088.174.174 0 01-.092-.083c-.007-.026-.026-.048-.042-.048a.75.75 0 01-.254-.286c-.013-.038-.034-.07-.045-.07a1.06 1.06 0 01-.16-.611.67.67 0 00.04-.18c.023-.156.075-.277.12-.277.013 0 .03-.024.039-.053a1.375 1.375 0 01.447-.403c.219-.121.228-.123.667-.14.235-.009.43-.017.433-.019a.309.309 0 00-.019-.184.555.555 0 01-.065-.106l-.04-.08-.262-.008a1.016 1.016 0 00-.587.099c-.13.096-.359.038-.386-.097a3.122 3.122 0 00-.048-.186c-.064-.223-.028-.328.122-.356a.396.396 0 00.152-.073.573.573 0 01.254-.093 5.91 5.91 0 00.268-.056 2.795 2.795 0 01.782.031m8.505.038a.266.266 0 01.128.085.124.124 0 00.08.058c.065 0 .24.185.265.282a.687.687 0 00.081.171.653.653 0 01.08.219.575.575 0 00.076.207 1.35 1.35 0 01.033.743c-.036.036-.12.04-.809.04-.924 0-.89-.008-.889.207a.58.58 0 00.078.37.333.333 0 01.067.091.563.563 0 00.128.14l.095.075.273-.011a.778.778 0 00.462-.108c.135-.075.417-.056.462.03.02.04.061.112.092.16.061.096.08.259.031.275a.795.795 0 00-.129.09 1.407 1.407 0 01-1.058.276c-.475.004-.577-.013-.699-.115a.24.24 0 00-.102-.056 1.84 1.84 0 01-.412-.411.246.246 0 00-.06-.102.789.789 0 01-.13-.33.569.569 0 00-.054-.132 2.607 2.607 0 01.01-1.162 1.626 1.626 0 00.079-.26.332.332 0 01.075-.16.5.5 0 00.093-.163.558.558 0 01.106-.177.29.29 0 00.07-.094c0-.031.13-.095.192-.095a.274.274 0 00.131-.07.408.408 0 01.17-.085c.049-.008.105-.018.125-.023a5.596 5.596 0 01.86.035m-6.367.024a31.903 31.903 0 01.022 3.247c-.054.155-.782.185-.84.035a40.836 40.836 0 01-.014-1.584l.002-1.543.073-.065a.35.35 0 01.148-.076c.04-.006.133-.02.205-.033.232-.039.351-.033.404.02m5.62.712a.086.086 0 00-.042.06.465.465 0 01-.113.196c-.11.116.076.24.31.207l.23-.033.107-.015.007-.114a.365.365 0 00-.5-.3m-8.396 1.084a.522.522 0 00-.1.802.654.654 0 00.532-.007 1.434 1.434 0 00.017-.79 1.418 1.418 0 00-.449-.005m4.274 3.046a.612.612 0 01.436.367 1.009 1.009 0 00.076.165 1.341 1.341 0 01-.012.647 2.171 2.171 0 00-.074.238.752.752 0 01-.086.209.342.342 0 00-.057.117c0 .05-.115.176-.223.244a.675.675 0 00-.14.116.142.142 0 01-.121.056.926.926 0 00-.206.038.814.814 0 01-.83-.276 3.297 3.297 0 00-.09-.178 1.216 1.216 0 01-.048-.47l-.008-.398.082-.171c.045-.094.09-.195.099-.225a.974.974 0 01.267-.29.191.191 0 00.076-.057.397.397 0 01.163-.085.433.433 0 00.17-.088c.077-.076.221-.065.526.04m4.093-.023a.523.523 0 00.144.046.44.44 0 01.31.263.23.23 0 00.059.108.265.265 0 01-.003.3.224.224 0 00-.048.088.647.647 0 01-.368.416 2.113 2.113 0 00-.259.074 1.086 1.086 0 01-.225.058c-.137.001-.174.075-.08.157a.391.391 0 00.491.068c.205-.14.285-.071.271.232-.01.252-.053.334-.183.358-.504.095-.486.094-.648.053a1.46 1.46 0 00-.199-.04.808.808 0 01-.414-.331 2.065 2.065 0 01-.07-.79c.032-.323.04-.356.117-.458a.424.424 0 00.071-.119.344.344 0 01.078-.108l.117-.128a.44.44 0 01.309-.182.572.572 0 00.19-.06.296.296 0 01.34-.005m-7.038.035a.557.557 0 00.164.059.08.08 0 01.06.021c.007.012.066.001.132-.023a.697.697 0 01.172-.046.325.325 0 00.121-.035.808.808 0 01.43-.012.388.388 0 00.106.07c.122.063.24.354.183.447a2.201 2.201 0 00-.04.356 2.264 2.264 0 01-.085.675.371.371 0 00-.033.142c0 .381-.086.494-.378.494-.358 0-.419-.095-.297-.464a2.389 2.389 0 00.095-.557c.018-.202.039-.401.047-.442.029-.137-.1-.184-.302-.112-.132.048-.132.046-.161.435a2.82 2.82 0 01-.061.428 2.147 2.147 0 00-.057.321c-.037.377-.05.39-.377.39-.355 0-.411-.085-.288-.44a3.628 3.628 0 00.117-.785.807.807 0 01.034-.215c.051-.146-.102-.222-.279-.138-.13.063-.178.184-.207.527a2.371 2.371 0 01-.214 1.01.95.95 0 01-.572.002.888.888 0 01-.005-.558l.06-.269c.011-.053.036-.226.054-.386a1.028 1.028 0 01.084-.37.405.405 0 00.049-.234c0-.263.216-.369.539-.264a.785.785 0 00.467-.063.626.626 0 01.442.036m5.347.002a.46.46 0 01.278.575 9.457 9.457 0 00-.048.415 1.138 1.138 0 01-.081.392.842.842 0 00-.068.35c-.022.379-.054.414-.385.414-.295 0-.308-.017-.286-.376a1.29 1.29 0 01.05-.335 1.804 1.804 0 00.049-.878c-.035-.028-.145-.02-.288.024-.075.023-.099.09-.152.437-.01.066-.035.194-.055.285a3.288 3.288 0 00-.052.392c-.029.422-.061.457-.406.446-.295-.01-.313-.037-.273-.391a2.368 2.368 0 01.108-.553 1.943 1.943 0 00.038-.304c.058-.748.069-.796.201-.856a.976.976 0 01.49.009c.074.034.09.032.28-.032a.75.75 0 01.6-.014m4.126.036a1.253 1.253 0 01-.003.823.578.578 0 00-.08.178.426.426 0 01-.065.15.563.563 0 00-.085.149.715.715 0 01-.103.175.378.378 0 00-.073.142.478.478 0 01-.084.162.222.222 0 00-.055.085.245.245 0 01-.061.091 1.301 1.301 0 00-.12.158 1.982 1.982 0 01-.31.375c-.32.337-.362.373-.465.404a.921.921 0 00-.184.08c-.212.13-.774.002-.821-.188-.083-.331.026-.473.338-.441.496.05.756-.154.662-.521a3.27 3.27 0 01-.061-.352 3.429 3.429 0 00-.105-.583 4.664 4.664 0 01-.083-.737c-.002-.104.054-.138.252-.155.352-.03.403.07.475.932.024.29.145.36.251.147l.097-.189a1.282 1.282 0 00.088-.553c0-.248.015-.284.13-.329.151-.059.428-.06.465-.003m-2.815.509c-.092.054-.15.173-.114.232.032.052.41-.102.41-.168 0-.131-.133-.16-.296-.064m-4.254.076a.63.63 0 01-.096.108.132.132 0 00-.03.095c0 .042-.012.183-.027.313-.036.322 0 .447.135.459a.295.295 0 00.327-.287.668.668 0 01.052-.167.992.992 0 00.05-.447.236.236 0 00-.41-.074"
              fill="#eb3434"/>
        <path d="M14.125 18.046a.488.488 0 00-.142.053.26.26 0 01-.311.007.242.242 0 00-.218-.046c-.174.022-.18.028-.203.24a2.17 2.17 0 01-.103.536 3.323 3.323 0 00-.109.756 1.504 1.504 0 01-.049.33c-.035.066-.004.094.106.097a.948.948 0 01.12.012c.199.038.256-.055.292-.478a1.061 1.061 0 01.062-.32 1.05 1.05 0 00.061-.343c.026-.374.049-.415.246-.452a.215.215 0 00.1-.037c.03-.05.323.063.352.137a3.042 3.042 0 01-.091.635 7.766 7.766 0 00-.118.785c-.003.045.012.048.223.048h.225l.017-.238a1.87 1.87 0 01.113-.64.643.643 0 00.048-.327c0-.246.049-.35.164-.35a.697.697 0 00.148-.039c.164-.059.455.098.387.207a1.082 1.082 0 00-.036.218 1.097 1.097 0 01-.056.268 1.138 1.138 0 00-.051.3 1.975 1.975 0 01-.05.344c-.067.225.019.313.271.28.13-.018.144-.047.173-.351a2.322 2.322 0 01.068-.387 2.355 2.355 0 00.06-1.112c-.124-.19-.595-.201-.86-.022-.104.071-.12.071-.232-.007a.748.748 0 00-.607-.104m2.843.018a.524.524 0 00-.165.081.444.444 0 01-.127.074c-.043.015-.079.036-.079.046a.604.604 0 01-.09.122.493.493 0 00-.123.257.83.83 0 01-.07.21 1.503 1.503 0 00.147 1.048.54.54 0 01.095.077 1.056 1.056 0 00.881-.035.268.268 0 01.09-.069c.048 0 .194-.182.228-.284a.47.47 0 01.088-.158 2.053 2.053 0 00.065-1.03c-.066-.286-.545-.46-.94-.339m2.519-.017a.72.72 0 00-.224.094c-.134.089-.126.089-.21.002-.065-.065-.083-.07-.243-.07-.199-.002-.205.005-.244.273a1.219 1.219 0 01-.054.225 1.367 1.367 0 00-.05.296 3.212 3.212 0 01-.092.75c-.111.248-.08.392.09.414.18.022.243-.016.302-.18a1.923 1.923 0 00.113-.664 1.5 1.5 0 01.09-.522c.08-.198.07-.189.247-.23.083-.018.174-.04.202-.047.1-.025.211.14.186.273a5.847 5.847 0 00-.037.42 2.138 2.138 0 01-.098.697c-.05.07-.027.208.037.226.3.08.438-.068.47-.506a1.032 1.032 0 01.096-.444 1.592 1.592 0 00.023-.858.591.591 0 00-.604-.149m1.718.016a.505.505 0 00-.209.094.19.19 0 01-.09.057c-.02 0-.05.031-.07.07a.334.334 0 01-.083.101.372.372 0 00-.087.138.95.95 0 01-.091.173c-.046.063-.05.1-.05.517v.448l.064.06a.326.326 0 01.078.104.157.157 0 00.083.074.169.169 0 01.082.06c.045.12.916.122.916.003 0-.015.021-.04.046-.056.122-.077.08-.368-.045-.304-.263.136-.808-.025-.808-.24 0-.12.16-.203.475-.246.212-.029.332-.064.332-.096 0-.011.02-.026.044-.034a.861.861 0 00.238-.343.46.46 0 00-.133-.493l-.09-.1-.225-.012a1.223 1.223 0 00-.377.025m1.234.03a1.06 1.06 0 00.03.557 1.316 1.316 0 01.108.564 1.148 1.148 0 00.072.393.613.613 0 01.049.3v.201l-.109.134a.598.598 0 01-.634.206c-.22-.04-.342.064-.31.263.032.198.817.236.982.047a.786.786 0 01.11-.094.271.271 0 00.091-.1.1.1 0 01.057-.059.146.146 0 00.07-.073.2.2 0 01.085-.085.198.198 0 00.085-.092.444.444 0 01.07-.112 1.267 1.267 0 00.105-.145c.035-.054.072-.099.084-.099a.372.372 0 00.084-.13.41.41 0 01.082-.131c.01 0 .032-.045.048-.1a.474.474 0 01.086-.161.556.556 0 00.093-.165.584.584 0 01.07-.143 1.175 1.175 0 00.096-.238 1.612 1.612 0 01.084-.225.443.443 0 00-.055-.481c-.21-.143-.33-.06-.344.234a.63.63 0 01-.042.26.763.763 0 00-.068.223.694.694 0 01-.078.232.763.763 0 00-.09.145c-.05.104-.22.222-.284.197-.045-.017-.079-.148-.109-.419a1.664 1.664 0 00-.046-.273 1.46 1.46 0 01-.085-.427.553.553 0 00-.043-.208.803.803 0 00-.344.004m-.915.23c.136.036.165.255.05.382-.157.174-.532.204-.592.048-.024-.063.12-.302.182-.302a.163.163 0 00.073-.055.26.26 0 01.287-.074m-4.13.093c.134.087.15.692.026.927a.651.651 0 00-.063.144c0 .212-.434.257-.545.056a.868.868 0 00-.092-.14.39.39 0 01.017-.295.924.924 0 00.046-.229c.052-.425.338-.642.612-.463"
              fill="#f4b934"/>
        <path d="M19.363 3.38a2.271 2.271 0 01-.299.045.573.573 0 00-.202.06 1.519 1.519 0 01-.259.096.762.762 0 00-.207.083.453.453 0 01-.178.06.563.563 0 00-.303.107.428.428 0 01-.14.066.403.403 0 00-.142.072.72.72 0 01-.178.097.938.938 0 00-.188.097.213.213 0 01-.092.046.471.471 0 00-.203.125.144.144 0 01-.082.041.246.246 0 00-.113.07l-.16.154a.326.326 0 01-.124.085.262.262 0 00-.109.074 1.41 1.41 0 01-.297.225 1.966 1.966 0 00-.558.585.096.096 0 01-.058.07.144.144 0 00-.072.066.289.289 0 01-.055.085c-.023.025-.073.089-.112.141s-.094.122-.124.154a.205.205 0 00-.053.09.46.46 0 01-.059.132 1.146 1.146 0 00-.096.265 1.622 1.622 0 01-.072.24.37.37 0 00.002.306.59.59 0 01.034.148.749.749 0 00.412.518.122.122 0 01.08.05c.057.148.863.165 1.073.022a.716.716 0 01.185-.084c.064-.017.105-.043.114-.073.008-.026.03-.047.047-.047a.58.58 0 00.158-.095.598.598 0 01.156-.095 1.039 1.039 0 00.307-.263 2.235 2.235 0 01.31-.22.494.494 0 00.12-.096.171.171 0 01.095-.062.201.201 0 00.101-.054.736.736 0 01.162-.099.4.4 0 00.13-.086.268.268 0 01.126-.067.382.382 0 00.16-.097.224.224 0 01.092-.072.21.21 0 00.088-.06 1.054 1.054 0 01.403-.257.47.47 0 00.18-.086.323.323 0 01.141-.071.42.42 0 00.157-.068c.277-.179 1.04-.181 1.114-.003.016.039.044.07.062.07s.044.046.059.102a2.148 2.148 0 00.123.366 1.108 1.108 0 010 .419 1.67 1.67 0 00-.112.429.535.535 0 01-.082.22.634.634 0 00-.083.183.141.141 0 01-.05.094.227.227 0 00-.073.091 1.12 1.12 0 01-.108.161.293.293 0 00-.068.13.202.202 0 01-.06.107l-.12.124a2.257 2.257 0 01-.395.358c-.036.022-.066.053-.066.068a.225.225 0 01-.06.089c-.034.034-.114.119-.178.187a.69.69 0 01-.137.125.33.33 0 00-.093.083.257.257 0 01-.108.083.344.344 0 00-.124.071.375.375 0 01-.117.071.356.356 0 00-.116.083.353.353 0 01-.117.084.395.395 0 00-.125.083.61.61 0 01-.141.098.239.239 0 00-.091.07.142.142 0 01-.085.057.542.542 0 00-.165.08.717.717 0 01-.215.095.392.392 0 00-.152.062c-.105.083-.268.067-.3-.03a.59.59 0 01.127-.448c.033-.026.06-.06.06-.074a.302.302 0 01.078-.103l.113-.116.308-.306c.558-.548.633-.786.34-1.08a1.054 1.054 0 00-.878-.09 2.563 2.563 0 00-.83.85 1.139 1.139 0 01-.093.179.547.547 0 00-.066.201.452.452 0 01-.069.198 1.035 1.035 0 00.012.736.386.386 0 01.065.13c0 .053.237.258.332.288a1.7 1.7 0 01.155.057 1.281 1.281 0 00.64-.012 1.89 1.89 0 01.238-.058.868.868 0 00.254-.085.59.59 0 01.185-.073.518.518 0 00.185-.08.544.544 0 01.15-.08.395.395 0 00.14-.087.186.186 0 01.085-.059.195.195 0 00.086-.068.381.381 0 01.147-.097.412.412 0 00.15-.099.199.199 0 01.104-.068.117.117 0 00.078-.05.45.45 0 01.18-.132 1.487 1.487 0 00.238-.206.429.429 0 01.15-.09.658.658 0 00.245-.203c.09-.099.183-.198.207-.219a1.194 1.194 0 00.276-.281c0-.017.027-.043.06-.058s.059-.036.059-.048a.376.376 0 01.083-.104.301.301 0 00.083-.117.086.086 0 01.047-.059.255.255 0 00.083-.093.528.528 0 01.077-.11 1.77 1.77 0 00.246-.365.782.782 0 01.096-.153.584.584 0 00.083-.186.37.37 0 01.056-.137.698.698 0 00.12-.303.274.274 0 01.046-.125c.034 0 .091-.201.104-.368a.778.778 0 01.061-.26 1.48 1.48 0 000-.792.756.756 0 01-.068-.24c-.02-.168-.046-.234-.106-.284a.276.276 0 01-.052-.136.413.413 0 00-.072-.174.277.277 0 01-.056-.087 1.6 1.6 0 00-.365-.388.94.94 0 01-.138-.1.392.392 0 00-.142-.068.51.51 0 01-.165-.08.568.568 0 00-.179-.085.58.58 0 01-.178-.084.406.406 0 00-.208-.068 1.772 1.772 0 01-.258-.05 2.275 2.275 0 00-.824.014m1.068.141a.444.444 0 01.134.063.533.533 0 00.153.07.522.522 0 01.15.067.798.798 0 00.176.085 1.63 1.63 0 01.694.576.452.452 0 00.073.12.236.236 0 01.056.113.868.868 0 00.06.194 2.612 2.612 0 01.015 1.648.801.801 0 00-.064.204.568.568 0 01-.074.198.827.827 0 00-.09.212.516.516 0 01-.08.177.47.47 0 00-.076.143.522.522 0 01-.098.166.241.241 0 00-.068.106c0 .02-.008.036-.017.036a.279.279 0 00-.077.089 2.41 2.41 0 01-.154.2 1.543 1.543 0 00-.232.31.109.109 0 01-.066.058c-.026.007-.047.022-.047.033a3.427 3.427 0 01-.445.449c-.012 0-.034.027-.05.06a.204.204 0 01-.086.086c-.033.015-.06.04-.06.057s-.047.051-.104.078a1.512 1.512 0 00-.255.177 1.743 1.743 0 01-.228.168c-.043.022-.078.05-.078.064s-.035.04-.079.058a.903.903 0 00-.18.117.405.405 0 01-.134.084c-.018 0-.05.027-.072.06a.125.125 0 01-.074.059.476.476 0 00-.149.083.52.52 0 01-.142.083.71.71 0 00-.163.083.688.688 0 01-.286.103.329.329 0 00-.18.06 1.753 1.753 0 01-.918.084.776.776 0 01-.445-.94 1.304 1.304 0 00.047-.197.553.553 0 01.07-.195.706.706 0 00.08-.194.571.571 0 01.072-.173 8.618 8.618 0 01.648-.648.598.598 0 00.14-.06c.226-.12.724-.013.795.172a.458.458 0 01-.032.365 5.547 5.547 0 01-.591.63c-.044.04-.133.136-.199.212s-.14.161-.168.19a.556.556 0 00-.088.147 1.406 1.406 0 01-.087.175.32.32 0 00-.001.34c.087.079.594.079.594 0 0-.04.072-.083.142-.083a.455.455 0 00.214-.095.433.433 0 01.094-.06 1.12 1.12 0 00.177-.121.436.436 0 01.115-.08c.012 0 .043-.026.069-.059a.15.15 0 01.081-.06.178.178 0 00.09-.053.643.643 0 01.158-.1.48.48 0 00.149-.101.14.14 0 01.072-.054 2.712 2.712 0 00.598-.574.105.105 0 01.065-.056 2.3 2.3 0 00.55-.589 6.28 6.28 0 01.143-.217 1.15 1.15 0 00.166-.273 1.339 1.339 0 01.084-.156.667.667 0 00.07-.196 1.227 1.227 0 01.074-.233 1.327 1.327 0 00-.321-1.447 2.153 2.153 0 01-.132-.069 1.18 1.18 0 00-.676.022 1.295 1.295 0 01-.235.087.553.553 0 00-.189.085.238.238 0 01-.116.056.444.444 0 00-.159.069 1.006 1.006 0 01-.209.098.403.403 0 00-.152.085.183.183 0 01-.077.056.222.222 0 00-.085.058 2.004 2.004 0 01-.395.275.495.495 0 00-.125.08.429.429 0 01-.132.072.347.347 0 00-.143.098.124.124 0 01-.081.058.15.15 0 00-.088.05.537.537 0 01-.129.093.91.91 0 00-.168.122 1.98 1.98 0 01-.469.37.333.333 0 00-.124.075.542.542 0 01-.136.095c-.055.028-.1.06-.1.071a1.803 1.803 0 01-.45.197.87.87 0 01-.676-.046.477.477 0 00-.142-.077.85.85 0 01-.196-.164l-.163-.163-.03-.235a1.061 1.061 0 01.076-.638.253.253 0 00.054-.102.63.63 0 01.124-.244l.117-.14a1.065 1.065 0 00.108-.159.686.686 0 01.092-.133c.03-.03.094-.109.144-.173a1.386 1.386 0 01.318-.342c.016 0 .047-.026.068-.058a.198.198 0 01.107-.073.192.192 0 00.1-.056.588.588 0 01.112-.097c.046-.031.12-.087.166-.123l.153-.12a1.954 1.954 0 00.154-.14.529.529 0 01.172-.114.564.564 0 00.143-.071.561.561 0 01.141-.071.428.428 0 00.143-.084.315.315 0 01.131-.071.583.583 0 00.172-.086.381.381 0 01.133-.07.755.755 0 00.177-.07 1.414 1.414 0 01.277-.098 1.011 1.011 0 00.234-.082.752.752 0 01.19-.07 1.393 1.393 0 00.23-.074 3.706 3.706 0 011.431-.057m-5.143 8.409c-.202.207-.233.257-.233.38a.554.554 0 00.117.342.11.11 0 01.049.064c0 .13.46.299.593.219.033-.02.105-.059.16-.087s.101-.061.101-.073a.285.285 0 01.072-.093.553.553 0 00-.009-.694.505.505 0 00-.484-.183h-.243l-.122.125m.601.018c.273.18.341.377.203.585a4.002 4.002 0 00-.102.162.615.615 0 01-.361.106c-.141.002-.334-.114-.337-.201a.42.42 0 00-.06-.112c-.215-.315.326-.76.657-.54m3.372.25l-.247.065c-.176.045-.192.08-.203.44-.014.448-.032.48-.218.385a.442.442 0 00-.151-.049.134.134 0 01-.081-.025 2.814 2.814 0 00-.934.085.37.37 0 00-.129.071.237.237 0 01-.108.06c-.05 0-.19.068-.19.092 0 .01-.035.037-.077.06a.782.782 0 00-.178.175l-.101.132v1.332a9.033 9.033 0 00.031 1.375 1.321 1.321 0 00.804.048c.179-.06.172-.01.186-1.38.006-.667.017-1.219.023-1.225a1.45 1.45 0 01.479-.064c.332 0 .41-.054.458-.32.023-.13.03-.143.084-.143.087 0 .092.064.094 1.199a5.287 5.287 0 00.083 1.446.801.801 0 00.22.215c.017 0 .044.027.059.06a.3.3 0 00.124.108c.053.026.128.065.167.086.191.105.816.063.863-.058.125-.317.031-.558-.232-.6a.327.327 0 01-.243-.125l-.095-.1-.004-.866-.003-.866.249-.015c.365-.02.363-.02.366-.365.003-.335-.062-.392-.442-.392h-.161l-.005-.089a12.982 12.982 0 01-.006-.389c-.002-.416-.076-.472-.482-.362m4.73-.004c-.053.016-.111.035-.131.043a.832.832 0 01-.124.029c-.125.02-.154.06-.171.243-.024.245-.035 2.592-.012 2.67a.302.302 0 01-.004.144.691.691 0 00.016.29l.049.267a.299.299 0 00.068.116.223.223 0 01.06.095c0 .05.175.22.257.249.04.014.075.035.075.046a1.578 1.578 0 00.832.07c.242-.13.134-.688-.133-.688-.09 0-.11-.01-.192-.112l-.092-.112-.005-1.648c-.006-1.902.017-1.738-.242-1.733a1.19 1.19 0 00-.251.031m.415 1.834l.012 1.642.07.074a.474.474 0 00.194.109c.171.05.208.111.193.323a.648.648 0 01-.029.18.995.995 0 01-.467-.003 2.635 2.635 0 00-.217-.082c-.195-.064-.302-.181-.462-.503a7.667 7.667 0 01-.05-1.602c-.008-1.707-.006-1.76.087-1.797a1.582 1.582 0 01.633-.02c.015.023.029.644.036 1.679m-4.779-1.672a2.303 2.303 0 01.032.379c.014.423.012.42.296.422.26.001.297.036.297.273s-.038.272-.297.273c-.31.002-.285-.087-.285 1.009v.935l.092.094a.308.308 0 00.198.11c.303.045.388.456.109.526-.26.065-.98-.222-.98-.39a.155.155 0 00-.05-.067c-.124-.11-.124-.099-.134-1.719-.01-1.61-.003-1.79.061-1.816a1.532 1.532 0 01.661-.03m-6.496.661a5.895 5.895 0 01-.268.056.573.573 0 00-.254.092.396.396 0 01-.152.074c-.15.028-.186.133-.122.356.019.066.04.15.048.186.027.135.257.193.386.097a1.016 1.016 0 01.587-.099l.262.008.04.08a.555.555 0 00.065.106.309.309 0 01.02.184c-.004.002-.2.01-.434.02-.44.016-.448.018-.667.139a1.375 1.375 0 00-.447.403c-.01.029-.026.053-.038.053-.046 0-.098.121-.12.277a.67.67 0 01-.042.18 1.06 1.06 0 00.161.611c.011 0 .032.032.045.07a.75.75 0 00.254.286c.016 0 .035.022.042.048a.174.174 0 00.092.083.823.823 0 01.146.089 2.968 2.968 0 001.357-.021.483.483 0 01.142-.072c.06-.02.108-.046.108-.058a.5.5 0 01.14-.109c.224-.14.215-.091.218-1.237.003-1.06-.015-1.251-.124-1.371a.194.194 0 01-.045-.065.377.377 0 00-.185-.257l-.18-.097a2.338 2.338 0 00-1.035-.112m8.427.034c-.02.005-.076.015-.126.024a.408.408 0 00-.169.084.274.274 0 01-.131.07c-.063 0-.192.064-.192.095a.29.29 0 01-.07.094.558.558 0 00-.106.177.5.5 0 01-.093.162.332.332 0 00-.075.162 1.626 1.626 0 01-.08.259 2.607 2.607 0 00-.009 1.162.569.569 0 01.054.133.789.789 0 00.13.33.246.246 0 01.06.1 1.84 1.84 0 00.412.412.24.24 0 01.102.056c.122.102.224.119.7.115a1.407 1.407 0 001.057-.277.795.795 0 01.13-.089c.048-.016.03-.18-.032-.275a2.234 2.234 0 01-.093-.159c-.044-.087-.326-.106-.46-.03a.778.778 0 01-.464.107l-.273.011-.095-.075a.563.563 0 01-.127-.14.333.333 0 00-.067-.09.58.58 0 01-.078-.371c0-.215-.035-.207.89-.207.688 0 .772-.004.808-.04a1.35 1.35 0 00-.033-.743.575.575 0 01-.076-.207.653.653 0 00-.08-.219.687.687 0 01-.08-.171c-.027-.097-.2-.282-.267-.282a.124.124 0 01-.08-.058.266.266 0 00-.127-.085 5.596 5.596 0 00-.86-.035m-5.911.04a14.02 14.02 0 01-.205.033.35.35 0 00-.148.076l-.073.065-.003 1.543a40.86 40.86 0 00.014 1.584c.033.083.558.128.742.064.124-.043.124-.046.124-1.735 0-1.87.044-1.713-.451-1.63m-1.723.066a.252.252 0 01.106.044.673.673 0 00.15.085c.146.07.28.202.28.277a.39.39 0 00.065.146l.066.098.007 1.04.008 1.038-.09.084a1.563 1.563 0 01-.385.275 1.907 1.907 0 00-.25.076 1.21 1.21 0 01-.56.078h-.344l-.133-.077a.724.724 0 00-.16-.077 2.088 2.088 0 01-.442-.475 15.172 15.172 0 00-.094-.13 1.068 1.068 0 01.054-.753c.034-.035.105-.117.157-.182a.616.616 0 01.162-.147.213.213 0 00.089-.072.233.233 0 01.124-.07.63.63 0 00.168-.076c.06-.043.118-.05.468-.064.465-.018.497-.031.497-.207a.508.508 0 00-.677-.439l-.33.085c-.339.087-.402.057-.413-.193l-.007-.17.138-.042a.956.956 0 00.209-.09 2.484 2.484 0 011.137-.062m4.536-.002c.124.03.114.185-.023.364l-.082.109h-.186a1.17 1.17 0 00-.377.064c-.303.098-.289.033-.298 1.402-.007 1.041-.01 1.12-.052 1.184l-.044.067-.276-.012c-.299-.014-.346-.024-.375-.085-.01-.022-.023-.573-.027-1.225l-.008-1.185.11-.16a.706.706 0 01.221-.225 1.566 1.566 0 00.147-.094.512.512 0 01.13-.059.724.724 0 00.167-.08 2.157 2.157 0 01.973-.065m3.917.052a.744.744 0 00.16.093c.062.028.112.06.112.07a.276.276 0 00.072.089.399.399 0 01.096.162 1.37 1.37 0 00.095.229.81.81 0 01.085.285 1.522 1.522 0 00.06.279c.139.407.143.405-.848.405-.738 0-.744 0-.804.054l-.06.053.026.273c.026.285.052.362.15.461a.233.233 0 01.06.079c0 .158.818.173 1.08.02a.213.213 0 01.344.202.101.101 0 00.026.062c.02.019.003.034-.059.054a.302.302 0 00-.13.091.357.357 0 01-.207.11 1.682 1.682 0 00-.234.083 1.768 1.768 0 01-.927-.037 1.191 1.191 0 00-.217-.09.208.208 0 01-.114-.076.242.242 0 00-.097-.08c-.032-.013-.058-.037-.058-.055a.192.192 0 00-.062-.09.735.735 0 01-.122-.182.37.37 0 00-.078-.124c-.03 0-.044-.06-.096-.422a2.522 2.522 0 01.015-.943 6.82 6.82 0 00.034-.264.235.235 0 01.054-.088.7.7 0 00.096-.181c.023-.066.052-.12.064-.12s.038-.03.057-.067a.545.545 0 01.303-.257.317.317 0 00.142-.065 1.731 1.731 0 01.982-.013m-6.386 1.522c0 .857-.006 1.565-.014 1.572a1.726 1.726 0 01-.501.028c-.195-.025-.185.063-.185-1.558V13.35l.053-.033a.836.836 0 01.208-.062.778.778 0 00.178-.048.31.31 0 01.19-.04l.071.004v1.558m5.565-.933c-.166.162-.227.463-.114.564a1.75 1.75 0 00.8 0c.107-.056.09-.32-.033-.506a.483.483 0 00-.653-.058m.523.116c.092.092.098.106.091.213l-.007.114-.107.015-.23.033c-.234.033-.42-.09-.31-.207a.465.465 0 00.113-.195c0-.13.312-.11.45.027m-8.604.862l-.214.04c-.18.033-.266.111-.363.327-.092.204.065.651.242.687l.172.037a.724.724 0 00.513-.097 2.028 2.028 0 00-.012-.932.376.376 0 00-.338-.062m.248.14a1.434 1.434 0 01-.017.79.654.654 0 01-.531.007.522.522 0 01.1-.802 1.418 1.418 0 01.448.006"
              fill="#e07c7e"/>
        <path d="M17.023 17.913a.433.433 0 01-.17.088.397.397 0 00-.163.085.191.191 0 01-.076.057.974.974 0 00-.267.29c-.01.03-.054.13-.099.225l-.082.171.008.399a1.216 1.216 0 00.048.47c.022.039.062.119.09.178a.814.814 0 00.83.276.926.926 0 01.206-.04.142.142 0 00.12-.055.675.675 0 01.14-.116c.109-.068.224-.195.224-.244a.342.342 0 01.057-.117.752.752 0 00.086-.209 2.171 2.171 0 01.074-.238 1.341 1.341 0 00.012-.647 1.009 1.009 0 01-.076-.165c-.11-.3-.784-.585-.961-.408m4.397-.03a.326.326 0 00-.119.051.572.572 0 01-.19.061.44.44 0 00-.31.182 5.347 5.347 0 01-.116.128.344.344 0 00-.078.108.424.424 0 01-.07.12c-.077.1-.086.134-.118.457a2.065 2.065 0 00.07.79.808.808 0 00.414.332 1.46 1.46 0 01.2.04c.16.04.143.041.647-.054.13-.024.172-.106.183-.358.014-.303-.066-.371-.27-.232a.391.391 0 01-.491-.068c-.095-.082-.057-.156.079-.157a1.086 1.086 0 00.225-.058 2.113 2.113 0 01.26-.074.647.647 0 00.368-.416.224.224 0 01.047-.087.265.265 0 00.003-.301.23.23 0 01-.058-.108.44.44 0 00-.311-.262.523.523 0 01-.144-.047.278.278 0 00-.22-.047m-7.26.046a.785.785 0 01-.467.063c-.323-.105-.54 0-.54.264a.405.405 0 01-.048.233 1.028 1.028 0 00-.083.37c-.02.161-.044.335-.056.387l-.059.269a.888.888 0 00.005.558.95.95 0 00.572-.002 2.371 2.371 0 00.214-1.01c.029-.343.076-.464.207-.527.177-.084.33-.008.279.138a.807.807 0 00-.034.215 3.628 3.628 0 01-.117.784c-.123.356-.067.442.288.442.327 0 .34-.014.377-.39a2.147 2.147 0 01.057-.322 2.82 2.82 0 00.06-.428c.03-.389.03-.387.162-.435.202-.072.33-.025.302.112-.008.04-.03.24-.047.442a2.389 2.389 0 01-.095.557c-.121.37-.061.464.297.464.292 0 .378-.113.378-.494a.371.371 0 01.033-.142 2.264 2.264 0 00.085-.675 2.201 2.201 0 01.04-.356c.058-.093-.061-.384-.183-.447a.388.388 0 01-.105-.07.808.808 0 00-.43.012.325.325 0 01-.122.035.697.697 0 00-.172.046c-.066.024-.125.035-.132.023a.08.08 0 00-.06-.021.557.557 0 01-.164-.06.626.626 0 00-.442-.035m5.189.051c-.19.065-.206.067-.28.033a.976.976 0 00-.49-.01c-.132.061-.143.11-.201.857a1.943 1.943 0 01-.038.304 2.368 2.368 0 00-.108.553c-.04.354-.022.38.272.39.346.012.378-.023.407-.445a3.288 3.288 0 01.052-.392c.02-.091.044-.22.055-.285.053-.346.077-.414.152-.437.143-.043.253-.053.288-.024a1.804 1.804 0 01-.05.878 1.29 1.29 0 00-.05.335c-.02.359-.008.376.287.376.33 0 .363-.035.385-.414a.842.842 0 01.068-.35 1.138 1.138 0 00.081-.392c.015-.154.036-.341.048-.415.078-.508-.308-.755-.878-.562m4.403-.012c-.235.034-.271.082-.272.367a1.282 1.282 0 01-.088.553l-.097.189c-.106.213-.227.142-.251-.147-.072-.861-.123-.962-.475-.932-.198.017-.254.05-.252.155a4.664 4.664 0 00.083.737 3.429 3.429 0 01.105.583 3.27 3.27 0 00.061.351c.094.367-.166.572-.662.521-.312-.032-.421.11-.338.441.047.19.609.32.821.19a.921.921 0 01.184-.082c.103-.03.145-.067.465-.403a1.982 1.982 0 00.31-.375 1.301 1.301 0 01.12-.158.245.245 0 00.06-.09.222.222 0 01.056-.086.478.478 0 00.084-.162.378.378 0 01.073-.142.715.715 0 00.103-.175.563.563 0 01.085-.15.426.426 0 00.065-.15.578.578 0 01.08-.177 1.253 1.253 0 00.003-.823.537.537 0 00-.323-.035m-9.198.088a.97.97 0 01.176.094c.113.078.128.078.233.007.264-.18.735-.167.86.022a2.355 2.355 0 01-.06 1.112 2.322 2.322 0 00-.069.386c-.029.305-.043.334-.173.351-.252.033-.338-.055-.271-.28a1.975 1.975 0 00.05-.344 1.138 1.138 0 01.05-.3 1.097 1.097 0 00.057-.267 1.082 1.082 0 01.036-.218c.068-.11-.223-.266-.387-.207a.697.697 0 01-.148.04c-.115-.001-.164.103-.164.349a.643.643 0 01-.048.327 1.87 1.87 0 00-.113.64l-.017.238h-.225c-.211 0-.226-.003-.223-.048a7.766 7.766 0 01.118-.785 3.042 3.042 0 00.09-.635c-.027-.074-.32-.188-.352-.137a.215.215 0 01-.1.037c-.196.037-.218.078-.245.452a1.05 1.05 0 01-.06.342 1.061 1.061 0 00-.063.32c-.036.423-.093.517-.293.478a.948.948 0 00-.119-.01c-.11-.004-.14-.033-.106-.098a1.504 1.504 0 00.05-.33 3.323 3.323 0 01.108-.756 2.17 2.17 0 00.103-.537c.024-.21.029-.217.203-.239a.242.242 0 01.218.046.26.26 0 00.31-.007.885.885 0 01.574-.043m2.936.001a.543.543 0 01.416.347 2.053 2.053 0 01-.065 1.029.47.47 0 00-.088.157c-.034.102-.18.285-.227.285a.268.268 0 00-.09.07 1.056 1.056 0 01-.881.034.54.54 0 00-.096-.077 1.503 1.503 0 01-.146-1.049.83.83 0 00.069-.21.493.493 0 01.123-.256.604.604 0 00.09-.122c0-.01.036-.03.08-.046a.444.444 0 00.126-.074.904.904 0 01.69-.088m2.49.03a1.025 1.025 0 01.085.967 1.032 1.032 0 00-.096.444c-.032.438-.17.586-.47.505-.064-.017-.087-.155-.037-.226a2.138 2.138 0 00.098-.697c.012-.183.028-.371.037-.419.026-.134-.086-.298-.186-.273l-.202.047c-.176.04-.167.032-.248.23a1.5 1.5 0 00-.089.522 1.923 1.923 0 01-.113.665c-.059.163-.122.2-.302.178-.17-.02-.2-.165-.09-.413a3.212 3.212 0 00.093-.75 1.367 1.367 0 01.05-.296 1.219 1.219 0 00.053-.226c.04-.267.046-.274.245-.273.16 0 .177.006.241.071.085.087.077.087.212-.002a.867.867 0 01.718-.054m1.915.063a.46.46 0 01.133.493.861.861 0 01-.238.343c-.024.008-.043.023-.043.033 0 .033-.121.068-.333.097-.274.037-.344.062-.414.146-.205.243.401.519.748.34.123-.064.167.227.045.303-.026.016-.046.042-.046.057 0 .119-.872.116-.917-.003a.169.169 0 00-.081-.06.157.157 0 01-.083-.074.326.326 0 00-.078-.105l-.064-.059v-.449c0-.415.004-.453.05-.516a.95.95 0 00.09-.173.372.372 0 01.088-.138.334.334 0 00.082-.102c.02-.038.05-.07.07-.07a.19.19 0 00.09-.056.865.865 0 01.586-.119l.226.013.09.099m.886-.06a.553.553 0 01.042.207 1.46 1.46 0 00.085.427 1.664 1.664 0 01.047.273c.03.271.064.402.109.419.064.025.234-.093.284-.197a.763.763 0 01.09-.145.694.694 0 00.077-.232.763.763 0 01.068-.223.63.63 0 00.043-.26c.013-.294.134-.377.343-.234a.443.443 0 01.055.48 1.612 1.612 0 00-.084.226 1.175 1.175 0 01-.096.238.584.584 0 00-.07.143.556.556 0 01-.093.165.474.474 0 00-.085.16c-.017.056-.038.101-.048.101a.41.41 0 00-.083.13.372.372 0 01-.084.131c-.011 0-.049.045-.083.1a1.267 1.267 0 01-.105.144.444.444 0 00-.07.112.198.198 0 01-.086.092.2.2 0 00-.085.085.146.146 0 01-.07.073.1.1 0 00-.057.06.271.271 0 01-.09.099.786.786 0 00-.111.094c-.164.189-.95.151-.982-.047-.032-.2.091-.304.31-.263a.598.598 0 00.635-.207l.108-.133v-.2a.613.613 0 00-.049-.3 1.148 1.148 0 01-.071-.394 1.316 1.316 0 00-.11-.564 1.06 1.06 0 01-.028-.557.803.803 0 01.344-.003m-1.463.236a.292.292 0 00-.083.07.163.163 0 01-.074.055c-.062 0-.206.239-.181.302.06.156.434.126.591-.048a.23.23 0 00-.253-.379m-4.213.046c-.184.05-.289.213-.324.506a.924.924 0 01-.047.23.39.39 0 00-.016.294.868.868 0 01.092.14c.11.201.544.156.544-.056a.651.651 0 01.063-.144 1.879 1.879 0 00.06-.824.329.329 0 00-.372-.146m4.426.125c.044.082.027.111-.1.175-.236.12-.311.112-.283-.026.03-.145.324-.259.383-.149m-4.202.043c.112.064.133.378.037.57a.668.668 0 00-.052.165.295.295 0 01-.327.288c-.135-.012-.171-.137-.134-.46a4.33 4.33 0 00.027-.312.132.132 0 01.03-.095.63.63 0 00.096-.108.229.229 0 01.323-.048"
              fill="#ec8035"/>
    </g>
</svg>
