<?xml version="1.0" encoding="utf-8"?>
<!-- Generator: Adobe Illustrator 24.2.0, SVG Export Plug-In . SVG Version: 6.00 Build 0)  -->
<svg version="1.1" id="Layer_1" xmlns="http://www.w3.org/2000/svg" xmlns:xlink="http://www.w3.org/1999/xlink" x="0px" y="0px"
	 viewBox="0 0 38 24" style="enable-background:new 0 0 38 24;" xml:space="preserve">
<style type="text/css">
	.st0{opacity:7.000000e-02;enable-background:new    ;}
	.st1{fill:#FFFFFF;}
	.st2{fill:#142688;}
	.st3{fill:#EB4343;}
	.st4{fill:#FBFBFB;}
	.st5{fill:#0D4B8B;}
	.st6{fill:#FAFAFB;}
	.st7{clip-path:url(#SVGID_4_);}
</style>
<path class="st0" d="M35,0H3C1.3,0,0,1.3,0,3v18c0,1.7,1.4,3,3,3h32c1.7,0,3-1.3,3-3V3C38,1.3,36.6,0,35,0z"/>
<path class="st1" d="M35,1c1.1,0,2,0.9,2,2v18c0,1.1-0.9,2-2,2H3c-1.1,0-2-0.9-2-2V3c0-1.1,0.9-2,2-2H35"/>
<path class="st2" d="M28.3,10.1H28c-0.4,1-0.7,1.5-1,3h1.9C28.6,11.6,28.6,10.9,28.3,10.1z M31.2,16h-1.7c-0.1,0-0.1,0-0.2-0.1
	L29.1,15L29,14.8h-2.4c-0.1,0-0.2,0-0.2,0.2l-0.3,0.9C26.1,16,26,16,26,16h-2.1l0.2-0.5L27,8.7C27,8.2,27.3,8,27.8,8h1.5
	c0.1,0,0.2,0,0.2,0.2l1.4,6.5c0.1,0.4,0.2,0.7,0.2,1.1C31.2,15.9,31.2,15.9,31.2,16z M17.8,15.7l0.4-1.8c0.1,0,0.2,0.1,0.2,0.1
	c0.7,0.3,1.4,0.5,2.1,0.4c0.2,0,0.5-0.1,0.7-0.2c0.5-0.2,0.5-0.7,0.1-1.1c-0.2-0.2-0.5-0.3-0.8-0.5c-0.4-0.2-0.8-0.4-1.1-0.7
	c-1.2-1-0.8-2.4-0.1-3.1C19.9,8.4,20.2,8,21,8c1.2,0,2.5,0,3.1,0.2h0.1c-0.1,0.6-0.2,1.1-0.4,1.7c-0.5-0.2-1-0.4-1.5-0.4
	c-0.3,0-0.6,0-0.9,0.1c-0.2,0-0.3,0.1-0.4,0.2c-0.2,0.2-0.2,0.5,0,0.7l0.5,0.4c0.4,0.2,0.8,0.4,1.1,0.6c0.5,0.3,1,0.8,1.1,1.4
	c0.2,0.9-0.1,1.7-0.9,2.3c-0.5,0.4-0.7,0.6-1.4,0.6c-1.4,0-2.5,0.1-3.4-0.2C17.9,15.8,17.9,15.8,17.8,15.7z M14.3,16
	c0.1-0.7,0.1-0.7,0.2-1c0.5-2.2,1-4.5,1.4-6.7C16,8.1,16,8,16.2,8H18c-0.2,1.2-0.4,2.1-0.7,3.2c-0.3,1.5-0.6,3-1,4.5
	c0,0.2-0.1,0.2-0.3,0.2 M5,8.2C5,8.1,5.2,8,5.3,8h3.4c0.5,0,0.9,0.3,1,0.8l0.9,4.4c0,0.1,0,0.1,0.1,0.2c0-0.1,0.1-0.1,0.1-0.1
	l2.1-5.1C12.8,8.1,12.9,8,13,8h2.1c0,0.1,0,0.1-0.1,0.2l-3.1,7.3c-0.1,0.2-0.1,0.3-0.2,0.4c-0.1,0.1-0.3,0-0.5,0H9.7
	c-0.1,0-0.2,0-0.2-0.2L7.9,9.5C7.7,9.3,7.4,9,7,8.9C6.4,8.6,5.3,8.4,5.1,8.4L5,8.2z"/>
</svg>
