<svg xmlns="http://www.w3.org/2000/svg" viewBox="0 0 38 24" width="38" height="24" role="img"
     aria-labelledby="ti-dpo-vodaphonempesa">
    <title id="pi-dpo-vodaphonempesa">Vodaphone M-Pesa</title>
    <g id="pi-dpo-vodaphonempesa-svgg" fill-rule="evenodd">
        <path d="M2.159.12c0 .035-.174.052-.363.037a.109.109 0 00-.128.11c0 .053-.01.057-.13.057-.142 0-.19.028-.19.112 0 .05-.012.056-.11.058-.163.005-.192.015-.2.071L1.033.61C1.031.623.994.643.95.654.888.669.868.688.862.737.856.785.84.802.79.807.74.813.72.833.705.892.693.935.673.972.66.973L.614.98c-.058.008-.068.035-.073.193-.003.102-.006.107-.083.114l-.08.007-.007.15c-.007.146-.01.152-.078.165-.07.014-.11.116-.095.248.017.155-.007.383-.04.383S.12 3.336.12 11.971s.004 9.732.037 9.732a1.488 1.488 0 01.039.574c-.013.134.021.217.096.232.068.013.071.02.078.16.008.147.008.147.087.155l.08.007v.308h.088c.055 0 .081.01.071.026a.097.097 0 00.086.142c.063 0 .072.01.08.078s.016.078.087.085.08.016.08.078c0 .061.008.07.07.07.057 0 .073.014.092.078.023.076.027.078.174.085.15.007.152.007.16.084.007.076.007.076.16.083.115.006.154.016.154.042 0 .03 2.177.035 17.19.035 15.262 0 17.188-.004 17.188-.036 0-.029.039-.036.198-.036.227 0 .293-.024.293-.108 0-.055.01-.06.117-.06.119 0 .188-.025.193-.07l.007-.06c.001-.02.035-.037.083-.041.066-.007.08-.019.087-.074.006-.05.021-.066.063-.066a.105.105 0 00.113-.112c0-.045.014-.055.074-.055.068 0 .074-.007.074-.084 0-.066.01-.084.047-.084.107 0 .125-.023.125-.168v-.14l.08-.007c.08-.008.08-.008.087-.157.005-.112.016-.15.043-.15.03 0 .035-1.33.035-10.45 0-9.273-.004-10.45-.037-10.45-.028 0-.036-.03-.036-.122 0-.15-.033-.214-.112-.214-.054 0-.06-.01-.062-.101-.002-.119-.028-.196-.068-.2l-.064-.007c-.02-.001-.038-.034-.043-.08-.006-.064-.02-.08-.072-.086-.05-.005-.068-.024-.079-.075-.01-.052-.032-.073-.089-.085-.048-.01-.074-.03-.074-.057 0-.07-.054-.099-.188-.099-.127 0-.129 0-.136-.077-.007-.068-.018-.08-.086-.086-.064-.006-.081-.02-.094-.076-.01-.042-.031-.069-.057-.07-.022 0-.085-.006-.14-.012s-.139-.012-.19-.012c-.064-.001-.092-.012-.092-.038 0-.031-1.908-.036-17.03-.036S2.159.088 2.159.12m18.465 6.926c.052.124.053 9.79.001 9.84a.295.295 0 01-.138.046c-.195.022-.18.467-.172-4.973l.007-4.824.093-.102c.108-.12.155-.116.21.013m9.24-.01a.366.366 0 01.083.123.054.054 0 00.035.044.567.567 0 01.123.146l.087.132.003.514c.002.51.002.514-.055.574l-.057.06.058.085a.22.22 0 00.13.098 2.64 2.64 0 01.55.22c.084.044.204.103.325.16.314.145.327.335.037.527a.806.806 0 00-.19.179.878.878 0 01-.243.206 2.194 2.194 0 00-.253.18.387.387 0 01-.134.082.478.478 0 00-.138.072.489.489 0 01-.144.074l-.07.018.076.039c.09.046.157.134.132.174-.01.015-.02.509-.022 1.097l-.006 1.068-.065.13c-.213.424-.216.425-1.668.431-1.495.006-1.477.01-1.664-.378l-.087-.18.006-1.089c.006-1.207.01-1.18-.149-1.18a3.68 3.68 0 01-.438-.061.295.295 0 01-.112-.068.487.487 0 00-.15-.087c-.122-.04-.075-.075.112-.084s.428-.083.428-.132a.417.417 0 01.13-.079c.185-.087.18-.051.182-1.45 0-.693.01-1.22.023-1.243.012-.022.044-.09.07-.152a.624.624 0 01.39-.333c.056-.008.66-.014 1.343-.012l1.24.002.083.093m-18.628-.008c.08.014.22.034.313.045a1.099 1.099 0 01.35.107 2.221 2.221 0 00.571.197.435.435 0 01.313.213.386.386 0 00.183.147.573.573 0 01.134.067 1.21 1.21 0 00.105.081.61.61 0 01.14.162.411.411 0 00.156.155c.052.026.093.059.093.073a.32.32 0 00.071.107.422.422 0 01.087.166.32.32 0 00.085.15 1.402 1.402 0 01.286.498.66.66 0 00.047.142 5.936 5.936 0 01.055 1.939 2.257 2.257 0 01-.255.624.327.327 0 00-.072.128 1.334 1.334 0 01-.146.264 1.838 1.838 0 00-.16.281.213.213 0 01-.117.127.5.5 0 00-.14.108 1.514 1.514 0 01-.3.251 1.773 1.773 0 00-.374.29.372.372 0 01-.198.127 1.668 1.668 0 00-.264.09 1.977 1.977 0 01-.328.103 1.567 1.567 0 00-.216.055 2.92 2.92 0 01-1.424-.01 2.118 2.118 0 00-.288-.055.812.812 0 01-.239-.065 1.06 1.06 0 00-.229-.078.479.479 0 01-.28-.168.469.469 0 00-.246-.157 2 2 0 01-.668-.64.255.255 0 00-.11-.139.624.624 0 01-.25-.299.552.552 0 00-.06-.169.612.612 0 01-.06-.154.664.664 0 00-.056-.155 1.131 1.131 0 01-.072-.203.374.374 0 00-.088-.156 3.353 3.353 0 010-1.676.754.754 0 00.055-.144 2.338 2.338 0 01.098-.256.83.83 0 00.063-.167 1.732 1.732 0 01.389-.623.49.49 0 00.09-.116c0-.011.037-.05.083-.084s.084-.079.084-.096a1.703 1.703 0 01.446-.441.665.665 0 00.213-.144.81.81 0 01.196-.144.71.71 0 00.158-.055 2.086 2.086 0 01.316-.099 2.556 2.556 0 00.327-.098 2.3 2.3 0 01.583-.115 2.405 2.405 0 01.55.01m.55.428a1.353 1.353 0 00-.164.058.495.495 0 01-.135.039.315.315 0 00-.11.036.317.317 0 01-.108.036.464.464 0 00-.247.118.27.27 0 01-.136.065c-.077.012-.085.019-.057.047.1.1.048.207-.23.483a6.45 6.45 0 00-.26.271.681.681 0 01-.148.13.179.179 0 00-.08.083.53.53 0 01-.145.147.875.875 0 00-.179.177.21.21 0 01-.087.087c-.024.005-.05.055-.07.133a1.21 1.21 0 01-.126.275 1.383 1.383 0 00-.11.203c-.01.037-.038.054-.092.06l-.077.007-.023.216a3.284 3.284 0 00.003.775.37.37 0 01.08.226c0 .086.033.142.186.314a.951.951 0 01.135.191.79.79 0 00.335.303.443.443 0 01.166.14c.053.08.076.093.211.119.084.015.2.04.26.054a1.402 1.402 0 00.596.012 1.337 1.337 0 01.321-.048c.259-.013.327-.041.373-.154.021-.05.078-.096.202-.161a.704.704 0 00.356-.311.826.826 0 01.105-.156 1.631 1.631 0 00.186-.85 2.29 2.29 0 00-.11-.778.488.488 0 00-.093-.18 2.118 2.118 0 01-.241-.35.212.212 0 00-.106-.065.784.784 0 01-.165-.085 1.275 1.275 0 00-.359-.159c-.353-.105-.348-.098-.324-.417a1.045 1.045 0 01.277-.669.797.797 0 00.103-.081c.022-.022.107-.092.19-.156.222-.17.176-.254-.102-.185m16.226.215c-.794.018-.706-.092-.702.886.004.776.009.845.058.835a1.927 1.927 0 01.447.46c.08.158.186.134.33-.073a.632.632 0 01.298-.253c.073-.024.134-.106.23-.31a.841.841 0 01.154-.162.792.792 0 00.186-.226 1.575 1.575 0 01.098-.177.247.247 0 00.044-.111.23.23 0 01.05-.11c.084-.107.405-.08.405.034 0 .013.04.022.09.02s.073-.007.054-.014c-.082-.03-.096-.086-.096-.382 0-.275-.004-.297-.058-.36l-.058-.067-.463-.002c-.254 0-.734.005-1.067.012m1.382 2.995a1.155 1.155 0 00-.275.072 6.6 6.6 0 01-1.61.04c-.206-.056-.21-.043-.207.55.002.39.01.496.036.513.038.024 2.26.018 2.283-.006a4.402 4.402 0 00.024-.503 3.18 3.18 0 01.038-.568c.046-.125.018-.134-.289-.098m-1.093 1.777c-.114.175-.043.352.14.353a.214.214 0 00.138-.35.321.321 0 00-.278-.003m-15.774 1.974l.109.078v.155c0 .258-.068.325-.33.325a.673.673 0 00-.161.015c-.067.026.01.056.144.056.167.001.203.035.238.225l.016.092.047-.05a.167.167 0 01.069-.051.526.526 0 00.125-.079c.435-.332 1.392-.116 1.49.336.032.145.11.039.11-.149 0-.157.134-.261.383-.296a1.807 1.807 0 011.126.06.786.786 0 00.134.08c.086 0 .224.196.312.442l.042.12.02-.096a.605.605 0 01.284-.468.213.213 0 00.094-.072c.086-.162.813-.15 1.011.016a.245.245 0 00.103.058c.071 0 .199.171.226.304a.952.952 0 00.06.194.675.675 0 01.035.248c0 .271-.016.279-.621.288-.498.008-.555.024-.404.113a1.017 1.017 0 01.108.072.425.425 0 00.32-.015.674.674 0 01.45-.024c.195.235.102.472-.198.503a.365.365 0 00-.156.038c-.048.078-.354.099-.516.035a1.817 1.817 0 00-.252-.068c-.203-.04-.263-.07-.335-.171a1.617 1.617 0 00-.097-.124.591.591 0 01-.114-.364l-.015-.18-.019.133c-.01.072-.026.243-.036.379-.021.286-.033.303-.238.328-.376.047-.403.014-.403-.502-.001-.469-.026-.586-.142-.667a.363.363 0 01-.081-.07.762.762 0 00-.328 0c-.068.048-.083.163-.083.638 0 .623.013.6-.341.6-.324 0-.33-.005-.33-.264 0-.263-.092-.36-.128-.133a.534.534 0 01-.434.397.926.926 0 00-.221.061.496.496 0 01-.433-.003.416.416 0 00-.178-.07c-.186-.03-.401-.163-.401-.247a1.384 1.384 0 00-.084-.19.721.721 0 01-.084-.46c0-.351-.002-.355-.187-.358-.193-.002-.183-.038-.191.628a3.98 3.98 0 01-.031.615.919.919 0 01-.524-.007c-.057-.046-.06-.046-.215-.001a.922.922 0 01-.388.03c-.215-.015-.238-.012-.321.039a.709.709 0 01-.54.004 1.27 1.27 0 00-.176-.064.472.472 0 01-.266-.293 2.797 2.797 0 00-.085-.217 1.027 1.027 0 01-.016-.599 1.503 1.503 0 00.08-.214c.037-.127.182-.342.231-.342a.837.837 0 00.147-.057 1.054 1.054 0 01.603-.119 1.474 1.474 0 01.688.104c.13.097.188.061.2-.124a.592.592 0 01.4-.606c.068-.025.146-.056.173-.07a.72.72 0 01.524.075m-3.26.026l.066.062-.01 1.161-.01 1.162-.052.043a.189.189 0 01-.087.043.246.246 0 00-.097.04 1.535 1.535 0 01-.77.01.988.988 0 00-.24-.072.339.339 0 01-.289-.152 1.215 1.215 0 01-.3-.402c-.021-.094-.046-.07-.093.09-.037.128-.149.294-.197.294a.2.2 0 00-.084.057.402.402 0 01-.248.122.472.472 0 00-.16.063.63.63 0 01-.518-.014.56.56 0 00-.16-.062c-.324-.012-.628-.668-.492-1.063.059-.17.072-.42.023-.42-.027 0-.094.059-.094.082a1.278 1.278 0 01-.06.143 1.596 1.596 0 00-.092.317 1 1 0 01-.084.273.345.345 0 00-.052.132.716.716 0 01-.07.191.79.79 0 00-.073.184c-.003.198-.743.273-.743.075a.266.266 0 00-.068-.085.441.441 0 01-.098-.172.234.234 0 00-.061-.119.32.32 0 01-.072-.139 1.04 1.04 0 00-.059-.151 1.274 1.274 0 01-.06-.192 1.984 1.984 0 00-.278-.576.24.24 0 01.002-.285 1.16 1.16 0 01.625 0 .352.352 0 01.165.236.308.308 0 00.047.12.812.812 0 01.072.236 1.204 1.204 0 00.053.22l.027.06.07-.05c.082-.059.107-.116.15-.345a1.262 1.262 0 01.199-.472c.03-.035.078-.042.284-.042.285 0 .327.022.355.19.018.11.04.121.093.046a1.23 1.23 0 01.809-.26 1.062 1.062 0 01.858.583c.062.165.058.164.108.013a1.18 1.18 0 01.524-.516 1.22 1.22 0 01.463-.068.524.524 0 00.16 0l.081-.016.008-.272c.01-.308.025-.34.18-.371a.405.405 0 01.349.068m18.668.532a.842.842 0 00.192.047.692.692 0 01.672.558c.006.267.152.182.224-.13a.553.553 0 01.468-.413 1.212 1.212 0 00.206-.053c.103-.039.118-.037.485.047a.498.498 0 01.354.272.287.287 0 00.095.115.162.162 0 01.083.162.56.56 0 00.02.148c.023.06.05-.06.05-.226a.697.697 0 01.813-.546 2.043 2.043 0 00.276.056c.26.04.3.074.299.258 0 .132-.007.147-.087.215-.048.04-.059.041-.163.006a1.216 1.216 0 00-.477-.023c-.108.041.015.225.151.225a.618.618 0 01.206.056 2.27 2.27 0 00.215.087.489.489 0 01.136.066c.037.032.043.03.056-.033.008-.038.025-.1.037-.138a.64.64 0 00.023-.156c0-.085.2-.287.377-.382.029-.016.053-.043.053-.06 0-.041.084-.08.216-.098a1.464 1.464 0 00.242-.064l.134-.048.189.048a2.513 2.513 0 00.35.06c.341.028.336.013.336.933 0 .988.046.907-.522.925-.355.012-.388.017-.441.066-.057.054-.058.054-.134.01a.667.667 0 00-.205-.063c-.174-.024-.476-.222-.476-.311 0-.136-.134-.062-.245.135-.056.101-.166.149-.398.173a.488.488 0 00-.156.034.296.296 0 01-.247.017.484.484 0 00-.164-.047c-.327-.042-.403-.104-.4-.322.003-.214.256-.302.533-.185a.221.221 0 00.26-.062c.039-.062.036-.064-.151-.103a.855.855 0 01-.453-.233c-.081-.11-.151-.086-.182.063-.031.153-.112.177-.608.18-.508.002-.6.019-.47.087a1.743 1.743 0 00.67.035c.276-.018.376.127.248.362-.07.13-.105.146-.38.19a1.475 1.475 0 01-.574 0 8.976 8.976 0 00-.245-.04.643.643 0 01-.39-.362 1.787 1.787 0 00-.131-.265l-.08-.127-.015.103a.713.713 0 01-.232.527c-.076.08-.108.096-.273.128a.876.876 0 00-.218.061.306.306 0 01-.275.032.437.437 0 00-.167-.034h-.1l.013.247c.02.393-.03.463-.329.456-.305-.007-.3.006-.306-.811l-.006-.575-.468-.012c-.594-.015-.597-.016-.597-.274 0-.357.02-.37.62-.389l.457-.015v-.208c0-.275.022-.301.278-.333.104-.013.254-.039.333-.057a.533.533 0 01.395.008m-3.98.016a2.071 2.071 0 00.688.042 3.91 3.91 0 01.7.032.745.745 0 01.399.346c.011.061.023 1.103.015 1.387-.002.083-.069.116-.239.116-.39 0-.393-.004-.397-.62-.004-.605-.028-.695-.203-.748-.201-.06-.239.06-.239.763v.532l-.07.036a.863.863 0 01-.494.003c-.043-.032-.047-.07-.051-.548l-.005-.514-.075-.11c-.119-.177-.25-.226-.329-.125-.042.055-.045.094-.034.621l.011.563-.076.076-.076.076-.227-.01c-.335-.014-.31.056-.31-.864 0-1.038-.056-.94.623-1.07a.665.665 0 01.39.016m3.62.509a2.073 2.073 0 00-.024.413v.368l.07.041a.635.635 0 00.394.018c.131-.05.184-.417.088-.614-.105-.218-.452-.366-.527-.226m2.12.053c-.08.122-.062.139.148.14.173 0 .2-.029.135-.14a.23.23 0 00-.2-.1.348.348 0 00-.082.1m3.517-.013a.445.445 0 00-.143.142 9.589 9.589 0 01-.08.14.525.525 0 00.085.5.29.29 0 00.328-.017l.072-.057.008-.295c.011-.426-.059-.533-.27-.413m-26.878.087c-.235.192-.207.7.042.747.328.062.461-.211.305-.626a.245.245 0 00-.347-.121m2.122-.012a.39.39 0 00.065.757c.199.005.21-.013.21-.324 0-.364-.075-.483-.275-.433m1.937.013a.713.713 0 00-.168.111l-.093.083v.197c0 .356.314.526.518.28a1.848 1.848 0 00.009-.651.339.339 0 00-.266-.02m2.86.022a.788.788 0 00-.103.643.562.562 0 00.284.118c.187-.001.354-.519.203-.63a.319.319 0 01-.072-.1.211.211 0 00-.312-.03m3.894-.03c-.03.047.016.072.131.072.128 0 .172-.031.098-.07-.06-.033-.21-.033-.23-.002"
              fill="#eb4343"/>
        <path d="M27.242 7.075a.558.558 0 00-.378.36c-.047.15-.042 5.468.005 5.581.136.326.16.33 1.57.33 1.73 0 1.628.097 1.628-1.533 0-1.104-.004-1.147-.106-1.147-.177 0-.24.236-.225.854.007.29.003.321-.043.383l-.05.068-1.135.006c-1.178.007-1.217.004-1.306-.094a9.714 9.714 0 01-.038-2.085c.005-2.172.006-2.178.122-2.224a19.483 19.483 0 012.386.024.673.673 0 01.065.354c-.025.265.009.382.127.449l.106.059.048-.061a1.565 1.565 0 00-.086-1.09.407.407 0 01-.08-.1c-.103-.167-.119-.17-1.354-.174a5.452 5.452 0 00-1.256.04m-16.885.097a.598.598 0 00-.144.056.873.873 0 01-.22.062 2.027 2.027 0 00-.312.084 1.655 1.655 0 01-.235.07c-.07.013-.122.05-.223.157a.464.464 0 01-.24.167.443.443 0 00-.226.152l-.177.185a.251.251 0 00-.06.08.31.31 0 01-.07.086 1.722 1.722 0 00-.177.233 1.433 1.433 0 01-.16.211 1.628 1.628 0 00-.251.49.704.704 0 01-.057.156 3.635 3.635 0 00-.198.755 2.733 2.733 0 00.04.84.38.38 0 01.035.147.188.188 0 00.07.148.73.73 0 01.158.396.585.585 0 00.074.192.56.56 0 01.072.168c.024.127.045.155.157.205a.481.481 0 01.14.09.155.155 0 00.096.048c.054.004.06.015.067.124.01.17.04.193.186.136a.272.272 0 00.149-.109c.048-.098.345-.096.392.003.03.063.038.066.248.072l.217.007.034-.079a.148.148 0 01.286.043c0 .15.302.185.436.052.106-.107.259-.109.259-.003 0 .076.22.11.33.05l.053-.03-.081-.08c-.08-.077-.287-.111-.737-.121-.04-.001-.122-.066-.325-.258a.487.487 0 00-.135-.102 1.264 1.264 0 01-.304-.311 2.703 2.703 0 00-.138-.168 2.127 2.127 0 01-.231-.443 2.32 2.32 0 01-.037-.305c-.016-.204-.03-.27-.07-.32-.076-.098-.057-.44.025-.44.02 0 .023-.015.069-.352a2.383 2.383 0 01.059-.3l.063-.21a.672.672 0 01.241-.362c.102-.098.14-.152.14-.198a.087.087 0 01.036-.078.062.062 0 00.036-.054c0-.05.08-.14.152-.171a.832.832 0 00.087-.045.408.408 0 01.079-.035.134.134 0 00.065-.076.504.504 0 01.275-.276 1.256 1.256 0 00.396-.222 2.201 2.201 0 01.893-.303c.125 0 .162-.032.083-.073a.608.608 0 01-.103-.07 4.146 4.146 0 00-1.287-.07m10.137.025c-.047.122-.049 9.568-.003 9.61.097.088.096.16.09-4.82-.007-4.855-.01-4.995-.087-4.79m-8.178.367a.423.423 0 01-.132.073 2.21 2.21 0 00-.522.337 1.226 1.226 0 00-.26.688c.024.12.043.134.24.172a.584.584 0 01.257.095.562.562 0 00.278.108.434.434 0 01.135.096.572.572 0 00.122.096c.033 0 .083.082.083.139 0 .04.024.064.087.09a.18.18 0 01.099.083c.007.026.02.047.028.047.074 0 .105.161.122.632.016.445.022.491.08.619.107.24.187.131.197-.274a1.329 1.329 0 01.03-.298.148.148 0 00-.013-.126.689.689 0 01.036-.55c.09-.18.094-.22.03-.278a2.13 2.13 0 01-.013-.888c.057-.076.045-.146-.03-.172-.059-.02-.068-.038-.073-.128a.215.215 0 00-.176-.213.412.412 0 01-.15-.108c-.107-.105-.112-.107-.168-.07-.058.038-.06.037-.096-.053-.075-.188-.091-.198-.191-.117m.728.73c.059.037.01.055-.1.035-.092-.016-.097-.02-.043-.036.084-.024.103-.024.143.001M8.417 12.12c-.005.037-.01.013-.01-.053s.004-.096.01-.066a.429.429 0 010 .12m3.784-.016c-.023.013-.042.033-.042.045 0 .04.095.051.146.016l.05-.035-.049-.026c-.057-.031-.052-.031-.105 0m16.424.237a.324.324 0 01.101.395c-.07.183-.539.172-.58-.014a.323.323 0 01.479-.38m.729.089a.168.168 0 01-.08.294c-.176.047-.283-.157-.161-.305a.22.22 0 01.24.01m-1.598.036c.084.12.025.278-.092.249-.142-.036-.162-.143-.047-.248.074-.067.092-.067.139 0m-15.84 2.01a.617.617 0 00-.334.3c-.056.113-.057.125-.064 1.044-.008 1.084-.022 1.021.222 1.021.25 0 .24.027.246-.661.007-.694-.002-.667.23-.658.324.012.342-.32.02-.379-.329-.06-.317-.265.017-.265.157 0 .174-.01.229-.117.127-.247-.162-.393-.565-.286m-2.993.013c-.085.013-.116.105-.116.352 0 .267-.082.335-.324.274-.174-.043-.8.265-.801.395a.806.806 0 01-.067.159.86.86 0 00.388 1.104 2.366 2.366 0 001.177.016l.058-.046v-1.05c0-1.194-.01-1.247-.225-1.218l-.09.014m14.584.604c-.466.046-.471.057-.469.976.002.79-.01.747.203.766.246.023.242.033.242-.625 0-.618.015-.715.12-.769a.336.336 0 01.427.12c.1.114.101.12.107.688.005.58.002.572.232.588.245.018.24.036.24-.675 0-.742.023-.798.302-.746.254.048.32.224.32.857 0 .578.003.584.255.56a.853.853 0 00.177-.028 4.842 4.842 0 00-.05-1.4c-.011 0-.027-.022-.036-.049-.06-.188-.66-.315-1.104-.234a.73.73 0 01-.302.001 2.501 2.501 0 00-.664-.03m3.847.003c-.387.034-.364-.072-.355 1.66.004.79-.007.756.244.756.22 0 .238-.028.232-.371-.005-.284.023-.342.149-.31a1.322 1.322 0 00.83-.126c.386-.216.399-1.36.016-1.454a.67.67 0 01-.162-.078 1.776 1.776 0 00-.954-.077m2.29 0a.577.577 0 00-.546.45.939.939 0 01-.075.237.517.517 0 00.022.44 1.026 1.026 0 01.064.2c0 .096.17.3.251.3a.044.044 0 01.04.023 2.057 2.057 0 00.986.057.192.192 0 00.11-.257c-.044-.11-.062-.123-.124-.093a.704.704 0 01-.784-.102c-.152-.137-.03-.186.511-.204a4.468 4.468 0 00.487-.03.24.24 0 00.047-.273 3.24 3.24 0 01-.066-.253.427.427 0 00-.061-.165.088.088 0 01-.032-.054.83.83 0 00-.276-.235 1.39 1.39 0 00-.554-.041m1.715 0a.475.475 0 00-.203.913 1.985 1.985 0 00.386.15c.184.038.216.204.062.325a.545.545 0 01-.44.003c-.193-.081-.352.034-.268.194.105.202.843.223 1.093.032.235-.18.206-.712-.043-.801l-.244-.09a.861.861 0 00-.208-.057c-.144 0-.257-.237-.16-.335a.573.573 0 01.408-.05c.274.063.38.021.343-.136-.033-.14-.27-.189-.726-.148m1.784-.01a.613.613 0 00-.384.129.314.314 0 01-.084.07c-.172 0-.498.788-.362.872a.849.849 0 01.087.175.725.725 0 00.863.5 2.706 2.706 0 01.383-.025c.348-.001.37-.01.374-.152a8.898 8.898 0 00-.042-1.468 1.772 1.772 0 00-.835-.101m-26.742.024a1.681 1.681 0 00-.63.297 1.165 1.165 0 00.096 1.299c.233.175.997.203 1.12.041a1.022 1.022 0 01.102-.082.536.536 0 00.13-.143l.09-.17a.82.82 0 00-.376-1.09.888.888 0 01-.159-.069.631.631 0 00-.373-.083m3.927.033c-.08.023-.201.064-.27.092a.722.722 0 01-.174.05c-.028 0-.08.046-.13.115a1.29 1.29 0 00.002 1.288c.126.155.13.156 1.067.146.452-.005.412.072.413-.792v-.705l-.057-.061a.189.189 0 00-.098-.062 1.952 1.952 0 01-.23-.045.847.847 0 00-.524-.026m4.753-.014c-.086.016-.199.041-.252.056s-.122.033-.155.04c-.169.036-.165.02-.17.813l-.005.716.054.044a.349.349 0 00.327.005c.093-.044.085.015.081-.623-.004-.607.02-.655.328-.655.409 0 .532.196.533.84.001.486.052.563.29.44l.07-.036-.002-.58c-.002-.817-.03-.866-.576-1.032a.833.833 0 00-.523-.028m1.922.035a.937.937 0 00-.202.092.103.103 0 01-.06.03c-.123 0-.27.418-.271.767v.252l.103.174c.19.319.298.366.829.365.561-.001.739-.084.632-.295-.04-.08-.078-.082-.32-.018a.59.59 0 01-.636-.102c-.232-.205-.139-.264.406-.26.636.006.668-.022.573-.5a.478.478 0 00-.278-.395 7.825 7.825 0 01-.16-.088.752.752 0 00-.616-.022m-3.826-.007c-.052.02-.148.051-.212.07a.834.834 0 00-.39 1.12.807.807 0 01.074.167c.083.357 1.076.484 1.379.177a1.145 1.145 0 00.204-.995.646.646 0 01-.037-.15.188.188 0 00-.054-.103.665.665 0 01-.08-.1.365.365 0 00-.156-.09 5.78 5.78 0 01-.241-.09.764.764 0 00-.487-.006m-9.442.028a.212.212 0 00.032.243.871.871 0 01.1.214 1.6 1.6 0 00.085.216.733.733 0 01.059.192.62.62 0 00.073.2 1.547 1.547 0 01.105.212.955.955 0 00.097.186l.091.121c.132.176.514.074.578-.154a1.245 1.245 0 01.088-.228 1.237 1.237 0 00.086-.203c.072-.232.157-.528.173-.61a.466.466 0 01.086-.168c.153-.186.069-.298-.183-.242-.193.043-.234.112-.36.606-.074.29-.097.342-.17.375-.125.057-.142.04-.21-.213a.929.929 0 00-.063-.18.676.676 0 01-.044-.173c-.024-.147-.088-.317-.12-.317a.216.216 0 01-.07-.05c-.084-.077-.395-.096-.433-.027m24.163.22c.41.094.526.84.16 1.024a.516.516 0 01-.48-.006l-.096-.06v-.447c0-.564.03-.601.416-.512m2.127.037a.574.574 0 01.104.12l.062.091-.059.06c-.108.108-.508.103-.567-.007-.108-.203.25-.408.46-.264m3.505.026a1.09 1.09 0 01-.081.923.4.4 0 00-.097.074c-.023.053-.212.015-.321-.065-.305-.224-.284-.558.057-.904.118-.12.372-.136.443-.028m-26.97.014a.578.578 0 01.175.904c-.356.422-.845-.156-.58-.686.083-.166.149-.22.291-.242a.487.487 0 01.113.024m2.078.024c.164.098.17.113.17.506 0 .368-.022.472-.109.505-.236.09-.657-.23-.657-.502 0-.328.37-.644.596-.509m2.044.013a1.013 1.013 0 01.075.788c-.12.254-.551.293-.646.058-.16-.4-.075-.703.241-.852a.293.293 0 01.33.006m2.893.001a.644.644 0 01.042.931.333.333 0 01-.534-.13 2.28 2.28 0 00-.062-.13c-.182-.331.319-.937.554-.67m3.86-.03a.2.2 0 01.145.246l-.021.088-.18.014c-.361.027-.49-.13-.26-.32a.28.28 0 01.316-.029m8.61.259a.22.22 0 00-.008.386 2.515 2.515 0 00.717-.017.214.214 0 00.051-.353 1.822 1.822 0 00-.76-.016"
              fill="#e3d9d8"/>
        <path d="M20.414 7.033l-.093.102-.007 4.824c-.007 5.44-.023 4.995.172 4.973a.295.295 0 00.138-.045c.052-.052.051-9.717 0-9.84-.055-.13-.102-.133-.21-.014m6.785-.08a.624.624 0 00-.39.333c-.026.062-.058.13-.07.152-.013.024-.023.551-.023 1.245 0 .692-.01 1.24-.024 1.285-.02.068-.018.076.01.052a.098.098 0 01.084-.013c.049.016.049.015.049-1.23 0-1.399-.003-1.375.167-1.556.178-.19.247-.199 1.532-.19 1.194.01 1.216.012 1.319.178a.407.407 0 00.08.1 1.565 1.565 0 01.085 1.09l-.048.061-.106-.06c-.118-.066-.152-.184-.127-.448a.673.673 0 00-.065-.354 19.55 19.55 0 00-2.386-.025c-.12.048-.13.14-.12 1.095l.007.863.076-.073.076-.073-.012-.778c-.012-.812-.008-.854.09-.906.023-.012.511-.026 1.091-.03l1.05-.01.058.068c.054.063.058.085.058.36 0 .296.014.353.095.382.02.007-.001.015-.047.017l-.084.004.07.02a.401.401 0 01.13.08.839.839 0 00.21.117l.149.059-.05-.068-.051-.068.058-.062c.057-.06.057-.063.055-.575l-.003-.514-.087-.132a.567.567 0 00-.123-.146.054.054 0 01-.035-.044.366.366 0 00-.082-.123l-.083-.093-1.24-.002a34.698 34.698 0 00-1.343.012m-16.512.066a2.3 2.3 0 00-.583.115 2.556 2.556 0 01-.327.098 2.086 2.086 0 00-.316.099.71.71 0 01-.158.055.81.81 0 00-.196.144.665.665 0 01-.213.144 1.703 1.703 0 00-.446.44c0 .018-.038.062-.084.097s-.083.073-.083.084a.49.49 0 01-.09.116 1.732 1.732 0 00-.39.623.83.83 0 01-.062.167 2.338 2.338 0 00-.098.256.754.754 0 01-.054.144 3.353 3.353 0 000 1.676.374.374 0 01.087.156 1.131 1.131 0 00.072.203.664.664 0 01.056.155.612.612 0 00.06.154.552.552 0 01.06.17.624.624 0 00.25.298.255.255 0 01.11.14 2 2 0 00.669.639.469.469 0 01.245.157.479.479 0 00.28.168 1.06 1.06 0 01.229.078.812.812 0 00.24.065 2.118 2.118 0 01.287.056 2.583 2.583 0 00.933.09c.081-.02.056-.024-.156-.023a1.16 1.16 0 01-.371-.04 2.683 2.683 0 00-.622-.128.447.447 0 01-.26-.07.258.258 0 00-.099-.054.908.908 0 01-.383-.216.589.589 0 00-.336-.167 1.946 1.946 0 01-.404-.399.11.11 0 00-.07-.065c-.053-.013-.109-.107-.147-.246a.098.098 0 00-.061-.063.066.066 0 01-.047-.073.071.071 0 00-.048-.076c-.056-.017-.083-.063-.105-.179a.58.58 0 00-.075-.173.434.434 0 01-.06-.111c0-.012-.016-.028-.035-.036-.027-.01-.036-.053-.036-.17 0-.145-.006-.163-.084-.249a.254.254 0 01-.084-.169.37.37 0 00-.034-.143 2.733 2.733 0 01-.04-.84 3.635 3.635 0 01.197-.755.704.704 0 00.057-.155 1.628 1.628 0 01.252-.491 1.433 1.433 0 00.159-.211 1.722 1.722 0 01.176-.233.31.31 0 00.071-.087.251.251 0 01.06-.079l.177-.185a.443.443 0 01.227-.152.464.464 0 00.24-.167c.1-.107.152-.144.222-.156a1.655 1.655 0 00.235-.071 2.092 2.092 0 01.311-.085 1.137 1.137 0 00.264-.08 3.813 3.813 0 011.373.018 1.04 1.04 0 00.236.067.898.898 0 01.242.075 1.462 1.462 0 00.41.118c.046.006.068.03.097.11.043.114.087.15.233.193.061.017.102.043.102.065a.064.064 0 00.042.052.568.568 0 01.271.24c.057.103.072.114.165.125.094.011.104.02.134.108a3.887 3.887 0 00.454.776.302.302 0 01.06.13.156.156 0 00.036.088 6.165 6.165 0 01.059 1.927 3.19 3.19 0 00-.084.27.6.6 0 01-.064.167 6.79 6.79 0 01-.066.081 1.394 1.394 0 00-.12.332c.001.028.069-.112.07-.144a.238.238 0 01.063-.104 2.22 2.22 0 00.257-.626 5.936 5.936 0 00-.055-1.94.66.66 0 01-.047-.141 1.402 1.402 0 00-.286-.498.32.32 0 01-.085-.15.422.422 0 00-.087-.166.32.32 0 01-.07-.107c0-.014-.042-.047-.094-.073a.411.411 0 01-.155-.155.61.61 0 00-.14-.162 1.21 1.21 0 01-.106-.08.573.573 0 00-.134-.068.386.386 0 01-.183-.147.435.435 0 00-.313-.213 2.221 2.221 0 01-.57-.197 1.099 1.099 0 00-.351-.107 7.541 7.541 0 01-.313-.045 2.405 2.405 0 00-.55-.009m9.893 4.968c.007 4.98.008 4.909-.089 4.821-.046-.042-.044-9.488.003-9.61.078-.205.08-.065.086 4.79m-8.914-4.584c-.058.041-.062.109-.004.091.38-.116.484-.05.228.147a3.077 3.077 0 00-.19.156.797.797 0 01-.103.081 1.043 1.043 0 00-.277.668c-.023.312-.01.335.232.392.05.012.114.03.14.038.043.015.044.014.006-.01a.088.088 0 01-.042-.06c0-.017-.049-.052-.108-.076-.144-.059-.182-.162-.125-.35a1.118 1.118 0 01.24-.506 2.362 2.362 0 01.52-.339l.084-.03-.1-.041c-.078-.032-.103-.056-.108-.104-.008-.064-.318-.11-.393-.057m-.277.022a.097.097 0 00-.054.068.108.108 0 01-.06.071.182.182 0 00-.073.047c-.032.039.161.005.202-.035a.148.148 0 01.085-.023.152.152 0 00.08-.017c.016-.016-.098-.13-.126-.124a1.143 1.143 0 00-.054.013m-.598.25c-.084.055-.183.12-.22.146a.764.764 0 01-.154.077l-.087.03.076.015c.091.019.1.058.02.078a.104.104 0 00-.071.067.212.212 0 01-.098.097c-.047.025-.085.056-.085.069s-.017.01-.037-.008c-.03-.024-.042-.024-.066.001-.023.025-.02.028.019.016.04-.013.039-.008-.01.034a.133.133 0 01-.107.037c-.12-.032-.252.093-.265.25-.009.112-.01.119-.031.114a.333.333 0 00-.107.08c-.08.078-.084.088-.042.099.07.018.057.095-.023.14a.223.223 0 00-.1.138c-.031.106-.054.12-.09.056-.04-.07-.079.032-.16.425a7.597 7.597 0 00-.011 1.437 1.55 1.55 0 00.32.586.775.775 0 01.134.172c.002.059.124.123.265.14l.143.016.015.09c.024.15.034.155.29.171.128.008.272.023.318.032.062.013.074.01.048-.008a.444.444 0 00-.144-.04c-.296-.039-.362-.063-.424-.157a.444.444 0 00-.165-.14.79.79 0 01-.335-.302.951.951 0 00-.135-.192c-.153-.172-.186-.227-.186-.313a.37.37 0 00-.08-.226 3.284 3.284 0 01-.003-.775l.023-.216.077-.007c.054-.006.081-.023.092-.06a1.383 1.383 0 01.11-.203 1.21 1.21 0 00.125-.275c.02-.078.047-.128.07-.133a.21.21 0 00.088-.087.875.875 0 01.179-.177.53.53 0 00.145-.147.179.179 0 01.08-.082.681.681 0 00.147-.13c.046-.054.163-.176.26-.272.279-.276.33-.383.23-.483-.027-.028-.02-.035.058-.047.081-.013.24-.135.176-.135-.014 0-.033-.022-.041-.048-.022-.069-.06-.06-.231.05m18.703.698l.064.052c.03.025.054.039.054.031 0-.024-.074-.09-.102-.09-.014 0-.021.004-.016.007m.836.473a.16.16 0 00.072.023c.032 0 .032-.003 0-.023a.158.158 0 00-.072-.023c-.032 0-.032.002 0 .023m-18.458.093c0 .01-.023.03-.05.041-.045.02-.04.027.058.072l.107.05.01-.053c.007-.037-.008-.062-.058-.09-.037-.022-.067-.03-.067-.02M31 9.146a.264.264 0 00.084.034c.013 0-.003-.015-.036-.034a.266.266 0 00-.084-.034c-.013 0 .003.015.036.034m-18.8.073c.044.02.079.048.08.065a.273.273 0 00.058.1l.057.07-.029-.13-.028-.13-.108-.005-.107-.005.078.035m19.015.018a.453.453 0 00.088.078c.048.037.08.055.07.04-.018-.03-.158-.134-.158-.118m.143.28a.329.329 0 01-.09.117c-.052.05-.065.07-.03.048.074-.048.159-.159.137-.18-.01-.01-.017-.003-.017.014m-3.234.294a.644.644 0 01-.09.108c-.02.017-.024.03-.009.03.015 0 .06-.048.101-.108a.382.382 0 00.063-.107.308.308 0 00-.065.077m2.067.621a.998.998 0 01-.24.085.866.866 0 00-.208.07.261.261 0 01-.12.035l-.072.002.08.023c.068.02.078.03.064.075a3.864 3.864 0 00-.054.787 1.459 1.459 0 01-.014.323c-.027.028-2.246.038-2.288.01a3.148 3.148 0 01.007-1.052l.046-.051h-.098c-.056 0-.102-.012-.107-.03a2.12 2.12 0 00-.033.682c.01.65-.118.595 1.353.587l1.135-.006.05-.068c.046-.062.05-.093.043-.383-.014-.618.048-.854.225-.854.102 0 .106.043.106 1.147 0 1.177 0 1.174-.165 1.352-.175.187-.13.181-1.463.182-1.317 0-1.307.001-1.451-.156-.157-.171-.153-.137-.153-1.414v-1.159l-.21.005c-.12.002-.164.008-.102.013.208.018.196-.057.19 1.182l-.006 1.093.087.18c.187.388.17.384 1.665.378 1.45-.006 1.454-.007 1.667-.43l.066-.13.005-1.07c.003-.587.013-1.08.022-1.096.025-.04-.042-.128-.133-.175l-.077-.04.071-.015a.416.416 0 00.143-.074c.086-.07.075-.073-.031-.008m-.766.228a.198.198 0 00.084 0c.023-.006.004-.011-.042-.011s-.065.005-.042.01m-.449.104c-.066.017-.067.018-.012.02a.194.194 0 00.096-.02c.04-.026.02-.026-.084 0m-1.082.042c.17.004.438.004.599 0s.023-.008-.307-.008-.46.004-.292.008m-15.221.221c-.01.029-.011.057-.005.064s.02-.011.029-.04.01-.057.004-.063-.02.011-.028.04m1.113 1.169a.56.56 0 01-.094.128.884.884 0 00-.134.206.218.218 0 01-.084.113 1.29 1.29 0 00-.22.181 1.421 1.421 0 01-.27.212 1.246 1.246 0 00-.249.19.908.908 0 01-.177.146.132.132 0 00-.064.035 1.076 1.076 0 01-.253.095 7.421 7.421 0 00-.356.109.937.937 0 01-.186.049.066.066 0 00-.059.036c-.009.023-.05.037-.113.04l-.1.004.09.009a.299.299 0 00.143-.02 1.037 1.037 0 01.21-.058 1.935 1.935 0 00.33-.103 1.668 1.668 0 01.263-.09.372.372 0 00.198-.127 1.773 1.773 0 01.373-.29 1.514 1.514 0 00.3-.25.5.5 0 01.141-.109.213.213 0 00.12-.13 1.332 1.332 0 01.134-.24c.058-.086.095-.157.082-.157a.023.023 0 00-.025.021m14.51.136a.315.315 0 00-.15.392c.04.186.51.197.58.014a.308.308 0 00-.43-.406m.816.09c-.122.147-.015.352.16.305a.168.168 0 00.08-.294.22.22 0 00-.24-.011m-1.497.047c-.115.105-.095.212.047.248.118.03.176-.129.092-.249-.047-.067-.065-.066-.139 0m.965-.02a.214.214 0 01-.138.35c-.184-.001-.254-.178-.14-.353a.321.321 0 01.278.004m-16.577 1.895a1.985 1.985 0 01-.173.07.592.592 0 00-.4.606c-.013.185-.07.22-.2.124a1.474 1.474 0 00-.688-.104 1.054 1.054 0 00-.603.119.837.837 0 01-.147.057c-.049 0-.194.214-.231.342a1.503 1.503 0 01-.08.214 1.027 1.027 0 00.016.6c.026.055.064.153.085.216a.472.472 0 00.266.293 1.27 1.27 0 01.176.064.709.709 0 00.54-.004c.082-.051.106-.054.32-.04a.922.922 0 00.39-.03c.154-.044.157-.044.214.002a.919.919 0 00.524.007 3.98 3.98 0 00.03-.615c.01-.666-.002-.63.192-.628.184.003.186.007.187.358a.721.721 0 00.084.46 1.384 1.384 0 01.084.19c0 .084.215.217.4.247a.416.416 0 01.179.07.496.496 0 00.433.003.926.926 0 01.22-.061.534.534 0 00.435-.397c.036-.226.128-.13.128.133 0 .259.006.264.33.264.354 0 .34.023.34-.6 0-.475.016-.59.084-.639a.762.762 0 01.328 0 .363.363 0 00.081.071c.116.081.14.198.142.667 0 .516.027.55.403.502.205-.025.217-.042.238-.329a7.61 7.61 0 01.036-.379l.019-.131.015.18a.591.591 0 00.114.363c.02.022.064.078.097.124.072.101.132.132.335.171a1.817 1.817 0 01.251.068c.163.064.469.043.517-.035a.365.365 0 01.156-.038c.3-.03.392-.268.197-.503a.674.674 0 00-.448.024.425.425 0 01-.32.015 1.017 1.017 0 00-.11-.072c-.15-.09-.093-.105.404-.113.605-.009.622-.017.622-.288a.675.675 0 00-.034-.248.952.952 0 01-.06-.194c-.028-.133-.156-.304-.227-.304a.245.245 0 01-.103-.058c-.198-.166-.925-.178-1.011-.016a.213.213 0 01-.094.072.605.605 0 00-.285.468l-.019.095-.042-.119c-.088-.246-.226-.442-.312-.442a.786.786 0 01-.134-.08 1.807 1.807 0 00-1.127-.06c-.248.034-.383.139-.383.296 0 .188-.077.294-.108.15-.099-.453-1.056-.669-1.491-.337a.526.526 0 01-.125.079.167.167 0 00-.069.05l-.047.051-.017-.092c-.034-.19-.07-.224-.237-.225-.135 0-.211-.03-.144-.056a.673.673 0 01.162-.016c.261 0 .329-.066.329-.324v-.155l-.11-.078a.72.72 0 00-.524-.075m-3.085.033c-.155.03-.17.063-.18.37l-.008.273-.081.015a.524.524 0 01-.16.001 1.22 1.22 0 00-.463.068 1.18 1.18 0 00-.524.516c-.05.151-.046.151-.108-.013a1.062 1.062 0 00-.858-.583 1.23 1.23 0 00-.809.26c-.052.075-.075.064-.093-.047-.029-.167-.07-.189-.355-.189-.206 0-.254.007-.284.042a1.262 1.262 0 00-.198.472c-.044.23-.07.286-.151.345l-.07.05-.027-.06a1.204 1.204 0 01-.053-.22.812.812 0 00-.072-.236.308.308 0 01-.047-.12.352.352 0 00-.165-.235 1.16 1.16 0 00-.625-.001.24.24 0 00-.002.285 1.984 1.984 0 01.278.576 1.274 1.274 0 00.06.192 1.04 1.04 0 01.058.151.32.32 0 00.073.14.234.234 0 01.06.118.441.441 0 00.099.172.266.266 0 01.068.085c0 .198.74.123.743-.075a.79.79 0 01.072-.184.716.716 0 00.071-.191.345.345 0 01.052-.132 1 1 0 00.084-.273 1.596 1.596 0 01.092-.318 1.278 1.278 0 00.06-.142c0-.023.067-.081.094-.081.049 0 .036.249-.023.42-.136.394.168 1.05.491 1.062a.56.56 0 01.16.062.63.63 0 00.52.014.472.472 0 01.159-.063.402.402 0 00.248-.122.2.2 0 01.084-.057c.048 0 .16-.166.197-.294.047-.16.072-.184.092-.09a1.215 1.215 0 00.301.402.339.339 0 00.289.152.988.988 0 01.24.072 1.535 1.535 0 00.77-.01.246.246 0 01.097-.04.189.189 0 00.087-.043l.053-.043.01-1.162.009-1.161-.066-.062a.405.405 0 00-.349-.068m3.503.109a.198.198 0 01.059.278c-.055.107-.072.116-.23.116-.333.001-.345.206-.015.266.321.06.303.39-.022.379-.231-.009-.222-.036-.229.657-.007.69.004.662-.246.662-.244 0-.23.063-.222-1.02.008-1.056.01-1.065.215-1.24a.799.799 0 01.69-.098m-3.306.015c.12.041.122.068.122 1.194v1.05l-.058.046a2.366 2.366 0 01-1.177-.016.86.86 0 01-.388-1.104.806.806 0 00.067-.159c.001-.13.627-.438.8-.395.243.061.324-.007.325-.274a1.151 1.151 0 01.026-.268c.025-.071.038-.078.18-.098a.348.348 0 01.104.024m18.424.468c-.08.018-.229.044-.333.057-.256.032-.278.058-.278.334v.208l-.457.014c-.6.02-.62.032-.62.39 0 .257.003.258.597.274l.468.012.006.574c.007.818.002.804.306.811.299.007.349-.063.329-.456l-.013-.247h.1a.437.437 0 01.167.034.306.306 0 00.275-.031.876.876 0 01.218-.062c.165-.032.197-.047.274-.128a.713.713 0 00.23-.527l.016-.103.08.127a1.787 1.787 0 01.131.265.643.643 0 00.39.362c.043.006.152.024.245.04a1.475 1.475 0 00.574 0c.275-.044.31-.06.38-.19.128-.235.028-.38-.248-.362a1.743 1.743 0 01-.67-.035c-.13-.068-.038-.085.47-.087.496-.003.577-.026.608-.18.03-.148.1-.173.182-.063a.855.855 0 00.453.233c.187.04.19.042.152.103a.221.221 0 01-.261.062c-.277-.116-.53-.028-.533.185-.003.218.073.28.4.322a.484.484 0 01.164.047.296.296 0 00.247-.016.488.488 0 01.156-.035c.232-.024.342-.072.398-.172.11-.197.245-.272.245-.136 0 .09.302.287.476.31a.667.667 0 01.205.063c.076.045.077.045.134-.008.053-.05.086-.055.441-.066.568-.019.522.063.522-.926 0-.92.005-.905-.336-.932a2.513 2.513 0 01-.35-.06l-.189-.05-.134.05a1.464 1.464 0 01-.242.063c-.132.019-.216.057-.216.099 0 .017-.024.043-.053.06-.178.094-.377.296-.377.382a.64.64 0 01-.023.155 1.94 1.94 0 00-.037.138c-.013.062-.019.066-.056.033a.489.489 0 00-.136-.066 2.27 2.27 0 01-.215-.087.618.618 0 00-.206-.056c-.136 0-.26-.184-.15-.225a1.216 1.216 0 01.476.023c.104.035.115.035.163-.006.08-.068.087-.083.087-.214 0-.185-.039-.219-.299-.258a2.043 2.043 0 01-.276-.057.697.697 0 00-.813.546c0 .167-.027.286-.05.226a.56.56 0 01-.02-.148.162.162 0 00-.083-.162.287.287 0 01-.095-.115.498.498 0 00-.354-.272c-.367-.084-.382-.086-.485-.047a1.212 1.212 0 01-.206.053.553.553 0 00-.468.412c-.072.313-.218.398-.224.131-.004-.167-.07-.265-.292-.436a.828.828 0 00-.38-.122.842.842 0 01-.192-.047.533.533 0 00-.395-.008m-3.974.008c-.68.13-.623.033-.623 1.07 0 .92-.025.85.31.865l.227.01.076-.076.076-.076-.011-.563c-.01-.528-.009-.567.034-.622.08-.1.21-.052.329.124l.075.111.005.514c.004.478.008.516.05.548a.863.863 0 00.494-.003l.07-.036v-.532c0-.703.039-.823.24-.763.175.053.2.143.203.749.004.616.006.619.397.619.17 0 .237-.032.24-.115a29.504 29.504 0 00-.016-1.387.745.745 0 00-.399-.347 3.91 3.91 0 00-.7-.032 2.071 2.071 0 01-.688-.041.665.665 0 00-.39-.017m.605.149a.73.73 0 00.302-.001c.444-.082 1.044.045 1.104.234.009.027.025.049.036.049a4.842 4.842 0 01.05 1.4.853.853 0 01-.177.028c-.252.024-.255.017-.256-.56 0-.634-.066-.81-.32-.857-.278-.053-.301.003-.302.745 0 .71.006.693-.24.676-.23-.017-.226-.008-.231-.588-.006-.568-.007-.575-.107-.69a.336.336 0 00-.427-.118c-.105.054-.12.15-.12.768 0 .659.004.648-.242.626a.447.447 0 01-.174-.04 11.612 11.612 0 01-.01-1.498c.05-.187.587-.271 1.114-.174m3.862-.032a.574.574 0 01.275.081.67.67 0 00.162.079c.382.093.37 1.237-.016 1.453a1.322 1.322 0 01-.83.126c-.126-.032-.154.026-.149.31.006.343-.011.372-.232.372-.251 0-.24.034-.244-.756-.008-1.433-.001-1.547.087-1.605a2.593 2.593 0 01.947-.06m2.165.045a.83.83 0 01.276.235.088.088 0 00.032.055.427.427 0 01.061.164c.016.076.046.19.066.253a.24.24 0 01-.047.273 4.468 4.468 0 01-.487.03c-.54.018-.663.067-.511.205a.704.704 0 00.784.102c.062-.031.08-.017.123.092a.192.192 0 01-.109.257 2.057 2.057 0 01-.986-.056.044.044 0 00-.04-.024c-.081 0-.251-.203-.251-.3a1.026 1.026 0 00-.064-.2.517.517 0 01-.022-.44.939.939 0 00.075-.236.825.825 0 011.1-.41m1.807-.01a.202.202 0 01.072.243c-.034.042-.178.046-.335.01a.573.573 0 00-.407.05c-.098.098.015.335.16.335a.861.861 0 01.207.057c.082.03.191.072.244.09.249.089.278.622.043.801-.25.191-.988.17-1.093-.031-.084-.16.075-.276.268-.195a.545.545 0 00.44-.003c.154-.121.122-.286-.062-.325a1.211 1.211 0 01-.547-.277.456.456 0 01.137-.734 1.956 1.956 0 01.873-.021m1.846-.006c.169.042.167.035.17.767.003.921.006.876-.058.899a1.758 1.758 0 01-.317.02 2.706 2.706 0 00-.383.024.725.725 0 01-.863-.499.849.849 0 00-.087-.175c-.136-.084.19-.87.361-.87a.314.314 0 00.085-.072.613.613 0 01.384-.129 4.473 4.473 0 01.708.035m-27.077.072a.888.888 0 00.159.07.82.82 0 01.375 1.089l-.09.17a.536.536 0 01-.129.143 1.022 1.022 0 00-.101.083 1.473 1.473 0 01-.922.06c-.363-.127-.523-.534-.42-1.064.065-.337.118-.398.456-.526.378-.144.434-.146.672-.025m4.077-.024a1.952 1.952 0 00.23.045.189.189 0 01.098.062l.058.061-.001.705c-.001.865.039.787-.413.792-.937.01-.94.01-1.067-.145a1.29 1.29 0 01-.001-1.29c.05-.068.1-.113.129-.113a.722.722 0 00.173-.05.99.99 0 01.794-.067m4.752-.012c.546.166.574.215.576 1.032l.002.58-.07.036c-.238.123-.289.046-.29-.44 0-.644-.125-.84-.533-.84-.308 0-.332.048-.328.655.004.638.012.579-.081.623a.349.349 0 01-.327-.005l-.054-.044.005-.716c.005-.793.002-.777.17-.813.033-.007.103-.025.155-.04a1.173 1.173 0 01.775-.028m2.014.029l.16.088a.478.478 0 01.279.395c.094.478.063.506-.573.5-.545-.004-.638.056-.406.26a.59.59 0 00.636.102c.242-.064.28-.062.32.018.106.211-.07.294-.632.295-.532 0-.638-.046-.829-.365l-.104-.174v-.252c0-.35.149-.767.272-.767a.103.103 0 00.06-.03.888.888 0 01.817-.07m-3.954-.022c.061.025.17.065.241.09a.365.365 0 01.156.089.665.665 0 00.08.1.188.188 0 01.054.102.646.646 0 00.037.15 1.145 1.145 0 01-.204.996c-.303.307-1.296.18-1.38-.177a.807.807 0 00-.072-.168.834.834 0 01.389-1.12c.064-.018.16-.05.212-.07a.764.764 0 01.487.008m-9.497.048a.216.216 0 00.07.05c.032 0 .097.17.12.317a.676.676 0 00.045.173.929.929 0 01.062.18c.068.252.086.27.21.213.074-.033.097-.084.171-.375.126-.494.167-.563.36-.606.252-.056.336.056.183.242a.466.466 0 00-.086.167c-.017.083-.1.379-.173.61a1.237 1.237 0 01-.086.204 1.245 1.245 0 00-.088.228c-.064.228-.446.33-.578.154a15.29 15.29 0 00-.092-.121.955.955 0 01-.096-.186 1.547 1.547 0 00-.105-.212.62.62 0 01-.073-.2.733.733 0 00-.06-.192 1.6 1.6 0 01-.084-.216.871.871 0 00-.1-.214.212.212 0 01-.032-.243c.038-.07.35-.05.432.027m23.355.213c-.034.038-.04.109-.04.49v.448l.095.06c.527.332.971-.458.509-.906-.14-.135-.476-.19-.564-.092m2.163 0a.236.236 0 00-.12.28c.059.11.458.115.567.006l.059-.059-.062-.091a.337.337 0 00-.444-.135m3.403.07c-.341.345-.362.679-.057.903.11.08.298.118.32.065a.4.4 0 01.098-.074 1.09 1.09 0 00.081-.923c-.07-.108-.324-.091-.442.028m-26.714-.025c-.29.057-.394.721-.147.946.22.2.455.123.622-.204.14-.276-.136-.796-.402-.755a2.399 2.399 0 00-.073.013m2.035.022a.621.621 0 00-.367.522c0 .344.594.685.731.42a2.06 2.06 0 00-.007-.827.288.288 0 00-.357-.115m1.943.02c-.316.15-.402.452-.24.852a.445.445 0 00.312.167c.246 0 .371-.19.371-.561 0-.452-.142-.6-.443-.458m2.887.012a.632.632 0 00-.218.666l.062.13a.386.386 0 00.358.221c.303-.049.462-.545.27-.838-.182-.276-.269-.31-.472-.179m3.88-.006c-.23.19-.101.347.26.32l.18-.014.021-.088c.055-.22-.273-.374-.461-.218m10.828.024a.604.604 0 01.169.687c-.057.137-.332.188-.493.093l-.07-.041v-.367c0-.44.008-.46.165-.46a.3.3 0 01.229.088m1.922-.074c.078.015.164.132.142.19a.535.535 0 01-.346.014c-.03-.02.075-.219.117-.219a.851.851 0 01.087.015m3.605.132a1.808 1.808 0 01.013.353l-.008.295-.072.057a.29.29 0 01-.328.016.525.525 0 01-.084-.5l.079-.139c.104-.188.341-.237.4-.082m-26.898.022c.242.085.225.712-.02.75-.323.052-.502-.28-.322-.595.105-.185.17-.214.342-.155m2.041.006a.81.81 0 01.08.714c-.146.12-.463-.039-.512-.257-.057-.255.263-.594.432-.457m2.047.02a1.848 1.848 0 01-.009.651c-.204.246-.518.076-.518-.28v-.198l.093-.082c.149-.132.349-.174.434-.091m2.906.033a.319.319 0 00.072.1c.151.111-.016.628-.203.63a.562.562 0 01-.284-.118 1.622 1.622 0 01.009-.529c.09-.18.337-.23.406-.083m3.811-.059c.074.04.03.07-.098.07-.115 0-.16-.024-.131-.071.02-.031.17-.03.23.001m9.423.142a.214.214 0 01-.051.353 2.515 2.515 0 01-.716.017.315.315 0 01-.094-.335 1.448 1.448 0 01.861-.035"
              fill="#e58485"/>
        <path d="M29.306 8.456c-.016.006-.03.04-.03.076a.403.403 0 01-.047.147c-.025.046-.083.16-.128.254-.08.168-.157.249-.233.249a.155.155 0 00-.118.125.058.058 0 01-.034.05.2.2 0 00-.063.105.303.303 0 01-.214.213.297.297 0 00-.127.09 2.512 2.512 0 01-.1.153l-.073.102-.155-.006c-.149-.006-.157-.01-.203-.088a2.19 2.19 0 00-.219-.261l-.17-.18-.045.069c-.04.06-.046.12-.047.506a3.344 3.344 0 01-.018.454c-.02.021.102.104.154.104a.572.572 0 01.155.063l.117.062.54-.01a3.98 3.98 0 00.598-.036 2.168 2.168 0 01.581-.137.49.49 0 00.275-.073.325.325 0 01.2-.06.324.324 0 00.193-.056.99.99 0 01.196-.095.408.408 0 00.16-.096.354.354 0 01.124-.09.425.425 0 00.09-.045 1.126 1.126 0 01.108-.076.768.768 0 00.176-.179.85.85 0 01.184-.188c.155-.106.18-.252.044-.252a.181.181 0 01-.075-.048.56.56 0 00-.166-.086.6.6 0 01-.153-.072.71.71 0 00-.167-.079 2.525 2.525 0 01-.25-.105 1.04 1.04 0 00-.192-.075.384.384 0 01-.142-.075.253.253 0 00-.136-.059.26.26 0 01-.148-.07.608.608 0 00-.145-.096.17.17 0 01-.087-.085c-.022-.06-.12-.08-.21-.044m-2.814 1.79a.363.363 0 01-.117.073c-.216.06-.22.08-.03.17.167.078.245.07.315-.036.133-.197-.001-.362-.168-.207"
              fill="#5eb254"/>
        <path d="M11.728 7.301c.033.019.057.042.053.053s.056.026.132.032c.128.011.139.017.146.075.011.103.183.16.275.091.082-.06.115-.04.16.099.04.117.052.127.11.084.068-.05.003-.238-.086-.248a1.521 1.521 0 01-.408-.116 1.277 1.277 0 00-.394-.103c-.042 0-.04.004.012.033m-.234.101c-.022.01-.01.031.035.07l.067.058.024-.054a.209.209 0 01.048-.071c.027-.02-.126-.022-.174-.003m-.331.101c-.16.06-.169.066-.146.117.03.067.114.07.172.006a.247.247 0 01.086-.06c.039-.013.088-.1.066-.118a1.005 1.005 0 00-.178.055m1.594.289c0 .029.13.121.172.121.079 0 .162.106.168.212.005.091.014.108.072.128.076.027.088.097.03.173a2.13 2.13 0 00.013.888c.065.058.061.098-.03.277a.689.689 0 00-.035.55.148.148 0 01.013.127 1.329 1.329 0 00-.03.298c-.01.405-.09.514-.197.274-.058-.128-.063-.174-.08-.62-.017-.47-.048-.631-.122-.631-.009 0-.021-.021-.028-.047a.18.18 0 00-.098-.082c-.064-.027-.087-.051-.088-.091 0-.06-.05-.14-.087-.14a.349.349 0 01-.104-.083c-.124-.129-.335-.176-.335-.076 0 .071.073.109.226.117l.118.007.04.161a.496.496 0 00.174.302.546.546 0 01.114.322c.012.095.034.243.048.328a3.071 3.071 0 01-.013.682 1.237 1.237 0 01-.168.443.873.873 0 00-.103.156.704.704 0 01-.356.31c-.124.066-.18.112-.202.162-.046.113-.114.14-.373.154a1.32 1.32 0 00-.322.049 2.543 2.543 0 01-.865-.011c-.255-.02-.266-.026-.29-.173-.014-.086-.02-.09-.126-.105-.18-.025-.19-.022-.14.033a.141.141 0 00.073.048.463.463 0 01.137.101c.203.193.285.258.325.259.45.01.657.044.737.121l.081.08-.054.03c-.109.06-.33.026-.33-.05 0-.106-.152-.104-.258.003-.134.133-.436.097-.436-.052a.148.148 0 00-.286-.043l-.034.08-.217-.008c-.21-.006-.217-.009-.248-.072-.047-.1-.344-.102-.392-.003a.272.272 0 01-.15.109c-.145.056-.175.034-.185-.136-.007-.109-.013-.12-.067-.124a.156.156 0 01-.097-.05c-.061-.076-.143-.092-.143-.03a.064.064 0 00.047.065.098.098 0 01.061.063c.038.138.094.233.146.246a.11.11 0 01.071.065 1.946 1.946 0 00.404.4.589.589 0 01.336.166.908.908 0 00.383.216.258.258 0 01.098.054.447.447 0 00.26.07 2.831 2.831 0 01.638.132 2.173 2.173 0 00.986-.056.08.08 0 01.063-.032.948.948 0 00.184-.05c.078-.026.238-.075.356-.108a1.076 1.076 0 00.253-.095.132.132 0 01.063-.035.908.908 0 00.178-.146 1.246 1.246 0 01.25-.19 1.421 1.421 0 00.27-.212 1.29 1.29 0 01.219-.181.22.22 0 00.084-.114.786.786 0 01.116-.187.685.685 0 00.202-.334.783.783 0 01.08-.188l.065-.08a.6.6 0 00.064-.168c.017-.07.055-.191.084-.27a6.165 6.165 0 00-.06-1.927.156.156 0 01-.036-.089.302.302 0 00-.06-.13 3.887 3.887 0 01-.453-.775c-.03-.088-.04-.097-.134-.108-.093-.01-.108-.022-.165-.125a.568.568 0 00-.271-.24.063.063 0 01-.042-.05c0-.02-.034-.047-.075-.061-.092-.033-.117-.033-.117-.004m-2.46.141a.615.615 0 00-.192.277c.006.04-.007.052-.065.058-.09.01-.13.045-.075.066a.144.144 0 00.105-.029.195.195 0 01.084-.038.014.014 0 00.018-.015c0-.011.038-.04.085-.066a.212.212 0 00.098-.097.104.104 0 01.07-.067c.044-.01.087-.061.052-.061a1.2 1.2 0 01-.08-.022.172.172 0 00-.1-.006m2.604.361c-.054.016-.05.02.044.036.109.02.158.002.1-.035-.04-.025-.06-.025-.144 0m16.345.121a.244.244 0 00-.077.118 1.266 1.266 0 01-.315.499 1.1 1.1 0 00-.272.38.197.197 0 01-.115.116.624.624 0 00-.316.276c-.128.188-.253.207-.333.05-.174-.341-.498-.528-.612-.353a5.817 5.817 0 00-.028 1.178 5.559 5.559 0 001.931.05 2.3 2.3 0 01.362-.085 1.31 1.31 0 00.288-.067.66.66 0 01.176-.057 2.037 2.037 0 00.59-.277.663.663 0 01.15-.098 1.58 1.58 0 00.303-.244 3 3 0 01.257-.238.345.345 0 00.148-.24.661.661 0 00-.279-.242 3.655 3.655 0 01-.336-.156 2.382 2.382 0 00-.357-.156 1.12 1.12 0 01-.236-.096 1.39 1.39 0 00-.22-.095.43.43 0 01-.128-.084.388.388 0 00-.137-.084.295.295 0 01-.118-.071.253.253 0 00-.326-.024m.27.084a.17.17 0 00.087.085.608.608 0 01.145.095.26.26 0 00.148.071.253.253 0 01.136.06.384.384 0 00.141.073 1.04 1.04 0 01.193.076 2.525 2.525 0 00.25.105.71.71 0 01.167.079.6.6 0 00.153.071.56.56 0 01.166.087.181.181 0 00.074.047c.138 0 .112.147-.044.253a.85.85 0 00-.184.188.768.768 0 01-.175.18 1.126 1.126 0 00-.108.075.425.425 0 01-.09.045.354.354 0 00-.124.09.408.408 0 01-.16.096.99.99 0 00-.196.095.324.324 0 01-.194.056.325.325 0 00-.199.06.49.49 0 01-.275.073 2.168 2.168 0 00-.582.136 3.98 3.98 0 01-.598.037l-.539.01-.117-.062a.572.572 0 00-.156-.063c-.052 0-.174-.083-.153-.104a3.344 3.344 0 00.018-.454c.001-.386.007-.445.046-.506l.045-.069.17.18a2.19 2.19 0 01.22.26c.046.08.054.083.203.089l.155.005.072-.101c.04-.056.085-.124.101-.153a.297.297 0 01.127-.09.303.303 0 00.214-.214.2.2 0 01.063-.104.058.058 0 00.034-.05.155.155 0 01.118-.125c.076 0 .152-.081.233-.249.045-.094.103-.208.128-.254a.403.403 0 00.046-.148c.002-.071.026-.087.14-.09.062-.001.083.01.101.059m-19.86.091c-.028.071.013.135.044.07.018-.04.017-.063-.002-.082-.02-.02-.031-.017-.043.012m1.947.26c.03.015.054.041.054.058 0 .047.092.088.158.071.073-.018.075-.08.004-.106-.094-.035-.28-.054-.216-.023m-2.188.072c-.103.115-.14.203-.109.27.04.085.065.076.098-.037a.22.22 0 01.1-.138c.048-.026.07-.056.065-.088-.01-.068-.095-.072-.154-.007m17.275 1.111a.64.64 0 01-.159.1.395.395 0 00-.126.076c0 .048-.24.124-.414.131-.192.008-.219.045-.08.106.061.027.11.059.11.071q0 .08.473.085l.33.003.006-.285c.005-.212 0-.29-.024-.305a.077.077 0 00-.116.018m-17.662.094a.482.482 0 00.018.374c.063.078.077.033.068-.219-.007-.208-.037-.263-.086-.155m17.65.074c.104.04-.01.325-.137.34a.744.744 0 01-.338-.136c-.013-.02.053-.053.172-.087a.363.363 0 00.118-.074.158.158 0 01.185-.043m-18.822 1.36c.004.065.02.122.035.127.02.007.025-.016.015-.082-.023-.148-.057-.179-.05-.045m.552.505c0 .066.005.09.01.053a.429.429 0 000-.12c-.006-.029-.01.001-.01.067m3.9.038l.048.026-.05.035c-.05.035-.146.025-.146-.016 0-.017.065-.068.091-.07a.272.272 0 01.056.025"
              fill="#969ca4"/>
    </g>
</svg>
