<svg viewBox="0 0 38 24" xmlns="http://www.w3.org/2000/svg" width="38" height="24" role="img"
     aria-labelledby="ti-dpo-xpay">
    <title id="ti-dpo-xpay">Xpay</title>
    <g id="ti-dpo-xpay-svgg" fill-rule="evenodd">
        <g fill="#91b6d4">
            <path d="M16.074 6.54c-.099.016-.078.059.024.05.049-.004.087-.017.085-.03-.005-.028-.024-.032-.109-.02zM13.418 8.111a.854.854 0 00-.113.094.178.178 0 01-.101.053.124.124 0 00-.09.071c-.022.04-.057.072-.079.072-.057 0-.15.082-.13.115.033.052.119.027.228-.065a.564.564 0 01.156-.101.13.13 0 00.074-.066.205.205 0 01.108-.083c.054-.018.078-.04.078-.073 0-.06-.055-.068-.131-.017zM13.287 15.467c.038.014.07-.016.044-.041a.04.04 0 00-.065.006c-.007.012.002.027.021.035zM13.443 15.589a.035.035 0 00.034.036c.05 0 .066-.04.023-.057-.053-.02-.057-.019-.057.02zM12.836 15.175c.074.022.108.046.112.08.005.03.032.053.079.063a.834.834 0 01.115.034c.036.015.042.008.035-.038a.082.082 0 00-.06-.069.35.35 0 01-.114-.067.267.267 0 00-.22-.082c-.084.014-.063.045.053.08zM13.904 15.93a.061.061 0 00.095.006c.02-.032-.043-.074-.08-.051a.035.035 0 00-.015.046zM14.381 16.219c-.018.03.047.058.083.036a.028.028 0 00.011-.038.06.06 0 00-.094.002zM26.541 4.493a1.402 1.402 0 00-.392-.022c-.125.038-.001.08.237.08.167 0 .238-.026.155-.058zM13.62 15.748l.081.023c.055.016.089.015.106-.002.018-.018-.006-.025-.08-.023zM16.71 6.239c-.063 0-.108.007-.098.016a.385.385 0 00.202-.006c.006-.006-.041-.01-.104-.01zM17.899 5.765c-.022-.035-.156-.042-.198-.011-.038.028-.038.03.001.046.053.02.213-.008.197-.035zM17.482 5.928c0-.028-.088-.03-.105 0-.016.025.053.055.084.036a.048.048 0 00.021-.036zM21.79 13.429a1.686 1.686 0 01-.672.667c-.12.057-.286.203-.285.25.006.309.267.487.467.32a1.035 1.035 0 01.162-.105.59.59 0 00.14-.098.157.157 0 01.068-.05 1.044 1.044 0 00.28-.254.157.157 0 01.058-.074.472.472 0 00.106-.157c.026-.06.06-.11.073-.11s.05-.05.079-.113a1.127 1.127 0 01.106-.182.243.243 0 00.053-.107.469.469 0 01.074-.152.766.766 0 00.095-.205.785.785 0 01.089-.201.67.67 0 00.084-.207.408.408 0 01.074-.168.257.257 0 00.059-.136.603.603 0 01.11-.307.34.34 0 00.056-.158.358.358 0 01.062-.167.925.925 0 00.099-.247.788.788 0 01.093-.23.292.292 0 00.055-.145.599.599 0 01.111-.312.334.334 0 00.056-.166.408.408 0 01.068-.192.924.924 0 00.098-.24.502.502 0 01.076-.181.595.595 0 00.08-.211.743.743 0 01.058-.19c.11-.134-.349-.221-.535-.101a.442.442 0 00-.178.319.577.577 0 01-.068.2.926.926 0 00-.085.246.927.927 0 01-.087.247.54.54 0 00-.069.22.57.57 0 01-.072.229 1.095 1.095 0 00-.093.273.846.846 0 01-.08.237.735.735 0 00-.074.23.9.9 0 01-.086.258.655.655 0 00-.07.17c0 .055-.073.153-.095.13a.478.478 0 01-.048-.116 1.308 1.308 0 00-.088-.202.854.854 0 01-.079-.259.528.528 0 00-.07-.22.705.705 0 01-.082-.22.73.73 0 00-.08-.219.83.83 0 01-.089-.221.845.845 0 00-.085-.22.417.417 0 01-.06-.155.658.658 0 00-.108-.292.474.474 0 01-.057-.178.591.591 0 00-.07-.206.645.645 0 01-.071-.146c-.038-.15-.463-.238-.611-.126-.065.05-.057.232.015.316a.676.676 0 01.094.217.923.923 0 00.098.237.346.346 0 01.06.152.325.325 0 00.083.22.446.446 0 01.068.173.76.76 0 00.082.214.864.864 0 01.088.21.62.62 0 00.086.19.434.434 0 01.067.18c.025.148.046.21.073.21.027 0 .095.181.095.252a.287.287 0 00.056.136.642.642 0 01.084.195.903.903 0 00.099.228.8.8 0 01.01.668.614.614 0 00-.1.152zm.097-.92a.18.18 0 01-.056-.153.264.264 0 00-.068-.185.556.556 0 01-.097-.229.45.45 0 00-.086-.206.224.224 0 01-.058-.125.463.463 0 00-.093-.273.477.477 0 01-.071-.189.432.432 0 00-.097-.22.234.234 0 01-.072-.173.27.27 0 00-.071-.18.323.323 0 01-.072-.153.472.472 0 00-.105-.29.24.24 0 01-.06-.176.243.243 0 00-.056-.17c-.076-.092-.115-.209-.08-.243a1.485 1.485 0 01.506-.008.213.213 0 01.043.106.398.398 0 00.072.155.413.413 0 01.074.185.428.428 0 00.103.27.228.228 0 01.05.13.461.461 0 00.093.286.456.456 0 01.071.203.334.334 0 00.083.207.28.28 0 01.074.179.437.437 0 00.108.287.185.185 0 01.046.143.584.584 0 00.11.357.236.236 0 01.057.114c0 .08.068.187.12.187.05 0 .117-.12.117-.209a.23.23 0 01.057-.111.414.414 0 00.086-.295.42.42 0 01.083-.216.384.384 0 00.083-.253.256.256 0 01.056-.191.515.515 0 00.11-.331.186.186 0 01.046-.145.371.371 0 00.097-.277.396.396 0 01.083-.229.387.387 0 00.083-.24.431.431 0 01.175-.312 1.047 1.047 0 01.392.003c.044.027-.011.348-.069.404a.299.299 0 00-.094.225.243.243 0 01-.055.15.509.509 0 00-.111.308.16.16 0 01-.058.13.347.347 0 00-.087.218.526.526 0 01-.087.234.399.399 0 00-.075.197.543.543 0 01-.084.226.474.474 0 00-.078.209.301.301 0 01-.067.173.547.547 0 00-.092.237.503.503 0 01-.062.187c-.042.014-.094.14-.094.227a.203.203 0 01-.07.155.313.313 0 00-.086.18.418.418 0 01-.071.175.391.391 0 00-.071.135.507.507 0 01-.083.155.621.621 0 00-.093.184.225.225 0 01-.075.124.322.322 0 00-.094.132.281.281 0 01-.08.119.173.173 0 00-.062.084.24.24 0 01-.096.105.18.18 0 00-.08.08.137.137 0 01-.08.068.711.711 0 00-.157.097.362.362 0 01-.125.075.214.214 0 00-.097.063c-.088.087-.204.111-.26.052a14.748 14.748 0 00-.086-.089c-.074-.076-.066-.243.013-.282a.231.231 0 00.09-.077.173.173 0 01.108-.061c.074-.014.136-.06.323-.239.068-.065.08-.078.254-.261a.491.491 0 00.103-.172.313.313 0 01.087-.138.92.92 0 00-.035-.819zM17.791 12.412c0 .051.102.171.146.171.011 0 .02.016.02.035 0 .047.076.084.174.084a.643.643 0 01.176.033.33.33 0 00.235 0 1.31 1.31 0 01.237-.033.191.191 0 00.166-.073.477.477 0 01.125-.095.123.123 0 00.068-.067.224.224 0 01.076-.092.32.32 0 00.096-.152.717.717 0 01.082-.175 1.517 1.517 0 00.022-.792c-.057-.07-.323-.131-.37-.084a2.567 2.567 0 01-.364.03c-.309.015-.352.022-.387.064a.49.49 0 01-.17.094.265.265 0 00-.154.1.13.13 0 01-.063.067c-.063.02-.09.066-.115.197a.43.43 0 01-.07.175.311.311 0 00.01.346.502.502 0 01.06.167zm-.016-.427c.064-.334.18-.511.377-.575a.767.767 0 00.183-.088c.06-.045.124-.057.435-.081.2-.016.37-.031.377-.033a.666.666 0 01.125.035l.111.038v.332c0 .301-.005.34-.05.404a.558.558 0 00-.073.17c-.025.11-.1.203-.31.374a.935.935 0 01-.997-.023.778.778 0 01-.178-.553z"/>
            <path d="M17.185 12.34c.018.222.035.27.122.36a.19.19 0 01.056.088c0 .018.01.033.022.033a.337.337 0 01.1.083.298.298 0 00.107.083.249.249 0 01.096.057 1.488 1.488 0 001.113.015.533.533 0 01.154-.081.361.361 0 00.15-.097c.025-.033.054-.06.067-.06a.274.274 0 00.09-.077c.084-.094.145-.064.145.074 0 .21.088.281.352.285.25.004.29-.057.23-.346a6.386 6.386 0 01-.035-.987 4.265 4.265 0 00-.148-1.748 1.053 1.053 0 00-.529-.539.463.463 0 01-.157-.061 1.76 1.76 0 00-.949-.059c-.072.017-.195.053-.273.08s-.185.06-.238.073c-.108.028-.236.192-.203.261.115.24.104.232.266.195a.363.363 0 00.14-.07 2.159 2.159 0 011.054-.044 1.226 1.226 0 01.336.365 2.2 2.2 0 00.062.2c.092.257.037.33-.253.33a2.005 2.005 0 00-.641.108 1.137 1.137 0 01-.28.059.326.326 0 00-.198.062.879.879 0 01-.164.088 1.828 1.828 0 00-.503.464 1.425 1.425 0 00-.091.805zm.189-.823a.794.794 0 01.134-.16c.054-.051.133-.126.173-.167a.35.35 0 01.16-.09.298.298 0 00.14-.074.18.18 0 01.153-.059 1.348 1.348 0 00.5-.1.878.878 0 01.396-.064c.407-.019.495-.116.354-.393a1.752 1.752 0 01-.084-.202.879.879 0 00-.317-.365l-.079-.064h-.993l-.081.072c-.133.116-.255.111-.282-.012-.041-.193.027-.267.293-.313a.887.887 0 00.256-.077c.1-.07.117-.072.506-.067.353.005.375.008.431.06a.444.444 0 00.204.083c.099.019.15.04.158.067a.18.18 0 00.065.075.664.664 0 01.25.298.432.432 0 00.085.153c.069.07.086.401.086 1.671a9.302 9.302 0 00.028.996c.038.19-.013.238-.239.217-.189-.017-.217-.04-.217-.176 0-.188-.12-.257-.216-.126a.342.342 0 01-.119.098.153.153 0 00-.08.072.102.102 0 01-.067.057c-.16.043-.23.07-.23.089 0 .116-.783.133-.953.02a.736.736 0 00-.17-.085c-.036-.01-.066-.026-.066-.037a.468.468 0 00-.089-.115c-.217-.232-.212-.222-.23-.463a1.558 1.558 0 01.061-.729.246.246 0 00.079-.09zM17.133 6.098c.019-.019.007-.026-.044-.025-.062 0-.065.004-.026.026.031.018.051.018.07 0zM16.496 6.405c-.017-.027-.07-.027-.154 0-.049.015-.038.02.054.021.071.002.109-.007.1-.021zM12.8 8.566a.806.806 0 01-.088.04c-.087.034-.031.077.077.06.074-.013.097-.028.103-.07.008-.055-.026-.066-.091-.03zM13.833 12.084a.596.596 0 00.087.178c.025.026.085.094.133.15a.564.564 0 00.162.134.516.516 0 01.137.094l.063.062h.418c.401 0 .42-.002.472-.054a.729.729 0 01.162-.105.523.523 0 00.187-.16.405.405 0 01.097-.109c.01 0 .031-.045.047-.1a.489.489 0 01.088-.167 3.085 3.085 0 00.015-1.479.385.385 0 01-.092-.179 1.087 1.087 0 00-.28-.324.68.68 0 00-.144-.091c-.049-.023-.089-.05-.089-.062 0-.083-.64-.138-.772-.065a.323.323 0 00-.072.052.587.587 0 01-.142.075.297.297 0 00-.142.1.179.179 0 01-.077.076.195.195 0 00-.082.084.266.266 0 01-.081.095c-.038.025-.062.076-.082.173a.97.97 0 01-.091.244 2.723 2.723 0 00-.014 1.18.866.866 0 01.092.198zm-.017-1.366a1.037 1.037 0 00.066-.205 1.055 1.055 0 01.482-.543.384.384 0 00.133-.069.927.927 0 01.743.003.406.406 0 00.123.065 1.376 1.376 0 01.428.481.38.38 0 00.064.138c.064.052.088.282.079.757l-.009.466-.077.133a.68.68 0 00-.077.167.27.27 0 01-.065.109c-.036.04-.094.11-.13.154a.488.488 0 01-.13.114 1.313 1.313 0 00-.15.094c-.081.059-.093.06-.465.06h-.381l-.078-.065a.294.294 0 00-.108-.065 1.192 1.192 0 01-.394-.463.673.673 0 00-.06-.186 2.583 2.583 0 01.006-1.145z"/>
            <path d="M30.39 14.436a.834.834 0 01-.072-.328.643.643 0 00-.069-.31.847.847 0 01-.085-.247.79.79 0 00-.085-.245.425.425 0 01-.064-.168.407.407 0 00-.07-.17.663.663 0 01-.09-.197.478.478 0 00-.085-.173.35.35 0 01-.071-.145.518.518 0 00-.086-.174.26.26 0 01-.06-.103.483.483 0 00-.058-.133c-.125-.22-.178-.669-.085-.72.027-.014.047-.063.058-.14.013-.1.027-.123.094-.163.068-.04.081-.064.092-.159a.288.288 0 01.075-.177.381.381 0 00.088-.218.34.34 0 01.081-.203c.043-.04.064-.1.094-.273a.575.575 0 01.09-.277 5.757 5.757 0 00.009-2.367.522.522 0 01-.062-.182.718.718 0 00-.084-.223.919.919 0 01-.083-.188.382.382 0 00-.066-.125.984.984 0 01-.099-.176.369.369 0 00-.059-.106 1.578 1.578 0 01-.113-.143 1.318 1.318 0 00-.13-.157 1.506 1.506 0 01-.127-.14 1.097 1.097 0 00-.228-.23 2.432 2.432 0 00-.386-.293.157.157 0 01-.065-.05.428.428 0 00-.128-.084.59.59 0 01-.143-.089.627.627 0 00-.17-.095.445.445 0 01-.14-.075.608.608 0 00-.19-.082.485.485 0 01-.17-.073.657.657 0 00-.21-.073.88.88 0 01-.214-.069.805.805 0 00-.498-.072c-.056.037-.002.071.162.102a.513.513 0 01.19.067.593.593 0 00.166.08.58.58 0 01.153.07.575.575 0 00.137.072.67.67 0 01.154.084 1.785 1.785 0 00.169.117 1.025 1.025 0 01.164.123.149.149 0 00.069.048c.186.008.75.862.75 1.135a.439.439 0 00.06.198.531.531 0 01.06.33 2.222 2.222 0 00.046.426 1.381 1.381 0 01-.012.621 2.381 2.381 0 00-.036.288.953.953 0 01-.096.447 1.105 1.105 0 00-.093.361.286.286 0 01-.077.187.826.826 0 00-.063.185.75.75 0 01-.085.216.52.52 0 00-.074.158c-.094.313-.26.284-.597-.106-.05-.057-.218-.236-.375-.397s-.302-.312-.323-.336c-.143-.16-.686-.66-1.077-.99l-.255-.217a2.997 2.997 0 00-.156-.123 2.951 2.951 0 01-.26-.208.587.587 0 00-.113-.085 3.033 3.033 0 01-.334-.255 1.089 1.089 0 00-.122-.09 2.413 2.413 0 01-.376-.27.147.147 0 00-.077-.05.154.154 0 01-.078-.046.598.598 0 00-.125-.087 1.056 1.056 0 01-.15-.098 2.595 2.595 0 00-.374-.244 2.47 2.47 0 01-.326-.208 1.658 1.658 0 00-.164-.096 1.301 1.301 0 01-.164-.101.217.217 0 00-.088-.047.45.45 0 01-.131-.074 1.47 1.47 0 00-.176-.11c-.04-.019-.149-.076-.24-.127s-.236-.125-.32-.166a1.552 1.552 0 01-.19-.104.543.543 0 00-.12-.06.509.509 0 01-.131-.075.555.555 0 00-.15-.079.748.748 0 01-.189-.107.349.349 0 00-.116-.072.298.298 0 01-.108-.081.426.426 0 00-.233-.12 2.66 2.66 0 01-.641-.204.463.463 0 00-.143-.058.76.76 0 01-.178-.07 1.083 1.083 0 00-.214-.085.96.96 0 01-.19-.072 1.562 1.562 0 00-.25-.094 1.016 1.016 0 01-.19-.069.65.65 0 00-.265-.099 1.233 1.233 0 01-.24-.08 1.074 1.074 0 00-.231-.074.787.787 0 01-.194-.06 1.422 1.422 0 00-.273-.083 3.335 3.335 0 01-.352-.096 2.271 2.271 0 00-.318-.082 1.255 1.255 0 01-.25-.067 1.502 1.502 0 00-.3-.072c-.111-.016-.314-.055-.452-.087s-.404-.08-.594-.106-.44-.063-.558-.083a18.94 18.94 0 00-2.638-.059 3.746 3.746 0 00-.831.108 5.818 5.818 0 01-.369.066 1.61 1.61 0 00-.337.084.601.601 0 01-.147.05 1.143 1.143 0 00-.372.117.34.34 0 01-.131.05.997.997 0 00-.236.095 1.114 1.114 0 01-.226.095.172.172 0 00-.09.047.587.587 0 01-.152.087.757.757 0 00-.17.096.258.258 0 01-.092.055 1.92 1.92 0 00-.343.256.714.714 0 01-.127.088.186.186 0 00-.084.084c-.008.026-.027.048-.043.048a.595.595 0 00-.147.134 6.788 6.788 0 01-.184.199.27.27 0 00-.065.086.51.51 0 01-.078.119 2.121 2.121 0 00-.272.458.526.526 0 01-.08.145.585.585 0 00-.07.184 1.069 1.069 0 01-.086.234 4.885 4.885 0 00-.118 1.571c.022.167.049.418.06.56.015.206.028.265.067.308a.624.624 0 01.112.356.328.328 0 00.369.327c.223 0 .227-.008.193-.41a5.017 5.017 0 01.06-1.615c.04-.042.054-.097.064-.241.01-.144.024-.2.062-.24a.192.192 0 00.05-.11c0-.262.432-.808.964-1.215a5.03 5.03 0 01.78-.423.13.13 0 00.06-.034 7.18 7.18 0 011.112-.322 11.574 11.574 0 013.38-.012c.177.03.428.073.559.094s.344.065.475.095.318.072.416.092a6.207 6.207 0 01.723.195 1.398 1.398 0 00.214.06c.066.012.28.073.475.135.364.116.398.136.564.335a.265.265 0 00.178.063 3.69 3.69 0 011.11.307c.125.06.236.11.244.11a2.292 2.292 0 01.214.094 1.373 1.373 0 00.23.095.36.36 0 01.121.06.54.54 0 00.101.059c.013 0 .83.407.923.46l.238.137c.105.06.254.145.332.187a1.635 1.635 0 01.19.115 2.047 2.047 0 00.233.135 1.728 1.728 0 01.239.142.903.903 0 00.1.076l.308.187c.144.087.314.2.38.248a1.83 1.83 0 00.177.12.662.662 0 01.118.085.26.26 0 00.077.057.112.112 0 01.049.032.526.526 0 00.103.07.683.683 0 01.118.08c.026.024.128.097.225.162a1.645 1.645 0 01.213.162 1.572 1.572 0 00.188.152c.083.06.202.152.264.206a5.289 5.289 0 00.474.395 14.866 14.866 0 011.783 1.794.669.669 0 00.064.107.691.691 0 01-.01.475.28.28 0 00-.066.1.247.247 0 01-.073.097.143.143 0 00-.057.076.138.138 0 01-.053.076.56.56 0 00-.094.103 1.594 1.594 0 01-.101.13l-.163.19c-.217.255-1.44 1.454-1.704 1.667a2.827 2.827 0 00-.114.098.107.107 0 01-.057.03.354.354 0 00-.112.089 1.741 1.741 0 01-.163.148l-.182.143c-.264.213-.33.261-.36.261-.018 0-.05.027-.071.06s-.052.059-.068.059a.31.31 0 00-.11.07 1.892 1.892 0 01-.386.286.147.147 0 00-.078.05.556.556 0 01-.128.094.935.935 0 00-.152.104.262.262 0 01-.095.061.273.273 0 00-.098.062.952.952 0 01-.156.105.462.462 0 00-.114.08.202.202 0 01-.097.05.391.391 0 00-.141.081.932.932 0 01-.163.112.694.694 0 00-.123.077.591.591 0 01-.131.074.437.437 0 00-.128.08.214.214 0 01-.103.052.417.417 0 00-.147.08.75.75 0 01-.188.107.283.283 0 00-.113.06.427.427 0 01-.201.097.217.217 0 00-.097.058.64.64 0 01-.173.1.612.612 0 00-.156.084.282.282 0 01-.11.055.666.666 0 00-.17.083.75.75 0 01-.206.092.401.401 0 00-.154.07.473.473 0 01-.158.078.573.573 0 00-.171.083.4.4 0 01-.151.068 1.137 1.137 0 00-.242.098.723.723 0 01-.209.082.243.243 0 00-.124.057 1.18 1.18 0 01-.678.136c-.267-.006-.272-.004-.232.1.022.06-.157.182-.264.182a.355.355 0 00-.114.056.779.779 0 01-.24.085 1.376 1.376 0 00-.272.084 1.372 1.372 0 01-.274.084 1.35 1.35 0 00-.25.07 1.321 1.321 0 01-.422.096.625.625 0 00-.201.059 1.232 1.232 0 01-.38.085 2.495 2.495 0 00-.397.074 3.16 3.16 0 01-.512.081 6.301 6.301 0 00-.487.06 9.08 9.08 0 01-2.27.021 4.527 4.527 0 00-.444-.07 2.204 2.204 0 01-.492-.095.535.535 0 00-.157-.049.772.772 0 01-.328-.097.561.561 0 00-.182-.069.559.559 0 01-.19-.074.802.802 0 00-.183-.092.45.45 0 01-.149-.076.312.312 0 00-.105-.066.915.915 0 01-.178-.11c-.054-.044-.144-.114-.199-.157s-.192-.17-.304-.28c-.281-.278-.296-.295-.296-.328a.288.288 0 00-.075-.106.711.711 0 01-.117-.177.582.582 0 00-.092-.148.311.311 0 01-.064-.146.318.318 0 00-.042-.125c-.072-.077-.087-.122-.12-.384a.83.83 0 00-.08-.328 1.893 1.893 0 01-.005-.888c.112-.191.095-.53-.027-.53a.357.357 0 01-.155-.05c-.16-.1-.27-.001-.314.283a.69.69 0 01-.074.237c-.038.051-.053.131-.075.397-.023.268-.037.346-.077.404a3.013 3.013 0 00.002 1.18.795.795 0 01.127.428c0 .083.009.114.033.114.06 0 .285.259.376.433a1.467 1.467 0 00.192.278 1.05 1.05 0 01.135.168c.037.072.025.06.39.425.163.161.316.306.341.32.047.028.085.052.304.197a.71.71 0 00.142.08.208.208 0 01.075.052.785.785 0 00.223.106 1.147 1.147 0 01.235.103.257.257 0 00.107.048.834.834 0 01.186.069 1.227 1.227 0 00.255.086.927.927 0 01.219.074.555.555 0 00.203.056 2.073 2.073 0 01.67.141 17.623 17.623 0 003.29-.025.388.388 0 01.192-.044 2.076 2.076 0 00.305-.036 2.004 2.004 0 01.276-.036.62.62 0 00.203-.05 1.238 1.238 0 01.376-.071 1.11 1.11 0 00.347-.065 1.237 1.237 0 01.447-.11.661.661 0 00.19-.037c.05-.03.636-.228.804-.271a1.067 1.067 0 00.166-.055 1.323 1.323 0 01.195-.063 1.862 1.862 0 00.256-.086.96.96 0 01.183-.062 2.485 2.485 0 00.432-.155 1.355 1.355 0 01.19-.07c.08-.023.177-.053.216-.066.09-.032.547-.133.745-.166.177-.03.217-.057.217-.148 0-.088.106-.197.228-.235a6.453 6.453 0 00.822-.41.418.418 0 01.143-.07.677.677 0 00.185-.093 3.299 3.299 0 01.523-.298 1.885 1.885 0 00.24-.134.941.941 0 01.158-.096c.08-.042.223-.13.319-.195s.215-.14.265-.166a1.786 1.786 0 00.227-.156 1.331 1.331 0 01.212-.143c.042-.018.076-.042.076-.052s.016-.017.035-.017a.587.587 0 00.167-.108 2.478 2.478 0 01.2-.149 2.294 2.294 0 00.323-.228.392.392 0 01.116-.076.576.576 0 00.151-.12.931.931 0 01.19-.148.883.883 0 00.185-.145 1.394 1.394 0 01.202-.167 2.648 2.648 0 00.285-.238 2.695 2.695 0 01.273-.23c.125-.082 1.617-1.561 1.69-1.677a.528.528 0 01.224-.232.464.464 0 00.116-.08c.044-.053.09-.047.172.021a.248.248 0 00.114.06.108.108 0 01.072.035.18.18 0 00.122.036c.09 0 .092.002.093.09a.196.196 0 00.07.157.194.194 0 01.072.151.264.264 0 00.046.141.385.385 0 01.062.14.197.197 0 00.037.095.407.407 0 01.02.168c0 .141.007.162.07.22.067.063.068.069.07.332l.003.268.074.07.075.07-.011.777c-.011.781-.034.98-.114.98-.02 0-.034.057-.06.247a.271.271 0 01-.07.167.373.373 0 00-.082.15.279.279 0 01-.074.133.516.516 0 00-.107.156c-.032.067-.068.122-.08.122s-.03.021-.038.048a3.43 3.43 0 01-.734.69.102.102 0 00-.062.07c-.01.045-.031.06-.088.066-.094.01-.14.058-.092.098.037.031.19-.032.249-.102a.21.21 0 01.1-.05.727.727 0 00.187-.098.838.838 0 01.133-.08.21.21 0 00.066-.047c.028-.025.131-.11.23-.187a5.027 5.027 0 00.754-.795 1.65 1.65 0 01.217-.266 1.221 1.221 0 00.23-.308 1.38 1.38 0 01.236-.32c.151-.159.174-.195.189-.297a.303.303 0 01.086-.186c.086-.086.09-.115.103-.755a2.734 2.734 0 00-.077-1.046z"/>
            <path d="M13.136 9.816c.016.134.03 1.033.037 2.446l.012 2.234.051.04c.04.032.099.042.244.043.292 0 .271.075.271-.969a6.249 6.249 0 01.025-.897c.037-.023.176.05.253.133a.832.832 0 00.198.139c.071.036.168.086.213.111a2.055 2.055 0 001.069-.025.69.69 0 01.155-.078 1.63 1.63 0 00.582-.524.214.214 0 01.061-.092.332.332 0 00.106-.231.544.544 0 01.06-.17 2.594 2.594 0 00.016-1.465.769.769 0 01-.076-.23.298.298 0 00-.083-.17.399.399 0 01-.084-.131c0-.1-.429-.462-.589-.497a.393.393 0 01-.132-.062 1.413 1.413 0 00-.808-.066.644.644 0 00-.202.08.339.339 0 01-.15.059.352.352 0 00-.166.082 1.553 1.553 0 00-.288.275c-.143.162-.183.136-.183-.12 0-.236-.046-.285-.264-.285-.323 0-.368.05-.328.37zm.544-.066c0 .264.113.36.217.185a.245.245 0 01.088-.095.203.203 0 00.08-.084.194.194 0 01.1-.085.112.112 0 00.074-.06.107.107 0 01.078-.058.714.714 0 00.302-.092c.06-.076.12-.087.447-.08.309.006.332.01.372.06a.323.323 0 00.17.08.369.369 0 01.164.073.604.604 0 00.124.097 1.22 1.22 0 01.327.366.208.208 0 00.068.091.24.24 0 01.081.19.644.644 0 00.05.194c.114.207.113.203.105.733-.007.486-.01.51-.062.58a.608.608 0 00-.08.21 1.48 1.48 0 01-.56.767c-.03.012-.054.037-.054.056 0 .035-.009.04-.188.086a.326.326 0 00-.146.078c-.04.049-.065.052-.454.06l-.412.007-.094-.064a.998.998 0 00-.19-.098.766.766 0 01-.215-.148c-.357-.347-.377-.306-.392.83l-.012.89-.174.007c-.268.011-.242.24-.242-2.106 0-1.259-.01-2.209-.026-2.447-.031-.457-.04-.44.206-.452.234-.011.248.001.248.23zM13.751 8.02c.058 0 .08-.036.052-.085-.014-.027-.027-.03-.038-.012a.114.114 0 01-.083.026c-.072 0-.135.054-.11.094a.087.087 0 00.12.001.077.077 0 01.06-.023zM25.388 4.355c.05-.005.015-.01-.076-.01s-.132.004-.09.01a.895.895 0 00.166 0zM20.666 19.07c-.049.016-.04.02.048.021.077.002.097-.004.071-.02-.04-.027-.038-.027-.119 0zM27.368 19.07c-.02.011-.028.029-.019.037.024.025.235-.013.22-.038-.018-.029-.156-.029-.201 0zM14.226 7.617a.202.202 0 01-.09.023c-.05 0-.097.058-.07.085a.321.321 0 00.225-.054c.019-.048-.021-.08-.065-.054zM15.252 7.081c.063-.02.056-.083-.01-.08a.307.307 0 00-.083.014c-.074.03.012.092.093.066zM15.57 6.858c-.02-.033-.035-.031-.108.01l-.06.032.068.017c.071.018.127-.015.1-.059zM15.044 7.183a.272.272 0 00-.197.004c-.026.017-.024.025.012.044.05.025.215-.018.185-.048zM14.487 7.473c-.046-.03-.051-.029-.113.015-.062.043-.049.081.03.081.074 0 .13-.066.083-.096zM15.827 6.693a.634.634 0 00-.11.013c-.08.022-.04.058.058.05.113-.008.161-.068.052-.063zM14.01 7.79c-.034-.039-.042-.038-.122.011-.086.054-.082.077.013.077s.147-.041.108-.087zM14.633 7.335c-.1.03-.067.075.048.064.053-.006.083-.022.088-.05.009-.046-.016-.048-.136-.014z"/>
        </g>
        <path d="M7.948 9.177a.21.21 0 00-.11.069c-.025.032-.057.058-.071.058-.048 0-.075.092-.075.259a.554.554 0 00.113.38.317.317 0 01.053.12.182.182 0 00.06.096.2.2 0 01.06.08.68.68 0 00.094.149.875.875 0 01.095.142.517.517 0 00.083.108.367.367 0 01.084.121.092.092 0 00.045.059.437.437 0 01.1.139.355.355 0 00.086.122.309.309 0 01.082.105c.028.05.065.092.081.092s.041.035.055.077a.52.52 0 00.085.147.255.255 0 01.06.098.346.346 0 00.08.116c.078.085.085.251.011.251-.01 0-.04.042-.067.094a.389.389 0 01-.078.113.364.364 0 00-.075.09.897.897 0 01-.078.107 2.265 2.265 0 00-.268.374c0 .016-.027.047-.06.068s-.06.051-.06.066a.392.392 0 01-.083.12.388.388 0 00-.083.121.148.148 0 01-.05.073.56.56 0 00-.095.133.403.403 0 01-.088.119.425.425 0 00-.088.108c-.025.043-.054.078-.065.078a.343.343 0 00-.078.124 1.16 1.16 0 01-.111.191c-.046.057-.055.102-.062.316-.016.411.036.465.464.481l.266.01.07-.068a.808.808 0 01.114-.094.224.224 0 00.07-.08.288.288 0 01.078-.087.113.113 0 00.05-.065.286.286 0 01.07-.105.464.464 0 00.087-.13.492.492 0 01.084-.132.336.336 0 00.068-.1.557.557 0 01.09-.129 1.281 1.281 0 00.232-.333c.02-.047.046-.085.06-.085a.36.36 0 00.1-.115 1.76 1.76 0 01.28-.36c.012 0 .04-.035.06-.077a.933.933 0 01.048-.087 1.002 1.002 0 01.247.269.357.357 0 00.072.122.529.529 0 01.085.142.156.156 0 00.07.084.103.103 0 01.058.07.834.834 0 00.167.261.159.159 0 01.033.064.205.205 0 00.075.09c.032.02.058.052.058.07 0 .031.06.112.25.339a.555.555 0 01.083.116.345.345 0 00.07.091c.038.04.11.12.16.176a.627.627 0 00.792.029.668.668 0 00.024-.7 1.624 1.624 0 01-.203-.298 1.98 1.98 0 00-.13-.18 1.543 1.543 0 01-.238-.34.242.242 0 00-.058-.092 1.94 1.94 0 01-.259-.353.561.561 0 00-.096-.135.21.21 0 01-.062-.097.055.055 0 00-.033-.047 1.6 1.6 0 01-.303-.467.334.334 0 01.089-.333 3.415 3.415 0 00.276-.368c.075-.112.155-.218.309-.415a1.343 1.343 0 00.147-.227.207.207 0 01.07-.097.221.221 0 00.074-.095c.021-.045.048-.081.059-.081a1.55 1.55 0 00.262-.402.764.764 0 01.07-.18c.078-.16.076-.242-.008-.35a3.626 3.626 0 01-.09-.122.736.736 0 00-.521-.075.553.553 0 00-.374.32.671.671 0 01-.098.146 1.591 1.591 0 00-.267.36c-.022.049-.049.089-.06.089s-.04.035-.065.077a.423.423 0 01-.086.107 1.712 1.712 0 00-.24.348 1.437 1.437 0 01-.393.418c-.015 0-.041-.024-.057-.053a1.11 1.11 0 00-.107-.147.392.392 0 01-.08-.12.197.197 0 00-.06-.085.568.568 0 01-.104-.152.5.5 0 00-.094-.141.147.147 0 01-.05-.077.336.336 0 00-.084-.12.372.372 0 01-.083-.114.214.214 0 00-.054-.084.722.722 0 01-.098-.159.43.43 0 00-.101-.142c-.03-.024-.056-.054-.056-.069a1.104 1.104 0 00-.208-.278.554.554 0 01-.078-.07 1.154 1.154 0 00-.575-.05"
              fill="#f99c1c"/>
        <path d="M1.975.025c0 .028-.034.036-.154.036-.273 0-.337.02-.337.099 0 .065-.006.069-.105.069-.172 0-.215.02-.215.098 0 .063-.007.07-.086.07C1 .396.993.401.993.466c0 .061-.01.07-.08.078C.843.55.832.562.825.628.82.695.808.706.74.712.671.72.66.73.653.798.647.866.637.875.573.875.509.875.503.883.503.96c0 .077-.007.084-.071.084-.08 0-.1.042-.101.21 0 .096-.004.102-.07.102-.082 0-.102.063-.102.33 0 .116-.008.149-.037.149-.033 0-.037 1.142-.037 10.134s.004 10.134.037 10.134c.029 0 .037.033.037.15 0 .266.02.33.101.33.067 0 .07.005.07.101.001.168.021.21.102.21.064 0 .07.007.07.084 0 .076.007.083.072.083.064 0 .074.01.08.078.007.068.018.079.086.085.069.007.08.018.086.084.007.067.018.078.088.084.07.007.08.016.08.078s.008.07.072.07c.062 0 .077.013.094.078.02.077.024.078.173.085.149.007.152.009.152.076 0 .087.03.097.284.097.167 0 .207.007.207.036 0 .032 1.907.036 17.017.036s17.018-.004 17.018-.036c0-.029.037-.036.19-.036.26 0 .3-.014.3-.098 0-.066.004-.068.154-.075.15-.007.154-.009.177-.085.02-.063.036-.077.092-.077.06 0 .069-.01.069-.072 0-.067.007-.072.086-.072.082 0 .086-.004.086-.084s.004-.084.086-.084.086-.004.086-.084c0-.077.005-.084.073-.084.066 0 .074-.008.074-.071 0-.055.011-.072.047-.072.109 0 .125-.023.125-.181v-.152l.08-.007c.08-.008.08-.008.087-.158.005-.111.016-.15.043-.15.03 0 .035-1.31.035-10.301s-.004-10.302-.035-10.302c-.027 0-.038-.038-.043-.15-.008-.15-.008-.15-.087-.157l-.08-.008v-.306l-.086-.015c-.075-.014-.086-.025-.086-.085 0-.06-.01-.07-.07-.07-.066 0-.07-.006-.091-.15l-.023-.149-.154-.022c-.146-.021-.153-.025-.153-.09 0-.06-.01-.068-.074-.068-.056 0-.074-.01-.074-.046 0-.106-.023-.121-.186-.121-.157 0-.157 0-.157-.07 0-.082-.033-.098-.199-.098-.09 0-.12-.009-.12-.036 0-.032-1.917-.036-17.104-.036S1.975-.007 1.975.025M14.19 2.877c.17.019.49.05.713.07a4.478 4.478 0 01.778.104 3.617 3.617 0 00.362.061 3.529 3.529 0 01.44.085 1.163 1.163 0 00.203.047 3.593 3.593 0 01.554.14.71.71 0 00.17.041 1.307 1.307 0 01.248.063 2.892 2.892 0 00.32.093 2.67 2.67 0 01.309.09c.124.049.502.177.677.228a1.76 1.76 0 01.214.08 1.776 1.776 0 00.219.081 1.369 1.369 0 01.2.076 2.35 2.35 0 00.245.098 1.482 1.482 0 01.216.088 1.049 1.049 0 00.18.073.651.651 0 01.169.076 1.784 1.784 0 001.074.018 2.016 2.016 0 01.563-.104.957.957 0 00.242-.033 13.288 13.288 0 014.082-.012 1.683 1.683 0 00.23.045 1.634 1.634 0 01.274.061c.056.021.177.057.268.08a2.583 2.583 0 01.315.105 1.047 1.047 0 00.174.063 5.765 5.765 0 01.826.404 3.439 3.439 0 00.396.26 4.377 4.377 0 011.084 1.273.436.436 0 00.068.118.443.443 0 01.06.137 2.231 2.231 0 00.083.22 1.538 1.538 0 01.119.384c.012.063.044.216.072.34a4.342 4.342 0 01-.002 1.379c-.028.124-.06.303-.072.398a1.85 1.85 0 01-.094.361 1.93 1.93 0 00-.091.305.662.662 0 01-.067.198.857.857 0 00-.077.197.995.995 0 01-.083.214.685.685 0 00-.07.172.738.738 0 01-.085.193.612.612 0 00-.072.144.498.498 0 01-.05.122.692.692 0 00.097.595 1.95 1.95 0 01.119.216c.04.084.082.168.094.188a3.503 3.503 0 01.206.462.643.643 0 00.059.143 4.45 4.45 0 01.26.725c.025.098.06.237.08.308a7.665 7.665 0 01.134.928 3.687 3.687 0 01-.025.832 2.22 2.22 0 00-.038.273 1.138 1.138 0 01-.069.31 1.753 1.753 0 00-.083.25 1.101 1.101 0 01-.087.231.545.545 0 00-.056.126 2.702 2.702 0 01-.433.656.867.867 0 00-.113.152c0 .01-.022.025-.05.034a.134.134 0 00-.07.073.157.157 0 01-.08.08.13.13 0 00-.072.066.208.208 0 01-.083.085 1.765 1.765 0 00-.218.183c-.12.115-.163.142-.227.142a.104.104 0 00-.104.048.336.336 0 01-.128.096.303.303 0 00-.129.107c-.02.046-.044.058-.111.058a.237.237 0 00-.204.14c-.006.016-.069.035-.14.043a.244.244 0 00-.151.049.225.225 0 01-.237.125c-.11 0-.131.007-.158.057a.412.412 0 01-.334.109.272.272 0 00-.174.058c-.061.047-.14.067-.402.107a2.661 2.661 0 00-.415.086 16.887 16.887 0 01-2.894.037 4.653 4.653 0 01-.941-.146 1.184 1.184 0 00-.246-.024 1.172 1.172 0 01-.476-.104.85.85 0 00-.237-.037 2.882 2.882 0 01-.357-.038.904.904 0 00-.548.039c-.09.04-.109.04-.247.008-.172-.04-.22-.031-.273.05a.12.12 0 01-.098.059c-.11 0-.272.052-.272.086 0 .049-.116.086-.216.07-.1-.015-.211.054-.211.133 0 .04-.01.045-.071.032a.515.515 0 00-.36.087c-.017.033-.05.043-.134.043a.567.567 0 00-.357.124c-.022.03-.063.043-.137.043a.532.532 0 00-.337.12c-.022.03-.078.043-.237.052-.2.01-.352.058-.335.104a.573.573 0 01-.218.035c-.24.016-.35.046-.399.11-.023.032-.087.044-.285.055a1.633 1.633 0 00-.322.043.382.382 0 01-.117.027.17.17 0 00-.096.042c-.037.033-.092.042-.287.043a1.513 1.513 0 00-.65.114 5.058 5.058 0 01-.907.044 23.875 23.875 0 01-2.528-.044c.008-.043-.198-.086-.489-.102-.216-.012-.276-.023-.3-.056a.46.46 0 00-.335-.112c-.11 0-.135-.008-.145-.044-.013-.052-.148-.098-.284-.099-.102 0-.136-.016-.157-.074-.01-.026-.065-.048-.165-.065a.352.352 0 01-.186-.071.429.429 0 00-.148-.087c-.062-.023-.113-.05-.113-.06 0-.045-.08-.094-.152-.094a.207.207 0 01-.157-.083.302.302 0 00-.111-.083c-.017 0-.054-.033-.083-.072a.141.141 0 00-.131-.071c-.054 0-.08-.011-.08-.035 0-.02-.031-.052-.07-.072a.294.294 0 01-.108-.107c-.02-.04-.052-.071-.07-.071s-.052-.038-.074-.083-.053-.083-.07-.083-.037-.038-.045-.085a.12.12 0 00-.075-.106.142.142 0 01-.075-.064 1.364 1.364 0 00-.106-.171.713.713 0 01-.09-.153.305.305 0 00-.056-.097.662.662 0 01-.086-.168 1.583 1.583 0 00-.087-.206.514.514 0 01-.056-.158 2.35 2.35 0 00-.088-.317l-.087-.27v-.677a3.322 3.322 0 01.114-1.202 1.42 1.42 0 00.059-.247 1.39 1.39 0 01.063-.258 1.55 1.55 0 00.138-.72c.002-.3.007-.331.056-.393a1.169 1.169 0 00.112-.192.343.343 0 01.078-.124c.01 0 .04-.035.065-.078a.425.425 0 01.088-.108.453.453 0 00.094-.13.446.446 0 01.095-.131.1.1 0 00.044-.061.309.309 0 01.074-.112.88.88 0 00.123-.194c.027-.062.064-.113.081-.113s.045-.03.061-.065a.596.596 0 01.1-.139 1.07 1.07 0 00.224-.295.594.594 0 01.104-.148.345.345 0 00-.03-.458.523.523 0 01-.095-.135.252.252 0 00-.071-.09.218.218 0 01-.072-.118.07.07 0 00-.035-.064.323.323 0 01-.089-.122.445.445 0 00-.11-.145.292.292 0 01-.09-.113.175.175 0 00-.08-.092.068.068 0 01-.047-.058.345.345 0 00-.109-.208.31.31 0 01-.082-.117c-.028-.057-.06-.104-.072-.104s-.038-.04-.059-.09a5.249 5.249 0 00-.162-.336c-.038-.072-.043-.12-.032-.311a1.792 1.792 0 00-.141-.772 1.785 1.785 0 01-.083-.357 1.365 1.365 0 00-.047-.254 4.742 4.742 0 01-.013-1.795 1.427 1.427 0 00.052-.212 2.597 2.597 0 01.269-.697 2.128 2.128 0 01.337-.547c.013 0 .023-.013.023-.03a.528.528 0 01.11-.148 5.89 5.89 0 01.487-.487.307.307 0 00.085-.065 5.14 5.14 0 011.575-.844c.085-.026.219-.072.297-.1a2.179 2.179 0 01.333-.084 1.402 1.402 0 00.231-.052 2.64 2.64 0 01.625-.105c.183-.019.45-.049.594-.066a11.869 11.869 0 011.758-.002m8.638 1.627c-.06.01-.193.04-.297.069a3.036 3.036 0 01-.452.072 1.635 1.635 0 00-.587.14l-.088.036.058.059a.23.23 0 01.059.077c0 .011.045.041.1.068s.16.081.232.122.206.112.297.158a1.952 1.952 0 01.202.113.554.554 0 00.12.06.806.806 0 01.154.083 1.475 1.475 0 00.184.105.536.536 0 01.125.074 2.518 2.518 0 00.365.216.85.85 0 01.119.076 1.09 1.09 0 00.145.09 1.364 1.364 0 01.174.11.25.25 0 00.096.054.208.208 0 01.087.055 1.137 1.137 0 00.158.112c.113.067.572.376.626.421a1.43 1.43 0 00.222.172 3.967 3.967 0 01.408.293c.026.024.117.097.202.162l.194.152c.022.018.069.05.104.074a1.079 1.079 0 01.127.102c.035.034.109.098.164.144s.136.115.179.155.146.13.229.202a15.464 15.464 0 011.212 1.187c.15.162.316.334.368.384l.094.09.072-.045a.292.292 0 00.11-.147c.02-.057.058-.151.085-.21a4.661 4.661 0 00.247-.772 2.603 2.603 0 01.087-.321 2.398 2.398 0 00.042-.76v-.654l-.062-.13a1.149 1.149 0 01-.08-.226 1.013 1.013 0 00-.097-.24.71.71 0 01-.081-.187.356.356 0 00-.084-.138.377.377 0 01-.083-.132.298.298 0 00-.071-.115.295.295 0 01-.071-.116c0-.02-.012-.035-.025-.035a.874.874 0 01-.175-.154.796.796 0 00-.178-.155.206.206 0 01-.088-.06.72.72 0 00-.152-.106.417.417 0 01-.123-.091.207.207 0 00-.115-.06.323.323 0 01-.15-.087.185.185 0 00-.162-.071.273.273 0 01-.172-.059.77.77 0 00-.23-.096 1.89 1.89 0 01-.278-.096.639.639 0 00-.23-.058 2.199 2.199 0 01-.397-.085l-.294-.086-1.259-.006a30.337 30.337 0 00-1.366.011m-10.181.142c-.148.01-.24.027-.246.044-.035.105-.244.137-.716.111-.243-.013-.31-.01-.331.015a3.517 3.517 0 00-.073.092c-.043.056-.057.06-.283.06a1.4 1.4 0 00-.247.011 2.015 2.015 0 00-.05.077c-.036.057-.056.066-.158.066a.195.195 0 00-.194.083.189.189 0 01-.156.083.222.222 0 00-.166.083.287.287 0 01-.14.083.152.152 0 00-.099.058.453.453 0 01-.138.1.27.27 0 00-.117.097.182.182 0 01-.086.079.193.193 0 00-.089.084c-.014.032-.04.058-.058.058a1.084 1.084 0 00-.278.3.6.6 0 01-.092.113.148.148 0 00-.05.074.356.356 0 01-.07.117.675.675 0 00-.099.175.683.683 0 01-.087.167.437.437 0 00-.07.178 1.715 1.715 0 01-.075.278 4.707 4.707 0 00-.033 1.39c.017.065.044.177.06.25a.841.841 0 00.082.216.355.355 0 01.054.124.115.115 0 00.054.074.286.286 0 01.086.123.47.47 0 00.095.149.516.516 0 01.097.145.573.573 0 00.088.142.214.214 0 01.055.084.372.372 0 00.083.113.338.338 0 01.083.12.18.18 0 00.058.086.423.423 0 01.087.128.531.531 0 00.086.137.869.869 0 01.097.134c.14.25.246.28.402.111a.463.463 0 00.102-.139c0-.017.027-.05.06-.075a.143.143 0 00.059-.08.254.254 0 01.068-.106l.145-.155a.95.95 0 00.126-.174.286.286 0 01.079-.105.108.108 0 00.048-.063 1.462 1.462 0 01.246-.321.682.682 0 00.1-.146.553.553 0 01.373-.32.736.736 0 01.52.074c.023.032.063.088.09.123.085.107.086.19.009.348a.764.764 0 00-.07.18 1.55 1.55 0 01-.262.403c-.012 0-.038.036-.06.081a.221.221 0 01-.073.095.207.207 0 00-.07.097 1.343 1.343 0 01-.147.227 7.172 7.172 0 00-.31.415 3.415 3.415 0 01-.275.368.334.334 0 00-.089.333 1.6 1.6 0 00.302.467.055.055 0 01.034.047.21.21 0 00.062.097.561.561 0 01.096.135 1.94 1.94 0 00.258.353.242.242 0 01.059.093 1.543 1.543 0 00.238.339 1.98 1.98 0 01.13.18 1.624 1.624 0 00.203.297.668.668 0 01-.025.7.627.627 0 01-.79-.028 8.752 8.752 0 00-.161-.176.334.334 0 01-.07-.092c0-.017-.037-.062-.24-.292a.32.32 0 01-.07-.102c0-.013-.023-.033-.053-.044a.172.172 0 01-.082-.116c-.028-.091-.065-.141-.236-.322a.407.407 0 01-.09-.155.207.207 0 00-.074-.113.27.27 0 01-.085-.116.227.227 0 00-.084-.109c-.03-.016-.056-.044-.056-.06 0-.103-.165-.118-.21-.019a.163.163 0 01-.07.076.9.9 0 00-.25.284c-.035.056-.075.101-.087.101s-.04.039-.059.085a1.281 1.281 0 01-.233.333.557.557 0 00-.089.13.336.336 0 01-.068.1.492.492 0 00-.085.131.467.467 0 01-.087.13.375.375 0 00-.084.167.135.135 0 01-.077.119.254.254 0 00-.098.106.353.353 0 01-.075.106c-.114.089-.15.344-.15 1.065v.677l.092.273a3.089 3.089 0 00.275.618c.008.007.068.092.133.19a3.196 3.196 0 00.759.749 1.256 1.256 0 01.119.084 4.804 4.804 0 00.808.391 1.895 1.895 0 01.214.073 2.715 2.715 0 00.38.104c.13.026.292.064.358.083a13.95 13.95 0 003.123.015 4.933 4.933 0 01.654-.12c.156-.024.349-.061.427-.083s.23-.055.338-.073a3.324 3.324 0 00.377-.094 1.375 1.375 0 01.226-.06 1.262 1.262 0 00.217-.057c.095-.031.242-.075.327-.097a1.965 1.965 0 00.274-.096 3.45 3.45 0 01.18-.078.153.153 0 00.085-.106l.026-.083-.087-.014a.45.45 0 01-.164-.071.459.459 0 00-.168-.072.474.474 0 01-.18-.086.288.288 0 00-.166-.071.191.191 0 01-.145-.072.293.293 0 00-.164-.087.312.312 0 01-.164-.083.224.224 0 00-.111-.067.408.408 0 01-.235-.112.2.2 0 00-.114-.055.4.4 0 01-.166-.083.405.405 0 00-.16-.083.22.22 0 01-.12-.07.33.33 0 00-.135-.085.38.38 0 01-.134-.07.917.917 0 00-.177-.103c-.062-.027-.113-.06-.113-.073s-.052-.04-.116-.061a.46.46 0 01-.16-.087.417.417 0 00-.125-.083.522.522 0 01-.14-.093.196.196 0 00-.1-.059.311.311 0 01-.13-.083.31.31 0 00-.13-.083.188.188 0 01-.099-.062.632.632 0 00-.145-.107.229.229 0 01-.103-.092c-.01-.034-.035-.048-.085-.048a.162.162 0 01-.123-.062.56.56 0 00-.141-.107.313.313 0 01-.113-.09.189.189 0 00-.092-.069.42.42 0 01-.13-.086.206.206 0 00-.102-.061.299.299 0 01-.126-.083 2.938 2.938 0 00-.155-.139c-.186-.15.084-.293.39-.206a.958.958 0 01.243.16c.087.075.21.172.273.214s.218.152.346.244.264.182.301.201a.216.216 0 01.076.056 1.383 1.383 0 00.21.146c.112.069.224.143.25.165a2.465 2.465 0 00.226.145c.098.057.21.128.25.157a5.023 5.023 0 00.475.282c.078.042.185.1.237.131.288.167.442.253.568.314a.988.988 0 01.174.103.113.113 0 00.063.034 3.696 3.696 0 01.56.276.338.338 0 00.116.057 1.102 1.102 0 01.203.08c.459.218.455.217.714.217a.671.671 0 00.377-.065.849.849 0 01.166-.066 1.03 1.03 0 00.191-.083.889.889 0 01.202-.083.318.318 0 00.112-.04 7.08 7.08 0 01.63-.294.562.562 0 00.118-.058.609.609 0 01.119-.06c.076-.03.62-.31.76-.39.033-.02.119-.066.19-.104.273-.143.396-.212.51-.285a.687.687 0 01.138-.076.345.345 0 00.099-.06.328.328 0 01.102-.059.236.236 0 00.086-.053.963.963 0 01.152-.1 1.45 1.45 0 00.15-.09c.032-.025.246-.167.474-.316s.448-.3.487-.332a.298.298 0 01.09-.06.612.612 0 00.134-.094.528.528 0 01.138-.095.038.038 0 00.035-.02 2.652 2.652 0 01.327-.254.53.53 0 00.085-.068c.024-.024.124-.105.222-.178s.206-.16.24-.193.11-.097.166-.143.13-.11.163-.142.105-.096.158-.14c.191-.16.498-.449.797-.752.447-.452.542-.552.711-.754a1.364 1.364 0 01.185-.195.048.048 0 00.03-.038.696.696 0 01.117-.16.407.407 0 00.08-.503 9.007 9.007 0 01-.124-.144c-.13-.155-1.367-1.391-1.433-1.433-.036-.022-.065-.056-.065-.075s-.032-.051-.07-.071a.26.26 0 01-.096-.084.144.144 0 00-.081-.06.158.158 0 01-.086-.071.206.206 0 00-.1-.081.304.304 0 01-.118-.084c-.025-.033-.06-.06-.075-.06a1.01 1.01 0 01-.198-.164.968.968 0 00-.233-.179.132.132 0 01-.084-.074.081.081 0 00-.07-.059.17.17 0 01-.1-.06.736.736 0 00-.152-.118.337.337 0 01-.113-.094.204.204 0 00-.096-.07.25.25 0 01-.11-.083.099.099 0 00-.081-.05.253.253 0 01-.136-.083.275.275 0 00-.123-.083.288.288 0 01-.125-.083.284.284 0 00-.127-.084.166.166 0 01-.095-.067.326.326 0 00-.142-.095.18.18 0 01-.117-.087.09.09 0 00-.096-.06c-.067 0-.194-.091-.194-.14 0-.014-.042-.032-.093-.04a.29.29 0 01-.147-.072.354.354 0 00-.142-.08.247.247 0 01-.127-.084.12.12 0 00-.104-.059c-.084 0-.171-.06-.171-.12 0-.038-.017-.046-.098-.046a.196.196 0 01-.177-.083.197.197 0 00-.16-.083.189.189 0 01-.156-.084.19.19 0 00-.154-.083.19.19 0 01-.146-.071.188.188 0 00-.155-.071.187.187 0 01-.163-.084.187.187 0 00-.166-.083.189.189 0 01-.168-.084c-.062-.068-.092-.084-.152-.08a.18.18 0 01-.194-.097c-.012-.038-.036-.048-.119-.048-.137 0-.173-.016-.215-.098-.034-.064-.044-.068-.186-.068s-.154-.005-.225-.083l-.076-.083-.176.015c-.145.013-.183.008-.215-.024-.053-.053-.218-.05-.438.01a1.488 1.488 0 01-.229.046.223.223 0 00-.11.047.579.579 0 01-.176.077.658.658 0 00-.19.083.464.464 0 01-.154.07.713.713 0 00-.2.095.493.493 0 01-.166.08.346.346 0 00-.14.07.537.537 0 01-.164.086.574.574 0 00-.167.084.359.359 0 01-.14.069.373.373 0 00-.148.083.348.348 0 01-.163.083.146.146 0 00-.105.056.272.272 0 01-.191.11.176.176 0 00-.099.057.514.514 0 01-.16.098.558.558 0 00-.163.097.188.188 0 01-.097.057.292.292 0 00-.122.072.415.415 0 01-.15.086.189.189 0 00-.106.07c-.02.032-.048.057-.06.057a.944.944 0 00-.175.095.823.823 0 01-.18.095c-.017 0-.052.029-.079.063a.393.393 0 01-.134.098.705.705 0 00-.152.092.24.24 0 01-.1.056c-.019 0-.052.028-.074.061a.334.334 0 01-.106.095.735.735 0 00-.132.096.331.331 0 01-.13.073.156.156 0 00-.093.07c-.017.031-.045.057-.063.057a.417.417 0 00-.135.095.488.488 0 01-.127.095.252.252 0 00-.09.061c-.1.094-.207.119-.457.109-.252-.01.022-.35.564-.7a1.582 1.582 0 00.19-.137.968.968 0 01.13-.101l.179-.122a.37.37 0 01.113-.06c.016 0 .03-.01.03-.02a.35.35 0 01.118-.085.6.6 0 00.133-.088.181.181 0 01.066-.048.943.943 0 00.2-.12 2.527 2.527 0 01.22-.138c.097-.057.215-.128.26-.158a1.643 1.643 0 01.196-.103.456.456 0 00.126-.073.715.715 0 01.15-.095c.074-.039.193-.104.265-.145.366-.21 1.504-.78 1.556-.78a1.298 1.298 0 00.568-.356.374.374 0 01.1-.13c.085-.032 0-.063-.133-.048-.185.021-.249.003-.284-.083-.034-.08-.104-.098-.368-.092-.104.002-.168-.006-.174-.023a.471.471 0 00-.059-.09l-.05-.064-.244.016c-.233.016-.246.014-.287-.036-.11-.135-.124-.143-.216-.125a2.486 2.486 0 01-.322.019l-.235.001-.07-.083-.069-.083-.409.006c-.572.008-.843-.02-.897-.09a2.485 2.485 0 00-1.126-.07m2.92 4.718a.965.965 0 00.2.096.439.439 0 01.158.089.462.462 0 00.112.085.168.168 0 01.078.072.266.266 0 00.082.092.31.31 0 01.1.149.211.211 0 00.06.11c.043.016.092.116.112.227a.536.536 0 00.072.172 3.44 3.44 0 01-.005 1.55.606.606 0 00-.08.207.29.29 0 01-.091.185.22.22 0 00-.072.111 1.714 1.714 0 01-.546.516.594.594 0 00-.152.076 2.132 2.132 0 01-1.256.016.491.491 0 00-.15-.084.473.473 0 01-.168-.11c-.065-.072-.08-.078-.136-.057l-.063.024v1.619l-.06.06a.846.846 0 01-.627 0l-.05-.046-.002-1.974a129.45 129.45 0 00-.02-2.474c-.024-.685-.017-.7.34-.72.27-.013.347.035.347.219a.69.69 0 00.051.323c.012 0 .02-.017.02-.037s.032-.055.07-.077a.263.263 0 00.096-.094.174.174 0 01.085-.077.141.141 0 00.074-.06.33.33 0 01.227-.119.153.153 0 00.1-.05 1.938 1.938 0 011.095-.02m3.6-.004a.836.836 0 00.179.086.473.473 0 01.158.093l.151.145a.637.637 0 01.123.166.725.725 0 00.09.148.398.398 0 01.07.237 1.667 1.667 0 00.063.31 4.004 4.004 0 01.046 1.094c0 .526.01 1.027.021 1.113.048.366-.006.431-.346.42-.3-.009-.326-.03-.352-.285l-.016-.17-.06.076c-.032.041-.072.075-.088.075s-.052.03-.078.066a.35.35 0 01-.141.098.62.62 0 00-.157.087 1.905 1.905 0 01-1.173-.014.268.268 0 00-.1-.07.735.735 0 01-.253-.255.109.109 0 00-.06-.066c-.054-.017-.066-.046-.114-.273a1.575 1.575 0 01-.001-.654c.05-.235.063-.269.113-.285a.119.119 0 00.06-.083c.014-.065.141-.214.183-.214a.43.43 0 00.107-.083.308.308 0 01.13-.083.136.136 0 00.085-.05c.052-.063.112-.086.298-.116a1.072 1.072 0 00.255-.077 1.06 1.06 0 01.48-.065c.456-.016.44-.005.4-.28-.038-.27-.043-.287-.097-.304a.105.105 0 01-.06-.06.198.198 0 00-.088-.085.428.428 0 01-.115-.09c-.04-.047-.062-.05-.43-.05h-.388l-.117.077a.459.459 0 01-.178.078.319.319 0 00-.122.032c-.063.032-.165-.013-.165-.074a.523.523 0 00-.069-.125c-.074-.11-.073-.137.01-.23l.09-.102a.278.278 0 01.139-.06 1.133 1.133 0 00.246-.085l.142-.07h.523c.51 0 .526.002.607.057m2.12.045a.295.295 0 01.077.113.343.343 0 00.058.107.546.546 0 01.104.304.252.252 0 00.06.16.56.56 0 01.109.31.32.32 0 00.066.14.357.357 0 01.07.185.544.544 0 00.082.223.544.544 0 01.083.226.41.41 0 00.064.183c.058.064.07.1.1.29a.671.671 0 00.084.239.344.344 0 01.06.149c0 .158.047.145.093-.026a.466.466 0 01.075-.16.425.425 0 00.066-.212c.022-.17.047-.236.106-.286a.387.387 0 00.052-.188c.017-.165.034-.215.093-.274a.533.533 0 00.06-.197c.027-.164.085-.318.12-.318.011 0 .027-.05.035-.113.027-.204.039-.244.094-.31a.394.394 0 00.07-.195c.026-.196.032-.208.16-.31l.12-.094h.24c.189 0 .248.009.282.04a.237.237 0 01-.005.282.306.306 0 00-.06.144c-.023.167-.033.195-.094.268a.365.365 0 00-.075.197.295.295 0 01-.07.18.378.378 0 00-.077.178.554.554 0 01-.123.31.178.178 0 00-.046.133c0 .1-.042.24-.071.24-.027 0-.096.18-.096.252a.267.267 0 01-.085.188.544.544 0 00-.068.187.64.64 0 01-.096.234.237.237 0 00-.06.165.305.305 0 01-.096.24.327.327 0 00-.06.154.344.344 0 01-.09.226.586.586 0 00-.073.172.4.4 0 01-.098.184.15.15 0 00-.058.105.302.302 0 01-.11.215.174.174 0 00-.057.095.285.285 0 01-.07.124.293.293 0 00-.072.114.265.265 0 01-.077.11.669.669 0 00-.101.123.225.225 0 01-.09.078c-.035.017-.064.046-.064.065s-.024.046-.054.06a.824.824 0 00-.136.105.432.432 0 01-.153.094.331.331 0 00-.134.086.364.364 0 01-.52-.068c-.049-.12-.044-.387.008-.418a.6.6 0 00.105-.091.195.195 0 01.106-.066.292.292 0 00.13-.074.584.584 0 01.15-.096.178.178 0 00.09-.08.2.2 0 01.085-.086.178.178 0 00.081-.091.58.58 0 01.096-.148.327.327 0 00.074-.114.311.311 0 01.072-.11.676.676 0 00.04-.536.447.447 0 01-.122-.257.608.608 0 00-.085-.211.354.354 0 01-.071-.193.267.267 0 00-.068-.174.553.553 0 01-.097-.235.481.481 0 00-.083-.209.336.336 0 01-.07-.174.375.375 0 00-.074-.186c-.058-.07-.066-.091-.093-.254a.374.374 0 00-.073-.15.383.383 0 01-.074-.188.415.415 0 00-.084-.204.31.31 0 01-.068-.148.42.42 0 00-.093-.267c-.1-.093-.101-.439-.002-.489a.942.942 0 01.576.023m-6.653.486c-.03.006-.054.02-.054.032 0 .03-.13.094-.191.094a.207.207 0 00-.114.067.571.571 0 01-.116.095.265.265 0 00-.089.105.795.795 0 01-.096.146.234.234 0 00-.06.155 1.585 1.585 0 01-.047.272 2.197 2.197 0 000 .918 1.49 1.49 0 01.047.249.203.203 0 00.06.13l.173.182a.574.574 0 00.173.135.32.32 0 01.115.067c.117.11.787.125.787.018 0-.013.045-.044.1-.069a.706.706 0 00.197-.155 5.47 5.47 0 01.144-.161.457.457 0 00.08-.162.479.479 0 01.081-.166 3.314 3.314 0 00.013-1.162c-.042-.024-.076-.098-.116-.254-.015-.06-.04-.101-.06-.101-.018 0-.047-.024-.062-.054a.817.817 0 00-.272-.255.586.586 0 01-.236-.119 1.487 1.487 0 00-.457-.007m3.933 1.41a.465.465 0 00-.176.069.407.407 0 01-.158.064.527.527 0 00-.366.415c-.052.23-.008.584.076.615a.281.281 0 01.1.086.947.947 0 00.85-.029.19.19 0 01.093-.057c.02 0 .052-.03.07-.065a.488.488 0 01.096-.119.175.175 0 00.062-.11 1.045 1.045 0 01.047-.209c.077-.244.069-.63-.013-.662a2.824 2.824 0 00-.681.002m9.6 2.327a.133.133 0 01-.08.048c-.02 0-.047.032-.061.071s-.034.072-.046.072-.038.035-.06.077c-.052.105-.045.098-.902.95-.894.888-.877.872-.958.889a.175.175 0 00-.103.082.122.122 0 01-.09.069.081.081 0 00-.071.06.158.158 0 01-.077.081 1.353 1.353 0 00-.226.19.871.871 0 01-.208.168.162.162 0 00-.086.058.253.253 0 01-.105.07.238.238 0 00-.106.086c-.028.04-.064.071-.08.071a.373.373 0 00-.122.095.335.335 0 01-.131.095.182.182 0 00-.095.06.183.183 0 01-.1.06.356.356 0 00-.144.094l-.175.167a.224.224 0 01-.146.07.12.12 0 00-.11.062.378.378 0 01-.144.105.315.315 0 00-.13.094.099.099 0 01-.092.049.22.22 0 00-.147.083.208.208 0 01-.156.083.12.12 0 00-.115.06.301.301 0 01-.117.091.376.376 0 00-.128.096.146.146 0 01-.132.062c-.067 0-.095.016-.146.083-.051.067-.08.083-.147.083a.18.18 0 00-.147.069.272.272 0 01-.177.084c-.09.013-.113.026-.113.062 0 .06-.07.094-.187.094-.08 0-.1.01-.127.065-.023.05-.062.074-.152.1a.235.235 0 00-.142.082.2.2 0 01-.105.076c-.085.029-.077.039.054.068.047.01.065.028.065.067a1.736 1.736 0 00.808.258 4.525 4.525 0 01.475.084 12.026 12.026 0 003.352-.023c.073-.02.206-.05.297-.066a2.02 2.02 0 00.335-.096 1.166 1.166 0 01.207-.068.9.9 0 00.186-.068c.082-.037.187-.082.233-.1a3.516 3.516 0 001.454-1.298.43.43 0 01.064-.113 1.28 1.28 0 00.105-.22 3.312 3.312 0 00.17-1.79 5.203 5.203 0 01-.062-.332 1.418 1.418 0 00-.08-.302 1.525 1.525 0 01-.083-.26.778.778 0 00-.081-.222.587.587 0 01-.071-.179.719.719 0 00-.089-.206.913.913 0 01-.094-.196c-.026-.093-.153-.227-.215-.227a.24.24 0 01-.072-.013c-.017-.006-.05.01-.073.036"
              fill="#fafafb"/>
        <path d="M14.69 9.403a.311.311 0 00-.071.059.714.714 0 01-.302.091.107.107 0 00-.078.057.112.112 0 01-.074.06.195.195 0 00-.1.086.203.203 0 01-.08.084.246.246 0 00-.088.095c-.104.175-.217.08-.217-.185 0-.228-.014-.24-.248-.229-.245.013-.237-.005-.206.453.016.238.026 1.188.026 2.446 0 2.347-.026 2.118.242 2.107l.174-.007.012-.891c.015-1.135.035-1.177.392-.83a.766.766 0 00.215.149 1.003 1.003 0 01.19.097l.094.065.412-.008c.39-.008.415-.01.454-.06a.326.326 0 01.146-.078c.18-.047.188-.05.188-.086 0-.02.024-.044.054-.056a2.027 2.027 0 00.414-.43.674.674 0 00.146-.337.608.608 0 01.08-.21c.052-.07.055-.094.062-.58.008-.53.009-.526-.105-.732a.643.643 0 01-.05-.195.239.239 0 00-.081-.19.208.208 0 01-.068-.09 1.221 1.221 0 00-.327-.367.602.602 0 01-.124-.097.368.368 0 00-.163-.072.322.322 0 01-.17-.081 1.556 1.556 0 00-.749-.038m3.505-.012a.672.672 0 00-.098.058.883.883 0 01-.256.077c-.266.047-.334.12-.293.313.027.123.15.128.282.012l.081-.072h.993l.08.064a.879.879 0 01.316.365 1.757 1.757 0 00.084.202c.14.277.053.374-.354.393a.878.878 0 00-.396.064 1.348 1.348 0 01-.5.1.18.18 0 00-.153.06.298.298 0 01-.14.074.35.35 0 00-.16.09c-.04.04-.119.115-.173.166a.79.79 0 00-.134.16.246.246 0 01-.079.09 1.558 1.558 0 00-.06.729c.017.241.012.231.23.463a.468.468 0 01.088.115c0 .011.03.028.066.037a.737.737 0 01.17.085c.17.113.952.096.952-.02 0-.019.07-.046.23-.089a.102.102 0 00.067-.057.153.153 0 01.081-.072.342.342 0 00.119-.098c.097-.13.216-.062.216.126 0 .136.028.159.217.176.225.021.277-.026.239-.217a9.317 9.317 0 01-.028-.996c0-1.27-.017-1.602-.086-1.67a.432.432 0 01-.084-.154.664.664 0 00-.25-.298.18.18 0 01-.066-.075c-.009-.027-.06-.049-.158-.067a.443.443 0 01-.204-.083 2.305 2.305 0 00-.839-.05m2.55.152c-.035.034.004.151.08.243a.243.243 0 01.055.17.24.24 0 00.06.176.472.472 0 01.106.29.323.323 0 00.072.152.27.27 0 01.071.18.234.234 0 00.072.173.432.432 0 01.097.221.476.476 0 00.071.189.463.463 0 01.093.273.224.224 0 00.058.125.45.45 0 01.086.206.555.555 0 00.097.23.264.264 0 01.068.184.18.18 0 00.056.153.92.92 0 01.035.819.313.313 0 00-.087.138.491.491 0 01-.103.171 5.888 5.888 0 01-.254.262c-.187.178-.25.225-.323.239a.173.173 0 00-.108.06.231.231 0 01-.09.078c-.079.039-.087.206-.013.282l.086.09c.056.058.172.034.26-.054a.214.214 0 01.097-.062.362.362 0 00.125-.075.71.71 0 01.157-.097.137.137 0 00.08-.068.18.18 0 01.08-.08.24.24 0 00.096-.105.173.173 0 01.063-.084.282.282 0 00.08-.119.322.322 0 01.093-.132.225.225 0 00.075-.124.621.621 0 01.093-.184.506.506 0 00.083-.155.39.39 0 01.07-.135.418.418 0 00.072-.174.313.313 0 01.086-.18.203.203 0 00.07-.156c0-.087.052-.213.094-.227a.504.504 0 00.062-.187.546.546 0 01.092-.237.301.301 0 00.067-.173.474.474 0 01.078-.21.543.543 0 00.084-.225.399.399 0 01.075-.197.526.526 0 00.087-.234.347.347 0 01.087-.218.16.16 0 00.058-.13.51.51 0 01.11-.308.243.243 0 00.056-.15.3.3 0 01.094-.225c.058-.056.113-.376.07-.404a1.046 1.046 0 00-.393-.003.431.431 0 00-.175.313.388.388 0 01-.083.24.396.396 0 00-.083.228.371.371 0 01-.097.277.186.186 0 00-.046.145.515.515 0 01-.11.331.256.256 0 00-.056.191.384.384 0 01-.083.253.42.42 0 00-.083.216.414.414 0 01-.086.295.23.23 0 00-.057.111c0 .09-.067.21-.117.21-.052 0-.12-.107-.12-.188a.236.236 0 00-.057-.114.584.584 0 01-.11-.357.185.185 0 00-.046-.143.437.437 0 01-.108-.287.28.28 0 00-.075-.18.334.334 0 01-.082-.206.456.456 0 00-.071-.203.462.462 0 01-.093-.285.228.228 0 00-.05-.131.428.428 0 01-.103-.27.412.412 0 00-.074-.185.398.398 0 01-.073-.155.213.213 0 00-.042-.106 1.484 1.484 0 00-.507.008m-5.518.271c.038.02.07.046.07.057s.04.039.09.062a.681.681 0 01.144.091 1.088 1.088 0 01.279.324.384.384 0 00.092.18 3.086 3.086 0 01-.015 1.478.489.489 0 00-.088.166c-.016.056-.037.101-.047.101a.405.405 0 00-.097.109.523.523 0 01-.187.16.73.73 0 00-.162.105c-.052.052-.07.054-.472.054h-.418l-.063-.063a.515.515 0 00-.137-.093.565.565 0 01-.162-.134 4.892 4.892 0 00-.133-.15.597.597 0 01-.087-.178.868.868 0 00-.092-.198 2.723 2.723 0 01.014-1.18.967.967 0 00.09-.244c.02-.097.045-.148.083-.173a.266.266 0 00.08-.095.196.196 0 01.083-.084.179.179 0 00.077-.077.297.297 0 01.142-.099.585.585 0 00.142-.075c.057-.064.134-.079.412-.08a.919.919 0 01.362.036m4.05 1.365c.167.04.183.08.174.463-.007.296-.013.342-.058.405a.713.713 0 00-.082.175.32.32 0 01-.096.152.224.224 0 00-.076.092.123.123 0 01-.067.067.48.48 0 00-.125.095.191.191 0 01-.167.073 1.31 1.31 0 00-.237.034.33.33 0 01-.235 0 .642.642 0 00-.176-.034c-.098 0-.174-.037-.174-.084 0-.02-.009-.035-.02-.035-.044 0-.146-.12-.146-.171a.503.503 0 00-.06-.167.311.311 0 01-.01-.346.43.43 0 00.07-.175c.026-.131.052-.177.115-.197a.13.13 0 00.063-.067.265.265 0 01.155-.1.49.49 0 00.17-.094c.034-.042.077-.05.386-.063a2.561 2.561 0 00.364-.031.39.39 0 01.232.008"
              fill="#576870"/>
        <path d="M12.433 2.878c-.144.018-.411.048-.594.067a2.64 2.64 0 00-.625.105 1.402 1.402 0 01-.23.052 2.179 2.179 0 00-.334.083 7.83 7.83 0 01-.297.101 5.14 5.14 0 00-1.574.844.307.307 0 01-.086.065 5.89 5.89 0 00-.488.487.528.528 0 00-.109.148c0 .017-.01.03-.023.03a2.128 2.128 0 00-.337.547 2.597 2.597 0 00-.269.697 1.427 1.427 0 01-.052.212 4.742 4.742 0 00.013 1.795 1.365 1.365 0 01.048.254 1.77 1.77 0 00.082.357 3.386 3.386 0 01.112.371c.06.25.075.262.18.141a.842.842 0 01.686.004c.111.111.138.086.053-.05a.841.841 0 01-.082-.217 9.752 9.752 0 00-.06-.25 4.707 4.707 0 01.033-1.39 1.715 1.715 0 00.075-.277.437.437 0 01.07-.178.683.683 0 00.087-.167.675.675 0 01.098-.175.356.356 0 00.07-.117.148.148 0 01.051-.074.6.6 0 00.093-.113 1.084 1.084 0 01.277-.3c.017 0 .044-.026.058-.058a.193.193 0 01.09-.084.182.182 0 00.085-.079.27.27 0 01.117-.096.453.453 0 00.138-.101.152.152 0 01.1-.058.287.287 0 00.139-.083.222.222 0 01.166-.083.189.189 0 00.156-.083.195.195 0 01.194-.083c.102 0 .123-.009.158-.066l.05-.077A1.4 1.4 0 0111 4.967c.226 0 .24-.003.283-.06a3.56 3.56 0 01.073-.09c.021-.026.088-.03.33-.016.471.026.682-.006.717-.11a3.304 3.304 0 011.372.025c.054.072.326.1.897.09l.41-.005.069.083.07.083.234-.001a2.486 2.486 0 00.322-.019c.092-.018.107-.01.216.125.04.05.054.052.287.036l.245-.016.05.064a.471.471 0 01.058.09c.006.017.07.025.174.023.264-.006.334.011.368.092.035.086.1.104.284.084.134-.016.218.015.133.048a.374.374 0 00-.1.13 1.298 1.298 0 01-.568.354c-.052 0-1.19.571-1.556.78a10.11 10.11 0 01-.265.146.715.715 0 00-.15.095.456.456 0 01-.126.073 1.643 1.643 0 00-.195.104c-.046.03-.164.1-.262.157a2.527 2.527 0 00-.22.139.943.943 0 01-.2.12.181.181 0 00-.065.047.6.6 0 01-.133.088.35.35 0 00-.118.085c0 .01-.014.02-.03.021a.37.37 0 00-.113.06l-.178.12a.968.968 0 00-.13.102 1.582 1.582 0 01-.19.138c-.543.35-.817.688-.565.699.25.01.357-.015.458-.109a.252.252 0 01.09-.06.488.488 0 00.126-.096.417.417 0 01.135-.095c.018 0 .046-.026.063-.057a.156.156 0 01.094-.07.331.331 0 00.129-.073.735.735 0 01.132-.096.334.334 0 00.106-.095c.022-.033.055-.06.073-.06a.24.24 0 00.101-.057.705.705 0 01.152-.092.393.393 0 00.134-.098c.027-.034.063-.062.079-.062a.823.823 0 00.18-.095.944.944 0 01.174-.095c.013 0 .04-.026.061-.057a.189.189 0 01.106-.07.415.415 0 00.15-.086.292.292 0 01.122-.073.188.188 0 00.097-.056.558.558 0 01.163-.098.514.514 0 00.16-.098.176.176 0 01.099-.056.272.272 0 00.191-.111.146.146 0 01.105-.056.348.348 0 00.163-.083.373.373 0 01.147-.083.359.359 0 00.14-.069.574.574 0 01.168-.084.537.537 0 00.165-.086.346.346 0 01.14-.07.493.493 0 00.165-.08.713.713 0 01.2-.095.464.464 0 00.155-.07.658.658 0 01.189-.083.579.579 0 00.175-.077.223.223 0 01.112-.047 1.488 1.488 0 00.228-.047c.22-.058.385-.061.438-.009.032.033.07.037.215.024l.177-.014.075.082c.07.078.084.083.225.083s.153.004.186.069c.042.081.078.098.216.098.082 0 .106.01.118.047a.18.18 0 00.194.098c.06-.005.09.011.152.079a.189.189 0 00.168.084.187.187 0 01.166.084.187.187 0 00.163.083.188.188 0 01.155.071.19.19 0 00.146.071.19.19 0 01.154.084.189.189 0 00.157.083.197.197 0 01.16.083.196.196 0 00.176.083c.081 0 .098.008.098.046 0 .06.087.12.171.12a.12.12 0 01.104.06.247.247 0 00.127.083.354.354 0 01.142.08.29.29 0 00.147.072c.051.008.093.026.093.04 0 .049.127.14.194.14a.09.09 0 01.096.06.18.18 0 00.117.087.326.326 0 01.142.095.166.166 0 00.096.068.284.284 0 01.126.083.288.288 0 00.125.083.275.275 0 01.123.083.253.253 0 00.136.083.099.099 0 01.082.05.25.25 0 00.109.084.204.204 0 01.096.07.337.337 0 00.113.093.736.736 0 01.151.119.17.17 0 00.1.06.081.081 0 01.071.058.132.132 0 00.084.075.968.968 0 01.233.178 1.01 1.01 0 00.199.164c.015 0 .049.027.075.06a.304.304 0 00.117.084.206.206 0 01.1.08.158.158 0 00.086.071.144.144 0 01.08.061.26.26 0 00.096.084c.04.02.071.052.071.07s.03.054.065.076c.066.042 1.303 1.278 1.433 1.434.039.045.094.11.124.143a.407.407 0 01-.075.498 1.062 1.062 0 00-.128.172c-.008.023-.024.042-.035.042a1.192 1.192 0 00-.173.183c-.17.203-.264.303-.712.756-.299.302-.606.591-.797.751-.053.044-.124.107-.158.14s-.107.097-.163.142-.13.11-.165.143-.143.12-.24.193-.199.154-.223.178a.53.53 0 01-.085.068 2.652 2.652 0 00-.327.254.038.038 0 01-.034.02.528.528 0 00-.14.095.612.612 0 01-.132.095.298.298 0 00-.091.06c-.039.032-.258.181-.486.33s-.443.292-.476.316a1.45 1.45 0 01-.149.09.963.963 0 00-.152.1.236.236 0 01-.086.054.328.328 0 00-.102.06.345.345 0 01-.099.06.687.687 0 00-.138.075 6.549 6.549 0 01-.51.285 7.081 7.081 0 00-.19.103c-.14.082-.684.36-.76.39a.609.609 0 00-.119.06.562.562 0 01-.118.059 7.08 7.08 0 00-.63.295.318.318 0 01-.112.039.889.889 0 00-.202.083 1.03 1.03 0 01-.19.083.849.849 0 00-.167.066.671.671 0 01-.377.065c-.259 0-.255.001-.714-.216a1.102 1.102 0 00-.203-.081.338.338 0 01-.115-.057 3.696 3.696 0 00-.56-.276.113.113 0 01-.064-.034.988.988 0 00-.174-.103c-.126-.061-.28-.147-.568-.314-.052-.03-.16-.09-.238-.131a5.023 5.023 0 01-.475-.282c-.039-.03-.151-.1-.25-.157a2.465 2.465 0 01-.225-.144 3.453 3.453 0 00-.25-.166 1.383 1.383 0 01-.21-.146.216.216 0 00-.076-.056c-.037-.02-.173-.11-.3-.201s-.285-.201-.347-.244-.186-.139-.273-.214a.958.958 0 00-.243-.16c-.306-.087-.576.056-.39.206.038.031.108.093.155.139a.299.299 0 00.126.083.206.206 0 01.102.061.42.42 0 00.13.086.189.189 0 01.092.069.313.313 0 00.113.09.56.56 0 01.141.107.162.162 0 00.123.062c.05 0 .075.014.085.048a.229.229 0 00.103.092.632.632 0 01.145.107.188.188 0 00.1.062.31.31 0 01.13.083.311.311 0 00.128.083.196.196 0 01.1.06.522.522 0 00.14.092.417.417 0 01.126.083.46.46 0 00.16.087c.064.02.116.049.116.061s.05.046.113.073a.917.917 0 01.177.104.38.38 0 00.134.069.33.33 0 01.135.085.22.22 0 00.119.07.405.405 0 01.16.083.4.4 0 00.167.083.2.2 0 01.114.055.408.408 0 00.235.112.224.224 0 01.111.067.312.312 0 00.164.083.293.293 0 01.164.087.191.191 0 00.145.072.288.288 0 01.165.071.474.474 0 00.18.086.459.459 0 01.169.072.45.45 0 00.164.07l.087.015-.026.083a.153.153 0 01-.086.106 3.45 3.45 0 00-.18.078 1.965 1.965 0 01-.273.096 6.498 6.498 0 00-.327.097 1.262 1.262 0 01-.217.057 1.375 1.375 0 00-.226.06 3.324 3.324 0 01-.377.094c-.107.018-.26.052-.338.073s-.27.06-.428.083a4.933 4.933 0 00-.653.12 13.95 13.95 0 01-3.123-.015 5.304 5.304 0 00-.358-.083 2.715 2.715 0 01-.38-.104 1.895 1.895 0 00-.214-.073 4.804 4.804 0 01-.808-.391 1.256 1.256 0 00-.119-.084 3.196 3.196 0 01-.76-.749 2.602 2.602 0 00-.132-.19 3.089 3.089 0 01-.275-.618l-.092-.273v-.677c0-.72.036-.976.15-1.065a.353.353 0 00.075-.106.258.258 0 01.102-.107.102.102 0 00.065-.08c0-.06-.062-.03-.103.05a.23.23 0 01-.072.082.808.808 0 00-.114.094l-.07.068-.266-.01c-.26-.01-.332-.029-.406-.103-.032-.032-.042-.017-.095.149a4.26 4.26 0 01-.096.271 1.4 1.4 0 00-.063.258 1.42 1.42 0 01-.059.247 3.322 3.322 0 00-.115 1.202l.001.677.087.27a2.35 2.35 0 01.088.317.514.514 0 00.056.158 1.583 1.583 0 01.087.206.662.662 0 00.086.169.305.305 0 01.056.097.713.713 0 00.09.152 1.364 1.364 0 01.106.17.142.142 0 00.075.065.12.12 0 01.075.106c.008.047.03.084.046.084s.048.038.07.084.054.083.073.083.05.032.07.07a.294.294 0 00.108.108c.039.02.07.053.07.072 0 .024.026.035.08.035a.141.141 0 01.131.071c.029.04.066.071.083.071a.302.302 0 01.11.084.207.207 0 00.158.083c.071 0 .152.05.152.093 0 .01.05.038.113.061a.429.429 0 01.148.087.352.352 0 00.186.07c.1.018.155.04.165.066.021.058.055.074.157.074.136 0 .27.047.284.099.01.036.035.044.145.044a.46.46 0 01.336.112c.023.033.083.044.299.056.291.016.497.059.489.102a23.875 23.875 0 002.528.044 5.058 5.058 0 00.907-.044 1.513 1.513 0 01.65-.114c.195-.001.25-.01.287-.043a.17.17 0 01.096-.042.382.382 0 00.117-.027 1.633 1.633 0 01.322-.043c.198-.011.262-.023.285-.054.049-.065.159-.095.399-.11a.573.573 0 00.218-.036c-.017-.046.135-.094.335-.105.16-.008.215-.02.237-.051a.532.532 0 01.337-.12c.074 0 .115-.013.137-.043a.567.567 0 01.357-.124c.084 0 .117-.01.135-.043a.515.515 0 01.359-.087c.06.013.07.008.07-.032 0-.08.111-.148.212-.133.1.016.216-.021.216-.07 0-.034.163-.086.272-.086a.12.12 0 00.098-.059c.054-.081.1-.09.273-.05.138.033.157.032.247-.009a.904.904 0 01.548-.038 2.882 2.882 0 00.357.038.85.85 0 01.237.037 1.172 1.172 0 00.476.104 1.184 1.184 0 01.246.023 4.653 4.653 0 00.941.147 16.887 16.887 0 002.894-.037 2.661 2.661 0 01.415-.087c.262-.039.34-.06.402-.106a.272.272 0 01.174-.058.412.412 0 00.334-.11c.027-.049.048-.057.158-.057a.225.225 0 00.237-.125.244.244 0 01.15-.049c.072-.007.135-.027.14-.043a.237.237 0 01.205-.139c.067 0 .09-.012.111-.058a.303.303 0 01.13-.107.336.336 0 00.127-.096.104.104 0 01.104-.048c.064 0 .107-.027.227-.142a1.765 1.765 0 01.218-.183.208.208 0 00.083-.085.13.13 0 01.072-.066.157.157 0 00.08-.08.134.134 0 01.07-.073c.028-.009.05-.024.05-.034a.867.867 0 01.112-.152 2.702 2.702 0 00.434-.656.545.545 0 01.056-.126 1.101 1.101 0 00.087-.232 1.753 1.753 0 01.083-.25 1.138 1.138 0 00.069-.31 2.22 2.22 0 01.038-.272 3.687 3.687 0 00.025-.832 7.665 7.665 0 00-.133-.928 12 12 0 01-.08-.308 4.45 4.45 0 00-.261-.725.643.643 0 01-.06-.143 3.503 3.503 0 00-.205-.462 3.635 3.635 0 01-.094-.188 1.95 1.95 0 00-.119-.216.692.692 0 01-.098-.595.498.498 0 00.05-.122.612.612 0 01.073-.144.738.738 0 00.086-.193.685.685 0 01.069-.172.995.995 0 00.083-.214.857.857 0 01.077-.197.662.662 0 00.067-.198 1.93 1.93 0 01.091-.305 1.85 1.85 0 00.094-.36c.012-.096.044-.275.072-.4a4.342 4.342 0 00.002-1.378c-.028-.124-.06-.277-.072-.34a1.538 1.538 0 00-.119-.384 2.231 2.231 0 01-.083-.22.443.443 0 00-.06-.137.436.436 0 01-.068-.118 4.377 4.377 0 00-1.084-1.272 3.439 3.439 0 01-.396-.261 5.765 5.765 0 00-.826-.404 1.047 1.047 0 01-.174-.063 2.583 2.583 0 00-.315-.105 3.292 3.292 0 01-.268-.08 1.634 1.634 0 00-.273-.061 1.683 1.683 0 01-.23-.046 13.288 13.288 0 00-4.083.013.957.957 0 01-.242.033 2.016 2.016 0 00-.563.104 1.784 1.784 0 01-1.074-.018.651.651 0 00-.17-.076 1.049 1.049 0 01-.18-.074 1.482 1.482 0 00-.215-.088 2.35 2.35 0 01-.245-.097 1.369 1.369 0 00-.2-.076 1.776 1.776 0 01-.22-.081 1.76 1.76 0 00-.213-.08 11.52 11.52 0 01-.677-.229 2.67 2.67 0 00-.31-.09 2.892 2.892 0 01-.32-.092 1.307 1.307 0 00-.247-.063.71.71 0 01-.17-.04 3.593 3.593 0 00-.554-.14 1.163 1.163 0 01-.203-.048 3.529 3.529 0 00-.44-.085 3.617 3.617 0 01-.362-.061 4.478 4.478 0 00-.778-.105c-.222-.02-.543-.05-.713-.069a11.869 11.869 0 00-1.758.001m1.806.13c.3.012.642.038.76.058s.369.057.558.083.457.074.594.106.34.07.452.087a1.5 1.5 0 01.3.072 1.258 1.258 0 00.25.067 2.264 2.264 0 01.318.082 3.35 3.35 0 00.352.096 1.423 1.423 0 01.273.082.787.787 0 00.194.061 1.075 1.075 0 01.231.075 1.235 1.235 0 00.24.08.65.65 0 01.266.098 1.015 1.015 0 00.19.07 1.572 1.572 0 01.25.093.955.955 0 00.19.072 1.087 1.087 0 01.213.084.759.759 0 00.178.071.464.464 0 01.143.058 2.662 2.662 0 00.641.205.426.426 0 01.233.119.297.297 0 00.108.08.35.35 0 01.116.072.749.749 0 00.189.108.555.555 0 01.15.079.509.509 0 00.131.074.543.543 0 01.12.061 1.552 1.552 0 00.19.104c.084.041.228.116.32.166s.2.108.24.127a1.481 1.481 0 01.176.11.45.45 0 00.13.074.217.217 0 01.09.047 1.295 1.295 0 00.163.1 1.665 1.665 0 01.164.097 2.471 2.471 0 00.326.207 2.593 2.593 0 01.374.245 1.054 1.054 0 00.15.098.6.6 0 01.125.086.153.153 0 00.078.047.147.147 0 01.077.05 2.413 2.413 0 00.376.27 1.086 1.086 0 01.122.09 3.026 3.026 0 00.334.255.587.587 0 01.114.084 2.953 2.953 0 00.26.209c.05.037.12.092.155.122l.255.219c.39.33.934.828 1.077.989.02.023.166.175.323.336s.325.34.375.397c.336.39.503.42.597.105a.52.52 0 01.074-.157.752.752 0 00.085-.216.826.826 0 01.063-.186.286.286 0 00.077-.186 1.106 1.106 0 01.093-.36.952.952 0 00.096-.448 2.376 2.376 0 01.036-.288 1.382 1.382 0 00.012-.621 2.224 2.224 0 01-.046-.427.532.532 0 00-.06-.329.438.438 0 01-.06-.199c0-.272-.565-1.126-.75-1.134a.15.15 0 01-.07-.048 1.022 1.022 0 00-.163-.123 1.803 1.803 0 01-.169-.117.668.668 0 00-.155-.084.577.577 0 01-.136-.071.58.58 0 00-.153-.07.594.594 0 01-.167-.081.513.513 0 00-.19-.067q-.245-.046-.161-.102a.805.805 0 01.498.072.881.881 0 00.214.07.656.656 0 01.21.072.484.484 0 00.17.072.61.61 0 01.19.083.445.445 0 00.14.075.627.627 0 01.17.095.59.59 0 00.143.09.43.43 0 01.128.084.157.157 0 00.065.049 2.43 2.43 0 01.386.294 1.098 1.098 0 01.228.23 1.51 1.51 0 00.127.14 1.32 1.32 0 01.13.156 1.588 1.588 0 00.113.142.37.37 0 01.059.107.983.983 0 00.099.176.383.383 0 01.066.125.92.92 0 00.083.188.718.718 0 01.084.223.522.522 0 00.062.182 5.757 5.757 0 01-.009 2.367.574.574 0 00-.09.277c-.03.172-.05.233-.094.273a.34.34 0 00-.08.203.381.381 0 01-.089.218.288.288 0 00-.075.177c-.01.095-.024.119-.092.158-.067.04-.081.064-.094.165-.01.076-.03.125-.058.14-.093.05-.04.5.085.719a.482.482 0 01.058.133.26.26 0 00.06.103.517.517 0 01.086.174.35.35 0 00.071.145.479.479 0 01.084.173.663.663 0 00.092.196.408.408 0 01.069.171.425.425 0 00.064.168.789.789 0 01.085.245.849.849 0 00.085.248.643.643 0 01.07.309.834.834 0 00.07.328 2.735 2.735 0 01.077 1.046c-.013.64-.017.669-.103.755a.303.303 0 00-.086.186c-.015.102-.038.138-.189.296a1.38 1.38 0 00-.236.321 1.22 1.22 0 01-.23.308 1.656 1.656 0 00-.217.266 5.029 5.029 0 01-.755.795 7.066 7.066 0 00-.229.187.21.21 0 01-.066.046.837.837 0 00-.133.082.728.728 0 01-.188.096.21.21 0 00-.1.051c-.058.07-.21.133-.248.102-.048-.04-.002-.088.092-.098.057-.005.078-.02.088-.065a.102.102 0 01.062-.072 3.431 3.431 0 00.734-.689c.008-.026.025-.048.037-.048s.049-.055.081-.122a.516.516 0 01.107-.156.278.278 0 00.074-.132.373.373 0 01.082-.151.271.271 0 00.07-.167c.025-.19.039-.246.06-.246.08 0 .103-.2.114-.98l.01-.778-.074-.07-.074-.07-.002-.267c-.003-.264-.004-.27-.071-.333-.063-.058-.07-.079-.07-.22a.407.407 0 00-.02-.168.197.197 0 01-.037-.094.384.384 0 00-.062-.14.264.264 0 01-.047-.142.194.194 0 00-.07-.15.196.196 0 01-.071-.159c-.001-.087-.003-.089-.093-.089a.18.18 0 01-.122-.036.108.108 0 00-.072-.035.248.248 0 01-.114-.06c-.081-.068-.128-.074-.172-.022a.466.466 0 01-.116.082.528.528 0 00-.224.231c-.073.116-1.566 1.595-1.69 1.676a2.7 2.7 0 00-.273.23 2.65 2.65 0 01-.286.239 1.389 1.389 0 00-.202.167.883.883 0 01-.184.145.93.93 0 00-.19.149.579.579 0 01-.152.119.393.393 0 00-.115.076 2.286 2.286 0 01-.324.228 2.482 2.482 0 00-.199.149.587.587 0 01-.167.108c-.02 0-.035.008-.035.018s-.034.033-.076.052a1.33 1.33 0 00-.212.142 1.786 1.786 0 01-.227.156c-.05.026-.17.1-.265.166s-.24.153-.319.195a.941.941 0 00-.158.096 1.88 1.88 0 01-.24.134 3.3 3.3 0 00-.523.298.676.676 0 01-.185.094.418.418 0 00-.143.07 6.456 6.456 0 01-.822.41c-.122.038-.228.147-.228.234 0 .091-.04.118-.217.148a8.841 8.841 0 00-.745.166c-.04.013-.136.044-.216.067a1.352 1.352 0 00-.19.069 2.483 2.483 0 01-.432.155.963.963 0 00-.184.062 1.868 1.868 0 01-.255.087 1.324 1.324 0 00-.195.062 1.06 1.06 0 01-.166.055c-.168.043-.753.24-.804.271a.663.663 0 01-.19.038 1.236 1.236 0 00-.447.11 1.111 1.111 0 01-.347.064 1.242 1.242 0 00-.376.071.62.62 0 01-.203.05 2.006 2.006 0 00-.276.036 2.074 2.074 0 01-.305.036.388.388 0 00-.193.045 17.626 17.626 0 01-3.289.024 2.073 2.073 0 00-.67-.14.555.555 0 01-.204-.057.926.926 0 00-.219-.074 1.228 1.228 0 01-.254-.086.833.833 0 00-.186-.069.256.256 0 01-.107-.048 1.147 1.147 0 00-.235-.103.785.785 0 01-.223-.106.207.207 0 00-.076-.052.709.709 0 01-.14-.08 6.717 6.717 0 00-.305-.196 4.87 4.87 0 01-.34-.321c-.366-.366-.354-.353-.392-.424a1.051 1.051 0 00-.134-.169 1.467 1.467 0 01-.192-.278c-.09-.174-.315-.433-.376-.433-.024 0-.034-.031-.034-.114a.796.796 0 00-.127-.428 3.013 3.013 0 01-.001-1.18c.04-.058.054-.136.077-.404.022-.266.037-.346.074-.397a.69.69 0 00.075-.237c.045-.284.154-.383.314-.284a.357.357 0 00.155.05c.122 0 .14.34.027.53a1.893 1.893 0 00.006.889.83.83 0 01.078.328c.034.262.049.307.121.384a.319.319 0 01.042.125.31.31 0 00.064.146.584.584 0 01.092.148.712.712 0 00.117.177.289.289 0 01.075.106c0 .033.015.05.295.328.113.11.25.237.305.28l.2.156a.918.918 0 00.177.111.311.311 0 01.105.066.451.451 0 00.148.076.804.804 0 01.185.092.558.558 0 00.188.074.562.562 0 01.183.069.772.772 0 00.328.097.535.535 0 01.157.049 2.206 2.206 0 00.492.096c.212.026.412.057.444.07a9.083 9.083 0 002.27-.022c.065-.014.284-.04.487-.06a3.162 3.162 0 00.511-.08 2.495 2.495 0 01.398-.075 1.233 1.233 0 00.38-.085.626.626 0 01.2-.059 1.321 1.321 0 00.424-.096 1.35 1.35 0 01.25-.07 1.37 1.37 0 00.273-.084 1.38 1.38 0 01.273-.084.778.778 0 00.239-.085.354.354 0 01.114-.056c.107 0 .286-.123.264-.181-.04-.105-.035-.107.232-.101a1.18 1.18 0 00.678-.136.243.243 0 01.124-.057.723.723 0 00.21-.082 1.137 1.137 0 01.24-.098.4.4 0 00.152-.068.574.574 0 01.17-.083.474.474 0 00.159-.078.4.4 0 01.154-.07.75.75 0 00.206-.091.667.667 0 01.17-.084.283.283 0 00.11-.055.612.612 0 01.156-.083.641.641 0 00.173-.1.217.217 0 01.097-.059.428.428 0 00.201-.097.282.282 0 01.113-.06.75.75 0 00.188-.106.417.417 0 01.147-.08.215.215 0 00.103-.054.436.436 0 01.128-.079.591.591 0 00.131-.074.697.697 0 01.123-.077.928.928 0 00.163-.112.392.392 0 01.141-.081.202.202 0 00.097-.05.462.462 0 01.114-.08.953.953 0 00.156-.105.273.273 0 01.098-.062.262.262 0 00.095-.06.935.935 0 01.152-.105.555.555 0 00.128-.094.147.147 0 01.078-.05 1.891 1.891 0 00.386-.286.31.31 0 01.11-.07c.016 0 .046-.027.068-.06s.053-.059.07-.059c.03 0 .097-.048.361-.261l.182-.143a1.748 1.748 0 00.163-.148.353.353 0 01.112-.09.107.107 0 00.057-.03c.017-.016.069-.06.115-.097.262-.213 1.487-1.412 1.703-1.667l.163-.19a1.58 1.58 0 00.101-.13.56.56 0 01.094-.103.139.139 0 00.053-.076.143.143 0 01.057-.076.247.247 0 00.073-.098.28.28 0 01.066-.099.691.691 0 00.01-.475.672.672 0 01-.064-.107 14.86 14.86 0 00-1.783-1.794 5.306 5.306 0 01-.474-.395 4.319 4.319 0 00-.264-.206 1.578 1.578 0 01-.188-.152 1.641 1.641 0 00-.213-.162 3.095 3.095 0 01-.225-.162.685.685 0 00-.118-.08.527.527 0 01-.103-.07.112.112 0 00-.049-.032.26.26 0 01-.077-.057.663.663 0 00-.118-.086 1.828 1.828 0 01-.177-.119c-.066-.048-.237-.16-.38-.247l-.308-.188a.908.908 0 01-.1-.076 1.723 1.723 0 00-.24-.142 2.04 2.04 0 01-.232-.135 1.638 1.638 0 00-.19-.115c-.078-.042-.228-.126-.332-.187l-.238-.137a29.5 29.5 0 00-.923-.46.54.54 0 01-.101-.06.359.359 0 00-.12-.059 1.373 1.373 0 01-.231-.095 2.293 2.293 0 00-.214-.095c-.008 0-.118-.05-.245-.11a3.691 3.691 0 00-1.109-.306.265.265 0 01-.178-.063c-.166-.198-.2-.219-.564-.335a6.133 6.133 0 00-.475-.135 1.394 1.394 0 01-.214-.06 6.215 6.215 0 00-.723-.195c-.098-.02-.285-.061-.416-.092s-.344-.073-.475-.095l-.558-.094a11.572 11.572 0 00-3.381.012 7.184 7.184 0 00-1.112.322.13.13 0 01-.06.034 5.033 5.033 0 00-.78.423c-.532.407-.965.953-.964 1.215a.192.192 0 01-.05.11c-.038.04-.052.096-.062.24-.01.144-.025.2-.063.241a5.018 5.018 0 00-.061 1.615c.034.402.03.41-.193.41a.328.328 0 01-.37-.327.624.624 0 00-.111-.356c-.04-.043-.052-.102-.067-.309a11.73 11.73 0 00-.06-.559 4.885 4.885 0 01.118-1.571 1.067 1.067 0 00.087-.234.586.586 0 01.069-.184.527.527 0 00.08-.145 2.119 2.119 0 01.272-.458.51.51 0 00.078-.119.271.271 0 01.065-.086 6.85 6.85 0 00.184-.199.595.595 0 01.147-.133c.016 0 .035-.023.043-.05a.186.186 0 01.084-.082.712.712 0 00.127-.09 1.92 1.92 0 01.343-.255.258.258 0 00.092-.055.755.755 0 01.17-.095.588.588 0 00.153-.088.172.172 0 01.089-.047 1.114 1.114 0 00.226-.095 1 1 0 01.236-.095.34.34 0 00.13-.05 1.142 1.142 0 01.373-.116.602.602 0 00.147-.051 1.61 1.61 0 01.337-.084c.124-.018.29-.048.369-.066a3.745 3.745 0 01.831-.108 23.345 23.345 0 011.878 0m11.15 1.348a.893.893 0 01-.167 0c-.042-.006-.002-.01.09-.01s.126.005.076.01m1.153.138c.083.032.012.058-.155.058-.183 0-.278-.017-.278-.048 0-.045.325-.052.433-.01m-.793.092a2.199 2.199 0 00.397.085.639.639 0 01.23.058 1.89 1.89 0 00.278.096.77.77 0 01.23.096.273.273 0 00.172.059.185.185 0 01.162.071.323.323 0 00.15.087.207.207 0 01.115.06.417.417 0 00.123.091.72.72 0 01.152.107.206.206 0 00.088.06.796.796 0 01.178.154.874.874 0 00.175.154c.013 0 .025.016.025.035a.295.295 0 00.071.116.298.298 0 01.071.115.377.377 0 00.083.132.356.356 0 01.084.138.71.71 0 00.08.187 1.013 1.013 0 01.099.24 1.149 1.149 0 00.08.225l.061.131v.653a2.398 2.398 0 01-.042.76 2.603 2.603 0 00-.087.322 4.661 4.661 0 01-.247.772 3.222 3.222 0 00-.086.21.292.292 0 01-.109.147l-.072.045-.094-.09c-.052-.05-.217-.222-.368-.384a15.464 15.464 0 00-1.212-1.187l-.23-.202c-.043-.04-.123-.11-.178-.155s-.129-.11-.164-.144a1.079 1.079 0 00-.127-.102c-.035-.023-.082-.057-.104-.074l-.194-.152a5.806 5.806 0 01-.202-.162 3.967 3.967 0 00-.408-.293 1.43 1.43 0 01-.222-.172 12.307 12.307 0 00-.626-.42 1.137 1.137 0 01-.158-.113.208.208 0 00-.087-.055.25.25 0 01-.096-.054 1.364 1.364 0 00-.174-.11 1.09 1.09 0 01-.145-.09.85.85 0 00-.12-.076 2.518 2.518 0 01-.364-.216.536.536 0 00-.125-.074 1.475 1.475 0 01-.184-.105.806.806 0 00-.155-.083.554.554 0 01-.119-.06 1.952 1.952 0 00-.202-.113c-.091-.046-.225-.117-.297-.158s-.176-.096-.231-.122-.101-.057-.101-.068a.23.23 0 00-.059-.077l-.058-.059.088-.036a1.635 1.635 0 01.587-.14 3.036 3.036 0 00.452-.072 5.38 5.38 0 011.663-.08l1.26.006.293.086m-7.85 1.18c.017.027-.143.055-.196.035-.04-.015-.04-.018-.001-.046.042-.031.177-.024.198.01m-.417.164a.048.048 0 01-.021.036c-.031.019-.1-.011-.084-.037.017-.028.105-.027.105.001m-.35.17c-.018.02-.038.02-.07.001-.038-.022-.035-.025.027-.026.051 0 .063.006.044.025m-.32.151a.385.385 0 01-.201.006c-.01-.009.035-.016.098-.016s.11.004.104.01m-.318.156c.009.014-.029.023-.1.021-.092-.002-.103-.006-.054-.021.085-.027.137-.027.154 0m-.313.155c.002.013-.036.026-.085.03-.102.009-.123-.035-.024-.05.085-.012.104-.008.109.02m-.299.16c-.011.035-.208.055-.208.02 0-.026.054-.043.15-.047.045-.002.065.007.058.027m-.313.138c.027.044-.03.077-.101.059l-.067-.017.06-.033c.072-.04.087-.041.108-.009m-.275.175c0 .04-.073.068-.127.047-.077-.03-.034-.075.074-.08.03 0 .053.013.053.033m-.252.15c.03.03-.136.073-.185.048-.036-.019-.038-.027-.012-.044a.273.273 0 01.197-.004m-.275.167c-.005.027-.035.044-.088.049-.115.01-.149-.035-.048-.064.12-.034.145-.032.136.015m-.282.123c.048.03-.01.096-.084.096-.078 0-.091-.038-.029-.081.062-.043.067-.044.113-.015m-.196.198a.322.322 0 01-.225.055c-.027-.028.021-.085.07-.086a.2.2 0 00.09-.023c.044-.027.084.006.065.054m-.282.12c.039.046-.013.087-.108.087s-.1-.023-.013-.077c.08-.05.088-.05.121-.01m-.198.206a.077.077 0 01-.06.024.077.077 0 00-.059.024.087.087 0 01-.12-.001c-.024-.041.038-.094.11-.094a.114.114 0 00.083-.027c.011-.019.024-.015.038.012a.072.072 0 01.008.062m-.262.131c0 .033-.024.055-.078.073a.205.205 0 00-.108.083.13.13 0 01-.075.066.565.565 0 00-.155.101c-.11.093-.195.117-.228.065-.02-.032.073-.115.13-.115.022 0 .057-.032.08-.071a.123.123 0 01.089-.071.178.178 0 00.1-.054c.13-.13.245-.167.245-.077m-.657.469c-.006.041-.029.056-.103.068-.108.018-.164-.025-.077-.058a.815.815 0 00.089-.04c.065-.037.099-.026.09.03m1.65.732a.132.132 0 00-.067.055.153.153 0 01-.1.05.33.33 0 00-.227.119.141.141 0 01-.075.06.174.174 0 00-.085.077.263.263 0 01-.094.094c-.039.023-.07.057-.07.077s-.01.037-.02.037a.69.69 0 01-.052-.323c0-.184-.077-.232-.348-.218-.356.019-.363.034-.339.72.01.274.019 1.387.02 2.473l.002 1.974.05.046a.846.846 0 00.626 0l.06-.06v-1.619l.064-.024c.055-.021.071-.015.136.056a.473.473 0 00.168.111.491.491 0 01.15.084 2.132 2.132 0 001.256-.016.594.594 0 01.152-.075 1.714 1.714 0 00.546-.517.22.22 0 01.072-.11.29.29 0 00.09-.186.606.606 0 01.08-.207 3.44 3.44 0 00.006-1.55.536.536 0 01-.072-.172c-.02-.111-.069-.21-.111-.227a.211.211 0 01-.062-.11.31.31 0 00-.099-.15.266.266 0 01-.083-.09.168.168 0 00-.077-.073.462.462 0 01-.113-.085.439.439 0 00-.157-.089.965.965 0 01-.2-.096 2.902 2.902 0 00-1.027-.036m3.356.044a1.133 1.133 0 01-.245.085.278.278 0 00-.14.06l-.089.102c-.083.093-.084.12-.01.23a.523.523 0 01.069.125c0 .06.102.107.165.074a.319.319 0 01.122-.032.459.459 0 00.178-.077l.116-.078h.389c.368 0 .39.003.43.05a.428.428 0 00.115.09.198.198 0 01.088.085.105.105 0 00.06.06c.054.018.06.034.097.304.04.275.056.264-.4.28a1.06 1.06 0 00-.48.065 1.072 1.072 0 01-.255.077c-.186.03-.246.053-.298.116a.136.136 0 01-.084.05.308.308 0 00-.131.083.43.43 0 01-.108.083c-.04 0-.168.149-.182.214a.119.119 0 01-.06.083c-.05.016-.064.05-.113.285a1.575 1.575 0 00.001.654c.047.227.06.256.113.273a.109.109 0 01.06.066.735.735 0 00.254.255.268.268 0 01.1.07 1.905 1.905 0 001.172.014.62.62 0 01.158-.087.35.35 0 00.14-.098c.027-.036.062-.066.079-.066s.056-.034.088-.075l.06-.076.016.17c.025.256.051.277.352.286.34.01.393-.055.346-.42-.01-.087-.02-.588-.02-1.114a4.004 4.004 0 00-.047-1.093 1.667 1.667 0 01-.062-.31.398.398 0 00-.07-.238.725.725 0 01-.091-.148.637.637 0 00-.123-.166 21.469 21.469 0 01-.15-.146.473.473 0 00-.16-.092.836.836 0 01-.177-.086c-.081-.055-.096-.056-.607-.056h-.523l-.142.069m-2.556-.022a.52.52 0 01.183.07.393.393 0 00.132.062c.16.035.59.397.59.497a.399.399 0 00.083.132.298.298 0 01.083.17.77.77 0 00.076.229 2.594 2.594 0 01-.017 1.464.544.544 0 00-.06.17.332.332 0 01-.104.232.213.213 0 00-.062.092 1.63 1.63 0 01-.582.524.692.692 0 00-.155.078 2.055 2.055 0 01-1.069.025 9.798 9.798 0 00-.213-.111.832.832 0 01-.198-.139c-.077-.082-.216-.156-.253-.133a6.264 6.264 0 00-.025.897c0 1.044.021.97-.27.969-.147 0-.206-.011-.245-.042l-.052-.041-.01-2.234c-.008-1.413-.022-2.311-.038-2.446-.04-.32.005-.37.328-.37.218 0 .264.05.264.284 0 .256.04.283.183.121a1.552 1.552 0 01.288-.275.35.35 0 01.167-.082.339.339 0 00.15-.058 1.41 1.41 0 01.826-.085m3.611.002a.567.567 0 01.167.069.462.462 0 00.157.06 1.053 1.053 0 01.53.54 4.264 4.264 0 01.147 1.748 6.4 6.4 0 00.035.987c.06.289.02.35-.23.346-.264-.004-.352-.075-.352-.285 0-.138-.06-.168-.145-.074a.274.274 0 01-.09.077c-.013 0-.042.027-.066.06a.36.36 0 01-.15.097.533.533 0 00-.155.08 1.488 1.488 0 01-1.113-.014.248.248 0 00-.096-.057.298.298 0 01-.107-.083.337.337 0 00-.1-.083c-.012 0-.022-.015-.022-.033a.19.19 0 00-.056-.089c-.087-.089-.104-.137-.122-.36a1.425 1.425 0 01.091-.805 1.828 1.828 0 01.503-.464.879.879 0 00.164-.088.326.326 0 01.198-.062 1.138 1.138 0 00.28-.059 2.004 2.004 0 01.641-.108c.29 0 .345-.073.254-.33a2.173 2.173 0 01-.062-.2 1.227 1.227 0 00-.337-.365 2.16 2.16 0 00-1.054.044.483.483 0 01-.264.09c-.021 0-.057-.04-.081-.088l-.06-.127c-.034-.07.094-.233.202-.26.053-.014.16-.047.238-.074a2.262 2.262 0 011.055-.09m1.76.029c-.098.05-.097.396.003.489a.42.42 0 01.093.267.31.31 0 00.068.148.415.415 0 01.084.204.383.383 0 00.074.189.374.374 0 01.073.15c.027.162.035.184.093.253a.375.375 0 01.075.186.336.336 0 00.069.175.481.481 0 01.083.208.553.553 0 00.097.235.267.267 0 01.068.174.354.354 0 00.07.193.608.608 0 01.086.211.447.447 0 00.122.257.676.676 0 01-.04.536.311.311 0 00-.072.11.327.327 0 01-.074.114.58.58 0 00-.096.148.178.178 0 01-.08.091.2.2 0 00-.086.085.178.178 0 01-.09.081.584.584 0 00-.15.096.292.292 0 01-.13.074.195.195 0 00-.106.066.6.6 0 01-.105.091c-.052.031-.057.299-.008.418a.364.364 0 00.52.068.331.331 0 01.134-.086.432.432 0 00.153-.093.824.824 0 01.136-.105c.03-.015.054-.043.054-.061s.029-.048.064-.065a.225.225 0 00.09-.078.669.669 0 01.101-.123.265.265 0 00.077-.11.293.293 0 01.071-.114.285.285 0 00.071-.124.174.174 0 01.057-.095.302.302 0 00.11-.215.15.15 0 01.058-.105.4.4 0 00.098-.184.586.586 0 01.073-.172.344.344 0 00.09-.226.327.327 0 01.06-.154.305.305 0 00.096-.24.237.237 0 01.06-.165.64.64 0 00.096-.234.544.544 0 01.068-.187.267.267 0 00.085-.188c0-.071.069-.251.096-.251.03 0 .07-.14.07-.24a.178.178 0 01.047-.134.554.554 0 00.123-.31.378.378 0 01.077-.179.295.295 0 00.07-.18.365.365 0 01.075-.196c.06-.073.07-.101.093-.268a.306.306 0 01.061-.144.237.237 0 00.005-.282c-.034-.031-.093-.04-.283-.04h-.24l-.118.094c-.13.102-.135.114-.16.31a.394.394 0 01-.071.196c-.055.065-.067.105-.094.31-.008.061-.024.112-.035.112-.035 0-.093.154-.12.318a.533.533 0 01-.06.197c-.059.06-.076.109-.093.274a.387.387 0 01-.052.188c-.06.05-.084.117-.106.286a.425.425 0 01-.066.212.466.466 0 00-.075.16c-.046.17-.093.184-.094.026a.344.344 0 00-.06-.15.671.671 0 01-.083-.239c-.03-.188-.043-.225-.1-.289a.41.41 0 01-.064-.183.544.544 0 00-.083-.226.544.544 0 01-.083-.223.357.357 0 00-.069-.185.32.32 0 01-.066-.14.56.56 0 00-.109-.31.252.252 0 01-.06-.16.546.546 0 00-.104-.304.343.343 0 01-.058-.107c-.045-.155-.45-.239-.653-.136m.567.114a.298.298 0 01.061.11.645.645 0 00.07.145.592.592 0 01.071.206.474.474 0 00.058.179.658.658 0 01.108.29.417.417 0 00.06.156.842.842 0 01.085.22.833.833 0 00.088.221.729.729 0 01.08.219.705.705 0 00.083.22.527.527 0 01.07.22.856.856 0 00.079.26 1.303 1.303 0 01.088.201.48.48 0 00.048.115c.022.024.095-.074.095-.128a.655.655 0 01.07-.17.899.899 0 00.086-.26.734.734 0 01.073-.228.846.846 0 00.08-.238 1.092 1.092 0 01.094-.273.572.572 0 00.072-.228.54.54 0 01.069-.221.926.926 0 00.086-.247.928.928 0 01.086-.246.576.576 0 00.068-.2.442.442 0 01.177-.32c.187-.12.647-.032.535.102a.745.745 0 00-.058.19.594.594 0 01-.08.21.502.502 0 00-.075.182.922.922 0 01-.098.24.409.409 0 00-.069.192.334.334 0 01-.055.166.599.599 0 00-.11.312.292.292 0 01-.056.145.786.786 0 00-.093.23.925.925 0 01-.1.247.358.358 0 00-.06.167.34.34 0 01-.056.158.603.603 0 00-.111.307.257.257 0 01-.059.136.409.409 0 00-.074.168.67.67 0 01-.084.206.787.787 0 00-.09.202.765.765 0 01-.095.205.47.47 0 00-.073.152.243.243 0 01-.053.107 1.12 1.12 0 00-.106.182c-.03.062-.065.114-.079.114s-.047.05-.073.11a.473.473 0 01-.106.156.156.156 0 00-.059.074 1.044 1.044 0 01-.28.254.157.157 0 00-.067.05.59.59 0 01-.14.098 1.035 1.035 0 00-.162.104c-.2.168-.461-.01-.467-.319 0-.047.165-.193.285-.25a1.687 1.687 0 00.671-.667.616.616 0 01.101-.152.8.8 0 00-.01-.668.903.903 0 01-.099-.228.643.643 0 00-.085-.195.287.287 0 01-.056-.136c0-.07-.068-.251-.095-.251-.026 0-.048-.063-.072-.212a.434.434 0 00-.067-.178.62.62 0 01-.086-.192.865.865 0 00-.088-.209.762.762 0 01-.082-.214.446.446 0 00-.068-.173.325.325 0 01-.083-.22.345.345 0 00-.06-.152.924.924 0 01-.098-.237.68.68 0 00-.095-.217c-.07-.085-.08-.266-.015-.316a.873.873 0 01.55.017m-6.686.346a.29.29 0 00-.098.06.383.383 0 01-.133.068 1.054 1.054 0 00-.482.543 1.037 1.037 0 01-.066.205 2.584 2.584 0 00-.006 1.145.673.673 0 01.06.186 1.192 1.192 0 00.394.463.294.294 0 01.108.065l.078.065h.381c.372 0 .384-.001.465-.06a1.315 1.315 0 01.15-.094.487.487 0 00.13-.114l.13-.155a.27.27 0 00.065-.108.68.68 0 01.077-.167l.077-.133.009-.466c.009-.475-.015-.705-.079-.757a.381.381 0 01-.064-.138 1.375 1.375 0 00-.428-.48.406.406 0 01-.123-.066 1.273 1.273 0 00-.645-.062m.5.056a.586.586 0 00.235.119.817.817 0 01.272.255c.015.03.044.054.062.054.02 0 .045.04.06.1.04.157.074.231.116.255a3.314 3.314 0 01-.013 1.162.479.479 0 00-.081.165.457.457 0 01-.08.163 5.47 5.47 0 00-.144.16.706.706 0 01-.196.156c-.056.025-.101.056-.101.069 0 .106-.67.091-.787-.018a.32.32 0 00-.115-.067.574.574 0 01-.173-.136c-.063-.066-.14-.148-.173-.18a.203.203 0 01-.06-.131 1.49 1.49 0 00-.047-.25 2.197 2.197 0 010-.917 1.585 1.585 0 00.047-.272.234.234 0 01.06-.155.795.795 0 00.096-.146.265.265 0 01.09-.105.571.571 0 00.115-.095.207.207 0 01.114-.067c.061 0 .191-.064.191-.094a.981.981 0 01.511-.025m-4.824.594c-.024.026-.038.053-.031.06s.031-.01.055-.036.038-.054.031-.06-.031.01-.055.036m-2.055.16a.095.095 0 00.06.073c.055.025.058.024.037-.015-.042-.08-.097-.112-.097-.059m1.946.004c-.063.065-.077.128-.02.092.043-.027.085-.106.066-.123-.004-.004-.025.01-.046.031m-1.804.192c.029.054.07.083.089.063.017-.016-.063-.11-.093-.11-.012 0-.01.021.004.047m1.62.049a.142.142 0 01-.123.071c-.074 0-.096.04-.035.063.034.013.192-.104.233-.174.037-.062-.023-.03-.075.04m-1.405.218a.07.07 0 00.025.056c.041.026.047-.001.01-.05-.03-.04-.034-.041-.035-.006m10.198.127c-.31.024-.375.036-.435.081a.765.765 0 01-.183.088c-.197.064-.313.24-.377.575a.778.778 0 00.178.553.935.935 0 00.997.023c.21-.171.285-.263.31-.375a.559.559 0 01.073-.17c.045-.063.05-.102.05-.403v-.332l-.111-.038a.665.665 0 00-.125-.035c-.007.002-.177.017-.377.033m-10.102.007a.187.187 0 00.093.147c.042.022.044.02.02-.047-.013-.04-.038-.072-.056-.072a.051.051 0 01-.043-.03c-.01-.022-.012-.022-.014.002m10.583.051c.082.032.09.418.013.662a1.045 1.045 0 00-.047.209.175.175 0 01-.062.11.488.488 0 00-.096.119c-.018.036-.05.065-.07.065a.19.19 0 00-.093.057.947.947 0 01-.85.03.281.281 0 00-.1-.087c-.084-.031-.128-.385-.076-.615a.527.527 0 01.366-.415.407.407 0 00.158-.064 1.716 1.716 0 01.857-.07m-10.442.159c0 .036.117.17.118.136a.25.25 0 00-.059-.095c-.032-.038-.06-.057-.06-.041m.19.387c0 .14.03.155.066.036.02-.068.019-.09-.01-.12-.051-.051-.055-.046-.055.084m-.101.24a.083.083 0 00-.042.06c0 .044.039.023.072-.04.028-.052.027-.053-.03-.02m-.502.653c-.026.066-.017.09.02.058.04-.032.05-.095.015-.095-.012 0-.028.017-.035.037m1.39.025c-.025.055-.024.06.012.047.044-.017.151.043.151.085 0 .027.07.089.101.09.043.002.01-.053-.098-.165-.135-.14-.13-.137-.166-.057m-.101.126c-.031.025-.05.053-.04.062.022.022.06-.005.091-.061.031-.058.02-.059-.051-.001m.383.13a.311.311 0 00.106.165c.05.02.047.012-.035-.091-.039-.05-.07-.082-.07-.073m.19.32a.12.12 0 00.055.081c.053.035.055.034.046-.016-.014-.073-.102-.13-.102-.065m18.056.264c.062 0 .19.135.215.227a.913.913 0 00.094.196.719.719 0 01.089.207.587.587 0 00.07.178.778.778 0 01.082.221 1.525 1.525 0 00.082.262 1.418 1.418 0 01.08.301 5.2 5.2 0 00.062.333 3.312 3.312 0 01-.17 1.789 1.28 1.28 0 01-.104.22.43.43 0 00-.065.114 3.516 3.516 0 01-1.453 1.297c-.046.018-.15.063-.233.1a.9.9 0 01-.186.068 1.166 1.166 0 00-.207.068 2.02 2.02 0 01-.335.096c-.09.016-.224.045-.297.066a12.026 12.026 0 01-3.352.023 4.525 4.525 0 00-.475-.084 1.736 1.736 0 01-.808-.258c0-.039-.018-.057-.065-.067-.131-.029-.14-.04-.054-.068a.2.2 0 00.105-.076.235.235 0 01.142-.082c.09-.026.129-.05.152-.1.026-.055.046-.065.127-.065.117 0 .187-.035.187-.094 0-.036.023-.049.113-.062a.272.272 0 00.177-.084.18.18 0 01.147-.069c.067 0 .095-.016.147-.083.05-.067.08-.083.146-.083a.146.146 0 00.132-.062.376.376 0 01.127-.096.301.301 0 00.118-.092.12.12 0 01.115-.06.208.208 0 00.156-.082.22.22 0 01.146-.083.099.099 0 00.092-.05.315.315 0 01.13-.093.378.378 0 00.144-.105.12.12 0 01.11-.061.224.224 0 00.146-.071l.176-.167a.356.356 0 01.144-.095.183.183 0 00.1-.06.182.182 0 01.095-.059.335.335 0 00.13-.095.373.373 0 01.123-.095c.016 0 .052-.032.08-.071a.238.238 0 01.106-.085.253.253 0 00.105-.071.162.162 0 01.086-.058.871.871 0 00.208-.168 1.353 1.353 0 01.226-.19.158.158 0 00.077-.081.081.081 0 01.072-.06.122.122 0 00.089-.07.175.175 0 01.103-.081c.081-.017.064 0 .958-.889.857-.852.85-.845.903-.95.021-.042.048-.077.06-.077s.031-.032.045-.072.041-.07.062-.07a.133.133 0 00.078-.049c.023-.026.055-.042.073-.035a.24.24 0 00.072.012m-17.723.226c0 .039.063.075.088.05.017-.016-.037-.086-.067-.086-.012 0-.021.016-.021.036m2.412 1.347a.349.349 0 00.114.067.082.082 0 01.06.07c.007.045 0 .052-.035.037a.833.833 0 00-.115-.034c-.047-.01-.074-.033-.079-.064-.004-.033-.038-.057-.112-.079-.116-.034-.137-.065-.053-.079a.267.267 0 01.22.082m.328.248c.025.025-.006.055-.044.04-.019-.007-.028-.022-.021-.034a.04.04 0 01.065-.006m.169.142c.043.016.027.057-.023.057a.035.035 0 01-.035-.036c0-.04.005-.042.058-.021m.307.2c-.017.018-.051.019-.106.003l-.08-.023.105-.002c.075-.002.099.005.081.023m.192.167a.061.061 0 01-.095-.005c-.023-.038.041-.071.078-.04.017.013.024.034.017.045m.476.281a.028.028 0 01-.011.038c-.036.022-.101-.007-.083-.036a.06.06 0 01.094-.002m6.31 2.853c.026.017.006.023-.071.021-.089-.002-.097-.005-.048-.02.081-.027.079-.027.12 0m6.782-.002c.016.025-.195.062-.219.038-.026-.026.048-.06.13-.06a.136.136 0 01.09.022"
              fill="#b6cbe2"/>
    </g>
</svg>
