<svg xmlns="http://www.w3.org/2000/svg" role="img" viewBox="0 0 38 24" width="38" height="24" aria-labelledby="pi-dropp"><title id="pi-dropp">Dropp</title><path fill="#000" opacity=".07" d="M35 0H3C1.3 0 0 1.3 0 3v18c0 1.7 1.4 3 3 3h32c1.7 0 3-1.3 3-3V3c0-1.7-1.4-3-3-3z"/><path fill="#fff" d="M35 1c1.1 0 2 .9 2 2v18c0 1.1-.9 2-2 2H3c-1.1 0-2-.9-2-2V3c0-1.1.9-2 2-2h32"/><g stroke-width="1.144"><path fill="#fefefe" opacity="1" d="M24.558 17.577H1.83V6.423h34.338v11.154h-11.61m-7.543-9.973c-.988 1.105-1.972 2.213-2.966 3.312-.532.59-.864 1.255-.872 2.028-.013 1.291.645 2.253 1.802 2.894 1.47.814 3.014.865 4.569.213 1.023-.429 1.766-1.134 2.087-2.154.362-1.153.038-2.172-.81-3.06-.081-.086-.139-.105-.253-.053-.397.18-.808.197-1.224.06-.752-.25-1.163-1.066-.538-1.736.078-.084.15-.173.23-.268l-.781-.871c-.26-.29-.518-.581-.784-.88-.158.176-.302.335-.46.515M6.669 9.705c-.123-.083-.237-.18-.37-.248-1.07-.552-2.518-.218-3.187.782-.81 1.21-.847 2.484-.135 3.74.665 1.172 2.285 1.516 3.439.758.266-.175.468-.437.698-.658l.049.904h.929V6.681H6.996v3.384c-.116-.13-.211-.236-.327-.36m23.052 3.564v4.054h1.1v-3.004c.157.129.32.287.506.413 1.111.748 2.838.432 3.568-.7.76-1.181.8-2.432.108-3.652-.9-1.586-3.242-1.516-4.17-.213-.03.04-.064.077-.12.145l-.055-.982h-.937v3.94M26.24 9.216c-.07-.005-.14-.012-.21-.015-.931-.032-1.69.27-2.218 1.01-.02.029-.028.064-.042.096l-.06-.037-.053-.94h-.93v7.99h1.086v-3.1c.068.08.097.125.137.16.171.147.326.322.522.434 1.064.612 2.904.39 3.648-1.131.335-.685.404-1.409.303-2.149-.165-1.212-.967-2.14-2.183-2.318m-14.772 1.71c.37-.62.95-.836 1.68-.735v-.973c-1.037-.108-1.65.391-2.038 1.225l-.058-.017v-1.1h-1.09v5.654h1.248v-.19c0-.929-.002-1.858 0-2.787.001-.367.058-.724.258-1.077m8.698-.363c.094-.035.194-.061.28-.108.406-.222.554-.668.297-1.01-.254-.337-.556-.643-.852-.98-.296.338-.59.642-.846.973-.239.307-.133.735.2.964.27.184.57.218.921.161z"/><path fill="#27c3ee" opacity="1" d="M17.022 7.593c.151-.17.295-.328.453-.503l.784.879.781.871c-.08.095-.152.184-.23.268-.625.67-.214 1.487.538 1.735.416.138.827.121 1.224-.059.114-.052.172-.033.254.053.847.888 1.171 1.907.809 3.06-.32 1.02-1.064 1.725-2.087 2.154-1.555.652-3.1.601-4.569-.213-1.157-.64-1.815-1.603-1.802-2.894.008-.773.34-1.439.872-2.028.994-1.1 1.978-2.207 2.973-3.323m-.048 3.19c-.387.434-.78.863-1.158 1.302-.562.651-.496 1.458.152 2.036.646.576 1.799.694 2.599.283.883-.454 1.353-1.52.47-2.435-.318-.331-.61-.684-.917-1.026-.21-.235-.425-.468-.648-.714l-.498.554z"/><path fill="#0a0b0d" opacity="1" d="M6.68 9.714c.105.115.2.222.316.351V6.681h1.096v8.302h-.93l-.048-.904c-.23.221-.432.483-.698.658-1.154.758-2.774.414-3.44-.759-.711-1.255-.674-2.53.136-3.74.669-.999 2.116-1.333 3.188-.781.132.068.246.165.38.257m-1.995.43a1.65 1.65 0 00-.84.842c-.325.732-.356 1.483-.07 2.23.311.809 1.034 1.207 1.872 1.067.788-.131 1.346-.794 1.352-1.612.004-.399.01-.798-.005-1.197-.039-1.085-1.219-1.775-2.309-1.33z"/><path fill="#090a0c" opacity="1" d="M29.72 13.251v-3.92h.938l.054.981c.057-.068.092-.105.12-.145.929-1.303 3.271-1.373 4.17.213.692 1.22.654 2.47-.107 3.651-.73 1.133-2.457 1.449-3.568.7-.187-.125-.35-.283-.506-.412v3.004h-1.1V13.25m2.802 1.084c.7-.01 1.232-.3 1.533-.886.43-.833.44-1.694.02-2.534a1.664 1.664 0 00-1.713-.891c-.892.132-1.54.843-1.544 1.693v.965c.001.933.67 1.596 1.704 1.653z"/><path fill="#08090b" opacity="1" d="M26.257 9.218c1.2.177 2 1.105 2.166 2.317.1.74.032 1.464-.303 2.149-.744 1.52-2.584 1.743-3.648 1.131-.196-.112-.351-.287-.522-.435-.04-.034-.07-.08-.137-.159v3.1h-1.086v-7.99h.93l.054.94.059.037c.014-.032.022-.067.042-.095.529-.741 1.287-1.043 2.218-1.01.07.002.14.009.227.015m.482 4.662c.113-.15.254-.287.335-.451.405-.82.429-1.654.025-2.478-.28-.573-.774-.913-1.456-.938-.678-.024-1.194.277-1.543.815a1.719 1.719 0 00-.29.98c.008.422-.045.859.055 1.262.338 1.358 1.994 1.614 2.874.81z"/><path fill="#0a0b0d" opacity="1" d="M11.463 10.94c-.195.34-.252.697-.253 1.064-.002.929 0 1.858 0 2.787v.19H9.962V9.327h1.09v1.1l.058.017c.388-.834 1-1.333 2.038-1.225v.973c-.73-.101-1.31.114-1.685.748z"/><path fill="#29c3ee" opacity="1" d="M20.15 10.567c-.334.054-.636.02-.904-.164-.334-.23-.44-.657-.201-.964.256-.33.55-.635.846-.973.296.337.598.643.852.98.257.342.11.788-.296 1.01-.087.047-.187.073-.296.111z"/><path fill="#fefeff" opacity="1" d="M16.983 10.774l.49-.545c.222.246.436.479.647.714.306.342.599.695.917 1.026.883.916.413 1.981-.47 2.435-.8.411-1.953.293-2.599-.283-.648-.578-.714-1.385-.152-2.036.378-.44.771-.868 1.167-1.311z"/><path fill="#fdfdfd" opacity="1" d="M4.7 10.139c1.075-.44 2.255.25 2.294 1.335.015.399.009.798.005 1.197-.006.818-.564 1.48-1.352 1.612-.838.14-1.56-.258-1.872-1.068-.286-.746-.255-1.497.07-2.23a1.65 1.65 0 01.854-.846zm27.804 4.196c-1.015-.057-1.684-.72-1.685-1.653v-.965c.004-.85.652-1.56 1.544-1.693a1.664 1.664 0 011.713.89c.42.84.41 1.702-.02 2.535-.301.585-.834.876-1.552.886zm-5.774-.445c-.871.794-2.527.538-2.865-.82-.1-.403-.047-.84-.055-1.261a1.718 1.718 0 01.29-.98c.35-.54.865-.84 1.543-.816.682.025 1.176.365 1.456.938.404.824.38 1.659-.025 2.478-.081.164-.222.302-.345.46z"/></g></svg>