<svg xmlns="http://www.w3.org/2000/svg" xmlns:xlink="http://www.w3.org/1999/xlink" fill="none" viewBox="0 0 38 24" height="24" width="38" aria-labelledby="pi-duitnow" role="img"><title id="pi-duitnow">DuitNow</title><defs><path id="pi-duitnow-b" fill="#fff" d="M0 0h38v24H0z"/></defs><g clip-path="url(#pi-duitnow-a)"><use xlink:href="#pi-duitnow-b"/><mask id="pi-duitnow-c" width="38" height="24" x="0" y="0" maskUnits="userSpaceOnUse" style="mask-type:luminance"><path fill="#fff" d="M38 0H0v24h38V0Z"/></mask><g mask="url(#pi-duitnow-c)"><path fill="#E5155F" d="M18.95 3.407c-3.334 0-6.037 2.714-6.037 6.061v6.061h6.038c3.334 0 6.038-2.714 6.038-6.061s-2.704-6.06-6.038-6.06Z"/><path fill="#11100E" d="M10.721 19.811c.215 0 .405-.044.565-.13a.907.907 0 0 0 .368-.358c.087-.153.13-.333.13-.536s-.043-.383-.13-.537a.909.909 0 0 0-.368-.357 1.172 1.172 0 0 0-.565-.13h-.504v2.048h.504Zm-.816.596a.303.303 0 0 1-.307-.308v-2.62c0-.083.03-.16.087-.219a.298.298 0 0 1 .22-.093h.864c.347 0 .647.079.892.236.245.155.431.36.555.608a1.726 1.726 0 0 1 0 1.552 1.52 1.52 0 0 1-.555.608 1.634 1.634 0 0 1-.892.236h-.864Zm5.96-2.672a.325.325 0 0 1-.235-.099.328.328 0 0 1-.098-.236v-.017c0-.09.034-.172.098-.236a.326.326 0 0 1 .235-.098h.026c.09 0 .171.034.235.098a.328.328 0 0 1 .098.236v.017c0 .09-.034.172-.098.236a.325.325 0 0 1-.235.1h-.026Zm.009 2.672a.303.303 0 0 1-.307-.308v-1.851c0-.084.03-.16.087-.22a.298.298 0 0 1 .22-.093.306.306 0 0 1 .311.313v1.85a.309.309 0 0 1-.312.308Zm-1.164-2.494a.31.31 0 0 0-.312.309v1.176c0 .288-.249.418-.48.418-.252 0-.47-.124-.47-.412v-1.182a.304.304 0 0 0-.307-.309.309.309 0 0 0-.311.309v1.225c0 .172.034.332.103.476.07.148.174.267.308.354a.86.86 0 0 0 .472.13c.19 0 .357-.028.477-.14.096-.09.146-.2.174-.202.027 0 .032.017.034.034.007.093.03.16.089.218.058.059.133.09.218.09.083 0 .159-.03.218-.088a.298.298 0 0 0 .094-.22v-1.877a.304.304 0 0 0-.307-.309Z"/><path fill="#E5155F" d="M21 20.407a.406.406 0 0 1-.319-.162l-.002-.004-1.455-2.035V20.1a.308.308 0 0 1-.312.308.302.302 0 0 1-.218-.09.302.302 0 0 1-.09-.218v-2.5c0-.109.04-.203.115-.281a.382.382 0 0 1 .279-.119h.056c.088 0 .217.03.327.174l.001.003 1.449 1.948v-1.812a.31.31 0 0 1 .307-.313c.084 0 .16.032.22.092s.092.136.092.221v2.5a.383.383 0 0 1-.118.28.388.388 0 0 1-.28.115H21Zm6.215 0a.403.403 0 0 1-.38-.26l-.002-.005-.365-1.088-.367 1.09v.003a.407.407 0 0 1-.757 0l-.643-1.793a.328.328 0 0 1-.02-.11c0-.085.032-.161.094-.22a.326.326 0 0 1 .23-.09c.065 0 .126.017.18.051a.276.276 0 0 1 .12.144l.416 1.306.41-1.264a.333.333 0 0 1 .127-.17.358.358 0 0 1 .21-.066.36.36 0 0 1 .209.065.33.33 0 0 1 .127.17l.41 1.265.416-1.305a.27.27 0 0 1 .119-.145.34.34 0 0 1 .18-.05c.09 0 .17.03.23.09a.297.297 0 0 1 .095.218.33.33 0 0 1-.02.11l-.643 1.795a.397.397 0 0 1-.376.259Z"/><path fill="#11100E" d="M17.606 20.407c-.478 0-.742-.243-.742-.684V18.5h-.025a.28.28 0 0 1-.282-.283.277.277 0 0 1 .282-.283h.026v-.319a.306.306 0 0 1 .31-.31.305.305 0 0 1 .309.31v.32h.371a.277.277 0 0 1 .282.283.284.284 0 0 1-.079.197.274.274 0 0 1-.203.085h-.371v1.188c0 .094.06.19.133.194.087.005.33-.01.4.028a.237.237 0 0 1 .117.192.276.276 0 0 1-.16.252l-.002.001-.003.002c-.126.058-.22.05-.363.05Z"/><path fill="#fff" d="M18.95 10.966h-1.49V9.468c0-.827.668-1.497 1.492-1.497s1.492.67 1.492 1.497c0 .828-.668 1.498-1.492 1.498Zm0-4.85a3.346 3.346 0 0 0-3.34 3.352v3.353h3.34a3.346 3.346 0 0 0 3.34-3.353 3.346 3.346 0 0 0-3.34-3.353Z"/><path fill="#E5155F" d="M23.21 19.817a.685.685 0 0 1 0-1.372c.377 0 .682.307.682.686a.685.685 0 0 1-.683.686Zm0-1.96c-.702 0-1.27.57-1.27 1.274 0 .704.568 1.275 1.27 1.275.7 0 1.27-.57 1.27-1.275 0-.704-.57-1.275-1.27-1.275Z"/></g></g><defs><clipPath id="pi-duitnow-a"><use xlink:href="#pi-duitnow-b"/></clipPath></defs></svg>