<svg xmlns="http://www.w3.org/2000/svg" role="img" viewBox="0 0 38 24" width="38" height="24" aria-labelledby="pi-easycredit-ratenkauf"><title id="pi-easycredit-ratenkauf">easyCredit Ratenkauf</title><path fill="#000" opacity=".07" d="M35 0H3C1.3 0 0 1.3 0 3v18c0 1.7 1.4 3 3 3h32c1.7 0 3-1.3 3-3V3c0-1.7-1.4-3-3-3z"/><path fill="#fff" d="M35 1c1.1 0 2 .9 2 2v18c0 1.1-.9 2-2 2H3c-1.1 0-2-.9-2-2V3c0-1.1.9-2 2-2h32"/><path d="M7.112,8.895c-.367.166-.764.253-1.167.258-.787,0-.987-.315-1.002-.715h2.644c.051-.23.082-.463.093-.698,0-1.13-.737-1.625-1.717-1.625-1.661-.001-2.234,1.331-2.234,2.197,0,.936.672,1.703,1.918,1.703.442-.009.88-.079,1.303-.208l.163-.912ZM5.022,7.709c.049-.214.171-.404.345-.539.174-.135.388-.205.608-.199.472,0,.63.337.63.738h-1.583ZM15.022,8.94c.33.143.686.216,1.045.215.207,0,.723-.02.723-.323,0-.53-1.54-.258-1.54-1.489,0-.873,1.017-1.224,1.882-1.224.421.012.839.086,1.239.219l-.273.845c-.325-.139-.676-.21-1.03-.208-.287,0-.601.065-.601.323,0,.416,1.61.387,1.61,1.324s-.78,1.379-1.742,1.392c-.529.006-1.056-.059-1.567-.194l.253-.88ZM18.932,12.156l-.143.766h.015c.207-.436.623-.852,1.153-.852.184-.003.367.028.539.094l-.294,1.138c-.165-.128-.35-.157-.595-.157-.539,0-.862.472-.959,1.024l-.365,1.717h-1.293l.795-3.729h1.147ZM23.717,14.85c-.367.165-.764.253-1.166.258-.788,0-.988-.315-1.002-.715h2.641c.051-.231.082-.466.093-.703,0-1.13-.737-1.625-1.717-1.625-1.66,0-2.234,1.332-2.234,2.198,0,.937.673,1.703,1.919,1.703.442-.006.881-.074,1.304-.202l.163-.915ZM21.628,13.665c.05-.214.173-.404.347-.538.174-.134.39-.203.609-.196.473,0,.63.336.63.737l-1.587-.003ZM27.223,15.886h1.185c.015-.15.037-.336.079-.558l.993-4.81h-1.262l-.451,2.24h-.011c-.194-.401-.646-.687-1.293-.687-1.274,0-1.889,1.139-1.889,2.363,0,.837.586,1.539,1.388,1.539.717,0,1.024-.265,1.353-.68h.01l-.102.594ZM26.515,14.984c-.408,0-.616-.307-.616-.766,0-.58.365-1.159.97-1.159.431,0,.615.387.615.754.004.498-.361,1.171-.969,1.171ZM30.047,10.603h1.303l-.2.945h-1.303l.2-.945ZM29.718,12.156h1.303l-.773,3.729h-1.306l.776-3.729ZM31.365,12.156h.737l.18-.801,1.36-.365-.258,1.166h.887l-.157.903h-.937l-.222,1.037c-.056.212-.092.428-.108.646-.003.056.005.112.025.165.02.052.051.1.091.139.04.039.088.07.141.089.053.019.109.027.165.023.144-.012.284-.048.416-.108l-.143.852c-.265.044-.533.068-.802.071-.658,0-1.185-.323-1.185-1.102.01-.259.048-.516.114-.766l.222-1.045h-.686l.161-.904ZM22.876,6.199l-2.446,4.223-.142.227c-.379.658-.803,1.096-1.626,1.096-.261.002-.521-.028-.774-.09l.202-.957c.137.039.28.059.422.059.367,0,.564-.264.754-.615l.138-.227-.823-3.715h1.31l.336,2.354h.014l1.266-2.354h1.368ZM16.591,15.83c-.383.093-.776.143-1.17.147-1.611,0-2.534-.952-2.534-2.326,0-1.664,1.277-3.232,3.152-3.232.831,0,1.345.099,1.644.197l-.202.96c-.4-.122-.817-.179-1.235-.169-1.338,0-1.985,1.332-1.985,2.277,0,.888.565,1.303,1.366,1.303.41.006.817-.077,1.192-.244l-.228,1.088ZM11.085,9.065c-.451,0-.721-.336-.721-.788,0-.576.444-1.23,1.077-1.23.433,0,.711.318.711.769,0,.604-.45,1.249-1.068,1.249ZM14.636,8.87c-.183.769-.63,1.449-1.264,1.922-.634.472-1.414.707-2.203.662s-1.538-.366-2.114-.906c-.577-.541-.944-1.267-1.039-2.052-.095-.785.089-1.578.52-2.241.431-.663,1.081-1.153,1.837-1.384.756-.231,1.569-.19,2.297.118.728.308,1.325.862,1.686,1.565.118.254.178.532.176.812,0,1.185-1.121,1.7-1.601,1.7-.019.003-.039,0-.058-.005-.019-.006-.035-.017-.049-.03-.014-.014-.024-.031-.031-.049-.006-.018-.008-.038-.006-.058.01-.11.033-.218.067-.323l.528-2.334h-.807l-.119.454c-.117-.19-.281-.346-.476-.454-.195-.108-.415-.163-.638-.161-1.095,0-1.978,1.047-1.978,2.314.003.934.695,1.581,1.492,1.581.393,0,.729-.231.97-.499h.019c-.002.068.011.135.037.197.026.063.064.119.113.166.049.047.107.083.17.106.064.023.131.033.199.029.429,0,1.574-.316,2.272-1.131ZM17.806,17.759c-.042.069-.104.124-.178.156-.086.038-.18.057-.275.055h-.251l.152-.784h.193c.111-.008.221.023.312.087.036.03.065.069.084.112.019.043.027.091.024.138.002.083-.019.165-.061.236ZM18.307,17.877c.065-.118.097-.25.094-.385.003-.136-.034-.27-.108-.385-.076-.11-.183-.194-.308-.241-.158-.059-.325-.087-.493-.083h-.683l-.473,2.44h.523l.167-.862h.367l.349.862h.584l-.46-.97c.069-.029.134-.065.195-.108.101-.07.186-.162.247-.269ZM19.775,18.583c-.036.073-.09.136-.157.181-.065.045-.143.069-.222.068-.061.001-.122-.014-.176-.043-.051-.029-.092-.072-.117-.125-.028-.06-.041-.126-.04-.192-.001-.087.018-.174.057-.252.037-.073.092-.136.159-.181.063-.044.138-.067.216-.068.062-.001.123.014.177.044.05.03.09.073.115.125.029.059.043.125.042.191.003.087-.016.174-.054.252ZM19.929,17.848c-.017-.047-.04-.091-.07-.13-.049-.061-.112-.11-.183-.141-.079-.034-.165-.05-.251-.049-.115,0-.228.027-.331.079-.105.053-.199.126-.276.215-.08.096-.144.205-.186.323-.045.124-.068.255-.067.387-.003.134.024.267.079.39.047.106.124.197.221.262.099.063.215.096.333.093.079,0,.157-.014.231-.043.073-.029.139-.071.196-.124.034-.032.063-.068.087-.108l-.029.226h.459l.323-1.644h-.465l-.07.264ZM21.575,17.58h.36l-.081.411h-.36l-.089.469c-.011.058-.02.107-.029.147-.008.035-.013.071-.013.108-.002.024.002.048.009.071.008.023.02.044.036.062.017.016.037.028.059.036.022.008.045.011.069.01.053,0,.105-.01.154-.029l-.064.379c-.101.021-.203.033-.306.034-.129.008-.256-.03-.359-.108-.044-.038-.078-.085-.1-.139-.022-.053-.032-.111-.029-.169,0-.015-.001-.03,0-.045.001-.015.003-.032.006-.054.003-.022.008-.047.014-.079s.014-.07.023-.114l.108-.579h-.315l.084-.41h.312l.061-.323.532-.141-.084.462ZM23.176,18.196c0,.012,0,.024,0,.036h-.688c.026-.096.078-.183.15-.252.035-.033.076-.058.121-.075.045-.017.093-.025.141-.023.038-.004.076,0,.111.013.036.013.068.033.095.06.027.027.047.059.06.095.013.036.017.074.013.111,0,.011-.001.023-.002.036ZM22.921,17.528c-.128-.001-.256.024-.374.074-.112.047-.213.117-.296.206-.085.09-.152.196-.196.311-.048.125-.072.257-.071.391-.002.111.019.221.061.323.038.092.098.175.173.24.08.069.174.12.275.151.119.037.243.055.367.053.04,0,.081-.003.121-.008l.138-.019c.047-.008.096-.017.142-.029.046-.012.091-.024.129-.037l.067-.408c-.078.04-.16.069-.246.087-.08.018-.161.028-.242.029-.133.011-.266-.019-.381-.085-.041-.034-.074-.077-.097-.126s-.034-.102-.033-.155h1.134c.016-.054.027-.108.034-.164.007-.054.01-.109.011-.164.005-.09-.01-.181-.042-.265-.033-.084-.083-.161-.147-.224-.145-.128-.334-.193-.527-.182ZM25.3,17.559c.061.024.117.06.163.106.092.106.139.243.131.384,0,.038.003.073,0,.108-.003.034-.008.071-.014.108l-.186.96h-.498l.177-.909c.009-.023.009-.044.009-.062v-.053c.003-.031,0-.062-.01-.091-.009-.029-.025-.057-.045-.08-.022-.021-.049-.037-.077-.046-.029-.01-.059-.013-.09-.011-.056,0-.11.015-.157.044-.05.032-.091.076-.12.128-.036.063-.06.132-.072.204l-.17.877h-.498l.318-1.644h.478l-.037.233c.062-.108.158-.192.274-.238.073-.031.152-.046.232-.046.066-.003.131.007.192.031ZM26.927,18.354l.638.871h-.595l-.507-.746-.144.746h-.498l.504-2.601h.498l-.305,1.572.652-.615h.613l-.856.774ZM28.964,18.583c-.036.073-.09.135-.157.181-.065.045-.143.069-.222.068-.062.001-.123-.014-.177-.043-.049-.03-.088-.073-.113-.125-.027-.06-.041-.126-.04-.192,0-.087.019-.174.058-.252.037-.073.091-.135.158-.181.065-.044.142-.068.221-.068.061-.002.122.014.176.044.05.029.091.073.116.125.028.06.042.125.041.191,0,.088-.021.174-.061.252ZM29.118,17.848c-.017-.047-.041-.091-.071-.13-.048-.062-.111-.11-.183-.141-.079-.034-.164-.05-.25-.049-.115,0-.228.027-.331.079-.105.053-.199.126-.276.215-.081.096-.144.205-.186.323-.046.124-.069.255-.068.387-.002.134.024.267.079.39.048.106.125.197.222.262.099.063.214.096.332.093.079,0,.158-.014.232-.043.072-.029.139-.071.196-.124.034-.032.063-.068.087-.108l-.03.226h.46l.323-1.644h-.47l-.066.264ZM31.117,17.58h.507l-.318,1.641h-.469l.043-.277c-.046.093-.116.173-.203.229-.095.065-.208.099-.323.098-.067.004-.133-.006-.195-.03-.062-.024-.119-.061-.166-.108-.092-.106-.139-.244-.13-.385,0-.072.008-.145.023-.215l.186-.954h.508l-.177.902c-.008.038-.012.077-.013.116,0,.152.069.227.215.227.041,0,.081-.008.118-.024.037-.017.07-.041.097-.072.066-.079.108-.175.123-.277l.172-.873ZM32.721,17.436l-.027.144h.409l-.078.41h-.411l-.235,1.234h-.506l.237-1.234h-.273l.077-.41h.275l.04-.209c.1-.509.365-.764.796-.764.072,0,.145.007.215.023.056.011.111.032.161.06l-.07.418c-.074-.041-.157-.062-.241-.061-.045-.002-.089.005-.131.021-.042.016-.08.041-.111.072-.069.084-.113.187-.127.295Z" fill="#0066b3"/></svg>
