<svg xmlns="http://www.w3.org/2000/svg" width="38" height="24" fill="none" aria-labelledby="pi-echelon_financing" role="img" viewBox="0 0 38 24"><title id="pi-echelon_financing">Echelon Finance</title><path fill="#fff" d="M0 0h38v24H0z"/><path fill="#C4152F" d="M22.865 6.392a4.126 4.126 0 0 0-4.313-3.474 4.13 4.13 0 0 0-3.79 3.17c-.043.171-.043.353-.11.523v.851c.06.157.06.328.098.492.4 1.701 1.713 2.904 3.487 3.183.036.006.079-.012.103.037h.82c.019-.037.05-.025.079-.025 2.322-.236 4.004-2.442 3.627-4.757zm-1.018 1.915c-.444 1.008-1.191 1.677-2.261 1.95-2.09.528-4.12-1.063-4.112-3.22a3.303 3.303 0 0 1 3.03-3.3c.856-.072 1.628.17 2.315.681.097.073.121.122.048.236-.723 1.076-1.44 2.157-2.156 3.233-.152.225-.377.286-.578.158s-.237-.364-.085-.59c.565-.85 1.13-1.707 1.696-2.557.096-.152.096-.164-.074-.219-.977-.334-1.87-.17-2.612.54-.73.7-.966 1.568-.68 2.54.291.984.984 1.574 1.986 1.769 1.033.2 2.084-.304 2.607-1.221.066-.116.134-.16.26-.152.171.011.341 0 .511 0 .157 0 .164.005.104.15v.002zm-.547-1.04a.684.684 0 0 1-.675-.691.683.683 0 0 1 1.175-.474c.127.13.198.304.198.486a.7.7 0 0 1-.698.68z"/><path fill="#1F303D" d="M32.805 15.564v-2.755c0-.086.022-.1.1-.093q.15.01.301 0c.065-.008.079.021.079.078v3.528c0 .072-.014.101-.093.101-.129-.007-.273.036-.372-.015-.1-.05-.165-.186-.236-.293-.609-.816-1.225-1.632-1.833-2.454-.014-.022-.035-.044-.07-.087v2.734c0 .094-.03.115-.116.108a2 2 0 0 0-.293 0c-.064 0-.086-.014-.078-.079.006-.165 0-.33 0-.494V12.81c0-.086.021-.101.099-.101.13.008.272-.036.38.015.1.05.165.193.236.293.616.83 1.238 1.653 1.853 2.483 0 .022.015.036.043.065zm-7.593-1.003a1.854 1.854 0 0 1 1.575-1.824c.744-.114 1.395.08 1.882.673.86 1.037.322 2.627-1.002 2.963-.845.214-1.71-.1-2.168-.81a1.9 1.9 0 0 1-.287-1zm.487.03c.007.042.007.122.021.193a1.447 1.447 0 0 0 1.804 1.138 1.404 1.404 0 0 0 1.044-1.646c-.128-.63-.708-1.102-1.38-1.116a1.455 1.455 0 0 0-1.49 1.431zm-12.503-.03V12.81c0-.079.022-.1.093-.094.1.008.208.008.308 0 .064-.006.086.015.086.086v1.453c0 .08.014.107.1.107a94 94 0 0 1 1.925 0c.086 0 .1-.021.1-.1V12.81c0-.072.022-.094.094-.086q.138.009.279 0c.086-.008.114.014.114.107-.008.91 0 1.825 0 2.734v.773c0 .064-.014.093-.086.086a2 2 0 0 0-.314 0c-.073.007-.087-.022-.087-.086v-1.41c0-.079-.014-.107-.1-.107a88 88 0 0 1-1.925 0c-.086 0-.1.028-.093.1v1.41c0 .064-.014.1-.086.093a2 2 0 0 0-.314 0c-.072.007-.087-.022-.087-.086q-.009-.894-.007-1.775zm-8.452 0v-1.76c0-.064.014-.085.086-.085h2.376c.072 0 .086.021.086.086q-.01.15 0 .3c.007.072-.022.086-.086.086H5.345c-.086 0-.107.022-.1.108.007.314.007.622 0 .937 0 .071.014.093.086.093h1.653c.071 0 .1.014.093.093a2 2 0 0 0 0 .294c.007.078-.028.086-.093.086-.55 0-1.095 0-1.646-.008-.086 0-.1.022-.1.1.007.33.007.652 0 .98 0 .08.014.1.093.1.644-.006 1.288 0 1.925-.006.071 0 .1.014.093.093a2 2 0 0 0 0 .28c.007.071-.014.092-.086.092h-1.79c-.206 0-.414-.008-.629 0-.086 0-.1-.021-.1-.1zm13.161 0V12.81c0-.079.022-.094.093-.094h2.355c.064 0 .093.008.086.079a2 2 0 0 0 0 .308c0 .065-.022.079-.079.079q-.936.002-1.86-.007c-.087 0-.108.021-.108.107.007.308.007.615 0 .93 0 .08.021.093.1.093.551 0 1.095 0 1.646-.007.08 0 .1.021.093.093a2 2 0 0 0 0 .28c.008.078-.021.092-.093.092q-.814.002-1.639-.007c-.086 0-.107.029-.1.108q.01.493 0 .987c0 .065.014.086.086.086h1.89c.142 0 .142 0 .142.15 0 .072-.007.144 0 .207.015.094-.028.108-.107.108h-2.326c-.165 0-.165 0-.165-.164-.014-.551-.014-1.11-.014-1.675zm-9.332 0c0-.908.673-1.688 1.574-1.83a1.99 1.99 0 0 1 1.668.465c.058.05.064.078.015.135-.072.079-.13.157-.194.244-.036.05-.058.042-.1.007a1.47 1.47 0 0 0-1.166-.415c-.666.05-1.239.6-1.296 1.237a1.41 1.41 0 0 0 1.08 1.51c.516.122.974-.007 1.367-.35.058-.05.086-.05.13.008.057.078.128.15.193.214.035.036.035.058 0 .093-.551.486-1.189.673-1.904.472-.688-.2-1.124-.658-1.31-1.352-.021-.079-.029-.157-.043-.23-.014-.064-.014-.136-.014-.207zm13.462.009v-1.761c0-.072.014-.093.086-.093q.14.01.293 0c.093-.008.108.028.108.107v2.827c0 .064.006.136 0 .2-.015.093.028.108.107.108.458-.008.923 0 1.38-.008.094 0 .116.03.108.108a2 2 0 0 0 0 .272c.008.072-.021.086-.086.086h-1.89c-.078 0-.099-.014-.099-.1-.008-.58-.008-1.167-.008-1.747h.001zm12.08-2.297a.276.276 0 0 1-.28.278.273.273 0 0 1-.278-.273c0-.157.122-.278.286-.278.15 0 .272.115.272.273m-.121.163c.092-.114.086-.243-.008-.329a.24.24 0 0 0-.322.014.22.22 0 0 0 .015.315c.086.08.215.08.3-.006-.05 0-.093-.015-.108-.058-.006-.022-.021-.036-.05-.028-.028.006-.028.028-.028.05 0 .036-.022.036-.05.036-.036 0-.029-.03-.036-.05v-.116c0-.143.029-.164.172-.128.007 0 .021 0 .029.007.064.029.092.086.058.136-.052.065-.009.1.028.157m-.166-.157c.037 0 .065-.007.065-.05 0-.036-.028-.043-.057-.043-.036 0-.05.007-.05.043.007.035.007.058.043.05z"/><path fill="#C4152F" d="M4.837 21.046q-.052.002-.071-.029c-.015-.021-.03-.043-.03-.07v-2.885c0-.036.008-.057.03-.079.014-.021.043-.029.07-.029h1.805c.035 0 .057.008.078.03.022.02.029.042.029.078v.179c0 .035-.007.057-.029.07a.13.13 0 0 1-.078.03H5.167v1.03h1.388c.035 0 .058.008.078.03.022.02.03.042.03.078v.179c0 .028-.008.057-.03.071-.021.021-.043.029-.078.029H5.167v1.188c0 .028-.008.057-.03.071-.02.022-.042.03-.078.03h-.223zm3.336 0c-.037 0-.058-.007-.072-.029-.014-.021-.03-.043-.03-.07v-2.893c0-.028.008-.057.03-.07.014-.022.043-.03.072-.03h.235q.053-.002.072.03c.014.02.029.042.029.07v2.892c0 .028-.008.057-.03.071-.013.022-.042.03-.071.03h-.235zm1.968 0c-.037 0-.058-.007-.072-.029-.015-.021-.03-.043-.03-.07v-2.885c0-.036.008-.057.03-.079.014-.021.043-.029.07-.029h.202c.035 0 .064.008.078.022.015.015.03.029.03.036l1.466 2.254v-2.204c0-.036.008-.058.029-.079.014-.021.043-.029.072-.029h.214c.036 0 .057.008.079.03.021.02.028.042.028.078v2.877c0 .029-.007.058-.028.072a.1.1 0 0 1-.072.028h-.215q-.052.002-.07-.028l-.037-.037-1.46-2.232v2.205c0 .028-.007.057-.028.071-.022.021-.043.029-.079.029h-.208zm3.52 0a.1.1 0 0 1-.064-.029c-.021-.021-.029-.035-.029-.064 0-.014 0-.028.008-.05l1.094-2.855a.3.3 0 0 1 .05-.072.16.16 0 0 1 .093-.028h.301c.043 0 .072.006.093.028a.2.2 0 0 1 .05.072l1.088 2.855a.1.1 0 0 1 .007.05.1.1 0 0 1-.028.064.1.1 0 0 1-.065.03h-.222q-.056.002-.078-.03a.2.2 0 0 1-.036-.05l-.244-.63h-1.437l-.244.63c0 .015-.015.029-.03.05a.12.12 0 0 1-.078.03h-.23zm.709-1.08h1.195l-.595-1.568-.6 1.567zm3.32 1.08q-.051.002-.072-.029c-.014-.021-.028-.043-.028-.07v-2.885c0-.036.007-.057.029-.079.014-.021.042-.029.071-.029h.201q.055 0 .079.022c.014.015.028.029.028.036l1.467 2.254v-2.204c0-.036.008-.058.03-.079.013-.021.042-.029.07-.029h.215c.036 0 .058.008.079.03.021.02.028.042.028.078v2.877c0 .029-.007.058-.028.072a.13.13 0 0 1-.072.028h-.214q-.053.002-.072-.028l-.036-.037-1.46-2.232v2.204c0 .028-.007.057-.029.071-.021.022-.043.03-.078.03h-.208zm4.838.043q-.406 0-.672-.15a.95.95 0 0 1-.401-.423 1.4 1.4 0 0 1-.15-.63c0-.12-.008-.25-.008-.386s0-.272.008-.4c.007-.237.057-.452.15-.63a1.03 1.03 0 0 1 .4-.422c.18-.1.401-.15.673-.15q.301 0 .537.085c.15.058.28.129.38.222.19.174.302.416.314.673q0 .042-.021.064c-.022.014-.043.028-.072.028h-.243a.12.12 0 0 1-.072-.021c-.021-.014-.035-.043-.043-.079q-.075-.343-.278-.472a.94.94 0 0 0-.51-.129c-.235 0-.429.064-.564.2-.136.136-.215.351-.222.645-.007.243-.007.486 0 .744.007.293.086.508.222.644s.33.2.565.2q.302 0 .509-.129.203-.128.278-.471.012-.056.043-.08a.12.12 0 0 1 .072-.021h.243a.13.13 0 0 1 .072.021q.032.023.021.065a1.1 1.1 0 0 1-.086.365.95.95 0 0 1-.228.315q-.167.151-.38.222c-.158.071-.336.1-.537.1m2.691-.043q-.051.002-.071-.029c-.015-.021-.029-.043-.029-.07v-2.893c0-.028.007-.057.029-.07.014-.022.042-.03.071-.03h.237q.051-.002.07.03c.016.02.03.042.03.07v2.892c0 .028-.008.057-.03.071-.013.022-.042.03-.07.03h-.237zm1.961 0q-.052.002-.07-.029c-.016-.021-.03-.043-.03-.07v-2.885c0-.036.007-.057.03-.079.013-.021.041-.029.07-.029h.2q.056 0 .08.022c.013.015.028.029.028.036l1.467 2.254v-2.204c0-.036.007-.058.029-.079.014-.021.043-.029.071-.029h.215c.036 0 .058.008.08.03.02.02.027.042.027.078v2.877c0 .029-.007.058-.029.072-.021.014-.043.028-.07.028h-.216q-.051.002-.071-.028l-.036-.037-1.46-2.232v2.204c0 .028-.007.057-.028.071-.022.022-.043.03-.08.03h-.206zm4.86.043q-.398-.002-.666-.143a1.04 1.04 0 0 1-.415-.408 1.5 1.5 0 0 1-.165-.622c0-.13-.006-.265-.006-.416 0-.143 0-.286.006-.415.014-.236.065-.443.166-.623.092-.172.235-.307.414-.407.186-.093.401-.144.665-.144q.312.001.538.086c.15.058.279.136.379.222q.149.14.221.28c.05.099.072.186.08.257q0 .043-.022.064c-.015.015-.043.022-.072.022h-.258a.14.14 0 0 1-.064-.014c-.014-.008-.028-.036-.036-.065a.73.73 0 0 0-.371-.408.9.9 0 0 0-.387-.071q-.352 0-.565.193-.218.19-.23.63a15 15 0 0 0 0 .787q.022.442.236.636c.144.13.33.194.566.194a.95.95 0 0 0 .415-.086c.12-.057.22-.15.286-.265a.9.9 0 0 0 .107-.458v-.186h-.665c-.029 0-.058-.007-.072-.028-.021-.022-.028-.043-.028-.08v-.142c0-.036.007-.058.028-.079a.1.1 0 0 1 .072-.029h.995q.052-.002.071.03a.13.13 0 0 1 .03.078v.422c0 .244-.05.451-.151.63a1 1 0 0 1-.43.415c-.21.098-.44.147-.673.143z"/></svg>