<svg xmlns="http://www.w3.org/2000/svg" fill="none" viewBox="0 0 38 24" height="24" width="38" aria-labelledby="pi-echelon_financing" role="img"><title id="pi-echelon_financing">Echelon Finance</title><path fill="#fff" d="M0 0h38v24H0z"/><path fill="#C4152F" d="M22.865 6.392a4.126 4.126 0 0 0-4.313-3.474 4.133 4.133 0 0 0-3.79 3.17c-.043.171-.043.353-.11.523v.851c.06.157.06.328.098.492.4 1.701 1.713 2.904 3.487 3.183.036.006.079-.012.103.037h.82c.019-.037.05-.025.079-.025 2.322-.236 4.004-2.442 3.627-4.757h-.001Zm-1.018 1.915c-.444 1.008-1.191 1.677-2.261 1.95-2.09.528-4.12-1.063-4.112-3.22a3.303 3.303 0 0 1 3.03-3.3c.856-.072 1.628.17 2.315.681.097.073.121.122.048.236-.723 1.076-1.44 2.157-2.156 3.233-.152.225-.377.286-.578.158-.2-.128-.237-.364-.085-.59.565-.85 1.13-1.707 1.696-2.557.096-.152.096-.164-.074-.219-.977-.334-1.87-.17-2.612.54-.73.7-.966 1.568-.68 2.54.291.984.984 1.574 1.986 1.769 1.033.2 2.084-.304 2.607-1.221.066-.116.134-.16.26-.152.171.011.341 0 .511 0 .157 0 .164.005.104.15v.002h.001Zm-.547-1.04a.684.684 0 0 1-.675-.691.683.683 0 0 1 1.175-.474c.127.13.198.304.198.486a.702.702 0 0 1-.698.68v-.001Z"/><path fill="#1F303D" d="M32.805 15.564v-2.755c0-.086.022-.1.1-.093.1.007.201.007.301 0 .065-.008.079.021.079.078v3.528c0 .072-.014.101-.093.101-.129-.007-.273.036-.372-.015-.1-.05-.165-.186-.236-.293-.609-.816-1.225-1.632-1.833-2.454-.014-.022-.035-.044-.07-.087v2.734c0 .094-.03.115-.116.108a1.99 1.99 0 0 0-.293 0c-.064 0-.086-.014-.078-.079.006-.165 0-.33 0-.494V12.81c0-.086.021-.101.099-.101.13.008.272-.036.38.015.1.05.165.193.236.293.616.83 1.238 1.653 1.853 2.483 0 .022.015.036.043.065v-.001Zm-7.593-1.003a1.854 1.854 0 0 1 1.575-1.824c.744-.114 1.395.08 1.882.673.86 1.037.322 2.627-1.002 2.963-.845.214-1.71-.1-2.168-.81a1.877 1.877 0 0 1-.287-1v-.002Zm.487.03c.007.042.007.122.021.193a1.447 1.447 0 0 0 1.804 1.138 1.404 1.404 0 0 0 1.044-1.646c-.128-.63-.708-1.102-1.38-1.116a1.455 1.455 0 0 0-1.49 1.431h.001Zm-12.503-.03V12.81c0-.079.022-.1.093-.094.1.008.208.008.308 0 .064-.006.086.015.086.086v1.453c0 .08.014.107.1.107a93.579 93.579 0 0 1 1.925 0c.086 0 .1-.021.1-.1V12.81c0-.072.022-.094.094-.086.092.006.185.006.279 0 .086-.008.114.014.114.107-.008.91 0 1.825 0 2.734v.773c0 .064-.014.093-.086.086a2.285 2.285 0 0 0-.314 0c-.073.007-.087-.022-.087-.086v-1.41c0-.079-.014-.107-.1-.107a88.23 88.23 0 0 1-1.925 0c-.086 0-.1.028-.093.1v1.41c0 .064-.014.1-.086.093a2.285 2.285 0 0 0-.314 0c-.072.007-.087-.022-.087-.086-.007-.595-.007-1.188-.007-1.775v-.002Zm-8.452 0v-1.76c0-.064.014-.085.086-.085h2.376c.072 0 .086.021.086.086-.007.1-.007.2 0 .3.007.072-.022.086-.086.086H5.345c-.086 0-.107.022-.1.108.007.314.007.622 0 .937 0 .071.014.093.086.093h1.653c.071 0 .1.014.093.093a2.01 2.01 0 0 0 0 .294c.007.078-.028.086-.093.086-.55 0-1.095 0-1.646-.008-.086 0-.1.022-.1.1.007.33.007.652 0 .98 0 .08.014.1.093.1.644-.006 1.288 0 1.925-.006.071 0 .1.014.093.093a1.818 1.818 0 0 0 0 .28c.007.071-.014.092-.086.092h-1.79c-.206 0-.414-.008-.629 0-.086 0-.1-.021-.1-.1v-1.77.001Zm13.161 0V12.81c0-.079.022-.094.093-.094h2.355c.064 0 .093.008.086.079a2.23 2.23 0 0 0 0 .308c0 .065-.022.079-.079.079-.623 0-1.245 0-1.86-.007-.087 0-.108.021-.108.107.007.308.007.615 0 .93 0 .08.021.093.1.093.551 0 1.095 0 1.646-.007.08 0 .1.021.093.093a1.843 1.843 0 0 0 0 .28c.008.078-.021.092-.093.092-.544 0-1.088 0-1.639-.007-.086 0-.107.029-.1.108.007.329.007.658 0 .987 0 .065.014.086.086.086h1.89c.142 0 .142 0 .142.15 0 .072-.007.144 0 .207.015.094-.028.108-.107.108h-2.326c-.165 0-.165 0-.165-.164-.014-.551-.014-1.11-.014-1.675v-.002Zm-9.332 0c0-.908.673-1.688 1.574-1.83a1.985 1.985 0 0 1 1.668.465c.058.05.064.078.015.135-.072.079-.13.157-.194.244-.036.05-.058.042-.1.007a1.47 1.47 0 0 0-1.166-.415c-.666.05-1.239.6-1.296 1.237a1.412 1.412 0 0 0 1.08 1.51c.516.122.974-.007 1.367-.35.058-.05.086-.05.13.008.057.078.128.15.193.214.035.036.035.058 0 .093-.551.486-1.189.673-1.904.472-.688-.2-1.124-.658-1.31-1.352-.021-.079-.029-.157-.043-.23-.014-.064-.014-.136-.014-.207v-.001Zm13.462.009v-1.761c0-.072.014-.093.086-.093.092.007.192.007.293 0 .093-.008.108.028.108.107v2.827c0 .064.006.136 0 .2-.015.093.028.108.107.108.458-.008.923 0 1.38-.008.094 0 .116.03.108.108a1.74 1.74 0 0 0 0 .272c.008.072-.021.086-.086.086h-1.89c-.078 0-.099-.014-.099-.1-.008-.58-.008-1.167-.008-1.747h.001v.001Zm12.08-2.297a.276.276 0 0 1-.28.278.273.273 0 0 1-.278-.273c0-.157.122-.278.286-.278.15 0 .272.115.272.273Zm-.121.163c.092-.114.086-.243-.008-.329a.24.24 0 0 0-.322.014.218.218 0 0 0 .015.315c.086.08.215.08.3-.006-.05 0-.093-.015-.108-.058-.006-.022-.021-.036-.05-.028-.028.006-.028.028-.028.05 0 .036-.022.036-.05.036-.036 0-.029-.03-.036-.05v-.116c0-.143.029-.164.172-.128.007 0 .021 0 .029.007.064.029.092.086.058.136-.052.065-.009.1.028.157Zm-.166-.157c.037 0 .065-.007.065-.05 0-.036-.028-.043-.057-.043-.036 0-.05.007-.05.043.007.035.007.058.043.05h-.001Z"/><path fill="#C4152F" d="M4.837 21.046c-.036 0-.057-.007-.071-.029-.015-.021-.03-.043-.03-.07v-2.885c0-.036.008-.057.03-.079.014-.021.043-.029.07-.029h1.805c.035 0 .057.008.078.03.022.02.029.042.029.078v.179c0 .035-.007.057-.029.07a.13.13 0 0 1-.078.03H5.167v1.03h1.388c.035 0 .058.008.078.03.022.02.03.042.03.078v.179c0 .028-.008.057-.03.071-.021.021-.043.029-.078.029H5.167v1.188c0 .028-.008.057-.03.071-.02.022-.042.03-.078.03h-.223l.001-.001Zm3.336 0c-.037 0-.058-.007-.072-.029-.014-.021-.03-.043-.03-.07v-2.893c0-.028.008-.057.03-.07.014-.022.043-.03.072-.03h.235c.036 0 .058.008.072.03.014.02.029.042.029.07v2.892c0 .028-.008.057-.03.071-.013.022-.042.03-.071.03h-.235v-.001Zm1.968 0c-.037 0-.058-.007-.072-.029-.015-.021-.03-.043-.03-.07v-2.885c0-.036.008-.057.03-.079.014-.021.043-.029.07-.029h.202c.035 0 .064.008.078.022.015.015.03.029.03.036l1.466 2.254v-2.204c0-.036.008-.058.029-.079.014-.021.043-.029.072-.029h.214c.036 0 .057.008.079.03.021.02.028.042.028.078v2.877c0 .029-.007.058-.028.072a.092.092 0 0 1-.072.028h-.215c-.035 0-.057-.007-.07-.028a6.454 6.454 0 0 0-.037-.037l-1.46-2.232v2.205c0 .028-.007.057-.028.071-.022.021-.043.029-.079.029h-.208l.001-.001Zm3.52 0a.09.09 0 0 1-.064-.029c-.021-.021-.029-.035-.029-.064 0-.014 0-.028.008-.05l1.094-2.855a.256.256 0 0 1 .05-.072.16.16 0 0 1 .093-.028h.301c.043 0 .072.006.093.028a.188.188 0 0 1 .05.072l1.088 2.855a.121.121 0 0 1 .007.05.09.09 0 0 1-.028.064.089.089 0 0 1-.065.03h-.222c-.036 0-.064-.008-.078-.03a.216.216 0 0 1-.036-.05l-.244-.63h-1.437l-.244.63c0 .015-.015.029-.03.05a.115.115 0 0 1-.078.03h-.23l.001-.001Zm.709-1.08h1.195l-.595-1.568-.6 1.567v.001Zm3.32 1.08c-.035 0-.057-.007-.072-.029-.014-.021-.028-.043-.028-.07v-2.885c0-.036.007-.057.029-.079.014-.021.042-.029.071-.029h.201c.036 0 .064.008.079.022.014.015.028.029.028.036l1.467 2.254v-2.204c0-.036.008-.058.03-.079.013-.021.042-.029.07-.029h.215c.036 0 .058.008.079.03.021.02.028.042.028.078v2.877c0 .029-.007.058-.028.072a.128.128 0 0 1-.072.028h-.214c-.036 0-.058-.007-.072-.028l-.036-.037-1.46-2.232v2.204c0 .028-.007.057-.029.071-.021.022-.043.03-.078.03h-.208v-.001Zm4.838.043c-.272 0-.494-.05-.672-.15a.95.95 0 0 1-.401-.423 1.434 1.434 0 0 1-.15-.63c0-.12-.008-.25-.008-.386s0-.272.008-.4c.007-.237.057-.452.15-.63a1.03 1.03 0 0 1 .4-.422c.18-.1.401-.15.673-.15.201 0 .38.028.537.085.15.058.28.129.38.222.19.174.302.416.314.673 0 .028-.007.05-.021.064-.022.014-.043.028-.072.028h-.243a.121.121 0 0 1-.072-.021c-.021-.014-.035-.043-.043-.079-.05-.228-.143-.386-.278-.472a.94.94 0 0 0-.51-.129c-.235 0-.429.064-.564.2-.136.136-.215.351-.222.645-.007.243-.007.486 0 .744.007.293.086.508.222.644s.33.2.565.2c.2 0 .372-.043.509-.129.135-.085.229-.242.278-.471.008-.037.022-.065.043-.08a.12.12 0 0 1 .072-.021h.243a.13.13 0 0 1 .072.021c.021.015.029.037.021.065a1.129 1.129 0 0 1-.086.365.947.947 0 0 1-.228.315c-.11.1-.239.176-.38.222-.158.071-.336.1-.537.1Zm2.691-.043c-.035 0-.057-.007-.071-.029-.015-.021-.029-.043-.029-.07v-2.893c0-.028.007-.057.029-.07.014-.022.042-.03.071-.03h.237c.035 0 .057.008.07.03.016.02.03.042.03.07v2.892c0 .028-.008.057-.03.071-.013.022-.042.03-.07.03h-.237v-.001Zm1.961 0c-.035 0-.058-.007-.07-.029-.016-.021-.03-.043-.03-.07v-2.885c0-.036.007-.057.03-.079.013-.021.041-.029.07-.029h.2c.036 0 .065.008.08.022.013.015.028.029.028.036l1.467 2.254v-2.204c0-.036.007-.058.029-.079.014-.021.043-.029.071-.029h.215c.036 0 .058.008.08.03.02.02.027.042.027.078v2.877c0 .029-.007.058-.029.072-.021.014-.043.028-.07.028h-.216c-.035 0-.057-.007-.071-.028l-.036-.037-1.46-2.232v2.204c0 .028-.007.057-.028.071-.022.022-.043.03-.08.03h-.206l-.001-.001Zm4.86.043c-.265 0-.487-.05-.666-.143a1.036 1.036 0 0 1-.415-.408 1.539 1.539 0 0 1-.165-.622c0-.13-.006-.265-.006-.416 0-.143 0-.286.006-.415.014-.236.065-.443.166-.623.092-.172.235-.307.414-.407.186-.093.401-.144.665-.144.208 0 .387.03.538.086.15.058.279.136.379.222.1.093.172.186.221.28.05.099.072.186.08.257 0 .029-.008.05-.022.064-.015.015-.043.022-.072.022h-.258a.145.145 0 0 1-.064-.014c-.014-.008-.028-.036-.036-.065a.73.73 0 0 0-.371-.408.866.866 0 0 0-.387-.071c-.236 0-.422.064-.565.193-.144.128-.223.336-.23.63a14.75 14.75 0 0 0 0 .787c.015.294.093.508.236.636.144.13.33.194.566.194a.948.948 0 0 0 .415-.086c.12-.057.22-.15.286-.265a.884.884 0 0 0 .107-.458v-.186h-.665c-.029 0-.058-.007-.072-.028-.021-.022-.028-.043-.028-.08v-.142c0-.036.007-.058.028-.079a.093.093 0 0 1 .072-.029h.995c.036 0 .057.008.071.03a.13.13 0 0 1 .03.078v.422c0 .244-.05.451-.151.63a.999.999 0 0 1-.43.415c-.21.098-.44.147-.673.143h.001Z"/></svg>