<svg xmlns="http://www.w3.org/2000/svg" viewBox="0 0 38 24" width="38" height="24" role="img" aria-labelledby="pi-echelon_financing"><title id="pi-echelon_financing">Echelon Finance</title><path fill="#fff" d="M0 0h38v24H0z"/><path d="M23.94 5.213a4.993 4.993 0 00-5.22-4.205 5.002 5.002 0 00-4.588 3.838c-.051.206-.051.426-.132.632v1.03c.073.19.073.397.118.595.485 2.059 2.073 3.515 4.22 3.853.044.007.096-.015.125.044h.993c.022-.044.059-.03.095-.03 2.81-.286 4.846-2.955 4.39-5.757zM22.707 7.53c-.537 1.221-1.441 2.03-2.736 2.36-2.529.64-4.985-1.286-4.977-3.896A3.998 3.998 0 0118.662 2c1.036-.088 1.97.206 2.801.824.118.088.147.147.059.286-.875 1.302-1.743 2.61-2.61 3.912-.184.272-.456.346-.699.191-.242-.154-.287-.44-.103-.713.684-1.03 1.368-2.066 2.052-3.095.117-.184.117-.199-.089-.265-1.183-.405-2.264-.206-3.161.654-.883.846-1.17 1.897-.824 3.074.353 1.19 1.191 1.904 2.404 2.14 1.25.242 2.523-.368 3.155-1.478.08-.14.162-.192.316-.184.206.014.412 0 .618 0 .19 0 .198.007.125.183zm-.662-1.257a.828.828 0 01-.816-.838c0-.463.375-.824.838-.824.456.008.83.383.824.839a.85.85 0 01-.846.823z" fill="#C4152F"/><path d="M35.97 16.313v-.147-3.187c0-.104.026-.122.121-.113.121.009.243.009.364 0 .078-.009.095.026.095.095v4.27c0 .087-.017.122-.112.122-.156-.009-.33.043-.45-.018-.122-.06-.2-.225-.286-.355-.737-.987-1.482-1.975-2.218-2.97-.017-.027-.043-.053-.086-.105v3.309c0 .113-.035.139-.139.13a2.418 2.418 0 00-.355 0c-.078 0-.104-.017-.095-.095.008-.2 0-.399 0-.598V12.98c0-.104.026-.122.12-.122.157.01.33-.043.46.018.121.06.2.234.286.355.745 1.005 1.498 2 2.243 3.005 0 .026.017.044.052.078zM26.78 15.1a2.244 2.244 0 011.906-2.208c.9-.138 1.689.096 2.278.814 1.04 1.256.39 3.18-1.213 3.586-1.022.26-2.07-.121-2.624-.979a2.272 2.272 0 01-.347-1.212zm.59.036c.008.051.008.147.025.233a1.753 1.753 0 002.183 1.378c.9-.234 1.446-1.092 1.264-1.993-.155-.762-.857-1.333-1.671-1.35-.979-.01-1.784.744-1.802 1.732zM12.238 15.1V12.98c0-.095.026-.121.112-.113.122.009.252.009.373 0 .078-.008.104.018.104.104v1.758c0 .096.017.13.121.13.78-.008 1.559-.008 2.33 0 .104 0 .121-.026.121-.121v-1.758c0-.087.026-.113.113-.104.112.008.225.008.338 0 .104-.009.138.017.138.13-.009 1.1 0 2.208 0 3.308v.936c0 .078-.017.112-.104.104a2.785 2.785 0 00-.38 0c-.088.008-.105-.026-.105-.104v-1.706c0-.096-.017-.13-.121-.13-.78.008-1.56.008-2.33 0-.104 0-.121.034-.113.12v1.707c0 .078-.017.121-.104.113a2.785 2.785 0 00-.38 0c-.087.008-.105-.026-.105-.104-.008-.72-.008-1.438-.008-2.148zM2.009 15.1v-2.13c0-.078.017-.104.104-.104h2.875c.087 0 .104.026.104.104a2.55 2.55 0 000 .364c.009.087-.026.104-.104.104H2.736c-.104 0-.13.026-.121.13.009.38.009.753 0 1.134 0 .087.017.113.104.113h2c.087 0 .122.017.113.113a2.43 2.43 0 000 .355c.009.095-.034.104-.112.104-.667 0-1.326 0-1.992-.009-.104 0-.122.026-.122.121.009.399.009.789 0 1.187 0 .095.018.121.113.121.78-.008 1.559 0 2.33-.008.086 0 .121.017.112.112a2.2 2.2 0 000 .338c.009.087-.017.113-.104.113H2.892c-.251 0-.502-.01-.762 0-.104 0-.121-.026-.121-.122V15.1zM17.937 15.1V12.98c0-.095.026-.113.112-.113h2.85c.078 0 .113.009.104.095a2.69 2.69 0 000 .373c0 .078-.026.095-.095.095-.754 0-1.507 0-2.252-.008-.104 0-.13.026-.13.13.009.372.009.744 0 1.125 0 .096.026.113.121.113.667 0 1.325 0 1.992-.009.096 0 .122.026.113.113a2.215 2.215 0 000 .338c.009.095-.026.112-.113.112-.658 0-1.316 0-1.983-.008-.104 0-.13.034-.121.13.008.398.008.797 0 1.195 0 .078.017.104.104.104h2.286c.173 0 .173 0 .173.182 0 .086-.008.173 0 .25.018.113-.034.13-.13.13h-2.815c-.199 0-.199 0-.199-.198-.017-.667-.017-1.343-.017-2.027zM6.643 15.1c0-1.1.814-2.043 1.905-2.216.762-.122 1.43.069 2.018.563.07.06.078.095.018.164-.087.095-.156.19-.234.295-.044.06-.07.051-.122.008a1.78 1.78 0 00-1.411-.502c-.806.06-1.499.727-1.568 1.498-.087.91.528 1.637 1.308 1.828.623.147 1.178-.009 1.654-.425.07-.06.104-.06.156.01.07.094.156.181.234.259.043.043.043.07 0 .113-.667.588-1.438.814-2.304.571-.832-.242-1.36-.797-1.585-1.637-.026-.095-.035-.19-.052-.277-.017-.078-.017-.165-.017-.251zM22.935 15.11v-2.131c0-.087.017-.113.104-.113.112.009.233.009.355 0 .112-.009.13.035.13.13v3.421c0 .078.008.165 0 .243-.018.112.034.13.13.13.554-.009 1.117 0 1.671-.009.113 0 .139.035.13.13a2.102 2.102 0 000 .329c.009.087-.026.104-.104.104h-2.287c-.095 0-.12-.017-.12-.121-.01-.702-.01-1.412-.01-2.114zM37.555 12.33c0 .19-.147.337-.338.337a.33.33 0 01-.338-.33c0-.19.148-.337.347-.337.182 0 .329.139.329.33zm-.147.198c.112-.138.104-.294-.009-.398a.292.292 0 00-.39.017.264.264 0 00.018.381c.104.096.26.096.363-.008-.06 0-.112-.018-.13-.07-.008-.026-.026-.043-.06-.034-.035.008-.035.034-.035.06 0 .044-.026.044-.06.044-.044 0-.035-.035-.044-.06v-.14c0-.173.035-.199.208-.155.009 0 .026 0 .035.008.078.035.112.104.07.165-.062.078-.01.121.034.19zm-.2-.19c.044 0 .078-.009.078-.06 0-.044-.034-.053-.069-.053-.043 0-.06.009-.06.052.008.043.008.07.052.06z" fill="#1F303D"/><path d="M37.209 12.338c-.044.009-.044-.026-.044-.06 0-.044.018-.061.06-.053.036 0 .07.009.07.052-.009.052-.034.06-.086.06z" fill="#FDFDFD"/><path d="M2.121 22.948c-.043 0-.069-.009-.086-.035-.018-.026-.035-.052-.035-.086v-3.49c0-.044.009-.07.035-.096.017-.026.052-.035.086-.035h2.183c.043 0 .07.009.095.035.026.026.035.052.035.095v.217c0 .043-.009.069-.035.086a.157.157 0 01-.095.035H2.52v1.247H4.2c.043 0 .07.009.095.035.026.026.035.052.035.095v.217c0 .034-.009.069-.035.086-.026.026-.052.035-.095.035H2.52v1.438c0 .034-.009.069-.035.086-.026.026-.052.035-.095.035H2.12zM6.158 22.948c-.044 0-.07-.009-.087-.035-.017-.026-.035-.052-.035-.086v-3.5c0-.034.009-.069.035-.086.017-.026.052-.035.087-.035h.285c.044 0 .07.009.087.035.017.026.035.052.035.086v3.5c0 .034-.009.069-.035.086-.017.026-.052.035-.087.035h-.285zM8.54 22.948c-.044 0-.07-.009-.087-.035-.018-.026-.035-.052-.035-.086v-3.49c0-.044.009-.07.035-.096.017-.026.052-.035.086-.035h.243c.043 0 .078.009.095.026.018.018.035.035.035.044l1.775 2.728v-2.668c0-.043.01-.07.035-.095.017-.026.052-.035.087-.035h.26c.043 0 .069.009.095.035.026.026.034.052.034.095v3.482c0 .035-.008.07-.034.087a.111.111 0 01-.087.034h-.26c-.043 0-.069-.008-.086-.034a8.638 8.638 0 00-.044-.044L8.92 20.16v2.668c0 .034-.008.069-.034.086-.026.026-.052.035-.095.035h-.252zM12.8 22.948a.106.106 0 01-.077-.035c-.026-.026-.035-.043-.035-.078 0-.017 0-.034.009-.06l1.325-3.456a.311.311 0 01.06-.087.193.193 0 01.113-.034h.364c.052 0 .087.008.113.034.025.018.043.052.06.087l1.317 3.456a.148.148 0 01.008.06.106.106 0 01-.034.078.11.11 0 01-.078.035h-.269c-.043 0-.078-.009-.095-.035a.262.262 0 01-.043-.06l-.295-.763h-1.74l-.295.763c0 .017-.018.034-.035.06a.139.139 0 01-.095.035H12.8zm.858-1.308h1.447l-.72-1.897-.727 1.897zM17.677 22.948c-.043 0-.07-.009-.087-.035-.017-.026-.034-.052-.034-.086v-3.49c0-.044.008-.07.034-.096.018-.026.052-.035.087-.035h.243c.043 0 .077.009.095.026.017.018.034.035.034.044l1.776 2.728v-2.668c0-.043.009-.07.035-.095.017-.026.052-.035.086-.035h.26c.044 0 .07.009.095.035.026.026.035.052.035.095v3.482c0 .035-.009.07-.035.087-.025.017-.051.034-.086.034h-.26c-.043 0-.07-.008-.087-.034l-.043-.044-1.767-2.702v2.668c0 .034-.009.069-.035.086-.026.026-.052.035-.095.035h-.251zM23.532 23c-.329 0-.598-.06-.814-.182a1.15 1.15 0 01-.485-.511 1.734 1.734 0 01-.182-.762c0-.147-.009-.303-.009-.468 0-.165 0-.329.01-.485.008-.286.068-.546.181-.762.113-.217.277-.39.485-.511.216-.121.485-.182.814-.182.243 0 .46.035.65.104.182.07.338.156.459.268.121.113.216.243.277.381.06.14.104.286.104.434 0 .034-.009.06-.026.077-.026.018-.052.035-.087.035h-.294a.147.147 0 01-.087-.026c-.026-.017-.043-.052-.052-.095-.06-.277-.173-.468-.337-.572a1.137 1.137 0 00-.616-.156c-.285 0-.52.078-.684.243-.164.164-.26.424-.268.78-.009.294-.009.588 0 .9.008.355.104.615.268.78.165.164.399.242.684.242.243 0 .45-.052.616-.156.164-.104.277-.294.337-.571.009-.044.026-.078.052-.096a.147.147 0 01.087-.026h.294c.035 0 .061.01.087.026.026.018.035.044.026.078a1.365 1.365 0 01-.104.442c-.06.139-.156.269-.277.381a1.262 1.262 0 01-.46.269c-.19.086-.406.12-.649.12zM26.789 22.948c-.043 0-.07-.009-.087-.035-.017-.026-.034-.052-.034-.086v-3.5c0-.034.008-.069.034-.086.018-.026.052-.035.087-.035h.286c.043 0 .069.009.086.035.018.026.035.052.035.086v3.5c0 .034-.009.069-.035.086-.017.026-.052.035-.086.035h-.286zM29.162 22.948c-.043 0-.07-.009-.086-.035-.018-.026-.035-.052-.035-.086v-3.49c0-.044.008-.07.035-.096.017-.026.051-.035.086-.035h.243c.043 0 .078.009.095.026.017.018.035.035.035.044l1.775 2.728v-2.668c0-.043.009-.07.035-.095.017-.026.052-.035.086-.035h.26c.044 0 .07.009.096.035.026.026.034.052.034.095v3.482c0 .035-.009.07-.035.087-.026.017-.052.034-.086.034h-.26c-.043 0-.07-.008-.087-.034a8.638 8.638 0 00-.043-.044l-1.767-2.702v2.668c0 .034-.008.069-.034.086-.026.026-.052.035-.096.035h-.25zM35.043 23c-.32 0-.589-.06-.805-.173a1.254 1.254 0 01-.503-.494 1.861 1.861 0 01-.199-.753c0-.156-.008-.32-.008-.503 0-.173 0-.346.008-.502.017-.286.078-.537.2-.754.112-.208.285-.372.502-.493.225-.113.485-.174.805-.174.251 0 .468.035.65.104.182.07.338.165.459.269.121.112.208.225.268.338.061.12.087.225.096.311 0 .035-.009.061-.026.078-.018.018-.052.026-.087.026h-.312a.173.173 0 01-.078-.017c-.017-.009-.034-.043-.043-.078a.883.883 0 00-.45-.494 1.048 1.048 0 00-.468-.086c-.286 0-.511.078-.684.234-.174.155-.269.407-.278.762-.008.32-.008.632 0 .953.018.355.113.615.286.77.174.156.399.234.685.234.19 0 .355-.034.502-.104a.777.777 0 00.346-.32c.087-.147.13-.33.13-.555v-.225h-.805c-.035 0-.07-.008-.087-.034-.026-.026-.034-.052-.034-.096v-.173c0-.043.008-.07.034-.095a.111.111 0 01.087-.035h1.204c.043 0 .069.009.086.035a.158.158 0 01.035.095v.511c0 .295-.06.546-.182.762-.121.217-.294.39-.52.503a1.847 1.847 0 01-.814.173z" fill="#C4152F"/></svg>