<svg xmlns="http://www.w3.org/2000/svg" viewBox="0 0 38 24" width="38" height="24" role="img" aria-labelledby="pi-echelon"><title id="pi-echelon">Echelon Finance</title><rect width="38" height="24" fill="white"/><path d="M23.9409 5.21338C23.5292 2.66932 21.2939 0.867895 18.7205 1.0076C16.5146 1.12524 14.647 2.69138 14.1323 4.84574C14.0809 5.05162 14.0809 5.2722 14 5.47808C14 5.82366 14 6.16188 14 6.50746C14.0735 6.69863 14.0735 6.90451 14.1176 7.10304C14.6029 9.16181 16.1911 10.6177 18.3381 10.9559C18.3822 10.9632 18.4337 10.9412 18.4631 11C18.794 11 19.1249 11 19.4557 11C19.4778 10.9559 19.5146 10.9706 19.5513 10.9706C22.3601 10.6838 24.3968 8.01478 23.9409 5.21338ZM22.7057 7.5295C22.1689 8.75006 21.2645 9.55886 19.9704 9.88973C17.4411 10.5294 14.9853 8.603 14.9926 5.99277C14.9926 3.90459 16.5808 2.17669 18.6617 2.00022C19.6984 1.91199 20.6322 2.2061 21.4631 2.82373C21.5807 2.91196 21.6101 2.97078 21.5219 3.11049C20.6469 4.41193 19.7793 5.72072 18.9116 7.02216C18.7278 7.29421 18.4558 7.36774 18.2131 7.21333C17.9705 7.05892 17.9264 6.77216 18.1102 6.50011C18.794 5.47072 19.4778 4.43398 20.1616 3.4046C20.2793 3.22078 20.2793 3.20607 20.0734 3.1399C18.8896 2.7355 17.8087 2.93402 16.9117 3.79429C16.0294 4.63986 15.7426 5.69131 16.0882 6.86775C16.4411 8.0589 17.2793 8.77211 18.4925 9.0074C19.7425 9.25004 21.0145 8.63976 21.6469 7.5295C21.7278 7.38979 21.8086 7.33833 21.963 7.34568C22.1689 7.36038 22.3748 7.34568 22.5807 7.34568C22.7718 7.34568 22.7792 7.35303 22.7057 7.5295ZM22.0439 6.27217C21.5881 6.26482 21.2204 5.88983 21.2278 5.43396C21.2278 4.97074 21.6028 4.61045 22.066 4.61045C22.5219 4.6178 22.8968 4.99279 22.8895 5.44867C22.8748 5.90454 22.4924 6.27953 22.0439 6.27217Z" fill="#C4152F"/><path d="M35.97 16.3133C35.97 16.244 35.97 16.2094 35.97 16.166C35.97 15.1007 35.97 14.0353 35.97 12.9787C35.97 12.8747 35.996 12.8574 36.0913 12.8661C36.2125 12.8747 36.3338 12.8747 36.455 12.8661C36.533 12.8574 36.5503 12.892 36.5503 12.9613C36.5503 13.8708 36.5503 14.7802 36.5503 15.6897C36.5503 16.2007 36.5503 16.7204 36.5503 17.2314C36.5503 17.318 36.533 17.3527 36.4377 17.3527C36.2818 17.344 36.1086 17.396 35.9873 17.3353C35.8661 17.2747 35.7881 17.1101 35.7015 16.9802C34.9653 15.9928 34.2204 15.0054 33.4842 14.0094C33.4669 13.9834 33.4409 13.9574 33.3976 13.9054C33.3976 13.9747 33.3976 14.0094 33.3976 14.044C33.3976 15.1007 33.3976 16.1574 33.3976 17.2141C33.3976 17.3267 33.3629 17.3527 33.259 17.344C33.1464 17.3353 33.0251 17.3353 32.9039 17.344C32.8259 17.344 32.7999 17.3267 32.8086 17.2487C32.8173 17.0495 32.8086 16.8503 32.8086 16.6511C32.8086 15.4298 32.8086 14.1999 32.8086 12.9787C32.8086 12.8747 32.8346 12.8574 32.9299 12.8574C33.0858 12.8661 33.259 12.8141 33.3889 12.8747C33.5102 12.9354 33.5881 13.1086 33.6747 13.2298C34.4196 14.2346 35.1732 15.2306 35.918 16.2353C35.918 16.2613 35.9354 16.2786 35.97 16.3133Z" fill="#1F303D"/><path d="M26.7803 15.1008C26.7889 13.9922 27.5944 13.0567 28.6858 12.8922C29.5866 12.7536 30.3747 12.9875 30.9637 13.7063C32.0031 14.9622 31.3535 16.8851 29.7511 17.2922C28.7291 17.552 27.6811 17.1709 27.1267 16.3134C26.9015 15.9496 26.7803 15.5426 26.7803 15.1008ZM27.3692 15.1355C27.3779 15.1874 27.3779 15.2827 27.3952 15.3693C27.5858 16.3827 28.5732 17.0063 29.5779 16.7465C30.4787 16.5126 31.0243 15.6552 30.8424 14.7544C30.6865 13.9922 29.985 13.4205 29.1708 13.4032C28.1921 13.3945 27.3866 14.1481 27.3692 15.1355Z" fill="#1F303D"/><path d="M12.2377 15.1008C12.2377 14.3906 12.2377 13.689 12.2377 12.9788C12.2377 12.8835 12.2637 12.8575 12.3503 12.8662C12.4716 12.8748 12.6015 12.8748 12.7228 12.8662C12.8007 12.8575 12.8267 12.8835 12.8267 12.9701C12.8267 13.5591 12.8267 14.1394 12.8267 14.7284C12.8267 14.8236 12.844 14.8583 12.948 14.8583C13.7275 14.8496 14.507 14.8496 15.2779 14.8583C15.3818 14.8583 15.3991 14.8323 15.3991 14.737C15.3991 14.1481 15.3991 13.5677 15.3991 12.9788C15.3991 12.8922 15.4251 12.8662 15.5117 12.8748C15.6243 12.8835 15.7369 12.8835 15.8495 12.8748C15.9535 12.8662 15.9881 12.8922 15.9881 13.0048C15.9794 14.1047 15.9881 15.2134 15.9881 16.3134C15.9881 16.6252 15.9881 16.937 15.9881 17.2488C15.9881 17.3268 15.9708 17.3614 15.8842 17.3528C15.7542 17.3441 15.6243 17.3441 15.5031 17.3528C15.4165 17.3614 15.3991 17.3268 15.3991 17.2488C15.3991 16.6772 15.3991 16.1142 15.3991 15.5425C15.3991 15.4473 15.3818 15.4126 15.2779 15.4126C14.4983 15.4213 13.7188 15.4213 12.948 15.4126C12.844 15.4126 12.8267 15.4473 12.8354 15.5339C12.8354 16.1055 12.8354 16.6685 12.8354 17.2402C12.8354 17.3181 12.818 17.3614 12.7314 17.3528C12.6015 17.3441 12.4716 17.3441 12.3503 17.3528C12.2637 17.3614 12.2464 17.3268 12.2464 17.2488C12.2377 16.5299 12.2377 15.811 12.2377 15.1008Z" fill="#1F303D"/><path d="M2.00861 15.1008C2.00861 14.3906 2.00861 13.6804 2.00861 12.9701C2.00861 12.8922 2.02593 12.8662 2.11254 12.8662C3.07396 12.8662 4.02671 12.8662 4.98812 12.8662C5.07473 12.8662 5.09206 12.8922 5.09206 12.9701C5.0834 13.0914 5.0834 13.2127 5.09206 13.3339C5.10072 13.4205 5.06607 13.4379 4.98812 13.4379C4.23458 13.4379 3.48104 13.4379 2.73616 13.4379C2.63223 13.4379 2.60624 13.4638 2.6149 13.5678C2.62356 13.9489 2.62356 14.3213 2.6149 14.7024C2.6149 14.789 2.63223 14.815 2.71884 14.815C3.38577 14.815 4.05269 14.815 4.71962 14.815C4.80623 14.815 4.84088 14.8323 4.83222 14.9276C4.82356 15.0402 4.82356 15.1615 4.83222 15.2827C4.84088 15.378 4.79757 15.3867 4.71962 15.3867C4.05269 15.3867 3.39442 15.3867 2.7275 15.378C2.62356 15.378 2.60624 15.404 2.60624 15.4993C2.6149 15.8977 2.6149 16.2875 2.60624 16.6859C2.60624 16.7812 2.62356 16.8071 2.71884 16.8071C3.49836 16.7985 4.27789 16.8071 5.04875 16.7985C5.13537 16.7985 5.17001 16.8158 5.16135 16.9111C5.15269 17.0237 5.15269 17.1363 5.16135 17.2489C5.17001 17.3355 5.14402 17.3615 5.05741 17.3615C4.33852 17.3615 3.61096 17.3615 2.89207 17.3615C2.64089 17.3615 2.38971 17.3528 2.12987 17.3615C2.02593 17.3615 2.00861 17.3355 2.00861 17.2402C2.00861 16.5213 2.00861 15.8111 2.00861 15.1008Z" fill="#1F303D"/><path d="M17.9369 15.1008C17.9369 14.3906 17.9369 13.689 17.9369 12.9788C17.9369 12.8835 17.9629 12.8662 18.0495 12.8662C19.0022 12.8662 19.9463 12.8662 20.8991 12.8662C20.977 12.8662 21.0117 12.8749 21.003 12.9615C20.9944 13.0827 20.9944 13.2127 21.003 13.3339C21.003 13.4119 20.977 13.4292 20.9077 13.4292C20.1542 13.4292 19.4007 13.4292 18.6558 13.4205C18.5519 13.4205 18.5259 13.4465 18.5259 13.5505C18.5345 13.9229 18.5345 14.2953 18.5259 14.6764C18.5259 14.7717 18.5519 14.789 18.6471 14.789C19.3141 14.789 19.9723 14.789 20.6392 14.7804C20.7345 14.7804 20.7605 14.8064 20.7518 14.893C20.7432 15.0056 20.7432 15.1182 20.7518 15.2308C20.7605 15.326 20.7259 15.3434 20.6392 15.3434C19.981 15.3434 19.3227 15.3434 18.6558 15.3347C18.5519 15.3347 18.5259 15.3693 18.5345 15.4646C18.5432 15.863 18.5432 16.2615 18.5345 16.6599C18.5345 16.7378 18.5519 16.7638 18.6385 16.7638C19.4007 16.7638 20.1629 16.7638 20.9251 16.7638C21.0983 16.7638 21.0983 16.7638 21.0983 16.9457C21.0983 17.0323 21.0896 17.1189 21.0983 17.1969C21.1156 17.3095 21.0636 17.3268 20.9684 17.3268C20.0329 17.3268 19.0889 17.3268 18.1534 17.3268C17.9542 17.3268 17.9542 17.3268 17.9542 17.1276C17.9369 16.4607 17.9369 15.7851 17.9369 15.1008Z" fill="#1F303D"/><path d="M6.64255 15.1008C6.64255 14.0009 7.45672 13.0568 8.54805 12.8835C9.31025 12.7623 9.97718 12.9528 10.5661 13.4465C10.6354 13.5072 10.6441 13.5418 10.5835 13.6111C10.4969 13.7064 10.4276 13.8016 10.3496 13.9056C10.3063 13.9662 10.2803 13.9575 10.2284 13.9142C9.82994 13.5418 9.36222 13.3686 8.81656 13.4119C8.01105 13.4725 7.31813 14.1394 7.24884 14.9103C7.16223 15.8197 7.77719 16.5473 8.55671 16.7378C9.18033 16.8851 9.73466 16.7292 10.211 16.3134C10.2803 16.2528 10.315 16.2528 10.3669 16.3221C10.4362 16.4174 10.5228 16.504 10.6008 16.5819C10.6441 16.6252 10.6441 16.6512 10.6008 16.6945C9.93387 17.2835 9.16301 17.5087 8.29687 17.2662C7.46538 17.0237 6.93703 16.4693 6.71184 15.6292C6.68585 15.5339 6.67719 15.4386 6.65987 15.352C6.64255 15.2741 6.64255 15.1875 6.64255 15.1008Z" fill="#1F303D"/><path d="M22.9346 15.1093C22.9346 14.3991 22.9346 13.6889 22.9346 12.9786C22.9346 12.892 22.9519 12.866 23.0385 12.866C23.1511 12.8747 23.2724 12.8747 23.3936 12.866C23.5062 12.8574 23.5235 12.9007 23.5235 12.996C23.5235 14.1393 23.5235 15.2739 23.5235 16.4172C23.5235 16.4952 23.5322 16.5818 23.5235 16.6597C23.5062 16.7723 23.5582 16.7896 23.6535 16.7896C24.2078 16.781 24.7708 16.7896 25.3251 16.781C25.4377 16.781 25.4637 16.8156 25.455 16.9109C25.4464 17.0235 25.4464 17.1274 25.455 17.24C25.4637 17.3266 25.429 17.344 25.3511 17.344C24.5889 17.344 23.8267 17.344 23.0645 17.344C22.9692 17.344 22.9432 17.3266 22.9432 17.2227C22.9346 16.5211 22.9346 15.8109 22.9346 15.1093Z" fill="#1F303D"/><path d="M37.555 12.3291C37.555 12.5197 37.4077 12.6669 37.2172 12.6669C37.0266 12.6669 36.8794 12.5197 36.8794 12.3378C36.8794 12.1472 37.0266 12 37.2258 12C37.4077 12 37.555 12.1386 37.555 12.3291ZM37.4077 12.5283C37.5203 12.3898 37.5117 12.2339 37.3991 12.1299C37.2951 12.0346 37.1046 12.0433 37.0093 12.1472C36.9054 12.2598 36.914 12.4331 37.0266 12.5283C37.1306 12.6236 37.2865 12.6236 37.3904 12.5197C37.3298 12.5197 37.2778 12.5024 37.2605 12.4504C37.2518 12.4244 37.2345 12.4071 37.1999 12.4157C37.1652 12.4244 37.1652 12.4504 37.1652 12.4764C37.1652 12.5197 37.1392 12.5197 37.1046 12.5197C37.0613 12.5197 37.0699 12.485 37.0613 12.4591C37.0613 12.4157 37.0613 12.3638 37.0613 12.3205C37.0613 12.1472 37.0959 12.1213 37.2692 12.1646C37.2778 12.1646 37.2951 12.1646 37.3038 12.1732C37.3818 12.2079 37.4164 12.2772 37.3731 12.3378C37.3125 12.4157 37.3644 12.4591 37.4077 12.5283ZM37.2085 12.3378C37.2518 12.3378 37.2865 12.3291 37.2865 12.2772C37.2865 12.2339 37.2518 12.2252 37.2172 12.2252C37.1739 12.2252 37.1566 12.2339 37.1566 12.2772C37.1652 12.3205 37.1652 12.3465 37.2085 12.3378Z" fill="#1F303D"/><path d="M37.2086 12.3378C37.1653 12.3465 37.1653 12.3118 37.1653 12.2772C37.1653 12.2339 37.1826 12.2166 37.2259 12.2252C37.2606 12.2252 37.2952 12.2339 37.2952 12.2772C37.2865 12.3292 37.2606 12.3378 37.2086 12.3378Z" fill="#FDFDFD"/><path d="M2.12126 22.9479C2.07795 22.9479 2.05197 22.9392 2.03464 22.9132C2.01732 22.8872 2 22.8613 2 22.8266V19.3361C2 19.2928 2.00866 19.2668 2.03464 19.2408C2.05197 19.2148 2.08661 19.2062 2.12126 19.2062H4.30392C4.34723 19.2062 4.37322 19.2148 4.3992 19.2408C4.42519 19.2668 4.43384 19.2928 4.43384 19.3361V19.5526C4.43384 19.5959 4.42519 19.6219 4.3992 19.6392C4.37322 19.6566 4.34723 19.6739 4.30392 19.6739H2.51968V20.9211H4.19999C4.24329 20.9211 4.26928 20.9298 4.29526 20.9558C4.32125 20.9817 4.32991 21.0077 4.32991 21.051V21.2676C4.32991 21.3022 4.32125 21.3369 4.29526 21.3542C4.26928 21.3802 4.24329 21.3888 4.19999 21.3888H2.51968V22.8266C2.51968 22.8613 2.51102 22.8959 2.48503 22.9132C2.45905 22.9392 2.43307 22.9479 2.38976 22.9479H2.12126Z" fill="#C4152F"/><path d="M6.15758 22.9479C6.11427 22.9479 6.08829 22.9392 6.07096 22.9132C6.05364 22.8872 6.03632 22.8613 6.03632 22.8266V19.3274C6.03632 19.2928 6.04498 19.2581 6.07096 19.2408C6.08829 19.2148 6.12293 19.2062 6.15758 19.2062H6.4434C6.48671 19.2062 6.51269 19.2148 6.53002 19.2408C6.54734 19.2668 6.56466 19.2928 6.56466 19.3274V22.8266C6.56466 22.8613 6.556 22.8959 6.53002 22.9132C6.51269 22.9392 6.47805 22.9479 6.4434 22.9479H6.15758Z" fill="#C4152F"/><path d="M8.53938 22.9479C8.49608 22.9479 8.47009 22.9392 8.45277 22.9132C8.43545 22.8872 8.41812 22.8613 8.41812 22.8266V19.3361C8.41812 19.2928 8.42678 19.2668 8.45277 19.2408C8.47009 19.2148 8.50474 19.2062 8.53938 19.2062H8.7819C8.82521 19.2062 8.85985 19.2148 8.87717 19.2321C8.8945 19.2495 8.91182 19.2668 8.91182 19.2755L10.6874 22.0038V19.3361C10.6874 19.2928 10.6961 19.2668 10.7221 19.2408C10.7394 19.2148 10.774 19.2062 10.8087 19.2062H11.0685C11.1118 19.2062 11.1378 19.2148 11.1638 19.2408C11.1898 19.2668 11.1984 19.2928 11.1984 19.3361V22.818C11.1984 22.8526 11.1898 22.8872 11.1638 22.9046C11.1378 22.9306 11.1118 22.9392 11.0772 22.9392H10.8173C10.774 22.9392 10.748 22.9306 10.7307 22.9046C10.7134 22.8872 10.6961 22.8699 10.6874 22.8613L8.92048 20.1589V22.8266C8.92048 22.8613 8.91182 22.8959 8.88584 22.9132C8.85985 22.9392 8.83387 22.9479 8.79056 22.9479H8.53938Z" fill="#C4152F"/><path d="M12.8007 22.9479C12.7747 22.9479 12.7487 22.9393 12.7227 22.9133C12.6967 22.8873 12.688 22.87 12.688 22.8353C12.688 22.818 12.6881 22.8007 12.6967 22.7747L14.0219 19.3188C14.0392 19.2842 14.0565 19.2582 14.0825 19.2322C14.1085 19.2149 14.1432 19.1976 14.1951 19.1976H14.5589C14.6109 19.1976 14.6455 19.2062 14.6715 19.2322C14.6975 19.2495 14.7148 19.2842 14.7321 19.3188L16.0487 22.7747C16.0573 22.792 16.0573 22.818 16.0573 22.8353C16.0573 22.8613 16.0487 22.8873 16.0227 22.9133C16.0054 22.9306 15.9794 22.9479 15.9447 22.9479H15.6762C15.6329 22.9479 15.5983 22.9393 15.581 22.9133C15.5636 22.896 15.5463 22.87 15.5376 22.8527L15.2432 22.0905H13.5022L13.2077 22.8527C13.2077 22.87 13.1904 22.8873 13.1731 22.9133C13.1558 22.9306 13.1211 22.9479 13.0778 22.9479H12.8007ZM13.6581 21.6401H15.1046L14.3857 19.7432L13.6581 21.6401Z" fill="#C4152F"/><path d="M17.677 22.9479C17.6337 22.9479 17.6077 22.9392 17.5904 22.9132C17.5731 22.8872 17.5558 22.8613 17.5558 22.8266V19.3361C17.5558 19.2928 17.5644 19.2668 17.5904 19.2408C17.6077 19.2148 17.6424 19.2062 17.677 19.2062H17.9196C17.9629 19.2062 17.9975 19.2148 18.0148 19.2321C18.0322 19.2495 18.0495 19.2668 18.0495 19.2755L19.8251 22.0038V19.3361C19.8251 19.2928 19.8337 19.2668 19.8597 19.2408C19.877 19.2148 19.9117 19.2062 19.9463 19.2062H20.2062C20.2495 19.2062 20.2755 19.2148 20.3014 19.2408C20.3274 19.2668 20.3361 19.2928 20.3361 19.3361V22.818C20.3361 22.8526 20.3274 22.8872 20.3014 22.9046C20.2755 22.9219 20.2495 22.9392 20.2148 22.9392H19.955C19.9117 22.9392 19.8857 22.9306 19.8684 22.9046C19.851 22.8872 19.8337 22.8699 19.8251 22.8613L18.0581 20.1589V22.8266C18.0581 22.8613 18.0495 22.8959 18.0235 22.9132C17.9975 22.9392 17.9715 22.9479 17.9282 22.9479H17.677Z" fill="#C4152F"/><path d="M23.5322 22.9999C23.2031 22.9999 22.9345 22.9393 22.718 22.818C22.5015 22.6968 22.3369 22.5236 22.233 22.307C22.1204 22.0905 22.0597 21.8393 22.0511 21.5448C22.0511 21.3976 22.0424 21.2417 22.0424 21.0771C22.0424 20.9125 22.0424 20.748 22.0511 20.5921C22.0597 20.3062 22.1204 20.0464 22.233 19.8299C22.3456 19.6133 22.5101 19.4401 22.718 19.3189C22.9345 19.1976 23.2031 19.137 23.5322 19.137C23.7747 19.137 23.9912 19.1716 24.1818 19.2409C24.3637 19.3102 24.5196 19.3968 24.6408 19.5094C24.7621 19.622 24.8574 19.7519 24.918 19.8905C24.9786 20.0291 25.0219 20.1763 25.0219 20.3236C25.0219 20.3582 25.0133 20.3842 24.9959 20.4015C24.97 20.4188 24.944 20.4362 24.9093 20.4362H24.6149C24.5802 20.4362 24.5542 20.4275 24.5282 20.4102C24.5023 20.3929 24.4849 20.3582 24.4763 20.3149C24.4156 20.0377 24.303 19.8472 24.1385 19.7433C23.9739 19.6393 23.766 19.5874 23.5235 19.5874C23.2377 19.5874 23.0038 19.6653 22.8393 19.8299C22.6747 19.9944 22.5794 20.2543 22.5708 20.6094C22.5621 20.9039 22.5621 21.1984 22.5708 21.5102C22.5794 21.8653 22.6747 22.1251 22.8393 22.2897C23.0038 22.4543 23.2377 22.5322 23.5235 22.5322C23.766 22.5322 23.9739 22.4803 24.1385 22.3763C24.303 22.2724 24.4156 22.0818 24.4763 21.8047C24.4849 21.7614 24.5023 21.7267 24.5282 21.7094C24.5542 21.6921 24.5802 21.6834 24.6149 21.6834H24.9093C24.944 21.6834 24.97 21.6921 24.9959 21.7094C25.0219 21.7267 25.0306 21.7527 25.0219 21.7873C25.0133 21.9346 24.9786 22.0818 24.918 22.2291C24.8574 22.3677 24.7621 22.4976 24.6408 22.6102C24.5196 22.7228 24.3637 22.818 24.1818 22.8787C23.9912 22.9653 23.7747 22.9999 23.5322 22.9999Z" fill="#C4152F"/><path d="M26.7889 22.9479C26.7456 22.9479 26.7196 22.9392 26.7023 22.9132C26.6849 22.8872 26.6676 22.8613 26.6676 22.8266V19.3274C26.6676 19.2928 26.6763 19.2581 26.7023 19.2408C26.7196 19.2148 26.7542 19.2062 26.7889 19.2062H27.0747C27.118 19.2062 27.144 19.2148 27.1613 19.2408C27.1786 19.2668 27.1959 19.2928 27.1959 19.3274V22.8266C27.1959 22.8613 27.1873 22.8959 27.1613 22.9132C27.144 22.9392 27.1093 22.9479 27.0747 22.9479H26.7889Z" fill="#C4152F"/><path d="M29.1621 22.9479C29.1188 22.9479 29.0928 22.9392 29.0755 22.9132C29.0582 22.8872 29.0408 22.8613 29.0408 22.8266V19.3361C29.0408 19.2928 29.0495 19.2668 29.0755 19.2408C29.0928 19.2148 29.1274 19.2062 29.1621 19.2062H29.4046C29.4479 19.2062 29.4826 19.2148 29.4999 19.2321C29.5172 19.2495 29.5345 19.2668 29.5345 19.2755L31.3101 22.0038V19.3361C31.3101 19.2928 31.3188 19.2668 31.3448 19.2408C31.3621 19.2148 31.3967 19.2062 31.4314 19.2062H31.6912C31.7345 19.2062 31.7605 19.2148 31.7865 19.2408C31.8125 19.2668 31.8211 19.2928 31.8211 19.3361V22.818C31.8211 22.8526 31.8125 22.8872 31.7865 22.9046C31.7605 22.9219 31.7345 22.9392 31.6999 22.9392H31.44C31.3967 22.9392 31.3707 22.9306 31.3534 22.9046C31.3361 22.8872 31.3188 22.8699 31.3101 22.8613L29.5432 20.1589V22.8266C29.5432 22.8613 29.5345 22.8959 29.5085 22.9132C29.4826 22.9392 29.4566 22.9479 29.4133 22.9479H29.1621Z" fill="#C4152F"/><path d="M35.0433 23C34.7228 23 34.4543 22.9394 34.2378 22.8268C34.0212 22.7055 33.848 22.5409 33.7354 22.3331C33.6228 22.1165 33.5535 21.8654 33.5362 21.5795C33.5362 21.4236 33.5275 21.2591 33.5275 21.0772C33.5275 20.9039 33.5275 20.7307 33.5362 20.5748C33.5535 20.289 33.6141 20.0378 33.7354 19.8213C33.848 19.6134 34.0212 19.4488 34.2378 19.3276C34.463 19.215 34.7228 19.1544 35.0433 19.1544C35.2944 19.1544 35.511 19.189 35.6929 19.2583C35.8748 19.3276 36.0307 19.4229 36.1519 19.5268C36.2732 19.6394 36.3598 19.752 36.4204 19.8646C36.4811 19.9858 36.507 20.0898 36.5157 20.1764C36.5157 20.211 36.507 20.237 36.4897 20.2543C36.4724 20.2717 36.4378 20.2803 36.4031 20.2803H36.0913C36.0567 20.2803 36.0307 20.2717 36.0133 20.263C35.996 20.2543 35.9787 20.2197 35.97 20.1851C35.9354 20.0898 35.8834 20.0032 35.8141 19.9166C35.7448 19.8299 35.6409 19.752 35.5196 19.6914C35.3984 19.6307 35.2425 19.6047 35.0519 19.6047C34.7661 19.6047 34.5409 19.6827 34.3677 19.8386C34.1945 19.9945 34.0992 20.2457 34.0905 20.6008C34.0819 20.9213 34.0819 21.2331 34.0905 21.5536C34.1078 21.9087 34.2031 22.1685 34.3763 22.3244C34.5496 22.4803 34.7748 22.5583 35.0606 22.5583C35.2511 22.5583 35.4157 22.5236 35.563 22.4543C35.7102 22.385 35.8315 22.2724 35.9094 22.1339C35.996 21.9866 36.0393 21.8047 36.0393 21.5795V21.3543H35.2338C35.1992 21.3543 35.1645 21.3457 35.1472 21.3197C35.1212 21.2937 35.1126 21.2677 35.1126 21.2244V21.0512C35.1126 21.0079 35.1212 20.9819 35.1472 20.9559C35.1732 20.9299 35.1992 20.9213 35.2338 20.9213H36.4378C36.4811 20.9213 36.507 20.9299 36.5244 20.9559C36.5417 20.9819 36.559 21.0079 36.559 21.0512V21.5622C36.559 21.8567 36.4984 22.1079 36.3771 22.3244C36.2559 22.5409 36.0826 22.7142 35.8574 22.8268C35.6236 22.9394 35.3551 23 35.0433 23Z" fill="#C4152F"/></svg>