<svg xmlns="http://www.w3.org/2000/svg" fill="none" viewBox="0 0 38 24" height="24" width="38" aria-labelledby="pi-ecpay" role="img"><title id="pi-ecpay">EC Pay</title><path fill="#fff" d="M0 0h38v24H0z"/><path fill="#05A643" d="m21.293 12.547-.719-1.736-.718 1.736h1.437Z"/><path fill="#05A643" fill-rule="evenodd" d="m14.307 10.219-1.883 7.04h.001a1.006 1.006 0 0 0 1.361 1.277l20.49-5.911.002-.01c.363-.107.618-.36.618-.654 0-.327-.315-.601-.743-.683l-6.27-2.107-2.343 3.586v2.378h-1.095v-2.378l-2.433-3.671h1.36l1.604 2.377 1.825-2.4.81.016-10.907-3.665-.003.01a1.007 1.007 0 0 0-1.322.788l-.702 2.625h2.043c.494 0 .909.092 1.244.276.337.185.592.438.764.76.173.321.26.685.26 1.094 0 .412-.087.779-.26 1.1-.174.32-.43.572-.77.757-.34.182-.757.273-1.254.273h-1.231v2.174h-1.166V10.22Zm7.871 4.938-.586-1.692-2.112.011-.51 1.681h-1.315l2.543-6.071h.72l2.598 6.071h-1.338Z" clip-rule="evenodd"/><path fill="#05A643" d="M15.473 12.139h1.074c.29 0 .526-.05.71-.151a.95.95 0 0 0 .409-.415c.09-.176.135-.378.135-.606 0-.228-.045-.43-.135-.603a.918.918 0 0 0-.412-.406c-.184-.098-.422-.147-.713-.147h-1.068v2.328Z"/><path fill="#331170" d="M4.262 12.426c.255 1.205 1.217 1.581 2.08 1.581.962 0 2.012-.874 2.289-1.25l.01 1.15c-.552.797-1.404 1.129-2.476 1.129-.93 0-1.67-.277-2.223-.84-.553-.565-.84-1.262-.84-2.113a2.876 2.876 0 0 1 .829-2.101c.553-.575 1.26-.852 2.123-.852.818 0 1.493.277 2.024.852.53.575.564 1.172.564 2.012 0 .188.01.21 0 .432h-4.38Zm3.407-.93a1.755 1.755 0 0 0-1.726-1.326c-.995.01-1.548.608-1.725 1.327h3.45Zm2.51 2.754a2.918 2.918 0 0 1-.852-2.145c0-.852.288-1.57.852-2.146a2.753 2.753 0 0 1 2.168-.873c1.028.055 1.316.188 1.968.52v1.26c-.398-.354-1.305-.674-1.968-.674-.564 0-1.018.177-1.372.53a2.085 2.085 0 0 0 0 2.743c.343.354.808.531 1.372.531.663 0 1.703-.365 1.968-.863v1.339c-.487.376-.907.652-1.968.652-.874 0-1.593-.299-2.168-.874Zm-1.759.874h1.184l.188-1.128H8.664l-.243 1.128Z"/></svg>