<svg
    xmlns="http://www.w3.org/2000/svg" width="38" height="24" role="img" viewBox="0 0 38 24" aria-labelledby="pi-efecty">
    <title id="pi-efecty">Efecty</title>
    <path d="M35 0H3C1.3 0 0 1.3 0 3v18c0 1.7 1.4 3 3 3h32c1.7 0 3-1.3 3-3V3c0-1.7-1.4-3-3-3z" opacity=".07"/>
    <path d="M35 1c1.1 0 2 .9 2 2v18c0 1.1-.9 2-2 2H3c-1.1 0-2-.9-2-2V3c0-1.1.9-2 2-2h32" fill="#fff"/>
    <g fill-rule="evenodd" clip-rule="evenodd">
        <path fill="#f8e726" d="M12.9 5.9h12.3v12.3H12.9z"/>
        <path d="M20.7 15v1.2c.1.3.6.3.9.1l-.1-.3c-.1 0-.2.1-.3.1-.1 0-.1-.2-.1-.3V15h.8l.6 1.4c0 .1-.1.3-.2.3-.2.3-.4.2-.6.1l-.1.3c.3.1.7.1.8-.1.2-.2.3-.4.4-.7l.6-1.6H23l-.4 1.2s-.4-.8-.4-1c-.1-.2-.2-.3-.4-.3h-.7v-.5c-.1 0-.3.1-.4.1v.4h-.3v.3l.3.1zm-.8-8.2c1.9 0 3.2 1.5 2.8 3.5-.4 1.9-2.2 3.5-4.1 3.5-1.9 0-3.2-1.5-2.8-3.5.3-2 2.2-3.5 4.1-3.5zm.9.4c1.2.4 1.9 1.6 1.6 3-.3 1.6-1.8 3-3.4 3.1-.1 0-.1-.1-.1-.2v-.7c-.2 0-.3-.1-.5-.1-.2-.1-.4-.2-.5-.3-.1 0-.1-.2-.1-.3 0-.1.1-.4.3-.5.2 0 .3.1.5.2.3.2.8.2 1.1.1.2-.1.2-.2.1-.4-.1-.3-.8-.5-1.1-.7-.7-.3-1.1-.9-1-1.6.1-.5.6-.9 1.1-1v-.3c-.6.2-1.1.6-1.6 1-.6.6-1 1.4-1 2.4.1 1.2.7 1.8 1.4 2.2-1.1-.4-1.8-1.6-1.5-3 .3-1.7 1.9-3 3.6-3.2.1 0 .1 0 .1.1v.6c.2.3.5.4.8.6 0 .5-.4.7-.5.6 0 0-.5-.2-.7-.2H19c-.2.1-.2.2-.2.4l.3.3c.3.2.7.4 1 .6.3.2.5.4.7.7.1.3.1.5.1.8-.1.2-.2.4-.3.5l-.3.3c-.2.1-.4.2-.5.2v.3c.4-.1.7-.4 1.1-.6.4-.4.8-.8 1.1-1.3.1-.3.3-.6.3-1 .1-1-.3-2-1.5-2.6zm-4.4 7.5v-.4c0-.1.1-.3.3-.4.2-.1.4-.1.6 0l-.1.3c-.4-.1-.4 0-.4.5h.5l-.2.3h-.3v1.4h-.4V15h-.2l-.1-.3h.3zm2.5.9c0 1 1.1.9 1.4.7 0 0-.1-.2-.1-.3-.2.1-.4.2-.6.1-.4-.2-.3-.9 0-1.1.1-.1.3-.1.5 0 .1 0 .1.1.1.1v-.3c-.2-.1-.4-.1-.7-.1-.4 0-.6.4-.6.9zm-3.9-.3c0-.2.1-.4.4-.4.2 0 .3.2.4.4H15zm1 .9l-.1-.2c-.1 0-.2.1-.3.1-.3 0-.6-.1-.6-.5h1.1c0-.4-.1-.8-.5-.9-.2-.1-.4 0-.6.1-.6.4-.6 1.7.5 1.7.1-.1.4-.2.5-.3zm1.6-.9c0-.2.1-.4.4-.4.2 0 .3.2.3.4h-.7zm-.3.3c0 .6.5.9 1.1.8.1 0 .2-.1.3-.1l-.1-.3c-.2 0-.3.2-.6.1-.2-.1-.3-.2-.3-.5h1.1c0-.5-.1-1-.7-1-.7 0-.9.5-.8 1z" fill="#010101"/>
    </g>
</svg>