<svg viewBox="0 0 38 24" xmlns="http://www.w3.org/2000/svg" role="img" width="38" height="24" aria-labelledby="pi-efecty"><title id="pi-efecty">Efecty</title><g id="Capa_1"><path d="M35 0H3C1.3 0 0 1.3 0 3v18c0 1.7 1.4 3 3 3h32c1.7 0 3-1.3 3-3V3c0-1.7-1.4-3-3-3z" style="isolation:isolate" opacity=".07"/><path d="M35 1c1.1 0 2 .9 2 2v18c0 1.1-.9 2-2 2H3c-1.1 0-2-.9-2-2V3c0-1.1.9-2 2-2h32" fill="#fff"/></g><g id="Capa_3"><path d="M21.5 2.69c1.54.65 2.41 2.27 2.06 4.16-.08.4-.2.79-.37 1.16l-.02.03c-.18.39-.41.76-.67 1.1l-.03.04s-.03.03-.04.05a5.86 5.86 0 01-2.45 1.76s-.05.02-.07.03c-.02 0-.04.02-.06.02h-.03s-.02 0-.02-.01V11l.02-.47c.48-.1.92-.32 1.24-.62.3-.28.64-.78.58-1.57-.04-.52-.23-.91-.6-1.22-.33-.29-.7-.52-1.26-.79l-.07-.03c-.44-.22-.75-.38-.96-.54-.14-.11-.33-.27-.34-.49 0-.05 0-.18.1-.29.12-.13.33-.19.62-.2.28 0 .81.13 1.23.32.03.01.06.02.1.02.2-.02.38-.15.51-.37.08-.15.14-.33.15-.48 0-.07-.02-.13-.08-.17-.3-.23-.83-.44-1.26-.48 0 0-.03 0-.04-.02v-.02s.02-.58.04-.77c0-.09 0-.19-.01-.24a.21.21 0 00-.13-.13h-.08c-.65.06-1.29.23-1.9.52-1.68.8-3.03 2.41-3.38 4.26-.39 2.08.6 3.85 2.33 4.52-1.54-.65-2.41-2.27-2.06-4.16.08-.41.21-.81.38-1.19v-.02c.09-.18.19-.35.29-.51.61-1 1.54-1.82 2.6-2.29.19-.08.38-.16.58-.22h.03l.02.02v.02l-.03.31c-.22.04-.69.16-1.11.54-.31.28-.66.77-.6 1.54.04.46.19.82.47 1.14.29.32.6.59 1.21.88h.03c.54.26.89.43 1.11.58.27.19.33.33.34.5.01.14-.04.26-.14.36-.13.13-.35.2-.62.2-.57.02-1.3-.22-1.64-.45a.491.491 0 00-.27-.08c-.09 0-.17.04-.24.1-.06.05-.11.12-.15.22-.13.23-.13.48-.12.6 0 .04 0 .09.02.12.01.05.04.1.08.13.51.35 1.12.55 1.64.59 0 0 .02 0 .04.02l.02.03s.02.17-.03.87c0 .11 0 .22.02.29 0 .03.02.05.04.08.04.04.08.06.14.07h.06c.09-.01.19-.02.28-.04.35-.06.7-.15 1.03-.28h.02c.06-.03.11-.05.17-.07h.02s.11-.06.17-.08h.01c1.71-.8 3.09-2.42 3.44-4.29.39-2.08-.6-3.85-2.32-4.52m2.79 4.44c-.55 2.92-3.36 5.29-6.29 5.29s-4.84-2.37-4.29-5.29 3.36-5.29 6.29-5.29 4.84 2.37 4.29 5.29M11 17.82c-.02-.53-.27-1.05-.86-1.05-.55 0-.88.48-.89 1.05H11zm-1.74.65c.02.71.48 1.21 1.24 1.21.41 0 .75-.11 1.05-.28l.27.63c-.4.26-.92.39-1.42.39-1.45 0-2.07-1.03-2.07-2.18 0-1.26.69-2.17 1.82-2.17s1.78.84 1.78 2.19v.22H9.26zM17.04 17.82c-.02-.53-.27-1.05-.86-1.05-.55 0-.88.48-.89 1.05h1.75zm-1.74.65c.02.71.48 1.21 1.24 1.21.41 0 .75-.11 1.05-.28l.27.63c-.4.26-.92.39-1.42.39-1.45 0-2.07-1.03-2.07-2.18 0-1.26.69-2.17 1.82-2.17s1.78.84 1.78 2.19v.22H15.3zM12.55 16.89h-.45l-.29-.72h.74v-.62c0-.99.58-1.44 1.34-1.44.26 0 .55.05.8.17l-.18.73c-.17-.06-.33-.1-.5-.1-.37 0-.54.23-.54.63v.64h1.15l-.3.72h-.84v3.44h-.91V16.9h-.02zM18.47 18.27c0-1.27.91-2.22 2.15-2.22.49 0 .86.13 1.1.27v.78c-.29-.19-.61-.31-1.01-.31-.81 0-1.3.62-1.3 1.44 0 .91.49 1.42 1.25 1.42.4 0 .69-.12.98-.28l.26.63c-.32.22-.83.4-1.37.4-1.33 0-2.07-.94-2.07-2.14M28.73 16.16l-1.03 3.08h-.02l-1.04-2.47c-.06-.15-.27-.61-.98-.61h-1.81v-1.24l-.91.28v.96h-.73v.72h.73v2.45c0 .68.41 1.07 1.11 1.07.41 0 .87-.12 1.16-.32l-.29-.63c-.17.11-.4.21-.65.21-.27 0-.41-.15-.41-.53v-2.25h1.87l1.54 3.43c-.33 1-.72 1.34-1.21 1.34-.23 0-.42-.06-.61-.15l-.23.73c.26.11.54.18.87.18.73 0 1.4-.22 2-1.89l1.58-4.35h-.95z"/><g><path d="M11.44 9.68h.02v2.8h-.02zM12.35 9.69h.02v2.79h-.02zM11.57 12.09l.18-.08-.18-.07v-.05l.28.12-.28.12v-.04zM11.57 11.82h.26v.04h-.26zM11.7 11.61v-.11h.05s.03.01.04.02c.03.02.04.06.04.09s-.01.07-.04.1-.06.04-.09.04-.07-.01-.09-.04-.04-.06-.04-.1c0-.02 0-.04.01-.06 0-.02.02-.03.04-.05l.03.03s-.04.05-.04.08 0 .05.03.07c.02.02.04.03.07.03s.05-.01.07-.03.03-.04.03-.07c0-.02 0-.04-.02-.05-.01-.02-.03-.02-.05-.03v.07h-.04zM11.57 11.41h.26v.04h-.26zM11.57 11.3h.23v-.08h.03v.12h-.26v-.04zM11.77 11.02v.11l.06.03v.04l-.27-.13.27-.13v.04l-.06.03zm-.04.02l-.09.04.09.04v-.08zM11.83 10.91h-.26v-.12s.01-.03.03-.05c.02-.03.06-.04.1-.04s.07.01.1.04c.01.01.02.03.03.05v.12zm-.03-.04v-.07s-.01-.02-.02-.03c-.02-.02-.04-.03-.07-.03s-.05.01-.07.03-.02.04-.02.08v.02h.18zM11.7 10.66s-.07-.01-.09-.04c-.03-.03-.04-.06-.04-.1s.01-.07.04-.1.06-.04.09-.04.07.01.09.04c.03.03.04.06.04.1 0 .03-.01.07-.03.09-.03.03-.06.05-.1.05m0-.04s.05-.01.07-.03.03-.04.03-.07 0-.05-.03-.07-.04-.03-.07-.03-.05 0-.07.03c-.02.02-.03.04-.03.07s0 .05.03.07c.02.02.04.03.07.03M11.72 10.16l-.15.09v-.05l.11-.06-.11-.06v-.05l.15.09h.11v.04h-.11zM12 12.15h.05s-.03.05-.03.07c0 .03 0 .05.03.07.02.02.04.03.07.03s.05 0 .07-.03a.09.09 0 00.03-.07v-.06s0-.01-.01-.02h.05s.02.05.02.07c0 .04-.01.07-.04.1s-.06.04-.09.04-.06-.01-.09-.03a.143.143 0 01-.05-.11c0-.02 0-.05.02-.07M12.11 12.11s-.07-.01-.09-.04c-.03-.03-.04-.06-.04-.1s.01-.07.04-.1.06-.04.09-.04.07.01.09.04c.03.03.04.06.04.1 0 .03-.01.07-.03.09-.03.03-.06.05-.1.05m0-.04s.05-.01.07-.03.03-.04.03-.07 0-.05-.03-.07c-.02-.02-.04-.03-.07-.03s-.05 0-.07.03c-.02.02-.03.04-.03.07s0 .05.03.07c.02.02.04.03.07.03M12.24 11.78h-.27l.19-.2h-.18v-.04h.28l-.2.2h.18v.04zM12.02 11.4h.22v.04h-.22v.06h-.04v-.16h.04v.06zM12.13 11.21l.11-.08v.05l-.11.08h.11v.04h-.26v-.05s0-.06.02-.08c.01-.02.03-.03.06-.03.02 0 .03 0 .05.02.01.01.02.03.03.04m-.04.06c0-.05-.01-.07-.04-.07s-.04.02-.04.06h.08s0 .01 0 0zM12.11 11.09s-.07-.01-.09-.04c-.03-.03-.04-.06-.04-.1s.01-.07.04-.1.06-.04.09-.04.07.01.09.04c.03.03.04.06.04.1 0 .03-.01.07-.03.09-.03.03-.06.05-.1.05m0-.04s.05-.01.07-.03.03-.04.03-.07 0-.05-.03-.07c-.02-.02-.04-.03-.07-.03s-.05 0-.07.03c-.02.02-.03.04-.03.07s0 .05.03.07c.02.02.04.03.07.03M11.98 10.72h.22v-.08h.04v.12h-.26v-.04zM12.18 10.44v.12l.06.03v.04l-.27-.13.27-.13v.04l-.06.03zm-.04.02l-.09.04.09.04v-.08zM12.24 10.33h-.26v-.12s.01-.03.03-.05c.02-.03.06-.04.1-.04s.07.02.1.04c.01.01.02.03.03.05v.12zm-.04-.04v-.07s0-.02-.02-.03c-.02-.02-.04-.03-.07-.03s-.05 0-.07.03c-.02.02-.02.04-.02.08v.02h.18zM12.11 10.08s-.07-.01-.09-.04c-.03-.03-.04-.06-.04-.1s.01-.07.04-.1.06-.04.09-.04.07.01.09.04.04.06.04.1c0 .03-.01.07-.03.09-.03.03-.06.05-.1.05m0-.04s.05-.01.07-.03.03-.04.03-.07 0-.05-.03-.07c-.02-.02-.04-.03-.07-.03s-.05 0-.07.03c-.02.02-.03.04-.03.07s0 .05.03.07c.02.02.04.03.07.03M11.67 9.5v-.04l.14-.07-.14-.06v-.05h.19v.03h-.16l.16.07v.02l-.16.07h.16v.03h-.19zM11.68 9.24h-.01v-.02h.02v.02h-.01m.05-.03h.13v.03h-.13v-.03zM11.73 9.17v-.03h.02s-.01 0-.02-.02v-.07h.02s.01-.01.02-.01h.08v.03h-.11v.03s0 .01.01.01h.09v.03h-.13l.02.03zM11.68 9.01h-.01v-.02h.02v.02h-.01m.05-.03h.13v.03h-.13v-.03zM11.76 8.87v.05h.01v-.04s0-.01.01-.01h.05v.08s0 .02-.02.02l-.02-.02h.01v-.03s0-.01 0 0v.03s0 .01-.01.01h-.05v-.08s0-.02.02-.02v.02zM11.75 8.74v.04h.07l.02-.01v.04h-.01s0 .01-.01.01h-.09v.03h-.02v-.03h-.04v-.03h.04v-.04h.04zM11.81 8.69h.03v-.06s0-.01-.01-.02v-.02s.04.03.04.06v.03s0 .02-.01.02c0 0-.01.01-.02.01h-.06s-.02 0-.02-.01c0 0-.01-.01-.01-.02v-.06s0-.02.02-.02c0 0 .01 0 .02-.01h.03v.11h-.01zm-.02-.09h-.03v.05s0 .01.01.01h.01v-.08.02zM11.73 8.54v-.03h.02v-.02l.03-.01s0 .02.01.03c0 0 .02.01.03.01h.07v.03h-.16zM11.68 8.44h-.01v-.02h.02v.01s0 .01-.01.01m.05-.03h.13v.03h-.13v-.03zM11.8 8.38h-.03s-.02 0-.02-.02c0 0-.01-.01-.01-.02v-.06s0-.02.01-.02l.02-.02h.06s.02 0 .02.02c0 0 .01.01.01.02v.06s0 .02-.01.02l-.02.02h-.03m0-.03h.03V8.3s0-.01-.01-.01h-.05v.05s0 .01.01.01h.02M11.86 7.98v.03h-.02l.02.02v.06s0 .02-.01.02c0 0-.01.01-.02.01h-.06s-.02 0-.02-.01c0 0-.01-.01-.01-.02v-.06s0-.02.02-.02h-.1v-.03h.21zm-.02.07v-.02s0-.01-.01-.01h-.05v.05s0 .01.01.01h.05v-.03M11.81 7.92h.03v-.06s0-.01-.01-.02v-.02s.04.03.04.06v.03s0 .02-.01.02c0 0-.01.01-.02.01h-.06s-.02 0-.02-.02c0 0-.01-.01-.01-.02v-.06s0-.02.02-.02c0 0 .01 0 .02-.01h.03v.11h-.01zm-.02-.08h-.03v.05s0 .01.01.01h.01v-.08.02zM11.69 7.65v.07h-.02v-.16h.02v.06h.17v.03h-.17zM11.81 7.55h.03v-.07s0-.01-.01-.02v-.02s.04.03.04.06v.03s0 .02-.01.02c0 0-.01.01-.02.01h-.06s-.02 0-.02-.01c0 0-.01-.01-.01-.02v-.06s0-.02.02-.02c0 0 .01 0 .02-.01h.03v.11h-.01zm-.02-.09h-.03v.05s0 .01.01.01h.01v-.08.02zM11.77 7.31s0 .01-.01.02v.04h.01s0 .01.02.01h.05v-.05s0-.01-.01-.01l.02-.02s.01.02.02.02v.06s0 .02-.01.02c0 0-.01.01-.02.01h-.06s-.02 0-.02-.01c0 0-.01-.01-.01-.02v-.06s0-.02.02-.02l.02.02h-.02zM11.73 7.27v-.03h.02s-.01 0-.02-.02v-.07h.02s.01-.01.02-.01h.08v.03h-.11v.04s0 .01.01.01h.09v.03h-.13l.02.02zM11.8 7.11h-.03s-.02 0-.02-.02c0 0-.01-.01-.01-.02v-.06s0-.02.01-.02l.02-.02h.06s.02 0 .02.02c0 0 .01.01.01.02v.06s0 .02-.01.02l-.02.02h-.03m0-.03h.03v-.05s0-.01-.01-.01h-.05v.05s0 .01.01.01h.02M11.65 6.91h.21v.03h-.21zM11.8 6.87h-.03s-.02 0-.02-.02c0 0-.01-.01-.01-.02v-.06s0-.02.01-.02l.02-.02h.06s.02 0 .02.02c0 0 .01.01.01.02v.06s0 .02-.01.02l-.02.02c-.01.01-.02 0-.03 0m0-.03h.03v-.05s0-.01-.01-.01h-.05v.05s0 .01.01.01h.02M11.86 6.56h.03s.02 0 .02.02c0 0 .01.01.01.02v.07s0 .02-.02.03l-.02-.02.02-.02v-.05s0-.01-.01-.02h-.05l.02.02v.06s0 .02-.01.02c0 0-.01.01-.02.01h-.06s-.02 0-.02-.01c0 0-.01-.01-.01-.02v-.06s0-.02.02-.02h-.02v-.03h.13zm-.11.07v.02s0 .01.01.01h.02s.02 0 .03-.01c0 0 .01-.02.01-.03s0-.02-.01-.03c0 0-.02-.01-.03-.01h-.03v.03M11.67 6.49v-.04l.04.04v.02l-.04-.03zm.06 0h.13v.03h-.13v-.03zM11.75 6.45s-.01-.02-.01-.03v-.08l.01-.01h.11v.02h-.02l.02.02v.07h-.01s-.01.01-.02.01h-.02s-.01 0-.01-.02v-.07.04l-.02.02-.03.03zm.05-.08v.04s0 .01.01.01h.02v-.04s0-.01-.01-.01h-.02zM11.76 6.22v.05h.01v-.04s0-.01.01-.01h.05v.08s0 .02-.02.02l-.02-.02h.01v-.03.03s0 .01-.01.01h-.05v-.08s0-.02.02-.02v.02zM11.86 5.95v.03h-.02l.02.02v.06s0 .02-.01.02c0 0-.01.01-.02.01h-.06s-.02 0-.02-.01c0 0-.01-.01-.01-.02V6s0-.02.02-.02h-.1v-.03h.21zm-.02.07V6s0-.01-.01-.01h-.05v.05s0 .01.01.01h.05v-.03M11.81 5.89h.03v-.07s0-.01-.01-.02v-.02s.04.03.04.06v.03s0 .02-.01.02c0 0-.01.01-.02.01h-.06s-.02 0-.02-.01c0 0-.01-.01-.01-.02v-.06s0-.02.02-.02c0 0 .01 0 .02-.01h.03v.11h-.01zm-.02-.08h-.03v.05s0 .01.01.01h.01v-.08.02zM11.65 5.64h.21v.03h-.21zM11.75 5.6s-.01-.02-.01-.03v-.08l.01-.01h.11v.02h-.02l.02.02v.07l-.01.01c-.01.01-.01 0-.02 0h-.02s-.01 0-.01-.02v-.07.04l-.02.02-.03.03zm.05-.07v.04s0 .01.01.01h.02v-.04s0-.01-.01-.01h-.02zM12 9.47h.2v.03H12zM12.06 9.42v-.03h.02s-.01 0-.02-.02V9.3h.02s.01-.01.02-.01h.08v.03h-.11v.03s0 .01.01.01h.09v.03h-.13l.02.03zM12.09 9.25v.03h-.02v-.03h-.03s-.03 0-.04-.01c0 0-.01-.02-.01-.04v-.02h.02v.02h.04v-.03h.02v.03h.11v.03h-.11l.02.02zM12.13 9.17h-.03s-.02 0-.02-.02-.01-.01-.01-.02v-.06s0-.02.01-.02l.02-.02h.06s.02 0 .02.02c0 0 .01.01.01.02v.06s0 .02-.01.02-.01.01-.02.02h-.03m0-.03h.03v-.05s0-.01-.01-.01h-.05v.05s0 .01.01.01h.02M12.06 8.99v-.03h.02v-.02l.03-.01s0 .02.01.03h.1v.03h-.16zM12.06 8.89v-.02h.02v-.06s0-.01.02-.02l-.02-.02v-.05s0-.01.01-.02h.12v.03h-.09v.02s0 .02.01.03h.1v.03h-.1v.04H12.23v.03h-.17zM12.08 8.64s-.01-.02-.01-.03v-.08l.01-.01c.01-.01.01 0 .02 0h.09v.02h-.02l.02.02v.07h-.01s-.01.01-.02.01h-.02s-.01 0-.01-.02v-.07.06l-.05.03zm.05-.07v.04s0 .01.01.01h.02v-.04s0-.01-.01-.01h-.02zM12.1 8.39s0 .01-.01.02v.04h.01s0 .01.02.01h.05v-.05s0-.01-.01-.01l.02-.02.02.02v.06s0 .02-.01.02l-.02.02h-.06s-.02 0-.02-.02c0 0-.01-.01-.01-.02V8.4s0-.02.02-.02l.02.02h-.02zM12.02 8.35h-.01v-.02h.02v.02h-.01m.04-.03h.13v.03h-.13v-.03zM12 8.2v-.04l.04.04v.02L12 8.19zm.13.09h-.03s-.02 0-.02-.02c0 0-.01-.01-.01-.02v-.06s0-.02.01-.02l.02-.02h.06s.02 0 .02.02c0 0 .01.01.01.02v.06s0 .02-.01.02l-.02.02h-.03m0-.03h.03v-.05s0-.01-.01-.01h-.05v.05s0 .01.01.01h.02M12.06 8.11v-.03h.02s-.01 0-.02-.02v-.07h.02s.01-.01.02-.01h.08v.03h-.11v.04s0 .01.01.01h.09v.03h-.13l.02.02zM12.06 7.89v-.03l.1-.04-.1-.04v-.03l.16.07h.03v.05h-.02v-.02l-.02-.01-.13.05h-.02zM11.99 7.62h.21v.03h-.21zM12.08 7.57s-.01-.02-.01-.03v-.08l.01-.01h.11v.02h-.02l.02.02v.07l-.01.01c-.01.01-.01 0-.02 0h-.02s-.01 0-.01-.02v-.07.05l-.05.04zm.05-.07v.04s0 .01.01.01h.02v-.04s0-.01-.01-.01h-.02zM12.1 7.35v.05h.01v-.04s0-.01.01-.01h.05v.08s0 .02-.02.02l-.02-.02h.01V7.4s0-.01 0 0v.02s0 .01-.01.01h-.05v-.08s0-.02.02-.02v.02zM12.04 7.07l-.02.02v.06s.01.02.02.02c0 0 .02.01.03.02h.06s.02 0 .02-.02l.02-.02c.01-.01 0-.02 0-.03v-.03s-.01-.02-.02-.02l.02-.02v.02l.02.02v.07s-.01.02-.02.03c0 0-.02.02-.03.02h-.08s-.02-.01-.03-.02-.02-.02-.02-.03v-.08s.01-.02.02-.03l.02.02h-.01zM12.13 7.02h-.03s-.02 0-.02-.02c0 0-.01-.01-.01-.02v-.06s0-.02.01-.02.01-.01.02-.02h.06s.02 0 .02.02c0 0 .01.01.01.02v.06s0 .02-.01.02-.01.01-.02.02h-.03m0-.03h.03v-.05s0-.01-.01-.01h-.05v.05s0 .01.01.01h.02M12.06 6.84v-.02h.02v-.06s0-.01.02-.02l-.02-.02v-.05s0-.01.01-.02h.12v.03h-.09v.02s0 .02.01.03.02 0 .03 0h.07v.03h-.1v.04h.1v.03h-.17zM12.2 6.47v.03h-.02s.01 0 .02.02v.07h-.02s-.01.01-.02.01h-.08v-.03h.11v-.04s0-.01-.01-.01h-.09v-.03h.13l-.02-.02zM12.06 6.43V6.4h.02s-.01 0-.02-.02v-.07h.02s.01-.01.02-.01h.08v.03h-.11v.03s0 .01.01.01h.09v.03h-.13l.02.03zM12.02 6.28h-.01v-.02h.02v.01s0 .01-.01.01m.04-.03h.13v.03h-.13v-.03zM12.1 6.11v.02s-.01.01-.01.02v.02h.01s0 .01.02.01h.05v-.05s0-.01-.01-.02l.02-.02.02.02v.06s0 .02-.01.02c0 0-.01.01-.02.01h-.06s-.02 0-.02-.01c0 0-.01-.01-.01-.02v-.06s0-.02.02-.02l.02.02h-.02zM12.08 6.06s-.01-.02-.01-.03v-.08h.01s.01-.01.02-.01h.09v.02h-.02l.02.02v.07h-.01s-.01.01-.02.01h-.02s-.01 0-.01-.02v-.07.06l-.05.03zm.05-.07v.04s0 .01.01.01h.02V6s0-.01-.01-.01h-.02zM12.1 5.82s0 .01-.01.02 0 .01 0 .02v.02l.01.01c.01.01 0 0 .02 0h.05v-.05s0-.01-.01-.01l.02-.02s.01.02.02.02v.06s0 .02-.01.02c0 0-.01.01-.02.01h-.06s-.02 0-.02-.01c0 0-.01-.01-.01-.02v-.06s0-.02.02-.02l.02.02h-.02zM12.02 5.78h-.01v-.02h.02v.02h-.01m.04-.03h.13v.03h-.13v-.03zM12.13 5.71h-.03s-.02 0-.02-.02c0 0-.01-.01-.01-.02v-.06s0-.02.01-.02l.02-.02h.06s.02 0 .02.02c0 0 .01.01.01.02v.06s0 .02-.01.02l-.02.02h-.03m0-.02h.03v-.05s0-.01-.01-.01h-.05v.05s0 .01.01.01h.02M12.06 5.54v-.03h.02s-.01 0-.02-.02v-.07h.02s.01-.01.02-.01h.08v.03h-.11v.03s0 .01.01.01h.09v.03h-.13l.02.03zM12.14 5.36h.03V5.3s0-.01-.01-.02v-.02s.04.03.04.06v.03s0 .02-.01.02c0 0-.01.01-.02.01h-.06s-.02 0-.02-.01c0 0-.01-.01-.01-.02v-.06s0-.02.02-.02c0 0 .01 0 .02-.01s.02 0 .03 0v.11h-.01zm-.02-.09h-.03v.05s0 .01.01.01h.01v-.08.02zM12.1 5.14v.05h.01v-.04s0-.01.01-.01h.05v.08s0 .02-.02.02l-.02-.02h.01v-.03-.01.03s0 .01-.01.01h-.05v-.08s0-.02.02-.02v.02z"/></g></g></svg>