<svg xmlns="http://www.w3.org/2000/svg" fill="none" viewBox="0 0 38 24" height="24" width="38" aria-labelledby="pi-eft_secure" role="img"><title id="pi-eft_secure">EFT Secure</title><path fill="#fff" d="M0 0h38v24H0z"/><path fill="#58585A" d="M12.5 9.5H12c-.07 0-.07 0-.07-.07a3.001 3.001 0 0 0-.28-1.24A3.14 3.14 0 0 0 9.4 6.37a3.19 3.19 0 0 0-3.84 3.08.06.06 0 0 1-.06.06h-.93v-.06a5 5 0 0 1 0-.56 4 4 0 0 1 .49-1.4 4.23 4.23 0 0 1 2.78-2.13A4 4 0 0 1 9 5.26a4.26 4.26 0 0 1 3.97 4.17c0 .07 0 .07-.07.07h-.4Zm6.51.63H34a.681.681 0 0 1 .72.64v4.73a.69.69 0 0 1-.27.57.63.63 0 0 1-.39.13h-30a.68.68 0 0 1-.64-.37.08.08 0 0 0-.07-.07c-.07 0 0 0 0 0v-4.89a.7.7 0 0 1 .23-.58.66.66 0 0 1 .42-.17h15l.01.01Z"/><path fill="#fff" d="M12 13.58v1.29h-.7v-2.53c0-.12 0-.1-.1-.1h-.83v-.56h2.48c.06 0 .06 0 .06.07v.49c0 .07 0 .07-.07.07h-.83v1.29l-.01-.02Zm-4.28-.32v-1.54c0-.11 0-.1.1-.1h2.03c.1 0 .09 0 .09.09v.49c0 .07 0 .07-.07.07h-1.4v.61c0 .09 0 .06.06 0h1.34v.56H8.46v1.2s0 .06-.05.06h-.66c-.07 0-.07 0-.07-.07v-1.36l.04-.01Zm-3.08 0v-1.54a.24.24 0 0 0 0-.06s0-.05.06-.05h2.18c.09 0 .08 0 .08.08v.5c0 .07 0 .07-.07.07H5.42c-.07 0-.07 0-.07.07v.53c0 .07 0 .07.07.07h1.4v.54H5.38v.61c0 .07 0 .07.07.07h1.48c.12 0 .1 0 .1.1v.47c0 .08 0 .07-.07.07H4.65v-1.6l-.01.07Zm9.46-2.64H34a.21.21 0 0 1 .21.2v4.68a.21.21 0 0 1-.06.16.17.17 0 0 1-.11 0H14.19c-.12 0-.11 0-.11-.11v-4.66a1.05 1.05 0 0 0-.02-.27h.04Z"/><path fill="#0F75BD" d="m23.23 13.85.45.45v.06a1.71 1.71 0 0 1-1.08.59 1.79 1.79 0 0 1-1.11-.22 1.6 1.6 0 0 1-.82-1.21 1.7 1.7 0 0 1 .12-1 1.65 1.65 0 0 1 1.3-1 1.78 1.78 0 0 1 1.65.56v.07l-.42.48-.17-.09a1.07 1.07 0 0 0-1.42-.12.931.931 0 0 0-.36.7c-.02.203.019.408.11.59a.92.92 0 0 0 .83.53 1.07 1.07 0 0 0 .85-.38l.07-.01ZM16 11.49a2 2 0 0 1 1.18.39c.08.06.07 0 0 .12l-.28.41c0 .07 0 .07-.12 0a1.5 1.5 0 0 0-.56-.25.921.921 0 0 0-.41 0 .3.3 0 0 0-.21.18.27.27 0 0 0 .12.35l.19.08.45.13c.178.047.35.118.51.21a.88.88 0 0 1 .46.89 1 1 0 0 1-.82.87 1.89 1.89 0 0 1-1.43-.21 2.474 2.474 0 0 1-.35-.26v-.09l.37-.45h.08a2.2 2.2 0 0 0 .55.35 1 1 0 0 0 .49.07.43.43 0 0 0 .16 0 .3.3 0 0 0 .13-.4.31.31 0 0 0-.13-.13 1.374 1.374 0 0 0-.31-.12c-.18 0-.36-.09-.54-.16l-.29-.13a.759.759 0 0 1-.42-.63 1.309 1.309 0 0 1 0-.4.82.82 0 0 1 .31-.5 1.29 1.29 0 0 1 .65-.25l.22-.07Zm8.06 1.15v-1c0-.06 0-.06.06-.06h.64v1.78c-.01.164.018.328.08.48a.6.6 0 0 0 .43.37.63.63 0 0 0 .78-.4c.049-.131.072-.27.07-.41v-1.73c0-.11 0-.09.09-.1h.6c.06 0 .06 0 .06.06v1.9a1.52 1.52 0 0 1-.11.59 1.26 1.26 0 0 1-.83.74 1.58 1.58 0 0 1-1 0 1.27 1.27 0 0 1-.85-1 1.788 1.788 0 0 1 0-.38 6.84 6.84 0 0 1 0-.83l-.02-.01Zm6.79.59v-1.56c0-.1 0-.08.08-.08h2.3v.57h-1.54c-.07 0-.07 0-.07.07v.54c0 .07 0 .07.07.07H33c.12 0 .1 0 .1.1v.46c0 .08 0 .08-.08.08h-1.35c-.06 0-.06 0-.06.06v.56c0 .07 0 .07.07.07h1.59v.56H31c-.1 0-.1 0-.1-.09v-1.6l-.05.19Zm-13 0v-1.58c0-.08 0-.07.08-.07h2.32v.61h-1.6v.62c0 .06 0 .06.07.06H20c.07 0 .07 0 .07.07v.5c0 .07 0 .07-.07.07h-1.29c-.13 0-.13 0-.13.12v.47c0 .08 0 .08.08.08h1.63v.56h-2.38c-.07 0-.07 0-.07-.07v-1.6l.01.16Zm11.79.47.83 1.17h-.83a.12.12 0 0 1-.11-.06l-.65-.94a.13.13 0 0 0-.12-.07h-.37c-.07 0-.07 0-.07.07v.91c0 .09 0 .08-.08.08h-.59c-.07 0-.07 0-.07-.07v-3.13c0-.1 0-.09.09-.09h1.27c.223-.001.445.029.66.09a.83.83 0 0 1 .59.53c.033.084.056.171.07.26.042.211.042.429 0 .64a.87.87 0 0 1-.5.59h-.07l-.05.02Z"/><path fill="#fff" d="M28.3 12.7v-.43c0-.06 0-.06.07-.06h.54c.09-.011.18-.011.27 0a.34.34 0 0 1 .27.3.75.75 0 0 1 0 .32.36.36 0 0 1-.26.28 1.133 1.133 0 0 1-.31 0h-.53c-.07 0-.07 0-.07-.07v-.39"/></svg>