<svg width="38" height="24" viewBox="0 0 38 24" aria-labelledby="pi-eft_secure" version="1.1" xmlns="http://www.w3.org/2000/svg" xmlns:xlink="http://www.w3.org/1999/xlink"><title id="pi-eft_secure">EFT Secure</title><defs><path id="path-1" d="M0 .26h33.823v11.808H0z"/></defs><g id="Page-1" stroke="none" stroke-width="1" fill="none" fill-rule="evenodd"><g id="eft-secure"><path d="M35 0H3C1.3 0 0 1.3 0 3v18c0 1.7 1.4 3 3 3h32c1.7 0 3-1.3 3-3V3c0-1.7-1.4-3-3-3z" id="Path" fill="#000" opacity=".07"/><path d="M35 1c1.1 0 2 .9 2 2v18c0 1.1-.9 2-2 2H3c-1.1 0-2-.9-2-2V3c0-1.1.9-2 2-2h32" id="Path" fill="#FFF"/><g id="eft_secure" transform="translate(2 4)"><g id="Group-3" transform="translate(0 .947)"><g id="Fill-1-Clipped"><mask id="mask-2" fill="#fff"><use xlink:href="#path-1"/></mask><path d="M9.898 4.847h-.499c-.071 0-.071 0-.071-.071a3.216 3.216 0 0 0-.303-1.336 3.387 3.387 0 0 0-2.467-1.977 3.446 3.446 0 0 0-4.14 3.33s0 .062-.062.062H1.34c-.053 0-.053 0-.053-.061.006-.203.024-.405.053-.606a4.33 4.33 0 0 1 .525-1.514A4.564 4.564 0 0 1 4.876.376a4.32 4.32 0 0 1 1.3-.106 4.595 4.595 0 0 1 4.283 4.497c0 .08 0 .08-.081.08h-.48zm7.025.677h16.125c.406-.02.751.29.775.694v5.093a.74.74 0 0 1-.294.614.682.682 0 0 1-.426.143H.789a.732.732 0 0 1-.687-.401s0-.07-.07-.08c-.072-.01 0 0 0-.044 0-.045-.027-.232-.027-.232V6.325a.75.75 0 0 1 .721-.81h16.197v.009z" id="Fill-1" fill="#58585A" fill-rule="nonzero" mask="url(#mask-2)"/></g></g><path d="M9.31 10.193v1.389h-.757s-.053 0-.044-.055v-2.67c0-.125 0-.107-.108-.107h-.89s-.044 0-.044-.044V8.1s0-.045.044 0h2.672c.061 0 .061 0 .061.071v.526c0 .071 0 .071-.08.071h-.89s-.044 0 0 .044v.063c.036.437.036.882.036 1.326v-.008zm-4.613-.348V8.181c0-.116 0-.108.108-.108H7.04c.106 0 .098 0 .098.098v.526c0 .071 0 .071-.072.071H5.552s-.053 0-.053.054v.659c0 .097 0 .061.063.053h1.45s.054 0 .054.044v.606s0 .045-.054.045H5.543v1.291s0 .062-.054.062h-.71c-.082 0-.072 0-.072-.071V9.855l-.01-.01zm-3.321 0V8.189a.263.263 0 0 0 0-.061c0-.046 0-.055.063-.055h2.404c.098 0 .088 0 .088.09v.534c0 .071 0 .071-.071.071H2.258c-.08 0-.08 0-.08.08v.57c0 .08 0 .08.08.08h1.514v.588s0 .054-.053.054H2.222v.658c0 .072 0 .072.071.072h1.603c.124 0 .107 0 .107.106v.508c0 .09 0 .08-.08.08H1.43s-.044 0 0-.044V9.792l-.054.053zM11.58 6.997c.03-.01.06-.01.09 0h21.37a.222.222 0 0 1 .232.212l-.001.028v5.022a.227.227 0 0 1-.063.177.179.179 0 0 1-.115.053h-21.37c-.133 0-.116 0-.116-.114V7.29a1.135 1.135 0 0 0-.027-.293z" id="Fill-4" fill="#FFF" fill-rule="nonzero"/><path d="M21.473 10.478l.48.489v.062a1.847 1.847 0 0 1-1.166.633 1.935 1.935 0 0 1-1.193-.24 1.726 1.726 0 0 1-.89-1.31 1.832 1.832 0 0 1 .124-1.068c.243-.587.778-1 1.408-1.086a1.915 1.915 0 0 1 1.78.606v.08l-.454.516-.187-.098a1.157 1.157 0 0 0-1.532-.134c-.236.182-.38.46-.392.757-.02.217.02.437.116.632.163.347.51.569.89.57.353.01.69-.14.918-.41l.045-.052.053.053zM13.717 7.94c.459 0 .904.148 1.274.419.089.061.07.053 0 .124l-.303.437c-.054.08-.054.08-.133 0a1.62 1.62 0 0 0-.606-.268.99.99 0 0 0-.445 0 .324.324 0 0 0-.232.197.294.294 0 0 0 .125.382.96.96 0 0 0 .204.09c.16.053.33.097.49.142.193.05.38.124.552.222.35.186.55.568.498.962a1.04 1.04 0 0 1-.89.944 2.044 2.044 0 0 1-1.54-.224 2.67 2.67 0 0 1-.383-.275c-.053-.045-.053-.045 0-.098l.4-.49c0-.044 0-.044.09 0 .179.157.38.286.596.383.167.069.347.098.527.08a.487.487 0 0 0 .177-.053.32.32 0 0 0 0-.57 1.476 1.476 0 0 0-.338-.124c-.197-.054-.392-.098-.58-.17l-.31-.142a.82.82 0 0 1-.455-.677 1.409 1.409 0 0 1 0-.427.886.886 0 0 1 .338-.543c.206-.152.45-.245.704-.268l.24-.053zm8.69 1.238V8.082c0-.061 0-.061.063-.061h.686v1.922c-.008.178.022.354.09.517a.648.648 0 0 0 .462.4.678.678 0 0 0 .838-.435c.054-.143.08-.294.08-.446V8.127c0-.116 0-.098.097-.106h.642c.06 0 .06 0 .06.07v2.049c.002.216-.04.43-.123.631-.16.388-.486.68-.89.793a1.7 1.7 0 0 1-1.052 0 1.369 1.369 0 0 1-.916-1.086 1.932 1.932 0 0 1 0-.41c-.037-.312-.037-.605-.037-.898v.008zm7.32.64V8.128c0-.106 0-.088.089-.088h2.43s.055 0 .055.052v.615c0 .053 0 .053-.063.053H30.6c-.07 0-.07 0-.07.071v.588c0 .071 0 .071.07.071h1.46c.126 0 .107 0 .107.108v.498c0 .088 0 .088-.088.088h-1.496c-.062 0-.062 0-.062.063v.606c0 .071 0 .071.07.071h1.711s.053 0 .053.053v.606s0 .053-.053.053h-2.475c-.108 0-.108 0-.108-.098V9.81l.009.009zm-14.068 0V8.11c0-.09 0-.081.088-.081h2.44s.062 0 .062.053v.659h-1.727c-.045 0-.053 0-.053.063v.606c0 .07 0 .07.08.07h1.442c.071 0 .071 0 .071.07v.536c0 .08 0 .08-.08.08h-1.38c-.142 0-.142 0-.142.134v.506c0 .09 0 .09.089.09h1.692s.062 0 .062.054v.606s0 .053-.054.053h-2.51c-.071 0-.071 0-.071-.072V9.81l-.009.009zm12.715.509l.89 1.264H28.365a.125.125 0 0 1-.117-.063l-.702-1.015a.145.145 0 0 0-.134-.071h-.4c-.072 0-.072 0-.072.07v.98c0 .099 0 .09-.09.09h-.63c-.081 0-.081 0-.081-.08V8.118c0-.107 0-.097.097-.097h1.371c.242-.002.48.031.714.097a.89.89 0 0 1 .64.57c.034.092.058.187.072.285.044.226.044.46 0 .685a.944.944 0 0 1-.545.633h-.08l-.034.036z" id="Fill-6" fill="#0F75BD" fill-rule="nonzero"/><path d="M26.949 9.24v-.463c0-.063 0-.063.072-.063h.587c.097-.012.196-.012.294 0a.365.365 0 0 1 .293.321.804.804 0 0 1 0 .348.393.393 0 0 1-.285.303c-.107.03-.218.044-.329.044h-.57c-.07 0-.07 0-.07-.07 0-.072.008-.269.008-.42" id="Fill-8" fill="#FFF"/></g></g></g></svg>