<svg xmlns="http://www.w3.org/2000/svg" xmlns:xlink="http://www.w3.org/1999/xlink" width="38" height="24" fill="none" aria-labelledby="pi-eftpos_au" role="img" viewBox="0 0 38 24"><title id="pi-eftpos_au">Eftpos</title><defs><path id="pi-eftpos_au-b" fill="#fff" d="M0 0h38v24H0z"/></defs><g clip-path="url(#pi-eftpos_au-a)"><use xlink:href="#pi-eftpos_au-b"/><mask id="pi-eftpos_au-c" width="38" height="24" x="0" y="0" maskUnits="userSpaceOnUse" style="mask-type:luminance"><path fill="#fff" d="M38 0H0v24h38z"/></mask><g mask="url(#pi-eftpos_au-c)"><path fill="url(#pi-eftpos_au-d)" d="M19.475 4.2c-1.9.867-3.185 2.528-3.185 4.434 0 2.407 2.218 4.357 4.953 4.357 1.256 0 2.139-.29 3.171-.91.11-.066.233-.115.314-.012.047.058.027.13-.008.195-1.128 2.067-3.422 3.505-5.997 3.505a6.886 6.886 0 0 1-6.888-6.884 6.87 6.87 0 0 1 2.577-5.37c1.18-.947 4.138-1.078 5.063.685"/><path fill="#E50056" d="M24.64 6.865c0 2.287-2.185 4.14-4.88 4.14-.393 0-1.455-.054-2.215-.407-.216-.1-.194-.227-.046-.289.346-.142 3.055-.661 3.055-3.444s-2.875-4.817-6.142-3.35A6.86 6.86 0 0 1 18.723 2c3.2 0 5.917 2.178 5.917 4.865"/><path fill="#1F0038" d="M10.72 17.556c-1.12 0-1.72.674-1.72 1.546v.025c0 .877.476 1.452 1.67 1.452.863 0 1.443-.278 1.691-.932h-.833c-.124.213-.357.332-.803.332-.61 0-.912-.223-.991-.629H12.4v-.302c0-.863-.58-1.492-1.68-1.492m-.976 1.23c.099-.402.426-.635.991-.635.55 0 .833.203.907.634H9.744Zm6.023-1.913h-.645c0 .128-.004.336-.03.47-.044.238-.104.288-.317.308-.133.01-.282.01-.426.01h-.505v-.12c0-.43.084-.51.46-.51h.25v-.614h-.334c-.822 0-1.105.277-1.105 1.095v.15h-.67v.643h.67v2.19h.723l.005-2.19h1.2v.892c0 .966.258 1.298 1.204 1.298h.54v-.679h-.341c-.585 0-.68-.084-.68-.743v-.768h1.022v-.644h-1.021zm3.287.693c-.555 0-.982.228-1.2.62l-.063-.525h-.65v3.84h.748v-1.457c.203.336.575.524 1.145.524.803 0 1.468-.485 1.468-1.461v-.025c0-.986-.556-1.516-1.448-1.516m.669 1.536c0 .54-.282.838-.927.838-.61 0-.922-.302-.922-.842v-.02c0-.56.352-.892.932-.892.61 0 .917.307.917.897v.02Zm2.777-1.546c-1.017 0-1.706.57-1.706 1.521v.03c0 .927.51 1.472 1.69 1.472 1.146 0 1.726-.57 1.726-1.472v-.03c0-.96-.675-1.52-1.71-1.52Zm.931 1.546c0 .54-.282.838-.932.838-.624 0-.927-.293-.927-.838v-.025c0-.584.337-.892.937-.892.615 0 .922.318.922.892zm2.752-.342c-.739-.05-.942-.099-.942-.307 0-.173.144-.322.674-.322.466 0 .754.11.818.392h.813c-.154-.64-.66-.966-1.62-.966-.963 0-1.429.406-1.429.956 0 .59.496.778 1.378.827.734.04.962.085.962.298 0 .208-.178.336-.713.336-.55 0-.799-.118-.878-.42h-.863c.124.683.66 1.025 1.71 1.025.997 0 1.497-.407 1.497-.971 0-.61-.425-.788-1.407-.848m1.721-.575a.33.33 0 0 1-.224-.077q-.09-.078-.09-.226v-.015a.36.36 0 0 1 .042-.164.3.3 0 0 1 .11-.108.3.3 0 0 1 .159-.038.3.3 0 0 1 .158.036q.07.036.112.106a.3.3 0 0 1 .043.167v.016a.4.4 0 0 1-.011.09.3.3 0 0 1-.032.075.26.26 0 0 1-.11.103.34.34 0 0 1-.157.035m0-.052a.26.26 0 0 0 .181-.065q.072-.065.072-.189v-.01a.25.25 0 0 0-.073-.191.26.26 0 0 0-.183-.068.25.25 0 0 0-.181.07.25.25 0 0 0-.072.19v.01q0 .12.072.187a.26.26 0 0 0 .184.066m.003-.224h-.067v.119h-.055v-.322h.128q.068 0 .096.027.028.026.028.068 0 .033-.016.055a.1.1 0 0 1-.049.028q.03.007.044.025t.013.055v.047q0 .005.002.009l.003.007h-.057l-.002-.006v-.057a.07.07 0 0 0-.012-.044q-.012-.012-.056-.012Zm0-.048q.042.002.06-.014a.06.06 0 0 0 .016-.045.04.04 0 0 0-.018-.036.1.1 0 0 0-.055-.012h-.07v.107z"/></g></g><defs><linearGradient id="pi-eftpos_au-d" x1="18.355" x2="15.723" y1="11.153" y2="-2.4" gradientUnits="userSpaceOnUse"><stop offset=".141" stop-color="#E50056"/><stop offset=".75" stop-color="#1F0038"/></linearGradient><clipPath id="pi-eftpos_au-a"><use xlink:href="#pi-eftpos_au-b"/></clipPath></defs></svg>