<?xml version="1.0" encoding="utf-8"?>
<!-- Generator: Adobe Illustrator 21.0.0, SVG Export Plug-In . SVG Version: 6.00 Build 0)  -->
<svg version="1.1" id="Layer_1" xmlns="http://www.w3.org/2000/svg" xmlns:xlink="http://www.w3.org/1999/xlink" x="0px" y="0px"
	 viewBox="0 0 38 24" style="enable-background:new 0 0 38 24;" xml:space="preserve">
<style type="text/css">
	.st0{opacity:7.000000e-02;enable-background:new    ;}
	.st1{fill:#FFFFFF;}
</style>
<path class="st0" d="M35,0H3C1.3,0,0,1.3,0,3v18c0,1.7,1.4,3,3,3h32c1.7,0,3-1.3,3-3V3C38,1.3,36.6,0,35,0z"/>
<path class="st1" d="M35,1c1.1,0,2,0.9,2,2v18c0,1.1-0.9,2-2,2H3c-1.1,0-2-0.9-2-2V3c0-1.1,0.9-2,2-2H35"/>
<g>
	<g>
		<g>
			<g>
				<path d="M13.3,15.5c-0.6,0.6-1.4,0.9-2.3,0.9c-0.6,0-1.2-0.2-1.6-0.5l-1.2,1.9C9,18.4,10,18.7,11,18.7c1.5,0,2.9-0.6,3.9-1.6
					L13.3,15.5z"/>
				<path d="M11.2,7.8c-3,0-5.5,2.4-5.5,5.4c0,1.1,0.3,2.2,0.9,3.1l9.8-4.2C15.8,9.6,13.7,7.8,11.2,7.8 M7.9,13.6c0-0.1,0-0.3,0-0.4
					c0-1.8,1.5-3.2,3.2-3.2c1,0,1.8,0.5,2.4,1.1L7.9,13.6z"/>
			</g>
			<path d="M19.5,5.3v10.5l1.8,0.8l-0.9,2.1l-1.8-0.8c-0.4-0.2-0.7-0.4-0.9-0.7c-0.2-0.3-0.3-0.7-0.3-1.3V5.3H19.5z"/>
		</g>
		<g>
			<path d="M26,10.2c0.3-0.1,0.7-0.2,1-0.2c1.5,0,2.8,1.1,3.1,2.6l2.2-0.4c-0.5-2.5-2.7-4.4-5.3-4.4c-0.6,0-1.2,0.1-1.7,0.3L26,10.2
				z"/>
			<path d="M23.4,17.3l1.5-1.7c-0.7-0.6-1.1-1.4-1.1-2.4c0-1,0.4-1.8,1.1-2.4l-1.5-1.7c-1.1,1-1.8,2.5-1.8,4.1
				C21.6,14.9,22.3,16.3,23.4,17.3z"/>
			<path d="M30.1,13.9c-0.3,1.5-1.6,2.6-3.1,2.6c-0.4,0-0.7-0.1-1-0.2l-0.7,2.1c0.5,0.2,1.1,0.3,1.7,0.3c2.6,0,4.8-1.9,5.3-4.4
				L30.1,13.9z"/>
		</g>
	</g>
</g>
</svg>
