<svg xmlns="http://www.w3.org/2000/svg" width="38" height="24" fill="none" aria-labelledby="pi-elo" role="img" viewBox="0 0 38 24"><title id="pi-elo">Elo</title><path fill="#fff" d="M0 0h38v24H0z"/><path fill="#000" d="M13.3 15.5c-.6.6-1.4.9-2.3.9-.6 0-1.2-.2-1.6-.5l-1.2 1.9c.8.6 1.8.9 2.8.9 1.5 0 2.9-.6 3.9-1.6zm-2.1-7.7c-3 0-5.5 2.4-5.5 5.4 0 1.1.3 2.2.9 3.1l9.8-4.2c-.6-2.5-2.7-4.3-5.2-4.3m-3.3 5.8v-.4c0-1.8 1.5-3.2 3.2-3.2 1 0 1.8.5 2.4 1.1zm11.6-8.3v10.5l1.8.8-.9 2.1-1.8-.8c-.4-.2-.7-.4-.9-.7s-.3-.7-.3-1.3V5.3zm6.5 4.9c.3-.1.7-.2 1-.2 1.5 0 2.8 1.1 3.1 2.6l2.2-.4c-.5-2.5-2.7-4.4-5.3-4.4-.6 0-1.2.1-1.7.3zm-2.6 7.1 1.5-1.7c-.7-.6-1.1-1.4-1.1-2.4s.4-1.8 1.1-2.4l-1.5-1.7c-1.1 1-1.8 2.5-1.8 4.1 0 1.7.7 3.1 1.8 4.1m6.7-3.4c-.3 1.5-1.6 2.6-3.1 2.6-.4 0-.7-.1-1-.2l-.7 2.1c.5.2 1.1.3 1.7.3 2.6 0 4.8-1.9 5.3-4.4z"/></svg>