<?xml version="1.0" encoding="UTF-8"?>
<svg width="38px" height="24px" viewBox="0 0 38 24" version="1.1" xmlns="http://www.w3.org/2000/svg" xmlns:xlink="http://www.w3.org/1999/xlink" style="background: #FFFFFF;">
    <!-- Generator: Sketch 47.1 (45422) - http://www.bohemiancoding.com/sketch -->
    <title>elo</title>
    <desc>Created with Sketch.</desc>
    <defs></defs>
    <g id="Page-1" stroke="none" stroke-width="1" fill="none" fill-rule="evenodd">
        <g id="elo" fill-rule="nonzero">
            <g id="Elo">
                <path d="M35,0 L3,0 C1.3,0 0,1.3 0,3 L0,21 C0,22.7 1.4,24 3,24 L35,24 C36.7,24 38,22.7 38,21 L38,3 C38,1.3 36.6,0 35,0 Z" id="Shape" fill="#000000" opacity="0.07"></path>
                <path d="M35,1 C36.1,1 37,1.9 37,3 L37,21 C37,22.1 36.1,23 35,23 L3,23 C1.9,23 1,22.1 1,21 L1,3 C1,1.9 1.9,1 3,1 L35,1" id="Shape" fill="#FFFFFF"></path>
                <g id="Group" transform="translate(5.000000, 5.000000)" fill="#000000">
                    <g id="Shape">
                        <g transform="translate(0.000000, 2.000000)">
                            <path d="M8.3,8.5 C7.7,9.1 6.9,9.4 6,9.4 C5.4,9.4 4.8,9.2 4.4,8.9 L3.2,10.8 C4,11.4 5,11.7 6,11.7 C7.5,11.7 8.9,11.1 9.9,10.1 L8.3,8.5 Z"></path>
                            <path d="M6.2,0.8 C3.2,0.8 0.7,3.2 0.7,6.2 C0.7,7.3 1,8.4 1.6,9.3 L11.4,5.1 C10.8,2.6 8.7,0.8 6.2,0.8 L6.2,0.8 Z M2.9,6.6 C2.9,6.5 2.9,6.3 2.9,6.2 C2.9,4.4 4.4,3 6.1,3 C7.1,3 7.9,3.5 8.5,4.1 L2.9,6.6 Z"></path>
                        </g>
                        <path d="M14.5,0.3 L14.5,10.8 L16.3,11.6 L15.4,13.7 L13.6,12.9 C13.2,12.7 12.9,12.5 12.7,12.2 C12.5,11.9 12.4,11.5 12.4,10.9 L12.4,0.3 L14.5,0.3 Z"></path>
                    </g>
                    <g transform="translate(16.000000, 2.000000)" id="Shape">
                        <path d="M5,3.2 C5.3,3.1 5.7,3 6,3 C7.5,3 8.8,4.1 9.1,5.6 L11.3,5.2 C10.8,2.7 8.6,0.8 6,0.8 C5.4,0.8 4.8,0.9 4.3,1.1 L5,3.2 Z"></path>
                        <path d="M2.4,10.3 L3.9,8.6 C3.2,8 2.8,7.2 2.8,6.2 C2.8,5.2 3.2,4.4 3.9,3.8 L2.4,2.1 C1.3,3.1 0.6,4.6 0.6,6.2 C0.6,7.9 1.3,9.3 2.4,10.3 Z"></path>
                        <path d="M9.1,6.9 C8.8,8.4 7.5,9.5 6,9.5 C5.6,9.5 5.3,9.4 5,9.3 L4.3,11.4 C4.8,11.6 5.4,11.7 6,11.7 C8.6,11.7 10.8,9.8 11.3,7.3 L9.1,6.9 Z"></path>
                    </g>
                </g>
            </g>
        </g>
    </g>
</svg>