<svg width="38" height="24" viewBox="0 0 38 24" role="img" aria-labelledby="pi-energieloket" xmlns="http://www.w3.org/2000/svg"><title id="pi-energieloket">Energieloket</title><path opacity=".07" d="M35 0H3C1.3 0 0 1.3 0 3v18c0 1.7 1.4 3 3 3h32c1.7 0 3-1.3 3-3V3c0-1.7-1.4-3-3-3z"/><path d="M35 1c1.1 0 2 .9 2 2v18c0 1.1-.9 2-2 2H3c-1.1 0-2-.9-2-2V3c0-1.1.9-2 2-2h32z" fill="#34783d" fill-opacity="1"/><path d="M8.111 12.495l-.998-1.857-.72.889v.968h-.748V8.601h.749v1.857L7.87 8.601h.889L7.622 10 9 12.495h-.88zm3.125 0v-.21s-.07.07-.12.1c-.05.03-.1.06-.16.09s-.13.05-.21.06c-.079.01-.159.02-.249.02-.15 0-.28-.02-.41-.06a.876.876 0 01-.548-.47 1.023 1.023 0 01-.08-.408c0-.16.03-.3.1-.42s.15-.22.26-.29c.11-.08.229-.13.359-.17.13-.039.27-.049.41-.049.139 0 .259.01.359.04.1.03.2.06.289.1v-.15c0-.16-.04-.27-.13-.34a.612.612 0 00-.38-.11c-.159 0-.319.02-.458.07s-.28.12-.41.21l-.22-.579c.07-.05.14-.09.23-.13.08-.04.18-.08.27-.11.1-.03.2-.05.31-.07.11-.02.229-.03.349-.03.09 0 .17 0 .26.01.09 0 .179.03.259.05.08.02.17.07.24.12.08.05.14.12.2.2.06.08.1.18.139.3.03.12.05.26.05.419v1.817h-.709zm-.599-.569c.13 0 .25-.02.35-.07.1-.05.18-.1.249-.16v-.31c-.07-.029-.16-.049-.25-.069a1.33 1.33 0 00-.28-.03c-.069 0-.139 0-.209.02-.07.02-.12.03-.17.06a.4.4 0 00-.12.1.24.24 0 00-.04.15c0 .09.04.17.12.22.08.06.2.08.36.08zm3.125.629a1.056 1.056 0 01-.849-.39c-.1-.13-.18-.279-.24-.469-.06-.19-.08-.399-.08-.639s.03-.439.09-.619.14-.339.25-.469a1.042 1.042 0 01.839-.39c.14 0 .26.02.36.07.1.05.18.12.239.2V8.801l.719-.33v4.014h-.719v-.21c-.06.09-.14.15-.24.2-.1.05-.23.07-.369.07zm.12-.689c.12 0 .22-.02.3-.06.08-.04.15-.1.199-.17v-1.128s-.04-.05-.07-.08c-.03-.03-.07-.05-.11-.08a.577.577 0 00-.14-.05.879.879 0 00-.17-.02.503.503 0 00-.419.2c-.1.14-.15.33-.15.59 0 .12.01.229.04.329s.06.18.11.25.11.12.18.16c.07.04.15.06.24.06zm3.215.689a1.217 1.217 0 01-.948-.39c-.11-.13-.2-.279-.26-.469-.06-.19-.09-.389-.09-.619 0-.23.03-.439.09-.619s.15-.34.26-.469a.984.984 0 01.409-.29c.16-.07.339-.1.539-.1s.379.03.539.1c.16.07.3.17.41.29.109.13.199.29.259.47s.09.389.09.618c0 .23-.03.44-.09.62s-.15.339-.26.469c-.11.13-.25.23-.41.29-.159.07-.339.099-.538.099zm0-.689c.09 0 .17-.02.24-.05.07-.04.13-.09.179-.16a.829.829 0 00.12-.25c.03-.099.04-.209.04-.329 0-.12-.01-.24-.04-.33a.963.963 0 00-.12-.249.47.47 0 00-.42-.21c-.09 0-.17.02-.239.05-.07.04-.13.09-.18.16a.829.829 0 00-.12.25c-.03.1-.04.21-.04.33 0 .12.01.229.04.329s.07.18.12.25a.47.47 0 00.42.21zm3.773.629l-.788-1.497-.27.26v1.247h-.719V8.831l.72-.34v1.947l.758-.768h.869l-.829.828 1.048 2.017h-.788zm2.986 0v-.21s-.07.07-.12.1c-.05.03-.1.06-.16.09s-.13.05-.2.06c-.08.02-.16.02-.249.02-.15 0-.28-.02-.41-.06a.876.876 0 01-.548-.47.996.996 0 01-.08-.408c0-.16.03-.3.1-.42s.15-.22.26-.29c.109-.08.229-.13.359-.17.14-.039.27-.049.409-.049.14 0 .26.01.36.04.11.02.199.06.289.1v-.15c0-.16-.04-.27-.13-.34a.612.612 0 00-.38-.11c-.16 0-.319.02-.459.07s-.28.12-.409.21l-.22-.579c.07-.05.14-.09.23-.13.08-.04.18-.08.27-.11.1-.03.2-.05.31-.07.109-.02.229-.03.349-.03.09 0 .17 0 .26.01.089 0 .179.03.259.05.08.02.17.07.24.12.08.05.14.12.199.2.06.08.1.18.14.3.03.12.05.26.05.419v1.817h-.71zm-.6-.569c.13 0 .25-.02.35-.07.1-.05.18-.1.25-.16v-.31c-.07-.029-.16-.049-.25-.069a1.33 1.33 0 00-.28-.03c-.07 0-.14 0-.209.02-.07.02-.12.03-.17.06a.4.4 0 00-.12.1.24.24 0 00-.04.15c0 .09.04.17.12.22.08.06.2.08.36.08zm3.694.569v-.21s-.069.07-.119.1c-.05.03-.1.06-.16.09s-.13.05-.21.06c-.08.01-.16.02-.249.02-.15 0-.28-.02-.41-.06a.876.876 0 01-.548-.47 1.023 1.023 0 01-.08-.408c0-.16.03-.3.1-.42s.15-.22.26-.29c.109-.08.229-.13.359-.17.13-.039.27-.049.409-.049.14 0 .26.01.36.04.1.03.199.06.289.1v-.15c0-.16-.04-.27-.13-.34a.612.612 0 00-.38-.11c-.16 0-.319.02-.459.07s-.28.12-.409.21l-.22-.579c.07-.05.14-.09.23-.13.08-.04.18-.08.27-.11.1-.03.2-.05.31-.07.109-.02.229-.03.349-.03.09 0 .17 0 .26.01.089 0 .179.03.259.05.08.02.17.07.24.12.08.05.14.12.199.2.06.08.1.18.14.3.03.12.05.26.05.419v1.817h-.71zm-.588-.569c.13 0 .25-.02.35-.07.1-.05.179-.1.249-.16v-.31c-.07-.029-.16-.049-.25-.069a1.33 1.33 0 00-.28-.03c-.07 0-.14 0-.209.02-.07.02-.12.03-.17.06a.4.4 0 00-.12.1.24.24 0 00-.04.15c0 .09.04.17.12.22.08.06.2.08.36.08zm2.086.569V9.65h.72v.25c.04-.09.1-.17.189-.23s.2-.09.34-.09c.12 0 .22.02.319.06.09.04.18.09.26.16l-.1.658a.879.879 0 00-.52-.17c-.06 0-.12 0-.18.03s-.109.05-.159.1-.08.11-.11.19-.04.18-.04.3v1.587zm3.225.06c-.12 0-.23-.02-.32-.05a.407.407 0 01-.209-.15.455.455 0 01-.12-.24c-.03-.09-.04-.199-.04-.319V10.28h-.409v-.64h.41v-.828l.718-.35V9.63h.64v.639h-.64v1.417c0 .07.02.13.05.17.04.04.08.06.15.06.07 0 .15-.01.23-.03.08-.02.16-.05.24-.09l-.08.63c-.08.04-.18.07-.28.1-.11.019-.22.029-.33.029zM7.532 14.432h.17l.3.829s.03.08.04.13c.01-.05.03-.09.04-.13l.289-.829h.17l-.45 1.218h-.12l-.449-1.218zm1.238.609c0-.4.21-.639.52-.639.309 0 .518.23.518.639 0 .41-.21.639-.519.639-.31 0-.519-.23-.519-.639zm.869-.01c0-.3-.12-.49-.35-.49-.23 0-.35.17-.35.49 0 .32.12.49.35.49.23 0 .35-.18.35-.49zm.439.01c0-.4.21-.639.52-.639.309 0 .518.23.518.639 0 .41-.21.639-.519.639-.31 0-.52-.23-.52-.639zm.869-.01c0-.3-.12-.49-.35-.49-.23 0-.35.17-.35.49 0 .32.12.49.35.49.23 0 .35-.18.35-.49zm.519-.599h.17v.17c.09-.13.21-.2.329-.2.06 0 .11.02.15.05l-.03.16s-.08-.05-.16-.05c-.11 0-.3.09-.3.39v.688h-.17v-1.218zm1.437-.359c0-.06.05-.11.11-.11s.11.05.11.11-.05.11-.11.11-.11-.05-.11-.11zm.03.359h.17v1.218h-.17zm.519 1.028l.12-.1c.07.09.19.17.32.17s.24-.06.24-.18c0-.15-.16-.21-.3-.269-.19-.08-.36-.16-.36-.37 0-.19.16-.309.39-.309.16 0 .3.07.4.19l-.11.09a.415.415 0 00-.29-.13c-.14 0-.23.06-.23.16 0 .12.14.18.28.23.18.07.39.159.39.399 0 .2-.16.329-.41.329-.16 0-.32-.09-.42-.21zm1.098-.419c0-.4.21-.639.52-.639.31 0 .52.23.52.639 0 .41-.21.639-.52.639-.31 0-.52-.23-.52-.639zm.87-.01c0-.3-.12-.49-.35-.49-.23 0-.35.17-.35.49 0 .32.12.49.35.49.23 0 .35-.18.35-.49zm.528-1.028l.17-.08v1.717h-.17zm1.308 1.517c-.1.09-.23.15-.359.15-.25 0-.41-.14-.41-.41 0-.269.21-.399.44-.399.1 0 .21.02.33.09v-.1c0-.25-.13-.3-.27-.3-.12 0-.27.07-.36.13l-.05-.14c.1-.06.26-.129.43-.129.17 0 .41.08.41.42v.818h-.16v-.12zm0-.18v-.239a.667.667 0 00-.31-.1c-.159 0-.309.08-.309.26 0 .16.1.27.28.27.15 0 .27-.1.34-.19zm.599.05v-.818h-.21v-.15h.21v-.42l.17-.08v.5h.31v.15h-.31v.749c0 .1.01.19.13.19.08 0 .14-.04.18-.07l-.02.17c-.06.03-.13.05-.22.05-.17 0-.24-.12-.24-.28zm.789-1.317c0-.06.05-.11.11-.11s.11.05.11.11-.05.11-.11.11-.11-.05-.11-.11zm.03.359h.17v1.218h-.17zm.509.599c0-.41.22-.639.53-.639.259 0 .479.18.479.59v.119h-.829c.03.25.15.41.36.41.09 0 .18-.03.269-.1l.09.11c-.1.08-.23.14-.37.14-.329 0-.529-.3-.529-.64zm.839-.08c0-.33-.18-.41-.31-.41-.2 0-.339.13-.359.41zm1.927-.05c0-.15-.04-.35-.26-.35-.18 0-.28.16-.28.35v.75h-.169v-.75c0-.15-.04-.35-.26-.35-.19 0-.28.14-.28.33v.77h-.169v-1.219h.17v.12c.08-.1.2-.15.33-.15s.259.07.329.19c.07-.1.19-.19.35-.19.239 0 .419.17.419.44v.808h-.17v-.749zm1.288.619c-.1.09-.23.15-.36.15-.25 0-.409-.14-.409-.41 0-.269.21-.399.44-.399.1 0 .209.02.329.09v-.1c0-.25-.13-.3-.27-.3-.12 0-.27.07-.36.13l-.05-.14c.1-.06.26-.129.43-.129.17 0 .41.08.41.42v.818h-.16v-.12zm0-.18v-.239a.667.667 0 00-.31-.1c-.16 0-.31.08-.31.26 0 .16.1.27.28.27.15 0 .27-.1.34-.19zm.599.05v-.818h-.21v-.15h.21v-.42l.17-.08v.5h.31v.15h-.31v.749c0 .1.01.19.13.19.08 0 .14-.04.18-.07l-.02.17c-.06.03-.13.05-.22.05-.17 0-.24-.12-.24-.28zm.709-.359c0-.41.22-.639.529-.639.26 0 .48.18.48.59v.119h-.83c.03.25.15.41.36.41.09 0 .18-.03.27-.1l.09.11c-.1.08-.23.14-.37.14-.33 0-.53-.3-.53-.64zm.838-.08c0-.33-.18-.41-.31-.41-.199 0-.339.13-.359.41zm.51-.519h.17v.17c.09-.13.209-.2.329-.2.06 0 .11.02.15.05l-.03.16s-.08-.05-.16-.05c-.11 0-.3.09-.3.39v.688h-.17v-1.218zm.888-.359c0-.06.05-.11.11-.11s.11.05.11.11-.05.11-.11.11-.11-.05-.11-.11zm.03.359h.17v1.218h-.17zm1.298 1.088c-.1.09-.23.15-.36.15-.249 0-.409-.14-.409-.41 0-.269.21-.399.44-.399.1 0 .21.02.329.09v-.1c0-.25-.13-.3-.27-.3-.12 0-.27.07-.359.13l-.05-.14c.1-.06.26-.129.43-.129.17 0 .409.08.409.42v.818h-.16v-.12zm0-.18v-.239a.667.667 0 00-.31-.1c-.16 0-.309.08-.309.26 0 .16.1.27.28.27.15 0 .27-.1.339-.19zm1.238.18c-.1.09-.23.15-.36.15-.249 0-.409-.14-.409-.41 0-.269.21-.399.44-.399.1 0 .21.02.329.09v-.1c0-.25-.13-.3-.27-.3-.12 0-.27.07-.359.13l-.05-.14c.1-.06.26-.129.43-.129.17 0 .409.08.409.42v.818h-.16v-.12zm0-.18v-.239a.667.667 0 00-.31-.1c-.16 0-.309.08-.309.26 0 .16.1.27.28.27.15 0 .27-.1.339-.19zm.549-1.337l.17-.08v1.717h-.17z" fill="#fff"/></svg>