<?xml version="1.0" encoding="utf-8"?>
<!-- Generator: Adobe Illustrator 16.0.0, SVG Export Plug-In . SVG Version: 6.00 Build 0)  -->
<!DOCTYPE svg PUBLIC "-//W3C//DTD SVG 1.1//EN" "http://www.w3.org/Graphics/SVG/1.1/DTD/svg11.dtd">
<svg version="1.1" id="Layer_1" xmlns="http://www.w3.org/2000/svg" xmlns:xlink="http://www.w3.org/1999/xlink" x="0px" y="0px"
	 width="38px" height="24px" viewBox="0 0 38 24" enable-background="new 0 0 38 24" xml:space="preserve">
<title  id="pi-apple_pay">Apple Pay</title>
<path id="Shape" opacity="0.07" enable-background="new    " d="M35,0H3C1.3,0,0,1.3,0,3v18c0,1.7,1.4,3,3,3h32c1.7,0,3-1.3,3-3V3
	C38,1.3,36.6,0,35,0z"/>
<path id="Shape_1_" fill="#FFFFFF" d="M35,1c1.1,0,2,0.9,2,2v18c0,1.1-0.9,2-2,2H3c-1.1,0-2-0.9-2-2V3c0-1.1,0.9-2,2-2H35"/>
<g>
	<path fill-rule="evenodd" clip-rule="evenodd" fill="#E41132" d="M20.691,8.541c0.057,0.003,0.115,0.007,0.172,0.01
		c0.162,0.202,0.391,0.124,0.592,0.124c3.881,0.004,7.764,0.004,11.645,0c0.201,0,0.43,0.08,0.592-0.124
		c0.076,0.004,0.152,0.01,0.229,0.014c0.033,0.063,0.07,0.069,0.113,0.007c1.213,0.121,1.881,0.85,1.867,2.022
		c-0.002,0.327-0.17,0.474-0.461,0.449c-0.346-0.029-0.852,0.201-0.938-0.375c-0.059-0.384-0.246-0.576-0.572-0.698
		c-0.436-0.292-0.926-0.129-1.385-0.125c-0.732,0.007-1.479-0.139-2.203,0.091c-0.154,0.005-0.309,0.011-0.463,0.016
		c-0.072-0.099-0.092-0.039-0.107,0.035c-0.482,0.478-0.402,0.933,0.227,1.095c0.305,0.079,0.582,0.19,0.953,0.165
		c1.125-0.074,2.27-0.138,3.391,0.092c0.789,0.162,1.387,0.598,1.551,1.434c0.172,0.869,0.088,1.689-0.643,2.318
		c-0.287,0.248-0.615,0.383-0.998,0.383c-1.328-0.002-2.656,0.031-3.98-0.008c-1.391-0.043-2.211-0.891-2.146-2.098
		c0.014-0.277,0.016-0.457,0.369-0.334c0.119,0.041,0.283,0.045,0.398-0.002c0.426-0.172,0.604-0.012,0.633,0.414
		c0.025,0.355,0.271,0.502,0.584,0.523c1.285,0.084,2.574,0.064,3.861,0.012c0.326-0.014,0.529-0.184,0.553-0.541
		c0.023-0.354-0.096-0.599-0.447-0.705c-0.129-0.038-0.256-0.08-0.383-0.12c-0.26-0.248-0.584-0.131-0.871-0.119
		c-0.789,0.034-1.588-0.143-2.367,0.1c-1.773-0.014-2.393-0.691-2.428-2.646C27.311,9.69,26.568,9.885,25.84,9.84
		c-0.23-0.014-0.5-0.112-0.695,0.124c-0.004,1.593-0.008,3.186-0.016,4.779c-0.002,0.26,0.072,0.617-0.264,0.68
		c-0.359,0.068-0.787,0.25-1.094-0.166c0.096-0.086,0.1-0.199,0.1-0.316c0-1.488,0-2.979-0.002-4.468
		c0-0.148,0.031-0.313-0.143-0.402c-0.029-0.039-0.059-0.078-0.088-0.117c-0.145-0.183-0.348-0.116-0.529-0.118
		c-0.779-0.008-1.557-0.006-2.334-0.007c-0.002-0.038-0.01-0.074-0.027-0.109C20.781,9.323,20.846,8.927,20.691,8.541z
		 M24.996,10.318c-0.02,0.003-0.037,0.007-0.057,0.01c0,1.564,0,3.129,0,4.691c0.02,0,0.037,0,0.057,0
		C24.996,13.453,24.996,11.885,24.996,10.318z"/>
	<path fill-rule="evenodd" clip-rule="evenodd" fill="#E40E30" d="M15.489,12.727c0,0.428,0,0.854,0.001,1.281
		c-0.135,0.475,0.166,1.02-0.232,1.453c-0.872,0.154-1.49-0.107-2.02-0.889c-0.901-1.328-1.933-2.569-2.921-3.837
		c-0.101-0.129-0.132-0.396-0.409-0.309c-0.033-0.003-0.078-0.019-0.096-0.004c-0.022,0.02-0.031,0.064-0.031,0.099
		c-0.001,1.375-0.003,2.753,0.003,4.128c0.001,0.203-0.069,0.424,0.088,0.605c-0.311,0.412-0.745,0.238-1.103,0.166
		c-0.373-0.076-0.256-0.465-0.257-0.738c-0.006-1.824,0.013-3.651-0.014-5.476C8.491,8.701,8.693,8.55,9.155,8.5
		c0.851-0.092,1.463,0.117,1.973,0.898c0.774,1.188,1.693,2.281,2.556,3.411c0.103,0.135,0.235,0.246,0.354,0.369
		c0.199-0.136,0.129-0.344,0.13-0.523c0.006-1.106,0.006-2.211,0-3.316c-0.001-0.184,0.061-0.385-0.099-0.542
		c0.34-0.433,0.803-0.265,1.233-0.25c0.302,0.393,0.079,0.864,0.193,1.285c-0.002,0.043-0.003,0.087-0.005,0.131
		c0,0.43-0.001,0.86-0.001,1.29C15.489,11.743,15.489,12.234,15.489,12.727z"/>
	<path fill-rule="evenodd" clip-rule="evenodd" fill="#0B4AB6" d="M4.759,10.265c0.525-0.024,1.046,0.156,1.501,0.505
		c0.26,0.199,0.55,0.442,0.281,0.813c-0.294,0.404-0.57,0.17-0.872-0.051c-0.642-0.469-1.444-0.452-2.036,0.004
		C3.031,12,2.813,12.791,3.09,13.504c0.258,0.662,0.968,1.104,1.696,1.049c0.378-0.027,0.7-0.184,0.983-0.432
		c0.25-0.217,0.514-0.277,0.759-0.006c0.278,0.307,0.051,0.521-0.164,0.729C5.604,15.582,4.303,15.689,3.31,15.1
		c-1.024-0.611-1.499-1.791-1.179-2.93C2.458,11.005,3.477,10.25,4.759,10.265z"/>
	<path fill-rule="evenodd" clip-rule="evenodd" fill="#0B4AB6" d="M15.258,15.461c0.398-0.434,0.097-0.979,0.232-1.453
		c1.575,0,3.15,0.029,4.723-0.014c0.672-0.018,0.557,0.385,0.572,0.783c0.016,0.418,0.023,0.734-0.576,0.719
		C18.56,15.453,16.909,15.469,15.258,15.461z"/>
	<path fill-rule="evenodd" clip-rule="evenodd" fill="#0B4AB6" d="M15.489,12.727c0-0.493,0-0.984,0-1.475
		c1.497,0,2.994,0.029,4.49-0.01c0.609-0.015,0.631,0.295,0.631,0.75c-0.002,0.452-0.02,0.765-0.631,0.75
		C18.483,12.701,16.986,12.727,15.489,12.727z"/>
	<path fill-rule="evenodd" clip-rule="evenodd" fill="#0046B7" d="M15.495,9.831c-0.114-0.421,0.109-0.892-0.193-1.285
		c1.797-0.054,3.593-0.045,5.389-0.005c0.154,0.386,0.09,0.783,0.057,1.178c-0.207,0.129-0.438,0.115-0.666,0.115
		C18.553,9.832,17.024,9.832,15.495,9.831z"/>
	<path fill-rule="evenodd" clip-rule="evenodd" fill="#0B4AB6" d="M4.989,13.313c-0.421,0-0.842,0-1.264,0.001
		c-0.281,0-0.417-0.145-0.435-0.42c-0.018-0.277,0.113-0.475,0.376-0.481c0.917-0.021,1.836-0.025,2.754,0.002
		c0.256,0.008,0.388,0.235,0.358,0.502c-0.026,0.237-0.163,0.389-0.413,0.392c-0.459,0.007-0.918,0.002-1.377,0.002
		C4.989,13.312,4.989,13.312,4.989,13.313z"/>
	<path fill-rule="evenodd" clip-rule="evenodd" fill="#E0001D" d="M33.691,8.551c-0.162,0.203-0.391,0.124-0.592,0.124
		c-3.881,0.004-7.764,0.004-11.645,0c-0.201,0-0.43,0.079-0.592-0.124c0.9-0.011,1.801-0.029,2.701-0.03
		c3.166-0.003,6.332-0.002,9.498,0C33.273,8.521,33.482,8.54,33.691,8.551z"/>
	<path fill-rule="evenodd" clip-rule="evenodd" fill="#0B4AB6" d="M15.495,9.831c1.529,0.001,3.058,0.001,4.587,0.003
		c0.229,0,0.459,0.014,0.666-0.115c0.018,0.035,0.025,0.071,0.027,0.109c-0.025,0.038-0.053,0.076-0.078,0.113
		c-1.735,0.007-3.471,0.015-5.207,0.021C15.492,9.918,15.493,9.874,15.495,9.831z"/>
	<path fill-rule="evenodd" clip-rule="evenodd" fill="#E0001D" d="M23.727,10.069c0.174,0.089,0.143,0.254,0.143,0.402
		c0.002,1.489,0.002,2.979,0.002,4.468c0,0.117-0.004,0.23-0.1,0.316c-0.15-0.869-0.045-1.744-0.062-2.617
		C23.693,11.783,23.719,10.925,23.727,10.069z"/>
	<path fill-rule="evenodd" clip-rule="evenodd" fill="#E0001D" d="M9.872,15.254c-0.158-0.182-0.087-0.402-0.088-0.605
		c-0.006-1.375-0.004-2.752-0.003-4.128c0-0.034,0.009-0.079,0.031-0.099c0.018-0.015,0.063,0.001,0.096,0.004
		C9.919,12.035,9.99,13.646,9.872,15.254z"/>
	<path fill-rule="evenodd" clip-rule="evenodd" fill="#E0001D" d="M14.069,8.796c0.16,0.157,0.098,0.359,0.099,0.542
		c0.005,1.105,0.005,2.21,0,3.316c0,0.18,0.069,0.388-0.13,0.523C14.048,11.716,14.059,10.256,14.069,8.796z"/>
	<path fill-rule="evenodd" clip-rule="evenodd" fill="#E0001D" d="M30.342,9.937c0.725-0.23,1.471-0.084,2.203-0.091
		c0.459-0.004,0.949-0.167,1.385,0.125C32.734,9.959,31.539,9.948,30.342,9.937z"/>
	<path fill-rule="evenodd" clip-rule="evenodd" fill="#E0001D" d="M30.455,12.598c0.779-0.243,1.578-0.066,2.367-0.1
		c0.287-0.013,0.611-0.129,0.871,0.119C32.613,12.61,31.535,12.604,30.455,12.598z"/>
	<path fill-rule="evenodd" clip-rule="evenodd" fill="#E0001D" d="M20.697,9.94c0.025-0.038,0.053-0.076,0.078-0.113
		c0.777,0.001,1.555,0,2.334,0.007c0.182,0.001,0.385-0.065,0.529,0.118C22.658,9.948,21.678,9.944,20.697,9.94z"/>
	<path fill-rule="evenodd" clip-rule="evenodd" fill="#E0001D" d="M25.145,9.963c0.195-0.235,0.465-0.137,0.695-0.124
		c0.729,0.045,1.471-0.149,2.188,0.111C27.066,9.955,26.105,9.959,25.145,9.963z"/>
	<path fill-rule="evenodd" clip-rule="evenodd" fill="#E0001D" d="M29.771,9.988c0.016-0.074,0.035-0.133,0.107-0.035
		C29.848,9.98,29.812,9.992,29.771,9.988z"/>
	<path fill-rule="evenodd" clip-rule="evenodd" fill="#E0001D" d="M34.033,8.572c-0.043,0.062-0.08,0.056-0.113-0.007
		C33.957,8.568,33.994,8.57,34.033,8.572z"/>
	<path fill-rule="evenodd" clip-rule="evenodd" fill="#E0001D" d="M24.996,10.318c0,1.567,0,3.135,0,4.701c-0.02,0-0.037,0-0.057,0
		c0-1.562,0-3.127,0-4.691C24.959,10.325,24.977,10.322,24.996,10.318z"/>
</g>
</svg>
