<svg xmlns="http://www.w3.org/2000/svg" width="38" height="24" fill="none" aria-labelledby="pi-eos" role="img" viewBox="0 0 38 24"><title id="pi-eos">EOS</title><path fill="#fff" d="M0 0h38v24H0z"/><path fill="#000" d="M19 20.2a8.2 8.2 0 1 0 0-16.4 8.2 8.2 0 0 0 0 16.4"/><path fill="#fff" d="M19 18.3s0-.1 0 0l-4.1-2.6v-.2l1.3-6v-.1l2.7-3.7.1-.1s.1 0 .1.1l2.7 3.7v.1l1.3 6v.2zc.1 0 .1-.1 0 0m-3.5-2.6 3.3 2.1-.7-2.1zm4.4 0-.7 2.1 3.3-2.1zm-1.5 0 .6 2 .6-2zm1.6-.3h2.8L21 12.3zm-1.7 0h1.4l1.1-3.5L19 8.7l-1.8 3.2zm-3.1 0H18l-1-3.2zm6-3.5 1.6 2.8-1-4.6zm-4.9-1.8-1 4.6 1.6-2.8zm2.9-1.7 1.8 3.2.6-2-2.4-3.3zm-2.8 1.2.6 2 1.8-3.2V6.2z"/></svg>