<svg xmlns="http://www.w3.org/2000/svg" fill="none" viewBox="0 0 38 24" height="24" width="38" aria-labelledby="pi-epospay" role="img"><title id="pi-epospay">EPOS Kantan Kessai</title><path fill="#fff" d="M0 0h38v24H0z"/><path fill="#45A2B1" d="M27.79 7.13a.448.448 0 0 0-.114-.079l.001-.001a4.827 4.827 0 0 0-.603-.256c-1.078-.363-2.559-.154-2.596 1.282v.033c0 .119.017.235.05.343.169.546.643.793 1.148.95l.89-.693a6.73 6.73 0 0 0-.28-.063 2.46 2.46 0 0 1-.607-.193c-.208-.108-.303-.268-.274-.485.034-.256.22-.442.743-.442.283 0 .56.036 1.108.31l.001-.003a.469.469 0 0 0 .534-.078.431.431 0 0 0 0-.625m-12.336.474h-.917v3.405a.449.449 0 0 0 .459.442.448.448 0 0 0 .458-.442V7.604Zm-4.401 0h2.2a.45.45 0 0 0 .458-.442.449.449 0 0 0-.458-.442h-2.658a.45.45 0 0 0-.459.442v1.481h.917V7.604Z"/><path fill="#D0372D" d="m23.105 7.34-.648.626c.304.293.492.699.492 1.146 0 .897-.753 1.62-1.68 1.62a1.687 1.687 0 0 1-1.187-.475l-.649.626c.47.453 1.118.734 1.836.734 1.437 0 2.595-1.124 2.597-2.502v-.003c0-.692-.291-1.319-.761-1.772m-6.464-.62h-1.644a.45.45 0 0 0-.459.442v.442h2.103c.328 0 .593.256.593.573a.583.583 0 0 1-.593.572h-1.186v.885h1.186c.834 0 1.51-.653 1.51-1.457 0-.805-.676-1.457-1.51-1.457m-5.587 2.808h1.81a.45.45 0 0 0 .459-.442.45.45 0 0 0-.459-.443h-2.727v2.366c0 .123.052.233.135.313.083.08.197.13.324.13h.458V9.528Z"/><path fill="#C1875F" d="M19.59 9.112c0-.449.188-.853.491-1.147l-.647-.624a2.452 2.452 0 0 0-.761 1.77c0 .692.29 1.318.76 1.772l.649-.626a1.588 1.588 0 0 1-.493-1.145m-6.335 1.455h-2.2v.885h2.2a.45.45 0 0 0 .458-.443.449.449 0 0 0-.458-.442m3.706-4.152a.539.539 0 0 0 .548-.529.539.539 0 0 0-.549-.529.54.54 0 0 0-.548.53.54.54 0 0 0 .548.528"/><path fill="#7C266E" d="m26.566 8.71-.89.691c.746.231 1.56.264 1.562.763 0 .284-.218.562-.86.562-.528 0-.928-.163-1.353-.432a.47.47 0 0 0-.571.06.432.432 0 0 0 .07.68l.001.001.002.001c.58.367 1.147.574 1.852.574 1.141 0 1.776-.658 1.776-1.446 0-.854-.744-1.245-1.59-1.455M21.27 7.49c.464 0 .884.183 1.187.476l.648-.626a2.637 2.637 0 0 0-1.836-.734h-.03v.002a2.635 2.635 0 0 0-1.805.733l.647.625c.32-.306.745-.477 1.188-.475m-5.73-1.076a.54.54 0 0 0 .548-.529.539.539 0 0 0-.548-.529.54.54 0 0 0-.549.53.54.54 0 0 0 .549.528"/><path fill="#595757" d="M8.625 14.389c.219.363.462.883.617 1.275a.316.316 0 0 1-.169.404.335.335 0 0 1-.457-.19 6.084 6.084 0 0 0-.535-1.183.296.296 0 0 1 .146-.43l.009-.004a.317.317 0 0 1 .39.128m-2.237-.677c.184.018.314.18.286.356-.034.214-.083.622-.102.718.166-.01.316-.02.416-.02.527 0 .897.228.897.915 0 .566-.07 1.33-.28 1.746-.166.334-.441.44-.817.44a2.83 2.83 0 0 1-.377-.028.29.29 0 0 1-.249-.234l-.005-.03c-.033-.19.138-.354.337-.326.079.012.15.018.199.018.165 0 .295-.048.37-.208.141-.265.206-.836.206-1.31 0-.383-.17-.436-.486-.436-.08 0-.2.01-.341.02-.17.644-.473 1.606-.859 2.307a.34.34 0 0 1-.612-.05.32.32 0 0 1 .032-.273c.369-.603.63-1.367.782-1.917-.175.02-.33.039-.426.053l-.253.028a.29.29 0 0 1-.326-.256v-.004a.286.286 0 0 1 .265-.308c.291-.025.717-.062.876-.074.038-.204.086-.643.115-.859a.32.32 0 0 1 .352-.268Zm4.421 2.008c.185-.102.375-.146.566-.146.371 0 .596.233.617.63.007.159.009.416.01.619 0 .277.09.452.311.452.347 0 .593-.303.742-.731a.336.336 0 0 1 .428-.198.318.318 0 0 1 .199.422c-.288.67-.793 1.152-1.46 1.152-.541 0-.79-.416-.81-.764-.02-.256-.027-.551-.042-.745-.015-.17-.11-.266-.29-.266-.342 0-.498.294-.67.63-.094.183-.264.528-.395.82-.079.177-.263.284-.451.223a.339.339 0 0 1-.216-.454c.31-.724.74-1.588 1.01-2.091.217-.403.48-.863.686-1.215.082-.142.26-.2.415-.14.194.076.27.302.157.472-.232.35-.594.91-.808 1.33m9.623 0c.185-.102.376-.146.566-.146.37 0 .597.233.617.63.007.159.009.416.01.619 0 .277.09.452.312.452.346 0 .593-.303.741-.731a.336.336 0 0 1 .428-.198.317.317 0 0 1 .2.422c-.29.67-.794 1.152-1.46 1.152-.542 0-.79-.416-.81-.764-.02-.256-.028-.551-.043-.745-.015-.17-.11-.266-.29-.266-.342 0-.498.294-.67.63-.094.183-.264.528-.395.82-.079.177-.263.284-.451.223a.338.338 0 0 1-.216-.454c.31-.724.74-1.588 1.01-2.091.217-.403.48-.863.686-1.215.082-.142.26-.2.415-.14.195.076.27.302.157.472-.232.35-.594.91-.807 1.33m-4.077.021a.282.282 0 0 1 .254-.288c.425-.05.852-.068 1.28-.056.157.004.28.13.282.28a.29.29 0 0 1-.311.287 6.31 6.31 0 0 0-.538-.004c-.23.009-.438.023-.643.047a.285.285 0 0 1-.324-.266m-.038.738a.288.288 0 0 1 .266.318.908.908 0 0 0-.008.113c0 .207.125.362.656.362.218 0 .443-.015.673-.043a.302.302 0 0 1 .345.306.3.3 0 0 1-.275.284c-.22.022-.47.038-.748.038-.837 0-1.263-.28-1.263-.764 0-.122.014-.25.034-.371a.295.295 0 0 1 .32-.243m.65-1.536c-.308.05-.796.12-1.184.147 0 0-.096.421-.15.615-.153.568-.417 1.457-.658 2.057a.356.356 0 0 1-.44.2.336.336 0 0 1-.213-.458c.257-.56.533-1.418.684-1.964.035-.125.07-.26.105-.396-.248.01-.47.009-.635.004a.303.303 0 0 1-.3-.29v-.001a.304.304 0 0 1 .317-.305c.33.009.743.006.743.006.045-.181.076-.365.093-.551a.342.342 0 0 1 .37-.308.336.336 0 0 1 .315.392l-.101.4s.435-.031.941-.135a.308.308 0 0 1 .368.249.3.3 0 0 1-.255.338m9.912.372c0 .152-.005.3-.015.452h.564v-.836h-.55l.001.384Zm.34.97c.185.458.487.851.904 1.107a.28.28 0 0 1 .066.424.307.307 0 0 1-.401.074c-.482-.305-.814-.764-1.048-1.338-.142.511-.439.988-1.03 1.361a.303.303 0 0 1-.361-.028l-.006-.005a.271.271 0 0 1 .02-.43c.494-.335.735-.736.85-1.166h-.709a.264.264 0 0 1-.268-.258c0-.143.12-.259.268-.259h.796c.01-.152.014-.305.014-.457v-.379h-.575a.264.264 0 0 1-.268-.258c0-.143.12-.26.268-.26h.575v-.429c0-.15.126-.272.282-.272.156 0 .283.122.283.272v.43h.664c.243 0 .44.19.44.425v.928h.092c.147 0 .267.116.267.259 0 .143-.12.258-.267.258l-.856.001Zm4.215-1.687c.108.175.478.37.478.37s.299-.162.417-.37h-.895Zm1.057 2.18v-.318H31.32c-.005.097-.01.208-.029.319l1.2-.001Zm0-1.086a4.138 4.138 0 0 1-.607-.22 5.194 5.194 0 0 1-.565.213v.318h1.172v-.311Zm.479-1.094a2.27 2.27 0 0 1-.479.524c.124.055.517.186.794.23a.26.26 0 0 1 .225.223.262.262 0 0 1-.009.112.274.274 0 0 1-.3.183l-.15-.043v1.915c0 .149-.125.27-.28.27a.276.276 0 0 1-.28-.27v-.511h-1.297a1.78 1.78 0 0 1-.388.676.273.273 0 0 1-.348.033c-.002 0-.003-.002-.005-.003a.25.25 0 0 1-.058-.37c.334-.394.378-.901.378-1.232v-.503c-.043.01-.175.044-.246.059a.255.255 0 0 1-.298-.17.244.244 0 0 1 .197-.31c.316-.053.912-.245.893-.26a2.976 2.976 0 0 1-.541-.553h-.19a.243.243 0 0 1-.246-.237c0-.131.11-.238.246-.238h1.018v-.127a.29.29 0 0 1 .294-.284.29.29 0 0 1 .295.284v.127h1.043c.136 0 .246.107.246.238s-.11.237-.246.237h-.268Zm-3.07.019-.427-.16a.267.267 0 0 1-.155-.36.283.283 0 0 1 .355-.142l.429.158a.266.266 0 0 1 .158.353v.002a.283.283 0 0 1-.36.15m-.2 1.062-.429-.16a.266.266 0 0 1-.004-.5.282.282 0 0 1 .205-.003l.428.159a.264.264 0 0 1 .18.247.266.266 0 0 1-.021.106v.002a.283.283 0 0 1-.36.15"/><path fill="#595757" d="m30.283 16.729-.524.976a.294.294 0 0 1-.393.117l-.017-.009a.273.273 0 0 1-.117-.377l.54-.967a.294.294 0 0 1 .389-.115c.14.072.194.239.122.375m-5.479-2.112-.427-.16a.265.265 0 0 1-.155-.36.283.283 0 0 1 .355-.142l.429.158a.267.267 0 0 1 .158.353v.002a.283.283 0 0 1-.36.15m-.201 1.062-.428-.16a.264.264 0 0 1-.177-.253.266.266 0 0 1 .173-.248.283.283 0 0 1 .205-.002l.428.159a.267.267 0 0 1 .159.353v.002a.283.283 0 0 1-.36.15m.583 1.048-.523.976a.294.294 0 0 1-.393.117l-.017-.009a.272.272 0 0 1-.15-.272.273.273 0 0 1 .033-.105l.54-.967a.294.294 0 0 1 .389-.115c.14.072.194.239.121.375"/><path fill="#595757" d="m24.792 14.617-.428-.16a.264.264 0 0 1-.177-.253c0-.037.008-.073.023-.107a.283.283 0 0 1 .355-.142l.428.158a.269.269 0 0 1 .179.247.268.268 0 0 1-.02.106v.002a.283.283 0 0 1-.36.15m-.202 1.062-.427-.16a.265.265 0 0 1-.155-.36.283.283 0 0 1 .355-.143l.429.159a.266.266 0 0 1 .158.353v.002a.283.283 0 0 1-.36.15"/></svg>