<svg xmlns="http://www.w3.org/2000/svg" width="38" height="24" fill="none" aria-labelledby="pi-erste" role="img" viewBox="0 0 38 24"><title id="pi-erste">Erste</title><path fill="#fff" d="M0 0h38v24H0z"/><path fill="#00497B" d="M6 10.595c0-.297.133-.445.43-.445h2.744v.616c0 .297-.149.438-.447.438H7.254v.898H8.9v1.015H7.254v.976h1.96v.616c0 .297-.15.438-.447.438H6.43c-.298 0-.431-.149-.431-.446zm3.724 0c0-.297.133-.445.43-.445h1.63c1.145 0 1.804.523 1.804 1.507 0 .679-.26 1.116-.878 1.366l.98 1.905c.031.07.07.14.07.219h-1.082c-.227 0-.321 0-.43-.227l-.879-1.803h-.392v2.03H9.723zm1.254.609v.898h.713c.36 0 .643-.047.643-.445 0-.39-.283-.453-.643-.453zm4.664-1.093c1.043 0 1.584.117 1.584.6v.493h-1.427c-.384 0-.494.101-.494.304 0 .601 2.179.477 2.179 2.163 0 .805-.462 1.515-1.873 1.515-.925 0-1.654-.149-1.654-.601v-.492h1.685c.345 0 .51-.11.51-.352 0-.655-2.172-.53-2.172-2.264 0-.765.51-1.366 1.662-1.366m5.292.039v.632c0 .29-.15.422-.44.422h-.619v3.943h-1.254v-3.943h-1.058v-.633c0-.288.15-.421.439-.421zm.392.445c0-.297.133-.445.431-.445h2.744v.616c0 .297-.15.438-.447.438H22.58v.898h1.646v1.015H22.58v.976h1.96v.616c0 .297-.15.438-.447.438h-2.336c-.298 0-.43-.149-.43-.446z"/><path fill="#E30613" d="M28.284 9.58a.9.9 0 0 1-.271-.664c0-.253.09-.475.269-.658q.272-.279.654-.28.375 0 .648.277a.91.91 0 0 1 .275.661.9.9 0 0 1-.272.663.89.89 0 0 1-.652.277.87.87 0 0 1-.65-.277zM32 11.696v-.57a.98.98 0 0 0-.98-.978h-4.17a.98.98 0 0 0-.98.978v2.148h4.65v.325h-4.65v.57c0 .539.438.977.98.977h4.169c.541 0 .98-.438.98-.977v-2.148h-4.65v-.325z"/></svg>