<svg xmlns="http://www.w3.org/2000/svg" width="38" height="24" viewBox="0 0 38 24" fill="none" role="img" aria-labelledby="pi-esewa"><title id="pi-esewa">Esewa</title><g clip-path="url(#pi-esewa-clip0_2127_325)"><path d="M35 .5H3A2.5 2.5 0 00.5 3v18A2.5 2.5 0 003 23.5h32a2.5 2.5 0 002.5-2.5V3A2.5 2.5 0 0035 .5z" stroke="#000" stroke-opacity=".07"/><g clip-path="url(#pi-esewa-clip1_2127_325)"><path d="M1 1h36v22H1V1z" fill="#3CA906"/><path d="M7.04 6.248h.947l.592.115.497.16.545.275.355.252.308.252v.046l.071.023.166.183.213.252.237.367.237.481.166.504.07.344v.16l-1.491.023-.024.734h.758l.758.023-.024.252-.118.458-.166.436-.26.48-.19.253-.213.252-.45.435-.332.23-.403.229-.473.183-.308.092-.474.091-.26.023h-.616l-.569-.091-.402-.115-.427-.16-.45-.252-.307-.23-.285-.252-.213-.206-.237-.298-.26-.412-.19-.39-.165-.55-.095-.527V9.73l.095-.527.142-.481.118-.275.237-.435.237-.321.26-.298.19-.184.331-.252.356-.229.379-.183.45-.16.379-.092.307-.046zm7.176 0h.781l.474.092.308.114.095.046h.118l.26-.206h.095l.024.091.071.871.071.734v.183l-.024.023h-.142l-.047-.023-.142-.367-.237-.435-.26-.321-.166-.16-.332-.184-.26-.091-.143-.023h-.497l-.308.091-.26.16-.213.23-.119.252-.07.32v.368l.07.32.119.23.213.229.26.183.38.183.473.184.734.252.45.229.213.16.142.115.237.298.19.39.07.274.024.16v.711l-.07.413-.143.366-.142.275-.19.253-.213.206-.236.16-.308.138-.308.091-.284.046h-.521l-.474-.091-.355-.138-.308-.16-.332-.23-.118-.022-.071.022-.048.092-.094.138-.166.022-.024-.16.119-1.169.07-.687.024-.046h.19l.047.092.047.39.119.389.19.367.213.274.236.207.26.16.404.138.142.023h.497l.284-.092.284-.138.214-.183.165-.23.119-.274.047-.206v-.436l-.118-.435-.166-.298-.213-.23-.355-.228-.545-.252-.64-.253-.379-.183-.284-.16-.308-.252-.165-.16-.166-.253-.119-.275-.094-.367-.048-.39V7.99l.071-.367.119-.298.19-.32.26-.299.284-.206.284-.137.355-.092.119-.023zm7.437 3.139l1.87.023.024.023v.207l-.047.068-.284.069.095.436.45 1.512.26.87.071.184.047.023.072-.252.189-.436.284-.687.308-.756.166-.39v-.16l-.095-.184-.118-.114-.332-.046-.024-.023V9.48l.119-.023 1.729.023.023.069v.16l-.047.069-.355.046-.024.206.166.573.332 1.054.284.917.07.046.048-.207.308-.848.355-.939.166-.573-.047-.206-.095-.092-.237-.046-.047-.091V9.41h1.681v.275l-.023.023-.356.023-.189.092-.142.229-.308.71-.403.986-.473 1.192-.26.641-.143.275-.047.046-.119-.023-.095-.114-.165-.39-.332-.986-.426-1.26-.142-.39h-.048l-.284.665-.402.94-.356.848-.26.572-.119.115-.142-.023-.118-.229-.213-.573-.403-1.1-.355-.962-.332-.894-.118-.23-.071-.068-.142-.046-.38-.023-.047-.114v-.184l.048-.046zm9.307-.091h.474l.284.069.214.114.118.092.142.229.047.137.024 1.971v.504l.024.459.095.298.07.091.214.023.166-.069.165-.114.095.023.047.069v.137l-.142.206-.19.184-.189.091-.213.046h-.19l-.26-.091-.165-.16-.166-.322-.024-.091-.095.045-.237.207-.236.137-.474.206-.38.07h-.33l-.238-.115-.142-.16-.094-.207-.048-.23v-.32l.095-.298.119-.206.189-.207.308-.206.355-.183.545-.252.355-.184.19-.114h.047v-.298l-.024-.527-.07-.32-.12-.184-.118-.092-.165-.069-.119-.023h-.355l-.284.092-.142.092-.072.023-.047.114v.573l-.095.23-.118.091-.19.069h-.189l-.095-.046-.07-.115-.024-.183.07-.252.095-.183.285-.321.189-.16.332-.184.308-.115.45-.091z" fill="#FEFDFD"/><path d="M7.276 7.83h.308l.332.068.331.16.26.207.238.32.19.367.047.252-.095.092-.45.114-1.73.253-.45.068h-.141l.023.252.095.482.119.32.165.298.19.23.26.206.285.137.213.046h.497l.38-.114.236-.138.237-.206.166-.23.094-.206.024-.022.237.022.047.092-.095.275-.118.252-.142.23-.213.229-.237.206-.355.183-.38.115-.212.023h-.427l-.379-.07-.284-.114-.26-.16-.237-.206-.213-.23-.166-.252-.142-.298-.119-.412-.07-.367-.024-.206v-.206l.07-.504.095-.298.213-.39.214-.252.165-.16.308-.207.356-.137.379-.092.165-.023z" fill="#3CA906"/><path d="M19.592 9.296h.474l.355.069.284.137.237.206.166.207.19.366.094.321v.298l-.07.046-2.748.023-.024.091v.527l.071.436.119.367.142.252.213.252.237.183.308.137.165.046h.403l.402-.114.308-.184.166-.137.213-.275.095-.023.095.046v.137l-.213.367-.19.23-.19.182-.33.207-.309.114-.331.046h-.237l-.355-.046-.403-.114-.26-.138-.309-.252-.236-.32-.166-.344-.095-.275-.07-.436-.025-.229v-.39l.072-.412.118-.367.19-.366.236-.298.19-.184.331-.206.308-.114.38-.07z" fill="#FEFDFD"/><path d="M31.434 11.473h.095v1.283l-.071.16-.166.207-.237.16-.213.092-.095.023h-.19l-.189-.069-.118-.091-.095-.138-.047-.183v-.23l.071-.274.142-.23.19-.183.331-.23.569-.274.023-.023zM19.545 9.57h.26l.285.092.189.16.142.253.095.275v.206l-.119.115h-1.776l.024-.16.142-.344.142-.23.166-.16.237-.137.213-.07z" fill="#3CA906"/><path d="M6.921 8.242h.474l.19.091.212.207.143.298.023.229-.118.068-.64.115-.923.138h-.166l.024-.23.118-.366.166-.252.213-.184.19-.091.094-.023z" fill="#FEFDFD"/><path d="M24.59 9.41h.994l.853.023.047.046V9.8l-.308.069-.07-.023v.046h-.048l.071.343.213.688.142.412.048.207.047.068.047.23.19.55.047-.046h.071l.024-.046-.024.183-.047.138-.095-.046-.332-1.054-.331-1.077-.119-.413.024-.16.071-.069.308-.046.024-.069v-.183l-1.824-.023-.047.023.024-.092z" fill="#3C9D14"/><path d="M13.268 7.646h.048l.047.527.095.275.166.206.236.206.261.138.474.206.663.23.355.137.308.16.26.184.214.183.19.23.189.343.047.183h-.047l-.166-.366-.166-.252-.142-.161-.237-.183-.331-.184-.38-.16-.686-.23-.45-.183-.332-.183-.213-.16-.166-.16-.142-.23-.07-.229-.025-.16v-.367z" fill="#3C9A18"/><path d="M12.51 8.127l.048.069.047.39.142.504.166.297.26.275.332.253.427.229.568.229.497.206.403.206.284.207.166.183-.024.046-.165-.138v-.046l-.095-.045-.071-.046V10.9l-.119-.046-.26-.137-.38-.184-.378-.137-.26-.115-.403-.16v-.046l-.142-.046-.332-.252-.166-.115-.213-.252-.142-.275-.166-.48-.024-.207v-.32z" fill="#3C9B16"/><path d="M4.268 12.275h.048l.166.206.213.23.213.206.403.298.378.206.237.114.569.184.473.091v.046l.948.023v.023l-.142.023h-.569l-.568-.092-.45-.137-.403-.138-.331-.183-.285-.183-.189-.16-.26-.207-.237-.23-.214-.274v-.046z" fill="#3C9C15"/><path d="M21.416 10.602h.023v.344l-.213.069h-2.605l-.024.114h-.047l-.024-.114.048-.07 2.747-.022.095-.023v-.298zm-15.134.115l.07.068.166.298.19.23.26.206.285.137.213.046h.497l.38-.114.236-.138.237-.206.047.023-.095.114-.284.207-.331.137-.285.069h-.331l-.308-.069-.284-.137-.213-.16-.119-.116-.213-.274-.118-.253v-.068z" fill="#3C9E13"/><path d="M7.276 7.83h.308l.332.068.331.16.26.207.19.252-.023.068-.142-.206-.214-.206-.307-.16-.474-.092H7.11l-.119.046-.308.068-.26.092-.237.138-.047.023.047-.092.284-.16.426-.138.38-.069zm-1.8 2.932l.048.07.142.412.166.275.284.298.118.114.213.16.26.115.285.092.166.046-.071.023-.498-.115-.284-.16-.284-.253-.19-.206-.165-.252-.142-.298-.048-.137v-.184z" fill="#3C9C15"/><path d="M8.01 6.225l.285.023.497.114.379.138.403.206.284.184.331.275.048.068-.095-.023-.213-.183-.355-.23-.498-.251-.568-.184-.38-.068v-.046h-.117v-.023z" fill="#3C9D14"/><path d="M23.453 10.648l.047.069.142.435.047.206.048.07.047.228.26.871v.046l.143-.023-.024.206-.023.046-.095-.046-.237-.802-.355-1.192v-.114zm-10.587 2.567l.142.045.426.275.403.184.45.114.166.023.64.023-.048.046h-.616l-.379-.069-.237-.069-.355-.16-.355-.23-.166-.09h-.118l.047-.092z" fill="#3C9E13"/><path d="M18.74 10.258h.047l-.047.207-.048.16 1.705-.023.072-.183h.023v.183l-.095.069h-1.776l.024-.16.095-.253z" fill="#3C9C15"/><path d="M18.716 13.604l.118.023.308.115.308.068.237.023h.237l.331-.046.356-.137.094-.023-.07.069-.309.137-.402.092-.38-.023-.355-.069-.378-.137-.095-.092z" fill="#3C9F12"/><path d="M29.516 12.298l.024.046-.143.298-.047.183v.32l.071.276.119.23.142.114.213.091.26.023v.023h-.308l-.19-.069v-.045l-.117-.046-.119-.138-.118-.298-.024-.206v-.252l.071-.275.142-.252.024-.023z" fill="#3C9A18"/><path d="M17.745 11.725h.023l.024.183.024.023.07.436.143.39.166.297.213.275.19.16-.024.046-.285-.252v-.045h-.047l-.19-.298-.212-.459-.095-.366v-.39zM3.534 10.327l.048.046.094.527.166.55.237.481-.024.069-.07-.115-.167-.32-.213-.62-.07-.343v-.275zm11.937-.802l.142.046.308.16.26.184.214.183.19.23.189.343.047.183h-.047l-.166-.366-.166-.253-.142-.16-.237-.183-.331-.184-.308-.137.047-.046z" fill="#3C9D14"/><path d="M7.963 8.838l.048.068v.23l-.143.045-.497.092-.332.046-.165.046h-.308l.023-.046 1.161-.184.237-.068-.024-.23z" fill="#3C9B16"/><path d="M6.068 13.604l.119.023.403.115.378.068v.046l.948.023v.023l-.142.023h-.569l-.568-.092-.45-.137-.071-.023v-.046l-.048-.023z" fill="#3C9A18"/><path d="M21.629 9.342l1.895.023v.023l-.38.022h-1.42l-.119-.022.024-.046zm-8.266 3.438l.119.114.142.114.118.115.355.183.26.092.333.069v.023l-.403-.023-.308-.115-.284-.183-.237-.207-.095-.114v-.069z" fill="#3C9B16"/><path d="M22.86 11.496l.072.069.355.985.213.573-.024.092-.142-.367-.118-.32-.19-.505-.166-.458v-.07z" fill="#3C9C15"/><path d="M30.937 9.25h.52l.261.069.19.091.213.184.118.206v.046h-.047l-.118-.206-.119-.115-.19-.115-.189-.068-.142-.023H30.7l.095-.046.142-.023z" fill="#3CA011"/><path d="M10.426 7.417l.142.114.332.436.142.229.213.458.071.183v.092h-.047l-.142-.39-.237-.458-.26-.366-.214-.23v-.068z" fill="#3C9E13"/><path d="M18.55 11.198h.024l.047.55.048.275.118.344.095.183.142.183v.046l-.095-.046-.166-.252-.142-.367-.071-.32v-.596z" fill="#3C9C15"/><path d="M6.282 10.717l.07.068.166.298.19.23.26.206.38.183-.119.023-.284-.137-.213-.16-.119-.116-.213-.274-.118-.253v-.068z" fill="#3C9D14"/><path d="M25.347 10.717l.072.023.331.94.095.297v.115l-.048-.07-.19-.572-.117-.275-.071-.206-.072-.069-.023-.16.023-.023z" fill="#3C9B16"/><path d="M14.263 6.569h.498l.307.068.356.184.237.206.047.046-.024.069-.284-.275-.284-.138-.237-.069-.616-.045v-.046z" fill="#3C9E13"/><path d="M19.071 12.825h.047l.119.115.213.137.237.092.213.045h.379l-.071.024v.045h-.403l-.284-.091-.26-.138-.166-.137-.024-.092z" fill="#3C9C15"/><path d="M34.276 9.365l.095.023.047.297v.298l-.047.023-.047-.023v-.229l-.024-.091-.071-.046v-.184l.047-.068z" fill="#FEFDFD"/><path d="M9.953 9.662h.426l.71.023-.047.046h-.97l-.048.023-.048.55h-.023v-.642z" fill="#3C961D"/><path d="M19.568 9.25h.545l.237.046.331.137.095.092-.118-.023-.237-.115-.355-.068h-.71l.094-.046.118-.023z" fill="#3C9F11"/><path d="M31.553 13.169l.07.023.095.252.142.206.143.114.213.07.308.022-.095.046h-.213l-.237-.092-.19-.114-.142-.23-.047-.091v-.115l-.118.023.047-.091.024-.023z" fill="#3C9B16"/><path d="M15.755 7.188l.071.022.213.321.214.436.047.206h.237v.046l-.047.023h-.214l-.047-.16-.142-.322-.213-.39-.119-.137v-.045z" fill="#3C9C15"/><path d="M33.187 9.365h.379v.045h-.047l-.024.115-.024.481H33.4v-.55l-.19-.023-.023-.068z" fill="#FEFDFD"/><path d="M29.232 10.419h.023v.252l.048.16.023.069.095.023h.19l.236-.092.142-.206.024.069-.142.183-.284.115h-.166l-.118-.046-.071-.092-.048-.206.024-.184.024-.045z" fill="#3C9B16"/><path d="M30.558 9.64h.355l.237.068.142.092.118.137.024.16-.142-.205-.142-.115-.166-.046-.379-.023h-.118l.07-.068z" fill="#3C9A17"/><path d="M14.903 10.556l.142.046.355.183.284.207.166.183-.024.046-.165-.138v-.046l-.095-.045-.071-.046V10.9l-.119-.046-.26-.137-.213-.115v-.046z" fill="#3C9B17"/><path d="M11.445 9.387h.023l.048.207v.114l-.119.023h-.308v-.046h-.71v-.023h1.066v-.275z" fill="#3CA011"/><path d="M22.387 10.213l.07.068.356.986.047.114-.023.092-.166-.413-.166-.458-.118-.32v-.07z" fill="#3C9C15"/><path d="M27.313 9.594l.047.023.024.068.284.07.071.09.048.207-.071.206h-.024v-.32l-.047-.115-.285-.046-.047-.069v-.114z" fill="#3C9A17"/><path d="M18.076 10.213l.024.068-.166.367-.118.481-.024.184h-.047v-.23l.118-.458.19-.367.023-.045z" fill="#3C9B16"/><path d="M31.482 10.327l.047.023.024.78-.071.068-.072-.023.072-.023v-.825z" fill="#3C9A17"/><path d="M27.668 10.327l.024.069-.19.55-.142.366-.047.023.047-.252.119-.275.142-.39.047-.091z" fill="#3C9B16"/><path d="M12.51 8.127l.048.069.047.39.142.526H12.7l-.095-.252-.07-.206-.024-.206v-.32z" fill="#3C9C14"/><path d="M31.482 12.023h.023v.825l-.19.252-.094.023.142-.206.095-.184.024-.71z" fill="#3C9819"/><path d="M31.41 11.496h.095v.229h-.023l-.024-.115-.071-.022-.237.091-.379.206-.095.046.024-.068.332-.184.378-.183z" fill="#3C9A17"/><path d="M34.205 9.617l.024.091-.071.252-.119.023-.047-.068v-.16h.119l.094-.138z" fill="#FEFDFD"/><path d="M13.268 7.646h.048l.047.527.095.275-.024.092-.118-.275-.048-.252v-.367z" fill="#3C9D13"/><path d="M26.721 12.206l.047.069.048.115.047-.046h.071l.024-.046-.024.183-.047.138-.095-.046-.07-.23v-.137z" fill="#3C9B17"/><path d="M21.629 9.731h.402l.166.069.119.137.07.16-.023.093-.142-.275-.095-.092-.118-.023-.355-.023-.024-.046z" fill="#3C9E13"/><path d="M28.568 9.731h.427l-.095.023v.069h-.237l-.166.023-.07.023.047-.092.094-.046z" fill="#3C971B"/><path d="M5.476 10.762l.048.07.142.412.142.229-.024.091-.142-.229-.118-.252-.048-.137v-.184z" fill="#3C9D13"/><path d="M33.803 9.387h.118l.024.023v.23l-.095.022-.024.046-.023-.068v-.253z" fill="#FEFDFD"/><path d="M23.997 12.435l.048.092v.046l.142-.023-.024.206-.024.046-.094-.046-.048-.16v-.16z" fill="#3C9B16"/><path d="M6.4 12.069l.308.137.284.092.166.046-.071.023-.497-.115-.166-.092-.024-.091z" fill="#3C9819"/><path d="M10.426 7.417l.142.114.332.436.071.114v.046h-.047l-.285-.412-.213-.23v-.068z" fill="#3C9D14"/><path d="M18.74 10.258h.047l-.047.207-.048.16h.545v.023l-.616.023.024-.16.095-.253z" fill="#3C9B17"/><path d="M26.46 9.48h.024v.32l-.308.069-.07-.023v.046l-.072-.023.071-.069.308-.046.024-.069.023-.206z" fill="#3C9B16"/><path d="M29.397 13.512l.071.023.142.184.285.137.26.023v.023h-.308l-.19-.069v-.046l-.118-.045-.118-.138-.024-.091z" fill="#3C9A18"/><path d="M19.64 13.169l.26.045h.379l-.071.024v.045h-.403l-.165-.045v-.07z" fill="#3C9E13"/><path d="M21.25 12.527l.024.069-.19.252-.26.206-.119.023.071-.069.119-.045v-.046l.166-.138.047-.069h.047l.024-.091.071-.092z" fill="#3C9C14"/><path d="M19.545 9.57h.26l.284.092.166.138-.023.069-.024-.069-.284-.138-.095-.022-.308-.023.024-.046z" fill="#3C9D13"/><path d="M30.108 12.688l.071.022.024.321.07.138.072.091-.095-.022-.095-.138-.047-.183v-.23z" fill="#3C9D14"/><path d="M12.96 11.885l.048.023.095.344.118.23-.024.068-.07-.069-.166-.435v-.16z" fill="#3C9E13"/><path d="M23.524 13.306l.047.023.19.458.023.07h.048v.045l.07.023-.165-.023-.142-.344-.071-.16v-.092z" fill="#3C9C16"/><path d="M9.242 11.152l.024.069-.095.206-.142.23-.095.114h-.047v-.046h.047l.048-.115.094-.16h.048l.07-.206.048-.092z" fill="#3C9B16"/><path d="M13.363 12.78l.119.114.142.114.118.115.095.069v.046l-.119-.046-.284-.252-.07-.092v-.069z" fill="#3C9D14"/><path d="M16.087 12.435h.023l-.023.207-.166.32-.071.023.047-.137.119-.23.07-.183z" fill="#3C9A17"/><path d="M9.953 9.662h.142l-.024.07-.047.022-.048.55h-.023v-.642z" fill="#3C971A"/><path d="M27.29 12.458h.047l-.047.16-.072.23-.118.275h-.024l.024-.183.19-.482z" fill="#3C9C15"/><path d="M11.397 10.785h.024l-.024.23-.142.412h-.023l.023-.206.119-.413.023-.023z" fill="#3C9E13"/><path d="M34.253 9.685l.047.023v.207l-.047.091-.072.023-.047-.023.071-.206.048-.115z" fill="#3C971B"/><path d="M19.45 13.833h.237v.046l.426-.023v.023l-.19.046-.378-.023-.095-.023v-.046z" fill="#3C9919"/><path d="M16.845 10.946l.047.091.024.138v.756h-.024l-.024-.687-.023-.023v-.275z" fill="#3C981A"/><path d="M23.547 9.617l.024.091-.213.092-.071.023v.23l-.047-.024-.024-.252.284-.092.047-.068z" fill="#3C9D14"/><path d="M13.458 8.494l.284.275.142.114-.024.046-.189-.137-.166-.16-.047-.07v-.068z" fill="#3C9C16"/><path d="M14.997 9.365l.119.023.308.114.047.046-.19-.023-.355-.115.071-.045z" fill="#3C9B16"/><path d="M32.903 13.1h.047l-.024.069-.118.091-.142.046-.213-.023.023-.068.166.023.166-.07.095-.068z" fill="#3C9D14"/><path d="M29.303 12.87h.023l.048.39.07.252-.07-.022-.071-.184-.024-.229.024-.206z" fill="#3C9E12"/><path d="M26.342 13.581l.071.023.119.23.094.068v.046l-.142-.046-.142-.275v-.046z" fill="#3C9A18"/><path d="M17.745 11.725h.023l.024.183.024.023v.321l-.048-.069-.023-.068v-.39z" fill="#3C9919"/><path d="M11.16 11.473h.048l.024.069-.095.137-.142.275-.024-.091.19-.39z" fill="#3C9E13"/><path d="M25.11 10.03l.048.022.023.069v.16l-.118.275-.047.023.07-.252.024-.023v-.275z" fill="#3C9C14"/><path d="M24.542 9.617h.024v.137l.379.046.047.069-.402-.046-.048-.046v-.16z" fill="#3C9C15"/><path d="M8.91 9.113h.048l.024.091-.095.092-.142.046h-.166l.071-.046.213-.069.048-.114z" fill="#3C9B16"/><path d="M23.453 10.648l.047.069.118.343-.023.092-.071-.137-.071-.253v-.114z" fill="#3C9C16"/><path d="M30.937 9.25h.497v.023l-.45.023-.024.023h-.26l.095-.046.142-.023z" fill="#3C981A"/><path d="M27.692 9.846h.047l.048.206-.071.206h-.024v-.412z" fill="#3C9C15"/><path d="M3.842 11.588l.071.022.166.321-.024.069-.07-.115-.143-.275v-.022z" fill="#3C9B16"/><path d="M25.158 11.175l.023.046-.023.137-.048.023-.094.23-.048.045.024-.137.142-.321.024-.023z" fill="#3C9C15"/><path d="M19.568 9.25h.474v.023l-.426.023-.024.023h-.237l.095-.046.118-.023z" fill="#3C9819"/><path d="M6.068 8.287h.048v.046h-.048v.046l-.165.138-.119.16-.023-.069.26-.275.047-.046z" fill="#3C9D14"/><path d="M9.905 6.935l.19.138.142.16-.095-.023-.213-.183-.024-.092z" fill="#3C9C15"/><path d="M18.242 13.146l.095.091.118.138.142.115-.023.046-.285-.253v-.045h-.047v-.092z" fill="#3C9F12"/><path d="M9.053 10.923H9.1l-.024.115-.094.137h-.048l-.047.046.024-.092.094-.16h.048v-.046z" fill="#3C9A18"/><path d="M10.947 8.127h.048l.166.32-.024.093-.19-.367v-.046z" fill="#3C9F11"/><path d="M6.518 11.175l.095.023.19.23h-.071l-.119-.116-.095-.137zm18.45-.55l.024.092-.142.366h-.047l.023-.114.142-.344z" fill="#3C9B16"/><path d="M30.013 10.213h.048l.023.137-.023.206-.048.046v-.39z" fill="#3C9D14"/><path d="M6.471 8.035l.071.023-.355.207-.047.022.047-.091.284-.16z" fill="#3C9E13"/><path d="M13.221 6.615h.047l-.023.068-.142.115-.119.16h-.047l.024-.091h.047l.047-.092.166-.16z" fill="#3C9A18"/><path d="M7.963 8.838l.048.068v.23l-.143.045-.047-.023.024-.045.142-.046-.024-.23z" fill="#3C981A"/><path d="M30.416 13.306l.331.046v.046h-.19l-.141-.046v-.046zm-24.987 0l.118.046.214.115v.045l-.119-.045-.19-.092-.023-.069z" fill="#3C9E13"/><path d="M12.866 13.215l.142.045.095.092h-.071l-.119-.046-.095-.023.048-.068zm-7.745-.092l.095.023.213.137.024.07-.095-.047-.213-.137-.024-.046z" fill="#3C9B16"/><path d="M5.382 10.258h.023l.048.298v.115h-.048l-.023-.092v-.32z" fill="#3C9C16"/><path d="M26.034 9.892h.024l.047.252v.16l-.047-.091-.047-.184v-.114l.023-.023z" fill="#3C9E13"/><path d="M33.803 9.708h.023l.024.16-.024.115h-.07v-.206l.047-.069z" fill="#FEFDFD"/><path d="M30.558 9.64h.355v.022l-.308.046h-.118l.07-.068z" fill="#3CA011"/><path d="M7.324 9.204h.142l-.095.069h-.355V9.25l.308-.046z" fill="#3CA10F"/><path d="M3.984 8.219l.024.091-.118.23h-.048l.071-.207.071-.114z" fill="#3C9D14"/><path d="M17.816 12.137h.024l.07.367-.07-.023-.024-.091v-.253z" fill="#3C9F11"/><path d="M17.816 10.923l.024.092-.048.298h-.047v-.207l.07-.183z" fill="#3CA110"/><path d="M22.197 9.846l.071.023.119.229-.024.092-.142-.275-.024-.07z" fill="#3C9C15"/><path d="M16.253 8.15l.236.023h.048v.046l-.047.023h-.214l-.023-.092z" fill="#3C9A17"/><path d="M15.424 6.867l.094.023.19.183-.024.069-.118-.115-.142-.16z" fill="#3C9C15"/><path d="M13.316 8.196l.023.046h.048l.07.206-.023.092-.118-.275v-.07z" fill="#3C9F12"/><path d="M5.595 8.883h.023v.115l-.07.092-.048.091-.024-.091.119-.207z" fill="#3C9B16"/><path d="M9.053 11.519H9.1l-.047.114-.119.138h-.047v-.046h.047l.048-.114.07-.092z" fill="#3C9D14"/></g></g><defs><clipPath id="pi-esewa-clip0_2127_325"><path fill="#fff" d="M0 0h38v24H0z"/></clipPath><clipPath id="pi-esewa-clip1_2127_325"><rect x="1" y="1" width="36" height="22" rx="2" fill="#fff"/></clipPath></defs></svg>