<svg xmlns="http://www.w3.org/2000/svg" width="38" height="24" viewBox="0 0 38 24" fill="none" role="img" aria-labelledby="pi-esewa"><title id="pi-esewa">Esewa</title><g clip-path="url(#pi-esewa-clip)"><path d="M35 .5H3A2.5 2.5 0 00.5 3v18A2.5 2.5 0 003 23.5h32a2.5 2.5 0 002.5-2.5V3A2.5 2.5 0 0035 .5z" stroke="#000" stroke-opacity=".07"/><rect x="1" y="1" width="36" height="22" rx="2" fill="#3CA906"/><path d="M7.04 6.248h.947l.592.115.497.16.545.275.355.252.308.252v.046l.071.023.166.183.213.252.237.367.237.481.166.504.07.344v.16l-1.491.023-.024.734h.758l.758.023-.024.252-.118.458-.166.436-.26.48-.19.253-.213.252-.45.435-.332.23-.403.229-.473.183-.308.092-.474.091-.26.023h-.616l-.569-.091-.402-.115-.427-.16-.45-.252-.307-.23-.285-.252-.213-.206-.237-.298-.26-.412-.19-.39-.165-.55-.095-.527V9.73l.095-.527.142-.481.118-.275.237-.435.237-.321.26-.298.19-.184.331-.252.356-.229.379-.183.45-.16.379-.092.307-.046zM14.216 6.248h.781l.474.092.308.114.095.046h.118l.26-.206h.095l.024.091.071.871.071.734v.183l-.024.023h-.142l-.047-.023-.142-.367-.237-.435-.26-.321-.166-.16-.332-.184-.26-.091-.143-.023h-.497l-.308.091-.26.16-.213.23-.119.252-.07.32v.368l.07.32.119.23.213.229.26.183.38.183.473.184.734.252.45.229.213.16.142.115.237.298.19.39.07.274.024.16v.711l-.07.413-.143.366-.142.275-.19.253-.213.206-.236.16-.308.138-.308.091-.284.046h-.521l-.474-.091-.355-.138-.308-.16-.332-.23-.118-.022-.071.022-.048.092-.094.138-.166.022-.024-.16.119-1.169.07-.687.024-.046h.19l.047.092.047.39.119.389.19.367.213.274.236.207.26.16.404.138.142.023h.497l.284-.092.284-.138.214-.183.165-.23.119-.274.047-.206v-.436l-.118-.435-.166-.298-.213-.23-.355-.228-.545-.252-.64-.253-.379-.183-.284-.16-.308-.252-.165-.16-.166-.253-.119-.275-.094-.367-.048-.39V7.99l.071-.367.119-.298.19-.32.26-.299.284-.206.284-.137.355-.092.119-.023zM21.653 9.387l1.87.023.024.023v.207l-.047.068-.284.069.095.436.45 1.512.26.87.071.184.047.023.072-.252.189-.436.284-.687.308-.756.166-.39v-.16l-.095-.184-.118-.114-.332-.046-.024-.023V9.48l.119-.023 1.729.023.023.069v.16l-.047.069-.355.046-.024.206.166.573.332 1.054.284.917.07.046.048-.207.308-.848.355-.939.166-.573-.047-.206-.095-.092-.237-.046-.047-.091V9.41h1.681v.275l-.023.023-.356.023-.189.092-.142.229-.308.71-.403.986-.473 1.192-.26.641-.143.275-.047.046-.119-.023-.095-.114-.165-.39-.332-.986-.426-1.26-.142-.39h-.048l-.284.665-.402.94-.356.848-.26.572-.119.115-.142-.023-.118-.229-.213-.573-.403-1.1-.355-.962-.332-.894-.118-.23-.071-.068-.142-.046-.38-.023-.047-.114v-.184l.048-.046zM30.96 9.296h.474l.284.069.214.114.118.092.142.229.047.137.024 1.971v.504l.024.459.095.298.07.091.214.023.166-.069.165-.114.095.023.047.069v.137l-.142.206-.19.184-.189.091-.213.046h-.19l-.26-.091-.165-.16-.166-.322-.024-.091-.095.045-.237.207-.236.137-.474.206-.38.07h-.33l-.238-.115-.142-.16-.094-.207-.048-.23v-.32l.095-.298.119-.206.189-.207.308-.206.355-.183.545-.252.355-.184.19-.114h.047v-.298l-.024-.527-.07-.32-.12-.184-.118-.092-.165-.069-.119-.023h-.355l-.284.092-.142.092-.072.023-.047.114v.573l-.095.23-.118.091-.19.069h-.189l-.095-.046-.07-.115-.024-.183.07-.252.095-.183.285-.321.189-.16.332-.184.308-.115.45-.091z" fill="#FEFDFD"/><path d="M7.276 7.83h.308l.332.068.331.16.26.207.238.32.19.367.047.252-.095.092-.45.114-1.73.253-.45.068h-.141l.023.252.095.482.119.32.165.298.19.23.26.206.285.137.213.046h.497l.38-.114.236-.138.237-.206.166-.23.094-.206.024-.022.237.022.047.092-.095.275-.118.252-.142.23-.213.229-.237.206-.355.183-.38.115-.212.023h-.427l-.379-.07-.284-.114-.26-.16-.237-.206-.213-.23-.166-.252-.142-.298-.119-.412-.07-.367-.024-.206v-.206l.07-.504.095-.298.213-.39.214-.252.165-.16.308-.207.356-.137.379-.092.165-.023z" fill="#3CA906"/><path d="M19.592 9.296h.474l.355.069.284.137.237.206.166.207.19.366.094.321v.298l-.07.046-2.748.023-.024.091v.527l.071.436.119.367.142.252.213.252.237.183.308.137.165.046h.403l.402-.114.308-.184.166-.137.213-.275.095-.023.095.046v.137l-.213.367-.19.23-.19.182-.33.207-.309.114-.331.046h-.237l-.355-.046-.403-.114-.26-.138-.309-.252-.236-.32-.166-.344-.095-.275-.07-.436-.025-.229v-.39l.072-.412.118-.367.19-.366.236-.298.19-.184.331-.206.308-.114.38-.07z" fill="#FEFDFD"/><path d="M31.434 11.473h.095v1.283l-.071.16-.166.207-.237.16-.213.092-.095.023h-.19l-.189-.069-.118-.091-.095-.138-.047-.183v-.23l.071-.274.142-.23.19-.183.331-.23.569-.274.023-.023zM19.545 9.57h.26l.285.092.189.16.142.253.095.275v.206l-.119.115h-1.776l.024-.16.142-.344.142-.23.166-.16.237-.137.213-.07z" fill="#3CA906"/><path d="M6.921 8.242h.474l.19.091.212.207.143.298.023.229-.118.068-.64.115-.923.138h-.166l.024-.23.118-.366.166-.252.213-.184.19-.091.094-.023z" fill="#FEFDFD"/></g><defs><clipPath id="pi-esewa-clip"><path fill="#fff" d="M0 0h38v24H0z"/></clipPath></defs></svg>