<svg class="icon" width="38" height="24" viewBox="0 0 38 24" version="1.1" xmlns="http://www.w3.org/2000/svg" role="img" aria-labelledby="pi-EUR"><title id="pi-EUR">EUR</title><path d="M302.93300000000005 512a507.733 507.733 0 101015.467 0 507.733 507.733 0 10-1015.467 0z" fill="#00479D"/><path d="M913.067 746.667c-98.134 0-166.4-42.667-200.534-119.467h230.4v-76.8H691.2v-55.467h251.733v-76.8H704c29.867-93.866 110.933-140.8 209.067-140.8 55.466 0 93.866 12.8 123.733 25.6l29.867-93.866c-25.6-12.8-81.067-29.867-157.867-29.867-162.133 0-290.133 89.6-328.533 238.933H418.133v76.8h149.334V550.4H418.133v76.8h162.134c38.4 132.267 149.333 217.6 311.466 217.6 76.8 0 136.534-12.8 166.4-29.867l-17.066-93.866c-29.867 17.066-81.067 25.6-128 25.6z" fill="#FCFCFC"/></svg>