<svg xmlns="http://www.w3.org/2000/svg" width="38" height="24" aria-labelledby="pi-facebook_pay" role="img" viewBox="0 0 38 24"><title id="pi-facebook_pay">Facebook Pay</title><path fill="#fff" d="M0 0h38v24H0z"/><path fill="url(#pi-paint0_linear)" fill-rule="evenodd" d="M8.29 5.672h.035v.874H8.29c-2.256 0-4.165 1.46-4.8 3.472l-.849-.265c.75-2.365 2.995-4.081 5.649-4.081" clip-rule="evenodd"/><path fill="url(#pi-paint1_linear)" fill-rule="evenodd" d="M8.325 6.546v-.874H8.29c2.662 0 4.914 1.728 5.656 4.105l-.848.266c-.624-2.014-2.523-3.482-4.773-3.497" clip-rule="evenodd"/><path fill="url(#pi-paint2_linear)" fill-rule="evenodd" d="m11.243 15.478.523.708a5.96 5.96 0 0 1-3.476 1.108 5.96 5.96 0 0 1-3.43-1.075l.524-.708c.82.573 1.823.91 2.906.91 1.104 0 2.124-.35 2.953-.943" clip-rule="evenodd"/><path fill="url(#pi-paint3_linear)" fill-rule="evenodd" d="m2.642 9.753.848.265a4.9 4.9 0 0 0-.225 1.465c0 1.663.836 3.134 2.119 4.028l-.523.708a5.78 5.78 0 0 1-2.483-4.532v-.407c.019-.53.11-1.042.264-1.527" clip-rule="evenodd"/><path fill="url(#pi-paint4_linear)" fill-rule="evenodd" d="M14.205 11.483c0 1.934-.96 3.646-2.44 4.703l-.523-.707a4.9 4.9 0 0 0 2.073-3.996c0-.502-.076-.987-.218-1.443l.848-.266c.17.54.26 1.114.26 1.71z" clip-rule="evenodd"/><path fill="#64717D" fill-rule="evenodd" d="M11.06 12.218c0-.308-.215-.446-.692-.446H9.193v.89h1.175c.485 0 .692-.133.692-.444m-.857-1.866h-1.01v.89h1.01c.457 0 .664-.138.664-.443 0-.306-.21-.447-.664-.447m1.474 1.922c0 .594-.474.932-1.31.932H8.64c-.03 0-.05-.02-.05-.049v-3.3c0-.029.02-.048.05-.048h1.575c.813 0 1.26.313 1.26.878 0 .335-.15.604-.583.733.548.114.77.437.785.854M7.872 9.857v.461c0 .03-.02.049-.05.049h-2v.861h1.66c.03 0 .049.02.049.049v.46c0 .03-.02.05-.05.05H5.823v1.37c0 .03-.02.049-.05.049H5.27c-.03 0-.05-.02-.05-.049v-3.3c0-.029.02-.048.05-.048h2.553c.03 0 .05.02.05.048z" clip-rule="evenodd"/><path fill="#1B2529" fill-rule="evenodd" d="M31.214 9.82a49 49 0 0 0 1.688 4.454l1.55-4.454h1.239l-2.221 5.754q-.426 1.105-1.011 1.705t-1.568.6q-.245 0-.46-.039v-1.005q.181.028.317.028.597 0 .972-.332t.659-.974a46 46 0 0 1-1.312-2.824 81 81 0 0 1-1.17-2.913zm-4.6-.134q1.044 0 1.68.591.637.592.637 1.77V15.4h-1.09v-.91a2.24 2.24 0 0 1-.847.757 2.54 2.54 0 0 1-1.176.265q-.898 0-1.395-.455t-.497-1.197q0-.737.56-1.234.56-.496 1.786-.497h1.545v-.016q0-1.407-1.317-1.407-.551 0-.93.196a1.6 1.6 0 0 0-.61.547l-.778-.62q.363-.552.957-.848a3 3 0 0 1 1.35-.296zM20.16 7.588q1.494 0 2.232.7t.739 1.9q0 1.196-.739 1.898-.738.703-2.232.703h-2.136v2.612H16.83V7.588h3.329zm7.657 5.419h-1.5q-.669 0-.957.21a.67.67 0 0 0-.286.566q-.001.735.994.736.658 0 1.096-.293t.653-.795zm-7.77-4.326h-2.023v3.014h2.022q.971 0 1.418-.377.445-.375.445-1.13 0-.753-.445-1.13-.447-.377-1.418-.377z" clip-rule="evenodd"/><defs><linearGradient id="pi-paint0_linear" x1="8.325" x2="3.828" y1="6.803" y2="10.121" gradientUnits="userSpaceOnUse"><stop stop-color="#24D365"/><stop offset="1" stop-color="#139DBD"/></linearGradient><linearGradient id="pi-paint1_linear" x1="8.29" x2="12.8" y1="6.774" y2="10.111" gradientUnits="userSpaceOnUse"><stop stop-color="#23D068"/><stop offset=".52" stop-color="#EACD36"/><stop offset="1" stop-color="#FF6C5C"/></linearGradient><linearGradient id="pi-paint2_linear" x1="5.121" x2="11.496" y1="15.876" y2="15.876" gradientUnits="userSpaceOnUse"><stop stop-color="#266FF3"/><stop offset="1" stop-color="#C439D6"/></linearGradient><linearGradient id="pi-paint3_linear" x1="4.135" x2="2.281" y1="15.894" y2="10.39" gradientUnits="userSpaceOnUse"><stop stop-color="#266FF3"/><stop offset="1" stop-color="#149FBA"/></linearGradient><linearGradient id="pi-paint4_linear" x1="12.899" x2="11.041" y1="9.913" y2="15.394" gradientUnits="userSpaceOnUse"><stop stop-color="#FF6C5C"/><stop offset="1" stop-color="#C439D6"/></linearGradient></defs></svg>