<svg xmlns="http://www.w3.org/2000/svg" width="38" height="24" fill="none" aria-labelledby="pi-fairstonepayments" role="img" viewBox="0 0 38 24"><title id="pi-fairstonepayments">Fairstone Payments</title><path fill="#fff" d="M0 0h38v24H0z"/><path fill="#FF6754" d="m20.79 8.8 2.72 2.72a.38.38 0 0 1 0 .54l-2.72 2.72a.38.38 0 0 0 0 .54l2.3 2.3a.38.38 0 0 0 .54 0l5.56-5.56a.38.38 0 0 0 0-.54L23.63 6a.38.38 0 0 0-.54 0l-2.3 2.3a.38.38 0 0 0 0 .5"/><path fill="#52356E" d="m8.92 12.06 9.87 9.86a.38.38 0 0 0 .54 0L22.24 19a.38.38 0 0 0 0-.54l-3.15-3.15a.38.38 0 0 1 0-.54l2.72-2.72a.4.4 0 0 0 0-.54L19.09 8.8a.38.38 0 0 1 0-.54l3.15-3.15a.38.38 0 0 0 0-.54l-2.91-2.91a.38.38 0 0 0-.54 0l-9.87 9.86a.38.38 0 0 0 0 .54"/></svg>