<svg xmlns="http://www.w3.org/2000/svg" role="img" aria-labelledby="pi-fairstone-logo" viewBox="0 0 162 102" width="38" height="24"><title id="pi-fairstone-logo">Fairstone Logo</title><path stroke="#52356E" stroke-width="1" fill="#fff" d="M0 0h160v100H0z"/><path d="M48 42.406h6.763V39.52h-9.532a.432.432 0 00-.432.432V56.8h3.2v-7.68h5.479v-2.908H48v-3.806zM61.529 54.478c-.519.293-1.285.474-2.187.474-1.443 0-2.344-.767-2.344-1.962 0-1.014 1.014-1.578 2.14-1.578.948 0 1.917.428 2.39.834v2.232zm-2.03-9.536a9.802 9.802 0 00-4.305.97l.857 2.074a8.297 8.297 0 013.2-.677c1.579 0 2.278.654 2.278 1.6v1.173c-.654-.496-2.097-.766-2.886-.766-2.164 0-4.69.992-4.69 3.63 0 2.231 1.624 4.192 5.164 4.192 2.66 0 4.35-.72 5.23-1.42v-6.11c0-2.84-1.015-4.666-4.847-4.666zM67.843 39.52c-1.06 0-1.849.745-1.849 1.849 0 1.105.79 1.849 1.849 1.849 1.082 0 1.848-.744 1.848-1.85 0-1.081-.721-1.847-1.848-1.847M66.377 56.8h2.954V45.28h-2.954zM76.93 44.965c-1.353 0-2.255 1.555-2.525 2.141V45.28h-2.93V56.8h2.93v-6.357c0-1.15.699-2.728 2.006-2.728.722 0 1.218.338 1.578.586l1.015-2.773c-.473-.27-1.037-.563-2.074-.563M82.39 48.166c0-.654.654-1.037 1.42-1.037 1.104 0 2.164.879 2.367 1.105l1.06-2.03c-.541-.428-1.826-1.307-3.945-1.307-2.435 0-4.013 1.646-4.013 3.427 0 3.02 4.96 3.787 4.96 5.32 0 1.015-.812 1.308-1.511 1.308-1.082 0-2.48-.699-3.179-1.376l-1.082 2.12a7.457 7.457 0 004.464 1.465c2.637 0 4.328-1.398 4.328-3.63 0-3.246-4.87-3.607-4.87-5.365M92.985 41.44h-2.953v3.84h-2.187v2.345h2.187V56.8h2.953v-9.175h2.841V45.28h-2.841zM102.124 54.84c-1.623 0-3.134-1.557-3.134-3.698 0-2.255 1.376-3.81 3.224-3.81 1.668 0 3.066 1.555 3.066 3.742 0 2.254-1.262 3.765-3.156 3.765m.09-9.897c-3.584 0-6.312 2.728-6.312 6.132 0 3.382 2.728 6.064 6.245 6.064 3.494 0 6.244-2.727 6.244-6.064a6.119 6.119 0 00-6.177-6.132M116.133 44.942c-1.758 0-3.089.97-3.652 1.51V45.28h-2.953V56.8h2.953v-7.98c.315-.474 1.443-1.285 2.457-1.285 1.781 0 2.029 1.217 2.029 3.11V56.8h2.953v-7.71c0-2.885-1.33-4.148-3.787-4.148M124.002 49.947c.338-1.691 1.51-2.706 3.2-2.706 1.601 0 2.593 1.24 2.616 2.706h-5.816zm3.178-5.005c-3.584 0-6.154 2.615-6.154 6.132 0 3.697 2.57 6.064 6.38 6.064 2.57 0 4.328-.9 4.937-1.42l-.857-2.051c-.428.405-1.668 1.127-3.427 1.127-1.803 0-3.742-.496-4.057-2.638h8.769V51.03c0-3.246-1.848-6.087-5.59-6.087z" fill="#52356E"/><path d="M29.474 36.158l3.058 3.058a.43.43 0 010 .608l-3.058 3.059a.43.43 0 000 .607l2.583 2.583a.43.43 0 00.608 0l6.249-6.25a.43.43 0 000-.607l-6.25-6.249a.43.43 0 00-.607 0l-2.583 2.583a.43.43 0 000 .608" fill="#FF6754"/><path d="M16.126 39.824l11.09 11.09a.43.43 0 00.608 0l3.274-3.273a.43.43 0 000-.608l-3.544-3.542a.43.43 0 010-.608l3.06-3.058a.429.429 0 000-.608l-3.06-3.06a.43.43 0 010-.606l3.544-3.544a.43.43 0 000-.608l-3.274-3.273a.429.429 0 00-.607 0l-11.091 11.09a.43.43 0 000 .608M132.098 45.57h.65v1.744h.359V45.57h.653v-.31h-1.662zM135.624 45.26l-.552 1.608h-.006l-.566-1.608h-.507v2.054h.342V45.73h.007l.57 1.585h.295l.57-1.585h.006v1.585h.342V45.26zM137.197 45.21h.314l-.826 2.154h-.315zM141.704 45.912c-.06-.236-.212-.408-.51-.408-.442 0-.625.388-.625.782s.183.783.624.783c.32 0 .495-.24.523-.539h.351c-.029.492-.377.832-.874.832-.616 0-.984-.49-.984-1.076 0-.587.368-1.076.984-1.076.463.003.829.259.871.702h-.36zM137.756 45.259h.507l.566 1.608h.006l.553-1.608h.5v2.054h-.342v-1.585h-.006l-.57 1.585h-.296l-.57-1.585h-.005v1.585h-.343z" fill="#52356E"/></svg>