<svg xmlns="http://www.w3.org/2000/svg" viewBox="0 0 38 24" width="38" height="24" role="img" aria-labelledby="pi-fairstone_payments"><title id="pi-fairstone_payments">Fairstone Payments</title><path stroke="#52356e" stroke-width="1" fill="none" d="M0 0h38v24H0z"/><path fill="#ff6754" d="M20.79 8.8l2.72 2.72a.38.38 0 010 .54l-2.72 2.72a.38.38 0 000 .54l2.3 2.3a.38.38 0 00.54 0l5.56-5.56a.38.38 0 000-.54L23.63 6a.38.38 0 00-.54 0l-2.3 2.3a.38.38 0 000 .5z"/><path fill="#52356e" d="M8.92 12.06l9.87 9.86a.38.38 0 00.54 0L22.24 19a.38.38 0 000-.54l-3.15-3.15a.38.38 0 010-.54l2.72-2.72a.4.4 0 000-.54L19.09 8.8a.38.38 0 010-.54l3.15-3.15a.38.38 0 000-.54l-2.91-2.91a.38.38 0 00-.54 0l-9.87 9.86a.38.38 0 000 .54z"/></svg>