<svg xmlns="http://www.w3.org/2000/svg" width="38" height="24" fill="none" aria-labelledby="pi-fam" role="img" viewBox="0 0 38 24"><title id="pi-fam">Fam</title><g clip-path="url(#pi-fam-a)"><path fill="#FEE600" d="M0 0h38v24H0z"/><mask id="pi-fam-b" width="38" height="24" x="0" y="0" maskUnits="userSpaceOnUse" style="mask-type:luminance"><path fill="#fff" d="M0 0h38v24H0z"/></mask><g fill="#0F0F0F" mask="url(#pi-fam-b)"><path d="M8.4 9.78v1.2h4.206v1.78H8.399V15H5V8h8.196v1.78z"/><path d="M18.47 13.78h-3.83L13.962 15h-3.457l4.408-7h3.342l4.407 7h-3.514l-.677-1.22zm-.936-1.7-.98-1.76-.979 1.76z"/><path d="m29.903 15-.029-3.19-2.19 2.56h-1.497l-2.19-2.45V15H20.9V8h2.795l3.284 3.73L30.177 8h2.794L33 15z"/></g></g><defs><clipPath id="pi-fam-a"><path fill="#fff" d="M0 0h38v24H0z"/></clipPath></defs></svg>