<svg role="img" width="38" height="24" viewBox="0 0 38 24" aria-labelledby="pi-farmlands" version="1.1" xmlns="http://www.w3.org/2000/svg"><title id="pi-farmlands">Farmlands Card</title><path d="M35 0H3a3 3 0 00-3 3v18a3 3 0 003 3h32a3 3 0 003-3V3a3 3 0 00-3-3z" opacity=".07" style="isolation:isolate"/><path d="M35 1a2 2 0 012 2v18a2 2 0 01-2 2H3a2 2 0 01-2-2V3a2 2 0 012-2h32" fill="#fff"/><g transform="matrix(.07536 0 0 .0841 -12.822 -15.474)" display="inline"><path d="M202.06 422.82c-2.11 0-4.05-.33-5.81-.98-1.76-.65-3.28-1.64-4.54-2.96-1.27-1.32-2.25-2.99-2.95-5-.7-2.01-1.05-4.38-1.05-7.09 0-2.7.36-5.03 1.09-7 .72-1.96 1.69-3.62 2.9-4.95 1.21-1.34 2.72-2.37 4.53-3.1 1.81-.72 3.75-1.09 5.82-1.09 1.69 0 3.32.24 4.89.71 1.57.48 2.97 1.03 4.2 1.65v5.81h-.3c-.37-.31-.84-.67-1.42-1.07s-1.28-.82-2.11-1.24c-.72-.37-1.56-.69-2.53-.96-.97-.28-1.91-.41-2.81-.41-2.68 0-4.83 1.02-6.46 3.05s-2.44 4.9-2.44 8.61c0 3.63.78 6.46 2.35 8.49 1.57 2.03 3.75 3.04 6.54 3.04 1.69 0 3.29-.35 4.82-1.04 1.52-.7 2.87-1.6 4.05-2.7h.3v5.81c-.51.24-1.16.53-1.93.87-.77.34-1.47.59-2.09.76-.88.26-1.67.46-2.37.6-.68.12-1.58.19-2.68.19zm39.1-16.06c0 5.18-1.25 9.18-3.75 11.99-2.5 2.82-5.82 4.23-9.97 4.23-4.28 0-7.64-1.46-10.09-4.36-2.45-2.91-3.68-6.86-3.68-11.86 0-5.14 1.26-9.13 3.79-11.98 2.52-2.85 5.85-4.27 9.98-4.27 4.15 0 7.47 1.42 9.97 4.25 2.5 2.85 3.75 6.84 3.75 12zm-5.34 0c0-3.98-.73-6.94-2.18-8.88-1.45-1.94-3.52-2.9-6.2-2.9-2.7 0-4.78.97-6.24 2.9-1.46 1.94-2.19 4.9-2.19 8.88 0 3.86.73 6.78 2.19 8.77 1.46 1.99 3.54 2.99 6.24 2.99 2.66 0 4.72-.98 6.18-2.93 1.47-1.96 2.2-4.9 2.2-8.83zm24.92-.08h-15.53v-4.99h15.53zm31.53.08c0 5.18-1.25 9.17-3.74 11.99-2.5 2.82-5.82 4.23-9.97 4.23-4.28 0-7.64-1.46-10.09-4.36-2.45-2.91-3.68-6.86-3.68-11.86 0-5.14 1.26-9.13 3.79-11.98 2.52-2.85 5.85-4.27 9.98-4.27 4.15 0 7.47 1.42 9.97 4.25 2.49 2.85 3.74 6.84 3.74 12zm-5.34 0c0-3.98-.73-6.94-2.17-8.88-1.45-1.94-3.52-2.9-6.2-2.9-2.7 0-4.78.97-6.24 2.9-1.46 1.94-2.19 4.9-2.19 8.88 0 3.86.73 6.78 2.19 8.77 1.46 1.99 3.54 2.99 6.24 2.99 2.66 0 4.72-.98 6.18-2.93 1.46-1.96 2.19-4.9 2.19-8.83zm36.45-.82c0 5.12-1.23 9.2-3.68 12.24-2.45 3.04-5.55 4.56-9.29 4.56-1.52 0-2.87-.18-4.05-.53-1.17-.35-2.38-.89-3.61-1.62v12.89h-5.18v-42.1h5.18v3.22c1.28-1.16 2.71-2.13 4.28-2.91 1.57-.78 3.28-1.17 5.14-1.17 3.52 0 6.27 1.39 8.25 4.19 1.98 2.78 2.96 6.53 2.96 11.23zm-5.34.57c0-3.51-.56-6.23-1.68-8.16-1.12-1.94-2.94-2.91-5.45-2.91-1.47 0-2.89.33-4.25.98-1.37.65-2.67 1.49-3.9 2.52v17.43c1.36.66 2.52 1.11 3.48 1.35s2.07.36 3.32.36c2.68 0 4.76-.98 6.25-2.95 1.49-1.96 2.23-4.83 2.23-8.62zm24.07 16.33c-4.9 0-8.7-1.38-11.41-4.14-2.71-2.76-4.06-6.69-4.06-11.77 0-5.01 1.31-9 3.94-11.96 2.63-2.97 6.06-4.45 10.3-4.45 1.91 0 3.6.27 5.07.82 1.47.55 2.76 1.42 3.86 2.59 1.1 1.18 1.95 2.61 2.53 4.31.59 1.7.88 3.78.88 6.24v2.81h-21.31c0 3.58.9 6.31 2.7 8.21 1.8 1.89 4.29 2.83 7.46 2.83 1.14 0 2.25-.13 3.35-.38 1.09-.26 2.08-.59 2.96-.99.94-.42 1.73-.83 2.37-1.22.64-.4 1.17-.77 1.6-1.12h.3v5.65c-.6.24-1.36.54-2.26.89-.9.36-1.71.64-2.42.84-1.01.28-1.92.49-2.74.63-.84.14-1.87.21-3.12.21zm6.06-19.52c-.04-1.4-.2-2.6-.5-3.61-.29-1.01-.72-1.86-1.27-2.56a5.775 5.775 0 00-2.33-1.76c-.95-.4-2.12-.61-3.51-.61-1.38 0-2.55.21-3.51.62-.96.41-1.84 1.02-2.63 1.8-.77.81-1.36 1.7-1.76 2.69-.4.98-.66 2.12-.77 3.43zm26.57-6.39h-.28a5.98 5.98 0 00-1.22-.21c-.43-.03-.95-.04-1.56-.04-1.4 0-2.78.3-4.16.91-1.38.6-2.68 1.51-3.91 2.7v21.84h-5.18v-30.76h5.18v4.57c1.89-1.67 3.54-2.85 4.94-3.54 1.4-.69 2.77-1.03 4.09-1.03.53 0 .93.01 1.2.04.27.03.56.07.89.12v5.4zm20.24 21.92c-.42.31-.99.75-1.69 1.31-.71.56-1.39 1.01-2.05 1.33-.92.48-1.8.85-2.66 1.1-.85.26-2.05.39-3.6.39-1.26 0-2.47-.24-3.61-.71a9.306 9.306 0 01-3-2.01c-.83-.84-1.49-1.89-1.98-3.13-.5-1.24-.74-2.55-.74-3.92 0-2.13.45-3.94 1.35-5.44.9-1.5 2.32-2.69 4.27-3.57 1.73-.79 3.76-1.34 6.11-1.64 2.35-.3 4.88-.53 7.6-.68v-.99c0-1.21-.19-2.19-.55-2.93-.37-.74-.88-1.32-1.54-1.72-.66-.42-1.47-.7-2.42-.84s-1.94-.21-2.94-.21c-1.19 0-2.6.18-4.21.54-1.62.36-3.23.88-4.85 1.55h-.3v-5.26c.95-.28 2.32-.58 4.1-.91 1.78-.33 3.54-.5 5.29-.5 2.11 0 3.89.16 5.34.5 1.45.33 2.75.93 3.91 1.79 1.12.85 1.96 1.94 2.51 3.28.55 1.34.83 2.97.83 4.9v21.04H395v-3.27zm0-4.3v-8.54c-1.23.11-2.79.26-4.67.46-1.88.19-3.4.46-4.56.81-1.38.42-2.52 1.07-3.42 1.94-.9.87-1.35 2.09-1.35 3.65 0 1.76.5 3.09 1.49 3.99.99.9 2.44 1.35 4.35 1.35 1.63 0 3.11-.35 4.43-1.06 1.33-.7 2.57-1.57 3.73-2.6zm21.72 8.18c-2.83 0-5.03-.8-6.61-2.41s-2.37-4.15-2.37-7.62v-17.04h-3.5v-4.3h3.5v-8.84h5.18v8.84h9.53v4.3h-9.53v14.62c0 1.56.03 2.76.08 3.61.06.84.27 1.63.63 2.37.31.64.82 1.13 1.51 1.45.7.32 1.64.48 2.84.48.84 0 1.66-.12 2.45-.38.79-.25 1.36-.45 1.71-.62h.3v4.65c-.97.28-1.96.49-2.96.65-.99.16-1.91.24-2.76.24zm15.2-36.51h-5.89v-5.37h5.89zm-.35 35.91h-5.18v-30.76h5.18zm31.77-30.76l-11.59 30.76h-4.66l-11.51-30.76h5.59l8.43 23.73 8.34-23.73zm16.83 31.47c-4.9 0-8.71-1.38-11.41-4.14-2.71-2.76-4.06-6.69-4.06-11.77 0-5.01 1.31-9 3.94-11.96 2.62-2.97 6.06-4.45 10.3-4.45 1.91 0 3.6.27 5.07.82 1.47.55 2.75 1.42 3.85 2.59 1.1 1.18 1.95 2.61 2.53 4.31.59 1.7.88 3.78.88 6.24v2.81h-21.31c0 3.58.9 6.31 2.7 8.21 1.8 1.89 4.29 2.83 7.46 2.83 1.14 0 2.25-.13 3.35-.38 1.09-.26 2.08-.59 2.96-.99.93-.42 1.72-.83 2.37-1.22.64-.4 1.18-.77 1.6-1.12h.3v5.65c-.61.24-1.36.54-2.26.89-.9.36-1.71.64-2.43.84-1.01.28-1.92.49-2.74.63-.82.14-1.86.21-3.1.21zm6.06-19.52c-.04-1.4-.2-2.6-.5-3.61-.29-1.01-.72-1.86-1.27-2.56-.6-.77-1.38-1.36-2.32-1.76-.95-.4-2.12-.61-3.51-.61-1.38 0-2.55.21-3.51.62-.96.41-1.84 1.02-2.63 1.8-.77.81-1.36 1.7-1.76 2.69-.4.98-.66 2.12-.77 3.43z" id="pi-path237" fill="#00553d"/><g><path d="M233.21 307.84h-28.29v13.6H231v13.22h-26.08v30.53h-16.83v-70.56h45.12v13.21m34.56 43.35v-11.1c-2.64.26-4.79.52-6.45.7-1.64.24-3.26.62-4.84 1.24-1.38.49-2.45 1.27-3.22 2.28-.77 1.04-1.14 2.41-1.14 4.12 0 2.52.63 4.23 1.9 5.16 1.29.94 3.17 1.41 5.65 1.41 1.35 0 2.78-.34 4.22-1.02 1.44-.64 2.73-1.57 3.88-2.79m0 8.34c-1.05.96-2.03 1.79-2.86 2.57-.86.75-2 1.5-3.43 2.28-1.41.7-2.77 1.25-4.12 1.61-1.33.34-3.17.54-5.58.54-4.46 0-8.13-1.58-11.08-4.74-2.94-3.16-4.42-7.15-4.42-11.97 0-3.97.74-7.16 2.25-9.59 1.48-2.44 3.63-4.35 6.44-5.81 2.85-1.45 6.24-2.46 10.17-3.03 3.96-.57 8.17-1.01 12.73-1.32v-.29c0-2.95-1.02-5.03-3.07-6.15-2.03-1.16-5.11-1.71-9.18-1.71-1.84 0-4.02.36-6.49 1.09-2.47.73-4.89 1.66-7.26 2.83h-1.35v-12.8c1.57-.47 4.11-1.01 7.58-1.69 3.49-.65 7-.96 10.57-.96 8.69 0 15.02 1.53 19 4.59 3.95 3.03 5.96 7.7 5.96 13.98v36.23h-15.86zm60.6-31.67h-1.32c-.6-.24-1.45-.39-2.59-.52-1.14-.11-2.38-.15-3.75-.15-1.62 0-3.38.23-5.15.72a53.34 53.34 0 00-5.26 1.82v35.46h-15.84v-53.27h15.84v7.81c.7-.7 1.72-1.58 2.97-2.64 1.27-1.04 2.42-1.89 3.46-2.54 1.14-.7 2.45-1.32 3.96-1.84 1.51-.52 2.91-.78 4.28-.78.5 0 1.07.03 1.68.06.63.02 1.2.08 1.72.13v15.74m65.71 37.33v-26.57c0-2.64-.02-4.85-.13-6.63-.1-1.82-.36-3.27-.8-4.44-.44-1.14-1.17-1.94-2.11-2.46-.96-.52-2.29-.78-4.01-.78-1.21 0-2.39.26-3.57.8-1.17.58-2.47 1.36-3.85 2.36v37.72h-15.82v-26.57c0-2.59-.08-4.8-.17-6.61-.12-1.82-.4-3.29-.84-4.46-.44-1.14-1.16-1.94-2.1-2.46-.98-.52-2.28-.78-3.96-.78-1.31 0-2.58.31-3.81.93-1.24.62-2.45 1.38-3.6 2.23v37.72h-15.85v-53.27h15.85v5.99c2.59-2.33 5.01-4.12 7.3-5.39 2.29-1.3 4.87-1.95 7.73-1.95 3.07 0 5.81.75 8.16 2.3 2.35 1.55 4.13 3.87 5.37 6.92 3.03-2.98 5.89-5.26 8.56-6.87 2.7-1.58 5.44-2.36 8.22-2.36 2.32 0 4.45.38 6.3 1.16 1.85.81 3.44 1.98 4.73 3.55 1.43 1.71 2.47 3.73 3.19 6.09.72 2.33 1.06 5.42 1.06 9.2v34.61h-15.85m26.81-73.78h15.84v73.8h-15.84zm54.73 59.8v-11.1c-2.68.26-4.81.52-6.48.7-1.65.24-3.24.62-4.82 1.24-1.41.49-2.47 1.27-3.25 2.29-.73 1.03-1.12 2.41-1.12 4.12 0 2.52.65 4.23 1.9 5.16 1.27.94 3.16 1.41 5.64 1.41 1.38 0 2.79-.34 4.22-1.02 1.44-.65 2.71-1.58 3.91-2.8m0 8.34c-1.07.96-2.02 1.79-2.88 2.57-.85.75-2.01 1.5-3.45 2.28-1.41.7-2.78 1.25-4.1 1.61-1.3.34-3.2.54-5.57.54-4.45 0-8.15-1.58-11.08-4.74-2.93-3.16-4.4-7.15-4.4-11.97 0-3.97.72-7.16 2.23-9.59 1.49-2.44 3.65-4.35 6.46-5.81 2.81-1.45 6.23-2.46 10.13-3.03 3.96-.57 8.22-1.01 12.78-1.32v-.29c0-2.95-1.05-5.03-3.1-6.15-2.01-1.16-5.1-1.71-9.17-1.71-1.87 0-4.02.36-6.5 1.09-2.48.73-4.9 1.66-7.27 2.83h-1.33v-12.8c1.57-.47 4.09-1.01 7.58-1.69 3.46-.65 6.97-.96 10.53-.96 8.7 0 15.05 1.53 19 4.59 3.99 3.03 5.98 7.7 5.98 13.98v36.23h-15.85v-5.66zm74.18 5.66h-15.82V338.8c0-2.15-.1-4.3-.24-6.43-.17-2.13-.5-3.71-.96-4.71-.53-1.19-1.29-2.05-2.34-2.56-1.04-.52-2.39-.78-4.13-.78-1.29 0-2.59.23-3.94.75-1.33.49-2.74 1.29-4.25 2.41v37.72h-15.85v-53.27h15.85v5.99c2.6-2.33 5.13-4.12 7.57-5.39 2.45-1.3 5.16-1.95 8.12-1.95 5.21 0 9.15 1.71 11.88 5.1 2.76 3.45 4.11 8.4 4.11 14.91v34.6m40.89-14.41v-26.39c-.78-.44-1.77-.75-3.04-1.04-1.29-.29-2.35-.41-3.27-.41-3.76 0-6.62 1.42-8.53 4.22-1.9 2.8-2.86 6.73-2.86 11.77 0 5.32.77 9.16 2.28 11.51 1.51 2.37 3.96 3.55 7.36 3.55 1.39 0 2.78-.29 4.18-.88 1.43-.57 2.72-1.35 3.88-2.33m15.85 14.41h-15.85v-5.55c-1.02.89-2.17 1.82-3.5 2.85-1.29 1.01-2.43 1.77-3.45 2.26-1.25.67-2.51 1.22-3.73 1.57-1.25.36-2.71.55-4.42.55-5.8 0-10.36-2.51-13.73-7.55-3.37-5.05-5.06-11.79-5.06-20.19 0-4.67.58-8.71 1.72-12.13 1.14-3.43 2.73-6.39 4.73-8.94 1.84-2.3 4.07-4.12 6.69-5.5 2.63-1.35 5.36-1.99 8.31-1.99 2.63 0 4.83.29 6.52.88 1.68.57 3.66 1.48 5.91 2.7v-22.76h15.85v73.8zm26.62 1.35c-3.7 0-7.21-.41-10.51-1.27-3.34-.86-6.05-1.87-8.25-3.01v-14.05h1.32c.73.59 1.6 1.25 2.54 1.98.96.69 2.29 1.45 3.98 2.22 1.46.7 3.12 1.32 4.95 1.81 1.83.52 3.81.78 5.96.78 2.19 0 4.14-.34 5.82-1.04 1.68-.7 2.55-1.8 2.55-3.3 0-1.21-.43-2.15-1.18-2.77-.8-.65-2.29-1.25-4.54-1.81-1.19-.32-2.69-.66-4.53-1.01-1.83-.4-3.44-.78-4.82-1.25-3.96-1.29-6.92-3.21-8.9-5.75-1.98-2.54-2.96-5.86-2.96-9.97a15 15 0 011.54-6.69c1.04-2.11 2.57-3.97 4.59-5.6 2.01-1.61 4.48-2.88 7.45-3.84 2.94-.94 6.28-1.4 10-1.4 3.54 0 6.81.37 9.77 1.09 2.97.76 5.48 1.66 7.51 2.7v13.51h-1.25c-.55-.44-1.39-1.02-2.55-1.74-1.17-.73-2.3-1.38-3.42-1.89-1.31-.62-2.74-1.14-4.38-1.53-1.65-.42-3.3-.63-4.97-.63-2.28 0-4.22.39-5.76 1.16-1.57.81-2.36 1.85-2.36 3.14 0 1.19.4 2.15 1.18 2.85.78.68 2.47 1.35 5.06 2.03 1.34.33 2.9.67 4.62 1.01 1.77.34 3.44.78 5.05 1.35 3.61 1.22 6.35 3.03 8.21 5.42 1.89 2.36 2.8 5.52 2.8 9.46 0 2.49-.55 4.87-1.67 7.1-1.1 2.26-2.7 4.15-4.68 5.71-2.19 1.65-4.74 2.96-7.65 3.86-2.91.9-6.44 1.37-10.52 1.37" fill="#00553d"/><path d="M188.05 243.46s84.44-17.16 164.72-17.16c118.1 0 140.45 11.56 225.82 18.33 36.62 3.11 67.9 4.49 69.75 4.67 3.56.31 9.34.39 9.34.39v-32.61H188.05v26.38" fill="#f8971d"/><path d="M188.05 251.98v18.98h469.63v-18.15s-59.21-2.8-92.88-5.57c-61.05-5.05-96.81-13.53-148.96-14.7-26.36-.57-49.79-2.18-114.33 2.91-12.03.96-56.89 6.25-77.95 10.36-7.71 1.54-35.51 6.17-35.51 6.17" id="pi-path243" fill="#00553d"/></g></g></svg>