<?xml version="1.0" encoding="utf-8"?>
<!-- Generator: Adobe Illustrator 21.0.0, SVG Export Plug-In . SVG Version: 6.00 Build 0)  -->
<svg version="1.1" id="图层_1" xmlns="http://www.w3.org/2000/svg" xmlns:xlink="http://www.w3.org/1999/xlink" x="0px" y="0px"
	 viewBox="0 0 38 24" style="enable-background:new 0 0 38 24;" xml:space="preserve">
<style type="text/css">
	.st0{fill:#2E89C6;}
	.st1{fill:#2778BA;}
	.st2{fill:#AA6313;}
	.st3{opacity:0.75;}
	.st4{fill:#DD840E;}
	.st5{fill:#FCC135;}
	.st6{fill:none;stroke:#F8B135;stroke-width:0.5;stroke-miterlimit:10;}
	.st7{fill:#FFFFFF;}
	.st8{font-family:'SourceHanSansCN-Bold-GBpc-EUC-H';}
	.st9{font-size:2px;}
</style>
<ellipse class="st0" cx="19" cy="12" rx="11.6" ry="11.7"/>
<path class="st1" d="M10.7,20.2c0,0,8.8-9.7,9.8-9.7c0,0,8.2-4.9,8.5-4.4c0,0,6.2,12.2-7.1,17.2C21.9,23.3,13.7,24.9,10.7,20.2z"/>
<g>
	<g>
		<path class="st2" d="M11.7,18.9l9.5-1l2.1-6.8l1.3-0.3l0.8-2.5L24,8.6l0.4-1.3c0.1-0.4,0.7-0.6,1.8-0.9l0.9-2.1l-14.8,3l9.2-0.7
			l-0.2,0.8l-12,2.5l11.6-1.1l-0.2,0.6l-1.1,0.2l-0.3,1.1l-5.9,1.2l6.5-0.1l-0.2,0.9L8.1,15l11.2-1l-1.1,3.7L11.7,18.9z M11.7,18.9"
			/>
	</g>
</g>
<g>
	<g class="st3">
		<path class="st4" d="M11.4,18.6l9.5-1l2.1-6.8l1.3-0.3L25.1,8l-1.4,0.3L24.1,7c0.1-0.4,0.7-0.6,1.8-0.9L26.8,4l-14.8,3l9.2-0.7
			l-0.2,0.8L9,9.6l11.6-1.1L20.4,9l-1.1,0.2L19,10.3l-5.9,1.2l6.5-0.1l-0.2,0.9L7.8,14.6l11.2-1l-1.1,3.7L11.4,18.6z M11.4,18.6"/>
	</g>
	<g>
		<g>
			<g>
				<path class="st5" d="M11.7,18.6l9.5-1l2.1-6.8l1.3-0.3L25.4,8L24,8.3L24.4,7c0.1-0.4,0.7-0.6,1.8-0.9L27.1,4l-14.8,3l9.2-0.7
					l-0.2,0.8l-12,2.5l11.6-1.1L20.6,9l-1.1,0.2l-0.3,1.1l-5.9,1.2l6.5-0.1l-0.2,0.9L8.1,14.6l11.2-1l-1.1,3.7L11.7,18.6z
					 M11.7,18.6"/>
			</g>
		</g>
	</g>
</g>
<ellipse class="st6" cx="19" cy="12" rx="11.6" ry="11.7"/>
<text transform="matrix(0.9361 2.598569e-03 -0.134 0.991 22.1402 17.0916)" class="st7 st8 st9">I</text>
<text transform="matrix(0.9361 2.598569e-03 -0.134 0.991 22.7134 17.0932)" class="st7 st8 st9">D</text>
<text transform="matrix(0.9361 2.598569e-03 -0.134 0.991 24.2515 17.0975)" class="st7 st8 st9">R</text>
</svg>
