<svg version="1.1" id="图层_1" xmlns="http://www.w3.org/2000/svg" x="0" y="0" viewBox="0 0 38 24" xml:space="preserve"><style type="text/css">.st7{fill:#fff}.st8{font-family:&apos;SourceHanSansCN-Bold-GBpc-EUC-H&apos;}.st9{font-size:2px}</style><ellipse cx="19" cy="12" rx="11.6" ry="11.7" fill="#2e89c6"/><path d="M10.7 20.2s8.8-9.7 9.8-9.7c0 0 8.2-4.9 8.5-4.4 0 0 6.2 12.2-7.1 17.2 0 0-8.2 1.6-11.2-3.1z" fill="#2778ba"/><path d="M11.7 18.9l9.5-1 2.1-6.8 1.3-.3.8-2.5-1.4.3.4-1.3c.1-.4.7-.6 1.8-.9l.9-2.1-14.8 3 9.2-.7-.2.8-12 2.5 11.6-1.1-.2.6-1.1.2-.3 1.1-5.9 1.2 6.5-.1-.2.9L8.1 15l11.2-1-1.1 3.7-6.5 1.2zm0 0" fill="#aa6313"/><path d="M11.4 18.6l9.5-1 2.1-6.8 1.3-.3.8-2.5-1.4.3.4-1.3c.1-.4.7-.6 1.8-.9l.9-2.1L12 7l9.2-.7-.2.8L9 9.6l11.6-1.1-.2.5-1.1.2-.3 1.1-5.9 1.2 6.5-.1-.2.9-11.6 2.3 11.2-1-1.1 3.7-6.5 1.3zm0 0" fill="#dd840e" opacity=".75"/><path d="M11.7 18.6l9.5-1 2.1-6.8 1.3-.3.8-2.5-1.4.3.4-1.3c.1-.4.7-.6 1.8-.9l.9-2.1-14.8 3 9.2-.7-.2.8-12 2.5 11.6-1.1-.3.5-1.1.2-.3 1.1-5.9 1.2 6.5-.1-.2.9-11.5 2.3 11.2-1-1.1 3.7-6.5 1.3zm0 0" fill="#fcc135"/><ellipse cx="19" cy="12" rx="11.6" ry="11.7" fill="none" stroke="#f8b135" stroke-width=".5" stroke-miterlimit="10"/><text transform="matrix(.9361 .0026 -.134 .991 22.14 17.092)" class="st7 st8 st9">I</text><text transform="matrix(.9361 .0026 -.134 .991 22.713 17.093)" class="st7 st8 st9">D</text><text transform="matrix(.9361 .0026 -.134 .991 24.252 17.098)" class="st7 st8 st9">R</text></svg>