<svg class="icon" width="38" height="24" viewBox="0 0 38 24" version="1.1" xmlns="http://www.w3.org/2000/svg" role="img" aria-labelledby="pi-fasapay"><title id="pi-fasapay">Fasapay</title><path d="M315.733 512a499.2 494.933 90 10989.867 0 499.2 494.933 90 10-989.867 0z" fill="#2E89C6"/><path d="M456.533 861.867S832 448 874.667 448c0 0 349.866-209.067 362.666-187.733 0 0 264.534 520.533-302.933 733.866 0 0-349.867 68.267-477.867-132.266z" fill="#2778BA"/><path d="M499.2 806.4l405.333-42.667 89.6-290.133 55.467-12.8 34.133-106.667-59.733 12.8 17.067-55.466c4.266-17.067 29.866-25.6 76.8-38.4l38.4-89.6-631.467 128L917.333 281.6l-8.533 34.133-512 106.667 494.933-46.933-8.533 25.6-46.933 8.533-12.8 46.933-251.734 51.2 277.334-4.266-8.534 38.4L345.6 640l477.867-42.667L776.533 755.2 499.2 806.4zm0 0" fill="#AA6313"/><path d="M486.4 793.6l405.333-42.667 89.6-290.133L1036.8 448l34.133-106.667-59.733 12.8 17.067-55.466c4.266-17.067 29.866-25.6 76.8-38.4l38.4-89.6-631.467 128L904.533 268.8 896 302.933 384 409.6l494.933-46.933L870.4 384l-46.933 8.533-12.8 46.934-251.734 51.2 277.334-4.267-8.534 38.4L332.8 622.933l477.867-42.666-46.934 157.866L486.4 793.6zm0 0" fill="#DD840E" opacity=".75"/><path d="M499.2 793.6l405.333-42.667 89.6-290.133L1049.6 448l34.133-106.667-59.733 12.8 17.067-55.466c4.266-17.067 29.866-25.6 76.8-38.4l38.4-89.6-631.467 128L917.333 268.8l-8.533 34.133-512 106.667 494.933-46.933-12.8 21.333L832 392.533l-12.8 46.934-251.733 51.2L844.8 486.4l-8.533 38.4L345.6 622.933l477.867-42.666-46.934 157.866L499.2 793.6zm0 0" fill="#FCC135"/></svg>