<?xml version="1.0" standalone="no"?><!DOCTYPE svg PUBLIC "-//W3C//DTD SVG 1.1//EN" "http://www.w3.org/Graphics/SVG/1.1/DTD/svg11.dtd"><svg class="icon" width="32px" height="20.21px" viewBox="0 0 1621 1024" version="1.1" xmlns="http://www.w3.org/2000/svg"><path d="M315.733333 512a499.2 494.933333 90 1 0 989.866667 0 499.2 494.933333 90 1 0-989.866667 0Z" fill="#2E89C6" /><path d="M456.533333 861.866667s375.466667-413.866667 418.133334-413.866667c0 0 349.866667-209.066667 362.666666-187.733333 0 0 264.533333 520.533333-302.933333 733.866666 0 0-349.866667 68.266667-477.866667-132.266666z" fill="#2778BA" /><path d="M499.2 806.4l405.333333-42.666667 89.6-290.133333 55.466667-12.8 34.133333-106.666667-59.733333 12.8 17.066667-55.466666c4.266667-17.066667 29.866667-25.6 76.8-38.4l38.4-89.6-631.466667 128 392.533333-29.866667-8.533333 34.133333-512 106.666667 494.933333-46.933333-8.533333 25.6-46.933333 8.533333-12.8 46.933333-251.733334 51.2 277.333334-4.266666-8.533334 38.4L345.6 640l477.866667-42.666667-46.933334 157.866667-277.333333 51.2z m0 0" fill="#AA6313" /><path d="M486.4 793.6l405.333333-42.666667 89.6-290.133333 55.466667-12.8 34.133333-106.666667-59.733333 12.8 17.066667-55.466666c4.266667-17.066667 29.866667-25.6 76.8-38.4l38.4-89.6L512 298.666667l392.533333-29.866667-8.533333 34.133333L384 409.6l494.933333-46.933333-8.533333 21.333333-46.933333 8.533333-12.8 46.933334-251.733334 51.2 277.333334-4.266667-8.533334 38.4-494.933333 98.133333 477.866667-42.666666-46.933334 157.866666-277.333333 55.466667z m0 0" fill="#DD840E" opacity=".75" /><path d="M499.2 793.6l405.333333-42.666667 89.6-290.133333 55.466667-12.8 34.133333-106.666667-59.733333 12.8 17.066667-55.466666c4.266667-17.066667 29.866667-25.6 76.8-38.4l38.4-89.6-631.466667 128 392.533333-29.866667-8.533333 34.133333-512 106.666667 494.933333-46.933333-12.8 21.333333-46.933333 8.533333-12.8 46.933334-251.733333 51.2 277.333333-4.266667-8.533333 38.4-490.666667 98.133333 477.866667-42.666666-46.933334 157.866666-277.333333 55.466667z m0 0" fill="#FCC135" /></svg>