<svg xmlns="http://www.w3.org/2000/svg" width="38" height="24" fill="none" aria-labelledby="pi-fashiongiftcardpaynlversion" role="img" viewBox="0 0 38 24"><title id="pi-fashiongiftcardpaynlversion">Fashion Giftcard (PAY. version)</title><path fill="#0F1110" d="M0 0h38v24H0z"/><path fill="#fff" d="M10.035 16.534h.327v.088c0 .239-.124.376-.278.376s-.277-.2-.277-.591.088-.604.303-.604c.115 0 .19.088.19.225v.04h.163a.4.4 0 0 0-.036-.203.33.33 0 0 0-.326-.202c-.304 0-.454.251-.454.77 0 .467.14.705.427.705a.36.36 0 0 0 .304-.15v.15h.14v-.744h-.49zm2.145-.695h.186v1.149h-.186v.124h.528v-.124h-.189v-1.15h.19v-.136h-.53zm2.356 1.273h.15v-.666h.454v-.14h-.454v-.467h.607v-.137h-.757zm2.194-1.273h.391v1.273h.163v-1.273h.402v-.137h-.957zm2.898 1.171q-.304-.001-.304-.59c0-.392.101-.617.327-.617.1 0 .189.062.202.212h.163a.4.4 0 0 0-.04-.15.35.35 0 0 0-.325-.202c-.304 0-.467.251-.467.744s.15.73.453.73a.37.37 0 0 0 .346-.201.5.5 0 0 0 .04-.177h-.164c-.016.177-.104.252-.231.252zm2.245-1.308-.405 1.41h.164l.114-.415h.427l.115.415h.163l-.402-1.41zm-.075.868.176-.63.177.63zm2.974-.467a.372.372 0 0 0-.392-.401h-.366v1.41h.167v-.578h.199l.326.578h.19l-.38-.617a.43.43 0 0 0 .256-.392m-.467.29h-.137v-.554h.137c.228 0 .303.088.303.264s-.1.29-.303.29m2.422-.691h-.366v1.41h.326c.327 0 .48-.212.48-.705s-.127-.705-.44-.705m-.04 1.29h-.176v-1.153h.163c.242 0 .327.114.327.58.026.415-.062.572-.314.572z"/><path fill="url(#pi-fashiongiftcardpaynlversion-a)" d="M10.401 11.704a.16.16 0 0 0 .137-.137.08.08 0 0 0 0-.053s0-.022-.026-.036l-.023-.035v-.05q-.285-.03-.568 0c-.19 0-.366.036-.555.063a5 5 0 0 0-.555.127c-.19.052-.378.101-.564.137a.16.16 0 0 0 .049-.101.2.2 0 0 0 0-.088l.1-.088a.5.5 0 0 1 .138-.216.35.35 0 0 0 .114-.199.9.9 0 0 0 .163-.202c.04-.075.088-.154.128-.242q.19-.193.326-.427a1.3 1.3 0 0 1 .356-.379c.856-1.332 2.736-1.527 4.082-1.612a2.6 2.6 0 0 0 .556-.088c.026-.05.036-.089 0-.115a.14.14 0 0 1-.04-.11.73.73 0 0 0-.437-.196q-.272-.013-.542.026-.687.082-1.36.25l-1.238.304a1.4 1.4 0 0 1 .229-.352 1 1 0 0 0 .19-.405.4.4 0 0 0-.057-.149c-.08-.127-.217-.205-.349-.278a.45.45 0 0 0-.251.238c-.075.14-.153.268-.215.379s-.19.303-.29.453c-.47.705-.989.14-1.855.846-.027.17.283.506.461.532a.35.35 0 0 0 .169-.017q.16-.045.327-.062-.415.653-.833 1.25c-.277.402-.555.82-.832 1.234a.7.7 0 0 0-.163.075.21.21 0 0 0-.114.127.14.14 0 0 0 .062.062c.039 0 .039.04.039.089q-.346.502-.617 1.047c-.202.392-.392.793-.555 1.185a4 4 0 0 0-.153.326c-.052.124-.102.229-.137.343s-.076.225-.102.326a.5.5 0 0 0 0 .14.5.5 0 0 0 .026.141h.036s0-.026.04 0c0 .065 0 .101.026.101a.17.17 0 0 1 .1.04v-.076.062c0 .026 0 .036.027.036s0-.075.052-.075 0 .026 0 .053 0 .035.036.022c.555-1.268.384-2.535 2.03-3.489a.6.6 0 0 1 .176-.049v-.078c.138-.049.29-.111.441-.163.486-.167 1.045-.37 1.563-.379a.8.8 0 0 1 .252-.068m5.793.92c0 .075.023.127.023.163v.026a.38.38 0 0 1-.163.229c-.46.298-1.272.815-1.864.718 0 0-.026 0-.026-.026s0 0 .026-.036h-.065c-.026 0-.05 0-.075-.026l-.062-.036s-.026-.026 0-.052a.2.2 0 0 1 .137-.05.25.25 0 0 0 .153-.087q.333-.104.653-.242a3.3 3.3 0 0 0 .59-.326 1 1 0 0 0 .141-.102c.036-.035.075-.088.114-.137a.4.4 0 0 0-.228-.1c-.194-.052-.395-.074-.581-.154a.4.4 0 0 1-.15-.124 2 2 0 0 0-.19.124c-.178 0-1.083.789-1.184.858-.301.21-1.192.705-1.326.013a1 1 0 0 1 0-.418q.06-.239.203-.44-.09.02-.176.052-.15.147-.327.264c-.124.089-.251.177-.375.278s-.242.163-.366.251c-.323.228-.524.335-.816.056a.3.3 0 0 1-.088-.128c-.049-.022-.049-.062-.049-.1a.56.56 0 0 1 .128-.301q.106-.13.186-.277.268-.323.532-.608a6 6 0 0 1 .577-.554c.26-.23.846-.898 1.009-.265.04.101.065.203.101.304a.24.24 0 0 0 .114-.114c.137-.327.33.342.353.391-.261.325-.41.726-.591 1.097q-.063.14-.101.29c.023.05.075.062.176.036q.18-.045.353-.11.222-.09.427-.213a8 8 0 0 0 .405-.251c.215-.14.44-.29.679-.48a1 1 0 0 0 .101-.075c0-.026-.036-.052-.049-.078a.53.53 0 0 1 .101-.3q.097-.14.225-.252c.3-.265.667-.415 1.032-.568.16-.066.332-.1.506-.101h.049c0 .026-.036.049-.05.049a.33.33 0 0 1 .15.088.22.22 0 0 1 .04.176c-.656.069-.997.566-1.4.986q.135.054.277.088.15.036.29.101.145.045.265.137c.077.055.138.13.176.216q.012.07.017.14zm-4.122-.212s-.04 0-.052.023-.026 0-.036 0h.026a1 1 0 0 1 .068-.013zm.3-.783c-.062-.036-.062-.15-.023-.327q-.039.034-.039 0v-.023l-.705.503a1 1 0 0 1-.153.202c-.05.05-.111.102-.177.177a.35.35 0 0 0-.088.127.4.4 0 0 1-.11.137v-.049a.6.6 0 0 1-.177.277q-.125.102-.228.226.457-.255.868-.578c.277-.229.555-.43.822-.62.004-.026.017-.04.017-.052zm10.435-1.423c.123-.177.224-.36.352-.532.141-.2.326-.325.062-.442h-.036c-.039 0-.065 0-.075.04-.038.043-.616.386-.48.49-.081.134-.251.281-.264.444a.3.3 0 0 1-.088.15v.062c0 .023-.04 0-.065.088 0 .394.31.104.594-.3m7.872 3.025q-.268.054-.519.163c-1.324.588-1.156-.894-1.077-1.664-1.056.207-1.276 1.476-2.086 1.913 0 0 0-.027-.026 0l-.039.039-.036.035s-.026 0-.026-.035a1 1 0 0 0-.088.124.4.4 0 0 1-.075.114c-.052 0-.088-.026-.101 0q0-.12-.026-.238a8.7 8.7 0 0 1 .708-1.525h.023v-.052a.4.4 0 0 0 .062-.124.2.2 0 0 1-.075 0 .4.4 0 0 1-.088.052.2.2 0 0 0-.046.062q-.134.069-.251.163c-.375.336-1.001.425-1.547.569a.4.4 0 0 1-.242 0 .6.6 0 0 0-.15.127c-.062.062-.137.15-.225.238s-.177.19-.265.277c-.318.33-1.387.679-1.387-.035a.4.4 0 0 1 0-.125q.042-.257.124-.505c0-.023 0-.05.026-.076-.062.04-.1.089-.14.115a.25.25 0 0 1-.137.088c-.13.068-.254.147-.379.225q-.15.08-.303.18c-.39.255-.79.396-1.198.124a.22.22 0 0 1-.124-.164 1.04 1.04 0 0 1-.013-.515c-.026 0-.04.036-.065.062a1.2 1.2 0 0 1-.213.137.63.63 0 0 1-.241.202c-.41.204-.966.262-1.371.013a.5.5 0 0 1-.225-.228.47.47 0 0 1-.052-.327 3 3 0 0 1 .065-.326c.023-.111.036-.212.049-.326q-.3.166-.568.378-.27.193-.503.428h-.026a1 1 0 0 1-.251.264c-.315.2-.41.642-.793.695-.208 0-.203-.119-.454-.179a.026.026 0 0 0 0-.036l-.026-.026q.033-.18.114-.346.059-.159.163-.29a.6.6 0 0 1 .115-.288c.098-.176.207-.34.274-.532.115-.313.421-.64.617-.914a5.7 5.7 0 0 1 .515-.884c.452-.684 1.065-1.348 1.433-2.04q.045-.092.101-.176a.8.8 0 0 1 .128-.14.3.3 0 0 1 .15-.063h.026c.068 0 .135.022.19.062.048.052.113.101.162.154a3 3 0 0 0-.088.163.26.26 0 0 1-.114.114 29 29 0 0 1-.375.552c-.39.558-.853 1.04-1.192 1.622-.18.306-.49.638-.639.923a1.2 1.2 0 0 1-.154.278 1.6 1.6 0 0 0-.15.264v.023a.1.1 0 0 0-.049.026.8.8 0 0 1-.127.238q-.075.11-.137.229a.2.2 0 0 0-.026.088 1 1 0 0 1-.052.088.4.4 0 0 1-.062.114 1 1 0 0 1-.089.102l-.075.114a.26.26 0 0 0-.039.15c.114-.114.229-.229.353-.326a4 4 0 0 0 .333-.395h.039a.06.06 0 0 1 .039 0q.157-.19.362-.327.194-.155.402-.29l.326-.19a.46.46 0 0 1 .326-.035c.708.26.235.625.33 1.272a.45.45 0 0 0 .114.177 1.5 1.5 0 0 0 .787-.229q.168-.092.326-.202c.166-.123.33-.269.507-.375a.2.2 0 0 0 .061-.066c.066-.159.148-.312.225-.466a.023.023 0 0 1 .008.03l-.008.009a.2.2 0 0 0 0 .075c.11-.182.198-.325.314-.503a.3.3 0 0 1 .176-.114.15.15 0 0 1 .153.062c.036.052.075.101.098.14s-.023.098-.075.111c-.276.532-.548 1.075-.656 1.665a.74.74 0 0 0 .366-.124q.115-.069.241-.114l.278-.128c.512-.25 1.453-.677 1.668-1.159.184-.246.421-.329.616-.505a1 1 0 0 0 .102-.111.15.15 0 0 1 .1-.088s0-.027.027-.027c.196-.085.423-.13.554-.176.1.01.196.044.278.101.516.267.028.888-.14 1.224-.039.078-.088.137-.124.2a1 1 0 0 0-.088.153h-.04c-.013 0 0 0-.026.036.494-.066.94-.24 1.375-.49.393-.236.887-.428 1.086-.744.026-.042.402-.347.402-.343a.4.4 0 0 0 .065.128q.041.063.036.14a.5.5 0 0 1-.05.124c-.025.052-.051.114-.077.176s-.062.114-.089.167a.5.5 0 0 1-.075.124c-.049.062-.1.14-.15.202a.7.7 0 0 0-.114.238c-.026-.023-.049 0-.062.04a.3.3 0 0 1-.075.137c.137-.124.277-.265.428-.415a3 3 0 0 1 .518-.392c.186-.145.647-.438.869-.215.218.416-.163 1.612.382 1.792h.166c.251-.065.542-.14.855-.216q.46-.101.927-.153a2 2 0 0 1 .379 0 .76.76 0 0 1 .326.114q.002.047.026.088c-.163.246-1.4.214-1.72.281m-6.08-.594a.47.47 0 0 1-.242-.215.65.65 0 0 1-.052-.431 4 4 0 0 0-.265.405q-.113.204-.264.466c-.04.115-.062.226-.101.327a1.8 1.8 0 0 0-.04.391q.158-.099.291-.228c.088-.088.19-.19.278-.29q.102-.105.215-.2.113-.101.202-.225zm.845-1.59a1.2 1.2 0 0 0-.229.203c-.368.386-.283.23-.466.656-.05.126-.139.312-.062.447a.1.1 0 0 0 .052.046c.137-.19.277-.392.427-.617.14-.226.242-.474.3-.734z"/><defs><linearGradient id="pi-fashiongiftcardpaynlversion-a" x1="5.618" x2="32.399" y1="11.477" y2="11.477" gradientUnits="userSpaceOnUse"><stop stop-color="#B99956"/><stop offset="1" stop-color="#D2BD94"/></linearGradient></defs></svg>