<svg xmlns="http://www.w3.org/2000/svg" fill="none" viewBox="0 0 38 24" height="24" width="38" aria-labelledby="pi-fashiongiftcardpaynlversion" role="img"><title id="pi-fashiongiftcardpaynlversion">Fashion Giftcard (PAY. version)</title><path fill="#0F1110" d="M0 0h38v24H0z"/><path fill="#fff" d="M10.035 16.534h.327v.088c0 .239-.124.376-.278.376-.154 0-.277-.2-.277-.591 0-.391.088-.604.303-.604.115 0 .19.088.19.225v.04h.163a.424.424 0 0 0-.036-.203.326.326 0 0 0-.326-.202c-.304 0-.454.251-.454.77 0 .467.14.705.427.705a.356.356 0 0 0 .304-.15v.15h.14v-.744h-.49l.007.14Zm2.145-.695h.186v1.149h-.186v.124h.528v-.124h-.189v-1.15h.19v-.136h-.53v.137h.001Zm2.356 1.273h.15v-.666h.454v-.14h-.454v-.467h.607v-.137h-.757v1.41Zm2.194-1.273h.391v1.273h.163v-1.273h.402v-.137h-.957v.137h.001Zm2.898 1.171c-.203 0-.304-.198-.304-.59 0-.392.101-.617.327-.617.1 0 .189.062.202.212h.163a.423.423 0 0 0-.04-.15.346.346 0 0 0-.325-.202c-.304 0-.467.251-.467.744s.15.73.453.73a.372.372 0 0 0 .346-.201.466.466 0 0 0 .04-.177h-.164c-.016.177-.104.252-.231.252v-.001Zm2.245-1.308-.405 1.41h.164l.114-.415h.427l.115.415h.163l-.402-1.41h-.176Zm-.075.868.176-.63.177.63h-.353Zm2.974-.467a.372.372 0 0 0-.392-.401h-.366v1.41h.167v-.578h.199l.326.578h.19l-.38-.617a.43.43 0 0 0 .256-.392Zm-.467.29h-.137v-.554h.137c.228 0 .303.088.303.264 0 .176-.1.29-.303.29Zm2.422-.691h-.366v1.41h.326c.327 0 .48-.212.48-.705s-.127-.705-.44-.705Zm-.04 1.29h-.176v-1.153h.163c.242 0 .327.114.327.58.026.415-.062.572-.314.572v.001Z"/><path fill="url(#pi-fashiongiftcardpaynlversion-a)" d="M10.401 11.704a.16.16 0 0 0 .137-.137.078.078 0 0 0 0-.053s0-.022-.026-.036l-.023-.035v-.05c-.189-.02-.38-.02-.568 0-.19 0-.366.036-.555.063a4.479 4.479 0 0 0-.555.127c-.19.052-.378.101-.564.137a.157.157 0 0 0 .049-.101.186.186 0 0 0 0-.088l.1-.088a.49.49 0 0 1 .138-.216.35.35 0 0 0 .114-.199.855.855 0 0 0 .163-.202c.04-.075.088-.154.128-.242.126-.128.236-.271.326-.427a1.27 1.27 0 0 1 .356-.379c.856-1.332 2.736-1.527 4.082-1.612a2.59 2.59 0 0 0 .556-.088c.026-.05.036-.089 0-.115a.144.144 0 0 1-.04-.11.731.731 0 0 0-.437-.196c-.181-.009-.363 0-.542.026-.458.055-.912.138-1.36.25l-1.238.304a1.44 1.44 0 0 1 .229-.352 1.04 1.04 0 0 0 .19-.405.408.408 0 0 0-.057-.149c-.08-.127-.217-.205-.349-.278a.454.454 0 0 0-.251.238c-.075.14-.153.268-.215.379-.062.111-.19.303-.29.453-.47.705-.989.14-1.855.846-.027.17.283.506.461.532a.35.35 0 0 0 .169-.017c.107-.03.216-.051.327-.062-.277.435-.554.852-.833 1.25-.277.402-.555.82-.832 1.234a.653.653 0 0 0-.163.075.213.213 0 0 0-.114.127.144.144 0 0 0 .062.062c.039 0 .039.04.039.089-.23.334-.437.684-.617 1.047-.202.392-.392.793-.555 1.185a4.417 4.417 0 0 0-.153.326c-.052.124-.102.229-.137.343-.035.114-.076.225-.102.326a.512.512 0 0 0 0 .14.45.45 0 0 0 .026.141h.036s0-.026.04 0c0 .065 0 .101.026.101a.174.174 0 0 1 .1.04v-.076.062c0 .026 0 .036.027.036s0-.075.052-.075 0 .026 0 .053 0 .035.036.022c.555-1.268.384-2.535 2.03-3.489a.596.596 0 0 1 .176-.049v-.078c.138-.049.29-.111.441-.163.486-.167 1.045-.37 1.563-.379a.805.805 0 0 1 .252-.068Zm5.793.92c0 .075.023.127.023.163v.026a.382.382 0 0 1-.163.229c-.46.298-1.272.815-1.864.718 0 0-.026 0-.026-.026s0 0 .026-.036h-.065c-.026 0-.05 0-.075-.026l-.062-.036s-.026-.026 0-.052a.196.196 0 0 1 .137-.05.245.245 0 0 0 .153-.087c.222-.069.44-.15.653-.242a3.29 3.29 0 0 0 .59-.326.947.947 0 0 0 .141-.102c.036-.035.075-.088.114-.137a.382.382 0 0 0-.228-.1c-.194-.052-.395-.074-.581-.154a.372.372 0 0 1-.15-.124 2.38 2.38 0 0 0-.19.124c-.178 0-1.083.789-1.184.858-.301.21-1.192.705-1.326.013a1.015 1.015 0 0 1 0-.418c.04-.158.108-.307.203-.44-.06.013-.119.03-.176.052-.1.098-.21.186-.327.264-.124.089-.251.177-.375.278-.124.101-.242.163-.366.251-.323.228-.524.335-.816.056a.326.326 0 0 1-.088-.128c-.049-.022-.049-.062-.049-.1a.565.565 0 0 1 .128-.301c.07-.086.133-.179.186-.277.18-.216.355-.418.532-.608a6.25 6.25 0 0 1 .577-.554c.26-.23.846-.898 1.009-.265.04.101.065.203.101.304a.242.242 0 0 0 .114-.114c.137-.327.33.342.353.391-.261.325-.41.726-.591 1.097-.042.094-.076.19-.101.29.023.05.075.062.176.036.12-.03.237-.067.353-.11.148-.06.29-.13.427-.213a7.94 7.94 0 0 0 .405-.251c.215-.14.44-.29.679-.48a.746.746 0 0 0 .101-.075c0-.026-.036-.052-.049-.078a.525.525 0 0 1 .101-.3c.064-.093.14-.178.225-.252.3-.265.667-.415 1.032-.568.16-.066.332-.1.506-.101h.049c0 .026-.036.049-.05.049a.326.326 0 0 1 .15.088.215.215 0 0 1 .04.176c-.656.069-.997.566-1.4.986.09.036.183.065.277.088.1.024.197.058.29.101.096.03.185.076.265.137.077.055.138.13.176.216.008.046.014.093.017.14h-.007Zm-4.122-.212s-.04 0-.052.023c-.012.023-.026 0-.036 0h.026a.507.507 0 0 1 .068-.013l-.006-.01Zm.3-.783c-.062-.036-.062-.15-.023-.327-.026.023-.039.023-.039 0v-.023l-.705.503a.905.905 0 0 1-.153.202c-.05.05-.111.102-.177.177a.352.352 0 0 0-.088.127.368.368 0 0 1-.11.137v-.049a.59.59 0 0 1-.177.277c-.083.068-.16.143-.228.226.304-.17.594-.363.868-.578.277-.229.555-.43.822-.62.004-.026.017-.04.017-.052h-.007Zm10.435-1.423c.123-.177.224-.36.352-.532.141-.2.326-.325.062-.442h-.036c-.039 0-.065 0-.075.04-.038.043-.616.386-.48.49-.081.134-.251.281-.264.444a.287.287 0 0 1-.088.15v.062c0 .023-.04 0-.065.088 0 .394.31.104.594-.3Zm7.872 3.025c-.178.036-.352.09-.519.163-1.324.588-1.156-.894-1.077-1.664-1.056.207-1.276 1.476-2.086 1.913 0 0 0-.027-.026 0l-.039.039-.036.035s-.026 0-.026-.035a.987.987 0 0 0-.088.124.43.43 0 0 1-.075.114c-.052 0-.088-.026-.101 0 0-.08-.009-.16-.026-.238a8.67 8.67 0 0 1 .708-1.525h.023v-.052a.44.44 0 0 0 .062-.124.19.19 0 0 1-.075 0 .42.42 0 0 1-.088.052.163.163 0 0 0-.046.062c-.089.046-.173.1-.251.163-.375.336-1.001.425-1.547.569a.382.382 0 0 1-.242 0 .545.545 0 0 0-.15.127c-.062.062-.137.15-.225.238s-.177.19-.265.277c-.318.33-1.387.679-1.387-.035a.36.36 0 0 1 0-.125c.028-.171.07-.34.124-.505 0-.023 0-.05.026-.076-.062.04-.1.089-.14.115a.245.245 0 0 1-.137.088c-.13.068-.254.147-.379.225-.1.052-.202.114-.303.18-.39.255-.79.396-1.198.124a.219.219 0 0 1-.124-.164 1.042 1.042 0 0 1-.013-.515c-.026 0-.04.036-.065.062a1.18 1.18 0 0 1-.213.137.634.634 0 0 1-.241.202c-.41.204-.966.262-1.371.013a.493.493 0 0 1-.225-.228.467.467 0 0 1-.052-.327 2.72 2.72 0 0 1 .065-.326c.023-.111.036-.212.049-.326-.2.11-.389.237-.568.378-.18.128-.348.272-.503.428h-.026a.98.98 0 0 1-.251.264c-.315.2-.41.642-.793.695-.208 0-.203-.119-.454-.179a.026.026 0 0 0 0-.036l-.026-.026c.022-.12.06-.236.114-.346.039-.105.094-.203.163-.29a.62.62 0 0 1 .115-.288c.098-.176.207-.34.274-.532.115-.313.421-.64.617-.914a5.7 5.7 0 0 1 .515-.884c.452-.684 1.065-1.348 1.433-2.04.03-.061.063-.12.101-.176a.752.752 0 0 1 .128-.14.326.326 0 0 1 .15-.063h.026c.068 0 .135.022.19.062.048.052.113.101.162.154a2.88 2.88 0 0 0-.088.163.258.258 0 0 1-.114.114 29.35 29.35 0 0 1-.375.552c-.39.558-.853 1.04-1.192 1.622-.18.306-.49.638-.639.923a1.22 1.22 0 0 1-.154.278 1.556 1.556 0 0 0-.15.264v.023a.092.092 0 0 0-.049.026.838.838 0 0 1-.127.238c-.05.074-.096.15-.137.229a.229.229 0 0 0-.026.088.747.747 0 0 1-.052.088.393.393 0 0 1-.062.114.77.77 0 0 1-.089.102l-.075.114a.255.255 0 0 0-.039.15c.114-.114.229-.229.353-.326a4.32 4.32 0 0 0 .333-.395h.039a.06.06 0 0 1 .039 0c.104-.126.226-.236.362-.327.129-.104.263-.2.402-.29l.326-.19a.46.46 0 0 1 .326-.035c.708.26.235.625.33 1.272a.447.447 0 0 0 .114.177 1.516 1.516 0 0 0 .787-.229c.112-.061.221-.129.326-.202.166-.123.33-.269.507-.375a.17.17 0 0 0 .061-.066c.066-.159.148-.312.225-.466a.023.023 0 0 1 .008.03.023.023 0 0 1-.008.009.201.201 0 0 0 0 .075c.11-.182.198-.325.314-.503a.307.307 0 0 1 .176-.114.149.149 0 0 1 .153.062c.036.052.075.101.098.14.023.039-.023.098-.075.111-.276.532-.548 1.075-.656 1.665a.74.74 0 0 0 .366-.124c.076-.046.157-.084.241-.114l.278-.128c.512-.25 1.453-.677 1.668-1.159.184-.246.421-.329.616-.505a.777.777 0 0 0 .102-.111.152.152 0 0 1 .1-.088s0-.027.027-.027c.196-.085.423-.13.554-.176.1.01.196.044.278.101.516.267.028.888-.14 1.224-.039.078-.088.137-.124.2a1.01 1.01 0 0 0-.088.153h-.04c-.013 0 0 0-.026.036.494-.066.94-.24 1.375-.49.393-.236.887-.428 1.086-.744.026-.042.402-.347.402-.343a.36.36 0 0 0 .065.128c.027.041.04.09.036.14a.496.496 0 0 1-.05.124c-.025.052-.051.114-.077.176-.026.062-.062.114-.089.167a.476.476 0 0 1-.075.124c-.049.062-.1.14-.15.202a.671.671 0 0 0-.114.238c-.026-.023-.049 0-.062.04a.326.326 0 0 1-.075.137c.137-.124.277-.265.428-.415a3.17 3.17 0 0 1 .518-.392c.186-.145.647-.438.869-.215.218.416-.163 1.612.382 1.792h.166c.251-.065.542-.14.855-.216.306-.067.616-.119.927-.153a1.89 1.89 0 0 1 .379 0 .76.76 0 0 1 .326.114c.001.031.01.061.026.088-.163.246-1.4.214-1.72.281Zm-6.08-.594a.47.47 0 0 1-.242-.215.653.653 0 0 1-.052-.431 3.559 3.559 0 0 0-.265.405c-.075.137-.163.29-.264.466-.04.115-.062.226-.101.327a1.81 1.81 0 0 0-.04.391c.105-.066.202-.142.291-.228.088-.088.19-.19.278-.29.068-.07.14-.137.215-.2.075-.067.143-.143.202-.225h-.022Zm.845-1.59a1.159 1.159 0 0 0-.229.203c-.368.386-.283.23-.466.656-.05.126-.139.312-.062.447a.11.11 0 0 0 .052.046c.137-.19.277-.392.427-.617.14-.226.242-.474.3-.734h-.022v-.001Z"/><defs><linearGradient id="pi-fashiongiftcardpaynlversion-a" x1="5.618" x2="32.399" y1="11.477" y2="11.477" gradientUnits="userSpaceOnUse"><stop stop-color="#B99956"/><stop offset="1" stop-color="#D2BD94"/></linearGradient></defs></svg>