<svg xmlns="http://www.w3.org/2000/svg" width="38" height="24" fill="none" aria-labelledby="pi-fawry" role="img" viewBox="0 0 38 24"><title id="pi-fawry">Fawry</title><path fill="#FAD50B" d="M0 0h38v24H0z"/><path fill="#FEFEFE" fill-rule="evenodd" d="M10.821 8.51q.003.293-.02.583a7 7 0 0 1-.21.584q-.37.732-.81 1.417.028.175.207.166.456-.06.916-.083a3.7 3.7 0 0 0-.02.791q.218.099.333-.124.345-.524.625-1.085.163-.424.23-.874.45.653.562 1.458.268 3.29-2.73 4.604a4.27 4.27 0 0 1-3.249-.125 3 3 0 0 1-.417-.271 5.5 5.5 0 0 0 2.334-1.02q.414-.311.791-.667a.104.104 0 0 1 .125 0q.167.25.417.417.087.02.167-.042.158-.983.27-1.98a1.3 1.3 0 0 0-.02-.562q-1.233.06-2.459.21-.132.15.02.311.202.18.356.396a6.5 6.5 0 0 1-2.167 1.458c-.37.146-.768.21-1.166.187q-1.218-2.078-.188-4.25 1.566-2.622 4.603-2.144c.54.11 1.05.33 1.5.645" clip-rule="evenodd"/><path fill="#076B97" fill-rule="evenodd" d="M10.814 8.515q.811.52 1.25 1.376-.066.449-.23.875-.279.56-.624 1.082-.117.224-.334.126a3.6 3.6 0 0 1 .022-.792q-.46.023-.917.083-.18.008-.209-.166.442-.682.813-1.416a8 8 0 0 0 .209-.584q.023-.291.02-.584" clip-rule="evenodd"/><path fill="#096B99" fill-rule="evenodd" d="M15.083 9.146q.563-.01 1.125.02.64.018.437.647a.2.2 0 0 1-.146.145q-.563-.024-1.124 0-.656.21-.5.896.625-.01 1.249.02l.104.105q.042.271 0 .542l-.104.103-1.208.042a53 53 0 0 0-.062 2.104l-.063.063q-.512.05-1.021-.02-.06-1.877.042-3.75.332-.88 1.271-.917" clip-rule="evenodd"/><path fill="#0E6B98" fill-rule="evenodd" d="M17.936 10.2a3.1 3.1 0 0 1 1.833.353q.374.32.437.813.042 1.166 0 2.333a.4.4 0 0 1-.062.104 4.6 4.6 0 0 1-.876 0 .6.6 0 0 1-.124-.23 2.37 2.37 0 0 1-2 .188q-1.038-.592-.48-1.645.325-.326.771-.437.811-.085 1.625-.063.058-.6-.542-.646a.98.98 0 0 0-.666.124.44.44 0 0 1-.375.251 2.4 2.4 0 0 1-.625 0q-.26-.43.125-.791a1.5 1.5 0 0 1 .292-.167q.342-.09.667-.188z" clip-rule="evenodd"/><path fill="#056B98" fill-rule="evenodd" d="m28.767 10.265.543.084q.038.32.082.625a.16.16 0 0 1-.083.145l-1 .041a1.3 1.3 0 0 0-.52.397l-.042 2.207a.16.16 0 0 1-.146.084 8 8 0 0 0-.833-.063l-.062-.062a65 65 0 0 1 0-3.292q.086-.045.02-.082a3.7 3.7 0 0 1 .959-.022q.084.167.124.354a2.1 2.1 0 0 1 .958-.416" clip-rule="evenodd"/><path fill="#096B98" fill-rule="evenodd" d="M20.494 10.299q.439-.01.876.021.099.044.187.104.345.881.604 1.791.047-.087.104-.167.171-.74.417-1.458a.6.6 0 0 1 .187-.27q.48-.042.959 0l.104.104q.293.9.605 1.791.27-.809.52-1.625a.67.67 0 0 1 .229-.27q.458-.042.916 0 .068.045.084.125a46 46 0 0 1-1.104 3.271.3.3 0 0 1-.146.103 4.6 4.6 0 0 1-.875 0l-.104-.104a56 56 0 0 1-.708-2q-.347.975-.667 1.958l-.146.146c-.32.04-.643.025-.958-.042a.7.7 0 0 1-.146-.228 95 95 0 0 0-1-3 .225.225 0 0 1 .062-.25" clip-rule="evenodd"/><path fill="#0A6B98" fill-rule="evenodd" d="M29.816 10.313q.46-.01.917.021a.4.4 0 0 1 .104.063q.323.906.584 1.833.163.381.52.583a.18.18 0 0 0 .104-.125l.667-2.25.104-.104q.474-.05.938.02a5.2 5.2 0 0 1-.208 1.043 90 90 0 0 0-.75 2.582q-.21.659-.813.98a4.1 4.1 0 0 1-1.416 0 .5.5 0 0 1-.146-.188 1.3 1.3 0 0 1 0-.458l.104-.104q.28-.014.563.02.628.007.687-.625a1.4 1.4 0 0 1-1.188-.708 16 16 0 0 1-.812-2.416.5.5 0 0 1 .041-.167" clip-rule="evenodd"/><path fill="#056B97" fill-rule="evenodd" d="M6.259 15.558a3.7 3.7 0 0 1-1.334-1.292 2.8 2.8 0 0 0 1.167-.186 6.5 6.5 0 0 0 2.166-1.458 2.4 2.4 0 0 0-.354-.397q-.153-.161-.021-.312 1.225-.15 2.458-.209.07.276.021.563a43 43 0 0 1-.27 1.979.2.2 0 0 1-.167.042 1.5 1.5 0 0 1-.417-.417.104.104 0 0 0-.124 0q-.379.357-.792.667a5.5 5.5 0 0 1-2.333 1.02" clip-rule="evenodd"/><path fill="#FAD50B" fill-rule="evenodd" d="M17.717 12.4q.584-.01 1.166.02.257.47-.25.668a2.2 2.2 0 0 1-.874.082q-.431-.178-.23-.604.105-.076.187-.166z" clip-rule="evenodd"/></svg>