<svg xmlns="http://www.w3.org/2000/svg" fill="none" viewBox="0 0 38 24" height="24" width="38" aria-labelledby="pi-fawry" role="img"><title id="pi-fawry">Fawry</title><path fill="#FAD50B" d="M0 0h38v24H0z"/><path fill="#FEFEFE" fill-rule="evenodd" d="M10.821 8.51c.002.195-.005.39-.02.583a7.371 7.371 0 0 1-.21.584c-.246.488-.517.961-.81 1.417.019.116.088.172.207.166.304-.04.61-.068.916-.083a3.677 3.677 0 0 0-.02.791c.145.066.256.024.333-.124.23-.35.438-.711.625-1.085.109-.282.185-.574.23-.874.3.436.487.921.562 1.458.178 2.193-.731 3.728-2.73 4.604a4.269 4.269 0 0 1-3.249-.125 3.202 3.202 0 0 1-.417-.271 5.52 5.52 0 0 0 2.334-1.02c.276-.207.54-.43.791-.667a.104.104 0 0 1 .125 0c.112.167.25.305.417.417.058.013.114 0 .167-.042.105-.655.195-1.316.27-1.98a1.325 1.325 0 0 0-.02-.562c-.822.04-1.642.11-2.459.21-.088.1-.081.204.02.311.135.12.253.253.356.396a6.512 6.512 0 0 1-2.167 1.458c-.37.146-.768.21-1.166.187-.812-1.385-.874-2.802-.188-4.25 1.044-1.748 2.578-2.463 4.603-2.144.54.11 1.05.33 1.5.645Z" clip-rule="evenodd"/><path fill="#076B97" fill-rule="evenodd" d="M10.814 8.515c.541.347.957.806 1.25 1.376-.045.3-.12.59-.23.875-.186.373-.394.734-.624 1.082-.078.15-.189.191-.334.126a3.642 3.642 0 0 1 .022-.792c-.307.015-.613.043-.917.083-.12.006-.19-.05-.209-.166.294-.455.566-.927.813-1.416a7.51 7.51 0 0 0 .209-.584c.015-.194.022-.389.02-.584Z" clip-rule="evenodd"/><path fill="#096B99" fill-rule="evenodd" d="M15.083 9.146c.375-.007.75 0 1.125.02.426.012.572.227.437.647a.197.197 0 0 1-.146.145c-.375-.016-.75-.016-1.124 0-.437.14-.604.439-.5.896.417-.007.833 0 1.249.02l.104.105c.028.18.028.362 0 .542l-.104.103-1.208.042a52.774 52.774 0 0 0-.062 2.104l-.063.063c-.34.034-.683.027-1.021-.02-.04-1.25-.026-2.502.042-3.75.222-.587.645-.892 1.271-.917Z" clip-rule="evenodd"/><path fill="#0E6B98" fill-rule="evenodd" d="M17.936 10.2a3.115 3.115 0 0 1 1.833.353c.249.213.395.485.437.813.028.777.028 1.555 0 2.333a.393.393 0 0 1-.062.104 4.595 4.595 0 0 1-.876 0 .636.636 0 0 1-.124-.23 2.367 2.367 0 0 1-2 .188c-.692-.395-.852-.943-.48-1.645.217-.217.474-.363.771-.437.54-.057 1.083-.078 1.625-.063.039-.4-.142-.615-.542-.646a.976.976 0 0 0-.666.124.437.437 0 0 1-.375.251 2.352 2.352 0 0 1-.625 0c-.174-.287-.132-.551.125-.791a1.48 1.48 0 0 1 .292-.167c.228-.06.45-.123.667-.188v.001Z" clip-rule="evenodd"/><path fill="#056B98" fill-rule="evenodd" d="m28.767 10.265.543.084c.025.213.053.421.082.625a.163.163 0 0 1-.083.145l-1 .041a1.28 1.28 0 0 0-.52.397l-.042 2.207a.164.164 0 0 1-.146.084 8.23 8.23 0 0 0-.833-.063l-.062-.062a64.982 64.982 0 0 1 0-3.292c.057-.03.064-.058.02-.082a3.65 3.65 0 0 1 .959-.022c.056.111.097.23.124.354a2.1 2.1 0 0 1 .958-.416Z" clip-rule="evenodd"/><path fill="#096B98" fill-rule="evenodd" d="M20.494 10.299c.293-.007.584 0 .876.021.066.03.128.064.187.104.23.587.432 1.185.604 1.791.031-.058.066-.114.104-.167.114-.493.253-.98.417-1.458a.58.58 0 0 1 .187-.27c.32-.028.64-.028.959 0l.104.104c.196.6.397 1.197.605 1.791.18-.54.353-1.08.52-1.625a.666.666 0 0 1 .229-.27c.305-.028.611-.028.916 0 .045.03.073.072.084.125a45.485 45.485 0 0 1-1.104 3.271.29.29 0 0 1-.146.103 4.6 4.6 0 0 1-.875 0l-.104-.104a56.077 56.077 0 0 1-.708-2c-.231.65-.454 1.303-.667 1.958l-.146.146c-.32.04-.643.025-.958-.042a.66.66 0 0 1-.146-.228 94.714 94.714 0 0 0-1-3 .225.225 0 0 1 .062-.25Z" clip-rule="evenodd"/><path fill="#0A6B98" fill-rule="evenodd" d="M29.816 10.313c.306-.007.612 0 .917.021a.396.396 0 0 1 .104.063c.216.604.41 1.215.584 1.833.108.254.282.449.52.583a.18.18 0 0 0 .104-.125l.667-2.25.104-.104c.316-.033.628-.026.938.02a5.228 5.228 0 0 1-.208 1.043 90.433 90.433 0 0 0-.75 2.582c-.14.44-.41.765-.813.98a4.091 4.091 0 0 1-1.416 0 .48.48 0 0 1-.146-.188 1.268 1.268 0 0 1 0-.458l.104-.104c.187-.01.374-.002.563.02.418.005.648-.204.687-.625a1.399 1.399 0 0 1-1.188-.708 15.768 15.768 0 0 1-.812-2.416.527.527 0 0 1 .041-.167Z" clip-rule="evenodd"/><path fill="#056B97" fill-rule="evenodd" d="M6.259 15.558a3.712 3.712 0 0 1-1.334-1.292 2.78 2.78 0 0 0 1.167-.186 6.511 6.511 0 0 0 2.166-1.458 2.375 2.375 0 0 0-.354-.397c-.102-.107-.109-.212-.021-.312.817-.1 1.636-.17 2.458-.209.047.184.054.372.021.563a42.785 42.785 0 0 1-.27 1.979.192.192 0 0 1-.167.042 1.489 1.489 0 0 1-.417-.417.104.104 0 0 0-.124 0c-.253.238-.516.46-.792.667a5.519 5.519 0 0 1-2.333 1.02Z" clip-rule="evenodd"/><path fill="#FAD50B" fill-rule="evenodd" d="M17.717 12.4c.389-.007.778 0 1.166.02.171.314.088.536-.25.668a2.24 2.24 0 0 1-.874.082c-.287-.118-.365-.32-.23-.604.07-.05.132-.107.187-.166h.001Z" clip-rule="evenodd"/></svg>