<svg width="40" height="26" viewBox="0 0 40 26" fill="none" xmlns="http://www.w3.org/2000/svg"><rect x="1" y="1" width="38" height="24" rx="2" fill="#fff"/><path d="M7.716 9.986c-.21 0-.36.062-.446.186a.643.643 0 0 0-.13.39V11h.846c.149 0 .273.05.372.149.1.093.149.214.149.362 0 .15-.05.273-.15.373a.523.523 0 0 1-.371.139h-.847v3.293a.574.574 0 0 1-.158.41.542.542 0 0 1-.4.157.542.542 0 0 1-.4-.158.574.574 0 0 1-.158-.41v-3.292h-.502a.523.523 0 0 1-.372-.14.505.505 0 0 1-.149-.372c0-.148.05-.27.149-.362.099-.1.223-.15.372-.15h.502v-.427c0-.465.158-.843.475-1.135C6.82 9.146 7.282 9 7.883 9c.23 0 .428.047.596.14.173.093.26.235.26.427a.51.51 0 0 1-.13.363.416.416 0 0 1-.316.14.626.626 0 0 1-.103-.01 3.245 3.245 0 0 0-.102-.018 1.59 1.59 0 0 0-.372-.056ZM10.255 15.316a.574.574 0 0 1-.158.41.542.542 0 0 1-.4.157.542.542 0 0 1-.4-.158.574.574 0 0 1-.158-.41v-3.84c0-.162.053-.295.158-.4a.526.526 0 0 1 .4-.168c.162 0 .295.056.4.167a.542.542 0 0 1 .158.4v3.842ZM9.242 10.2c.086.068.235.102.446.102.217 0 .369-.03.456-.093.093-.068.14-.192.14-.372V9.66c0-.173-.044-.294-.13-.362-.088-.069-.24-.103-.457-.103-.204 0-.353.034-.446.103-.093.068-.14.189-.14.362v.177c0 .174.044.295.13.363ZM14.063 10.814c.632 0 1.07.189 1.311.567.242.372.363.89.363 1.554v2.38a.574.574 0 0 1-.158.41.542.542 0 0 1-.4.158.542.542 0 0 1-.4-.158.574.574 0 0 1-.158-.41v-2.38c0-.341-.072-.608-.214-.8-.143-.199-.388-.298-.735-.298-.36 0-.642.105-.846.316a1.058 1.058 0 0 0-.307.782v2.38a.574.574 0 0 1-.158.41.542.542 0 0 1-.4.158.542.542 0 0 1-.4-.158.574.574 0 0 1-.159-.41v-3.84c0-.162.053-.295.159-.4a.526.526 0 0 1 .4-.168c.16 0 .294.056.4.167a.542.542 0 0 1 .158.4v.158c.167-.223.384-.415.65-.576.274-.162.571-.242.894-.242ZM18.153 15.316a.557.557 0 0 1-.568.567.531.531 0 0 1-.39-.158.574.574 0 0 1-.159-.41V9.568A.557.557 0 0 1 17.604 9c.156 0 .286.056.392.167a.542.542 0 0 1 .158.4v5.749Z" fill="#505E70"/><path fill-rule="evenodd" clip-rule="evenodd" d="M32.712 10.57c.428 0 .815.112 1.163.335.347.217.62.521.818.912.205.39.307.834.307 1.33 0 .496-.1.942-.297 1.34-.199.39-.472.697-.82.92a2.07 2.07 0 0 1-1.134.326c-.297 0-.58-.06-.846-.177a2.32 2.32 0 0 1-.651-.446v1.823a.542.542 0 0 1-.159.4.526.526 0 0 1-.4.167.542.542 0 0 1-.4-.158.554.554 0 0 1-.158-.41v-5.701c0-.162.053-.295.159-.4a.526.526 0 0 1 .4-.168c.16 0 .294.056.4.168a.542.542 0 0 1 .158.4v.037c.148-.186.356-.347.623-.484a1.75 1.75 0 0 1 .837-.214Zm-.14 4.14c.397 0 .723-.15.977-.447.254-.298.381-.67.381-1.116 0-.447-.127-.816-.38-1.107a1.21 1.21 0 0 0-.978-.446c-.403 0-.731.148-.986.446-.254.291-.38.66-.38 1.107 0 .446.126.818.38 1.116.255.298.583.447.986.447Z" fill="#505E70"/><path d="M26.128 15.784c-.532-.158-.986-.502-1.373-.89a.545.545 0 0 1-.15-.366.52.52 0 0 1 .15-.366.527.527 0 0 1 .366-.15.53.53 0 0 1 .366.15c.11.111.226.217.348.316.139.102.285.193.441.265.1.038.203.067.308.087.116.01.232.007.348-.004.128-.022.253-.057.374-.103.118-.054.23-.12.335-.196.1-.083.192-.174.274-.273a2.02 2.02 0 0 0 .195-.335c.047-.122.081-.247.103-.375a2.08 2.08 0 0 0 0-.412 2.024 2.024 0 0 0-.102-.375 2.061 2.061 0 0 0-.196-.335 2.064 2.064 0 0 0-.328-.318c.218-.505.849-.706 1.176-.263a2.518 2.518 0 0 1 .484 1.673c-.04.47-.189.93-.475 1.308a2.93 2.93 0 0 1-.263.312 2.531 2.531 0 0 1-1.611.73 2.108 2.108 0 0 1-.77-.08Z" fill="url(#paint0_linear_405_2796)"/><path d="M24.354 12.244c.073-.088.147-.174.224-.257.375-.412 1.013-.299 1.32.166-.123.096-.24.2-.351.31-.369.363-.678.777-.995 1.183l-.123.164c-.259.34-.52.682-.814.993a4.43 4.43 0 0 1-.438.408c-.18.144-.367.284-.574.388-.409.207-.856.31-1.313.25a2.723 2.723 0 0 1-.399-.07 2.899 2.899 0 0 1-.377-.141 2.55 2.55 0 0 1-1.012-.836 2.481 2.481 0 0 1-.312-.585c-.172-.435-.19-.917-.11-1.374a2.54 2.54 0 0 1 2.365-2.034 2.08 2.08 0 0 1 .744.095c.508.163.94.488 1.313.86a.52.52 0 0 1 0 .732.527.527 0 0 1-.366.151.531.531 0 0 1-.366-.15 4.307 4.307 0 0 0-.332-.302 2.562 2.562 0 0 0-.439-.263 1.725 1.725 0 0 0-.296-.084 1.884 1.884 0 0 0-.35.004 2.031 2.031 0 0 0-.375.103c-.117.054-.23.12-.335.196-.1.082-.19.174-.273.273a2.02 2.02 0 0 0-.196.334c-.046.122-.08.248-.102.376a2.08 2.08 0 0 0 0 .412c.022.128.056.253.102.375.055.118.12.23.196.335.083.1.174.191.274.274.105.075.216.14.334.195.122.046.247.08.375.103.115.011.231.014.346.004.107-.02.21-.05.312-.088.155-.072.3-.162.438-.264.376-.302.689-.674.983-1.053l.129-.168c.259-.342.52-.684.793-1.015Z" fill="url(#paint1_linear_405_2796)"/><rect x=".5" y=".5" width="39" height="25" rx="2.5" stroke="#000" stroke-opacity=".07"/><defs><linearGradient id="paint0_linear_405_2796" x1="19.034" y1="13.339" x2="29.255" y2="13.339" gradientUnits="userSpaceOnUse"><stop stop-color="#37A76F"/><stop offset="1" stop-color="#99CB38"/></linearGradient><linearGradient id="paint1_linear_405_2796" x1="19.034" y1="13.339" x2="29.255" y2="13.339" gradientUnits="userSpaceOnUse"><stop stop-color="#37A76F"/><stop offset="1" stop-color="#99CB38"/></linearGradient></defs></svg>