<svg role="img" viewBox="0 0 38 24" width="38" height="24" aria-labelledby="pi-finshark" version="1.1" id="pi-finshark-svg22" xmlns="http://www.w3.org/2000/svg"><title id="pi-finshark">Finshark Open Banking</title><defs id="pi-finshark-defs22"><clipPath id="pi-finshark-clip0_18_5683"><path fill="#fff" id="pi-finshark-rect63" d="M0 0h96v32H0z"/></clipPath></defs><path fill="#000" opacity=".07" d="M35 0H3C1.3 0 0 1.3 0 3v18c0 1.7 1.4 3 3 3h32c1.7 0 3-1.3 3-3V3c0-1.7-1.4-3-3-3z" id="pi-finshark-path1"/><path fill="#fff" d="M35 1c1.1 0 2 .9 2 2v18c0 1.1-.9 2-2 2H3c-1.1 0-2-.9-2-2V3c0-1.1.9-2 2-2h32" id="pi-finshark-path2"/><path id="pi-finshark-Tracciato_19920" data-name="Tracciato 19920" d="M25.19 18.386a18.537 18.537 0 01.212 2.809 17.861 17.861 0 01-9.356-2.509 17.869 17.869 0 01-9.357 2.509 18.537 18.537 0 01.212-2.809 15.912 15.912 0 009.144-3.043 15.905 15.905 0 009.145 3.043z" fill="#011025" stroke-width=".287"/><path id="pi-finshark-Tracciato_19921" data-name="Tracciato 19921" d="M25.402 2.478a17.853 17.853 0 01-2.509 9.357 18.509 18.509 0 011.91 4.666 13.832 13.832 0 01-3.07-.475 15.702 15.702 0 00-2.184-4.19 15.37 15.37 0 002.736-6.242 15.904 15.904 0 00-11.928 10.432 13.831 13.831 0 01-3.074.475A18.718 18.718 0 0125.402 2.478z" fill="#011025" stroke-width=".287"/></svg>