<svg xmlns="http://www.w3.org/2000/svg" width="38" height="24" fill="none" aria-labelledby="pi-flexiti" role="img" viewBox="0 0 38 24"><title id="pi-flexiti">Flexiti</title><path fill="#fff" d="M0 0h38v24H0z"/><path fill="#E94779" d="m21.1 11.1-.8-1.1H18l2.2 3.2z"/><path fill="#31393E" d="M8.2 16.8V6.9h1.9v9.9zm23.1-2c0 .3.1.4.5.4h.3v1.6h-1.5c-.9 0-1.3-.4-1.2-1.3v-4h-.8V10h.8V8.1h1.9V10h.9v1.6h-.9zM35 8c0 .6-.4 1-1 1s-1.1-.4-1.1-1 .4-1.1 1.1-1.1c.6 0 1 .5 1 1.1m-.1 8.8H33V10h1.9zM7.2 8.7V6.9h-.7c-1.9 0-2.8.8-2.8 2.7v.4H3v1.6h.8v5.3h1.9v-5.3h1.6V10H5.6v-.4q0-.75.6-.9zm5.7 5.2c.2 1 .9 1.5 1.8 1.5.7 0 1.3-.3 1.6-.9l1.7.5c-.7 1.3-1.9 2.1-3.3 2.1-2.2 0-3.7-1.5-3.7-3.7s1.5-3.7 3.6-3.7c2.2 0 3.7 1.5 3.7 3.8v.4zm3.4-1.1c-.2-.9-.8-1.5-1.8-1.5-.9 0-1.5.5-1.7 1.5z"/><path fill="#E94779" d="M23.1 12.3c.3-.7.9-1.5 1.5-1.8.3-.1.5-.2.9-.2-.6-.3-1.1-.6-1.6-.6h-.2c-.4 0-.8.1-1.1.2-1.1.7-1.9 3.3-2.5 4.5-.3.7-.9 1.5-1.5 1.8-.3.1-.5.2-.9.2.6.3 1.1.6 1.6.6h.2c.4 0 .8-.1 1.1-.2 1-.6 1.9-3.3 2.5-4.5"/><path fill="#31393E" d="M27.9 8c0 .6-.4 1-1 1s-1.1-.4-1.1-1 .4-1.1 1.1-1.1c.6 0 1 .5 1 1.1m-.1 8.8h-1.9V10h1.9z"/><path fill="#E94779" d="m22 15.7.8 1.2H25l-2.2-3.2c-.2.6-.5 1.3-.8 2"/></svg>