<svg viewBox="0 0 38 24" width="38" height="24" x="0" y="0" role="img" aria-labelledby="pi-floatpayments" xmlns="http://www.w3.org/2000/svg"><title id="floatpayments">Float Payments</title><path fill="#ef0f60" d="M7.148 5.84h.563v1.727h-.563c-.87 0-1.664.764-1.664 1.604v.947h2.227v1.726H5.484v6.67H3.503v-6.67H1.276v-1.726h2.227V9.17c0-1.805 1.67-3.33 3.645-3.33zm23.087 8.474v4.184h-1.981v-.801a5.23 5.23 0 01-2.814.795c-2.645 0-4.797-1.874-4.797-4.178s2.152-4.178 4.797-4.178c2.644 0 4.795 1.874 4.795 4.178zm-2.807-1.733a3.02 3.02 0 00-1.99-.719c-1.551 0-2.813 1.1-2.813 2.452 0 1.351 1.262 2.451 2.814 2.451 1.55 0 2.812-1.099 2.814-2.45 0-.655-.293-1.27-.825-1.734zm9.247-.745V10.11h-2.21V7.562h-1.982v2.548h-2.248v1.727h2.248v3.486c0 1.75 1.635 3.175 3.645 3.175h.547v-1.726h-.547c-.917 0-1.664-.65-1.664-1.45v-3.486zm-25.77 3.486V5.824H8.924v9.498c0 1.751 1.635 3.176 3.645 3.176h.831V16.77h-.83c-.919 0-1.665-.65-1.665-1.449zM22.04 7.574c0 2.256-2.1 4.086-4.69 4.086-2.59 0-4.69-1.83-4.69-4.086 0-2.256 2.1-4.086 4.69-4.086 2.59 0 4.69 1.83 4.69 4.086zm-1.99 0c0-1.299-1.208-2.352-2.7-2.352-1.49 0-2.7 1.053-2.7 2.352s1.21 2.352 2.7 2.352c1.492 0 2.7-1.053 2.7-2.352zm-1.473 5.804l-1.226-1.733-1.226 1.733z" id="pi-float-logo" stroke-width=".07"/><rect id="pi-float-border" width="38" height="24" x="0" y="0" ry="2" rx="2" fill="none" stroke="#000" stroke-width="1" stroke-linejoin="round" opacity=".07"/></svg>