<svg xmlns="http://www.w3.org/2000/svg" width="38" height="24" fill="none" aria-labelledby="pi-flyingblueplus"><title id="pi-flyingblueplus">Flying Blue+</title><g clip-path="url(#clip0_2_23)"><path fill="#000" d="M35 0H3C1.3 0 0 1.3 0 3v18c0 1.7 1.4 3 3 3h32c1.7 0 3-1.3 3-3V3c0-1.7-1.4-3-3-3" opacity=".07"/><path fill="#0E00B1" d="M35 1c1.1 0 2 .9 2 2v18c0 1.1-.9 2-2 2H3c-1.1 0-2-.9-2-2V3c0-1.1.9-2 2-2z"/><path fill="#fff" d="M11.5 19.2v-3.9h4.3v-1.5h-4.3V12c0-1.4 1.1-2.5 2.5-2.5s1.6.5 2.2 1.1l.9-1.1c-.8-1-1.9-1.3-1.9-1.3-.4-.1-.8-.2-1.2-.2-2.2 0-4 1.8-4 4v7.2zm10.6.2c2.2 0 4.1-1.8 4.1-4.1 0-2.2-1.8-4.1-4.1-4.1s-.9 0-1.3.2c-.5.2-.9.5-1.3 1V8.1H18v7.1c0 2.2 1.8 4.1 4.1 4.1zm0-6.6c1.4 0 2.5 1.1 2.5 2.5s-1.1 2.5-2.5 2.5-2.5-1.1-2.5-2.5 1.1-2.5 2.5-2.5m6.4-4.7h-1.9v1.8h-1.4V8.1h-1.9V6.8h1.9V5h1.4v1.8h1.9z"/></g></svg>