<svg xmlns="http://www.w3.org/2000/svg" width="38" height="24" fill="none" aria-labelledby="pi-flyingblueplus" role="img" viewBox="0 0 38 24"><title id="pi-flyingblueplus">Flying Blue+</title><path fill="#0E00B1" d="M0 0h38v24H0z"/><path fill="#fff" d="M11.5 19.2v-3.9h4.3v-1.5h-4.3V12c0-1.4 1.1-2.5 2.5-2.5s1.6.5 2.2 1.1l.9-1.1c-.8-1-1.9-1.3-1.9-1.3-.4-.1-.8-.2-1.2-.2-2.2 0-4 1.8-4 4v7.2zm10.6.2c2.2 0 4.1-1.8 4.1-4.1 0-2.2-1.8-4.1-4.1-4.1s-.9 0-1.3.2c-.5.2-.9.5-1.3 1V8.1H18v7.1c0 2.2 1.8 4.1 4.1 4.1zm0-6.6c1.4 0 2.5 1.1 2.5 2.5s-1.1 2.5-2.5 2.5-2.5-1.1-2.5-2.5 1.1-2.5 2.5-2.5m6.4-4.7h-1.9v1.8h-1.4V8.1h-1.9V6.8h1.9V5h1.4v1.8h1.9z"/></svg>