<svg xmlns="http://www.w3.org/2000/svg" width="38" height="24" viewBox="0 0 38 24" role="img" aria-labelledby="pi-forsa"><title id="pi-forsa">Forsa</title><g transform="translate(-352 -765)"><g transform="translate(352 765)"><path data-name="Path 1666" d="M35,0H3A2.946,2.946,0,0,0,0,3V21a3.009,3.009,0,0,0,3,3H35a2.946,2.946,0,0,0,3-3V3A3.009,3.009,0,0,0,35,0Z" opacity="0.07"/><path data-name="Path 1667" d="M35,1a2.006,2.006,0,0,1,2,2V21a2.006,2.006,0,0,1-2,2H3a2.006,2.006,0,0,1-2-2V3A2.006,2.006,0,0,1,3,1H35" fill="#fff"/></g><g data-name="Layer 1" transform="translate(257.343 200.25)"><g data-name="&lt;Group&gt;" transform="translate(97 570)"><path data-name="&lt;Compound Path&gt;" d="M104.668,580.611a2.271,2.271,0,0,1-1.649,2.181,2.271,2.271,0,0,1-4.371,0,2.269,2.269,0,0,1,.622-4.452h.856v-.724h-.856v-.767h.856V576.4h-.856v-.767h.856V571h3.834v1.41h-2.42v.89h2.42v1.41h-2.42v.92h.856v.767h-.856v.452h.856v.767h-.856v.724h.856a2.273,2.273,0,0,1,2.271,2.271Zm-5.709.8,1.725-1.661H99.271a.86.86,0,0,0-.311,1.661Zm2.671,1.082-.8-.767-.8.767a.857.857,0,0,0,1.593,0Zm1.627-1.883a.864.864,0,0,0-.861-.861h-1.414l1.725,1.661A.868.868,0,0,0,103.258,580.611Z" transform="translate(-97 -570.957)" fill="#00b3ab" fill-rule="evenodd"/><g data-name="&lt;Group&gt;" transform="translate(9.117 0)"><path data-name="&lt;Path&gt;" d="M331.141,573.294h0a.734.734,0,0,0,.524-.217.777.777,0,0,0,0-1.044.765.765,0,0,0-1.048,0,.733.733,0,0,0-.217.524.724.724,0,0,0,.217.52A.734.734,0,0,0,331.141,573.294Z" transform="translate(-329.574 -571.747)" fill="#152b53"/><path data-name="&lt;Path&gt;" d="M371.445,573.27a.716.716,0,0,0,.724-.737.705.705,0,0,0-.724-.733.735.735,0,1,0,0,1.47Z" transform="translate(-368.157 -571.723)" fill="#152b53"/><path data-name="&lt;Path&gt;" d="M312.508,751.861h2.211V750.6H311v5.7h1.508v-2.092h1.9v-1.261h-1.9Z" transform="translate(-311 -742.906)" fill="#152b53"/><path data-name="&lt;Compound Path&gt;" d="M405.95,748.1c1.581,0,2.65,1.061,2.65,2.931s-1.069,2.982-2.65,2.982-2.65-1.1-2.65-2.982S404.369,748.1,405.95,748.1Zm0,1.3c-.686,0-1.1.6-1.1,1.632s.417,1.683,1.1,1.683,1.108-.648,1.108-1.683S406.636,749.4,405.95,749.4Z" transform="translate(-399.368 -740.513)" fill="#152b53" fill-rule="evenodd"/><path data-name="&lt;Compound Path&gt;" d="M544.819,754.089l1.24,2.215h-1.687l-.98-1.913h-.579V756.3H541.3v-5.7h2.16c1.227,0,2.283.417,2.283,1.84A1.751,1.751,0,0,1,544.819,754.089Zm-.55-1.649c0-.49-.32-.648-.916-.648h-.541v1.4h.541C543.95,753.194,544.269,752.935,544.269,752.44Z" transform="translate(-531.489 -742.906)" fill="#152b53" fill-rule="evenodd"/><path data-name="&lt;Path&gt;" d="M655.476,750.626l-.694-.273c-.52-.2-.843-.3-.843-.571,0-.251.23-.383.6-.383a1.882,1.882,0,0,1,1.142.413l.754-.95a2.743,2.743,0,0,0-1.9-.763,1.928,1.928,0,0,0-2.122,1.772,1.682,1.682,0,0,0,1.15,1.589l.711.3c.481.192.771.281.771.554,0,.251-.2.4-.652.4a2.317,2.317,0,0,1-1.333-.55L652.2,753.2a3.3,3.3,0,0,0,2.16.814c1.423,0,2.228-.861,2.228-1.823A1.565,1.565,0,0,0,655.476,750.626Z" transform="translate(-637.664 -740.513)" fill="#152b53"/><path data-name="&lt;Compound Path&gt;" d="M758.161,750.6l1.738,5.7h-1.6l-.285-1.214h-1.589l-.285,1.214H754.6l1.738-5.7Zm-.417,3.323-.094-.392c-.141-.545-.281-1.24-.422-1.81h-.034c-.124.579-.264,1.265-.4,1.81l-.09.392Z" transform="translate(-735.702 -742.906)" fill="#152b53" fill-rule="evenodd"/><path data-name="&lt;Compound Path&gt;" d="M312.2,626.366a1.861,1.861,0,0,1,.631-1.4,2.592,2.592,0,0,1,1.823-.588h1.883v1.994c0,.477.115.6.55.6l.217.009c.32,0,.345-.06.366-.085s.081-.141.081-.6v-1.261h1.465v1.542c0,.3.043.4.332.413a5.027,5.027,0,0,1,1.883-2.215,3.307,3.307,0,0,1,1.627-.477,2.089,2.089,0,0,1,2.211,2.373,5.827,5.827,0,0,1-.23,1.555l-.017.06h-5.159a2.618,2.618,0,0,1-1.184-.247,2.727,2.727,0,0,1-1.376.234l-.217,0a2.781,2.781,0,0,1-1.546-.311,2.861,2.861,0,0,1-1.193.247,2.406,2.406,0,0,1-1.521-.469A1.639,1.639,0,0,1,312.2,626.366Zm8.993.626h2.624a.307.307,0,0,1,0-.051q.009-.1.009-.153c0-.728-.349-1.146-.954-1.146A2.185,2.185,0,0,0,321.193,626.992Zm-7.528-.711c0,.247.089.579.865.579A1.544,1.544,0,0,0,315,626.8v-1.133h-.52C313.968,625.672,313.665,625.9,313.665,626.281Z" transform="translate(-312.149 -621.987)" fill="#152b53" fill-rule="evenodd"/><path data-name="&lt;Compound Path&gt;" d="M631.088,631.523l-.988-.886a.707.707,0,0,0,.639-.8V626.4h1.3v2.594h4.379a2.071,2.071,0,0,1,.473-2.126,2.218,2.218,0,0,1,1.6-.567,1.918,1.918,0,0,1,2.066,1.956,5.2,5.2,0,0,1-.354,1.862H632A1.663,1.663,0,0,1,631.088,631.523Zm6.514-3.229a1.827,1.827,0,0,0,.141.7h1.44a2.633,2.633,0,0,0,.064-.6c0-.533-.247-.924-.784-.924A.774.774,0,0,0,637.6,628.294Z" transform="translate(-616.506 -623.901)" fill="#152b53" fill-rule="evenodd"/><path data-name="&lt;Path&gt;" d="M810.537,571.466h.008a.693.693,0,0,0,.516-.217.734.734,0,0,0,.187-.52.683.683,0,0,0-.716-.728.7.7,0,0,0-.733.728.721.721,0,0,0,.737.737Z" transform="translate(-788.55 -570)" fill="#152b53"/></g></g></g></g></svg>