<svg xmlns="http://www.w3.org/2000/svg" width="38" height="24" fill="none" aria-labelledby="pi-forsa" role="img" viewBox="0 0 38 24"><title id="pi-forsa">Forsa</title><path fill="#fff" d="M0 0h38v24H0z"/><path fill="#00B3AB" fill-rule="evenodd" d="M10.011 14.904a2.27 2.27 0 0 1-1.649 2.181 2.27 2.27 0 0 1-4.371 0 2.27 2.27 0 0 1 .622-4.452h.856v-.724h-.856v-.767h.856v-.449h-.856v-.767h.856V5.293h3.834v1.41h-2.42v.89h2.42v1.41h-2.42v.92h.856v.767h-.856v.452h.856v.767h-.856v.724h.856a2.273 2.273 0 0 1 2.272 2.271m-5.709.8 1.725-1.661H4.614a.86.86 0 0 0-.312 1.661m2.671 1.082-.8-.767-.8.767a.857.857 0 0 0 1.593 0zM8.6 14.903a.864.864 0 0 0-.861-.861H6.325l1.725 1.661a.87.87 0 0 0 .551-.799z" clip-rule="evenodd"/><path fill="#152B53" d="M13.027 6.797a.73.73 0 0 0 .524-.217.777.777 0 0 0 0-1.044.765.765 0 0 0-1.048 0 .73.73 0 0 0-.217.524.73.73 0 0 0 .217.52.73.73 0 0 0 .524.217m1.721 0a.716.716 0 0 0 .724-.737.704.704 0 0 0-.724-.733.735.735 0 0 0 0 1.47m-1.78 7.408h2.211v-1.261H11.46v5.7h1.508v-2.092h1.9v-1.261h-1.9z"/><path fill="#152B53" fill-rule="evenodd" d="M18.042 12.837c1.581 0 2.65 1.061 2.65 2.931s-1.069 2.982-2.65 2.982-2.65-1.1-2.65-2.982 1.069-2.931 2.65-2.931m0 1.3c-.686 0-1.1.6-1.1 1.632s.417 1.683 1.1 1.683 1.108-.648 1.108-1.683-.422-1.632-1.108-1.632m6.748 2.296 1.24 2.215h-1.687l-.98-1.913h-.579v1.909h-1.513v-5.7h2.16c1.227 0 2.283.417 2.283 1.84a1.75 1.75 0 0 1-.924 1.649m-.55-1.649c0-.49-.32-.648-.916-.648h-.541v1.4h.541c.597.002.916-.257.916-.752" clip-rule="evenodd"/><path fill="#152B53" d="m29.272 15.363-.694-.273c-.52-.2-.843-.3-.843-.571 0-.251.23-.383.6-.383.416.008.817.153 1.142.413l.754-.95a2.74 2.74 0 0 0-1.9-.763 1.927 1.927 0 0 0-2.122 1.772 1.68 1.68 0 0 0 1.15 1.589l.711.3c.481.192.771.281.771.554 0 .251-.2.4-.652.4a2.3 2.3 0 0 1-1.333-.55l-.86 1.036a3.3 3.3 0 0 0 2.16.814c1.423 0 2.228-.861 2.228-1.823a1.565 1.565 0 0 0-1.112-1.565"/><path fill="#152B53" fill-rule="evenodd" d="m33.919 12.944 1.738 5.7h-1.6l-.285-1.214h-1.589l-.285 1.214h-1.54l1.738-5.7zm-.417 3.323-.094-.392c-.141-.545-.281-1.24-.422-1.81h-.034c-.124.579-.264 1.265-.4 1.81l-.09.392zM11.511 9.629a1.86 1.86 0 0 1 .631-1.4 2.6 2.6 0 0 1 1.823-.588h1.883v1.994c0 .477.115.6.55.6l.217.009c.32 0 .345-.06.366-.085s.081-.141.081-.6V8.298h1.465V9.84c0 .3.043.4.332.413a5.03 5.03 0 0 1 1.883-2.215 3.3 3.3 0 0 1 1.627-.477 2.09 2.09 0 0 1 2.211 2.373 5.8 5.8 0 0 1-.23 1.555l-.017.06h-5.159a2.6 2.6 0 0 1-1.184-.247c-.43.196-.905.277-1.376.234h-.217a2.8 2.8 0 0 1-1.546-.311 2.9 2.9 0 0 1-1.193.247 2.4 2.4 0 0 1-1.521-.469 1.64 1.64 0 0 1-.626-1.374m8.993.626h2.624a.3.3 0 0 1 0-.051q.009-.1.009-.153c0-.728-.349-1.146-.954-1.146a2.19 2.19 0 0 0-1.679 1.35m-7.528-.711c0 .247.089.579.865.579q.24.006.47-.06V8.93h-.52c-.512.005-.815.233-.815.614m13.066 3.328-.988-.886a.707.707 0 0 0 .639-.8V7.749h1.3v2.594h4.379a2.07 2.07 0 0 1 .473-2.126 2.22 2.22 0 0 1 1.6-.567 1.92 1.92 0 0 1 2.066 1.956 5.2 5.2 0 0 1-.354 1.862h-8.203a1.66 1.66 0 0 1-.912 1.404m6.514-3.229c0 .24.048.478.141.7h1.44q.067-.296.064-.6c0-.533-.247-.924-.784-.924a.774.774 0 0 0-.863.824z" clip-rule="evenodd"/><path fill="#152B53" d="M33.447 6.716h.008a.7.7 0 0 0 .516-.217.73.73 0 0 0 .187-.52.683.683 0 0 0-.716-.728.7.7 0 0 0-.733.728.72.72 0 0 0 .738.737"/></svg>