<?xml version="1.0" encoding="UTF-8"?>
<svg width="38px" height="24px" viewBox="0 0 38 24" version="1.1" xmlns="http://www.w3.org/2000/svg" xmlns:xlink="http://www.w3.org/1999/xlink">
    <title>Group 13</title>
    <g id="Shopify-Baseline" stroke="none" stroke-width="1" fill="none" fill-rule="evenodd">
        <g id="Group-13" transform="translate(0.000000, 0.000000)">
            <path d="M35,0 L3,0 C1.3,0 0,1.3 0,3 L0,21 C0,22.7 1.4,24 3,24 L35,24 C36.7,24 38,22.7 38,21 L38,3 C38,1.3 36.6,0 35,0 Z" id="Path" fill="#000000" fill-rule="nonzero" opacity="0.07"></path>
            <path d="M35,1 C36.1,1 37,1.9 37,3 L37,21 C37,22.1 36.1,23 35,23 L3,23 C1.9,23 1,22.1 1,21 L1,3 C1,1.9 1.9,1 3,1 L35,1 Z" id="Path" fill="#FFFFFF" fill-rule="nonzero"></path>
            <g id="Group-14" transform="translate(11.000000, 4.000000)">
                <path d="M14,2.81822393 C12.5323111,1.09330919 10.3931149,0 8.02519968,0 C3.59283304,0 0,3.79500189 0,8.47583056 C0,11.096362 1.13163627,13.4465662 2.90069619,15 L5.19207278,4.89589035 C5.49314483,3.61657333 6.2438816,2.81727652 7.51932687,2.81822393 L14,2.81822393" id="Fill-4" fill="#E5842D"></path>
                <path d="M4,15.0864829 C5.12767316,15.6673656 6.4147781,16 7.77056133,16 C12.3158997,16 16,12.312484 16,7.76361684 C16,6.40024549 15.6792969,5.13292078 15.0927719,4 C14.748154,4.21050478 14.3198344,4.34889787 13.8243696,4.35196645 L8.31937454,4.38265228 C7.89596055,4.385414 7.08715092,4.39063059 6.86272005,5.36398507 L6.33966121,7.89280417 L12.6163673,7.85168516 C12.3526917,8.8627832 11.3608421,10.1497468 10.0896804,10.1209022 L6.93139835,10.1414617 C6.50798436,10.1448371 5.69917474,10.1865698 5.55200695,11.1197259 C5.15986612,13.0673554 4.80237104,14.3856186 4.01716958,15.0763566" id="Fill-5" fill="#889591"></path>
            </g>
        </g>
    </g>
</svg>