<svg xmlns="http://www.w3.org/2000/svg" width="38" height="24" fill="none" aria-labelledby="pi-fpx" role="img" viewBox="0 0 38 24"><title id="pi-fpx">FPX</title><path fill="#fff" d="M0 0h38v24H0z"/><path fill="#242B57" d="M15.095 8.321h4.733v1.434H16.65v1.436h2.942v1.436H16.65v2.752h-1.555zm5.85 0h2.623q.545 0 1.037.099.485.099.852.343.363.245.578.659.215.413.215 1.041 0 .618-.201 1.039a1.7 1.7 0 0 1-.547.668 2.2 2.2 0 0 1-.83.352q-.475.105-1.035.105h-1.133v2.752h-1.559zm1.559 2.989h1.033q.21 0 .402-.04c.131-.025.248-.072.35-.132a.7.7 0 0 0 .25-.261.83.83 0 0 0 .094-.415.7.7 0 0 0-.125-.432.8.8 0 0 0-.316-.255 1.3 1.3 0 0 0-.436-.114 5 5 0 0 0-.459-.024h-.793zm6.476.38-2.334-3.369H28.6l1.505 2.472 1.446-2.472h1.885l-2.282 3.339 2.551 3.719H31.75l-1.723-2.842-1.675 2.842h-1.844z"/><path fill="#0286C8" d="m8.285 14.053-.984-1.332c-.149-.199-.399-.458-.399-.719 0-.266.25-.523.399-.723l.984-1.333a.8.8 0 0 1 .134-.146V8.265c0-1.232-.514-1.544-1.145-.689L5.15 10.448c-.312.428-.854.99-.854 1.554 0 .562.543 1.123.854 1.553l2.125 2.871c.63.855 1.145.543 1.145-.689v-1.535a1 1 0 0 1-.135-.149"/><path fill="#242B57" d="m12.454 10.448-2.122-2.874c-.629-.855-1.146-.542-1.146.69V9.8a.8.8 0 0 1 .135.146l.985 1.332c.147.201.399.459.399.725 0 .259-.252.521-.399.72l-.985 1.334a.7.7 0 0 1-.135.145v1.535c0 1.234.516 1.543 1.146.691l2.122-2.873c.316-.428.857-.99.857-1.553 0-.564-.541-1.127-.857-1.554"/></svg>