<?xml version="1.0" encoding="UTF-8" standalone="no"?><svg xmlns="http://www.w3.org/2000/svg" height="24px" width="38px" version="1.1" xmlns:xlink="http://www.w3.org/1999/xlink" viewBox="0 0 38 24"><title>freecharge</title><desc>Created with Sketch.</desc><g fill-rule="evenodd" fill="none"><g id="freecharge"><g id="freecharge"><g id="Group"><path id="Shape" fill="#EDEDED" d="m34.5 24h-31c-1.9 0-3.5-1.6-3.5-3.5v-17c0-1.9 1.6-3.5 3.5-3.5h31c1.9 0 3.5 1.6 3.5 3.5v17c0 1.9-1.6 3.5-3.5 3.5z"/><path id="Shape-path" fill="#fff" d="m3.5 1c-1.4 0-2.5 1.1-2.5 2.5v17c0 1.4 1.1 2.5 2.5 2.5h31c1.4 0 2.5-1.1 2.5-2.5v-17c0-1.4-1.1-2.5-2.5-2.5h-31z"/><circle id="Oval" cy="12" cx="19" r="9" fill="#E2704D"/><path id="Shape" fill="#fff" d="m16.6 11.7l0.1-1.4s0.7 0.1 0.9-0.1c0.4-0.3 0.4-0.9 0.5-1.2 0.3-1.4 2-2.2 3.8-1.7l-0.2 1.4s-0.1-0.1-0.4-0.1c-1.1-0.1-1.6 0.2-1.7 1.7h1.5l-0.2 1-2.4 2.4h1.4c-1.2 1.3-2.8 2.9-3.8 3.8l1.3-2.6h-1.1c1-1.9 1-2 1.7-3.3"/></g></g></g></g></svg>