<svg xmlns="http://www.w3.org/2000/svg" width="38" height="24" aria-labelledby="pi-freedompay" role="img" viewBox="0 0 38 24"><title id="pi-freedompay">FreedomPay</title><path fill="#fff" d="M1 1h36v22H1z"/><path d="M13.73 12.85h1.24c.15 0 .27.12.27.27s-.12.27-.27.27h-1.53c-.17 0-.3-.13-.3-.3v-2.15c0-.17.13-.3.3-.3h1.51c.15 0 .27.12.27.27s-.12.27-.27.27h-1.22v1.69z"/><path d="M14.73 12c0 .18-.14.32-.32.32s-.32-.14-.32-.32.14-.32.32-.32.32.14.32.32m12.53-1.37h-.89c-.17 0-.3.13-.3.3v2.15c0 .17.13.3.3.3s.3-.13.3-.3v-1.91h.53c.3 0 .49.14.49.41 0 .21-.13.4-.43.41-.15 0-.27.12-.27.27s.12.27.27.27c.57 0 1.05-.32 1.05-.95 0-.57-.39-.95-1.05-.95m3.64 2.75a.282.282 0 0 0 .25-.41l-.95-2.15c-.07-.15-.18-.24-.35-.24h-.04c-.16 0-.28.09-.35.24l-.95 2.15s-.03.09-.03.13c0 .16.12.28.28.28.12 0 .23-.07.28-.19l.79-1.88.78 1.86c.05.12.15.21.29.21"/><path d="M30.15 13.06c0 .18-.14.32-.32.32s-.32-.14-.32-.32.14-.32.32-.32.32.14.32.32m2.17-1.31.79-.94c.07-.11.16-.18.29-.18.18 0 .29.13.29.29 0 .08-.04.16-.08.21l-.85 1v.95c0 .17-.13.3-.3.3s-.3-.13-.3-.3v-.89c0-.23.07-.32.17-.44m-.58-.81c0 .17-.14.32-.32.32s-.32-.14-.32-.32.14-.32.32-.32.32.14.32.32m-14.7-.31h-.76c-.17 0-.3.13-.3.3v2.15c0 .17.14.3.3.3s.3-.12.3-.28v-1.93h.46c.49 0 .82.34.82.82 0 .44-.26.75-.66.81-.15 0-.27.12-.27.27s.12.27.27.27h.06c.74-.09 1.23-.65 1.23-1.35 0-.78-.59-1.36-1.45-1.36m4.29 1.38c0-.48-.34-.87-.83-.87s-.82.38-.82.85c0 .48.34.87.83.87s.82-.38.82-.85m-2.27 0c0-.78.61-1.42 1.46-1.42s1.45.63 1.45 1.4c0 .78-.61 1.42-1.46 1.42s-1.45-.63-1.45-1.4M4.92 13.08c0 .17-.13.3-.3.3s-.3-.13-.3-.3v-2.15c0-.17.13-.3.3-.3h1.53c.15 0 .27.12.27.27s-.12.27-.27.27H4.92z"/><path d="M5.89 11.99c0 .18-.14.32-.32.32s-.32-.14-.32-.32.14-.32.32-.32.32.14.32.32M10.85 12.85h1.24c.15 0 .27.12.27.27s-.12.27-.27.27h-1.53c-.17 0-.3-.13-.3-.3v-2.15c0-.17.13-.3.3-.3h1.51c.15 0 .27.12.27.27s-.12.27-.27.27h-1.22v1.69z"/><path d="M11.85 12c0 .18-.14.32-.32.32s-.32-.14-.32-.32.14-.32.32-.32.32.14.32.32M8.33 12.42c.29 0 .47.16.47.39v.27c0 .17.13.3.3.3s.3-.13.3-.3v-.33c0-.23-.08-.41-.29-.6.22-.19.29-.45.29-.69 0-.28-.12-.84-1.03-.84h-.95c-.17 0-.3.13-.3.3v2.15c0 .17.13.3.3.3s.3-.13.3-.3v-1.91h.6c.34 0 .5.13.5.36 0 .2-.16.36-.49.36h-.02c-.15 0-.27.12-.27.27s.12.27.26.27zM25.23 13.06c0 .18-.14.32-.32.32s-.32-.14-.32-.32.14-.32.32-.32.32.14.32.32m-.03-2.03c.07-.13.04-.29-.09-.37a.283.283 0 0 0-.38.08l-.75 1.22-.73-1.18a.3.3 0 0 0-.27-.16h-.07c-.17 0-.3.13-.3.3v2.16c0 .16.13.29.29.29s.3-.13.3-.29v-1.34l.52.8c.06.09.14.15.25.15s.19-.06.25-.15l.53-.83z"/></svg>