<svg xmlns="http://www.w3.org/2000/svg" width="38" height="24" fill="none" aria-labelledby="pi-freecharge" role="img" viewBox="0 0 38 24"><title id="pi-freecharge">Freecharge</title><path fill="#fff" d="M0 0h38v24H0z"/><path fill="#E2704D" d="M19 21a9 9 0 1 0 0-18 9 9 0 0 0 0 18"/><path fill="#fff" fill-rule="evenodd" d="m16.6 11.7.1-1.4s.7.1.9-.1c.4-.3.4-.9.5-1.2.3-1.4 2-2.2 3.8-1.7l-.2 1.4s-.1-.1-.4-.1c-1.1-.1-1.6.2-1.7 1.7h1.5l-.2 1-2.4 2.4h1.4c-1.2 1.3-2.8 2.9-3.8 3.8l1.3-2.6h-1.1c1-1.9 1-2 1.7-3.3" clip-rule="evenodd"/></svg>