<svg viewBox="0 0 38 24" xmlns="http://www.w3.org/2000/svg" role="img" width="38" height="24" aria-labelledby="pi-visa"><title id="pi-visa">Visa</title><path opacity=".07" d="M35 0H3C1.3 0 0 1.3 0 3v18c0 1.7 1.4 3 3 3h32c1.7 0 3-1.3 3-3V3c0-1.7-1.4-3-3-3z"/><path fill="#fff" d="M35 1c1.1 0 2 .9 2 2v18c0 1.1-.9 2-2 2H3c-1.1 0-2-.9-2-2V3c0-1.1.9-2 2-2h32"/><path d="M28.3 10.1H28c-.4 1-.7 1.5-1 3h1.9c-.3-1.5-.3-2.2-.6-3zm2.9 5.9h-1.7c-.1 0-.1 0-.2-.1l-.2-.9-.1-.2h-2.4c-.1 0-.2 0-.2.2l-.3.9c0 .1-.1.1-.1.1h-2.1l.2-.5L27 8.7c0-.5.3-.7.8-.7h1.5c.1 0 .2 0 .2.2l1.4 6.5c.1.4.2.7.2 1.1.1.1.1.1.1.2zm-13.4-.3l.4-1.8c.1 0 .2.1.2.1.7.3 1.4.5 2.1.4.2 0 .5-.1.7-.2.5-.2.5-.7.1-1.1-.2-.2-.5-.3-.8-.5-.4-.2-.8-.4-1.1-.7-1.2-1-.8-2.4-.1-3.1.6-.4.9-.8 1.7-.8 1.2 0 2.5 0 3.1.2h.1c-.1.6-.2 1.1-.4 1.7-.5-.2-1-.4-1.5-.4-.3 0-.6 0-.9.1-.2 0-.3.1-.4.2-.2.2-.2.5 0 .7l.5.4c.4.2.8.4 1.1.6.5.3 1 .8 1.1 1.4.2.9-.1 1.7-.9 2.3-.5.4-.7.6-1.4.6-1.4 0-2.5.1-3.4-.2-.1.2-.1.2-.2.1zm-3.5.3c.1-.7.1-.7.2-1 .5-2.2 1-4.5 1.4-6.7.1-.2.1-.3.3-.3H18c-.2 1.2-.4 2.1-.7 3.2-.3 1.5-.6 3-1 4.5 0 .2-.1.2-.3.2M5 8.2c0-.1.2-.2.3-.2h3.4c.5 0 .9.3 1 .8l.9 4.4c0 .1 0 .1.1.2 0-.1.1-.1.1-.1l2.1-5.1c-.1-.1 0-.2.1-.2h2.1c0 .1 0 .1-.1.2l-3.1 7.3c-.1.2-.1.3-.2.4-.1.1-.3 0-.5 0H9.7c-.1 0-.2 0-.2-.2L7.9 9.5c-.2-.2-.5-.5-.9-.6-.6-.3-1.7-.5-1.9-.5L5 8.2z" fill="#142688"/></svg>
<svg xmlns="http://www.w3.org/2000/svg" width="38" height="24" aria-labelledby="pi-npatobarai"><path d="M35 0H3C1.3 0 0 1.3 0 3v18c0 1.7 1.4 3 3 3h32c1.7 0 3-1.3 3-3V3c0-1.7-1.4-3-3-3z" opacity=".07"/><path fill="#fff" d="M35 1c1.1 0 2 .9 2 2v18c0 1.1-.9 2-2 2H3c-1.1 0-2-.9-2-2V3c0-1.1.9-2 2-2h32"/><defs><linearGradient id="a" x1="10.246" x2="27.788" y1="8.558" y2="8.558" gradientUnits="userSpaceOnUse"><stop offset=".486" stop-color="#1eace6"/><stop offset=".494" stop-color="#26aae4"/><stop offset=".55" stop-color="#5b9cd4"/><stop offset=".603" stop-color="#8691c7"/><stop offset=".65" stop-color="#a489be"/><stop offset=".69" stop-color="#b684b9"/><stop offset=".719" stop-color="#bd82b7"/><stop offset=".826" stop-color="#db4693"/><stop offset=".88" stop-color="#e72d84"/></linearGradient></defs><g data-name="レイヤー 2"><path fill="#e4007f" d="m10.448 19.844-3.463-3.991-.012-.015h-.369v4.748h.446V16.58l3.482 4.006h.362v-4.748h-.446v4.006zm3.041-4.006h-1.327v4.748h.446v-2.181h.847c1.445 0 1.6-.905 1.6-1.294s-.155-1.273-1.566-1.273Zm-.881.385h.868c.7 0 1.107.326 1.107.895 0 .411-.2.9-1.148.9h-.827Zm4.827-.394a2.551 2.551 0 0 1-.586 1 2.746 2.746 0 0 1-.9.623v-.459a2.216 2.216 0 0 0 .65-.5 1.72 1.72 0 0 0 .4-.67Zm-.006 1.389a3.021 3.021 0 0 1-.541 1.077h.1v2.291h-.4v-1.974a2.32 2.32 0 0 1-.639.454V18.6a2.205 2.205 0 0 0 .634-.541 2.182 2.182 0 0 0 .417-.841Zm1.733-1.389-.913.815h.978l.6-.509h.536l-1.782 1.542h.787a2.723 2.723 0 0 0 .481-.041 2.1 2.1 0 0 0 .438-.123l-.208-.683h.405l.388 1.328h-.394l-.093-.306a1.678 1.678 0 0 1-.462.142 3.036 3.036 0 0 1-.566.055h-.547a1.966 1.966 0 0 1-.229.487h2.05v.339a1.9 1.9 0 0 1-.4.6 3.026 3.026 0 0 1-.68.533 4.9 4.9 0 0 0 .628.147 4.085 4.085 0 0 0 .64.05v.377a4.264 4.264 0 0 1-.907-.091 3.932 3.932 0 0 1-.81-.27 5.384 5.384 0 0 1-.823.264 3.637 3.637 0 0 1-.839.1v-.377a3.626 3.626 0 0 0 .62-.056 4.212 4.212 0 0 0 .615-.152 2.722 2.722 0 0 1-.4-.35 2.247 2.247 0 0 1-.309-.421 2.243 2.243 0 0 1-.268.172 1.813 1.813 0 0 1-.268.118v-.432a1.423 1.423 0 0 0 .558-.419 1.71 1.71 0 0 0 .377-.615h-.935v-.372h.585l.793-.683h-1.09v-.35l.93-.815Zm-1.083 3.3h.279a1.348 1.348 0 0 0 .3.394 2.012 2.012 0 0 0 .426.3 2.585 2.585 0 0 0 1.116-.93h-1.88c-.051.059-.09.1-.115.126-.059.049-.105.087-.126.113Zm5.052-3.3v.716h.64v.4h-.64V18.3a4.686 4.686 0 0 0 .645-.23v.43q-.3.12-.64.219v1.321a.543.543 0 0 1-.148.394.559.559 0 0 1-.421.152h-.557v-.4h.454a.252.252 0 0 0 .169-.066.2.2 0 0 0 .077-.158v-1.14c-.186.041-.337.071-.454.093s-.248.042-.394.06v-.415a6.021 6.021 0 0 0 .848-.152V16.95h-.848v-.4h.848v-.716Zm2.105 0-.739 4.26h.35a2.6 2.6 0 0 0 .7-.085 1.63 1.63 0 0 0 .561-.282l-.351-1.476h.422l.541 2.34h-.41l-.1-.453a1.948 1.948 0 0 1-.585.3 2.7 2.7 0 0 1-.793.1h-1.084v-.443h.317l.722-4.26Zm5.752.652a.8.8 0 0 1 .635.284 1.129 1.129 0 0 1 .245.764v2.346h-.42v-2.346a.815.815 0 0 0-.109-.45.4.4 0 0 0-.351-.188Zm-1.816 3.102a.894.894 0 0 1-.175.282.432.432 0 0 1-.319.126.425.425 0 0 1-.348-.171.72.72 0 0 1-.136-.462v-3.081h-.421v3.081a1.07 1.07 0 0 0 .282.791.847.847 0 0 0 .623.252c.439 0 .75-.273.936-.818Z"/><path fill="url(#a)" d="M20.733 14.025A5.215 5.215 0 0 1 17.6 12.64a2.634 2.634 0 0 1-1.4.871c-1.477.293-2.943-.435-4.614-2.293a4.828 4.828 0 0 1-1.3-2.711c-.176-1.162.179-1.635.508-1.828.72-.423 2.026.051 3.679 1.333.525.408.985.78 1.567 1.251.317.256.673.544 1.1.887a11.925 11.925 0 0 0 1.36-.915c.477-.387.919-.781 1.334-1.175.092-.2.184-.394.278-.6l.563-1.207a7.905 7.905 0 0 1 1.4-2.2 2.14 2.14 0 0 1 1.819-.739 1.476 1.476 0 0 1 .52.158 2.016 2.016 0 0 1 1.153-.384 2.069 2.069 0 0 1 1.5.917 4.559 4.559 0 0 1 .421 4.171 5.744 5.744 0 0 1-2.919 3.254 4.951 4.951 0 0 1-2.82 2.433 3.418 3.418 0 0 1-1.016.162Zm-2.911-1.638c1.408 1.089 2.526 1.559 3.828 1.159a4.436 4.436 0 0 0 2.362-1.855 8.82 8.82 0 0 1-1.447.463 6.021 6.021 0 0 1-4.085-.711 8.65 8.65 0 0 1-.658.944Zm-6.043-1.462.062.07c2.081 2.313 3.45 2.356 4.3 2.188a2.3 2.3 0 0 0 1.2-.749q-.3-.238-.609-.509a43.205 43.205 0 0 1-.894-.79 4.891 4.891 0 0 1-3.5.056 4.947 4.947 0 0 1-.559-.266Zm4.413.075c.217.2.466.416.759.668.211.181.414.351.611.51a8.011 8.011 0 0 0 .626-.9 9.472 9.472 0 0 1-1.072-.728 8.184 8.184 0 0 1-.815.4Zm2.459.153a5.682 5.682 0 0 0 3.84.672 8.325 8.325 0 0 0 1.835-.648c.107-.193.211-.4.31-.624a9.211 9.211 0 0 0 .748-4.389 3.164 3.164 0 0 0-.962-2.291 16.387 16.387 0 0 0-2.087 2.062c-.635.7-1.373 1.505-2.227 2.319-.516 1.109-.988 2.092-1.457 2.902Zm-6.717-2.328a1.251 1.251 0 0 0-.7.18.562.562 0 0 0-.262.54c.02.18.184.81 1.49 1.335a4.481 4.481 0 0 0 3.093 0l-.189-.176a7.579 7.579 0 0 0-1.976-1.453 3.192 3.192 0 0 0-1.456-.426Zm5.495 1.547a9.038 9.038 0 0 0 .93.623c.355-.613.714-1.334 1.1-2.137q-.361.322-.749.637a11.509 11.509 0 0 1-1.281.877Zm7.287-6.69a3.633 3.633 0 0 1 1 2.454 9.581 9.581 0 0 1-.776 4.556l-.091.2a5.291 5.291 0 0 0 2.32-2.819 4.365 4.365 0 0 0-.364-3.851 1.766 1.766 0 0 0-1.255-.794 1.6 1.6 0 0 0-.834.254Zm-12.79 4.807a3.58 3.58 0 0 1 1.622.463 7.892 7.892 0 0 1 2.047 1.5l.32.295c.085-.032.171-.066.257-.1a7.112 7.112 0 0 0 .661-.322c-.381-.306-.7-.568-1-.8-.581-.47-1.04-.841-1.562-1.247-1.493-1.158-2.728-1.647-3.3-1.309-.434.255-.428.951-.346 1.49a4.943 4.943 0 0 0 .119.6.951.951 0 0 1 .3-.328 1.542 1.542 0 0 1 .882-.242Zm11.739-4.85c-.961 0-1.8.863-2.691 2.76q-.24.51-.465 1a56.784 56.784 0 0 0 1.578-1.682A18.531 18.531 0 0 1 24.093 3.7a1.22 1.22 0 0 0-.241-.054 1.686 1.686 0 0 0-.187-.007Z"/></g></svg>
<br/>
<svg viewBox="0 0 38 24" xmlns="http://www.w3.org/2000/svg" role="img" width="38" height="24" aria-labelledby="pi-visa"><title id="pi-visa">Visa</title><path opacity=".07" d="M35 0H3C1.3 0 0 1.3 0 3v18c0 1.7 1.4 3 3 3h32c1.7 0 3-1.3 3-3V3c0-1.7-1.4-3-3-3z"/><path fill="#fff" d="M35 1c1.1 0 2 .9 2 2v18c0 1.1-.9 2-2 2H3c-1.1 0-2-.9-2-2V3c0-1.1.9-2 2-2h32"/><path d="M28.3 10.1H28c-.4 1-.7 1.5-1 3h1.9c-.3-1.5-.3-2.2-.6-3zm2.9 5.9h-1.7c-.1 0-.1 0-.2-.1l-.2-.9-.1-.2h-2.4c-.1 0-.2 0-.2.2l-.3.9c0 .1-.1.1-.1.1h-2.1l.2-.5L27 8.7c0-.5.3-.7.8-.7h1.5c.1 0 .2 0 .2.2l1.4 6.5c.1.4.2.7.2 1.1.1.1.1.1.1.2zm-13.4-.3l.4-1.8c.1 0 .2.1.2.1.7.3 1.4.5 2.1.4.2 0 .5-.1.7-.2.5-.2.5-.7.1-1.1-.2-.2-.5-.3-.8-.5-.4-.2-.8-.4-1.1-.7-1.2-1-.8-2.4-.1-3.1.6-.4.9-.8 1.7-.8 1.2 0 2.5 0 3.1.2h.1c-.1.6-.2 1.1-.4 1.7-.5-.2-1-.4-1.5-.4-.3 0-.6 0-.9.1-.2 0-.3.1-.4.2-.2.2-.2.5 0 .7l.5.4c.4.2.8.4 1.1.6.5.3 1 .8 1.1 1.4.2.9-.1 1.7-.9 2.3-.5.4-.7.6-1.4.6-1.4 0-2.5.1-3.4-.2-.1.2-.1.2-.2.1zm-3.5.3c.1-.7.1-.7.2-1 .5-2.2 1-4.5 1.4-6.7.1-.2.1-.3.3-.3H18c-.2 1.2-.4 2.1-.7 3.2-.3 1.5-.6 3-1 4.5 0 .2-.1.2-.3.2M5 8.2c0-.1.2-.2.3-.2h3.4c.5 0 .9.3 1 .8l.9 4.4c0 .1 0 .1.1.2 0-.1.1-.1.1-.1l2.1-5.1c-.1-.1 0-.2.1-.2h2.1c0 .1 0 .1-.1.2l-3.1 7.3c-.1.2-.1.3-.2.4-.1.1-.3 0-.5 0H9.7c-.1 0-.2 0-.2-.2L7.9 9.5c-.2-.2-.5-.5-.9-.6-.6-.3-1.7-.5-1.9-.5L5 8.2z" fill="#142688"/></svg>
<svg xmlns="http://www.w3.org/2000/svg" width="38" height="24" aria-labelledby="pi-npkakebarai"><path d="M35 0H3C1.3 0 0 1.3 0 3v18c0 1.7 1.4 3 3 3h32c1.7 0 3-1.3 3-3V3c0-1.7-1.4-3-3-3z" opacity=".07"/><path fill="#fff" d="M35 1c1.1 0 2 .9 2 2v18c0 1.1-.9 2-2 2H3c-1.1 0-2-.9-2-2V3c0-1.1.9-2 2-2h32"/><defs><linearGradient id="a" x1="10.245" x2="27.786" y1="8.558" y2="8.558" gradientUnits="userSpaceOnUse"><stop offset=".486" stop-color="#1eace6"/><stop offset=".494" stop-color="#26aae4"/><stop offset=".55" stop-color="#5b9cd4"/><stop offset=".603" stop-color="#8691c7"/><stop offset=".65" stop-color="#a489be"/><stop offset=".69" stop-color="#b684b9"/><stop offset=".719" stop-color="#bd82b7"/><stop offset=".826" stop-color="#db4693"/><stop offset=".88" stop-color="#e72d84"/></linearGradient></defs><g data-name="レイヤー 3"><path fill="#00abeb" d="m7.59 19.83-3.459-3.987-.012-.014h-.368v4.743h.445V16.57l3.478 4.002h.362v-4.743H7.59v4.001zm3.038-4.001H9.3v4.743h.446v-2.18h.846c1.444 0 1.6-.9 1.6-1.292s-.151-1.271-1.564-1.271Zm-.88.384h.867c.7 0 1.105.326 1.105.894 0 .411-.2.9-1.147.9h-.825Zm4.285-.384v.781h.519v.4h-.519v1.29a4.306 4.306 0 0 0 .519-.23v.43l-.519.206V20.1a.461.461 0 0 1-.147.347.5.5 0 0 1-.355.141h-.377v-.409h.257a.207.207 0 0 0 .145-.058.188.188 0 0 0 .062-.144v-1.136l-.259.076a2.656 2.656 0 0 1-.27.066v-.42l.529-.131v-1.423h-.529v-.4h.529v-.781Zm1.927 0v.459h.721v.409h-.721v.891h.721v.404h-1.879v-.404h.727v-.891h-.727v-.409h.727v-.459h.431zm0 2.471v.5h.721v.4h-.721v.842a2.636 2.636 0 0 0 .721-.186v.426a3.258 3.258 0 0 1-.751.18 8.212 8.212 0 0 1-1.128.066v-.4q.389 0 .727-.033V19.2H14.8v-.4h.727v-.5Zm1.564-2.471v1.759l.655.578v.539l-.655-.578v2.459h-.415v-4.757h.415zm6.237 1.471h-.5v1.949a1.254 1.254 0 0 1-.324.905 1.19 1.19 0 0 1-.905.34H21.5v-.422h.5a.806.806 0 0 0 .6-.224.823.823 0 0 0 .224-.609V17.3h-2.108v-.437h2.109v-.853h.432v.853h.5Zm-3.448 2.763a.741.741 0 0 1-.627-.759v-3.225h-.427V19.3a1.161 1.161 0 0 0 .342.856 1.137 1.137 0 0 0 .712.333Zm5.678-4.229v.716h.639v.4h-.639v1.35c.156-.047.271-.083.344-.109.1-.036.2-.076.295-.12v.429c-.2.08-.414.152-.639.218v1.325a.545.545 0 0 1-.148.393.559.559 0 0 1-.42.152h-.552v-.4h.453a.261.261 0 0 0 .17-.065.205.205 0 0 0 .076-.158v-1.141q-.279.06-.453.093a6.347 6.347 0 0 1-.394.06v-.414a6.181 6.181 0 0 0 .847-.153v-1.456h-.847v-.4h.847v-.716Zm2.102 0-.738 4.255h.35a2.638 2.638 0 0 0 .7-.084 1.661 1.661 0 0 0 .56-.282l-.35-1.474h.421l.54 2.337h-.409l-.1-.453a1.954 1.954 0 0 1-.584.3 2.691 2.691 0 0 1-.792.1h-1.084v-.443h.317l.721-4.255Zm5.745.652a.8.8 0 0 1 .635.284 1.128 1.128 0 0 1 .245.763v2.343H34.3v-2.343a.815.815 0 0 0-.109-.45.4.4 0 0 0-.351-.187Zm-1.814 3.099a.9.9 0 0 1-.174.28.431.431 0 0 1-.318.126.426.426 0 0 1-.349-.17.726.726 0 0 1-.136-.462v-3.077h-.419v3.077a1.065 1.065 0 0 0 .281.79.847.847 0 0 0 .623.252c.438 0 .749-.273.934-.816Z"/><path fill="url(#a)" d="M20.731 14.025A5.215 5.215 0 0 1 17.6 12.64a2.634 2.634 0 0 1-1.4.871c-1.477.293-2.943-.435-4.614-2.293a4.828 4.828 0 0 1-1.3-2.711c-.175-1.162.18-1.635.508-1.828.72-.423 2.027.051 3.679 1.333.525.408.985.78 1.568 1.251.316.256.672.544 1.1.887a11.925 11.925 0 0 0 1.349-.915c.477-.387.92-.781 1.334-1.175.092-.2.184-.394.278-.6q.271-.583.564-1.207a7.883 7.883 0 0 1 1.4-2.2 2.14 2.14 0 0 1 1.819-.739 1.488 1.488 0 0 1 .521.158 2.011 2.011 0 0 1 1.152-.384 2.069 2.069 0 0 1 1.5.917 4.562 4.562 0 0 1 .422 4.171 5.745 5.745 0 0 1-2.92 3.254 4.951 4.951 0 0 1-2.82 2.433 3.418 3.418 0 0 1-1.009.162Zm-2.91-1.638c1.407 1.089 2.525 1.559 3.827 1.159a4.432 4.432 0 0 0 2.362-1.855 8.79 8.79 0 0 1-1.447.463 6.021 6.021 0 0 1-4.085-.711 8.79 8.79 0 0 1-.657.944Zm-6.044-1.462.062.07c2.081 2.313 3.451 2.356 4.3 2.188a2.3 2.3 0 0 0 1.2-.749 20.3 20.3 0 0 1-.609-.509 43.205 43.205 0 0 1-.894-.79 4.891 4.891 0 0 1-3.5.056 4.947 4.947 0 0 1-.559-.266ZM16.19 11c.217.2.466.416.759.668.211.181.414.351.611.51a8.011 8.011 0 0 0 .626-.9 9.375 9.375 0 0 1-1.071-.728 8.3 8.3 0 0 1-.816.4Zm2.459.153a5.682 5.682 0 0 0 3.84.672 8.325 8.325 0 0 0 1.835-.648c.107-.193.211-.4.31-.624a9.224 9.224 0 0 0 .749-4.389 3.172 3.172 0 0 0-.962-2.291 16.321 16.321 0 0 0-2.088 2.062c-.635.7-1.373 1.505-2.227 2.319-.516 1.109-.988 2.092-1.457 2.902Zm-6.717-2.328a1.251 1.251 0 0 0-.7.18.562.562 0 0 0-.262.54c.02.18.184.81 1.49 1.335a4.481 4.481 0 0 0 3.093 0l-.189-.176a7.579 7.579 0 0 0-1.974-1.456 3.192 3.192 0 0 0-1.458-.423Zm5.495 1.547a9.038 9.038 0 0 0 .93.623c.355-.613.714-1.334 1.1-2.137q-.361.322-.749.637a11.509 11.509 0 0 1-1.281.877Zm7.287-6.69a3.633 3.633 0 0 1 1 2.454 9.581 9.581 0 0 1-.776 4.556l-.091.2a5.291 5.291 0 0 0 2.32-2.819 4.362 4.362 0 0 0-.364-3.851 1.766 1.766 0 0 0-1.255-.794 1.6 1.6 0 0 0-.834.254Zm-12.79 4.807a3.58 3.58 0 0 1 1.622.463 7.892 7.892 0 0 1 2.047 1.5l.32.295c.085-.032.171-.066.257-.1a7.249 7.249 0 0 0 .662-.322c-.382-.306-.706-.568-1-.8-.581-.47-1.04-.841-1.562-1.247-1.493-1.158-2.728-1.647-3.3-1.309-.434.255-.428.951-.346 1.49a4.978 4.978 0 0 0 .12.6.932.932 0 0 1 .3-.328 1.537 1.537 0 0 1 .88-.242Zm11.74-4.85c-.962 0-1.8.863-2.692 2.76q-.24.51-.465 1c.572-.579 1.091-1.148 1.579-1.682A18.444 18.444 0 0 1 24.091 3.7a1.22 1.22 0 0 0-.241-.054 1.682 1.682 0 0 0-.186-.007Z"/></g></svg>