<svg xmlns="http://www.w3.org/2000/svg" xmlns:xlink="http://www.w3.org/1999/xlink" width="38" height="24" fill="none" aria-labelledby="pi-futurepaymytab" role="img" viewBox="0 0 38 24"><title id="pi-futurepaymytab">FuturePay MyTab</title><defs><path id="pi-futurepaymytab-b" fill="#fff" d="M0 0h38v24H0z"/></defs><g clip-path="url(#pi-futurepaymytab-a)"><use xlink:href="#pi-futurepaymytab-b"/><path fill="#293793" d="M22.953 8.3h-2.018v6.648q0 .574-.258.852a.86.86 0 0 1-.661.278.87.87 0 0 1-.673-.282q-.259-.28-.26-.848V8.3h-2.018q-.475 0-.704-.21a.72.72 0 0 1-.232-.556q0-.355.24-.563t.696-.207h5.888q.481 0 .715.213a.72.72 0 0 1 .234.557q0 .345-.238.556-.236.21-.71.21Z"/><path fill="#293793" d="M26.67 15.12q-.618.48-1.193.719-.578.24-1.293.239-.656-.001-1.151-.26a1.9 1.9 0 0 1-.764-.702 1.83 1.83 0 0 1-.268-.962q0-.699.442-1.191.444-.495 1.22-.664.16-.037.801-.168.643-.13 1.1-.24.457-.108.994-.265-.032-.675-.27-.99-.241-.315-.996-.315-.648 0-.974.181-.33.179-.562.544a6 6 0 0 1-.33.477q-.099.115-.414.115a.72.72 0 0 1-.496-.185.6.6 0 0 1-.209-.471q.001-.45.317-.877.319-.425.992-.699.673-.275 1.678-.275 1.121 0 1.764.267.641.265.906.84.266.574.266 1.524 0 .6-.004 1.02l-.009.931q0 .48.16 1.002.158.52.157.67.001.262-.245.477a.83.83 0 0 1-.56.216q-.261 0-.516-.245a3.7 3.7 0 0 1-.543-.713m-.112-2.47q-.373.137-1.087.29-.713.153-.987.225a1.4 1.4 0 0 0-.524.282q-.249.209-.249.586 0 .387.294.659.29.271.766.273.505 0 .93-.222.426-.224.627-.574.23-.387.23-1.277v-.243m4.392-5.064v2.606q.48-.502.979-.768t1.234-.266q.848 0 1.487.403.638.403.989 1.168.353.765.353 1.815 0 .774-.196 1.42-.197.647-.57 1.121a2.58 2.58 0 0 1-2.082.994q-.394 0-.739-.094a2.1 2.1 0 0 1-.589-.248q-.243-.15-.415-.315a7 7 0 0 1-.45-.486v.168q0 .48-.23.727a.78.78 0 0 1-.588.248.73.73 0 0 1-.576-.248q-.215-.246-.215-.727V7.66q0-.518.208-.785.21-.265.583-.264.393 0 .604.254.214.253.213.72m.081 5.066q0 1.017.464 1.563.465.547 1.217.546.641.001 1.106-.559.463-.56.464-1.6 0-.675-.194-1.16a1.7 1.7 0 0 0-.547-.753 1.35 1.35 0 0 0-.83-.265q-.484 0-.863.265a1.76 1.76 0 0 0-.598.767q-.22.502-.219 1.196"/><path fill="#409ADB" d="M5.156 14.543 3.69 8.709v6.32q0 .525-.234.786a.79.79 0 0 1-.617.263.79.79 0 0 1-.61-.26q-.237-.258-.237-.79V7.784q.001-.6.311-.81.314-.208.84-.209h.575q.516 0 .748.094a.63.63 0 0 1 .347.337q.112.243.256.793l1.327 5.02 1.327-5.02q.144-.55.256-.793a.63.63 0 0 1 .344-.337q.235-.094.751-.094h.573q.529 0 .842.21.31.21.31.81v7.245q0 .525-.233.786a.8.8 0 0 1-.624.263.78.78 0 0 1-.604-.263q-.236-.262-.236-.786V8.71l-1.466 5.834q-.142.567-.234.833-.09.264-.332.482-.244.22-.674.22-.326 0-.549-.141a1 1 0 0 1-.349-.358 2 2 0 0 1-.195-.484 33 33 0 0 1-.147-.553m8.673 1.75.157-.381-2.093-5.286q-.194-.458-.193-.663a.8.8 0 0 1 .112-.408.83.83 0 0 1 .309-.298.8.8 0 0 1 .406-.113q.37 0 .555.234.187.234.33.672l1.44 4.198 1.364-3.904q.162-.476.293-.744.132-.269.277-.362.147-.093.415-.094a.75.75 0 0 1 .74.75 7 7 0 0 1-.08.337 6 6 0 0 1-.137.444l-2.219 5.823q-.287.77-.56 1.207a1.84 1.84 0 0 1-.727.671q-.45.234-1.216.235-.748 0-1.122-.162-.374-.164-.374-.593 0-.295.179-.452.176-.16.525-.16.136 0 .268.036.163.039.281.039.294 0 .46-.088a.8.8 0 0 0 .302-.303 4.6 4.6 0 0 0 .308-.635"/></g><defs><clipPath id="pi-futurepaymytab-a"><use xlink:href="#pi-futurepaymytab-b"/></clipPath></defs></svg>