<svg xmlns="http://www.w3.org/2000/svg" width="38" height="24" fill="none" aria-labelledby="pi-gcash" role="img" viewBox="0 0 38 24"><title id="pi-gcash">GCash</title><path fill="#fff" d="M0 0h38v24H0z"/><path fill="#002CB9" fill-rule="evenodd" d="M22.873 11.431a.93.93 0 0 0-.535-.336c-.12-.027-.246-.017-.37-.019q-1.522 0-3.044.003a.9.9 0 0 0-.536.177.92.92 0 0 0-.364.565.923.923 0 0 0 .71 1.09c.142.03.288.02.432.022q.955-.006 1.91-.002-.02.083-.052.164a3.23 3.23 0 0 1-1.131 1.503 3.2 3.2 0 0 1-4.263-.442 3.2 3.2 0 0 1-.717-1.288 3.22 3.22 0 0 1 .66-2.965 3.21 3.21 0 0 1 2.663-1.106c.52.036 1.033.202 1.475.48a.92.92 0 0 0 .725.113.95.95 0 0 0 .54-.379.9.9 0 0 0 .156-.504.9.9 0 0 0-.297-.692c-.076-.072-.168-.124-.257-.178a5 5 0 0 0-2.633-.697 5.2 5.2 0 0 0-1.736.313 5.02 5.02 0 0 0-2.989 3.064 5.16 5.16 0 0 0-.007 3.32 5.09 5.09 0 0 0 2.811 3.023 5.06 5.06 0 0 0 5.208-.76 5.1 5.1 0 0 0 1.33-1.691c.333-.681.506-1.44.507-2.2a.93.93 0 0 0-.196-.578" clip-rule="evenodd"/><path fill="#007CFF" fill-rule="evenodd" d="M23.206 17.33a.95.95 0 0 0-.754-.632.9.9 0 0 0-.653.157c-.166.124-.332.251-.51.358a6.1 6.1 0 0 1-2.255.864c-.45.08-.91.097-1.367.078a6.3 6.3 0 0 1-1.577-.292 6.15 6.15 0 0 1-2.273-1.338 6.2 6.2 0 0 1-1.376-1.86 6.16 6.16 0 0 1-.597-2.921c.031-.8.22-1.593.556-2.32.096-.198.192-.397.31-.584a6 6 0 0 1 .785-1.04c.069-.083.152-.154.226-.233a6.2 6.2 0 0 1 2.002-1.296 6.2 6.2 0 0 1 4.694.055c.432.186.843.42 1.221.698.105.073.201.163.322.211a.93.93 0 0 0 .607.047.91.91 0 0 0 .678-.89.9.9 0 0 0-.199-.57 1.4 1.4 0 0 0-.25-.222 7.94 7.94 0 0 0-5.1-1.594 7.9 7.9 0 0 0-4.019 1.259c-.165.102-.32.22-.477.333a7.5 7.5 0 0 0-.821.713 8 8 0 0 0-1.703 2.462 8 8 0 0 0-.67 2.923 7.7 7.7 0 0 0 .144 1.84 8 8 0 0 0 3.342 5.077 7.9 7.9 0 0 0 4.574 1.386c.46 0 .922-.043 1.375-.126a7.9 7.9 0 0 0 3.417-1.512.9.9 0 0 0 .301-.352.93.93 0 0 0 .047-.678Z" clip-rule="evenodd"/><path fill="#6FBBF8" fill-rule="evenodd" d="M25.943 11.02a8 8 0 0 0-.646-2.314.93.93 0 0 0-.98-.57.91.91 0 0 0-.69.482.93.93 0 0 0-.071.68c.03.104.084.2.123.3a6.19 6.19 0 0 1-.049 4.918c-.026.063-.058.125-.076.192a.914.914 0 0 0 .855 1.173.92.92 0 0 0 .848-.498 8 8 0 0 0 .667-2.255 8.3 8.3 0 0 0 .02-2.109Z" clip-rule="evenodd"/><path fill="#6FBBF8" fill-rule="evenodd" d="M28.87 10.523c-.16-1.214-.534-2.4-1.09-3.493a.916.916 0 0 0-1.667.088.94.94 0 0 0 .04.768c.048.086.088.177.132.266a9.2 9.2 0 0 1 .767 5.052 9 9 0 0 1-.916 2.948.94.94 0 0 0-.032.723.918.918 0 0 0 1.548.288c.085-.1.145-.216.2-.334a10.9 10.9 0 0 0 1.113-4.566 11 11 0 0 0-.096-1.74Z" clip-rule="evenodd"/></svg>