<svg xmlns="http://www.w3.org/2000/svg" role="img" viewBox="0 0 38 24" width="38" height="24" aria-labelledby="pi-gcash"><title id="pi-gcash">GCash</title><g stroke="none" stroke-width="1" fill="none" fill-rule="evenodd"><path d="M35,0 L3,0 C1.3,0 0,1.3 0,3 L0,21 C0,22.7 1.4,24 3,24 L35,24 C36.7,24 38,22.7 38,21 L38,3 C38,1.3 36.6,0 35,0 Z" id="Path" fill="#000000" fill-rule="nonzero" opacity="0.07"></path><path d="M35,1 C36.1,1 37,1.9 37,3 L37,21 C37,22.1 36.1,23 35,23 L3,23 C1.9,23 1,22.1 1,21 L1,3 C1,1.9 1.9,1 3,1 L35,1" id="Path" fill="#FFFFFF" fill-rule="nonzero"></path><g id="发卡/3:2-micro/GCash" transform="translate(2.500000, 1.000000)"><rect id="border" fill-opacity="0" fill="#FFFFFF" x="0" y="0" width="33" height="22"></rect><g id="Group-12-Copy" transform="translate(4.829099, 1.100000)"><path d="M12.5989414,15.6517251 C12.8025783,15.6334273 13.0097566,15.6357883 13.2092617,15.6835987 C13.402274,15.7278676 13.5882033,15.8099125 13.7458005,15.9315044 C13.9098904,16.0578183 14.0474191,16.2295815 14.0993612,16.4332183 C14.1070345,16.387769 14.1040833,16.3411391 14.1046735,16.2956897 L14.1046735,15.8943185 C14.1040833,15.7916147 14.199704,15.700716 14.3024078,15.705438 L14.3024078,15.705438 L14.8684592,15.705438 C14.968802,15.7089795 15.0537982,15.8028295 15.050847,15.9031723 L15.050847,15.9031723 L15.050847,19.5143322 C15.0502567,19.5467961 15.050847,19.5810307 15.0372712,19.6111335 C15.0077586,19.6855052 14.9298454,19.7386279 14.8495712,19.7356766 L14.8495712,19.7356766 L14.3024078,19.7356766 C14.202065,19.7380376 14.108215,19.6524511 14.1046735,19.5515181 C14.1029028,19.434058 14.1070345,19.3171882 14.1023125,19.2003183 C14.0550924,19.2392749 14.0137747,19.2853146 13.9683254,19.3260419 C13.8207624,19.4612096 13.6543115,19.5768989 13.4713334,19.6583536 C13.1201337,19.8194924 12.7134502,19.8371999 12.3415917,19.7415791 C12.004558,19.6554024 11.6958563,19.4659316 11.4627069,19.2085818 C11.2012254,18.9223098 11.0306426,18.5587147 10.9586319,18.1791829 C10.8801285,17.7683677 10.9019678,17.3368937 11.0335939,16.939064 C11.1404295,16.6185574 11.3257685,16.3228413 11.5795767,16.0985456 C11.8605365,15.8459179 12.2241316,15.6912719 12.5989414,15.6517251 Z M13.0389556,16.4753844 L12.893477,16.4780775 C12.7476848,16.491063 12.6018927,16.5276586 12.4726276,16.5990791 C12.3209329,16.6793533 12.1916677,16.8003549 12.0966372,16.9431958 C11.7838038,17.4148069 11.8062334,18.0770693 12.1385451,18.5327436 C12.2365269,18.6655503 12.3622505,18.7794689 12.5104037,18.8532503 C12.8433056,19.0250136 13.2665161,18.9966815 13.578169,18.7900934 C13.831387,18.6283644 14.0031502,18.3562584 14.0663072,18.064674 C14.1135273,17.8521834 14.1158883,17.6290683 14.0757512,17.4153972 C14.0409263,17.2347801 13.9700961,17.0594754 13.8597191,16.9119125 C13.7552445,16.7720228 13.6171256,16.657514 13.4601187,16.5819618 C13.2842236,16.4987363 13.0870796,16.4609602 12.893477,16.4780775 Z" id="Combined-Shape" fill="#002CB9"></path><path d="M14.2286264,5.60918262 C14.1294641,5.48050775 13.9830817,5.39019924 13.8248942,5.35537439 C13.7334052,5.33471558 13.6389649,5.34238885 13.5457051,5.34120835 C12.7795584,5.34002785 12.014002,5.34238885 11.2478553,5.34356936 C11.1032436,5.34534011 10.9586319,5.39019924 10.8429426,5.47696624 C10.7018724,5.57789928 10.6015297,5.73313548 10.5684756,5.90312797 C10.5360117,6.07312046 10.5637535,6.25432773 10.6540621,6.40189066 C10.7508633,6.56598063 10.9190851,6.68639198 11.1050144,6.72534859 C11.2118499,6.74836841 11.3216367,6.74069513 11.430243,6.74246589 C11.9107079,6.73951463 12.3917631,6.73951463 12.872228,6.74128539 C12.8633742,6.78378351 12.8486179,6.82451088 12.8332713,6.86523824 C12.6709521,7.3179613 12.3669725,7.7163812 11.9791771,7.99970202 C11.6450947,8.24288572 11.2484455,8.40048292 10.8376303,8.44711281 C10.442752,8.49433294 10.0354783,8.44180054 9.66598071,8.29423761 C9.32186397,8.15729922 9.00962082,7.94067685 8.7617151,7.66561955 C8.50849712,7.38938176 8.32315809,7.05293829 8.22045429,6.693475 C8.10653571,6.29092334 8.1006332,5.85885909 8.20156624,5.45335617 C8.292465,5.08621961 8.47131127,4.74151262 8.71862673,4.4558308 C8.93465885,4.20438357 9.20381363,3.99838573 9.50307124,3.85436431 C9.88201283,3.67079603 10.3087648,3.5905218 10.7284338,3.62062464 C11.1215414,3.64777621 11.5081563,3.77290958 11.8416485,3.98362943 C12.0016067,4.08692348 12.2052435,4.11643607 12.3888118,4.06862568 C12.5529018,4.0255373 12.7004647,3.92283351 12.7960855,3.7823536 C12.8716377,3.67079603 12.9153163,3.53680889 12.9141358,3.40164126 C12.9200383,3.20567769 12.8356324,3.00971412 12.6904304,2.8792685 C12.633176,2.82555559 12.5635263,2.78600873 12.4962376,2.74528136 C11.8994932,2.39113034 11.2035864,2.20697181 10.5088601,2.21877684 C10.0632201,2.22231835 9.61698982,2.30141208 9.19850136,2.45546778 C8.84435034,2.58532315 8.51085813,2.77066219 8.21219077,3.00086035 C7.62843183,3.44886139 7.18043079,4.07157694 6.94255936,4.76807395 C6.66809231,5.57258702 6.65982879,6.46917935 6.93724709,7.27428267 C7.05883894,7.62725319 7.23178269,7.96310641 7.44958557,8.26590553 C7.85567874,8.83195692 8.41818861,9.28408972 9.05920196,9.55619575 C9.80823137,9.87788293 10.6623256,9.94635213 11.4538531,9.75393007 C12.0157727,9.61876243 12.5452285,9.35137841 12.9902783,8.9824711 C13.409357,8.6342226 13.7558348,8.19743634 13.9931159,7.70575667 C14.2451534,7.19164744 14.375599,6.61851303 14.3762326,6.04596888 C14.37796,5.88896193 14.3254276,5.73254523 14.2286264,5.60918262" id="Path" fill="#007DFE"></path><path d="M18.8697755,18.1933489 C18.8095698,18.0345712 18.7033245,17.8958621 18.5734691,17.7884362 C18.4329892,17.6721567 18.2700798,17.5871604 18.101858,17.520462 C17.9194703,17.447861 17.7299995,17.3953286 17.5411189,17.3427962 C17.3557799,17.2908541 17.1674896,17.2430437 16.9910043,17.1639499 C16.8747247,17.1114175 16.7495914,17.0335043 16.7124055,16.9030587 C16.6846637,16.8009451 16.7118153,16.6846656 16.7855967,16.6085231 C16.8853493,16.5081803 17.0287804,16.4733555 17.1651286,16.4591894 C17.3008865,16.4473844 17.4401859,16.4515161 17.5706315,16.493424 C17.6928136,16.5312001 17.8061419,16.6079328 17.8746111,16.7177197 C17.9088457,16.7684813 17.9271435,16.8275065 17.9436706,16.8865316 C17.9578366,16.9378835 17.9950225,16.9809719 18.0422426,17.0063527 C18.1059898,17.0299628 18.1750492,17.021109 18.2423379,17.02347 C18.3969839,17.0252408 18.5516298,17.021109 18.7062758,17.025831 C18.8107503,17.0146163 18.8933856,16.9101417 18.8786293,16.8056672 C18.8373117,16.4993265 18.6891585,16.2042007 18.4518773,16.0035151 C18.3007729,15.8730695 18.1195656,15.7804 17.9289143,15.7237358 C17.7376727,15.6676619 17.5381677,15.6405103 17.3392528,15.6422811 C16.9679845,15.6357883 16.5872722,15.7190138 16.2732583,15.9226506 C16.1434029,16.0094176 16.0265331,16.1156629 15.9379953,16.2443378 C15.8205352,16.4131498 15.7526563,16.6179671 15.7556075,16.8245552 C15.7514758,17.0122553 15.7904324,17.2040871 15.8842824,17.3675868 C15.9645566,17.5098374 16.0831972,17.6272975 16.2183649,17.7170158 C16.3375957,17.799651 16.4698121,17.8610372 16.6049797,17.9135696 C16.8227826,17.9997464 17.05121,18.0558203 17.2772764,18.1172064 C17.4443176,18.1638363 17.6125394,18.2081052 17.7695463,18.2824769 C17.8521816,18.324975 17.9377681,18.3757367 17.9838077,18.4595524 C18.0198131,18.5197581 18.0257156,18.5941298 18.0085983,18.6614185 C17.9897102,18.754088 17.9224215,18.8302305 17.8433278,18.8786311 C17.7010771,18.9636274 17.5304944,18.9872375 17.3664044,18.9848764 C17.2377295,18.9866472 17.1078742,18.9606761 16.9921848,18.9051925 C16.8664612,18.8473478 16.7566744,18.7487758 16.7000102,18.6218716 C16.6758099,18.5746515 16.6716782,18.5173971 16.6350826,18.47726 C16.5961259,18.4294496 16.5335593,18.4040688 16.4727633,18.4058395 C16.2815218,18.4064298 16.08969,18.4058395 15.8978582,18.4064298 C15.8051887,18.40702 15.7196022,18.4825722 15.7083874,18.5752418 C15.7018946,18.6443012 15.7237339,18.7115899 15.742622,18.7771078 C15.7792176,18.8969289 15.8358818,19.0108475 15.9061217,19.1147318 C16.0890997,19.3791646 16.364157,19.5698159 16.6645951,19.6778319 C17.0405855,19.8124093 17.4537617,19.8324779 17.8445083,19.7539744 C18.0540477,19.708525 18.2606357,19.6335631 18.4377113,19.5102005 C18.5539908,19.431697 18.6590556,19.3348957 18.7405104,19.2197966 C18.8473459,19.0722337 18.9146346,18.8963387 18.9364739,18.7151314 C18.9541815,18.5392364 18.9347032,18.3586194 18.8697755,18.1933489" id="Path" fill="#002CB9"></path><path d="M10.363068,18.4205958 C10.210783,18.3326483 10.0567273,18.2464716 9.9044424,18.1585241 C9.84069521,18.1195674 9.75510872,18.1177967 9.69136153,18.1585241 C9.64886341,18.1833146 9.62584359,18.2275835 9.59869202,18.2665401 C9.36436209,18.6000323 8.97420572,18.8042594 8.57401506,18.8550211 C8.46304774,18.8691871 8.35030967,18.8668261 8.23875209,18.8650553 C8.01740771,18.8567918 7.79665357,18.8083912 7.59419724,18.7180827 C7.31028617,18.5911786 7.07182448,18.3721952 6.90891501,18.1083527 C6.79145492,17.9182916 6.71885396,17.7016692 6.68698037,17.4809151 C6.65038476,17.2212044 6.66041904,16.9526398 6.72593698,16.6976511 C6.83395304,16.2673576 7.1326204,15.8878258 7.52808904,15.6859597 C7.7889803,15.5537433 8.0846964,15.4988499 8.37569049,15.5041622 C8.62595721,15.5065232 8.87681418,15.5643678 9.09874882,15.6806474 C9.29589289,15.7833512 9.4706074,15.9291434 9.59987252,16.1103507 C9.62230208,16.141634 9.64119014,16.1776393 9.67247348,16.2012494 C9.73444991,16.2508306 9.82593892,16.2573233 9.89440812,16.218957 C10.0496443,16.1280582 10.206061,16.0377497 10.3612972,15.9474412 C10.4580985,15.895499 10.4905623,15.7615119 10.4327177,15.6694326 C10.105128,15.173031 9.58039421,14.8188799 9.00666956,14.6707268 C8.7251195,14.5975355 8.4317644,14.5768767 8.14195082,14.5945843 C7.85626899,14.6146528 7.57235792,14.6719073 7.30674466,14.7805136 C7.03758988,14.8885296 6.78850366,15.0467171 6.57424229,15.2420904 C6.36470294,15.4315612 6.18467617,15.6540861 6.04714752,15.9008113 C5.80986634,16.3234315 5.71306506,16.8162917 5.73254337,17.2985273 C5.74198739,17.5706334 5.78920753,17.8421491 5.87951604,18.0989086 C6.00051764,18.4430254 6.20061297,18.7576295 6.45619195,19.01675 C6.67635584,19.2434067 6.93842759,19.4305165 7.22765093,19.5586011 C7.62311957,19.7356766 8.06285709,19.800014 8.49374083,19.7805357 C8.87799469,19.7604672 9.25929729,19.6554024 9.59574076,19.4671121 C9.89972038,19.3000709 10.1700557,19.0681019 10.372512,18.7853714 C10.4091076,18.7316585 10.4575082,18.6797163 10.4610498,18.6118374 C10.4699035,18.5362852 10.4291762,18.4577817 10.363068,18.4205958" id="Path" fill="#002CB9"></path><path d="M4.97525043,16.7962231 C4.91150325,16.7684813 4.84067304,16.7755643 4.77338435,16.7743838 L2.85860783,16.7743838 C2.73347447,16.7737936 2.61955589,16.8812194 2.61483388,17.0063527 C2.61424362,17.1285348 2.61483388,17.2501267 2.61424362,17.3717185 C2.61188262,17.4531733 2.65083923,17.5375793 2.72048893,17.5824384 C2.76534806,17.6154925 2.82142197,17.6278878 2.87631538,17.6255268 C3.33730196,17.6255268 3.79710804,17.6249365 4.25750436,17.626117 C4.21972825,17.8946816 4.08869238,18.146719 3.90394359,18.3438631 C3.73572186,18.5221191 3.525002,18.657877 3.2989356,18.751727 C3.06755693,18.845577 2.81788046,18.9069632 2.56702349,18.8898459 C2.20696995,18.8739091 1.84809691,18.754088 1.5659566,18.5274314 C1.37825656,18.3792782 1.2188886,18.1927587 1.11205304,17.9784973 C0.959768103,17.6804202 0.915499225,17.3368937 0.944421559,17.0063527 C0.960358354,16.838131 0.99695396,16.6704995 1.06188165,16.5140828 C1.16694645,16.2531916 1.34402196,16.0229934 1.56418585,15.8488692 C1.8079598,15.6552666 2.11134917,15.5419383 2.42123132,15.5141964 C2.62899992,15.4935376 2.84208078,15.5029817 3.04630787,15.5519725 C3.39219537,15.6346078 3.71506305,15.8323421 3.92637316,16.1221557 C3.99897412,16.2171862 4.14594679,16.2407963 4.24747008,16.1800004 C4.36965219,16.1109409 4.49124404,16.040701 4.61224564,15.970461 C4.65238275,15.9480314 4.6872076,15.9161578 4.70963717,15.876611 C4.75803781,15.7963367 4.7556768,15.6877304 4.70019314,15.611588 C4.47117548,15.2869495 4.15243956,15.03019 3.79769829,14.8537048 C3.42052745,14.666595 2.99613648,14.5810085 2.57587726,14.589272 C2.35040111,14.5928135 2.12433471,14.6199651 1.90653183,14.6778098 C1.55769308,14.7669378 1.23010338,14.9351595 0.952094831,15.1641772 C0.718945408,15.3571895 0.514718319,15.5873876 0.358301618,15.8470984 C0.198933659,16.1091702 0.0920981005,16.4025252 0.0401559507,16.7047341 C-0.0147374576,17.0299628 -0.0129667025,17.3640453 0.0431072092,17.6886837 C0.0956396107,17.9814486 0.19952391,18.2647694 0.351808849,18.5197581 C0.566660469,18.8762701 0.866508334,19.1826108 1.22124961,19.4010039 C1.58071289,19.6235288 1.9986111,19.7445304 2.41887031,19.774043 C2.64375621,19.792931 2.87159337,19.7852578 3.09352801,19.7415791 C3.29008182,19.703803 3.48191363,19.6435973 3.66607216,19.5656841 C3.98953009,19.4263847 4.29409997,19.2339627 4.53964468,18.9801544 C4.80466769,18.7003751 4.9805627,18.3456339 5.08621775,17.9767265 C5.12930613,17.8214903 5.16236022,17.6621224 5.16708224,17.5003934 C5.17062375,17.3599135 5.18183853,17.2200239 5.18065803,17.0801342 C5.17711652,16.9555911 5.09212027,16.8375408 4.97525043,16.7962231" id="Path" fill="#002CB9"></path><path d="M23.3415224,17.4785541 C23.3432932,17.3522402 23.3368004,17.2253361 23.3185026,17.1002028 C23.2724629,16.7637593 23.1390661,16.4320378 22.9059166,16.1817711 C22.6810307,15.9379972 22.3687876,15.782761 22.0423784,15.7325896 C21.6227094,15.6647106 21.1735279,15.7290481 20.8069816,15.9515729 C20.7272976,15.9987931 20.6576479,16.059589 20.5844567,16.1150727 C20.5803249,15.6192612 20.5838664,15.1228596 20.5820957,14.6270481 C20.5820957,14.5786475 20.587408,14.5278858 20.5649784,14.4830267 C20.5336951,14.4139673 20.4610941,14.3661569 20.3849516,14.3673374 C20.2025638,14.3673374 20.0201761,14.3667471 19.8377883,14.3673374 C19.7545628,14.3661569 19.6766496,14.4257723 19.651859,14.5042758 C19.640054,14.5438226 19.6418247,14.5857305 19.6418247,14.6270481 C19.6418247,16.2620453 19.6412345,17.8970426 19.642415,19.53263 C19.6365125,19.6394656 19.731543,19.7362669 19.8377883,19.7356793 C20.0231273,19.7350864 20.2090566,19.7362669 20.3943956,19.7350864 C20.4953287,19.7339059 20.5832762,19.6418266 20.5820957,19.5414838 C20.5832762,18.8727286 20.5820957,18.2045637 20.5826859,17.5358085 C20.5862275,17.2825905 20.6411209,17.0205188 20.7928155,16.8127502 C20.8966998,16.6681385 21.0501653,16.5607127 21.2219285,16.5129023 C21.4173018,16.4568284 21.6297925,16.4621407 21.8222145,16.5276586 C21.9715482,16.5813715 22.1037646,16.6805338 22.1970243,16.8092087 C22.3162552,16.9727084 22.3770511,17.1716232 22.3983002,17.3711283 C22.4171882,17.5741749 22.4089247,17.7789922 22.4106955,17.9826291 L22.4106955,19.5515181 C22.4106955,19.6506804 22.503365,19.7350864 22.6007565,19.7356793 L23.1479198,19.7356793 C23.2258331,19.7356793 23.2972535,19.6837345 23.3279466,19.6140848 C23.3403419,19.5633231 23.3373906,19.5107907 23.3379809,19.4600291 L23.3379809,17.7907973 C23.3397516,17.686913 23.3332589,17.5824384 23.3415224,17.4785541" id="Path" fill="#002CB9"></path><path d="M14.2286264,5.60918262 C14.1294641,5.48050775 13.9830817,5.39019924 13.8248942,5.35537439 C13.7334052,5.33471558 13.6389649,5.34238885 13.5457051,5.34120835 C12.7795584,5.34002785 12.014002,5.34238885 11.2478553,5.34356936 C11.1032436,5.34534011 10.9586319,5.39019924 10.8429426,5.47696624 C10.7018724,5.57789928 10.6015297,5.73313548 10.5684756,5.90312797 C10.5360117,6.07312046 10.5637535,6.25432773 10.6540621,6.40189066 C10.7508633,6.56598063 10.9190851,6.68639198 11.1050144,6.72534859 C11.2118499,6.74836841 11.3216367,6.74069513 11.430243,6.74246589 C11.9107079,6.73951463 12.3917631,6.73951463 12.872228,6.74128539 C12.8633742,6.78378351 12.8486179,6.82451088 12.8332713,6.86523824 C12.6709521,7.3179613 12.3669725,7.7163812 11.9791771,7.99970202 C11.6450947,8.24288572 11.2484455,8.40048292 10.8376303,8.44711281 C10.442752,8.49433294 10.0354783,8.44180054 9.66598071,8.29423761 C9.32186397,8.15729922 9.00962082,7.94067685 8.7617151,7.66561955 C8.50849712,7.38938176 8.32315809,7.05293829 8.22045429,6.693475 C8.10653571,6.29092334 8.1006332,5.85885909 8.20156624,5.45335617 C8.292465,5.08621961 8.47131127,4.74151262 8.71862673,4.4558308 C8.93465885,4.20438357 9.20381363,3.99838573 9.50307124,3.85436431 C9.88201283,3.67079603 10.3087648,3.5905218 10.7284338,3.62062464 C11.1215414,3.64777621 11.5081563,3.77290958 11.8416485,3.98362943 C12.0016067,4.08692348 12.2052435,4.11643607 12.3888118,4.06862568 C12.5529018,4.0255373 12.7004647,3.92283351 12.7960855,3.7823536 C12.8716377,3.67079603 12.9153163,3.53680889 12.9141358,3.40164126 C12.9200383,3.20567769 12.8356324,3.00971412 12.6904304,2.8792685 C12.633176,2.82555559 12.5635263,2.78600873 12.4962376,2.74528136 C11.8994932,2.39113034 11.2035864,2.20697181 10.5088601,2.21877684 C10.0632201,2.22231835 9.61698982,2.30141208 9.19850136,2.45546778 C8.84435034,2.58532315 8.51085813,2.77066219 8.21219077,3.00086035 C7.62843183,3.44886139 7.18043079,4.07157694 6.94255936,4.76807395 C6.66809231,5.57258702 6.65982879,6.46917935 6.93724709,7.27428267 C7.05883894,7.62725319 7.23178269,7.96310641 7.44958557,8.26590553 C7.85567874,8.83195692 8.41818861,9.28408972 9.05920196,9.55619575 C9.80823137,9.87788293 10.6623256,9.94635213 11.4538531,9.75393007 C12.0157727,9.61876243 12.5452285,9.35137841 12.9902783,8.9824711 C13.409357,8.6342226 13.7558348,8.19743634 13.9931159,7.70575667 C14.2451534,7.19164744 14.375599,6.61851303 14.3762326,6.04596888 C14.37796,5.88896193 14.3254276,5.73254523 14.2286264,5.60918262" id="Path" fill="#002CB9"></path><path d="M14.4794833,10.0620356 C14.3968481,9.81531035 14.1707817,9.61698578 13.9104807,9.58452193 C13.7393077,9.55855086 13.5592809,9.60340999 13.4182108,9.70316253 C13.2924872,9.79701255 13.1673538,9.89263332 13.0321862,9.97349781 C12.5157159,10.299907 11.934318,10.5271539 11.3304905,10.6257259 C10.9905055,10.6865219 10.6434375,10.6989171 10.2987305,10.6847511 C9.89440812,10.6623215 9.49362721,10.5885401 9.1087831,10.463997 C8.47190152,10.2574089 7.88342057,9.90857012 7.39292141,9.45407631 C6.96439867,9.05506616 6.60729639,8.57814278 6.35407841,8.04986751 C6.02589846,7.36694629 5.87066227,6.60198008 5.90371636,5.8452774 C5.92732643,5.24144991 6.07016734,4.64293468 6.32338532,4.0940006 C6.39598628,3.94466692 6.46858724,3.79474299 6.55712499,3.65308258 C6.63857973,3.51319292 6.7318395,3.37979604 6.82805053,3.24994067 C6.92957382,3.11831454 7.03404837,2.98786891 7.1497377,2.86863807 C7.20167985,2.80548113 7.26424653,2.75176823 7.32032045,2.69274306 C7.7547457,2.2730741 8.27121594,1.93840138 8.83195506,1.71410574 C9.95756505,1.26551444 11.2602506,1.27731948 12.3746458,1.75601361 C12.7004647,1.89590326 13.0109371,2.07297877 13.2966189,2.28251813 C13.3757127,2.33800179 13.4483136,2.40588073 13.5392124,2.44188608 C13.6820533,2.50681377 13.8467335,2.51566755 13.997838,2.47730119 C14.1572059,2.43421281 14.3012273,2.33505053 14.3921261,2.19634138 C14.4700393,2.0824228 14.5119472,1.94371365 14.5089959,1.80559475 C14.5131277,1.65035855 14.452922,1.49689311 14.359072,1.37530126 C14.3059493,1.30978332 14.2380704,1.25784117 14.1707817,1.20766978 C13.7275027,0.875948319 13.2393645,0.604432536 12.7234845,0.403156705 C11.9614696,0.106850351 11.1380685,-0.0277270372 10.3211601,0.00473680637 C9.89853988,0.0189028472 9.47769042,0.0802890243 9.06746548,0.181812317 C8.43766692,0.340590025 7.83324918,0.602071529 7.2878566,0.955042047 C7.16272324,1.03177477 7.0458534,1.12031252 6.92721281,1.20648927 C6.70940993,1.3711695 6.49987058,1.54883526 6.30744852,1.74420857 C6.19471045,1.85045388 6.09082615,1.96555296 5.98812235,2.08124229 C5.59324397,2.53691661 5.26388352,3.05043559 5.02188032,3.60291118 C4.71494943,4.29763744 4.54436669,5.05079861 4.51662486,5.80927205 C4.50541008,6.04301172 4.51544436,6.27734165 4.5296104,6.51049107 C4.55144971,6.74068923 4.57624028,6.97147765 4.62523117,7.19754405 C4.65592426,7.37402931 4.70255415,7.54756331 4.75036453,7.71991681 C5.04017812,8.72747646 5.60032699,9.65476189 6.35466866,10.3825422 C6.60139387,10.6186429 6.86523638,10.8382165 7.14796695,11.0300484 C7.43955129,11.2330949 7.75238469,11.4030874 8.07525237,11.5512406 C8.8655994,11.9065721 9.73385966,12.0871892 10.6003492,12.0765646 C10.9480074,12.0765646 11.2956657,12.0435105 11.6380116,11.9809438 C12.5729703,11.8150831 13.4654309,11.4190242 14.2174116,10.8399873 C14.3136226,10.7726986 14.3933066,10.6806193 14.4446585,10.574374 C14.5219815,10.4167768 14.5320157,10.2290768 14.4794833,10.0620356" id="Fill-7" fill="#007CFF"></path><path d="M16.5459546,5.29811997 C16.4727633,4.69606324 16.3080831,4.10522128 16.0584066,3.55215544 C16.0023327,3.41403654 15.9013997,3.29303494 15.7727248,3.21630222 C15.6387377,3.13366698 15.4746477,3.10061289 15.318231,3.12186195 C15.0992476,3.14901353 14.8979718,3.28949343 14.797629,3.48604725 C14.7144035,3.6418737 14.6972862,3.82957374 14.7439161,3.99956623 C14.7669359,4.07747945 14.807073,4.14949016 14.8371759,4.22504238 C14.9251234,4.43812324 15.0024464,4.65651637 15.05793,4.88022177 C15.3170505,5.88955218 15.2285128,6.98683009 14.79999,7.93772559 C14.7805117,7.98553597 14.7563114,8.03216586 14.7427356,8.08233725 C14.694335,8.24819798 14.710862,8.43294676 14.7893655,8.58700246 C14.8991523,8.81070785 15.1382042,8.9653538 15.3878807,8.96771481 C15.6499525,8.97892959 15.911434,8.8272349 16.0283038,8.59172447 C16.279751,8.05400517 16.4491533,7.47791951 16.5317885,6.89002882 C16.6049797,6.36293405 16.6085212,5.82639525 16.5459546,5.29811997" id="Path" fill="#6FBBF8"></path><path d="M18.7546764,4.9239004 C18.6336748,4.0072395 18.3521248,3.11182767 17.9330461,2.28724604 C17.8840552,2.19339602 17.813225,2.10899003 17.7258677,2.04760385 C17.5889293,1.94667081 17.4118538,1.90004092 17.2424516,1.91951923 C16.9927751,1.94490005 16.7631672,2.1178438 16.6746294,2.35335423 C16.6002577,2.53928352 16.6132432,2.75590589 16.7047323,2.9329814 C16.7401474,2.99849934 16.7708404,3.06696854 16.8038945,3.13425723 C16.9006958,3.34910885 16.9933653,3.56632148 17.0683273,3.79002688 C17.4165758,4.79935729 17.5216406,5.89014243 17.3829315,6.94787348 C17.2819984,7.72169346 17.0476685,8.47839615 16.6917467,9.17253215 C16.6114725,9.34193439 16.600848,9.54261996 16.6669562,9.71792472 C16.7177178,9.86135588 16.8204216,9.98530874 16.950277,10.0638122 C17.119089,10.1718283 17.3363016,10.1966189 17.5269529,10.1358229 C17.6455935,10.0986371 17.7530193,10.0278069 17.8356545,9.93513735 C17.899992,9.86076563 17.9448511,9.77222788 17.9861687,9.68369012 C18.5126732,8.61415404 18.8007161,7.42892862 18.8266871,6.23721043 C18.8367214,5.79865342 18.8148821,5.3589159 18.7546764,4.9239004" id="Path" fill="#6FBBF8"></path></g></g></g></svg>