<svg width="38" height="24" aria-labelledby="pi-gcash" role="img" version="1.1" viewBox="0 0 38 24" xmlns="http://www.w3.org/2000/svg"><title id="pi-gcash">GCash</title><path d="M35 0H3C1.3 0 0 1.3 0 3v18c0 1.7 1.4 3 3 3h32c1.7 0 3-1.3 3-3V3c0-1.7-1.4-3-3-3z" opacity=".07"/><path d="M35 1c1.1 0 2 .9 2 2v18c0 1.1-.9 2-2 2H3c-1.1 0-2-.9-2-2V3c0-1.1.9-2 2-2h32" fill="#fff"/><g stroke-width=".015"><path d="M28.264 18.933l-.163-.086-.312-.286-.202-.435-.002-.532.503-1.1.407-1.142.278-1.143.183-1.196.003-1.006.004-1.007-.138-1.032-.271-1.231-.436-1.26-.503-1.093-.048-.568.286-.585.407-.278.465-.121.406.07.472.27.314.496.506 1.2.372 1.092.314 1.303.195 1.25.001 2.827-.146.978-.27 1.303-.538 1.621-.597 1.257-.293.31-.404.207-.628-.005-.163-.085zm-3.23-2.035l-.135-.054-.357-.272-.237-.457v-.597l.414-1.024.205-.714.156-.925.071-.978-.13-1.303-.301-1.196-.414-.978.001-.596.193-.382.232-.255.382-.192.4-.073.489.124.446.382.2.396.393 1.053.267 1.064.182 1.25-.06 2.174-.28 1.331-.372 1.11-.268.604-.305.364-.439.2-.596-.005-.134-.053z" fill="#65b2f6"/><path d="M15.983 22.217l-.428-.045-1.139-.231-1.153-.379-1.414-.689-.92-.62-.761-.625-1.04-1.075-.602-.818-.447-.731-.474-.95-.397-1.06-.268-1.11-.162-1.143-.002-1.542.165-1.253.32-1.243.446-1.12.49-.922.581-.87.882-1.054.821-.739 1.018-.76.942-.536 1.21-.517.94-.27.8-.165.92-.114h1.675l1.156.169 1.25.323 1.174.478 1.139.632.914.675.222.435v.607l-.147.35-.439.396-.532.114-.475-.107-.824-.578-.76-.428-.957-.41-1.232-.312-1.382-.125-1.263.123-.925.203-.707.235-1.1.522-.963.639-1.21 1.167-.715 1.003-.542 1.04-.379 1.134-.18.814-.058 1.921.183 1.096.268.925.421.97.547.9.714.89.889.824.931.635.978.49.936.33 1.128.252h2.12l.925-.197 1.118-.37 1.003-.5.735-.508.56-.298h.4l.368.125.299.208.283.482v.65l-.276.47-1.014.729-1.581.796-1.243.4-1.031.21-1.125.115-1.157-.015z" fill="#017afc"/><path d="M16.447 18.433l-.135-.02-.76-.122-.94-.306-.8-.404-.799-.539-.807-.767-.607-.807-.524-.996-.335-1-.171-1.117.055-1.357.175-.814.228-.707.475-.967.618-.86.882-.846.853-.575.878-.41.932-.271.896-.132 1.646.057 1.031.276.886.379.71.45.279.56-.002.496-.202.436-.312.293-.403.169h-.525l-1.032-.536-.81-.226-.925-.066-.814.136-.832.294-.621.371-.743.685-.374.511-.397.789-.22.842-.002 1.193.227.87.382.78.6.767.77.603.786.378.846.217h1.128l.782-.175.796-.365.678-.482.614-.664.432-.731.182-.461-.062-.163-3.02-.003-.443-.2-.348-.422-.106-.382v-.271l.114-.411.337-.382.414-.211h4.748l.404.168.257.24.206.403v1.046l-.219 1.074-.282.79-.446.863-.61.818-.94.9-.839.546-.764.36-.924.29-1.032.156-.978-.014-.136-.02z" fill="#002bb7"/></g></svg>