<svg xmlns="http://www.w3.org/2000/svg" role="img" viewBox="0 0 38 24" width="38" height="24" aria-labelledby="pi-gcash"><title id="pi-gcash">GCash</title><path d="M35 0H3C1.3 0 0 1.3 0 3v18c0 1.7 1.4 3 3 3h32c1.7 0 3-1.3 3-3V3c0-1.7-1.4-3-3-3z" opacity=".07"/><path d="M35 1c1.1 0 2 .9 2 2v18c0 1.1-.9 2-2 2H3c-1.1 0-2-.9-2-2V3c0-1.1.9-2 2-2h32" fill="#fff"/><g transform="matrix(.2131 0 0 .2131 -.1232 -7.795)" stroke-width="10"><path d="m110 127a44 44 50 1 1 0-68" fill="none" stroke="#007cff"/><g fill="#007cff"><circle cx="110" cy="127" r="5"/><circle cx="110" cy="59" r="5"/></g><path d="m107 93a25 25 0 1 1-12-22m12 22h-20" fill="none" stroke="#002cb8"/><g fill="#002cb8"><circle cx="95" cy="71" r="5"/><circle cx="107" cy="93" r="5"/><circle cx="87" cy="93" r="5"/></g><path d="m120.5 74a44 44-25 0 1 0 38" fill="none" stroke="#6fbaf7"/><g fill="#6fbaf7"><circle cx="120.5" cy="74" r="5"/><circle cx="120.5" cy="112" r="5"/></g><path d="m136 65a65 65-26 0 1 0 56" fill="none" stroke="#6fbaf7"/><g fill="#6fbaf7"><circle cx="136" cy="65" r="5"/><circle cx="136" cy="121" r="5"/></g></g></svg>