<svg xmlns="http://www.w3.org/2000/svg" role="img" viewBox="0 0 38 24" width="38" height="24" fill="none" aria-labelledby="pi-generic"><title id="pi-generic">Generic</title><rect x=".5" y=".5" width="37" height="23" rx="2.5" stroke="#000" stroke-opacity=".07" fill="none"/><path d="M35 0H3C1.3 0 0 1.3 0 3V21C0 22.7 1.4 24 3 24H35C36.7 24 38 22.7 38 21V3C38 1.3 36.6 0 35 0Z" fill="#C4C4C4" style="fill:#C4C4C4;fill:color(display-p3 0.7686 0.7686 0.7686);fill-opacity:1;"/><path d="M35 1C36.1 1 37 1.9 37 3V21C37 22.1 36.1 23 35 23H3C1.9 23 1 22.1 1 21V3C1 1.9 1.9 1 3 1H35Z" fill="#DADADA" style="fill:#DADADA;fill:color(display-p3 0.8549 0.8549 0.8549);fill-opacity:1;"/><rect x="4" y="13" width="14" height="4" rx="1" fill="white" fill-opacity="0.8" style="fill:white;fill-opacity:0.8;"/><rect x="3.75" y="12.75" width="14.5" height="4.5" rx="1.25" stroke="black" stroke-opacity="0.05" style="stroke:black;stroke-opacity:0.05;" stroke-width="0.5"/><path d="M1 6H37V10H1V6Z" fill="#666666" style="fill:#666666;fill:color(display-p3 0.4000 0.4000 0.4000);fill-opacity:1;"/></svg>
