<svg xmlns="http://www.w3.org/2000/svg" fill="none" viewBox="0 0 38 24" height="24" width="38" aria-labelledby="pi-generalfinancing" role="img"><title id="pi-generalfinancing">General financing</title><path fill="#fff" d="M0 0h38v24H0z"/><path fill="url(#pi-generalfinancing-a)" d="M13.842 11.963v.116c.024 1.564 1.326 2.809 2.891 2.809h.562c.47-.002.82-.114 1.04-.33.221-.22.334-.568.334-1.037v-.342a1.638 1.638 0 0 1-.57.454 2.03 2.03 0 0 1-.9.198 2.13 2.13 0 0 1-1.022-.247 1.836 1.836 0 0 1-.724-.694 1.956 1.956 0 0 1-.263-1.008c0-.373.089-.711.263-1.004.175-.294.417-.524.72-.687a2.153 2.153 0 0 1 1.025-.243c.338 0 .647.07.92.206.227.113.419.27.573.466v-.642h.605v3.477c0 .673-.169 1.18-.501 1.508-.332.327-.837.492-1.5.492h-1.627a.206.206 0 0 0-.14.359 5.139 5.139 0 0 0 3.515 1.343c2.796-.023 5.084-2.306 5.113-5.102a5.223 5.223 0 0 0-.032-.64c-.164-1.447-1.407-2.531-2.863-2.531h-.05c-.201.005-.355.061-.457.17-.107.113-.16.286-.16.514v.41h1.2v.545h-1.186v3.457h-.627V9.546c0-.368.109-.665.322-.88.214-.217.52-.327.907-.327h.88c.195 0 .28-.247.127-.369a5.134 5.134 0 0 0-3.186-1.127c-2.782-.017-5.155 2.311-5.188 5.094v.026Z"/><path fill="url(#pi-generalfinancing-b)" d="M17.994 10.684a1.552 1.552 0 0 0-.744-.176c-.272 0-.52.058-.737.172a1.25 1.25 0 0 0-.506.485 1.41 1.41 0 0 0-.183.717c0 .267.062.508.183.717.12.208.291.373.507.489.216.116.464.175.736.175.273 0 .522-.059.74-.175a1.27 1.27 0 0 0 .511-.49 1.41 1.41 0 0 0 .182-.716 1.39 1.39 0 0 0-.182-.713 1.284 1.284 0 0 0-.507-.485Z"/><defs><linearGradient id="pi-generalfinancing-a" x1="15.333" x2="22.616" y1="8.39" y2="15.62" gradientUnits="userSpaceOnUse"><stop stop-color="#E31C41"/><stop offset="1" stop-color="#56316F"/></linearGradient><linearGradient id="pi-generalfinancing-b" x1="13.525" x2="21.122" y1="8.147" y2="15.745" gradientUnits="userSpaceOnUse"><stop stop-color="#E31C41"/><stop offset="1" stop-color="#56316F"/></linearGradient></defs></svg>