<svg xmlns="http://www.w3.org/2000/svg" width="38" height="24" fill="none" aria-labelledby="pi-genoapay" role="img" viewBox="0 0 38 24"><title id="pi-genoapay">Genoapay</title><path fill="#fff" d="M0 0h38v24H0z"/><path fill="#00AB8E" d="M22.613 17.937a2.325 2.325 0 1 0 .002-4.65 2.325 2.325 0 0 0-.002 4.65m0 .873a3.2 3.2 0 1 1 0-6.4 3.2 3.2 0 0 1 0 6.4m-.009-8.1a2.326 2.326 0 1 0-.004.002zm0 .872a3.2 3.2 0 1 1 0-6.4 3.2 3.2 0 0 1 0 6.4m-7.217 6.345a2.326 2.326 0 1 0 .004-4.656 2.326 2.326 0 0 0-.004 4.658zm0 .872a3.2 3.2 0 1 1 0-6.4 3.2 3.2 0 0 1 0 6.4"/></svg>