<svg xmlns="http://www.w3.org/2000/svg" width="38" height="24" fill="none" aria-labelledby="pi-gezondheidsbonpaynlversion" role="img" viewBox="0 0 38 24"><title id="pi-gezondheidsbonpaynlversion">GezondheidsBon (PAY. version)</title><path fill="#fff" d="M0 0h38v24H0z"/><path fill="#FCC200" d="M18.29 4.89a.826.826 0 0 1-.832.832.826.826 0 0 1-.833-.832c0-.465.368-.833.833-.833s.833.368.833.833zm-2.252 4.064a.49.49 0 1 1-.98 0 .49.49 0 0 1 .98 0m5.117-2.595c0 .147-.122.27-.269.27a.273.273 0 0 1-.27-.27c0-.147.123-.27.27-.27s.27.123.27.27z"/><path fill="#FFEC00" d="M15.18 6.212c0 .49-.391.882-.905.882a.88.88 0 0 1-.882-.882c0-.49.392-.881.882-.881.514-.025.906.367.906.881z"/><path fill="#EA5B25" d="M17.189 6.58a.76.76 0 0 1-.76.758.76.76 0 0 1-.758-.759c0-.416.342-.759.759-.759s.759.343.759.76m4.848-1.347a.71.71 0 1 1-.71-.71c.392-.025.71.293.71.71m3.134 4.554c0 .27-.22.514-.514.514a.517.517 0 0 1-.514-.514c0-.27.22-.514.514-.514.27 0 .514.22.514.514"/><path fill="#AF182B" d="M25.049 7.363c0 .343-.27.612-.612.612a.61.61 0 0 1-.613-.612c0-.342.27-.612.613-.612s.612.294.612.612"/><path fill="#D41317" d="M23.555 8.097a.66.66 0 0 1-.915.612.66.66 0 0 1-.407-.612c0-.367.294-.66.661-.66s.661.293.661.66m-11.141.662c0 .367-.294.66-.661.66a.66.66 0 0 1-.661-.66c0-.367.293-.662.66-.662.368.025.662.319.662.662"/><path fill="#802E4E" d="M20.543 7.02a.71.71 0 1 1-1.42 0 .71.71 0 0 1 1.42 0"/><path fill="#822376" d="M24.535 8.465c0 .147-.123.27-.27.27a.273.273 0 0 1-.27-.27c0-.147.123-.27.27-.27.147.025.27.123.27.27m-8.987-.833a.36.36 0 0 1-.367.368.36.36 0 0 1-.368-.368c0-.196.172-.367.368-.367.196-.025.367.147.367.367"/><path fill="#BDE2F1" d="M19.417 5.87c0 .146-.122.269-.27.244-.146 0-.269-.122-.244-.27 0-.146.122-.244.27-.244.122 0 .244.122.244.27"/><path fill="#2E276C" d="M17.14 8.024c0 .245-.22.465-.466.465a.48.48 0 0 1-.465-.465.48.48 0 0 1 .646-.434.45.45 0 0 1 .285.434"/><path fill="#006EAA" d="M20.568 8.71a.49.49 0 1 1-.49-.49c.27 0 .49.196.49.49m-2.033-2.18a.517.517 0 0 1-.514.515.517.517 0 0 1-.514-.515c0-.294.22-.514.514-.514.294-.024.514.22.514.514m-4.921 3.257a.49.49 0 1 1-.979 0 .49.49 0 0 1 .979 0"/><path fill="#4F5692" d="M23.678 6.065c0 .343-.27.588-.613.588s-.587-.27-.587-.612.27-.588.612-.588c.318.024.588.294.588.612"/><path fill="#56256C" d="M13.026 7.338c-.024.27-.245.49-.514.466s-.49-.245-.465-.515c0-.244.22-.465.465-.465.27 0 .49.196.514.465v.05z"/><path fill="#BDE2F1" d="M21.743 8.416a.376.376 0 0 1-.367.367.376.376 0 0 1-.367-.367c0-.196.17-.368.367-.368s.367.172.367.368m4.677 1.518a.377.377 0 0 1-.367.367.377.377 0 0 1-.368-.367.377.377 0 0 1 .51-.341.36.36 0 0 1 .225.341"/><path fill="#2E276C" d="M20.127 4.62c0 .319-.27.588-.588.588a.596.596 0 0 1-.587-.588c0-.318.27-.587.587-.587.319 0 .588.27.588.587"/><path fill="#009EE2" d="M19.05 8.17a.63.63 0 0 1-.637.638.63.63 0 0 1-.637-.637c0-.367.294-.637.637-.637s.637.27.637.637z"/><path fill="#AEC90B" d="M14.446 8.293a.658.658 0 0 1-.913.612.66.66 0 0 1-.409-.611c0-.368.294-.662.661-.662s.661.294.661.661m7.518-1.15c0 .22-.172.416-.417.416a.413.413 0 0 1-.416-.417c0-.245.171-.416.416-.416a.43.43 0 0 1 .417.417"/><path fill="#007841" d="M16.087 4.988c0 .269-.22.465-.465.465a.48.48 0 0 1-.466-.465c0-.27.22-.466.466-.466.244 0 .465.22.465.466"/><path fill="#AF182B" d="M17.948 9.42a.543.543 0 0 1-.539.538.543.543 0 0 1-.539-.538c0-.294.245-.539.54-.539.293 0 .538.245.538.539"/><path fill="#EA5B25" d="M19.319 9.836a.465.465 0 0 1-.465.465.45.45 0 0 1-.465-.465c0-.245.195-.465.465-.465a.45.45 0 0 1 .465.465"/><path fill="#FFED00" d="M22.453 9.2a.283.283 0 0 1-.294.293.283.283 0 0 1-.293-.294c0-.171.122-.293.293-.293.172 0 .294.122.294.293z"/><path fill="#007841" d="M23.873 9.2a.27.27 0 0 1-.269.269.27.27 0 0 1-.27-.27c0-.147.123-.269.27-.269.147-.024.27.098.27.27zm-2.228.587a.49.49 0 1 1-.979 0 .49.49 0 0 1 .979 0"/><path fill="#2E276C" d="M23.114 9.983a.324.324 0 0 1-.318.318.324.324 0 0 1-.318-.318c0-.171.147-.318.318-.318s.318.122.318.318"/><path fill="#BDE2F1" d="M15.01 9.86a.43.43 0 0 1-.417.417.43.43 0 0 1-.416-.417.43.43 0 0 1 .416-.416.43.43 0 0 1 .416.416z"/><path fill="#AEC90B" d="M16.503 10.007a.283.283 0 0 1-.294.294.283.283 0 0 1-.294-.294c0-.171.123-.293.294-.293s.294.122.294.293"/><path fill="#FCC200" d="M11.116 10.032c0 .147-.122.27-.27.27a.27.27 0 0 1-.269-.27c0-.147.123-.27.27-.27s.27.123.27.27zm14.765-1.469a.27.27 0 0 1-.269.318.27.27 0 0 1-.318-.27v-.048c.024-.172.171-.294.318-.27.147 0 .245.123.27.27zm-5.362 6.978a.815.815 0 0 1-.808.808.815.815 0 0 1-.808-.808c0-.44.367-.808.808-.808.44 0 .808.368.808.808"/><path fill="#FFEC00" d="M17.556 19.239a.763.763 0 0 1-.76.759.763.763 0 0 1-.758-.76c0-.417.343-.758.759-.758h.024c.417.024.735.342.735.759"/><path fill="#EA5B25" d="M21.278 18.578a.324.324 0 0 1-.318.318.325.325 0 0 1-.319-.318c0-.172.147-.319.319-.319.171 0 .318.147.318.319m-4.995-.686c0 .22-.172.367-.392.367s-.367-.171-.367-.391.171-.368.367-.368.392.196.392.392m8.987-1.175a.685.685 0 1 1-.686-.686c.367.025.685.318.685.686z"/><path fill="#009EE2" d="M22.11 18.26a.539.539 0 1 0 0-1.078.539.539 0 0 0 0 1.078"/><path fill="#D41317" d="M13.1 14.954a.77.77 0 0 1-1.056.73.77.77 0 0 1-.487-.706c0-.44.343-.783.759-.783a.75.75 0 0 1 .783.759z"/><path fill="#2E276C" d="M21.327 17.108c0 .319-.27.588-.588.588a.596.596 0 0 1-.587-.588c0-.318.269-.587.587-.587s.588.27.588.587"/><path fill="#D41317" d="M23.824 17.427a.334.334 0 0 1-.342.343.334.334 0 0 1-.343-.343c0-.196.147-.343.343-.343s.342.147.342.343"/><path fill="#AF182B" d="M18.707 16.3c0 .294-.22.515-.514.515a.503.503 0 0 1-.515-.515c0-.295.22-.514.515-.514.269-.024.514.22.514.514"/><path fill="#802E4E" d="M17.58 15.027a.85.85 0 0 1-.857.857.837.837 0 0 1-.857-.857c0-.465.368-.857.857-.857.466 0 .857.367.857.857m-1.787 4.138a.544.544 0 0 1-.539.539.543.543 0 0 1-.538-.539c0-.294.244-.538.538-.538s.539.244.539.538"/><path fill="#822376" d="M20.862 19.606a.66.66 0 0 1-.661.661.66.66 0 0 1-.662-.66c0-.368.294-.662.662-.662.367-.025.66.27.66.661q0-.036 0 0zm.588-3.918c-.025.172-.148.27-.319.27a.31.31 0 0 1-.27-.27c-.024-.171.099-.294.27-.318s.294.098.318.27zm-7.542.196c0 .22-.172.392-.368.392-.22 0-.392-.171-.392-.367s.172-.392.368-.392c.22 0 .391.147.391.367z"/><path fill="#2E276C" d="M15.058 14.66a.49.49 0 1 1-.98 0 .49.49 0 0 1 .98 0"/><path fill="#006EAA" d="M19.025 19.85c0 .32-.27.589-.588.589a.596.596 0 0 1-.587-.588c0-.318.27-.588.587-.588s.588.245.588.588zm-1.2-2.325a.543.543 0 0 1-.538.538.544.544 0 0 1-.54-.538c0-.294.246-.539.54-.539.293-.024.538.22.538.539"/><path fill="#4F5692" d="M22.453 19.14a.49.49 0 1 1-.98 0 .49.49 0 0 1 .98 0"/><path fill="#56256C" d="M14.642 17.819c0 .49-.392.881-.881.881a.88.88 0 0 1-.882-.881c0-.49.392-.882.882-.882s.881.392.881.882m9.036-1.984a.904.904 0 0 1-1.253.838.9.9 0 0 1-.559-.838c0-.49.391-.906.906-.906a.89.89 0 0 1 .906.906"/><path fill="#BDE2F1" d="M10.822 14.635a.245.245 0 1 0 0-.49.245.245 0 0 0 0 .49m9.036 3.306c0 .44-.343.808-.784.808a.794.794 0 0 1-.808-.784c0-.441.343-.808.784-.808a.78.78 0 0 1 .808.784"/><path fill="#AEC90B" d="M24.633 15.15a.283.283 0 0 1-.294.293.28.28 0 0 1-.294-.293c0-.171.122-.294.294-.294.147 0 .294.147.294.294"/><path fill="#007841" d="M25.955 15.688a.36.36 0 0 1-.367.368.36.36 0 0 1-.368-.368.36.36 0 0 1 .367-.367c.196.024.368.171.368.367m-2.302 2.792a.376.376 0 0 1-.367.367c-.196 0-.343-.171-.343-.367s.171-.368.367-.368.343.172.343.368m-10.921-1.788a.49.49 0 1 1-.98 0 .49.49 0 0 1 .98 0"/><path fill="#BDE2F1" d="M25.147 14.415c0 .147-.098.27-.245.27s-.27-.099-.27-.246c0-.146.098-.269.245-.269s.27.098.27.245"/><path fill="#EA5B25" d="M21.792 14.562c0 .22-.171.392-.392.416a.425.425 0 0 1-.416-.392c0-.22.171-.391.392-.416.245 0 .416.171.416.392"/><path fill="#FCC200" d="M23.629 14.44a.273.273 0 0 1-.27.269.27.27 0 0 1-.27-.27c0-.146.123-.269.27-.269s.27.123.27.27"/><path fill="#AEC90B" d="M19 14.513c0 .196-.146.367-.342.367s-.367-.147-.367-.343.146-.367.342-.367c.22 0 .368.147.368.343z"/><path fill="#1F2855" d="M10.994 11.256c.171 0 .342.05.49.147.048.025.048.074.024.123l-.025.073c-.024.049-.073.049-.122.025a.56.56 0 0 0-.343-.098c-.666 0-.687 1.06-.049 1.126h.025a.58.58 0 0 0 .391-.171v-.172h-.147c-.048 0-.073-.024-.097-.073v-.05c0-.073.024-.097.097-.097h.294c.05 0 .098.024.098.098v.66c0 .074-.024.099-.098.099h-.049q-.073 0-.073-.074v-.122c-.123.122-.27.196-.44.171-.672-.039-.967-.923-.544-1.403a.78.78 0 0 1 .543-.262zm1.346.465c.27 0 .49.22.49.49v.05a.105.105 0 0 1-.098.097h-.661c0 .172.147.318.318.318a.4.4 0 0 0 .245-.073c.025-.025.074-.025.098.024v.025l.025.049c.024.049.024.098-.025.122a.66.66 0 0 1-.367.123.575.575 0 0 1-.588-.563v-.05a.59.59 0 0 1 .127-.4.56.56 0 0 1 .436-.212m.22.466c0-.172-.097-.245-.22-.245-.147 0-.244.098-.269.245zm.368.612c0-.05.025-.074.049-.098l.44-.612a.2.2 0 0 1 .099-.098h-.466c-.049 0-.097-.025-.097-.098v-.05c0-.048.024-.097.097-.097h.735c.049 0 .098.024.098.073v.025c0 .049-.024.073-.049.098l-.44.612a.2.2 0 0 1-.099.098h.49c.049 0 .098.024.098.098v.049c0 .073-.024.098-.098.098h-.783c-.025 0-.074-.025-.074-.098m1.69-1.078c.342 0 .612.27.612.588s-.27.612-.588.612-.612-.27-.612-.587a.573.573 0 0 1 .588-.613m0 .98c.196 0 .318-.171.318-.343v-.024a.33.33 0 0 0-.27-.368.33.33 0 0 0-.367.27v.073c0 .196.123.367.319.392q0-.038 0 0m.783-.857c0-.05.025-.098.074-.098h.073c.05 0 .098.024.098.098v.123a.44.44 0 0 1 .392-.246c.245 0 .367.123.367.441v.661c0 .074-.024.098-.098.098h-.098c-.049 0-.098-.024-.098-.098v-.612c0-.147-.024-.245-.171-.245a.35.35 0 0 0-.318.368v.489c0 .074-.025.098-.098.098h-.098c-.05 0-.074-.024-.074-.098l.05-.98zm1.714-.123a.36.36 0 0 1 .319.172v-.514c0-.05.024-.098.097-.098h.098c.05 0 .074.024.074.098v1.42c0 .073-.025.098-.074.098h-.073c-.049 0-.073-.025-.098-.074v-.121a.39.39 0 0 1-.343.196c-.294 0-.49-.245-.49-.612s.196-.564.49-.564zm.05.98c.146 0 .269-.123.269-.367 0-.172-.098-.368-.27-.368s-.27.123-.27.368.099.342.27.367zm.783-1.322c0-.05.024-.098.073-.098h.123c.049 0 .098.024.098.098v.563a.43.43 0 0 1 .367-.245c.245 0 .367.122.367.44v.662c0 .073-.024.098-.098.098h-.098c-.049 0-.098-.025-.098-.098v-.588c0-.147-.024-.245-.171-.245-.196 0-.318.172-.318.392v.44c0 .074-.025.099-.098.099h-.05c-.048 0-.097-.025-.097-.098zm2.252.832v.074a.105.105 0 0 1-.097.098h-.662c0 .171.147.318.319.293a.47.47 0 0 0 .245-.073c.024-.025.073-.025.098.024v.025l.024.049c.025.049.025.098-.024.122a.66.66 0 0 1-.368.123.576.576 0 0 1-.587-.563v-.05a.55.55 0 0 1 .135-.4c.285-.326.917-.268.917.278m-.293-.024c0-.172-.098-.245-.22-.245-.148 0-.246.098-.27.245zm.465-.735v-.073c0-.05.024-.098.098-.098h.098c.049 0 .073.024.098.073v.098c0 .05-.025.074-.074.098h-.122a.105.105 0 0 1-.098-.098m0 .392c0-.05.024-.098.098-.098h.098c.049 0 .073.024.073.098v.98c0 .073-.024.097-.073.097h-.098c-.05 0-.098-.024-.098-.098zm.979-.123a.36.36 0 0 1 .319.172v-.514c0-.05.024-.098.098-.098h.098c.049 0 .073.024.073.098v1.42c0 .141-.194.124-.245.024v-.121a.39.39 0 0 1-.343.196c-.293 0-.49-.245-.49-.612s.197-.564.49-.564zm.05.98c.146 0 .269-.123.269-.367 0-.172-.098-.368-.27-.368s-.269.123-.269.368.098.342.27.367m.734-.025.024-.049c.025-.049.074-.049.123-.024.072.05.158.075.245.073.098 0 .147-.049.147-.122 0-.196-.54-.122-.54-.514a.396.396 0 0 1 .393-.343h.024c.098 0 .22.024.294.073.049.025.049.074.049.123l-.024.073c-.025.05-.074.05-.123.05-.049-.05-.122-.05-.196-.05-.098 0-.147.05-.147.123 0 .196.539.122.539.514a.36.36 0 0 1-.392.343h-.024a.73.73 0 0 1-.368-.123c-.024-.049-.049-.098-.024-.147m1.053-1.297c0-.05.024-.098.098-.098h.44a.415.415 0 0 1 .466.367v.049c0 .147-.074.27-.172.343.147.049.245.22.245.367 0 .245-.196.465-.44.465h-.539c-.05 0-.098-.024-.098-.098zm.539.563a.19.19 0 0 0 .195-.196v-.025c0-.097-.049-.195-.171-.195h-.294v.416zm.024.71a.244.244 0 0 0 .147-.318.22.22 0 0 0-.147-.147h-.294v.465zm1.224-.931c.343 0 .613.27.613.588 0 .343-.27.612-.588.612s-.612-.27-.612-.587v-.025a.58.58 0 0 1 .587-.588m0 .98c.196 0 .319-.171.319-.343v-.024A.31.31 0 0 0 25 11.99c-.439-.047-.455.647-.025.71q0-.037 0 0zm.808-.857c0-.05.025-.098.074-.098h.073c.05 0 .074.024.074.098v.123a.44.44 0 0 1 .392-.246c.244 0 .367.123.367.441v.661c0 .074-.025.098-.098.098h-.05c-.048 0-.097-.024-.097-.098v-.612c0-.147-.024-.245-.171-.245a.35.35 0 0 0-.319.368v.489c0 .074-.024.098-.098.098h-.098c-.049 0-.073-.024-.073-.098z"/><path fill="#AEC90B" d="M16.062 16.472a.71.71 0 1 1 0-.001z"/><path fill="#D41317" d="M26.396 14.61a.415.415 0 0 1-.417.417.41.41 0 0 1-.416-.416.43.43 0 0 1 .416-.416c.22-.025.417.171.417.416z"/></svg>