<svg xmlns="http://www.w3.org/2000/svg" width="38" height="24" fill="none" aria-labelledby="pi-gift-card" role="img" viewBox="0 0 38 24"><title id="pi-gift-card">Gift Card</title><g clip-path="url(#pi-gift-card-a)"><path fill="#F5F5F5" d="M0 0h38v24H0z"/><path fill="#707070" fill-rule="evenodd" d="M15.275 12c.939 1.246 2.296 2 3.725 2a1 1 0 1 1 0 2c-2.002 0-3.75-.932-5-2.397V24h-2V13.603C10.75 15.068 9.002 16 7 16a1 1 0 1 1 0-2c1.43 0 2.786-.754 3.725-2H0v-2h5.385A3.1 3.1 0 0 1 5 8.5C5 6.567 6.79 5 9 5c1.195 0 2.267.458 3 1.185V0h2v6.185C14.733 5.458 15.805 5 17 5c2.21 0 4 1.567 4 3.5a3.1 3.1 0 0 1-.385 1.5H38v2zM17 10c1.364 0 2-.914 2-1.5S18.364 7 17 7s-2 .914-2 1.5V10zm-6 0V8.5c0-.586-.636-1.5-2-1.5s-2 .914-2 1.5.636 1.5 2 1.5z" clip-rule="evenodd"/></g><defs><clipPath id="pi-gift-card-a"><path fill="#fff" d="M0 0h38v24H0z"/></clipPath></defs></svg>