<svg xmlns="http://www.w3.org/2000/svg" width="38" height="24" fill="none" viewBox="0 0 38 24" role="img" aria-labelledby="pi-giftstation"><title id="pi-giftstation">Gift Station</title><g clip-path="url(#pi-giftstation-a)"><path fill="#FF7300" d="M0 0h38v24H0z"/><path fill="#fff" fill-rule="evenodd" d="M12.95 6.99h-1.44v4.34h1.44V7zm-.72-.32c.53 0 .91-.37.91-.83 0-.47-.38-.84-.9-.84-.54 0-.92.37-.92.83 0 .47.38.84.91.84zm-4.1-1.28C6.5 5.4 5 6.46 5 8.4a2.88 2.88 0 002.9 3.02c.69 0 1.37-.25 1.86-.74v.67l1.17-.02V8.27h-.9a8.6 8.6 0 01-2.11-.18l-.33 1.06c.52.16 1 .2 1.86.21-.24.43-.7.68-1.25.68-.77 0-1.57-.52-1.57-1.67 0-1.07.7-1.6 1.46-1.6.53 0 1.01.26 1.28.74l1.25-.9a2.96 2.96 0 00-2.5-1.22zM13.4 7h.8v-.13c0-1.1.77-1.7 1.78-1.7.44 0 .9.12 1.3.35l-.5 1.06c-.16-.1-.38-.16-.57-.16-.3 0-.57.13-.57.45V7h1.03v1.23h-1.03v3.11H14.2v-3.1h-.8V6.98zm4.48 0h-.86v1.23h.86v1.55c0 1.02.7 1.6 1.68 1.6.46 0 .9-.12 1.34-.38l-.34-1.02c-.18.1-.4.16-.6.17-.37 0-.64-.2-.64-.63v-1.3h1.24V6.98h-1.24V5.96h-1.44V7zm16.61 7.24h-.03v-.1h.04c.03 0 .05.01.05.05 0 .03-.02.05-.05.05zm.13.07c.05-.02.07-.06.08-.13a.13.13 0 00-.05-.1.2.2 0 00-.13-.04h-.2v.46h.14v-.16h.02l.1.16h.17l-.13-.19zm.15.22a.37.37 0 01-.27.11.36.36 0 01-.26-.1.35.35 0 01-.1-.27.36.36 0 01.37-.36c.1 0 .2.03.26.1.07.08.1.16.1.26a.36.36 0 01-.1.27zm.08-.6a.5.5 0 00-.8.16.45.45 0 00-.03.18.47.47 0 00.48.48.5.5 0 00.46-.3.46.46 0 00.04-.18.45.45 0 00-.15-.33zM7.41 13.6c.42 0 .94.2 1.2.54l.94-.96a2.71 2.71 0 00-2.09-.94c-1.17 0-2.21.7-2.21 1.99 0 1.02.68 1.42 1.99 1.75.5.13.95.24.95.57 0 .28-.3.43-.7.43-.48 0-1.07-.24-1.41-.7l-.99 1a3 3 0 002.34 1.07c1.18 0 2.24-.63 2.24-1.96 0-1.06-.7-1.42-1.96-1.72-.5-.12-.99-.23-.99-.62 0-.3.31-.45.7-.45zm2.24.29h.86v-1.03h1.44v1.03h1.24v1.23h-1.24v1.29c0 .42.27.63.63.63.18 0 .4-.06.6-.17l.34 1.02c-.43.26-.88.39-1.34.39-.98 0-1.67-.59-1.67-1.6v-1.56h-.86v-1.23zm9.64 0h-.86v1.23h.86v1.56c0 1.02.69 1.6 1.67 1.6.46 0 .91-.13 1.34-.39l-.33-1.02c-.19.1-.4.16-.6.17-.37 0-.64-.2-.64-.63v-1.29h1.24v-1.24h-1.24v-1.02h-1.45v1.03zm3.42-.01h1.44v4.34H22.7v-4.34zm1.63-1.15c0 .46-.38.83-.91.83s-.9-.37-.9-.83c0-.47.37-.84.9-.84s.9.37.9.84zm2.56 4.3c-.57 0-.92-.4-.92-1s.35-1.02.92-1.02c.57 0 .93.41.93 1.01 0 .6-.36 1.01-.93 1.01m0 1.24c1.35 0 2.37-.97 2.37-2.25s-1.02-2.25-2.37-2.25-2.36.97-2.36 2.25 1.01 2.25 2.36 2.25zm2.72-4.4h1.4v.5c.27-.34.6-.6 1.25-.6.88 0 1.6.5 1.6 1.6v2.85h-1.44v-2.57c0-.46-.27-.65-.65-.65-.4 0-.72.24-.72.8v2.42h-1.44v-4.34zm-13.98 3.38a.7.7 0 01-.73-.71l1.71.06c-.27.43-.6.65-.98.65zm-.43-1.6c-.9 0-1.51.42-1.51 1.27 0 .89.68 1.39 1.55 1.39.55 0 1.02-.21 1.45-.58v.49h1.52v-2.68c0-1.15-.87-1.7-2.07-1.7-1.15 0-1.8.48-2.1 1.14l1.39.49c.12-.25.33-.4.67-.4.28 0 .57.18.57.5v.36a4.05 4.05 0 00-1.47-.29z" clip-rule="evenodd"/></g><defs><clipPath id="pi-giftstation-a"><path fill="#fff" d="M0 0h38v24H0z"/></clipPath></defs></svg>