<svg xmlns="http://www.w3.org/2000/svg" width="38" height="24" viewBox="0 0 38 24"><path fill="#CE4549" d="M38 21c0 1.7-1.4 3-3.1 3H3.1C1.4 24 0 22.7 0 21V3c0-1.7 1.4-3 3.1-3h31.8C36.6 0 38 1.3 38 3v18z"/><path fill="#fff" d="M38 14v-2H27c.6-.8 1-1.9 1-3 0-2.8-2.2-5-5-5-1.1 0-2.2.4-3 1V0h-2v12h-3c-1.7 0-3-1.3-3-3s1.3-3 3-3 3 1.3 3 3V5c-.8-.6-1.9-1-3-1-2.8 0-5 2.2-5 5 0 1.1.4 2.2 1 3H0v2h16.2c-2.5 2.6-6.3 3-8.2 3v2c4.4 0 7.9-1.4 10-4v-1 10h2v-9c2.1 2.6 5.6 4 10 4v-2c-1.9 0-5.7-.4-8.2-3H38zm-17.6-2H20V9c0-1.7 1.3-3 3-3s3 1.3 3 3-1.3 3-3 3h-2.6z"/></svg>