<svg xmlns="http://www.w3.org/2000/svg" role="img" viewBox="0 0 38 24" width="38" height="24" aria-labelledby="pi-girosclaro"><title id="pi-girosclaro">Giros Claro</title><path opacity=".07" d="M35 0H3C1.3 0 0 1.3 0 3v18c0 1.7 1.4 3 3 3h32c1.7 0 3-1.3 3-3V3c0-1.7-1.4-3-3-3z"/><path fill="#FFF" d="M35 1c1.1 0 2 .9 2 2v18c0 1.1-.9 2-2 2H3c-1.1 0-2-.9-2-2V3c0-1.1.9-2 2-2h32"/><path d="M10.77 10.54V6.29h1.07v4.25h-1.07zm1.19-5.4a.66.66 0 11-1.319.001.66.66 0 011.319-.001zM14.95 7.45a1.33 1.33 0 00-.24-.19.722.722 0 00-.32-.07c-.08 0-.16.02-.24.04-.08.03-.15.08-.22.14-.07.07-.12.15-.16.24-.04.1-.06.21-.06.35v2.56h-1.06V6.29h1.04v.41c.1-.12.25-.23.44-.32s.4-.13.63-.13c.21 0 .39.03.55.09s.31.16.46.31l-.82.8zM19.43 9.38c-.07.26-.19.49-.38.69-.13.14-.3.26-.52.37-.22.1-.48.15-.8.15s-.58-.05-.79-.15c-.21-.1-.39-.23-.52-.37-.19-.2-.32-.43-.38-.69-.07-.26-.1-.58-.1-.97s.03-.71.1-.96c.07-.26.19-.48.38-.68.13-.14.3-.26.52-.37.21-.1.48-.15.79-.15.32 0 .58.05.8.15s.39.23.52.37c.19.2.32.43.38.68.07.26.1.58.1.96 0 .39-.03.71-.1.97zm-1.01-1.57a.752.752 0 00-.2-.43c-.12-.12-.29-.18-.49-.18s-.36.06-.48.19c-.11.11-.17.25-.2.43-.03.17-.05.37-.05.59s.01.42.04.6.09.32.2.43c.12.13.28.19.48.19.2 0 .37-.06.49-.19.11-.11.17-.25.2-.43s.04-.38.04-.6c.01-.22 0-.42-.03-.6zM23.32 9.82c-.09.17-.22.32-.38.43-.16.11-.35.2-.57.26s-.46.09-.71.09c-.17 0-.33-.01-.49-.02s-.31-.04-.46-.09c-.15-.04-.3-.1-.44-.18a2.34 2.34 0 01-.42-.32l.69-.69c.17.17.37.28.57.33.21.05.4.07.56.07.09 0 .18-.01.27-.02s.17-.04.24-.08.13-.08.17-.13.07-.12.07-.2c0-.11-.03-.2-.1-.26-.07-.07-.18-.11-.35-.13l-.67-.07c-.39-.04-.69-.15-.91-.33s-.33-.47-.33-.86c0-.22.04-.41.13-.58.09-.17.21-.31.36-.42.15-.11.32-.2.52-.26s.41-.09.62-.09c.33 0 .63.04.9.11s.51.2.72.39l-.63.63c-.13-.11-.27-.18-.45-.22-.17-.04-.35-.06-.54-.06-.21 0-.37.04-.46.12-.1.08-.14.18-.14.29 0 .04.01.08.02.12s.03.08.07.11c.03.03.08.06.13.09.06.03.13.04.22.05l.67.07c.42.04.74.17.95.39.21.21.31.5.31.86 0 .22-.05.42-.14.6zM10.12 6.73l.08-.01c0-.02-.01-.03-.01-.05l-.07.06zM7.82 8.26h1.07v.22c0 .15-.02.29-.06.42a.94.94 0 01-.54.59c-.14.06-.29.09-.47.09-.16 0-.3-.03-.42-.08a.972.972 0 01-.3-.22c-.06-.06-.1-.13-.14-.2a1.48 1.48 0 01-.08-.29c-.03-.12-.04-.27-.05-.46-.01-.18-.01-.41-.01-.69s0-.51.01-.69c.01-.18.02-.33.05-.45.02-.12.05-.22.08-.29.04-.08.08-.14.14-.2.08-.09.18-.17.3-.23.12-.05.26-.08.42-.08.29 0 .52.07.69.22.07.06.18.17.3.3l.76-.74c-.09-.11-.17-.2-.26-.27a2.02 2.02 0 00-.6-.37c-.26-.1-.55-.15-.89-.15-.33 0-.62.05-.87.16-.26.11-.49.27-.69.47-.15.15-.26.31-.34.47-.08.17-.14.35-.17.54s-.05.39-.06.61c-.01.22-.01.45-.01.7s0 .48.01.7c.01.22.03.42.06.61s.09.37.17.53c.08.17.19.33.34.47.21.21.44.36.7.47.26.11.55.16.87.16.31 0 .6-.05.88-.15.27-.1.53-.27.76-.51.19-.2.33-.45.42-.72.08-.28.13-.62.13-1.04V7.3h-2.2v.96z"/><path fill-rule="evenodd" clip-rule="evenodd" fill="#C42E21" d="M26.26 8.42h1.39v3.64h-1.39V8.42zM7.25 12.05c1.72 0 3.17 1.16 3.6 2.74H9.32a2.305 2.305 0 00-2.07-1.31 2.3 2.3 0 000 4.6c.91 0 1.7-.53 2.07-1.31h1.53a3.729 3.729 0 01-3.6 2.74 3.73 3.73 0 010-7.46m19.14 1.44c1.67 0 3.02 1.35 3.02 3.02s-1.35 3.02-3.02 3.02-3.02-1.35-3.02-3.02 1.35-3.02 3.02-3.02m0 4.6c.88 0 1.59-.71 1.59-1.59 0-.88-.71-1.59-1.59-1.59-.88 0-1.59.71-1.59 1.59 0 .88.71 1.59 1.59 1.59m-14.78-6.04h1.45v7.47h-1.45v-7.47zm5.79 4.57c-.1.06-.19.11-.29.15-.09.04-.23.07-.4.1l-.34.06c-.32.06-.55.13-.68.21-.23.14-.35.35-.35.64 0 .26.07.44.21.56.14.11.32.17.52.17.32 0 .62-.09.89-.29.27-.19.42-.54.43-1.04v-.56h.01zm-.92-.7c.28-.04.48-.08.6-.13.22-.09.32-.23.32-.43 0-.24-.08-.4-.25-.49-.16-.09-.4-.14-.72-.14-.36 0-.61.09-.76.26-.11.13-.18.31-.21.53H14c.03-.5.17-.92.42-1.24.4-.51 1.08-.76 2.05-.76.63 0 1.19.12 1.68.38.49.25.74.72.74 1.42l-.01 4.2h-1.44v-.59s-.67.59-1.88.59c-.52 0-.84-.1-1.18-.39-.34-.3-.51-.69-.51-1.23 0-.71.27-1.22.82-1.54.3-.17.68-.3 1.26-.37l.53-.07zm4.85 3.6h-1.45v-5.73h1.38v.75c.28-.38.72-.72 1.03-.85.21-.09.41-.13.56-.15.15-.02.39-.02.39-.02v1.46l-.26-.02-.18-.01c-.6 0-1.1.44-1.31.83-.11.22-.17.56-.17 1.02l.01 2.72zm9.51-3.21v-1.4h3.64v1.4h-3.64zm1.7-7.28l.99.99-3.57 3.57-1-1 3.58-3.56z"/></svg>