<svg version="1.0" id="layer1" xmlns="http://www.w3.org/2000/svg" xmlns:xlink="http://www.w3.org/1999/xlink" x="0px" y="0px" width="38px" height="24px" viewBox="0 0 38 24" enable-background="new 0 0 38 24" xml:space="preserve" aria-labelledby="virtual_bank"><title id="virtual_bank">virtual_bank</title><path opacity="7.000000e-02" fill-rule="evenodd" clip-rule="evenodd" enable-background="new" d="M35,0H3C1.3,0,0,1.3,0,3v18 c0,1.7,1.4,3,3,3h32c1.7,0,3-1.3,3-3V3C38,1.3,36.6,0,35,0z"/><path fill-rule="evenodd" clip-rule="evenodd" fill="#FFFFFF" d="M35,1c1.1,0,2,0.9,2,2v18c0,1.1-0.9,2-2,2H3c-1.1,0-2-0.9-2-2V3 c0-1.1,0.9-2,2-2H35z"/><path fill-rule="evenodd" clip-rule="evenodd" fill="#FFFFFF" d="M0,0"/><path fill-rule="evenodd" clip-rule="evenodd" fill="#FFFFFF" d="M0,0"/><g><path fill="#13375E" d="M24.5,7V5.3H10.2v8c0,0.7,0.6,1.2,1.2,1.2h0.4V7H24.5z"/><path fill="#2B618E" d="M13.5,13.3v-0.4v-2.5V9.5V8.6h12.6V7h-1.7H11.8v7.6V15c0,0.7,0.6,1.2,1.2,1.2h0.4v-2.5V13.3z"/><path fill="#79A0A5" d="M26.6,17.9H14.8c-0.7,0-1.2-0.6-1.2-1.2v0.8c0,0.7,0.6,1.2,1.2,1.2h11.8c0.7,0,1.2-0.6,1.2-1.2v-0.8 C27.8,17.3,27.3,17.9,26.6,17.9z"/><polygon fill="#0589D3" points="26.2,8.6 13.5,8.6 13.5,9.5 13.5,10.3 27.8,10.3 27.8,9.5 27.8,8.6 	"/><path fill="#0589D3" d="M13.5,16.2v0.4c0,0.7,0.6,1.2,1.2,1.2h11.8c0.7,0,1.2-0.6,1.2-1.2v-3H13.5V16.2z M25.1,14.5h0.5v1.2h0 c0.1-0.1,0.1-0.2,0.2-0.3l0.6-0.9H27l-0.8,1.1l0.8,1.5h-0.6L25.8,16l-0.2,0.3v0.9h-0.5V14.5z M22.7,14.5h0.5l0.6,1.1 c0.1,0.3,0.3,0.6,0.4,0.9h0c0-0.3,0-0.7,0-1.1v-0.8h0.5v2.6h-0.5l-0.6-1.1c-0.1-0.3-0.3-0.6-0.4-0.9h0c0,0.3,0,0.7,0,1.2v0.8h-0.5 V14.5z M21,14.5h0.6l0.7,2.6h-0.5l-0.2-0.7h-0.7l-0.2,0.7h-0.5L21,14.5z M18.3,14.6c0.1,0,0.4-0.1,0.7-0.1c0.3,0,0.5,0,0.7,0.2 c0.2,0.1,0.3,0.3,0.3,0.5c0,0.2-0.1,0.5-0.4,0.6v0c0.3,0.1,0.5,0.3,0.5,0.6c0,0.2-0.1,0.4-0.2,0.5c-0.2,0.2-0.5,0.2-0.9,0.2 c-0.2,0-0.4,0-0.6,0V14.6z"/><path fill="#0589D3" d="M21.4,15.5c0-0.2-0.1-0.4-0.1-0.5h0c0,0.2-0.1,0.4-0.1,0.5L21,16.1h0.6L21.4,15.5z"/><rect x="13.5" y="12.8" fill="#0589D3" width="14.3" height="0.4"/><path fill="#0589D3" d="M19.5,16.4c0-0.3-0.3-0.4-0.5-0.4h-0.2v0.8c0.1,0,0.1,0,0.2,0C19.3,16.8,19.5,16.7,19.5,16.4z"/><path fill="#0589D3" d="M19.4,15.2c0-0.3-0.2-0.3-0.4-0.3c-0.1,0-0.2,0-0.2,0v0.7H19C19.3,15.6,19.4,15.5,19.4,15.2z"/><rect x="13.5" y="13.3" fill="#FFFFFF" width="14.3" height="0.4"/><path fill="#FFFFFF" d="M13.5,12.8h14.3v-2.5H13.5V12.8z M26.2,10.7H27v1.7h-0.8V10.7z M24.9,10.7h0.8v1.7h-0.8V10.7z M23.6,10.7 h0.8v1.7h-0.8V10.7z M22.4,10.7h0.8v1.7h-0.8V10.7z M21.1,10.7h0.8v1.7h-0.8V10.7z"/><rect x="21.1" y="10.7" fill="#C9CACA" width="0.8" height="1.7"/><rect x="22.4" y="10.7" fill="#C9CACA" width="0.8" height="1.7"/><rect x="23.6" y="10.7" fill="#C9CACA" width="0.8" height="1.7"/><rect x="24.9" y="10.7" fill="#C9CACA" width="0.8" height="1.7"/><rect x="26.2" y="10.7" fill="#C9CACA" width="0.8" height="1.7"/><path fill="#FFFFFF" d="M19.8,16.9c0.2-0.1,0.2-0.3,0.2-0.5c0-0.3-0.2-0.6-0.5-0.6v0c0.3-0.1,0.4-0.3,0.4-0.6 c0-0.2-0.1-0.4-0.3-0.5c-0.2-0.1-0.4-0.2-0.7-0.2c-0.3,0-0.5,0-0.7,0.1v2.6c0.1,0,0.3,0,0.6,0C19.3,17.2,19.6,17.1,19.8,16.9z M18.8,14.9c0,0,0.1,0,0.2,0c0.2,0,0.4,0.1,0.4,0.3c0,0.2-0.2,0.4-0.5,0.4h-0.2V14.9z M18.8,16H19c0.3,0,0.5,0.1,0.5,0.4 c0,0.3-0.2,0.4-0.5,0.4c-0.1,0-0.2,0-0.2,0V16z"/><path fill="#FFFFFF" d="M20.9,16.5h0.7l0.2,0.7h0.5l-0.7-2.6H21l-0.7,2.6h0.5L20.9,16.5z M21.2,15.5c0-0.2,0.1-0.4,0.1-0.5h0 c0,0.2,0.1,0.4,0.1,0.5l0.2,0.6H21L21.2,15.5z"/><path fill="#FFFFFF" d="M23.1,16.4c0-0.5,0-0.8,0-1.2h0c0.1,0.3,0.3,0.6,0.4,0.9l0.6,1.1h0.5v-2.6h-0.5v0.8c0,0.4,0,0.8,0,1.1h0 c-0.1-0.3-0.3-0.6-0.4-0.9l-0.6-1.1h-0.5v2.6h0.5V16.4z"/><path fill="#FFFFFF" d="M25.6,16.3l0.2-0.3l0.6,1.2H27l-0.8-1.5l0.8-1.1h-0.6l-0.6,0.9c-0.1,0.1-0.1,0.2-0.2,0.3h0v-1.2h-0.5v2.6 h0.5V16.3z"/></g></svg>
