<svg xmlns="http://www.w3.org/2000/svg" fill="none" viewBox="0 0 38 24" height="24" width="38" aria-labelledby="pi-gmoatokara" role="img"><title id="pi-gmoatokara">GMO Atokara</title><path fill="#fff" d="M0 0h38v24H0z"/><path fill="url(#pi-gmoatokara-a)" d="M9.798 11.266a.215.215 0 0 1-.215.215H8.499a.215.215 0 1 0 0 .43h.806a.215.215 0 1 1 0 .43h-.45a3.407 3.407 0 0 1-6.8-.345 3.406 3.406 0 0 1 6.294-1.806h.332a.215.215 0 1 1 0 .43h-.429a.215.215 0 1 0 0 .43h1.326a.214.214 0 0 1 .22.21v.006Zm-.529-.646h.145a.215.215 0 0 0 0-.43h-.142a.215.215 0 1 0 0 .43h-.003Zm19.784-.713c.1 0 .181.081.182.181v4.694c0 .1-.082.181-.182.181h-1.124a.181.181 0 0 1-.181-.181v-3.6h-1.234l-.289 3.6a.2.2 0 0 1-.2.181h-1.12a.168.168 0 0 1-.168-.166v-.015l.289-3.6h-.925a.181.181 0 0 1-.181-.181v-.913c0-.1.081-.181.181-.181h1.027l.056-.7a.2.2 0 0 1 .2-.181h1.124c.092 0 .167.074.168.166v.015l-.056.7h2.433Zm2.083-.88c-.1 0-.181.081-.181.181v.913c0 .1.081.181.181.181h4.621c.1 0 .181-.081.181-.181v-.913c0-.1-.081-.181-.181-.181h-4.621Zm-11.206.181c0-.1-.081-.181-.181-.181h-1.124c-.1 0-.181.081-.181.181v5.574c0 .1.081.181.181.181h1.124c.1 0 .181-.081.181-.181V12.82l2.755.1a.176.176 0 0 0 .181-.169v-.919a.188.188 0 0 0-.181-.188l-2.755-.1V9.208Zm-8.432-.181c-.1 0-.18.081-.181.181v.913c0 .1.081.181.181.181h3.836l-.287 1.629a.15.15 0 0 0 .068.155.148.148 0 0 0 .055.022c.009.002.018.002.027.002h1.124a.216.216 0 0 0 .213-.179l.481-2.727a.15.15 0 0 0-.068-.155.152.152 0 0 0-.055-.022c-.009-.002-.018-.002-.027-.002l-5.367.002Zm.812 5.758a.15.15 0 0 0 .068.155.133.133 0 0 0 .055.022c.009.002.018.002.027.002h1.124a.216.216 0 0 0 .213-.179l.557-3.181a.15.15 0 0 0-.068-.155.152.152 0 0 0-.055-.022c-.009-.002-.018-.002-.027-.002H13.08a.216.216 0 0 0-.213.179l-.557 3.181Zm18.826-3.8c-.1 0-.181.081-.181.181v.913c0 .1.081.181.181.181h3.118l-.35 2.519a.158.158 0 0 0 .157.18h1.124a.21.21 0 0 0 .208-.179l.545-3.616a.155.155 0 0 0-.155-.179h-4.647Z"/><defs><linearGradient id="pi-gmoatokara-a" x1="19.014" x2="19.014" y1="8.581" y2="15.433" gradientUnits="userSpaceOnUse"><stop stop-color="#00A0AF"/><stop offset="1" stop-color="#87C8AA"/></linearGradient></defs></svg>