<svg xmlns="http://www.w3.org/2000/svg" width="38" height="24" fill="none" aria-labelledby="pi-gnosis" role="img" viewBox="0 0 38 24"><title id="pi-gnosis">Gnosis</title><path fill="#fff" d="M0 0h38v24H0z"/><path fill="#3E6957" d="M15.64 13.127c.47 0 .927-.157 1.297-.443L13.965 9.71a2.117 2.117 0 0 0 .378 2.972c.373.28.827.437 1.297.437zm8.834-2.12c0-.47-.157-.927-.443-1.297l-2.972 2.972a2.117 2.117 0 0 0 3.415-1.675"/><path fill="#3E6957" d="M25.973 7.773 24.657 9.09a2.995 2.995 0 0 1-4.217 4.217l-1.442 1.443-1.44-1.44a2.995 2.995 0 0 1-4.218-4.22l-.673-.672-.638-.646a8.15 8.15 0 0 0 6.968 12.373 8.15 8.15 0 0 0 8.148-8.148 8.17 8.17 0 0 0-1.173-4.225Z"/><path fill="#3E6957" d="M24.892 6.373a8.146 8.146 0 0 0-11.786-.002q-.303.324-.573.665l6.465 6.467 6.467-6.467a7 7 0 0 0-.573-.663m-5.894-1.461c1.904 0 3.677.737 5.014 2.072l-5.014 5.014-5.014-5.014a7 7 0 0 1 5.014-2.072"/></svg>