<svg width="38" height="24" viewBox="0 0 38 24" fill="none" xmlns="http://www.w3.org/2000/svg" aria-labelledby="pi-gokwik-cash-on-delivery"><title id="pi-gokwik-cash-on-delivery">GoKwik Cash on Delivery</title>&gt;<path d="M37 2.833v18.334C37 22.184 36.147 23 35.105 23H2.895C1.853 23 1 22.184 1 21.167V2.833c0-.77.493-1.43 1.184-1.696.218-.091.464-.137.71-.137h32.211C36.147 1 37 1.825 37 2.833z" fill="#fff"/><path d="M37.5 21.167V2.833C37.5 1.533 36.408.5 35.105.5H2.895a2.35 2.35 0 00-.897.174A2.327 2.327 0 00.5 2.834v18.333c0 1.31 1.094 2.333 2.395 2.333h32.21c1.301 0 2.395-1.023 2.395-2.333z" stroke="#000" stroke-opacity=".7"/><mask id="mask0_1_2" style="mask-type:luminance" maskUnits="userSpaceOnUse" x="11" y="7" width="24" height="14"><path d="M34.158 7.417H11.42V20.25h22.737V7.417z" fill="#fff"/></mask><g mask="url(#mask0_1_2)"><path d="M34.158 7.417H11.42V20.25h22.737V7.417z" fill="#969E67"/><path opacity=".2" d="M15.76 25.906c6.059 0 10.97-5.405 10.97-12.073 0-6.667-4.911-12.072-10.97-12.072-6.059 0-10.97 5.405-10.97 12.072 0 6.668 4.911 12.073 10.97 12.073z" fill="#DBE0D9"/><path opacity=".2" d="M10.587 25.906c6.06 0 10.97-5.405 10.97-12.073 0-6.667-4.91-12.072-10.97-12.072-6.058 0-10.97 5.405-10.97 12.072 0 6.668 4.912 12.073 10.97 12.073z" fill="#DBE0D9"/><path opacity=".2" d="M5.424 25.906c6.06 0 10.97-5.405 10.97-12.073 0-6.667-4.91-12.072-10.97-12.072-6.059 0-10.97 5.405-10.97 12.072 0 6.668 4.911 12.073 10.97 12.073z" fill="#DBE0D9"/></g><path d="M21.236 11.367h3.107M21.236 13.018h3.098M21.245 14.658l2.066 1.641M21.264 14.658c1.137 0 2.066-.733 2.066-1.64 0-.908-.929-1.641-2.066-1.641" stroke="#465635" stroke-width=".99" stroke-linecap="round" stroke-linejoin="round"/><path d="M11.421 10.377c1.715 0 3.098-1.329 3.098-2.96H11.42v2.96zM34.158 10.377c-1.715 0-3.098-1.329-3.098-2.96h3.098v2.96zM11.421 17.29c1.715 0 3.098 1.328 3.098 2.96H11.42v-2.96zM34.158 17.29c-1.715 0-3.098 1.328-3.098 2.96h3.098v-2.96z" fill="#465635"/><path d="M4.818 6.674s1.108 1.32 4.206 1.87c.588.101 1.147.321 1.668.605 0 0 1.932 1.339 2.974 1.348.73 0 1.147-.761 1.147-.761l-2.7-2.255H14.5l-.17-.871a4.718 4.718 0 00-.484-1.32L12.9 3.585a2.096 2.096 0 00-1.857-1.063l-5.087.046-1.128 4.106h-.01z" fill="#FFE6CA"/><path d="M6.125 2.32L4.43 8.04l-3.42-.733V2.842c0-.77.493-1.43 1.185-1.695l3.94 1.173h-.009z" fill="#465635"/></svg>