<svg width="38" height="24" viewBox="0 0 38 24" fill="none" role="img" aria-labelledby="pi-golfbon" version="1.1" xmlns="http://www.w3.org/2000/svg"><title id="pi-golfbon">Golfbon</title><path opacity=".07" d="M35 0H3C1.3 0 0 1.3 0 3v18c0 1.7 1.4 3 3 3h32c1.7 0 3-1.3 3-3V3c0-1.7-1.4-3-3-3z" fill="#000"/><g stroke-width="1.055"><g stroke-width="1.055"><path d="M3 1a2.006 2.006 0 00-1.996 1.891v13.156H37V3c0-1.1-.9-2-2-2H3z" fill="#00aeea"/><path d="M37.016 3.17c-2.934 3.707-7.809 7.236-13.847 9.637-8.83 3.532-17.488 3.675-22.154.815v7.347c0 1.1.9 2 2 2h32.002c1.1 0 2-.9 2-2V3.171z" fill="#a9ca49"/></g><path d="M9.365.997a20.02 20.02 0 00-2.388.853C4.538 2.91 2.627 4.253 1.744 5.455c-.061-1.418.356-2.93 1.18-4.457A2.006 2.006 0 001.01 2.996v10.63c4.667 2.857 13.32 2.715 22.152-.817C29.2 10.372 34.076 6.84 37.01 3.168v-.172c0-.488-.178-.935-.47-1.283-2.652 3.047-6.8 5.955-11.858 7.985C14.75 13.656 4.96 12.842 2.381 7.894c1.45.319 3.994-.104 6.644-1.27 3.713-1.627 6.257-3.995 5.69-5.303a.976.976 0 00-.228-.324H9.365zm20.649 0c-1.913 2.666-5.063 5.304-9.008 7.357a19.546 19.546 0 001.802-.742c3.938-1.774 7.22-4.132 9.475-6.615h-2.269z" fill="#fff"/><g stroke-width="1.055" fill="#fff"><path d="M8.679 17.014v-.342l.045.091.046.091.09.182.366.684h.41v-1.23h-.229v1.025l-.045-.091-.046-.091a.807.807 0 01-.09-.205l-.32-.638h-.41v1.254h.228v-.73zM11.87 17.494l.068.25h.251l-.41-1.253h-.342l-.41 1.254h.25l.069-.251zm-.25-.821l.204.638h-.433zM14.491 16.696v-.206h-.957v.206h.342v1.048h.25v-1.048zM15.928 16.49h.228v1.254h-.228zM18.162 17.744c.25 0 .41-.046.478-.114s.091-.251.091-.547c0-.25-.023-.433-.09-.501-.069-.068-.205-.114-.434-.114-.251 0-.41.046-.478.114-.069.068-.091.274-.091.57 0 .25.022.41.09.478.069.091.205.114.434.114zm-.251-1.003c.022-.045.113-.068.273-.068.16 0 .252.023.274.068.023.046.046.16.046.365s-.023.342-.046.365c-.022.045-.113.068-.274.068-.16 0-.25-.023-.273-.045-.023-.046-.046-.137-.046-.32 0-.25.023-.387.046-.433zM20.44 17.014v-.342l.046.091.046.091.09.182.366.684h.41v-1.23h-.228v1.025l-.046-.091-.045-.091a.807.807 0 01-.091-.205l-.32-.638h-.41v1.254h.228v-.73zM23.108 17.494h.547l.068.25h.251l-.41-1.253h-.365l-.41 1.254h.25zm.274-.821l.204.638h-.433zM25.638 17.516V16.49h-.25v1.254h.82v-.228zM27.85 17.54v-.343h.593v-.183h-.594v-.318h.616v-.206h-.843v1.254h.866v-.205zM9.613 19.978v.433h.775v.114c0 .25-.045.433-.136.5-.091.07-.297.115-.592.115-.32 0-.525-.046-.616-.114-.09-.091-.136-.274-.136-.57v-.684c0-.32.046-.501.136-.592.091-.091.297-.137.638-.137.32 0 .502.023.57.068.068.046.114.182.136.365h.593c0-.387-.069-.661-.229-.775-.16-.114-.501-.182-1.048-.182-.41 0-.707.046-.889.114-.182.068-.297.228-.387.433-.069.182-.114.592-.114 1.277 0 .524.09.866.25 1.048.183.159.525.25 1.05.25.569 0 .956-.067 1.117-.181.159-.137.25-.41.25-.866v-.615H9.615zM12.759 18.52c-.615 0-1.026.09-1.186.273-.16.182-.251.638-.251 1.368 0 .615.09 1.002.251 1.185.16.183.524.274 1.071.274.615 0 1.003-.09 1.163-.274.16-.183.251-.615.251-1.322 0-.638-.091-1.048-.251-1.23-.137-.183-.502-.275-1.048-.275zm.616 2.461c-.069.091-.297.16-.638.16-.388 0-.615-.046-.684-.137-.069-.09-.114-.365-.114-.798 0-.592.023-.934.09-1.048.07-.091.297-.16.685-.16s.592.046.662.137c.069.091.113.388.113.912s-.045.843-.113.934zM14.583 18.542v3.054h2.005v-.524h-1.435v-2.53zM17.592 19.864v-.843h1.436v-.48h-2.03v3.055h.594v-1.253h1.368v-.479zM21.786 21.414c.136-.136.204-.342.204-.661 0-.433-.181-.684-.524-.73.297-.068.456-.296.456-.661 0-.32-.068-.524-.182-.638-.136-.114-.365-.16-.73-.16h-1.504v3.055h1.596c.32-.023.547-.068.685-.205zm-1.71-2.393h.82c.275 0 .411.113.411.364 0 .182-.023.297-.09.343-.07.045-.206.068-.434.068h-.707zm.639 2.097h-.638v-.866h.753c.25 0 .41.022.478.068.068.045.091.16.091.342 0 .183-.023.297-.09.342-.07.046-.183.091-.389.091l-.204.023zM23.792 18.52c-.615 0-1.025.09-1.185.273-.16.182-.252.638-.252 1.368 0 .615.091 1.002.252 1.185.159.182.524.274 1.07.274.616 0 1.003-.09 1.163-.274.16-.182.251-.615.251-1.322 0-.638-.068-1.048-.25-1.23-.137-.183-.48-.275-1.049-.275zm.615 2.461c-.068.091-.296.16-.638.16-.387 0-.592-.046-.684-.137-.068-.09-.114-.365-.114-.798 0-.592.023-.934.091-1.048.069-.091.297-.16.685-.16s.592.046.661.137c.068.091.091.388.091.912.023.524-.023.843-.09.934zM25.616 21.596h.592v-2.575h.023l.09.228.092.228c.09.205.159.365.204.433l.867 1.687h.98v-3.054h-.593v2.553h-.023l-.113-.251-.114-.251c-.091-.205-.182-.365-.251-.502l-.798-1.55h-.98v3.054h.023zM29.332 19.089c.068-.023.113-.068.113-.137a.173.173 0 00-.045-.113c-.023-.023-.091-.046-.182-.046-.068 0-.114 0-.16.023v.547h.092v-.229h.068c.068 0 .114.023.114.091s.022.114.045.137h.091c0-.023-.023-.046-.045-.137 0-.09-.046-.136-.091-.136zm-.114-.046h-.068v-.182h.068c.09 0 .136.046.136.091 0 .069-.068.091-.136.091z"/><path d="M29.24 18.565a.506.506 0 00-.5.501c0 .273.228.501.5.501a.487.487 0 00.48-.501.472.472 0 00-.48-.501zm0 .911c-.228 0-.387-.182-.387-.41s.182-.41.388-.41c.228 0 .387.182.387.41.023.228-.159.41-.387.41z"/></g></g></svg>