<svg xmlns="http://www.w3.org/2000/svg" fill="none" viewBox="0 0 38 24" height="24" width="38" aria-labelledby="pi-google_wallet" role="img"><title id="pi-google_wallet">Google Wallet</title><path fill="#fff" d="M0 0h38v24H0z"/><path fill="#98C74C" d="M23 3c.8 0 1.2.7 1.5 1.4 1.9 4.6 2 9.2.1 13.9l-.3.7c-.4.8-1.3 1.2-2.1.9-.9-.3-1.3-1-1.2-2l.3-.8c.9-2.1 1.3-4.3 1.2-6.6 0-.3 0-.6-.2-.9 0-1.3-.5-2.6-1-3.8-.2-.4-.4-.8-.4-1.2.1-.9.7-1.6 1.5-1.6h.6Z"/><path fill="#CE4549" d="M16.2 10.5c-.1-1.1-.5-2.1-1-3-.6-1-.2-2.1.8-2.5.7-.3 1.4 0 2 .6.4.7.8 1.5 1.1 2.3.5 1.4.6 2.9.6 4.4-.1 1.7-.6 3.3-1.5 4.8-.5.8-1.2 1.2-2 1-.8-.2-1.3-.9-1.3-1.9 0-.3.2-.6.3-.8.9-1.6 1.2-3.2 1-4.9Z"/><path fill="#3086C8" d="M16.2 10.5c.2 1.7-.1 3.4-1 4.9-.1.2-.3.5-.3.8-.2-.8-.3-1.6-.6-2.3-.7-1.6-1.8-2.8-3.3-3.7-.8-.4-1.1-1.1-1-1.7.2-1.2 1.4-1.7 2.4-1.2 1.4.7 2.6 1.7 3.5 2.9l.3.3Z"/><path fill="#FFDB43" d="M19.6 12.2c0-1.5-.1-2.9-.6-4.4-.3-.8-.7-1.6-1.1-2.3.2-.1.3.1.4.2C19.7 6.7 21 8 22 9.4c0 .1.1.1.2.2.2.3.1.6.2.9.1 2.3-.2 4.5-1.2 6.6l-.3.8c-.1-1.3-.1-2.5-.5-3.7-.2-.7-.4-1.4-.8-2Z"/></svg>