<?xml version="1.0" encoding="UTF-8"?>
<svg width="67px" height="38px" viewBox="0 0 67 38" version="1.1" xmlns="http://www.w3.org/2000/svg" xmlns:xlink="http://www.w3.org/1999/xlink">
    <!-- Generator: Sketch 46.2 (44496) - http://www.bohemiancoding.com/sketch -->
    <title>Acceptance Mark</title>
    <desc>Created with Sketch.</desc>
    <defs></defs>
    <g id="GPay-Light-themed-buttons" stroke="none" stroke-width="1" fill="none" fill-rule="evenodd">
        <g id="GPAY---SVGs" transform="translate(-172.000000, -289.000000)">
            <g id="Acceptance-Mark" transform="translate(173.000000, 290.000000)">
                <g id="State" stroke="#BDC1C6" fill="#FFFFFF">
                    <path d="M4,0 L61,0 L61,0 C63.209139,-4.33003142e-15 65,1.790861 65,4 L65,32 L65,32 C65,34.209139 63.209139,36 61,36 L4,36 L4,36 C1.790861,36 2.705415e-16,34.209139 0,32 L0,4 L0,4 C-2.705415e-16,1.790861 1.790861,4.05812251e-16 4,0 Z" id="bg"></path>
                </g>
                <g id="Gpay-logo-18px-h" transform="translate(14.000000, 11.000000)">
                    <g id="GPay" transform="translate(0.232421, 0.232421)">
                        <g id="Pay" transform="translate(16.476235, 0.772324)" fill="#5F6368">
                            <path d="M1.54277551,1.44756183 L1.54277551,5.26664244 L3.89797726,5.26664244 C4.45901007,5.26664244 4.92295449,5.07808897 5.28998529,4.70098204 C5.66662882,4.32474804 5.85538752,3.87606063 5.85538752,3.35666567 C5.85538752,2.8477459 5.66662882,2.40429608 5.28998529,2.02718915 C4.92295449,1.64047996 4.45901007,1.44668889 3.89797726,1.44668889 L1.54277551,1.44668889 L1.54277551,1.44756183 Z M1.54277551,6.61095881 L1.54277551,11.0410923 L0.135824073,11.0410923 L0.135824073,0.103245451 L3.86730397,0.103245451 C4.81555428,0.103245451 5.62040041,0.419247092 6.28359013,1.05037744 C6.95656733,1.68150779 7.29292485,2.45056151 7.29292485,3.35666567 C7.29292485,4.28372021 6.95647995,5.05801152 6.28359013,5.67866668 C5.63079962,6.30019477 4.8250796,6.61008588 3.86730397,6.61008588 L1.54277551,6.61008588 L1.54277551,6.61095881 Z" id="Fill-1"></path>
                            <path d="M8.71471482,8.74963523 C8.71471482,9.11626697 8.87026597,9.42179342 9.18145567,9.66621458 C9.49247058,9.91063573 9.85687974,10.0328463 10.2746831,10.0328463 C10.8662145,10.0328463 11.3931658,9.81365291 11.8571977,9.37640092 C12.3213169,8.93818869 12.5528084,8.42403133 12.5528084,7.83392881 C12.1141192,7.48737453 11.5024012,7.31453385 10.7176544,7.31453385 C10.1462224,7.31453385 9.6699562,7.45245722 9.28806938,7.72743102 C8.90609517,8.00231753 8.71471482,8.34197565 8.71471482,8.74963523 M10.5350129,3.31126444 C11.5749335,3.31126444 12.3955095,3.58885704 12.9977022,4.14404224 C13.5989336,4.69922745 13.8994619,5.46042477 13.8994619,6.42763422 L13.8994619,11.0410836 L12.5537697,11.0410836 L12.5537697,10.0022937 L12.4925105,10.0022937 C11.9113784,10.8576804 11.1362443,11.2855048 10.1680694,11.2855048 C9.34225012,11.2855048 8.65100876,11.0410836 8.09600574,10.5522413 C7.54030362,10.063399 7.26240886,9.45234606 7.26240886,8.71908258 C7.26240886,7.94479127 7.55507224,7.32928641 8.14144765,6.87108403 C8.72782306,6.41279436 9.51003563,6.18321306 10.4887845,6.18321306 C11.3241291,6.18321306 12.0127488,6.33597628 12.5528084,6.64150273 L12.5528084,6.32026349 C12.5528084,5.83142117 12.3588064,5.41677814 11.9717637,5.07546145 C11.5836723,4.73414476 11.131001,4.56392288 10.6110407,4.56392288 C9.82541996,4.56392288 9.20417662,4.89476437 8.74538811,5.5573203 L7.5061348,4.77779139 C8.18951121,3.80010675 9.19884594,3.31126444 10.5350129,3.31126444" id="Fill-3"></path>
                            <g id="Group-7" transform="translate(14.109666, 3.516395)">
                                <polygon id="Fill-5" points="7.51231669 0.0392907013 2.81703137 10.8243744 1.36455064 10.8243744 3.10803437 7.05068624 0.0187710042 0.0392907013 1.54806604 0.0392907013 3.7808368 5.4165562 3.8114227 5.4165562 5.98302166 0.0392907013"></polygon>
                            </g>
                        </g>
                        <g id="G">
                            <path d="M12.3339917,6.42828522 C12.3339917,5.98570833 12.2964147,5.55884424 12.2256302,5.15031173 L6.29196547,5.15031173 L6.29196547,7.57095414 L9.69049599,7.57095414 C9.54455755,8.35999801 9.10324669,9.03137056 8.43385241,9.48093091 L8.43385241,11.0530827 L10.4621346,11.0530827 C11.6497414,9.9584251 12.3339917,8.34088079 12.3339917,6.42828522" id="Fill-8" fill="#4285F4"></path>
                            <path d="M6.29195673,12.570231 C7.98991117,12.570231 9.41958356,12.0133 10.4621258,11.053074 L8.43384367,9.48092218 C7.86931533,9.86064791 7.14224477,10.0823728 6.29195673,10.0823728 C4.65080468,10.0823728 3.25783537,8.97724 2.75972213,7.4880168 L0.670268168,7.4880168 L0.670268168,9.10730698 C1.70581938,11.1604447 3.83372419,12.570231 6.29195673,12.570231" id="Fill-10" fill="#34A853"></path>
                            <path d="M2.75973087,7.48799934 C2.63214397,7.10827361 2.56223334,6.70323283 2.56223334,6.28509806 C2.56223334,5.8669633 2.63214397,5.46192252 2.75973087,5.08219679 L2.75973087,3.46290661 L0.670276907,3.46290661 C0.242074296,4.3113972 8.73882879e-06,5.26987732 8.73882879e-06,6.28509806 C8.73882879e-06,7.30031881 0.242074296,8.25888622 0.670276907,9.10728952 L2.75973087,7.48799934 Z" id="Fill-12" fill="#FABB05"></path>
                            <path d="M6.29195673,2.48785823 C7.21914647,2.48785823 8.05020908,2.80647867 8.70562124,3.43062556 L8.70562124,3.43149849 L10.5014506,1.63762177 C9.41084473,0.623273956 7.98903728,0 6.29195673,0 C3.83372419,0 1.70581938,1.40978633 0.670268168,3.46292407 L2.75972213,5.08221425 C3.25783537,3.59299104 4.65080468,2.48785823 6.29195673,2.48785823" id="Fill-14" fill="#E94235"></path>
                        </g>
                    </g>
                    <polygon id="Shape" points="0 1 36.6980609 1 36.6980609 17 0 17"></polygon>
                </g>
            </g>
        </g>
    </g>
</svg>
