<svg xmlns="http://www.w3.org/2000/svg" width="38" height="24" fill="none" aria-labelledby="pi-google_pay" role="img" viewBox="0 0 38 24"><title id="pi-google_pay">Google Pay</title><path fill="#fff" d="M0 0h38v24H0z"/><path fill="#5F6368" d="M18.093 11.976v3.2h-1.018v-7.9h2.691a2.45 2.45 0 0 1 1.747.692 2.28 2.28 0 0 1 .11 3.224l-.11.116c-.47.447-1.098.69-1.747.674zm0-3.732v2.788h1.698a1.35 1.35 0 0 0 1.37-1.117 1.39 1.39 0 0 0-1.37-1.641zm6.484 1.348c.65-.03 1.286.188 1.778.613.445.43.682 1.03.65 1.649v3.334h-.969v-.766h-.049a1.93 1.93 0 0 1-1.673.931 2.17 2.17 0 0 1-1.496-.533 1.67 1.67 0 0 1-.613-1.324 1.6 1.6 0 0 1 .613-1.336 2.75 2.75 0 0 1 1.698-.515c.517-.02 1.03.093 1.49.331v-.208a1.13 1.13 0 0 0-.417-.901 1.42 1.42 0 0 0-.98-.368 1.55 1.55 0 0 0-1.319.717l-.895-.564a2.49 2.49 0 0 1 2.182-1.06M23.29 13.52a.79.79 0 0 0 .337.662c.223.176.5.269.785.263.429-.001.84-.17 1.146-.472.305-.286.478-.685.478-1.103a2.05 2.05 0 0 0-1.324-.374 1.7 1.7 0 0 0-1.03.294.88.88 0 0 0-.392.73m9.286-3.75-3.39 7.79h-1.048l1.281-2.728-2.224-5.062h1.103l1.612 3.885 1.569-3.885z"/><path fill="#4285F4" d="M13.986 11.284q0-.463-.073-.92h-4.29v1.747h2.451a2.1 2.1 0 0 1-.9 1.373v1.134h1.464a4.43 4.43 0 0 0 1.348-3.334"/><path fill="#34A853" d="M9.629 15.721a4.35 4.35 0 0 0 3.01-1.097l-1.466-1.14a2.753 2.753 0 0 1-4.094-1.44H5.577v1.17a4.53 4.53 0 0 0 4.052 2.507"/><path fill="#FBBC04" d="M7.079 12.05a2.7 2.7 0 0 1 0-1.735v-1.17H5.577a4.5 4.5 0 0 0 0 4.075z"/><path fill="#EA4335" d="M9.629 8.44a2.45 2.45 0 0 1 1.74.68l1.3-1.293a4.37 4.37 0 0 0-3.065-1.183 4.53 4.53 0 0 0-4.027 2.5l1.502 1.171a2.715 2.715 0 0 1 2.55-1.875"/></svg>