<svg version="1.0" xmlns="http://www.w3.org/2000/svg" width="38" height="24" viewBox="0 0 38 24" preserveAspectRatio="xMidYMid meet" role="img" aria-labelledby="pi-grabpay"><title id="pi-grabpay">GrabPay</title><g fill="#000" stroke="none"><path d="M19 40.9C4.5 45.3-1.6 59 5 72c5.2 10.3 20.5 14.2 30.2 7.7 3.3-2.3 3.3-2.3 3.6-11.5l.3-9.2H31c-6.3 0-8 .3-8 1.5 0 1.1 1.6 1.5 6.8 1.7l6.7.3.3 4.9c.5 7.5-.3 9.2-4.8 11-14.3 5.7-28.4-4.3-26.7-19.1.5-5.1 2.6-8.3 8.1-12.7 3.6-2.9 4.3-3.1 12.7-3.1 5.3 0 8.8-.4 8.6-1-.7-2.1-10.6-3.1-15.7-1.6zM146 60.9V82h7.9l.3-7.8.3-7.7 7-.5c3.9-.3 8.1-1.1 9.3-1.8 4.7-2.7 6.6-11.6 3.7-17.2-2.5-4.8-6.7-6.3-18.2-6.8l-10.3-.4v21.1zm20-12.4c2.6 2.4 2.6 7.6 0 10-1.1 1-4.2 2-7 2.3l-5 .5v-7c0-3.8.3-7.3.8-7.7 1.2-1.3 9.2.1 11.2 1.9z"/><path d="M16 48.2c-4.8 3.3-7.2 7-7.7 11.9-.6 5.8 2.8 12.5 7.7 15.1 3.8 2 10.4 2.4 14.4.8 2.3-.8 2.6-1.5 2.6-6v-5h-5c-3.8 0-5 .4-5 1.5s1.1 1.5 4.1 1.5c3.8 0 4 .1 3.7 2.7-.3 2.6-.7 2.8-5.5 3.1-9.2.5-14.3-4.1-14.3-12.9 0-3.5.6-4.8 3.9-8 2.5-2.6 4.9-4 6.7-4 4.9-.3 9.8.3 11.7 1.2 1.3.7 1.7.6 1.7-.6 0-4-13.7-4.9-19-1.3zM72.9 49.2c-5.2 2.9-7.9 8.2-7.9 15.2 0 6.7 1.7 10.5 6.2 14 5.2 3.9 14.8 4.7 14.8 1.3 0-.8-1.5-1.1-4.2-.9-4.9.3-9.6-2.1-12.4-6.3-2.3-3.6-2.3-12.1 0-16.1 5-8.4 18.1-8.6 23-.4 1.2 2.2 1.6 5.5 1.6 14.4 0 9.6.3 11.6 1.5 11.6S97 80 97 70.1c0-10.6-.2-12.1-2.3-15.2-5.2-7.8-14.3-10.1-21.8-5.7zM110.7 50.1c-5.4 3.5-10.7 9.8-10.7 12.5.1 1.4 1.4.4 4.8-3.4 6.5-7.3 9.7-9.2 15.6-9.2 4.3 0 5.3.4 8.7 3.9 3.6 3.6 3.9 4.2 3.9 9.7 0 9.5-5.1 15.4-13.3 15.4-3.9 0-9.6-3.5-11.3-6.8-1.2-2.4-2.4-1.9-2.4.9 0 2.5 6.4 7.7 10.6 8.5 7 1.3 15.4-3 18-9.2 2.2-5.3 1.8-13.5-.9-17.5-5.7-8.4-14.7-10.3-23-4.8zM183.3 51c-1.7.7-2.3 1.8-2.3 4 0 2.8.2 3 2.2 1.9 3.6-1.9 11.8-1.6 13.4.6 2.8 3.8 1.8 5-5.3 6.2-8.9 1.6-11.7 3.7-12.1 9.4-.2 3.7.1 4.9 2.3 6.9 3.2 3 11.3 3.4 14.3.7 2.3-2.1 3.2-2.2 3.2-.2 0 1 1.1 1.5 3.5 1.5h3.5v-9.8c-.1-18.3-2-21.5-13.3-21.9-3.9-.2-8.2.2-9.4.7zM214.1 64.7c3.2 8.1 5.9 15.4 5.9 16.3 0 2.4-2.9 6-5.6 7-1.8.7-2.4 1.7-2.4 4 0 2.8.2 3 2.8 2.4 8.1-1.9 9.7-4 15.8-19.9 2.5-6.6 5.6-14.8 6.9-18.3l2.4-6.2h-7.4l-3.4 9.8c-1.9 5.3-3.7 10.1-4.1 10.5-.7.8-6.2-12.1-7.6-17.9-.5-2.1-1.2-2.4-4.9-2.4h-4.3l5.9 14.7z"/><path d="M74.1 55.6c-2.8 2.3-3.1 3.1-3.1 8.6 0 5.3.3 6.3 2.9 8.9 2.9 2.9 6.8 3.7 10.5 2.3 3.3-1.3 1.6-2.9-2.7-2.6-5.2.4-7.6-1.8-8.4-7.7-.5-3.5-.2-4.4 2.5-7.1 3.7-3.6 6.2-3.8 9.9-.6 2.7 2.3 2.8 2.8 3.1 13.5.2 6.1.8 11.1 1.3 11.1s.9-5.1.9-11.4c0-10.9-.1-11.6-2.6-14.5-3.5-4.2-9.7-4.4-14.3-.5zM107.8 61c-5.1 5.2-7.8 8.8-7.8 10.3.1 2 .3 1.9 3.2-1.3 13.1-14.9 15.7-16.6 20.4-13.6 7 4.7 4.5 16.6-3.6 16.6-3.3 0-4.3-.8-6.8-4.9-1.8-2.9-2.2-3.2-2.8-1.7-1.8 4.7 5.6 10.4 11.9 9.2 5.2-1 7.7-4.6 7.7-11.3 0-4.7-.4-5.9-2.9-8.4-2.4-2.3-3.8-2.9-7.3-2.9-4.1 0-4.7.4-12 8z"/></g></svg>