<svg xmlns="http://www.w3.org/2000/svg" role="img" viewBox="0 0 400 250.769" width="38" height="24" aria-labelledby="pi-grabpay"><title id="pi-grabpay">GrabPay</title><path d="M174.103 79.257c-.312.125-.679.52-.815.878-.288.758-.341 26.921-.055 27.355.577.875 1.34.659 2.712-.77l1.359-1.414V92.653c0-12.319-.013-12.666-.501-13.155-.534-.533-1.711-.639-2.7-.241m9.301-.091c-1.19.244-1.205.36-1.289 9.963-.11 12.536-.096 12.596 2.527 11.436 1.906-.843 1.808-.294 1.887-10.509.088-11.326.028-11.537-3.125-10.89m-7.103 13.406v12.071l-.878.828-.878.828V80.502h1.756v12.07m9.279-3.081c0 9.749.018 9.622-1.379 9.859-.493.084-.503-.071-.568-9.067-.074-10.307-.131-9.781 1.061-9.781h.886v8.989M47.147 91.437c-1.137.137-3.815.849-4.138 1.101-.138.107-.758.276-1.379.375-1.491.238-8.558 3.51-9.78 4.529-.207.173-.772.482-1.254.689-1.216.519-5.851 5.176-6.554 6.584-.315.632-.959 1.598-1.429 2.148-1.057 1.234-3.242 5.499-3.444 6.719-.081.496-.359 1.415-.616 2.043-1.336 3.258-1.34 13.901-.008 16.513.283.555.515 1.375.515 1.824 0 .745 1.297 3.799 2.537 5.975.276.483.674 1.273.885 1.756.212.483.699 1.216 1.083 1.63.873.941 2.437 3.24 2.64 3.881.084.265.401.558.704.651.75.23 3.302 2.083 4.732 3.436.643.609 1.546 1.256 2.006 1.439.46.182 1.005.462 1.212.622.509.395 2.982 1.382 3.462 1.382.212 0 1.072.273 1.91.607 3.855 1.535 16.08 1.608 19.454.116.621-.275 1.58-.561 2.132-.637.553-.076 2.189-.743 3.638-1.483 1.448-.739 3.197-1.63 3.887-1.98.689-.35 2.1-1.482 3.134-2.517l1.881-1.881v-12.638c0-12.076-.021-12.661-.477-13.166-.473-.523-.6-.528-12.226-.528-13.372 0-12.989-.06-12.66 1.971.254 1.566.08 1.54 10.302 1.544l9.293.004.826.728.826.728-.073 9.864-.074 9.863-.627.912c-.604.879-2.699 2.355-4.009 2.825-.347.125-1.023.492-1.504.816-.48.323-1.013.588-1.183.588-.171 0-.681.208-1.133.461-.453.253-1.496.539-2.318.635-1.756.205-4.077.843-4.283 1.178-.308.498-9.223.281-10.432-.253a14.975 14.975 0 00-2.352-.762c-.687-.15-1.717-.49-2.288-.754-.571-.265-1.333-.555-1.693-.646-.36-.09-.654-.247-.654-.349 0-.102-.48-.397-1.066-.656-2.124-.937-3.742-2.177-6.711-5.146-3.61-3.61-4.115-4.359-6.578-9.758-1.634-3.583-1.899-15.456-.417-18.73.261-.578.631-1.65.823-2.383.441-1.69 1.24-3.226 2.04-3.921.343-.298.623-.662.623-.807 0-1.435 6.752-8.259 8.177-8.264.152-.001.581-.283.952-.628 1.125-1.042 2.492-1.881 3.067-1.881.298 0 1.35-.329 2.338-.731.987-.402 2.382-.868 3.098-1.036.716-.168 1.747-.516 2.29-.774 1.401-.665 10.875-.705 12.185-.052.459.229 1.746.552 2.86.717 1.113.165 2.554.541 3.201.837.648.295 1.331.537 1.518.537.186 0 .476.137.643.304.907.907 1.799-1.914 1.049-3.316-.35-.654-3.083-1.916-5.169-2.387-1.683-.38-13.214-.73-15.394-.468m193.185.01c-1.267.277-1.21-1.217-1.21 31.717 0 29.22.023 30.822.448 31.247.465.466 8.872.838 10.38.459 1.259-.316 1.335-.993 1.335-11.885v-10.01l.817-.623c.806-.615.898-.625 7.085-.764 5.861-.132 6.83-.23 8.775-.89.414-.14 1.505-.364 2.424-.497 5.498-.797 11.499-6.199 13.282-11.956.629-2.033.688-11.088.085-13.119-1.641-5.526-8.944-12.336-13.228-12.336-.458 0-.939-.104-1.07-.231-.954-.923-25.666-1.867-29.123-1.112M63.671 93.605c.451.38 1.262.761 1.803.847.541.087.984.264.984.394s.174.411.387.624c.213.213.342.516.288.672-.135.384-.999.203-1.265-.265-.381-.669-1.843-1.081-3.84-1.081-1.772 0-1.999-.059-2.657-.689l-.72-.69-5.795-.08c-6.06-.084-7.966.18-7.966 1.104 0 .259-.34.355-1.262.355-1.358 0-2.95.536-3.413 1.148-.359.475-1.842.731-2.772.477l-.703-.191 1.003-.304c1.894-.572 2.132-.687 2.132-1.034 0-.25.36-.347 1.3-.347 1.268 0 3.464-.797 3.464-1.257 0-.412.982-.454 9.545-.414l8.667.041.82.69m203.819-.498c.292.171.842.529 1.222.798.435.307 1.257.528 2.218.598 1.212.088 1.621.229 1.977.682.267.339.855.639 1.45.74 1.461.247 6.772 5.542 6.772 6.752 0 .334.31.976.689 1.427l.69.82v13.35l-.69.819c-.379.451-.689 1.093-.689 1.427 0 .655-.574 1.351-3.737 4.536-1.664 1.677-2.214 2.078-3.034 2.217-.601.101-1.184.4-1.457.747-.403.513-.711.589-2.708.668-1.749.069-2.413.202-2.965.591-1.605 1.132-1.519 1.121-8.632 1.125l-6.859.004-.725.776-.725.776-.065 10.697-.065 10.697h-9.53l-.065-29.968c-.035-16.483-.01-30.11.055-30.283.173-.452 26.097-.449 26.873.004M34.696 98.404a3.547 3.547 0 01-1.788 1.134c-.844.224-1.617.819-3.621 2.787-1.402 1.377-2.612 2.503-2.689 2.504-.18.001-1.018 2.03-1.018 2.465 0 .181-.456.739-1.014 1.239-1.474 1.323-1.995 2.293-2 3.722-.004.94-.178 1.481-.752 2.328l-.748 1.104v9.06c0 9.621-.025 9.397 1.181 10.631.178.183.324.589.324.903 0 .315.338 1.039.752 1.61.414.571.752 1.152.752 1.29 0 .43.861 2.261 1.063 2.261.279 0 1.194.96 1.194 1.254 0 .138.098.251.217.251.12 0 1.728 1.505 3.574 3.345 2.931 2.921 3.486 3.366 4.374 3.506.608.096 1.256.414 1.608.789.324.345.995.7 1.49.787.495.088 1.201.441 1.569.784.531.495 1.021.652 2.365.76 1.421.114 1.786.241 2.256.788l.56.651h11.296l.706-.663c.628-.589.956-.676 2.963-.784 2.226-.119 3.631-.541 3.635-1.091.001-.155.461-.355 1.022-.445.59-.094 1.287-.43 1.652-.795.348-.347.989-.699 1.425-.782 1.124-.212 1.652-.526 2.627-1.557 1.656-1.751 1.552-.888 1.552-12.875v-10.981l-.777-.813-.776-.812-9.882-.071c-6.145-.045-9.882-.163-9.882-.314 0-.152 4.322-.242 11.661-.242h11.662v24.025l-.903.903c-.497.496-.976.903-1.066.903-.089.001-.389.339-.664.752-.276.413-.643.751-.815.751-.173.001-.314.156-.314.345 0 .208-.401.408-1.014.506-1.172.188-1.995.638-1.995 1.091 0 .174-.23.316-.51.316-.735 0-2.322.699-2.687 1.183-.213.284-.81.449-1.881.521-1.263.086-1.705.235-2.274.769l-.706.662H41.586l-.502-.619c-.415-.513-.802-.647-2.246-.78-1.425-.13-1.874-.283-2.447-.832-.386-.369-1.123-.74-1.637-.824-.629-.102-1.11-.387-1.466-.868-.291-.394-.678-.717-.859-.717-.181 0-.329-.101-.329-.225 0-.603-2.664-2.784-3.4-2.784-.686 0-1.866-.832-1.866-1.316 0-.89-.738-2.199-1.845-3.275-.736-.715-1.22-1.456-1.407-2.15-.157-.583-.499-1.274-.761-1.535-.261-.261-.6-.938-.752-1.505-.153-.566-.523-1.275-.824-1.576-.409-.409-.586-.973-.702-2.245-.125-1.365-.274-1.801-.757-2.22l-.601-.521v-13.96l.601-.521c.487-.422.632-.854.761-2.272.123-1.342.289-1.87.707-2.26.3-.279.666-.955.813-1.5.163-.608.69-1.41 1.357-2.068 1.207-1.192 1.654-1.917 1.654-2.679 0-.746 5.865-6.547 6.619-6.547.319 0 1.02-.331 1.557-.736.538-.404 1.243-.743 1.567-.752l.589-.017-.714.849m14.458 1.317c-.345.066-.983.283-1.418.482-.434.199-1.256.361-1.826.361-1.384 0-3.632.784-6.259 2.181a245.287 245.287 0 01-3.037 1.594c-1.309.663-5.601 5.004-6.339 6.411-1.48 2.819-2.685 5.344-3.047 6.384-.561 1.611-.56 11.894.002 13.524.41 1.192 1.436 3.546 1.913 4.389.156.276.594 1.122.972 1.881.628 1.26 1.366 2.064 6.344 6.912 1.411 1.374 5.161 3.022 7.428 3.265.759.081 1.831.322 2.383.534 1.378.531 6.145.531 7.523 0 .552-.212 1.962-.448 3.135-.524 3.598-.231 7.676-2.111 8.23-3.792.645-1.961.31-13.004-.414-13.632-1.096-.95-14.31-1.174-15.225-.258-.616.616-.764 2.341-.267 3.101l.415.632h4.764c4.727 0 4.773.005 5.762.66l.998.661v3.081c0 3.101-.107 3.874-.539 3.874-.129 0-.481.23-.783.511-.302.281-.833.58-1.181.663-.347.083-1.058.365-1.579.626-.834.418-1.566.476-6.144.49l-5.197.016-1.853-.777c-1.019-.427-2.07-.777-2.336-.777-.85 0-4.994-3.195-5.806-4.476-.118-.187-.438-.525-.71-.753-1.13-.943-3.715-5.839-3.715-7.037 0-.149-.232-.942-.516-1.762-2.244-6.485 2.015-17.081 8.105-20.162.771-.39 1.458-.857 1.527-1.038.696-1.812 7.706-3.23 14.926-3.02l5.358.156 3.143 1.51 3.143 1.51.519-.519c.583-.583.657-2.554.12-3.201-.828-.997-5.635-2.838-7.413-2.838-.605 0-1.461-.191-1.903-.424-.798-.421-7.578-.73-9.203-.419m202.234.078c-1.071.445-1.126 1.084-1.051 12.238.065 9.766.105 10.613.518 11.026.532.532 15.573.704 15.925.183.346-.513 1.425-1.114 1.999-1.114 1.346 0 3.837-2.985 4.072-4.878.153-1.231.369-1.86.795-2.314.54-.574.586-.838.586-3.341s-.046-2.768-.586-3.342c-.429-.457-.642-1.081-.796-2.34-.234-1.901-2.716-4.851-4.082-4.851-.565 0-1.645-.606-1.987-1.114-.222-.33-14.623-.472-15.393-.153m-193.931 1.455c.732.616 1.073.704 3.2.826 1.551.089 2.417.244 2.483.445.136.408 1.226.944 2.324 1.142.615.111 1.019.383 1.317.887.56.949.546 1.026-.198 1.026-.355 0-.627-.145-.627-.334 0-.37-.65-.739-2.069-1.173-.517-.158-.94-.364-.94-.458 0-.743-1.753-.919-9.175-.919h-7.545l-.995.69c-.558.386-1.334.689-1.766.689-1.705 0-2.416.322-3.697 1.675-.975 1.03-1.501 1.382-2.242 1.502-1.535.248-5.672 4.441-5.676 5.752-.001.29-.279.827-.617 1.192-.584.63-.689.977-.987 3.243-.068.523-.413 1.293-.766 1.712-1.007 1.197-.993 8.291.018 9.493.445.529.694 1.168.767 1.963.169 1.842.304 2.282.872 2.851.291.291.633.989.759 1.551.175.778.645 1.434 1.972 2.753.958.953 1.742 1.832 1.742 1.954 0 .122.113.221.251.221.325 0 1.254.929 1.254 1.254 0 .138.104.251.23.251.127 0 .684.436 1.239.969 1.002.963 1.865 1.288 3.418 1.288.525 0 1.147.266 1.759.752l.946.753h6.009c5.966 0 7.465-.206 7.465-1.025 0-.09.53-.312 1.178-.494.712-.199 1.506-.667 2.006-1.182l.828-.853-.003-3.678c-.004-4.369-.03-4.485-1.184-5.37l-.9-.69h-5.1c-4.934 0-5.101-.016-5.101-.501 0-1.402.487-1.505 7.108-1.505 7.85 0 7.061-.785 7.061 7.022 0 6.681-.04 6.842-1.808 7.174-.473.088-1.212.457-1.642.82-.732.616-.984.666-3.974.783-3.018.119-3.222.16-3.736.753-.825.951-4.939.955-5.763.005-.487-.562-.776-.634-3.011-.752-2.128-.113-2.557-.211-3.083-.706-.336-.316-1.032-.691-1.547-.833-1.235-.341-8.163-7.187-8.163-8.066 0-.544-.489-1.434-1.171-2.133-.173-.177-.386-.703-.473-1.17-.088-.466-.431-1.103-.762-1.415l-.603-.566v-13.869l.599-.563c.329-.31.664-.89.744-1.289.08-.399.487-1.198.906-1.775.418-.578.76-1.293.76-1.591 0-.918 5.519-6.397 6.625-6.576.492-.08 1.195-.423 1.56-.762.366-.339 1.03-.675 1.476-.748.447-.072 1.128-.424 1.515-.783.624-.579.971-.668 3.129-.798 2.159-.13 2.516-.221 3.234-.825 1.257-1.058 7.311-1.05 8.57.011m205.866-.353c4.618.619 7.599 2.704 8.395 5.873.234.93.584 2.061.78 2.514.459 1.064.455 3.569-.006 4.622-.199.453-.592 1.626-.875 2.606-1.273 4.425-4.368 5.873-12.952 6.06l-5.535.12-.922-.81-.923-.809v-18.972l.935-.77.935-.771 3.893.009c2.141.005 4.965.153 6.275.328m-160.752.577c-.759.203-2.043.476-2.854.607-2.602.418-6.506 2.063-7.93 3.342-.709.637-1.674 1.299-2.963 2.034-.484.276-1.003.724-1.153.997-.638 1.16-2.134 3.313-2.527 3.64-.579.48-2.559 4.683-2.879 6.11a16.764 16.764 0 01-.697 2.225c-.403.983-.439 2.419-.439 17.332v16.26l.592.48c.758.614 2.07.614 2.828 0l.592-.479.163-16.261c.214-21.236.037-20.462 6.013-26.398 3.351-3.329 3.917-3.73 6.238-4.432 1.172-.354 2.387-.807 2.698-1.007.449-.288 1.659-.362 5.819-.359l5.252.004 1.653.815 1.653.815 1.18-.623c2.846-1.503.597-3.833-4.337-4.493-.965-.129-2.372-.412-3.126-.628-1.678-.481-3.938-.474-5.776.019m33.228-.259c-10.349 2.622-15.569 6.295-19.145 13.475-.973 1.953-1.892 4.101-2.041 4.775-.15.673-.494 1.883-.766 2.688-.809 2.401-.726 10.35.134 12.914.345 1.027.627 2.107.627 2.399 0 .869 2.222 5.234 3.27 6.424.533.607 1.205 1.588 1.492 2.181.509 1.051 2.985 3.643 3.481 3.643.335 0 3.293 2.054 3.293 2.287 0 .214 2.597 1.224 3.147 1.224.203 0 .848.212 1.433.472 2.555 1.134 2.709 1.158 7.332 1.147 6.31-.015 7.731-.735 7.402-3.751-.113-1.032-2.169-1.092-3.908-.115-1.165.654-4.751.698-5.951.073-.442-.229-1.423-.558-2.182-.73-1.591-.36-3.647-1.206-5.267-2.168-.62-.368-1.545-.844-2.054-1.056-1.223-.511-3.399-2.712-3.956-4.003-.245-.566-.684-1.243-.977-1.505-.853-.763-1.717-2.428-2.164-4.173-.228-.891-.604-1.903-.834-2.248-.365-.547-.417-1.473-.407-7.272l.011-6.646.677-1.252c.372-.689.676-1.405.676-1.591 0-.187.213-.639.473-1.006.26-.366.654-1.098.874-1.628 1.327-3.182 4.652-6.114 9.805-8.645l3.253-1.598 5.023.001c5.639.001 4.475-.281 9.885 2.392 3.932 1.943 6.62 4.834 9.008 9.691l1.665 3.385.094 16.474c.068 11.925.173 16.583.383 16.87.514.703 2.705.794 3.299.136.732-.81.791-30.193.063-31.524-.266-.485-.439-1.34-.439-2.164 0-1.661-.729-3.446-3.6-8.82-2.017-3.776-10.522-9.399-14.833-9.806-.965-.091-2.15-.331-2.633-.534-.883-.371-4.708-.652-5.643-.416m60.439.255c-.689.206-1.987.486-2.884.623-2.86.435-6.191 1.897-7.91 3.472-.558.511-1.63 1.22-2.382 1.577-1.754.831-13.9 13.051-14.163 14.25-.088.401-.264.794-.392.873-.296.183-.304 4.051-.009 4.234.123.075.362-.031.533-.236.17-.206.446-.374.612-.374.167 0 .648-.479 1.07-1.065.92-1.279 13.867-14.377 15.118-15.294.482-.354 2.378-1.395 4.211-2.313l3.334-1.668 4.316-.025c3.369-.02 4.48.057 5.067.35.414.207 1.482.575 2.375.82 3.805 1.041 11.036 6.44 11.043 8.245 0 .161.291.856.647 1.546.355.69.871 2.099 1.146 3.132.276 1.033.626 2.029.779 2.214.366.44.388 12.905.024 13.381-.349.457-1.016 2.398-1.201 3.498-.206 1.224-3.204 4.72-7.088 8.266-1.279 1.168-5.213 3.076-6.973 3.381-.552.096-1.448.386-1.991.644-1.377.653-4.68.651-6.05-.004-.543-.26-1.495-.554-2.116-.653-3.663-.584-9.846-4.616-11.304-7.371-.411-.775-1.136-1.895-1.612-2.487-.476-.593-.958-1.244-1.071-1.446-.716-1.278-3.034 1.084-2.673 2.724.567 2.583 4.159 7.021 6.746 8.336.694.353 1.713 1.044 2.263 1.536 1.089.974 1.599 1.218 3.358 1.607a12.15 12.15 0 012.178.746c2.26 1.085 10.231 1.332 13.15.406 1.659-.525 4.296-1.665 5.015-2.166a6.2 6.2 0 011.354-.674c1.223-.397 4.839-3.54 6.594-5.732a53.102 53.102 0 011.711-2.003c1.976-2.177 3.633-6.755 3.633-10.035 0-.449.169-1.14.375-1.535.532-1.021.533-7.508.001-8.782-.207-.495-.376-1.246-.376-1.668 0-6.418-6.462-14.643-14.302-18.204-2.716-1.233-2.715-1.233-4.632-1.501-.966-.135-2.373-.423-3.127-.64-1.671-.479-2.753-.476-4.397.015m-87.959 1.41c.509.478.969.586 3.026.704 2.379.138 2.444.158 3.384 1.066l.958.926h-.757c-.457 0-1.021-.245-1.421-.615-.906-.84-1.88-.94-8.187-.846l-5.438.082-.72.689c-.537.515-.969.69-1.708.689-1.024-.002-3.372.717-3.372 1.031 0 .098-1.843 2.024-4.096 4.279-3.697 3.7-4.113 4.204-4.267 5.163-.093.585-.287 1.064-.43 1.064-1.154 0-1.227 1.145-1.233 19.263l-.005 17.131-.941-.078-.94-.078v-15.88c0-15.17.02-15.891.462-16.138.644-.36 1.168-1.737 1.168-3.071 0-.837.153-1.288.6-1.771.331-.357.674-1.04.764-1.518.109-.581.622-1.348 1.54-2.303.757-.788 1.434-1.719 1.504-2.069.274-1.363.724-1.882 1.993-2.297.823-.27 1.693-.841 2.558-1.679.763-.741 1.693-1.377 2.229-1.526.506-.139 1.184-.502 1.507-.805.495-.465.979-.574 3.092-.7 2.15-.128 2.586-.229 3.07-.713.502-.501.816-.564 2.812-.564 1.987 0 2.318.065 2.848.564m32.352 0c.508.478.974.587 3.034.71 2.161.129 2.504.216 3.063.774.371.371 1.063.699 1.684.798.588.094 1.055.308 1.055.483 0 .357 1.754 1.185 2.51 1.185.277 0 .499.167.499.376 0 .207.097.376.216.376.622 0 5.134 4.937 5.343 5.847.121.526.499 1.259.841 1.628.343.369.622.88.622 1.136 0 .505.726 1.939 1.126 2.225.137.097.318 1.259.403 2.582.139 2.148.227 2.479.818 3.097l.663.691v28.718l-.941-.078-.94-.078-.13-16.928c-.071-9.31-.156-16.951-.188-16.98-.804-.731-1.06-1.129-1.297-2.017-.157-.586-.394-1.065-.526-1.065-.133 0-.241-.121-.241-.269 0-.148-.17-.438-.377-.645-.207-.207-.376-.625-.376-.929 0-1.426-5.809-7.186-7.246-7.186-.28 0-.715-.221-.967-.492-.532-.571-2.074-1.263-2.813-1.263-.281 0-.51-.142-.51-.316 0-1.468-13.042-1.792-14.596-.362-.331.304-1.244.768-2.03 1.032-.787.264-1.43.629-1.43.812 0 .199-.43.399-1.066.496-1.475.226-7.037 5.689-7.272 7.142-.08.497-.435 1.216-.789 1.598-.353.381-.716 1.084-.806 1.562-.089.478-.425 1.152-.746 1.498-.822.888-.902 1.831-.812 9.657l.08 6.943.69.719c.53.553.689.965.689 1.78 0 1.496.59 2.729 1.908 3.992.795.762 1.181 1.36 1.283 1.988.206 1.269 2.602 3.694 4.03 4.078.577.155 1.348.561 1.715.901.367.34.905.62 1.195.622.536.003.896.179 2.429 1.186.596.392 1.235.564 2.097.564 1.011.001 1.374.129 1.96.691 1.269 1.216 8.462.898 8.462-.375 0-.173.278-.315.619-.315.718 0 .636.501-.224 1.361-.837.837-10.744.802-11.427-.041-.592-.732-1.52-1.069-2.941-1.069-1.061 0-1.25-.104-2.452-1.344-.942-.973-1.56-1.392-2.24-1.52-1.291-.242-3.556-2.498-3.797-3.782-.12-.638-.581-1.338-1.501-2.281-.74-.758-1.401-1.694-1.494-2.116-.091-.416-.462-1.108-.825-1.539-.521-.62-.679-1.113-.76-2.371-.078-1.237-.233-1.73-.699-2.233-.936-1.01-.935-11.062.002-12.072.464-.5.622-.997.698-2.192.074-1.161.233-1.679.64-2.086.298-.298.684-1.019.859-1.603.175-.584.571-1.335.881-1.669.309-.333.636-1.104.728-1.711.091-.608.246-1.105.344-1.105.099 0 1.359-1.159 2.801-2.577 1.972-1.939 2.882-2.655 3.676-2.893.581-.174 1.355-.594 1.722-.934.367-.34.882-.618 1.144-.618.621 0 1.883-.656 2.013-1.045.061-.182.771-.347 1.77-.41 1.313-.084 1.791-.229 2.241-.679.864-.862 5.007-.904 5.906-.06m59.937 0c.513.483.958.583 3.092.696 2.271.12 2.545.189 3.092.779.368.397.997.711 1.626.812.603.096 1.026.301 1.026.497 0 .182.637.548 1.415.812 1.901.644 6.977 5.522 7.247 6.965.093.493.434 1.182.758 1.532.324.35.662 1.021.75 1.492.088.47.432 1.11.763 1.422.538.505.603.78.603 2.537 0 2.024.361 3.324 1.09 3.929.345.286.415.863.415 3.417s-.07 3.132-.415 3.418c-.802.665-1.089 1.891-1.094 4.662-.004 2.541-.041 2.739-.619 3.287-.338.321-.687.966-.774 1.434-.117.619-.735 1.435-2.273 2.997-1.323 1.345-2.167 2.415-2.257 2.866-.107.537-.322.756-.848.861-.387.077-1.331.753-2.098 1.501-.766.749-1.707 1.437-2.091 1.53-1.147.277-2.076.746-2.076 1.047 0 .156-.447.354-.993.442-.593.095-1.271.436-1.682.847l-.688.688h-6.111c-5.677 0-6.129-.033-6.369-.462-.365-.652-1.742-1.168-3.117-1.168-1.094 0-2.858-1.211-2.858-1.963 0-.2-1.095-.699-2.027-.923-.959-.231-4.995-4.23-4.995-4.949 0-.319-.166-.816-.369-1.106-.331-.473-.319-.57.126-.972.271-.246.493-.324.493-.174 0 .15.21.339.465.42.49.156 1.177 1.338 1.392 2.394.218 1.067 2.411 3.207 3.757 3.666.658.224 1.471.662 1.807.973.335.31 1.045.634 1.577.719.533.086 1.124.343 1.315.572.536.647 1.838 1.092 3.195 1.092.882 0 1.277.111 1.384.388.527 1.375 7.186 1.615 8.318.299.489-.569.797-.688 1.794-.692 1.247-.006 3.335-.778 3.335-1.233 0-.143.473-.336 1.052-.429 1.192-.19 9.838-8.473 10.083-9.659.066-.322.171-1.129.232-1.793.069-.75.305-1.414.625-1.755.949-1.013 1.049-1.781 1.049-8.072 0-6.321-.098-7.057-1.072-8.096-.401-.428-.562-.98-.639-2.189-.081-1.284-.23-1.754-.722-2.285-.341-.368-.684-1.064-.762-1.546-.232-1.429-5.824-6.935-7.276-7.164-.616-.097-1.065-.305-1.065-.492 0-.433-2.136-1.178-3.372-1.176-.739.001-1.172-.174-1.709-.689l-.719-.689-4.676-.084c-5.509-.098-6.552.021-7.444.848-.366.338-.832.615-1.037.615-.515 0-2.36.963-2.36 1.232 0 .324-.757.556-1.276.391-.489-.155.178-1.121.774-1.121.138 0 .251-.168.251-.374 0-.244.364-.431 1.055-.542.633-.101 1.31-.426 1.693-.812.574-.579.882-.656 3.077-.774 2.093-.113 2.518-.212 3.002-.696.459-.459.842-.564 2.059-.564 1.206 0 1.612.109 2.096.564m102.398 3.085c-.886.192-1.726.465-1.868.607-.142.142-.828.261-1.524.264-2.204.011-5.751 1.526-6.397 2.732-.314.587-.346 6.772-.037 7.26.362.57 3.507-.169 7.165-1.686 1.714-.71 12.239-.604 13.429.136 2.405 1.496 3.769 3.347 4.366 5.926.218.941.515 1.933.661 2.205.366.683-.563 2.177-1.478 2.376-.368.08-1.007.267-1.421.416-.414.148-1.712.356-2.884.461-3.623.325-5.719.697-6.704 1.191-.613.308-1.736.525-3.202.619-5.913.378-13.166 5.071-13.166 8.519 0 .29-.249 1.041-.553 1.668-.894 1.849-.94 4.98-.102 7.074.36.901.655 1.933.655 2.293 0 .36.1.717.223.793.123.076.295.425.383.775.223.888 2.056 2.75 3.406 3.459 5.192 2.728 5.712 2.913 8.934 3.172 3.907.314 6.1.002 8.632-1.227 3.54-1.718 5.337-2.732 5.565-3.14.542-.97 2.951.283 2.951 1.535 0 1.571 7.969 2.419 9.389.999l.642-.643-.005-15.622c-.005-15.483-.126-18.241-.864-19.656-.21-.403-.382-1.092-.383-1.532-.001-.44-.408-1.568-.905-2.508a293.426 293.426 0 01-1.379-2.637c-.33-.642-.806-1.074-1.546-1.401-.588-.26-1.688-.977-2.445-1.593-1.559-1.269-3.408-1.97-5.197-1.97-.671 0-1.338-.119-1.483-.264-.976-.976-9.327-1.367-12.858-.601m11.554 1.527c.616.591.95.68 3.077.817 2.37.153 2.392.161 3.46 1.181 1.379 1.319 2.188 1.852 2.823 1.862.818.014 1.604.856 1.859 1.993.13.581.495 1.331.81 1.666.419.446.619 1.044.74 2.22.126 1.217.328 1.801.829 2.397l.663.787-.064 16.468-.065 16.467-3.286.07c-3.787.08-4.142-.064-4.844-1.97l-.409-1.109-1.539-.074c-1.386-.067-1.624-.003-2.377.642-.46.394-1.298.85-1.862 1.012-.563.163-1.228.521-1.476.795-.248.275-.859.571-1.357.66-.499.088-1.224.457-1.613.82l-.706.659h-8.899l-.819-.69c-.451-.379-1.078-.689-1.393-.689-.316 0-.996-.336-1.512-.746-.516-.411-1.328-.819-1.803-.908-.568-.107-1.25-.56-1.99-1.321-1.167-1.201-1.229-1.344-1.468-3.409-.098-.846-.343-1.451-.768-1.895-.899-.938-.939-4.65-.061-5.654.683-.781.883-1.399.916-2.829.03-1.3 2.244-3.803 3.365-3.803.332 0 1.026-.335 1.542-.746.516-.41 1.312-.816 1.769-.901.456-.086 1.085-.427 1.396-.759.531-.565.738-.603 3.29-.603 2.792 0 4.013-.284 4.681-1.09.29-.349.891-.415 3.808-.415 3.586 0 4.54-.182 5.252-1.003.23-.265.89-.558 1.466-.65 2.127-.34 3.37-3.041 2.02-4.39-.614-.615-.978-1.734-.978-3.012 0-.651-.212-1.148-.748-1.757-.412-.467-.751-.934-.753-1.037-.002-.104-.173-.188-.38-.188-.207 0-.376-.092-.376-.204 0-.311-1.538-1.823-2.383-2.342-.681-.418-1.381-.462-7.376-.463l-6.624-.001-1.15.722a5.797 5.797 0 01-2.53.858c-.759.074-1.577.212-1.818.307-.402.159-.439-.061-.439-2.608v-2.78l.69-.163c.379-.09.942-.393 1.251-.673.441-.401 1.065-.548 2.906-.687 2.233-.169 3.68-.67 3.68-1.274 0-.122 2.448-.222 5.441-.222h5.44l.692.662m20.945-.495c-.297.297-.178 1.867.193 2.553.817 1.51 1.844 4.002 2.113 5.124.158.66.851 2.344 1.54 3.743.689 1.399 1.253 2.823 1.253 3.164 0 .341.404 1.478.898 2.527l1.491 3.161c.326.689.694 1.708.818 2.263.124.556.515 1.684.869 2.508.354.824.828 2.119 1.054 2.878.354 1.193 1.086 2.9 2.258 5.266.171.345.458 1.191.637 1.881.18.69.69 2.044 1.133 3.009 1.653 3.598 1.877 4.116 1.877 4.351 0 .133.281 1.07.625 2.083.755 2.225.779 2.963.138 4.175-.27.51-.812 1.606-1.204 2.434-2.125 4.493-4.636 6.601-8.651 7.264-1.746.288-1.943.759-1.943 4.638 0 4.436.052 4.522 2.734 4.522 1.33 0 2.426-.165 3.434-.518.815-.285 1.876-.614 2.359-.729 2.981-.715 5.633-2.16 7.707-4.2 1.708-1.682 2.33-2.669 4.466-7.092.632-1.31 1.361-2.779 1.618-3.263.258-.485.696-1.699.973-2.7.277-1 .956-2.749 1.509-3.886.554-1.138 1.174-2.688 1.38-3.445.206-.757.719-2.206 1.141-3.221.422-1.014.767-2.148.767-2.52 0-.372.102-.784.226-.915.443-.466 2.783-5.877 2.785-6.438.001-.314.146-.853.323-1.198.415-.808 1.087-2.681 1.295-3.609.09-.398.653-1.759 1.251-3.022 1.123-2.371 1.894-4.414 1.894-5.016 0-.189.291-.905.647-1.591.356-.685.713-1.74.793-2.343.081-.603.576-1.958 1.102-3.012 1.243-2.495 1.972-4.361 1.973-5.053.001-.305.227-.924.502-1.376.514-.843.615-1.472.348-2.167-.154-.403-8.491-.625-9.462-.253-.6.231-2.423 4.213-2.423 5.293 0 .336-.261 1.084-.581 1.662-.87 1.574-2.428 5.42-2.428 5.991 0 .276-.163.857-.361 1.292-.736 1.614-1.144 2.745-1.144 3.172 0 .242-.395 1.306-.878 2.366-.483 1.059-.878 2.213-.878 2.563 0 .351-.5 1.671-1.112 2.933-.611 1.263-1.193 2.627-1.292 3.032-.181.734-1.58 2.855-1.904 2.884-.559.051-2.517-3.911-3.321-6.719-.348-1.217-.717-2.089-2.182-5.162-.259-.543-.471-1.234-.471-1.535 0-.301-.327-1.324-.728-2.272a45.64 45.64 0 01-1.272-3.481c-.3-.966-.98-2.658-1.511-3.762-.531-1.103-1.141-2.71-1.354-3.57-.436-1.753-1.516-4.041-2.129-4.508-.435-.331-10.575-.476-10.895-.156m-151.531 2.118c-2.375 2.516-7.966 7.997-8.158 7.997a.232.232 0 00-.227.234c0 .34-5.455 5.764-5.625 5.594-.488-.488.546-1.704 6.64-7.809 5.454-5.465 6.913-6.796 7.445-6.796h.662l-.737.78m161.896.097c.16.482.523 1.04.808 1.239.404.284.553.742.676 2.092.126 1.376.298 1.894.842 2.541.376.447.684 1.077.684 1.401 0 .324.297.942.661 1.374.499.593.701 1.178.827 2.394.125 1.208.318 1.771.773 2.255.47.501.641 1.028.763 2.361.129 1.403.279 1.838.824 2.383.366.367.666.905.666 1.197 0 .292.325 1.049.722 1.682.503.8.766 1.609.866 2.655.113 1.198.273 1.617.782 2.057.352.304.648.811.657 1.128.045 1.479 1.6 3.21 2.883 3.21 1.092 0 2.859-1.719 2.865-2.787.001-.36.341-1.081.755-1.602.414-.52.752-1.204.752-1.52 0-.315.294-.921.652-1.347.479-.57.706-1.212.856-2.426.147-1.184.368-1.825.782-2.265.441-.469.615-1.027.737-2.36.129-1.405.276-1.846.753-2.26.475-.412.623-.855.75-2.236.123-1.338.302-1.893.802-2.488.355-.421.723-1.135.818-1.587.095-.452.45-1.116.788-1.477.457-.487.651-1.036.754-2.132.087-.922.355-1.804.713-2.353.315-.483.649-1.132.741-1.442.163-.551.254-.564 3.688-.564 3.254 0 3.507.033 3.343.438-.098.242-.24 1.17-.316 2.064-.11 1.281-.257 1.718-.698 2.064-.308.242-.629.809-.715 1.26-.085.451-.492 1.327-.905 1.948-.592.89-.751 1.404-.752 2.434 0 1.077-.117 1.421-.667 1.971-.545.545-.695.98-.824 2.383-.118 1.293-.297 1.865-.723 2.319-.311.331-.685 1.042-.831 1.578-.145.537-.502 1.233-.792 1.548-.37.4-.579 1.062-.697 2.208-.126 1.215-.32 1.797-.756 2.26-.451.481-.624 1.027-.747 2.369-.131 1.436-.274 1.85-.807 2.344-.356.33-.727 1.025-.824 1.544-.098.519-.415 1.215-.706 1.548-.643.735-.848 1.374-.881 2.747-.017.729-.218 1.276-.659 1.801-.461.548-.688 1.199-.83 2.378-.141 1.171-.384 1.871-.87 2.509-.371.486-.675 1.147-.675 1.468 0 .321-.294.9-.653 1.287-.504.544-.703 1.106-.874 2.474-.169 1.341-.368 1.915-.821 2.368-.329.329-.669 1.043-.756 1.586-.093.582-.372 1.136-.68 1.352-.288.202-.629.844-.761 1.431-.132.586-.508 1.384-.836 1.774-.327.389-.674 1.078-.771 1.529-.235 1.101-4.1 4.959-4.968 4.959-.329 0-1.024.339-1.545.752-.682.543-1.234.76-1.978.778-1.374.033-2 .24-2.772.915-.554.485-.929.565-2.657.565h-2.012l.07-3.195.07-3.194 1.334-.192c.77-.11 1.671-.445 2.132-.791.439-.329 1.149-.673 1.579-.764 1.439-.305 4.109-3.105 4.109-4.31 0-.261.274-.771.609-1.132.335-.361.741-1.147.903-1.746.161-.599.575-1.425.921-1.835.86-1.023.773-3.775-.152-4.759-.434-.463-.631-1.045-.754-2.232-.127-1.229-.326-1.797-.847-2.416-.374-.444-.68-1.057-.68-1.36 0-.525-.602-1.623-1.065-1.941-.118-.081-.323-.904-.453-1.827-.222-1.568-.796-2.915-1.241-2.915-.106 0-.269-.504-.362-1.121-.113-.758-.367-1.278-.781-1.604-.488-.384-.612-.711-.612-1.62 0-1.352-.339-2.342-1.067-3.119-.39-.416-.56-.985-.637-2.132-.083-1.218-.241-1.707-.715-2.214-.335-.358-.676-1.062-.758-1.566-.082-.503-.417-1.184-.746-1.512-.455-.456-.651-1.029-.825-2.413-.173-1.379-.376-1.973-.844-2.476-.34-.364-.692-1.085-.784-1.602-.092-.517-.251-.94-.353-.94-.451 0-1.045-1.544-1.045-2.716 0-.973-.141-1.426-.62-1.995-.631-.749-.93-1.389-1.229-2.625l-.167-.689h8.497l.289.877m-243.636 1.51c-.827.341-1.765.62-2.084.621-2.148.004-6.973 4.357-8.659 7.812-1.371 2.809-1.417 3.443-1.418 19.685-.002 16.838-.129 15.824 2.015 16.065 2.239.253 2.098 1.267 2.278-16.44.192-18.84.006-17.655 3.284-20.891 2.906-2.868 5.317-3.588 10.274-3.067l2.335.246.721-.713c2.834-2.804-3.843-5.338-8.746-3.318m32.916-.215c-4.344 1.329-8.191 4.06-9.856 6.995-4.24 7.474-4.07 16.44.415 21.947a68.4 68.4 0 011.488 1.879c1.372 1.881 5.313 4.114 7.752 4.393.904.104 2.121.334 2.705.511.917.279 1.225.265 2.257-.105.657-.235 1.506-.428 1.887-.427 1.894.003 3.683-1.488 3.744-3.121.054-1.44-1.011-1.83-2.43-.89-1.003.664-6.08.732-7.578.102-3.301-1.39-3.853-1.796-6.958-5.118-1.95-2.087-2.699-11.445-1.169-14.606.293-.605.533-1.189.533-1.297 0-1.204 3.943-5.163 5.142-5.163.119 0 .732-.252 1.362-.56 1.001-.49 1.523-.558 4.154-.541l3.009.02 2.236 1.083c2.8 1.357 3.827 2.38 5.202 5.179l1.089 2.217.125 15.509.126 15.508.592.479c.758.614 2.07.614 2.828 0l.592-.48v-31.016l-.745-1.755c-.41-.966-1.115-2.376-1.567-3.135-.451-.758-.821-1.496-.822-1.638-.001-.43-2.839-3.061-3.511-3.256-.345-.099-.797-.327-1.004-.505-2.377-2.047-8.388-3.192-11.598-2.209m60.376-.063c-1.087.27-2.754.998-4.514 1.971l-1.63.896c-.621.341-1.467.936-1.881 1.322-3.02 2.818-10.658 10.648-10.66 10.926-.002.527-1.641 2.555-4.448 5.505-3.674 3.861-4.077 4.556-4.077 7.021 0 1.998.145 2.613.585 2.48.161-.048.61-.158.999-.243.479-.106.818-.414 1.054-.962.626-1.448 1.704-2.823 4.695-5.99 1.619-1.715 3.368-3.814 3.887-4.666 1.014-1.664 9.524-10.468 11.469-11.865 6.188-4.444 14.728-2.646 17.979 3.784l1.078 2.132-.002 5.768c-.003 6.564.111 6.168-2.666 9.306-6.547 7.398-15.799 5.293-19.988-4.548-1.318-3.096-1.621-3.38-2.605-2.439-1.476 1.412-1.792 2.2-1.337 3.335.22.551.4 1.216.4 1.477 0 3.189 7.722 10.064 11.286 10.049.482-.002 1.415.189 2.072.424 1.03.369 1.342.384 2.257.107.585-.176 1.796-.416 2.693-.532 3.896-.505 11.034-6.808 11.034-9.743 0-.264.282-1.23.627-2.146 1.058-2.809.855-10.712-.328-12.82a59.798 59.798 0 01-1.013-2c-.404-.828-.911-1.843-1.127-2.257-.539-1.032-2.586-2.951-3.801-3.563-.552-.278-1.794-.916-2.759-1.417-3.177-1.651-6.196-2.078-9.279-1.312m-86.12 1.33c.466.275.728.637.728 1.003v.573l-4.953.002c-5.656.002-5.432-.067-7.748 2.363-.732.768-1.447 1.397-1.588 1.397-.141 0-.256.104-.256.23 0 .127-.436.684-.969 1.239-1.334 1.388-1.288.73-1.288 18.766v16.159l-.941-.078-.94-.078v-31.611l.661-.713c.364-.393.722-1.084.796-1.537.102-.633.788-1.473 2.974-3.642l2.841-2.818 1.708-.188c1.013-.112 1.829-.34 2.006-.561.832-1.037 5.495-1.376 6.969-.506m32.351 0c.4.237.728.514.728.616 0 .102.403.261.896.353.492.093 1.229.449 1.637.792.408.343 1.171.72 1.695.838 1.15.259 3.4 2.359 3.654 3.412.28 1.155.748 2.086 1.05 2.086.156 0 .356.459.446 1.02.1.623.429 1.282.847 1.693l.684.672v30.094h-2.006l-.13-16.175c-.072-8.897-.156-16.198-.188-16.226-.643-.55-1.312-1.512-1.312-1.884 0-1.22-2.468-3.802-3.889-4.068-.473-.089-1.005-.3-1.181-.469-1.16-1.106-1.535-1.178-6.169-1.178h-4.485l-1.039.753c-.571.413-1.151.752-1.29.752-.43 0-2.261.86-2.261 1.062 0 .249-.945 1.195-1.194 1.195-.206 0-1.063 1.835-1.063 2.275 0 .147-.31.673-.689 1.17l-.69.903-.081 6.165c-.112 8.605-.343 7.796 3.238 11.337 2.438 2.412 3.16 2.986 3.928 3.122.517.092 1.258.464 1.646.826.687.642.812.663 4.765.791 3.901.126 4.252.27 1.551.637-1.582.214-2.625.202-5.811-.072l-2.551-.218-1.211-1.267c-.671-.702-1.616-1.399-2.122-1.565-.711-.233-.944-.464-1.061-1.049-.086-.431-.681-1.28-1.4-1.999-.782-.783-1.347-1.611-1.509-2.213-.142-.53-.541-1.268-.886-1.64-.627-.676-.628-.684-.628-5.786v-5.109l.647-.768c.355-.422.755-1.164.889-1.649.134-.485.505-1.164.826-1.51.32-.346.646-1.021.724-1.5.195-1.202 2.361-3.368 3.563-3.563.48-.078 1.155-.404 1.501-.724.345-.321 1.025-.693 1.509-.826.485-.134 1.227-.534 1.65-.89.988-.832 5.487-.975 6.772-.216m59.926-.047c.406.21.739.479.739.597s.503.341 1.117.495c.613.155 1.404.549 1.757.875.352.327 1.024.657 1.494.733 1.181.191 3.392 2.397 3.583 3.576.077.474.417 1.161.756 1.526.339.366.675 1.03.747 1.476.073.447.402 1.103.731 1.458.9.97.935 9.432.044 10.38-.412.439-.596 1.028-.712 2.274-.151 1.631-1.381 3.562-2.269 3.562-.124 0-.226.113-.226.251s-.225.477-.501.753c-.276.275-.615.501-.753.501-.137 0-.25.095-.25.211 0 .116-.761.987-1.69 1.934l-1.689 1.724-2.511.216c-3.205.276-3.971.274-7.026-.016l-2.508-.238-1.692-1.697c-.931-.934-1.693-1.796-1.693-1.916 0-.12-.113-.218-.251-.218s-.476-.226-.752-.501c-.276-.276-.502-.615-.502-.753s-.097-.251-.215-.251c-.963 0-2.158-1.881-2.252-3.543-.144-2.548.16-3.508.589-1.859.177.684.561 1.436.852 1.672.291.236.6.805.687 1.264.351 1.846 3.93 5.569 5.63 5.856.552.093 1.268.434 1.591.756 1.221 1.221 7.018 1.254 8.058.045.322-.374.809-.68 1.082-.68 1.072 0 1.904-.6 4.637-3.349 3.383-3.402 3.166-2.694 3.166-10.318 0-6.453-.072-7.13-.846-7.971-.294-.319-.749-1.224-1.013-2.01-.264-.787-.565-1.43-.669-1.43-.105 0-.644-.436-1.198-.969-.555-.533-1.35-1.037-1.767-1.12-.418-.084-1.231-.494-1.809-.912l-1.049-.761h-4.547c-4.714 0-4.955.047-6.107 1.171-.177.173-.735.392-1.24.487-1.379.258-12.963 11.89-13.182 13.235-.116.718-.617 1.373-2.42 3.161-1.25 1.241-2.272 2.37-2.272 2.509 0 .139-.102.252-.226.252-.654 0-2.784 2.622-2.784 3.427 0 .306-.113.626-.251.711-.155.096-.25-.36-.25-1.199v-1.353l2.541-2.549c1.397-1.401 2.638-2.548 2.758-2.548.12 0 .218-.113.218-.25 0-.293.914-1.254 1.193-1.254.216 0 .709-1.065.945-2.041.157-.652 7.946-8.743 8.416-8.743.126 0 .23-.107.23-.237 0-.593 3.355-3.572 4.171-3.704.463-.075 1.126-.4 1.473-.722.348-.323 1.11-.715 1.694-.872.585-.157 1.119-.365 1.188-.462.763-1.074 5.383-1.496 7.035-.642m108.283 20.839c-.59.59-.914.675-3.152.831-2.204.153-2.575.248-3.191.819-.383.355-1.069.706-1.525.78-1.205.196-2.302 1.278-2.503 2.468-.093.545-.434 1.278-.759 1.629-1.114 1.202-1.045 4.347.113 5.158.254.178.541.793.638 1.366.143.847.476 1.331 1.766 2.57l1.59 1.527h4.768c4.667 0 4.782-.013 5.483-.602.393-.332 1.189-.73 1.769-.886.815-.22 1.565-.799 3.316-2.56l2.263-2.275v-9.744l-.87-.869-.869-.87h-4.089c-4.079 0-4.092.002-4.748.658m8.522 1.338c1.367 1.85.584 10.167-1.006 10.682-.234.076-.49.341-.569.59-.079.249-.536.663-1.016.922-.48.258-.873.542-.873.63 0 .713-4.494 1.807-7.3 1.778-3.538-.038-4.588-.384-5.857-1.932-4.441-5.42-1.871-10.57 6.01-12.044 1.241-.233 2.483-.55 2.759-.706.48-.272 2.936-.529 5.909-.619 1.277-.039 1.441.02 1.943.699" fill="#249c54" fill-rule="evenodd"/><path d="M174.545 93.4v12.899l.878-.828.878-.828V80.502h-1.756V93.4m9.143-12.584c-.451 1.176.031 18.616.513 18.534 1.397-.237 1.379-.11 1.379-9.859v-8.989h-.886c-.487 0-.94.141-1.006.314M45.078 92.955c-.241.068-.439.217-.439.333 0 .46-2.196 1.257-3.464 1.257-.94 0-1.3.097-1.3.347 0 .347-.238.462-2.132 1.034l-1.003.304.703.191c.93.254 2.413-.002 2.772-.477.463-.612 2.055-1.148 3.413-1.148.922 0 1.262-.096 1.262-.355 0-.924 1.906-1.188 7.966-1.104l5.795.08.72.69c.658.63.885.689 2.657.689 1.997 0 3.459.412 3.84 1.081.266.468 1.13.649 1.265.265.054-.156-.075-.459-.288-.672-.213-.213-.387-.494-.387-.624s-.443-.307-.984-.394c-.541-.086-1.352-.467-1.803-.847l-.82-.69-8.667-.041c-4.767-.022-8.864.014-9.106.081m195.539.148c-.065.173-.09 13.8-.055 30.283l.065 29.968h9.53l.065-10.697.065-10.697.725-.776.725-.776 6.859-.004c7.113-.004 7.027.007 8.632-1.125.552-.389 1.216-.522 2.965-.591 1.997-.079 2.305-.155 2.708-.668.273-.347.856-.646 1.457-.747.82-.139 1.37-.54 3.034-2.217 3.163-3.185 3.737-3.881 3.737-4.536 0-.334.31-.976.689-1.427l.69-.819v-13.35l-.69-.82c-.379-.451-.689-1.093-.689-1.427 0-1.21-5.311-6.505-6.772-6.752-.595-.101-1.183-.401-1.45-.74-.356-.453-.765-.594-1.977-.682-.961-.07-1.783-.291-2.218-.598-.38-.269-.93-.627-1.222-.798-.776-.453-26.7-.456-26.873-.004M33.254 98.324c-.537.405-1.238.736-1.557.736-.754 0-6.619 5.801-6.619 6.547 0 .762-.447 1.487-1.654 2.679-.667.658-1.194 1.46-1.357 2.068-.147.545-.513 1.221-.813 1.5-.418.39-.584.918-.707 2.26-.129 1.418-.274 1.85-.761 2.272l-.601.521v13.96l.601.521c.483.419.632.855.757 2.22.116 1.272.293 1.836.702 2.245.301.301.671 1.01.824 1.576.152.567.491 1.244.752 1.505.262.261.604.952.761 1.535.187.694.671 1.435 1.407 2.15 1.107 1.076 1.845 2.385 1.845 3.275 0 .484 1.18 1.316 1.866 1.316.736 0 3.4 2.181 3.4 2.784 0 .124.148.225.329.225.181 0 .568.323.859.717.356.481.837.766 1.466.868.514.084 1.251.455 1.637.824.573.549 1.022.702 2.447.832 1.444.133 1.831.267 2.246.78l.502.619H58.4l.706-.662c.569-.534 1.011-.683 2.274-.769 1.071-.072 1.668-.237 1.881-.521.365-.484 1.952-1.183 2.687-1.183.28 0 .51-.142.51-.316 0-.453.823-.903 1.995-1.091.613-.098 1.014-.298 1.014-.506 0-.189.141-.344.314-.345.172 0 .539-.338.815-.751.275-.413.575-.751.664-.752.09 0 .569-.407 1.066-.903l.903-.903v-24.025H61.567c-7.339 0-11.661.09-11.661.242 0 .151 3.737.269 9.882.314l9.882.071.776.812.777.813v10.981c0 11.987.104 11.124-1.552 12.875-.975 1.031-1.503 1.345-2.627 1.557-.436.083-1.077.435-1.425.782-.365.365-1.062.701-1.652.795-.561.09-1.021.29-1.022.445-.004.55-1.409.972-3.635 1.091-2.007.108-2.335.195-2.963.784l-.706.663H44.345l-.56-.651c-.47-.547-.835-.674-2.256-.788-1.344-.108-1.834-.265-2.365-.76-.368-.343-1.074-.696-1.569-.784-.495-.087-1.166-.442-1.49-.787-.352-.375-1-.693-1.608-.789-.888-.14-1.443-.585-4.374-3.506-1.846-1.84-3.454-3.345-3.574-3.345-.119 0-.217-.113-.217-.251 0-.294-.915-1.254-1.194-1.254-.202 0-1.063-1.831-1.063-2.261 0-.138-.338-.719-.752-1.29-.414-.571-.752-1.295-.752-1.61 0-.314-.146-.72-.324-.903-1.206-1.234-1.181-1.01-1.181-10.631v-9.06l.748-1.104c.574-.847.748-1.388.752-2.328.005-1.429.526-2.399 2-3.722.558-.5 1.014-1.058 1.014-1.239 0-.435.838-2.464 1.018-2.465.077-.001 1.287-1.127 2.689-2.504 2.004-1.968 2.777-2.563 3.621-2.787a3.547 3.547 0 001.788-1.134l.714-.849-.589.017c-.324.009-1.029.348-1.567.752m233.527 1.628c.342.508 1.422 1.114 1.987 1.114 1.366 0 3.848 2.95 4.082 4.851.154 1.259.367 1.883.796 2.34.54.574.586.839.586 3.342s-.046 2.767-.586 3.341c-.426.454-.642 1.083-.795 2.314-.235 1.893-2.726 4.878-4.072 4.878-.574 0-1.653.601-1.999 1.114-.352.521-15.393.349-15.925-.183-.413-.413-.453-1.26-.518-11.026-.075-11.154-.02-11.793 1.051-12.238.77-.319 15.171-.177 15.393.153m-217.894 1.291c-.718.604-1.075.695-3.234.825-2.158.13-2.505.219-3.129.798-.387.359-1.068.711-1.515.783-.446.073-1.11.409-1.476.748-.365.339-1.068.682-1.56.762-1.106.179-6.625 5.658-6.625 6.576 0 .298-.342 1.013-.76 1.591-.419.577-.826 1.376-.906 1.775-.08.399-.415.979-.744 1.289l-.599.563v13.869l.603.566c.331.312.674.949.762 1.415.087.467.3.993.473 1.17.682.699 1.171 1.589 1.171 2.133 0 .879 6.928 7.725 8.163 8.066.515.142 1.211.517 1.547.833.526.495.955.593 3.083.706 2.235.118 2.524.19 3.011.752.824.95 4.938.946 5.763-.005.514-.593.718-.634 3.736-.753 2.99-.117 3.242-.167 3.974-.783.43-.363 1.169-.732 1.642-.82 1.768-.332 1.808-.493 1.808-7.174 0-7.807.789-7.022-7.061-7.022-6.621 0-7.108.103-7.108 1.505 0 .485.167.501 5.101.501h5.1l.9.69c1.154.885 1.18 1.001 1.184 5.37l.003 3.678-.828.853c-.5.515-1.294.983-2.006 1.182-.648.182-1.178.404-1.178.494 0 .819-1.499 1.025-7.465 1.025h-6.009l-.946-.753c-.612-.486-1.234-.752-1.759-.752-1.553 0-2.416-.325-3.418-1.288-.555-.533-1.112-.969-1.239-.969-.126 0-.23-.113-.23-.251 0-.325-.929-1.254-1.254-1.254-.138 0-.251-.099-.251-.221s-.784-1.001-1.742-1.954c-1.327-1.319-1.797-1.975-1.972-2.753-.126-.562-.468-1.26-.759-1.551-.568-.569-.703-1.009-.872-2.851-.073-.795-.322-1.434-.767-1.963-1.011-1.202-1.025-8.296-.018-9.493.353-.419.698-1.189.766-1.712.298-2.266.403-2.613.987-3.243.338-.365.616-.902.617-1.192.004-1.311 4.141-5.504 5.676-5.752.741-.12 1.267-.472 2.242-1.502 1.281-1.353 1.992-1.675 3.697-1.675.432 0 1.208-.303 1.766-.689l.995-.69h7.545c7.422 0 9.175.176 9.175.919 0 .094.423.3.94.458 1.419.434 2.069.803 2.069 1.173 0 .189.272.334.627.334.744 0 .758-.077.198-1.026-.298-.504-.702-.776-1.317-.887-1.098-.198-2.188-.734-2.324-1.142-.066-.201-.932-.356-2.483-.445-2.127-.122-2.468-.21-3.2-.826-1.259-1.061-7.313-1.069-8.57-.011m53.732 1.641c-.484.484-.92.585-3.07.713-2.113.126-2.597.235-3.092.7-.323.303-1.001.666-1.507.805-.536.149-1.466.785-2.229 1.526-.865.838-1.735 1.409-2.558 1.679-1.269.415-1.719.934-1.993 2.297-.07.35-.747 1.281-1.504 2.069-.918.955-1.431 1.722-1.54 2.303-.09.478-.433 1.161-.764 1.518-.447.483-.6.934-.6 1.771 0 1.334-.524 2.711-1.168 3.071-.442.247-.462.968-.462 16.138v15.88l.94.078.941.078.005-17.131c.006-18.118.079-19.263 1.233-19.263.143 0 .337-.479.43-1.064.154-.959.57-1.463 4.267-5.163 2.253-2.255 4.096-4.181 4.096-4.279 0-.314 2.348-1.033 3.372-1.031.739.001 1.171-.174 1.708-.689l.72-.689 5.438-.082c6.307-.094 7.281.006 8.187.846.4.37.964.615 1.421.615h.757l-.958-.926c-.94-.908-1.005-.928-3.384-1.066-2.057-.118-2.517-.226-3.026-.704-.53-.499-.861-.564-2.848-.564-1.996 0-2.31.063-2.812.564m32.106.06c-.45.45-.928.595-2.241.679-.999.063-1.709.228-1.77.41-.13.389-1.392 1.045-2.013 1.045-.262 0-.777.278-1.144.618-.367.34-1.141.76-1.722.934-.794.238-1.704.954-3.676 2.893-1.442 1.418-2.702 2.577-2.801 2.577-.098 0-.253.497-.344 1.105-.092.607-.419 1.378-.728 1.711-.31.334-.706 1.085-.881 1.669-.175.584-.561 1.305-.859 1.603-.407.407-.566.925-.64 2.086-.076 1.195-.234 1.692-.698 2.192-.937 1.01-.938 11.062-.002 12.072.466.503.621.996.699 2.233.081 1.258.239 1.751.76 2.371.363.431.734 1.123.825 1.539.093.422.754 1.358 1.494 2.116.92.943 1.381 1.643 1.501 2.281.241 1.284 2.506 3.54 3.797 3.782.68.128 1.298.547 2.24 1.52 1.202 1.24 1.391 1.344 2.452 1.344 1.421 0 2.349.337 2.941 1.069.683.843 10.59.878 11.427.041.86-.86.942-1.361.224-1.361-.341 0-.619.142-.619.315 0 1.273-7.193 1.591-8.462.375-.586-.562-.949-.69-1.96-.691-.862 0-1.501-.172-2.097-.564-1.533-1.007-1.893-1.183-2.429-1.186-.29-.002-.828-.282-1.195-.622-.367-.34-1.138-.746-1.715-.901-1.428-.384-3.824-2.809-4.03-4.078-.102-.628-.488-1.226-1.283-1.988-1.318-1.263-1.908-2.496-1.908-3.992 0-.815-.159-1.227-.689-1.78l-.69-.719-.08-6.943c-.09-7.826-.01-8.769.812-9.657.321-.346.657-1.02.746-1.498.09-.478.453-1.181.806-1.562.354-.382.709-1.101.789-1.598.235-1.453 5.797-6.916 7.272-7.142.636-.097 1.066-.297 1.066-.496 0-.183.643-.548 1.43-.812.786-.264 1.699-.728 2.03-1.032 1.554-1.43 14.596-1.106 14.596.362 0 .174.229.316.51.316.739 0 2.281.692 2.813 1.263.252.271.687.492.967.492 1.437 0 7.246 5.76 7.246 7.186 0 .304.169.722.376.929.207.207.377.497.377.645 0 .148.108.269.241.269.132 0 .369.479.526 1.065.237.888.493 1.286 1.297 2.017.032.029.117 7.67.188 16.98l.13 16.928.94.078.941.078v-28.718l-.663-.691c-.591-.618-.679-.949-.818-3.097-.085-1.323-.266-2.485-.403-2.582-.4-.286-1.126-1.72-1.126-2.225 0-.256-.279-.767-.622-1.136-.342-.369-.72-1.102-.841-1.628-.209-.91-4.721-5.847-5.343-5.847-.119 0-.216-.169-.216-.376 0-.209-.222-.376-.499-.376-.756 0-2.51-.828-2.51-1.185 0-.175-.467-.389-1.055-.483-.621-.099-1.313-.427-1.684-.798-.559-.558-.902-.645-3.063-.774-2.06-.123-2.526-.232-3.034-.71-.899-.844-5.042-.802-5.906.06m61.688-.06c-.484.484-.909.583-3.002.696-2.195.118-2.503.195-3.077.774-.383.386-1.06.711-1.693.812-.691.111-1.055.298-1.055.542 0 .206-.113.374-.251.374-.596 0-1.263.966-.774 1.121.519.165 1.276-.067 1.276-.391 0-.269 1.845-1.232 2.36-1.232.205 0 .671-.277 1.037-.615.892-.827 1.935-.946 7.444-.848l4.676.084.719.689c.537.515.97.69 1.709.689 1.236-.002 3.372.743 3.372 1.176 0 .187.449.395 1.065.492 1.452.229 7.044 5.735 7.276 7.164.078.482.421 1.178.762 1.546.492.531.641 1.001.722 2.285.077 1.209.238 1.761.639 2.189.974 1.039 1.072 1.775 1.072 8.096 0 6.291-.1 7.059-1.049 8.072-.32.341-.556 1.005-.625 1.755-.061.664-.166 1.471-.232 1.793-.245 1.186-8.891 9.469-10.083 9.659-.579.093-1.052.286-1.052.429 0 .455-2.088 1.227-3.335 1.233-.997.004-1.305.123-1.794.692-1.132 1.316-7.791 1.076-8.318-.299-.107-.277-.502-.388-1.384-.388-1.357 0-2.659-.445-3.195-1.092-.191-.229-.782-.486-1.315-.572-.532-.085-1.242-.409-1.577-.719-.336-.311-1.149-.749-1.807-.973-1.346-.459-3.539-2.599-3.757-3.666-.215-1.056-.902-2.238-1.392-2.394-.255-.081-.465-.27-.465-.42 0-.15-.222-.072-.493.174-.445.402-.457.499-.126.972.203.29.369.787.369 1.106 0 .719 4.036 4.718 4.995 4.949.932.224 2.027.723 2.027.923 0 .752 1.764 1.963 2.858 1.963 1.375 0 2.752.516 3.117 1.168.24.429.692.462 6.369.462h6.111l.688-.688c.411-.411 1.089-.752 1.682-.847.546-.088.993-.286.993-.442 0-.301.929-.77 2.076-1.047.384-.093 1.325-.781 2.091-1.53.767-.748 1.711-1.424 2.098-1.501.526-.105.741-.324.848-.861.09-.451.934-1.521 2.257-2.866 1.538-1.562 2.156-2.378 2.273-2.997.087-.468.436-1.113.774-1.434.578-.548.615-.746.619-3.287.005-2.771.292-3.997 1.094-4.662.345-.286.415-.864.415-3.418 0-2.554-.07-3.131-.415-3.417-.729-.605-1.09-1.905-1.09-3.929 0-1.757-.065-2.032-.603-2.537-.331-.312-.675-.952-.763-1.422-.088-.471-.426-1.142-.75-1.492-.324-.35-.665-1.039-.758-1.532-.27-1.443-5.346-6.321-7.247-6.965-.778-.264-1.415-.63-1.415-.812 0-.196-.423-.401-1.026-.497-.629-.101-1.258-.415-1.626-.812-.547-.59-.821-.659-3.092-.779-2.134-.113-2.579-.213-3.092-.696-.484-.455-.89-.564-2.096-.564-1.217 0-1.6.105-2.059.564m106.534 4.172c0 .604-1.447 1.105-3.68 1.274-1.841.139-2.465.286-2.906.687-.309.28-.872.583-1.251.673l-.69.163v2.78c0 2.547.037 2.767.439 2.608.241-.095 1.059-.233 1.818-.307a5.797 5.797 0 002.53-.858l1.15-.722 6.624.001c5.995.001 6.695.045 7.376.463.845.519 2.383 2.031 2.383 2.342 0 .112.169.204.376.204s.378.084.38.188c.002.103.341.57.753 1.037.536.609.748 1.106.748 1.757 0 1.278.364 2.397.978 3.012 1.35 1.349.107 4.05-2.02 4.39-.576.092-1.236.385-1.466.65-.712.821-1.666 1.003-5.252 1.003-2.917 0-3.518.066-3.808.415-.668.806-1.889 1.09-4.681 1.09-2.552 0-2.759.038-3.29.603-.311.332-.94.673-1.396.759-.457.085-1.253.491-1.769.901-.516.411-1.21.746-1.542.746-1.121 0-3.335 2.503-3.365 3.803-.033 1.43-.233 2.048-.916 2.829-.878 1.004-.838 4.716.061 5.654.425.444.67 1.049.768 1.895.239 2.065.301 2.208 1.468 3.409.74.761 1.422 1.214 1.99 1.321.475.089 1.287.497 1.803.908.516.41 1.196.746 1.512.746.315 0 .942.31 1.393.689l.819.69h8.899l.706-.659c.389-.363 1.114-.732 1.613-.82.498-.089 1.109-.385 1.357-.66.248-.274.913-.632 1.476-.795.564-.162 1.402-.618 1.862-1.012.753-.645.991-.709 2.377-.642l1.539.074.409 1.109c.702 1.906 1.057 2.05 4.844 1.97l3.286-.07.065-16.467.064-16.468-.663-.787c-.501-.596-.703-1.18-.829-2.397-.121-1.176-.321-1.774-.74-2.22-.315-.335-.68-1.085-.81-1.666-.255-1.137-1.041-1.979-1.859-1.993-.635-.01-1.444-.543-2.823-1.862-1.068-1.02-1.09-1.028-3.46-1.181-2.127-.137-2.461-.226-3.077-.817l-.692-.662h-5.44c-2.993 0-5.441.1-5.441.222m-126.383 8.079c-6.094 6.105-7.128 7.321-6.64 7.809.17.17 5.625-5.254 5.625-5.594 0-.128.102-.234.227-.234.192 0 5.783-5.481 8.158-7.997l.737-.78h-.662c-.532 0-1.991 1.331-7.445 6.796m160.647-6.107c.299 1.236.598 1.876 1.229 2.625.479.569.62 1.022.62 1.995 0 1.172.594 2.716 1.045 2.716.102 0 .261.423.353.94.092.517.444 1.238.784 1.602.468.503.671 1.097.844 2.476.174 1.384.37 1.957.825 2.413.329.328.664 1.009.746 1.512.082.504.423 1.208.758 1.566.474.507.632.996.715 2.214.077 1.147.247 1.716.637 2.132.728.777 1.067 1.767 1.067 3.119 0 .909.124 1.236.612 1.62.414.326.668.846.781 1.604.093.617.256 1.121.362 1.121.445 0 1.019 1.347 1.241 2.915.13.923.335 1.746.453 1.827.463.318 1.065 1.416 1.065 1.941 0 .303.306.916.68 1.36.521.619.72 1.187.847 2.416.123 1.187.32 1.769.754 2.232.925.984 1.012 3.736.152 4.759-.346.41-.76 1.236-.921 1.835-.162.599-.568 1.385-.903 1.746-.335.361-.609.871-.609 1.132 0 1.205-2.67 4.005-4.109 4.31-.43.091-1.14.435-1.579.764-.461.346-1.362.681-2.132.791l-1.334.192-.07 3.194-.07 3.195h2.012c1.728 0 2.103-.08 2.657-.565.772-.675 1.398-.882 2.772-.915.744-.018 1.296-.235 1.978-.778.521-.413 1.216-.752 1.545-.752.868 0 4.733-3.858 4.968-4.959.097-.451.444-1.14.771-1.529.328-.39.704-1.188.836-1.774.132-.587.473-1.229.761-1.431.308-.216.587-.77.68-1.352.087-.543.427-1.257.756-1.586.453-.453.652-1.027.821-2.368.171-1.368.37-1.93.874-2.474.359-.387.653-.966.653-1.287 0-.321.304-.982.675-1.468.486-.638.729-1.338.87-2.509.142-1.179.369-1.83.83-2.378.441-.525.642-1.072.659-1.801.033-1.373.238-2.012.881-2.747.291-.333.608-1.029.706-1.548.097-.519.468-1.214.824-1.544.533-.494.676-.908.807-2.344.123-1.342.296-1.888.747-2.369.436-.463.63-1.045.756-2.26.118-1.146.327-1.808.697-2.208.29-.315.647-1.011.792-1.548.146-.536.52-1.247.831-1.578.426-.454.605-1.026.723-2.319.129-1.403.279-1.838.824-2.383.55-.55.667-.894.667-1.971.001-1.03.16-1.544.752-2.434.413-.621.82-1.497.905-1.948.086-.451.407-1.018.715-1.26.441-.346.588-.783.698-2.064.076-.894.218-1.822.316-2.064.164-.405-.089-.438-3.343-.438-3.434 0-3.525.013-3.688.564-.092.31-.426.959-.741 1.442-.358.549-.626 1.431-.713 2.353-.103 1.096-.297 1.645-.754 2.132-.338.361-.693 1.025-.788 1.477-.095.452-.463 1.166-.818 1.587-.5.595-.679 1.15-.802 2.488-.127 1.381-.275 1.824-.75 2.236-.477.414-.624.855-.753 2.26-.122 1.333-.296 1.891-.737 2.36-.414.44-.635 1.081-.782 2.265-.15 1.214-.377 1.856-.856 2.426-.358.426-.652 1.032-.652 1.347 0 .316-.338 1-.752 1.52-.414.521-.754 1.242-.755 1.602-.006 1.068-1.773 2.787-2.865 2.787-1.283 0-2.838-1.731-2.883-3.21-.009-.317-.305-.824-.657-1.128-.509-.44-.669-.859-.782-2.057-.1-1.046-.363-1.855-.866-2.655-.397-.633-.722-1.39-.722-1.682 0-.292-.3-.83-.666-1.197-.545-.545-.695-.98-.824-2.383-.122-1.333-.293-1.86-.763-2.361-.455-.484-.648-1.047-.773-2.255-.126-1.216-.328-1.801-.827-2.394-.364-.432-.661-1.05-.661-1.374 0-.324-.308-.954-.684-1.401-.544-.647-.716-1.165-.842-2.541-.123-1.35-.272-1.808-.676-2.092-.285-.199-.648-.757-.808-1.239l-.289-.877h-8.497l.167.689m-234.014 2.61c-.275.15-.635.441-.8.646-.177.221-.993.449-2.006.561l-1.708.188-2.841 2.818c-2.186 2.169-2.872 3.009-2.974 3.642-.074.453-.432 1.144-.796 1.537l-.661.713v31.611l.94.078.941.078v-16.159c0-18.036-.046-17.378 1.288-18.766.533-.555.969-1.112.969-1.239 0-.126.115-.23.256-.23.141 0 .856-.629 1.588-1.397 2.316-2.43 2.092-2.361 7.748-2.363l4.953-.002v-.573c0-1.25-5.143-2.103-6.897-1.143m31.748.356c-.423.356-1.165.756-1.65.89-.484.133-1.164.505-1.509.826-.346.32-1.021.646-1.501.724-1.202.195-3.368 2.361-3.563 3.563-.078.479-.404 1.154-.724 1.5-.321.346-.692 1.025-.826 1.51-.134.485-.534 1.227-.889 1.649l-.647.768v5.109c0 5.102.001 5.11.628 5.786.345.372.744 1.11.886 1.64.162.602.727 1.43 1.509 2.213.719.719 1.314 1.568 1.4 1.999.117.585.35.816 1.061 1.049.506.166 1.451.863 2.122 1.565l1.211 1.267 2.551.218c3.186.274 4.229.286 5.811.072 2.701-.367 2.35-.511-1.551-.637-3.953-.128-4.078-.149-4.765-.791-.388-.362-1.129-.734-1.646-.826-.768-.136-1.49-.71-3.928-3.122-3.581-3.541-3.35-2.732-3.238-11.337l.081-6.165.69-.903c.379-.497.689-1.023.689-1.17 0-.44.857-2.275 1.063-2.275.249 0 1.194-.946 1.194-1.195 0-.202 1.831-1.062 2.261-1.062.139 0 .719-.339 1.29-.752l1.039-.753h4.485c4.634 0 5.009.072 6.169 1.178.176.169.708.38 1.181.469 1.421.266 3.889 2.848 3.889 4.068 0 .372.669 1.334 1.312 1.884.032.028.116 7.329.188 16.226l.13 16.175h2.006V123.26l-.684-.672c-.418-.411-.747-1.07-.847-1.693-.09-.561-.29-1.02-.446-1.02-.302 0-.77-.931-1.05-2.086-.254-1.053-2.504-3.153-3.654-3.412-.524-.118-1.287-.495-1.695-.838-.408-.343-1.145-.699-1.637-.792-.493-.092-.896-.251-.896-.353 0-1.205-6.153-1.533-7.5-.4m60.409-.222c-.341.234-.677.504-.746.601-.069.097-.603.305-1.188.462-.584.157-1.346.549-1.694.872-.347.322-1.01.647-1.473.722-.816.132-4.171 3.111-4.171 3.704 0 .13-.104.237-.23.237-.47 0-8.259 8.091-8.416 8.743-.236.976-.729 2.041-.945 2.041-.279 0-1.193.961-1.193 1.254 0 .137-.098.25-.218.25s-1.361 1.147-2.758 2.548l-2.541 2.549v1.353c0 .839.095 1.295.25 1.199.138-.085.251-.405.251-.711 0-.805 2.13-3.427 2.784-3.427.124 0 .226-.113.226-.252s1.022-1.268 2.272-2.509c1.803-1.788 2.304-2.443 2.42-3.161.219-1.345 11.803-12.977 13.182-13.235.505-.095 1.063-.314 1.24-.487 1.152-1.124 1.393-1.171 6.107-1.171h4.547l1.049.761c.578.418 1.391.828 1.809.912.417.083 1.212.587 1.767 1.12.554.533 1.093.969 1.198.969.104 0 .405.643.669 1.43.264.786.719 1.691 1.013 2.01.774.841.846 1.518.846 7.971 0 7.624.217 6.916-3.166 10.318-2.733 2.749-3.565 3.349-4.637 3.349-.273 0-.76.306-1.082.68-1.04 1.209-6.837 1.176-8.058-.045-.323-.322-1.039-.663-1.591-.756-1.7-.287-5.279-4.01-5.63-5.856-.087-.459-.396-1.028-.687-1.264-.291-.236-.675-.988-.852-1.672-.429-1.649-.733-.689-.589 1.859.094 1.662 1.289 3.543 2.252 3.543.118 0 .215.113.215.251s.226.477.502.753c.276.275.614.501.752.501s.251.098.251.218.762.982 1.693 1.916l1.692 1.697 2.508.238c3.055.29 3.821.292 7.026.016l2.511-.216 1.689-1.724c.929-.947 1.69-1.818 1.69-1.934 0-.116.113-.211.25-.211.138 0 .477-.226.753-.501.276-.276.501-.615.501-.753s.102-.251.226-.251c.888 0 2.118-1.931 2.269-3.562.116-1.246.3-1.835.712-2.274.891-.948.856-9.41-.044-10.38-.329-.355-.658-1.011-.731-1.458-.072-.446-.408-1.11-.747-1.476-.339-.365-.679-1.052-.756-1.526-.191-1.179-2.402-3.385-3.583-3.576-.47-.076-1.142-.406-1.494-.733-.353-.326-1.144-.72-1.757-.875-.614-.154-1.117-.377-1.117-.495 0-.975-5.751-1.43-7.028-.556m124.278 21.01l.87.869v9.744l-2.263 2.275c-1.751 1.761-2.501 2.34-3.316 2.56-.58.156-1.376.554-1.769.886-.701.589-.816.602-5.483.602h-4.768l-1.59-1.527c-1.29-1.239-1.623-1.723-1.766-2.57-.097-.573-.384-1.188-.638-1.366-1.158-.811-1.227-3.956-.113-5.158.325-.351.666-1.084.759-1.629.201-1.19 1.298-2.272 2.503-2.468.456-.074 1.142-.425 1.525-.78.616-.571.987-.666 3.191-.819 2.238-.156 2.562-.241 3.152-.831.656-.656.669-.658 4.748-.658h4.089l.869.87" fill="#048c34" fill-rule="evenodd"/><path d="M0 125.392v125.392h400V0H0v125.392m176.803-45.894c.488.489.501.836.501 13.155v12.653l-1.359 1.414c-1.372 1.429-2.135 1.645-2.712.77-.286-.434-.233-26.597.055-27.355.439-1.154 2.605-1.547 3.515-.637m9.35.502c.596 1.169.558 18.929-.042 19.651-1.444 1.738-3.698 1.637-3.918-.176-.311-2.559-.028-19.363.333-19.798.85-1.023 3.04-.828 3.627.323M62.541 91.905c2.086.471 4.819 1.733 5.169 2.387.75 1.402-.142 4.223-1.049 3.316-.167-.167-.457-.304-.643-.304-.187 0-.87-.242-1.518-.537-.647-.296-2.088-.672-3.201-.837-1.114-.165-2.401-.488-2.86-.717-1.31-.653-10.784-.613-12.185.052-.543.258-1.574.606-2.29.774-.716.168-2.111.634-3.098 1.036-.988.402-2.04.731-2.338.731-.575 0-1.942.839-3.067 1.881-.371.345-.8.627-.952.628-1.425.005-8.177 6.829-8.177 8.264 0 .145-.28.509-.623.807-.8.695-1.599 2.231-2.04 3.921-.192.733-.562 1.805-.823 2.383-1.482 3.274-1.217 15.147.417 18.73 2.463 5.399 2.968 6.148 6.578 9.758 2.969 2.969 4.587 4.209 6.711 5.146.586.259 1.066.554 1.066.656 0 .102.294.259.654.349.36.091 1.122.381 1.693.646.571.264 1.601.604 2.288.754.687.151 1.746.494 2.352.762 1.209.534 10.124.751 10.432.253.206-.335 2.527-.973 4.283-1.178.822-.096 1.865-.382 2.318-.635.452-.253.962-.461 1.133-.461.17 0 .703-.265 1.183-.588.481-.324 1.157-.691 1.504-.816 1.31-.47 3.405-1.946 4.009-2.825l.627-.912.074-9.863.073-9.864-.826-.728-.826-.728-9.293-.004c-10.222-.004-10.048.022-10.302-1.544-.329-2.031-.712-1.971 12.66-1.971 11.626 0 11.753.005 12.226.528.456.505.477 1.09.477 13.166v12.638l-1.881 1.881c-1.034 1.035-2.445 2.167-3.134 2.517-.69.35-2.439 1.241-3.887 1.98-1.449.74-3.085 1.407-3.638 1.483-.552.076-1.511.362-2.132.637-3.374 1.492-15.599 1.419-19.454-.116-.838-.334-1.698-.607-1.91-.607-.48 0-2.953-.987-3.462-1.382-.207-.16-.752-.44-1.212-.622-.46-.183-1.363-.83-2.006-1.439-1.43-1.353-3.982-3.206-4.732-3.436-.303-.093-.62-.386-.704-.651-.203-.641-1.767-2.94-2.64-3.881-.384-.414-.871-1.147-1.083-1.63a22.214 22.214 0 00-.885-1.756c-1.24-2.176-2.537-5.23-2.537-5.975 0-.449-.232-1.269-.515-1.824-1.332-2.612-1.328-13.255.008-16.513.257-.628.535-1.547.616-2.043.202-1.22 2.387-5.485 3.444-6.719.47-.55 1.114-1.516 1.429-2.148.703-1.408 5.338-6.065 6.554-6.584.482-.207 1.047-.516 1.254-.689 1.222-1.019 8.289-4.291 9.78-4.529.621-.099 1.241-.268 1.379-.375.323-.252 3.001-.964 4.138-1.101 2.18-.262 13.711.088 15.394.468m205.171-.003c.827.234 1.612.53 1.743.657s.612.231 1.07.231c4.284 0 11.587 6.81 13.228 12.336.603 2.031.544 11.086-.085 13.119-1.783 5.757-7.784 11.159-13.282 11.956-.919.133-2.01.357-2.424.497-1.945.66-2.914.758-8.775.89-6.187.139-6.279.149-7.085.764l-.817.623v10.01c0 10.892-.076 11.569-1.335 11.885-1.508.379-9.915.007-10.38-.459-.425-.425-.448-2.027-.448-31.247 0-32.934-.057-31.44 1.21-31.717 1.662-.363 25.917.04 27.38.455M58.357 100.14c.442.233 1.298.424 1.903.424 1.778 0 6.585 1.841 7.413 2.838.537.647.463 2.618-.12 3.201l-.519.519-3.143-1.51-3.143-1.51-5.358-.156c-7.22-.21-14.23 1.208-14.926 3.02-.069.181-.756.648-1.527 1.038-6.09 3.081-10.349 13.677-8.105 20.162.284.82.516 1.613.516 1.762 0 1.198 2.585 6.094 3.715 7.037.272.228.592.566.71.753.812 1.281 4.956 4.476 5.806 4.476.266 0 1.317.35 2.336.777l1.853.777 5.197-.016c4.578-.014 5.31-.072 6.144-.49.521-.261 1.232-.543 1.579-.626.348-.083.879-.382 1.181-.663.302-.281.654-.511.783-.511.432 0 .539-.773.539-3.874v-3.081l-.998-.661c-.989-.655-1.035-.66-5.762-.66h-4.764l-.415-.632c-.497-.76-.349-2.485.267-3.101.915-.916 14.129-.692 15.225.258.724.628 1.059 11.671.414 13.632-.554 1.681-4.632 3.561-8.23 3.792-1.173.076-2.583.312-3.135.524-1.378.531-6.145.531-7.523 0-.552-.212-1.624-.453-2.383-.534-2.267-.243-6.017-1.891-7.428-3.265-4.978-4.848-5.716-5.652-6.344-6.912a58.816 58.816 0 00-.972-1.881c-.477-.843-1.503-3.197-1.913-4.389-.562-1.63-.563-11.913-.002-13.524.362-1.04 1.567-3.565 3.047-6.384.738-1.407 5.03-5.748 6.339-6.411.483-.245 1.85-.962 3.037-1.594 2.627-1.397 4.875-2.181 6.259-2.181.57 0 1.392-.162 1.826-.361 1.703-.78 9.181-.823 10.621-.063m193.863 1.195l-.935.77v18.972l.923.809.922.81 5.535-.12c8.584-.187 11.679-1.635 12.952-6.06.283-.98.676-2.153.875-2.606.461-1.053.465-3.558.006-4.622-.196-.453-.546-1.584-.78-2.514-1.104-4.397-5.319-6.179-14.67-6.201l-3.893-.009-.935.771m-143.873.124c.754.216 2.161.499 3.126.628 4.934.66 7.183 2.99 4.337 4.493l-1.18.623-1.653-.815-1.653-.815-5.252-.004c-4.16-.003-5.37.071-5.819.359-.311.2-1.526.653-2.698 1.007-2.321.702-2.887 1.103-6.238 4.432-5.976 5.936-5.799 5.162-6.013 26.398l-.163 16.261-.592.479c-.758.614-2.07.614-2.828 0l-.592-.48v-16.26c0-14.913.036-16.349.439-17.332.241-.589.555-1.59.697-2.225.32-1.427 2.3-5.63 2.879-6.11.393-.327 1.889-2.48 2.527-3.64.15-.273.669-.721 1.153-.997 1.289-.735 2.254-1.397 2.963-2.034 1.424-1.279 5.328-2.924 7.93-3.342a34.944 34.944 0 002.854-.607c1.838-.493 4.098-.5 5.776-.019m33.095.176c.483.203 1.668.443 2.633.534 4.311.407 12.816 6.03 14.833 9.806 2.871 5.374 3.6 7.159 3.6 8.82 0 .824.173 1.679.439 2.164.728 1.331.669 30.714-.063 31.524-.594.658-2.785.567-3.299-.136-.21-.287-.315-4.945-.383-16.87l-.094-16.474-1.665-3.385c-2.388-4.857-5.076-7.748-9.008-9.691-5.41-2.673-4.246-2.391-9.885-2.392l-5.023-.001-3.253 1.598c-5.153 2.531-8.478 5.463-9.805 8.645-.22.53-.614 1.262-.874 1.628-.26.367-.473.819-.473 1.006 0 .186-.304.902-.676 1.591l-.677 1.252-.011 6.646c-.01 5.799.042 6.725.407 7.272.23.345.606 1.357.834 2.248.447 1.745 1.311 3.41 2.164 4.173.293.262.732.939.977 1.505.557 1.291 2.733 3.492 3.956 4.003.509.212 1.434.688 2.054 1.056 1.62.962 3.676 1.808 5.267 2.168.759.172 1.74.501 2.182.73 1.2.625 4.786.581 5.951-.073 1.739-.977 3.795-.917 3.908.115.329 3.016-1.092 3.736-7.402 3.751-4.623.011-4.777-.013-7.332-1.147-.585-.26-1.23-.472-1.433-.472-.55 0-3.147-1.01-3.147-1.224 0-.233-2.958-2.287-3.293-2.287-.496 0-2.972-2.592-3.481-3.643-.287-.593-.959-1.574-1.492-2.181-1.048-1.19-3.27-5.555-3.27-6.424 0-.292-.282-1.372-.627-2.399-.86-2.564-.943-10.513-.134-12.914.272-.805.616-2.015.766-2.688.149-.674 1.068-2.822 2.041-4.775 3.576-7.18 8.796-10.853 19.145-13.475.935-.236 4.76.045 5.643.416m59.193-.176c.754.217 2.161.505 3.127.64 1.917.268 1.916.268 4.632 1.501 7.84 3.561 14.302 11.786 14.302 18.204 0 .422.169 1.173.376 1.668.532 1.274.531 7.761-.001 8.782-.206.395-.375 1.086-.375 1.535 0 3.28-1.657 7.858-3.633 10.035-.5.552-1.27 1.453-1.711 2.003-1.755 2.192-5.371 5.335-6.594 5.732a6.2 6.2 0 00-1.354.674c-.719.501-3.356 1.641-5.015 2.166-2.919.926-10.89.679-13.15-.406a12.15 12.15 0 00-2.178-.746c-1.759-.389-2.269-.633-3.358-1.607-.55-.492-1.569-1.183-2.263-1.536-2.587-1.315-6.179-5.753-6.746-8.336-.361-1.64 1.957-4.002 2.673-2.724.113.202.595.853 1.071 1.446.476.592 1.201 1.712 1.612 2.487 1.458 2.755 7.641 6.787 11.304 7.371.621.099 1.573.393 2.116.653 1.37.655 4.673.657 6.05.004.543-.258 1.439-.548 1.991-.644 1.76-.305 5.694-2.213 6.973-3.381 3.884-3.546 6.882-7.042 7.088-8.266.185-1.1.852-3.041 1.201-3.498.364-.476.342-12.941-.024-13.381-.153-.185-.503-1.181-.779-2.214-.275-1.033-.791-2.442-1.146-3.132-.356-.69-.647-1.385-.647-1.546-.007-1.805-7.238-7.204-11.043-8.245-.893-.245-1.961-.613-2.375-.82-.587-.293-1.698-.37-5.067-.35l-4.316.025-3.334 1.668c-1.833.918-3.729 1.959-4.211 2.313-1.251.917-14.198 14.015-15.118 15.294-.422.586-.903 1.065-1.07 1.065-.166 0-.442.168-.612.374-.171.205-.41.311-.533.236-.295-.183-.287-4.051.009-4.234.128-.079.304-.472.392-.873.263-1.199 12.409-13.419 14.163-14.25.752-.357 1.824-1.066 2.382-1.577 1.719-1.575 5.05-3.037 7.91-3.472.897-.137 2.195-.417 2.884-.623 1.644-.491 2.726-.494 4.397-.015m113.572 4.487c.744.198 1.472.479 1.617.624.145.145.812.264 1.483.264 1.789 0 3.638.701 5.197 1.97.757.616 1.857 1.333 2.445 1.593.74.327 1.216.759 1.546 1.401.262.511.882 1.698 1.379 2.637.497.94.904 2.068.905 2.508.001.44.173 1.129.383 1.532.738 1.415.859 4.173.864 19.656l.005 15.622-.642.643c-1.42 1.42-9.389.572-9.389-.999 0-1.252-2.409-2.505-2.951-1.535-.228.408-2.025 1.422-5.565 3.14-2.532 1.229-4.725 1.541-8.632 1.227-3.222-.259-3.742-.444-8.934-3.172-1.35-.709-3.183-2.571-3.406-3.459-.088-.35-.26-.699-.383-.775-.123-.076-.223-.433-.223-.793 0-.36-.295-1.392-.655-2.293-.838-2.094-.792-5.225.102-7.074.304-.627.553-1.378.553-1.668 0-3.448 7.253-8.141 13.166-8.519 1.466-.094 2.589-.311 3.202-.619.985-.494 3.081-.866 6.704-1.191 1.172-.105 2.47-.313 2.884-.461a13.707 13.707 0 011.421-.416c.915-.199 1.844-1.693 1.478-2.376-.146-.272-.443-1.264-.661-2.205-.597-2.579-1.961-4.43-4.366-5.926-1.19-.74-11.715-.846-13.429-.136-3.658 1.517-6.803 2.256-7.165 1.686-.309-.488-.277-6.673.037-7.26.646-1.206 4.193-2.721 6.397-2.732.696-.003 1.382-.122 1.524-.264.925-.925 10.305-1.376 13.109-.63m32.153 1.211c.613.467 1.693 2.755 2.129 4.508.213.86.823 2.467 1.354 3.57.531 1.104 1.211 2.796 1.511 3.762a45.64 45.64 0 001.272 3.481c.401.948.728 1.971.728 2.272 0 .301.212.992.471 1.535 1.465 3.073 1.834 3.945 2.182 5.162.804 2.808 2.762 6.77 3.321 6.719.324-.029 1.723-2.15 1.904-2.884.099-.405.681-1.769 1.292-3.032.612-1.262 1.112-2.582 1.112-2.933 0-.35.395-1.504.878-2.563.483-1.06.878-2.124.878-2.366 0-.427.408-1.558 1.144-3.172.198-.435.361-1.016.361-1.292 0-.571 1.558-4.417 2.428-5.991.32-.578.581-1.326.581-1.662 0-1.08 1.823-5.062 2.423-5.293.971-.372 9.308-.15 9.462.253.267.695.166 1.324-.348 2.167-.275.452-.501 1.071-.502 1.376-.001.692-.73 2.558-1.973 5.053-.526 1.054-1.021 2.409-1.102 3.012-.08.603-.437 1.658-.793 2.343-.356.686-.647 1.402-.647 1.591 0 .602-.771 2.645-1.894 5.016-.598 1.263-1.161 2.624-1.251 3.022-.208.928-.88 2.801-1.295 3.609-.177.345-.322.884-.323 1.198-.002.561-2.342 5.972-2.785 6.438-.124.131-.226.543-.226.915s-.345 1.506-.767 2.52c-.422 1.015-.935 2.464-1.141 3.221-.206.757-.826 2.307-1.38 3.445-.553 1.137-1.232 2.886-1.509 3.886-.277 1.001-.715 2.215-.973 2.7-.257.484-.986 1.953-1.618 3.263-2.136 4.423-2.758 5.41-4.466 7.092-2.074 2.04-4.726 3.485-7.707 4.2-.483.115-1.544.444-2.359.729-1.008.353-2.104.518-3.434.518-2.682 0-2.734-.086-2.734-4.522 0-3.879.197-4.35 1.943-4.638 4.015-.663 6.526-2.771 8.651-7.264.392-.828.934-1.924 1.204-2.434.641-1.212.617-1.95-.138-4.175-.344-1.013-.625-1.95-.625-2.083 0-.235-.224-.753-1.877-4.351-.443-.965-.953-2.319-1.133-3.009-.179-.69-.466-1.536-.637-1.881-1.172-2.366-1.904-4.073-2.258-5.266-.226-.759-.7-2.054-1.054-2.878-.354-.824-.745-1.952-.869-2.508-.124-.555-.492-1.574-.818-2.263l-1.491-3.161c-.494-1.049-.898-2.186-.898-2.527 0-.341-.564-1.765-1.253-3.164-.689-1.399-1.382-3.083-1.54-3.743-.269-1.122-1.296-3.614-2.113-5.124-.371-.686-.49-2.256-.193-2.553.32-.32 10.46-.175 10.895.156m-237.039 3.305c2.278.606 3.004 2.212 1.619 3.582l-.721.713-2.335-.246c-4.957-.521-7.368.199-10.274 3.067-3.278 3.236-3.092 2.051-3.284 20.891-.18 17.707-.039 16.693-2.278 16.44-2.144-.241-2.017.773-2.015-16.065.001-16.242.047-16.876 1.418-19.685 1.686-3.455 6.511-7.808 8.659-7.812.319-.001 1.257-.28 2.084-.621 1.786-.736 4.919-.852 7.127-.264m32.246-.022c1.403.381 4.563 1.782 5.141 2.28.207.178.659.406 1.004.505.672.195 3.51 2.826 3.511 3.256.001.142.371.88.822 1.638.452.759 1.157 2.169 1.567 3.135l.745 1.755v31.016l-.592.48c-.758.614-2.07.614-2.828 0l-.592-.479-.126-15.508-.125-15.509-1.089-2.217c-1.375-2.799-2.402-3.822-5.202-5.179l-2.236-1.083-3.009-.02c-2.631-.017-3.153.051-4.154.541-.63.308-1.243.56-1.362.56-1.199 0-5.142 3.959-5.142 5.163 0 .108-.24.692-.533 1.297-1.53 3.161-.781 12.519 1.169 14.606 3.105 3.322 3.657 3.728 6.958 5.118 1.498.63 6.575.562 7.578-.102 1.419-.94 2.484-.55 2.43.89-.061 1.633-1.85 3.124-3.744 3.121-.381-.001-1.23.192-1.887.427-1.032.37-1.34.384-2.257.105-.584-.177-1.801-.407-2.705-.511-2.439-.279-6.38-2.512-7.752-4.393a68.4 68.4 0 00-1.488-1.879c-2.577-3.163-3.288-5.6-3.284-11.252.003-4.798.434-6.403 2.869-10.695 2.866-5.052 10.904-8.533 16.313-7.066m60.15.031c.711.207 2.082.787 3.048 1.289.965.501 2.207 1.139 2.759 1.417 1.215.612 3.262 2.531 3.801 3.563.216.414.723 1.429 1.127 2.257.404.827.86 1.728 1.013 2 1.183 2.108 1.386 10.011.328 12.82-.345.916-.627 1.882-.627 2.146 0 2.935-7.138 9.238-11.034 9.743-.897.116-2.108.356-2.693.532-.915.277-1.227.262-2.257-.107-.657-.235-1.59-.426-2.072-.424-3.564.015-11.286-6.86-11.286-10.049 0-.261-.18-.926-.4-1.477-.455-1.135-.139-1.923 1.337-3.335.984-.941 1.287-.657 2.605 2.439 4.758 11.176 15.563 12.035 22.168 1.762.442-.687.484-1.253.486-6.52l.002-5.768-1.078-2.132c-3.251-6.43-11.791-8.228-17.979-3.784-1.945 1.397-10.455 10.201-11.469 11.865-.519.852-2.268 2.951-3.887 4.666-2.991 3.167-4.069 4.542-4.695 5.99-.236.548-.575.856-1.054.962-.389.085-.838.195-.999.243-.44.133-.585-.482-.585-2.48 0-2.465.403-3.16 4.077-7.021 2.807-2.95 4.446-4.978 4.448-5.505.002-.278 7.64-8.108 10.66-10.926.414-.386 1.26-.981 1.881-1.322l1.63-.896c4.065-2.247 7.551-2.879 10.745-1.948m111.386 22.927c-1.103.08-2.232.274-2.507.43-.276.156-1.518.473-2.759.706-4.878.912-8.401 3.864-8.401 7.038 0 1.858 2.627 5.832 4.298 6.501 2.517 1.007 11.25-.034 11.25-1.341 0-.088.393-.372.873-.63.48-.259.937-.673 1.016-.922.079-.249.335-.514.569-.59 1.168-.378 1.555-1.88 1.555-6.029 0-5.727.139-5.604-5.894-5.163" fill="#fff"/><rect stroke-opacity=".07" stroke="#000" fill="none" ry="21.8" rx="21.8" height="240.347" width="389.473" y="6" x="6" stroke-width="10.9"/></svg>