<svg width="38" height="24" viewBox="0 0 38 24" fill="none" xmlns="http://www.w3.org/2000/svg"><rect width="38" height="24" rx="3" fill="#fff"/><g clip-path="url(#clip0_1477_7951)" fill-rule="evenodd" clip-rule="evenodd"><path d="M23.654 9.085h-2.251a.212.212 0 00-.213.215v5.018a.212.212 0 00.213.215h.76c.056 0 .11-.023.15-.063a.216.216 0 00.063-.152V12.57h1.285c.602 0 1.067-.155 1.393-.463.327-.309.49-.737.49-1.284 0-.545-.163-.971-.49-1.278-.326-.307-.793-.46-1.4-.46zm-.194 2.557h-1.079V10.02h1.079c.629 0 .942.268.941.803 0 .536-.314.809-.941.82zm5.858-.904h-.714a.212.212 0 00-.212.215v.355a1.147 1.147 0 00-.471-.472 1.44 1.44 0 00-.715-.177c-.302-.006-.6.077-.857.24-.25.166-.448.402-.571.678-.145.331-.216.69-.207 1.052-.009.362.062.722.207 1.054.122.28.32.518.571.688.256.164.554.25.857.244.25.004.496-.058.715-.179a1.13 1.13 0 00.471-.479v.358c0 .057.022.111.062.151.04.04.093.063.15.064h.714a.216.216 0 00.211-.215v-3.362a.216.216 0 00-.211-.215zm-1.162 2.74a.76.76 0 01-.601.27.745.745 0 01-.591-.277c-.153-.18-.229-.46-.229-.842 0-.382.076-.659.229-.83a.757.757 0 01.597-.268.761.761 0 01.601.267c.156.178.234.455.233.83-.001.377-.079.658-.233.843l-.006.007zm4.956-2.74h.677a.21.21 0 01.175.093.215.215 0 01.024.198l-2.084 4.76a.215.215 0 01-.195.128h-.714a.211.211 0 01-.179-.098.216.216 0 01-.015-.205l.583-1.298-1.416-3.284a.217.217 0 01.093-.275.211.211 0 01.101-.026h.749a.21.21 0 01.197.144l.889 2.274.918-2.277a.214.214 0 01.197-.134z" fill="url(#paint0_linear_1477_7951)"/><path d="M18.036 9.573a.57.57 0 01-.568.574.57.57 0 01-.568-.574.57.57 0 01.568-.573.57.57 0 01.568.573zM6.864 11.528H8.58a.216.216 0 01.213.213v2.332a.215.215 0 01-.122.194 3.962 3.962 0 01-.797.251c-.342.072-.69.108-1.04.108a3.174 3.174 0 01-1.549-.354c-.409-.22-.743-.56-.96-.974a3.11 3.11 0 01-.33-1.468 3.125 3.125 0 01.342-1.5 2.38 2.38 0 01.983-.98 3.203 3.203 0 011.551-.348c.365-.003.728.052 1.076.161.245.075.479.185.693.329a.212.212 0 01.074.258l-.22.54a.216.216 0 01-.224.13.213.213 0 01-.086-.031 2.19 2.19 0 00-.509-.232 2.7 2.7 0 00-.795-.113c-.546 0-.962.155-1.229.46-.267.306-.41.745-.41 1.326 0 .581.139 1.017.417 1.321.279.304.69.449 1.237.449.311-.005.62-.054.917-.145V12.39h-.95a.216.216 0 01-.213-.215v-.432a.217.217 0 01.134-.198.211.211 0 01.082-.016zm13.62 2.135c.026-.002.053-.004.08-.004.199 0 .137.708.137.708a.216.216 0 01-.171.207 2.18 2.18 0 01-.429.044c-.492 0-.84-.129-1.064-.382-.225-.256-.337-.636-.337-1.141V9.299a.217.217 0 01.131-.199.21.21 0 01.082-.016h.731a.212.212 0 01.212.215v3.75c0 .412.181.618.544.618.028 0 .056-.002.083-.004zm-8.72-3.01l-.124.008c-.588.047-.969.291-1.143.735v-.443a.216.216 0 00-.062-.152.212.212 0 00-.15-.063H9.57a.212.212 0 00-.15.063.216.216 0 00-.063.152v3.365a.212.212 0 00.213.215h.753a.212.212 0 00.213-.215V12.57c0-.531.285-.825.857-.882l.447-.047a.21.21 0 00.14-.075.215.215 0 00.049-.153l-.039-.561a.215.215 0 00-.072-.146.211.211 0 00-.154-.053zm3.541.085h.714c.057 0 .11.023.15.063.04.04.062.095.062.152v3.362a.216.216 0 01-.062.151.212.212 0 01-.15.064h-.714a.212.212 0 01-.211-.215v-.358a1.13 1.13 0 01-.472.48 1.426 1.426 0 01-.714.178 1.538 1.538 0 01-.857-.244 1.61 1.61 0 01-.572-.688 2.49 2.49 0 01-.207-1.054c-.008-.362.062-.72.207-1.052.123-.276.321-.512.572-.679.256-.162.554-.245.857-.24.25-.003.495.058.714.178.2.107.364.27.472.472v-.355a.212.212 0 01.211-.215zm-.717 2.944a.76.76 0 00.27-.204l.005-.007c.155-.185.232-.466.233-.842.001-.376-.076-.653-.232-.83a.766.766 0 00-.602-.268.753.753 0 00-.597.267c-.152.172-.229.45-.229.83 0 .383.077.663.229.843a.751.751 0 00.591.277.754.754 0 00.332-.066zm3.255-2.944h-.73a.214.214 0 00-.213.215v3.363c0 .119.095.215.213.215h.73a.214.214 0 00.213-.215v-3.363a.214.214 0 00-.213-.215z" fill="#1B1B1B"/></g><rect x=".5" y=".5" width="37" height="23" rx="2.5" stroke="#000" stroke-opacity=".07"/><defs><linearGradient id="paint0_linear_1477_7951" x1="27.596" y1="9.085" x2="23.341" y2="17.064" gradientUnits="userSpaceOnUse"><stop stop-color="#00D145"/><stop offset="1" stop-color="#00A035"/></linearGradient><clipPath id="clip0_1477_7951"><path fill="#fff" transform="translate(4 9)" d="M0 0h30v6.923H0z"/></clipPath></defs></svg>