<svg xmlns="http://www.w3.org/2000/svg" width="38" height="24" fill="none" aria-labelledby="pi-grailpay" role="img" viewBox="0 0 38 24"><title id="pi-grailpay">GrailPay</title><path fill="#fff" d="M0 0h38v24H0z"/><path fill="#041427" d="M20.382 13.533c-.048 0-.627.13-.627-.53V9.756a.187.187 0 0 0-.188-.186h-.646a.187.187 0 0 0-.188.186v3.29c0 1.318 1.029 1.377 1.625 1.28a.184.184 0 0 0 .151-.18s.048-.612-.127-.612zM9.051 11.685h-1.52a.2.2 0 0 0-.133.054.19.19 0 0 0-.055.132v.378c0 .102.084.186.188.186h.841v.924c-1.707.561-2.307-.58-2.275-1.413.09-2.377 2.456-1.337 2.604-1.249.1.06.23.02.274-.086l.195-.467a.184.184 0 0 0-.066-.224c-.474-.38-1.917-.657-2.932-.124S5 11.446 5 11.946c0 .486.212 1.62 1.141 2.116 1.148.612 2.781.082 2.99-.01a.18.18 0 0 0 .108-.169v-2.012a.187.187 0 0 0-.188-.186m3.033-.758s-.851 0-1.126.644v-.383a.187.187 0 0 0-.188-.186h-.626a.19.19 0 0 0-.173.114.2.2 0 0 0-.015.072v2.916c0 .102.084.186.188.186h.666a.187.187 0 0 0 .188-.186v-1.515c-.021-.898 1.154-.805 1.154-.805.1-.01.175-.098.168-.198l-.035-.486a.187.187 0 0 0-.2-.173zm3.884.075h-.626a.19.19 0 0 0-.173.114.2.2 0 0 0-.015.072v.31c-.09-.17-.386-.563-1.05-.563s-1.456.477-1.456 1.707.821 1.721 1.456 1.721.96-.395 1.05-.569v.31c0 .102.084.186.188.186h.626a.187.187 0 0 0 .188-.186v-2.916a.187.187 0 0 0-.188-.186m-1.56 2.605c-.626 0-.73-.634-.73-.965 0-.836.514-.95.73-.95.663 0 .739.624.739.95 0 .33-.076.965-.738.965zm3.323-2.605h-.646a.19.19 0 0 0-.173.114.2.2 0 0 0-.015.072v2.916c0 .102.084.186.188.186h.646a.187.187 0 0 0 .188-.186v-2.916a.187.187 0 0 0-.188-.186m-.323-.283c.32 0 .581-.258.581-.575a.58.58 0 0 0-.581-.575.58.58 0 0 0-.581.575c0 .317.26.575.581.575"/><path fill="url(#pi-grailpay-a)" d="M23.422 9.569H21.43a.187.187 0 0 0-.188.186v4.349c0 .102.084.185.188.185h.673a.19.19 0 0 0 .188-.185v-1.515h1.13c.534 0 1.667-.226 1.667-1.514S23.955 9.57 23.422 9.57zm-.176 2.216h-.955v-1.406h.955q.833 0 .833.696 0 .71-.833.71"/><path fill="url(#pi-grailpay-b)" d="M28.65 11.002h-.626a.19.19 0 0 0-.173.114.2.2 0 0 0-.015.072v.31c-.09-.17-.43-.563-1.05-.563s-1.455.44-1.455 1.707.852 1.721 1.455 1.721.96-.395 1.05-.57v.31c0 .103.084.186.188.186h.626a.187.187 0 0 0 .188-.185v-2.916a.187.187 0 0 0-.188-.186m-1.559 2.605c-.648 0-.731-.634-.731-.965 0-.326.082-.95.731-.95s.738.624.738.95c0 .33-.09.965-.738.965"/><path fill="url(#pi-grailpay-c)" d="M32.812 11.002h-.6a.19.19 0 0 0-.175.115l-.812 1.974-.786-1.972a.19.19 0 0 0-.175-.117h-.662a.18.18 0 0 0-.157.083.19.19 0 0 0-.015.177l1.253 2.847-.516 1.123a.187.187 0 0 0 .172.263h.628a.19.19 0 0 0 .172-.11l1.845-4.122a.187.187 0 0 0-.172-.261"/><defs><linearGradient id="pi-grailpay-a" x1="20.332" x2="31.441" y1="12.559" y2="7.682" gradientUnits="userSpaceOnUse"><stop stop-color="#00A035"/><stop offset="1" stop-color="#00D145"/></linearGradient><linearGradient id="pi-grailpay-b" x1="21.524" x2="32.633" y1="15.276" y2="10.399" gradientUnits="userSpaceOnUse"><stop stop-color="#00A035"/><stop offset="1" stop-color="#00D145"/></linearGradient><linearGradient id="pi-grailpay-c" x1="22.194" x2="33.303" y1="16.8" y2="11.923" gradientUnits="userSpaceOnUse"><stop stop-color="#00A035"/><stop offset="1" stop-color="#00D145"/></linearGradient></defs></svg>