<svg xmlns="http://www.w3.org/2000/svg" fill="none" viewBox="0 0 38 24" height="24" width="38" aria-labelledby="pi-gusd" role="img"><title id="pi-gusd">Gemini Dollar</title><path fill="#fff" d="M0 0h38v24H0z"/><path fill="#00DFFE" d="M19 20a8 8 0 1 0 0-16 8 8 0 0 0 0 16Z"/><path fill="#fff" fill-rule="evenodd" d="M20.474 7.2a3.345 3.345 0 0 0-3.304 2.97 3.345 3.345 0 0 0-2.97 3.304 3.328 3.328 0 0 0 3.326 3.326 3.34 3.34 0 0 0 3.304-2.97 3.345 3.345 0 0 0 2.97-3.304A3.328 3.328 0 0 0 20.474 7.2Zm2.547 3.699a2.588 2.588 0 0 1-2.169 2.168V10.9h2.169v-.001ZM14.979 13.1a2.588 2.588 0 0 1 2.169-2.174v2.168h-2.169v.006Zm5.094.751a2.572 2.572 0 0 1-2.547 2.197 2.572 2.572 0 0 1-2.547-2.197h5.094ZM20.1 10.9v2.197h-2.2V10.9h2.2Zm2.92-.751h-5.094a2.572 2.572 0 0 1 2.547-2.197c1.282 0 2.36.937 2.547 2.197Z" clip-rule="evenodd"/></svg>