<svg xmlns="http://www.w3.org/2000/svg" width="38" height="24" fill="none" aria-labelledby="pi-hana_card" role="img" viewBox="0 0 38 24"><title id="pi-hana_card">Hana Card</title><path fill="#fff" d="M0 0h38v24H0z"/><path fill="#ED1550" d="M20.116 4.716a1.658 1.658 0 0 1-3.315 0c0-.916.73-1.61 1.657-1.707.244-.025.878 0 1.073.098.104.064.292.244.244.439a.7.7 0 0 0 .097.39c.155.252.244.462.244.78" opacity=".72"/><path fill="#009B90" fill-rule="evenodd" d="M11.877 10.371C10.916 10.08 9 9.143 9 7.738c0-1.605 1.876-1.17 2.57-1.01l.16.035.087.018c.73.15 4.162.853 8.348.714 1.43-.052 4.739-.35 6.533-1.131 1.794-.78 2.21-.611 2.194-.43.195.44-.39.83-1.658 1.56-1.268.732-3.315 1.415-5.607 1.805-1.833.312-6.581.975-9.75 1.072m4.777 6.387c.537 0 .927-.439.83-1.121l-.043-.259c-.11-.644-.241-1.421.53-1.935.877-.585 1.643.292 1.706 1.17l.002.027c.05.702.18 2.5-.88 5.628-.363 1.073.927 1.089 1.853-.78.488-.78 1.463-2.818 1.463-4.729 0-2.389-1.268-3.559-2.78-4.047-1.51-.487-2.924.39-3.46 1.073-.537.683-.927 1.414-.878 2.584s.487 2.389 1.657 2.389" clip-rule="evenodd"/></svg>