<svg xmlns="http://www.w3.org/2000/svg" width="38" height="24" fill="none" aria-labelledby="pi-handelsbanken" role="img" viewBox="0 0 38 24"><title id="pi-handelsbanken">Handelsbanken</title><path fill="#005C9B" d="M0 0h38v24H0z"/><path fill="#fff" d="M11.75 3.31v6.55h6.91V3.31h3.75v17.07h-3.75V13h-6.91v7.37H8V3.31zm13.6 6.52a4.14 4.14 0 0 1 1.33-1.27 6 6 0 0 1 1.83-.68c.658-.133 1.328-.2 2-.2q.95 0 1.89.13a5.9 5.9 0 0 1 1.74.51c.513.243.957.61 1.29 1.07a2.9 2.9 0 0 1 .51 1.8v8a4.6 4.6 0 0 0 .14 1.15h-3.22a3.4 3.4 0 0 1-.1-.5v-.7a4.5 4.5 0 0 1-1.91 1.18c-.73.22-1.488.33-2.25.33a6 6 0 0 1-1.64-.21 3.9 3.9 0 0 1-1.34-.67 3.3 3.3 0 0 1-.9-1.15 4 4 0 0 1-.36-1.62 3.55 3.55 0 0 1 .37-1.73 3.1 3.1 0 0 1 1-1.09 4.4 4.4 0 0 1 1.27-.61 13 13 0 0 1 1.52-.32c.51-.08 1-.15 1.5-.19q.668-.06 1.32-.22a2.5 2.5 0 0 0 .91-.42.94.94 0 0 0 .31-.8c.015-.3-.047-.6-.18-.87a1.3 1.3 0 0 0-.48-.51 1.9 1.9 0 0 0-.69-.24 5.5 5.5 0 0 0-.84-.06 2.53 2.53 0 0 0-1.57.44 1.9 1.9 0 0 0-.67 1.44h-3.4a4 4 0 0 1 .62-1.99m6.65 4.8a6 6 0 0 1-.69.18q-.37.07-.78.12l-.81.12q-.38.075-.75.19a2.4 2.4 0 0 0-.64.32 1.6 1.6 0 0 0-.44.52 1.85 1.85 0 0 0 0 1.55c.103.201.258.37.45.49.206.125.433.21.67.25a4 4 0 0 0 .78.07 3 3 0 0 0 1.55-.33 2.2 2.2 0 0 0 .81-.8 2.5 2.5 0 0 0 .33-.95 7 7 0 0 0 .06-.76v-1.27a1.6 1.6 0 0 1-.54.3"/></svg>