<svg xmlns="http://www.w3.org/2000/svg" fill="none" viewBox="0 0 38 24" height="24" width="38" aria-labelledby="pi-handelsbanken" role="img"><title id="pi-handelsbanken">Handelsbanken</title><path fill="#005C9B" d="M0 0h38v24H0z"/><path fill="#fff" d="M11.75 3.31v6.55h6.91V3.31h3.75v17.07h-3.75V13h-6.91v7.37H8V3.31h3.75Zm13.6 6.52a4.14 4.14 0 0 1 1.33-1.27 6.07 6.07 0 0 1 1.83-.68c.658-.133 1.328-.2 2-.2.632 0 1.264.043 1.89.13a5.88 5.88 0 0 1 1.74.51c.513.243.957.61 1.29 1.07a2.91 2.91 0 0 1 .51 1.8v8a4.63 4.63 0 0 0 .14 1.15h-3.22a3.363 3.363 0 0 1-.1-.5v-.7a4.49 4.49 0 0 1-1.91 1.18c-.73.22-1.488.33-2.25.33a6.082 6.082 0 0 1-1.64-.21 3.92 3.92 0 0 1-1.34-.67 3.29 3.29 0 0 1-.9-1.15 4 4 0 0 1-.36-1.62 3.55 3.55 0 0 1 .37-1.73 3.09 3.09 0 0 1 1-1.09 4.38 4.38 0 0 1 1.27-.61 13.24 13.24 0 0 1 1.52-.32c.51-.08 1-.15 1.5-.19.445-.04.886-.113 1.32-.22a2.48 2.48 0 0 0 .91-.42.94.94 0 0 0 .31-.8c.015-.3-.047-.6-.18-.87a1.31 1.31 0 0 0-.48-.51 1.879 1.879 0 0 0-.69-.24 5.53 5.53 0 0 0-.84-.06 2.53 2.53 0 0 0-1.57.44 1.9 1.9 0 0 0-.67 1.44h-3.4a4 4 0 0 1 .62-1.99Zm6.65 4.8a6.29 6.29 0 0 1-.69.18c-.247.047-.507.087-.78.12l-.81.12c-.253.05-.504.113-.75.19a2.399 2.399 0 0 0-.64.32 1.59 1.59 0 0 0-.44.52 1.85 1.85 0 0 0 0 1.55c.103.201.258.37.45.49.206.125.433.21.67.25a4 4 0 0 0 .78.07 3 3 0 0 0 1.55-.33 2.22 2.22 0 0 0 .81-.8 2.51 2.51 0 0 0 .33-.95 6.45 6.45 0 0 0 .06-.76v-1.27a1.57 1.57 0 0 1-.54.3Z"/></svg>