<svg xmlns="http://www.w3.org/2000/svg" fill="none" viewBox="0 0 38 24" height="24" width="38" aria-labelledby="pi-happypay" role="img"><title id="pi-happypay">Happy Pay</title><path fill="#FCDD5E" d="M0 0h38v24H0z"/><path fill="#181C22" d="M9.17 7.8v3.22h-.65V9.65H7.14v1.37h-.65V7.8h.65v1.32h1.38V7.8h.65Zm2.4 1.54a.665.665 0 0 0-1.17 0c-.06.11-.09.25-.09.4 0 .15.03.29.09.4.06.12.15.2.25.27.1.06.21.09.33.09.12 0 .23-.03.34-.09.1-.06.19-.15.25-.26.06-.11.09-.25.09-.4 0-.15-.03-.29-.09-.4v-.01ZM9.8 9.05a1.102 1.102 0 0 1 1.01-.62 1 1 0 0 1 .5.12c.14.08.26.17.34.29v-.37h.65v2.56h-.65v-.37a.996.996 0 0 1-.85.42 1.13 1.13 0 0 1-1.01-.64c-.1-.2-.15-.43-.15-.7 0-.27.05-.49.15-.69h.01Zm5.05.28a.665.665 0 0 0-1.17 0c-.06.11-.09.25-.09.4 0 .15.03.29.09.4.06.11.15.2.25.26.12.07.26.1.4.09.06 0 .11-.02.16-.04.15-.06.27-.16.35-.31.06-.11.09-.25.09-.41 0-.16-.03-.29-.09-.4l.01.01Zm-.92-.8c.15-.08.31-.12.5-.12.22 0 .42.05.59.16.18.11.32.26.42.46.1.2.15.43.15.69 0 .26-.05.49-.15.7a1.13 1.13 0 0 1-1.01.64c-.19 0-.35-.04-.5-.12a1.11 1.11 0 0 1-.35-.29v1.59h-.65V8.46h.65v.37c.08-.12.2-.22.34-.29l.01-.01Zm4.06.8a.665.665 0 0 0-1.17 0c-.06.11-.09.25-.09.4 0 .15.03.29.09.4.06.11.15.2.25.26.12.07.26.1.4.09.06 0 .11-.02.16-.04.15-.06.27-.16.35-.31.06-.11.09-.25.09-.41 0-.16-.03-.29-.09-.4l.01.01Zm-.92-.8c.15-.08.31-.12.5-.12.22 0 .42.05.59.16.18.11.32.26.42.46.1.2.15.43.15.69 0 .26-.05.49-.15.7a1.13 1.13 0 0 1-1.01.64c-.19 0-.35-.04-.5-.12a1.11 1.11 0 0 1-.35-.29v1.59h-.65V8.46h.65v.37c.08-.12.2-.22.34-.29l.01-.01Zm4.59-.07-1.58 3.78h-.69l.55-1.28-1.02-2.5h.72l.66 1.79.67-1.79h.69Zm3.01.68c.09-.08.13-.2.13-.34 0-.31-.18-.47-.53-.47h-.51v.94h.51c.18 0 .31-.04.4-.12v-.01Zm.67.14c-.08.15-.21.27-.38.37-.17.09-.39.14-.66.14h-.54v1.24h-.65V7.8h1.19c.25 0 .46.04.64.13s.31.21.4.36c.09.15.13.32.13.51 0 .17-.04.33-.12.49l-.01-.01Zm2.34.06a.665.665 0 0 0-1.17 0c-.06.11-.09.25-.09.4 0 .15.03.29.09.4.06.12.15.2.25.27.1.06.21.09.33.09.12 0 .23-.03.34-.09.1-.06.19-.15.25-.26.06-.11.09-.25.09-.4 0-.15-.03-.29-.09-.4v-.01Zm-1.77-.29a1.102 1.102 0 0 1 1.01-.62 1 1 0 0 1 .5.12c.14.08.26.17.34.29v-.37h.65v2.56h-.65v-.37a.996.996 0 0 1-.85.42 1.13 1.13 0 0 1-1.01-.64c-.1-.2-.15-.43-.15-.7 0-.27.05-.49.15-.69h.01Zm5.6-.59-1.59 3.78h-.69l.56-1.28-1.03-2.5h.73l.66 1.79.67-1.79h.69ZM18.13 16.2c-1.93 0-3.73-.97-4.8-2.6a.31.31 0 0 1 .09-.44c.15-.1.35-.06.44.09a5.093 5.093 0 0 0 4.27 2.31c2.03 0 3.87-1.21 4.69-3.09a.31.31 0 0 1 .42-.16c.16.07.24.26.16.42a5.761 5.761 0 0 1-5.28 3.47h.01Z"/></svg>