<?xml version="1.0" encoding="utf-8"?>
<svg viewBox="0 0 38 24" width="38" height="24" role="img" aria-labelledby="pi-laybuy" xmlns="http://www.w3.org/2000/svg">
  <title id="pi-heart">Laybuy</title>
  <path d="M 17.273 2.079 L 14.628 4.751 C 14.438 4.943 14.181 4.751 14.181 4.751 L 10.793 1.268 C 9.718 0.169 7.913 0.169 6.837 1.268 C 5.749 2.367 5.749 4.166 6.837 5.266 L 12.456 10.944 C 13.531 12.043 15.337 12.043 16.412 10.944 L 21.115 6.193 L 21.939 5.338 C 22.493 4.768 23.427 4.768 23.981 5.338 C 24.546 5.908 24.533 6.787 23.969 7.357 L 23.121 8.22 L 14.578 16.853 C 14.316 17.117 14.063 16.854 14.063 16.854 L 4.773 7.467 C 3.697 6.368 1.892 6.368 0.817 7.467 C -0.272 8.567 -0.272 10.365 0.817 11.465 L 12.399 23.168 L 12.337 23.114 C 13.413 24.213 15.219 24.213 16.294 23.114 L 27.078 12.218 L 27.192 12.102 C 29.936 9.33 29.951 4.85 27.207 2.079 C 24.463 -0.692 20.015 -0.692 17.273 2.079" fill="currentColor" style="fill: var(--color, #786DFF);"/>
</svg>