<svg xmlns="http://www.w3.org/2000/svg" width="38" height="24" fill="none" aria-labelledby="pi-helloclever" role="img" viewBox="0 0 38 24"><title id="pi-helloclever">Hello Clever</title><path fill="#fff" d="M0 0h38v24H0z"/><path fill="#3E64FF" d="M9.408 17.541a5.132 5.132 0 1 0 0-10.264 5.132 5.132 0 0 0 0 10.264"/><path fill="#00F9FF" d="M8.762 12.89a.113.113 0 0 0 .183-.049l.778-2.985a.106.106 0 0 0-.077-.13.1.1 0 0 0-.056 0l-2.943.79a.11.11 0 0 0-.077.075.11.11 0 0 0 .026.103z"/><path fill="#fff" d="M10.052 11.926a.11.11 0 0 0-.153.002.1.1 0 0 0-.03.047L9.09 14.96a.106.106 0 0 0 .077.13.1.1 0 0 0 .056 0l2.944-.79a.11.11 0 0 0 .077-.075.11.11 0 0 0-.027-.103l-2.166-2.196z"/><path fill="#1F253A" d="M23.629 11.995h-.541V8.113l.541.33zm1.107 0h-.542V8.113l.542.33zm-2.209-1.418q-.001.132-.025.261h-2.239a.7.7 0 0 0 .295.466q.229.153.56.153.484 0 .78-.266l.453.266q-.171.257-.526.393t-.706.136a1.36 1.36 0 0 1-1.002-.408 1.36 1.36 0 0 1-.407-1.001q0-.579.415-.994t.994-.415q.578 0 .993.415t.415.994m-2.249-.267h1.68a.82.82 0 0 0-.316-.443.89.89 0 0 0-1.046 0 .82.82 0 0 0-.318.443m6.442 1.676a1.5 1.5 0 0 1-.74-.181 1.3 1.3 0 0 1-.5-.5 1.5 1.5 0 0 1-.18-.732q0-.41.18-.724c.117-.208.29-.38.5-.494a1.5 1.5 0 0 1 .74-.179q.42 0 .738.18.323.176.5.493.183.315.182.724 0 .413-.181.732-.18.318-.5.5c-.226.124-.48.187-.738.181zm0-.476q.255 0 .45-.115a.8.8 0 0 0 .304-.325q.11-.213.11-.497 0-.28-.11-.488a.8.8 0 0 0-.304-.32.9.9 0 0 0-.45-.113.9.9 0 0 0-.449.113.8.8 0 0 0-.304.32 1 1 0 0 0-.11.488q0 .284.11.497a.81.81 0 0 0 .754.44zm-8.113.49v-1.468q0-.355-.146-.539-.144-.183-.474-.183a.8.8 0 0 0-.383.087.63.63 0 0 0-.337.583l-.253-.104a1.01 1.01 0 0 1 .543-.914q.255-.139.584-.139.476 0 .74.286.265.282.265.79V12zm-1.879 0V8.12h.539V12zm1.406 3.937a.88.88 0 0 0 .79-.488l.47.236a1.4 1.4 0 0 1-1.26.78q-.583 0-.996-.412a1.36 1.36 0 0 1-.413-.997q0-.583.413-.996t.996-.413a1.4 1.4 0 0 1 1.259.78l-.468.237a.88.88 0 0 0-.79-.489.85.85 0 0 0-.625.257.85.85 0 0 0-.257.624.85.85 0 0 0 .257.625q.257.257.624.256m13.2.519v.01h-.522s.003-.814 0-1.289c0 0-.014-.331.038-.523q.15-.565.657-.856a1.4 1.4 0 0 1 1.48.046l-.288.439a.88.88 0 0 0-.928-.027.85.85 0 0 0-.413.534c-.028.104-.024.135-.024.388zm-10.84.009h-.541v-3.882l.541.33zm3.376-1.418q0 .132-.024.261h-2.24a.7.7 0 0 0 .295.466q.23.154.561.154.483 0 .78-.267l.453.267q-.171.255-.526.392-.354.136-.707.136a1.36 1.36 0 0 1-1.001-.408 1.36 1.36 0 0 1-.407-1.001q0-.579.415-.994.414-.415.993-.415c.579 0 .717.138.994.415q.415.415.415.994zm-2.248-.267h1.68a.82.82 0 0 0-.316-.443.885.885 0 0 0-1.364.443m4.031.992.845-2.134h.563l-1.142 2.818h-.528l-1.147-2.818h.568l.126.33zm4.599-.725q-.001.132-.025.261h-2.239a.7.7 0 0 0 .294.466q.23.154.561.154.483 0 .78-.267l.453.267q-.172.255-.526.392-.354.136-.707.136a1.36 1.36 0 0 1-1-.408 1.36 1.36 0 0 1-.408-1.001q0-.579.415-.994t.993-.415q.579 0 .994.415t.415.994m-2.249-.267h1.68a.82.82 0 0 0-.316-.443.885.885 0 0 0-1.364.443"/></svg>