<svg width="38" height="24" viewBox="0 0 38 24" fill="none" role="img" aria-labelledby="pi-heylight-red" xmlns="http://www.w3.org/2000/svg"><title id="pi-heylight">HeyLight</title><rect width="38" height="24" rx="2" fill="#fff"/><rect x=".5" y=".5" width="37" height="23" rx="1.5" stroke="#000" stroke-opacity=".07"/><mask id="pi-heylight-mask0_950_562" style="mask-type:luminance" maskUnits="userSpaceOnUse" x="4" y="9" width="30" height="7"><path d="M34 9H4v7h30V9z" fill="#fff"/></mask><g mask="url(#mask0_950_562)"><mask id="pi-heylight-mask1_950_562" style="mask-type:luminance" maskUnits="userSpaceOnUse" x="4" y="9" width="30" height="7"><path d="M34 9H4v7h30V9z" fill="#fff"/></mask><g mask="url(#mask1_950_562)" fill="#000"><path d="M15.218 13.95l-1.213-3.468h-.88l1.425 4.036h.532l-.259.701h-1.337v.706h1.05c.633 0 .97-.327 1.145-.82l1.64-4.623h-.878l-1.225 3.468zM21.838 9a.571.571 0 00-.573.561c0 .314.26.568.573.568a.575.575 0 00.581-.568.573.573 0 00-.581-.561zM22.265 10.482h-.854v4.036h.854v-4.036zM34 11.19v-.71h-1.076V9.073h-.854v1.409h-.683v.709h.683v2.209c0 .652.483 1.12 1.142 1.12H34v-.708h-1.076V11.19H34zM18.537 9.072h-.876v5.446h3.309v-.777h-2.433V9.073zM29.613 10.406c-.702 0-1.175.33-1.349.825V9.072h-.861v5.446h.861v-2.04c0-.833.394-1.351 1.134-1.351.602 0 .892.343.892.983v2.408h.86v-2.46c0-1.028-.556-1.652-1.537-1.652zM11.27 10.406c-1.218 0-2.034.77-2.034 2.1 0 1.333.83 2.083 2.068 2.083 1.288 0 1.78-.815 1.881-1.418h-.859c-.073.376-.292.715-.99.715-.784 0-1.194-.43-1.22-1.125h3.072v-.386c0-1.12-.65-1.969-1.919-1.969zM10.115 12.1c.023-.483.312-.987 1.119-.987.807 0 1.099.504 1.121.987h-2.24zM7.858 11.354H4.884V9.072H4v5.446h.884v-2.384h2.974v2.384h.884V9.072h-.884v2.282zM25.99 11.164c-.265-.473-.75-.758-1.394-.758-.94 0-1.875.602-1.875 1.97 0 1.37.934 1.964 1.88 1.964.654 0 1.156-.284 1.34-.779v.612c0 .719-.307 1.111-1.163 1.111-.702 0-1.005-.261-1.074-.765h-.957c.09.924.785 1.481 2.005 1.481 1.348 0 2.05-.681 2.05-1.871v-3.647h-.654l-.157.682zm-1.221 2.464c-.628 0-1.192-.345-1.192-1.249 0-.902.564-1.251 1.192-1.251s1.195.342 1.195 1.244c0 .904-.567 1.256-1.195 1.256z"/></g></g></svg>