<svg width="38" height="24" viewBox="0 0 38 24" fill="none" role="img" aria-labelledby="pi-heylight" xmlns="http://www.w3.org/2000/svg"><title id="pi-heylight">HeyLight</title><rect width="38" height="24" rx="2" fill="#fff"/><rect x=".5" y=".5" width="37" height="23" rx="1.5" stroke="#000" stroke-opacity=".07"/><mask id="pi-heylight-mask0_923_1106" style="mask-type:luminance" maskUnits="userSpaceOnUse" x="4" y="9" width="30" height="7"><path d="M34 9H4v7h30V9z" fill="#fff"/><path d="M4.5 15.5v-6h29v6h-29z" stroke="#fff"/></mask><g mask="url(#mask0_923_1106)"><mask id="pi-heylight-mask1_923_1106" style="mask-type:luminance" maskUnits="userSpaceOnUse" x="4" y="9" width="30" height="7"><path d="M34 9H4v7h30V9z" fill="#fff"/><path d="M4.5 15.5v-6h29v6h-29z" stroke="#fff"/></mask><g mask="url(#mask1_923_1106)"><mask id="pi-heylight-path-7-inside-1_923_1106" fill="#fff"><path d="M15.218 13.95l-1.213-3.468h-.88l1.425 4.036h.532l-.259.701h-1.337v.706h1.05c.633 0 .97-.327 1.145-.82l1.64-4.623h-.878l-1.225 3.468z"/></mask><path d="M15.218 13.95l-1.213-3.468h-.88l1.425 4.036h.532l-.259.701h-1.337v.706h1.05c.633 0 .97-.327 1.145-.82l1.64-4.623h-.878l-1.225 3.468z" fill="#000"/><path d="M15.218 13.95l-.944.33.94 2.685.947-2.682-.943-.333zm-1.213-3.468l.944-.33-.234-.67h-.71v1zm-.88 0v-1H11.71l.47 1.333.944-.333zm1.425 4.036l-.943.333.236.667h.707v-1zm.532 0l.938.347.498-1.347h-1.436v1zm-.259.701v1h.697l.241-.653-.938-.347zm-1.337 0v-1h-1v1h1zm0 .706h-1v1h1v-1zm2.195-.82l.942.334-.942-.334zm1.64-4.623l.942.334.473-1.334H17.32v1zm-.878 0v-1h-.708l-.235.667.943.333zm-.281 3.138l-1.213-3.468-1.888.66 1.213 3.468 1.888-.66zm-2.157-4.138h-.88v2h.88v-2zm-1.823 1.333l1.425 4.036 1.886-.666-1.425-4.036-1.886.666zm2.368 4.703h.532v-2h-.532v2zm-.406-1.347l-.26.702 1.877.693.26-.701-1.877-.694zm.679.049h-1.337v2h1.337v-2zm-2.337 1v.705h2v-.706h-2zm1 1.705h1.05v-2h-1.05v2zm1.05 0c.498 0 .967-.133 1.357-.435.38-.294.6-.684.73-1.051l-1.885-.669c-.044.126-.08.147-.07.14.004-.004.005-.002-.008.001a.427.427 0 01-.123.014v2zm2.088-1.486l1.639-4.623-1.885-.668-1.64 4.622 1.886.669zm.696-5.957h-.877v2h.877v-2zm-1.82.667l-1.225 3.468 1.886.666 1.225-3.468-1.886-.666z" fill="#000" fill-opacity=".07" mask="url(#path-7-inside-1_923_1106)"/><path d="M21.838 9a.571.571 0 00-.573.561c0 .314.26.568.573.568a.575.575 0 00.581-.568.573.573 0 00-.581-.561z" fill="#000"/><path d="M21.765 9.561c0-.01.003-.023.019-.038a.078.078 0 01.054-.023c.026 0 .048.01.063.024.015.015.018.028.018.037 0 .028-.026.068-.081.068a.074.074 0 01-.053-.022.064.064 0 01-.02-.046z" stroke="#000" stroke-opacity=".07"/><mask id="pi-heylight-path-11-inside-2_923_1106" fill="#fff"><path d="M22.265 10.482h-.854v4.036h.854v-4.036z"/></mask><path d="M22.265 10.482h-.854v4.036h.854v-4.036z" fill="#000"/><path d="M22.265 10.482h1v-1h-1v1zm-.854 0v-1h-1v1h1zm0 4.036h-1v1h1v-1zm.854 0v1h1v-1h-1zm0-5.036h-.854v2h.854v-2zm-1.854 1v4.036h2v-4.036h-2zm1 5.036h.854v-2h-.854v2zm1.854-1v-4.036h-2v4.036h2z" fill="#000" fill-opacity=".07" mask="url(#path-11-inside-2_923_1106)"/><mask id="pi-heylight-path-13-inside-3_923_1106" fill="#fff"><path d="M34 11.19v-.71h-1.076V9.073h-.854v1.409h-.683v.709h.683v2.209c0 .652.483 1.12 1.142 1.12H34v-.708h-1.076V11.19H34z"/></mask><path d="M34 11.19v-.71h-1.076V9.073h-.854v1.409h-.683v.709h.683v2.209c0 .652.483 1.12 1.142 1.12H34v-.708h-1.076V11.19H34z" fill="#000"/><path d="M34 11.19v1h1v-1h-1zm0-.71h1v-1h-1v1zm-1.076 0h-1v1h1v-1zm0-1.408h1v-1h-1v1zm-.854 0v-1h-1v1h1zm0 1.409v1h1v-1h-1zm-.683 0v-1h-1v1h1zm0 .709h-1v1h1v-1zm.683 0h1v-1h-1v1zM34 14.518v1h1v-1h-1zm0-.707h1v-1h-1v1zm-1.076 0h-1v1h1v-1zm0-2.621v-1h-1v1h1zm2.076 0v-.71h-2v.71h2zm-1-1.71h-1.076v2H34v-2zm-.076 1V9.073h-2v1.409h2zm-1-2.408h-.854v2h.854v-2zm-1.854 1v1.409h2V9.072h-2zm1 .409h-.683v2h.683v-2zm-1.683 1v.709h2v-.71h-2zm1 1.709h.683v-2h-.683v2zm-.317-1v2.209h2V11.19h-2zm0 2.209c0 1.227.953 2.12 2.142 2.12v-2c-.089 0-.117-.029-.12-.031a.05.05 0 01-.011-.018.188.188 0 01-.011-.072h-2zm2.142 2.12H34v-2h-.788v2zm1.788-1v-.708h-2v.707h2zm-1-1.708h-1.076v2H34v-2zm-.076 1V11.19h-2v2.621h2zm-1-1.621H34v-2h-1.076v2z" fill="#000" fill-opacity=".07" mask="url(#path-13-inside-3_923_1106)"/><mask id="pi-heylight-path-15-inside-4_923_1106" fill="#fff"><path d="M18.537 9.072h-.876v5.446h3.309v-.777h-2.433V9.073z"/></mask><path d="M18.537 9.072h-.876v5.446h3.309v-.777h-2.433V9.073z" fill="#000"/><path d="M18.537 9.072h1v-1h-1v1zm-.876 0v-1h-1v1h1zm0 5.446h-1v1h1v-1zm3.309 0v1h1v-1h-1zm0-.777h1v-1h-1v1zm-2.433 0h-1v1h1v-1zm0-5.669h-.876v2h.876v-2zm-1.876 1v5.446h2V9.072h-2zm1 6.446h3.309v-2h-3.31v2zm4.309-1v-.777h-2v.777h2zm-1-1.777h-2.433v2h2.433v-2zm-1.433 1V9.073h-2v4.67h2z" fill="#000" fill-opacity=".07" mask="url(#path-15-inside-4_923_1106)"/><path d="M29.613 10.406c-.702 0-1.175.33-1.349.825V9.072h-.861v5.446h.861v-2.04c0-.833.394-1.351 1.134-1.351.602 0 .892.343.892.983v2.408h.86v-2.46c0-1.028-.556-1.652-1.537-1.652z" fill="#000"/><path d="M27.903 11.639v-.385l.18.031a1.68 1.68 0 00-.18.354z" stroke="#000" stroke-opacity=".07"/><mask id="pi-heylight-path-19-inside-5_923_1106" fill="#fff"><path d="M11.27 10.406c-1.218 0-2.034.77-2.034 2.1 0 1.333.83 2.083 2.068 2.083 1.288 0 1.78-.815 1.881-1.418h-.859c-.073.376-.292.715-.99.715-.784 0-1.194-.43-1.22-1.125h3.072v-.386c0-1.12-.65-1.969-1.919-1.969zM10.115 12.1c.023-.483.312-.987 1.119-.987.807 0 1.099.504 1.121.987h-2.24z"/></mask><path d="M11.27 10.406c-1.218 0-2.034.77-2.034 2.1 0 1.333.83 2.083 2.068 2.083 1.288 0 1.78-.815 1.881-1.418h-.859c-.073.376-.292.715-.99.715-.784 0-1.194-.43-1.22-1.125h3.072v-.386c0-1.12-.65-1.969-1.919-1.969zM10.115 12.1c.023-.483.312-.987 1.119-.987.807 0 1.099.504 1.121.987h-2.24z" fill="#000"/><path d="M13.185 13.17l.986.167.197-1.166h-1.183v1zm-.859 0v-1h-.825l-.157.81.982.19zm-2.21-.409v-1H9.077l.04 1.038.999-.038zm3.072 0v1h1v-1h-1zm-3.072-.662l-.998-.046-.05 1.046h1.048v-1zm2.24 0v1h1.048l-.049-1.046-.999.046zM11.27 9.406c-.822 0-1.604.264-2.183.847-.578.583-.85 1.38-.85 2.252h2c0-.457.136-.708.27-.843.133-.135.368-.256.763-.256v-2zm-3.033 3.1c0 .878.279 1.678.87 2.257.59.575 1.378.826 2.198.826v-2c-.418 0-.663-.123-.8-.256-.131-.13-.268-.372-.268-.828h-2zm3.068 3.083c.871 0 1.57-.283 2.071-.755a2.676 2.676 0 00.796-1.497l-1.972-.333a.678.678 0 01-.195.374c-.092.087-.283.211-.7.211v2zm1.881-3.418h-.859v2h.86v-2zm-1.84.81c-.007.032-.01.034-.003.019a.284.284 0 01.114-.118l.02-.01a.523.523 0 01-.14.014v2c.507 0 .999-.125 1.386-.462.383-.333.526-.755.586-1.063l-1.964-.38zm-.01-.095c-.211 0-.235-.055-.203-.025.01.01.01.016.006.003a.443.443 0 01-.023-.14l-1.999.075c.02.535.196 1.09.636 1.51.439.417 1.012.577 1.583.577v-2zm-1.22.875h3.073v-2h-3.072v2zm4.073-1v-.386h-2v.386h2zm0-.386c0-.747-.218-1.5-.745-2.078-.54-.592-1.304-.89-2.174-.89v2c.4 0 .594.125.697.238.115.126.222.357.222.73h2zm-3.073-.229a.197.197 0 01.01-.056c.001-.004-.002.006-.016.021-.016.017-.029.022-.024.02a.44.44 0 01.15-.019v-2c-.624 0-1.181.203-1.58.626a2.04 2.04 0 00-.537 1.315l1.997.093zm.12-.034c.098 0 .142.015.15.019.007.002-.005-.002-.02-.018-.015-.015-.018-.025-.016-.02a.186.186 0 01.008.053l1.998-.093a2.038 2.038 0 00-.54-1.317c-.4-.421-.957-.624-1.58-.624v2zm1.121-1.013h-2.24v2h2.24v-2z" fill="#000" fill-opacity=".07" mask="url(#path-19-inside-5_923_1106)"/><mask id="pi-heylight-path-21-inside-6_923_1106" fill="#fff"><path d="M7.858 11.354H4.884V9.072H4v5.446h.884v-2.384h2.974v2.384h.884V9.072h-.884v2.282z"/></mask><path d="M7.858 11.354H4.884V9.072H4v5.446h.884v-2.384h2.974v2.384h.884V9.072h-.884v2.282z" fill="#000"/><path d="M7.858 11.354v1h1v-1h-1zm-2.974 0h-1v1h1v-1zm0-2.282h1v-1h-1v1zm-.884 0v-1H3v1h1zm0 5.446H3v1h1v-1zm.884 0v1h1v-1h-1zm0-2.384v-1h-1v1h1zm2.974 0h1v-1h-1v1zm0 2.384h-1v1h1v-1zm.884 0v1h1v-1h-1zm0-5.446h1v-1h-1v1zm-.884 0v-1h-1v1h1zm0 1.282H4.884v2h2.974v-2zm-1.974 1V9.072h-2v2.282h2zm-1-3.282H4v2h.884v-2zM3 9.072v5.446h2V9.072H3zm1 6.446h.884v-2H4v2zm1.884-1v-2.384h-2v2.384h2zm-1-1.384h2.974v-2H4.884v2zm1.974-1v2.384h2v-2.384h-2zm1 3.384h.884v-2h-.884v2zm1.884-1V9.072h-2v5.446h2zm-1-6.446h-.884v2h.884v-2zm-1.884 1v2.282h2V9.072h-2z" fill="#000" fill-opacity=".07" mask="url(#path-21-inside-6_923_1106)"/><path d="M25.99 11.164c-.265-.473-.75-.758-1.394-.758-.94 0-1.875.602-1.875 1.97 0 1.37.934 1.964 1.88 1.964.654 0 1.156-.284 1.34-.779v.612c0 .719-.307 1.111-1.163 1.111-.702 0-1.005-.261-1.074-.765h-.957c.09.924.785 1.481 2.005 1.481 1.348 0 2.05-.681 2.05-1.871v-3.647h-.654l-.157.682zm-1.221 2.464c-.628 0-1.192-.345-1.192-1.249 0-.902.564-1.251 1.192-1.251s1.195.342 1.195 1.244c0 .904-.567 1.256-1.195 1.256z" fill="#000"/><path d="M26.124 13.504c.07-.092.13-.194.178-.303v.335l-.178-.032z" stroke="#000" stroke-opacity=".07"/></g></g></svg>