<svg xmlns="http://www.w3.org/2000/svg" width="38" height="24" fill="none" aria-labelledby="pi-heylight" role="img" viewBox="0 0 38 24"><title id="pi-heylight">HeyLight</title><path fill="#fff" d="M0 0h38v24H0z"/><path fill="#000" d="m15.417 13.327-1.149-3.179h-.834l1.35 3.7h.505l-.246.643h-1.266v.647h.995c.599 0 .918-.3 1.084-.752l1.553-4.238h-.832zm6.272-4.537c-.297 0-.543.233-.543.514 0 .288.246.521.543.521.304 0 .55-.233.55-.52 0-.282-.246-.515-.55-.515m.404 1.358h-.81v3.7h.81zm11.117.649v-.65h-1.019v-1.29h-.809v1.29h-.647v.65h.647v2.025c0 .598.458 1.026 1.082 1.026h.747V13.2h-1.02v-2.403zM18.562 8.856h-.83v4.992h3.134v-.712h-2.304zm10.493 1.224c-.665 0-1.114.3-1.278.755V8.856h-.816v4.992h.816v-1.87c0-.763.373-1.238 1.073-1.238.571 0 .845.314.845.9v2.208h.816v-2.255c0-.943-.527-1.514-1.456-1.514zm-17.379 0c-1.153 0-1.926.705-1.926 1.923 0 1.223.787 1.91 1.959 1.91 1.22 0 1.686-.747 1.783-1.3h-.815c-.069.345-.276.656-.938.656-.742 0-1.13-.394-1.156-1.031h2.911v-.354c0-1.027-.616-1.805-1.818-1.805zm-1.092 1.551c.021-.443.295-.905 1.06-.905.764 0 1.04.462 1.062.905zm-2.139-.683H5.627V8.856H4.79v4.992h.837v-2.185h2.818v2.185h.837V8.856h-.837zm17.178-.174c-.252-.434-.712-.695-1.322-.695-.89 0-1.776.552-1.776 1.805 0 1.256.885 1.801 1.781 1.801.62 0 1.095-.26 1.27-.714v.561c0 .659-.291 1.018-1.103 1.018-.665 0-.951-.24-1.016-.701h-.907c.086.847.743 1.358 1.899 1.358 1.277 0 1.942-.625 1.942-1.716v-3.343h-.619zm-1.158 2.259c-.595 0-1.13-.317-1.13-1.146 0-.826.535-1.147 1.13-1.147.596 0 1.132.314 1.132 1.14 0 .83-.536 1.153-1.132 1.153"/></svg>