<svg xmlns="http://www.w3.org/2000/svg" width="38" height="24" fill="none" aria-labelledby="pi-hitrustpaytransfer" role="img" viewBox="0 0 38 24"><title id="pi-hitrustpaytransfer">Hitrustpay Transfer</title><path fill="#fff" d="M0 0h38v24H0z"/><path fill="#8B1D36" d="M20.057 2.825c.037.019.06.052.085.055a7.9 7.9 0 0 1 2.111.563 8.4 8.4 0 0 1 1.691.955c.559.402 1.067.87 1.513 1.393q.755.885 1.277 1.951c.32.655.573 1.335.724 2.053.097.463.167.936.207 1.408.038.457.053.921.026 1.379a9.4 9.4 0 0 1-.672 2.999 10 10 0 0 1-.789 1.54 8.74 8.74 0 0 1-3.144 2.986 7.6 7.6 0 0 1-1.926.772 10 10 0 0 1-1.32.221q-.646.063-1.294.028a6.4 6.4 0 0 1-1.788-.335c-.47-.167-.941-.339-1.39-.559a6.8 6.8 0 0 1-1.605-1.081 15 15 0 0 1-.931-.911 8.4 8.4 0 0 1-1.166-1.67 9.3 9.3 0 0 1-.753-1.813c-.162-.55-.298-1.109-.334-1.685a17 17 0 0 1-.049-1.693c.022-.647.12-1.29.312-1.907.156-.5.318-1.003.524-1.481.26-.614.6-1.19 1.015-1.711.274-.341.552-.681.854-.994a8 8 0 0 1 1.566-1.242 8.2 8.2 0 0 1 1.688-.798 7.6 7.6 0 0 1 1.606-.368c.019-.002.037-.021.055-.043.631-.012 1.262-.012 1.907-.012m3.529 15.412c.333-.326.673-.643.995-.981.171-.179.322-.384.463-.592.322-.473.597-.977.82-1.504.35-.832.556-1.718.611-2.619a8.15 8.15 0 0 0-1.222-4.927 7 7 0 0 0-1.047-1.315c-.226-.218-.445-.447-.69-.637a7.8 7.8 0 0 0-1.422-.882 6.8 6.8 0 0 0-2.456-.651 7 7 0 0 0-1.914.113 7.2 7.2 0 0 0-2.709 1.188 7.8 7.8 0 0 0-1.527 1.452q-.529.657-.905 1.412a8 8 0 0 0-.838 3.107 8.4 8.4 0 0 0 .107 2.068 8.2 8.2 0 0 0 1.096 2.852 7.9 7.9 0 0 0 1.378 1.651c.451.411.935.772 1.471 1.037.429.212.873.394 1.323.547.559.19 1.14.277 1.729.281.21.002.422.015.631-.003.351-.031.704-.064 1.05-.131a6.7 6.7 0 0 0 1.604-.543 7.7 7.7 0 0 0 1.452-.923M2.407 10.22c.019-.033.042-.05.056-.073.12-.188.213-.407.364-.56a3.4 3.4 0 0 1 .681-.525c.813-.481 1.696-.754 2.606-.93a31 31 0 0 1 1.56-.255c.288-.041.58-.049.871-.062.341-.015.682-.021 1.024-.031h.157v2.009q-.067.006-.132.01c-.39.01-.783 0-1.172.034-.538.047-1.073.124-1.609.193-.68.088-1.345.252-1.996.472-.59.198-1.158.457-1.668.839-.058.043-.104.102-.18.177.226.154.435.316.661.446.726.417 1.512.656 2.314.833.449.099.905.161 1.359.236.171.027.343.046.534.07v-.983l.036-.021 1.893 2.109-1.887 1.923-.035-.018v-.742c0-.243-.003-.229-.229-.266a51 51 0 0 1-1.898-.339 7.3 7.3 0 0 1-2.179-.816c-.436-.251-.836-.557-1.06-1.056a.4.4 0 0 0-.061-.094c-.01-.854-.01-1.711-.01-2.58m5.356-2.277c-.201.025-.403.045-.604.074-1.111.162-2.205.399-3.234.897-.413.2-.802.439-1.118.795-.453.511-.454 1.121-.01 1.622.08.088.148.113.24.024q.092-.086.194-.156c.632-.448 1.338-.709 2.063-.917 1.362-.39 2.757-.52 4.161-.564.209-.006.227-.02.228-.236V8.069c-.001-.203-.022-.234-.209-.225-.562.028-1.124.063-1.711.099m28.049 5.797c-.015.02-.04.021-.044.032-.21.572-.65.891-1.128 1.167-.796.457-1.653.716-2.536.889q-.776.149-1.559.255c-.288.041-.581.049-.871.062-.341.015-.683.021-1.024.03-.049.002-.097 0-.157 0v-2.008q.068-.007.132-.01c.391-.01.783 0 1.172-.034.538-.047 1.074-.124 1.61-.193.68-.088 1.345-.252 1.996-.472.59-.199 1.158-.457 1.668-.839.057-.043.104-.102.179-.177-.226-.154-.435-.317-.662-.447-.726-.416-1.512-.655-2.314-.832-.449-.1-.905-.161-1.359-.236-.171-.027-.343-.045-.533-.07v.984l-.036.02-1.893-2.11 1.887-1.923.035.019v.786c0 .211.002.195.202.222.425.056.848.128 1.272.196a9.5 9.5 0 0 1 1.75.463c.542.199 1.069.434 1.533.806.265.212.493.454.62.789.007.02.027.036.05.052.01.853.01 1.709.01 2.579m-6.649 2.372c.628-.055 1.259-.09 1.884-.172 1.118-.145 2.214-.395 3.248-.895.412-.199.802-.439 1.117-.795.45-.508.454-1.103.019-1.611-.087-.101-.151-.105-.262-.028-.27.19-.541.385-.833.532-.934.47-1.933.703-2.947.87-.883.146-1.774.2-2.666.228-.118.004-.188.037-.187.18q.004.764.001 1.528c-.001.113.046.169.154.168.149-.002.298-.002.472-.005"/><path fill="#70172B" d="M7.776 7.941c.574-.034 1.136-.069 1.698-.097.187-.009.208.022.209.225v1.413c-.001.216-.019.23-.228.236-1.404.044-2.799.174-4.161.564-.725.208-1.431.469-2.063.917a2 2 0 0 0-.194.156c-.092.089-.16.064-.24-.024-.444-.501-.443-1.111.01-1.622.316-.356.705-.595 1.118-.795 1.029-.498 2.123-.735 3.234-.897.201-.029.403-.049.617-.076m21.374 8.172-.459.004c-.108.001-.155-.055-.154-.168q.002-.764-.001-1.528c-.001-.143.069-.176.187-.18.892-.028 1.783-.082 2.666-.228 1.014-.167 2.013-.4 2.947-.87.292-.147.563-.342.833-.532.111-.077.175-.073.262.028.435.508.431 1.103-.019 1.611-.315.356-.705.596-1.117.795-1.034.5-2.13.75-3.248.895-.625.082-1.256.117-1.897.173"/><path fill="#8B1D36" d="M18.799 15.112v-.22c-.226-.045-.442-.076-.653-.132-.547-.144-.976-.466-1.236-1.007-.104-.216-.196-.446-.189-.709l.806-.098c.191-.024.382-.046.571-.075.103-.017.171-.03.194.126.06.385.208.584.495.718.004-.034.011-.066.011-.097.001-.385-.002-.769.002-1.153.001-.092-.029-.131-.113-.16-.289-.096-.581-.19-.861-.311-.457-.198-.753-.57-.859-1.078-.09-.436-.056-.869.172-1.27.267-.47.669-.713 1.155-.822.157-.035.318-.052.496-.08l.015-.368h.579l.018.381c.606.037 1.161.192 1.557.716.162.215.271.466.309.756q-.677.118-1.34.235c-.08.014-.107-.032-.132-.105-.093-.268-.182-.372-.393-.471-.003.044-.009.085-.009.125-.001.274.006.548-.003.821-.005.134.046.178.159.211.442.134.885.274 1.269.557.339.25.526.606.601 1.029.191 1.079-.619 2.059-1.57 2.191-.145.02-.29.046-.456.072 0 .197-.006.397.001.597.005.124-.032.177-.153.167-.112-.009-.225-.003-.338-.001-.074.001-.106-.035-.105-.113zm.598-1.37c.013.009.028.028.038.025a.68.68 0 0 0 .429-.268c.118-.166.171-.344.075-.545-.111-.237-.308-.335-.544-.412 0 .408 0 .791.002 1.2m-.939-3.167c.092.101.172.219.331.232v-.945c-.305.028-.461.348-.331.713"/></svg>