<svg class="icon" width="38" height="24" viewBox="0 0 38 24" version="1.1" xmlns="http://www.w3.org/2000/svg" role="img" aria-labelledby="pi-HKD"><title id="pi-HKD">HKD</title><path d="M302.93300000000005 512a507.733 507.733 0 101015.467 0 507.733 507.733 0 10-1015.467 0z" fill="#00479D"/><path d="M661.333 695.467h-68.266V558.933H460.8v136.534h-72.533V358.4h68.266v136.533H588.8V358.4h68.267v337.067zm332.8 0H908.8L819.2 550.4l-46.933 55.467v89.6H704V358.4h68.267V512l128-153.6H985.6L861.867 503.467l132.266 192zm149.334 4.266v38.4H1113.6v-38.4c-59.733-4.266-98.133-42.666-106.667-110.933l59.734-17.067C1070.933 614.4 1088 640 1113.6 644.267v-98.134c-8.533-4.266-21.333-4.266-25.6-8.533-46.933-12.8-72.533-46.933-72.533-98.133 4.266-55.467 38.4-85.334 98.133-89.6v-38.4h29.867v42.666c46.933 4.267 76.8 34.134 89.6 85.334l-55.467 17.066c-4.267-21.333-12.8-38.4-34.133-42.666v89.6c4.266 0 12.8 4.266 25.6 8.533 8.533 4.267 12.8 4.267 17.066 4.267 42.667 21.333 64 46.933 59.734 85.333-4.267 59.733-38.4 93.867-102.4 98.133zM1113.6 490.667v-85.334c-21.333 4.267-34.133 17.067-34.133 38.4-4.267 25.6 8.533 38.4 34.133 46.934zm29.867 72.533v85.333C1164.8 640 1177.6 627.2 1177.6 605.867c4.267-21.334-8.533-34.134-34.133-42.667 4.266 0 4.266 0 0 0z" fill="#FFF"/></svg>