<svg xmlns="http://www.w3.org/2000/svg" role="img" viewBox="0 0 38 24" width="38" height="24" aria-labelledby="pi-huistuincadeau"><title id="pi-huistuincadeau">Huis &amp; Tuin Cadeau</title><path d="M35 0H3C1.3 0 0 1.3 0 3v18c0 1.7 1.4 3 3 3h32c1.7 0 3-1.3 3-3V3c0-1.7-1.4-3-3-3z" opacity=".07"/><path fill="#e19d33" d="M35 1c1.1 0 2 .9 2 2v18c0 1.1-.9 2-2 2H3c-1.1 0-2-.9-2-2V3c0-1.1.9-2 2-2h32"/><defs stroke="null" transform="matrix(.14884 0 0 .14884 -103.135 -65.895)"><clipPath stroke="null"><path d="M-61.213-44.726H99.99V67.36H-61.213V-44.726zm0 0"/></clipPath></defs><path stroke="null" fill="#FFF" d="M7.763 4.04c-.284 0 .153.018-.186 0a.53.53 0 01.186 0M7.55 5.024c.056.916 0 2.126.035 3.128 0 .116-.032-.03-.023.236.042.971.017 2.507-.017 3.691v-.072c0 .225.021.502.019.742 0 0 0-.077-.017-.022-.017.056 0 .426.021.534.021.109-.021.086-.027.213l.019.138c.046.38 0 .925.02 1.444 0-.026 0-.077-.012-.034.015.827.015 1.869.025 2.804 0-.038-.018-.072-.027-.017a3.9 3.9 0 01.03.583c-.021.115.02.425 0 .723v-.026c.02.213-.015.322.013.498l-.017.138a.45.45 0 010 .172h.122a.994.994 0 00.145 0h.425c.19.013.381.01.57-.01.13.02-.354 0-.152.036 1.203-.023 2.44-.02 3.65-.02.086.002.172.009.257.022.12 0 .456 0 .565-.017-.04 0 .079.013.142.013.213 0 .24-.025.482-.015-.096 0-.128.013-.096.023.212-.019.481-.017.725-.021-.039 0-.096 0-.087.013.267-.021.485 0 .72 0l-.088.012c.376.018.112-.027.436-.019-.079 0-.05 0-.064.018.303-.026.795-.018 1.096-.026h-.013 1.038c.132 0-.044.034.306.03-.013-.028.59-.01.385-.043.299 0 .771.015.968 0-.133 0 .147.034-.102.036l.187.017c-.027.013-.193 0-.134 0 .125 0 .488-.013.598 0 .23-.017.44-.049.814-.053-.174.01.1.03-.02.036l.52-.053c.125 0 .027.021.212.015-.01 0 .068-.013.122-.02.19-.003.38.004.568.022.056.01-.211 0-.063.015h.468c.15 0 .445 0 .28-.025-.104 0 .04.014-.115 0 .2-.018.4-.026.6-.022a.247.247 0 00-.1.02c.308-.022.636-.028.977-.037 0-.012-.127.024-.178.015.44.02.91-.026 1.272 0-.06 0-.032-.02-.028-.015.212 0 .212.02.339.013.105.007.212.007.318 0h-.087c.197 0 .99-.025 1.447 0 .129-.015.258-.024.388-.025l-.042.017c.097 0 .353 0 .37.012.225-.021-.864.017-.561 0 .078.015.424-.028.358 0 .212 0 .423-.019.619 0-.06 0-.172.024 0 .024.298 0 .084 0 .328-.015h.152c.01-.017.27 0 .157-.017.038.015.439 0 .407.019l-.043.024c.106-.006.212-.017.316-.035h.045c.154-.015.31-.023.464-.023h.36v-.134a1.06 1.06 0 010-.15c0-.211-.021-.403-.015-.637 0 .043.004.084.01.126a2.03 2.03 0 000-.326c0 .032.02-.3.033-.467-.01-.213-.028-.139-.039-.158.032-.191-.02-.59 0-.829 0 .072.015.304.024.13.008-.175-.024-.385 0-.693l-.028.076c.017-.138-.014-.453.013-.425 0-.102 0-.362-.017-.328.021-.506-.015-1.231.034-1.542 0-.072 0-.252-.015-.212-.015.121 0 .168 0 .212 0-.063 0-.078-.01-.084 0-.157 0-.281.029-.132.017-.351-.044-.361-.034-.808.01.02.015-.013.013-.142l-.02-.248c0-.289.026-.163.046-.172a4.039 4.039 0 00-.017-.41l.023-.187c-.017.136 0-.128-.015-.2V11.875a2.62 2.62 0 00-.02.302c0-.079 0-.213-.014-.307.016-.123.021-.247.013-.372a.996.996 0 00-.015-.2s0-.229.015-.118a1.675 1.675 0 000 .187c.016-.09.02-.182.01-.272 0-.145-.036.036-.023-.239 0 .072.01.085.017.143l.01-.257h-.016v-.028c-.02-.077 0-.391-.026-.45 0-.13.01-.273.013-.397v.024c.01-.16.01-.319 0-.478 0-.083 0-.279-.01-.381.01-.213.061-.07.04-.302-.021-.232-.03-.332-.04-.246.01-.381-.018-.813.01-1.166a.418.418 0 01-.015-.134c0-.557-.021-1.178.012-1.624 0 .164.018.01.026 0-.014-.134.015-.162-.01-.213-.016.013-.021 0-.028.157V4.48c0 .092-.013.022-.017-.053.01.01.017-.032.021-.1v-.1a.476.476 0 000-.057h-.027l-.02.015h-.07a.811.811 0 01-.262.015.135.135 0 00-.053-.015 5.84 5.84 0 01-.67.02l-.171-.022c-.089 0-.237.017-.08.021-.357-.013-.586-.013-.698-.032-.612.045-1.5.047-2.21.043l.022-.01c-.191 0-.1.018-.234.012.062 0-.146-.023 0-.036a4.744 4.744 0 00-.53.023c-.027.015.143 0 .109.01a3.437 3.437 0 00-.424 0c-.068 0-.015-.023.021-.031h-.167c-.212-.026.466-.047.252-.077h-.155c-.146-.021.407-.025.022-.032-.168.01-.312.043-.161.052-.35 0-.161.05-.539.048-.101-.012.3 0 .229-.019-.176-.019-.354 0-.51 0 .173 0 .025.03-.087.034-.191 0 .122-.02-.147-.02-.044.012-.292.02-.078.029-.097.027-.282 0-.424.014-.089-.02.278-.046-.019-.057.047.02-.367.028-.212.056-.116 0-.127-.022-.042-.032a2.532 2.532 0 01-.46 0l-.057.021-.212-.024a2.171 2.171 0 01-.46 0c-.046 0-.381 0-.252.022a2.21 2.21 0 01.356.013 2.066 2.066 0 00-.424.01l.036-.002c-.094 0-.188.005-.282.015.056 0 .028-.015-.03-.017l-.073.017c-.293 0-.07-.032-.352-.026l.212-.014c-.047 0-.144-.013-.28 0-.05.014-.15.033-.195.046-.16 0-.072-.019-.229 0l.213-.019a1.401 1.401 0 00-.352-.026c-.136 0-.348.028-.134.036-.106 0-.256 0-.171-.019-.242 0 .031.018-.177.026-.086-.01-.351-.026-.512-.04l.212-.028h-.144c.186-.021-.096-.015.01-.039a3.014 3.014 0 00-.316.011c.291.037-.324.05-.239.081-.396.01-.248-.079-.66-.028.067 0-.13.035.12.024-.246 0-.168.034-.458.019.212-.013-.23-.032.08-.05.071.006.142.006.213 0-.102-.014.02-.035-.231-.035a1.27 1.27 0 00-.335.021c0 .02.235 0 .135.017a2.217 2.217 0 00-.485.013c.195 0 .244.015.24.027h-.225l.042-.012c-.36 0-.105.024-.457.019l-.155-.02c.083-.02.51 0 .447-.024-.227 0-.303.017-.517 0h.16a1.825 1.825 0 00-.488-.02c-.168.01-.045.01-.049.026-.365 0-.474.017-.71.019.049-.025-.424 0-.157-.03.26.017.521.013.78-.01-.133-.03.286 0 .364-.026-.292 0-.28-.03-.326-.049h-.211c-.052 0 .07.02.076.036-.326 0-.636 0-.822.023-.11 0-.075-.027.055-.027h-1.176c.24.03-.411 0-.248.032.197 0 .369.027.258.043-.11.014 0-.016-.048-.02-.157.015-.244-.028-.399 0 .354 0 .068-.036.134-.06-.257.013 0-.016-.242-.016-.241 0-.57.023-.847.03-.358-.024-.905 0-1.223 0-.167-.014-.053-.039-.235-.043-.182-.004.156.028-.157.017h.03a4.688 4.688 0 00-.67.021l.098-.03h-.161s-.07-.016.025-.023c-.195-.019-.409 0-.618 0l.135.017c-.36.013-.604 0-.951 0l.01-.017h-.212c.051-.017-.14-.025-.25-.013l.54-.04c.149 0-.164.019-.07.036.152.015.304.015.456 0a1.845 1.845 0 00-.227 0c-.04-.023.149-.023.24-.038a1.182 1.182 0 00-.17 0c.128-.013.255-.013.469-.015-.144 0 .076.015.023.021a1.93 1.93 0 01.481-.021c.187.023.492-.015.797 0-.155.025-.31.04-.466.045h.402c.134-.029.27-.045.407-.047l.015.015c.224 0 .224-.032.512-.028l1.371.01.015.015c.212-.032.695-.012.977-.025.477.013 1.038-.015 1.282.01.848-.01 1.582-.023 2.456-.017l-.147.022c.085-.006.17-.006.255 0-.176-.02.212-.023.322-.036.39.017.888 0 1.233-.017l.012.015c.35.002.774.027 1.198.027.085.014.172.02.258.02.235-.024.36-.024.706-.039.252 0 .661 0 .917.015.95-.034 1.92-.01 2.905-.032l.072.017c.958-.038 2.134 0 2.95-.021l-.079.03c.257 0 .585 0 .52-.03.256 0 .635-.015.803.01H30.55v1.21-.123c0-.053-.019-.06-.021.066 0 .185 0 .68.028.496-.022.531.017 1.24 0 1.754 0-.043 0 .087.018.142 0 .466-.02.955 0 1.325 0 .074-.017-.117-.017.072 0 .113.013 0 .017.14.02.755-.017 1.53-.012 2.214.019 1.219 0 2.492.012 3.66v-.013c.028.39-.027.916.015 1.229 0 .093 0 .353-.019.285.022.31-.017.871 0 1.322a.91.91 0 000-.113c-.017.456 0 .851 0 1.336a1.457 1.457 0 00-.013-.151c.01.18.01.36 0 .54 0 .106.017.077.016 0v.66h-1.448l-1.358.014c-.782-.021-.046-.06-.663-.034-.05 0-.038.015-.047 0-.237 0-.37-.038-.536-.021.068.023-.11.012-.114.025-.479-.013-.574-.032-.951-.017h.03c-.444.032-.954.015-1.327.052l-7.15.03h-7.03a11.91 11.91 0 00-1.214-.016h.024c-.032.026-.424 0-.492.028h-.867v-2.063c0 .145.024.213.022.047l-.015-.178v-.03c0-.117-.015-.245-.023-.124-.021-2.288.027-4.537.021-6.776.01-.532 0-1.289 0-1.867.034-1.712.06-3.256.036-4.995.059.31.085.628.078.944"/><path stroke="null" fill="#FFF" d="M8.104 4.035c.06.013.259.02.1.036-.02-.01-.121-.023-.1-.036M13.404 4.162a.478.478 0 01.09 0c-.059.004-.118.004-.178 0 .03.005.058.005.088 0M14.758 4.169c-.16.015-.321.023-.482.021l.482-.021zm0 0M16.02 4.218c.108 0 .078.015-.068.015 0 0 .038 0 .068-.015M16.11 4.188c.07-.001.14.004.211.013 0 0-.241 0-.212-.013M18.85 4.218c.09-.006.18-.006.27 0-.068 0-.32.015-.27 0M20.124 4.205a.81.81 0 00.107 0c.076 0 0 .013-.068.015l-.039-.015zm0 0M30.358 16.995l-.006-.138.01.021-.004.117zm0 0M23.195 19.84c-.138 0-.096 0-.119-.012.125 0-.047.014.119.012M17.715 19.893h.043l-.015.024-.028-.024zm0 0M30.659 20.249c.295 0-.157-.02.193 0a.715.715 0 01-.193 0"/><path fill="#FFF" d="M30.89 19.228c-.057-.951 0-2.201-.036-3.24 0-.124.032.029.025-.245-.046-1.008-.018-2.596.015-3.828l.01.074c0-.233-.022-.518-.018-.767 0 0 0 .08.017.022.017-.06 0-.447-.024-.553-.023-.107.022-.088.03-.213l-.021-.143c-.049-.393 0-.957-.021-1.488 0 .025 0 .078.012.036-.03-.863-.023-1.945-.033-2.91 0 .037.019.074.027.016a4.038 4.038 0 01-.032-.604c.024-.117-.019-.444 0-.748v.025c-.023-.212.013-.333-.015-.514l.018-.143a.511.511 0 010-.178h-.125c-.05-.004-.1-.004-.15 0h-.44a3.217 3.217 0 00-.589.014c-.133-.019.367 0 .16-.038-1.246.026-2.53.022-3.785.022-.142-.01-.233-.013-.264-.022-.125 0-.473 0-.585.018.042 0-.081-.013-.149-.016-.226 0-.248.028-.498.017.1 0 .134-.014.1-.025-.212.019-.5.017-.752.024.04 0 .1 0 .091-.016-.276.024-.505 0-.746.01l.09-.014c-.389-.017-.116.03-.452.02.082 0 .053-.012.067-.016-.313.026-.822.017-1.135.026h.013-1.075c-.135 0 .045-.034-.316-.03.013.03-.614.013-.4.045-.31 0-.8-.015-1.004 0 .14-.01-.15-.034.106-.037l-.193-.016c.027-.013.199 0 .137-.01-.129 0-.504.01-.618 0-.24.016-.458.05-.847.054.181-.012-.105-.032.02-.038l-.54.055c-.127 0-.028-.021-.212-.015 0 0-.072.013-.129.02a4.983 4.983 0 01-.589-.022c-.057-.01.212 0 .068-.016h-.485c-.157 0-.462.01-.293.025.11 0-.04-.017.121 0a5.866 5.866 0 01-.623.021.255.255 0 00.104-.02c-.32.022-.657.03-1.013.04 0 .012.134-.026.187-.018-.458-.019-.943.026-1.322 0 .06 0 .033.02.03.017-.213 0-.213-.021-.355-.015a3.392 3.392 0 00-.326 0h.089c-.212 0-1.028.028-1.5 0a3.071 3.071 0 01-.4.028l.042-.02c-.1 0-.367 0-.384-.012-.233.022.896-.017.58 0-.08-.015-.438.03-.37 0-.212 0-.424.022-.636 0 .06 0 .178-.023 0-.023-.311 0-.089 0-.341.014h-.159c0 .018-.277 0-.16.018a3.227 3.227 0 01-.425-.02l.043-.023c-.134 0-.212.025-.326.034-.017 0-.053 0-.045-.01-.16.016-.322.025-.483.025H7.27v.138c0 .04 0 .121-.012.155.01.213.023.426.017.666a.72.72 0 00-.013-.132 2.493 2.493 0 000 .336c0-.032-.019.313-.032.487 0 .212.03.143.04.164-.033.197.022.61 0 .85 0-.074-.017-.317-.025-.136s.025.4 0 .719l.028-.079c-.017.143.016.47-.013.436.01.108 0 .377.019.342-.023.524.015 1.276-.036 1.597 0 .075 0 .262.015.213.015-.125-.01-.174 0-.213 0 .068 0 .083.012.09 0 .163 0 .29-.031.138-.017.361.046.374.036.835-.013-.02-.017.013-.015.15l.019.254c0 .298-.026.17-.045.177 0 .142.005.284.018.425l-.024.194c.017-.14.01.132.015.212v-.074a2.983 2.983 0 000 .306 2.34 2.34 0 00.02-.312c0 .08 0 .212.016.317a1.937 1.937 0 00-.015.384c0 .071.004.142.015.213 0 0 0 .238-.015.125.003-.065.003-.13 0-.195a.96.96 0 00-.012.282c0 .152.037-.038.025.247 0-.074-.013-.089-.019-.147l-.011.266h.02v.028c.016.08 0 .408.025.468 0 .134-.013.283-.015.41v-.006c-.01.165-.01.33 0 .495 0 .085 0 .287.01.394-.012.212-.063.074-.042.312.021.238.032.345.043.255-.013.395.014.85-.011 1.208.01.046.014.092.015.138 0 .579.02 1.223-.013 1.684 0-.168-.017-.012-.027 0 .014.138-.015.166.01.213.015-.015.023 0 .03-.164v1.063c0-.095.013-.02.017.055-.01-.012-.02.035-.021.105V20.133h.03l.018-.014h.072a.832.832 0 01.273-.02c.017.011.036.017.056.018.231-.02.463-.027.694-.02l.177.022c.09 0 .247-.018.084-.022.37.013.606.015.723.032.636-.044 1.553-.047 2.288-.044l-.02.012c.196 0 .1-.021.24-.012-.065 0 .151.023 0 .036.184.002.367-.005.55-.024.029-.015-.147 0-.113-.01.145.01.291.01.437 0 .07 0 .014.025-.024.034h.174c.212.025-.481.047-.26.079h.16c.15.023-.424.025-.023.033.174-.01.322-.044.167-.053.363 0 .168-.053.557-.05.107.012-.31 0-.237.02.185.018.369-.01.53 0-.18 0-.027-.031.089-.036.2.011-.127.022.153.026.046-.015.303-.024.08-.032.102-.03.292 0 .445-.015.091.02-.288.047.019.057-.049-.019.38-.027.212-.057.12 0 .133.021.047.034.171.013.424-.036.474 0l.058-.021.211.023a2.31 2.31 0 01.475 0c.049 0 .396 0 .263-.023a2.231 2.231 0 01-.369-.013c.145.017.291.017.437 0l.019.013c.074 0 .245 0 .29-.015-.055 0-.026.015.034.017l.076-.02c.301 0 .072.033.364.028l-.211.015c.049 0 .148.013.288 0l.212-.049c.079.005.158.005.237 0l-.212.022c.12.024.242.032.364.025.14 0 .358-.03.136-.038.113 0 .267 0 .178.021.252 0-.032-.017.185-.028.089 0 .364.028.53.043l-.226.028h.113c-.195.023.097.017-.013.04h.326c-.3-.036.337-.051.25-.085.411 0 .257.083.685.03-.07 0 .133-.034-.128-.026.257 0 .174-.034.477-.019-.224.013.24.034-.084.055a1.006 1.006 0 00-.23 0c.107.013-.02.034.24.034.117.01.233.002.347-.021 0-.02-.243 0-.141-.017.168.015.337.01.504-.013-.212 0-.252-.017-.248-.03h.233l-.044.013c.373 0 .11-.023.472-.019l.172.026c-.087.02-.53-.01-.464.025.235 0 .314-.017.536 0h-.165c.166.03.336.036.504.021.173-.01.047-.012.05-.027.38 0 .492-.017.736-.02-.05.026.424 0 .163.03a5.341 5.341 0 00-.807 0c.137.032-.297 0-.38.028.306 0 .29.032.34.051.07.004.14.004.212 0 .036-.02-.075-.02-.081-.038.283.007.566-.001.847-.024.113 0 .079.028-.056.03h1.218c-.248-.03.423 0 .258-.031-.212 0-.381-.03-.269-.043.112-.013 0 .012.049.019.163-.017.254.028.423 0-.368 0-.071.036-.14.061.265-.014 0 .018.253.018.252 0 .589-.026.883-.03.371.023.937 0 1.272 0 .171 0 .055.038.243.044.189.007-.163-.03.161-.016h-.03c.232.01.464.002.693-.021l-.1.03c.054.003.11.003.166 0 0 0 .074.018-.025.023.212.021.424 0 .635 0l-.14-.02c.375-.012.626 0 .988 0l-.01.017h.211c-.053.018.144.028.258.015l-.559.04c-.155 0 .17-.019.072-.036a2.288 2.288 0 00-.472 0c.078.005.157.005.235 0 .042.024-.152.024-.25.039.06.003.119.003.178 0-.131 0-.265.013-.485.013.15 0-.08-.016-.023-.022-.165.03-.333.037-.5.022-.193-.024-.509.016-.825 0 .16-.028.321-.044.483-.05h-.423c-.14.03-.282.047-.424.05l-.015-.016c-.233 0-.233.03-.532.026h-1.421l-.013-.017c-.212.034-.723.013-1.013.028-.496-.015-1.076.015-1.33 0-.874 0-1.639.023-2.543.017l.153-.023a1.833 1.833 0 01-.266 0c.182.017-.211.023-.332.036-.403-.018-.922 0-1.272.019l-.014-.018c-.36.03-.793 0-1.242 0a1.707 1.707 0 00-.267-.019c-.246.026-.373.024-.73.039-.261 0-.685 0-.952-.015-.983.034-1.988.013-3.011.034l-.072-.02c-.992.039-2.212 0-3.057.024l.082-.032c-.267 0-.606 0-.538.032-.265 0-.664.015-.833 0H7.053v-.687-.567.127c0 .058.02.062.022-.068 0-.191 0-.706-.028-.514.021-.549-.02-1.276.01-1.816-.01.045-.012-.09-.018-.147 0-.483.02-.989 0-1.374 0-.078.017.122.017-.074 0-.117-.013 0-.02-.147-.019-.78.021-1.582.015-2.292-.019-1.263 0-2.581-.012-3.791v.015c-.03-.406.027-.953-.015-1.276 0-.096 0-.366.019-.294-.022-.323.019-.903 0-1.371v.117c.017-.47 0-.886.01-1.384 0 .053.004.105.013.157a4.302 4.302 0 010-.561c0-.109-.02-.077-.017-.01v-.683h1.5l1.407-.015c.81.021.049.061.689.034.05 0 .036-.013.046 0 .246 0 .384.04.555.02-.07-.02.115 0 .119-.025.496.015.595.034.986.02l-.03.01c.457-.034.987-.015 1.375-.053l7.403-.034h7.286c.419.03.838.036 1.257.02-.025 0-.066 0-.023.01.042.01.45 0 .508-.028h.865v2.126c0-.149-.023-.223-.022-.046l.016.185v.032c0 .12.016.252.025.127.021 2.369-.03 4.7-.024 7.017-.01.553 0 1.336 0 1.935a156.154 156.154 0 00-.037 5.175 4.965 4.965 0 01-.081-.978"/><path stroke="null" fill="#FFF" d="M30.305 20.25c-.061-.013-.266-.019-.104-.036.022.013.128.026.104.036M24.816 20.12a.522.522 0 01-.096 0h.185a.27.27 0 00-.09.013M23.413 20.112c.021 0 .32-.019.498-.021l-.498.021zm0 0M22.103 20.065c-.112 0-.08-.012.072-.012 0 0-.04 0-.072.012M22.012 20.093c-.07 0-.141-.004-.212-.012 0 0 .253 0 .212.012M19.17 20.059a1.727 1.727 0 01-.279 0c.072 0 .333-.015.28 0M17.853 20.076h-.11c-.05 0 0-.013.07-.013l.04.013zm0 0M7.248 6.822l.006.145-.01-.02.004-.125zm0 0M14.67 3.878c.145 0 .1 0 .123.012-.127 0 .049-.014-.123-.012M20.347 3.82h-.043l.016-.02.027.02zm0 0M7.52 11.675c-.083 0 .046.017-.053 0a.048.048 0 01.053 0M30.123 11.685c-.271.058-.636 0-.923.036-.037 0 0-.03-.07-.023-.365.033-.731.028-1.094-.017h.021c-.066 0-.148.024-.212.02 0 0 .024 0 0-.017-.023-.018-.127 0-.158.02-.032.022-.024-.019-.06-.027l-.042.02c-.112.048-.273 0-.424.02 0 0 .023 0 0-.012-.248.03-.555.023-.83.034 0 0 .02-.02 0-.028-.022-.008-.1.028-.172.032-.034-.023-.128.02-.212 0-.064.023-.094-.013-.146.015l-.04-.017c-.028.03-.094-.017-.147 0a1.092 1.092 0 01-.123 0c-.108 0-.171-.01-.167.015-.038-.02.104-.01.045-.039-.356.026-.725.022-1.083.022a.27.27 0 01-.077-.022 1.075 1.075 0 00-.167.017s-.024-.013-.042-.014c-.066 0-.072.027-.144.017.03 0 .037-.016.03-.024-.07.014-.141.021-.213.021.011 0 .03 0 .026-.014-.079.02-.144 0-.212 0l.025-.015c-.112-.017-.034.03-.129.019.023 0 .015 0 .02-.015a2.114 2.114 0 01-.327.025h-.308c-.04 0 .013-.033-.09-.027 0 .027-.176 0-.115.042a1.988 1.988 0 00-.288 0c.04 0-.043-.033.032-.036l-.057-.017h.04c-.06.003-.119.003-.178 0a.847.847 0 01-.24.051c.051 0-.032-.03 0-.034l-.154.053c-.036 0 0-.023-.062-.014l-.036.017c-.017.006-.152 0-.167-.02-.015-.019.059 0 .019-.017-.04-.016-.072 0-.14 0-.044 0-.131.013-.083.028.049.015 0-.017.034 0a.634.634 0 01-.177.021c.023 0 .02-.012.03-.021-.097.02-.194.034-.291.038 0 .013.038-.023.053-.017-.13-.017-.27.026-.377 0 .017 0 0 .017 0 .015-.064 0-.062-.021-.102-.015h-.068c-.14.018-.283.022-.424.01a.25.25 0 01-.114.026l.013-.016c-.03 0-.107 0-.11-.013-.069.02.256-.017.164 0-.023-.013-.124.027-.105 0a.597.597 0 01-.182 0c.017 0 .05-.024 0-.022-.09 0-.026 0-.098.013h-.046c0 .017-.079 0-.047.017-.011-.012-.13 0-.12-.019l.012-.021a.357.357 0 00-.094.032s-.014 0-.012-.01c0 .033-.094 0-.138.023-.082 0-.163-.007-.243-.022a.701.701 0 01-.191.015h.038a.177.177 0 00-.096 0 .952.952 0 00-.14-.032c-.06.01-.04.028-.046.039-.057-.032-.174.02-.246 0 .021 0 .092-.016.04-.024-.05-.008-.114.024-.211 0l.02.028c-.04-.017-.132.015-.122-.013-.032.01-.108 0-.098.017a2.13 2.13 0 01-.425-.034c-.023 0-.077 0-.066.015.01.015.05 0 .063 0-.019 0-.023 0-.025.012-.047 0-.083 0-.038-.03-.104-.016-.108.045-.24.035 0 0 0-.015-.042-.013l-.074.02c-.085 0-.047-.026-.049-.045a.353.353 0 00-.123.016l-.055-.023c.04.017-.038.01-.06.015h-.065s.06.015.09.019c-.024 0-.06 0-.09.015 0-.017-.074-.013-.11-.015-.036-.002-.046.017-.06.017-.012 0-.067 0-.035-.015.032-.014.032 0 .055 0-.028 0-.023-.023-.08 0-.058.023.01.036-.07.023a.19.19 0 00.042-.016l-.076-.01v.016s-.117 0-.134.026a1.176 1.176 0 01-.119-.013.343.343 0 00-.142 0 .517.517 0 00-.112.01c-.061-.013-.021-.061-.089-.04-.068.021-.1.03-.074.04a2.58 2.58 0 01-.341-.033c-.017 0 0 .012-.04.014-.161.01-.322.006-.481-.013.048 0 0-.017 0-.025-.039.015-.047-.015-.062.01-.015.026 0 .022.046.028-.1.012-.202.012-.302 0 .027 0 0 .013-.015.018-.015.004-.066-.028-.121-.02v.015l-.034-.015c-.021 0-.025.03-.078.015l-.017-.015c-.065.02-.133.026-.2.02l-.048-.022c-.028 0-.072.017-.025.022a.819.819 0 01-.213-.032c-.215.04-.435.053-.654.042-.057-.01-.03.02-.07.013.02-.01-.042-.023 0-.036-.08-.011-.104.019-.157.023 0 .015.042 0 .032 0h-.125c-.013 0 0-.023 0-.032l-.049.01c-.061-.025.138-.046.075-.076h-.047c-.042-.021.12-.025 0-.032-.049 0-.091.043-.047.051-.103 0-.049.051-.159.05-.032-.013.09 0 .066-.02-.023-.02-.104 0-.15 0 .05 0 0 .03-.026.034-.025.004.036-.02-.044-.021-.013.013-.088.02-.024.03-.028.027-.082 0-.127.015-.026-.022.083-.047 0-.058.013.02-.11.027-.063.055-.034 0-.039-.021-.013-.032-.049-.012-.119.035-.136 0l-.016.022-.064-.024c-.043 0-.14.028-.136 0-.013 0-.112 0-.074.022.038.021.07-.016.106.012-.045-.021-.089 0-.125 0-.021 0-.07 0-.082.015-.013.015 0-.015 0-.017l-.022.017c-.087 0-.02-.032-.103-.025l.063-.015c-.015 0-.043-.013-.083 0l-.059.046c-.046 0-.021-.018-.068 0l.062-.018s-.04-.026-.104-.026-.104.027-.04.036c-.033 0-.077 0-.052-.019-.071 0 0 .017-.053.026-.025 0-.103-.026-.15-.041l.064-.027h-.043c.056-.022-.027-.016 0-.039a.28.28 0 00-.093.01c.087.037-.095.05-.07.081-.119.011-.074-.078-.197-.027.019 0-.038.034.036.023-.072 0-.048.034-.136.02.064-.013-.067-.032.024-.054 0 .013.05 0 .065 0-.03-.013 0-.034-.067-.034-.068 0-.108 0-.1.021.009.022.07 0 .04.018-.09 0-.106-.022-.144.012.057 0 .072.015.07.028h-.066l.013-.013c-.108 0-.032.023-.135.02l-.05-.024c.027-.022.152 0 .135-.026a.981.981 0 01-.155 0h.047c-.024 0-.047-.046-.145-.019-.049 0-.012 0-.015.026-.107 0-.14.017-.211.019.014-.026-.123 0-.047-.03a.484.484 0 00.23 0c-.04-.03.086 0 .109-.025-.087 0-.083-.03-.095-.051a.385.385 0 00-.064 0c0 .019.021.019.024.036a.78.78 0 00-.244.023c-.032 0-.022-.027.017-.027h-.35c.072.03-.123 0-.074.032s.11.027.076.042c-.034.015 0-.015-.013-.02-.046.016-.073-.027-.118 0 .106 0 .019-.035.04-.059-.076.013 0-.017-.072-.017a2.313 2.313 0 01-.254.03 1.796 1.796 0 00-.363 0c-.048-.013-.016-.038-.07-.043-.052-.004.047.028-.046.018-.028 0-.17-.018-.197.019l.027-.028a.156.156 0 00-.046 0s-.022-.017 0-.023a.577.577 0 00-.184 0l.04.017c-.106.012-.178 0-.282 0v-.017h-.061c.014-.017-.043-.026-.075-.013l.159-.04c.045 0-.048.018-.021.036a.216.216 0 00.136 0 .14.14 0 00-.066 0c-.013-.024.042-.024.07-.039h-.051a.422.422 0 01.14-.015c-.042 0 .023.015 0 .022-.024.006.066-.026.142-.022.076.004.146-.014.237 0a.353.353 0 01-.138.045c.057.01.064 0 .119.01a.24.24 0 01.121-.046v.015c.067 0 .067-.032.152-.028h.407v.015c.107-.013.214-.013.32 0 .127-.007.255-.007.381 0 .25 0 .47-.023.727-.017l-.042.021c.046-.015.03.013.076 0-.053-.019.062-.023.095-.038.122.012.245.007.365-.015v.015c.118-.017.238-.017.356 0 .023.013.05.02.076.02.07-.02.14-.033.212-.04.075 0 .197 0 .272.016.281-.034.57 0 .864-.032l.019.017c.284-.038.635 0 .877-.023l-.023.032c.074 0 .171 0 .152-.03.076 0 .19-.015.24 0a.857.857 0 00.158-.02c.12.009.241.009.361 0h-.036c-.015 0-.017.02.02.022.035.002.21 0 .147-.028.157.021.365-.017.517 0-.013 0 .026-.012.043-.019.13.008.261.008.392 0 .023 0-.034.017.02.017.056 0 0-.013.043-.02.212-.016.452.02.655.016.36-.02.735 0 1.08-.013.117-.028.271.028.365-.015.027 0 .104 0 .085.017.09-.02.256.02.39 0h-.033c.134.017.253 0 .395 0-.015 0-.04 0-.044.013.054.015.129-.03.158 0 .032 0 .023-.017 0-.015.312.013.636 0 .967-.017.23.019.012.057.197.032.014 0 0-.013.012 0 .07 0 .11.04.16.021-.02-.021.033-.013.033-.025.092.02.188.026.282.017v.012c.131-.032.284-.014.394-.053.722 0 1.415-.027 2.119-.032.703-.004 1.379 0 2.087.01.118.028.24.034.36.018 0 0-.02 0 0 0s.127 0 .144-.026h.773c-.044 0-.065.022-.014.022l.053-.017c.036 0 .072-.017.038-.023.676-.022 1.34.027 2.002.02h.553c.494.04.988.053 1.483.037a.49.49 0 01-.28.076M7.621 11.67c.02.014.079.02.03.037 0 0-.036-.026-.03-.036"/><path stroke="null" fill="#FFF" d="M9.193 11.796H9.168c.02 0 .017 0 .025-.012M9.596 11.805a.435.435 0 01-.142.021l.142-.021zm0 0M9.97 11.85c.033 0 .024.014-.02.014l.02-.015M9.999 11.824c.02 0 .042.004.06.013 0 0-.071 0-.06-.013M10.81 11.856h.08c-.019 0-.095.014-.08 0M11.185 11.839a.06.06 0 00.032 0c.02 0 0 .013-.021.014l-.011-.014zm0 0M18.069 11.796l-.04.005.006-.01.034.005zm0 0M21.084 11.796h.034c-.036 0 .015-.012-.034 0M22.71 11.74h-.014l.005-.02.008.02zm0 0M30.348 9.377c.057 0-.032-.02.038 0a.034.034 0 01-.038 0M16.768 11.37a6.157 6.157 0 01-.046-.637c0-.023.03 0 .02-.049a2.557 2.557 0 010-.76v.016c0-.047-.023-.102-.02-.153 0 0 0 .017.017 0 .016-.017-.01-.087-.024-.109-.013-.021.021-.019.028-.042l-.021-.03a.216.216 0 01-.022-.123.597.597 0 000-.137h.022v.013c.092-.02.186-.033.281-.038h.295s-.015.019 0 .028c.014.008.07-.028.12-.032.051-.004.087-.02.15 0 .043-.024.067.013.1-.015l.03.017c.02-.03.064.017.1 0h.085c.076 0 .118 0 .118-.015.026.02-.074 0-.032.036.25-.02.5-.027.75-.02.03.01.047.012.053.02a.656.656 0 00.117-.015s.017.01.03.013c.044 0 .049-.025.1-.015-.022 0-.028.013-.022.022.05-.013.1-.02.15-.022 0 0-.02 0-.018.015.054-.021.1 0 .148 0l-.017.013c.076.017.021-.03.09-.02-.018 0 0 0-.014.015.071-.015.143-.024.216-.025.071.004.141.004.212 0 .026 0 0 .034.062.03 0-.028.123-.013.08-.042.066.005.133.005.2 0-.028.01.03.033-.022.036l.038.017c0 .01-.038 0-.027.01a.871.871 0 01.123 0 .455.455 0 01.167-.05c-.036 0 .021.029 0 .033l.108-.053c.025 0 0 .023.042.015 0 0 .013 0 .026-.017s.106 0 .117.021c.01.021-.043 0-.013.015s.048 0 .095 0c.03 0 .09-.013.057-.027-.034-.016 0 .016-.023 0a.269.269 0 01.123-.02c-.015 0-.015.01-.021.02.069-.02.14-.034.211-.039 0-.013-.025.023-.036.017.092.02.187-.025.263 0-.013 0 0-.017 0-.013.045 0 .043.02.07.013.028-.006.036 0 .066 0h-.02a.987.987 0 01.3-.01.15.15 0 01.08-.026v.017c.02.01.072 0 .076.013.045-.021-.18.017-.116 0 .017.012.087-.028.074 0a.36.36 0 01.127 0c-.013 0-.036.023 0 .023s.017 0 .068-.015h.032c0-.017.055 0 .032-.017 0 .015.088 0 .082.02v.02c.027 0 .045-.02.066-.031.02-.01 0 0 0 .01 0-.034.063 0 .095-.023.057 0 .144 0 .17.021a.326.326 0 01.13-.015s-.023 0-.024.01h.065s.064.02.098.033c.034.013.027-.028.031-.039.04.032.121-.02.17 0-.015 0-.061.015-.025.024.036.008.078-.024.142 0l-.017-.025c.03.014.093-.017.086.01.022 0 .075 0 .068-.017.104.021.252-.013.316.034.015 0 .053 0 .044-.015-.008-.015-.033.013-.044 0-.01-.012.017 0 .02-.012.001-.013.056 0 .027.03.07.016.074-.045.165-.035 0 0 0 .015.03.013l.048-.017c.06 0 .034.023.036.042.003.02.07 0 .085-.016l.038.023c-.027-.017.025-.01.04-.015h-.015.062c.02 0-.042-.015-.061-.019.015 0 .04 0 .061-.015.021-.015.05.013.076.015.026.002.034-.017.043-.017.008 0 .046 0 .023.015s-.023 0-.038 0c.019 0 .017.023.055 0 .038-.024 0-.036.049-.024-.015 0-.017 0-.028.017l.051.01v-.016s.08 0 .093-.026a.545.545 0 01.08.013.133.133 0 00.098 0 .198.198 0 00.078 0c.045.013.016.062.064.04.049-.02.068-.03.049-.04.08-.007.16-.007.24 0l.027-.014c.111-.01.223-.005.333.012-.032 0 0 .017 0 .025 0 .01.031.016.042-.01.01-.026 0-.021-.032-.027a.588.588 0 01.212 0c-.019 0 0 0 0-.018 0-.017.044.028.083.02V9.23l.023.015c.015 0 .017-.032.055-.017a.03.03 0 000 .014.261.261 0 01.138-.019l.036.022c.016 0 .048-.015.016-.022a.46.46 0 01.143.032c.148-.039.302-.053.455-.042.04.01.02-.02.049 0-.013 0 .03.021 0 .034.057.01.072-.02.108-.024.036-.004-.028 0-.021 0h.087c.008 0 0 .024 0 .032l.034-.01c.042.025-.096.046-.051.076h.03c.031.021-.083.025 0 .032.036 0 .065-.04.033-.05.072 0 .034-.052.11-.05.022.013-.06 0-.046.021.015.022.074 0 .106 0-.036 0 0-.03.017-.033.017-.005-.026.019.03.023 0-.013.06-.023.017-.032.02-.028.057 0 .088-.015.017.021-.057.047 0 .057 0-.019.077-.025.045-.055.023 0 .025.022 0 .032.034.013.082-.034.095 0l.011-.02.044.022c.03 0 .096-.028.093 0 0 0 .079 0 .054-.021-.026-.022-.051.015-.075-.013.03.022.062 0 .087 0 .015 0 .049 0 .058-.013.008-.012 0 .013 0 .017l.014-.019c.062 0 .015.032.075.026l-.045.015s.03.012.057 0a.407.407 0 01.04-.05c.032 0 .015.02.047 0l-.043.02s.03.026.073.026c.042 0 .072-.028.028-.037.02 0 .052 0 .035.021.049 0 0-.016.036-.027.036-.01.072.025.106.04l-.044.028h.03c-.04.021.018.017 0 .038a.134.134 0 00.065-.01c-.06-.037.068-.05.049-.081.082 0 .053.078.138.028-.015 0 .025-.035-.026-.024.051 0 .034-.034.093-.02-.044.013.049.033-.014.054 0-.01-.036 0-.047 0 .021.013 0 .034.049.034.048 0 .074 0 .067-.021-.006-.022-.048 0-.027-.017.063 0 .074.02.1 0-.04 0-.051-.017-.05-.03h.047v.013c.075 0 .023-.024.095-.02l.035.024c-.017.021-.107 0-.094.026.047 0 .064-.015.108 0h-.033c.016 0 .033.046.099.02.066-.025.01-.012.01-.025.077 0 .098-.017.147-.02-.01.027.085 0 .032.029a.228.228 0 00-.16 0c.029.03-.059 0-.076.025.062 0 .057.032.069.051a.173.173 0 00.042 0c0-.019-.015-.017-.015-.036a.374.374 0 00.167-.023c.024 0 .017.028-.01.03.08-.007.16-.007.241 0-.049-.03.085 0 .051-.033-.034-.031-.074-.027-.053-.04.021-.013 0 .013.01.02.011.006.051.025.083 0-.074 0-.015.035-.028.059.054-.013 0 .017.05.017.057-.013.116-.024.175-.03a.83.83 0 00.252 0c.035.013.011.038.05.042.037.005-.035-.027.031-.014.02 0 .119.017.138-.02l-.02.028c.011.002.022.002.033 0 0 0 .014.017 0 .024.04.019.082 0 .126 0l-.027-.018c.074-.012.123 0 .195 0v-.025h.042c0 .017.03.028.053.013l-.112.04c-.032 0 .034-.019.015-.036a.11.11 0 00-.094 0 .09.09 0 00.047 0c0 .024-.031.024-.05.039h.035a.265.265 0 01-.097.012c.03 0-.015-.015 0-.021.015-.006-.044.028-.1.021-.055-.006-.1.015-.163 0a.212.212 0 01.095-.044c-.037-.01-.042 0-.082-.01a.155.155 0 01-.083.048v-.015c-.046 0-.046.03-.104.025h-.284v-.015c-.042.032-.144.013-.2.028-.098-.015-.212.013-.266-.013-.167.016-.335.021-.504.017l.03-.02c-.032.016-.021-.013-.053 0 .038.016-.043.02-.066.035a.635.635 0 00-.254.017v-.017a.604.604 0 01-.246 0 .081.081 0 00-.053-.019.491.491 0 01-.146.039 1.469 1.469 0 01-.189-.015c-.195.034-.394.012-.597.031l-.015-.016c-.197.038-.438 0-.608.023l.017-.032c-.053 0-.121 0-.106.03-.053 0-.132.015-.165 0-.035-.015-.068.015-.112.019a1.38 1.38 0 00-.25 0h.025s.012-.02-.013-.021c-.025-.002-.14 0-.101.027-.11-.019-.255.017-.36 0l-.03.02a1.755 1.755 0 00-.271 0c-.016 0 .025-.016-.016-.018-.04-.002 0 .013-.027.02-.155.017-.314-.02-.456-.015-.25.019-.51 0-.75.012-.08.028-.188-.03-.252.013-.019 0-.074 0-.06-.017-.063.02-.177-.019-.27 0h.023c-.093-.017-.176 0-.273 0 0 0 .027 0 .03-.013-.04-.015-.09.03-.111 0-.021 0-.015.017 0 .017-.223-.005-.447 0-.67.017-.16-.02 0-.06-.137-.034 0 0 0 .013 0 0-.05 0-.076-.038-.11-.021.014.021-.024.013-.024.026-.1-.015-.119-.034-.197-.017-.09.032-.195.014-.273.05-.5 0-.981.028-1.47.032-.49.005-.956 0-1.448-.01a.485.485 0 00-.284-.087s.013 0 0 0c-.012 0-.089 0-.101.025h-.534c.027 0 .042-.02 0-.02l-.036.016c-.026 0-.051.015-.026.023h-.411v.645a3.269 3.269 0 000 .384 6.38 6.38 0 00-.017 1.028.273.273 0 01-.08-.192M30.278 9.378c-.013-.012-.055-.019-.021-.036.033-.017.025.026.021.036"/><path stroke="null" fill="#FFF" d="M29.195 9.253H29.212c.01 0 0 0-.017.013M28.907 9.245s.066-.02.1-.022l-.1.022zm0 0M28.648 9.2c-.023 0-.017-.015.013-.013s0 0-.013.013M28.63 9.225a.07.07 0 01-.043-.012s.049 0 .042.012M28.066 9.193c-.015 0-.043.01-.055 0-.013-.01.065-.014.055 0M27.803 9.21a.026.026 0 00-.021 0c-.015 0 0-.012.015-.014l.006.014zm0 0M23.031 9.253l.03-.004-.004.01-.026-.006zm0 0M20.942 9.253h-.025c-.004 0 0 .013.025 0M19.815 9.309h.009l-.005.02-.004-.02zm0 0M13.405 4.643c.094 0 .793.02.906.02.121-.027.246-.034.37-.02.16 0 .03 0 .178.02a.21.21 0 01.093.027.43.43 0 00.102.019h.112c.04 0 .078.01.113.028.065 0 .148-.064.211-.064.22-.029.442-.038.664-.03 0 .066 0 .179.104.179h.012c0 .234.057.457.057.682a.773.773 0 01-.13.457c-.103.103-.29.067-.425.168h-.241a.212.212 0 00-.212.213.247.247 0 00.104.215c-.039 0-.085 0-.085-.039-.036.028-.027.113-.027.18.04.12.07.246.084.373a.178.178 0 010 .075 1.493 1.493 0 000 .176c0 .14.02.262.02.402a.557.557 0 010 .132c-.03.192-.046.386-.047.58-.01.154-.005.307.012.46 0 .177-.101.325-.101.476.012.129.072.249.167.336.03.018.066.027.102.028.074 0 .167-.047.26-.047a.45.45 0 01.104.019c.036 0 .066-.074.113-.074h.027c.102.047.242.047.242.15V10.59c.009.18-.016.36-.075.531 0 .01-.008.019-.019.019a1.033 1.033 0 00-.156-.036c-.039 0-.039.017-.039.064a.252.252 0 00-.148-.055H15.4a1.616 1.616 0 00-.213 0c-.186 0-.353-.017-.485-.017a.705.705 0 00-.373.063.03.03 0 01-.027.011c-.075 0-.168-.074-.212-.074a.21.21 0 00-.15.101c-.036-.038-.036-.084-.083-.084h-.424c-.129 0-.252.01-.381.01a.924.924 0 01-.28-.027h-.02c-.054 0-.065.074-.092.074-.028 0 0 0-.02-.01-.055-.047-.194-.064-.194-.141a.604.604 0 000-.13v-.28a.834.834 0 01.038-.262c0-.066-.047-.121-.047-.179a.09.09 0 010-.046 1.054 1.054 0 01.066-.449s.02-.02.027-.02c.022.003.04.018.047.04.038-.02.038-.067.055-.067.104 0 .29.02.373.02a.29.29 0 00.132-.02.258.258 0 00.12-.212.242.242 0 00-.019-.113l.057-.055a.29.29 0 01-.019-.094c0-.074.028-.149.028-.226a.245.245 0 00-.028-.11c0-.038.02-.121.02-.14a.137.137 0 000-.058c0-.168-.212-.168-.355-.233h-.018c-.047 0-.028.112-.075.112h-.195c-.063 0-.13-.083-.212-.036-.017-.085-.102-.085-.148-.132l-.055.047c-.038 0-.085 0-.085-.047-.019.047-.101.085-.14.132a.351.351 0 01-.211-.038.33.33 0 00-.278.187c-.037.16-.056.323-.057.487-.003.188.029.374.093.55.019.066.14.048.212.104a.408.408 0 01.233-.084.395.395 0 01.28.132c.028.107.046.216.054.327 0 .017-.054.017-.054.064v.702c0 .085 0 .225-.047.225-.225.017-.383.017-.606.017 0-.017 0-.047-.047-.047-.046 0-.019.03-.019.047h-.35c0-.017 0-.047-.046-.047-.16.024-.323.034-.485.03-.321-.011-.643.01-.96.064 0-.047 0-.064-.036-.064-.132.007-.264.029-.392.064-.057 0-.047-.084-.084-.084a.077.077 0 00-.056.02.661.661 0 01-.318.093.222.222 0 01-.211-.123.757.757 0 01-.047-.262.941.941 0 01.047-.28c0-.037-.066-.037-.066-.075a.233.233 0 01.038-.149c0-.065-.019-.12-.019-.186a.343.343 0 01.019-.094c-.085 0-.038-.066-.085-.102a.186.186 0 01-.019-.066c0-.066.038-.122.066-.122.209-.05.427-.05.635 0h.066a.063.063 0 01.045.016c.012.01.02.026.02.042.083-.085.196-.151.196-.245v-.7a4.274 4.274 0 00-.056-.767c0-.038.056-.085.056-.14a.092.092 0 000-.047c0-.046-.066-.046-.066-.066a1.508 1.508 0 01-.02-.176c.01-.18.04-.36.086-.534 0-.038-.066-.085-.066-.085.04-.123.06-.253.058-.383a2.531 2.531 0 00-.039-.374c0-.14-.066-.14-.148-.213a.309.309 0 00-.178-.044c-.121 0-.26.044-.392.044 0-.036 0-.082-.017-.082-.113 0-.178-.02-.178-.132a4.324 4.324 0 01-.114-1.008c0-.29.622-.196.847-.242a.158.158 0 00-.01.065.172.172 0 00.112.16c.038 0 .046-.028.046-.066v-.074c.12-.023.241-.032.363-.028h.353a.687.687 0 00.213-.02c0 .039 0 .067.046.067.047 0 .02-.067.055-.067a.134.134 0 01.057 0c.083 0 .187.075.27.075.037 0 .037-.066.057-.066a.517.517 0 01.112 0c.074 0 .157.02.23.02a.258.258 0 00.17-.058s.047.085.075.085c.112 0 .175.019.241.019a.581.581 0 00.212-.057c0-.102.047-.14.12-.14a.808.808 0 01.3.093l.033.234-.046.049.065.878-.046.036v.262h-.027c-.085.048-.187.048-.253.15-.038-.038-.038-.085-.074-.085-.084 0-.14.02-.186.02a.302.302 0 01-.14-.037c-.047 0-.066.103-.066.15V7.37c.02.104.14.179.242.213h.018c.02 0 0-.11.028-.11h.02a.329.329 0 00.177.046 1.1 1.1 0 00.242-.046c.046 0 .085.074.085.074.045-.033.1-.05.157-.047.065 0 .14.02.211.02a.141.141 0 00.066-.011c.187 0 .392 0 .424-.177.031-.176 0-.393.038-.57V6.64a.149.149 0 01.017-.083.192.192 0 01-.038-.121v-.151a.15.15 0 00-.064-.14 1.615 1.615 0 00-.225 0 .935.935 0 00-.372.055l-.066-.064c.057 0 .14 0 .14-.01a.03.03 0 01-.017 0c-.019-.03-.057-.03-.085-.03l-.019-.262.047-.121-.113-.638.066-.355.085-.085a.446.446 0 00.186.038c.047 0 0-.01.047-.01a.812.812 0 01.14.019l.12.104c.028 0 .066 0 .066-.039 0-.038.14 0 .14-.038s.036-.036.055-.036m-4.064.268c-.047 0-.027.046-.047.085a.232.232 0 00-.027.102c0 .076.038.14.038.225a.143.143 0 01-.01.066c0 .028.065.028.092.028a.555.555 0 00.066-.29 1.73 1.73 0 00-.018-.212l-.094-.004zm.765 2.977c-.066 0 0-.122-.074-.122-.047.037 0 .122-.047.15h.083c.017 0 .038 0 .038.027v-.055zm1.314 2.57c.046 0 .046-.027.046-.074-.046 0-.084.047-.101.074h.055zm.225-4.805c.016 0 .016-.027.016-.075h-.016c-.018 0-.058-.055-.094-.055a.044.044 0 00-.038.036h.083c.049 0 .049.047.049.086m-.113.244c.047 0 .064.028.074 0a.092.092 0 00-.074 0m.269-.495c.038-.047.038-.132.12-.152v-.074-.02a.026.026 0 00-.018.012v.046c0 .028 0 .056-.047.056-.046 0-.038.047-.057.047 0 .038 0 .085.019.085m1.706 1.15c.055-.066.167-.104.167-.213 0-.01 0-.01-.02-.01-.018 0-.062.03-.092.03s-.028 0-.036-.02c-.009-.019-.02.02-.02.066v.147zm.241 2.84a.045.045 0 01-.019-.036c0-.046.085-.085.085-.093 0-.008 0-.01-.028-.01a.115.115 0 00-.12.103v.036h.082zm.038.628c0-.02 0-.038-.019-.038a.03.03 0 01-.019.01v.113l.038-.038v-.047zm.636-4.095c-.047 0-.066 0-.066.066l.066-.066zm.424.046c0 .02.046.039.046.094v.02c0-.058.047-.075.047-.114a.059.059 0 00-.019-.046l-.074.046zm.178 4.002c.036 0 .055-.047.055-.074 0-.028 0 0 0 0-.047 0-.047-.047-.085-.047 0 .047 0 .132.038.132m.11-4.442c.066-.017.085-.047.085-.075 0-.027-.027-.082-.038-.14 0 .075-.074.121-.12.179a.18.18 0 00.073.036m.007-.283c.004.01.01.02.016.028 0 0 0-.028-.016-.028m.922 5.58v-.113a.097.097 0 00-.047-.093.232.232 0 00-.017.065v.121c0 .02.055.02.055.02M20.61 6.357a.042.042 0 00-.039-.013.385.385 0 00-.063 0c-.023 0-.03.013-.03.025 0 .013.123.092.123.124v.196c.003.054.003.107 0 .161 0 .252-.038.51-.038.738a.958.958 0 00-.036.166.048.048 0 01.02.036c-.033.05-.094.111-.094.179a.147.147 0 00.019.062c-.08.012-.055.097-.11.11-.087.136-.117.295-.212.35-.091.07-.19.127-.294.173-.056 0-.094.068-.15.098a3.49 3.49 0 01-.815.179.845.845 0 01-.311-.045.23.23 0 01-.136-.228.548.548 0 010-.097c0 .019 0 .061.032.061h.091c.068 0 .142-.012.148-.093 0-.036-.112-.036-.122-.092h-.013c-.013 0-.043.037-.062.062 0-.03 0-.056-.019-.056h-.09c-.026 0-.026-.018-.026-.042.009.018.028.03.049.03h.044c.017-.017.03-.03.03-.043 0-.013-.05-.062-.085-.098-.019.092-.161.017-.161.092a.142.142 0 000 .038c0 .03.03.06.068.086-.087.086-.212.086-.301.172a.03.03 0 00-.013.025.042.042 0 00.03.03.35.35 0 00.252-.098v-.043c.042.111.042.232.159.27-.03 0-.068.043-.098.043a.022.022 0 01-.019 0c-.042-.074-.133 0-.201-.104-.013 0-.032.036-.062.036a1.232 1.232 0 00-.322-.268c-.237-.087-.305-.302-.453-.48a.062.062 0 00.038-.043c0-.019-.013-.038-.013-.051-.11-.091-.067-.213-.171-.32a.084.084 0 01-.013-.042c0-.032.013-.068.013-.093 0-.026.042 0 .042-.023a.48.48 0 01-.042-.213c0-.079.012-.153.012-.212v-.12c0-.012.05-.012.05-.036 0-.098-.062-.172-.062-.26 0-.01.042-.01.042-.042s-.02-.123-.02-.179c.002-.025.008-.05.02-.072.062-.136 0-.23.062-.35 0-.026-.043-.026-.062-.026 0-.062.02-.124.02-.185a.214.214 0 00-.05-.153c0-.02.062-.026.062-.05 0-.022 0-.012-.013-.018-.055-.085-.129-.172-.226-.172h-.02c-.03 0-.085.055-.129.08h-.017c-.061 0-.116-.08-.177-.08a.77.77 0 00.054-.326v-.117c0-.071.006-.142.017-.213 0-.016-.03-.048-.042-.084.019.03.087.019.11.042 0 0-.042 0-.042.013s-.013.074-.013.11c0 .022.005.043.013.062a.181.181 0 00.104.049.064.064 0 00.044-.02.086.086 0 01-.061-.084c0-.036.017-.075.017-.117.054.03.08.08.11.08s.032-.012.048-.031c.031-.02.05-.055.052-.092-.001-.02-.007-.04-.02-.055h.02c.048 0 .054.055.077.085-.03 0-.072 0-.072.013a.169.169 0 00.043.117h.049c.012 0 .019 0 .019-.032v-.092c.104-.042.25-.042.292-.136a.102.102 0 00-.042-.049c-.017 0-.017 0-.049.02-.032.019-.042 0-.042-.02a.364.364 0 00-.055.05l-.055-.037a.343.343 0 01-.05 0c0-.019.03-.019.05-.019v.013a.466.466 0 01.146-.032.21.21 0 01.154.068c.024-.03.092-.03.092-.091.046.047.112.07.177.061-.038.068-.116.16-.116.196.011.055.04.106.085.142a.06.06 0 00.032 0c.03 0 .055-.038.061-.062a.059.059 0 00.013-.042.538.538 0 00-.026-.117c.013 0 .03-.038.068-.038.01.002.02.006.03.013.012 0 .038-.043.061-.069.023-.025 0 0 0 0s-.036-.038-.036-.05h.085c-.02 0-.02.025-.02.038 0 .012.04.023.04.036 0 .013 0 .013-.014.019a.173.173 0 00-.129.11c0 .03.038.05.061.081.026 0 .043 0 .043-.032l.025.032c-.025 0-.025 0-.025.037.02.022.05.033.08.03.043-.067.043-.19.146-.245 0 .042-.048.055-.048.078 0 .024.11.111.16.111.052 0 .037-.017.037-.061a.509.509 0 00-.08-.196H18.44c.006 0 0 .03 0 .042 0 .013 0 .026.038.026h.023c.05 0 .074-.075.1-.075.117 0 .212-.019.305-.019l.026-.02c.028.03.047.067.054.107a.146.146 0 00-.036.092c0 .061.036.117.036.179 0 .03-.054.03-.054.055 0 .091.023.198.023.289a.256.256 0 01-.049.166.113.113 0 01-.11.061c-.049 0-.104-.013-.16-.013a.183.183 0 00-.06 0c-.055.026-.055.068-.075.092-.003.118.006.235.024.35a.091.091 0 01-.075-.031.049.049 0 00-.012.038c0 .024.025.043.044.079l.023-.017c.009.04.013.082.013.123 0 .122-.03.258-.03.387a.588.588 0 00.017.153v.179s-.023 0-.055-.043c-.023 0-.036 0-.036.043a.088.088 0 000 .03c0 .031.026.044.043.062a.046.046 0 00.032-.011c0 .066-.013.14-.013.212a.337.337 0 00.013.11v.137a.195.195 0 01-.039.134.54.54 0 00-.012.11.24.24 0 00.087.214c-.02 0-.043-.026-.043-.026a.032.032 0 00-.025.032v.036c0 .013 0 .026-.049.026a.04.04 0 00-.025.036v.055c.002.01.002.02 0 .03 0 .019.044.057.08.057.036 0 .03-.013.036-.032.006-.02 0-.055 0-.08a.116.116 0 01.051-.092c.03 0 .05 0 .05.026a.064.064 0 00-.046.065c0 .032.02.081.056.081.036 0 0-.091.073-.091.112.01.22.04.32.091.055.043.024.143.11.172.024 0 .056-.061.056-.104 0-.042-.032-.025-.032-.055s.025-.026.032-.026c.006 0 .023.056.03.056a.05.05 0 00.03-.01v.103a.266.266 0 010 .068.156.156 0 01-.043.134.13.13 0 00.08.043.062.062 0 00.062-.043c0-.017 0-.03-.02-.036h.045c.03 0 .03-.032.03-.055 0-.024-.03-.075-.085-.104.03 0 .055 0 .055-.032v-.107c0-.013-.025-.013-.055-.013a.09.09 0 01.072-.055.054.054 0 01.049.049c0 .032-.023.068-.023.094 0 .025.036.023.054.023a.066.066 0 00.056-.019.065.065 0 00.019-.055.583.583 0 00-.039-.153.097.097 0 01.081-.075.032.032 0 01.023 0s0 .038.026.038c.025 0 .13-.019.13-.068a.039.039 0 000-.025c0-.036-.069-.023-.069-.068.013 0 .042 0 .042-.036a.04.04 0 00-.042-.043.122.122 0 00.013-.055c.055-.277 0-.549.098-.812a.486.486 0 00-.069-.198.233.233 0 01.056-.183c0-.02-.036-.045-.036-.074V6.29a.781.781 0 00.042-.263c0-.092-.013-.198-.013-.303a.104.104 0 000-.042.161.161 0 00-.091-.143.12.12 0 00-.055-.016h-.074a.118.118 0 01-.085-.032c-.005 0-.01 0-.014.002-.03 0-.068.02-.098.02a.06.06 0 01-.061-.044c0 .018-.013.043-.032.043a.034.034 0 01-.022-.02.161.161 0 01-.037-.116v-.111c.03 0 .055 0 .055-.03 0-.123.012-.253.012-.389a.941.941 0 00-.012-.19c.031.093.093.18.196.18h.02c.016 0 .016.036.042.036.025 0 .068 0 .078-.026 0 .045 0 .107.026.136.025.03.067 0 .067-.025 0-.026 0-.11.056-.121 0 0 0 .066.03.066h.06a.04.04 0 00.044-.036.137.137 0 00-.012-.068c.033.022.071.037.11.042 0 .08.062.11.062.185 0 .013.017.08.073.08.054 0 .05-.025.05-.06 0-.037-.025-.02-.055-.02 0-.049.066-.023.066-.075 0-.084-.066-.084-.11-.12.031-.026.044-.045.044-.062 0-.055-.087-.1-.13-.13 0 0-.012-.013-.018-.013-.007 0-.03.032-.03.05 0 .016.055.054.055.06h-.019c-.042 0-.103-.06-.178-.085.049 0 .08-.012.093-.037.013-.026-.044-.03-.044-.043 0-.013 0-.013.031-.025.032-.013 0 .012.018.012.017 0 .038-.017.06-.017a.016.016 0 01.014 0c.036.038.036.094.123.106.025 0 .055 0 .055-.012V4.56a.219.219 0 01.061 0 .301.301 0 01.152.055.022.022 0 00.02 0c.023 0 .074-.055.135-.055h.009c-.03.049-.11.02-.14.075.002.07.027.137.072.19a.102.102 0 00.093-.03v.246c-.025-.02-.025-.042-.055-.042a.022.022 0 00-.019 0c-.036 0-.036.048-.062.072a.046.046 0 00-.012.025.028.028 0 00.008.023.029.029 0 00.024.007c-.091.036-.178.082-.259.136 0 .026.025.026.049.026a.243.243 0 00-.049.133c.001.05.034.095.08.111.013 0 0-.072.043-.072a.07.07 0 01-.03-.056c0-.038.05-.068.05-.106a.058.058 0 00-.02-.036c.013 0 .02-.013.026-.013.006 0 .03.045.036.045.006 0 0 0 0 0a.436.436 0 01.275-.185c0 .023 0 .023-.023.036-.024.013 0 .049.023.049.042-.062.142-.085.212-.16a.176.176 0 000-.055v-.068c0-.019 0-.036.017-.036h.045a.172.172 0 00.165-.191.222.222 0 000-.069.093.093 0 00-.055-.078c.03.003.059.013.084.03 0 0 0 .074.038.074.039 0 .036-.074.079-.094a.43.43 0 01.038.198c0 .117-.026.24-.026.364a.672.672 0 00.03.212v.062c0 .025 0 .05.03.056a.148.148 0 01-.136.091.179.179 0 01-.101-.036h-.092l.024-.03c0-.025-.01-.025-.037-.025h-.041a.125.125 0 01-.13.08h-.061c-.068.017-.055.092-.091.134a.036.036 0 00-.013.026c.004.017.018.029.036.03a.172.172 0 00-.055.044.11.11 0 01.048.104v.134c0 .028.006.056.017.08-.023 0-.072 0-.072.026.037.04.057.093.055.148v.11M16.893 4.59a.145.145 0 01-.049.013.375.375 0 01-.112-.032.357.357 0 01.161-.03v.049zm.648 3.385c.037 0 .05-.012.05-.03v-.031a.041.041 0 01-.024.012c-.032 0-.074-.031-.104-.031a.051.051 0 00-.038.019.046.046 0 01.025 0c.043 0 .049.068.098.068m.212-2.197a.28.28 0 00.042.032V5.73c-.031.032-.042.032-.042.055m.576-.818a.016.016 0 010-.018c0-.018.024-.038.024-.055a.024.024 0 000-.013h-.043l.031.03c-.025 0-.06 0-.06.026a.064.064 0 000 .03h.048zm.043.278c.012 0 .03-.026.03-.038 0-.013 0-.024-.03-.024a.029.029 0 00-.02.01.029.029 0 00-.006.02c0 .02 0 .032.026.032m.356-.578h-.013a.013.013 0 00-.013.012s0 .01.013.024a.097.097 0 01.017.036c0 .025-.024.025-.024.044a.017.017 0 000 .017.074.074 0 00.036-.061.222.222 0 00-.023-.066m.532 3.315v.036a.104.104 0 00-.045-.036h.045zm.13-3.315s-.069 0-.069-.013h.068s0 .013.032.043c-.025 0 0 .055-.032.055v-.085zm.196.11s0 .017.017.017v-.017c-.013-.012-.068-.025-.068-.055s.03-.025.068-.025a.063.063 0 00.017-.03c0-.013-.013-.026-.017-.038l-.038-.03c.049 0 .104.03.104.055 0 .026-.066.079-.066.117l-.017.006zm-.038 2.977a.092.092 0 00.055-.049c-.013.043 0 .05-.055.05m.062-2.96a.013.013 0 01-.013.012l.013-.013zm0 0zm0 2.91a.134.134 0 01.067-.055.308.308 0 01-.067.055m.262.498c0-.036.024-.042.024-.08-.024.044-.068.044-.092.074-.023.03 0 0 0 .013 0 .012.024.019.024.036 0 .016 0 .012-.024.038-.023.026 0 0 0 0s.03-.017.043-.017c.013 0 .013 0 .013.023 0 .024.036 0 .036-.023 0-.024-.013-.032-.024-.043v-.02zm-.044-3.402h.032-.056a.04.04 0 01.024 0M19.95 8.4c.018.024.08.024.103.024 0-.05-.078-.03-.085-.072 0 0-.054 0-.054.016 0 .017.017.013.036.032m.345-.395c0 .038-.123.038-.134.094h.06c.019 0 .036.012.045.03.035-.037.048-.062.048-.08 0-.017-.019-.044-.019-.093a.079.079 0 01-.042.013c.025 0 .042.02.042.036m-.074-.049c0 .013.019.013.032.013a.047.047 0 00-.032-.013c0-.03 0-.072.032-.072.031 0 .042 0 .042-.038a.125.125 0 00-.097.038c0 .026.008.05.023.072m0-3.309v.03a.024.024 0 000 .013.12.12 0 01.032.098c.013-.03.042-.03.067-.03a.04.04 0 01-.031-.043V4.66a.016.016 0 01-.013 0c-.017 0-.023-.038-.036-.038-.013 0-.013 0-.026.019m.13.258l-.017-.011a.212.212 0 010 .038.036.036 0 01-.013.023.087.087 0 00-.032.062c.004.038.027.071.061.087a.138.138 0 010-.049c0-.038.02-.08.02-.117a.09.09 0 00-.013-.038m.288-.202c0 .043-.061.043-.091.085 0-.042-.026-.055-.055-.098.036 0 .078-.019.11-.019a.036.036 0 01.036.02v.012zm-.023 1.729c-.013 0-.02-.007-.02-.02 0-.019 0-.012.02-.016v.036zm.133-1.716c0 .017.032.03.039.03v.012c0 .081-.032.117-.032.202 0 .045-.073.013-.073.051a.078.078 0 000 .024c-.01 0-.01-.013-.01-.024 0-.01.017-.044.017-.061a.022.022 0 000-.02c-.03-.025-.066-.025-.066-.055a.032.032 0 01.036-.025c.026 0 .049.012.075.012a.021.021 0 00.017-.005.024.024 0 00.006-.018c0-.032 0-.032-.043-.032a.344.344 0 00.026-.11.13.13 0 00-.08-.124c.08 0 .086.081.122.088-.025 0-.025.036-.025.055m-.134 1.654v.013a.016.016 0 010 .013v-.026zm.172-1.624c0-.013.023-.03.042-.03l-.031.03h-.01zm.11-.172c.013-.024.043-.03.085-.03a.063.063 0 00-.042.061c0 .03.03.062.03.085a.06.06 0 01-.062.032h-.085c.036-.038.024-.11.068-.142M23.803 8.836c0-.03 0-.055-.026-.055-.091.026-.159 0-.243.026-.013 0-.062.03-.104.042 0-.013 0-.042-.025-.042-.069.03-.117 0-.191.03a.095.095 0 00-.023-.056c-.045.026-.094.026-.117.068a.103.103 0 01-.05.02c-.043 0-.086-.033-.135-.033a.16.16 0 00-.048.013s-.025-.042-.055-.042-.013.042-.038.042c-.16-.013-.306-.013-.441-.013-.036 0-.081-.012-.123-.012a.13.13 0 00-.068.012c0-.03 0-.055-.023-.055h-.055c-.013 0-.013.026-.013.055a.086.086 0 00-.068-.03c-.055 0-.097.069-.172.069a.064.064 0 01-.03 0c.03-.02 0-.062.03-.087.03-.026-.03-.03-.042-.03a.116.116 0 00-.036.085v.062a.145.145 0 01-.068-.148v-.105s.043 0 .043-.024a1.344 1.344 0 01-.043-.406c0-.026.043-.026.043-.043 0-.017-.032-.025-.043-.025a.37.37 0 01.043-.213c.049 0 .019.098.061.098a.02.02 0 00.017-.008.022.022 0 00.007-.018v-.049a.039.039 0 01.012-.023.495.495 0 01.166-.02h.211a.396.396 0 00.259-.088 3.75 3.75 0 01-.066-.872c0-.013.053-.068.053-.1a.93.93 0 01-.042-.312c0-.15.019-.296.019-.439v-.023c0-.055-.043-.117-.043-.172 0-.055.024-.049.024-.081s-.013-.068-.013-.104c0-.023.01-.045.026-.062-.056-.025-.056-.061-.092-.092a1.947 1.947 0 00-.184-.012c-.123 0-.233.012-.356.012-.03 0-.091-.025-.091-.068v-.172a.427.427 0 01.064-.268c0-.01-.013-.017-.026-.017s-.032 0-.036.017v-.36.023c.05-.024.123-.024.123-.062a.083.083 0 01-.03-.055c0-.043.085 0 .085-.043.022.02.05.032.08.032.056 0 .11-.032.172-.032.061 0 .068.075.123.075 0 0 0-.043.036-.043.19 0 .35 0 .534.01.03 0 .085-.042.098-.042a.18.18 0 00.116.032.585.585 0 01.246-.062c.187.041.378.062.57.062.141-.002.283-.013.423-.032.026 0 .075-.013.104-.013.03 0 .026 0 .026.013a.927.927 0 01.055.338v.276a1.061 1.061 0 000 .136.141.141 0 010 .05.234.234 0 01-.061.142.256.256 0 01-.104.023c-.13 0-.253-.072-.382-.085-.049 0-.171.085-.171.16 0 .074-.017.16-.017.24 0 .073.014.145.042.213 0 .03-.036.074-.036.097a.437.437 0 010 .088c0 .097-.036.201-.036.289 0 .043.025.134.025.212 0 .079-.012.15-.012.228 0 .079.012.117.012.172 0 .098-.018.198-.018.302 0 .05.006.099.018.147v.185a.29.29 0 00.212.142c.01.004.02.004.03 0a.382.382 0 01.172-.019c.074 0 .148-.023.245-.023.03 0 .037.017.037.036.002.01.002.02 0 .03 0 .104.012.212.012.308 0 .16-.014.318-.042.474 0 .085-.075.117-.147.117a.937.937 0 01-.197-.019l-.192.007zm-1.005-1.9c-.019.025-.055.031-.055.06a.048.048 0 000 .026h.051l.004-.087zm.104.659c-.061.023-.025.061-.049.116.024-.025.024-.08.079-.08v-.01s0-.024-.03-.024M23 6.365c.025 0 .03-.019.048-.025h-.074c.013 0 .013.025.026.025m.152.213c0 .013 0 .013.013.026s-.013-.02-.013-.039.013-.036.013-.048a.028.028 0 00-.008-.022.027.027 0 00-.022-.008.197.197 0 01-.055.042c.03.003.058.021.072.05m.142-.369c.085 0 .19 0 .19-.045-.086-.084-.148-.212-.19-.212-.042 0-.087.087-.087.11.01.06.04.113.087.15m.551 2.3h-.042s0 .062.042.062v-.062zm0 0M25.023 8.924c0 .03-.032.03-.055.03a.27.27 0 01-.148-.192c0-.228-.013-.455-.013-.683 0-.204.02-.407.057-.608a.298.298 0 01.312-.213c.08 0 .135.039.212.039a.275.275 0 00.142-.032c-.124-.19-.35-.257-.411-.387-.024-.05-.105-.085-.105-.136v-.024c0-.042-.067-.042-.093-.074a.975.975 0 01-.078-.412c0-.018.017-.024.042-.03h-.03a.708.708 0 01-.056-.27c.034-.29.142-.566.313-.802.026-.055.062-.147.116-.172.173-.055.27-.213.424-.244a.455.455 0 00.213-.124.62.62 0 00.054.056c.11-.075.117-.043.246-.043.03-.056.159-.026.212-.026l-.061.074c0 .018.012.018.042.018a.211.211 0 00-.066.161c.004.062.016.121.036.179h-.036c-.032.023-.055.036-.055.091s.055.026.079.026c.042-.058.042-.081.103-.117-.042 0-.01-.055-.042-.068a.116.116 0 01-.019-.062c0-.074.05-.136.05-.212.024 0 .073 0 .073-.024 0-.023-.017-.025-.03-.042a.635.635 0 00.212-.026v.075c0 .012.013.03.025.03v-.013c.045-.03.039-.073.068-.073a.048.048 0 01.026 0c0 .03 0 .05.03.05h.067c.026 0 .026-.02.026-.05 0-.03 0-.019.03-.019.029 0 .103.075.128.075.098.127.24.055.257.244a.028.028 0 01.025-.01c.032 0 .068.035.092.035.023 0 .018 0 .025-.025.021-.109.03-.22.025-.332 0-.042.05-.019.06-.042a.306.306 0 01.129-.02c.087 0 .172.026.252.026a.285.285 0 00.135-.038c.024.055.128 0 .16.055.012-.023.012-.055.042-.055.061 0 .142.055.142.094a.488.488 0 01-.058.282 1.891 1.891 0 00.042.485c.021.152.03.304.026.457a.788.788 0 010 .105c0 .085-.023.16-.09.178a.697.697 0 01-.295.05h-.166c-.086 0-.275 0-.275.06 0 .062.068.075.123.111a.039.039 0 010-.025.065.065 0 01.049-.066c.019 0 .036.01.049.01.281.162.576.296.705.592.149.25.217.54.195.831a.025.025 0 01-.008.022.028.028 0 01-.022.008c.02 0 .03.013.03.036a.746.746 0 01-.14.234h-.062v.019c0 .006.05.03.05.055a.016.016 0 010 .013c-.08.107-.145.225-.191.351-.043.098-.121.134-.238.185a.126.126 0 01-.038.01c-.036 0-.042-.049-.042-.091 0-.042 0-.074.025-.074a.33.33 0 01.068.032c-.032-.026-.045-.068-.08-.068a.046.046 0 00-.026 0v.03c0 .054-.03.116-.03.184 0 .068-.123.11-.19.153h-.091a.663.663 0 01-.253.087c-.019 0-.019-.025-.019-.038-.054 0-.09.051-.127.051a.07.07 0 01-.055-.038.1.1 0 01-.032.087c-.03 0-.054 0-.067-.012-.013-.013 0 0-.013.012a.161.161 0 00-.115.043c-.032 0-.032-.043-.057-.043-.052.01-.105.016-.159.017-.09 0-.178-.024-.178-.121v-.013a.098.098 0 01-.09.062.097.097 0 01-.068-.032.16.16 0 01-.092.019.36.36 0 01-.258-.123v-.013c0-.013.061 0 .061-.043a.107.107 0 01-.084.032.701.701 0 01-.333-.178c0-.026.057-.026.057-.045 0-.02-.019-.017-.038-.017-.068 0-.079.11-.079.153 0 .11 0 .302-.086.315-.036.03-.085 0-.104.05a.184.184 0 00-.097-.027c-.045 0-.094.013-.142.013-.05 0-.085-.032-.085-.05-.013.031-.161.014-.178.014l-.013.01zm.055-3.526c.019.017.03.03.049 0-.013 0 0-.02 0-.038a.065.065 0 01-.055.032m0 .971c0 .062.019.111.061.111a.04.04 0 00.023 0c0-.03 0-.074-.054-.074 0 0 0-.03-.03-.03m.495-.468c.075.02.104-.013.143-.013-.049-.036-.062.02-.1-.013v-.01c-.032.036-.068.078-.116.036 0 0-.039.042-.02.055v-.013c.03-.036.075.039.098.013.023-.025.031-.036 0-.055m.233-.358c-.025 0-.03-.023-.03-.03 0-.006-.074.075-.11.037 0 0-.013-.012-.013-.017a.033.033 0 00-.01.024c0 .01.003.02.01.025a.032.032 0 00.024 0c.048-.02.1 0 .13-.044m1.465 2.338a.161.161 0 00.072-.149c0-.195-.212-.24-.356-.24-.055 0-.146-.03-.211-.03a.104.104 0 00-.043 0h-.097c-.117-.136-.282-.042-.424-.104a.06.06 0 01-.056.037c-.023 0-.048-.013-.077-.013a.085.085 0 00-.039 0c-.017 0-.017-.03-.017-.062a.074.074 0 00-.055-.023c-.044 0-.087.03-.135.03a.085.085 0 01-.039 0c0 .031-.023.036-.023.036a.43.43 0 01.03.1c0 .036-.03 0-.03.078a.15.15 0 00.023-.055c.013-.01.045-.01.045-.023.103.14.235.257.385.344.118.071.25.119.386.14.14.016.283.023.424.02.097 0 .146-.062.259-.092m.158-1.774a.067.067 0 00.017-.042c0-.068-.116-.11-.133-.227a.381.381 0 00-.142-.062.39.39 0 01-.185-.153c-.012 0-.031.036-.06.036h-.026a.962.962 0 00-.33-.104.316.316 0 00-.075.012c-.023 0-.023-.042-.055-.042a.309.309 0 00-.08 0c-.092 0-.183.024-.276.024-.093 0-.257.05-.27.172 0 .045.056.106.124.13.103.049.216.079.33.087.318.028.632.086.939.172.055 0 .127.036.178.036.017 0 .042 0 .048-.026m-1.343.974a.09.09 0 00.026-.02c.013-.012.017-.035.03-.054.012-.02.012 0 .019-.013.005-.013.012-.03 0-.043a.048.048 0 01-.026-.061.181.181 0 00-.038.185m.087-.825c.017.012.036.03.048.024 0-.05.043-.086 0-.122 0 0-.012 0-.018-.013-.026.036-.02.023 0 .055.018.032.012.037 0 .05-.013.012-.013 0-.03 0m.3.178a.504.504 0 00.06-.019c.013-.019 0-.036-.023-.055a.205.205 0 00-.106-.006c-.032.037-.043.055-.036.061.006.007.049.013.067.026m0 .484c.024 0 .043 0 .043-.023l-.074-.068s-.02.03-.02.055c.02.01.04.022.058.036m-.032 1.404c.013 0 .013.012.013.019v.01a.038.038 0 00.036.032c.025 0 .042-.025.067-.025a.046.046 0 01.036.012c-.042-.036-.061-.074-.09-.074a.139.139 0 00-.062.026m.104-3.532c-.024 0-.036 0-.036-.03v-.062c0 .024-.03.03-.03.05 0 .018.03.042.03.042a.04.04 0 00.023 0c.038 0 .068-.043.119-.05h-.08c0 .013 0 .044-.026.044m.282.276c-.024.025-.072.032-.072.057 0 .026 0 0 0 0h.065l.007-.057zm.074 2.112l-.03-.026c.024.02-.025.055-.019.062.074 0 .097.068.123.042.025-.026 0-.036 0-.049 0-.013 0 0 0 0a.214.214 0 00-.049-.042c0 .013-.023.03-.042.013m.061 1.488c-.036 0 0-.08-.042-.08-.043 0-.032.042-.032.08v.062s0-.02.013-.062h.061zm.212.14a.097.097 0 000 .045c.013-.02.038-.045.038-.062s0-.013-.013-.019c-.012-.006-.031.013-.031.036m.087-2.281c-.032 0-.032.025-.032.068a.131.131 0 01.1-.075.222.222 0 01-.068 0m.048 1.576a.115.115 0 00-.012.068c.001.03.006.061.012.091h.056c-.056-.032-.056-.11-.056-.136v-.023zm.123-.117a.228.228 0 00-.116.098c.017-.03.085-.03.116-.03 0 .023.017.023.023.049 0-.026 0-.049-.023-.049v-.068zm-.049-1.472h-.054.103a.141.141 0 00-.049-.012m.085-.339a.118.118 0 00.104-.03.06.06 0 01-.042-.061c-.03 0-.062.042-.062.091m.212.426a.157.157 0 01-.036-.091.097.097 0 010-.045c-.038 0-.048 0-.048.025 0 .026.036.104.036.14v.013c.042-.042.122-.03.171-.042v-.036a.022.022 0 00-.02 0c-.042 0-.084.074-.109.074m.055 1.84a.066.066 0 000-.043.118.118 0 00-.036-.081.137.137 0 01.012.042v.043c.002.015.009.029.02.038m.423-2.583s0 .01.02.017c.005.006.012.01.02.01a.028.028 0 00.022-.01c-.02-.017 0-.049-.013-.066l-.049.049zm0 0M11.38 15.7c.082-.012.165-.018.248-.02.063-.016.286.122.286.046V15.7h.05c.032 0 .058 0 .07.026.018.029.026.062.026.095 0 .064-.025.128-.025.173 0 .165.025.331.025.485 0 .057-.057.112-.057.176h-.182c-.595.032-1.219 0-1.814.032-.178 0-.341 0-.526.013-.018 0-.025-.07-.063-.07a.04.04 0 00-.038.031c.002.015.009.028.019.039-.102 0-.235 0-.235-.11v-.031a.729.729 0 00.044-.26c-.013-.165 0-.35-.013-.516 0-.025.013-.057.039-.057a.234.234 0 00.07 0h.082a.123.123 0 01.12.05.41.41 0 00.058-.057c.034.017.07.026.108.026a.283.283 0 00.252-.19.697.697 0 00.045-.197.185.185 0 00-.02-.083.434.434 0 01-.018-.128c0-.102.032-.213.032-.3a.55.55 0 00-.013-.093c0-.057-.07-.057-.07-.07 0-.013.114-.058.127-.109.013-.05-.013-.031-.057-.031v-.192c.044 0 .057 0 .057-.032a.858.858 0 01-.057-.374c0-.172.044-.402.044-.568a.336.336 0 00-.267-.185.863.863 0 00-.163-.036.089.089 0 00-.083.036c0-.01-.05-.01-.05-.01a1.76 1.76 0 00-.07.61c0 .019.044.025.044.057a.048.048 0 010 .026c-.07.096-.013.212-.095.304a.057.057 0 01-.05.025c-.046 0-.103-.025-.16-.025a.215.215 0 00-.05.012s-.045-.038-.058-.038c-.068 0-.119.013-.176.013a.312.312 0 01-.076-.013c-.032 0-.095.045-.115.045-.019 0 0 0 0 0-.044-.064-.127-.013-.127-.064v-.987a.183.183 0 00.115-.05c0-.045-.064-.013-.102-.07 0-.039.076-.039.076-.045a.11.11 0 01-.076-.109c0-.064.051-.14.051-.212a.13.13 0 00-.02-.07h-.044V12.4c0-.064 0-.095.051-.113.05-.017.038.039.038.07-.05.024-.07.043-.07.062 0 .02.045.07.07.127.013.02.026.032.045.032a.089.089 0 00.082-.082.127.127 0 01-.044-.1c0-.024.005-.048.012-.07 0 .032.14.032.173.032.03 0 .093-.096.118-.096.025 0 .28.096.305.096.057-.028.102-.09.153-.09a.068.068 0 01.044.02h.015c.026 0 .083-.014.115-.014.03 0 .012 0 .019.013a.093.093 0 01.086-.063.328.328 0 01.134.038h.096a.14.14 0 00.07.019c.043 0 .082-.026.12-.026.035.003.068.021.09.05.058.01.117.014.177.014a.133.133 0 00.076-.014l.013-.018c.013-.017.061 0 .061.018h.002c.075 0 .392-.05.411-.043.084.016.169.028.255.032a.319.319 0 00.156-.032c.013 0 .212.019.212.043a.158.158 0 01.121-.043c.084-.001.165.034.223.096.01.002.021.002.031 0 .04 0 .077-.023.096-.058 0 0-.038-.03-.038-.036 0-.006 0 0 .013 0a.485.485 0 01.211.064l.02.02c.025 0 .025-.09.088-.116.01.014.024.024.039.032-.039 0-.045.026-.077.042a.023.023 0 010 .016c0 .038.07.038.089.061.025-.077.127-.055.146-.12a.05.05 0 01.032-.012h.057a.05.05 0 00.045-.025c.012.057.063.057.108.057v.195c-.013-.025-.025-.037-.038-.037-.02 0-.038.037-.064.037a.056.056 0 00-.025.045c0 .032.044.051.082.064.038.013.026-.013.026-.045.03.091.045.186.044.281 0 .16-.025.319-.044.476 0 .187-.018.373-.051.556 0 .025.051.038.051.038a.169.169 0 00-.02.076c.011.067.026.132.045.196 0 .019 0 .025-.025.032-.1.028-.202.043-.305.044a1.366 1.366 0 01-.308-.03h-.031c-.039 0-.09.014-.134.014-.044 0-.082 0-.082-.084a.113.113 0 010-.044c0-.032.05-.032.05-.056 0-.023-.031-.095-.031-.14 0-.045 0-.102-.02-.153h.051c.026 0 .026-.025.026-.038 0-.013-.057-.032-.057-.077a.085.085 0 010-.038c0-.076.05-.147.05-.212a.123.123 0 00-.063-.103c.02 0 .05 0 .05-.032a.022.022 0 000-.019c0-.017-.037-.023-.056-.062a.367.367 0 01-.23.062c-.1 0-.34-.049-.353.122-.048.27-.06.547-.032.82v.402c0 .032-.044.032-.044.039.043.326.064.656.063.986 0 .038.055.074.055.113l.013-.01zm-.848.395c-.023 0-.048 0-.048.026a.036.036 0 000 .02h.07c0-.026 0-.04.012-.046h-.034zm.178-3.148c-.012 0-.012-.013-.025-.013-.013 0 0 .025 0 .025s.013-.012.019-.012m0 0h.013-.013zm.032.763c.013.02.02.045.031.045a.034.034 0 00.026-.02.45.45 0 00-.057-.025m.083 2.398c0-.013-.039-.038-.045-.089a.123.123 0 01-.025.076c.018 0 .031.052.044.052.013 0 .02-.013.026-.039m.108-2.653c-.039 0-.039.032-.051.032-.013 0 0 .012.012.012.013 0 .039-.012.039-.044m.057 1.973c-.026.058-.108.026-.108.102l.05.038c0 .032 0 .045-.038.07.039 0 .096 0 .096-.025a.082.082 0 01-.032-.07.344.344 0 01.032-.115m-.096-1.763v.02a.29.29 0 00.102.025c.026 0 0-.038 0-.045h-.102zm.26 2.5a.02.02 0 00-.018 0c-.025 0 0 .046-.025.052.013 0 .026.005.037.013v-.02-.044m.032.07c-.025 0-.032 0-.037-.013a.016.016 0 000 .013v.05a.046.046 0 00.025 0c.012 0 .019 0 .019-.025 0 .02.025.02.057.02s-.032-.026-.057-.026v-.044l-.007.025zm.278-.025a.247.247 0 00-.083.025h.121v-.013c0-.012.038-.019.038-.025h-.031a.057.057 0 01-.039.013M13.74 12.266c0-.019.032-.019.051-.019v.013a.474.474 0 01.15-.032.21.21 0 01.16.07c.025-.032.095-.032.095-.096a.225.225 0 00.184.064h.653a.043.043 0 01.032 0v.043c0 .01 0 .025.038.025h.025c.051 0 .076-.076.102-.076.12 0 .212-.02.315-.02l.026-.019a.21.21 0 01.057.107.16.16 0 00-.038.095c0 .064.038.121.038.185 0 .032-.057.032-.057.058 0 .095.026.212.026.3a.276.276 0 01-.052.171.115.115 0 01-.112.063c-.05 0-.108-.013-.165-.013a.197.197 0 00-.064 0c-.057.025-.057.07-.076.095-.002.114.004.226.02.339a.093.093 0 01-.077-.032.046.046 0 00-.013.038c0 .026.026.044.045.083l.025-.02a.788.788 0 01.013.128c0 .128-.032.266-.032.4 0 .054.006.107.019.16v.184s-.025 0-.057-.044c-.026 0-.038 0-.038.044a.074.074 0 000 .032c0 .032.025.045.044.064a.036.036 0 00.032-.013c0 .07-.012.147-.012.213a.35.35 0 00.012.115v.14a.21.21 0 01-.038.14.587.587 0 00-.013.115.245.245 0 00.09.213c-.02 0-.045-.025-.045-.025a.031.031 0 00-.026.032v.037c0 .013 0 .026-.05.026-.051 0-.028.051-.028.051v.055a.074.074 0 010 .032c0 .02.044.058.083.058a.04.04 0 00.038-.032v-.083c0-.037.02-.072.05-.094.032 0 .052 0 .052.026a.068.068 0 00-.045.068c0 .032.019.083.057.083.038 0 0-.096.077-.096.114.01.225.043.328.096.057.045.025.146.114.178.026 0 .058-.064.058-.108 0-.045-.032-.025-.032-.057s.025-.026.032-.026c.006 0 .025.058.031.058a.052.052 0 00.032-.013v.108a.285.285 0 010 .07.17.17 0 01-.045.14c.022.025.051.041.083.045a.066.066 0 00.064-.045c0-.019 0-.032-.02-.038h.045c.032 0 .032-.031.032-.057-.032-.032-.032-.077-.09-.109.033 0 .058 0 .058-.032v-.101c0-.013-.025-.013-.057-.013a.093.093 0 01.076-.058.056.056 0 01.051.051c0 .032-.025.07-.025.096 0 .025.038.025.057.025a.067.067 0 00.057-.019.069.069 0 00.02-.057.635.635 0 00-.04-.16.094.094 0 01.083-.074.039.039 0 01.026 0s0 .038.026.038c.025 0 .131-.019.131-.07a.039.039 0 000-.025c0-.038-.068-.026-.068-.07.013 0 .042 0 .042-.039a.042.042 0 00-.042-.045.128.128 0 00.013-.057c.055-.287 0-.568.1-.85a.52.52 0 00-.07-.213.246.246 0 01.056-.191c0-.02-.037-.045-.037-.077v-.026a.772.772 0 00.044-.272c0-.095-.013-.212-.013-.312a.097.097 0 000-.045.168.168 0 00-.093-.147.1.1 0 00-.057-.018h-.076a.132.132 0 01-.09-.032.037.037 0 00-.025 0c-.032 0-.07.019-.101.019a.065.065 0 01-.064-.043c0 .017-.013.043-.032.043a.036.036 0 01-.025-.013.165.165 0 01-.039-.12v-.114c.032 0 .058 0 .058-.032 0-.128.013-.261.013-.402a1.077 1.077 0 00-.013-.198c0 .022.019.032.025.032.038 0 .096-.1.178-.1h.02c.018 0 .018.039.044.039.025 0 .07 0 .082-.026 0 .045 0 .106.026.138.032 0 .07 0 .07-.025 0-.026 0-.113.055-.126 0 .013 0 .068.032.068h.063a.042.042 0 00.044-.038.144.144 0 00-.012-.07.269.269 0 00.114.044c0 .084.064.113.064.19 0 .013.019.083.076.083.057 0 .05-.026.05-.064 0-.038-.024-.02-.056-.02 0-.05.07-.025.07-.076 0-.087-.038-.093-.083-.131.032-.026.102-.013.102-.032l.678.032c.101 0 .19.131.212.131.02 0 .012 0 .012-.025a.183.183 0 000-.062c.02.015.045.022.07.02.051 0 .038-.077.083-.096a.446.446 0 01.038.202c0 .121-.025.248-.025.376a.658.658 0 00.031.213v.063c0 .026 0 .052.032.058a.157.157 0 01-.14.094.185.185 0 01-.107-.039h-.096l.025-.03c0-.025-.012-.025-.038-.025h-.044a.128.128 0 01-.134.08h-.063c-.07.02-.057.096-.096.141a.034.034 0 00-.012.026.04.04 0 00.038.032.147.147 0 00-.057.044.118.118 0 01.05.108c0 .045-.012.09-.012.14 0 .03.007.058.019.084-.026 0-.076 0-.076.025a.23.23 0 01.057.151v.115a.046.046 0 00-.038-.026.393.393 0 00-.058.013c-.025 0-.031.013-.031.026s.04.045.04.077a.019.019 0 010 .019c-.087.101-.068.191-.087.325h-.025c0-.032-.013-.039-.032-.039h-.032c-.057.141-.159.154-.254.236a.013.013 0 00-.013.013c0 .013.025.026.045.026h.063c.054-.037.112-.07.172-.096.019 0 .05-.07.095-.095-.02.07 0 .152-.044.212a.137.137 0 00.08.026c.076 0 .12-.08.134-.164 0 .24-.039.489-.039.706-.017.056-.03.114-.037.172a.05.05 0 01.018.038c-.031.051-.093.113-.093.183a.16.16 0 00.017.064c-.08.013-.055.102-.112.115-.09.14-.121.306-.229.363a1.462 1.462 0 01-.305.179c-.058 0-.095.068-.153.1a3.551 3.551 0 01-.847.185.856.856 0 01-.329-.057h-.235a.027.027 0 01-.02 0c-.043-.077-.139 0-.21-.109-.014 0-.03.038-.062.038a1.306 1.306 0 00-.318-.24c-.248-.09-.318-.313-.47-.497a.061.061 0 00.037-.045c0-.02-.012-.039-.012-.051-.113-.096-.068-.213-.176-.33a.095.095 0 01-.013-.044c0-.032.013-.07.013-.096 0-.026.045 0 .045-.026a.477.477 0 01-.045-.212c0-.083.013-.16.013-.213v-.125c0-.013.05-.013.05-.039 0-.101-.063-.178-.063-.267 0-.013.045-.013.045-.045s-.02-.128-.02-.185c0-.027.007-.053.02-.077.063-.138 0-.233.063-.361 0-.026-.045-.026-.063-.026 0-.063.018-.127.018-.191a.226.226 0 00-.05-.16c0-.019.063-.025.063-.05 0-.026 0-.013-.013-.02a.31.31 0 00-.243-.132h-.057a.182.182 0 00-.095.026c-.07 0-.134-.02-.213-.02a.79.79 0 00.058-.337v-.122c0-.037 0-.335.02-.406 0-.019.151 0 .151-.044 0 0 .212.07.212.08a.173.173 0 00.045.122h.05c.013 0 .02 0 .02-.032v-.096a.318.318 0 01.057 0c.064 0 .132.036.182.036a.06.06 0 00.064-.036.118.118 0 00-.045-.051c-.019 0-.019 0-.05.02-.032.018-.045 0-.045-.02a.403.403 0 00-.058.051l-.054-.038a.376.376 0 01-.051 0m.38 3.483c.037 0 .05-.013.05-.032V15.7a.036.036 0 01-.026.013c-.031 0-.076-.03-.108-.03a.049.049 0 00-.038.017.048.048 0 01.026 0c.044 0 .05.07.101.07m.212-2.27l.044.031v-.09c-.03.033-.044.033-.044.058m.636-.559c.013 0 .032-.025.032-.038 0-.013 0-.026-.032-.026s-.026.02-.026.032c0 .013 0 .032.026.032m.368-.6h-.012a.012.012 0 00-.013.013s0 .013.013.024a.119.119 0 01.019.038c0 .026-.026.026-.026.045a.026.026 0 000 .018.078.078 0 00.039-.063.2.2 0 00-.026-.07m.551 3.43c0 .012-.013.025-.013.038a.091.091 0 00-.033-.049l.046.01zm.3-.228a.092.092 0 00.056-.05c-.013.044 0 .05-.057.05m.063-.057a.133.133 0 01.07-.058.332.332 0 01-.07.058m.278.527c0-.038.025-.045.025-.083-.025.045-.07.045-.095.077-.026.032 0 0 0 .012 0 .013.026.02.026.039s0 .013-.026.038c0 0 .032-.019.045-.019.013 0 .013 0 .013.026 0 .025.037 0 .037-.026s-.012-.032-.025-.045v-.019zm-.05-3.79h.031-.057a.048.048 0 01.025 0m.128 3.97c.018.026.082.026.107.026 0-.05-.082-.032-.089-.076 0 0-.057 0-.057.019s.02.013.039.032m.349-.402c0 .038-.127.038-.14.095h.064a.05.05 0 01.044.032c.038-.038.051-.064.051-.083 0-.019-.02-.044-.02-.095a.093.093 0 01-.044.013c.026 0 .045.019.045.038m-.076-.051c0 .013.018.013.031.013a.046.046 0 00-.031-.013c0-.032 0-.075.031-.075.032 0 .045 0 .045-.038a.068.068 0 00-.076.113m.133-3.403a.052.052 0 01-.02-.01.187.187 0 010 .036.042.042 0 01-.011.026.089.089 0 00-.032.064.11.11 0 00.063.089.148.148 0 010-.051c0-.038.02-.083.02-.12a.114.114 0 00-.014-.04m.032 2.197h.032-.032zm.24-.096c.003.053.003.107 0 .16v-.02c0-.07-.077-.025-.077-.064 0-.038.051-.05.077-.076m0-.268c-.013 0-.02-.006-.02-.019 0-.02 0-.013.02-.02v.04zm0-.064v.013a.024.024 0 010 .013v-.026zm.472-1.807zm0 0M18.932 15.777c.05 0 .178-.09.178-.164 0-.075.019-.166.019-.249a.549.549 0 00-.045-.23c0-.032.038-.076.038-.101a.426.426 0 01-.012-.09c0-.1.037-.213.037-.298 0-.044-.025-.14-.025-.223 0-.083.013-.153.013-.236 0-.083-.013-.12-.013-.176 0-.102.019-.213.019-.313a.644.644 0 00-.019-.153c-.012-.064 0-.134-.012-.191a.302.302 0 00-.213-.147.058.058 0 00-.031 0 .42.42 0 01-.178.019c-.077 0-.153.026-.255.026a.035.035 0 01-.028-.01.033.033 0 01-.01-.029.064.064 0 010-.03c0-.108-.012-.212-.012-.319 0-.164.014-.329.044-.49 0-.088.077-.12.153-.12a.292.292 0 01.114.02c.04.005.067.04.064.08-.01.067-.022.133-.039.198 0 .02 0 .045.039.045.038 0 .057-.07.067-.102a.06.06 0 00.022-.045c0-.051-.064-.108-.064-.176h.242c0 .032 0 .057.025.057.096-.025.165 0 .254-.025.013 0 .064-.032.109-.045 0 .013 0 .045.025.045.07-.032.12 0 .197-.032a.09.09 0 00.025.057c.043-.025.094-.025.119-.07a.102.102 0 01.051-.02c.044 0 .089.033.14.033a.22.22 0 00.05-.013s.026.045.058.045.012-.045.038-.045c.165.013.317.013.455.013.039 0 .083.012.128.012a.144.144 0 00.07-.012c0 .032 0 .057.025.057h.057c.013 0 .013-.025.013-.057.017.02.043.032.07.032.057 0 .101-.07.178-.07a.072.072 0 01.031 0c-.031.018 0 .063-.031.088 0 .03.031.03.044.03a.114.114 0 00.039-.087v-.064c.05.033.077.092.07.151v.109c-.013 0-.045 0-.045.025.037.139.052.282.044.425 0 .026-.044.026-.044.045 0 .02.032.026.044.026a.372.372 0 01-.044.212c-.051 0-.02-.1-.064-.1a.026.026 0 00-.018.006.025.025 0 00-.007.018v.053a.05.05 0 01-.013.023.537.537 0 01-.172.02h-.211a.407.407 0 00-.266.082c.059.301.08.608.066.915 0 .012-.054.07-.054.102a.945.945 0 01.041.325c0 .151-.016.304-.016.45v.026c0 .058.044.122.044.179 0 .057-.025.05-.025.083 0 .032.013.07.013.109a.102.102 0 01-.026.063c.055.026.055.064.094.096.037.032.126.013.19.013.127 0 .242-.013.369-.013.031 0 .095.023.095.068v.178a.464.464 0 01-.07.281c0 .013.013.02.025.02a.039.039 0 00.039-.02v.379c0-.013 0-.026-.013-.026-.051.026-.127.026-.127.064.018.014.029.035.032.057 0 .045-.09 0-.09.045a.127.127 0 00-.082-.032c-.057 0-.114.032-.178.032-.038-.032-.07-.076-.127-.076-.013 0-.013.044-.038.044-.195 0-.36 0-.551-.013-.032 0-.089.045-.102.045a.193.193 0 00-.12-.032.613.613 0 01-.252.064 2.697 2.697 0 00-.592-.064c-.15.002-.3.012-.45.032-.025 0-.075.013-.107.013s-.025 0-.025-.013a.936.936 0 01-.058-.353v-.287a.939.939 0 000-.14.151.151 0 010-.052.15.15 0 01.172-.172c.133 0 .26.077.392.09m-.456.807c.064-.025.026-.063.051-.118-.025.023-.025.08-.083.08v.005c0 .013 0 .025.032.025m1.695-4.11h.045s0-.064-.045-.064v.064zm.59.587c-.032 0-.032.026-.052.026h.077c-.013 0-.013-.026-.025-.026m.211-.593c.02-.026.057-.032.057-.064a.039.039 0 000-.026h-.05l-.007.09zm0 0M23.748 19.243h-.149l-.03.019s.04-.04.04-.07v-.02c-.029-.04-.139.03-.158.03-.08.08-.04.06-.14.06a.296.296 0 01-.07-.02c0-.02 0-.07-.04-.07-.11 0-.11.06-.2.06-.12-.05-.211.03-.338.03a1.741 1.741 0 00-.29.03c0-.05 0-.07-.02-.07a.248.248 0 00-.15.07.749.749 0 01-.25.05c-.13 0-.24-.05-.258-.17a.837.837 0 01-.03-.24c0-.17.04-.372.04-.55v-.111c0-.1-.04-.23-.04-.36 0-.161.08-.28.199-.28.149-.024.3-.024.45 0 0 0 0-.03.059-.08 0 .05.04.05.09.05a.302.302 0 00.14-.29c0-.059-.01-.12-.01-.169 0-.05.07-.051.07-.092a.038.038 0 000-.03c0-.04-.06-.04-.06-.078.081-.542.01-.972.01-1.488 0-.481-.029-.951-.05-1.42 0-.162-.17-.2-.328-.24.03-.042.078-.093.078-.142 0-.048-.019-.061-.078-.08 0 0-.05 0-.05.019s.04.04.04.08c0 .041-.09.041-.09.052.025.009.041.033.04.059 0 .03 0 .051-.04.051-.07 0-.15.02-.23.02a.592.592 0 01-.12-.02c-.04 0-.04-.04-.07-.08l.07-.071a.252.252 0 01-.08-.18c0-.06.03-.081.03-.111s-.07-.079-.07-.15a.083.083 0 010-.05c0-.03.07-.03.07-.079v-.08c0-.13.04-.27.04-.411a.395.395 0 00-.04-.18.211.211 0 01.108-.143c.129 0 .25-.04.36-.04.056-.001.11.013.159.04.11 0 .25.04.38.04a.584.584 0 00.228-.04c0 .021 0 .092.021.092.159 0 .289-.122.424-.122.035.001.07.011.1.03h.101a.06.06 0 01.06.03.263.263 0 01.129-.051c.038 0 .076.01.11.03a.805.805 0 00.159 0h.32c.07.15.423-.19.688.04l.03-.02a.14.14 0 01.09-.02.28.28 0 01.21.14c.01.012.024.02.04.021a.051.051 0 00-.02.038c0 .016.007.031.02.04.02.041.06.041.109.041.193.236.355.497.481.774.2.351.369.761.678 1.002.04.04.04.149.04.2.18.15.213.3.41.41.12.11.029.28.12.41 0-.04.039-.04.06-.04.118.06.019.36.118.36.01 0 .121.201.131.201.213-.04.039-.302.039-.48v-.232a.618.618 0 01.049-.279.487.487 0 01.07-.09.034.034 0 000-.031c0-.089-.07-.425-.07-.489.01-.063.017-.127.018-.191a.663.663 0 00-.158-.44c-.04.03-.09.08-.13.08a.033.033 0 01-.03 0c0-.03-.04-.059-.08-.059-.1 0-.019.06-.11.06a.531.531 0 00-.259.08.17.17 0 01-.12-.11.71.71 0 00.021-.213c0-.151-.022-.291-.022-.425v-.608a.154.154 0 01-.018-.09.23.23 0 01.089-.18.317.317 0 01.1 0c.12 0 .23-.05.3.091.068-.092.17-.04.278-.04.06 0 .118.017.169.048v.022c0 .02.14-.07.11-.04a.17.17 0 00.03.06c.15-.1-.04-.13.15-.13h.03c.06.048.149 0 .2.11a.718.718 0 01.279-.08.242.242 0 01.17.058.18.18 0 01.169-.07c.07 0 .14.011.212.011.058 0 .115-.01.17-.03a.144.144 0 00.04.09.328.328 0 01.169-.06h.308c.06 0 .15.06.2.06.051 0 .09.02.09.1.008.217-.009.436-.051.65 0 .021.021.021.021.04 0 .02.02.1-.06.1.02.351.06.532-.309.532-.15 0-.409 0-.47.149-.092.08-.14.2-.13.32 0 .152.041.322.041.47 0 .022-.06.252-.01.322 0 .14-.039.24-.039.4v.03c0 .1.09.26.09.35-.028.121-.042.246-.04.37v.41c.003.14-.017.279-.06.411.089 0 0 .13.089.13-.04.212 0 .425-.04.62a1.737 1.737 0 00-.03.381v.27a.685.685 0 01-.02.192c0 .03-.11.13-.11.18-.04.02.02.02.02.109 0 .09.07.07.09.07v.162c0 .14-.04.178-.258.178s-.49.03-.729.03a1.221 1.221 0 00-.339.051l.03-.01a.198.198 0 00-.079 0c-.12 0-.25-.05-.36-.05a.235.235 0 01-.14-.04c-.163-.22-.31-.45-.438-.69-.06-.15-.159-.26-.25-.46 0-.1-.159-.262-.212-.362l-.977-1.45c0-.06-.159-.151-.18-.23a.6.6 0 00-.078-.25 6.219 6.219 0 01-.55-.802c-.08-.09-.128-.31-.21-.425-.04 0-.13-.19-.17-.19a.16.16 0 000-.07c0-.09-.151-.059-.2-.059-.11.04-.059.07-.059.212 0 .072.01.144.03.213-.002.142.004.284.018.425-.018 0-.11 0-.11.04.09.302.131.617.122.932 0 .27-.022.54-.022.82 0 .242.02.484.062.721 0 .039.108.11.148.11a.368.368 0 01.05 0c.1 0 .213-.06.289-.06h.301c.03 0 .078 0 .078.048 0 .281 0 .562.021.821-.01.213.002.427.038.638 0 .07-.107.07-.137.12a.63.63 0 01-.14.01c-.14 0-.28-.021-.409-.021a.725.725 0 00-.15 0c-.03 0-.32 0-.32-.041m-1.416-.45c0-.02.02-.02.02-.069-.022 0-.051-.03-.07-.03-.02 0-.03.022-.03.07 0 .05.089.02.089.11l-.009-.082zm.568-1.051a.496.496 0 01.18-.02.138.138 0 00-.089-.02.11.11 0 00-.09.04m.279 1.031a.19.19 0 01.129-.049h-.06c-.019 0-.07 0-.07.06m.54-4.967a.071.071 0 00.012-.04c0-.05-.06-.06-.06-.12-.04 0-.04.04-.04.07.06 0 .089 0 .089.07a.096.096 0 010 .041v.03-.051zm.66 4.354a.043.043 0 00-.04-.04l.04.04zm.061.515c.081 0 .081-.162.081-.213a.19.19 0 00-.08-.16c0 .071-.11.04-.11.071a.254.254 0 01.01.09c0 .11-.02.2.1.212m-.07-.521c0 .03 0 .06.05.06 0-.02-.031-.04-.05-.06M9.569 18.475l.036-.119-.017-.066.04-.075.019-.095.053-.1.076-.079.119-.183h.065l.197-.095h.028l.085-.051.089.019.038-.013.131.013h.174l.153.063.072.073.076.036.14.14v.064l.042.032v.077l.049.057-.015.096.04.057-.059.07h-.167l-.045.02-.038-.02h-.174l-.053-.027-.03-.117-.044-.08-.055-.029-.025-.055-.077-.049h-.154l-.041.045v.044l-.063.075v.049l-.034.049v.087l-.058.05-.02.081.025.094-.02.064.011.102.051.057v.103l-.017.027.017.043.032-.015.095.11-.014.026-.032-.017-.032.013.085.05.07.026.035-.03h.092l.1-.093.086-.055.043-.15.031-.031h.299l.15.025.03.028v.06l-.036.027v.04l-.074.152-.258.278-.064.017-.032.047h-.138l-.078.047-.142-.017h-.27l-.078-.07h-.07l-.095-.056-.174-.189-.048-.015-.015-.078-.078-.132v-.067l-.06-.108.028-.045-.008-.312zm.048.087v.028h.025v-.028h-.025zm.318-.542l.104.055-.034-.072-.07.017zm.04 1.235l.03.083.095-.014v-.028h-.072v-.028l-.053-.013zm.2.096v.04h.061v.03h.04l.027-.074-.07-.028-.059.032zm.199 0l-.036.049.07.05.014-.063.04.017v.032h.043l.032-.04.021.05h.036v-.048h.09l.043-.034.015.023h.05v-.053h.067l-.043-.038-.078.016-.017-.016.053-.036-.023-.013-.024.021-.017-.064h-.03l-.014.098h-.14l-.042.058h-.056v-.052h-.09v.043h.036zm.23 0l-.035.07-.02-.087.056.017zm.045-1.531l-.017.023.055.032.049-.013-.017-.04-.04.021-.03-.023zm.189.168v.034l.084-.034.013.051-.053.026.017.04.042-.023.013.023-.03.066.03.025.023-.042.035-.017.012.06h.065v-.067h-.067l-.042-.084.042-.068-.094-.037-.09.047zm.02 1.276h.064v.053l.072-.096.039-.055-.056-.026.036-.04-.04-.03-.072.098h.06v.036h-.054l-.048.06zm0 0M11.412 19.392l.055-.088v-.076l.045-.052v-.123l.054-.142.04-.06v-.078l.043-.056v-.11l.04-.164.045-.083.028-.187.02-.038.021-.056.03-.055v-.046l.055-.085v-.145l.053-.091.035-.022.067.013h.087v.023h.246l.017-.02h.09l.056.056.042.113.026.132.061.087v.026l.042.072v.068l.017.03.043.212.072.164v.044l.085.184v.096l.042.044.043.16-.058.076-.027-.017-.047.053v.064h-.05l-.047.045.03.04.044-.04h.023l.017.033.095-.023.01-.123h.043l.026.078.061.096v.107l-.027.02-.096-.02h-.408l-.035-.03-.025-.098-.023-.043-.02-.102-.042-.095-.078-.028-.038.034h-.057l-.064-.045-.093.034-.064-.016-.061.016-.07.062-.057.153v.055l-.053.086-.079.053h-.339l-.032-.034.04-.138zm.097.061h.017v.06h.051l-.032-.073.043-.012.04.023v.019h.05l.052-.064.044-.023v-.06l.032-.061-.026-.028.039-.12-.057-.012-.018.015.018.062-.045.023v.085l-.161.021-.047.145zm.212-.712l.02.087h.022l.01-.032h.048l.074-.057.049.025.033-.025v-.062l-.036-.017-.057.057-.063-.07h-.026l-.021.047-.053.047zm.155-.426l.055.045.074-.064-.025-.044-.032.027-.01-.027.014-.022-.053-.03-.023.115zm.065-.285l.112-.025.024-.044.038.04.055-.028.03.038.095-.027-.019-.051-.05.017v-.034l.059-.028v.02h.06l.054.025v-.035l.06-.02v.106l-.003.055.056.034v.064h.04v.045l.057-.045-.047-.04v-.045l-.08-.043.027-.157v-.026l-.053-.025-.082.07.013-.042-.088-.06v.032l-.055-.013v-.036h-.042l-.025.062h-.081l.07-.05-.015-.044-.086.017-.017.062h-.035v.08l-.025.018-.047.133zm.047.15l.083.06h.025l.057.052v.045l-.04.074v.126l-.036.053.047.165.06.026h.122l.03-.034v-.149l-.092-.195v-.213l.039.043.044-.047-.036-.058h-.14l-.038.018-.019-.013-.106.046zm.065.756l-.025.028.043.026h.067l.015-.055-.03-.022-.02.032-.05-.009zm.069-1.012h-.051v-.057h.044l.007.057zm-.03.255l.063-.023v.058h-.044l-.034-.018.015-.017zm.485.104v.094h.042l.013-.017-.023-.015v-.053l-.032-.009zm.057.354l.028.063h.059v.03h-.048l.033.061h.079v-.14l-.15-.014zm.096.893l.072-.015.07-.022-.03-.023-.1-.02-.03.018.018.062zm.089-.543v.039l.078.02-.017-.063-.038-.019-.023.023zm0 0M13.304 18.024l.021-.212v-.124l.085-.05.24.042v.04l.073.021v-.068l.058.034.053-.044.095.044.112-.04h.263l.06.042h.05l.212.103.15.191.045.043.044.106v.027l.047.054.038.14v.444l-.074.011v.057h.028v.086l-.079.101v.058l-.082.11H14.7l-.127.128-.159.108h-.123l-.112.045-.087-.045h-.085l-.044.028-.13.024-.449.027-.065-.07.012-.136-.027-.051.015-.426.036-.082v-.064l.017-.104-.017-.079v-.104l-.02-.187-.03-.054v-.108l.046-.032-.047-.034zm.161 1.301l.027.047.045-.025-.036-.058-.036.036zm.1 0h.044l-.025-.07-.068-.017.049.087zm.148-.018v.042l.049.021.017-.032-.066-.031zm.014-.494h.036v-.136h-.02l-.016.136zm0-.26h.036v-.05h-.025l-.01.05zm.092-.607l-.021.046.044.05.02-.073-.043-.023zm.015 1.411l.09.054.045-.073-.013-.046-.135-.024.013.09zm0-.404l.054.111-.044.023.034.037h.195l.047-.043.095-.034.108-.117.049-.113v-.212l.036-.113-.093-.24-.213-.174h-.196l-.034.048.019.157-.015.047.012.14-.018.426-.036.057zm.133-1.063v.04l.03.026.068-.017v-.053l-.098.004zm.189-.019l-.04.027.05.052.034-.036-.044-.043zm-.04 1.43l.074.065.04-.054-.115-.012zm.147-1.436l.016.021h.059l-.013-.043-.062.022zm.518.625h.063l.017-.06-.017-.083h-.036l.021.07-.048.073zm.057.028l-.043.019.017.093h.045l-.02-.112zm0 .159l-.017.051h.044v-.053l-.027.002zm0 0M15.21 18.014l.018-.266.042-.094h.212l.026.055.167-.036.047.066.017-.066.391-.012.03.053h.038l.032-.053.118.019.079-.028.144.028.047.07-.028.166.02.123-.039.055-.494-.023-.059.03-.134-.028-.12.028-.055.093.027.081.053.081-.01.042.089.053.042-.053.108.017.03-.03.227-.038.12.022.047.117-.017.068v.165l-.045.047h-.131l-.026-.012-.169.013-.034-.02-.212.026-.027.085-.02.213-.042.031.034.056.058-.045.025.015h.256l.089-.026h.301l.09-.013.035.109v.266l-.032.048h-.093l-.07-.033h-.142l-.101.046-.11-.061-.07.016-.032-.025-.032.017v.04l-.093.032h-.38l-.116.01-.057-.01-.039-.033v-.79l-.012-.07v-.297l-.049-.16.032-.18zm.918 1.43v.028h.045l.013-.034-.058.006zm.187-.871l-.015.049.038.036.017-.102-.04.017zm.065-.71v.05l.11.05.07-.022-.016-.074-.043-.04-.12.035zm.026 1.488l.06.036.06-.079-.05-.084-.021.044.027.047-.076.036zm0 0M16.842 19.392l.064-.077v-.077l.044-.05v-.124l.058-.142.038-.06v-.079l.042-.055v-.11l.03-.175.044-.083.028-.187.023-.038.02-.056.031-.055v-.046l.057-.085v-.145l.053-.091.034-.022.065.013h.088l.012.023h.246l.017-.02h.09l.056.056.043.113.023.132.046.087v.026l.04.072v.068l.018.03.042.212.074.164v.044l.083.184v.096l.042.044.043.16-.056.076-.03-.017-.037.051v.066h-.049l-.049.045.032.04.045-.04h.021l.017.033.095-.023v-.123h.043l.025.078.061.096v.107l-.027.02-.095-.02h-.41l-.033-.03-.026-.098-.02-.043-.02-.102-.05-.112-.08-.028-.04.034h-.055l-.065-.045-.092.035-.065-.018-.062.018-.07.061-.055.153v.055l-.053.085-.078.054h-.34l-.033-.035.057-.12zm.098.061h.017v.06h.05l-.031-.073.042-.012.039.023v.019h.05l.05-.064.046-.023v-.06l.03-.061-.026-.028.04-.12-.055-.012-.017.015.017.062-.045.023v.085l-.158.021-.05.145zm.211-.712l.02.087h.021l.013-.032h.044l.08-.055.051.025.034-.025v-.064l-.038-.017-.055.057-.05-.072h-.026l-.02.047-.074.049zm.153-.426l.057.045.072-.064-.02-.031-.033.027v-.04l.013-.022-.063-.036-.026.121zm.068-.285l.113-.025.02-.044.04.04.053-.028.032.038.096-.027-.021-.051-.051.017v-.034l.059-.028.013.02h.061l.053.025v-.035l.057-.02v.106l-.017.06.058.034v.063h.038v.045l.055-.045-.045-.04v-.045l-.08-.042.027-.158.007-.03-.062-.016-.08.07.01-.043-.086-.06v.033l-.047-.013v-.036h-.04l-.025.061h-.083l.07-.049-.013-.044-.087.017-.017.061h-.034v.081l-.025.017-.05.125zm.044.15l.085.06h.026l.055.052v.045l-.038.074-.013.126-.036.053.049.165.057.026h.125l.03-.034v-.149l-.07-.176-.01-.166.01-.047.036.043.044-.047-.036-.058h-.14l-.036.018-.013-.037-.125.051zm.069.756l-.026.028.042.026h.066l.015-.055-.028-.022-.023.032-.046-.009zm.067-1.012h-.05v-.057h.044l.006.057zm-.031.255l.063-.023v.058h-.043l-.033-.018.013-.017zm.487.104v.094h.042v-.017l-.021-.015.01-.053-.031-.009zm.055.354l.03.063h.057v.03h-.047l.034.061h.078v-.14l-.152-.014zm.095.893l.074-.015.07-.022-.031-.023-.094-.027-.031.018.012.069zm.091-.543v.039l.079.02-.017-.056-.04-.02-.022.017zm0 0M18.732 17.933l-.01-.213.07-.08h.112l.013.053.048-.013-.015-.036.259-.03.06.034.056.096v.14l-.012.034.017.091-.017.045v.659l-.034.12-.05.029.033.1-.053.061.045.024.038-.043.101.043.09.098h.26l.04-.026.096-.138-.007-.76.017-.067-.045-.096-.016-.253.016-.121.062-.038.163.015h.174l.038.044v.44l-.02.213-.026.202.036.07v.045l-.026.028.032.172.042.019-.025.061.034.024-.064.147v.057l-.049.083v.045l-.154.168h-.09l-.143.085h-.145l-.033.036-.138.012-.123-.05-.095-.034-.095.025-.109-.047-.065-.027-.068-.086-.078-.046-.09-.092-.046-.27.03-.404-.03-.068.012-.17.028-.034-.028-.04v-.04l-.033-.063v-.178l.01-.055zm.246-.213h-.049l.04.042.01-.042zm-.038 1.395v.049H19l-.016-.032-.045-.017zm.296.236l.02.017h.034l-.013-.043-.04.026zm.096-.081v.045h.042v-.034l-.042-.011zm.078.122l-.057.027.076.038.2.022.02-.05.086-.063.01.06.026-.04.059-.035-.034-.036-.038.017-.051-.021h-.061v.057h-.062l-.034-.045-.076-.008-.028.025.028.035h.074v.044l-.138-.027zm.674-.29l.053.047.057-.047v-.053l-.047-.026v.05h-.041l-.022.029zm.036-1.124h.063v-.041l-.054-.034-.009.075zm.055.123l-.03.017v.057l.034-.038-.004-.036zm0 0M17.982 11.328s0-.015-.017-.015c-.065 0-.133.015-.2.015a.439.439 0 01-.105-.015.226.226 0 00-.108-.027.051.051 0 00-.023-.036c-.136-.03-.17-.17-.212-.264a.648.648 0 00-.053-.104v-.045a.063.063 0 000-.02.132.132 0 010-.031.268.268 0 01.036-.104.423.423 0 01.104-.213c.076-.063.127-.178.229-.178h.025v-.028c.038-.038.114-.038.114-.074a.734.734 0 01-.017-.155c0-.05.006-.1.02-.147 0-.026.048-.126.089-.126.012 0 .012 0 .012-.017h.036v-.032h.013c.013 0 .028-.017.044-.027.017-.01.028 0 .036 0h.017c.017 0 .035-.015.043-.015h.108c.045.012.104.07.157.083.018 0 .046.09.057.104.014.018.021.04.021.064 0 .036-.012.072-.012.102v.021a.278.278 0 01-.048.127c-.018.037-.07.075-.07.12a.128.128 0 00.056.087c-.013 0-.026.019-.026.034v.015h.035c.023.042.04.017.057.044.017.028-.017 0-.017.01 0 .012 0 0 0 0s.023.018.031.029c.009.01.028.013.047.03.019.016.028 0 .028-.017s.036-.064.053-.116c.042-.104.023-.212.097-.314h.025c.013.025.03.04.049.04.02 0 .036-.053.066-.061.03-.009 0 .014 0 .02v.018c.017 0 .028-.021.046-.021.02 0 .054.023.079.023a.037.037 0 00.034-.02c0 .037.023.067.023.103 0 0-.023 0-.023.017a.255.255 0 01-.036.16c0 .023 0 .078-.015.116a.393.393 0 01-.091.19.233.233 0 00-.053.113.099.099 0 000 .032c.019.016.064.016.068.037.004.022-.032.024-.043.032-.01.01.021.077.066.077a.026.026 0 00.02-.025.033.033 0 000-.016.054.054 0 00-.02-.016h.02c.003 0 .033.036.04.036.006 0 .067-.021.105-.021.038 0 .013 0 .013.012 0 .013-.013.026-.013.038v.013s.036-.042.049-.053c.013-.01.062 0 .093-.017 0 .045.015.098.015.134v.098a.376.376 0 010 .05c0 .014-.015.014-.015.02v.015c0 .015.013.053.013.072a.023.023 0 010 .022.173.173 0 01-.093.023H18.728c-.013 0-.032-.017-.038-.017a.575.575 0 01-.165-.07l-.119-.068a.04.04 0 00-.023 0c-.04 0-.072.042-.091.072-.02.03-.017 0-.03 0h-.032a.094.094 0 00-.036 0s0 .042-.025.042a.12.12 0 01-.081-.017.04.04 0 00-.023 0c-.038 0-.068.041-.108.041m-.485-.527a.043.043 0 00.012-.028s0-.022-.012-.022a.032.032 0 00-.026.028c0 .02 0 .022.026.022m.379.091c.026.022.06.034.093.036a.109.109 0 00.051 0c.046-.025.1-.036.131-.09v-.019c0-.012 0-.023-.025-.044a.189.189 0 01-.023-.04.211.211 0 00-.06-.155.066.066 0 00-.046-.02.155.155 0 00-.072.02.198.198 0 00-.121.155.23.23 0 00.068.168m.063-.798c0 .01 0 .026-.01.026.008.004.015.01.02.017.013 0 .018 0 .018-.01v-.033a.044.044 0 00-.017 0m.212-.242a.085.085 0 00-.066.087c0 .03.013.059.034.081.019.01.032.01.049.02h.057c.021 0 0-.05 0-.075a.082.082 0 000-.024c0-.043-.028-.083-.066-.083h-.019"/></svg>