<svg xmlns="http://www.w3.org/2000/svg" fill="none" viewBox="0 0 38 24" height="24" width="38" aria-labelledby="pi-humm" role="img"><title id="pi-humm">Humm</title><path fill="#fff" d="M0 0h38v24H0z"/><path fill="#FF6C00" d="m19.056 12.183 9.62-9.62c3.193 3.632 3.06 9.165-.4 12.637V22h-9.83v-.002L18.36 22l-.086.001c-5.524 0-10-4.477-10-10 0-.857.108-1.688.31-2.483.188-1.09-.687-2.843-1.584-3.995 1.449.166 3.566.055 4.216-.606A9.975 9.975 0 0 1 18.276 2a9.96 9.96 0 0 1 6.81 2.683l.148.23-6.724 6.724a.385.385 0 1 0 .546.546Zm-6.25-4.906a1.406 1.406 0 0 0 2.7-.555 1.407 1.407 0 0 0-2.126-1.21l.014-.001.014-.002a.763.763 0 1 1-.706 1.05l-.002.018-.001.015c-.004.035-.005.07-.006.106.001.204.042.4.112.58l.001-.001Z"/></svg>