<svg xmlns="http://www.w3.org/2000/svg" width="54" height="34" viewBox="0 0 53 34"><path style="fill:#ff6c00;fill-opacity:1;stroke:none" d="M0 0h53v34H0z"/><path style="stroke:none;fill-rule:nonzero;fill:#fff;fill-opacity:1" d="M19.316 17.836c0-.809-.418-1.078-1.086-1.078-.613 0-1.02.34-1.257.652v4.293h-2.078V12.54h2.078v3.34c.39-.465 1.16-.977 2.261-.977 1.493 0 2.16.852 2.16 2.082v4.735h-2.078Zm6.973 3.867h2.078V15.06H26.29v4.293c-.234.312-.652.652-1.238.652-.684 0-1.09-.27-1.09-1.078v-3.867h-2.078v4.73c0 1.219.672 2.086 2.148 2.086 1.102 0 1.856-.496 2.258-.965Zm19.207-6.8c-1.031 0-1.883.609-2.258 1.175-.265-.777-.922-1.176-1.855-1.176-.934 0-1.758.524-2.094.907a1.52 1.52 0 0 0-.64-.68c-.31-.184-.7-.27-1.157-.27a2.82 2.82 0 0 0-.715.102c-.808.156-1.449.652-1.77 1.133-.265-.782-.921-1.176-1.855-1.176-1.03 0-1.867.594-2.148.977v-.81h-2.078v6.645h2.078v-4.293c.223-.265.613-.648 1.16-.648.64 0 .863.383.863.89v4.04h2.078v-4.293c.153-.2.418-.469.766-.582.07-.016.14-.043.211-.055.055 0 .125-.016.195-.016.5 0 .754.254.836.61v4.32h2.106v-4.305c.222-.27.601-.625 1.144-.625.64 0 .864.383.864.891v4.04h2.078V17.41c.21-.27.617-.652 1.172-.652.628 0 .867.383.867.894v4.035h2.062v-4.816c0-1.36-.754-1.996-1.965-1.996M5.703 15.059a.638.638 0 0 1-.598-.41.948.948 0 0 1-.054-.286v-.07c.054.129.18.227.332.227a.363.363 0 0 0 .363-.368.354.354 0 0 0-.363-.367.653.653 0 0 1 .336-.101c.363 0 .656.3.656.668a.66.66 0 0 1-.656.664m6.832-2.649-4.516 4.59s-.086.059-.129.059c-.039 0-.097-.016-.125-.059a.187.187 0 0 1 0-.254l3.153-3.203-.07-.113a4.63 4.63 0 0 0-3.192-1.274c-1.227 0-2.469.524-3.305 1.387-.308.313-1.297.371-1.98.285.418.55.836 1.387.738 1.899-.098.382-.14.777-.14 1.187 0 2.637 2.105 4.762 4.687 4.762h4.699v-3.246c1.617-1.657 1.688-4.29.18-6.02M49.164 17.723c.727 0 1.313-.582 1.313-1.305s-.575-1.3-1.313-1.3-1.312.577-1.312 1.3c0 .723.586 1.305 1.312 1.305m0-2.395c.602 0 1.09.48 1.09 1.09 0 .61-.488 1.094-1.09 1.094a1.095 1.095 0 0 1-1.086-1.094c0-.594.488-1.09 1.086-1.09m.348 1.844h.281l-.406-.598a.436.436 0 0 0 .379-.437c0-.285-.211-.453-.504-.453h-.614v1.5h.223v-.594h.238l.391.594Zm-.25-1.305c.168 0 .265.098.265.27 0 .156-.113.254-.265.254h-.375v-.524Zm0 0"/></svg>