<svg xmlns="http://www.w3.org/2000/svg" fill="none" viewBox="0 0 38 24" height="24" width="38" aria-labelledby="pi-hypercard" role="img"><title id="pi-hypercard">Hypercard</title><path fill="#fff" d="M0 0h38v24H0z"/><path fill="#B3131B" d="M11.9 5.1H8.6c-1.4.1-2.6.6-2.9 1.8-.2.6-.3 1.3-.4 2-.7 3.3-1.3 6.7-2 9.9h25.4c2 0 3.3-.4 3.7-2 .2-.7.3-1.5.5-2.3.6-3.1 1.3-6.2 1.9-9.4H11.9Z"/><path fill="#fff" fill-rule="evenodd" d="M6.38 9.31h.605v1.827h2.3V9.31h.605v4.421h-.605v-2.067h-2.3v2.067h-.604v-4.42L6.38 9.31Zm4.364 1.213h.551v3.208h-.55v-3.208h-.001Zm0-1.213h.551v.614h-.55V9.31h-.001Zm3.36 3.74c.168-.212.252-.528.252-.95 0-.257-.037-.477-.111-.662-.14-.355-.398-.533-.77-.533-.376 0-.633.188-.771.563a2.23 2.23 0 0 0-.112.765c0 .248.037.46.112.635.14.333.397.5.77.5a.773.773 0 0 0 .63-.318Zm-2.032-2.527h.526v.428c.109-.147.227-.26.355-.34.183-.12.398-.181.644-.181.366 0 .676.14.93.42.255.28.383.68.383 1.2 0 .701-.184 1.203-.551 1.504a1.25 1.25 0 0 1-.813.286c-.242 0-.446-.053-.61-.16a1.408 1.408 0 0 1-.323-.31v1.646h-.541v-4.493Zm5.477.074c.215.107.378.246.49.417.109.162.181.352.217.569.032.148.048.385.048.71h-2.362c.01.327.087.59.232.787.144.197.368.296.67.296.284 0 .51-.093.678-.28a.944.944 0 0 0 .205-.376h.532c-.014.119-.06.25-.14.396a1.432 1.432 0 0 1-.266.357c-.165.16-.368.268-.61.325a1.873 1.873 0 0 1-.443.048c-.402 0-.742-.146-1.02-.438-.28-.292-.419-.7-.419-1.227 0-.517.14-.938.421-1.26.281-.324.648-.485 1.102-.485.229 0 .45.054.665.16v.001Zm.199 1.265a1.402 1.402 0 0 0-.154-.562c-.148-.261-.396-.392-.743-.392a.823.823 0 0 0-.626.27c-.169.18-.258.408-.268.684h1.791Zm1.237-1.354h.514v.557c.042-.108.146-.24.31-.396a.803.803 0 0 1 .62-.23l.124.012v.572a.805.805 0 0 0-.178-.015c-.273 0-.482.088-.629.263a.92.92 0 0 0-.22.607v1.853h-.541v-3.223Zm4.166.172c.228.176.365.48.411.912h-.526a.971.971 0 0 0-.22-.495c-.115-.132-.298-.198-.55-.198-.346 0-.593.169-.741.506-.097.219-.145.489-.145.81 0 .323.068.594.205.815.136.22.351.331.644.331.225 0 .403-.068.534-.206.132-.137.222-.325.273-.564h.526c-.06.427-.21.74-.451.937-.241.198-.549.297-.924.297-.422 0-.758-.154-1.008-.462-.251-.308-.377-.693-.377-1.154 0-.566.138-1.007.413-1.322a1.333 1.333 0 0 1 1.05-.472c.363 0 .659.088.886.265Zm1.54 2.564c.114.09.25.135.406.135.19 0 .375-.044.554-.132a.745.745 0 0 0 .451-.72v-.436a.928.928 0 0 1-.256.106c-.1.027-.203.047-.307.06l-.328.042a1.255 1.255 0 0 0-.442.123c-.167.095-.25.245-.25.452 0 .156.057.28.172.37Zm1.14-1.466c.125-.016.208-.068.25-.156a.477.477 0 0 0 .036-.208c0-.185-.065-.318-.197-.402-.131-.083-.32-.125-.564-.125-.283 0-.484.077-.602.23a.753.753 0 0 0-.13.375h-.505c.01-.397.139-.673.387-.829a1.59 1.59 0 0 1 .862-.233c.38 0 .687.072.924.217.235.144.352.369.352.674v1.857c0 .056.012.101.035.135.023.034.071.051.146.051.06 0 .119-.006.177-.018v.4c-.084.025-.148.04-.192.046-.06.007-.12.01-.181.009-.187 0-.322-.067-.406-.199a.769.769 0 0 1-.094-.298c-.11.145-.269.27-.475.376a1.47 1.47 0 0 1-.683.16c-.3 0-.544-.091-.733-.273a.905.905 0 0 1-.285-.681c0-.3.094-.531.28-.695.187-.165.432-.266.735-.304l.863-.109Zm1.716-1.27h.514v.557c.043-.108.146-.24.31-.396a.803.803 0 0 1 .62-.23l.124.012v.572a.805.805 0 0 0-.178-.015c-.273 0-.482.088-.629.263a.92.92 0 0 0-.22.607v1.853h-.541v-3.223Zm2.6 2.516c.147.233.381.35.704.35a.745.745 0 0 0 .619-.324c.161-.216.242-.525.242-.929 0-.407-.083-.708-.25-.904a.78.78 0 0 0-.617-.294.815.815 0 0 0-.663.313c-.17.21-.255.516-.255.921 0 .345.074.634.22.867Zm1.216-2.417c.096.06.206.166.328.316V9.295h.52v4.436h-.487v-.448c-.108.181-.263.33-.448.43-.173.089-.37.133-.593.133-.36 0-.67-.151-.933-.453-.263-.302-.394-.704-.394-1.206 0-.469.12-.876.36-1.22.239-.344.582-.516 1.027-.516.247 0 .453.052.62.156Z" clip-rule="evenodd"/></svg>