<svg xmlns="http://www.w3.org/2000/svg" width="38" height="24" fill="none" aria-labelledby="pi-hypercash" role="img" viewBox="0 0 38 24"><title id="pi-hypercash">Hypercash</title><path fill="#fff" d="M0 0h38v24H0z"/><path fill="#20285C" fill-rule="evenodd" d="M10.04 6.051q.416.208.825.456.081.077 0 .152A126 126 0 0 0 6.22 9.481q.785.61 1.519 1.28a14.1 14.1 0 0 1 3.213 4.885.3.3 0 0 1-.174 0 2.2 2.2 0 0 0-.26-.521q-.645-.96-1.411-1.824-.871.624-.998 1.694-.04.587.042 1.172.136.123-.065.13a.22.22 0 0 1-.195-.086l-.542-.674a3.7 3.7 0 0 1-.261-.976 3.8 3.8 0 0 1 1.215-2.237 22 22 0 0 0-1.128-1.172 58 58 0 0 0-2.301-1.93 486 486 0 0 0 4.862-2.933q.165-.11.304-.238" clip-rule="evenodd"/><path fill="#2CC84B" fill-rule="evenodd" d="M11.241 6.763a.3.3 0 0 1 .217.043q.217.207.456.391.04.063-.022.108-1.89 1.124-3.732 2.325a9.3 9.3 0 0 1 1.954 2.41c.52.96.941 1.971 1.259 3.017h-.217a43 43 0 0 0-1.824-3.04L8.224 10.67A22 22 0 0 1 7.03 9.476l.521-.39a118 118 0 0 0 3.69-2.323" clip-rule="evenodd"/><path fill="#20285C" fill-rule="evenodd" d="M12.34 7.661a.2.2 0 0 1 .152.043 8.9 8.9 0 0 1 1.758 5.167.28.28 0 0 1-.195-.044 34 34 0 0 0-.955-2.779q-.259-.476-.521-.954a2.3 2.3 0 0 0-.456-.521l-2.04 1.28a.17.17 0 0 0-.044.087 9.6 9.6 0 0 1 1.867 5.275.2.2 0 0 1-.153-.044 9.6 9.6 0 0 0-.997-2.735 34 34 0 0 0-1.802-2.691A128 128 0 0 1 12.34 7.66z" clip-rule="evenodd"/><path fill="#20285D" fill-rule="evenodd" d="M14.856 9.877h1.216v.998q.543.011 1.085-.022a5.7 5.7 0 0 1-.043-.976h1.216v2.909q-.587.01-1.173-.022a3.7 3.7 0 0 1 0-1.13q-.541-.03-1.085-.02v1.172q-.602.021-1.194-.044-.034-1.432-.022-2.865" clip-rule="evenodd"/><path fill="#20285C" fill-rule="evenodd" d="M18.442 9.923a5.3 5.3 0 0 1 1.345 0q.328.397.608.826l.608-.826a7 7 0 0 1 1.346-.022q-.658.807-1.303 1.628a9 9 0 0 0-.043 1.26h-1.216q.011-.652-.021-1.303-.644-.796-1.324-1.563m4.014-.042q1.128-.01 2.257.023.873.175.76 1.063-.188.623-.847.716a2.6 2.6 0 0 1-.933.022 13 13 0 0 0-.022 1.086h-1.215zm1.172.652a.85.85 0 0 1 .564.022.46.46 0 0 1 .065.412.4.4 0 0 1-.108.065q-.239.034-.478.022.02-.274-.043-.52z" clip-rule="evenodd"/><path fill="#20285D" fill-rule="evenodd" d="M25.82 9.877h2.996v.651h-1.78v.391h1.649q.02.317-.043.63a10 10 0 0 1-1.585-.022q-.034.259-.022.52h1.824v.739h-3.04z" clip-rule="evenodd"/><path fill="#20285C" fill-rule="evenodd" d="M29.274 9.868q1.215-.01 2.43.022.98.15.717 1.106a1.14 1.14 0 0 1-.586.478q.608.543.912 1.303H31.4a5.6 5.6 0 0 0-.695-1.107.44.44 0 0 0-.26-.066v1.173h-1.173V9.868zm1.172.607a2.5 2.5 0 0 1 .738.067q.168.191 0 .39-.342.013-.674.064a1.14 1.14 0 0 1-.065-.52z" clip-rule="evenodd"/><path fill="#2CC84B" fill-rule="evenodd" d="M19.717 13.496q1.124-.132 1.91.652.147.247.218.52h-1.172a.52.52 0 0 0-.391-.412q-.595-.135-.955.347-.03.259-.13.5.099.202.108.433.428.735 1.194.326a.9.9 0 0 0 .217-.304 7 7 0 0 1 1.085 0 .2.2 0 0 1 .044.087q-.377.886-1.346 1.02a2.77 2.77 0 0 1-1.606-.195q-1.201-.839-.565-2.17a1.85 1.85 0 0 1 1.39-.804zm7.407.041c.509-.05 1.02.05 1.475.283q.4.302.434.802h-1.172q-.011-.434-.456-.39a.43.43 0 0 0-.455.217q.052.106.13.195a23 23 0 0 1 1.52.478q.856.529.173 1.28a2.9 2.9 0 0 1-2.17.24q-.81-.233-.782-1.064.521-.011 1.041.021.088.468.566.5l.39-.065q.261-.217 0-.435a5.5 5.5 0 0 1-1.693-.542q-.593-.82.303-1.324.34-.16.696-.196" clip-rule="evenodd"/><path fill="#2DC84B" fill-rule="evenodd" d="M23.196 13.58a4.4 4.4 0 0 1 1.215.085q.611 1.322 1.26 2.628.085.203.13.412a13 13 0 0 1-1.043-.022 2.5 2.5 0 0 1-.304-.52 11 11 0 0 0-1.388 0l-.261.52q-.542.032-1.085.022.09-.29.216-.565.621-1.289 1.26-2.56m.52 1.041q.108.092.175.238.12.293.216.587h-.651z" clip-rule="evenodd"/><path fill="#20285C" fill-rule="evenodd" d="M17.487 13.65h.304q-.69 1.733-1.39 3.45a.32.32 0 0 1-.217-.065q-.413-.38-.846-.737c-.695.51-1.445.94-2.237 1.28q-2.083.822-4.08-.173a3.4 3.4 0 0 1-.521-.391q.628.155 1.28.238a8.6 8.6 0 0 0 1.759-.325 12.6 12.6 0 0 0 2.908-1.52 14 14 0 0 1-.933-.933q-.04-.062.022-.108 1.986-.345 3.95-.716z" clip-rule="evenodd"/><path fill="#2CC84B" fill-rule="evenodd" d="M29.403 13.477q.538-.021 1.065.044.031.585.021 1.172h1.173q-.012-.585.02-1.172.531-.065 1.065-.044v3.126a6.7 6.7 0 0 1-1.064-.044l-.044-1.172a8 8 0 0 1-1.15.044q.01.564-.022 1.128a6.7 6.7 0 0 1-1.064.044z" clip-rule="evenodd"/></svg>