<svg xmlns="http://www.w3.org/2000/svg" width="38" height="24" aria-labelledby="pi-hypercash"><title id="pi-hypercash">Hypercash</title><path opacity=".07" fill="#000" d="M35 0H3C1.3 0 0 1.3 0 3v18c0 1.7 1.4 3 3 3h32c1.7 0 3-1.3 3-3V3c0-1.7-1.4-3-3-3z"/><path fill="#fff" d="M35 1c1.1 0 2 .9 2 2v18c0 1.1-.9 2-2 2H3c-1.1 0-2-.9-2-2V3c0-1.1.9-2 2-2h32"/><path d="M8.453 4.864c.333.166.664.35.992.548.064.062.064.123 0 .183a151.017 151.017 0 00-5.587 3.394 30.274 30.274 0 011.827 1.54 16.918 16.918 0 013.864 5.874.347.347 0 01-.209 0 2.64 2.64 0 00-.313-.627 20.676 20.676 0 00-1.697-2.193c-.698.5-1.099 1.18-1.2 2.037-.032.471-.015.941.051 1.41.108.098.082.15-.078.156a.262.262 0 01-.235-.104l-.652-.81a4.493 4.493 0 01-.314-1.174 4.586 4.586 0 011.462-2.69 25.955 25.955 0 00-1.357-1.41 69.192 69.192 0 00-2.768-2.322A584.272 584.272 0 008.087 5.15c.132-.088.254-.184.366-.287z" clip-rule="evenodd" fill="#20285c" fill-rule="evenodd"/><path d="M9.897 5.72a.371.371 0 01.261.052c.174.165.357.322.548.47.033.05.024.093-.026.13-1.517.901-3.014 1.832-4.49 2.794a11.14 11.14 0 012.35 2.898 19.566 19.566 0 011.514 3.629h-.261A51.733 51.733 0 007.6 12.038l-1.332-1.619a27.928 27.928 0 01-1.436-1.436l.627-.47c1.5-.906 2.98-1.837 4.438-2.793z" clip-rule="evenodd" fill="#2cc84b" fill-rule="evenodd"/><path d="M11.218 6.8a.23.23 0 01.183.052c1.354 1.842 2.059 3.913 2.115 6.213a.338.338 0 01-.235-.052 40.342 40.342 0 00-1.149-3.342c-.208-.382-.416-.765-.626-1.148a2.77 2.77 0 00-.549-.627l-2.454 1.54a.206.206 0 00-.052.105c1.375 1.886 2.124 4 2.245 6.344a.23.23 0 01-.183-.053 11.487 11.487 0 00-1.2-3.289 40.887 40.887 0 00-2.167-3.237A154.1 154.1 0 0111.218 6.8z" clip-rule="evenodd" fill="#20285c" fill-rule="evenodd"/><path d="M.013.026c-.035-.07-.035-.07 0 0z" opacity=".004" clip-rule="evenodd" fill="#040021" fill-rule="evenodd"/><path d="M14.245 9.465h1.462v1.2c.435.01.87 0 1.305-.026a6.796 6.796 0 01-.052-1.174h1.462v3.498c-.47.009-.94 0-1.41-.026a4.44 4.44 0 010-1.358c-.434-.026-.87-.034-1.305-.026v1.41c-.483.017-.962 0-1.436-.052a113.67 113.67 0 01-.026-3.446z" clip-rule="evenodd" fill="#20285d" fill-rule="evenodd"/><path d="M18.557 9.52c.53-.069 1.07-.069 1.618 0 .263.319.506.65.731.993l.731-.993a8.392 8.392 0 011.619-.026c-.528.647-1.05 1.3-1.567 1.958-.052.504-.07 1.009-.052 1.514h-1.462c.009-.522 0-1.044-.026-1.566a52.971 52.971 0 00-1.592-1.88zM23.384 9.47c.905-.008 1.81 0 2.715.027.7.14 1.004.567.914 1.279-.152.499-.49.786-1.019.861a3.15 3.15 0 01-1.122.026c-.026.435-.035.87-.026 1.306h-1.462V9.47zm1.41.784c.221-.07.447-.06.678.026.105.148.131.313.079.496a.494.494 0 01-.13.078c-.192.026-.383.035-.575.026.016-.22-.001-.428-.052-.626z" clip-rule="evenodd" fill="#20285c" fill-rule="evenodd"/><path d="M27.43 9.465h3.603v.783h-2.14v.47h1.983a2.88 2.88 0 01-.052.757 11.75 11.75 0 01-1.906-.026 3.778 3.778 0 00-.026.626h2.193v.888H27.43V9.465z" clip-rule="evenodd" fill="#20285d" fill-rule="evenodd"/><path d="M31.584 9.454c.974-.009 1.949 0 2.923.026.786.12 1.073.564.862 1.331-.17.272-.404.464-.705.575.488.435.853.957 1.097 1.566h-1.619a6.723 6.723 0 00-.835-1.331.527.527 0 00-.314-.079v1.41h-1.41V9.454zm1.41.73c.3-.017.596.009.887.08.135.154.135.31 0 .47-.274.01-.544.035-.81.077a1.37 1.37 0 01-.078-.626z" clip-rule="evenodd" fill="#20285c" fill-rule="evenodd"/><path d="M20.091 13.817c.9-.106 1.667.155 2.297.784.117.198.204.407.262.626h-1.41a.624.624 0 00-.47-.496c-.477-.108-.86.031-1.149.418a2.182 2.182 0 01-.156.6c.079.162.123.336.13.522.343.589.822.72 1.436.392.113-.104.2-.225.261-.366.435-.034.87-.034 1.305 0 .028.03.045.065.053.105-.303.71-.843 1.12-1.619 1.227a3.333 3.333 0 01-1.932-.235c-.962-.672-1.189-1.543-.679-2.61a2.22 2.22 0 011.671-.967zM28.998 13.867a3.204 3.204 0 011.775.34c.32.242.495.564.522.965h-1.41c-.009-.348-.192-.504-.548-.47a.514.514 0 00-.548.261c.042.086.094.164.156.235.616.17 1.225.362 1.828.575.687.423.757.937.209 1.54a3.478 3.478 0 01-2.611.287c-.649-.187-.962-.613-.94-1.279.418-.009.836 0 1.253.026.07.375.297.575.68.6l.469-.078c.209-.174.209-.348 0-.522a6.637 6.637 0 01-2.036-.653c-.476-.657-.354-1.188.365-1.592.272-.129.55-.207.836-.235z" clip-rule="evenodd" fill="#2cc84b" fill-rule="evenodd"/><path d="M24.274 13.917c.497-.032.985.003 1.462.104.49 1.06.994 2.113 1.514 3.16.07.162.121.328.157.495-.419.009-.836 0-1.254-.026a3.031 3.031 0 01-.365-.627 13.373 13.373 0 00-1.67 0c-.106.213-.21.422-.314.627-.435.026-.87.035-1.305.026.071-.23.158-.457.26-.679.498-1.033 1.003-2.06 1.515-3.08zm.626 1.253c.087.074.156.17.21.287.096.235.183.47.26.705h-.783l.313-.992z" clip-rule="evenodd" fill="#2dc84b" fill-rule="evenodd"/><path d="M17.408 14.002h.366c-.553 1.39-1.11 2.774-1.671 4.15a.384.384 0 01-.261-.078 24.491 24.491 0 00-1.018-.887 13.673 13.673 0 01-2.69 1.54c-1.67.658-3.307.588-4.907-.209a4.108 4.108 0 01-.627-.47c.504.124 1.017.22 1.54.287a10.298 10.298 0 002.115-.391 15.22 15.22 0 003.498-1.828c-.39-.355-.764-.73-1.122-1.122-.032-.05-.024-.093.026-.13 1.593-.277 3.176-.564 4.751-.862z" clip-rule="evenodd" fill="#20285c" fill-rule="evenodd"/><path d="M31.74 13.794c.431-.016.858.001 1.28.053.026.47.034.94.026 1.41h1.41c-.01-.47 0-.94.025-1.41a8.038 8.038 0 011.28-.053v3.76c-.431.016-.858-.001-1.28-.053l-.052-1.41a9.381 9.381 0 01-1.383.053c.008.453 0 .905-.027 1.357a8.038 8.038 0 01-1.279.053v-3.76z" clip-rule="evenodd" fill="#2cc84b" fill-rule="evenodd"/></svg>