<?xml version="1.0" encoding="utf-8"?>
<!-- Generator: Adobe Illustrator 21.0.0, SVG Export Plug-In . SVG Version: 6.00 Build 0)  -->
<svg version="1.1" id="Layer_1" xmlns="http://www.w3.org/2000/svg" xmlns:xlink="http://www.w3.org/1999/xlink" x="0px" y="0px"
	 viewBox="0 0 38 24" style="enable-background:new 0 0 38 24;" xml:space="preserve">
<style type="text/css">
	.st0{opacity:7.000000e-02;enable-background:new    ;}
	.st1{fill:#FFFFFF;}
	.st2{fill:#FF7900;}
	.st3{fill:#FFE701;}
</style>
<path class="st0" d="M35,0H3C1.3,0,0,1.3,0,3v18c0,1.7,1.4,3,3,3h32c1.7,0,3-1.3,3-3V3C38,1.3,36.6,0,35,0z"/>
<path class="st1" d="M35,1c1.1,0,2,0.9,2,2v18c0,1.1-0.9,2-2,2H3c-1.1,0-2-0.9-2-2V3c0-1.1,0.9-2,2-2H35"/>
<g id="DIPGjG.tif">
	<g>
		<path class="st2" d="M26.6,18.9c-4.6,0-9.2,0-13.9,0c0,0,0,0,0-0.1c-0.6-2.6-1.3-5.2-1.9-7.9c-0.1-0.4-0.1-0.8,0-1.2
			c0.2-1,0.9-1.5,1.8-1.8c0.9-0.3,1.9-0.5,2.9-0.7c2-0.5,4-1,6-1.4c0.5-0.1,1-0.2,1.5-0.2c1,0.1,1.9,0.9,2.1,1.9
			c0.2,0.8,0.4,1.7,0.6,2.5c0.5,2.2,1.1,4.4,1.6,6.6C27.4,17.5,27.3,18.3,26.6,18.9z M17.8,16.8c0.3,0,0.6,0,0.9,0
			c0-0.4,0-0.7,0-1.1c0.3,0,0.5,0,0.8,0c0.6,0,1-0.3,1.2-0.8c0.1-0.4,0.2-0.9,0-1.3c-0.2-0.7-0.8-1-1.5-0.8
			c-0.2,0.1-0.4,0.2-0.6,0.4c0-0.1,0-0.2,0-0.3c0,0,0-0.1-0.1-0.1c-0.2,0-0.5,0-0.7,0c0,0.7,0,1.5,0,2.2c-0.1,0-0.2-0.1-0.3-0.2
			c-0.2-0.2-0.2-0.4-0.2-0.6c0-0.4,0-0.8,0-1.1c0-0.1,0-0.2,0-0.3c-0.3,0-0.6,0-0.9,0c0,0.6,0,1.2,0.1,1.8c0,0.6,0.4,0.9,1,1.1
			c0.1,0,0.3,0.1,0.5,0.1C17.8,16.1,17.8,16.5,17.8,16.8z M13.5,15.7c0-0.6,0-1.1,0-1.7c0.1,0,0.1,0,0.1,0c0.4,0,0.8,0,1.2,0
			c0.1,0,0.1,0,0.1,0.1c0,0.5,0,0.9,0,1.4c0,0.1,0,0.1,0,0.2c0.3,0,0.6,0,0.9,0c0-1.3,0-2.6,0-4c-0.3,0-0.6,0-0.9,0c0,0.5,0,1,0,1.5
			c-0.5,0-1,0-1.5,0c0-0.5,0-1,0-1.5c-0.3,0-0.6,0-0.9,0c0,1.3,0,2.6,0,4C12.9,15.7,13.2,15.7,13.5,15.7z M23.7,14.5
			c0-0.2,0-0.4,0-0.6c0-0.5-0.2-0.9-0.7-1.1c-0.5-0.2-1-0.1-1.5,0.2C21,13.5,20.9,14,21,14.6c0.1,0.6,0.5,1,1.1,1.1
			c0.3,0.1,0.7,0.1,1,0c0.2,0,0.3-0.1,0.5-0.1c0-0.2-0.1-0.4-0.1-0.6c-0.4,0.1-0.7,0.2-1.1,0.1c-0.3-0.1-0.5-0.3-0.5-0.5
			C22.5,14.5,23.1,14.5,23.7,14.5z M25.8,12.8c-0.4,0-0.6,0-1,0.6c0-0.2,0-0.3,0-0.5c-0.3,0-0.5,0-0.7,0c0,1,0,1.9,0,2.8
			c0.3,0,0.6,0,0.9,0c0-0.1,0-0.1,0-0.2c0-0.4,0-0.8,0-1.3c0-0.4,0.2-0.6,0.6-0.7c0.1,0,0.2,0,0.3,0C25.8,13.3,25.8,13,25.8,12.8z
			 M16.8,11.5c-0.3,0-0.5,0.2-0.5,0.5c0,0.3,0.2,0.5,0.5,0.5c0.3,0,0.5-0.2,0.5-0.5C17.3,11.7,17.1,11.5,16.8,11.5z"/>
		<ellipse transform="matrix(1 -9.874632e-03 9.874632e-03 1 -0.1178 0.1667)" class="st3" cx="16.8" cy="12" rx="0.5" ry="0.5"/>
		<path class="st2" d="M18.7,15c0-0.4,0-0.8,0-1.1c0-0.3,0.2-0.4,0.5-0.5c0.2,0,0.5,0.1,0.6,0.3c0.1,0.3,0.1,0.6,0,1
			c-0.1,0.2-0.2,0.3-0.4,0.3C19.1,15.1,18.9,15,18.7,15z"/>
		<path class="st2" d="M21.8,13.9c0-0.3,0.3-0.6,0.6-0.6c0.3,0,0.5,0.3,0.5,0.6C22.5,13.9,22.2,13.9,21.8,13.9z"/>
	</g>
</g>
</svg>
