<?xml version="1.0" encoding="UTF-8"?>
<svg width="38px" height="24px" viewBox="0 0 38 24" version="1.1" xmlns="http://www.w3.org/2000/svg" xmlns:xlink="http://www.w3.org/1999/xlink" style="background: #FFFFFF;">
    <!-- Generator: Sketch 47.1 (45422) - http://www.bohemiancoding.com/sketch -->
    <title>hyper</title>
    <desc>Created with Sketch.</desc>
    <defs></defs>
    <g id="Page-1" stroke="none" stroke-width="1" fill="none" fill-rule="evenodd">
        <g id="hyper" fill-rule="nonzero">
            <g id="Hyper">
                <path d="M35,0 L3,0 C1.3,0 0,1.3 0,3 L0,21 C0,22.7 1.4,24 3,24 L35,24 C36.7,24 38,22.7 38,21 L38,3 C38,1.3 36.6,0 35,0 Z" id="Shape" fill="#000000" opacity="0.07"></path>
                <path d="M35,1 C36.1,1 37,1.9 37,3 L37,21 C37,22.1 36.1,23 35,23 L3,23 C1.9,23 1,22.1 1,21 L1,3 C1,1.9 1.9,1 3,1 L35,1" id="Shape" fill="#FFFFFF"></path>
                <g id="DIPGjG.tif" transform="translate(10.000000, 5.000000)">
                    <g id="Group">
                        <path d="M16.6,13.9 C12,13.9 7.4,13.9 2.7,13.9 C2.7,13.9 2.7,13.9 2.7,13.8 C2.1,11.2 1.4,8.6 0.8,5.9 C0.7,5.5 0.7,5.1 0.8,4.7 C1,3.7 1.7,3.2 2.6,2.9 C3.5,2.6 4.5,2.4 5.5,2.2 C7.5,1.7 9.5,1.2 11.5,0.8 C12,0.7 12.5,0.6 13,0.6 C14,0.7 14.9,1.5 15.1,2.5 C15.3,3.3 15.5,4.2 15.7,5 C16.2,7.2 16.8,9.4 17.3,11.6 C17.4,12.5 17.3,13.3 16.6,13.9 Z M7.8,11.8 C8.1,11.8 8.4,11.8 8.7,11.8 C8.7,11.4 8.7,11.1 8.7,10.7 C9,10.7 9.2,10.7 9.5,10.7 C10.1,10.7 10.5,10.4 10.7,9.9 C10.8,9.5 10.9,9 10.7,8.6 C10.5,7.9 9.9,7.6 9.2,7.8 C9,7.9 8.8,8 8.6,8.2 C8.6,8.1 8.6,8 8.6,7.9 C8.6,7.9 8.6,7.8 8.5,7.8 C8.3,7.8 8,7.8 7.8,7.8 C7.8,8.5 7.8,9.3 7.8,10 C7.7,10 7.6,9.9 7.5,9.8 C7.3,9.6 7.3,9.4 7.3,9.2 C7.3,8.8 7.3,8.4 7.3,8.1 C7.3,8 7.3,7.9 7.3,7.8 C7,7.8 6.7,7.8 6.4,7.8 C6.4,8.4 6.4,9 6.5,9.6 C6.5,10.2 6.9,10.5 7.5,10.7 C7.6,10.7 7.8,10.8 8,10.8 C7.8,11.1 7.8,11.5 7.8,11.8 Z M3.5,10.7 C3.5,10.1 3.5,9.6 3.5,9 C3.6,9 3.6,9 3.6,9 C4,9 4.4,9 4.8,9 C4.9,9 4.9,9 4.9,9.1 C4.9,9.6 4.9,10 4.9,10.5 C4.9,10.6 4.9,10.6 4.9,10.7 C5.2,10.7 5.5,10.7 5.8,10.7 C5.8,9.4 5.8,8.1 5.8,6.7 C5.5,6.7 5.2,6.7 4.9,6.7 C4.9,7.2 4.9,7.7 4.9,8.2 C4.4,8.2 3.9,8.2 3.4,8.2 C3.4,7.7 3.4,7.2 3.4,6.7 C3.1,6.7 2.8,6.7 2.5,6.7 C2.5,8 2.5,9.3 2.5,10.7 C2.9,10.7 3.2,10.7 3.5,10.7 Z M13.7,9.5 C13.7,9.3 13.7,9.1 13.7,8.9 C13.7,8.4 13.5,8 13,7.8 C12.5,7.6 12,7.7 11.5,8 C11,8.5 10.9,9 11,9.6 C11.1,10.2 11.5,10.6 12.1,10.7 C12.4,10.8 12.8,10.8 13.1,10.7 C13.3,10.7 13.4,10.6 13.6,10.6 C13.6,10.4 13.5,10.2 13.5,10 C13.1,10.1 12.8,10.2 12.4,10.1 C12.1,10 11.9,9.8 11.9,9.6 C12.5,9.5 13.1,9.5 13.7,9.5 Z M15.8,7.8 C15.4,7.8 15.2,7.8 14.8,8.4 C14.8,8.2 14.8,8.1 14.8,7.9 C14.5,7.9 14.3,7.9 14.1,7.9 C14.1,8.9 14.1,9.8 14.1,10.7 C14.4,10.7 14.7,10.7 15,10.7 C15,10.6 15,10.6 15,10.5 C15,10.1 15,9.7 15,9.2 C15,8.8 15.2,8.6 15.6,8.5 C15.7,8.5 15.8,8.5 15.9,8.5 C15.8,8.3 15.8,8 15.8,7.8 Z M6.8,6.5 C6.5,6.5 6.3,6.7 6.3,7 C6.3,7.3 6.5,7.5 6.8,7.5 C7.1,7.5 7.3,7.3 7.3,7 C7.3,6.7 7.1,6.5 6.8,6.5 Z" id="Shape" fill="#FF7900"></path>
                        <circle id="Oval" fill="#FFE701" transform="translate(6.800696, 7.000806) rotate(-0.565756) translate(-6.800696, -7.000806) " cx="6.80069558" cy="7.00080618" r="1"></circle>
                        <path d="M8.7,10 C8.7,9.6 8.7,9.2 8.7,8.9 C8.7,8.6 8.9,8.5 9.2,8.4 C9.4,8.4 9.7,8.5 9.8,8.7 C9.9,9 9.9,9.3 9.8,9.7 C9.7,9.9 9.6,10 9.4,10 C9.1,10.1 8.9,10 8.7,10 Z" id="Shape" fill="#FF7900"></path>
                        <path d="M11.8,8.9 C11.8,8.6 12.1,8.3 12.4,8.3 C12.7,8.3 12.9,8.6 12.9,8.9 C12.5,8.9 12.2,8.9 11.8,8.9 Z" id="Shape" fill="#FF7900"></path>
                    </g>
                </g>
            </g>
        </g>
    </g>
</svg>