<svg xmlns="http://www.w3.org/2000/svg" width="38" height="24" fill="none" aria-labelledby="pi-hyundai_card" role="img" viewBox="0 0 38 24"><title id="pi-hyundai_card">Hyundai Card</title><path fill="#fff" d="M0 0h38v24H0z"/><path fill="#010101" d="M19.713 19.401h-1.644q-.724 0-1.078-.362a1.04 1.04 0 0 1-.32-.706 1.6 1.6 0 0 1 .024-.667q.093-.358.263-.687a.5.5 0 0 1 .258-.241c.147-.068.308-.1.47-.096h1.1l-.035-1.062q-.054-.417.435-.374c.327.028.497.196.51.491zm-.91-2.18h-.41a1.8 1.8 0 0 0-.449.05.32.32 0 0 0-.14.152q-.116.31-.207.606a.65.65 0 0 0 0 .545.36.36 0 0 0 .155.176.6.6 0 0 0 .284.072h.767zm-9.082-1.975a.394.394 0 0 1 .39.288c.072.186.014.29-.175.29h-1.11a.21.21 0 0 0-.164.074.35.35 0 0 0-.065.222v2.428a.23.23 0 0 0 .1.187.45.45 0 0 0 .266.073h.947a.39.39 0 0 1 .389.29c.072.186.013.29-.174.29h-1.17a1.5 1.5 0 0 1-.915-.29.88.88 0 0 1-.41-.694v-2.381a.73.73 0 0 1 .237-.62.96.96 0 0 1 .579-.174zm3.716 1.397.011 2.18h.148a.39.39 0 0 1 .388.29c.073.186.015.289-.174.289h-1.836q-.724 0-1.023-.363a1.2 1.2 0 0 1-.273-.747c-.025-.21-.02-.424.015-.633q.08-.376.159-.646a.5.5 0 0 1 .293-.262c.177-.075.368-.112.56-.108zm-.934.579h-.385a.7.7 0 0 0-.263.048.24.24 0 0 0-.12.154q-.082.297-.146.605c-.028.178-.028.36 0 .538.012.091.014.157.058.186a.32.32 0 0 0 .215.06h.652zm1.967-.378a.95.95 0 0 1 .62-.201h.827a.395.395 0 0 1 .393.29c.073.186.017.289-.172.289h-.68a.25.25 0 0 0-.224.114.33.33 0 0 0-.06.235l-.011 1.614c0 .172-.163.248-.476.232q-.47-.027-.458-.393v-1.546a.77.77 0 0 1 .24-.634zM8.126 8.013q.492.054.487.448v1.38h1.022V8.23c.013-.186.187-.254.5-.216.314.037.48.186.488.448l-.015 3.566q-.039.3-.516.252-.476-.047-.465-.47v-1.38H8.6l-.015 1.598c-.017.2-.187.291-.495.273q-.463-.03-.465-.438l.019-3.633q-.013-.271.482-.216zm5.869 1.488q.454.094.455.443v3.971q0 .295-.47.241a.487.487 0 0 1-.484-.528l-.013-1.373h-.238c-.246 0-1.133-.06-1.382-.187a1.12 1.12 0 0 1-.547-.6V9.813c-.08-.205.02-.317.308-.328q.43-.02.538.248l-.03 1.653a.37.37 0 0 0 .168.23q.409.052.82.052h.385V9.677q.034-.272.49-.176m1.23 2.55q-.373-.195-.373-.734v-1.52c-.017-.262.136-.374.46-.324.322.05.483.187.485.445v1.494a.23.23 0 0 0 .075.187c.073.055.164.08.256.073h.666l-.016-1.91q.019-.349.489-.264c.314.056.465.205.463.439v2.308h-1.62a1.9 1.9 0 0 1-.885-.194m6.08-.088q.02.337-.446.297t-.506-.392l-.026-1.614a.19.19 0 0 0-.053-.14.15.15 0 0 0-.12-.048h-.746l-.032 1.937q-.024.297-.465.263a.45.45 0 0 1-.467-.465l.015-2.314h1.85c.23 0 .453.065.647.186a.56.56 0 0 1 .314.458zm3.57.282h-1.644q-.725 0-1.078-.362a1.04 1.04 0 0 1-.32-.706 1.6 1.6 0 0 1 .024-.667q.094-.358.261-.687a.52.52 0 0 1 .263-.241c.148-.068.31-.101.473-.096h1.1l-.037-1.063q-.053-.416.437-.373.491.048.508.491zm-.906-2.18h-.415a1.8 1.8 0 0 0-.45.049.33.33 0 0 0-.138.153q-.118.31-.207.605a.66.66 0 0 0 0 .546.37.37 0 0 0 .155.175.6.6 0 0 0 .286.073h.77v-1.6zm4.145-.579v2.18h.148a.39.39 0 0 1 .388.29c.071.187.011.29-.187.29h-1.836q-.723 0-1.02-.363a1.24 1.24 0 0 1-.27-.747 2 2 0 0 1 .016-.633q.082-.376.163-.647a.52.52 0 0 1 .3-.269 1.4 1.4 0 0 1 .56-.108zm-.943.58h-.385a.8.8 0 0 0-.27.048.25.25 0 0 0-.119.153q-.086.3-.149.606c-.037.177-.037.36 0 .537.019.09.013.157.056.187a.32.32 0 0 0 .215.06h.652zm2.309 2.185q-.483-.046-.454-.435l.024-1.603c0-.017-.011-.035-.049-.054a.5.5 0 0 0-.13-.04.46.46 0 0 1-.232-.263q-.047-.154.142-.207.164-.055.332-.088.155-.034.294-.114a.47.47 0 0 1 .353.034.32.32 0 0 1 .226.316v2.206c-.011.198-.176.28-.506.248m.373-3.867c.12.076.21.19.26.322a.33.33 0 0 1-.038.323.36.36 0 0 1-.308.136.75.75 0 0 1-.41-.136.64.64 0 0 1-.266-.323.32.32 0 0 1 .186-.427.4.4 0 0 1 .174-.029c.145 0 .286.048.402.134"/><path stroke="#010101" d="M5 13.75V7a2 2 0 0 1 2-2h24a2 2 0 0 1 2 2v6.75"/></svg>