<svg xmlns="http://www.w3.org/2000/svg" fill="none" viewBox="0 0 38 24" height="24" width="38" aria-labelledby="pi-hyundai_card" role="img"><title id="pi-hyundai_card">Hyundai Card</title><path fill="#fff" d="M0 0h38v24H0z"/><path fill="#010101" d="M19.713 19.401h-1.644c-.483 0-.842-.12-1.078-.362a1.04 1.04 0 0 1-.32-.706 1.605 1.605 0 0 1 .024-.667c.062-.238.15-.468.263-.687a.51.51 0 0 1 .258-.241c.147-.068.308-.1.47-.096h1.1l-.035-1.062c-.035-.279.108-.402.435-.374.327.028.497.196.51.491l.017 3.704Zm-.91-2.18h-.41a1.787 1.787 0 0 0-.449.05.323.323 0 0 0-.14.152c-.077.206-.146.41-.207.606a.654.654 0 0 0 0 .545.36.36 0 0 0 .155.176.59.59 0 0 0 .284.072h.767v-1.601Zm-9.082-1.975a.394.394 0 0 1 .39.288c.072.186.014.29-.175.29h-1.11a.21.21 0 0 0-.164.074.353.353 0 0 0-.065.222v2.428a.232.232 0 0 0 .1.187.45.45 0 0 0 .266.073h.947a.393.393 0 0 1 .389.29c.072.186.013.29-.174.29h-1.17a1.518 1.518 0 0 1-.915-.29.884.884 0 0 1-.41-.694v-2.381a.725.725 0 0 1 .237-.62.958.958 0 0 1 .579-.174l1.275.017Zm3.716 1.397.011 2.18h.148a.391.391 0 0 1 .388.29c.073.186.015.289-.174.289h-1.836c-.483 0-.823-.12-1.023-.363a1.207 1.207 0 0 1-.273-.747c-.025-.21-.02-.424.015-.633.054-.25.106-.467.159-.646a.507.507 0 0 1 .293-.262c.177-.075.368-.112.56-.108h1.732Zm-.934.579h-.385a.73.73 0 0 0-.263.048.244.244 0 0 0-.12.154c-.056.198-.102.4-.146.605-.028.178-.028.36 0 .538.012.091.014.157.058.186a.317.317 0 0 0 .215.06h.652l-.011-1.591Zm1.967-.378a.953.953 0 0 1 .62-.201h.827a.395.395 0 0 1 .393.29c.073.186.017.289-.172.289h-.68a.25.25 0 0 0-.224.114.334.334 0 0 0-.06.235l-.011 1.614c0 .172-.163.248-.476.232-.314-.017-.466-.15-.458-.393v-1.546a.765.765 0 0 1 .24-.634h.001ZM8.126 8.013c.328.036.49.185.487.448v1.38h1.022V8.23c.013-.186.187-.254.5-.216.314.037.48.186.488.448l-.015 3.566c-.026.2-.198.283-.516.252-.317-.031-.472-.188-.465-.47v-1.38H8.6l-.015 1.598c-.017.2-.187.291-.495.273-.308-.02-.465-.167-.465-.438l.019-3.633c-.01-.18.153-.254.482-.216v-.001Zm5.869 1.488c.302.062.455.211.455.443v3.971c0 .197-.157.277-.47.241a.487.487 0 0 1-.484-.528l-.013-1.373h-.238c-.246 0-1.133-.06-1.382-.187a1.12 1.12 0 0 1-.547-.6V9.813c-.08-.205.02-.317.308-.328.288-.012.465.069.538.248l-.03 1.653a.373.373 0 0 0 .168.23c.272.034.546.052.82.052h.385V9.677c.022-.181.187-.24.49-.176Zm1.23 2.55c-.249-.13-.373-.375-.373-.734v-1.52c-.017-.262.136-.374.46-.324.322.05.483.187.485.445v1.494a.227.227 0 0 0 .075.187c.073.055.164.08.256.073h.666l-.016-1.91c.013-.233.175-.32.489-.264.314.056.465.205.463.439v2.308h-1.62a1.879 1.879 0 0 1-.885-.194Zm6.08-.088c.014.225-.136.324-.446.297-.31-.026-.48-.158-.506-.392l-.026-1.614a.187.187 0 0 0-.053-.14.154.154 0 0 0-.12-.048h-.746l-.032 1.937c-.015.198-.172.285-.465.263a.45.45 0 0 1-.467-.465l.015-2.314h1.85c.23 0 .453.065.647.186a.56.56 0 0 1 .314.458l.035 1.832Zm3.57.282h-1.644c-.484 0-.842-.12-1.078-.362a1.04 1.04 0 0 1-.32-.706 1.577 1.577 0 0 1 .024-.667c.062-.238.15-.468.261-.687a.517.517 0 0 1 .263-.241c.148-.068.31-.101.473-.096h1.1l-.037-1.063c-.035-.277.11-.402.437-.373.327.032.497.196.508.491l.013 3.704Zm-.906-2.18h-.415a1.813 1.813 0 0 0-.45.049.328.328 0 0 0-.138.153c-.078.206-.148.41-.207.605a.66.66 0 0 0 0 .546.373.373 0 0 0 .155.175.602.602 0 0 0 .286.073h.77v-1.6l-.001-.001Zm4.145-.579v2.18h.148a.391.391 0 0 1 .388.29c.071.187.011.29-.187.29h-1.836c-.482 0-.822-.12-1.02-.363a1.238 1.238 0 0 1-.27-.747 2.055 2.055 0 0 1 .016-.633c.054-.25.11-.467.163-.647a.517.517 0 0 1 .3-.269 1.42 1.42 0 0 1 .56-.108l1.738.007Zm-.943.58h-.385a.756.756 0 0 0-.27.048.253.253 0 0 0-.119.153c-.058.2-.107.402-.149.606-.037.177-.037.36 0 .537.019.09.013.157.056.187a.32.32 0 0 0 .215.06h.652v-1.591Zm2.309 2.185c-.322-.03-.473-.176-.454-.435l.024-1.603c0-.017-.011-.035-.049-.054a.515.515 0 0 0-.13-.04.456.456 0 0 1-.232-.263c-.032-.102.017-.172.142-.207.109-.036.22-.066.332-.088.103-.023.202-.061.294-.114a.47.47 0 0 1 .353.034.321.321 0 0 1 .226.316v2.206c-.011.198-.176.28-.506.248Zm.373-3.867c.12.076.21.19.26.322a.333.333 0 0 1-.038.323.362.362 0 0 1-.308.136.747.747 0 0 1-.41-.136.642.642 0 0 1-.266-.323.32.32 0 0 1 .186-.427.382.382 0 0 1 .174-.029c.145 0 .286.048.402.134Z"/><path stroke="#010101" d="M5 13.75V7a2 2 0 0 1 2-2h24a2 2 0 0 1 2 2v6.75"/></svg>