<svg xmlns="http://www.w3.org/2000/svg" width="38" height="24" fill="none" aria-labelledby="pi-ibexpay" role="img" viewBox="0 0 38 24"><title id="pi-ibexpay">IBEXPAY</title><path fill="#fff" d="M0 0h38v24H0z"/><path fill="#111536" d="M3.652 9.135H2.595v5.726h1.057zm4.638 2.75c.428-.22.823-.588.823-1.277v-.017a1.28 1.28 0 0 0-.388-.95c-.33-.327-.846-.506-1.506-.506H4.547v5.73h2.757c1.282 0 2.132-.547 2.132-1.571v-.017c-.004-.78-.473-1.165-1.146-1.392m-2.655-1.858h1.271c.65 0 1.013.277 1.013.73v.017c0 .523-.435.777-1.084.777H5.638v-1.524zm2.6 3.159c0 .517-.418.787-1.111.787H5.63v-1.571h1.421c.8 0 1.184.287 1.184.767zm3.067-2.929h3.084V9.135h-4.342v5.73h4.325v-1.122h-3.067V12.54h3.088v-1.12h-3.088zm6.29-.254-.581-.868h-2.05l1.608 2.399zm3.258-.868h-2.054l-3.835 5.726h2.05l.894-1.334.894 1.335h2.05l-1.917-2.865zm3.61-.03q.365-.005.708.108c.204.067.39.179.547.324.153.145.275.324.35.524.085.223.126.46.12.696a1.9 1.9 0 0 1-.123.696 1.44 1.44 0 0 1-.898.848 2.2 2.2 0 0 1-.707.108h-2.03v2.48h-.554V9.105zm-.122 2.838q.577 0 .935-.291.357-.294.357-.892 0-.604-.357-.892t-.935-.29h-1.907v2.365zm4.389-2.838 2.282 5.787h-.595l-.707-1.8h-2.649l-.7 1.8h-.589l2.34-5.787zm.79 3.517L28.39 9.655l-1.163 2.967zm.757-3.517h.653l1.911 2.935 1.907-2.932h.66l-2.298 3.402v2.382h-.555V12.51z"/></svg>