<svg width="38" height="24" viewBox="0 0 38 24" fill="none" xmlns="http://www.w3.org/2000/svg"><path fill="#FFF" d="M0 0h38v24H0z"/><path opacity=".07" d="M35 0H3C1.3 0 0 1.3 0 3v18c0 1.7 1.4 3 3 3h32c1.7 0 3-1.3 3-3V3c0-1.7-1.4-3-3-3z" fill="#000"/><path d="M35 1c1.1 0 2 .9 2 2v18c0 1.1-.9 2-2 2H3c-1.1 0-2-.9-2-2V3c0-1.1.9-2 2-2h32z" fill="#fff"/><path d="M3 3.483v17.034C3 21.333 3.94 22 5.091 22h14.354C30.296 22 35 17.693 35 11.977 35 6.292 30.296 2 19.445 2H5.09C3.94 2 3 2.667 3 3.483z" fill="#fff"/><path d="M11 5.122V20h8.255C26.75 20 30 16.679 30 11.982 30 7.488 26.75 4 19.255 4h-6.824C11.637 4 11 4.508 11 5.123v-.001z" fill="#C06"/><path d="M19.016 22H4.358C3.056 22 2 21.262 2 20.352V3.646C2 2.738 3.056 2 4.358 2h14.658C32.926 2 35 8.255 35 11.978 35 18.438 29.316 22 19.016 22zM4.358 2.549c-.872 0-1.572.489-1.572 1.098v16.707c0 .607.7 1.097 1.572 1.097h14.658c9.796 0 15.198-3.363 15.198-9.472 0-8.203-9.526-9.43-15.198-9.43H4.358z" fill="#000"/><path d="M13.934 10.01c.29 0 .56.04.817.118.257.079.47.207.66.364.179.166.324.373.435.608.101.247.157.53.157.865 0 .295-.045.56-.122.807-.09.245-.213.461-.382.638a1.85 1.85 0 01-.636.423 2.55 2.55 0 01-.907.157H12V10h1.934v.011-.001zm-.067 3.252c.145 0 .28-.019.425-.059a.844.844 0 00.358-.206c.106-.1.194-.228.257-.373.067-.157.1-.334.1-.56a2.02 2.02 0 00-.066-.54 1.025 1.025 0 00-.225-.414 1.004 1.004 0 00-.402-.265 1.85 1.85 0 00-.615-.088h-.716v2.515h.883v-.009zm6.174-3.252v.737h-2.394v.855h2.203v.678h-2.203v.972h2.45v.738h-3.445V10h3.39v.011-.001zm3.422 0l1.7 3.99h-1.04l-.346-.884h-1.7l-.358.884h-1.007l1.712-3.99h1.04zm.056 2.447l-.57-1.464h-.01l-.594 1.464h1.174zm3.266-2.447v3.252H29V14h-3.21v-3.99h.995z" fill="#fff"/><path d="M7.321 13.326c1.282 0 2.322-.744 2.322-1.663S8.603 10 7.321 10 5 10.744 5 11.663s1.04 1.663 2.321 1.663zm1.751 6.708c-1.95 0-3.513-1.13-3.513-2.518V15.55c0-.694.782-1.263 1.762-1.263.969 0 1.763.56 1.763 1.263v4.484h-.012z" fill="#000"/></svg>