<svg width="38" height="24" viewBox="0 0 38 24" role="img" aria-labelledby="pi-idealwero" fill="none" xmlns="http://www.w3.org/2000/svg"><title id="pi-idealwero">iDEAL - WERO</title><mask id="pi-idealwero-mask0_1_2" maskUnits="userSpaceOnUse" x="0" y="0" width="38" height="24"><path d="M38 0H0v24h38V0z" fill="#fff"/></mask><g mask="url(#pi-idealwero-mask0_1_2)"><path fill="#000" opacity=".07" d="M35 0H3C1.3 0 0 1.3 0 3v18c0 1.7 1.4 3 3 3h32c1.7 0 3-1.3 3-3V3c0-1.7-1.4-3-3-3z"/><path fill="#FFF48D" d="M35 1c1.1 0 2 .9 2 2v18c0 1.1-.9 2-2 2H3c-1.1 0-2-.9-2-2V3c0-1.1.9-2 2-2h32"/><path d="M31.296 12.019c0-.96.82-1.834 2.235-1.834 1.42 0 2.24.875 2.24 1.834 0 .959-.819 1.834-2.24 1.834-1.415 0-2.235-.874-2.235-1.834zm3.23 0c0-.463-.365-.89-.995-.89-.625 0-.996.427-.996.89 0 .462.37.89.996.89.63 0 .996-.428.996-.89zM30.426 12.7c.291-.146.517-.369.644-.634.126-.265.145-.558.055-.833a1.319 1.319 0 00-.556-.69 1.74 1.74 0 00-.938-.264H27.65v3.48h1.226v-.89h.23l.702.89h1.444l-.826-1.06zm-1.043-.631h-.507v-.985h.513c.33 0 .543.224.543.492a.398.398 0 01-.032.186.46.46 0 01-.117.16.562.562 0 01-.182.108.64.64 0 01-.218.039zM22.052 10.275l-.735 2.075-.718-2.075h-.977L18.9 12.35l-.73-2.075h-1.295l1.484 3.474h1.065l.688-1.89.682 1.89h1.071l1.482-3.474h-1.294zM25.203 12.9h-.004c-.2.003-.397-.047-.562-.143a.838.838 0 01-.356-.393h3.116c.025-.116.038-.234.038-.352 0-.957-.817-1.83-2.233-1.83v.942c.2-.004.397.046.561.143a.833.833 0 01.355.394h-3.112a1.688 1.688 0 00-.037.351c0 .958.817 1.83 2.23 1.83h.003V12.9z" fill="#1D1C1C"/><path d="M25.2 13.843a2.807 2.807 0 00.921-.143c.44-.147.807-.419 1.036-.769.102-.154.176-.32.221-.492H26.08a.86.86 0 01-.263.283.959.959 0 01-.215.11 1.113 1.113 0 01-.403.067 1.103 1.103 0 01-.378-.06.971.971 0 01-.32-.181l-.843.712c.424.317.975.487 1.542.473z" fill="url(#pi-idealwero-paint0_linear_1_2)"/><path d="M25.2 10.181c-1.198 0-1.969.628-2.175 1.404h1.295a.89.89 0 01.317-.31 1.154 1.154 0 01.935-.09.994.994 0 01.392.242l.851-.718c-.38-.322-.927-.528-1.616-.528z" fill="url(#pi-idealwero-paint1_linear_1_2)"/><path fill-rule="evenodd" clip-rule="evenodd" d="M3.083 8.025c-.342.04-.596.233-.674.501-.057.196-.025 2.886-.025 3.214v3.216c0 .377-.018.675.244.88.283.22.57.185 1.019.185h3.74c1.696 0 2.856-.117 4.036-.827 1.069-.644 1.574-1.787 1.624-2.905.042-.95-.138-1.824-.696-2.598-.897-1.245-2.67-1.65-4.296-1.671-.278-.003-4.753-.02-4.972.005z" fill="#fff"/><path fill-rule="evenodd" clip-rule="evenodd" d="M5.55 14.724c.516-.002 1.032 0 1.547 0 1 0 1.8.063 2.732-.269.182-.065.347-.151.491-.236 1.347-.786 1.43-2.746.621-3.77-.204-.259-.245-.245-.344-.346-.1-.102-.296-.214-.428-.288-.48-.27-1.188-.408-1.781-.429-.678-.024-1.578-.003-2.297-.005-.259 0-.413.06-.5.214-.078.14-.042 1.044-.042 1.27v2.571c0 .422-.017.87.002 1.288zm1.81-3.325h1l-.005.212H7.66v.245l.64.003-.002.189c-.153.01-.524-.017-.638.012l.003.27h.713v.21H7.36V11.4zm-1.406 0c.247 0 .661-.027.864.054.204.083.32.264.32.514-.003.678-.685.574-1.185.572V11.4zm2.605 1.14c.001-.096.437-.935.496-1.14l.304.005c.048.066.498 1.094.498 1.135h-.29a1.125 1.125 0 01-.103-.254l-.506.005c-.025.04-.042.082-.058.123-.008.02-.017.046-.025.063l-.038.062-.278.002zm1.484-1.137h.296l.002.927h.646l-.008.211h-.937l.001-1.138z" fill="#CA1C67"/><path fill-rule="evenodd" clip-rule="evenodd" d="M12.078 12.405c.11-1.136-.266-2.073-.969-2.635-.044-.036-.085-.078-.136-.112-.051-.033-.089-.062-.14-.094-.759-.489-1.76-.685-2.732-.713-.676-.02-1.382-.005-2.06-.005H3.994c-.147 0-.359-.014-.482.029a.388.388 0 00-.244.23c-.042.128-.017.684-.017.854v4.338c0 .207-.046.666.075.805.18.208.498.154.853.154h3.067c1.374 0 2.385-.045 3.39-.6.76-.42 1.335-1.144 1.441-2.25zm-8.33-.367c-.046-.322.234-.58.567-.611.383-.036.689.2.723.483.087.723-1.19.83-1.29.128zm1.803 2.686c-.019-.418-.002-.866-.002-1.287v-2.572c0-.226-.036-1.13.043-1.27.086-.153.24-.214.5-.213.719.001 1.618-.019 2.296.005.594.021 1.302.16 1.781.428.133.074.328.187.429.289.099.101.139.087.344.346.81 1.023.725 2.983-.621 3.77-.144.084-.309.17-.492.236-.93.332-1.732.268-2.732.268-.515 0-1.031-.002-1.546 0zm-.668-.002c-.466.001-.82-.27-.933-.567-.073-.193-.05-.423-.05-.633 0-.255-.036-.413.146-.567.246-.208.84-.199.839.397-.002.452.014.921-.002 1.37z" fill="#fff"/><path fill-rule="evenodd" clip-rule="evenodd" d="M3.603 8.63c-.3.034-.523.2-.592.429-.05.167-.022 2.472-.022 2.753v2.756c0 .323-.016.578.214.753.249.19.5.158.894.158h3.285c1.488 0 2.507-.1 3.543-.708.939-.55 1.383-1.53 1.427-2.488.037-.814-.121-1.563-.611-2.226-.789-1.067-2.345-1.414-3.773-1.431-.244-.003-4.173-.018-4.365.004zm8.475 3.775c-.107 1.107-.68 1.831-1.44 2.251-1.005.556-2.016.601-3.39.601H4.18c-.356 0-.674.054-.854-.153-.12-.14-.075-.599-.075-.805V9.96c0-.17-.024-.726.017-.853a.387.387 0 01.245-.23c.123-.045.335-.03.482-.03h2.045c.679 0 1.384-.015 2.06.005.972.028 1.974.224 2.733.713.05.032.088.061.14.095.05.033.091.075.136.11.702.562 1.078 1.5.968 2.635z" fill="#010101"/><path fill-rule="evenodd" clip-rule="evenodd" d="M4.883 14.722c.017-.45 0-.919.001-1.37.002-.595-.592-.605-.839-.397-.182.154-.146.312-.146.566 0 .211-.022.441.05.634.113.297.468.569.934.567zM3.748 12.038c.1.702 1.377.595 1.29-.127-.034-.284-.34-.52-.723-.484-.333.031-.613.289-.567.611z" fill="#010101"/><path fill-rule="evenodd" clip-rule="evenodd" d="M5.954 12.54c.5.001 1.182.105 1.184-.572.002-.25-.115-.432-.32-.514-.203-.083-.617-.056-.863-.054l-.001 1.14zm.297-.21l.001-.72c.373.004.58.017.588.358.003.133-.043.251-.132.307-.115.073-.301.052-.457.055zM7.36 12.54h1.015v-.21l-.714-.002-.003-.269c.114-.029.485-.001.638-.012l.002-.189-.64-.003v-.245h.697l.005-.211h-1v1.14zM8.559 12.54l.277-.001.038-.062c.008-.017.017-.044.025-.064a.698.698 0 01.058-.122l.506-.006c.013.06.073.208.104.254h.29c0-.04-.45-1.069-.499-1.135l-.304-.004c-.058.204-.494 1.043-.495 1.14zm.656-.846l.16.405h-.344l.184-.405zM10.042 12.541h.937l.009-.21-.646-.001-.003-.928h-.296l-.001 1.139z" fill="#fff"/><path fill-rule="evenodd" clip-rule="evenodd" d="M6.25 12.33c.157-.002.343.018.458-.055.089-.056.135-.175.132-.307-.009-.341-.215-.354-.588-.357l-.001.72z" fill="#CA1C67"/><path fill-rule="evenodd" clip-rule="evenodd" d="M9.03 12.099h.346l-.16-.405-.185.405z" fill="#CA1C66"/><path d="M15.027 8v8" stroke="#000" stroke-opacity=".5" stroke-width=".926"/></g><defs><linearGradient id="pi-idealwero-paint0_linear_1_2" x1="26.723" y1="11.796" x2="26.422" y2="14.011" gradientUnits="userSpaceOnUse"><stop offset=".024" stop-color="#1D1C1C" stop-opacity="0"/><stop offset=".676" stop-color="#1D1C1C"/></linearGradient><linearGradient id="pi-idealwero-paint1_linear_1_2" x1="23.381" y1="12.243" x2="23.694" y2="10.318" gradientUnits="userSpaceOnUse"><stop offset=".024" stop-color="#1D1C1C" stop-opacity="0"/><stop offset=".676" stop-color="#1D1C1C"/></linearGradient></defs></svg>