<svg viewBox="0 0 38 24" xmlns="http://www.w3.org/2000/svg" width="38" height="24" role="img" aria-labelledby="pi-ideal"><title id="pi-ideal">iDEAL</title><path opacity=".07" d="M35 0H3C1.3 0 0 1.3 0 3v18c0 1.7 1.4 3 3 3h32c1.7 0 3-1.3 3-3V3c0-1.7-1.4-3-3-3z"/><path d="M35 1c1.1 0 2 .9 2 2v18c0 1.1-.9 2-2 2H3c-1.1 0-2-.9-2-2V3c0-1.1.9-2 2-2h32z" fill="#fff"/><path d="M14 6.912V19h5.648C24.776 19 27 16.302 27 12.486 27 8.834 24.776 6 19.648 6h-4.67c-.543 0-.978.414-.978.912z" fill="#C06"/><path d="M19.312 21h-8.884C9.64 21 9 20.373 9 19.6V5.4c0-.773.64-1.4 1.428-1.4h8.884C27.742 4 29 9.317 29 12.482 29 17.974 25.555 21 19.313 21h-.001zM10.428 4.467a.944.944 0 00-.878.573.936.936 0 00-.074.36v14.2a.936.936 0 00.59.866c.115.046.238.07.362.068h8.884c5.938 0 9.212-2.86 9.212-8.052 0-6.972-5.774-8.015-9.212-8.015h-8.884z"/><path d="M16.252 11.008c.188 0 .361.03.528.088.167.06.304.155.427.273.116.125.21.28.282.457.065.184.101.398.101.649 0 .22-.028.42-.08.604a1.417 1.417 0 01-.245.479 1.197 1.197 0 01-.413.317 1.437 1.437 0 01-.586.118H15V11h1.252v.008zm-.044 2.44a.916.916 0 00.276-.045.539.539 0 00.23-.155.863.863 0 00.168-.28c.043-.118.065-.25.065-.42 0-.147-.015-.287-.044-.405a.814.814 0 00-.145-.31.656.656 0 00-.26-.199 1.047 1.047 0 00-.398-.066h-.464v1.887h.572v-.008zm3.995-2.44v.553h-1.548v.64h1.426v.51h-1.426v.73h1.585v.552h-2.229V11h2.194v.008h-.002zm2.215 0l1.1 2.992h-.673l-.224-.663h-1.1l-.232.663h-.652l1.108-2.992h.673zm.037 1.835l-.37-1.098h-.007l-.384 1.098h.76zm2.112-1.835v2.44H26V14h-2.076v-2.992h.643z" fill="#fff"/><path d="M11.5 13.652c.829 0 1.5-.593 1.5-1.326 0-.732-.671-1.326-1.5-1.326s-1.5.594-1.5 1.326c0 .732.671 1.326 1.5 1.326zM12.63 19c-1.258 0-2.269-.9-2.269-2.007v-1.568a.969.969 0 01.337-.715c.214-.189.502-.294.802-.291a1.24 1.24 0 01.433.073c.137.05.262.124.368.218.106.093.19.205.248.327a.93.93 0 01.09.388V19h-.008z"/></svg>