<svg xmlns="http://www.w3.org/2000/svg" width="38" height="24" viewBox="0 0 38 24"><path fill="#fff" stroke="#000" stroke-width="1.5" d="M-5-1h50v28H-5z"/><path d="M3 12V0h32v24H3V12z" fill="#fdfdfd"/><path d="M3.065 23.935c-.003-.007-.004-5.385-.002-11.95L3.066.046l8.486-.004c8.622-.003 8.872-.002 9.622.035 2.814.14 5.18.632 7.16 1.49 2.184.947 3.83 2.307 4.962 4.1.913 1.447 1.47 3.198 1.626 5.115.06.753.06 1.663 0 2.408-.148 1.796-.59 3.317-1.367 4.703a9.93 9.93 0 0 1-2.879 3.191c-1.963 1.414-4.54 2.309-7.704 2.676-.796.093-1.652.152-2.55.177-.595.016-17.35.014-17.357-.003zm17.315-1.147c4.273-.12 7.502-1.055 9.758-2.823.2-.156.598-.506.765-.673 1.5-1.489 2.379-3.387 2.651-5.723.096-.827.115-1.848.048-2.698a12.076 12.076 0 0 0-.293-1.858c-.65-2.635-2.205-4.617-4.668-5.951a13.912 13.912 0 0 0-2.044-.875c-1.417-.473-2.98-.771-4.778-.912-.254-.02-.57-.04-1.057-.065-.173-.01-2.306-.013-8.305-.016l-8.071-.003v21.607h7.808c5.073 0 7.941-.003 8.186-.01zM6.4 21.052c-.018-.014-.02-.369-.02-3.747 0-2.333.005-3.736.012-3.746.01-.014.294-.016 2.42-.018 1.653-.002 2.415 0 2.43.008.023.01.024.055.024 3.759 0 3.408-.002 3.749-.02 3.754-.01.004-1.1.007-2.423.007-2.17 0-2.407-.002-2.424-.017zm7.298.001c-.018-.016-.02-.352-.02-4.412 0-2.418.004-4.403.008-4.412.006-.015.053-.017.397-.017.661 0 .944-.02 1.229-.083.78-.174 1.331-.625 1.6-1.309.114-.29.167-.573.18-.949.016-.534-.081-.976-.302-1.372a2.06 2.06 0 0 0-.832-.815 2.893 2.893 0 0 0-1.02-.3 12.234 12.234 0 0 0-.662-.016 6.94 6.94 0 0 1-.582-.016c-.012-.008-.015-.461-.015-2.203 0-1.205.004-2.198.01-2.205.008-.011.645-.013 3.425-.01 3.683.004 3.57.003 4.365.06 3.741.27 6.44 1.317 8.128 3.153 1.012 1.1 1.648 2.485 1.904 4.144.048.31.091.703.08.72-.013.016-2.064.014-2.083-.002-.011-.01-.015-.43-.015-1.829V7.365H28.132v2.417c0 2.212.001 2.418.019 2.424.01.004.786.006 1.723.006H31.635l-.008.257a10.43 10.43 0 0 1-.379 2.493 7.365 7.365 0 0 1-1.367 2.654 6.4 6.4 0 0 1-.84.853c-.265.23-.411.345-.623.493-1.644 1.15-3.934 1.829-6.856 2.034-.302.02-.539.034-.973.053-.164.008-1.407.013-3.561.016-3.057.005-3.312.004-3.33-.012zm7.63-8.847c.017-.006.02-.068.02-.595v-.59l-1.025-.002-1.024-.003v-.684l.916-.002.917-.003v-1.18h-.906c-.754 0-.909-.003-.92-.015-.01-.01-.013-.096-.01-.293l.003-.278.967-.005.968-.005V7.37h-3.309l-.003 2.415c-.003 2.294-.002 2.416.018 2.42.032.007 3.367.008 3.388.001zm2.157-.017c.006-.013.077-.219.157-.458.08-.24.15-.441.157-.448.01-.01.205-.013.932-.01l.92.002.158.466.158.466.697.003c.384.001.703 0 .71-.002.01-.003-.036-.149-.132-.427a3908.57 3908.57 0 0 0-1.519-4.367l-.018-.05H23.748l-.012.024a12.91 12.91 0 0 0-.136.38 3180.503 3180.503 0 0 1-1.356 3.901c-.099.285-.18.524-.18.531 0 .01.166.012.705.012h.705l.011-.023zm.733-2.127a.542.542 0 0 1 .035-.142c.142-.429.407-1.206.417-1.222.013-.022.084-.024.104-.003.02.02.47 1.361.461 1.373-.005.007-.197.01-.509.01-.442 0-.502-.001-.508-.016zm-15.774 2.33a3.262 3.262 0 0 1-1.722-.718 2.545 2.545 0 0 1-.898-1.518 3.04 3.04 0 0 1-.001-.74c.145-.82.68-1.501 1.502-1.915.429-.216.892-.328 1.409-.34.548-.014.994.072 1.472.283.903.398 1.503 1.148 1.635 2.044.018.127.018.463-.001.596a2.537 2.537 0 0 1-.307.888 2.864 2.864 0 0 1-.67.76 3.26 3.26 0 0 1-1.705.666 5.268 5.268 0 0 1-.714-.005zm5.249-1.383c-.011-.01-.014-.295-.014-1.22 0-.664.004-1.213.01-1.22.008-.012.118-.014.582-.01l.572.003.115.027c.344.08.555.257.672.56.075.197.11.492.09.786-.019.29-.064.468-.168.65a.588.588 0 0 1-.164.198c-.157.137-.328.202-.596.227-.174.016-1.08.015-1.1-.001z" fill="#e8a6cd"/><path d="M3.074 23.936c-.011-.01-.014-2.677-.014-11.942 0-10.135.002-11.931.016-11.941C3.1.036 20.36.043 20.72.06c1.006.048 1.466.081 2.126.153 3.685.4 6.584 1.515 8.613 3.31.518.458.907.876 1.313 1.408.205.268.244.322.397.554 1.181 1.782 1.795 3.998 1.795 6.479 0 2.143-.421 4.035-1.255 5.632-1.093 2.095-2.85 3.68-5.26 4.748-1.125.498-2.294.86-3.646 1.127-1.395.276-2.841.425-4.537.467-.65.016-17.173.014-17.192-.002zm17.085-1.138c.466-.01.753-.02 1.128-.041 3.542-.202 6.382-1.033 8.421-2.464a9.813 9.813 0 0 0 1.476-1.28 8.765 8.765 0 0 0 1.598-2.456c.58-1.34.869-2.867.868-4.593 0-2.912-.842-5.256-2.525-7.039-2.07-2.19-5.455-3.453-9.915-3.697-.785-.043-.63-.042-8.893-.042H4.38l-.003 10.798c-.002 5.94 0 10.805.002 10.812.005.01 1.546.013 7.654.013 4.583 0 7.84-.005 8.126-.01zM6.398 21.045c-.003-.007-.004-1.695-.003-3.752l.003-3.74 2.418-.002c1.777-.002 2.422 0 2.434.01.013.009.016.614.016 3.738 0 2.05-.003 3.734-.007 3.743-.007.015-.232.016-2.432.016-1.928 0-2.425-.002-2.43-.013zm7.305-4.41v-4.412h.462c.503 0 .705-.01.935-.043.892-.129 1.544-.617 1.831-1.371.122-.32.175-.632.176-1.029 0-.709-.194-1.258-.601-1.695-.321-.346-.819-.596-1.36-.684-.217-.035-.299-.039-.858-.045l-.58-.007-.003-2.204-.003-2.204 3.384.004c3.601.004 3.504.002 4.28.054 4.564.304 7.633 1.782 9.148 4.405.544.942.9 2.07 1.033 3.27l.03.265c.003.029 0 .053-.008.06-.01.009-.286.012-1.026.012-.99 0-1.013 0-1.025-.02-.009-.014-.013-.602-.013-1.828V7.354h-.691c-.62 0-.692.002-.699.017-.004.009-.007 1.096-.007 2.416 0 1.904.003 2.404.015 2.418.014.017.136.018 1.753.02l1.738.003-.003.202c-.006.51-.077 1.16-.19 1.744-.302 1.567-.968 2.885-1.969 3.898a7.826 7.826 0 0 1-1.881 1.396c-1.673.9-3.848 1.414-6.564 1.549-.567.028-.963.03-4.059.03h-3.245v-4.412zm7.653-5.02l.003-.604-1.024-.003-1.024-.002-.004-.326c-.002-.254 0-.327.012-.334.009-.004.423-.008.92-.008h.905v-.601c0-.33-.001-.602-.003-.603a88.212 88.212 0 0 0-.917-.008l-.913-.006v-.549l.967-.005.968-.005V7.36h-3.333l-.003 2.418c-.002 1.33 0 2.425.003 2.432.004.01.355.012 1.723.01l1.717-.002.003-.604zm2.14.584c.006-.014.077-.22.157-.459.08-.239.152-.44.158-.447.01-.01.202-.012.92-.01l.91.002.153.456c.084.25.159.46.166.468.01.011.155.014.721.014.44 0 .711-.004.716-.01.005-.008-1.56-4.54-1.662-4.81l-.018-.049H23.736l-.012.024c-.007.012-.356 1.011-.775 2.219l-.834 2.398a1.614 1.614 0 0 0-.066.215c.004.01.177.013.72.013h.717l.01-.024zm.736-2.14c-.007-.01.427-1.313.45-1.35.008-.014.022-.019.049-.016l.038.003.223.663c.123.364.224.673.224.686l.001.023h-.489c-.305 0-.492-.004-.496-.01zM8.608 12.402c-.684-.061-1.233-.255-1.714-.603-.603-.437-.985-1.052-1.075-1.732a3.103 3.103 0 0 1 .005-.6c.147-1.015.946-1.858 2.061-2.176a3.414 3.414 0 0 1 2.277.14c.303.13.558.288.8.497.463.4.76.912.861 1.487.03.17.03.567 0 .74a2.512 2.512 0 0 1-.861 1.482c-.256.22-.486.363-.813.502a3.192 3.192 0 0 1-1.26.263 5.236 5.236 0 0 1-.28 0zm5.101-1.401a46.992 46.992 0 0 1-.007-1.205V8.584c0-.017.032-.018.487-.018.64 0 .767.014.983.106.08.035.123.062.204.133.092.079.111.103.17.207.125.222.157.383.157.777 0 .246-.004.301-.027.412-.083.403-.27.637-.59.739-.183.057-.242.062-.83.068-.375.003-.541.001-.547-.006z" fill="#9b9b9b"/><path d="M3.077 23.925c-.003-.007-.004-5.38-.002-11.94L3.078.056h8.648c9.002 0 8.802 0 9.585.042 3.385.184 6.134.888 8.305 2.124.99.564 1.871 1.26 2.59 2.045a9.961 9.961 0 0 1 1.397 1.957c.9 1.673 1.35 3.584 1.35 5.744-.001 2.329-.49 4.332-1.47 6.018-.708 1.217-1.624 2.222-2.806 3.079-1.464 1.06-3.328 1.847-5.49 2.317-1.481.321-3.072.5-4.88.544-.658.017-17.223.014-17.23-.002zm16.962-1.116a26.197 26.197 0 0 0 3.363-.25c2.807-.397 5.058-1.26 6.748-2.584.2-.156.598-.506.765-.672 1.323-1.314 2.162-2.94 2.53-4.905.233-1.234.28-2.65.133-3.957-.444-3.944-2.685-6.706-6.6-8.137a17 17 0 0 0-2.095-.604c-1.289-.283-2.542-.433-4.276-.51-.386-.018-16.205-.025-16.229-.008-.014.01-.016 1.625-.016 10.812 0 8.386.003 10.803.014 10.813.018.015 14.788.017 15.663.002zM6.41 21.035c-.002-.007-.004-1.691-.002-3.742l.003-3.729h4.838v7.479l-2.416.002c-1.927.002-2.418 0-2.422-.01zm7.294-4.4v-4.412h.462c.503 0 .705-.01.935-.043.892-.129 1.544-.617 1.831-1.371.122-.32.175-.632.176-1.029 0-.709-.194-1.258-.601-1.695-.321-.346-.819-.596-1.36-.684-.217-.035-.299-.039-.858-.045l-.58-.007-.003-2.204-.003-2.204 3.384.004c3.601.004 3.504.002 4.28.054 4.564.304 7.633 1.782 9.148 4.405.544.942.9 2.07 1.033 3.27l.03.265c.003.029 0 .053-.008.06-.01.009-.286.012-1.026.012-.99 0-1.013 0-1.025-.02-.009-.014-.013-.602-.013-1.828V7.354h-.691c-.62 0-.692.002-.699.017-.004.009-.007 1.096-.007 2.416 0 1.904.003 2.404.015 2.418.014.017.136.018 1.753.02l1.738.003-.003.202c-.006.51-.077 1.16-.19 1.744-.302 1.567-.968 2.885-1.969 3.898a7.826 7.826 0 0 1-1.881 1.396c-1.673.9-3.848 1.414-6.564 1.549-.567.028-.963.03-4.059.03h-3.245v-4.412zm7.653-5.02l.003-.604-1.024-.003-1.024-.002-.004-.326c-.002-.254 0-.327.012-.334.009-.004.423-.008.92-.008h.905v-.601c0-.33-.001-.602-.003-.603a88.212 88.212 0 0 0-.917-.008l-.913-.006v-.549l.967-.005.968-.005V7.36h-3.333l-.003 2.418c-.002 1.33 0 2.425.003 2.432.004.01.355.012 1.723.01l1.717-.002.003-.604zm2.14.584c.006-.014.077-.22.157-.459.08-.239.152-.44.158-.447.01-.01.202-.012.92-.01l.91.002.153.456c.084.25.159.46.166.468.01.011.155.014.721.014.44 0 .711-.004.716-.01.005-.008-1.56-4.54-1.662-4.81l-.018-.049H23.736l-.012.024c-.007.012-.356 1.011-.775 2.219l-.834 2.398a1.614 1.614 0 0 0-.066.215c.004.01.177.013.72.013h.717l.01-.024zm.736-2.14c-.007-.01.427-1.313.45-1.35.008-.014.022-.019.049-.016l.038.003.223.663c.123.364.224.673.224.686l.001.023h-.489c-.305 0-.492-.004-.496-.01zm-15.69 2.33c-1.049-.095-1.947-.631-2.411-1.44a2.26 2.26 0 0 1-.312-1.009c-.046-.636.177-1.254.643-1.778a3.26 3.26 0 0 1 .79-.608 3.44 3.44 0 0 1 2.473-.266c1.261.345 2.114 1.351 2.114 2.496 0 .656-.267 1.257-.78 1.757-.454.441-1.108.741-1.818.833a5.217 5.217 0 0 1-.699.014zm5.167-1.387a46.992 46.992 0 0 1-.007-1.205V8.584c0-.017.032-.018.487-.018.64 0 .767.014.983.106.08.035.123.062.204.133.092.079.111.103.17.207.125.222.157.383.157.777 0 .246-.004.301-.027.412-.083.403-.27.637-.59.739-.183.057-.242.062-.83.068-.375.003-.541.001-.547-.006z" fill="#d85a9f"/><path d="M3.077 23.925c-.003-.007-.004-5.38-.002-11.94L3.078.056h8.648c9.002 0 8.802 0 9.585.042 3.385.184 6.134.888 8.305 2.124.99.564 1.871 1.26 2.59 2.045a9.961 9.961 0 0 1 1.397 1.957c.9 1.673 1.35 3.584 1.35 5.744-.001 2.329-.49 4.332-1.47 6.018-.708 1.217-1.624 2.222-2.806 3.079-1.464 1.06-3.328 1.847-5.49 2.317-1.481.321-3.072.5-4.88.544-.658.017-17.223.014-17.23-.002zm16.962-1.116a26.197 26.197 0 0 0 3.363-.25c2.807-.397 5.058-1.26 6.748-2.584.2-.156.598-.506.765-.672 1.323-1.314 2.162-2.94 2.53-4.905.233-1.234.28-2.65.133-3.957-.444-3.944-2.685-6.706-6.6-8.137a17 17 0 0 0-2.095-.604c-1.289-.283-2.542-.433-4.276-.51-.386-.018-16.205-.025-16.229-.008-.014.01-.016 1.625-.016 10.812 0 8.386.003 10.803.014 10.813.018.015 14.788.017 15.663.002zM6.41 21.035c-.002-.007-.004-1.691-.002-3.742l.003-3.729h4.838v7.479l-2.416.002c-1.927.002-2.418 0-2.422-.01zm7.307-.001c-.01-.01-.013-1.168-.01-4.405l.002-4.39.556-.007c.59-.008.711-.016.974-.067.703-.136 1.236-.492 1.55-1.036.215-.37.314-.755.327-1.269a2.73 2.73 0 0 0-.092-.854 2.088 2.088 0 0 0-.673-1.077 1.966 1.966 0 0 0-.533-.335 2.79 2.79 0 0 0-.872-.23c-.06-.008-.331-.015-.67-.019l-.567-.006V2.958h3.351c3.456 0 3.469 0 4.169.041 1.683.101 3.217.372 4.49.794 2.564.85 4.279 2.308 5.185 4.41.256.596.455 1.295.573 2.02.051.32.1.757.086.77-.005.004-.466.006-1.024.005l-1.015-.003-.006-1.823-.006-1.823h-1.398l-.002 2.434c-.003 1.94 0 2.435.012 2.442.008.004.795.008 1.75.008h1.735v.111c0 .224-.031.654-.073 1.023-.307 2.723-1.56 4.713-3.76 5.976-1.653.949-3.795 1.49-6.541 1.653-.758.045-1.352.051-4.63.052-2.403 0-2.877-.002-2.888-.014zm7.64-8.81c.012-.006.015-.136.012-.613l-.003-.605L20.344 11l-1.021-.005v-.642l.913-.005.914-.005V9.13l-.914-.005-.913-.006-.004-.271-.003-.272h.96c.73 0 .962-.003.973-.013.011-.01.015-.157.015-.604 0-.446-.004-.594-.015-.604-.02-.018-3.319-.018-3.34 0-.01.01-.014.565-.014 2.434 0 2.295.001 2.422.021 2.432.025.013 3.417.015 3.44.002zm2.13 0c.01-.007.08-.194.173-.47l.155-.458.909-.003.909-.003.093.277.156.463c.034.102.07.189.078.194.01.005.335.009.723.009.58 0 .709-.002.72-.014.01-.01-.182-.576-.823-2.421-.46-1.324-.841-2.418-.848-2.43l-.012-.024h-.99c-.814 0-.992.002-1.003.014-.008.008-.185.507-.395 1.11l-.836 2.406a83.31 83.31 0 0 0-.455 1.327c0 .01.004.021.008.025.012.011 1.417.008 1.437-.003zm.757-2.195l.226-.676c.214-.63.22-.647.25-.65.02-.002.035.003.042.015.015.025.444 1.304.444 1.324 0 .014-.06.016-.484.016h-.485l.007-.029zm-15.7 2.36c-1.05-.095-1.948-.631-2.412-1.44a2.26 2.26 0 0 1-.312-1.009c-.046-.636.177-1.254.643-1.778a3.26 3.26 0 0 1 .79-.608 3.44 3.44 0 0 1 2.473-.266c1.261.345 2.114 1.351 2.114 2.496 0 .656-.267 1.257-.78 1.757-.454.441-1.108.741-1.818.833a5.217 5.217 0 0 1-.699.014zm5.165-1.402a65.565 65.565 0 0 1-.003-1.209l.003-1.196h.544c.419 0 .563.003.627.014.454.08.688.31.79.78.031.139.031.661 0 .811-.104.52-.363.753-.894.803-.174.016-1.06.014-1.067-.003z" fill="#d13288"/><path d="M3.077 23.925c-.003-.007-.004-5.38-.002-11.94L3.078.056h8.648c9.002 0 8.802 0 9.585.042 3.385.184 6.134.888 8.305 2.124.99.564 1.871 1.26 2.59 2.045a9.961 9.961 0 0 1 1.397 1.957c.9 1.673 1.35 3.584 1.35 5.744-.001 2.329-.49 4.332-1.47 6.018-.708 1.217-1.624 2.222-2.806 3.079-1.464 1.06-3.328 1.847-5.49 2.317-1.481.321-3.072.5-4.88.544-.658.017-17.223.014-17.23-.002zm16.962-1.116a26.197 26.197 0 0 0 3.363-.25c2.807-.397 5.058-1.26 6.748-2.584.2-.156.598-.506.765-.672 1.323-1.314 2.162-2.94 2.53-4.905.233-1.234.28-2.65.133-3.957-.444-3.944-2.685-6.706-6.6-8.137a17 17 0 0 0-2.095-.604c-1.289-.283-2.542-.433-4.276-.51-.386-.018-16.205-.025-16.229-.008-.014.01-.016 1.625-.016 10.812 0 8.386.003 10.803.014 10.813.018.015 14.788.017 15.663.002zM6.41 21.035c-.002-.007-.004-1.691-.002-3.742l.003-3.729h4.838v7.479l-2.416.002c-1.927.002-2.418 0-2.422-.01zm7.311-.01c-.003-.008-.004-1.987-.003-4.4l.003-4.387.598-.006c.636-.006.693-.01.967-.066.871-.179 1.485-.721 1.724-1.523.089-.297.115-.499.114-.875 0-.416-.04-.661-.16-.974a1.993 1.993 0 0 0-.629-.89c-.35-.293-.777-.467-1.327-.54-.144-.02-.234-.023-.728-.028l-.565-.005V2.965l.027-.006c.045-.01 5.547-.007 6.185.003 1.232.021 2.14.088 3.123.23 2.881.414 5.072 1.403 6.492 2.93 1.025 1.102 1.674 2.493 1.93 4.138.039.256.088.648.089.722 0 .005-.456.007-1.012.006l-1.013-.003-.003-1.812c-.002-1.318-.006-1.815-.016-1.825-.011-.012-.139-.014-.702-.014-.378 0-.695.004-.703.008-.012.007-.015.503-.012 2.447l.003 2.439 1.744.005 1.744.005.004.093c.002.052-.002.2-.01.332-.075 1.32-.326 2.413-.784 3.411-.57 1.246-1.452 2.254-2.65 3.03-1.674 1.083-3.958 1.706-6.898 1.882-.784.046-1.23.051-4.489.052-2.419 0-3.039-.003-3.043-.013zm9.775-8.8c.017-.013.066-.145.176-.471l.153-.453.901.002.901.003.153.454c.084.25.16.46.167.467.019.016 1.45.016 1.47 0 .013-.013.016-.004-.365-1.102a6943.74 6943.74 0 0 1-1.19-3.423 4.912 4.912 0 0 0-.132-.355c-.01-.01-.192-.013-1.009-.013-.938 0-.996 0-1.006.018-.01.017-.117.319-.503 1.432a2000.922 2000.922 0 0 1-1.154 3.318c-.035.096-.037.128-.008.134.011.003.336.006.721.006.651.001.702 0 .725-.017zm.755-2.183a786.455 786.455 0 0 0 .342-1.017c.102-.305.106-.315.134-.312.026.003.033.015.062.102l.219.654c.102.305.186.56.186.567 0 .008-.126.011-.471.011-.26 0-.472-.002-.472-.005zm-2.87 1.575c.003-.481 0-.612-.012-.618-.008-.005-.47-.009-1.027-.009h-1.013v-.632h.907c.75 0 .908-.002.92-.014.01-.01.012-.18.01-.619l-.003-.605-.917-.002-.917-.003v-.528h.95c.633 0 .959-.004.974-.01.023-.011.023-.029.023-.617 0-.587 0-.605-.023-.616-.015-.007-.56-.01-1.677-.01-1.488 0-1.656.001-1.673.016-.017.015-.019.25-.019 2.433 0 1.33.003 2.425.007 2.434.007.015.169.016 1.747.014l1.74-.003.003-.61zm-12.838.771c-1.049-.094-1.947-.63-2.411-1.44a2.26 2.26 0 0 1-.312-1.008c-.046-.636.177-1.254.643-1.778a3.26 3.26 0 0 1 .79-.608 3.44 3.44 0 0 1 2.473-.266c1.261.345 2.114 1.351 2.114 2.496 0 .656-.267 1.257-.78 1.757-.454.441-1.108.741-1.818.833a5.217 5.217 0 0 1-.699.014zm5.18-1.405a46.076 46.076 0 0 1-.008-1.201V8.587h.511c.543 0 .642.007.803.052.365.105.563.35.64.795.025.149.026.533 0 .69-.052.319-.152.52-.326.66a.773.773 0 0 1-.293.149c-.166.048-.29.057-.828.057-.27 0-.494-.003-.499-.007z" fill="#d30071"/><path d="M3.077 23.925c-.003-.007-.004-5.38-.002-11.94L3.078.056h8.648c9.002 0 8.802 0 9.585.042 3.385.184 6.134.888 8.305 2.124.99.564 1.871 1.26 2.59 2.045a9.961 9.961 0 0 1 1.397 1.957c.9 1.673 1.35 3.584 1.35 5.744-.001 2.329-.49 4.332-1.47 6.018-.708 1.217-1.624 2.222-2.806 3.079-1.464 1.06-3.328 1.847-5.49 2.317-1.481.321-3.072.5-4.88.544-.658.017-17.223.014-17.23-.002zm16.962-1.116a26.197 26.197 0 0 0 3.363-.25c2.807-.397 5.058-1.26 6.748-2.584.2-.156.598-.506.765-.672 1.323-1.314 2.162-2.94 2.53-4.905.233-1.234.28-2.65.133-3.957-.444-3.944-2.685-6.706-6.6-8.137a17 17 0 0 0-2.095-.604c-1.289-.283-2.542-.433-4.276-.51-.386-.018-16.205-.025-16.229-.008-.014.01-.016 1.625-.016 10.812 0 8.386.003 10.803.014 10.813.018.015 14.788.017 15.663.002zM6.41 21.035c-.002-.007-.004-1.691-.002-3.742l.003-3.729h4.838v7.479l-2.416.002c-1.927.002-2.418 0-2.422-.01zm2.133-8.647c-1.049-.094-1.947-.63-2.411-1.44a2.26 2.26 0 0 1-.312-1.008c-.046-.636.177-1.254.643-1.778a3.26 3.26 0 0 1 .79-.608 3.44 3.44 0 0 1 2.473-.266c1.261.345 2.114 1.351 2.114 2.496 0 .656-.267 1.257-.78 1.757-.454.441-1.108.741-1.818.833a5.217 5.217 0 0 1-.699.014z" fill="#585858"/><path d="M3.09 23.915c-.004-.008-.005-5.376-.003-11.93L3.09.066h8.612c8.967 0 8.795 0 9.591.042 3.052.164 5.631.763 7.67 1.779.955.476 1.74.999 2.483 1.656a9.626 9.626 0 0 1 2.018 2.46c.789 1.37 1.267 2.949 1.422 4.701.067.751.071 1.664.012 2.419-.245 3.13-1.437 5.603-3.573 7.416-.88.748-1.86 1.345-3.032 1.85-.985.423-1.92.718-3.082.973-1.53.336-3.074.508-4.963.554-.25.006-3.703.01-8.783.01-6.685 0-8.371-.002-8.376-.012zm17.104-1.096c3.43-.077 6.174-.665 8.326-1.784 3.41-1.774 5.154-4.84 5.154-9.066 0-2.031-.405-3.771-1.226-5.271-.728-1.33-1.797-2.439-3.187-3.308-1.009-.63-2.253-1.154-3.588-1.51-1.609-.428-3.357-.658-5.413-.71-.638-.015-15.877-.014-15.896.003-.02.018-.02 21.626 0 21.644.018.016 15.134.018 15.83.002zM6.416 17.303V13.57l2.41.003 2.41.002v7.458l-2.41.003-2.41.003v-3.735zm2.142-4.925a3.344 3.344 0 0 1-1.627-.576 2.58 2.58 0 0 1-1.072-1.625 3.327 3.327 0 0 1 0-.787 2.503 2.503 0 0 1 .845-1.444c.756-.656 1.844-.912 2.882-.68 1.11.248 1.966 1.04 2.186 2.021a2.29 2.29 0 0 1-.25 1.636 2.382 2.382 0 0 1-.578.7 2.727 2.727 0 0 1-.795.496c-.29.123-.57.199-.88.24a4.494 4.494 0 0 1-.71.019z"/></svg>