<svg class="icon" width="38px" height="24px" viewBox="0 0 38 24" version="1.1" xmlns="http://www.w3.org/2000/svg" role="img" aria-labelledby="pi-IDR"><title id="pi-IDR">IDR</title><path d="M810.666667 512m-507.733334 0a507.733333 507.733333 0 1 0 1015.466667 0 507.733333 507.733333 0 1 0-1015.466667 0Z" fill="#00479D" /><path d="M742.4 674.133333c0-12.8-8.533333-38.4-25.6-85.333333-29.866667-72.533333-46.933333-93.866667-89.6-93.866667h-81.066667v106.666667c0 34.133333 0 46.933333 4.266667 68.266667H469.333333c4.266667-21.333333 4.266667-38.4 4.266667-68.266667V320c0-29.866667 0-42.666667-4.266667-68.266667h196.266667c81.066667 0 128 42.666667 128 110.933334 0 34.133333-8.533333 59.733333-25.6 81.066666-12.8 17.066667-29.866667 21.333333-59.733333 29.866667 34.133333 12.8 42.666667 25.6 98.133333 149.333333 4.266667 8.533333 17.066667 38.4 25.6 51.2h-89.6z m-89.6-238.933333c21.333333 0 38.4-8.533333 51.2-21.333333 12.8-12.8 17.066667-25.6 17.066667-46.933334 0-38.4-21.333333-59.733333-64-59.733333h-110.933334v123.733333h106.666667zM951.466667 396.8v17.066667c29.866667-38.4 59.733333-51.2 106.666666-51.2 42.666667 0 76.8 12.8 102.4 38.4 29.866667 29.866667 42.666667 68.266667 42.666667 123.733333 0 98.133333-55.466667 157.866667-145.066667 157.866667-46.933333 0-81.066667-17.066667-106.666666-51.2v81.066666c0 29.866667 0 46.933333 4.266666 72.533334h-76.8c4.266667-25.6 4.266667-42.666667 4.266667-68.266667v-268.8c0-29.866667 0-46.933333-4.266667-72.533333h72.533334v21.333333z m93.866666 21.333333c-51.2 0-93.866667 42.666667-93.866666 102.4s38.4 102.4 93.866666 102.4c51.2 0 85.333333-38.4 85.333334-102.4 4.266667-64-29.866667-102.4-85.333334-102.4z" fill="#FFFFFF" /></svg>