<?xml version="1.0" encoding="utf-8"?>
<!-- Generator: Adobe Illustrator 21.0.0, SVG Export Plug-In . SVG Version: 6.00 Build 0)  -->
<svg version="1.1" id="图层_1" xmlns="http://www.w3.org/2000/svg" xmlns:xlink="http://www.w3.org/1999/xlink" x="0px" y="0px"
	 viewBox="0 0 38 24" style="enable-background:new 0 0 38 24;" xml:space="preserve">
<style type="text/css">
	.st0{fill:#00479D;}
	.st1{fill:#FFFFFF;stroke:#FFFFFF;stroke-width:0.25;stroke-miterlimit:10;}
</style>
<circle class="st0" cx="19" cy="12" r="11.9"/>
<g>
	<path class="st1" d="M17.4,15.8c0-0.3-0.2-0.9-0.6-2c-0.7-1.7-1.1-2.2-2.1-2.2h-1.9v2.5c0,0.8,0,1.1,0.1,1.6h-1.9
		c0.1-0.5,0.1-0.9,0.1-1.6V7.5c0-0.7,0-1-0.1-1.6c0.5,0,0.9,0,1.6,0h3c1.9,0,3,1,3,2.6c0,0.8-0.2,1.4-0.6,1.9
		c-0.3,0.4-0.7,0.5-1.4,0.7c0.8,0.3,1,0.6,2.3,3.5c0.1,0.2,0.4,0.9,0.6,1.2H17.4z M15.3,10.2c0.5,0,0.9-0.2,1.2-0.5
		c0.3-0.3,0.4-0.6,0.4-1.1c0-0.9-0.5-1.4-1.5-1.4h-2.6v2.9H15.3z"/>
	<path class="st1" d="M22.3,9.3c0,0.1,0,0.3,0,0.4c0.7-0.9,1.4-1.2,2.5-1.2c1,0,1.8,0.3,2.4,0.9c0.7,0.7,1,1.6,1,2.9
		c0,2.3-1.3,3.7-3.4,3.7c-1.1,0-1.9-0.4-2.5-1.2c0,0.2,0,0.2,0,0.4c0,0.1,0,0.3,0,0.5v1c0,0.7,0,1.1,0.1,1.7h-1.8
		c0.1-0.6,0.1-1,0.1-1.6v-6.3c0-0.7,0-1.1-0.1-1.7h1.7V9.3z M24.5,9.8c-1.2,0-2.2,1-2.2,2.4c0,1.4,0.9,2.4,2.2,2.4
		c1.2,0,2-0.9,2-2.4C26.6,10.7,25.8,9.8,24.5,9.8z"/>
</g>
</svg>
