<svg xmlns="http://www.w3.org/2000/svg" role="img" viewBox="0 0 38 24" width="38" height="24" aria-labelledby="pi-in3"><title id="pi-in3">in3</title><path fill="#000" opacity=".07" d="M35 0H3C1.3 0 0 1.3 0 3v18c0 1.7 1.4 3 3 3h32c1.7 0 3-1.3 3-3V3c0-1.7-1.4-3-3-3z"/><path fill="#fff" d="M35 1c1.1 0 2 .9 2 2v18c0 1.1-.9 2-2 2H3c-1.1 0-2-.9-2-2V3c0-1.1.9-2 2-2h32"/><path fill="#102F76" d="M4.783 3.291a2.18 2.18 0 00-.726.36c-.281.238-.5.593-.578.937-.055.235-.051.64.011.88.118.464.434.874.844 1.097.238.133.426.18.727.195.355.016.57-.027.875-.187.422-.215.758-.641.879-1.118a2.438 2.438 0 000-.89A1.76 1.76 0 005.6 3.315a2.127 2.127 0 00-.817-.024zm0 0M23.225 3.303a1.763 1.763 0 00-1.227 1.3c-.058.278-.035.724.051.974.176.523.57.921 1.086 1.109l.195.07 3.14.012c3.493.012 3.235 0 3.599.184.34.171.59.43.761.792.227.48.223.98-.015 1.473-.2.414-.586.742-1.036.88-.136.042-.367.046-3.273.058-3.508.015-3.223 0-3.617.203a1.777 1.777 0 00-.844 1c-.062.18-.066.226-.066.566 0 .324.007.395.058.543.184.57.586.973 1.16 1.168.125.043.309.047 3.274.059 3.492.015 3.234.004 3.598.187.34.168.59.43.761.79.227.48.223.972-.02 1.472-.195.41-.558.726-1.019.879-.125.047-.316.047-3.273.062-3.52.012-3.235 0-3.63.203-.382.196-.698.567-.839.997a1.5 1.5 0 00-.078.488c-.012.351.031.578.164.855.18.364.418.61.777.797.36.184.188.176 3.496.168 2.914-.012 2.965-.012 3.286-.066 1.785-.297 3.105-1.078 3.914-2.317.378-.57.613-1.18.753-1.937.067-.395.086-1.36.032-1.813-.117-.953-.477-1.82-1.024-2.484l-.14-.172.168-.226c.566-.739.898-1.59 1.007-2.57a9.677 9.677 0 00-.015-1.505c-.125-1.008-.531-1.925-1.149-2.605-.84-.922-1.718-1.363-3.136-1.578-.34-.047-.442-.051-3.528-.059-3.07-.004-3.18-.004-3.351.043zm0 0M14.697 7.846c-1.05.113-1.933.469-2.628 1.066l-.176.153-.153-.125a6.704 6.704 0 00-.75-.524 1.8 1.8 0 00-.703-.183 1.693 1.693 0 00-1.625.969c-.129.269-.172.468-.172.785 0 .675.297 1.195.907 1.566.078.05.183.133.234.18.211.21.414.613.524 1.031.132.523.128.422.144 3.55l.016 2.91.054.161c.164.477.47.832.887 1.04.258.128.457.171.758.171.77 0 1.379-.45 1.648-1.21l.055-.161.012-3.219.015-3.215.055-.187a1.62 1.62 0 01.438-.742c.34-.352.691-.504 1.16-.504.457 0 .82.156 1.16.504.164.168.226.254.308.422.192.398.176.16.188 3.66.012 3.488.004 3.328.18 3.683.18.364.418.61.777.797.27.137.488.18.836.168.223-.012.324-.027.476-.082.52-.18.918-.598 1.102-1.164l.055-.172.007-2.785c.008-2.805 0-3.129-.082-3.71-.21-1.485-.843-2.786-1.761-3.618-.727-.656-1.656-1.067-2.707-1.195a9.472 9.472 0 00-1.239-.02zm0 0M4.705 7.9A1.756 1.756 0 003.49 9.144c-.05.187-.05.203-.043 5.148l.008 4.957.067.18c.105.281.226.469.425.672.329.332.723.496 1.204.496.312 0 .503-.043.777-.18.168-.082.246-.144.426-.328.18-.18.238-.262.32-.433.203-.422.184.078.184-5.43 0-4.594 0-4.906-.043-5.059A1.775 1.775 0 005.7 7.94a2.051 2.051 0 00-.996-.04zm0 0"/></svg>