<svg xmlns="http://www.w3.org/2000/svg" width="38" height="24" fill="none" aria-labelledby="pi-in3" role="img" viewBox="0 0 38 24"><title id="pi-in3">in3</title><path fill="#fff" d="M0 0h38v24H0z"/><path fill="#102F76" d="M4.783 3.291a2.2 2.2 0 0 0-.726.36c-.281.238-.5.593-.578.937a2.2 2.2 0 0 0 .011.88c.118.464.434.874.844 1.097.238.133.426.18.727.195.355.016.57-.027.875-.187.422-.215.758-.641.879-1.118a2.4 2.4 0 0 0 0-.89A1.76 1.76 0 0 0 5.6 3.315a2.1 2.1 0 0 0-.817-.024m18.442.012a1.76 1.76 0 0 0-1.227 1.3c-.058.278-.035.724.051.974.176.523.57.921 1.086 1.109l.195.07 3.14.012c3.493.012 3.235 0 3.599.184.34.171.59.43.761.792.227.481.223.981-.015 1.473-.2.414-.586.742-1.036.88-.136.042-.367.046-3.273.058-3.508.015-3.223 0-3.617.203a1.78 1.78 0 0 0-.844 1c-.062.18-.066.226-.066.566 0 .324.008.395.058.543.184.57.586.973 1.16 1.168.125.043.309.047 3.274.059 3.492.015 3.234.004 3.598.187.34.168.59.43.761.79q.342.721-.02 1.472c-.195.41-.558.726-1.019.879-.125.047-.316.047-3.273.062-3.52.012-3.235 0-3.63.204a1.75 1.75 0 0 0-.839.995c-.05.157-.07.258-.078.489-.012.351.031.578.164.855.18.364.418.61.777.797.36.184.188.176 3.496.168 2.914-.012 2.965-.012 3.285-.066 1.786-.297 3.106-1.078 3.915-2.317.379-.57.613-1.18.754-1.937.066-.395.085-1.36.03-1.813-.117-.953-.476-1.82-1.023-2.484l-.14-.172.168-.227c.566-.738.898-1.59 1.007-2.57a10 10 0 0 0-.015-1.504c-.125-1.008-.531-1.925-1.149-2.605-.84-.922-1.718-1.363-3.136-1.578-.34-.047-.442-.051-3.528-.059-3.07-.004-3.18-.004-3.351.043m-8.528 4.543c-1.05.113-1.933.469-2.628 1.066l-.176.153-.153-.125a7 7 0 0 0-.75-.524 1.8 1.8 0 0 0-.703-.183 1.69 1.69 0 0 0-1.625.969 1.6 1.6 0 0 0-.172.785c0 .675.297 1.195.907 1.566.078.05.183.133.234.18.211.21.414.613.524 1.031.132.524.128.422.144 3.55l.016 2.91.054.161c.164.477.47.832.887 1.04.258.128.457.171.758.171.77 0 1.379-.45 1.648-1.21l.055-.161.012-3.219.015-3.215.055-.187c.094-.309.207-.508.438-.742.34-.352.69-.504 1.16-.504.457 0 .82.156 1.16.504.164.168.226.254.308.422.192.398.176.16.188 3.66.012 3.488.004 3.328.18 3.683.18.364.418.61.777.797.27.137.488.18.836.168.223-.012.324-.027.476-.082.52-.18.918-.598 1.102-1.164l.055-.172.008-2.785c.007-2.805 0-3.129-.083-3.71-.21-1.485-.843-2.786-1.761-3.618-.727-.656-1.657-1.067-2.707-1.195a9.5 9.5 0 0 0-1.239-.02M4.705 7.9A1.76 1.76 0 0 0 3.49 9.144c-.05.187-.05.203-.043 5.148l.008 4.957.067.18c.105.281.226.469.425.672.329.332.723.496 1.204.496.312 0 .503-.043.777-.18.168-.082.246-.144.426-.328.18-.18.238-.262.32-.433.203-.422.184.078.184-5.43 0-4.594 0-4.906-.043-5.059A1.78 1.78 0 0 0 5.7 7.94a2.05 2.05 0 0 0-.996-.04Z"/></svg>