<svg xmlns="http://www.w3.org/2000/svg" width="38" height="24" fill="none" aria-labelledby="pi-inbank" role="img" viewBox="0 0 38 24"><title id="pi-inbank">Inbank</title><path fill="#fff" d="M0 0h38v24H0z"/><path fill="#21093A" d="M12.173 10.098q-.666 0-1.104.419l.048-.27a.05.05 0 0 0-.029-.054.1.1 0 0 0-.022-.005h-.76a.05.05 0 0 0-.05.042l-.623 3.448a.05.05 0 0 0 .011.042q.016.018.04.018h.76a.05.05 0 0 0 .05-.042l.335-1.849c.109-.604.481-.95 1.021-.95.221 0 .392.062.494.18.108.127.142.32.098.56l-.368 2.041a.05.05 0 0 0 .011.041q.016.018.04.018h.76a.05.05 0 0 0 .051-.042l.382-2.117c.084-.462.008-.847-.218-1.112-.207-.241-.527-.37-.926-.37zm-2.909-.29c.14 0 .274-.054.376-.154a.51.51 0 0 0 .008-.74.53.53 0 0 0-.764-.001.51.51 0 0 0 0 .742c.105.099.24.153.38.153m.236.38h-.76a.05.05 0 0 0-.05.042l-.623 3.448a.05.05 0 0 0 .012.042.05.05 0 0 0 .04.018h.759a.05.05 0 0 0 .05-.042l.624-3.449a.05.05 0 0 0-.012-.041.05.05 0 0 0-.04-.018m8.668-.09c-.492 0-.888.164-1.18.486V8.86a.05.05 0 0 0-.051-.05h-.76a.05.05 0 0 0-.052.05v4.829c0 .028.024.05.052.05h.76a.05.05 0 0 0 .036-.014.1.1 0 0 0 .012-.017l.004-.019v-.351q.436.49 1.179.49c.493 0 .92-.175 1.275-.54.35-.356.528-.802.528-1.324s-.178-.968-.528-1.326a1.7 1.7 0 0 0-1.275-.54m.638 2.623q-.302.295-.758.296c-.302 0-.558-.1-.757-.295a1.03 1.03 0 0 1-.302-.758q0-.456.302-.751c.197-.2.452-.302.757-.302q.46.001.758.302.301.297.302.751c.001.454-.099.552-.302.757m5.334-2.533h-.76a.05.05 0 0 0-.048.031.1.1 0 0 0-.004.02v.345c-.29-.322-.686-.486-1.178-.486s-.92.177-1.275.54a1.83 1.83 0 0 0-.529 1.325c0 .523.178.968.529 1.326.356.363.773.54 1.275.54s.889-.165 1.178-.491v.35c0 .029.024.051.052.051h.76a.05.05 0 0 0 .036-.014.1.1 0 0 0 .012-.017l.004-.019v-3.45a.05.05 0 0 0-.015-.036.05.05 0 0 0-.037-.015m-1.113 2.533q-.302.295-.758.296c-.456.001-.558-.1-.758-.295a1.03 1.03 0 0 1-.302-.758q.001-.456.302-.751.299-.301.758-.302c.459-.001.56.102.758.302q.3.297.301.751c.001.454-.098.552-.301.757m3.742-2.623c-.447 0-.796.144-1.038.428v-.287a.1.1 0 0 0-.004-.02.05.05 0 0 0-.048-.03h-.76a.05.05 0 0 0-.036.014.1.1 0 0 0-.012.017l-.004.019v3.449c0 .028.024.05.052.05h.76a.05.05 0 0 0 .036-.014.1.1 0 0 0 .012-.017l.004-.019v-1.849c0-.607.298-.942.841-.942.468 0 .736.273.736.75v2.04c0 .03.024.052.052.052h.76a.05.05 0 0 0 .048-.031.1.1 0 0 0 .004-.02V11.57c0-.894-.55-1.472-1.402-1.472zM10.589 7c-1.808 0-2.88.295-3.585.985C6.3 8.675 6 9.727 6 11.5s.3 2.824 1.004 3.515c.705.69 1.776.985 3.585.985s2.88-.295 3.584-.985 1.004-1.742 1.004-3.515-.3-2.824-1.004-3.515C13.469 7.295 12.397 7 10.589 7m2.973 7.416c-.52.51-1.437.737-2.973.737-1.537 0-2.454-.227-2.974-.737s-.751-1.409-.751-2.916.231-2.406.751-2.916 1.437-.737 2.974-.737c1.536 0 2.453.227 2.973.737s.752 1.409.752 2.916-.232 2.406-.752 2.916m18.424-.762-1.572-1.725 1.516-1.656a.05.05 0 0 0-.01-.077.05.05 0 0 0-.028-.008h-.928a.05.05 0 0 0-.04.017l-1.273 1.423V8.86a.05.05 0 0 0-.016-.036.05.05 0 0 0-.036-.014h-.76a.05.05 0 0 0-.051.05v4.829c0 .028.023.05.051.05h.76a.05.05 0 0 0 .036-.014.1.1 0 0 0 .012-.017l.004-.019v-1.46l1.351 1.493q.016.017.04.017h.906c.02 0 .04-.011.047-.03a.05.05 0 0 0 .004-.029.05.05 0 0 0-.013-.026"/></svg>