<svg xmlns="http://www.w3.org/2000/svg" width="38" height="24" aria-labelledby="pi-inbank"><title id="pi-inbank">Inbank</title><path d="M35 0H3C1.3 0 0 1.3 0 3v18c0 1.7 1.4 3 3 3h32c1.7 0 3-1.3 3-3V3c0-1.7-1.4-3-3-3z" opacity=".07"/><path fill="#fff" d="M35 1c1.1 0 2 .9 2 2v18c0 1.1-.9 2-2 2H3c-1.1 0-2-.9-2-2V3c0-1.1.9-2 2-2h32"/><path fill="#21093A" d="M9.547 10.374c-.613 0-1.126.199-1.529.591l.067-.38a.071.071 0 0 0-.071-.084H6.963a.071.071 0 0 0-.07.059l-.863 4.87a.071.071 0 0 0 .071.084h1.052a.071.071 0 0 0 .07-.06l.463-2.61c.151-.853.666-1.343 1.414-1.343.306 0 .543.089.684.257.149.177.196.45.136.788l-.51 2.883a.071.071 0 0 0 .071.084h1.052a.071.071 0 0 0 .07-.06l.53-2.99c.116-.652.011-1.195-.302-1.57-.286-.34-.73-.52-1.283-.52h-.001ZM5.52 9.965a.731.731 0 0 0 .52-.218.725.725 0 0 0 .01-1.045.73.73 0 0 0-1.057-.001.733.733 0 0 0 0 1.047c.146.14.333.217.527.217Zm.326.536H4.795a.071.071 0 0 0-.07.059l-.863 4.87a.071.071 0 0 0 .071.084h1.052a.071.071 0 0 0 .07-.06l.863-4.87a.071.071 0 0 0-.071-.084Zm12.002-.127c-.682 0-1.23.231-1.633.687V8.625a.072.072 0 0 0-.072-.072h-1.052a.072.072 0 0 0-.071.072v6.817c0 .04.032.072.071.072h1.053c.04 0 .071-.033.071-.072v-.495c.401.46.95.693 1.633.693s1.273-.249 1.766-.762c.485-.505.73-1.134.73-1.871 0-.737-.245-1.366-.73-1.871-.493-.513-1.07-.763-1.767-.763v.001Zm.884 3.703a1.43 1.43 0 0 1-1.05.418c-.419 0-.773-.14-1.049-.416-.281-.29-.418-.641-.418-1.07 0-.43.14-.783.418-1.06.274-.284.627-.427 1.05-.427.422 0 .774.143 1.049.427.277.277.417.633.417 1.06 0 .426-.136.78-.417 1.069Zm7.385-3.576h-1.052a.072.072 0 0 0-.072.072v.488c-.402-.456-.95-.687-1.632-.687-.681 0-1.273.25-1.765.763-.486.505-.732 1.134-.732 1.87 0 .738.246 1.367.732 1.872.492.513 1.07.762 1.765.762.695 0 1.231-.233 1.632-.693v.495c0 .04.033.072.072.072h1.052c.04 0 .071-.032.071-.072v-4.87a.072.072 0 0 0-.071-.072Zm-1.541 3.576a1.43 1.43 0 0 1-1.05.418c-.42 0-.773-.14-1.049-.416-.281-.29-.418-.641-.418-1.07 0-.43.14-.783.418-1.06.274-.284.627-.427 1.05-.427.422 0 .774.143 1.049.427.277.277.417.633.417 1.06 0 .426-.136.78-.417 1.069Zm5.181-3.703c-.619 0-1.102.203-1.438.604v-.405a.072.072 0 0 0-.071-.072h-1.052a.072.072 0 0 0-.072.072v4.87c0 .04.033.071.072.071h1.052c.04 0 .071-.032.071-.071v-2.61c0-.858.414-1.33 1.166-1.33.647 0 1.019.385 1.019 1.057v2.883c0 .04.032.071.072.071h1.052c.04 0 .071-.032.071-.071v-2.99c0-1.263-.762-2.079-1.941-2.079ZM7.353 6c-2.503 0-3.987.416-4.962 1.39C1.416 8.367 1 9.85 1 12.355c0 2.503.416 3.987 1.39 4.962.976.976 2.46 1.391 4.963 1.391 2.504 0 3.988-.416 4.963-1.39.975-.975 1.391-2.46 1.391-4.963 0-2.504-.416-3.988-1.39-4.963C11.34 6.416 9.856 6 7.352 6Zm4.117 10.47c-.72.72-1.989 1.041-4.117 1.041-2.127 0-3.397-.32-4.117-1.04-.72-.72-1.04-1.99-1.04-4.117 0-2.128.32-3.398 1.04-4.118.72-.72 1.99-1.04 4.117-1.04 2.128 0 3.398.32 4.117 1.04.72.72 1.041 1.99 1.041 4.117 0 2.128-.32 3.398-1.04 4.118Zm25.511-1.076-2.177-2.435 2.1-2.338a.072.072 0 0 0-.054-.12h-1.285a.07.07 0 0 0-.054.025l-1.764 2.009v-3.91a.072.072 0 0 0-.072-.072h-1.051a.072.072 0 0 0-.072.072v6.817c0 .04.032.072.072.072h1.051c.04 0 .072-.033.072-.072v-2.06l1.871 2.108a.072.072 0 0 0 .054.024h1.256a.072.072 0 0 0 .053-.12Z"/></svg>
