<svg width="38" height="24" viewBox="0 0 38 24" fill="none" role="img" aria-labelledby="pi-inbank" xmlns="http://www.w3.org/2000/svg"><title id="pi-inbank">inbank</title><path opacity=".07" d="M35 0H3C1.3 0 0 1.3 0 3v18c0 1.7 1.4 3 3 3h32c1.7 0 3-1.3 3-3V3c0-1.7-1.4-3-3-3z" fill="#000"/><path d="M35 1c1.1 0 2 .9 2 2v18c0 1.1-.9 2-2 2H3c-1.1 0-2-.9-2-2V3c0-1.1.9-2 2-2h32z" fill="#fff"/><path d="M20.542 12.544c0-1.33-1.01-2.4-2.277-2.4a1.94 1.94 0 00-.881.197v.894c.236-.153.494-.24.795-.24.838 0 1.504.698 1.504 1.57 0 .873-.666 1.57-1.504 1.57s-1.504-.697-1.504-1.57V8.203h-.924v6.61h.924v-.546a2.16 2.16 0 001.59.698c1.246 0 2.277-1.09 2.277-2.421zM25.055 14.812h.923v-4.559h-.924v2.312c0 .873-.687 1.57-1.503 1.57-.838 0-1.504-.697-1.504-1.57 0-.872.665-1.57 1.503-1.57.301 0 .56.087.796.24v-.894a2.1 2.1 0 00-.903-.197c-1.268 0-2.277 1.07-2.277 2.4 0 1.33 1.01 2.399 2.277 2.399.623 0 1.182-.262 1.611-.698v.567zM27.718 10.253h-.924v4.56h.924v-4.56zM29.244 10.144c-.301 0-.559.066-.817.153v.85c.194-.087.387-.108.58-.108.623 0 1.14.501 1.14 1.134v2.64h.923v-2.815a1.812 1.812 0 00-1.826-1.854zM8.446 6C4.879 6 2 8.923 2 12.5 2 16.099 4.88 19 8.446 19s6.446-2.923 6.446-6.5c.021-3.577-2.88-6.5-6.446-6.5zM5.073 8.334c.322 0 .601.262.601.61 0 .328-.258.611-.602.611a.605.605 0 01-.601-.61c.021-.328.28-.611.601-.611zm2.213 6.456a1.952 1.952 0 01-.817.153c-1.01 0-1.826-.829-1.826-1.854v-2.836h.924v2.683c0 .633.515 1.134 1.138 1.134.194 0 .409-.021.58-.109v.83zm1.632.022h-.923v-4.58h.923v4.58zm1.29-3.773c-.194 0-.409.021-.58.109v-.851c.236-.11.515-.153.816-.153 1.01 0 1.826.83 1.826 1.854v2.836h-.924v-2.661c0-.633-.515-1.134-1.138-1.134zm1.611 5.714a.605.605 0 01-.602-.61c0-.328.258-.611.602-.611.322 0 .602.262.602.61 0 .35-.258.611-.602.611zM34.316 12.216l1.568-2.072H34.81l-1.547 2.072v.022l1.955 2.574h1.16l-2.063-2.596zM32.832 8.203h-.924v6.61h.924v-6.61z" fill="#2B0A57"/></svg>