<svg width="38" height="24" viewBox="0 0 38 24" xmlns="http://www.w3.org/2000/svg" role="img" aria-labelledby="pi-indexo"><title id="pi-indexo">Indexo</title><path fill="#F9EB00" d="M0 0h38v24H0z"/><path d="M34.418 6h1.916v1.916h-.755V6.715h-1.161V6zM5.59 13.713h-.754V9.038h.755v4.675zM11.975 13.713h-.681L8.686 10.33l-.004 3.383h-.754V9.038h.681l2.611 3.383V9.038h.755v4.675zM33.198 11.376c0 1.395-1.012 2.424-2.448 2.424-1.435 0-2.447-1.029-2.447-2.425 0-1.395 1.012-2.424 2.447-2.424 1.436 0 2.448 1.029 2.448 2.425zm-4.104 0c0 1.008.701 1.7 1.656 1.7.956 0 1.657-.692 1.657-1.7 0-1.009-.701-1.7-1.656-1.7-.956 0-1.657.691-1.657 1.7zM24.255 9.038h-.911l1.593 2.29-1.66 2.385h.888l1.22-1.8 1.208 1.8h.912l-3.25-4.675zM26.16 10.876l1.282-1.838h-.891l-.83 1.227.438.61zM15.368 9.038h-1.55v.715h1.55c1.099 0 1.636.67 1.636 1.623 0 .951-.537 1.623-1.636 1.623h-1.55v.714h1.55c1.463 0 2.428-.928 2.428-2.337 0-1.41-.965-2.338-2.428-2.338zM22.22 9.038h-3.232v.708h3.232v-.708zM21.956 11.005H19.25v.708h2.706v-.708zM22.262 13.005h-3.274v.708h3.274v-.708z" fill="#000"/></svg>
