<svg id="pi-Layer_1" aria-labelledby="pi-interac" role="img" width="38" height="24" viewBox="0 0 38 24" version="1.1" xmlns="http://www.w3.org/2000/svg"><title id='pi-interac'>Interac</title><g id="pi-Interac-icon-sml" stroke="none" stroke-width="1" fill="none" fill-rule="evenodd"><path fill="#FFF" d="M0 0h38v24H0z"/><g id="pi-Group" transform="translate(7)"><path d="M23.555 21.626a1.929 1.929 0 0 1-1.93 1.929H2.339a1.928 1.928 0 0 1-1.93-1.93V2.338c0-1.066.864-1.928 1.93-1.928h19.288c1.064 0 1.929.862 1.929 1.928v19.289" id="pi-Fill-1" fill="#E2A42E"/><path d="M21.626.408a1.93 1.93 0 0 1 1.929 1.93v19.288a1.929 1.929 0 0 1-1.93 1.929H2.338A1.928 1.928 0 0 1 .41 21.626V2.337c0-1.065.863-1.929 1.928-1.929h19.289m0-.408H2.337A2.34 2.34 0 0 0 0 2.337v19.29a2.34 2.34 0 0 0 2.337 2.336h19.289a2.34 2.34 0 0 0 2.337-2.337V2.337A2.34 2.34 0 0 0 21.626 0" id="pi-Fill-2" fill="#FFFFFE"/><path d="M13.332 12.231l-.002-4.144 1.082-.256v.543s.28-.715.93-.88c.2-.051.301-.021.301-.021V8.53s-.245-.01-.567.119c-.399.158-.6.502-.6 1.027v2.289l-1.144.266" id="pi-Fill-3" fill="#1A1919"/><path d="M7.63 13.579s-.176-.264-.176-1.196v-2.064l-.557.132v-.85l.558-.131v-.927l1.15-.271v.926l.813-.192v.848l-.813.193v2.102c0 .955.254 1.138.254 1.138l-1.23.292" id="pi-Fill-4" fill="#1A1919"/><path d="M9.538 11.114c0-.737.105-1.274.33-1.687.268-.49.708-.809 1.348-.954 1.262-.287 1.717.46 1.7 1.46-.007.359-.005.534-.005.534l-2.224.522v.036c0 .7.148 1.032.59.938.384-.08.49-.321.52-.617.006-.049.008-.17.008-.17l1.041-.25s.003.086.002.18c-.01.399-.125 1.386-1.573 1.728-1.37.325-1.737-.512-1.737-1.72m1.724-1.87c-.368.084-.561.445-.57 1.044l1.12-.266v-.18c0-.453-.14-.69-.55-.598" id="pi-Fill-5" fill="#1A1919"/><path d="M19.537 8.69c-.043-1.262.283-2.264 1.691-2.583.899-.204 1.24.03 1.412.255.166.216.23.506.23.913l.001.075-1.103.262v-.154c0-.482-.133-.666-.483-.578-.417.105-.585.5-.585 1.286l.001.367c0 .8.11 1.165.59 1.064.416-.086.473-.452.48-.772l.003-.212 1.1-.26v.172c-.002 1.048-.554 1.708-1.59 1.949-1.424.334-1.704-.49-1.747-1.784" id="pi-Fill-6" fill="#1A1919"/><path d="M15.728 10.457c0-.96.563-1.264 1.41-1.614.76-.314.776-.47.78-.745.004-.23-.103-.427-.482-.33-.348.088-.44.34-.459.542-.01.108-.007.213-.007.213l-1.067.252s-.017-.33.074-.631c.17-.574.677-.96 1.55-1.162 1.136-.262 1.515.236 1.517 1.011V9.83c0 .888.164 1.017.164 1.017l-1.048.249s-.098-.203-.14-.377c0 0-.23.578-1.021.764-.83.196-1.271-.319-1.271-1.025m2.183-1.31s-.218.16-.558.325c-.349.171-.508.382-.508.706 0 .28.175.465.49.387.34-.085.576-.402.576-.841v-.578" id="pi-Fill-7" fill="#1A1919"/><path d="M1.615 16.484a.665.665 0 0 1-.556-1.027l.007-.01.012-.003 1.565-.369v1.188l-.025.006c-.355.085-.778.182-.866.2a.601.601 0 0 1-.137.015" id="pi-Fill-8" fill="#1A1919"/><path d="M1.615 18.004a.664.664 0 0 1-.556-1.024l.007-.012.012-.003 1.565-.37v1.189l-.025.006c-.355.085-.778.184-.866.201a.706.706 0 0 1-.137.013" id="pi-Fill-9" fill="#1A1919"/><path d="M1.615 19.527a.665.665 0 0 1-.556-1.025l.007-.013 1.577-.371v1.188l-.025.006c-.374.09-.79.185-.866.202a.735.735 0 0 1-.137.013" id="pi-Fill-10" fill="#1A1919"/><path id="pi-Fill-11" fill="#1A1919" d="M1.431 15.028V8.38l1.212-.286v6.647l-1.212.287"/><path d="M4.45 14.462a.748.748 0 0 0-1.496 0l.001 6.214c0 1.115.909 2.025 2.024 2.025l2.117-.003v-2.592l.001-2.89a.978.978 0 0 0-.435-.816L4.776 15.12v2.91c0 .089-.073.162-.162.162a.161.161 0 0 1-.16-.162l-.004-3.567" id="pi-Fill-12" fill="#1A1919"/><path d="M5.46 9.827c-.783.18-1.079.834-1.079.834v-.468l-1.09.258v2.985a1.111 1.111 0 0 1 1.149.2V11.71c0-.462.23-.83.558-.903.247-.054.453.034.453.474v2.811l1.15-.27V10.85c0-.721-.277-1.225-1.14-1.022" id="pi-Fill-13" fill="#1A1919"/><path d="M22.162 5.572a.711.711 0 0 1 0-1.421.712.712 0 0 1 0 1.42m0-1.331a.622.622 0 1 0 .001 1.242.622.622 0 0 0-.001-1.242" id="pi-Fill-14" fill="#1A1919"/><path d="M21.903 4.438h.306c.122 0 .22.06.22.223 0 .112-.05.199-.144.214v.001c.086.009.131.056.136.178.001.056.002.124.005.177.003.042.023.063.041.074h-.156c-.015-.016-.02-.041-.024-.076-.005-.052-.004-.101-.006-.164-.002-.095-.031-.136-.126-.136h-.113v.376h-.14v-.867zm.249.387c.09 0 .138-.054.138-.142 0-.092-.039-.14-.13-.14h-.118v.282h.11z" id="pi-Fill-15" fill="#1A1919"/></g></g></svg>
