<svg xmlns="http://www.w3.org/2000/svg" width="38" height="24" role="img" viewBox="0 0 38 24" aria-labelledby="pi-interbank">
   <title id="pi-interbank">Interbank</title>
  <defs>
    <style>
      .cls-1 {
        fill: #009340;
      }

      .cls-1, .cls-2, .cls-3 {
        fill-rule: evenodd;
      }

      .cls-2 {
        fill: #363e8e;
      }

      .cls-3 {
        fill: #fff;
      }
    </style>
  </defs>
  <g data-name="Capa 2">
    <g data-name="Capa 1">
      <g>
        <polygon class="cls-1" points="0 0 17.82 0 17.82 4.8 0 4.8 0 0 0 0"/>
        <path class="cls-2" d="M.76,3.83H3.29a.36.36,0,0,0,.36-.36V1H1.12a.37.37,0,0,0-.36.36v2.5Zm.68-.46,1.5-.26V1.54l-1.5.27V3.37Z"/>
        <path class="cls-3" d="M11.27,2.13a.48.48,0,0,1,.44.54.49.49,0,0,1-.44.55A.37.37,0,0,1,11,3.06a.54.54,0,0,1-.11-.35.7.7,0,0,1,.08-.39.43.43,0,0,1,.34-.19Zm-.4-.75v.69a.68.68,0,0,1,.7-.18.74.74,0,0,1,.5.79.78.78,0,0,1-.78.84.74.74,0,0,1-.78-.8V1.38Zm-.69.42h.11v.37h-.11a.33.33,0,0,0-.21.09.3.3,0,0,0-.08.21h0v1H9.52v-1h0A.65.65,0,0,1,9.71,2a.67.67,0,0,1,.47-.19ZM8.73,2.85H8.19s0,0,0,.06a.45.45,0,0,0,.37.28h.14a.88.88,0,0,0,.39-.1.64.64,0,0,1,0,.24c0,.16-.31.17-.42.17H8.6l-.1,0h0a.79.79,0,0,1-.65-.86h0a.79.79,0,0,1,.54-.76h0A.7.7,0,0,1,9.08,2l.08.09a.61.61,0,0,1,.07.1h0a.49.49,0,0,1,.06.22.37.37,0,0,1-.08.22.4.4,0,0,1-.16.12h0a.87.87,0,0,1-.32.06Zm-.55-.27h.56c.13,0,.27-.07.2-.23h0l0,0a.12.12,0,0,0-.05,0,.37.37,0,0,0-.38-.1h0a.11.11,0,0,0-.07,0l-.06,0a.61.61,0,0,0-.17.36Zm-1-1.19v.43h.6V2c0,.13-.08.16-.22.16H7.22v.79h0a.31.31,0,0,0,0,.1c0,.12.09.16.21.17a1,1,0,0,0,.38-.05c0,.14,0,.32-.08.35a1.2,1.2,0,0,1-.34,0H7.25A.65.65,0,0,1,7,3.35a.61.61,0,0,1-.13-.43h0V1.39ZM5.76,1.8H5.9A.67.67,0,0,1,6.37,2a.65.65,0,0,1,.19.47h0v1H6.19v-1h0a.3.3,0,0,0-.08-.21.33.33,0,0,0-.21-.09H5.76a.29.29,0,0,0-.2.09.27.27,0,0,0-.09.21h0v1H5.1v-1h0A.62.62,0,0,1,5.3,2a.64.64,0,0,1,.46-.19ZM4.4,1.36h.37V3.49H4.4V1.36Zm10.06.44h.14a.68.68,0,0,1,.47.19.69.69,0,0,1,.19.47h0v1h-.37v-1h0a.27.27,0,0,0-.09-.21.29.29,0,0,0-.2-.09h-.14a.33.33,0,0,0-.21.09.3.3,0,0,0-.08.21h0v1H13.8v-1h0A.65.65,0,0,1,14,2a.67.67,0,0,1,.47-.19Zm1.1-.44h.38V3.49h-.38V1.36ZM17,1.88h-.37l-.67.76.74.85h.37l-.74-.85L17,1.88Zm-3.76.88H13a.62.62,0,0,0-.3.05.21.21,0,0,0-.13.16h0a.21.21,0,0,0,.18.25h0a.58.58,0,0,0,.34,0,.28.28,0,0,0,.14-.2,1.77,1.77,0,0,0,0-.23Zm-.45-.94a.82.82,0,0,1,.55.12.45.45,0,0,1,.15.18.71.71,0,0,1,.06.28v.5a.57.57,0,0,1-.33.57,1.07,1.07,0,0,1-.27.06c-.42,0-.73-.21-.7-.59s.26-.4.53-.42.36,0,.45,0a.93.93,0,0,0,0-.25s-.06-.11-.13-.13a.77.77,0,0,0-.3,0,.78.78,0,0,0-.37.11V2.08a.22.22,0,0,1,0-.14c0-.08.25-.11.37-.12Z"/>
      </g>
    </g>
  </g>
</svg>
