<?xml version="1.0" encoding="UTF-8"?>
<svg role="img" aria-labelledby="pi-interac" width="38px" height="24px" viewBox="0 0 38 24" version="1.1" xmlns="http://www.w3.org/2000/svg" xmlns:xlink="http://www.w3.org/1999/xlink">
    <!-- Generator: Sketch 54.1 (76490) - https://sketchapp.com -->
    <title id="pi-interac">Interac</title>
    <desc>Created with Sketch.</desc>
    <g id="pi-Interac-icon-sml" stroke="none" stroke-width="1" fill="none" fill-rule="evenodd">
        <rect fill="#FFFFFF" x="0" y="0" width="38" height="24"></rect>
        <g id="pi-Group" transform="translate(8.000000, 1.000000)">
            <path d="M21.591635,19.8237263 C21.591635,20.800719 20.7993139,21.591635 19.8237263,21.591635 L2.14279197,21.591635 C1.16579927,21.591635 0.37420073,20.800719 0.37420073,19.8237263 L0.37420073,2.14243066 C0.37420073,1.1654781 1.16579927,0.374562044 2.14279197,0.374562044 L19.8237263,0.374562044 C20.7993139,0.374562044 21.591635,1.1654781 21.591635,2.14243066 L21.591635,19.8237263" id="pi-Fill-1" fill="#E2A42E"></path>
            <path d="M19.8237263,0.37420073 C20.7993139,0.37420073 21.591635,1.16579927 21.591635,2.14243066 L21.591635,19.8240474 C21.591635,20.800719 20.7993139,21.591635 19.8237263,21.591635 L2.14243066,21.591635 C1.16579927,21.591635 0.374562044,20.800719 0.374562044,19.8240474 L0.374562044,2.14243066 C0.374562044,1.16579927 1.16579927,0.37420073 2.14243066,0.37420073 L19.8237263,0.37420073 M19.8237263,0 L2.14243066,0 C0.96129562,0 0,0.960572993 0,2.14243066 L0,19.8240474 C0,21.0048613 0.96129562,21.9661569 2.14243066,21.9661569 L19.8237263,21.9661569 C21.0052628,21.9661569 21.9661569,21.0048613 21.9661569,19.8240474 L21.9661569,2.14243066 C21.9661569,0.960572993 21.0052628,0 19.8237263,0" id="pi-Fill-2" fill="#FFFFFE"></path>
            <path d="M12.2212007,11.2121715 L12.2194745,7.41299635 L13.2114015,7.17814234 L13.2114015,7.67571168 C13.2114015,7.67571168 13.4678139,7.02101095 14.0636204,6.86873723 C14.2472482,6.82277007 14.3395839,6.85027007 14.3395839,6.85027007 L14.3395839,7.81959489 C14.3395839,7.81959489 14.1145255,7.81020073 13.8200949,7.92794891 C13.4539234,8.07287591 13.2692518,8.38822263 13.2692518,8.87009489 L13.2702956,10.967562 L12.2212007,11.2121715" id="pi-Fill-3" fill="#1A1919"></path>
            <path d="M6.99351095,12.4473029 C6.99351095,12.4473029 6.83288686,12.2055036 6.83288686,11.3508358 L6.83288686,9.45927737 L6.32243066,9.58051825 L6.32243066,8.80144526 L6.83356934,8.68052555 L6.83356934,7.83143796 L7.88824453,7.58269343 L7.88824453,8.43178102 L8.63315328,8.25513869 L8.63315328,9.03312774 L7.88824453,9.21017153 C7.88824453,9.21017153 7.88720073,10.7595657 7.88824453,11.1362153 C7.88824453,12.0117993 8.12060949,12.1797299 8.12060949,12.1797299 L6.99351095,12.4473029" id="pi-Fill-4" fill="#1A1919"></path>
            <path d="M8.74327372,10.1874453 C8.74327372,9.51186861 8.83942336,9.01955839 9.04605474,8.64118248 C9.29130657,8.19239051 9.69445255,7.90008759 10.2815073,7.76664234 C11.4383139,7.50356569 11.8553504,8.18825547 11.8389708,9.10595255 C11.8333905,9.43418613 11.8347956,9.59444891 11.8347956,9.59444891 L9.79686496,10.0731898 L9.79686496,10.1062701 C9.79686496,10.7480438 9.93171533,11.0522299 10.3379526,10.9658358 C10.6891898,10.8919672 10.7867445,10.6717664 10.8142847,10.4003394 C10.8191423,10.3557372 10.8209088,10.244573 10.8209088,10.244573 L11.7759015,10.0157007 C11.7759015,10.0157007 11.7780292,10.0940657 11.7769453,10.1811825 C11.7682336,10.5459891 11.6623285,11.4508394 10.3355438,11.7640584 C9.07877372,12.0626241 8.74327372,11.2947117 8.74327372,10.1874453 M10.3237007,8.47393431 C9.98607299,8.55057299 9.80910949,8.88157664 9.80140146,9.43069343 L10.8268102,9.18644526 C10.8285365,9.16171533 10.8285365,9.10663504 10.8285365,9.0209635 C10.8268102,8.60701825 10.6985839,8.38858394 10.3237007,8.47393431" id="pi-Fill-5" fill="#1A1919"></path>
            <path d="M17.9084818,7.96596715 C17.8690985,6.80879927 18.168708,5.89037956 19.459281,5.59843796 C20.2829562,5.41131752 20.5951314,5.62525547 20.7533066,5.83184672 C20.905219,6.02940511 20.9641131,6.29561314 20.9641131,6.66840876 L20.9651569,6.73741971 L19.9544015,6.97745255 C19.9544015,6.97745255 19.9540401,6.84087591 19.9540401,6.83666058 C19.9544015,6.39421168 19.8321168,6.22624088 19.5108686,6.30673358 C19.1289599,6.40256204 18.9745985,6.76491971 18.9745985,7.48578102 C18.9745985,7.74187226 18.9760438,7.78751825 18.9760438,7.82200365 C18.9760438,8.55442701 19.0763686,8.88992701 19.5160876,8.79759124 C19.8979161,8.71886496 19.9501861,8.38332482 19.9564489,8.08965693 C19.9571715,8.04328832 19.9592591,7.89551095 19.9592591,7.89551095 L20.9676058,7.65756569 C20.9676058,7.65756569 20.9686095,7.7324781 20.9686095,7.81473723 C20.9658394,8.77494891 20.4599599,9.38051095 19.5108686,9.60107299 C18.2046387,9.90770803 17.9485474,9.15191971 17.9084818,7.96596715" id="pi-Fill-6" fill="#1A1919"></path>
            <path d="M14.4169453,9.58537591 C14.4169453,8.70561679 14.9333029,8.42724453 15.7092445,8.10631752 C16.406781,7.81786861 16.4213942,7.67466788 16.4245255,7.42343431 C16.4283796,7.21266788 16.3308248,7.03181022 15.9834416,7.12033212 C15.664281,7.20114599 15.5796131,7.43282847 15.5625511,7.6175 C15.5531569,7.71678102 15.5562883,7.81260949 15.5562883,7.81260949 L14.5779307,8.04360949 C14.5779307,8.04360949 14.5622336,7.74187226 14.6454964,7.46526642 C14.8019453,6.93911314 15.2663942,6.58514599 16.0670657,6.39979197 C17.1074489,6.16008029 17.4548321,6.6165 17.4565584,7.32724453 L17.4565584,9.00976277 C17.4565584,9.82372263 17.607427,9.9425146 17.607427,9.9425146 L16.6468139,10.170062 C16.6468139,10.170062 16.5569672,9.98434672 16.5175438,9.82472628 C16.5175438,9.82472628 16.3074599,10.3543723 15.5823832,10.525073 C14.8207737,10.7044854 14.4169453,10.2330912 14.4169453,9.58537591 M16.4182628,8.3840073 C16.4182628,8.3840073 16.2182555,8.53138321 15.9067628,8.68297445 C15.5869599,8.83974453 15.4416314,9.03280657 15.4416314,9.32964599 C15.4416314,9.58710219 15.601573,9.7564781 15.8911058,9.68433577 C16.2022372,9.60629197 16.4182628,9.3160365 16.4182628,8.91329197 L16.4182628,8.3840073" id="pi-Fill-7" fill="#1A1919"></path>
            <path d="M1.48078467,15.1102664 C1.14524453,15.1102664 0.872091241,14.8371533 0.872091241,14.5005693 C0.872091241,14.3824599 0.905894161,14.2685255 0.970368613,14.1684818 L0.976992701,14.1601314 L0.988474453,14.1573613 L2.42256934,13.8190109 L2.42256934,14.9078504 L2.39992701,14.9130693 C2.07482482,14.9914745 1.68637226,15.0803175 1.60587956,15.0966971 C1.56581387,15.1061314 1.52293796,15.1102664 1.48078467,15.1102664" id="pi-Fill-8" fill="#1A1919"></path>
            <path d="M1.48078467,16.5036131 C1.14524453,16.5036131 0.872091241,16.2315036 0.872091241,15.8956423 C0.872091241,15.7760876 0.905894161,15.6621533 0.970368613,15.5646387 L0.976992701,15.5538394 L0.988474453,15.5513905 L2.42256934,15.212719 L2.42256934,16.3018796 L2.39992701,16.307781 C2.07482482,16.385865 1.68637226,16.4761131 1.60587956,16.4918102 C1.56581387,16.4997993 1.52293796,16.5036131 1.48078467,16.5036131" id="pi-Fill-9" fill="#1A1919"></path>
            <path d="M1.48078467,17.8997701 C1.14524453,17.8997701 0.872091241,17.626938 0.872091241,17.2907153 C0.872091241,17.1715219 0.905894161,17.0569453 0.970368613,16.9597117 L0.976992701,16.9485912 L2.42256934,16.6081533 L2.42256934,17.6973139 L2.39992701,17.702854 C2.05671898,17.7857956 1.67517153,17.8719088 1.60587956,17.8875657 C1.56581387,17.8952336 1.52293796,17.8997701 1.48078467,17.8997701" id="pi-Fill-10" fill="#1A1919"></path>
            <polyline id="pi-Fill-11" fill="#1A1919" points="1.31181022 13.7758139 1.31144891 7.68197445 2.42256934 7.41925912 2.42256934 13.5127774 1.31181022 13.7758139"></polyline>
            <path d="M4.07931387,13.2570474 C4.07931387,12.879354 3.77199635,12.5717153 3.39434307,12.5717153 C3.01456204,12.5717153 2.70828832,12.879354 2.70828832,13.2570474 L2.7089708,18.953 C2.7089708,19.9752774 3.54167883,20.8090693 4.56431752,20.8090693 C5.08308394,20.8090693 6.50429197,20.8066204 6.50429197,20.8066204 L6.5050146,18.4304197 C6.50537591,17.1321788 6.50573723,15.8106131 6.50573723,15.7806642 C6.50573723,15.4799307 6.35727737,15.2012372 6.10712774,15.0336277 L4.37755839,13.8590766 C4.37755839,13.8590766 4.37719708,16.4095511 4.37719708,16.5262555 C4.37719708,16.6081533 4.31131752,16.6750365 4.22945985,16.6750365 C4.14828467,16.6750365 4.08280657,16.6081533 4.08280657,16.5262555 C4.08280657,16.4977117 4.07931387,13.6092883 4.07931387,13.2570474" id="pi-Fill-12" fill="#1A1919"></path>
            <path d="M5.00508029,9.00771533 C4.28767153,9.17319708 4.01588321,9.77213504 4.01588321,9.77213504 L4.01588321,9.34393796 L3.01592701,9.58051825 L3.0169708,12.3159453 C3.13335401,12.2696168 3.26085766,12.2442044 3.39434307,12.2442044 C3.65320438,12.2442044 3.88906204,12.3403139 4.06991971,12.4999343 L4.06991971,10.733792 C4.06991971,10.3108139 4.28104745,9.97282482 4.58137956,9.90662409 C4.80784307,9.85680292 4.99668978,9.9379781 4.99668978,10.3407628 L4.99737226,12.9176533 L6.05068248,12.6703139 L6.05068248,9.94464234 C6.05068248,9.28367883 5.797,8.82236131 5.00508029,9.00771533" id="pi-Fill-13" fill="#1A1919"></path>
            <path d="M20.3149927,5.1074927 C19.9564489,5.1074927 19.664146,4.81514964 19.664146,4.45660584 C19.664146,4.09741971 19.9564489,3.80475547 20.3149927,3.80475547 C20.6735365,3.80475547 20.9658394,4.09741971 20.9658394,4.45660584 C20.9658394,4.81514964 20.6735365,5.1074927 20.3149927,5.1074927 M20.3149927,3.88661314 C20.0014526,3.88661314 19.7453613,4.14234307 19.7453613,4.45660584 C19.7453613,4.77090876 20.0014526,5.0259562 20.3149927,5.0259562 C20.6288942,5.0259562 20.8843431,4.77090876 20.8843431,4.45660584 C20.8843431,4.14234307 20.6288942,3.88661314 20.3149927,3.88661314" id="pi-Fill-14" fill="#1A1919"></path>
            <path d="M20.0773686,4.06815328 L20.6751186,4.06815328 C20.9128873,4.06815328 21.1047408,4.14524493 21.1047408,4.35063751 C21.1047408,4.4933237 21.0069365,4.60318484 20.8225932,4.62201342 L20.8225932,4.62390183 C20.9898676,4.63506568 21.0781134,4.6952727 21.0869039,4.8500114 C21.0898909,4.91993819 21.0914271,5.00619418 21.0966331,5.07367714 C21.1025218,5.12766351 21.1417801,5.15371249 21.1773686,5.16815328 L20.8728609,5.16815328 C20.8446973,5.14743629 20.8329199,5.11511112 20.8269458,5.07073344 C20.8165338,5.0047501 20.8188381,4.94304346 20.8151683,4.86300812 C20.8106451,4.74298287 20.7544033,4.69049613 20.5684385,4.69049613 L20.3485068,4.69049613 L20.3485068,5.16815328 L20.0773686,5.16815328 L20.0773686,4.06815328 Z M20.5633179,4.55836283 C20.7374198,4.55836283 20.8329199,4.49038 20.8329199,4.37901923 C20.8329199,4.26193768 20.7566222,4.20117525 20.5780824,4.20117525 L20.3485068,4.20117525 L20.3485068,4.55836283 L20.5633179,4.55836283 L20.5633179,4.55836283 Z" id="pi-Fill-15" fill="#1A1919"></path>
        </g>
        <rect id="pi-Rectangle" stroke-opacity="0.07" stroke="#000000" x="0.5" y="0.5" width="37" height="23" rx="2"></rect>
    </g>
</svg>
