<svg viewBox="0 0 38 24" xmlns="http://www.w3.org/2000/svg" role="img" width="38" height="24" aria-labelledby="pi-ipass"><title id="pi-ipass">Ipass</title><path opacity=".07" d="M35 0H3C1.3 0 0 1.3 0 3v18c0 1.7 1.4 3 3 3h32c1.7 0 3-1.3 3-3V3c0-1.7-1.4-3-3-3z"/><path fill="#fff" d="M35 1c1.1 0 2 .9 2 2v18c0 1.1-.9 2-2 2H3c-1.1 0-2-.9-2-2V3c0-1.1.9-2 2-2h32"/><path fill="#FEFEFE" d="M20.747 22.52H2.042V1.405h33.832V22.52H20.747m10.2-17.93a.343.343 0 01-.012-.08 1.415 1.415 0 00-.136-.027L7.26 4.482c-.065 0-.13.006-.24.008a.89.89 0 00-.043.073c.005.018.01.036 0 .092v10.417h21.179c.109 0 .218-.01.383-.009 1.416-.09 2.461-.815 2.407-1.696l.003-8.628c0-.04-.011-.081-.002-.149M15.338 19.432c1.169-.105 2.086-.63 2.302-1.315.229-.727-.275-1.435-1.278-1.795-.995-.358-2.252-.284-3.107.184-.853.466-1.14 1.218-.733 1.878.34.55 1.33 1.13 2.816 1.048m7.116-2.87c.004-.504.057-.472-.745-.47-.073.001-.147.01-.252.016v2.355a.483.483 0 01-.177-.156c-.418-.574-.833-1.15-1.253-1.723-.435-.592-.213-.475-1.22-.494-.316-.006-.428.065-.425.263.012.873.005 1.745.005 2.618v.469c.211 0 .397-.009.58.002.3.017.41-.051.404-.245-.017-.59-.006-1.182-.005-1.772 0-.05.013-.099.028-.202.087.102.134.153.175.206.398.512.788 1.026 1.196 1.535.46.575.211.465 1.215.475.41.004.473-.04.473-.3v-2.576M8.434 17.77c.033.044.071.086.098.13.122.205.334.293.703.288.37-.005.656-.028.812-.278.14-.224.345-.432.52-.646l.074.015v1.928c0 .104-.019.222.221.23.247.007.495.001.757.001 0-1.07.002-2.113-.004-3.156a.196.196 0 00-.107-.16c-.262-.123-.972-.005-1.12.18-.303.38-.602.762-.905 1.142-.05.062-.112.12-.204.216-.347-.438-.683-.823-.96-1.224-.183-.268-.44-.378-.908-.349-.414.027-.438.02-.438.29v3.062h.485c.483 0 .483 0 .483-.292 0-.584 0-1.167.002-1.751 0-.04.017-.08.04-.176.17.21.297.367.451.55m16.644-.304h-.905v-.368c.005-.31.132-.392.623-.394h1.56c0-.16.032-.3-.013-.43-.024-.07-.18-.172-.278-.173a25.531 25.531 0 00-1.814.03c-.622.038-1.027.293-1.048.677a18.497 18.497 0 000 1.916c.018.367.364.606.945.667.44.047.897.045 1.347.046.95.002.867.081.859-.56 0-.011-.025-.022-.05-.042-.352 0-.715-.002-1.078 0-1.027.009-1.1.018-1.04-.725 0-.006.01-.012.035-.037h1.69c.177.001.346-.007.356-.15.01-.148.002-.296.002-.457h-1.191M29.4 16.8l-.54.736-.685-.94c-.39-.537-.39-.537-1.394-.49l.225.32c.36.508.683 1.027 1.096 1.518.2.24.251.468.242.72-.008.254-.002.507-.002.777h.514c.53 0 .564-.002.522-.33-.072-.56.098-1.073.527-1.57.354-.41.622-.847.926-1.274.037-.052.065-.106.102-.167-1.008-.027-1.008-.027-1.405.522-.036.05-.074.1-.128.178z"/><path fill="#50BE01" d="M6.992 4.617c-.005-.018-.01-.036.008-.072l.064-.053c.065-.004.131-.01.196-.01 7.847 0 15.693 0 23.577.016l.096.038c.004.018.01.037-.014.08a.431.431 0 00-.057.186c-.002 2.804-.002 5.608.002 8.411 0 .064.044.128.068.192.068.843-.977 1.567-2.44 1.643a3.436 3.436 0 00-.437-.035H7.498c-.434 0-.435 0-.435-.264 0-3.293 0-6.586-.003-9.879 0-.084-.044-.168-.068-.253m11.4 7.839c-.195-.443-.385-.888-.586-1.33-.151-.332-.46-.47-1.018-.467-.55.002-.847.145-.997.484-.388.873-.774 1.746-1.158 2.62-.021.048-.026.1-.042.165.221 0 .408-.008.593.002.256.013.385-.052.436-.209.061-.187.165-.37.222-.558.037-.123.129-.158.314-.15.197.008.397-.005.594.003.303.012.467-.054.426-.259-.011-.059-.01-.12-.016-.198h-1.074c.19-.462.366-.9.554-1.334.017-.04.11-.084.178-.093.04-.005.12.05.15.089.04.054.051.118.075.178.309.765.612 1.53.934 2.294.036.086.157.206.27.221.245.035.51.011.795.011-.22-.5-.426-.97-.65-1.47m-6.082-.045c.109.271.203.314.64.282.143-.01.284-.025.424-.045.816-.112 1.263-.45 1.27-.958.008-.52-.425-.896-1.274-.964-.711-.056-1.444-.009-2.167-.011-.26-.001-.322.071-.32.227.012.928.005 1.855.007 2.782 0 .066.011.13.018.205h.463c.444-.001.456-.009.456-.294v-2.517c.276 0 .516-.003.756 0 .142.003.287.007.427.024.47.056.68.212.693.511.016.352-.234.541-.793.589a3.737 3.737 0 01-.46.01c-.169-.006-.185.044-.14.159m8.47.043c.247.092.495.18.737.274.281.109.412.264.327.472-.085.208-.344.27-.647.288a5.119 5.119 0 01-.429.003c-.404-.012-.808-.028-1.253-.045.064.168-.169.394.256.452.682.093 1.379.109 2.06-.01.793-.14 1.198-.61.959-1.097-.14-.285-.51-.44-.894-.577-.42-.15-.85-.287-1.27-.436-.23-.081-.399-.216-.287-.372.077-.106.286-.185.46-.25.092-.036.236-.024.356-.021.429.008.858.029 1.286.026.088 0 .248-.08.249-.125.002-.1.148-.267-.126-.295-.782-.079-1.573-.144-2.354.004-.442.083-.74.27-.822.562-.083.296.006.57.405.76.295.14.63.25.988.387m3.505-1.736c-.513.078-.876.253-.971.595-.11.397.119.684.727.907.379.139.766.27 1.147.407.548.197.687.345.57.593-.096.2-.373.283-.97.273-.436-.008-.872-.028-1.34-.044 0 .095-.03.189.01.268.037.07.14.168.237.18.685.087 1.38.11 2.061-.01.688-.12 1.042-.452 1.012-.897-.023-.333-.34-.544-.76-.701-.46-.174-.941-.327-1.41-.491-.25-.088-.418-.211-.348-.402.072-.198.336-.25.607-.255.395-.009.793 0 1.188.013.598.02.597.025.574-.353 0-.012-.016-.024-.036-.05-.737-.076-1.486-.135-2.298-.033M8.75 13.58c.001.378.126.422.923.323v-2.181H8.75v1.858m.004-2.555c.007.302.202.355.918.248v-.565h-.918v.317z"/><path fill="#040403" d="M15.308 19.433c-1.455.081-2.447-.5-2.786-1.05-.407-.66-.12-1.41.733-1.877.855-.468 2.112-.542 3.107-.184 1.003.36 1.507 1.068 1.278 1.795-.216.686-1.133 1.21-2.332 1.316m.516-2.076c-.319.118-.658.22-.95.359-.31.147-.32.318-.015.461.373.175.783.325 1.202.452.119.037.4-.009.472-.075.066-.06-.018-.208-.095-.298-.105-.123-.391-.24-.37-.338.026-.11.324-.189.476-.296.075-.052.152-.155.117-.204-.045-.064-.197-.13-.31-.136-.156-.009-.319.04-.527.075m-2.654.427c-.036.064-.095.127-.101.192-.011.118.111.206.283.148.35-.12.395-.01.446.169.02.067.156.154.261.167.091.012.278-.052.309-.107.155-.283.205-.575.03-.864-.1-.162-.318-.207-.53-.114-.246.108-.449.254-.698.409m1.964-1.03c-.373-.089-.582-.022-.679.215-.108.268.05.485.367.505.287.019.717-.137.836-.303.092-.127.074-.218-.181-.263-.113-.02-.204-.087-.343-.154z"/><path fill="#060606" d="M22.454 16.583v2.555c-.001.261-.063.305-.474.3-1.004-.009-.755.101-1.215-.474-.408-.51-.798-1.023-1.196-1.535-.041-.053-.088-.104-.175-.206-.015.103-.028.153-.028.202-.001.59-.012 1.181.005 1.772.005.194-.105.262-.404.245-.183-.01-.369-.002-.58-.002v-.47c0-.872.007-1.744-.005-2.617-.003-.198.109-.27.424-.263 1.008.02.786-.098 1.22.494.421.574.836 1.149 1.254 1.723a.48.48 0 00.177.156v-2.355c.105-.007.179-.015.252-.015.802-.003.749-.035.745.49z"/><path fill="#040404" d="M8.42 17.757c-.14-.17-.268-.328-.438-.537-.023.095-.04.136-.04.176-.002.584-.001 1.167-.002 1.751 0 .292 0 .292-.483.292h-.485v-3.062c0-.27.024-.263.438-.29.468-.03.725.08.909.349.276.4.612.786.959 1.224.092-.097.154-.154.204-.216.303-.38.602-.762.906-1.143.147-.184.857-.302 1.119-.179a.197.197 0 01.107.16c.006 1.043.004 2.086.004 3.156-.262 0-.51.006-.757-.002-.24-.007-.221-.125-.221-.228v-1.929l-.074-.015c-.175.214-.38.422-.52.646-.156.25-.442.273-.812.278-.37.005-.58-.083-.703-.287-.027-.045-.065-.087-.11-.144zm16.69-.291h1.158c0 .16.008.31-.002.457-.01.143-.179.151-.356.15h-1.69c-.025.025-.035.03-.035.037-.06.743.013.734 1.04.726.363-.003.726 0 1.078 0 .025.02.05.03.05.04.008.642.092.563-.859.561-.45 0-.906 0-1.347-.046-.581-.06-.927-.3-.945-.667a18.497 18.497 0 010-1.916c.021-.384.426-.64 1.048-.678.6-.036 1.21-.035 1.814-.029.098.001.254.103.278.173.045.13.013.27.013.43h-1.56c-.491.002-.618.083-.623.394v.368h.938z"/><path fill="#060606" d="M29.408 16.785l.12-.164c.397-.55.397-.55 1.405-.522-.037.06-.065.115-.102.167-.304.427-.572.865-.926 1.274-.43.497-.6 1.01-.527 1.57.042.328.008.33-.522.33h-.514c0-.27-.006-.523.002-.776a.985.985 0 00-.242-.72c-.413-.492-.736-1.011-1.096-1.519l-.225-.32c1.004-.047 1.004-.047 1.394.49l.684.94c.209-.284.375-.51.549-.75z"/><path fill="#45BA00" d="M6.984 4.636c.032.066.076.15.076.234.004 3.293.003 6.586.003 9.879 0 .263 0 .263.435.263l20.557.001c.13 0 .26.012.41.032-.091.018-.2.026-.31.026H6.978c0-3.48 0-6.949.007-10.435zm23.956 8.75c-.032-.045-.076-.109-.076-.173a3930.12 3930.12 0 01-.002-8.411c0-.054.019-.108.05-.173.026.029.037.07.037.11 0 2.876-.002 5.752-.01 8.647zm-.006-8.863c-.02.005-.04-.003-.066-.021.017-.004.042.001.066.02zM7.042 4.49c.008.014-.005.025-.035.042-.006-.011.004-.027.035-.041z"/><path fill="#FAFDF8" d="M18.4 12.472c.216.484.422.952.642 1.453-.284 0-.55.024-.795-.01-.113-.016-.234-.136-.27-.222-.322-.763-.625-1.53-.934-2.294-.024-.06-.034-.124-.076-.178-.028-.038-.109-.094-.149-.089-.068.009-.16.053-.178.093-.188.435-.364.872-.554 1.334h1.074c.006.079.005.14.016.198.041.205-.123.271-.426.259-.197-.008-.397.005-.594-.004-.185-.007-.277.028-.314.15-.057.189-.16.372-.222.56-.051.156-.18.221-.436.208-.185-.01-.372-.002-.593-.002.016-.066.02-.117.042-.166.384-.873.77-1.746 1.158-2.619.15-.34.447-.482.997-.484.558-.003.867.135 1.018.467.2.442.39.887.595 1.346z"/><path fill="#FBFEFA" d="M12.304 12.393c-.039-.098-.023-.148.145-.141.153.006.31.002.461-.011.559-.048.809-.237.793-.589-.014-.299-.222-.455-.693-.511a4.185 4.185 0 00-.427-.023c-.24-.004-.48-.001-.756-.001v2.517c0 .285-.012.293-.456.294h-.463c-.007-.075-.018-.14-.018-.205-.002-.927.005-1.854-.007-2.782-.002-.156.06-.228.32-.227.723.002 1.456-.045 2.167.011.849.068 1.282.444 1.274.964-.007.508-.454.846-1.27.958-.14.02-.281.035-.423.045-.438.032-.532-.01-.647-.3z"/><path fill="#FAFDF8" d="M20.76 12.446c-.338-.13-.672-.24-.967-.38-.399-.19-.488-.464-.405-.76.082-.292.38-.479.822-.562.781-.148 1.572-.083 2.354-.004.274.028.128.195.126.295-.001.044-.16.125-.25.125-.427.003-.856-.018-1.285-.026-.12-.003-.264-.015-.356.02-.174.066-.383.145-.46.25-.112.157.058.292.287.373.42.149.85.286 1.27.436.385.138.754.292.894.577.239.487-.166.957-.959 1.096-.681.12-1.378.104-2.06.011-.425-.058-.192-.284-.256-.452.445.017.849.033 1.253.045.143.005.287.005.429-.003.303-.017.562-.08.647-.288.085-.208-.046-.363-.327-.472-.242-.095-.49-.182-.757-.281z"/><path fill="#FBFEF9" d="M24.312 10.714c.786-.099 1.535-.04 2.272.035.02.027.035.039.036.05.023.38.024.375-.574.354a21.133 21.133 0 00-1.188-.013c-.27.006-.535.057-.607.255-.07.19.098.314.347.402.47.164.95.317 1.412.49.42.158.736.369.759.702.03.445-.324.777-1.012.897-.681.12-1.376.097-2.061.01-.098-.012-.2-.11-.237-.18-.04-.08-.01-.173-.01-.268.468.016.904.036 1.34.044.597.01.874-.072.97-.273.117-.248-.022-.396-.57-.593-.38-.137-.768-.268-1.147-.407-.608-.223-.838-.51-.727-.907.095-.342.458-.517.997-.598z"/><path fill="#FBFDF9" d="M8.751 13.56v-1.84h.923v2.182c-.797.099-.922.055-.923-.342z"/><path fill="#F6FCF2" d="M8.755 11.006v-.299h.918v.565c-.716.107-.911.054-.918-.266z"/><path fill="#FA850F" d="M15.848 17.351c.184-.03.347-.078.502-.07.114.006.266.073.311.137.035.05-.042.152-.117.204-.152.107-.45.187-.475.296-.022.099.264.215.37.338.076.09.16.239.094.298-.072.066-.353.112-.472.075a9.076 9.076 0 01-1.202-.452c-.305-.143-.294-.314.014-.461.293-.14.632-.241.975-.365z"/><path fill="#01BAF7" d="M13.184 17.77c.235-.141.438-.287.684-.395.212-.093.43-.048.53.114.175.289.125.581-.03.864-.03.055-.218.12-.309.107-.105-.013-.242-.1-.26-.167-.052-.18-.096-.29-.447-.17-.172.06-.294-.03-.283-.147.006-.065.065-.128.115-.205z"/><path fill="#4EB800" d="M15.153 16.765c.12.056.211.123.324.143.255.045.273.136.181.263-.119.166-.549.322-.836.303-.317-.02-.475-.237-.367-.505.097-.237.306-.304.698-.204z"/></svg>