<svg xmlns="http://www.w3.org/2000/svg" role="img" viewBox="0 0 38 24" width="38" height="24" aria-labelledby="pi-ipwireinst">    <title id="pi-ipwireinst">Virement SEPA Instantané</title>    <style type="text/css">	.st0{fill:#FFFFFF;}	.st1{opacity:7.000000e-02;}	.st2{fill:url(#pi-SVGID_1_);}	.st3{fill:url(#pi-SVGID_00000013194909631831230180000003804843886686276266_);}</style><path class="st0" d="M36,24H2c-1.1,0-2-0.9-2-2V2c0-1.1,0.9-2,2-2h34c1.1,0,2,0.9,2,2v20C38,23.1,37.1,24,36,24z"/><g class="st1">	<path d="M36,1c0.6,0,1,0.4,1,1v20c0,0.6-0.4,1-1,1H2c-0.6,0-1-0.4-1-1V2c0-0.6,0.4-1,1-1H36 M36,0H2C0.9,0,0,0.9,0,2v20		c0,1.1,0.9,2,2,2h34c1.1,0,2-0.9,2-2V2C38,0.9,37.1,0,36,0L36,0z"/></g><g id="pi-Calque_2_00000087405434056007313570000003400288361010385028_">	<g id="pi-Calque_1-2">					<linearGradient id="pi-SVGID_1_" gradientUnits="userSpaceOnUse" x1="10" y1="2" x2="28" y2="2" gradientTransform="matrix(1 0 0 1 0 10)">			<stop  offset="0" style="stop-color:#233889"/>			<stop  offset="0.26" style="stop-color:#223583"/>			<stop  offset="0.61" style="stop-color:#1E2D72"/>			<stop  offset="1" style="stop-color:#172057"/>		</linearGradient>		<path class="st2" d="M20.9,17.1c0,0.2-0.2,0.4-0.4,0.4S20,17.3,20,17.1c0-0.2,0.2-0.4,0.4-0.4S20.9,16.8,20.9,17.1z M16.7,15.4			c-0.9,0-1.7,0.7-1.7,1.7c0,0.9,0.7,1.7,1.7,1.7c0.9,0,1.7-0.7,1.7-1.7l0,0C18.4,16.1,17.6,15.4,16.7,15.4L16.7,15.4z M12.9,16.6			c-0.2,0-0.4,0.2-0.4,0.4c0,0.2,0.2,0.4,0.4,0.4c0.2,0,0.4-0.2,0.4-0.4C13.4,16.8,13.2,16.6,12.9,16.6z M22.1,5.9			C22.1,5.9,22,6,22.1,5.9L22.1,5.9L22,10.5c0,0,0,0.1,0,0.1l4-2.3C25.3,6.8,23.8,6,22.1,5.9L22.1,5.9z M22.4,14.8			c-0.6-0.1-1-0.6-1.2-1.2h-9.3c-0.1,0.6-0.6,1-1.2,1.2v4.3c0.6,0.1,1.1,0.6,1.2,1.2h9.3c0.1-0.6,0.6-1.1,1.2-1.2L22.4,14.8			L22.4,14.8z M17.6,8.2c-0.7,1.5-0.7,3.3,0.2,4.8h4.9c0.2,0,0.4,0.2,0.4,0.4l0,0v2c2.8-0.5,4.6-3.1,4.2-5.9			c-0.5-2.8-3.1-4.6-5.9-4.2c-0.9,0.2-1.8,0.6-2.5,1.2l-0.5-0.5c1-0.9,2.2-1.4,3.5-1.5V3.7h-1.4c-0.1,0-0.1,0-0.1-0.1V3.1			c0-0.1,0-0.1,0.1-0.1h3.5C24,3,24,3.1,24,3.1v0.5c0,0.1,0,0.1-0.1,0.1h-1.3v0.9C23.9,4.7,25.1,5.2,26,6l0.6-0.6l-0.5-0.5			c0,0,0-0.1,0-0.1l0.3-0.3c0,0,0.1,0,0.1,0L28,5.9c0,0,0,0.1,0,0.1l-0.3,0.3c0,0-0.1,0-0.1,0L27,5.9l-0.6,0.6c2.2,2.3,2,6-0.3,8.2			c-0.8,0.8-1.9,1.3-3.1,1.5v4.5c0,0.2-0.2,0.4-0.4,0.4H10.4c-0.2,0-0.4-0.2-0.4-0.4c0,0,0,0,0,0v-7.2c0-0.2,0.2-0.4,0.4-0.4H17			c-0.8-1.5-0.8-3.3-0.2-4.9L17.6,8.2L17.6,8.2z"/>					<linearGradient id="pi-SVGID_00000172421869365007198290000010834764596754984321_" gradientUnits="userSpaceOnUse" x1="10.2098" y1="-1.8459" x2="21.1472" y2="-1.8459" gradientTransform="matrix(1 0 0 1 0 10)">			<stop  offset="0" style="stop-color:#FFD843"/>			<stop  offset="0.72" style="stop-color:#F66A13"/>			<stop  offset="1" style="stop-color:#F45907"/>		</linearGradient>		<path style="fill:url(#pi-SVGID_00000172421869365007198290000010834764596754984321_);" d="M14.2,6.2h-3.9c-0.1,0-0.1,0-0.1-0.1l0,0			V6c0-0.1,0-0.1,0.1-0.1h3.9c0.1,0,0.1,0,0.1,0.1L14.2,6.2C14.3,6.2,14.3,6.2,14.2,6.2L14.2,6.2z M13,6.7v0.1c0,0.1,0,0.1,0.1,0.1			h2.3c0.1,0,0.1,0,0.1-0.1V6.7c0-0.1,0-0.1-0.1-0.1L13,6.7C13,6.6,13,6.6,13,6.7z M21.1,8.1l-2.7-2.7c-0.1-0.1-0.1-0.1-0.2,0l0,0			l-0.6,0.5c-0.1,0.1-0.1,0.1,0,0.2l0,0l1.5,1.5h-7.5c-0.1,0-0.1,0.1-0.1,0.1v0.8c0,0.1,0.1,0.1,0.1,0.1h7.5l-1.5,1.5			c-0.1,0.1-0.1,0.1,0,0.2l0,0l0.6,0.6c0.1,0.1,0.1,0.1,0.2,0l2.7-2.7c0,0,0-0.1,0-0.1S21.1,8.1,21.1,8.1L21.1,8.1L21.1,8.1z"/>	</g></g></svg>