<svg xmlns="http://www.w3.org/2000/svg" role="img" viewBox="0 0 38 24" width="38" height="24" aria-labelledby="pi-ipwire">    <title id="pi-ipwire">Ipwire</title>    <style type="text/css">	.st0{fill:#FFFFFF;}	.st1{opacity:7.000000e-02;}	.st2{fill:url(#pi-SVGID_1_);}	.st3{fill:url(#pi-SVGID_00000025417691751643119480000005108622902169857450_);}</style><path class="st0" d="M36,24H2c-1.1,0-2-0.9-2-2V2c0-1.1,0.9-2,2-2h34c1.1,0,2,0.9,2,2v20C38,23.1,37.1,24,36,24z"/><g class="st1">	<path d="M36,1c0.6,0,1,0.4,1,1v20c0,0.6-0.4,1-1,1H2c-0.6,0-1-0.4-1-1V2c0-0.6,0.4-1,1-1H36 M36,0H2C0.9,0,0,0.9,0,2v20		c0,1.1,0.9,2,2,2h34c1.1,0,2-0.9,2-2V2C38,0.9,37.1,0,36,0L36,0z"/></g><g id="pi-Calque_2_00000056399709675909959770000015814529652427292570_">	<g id="pi-Calque_1-2">					<linearGradient id="pi-SVGID_1_" gradientUnits="userSpaceOnUse" x1="10" y1="51.4453" x2="25.3065" y2="51.4453" gradientTransform="matrix(1 0 0 1 0 -43.75)">			<stop  offset="0" style="stop-color:#233889"/>			<stop  offset="0.26" style="stop-color:#223583"/>			<stop  offset="0.61" style="stop-color:#1E2D72"/>			<stop  offset="1" style="stop-color:#172057"/>		</linearGradient>		<path class="st2" d="M19,3h-8.5C10.2,3,10,3.2,10,3.5v8.4c0,0.3,0.2,0.5,0.5,0.5h14.4c0.3,0,0.5-0.2,0.5-0.5l0,0V3.5			c0-0.3-0.2-0.5-0.5-0.5l0,0H19z M24.5,10.2c-0.7,0.1-1.2,0.7-1.4,1.4H12.3c-0.2-0.7-0.7-1.3-1.4-1.4v-5c0.7-0.1,1.3-0.7,1.4-1.4			h10.9c0.1,0.7,0.7,1.2,1.3,1.4V10.2L24.5,10.2z M19.8,7.8c0,1.1-0.9,2-2,2c-1.1,0-2-0.9-2-2s0.9-2,2-2c0,0,0,0,0.1,0			C18.9,5.8,19.8,6.7,19.8,7.8L19.8,7.8z M14,7.8c0,0.3-0.2,0.5-0.5,0.5s-0.5-0.2-0.5-0.5c0-0.3,0.2-0.5,0.5-0.5S14,7.5,14,7.8z			 M22.7,7.8c0,0.3-0.2,0.5-0.5,0.5c-0.3,0-0.5-0.2-0.5-0.5c0-0.3,0.2-0.5,0.5-0.5C22.5,7.2,22.7,7.5,22.7,7.8L22.7,7.8z"/>					<linearGradient id="pi-SVGID_00000018228533590080714820000008788153990090198441_" gradientUnits="userSpaceOnUse" x1="10.8099" y1="60.2122" x2="28" y2="60.2122" gradientTransform="matrix(1 0 0 1 0 -43.75)">			<stop  offset="0" style="stop-color:#FFD843"/>			<stop  offset="0.72" style="stop-color:#F66A13"/>			<stop  offset="1" style="stop-color:#F45907"/>		</linearGradient>		<path style="fill:url(#pi-SVGID_00000018228533590080714820000008788153990090198441_);" d="M28,16.5c0,0.1,0,0.1-0.1,0.2l-4.2,4.2			c-0.1,0.1-0.2,0.1-0.3,0L22.5,20c-0.1-0.1-0.1-0.2,0-0.3l2.3-2.3H12.9c-0.1,0-0.2-0.1-0.2-0.2v-1.3c0-0.1,0.1-0.2,0.2-0.2h11.9			l-2.3-2.4c-0.1-0.1-0.1-0.2,0-0.3l0.9-0.9c0.1-0.1,0.2-0.1,0.3,0l4.2,4.3C28,16.4,28,16.4,28,16.5L28,16.5z M17.2,12.4			c0.1,0,0.1-0.1,0.1-0.1l0,0v-0.2c0-0.1-0.1-0.1-0.1-0.1H11c-0.1,0-0.1,0.1-0.1,0.1l0,0v0.2c0,0.1,0.1,0.1,0.1,0.1H17.2z			 M15.2,13.9v0.2c0,0.1,0.1,0.1,0.1,0.1H19c0.1,0,0.1-0.1,0.1-0.1l0,0v-0.2c0-0.1-0.1-0.1-0.1-0.1h-3.7			C15.2,13.7,15.2,13.8,15.2,13.9z M17.1,20.5H11c-0.1,0-0.1,0.1-0.1,0.1l0,0v0.2c0,0.1,0,0.2,0.1,0.2c0,0,0,0,0,0h6.1			c0.1,0,0.1-0.1,0.1-0.1l0,0v-0.2C17.3,20.6,17.3,20.5,17.1,20.5C17.2,20.5,17.2,20.5,17.1,20.5z M16.1,18.5l-0.2-0.2l-0.6,0.6			l0.6,0.6l0.2-0.2L15.8,19h3.3v-0.3h-3.3L16.1,18.5L16.1,18.5z"/>	</g></g></svg>