<svg xmlns="http://www.w3.org/2000/svg" x="0" y="0" width="38" height="24"><path fill="#000" opacity=".07" d="M35 0H3C1.3 0 0 1.3 0 3v18c0 1.7 1.4 3 3 3h32c1.7 0 3-1.3 3-3V3c0-1.7-1.4-3-3-3z"/><path fill="#fff" d="M35 1c1.1 0 2 .9 2 2v18c0 1.1-.9 2-2 2H3c-1.1 0-2-.9-2-2V3c0-1.1.9-2 2-2h32"/><g transform="translate(7 0) scale(0.4138)"> <path fill="#404041" d="M21.8 39.5h-.6c-.2 0-.3-.1-.3-.2v1.3s0 .1-.1.1h-.4v-3.5c0-.1.1-.2.2-.2h1.2c.4 0 .7.2.7.7v1.1c0 .4-.4.7-.7.7zm.2-1.8c0-.2-.1-.3-.3-.3h-.8s-.1 0-.1.1v1.3c0 .1.1.2.2.2h.7c.2 0 .3-.1.3-.3v-1zM27.4 37.7v1.6c0 .1-.1.2-.2.2h-1.1c-.4 0-.7-.3-.7-.7v-.2c0-.4.3-.7.7-.7h.8s.1 0 .1-.1v-.1c0-.2-.1-.3-.3-.3h-1s-.1 0-.1-.1V37h1c.5 0 .8.3.8.7zM26.1 39h.8v-.9l-.1.1H26c-.2 0-.3.1-.3.3v.2c.1.2.2.3.4.3zM32.4 37s.1 0 0 0l.1 2.9c0 .4-.3.7-.7.7h-1.2v-.4s0-.1.1-.1h1.1c.2 0 .3-.1.3-.3v-.7c-.1.1-.2.2-.3.2h-.6c-.4 0-.7-.3-.7-.7V37h.5v1.7c0 .2.1.3.3.3h.6c.1 0 .2-.1.2-.2V37h.3zM38.4 37.7v1.7H38s-.1 0-.1-.1v-1.7c0-.2-.1-.3-.3-.3H37l.1.1v1.9h-.4s-.1 0-.1-.1v-1.9s0-.1-.1-.1H36v1.9s0 .1-.1.1h-.4v-2.1c0-.2.1-.3.3-.3h1.9c.4.2.7.5.7.9zM41.5 38.7v-1c0-.5.3-.7.7-.7h.7c.4 0 .7.2.7.7v.6c0 .1 0 .2-.1.2h-1.3c-.1 0-.1 0-.2-.1v.4c0 .2.1.3.3.3h1.2s.1 0 .1.1v.4h-1.3c-.5-.1-.8-.5-.8-.9zm.7-1.3c-.2 0-.3.1-.3.3v.4H43s.1 0 .1-.1v-.3c0-.2-.1-.3-.3-.3h-.6zM48.7 37.7v1.7h-.4s-.1 0-.1-.1v-1.7c0-.2-.1-.3-.3-.3H47s-.1 0-.1.1v1.9s0 .1-.1.1h-.4v-2.1c0-.2.1-.3.3-.3h1c.6 0 1 .3 1 .7zM52.9 39.1v.4h-.5c-.4 0-.7-.3-.7-.7v-2.9h.4s.1 0 .1.1v1.2c0-.1.1-.1.1-.1h.5v.4h-.7v1.3c0 .2.1.3.3.3h.5c0-.1 0 0 0 0zM55.7 38v-.3c0-.4.3-.6.7-.6h1.3v.3s0 .1-.1.1h-1.3c-.2 0-.2.1-.2.2v.2l1.5.4c.1 0 .1.1.1.2v.4c0 .4-.3.7-.7.7h-1.4v-.3s0-.1.1-.1H57c.2 0 .3-.1.3-.3v-.2l-1.5-.4c0-.2-.1-.2-.1-.3z"/> <g> <path d="M9 17.3c-.1 0-.1 0 0 0l-.1 4.2H9c2.5 0 4.5 2 4.5 4.5h4.2c0-4.8-3.9-8.7-8.7-8.7" style="fill:#2d70b3"/> <path d="M13.5 26c0 2.5-2 4.6-4.5 4.6h-.1v4.2H9c4.8 0 8.8-3.9 8.8-8.8h-4.3z" style="fill:#019a94"/> <path d="M8.9 21.5v-4.2c-4.8 0-8.7 4-8.7 8.8h4.2c0-2.5 2-4.5 4.5-4.6" style="fill:#ee3e37"/> <path d="M4.4 26H.2c0 4.8 3.9 8.7 8.7 8.8v-4.2c-2.5-.1-4.5-2.1-4.5-4.6" style="fill:#f68c22"/> <path d="M9 20.3c-.1 0-.1 0 0 0l-.1 2.8H9c1.6 0 3 1.3 3 2.9h2.8c-.1-3.1-2.7-5.7-5.8-5.7" style="fill:#154a8b"/> <path d="M11.9 26c0 1.6-1.3 3-3 3h-.1v2.8h.1c3.2 0 5.7-2.6 5.7-5.7h-2.7z" style="fill:#00756f"/> <path d="M8.9 23.1v-2.8c-3.1 0-5.7 2.6-5.7 5.7H6c0-1.6 1.3-2.9 2.9-2.9" style="fill:#c72127"/> <path d="M6 26H3.2c0 3.1 2.5 5.7 5.7 5.7V29C7.3 29 6 27.7 6 26" style="fill:#ce6a28"/> </g> <g> <path fill="#404041" d="M20.3 19.5c0-1.1 1.7-1.1 1.7 0V33c0 1-1.7 1.1-1.7 0V19.5zM27.1 27.1h4.6c3 0 4.2-1.4 4.2-3.1 0-1.9-1.6-3.3-4.2-3.3h-4.6v6.4zm0 1.5V33c0 1-1.6 1-1.6 0V20c0-.5.3-.8.8-.8h5.4c3.9 0 5.9 2.2 5.9 4.9 0 2.3-1.2 3.9-4 4.4l3.7 4c.9.9-.4 1.9-1.1 1.1l-4.6-4.9h-4.5zM40.6 19.5c0-1.1 1.7-1.1 1.7 0V33c0 1-1.7 1.1-1.7 0V19.5zM46.2 30c.6 1.9 3.1 2.3 4.9 2.3 1.9 0 4.9-.6 4.9-2.9 0-2-2.4-2.1-4.9-2.3-3.1-.2-6.5-.5-6.5-3.9 0-3 3.4-4.3 6.2-4.3 2.4 0 5.3.6 6.3 3.1.3.9-1.2 1.3-1.5.5-.7-1.7-3.1-2-4.7-2-1.5 0-4.4.6-4.4 2.7 0 2 2.3 2.2 4.9 2.4 3.1.3 6.4.4 6.4 3.8 0 3.5-3.9 4.5-6.6 4.5-2.3 0-5.8-.8-6.6-3.5-.4-1 1.4-1.3 1.6-.4"/> </g></g></svg>