<svg
    xmlns="http://www.w3.org/2000/svg" width="38" height="24" role="img" viewBox="0 0 38 24" aria-labelledby="pi-itau">
    <title id="pi-itau">Itau</title>
    <path d="M35 0H3C1.3 0 0 1.3 0 3v18c0 1.7 1.4 3 3 3h32c1.7 0 3-1.3 3-3V3c0-1.7-1.4-3-3-3z" opacity=".07"/>
    <path d="M35 1c1.1 0 2 .9 2 2v18c0 1.1-.9 2-2 2H3c-1.1 0-2-.9-2-2V3c0-1.1.9-2 2-2h32" fill="#fff"/>
    <path fill="#2f2c7c" fill-rule="evenodd" clip-rule="evenodd" d="M15.2 6h7.6C24 6.1 25 7 25 8.2v7.6c0 1.2-1 2.2-2.2 2.2h-7.6C14 18 13 17 13 15.8V8.2C13.1 7 14 6 15.2 6z"/>
    <path fill="#ffea0f" fill-rule="evenodd" clip-rule="evenodd" d="M23.3 11.5h-.9l-.4.7h.6l.7-.7zm.6 1.1H23v1.8c0 .6-.4.7-.6.7-.3 0-.6-.1-.5-.6v-1.9H21v2.1c0 .8.5 1.2 1.1 1.2.4 0 .8-.2 1-.5v.4h.8v-3.2zM20.3 13.4c0-.8-.8-.9-1.3-.9-.7 0-1.3.1-1.4 1.1h.8c0-.2.1-.4.5-.4.2 0 .6 0 .6.4 0 .2-.2.2-.3.2l-.8.1c-.5.1-.9.4-.9 1s.5.9 1 .9c.6 0 .8-.3 1-.5 0 .2 0 .2.1.4h.7v-2.3zM16.7 11.5h-.8v1.1h-.4v.6h.4v1.9c0 .4.1.7.9.7h.5v-.6h-.2c-.3 0-.4-.1-.4-.3v-1.7h.5v-.6h-.5v-1.1zM15.1 11.5h-.9v4.2h.9v-4.2z"/>
    <path fill="#2f2c7c" fill-rule="evenodd" clip-rule="evenodd" d="M19.5 14.6v-.4c-.1.1-.2.1-.6.2-.3.1-.6.1-.6.5 0 .3.2.4.4.4.4-.1.8-.3.8-.7z"/>
</svg>