<svg xmlns="http://www.w3.org/2000/svg" xmlns:xlink="http://www.w3.org/1999/xlink" x="0px" y="0px"
	 role="img" viewBox="0 0 38 24" width="38" height="24" aria-labelledby="pi-itau" style="enable-background:new 0 0 38 24;" xml:space="preserve">
<title id="pi-itau">Itau</title>
<style type="text/css">
	.st0{opacity:7.000000e-02;enable-background:new    ;}
	.st1{fill:#FFFFFF;}
	.st2{fill-rule:evenodd;clip-rule:evenodd;fill:#2F2C7C;}
	.st3{fill-rule:evenodd;clip-rule:evenodd;fill:#FFEA0F;}
</style>
<path class="st0" d="M35,0H3C1.3,0,0,1.3,0,3v18c0,1.7,1.4,3,3,3h32c1.7,0,3-1.3,3-3V3C38,1.3,36.6,0,35,0z"/>
<path class="st1" d="M35,1c1.1,0,2,0.9,2,2v18c0,1.1-0.9,2-2,2H3c-1.1,0-2-0.9-2-2V3c0-1.1,0.9-2,2-2H35"/>
<g>
	<path class="st2" d="M15.2,6l7.6,0C24,6.1,25,7,25,8.2v7.6c0,1.2-1,2.2-2.2,2.2l-7.6,0c-1.2,0-2.2-1-2.2-2.2l0-7.6
		C13.1,7,14,6,15.2,6L15.2,6z"/>
	<path class="st3" d="M23.3,11.5h-0.9l-0.4,0.7h0.6L23.3,11.5L23.3,11.5z M23.9,12.6H23v1.8c0,0.6-0.4,0.7-0.6,0.7
		c-0.3,0-0.6-0.1-0.5-0.6v-1.9H21l0,2.1c0,0.8,0.5,1.2,1.1,1.2c0.4,0,0.8-0.2,1-0.5h0v0.4h0.8V12.6L23.9,12.6z"/>
	<path class="st3" d="M20.3,13.4c0-0.8-0.8-0.9-1.3-0.9c-0.7,0-1.3,0.1-1.4,1.1h0.8c0-0.2,0.1-0.4,0.5-0.4c0.2,0,0.6,0,0.6,0.4
		c0,0.2-0.2,0.2-0.3,0.2l-0.8,0.1c-0.5,0.1-0.9,0.4-0.9,1c0,0.6,0.5,0.9,1,0.9c0.6,0,0.8-0.3,1-0.5c0,0.2,0,0.2,0.1,0.4l0.7,0
		c0-0.3,0-0.6,0-0.6V13.4L20.3,13.4z"/>
	<path class="st3" d="M16.7,11.5h-0.8v1.1h-0.4v0.6h0.4v1.9c0,0.4,0.1,0.7,0.9,0.7h0.1c0.1,0,0.3,0,0.4,0v-0.6c-0.1,0-0.1,0-0.2,0
		c-0.3,0-0.4-0.1-0.4-0.3l0-1.7h0.5v-0.6h-0.5V11.5L16.7,11.5z"/>
	<polygon class="st3" points="15.1,11.5 14.2,11.5 14.2,15.7 15.1,15.7 15.1,11.5 	"/>
	<path class="st2" d="M19.5,14.6v-0.4c-0.1,0.1-0.2,0.1-0.6,0.2c-0.3,0.1-0.6,0.1-0.6,0.5c0,0.3,0.2,0.4,0.4,0.4
		C19.1,15.2,19.5,15,19.5,14.6L19.5,14.6z"/>
</g>
</svg>
