<svg viewBox="0 0 38 24" xmlns="http://www.w3.org/2000/svg" role="img" width="38" height="24" aria-labelledby="pi-jko">
<title id="pi-jko">Jko</title>
<path opacity=".07" d="M35 0H3C1.3 0 0 1.3 0 3v18c0 1.7 1.4 3 3 3h32c1.7 0 3-1.3 3-3V3c0-1.7-1.4-3-3-3z"/>
<path fill="#fff" d="M35 1c1.1 0 2 .9 2 2v18c0 1.1-.9 2-2 2H3c-1.1 0-2-.9-2-2V3c0-1.1.9-2 2-2h32"/>
<path opacity=".07" d="M35.032-.015h-32c-1.7 0-3 1.3-3 3v18c0 1.7 1.4 3 3 3h32c1.7 0 3-1.3 3-3v-18c0-1.7-1.4-3-3-3z"/>
<path d="M35 1c1.1 0 2 .9 2 2v18c0 1.1-.9 2-2 2H3c-1.1 0-2-.9-2-2V3c0-1.1.9-2 2-2h32z" style="fill:#e01724" transform="translate(.032 -.015)"/>

<path fill="#FFF3F4" d="M18.99 6.704c0-.218-.003-.384.003-.549.016-.479.287-.686.788-.688.49 0 .775.182.801.671.026.436-.096 1.012.149 1.267.233.241.857.143 1.309.196.437.051.578.326.586.697.009.387-.099.713-.563.774-.287.039-.585.03-.877.013-.578-.037-.606.305-.61.715-.003.41.085.666.606.661 1.99-.013 3.979-.008 5.969-.002.717.002.93.224.897.855-.02.431-.26.643-.695.659-.428.016-.86.031-1.289 0-.536-.039-.721.166-.715.669.022 1.807.013 3.612.005 5.419-.001.578-.212.745-.822.745-.549 0-.759-.264-.756-.761.01-1.752.002-3.503.002-5.253 0-.809 0-.81-.834-.811-.604-.002-1.209.016-1.814-.005-.517-.018-.549.276-.551.645-.003.377.062.667.56.647.233-.01.468-.001.702 0 .527.003.791.249.786.752-.005.514-.224.733-.779.754a9.156 9.156 0 0 1-.703.002c-.395-.016-.563.157-.566.529-.004.569.188.704.742.487.125-.049.251-.102.372-.163.395-.2.778-.299 1.069.141.309.465.232.894-.23 1.204-1.594 1.068-3.42 1.487-5.326 1.636-.61.046-.849-.224-.918-.84-.06-.509.275-.679.717-.766.517-.098 1.042-.17 1.542-.32.181-.055.302-.301.437-.467.03-.035.006-.108.006-.163-.012-1.369.174-1.299-1.282-1.276-.539.007-.791-.239-.798-.738-.005-.52.201-.737.761-.769.173-.011.349-.003.525-.004.74-.005 1.017-.357.763-1.016-.046-.117-.239-.23-.38-.255-.248-.043-.507-.013-.76-.017-.661-.01-.899-.205-.905-.746-.008-.573.226-.768.93-.777h.294c.809-.002 1.08-.335.823-1.067-.046-.128-.263-.256-.421-.286-.263-.047-.543-.01-.816-.016-.6-.014-.818-.224-.813-.769.007-.509.229-.71.798-.724.136-.002.274 0 .409 0 .865-.002.865-.002.872-.89z" transform="translate(.032 -.015)"/>
<path fill="#FFF2F4" d="M13.945 17.737v-4.615c-.288.131-.472.213-.655.299-.659.308-1.255.09-1.449-.586-.05-.174.069-.508.225-.599a12.134 12.134 0 0 0 3.477-3.075c.098-.125.534-.17.684-.074.377.238.827.549.544 1.074-.253.472-.622.887-.898 1.349-.153.257-.311.556-.314.837-.029 1.879-.01 3.757-.018 5.635-.004.689-.408.977-1.105.802-.574-.144-.47-.599-.491-1.047z" transform="translate(.032 -.015)"/>
<path fill="#FFF3F4" d="M14.112 7.215c.431-.476.839-.922 1.23-1.377.236-.273.424-.612.891-.353.51.28.761.774.506 1.188-.32.52-.649 1.071-1.112 1.469-.71.613-1.511 1.145-2.324 1.638-.535.325-1.334-.118-1.357-.724-.006-.184.192-.424.366-.556.572-.439 1.178-.842 1.8-1.285z" transform="translate(.032 -.015)"/>
<path fill="#FEEFF1" d="M25.911 6.268c-.031.487.015.966-.146 1.373-.313.799-.743 1.556-1.124 2.331l-.159.004c-.434-.949-.923-1.882-1.284-2.856-.246-.662.202-1.382.852-1.63.714-.27 1.377-.006 1.861.778m-1.863.424c.044.502.322.77.679.601.169-.08.356-.319.354-.484-.004-.169-.219-.465-.354-.473-.213-.011-.436.175-.679.356z" transform="translate(.032 -.015)"/>

<path fill="red" opacity=".957" d="M9.845 7.586c.261.442.079 2.089.063 2.98-.011.624-.008 1.387-.07 1.833l-.031.411c-.038.492-.219 1.197-.359 1.862.038.022.07.046.092.071.103.12.054.25.064.507.017.468-.107 1.612-.064 2.282.029.445.191.954.243 1.285.079.241.051.635.011.839-.036.181-.099.331-.222.412a.6.6 0 0 1-.228.076c.126.518.412 1.117.475 1.509.213.078.459.144.733.198.024-.08.063-.127.148-.185.149-.103.328-.18.761-.254.906-.154 3.79-.273 5.071-.317.899-.03 1.685-.107 2.092 0 .23.061.335.166.412.285.07.108.088.261.064.381a.276.276 0 0 0-.006.04c1.27-.099 2.397-.197 3.182-.237 1.948-.1 2.9-.455 4.247-.57 1.084-.093 2.548.2 3.29.004.003-1.642.079-6.746.317-7.605a.806.806 0 0 1 .022-.069c-.195-1.735-.43-3.612-.491-4.723-.066-1.198-.017-1.958 0-2.663.012-.524.082-.804.063-1.268-.022-.528.073-1.431-.222-1.743-.265-.28-.506-.159-1.331-.19-2.073-.078-10.257.488-13.439.38-2.071-.07-3.729-.482-4.564-.507-.401-.012-.596-.073-.729.064-.138.141-.075.37-.064.792.02.755.474 3.141.465 4.111a.04.04 0 0 0 .005.009zm.006-6.053c.55-.018 1.283-.013 1.902.063.606.074.967.298 1.775.38.13.013.267.025.411.035a1 1 0 0 1 .001-.079c.005-.091.017-.164.063-.222.047-.06.044-.094.222-.127.598-.11 4.376-.12 5.325 0 .451.058.645.108.792.254.04.039.07.088.091.142 3.07-.151 7.448-.51 8.879-.32.756.101.965.074 1.236.507.414.662.228 2.7.254 3.836.022.971-.11 1.378-.064 2.599.04 1.054.241 2.833.427 4.607.081.162.087.408.075.729.134 1.323.245 2.585.259 3.475.024 1.575-.048 2.938-.253 3.677-.102.364-.029.526-.306.702a.62.62 0 0 1-.049.223.623.623 0 0 1-.286.286.499.499 0 0 1-.317.063c-.129-.021-.327-.08-.412-.222-.005-.009-.011-.018-.015-.028-2.32.396-7.641.539-9.424.529-1.134-.007-1.103-.199-2.218-.254a21.814 21.814 0 0 0-1.076-.018c-2.221.206-5.754.34-6.316.247-.188-.031-.176-.063-.213-.142-.965.002-1.719-.019-2.031-.087-.336-.072-.3 0-.412-.285-.329-.841-.429-5.479-.317-7.48.086-1.52.307-3.221.634-3.708.047-.07.1-.117.156-.148.009-.991.069-2.1.139-2.685a.322.322 0 0 1-.041-.052c-.157-.245.063-.813 0-1.204-.064-.391-.3-.637-.381-1.141-.115-.72-.154-2.203-.063-2.916.062-.494.094-.903.348-1.11.259-.21.745-.111 1.205-.126zm14.648 4.765a.615.615 0 0 1 .279.025c.08.029.156.084.21.146a.577.577 0 0 1 .114.228.36.36 0 0 1 0 .203 1.013 1.013 0 0 1-.222.362.438.438 0 0 1-.216.088.29.29 0 0 1-.165 0 .941.941 0 0 1-.323-.196c-.054-.058-.072-.126-.089-.19a.508.508 0 0 1-.013-.191.739.739 0 0 1 .077-.241.433.433 0 0 1 .133-.146.515.515 0 0 1 .215-.088zm1.802-.589a.413.413 0 0 1 .215 0c.084.023.199.09.26.146a.382.382 0 0 1 .102.152.578.578 0 0 1 .038.229.661.661 0 0 1-.076.241.418.418 0 0 1-.108.12.459.459 0 0 1-.152.089.469.469 0 0 1-.241.025.648.648 0 0 1-.324-.184.569.569 0 0 1-.114-.355.617.617 0 0 1 .159-.336.496.496 0 0 1 .241-.127z" style="fill:#e01724;fill-opacity:1;fill-rule:nonzero;stroke:none;stroke-dasharray:none;stroke-dashoffset:0;stroke-linecap:butt;stroke-linejoin:miter;stroke-miterlimit:4;stroke-opacity:1;stroke-width:1px;paint-order:normal;vector-effect:none;opacity:1;mix-blend-mode:normal;isolation:auto"/>
</svg>
