<?xml version="1.0" encoding="utf-8"?>
<!-- Generator: Adobe Illustrator 18.0.0, SVG Export Plug-In . SVG Version: 6.00 Build 0)  -->
<svg version="1.1" id="Layer_1" xmlns="http://www.w3.org/2000/svg" xmlns:xlink="http://www.w3.org/1999/xlink" x="0px" y="0px"
	 viewBox="0 0 6 3.7" enable-background="new 0 0 6 3.7" xml:space="preserve" width="38" height="24">
<rect x="0" y="-0.015" fill="#FFFFFF" width="6" height="3.73"/>
<g>
	<rect x="1.161" y="0" fill="#0B73BA" width="3.677" height="1.018"/>
	<polygon fill="#FAE816" points="2.654,1.813 2.654,2.39 1.832,2.39 1.832,1.31 2.654,1.31 2.654,1.775 3.247,1.31 4.345,1.31 
		3.728,1.791 4.392,2.39 3.211,2.39 	"/>
	<path fill="#0B73BA" d="M4.838,1.144H1.162v1.475h3.677V1.144z M2.654,1.813V2.39H1.832V1.31h0.822v0.465L3.247,1.31h1.098
		L3.728,1.791L4.392,2.39H3.211L2.654,1.813z"/>
	<rect x="1.161" y="2.746" fill="#0B73BA" width="3.677" height="0.954"/>
</g>
</svg>
