<svg xmlns="http://www.w3.org/2000/svg" width="38" height="24" fill="none" aria-labelledby="pi-kakao_pay" role="img" viewBox="0 0 38 24"><title id="pi-kakao_pay">Kakao Pay</title><path fill="#FFEB00" d="M0 0h38v24H0z"/><path fill="#1E1E1E" d="M9.274 8C6.637 8 4.5 9.68 4.5 11.764c0 1.344.894 2.52 2.238 3.189-.074.252-.47 1.623-.485 1.73 0 0 0 .082.042.11a.14.14 0 0 0 .113 0c.151-.02 1.74-1.137 2.018-1.332q.417.059.84.059c2.636 0 4.773-1.68 4.773-3.764C14.04 9.67 11.91 8 9.274 8m10.523.54a2.9 2.9 0 0 0-1.087.199 4 4 0 0 0-.584.296l-.096-.34h-1.05v8.498h1.356V14.94q.182.046.368.067.322.036.646.036a2.7 2.7 0 0 0 1.172-.25 2.5 2.5 0 0 0 .888-.705c.248-.318.436-.679.554-1.064.133-.436.198-.89.193-1.346 0-.945-.189-1.705-.558-2.261s-.995-.877-1.802-.877m.983 3.148c0 .708-.143 1.26-.42 1.642-.336.456-.869.62-1.698.512a2 2 0 0 1-.323-.067V10.1a2.4 2.4 0 0 1 .512-.23q.342-.116.703-.118a.99.99 0 0 1 .924.44q.301.493.302 1.489zm4.822-3.148c-.355.001-.708.05-1.05.146q-.527.147-1.001.42l-.157.088.436 1.03.198-.093q.364-.168.753-.265.391-.102.796-.105a1.03 1.03 0 0 1 .756.235c.157.156.237.441.237.84v.269h-.96c-.802 0-1.423.168-1.849.502a1.82 1.82 0 0 0-.665 1.524 1.87 1.87 0 0 0 .49 1.377 1.86 1.86 0 0 0 1.37.502 3 3 0 0 0 1.034-.21q.388-.143.73-.372l.085.485h1.077v-4.024c0-.796-.193-1.394-.573-1.776s-.955-.573-1.707-.573m-.48 5.302a.73.73 0 0 1-.546-.182.79.79 0 0 1-.181-.567.78.78 0 0 1 .283-.672q.314-.23 1.05-.23h.84v1.101a2 2 0 0 1-.246.179 2.7 2.7 0 0 1-.812.325 1.8 1.8 0 0 1-.389.046zm8.09-5.351-1.604 4.619-1.585-4.619-1.333.42 2.208 5.807a4.5 4.5 0 0 1-.564.883 5.8 5.8 0 0 1-.84.84l-.183.15.874.839.14-.097c.48-.331.894-.747 1.224-1.228a7.8 7.8 0 0 0 .882-1.755l2.089-5.47z"/></svg>