<svg xmlns="http://www.w3.org/2000/svg" width="38" height="24"><path opacity=".1" d="M35 0H3a3 3 0 0 0-3 3v18a3 3 0 0 0 3 3h32a3 3 0 0 0 3-3V3a3 3 0 0 0-3-3z"/><path fill="#FFF" d="M35 1a2 2 0 0 1 2 2v18a2 2 0 0 1-2 2H3a2 2 0 0 1-2-2V3c0-1.1.9-2 2-2h32"/><path fill="#FFF" d="M35.6 12a3.9 3.9 0 1 1-7.8 0 3.9 3.9 0 0 1 7.8 0"/><path fill="#98867D" d="M33.7 14L33 14l-.6.1-.7.2-.7-.1-.7-.2-.6.1-.7.2v.1c.3 0 .5 0 .7-.2l.6-.1c.3 0 .5 0 .7.2l.7.1c.3 0 .5 0 .7-.2l.6-.1c.3 0 .5 0 .6.2l.8.2v-.2c-.3 0-.5 0-.7-.2"/><path fill="#98867D" d="M33 14l-.6.2-.7.2-.7-.1-.7-.2-.6.1-.6.2v.1c.3 0 .5 0 .6-.2l.6-.1c.3 0 .5 0 .7.2l.7.2.7-.2.6-.2c.3 0 .5 0 .7.2l.5.1-.5-.2-.7-.2"/><path fill="#98867D" d="M33 14.3l-.6.1-.7.2-.7-.1-.7-.2-.6.1-.4.2h.4l.6-.2c.3 0 .5 0 .7.2l.7.1c.3 0 .5 0 .7-.2l.6-.1.6.1.4.2h.1l-.4-.2-.7-.2"/><path fill="#98867D" d="M33 14.5l-.6.1-.7.2-.7-.1-.7-.2-.6.1-.3.1.1.1h.2l.6-.2c.3 0 .5 0 .7.2l.7.1c.3 0 .5 0 .7-.2l.6-.1.7.1.1.1h.1l-.2-.2-.7-.1"/><path fill="#98867D" d="M33 14.7l-.6.1-.7.2-.7-.1-.7-.2-.6.1v.1l.6-.1c.3 0 .5 0 .7.2l.7.1c.3 0 .5 0 .7-.2l.6-.1.6.1h.1l-.7-.2"/><path fill="#98867D" d="M32.4 15l-.7.2-.7-.1-.7-.2h-.5l.1.2.4-.1c.3 0 .5 0 .7.2l.7.1c.3 0 .5 0 .7-.2l.6-.1h.5l-.5-.1-.6.1"/><path fill="#E82630" d="M31.7 7.8a4.2 4.2 0 1 0 0 8.4 4.2 4.2 0 0 0 0-8.4m0 7.7a3.5 3.5 0 1 1 0-7 3.5 3.5 0 0 1 0 7"/><path fill="#11A84D" d="M33.7 11l-.3.3-1.4 1-.1.5V14h.2v-.4s0-.3.2-.4l1-.8c.3-.2.4-.5.4-.7v-.9"/><path fill="#11A84D" d="M32 12.2c0-.2 1.1-.9 1.3-1 .2-.1.4-.3.4-.6V9.2c0 .2-.2.3-.3.5-.2.2-1 .6-1.3 1-.4.2-.5.4-.5.8V14h.2v-1.4l.1-.5M31 10.7l-1-1c-.2 0-.3-.3-.3-.5v1.3c0 .2 0 .5.4.8l1 .7.2.8V14h.2v-2.6c0-.4-.1-.6-.5-.8"/><path fill="#E82630" d="M2.1 12v.4h23.4V12H2.1z"/><path fill="#98867D" d="M23.3 13.2h-.4v.1h.4v-.1M25.4 13.1h-.6v.2h.6v-.2M19 13.3h-.4v.2h.4l.2-.1.1-.1h-.2M16.7 13.2v.2h1.1v-.2M23.5 13.8h-.1v.6H23.7h-.1V13.7M23 13.5V14.4h.3v-.1H23V13.4"/><path fill="#98867D" d="M23.9 13.1h-.5v.8h.4l.1-.2v-.6zm-.1.2v.3l-.1.1h-.2v-.4"/><path fill="#98867D" d="M23.8 13.4h-.4v.2h.5v-.2M23.7 13.9v.4l.2.2h.1v-.2h-.1l-.2-.4M22.8 13.4v.2h.5v-.2h-.5M23.3 13.7h-.6v.2h.6v-.2"/><path fill="#98867D" d="M23.9 13.9v.1h-.1v.2h.2v-.3H24M23 13.1l-.2.3v.2l.3-.5M24.6 13.1h-.1l-.1.3v.2h.1l.2-.5"/><path fill="#98867D" d="M24.6 13.5l-.1.2h-.1v.2h.2l.1-.4h-.1"/><path fill="#98867D" d="M24.6 13.8h-.2v.7h.2v-.7M25.3 13.6h-.1v.6h-.4v.3h.4s.2 0 .2-.2v-.7"/><path fill="#98867D" d="M25.4 13.5h-.6v.2h.6v-.2M18.8 13.1h-.1v.7h.2V13"/><path fill="#98867D" d="M19 13.6h-.3v.2h.3c.2 0 .2 0 .2-.2h.1-.2M18.5 13.1h-.1l-.1.2v.1H18v.2h.1l.2-.1.2-.4"/><path fill="#98867D" d="M18.4 13.4h-.2v.4h.2v-.4M18.8 13.8h-.1v.7h.2v-.7"/><path fill="#98867D" d="M19.3 14h-1.1v.2h1.1V14M17.8 13.6h-1.1v.2h1.1v-.2M17.7 13.4h-1v.1h1"/><path fill="#98867D" d="M17.3 13.1h-.1v.6h.1v-.6M17.3 13.8h-.1v.5H17v.2h.1l.1-.2v-.5"/><path fill="#98867D" d="M16.8 14.4v-.1H17.2 17l-.2.1h-.1M17 13.7v.1l-.2.1v-.1h.1M17.6 13.7v.1h.2v.1h-.1-.2l-.1-.2h.1M16.7 14h.4v.2H17c-.2 0-.2 0-.3-.2M17.6 14.2v.1h.2v.2l-.3-.1v-.1h.1M17.7 14h.1l-.2.2h-.1V14h.2M22.3 13.8h-1v.2h1v-.2"/><path fill="#98867D" d="M21.4 13.6h-.1V14.4h.5v-.1h-.3v-.7"/><path fill="#98867D" d="M22.3 13.1h-1v.6h1V13zm-.1.2v.1l-.1.1h-.6v-.2"/><path fill="#98867D" d="M22 13.6h-.2l.1.6v.1l.2.2h.2v-.2h-.1v-.1l-.2-.6M20.5 13.6h-.1l.2.6v.1l.1.2h.2v-.2h-.1v-.1l-.3-.6"/><path fill="#98867D" d="M20.8 13.8v.2h-.1v.2c.2 0 .2-.1.2-.2v-.2M20.1 13.8l-.1.4v.2h.4-.2v-.6"/><path fill="#98867D" d="M20.4 13.1h-.2l-.3.9h-.2v.2h.2l.2-.1.3-1"/><path fill="#98867D" d="M19.7 13.7h.2v-.2h.8v.1h.2v-.2l-.2-.1h-.9l-.1.2M3.2 13.1h-.4l-.3.6V13h-.3v1.4h.3v-.6l.4.6h.3l-.5-.8.5-.6M4.6 13.5c0 .2.1.3.3.4.1 0 .2 0 .2.2l-.1.2c-.2 0-.2-.1-.3-.2l-.2.1c.1.2.3.3.5.3s.4-.2.4-.5c0-.2-.2-.3-.3-.4l-.2-.1.1-.2.2.1.2-.1L5 13c-.2 0-.4.2-.4.4M6 13.1h-.4v1.4H6V13M7.2 13.1H7l-.4.6V13h-.3v1.4h.3v-.6l.4.6h.4l-.6-.8.5-.6M10 13.1h-.2v1.4h.3v-1l.6 1h.2V13h-.2v.9l-.7-.9M13.7 13.1h-.2v1.4h.3v-1l.7 1h.2V13h-.3v.9l-.7-.9M16 13.1h-.3l-.4.6V13H15v1.4h.3v-.6l.4.6h.3l-.5-.8.5-.6M4 13.1h-.2l-.6 1.4h.3l.1-.3h.5v.3h.4L4 13zm-.1.4l.1.5h-.3l.2-.5"/><path fill="#98867D" d="M7.2 13.8c0 .2 0 .4.2.5l.4.2c.4 0 .7-.3.7-.7 0-.2 0-.4-.2-.5a.6.6 0 0 0-.5-.2c-.3 0-.6.3-.6.7m.4.3l-.1-.3c0-.2.1-.4.4-.4H8l.1.4c0 .2-.1.4-.3.4h-.3M8.7 13.1v1.4H9v-.6l.3.6h.3l-.4-.6c.2 0 .3-.2.3-.4v-.2L9 13h-.4zm.3.3h.2v.1c0 .2 0 .2-.2.2v-.3M11.2 13.1v1.4h.4c.3 0 .5-.2.5-.4V14l-.2-.3v-.2-.3h-.7zm.3.8h.3v.1c0 .2-.1.2-.3.2V14zm0-.5h.2v.1c0 .1 0 .2-.2.2v-.4M12.9 13.1h-.2l-.5 1.4h.3v-.3h.5l.1.3h.3l-.5-1.4zm-.1.4l.1.5h-.3l.2-.5M3.2 9.6c.4.2.5 0 .5 0v-.3s-.2.1-.4 0h-.7c-.3.2-.4.5-.4.5v.3h.3v.8h-.2v.3h1.2v-.9l-.1-.4c-.3-.2-.6-.2-.8-.2.1 0 .3-.2.6 0m0 .7v.4H2.9v-.7H3l.1.3M7.4 9.9c0-.5-.3-.7-.6-.7-.5 0-.7.4-.7.4l.3.2s.1-.2.4-.2H7v1.6h.4M11 9.9c0-.5-.4-.7-.7-.7-.4 0-.6.4-.6.4l.3.2s0-.2.3-.2h.2v1.6h.5M12.1 11c.2 0 .2-.3 0-.3s-.2.2 0 .2m-.5-1.1h.8l.2.4v.6c0 .2-.2.4-.5.4a.4.4 0 0 1-.4-.4c0-.2.2-.4.4-.4v-.2-.1h-1v-.3l.4-.5h1.1l.1.3h-.6c-.3 0-.5 0-.5.2M19.7 11v-.3c-.2 0-.2.2 0 .2M19 9.8H20v1c0 .2-.1.4-.4.4a.4.4 0 0 1-.4-.4c0-.2.2-.4.4-.4h.1v-.2l-.1-.1h-1v-.3l.5-.5h1l.2.3h-.6c-.4 0-.6 0-.6.2M13.8 9.2c-.5 0-.8.4-.8.4v.3h.3l-.2.4v.9h.4v-.8-.2l.2-.1v-.3h-.2l-.1-.1.4-.1s.4 0 .4.4v1.2h.4V10c0-.4-.3-.7-.8-.7M15.5 11v-.3c-.2 0-.2.2 0 .2m1-1.4h-.1l.1.4v1.3h-.4v-.6s-.2-.4-.5-.4c-.1 0-.2 0-.2.2.3 0 .5.1.5.4 0 .2-.2.4-.4.4a.4.4 0 0 1-.5-.4v-.5c0-.2.2-.5.6-.5.3 0 .5.2.5.3V10c0-.4-.3-.4-.4-.4-.4 0-.5.2-.5.2h-.4v-.1s.3-.5.9-.5h.4c.2 0 .2-.2.2-.2h.4s0 .3-.2.5M16.6 8.6s-.1-.6-.8-.6c-.7 0-.9.6-.9.6V9H16.6v-.3zm-.4 0l-.5-.1h-.4s.2-.2.5-.2c.2 0 .4.2.4.3M17.6 9.2c-.5 0-.8.4-.8.4v.3h.3l-.1.4v.9h.4v-.8-.2l.2-.1v-.3h-.2l-.1-.1.3-.1s.5 0 .5.4v1.2h.4V10c0-.4-.3-.7-.9-.7M22 9.5c-.2 0-.2.3 0 .3s.2-.3 0-.3m1.5.2v1.5H23V9.6l-.7 1v.6h-.3v-1.1H22a.4.4 0 0 1-.5-.4c0-.3.2-.5.5-.5.2 0 .4.2.4.5v.3l.5-.7h.5v.4M24.3 9.5v.3c.1 0 .2-.3 0-.3m1.2-.2v1.5c0 .1 0 .2-.2.3l-.2.1H24l-.1-.4v-.1l.2-.4c-.1 0-.3-.1-.3-.5s.3-.6.5-.6c.3 0 .5.2.5.5 0 .2-.2.4-.5.4l.2.1h.2v.3h-.1c-.2 0-.4 0-.4.2 0 .1 0 .2.2.2h.6V9.2M5.8 10.6c-.2 0-.2.3 0 .3s.2-.3 0-.3m.5.2s0 .2-.2.3l-.3.1c-.2 0-.4 0-.4-.4v-.1l-.3.1-.3.3v.1h-.4v-1.1a.4.4 0 0 1-.5-.4c0-.3.2-.5.5-.5.2 0 .4.2.4.5v1l.3-.3.3-.1v-1h.3v1c.1 0 .5 0 .6.5m-2-1.3v.3c.2 0 .2-.3 0-.3M8.6 10c-.2 0-.2.3 0 .3s.2-.3 0-.3m.9 0v1.2H9V10c0-.3-.2-.5-.5-.5-.4 0-.5.2-.5.5V10.2c.1-.3.3-.4.5-.4s.4.1.4.4c0 .3-.2.4-.4.4h-.2V11.1h-.5v-.1-.5l-.2-.6c0-.5.5-.8.9-.8.2 0 .5.1.6.3.2.1.3.3.3.6M21.1 11c.2 0 .2-.3 0-.3s-.2.2 0 .2m.5-.1c0 .2-.2.4-.5.4a.4.4 0 0 1-.4-.4V8.5l-.3.5h-.2l-.2-.7v-.1h-.1v-.4h.2l.1.1.2.5.3-.6h.4v2.6c.3 0 .5.2.5.4"/></svg>