<svg version="1.1" xmlns="http://www.w3.org/2000/svg" x="0" y="0" viewBox="0 0 42 28" xml:space="preserve" aria-labelledby="pi-{dbpaymenticons}"><style type="text/css">.st1{fill:#57bbb1}.st2{fill:#fff}</style><title id="pi-{dbpaymenticons}">{dbpaymenticons}</title><g id="Layer_2"><path d="M36.6 26H5.4C3.5 26 2 24.5 2 22.6V5.4C2 3.5 3.5 2 5.4 2h31.1c2 0 3.5 1.5 3.5 3.4v17.1c0 2-1.5 3.5-3.4 3.5z" opacity=".2" fill="none" stroke="#000" stroke-width=".4" stroke-linecap="round" stroke-linejoin="round" stroke-miterlimit="10"/><path class="st1" d="M14.2 12v.3c-.3-.2-.7-.3-1.1-.3-1.3 0-2.3 1-2.3 2.3 0 1.3 1 2.3 2.3 2.3.4 0 .8-.1 1.1-.3v.3h1.4V12h-1.4zm-1.1 3.4c-.6 0-1.1-.5-1.1-1.1 0-.6.5-1.1 1.1-1.1.6 0 1.1.5 1.1 1.1 0 .6-.5 1.1-1.1 1.1zM19.9 15c0 .1 0 1.6-1.7 1.6S16.4 15 16.4 15h1.3s0 .5.4.5.5-.4.5-.4.2-.7-.8-.6c0 0-.9 0-1.3-.6-.2-.3-.1-.6-.1-.6 0-.1 0-1.6 1.7-1.6s1.7 1.6 1.7 1.6h-1.3s0-.5-.4-.5-.5.4-.5.4-.2.7.8.6c0 0 .9 0 1.3.6.2.3.2.6.2.6zM28.6 15c0 .1 0 1.6-1.7 1.6S25.2 15 25.2 15h1.3s0 .5.4.5.5-.4.5-.4.2-.7-.8-.6c0 0-.9 0-1.3-.6-.1-.3-.1-.6-.1-.6 0-.1 0-1.6 1.7-1.6s1.7 1.6 1.7 1.6h-1.3s0-.5-.4-.5-.5.4-.5.4-.2.7.8.6c0 0 .9 0 1.3.6.1.3.1.6.1.6zM24.1 14.4c.1.3.1.6.1.6 0 .1 0 1.4-1.3 1.6v.8h-.8v-.8c-1.3-.3-1.3-1.6-1.3-1.6h1.3s0 .5.4.5.5-.4.5-.4.2-.7-.8-.6c0 0-.9 0-1.3-.6-.2-.3-.1-.6-.1-.6 0-.1 0-1.4 1.3-1.6v-1h.8v1c1.3.3 1.3 1.6 1.3 1.6h-1.3s0-.5-.4-.5-.5.4-.5.4-.2.7.8.6c0 0 1 0 1.3.6zM33.4 13.5v3.2h-1.3V14c0-.4-.3-.8-.7-.8s-.7.3-.7.8v2.6h-1.3v-6h1.3v2c.2-.4.7-.5 1.3-.5.7 0 1.4.7 1.4 1.4zM35.5 15.8c0 .3-.3.6-.6.6s-.6-.3-.6-.6.3-.6.6-.6.6.3.6.6zM8.8 14l1.8 2.6H9.2l-1.4-2.2v2.2H6.5v-6h1.3v3.1L9.1 12h1.6z"/><path class="st2" d="M36.5 2.2h-31c-1.8 0-3.3 1.5-3.3 3.3v17.1c0 1.8 1.5 3.3 3.3 3.3h31.1c1.8 0 3.3-1.5 3.3-3.3V5.5c-.1-1.8-1.6-3.3-3.4-3.3zM10.6 16.6H9.2l-1.4-2.3v2.3H6.5v-6h1.3v3.1L9.1 12h1.6l-1.9 2 1.8 2.6zm5 0h-1.4v-.3c-.3.2-.7.3-1.1.3-1.3 0-2.3-1.1-2.3-2.3 0-1.3 1-2.3 2.3-2.3.4 0 .8.1 1.1.3V12h1.4v4.6zm4.3-1.6c0 .1 0 1.6-1.7 1.6S16.4 15 16.4 15h1.3s0 .5.4.5.5-.4.5-.4.2-.7-.8-.6c0 0-.9 0-1.3-.6-.2-.3-.1-.6-.1-.6 0-.1 0-1.6 1.7-1.6s1.7 1.6 1.7 1.6h-1.3s0-.5-.4-.5-.5.4-.5.4-.2.7.8.6c0 0 .9 0 1.3.6.2.3.2.6.2.6zm2.9-1.2s.9 0 1.3.6c.1.3.1.6.1.6 0 .1 0 1.4-1.3 1.6v.8h-.8v-.8c-1.3-.3-1.3-1.6-1.3-1.6h1.3s0 .5.4.5.5-.4.5-.4.2-.7-.8-.6c0 0-.9 0-1.3-.6-.2-.3-.1-.6-.1-.6 0-.1 0-1.4 1.3-1.6v-1h.8v1c1.3.3 1.3 1.6 1.3 1.6h-1.3s0-.5-.4-.5-.5.4-.5.4-.1.7.8.6zm5.8 1.2c0 .1 0 1.6-1.7 1.6S25.2 15 25.2 15h1.3s0 .5.4.5.5-.4.5-.4.2-.7-.8-.6c0 0-.9 0-1.3-.6-.1-.3-.1-.6-.1-.6 0-.1 0-1.6 1.7-1.6s1.7 1.6 1.7 1.6h-1.3s0-.5-.4-.5-.5.4-.5.4-.2.7.8.6c0 0 .9 0 1.3.6.1.3.1.6.1.6zm4.8 1.6h-1.3V14c0-.4-.3-.8-.7-.8s-.7.3-.7.8v2.6h-1.3v-6h1.3v2c.2-.4.7-.5 1.3-.5.8 0 1.4.7 1.4 1.4v3.1zm1.5-.1c-.3 0-.6-.3-.6-.6s.3-.6.6-.6.6.3.6.6-.3.6-.6.6z"/><path class="st2" d="M14.2 14.3c0 .6-.5 1.1-1.1 1.1-.6 0-1.1-.5-1.1-1.1 0-.6.5-1.1 1.1-1.1.6 0 1.1.5 1.1 1.1z"/></g></svg>