<svg xmlns="http://www.w3.org/2000/svg" width="38" height="24" fill="none" aria-labelledby="pi-katapult" role="img" viewBox="0 0 38 24"><title id="pi-katapult">Katapult</title><path fill="#fff" d="M0 0h38v24H0z"/><path fill="#ED5370" d="M33.079 12.924v-1.816h1.18v-.838h-1.18V9.082l-.964.277v.912h-.71v.837h.71v1.823c0 1.174.964 1.615 2.182 1.271v-.941c-.837.298-1.218.03-1.218-.337m-9.912-2.713c-.508 0-.904.187-1.188.486v-.426h-.972v3.137a1 1 0 0 1-.233.026c-.483 0-.781-.179-.784-.688v-2.475h-.971v.434a1.6 1.6 0 0 0-1.189-.5c-1.076 0-1.966.896-1.966 2.047 0 .295.064.577.177.832a.9.9 0 0 1-.296.214c-.128.058-.274.128-.44.128-.457.031-.67-.228-.67-.501v-1.817h1.182v-.837h-1.181V9.082l-.964.277v.912h-.71v.837h.71v1.824q0 .18.03.337a1.1 1.1 0 0 1-.584.165c-.483 0-.781-.18-.783-.688v-2.475h-.972v.433a1.6 1.6 0 0 0-1.189-.5c-1.076 0-1.965.896-1.965 2.048 0 1.106.89 2.04 1.965 2.04.501 0 .905-.194 1.189-.486 0 0 .13-.117.27-.27.303.472.77.78 1.389.78.42 0 .772-.138 1.042-.354.254.238.617.357 1.044.354q.268-.002.566-.068a2 2 0 0 0 .18-.067 2.2 2.2 0 0 0 .631-.453c.353.347.827.564 1.344.564.501 0 .905-.194 1.189-.486 0 0 .13-.117.27-.271.302.472.77.78 1.389.78q.166 0 .33-.03v1.516h.971v-2.01c.285.306.688.5 1.189.5.394 0 .778-.12 1.101-.346.24-.166.441-.387.59-.645.175-.304.275-.662.275-1.049 0-1.106-.889-2.04-1.966-2.04M11.31 12.746h-.002v.002a1.16 1.16 0 0 1-1.035.662c-.658 0-1.152-.53-1.152-1.159 0-.628.494-1.166 1.152-1.166.635 0 1.15.538 1.15 1.166a1.1 1.1 0 0 1-.113.495m7.656 0-.001.002a1.16 1.16 0 0 1-1.036.662c-.658 0-1.151-.53-1.151-1.159 0-.628.493-1.166 1.15-1.166.636 0 1.152.538 1.152 1.166 0 .176-.041.344-.114.495m5.156-.016a1.14 1.14 0 0 1-1.05.687c-.636 0-1.151-.538-1.151-1.166s.523-1.166 1.15-1.166c.658 0 1.151.538 1.151 1.166q-.001.256-.1.479m4.256-.42c0 .606-.388 1.084-.979 1.084-.47 0-.873-.359-.873-.934v-2.189h-.972v2.443c0 .994.792 1.584 1.651 1.584.53 0 .92-.231 1.173-.515v.448h.972v-3.96h-.972z"/><path fill="#ED5370" d="M8.514 9h-1.24l-2.257 2.579V9H4v5.232h1.017v-1.3l.687-.77 1.63 2.07h1.24l-2.212-2.817zm22.499 0h-.972v5.232h.972zm4.25 5.622c0 .186-.15.334-.34.334a.336.336 0 0 1-.343-.334c0-.187.153-.332.345-.332.188 0 .338.145.338.332m-.597 0c0 .147.11.265.259.265.144.002.253-.118.253-.263a.258.258 0 0 0-.356-.246.26.26 0 0 0-.156.244m.204.172h-.077v-.332q.045-.008.127-.01c.063 0 .091.01.114.026.02.014.035.039.035.071 0 .04-.031.067-.07.08v.003c.033.01.05.037.06.081.01.051.018.069.024.081h-.081q-.013-.019-.026-.08c-.006-.035-.026-.051-.069-.051h-.037zm.002-.186h.037c.042 0 .077-.015.077-.049 0-.03-.023-.05-.071-.05q-.022 0-.043.003z"/></svg>