<svg xmlns="http://www.w3.org/2000/svg" width="38" height="24" role="img" aria-labelledby="pi-klarna-slice-it"><title id="pi-klarna-slice-it">Klarna Slice It</title><g fill="none" fill-rule="evenodd"><path d="M3 0h32a3 3 0 0 1 3 3v18a3 3 0 0 1-3 3H3a3 3 0 0 1-3-3V3a3 3 0 0 1 3-3z" fill="#FA82A0"/><path d="M19.632 8.308c.303.74-.046 1.59-.78 1.895a1.426 1.426 0 0 1-1.103 0 1.453 1.453 0 0 1 0-2.68 1.425 1.425 0 0 1 1.102 0c.355.148.632.427.78.785zm-2.11-1.336a2.054 2.054 0 0 0 0 3.782 2.01 2.01 0 0 0 1.556.001 2.051 2.051 0 0 0 1.1-2.674 2.02 2.02 0 0 0-1.1-1.108 2 2 0 0 0-1.556 0zm4.84 4.974c.028.01.057.014.086.014a.297.297 0 0 0 .283-.21.298.298 0 0 0-.195-.374 1.941 1.941 0 0 1-1.26-1.23.295.295 0 0 0-.376-.186.299.299 0 0 0-.186.38c.26.767.876 1.368 1.647 1.606zm.272 2.336l-.016-.108a2.777 2.777 0 0 0-3.226-2.244 2.769 2.769 0 0 0-1.958 1.452l-3.645-.63c-.266-.445-.452-1.4.474-2.408C15.447 9.057 15.528 8.74 15.47 8.1a2.74 2.74 0 0 1-.02-.258c-.008-.267.028-.768.36-1.12.25-.26.622-.398 1.112-.406.69-.01 1.232-.63 1.668-1.126.082-.094.16-.183.234-.262l6.945 9.897-3.136-.543zm-4.577-.792a2.17 2.17 0 0 1 1.44-.973 2.184 2.184 0 0 1 2.516 1.658l-3.956-.685zm-6.235-1.08c.71-3.72 2.75-6.976 5.782-9.22l.873 1.243c-.107.107-.215.23-.33.36-.36.41-.807.92-1.234.927-.655.01-1.17.21-1.53.59-.358.378-.544.93-.525 1.55.004.114.013.21.02.295.038.4.055.584-1.05 1.784-.93 1.013-.948 2.02-.734 2.69l-1.272-.22zm14.844 2.66l-8.75-12.472a.296.296 0 0 0-.414-.07c-3.373 2.398-5.617 5.976-6.317 10.075a.298.298 0 0 0 .242.344l14.947 2.588a.294.294 0 0 0 .3-.136.298.298 0 0 0-.008-.33zm-9.73-3.808a2.52 2.52 0 0 0-2.204.643.3.3 0 0 0-.014.422c.06.062.137.094.216.094a.293.293 0 0 0 .203-.08c.45-.425 1.08-.61 1.686-.492.16.03.316-.074.347-.236a.3.3 0 0 0-.235-.35zm-3.862 9.935h.998V16.4h-.998v4.797zm6.318-2.774v-.43h-.933v3.204h.943v-1.68c0-.486.536-.7.905-.59h.01v-.933c-.386 0-.74.172-.926.43zm-3.21 2.032a.873.873 0 0 1-.885-.86c0-.474.397-.86.885-.86.49 0 .885.386.885.86 0 .475-.396.86-.885.86zm.876-2.24a1.624 1.624 0 0 0-.952-.31c-.91 0-1.65.757-1.65 1.69 0 .934.74 1.69 1.65 1.69.355 0 .683-.115.952-.31v.222h.815v-3.203h-.815v.222zm5.594-.307c-.374 0-.728.12-.965.447v-.36h-.932v3.202h.944v-1.752c0-.487.318-.725.7-.725.413 0 .65.25.65.718v1.76h.934V19.16c0-.745-.578-1.252-1.332-1.252zm6.075 2.153a.595.595 0 0 0-.588.603c0 .332.262.602.587.602.324 0 .587-.27.587-.602a.594.594 0 0 0-.587-.602zm-2.685.395a.872.872 0 0 1-.885-.86c0-.474.396-.86.885-.86.488 0 .885.386.885.86 0 .475-.397.86-.885.86zm.876-2.24a1.627 1.627 0 0 0-.953-.31c-.91 0-1.65.757-1.65 1.69 0 .934.74 1.69 1.65 1.69.355 0 .684-.115.953-.31v.222h.815v-3.203h-.815v.222zm1.407-.162h.055c.035 0 .05.02.05.05 0 .03-.01.054-.05.054h-.055v-.104zm0 .113h.046l.04.09h.045l-.042-.098c.027-.012.04-.037.04-.07 0-.045-.033-.075-.082-.075h-.086v.24h.042v-.087zm-19.64 3.03h1.04V16.4h-1.04v4.797zm3.71-4.796h-1.01a2.847 2.847 0 0 1-1.517 2.48l1.552 2.317h1.267l-1.41-2.107a3.863 3.863 0 0 0 1.118-2.69zm15.965 1.552c.1 0 .18.083.18.186 0 .102-.08.185-.18.185a.182.182 0 0 1-.178-.185c0-.103.08-.186.178-.186zm0 .415a.226.226 0 0 0 .222-.23c0-.126-.1-.23-.222-.23s-.22.104-.22.23c0 .127.098.23.22.23z" fill="#FFF"/></g></svg>