<svg width="38" height="24" viewBox="0 0 38 24" xmlns="http://www.w3.org/2000/svg"><title>icon-pay-later</title><g fill="none" fill-rule="evenodd"><path d="M3 .03h32c1.657 0 3 1.342 3 3V21c0 1.657-1.343 3-3 3H3c-1.657 0-3-1.343-3-3V3.03c0-1.658 1.343-3 3-3z" fill="#FA82A0"/><path d="M13.074 21.197h.998V16.4h-.998v4.797zm6.318-2.774v-.43h-.933v3.204h.943v-1.68c0-.486.536-.7.905-.59h.01v-.933c-.386 0-.74.172-.926.43zm-3.21 2.032c-.488 0-.885-.385-.885-.86 0-.474.397-.86.885-.86.49 0 .885.386.885.86 0 .475-.396.86-.885.86zm.876-2.24c-.27-.194-.597-.31-.952-.31-.91 0-1.65.757-1.65 1.69 0 .934.74 1.69 1.65 1.69.355 0 .683-.115.952-.31v.222h.815v-3.203h-.815v.222zm5.594-.307c-.374 0-.728.12-.965.447v-.36h-.932v3.202h.944v-1.752c0-.487.318-.725.7-.725.413 0 .65.25.65.718v1.76h.934V19.16c0-.745-.578-1.252-1.332-1.252zm6.075 2.153c-.325 0-.588.27-.588.603 0 .332.262.602.587.602.324 0 .587-.27.587-.602 0-.333-.263-.602-.587-.602zm-2.685.395c-.49 0-.885-.385-.885-.86 0-.474.396-.86.885-.86.488 0 .885.386.885.86 0 .475-.397.86-.885.86zm.876-2.24c-.27-.194-.598-.31-.953-.31-.91 0-1.65.757-1.65 1.69 0 .934.74 1.69 1.65 1.69.355 0 .684-.115.953-.31v.222h.815v-3.203h-.815v.222zm1.407-.162h.055c.035 0 .05.02.05.05 0 .03-.01.054-.05.054h-.055v-.104zm0 .113h.046l.04.09h.045l-.042-.098c.027-.012.04-.037.04-.07 0-.045-.033-.075-.082-.075h-.086v.24h.042v-.087zm-19.64 3.03h1.04V16.4h-1.04v4.797zm3.71-4.796h-1.01c-.02 1.083-.63 2.018-1.517 2.48l1.552 2.317h1.267l-1.41-2.107c.703-.707 1.104-1.66 1.118-2.69zm15.965 1.552c.1 0 .18.083.18.186 0 .102-.08.185-.18.185-.098 0-.178-.083-.178-.185 0-.103.08-.186.178-.186zm0 .415c.123 0 .222-.103.222-.23 0-.126-.1-.23-.222-.23s-.22.104-.22.23c0 .127.098.23.22.23zM25.725 5.593l1.528 2.716-.968-.038c-.107-.005-.21.05-.27.14-.056.09-.06.203-.01.297l1.084 1.988c-.246.068-.51.104-.796.104h-.201L24.15 7.7l1.095.04c.107.005.207-.047.265-.134.058-.09.065-.2.018-.294l-.864-1.714c.313-.007.665-.01 1.06-.005zm2.92.14h.01c.083.008.5.07.473.612v.017c0 .303-.014.605-.042.9v.032c0 .017.01 1.82-1.003 2.83-.133.13-.28.24-.437.335l-.857-1.573.976.037c.11.004.213-.05.27-.14.058-.093.06-.207.007-.3l-1.62-2.88c.74.02 1.61.06 2.222.13zm-5.942 2.69c-.04-.128-.082-.26-.127-.397-.58-1.784-.468-1.966-.238-2.116.17-.11.607-.233 1.663-.29l.76 1.507-1.155-.042c-.114-.004-.217.052-.273.147-.057.095-.055.212.003.306l2.03 3.235c-1.96-.142-2.18-.828-2.662-2.35zm1.51-3.408c-.028-.003-.056 0-.084.004-1.114.048-1.79.176-2.126.394-.683.444-.526 1.192-.005 2.794l.125.392c.614 1.937 1.02 2.797 4.136 2.797h.035c.902 0 1.65-.29 2.22-.858 1.15-1.145 1.177-3.026 1.176-3.24.03-.304.043-.617.043-.93.026-.46-.225-1.16-1.024-1.23-.78-.085-1.95-.128-2.776-.14h-.032c-.038 0-.076 0-.112-.002-.6-.006-1.124 0-1.577.017zm-8.247 3.01l-.126.398c-.332 1.044-.54 1.694-1.268 2.046l-.862-1.583.977.037c.11.004.213-.05.27-.14.057-.093.06-.207.007-.3L13.337 5.59c1.957.008 2.644.175 2.867.32.23.15.343.332-.238 2.116zm-2.963 2.76L11.07 7.7l1.095.04c.108.005.208-.047.266-.134.06-.09.066-.2.018-.294l-.85-1.69c.373-.014.736-.023 1.05-.027l1.526 2.714-.968-.038c-.108-.005-.21.05-.27.14-.057.09-.06.203-.01.297l1.064 1.953c-.274.06-.598.1-.987.12zm-.718.017h-.035c-.736 0-1.338-.23-1.792-.68-1.016-1.013-1-2.81-1-2.828V7.26c-.03-.293-.043-.595-.043-.898v-.02c-.027-.54.39-.6.474-.608h.008c.3-.034.662-.06 1.04-.082l.742 1.475-1.154-.042c-.113-.004-.217.052-.273.147-.057.095-.055.212.003.306l2.046 3.264h-.017zm4.254-5.388c-.48-.31-1.647-.44-3.787-.416-.445.005-1.014.02-1.574.046-.053-.01-.107-.01-.16.008-.43.022-.844.052-1.186.09-.8.067-1.05.767-1.024 1.228 0 .313.014.626.042.93 0 .214.026 2.095 1.175 3.24.57.568 1.32.857 2.222.857h.033c3.116 0 3.52-.86 4.135-2.797l.126-.392c.52-1.602.678-2.35-.005-2.794zm14.883-.425c-.123.235-.503 1.024-.542 1.777-.098 1.877-.302 5.78-4.516 5.78-4.115 0-4.527-1.277-5.098-3.046-.065-.2-.132-.41-.206-.62-.106-.303-.2-.585-.287-.845-.46-1.372-.737-2.2-1.502-2.2-.763 0-1.04.828-1.5 2.2-.087.26-.18.542-.287.844-.074.21-.142.42-.207.62-.57 1.77-.982 3.048-5.097 3.048-4.215 0-4.42-3.904-4.518-5.78-.04-.754-.42-1.543-.542-1.78v-.706c.78-.084 3.163-.316 5.727-.316 1.755 0 2.922.088 3.95.166.81.06 1.576.12 2.474.12.9 0 1.665-.06 2.475-.12 1.03-.078 2.196-.166 3.95-.166 2.566 0 4.95.232 5.728.316v.707zm.34-1.27c-.03-.002-2.914-.35-6.067-.35-1.778 0-2.957.09-3.997.17-.834.06-1.553.116-2.43.116-.874 0-1.593-.055-2.426-.117-1.04-.08-2.22-.17-3.997-.17-3.153 0-6.038.348-6.067.35-.152.02-.266.146-.266.297v1.045c0 .05.013.1.037.143.006.008.468.85.507 1.593.1 1.9.333 6.345 5.122 6.345 4.557 0 5.075-1.605 5.674-3.462.064-.198.13-.402.202-.607.107-.305.202-.59.29-.852.348-1.04.6-1.79.925-1.79.328 0 .58.75.927 1.79.088.263.183.548.29.853.072.205.138.41.202.608.598 1.858 1.116 3.463 5.674 3.463 4.79 0 5.022-4.446 5.122-6.345.04-.746.5-1.585.505-1.593.026-.044.04-.093.04-.143V4.017c0-.15-.115-.277-.267-.296z" fill="#FFF"/></g></svg>