<?xml version="1.0" encoding="UTF-8"?>
<svg width="38px" height="24px" viewBox="0 0 38 24" version="1.1" xmlns="http://www.w3.org/2000/svg" xmlns:xlink="http://www.w3.org/1999/xlink">
    <!-- Generator: Sketch 52.3 (67297) - http://www.bohemiancoding.com/sketch -->
    <title id="pi-klarna-pay-now">Klarna Pay Now</title>
    <desc>Created with Sketch.</desc>
    <defs>
        <rect id="path-1" x="0" y="0" width="38" height="24" rx="2"></rect>
    </defs>
    <g id="Shopify/stripe" stroke="none" stroke-width="1" fill="none" fill-rule="evenodd">
        <g id="Logo" transform="translate(-24.000000, -673.000000)">
            <g id="Badge-/-xx_xx-/-pay_now-/-shopify-/pink-38x24" transform="translate(24.000000, 673.000000)">
                <g id="BG-/-Radius-2">
                    <mask id="mask-2" fill="white">
                        <use xlink:href="#path-1"></use>
                    </mask>
                    <g id="BG"></g>
                    <g id="Color-/-Pink" mask="url(#mask-2)" fill="#EB6F93" fill-rule="evenodd">
                        <polygon id="BG" points="0 0 38 0 38 24 0 24"></polygon>
                    </g>
                </g>
                <g id="Logo-/-White-(Clean)-Copy" transform="translate(8.500000, 16.500000)" fill="#FFFFFF" fill-rule="nonzero">
                    <path d="M3.87064018,0 L2.78763797,0 C2.78763797,0.897058824 2.37969095,1.71568627 1.67064018,2.25490196 L1.24326711,2.57843137 L2.90419426,4.8627451 L4.26887417,4.8627451 L2.73907285,2.75980392 C3.46269316,2.03431373 3.87064018,1.05392157 3.87064018,0 Z" id="Shape"></path>
                    <rect id="Rectangle-path" x="0" y="0" width="1.10728477" height="4.8627451"></rect>
                    <rect id="Rectangle-path" x="4.58940397" y="0" width="1.04415011" height="4.8627451"></rect>
                    <path d="M14.792936,1.40686275 C14.394702,1.40686275 14.015894,1.52941176 13.7633554,1.87745098 L13.7633554,1.5 L12.7726269,1.5 L12.7726269,4.8627451 L13.7779249,4.8627451 L13.7779249,3.09803922 C13.7779249,2.58823529 14.1178808,2.33823529 14.5258278,2.33823529 C14.9629139,2.33823529 15.2154525,2.60294118 15.2154525,3.09313725 L15.2154525,4.86764706 L16.2110375,4.86764706 L16.2110375,2.7254902 C16.2110375,1.94117647 15.5942605,1.40686275 14.792936,1.40686275 Z" id="Shape"></path>
                    <path d="M8.79028698,1.5 L8.79028698,1.71568627 C8.50860927,1.51960784 8.16865342,1.40686275 7.7995585,1.40686275 C6.82825607,1.40686275 6.0415011,2.20098039 6.0415011,3.18137255 C6.0415011,4.16176471 6.82825607,4.95588235 7.7995585,4.95588235 C8.16865342,4.95588235 8.50860927,4.84313725 8.79028698,4.64705882 L8.79028698,4.8627451 L9.78587196,4.8627451 L9.78587196,1.5 L8.79028698,1.5 Z M7.88211921,4.04411765 C7.38189845,4.04411765 6.97880795,3.65686275 6.97880795,3.18137255 C6.97880795,2.70588235 7.38189845,2.31862745 7.88211921,2.31862745 C8.38233996,2.31862745 8.78543046,2.70588235 8.78543046,3.18137255 C8.78543046,3.65686275 8.38233996,4.04411765 7.88211921,4.04411765 Z" id="Shape"></path>
                    <path d="M11.3302428,1.93627451 L11.3302428,1.5 L10.3103753,1.5 L10.3103753,4.8627451 L11.3350993,4.8627451 L11.3350993,3.29411765 C11.3350993,2.76470588 11.9033113,2.48039216 12.2966887,2.48039216 C12.3015453,2.48039216 12.3064018,2.48039216 12.3064018,2.48039216 L12.3064018,1.5 C11.9033113,1.5 11.5293598,1.67647059 11.3302428,1.93627451 Z" id="Shape"></path>
                    <path d="M19.3094923,1.5 L19.3094923,1.71568627 C19.0278146,1.51960784 18.6878587,1.40686275 18.3187638,1.40686275 C17.3474614,1.40686275 16.5607064,2.20098039 16.5607064,3.18137255 C16.5607064,4.16176471 17.3474614,4.95588235 18.3187638,4.95588235 C18.6878587,4.95588235 19.0278146,4.84313725 19.3094923,4.64705882 L19.3094923,4.8627451 L20.3050773,4.8627451 L20.3050773,1.5 L19.3094923,1.5 Z M18.4013245,4.04411765 C17.9011038,4.04411765 17.4980132,3.65686275 17.4980132,3.18137255 C17.4980132,2.70588235 17.9011038,2.31862745 18.4013245,2.31862745 C18.9015453,2.31862745 19.3046358,2.70588235 19.3046358,3.18137255 C19.3094923,3.65686275 18.9015453,4.04411765 18.4013245,4.04411765 Z" id="Shape"></path>
                    <path d="M21.3686534,3.67156863 C21.0238411,3.67156863 20.7421634,3.95588235 20.7421634,4.30392157 C20.7421634,4.65196078 21.0238411,4.93627451 21.3686534,4.93627451 C21.7134658,4.93627451 21.9951435,4.65196078 21.9951435,4.30392157 C21.9951435,3.95098039 21.7134658,3.67156863 21.3686534,3.67156863 Z" id="Shape"></path>
                </g>
                <g id="Icons-/-Pay-now-/-White" transform="translate(14.500000, 1.875000)" fill="#FFFFFF" fill-rule="nonzero">
                    <path d="M3.20665175,9.19123884 C3.46079779,9.4388286 3.46622904,9.84274978 3.21883017,10.0969454 L3.16916589,10.1485504 C2.92157383,10.3993567 2.51211636,10.4055084 2.25459012,10.1599805 L0.814834152,8.74701384 C0.418465957,8.3528295 0.361538749,7.86708886 0.613795929,7.61044337 L0.664347623,7.55793103 C0.872246154,7.34599649 1.21113866,7.32363609 1.44756174,7.5079081 C1.55996298,7.59551547 1.72284025,7.5763535 1.81135829,7.46510865 C1.89987634,7.3538638 1.88051518,7.19266222 1.76811394,7.10505486 C1.32316864,6.75825722 0.685377152,6.80033921 0.290883041,7.20252373 L0.240517241,7.25484674 C-0.226759623,7.73023181 -0.132856111,8.53147875 0.448814804,9.10993312 L1.89246315,10.5266899 C2.35772413,10.9703112 3.09321689,10.9592611 3.54206221,10.5045353 L3.59299627,10.4516347 C4.03637375,9.99608232 4.0266178,9.27053418 3.57010501,8.82579819 C3.46814236,8.72646591 3.30412352,8.72774786 3.20375867,8.82866151 C3.10339383,8.92957516 3.1046891,9.09190656 3.20665175,9.19123884 Z" id="_Path_"></path>
                    <path d="M2.34493551,1.5311855 L2.93418849,6.33110902 C2.95144479,6.47167496 3.08056951,6.5717811 3.22259664,6.55470233 C3.36462376,6.53762357 3.4657705,6.40982729 3.44851421,6.26926135 L2.85743313,1.45444654 L2.85158962,1.42318693 C2.75075796,1.02400976 3.00141444,0.576404164 3.33536719,0.505938606 C3.52256604,0.466383049 3.71789726,0.502841222 3.87761875,0.607119741 C4.03734024,0.711398261 4.14808209,0.874768215 4.18500362,1.06058386 L5.21099678,5.40283512 C5.24358028,5.54071375 5.38292901,5.62634406 5.52224089,5.59409578 C5.66155277,5.56184751 5.74807321,5.4239324 5.71548971,5.28605377 L4.69143566,0.952720437 C4.62965837,0.640971851 4.43854851,0.359040396 4.1629133,0.17908445 C3.88727808,-0.000871494844 3.5501903,-0.0637882394 3.22726259,0.0044471622 C2.59920177,0.136970859 2.1865384,0.865826821 2.34493551,1.5311855 Z" id="_Path_2"></path>
                    <path d="M7.76048943,7.17149424 L8.92562456,1.41779054 C9.06103226,0.798443143 8.68916176,0.176620385 8.07164,-0.00502337454 C7.38024895,-0.178148711 6.68742944,0.22519937 6.50694041,0.897086268 L5.2169792,5.27507853 C5.17692784,5.41101673 5.255805,5.55335042 5.39315627,5.59298973 C5.53050755,5.63262904 5.6743208,5.55456336 5.71437216,5.41862517 L7.00599378,1.03473628 C7.11526329,0.628254958 7.52832819,0.387775391 7.93437628,0.489317357 C8.28186912,0.591761407 8.49735577,0.952087132 8.41842453,1.31319652 L7.25248355,7.07072798 C7.22436846,7.2095667 7.31529767,7.34467502 7.45557962,7.37250085 C7.59586157,7.40032669 7.73237434,7.31033296 7.76048943,7.17149424 Z" id="_Path_3"></path>
                    <path d="M4.82594595,12.7147222 C2.9789798,12.7147222 1.43635135,11.3728215 1.43635135,9.46592593 C1.43635135,9.32432625 1.3203689,9.20953704 1.1772973,9.20953704 C1.03422569,9.20953704 0.918243243,9.32432625 0.918243243,9.46592593 C0.918243243,11.6718034 2.70664818,13.2275 4.82594595,13.2275 C4.96901755,13.2275 5.085,13.1127108 5.085,12.9711111 C5.085,12.8295114 4.96901755,12.7147222 4.82594595,12.7147222 Z" id="Shape"></path>
                    <path d="M3.91227561,8.22975896 C3.87197625,8.37344905 3.78181711,8.49849467 3.65762952,8.58293864 L3.60224861,8.61944933 C3.30425686,8.81783216 2.90151684,8.74088301 2.70015447,8.44785225 L1.56750048,6.77837032 C1.25848672,6.31393606 1.29889211,5.82529488 1.59633037,5.62323647 L1.65180544,5.58666178 C2.03333606,5.3677851 2.35749959,5.53384628 2.69074236,6.01435166 L3.63788369,7.41085764 C3.7176226,7.52842604 3.87856251,7.55975794 3.99735304,7.48083939 C4.11614357,7.40192084 4.14780116,7.24263669 4.06806225,7.12506829 L3.11941361,5.72636458 C2.65090123,5.05078857 2.0703808,4.75340193 1.37794631,5.15165794 L1.3060324,5.1985234 C0.749249869,5.5767334 0.682745911,6.38099678 1.13607803,7.06230777 L2.27087789,8.73496301 C2.63343692,9.26258177 3.35686338,9.40080258 3.89053421,9.04551575 L3.94802166,9.00758771 C4.17559364,8.8528757 4.33863285,8.62674956 4.41150817,8.36690771 C4.44977444,8.23046675 4.36903836,8.08915771 4.2311791,8.05128512 C4.09331984,8.01341254 3.95054188,8.093318 3.91227561,8.22975896 Z" id="_Path_4"></path>
                    <path d="M5.62766744,9.07902724 C5.08938515,9.37665516 4.75470228,9.93706662 4.71314224,10.7847967 C4.70620846,10.92623 4.81643369,11.0464474 4.95933718,11.0533098 C5.10224066,11.0601723 5.22370776,10.9510811 5.23064154,10.8096478 C5.26827899,10.0419297 5.56969034,9.62747921 6.05719311,9.44585927 C6.31808506,9.34866356 6.60176172,9.32926937 6.85166393,9.35559175 C6.88525344,9.35912976 6.90756828,9.3624216 6.91659008,9.36408574 C7.25016229,9.42561576 7.35169513,8.93505042 7.0205449,8.86181839 L5.02838273,8.42126283 C4.09593885,8.16853549 3.95521356,7.82693909 4.12785851,7.25737651 C4.20240702,7.00920499 4.35553942,6.88182326 4.58650408,6.83099797 C4.73899457,6.79744143 4.91029598,6.80161399 5.07310652,6.82985136 C5.1201751,6.83801479 5.15327742,6.84577352 5.16792572,6.84993876 L8.19192029,7.54893537 C8.21194638,7.55275132 8.2260572,7.55662431 8.25075576,7.56770123 C8.30077509,7.59013415 8.35285042,7.62617581 8.40364675,7.67989488 C8.60635892,7.89427077 8.71820661,8.29866313 8.66159249,8.96289309 C8.46435526,11.2914458 7.36811268,12.737339 4.76984488,12.7147321 C4.6267788,12.7134873 4.50978125,12.827263 4.50852352,12.9688572 C4.5072658,13.1104514 4.62222418,13.2262453 4.76529026,13.2274901 C7.6854011,13.2528973 8.96060463,11.5709628 9.17787826,9.00586299 C9.24593301,8.20740525 9.09456704,7.66013204 8.78193457,7.32951122 C8.60955448,7.14721266 8.42764517,7.06562909 8.28809901,7.04554029 L5.29834998,6.3538424 C5.27955781,6.34815965 5.22879942,6.33626258 5.16253695,6.32477021 C4.93842451,6.28590082 4.70257436,6.28015599 4.47405193,6.33044386 C4.06851093,6.41968582 3.76250922,6.67423043 3.631417,7.11064049 C3.38217536,7.93289583 3.64833669,8.57897551 4.90354251,8.91878545 L5.62766744,9.07902724 Z" id="Shape"></path>
                </g>
            </g>
        </g>
    </g>
</svg>