<svg xmlns="http://www.w3.org/2000/svg" role="img" viewBox="0 0 38 24" width="38" height="24" aria-labelledby="pi-klarna">

<title id="pi-klarna">Klarna</title>

<rect width="38" height="24" rx="2" fill="#FFB3C7"/>

<path d="m2 0h34c1.1046 0 2 0.89543 2 2v20c0 1.1046-0.89543 2-2 2h-34c-1.1046 0-2-0.89543-2-2v-20c0-1.1046 0.89543-2 2-2zm0 1c-0.55228 0-1 0.44772-1 1v20c0 0.55228 0.44772 1 1 1h34c0.55228 0 1-0.44772 1-1v-20c0-0.55228-0.44772-1-1-1h-34z" fill="#000" fill-opacity=".07"/>

<path d="m34.089 13.684c-0.50312 0-0.91097 0.39965-0.91097 0.89271 0 0.49294 0.40785 0.89265 0.91097 0.89265 0.50311 0 0.91103-0.39972 0.91103-0.89265 0-0.49307-0.40792-0.89271-0.91103-0.89271zm-2.9972-0.69016c0-0.67499-0.58877-1.2221-1.3151-1.2221s-1.3151 0.54709-1.3151 1.2221c0 0.675 0.58878 1.2222 1.3151 1.2222s1.3151-0.54722 1.3151-1.2222zm0.0048837-2.3753h1.4514v4.7503h-1.4514v-0.30359c-0.41004 0.27402-0.90497 0.43511-1.4388 0.43511-1.4127 0-2.558-1.1222-2.558-2.5066 0-1.3843 1.1453-2.5065 2.558-2.5065 0.53385 0 1.0288 0.16108 1.4388 0.43518v-0.30388zm-11.616 0.61876v-0.61869h-1.486v4.7502h1.4894v-2.2178c0-0.74826 0.82764-1.1505 1.4019-1.1505 0.005881 0 0.011371 5.541e-4 0.017252 6.246e-4v-1.3823c-0.58942 0-1.1315 0.24729-1.4225 0.61841zm-3.7016 1.7565c0-0.67499-0.58884-1.2221-1.3152-1.2221-0.7263 0-1.3151 0.54709-1.3151 1.2221 0 0.675 0.58884 1.2222 1.3151 1.2222 0.72637 0 1.3152-0.54722 1.3152-1.2222zm0.0048015-2.3753h1.4515v4.7503h-1.4515v-0.30359c-0.41004 0.27402-0.90496 0.43511-1.4387 0.43511-1.4127 0-2.5581-1.1222-2.5581-2.5066 0-1.3843 1.1453-2.5065 2.5581-2.5065 0.53379 0 1.0287 0.16108 1.4387 0.43518v-0.30388zm8.7365-0.12777c-0.57979 0-1.1285 0.17639-1.4954 0.66302v-0.53497h-1.4452v4.75h1.4629v-2.4963c0-0.72236 0.49434-1.0761 1.0896-1.0761 0.6379 0 1.0046 0.3734 1.0046 1.0663v2.5061h1.4497v-3.0208c0-1.1055-0.89698-1.8573-2.0663-1.8573zm-14.847 4.8781h1.5192v-6.8672h-1.5192v6.8672zm-6.6734 0.0018739h1.6086v-6.8704h-1.6086v6.8704zm5.6264-6.8704c0 1.4874-0.59152 2.871-1.6455 3.8995l2.2236 2.9712h-1.9869l-2.4166-3.229 0.62367-0.45769c1.0343-0.75919 1.6275-1.9196 1.6275-3.184h1.5742z" fill="#0A0B09"/>

</svg>
