<?xml version="1.0"?>
<svg xmlns="http://www.w3.org/2000/svg" width="38" height="24" viewBox="0 0 38 24" role="img">
  <title>Klarna Pay Now</title>
  <g fill="none" fill-rule="evenodd">
    <path d="M3 0h32c1.657 0 3 1.343 3 3v17.97c0 1.658-1.343 3-3 3H3c-1.657 0-3-1.342-3-3V3c0-1.657 1.343-3 3-3z" fill="#FA82A0"/>
    <path d="M19.75 15.138c-1.54 0-2.85-.974-3.326-2.324.27.28.634.43 1.003.43.318 0 .638-.108.898-.327l.06-.05c.423-.357.568-.91.42-1.403.22-.023.44-.094.64-.218.093.04.19.073.294.092l.653.143c-1.167.585-1.258 1.738-1.26 1.753-.01.19.138.35.332.363h.022c.184 0 .34-.14.352-.322.004-.06.13-1.474 2.236-1.433h.006c.044 0 .086-.008.126-.024.01-.003.018-.01.028-.014.028-.014.055-.03.08-.05l.03-.034c.017-.02.032-.04.045-.063.01-.016.015-.032.02-.048.006-.013.013-.023.017-.036.002-.01 0-.022 0-.034.002-.012.008-.022.008-.035 0-.01-.006-.02-.006-.032-.003-.024-.007-.046-.014-.068-.007-.02-.014-.04-.024-.06-.01-.02-.023-.038-.037-.055-.014-.018-.028-.033-.046-.047-.018-.015-.035-.027-.055-.038-.02-.01-.04-.02-.065-.028-.01-.003-.02-.01-.032-.014l-2.274-.496c-.38-.072-.627-.433-.553-.803l.03-.147c.037-.178.142-.333.298-.435.156-.103.343-.14.508-.11l3.07.742c.253.05.545.192.545.87 0 2.83-2.076 4.358-4.03 4.358zm-4.85-6.11l.06-.05c.28-.236.706-.205.948.07l2.087 2.37c.242.273.21.69-.07.925l-.06.05c-.28.237-.707.206-.948-.068l-2.087-2.37c-.242-.274-.21-.69.07-.926zm1.303-1.798c.305-.256.737-.256.963 0l1.678 1.912c-.082.135-.145.28-.176.438l-.03.146c-.074.372.013.74.213 1.032-.24.065-.492.012-.647-.164L16.06 8.162c-.225-.257-.162-.675.143-.932zm.863-4.56l-.008-.04c-.085-.33.12-.666.456-.75.336-.082.68.118.765.448l1.366 5.246c.006.022.018.04.027.06.006.013.01.026.017.038.023.035.05.067.084.09.003.004.006.004.01.006.03.023.067.04.106.05l.01.006c.01.002.02 0 .03 0 .02.005.038.01.058.01.012 0 .025-.003.037-.004.01 0 .02-.002.028-.003.008-.002.015 0 .022-.003.016-.004.027-.014.042-.02.023-.01.046-.017.067-.03.02-.014.034-.03.05-.044.015-.016.03-.03.044-.05.014-.02.023-.04.032-.064.006-.014.016-.026.02-.042l1.367-5.246c.085-.33.428-.53.765-.447.162.04.3.14.386.283.086.142.11.307.07.466l-.006.03-.99 6.222-1.604-.387c-.335-.064-.673-.002-.968.164l-1.648-1.88c-.036-.04-.078-.072-.118-.107l-.518-4.003zm6.322 6.566l-.777-.187.998-6.27c.08-.33.026-.676-.154-.97-.184-.3-.474-.513-.82-.6-.715-.175-1.442.25-1.622.948L19.988 6.09l-1.024-3.93c-.18-.7-.908-1.125-1.622-.95-.707.176-1.14.875-.975 1.566l.464 3.582c-.373-.03-.77.08-1.088.35-.444.373-.61.94-.473 1.43-.276.024-.545.127-.77.317l-.06.05c-.576.486-.64 1.338-.145 1.9l1.234 1.403c.06 2.226 1.927 4.02 4.22 4.02 2.296 0 4.737-1.77 4.737-5.047 0-1.16-.7-1.467-1.1-1.544zM13.074 21.168h.998V16.37h-.998v4.798zm6.318-2.773v-.43h-.933v3.203h.943V19.49c0-.487.536-.7.905-.593h.01v-.93c-.386 0-.74.17-.926.428zm-3.21 2.032c-.488 0-.885-.385-.885-.86s.397-.86.885-.86c.49 0 .885.385.885.86s-.396.86-.885.86zm.876-2.24c-.27-.195-.597-.31-.952-.31-.91 0-1.65.757-1.65 1.69 0 .933.74 1.69 1.65 1.69.355 0 .683-.115.952-.31v.22h.815v-3.2h-.815v.22zm5.594-.308c-.374 0-.728.118-.965.446v-.36h-.932v3.202h.944v-1.752c0-.487.318-.725.7-.725.413 0 .65.253.65.72v1.758h.934v-2.036c0-.746-.578-1.253-1.332-1.253zm6.075 2.152c-.325 0-.588.27-.588.602 0 .333.262.602.587.602.324 0 .587-.27.587-.602 0-.332-.263-.602-.587-.602zm-2.685.395c-.49 0-.885-.385-.885-.86s.396-.86.885-.86c.488 0 .885.385.885.86s-.397.86-.885.86zm.876-2.24c-.27-.195-.598-.31-.953-.31-.91 0-1.65.757-1.65 1.69 0 .933.74 1.69 1.65 1.69.355 0 .684-.115.953-.31v.22h.815v-3.2h-.815v.22zm1.407-.163h.055c.035 0 .05.02.05.05 0 .03-.01.054-.05.054h-.055v-.104zm0 .113h.046l.04.09h.045l-.042-.097c.027-.013.04-.037.04-.07 0-.045-.033-.076-.082-.076h-.086v.242h.042v-.09zm-19.64 3.03h1.04v-4.796h-1.04v4.798zm3.71-4.795h-1.01c-.02 1.083-.63 2.018-1.517 2.48l1.552 2.316h1.267l-1.41-2.106c.703-.708 1.104-1.662 1.118-2.69zm15.965 1.55c.1 0 .18.085.18.187s-.08.185-.18.185c-.098 0-.178-.083-.178-.186s.08-.187.178-.187zm0 .417c.123 0 .222-.104.222-.23 0-.128-.1-.23-.222-.23s-.22.102-.22.23c0 .126.098.23.22.23z" fill="#FFF"/>
  </g>
</svg>
