<svg version="1.1" xmlns="http://www.w3.org/2000/svg" xmlns:xlink="http://www.w3.org/1999/xlink" x="0" y="0" viewBox="0 0 38 24" width="38" height="24" role="img" aria-labelledby="pi-knet" xml:space="preserve"><title id="pi-knet">KNet</title><style type="text/css">.st1{fill:#2778bd}.st3{fill:#fefefe}</style><defs><path id="SVGID_1_" d="M34 24H4c-2.2 0-4-1.8-4-4V4c0-2.2 1.8-4 4-4h30c2.2 0 4 1.8 4 4v16c0 2.2-1.8 4-4 4z"/></defs><clipPath id="SVGID_2_"><use xlink:href="#SVGID_1_" overflow="visible"/></clipPath><g clip-path="url(#SVGID_2_)"><path class="st1" d="M19 0h17.1c.5 0 .9 0 1.3.3.6.4 1.1.9 1.1 1.7v19.9c0 .9-.8 1.9-1.6 2.1-.5.2-1 .2-1.5.2H2.1c-.8 0-1.6-.3-2.1-.9-.3-.4-.5-.8-.5-1.3v-8V2.2C-.5 1.3.2.3 1.1 0H19zm-3.2 16c.1-1.3 0-2.7.1-4.1.4.4.8.6 1.2 1 .6.6 1.3 1.1 1.9 1.6.5.4 1 .9 1.5 1.3.2.1.4.2.6.2h10.8c0-.1 0-.2-.1-.2-.7-.3-1.3-.8-1.9-1.2-.7-.4-1.3-.9-2-1.3-.6-.4-1.2-.7-1.7-1.1-.1-.1-.2-.1-.3-.3.2-.2.6-.4.9-.5.7-.4 1.3-.8 2-1.1.2-.1.3-.1.5-.2.5-.4 1.1-.7 1.6-.9.2-.1.4-.3.7-.4.1 0 .1-.1 0-.2s-.2 0-.4 0H21.1c-.1 0-.3 0-.4.1-.4.3-.9.5-1.3.8-.1.1-.3.1-.4.2-.4.3-.9.6-1.3.8l-1.5.9c-.1.1-.2.2-.4.1V8.7H8.3c-.1.3-.2 7.1 0 7.6 2.4-.3 4.9-.3 7.5-.3zm19.4 1.2c-.4-.1-31.9-.1-32.2 0 0 .2-.1.4.1.7H30l.1.1c-.6.1-.8.4-.7.9-.2.1-.3 0-.4.2v.5c.1.1.3 0 .4.2v1.6c0 .3 0 .6.2.8.3.4 1 .5 1.5.2 0-.3 0-.3-.1-.7h-.2c-.4 0-.4 0-.4-.4v-.8-.7c.2-.1.4 0 .6-.1v-.5c-.2-.1-.4 0-.6-.1v-1H35c.3-.5.2-.7.2-.9zM26 4.7c.1-.4 0-.7 0-1h-4.6v2.5H27.3c.2 0 .4-.1.6-.3-.1-.3-.5-.6 0-.9.2 0 .3.1.4.2.2.1.4.2.6.2h4.7c.2 0 .3 0 .5-.1.2-.2.4-.3.5-.6 0-.3-.3-.4-.4-.7-.1-.3-.3-.3-.6-.3h-2.4c-.4 0-.5-.1-.7-.5h2.6c-.1-.5-.2-.6-.5-.6h-4.3c-.1 0-.2 0-.2.1.1.2.3.3.5.4.2.1.4.3.7.4.3.3.7.6 1.2.5.6-.1 1.2 0 1.8 0 .2 0 .4.1.5.3-.1.3-.3.3-.5.3h-2.4c-.2 0-.3-.1-.4-.2-.2-.3-.5-.5-.8-.7-.1 0-.1-.1-.2-.1h-1.7c-.1.6 0 1.1-.1 1.6-.1.1-.1.1-.2.1h-3c-.2-.1-.3-.2-.3-.4s.2-.2.4-.2H26zm9.1 2.4H3c0 .2-.1.4 0 .5.4.1 31.7.1 32.1 0 .1-.2.1-.3 0-.5zM16.4 6c.1-.7.1-1.3.1-1.9-.4-.1-1-.1-1.2 0-.1.2 0 .4-.1.6-.2 0-.3.1-.5 0-.1-.2 0-.3-.1-.5-.2 0-.4-.1-.6 0-.1.2 0 .3-.1.5H5.3c.1-.6.6-.8.7-1.3-.3-.2-.5-.2-.7-.3-.2-.2-.4-.1-.6.1-.3.3-.7.8-1.1 1.2 0 0-.1.2-.1.3.3.4.6.9.9 1.3h12zm-7 16.4c.1-.1.1-.2.1-.3 0-.8.1-1.5 0-2.3-.1-.4-.3-.7-.7-.8-.2-.1-.4-.1-.5-.2-.4.2-.9.2-1.2.5-.1-.1 0-.2-.1-.3-.3 0-.5-.1-.9 0v3.3c.3 0 .6.1.9 0 .1-.2.1-.4.1-.6 0-.5 0-1 .1-1.6 0-.2.1-.5.4-.6.5-.2.9 0 .9.6v1.6c0 .2 0 .4.1.5.2.2.5.2.8.2zM21 20.9c.1-.3 0-.5 0-.7-.1-.4-.3-.8-.7-1-.4-.2-.8-.3-1.2-.2-.3 0-.6.1-.9.3-.4.4-.6.8-.6 1.3 0 .7.2 1.3.9 1.7.4.2.8.2 1.2.2.6-.1 1-.4 1.3-.9-.3-.2-.6-.1-.9-.1-.1 0-.1 0-.1.1-.2.3-.6.3-.9.2-.3-.1-.5-.3-.4-.7.8-.2 1.6-.2 2.3-.2zM7.7 2.9c-.3-.3-.4-.3-.7-.3-.2 0-.4.1-.4.4 0 .2.1.4.3.6.2.1.4.1.5-.1.1-.1.1-.3.3-.3.5.5.7.5.9.3.3-.3.4-.6.2-.8-.3-.2-.6-.2-1.1.2zm8.4.7c.2 0 .5-.3.5-.5 0-.3-.2-.5-.6-.5-.3 0-.5.2-.5.5 0 .2.3.5.6.5zM29 6.2c0 .3.2.5.5.5s.5-.2.5-.5c0-.2-.3-.5-.5-.5-.3 0-.5.2-.5.5zm1.7.5c.3 0 .5-.2.5-.5s-.3-.5-.5-.5c-.3 0-.5.2-.5.5s.2.5.5.5z"/><path d="M15.8 16H8.3c-.1-.5-.1-7.3 0-7.6h7.5v2.8c.2.1.3 0 .4-.1l1.5-.9c.5-.3.9-.5 1.3-.8.1-.1.3-.1.4-.2.4-.3.9-.5 1.3-.8.1-.1.3-.1.4-.1h10.5c.1.1 0 .2 0 .2-.4.2-.6.4-.8.5-.6.3-1.1.6-1.6.9-.1.1-.3.1-.5.2-.7.3-1.4.8-2 1.1-.3.2-.6.3-.9.5 0 .2.2.2.3.3.6.4 1.2.7 1.7 1.1.7.4 1.3.9 2 1.3s1.2.9 1.9 1.2c.1 0 .1.1.1.2-.1.1-.2 0-.4 0H21c-.2 0-.4-.1-.6-.2-.5-.4-1-.8-1.5-1.3-.6-.5-1.3-1-1.9-1.6-.3-.3-.7-.6-1.2-1V16z" fill="#fce44d"/><path class="st3" d="M35.2 17.2c.1.2.1.4-.1.7h-4.6c-.1.4-.1.7 0 1 .2.2.4 0 .6.1.1.2 0 .4 0 .5-.2.2-.4 0-.6.1-.1.2 0 .5 0 .7v.8c0 .4 0 .4.4.4h.2c.1.4.1.4.1.7-.5.3-1.2.2-1.5-.2-.2-.2-.2-.5-.2-.8v-1.5-.1c-.1-.2-.3-.1-.4-.2-.1-.2 0-.4 0-.5.1-.1.3-.1.4-.2-.1-.5.2-.8.7-.9l-.1-.1H3.2c-.3 0-.2-.3-.2-.5.3-.1 31.8-.1 32.2 0zM26 4.7h-2.4c-.2 0-.4 0-.4.2s.1.3.3.4h3c.1 0 .1 0 .2-.1.1-.5 0-1 .1-1.6h1.7c.1 0 .2 0 .2.1.3.2.5.4.8.7.1.1.2.2.4.2h2.4c.3 0 .5-.1.5-.3-.1-.2-.3-.3-.5-.3h-1.8c-.5 0-.9-.2-1.2-.5-.2-.2-.4-.3-.7-.4-.2-.1-.3-.2-.5-.4 0-.1.1-.1.2-.1h4.3c.3 0 .4.1.5.6h-2.6c.1.4.3.5.7.5h2.4c.3 0 .4.1.6.3.1.2.4.4.4.7-.1.3-.3.4-.5.6-.1.1-.3.1-.5.1h-4.7c-.3 0-.4-.1-.6-.2-.2-.1-.3-.2-.5-.2-.5.3 0 .6 0 .9-.2.2-.3.3-.6.3h-5.8-.1V3.7h4.6c.1.3.2.6.1 1zM35.1 7.1c.1.2 0 .4 0 .5-.4.1-31.6.1-32.1 0 0-.2 0-.3.1-.5h32zM16.4 6h-12c-.3-.4-.6-.9-.9-1.3 0-.1 0-.3.1-.3.4-.4.8-.9 1.1-1.2.2-.2.4-.3.6-.1.2.1.4.2.5.3 0 .5-.6.8-.7 1.3h8.6c.1-.1 0-.3.1-.5.2-.1.4-.1.6 0 .1.2 0 .3.1.5.2.1.4.1.5 0 .2-.2 0-.5.1-.6.4-.1.9-.1 1.3 0 0 .6.1 1.2 0 1.9zM9.4 22.4h-.8c-.1-.1-.1-.3-.1-.5v-1.6c0-.6-.4-.8-.9-.6-.3.1-.3.3-.4.6-.1.5 0 1-.1 1.6 0 .2 0 .4-.1.6-.3.1-.6 0-.9 0v-3.3c.3-.1.6 0 .9 0 .1.1.1.2.2.3.2-.5.7-.5 1.1-.7.1.1.3.1.5.2.4.1.6.4.7.8.1.8 0 1.5 0 2.3 0 .1 0 .2-.1.3z"/><path class="st3" d="M21 20.9h-2.3c-.1.4.1.6.4.7.3.1.7.1.9-.2l.1-.1c.3 0 .6 0 .9.1-.3.6-.7.9-1.3.9-.4 0-.8 0-1.2-.2-.7-.4-.9-1-.9-1.7 0-.5.2-1 .6-1.3.2-.2.6-.3.9-.3.4 0 .8 0 1.2.2.4.2.6.6.7 1 .1.4.2.6 0 .9zm-.9-.5c0-.3-.1-.6-.3-.7-.3-.2-.6-.2-.9 0-.2.1-.3.4-.2.7h1.4zM7.7 2.9c.5-.4.8-.4 1.1-.2.2.2.1.5-.2.8-.2.2-.4.1-.9-.4-.2 0-.2.2-.3.3-.1.2-.3.2-.5.1s-.4-.3-.3-.5c0-.3.2-.4.4-.4.3 0 .4 0 .7.3zM16.1 3.6c-.3 0-.6-.3-.6-.6s.2-.4.5-.5c.3 0 .6.2.6.5s-.3.6-.5.6zM29 6.2c0-.3.2-.5.5-.5.2 0 .5.3.5.5 0 .3-.3.5-.5.5-.3 0-.5-.2-.5-.5zM30.7 6.7c-.3 0-.5-.2-.5-.5s.2-.5.5-.5.6.3.5.5c0 .3-.2.5-.5.5z"/><path class="st1" d="M20.1 20.4h-1.4c-.1-.3.1-.5.2-.7.3-.2.6-.2.9 0 .2.1.3.3.3.7z"/></g></svg>
