<svg version="1.1" xmlns="http://www.w3.org/2000/svg" x="0" y="0" viewBox="0 0 38 24" width="38" height="24" role="img" aria-labelledby="pi-knet" xml:space="preserve"><title id="pi-knet">KNet</title><style type="text/css">.st0{fill:#0873b8}.st2{fill:#f0f8f9}</style><path class="st0" d="M4 24c-2.2 0-4-1.8-4-4V4c0-2.2 1.8-4 4-4h30c2.2 0 4 1.8 4 4v16c0 2.2-1.8 4-4 4H4z"/><path class="st0" d="M34 .1c2.2 0 3.9 1.7 3.9 3.9v16c0 2.2-1.7 3.9-3.9 3.9H4C1.8 23.9.1 22.2.1 20V4C.1 1.8 1.8.1 4 .1h30m0-.1H4C1.8 0 0 1.8 0 4v16c0 2.2 1.8 4 4 4h30c2.2 0 4-1.8 4-4V4c0-2.2-1.8-4-4-4z"/><g><path d="M27.8 8.5c-.4.4-.8.7-1.2 1l-2.4 1.8c-.2.2-.4.3-.6.5-.2.2-.2.3 0 .4 1 .8 2 1.6 3 2.5.5.4.9.8 1.4 1.2.1.1.1.1.1.2s0 .2-.1.2H20.1c-.3 0-.5-.1-.7-.3-1.2-1.2-2.3-2.5-3.5-3.7l-.1-.1s-.1-.1-.2-.1-.1.1-.1.2V16c0 .4 0 .4-.4.4H9.8c-.3 0-.4 0-.4-.4v-4.7-2.6c0-.3 0-.4.4-.4h5.4c.4 0 .4-.1.4.4v2.7c0 .1 0 .2.1.2s.1-.1.2-.1C17 10.7 18 9.8 19.1 9c.2-.2.5-.4.7-.6.1-.1.3-.1.5-.1h7.1c0 .1.2.1.4.2z" fill="#f8e70c"/><path class="st2" d="M24 6.6h-2.3c-.3 0-.3 0-.3-.3V4c0-.3 0-.3.3-.3h3.1c.3 0 .3 0 .3.3 0 .2.1.5 0 .6-.2.2-.4.1-.7.1h-1.5c-.3 0-.3 0-.3.3 0 .2-.1.5 0 .7.2.2.5.1.7.1h1.9c.2 0 .3-.1.3-.3V4c0-.3 0-.3.3-.3H27c.2 0 .3.1.4.2.3.1.4.3.6.5.1.1.2.2.3.2h2.6c.1 0 .2 0 .1-.2-.1-.3-.1-.3-.4-.3h-1.9c-.2 0-.4-.1-.5-.3-.2-.2-.3-.5-.3-.8 0-.1.1-.2.2-.2H31c.2 0 .3.2.3.3 0 .1 0 .1-.1.1h-2c-.1 0-.2 0-.2.1 0 .2 0 .3.2.3h1.7c.8 0 .8 0 1.2.7.1.1.1.3 0 .4-.2.2-.3.3-.4.5-.1.1-.2.2-.4.2h-3.7c-.3 0-.5-.1-.8-.2-.1-.2-.1-.2-.1.1v1c0 .3 0 .3-.3.3H24zM12.2 5.7H7.7c-.3.1-.5 0-.7-.3-.1-.2-.3-.4-.5-.6-.1-.2-.2-.3-.1-.5.2-.4.5-.9.7-1.3.1-.1.1-.2.3-.2h.7c.2 0 .2 0 .1.2-.2.5-.4.9-.5 1.3-.1.2 0 .2.1.2h7c.3 0 .3 0 .3-.3 0-.6 0-.6.6-.6.2 0 .3.1.3.3v.3c0 .1 0 .2.2.2s.2-.1.2-.2v-.1c.1-.5.1-.5.6-.5.1 0 .2.1.2.2v1.7c0 .2-.1.2-.2.2h-4.8zM21 20.6h-1.7c-.1 0-.2 0-.3.1 0 .1 0 .2.1.3.1.2.3.3.5.3.5.1 1 .1 1.5-.1.1-.1.2-.1.3-.1h1.5c0 .1 0 .1-.1.2-.3.3-.6.5-1 .6-1 .3-2.1.3-3.2 0-.3-.1-.6-.2-.8-.3-.8-.6-.8-1.5.1-2.1.5-.3 1-.4 1.5-.5.7-.1 1.3-.1 2 .1.5.1.9.3 1.3.6.2.2.3.4.4.7 0 .2 0 .3-.2.3-.7-.1-1.3-.1-1.9-.1zm.4-.5c-.1-.3-.3-.4-.5-.5-.5-.1-1-.2-1.4.1-.1.1-.2.1-.3.2l-.1.1c0 .1.1 0 .1 0 .7.1 1.4.1 2.2.1zM6.3 20.4v-1.1c0-.2 0-.2.2-.2h1.1c.1 0 .2 0 .2.1 0 .3.2.2.3.1 1.1-.5 2.1-.5 3.2 0 .4.2.6.5.6.9v1.5c0 .2-.1.2-.2.2h-1.1c-.2 0-.3-.1-.3-.2v-1c0-.7-.2-.9-.9-1-.4-.1-.7 0-1 .1-.3.1-.5.3-.5.7v1.2c0 .2-.1.3-.2.3H6.6c-.2 0-.3-.1-.3-.3v-1.3zM19.1 17.3h15.2c.1 0 .1.1.1.1 0 .1 0 .1-.1.1H4c-.1 0-.1-.1-.1-.1 0-.1 0-.1.1-.1H19.1zM31.1 21.8h-.8c-.5 0-.8-.3-.8-.8v-1.2c0-.3 0-.3-.3-.3H29c-.3 0-.3 0-.3-.3 0-.2 0-.3.3-.3h.2c.3 0 .4.1.4-.4 0-.4 0-.4.4-.4h1c.2 0 .2.1.2.3 0 .5 0 .5.5.5h.3c.1 0 .3 0 .3.2 0 .3 0 .3-.3.3h-.5c-.3 0-.3 0-.3.3v1.2c0 .3 0 .3.3.3h.5c.2 0 .2.1.2.2v.2c0 .1-.1.2-.2.2h-.9zM19 7.6H4c-.1 0-.2 0-.2-.1s.2-.1.3-.1H34c.1 0 .2 0 .3.1 0 .2-.1.1-.2.1H19zM19.3 5.4h-.7c-.1 0-.2-.1-.2-.2v-.9c0-.2.1-.2.2-.2h1.2c.2 0 .2.1.2.2v.9c0 .2-.1.2-.2.2h-.5z"/><path class="st2" d="M10.5 3.3h-.2c-.1 0-.2 0-.2-.2s.1-.2.2-.2h.4c.2 0 .2.1.2.2s0 .2-.2.2h-.2zM9.2 3.3H9c-.1 0-.2 0-.2-.2 0-.1 0-.2.2-.2h.4c.1 0 .2 0 .2.2s-.1.2-.2.2h-.2zM16.7 3.3h-.2c-.1 0-.2 0-.2-.2 0-.1 0-.3.2-.3h.4c.2 0 .2 0 .2.2s-.1.2-.2.2c-.1.1-.1.1-.2.1zM29 6.6h-.2c-.1 0-.2 0-.2-.2s0-.2.2-.2h.3c.1 0 .3 0 .3.2s-.1.2-.3.2H29zM27.7 6.6h-.2c-.1 0-.2 0-.2-.2 0-.1 0-.2.2-.2h.5c.1 0 .2.1.2.2s0 .2-.2.2h-.3z"/></g></svg>
