<svg xmlns="http://www.w3.org/2000/svg" width="38" height="24" fill="none" aria-labelledby="pi-koalafi" role="img" viewBox="0 0 38 24"><title id="pi-koalafi">Koalafi</title><path fill="#fff" d="M0 0h38v24H0z"/><path fill="#0D4066" d="M14.135 9.36h-.94a.48.48 0 0 0-.404.201l-1.523 1.971V9.36h-.762a.297.297 0 0 0-.291.292v4.614h1.075v-2.172l1.523 1.972a.48.48 0 0 0 .403.201h.941l-1.904-2.464z"/><path fill="#0D4066" d="M17.092 10.815a1.97 1.97 0 0 0-2.688.695 1.84 1.84 0 0 0-.269.963c0 .336.09.672.269.964a1.974 1.974 0 0 0 3.383 0 1.92 1.92 0 0 0 0-1.905c-.18-.313-.404-.56-.695-.717m-.202 2.106a1.2 1.2 0 0 1-.336.336.88.88 0 0 1-.94 0 .945.945 0 0 1-.314-1.299c.067-.134.18-.224.314-.314a.88.88 0 0 1 .94 0c.448.292.583.852.336 1.277m6.542-3.628v4.972h1.03V9.001h-.739a.297.297 0 0 0-.291.291zm4.682 1.657v.134a1.4 1.4 0 0 0-.38-.336 1.46 1.46 0 0 0-.785-.2c-.336 0-.65.09-.918.267-.27.18-.493.404-.628.695-.15.29-.227.613-.224.94 0 .337.067.65.224.964.157.291.359.515.628.695.268.18.604.268.918.268.291 0 .56-.067.784-.2q.214-.14.38-.337v.425h.987V10.66h-.695a.28.28 0 0 0-.291.29m-.067 1.523c0 .157-.045.314-.112.47a1.2 1.2 0 0 1-.336.337.9.9 0 0 1-.47.134.9.9 0 0 1-.471-.134.92.92 0 0 1-.448-.807.97.97 0 0 1 .448-.806.9.9 0 0 1 .47-.135q.27 0 .47.135a1.2 1.2 0 0 1 .337.336c.09.134.112.291.112.47m3.943-3.472q-.538 0-.874.201a1.25 1.25 0 0 0-.515.56 1.9 1.9 0 0 0-.18.785v.112h-.358a.297.297 0 0 0-.291.29v.583h.65v2.733h1.03v-2.732h1.142v-.873h-1.142v-.137c0-.2.067-.358.18-.448a.74.74 0 0 1 .47-.157c.09 0 .201.023.29.045a1 1 0 0 1 .27.112v-.94a1.7 1.7 0 0 0-.314-.09C32.236 9 32.102 9 31.99 9zm1.254 1.949v3.315h1.03V10.66h-.739a.297.297 0 0 0-.291.29m1.076-1.636a.54.54 0 0 0-.225-.224.5.5 0 0 0-.313-.09c-.359 0-.65.27-.65.628 0 .112.022.224.09.314a.54.54 0 0 0 .224.224.7.7 0 0 0 .313.09.5.5 0 0 0 .314-.09.54.54 0 0 0 .224-.224.7.7 0 0 0 .09-.314.9.9 0 0 0-.067-.314M21.55 10.95v.134a1.4 1.4 0 0 0-.38-.336 1.46 1.46 0 0 0-.785-.2c-.336 0-.65.09-.918.267-.27.18-.493.404-.628.695-.15.29-.227.613-.224.94 0 .337.068.65.224.964.157.291.359.515.628.695s.605.268.918.268c.291 0 .56-.067.784-.2.135-.09.27-.203.381-.337v.425h.986V10.66h-.695a.28.28 0 0 0-.29.29zm-.067 1.523c0 .157-.045.314-.112.47a1.2 1.2 0 0 1-.336.337.9.9 0 0 1-.47.134.9.9 0 0 1-.471-.134.92.92 0 0 1-.448-.807c0-.157.045-.313.112-.47a1.2 1.2 0 0 1 .336-.336.9.9 0 0 1 .47-.135q.27 0 .47.135a1.2 1.2 0 0 1 .337.336c.09.134.112.291.112.47"/><path fill="#36C6FF" d="M8.22 13.347v.918H6.519a.9.9 0 0 1-.65-.268l-.29-.292v-.918h2.06c.336 0 .583.246.583.56z"/><path fill="#3D6EDF" d="M5.6 12.787v.918l-.291.292a.9.9 0 0 1-.65.268h-1.68v-.918c0-.314.246-.56.56-.56z"/><path fill="#49E8AB" d="M8.22 10.57V9.36l-2.217 1.478a.93.93 0 0 0-.403.762v1.187l2.218-1.479a.9.9 0 0 0 .403-.739z"/><path fill="#000" d="M5.6 11.6v1.187l-2.218-1.479a.9.9 0 0 1-.403-.739V9.36l2.218 1.48c.246.18.403.446.403.76"/><path fill="#0D4066" d="M34.678 13.773c.112-.135.313-.135.448 0s.134.313 0 .448-.314.134-.448 0a.29.29 0 0 1-.09-.224c0-.09.045-.18.09-.224m.224.47a.25.25 0 0 0 .179-.067c.09-.112.09-.27 0-.359-.112-.09-.269-.09-.358 0s-.09.27 0 .36a.25.25 0 0 0 .179.066m.134-.314c0 .045-.022.068-.045.09l.068.112h-.068l-.044-.112h-.045v.134h-.067v-.313h.112c.022 0 .067 0 .09.022-.023.023-.001.045-.001.067m-.157-.044v.09h.045c.023 0 .023 0 .045-.023l.022-.023a.05.05 0 0 0-.044-.044z"/></svg>