<svg width="38" height="24" viewBox="0 0 38 24" fill="none" xmlns="http://www.w3.org/2000/svg" role="img" aria-labelledby="pi-konbini"><title id="pi-konbini">Konbini</title><g clip-path="url(#clip0_3703_483)"><path d="M3 .5h28A2.5 2.5 0 0133.5 3v16a2.5 2.5 0 01-2.5 2.5H3A2.5 2.5 0 01.5 19V3A2.5 2.5 0 013 .5z" fill="#fff" stroke="#868E98"/><path fill-rule="evenodd" clip-rule="evenodd" d="M9 6a2 2 0 012-2h12a2 2 0 012 2v1.5a3.297 3.297 0 01-1 2.095V17a1 1 0 01-1 1H11a1 1 0 01-1-1V9.595A3.24 3.24 0 019.01 7.5L9 6zm2 0v1.25a1.25 1.25 0 102.5 0V6H11zm4.5 0v1.594c.08.45.667.906 1.5.906.891 0 1.5-.522 1.5-1 .003-.083 0-.166 0-.25V6h-3zm5 0v1.25a1.25 1.25 0 102.5 0V6h-2.5zm-6.002 3.597a3.239 3.239 0 01-2.498.894V16h2v-3a1 1 0 011-1h4a1 1 0 011 1v3h2v-5.51a3.239 3.239 0 01-2.498-.893c-.635.557-1.521.903-2.502.903-.98 0-1.867-.346-2.502-.903zM16 14v2h2v-2h-2z" fill="#868E98"/><rect x="18.4" y="10.4" width="19.2" height="13.2" rx="1.6" fill="#fff" stroke="#B0B6BF" stroke-width=".8"/><mask id="pi-mask0_3703_483" style="mask-type:luminance" maskUnits="userSpaceOnUse" x="18" y="10" width="20" height="14"><rect x="18.25" y="10.25" width="19.5" height="13.5" rx="1.75" fill="#fff" stroke="#fff" stroke-width=".5"/></mask><g mask="url(#mask0_3703_483)"><circle cx="28" cy="17" r="3" fill="#E01B41"/><mask id="pi-mask1_3703_483" style="mask-type:luminance" maskUnits="userSpaceOnUse" x="25" y="14" width="6" height="6"><circle cx="28" cy="17" r="3" fill="#fff"/></mask></g></g><defs><clipPath id="pi-clip0_3703_483"><path fill="#fff" d="M0 0h38v24H0z"/></clipPath></defs></svg>