<?xml version="1.0" encoding="UTF-8" standalone="no"?>
<!-- Created with Inkscape (http://www.inkscape.org/) -->

<svg
   xmlns:dc="http://purl.org/dc/elements/1.1/"
   xmlns:cc="http://creativecommons.org/ns#"
   xmlns:rdf="http://www.w3.org/1999/02/22-rdf-syntax-ns#"
   xmlns:svg="http://www.w3.org/2000/svg"
   xmlns="http://www.w3.org/2000/svg"
   xmlns:sodipodi="http://sodipodi.sourceforge.net/DTD/sodipodi-0.dtd"
   xmlns:inkscape="http://www.inkscape.org/namespaces/inkscape"
   width="38"
   height="24"
   viewBox="0 0 38 24"
   id="svg11621"
   version="1.1"
   inkscape:version="0.91+devel r14880"
   sodipodi:docname="krediidipank.svg">
  <defs
     id="defs11623" />
  <sodipodi:namedview
     id="base"
     pagecolor="#ffffff"
     bordercolor="#666666"
     borderopacity="1.0"
     inkscape:pageopacity="0.0"
     inkscape:pageshadow="2"
     inkscape:zoom="22.4"
     inkscape:cx="20.598976"
     inkscape:cy="11.717702"
     inkscape:document-units="px"
     inkscape:current-layer="g16109"
     showgrid="false"
     units="px"
     inkscape:window-width="1680"
     inkscape:window-height="988"
     inkscape:window-x="-8"
     inkscape:window-y="-8"
     inkscape:window-maximized="1"
     inkscape:pagecheckerboard="true" />
  <metadata
     id="metadata11626">
    <rdf:RDF>
      <cc:Work
         rdf:about="">
        <dc:format>image/svg+xml</dc:format>
        <dc:type
           rdf:resource="http://purl.org/dc/dcmitype/StillImage" />
        <dc:title></dc:title>
      </cc:Work>
    </rdf:RDF>
  </metadata>
  <g
     inkscape:label="Layer 1"
     inkscape:groupmode="layer"
     id="layer1"
     transform="translate(0,-1028.3622)">
    <g
       transform="matrix(1.25,0,0,-1.25,-652.20589,1026.7123)"
       inkscape:label="vahearuanne2015-IIIkv"
       id="g16109">
      <rect
         style="fill:#ffffff;fill-opacity:1;stroke:none;stroke-width:0.43082261;stroke-miterlimit:4;stroke-dasharray:none;stroke-opacity:1"
         id="rect23318"
         width="30.4"
         height="19.200001"
         x="521.76471"
         y="1.3199201"
         transform="scale(1,-1)" />
      <path
         id="path23255"
         style="fill:#c51130;fill-opacity:1;stroke-width:0.07555319"
         d="m 536.21197,-2.0740296 c 0,0.1881546 0.004,0.1895587 0.67756,0.1895587 h 0.67754 v 0.2653812 0.265381 l 1.67509,-0.00582 1.67504,-0.00582 -0.45171,-0.2214197 c -0.41723,-0.2045319 -0.51629,-0.2214368 -1.29863,-0.2216569 l -0.84694,-2.364e-4 v -0.2274679 -0.22747 h -1.05398 -1.05397 z m 1.19946,-11.9990274 c 0.46252,2.276795 0.66543,4.4904229 0.53926,5.8830841 -0.15911,1.7570137 -0.86724,3.9481202 -1.17547,3.6376614 -0.0271,-0.025615 -0.0106,-0.5003957 0.0339,-1.0550455 0.22851,-2.8698451 -0.067,-5.592474 -0.94303,-8.69317 -0.0477,-0.168815 -0.0403,-0.170607 0.70805,-0.170607 h 0.75629 z m 2.16875,0.303281 c 0.39926,1.865412 0.43104,2.153711 0.42846,3.8859458 -0.003,1.8313932 -0.0937,2.4669842 -0.56763,3.9564455 -0.17978,0.5646753 -0.26576,0.7319629 -0.41095,0.7986348 -0.10118,0.046384 -0.19837,0.069714 -0.21598,0.051842 -0.0169,-0.017867 0.006,-0.5266933 0.0515,-1.1307111 0.14015,-1.8342565 -0.068,-4.114536 -0.62265,-6.82288 -0.12393,-0.604692 -0.24544,-1.174081 -0.26981,-1.265311 -0.0403,-0.149323 -0.0136,-0.168814 0.28266,-0.195275 0.1801,-0.01624 0.51437,-0.03536 0.74274,-0.04264 l 0.41521,-0.01322 z m -4.84458,-0.77603 c 0.17029,6.06e-4 0.35139,0.02809 0.40264,0.06077 0.0511,0.03282 0.17537,0.50142 0.27592,1.041408 0.33682,1.809223 0.44642,2.881146 0.44969,4.393855 0.004,1.667778 -0.13172,2.537569 -0.64005,4.1134172 -0.25559,0.792519 -0.32262,0.9288362 -0.45584,0.9288362 -0.13811,0 -0.15098,-0.032788 -0.11176,-0.2843366 0.12526,-0.8041302 0.21565,-2.8494583 0.17638,-3.9996834 -0.0683,-1.9987064 -0.34497,-3.7685204 -0.87497,-5.5968284 l -0.21837,-0.753469 0.34362,0.04744 c 0.1889,0.02606 0.48288,0.04795 0.65306,0.0486 z m 6.67284,0.321081 c 0.28742,0.94574 0.58156,2.21456 0.67814,2.926246 0.13068,0.96381 0.0619,2.5329123 -0.14589,3.3350292 -0.29352,1.1312267 -0.8312,2.3636307 -1.03134,2.3636307 -0.10221,0 -0.10938,-0.078011 -0.0549,-0.5876318 0.0346,-0.3231977 0.0609,-1.3212219 0.0589,-2.2178336 -0.004,-1.4297639 -0.0304,-1.7792455 -0.21327,-2.8423855 -0.11508,-0.666698 -0.32737,-1.685128 -0.47161,-2.263178 -0.14421,-0.578045 -0.24916,-1.06418 -0.23325,-1.080299 0.0236,-0.02335 0.65315,-0.117724 1.15959,-0.17372 0.0477,-0.0055 0.16183,0.237773 0.2539,0.540129 z m -8.9658,-0.588649 c 0.34913,0.06189 0.65881,0.151659 0.68816,0.199472 0.085,0.138359 0.36687,1.529997 0.53589,2.644916 0.20042,1.321658 0.21396,3.5132174 0.0304,4.7389599 -0.24037,1.5940665 -0.88043,3.7676648 -1.12379,3.8156845 -0.1564,0.030894 -0.1564,-0.020471 10e-4,-1.5030713 0.0816,-0.7671618 0.12723,-1.8729823 0.13107,-3.1845816 0.006,-1.7508494 -0.0169,-2.1313385 -0.15979,-2.9578835 -0.15065,-0.862417 -0.75669,-3.411998 -0.88729,-3.733528 -0.0664,-0.16367 -0.0304,-0.164583 0.78523,-0.01995 z m -1.56811,-0.08932 c 0.57854,1.742559 0.78864,3.33394 0.71768,5.4358974 -0.0968,2.8645492 -0.53619,5.2819717 -1.24785,6.8637586 -0.18654,0.4146616 -0.23663,0.4669886 -0.54446,0.5686752 -0.33108,0.1093722 -0.33752,0.1176149 -0.27557,0.3522922 l 0.0637,0.2403011 0.84639,-0.2230812 c 9.06622,-2.3896262 11.55259,-3.0594929 11.63238,-3.1339339 0.14964,-0.1397574 0.59788,-1.4733773 0.74423,-2.2148295 0.35843,-1.8162047 0.0371,-4.7013749 -0.805,-7.2300549 -0.36655,-1.100637 -0.4042,-1.157253 -0.73622,-1.107103 -0.93746,0.141608 -2.65588,0.230227 -4.45564,0.229754 -2.16023,-5.32e-4 -3.39979,-0.114127 -5.36746,-0.491741 -0.42236,-0.08104 -0.78795,-0.147361 -0.81241,-0.147361 -0.0237,0 0.0835,0.385848 0.24002,0.857442 z m 5.26214,-0.895354 c 0,0.174127 0.0271,0.189556 0.33878,0.189556 0.3111,0 0.3388,-0.01555 0.3388,-0.189556 0,-0.174126 -0.0271,-0.189555 -0.3388,-0.189555 -0.31111,0 -0.33878,0.01556 -0.33878,0.189555 z m -4.49306,-2.944389 -0.99237,0.02944 -0.23732,0.388308 -0.23729,0.388303 0.7026,-0.05417 c 2.03061,-0.15653 3.03534,-0.192905 5.3696,-0.194393 1.40748,-8.98e-4 3.36628,0.0358 4.35295,0.08152 0.98665,0.04571 1.81233,0.06457 1.83485,0.0419 0.0238,-0.02267 -0.0304,-0.157681 -0.11785,-0.300034 -0.14624,-0.238146 -0.19635,-0.262609 -0.62968,-0.306599 -0.56102,-0.05692 -8.62505,-0.116599 -10.04561,-0.07437 z m -1.64255,-1.629498 c -0.68522,0.151963 -1.36259,0.946363 -2.31823,2.718612 -0.56859,1.054495 -0.73078,1.567571 -0.73078,2.311646 v 0.642767 h 1.16687 1.16693 v -0.341204 -0.341207 h -0.79047 -0.79051 v -0.327543 -0.327542 l 1.11045,-0.174228 c 3.19112,-0.500719 6.21256,-0.683015 9.04259,-0.545562 1.69098,0.08212 3.6196,0.240683 4.31107,0.354457 l 0.27319,0.04493 0.95053,2.478122 c 0.52277,1.362965 0.95039,2.503708 0.95027,2.534986 -1.4e-4,0.03113 -0.0993,0.05689 -0.22006,0.05689 -0.31449,0 -0.44485,0.0668 -0.41642,0.213412 0.0136,0.07028 0.045,0.224204 0.0697,0.342034 l 0.045,0.21424 0.47425,-0.05114 0.47425,-0.05117 0.0995,0.241795 c 0.0965,0.234893 0.10939,0.240337 0.4451,0.190835 0.44435,-0.06551 0.51138,-0.135593 0.35684,-0.373127 -0.0684,-0.104938 -0.12419,-0.204201 -0.12419,-0.220594 0,-0.01641 0.30502,-0.07178 0.67757,-0.123065 l 0.67753,-0.09326 v -0.378478 c 0,-0.372361 -0.003,-0.377809 -0.20686,-0.337119 -0.62707,0.12526 -1.48274,0.211786 -1.50547,0.152267 -0.0135,-0.03732 -0.52403,-1.313207 -1.13288,-2.835336 l -1.10703,-2.767506 -0.71517,-0.08869 c -4.45771,-0.552685 -9.25751,-0.49613 -13.24999,0.156124 -0.35196,0.0575 -0.65207,0.09339 -0.6669,0.07978 -0.0471,-0.04322 0.74058,-1.381274 1.07999,-1.834668 0.60411,-0.806977 -0.0304,-0.735808 6.77652,-0.761071 4.01731,-0.01489 6.10167,0.0043 6.42264,0.05988 0.77461,0.133623 1.24654,0.390101 1.86618,1.014213 0.88034,0.886635 0.85458,0.772963 0.85656,3.781693 l 0.001,2.55904 h 0.79046 c 0.50528,0 0.79047,-0.02876 0.79047,-0.08016 0,-0.0441 -0.038,-0.231749 -0.0843,-0.417028 -0.0833,-0.333668 -0.0872,-0.336881 -0.41014,-0.336881 h -0.32601 l -0.0238,-2.369481 -0.0236,-2.369481 -0.20042,-0.341202 c -0.28335,-0.482803 -1.5315,-1.685871 -1.99132,-1.919469 -0.21161,-0.107503 -0.60124,-0.229686 -0.86576,-0.271476 -0.61183,-0.09664 -12.56727,-0.161164 -12.97811,-0.07004 z"
         inkscape:connector-curvature="0" />
    </g>
  </g>
</svg>
