<svg role="img" width="38" height="24" viewBox="0 0 38 24" aria-labelledby="pi-kredivo" xmlns="http://www.w3.org/2000/svg"><title id="pi-kredivo">Kredivo</title><path fill="#000" opacity=".07" d="M35 0H3C1.3 0 0 1.3 0 3v18c0 1.7 1.4 3 3 3h32c1.7 0 3-1.3 3-3V3c0-1.7-1.4-3-3-3z"/><path fill="#fff" d="M35 1c1.1 0 2 .9 2 2v18c0 1.1-.9 2-2 2H3c-1.1 0-2-.9-2-2V3c0-1.1.9-2 2-2h32"/><path d="M8.249 17.265a116.297 116.297 0 0 0-1.819-2.1c-.173-.188-.226-.285-.227-.419 0-.055.003-.078.016-.108.02-.044-.004-.018.68-.761l.606-.66c.23-.251.25-.271.305-.301.135-.073.252-.08.37-.018.068.034.006-.034.812.889l1.243 1.422c.7.799 1.266 1.45 1.378 1.582.11.13.142.218.142.386 0 .155-.042.262-.128.327-.076.058.055.054-1.618.054H8.5l-.25-.293Z" fill="#48BBE5"/><path d="M35.088 16.874v-.652l.053-.016c.187-.057.276-.074.42-.08.158-.007.378.027.378.057 0 .013-.056.304-.06.308a.503.503 0 0 1-.08-.014.716.716 0 0 0-.27-.016l-.067.01-.002.527-.002.527h-.37v-.651Zm-9.985-.308c.154-.015.237-.055.278-.132.022-.041.023-.05.023-.13 0-.073-.002-.092-.017-.12-.038-.074-.11-.117-.226-.134a1.083 1.083 0 0 0-.239-.003l-.041.005v.522h.069c.038 0 .106-.004.153-.008Zm-.616.067v-.892l.089-.014c.192-.03.47-.039.63-.021.12.013.248.05.336.095a.47.47 0 0 1 .249.31c.02.075.024.256.008.34a.474.474 0 0 1-.265.36c-.138.07-.264.097-.502.105l-.151.005v.604h-.394v-.892Zm-3.175.853a14.55 14.55 0 0 1-.417-1.327c0-.01.038-.011.193-.011h.193l.007.03a18.027 18.027 0 0 0 .196.842c.007.025.008.023.025-.032.023-.077.125-.478.172-.676l.038-.16.133-.002.134-.002.065.282c.062.267.146.6.154.608.008.008.102-.373.171-.695l.042-.195h.385l-.005.026c-.01.05-.13.465-.203.693-.074.238-.123.38-.189.554l-.04.104-.145-.002-.146-.002-.076-.246c-.043-.135-.094-.31-.115-.387a.552.552 0 0 0-.044-.132c-.003.006-.02.066-.038.134-.038.147-.08.294-.14.49l-.045.145h-.289l-.016-.039Zm-3.489-.623V16.2l.03-.01c.055-.016.194-.042.297-.056.146-.018.379-.012.46.013a.44.44 0 0 1 .206.123c.087.09.127.201.142.394.005.057.007.272.006.48l-.002.377-.187.002-.187.002-.002-.444c-.003-.387-.005-.45-.016-.485-.04-.122-.104-.154-.285-.141l-.083.006-.002.53-.002.53-.187.002-.188.002v-.662Zm14.828.673a.412.412 0 0 1-.323-.318c-.025-.101-.028-.185-.028-.793v-.613l.018-.004a6.72 6.72 0 0 1 .167-.03l.168-.028.017-.004v.402h.449v.328h-.45l.003.285c.004.305.007.333.047.395.035.054.06.062.184.06a.513.513 0 0 0 .164-.017c.037-.011.054-.014.056-.007.002.005.014.072.027.148.018.107.022.14.014.146-.015.01-.131.046-.182.055a1.35 1.35 0 0 1-.331-.005Zm-1.168-.295c.003-.002.006-.07.006-.15v-.146l-.036-.006a.873.873 0 0 0-.254.008c-.047.015-.09.05-.104.086a.213.213 0 0 0 .013.146.198.198 0 0 0 .126.067c.043.007.236.003.249-.005Zm-.376.297a.532.532 0 0 1-.188-.06c-.136-.07-.202-.193-.202-.375 0-.188.083-.313.252-.38a.815.815 0 0 1 .35-.048c.07.003.137.007.15.01l.022.006-.004-.058c-.006-.097-.053-.157-.14-.183-.075-.022-.31-.006-.42.03a.231.231 0 0 1-.041.01l-.025-.154c-.017-.112-.02-.153-.014-.157.018-.012.157-.04.254-.052.228-.028.411-.005.538.067.056.032.13.115.157.177.048.111.05.129.053.643l.003.469-.042.009a2.03 2.03 0 0 1-.459.054c-.128.002-.2 0-.244-.008Zm-.856.003c-.177-.02-.303-.093-.356-.206-.044-.093-.044-.102-.044-.973v-.8l.167-.028.185-.031.017-.005.003.795c.002.742.003.796.016.826.008.018.02.04.027.048a.2.2 0 0 0 .108.052.163.163 0 0 1 .043.01c.007.005.002.048-.017.163l-.025.158-.032-.002c-.017 0-.059-.003-.092-.007Zm-3.427-.3.018-.003-.002-.145-.002-.145-.028-.007a1.025 1.025 0 0 0-.248.002c-.087.02-.136.084-.127.166a.216.216 0 0 0 .019.066c.018.033.076.063.134.072.044.006.2.002.236-.005Zm-.356.3c-.244-.038-.374-.157-.4-.367-.03-.246.087-.416.331-.479a.725.725 0 0 1 .21-.018c.078 0 .163.003.189.006l.046.007-.006-.051a.38.38 0 0 0-.015-.077.197.197 0 0 0-.092-.098c-.096-.04-.276-.032-.487.021-.009.002-.016-.03-.034-.144a1.552 1.552 0 0 1-.019-.156c.004-.01.083-.03.198-.05.115-.021.356-.021.441 0a.438.438 0 0 1 .308.226c.054.114.053.11.056.64l.003.481-.038.009a3.024 3.024 0 0 1-.305.05c-.102.01-.319.01-.386 0Zm-12.04-.004c-.2-.045-.317-.162-.37-.373-.018-.067-.018-.084-.021-.543l-.003-.473h.371v.4c0 .232.004.421.008.452.018.115.045.166.105.2.03.016.044.018.143.017.06 0 .117-.002.124-.005.013-.006.014-.039.014-.535v-.53h.37v1.328l-.03.008a1.924 1.924 0 0 1-.71.053Zm-1.481-1.119c.15-.02.222-.083.222-.196 0-.105-.063-.167-.19-.189a2.007 2.007 0 0 0-.32-.003l-.018.005v.392h.12c.066 0 .15-.004.186-.009Zm.033.784c.181-.029.253-.094.254-.23 0-.111-.045-.174-.153-.212-.044-.015-.073-.017-.245-.02l-.195-.003v.468l.05.003c.12.007.22.005.289-.006Zm-.32.339a1.856 1.856 0 0 1-.383-.046c-.013-.004-.014-.053-.014-.879v-.875l.06-.01c.157-.024.233-.03.448-.03.188 0 .242.003.307.015a.869.869 0 0 1 .244.082.527.527 0 0 1 .18.188.485.485 0 0 1 .004.393.537.537 0 0 1-.13.147l-.027.017.055.028c.15.076.225.21.225.405 0 .11-.01.16-.051.25-.06.132-.195.232-.374.278a1.834 1.834 0 0 1-.543.037Zm21.647-.89a.25.25 0 0 0-.132-.194c-.029-.015-.049-.018-.103-.018-.06 0-.073.003-.114.024-.067.036-.112.106-.133.207l-.006.027h.495l-.007-.046Zm-.315.898a.615.615 0 0 1-.475-.328.92.92 0 0 1 0-.75.6.6 0 0 1 .387-.333.827.827 0 0 1 .338-.004.542.542 0 0 1 .247.14.523.523 0 0 1 .142.239.936.936 0 0 1 .038.327l-.002.123-.424.003-.424.002.006.026a.294.294 0 0 0 .144.186c.107.057.353.056.523-.003.047-.016.053-.016.056-.005.01.034.045.289.042.298-.004.011-.065.033-.141.052a1.473 1.473 0 0 1-.457.027Zm-13.875-.347c.068-.034.116-.106.141-.21a.551.551 0 0 0 .013-.183c-.004-.135-.015-.178-.063-.253a.187.187 0 0 0-.085-.079c-.049-.026-.054-.027-.122-.024-.081.003-.123.022-.169.077-.064.076-.09.184-.085.338.008.18.07.301.177.342a.353.353 0 0 0 .193-.008Zm-.229.347c-.294-.055-.49-.29-.52-.629-.042-.458.237-.805.647-.805.113 0 .245.036.334.091a.74.74 0 0 1 .186.182c.133.204.16.52.067.768a.608.608 0 0 1-.27.322.558.558 0 0 1-.295.076c-.059.002-.125 0-.149-.005Zm3.113.358a1.475 1.475 0 0 1-.132-.038.208.208 0 0 1 .015-.064c.054-.167.087-.404.079-.573l-.005-.109.195.002.196.003v.139a.91.91 0 0 1-.019.224 1.59 1.59 0 0 1-.12.352c-.04.084-.05.1-.065.1-.01-.001-.074-.017-.144-.036Zm4.59.08c-.089-.02-.128-.036-.124-.05a6.45 6.45 0 0 0 .033-.154l.03-.14s.026.005.056.014c.065.017.18.02.228.006.043-.014.105-.079.136-.144l.025-.051-.07-.15a7.247 7.247 0 0 1-.425-1.165c0-.003.088-.005.195-.005h.196l.034.125c.073.269.241.783.252.771.016-.017.166-.532.238-.818l.02-.074.19-.002c.157-.002.19 0 .19.009a10.43 10.43 0 0 1-.426 1.236c-.116.276-.18.39-.265.476-.096.096-.19.13-.36.129a.964.964 0 0 1-.153-.012Zm-12.04-.003c-.075-.018-.106-.03-.106-.04 0-.01.053-.268.06-.289.003-.012.008-.012.06.003a.408.408 0 0 0 .14.013c.108-.003.139-.02.195-.108.057-.088.057-.088.005-.196a8.734 8.734 0 0 1-.236-.555 9.303 9.303 0 0 1-.2-.605l-.015-.06.197.003.198.002.038.139c.069.25.224.732.242.753.011.011.158-.485.245-.829l.018-.067h.192c.105 0 .192.002.192.004 0 .01-.106.358-.146.48-.15.456-.355.96-.456 1.123a.488.488 0 0 1-.296.233.967.967 0 0 1-.327-.004ZM2.224 17.481a.581.581 0 0 1-.068-.024.33.33 0 0 1-.134-.141L2 17.266V13.84l3.444-3.918 3.443-3.919 1.489-.002c1.465-.002 1.49-.002 1.54.014.112.036.21.12.255.221a.283.283 0 0 1 .027.122.433.433 0 0 1-.05.235c-.044.098-.088.156-.25.335-.398.438-1.58 1.777-5.413 6.125a741.996 741.996 0 0 1-3.788 4.288.493.493 0 0 1-.213.127.6.6 0 0 1-.26.013Z" fill="#F37D31"/><path d="M11.129 14.251c-.11-.026-.162-.085-.181-.203-.006-.037-.008-.663-.007-2.143l.002-2.09.021-.045c.03-.065.063-.1.117-.126.075-.035.125-.04.439-.037.285.003.29.003.327.022.02.01.048.033.06.05.036.046.113.22.188.423.036.1.07.183.073.187.006.007.11-.119.221-.268.089-.12.224-.265.305-.329.166-.13.301-.166.561-.151.353.02.571.106.941.373.206.148.218.159.243.209.02.04.022.05.02.107-.005.081-.018.11-.217.462-.172.305-.21.358-.284.395a.184.184 0 0 1-.108.023c-.091 0-.133-.018-.214-.09a.978.978 0 0 0-.389-.226 1.068 1.068 0 0 0-.367-.013c-.213.045-.364.176-.55.475l-.043.071v1.355c0 1.18-.002 1.362-.012 1.403a.204.204 0 0 1-.133.156c-.04.017-.05.017-.505.019-.348.001-.476-.001-.508-.009Zm6.513-2.933a.986.986 0 0 0-.11-.196c-.159-.243-.35-.39-.58-.445a1.074 1.074 0 0 0-.317-.022c-.256.032-.515.22-.7.509a.7.7 0 0 0-.08.155c0 .006.284.008.893.008.677 0 .894-.002.894-.01Zm-.898 3.013a2.38 2.38 0 0 1-2.109-1.628 2.234 2.234 0 0 1-.117-.716c-.007-.29.018-.5.088-.754.27-.973 1.057-1.64 1.997-1.692a2.104 2.104 0 0 1 1.48.496c.095.079.286.279.361.378.244.322.397.692.443 1.077.024.205.016.596-.015.68-.041.113-.121.16-.308.18-.047.005-.583.008-1.417.008h-1.342l.006.039c.017.118.077.27.145.367a.95.95 0 0 0 .604.39c.075.018.107.02.248.02.146 0 .17-.003.263-.024.138-.03.294-.085.4-.14a.952.952 0 0 0 .238-.16c.076-.068.142-.101.191-.097.053.006.089.026.15.085.082.079.428.49.453.538a.174.174 0 0 1 .021.097c0 .102-.015.127-.15.25-.366.335-.766.529-1.212.59a3.18 3.18 0 0 1-.418.016Zm5.262-1.261c.45-.102.77-.438.868-.91.022-.107.024-.307.004-.42a1.274 1.274 0 0 0-.18-.463 1.34 1.34 0 0 0-.266-.288 1.176 1.176 0 0 0-.41-.196 1.429 1.429 0 0 0-.386-.015.947.947 0 0 0-.544.287c-.276.287-.391.747-.296 1.18.1.456.412.768.836.836.07.012.304.004.374-.011Zm-.528 1.265c-.754-.068-1.406-.543-1.736-1.264a2.626 2.626 0 0 1-.223-.777 4.3 4.3 0 0 1 0-.712c.04-.292.106-.524.219-.769.191-.415.472-.74.836-.965a2.03 2.03 0 0 1 .99-.307c.271-.014.446.02.647.127.15.08.259.17.44.36.075.079.138.144.14.144 0 0 .003-.396.004-.88l.002-.879.023-.047a.3.3 0 0 1 .058-.08c.066-.06.063-.06.542-.064.288-.001.441 0 .475.007a.308.308 0 0 1 .218.157l.023.044v2.816c0 2.736 0 2.817-.014 2.86a.226.226 0 0 1-.128.133l-.047.02h-.417c-.23 0-.431-.004-.448-.007-.077-.017-.125-.099-.233-.395a3.653 3.653 0 0 0-.06-.16 1.733 1.733 0 0 0-.135.132c-.197.2-.348.32-.51.4-.206.104-.382.132-.666.106ZM28.786 14.254c-.082-.013-.133-.046-.168-.11-.016-.028-1.61-4.08-1.664-4.226a.334.334 0 0 1-.02-.112c-.002-.11.051-.173.16-.191.065-.011.948-.012 1.01-.001.1.017.17.08.206.183a174.376 174.376 0 0 0 .722 2.334c.026.079.051.147.055.15.003.005.012-.01.018-.032l.375-1.254c.237-.789.372-1.228.387-1.255a.24.24 0 0 1 .136-.119c.032-.009.153-.01.572-.01.594 0 .59-.001.648.052.033.03.033.032.036.091a.274.274 0 0 1-.016.118c-.03.088-1.682 4.21-1.704 4.247a.374.374 0 0 1-.126.124c-.028.014-.06.015-.307.016-.151.001-.296-.001-.32-.005Zm-3.512.003a.22.22 0 0 1-.178-.144c-.014-.042-.015-.13-.015-2.175V9.807l.023-.05a.244.244 0 0 1 .12-.128c.039-.019.039-.019.473-.021.456-.003.495 0 .562.032a.436.436 0 0 1 .143.147l.018.036v4.255l-.018.038a.316.316 0 0 1-.047.068c-.073.076-.09.078-.62.077-.242 0-.45-.002-.46-.004Zm8.621-1.187a.954.954 0 0 0 .564-.373c.077-.107.152-.282.187-.439.039-.176.043-.414.01-.589a1.21 1.21 0 0 0-.318-.634.89.89 0 0 0-.656-.265.9.9 0 0 0-.547.168c-.447.31-.606 1.023-.35 1.573a.979.979 0 0 0 .725.567c.09.015.307.01.385-.008Zm-.413 1.266a2.295 2.295 0 0 1-1.896-1.396 2.563 2.563 0 0 1-.148-1.545c.164-.766.69-1.406 1.387-1.689.286-.116.551-.167.87-.167.316 0 .58.05.852.162.56.23 1.005.671 1.254 1.247a2.56 2.56 0 0 1-.009 1.999 2.37 2.37 0 0 1-.985 1.105 2.33 2.33 0 0 1-.799.272c-.107.015-.42.022-.526.012ZM2.268 11.898a.356.356 0 0 1-.226-.199l-.03-.063-.002-2.697c-.002-3.025-.008-2.748.058-2.825a.304.304 0 0 1 .166-.097c.05-.013.135-.014 1.168-.014 1.032 0 1.118.001 1.164.014a.3.3 0 0 1 .15.087c.042.043.066.09.084.161.01.043.012.224.012 1.55v1.5l-.305.352c-1.118 1.296-1.79 2.058-1.881 2.137a.403.403 0 0 1-.358.094Z" fill="#48BBE5"/><path d="M25.255 9.049a.219.219 0 0 1-.162-.162c-.016-.055-.016-.07-.014-.511l.002-.455.023-.047c.024-.05.053-.076.115-.102.032-.013.08-.014.484-.017.47-.003.525 0 .597.032.05.023.095.076.112.132.011.04.013.091.01.474l-.002.43-.026.056a.352.352 0 0 1-.14.154l-.038.02h-.469c-.258.002-.48 0-.492-.004Z" fill="#F37D31"/></svg>