<svg xmlns="http://www.w3.org/2000/svg" width="38" height="24" viewBox="0 0 38 24" role="img" aria-labelledby="pi-krungsri"><title id="pi-krungsri">Krungsri</title><path opacity=".1" d="M35 0H3a3 3 0 0 0-3 3v18a3 3 0 0 0 3 3h32a3 3 0 0 0 3-3V3a3 3 0 0 0-3-3z"/><path fill="#FFF" d="M35 1a2 2 0 0 1 2 2v18a2 2 0 0 1-2 2H3a2 2 0 0 1-2-2V3c0-1.1.9-2 2-2h32"/><path fill="#716160" d="M35.7 6v12H2.3V6h33.4z"/><path fill="#F5F5F5" d="M33 8.4h.6V9a9 9 0 0 1-.6 0v-.6zM16 8.4l.4.4c.1 0 .2.1.1.2v1.3l.9-.8.2-.1h.7L17 10.7l1.3 1.2h-.6l-.4-.1-.5-.6-.2-.2v.7l-.1.2h-.6V8.4zM19.6 9.4h.4v.5c-.2 0-.4 0-.6.2l-.2.6v1l-.1.2h-.5V9.4h.6v.3c.1-.1.2-.3.4-.3zM23.8 9.6c.2-.2.4-.3.7-.3.2 0 .5 0 .6.2.2.2.2.4.3.7v1.6l-.1.1h-.6v-1.5l-.1-.4c-.3-.2-.6 0-.7.2-.2.3 0 .6-.1.9v.8h-.6v-.1-2.4h.5l.1.2zM26 9.7c.4-.4.9-.5 1.3-.3l.3.2v-.2h.5l.1.2v2.3c0 .2-.1.5-.3.7-.3.2-.7.2-1 .2-.3 0-.6-.1-.8-.4a.9.9 0 0 1-.2-.4h.6l.2.2h.5c.1 0 .3 0 .3-.2v-.5a1 1 0 0 1-1.4 0c-.2-.2-.3-.6-.3-.9 0-.3 0-.7.3-1zM29 9.6c.2-.2.5-.3.8-.3.3 0 .7.2 1 .4v.2c-.2 0-.3.2-.4.3 0-.2-.2-.3-.4-.3h-.6v.3l.3.1c.3 0 .7.1 1 .3.2.1.2.4.2.6 0 .2-.2.5-.4.6-.4.2-.8.2-1.2.1-.3 0-.5-.2-.7-.4v-.1l.4-.2.5.2h.7V11l-.4-.2c-.3 0-.6 0-.9-.3-.3-.2-.3-.8 0-1zM31.9 9.7c.1-.2.4-.4.8-.4v.6a1 1 0 0 0-.6.2c-.2.2-.2.4-.2.6v1c0 .1 0 .2-.2.2h-.4V9.4h.5v.3zM20.3 9.4h.6v1.5c0 .1 0 .3.2.4h.4l.4-.1v-.5-1.3h.6l.1.2V11.9H22v-.2l-.6.3c-.3 0-.6 0-.8-.3a1 1 0 0 1-.3-.7V9.4zM33 9.4h.6v2.5H33V9.3z"/><path fill="#716160" d="M27 9.9c.1 0 .3 0 .5.2.2.3.2.7 0 1-.2.1-.5.2-.7 0a.5.5 0 0 1-.3-.3v-.7l.4-.2z"/><path fill="#F5F5F5" d="M23.5 13.2l.3-.2v.7h-1.2l.3-.3h.6v-.2zM21.9 14.1c0-.1.3 0 .4 0l-.2.2.1.4V16H22v-1.2c0-.1 0-.3-.2-.4l-.5.1v.5h.4l-.1.2H21v.8h-.3v-1c0-.3 0-.6.3-.7.2-.2.5-.2.8 0zM16.1 14.2c.2-.1.5-.2.7-.1.2 0 .4 0 .5.3l.1.4V16H17v-1.1l-.1-.4h-.4-.3V16h-.4a105.5 105.5 0 0 1 .2-1.7zM18.3 14l.6.1v.3a.9.9 0 0 0-.5 0l-.2.1c0 .1 0 .2.2.3.2 0 .4.2.5.4.2.2.1.6-.2.7a1 1 0 0 1-.8 0v-.4l.5.2.3-.1v-.3L18 15a.5.5 0 0 1-.1-.5c0-.2.2-.3.4-.3zM23 14.1h.8v.3H23v.3c.3.2.5.2.7.5.2.2 0 .6-.3.7a1 1 0 0 1-.8 0v-.4l.5.2.3-.1v-.3l-.7-.4v-.5c0-.1.1-.3.3-.3zM20 14.1h.3V16h-.5l-.5-1.2h.4c0 .3.2.5.3.8V14zM18.7 16.8v-.7h.2v.5l-.2.2z"/><g fill="#FAD701"><path d="M7 7.7c.5-.3 1.2-.5 1.9-.5a13.7 13.7 0 0 1-.7 4l-.2.5-.6-.9A7 7 0 0 1 7 8.1v-.4zM9.1 7.2c.6 0 1 .1 1.6.3l.5.2a7.3 7.3 0 0 1-.7 3.4l-.5.6-.4-.9a12.4 12.4 0 0 1-.5-3.6zM6.5 8l.1-.2c0 .6 0 1.2-.2 1.7a5 5 0 0 1-.7 1.8 3 3 0 0 1-1.3 1A4.6 4.6 0 0 1 6.5 8zM11.4 7.8l.3.3a4.7 4.7 0 0 1 2 4.3 3 3 0 0 1-1.5-1.2c-.3-.6-.6-1.3-.7-2l-.1-1.4zM6.7 11.3V11l.3.6.5.7.1.2-.2.4c-.4.7-1 1.3-1.6 1.8h-.2c-.2 0-.2-.1-.3-.3a4.7 4.7 0 0 1-.6-1.1c.5-.2 1-.6 1.4-1.1l.6-1zM9 11.3V11v.2l.8 2.3a7 7 0 0 0 1.5 2.3 4.6 4.6 0 0 1-4.5 0 7 7 0 0 0 1.4-2.3c.4-.8.6-1.5.8-2.3zM11.2 11.3V11l.2.2c.2.6.6 1.2 1.1 1.6.3.2.5.4.9.5l-.2.4-.6 1H12.3a5 5 0 0 1-1.4-1.3l-.5-.8v-.1c.4-.4.6-.8.8-1.3z"/></g></svg>