<svg width="38" height="24" viewBox="0 0 38 24" fill="none" xmlns="http://www.w3.org/2000/svg"><title id="pi-landbank">Land Bank</title><path fill="#1CB14D" d="M0 0h120v120H0z"/><path d="M58.9 37.153s-.375 1.917-.412 1.922h.129c-.386.04-.769.097-1.149.172l.104-.032c-.035.007-.968-1.71-.968-1.71l-1.978.62s.215 1.942.181 1.956l.127-.04c-.36.156-.714.329-1.058.517l.1-.07c-.033.018-1.436-1.342-1.436-1.342l-1.703 1.183s.786 1.79.758 1.814l.114-.08c-.301.26-.59.534-.866.82l.08-.103c-.025.026-1.77-.851-1.77-.851l-1.271 1.638s1.284 1.472 1.265 1.503l.087-.111c-.212.34-.407.69-.585 1.049l.048-.128c-.017.032-1.945-.284-1.945-.284l-.723 1.944s1.666 1.02 1.658 1.056l.05-.134c-.1.39-.183.784-.245 1.181l.007-.14c-.006.036-1.94.311-1.94.311l-.11 2.07s1.896.477 1.898.513l.002-.035c.026.427.074.853.143 1.275l-1.623.727.44 1.834c1.76 5.745 7.311 9.702 13.628 9.71 6.317-.008 11.87-3.965 13.628-9.71l.44-1.834-1.632-.731c.074-.457.123-.917.147-1.378l.007.142c.002-.036 1.898-.512 1.898-.512l-.109-2.07s-1.934-.276-1.94-.312l.001.029c-.06-.346-.134-.688-.223-1.027l.034.091c-.009-.035 1.657-1.056 1.657-1.056l-.723-1.944s-1.928.316-1.945.284a12.64 12.64 0 00-.503-.879l.053.07c-.019-.032 1.266-1.504 1.266-1.504l-1.271-1.638s-1.746.877-1.771.851l.01.012a12.6 12.6 0 00-.745-.693l.063.044c-.028-.024.758-1.814.758-1.814l-1.702-1.183s-1.404 1.36-1.436 1.343l.023.016c-.3-.16-.605-.308-.917-.443l.062.02c-.033-.015.182-1.958.182-1.958l-1.979-.62s-.932 1.718-.968 1.71l.038.013c-.333-.064-.67-.115-1.007-.152h.053c-.036-.005-.412-1.922-.412-1.922H58.9z" fill="#FDC14F"/><path fill-rule="evenodd" clip-rule="evenodd" d="M56.892 46.298c-.02 3.157 2.105 5.098 3.01 5.62.903-.522 3.029-2.462 3.008-5.62-.021-3.158-2.105-5.099-3.009-5.62-.904.521-2.988 2.462-3.009 5.62zM47.252 56.548c.376.967.858 1.88 1.434 2.725 5.272-3.2 12.906 2.024 22.025.657a13.596 13.596 0 001.648-2.75c-13.083 4.513-19.759-2.716-25.107-.632z" fill="#1CB14D"/><path fill-rule="evenodd" clip-rule="evenodd" d="M49.718 60.604c.58.659 1.221 1.26 1.916 1.796 8.076-4.328 11.405-.67 15.747.611a13.658 13.658 0 002.25-1.842c-6.914 1-12.125-4.152-19.913-.565z" fill="#1CB14D"/><path d="M58.924 61.407a9.148 9.148 0 00-5.749 2.023 13.549 13.549 0 006.762 1.796c1.944 0 3.792-.408 5.465-1.142a9.147 9.147 0 00-6.478-2.677z" fill="#1CB14D"/><path d="M60.924 57.047H58.95v8.42h1.974v-8.42z" fill="#FDC14F"/><path fill-rule="evenodd" clip-rule="evenodd" d="M52.051 48.065a2.713 2.713 0 00-.196.01c-.292.899-.506 3.549 1.445 6.032.181.23.368.441.56.636 1.271 1.41 3.23 2.363 5.46 2.513v7.955a13.844 13.844 0 001.233 0v-7.955c2.227-.15 4.183-1.1 5.456-2.506a7.777 7.777 0 00.566-.644c1.95-2.482 1.736-5.132 1.444-6.031a2.713 2.713 0 00-.196-.01c-1.072-.016-3.5.468-5.356 2.775-1.58 1.962-1.745 4.06-1.598 5.284a1.28 1.28 0 01-1.864 0c.147-1.224-.017-3.322-1.597-5.285-1.856-2.306-4.285-2.79-5.357-2.774z" fill="#1CB14D"/><path d="M11.1 72.203h3.492v8.517h5.45v2.783H11.1v-11.3zM28.597 81.638H24.62l-.548 1.865h-3.568l4.247-11.3h3.807l4.247 11.3h-3.653l-.555-1.865zm-.732-2.444l-1.249-4.062-1.241 4.062h2.49zM33.938 72.203h3.26l4.256 6.251v-6.25h3.291v11.299h-3.291l-4.232-6.205v6.205h-3.284v-11.3zM47.127 72.203h5.187c1.023 0 1.847.139 2.474.416a4.023 4.023 0 011.565 1.195c.411.52.71 1.123.894 1.812.185.688.278 1.418.278 2.189 0 1.207-.14 2.145-.417 2.813a4.654 4.654 0 01-1.14 1.673c-.489.447-1.013.745-1.573.894-.765.205-1.46.308-2.08.308h-5.188v-11.3zm3.491 2.56v6.173h.856c.73 0 1.249-.08 1.557-.239.308-.164.55-.447.724-.847.175-.406.263-1.062.263-1.966 0-1.197-.196-2.017-.586-2.459-.39-.442-1.038-.663-1.943-.663h-.87zM59.36 72.203h6.535c1.09 0 1.925.27 2.505.81.586.54.88 1.207.88 2.004 0 .668-.209 1.24-.625 1.719-.278.318-.684.57-1.218.755.812.195 1.408.532 1.788 1.01.386.472.578 1.068.578 1.788 0 .586-.136 1.112-.408 1.58a3.008 3.008 0 01-1.118 1.11c-.293.17-.735.293-1.326.37-.786.103-1.307.154-1.564.154h-6.028v-11.3zm3.522 4.432H64.4c.545 0 .922-.092 1.133-.277.216-.19.324-.463.324-.817 0-.33-.108-.586-.324-.771-.21-.185-.58-.277-1.11-.277h-1.541v2.142zm0 4.44h1.78c.601 0 1.025-.105 1.272-.316.247-.216.37-.504.37-.863a.98.98 0 00-.37-.802c-.242-.205-.668-.308-1.28-.308h-1.772v2.289zM78.297 81.638H74.32l-.547 1.865h-3.569l4.247-11.3h3.808l4.247 11.3h-3.654l-.555-1.865zm-.732-2.444l-1.248-4.062-1.241 4.062h2.49zM83.639 72.203h3.26l4.255 6.251v-6.25h3.291v11.299h-3.29l-4.232-6.205v6.205h-3.284v-11.3zM96.796 72.203h3.492v4.27l3.661-4.27h4.641l-4.116 4.263 4.301 7.037h-4.301l-2.382-4.648-1.804 1.889v2.759h-3.492v-11.3z" fill="#FDC14F"/></svg>