<svg xmlns="http://www.w3.org/2000/svg" xmlns:xlink="http://www.w3.org/1999/xlink" width="38" height="24" fill="none" aria-labelledby="pi-latitude_go_au" role="img" viewBox="0 0 38 24"><title id="pi-latitude_go_au">Latitude GO (AU)</title><defs><path id="pi-latitude_go_au-b" fill="#fff" d="M0 0h38v24H0z"/></defs><g clip-path="url(#pi-latitude_go_au-a)"><use xlink:href="#pi-latitude_go_au-b"/><path fill="#E7DE24" d="M37.021-4H38v32.711h-.979z"/><path fill="#AEC736" d="M36.335-4h.686v32.711h-.686z"/><path fill="#E7DE24" d="M35.258-4h1.077v32.711h-1.077z"/><path fill="#82B941" d="M33.495-4h1.763v32.711h-1.763z"/><path fill="#2AA557" d="M32.026-4h1.469v32.711h-1.469z"/><path fill="#9FC458" d="M31.536-4h.49v32.711h-.49z"/><path fill="#00A28F" d="M28.5-4h3.036v32.711H28.5z"/><path fill="#00A7A9" d="M27.521-4h.979v32.711h-.979z"/><path fill="#3569AE" d="M25.562-4h1.959v32.711h-1.959z"/><path fill="#008DBC" d="M23.897-4h1.665v32.711h-1.665z"/><path fill="#91C0D0" d="M22.82-4h1.077v32.711H22.82z"/><path fill="#247DAB" d="M20.273-4h2.546v32.711h-2.546z"/><path fill="#B0C0CC" d="M19.392-4h.881v32.711h-.881z"/><path fill="#5EA6C2" d="M19.098-4h.294v32.711h-.294z"/><path fill="#0B8BB7" d="M18.804-4h.294v32.711h-.294z"/><path fill="#8B8AAE" d="M18.51-4h.294v32.711h-.294z"/><path fill="#0088B4" d="M17.727-4h.784v32.711h-.784z"/><path fill="#9894B2" d="M14.397-4h3.33v32.711h-3.33z"/><path fill="#7C84B3" d="M11.948-4h2.448v32.711h-2.448z"/><path fill="#25315E" d="M9.598-4h2.351v32.711H9.598z"/><path fill="#802D7D" d="M8.619-4h.979v32.711h-.979z"/><path fill="#3C3066" d="M8.129-4h.49v32.711h-.49z"/><path fill="#803F82" d="M6.464-4h1.665v32.711H6.464z"/><path fill="#D3187F" d="M5.289-4h1.175v32.711H5.289z"/><path fill="#A8257C" d="M3.526-4h1.763v32.711H3.526z"/><path fill="#E9A8BF" d="M2.546-4h.979v32.711h-.979z"/><path fill="#D6272A" d="M.979-4h1.567v32.711H.979z"/><path fill="#F2C90A" d="M.686-4H.98v32.711H.686z"/><path fill="#E77D27" d="M0-4h.686v32.711H0z"/><path fill="#0046AA" d="M-.693 4.777h15.657a1.657 1.657 0 0 1 1.658 1.657v11.05a1.657 1.657 0 0 1-1.658 1.657H-.693z"/><path fill="#fff" d="M8.358 9.558a.663.663 0 1 0 0-1.326.663.663 0 0 0 0 1.326m2.083 0a.663.663 0 1 0 0-1.326.663.663 0 0 0 0 1.326"/><path fill="#fff" d="M13.187 15.809v-1.326h-6.25v-6.25H5.611v7.576zm-.662-6.251a.663.663 0 1 0 0-1.326.663.663 0 0 0 0 1.326"/><path fill="#fff" d="M12.525 13.725a.663.663 0 1 0 0-1.326.663.663 0 0 0 0 1.326m0-2.083a.663.663 0 1 0 0-1.325.663.663 0 0 0 0 1.325"/><path fill="#fff" fill-rule="evenodd" d="M26.963 9.985a1.974 1.974 0 1 0 1.983 1.974 1.93 1.93 0 0 0-1.983-1.974m-5.594-.653a2.57 2.57 0 0 1 1.968.793l-.454.455a2.03 2.03 0 0 0-1.485-.6 1.974 1.974 0 1 0-.007 3.948c.424.01.841-.105 1.2-.331v-.968h-.975v-.7h1.678v2a3.03 3.03 0 0 1-1.939.653 2.627 2.627 0 0 1-2.51-3.664 2.63 2.63 0 0 1 2.525-1.59zm5.594 0a2.628 2.628 0 1 1-2.729 2.627 2.6 2.6 0 0 1 2.729-2.627" clip-rule="evenodd"/></g><defs><clipPath id="pi-latitude_go_au-a"><use xlink:href="#pi-latitude_go_au-b"/></clipPath></defs></svg>