<svg xmlns="http://www.w3.org/2000/svg" fill="none" viewBox="0 0 38 24" height="24" width="38" aria-labelledby="pi-latitudepay" role="img"><title id="pi-latitudepay">LatitudePay</title><path fill="#fff" d="M0 0h38v24H0z"/><path fill="#0049A8" d="M5 15.187h7.875V16.9H3.329V7.1H5v8.087Zm1.79-6.374a.858.858 0 1 0-.836-.858.847.847 0 0 0 .836.858Zm2.625 0a.858.858 0 1 0-.836-.858.847.847 0 0 0 .836.858Zm2.625 3.677a.858.858 0 1 0 .835.858.848.848 0 0 0-.835-.858Zm0-2.7a.858.858 0 1 0 .594.259.847.847 0 0 0-.594-.255V9.79Zm10.329 1.587a1.427 1.427 0 0 1-.468 1.131c-.363.291-.82.437-1.285.411h-1.039v1.234h-.6V9.839h1.64c.464-.026.922.12 1.285.411a1.426 1.426 0 0 1 .467 1.131v-.004Zm-.6 0a.828.828 0 0 0-.3-.687 1.374 1.374 0 0 0-.871-.239h-1.02v1.851H20.6c.309.02.616-.063.871-.239a.825.825 0 0 0 .298-.682v-.004Zm5.082-1.542 1.909 4.318h-.63l-.53-1.23h-2.1l-.527 1.234h-.618l1.9-4.318.596-.004Zm.489 2.467-.79-1.851-.789 1.851h1.579Zm6.65-2.467-1.51 2.467-1.509-2.463h-.7l1.892 3.084v1.234h.637v-1.234l1.872-3.084-.682-.004ZM12.04 7.1a.858.858 0 1 0 .835.857.848.848 0 0 0-.835-.857Z"/></svg>