<svg xmlns="http://www.w3.org/2000/svg" viewBox="0 0 38 24">
  <defs>
    <style>
      .a {
        fill: #e8e8e8;
      }

      .b {
        fill: #fff;
      }

      .c {
        fill: #007bc2;
      }
    </style>
  </defs>
  <title>lawson</title>
  <g>
    <path class="a" d="M35,0H3A3,3,0,0,0,0,3V21a3,3,0,0,0,3,3H35a3,3,0,0,0,3-3V3A3,3,0,0,0,35,0Z" transform="translate(0 0)"/>
    <path class="b" d="M35,1a2,2,0,0,1,2,2V21a2,2,0,0,1-2,2H3a2,2,0,0,1-2-2V3A2,2,0,0,1,3,1H35" transform="translate(0 0)"/>
  </g>
  <g>
    <path class="c" d="M21.67,12.3H24c.2,0,.2.06.2.17v.85c0,.21,0,.29-.35.29H21.7c-.08,0-.19,0-.19-.13v-.66c0-.11,0-.15-.15-.15h-.48c-.07,0-.14,0-.14.15V14c0,.39.16.63.66.63h2.77a.7.7,0,0,0,.77-.74V12.18c0-.37-.28-.66-.78-.66H21.73c-.12,0-.23,0-.23-.19v-.78c0-.09,0-.16.2-.16H24c.22,0,.17,0,.17.2V11c0,.12.1.12.21.12h.43c.12,0,.14-.06.14-.15v-.69c0-.69-.24-.93-.81-.93H21.71c-.63,0-1,0-1,.93v.61h0v.73c0,.43.27.63.94.63" transform="translate(0 0)"/>
    <path class="c" d="M26.54,12.09V10.64c0-.2.11-.24.23-.24H29c.15,0,.2,0,.2.16v2.88c0,.17-.1.17-.2.17H26.76c-.15,0-.22,0-.22-.18Zm0,2.52h2.57c.57,0,.86-.19.86-.87V10.32c0-.63-.26-.93-.83-.93H26.61c-.53,0-.85.22-.85.93v3.53c0,.44.2.76.79.76" transform="translate(0 0)"/>
    <path class="c" d="M1.94,10.39h.69v3.21H2a.12.12,0,0,0-.12.12v.77a.11.11,0,0,0,.12.12H6a.11.11,0,0,0,.12-.12V12.73A.12.12,0,0,0,6,12.61H5.48a.12.12,0,0,0-.12.12v.88h-2V10.39h.65a.12.12,0,0,0,.12-.12V9.51a.12.12,0,0,0-.12-.12H1.94a.12.12,0,0,0-.12.12v.77a.12.12,0,0,0,.12.12" transform="translate(0 0)"/>
    <path class="c" d="M9.55,11.22l.59,1.07H8.94ZM6.73,14.61H8.85A.12.12,0,0,0,9,14.49v-.77a.12.12,0,0,0-.12-.12H8.19l.31-.54h2.08l.3.54h-.64a.12.12,0,0,0-.12.12v.77a.12.12,0,0,0,.12.12h2.12a.11.11,0,0,0,.12-.12v-.77a.12.12,0,0,0-.12-.12h-.59L10,10.39h.67a.12.12,0,0,0,.12-.12V9.51a.12.12,0,0,0-.12-.12H8.53a.12.12,0,0,0-.12.12v.77a.12.12,0,0,0,.12.12h.59L7.3,13.61H6.73a.12.12,0,0,0-.12.12v.77a.12.12,0,0,0,.12.12" transform="translate(0 0)"/>
    <path class="c" d="M11.62,10.39h.64l1.59,3.21H13.2a.12.12,0,0,0-.12.12v.77a.11.11,0,0,0,.12.12h2.12a.12.12,0,0,0,.12-.12v-.77a.12.12,0,0,0-.12-.12h-.59l1.15-2.35L17,13.61h-.63a.12.12,0,0,0-.12.12v.77a.12.12,0,0,0,.12.12h2.12a.11.11,0,0,0,.12-.12v-.77a.12.12,0,0,0-.12-.12h-.6l1.57-3.21h.62a.12.12,0,0,0,.12-.12V9.51a.12.12,0,0,0-.12-.12H18a.12.12,0,0,0-.12.12v.77a.12.12,0,0,0,.12.12h.64l-1.16,2.36-1.17-2.36h.62a.12.12,0,0,0,.12-.12V9.51a.12.12,0,0,0-.12-.12H14.82a.12.12,0,0,0-.12.12v.77a.12.12,0,0,0,.12.12h.62l-1.14,2.34-1.16-2.34h.62a.12.12,0,0,0,.12-.12V9.51a.12.12,0,0,0-.12-.12H11.62a.12.12,0,0,0-.12.12v.77a.12.12,0,0,0,.12.12" transform="translate(0 0)"/>
    <path class="c" d="M30.6,14.61h2.12a.11.11,0,0,0,.12-.12v-.77a.12.12,0,0,0-.12-.12H32v-2.3h0l2.46,2.3h-.55a.12.12,0,0,0-.12.12v.77a.11.11,0,0,0,.12.12h2.12a.11.11,0,0,0,.12-.12v-.77a.12.12,0,0,0-.12-.12h-.68V10.39h.68a.12.12,0,0,0,.12-.12V9.51a.12.12,0,0,0-.12-.12H33.94a.12.12,0,0,0-.12.12v.77a.12.12,0,0,0,.12.12h.67v2.26h0l-2.41-2.26h.53a.12.12,0,0,0,.12-.12V9.51a.12.12,0,0,0-.12-.12H30.6a.12.12,0,0,0-.12.12v.77a.12.12,0,0,0,.12.12h.65v3.21H30.6a.12.12,0,0,0-.12.12v.77a.11.11,0,0,0,.12.12" transform="translate(0 0)"/>
  </g>
</svg>
