<svg xmlns="http://www.w3.org/2000/svg" width="38" height="24" fill="none" aria-labelledby="pi-line_pay" role="img" viewBox="0 0 38 24"><title id="pi-line_pay">LINE Pay</title><path fill="#fff" d="M0 0h38v24H0z"/><path fill="#000" fill-rule="evenodd" d="M8.274 9.098h-.843c-.13 0-.234.097-.234.215v4.816c0 .119.105.215.234.215h.843c.13 0 .234-.096.234-.215V9.313c0-.118-.105-.215-.234-.215M6.447 13.14H4.262V9.313a.22.22 0 0 0-.226-.215h-.81A.22.22 0 0 0 3 9.313v4.816a.22.22 0 0 0 .226.215h3.22a.22.22 0 0 0 .207-.131.2.2 0 0 0 .019-.084v-.774a.22.22 0 0 0-.225-.215m11.54-2.838a.22.22 0 0 0 .207-.131.2.2 0 0 0 .019-.084v-.774a.22.22 0 0 0-.226-.215h-3.22a.22.22 0 0 0-.226.215v4.816a.22.22 0 0 0 .226.215h3.22a.22.22 0 0 0 .207-.131.2.2 0 0 0 .019-.084v-.774a.22.22 0 0 0-.226-.215h-2.185v-.817h2.185a.22.22 0 0 0 .207-.131.2.2 0 0 0 .019-.084v-.774a.22.22 0 0 0-.226-.215h-2.185v-.817zM13.529 9.1h-.813a.22.22 0 0 0-.226.215V12.1l-2.128-2.895c-.06-.082-.15-.106-.25-.106q-.02-.002-.039 0H9.26a.22.22 0 0 0-.226.215v4.815a.22.22 0 0 0 .226.215h.813a.22.22 0 0 0 .207-.131.2.2 0 0 0 .019-.084v-2.91l2.219 3.02q.012.015.026.03a.23.23 0 0 0 .156.075h.83a.22.22 0 0 0 .206-.131.2.2 0 0 0 .019-.084V9.314a.22.22 0 0 0-.226-.215" clip-rule="evenodd"/><path fill="#00C34D" fill-rule="evenodd" d="M34.456 16.443H20.593a.545.545 0 0 1-.544-.548V7.547A.546.546 0 0 1 20.593 7h13.863a.546.546 0 0 1 .544.547v8.348a.546.546 0 0 1-.544.548" clip-rule="evenodd"/><path fill="#fff" fill-rule="evenodd" d="M24.57 10.89c0-.325-.222-.574-.525-.574h-.648v1.147h.648c.303 0 .525-.249.525-.573m.987 0c0 .847-.66 1.528-1.512 1.528h-.648v1.252a.15.15 0 0 1-.145.15h-.697a.15.15 0 0 1-.145-.15V9.51c0-.082.065-.15.145-.15h1.49c.852 0 1.512.682 1.512 1.53m2.722.962c0-.484-.317-.787-.754-.787-.438 0-.755.303-.755.787s.317.788.755.788c.437 0 .754-.303.754-.788m.95-1.534v3.069a.08.08 0 0 1-.022.056.08.08 0 0 1-.056.024h-.794a.08.08 0 0 1-.078-.08v-.224c-.21.246-.52.394-.945.394-.83 0-1.514-.742-1.514-1.705 0-.962.684-1.704 1.514-1.704.425 0 .736.148.945.393v-.223a.08.08 0 0 1 .078-.08h.794a.08.08 0 0 1 .079.08zm2.952-.088-.71 1.846-.735-1.847a.13.13 0 0 0-.118-.081h-.787a.078.078 0 0 0-.071.108l1.225 3.082-.446 1.16c-.02.052.017.109.07.109h.789a.13.13 0 0 0 .118-.083l1.642-4.268c.02-.052-.017-.108-.07-.108h-.789a.13.13 0 0 0-.118.082" clip-rule="evenodd"/></svg>