<svg xmlns="http://www.w3.org/2000/svg" role="img" viewBox="0 0 38 24" width="38" height="24" aria-labelledby="pi-linkpay"><title id="pi-linkpay">LinkPay</title><path fill="#000" opacity=".07" d="M35 0H3C1.3 0 0 1.3 0 3v18c0 1.7 1.4 3 3 3h32c1.7 0 3-1.3 3-3V3c0-1.7-1.4-3-3-3z"/><path fill="#fff" d="M35 1c1.1 0 2 .9 2 2v18c0 1.1-.9 2-2 2H3c-1.1 0-2-.9-2-2V3c0-1.1.9-2 2-2h32"/><path d="M1.03,8.79c0.57,0,1.03-0.46,1.03-1.02c0-0.56-0.46-1.02-1.03-1.02S0,7.21,0,7.77C0,8.34,0.46,8.79,1.03,8.79z"/><path d="M22.59,8.53h-1.47V6.92h1.47V8.53z M22.59,17.08h-1.47V9.54h1.47V17.08z"/><path d="M27.74,9.4c1.83,0,2.54,1.18,2.54,2.93v4.75h-1.47v-4.36c0-1.09-0.18-2.1-1.57-2.1c-1.27,0-1.89,0.91-1.89,2.41v4.05h-1.47V9.54h1.47v1.09C25.79,9.89,26.55,9.4,27.74,9.4z"/><path d="M32.98,12.76L36,9.54h1.79l-2.95,3.11L38,17.08h-1.75l-2.41-3.38l-0.86,0.91v2.47h-1.47V6.92h1.47V12.76z"/><path d="M0,13.41l0.01-2.81c0-0.27,0.11-0.53,0.3-0.72c0.19-0.19,0.45-0.3,0.73-0.3s0.53,0.11,0.73,0.3c0.19,0.19,0.3,0.45,0.3,0.72l-0.01,2.81c0,0.48,0.19,0.94,0.53,1.27c0.34,0.34,0.8,0.53,1.28,0.53c0.48,0,0.94-0.19,1.28-0.53c0.34-0.34,0.53-0.8,0.53-1.27v-2.92c0-0.27,0.11-0.53,0.3-0.72c0.19-0.19,0.45-0.3,0.73-0.3s0.53,0.11,0.73,0.3c0.19,0.19,0.3,0.45,0.3,0.72v2.92c0,1.02-0.41,2-1.13,2.72c-0.72,0.72-1.71,1.12-2.73,1.12c-1.02,0-2.01-0.4-2.73-1.12C0.41,15.4,0,14.43,0,13.41z"/><path d="M9.53,17.25c0.57,0,1.03-0.46,1.03-1.02c0-0.56-0.46-1.02-1.03-1.02c-0.57,0-1.03,0.46-1.03,1.02C8.5,16.79,8.96,17.25,9.53,17.25z"/><path d="M10.57,10.59l-0.01,2.81c0,0.27-0.11,0.53-0.3,0.72c-0.19,0.19-0.45,0.3-0.73,0.3S9,14.32,8.81,14.12c-0.19-0.19-0.3-0.45-0.3-0.72l0.01-2.81c0-0.48-0.19-0.94-0.53-1.27C7.64,8.98,7.18,8.79,6.7,8.79S5.76,8.98,5.42,9.32c-0.34,0.34-0.53,0.8-0.53,1.27v2.92c0,0.27-0.11,0.53-0.3,0.72c-0.19,0.19-0.45,0.3-0.73,0.3s-0.53-0.11-0.73-0.3c-0.19-0.19-0.3-0.45-0.3-0.72v-2.92c0-1.02,0.41-2,1.13-2.72C4.69,7.15,5.68,6.75,6.7,6.75s2.01,0.4,2.73,1.13C10.16,8.6,10.57,9.57,10.57,10.59z"/><path d="M20.26,15.72v1.36h-6.49V6.92h1.61v8.81H20.26z"/></svg>