<svg xmlns="http://www.w3.org/2000/svg" role="img" viewBox="0 0 38 24" width="38" height="24" aria-labelledby="pi-linkpay"><title id="pi-linkpay">LinkPay</title><path fill="#000" opacity=".07" d="M35 0H3C1.3 0 0 1.3 0 3v18c0 1.7 1.4 3 3 3h32c1.7 0 3-1.3 3-3V3c0-1.7-1.4-3-3-3z"/><path fill="#fff" d="M35 1c1.1 0 2 .9 2 2v18c0 1.1-.9 2-2 2H3c-1.1 0-2-.9-2-2V3c0-1.1.9-2 2-2h32"/><path class="st0" d="M9.43 13.56l.01-4.79a1.741 1.741 0 013.48 0l-.01 4.79a3.07 3.07 0 006.14 0V8.6c0-.96.78-1.74 1.74-1.74s1.71.78 1.71 1.74v4.97c0 1.75-.68 3.39-1.91 4.62a6.506 6.506 0 01-4.62 1.91c-1.75 0-3.39-.68-4.62-1.91a6.497 6.497 0 01-1.92-4.63z"/><circle class="st0" cx="11.17" cy="3.97" r="1.74"/><circle class="st0" cx="25.55" cy="18.36" r="1.74"/><path class="st0" d="M27.3 8.77l-.01 4.79a1.741 1.741 0 01-3.48 0l.01-4.79a3.07 3.07 0 00-6.14 0v4.97a1.741 1.741 0 01-3.48 0V8.77c0-1.75.68-3.39 1.91-4.62a6.506 6.506 0 014.62-1.91c1.75 0 3.39.68 4.62 1.91a6.366 6.366 0 011.95 4.62z"/></svg>