<svg xmlns="http://www.w3.org/2000/svg" fill="none" viewBox="0 0 38 24" height="24" width="38" aria-labelledby="pi-linkpay" role="img"><title id="pi-linkpay">LinkPay</title><path fill="#fff" d="M0 0h38v24H0z"/><path fill="#000" d="M19.93 14.78v1.01h-4.79V8.24h1.19v6.54h3.6Zm1.72-5.34h-1.08v-1.2h1.08v1.2Zm0 6.35h-1.08v-5.6h1.08v5.6Zm3.8-5.71c1.35 0 1.87.87 1.87 2.18v3.53h-1.08v-3.24c0-.81-.14-1.56-1.16-1.56-.94 0-1.4.68-1.4 1.79v3.01H22.6v-5.6h1.08V11c.32-.55.89-.92 1.76-.92h.01Zm3.87 2.5 2.23-2.39h1.32l-2.18 2.31 2.33 3.29h-1.29l-1.78-2.51-.64.68v1.83h-1.08V8.24h1.08v4.34h.01Zm-24.34.48v-2.09a.76.76 0 1 1 1.52 0v2.09c0 .74.59 1.34 1.33 1.34.74 0 1.34-.6 1.34-1.34v-2.17c0-.42.33-.76.74-.77.42 0 .76.33.77.74v2.2c0 1.57-1.28 2.85-2.85 2.85-.76 0-1.48-.3-2.01-.83-.54-.53-.84-1.26-.84-2.02Zm.76-3.43a.76.76 0 1 0 0-1.52.76.76 0 0 0 0 1.52Zm6.27 6.28a.76.76 0 1 0 0-1.52.76.76 0 0 0 0 1.52Z"/><path fill="#000" d="M12.77 10.97v2.09c0 .42-.33.76-.75.77-.42 0-.76-.33-.77-.74v-2.12c0-.74-.59-1.34-1.33-1.34-.74 0-1.34.6-1.34 1.34v2.17a.76.76 0 1 1-1.52 0v-2.17a2.864 2.864 0 0 1 2.83-2.88 2.864 2.864 0 0 1 2.88 2.83v.05Z"/></svg>