<svg xmlns="http://www.w3.org/2000/svg" role="img" viewBox="0 0 38 24" width="38" height="24" aria-labelledby="pi-link-pay">
    <title id="pi-link-pay">LinkPay</title>
    <path fill="#000" opacity=".07" d="M35 0H3C1.3 0 0 1.3 0 3v18c0 1.7 1.4 3 3 3h32c1.7 0 3-1.3 3-3V3c0-1.7-1.4-3-3-3z"/>
    <path fill="#fff" d="M35 1c1.1 0 2 .9 2 2v18c0 1.1-.9 2-2 2H3c-1.1 0-2-.9-2-2V3c0-1.1.9-2 2-2h32"/>
<g>
	<g>
		<path class="st0" d="M9.43,13.56l0.01-4.79c0-0.96,0.78-1.74,1.74-1.74s1.74,0.78,1.74,1.74l-0.01,4.79
			c0,1.69,1.37,3.07,3.07,3.07s3.07-1.37,3.07-3.07V8.6c0-0.96,0.78-1.74,1.74-1.74S22.5,7.64,22.5,8.6v4.97
			c0,1.75-0.68,3.39-1.91,4.62c-1.23,1.23-2.88,1.91-4.62,1.91c-1.75,0-3.39-0.68-4.62-1.91C10.11,16.95,9.43,15.31,9.43,13.56z"/>
		<circle class="st0" cx="11.17" cy="3.97" r="1.74"/>
		<circle class="st0" cx="25.55" cy="18.36" r="1.74"/>
		<path class="st0" d="M27.3,8.77l-0.01,4.79c0,0.96-0.78,1.74-1.74,1.74s-1.74-0.78-1.74-1.74l0.01-4.79
			c0-1.69-1.37-3.07-3.07-3.07c-1.69,0-3.07,1.37-3.07,3.07v4.97c0,0.96-0.78,1.74-1.74,1.74s-1.74-0.78-1.74-1.74V8.77
			c0-1.75,0.68-3.39,1.91-4.62c1.23-1.23,2.88-1.91,4.62-1.91c1.75,0,3.39,0.68,4.62,1.91C26.62,5.38,27.3,7.02,27.3,8.77z"/>
	</g>
</g>
</svg>