<svg xmlns="http://www.w3.org/2000/svg" role="img" viewBox="0 0 38 24" width="38" height="24" aria-labelledby="pi-linkpay"><title id="pi-linkpay">LinkPay</title><path fill="#000" opacity=".07" d="M35,0H3C1.3,0,0,1.3,0,3V21c0,1.7,1.4,3,3,3H35c1.7,0,3-1.3,3-3V3c0-1.7-1.4-3-3-3Z"/><path fill="#fff" d="M35,1c1.1,0,2,.9,2,2V21c0,1.1-.9,2-2,2H3c-1.1,0-2-.9-2-2V3C1,1.9,1.9,1,3,1H35"/><g><path d="M19.93,14.78v1.01h-4.79v-7.55h1.19v6.54h3.6Z"/><path d="M21.65,9.44h-1.08v-1.2h1.08v1.2Zm0,6.35h-1.08v-5.6h1.08v5.6Z"/><path d="M25.45,10.08c1.35,0,1.87,.87,1.87,2.18v3.53h-1.08v-3.24c0-.81-.14-1.56-1.16-1.56-.94,0-1.4,.68-1.4,1.79v3.01h-1.08v-5.6h1.08v.81c.32-.55,.89-.92,1.76-.92Z"/><path d="M29.32,12.58l2.23-2.39h1.32l-2.18,2.31,2.33,3.29h-1.29l-1.78-2.51-.64,.68v1.83h-1.08v-7.55h1.08v4.34Z"/><path d="M4.98,13.06v-2.09c0-.42,.34-.76,.76-.76s.76,.34,.76,.76v2.09c0,.74,.59,1.34,1.33,1.34,.74,0,1.34-.6,1.34-1.34v-2.17c0-.42,.33-.76,.74-.77,.42,0,.76,.33,.77,.74,0,0,0,.02,0,.03v2.17c0,1.57-1.28,2.85-2.85,2.85-.76,0-1.48-.3-2.01-.83-.54-.53-.84-1.26-.84-2.02Z"/><circle cx="5.74" cy="8.87" r=".76"/><circle cx="12.01" cy="15.15" r=".76"/><path d="M12.77,10.97v2.09c0,.42-.33,.76-.75,.77-.42,0-.76-.33-.77-.74,0,0,0-.02,0-.03v-2.09c0-.74-.59-1.34-1.33-1.34-.74,0-1.34,.6-1.34,1.34v2.17c0,.42-.34,.76-.76,.76-.42,0-.76-.34-.76-.76v-2.17c-.01-1.57,1.25-2.86,2.83-2.88,1.57-.01,2.86,1.25,2.88,2.83,0,.02,0,.03,0,.05h0Z"/></g></svg>