<svg xmlns="http://www.w3.org/2000/svg" fill="none" viewBox="0 0 38 24" height="24" width="38" aria-labelledby="pi-lku" role="img"><title id="pi-lku">LKU</title><path fill="#fff" d="M0 0h38v24H0z"/><path fill="#5F5F5D" d="M19.027 14.207a.162.162 0 0 1-.162-.16V9.89a.161.161 0 0 1 .162-.16h.625a.16.16 0 0 1 .161.16v3.371a.163.163 0 0 0 .162.161h1.49a.163.163 0 0 1 .162.162v.461a.162.162 0 0 1-.161.161h-2.44Zm6.813-.137c.047.076.013.137-.076.137h-.753a.323.323 0 0 1-.247-.137l-1.001-1.612a.15.15 0 0 0-.216-.043l-.139.105a.337.337 0 0 0-.131.25v1.276a.162.162 0 0 1-.161.161h-.626a.162.162 0 0 1-.161-.16V9.89a.16.16 0 0 1 .161-.16h.626c.088 0 .161.072.161.16v1.726c0 .089.042.103.093.03l.187-.263c.063-.087.127-.173.194-.258l1.01-1.27a.38.38 0 0 1 .262-.126h.73c.088 0 .116.057.06.127l-1.36 1.728a.246.246 0 0 0-.013.263l1.4 2.223Zm4.177-4.34a.162.162 0 0 1 .162.161v2.575c0 .089-.009.233-.02.322 0 0-.054.46-.202.709-.148.25-.361.44-.64.573-.28.132-.61.199-.992.199-.575 0-1.021-.148-1.34-.443-.317-.295-.476-.699-.476-1.211V9.89a.16.16 0 0 1 .161-.16h.622a.16.16 0 0 1 .161.16v2.419c0 .088.009.233.02.322 0 0 .05.437.189.599.138.16.368.241.688.241.31 0 .535-.08.674-.243.14-.162.21-.417.21-.764V9.891a.16.16 0 0 1 .161-.16h.622Z"/><path fill="#9AC328" d="M8.236 9.246c-.108.059-.109.156-.002.216l1.699.951c.107.06.282.062.39.003l4.02-2.181c.107-.059.107-.155 0-.215l-1.713-.95a.458.458 0 0 0-.391 0L8.236 9.245Zm-.212 3.05c-.108-.06-.196-.008-.197.115l-.008 1.863c0 .122.086.272.194.33l1.705.948c.108.06.283.06.391.002l1.72-.935c.108-.059.109-.155.002-.214l-3.807-2.11Zm6.48.658a.452.452 0 0 0 .39 0l1.91-1.037a.417.417 0 0 0 .198-.33l.008-1.662c0-.122-.087-.175-.196-.117l-3.837 2.09c-.107.059-.107.155 0 .215l1.527.84Zm-2.293-1.267a.45.45 0 0 0 .39.001l4.016-2.19c.108-.057.109-.153.001-.213l-1.512-.839a.451.451 0 0 0-.39-.001L10.7 10.628c-.107.058-.108.155-.001.214l1.512.845Zm1.911 1.688c.108-.058.108-.155.001-.214L8.034 9.768c-.106-.06-.194-.01-.195.113l-.008 1.668c0 .122.087.271.194.33l4.184 2.32c.108.06.283.06.391.002l1.522-.826Zm-3.635 2.39c-.108.059-.108.155 0 .214l1.71.95c.107.059.283.06.39 0l4.231-2.304a.412.412 0 0 0 .194-.329L17 12.45c0-.123-.089-.175-.197-.116l-6.316 3.43Z"/></svg>