<svg xmlns="http://www.w3.org/2000/svg" width="38" height="24" fill="none" aria-labelledby="pi-lotte_card" role="img" viewBox="0 0 38 24"><title id="pi-lotte_card">Lotte Card</title><path fill="#fff" d="M0 0h38v24H0z"/><path fill="#ED1C24" d="M12.83 6c-1.99 0-3.206 1.208-3.184 2.716-.016 1.49 1.19 2.705 3.178 2.713s3.17-1.22 3.146-2.724C15.998 7.205 14.8 6 12.83 6m-.017 4.835c-.961-.008-1.685-.955-1.662-2.129-.013-1.187.703-2.128 1.657-2.128s1.654.953 1.672 2.128-.726 2.129-1.667 2.129m8.884-4.644-5.453-.004.03.61 2.066-.014.01 4.418 1.567-.01-.007-4.395 1.788-.013zm5.967.007-5.45-.005.005.613 1.788-.014.006 4.398 1.557-.013.02-4.378 2.09-.016zM6.801 10.584a.27.27 0 0 1-.293-.273V6.187H5v4.407a.596.596 0 0 0 .614.596l3.84-.013v-.581L6.8 10.584zM30.09 6.79l2.907-.014v-.575h-4.144a.59.59 0 0 0-.585.575l-.014 3.83a.605.605 0 0 0 .615.589l4.108-.01.023-.571h-2.92a.33.33 0 0 1-.294-.303l.016-1.466h3.13l.007-.589h-3.18l.029-1.16a.31.31 0 0 1 .303-.295"/><path fill="#B3938B" d="M15.964 13.126h-1.178l-3.004 5.189h1.163l.665-1.104 3.53-.018.665 1.127.897-.009h.232l-.066-.108zm-1.864 3.13 1.264-2.171 1.268 2.178zm18.14-2.412a3.07 3.07 0 0 0-2.1-.73h-3.555v5.207h3.655a2.87 2.87 0 0 0 1.928-.698 2.29 2.29 0 0 0 .83-1.852v-.018c0-.793-.264-1.444-.776-1.914l.017.005zm-.8 3.065a1.4 1.4 0 0 1-1.141.449h-2.704l-.016-3.31h2.553c.469-.015.925.151 1.275.464.347.315.498.717.515 1.239-.035.472-.15.849-.482 1.15zM5.804 13.847c-.537.467-.797 1.12-.804 1.917a2.5 2.5 0 0 0 .847 1.866c.535.469 1.23.713 1.94.683h3.425l.05-.939-3.55-.013a1.6 1.6 0 0 1-1.164-.444 1.79 1.79 0 0 1-.346-1.836c.086-.213.216-.406.381-.566a1.77 1.77 0 0 1 1.275-.464l3.39.014-.014-.944-3.298-.013c-.882 0-1.605.246-2.132.739m18.558 2.504c.831-.156 1.213-.788 1.226-1.572 0-.507-.14-.892-.448-1.194-.28-.303-.736-.469-1.35-.46l-4.266-.007v5.197h1.007l.022-4.25 3.017-.019c.704.025.952.21.967.722-.012.498-.251.686-.952.702H20.41v.934h2.768l1.472 1.914h1.208l-.101-.155z"/></svg>