<svg xmlns="http://www.w3.org/2000/svg" fill="none" viewBox="0 0 38 24" height="24" width="38" aria-labelledby="pi-lpb" role="img"><title id="pi-lpb">LPB</title><path fill="#fff" d="M0 0h38v24H0z"/><path fill="#000" d="M6.633 10.276v3.447l2.905 2.288 2.905-2.288v-3.447l-2.905 2.288V7.989l-2.905 2.287Zm16.194-1.008c.328 0 .616.032.857.097.24.065.433.162.575.295.135.137.241.317.317.548.077.23.117.508.117.836 0 .965-.62 1.448-1.862 1.448h-3.018v1.505l-.733.818V9.268h3.747Zm-3.022 2.496h2.997c.364 0 .63-.036.801-.115v.007a.539.539 0 0 0 .256-.252.882.882 0 0 0 .08-.393v-.27a.805.805 0 0 0-.08-.382.542.542 0 0 0-.256-.245 1.322 1.322 0 0 0-.328-.093 3.459 3.459 0 0 0-.477-.033h-2.992v1.776Zm9.353-2.496c1.294 0 1.943.472 1.943 1.415 0 .555-.135.94-.405 1.16.445.216.67.649.67 1.3 0 .303-.043.566-.127.786-.084.223-.222.4-.412.533a1.516 1.516 0 0 1-.583.252 3.78 3.78 0 0 1-.83.08h-4.185V9.267h3.929Zm-3.215 2.283h3.445c.346 0 .586-.05.714-.147.193-.098.292-.306.292-.627 0-.274-.084-.472-.255-.598-.172-.126-.423-.187-.759-.187h-3.433v1.56h-.004Zm0 2.525h3.674c.357 0 .624-.075.791-.23.168-.155.252-.39.252-.702 0-.343-.088-.584-.266-.717a.978.978 0 0 0-.321-.123 2.291 2.291 0 0 0-.481-.043h-3.645v1.816h-.004ZM14.466 9.268v4.808h3.893l-.755.714h-3.852V9.909l.714-.641Z"/></svg>