<svg xmlns="http://www.w3.org/2000/svg" width="38" height="24" fill="none" aria-labelledby="pi-luminor" role="img" viewBox="0 0 38 24"><title id="pi-luminor">Luminor</title><path fill="#fff" d="M0 0h38v24H0z"/><path fill="#481335" d="M18.222 11.004c-.29-.03-.583.013-.848.125-.264.111-.49.287-.653.507v.05a1.6 1.6 0 0 0-.657-.511 1.75 1.75 0 0 0-.853-.129c-.288-.03-.58.014-.843.126a1.55 1.55 0 0 0-.649.506v.05l-.389-.573h-.806v4.217h1.177v-2.15c0-.844.306-1.19.926-1.19s.843.32.843.987v2.269h1.288v-2.092c0-.793.296-1.155.926-1.155.371 0 .871.101.871.986v2.26h1.26V12.69c0-1.164-.5-1.686-1.593-1.686m-7.82 2.184c.025.199-.005.4-.087.586a1.2 1.2 0 0 1-.385.476 1.4 1.4 0 0 1-.583.118c-.732 0-.927-.38-.927-.995v-2.251H7.18v2.589c0 1.163.639 1.686 1.77 1.686.298.034.6-.012.869-.133a1.47 1.47 0 0 0 .641-.55l.388.574h.806v-4.166h-1.25zm19.456-2.184a2.8 2.8 0 0 0-1 .151 2.6 2.6 0 0 0-.853.498c-.432.42-.668.977-.658 1.552a2.08 2.08 0 0 0 .658 1.543c.244.217.535.386.853.498.319.112.659.164 1 .152.326.019.653-.024.96-.127.306-.102.586-.262.821-.468s.42-.455.545-.73c.124-.275.184-.57.175-.868a2 2 0 0 0-.172-.87 2.14 2.14 0 0 0-.544-.733 2.4 2.4 0 0 0-.823-.47 2.6 2.6 0 0 0-.962-.128m0 3.423a1.4 1.4 0 0 1-.495-.099 1.3 1.3 0 0 1-.411-.27 1.1 1.1 0 0 1-.26-.396 1.04 1.04 0 0 1-.066-.457 1.04 1.04 0 0 1 .065-.463c.056-.148.146-.284.262-.4.117-.115.26-.207.418-.27a1.36 1.36 0 0 1 1.002 0q.24.096.418.27c.117.116.206.252.262.4s.079.306.065.463c.011.155-.012.311-.07.458a1.1 1.1 0 0 1-.262.396 1.3 1.3 0 0 1-.414.27 1.4 1.4 0 0 1-.496.098zM3.566 9.435h-1.26v5.853h4.437v-1.19H3.566zm16.888 5.853h1.307V11.07h-1.307zm13.628-3.601-.38-.574h-.824v4.217h1.26v-1.62a1.3 1.3 0 0 1 .083-.637c.082-.203.215-.387.389-.535a1.87 1.87 0 0 1 1.084-.362v-1.172c-1.352 0-1.621.683-1.621.683zM20.186 9.435l.926.843.927-.843-.927-.843zm5.003 1.577a1.7 1.7 0 0 0-.865.133c-.269.12-.493.308-.645.542l-.39-.565h-.806v4.166h1.26V13.22a1.1 1.1 0 0 1 .085-.587c.083-.185.216-.35.388-.475.178-.09.38-.133.583-.127.723 0 .927.38.927.995v2.26h1.223V12.69c0-1.164-.63-1.678-1.77-1.678z"/></svg>