<svg xmlns="http://www.w3.org/2000/svg" fill="none" viewBox="0 0 38 24" height="24" width="38" aria-labelledby="pi-lunchcheck" role="img"><title id="pi-lunchcheck">Lunch-Check</title><path fill="#fff" d="M0 0h38v24H0z"/><path fill="#CC4417" d="M32.18 9.97h4v4.07h-4V9.97Z"/><path fill="#fff" d="M33.81 10.65h.74v2.7h-.74v-2.7Z"/><path fill="#fff" d="M32.83 11.63h2.7v.74h-2.7v-.74Z"/><path fill="#262E3C" d="m3.72 12.87-.02.6H1.82V10.5h.67v2.37h1.23Zm2.83-.46c0 .75-.4 1.12-1.19 1.12-.78 0-1.2-.37-1.2-1.12V10.5h.67v1.9c0 .36.16.52.54.52.37 0 .53-.15.53-.52v-1.9h.66v1.91h-.01Zm2.62 1.07-1.15-1.62-.18-.27h-.01v1.88h-.59V10.5h.57l1.06 1.53.18.27h.01l-.01-.32V10.5h.59v2.97h-.47v.01Zm3.08-2.33c-.15-.06-.36-.1-.58-.1-.54 0-.72.22-.72.92 0 .75.19.97.73.97.22 0 .41-.04.58-.11l.07.54c-.19.1-.48.16-.74.16-.9 0-1.34-.5-1.34-1.56 0-.99.43-1.52 1.38-1.52.24 0 .52.06.69.12l-.07.58Zm2.34 2.33v-1.22h-1.04v1.22h-.67V10.5h.67v1.15h1.04V10.5h.67v2.97h-.67v.01Zm2.45-1.73v.46h-1.13v-.46h1.13Zm2.54-.6c-.15-.06-.36-.1-.58-.1-.54 0-.72.22-.72.92 0 .75.19.97.73.97.22 0 .41-.04.58-.11l.07.54c-.19.1-.48.16-.74.16-.9 0-1.34-.5-1.34-1.56 0-.99.43-1.52 1.38-1.52.24 0 .52.06.69.12l-.07.58Zm2.34 2.33v-1.22h-1.04v1.22h-.67V10.5h.67v1.15h1.04V10.5h.67v2.97h-.67v.01Zm3.43-.59-.02.58h-2.02V10.5h1.96l.01.59h-1.3v.59h1.1v.53h-1.1v.68h1.37Zm2.42-1.74c-.15-.06-.36-.1-.58-.1-.54 0-.72.22-.72.92 0 .75.19.97.73.97.22 0 .41-.04.58-.11l.07.54c-.19.1-.48.16-.74.16-.9 0-1.34-.5-1.34-1.56 0-.99.43-1.52 1.38-1.52.24 0 .52.06.69.12l-.07.58Zm2.35 2.33-.73-1.25h-.31v1.25h-.68V10.5h.67v1.18h.32l.72-1.18h.77l-.89 1.41.94 1.56h-.81v.01Z"/></svg>