<svg xmlns="http://www.w3.org/2000/svg" width="38" height="24" fill="none" aria-labelledby="pi-lydia" role="img" viewBox="0 0 38 24"><title id="pi-lydia">Lydia</title><path fill="#fff" d="M0 0h38v24H0z"/><path fill="url(#pi-lydia-a)" d="M19 19.6a7.6 7.6 0 1 0 0-15.2 7.6 7.6 0 0 0 0 15.2"/><path fill="#fff" d="M19 9.6c-.1.2-.2.5-.3.7-.8 1.8-1.5 3.7-2.3 5.5-.1.2-.2.3-.4.3h-.7c-.2 0-.4-.2-.3-.4 1.1-2.5 2.2-4.9 3.2-7.4.1-.2.3-.3.5-.3h.4c.3 0 .4.1.5.3l.9 2.1c.8 1.7 1.5 3.5 2.3 5.2.1.2 0 .4-.2.4h-.8c-.2 0-.3-.1-.4-.3-.8-2-1.7-4-2.5-6 .2 0 .1 0 .1-.1"/><defs><linearGradient id="pi-lydia-a" x1="19" x2="19" y1="4.4" y2="19.6" gradientUnits="userSpaceOnUse"><stop stop-color="#0180FF"/><stop offset="1" stop-color="#0069DE"/></linearGradient></defs></svg>