<svg xmlns="http://www.w3.org/2000/svg" role="img" viewBox="0 0 38 24" width="38" height="24" aria-labelledby="pi-m-pesa"><title id="pi-m-pesa">M-Pesa</title><g id="Page-1" stroke="none" stroke-width="1" fill="none" fill-rule="evenodd"><g id="Group"><path id="Rectangle" fill="#FFF" d="M0 0h38v24H0z"/><g id="Mpesa" transform="translate(0 3)"><path d="M10.808 3.585h2.918c.928 0 1.687.76 1.687 1.688v4.85c0 .928-.76 1.688-1.687 1.688h-2.918c-.928 0-1.687-.76-1.687-1.687V5.273c0-.928.76-1.688 1.687-1.688z" id="Path" fill="#FFF"/><path d="M14.78 19.052H9.755a1.34 1.34 0 0 1-1.336-1.336V2.988a1.34 1.34 0 0 1 1.336-1.336h5.027c.058 0 .117.004.175.012V.58c.001-.32.26-.58.58-.58.32 0 .58.26.58.58v1.828a.574.574 0 0 1-.047.228c.032.115.047.233.047.352v14.728a1.34 1.34 0 0 1-1.335 1.336zM10.81 3.585h2.917c.928 0 1.687.76 1.687 1.688v4.85c0 .928-.76 1.688-1.687 1.688h-2.917c-.928 0-1.688-.76-1.688-1.687V5.273c0-.928.76-1.688 1.688-1.688z" id="Shape" fill="#D2E288"/><path d="M17.298 3.894l3.208-.012c1.17.148 1.71 1.024 1.66 2.297-.089 1.284-.817 1.91-2.032 2.02l-1.164-.022.033 3.52h-1.705V3.895zm1.723.8c.792-.113 1.4.107 1.44 1.353-.025 1.114-.617 1.395-1.44 1.336V4.695z" id="Shape" fill="#8DC63F"/><path d="M25.145 3.797l2.031-.009-.015.872-1.59-.008c-.918.17-.713 1.15-.757 1.858l2.14-.04.007 1.07-2.073-.023-.01 2.591c.081.672.435 1.01 1.031 1.049l1.14-.013.346.008-.01.809-.356.013-2.164-.023c-.746-.025-1.349-.395-1.626-1.545l-.053-5.026c.03-1.03.71-1.536 1.96-1.583zM27.922 6.003c-.128-1.684.81-2.064 1.951-2.197 1.335-.079 2.174.478 2.338 1.899L30.634 5.7c-.1-.717-.657-.993-1.167-.651-.727.89 1.542 2.455 2.222 3.035 1.176.93.977 3.509-.834 3.987l-1.105.039c-1.122.026-1.79-.682-1.983-1.996l1.588-.028c.087.56.326.91.834.884.79-.15 1.009-.846.446-1.735-1.177-1-2.571-1.938-2.713-3.233zM0 3.543h1.67l.017.518c1.009-.436 1.77-.744 2.566-.026 1.425-.673 2.503-.596 3.037.652l.074 7.01H5.681V5.012c-.125-.573-.578-.67-1.125-.633v7.32H2.834V5.01c-.125-.573-.578-.67-1.125-.633v7.32H0V3.542z" id="Path" fill="#8DC63F"/><path d="M33.147 11.903h1.731V7.597h1.441v4.306h1.679V5.75c-.034-1.25-.995-2.033-2.355-2.038-1.552-.014-2.438.722-2.496 1.968v6.222zm1.731-6.591c.057-.46.207-.645.712-.694.512.013.695.309.73.764V6.63h-1.442V5.312z" id="Shape" fill="#8DC63F"/><path d="M10.466 6.867c.288.676.681.986 1.157 1.005-.742.555-1.545.892-2.383 1.107-.525-.034-1.028-.168-1.516-.301 1.233-.244 2.153-.84 2.742-1.81z" id="Path" fill="#82221C"/><path d="M13.7 5.127l3.48 1.758c-1.773 2.332-4.761 2.393-7.945 2.091 2.129-.524 3.602-1.824 4.465-3.848z" id="Path" fill="#EC2127"/></g></g></g></svg>