<svg xmlns="http://www.w3.org/2000/svg" width="38" height="24" fill="none" aria-labelledby="pi-mada" role="img" viewBox="0 0 38 24"><title id="pi-mada">Mada</title><path fill="#fff" d="M0 0h38v24H0z"/><path fill="#15A2DB" d="M11 7.2h6q.3 0 .3.3v3.7c0 .1-.1.2-.2.2H5.4c-.3 0-.4-.1-.4-.4V7.6c0-.3.1-.4.4-.4 1.8-.1 3.7-.1 5.6 0 0-.1 0 0 0 0"/><path fill="#88BE44" d="M11 12.7h5.8q.3 0 .3.3v3.5c0 .2-.1.2-.3.3H5.2c-.4 0-.5-.1-.5-.4V13c0-.3.1-.4.4-.4 2.1.1 4 .1 5.9.1"/><path fill="#262D35" d="M30.6 8.9v-1c.1-.3.2-.5.5-.6.4-.1.9-.2 1.4-.1.6.1.9.5 1.1 1 .3.7.1 1.4-.3 1.9-.3.4-.8.5-1.3.5-1.3-.1-2.6-.1-4-.1h-2c-.1 0-.2 0-.2-.2V10q0-.3.3-.3h1.4c.1 0 .1-.1.1-.1V8.5c-.1-.4-.3-.6-.7-.7h-.6c-.2 0-.3-.1-.2-.3 0-.1 0-.2.1-.3 0-.1.1-.2.2-.2h.9c.7.1 1.2.5 1.3 1.2.1.3.1.6.1.9v.4c0 .2.1.2.2.2h1.4c.2 0 .2-.1.2-.2.1-.1.1-.4.1-.6m.9 0v.7c0 .1 0 .2.1.2.4.2 1-.1 1.1-.5q.15-.45 0-.9c-.1-.2-.2-.3-.4-.4h-.5c-.3 0-.4.1-.3.4zM22.2 11h-2.1c-.4 0-.8-.1-1.1-.5l-.3-.6c-.1-.5-.1-.9 0-1.4.1-.7.6-1.2 1.4-1.2h1.2c.1 0 .1 0 .1.1v.3c-.1.2-.2.3-.4.3h-.8q-.6.15-.6.6c-.1.4-.1.7 0 1.1s.3.6.7.6h3.9c.2-.1.3-.2.3-.4s-.1-.4-.3-.4h-1.4c-.8-.1-1.1-1-.7-1.7.1-.2.3-.3.6-.4.2-.1.5-.1.7-.1h2c.1 0 .2 0 .1.2v.3q0 .3-.3.3h-2.1c0-.1-.1 0-.1.2s.1.4.4.4h.9c.2 0 .4 0 .6.1.5.2.8.6.7 1.1 0 .1 0 .2-.1.3-.1.4-.3.6-.7.7-.3.1-.6.1-.9.1zm-3.6 4.3v-1.1c0-.3.1-.5.4-.5.5-.2 1-.2 1.5-.2.2 0 .3.1.4.1.1.1.2 0 .3 0 .4-.2.8-.2 1.2-.1q.75.15.9.9v2.1c0 .2-.1.2-.2.2h-.5c-.2 0-.2-.1-.2-.2v-1.8c0-.4-.2-.5-.6-.5h-.1c-.2.1-.2.1-.2.3v2c0 .2-.1.2-.2.2h-.5c-.2 0-.2-.1-.2-.2v-1.7c0-.4-.4-.6-.8-.4-.1 0-.1.1-.1.2v1.9c0 .3-.1.3-.3.3H19c-.2 0-.2-.1-.2-.2v-.1c-.2-.5-.2-.9-.2-1.2m11.7-1.1v1.9c0 .3-.1.5-.4.6-.5.1-1 .2-1.5.1s-.9-.4-1-1c-.1-.5-.1-.9 0-1.4.2-.6.8-1 1.5-.9.1 0 .2 0 .3.1.2 0 .2 0 .2-.2v-.9c0-.1.1-.2.2-.3.2 0 .3-.1.5-.1.1 0 .2 0 .2.2zm-1 .8v-.5c0-.1 0-.1-.1-.2-.3-.2-.8-.1-.9.2-.2.4-.2.8 0 1.1.2.4.5.5.9.4.1 0 .2-.1.1-.2zm-2.6.5v1c0 .2-.1.3-.2.2-.3-.1-.7-.1-1-.1s-.5.1-.8 0c-.4-.1-.8-.3-.9-.7-.2-.6.1-1.1.7-1.2.4-.1.7-.1 1.1-.1.2 0 .2 0 .2-.2s-.1-.4-.3-.4H25c-.2 0-.4.1-.6.1-.1 0-.3.1-.4-.1-.1-.1-.1-.3 0-.5l.1-.1c.5-.2 1.1-.3 1.7-.2h.2c.4.1.7.4.8.8v1c-.1.4-.1.5-.1.5m-1.3-.1c-.2 0-.4 0-.5.1-.2.1-.2.2-.2.4s.1.3.3.3h.4c.3 0 .3-.1.4-.4 0-.4 0-.5-.4-.4m8.3.1v1c0 .2-.1.2-.2.2-.4-.1-.9-.1-1.3 0-.3.1-.6 0-.9-.1-.3-.2-.5-.5-.5-.8 0-.4.1-.6.5-.8.3-.2.6-.2.9-.2h.5c.1 0 .1 0 .2-.1 0-.3-.1-.5-.4-.5s-.7 0-1 .1c-.1 0-.1.1-.2.1s-.2 0-.2-.1V14c0-.1 0-.2.1-.2.6-.2 1.2-.3 1.8-.2s.8.5.8 1.1c-.1.2-.1.5-.1.8m-.9.2v-.2c0-.1 0-.1-.1-.1h-.6c-.2.1-.4.2-.3.4 0 .2.2.3.4.3h.4c.1 0 .2-.1.2-.2z"/></svg>