<svg xmlns="http://www.w3.org/2000/svg" width="38" height="24" aria-labelledby="pi-maestro" role="img" viewBox="0 0 38 24"><title id="pi-maestro">Maestro</title><path fill-opacity=".07" d="M38 2v20a2 2 0 0 1-2 2H2a2 2 0 0 1-2-2V2a2 2 0 0 1 2-2h34a2 2 0 0 1 2 2Z"/><path fill="#fff" d="M37 3v18a2 2 0 0 1-2 2H3a2 2 0 0 1-2-2V3a2 2 0 0 1 2-2h32a2 2 0 0 1 2 2Z"/><path fill="#7375cf" d="M15.938 6.497h6.125v11.007h-6.125z"/><path fill="#eb001b" d="M16.327 12A6.992 6.992 0 0 1 19 6.497 6.997 6.997 0 0 0 14.674 5c-3.84 0-7 3.16-7 7s3.16 7 7 7A6.997 6.997 0 0 0 19 17.503 6.992 6.992 0 0 1 16.327 12Z"/><path fill="#00a2e5" d="M30.326 12c0 3.84-3.16 7-7 7A6.997 6.997 0 0 1 19 17.503 7.004 7.004 0 0 0 21.674 12 7.004 7.004 0 0 0 19 6.497 6.997 6.997 0 0 1 23.326 5c3.84 0 7 3.16 7 7Z"/></svg>
