<svg width="38" height="24" role="img" viewBox="0 0 38 24" xmlns="http://www.w3.org/2000/svg" aria-labelledby="pi-malaysia_cash"><title id="pi-malaysia_cash">malaysia_cash</title><title>Layer 1</title><path opacity=".07" d="M35 0H3C1.3 0 0 1.3 0 3v18c0 1.7 1.4 3 3 3h32c1.7 0 3-1.3 3-3V3c0-1.7-1.4-3-3-3z" id="svg_1"/><path fill="#fefffc" d="M34.752.94c1.1 0 2 .9 2 2v18c0 1.1-.9 2-2 2h-32c-1.1 0-2-.9-2-2v-18c0-1.1.9-2 2-2h32" id="svg_2" stroke="null"/><g stroke="null"><g stroke="null" id="svg_79" fill-rule="evenodd"><path fill="#2a2860" d="M7.732 6.633a7.373 7.373 0 01-.303.034 3.12 3.12 0 00-.53.095l-.176.044c-.121.03-.205.058-.307.104a.406.406 0 01-.1.035.467.467 0 00-.11.039 6.795 6.795 0 00-.538.26c-.525.282-1.188.867-1.51 1.33a91.06 91.06 0 01-.153.219c-.145.207-.504.917-.504.996a.18.18 0 01-.022.069c-.022.038-.039.093-.09.29-.01.046-.029.109-.04.14-.06.174-.104.545-.063.545.016 0 .073.028.127.062.428.271.803.34 1.428.262l.108-.014-.034.042c-.05.06-.267.154-.525.227-.21.06-.78.06-.986 0a1.383 1.383 0 00-.17-.042c-.033 0-.06.275-.031.327.01.019.027.132.036.252.008.12.019.22.023.223.004.002.175-.001.378-.008.204-.007 1.616-.013 3.139-.014 1.522 0 2.778-.002 2.791-.002.018 0 .023-.08.023-.341 0-.188.008-.346.017-.352.02-.013.003-.643-.019-.667-.023-.026-.02-.72.003-.744.013-.013.016-.129.01-.342-.03-.954-.031-1.001-.007-1.042.019-.03.02-.11.009-.363-.022-.458-.017-.93.011-1.004a.92.92 0 00.023-.228V6.9l-.102-.035a2.771 2.771 0 00-.204-.058 2.223 2.223 0 01-.157-.043 2.69 2.69 0 00-.49-.087 20.36 20.36 0 01-.362-.045 2.66 2.66 0 00-.593.002M6.057 7.925a2.7 2.7 0 00.046.244c.015.058.028.13.028.162 0 .139.064.188.117.09a.872.872 0 01.074-.112c.077-.096.163-.207.257-.332.076-.102.098-.121.12-.104.027.023.018.17-.013.21a.562.562 0 00-.036.125.323.323 0 01-.04.117c-.009.006-.017.037-.017.07a.664.664 0 01-.035.16c-.046.132-.038.14.078.075a5.13 5.13 0 01.18-.095c.082-.04.217-.116.349-.196.186-.112.193-.014.014.18l-.178.2c-.046.053-.12.136-.165.184l-.081.088.063.007c.034.003.142-.003.239-.014.303-.035.505-.04.551-.014l.043.023-.048.048a.256.256 0 01-.098.06.99.99 0 00-.134.05 7.631 7.631 0 01-.292.126c-.2.082-.232.108-.156.123a.167.167 0 01.08.038c.012.014.03.025.042.026.011 0 .054.016.095.036.04.02.084.036.096.037a.26.26 0 01.074.027c.051.027.115.055.251.11.12.048.09.156-.032.118-.077-.023-.75-.042-.75-.02 0 .009.023.037.05.062.029.025.093.096.144.157.051.061.103.118.116.126.013.008.023.023.023.033 0 .01.04.058.089.106.073.072.133.161.133.199 0 .022-.076.003-.15-.037a13.349 13.349 0 00-.192-.103 5.12 5.12 0 01-.367-.2c-.077-.06-.117-.037-.075.044.015.03.033.094.038.142.006.048.017.088.025.088.007 0 .024.054.036.12.013.067.03.125.038.13.017.01.063.267.05.28-.018.018-.104-.03-.115-.064-.006-.02-.023-.041-.038-.047-.015-.006-.027-.022-.027-.036 0-.014-.017-.04-.037-.059-.02-.018-.037-.045-.037-.059 0-.014-.013-.03-.028-.036-.016-.006-.028-.018-.028-.028a.476.476 0 00-.07-.106 2.02 2.02 0 01-.132-.186c-.043-.07-.094.03-.094.183 0 .037-.012.109-.027.16a1.51 1.51 0 00-.038.207c-.026.23-.176.223-.176-.01a.254.254 0 00-.018-.096 1.212 1.212 0 01-.044-.207c-.03-.195-.058-.283-.086-.266a.044.044 0 00-.019.034c0 .012-.025.05-.055.083a.388.388 0 00-.056.07.758.758 0 01-.07.098 2.31 2.31 0 00-.164.236c-.056.087-.145.12-.16.059-.006-.019-.003-.038.005-.043.007-.005.02-.048.026-.095a.334.334 0 01.028-.107.46.46 0 00.035-.122c.01-.056.027-.127.037-.158.077-.23.077-.231.03-.231-.023 0-.048.008-.054.019a.578.578 0 01-.13.075.65.65 0 00-.129.072c-.005.009-.035.021-.065.028-.03.007-.055.02-.055.028s-.023.024-.051.035c-.028.012-.09.043-.139.07-.181.1-.168-.004.026-.207.058-.061.15-.165.202-.231a2.12 2.12 0 01.14-.162c.07-.065.06-.066-.294-.052-.56.023-.504.026-.51-.03-.005-.042.002-.051.055-.063a.595.595 0 00.126-.048.29.29 0 01.095-.034c.017 0 .04-.013.053-.028a.088.088 0 01.06-.028c.02 0 .059-.012.086-.026.061-.034.203-.097.252-.112.05-.016-.025-.077-.115-.095a.167.167 0 01-.08-.037.075.075 0 00-.05-.026.387.387 0 01-.104-.036c-.184-.085-.247-.112-.264-.112-.031 0-.104-.089-.091-.11.016-.026.406-.026.555 0 .063.01.152.017.2.014l.087-.006-.106-.122a16.082 16.082 0 01-.189-.221l-.14-.166c-.113-.128-.114-.22-.003-.15.021.014.155.085.299.159l.315.164c.071.038.077.029.04-.062a.433.433 0 01-.03-.13c0-.029-.007-.058-.016-.064-.01-.005-.023-.054-.03-.107a.786.786 0 00-.037-.156c-.041-.1-.043-.235-.003-.243.022-.005.037.006.044.032.005.02.016.038.024.038.007 0 .037.036.065.079.029.043.1.137.158.209.058.07.123.158.144.192l.038.063.029-.07a1.39 1.39 0 00.056-.22c.101-.572.089-.534.15-.472.033.032.049.078.064.181m20.989.461c-.284.106-.386.229-.388.466-.002.23.103.382.341.496a1.1 1.1 0 01.074.039c.016.01.049.026.074.037.387.173.504.456.253.612-.127.078-.557.036-.679-.066-.051-.043-.076-.002-.07.114.009.17.045.185.469.185h.333l.088-.053a.465.465 0 00.234-.507c-.038-.209-.13-.301-.476-.482-.33-.172-.392-.232-.392-.382 0-.095.068-.215.122-.215a.28.28 0 00.072-.03c.062-.032.34-.038.398-.008.165.089.204.077.204-.062 0-.144-.013-.15-.336-.154a2.21 2.21 0 00-.321.01m-9.933.028c-.015.019-.02.278-.016.93l.005.906h.204l.004-.667.005-.717c0-.028.006-.051.014-.051s.025.023.037.05c.012.029.03.064.04.08.023.036.094.193.094.208 0 .013.104.244.168.375.02.04.036.088.036.104 0 .017.012.04.028.053.015.013.027.036.027.05 0 .016.013.05.028.077.015.027.048.103.075.17.109.271.115.28.198.274.07-.006.075-.01.119-.117a12.928 12.928 0 01.2-.463 69.645 69.645 0 00.259-.592c.026-.062.056-.124.066-.14a.831.831 0 00.045-.083c.043-.091.047-.037.052.695l.005.694h.203l.005-.894c.006-1.027.015-.967-.15-.967-.138 0-.158.014-.214.148a1.668 1.668 0 01-.087.185 8.5 8.5 0 01-.213.491.975.975 0 00-.054.125c0 .007-.028.073-.063.148a2.105 2.105 0 00-.076.178c-.02.069-.085.172-.105.165a.399.399 0 01-.065-.116l-.084-.194a15.613 15.613 0 01-.18-.417c-.021-.05-.085-.196-.13-.292a.92.92 0 01-.047-.13c-.007-.027-.02-.05-.03-.05-.008 0-.016-.015-.016-.033a.206.206 0 00-.027-.078 1.212 1.212 0 01-.046-.088c-.023-.05-.274-.064-.314-.017m3.113.013c-.023.02-.041.052-.041.07a.139.139 0 01-.027.07.138.138 0 00-.028.064.363.363 0 01-.037.1.387.387 0 00-.038.092c0 .024-.07.207-.104.273a.226.226 0 00-.025.074.238.238 0 01-.027.076.769.769 0 00-.045.112 3.13 3.13 0 01-.094.263c-.052.113-.093.22-.093.238a.339.339 0 01-.037.09.311.311 0 00-.037.102.15.15 0 01-.026.07c-.069.098-.05.129.083.134l.121.006.029-.07a2.99 2.99 0 00.115-.326c.026-.117.05-.124.417-.124.375 0 .417.009.443.096.028.091.075.22.103.283a.51.51 0 01.032.093c.006.031.024.038.116.043.155.008.161.003.13-.093a3.018 3.018 0 00-.11-.305.313.313 0 01-.028-.083.137.137 0 00-.028-.06.142.142 0 01-.027-.072.218.218 0 00-.028-.084.959.959 0 01-.053-.124 5.19 5.19 0 00-.156-.41.189.189 0 01-.023-.065.4.4 0 00-.036-.099.388.388 0 01-.037-.103.14.14 0 00-.028-.064.139.139 0 01-.027-.062.696.696 0 00-.05-.134l-.049-.109h-.105c-.08 0-.114.01-.145.038m1.468.004c-.005.023-.008.441-.005.93l.005.889h.963l.006-.053a.328.328 0 00-.005-.097l-.01-.044h-.342c-.32 0-.343-.003-.361-.036-.012-.023-.02-.31-.02-.804 0-.867.007-.827-.14-.827-.068 0-.082.006-.09.042m2.065.02a.33.33 0 00-.038.076c0 .008-.011.04-.025.072a4.573 4.573 0 00-.066.17 3.602 3.602 0 01-.077.19.417.417 0 00-.036.106.318.318 0 01-.037.097.332.332 0 00-.037.092c0 .012-.012.05-.026.083-.015.034-.046.111-.069.172a1.39 1.39 0 01-.054.13.675.675 0 00-.036.107.283.283 0 01-.04.098c-.008.006-.016.023-.016.04a.392.392 0 01-.034.105 1.153 1.153 0 00-.083.233c-.002.022.022.03.105.034.124.006.15-.01.18-.105.011-.037.033-.094.047-.126a.297.297 0 00.026-.09c0-.019.021-.07.047-.114l.047-.08h.337c.44 0 .427-.006.497.222.088.287.096.296.253.296.124 0 .129-.004.089-.096a3.834 3.834 0 01-.067-.172 1.832 1.832 0 00-.066-.16.226.226 0 01-.026-.072.315.315 0 00-.025-.08 9.367 9.367 0 01-.144-.378 4.245 4.245 0 00-.064-.162 4.443 4.443 0 01-.065-.167 4.47 4.47 0 00-.066-.17.352.352 0 01-.025-.073.235.235 0 00-.025-.063.563.563 0 01-.038-.102c-.047-.187-.254-.255-.343-.113m1.091-.036c0 .025.052.15.09.215.027.048.059.109.27.518l.204.398.01.352.01.352h.222l.01-.342c.005-.228.016-.356.032-.38a.63.63 0 00.041-.083.781.781 0 01.034-.075c.025-.043.063-.115.091-.17a.206.206 0 01.042-.06c.008-.006.021-.036.028-.066.006-.03.019-.055.027-.055.009 0 .021-.025.028-.056.007-.03.02-.06.028-.065a.733.733 0 00.076-.134.612.612 0 01.075-.131c.009-.003.016-.021.016-.04 0-.017.017-.054.038-.081.063-.08.042-.113-.076-.12-.098-.004-.203.079-.203.161a.792.792 0 01-.054.114c-.03.056-.11.214-.18.352-.068.137-.127.253-.13.257-.015.019-.098-.081-.109-.129a.156.156 0 00-.038-.074.083.083 0 01-.026-.055.102.102 0 00-.028-.061c-.015-.016-.028-.038-.028-.05 0-.02-.05-.125-.095-.203a.693.693 0 01-.034-.074.484.484 0 00-.037-.074.553.553 0 01-.038-.073c-.038-.087-.296-.147-.296-.068m3.499.023c-.033.088-.02 1.797.013 1.81a.39.39 0 00.181 0c.036-.014.045-1.757.01-1.823-.032-.06-.18-.05-.204.013m1.431-.02c-.023.016-.041.042-.041.057 0 .016-.012.05-.026.078a1.785 1.785 0 00-.104.272c0 .01-.017.051-.037.092a.383.383 0 00-.036.103.142.142 0 01-.028.065.144.144 0 00-.028.068.323.323 0 01-.037.101.316.316 0 00-.037.098.346.346 0 01-.038.102.364.364 0 00-.037.1.14.14 0 01-.028.065.148.148 0 00-.027.076.148.148 0 01-.027.075.14.14 0 00-.028.063.249.249 0 01-.028.08.782.782 0 00-.045.111c-.01.033-.03.093-.045.133-.035.097-.03.102.098.102.12 0 .155-.032.2-.194.094-.335.078-.324.485-.324.39 0 .4.002.428.09.012.037.032.088.045.113.012.026.033.076.046.112.074.206.063.193.16.2.178.011.193-.015.106-.185a.24.24 0 01-.025-.074.399.399 0 00-.037-.099.443.443 0 01-.036-.093c0-.01-.03-.088-.064-.172a1.914 1.914 0 01-.076-.208c-.007-.03-.02-.059-.029-.065-.01-.006-.017-.024-.017-.042a.312.312 0 00-.037-.1.343.343 0 01-.037-.09.321.321 0 00-.025-.079 4.792 4.792 0 01-.063-.16 32.163 32.163 0 00-.116-.3l-.078-.2h-.105a.29.29 0 00-.146.029m.219.527c.008.025.037.104.064.175.026.072.057.16.067.195.011.036.027.073.036.082.01.01.017.045.017.079v.061h-.287c-.332 0-.315.013-.24-.194.027-.072.055-.155.063-.185a.637.637 0 01.045-.112c.017-.03.03-.069.03-.085 0-.017.016-.067.035-.111l.048-.118c.014-.037.076.07.122.213m-9.604-.137c.027.047.048.1.048.116s.012.051.025.077a.52.52 0 01.038.102c.007.03.024.08.038.11.013.03.033.08.043.111.01.03.03.083.044.116.034.085.015.094-.215.097-.374.006-.396 0-.346-.098.024-.048.072-.18.098-.272a.855.855 0 01.035-.102c.01-.02.035-.087.057-.148.085-.235.071-.224.135-.109m3.561.007a.124.124 0 01.023.065c0 .021.018.07.038.11.02.04.037.09.038.111 0 .021.013.054.027.074a.14.14 0 01.028.07.31.31 0 00.037.102c.02.038.037.096.037.13v.06h-.279c-.313 0-.312 0-.27-.13a6.11 6.11 0 01.175-.475.181.181 0 00.022-.068c0-.117.052-.138.124-.05m-9.797 3.4c-.656.283-.82 1.267-.28 1.688.203.158.218.162.602.162.415 0 .48-.023.481-.171 0-.103-.026-.112-.173-.062-.263.089-.564.041-.746-.118-.087-.076-.114-.117-.182-.274-.04-.091-.042-.506-.003-.583a.555.555 0 00.037-.1c.068-.284.514-.451.915-.341.138.038.152.031.152-.069-.001-.155-.063-.18-.435-.179-.235.001-.27.005-.368.048m3.692-.005c-.238.12-.333.247-.333.444 0 .234.12.37.5.564.216.11.233.12.282.172.162.168.149.348-.032.445-.134.072-.558.03-.652-.064-.053-.053-.098-.01-.098.094.001.175.114.218.545.205.416-.011.603-.161.603-.485 0-.27-.108-.374-.706-.682-.24-.123-.247-.378-.013-.498.132-.067.507-.032.594.055.036.037.047.024.06-.07.027-.196-.023-.224-.402-.223-.238 0-.273.005-.348.043m-1.746.007a.902.902 0 00-.109.264.39.39 0 01-.033.084 1.49 1.49 0 00-.067.166c-.029.082-.063.17-.076.195a.214.214 0 00-.024.075.136.136 0 01-.028.065.143.143 0 00-.027.068.427.427 0 01-.037.11c-.02.044-.054.13-.077.19a4.695 4.695 0 01-.066.17.348.348 0 00-.025.074c0 .022-.073.21-.105.272-.044.083-.022.105.104.105.131 0 .131 0 .224-.28.084-.253.056-.238.451-.238.376 0 .413.006.428.062.006.022.027.077.046.123.02.046.056.137.081.204l.046.12.088.006c.18.011.197-.032.09-.222a.213.213 0 01-.027-.077.249.249 0 00-.026-.08 1.511 1.511 0 01-.104-.285.14.14 0 00-.028-.063.141.141 0 01-.028-.065.385.385 0 00-.036-.103.383.383 0 01-.036-.103.142.142 0 00-.028-.065.14.14 0 01-.028-.064.331.331 0 00-.038-.097.314.314 0 01-.037-.098.224.224 0 00-.025-.08 1.834 1.834 0 01-.066-.16 3.253 3.253 0 00-.086-.208l-.045-.097h-.108c-.08 0-.116.009-.138.032m3.107.01c-.006.023-.008.441-.005.93l.005.889h.24l.004-.405c.002-.223.008-.408.012-.412.004-.005.206-.009.45-.01l.442-.001.024.043c.017.033.022.14.018.41-.006.402-.011.384.115.384.137 0 .127.073.129-.885.002-.991.003-.974-.111-.98-.128-.008-.125-.016-.133.387-.01.47.045.425-.494.418l-.437-.005-.01-.38a3.161 3.161 0 00-.023-.402c-.03-.045-.215-.03-.226.019m3.18-.026c-.026.016-.039 1.795-.014 1.836.013.02.155.025.202.007.024-.01.028-.058.028-.324 0-.366-.006-.35.122-.35.53 0 .793-.208.794-.63 0-.296-.102-.436-.385-.526-.1-.032-.702-.042-.748-.013m2.033.044a.428.428 0 00-.047.107.444.444 0 01-.037.095.234.234 0 00-.027.074.398.398 0 01-.037.1.384.384 0 00-.036.102.142.142 0 01-.028.065.14.14 0 00-.028.064.264.264 0 01-.03.083.618.618 0 00-.045.111 1.65 1.65 0 01-.052.148l-.06.158a2.135 2.135 0 01-.057.14.427.427 0 00-.035.102.137.137 0 01-.027.062.132.132 0 00-.028.062.294.294 0 01-.027.084c-.03.065-.083.218-.083.24 0 .017.225.017.25-.001a.753.753 0 00.071-.171c.029-.087.07-.197.092-.245l.04-.088h.747l.04.081c.02.045.046.105.055.134.085.275.108.303.242.303.125 0 .14-.014.104-.097a1.368 1.368 0 01-.049-.13.21.21 0 00-.039-.08c-.01-.005-.017-.026-.017-.045a.404.404 0 00-.035-.115c-.076-.167-.094-.215-.095-.24a.214.214 0 00-.024-.07 2.257 2.257 0 01-.076-.195 3.546 3.546 0 00-.117-.305 4.275 4.275 0 01-.102-.269 2.42 2.42 0 00-.054-.13.394.394 0 01-.034-.104c0-.108-.253-.131-.315-.03m1.108-.05c-.011.01.024.146.044.166.006.007.092.176.19.376s.186.377.196.392c.11.178.12.217.129.574l.01.343h.221l.01-.343.009-.342.063-.12a84.444 84.444 0 00.497-.954c.04-.074.013-.102-.099-.102-.119 0-.109-.014-.329.435a11.992 11.992 0 01-.202.403c-.04.096-.047.087-.31-.438l-.194-.39-.112-.006a.392.392 0 00-.123.005m1.92.014c-.006.013-.008.432-.005.93l.005.908.063.006a.384.384 0 00.106-.005l.044-.011-.001-.541c-.001-.71.002-.862.014-.829a.097.097 0 00.036.043.406.406 0 01.072.12l.081.18c.019.04.065.149.103.24a9.19 9.19 0 00.173.399l.091.203c.03.067.061.14.069.163.01.033.026.041.086.041.08 0 .062.025.192-.268a64.735 64.735 0 00.298-.688l.104-.229c.091-.203.128-.26.149-.236.002.003.008.321.013.708l.01.704h.186l.004-.905c.006-1.013.014-.956-.132-.956-.147 0-.166.011-.211.117a4.52 4.52 0 01-.079.17.505.505 0 00-.036.086c0 .011-.082.198-.157.358-.015.03-.048.11-.075.176-.2.485-.273.61-.298.505a.546.546 0 00-.035-.097 2.872 2.872 0 01-.064-.148 6.372 6.372 0 00-.066-.158l-.138-.315c-.01-.02-.03-.07-.048-.11l-.064-.149a8.328 8.328 0 01-.083-.194c-.097-.236-.103-.241-.261-.241-.093 0-.14.007-.147.023m2.602.024c-.01.029-.018.4-.018.926v.878l.042.01c.023.006.246.008.495.005l.454-.005v-.185l-.342-.005c-.438-.007-.408.017-.408-.327 0-.331-.03-.303.336-.31.341-.007.334-.005.334-.096 0-.105 0-.105-.318-.105-.375 0-.352.02-.352-.315 0-.317-.028-.296.384-.296.345 0 .356-.003.356-.11 0-.112 0-.112-.494-.112h-.45l-.019.048m1.528-.006c-.005.023-.008.441-.005.93l.005.889h.222l.01-.717c.01-.729.019-.822.075-.715.012.024.077.127.143.228l.185.287c.035.056.097.15.136.21.04.058.072.11.072.113 0 .007.187.295.218.335.008.01.047.068.086.13.093.142.09.14.242.134l.13-.005.004-.905c.006-1.007.013-.956-.125-.956-.116 0-.11-.041-.11.772 0 .39-.008.693-.018.699-.014.009-.105-.109-.177-.228-.086-.141-.22-.351-.3-.47a1.819 1.819 0 01-.098-.154.8.8 0 00-.065-.1.907.907 0 01-.065-.1c0-.011-.196-.31-.24-.368-.057-.072-.308-.079-.325-.01m2.021.015a.34.34 0 000 .11l.011.056h.247c.223 0 .25.004.266.035.012.022.018.323.018.804-.002.861-.009.81.11.81.14 0 .133.044.133-.837v-.793l.041-.01c.023-.005.137-.011.254-.013l.212-.005.016-.056a.178.178 0 00-.003-.106l-.02-.051h-1.274l-.01.056m-10.468.222c.225.152.182.523-.074.64-.1.047-.373.065-.43.029-.037-.024-.04-.665-.004-.702.049-.049.423-.025.508.033m-6.864.134c.021.043.074.179.116.3.042.123.09.247.104.276a.276.276 0 01.027.105v.053l-.246.006c-.317.007-.328.005-.328-.06 0-.03.008-.058.018-.064.01-.007.019-.03.019-.053 0-.022.011-.057.025-.077a.326.326 0 00.038-.093c.013-.057.077-.235.104-.289a.788.788 0 00.036-.106c.026-.096.037-.096.087.002m8.348 0a.849.849 0 00.048.138c.02.043.035.088.035.102a.23.23 0 00.026.074.53.53 0 01.04.11c.007.034.02.072.03.083.022.028.068.207.056.22-.017.016-.557.01-.567-.007-.013-.022.046-.23.103-.364.01-.02.024-.062.034-.092.095-.302.167-.399.196-.264" id="svg_84"/><path fill="#fbfbfb" d="M2.316 12v9.258h33.368V2.742H2.316V12M8.61 6.62c.058.014.178.03.267.038.089.007.166.02.171.028.005.008.053.02.107.028a.711.711 0 01.152.037c.03.013.09.03.13.037.04.006.095.023.12.036.091.046.187.084.216.084.016 0 .05.012.078.026.073.04.21.098.262.113a.24.24 0 01.066.03c.011.008.07.042.13.073.06.032.138.08.174.107.075.057.172.125.315.22a1.3 1.3 0 01.111.08 3.048 3.048 0 01.296.24c.016.015.083.07.149.123.158.126.511.501.535.568a.648.648 0 00.07.098c.033.041.061.09.061.107 0 .03.013.05.075.118a.397.397 0 01.051.078c.012.026.039.071.058.102.02.03.059.101.088.157.028.056.083.148.121.204.039.056.07.12.07.144 0 .022.008.041.017.041.01 0 .027.03.04.067a.944.944 0 00.047.116.23.23 0 01.026.082c0 .018.011.051.026.074a.602.602 0 01.046.161c.043.256.055.314.074.349a.7.7 0 01.032.173c.007.083.023.149.041.17.02.023.032.08.037.175a.533.533 0 00.025.165c.01.012.013.03.006.041a.364.364 0 00.01.132.35.35 0 01.002.18c-.018.061-.041.295-.068.68-.01.157-.054.44-.071.468a.673.673 0 00-.033.128c-.01.06-.03.12-.044.135a.339.339 0 00-.045.106c-.012.043-.029.083-.039.089-.01.006-.018.031-.018.056 0 .024-.016.08-.036.124-.02.043-.04.091-.046.107a.49.49 0 01-.026.055.576.576 0 00-.077.182c0 .04-.148.337-.167.337-.008 0-.02.025-.027.055-.007.03-.02.056-.03.056-.01 0-.026.021-.035.047a.393.393 0 01-.097.14c-.018.019-.033.043-.033.053 0 .01-.015.026-.034.036a.392.392 0 00-.088.098 1.41 1.41 0 01-.072.1l-.111.13c-.051.06-.139.16-.195.222a7.496 7.496 0 00-.139.159c-.037.045-.154.15-.306.274a3.482 3.482 0 00-.1.084c-.01.01-.07.05-.13.09l-.219.143a.48.48 0 01-.139.072.79.79 0 00-.176.083 4.51 4.51 0 01-.596.269 5.251 5.251 0 00-.172.067.324.324 0 01-.089.025c-.023 0-.118.024-.378.096-.39.108-1.848.108-2.081 0a.819.819 0 00-.132-.036c-.144-.03-.313-.08-.332-.098-.01-.01-.04-.017-.065-.017A.314.314 0 016.348 16a.317.317 0 00-.096-.037c-.03 0-.054-.01-.405-.187a2.707 2.707 0 00-.278-.128c-.02 0-.247-.14-.272-.166a.565.565 0 00-.146-.093c-.01 0-.025-.011-.033-.025a1.347 1.347 0 00-.156-.136 2.758 2.758 0 01-.414-.405 5.542 5.542 0 01-.332-.386 2.87 2.87 0 00-.175-.204c-.022-.02-.04-.046-.04-.06 0-.014-.006-.025-.014-.025a.392.392 0 01-.079-.106 1.075 1.075 0 00-.075-.116.16.16 0 01-.026-.056.148.148 0 00-.027-.055 1.545 1.545 0 01-.137-.301 1.12 1.12 0 00-.047-.12 1.116 1.116 0 01-.095-.229.394.394 0 00-.037-.1.373.373 0 01-.036-.11c0-.02-.014-.05-.03-.068-.027-.03-.056-.125-.103-.331l-.044-.186a2.744 2.744 0 01-.045-.287 8.004 8.004 0 00-.036-.296 1.84 1.84 0 010-.5c.01-.05.03-.234.044-.407.014-.173.044-.386.065-.472l.065-.269c.014-.06.034-.127.043-.148.01-.02.039-.105.065-.188.027-.082.073-.199.104-.258a.55.55 0 00.056-.14c0-.018.008-.037.018-.043a.691.691 0 00.077-.135.93.93 0 01.073-.134.695.695 0 00.063-.116c.027-.058.058-.106.067-.106.01 0 .017-.011.017-.025 0-.013.017-.042.037-.064a.166.166 0 00.037-.051c0-.006.03-.047.065-.09a.446.446 0 00.065-.093c0-.061.568-.662.797-.844a.769.769 0 00.129-.116c0-.007.008-.013.019-.013.01 0 .062-.031.115-.069l.153-.106.12-.086c.036-.027.115-.072.176-.102a.96.96 0 00.12-.065.896.896 0 01.12-.061l.177-.08.132-.064a.314.314 0 01.108-.034.111.111 0 00.068-.028.102.102 0 01.061-.028c.019 0 .07-.016.115-.036a.424.424 0 01.137-.037c.031 0 .064-.009.074-.019.025-.024.247-.074.425-.095.081-.01.194-.03.25-.043.148-.037 1.039-.039 1.182-.003m1.05.868a3.19 3.19 0 00-.007.31l.006.157.768.005c.422.003.774-.002.782-.01.027-.027-.206-.22-.513-.425a2.634 2.634 0 01-.139-.097c-.072-.077-.16-.093-.524-.093h-.361l-.012.153m17.846.857c.223.014.24.03.231.224-.005.128-.062.19-.107.117-.032-.052-.32-.085-.466-.054-.232.049-.307.223-.158.368.065.064.095.082.272.17a1.093 1.093 0 01.185.106.59.59 0 01.23.175c.048.053.09.123.096.157.007.033.02.065.028.07.022.014.021.204 0 .245a.354.354 0 00-.028.078c-.041.193-.307.322-.659.321-.426 0-.542-.06-.533-.274l.005-.13.064.005a.19.19 0 01.093.03.263.263 0 00.103.04c.04.007.09.025.11.039a.397.397 0 00.173.025c.44 0 .477-.385.054-.557-.028-.012-.05-.028-.05-.036 0-.008-.025-.02-.055-.027a.162.162 0 01-.076-.039.081.081 0 00-.054-.026c-.018 0-.047-.017-.065-.037-.019-.02-.042-.037-.052-.037-.027 0-.142-.117-.143-.143 0-.012-.01-.029-.024-.037-.094-.057-.093-.328 0-.52.05-.101.27-.243.382-.247a.502.502 0 00.105-.015.31.31 0 01.102-.008c.03.003.137.011.237.017m-10.031.1c.023.047.056.117.073.158.018.04.047.105.067.143a.33.33 0 01.034.095c0 .014.013.037.028.05.015.012.028.04.028.062 0 .021.017.064.037.095.02.03.037.073.037.095 0 .021.012.05.027.062.015.012.033.05.04.085a.172.172 0 00.037.083c.014.012.025.04.025.063s.013.053.028.065a.08.08 0 01.028.054c0 .016.017.061.037.1.02.037.037.08.037.096 0 .076.073-.04.103-.162.007-.028.02-.05.029-.05.009 0 .016-.01.016-.023 0-.012.017-.06.038-.106l.145-.318a.44.44 0 00.04-.116c0-.017.008-.03.018-.03.01 0 .023-.023.03-.051a.621.621 0 01.047-.116.292.292 0 00.034-.095c0-.016.013-.04.028-.053.015-.013.028-.034.028-.047 0-.043.091-.208.122-.22.06-.023.276-.011.318.018l.041.029v.913c0 1.048.018.96-.188.951l-.136-.005-.01-.624c-.008-.592-.016-.703-.046-.605-.014.051-.074.19-.112.26a.22.22 0 00-.026.076c0 .015-.013.037-.028.05a.087.087 0 00-.028.059c0 .02-.016.066-.035.104-.019.038-.049.102-.066.143-.018.04-.048.105-.067.142a.32.32 0 00-.036.096.087.087 0 01-.024.052.191.191 0 00-.037.075c-.034.134-.083.18-.19.18-.06 0-.1-.007-.1-.02a.175.175 0 00-.038-.067.17.17 0 01-.037-.075.444.444 0 00-.038-.114 19.52 19.52 0 01-.127-.28.444.444 0 01-.038-.116c0-.017-.008-.03-.018-.03-.01 0-.024-.024-.031-.052a1.362 1.362 0 00-.11-.248.22.22 0 01-.026-.076.074.074 0 00-.026-.049c-.014-.012-.032-.051-.038-.087-.028-.147-.039-.013-.047.582l-.01.624h-.314l-.005-.94-.005-.94.042-.018a.788.788 0 01.197-.013l.155.003.043.084m3.07.001c.026.052.049.109.05.125 0 .017.012.047.027.067.015.02.027.05.027.065 0 .016.017.06.037.098a.32.32 0 01.037.096c0 .014.012.05.026.079.043.085.104.254.104.286 0 .017.011.04.026.051.014.012.031.052.038.09a.327.327 0 00.04.105c.014.02.025.05.025.066 0 .015.013.052.028.081.015.03.028.063.028.074a.34.34 0 00.037.09.31.31 0 01.037.103c0 .018.012.05.026.07.015.021.033.07.04.111.008.04.025.082.04.092.015.011.02.032.013.051-.015.04-.341.049-.341.008a.33.33 0 00-.037-.092.308.308 0 01-.037-.103.14.14 0 00-.027-.07.164.164 0 01-.029-.081c-.001-.104-.02-.109-.417-.113-.365-.003-.379.001-.406.133a.38.38 0 01-.04.104.182.182 0 00-.026.081.26.26 0 01-.039.103l-.039.063-.141-.005-.142-.005.004-.079a.274.274 0 01.032-.12.162.162 0 00.029-.074.31.31 0 01.037-.102.315.315 0 00.037-.098c0-.016.012-.046.027-.065a.144.144 0 00.028-.069c0-.018.017-.063.038-.101a.32.32 0 00.037-.107.15.15 0 01.028-.073.14.14 0 00.027-.07.31.31 0 01.037-.102.315.315 0 00.037-.098c0-.016.013-.046.028-.065a.144.144 0 00.027-.069c0-.018.018-.064.038-.102a.324.324 0 00.037-.094c0-.014.011-.047.025-.074.014-.027.036-.078.048-.114.084-.235.09-.24.261-.24h.124l.049.093m1.382-.076c.023.015.029.134.037.82l.009.8.346.01c.394.01.376.003.376.154v.115h-1.037l-.005-.93c-.005-1.056-.016-.987.15-.987a.34.34 0 01.124.018m2.142.022c.023.023.043.058.043.08 0 .02.016.07.037.107.02.038.037.082.037.097 0 .016.016.06.037.097.02.038.037.082.037.097a.14.14 0 00.028.064.14.14 0 01.027.07.31.31 0 00.037.103.32.32 0 01.038.106c0 .02.013.053.028.073a.14.14 0 01.028.065c0 .016.016.062.036.103.02.04.036.087.037.102 0 .015.013.044.028.064.015.02.028.053.028.074 0 .02.016.063.037.093.02.03.037.078.037.104 0 .027.011.059.025.07.014.012.031.048.037.081a.508.508 0 00.043.118c.054.102.03.12-.156.114-.145-.005-.163-.01-.169-.042a.702.702 0 00-.042-.115.394.394 0 01-.035-.113.087.087 0 00-.027-.06.092.092 0 01-.028-.062c0-.081-.017-.086-.316-.093-.373-.01-.44 0-.455.056-.006.024-.018.044-.026.044s-.02.036-.027.079a.392.392 0 01-.036.115.368.368 0 00-.036.105c-.015.082-.033.09-.208.09-.184 0-.187-.018-.053-.324a1.39 1.39 0 00.046-.125c.012-.038.029-.074.038-.08.01-.005.017-.034.017-.062 0-.03.012-.062.026-.074.015-.012.032-.052.039-.09a.33.33 0 01.039-.105.15.15 0 00.026-.07c0-.018.017-.064.037-.102a.327.327 0 00.037-.093c0-.014.012-.043.026-.065a.373.373 0 00.038-.11c.006-.04.02-.07.03-.07.01 0 .017-.015.017-.033 0-.019.017-.066.037-.106.02-.04.037-.09.037-.11 0-.021.017-.063.037-.094a.22.22 0 00.037-.091c0-.117.264-.176.365-.082m1.057-.011c.023.016.041.042.041.057 0 .016.017.05.037.076.02.026.037.062.037.081 0 .02.008.035.018.035.01 0 .024.023.031.05.007.029.028.072.047.096a.164.164 0 01.034.065c0 .026.135.297.167.336.03.037.055.034.055-.008 0-.019.017-.055.037-.081a.17.17 0 00.037-.075c0-.014.013-.037.028-.05a.083.083 0 00.028-.055c0-.018.014-.052.032-.077.018-.024.07-.119.115-.21.046-.092.088-.171.095-.176a.225.225 0 00.033-.051c.026-.049.228-.062.286-.019.034.025-.006.18-.046.18-.008 0-.015.016-.015.035a.171.171 0 01-.037.082.168.168 0 00-.037.075c0 .016-.01.034-.02.04a.616.616 0 00-.077.136.579.579 0 01-.073.13c-.009.003-.016.018-.016.033a.625.625 0 01-.115.207c-.008.004-.014.021-.014.04a.17.17 0 01-.037.08.17.17 0 00-.037.073.133.133 0 01-.027.062c-.022.028-.028.103-.028.353-.001.4.009.377-.158.377-.168 0-.158.024-.158-.388 0-.27-.005-.334-.027-.353a.083.083 0 01-.028-.055.081.081 0 00-.027-.055.158.158 0 01-.038-.075.158.158 0 00-.038-.075c-.015-.012-.027-.034-.027-.05a.17.17 0 00-.037-.074.17.17 0 01-.037-.079.083.083 0 00-.028-.055c-.015-.013-.027-.035-.027-.05a.17.17 0 00-.037-.075.17.17 0 01-.038-.08c0-.018-.007-.036-.015-.039a.76.76 0 01-.114-.228c0-.013-.013-.03-.028-.035-.028-.01-.04-.123-.015-.147.025-.026.256-.013.298.016m3.467.008c.036.036.037.062.037.942 0 1.039.017.951-.188.943l-.136-.005-.005-.935c-.006-1.063-.019-.982.156-.982.074 0 .108.01.136.037m1.49.038a.499.499 0 01.06.134c.006.033.022.07.034.081a.233.233 0 01.034.098c.006.041.02.075.03.075.009 0 .022.031.03.07a.334.334 0 00.037.106c.014.02.026.049.026.064 0 .016.017.062.036.103.02.04.036.091.037.113 0 .022.013.05.028.063a.087.087 0 01.028.058c0 .02.017.068.037.108.02.04.037.088.038.106 0 .018.013.05.027.069.015.02.028.05.028.065 0 .016.016.06.037.098.02.038.037.09.037.114 0 .024.012.053.026.065.015.012.032.055.039.095.006.04.02.073.03.073.01 0 .016.02.012.042-.005.04-.015.042-.168.047l-.162.005-.011-.056c-.007-.03-.018-.056-.026-.056-.007 0-.022-.031-.033-.07-.09-.315-.071-.304-.481-.302-.364.002-.411.019-.411.147 0 .028-.01.06-.02.07a.278.278 0 00-.038.098c-.033.15-.057.168-.22.168-.1 0-.148-.007-.153-.023-.012-.036.022-.168.052-.2a.12.12 0 00.027-.07c0-.022.016-.072.037-.11a.332.332 0 00.037-.097c0-.015.013-.044.028-.064a.147.147 0 00.027-.074c0-.022.012-.055.025-.075a.325.325 0 00.038-.093 1.15 1.15 0 01.095-.236.633.633 0 00.039-.12.167.167 0 01.037-.08c.014-.012.026-.044.026-.07 0-.027.016-.074.037-.105a.221.221 0 00.037-.093c0-.021.012-.055.027-.074a.167.167 0 00.028-.085c0-.026.017-.07.037-.095a.174.174 0 00.037-.085c0-.056.05-.076.19-.076h.125l.047.074m-20.426.3a3.07 3.07 0 00-.004.32l.005.296h1.3c.714 0 1.304-.005 1.31-.012.011-.01-.05-.136-.147-.303-.087-.15-.205-.304-.24-.313-.089-.024-2.214-.012-2.224.013m10.677.087a.334.334 0 01-.038.116.312.312 0 00-.037.113c0 .024-.011.054-.026.066-.014.012-.031.052-.038.09a.275.275 0 01-.03.088c-.025.032-.05.17-.034.196.017.027.44.026.468-.002.01-.009.003-.034-.014-.058a.172.172 0 01-.03-.081.155.155 0 00-.025-.075.334.334 0 01-.039-.098.54.54 0 00-.039-.11.23.23 0 01-.026-.075.224.224 0 00-.026-.074 1.45 1.45 0 01-.045-.096l-.02-.046v.046m9.529.059c-.018.054-.04.128-.05.163-.01.035-.025.067-.036.071-.01.004-.02.025-.02.047a.314.314 0 01-.034.109c-.043.083-.065.211-.04.227.015.009.28.015.424.01.03 0 .013-.155-.025-.214a.384.384 0 01-.038-.102.39.39 0 00-.037-.101.375.375 0 01-.037-.102.27.27 0 00-.03-.087.239.239 0 01-.032-.07c-.012-.046-.015-.042-.045.049m-6.004.02a.324.324 0 01-.039.097.172.172 0 00-.025.083.173.173 0 01-.026.085.33.33 0 00-.04.105c-.006.038-.024.078-.038.09-.039.032-.034.146.007.147.459.013.487.005.423-.124a1.21 1.21 0 01-.104-.297c0-.022-.009-.043-.02-.046-.01-.004-.027-.044-.037-.09-.017-.074-.041-.11-.076-.11-.006 0-.018.027-.025.06M9.667 10.09c-.033.01-.023.605.01.633.032.026 3.005.01 3.033-.018.033-.032-.098-.589-.144-.605-.024-.008-2.874-.019-2.899-.01m.005 1.394c-.024.025-.034.557-.012.617.01.026.154.03 1.516.028h1.504l.04-.043c.046-.048.086-.529.05-.58-.028-.037-3.062-.059-3.098-.022m5.147.662c.15.019.2.069.2.198 0 .158-.047.197-.154.13-.132-.084-.501-.075-.667.015-.08.043-.216.165-.216.192 0 .01-.012.028-.027.04-.015.013-.033.054-.04.091a.362.362 0 01-.039.108c-.066.1-.006.51.097.663.065.098.214.213.275.213a.26.26 0 01.089.03c.094.048.465-.002.552-.076.064-.053.13.018.13.141 0 .106-.058.158-.222.2-.221.056-.75.02-.775-.054-.003-.01-.016-.019-.03-.019-.072 0-.278-.199-.343-.333l-.06-.12c-.03-.055-.066-.448-.05-.536a.951.951 0 00.016-.137c.002-.16.298-.614.4-.614.012 0 .032-.012.044-.026a.159.159 0 01.071-.039c.028-.007.056-.02.062-.031.026-.042.455-.065.687-.036m3.66 0c.133.02.154.05.147.215-.006.145-.039.173-.131.112-.13-.085-.52-.077-.61.012-.11.11-.04.382.102.385.018 0 .037.012.043.027.006.015.034.032.063.038a.158.158 0 01.075.038.083.083 0 00.055.027c.019 0 .04.008.046.019.006.01.036.03.066.042.363.15.483.66.214.906-.03.028-.066.051-.078.051-.012 0-.032.013-.045.028a.1.1 0 01-.068.028.271.271 0 00-.1.029c-.069.035-.41.027-.576-.013-.158-.039-.2-.088-.2-.23 0-.153.066-.195.167-.108.016.014.058.03.092.038a.496.496 0 01.11.037c.066.034.323.033.352-.002a.153.153 0 01.071-.038c.16-.036.11-.37-.065-.424a.154.154 0 01-.061-.04.082.082 0 00-.055-.027c-.017 0-.05-.016-.074-.037-.024-.02-.058-.037-.075-.037a.083.083 0 01-.055-.028c-.013-.015-.03-.027-.038-.027a.921.921 0 01-.23-.161c-.134-.135-.18-.388-.099-.547.072-.14.103-.172.237-.24a.205.205 0 00.06-.042c.027-.039.46-.059.66-.03m-2.063.07a.28.28 0 01.047.097c0 .016.013.052.027.08a.769.769 0 01.045.112c.03.094.076.22.105.284.015.032.027.07.027.083 0 .014.013.041.028.061.015.02.027.053.027.074a.25.25 0 00.038.099c.02.033.036.08.036.104 0 .024.012.053.026.065.015.012.032.052.039.09a.33.33 0 00.039.105c.014.02.026.054.027.075 0 .02.012.053.026.071a.3.3 0 01.038.107c.007.04.02.072.028.072s.021.027.028.06a.444.444 0 00.041.11c.054.091.025.11-.157.104-.157-.005-.162-.007-.169-.052a.169.169 0 00-.026-.07 1.198 1.198 0 01-.1-.263c-.023-.1-.06-.11-.414-.11h-.324l-.041.064a.258.258 0 00-.042.106.224.224 0 01-.037.097.233.233 0 00-.037.102c-.001.103-.051.132-.214.126l-.147-.005.006-.074a.22.22 0 01.03-.102.247.247 0 00.038-.093.38.38 0 01.039-.106.172.172 0 00.026-.074c0-.019.011-.05.025-.07a.322.322 0 00.037-.092.77.77 0 01.043-.12c.066-.146.08-.179.091-.232a.32.32 0 01.038-.092.158.158 0 00.025-.074c0-.021.017-.063.037-.093a.222.222 0 00.037-.094c0-.021.012-.054.027-.074a.144.144 0 00.028-.069c0-.017.017-.063.038-.101a.31.31 0 00.037-.102.31.31 0 01.037-.102.326.326 0 00.037-.093c0-.09.298-.083.36.01m3.043-.048c.016.016.022.13.022.399v.376l.44-.005.44-.005.005-.379c.006-.426-.002-.407.155-.408.165 0 .154-.065.16.968.006 1.04.021.958-.174.958h-.137v-.378c0-.208-.005-.391-.011-.408-.01-.025-.066-.029-.444-.029h-.433l-.005.403-.005.403-.143.005-.144.006v-.953c0-.745.005-.955.023-.963.047-.018.23-.011.251.01m3.692.004a.53.53 0 00.108.039c.032.007.062.024.068.039.005.014.02.026.031.026.073.001.21.264.23.44.01.092-.04.26-.113.387-.03.053-.178.191-.203.191-.01 0-.033.012-.049.026-.038.034-.292.085-.418.085-.166 0-.157-.017-.157.323 0 .353.005.344-.18.344h-.135v-.952c0-.744.005-.954.023-.962.059-.023.746-.011.795.014m1.578.013a.114.114 0 01.048.09c0 .028.012.062.027.074.014.012.031.054.038.095.007.04.02.073.029.073.008 0 .021.03.028.069a.265.265 0 00.036.097.258.258 0 01.035.096c.007.037.024.077.04.09.014.012.026.045.026.072 0 .027.013.066.028.086.015.02.027.047.027.062 0 .014.017.06.036.101.018.042.043.104.055.137l.042.12c.012.033.033.082.047.11a.24.24 0 01.025.073c0 .014.017.059.037.1.02.04.036.084.036.097 0 .013.013.042.027.065.024.038.036.1.031.157-.007.086-.353.012-.353-.076a.31.31 0 00-.038-.11.342.342 0 01-.037-.09.547.547 0 00-.041-.11l-.042-.091h-.33c-.337 0-.401.011-.401.07a.15.15 0 01-.025.07.464.464 0 00-.045.11c-.012.04-.035.114-.052.163l-.031.088-.16-.005c-.169-.006-.226-.056-.142-.125.016-.013.029-.046.029-.072 0-.027.017-.074.037-.105a.222.222 0 00.037-.093c0-.021.012-.055.027-.074a.139.139 0 00.028-.064.33.33 0 01.038-.097.31.31 0 00.036-.103.14.14 0 01.028-.07.139.139 0 00.027-.063c.001-.03.064-.203.105-.284a.25.25 0 00.026-.075c0-.012.016-.053.037-.09a.31.31 0 00.037-.103c0-.018.011-.05.025-.07a.438.438 0 00.046-.1c.088-.293.121-.334.27-.334.09 0 .128.009.166.039m1.058-.025c.026.018.101.165.101.197 0 .014.012.035.027.047a.16.16 0 01.038.075c.007.03.024.063.038.076a.081.081 0 01.027.054c0 .018.012.043.026.055a.158.158 0 01.039.075c.006.029.023.063.038.075.015.012.027.033.027.047 0 .06.088.16.102.114a.133.133 0 01.027-.051 1.33 1.33 0 00.111-.232c0-.006.013-.024.028-.04a.103.103 0 00.028-.062c0-.019.006-.038.015-.043.008-.005.055-.091.106-.191.108-.216.1-.21.241-.21.125 0 .197.034.163.077a.258.258 0 00-.033.08c-.008.03-.02.06-.028.065a.774.774 0 00-.104.19c-.017.038-.038.07-.047.07-.01 0-.017.02-.017.045 0 .025-.008.05-.019.057a.222.222 0 00-.046.07 1.12 1.12 0 01-.044.087.805.805 0 00-.037.074c-.011.025-.029.06-.039.079a4.041 4.041 0 00-.115.217l-.061.12-.01.343-.009.343h-.296l-.009-.352c-.008-.3-.014-.361-.045-.417-.05-.09-.049-.089-.206-.407a12.313 12.313 0 00-.196-.389 1.016 1.016 0 00-.036-.074c-.08-.141-.11-.227-.09-.251.023-.029.268-.039.305-.013m2.017.055a.273.273 0 01.047.1c0 .017.012.04.026.052.014.012.031.05.037.084a.173.173 0 00.04.084c.014.013.027.04.027.06 0 .02.011.058.025.085.013.027.042.087.062.133l.077.168a.456.456 0 01.04.114c0 .015.012.038.027.051a.096.096 0 01.028.066.11.11 0 00.025.068.193.193 0 01.039.07c.007.026.024.071.038.102a1 1 0 01.036.091c.014.045.072-.038.092-.133a.169.169 0 01.04-.08.079.079 0 00.026-.052c0-.017.017-.062.037-.1a.32.32 0 00.037-.094c0-.014.013-.036.028-.049a.087.087 0 00.028-.059.31.31 0 01.036-.104c.02-.038.04-.081.046-.096a3.376 3.376 0 00.139-.306c.022-.05.056-.123.076-.16a.314.314 0 00.036-.097c0-.062.24-.094.36-.049l.048.018-.005.94-.005.94-.126.006c-.187.008-.175.053-.178-.638a10.665 10.665 0 00-.012-.62c-.015-.024-.045-.019-.045.008a.36.36 0 01-.037.097.34.34 0 00-.037.104.1.1 0 01-.028.06c-.015.015-.027.038-.027.05 0 .023-.052.142-.113.261a.326.326 0 00-.036.095c0 .015-.012.037-.027.05a.096.096 0 00-.028.066.114.114 0 01-.028.07c-.015.015-.028.038-.028.051 0 .025-.049.14-.116.271-.05.1-.22.122-.253.034a.138.138 0 00-.035-.055c-.01-.006-.024-.044-.03-.084-.007-.04-.025-.077-.04-.083-.014-.005-.026-.026-.026-.047a.25.25 0 00-.037-.098.25.25 0 01-.037-.09.082.082 0 00-.028-.054.083.083 0 01-.028-.053.384.384 0 00-.036-.104.376.376 0 01-.037-.106c0-.018-.008-.033-.017-.033-.01 0-.028-.031-.04-.07a.51.51 0 00-.048-.105.146.146 0 01-.025-.067.078.078 0 00-.026-.052c-.014-.012-.031-.052-.038-.088-.027-.146-.038-.012-.047.592l-.01.633-.127.005a.374.374 0 01-.145-.011c-.025-.026-.018-1.856.007-1.887.014-.016.07-.024.175-.024h.154l.047.07m3.215-.05c.042.022.052.215.013.254-.015.016-.122.022-.36.022h-.34v.24c0 .328-.03.299.317.296.345-.002.331-.007.331.131 0 .14.008.137-.342.148l-.296.01-.006.263-.005.263.357.005.357.005.025.074a.224.224 0 01.008.13l-.016.056-.515.005c-.372.003-.523-.001-.542-.017-.047-.04-.027-1.844.02-1.879.045-.032.934-.038.994-.007m.903.034c.07.075.114.136.114.162 0 .012.013.032.03.046a.21.21 0 01.047.062c.03.066.067.126.085.138.01.006.04.053.07.104.03.05.058.097.064.102.006.005.035.05.065.102.03.05.064.103.077.117.014.013.025.032.025.042a.6.6 0 00.106.16c.013.015.023.034.023.043 0 .01.03.06.065.11.036.05.065.101.065.112 0 .011.015.017.032.014.03-.006.034-.057.042-.669.01-.745 0-.697.159-.698.17 0 .157-.079.152.982l-.005.935h-.369l-.029-.056a.196.196 0 00-.043-.062.192.192 0 01-.04-.065c-.038-.08-.07-.13-.098-.147a.054.054 0 01-.023-.04.088.088 0 00-.023-.05.746.746 0 01-.125-.197c0-.012-.008-.022-.018-.022-.016 0-.038-.034-.097-.148a.346.346 0 00-.033-.056 1.943 1.943 0 01-.176-.275c-.006-.022-.02-.04-.03-.04-.01 0-.023-.014-.03-.032a.826.826 0 00-.07-.116.922.922 0 01-.07-.111 9.61 9.61 0 00-.012.67c-.001.826.013.756-.16.756h-.138v-.952c0-.745.006-.954.024-.962.087-.035.295-.01.344.04m3.012-.026c.026.019.035.049.035.122 0 .139-.02.148-.297.148-.127 0-.232.008-.238.018-.006.01-.01.365-.01.79.002.886.015.822-.177.822h-.137l-.005-.81-.004-.81-.24-.005a1.009 1.009 0 01-.264-.026c-.03-.026-.032-.222-.002-.253.035-.034 1.291-.031 1.339.004m-12.274.283c-.028.028-.013.611.016.636.03.025.212.014.357-.022.25-.063.291-.437.065-.585-.064-.041-.403-.064-.438-.03m-6.456.197a.162.162 0 01-.025.079.343.343 0 00-.04.101.34.34 0 01-.04.102.156.156 0 00-.025.074.17.17 0 01-.03.08c-.03.044-.045.194-.02.203.15.05.536-.019.44-.08-.011-.005-.02-.025-.02-.042a.31.31 0 00-.036-.1.309.309 0 01-.037-.107.308.308 0 00-.037-.106.31.31 0 01-.037-.1c0-.037-.06-.146-.08-.146-.007 0-.013.019-.013.042m8.327-.01a.521.521 0 00-.022.093c-.007.043-.02.079-.029.079-.009 0-.021.031-.028.07a.375.375 0 01-.038.11.182.182 0 00-.026.074.373.373 0 01-.035.106c-.055.116-.046.121.214.121.263 0 .276-.008.212-.13a.341.341 0 01-.039-.117.153.153 0 00-.027-.078.142.142 0 01-.028-.069.352.352 0 00-.037-.106.339.339 0 01-.037-.12c0-.045-.059-.069-.08-.033m-21.02.265a.106.106 0 00.013.079c.015.022.046.095.07.161.024.066.059.15.077.185a.318.318 0 01.034.085c0 .01.02.038.043.06l.043.04h8.503l.036-.05a.544.544 0 00.058-.12.214.214 0 01.04-.08c.01-.006.017-.025.017-.043a.31.31 0 01.037-.1.312.312 0 00.037-.1.12.12 0 01.031-.066c.075-.082.229-.08-4.52-.084l-4.508-.005-.012.038m.746 1.364c-.044.011-.042.017.036.115.249.31.438.498.515.512.03.005 1.507.007 3.281.004l3.226-.005.08-.084c.136-.145.243-.264.338-.379.051-.061.1-.117.11-.124.01-.007.012-.02.004-.028-.016-.015-7.532-.027-7.59-.011m1.591 1.388c-.03.03.473.242.848.356.66.201 1.673.242 2.3.094.082-.02.167-.036.188-.036.02 0 .043-.009.05-.019.006-.01.026-.018.046-.018.04 0 .318-.084.398-.12.03-.014.11-.047.176-.072a3.79 3.79 0 00.236-.104.796.796 0 01.135-.056c.011 0 .015-.008.008-.019-.012-.02-4.364-.027-4.385-.006" id="svg_83"/><path fill="#b32d33" d="M9.64 6.976a.956.956 0 00-.006.178l.006.124h.352a7.152 7.152 0 01.402.005c-.012-.004-.023-.02-.023-.035 0-.023-.146-.1-.426-.224a3.287 3.287 0 01-.11-.052c-.11-.056-.181-.054-.194.004m.79 1.02L9.611 8v.294c0 .421-.156.372 1.186.372h1.144c.031 0 .004-.047-.125-.212-.126-.162-.16-.196-.18-.18-.008.007-.008.004 0-.005.032-.04-.25-.289-.32-.284-.036.003-.434.007-.885.01m1.857 1.379c-.041.008-.658.02-1.37.028l-1.297.014-.005.308c-.004.264 0 .31.024.319.015.006.697.012 1.514.012l1.485.002.006-.04a.135.135 0 00-.02-.08.383.383 0 01-.041-.104.39.39 0 00-.038-.102.355.355 0 01-.036-.096.17.17 0 00-.038-.081c-.015-.012-.027-.034-.027-.049 0-.079-.081-.147-.157-.131m-.685 1.405c-.622.009-1.322.018-1.556.02l-.426.006-.006.166c-.003.092 0 .236.007.32l.012.152 1.599.005 1.6.005.019-.043c.053-.117-.03-.659-.1-.649-.01.002-.528.01-1.15.018m-8.338.253l.002.199.012-.158c.013-.181.025-.21.081-.193.04.012.04.011.003-.017-.088-.07-.102-.047-.098.169m.182-.089c.042.033.203.1.203.084 0-.008-.223-.12-.239-.12-.006 0 .01.017.036.036m.278.123c0 .015.116.064.14.06.016-.004-.01-.02-.056-.037a.303.303 0 00-.084-.023m.986.113a.152.152 0 00.064 0c.018-.005.004-.009-.032-.009-.036 0-.05.004-.032.009m-.33.024c.056.024.102.024.066 0a.133.133 0 00-.065-.017h-.037l.037.017m-1.139.12c-.013.016-.02.032-.016.035.02.017.318.087.337.079.012-.005.003-.01-.019-.01-.022-.001-.045-.01-.051-.02-.006-.01-.049-.023-.094-.03-.05-.007-.094-.026-.109-.047-.022-.032-.027-.032-.048-.007m1.268.037c-.03.013-.043.025-.027.026a.188.188 0 00.074-.026c.059-.034.027-.034-.047 0m-.175.047c-.02.014-.013.016.027.007.068-.016.083-.026.036-.026a.135.135 0 00-.063.02m-.514.049c.028.004.07.004.093 0 .022-.005 0-.008-.052-.008-.05 0-.07.004-.041.008m-.227.707c-.38.015-.34.006-.326.08l.03.162c.009.056.03.139.045.183a.53.53 0 01.029.143c0 .106-.255.1 4.67.1l4.597.001.032-.05a.45.45 0 00.043-.143.547.547 0 01.03-.126c.025-.049.057-.314.04-.332-.02-.019-8.728-.036-9.19-.018m.117 1.4c-.017.046.266.543.364.639.043.042 7.886.042 7.922 0a3.495 3.495 0 00.355-.597.14.14 0 00.019-.047c0-.023-8.65-.017-8.66.006m.994 1.373c0 .017.1.115.194.19.061.048.134.11.162.135.028.027.099.08.157.118.06.039.111.075.117.08.012.014.092.065.176.112.066.037.085.038 2.528.038h2.46l.142-.089c.15-.093.459-.327.558-.42.032-.032.08-.077.107-.101.026-.024.045-.047.04-.051-.007-.008-6.641-.019-6.641-.012" id="svg_82"/><path fill="#edd353" d="M5.939 7.873c-.114.759-.125.78-.28.559a7.988 7.988 0 00-.187-.256.734.734 0 01-.1-.152c0-.013-.01-.024-.022-.024-.011 0-.033-.014-.047-.032-.032-.04-.028-.013.032.199.022.076.05.185.064.24.013.057.033.126.045.155.084.213.03.208-.416-.034L4.83 8.42c-.15-.081-.125-.04.194.322.277.314.284.302-.162.285-.357-.014-.466.001-.351.048a14.823 14.823 0 01.268.111c.056.023.136.057.177.076a.436.436 0 00.094.034c.01 0 .037.02.06.044.05.054.048.057-.192.159a13.41 13.41 0 00-.269.117 2.16 2.16 0 01-.148.061c-.035.013-.06.03-.055.04.01.015.462.012.662-.006.124-.01.167.045.083.108-.018.013-.07.07-.116.126a4.937 4.937 0 01-.133.157c-.142.156-.182.206-.182.228 0 .027.065.014.112-.023a.464.464 0 01.074-.044.936.936 0 00.074-.04c.015-.008.06-.033.102-.052.126-.062.258-.135.276-.153.057-.056.08.057.04.186-.015.046-.044.15-.066.231a9.755 9.755 0 01-.07.246c-.05.169-.005.147.144-.07.035-.052.11-.156.166-.23.056-.075.11-.15.121-.168.067-.113.103-.012.18.51.032.221.03.215.07.173.024-.023.043-.08.055-.165.029-.21.087-.527.098-.539.018-.018.087.013.106.049.01.02.069.104.13.189.062.084.14.193.172.24.052.078.1.12.116.104.01-.01-.051-.245-.141-.545-.07-.232-.047-.247.192-.12.322.171.496.262.505.262.021 0-.093-.144-.285-.36-.256-.286-.263-.313-.073-.299.292.021.617.027.652.01.023-.01.027-.016.01-.017a.435.435 0 01-.101-.036 16.85 16.85 0 00-.325-.142c-.392-.167-.397-.158.236-.403.219-.085.193-.096-.22-.096-.474 0-.458.018-.217-.251.38-.426.403-.487.108-.295-.109.07-.45.24-.483.24-.045 0-.042-.069.01-.24.143-.464.149-.598.018-.403a4.758 4.758 0 01-.138.19 5.666 5.666 0 00-.146.2c-.092.135-.133.119-.161-.061l-.054-.334c-.035-.22-.09-.323-.108-.201m-2.642 3.045a.752.752 0 00-.02.18c0 .092-.005.122-.016.097-.014-.031-.017-.027-.018.023-.006.28.97.302 1.512.034.107-.052.06-.077-.095-.05-.2.035-.705-.002-.76-.055a.08.08 0 00-.049-.017c-.044 0-.337-.137-.436-.204-.1-.067-.096-.067-.118-.008" id="svg_81"/><path fill="#9998a4" d="M7.427 6.622a2.519 2.519 0 01-.25.042c-.178.021-.4.072-.425.096-.01.01-.043.018-.074.019a.424.424 0 00-.137.037.415.415 0 01-.115.036.102.102 0 00-.061.028.11.11 0 01-.068.028.314.314 0 00-.108.034 4.579 4.579 0 01-.132.063l-.176.08a.897.897 0 00-.12.062.962.962 0 01-.121.065 1.38 1.38 0 00-.176.102l-.12.086-.153.106a.523.523 0 01-.116.068c-.01 0-.018.007-.018.014 0 .008-.058.06-.129.116-.229.181-.797.783-.797.844 0 .007-.03.049-.065.092a.493.493 0 00-.065.091c0 .006-.016.03-.037.051-.02.022-.037.051-.037.064 0 .014-.008.025-.017.025-.01 0-.04.047-.067.106a.697.697 0 01-.063.116.93.93 0 00-.073.134.691.691 0 01-.078.135c-.009.006-.017.025-.017.043a.55.55 0 01-.056.14c-.03.06-.078.176-.104.258a2.93 2.93 0 01-.065.188 1.17 1.17 0 00-.043.148l-.065.269c-.021.086-.05.299-.065.472a5.836 5.836 0 01-.044.407 1.84 1.84 0 000 .5c.01.061.026.194.036.296a2.744 2.744 0 00.09.472c.046.207.075.303.102.332.016.018.03.048.03.068 0 .02.017.069.036.11.02.04.036.086.037.1 0 .025.052.15.095.229.01.018.03.072.046.12.035.103.12.287.138.3.007.006.019.03.027.056a.16.16 0 00.026.056c.006.005.04.057.075.115.035.06.07.107.079.107.008 0 .014.011.014.025 0 .014.018.04.04.06.022.02.1.111.174.204a5.524 5.524 0 00.333.386c.179.203.264.287.414.405.078.061.148.122.156.136.008.014.023.025.033.025.016 0 .124.068.146.093.024.026.253.166.272.166.012 0 .137.058.278.128.351.176.374.187.405.187.015 0 .058.016.096.037.038.02.09.037.117.037.026 0 .055.007.065.017.02.018.188.068.332.098.051.01.11.027.131.037.234.107 1.692.106 2.082-.001.26-.072.354-.096.378-.096a.324.324 0 00.089-.025c.033-.015.11-.045.172-.067.21-.078.451-.187.596-.27a.79.79 0 01.176-.082.48.48 0 00.14-.072c.058-.04.156-.104.217-.143.061-.04.12-.08.132-.09.01-.01.055-.048.099-.084.152-.125.269-.23.306-.274.02-.025.083-.097.14-.16a14.077 14.077 0 00.305-.351 1.41 1.41 0 00.072-.1.391.391 0 01.088-.098c.019-.01.034-.026.034-.036 0-.01.015-.034.032-.054a.393.393 0 00.098-.14c.01-.025.025-.046.035-.046.01 0 .023-.025.03-.056.006-.03.019-.055.027-.055.02 0 .167-.298.167-.337 0-.027.03-.096.077-.182a.487.487 0 00.026-.055l.046-.107c.02-.044.036-.1.036-.124 0-.025.008-.05.018-.056.01-.006.027-.046.039-.09a.338.338 0 01.045-.105.404.404 0 00.044-.135.672.672 0 01.033-.128c.017-.028.06-.31.071-.468.027-.385.05-.619.068-.68a.35.35 0 00-.001-.18.364.364 0 01-.01-.132c.006-.01.003-.03-.007-.041a.533.533 0 01-.025-.165c-.005-.095-.017-.153-.037-.175-.018-.021-.034-.087-.041-.17a.7.7 0 00-.032-.173c-.019-.035-.031-.093-.074-.349a.601.601 0 00-.046-.161.172.172 0 01-.027-.074.23.23 0 00-.025-.082.944.944 0 01-.048-.116c-.012-.037-.03-.067-.039-.067-.01 0-.017-.019-.017-.041a.408.408 0 00-.07-.144 2.277 2.277 0 01-.121-.204 2.513 2.513 0 00-.088-.157 1.262 1.262 0 01-.058-.102.397.397 0 00-.051-.078c-.062-.068-.075-.088-.075-.118a.285.285 0 00-.062-.108.648.648 0 01-.07-.097c-.023-.067-.376-.442-.534-.568a3.715 3.715 0 01-.15-.123 3.048 3.048 0 00-.295-.24 1.296 1.296 0 00-.111-.08 6.817 6.817 0 01-.315-.22 1.602 1.602 0 00-.174-.107 1.56 1.56 0 01-.13-.074.24.24 0 00-.066-.029 1.911 1.911 0 01-.262-.113.221.221 0 00-.078-.026.815.815 0 01-.216-.084.505.505 0 00-.12-.036.674.674 0 01-.13-.037.711.711 0 00-.152-.037c-.054-.008-.102-.02-.107-.029a.596.596 0 00-.171-.027 2.019 2.019 0 01-.267-.039c-.143-.036-1.035-.034-1.182.003m.898.009c.071.01.234.03.361.045.247.029.401.056.49.087.031.01.102.03.158.043.138.033.279.08.304.1.011.009.05.022.085.03a.573.573 0 01.111.036l.111.052c.28.123.426.2.426.224 0 .015.014.03.032.033.017.004-.149.004-.37 0-.371-.005-.401-.003-.418.028-.022.042-.049.597-.031.653l.013.04.899-.003.9-.005.159.165c.238.246.437.507.386.508-.614.011-2.267-.006-2.288-.023-.021-.018-.032-.015-.052.013-.03.041-.038.675-.01.729.02.035 2.512.025 2.689-.01a.135.135 0 01.165.13c0 .015.012.037.027.049a.17.17 0 01.038.08.354.354 0 00.036.097.39.39 0 01.038.101.383.383 0 00.04.106c.042.063.026.127-.03.123-.026-.002-.714-.004-1.529-.006l-1.48-.002-.006.356a2.3 2.3 0 00.011.372c.018.018.694.017 2.216-.002.765-.01.97-.007.992.012.042.033.084.56.05.621l-.023.04H9.603l-.005.342c-.004.26 0 .345.018.356.013.008.727.015 1.587.015.894 0 1.57.007 1.58.016.018.019-.013.282-.04.333a.547.547 0 00-.029.126.45.45 0 01-.044.144l-.03.05-4.599-.001c-4.91-.001-4.67.004-4.67-.099a.817.817 0 00-.037-.177.8.8 0 01-.036-.172c0-.03-.008-.07-.018-.088a2.017 2.017 0 01-.039-.308 1.609 1.609 0 00-.04-.3c-.022-.027-.002-.292.026-.344.01-.019.022-.177.027-.352.004-.175.013-.33.02-.346.005-.015.02-.09.033-.166.012-.077.032-.164.042-.195.01-.03.03-.093.04-.139.051-.197.068-.252.09-.29a.179.179 0 00.022-.069c0-.08.36-.79.504-.996l.152-.219c.288-.414.828-.907 1.36-1.244a6.107 6.107 0 01.689-.346.467.467 0 01.109-.04.406.406 0 00.1-.034c.103-.046.186-.074.308-.104l.176-.044a3.12 3.12 0 01.53-.095 7.37 7.37 0 00.303-.034 2.66 2.66 0 01.593-.002m2.145.744c.042.023.081.046.086.052.005.005.068.049.14.097.306.205.539.397.512.424-.008.009-.36.013-.783.01l-.767-.004-.006-.157a3.19 3.19 0 01.007-.31l.012-.153h.361c.34 0 .366.002.438.041m-4.531.343c-.006.01-.024.092-.04.183l-.056.315c-.015.082-.04.181-.056.22l-.03.07-.037-.063a2.437 2.437 0 00-.144-.192 3.374 3.374 0 01-.158-.209c-.028-.043-.058-.079-.065-.079-.008 0-.019-.017-.024-.038-.007-.026-.022-.037-.044-.032-.04.008-.038.143.003.243.013.032.03.102.037.156.007.053.02.102.03.107.009.006.016.035.016.065s.014.088.03.13c.037.09.031.099-.04.06l-.315-.163a9.825 9.825 0 01-.299-.158c-.111-.07-.11.021.002.15.032.035.095.11.141.165.046.055.131.155.19.221l.105.122-.087.006a1.023 1.023 0 01-.2-.014c-.15-.026-.539-.026-.555 0-.013.021.06.11.09.11.018 0 .08.026.265.112.042.02.088.036.104.036.015 0 .038.012.05.026a.168.168 0 00.08.037c.09.018.165.079.115.095a2.356 2.356 0 00-.252.112.226.226 0 01-.086.026.088.088 0 00-.06.028.081.081 0 01-.053.028.29.29 0 00-.095.034.595.595 0 01-.126.048c-.053.012-.06.02-.055.063.006.056-.05.053.51.03.355-.014.364-.013.294.052a2.115 2.115 0 00-.14.162c-.053.066-.144.17-.202.231-.194.202-.207.306-.026.206.048-.026.11-.057.139-.069.028-.01.05-.027.05-.035 0-.009.025-.021.056-.028.03-.007.06-.02.065-.028a.65.65 0 01.128-.072.578.578 0 00.13-.075c.007-.01.032-.02.056-.02.046 0 .046.002-.03.232-.011.03-.028.102-.038.158a.46.46 0 01-.035.122.334.334 0 00-.028.107c-.007.047-.019.09-.027.095-.007.005-.01.024-.005.043.016.06.105.028.16-.059.08-.125.093-.143.166-.236a.758.758 0 00.07-.099c0-.004.024-.036.055-.069.03-.033.055-.071.055-.083 0-.013.009-.028.019-.034.027-.018.056.071.086.266.014.096.034.189.044.207.01.018.018.062.018.097 0 .232.15.24.176.009.007-.064.024-.158.038-.208a.715.715 0 00.027-.16c0-.152.05-.251.093-.182.031.05.065.097.134.186.038.049.069.097.069.106 0 .01.012.022.028.028.015.006.028.022.028.036 0 .014.016.04.037.059.02.018.037.045.037.059 0 .014.012.03.027.036.015.006.032.027.038.047.011.034.097.082.115.063a.905.905 0 00-.05-.279.425.425 0 01-.038-.13c-.012-.066-.029-.12-.036-.12-.008 0-.019-.04-.025-.088a.507.507 0 00-.038-.142c-.042-.08-.002-.103.075-.043.021.016.095.056.367.198l.192.104c.074.04.15.06.15.037 0-.038-.06-.127-.133-.2a.432.432 0 01-.089-.105c0-.01-.01-.025-.023-.033a1.17 1.17 0 01-.116-.126 2.009 2.009 0 00-.143-.157c-.028-.025-.051-.053-.051-.063 0-.021.673-.002.75.021.123.038.152-.07.032-.118a2.935 2.935 0 01-.251-.11.259.259 0 00-.074-.027.425.425 0 01-.096-.037.426.426 0 00-.095-.036c-.012 0-.03-.012-.042-.026a.167.167 0 00-.08-.038c-.076-.015-.043-.04.156-.123.166-.07.188-.079.292-.126a.99.99 0 01.134-.05.256.256 0 00.098-.06l.048-.048-.043-.023c-.046-.026-.248-.02-.551.014a1.659 1.659 0 01-.24.014l-.062-.007.081-.088c.045-.048.12-.13.165-.184l.178-.2c.18-.194.172-.292-.014-.18-.133.08-.267.155-.35.196a5.113 5.113 0 00-.179.095c-.116.065-.124.057-.079-.075a.665.665 0 00.036-.16c0-.033.008-.064.018-.07a.323.323 0 00.039-.117.563.563 0 01.036-.124c.03-.04.04-.188.013-.21-.022-.018-.044.001-.12.103-.094.125-.18.236-.257.332a.872.872 0 00-.074.111c-.053.099-.117.05-.117-.09a.855.855 0 00-.028-.161 2.697 2.697 0 01-.046-.244c-.02-.134-.088-.255-.118-.207m.108.356l.054.334c.028.18.07.196.161.061.034-.049.1-.14.146-.2.047-.061.109-.147.138-.19.13-.195.125-.06-.018.403-.052.171-.055.24-.01.24.033 0 .374-.17.483-.24.295-.192.273-.131-.108.295-.241.269-.257.251.217.251.413 0 .439.011.22.096-.633.245-.628.236-.236.403.137.058.283.122.325.142.041.02.087.035.102.036.016.001.012.008-.01.018-.036.016-.361.01-.653-.011-.19-.014-.183.013.073.3.192.215.306.359.285.359-.009 0-.183-.09-.505-.262-.239-.127-.262-.112-.192.12.09.3.15.535.14.545-.016.016-.063-.026-.115-.103-.033-.048-.11-.157-.171-.241a3.297 3.297 0 01-.131-.189c-.02-.036-.088-.067-.106-.049-.011.012-.07.33-.098.539-.012.085-.03.142-.054.165-.042.042-.04.048-.072-.174-.076-.52-.112-.622-.179-.51-.01.018-.065.094-.12.169a8.368 8.368 0 00-.167.23c-.15.217-.195.239-.144.07.017-.054.048-.164.07-.246.022-.081.051-.185.066-.231.04-.13.017-.242-.04-.186-.018.018-.15.09-.276.153-.041.02-.087.044-.102.053a.937.937 0 01-.074.04.465.465 0 00-.074.043c-.047.037-.112.05-.112.023 0-.022.04-.072.182-.228.028-.03.088-.101.133-.157.046-.056.098-.113.116-.126.084-.063.041-.119-.083-.108-.2.018-.653.021-.662.005-.005-.009.02-.026.055-.039a2.16 2.16 0 00.148-.061c.046-.021.167-.074.269-.117.24-.102.243-.105.192-.159-.023-.024-.05-.044-.06-.044a.436.436 0 01-.094-.034 5.34 5.34 0 00-.177-.076 21.627 21.627 0 01-.268-.11c-.115-.048-.006-.063.35-.05.447.018.44.03.163-.284-.32-.363-.344-.403-.194-.322l.198.108c.446.242.5.247.416.034a1.46 1.46 0 01-.045-.154 6.554 6.554 0 00-.064-.241c-.06-.212-.064-.239-.032-.2.014.019.036.033.047.033.012 0 .022.01.022.024 0 .012.045.08.1.152.055.071.14.187.188.256.154.221.165.2.279-.56.018-.12.073-.018.108.202m21.119.26a.502.502 0 01-.105.016c-.113.004-.332.146-.382.247-.093.191-.094.463 0 .52.013.008.024.025.024.037 0 .026.116.142.143.142.01 0 .033.017.052.038.018.02.047.037.065.037.017 0 .042.012.054.026a.162.162 0 00.076.039c.03.006.054.018.054.027 0 .008.023.024.051.036.423.172.385.557-.054.557a.397.397 0 01-.173-.025.352.352 0 00-.11-.04.263.263 0 01-.103-.038.189.189 0 00-.093-.031l-.064-.005-.005.13c-.009.214.107.273.533.274.352 0 .618-.129.659-.32a.354.354 0 01.027-.08c.022-.04.023-.23.001-.244-.009-.005-.021-.037-.028-.07a.455.455 0 00-.095-.158.59.59 0 00-.23-.174 1.093 1.093 0 00-.185-.106c-.178-.088-.208-.106-.273-.17-.149-.145-.074-.32.158-.369.146-.03.434.003.466.055.045.073.102.01.107-.117.009-.194-.008-.21-.231-.224a8.633 8.633 0 01-.237-.017.31.31 0 00-.102.008m-10.087.036l-.042.017.005.94.005.94h.314l.01-.623c.008-.595.02-.729.047-.583.006.037.024.076.038.088a.074.074 0 01.026.049c0 .015.011.05.026.076.057.107.098.2.11.248.007.028.02.051.03.051.01 0 .019.014.019.031 0 .018.017.07.038.116a51.206 51.206 0 01.127.28.444.444 0 01.038.114c0 .015.017.05.037.075.02.026.038.057.038.068 0 .012.04.02.1.02.107 0 .156-.047.19-.181a.192.192 0 01.037-.075.087.087 0 00.024-.052.32.32 0 01.036-.096c.02-.037.05-.102.067-.142.017-.041.047-.105.066-.143a.317.317 0 00.035-.104c0-.02.013-.046.028-.059.015-.013.028-.035.028-.05a.22.22 0 01.026-.077c.038-.07.098-.208.112-.259.03-.098.038.013.047.605l.009.624.136.005c.206.008.188.097.188-.95V8.41l-.041-.029c-.042-.03-.257-.041-.319-.018a.514.514 0 00-.121.22c0 .013-.013.034-.028.047a.081.081 0 00-.028.053c0 .017-.015.06-.034.095a.622.622 0 00-.047.116c-.007.028-.02.05-.03.05-.01 0-.019.014-.019.031a.44.44 0 01-.04.116c-.037.081-.056.121-.144.318a.493.493 0 00-.038.106c0 .012-.007.022-.016.022-.01 0-.022.023-.03.051-.029.123-.102.238-.102.162A.316.316 0 0018 9.653a.314.314 0 01-.037-.1.08.08 0 00-.028-.053.095.095 0 01-.028-.065.092.092 0 00-.025-.063.172.172 0 01-.038-.084.172.172 0 00-.039-.084.092.092 0 01-.027-.062.222.222 0 00-.037-.095.222.222 0 01-.037-.095.092.092 0 00-.028-.063c-.015-.013-.028-.035-.028-.05a.329.329 0 00-.034-.094 2.608 2.608 0 01-.067-.143 3.093 3.093 0 00-.073-.157l-.043-.084-.155-.003a.788.788 0 00-.197.013m3.135.006c-.031.023-.045.052-.104.216a1.144 1.144 0 01-.048.114.226.226 0 00-.025.074.324.324 0 01-.037.094.323.323 0 00-.038.102.143.143 0 01-.027.069.135.135 0 00-.028.065c0 .016-.016.06-.037.098a.31.31 0 00-.037.102.14.14 0 01-.027.07.15.15 0 00-.028.073.32.32 0 01-.037.107.324.324 0 00-.038.101.144.144 0 01-.028.069.136.136 0 00-.027.065c0 .016-.017.06-.037.098a.31.31 0 00-.037.102.162.162 0 01-.029.074.274.274 0 00-.032.12l-.004.079.142.005.141.005.04-.063a.26.26 0 00.038-.103c0-.022.012-.059.026-.081a.381.381 0 00.04-.104c.027-.132.041-.136.406-.133.397.004.415.009.417.113 0 .025.013.062.029.082a.14.14 0 01.027.07c0 .018.016.064.037.102a.33.33 0 01.037.092c0 .04.326.033.341-.008a.044.044 0 00-.013-.05c-.015-.011-.032-.053-.04-.093a.349.349 0 00-.04-.11.15.15 0 01-.026-.071.31.31 0 00-.037-.102.34.34 0 01-.037-.09.247.247 0 00-.028-.075.243.243 0 01-.028-.081.146.146 0 00-.026-.066.327.327 0 01-.039-.105c-.007-.038-.024-.078-.038-.09a.077.077 0 01-.026-.05c0-.033-.061-.202-.104-.287a.246.246 0 01-.026-.08.32.32 0 00-.037-.095.315.315 0 01-.037-.098.136.136 0 00-.027-.065.142.142 0 01-.028-.067.484.484 0 00-.05-.125l-.048-.094h-.124a.356.356 0 00-.157.025m1.463.004c-.026.026-.029.132-.025.959l.005.929h1.037v-.115c0-.15.018-.143-.376-.154l-.346-.01-.01-.8c-.007-.686-.013-.805-.036-.82-.047-.03-.216-.021-.25.011m2.068.014c-.023.024-.04.059-.04.079a.22.22 0 01-.038.091.221.221 0 00-.037.093c0 .021-.016.07-.037.11a.339.339 0 00-.037.107c0 .018-.008.033-.018.033-.01 0-.023.03-.03.07a.373.373 0 01-.037.11.167.167 0 00-.026.065.327.327 0 01-.037.093.311.311 0 00-.037.102.15.15 0 01-.026.07.33.33 0 00-.04.106c-.006.037-.024.077-.038.089-.014.012-.026.045-.026.074 0 .028-.007.057-.017.062-.01.006-.027.042-.038.08a1.39 1.39 0 01-.046.125c-.134.306-.131.324.053.324.175 0 .193-.008.208-.09a.368.368 0 01.036-.105.392.392 0 00.036-.115c.007-.044.019-.079.027-.079s.02-.02.026-.044c.014-.057.082-.065.455-.056.299.007.315.012.316.093 0 .022.012.05.028.063.015.012.027.039.027.058 0 .02.016.071.035.114.02.043.039.094.042.115.006.033.024.037.17.042.184.006.209-.012.154-.114a.508.508 0 01-.042-.118.168.168 0 00-.037-.08c-.014-.012-.025-.044-.025-.07a.232.232 0 00-.037-.105.222.222 0 01-.037-.093.147.147 0 00-.028-.075.145.145 0 01-.028-.063.408.408 0 00-.037-.102.384.384 0 01-.036-.103.14.14 0 00-.028-.065.15.15 0 01-.028-.073.32.32 0 00-.038-.106.31.31 0 01-.037-.103.14.14 0 00-.027-.07.14.14 0 01-.028-.064.332.332 0 00-.037-.097.318.318 0 01-.037-.097.317.317 0 00-.037-.097.31.31 0 01-.037-.108c0-.116-.276-.173-.367-.076m1.083-.03c-.025.024-.013.136.015.147.015.006.028.022.028.035 0 .032.094.22.114.228.008.003.015.021.015.04a.17.17 0 00.038.08.17.17 0 01.037.073c0 .016.012.038.027.05a.083.083 0 01.028.056.17.17 0 00.037.08.17.17 0 01.037.074c0 .015.012.037.027.05a.159.159 0 01.038.074c.006.03.024.063.038.075a.081.081 0 01.027.055c0 .018.012.043.028.055.022.02.027.083.027.353 0 .412-.01.388.158.388.167 0 .157.023.158-.377 0-.25.006-.325.028-.353a.133.133 0 00.027-.062.17.17 0 01.037-.073.17.17 0 00.037-.08c0-.019.006-.036.014-.04a.625.625 0 00.115-.207c0-.015.007-.03.016-.033a.579.579 0 00.073-.13.617.617 0 01.077-.135c.01-.007.02-.025.02-.04 0-.016.016-.05.037-.076a.171.171 0 00.037-.082c0-.019.007-.034.015-.034.04 0 .08-.156.046-.18-.058-.044-.26-.03-.286.018a.225.225 0 01-.033.05 1.74 1.74 0 00-.095.177 2.172 2.172 0 01-.115.21.166.166 0 00-.032.077.083.083 0 01-.028.055c-.015.013-.028.036-.028.05a.17.17 0 01-.037.075.171.171 0 00-.037.081c0 .042-.024.045-.055.008a2.054 2.054 0 01-.167-.336.163.163 0 00-.034-.065.305.305 0 01-.047-.095c-.007-.028-.02-.051-.03-.051-.01 0-.019-.016-.019-.035a.171.171 0 00-.037-.081.17.17 0 01-.037-.076c0-.067-.284-.128-.34-.073m3.5.01c-.028.022-.03.096-.026.959l.005.935.136.005c.205.008.188.096.188-.943 0-.88-.001-.906-.037-.942-.044-.043-.213-.052-.265-.014m1.427-.003a.073.073 0 00-.033.057c0 .02-.016.059-.037.085a.189.189 0 00-.037.095.167.167 0 01-.028.085.147.147 0 00-.027.074c0 .02-.017.063-.037.093a.231.231 0 00-.037.105c0 .026-.012.058-.026.07a.167.167 0 00-.037.08.633.633 0 01-.04.12 1.15 1.15 0 00-.094.236.324.324 0 01-.038.093.158.158 0 00-.025.075.147.147 0 01-.027.074.138.138 0 00-.028.064c0 .016-.017.06-.037.097a.307.307 0 00-.037.11.12.12 0 01-.027.07c-.03.033-.064.164-.052.2.005.016.053.023.152.023.164 0 .188-.018.221-.168a.277.277 0 01.038-.097c.01-.011.02-.043.02-.071 0-.128.047-.145.41-.147.41-.002.392-.013.482.302.01.039.026.07.033.07.008 0 .02.025.026.056l.01.056.163-.005c.153-.005.163-.008.168-.047.004-.023-.002-.042-.012-.042s-.024-.033-.03-.073c-.007-.04-.024-.082-.039-.094-.014-.012-.026-.042-.026-.066a.312.312 0 00-.037-.114.313.313 0 01-.037-.098.136.136 0 00-.028-.065.144.144 0 01-.027-.069.353.353 0 00-.038-.106.337.337 0 01-.037-.108.087.087 0 00-.028-.058.094.094 0 01-.028-.063.369.369 0 00-.037-.113.387.387 0 01-.036-.103.151.151 0 00-.026-.064.334.334 0 01-.038-.106c-.007-.039-.02-.07-.03-.07-.01 0-.023-.034-.03-.075a.233.233 0 00-.033-.097.197.197 0 01-.034-.082.499.499 0 00-.06-.134l-.046-.075h-.125c-.069.001-.14.01-.157.02m-2.077.044c.026.036.035.168.016.22-.01.026-.101.006-.194-.043-.057-.03-.336-.025-.398.007a.28.28 0 01-.072.03c-.054 0-.122.12-.122.215 0 .15.061.21.392.382.346.18.438.273.476.482a.465.465 0 01-.234.507l-.088.053h-.333c-.424 0-.46-.014-.469-.185-.006-.116.019-.157.07-.114.122.103.552.144.679.066.251-.155.134-.438-.253-.612a.862.862 0 01-.074-.037A1.096 1.096 0 0027 9.348c-.238-.114-.343-.266-.341-.496.002-.237.104-.36.388-.466.087-.032.603-.008.63.03m-10.249.015c.01.023.031.062.046.088.015.025.027.06.027.079 0 .017.008.032.017.032.009 0 .022.023.029.05a.92.92 0 00.048.13c.044.097.108.242.128.292a15.508 15.508 0 00.181.417c.156.359.147.349.204.253a.613.613 0 00.05-.107c.008-.025.042-.105.076-.18.035-.074.063-.14.063-.147 0-.007.024-.063.054-.124.064-.134.17-.376.213-.491a1.672 1.672 0 00.086-.185c.057-.135.077-.149.215-.149.165 0 .156-.06.15.967l-.005.894h-.203l-.005-.694c-.005-.732-.009-.786-.052-.695a.832.832 0 01-.045.084 1.4 1.4 0 00-.066.139 23.9 23.9 0 01-.127.291 69.645 69.645 0 01-.27.616c-.01.02-.037.087-.062.148-.044.107-.048.111-.12.117-.082.006-.088-.003-.197-.274a2.107 2.107 0 00-.075-.17.214.214 0 01-.028-.076c0-.015-.012-.038-.027-.05a.081.081 0 01-.028-.054.357.357 0 00-.036-.104 5.241 5.241 0 01-.168-.374c0-.016-.071-.173-.094-.21a.686.686 0 01-.04-.078c-.012-.028-.029-.05-.037-.05-.008 0-.014.022-.014.05l-.005.718-.004.666h-.204l-.005-.905c-.003-.653.001-.912.016-.93.04-.048.291-.035.314.016m3.098.067c.027.06.05.12.05.134 0 .014.012.042.027.062a.14.14 0 01.028.064c0 .016.017.063.037.103.02.041.036.085.036.099 0 .013.01.042.023.065.02.036.083.203.156.41.014.041.038.097.053.124a.218.218 0 01.028.084c0 .02.012.051.027.071.015.02.027.047.028.061 0 .014.013.051.027.083.03.063.07.176.112.305.03.096.024.1-.131.093-.092-.005-.11-.012-.116-.043a.51.51 0 00-.031-.092 2.878 2.878 0 01-.104-.284c-.026-.087-.068-.096-.443-.096-.366 0-.39.007-.417.124a2.988 2.988 0 01-.115.326l-.029.07-.121-.005c-.133-.006-.152-.037-.083-.134a.15.15 0 00.026-.07c0-.019.016-.065.037-.103a.34.34 0 00.037-.09c0-.018.041-.125.093-.238.02-.045.068-.18.094-.263a.766.766 0 01.045-.111.238.238 0 00.027-.077c0-.014.011-.047.025-.074.035-.066.105-.25.105-.273 0-.01.016-.051.037-.091a.363.363 0 00.037-.101c0-.016.013-.045.028-.065a.139.139 0 00.027-.068c0-.066.073-.109.186-.109h.105l.05.109m1.37-.08c.026.026.03.124.03.798 0 .494.007.78.019.804.018.033.042.036.36.036h.342l.011.044a.329.329 0 01.005.097l-.006.053h-.963l-.005-.889c-.003-.488 0-.907.005-.93.013-.052.155-.06.203-.013m2.155.031c.02.034.043.085.05.115.008.03.026.076.04.102a.235.235 0 01.024.063c0 .009.011.042.025.074.014.032.044.108.066.17.023.06.052.136.065.166.013.03.042.104.064.162.099.265.12.323.144.378a.316.316 0 01.025.08c0 .013.012.045.026.072.014.027.043.099.066.16.022.061.052.138.067.172.04.092.035.096-.09.096-.156 0-.164-.009-.252-.296-.07-.227-.057-.221-.497-.222h-.337l-.047.08a.348.348 0 00-.047.113.297.297 0 01-.026.091 1.372 1.372 0 00-.047.126c-.03.096-.056.111-.18.105-.083-.004-.107-.012-.105-.034.004-.037.04-.14.083-.233a.392.392 0 00.034-.105c0-.017.008-.034.016-.04a.282.282 0 00.04-.098.675.675 0 01.036-.107c.007-.01.03-.068.054-.13.023-.06.054-.138.069-.171a.327.327 0 00.026-.084c0-.013.017-.054.037-.092a.318.318 0 00.037-.096c0-.015.016-.063.036-.107.02-.043.054-.129.077-.19.022-.061.052-.138.066-.17a.367.367 0 00.025-.072c0-.138.256-.198.33-.078m1.044-.035c.017.014.04.045.05.07a.55.55 0 00.039.072c.01.015.027.048.037.074.01.025.025.059.034.074a.962.962 0 01.095.203c0 .012.013.034.028.05a.102.102 0 01.028.06c0 .02.012.044.026.056a.156.156 0 01.038.074c.01.048.094.148.108.13.004-.005.063-.12.131-.258.07-.138.15-.296.18-.352a.793.793 0 00.054-.114c0-.082.105-.165.203-.16.118.006.14.039.076.12a.176.176 0 00-.038.08c0 .019-.007.037-.016.04a.612.612 0 00-.075.131.733.733 0 01-.076.134c-.009.006-.021.035-.028.065-.007.03-.019.056-.028.056-.008 0-.02.025-.027.055-.007.03-.02.06-.028.065a.206.206 0 00-.042.06 4.932 4.932 0 01-.09.172.78.78 0 00-.035.074.63.63 0 01-.041.083c-.016.025-.027.153-.033.38l-.01.342h-.221l-.01-.352-.01-.351-.205-.399c-.21-.409-.242-.47-.27-.518a.943.943 0 01-.089-.215c0-.034.2-.035.245 0m3.458.01c.035.066.026 1.81-.01 1.823a.39.39 0 01-.18 0c-.035-.012-.047-1.722-.014-1.81.024-.064.172-.073.204-.013m1.556.163l.116.301c.02.056.05.128.063.16a.321.321 0 01.025.08c0 .01.017.05.037.089.02.038.037.083.037.1 0 .018.008.037.017.043.01.005.022.035.03.065.006.03.04.123.075.207.035.084.063.162.064.172 0 .01.016.053.036.093.02.041.036.086.037.1a.24.24 0 00.025.073c.087.17.072.197-.107.185-.096-.006-.085.007-.16-.2a1.286 1.286 0 00-.045-.111 1.023 1.023 0 01-.045-.114c-.028-.087-.037-.09-.428-.09-.407 0-.39-.01-.485.324-.045.162-.08.194-.2.194-.128 0-.133-.005-.098-.101.015-.041.035-.101.045-.134a.782.782 0 01.045-.11.25.25 0 00.028-.08.14.14 0 01.028-.064.148.148 0 00.027-.075c0-.022.012-.056.027-.075a.14.14 0 00.028-.065c0-.016.017-.061.037-.101a.346.346 0 00.038-.101c0-.016.016-.06.037-.098a.323.323 0 00.037-.102c0-.018.013-.048.028-.068a.142.142 0 00.028-.065c0-.016.017-.062.036-.103a.452.452 0 00.037-.092c0-.024.072-.21.104-.272a.226.226 0 00.026-.078c0-.05.076-.086.187-.086h.105l.078.2m-18.23.126c.036.009.154.164.241.313.097.167.158.292.148.303-.007.007-.597.012-1.311.012h-1.3l-.005-.296a3.074 3.074 0 01.004-.319c.01-.024 2.135-.037 2.224-.013m17.998.017l-.049.118a.445.445 0 00-.035.111.248.248 0 01-.03.086.639.639 0 00-.045.11c-.008.031-.036.115-.062.186-.076.208-.093.194.24.194h.286v-.06c0-.034-.007-.07-.017-.08a.283.283 0 01-.036-.082 3.966 3.966 0 00-.067-.194A6.553 6.553 0 0130 8.945c-.046-.143-.108-.25-.121-.213m-9.562.032l-.056.153a2.772 2.772 0 01-.057.148.855.855 0 00-.035.102 2.078 2.078 0 01-.098.272c-.05.098-.028.104.346.099.23-.004.25-.012.215-.098a2.807 2.807 0 01-.044-.116c-.01-.03-.03-.08-.043-.11a.745.745 0 01-.038-.11.52.52 0 00-.038-.102.222.222 0 01-.025-.078.629.629 0 00-.104-.201c-.004 0-.015.018-.023.041m3.535.023a.289.289 0 00-.019.077c0 .015-.01.046-.022.068-.022.039-.117.3-.174.475-.043.13-.044.13.27.13h.278v-.06a.334.334 0 00-.037-.13.31.31 0 01-.037-.102.14.14 0 00-.028-.07.15.15 0 01-.027-.074c0-.02-.017-.07-.038-.11a.35.35 0 01-.038-.11c0-.088-.103-.162-.128-.094M20.4 8.91c.014.027.026.06.026.074a.23.23 0 00.026.074.54.54 0 01.04.111.334.334 0 00.038.098c.014.02.025.054.025.075 0 .02.014.057.03.08.017.025.023.05.014.06-.028.027-.451.028-.468 0-.016-.025.009-.163.035-.195a.275.275 0 00.029-.088c.007-.038.024-.078.038-.09.015-.012.026-.042.026-.066s.017-.075.037-.113a.334.334 0 00.038-.116l.002-.046.019.046c.01.026.03.069.045.096m9.54-.016a.27.27 0 01.031.087.375.375 0 00.037.102.39.39 0 01.037.101.384.384 0 00.038.102c.038.059.056.213.025.214a3.318 3.318 0 01-.424-.01c-.025-.016-.003-.144.04-.227a.314.314 0 00.034-.109c0-.022.01-.043.02-.047.01-.004.027-.036.036-.071.051-.195.082-.264.095-.213a.239.239 0 00.031.071m-6.02-.047c.012.008.03.051.04.097.01.045.028.085.039.089.01.004.02.024.02.046 0 .04.055.201.103.297.064.129.036.137-.423.124-.04-.001-.046-.115-.007-.147.014-.012.032-.052.039-.09a.33.33 0 01.039-.105.173.173 0 00.026-.085c0-.026.011-.063.025-.083a.324.324 0 00.039-.097c.013-.063.023-.07.06-.046m-11.354 1.253c.046.015.177.572.144.604-.028.027-3 .044-3.033.018-.033-.028-.043-.622-.01-.633.026-.009 2.875.002 2.9.01m-8.668 1.048c.007.01.029.019.049.019s.032-.009.026-.019c-.007-.01-.029-.018-.049-.018s-.032.008-.026.018m.917.02c-.023.017-.024.022-.002.03.02.008.014.017-.018.035-.033.018-.036.025-.014.026.054 0 .09-.021.09-.056 0-.02.016-.037.041-.042.033-.006.03-.008-.014-.01a.163.163 0 00-.083.017m-.62.037c.132.02.234.02.185-.001a.585.585 0 00-.158-.015l-.12.001.093.015m.277-.001c-.013.022.063.022.167 0 .071-.014.07-.015-.04-.017-.063 0-.12.007-.127.017m.13.11l-.037.017h.037c.02.001.05-.006.065-.016.037-.024-.01-.024-.065 0m-.291.084a1.229 1.229 0 01-.193.037l-.182.026.166-.01c.132-.01.326-.06.24-.062-.012 0-.025.004-.031.01m-.727.036a.645.645 0 00.148.025c.08-.002 0-.025-.14-.04l-.1-.011.092.026m9.184.07c.038.051-.003.532-.05.58l-.038.042-1.505.001c-1.361.001-1.505-.002-1.516-.028-.022-.06-.012-.592.012-.617.036-.037 3.07-.015 3.097.022m1.474.643c-.054.008-.104.023-.11.033-.007.01-.035.024-.062.031a.158.158 0 00-.072.039c-.012.014-.032.026-.044.026-.102 0-.398.454-.4.614a.95.95 0 01-.015.137c-.017.088.018.481.048.536.012.02.039.074.061.12.066.134.271.333.344.333.013 0 .026.009.03.019.024.073.553.11.774.054.164-.042.222-.094.222-.2 0-.123-.066-.194-.13-.14-.086.073-.458.123-.552.074a.26.26 0 00-.09-.029c-.06 0-.209-.115-.274-.213-.103-.153-.162-.562-.097-.663a.363.363 0 00.039-.108c.007-.037.025-.078.04-.09.015-.013.027-.03.027-.04 0-.028.136-.15.216-.193.166-.09.535-.099.668-.015.106.067.153.028.153-.13 0-.175-.087-.212-.49-.21-.103 0-.23.007-.286.015m3.687-.002c-.054.006-.104.02-.111.03a.205.205 0 01-.06.042c-.134.068-.165.1-.237.24-.081.16-.035.412.1.547.058.057.205.16.229.16.008 0 .025.013.038.028a.083.083 0 00.055.028c.018 0 .051.017.075.037.023.02.057.037.074.037.018 0 .042.012.055.027.012.015.04.033.061.04.058.018.18.189.18.251 0 .06-.068.163-.114.173a.153.153 0 00-.072.038c-.03.035-.286.036-.352.002a.496.496 0 00-.11-.037.245.245 0 01-.091-.038c-.102-.087-.168-.045-.168.108 0 .142.043.191.2.23.166.04.507.048.575.013a.271.271 0 01.101-.03.1.1 0 00.068-.027c.013-.015.033-.028.045-.028.11 0 .214-.202.214-.418a.556.556 0 00-.35-.54.183.183 0 01-.066-.041c-.007-.01-.027-.02-.045-.02a.083.083 0 01-.056-.026.158.158 0 00-.075-.038c-.029-.006-.057-.023-.063-.038-.006-.015-.025-.027-.043-.027-.141-.003-.212-.274-.101-.385.089-.09.48-.097.609-.012.11.072.2-.154.11-.277-.042-.058-.393-.083-.675-.05m-1.832.021c-.023.01-.042.028-.042.041a.326.326 0 01-.037.093.311.311 0 00-.037.102.31.31 0 01-.037.102.324.324 0 00-.038.101.144.144 0 01-.028.069.146.146 0 00-.027.074c0 .02-.017.063-.037.094a.221.221 0 00-.037.093c0 .02-.011.054-.025.074a.32.32 0 00-.038.092 1.123 1.123 0 01-.091.231.768.768 0 00-.042.12.322.322 0 01-.038.093.151.151 0 00-.025.07.172.172 0 01-.026.074.38.38 0 00-.04.106.247.247 0 01-.037.093.22.22 0 00-.03.102l-.006.074.147.005c.163.006.213-.023.214-.126 0-.025.017-.071.037-.102a.224.224 0 00.037-.097c0-.023.019-.07.042-.106l.041-.065h.325c.353 0 .39.01.413.111.016.074.078.236.1.263a.169.169 0 01.026.07c.007.045.012.047.17.052.181.006.21-.013.156-.105a.444.444 0 01-.04-.109c-.008-.033-.02-.06-.03-.06-.008 0-.02-.032-.027-.072a.3.3 0 00-.038-.107.144.144 0 01-.026-.071.162.162 0 00-.027-.075.33.33 0 01-.039-.106c-.007-.037-.024-.077-.039-.089-.014-.012-.025-.04-.025-.065a.254.254 0 00-.037-.104.25.25 0 01-.037-.099.147.147 0 00-.028-.074.138.138 0 01-.027-.06.311.311 0 00-.028-.084 2.705 2.705 0 01-.104-.284.766.766 0 00-.046-.112.237.237 0 01-.027-.08c0-.13-.203-.212-.365-.147m3.11-.007c-.018.008-.023.218-.023.963v.952l.144-.005.143-.005.005-.403.005-.403h.433c.378 0 .434.004.444.03.006.016.011.199.011.407v.378h.137c.195 0 .18.081.174-.958-.006-1.033.005-.968-.16-.968-.157 0-.15-.018-.155.408l-.005.38-.44.004-.44.005v-.376c0-.268-.006-.383-.022-.399-.021-.021-.204-.029-.25-.01m3.147 0c-.018.008-.023.217-.023.962v.952h.135c.185 0 .18.009.18-.344 0-.34-.008-.323.157-.323.126 0 .38-.052.418-.085.017-.014.038-.026.049-.026.12 0 .335-.393.316-.579-.02-.175-.157-.438-.23-.439-.011 0-.025-.012-.031-.026-.005-.015-.036-.032-.068-.039a.529.529 0 01-.108-.039c-.049-.025-.736-.037-.795-.014m2.053.04c-.036.051-.076.149-.116.281a.438.438 0 01-.045.102.148.148 0 00-.026.07.31.31 0 01-.037.101.335.335 0 00-.037.091.251.251 0 01-.026.075c-.04.08-.104.253-.104.284a.138.138 0 01-.028.063.14.14 0 00-.027.07.31.31 0 01-.037.102.33.33 0 00-.038.098.139.139 0 01-.028.064.146.146 0 00-.027.074c0 .02-.017.063-.037.093a.232.232 0 00-.037.105c0 .026-.013.059-.029.072-.083.07-.027.12.142.125l.16.005.031-.088c.017-.05.04-.122.052-.163a.464.464 0 01.045-.11.15.15 0 00.025-.07c0-.059.064-.07.401-.07h.33l.042.09c.023.05.042.1.042.112 0 .011.016.051.037.09a.31.31 0 01.037.11c0 .087.346.16.353.075a.267.267 0 00-.03-.157.172.172 0 01-.028-.065.404.404 0 00-.036-.098.401.401 0 01-.037-.099.24.24 0 00-.025-.074 1.04 1.04 0 01-.047-.11l-.042-.12a2.063 2.063 0 00-.055-.136.43.43 0 01-.035-.102.138.138 0 00-.028-.061.166.166 0 01-.027-.086c0-.027-.013-.06-.028-.072-.015-.013-.032-.053-.04-.09a.258.258 0 00-.034-.096.265.265 0 01-.036-.097c-.007-.038-.02-.07-.028-.07-.01 0-.022-.032-.029-.073-.006-.04-.024-.082-.038-.094-.015-.012-.027-.046-.027-.074 0-.13-.287-.19-.368-.077m1.073-.025c-.02.024.01.11.09.25.01.016.025.05.037.075a12.369 12.369 0 01.196.389c.156.318.155.316.205.407.03.056.037.116.045.417l.01.352h.296l.009-.343.01-.342.06-.12c.063-.124.082-.162.115-.218l.04-.08a.805.805 0 01.036-.073c.01-.016.03-.054.044-.087a.222.222 0 01.046-.07c.01-.007.02-.032.02-.057s.007-.045.016-.045c.009 0 .03-.032.047-.07.045-.1.088-.179.104-.19.008-.005.02-.034.028-.065a.258.258 0 01.033-.08c.034-.043-.038-.077-.163-.077-.141 0-.133-.006-.241.21-.05.1-.098.185-.106.19-.008.006-.015.025-.015.044 0 .02-.013.047-.028.063-.015.015-.028.033-.028.04 0 .018-.097.22-.111.23a.133.133 0 00-.026.052c-.014.045-.103-.054-.103-.115 0-.013-.012-.034-.027-.046a.159.159 0 01-.038-.075.158.158 0 00-.038-.075.081.081 0 01-.027-.055.081.081 0 00-.027-.055.159.159 0 01-.038-.075.16.16 0 00-.038-.075c-.015-.012-.027-.033-.027-.047a.565.565 0 00-.1-.197c-.038-.026-.282-.016-.306.013m1.946-.003c-.025.031-.032 1.861-.007 1.887.01.009.075.014.145.011l.128-.005.01-.633c.008-.604.019-.739.046-.592.007.036.024.076.038.087a.078.078 0 01.026.053c0 .016.011.047.025.067a.51.51 0 01.048.106c.012.038.03.07.04.07.01 0 .017.014.017.032 0 .017.017.065.037.106.02.04.036.088.036.104 0 .017.013.04.029.053a.081.081 0 01.027.054.25.25 0 00.037.09.25.25 0 01.037.098c0 .02.012.042.027.047.014.006.032.043.039.083.006.04.02.078.03.084.01.006.025.03.035.055.033.088.202.065.253-.034.067-.132.116-.246.116-.27 0-.014.013-.037.028-.052a.114.114 0 00.028-.07c0-.024.012-.053.028-.066.015-.013.027-.035.027-.05 0-.014.016-.057.036-.095.061-.119.113-.238.113-.261 0-.013.012-.035.027-.05a.1.1 0 00.028-.06.34.34 0 01.037-.104.361.361 0 00.037-.097c0-.027.03-.032.045-.008.005.008.01.287.012.62.003.691-.01.646.178.638l.126-.005.005-.94.005-.94-.048-.019c-.12-.045-.36-.013-.36.049a.315.315 0 01-.036.096 2.78 2.78 0 00-.076.161 3.378 3.378 0 01-.139.306 1.168 1.168 0 01-.046.096.31.31 0 00-.036.104c0 .02-.013.046-.028.059-.015.013-.028.035-.028.049a.32.32 0 01-.037.094.314.314 0 00-.037.1c0 .017-.012.04-.026.052a.17.17 0 00-.04.08c-.02.095-.078.178-.091.133a.997.997 0 00-.037-.091.873.873 0 01-.038-.101.193.193 0 00-.039-.071.11.11 0 01-.025-.068.096.096 0 00-.028-.066c-.015-.013-.028-.036-.028-.051a.456.456 0 00-.039-.114l-.076-.168a4.247 4.247 0 00-.063-.133.238.238 0 01-.025-.085.087.087 0 00-.027-.06.173.173 0 01-.04-.085.172.172 0 00-.037-.083.078.078 0 01-.026-.052.273.273 0 00-.047-.1l-.047-.069h-.154c-.105 0-.161.008-.175.024m2.598.002c-.048.035-.068 1.84-.02 1.879.018.015.169.02.541.017l.516-.005.015-.056a.224.224 0 00-.008-.13l-.025-.074-.357-.005-.357-.005.006-.263.005-.264.296-.009c.35-.01.343-.008.343-.148 0-.138.013-.133-.332-.13-.347.002-.317.03-.317-.297v-.24h.34c.238 0 .345-.006.36-.022.04-.039.029-.232-.013-.255-.06-.031-.949-.025-.993.007m1.552-.014c-.018.008-.023.217-.023.962v.952h.136c.175 0 .16.07.161-.756.001-.384.007-.685.013-.67a.923.923 0 00.069.111.827.827 0 01.07.116c.007.018.02.032.03.032.01 0 .024.018.03.04.011.033.148.248.176.275.005.005.02.03.033.056.059.114.081.148.097.148.01 0 .018.01.018.022 0 .022.082.151.125.197a.088.088 0 01.023.05c0 .014.01.032.023.04.028.018.06.067.097.147a.192.192 0 00.042.065.196.196 0 01.042.062l.029.056h.369l.005-.936c.005-1.06.017-.981-.152-.98-.16 0-.148-.048-.159.697-.008.612-.012.663-.041.669-.018.003-.033-.003-.033-.014a.466.466 0 00-.065-.112.503.503 0 01-.064-.11c0-.01-.01-.028-.024-.042a.6.6 0 01-.106-.161c0-.01-.011-.029-.024-.042a.863.863 0 01-.078-.117.892.892 0 00-.065-.102.914.914 0 01-.064-.102.563.563 0 00-.07-.104.465.465 0 01-.085-.138.21.21 0 00-.047-.062c-.017-.014-.03-.034-.03-.046 0-.026-.043-.087-.114-.162-.049-.052-.257-.076-.344-.04m2.017.01c-.03.03-.029.226.002.252.014.012.126.022.264.025l.24.006.004.81.005.81h.137c.192 0 .179.064.177-.822 0-.425.004-.78.01-.79.006-.01.111-.018.238-.018.278 0 .297-.009.297-.148 0-.073-.009-.103-.035-.122-.048-.035-1.304-.038-1.339-.004m-18.745.014c.082.024.112.068.113.162 0 .1-.014.107-.152.069-.4-.11-.847.057-.915.342a.556.556 0 01-.037.1c-.039.076-.037.491.003.583.068.156.095.197.182.273.182.16.483.207.746.118.148-.05.173-.04.173.062 0 .148-.066.172-.481.172-.384 0-.4-.004-.602-.163-.464-.361-.404-1.27.104-1.597.201-.13.628-.189.866-.12m3.677.008c.075.031.091.075.075.197-.013.094-.024.107-.06.07-.087-.087-.462-.122-.594-.055-.234.12-.227.375.013.498.598.308.706.412.706.682 0 .324-.187.474-.603.486-.431.012-.544-.03-.545-.205 0-.105.045-.148.098-.095.094.094.518.136.652.064.18-.097.194-.276.032-.445-.05-.051-.066-.061-.282-.172-.38-.194-.5-.33-.5-.563 0-.198.095-.326.333-.445.103-.052.563-.064.675-.017m-2.13.09c.025.053.064.147.086.208.022.06.052.133.066.16a.224.224 0 01.025.079c0 .016.017.06.037.098.02.038.038.082.038.098a.14.14 0 00.028.064c.015.02.027.049.028.064 0 .016.016.063.036.103.02.041.036.087.036.103s.013.045.028.065a.14.14 0 01.028.063c0 .031.064.204.104.285a.249.249 0 01.026.08c0 .016.013.05.028.077.106.19.088.234-.09.222l-.088-.006-.047-.12a8.917 8.917 0 00-.08-.204 1.387 1.387 0 01-.047-.123c-.015-.056-.052-.062-.427-.062-.396 0-.368-.015-.452.238-.093.28-.093.28-.224.28-.126 0-.148-.022-.104-.105.032-.063.105-.25.105-.272 0-.008.012-.041.025-.073.014-.032.044-.109.066-.17.023-.061.057-.147.077-.19a.427.427 0 00.037-.111c0-.018.012-.048.027-.068a.136.136 0 00.028-.065c0-.016.01-.05.024-.075a2.47 2.47 0 00.076-.195c.03-.081.06-.156.067-.166a.39.39 0 00.033-.084c.08-.267.104-.296.247-.296h.109l.044.097m3.042-.074c.008.013.019.194.024.403l.01.38.436.005c.54.006.485.052.494-.419.008-.403.005-.395.133-.387.115.006.113-.011.11.98-.001.958.01.885-.128.885-.126 0-.12.019-.115-.384.004-.27 0-.377-.018-.41l-.024-.043-.442.001c-.244.001-.446.006-.45.01-.004.004-.01.19-.012.412l-.003.405h-.241l-.005-.889c-.003-.488 0-.907.005-.93.012-.048.197-.064.226-.019m3.7.006c.284.09.387.23.386.527-.001.42-.264.63-.794.63-.127 0-.122-.017-.122.349 0 .266-.004.315-.028.324-.047.018-.19.013-.202-.007-.025-.04-.012-1.82.013-1.836.046-.03.648-.018.748.013m1.566.002c.02.017.034.043.034.059 0 .015.015.062.034.103.019.042.043.1.054.131.057.158.07.192.103.269.054.128.061.147.116.305.029.082.063.17.076.195a.214.214 0 01.025.071c0 .024.019.072.094.24.02.043.035.095.035.114 0 .02.008.04.018.046.009.006.026.042.038.08s.034.096.049.13c.037.082.021.096-.103.096-.135 0-.158-.028-.243-.302a1.234 1.234 0 00-.056-.135l-.04-.081h-.746l-.04.088a3.215 3.215 0 00-.092.245.753.753 0 01-.07.171c-.026.018-.252.018-.251 0 0-.021.054-.174.084-.238a.294.294 0 00.027-.085c0-.014.012-.042.027-.062a.138.138 0 00.027-.061c0-.015.017-.06.036-.102.018-.042.044-.106.057-.141.012-.036.04-.107.06-.158.02-.05.043-.117.051-.148a.617.617 0 01.045-.11.264.264 0 00.03-.084.14.14 0 01.028-.064.142.142 0 00.028-.065c0-.016.017-.062.036-.103a.398.398 0 00.037-.099c0-.013.012-.047.027-.074a.443.443 0 00.037-.095c.033-.155.222-.233.328-.136m1.257.37c.262.524.268.533.31.437a11.976 11.976 0 00.202-.403c.22-.448.21-.435.328-.435.112 0 .14.029.1.102-.014.023-.081.154-.152.29-.13.254-.234.453-.346.664l-.063.12-.01.343-.009.342h-.222l-.009-.342c-.01-.358-.018-.397-.129-.574a16.46 16.46 0 01-.196-.393c-.098-.2-.184-.37-.19-.376-.02-.02-.055-.155-.044-.166a.392.392 0 01.123-.006l.112.006.195.39m1.81-.34c.021.034.06.115.087.18a8.303 8.303 0 00.147.344l.048.11c.015.037.088.203.138.315.014.03.043.102.066.158.022.056.051.123.064.148.013.025.029.07.035.097.025.105.098-.02.298-.505.027-.066.06-.145.075-.175a5.24 5.24 0 00.157-.358c0-.007.016-.046.037-.087.02-.04.055-.117.078-.17.045-.106.065-.116.212-.116.145 0 .137-.057.132.955l-.005.905h-.185l-.01-.703a34.087 34.087 0 00-.014-.709c-.021-.025-.058.034-.15.236l-.103.229c-.036.08-.066.15-.066.155a.737.737 0 01-.039.096l-.063.14-.13.297c-.13.293-.112.268-.192.268-.06 0-.076-.007-.086-.041a2.145 2.145 0 00-.069-.162 13.805 13.805 0 01-.161-.361 9.174 9.174 0 01-.103-.241 9.476 9.476 0 00-.184-.42.405.405 0 00-.072-.12.097.097 0 01-.036-.043c-.012-.034-.015.118-.014.828v.541l-.043.011a.384.384 0 01-.106.005l-.063-.006-.005-.907c-.002-.5 0-.918.004-.93.023-.06.282-.03.322.036m3.221-.038c.013.013.023.053.023.09 0 .107-.012.11-.357.11-.412 0-.384-.021-.384.296 0 .336-.023.315.352.315.317 0 .318 0 .318.105 0 .091.007.09-.334.096-.366.008-.335-.02-.336.31 0 .344-.03.32.408.327l.342.005v.185l-.454.005c-.25.003-.472.001-.495-.005l-.042-.01v-.878c0-.525.007-.897.018-.925l.018-.048h.45c.326 0 .457.006.473.022m.911.03c.045.057.241.356.241.367 0 .004.03.049.065.1a.8.8 0 01.065.1c0 .005.044.074.097.154.081.12.215.329.3.47.073.12.164.237.178.228.01-.006.017-.31.018-.699 0-.813-.006-.772.11-.772.138 0 .13-.051.126.956l-.005.905-.13.005c-.153.005-.149.008-.242-.134a4.897 4.897 0 00-.086-.13 7.23 7.23 0 01-.218-.334c0-.004-.032-.056-.072-.115-.04-.058-.1-.152-.136-.208a43.189 43.189 0 00-.185-.287 5.546 5.546 0 01-.143-.23c-.056-.106-.066-.013-.075.716l-.01.717h-.222l-.005-.889c-.003-.489 0-.907.005-.93.017-.07.268-.063.324.01m3.002 0a.178.178 0 01.003.106l-.015.055-.213.005a2.467 2.467 0 00-.254.014l-.041.01v.792c0 .881.007.836-.133.836-.119 0-.112.053-.11-.808 0-.482-.006-.783-.018-.805-.017-.031-.043-.035-.265-.035h-.247l-.012-.055a.34.34 0 010-.111l.012-.056h1.274l.019.051m-12.28.194c-.037.037-.033.678.005.702.056.036.328.018.429-.028.256-.117.299-.489.074-.641-.085-.057-.46-.082-.508-.033m.47.056c.226.148.185.522-.065.585-.145.036-.326.047-.357.022-.03-.025-.044-.608-.016-.636.035-.035.374-.012.438.03m-6.913.108a.787.787 0 01-.036.107 2.277 2.277 0 00-.104.289.326.326 0 01-.038.092.163.163 0 00-.025.077c0 .023-.009.047-.019.053-.01.006-.018.035-.018.064 0 .065.01.067.328.06l.246-.006v-.053a.276.276 0 00-.027-.105 3.72 3.72 0 01-.104-.275c-.13-.374-.168-.432-.203-.303m8.359-.023c-.027.03-.072.14-.119.29a1.21 1.21 0 01-.034.092c-.057.133-.116.341-.103.363.01.017.55.023.567.007.012-.012-.034-.192-.057-.22a.264.264 0 01-.03-.082.53.53 0 00-.039-.111.23.23 0 01-.026-.074.432.432 0 00-.035-.102.848.848 0 01-.047-.138c-.015-.068-.035-.075-.077-.025m-8.28.096a.245.245 0 01.033.088.31.31 0 00.037.1c.02.039.037.086.037.107 0 .02.016.068.037.106a.31.31 0 01.037.1c0 .018.008.038.018.044.097.06-.288.129-.44.079-.024-.009-.008-.16.022-.203a.17.17 0 00.03-.08c0-.02.01-.054.025-.074a.34.34 0 00.04-.102.343.343 0 01.039-.101.162.162 0 00.025-.079c0-.058.022-.052.06.015m8.347.009c0 .026.016.08.037.12.02.04.037.087.037.105 0 .018.013.05.028.07.015.019.027.054.027.077s.018.076.04.117c.063.122.05.13-.213.13-.26 0-.27-.005-.214-.121a.373.373 0 00.035-.106c0-.018.012-.052.026-.074a.375.375 0 00.038-.11c.007-.039.02-.07.028-.07.01 0 .022-.036.03-.079.019-.12.1-.167.1-.06m-12.052.226c.018.018.017.03-.008.057a.12.12 0 00-.03.066.311.311 0 01-.038.1.31.31 0 00-.037.1c0 .018-.008.037-.017.043a.213.213 0 00-.04.08.544.544 0 01-.058.12l-.036.05H3.791l-.043-.04c-.024-.022-.043-.05-.043-.06a.318.318 0 00-.034-.085 1.953 1.953 0 01-.077-.185 1.184 1.184 0 00-.07-.161.107.107 0 01-.014-.079l.012-.038 4.507.005c3.53.004 4.512.01 4.53.027m-.188.658a.14.14 0 01-.019.047 3.497 3.497 0 01-.356.597c-.035.042-7.878.042-7.921 0-.098-.096-.381-.593-.364-.638.01-.023 8.66-.029 8.66-.006m-.525.723c.008.008.007.02-.003.028-.01.007-.06.063-.11.124a7.653 7.653 0 01-.34.379l-.08.084-3.225.005c-1.774.003-3.25.001-3.281-.004-.077-.014-.266-.203-.515-.512-.078-.098-.08-.104-.036-.115.058-.016 7.574-.004 7.59.011m-.5.668c.005.004-.014.027-.04.05l-.107.101a5.285 5.285 0 01-.558.422l-.142.088H8.04c-2.443 0-2.462 0-2.528-.038a1.333 1.333 0 01-.176-.111 1.66 1.66 0 00-.117-.08 1.46 1.46 0 01-.157-.119 3.38 3.38 0 00-.162-.135c-.093-.075-.194-.173-.194-.19 0-.007 6.634.004 6.642.012m-1.115.715c.007.01.003.019-.008.019a.797.797 0 00-.135.056c-.064.032-.17.078-.236.104a4.498 4.498 0 00-.176.072c-.08.036-.357.12-.398.12-.02 0-.04.008-.047.018-.006.01-.028.019-.05.019-.02 0-.105.016-.188.036-.626.148-1.64.107-2.299-.094-.375-.114-.878-.326-.848-.356.02-.02 4.373-.014 4.385.006" id="svg_80"/></g></g></svg>