<svg xmlns="http://www.w3.org/2000/svg" fill="none" viewBox="0 0 38 24" height="24" width="38" aria-labelledby="pi-mandiri" role="img"><title id="pi-mandiri">Mandiri</title><path fill="#fff" d="M0 0h38v24H0z"/><path fill="#0D2B5B" d="M3.038 13.403c0-.462-.009-.85-.034-1.197h.876l.041.595h.025c.198-.314.561-.686 1.238-.686.529 0 .941.298 1.115.744h.017c.14-.223.305-.389.495-.504.223-.157.48-.24.81-.24.668 0 1.345.454 1.345 1.743v2.37h-.991v-2.222c0-.668-.231-1.065-.718-1.065-.347 0-.603.248-.71.537a1.43 1.43 0 0 0-.05.338v2.412h-.99v-2.33c0-.56-.224-.957-.695-.957-.379 0-.634.298-.726.578a.88.88 0 0 0-.058.33v2.379h-.99v-2.825Zm9.788 1.859c0 .363.017.717.057.966h-.916l-.066-.446h-.025c-.248.314-.669.536-1.188.536-.81 0-1.264-.586-1.264-1.197 0-1.017.9-1.527 2.387-1.52v-.065c0-.265-.108-.702-.818-.702-.397 0-.81.124-1.082.297l-.198-.661c.297-.182.818-.355 1.453-.355 1.288 0 1.66.818 1.66 1.692v1.455Zm-.991-.999c-.719-.017-1.404.14-1.404.751 0 .396.257.578.579.578a.824.824 0 0 0 .792-.553.745.745 0 0 0 .033-.223v-.553Zm1.693-.86c0-.462-.009-.85-.033-1.197h.891l.05.604h.024c.173-.314.611-.695 1.28-.695.702 0 1.428.454 1.428 1.727v2.385h-1.015v-2.27c0-.578-.215-1.017-.768-1.017-.404 0-.686.29-.793.595-.033.09-.04.215-.04.33v2.362h-1.025v-2.824h.001Zm8.044-2.812v4.505c0 .413.017.86.033 1.132h-.908l-.041-.636h-.017c-.24.446-.727.726-1.313.726-.958 0-1.717-.817-1.717-2.055-.009-1.346.833-2.147 1.8-2.147.553 0 .95.23 1.13.53h.018V10.59h1.015v.001Zm-1.015 3.292c0-.089-.008-.178-.025-.265-.091-.395-.412-.718-.875-.718-.652 0-1.016.578-1.016 1.33 0 .734.363 1.27 1.008 1.27a.896.896 0 0 0 .874-.718c.025-.09.034-.19.034-.297v-.602Zm1.733 2.345v-4.022h1.025v4.022H22.29Zm1.742-2.725c0-.545-.007-.933-.032-1.296h.883l.033.767h.033c.198-.57.669-.767 1.1-.767.098 0 .155-.017.238 0v.892a1.406 1.406 0 0 0-.297-.033c-.488 0-.818.314-.909.767-.02.104-.03.21-.032.315v2.08h-1.017v-2.725Zm2.726 2.725v-4.022h1.023v4.022h-1.023Z"/><path fill="#FDD213" d="M34.154 7.954c-.507-.579-1.045-.317-1.474-.104-.18.089-1.48.826-1.48.826-.713.294-1.267-.027-1.485-.297a.627.627 0 0 1-.056-.08l-.05-.089a3.972 3.972 0 0 0-.286-.427 2.423 2.423 0 0 0-.206-.234c-.487-.492-1.266-.837-2.568-.21-.617.357-2.625 1.504-2.625 1.504-.755.31-1.332-.068-1.52-.345a.203.203 0 0 1-.022-.034l-.024-.042-.127-.208a2.672 2.672 0 0 0-.39-.499c-.485-.489-1.26-.833-2.55-.219L16.695 8.98l-1.33.76.688.844c.29.275.833.728 1.674.346l2.33-1.348c1.986-1.09 2.965-.049 3.398.645.015.022.027.045.041.066v.001l.014.025.05.08c.21.32.543.526.94.517.218-.005.367-.076.583-.196l2.246-1.303.005-.002c2.01-1.103 3.006.006 3.431.7.033.06.07.117.11.17.21.286.5.473.87.464.243-.005.516-.151.557-.178l2.693-1.555c.001.001-.274-.415-.84-1.062Z"/></svg>