<?xml version="1.0" encoding="UTF-8" standalone="no"?>
<svg
   xmlns:dc="http://purl.org/dc/elements/1.1/"
   xmlns:cc="http://creativecommons.org/ns#"
   xmlns:rdf="http://www.w3.org/1999/02/22-rdf-syntax-ns#"
   xmlns:svg="http://www.w3.org/2000/svg"
   xmlns="http://www.w3.org/2000/svg"
   viewBox="0 0 1056 816"
   height="816"
   width="1056"
   xml:space="preserve"
   id="svg2"
   version="1.1"><metadata
     id="metadata8"><rdf:RDF><cc:Work
         rdf:about=""><dc:format>image/svg+xml</dc:format><dc:type
           rdf:resource="http://purl.org/dc/dcmitype/StillImage" /></cc:Work></rdf:RDF></metadata><defs
     id="defs6"><clipPath
       id="clipPath18"
       clipPathUnits="userSpaceOnUse"><path
         id="path16"
         d="M 0,612 H 792 V 0 H 0 Z" /></clipPath></defs><g
     transform="matrix(1.3333333,0,0,-1.3333333,0,816)"
     id="g10"><g
       id="g12"><g
         clip-path="url(#clipPath18)"
         id="g14"><g
           transform="translate(462.7043,293.9446)"
           id="g20"><path
             id="path22"
             style="fill:#f79e1b;fill-opacity:1;fill-rule:nonzero;stroke:none"
             d="M 0,0 C -0.487,0 -0.919,-0.074 -1.298,-0.221 -1.676,-0.37 -2.002,-0.58 -2.276,-0.854 -2.549,-1.128 -2.774,-1.454 -2.948,-1.832 -3.122,-2.21 -3.243,-2.625 -3.313,-3.077 H 3.168 C 3.021,-2.104 2.673,-1.347 2.126,-0.809 1.578,-0.27 0.868,0 0,0 m 8.514,-10.393 v 0.758 H 8.316 L 8.088,-10.156 7.861,-9.635 H 7.663 v -0.758 h 0.139 v 0.572 l 0.214,-0.493 h 0.145 l 0.213,0.494 v -0.573 z m -1.253,0 v 0.629 h 0.253 v 0.128 H 6.869 v -0.128 h 0.253 v -0.629 z M 0.052,2.425 C 0.921,2.425 1.719,2.267 2.444,1.95 3.17,1.632 3.793,1.184 4.309,0.606 4.827,0.028 5.23,-0.663 5.522,-1.467 5.813,-2.271 5.959,-3.161 5.959,-4.134 5.959,-4.308 5.954,-4.481 5.946,-4.655 5.937,-4.829 5.924,-4.994 5.907,-5.151 h -9.232 c 0.086,-0.565 0.247,-1.047 0.482,-1.447 0.235,-0.401 0.517,-0.729 0.848,-0.985 0.33,-0.257 0.699,-0.446 1.108,-0.567 0.408,-0.122 0.835,-0.182 1.278,-0.182 0.626,0 1.254,0.114 1.884,0.345 0.63,0.23 1.206,0.554 1.729,0.971 l 1.355,-1.943 c -0.765,-0.652 -1.576,-1.108 -2.432,-1.369 -0.856,-0.261 -1.758,-0.391 -2.706,-0.391 -0.938,0 -1.799,0.157 -2.581,0.469 -0.783,0.313 -1.457,0.757 -2.022,1.33 -0.565,0.574 -1.004,1.266 -1.317,2.074 -0.313,0.809 -0.469,1.708 -0.469,2.7 0,0.973 0.151,1.864 0.456,2.672 0.305,0.809 0.73,1.502 1.278,2.08 0.548,0.578 1.202,1.026 1.962,1.344 0.762,0.317 1.603,0.475 2.524,0.475 m -15.401,-2.569 c -0.591,0 -1.119,-0.106 -1.585,-0.319 -0.465,-0.213 -0.858,-0.5 -1.179,-0.861 -0.322,-0.36 -0.57,-0.784 -0.744,-1.271 -0.174,-0.487 -0.261,-1.004 -0.261,-1.551 0,-0.548 0.087,-1.066 0.261,-1.553 0.174,-0.487 0.422,-0.911 0.744,-1.271 0.321,-0.361 0.714,-0.647 1.179,-0.861 0.466,-0.213 0.994,-0.319 1.585,-0.319 0.565,0 1.078,0.102 1.539,0.307 0.461,0.203 0.856,0.484 1.186,0.841 0.331,0.355 0.587,0.777 0.77,1.264 0.182,0.487 0.274,1.017 0.274,1.592 0,0.573 -0.092,1.104 -0.274,1.59 -0.183,0.487 -0.439,0.908 -0.77,1.265 -0.33,0.356 -0.725,0.636 -1.186,0.842 -0.461,0.203 -0.974,0.305 -1.539,0.305 m -0.326,2.569 c 0.896,0 1.665,-0.167 2.308,-0.502 0.643,-0.335 1.182,-0.78 1.618,-1.337 v 7.799 h 2.725 v -18.778 h -2.725 v 1.5 c -0.436,-0.557 -0.975,-1 -1.618,-1.331 -0.643,-0.33 -1.412,-0.495 -2.308,-0.495 -0.878,0 -1.695,0.162 -2.451,0.489 -0.757,0.326 -1.417,0.78 -1.982,1.363 -0.566,0.582 -1.01,1.275 -1.33,2.079 -0.323,0.804 -0.483,1.685 -0.483,2.642 0,0.955 0.16,1.836 0.483,2.64 0.32,0.804 0.764,1.497 1.33,2.08 0.565,0.582 1.225,1.036 1.982,1.362 0.756,0.327 1.573,0.489 2.451,0.489 m -14.931,-2.569 c -0.557,0 -1.074,-0.097 -1.553,-0.293 -0.477,-0.195 -0.891,-0.469 -1.238,-0.821 -0.348,-0.352 -0.621,-0.774 -0.822,-1.265 -0.199,-0.492 -0.3,-1.033 -0.3,-1.623 0,-0.592 0.101,-1.134 0.3,-1.625 0.201,-0.491 0.474,-0.913 0.822,-1.265 0.347,-0.351 0.761,-0.625 1.238,-0.821 0.479,-0.195 0.996,-0.293 1.553,-0.293 0.556,0 1.073,0.098 1.551,0.293 0.478,0.196 0.893,0.47 1.245,0.821 0.353,0.352 0.628,0.774 0.829,1.265 0.2,0.491 0.3,1.033 0.3,1.625 0,0.59 -0.1,1.131 -0.3,1.623 -0.201,0.491 -0.476,0.913 -0.829,1.265 -0.352,0.352 -0.767,0.626 -1.245,0.821 -0.478,0.196 -0.995,0.293 -1.551,0.293 m 0,2.569 c 0.965,0 1.858,-0.167 2.679,-0.502 0.822,-0.335 1.532,-0.795 2.132,-1.382 0.6,-0.586 1.069,-1.28 1.409,-2.079 0.339,-0.801 0.508,-1.67 0.508,-2.608 0,-0.94 -0.169,-1.809 -0.508,-2.609 -0.34,-0.8 -0.809,-1.493 -1.409,-2.08 -0.6,-0.586 -1.31,-1.047 -2.132,-1.382 -0.821,-0.335 -1.714,-0.502 -2.679,-0.502 -0.965,0 -1.859,0.167 -2.68,0.502 -0.822,0.335 -1.531,0.796 -2.126,1.382 -0.596,0.587 -1.062,1.28 -1.402,2.08 -0.338,0.8 -0.508,1.669 -0.508,2.609 0,0.938 0.17,1.807 0.508,2.608 0.34,0.799 0.806,1.493 1.402,2.079 0.595,0.587 1.304,1.047 2.126,1.382 0.821,0.335 1.715,0.502 2.68,0.502 m -16.105,5.778 c 0.808,0 1.591,-0.087 2.347,-0.261 0.757,-0.174 1.461,-0.426 2.113,-0.757 0.651,-0.33 1.244,-0.732 1.773,-1.206 0.53,-0.474 0.975,-1.006 1.33,-1.597 l -2.464,-1.643 c -0.557,0.817 -1.271,1.46 -2.146,1.929 -0.874,0.47 -1.857,0.704 -2.953,0.704 -0.931,0 -1.791,-0.161 -2.582,-0.482 -0.791,-0.322 -1.473,-0.774 -2.048,-1.356 -0.573,-0.583 -1.023,-1.283 -1.349,-2.1 -0.326,-0.817 -0.489,-1.717 -0.489,-2.699 0,-0.983 0.163,-1.882 0.489,-2.699 0.326,-0.817 0.776,-1.517 1.349,-2.1 0.575,-0.583 1.257,-1.034 2.048,-1.356 0.791,-0.321 1.651,-0.482 2.582,-0.482 1.086,0 2.062,0.23 2.927,0.691 0.866,0.46 1.585,1.104 2.159,1.929 l 2.4,-1.76 c -0.392,-0.573 -0.85,-1.086 -1.376,-1.538 -0.526,-0.453 -1.108,-0.839 -1.748,-1.161 -0.639,-0.322 -1.326,-0.568 -2.06,-0.737 -0.735,-0.169 -1.502,-0.255 -2.302,-0.255 -1.4,0 -2.687,0.238 -3.86,0.712 -1.174,0.473 -2.182,1.132 -3.025,1.975 -0.844,0.843 -1.5,1.843 -1.969,2.999 -0.47,1.157 -0.704,2.417 -0.704,3.782 0,1.365 0.234,2.625 0.704,3.782 0.469,1.156 1.125,2.156 1.969,2.999 0.843,0.843 1.851,1.501 3.025,1.975 1.173,0.474 2.46,0.712 3.86,0.712 M -64.433,0 c -0.487,0 -0.919,-0.074 -1.297,-0.221 -0.378,-0.149 -0.705,-0.359 -0.978,-0.633 -0.274,-0.274 -0.498,-0.6 -0.672,-0.978 -0.174,-0.378 -0.295,-0.793 -0.365,-1.245 h 6.482 c -0.149,0.973 -0.496,1.73 -1.044,2.268 C -62.854,-0.27 -63.563,0 -64.433,0 m 0.053,2.425 c 0.869,0 1.666,-0.158 2.393,-0.475 0.726,-0.318 1.347,-0.766 1.865,-1.344 0.516,-0.578 0.921,-1.269 1.212,-2.073 0.291,-0.804 0.437,-1.694 0.437,-2.667 0,-0.174 -0.004,-0.347 -0.013,-0.521 -0.009,-0.174 -0.022,-0.339 -0.04,-0.496 h -9.232 c 0.087,-0.565 0.248,-1.047 0.482,-1.447 0.235,-0.401 0.518,-0.729 0.848,-0.985 0.331,-0.257 0.7,-0.446 1.109,-0.567 0.408,-0.122 0.834,-0.182 1.277,-0.182 0.627,0 1.255,0.114 1.885,0.345 0.631,0.23 1.206,0.554 1.728,0.971 l 1.356,-1.943 c -0.765,-0.652 -1.575,-1.108 -2.432,-1.369 -0.857,-0.261 -1.758,-0.391 -2.706,-0.391 -0.939,0 -1.8,0.157 -2.582,0.469 -0.783,0.313 -1.456,0.757 -2.021,1.33 -0.566,0.574 -1.004,1.266 -1.317,2.074 -0.313,0.809 -0.47,1.708 -0.47,2.7 0,0.973 0.152,1.864 0.457,2.672 0.304,0.809 0.73,1.502 1.278,2.08 0.547,0.578 1.201,1.026 1.962,1.344 0.761,0.317 1.602,0.475 2.524,0.475 m -9.155,0 c 0.417,0 0.793,-0.028 1.128,-0.085 0.335,-0.055 0.658,-0.145 0.971,-0.266 l -0.651,-2.7 c -0.288,0.148 -0.623,0.261 -1.005,0.339 -0.382,0.079 -0.739,0.118 -1.069,0.118 -0.435,0 -0.834,-0.074 -1.2,-0.222 -0.365,-0.148 -0.678,-0.365 -0.939,-0.653 -0.261,-0.286 -0.465,-0.638 -0.613,-1.055 -0.148,-0.417 -0.221,-0.891 -0.221,-1.422 v -6.872 H -79.86 V 2.099 h 2.7 V 0.691 c 0.417,0.6 0.934,1.039 1.551,1.317 0.618,0.278 1.309,0.417 2.074,0.417 m -9.949,-7.524 c 0,-0.991 -0.166,-1.843 -0.496,-2.555 -0.33,-0.713 -0.765,-1.296 -1.304,-1.748 -0.539,-0.453 -1.156,-0.785 -1.852,-0.998 -0.695,-0.212 -1.408,-0.319 -2.139,-0.319 -0.729,0 -1.443,0.107 -2.138,0.319 -0.696,0.213 -1.315,0.545 -1.858,0.998 -0.543,0.452 -0.978,1.035 -1.304,1.748 -0.326,0.712 -0.489,1.564 -0.489,2.555 v 7.198 h 2.738 v -6.95 c 0,-0.6 0.079,-1.111 0.235,-1.532 0.156,-0.422 0.372,-0.763 0.645,-1.024 0.274,-0.26 0.598,-0.45 0.972,-0.567 0.374,-0.117 0.774,-0.176 1.199,-0.176 0.427,0 0.826,0.059 1.201,0.176 0.373,0.117 0.697,0.307 0.971,0.567 0.274,0.261 0.489,0.602 0.645,1.024 0.157,0.421 0.235,0.932 0.235,1.532 v 6.95 h 2.739 z m -18.648,7.524 c 0.939,0 1.813,-0.167 2.621,-0.502 0.809,-0.335 1.491,-0.832 2.048,-1.493 l -1.748,-1.864 c -0.443,0.417 -0.904,0.737 -1.382,0.958 -0.478,0.221 -1.017,0.332 -1.617,0.332 -0.522,0 -1.009,-0.097 -1.46,-0.293 -0.453,-0.195 -0.844,-0.469 -1.174,-0.821 -0.33,-0.352 -0.589,-0.774 -0.776,-1.265 -0.187,-0.492 -0.281,-1.033 -0.281,-1.623 0,-0.592 0.094,-1.134 0.281,-1.625 0.187,-0.491 0.446,-0.913 0.776,-1.265 0.33,-0.351 0.721,-0.625 1.174,-0.821 0.451,-0.195 0.938,-0.293 1.46,-0.293 0.6,0 1.161,0.124 1.682,0.372 0.522,0.247 0.983,0.558 1.382,0.932 l 1.683,-1.878 c -0.574,-0.66 -1.261,-1.158 -2.061,-1.493 -0.799,-0.335 -1.669,-0.502 -2.608,-0.502 -0.991,0 -1.891,0.167 -2.699,0.502 -0.808,0.335 -1.5,0.796 -2.073,1.382 -0.574,0.587 -1.018,1.28 -1.33,2.08 -0.313,0.8 -0.47,1.669 -0.47,2.609 0,0.938 0.157,1.807 0.47,2.608 0.312,0.799 0.756,1.493 1.33,2.079 0.573,0.587 1.265,1.047 2.073,1.382 0.808,0.335 1.708,0.502 2.699,0.502 M -116.619,0 c -0.487,0 -0.919,-0.074 -1.298,-0.221 -0.378,-0.149 -0.704,-0.359 -0.978,-0.633 -0.273,-0.274 -0.497,-0.6 -0.671,-0.978 -0.174,-0.378 -0.296,-0.793 -0.365,-1.245 h 6.481 c -0.148,0.973 -0.496,1.73 -1.044,2.268 C -115.041,-0.27 -115.75,0 -116.619,0 m 0.052,2.425 c 0.869,0 1.667,-0.158 2.393,-0.475 0.726,-0.318 1.347,-0.766 1.865,-1.344 0.517,-0.578 0.921,-1.269 1.213,-2.073 0.29,-0.804 0.436,-1.694 0.436,-2.667 0,-0.174 -0.004,-0.347 -0.013,-0.521 -0.009,-0.174 -0.021,-0.339 -0.039,-0.496 h -9.232 c 0.087,-0.565 0.247,-1.047 0.482,-1.447 0.234,-0.401 0.517,-0.729 0.847,-0.985 0.331,-0.257 0.7,-0.446 1.109,-0.567 0.408,-0.122 0.835,-0.182 1.278,-0.182 0.626,0 1.254,0.114 1.884,0.345 0.631,0.23 1.206,0.554 1.728,0.971 l 1.356,-1.943 c -0.765,-0.652 -1.575,-1.108 -2.431,-1.369 -0.857,-0.261 -1.759,-0.391 -2.706,-0.391 -0.939,0 -1.8,0.157 -2.583,0.469 -0.782,0.313 -1.455,0.757 -2.021,1.33 -0.565,0.574 -1.004,1.266 -1.317,2.074 -0.313,0.809 -0.469,1.708 -0.469,2.7 0,0.973 0.152,1.864 0.456,2.672 0.304,0.809 0.731,1.502 1.278,2.08 0.548,0.578 1.202,1.026 1.963,1.344 0.76,0.317 1.601,0.475 2.523,0.475 m -9.949,1.396 c -0.783,0.496 -1.6,0.88 -2.452,1.154 -0.852,0.273 -1.743,0.411 -2.673,0.411 -0.609,0 -1.165,-0.064 -1.669,-0.19 -0.505,-0.125 -0.937,-0.308 -1.298,-0.547 -0.361,-0.24 -0.641,-0.526 -0.841,-0.86 -0.2,-0.335 -0.3,-0.712 -0.3,-1.129 0,-0.382 0.087,-0.708 0.261,-0.978 0.174,-0.27 0.424,-0.498 0.75,-0.684 0.326,-0.187 0.724,-0.342 1.193,-0.464 0.469,-0.122 1,-0.226 1.591,-0.313 l 1.265,-0.169 c 0.739,-0.104 1.46,-0.265 2.164,-0.483 0.705,-0.217 1.333,-0.521 1.885,-0.912 0.552,-0.391 0.995,-0.883 1.33,-1.473 0.335,-0.592 0.502,-1.31 0.502,-2.152 0,-0.93 -0.196,-1.753 -0.587,-2.465 -0.391,-0.713 -0.921,-1.313 -1.591,-1.799 -0.669,-0.487 -1.445,-0.857 -2.327,-1.109 -0.883,-0.252 -1.82,-0.378 -2.811,-0.378 -0.617,0 -1.258,0.052 -1.923,0.157 -0.665,0.104 -1.322,0.258 -1.969,0.462 -0.648,0.205 -1.267,0.459 -1.859,0.763 -0.591,0.304 -1.121,0.661 -1.59,1.07 l 1.604,2.347 c 0.313,-0.287 0.688,-0.553 1.128,-0.796 0.439,-0.243 0.91,-0.456 1.414,-0.638 0.505,-0.183 1.028,-0.325 1.572,-0.424 0.543,-0.1 1.08,-0.15 1.61,-0.15 0.6,0 1.159,0.06 1.676,0.182 0.517,0.122 0.967,0.3 1.35,0.535 0.382,0.234 0.684,0.519 0.906,0.854 0.222,0.335 0.333,0.71 0.333,1.127 0,0.714 -0.351,1.257 -1.05,1.631 -0.7,0.374 -1.719,0.652 -3.058,0.835 l -1.421,0.196 c -0.679,0.095 -1.342,0.251 -1.989,0.469 -0.648,0.216 -1.226,0.523 -1.734,0.919 -0.509,0.396 -0.918,0.89 -1.226,1.486 -0.309,0.595 -0.464,1.319 -0.464,2.172 0,0.913 0.19,1.723 0.568,2.432 0.378,0.708 0.893,1.303 1.545,1.786 0.652,0.483 1.415,0.85 2.289,1.102 0.873,0.252 1.806,0.378 2.797,0.378 1.33,0 2.532,-0.176 3.605,-0.528 1.074,-0.352 2.072,-0.832 2.994,-1.44 z" /></g><g
           transform="translate(462.2001,319.9418)"
           id="g24"><path
             id="path26"
             style="fill:#eb001b;fill-opacity:1;fill-rule:nonzero;stroke:none"
             d="m 0,0 c -0.613,0 -1.161,-0.111 -1.643,-0.331 -0.483,-0.221 -0.89,-0.519 -1.224,-0.893 -0.333,-0.375 -0.591,-0.814 -0.771,-1.319 -0.18,-0.505 -0.271,-1.042 -0.271,-1.61 0,-0.568 0.091,-1.104 0.271,-1.609 0.18,-0.505 0.438,-0.945 0.771,-1.319 0.334,-0.375 0.741,-0.672 1.224,-0.893 0.482,-0.22 1.03,-0.331 1.643,-0.331 0.587,0 1.118,0.106 1.597,0.318 0.478,0.212 0.887,0.502 1.231,0.872 0.342,0.37 0.608,0.807 0.797,1.312 0.19,0.505 0.285,1.055 0.285,1.65 0,0.596 -0.095,1.146 -0.285,1.651 C 3.436,-1.997 3.17,-1.56 2.828,-1.19 2.484,-0.821 2.075,-0.53 1.597,-0.318 1.118,-0.106 0.587,0 0,0 m 9.72,-10.015 v -0.204 h 0.188 c 0.043,0 0.078,0.009 0.103,0.026 0.026,0.016 0.039,0.042 0.039,0.077 0,0.034 -0.013,0.059 -0.039,0.076 -0.025,0.017 -0.06,0.025 -0.103,0.025 z m 0.19,0.144 c 0.099,0 0.174,-0.022 0.228,-0.066 0.053,-0.044 0.079,-0.103 0.079,-0.179 0,-0.063 -0.021,-0.115 -0.063,-0.156 -0.043,-0.041 -0.103,-0.067 -0.181,-0.076 l 0.25,-0.289 H 10.028 L 9.795,-10.35 H 9.72 v -0.287 H 9.557 v 0.766 z m -0.048,-1.028 c 0.089,0 0.172,0.017 0.248,0.05 0.077,0.034 0.144,0.08 0.202,0.137 0.058,0.058 0.104,0.126 0.137,0.204 0.033,0.079 0.049,0.162 0.049,0.251 0,0.089 -0.016,0.172 -0.049,0.25 -0.033,0.078 -0.079,0.146 -0.137,0.204 -0.058,0.058 -0.125,0.104 -0.202,0.137 -0.076,0.033 -0.159,0.049 -0.248,0.049 -0.09,0 -0.175,-0.016 -0.254,-0.049 C 9.53,-9.699 9.461,-9.745 9.403,-9.803 9.346,-9.861 9.3,-9.929 9.267,-10.007 c -0.033,-0.078 -0.049,-0.161 -0.049,-0.25 0,-0.089 0.016,-0.172 0.049,-0.251 0.033,-0.078 0.079,-0.146 0.136,-0.204 0.058,-0.057 0.127,-0.103 0.205,-0.137 0.079,-0.033 0.164,-0.05 0.254,-0.05 m 0,1.466 c 0.116,0 0.224,-0.022 0.326,-0.065 0.102,-0.043 0.191,-0.102 0.267,-0.176 0.076,-0.075 0.136,-0.163 0.179,-0.263 0.044,-0.1 0.066,-0.207 0.066,-0.32 0,-0.113 -0.022,-0.22 -0.066,-0.319 -0.043,-0.1 -0.103,-0.187 -0.179,-0.262 -0.076,-0.074 -0.165,-0.134 -0.267,-0.177 -0.102,-0.044 -0.21,-0.066 -0.326,-0.066 -0.119,0 -0.229,0.022 -0.332,0.066 -0.103,0.043 -0.193,0.103 -0.268,0.177 -0.075,0.075 -0.135,0.162 -0.179,0.262 -0.043,0.099 -0.065,0.206 -0.065,0.319 0,0.113 0.022,0.22 0.065,0.32 0.044,0.1 0.104,0.188 0.179,0.263 0.075,0.074 0.165,0.133 0.268,0.176 0.103,0.043 0.213,0.065 0.332,0.065 M -0.338,2.665 C 0.591,2.665 1.389,2.491 2.057,2.144 2.724,1.796 3.283,1.335 3.734,0.758 V 8.846 H 6.561 V -10.631 H 3.734 v 1.555 c -0.451,-0.577 -1.01,-1.037 -1.677,-1.379 -0.668,-0.344 -1.466,-0.515 -2.395,-0.515 -0.911,0 -1.758,0.169 -2.543,0.507 -0.784,0.339 -1.47,0.81 -2.055,1.414 -0.587,0.604 -1.046,1.323 -1.38,2.157 -0.333,0.835 -0.501,1.748 -0.501,2.739 0,0.992 0.168,1.905 0.501,2.74 0.334,0.833 0.793,1.553 1.38,2.156 0.585,0.605 1.271,1.076 2.055,1.415 0.785,0.337 1.632,0.507 2.543,0.507 m -9.279,0 c 0.433,0 0.823,-0.03 1.17,-0.088 C -8.1,2.518 -7.764,2.426 -7.439,2.3 l -0.677,-2.8 c -0.297,0.153 -0.644,0.27 -1.04,0.351 -0.398,0.081 -0.768,0.122 -1.11,0.122 -0.451,0 -0.866,-0.077 -1.244,-0.23 -0.379,-0.154 -0.704,-0.379 -0.974,-0.677 -0.271,-0.297 -0.483,-0.662 -0.636,-1.095 -0.153,-0.433 -0.23,-0.924 -0.23,-1.474 v -7.128 h -2.827 V 2.326 h 2.801 v -1.46 c 0.432,0.622 0.968,1.077 1.609,1.366 0.64,0.288 1.357,0.433 2.15,0.433 M -26.903,0 c -0.613,0 -1.161,-0.111 -1.644,-0.331 -0.482,-0.221 -0.89,-0.519 -1.224,-0.893 -0.333,-0.375 -0.59,-0.814 -0.771,-1.319 -0.179,-0.505 -0.27,-1.042 -0.27,-1.61 0,-0.568 0.091,-1.104 0.27,-1.609 0.181,-0.505 0.438,-0.945 0.771,-1.319 0.334,-0.375 0.742,-0.672 1.224,-0.893 0.483,-0.22 1.031,-0.331 1.644,-0.331 0.586,0 1.118,0.106 1.596,0.318 0.478,0.212 0.888,0.502 1.231,0.872 0.343,0.37 0.608,0.807 0.798,1.312 0.19,0.505 0.284,1.055 0.284,1.65 0,0.596 -0.094,1.146 -0.284,1.651 -0.19,0.505 -0.455,0.942 -0.798,1.312 -0.343,0.369 -0.753,0.66 -1.231,0.872 C -25.785,-0.106 -26.317,0 -26.903,0 m 6.56,-10.631 h -2.827 v 1.555 c -0.451,-0.577 -1.01,-1.037 -1.677,-1.379 -0.668,-0.344 -1.465,-0.515 -2.394,-0.515 -0.911,0 -1.759,0.169 -2.543,0.507 -0.784,0.339 -1.47,0.81 -2.056,1.414 -0.586,0.604 -1.046,1.323 -1.38,2.157 -0.333,0.835 -0.5,1.748 -0.5,2.739 0,0.992 0.167,1.905 0.5,2.74 0.334,0.833 0.794,1.553 1.38,2.156 0.586,0.605 1.272,1.076 2.056,1.415 0.784,0.337 1.632,0.507 2.543,0.507 0.929,0 1.726,-0.174 2.394,-0.521 0.667,-0.348 1.226,-0.809 1.677,-1.386 v 1.568 h 2.827 z m -19.91,13.296 c 0.974,0 1.88,-0.174 2.718,-0.521 0.839,-0.348 1.546,-0.864 2.123,-1.549 l -1.812,-1.935 c -0.46,0.434 -0.937,0.765 -1.433,0.995 -0.497,0.229 -1.055,0.345 -1.678,0.345 -0.54,0 -1.045,-0.101 -1.514,-0.305 -0.47,-0.202 -0.875,-0.486 -1.218,-0.852 -0.342,-0.365 -0.611,-0.802 -0.804,-1.311 -0.195,-0.51 -0.291,-1.071 -0.291,-1.685 0,-0.613 0.096,-1.174 0.291,-1.684 0.193,-0.509 0.462,-0.946 0.804,-1.312 0.343,-0.365 0.748,-0.649 1.218,-0.851 0.469,-0.204 0.974,-0.305 1.514,-0.305 0.623,0 1.204,0.129 1.745,0.385 0.541,0.257 1.019,0.58 1.434,0.968 l 1.744,-1.948 c -0.594,-0.686 -1.307,-1.202 -2.136,-1.549 -0.83,-0.347 -1.731,-0.521 -2.705,-0.521 -1.028,0 -1.962,0.174 -2.8,0.521 -0.839,0.347 -1.556,0.825 -2.151,1.433 -0.595,0.61 -1.055,1.329 -1.379,2.158 -0.325,0.83 -0.487,1.732 -0.487,2.705 0,0.974 0.162,1.876 0.487,2.706 0.324,0.829 0.784,1.548 1.379,2.157 0.595,0.609 1.312,1.086 2.151,1.434 0.838,0.347 1.772,0.521 2.8,0.521 m -9.671,0 c 0.433,0 0.823,-0.03 1.17,-0.088 0.347,-0.059 0.683,-0.151 1.007,-0.277 l -0.676,-2.8 c -0.297,0.153 -0.644,0.27 -1.042,0.351 -0.396,0.081 -0.766,0.122 -1.108,0.122 -0.452,0 -0.866,-0.077 -1.245,-0.23 -0.379,-0.154 -0.703,-0.379 -0.974,-0.677 -0.27,-0.297 -0.482,-0.662 -0.636,-1.095 -0.153,-0.433 -0.229,-0.924 -0.229,-1.474 v -7.128 h -2.827 V 2.326 h 2.799 v -1.46 c 0.433,0.622 0.97,1.077 1.61,1.366 0.64,0.288 1.357,0.433 2.151,0.433 M -65.898,0.148 c -0.505,0 -0.954,-0.076 -1.346,-0.229 -0.393,-0.154 -0.731,-0.372 -1.015,-0.656 -0.284,-0.285 -0.516,-0.622 -0.696,-1.015 -0.181,-0.392 -0.307,-0.823 -0.379,-1.291 h 6.723 c -0.154,1.009 -0.514,1.794 -1.083,2.353 -0.568,0.559 -1.303,0.838 -2.204,0.838 m 0.054,2.517 c 0.901,0 1.729,-0.165 2.482,-0.494 0.753,-0.329 1.398,-0.794 1.934,-1.393 0.536,-0.6 0.956,-1.317 1.258,-2.151 0.302,-0.834 0.453,-1.756 0.453,-2.766 0,-0.18 -0.004,-0.361 -0.014,-0.541 -0.008,-0.181 -0.022,-0.352 -0.039,-0.514 h -9.577 c 0.089,-0.586 0.256,-1.087 0.5,-1.502 0.243,-0.414 0.536,-0.755 0.879,-1.021 0.343,-0.265 0.726,-0.462 1.15,-0.588 0.424,-0.127 0.865,-0.189 1.325,-0.189 0.65,0 1.301,0.119 1.955,0.358 0.654,0.239 1.251,0.575 1.792,1.008 l 1.407,-2.015 c -0.794,-0.677 -1.635,-1.151 -2.523,-1.421 -0.888,-0.271 -1.824,-0.406 -2.806,-0.406 -0.974,0 -1.867,0.163 -2.679,0.487 -0.811,0.325 -1.51,0.784 -2.096,1.379 -0.586,0.596 -1.042,1.313 -1.366,2.152 -0.325,0.838 -0.487,1.772 -0.487,2.799 0,1.01 0.157,1.935 0.473,2.774 0.316,0.838 0.758,1.557 1.326,2.157 0.568,0.599 1.246,1.064 2.036,1.393 0.789,0.329 1.661,0.494 2.617,0.494 m -8.697,-2.908 h -4.965 v -5.641 c 0,-0.432 0.055,-0.802 0.163,-1.109 0.108,-0.306 0.255,-0.557 0.44,-0.751 0.184,-0.194 0.401,-0.336 0.648,-0.426 0.248,-0.09 0.517,-0.135 0.806,-0.135 0.441,0 0.89,0.085 1.345,0.257 0.456,0.172 0.877,0.379 1.265,0.622 l 1.122,-2.258 c -0.523,-0.352 -1.111,-0.655 -1.764,-0.907 -0.654,-0.252 -1.391,-0.379 -2.212,-0.379 -1.47,0 -2.613,0.408 -3.429,1.224 -0.816,0.817 -1.224,2.085 -1.224,3.808 v 5.695 h -2.584 v 2.569 h 2.584 v 3.923 h 2.84 V 2.326 h 4.965 z M -87.959,-0.92 c -0.198,0.117 -0.442,0.242 -0.73,0.372 -0.289,0.131 -0.609,0.25 -0.961,0.359 -0.352,0.108 -0.723,0.197 -1.115,0.27 -0.393,0.072 -0.792,0.108 -1.198,0.108 -0.775,0 -1.377,-0.142 -1.806,-0.426 -0.428,-0.283 -0.642,-0.656 -0.642,-1.116 0,-0.225 0.056,-0.414 0.169,-0.567 0.113,-0.155 0.264,-0.28 0.453,-0.38 0.19,-0.099 0.415,-0.178 0.677,-0.236 0.261,-0.059 0.541,-0.111 0.838,-0.155 l 1.339,-0.204 c 1.416,-0.207 2.52,-0.619 3.314,-1.237 0.794,-0.618 1.191,-1.482 1.191,-2.59 0,-0.623 -0.134,-1.193 -0.4,-1.712 -0.265,-0.518 -0.649,-0.965 -1.149,-1.338 -0.501,-0.375 -1.119,-0.665 -1.853,-0.873 -0.735,-0.208 -1.567,-0.311 -2.496,-0.311 -0.334,0 -0.722,0.02 -1.163,0.061 -0.442,0.041 -0.911,0.122 -1.407,0.243 -0.496,0.122 -1.001,0.291 -1.515,0.507 -0.514,0.217 -1.005,0.501 -1.474,0.852 l 1.312,2.124 c 0.234,-0.181 0.489,-0.349 0.764,-0.507 0.275,-0.158 0.586,-0.298 0.933,-0.419 0.347,-0.122 0.731,-0.22 1.15,-0.291 0.42,-0.072 0.895,-0.108 1.427,-0.108 0.974,0 1.709,0.142 2.205,0.425 0.496,0.284 0.744,0.67 0.744,1.157 0,0.369 -0.181,0.674 -0.541,0.913 -0.361,0.239 -0.929,0.413 -1.704,0.521 l -1.353,0.176 c -1.443,0.198 -2.536,0.619 -3.28,1.264 -0.744,0.645 -1.116,1.49 -1.116,2.537 0,0.64 0.124,1.217 0.372,1.731 0.248,0.513 0.604,0.949 1.068,1.305 0.465,0.356 1.026,0.631 1.684,0.825 0.659,0.194 1.403,0.291 2.232,0.291 1.019,0 1.979,-0.12 2.882,-0.359 0.901,-0.238 1.69,-0.574 2.366,-1.007 z M -107.504,0 c -0.613,0 -1.161,-0.111 -1.643,-0.331 -0.482,-0.221 -0.89,-0.519 -1.224,-0.893 -0.334,-0.375 -0.591,-0.814 -0.771,-1.319 -0.181,-0.505 -0.27,-1.042 -0.27,-1.61 0,-0.568 0.089,-1.104 0.27,-1.609 0.18,-0.505 0.437,-0.945 0.771,-1.319 0.334,-0.375 0.742,-0.672 1.224,-0.893 0.482,-0.22 1.03,-0.331 1.643,-0.331 0.586,0 1.119,0.106 1.596,0.318 0.479,0.212 0.889,0.502 1.232,0.872 0.342,0.37 0.608,0.807 0.798,1.312 0.189,0.505 0.283,1.055 0.283,1.65 0,0.596 -0.094,1.146 -0.283,1.651 -0.19,0.505 -0.456,0.942 -0.798,1.312 -0.343,0.369 -0.753,0.66 -1.232,0.872 -0.477,0.212 -1.01,0.318 -1.596,0.318 m 6.56,-10.631 h -2.827 v 1.555 c -0.45,-0.577 -1.01,-1.037 -1.676,-1.379 -0.668,-0.344 -1.466,-0.515 -2.395,-0.515 -0.911,0 -1.758,0.169 -2.543,0.507 -0.784,0.339 -1.47,0.81 -2.056,1.414 -0.586,0.604 -1.046,1.323 -1.379,2.157 -0.334,0.835 -0.501,1.748 -0.501,2.739 0,0.992 0.167,1.905 0.501,2.74 0.333,0.833 0.793,1.553 1.379,2.156 0.586,0.605 1.272,1.076 2.056,1.415 0.785,0.337 1.632,0.507 2.543,0.507 0.929,0 1.727,-0.174 2.395,-0.521 0.666,-0.348 1.226,-0.809 1.676,-1.386 v 1.568 h 2.827 z m -16.095,0 h -3.057 V 4.95 l -5.532,-13.728 h -3.219 l -5.532,13.58 v -15.433 h -3.057 V 8.305 h 4.693 l 5.506,-13.526 5.505,13.526 h 4.693 z" /></g></g></g></g></svg>