<svg xmlns="http://www.w3.org/2000/svg" role="img" viewBox="0 0 38 24" width="38" height="24" aria-labelledby="pi-master"><title id="pi-master">Mastercard</title><path opacity=".07" d="M35 0H3C1.3 0 0 1.3 0 3v18c0 1.7 1.4 3 3 3h32c1.7 0 3-1.3 3-3V3c0-1.7-1.4-3-3-3z"/><path fill="#fff" d="M35 1c1.1 0 2 .9 2 2v18c0 1.1-.9 2-2 2H3c-1.1 0-2-.9-2-2V3c0-1.1.9-2 2-2h32"/><path fill="#231F20" d="M12.662 19.768v-1.041a.624.624 0 0 0-.174-.477.602.602 0 0 0-.468-.183.628.628 0 0 0-.573.295.596.596 0 0 0-.54-.295.536.536 0 0 0-.477.247v-.205h-.355v1.66h.359v-.914a.393.393 0 0 1 .097-.316.379.379 0 0 1 .302-.124c.235 0 .355.156.355.437v.923h.358v-.92a.395.395 0 0 1 .098-.315.38.38 0 0 1 .301-.125c.242 0 .358.156.358.437v.923l.359-.007zm5.3-1.659h-.583v-.503h-.358v.503h-.324v.33h.33v.763c0 .386.147.615.567.615.157 0 .31-.044.444-.129l-.103-.308a.647.647 0 0 1-.314.093c-.17 0-.235-.11-.235-.277v-.757h.58l-.003-.33zm3.027-.042a.48.48 0 0 0-.43.243v-.2h-.351v1.658h.355v-.93c0-.274.116-.427.341-.427a.57.57 0 0 1 .222.042l.109-.347a.748.748 0 0 0-.252-.046l.006.007zm-4.575.174a1.204 1.204 0 0 0-.666-.174c-.413 0-.682.202-.682.532 0 .27.198.437.563.489l.17.024c.195.028.287.08.287.174 0 .128-.13.201-.372.201a.858.858 0 0 1-.543-.173l-.17.28c.207.148.454.223.706.216.471 0 .744-.226.744-.542 0-.315-.215-.444-.57-.496l-.17-.024c-.154-.021-.277-.052-.277-.163 0-.111.116-.195.31-.195.18.002.357.051.513.143l.157-.292zm9.504-.174a.48.48 0 0 0-.43.243v-.2h-.351v1.658h.355v-.93c0-.274.116-.427.341-.427a.57.57 0 0 1 .222.042l.109-.347a.748.748 0 0 0-.252-.046l.006.007zm-4.572.868a.846.846 0 0 0 .247.63.816.816 0 0 0 .623.238.844.844 0 0 0 .587-.198l-.17-.291a.709.709 0 0 1-.427.149.53.53 0 0 1-.482-.531.53.53 0 0 1 .482-.531.709.709 0 0 1 .426.149l.17-.292a.844.844 0 0 0-.586-.198.816.816 0 0 0-.623.239.846.846 0 0 0-.247.63v.006zm3.323 0v-.826h-.354v.201a.615.615 0 0 0-.512-.243.86.86 0 0 0-.853.868c0 .48.382.868.853.868.199.007.39-.083.512-.243v.201h.354v-.826zm-1.32 0a.496.496 0 0 1 .51-.471c.269.01.48.236.475.509a.497.497 0 0 1-.49.493.486.486 0 0 1-.362-.155.503.503 0 0 1-.133-.376zm-4.282-.868a.861.861 0 0 0-.842.88.86.86 0 0 0 .865.856.98.98 0 0 0 .678-.226l-.17-.267a.768.768 0 0 1-.475.174.454.454 0 0 1-.488-.406h1.211v-.14c0-.52-.317-.867-.774-.867l-.005-.004zm0 .323a.4.4 0 0 1 .288.115c.077.075.122.179.124.288h-.853a.423.423 0 0 1 .434-.403h.007zm8.89.549v-1.496h-.341v.867a.615.615 0 0 0-.512-.243.86.86 0 0 0-.853.868c0 .48.382.868.853.868.2.007.39-.083.512-.243v.201h.341v-.822zm.592.588a.168.168 0 0 1 .118.047.164.164 0 0 1-.053.267.158.158 0 0 1-.065.014.17.17 0 0 1-.153-.1.166.166 0 0 1 .035-.181.17.17 0 0 1 .123-.047h-.005zm0 .293a.12.12 0 0 0 .089-.038.13.13 0 0 0 0-.173.121.121 0 0 0-.138-.028.124.124 0 0 0-.041.028.13.13 0 0 0 0 .173.126.126 0 0 0 .04.028.124.124 0 0 0 .055.01h-.005zm.01-.206c.016-.001.032.004.045.014.01.009.016.022.015.036a.042.042 0 0 1-.012.031.06.06 0 0 1-.036.016l.05.057h-.04l-.045-.057h-.016v.057h-.032v-.152l.071-.002zm-.037.03v.041h.037a.035.035 0 0 0 .02 0 .018.018 0 0 0 0-.016.018.018 0 0 0 0-.015.035.035 0 0 0-.02 0l-.037-.01zm-1.877-.705a.496.496 0 0 1 .51-.472c.269.01.48.236.475.51a.497.497 0 0 1-.49.493.486.486 0 0 1-.362-.156.503.503 0 0 1-.133-.375zm-11.982 0v-.83h-.355v.201a.615.615 0 0 0-.512-.243.86.86 0 0 0-.853.868c0 .48.382.868.853.868.2.007.39-.083.512-.243v.201h.355v-.822zm-1.32 0a.496.496 0 0 1 .51-.472c.268.01.48.236.475.51a.497.497 0 0 1-.855.339.503.503 0 0 1-.134-.377h.003z"/><path fill="#FF5F00" d="M16.296 5.466h5.374v9.825h-5.374z"/><path fill="#EB001B" d="M16.637 10.379a6.277 6.277 0 0 1 2.346-4.913 6.067 6.067 0 0 0-8.308.673c-2.173 2.394-2.173 6.084 0 8.478a6.067 6.067 0 0 0 8.308.674 6.277 6.277 0 0 1-2.346-4.912z"/><path fill="#F79E1B" d="M28.921 10.379c0 2.392-1.343 4.574-3.458 5.62a6.057 6.057 0 0 1-6.48-.708 6.288 6.288 0 0 0 2.347-4.913 6.288 6.288 0 0 0-2.347-4.912 6.057 6.057 0 0 1 6.48-.708c2.115 1.045 3.458 3.227 3.458 5.62v.001zM28.452 15v-.824h.157v-.17h-.398v.17h.17V15h.071zm.773 0v-.994h-.12l-.141.71-.14-.71h-.108V15h.087v-.744l.13.645h.091l.13-.645v.751l.07-.007z"/></svg>