<svg xmlns="http://www.w3.org/2000/svg" role="img" viewBox="0 0 38 24" width="38" height="24" fill="none" aria-labelledby="pi-master"><title id="pi-master">Mastercard</title><rect x=".5" y=".5" width="37" height="23" rx="2.5" stroke="#000" stroke-opacity=".07" fill="none"/><path d="M35 0H3C1.3 0 0 1.3 0 3V21C0 22.7 1.4 24 3 24H35C36.7 24 38 22.7 38 21V3C38 1.3 36.6 0 35 0Z" fill="#1C1C1C" style="fill:#1C1C1C;fill:color(display-p3 0.1098 0.1098 0.1098);fill-opacity:1;"/><path d="M35 1C36.1 1 37 1.9 37 3V21C37 22.1 36.1 23 35 23H3C1.9 23 1 22.1 1 21V3C1 1.9 1.9 1 3 1H35Z" fill="#232323" style="fill:#232323;fill:color(display-p3 0.1373 0.1373 0.1373);fill-opacity:1;"/><path d="M14.6364 19.2727C18.8538 19.2727 22.2727 15.8538 22.2727 11.6364C22.2727 7.41892 18.8538 4 14.6364 4C10.4189 4 7 7.41892 7 11.6364C7 15.8538 10.4189 19.2727 14.6364 19.2727Z" fill="#EB001B" style="fill:#EB001B;fill:color(display-p3 0.9216 0.0000 0.1059);fill-opacity:1;"/><path d="M23.3637 19.2727C27.5811 19.2727 31 15.8538 31 11.6364C31 7.41892 27.5811 4 23.3637 4C19.1462 4 15.7273 7.41892 15.7273 11.6364C15.7273 15.8538 19.1462 19.2727 23.3637 19.2727Z" fill="#F79E1B" style="fill:#F79E1B;fill:color(display-p3 0.9686 0.6196 0.1059);fill-opacity:1;"/><path d="M22.2727 11.6362C22.2727 9.01797 20.9637 6.72706 19 5.41797C17.0364 6.83615 15.7273 9.12706 15.7273 11.6362C15.7273 14.1452 17.0364 16.5452 19 17.8543C20.9637 16.5452 22.2727 14.2543 22.2727 11.6362Z" fill="#FF5F00" style="fill:#FF5F00;fill:color(display-p3 1.0000 0.3725 0.0000);fill-opacity:1;"/></svg>
