<svg xmlns="http://www.w3.org/2000/svg" width="38" height="24" aria-labelledby="pi-master" role="img" viewBox="0 0 38 24"><title id="pi-master">Mastercard</title><path fill-opacity=".07" d="M38 2v20a2 2 0 0 1-2 2H2a2 2 0 0 1-2-2V2a2 2 0 0 1 2-2h34a2 2 0 0 1 2 2Z"/><path fill="#fff" d="M37 3v18a2 2 0 0 1-2 2H3a2 2 0 0 1-2-2V3a2 2 0 0 1 2-2h32a2 2 0 0 1 2 2Z"/><path fill="#ff5f00" d="M15.942 6.498h6.122v11h-6.122z"/><path fill="#eb001b" d="M16.33 11.998c0-2.138.992-4.178 2.663-5.5-3.032-2.39-7.444-1.866-9.834 1.186a6.993 6.993 0 0 0 1.205 9.815 6.98 6.98 0 0 0 8.648 0 7.004 7.004 0 0 1-2.682-5.501Z"/><path fill="#f79e1b" d="M30.324 11.998a6.992 6.992 0 0 1-6.997 6.997 6.932 6.932 0 0 1-4.315-1.496c3.032-2.391 3.557-6.783 1.167-9.835a7.395 7.395 0 0 0-1.167-1.166c3.032-2.39 7.444-1.866 9.815 1.186a6.922 6.922 0 0 1 1.497 4.314Z"/></svg>
