<?xml version="1.0" encoding="UTF-8"?>
<svg width="38px" height="24px" viewBox="0 0 38 24" version="1.1" xmlns="http://www.w3.org/2000/svg" xmlns:xlink="http://www.w3.org/1999/xlink" style="background: #FFFFFF;">
    <!-- Generator: Sketch 42 (36781) - http://www.bohemiancoding.com/sketch -->
    <title>Artboard</title>
    <desc>Created with Sketch.</desc>
    <defs></defs>
    <g id="Page-1" stroke="none" stroke-width="1" fill="none" fill-rule="evenodd">
        <g id="Artboard" fill-rule="nonzero">
            <g id="Group" transform="translate(1.000000, 7.000000)">
                <path d="M33.377616,2.37263175 C33.230376,2.37263175 33.098976,2.39806925 32.983056,2.4486005 C32.867136,2.4994755 32.769216,2.567538 32.688936,2.6534755 C32.609016,2.739413 32.547096,2.84013175 32.503896,2.9559755 C32.460696,3.07181925 32.438736,3.19488175 32.438736,3.325163 C32.438736,3.45544425 32.460696,3.578163 32.503896,3.6943505 C32.547096,3.81019425 32.609016,3.910913 32.688936,3.99650675 C32.769216,4.08244425 32.867136,4.1508505 32.983056,4.20138175 C33.098976,4.251913 33.230376,4.2773505 33.377616,4.2773505 C33.518376,4.2773505 33.646176,4.25294425 33.761016,4.2044755 C33.875856,4.15600675 33.974136,4.08931925 34.056936,4.004413 C34.139016,3.91950675 34.202736,3.8194755 34.248456,3.70363175 C34.294176,3.587788 34.316856,3.46163175 34.316856,3.325163 C34.316856,3.1883505 34.294176,3.062538 34.248456,2.9463505 C34.202736,2.83050675 34.139016,2.7304755 34.056936,2.64556925 C33.974136,2.56100675 33.875856,2.4939755 33.761016,2.44550675 C33.646176,2.397038 33.518376,2.37263175 33.377616,2.37263175 L33.377616,2.37263175 Z M35.712576,4.66956925 L35.712576,4.71631925 L35.757576,4.71631925 C35.768016,4.71631925 35.776296,4.71425675 35.782416,4.7104755 C35.788536,4.70669425 35.791416,4.7008505 35.791416,4.6926005 C35.791416,4.685038 35.788536,4.67919425 35.782416,4.675413 C35.776296,4.67163175 35.768016,4.66956925 35.757576,4.66956925 L35.712576,4.66956925 Z M35.757936,4.63656925 C35.781696,4.63656925 35.799696,4.6417255 35.812656,4.65169425 C35.825256,4.661663 35.831736,4.675413 35.831736,4.6926005 C35.831736,4.707038 35.826696,4.71906925 35.816616,4.72869425 C35.806176,4.7379755 35.791776,4.74381925 35.773056,4.74588175 L35.833176,4.8122255 L35.786016,4.8122255 L35.730216,4.74656925 L35.712576,4.74656925 L35.712576,4.8122255 L35.672976,4.8122255 L35.672976,4.63656925 L35.757936,4.63656925 Z M35.746416,4.87238175 C35.767656,4.87238175 35.787456,4.8686005 35.806176,4.86069425 C35.824536,4.85313175 35.840736,4.8424755 35.854416,4.829413 C35.868456,4.81600675 35.879256,4.800538 35.887176,4.782663 C35.895096,4.764788 35.899056,4.745538 35.899056,4.72525675 C35.899056,4.70463175 35.895096,4.6857255 35.887176,4.6678505 C35.879256,4.64963175 35.868456,4.634163 35.854416,4.62075675 C35.840736,4.60769425 35.824536,4.59738175 35.806176,4.5894755 C35.787456,4.581913 35.767656,4.57813175 35.746416,4.57813175 C35.724816,4.57813175 35.704296,4.581913 35.685576,4.5894755 C35.666496,4.59738175 35.650296,4.60769425 35.636256,4.62075675 C35.622216,4.634163 35.611416,4.64963175 35.603496,4.6678505 C35.595576,4.6857255 35.591616,4.70463175 35.591616,4.72525675 C35.591616,4.745538 35.595576,4.764788 35.603496,4.782663 C35.611416,4.800538 35.622216,4.81600675 35.636256,4.829413 C35.650296,4.8424755 35.666496,4.85313175 35.685576,4.86069425 C35.704296,4.8686005 35.724816,4.87238175 35.746416,4.87238175 L35.746416,4.87238175 Z M35.746416,4.53619425 C35.774136,4.53619425 35.800416,4.54100675 35.824536,4.5509755 C35.849016,4.56094425 35.870616,4.5743505 35.888616,4.591538 C35.906976,4.6087255 35.921376,4.628663 35.931816,4.65169425 C35.942256,4.6747255 35.947656,4.69913175 35.947656,4.72525675 C35.947656,4.751038 35.942256,4.77544425 35.931816,4.79813175 C35.921376,4.821163 35.906976,4.8411005 35.888616,4.858288 C35.870616,4.8754755 35.849016,4.88888175 35.824536,4.8988505 C35.800416,4.909163 35.774136,4.9139755 35.746416,4.9139755 C35.717976,4.9139755 35.691336,4.909163 35.666496,4.8988505 C35.642016,4.88888175 35.620416,4.8754755 35.602416,4.858288 C35.584056,4.8411005 35.570016,4.821163 35.559216,4.79813175 C35.548776,4.77544425 35.543736,4.751038 35.543736,4.72525675 C35.543736,4.69913175 35.548776,4.6747255 35.559216,4.65169425 C35.570016,4.628663 35.584056,4.6087255 35.602416,4.591538 C35.620416,4.5743505 35.642016,4.56094425 35.666496,4.5509755 C35.691336,4.54100675 35.717976,4.53619425 35.746416,4.53619425 L35.746416,4.53619425 Z M33.296616,1.76144425 C33.519816,1.76144425 33.711336,1.80131925 33.871536,1.88106925 C34.031736,1.9604755 34.166016,2.0663505 34.274376,2.19869425 L34.274376,0.34381925 L34.953336,0.34381925 L34.953336,4.8108505 L34.274376,4.8108505 L34.274376,4.45438175 C34.166016,4.5867255 34.031736,4.691913 33.871536,4.77063175 C33.711336,4.8493505 33.519816,4.888538 33.296616,4.888538 C33.077736,4.888538 32.873976,4.84969425 32.685696,4.7723505 C32.497416,4.694663 32.332536,4.5867255 32.191776,4.4478505 C32.051016,4.309663 31.940496,4.144663 31.860576,3.95319425 C31.780296,3.7617255 31.740336,3.55238175 31.740336,3.325163 C31.740336,3.0976005 31.780296,2.88825675 31.860576,2.696788 C31.940496,2.505663 32.051016,2.340663 32.191776,2.20213175 C32.332536,2.0636005 32.497416,1.95531925 32.685696,1.87763175 C32.873976,1.800288 33.077736,1.76144425 33.296616,1.76144425 L33.296616,1.76144425 Z M31.067496,1.76144425 C31.171896,1.76144425 31.265496,1.76831925 31.348656,1.7817255 C31.432176,1.79513175 31.512816,1.81644425 31.590576,1.84531925 L31.428216,2.48744425 C31.356936,2.45238175 31.273416,2.4252255 31.178376,2.406663 C31.082976,2.38844425 30.994056,2.37881925 30.911616,2.37881925 C30.803256,2.37881925 30.703896,2.3963505 30.612816,2.43175675 C30.521736,2.46681925 30.443976,2.51838175 30.378816,2.586788 C30.314016,2.6548505 30.262896,2.7387255 30.226176,2.83806925 C30.189456,2.93706925 30.171096,3.050163 30.171096,3.1759755 L30.171096,4.8108505 L29.492136,4.8108505 L29.492136,1.83913175 L30.164616,1.83913175 L30.164616,2.17394425 C30.268656,2.031288 30.397176,1.92713175 30.551256,1.860788 C30.704976,1.794788 30.877416,1.76144425 31.067496,1.76144425 L31.067496,1.76144425 Z M26.915616,2.37263175 C26.768376,2.37263175 26.636616,2.39806925 26.521056,2.4486005 C26.405136,2.4994755 26.307216,2.567538 26.226936,2.6534755 C26.147016,2.739413 26.085096,2.84013175 26.041536,2.9559755 C25.998336,3.07181925 25.976736,3.19488175 25.976736,3.325163 C25.976736,3.45544425 25.998336,3.578163 26.041536,3.6943505 C26.085096,3.81019425 26.147016,3.910913 26.226936,3.99650675 C26.307216,4.08244425 26.405136,4.1508505 26.521056,4.20138175 C26.636616,4.251913 26.768376,4.2773505 26.915616,4.2773505 C27.056376,4.2773505 27.184176,4.25294425 27.299016,4.2044755 C27.413856,4.15600675 27.512136,4.08931925 27.594576,4.004413 C27.677016,3.91950675 27.740736,3.8194755 27.786456,3.70363175 C27.831816,3.587788 27.854856,3.46163175 27.854856,3.325163 C27.854856,3.1883505 27.831816,3.062538 27.786456,2.9463505 C27.740736,2.83050675 27.677016,2.7304755 27.594576,2.64556925 C27.512136,2.56100675 27.413856,2.4939755 27.299016,2.44550675 C27.184176,2.397038 27.056376,2.37263175 26.915616,2.37263175 L26.915616,2.37263175 Z M28.491336,4.8108505 L27.812376,4.8108505 L27.812376,4.45438175 C27.704016,4.5867255 27.569736,4.691913 27.409536,4.77063175 C27.248976,4.8493505 27.057456,4.888538 26.834616,4.888538 C26.615736,4.888538 26.411976,4.84969425 26.223696,4.7723505 C26.035416,4.694663 25.870536,4.5867255 25.729776,4.4478505 C25.589016,4.309663 25.478496,4.144663 25.398576,3.95319425 C25.318296,3.7617255 25.278336,3.55238175 25.278336,3.325163 C25.278336,3.0976005 25.318296,2.88825675 25.398576,2.696788 C25.478496,2.505663 25.589016,2.340663 25.729776,2.20213175 C25.870536,2.0636005 26.035416,1.95531925 26.223696,1.87763175 C26.411976,1.800288 26.615736,1.76144425 26.834616,1.76144425 C27.057456,1.76144425 27.248976,1.80131925 27.409536,1.88106925 C27.569736,1.9604755 27.704016,2.0663505 27.812376,2.19869425 L27.812376,1.83913175 L28.491336,1.83913175 L28.491336,4.8108505 Z M23.709096,1.76144425 C23.943096,1.76144425 24.160536,1.80131925 24.362136,1.88106925 C24.563376,1.9604755 24.733296,2.07906925 24.871896,2.236163 L24.436656,2.67994425 C24.326136,2.5806005 24.211656,2.50463175 24.092496,2.45169425 C23.972976,2.3991005 23.839056,2.37263175 23.689296,2.37263175 C23.559696,2.37263175 23.438376,2.39600675 23.325696,2.442413 C23.213016,2.48881925 23.115456,2.55413175 23.033376,2.63800675 C22.950936,2.72188175 22.886496,2.821913 22.840056,2.938788 C22.793256,3.055663 22.770216,3.1842255 22.770216,3.325163 C22.770216,3.46575675 22.793256,3.59431925 22.840056,3.71119425 C22.886496,3.82806925 22.950936,3.92844425 23.033376,4.01231925 C23.115456,4.09619425 23.213016,4.161163 23.325696,4.20756925 C23.438376,4.25431925 23.559696,4.2773505 23.689296,4.2773505 C23.839056,4.2773505 23.978376,4.247788 24.108336,4.18900675 C24.238296,4.1302255 24.353496,4.0559755 24.452856,3.967288 L24.871896,4.41381925 C24.729336,4.57125675 24.557976,4.68950675 24.358896,4.768913 C24.159456,4.848663 23.943096,4.888538 23.709096,4.888538 C23.462136,4.888538 23.237856,4.848663 23.036616,4.768913 C22.835016,4.68950675 22.662936,4.5798505 22.520016,4.440288 C22.377096,4.3007255 22.266576,4.1357255 22.188456,3.945288 C22.110696,3.75519425 22.071456,3.54825675 22.071456,3.325163 C22.071456,3.1017255 22.110696,2.894788 22.188456,2.70469425 C22.266576,2.51425675 22.377096,2.34925675 22.520016,2.20969425 C22.662936,2.07013175 22.835016,1.9604755 23.036616,1.88106925 C23.237856,1.80131925 23.462136,1.76144425 23.709096,1.76144425 L23.709096,1.76144425 Z M21.386016,1.76144425 C21.490056,1.76144425 21.583656,1.76831925 21.667176,1.7817255 C21.750696,1.79513175 21.831336,1.81644425 21.909096,1.84531925 L21.746736,2.48744425 C21.675456,2.45238175 21.591936,2.4252255 21.496536,2.406663 C21.401136,2.38844425 21.312576,2.37881925 21.230136,2.37881925 C21.121776,2.37881925 21.022416,2.3963505 20.931336,2.43175675 C20.840256,2.46681925 20.762496,2.51838175 20.697336,2.586788 C20.632536,2.6548505 20.581416,2.7387255 20.544696,2.83806925 C20.507976,2.93706925 20.489256,3.050163 20.489256,3.1759755 L20.489256,4.8108505 L19.810656,4.8108505 L19.810656,1.83913175 L20.482776,1.83913175 L20.482776,2.17394425 C20.586816,2.031288 20.715696,1.92713175 20.869416,1.860788 C21.023136,1.794788 21.195576,1.76144425 21.386016,1.76144425 L21.386016,1.76144425 Z M17.549136,2.3386005 C17.427816,2.3386005 17.320176,2.35613175 17.225856,2.39119425 C17.131896,2.4266005 17.050536,2.47644425 16.982496,2.54175675 C16.914096,2.60706925 16.858296,2.684413 16.815096,2.7744755 C16.771536,2.86419425 16.741296,2.96319425 16.724016,3.070788 L18.338616,3.070788 C18.301896,2.8391005 18.215496,2.6589755 18.078696,2.53075675 C17.942256,2.402538 17.765856,2.3386005 17.549136,2.3386005 L17.549136,2.3386005 Z M17.562096,1.76144425 C17.778816,1.76144425 17.977536,1.79925675 18.158256,1.874538 C18.339336,1.950163 18.494136,2.0567255 18.623016,2.1942255 C18.751896,2.3317255 18.852336,2.49638175 18.925056,2.68750675 C18.997776,2.8789755 19.034136,3.09038175 19.034136,3.3217255 C19.034136,3.36331925 19.033056,3.404913 19.030536,3.44581925 C19.028736,3.487413 19.025136,3.5266005 19.021176,3.5637255 L16.720776,3.5637255 C16.742376,3.6984755 16.782336,3.81294425 16.841016,3.90850675 C16.899336,4.00338175 16.969896,4.081413 17.051976,4.1426005 C17.134416,4.20344425 17.226576,4.2484755 17.328456,4.2773505 C17.429976,4.30656925 17.536176,4.320663 17.646696,4.320663 C17.802576,4.320663 17.959176,4.29350675 18.116136,4.23850675 C18.273456,4.1838505 18.416736,4.1068505 18.546696,4.00750675 L18.884376,4.46950675 C18.693936,4.62488175 18.491976,4.73350675 18.278496,4.79538175 C18.065016,4.8576005 17.840376,4.888538 17.604576,4.888538 C17.370576,4.888538 17.156016,4.851413 16.961256,4.77681925 C16.766136,4.70256925 16.598376,4.597038 16.457616,4.46056925 C16.316856,4.32375675 16.207416,4.15944425 16.129296,3.967288 C16.051536,3.774788 16.012656,3.56063175 16.012656,3.325163 C16.012656,3.0934755 16.050456,2.88138175 16.126056,2.68888175 C16.202016,2.4967255 16.308216,2.3317255 16.444656,2.1942255 C16.581096,2.0567255 16.743816,1.950163 16.933536,1.874538 C17.123256,1.79925675 17.332776,1.76144425 17.562096,1.76144425 L17.562096,1.76144425 Z M15.473376,2.42831925 L14.280696,2.42831925 L14.280696,3.72219425 C14.280696,3.82119425 14.294016,3.9061005 14.319936,3.97656925 C14.345856,4.04669425 14.381136,4.1041005 14.425416,4.148788 C14.469696,4.19313175 14.521896,4.225788 14.581296,4.246413 C14.641056,4.267038 14.705136,4.2773505 14.774616,4.2773505 C14.880816,4.2773505 14.988456,4.25775675 15.097896,4.2182255 C15.207336,4.179038 15.308496,4.1316005 15.401736,4.075913 L15.671376,4.5936005 C15.545736,4.67438175 15.404256,4.74381925 15.247656,4.80156925 C15.090336,4.859663 14.913216,4.888538 14.716296,4.888538 C14.363136,4.888538 14.088456,4.795038 13.892616,4.60769425 C13.696416,4.42069425 13.598496,4.129538 13.598496,3.73456925 L13.598496,2.42831925 L12.978216,2.42831925 L12.978216,1.83913175 L13.598496,1.83913175 L13.598496,0.93919425 L14.280696,0.93919425 L14.280696,1.83913175 L15.473376,1.83913175 L15.473376,2.42831925 Z M12.250296,2.58369425 C12.202776,2.55688175 12.144096,2.5283505 12.074976,2.4981005 C12.005496,2.46819425 11.928816,2.441038 11.844216,2.41594425 C11.759616,2.39119425 11.670336,2.37056925 11.576376,2.35406925 C11.482056,2.33756925 11.386296,2.32931925 11.288736,2.32931925 C11.102256,2.32931925 10.957896,2.36163175 10.854936,2.42694425 C10.752336,2.491913 10.700856,2.57750675 10.700856,2.683038 C10.700856,2.7346005 10.714176,2.777913 10.741176,2.8129755 C10.768536,2.84838175 10.804536,2.87725675 10.850256,2.89994425 C10.895616,2.9229755 10.949616,2.9408505 11.012616,2.95425675 C11.075256,2.967663 11.142576,2.97969425 11.213856,2.99000675 L11.535696,3.036413 C11.875536,3.08419425 12.140856,3.1787255 12.331656,3.3203505 C12.522096,3.4619755 12.617496,3.6599755 12.617496,3.9143505 C12.617496,4.05700675 12.585456,4.1879755 12.521736,4.306913 C12.458016,4.4258505 12.365856,4.528288 12.245616,4.61388175 C12.125376,4.69981925 11.977056,4.76650675 11.800656,4.814288 C11.623896,4.8617255 11.424096,4.88544425 11.200896,4.88544425 C11.120976,4.88544425 11.027736,4.88063175 10.921536,4.8713505 C10.815336,4.86206925 10.703016,4.84350675 10.583856,4.815663 C10.464696,4.78781925 10.343376,4.7489755 10.219896,4.6994755 C10.096416,4.64963175 9.978336,4.58431925 9.865656,4.50388175 L10.181016,4.016788 C10.237176,4.05838175 10.298376,4.09688175 10.364256,4.1329755 C10.430496,4.169413 10.505016,4.20138175 10.588536,4.2292255 C10.672056,4.25706925 10.764216,4.279413 10.864656,4.295913 C10.965456,4.312413 11.079576,4.320663 11.207376,4.320663 C11.441376,4.320663 11.617776,4.2883505 11.736936,4.223038 C11.856096,4.15806925 11.915856,4.0697255 11.915856,3.957663 C11.915856,3.8731005 11.872296,3.80331925 11.785896,3.74831925 C11.699136,3.693663 11.562696,3.653788 11.376576,3.629038 L11.051496,3.58881925 C10.705176,3.5431005 10.442376,3.44650675 10.263816,3.29869425 C10.084896,3.15088175 9.995616,2.95700675 9.995616,2.71706925 C9.995616,2.56994425 10.025496,2.4376005 10.084896,2.320038 C10.144656,2.20213175 10.229976,2.10244425 10.341576,2.02063175 C10.453176,1.93881925 10.588176,1.875913 10.746216,1.8312255 C10.904256,1.78688175 11.082816,1.764538 11.282256,1.764538 C11.527056,1.764538 11.757456,1.792038 11.974176,1.847038 C12.190896,1.90169425 12.380256,1.97869425 12.542976,2.078038 L12.250296,2.58369425 Z M7.555896,2.37263175 C7.408656,2.37263175 7.276896,2.39806925 7.161336,2.4486005 C7.045416,2.4994755 6.947136,2.567538 6.867216,2.6534755 C6.786936,2.739413 6.725376,2.84013175 6.682176,2.9559755 C6.638616,3.07181925 6.617016,3.19488175 6.617016,3.325163 C6.617016,3.45544425 6.638616,3.578163 6.682176,3.6943505 C6.725376,3.81019425 6.786936,3.910913 6.867216,3.99650675 C6.947136,4.08244425 7.045416,4.1508505 7.161336,4.20138175 C7.276896,4.251913 7.408656,4.2773505 7.555896,4.2773505 C7.696656,4.2773505 7.824456,4.25294425 7.939296,4.2044755 C8.054136,4.15600675 8.152776,4.08931925 8.234856,4.004413 C8.317296,3.91950675 8.381016,3.8194755 8.426736,3.70363175 C8.472096,3.587788 8.494776,3.46163175 8.494776,3.325163 C8.494776,3.1883505 8.472096,3.062538 8.426736,2.9463505 C8.381016,2.83050675 8.317296,2.7304755 8.234856,2.64556925 C8.152776,2.56100675 8.054136,2.4939755 7.939296,2.44550675 C7.824456,2.397038 7.696656,2.37263175 7.555896,2.37263175 L7.555896,2.37263175 Z M9.131616,4.8108505 L8.452656,4.8108505 L8.452656,4.45438175 C8.344296,4.5867255 8.210016,4.691913 8.049816,4.77063175 C7.889616,4.8493505 7.697736,4.888538 7.474536,4.888538 C7.256016,4.888538 7.052256,4.84969425 6.863976,4.7723505 C6.675336,4.694663 6.510816,4.5867255 6.370056,4.4478505 C6.229296,4.309663 6.118776,4.144663 6.038856,3.95319425 C5.958576,3.7617255 5.918616,3.55238175 5.918616,3.325163 C5.918616,3.0976005 5.958576,2.88825675 6.038856,2.696788 C6.118776,2.505663 6.229296,2.340663 6.370056,2.20213175 C6.510816,2.0636005 6.675336,1.95531925 6.863976,1.87763175 C7.052256,1.800288 7.256016,1.76144425 7.474536,1.76144425 C7.697736,1.76144425 7.889616,1.80131925 8.049816,1.88106925 C8.210016,1.9604755 8.344296,2.0663505 8.452656,2.19869425 L8.452656,1.83913175 L9.131616,1.83913175 L9.131616,4.8108505 Z M5.265576,4.8108505 L4.531176,4.8108505 L4.531176,1.2372255 L3.202776,4.3859755 L2.429496,4.3859755 L1.100736,1.27125675 L1.100736,4.8108505 L0.366336,4.8108505 L0.366336,0.467913 L1.493496,0.467913 L2.816136,3.569913 L4.138056,0.467913 L5.265576,0.467913 L5.265576,4.8108505 Z" id="Fill-4" fill="#EC001B"></path>
                <path d="M33.49872,8.335112 C33.38172,8.335112 33.27804,8.35195575 33.18696,8.385987 C33.09624,8.42001825 33.01776,8.46814325 32.95188,8.5310495 C32.88636,8.593612 32.83236,8.6685495 32.7906,8.75551825 C32.74884,8.8417995 32.71968,8.937362 32.70312,9.04083075 L34.25976,9.04083075 C34.22412,8.817737 34.14096,8.64414325 34.0092,8.520737 C33.8778,8.396987 33.70716,8.335112 33.49872,8.335112 L33.49872,8.335112 Z M35.54352,10.7186745 L35.54352,10.5450808 L35.496,10.5450808 L35.44128,10.664362 L35.38692,10.5450808 L35.3394,10.5450808 L35.3394,10.7186745 L35.37288,10.7186745 L35.37288,10.5877058 L35.424,10.7007995 L35.45892,10.7007995 L35.51004,10.587362 L35.51004,10.7186745 L35.54352,10.7186745 Z M35.24256,10.7186745 L35.24256,10.5746433 L35.3034,10.5746433 L35.3034,10.5450808 L35.1486,10.5450808 L35.1486,10.5746433 L35.20944,10.5746433 L35.20944,10.7186745 L35.24256,10.7186745 Z M33.51132,7.7789245 C33.72012,7.7789245 33.91164,7.815362 34.08588,7.88789325 C34.26012,7.96076825 34.40952,8.0635495 34.53372,8.19589325 C34.65792,8.32858075 34.75512,8.4870495 34.82496,8.67164325 C34.89516,8.85589325 34.93008,9.06008075 34.93008,9.2831745 C34.93008,9.3230495 34.929,9.3629245 34.92684,9.4027995 C34.92468,9.4426745 34.92144,9.480487 34.91748,9.51658075 L32.69988,9.51658075 C32.72076,9.6461745 32.75928,9.756862 32.8158,9.8482995 C32.87232,9.9404245 32.94,10.015362 33.01956,10.074487 C33.09876,10.1332683 33.18732,10.1765807 33.2856,10.2044245 C33.38388,10.2322683 33.48612,10.2460183 33.59268,10.2460183 C33.74316,10.2460183 33.894,10.2198933 34.0452,10.1669557 C34.1964,10.114362 34.335,10.0397682 34.46028,9.94420575 L34.78608,10.3897058 C34.60212,10.539237 34.40736,10.6440808 34.2018,10.7038933 C33.99624,10.7637057 33.77952,10.793612 33.552,10.793612 C33.32664,10.793612 33.11964,10.7575183 32.93172,10.6860183 C32.7438,10.6141745 32.5818,10.5124245 32.44608,10.3807683 C32.31072,10.249112 32.20524,10.0906432 32.13,9.905362 C32.05476,9.719737 32.01732,9.513487 32.01732,9.28626825 C32.01732,9.06283075 32.05368,8.8582995 32.12676,8.67301825 C32.19984,8.487737 32.30208,8.32858075 32.43384,8.19589325 C32.56524,8.0635495 32.7222,7.96076825 32.90508,7.88789325 C33.08796,7.815362 33.28992,7.7789245 33.51132,7.7789245 L33.51132,7.7789245 Z M29.81196,8.368112 C29.67012,8.368112 29.54304,8.39251825 29.43144,8.44133075 C29.31948,8.49014325 29.22516,8.55614325 29.14812,8.63864325 C29.07072,8.721487 29.01132,8.8184245 28.96956,8.93014325 C28.9278,9.041862 28.90692,9.16045575 28.90692,9.28626825 C28.90692,9.411737 28.9278,9.53033075 28.96956,9.6420495 C29.01132,9.75376825 29.07072,9.8510495 29.14812,9.93389325 C29.22516,10.0163933 29.31948,10.0820495 29.43144,10.1312057 C29.54304,10.1800182 29.67012,10.2044245 29.81196,10.2044245 C29.94768,10.2044245 30.0708,10.1807058 30.18168,10.1339558 C30.2922,10.0872057 30.38724,10.0229245 30.4668,9.941112 C30.546,9.85964325 30.60756,9.76270575 30.65148,9.650987 C30.6954,9.539612 30.71736,9.4179245 30.71736,9.28626825 C30.71736,9.154612 30.6954,9.0329245 30.65148,8.92120575 C30.60756,8.809487 30.546,8.713237 30.4668,8.6314245 C30.38724,8.549612 30.2922,8.48533075 30.18168,8.438237 C30.0708,8.391487 29.94768,8.368112 29.81196,8.368112 L29.81196,8.368112 Z M29.73348,7.7789245 C29.94876,7.7789245 30.13344,7.81708075 30.28788,7.89408075 C30.44268,7.970737 30.57192,8.0731745 30.67668,8.20070575 L30.67668,6.41183075 L31.33116,6.41183075 L31.33116,10.7186745 L30.67668,10.7186745 L30.67668,10.3749245 C30.57192,10.5024557 30.44268,10.6042058 30.28788,10.6798308 C30.13344,10.7554557 29.94876,10.793612 29.73348,10.793612 C29.52288,10.793612 29.32632,10.7561433 29.14488,10.6815495 C28.96308,10.606612 28.80432,10.5024557 28.66896,10.368737 C28.53288,10.235362 28.42632,10.0762058 28.34928,9.89195575 C28.27188,9.707362 28.23336,9.50558075 28.23336,9.28626825 C28.23336,9.06695575 28.27188,8.86483075 28.34928,8.68058075 C28.42632,8.495987 28.53288,8.3371745 28.66896,8.20345575 C28.80432,8.07008075 28.96308,7.9659245 29.14488,7.890987 C29.32632,7.8160495 29.52288,7.7789245 29.73348,7.7789245 L29.73348,7.7789245 Z M26.14716,8.368112 C26.0136,8.368112 25.8894,8.39045575 25.77456,8.435487 C25.65972,8.4801745 25.56036,8.54308075 25.47684,8.62351825 C25.39332,8.7042995 25.3278,8.801237 25.27956,8.91364325 C25.23168,9.026737 25.20756,9.15083075 25.20756,9.28626825 C25.20756,9.42170575 25.23168,9.54614325 25.27956,9.6585495 C25.3278,9.7712995 25.39332,9.86789325 25.47684,9.9486745 C25.56036,10.0294558 25.65972,10.0920183 25.77456,10.1370495 C25.8894,10.1820808 26.0136,10.2044245 26.14716,10.2044245 C26.28108,10.2044245 26.40492,10.1820808 26.52012,10.1370495 C26.6346,10.0920183 26.73432,10.0294558 26.81892,9.9486745 C26.90388,9.86789325 26.96976,9.7712995 27.018,9.6585495 C27.06588,9.54614325 27.09,9.42170575 27.09,9.28626825 C27.09,9.15083075 27.06588,9.026737 27.018,8.91364325 C26.96976,8.801237 26.90388,8.7042995 26.81892,8.62351825 C26.73432,8.54308075 26.6346,8.4801745 26.52012,8.435487 C26.40492,8.39045575 26.28108,8.368112 26.14716,8.368112 L26.14716,8.368112 Z M26.14716,7.7789245 C26.379,7.7789245 26.59356,7.81708075 26.79084,7.89408075 C26.98812,7.970737 27.15876,8.076612 27.30312,8.21101825 C27.44712,8.3454245 27.5598,8.50458075 27.64116,8.6877995 C27.72252,8.871362 27.7632,9.070737 27.7632,9.28626825 C27.7632,9.50145575 27.72252,9.70083075 27.64116,9.88439325 C27.5598,10.0679557 27.44712,10.2267683 27.30312,10.3615182 C27.15876,10.4959245 26.98812,10.6014557 26.79084,10.6784557 C26.59356,10.755112 26.379,10.793612 26.14716,10.793612 C25.91568,10.793612 25.70076,10.755112 25.50348,10.6784557 C25.3062,10.6014557 25.13592,10.4959245 24.993,10.3615182 C24.84972,10.2267683 24.73776,10.0679557 24.6564,9.88439325 C24.57504,9.70083075 24.53436,9.50145575 24.53436,9.28626825 C24.53436,9.070737 24.57504,8.871362 24.6564,8.6877995 C24.73776,8.50458075 24.84972,8.3454245 24.993,8.21101825 C25.13592,8.076612 25.3062,7.970737 25.50348,7.89408075 C25.70076,7.81708075 25.91568,7.7789245 26.14716,7.7789245 L26.14716,7.7789245 Z M22.27896,6.45376825 C22.473,6.45376825 22.66128,6.47370575 22.84272,6.51358075 C23.02452,6.55345575 23.19372,6.61120575 23.35032,6.6871745 C23.50692,6.76314325 23.64912,6.85526825 23.7762,6.96389325 C23.90364,7.07251825 24.0102,7.1945495 24.09588,7.329987 L23.50368,7.70708075 C23.37012,7.51939325 23.1984,7.3719245 22.98852,7.26433075 C22.77864,7.156737 22.54212,7.103112 22.27896,7.103112 C22.0554,7.103112 21.84876,7.13989325 21.65868,7.21345575 C21.4686,7.287362 21.3048,7.3911745 21.16692,7.5245495 C21.0294,7.65826825 20.92104,7.8187995 20.84292,8.00614325 C20.76444,8.193487 20.72556,8.40008075 20.72556,8.625237 C20.72556,8.850737 20.76444,9.056987 20.84292,9.24433075 C20.92104,9.4316745 21.0294,9.59220575 21.16692,9.7259245 C21.3048,9.85964325 21.4686,9.963112 21.65868,10.0366745 C21.84876,10.1105808 22.0554,10.147362 22.27896,10.147362 C22.53996,10.147362 22.77432,10.0947683 22.98204,9.98889325 C23.19012,9.883362 23.36256,9.73589325 23.50044,9.546487 L24.07716,9.95039325 C23.98284,10.0817058 23.87304,10.1992683 23.74668,10.3030808 C23.62032,10.4068933 23.48028,10.4955808 23.32692,10.5691432 C23.1732,10.6430495 23.00832,10.6994245 22.83192,10.7382683 C22.65552,10.777112 22.4712,10.7967057 22.27896,10.7967057 C21.94272,10.7967057 21.63384,10.7420495 21.35196,10.6334245 C21.07008,10.5251432 20.8278,10.3738933 20.62548,10.180362 C20.42244,9.9871745 20.26476,9.75789325 20.15208,9.49251825 C20.0394,9.22714325 19.98324,8.93839325 19.98324,8.625237 C19.98324,8.31208075 20.0394,8.022987 20.15208,7.757612 C20.26476,7.49258075 20.42244,7.2632995 20.62548,7.070112 C20.8278,6.87658075 21.07008,6.7256745 21.35196,6.6170495 C21.63384,6.5084245 21.94272,6.45376825 22.27896,6.45376825 L22.27896,6.45376825 Z M18.02232,8.335112 C17.90532,8.335112 17.80164,8.35195575 17.71056,8.385987 C17.61984,8.42001825 17.54136,8.46814325 17.47584,8.5310495 C17.40996,8.593612 17.35632,8.6685495 17.31456,8.75551825 C17.2728,8.8417995 17.24364,8.937362 17.22672,9.04083075 L18.78372,9.04083075 C18.74808,8.817737 18.66456,8.64414325 18.53316,8.520737 C18.4014,8.396987 18.23112,8.335112 18.02232,8.335112 L18.02232,8.335112 Z M18.03492,7.7789245 C18.24372,7.7789245 18.43524,7.815362 18.60984,7.88789325 C18.78408,7.96076825 18.93348,8.0635495 19.05768,8.19589325 C19.18188,8.32858075 19.27908,8.4870495 19.34892,8.67164325 C19.41876,8.85589325 19.45368,9.06008075 19.45368,9.2831745 C19.45368,9.3230495 19.45296,9.3629245 19.4508,9.4027995 C19.44864,9.4426745 19.4454,9.480487 19.44108,9.51658075 L17.22348,9.51658075 C17.24472,9.6461745 17.28324,9.756862 17.3394,9.8482995 C17.39592,9.9404245 17.46396,10.015362 17.54316,10.074487 C17.62236,10.1332683 17.71128,10.1765807 17.80956,10.2044245 C17.90748,10.2322683 18.00972,10.2460183 18.11628,10.2460183 C18.26676,10.2460183 18.4176,10.2198933 18.5688,10.1669557 C18.72036,10.114362 18.8586,10.0397682 18.98424,9.94420575 L19.30968,10.3897058 C19.12608,10.539237 18.93132,10.6440808 18.72576,10.7038933 C18.51984,10.7637057 18.30312,10.793612 18.0756,10.793612 C17.85024,10.793612 17.64324,10.7575183 17.45532,10.6860183 C17.2674,10.6141745 17.10576,10.5124245 16.97004,10.3807683 C16.83432,10.249112 16.72884,10.0906432 16.6536,9.905362 C16.57836,9.719737 16.54092,9.513487 16.54092,9.28626825 C16.54092,9.06283075 16.57728,8.8582995 16.65036,8.67301825 C16.72344,8.487737 16.82604,8.32858075 16.95744,8.19589325 C17.08884,8.0635495 17.24616,7.96076825 17.42868,7.88789325 C17.61156,7.815362 17.81352,7.7789245 18.03492,7.7789245 L18.03492,7.7789245 Z M15.83604,7.7789245 C15.93612,7.7789245 16.02648,7.78545575 16.10676,7.7981745 C16.1874,7.811237 16.26516,7.831862 16.3404,7.859362 L16.1838,8.4787995 C16.11468,8.44476825 16.0344,8.418987 15.9426,8.40076825 C15.8508,8.38289325 15.76512,8.37395575 15.68556,8.37395575 C15.58116,8.37395575 15.4854,8.3907995 15.39756,8.42483075 C15.30972,8.458862 15.23448,8.508362 15.1722,8.574362 C15.1092,8.64001825 15.06024,8.7207995 15.02496,8.81670575 C14.98932,8.91226825 14.97132,9.02089325 14.97132,9.14258075 L14.97132,10.7186745 L14.31684,10.7186745 L14.31684,7.85351825 L14.9652,7.85351825 L14.9652,8.17664325 C15.06528,8.0387995 15.18984,7.9384245 15.33816,7.874487 C15.48612,7.8105495 15.65244,7.7789245 15.83604,7.7789245 L15.83604,7.7789245 Z M13.44636,9.5045495 C13.44636,9.73176825 13.40676,9.927362 13.3272,10.0906432 C13.248,10.2542682 13.1436,10.387987 13.014,10.4914558 C12.8844,10.5952683 12.73644,10.6715808 12.5694,10.7203933 C12.402,10.7692057 12.231,10.793612 12.05568,10.793612 C11.88036,10.793612 11.709,10.7692057 11.54196,10.7203933 C11.37492,10.6715808 11.22588,10.5952683 11.09556,10.4914558 C10.96524,10.387987 10.86084,10.2542682 10.78236,10.0906432 C10.70388,9.927362 10.665,9.73176825 10.665,9.5045495 L10.665,7.85351825 L11.32272,7.85351825 L11.32272,9.44783075 C11.32272,9.58533075 11.34144,9.7025495 11.37888,9.79914325 C11.41668,9.895737 11.46816,9.974112 11.53404,10.0339245 C11.59992,10.093737 11.67768,10.1370495 11.76732,10.163862 C11.85732,10.1906745 11.95344,10.2044245 12.05568,10.2044245 C12.15792,10.2044245 12.25404,10.1906745 12.34368,10.163862 C12.43368,10.1370495 12.51144,10.093737 12.57696,10.0339245 C12.64284,9.974112 12.69468,9.895737 12.73212,9.79914325 C12.76956,9.7025495 12.78864,9.58533075 12.78864,9.44783075 L12.78864,7.85351825 L13.44636,7.85351825 L13.44636,9.5045495 Z M8.96724,7.7789245 C9.19296,7.7789245 9.40284,7.81708075 9.59688,7.89408075 C9.79128,7.970737 9.95508,8.084862 10.08864,8.23645575 L9.66888,8.66408075 C9.56232,8.56851825 9.4518,8.49495575 9.33696,8.4444245 C9.22212,8.3935495 9.09252,8.368112 8.94852,8.368112 C8.82324,8.368112 8.70624,8.39045575 8.59788,8.435487 C8.48916,8.4801745 8.3952,8.54308075 8.316,8.62351825 C8.23644,8.7042995 8.17416,8.801237 8.12952,8.91364325 C8.08452,9.026737 8.0622,9.15083075 8.0622,9.28626825 C8.0622,9.42170575 8.08452,9.54614325 8.12952,9.6585495 C8.17416,9.7712995 8.23644,9.86789325 8.316,9.9486745 C8.3952,10.0294558 8.48916,10.0920183 8.59788,10.1370495 C8.70624,10.1820808 8.82324,10.2044245 8.94852,10.2044245 C9.09252,10.2044245 9.22716,10.1758933 9.35244,10.1191745 C9.47772,10.0624558 9.5886,9.99095575 9.68436,9.905362 L10.08864,10.3360808 C9.95076,10.4873307 9.78588,10.6014557 9.59364,10.6784557 C9.40176,10.755112 9.19296,10.793612 8.96724,10.793612 C8.72928,10.793612 8.51292,10.755112 8.31888,10.6784557 C8.12484,10.6014557 7.95888,10.4959245 7.821,10.3615182 C7.68312,10.2267683 7.57656,10.0679557 7.50132,9.88439325 C7.42644,9.70083075 7.38864,9.50145575 7.38864,9.28626825 C7.38864,9.070737 7.42644,8.871362 7.50132,8.6877995 C7.57656,8.50458075 7.68312,8.3454245 7.821,8.21101825 C7.95888,8.076612 8.12484,7.970737 8.31888,7.89408075 C8.51292,7.81708075 8.72928,7.7789245 8.96724,7.7789245 L8.96724,7.7789245 Z M5.48748,8.335112 C5.37048,8.335112 5.2668,8.35195575 5.17572,8.385987 C5.085,8.42001825 5.00652,8.46814325 4.941,8.5310495 C4.87512,8.593612 4.82148,8.6685495 4.77972,8.75551825 C4.73796,8.8417995 4.7088,8.937362 4.69188,9.04083075 L6.24852,9.04083075 C6.21324,8.817737 6.12972,8.64414325 5.99796,8.520737 C5.86656,8.396987 5.69628,8.335112 5.48748,8.335112 L5.48748,8.335112 Z M5.50008,7.7789245 C5.70888,7.7789245 5.9004,7.815362 6.075,7.88789325 C6.24924,7.96076825 6.39828,8.0635495 6.52284,8.19589325 C6.64704,8.32858075 6.74388,8.4870495 6.81408,8.67164325 C6.88392,8.85589325 6.91884,9.06008075 6.91884,9.2831745 C6.91884,9.3230495 6.91776,9.3629245 6.91596,9.4027995 C6.9138,9.4426745 6.91056,9.480487 6.90624,9.51658075 L4.68864,9.51658075 C4.70952,9.6461745 4.7484,9.756862 4.80456,9.8482995 C4.86108,9.9404245 4.92912,10.015362 5.00832,10.074487 C5.08752,10.1332683 5.17644,10.1765807 5.27472,10.2044245 C5.37264,10.2322683 5.47488,10.2460183 5.58144,10.2460183 C5.73192,10.2460183 5.88276,10.2198933 6.03396,10.1669557 C6.18552,10.114362 6.32376,10.0397682 6.44904,9.94420575 L6.77484,10.3897058 C6.59124,10.539237 6.39648,10.6440808 6.19092,10.7038933 C5.985,10.7637057 5.76828,10.793612 5.54076,10.793612 C5.3154,10.793612 5.1084,10.7575183 4.92048,10.6860183 C4.73256,10.6141745 4.57092,10.5124245 4.4352,10.3807683 C4.29948,10.249112 4.194,10.0906432 4.11876,9.905362 C4.04352,9.719737 4.00608,9.513487 4.00608,9.28626825 C4.00608,9.06283075 4.04244,8.8582995 4.11552,8.67301825 C4.1886,8.487737 4.2912,8.32858075 4.4226,8.19589325 C4.554,8.0635495 4.71132,7.96076825 4.89384,7.88789325 C5.07672,7.815362 5.27868,7.7789245 5.50008,7.7789245 L5.50008,7.7789245 Z M3.1104,7.45889325 C2.92248,7.345112 2.72592,7.257112 2.52144,7.19420575 C2.31696,7.1312995 2.10276,7.10001825 1.8792,7.10001825 C1.73304,7.10001825 1.59948,7.11445575 1.47852,7.14333075 C1.3572,7.17220575 1.25352,7.21414325 1.16676,7.2687995 C1.08,7.3237995 1.01268,7.38945575 0.9648,7.466112 C0.91656,7.543112 0.8928,7.62939325 0.8928,7.72495575 C0.8928,7.812612 0.91368,7.8875495 0.95544,7.9494245 C0.9972,8.0112995 1.05732,8.0635495 1.13544,8.1061745 C1.21356,8.14914325 1.30932,8.1845495 1.422,8.21239325 C1.53468,8.24058075 1.66212,8.2642995 1.80432,8.284237 L2.1078,8.32308075 C2.28528,8.34714325 2.4588,8.3839245 2.628,8.43376825 C2.7972,8.483612 2.94804,8.55339325 3.08052,8.643112 C3.213,8.73283075 3.31956,8.84558075 3.39984,8.98101825 C3.48048,9.11645575 3.52044,9.28145575 3.52044,9.47464325 C3.52044,9.68776825 3.47364,9.876487 3.37968,10.0397683 C3.28572,10.2033933 3.15828,10.3408933 2.99772,10.452612 C2.8368,10.5643308 2.65032,10.649237 2.43864,10.7066433 C2.2266,10.764737 2.0016,10.793612 1.76328,10.793612 C1.61496,10.793612 1.46124,10.7815808 1.3014,10.7575183 C1.14156,10.7337995 0.98388,10.6983933 0.82836,10.6516433 C0.67284,10.6045495 0.52416,10.546112 0.38196,10.4766745 C0.24012,10.4068933 0.11268,10.3250808 0,10.231237 L0.3852,9.6929245 C0.46044,9.75858075 0.5508,9.81976825 0.65628,9.87545575 C0.76176,9.93114325 0.8748,9.97995575 0.99612,10.0218933 C1.11708,10.0638308 1.24308,10.0961433 1.3734,10.1191745 C1.50372,10.1422058 1.63296,10.1535495 1.7604,10.1535495 C1.9044,10.1535495 2.03868,10.1397995 2.16288,10.111612 C2.28708,10.0837683 2.39508,10.042862 2.48688,9.98889325 C2.57868,9.93526825 2.6514,9.86995575 2.70468,9.7932995 C2.75796,9.7162995 2.7846,9.630362 2.7846,9.53445575 C2.7846,9.37083075 2.70036,9.24639325 2.5326,9.16045575 C2.36412,9.074862 2.11932,9.0109245 1.79784,8.968987 L1.45656,8.9242995 C1.29348,8.9022995 1.13436,8.8665495 0.97884,8.81670575 C0.82332,8.766862 0.68436,8.696737 0.56232,8.60564325 C0.43992,8.51489325 0.342,8.40145575 0.26784,8.264987 C0.19368,8.12851825 0.1566,7.962487 0.1566,7.76689325 C0.1566,7.5575495 0.20196,7.37158075 0.29304,7.208987 C0.38376,7.04639325 0.50724,6.9099245 0.6642,6.79958075 C0.82044,6.6885495 1.00404,6.60433075 1.21356,6.54658075 C1.42344,6.48883075 1.64736,6.45995575 1.88568,6.45995575 C2.205,6.45995575 2.49372,6.5001745 2.75148,6.58095575 C3.0096,6.661737 3.249,6.771737 3.4704,6.9112995 L3.1104,7.45889325 Z" id="Fill-1" fill="#F89E1B"></path>
            </g>
        </g>
    </g>
</svg>