<svg xmlns="http://www.w3.org/2000/svg" width="28" height="18" viewBox="0 0 28 18"><path fill="#F1F5F7" d="M-464-644.975h1107v1785.975h-1107z"/><g><path fill="#fff" d="M28 16.006c0 1.101-.893 1.994-1.994 1.994h-24.012c-1.101 0-1.994-.893-1.994-1.994v-14.012c0-1.101.893-1.994 1.994-1.994h24.011c1.102 0 1.995.893 1.995 1.994v14.012z"/><path opacity=".25" fill="#A7A9AC" d="M26.006 0h-24.012c-1.101 0-1.994.893-1.994 1.994v14.011c0 1.102.893 1.995 1.994 1.995h24.011c1.102 0 1.995-.893 1.995-1.994v-14.012c0-1.101-.893-1.994-1.994-1.994zm.994 15.116c0 1.041-.843 1.884-1.884 1.884h-22.232c-1.041 0-1.884-.843-1.884-1.884v-12.232c0-1.041.843-1.884 1.884-1.884h22.233c1.04 0 1.883.843 1.883 1.884v12.232z"/><circle fill="#FFAA2E" cx="17.75" cy="9" r="5.75"/><circle fill="#CE4549" cx="10.25" cy="9" r="5.75"/><path fill="#f73" d="M12 9c0 1.742.776 3.302 2 4.357 1.224-1.054 2-2.615 2-4.357s-.776-3.302-2-4.357c-1.224 1.055-2 2.615-2 4.357z"/><path fill="#fff" d="M21 9c0 .69-.285 1-.636 1h-12.978c-.351 0-.636-.31-.636-1s.285-1 .636-1h12.978c.351 0 .636.31.636 1z"/></g></svg>