<?xml version="1.0" encoding="UTF-8"?>
<svg width="38px" height="24px" viewBox="0 0 38 24" version="1.1" xmlns="http://www.w3.org/2000/svg" xmlns:xlink="http://www.w3.org/1999/xlink">
    <!-- Generator: Sketch 42 (36781) - http://www.bohemiancoding.com/sketch -->
    <title>Artboard</title>
    <desc>Created with Sketch.</desc>
    <defs></defs>
    <g id="Page-1" stroke="none" stroke-width="1" fill="none" fill-rule="evenodd">
        <g id="Artboard">
            <g id="me_accpt_match_eps">
                <polygon id="Fill-1" fill="#0B2D5A" points="0 23.9657143 38.4493433 23.9657143 38.4493433 0.122857143 0 0.122857143"></polygon>
                <path d="M21.5262537,7.34742857 L21.45,7.21485714 L20.9173881,7.11314286 L21.1839851,6.75542857 L21.1345075,6.66857143 C20.6082985,5.82742857 19.9656716,5.06342857 19.2246716,4.40457143 C17.3567463,2.74171429 14.878791,1.72971429 12.1598507,1.72971429 C6.34710448,1.72971429 1.63567164,6.35542857 1.63567164,12.0622857 C1.63567164,17.7674286 6.34710448,22.3937143 12.1598507,22.3937143 C14.878791,22.3937143 17.3567463,21.3811429 19.2246716,19.7194286 C21.3492985,17.8285714 22.6840299,15.0982857 22.6840299,12.0622857 C22.6840299,10.3634286 22.2660896,8.76 21.5262537,7.34742857" id="Fill-3" fill="#D82331"></path>
                <path d="M26.2894925,1.72971429 C23.5699701,1.72971429 21.0920149,2.74171429 19.2246716,4.40457143 C19.9656716,5.06342857 20.6082985,5.82742857 21.1345075,6.66857143 L21.1839851,6.75542857 L20.9173881,7.11314286 L21.45,7.21485714 L21.5262537,7.34742857 C22.2660896,8.76 22.6840299,10.3634286 22.6840299,12.0622857 C22.6840299,15.0982857 21.3492985,17.8285714 19.2246716,19.7194286 C21.0920149,21.3811429 23.5699701,22.3937143 26.2894925,22.3937143 C32.1016567,22.3937143 36.8142537,17.7674286 36.8142537,12.0622857 C36.8142537,6.35542857 32.1016567,1.72971429 26.2894925,1.72971429" id="Fill-4" fill="#F1AB3D"></path>
                <polyline id="Fill-5" fill="#0B2D5A" points="7.99558209 11.0188571 9.29422388 11.0188571 8.28080597 16.2577143 6.98391045 16.2577143 7.99558209 11.0188571"></polyline>
                <polyline id="Fill-6" fill="#0B2D5A" points="4.10140299 11.0188571 7.46995522 11.0188571 7.27670149 12.0102857 5.2038806 12.0102857 4.99607463 13.0914286 6.99380597 13.0914286 6.80986567 14.0817143 4.80514925 14.0817143 4.57697015 15.2674286 6.64862687 15.2674286 6.45770149 16.2577143 3.08914925 16.2577143 4.10140299 11.0188571"></polyline>
                <path d="M11.7634478,13.6297143 C11.7704328,13.5388571 11.7739254,13.4691429 11.7739254,13.4131429 C11.7739254,13.0645714 11.5585522,12.86 11.1924179,12.86 C10.8012537,12.86 10.5218507,13.1337143 10.4077612,13.6297143 L11.7634478,13.6297143 Z M12.4136418,16.1857143 C11.992209,16.3034286 11.5899851,16.3605714 11.1586567,16.3605714 C9.78376119,16.3594286 9.06779104,15.7005714 9.06779104,14.4371429 C9.06779104,12.9634286 9.97934328,11.8782857 11.2162836,11.8782857 C12.2291194,11.8782857 12.8944478,12.4862857 12.8944478,13.4388571 C12.8944478,13.7548571 12.8496269,14.0634286 12.7431045,14.4988571 L10.2797015,14.4988571 C10.2703881,14.5645714 10.2674776,14.5942857 10.2674776,14.6337143 C10.2674776,15.1314286 10.6324478,15.3857143 11.3460896,15.3857143 C11.7855672,15.3857143 12.1825522,15.3011429 12.623194,15.1137143 L12.4136418,16.1857143 L12.4136418,16.1857143 Z" id="Fill-7" fill="#0B2D5A"></path>
                <path d="M26.1864627,13.7937143 C26.1864627,12.716 25.5147313,11.8765714 24.251597,11.8765714 C22.7940448,11.8765714 21.8516418,12.8965714 21.8516418,14.4022857 C21.8516418,15.48 22.4087015,16.3605714 23.7870896,16.3605714 C25.1794478,16.3605714 26.1864627,15.5794286 26.1864627,13.7937143 Z M24.8587164,13.7771429 C24.8587164,14.7474286 24.479194,15.3234286 23.8796418,15.3234286 C23.4442388,15.3325714 23.1799701,14.9445714 23.1799701,14.3697143 C23.1799701,13.6857143 23.5647313,12.9137143 24.1869851,12.9137143 C24.687,12.9137143 24.8587164,13.3325714 24.8587164,13.7771429 L24.8587164,13.7771429 Z" id="Fill-8" fill="#0B2D5A"></path>
                <path d="M26.7068507,13.0971429 C26.7755373,12.7274286 26.8354925,12.3668571 26.8750746,11.98 L28.08,11.98 L27.9723134,12.6782857 L27.9868657,12.6782857 C28.3628955,12.2022857 28.7505672,11.8822857 29.4281194,11.8822857 C30.1766866,11.8822857 30.576,12.5342857 30.5678507,13.3708571 C30.5649403,13.6577143 30.530597,13.864 30.4502687,14.2617143 L30.0672537,16.2577143 L28.7703582,16.2577143 L29.152791,14.2542857 C29.1952836,14.0331429 29.237194,13.828 29.2389403,13.6068571 C29.2418507,13.3514286 29.1021493,13.0971429 28.7459104,13.1137143 C28.203403,13.1137143 27.8774328,13.6548571 27.7784776,14.2874286 L27.3948806,16.2577143 L26.097403,16.2577143 L26.7068507,13.0971429" id="Fill-9" fill="#0B2D5A"></path>
                <polyline id="Fill-10" fill="#0B2D5A" points="31.375791 11.98 32.6726866 11.98 31.8496119 16.2577143 30.5527164 16.2577143 31.375791 11.98"></polyline>
                <path d="M15.9527463,16.1942857 C15.6954627,16.2931429 15.3526119,16.3582857 14.8531791,16.3582857 C13.7675821,16.3582857 13.0964328,15.4777143 13.0964328,14.4005714 C13.0964328,12.9925714 14.0673582,11.8748571 15.4963881,11.8748571 C15.8101343,11.8748571 16.2886119,11.9817143 16.6669701,12.1622857 L16.4347164,13.2097143 C16.1745224,13.0508571 15.8456418,12.9605714 15.5598358,12.9605714 C14.8956716,12.9605714 14.4241791,13.4548571 14.4241791,14.3434286 C14.4241791,14.8531429 14.7670299,15.2725714 15.3101194,15.2725714 C15.6308507,15.2725714 15.8596119,15.2148571 16.1390149,15.0834286 L15.9527463,16.1942857" id="Fill-11" fill="#0B2D5A"></path>
                <path d="M35.470209,16.1942857 C35.2140896,16.2931429 34.8706567,16.3582857 34.3706418,16.3582857 C33.2856269,16.3582857 32.6144776,15.4777143 32.6144776,14.4005714 C32.6144776,12.9925714 33.5848209,11.8748571 35.0138507,11.8748571 C35.327597,11.8748571 35.8060746,11.9817143 36.1850149,12.1622857 L35.9527612,13.2097143 C35.6925672,13.0508571 35.3636866,12.9605714 35.0778806,12.9605714 C34.4142985,12.9605714 33.9422239,13.4548571 33.9422239,14.3434286 C33.9422239,14.8531429 34.2850746,15.2725714 34.8275821,15.2725714 C35.1494776,15.2725714 35.3776567,15.2148571 35.6570597,15.0834286 L35.470209,16.1942857" id="Fill-12" fill="#0B2D5A"></path>
                <path d="M19.6565821,11.98 C19.4906866,13.3028571 19.1984776,14.644 18.9697164,15.9697143 L18.915,16.2577143 L20.2276119,16.2577143 C20.7002687,13.6982857 20.8591791,12.9685714 21.8510597,13.2257143 L22.327209,12.0142857 C21.6362687,11.7651429 21.1909701,12.1211429 20.7881642,12.6274286 C20.8248358,12.3994286 20.8929403,12.1794286 20.8766418,11.98 L19.6565821,11.98" id="Fill-13" fill="#0B2D5A"></path>
                <path d="M18.6868209,15.304 C18.1472239,15.3805714 17.9004179,15.2325714 17.9004179,14.9445714 C17.9004179,14.7394286 17.9504776,14.5262857 18.0075224,14.2051429 L18.2281343,13.0148571 L18.9074328,13.0148571 L19.1065075,11.98 L18.4347761,11.98 L18.6286119,10.9571429 L17.3311343,10.9571429 L16.7077164,14.2137143 C16.6221493,14.6657143 16.5936269,14.8794286 16.5936269,15.0925714 C16.5936269,15.988 17.1378806,16.3571429 17.7933134,16.3571429 C18.0203284,16.3571429 18.258403,16.3285714 18.4976418,16.2897143 L18.6868209,15.304" id="Fill-14" fill="#0B2D5A"></path>
                <path d="M13.0364776,10.0011429 L12.3269104,10.0011429 L12.343209,9.67028571 C12.1260896,9.932 11.8373731,10.0571429 11.4450448,10.0571429 C10.9811194,10.0571429 10.6621343,9.70114286 10.6621343,9.18342857 C10.6621343,8.40571429 11.2162836,7.95257143 12.1662537,7.95257143 C12.2640448,7.95257143 12.3880299,7.96114286 12.5155075,7.97657143 C12.5422836,7.87085714 12.5492687,7.82628571 12.5492687,7.76971429 C12.5492687,7.55828571 12.3996716,7.47828571 12.0003582,7.47828571 C11.5806716,7.47428571 11.2349104,7.57771429 11.0934627,7.62285714 C11.102194,7.56971429 11.2116269,6.904 11.2116269,6.904 C11.6388806,6.78114286 11.9200299,6.73485714 12.2366866,6.73485714 C12.9730299,6.73485714 13.3624478,7.05942857 13.3618657,7.672 C13.3630299,7.83657143 13.3350896,8.03771429 13.2920149,8.30514286 C13.2175075,8.76685714 13.058597,9.76 13.0364776,10.0011429 Z M12.4130597,8.57771429 C12.3234179,8.568 12.2844179,8.56457143 12.2221343,8.56457143 C11.7366716,8.56457143 11.4910299,8.72685714 11.4910299,9.05142857 C11.4910299,9.25028571 11.6109403,9.37657143 11.797791,9.37657143 C12.1470448,9.37657143 12.3985075,9.05085714 12.4130597,8.57771429 L12.4130597,8.57771429 Z" id="Fill-15" fill="#0B2D5A"></path>
                <polyline id="Fill-16" fill="#0B2D5A" points="10.3047313 10.0011429 9.44731343 10.0011429 9.93859701 6.98114286 8.84252239 10.0011429 8.25868657 10.0011429 8.18650746 6.99771429 7.67019403 10.0011429 6.86923881 10.0011429 7.53864179 6.07257143 8.77034328 6.07257143 8.84543284 8.272 9.59632836 6.07257143 10.9665672 6.07257143 10.3047313 10.0011429"></polyline>
                <path d="M26.5316418,10.0011429 L25.8214925,10.0011429 L25.837791,9.67028571 C25.6212537,9.932 25.3325373,10.0571429 24.940209,10.0571429 C24.4757015,10.0571429 24.1578806,9.70114286 24.1578806,9.18342857 C24.1578806,8.40571429 24.7114478,7.95257143 25.6614179,7.95257143 C25.7586269,7.95257143 25.8826119,7.96114286 26.0106716,7.97657143 C26.0374478,7.87085714 26.0438507,7.82628571 26.0438507,7.76971429 C26.0438507,7.55828571 25.8948358,7.47828571 25.4949403,7.47828571 C25.0764179,7.47428571 24.7294925,7.57771429 24.5874627,7.62285714 C24.5973582,7.56971429 24.7079552,6.904 24.7079552,6.904 C25.1334627,6.78114286 25.4157761,6.73485714 25.7318507,6.73485714 C26.468194,6.73485714 26.8570299,7.05942857 26.8570299,7.672 C26.858194,7.83657143 26.8308358,8.03771429 26.7871791,8.30514286 C26.7132537,8.76685714 26.5531791,9.76 26.5316418,10.0011429 Z M25.9076418,8.57771429 C25.818,8.568 25.779,8.56457143 25.7172985,8.56457143 C25.2312537,8.56457143 24.986194,8.72685714 24.986194,9.05142857 C24.986194,9.25028571 25.1055224,9.37657143 25.2935373,9.37657143 C25.6416269,9.37657143 25.8930896,9.05085714 25.9076418,8.57771429 L25.9076418,8.57771429 Z" id="Fill-17" fill="#0B2D5A"></path>
                <path d="M16.8433433,9.95257143 C16.6093433,10.0251429 16.4259851,10.0571429 16.2280746,10.0571429 C15.7897612,10.0571429 15.5511045,9.80914286 15.5511045,9.35485714 C15.5452836,9.21314286 15.6139701,8.84228571 15.6686866,8.50342857 C15.7181642,8.204 16.0400597,6.32228571 16.0400597,6.32228571 L16.8916567,6.32228571 L16.7927015,6.80628571 L17.3061045,6.80628571 L17.1902687,7.57428571 L16.6739552,7.57428571 C16.5755821,8.18114286 16.4335522,8.93885714 16.4323881,9.03885714 C16.4323881,9.20342857 16.5226119,9.27485714 16.7263433,9.27485714 C16.8235522,9.27485714 16.8992239,9.26628571 16.9568507,9.24514286 L16.8433433,9.95257143" id="Fill-18" fill="#0B2D5A"></path>
                <path d="M18.9755373,8.03257143 C18.9807761,7.96571429 19.0657612,7.46228571 18.5791343,7.46228571 C18.3084627,7.46228571 18.1146269,7.66514286 18.0354627,8.03257143 L18.9755373,8.03257143 Z M19.4540149,9.92742857 C19.1612239,10.0142857 18.8800746,10.0582857 18.5808806,10.0571429 C17.6274179,10.056 17.1303134,9.56685714 17.1303134,8.63085714 C17.1303134,7.53885714 17.7630448,6.73485714 18.6204627,6.73485714 C19.3224627,6.73485714 19.7706716,7.18457143 19.7706716,7.89085714 C19.7706716,8.12571429 19.7409851,8.35371429 19.6664776,8.67714286 L17.9702687,8.67714286 C17.9132239,9.14 18.2153284,9.33314286 18.7106866,9.33314286 C19.0151194,9.33314286 19.2904478,9.27142857 19.5960448,9.13257143 L19.4540149,9.92742857 L19.4540149,9.92742857 Z" id="Fill-19" fill="#0B2D5A"></path>
                <path d="M13.5504627,7.81714286 C13.5504627,8.22 13.7501194,8.49885714 14.202403,8.708 C14.5493284,8.86914286 14.6034627,8.91657143 14.6034627,9.06057143 C14.6034627,9.25942857 14.4503731,9.35028571 14.1110149,9.35028571 C13.8554776,9.35028571 13.6179851,9.31142857 13.3438209,9.22457143 C13.3438209,9.22457143 13.2314776,9.92857143 13.2262388,9.96228571 C13.4212388,10.0028571 13.5941194,10.0411429 14.1174179,10.0571429 C15.021403,10.0571429 15.4387612,9.71828571 15.4387612,8.988 C15.4387612,8.54971429 15.2641343,8.29142857 14.8351343,8.09771429 C14.4759851,7.936 14.4346567,7.9 14.4346567,7.75028571 C14.4346567,7.57885714 14.5772687,7.48914286 14.8537612,7.48914286 C15.021403,7.48914286 15.2519104,7.50742857 15.4690299,7.53771429 L15.5918507,6.79714286 C15.3689104,6.76171429 15.0330448,6.73485714 14.8368806,6.73485714 C13.8787612,6.73485714 13.5475522,7.22628571 13.5504627,7.81714286" id="Fill-20" fill="#0B2D5A"></path>
                <path d="M23.621194,6.82 C23.8581045,6.82 24.0810448,6.88 24.3860597,7.03142857 L24.5263433,6.17885714 C24.4006119,6.13028571 23.958806,5.84571429 23.5845224,5.84571429 C23.0117463,5.84571429 22.5268657,6.12514286 22.1857612,6.58628571 C21.6880746,6.424 21.4837612,6.75085714 21.2334627,7.07657143 L21.0111045,7.12742857 C21.027403,7.02 21.0425373,6.91428571 21.0378806,6.80628571 L20.2508955,6.80628571 C20.143791,7.796 19.9534478,8.79714286 19.8044328,9.78571429 L19.7654328,10.0011429 L20.6228507,10.0011429 C20.7648806,9.08857143 20.8440448,8.50457143 20.8917761,8.10914286 L21.2136716,7.93371429 C21.2625672,7.75714286 21.4133284,7.69771429 21.7160149,7.70514286 C21.6758507,7.91428571 21.6543134,8.13314286 21.6543134,8.36 C21.6543134,9.40571429 22.23,10.0571429 23.1520299,10.0571429 C23.3895224,10.0571429 23.5938358,10.0257143 23.9099104,9.94114286 L24.0595075,9.04685714 C23.7754478,9.18285714 23.5437761,9.24742857 23.3318955,9.24742857 C22.8336269,9.24742857 22.5326866,8.88742857 22.5326866,8.29028571 C22.5326866,7.42514286 22.9808955,6.82 23.621194,6.82" id="Fill-21" fill="#0B2D5A"></path>
                <path d="M29.8012388,9.26285714 C29.5107761,9.26285714 29.3623433,9.05142857 29.3623433,8.63314286 C29.3623433,8.00514286 29.6382537,7.56 30.0270896,7.56 C30.3216269,7.56 30.4811194,7.77942857 30.4811194,8.18571429 C30.4811194,8.82 30.2005522,9.26285714 29.8012388,9.26285714 Z M30.8734478,6.07257143 L30.6825224,7.20685714 C30.4491045,6.90514286 30.1976418,6.68571429 29.8646866,6.68571429 C29.4327761,6.68571429 29.0398657,7.00742857 28.782,7.48114286 C28.4222687,7.408 28.0520597,7.28457143 28.0520597,7.28457143 L28.0520597,7.288 C28.0805821,7.02228571 28.092806,6.86114286 28.0898955,6.80628571 L27.3034925,6.80628571 C27.1963881,7.796 27.0048806,8.79714286 26.8570299,9.78571429 L26.8174478,10.0011429 L27.6742836,10.0011429 C27.7895373,9.264 27.8780149,8.65142857 27.943791,8.16571429 C28.2365821,7.90514286 28.3832687,7.67885714 28.6789701,7.69428571 C28.548,8.00514286 28.4717463,8.36285714 28.4717463,8.72971429 C28.4717463,9.52914286 28.8827015,10.0571429 29.5055373,10.0571429 C29.8198657,10.0571429 30.0602687,9.95028571 30.2954328,9.704 L30.2552687,10.0005714 L31.0655373,10.0005714 L31.7186418,6.07257143 L30.8734478,6.07257143 L30.8734478,6.07257143 Z" id="Fill-22" fill="#0B2D5A"></path>
                <polyline id="Fill-23" fill="#FFFFFF" points="10.5503731 9.76857143 9.69353731 9.76857143 10.185403 6.74857143 9.08932836 9.76857143 8.50491045 9.76857143 8.43273134 6.76514286 7.917 9.76857143 7.11546269 9.76857143 7.78544776 5.84 9.01656716 5.84 9.05149254 8.272 9.88271642 5.84 11.2133731 5.84 10.5503731 9.76857143"></polyline>
                <path d="M13.2832836,9.76857143 L12.5731343,9.76857143 L12.5894328,9.43714286 C12.3734776,9.69942857 12.0841791,9.82342857 11.6918507,9.82342857 C11.2273433,9.82342857 10.9095224,9.46685714 10.9095224,8.95028571 C10.9095224,8.17257143 11.4630896,7.71885714 12.4130597,7.71885714 C12.5102687,7.71885714 12.6348358,7.72742857 12.7623134,7.74342857 C12.7890896,7.63885714 12.7960746,7.59371429 12.7960746,7.536 C12.7960746,7.32457143 12.6470597,7.24628571 12.2465821,7.24628571 C11.8268955,7.24114286 11.4817164,7.344 11.3396866,7.38971429 C11.3484179,7.336 11.4584328,6.67085714 11.4584328,6.67085714 C11.8851045,6.54857143 12.1668358,6.50171429 12.4840746,6.50171429 C13.2186716,6.50171429 13.6086716,6.82571429 13.6080896,7.43885714 C13.6092537,7.60342857 13.5818955,7.80571429 13.5388209,8.072 C13.4643134,8.53371429 13.3048209,9.52685714 13.2832836,9.76857143 Z M12.6598657,8.34571429 C12.5702239,8.33485714 12.5306418,8.332 12.4689403,8.332 C11.9834776,8.332 11.7378358,8.49485714 11.7378358,8.81828571 C11.7378358,9.016 11.8577463,9.14342857 12.044597,9.14342857 C12.3932687,9.14342857 12.6453134,8.81828571 12.6598657,8.34571429 L12.6598657,8.34571429 Z" id="Fill-24" fill="#FFFFFF"></path>
                <path d="M24.7725672,5.94457143 L24.6317015,6.79771429 C24.3266866,6.64685714 24.1049104,6.58628571 23.8668358,6.58628571 C23.2277015,6.58628571 22.7789104,7.19314286 22.7789104,8.05885714 C22.7789104,8.65485714 23.0804328,9.01371429 23.5787015,9.01371429 C23.79,9.01371429 24.0222537,8.95028571 24.3063134,8.81371429 L24.1555522,9.70857143 C23.8400597,9.792 23.6357463,9.82342857 23.3988358,9.82342857 C22.476806,9.82342857 21.9017015,9.17257143 21.9017015,8.12742857 C21.9017015,6.72285714 22.6956716,5.74057143 23.8307463,5.74057143 C24.2056119,5.74057143 24.6468358,5.89657143 24.7725672,5.94457143" id="Fill-25" fill="#FFFFFF"></path>
                <path d="M26.7784478,9.76857143 L26.0688806,9.76857143 L26.084597,9.43714286 C25.8680597,9.69942857 25.5793433,9.82342857 25.1864328,9.82342857 C24.7225075,9.82342857 24.4041045,9.46685714 24.4041045,8.95028571 C24.4041045,8.17257143 24.9576716,7.71885714 25.9076418,7.71885714 C26.0054328,7.71885714 26.1294179,7.72742857 26.2563134,7.74342857 C26.2830896,7.63885714 26.2906567,7.59371429 26.2906567,7.536 C26.2906567,7.32457143 26.1416418,7.24628571 25.7417463,7.24628571 C25.3226418,7.24114286 24.9774627,7.344 24.8342687,7.38971429 C24.8435821,7.336 24.9541791,6.67085714 24.9541791,6.67085714 C25.3802687,6.54857143 25.6614179,6.50171429 25.9786567,6.50171429 C26.7138358,6.50171429 27.1038358,6.82571429 27.1026716,7.43885714 C27.105,7.60342857 27.0770597,7.80571429 27.033403,8.072 C26.9600597,8.53371429 26.7999851,9.52685714 26.7784478,9.76857143 Z M26.1544478,8.34571429 C26.0653881,8.33485714 26.0252239,8.332 25.9641045,8.332 C25.4786418,8.332 25.233,8.49485714 25.233,8.81828571 C25.233,9.016 25.3523284,9.14342857 25.5391791,9.14342857 C25.8884328,9.14342857 26.1404776,8.81828571 26.1544478,8.34571429 L26.1544478,8.34571429 Z" id="Fill-26" fill="#FFFFFF"></path>
                <path d="M17.0901493,9.71942857 C16.8561493,9.792 16.672791,9.82342857 16.4748806,9.82342857 C16.0371493,9.82342857 15.7979104,9.57714286 15.7979104,9.12171429 C15.7920896,8.98057143 15.8607761,8.60914286 15.9149104,8.27028571 C15.9649701,7.97142857 16.2862836,6.08914286 16.2862836,6.08914286 L17.1378806,6.08914286 L17.0389254,6.57371429 L17.4760746,6.57371429 L17.3596567,7.34114286 L16.9207612,7.34114286 C16.821806,7.94914286 16.6809403,8.70571429 16.679194,8.80571429 C16.679194,8.97085714 16.7694179,9.04342857 16.9731493,9.04342857 C17.0703582,9.04342857 17.1460299,9.03371429 17.2036567,9.01257143 L17.0901493,9.71942857" id="Fill-27" fill="#FFFFFF"></path>
                <path d="M19.2229254,7.8 C19.227,7.73257143 19.3131493,7.22914286 18.8259403,7.22914286 C18.5552687,7.22914286 18.3608507,7.43314286 18.2822687,7.8 L19.2229254,7.8 Z M19.701403,9.69485714 C19.4086119,9.78171429 19.1257164,9.824 18.8276866,9.82342857 C17.8736418,9.82285714 17.3777015,9.33428571 17.3777015,8.39771429 C17.3777015,7.30571429 18.0092687,6.50171429 18.8672687,6.50171429 C19.5698507,6.50171429 20.0174776,6.95142857 20.0174776,7.65828571 C20.0174776,7.89314286 19.9866269,8.12171429 19.9127015,8.44342857 L18.2170746,8.44342857 C18.1600299,8.908 18.4621343,9.10114286 18.9569104,9.10114286 C19.2619254,9.10114286 19.5366716,9.03885714 19.8428507,8.89885714 L19.701403,9.69485714 L19.701403,9.69485714 Z" id="Fill-28" fill="#FFFFFF"></path>
                <path d="M13.7966866,7.58342857 C13.7966866,7.988 13.9963433,8.26571429 14.449209,8.47485714 C14.7961343,8.63542857 14.8496866,8.68285714 14.8496866,8.828 C14.8496866,9.02742857 14.696597,9.11714286 14.3578209,9.11714286 C14.1022836,9.11714286 13.864209,9.07828571 13.5906269,8.99142857 C13.5906269,8.99142857 13.4771194,9.696 13.4724627,9.72857143 C13.6668806,9.77085714 13.8409254,9.80857143 14.3636418,9.82342857 C15.2676269,9.82342857 15.6855672,9.48628571 15.6855672,8.75542857 C15.6855672,8.31714286 15.5109403,8.05942857 15.0813582,7.86571429 C14.722209,7.70342857 14.6814627,7.66742857 14.6814627,7.51771429 C14.6814627,7.34514286 14.8234925,7.25657143 15.0999851,7.25657143 C15.268209,7.25657143 15.4981343,7.27428571 15.7158358,7.30457143 L15.8380746,6.56457143 C15.6162985,6.53028571 15.2798507,6.50171429 15.0836866,6.50171429 C14.1255672,6.50171429 13.7937761,6.99257143 13.7966866,7.58342857" id="Fill-29" fill="#FFFFFF"></path>
                <path d="M30.0480448,9.03028571 C30.4479403,9.03028571 30.7279254,8.58571429 30.7279254,7.95314286 C30.7279254,7.548 30.5678507,7.32685714 30.2738955,7.32685714 C29.8850597,7.32685714 29.6091493,7.772 29.6091493,8.40057143 C29.6091493,8.81942857 29.757,9.03028571 30.0480448,9.03028571 Z M31.3123433,9.76857143 L30.5014925,9.76857143 L30.5422388,9.47028571 C30.3064925,9.71714286 30.0660896,9.82342857 29.7517612,9.82342857 C29.1295075,9.82342857 28.7179701,9.29714286 28.7179701,8.49828571 C28.7179701,7.43542857 29.3565224,6.53885714 30.1114925,6.53885714 C30.4438657,6.53885714 30.6959104,6.672 30.9293284,6.97485714 L31.1190896,5.84 L31.9654478,5.84 L31.3123433,9.76857143 L31.3123433,9.76857143 Z" id="Fill-30" fill="#FFFFFF"></path>
                <path d="M27.5491343,6.57371429 C27.443194,7.56171429 27.2522687,8.564 27.1026716,9.55428571 L27.0636716,9.76857143 L27.9205075,9.76857143 C28.2272687,7.81428571 28.301194,7.43314286 28.782,7.48057143 C28.8576716,7.08114286 29.0008657,6.72971429 29.106806,6.55485714 C28.7488209,6.48057143 28.548,6.67942857 28.2854776,7.05828571 C28.3064328,6.89371429 28.3436866,6.73542857 28.3367015,6.57371429 L27.5491343,6.57371429" id="Fill-31" fill="#FFFFFF"></path>
                <path d="M20.4982836,6.57371429 C20.3900149,7.56171429 20.2002537,8.564 20.0506567,9.55428571 L20.0116567,9.76857143 L20.8690746,9.76857143 C21.1752537,7.81428571 21.2491791,7.43314286 21.729403,7.48057143 C21.8056567,7.08114286 21.9488507,6.72971429 22.054791,6.55485714 C21.6962239,6.48057143 21.4959851,6.67942857 21.2334627,7.05828571 C21.2544179,6.89371429 21.2922537,6.73542857 21.2846866,6.57371429 L20.4982836,6.57371429" id="Fill-32" fill="#FFFFFF"></path>
                <path d="M31.908403,9.50285714 L31.9375075,9.50285714 C31.9485672,9.50285714 31.960209,9.504 31.9695224,9.49828571 C31.9782537,9.49314286 31.9823284,9.48285714 31.9823284,9.47314286 C31.9823284,9.46457143 31.9776716,9.456 31.9701045,9.45085714 C31.9613731,9.44571429 31.9462388,9.44685714 31.9369254,9.44685714 L31.908403,9.44685714 L31.908403,9.50285714 Z M31.908403,9.62742857 L31.8560149,9.62742857 L31.8560149,9.40857143 L31.9508955,9.40857143 C31.9712687,9.40857143 31.9904776,9.40914286 32.0085224,9.41885714 C32.0265672,9.43028571 32.0364627,9.452 32.0364627,9.47371429 C32.0364627,9.49828571 32.0219104,9.52114286 31.9980448,9.53085714 L32.038791,9.62742857 L31.9811642,9.62742857 L31.947403,9.54057143 L31.908403,9.54057143 L31.908403,9.62742857 Z M31.9421642,9.70857143 C32.0504328,9.70857143 32.1371642,9.62285714 32.1371642,9.51828571 C32.1371642,9.41314286 32.0504328,9.328 31.9421642,9.328 C31.8356418,9.328 31.7489104,9.41314286 31.7489104,9.51828571 C31.7489104,9.62285714 31.8356418,9.70857143 31.9421642,9.70857143 Z M31.6883731,9.51828571 C31.6883731,9.37942857 31.8024627,9.268 31.9421642,9.268 C32.084194,9.268 32.1977015,9.37942857 32.1977015,9.51828571 C32.1977015,9.65542857 32.084194,9.76857143 31.9421642,9.76857143 C31.8024627,9.76857143 31.6883731,9.65542857 31.6883731,9.51828571 L31.6883731,9.51828571 Z" id="Fill-33" fill="#FFFFFF"></path>
                <polyline id="Fill-34" fill="#F1AB3D" points="35.2967463 18.2657143 35.158791 18.2657143 35.158791 18.1925714 35.516194 18.1925714 35.516194 18.2657143 35.3782388 18.2657143 35.3782388 18.6314286 35.2967463 18.6314286 35.2967463 18.2657143"></polyline>
                <polyline id="Fill-35" fill="#F1AB3D" points="35.6215522 18.1925714 35.7490299 18.1925714 35.8666119 18.4885714 35.9812836 18.1925714 36.1087612 18.1925714 36.1087612 18.6314286 36.0266866 18.6314286 36.0266866 18.2954286 36.0243582 18.2954286 35.8980448 18.6314286 35.8316866 18.6314286 35.7053731 18.2954286 35.7036269 18.2954286 35.7036269 18.6314286 35.6215522 18.6314286 35.6215522 18.1925714"></polyline>
            </g>
        </g>
    </g>
</svg>