<?xml version="1.0" encoding="utf-8"?>
<!-- Generator: Adobe Illustrator 16.0.0, SVG Export Plug-In . SVG Version: 6.00 Build 0)  -->
<!DOCTYPE svg PUBLIC "-//W3C//DTD SVG 1.1//EN" "http://www.w3.org/Graphics/SVG/1.1/DTD/svg11.dtd">
<svg version="1.1" xmlns="http://www.w3.org/2000/svg" xmlns:xlink="http://www.w3.org/1999/xlink" x="0px" y="0px" width="40px"
	 height="20px" viewBox="0 0 40 20" enable-background="new 0 0 40 20" xml:space="preserve">
<g id="Layer_3">
	<g>
		<g>
			<path fill-rule="evenodd" clip-rule="evenodd" fill="#FFFFFF" d="M0.25,16.094V3.175c0-0.05,0-0.099,0-0.146
				c0-1.852,0.955-2.779,2.864-2.779h32.859c1.86,0.036,2.79,0.962,2.79,2.779v12.967c0,1.853-0.971,2.778-2.914,2.778H3.114
				C1.241,18.774,0.286,17.881,0.25,16.094z"/>
			
				<path fill-rule="evenodd" clip-rule="evenodd" fill="none" stroke="#CECECE" stroke-linecap="round" stroke-linejoin="round" stroke-miterlimit="3" d="
				M35.973,0.25H3.114c-1.909,0-2.864,0.927-2.864,2.779c0,0.048,0,0.097,0,0.146v12.918v0.731c0,1.949,0.971,2.925,2.914,2.925
				h33.575c2.008,0,3.012-0.976,3.012-2.925V3.175c0-1.95-1.004-2.925-3.012-2.925H35.973z"/>
		</g>
	</g>
</g>
<g id="Layer_1">
	<g>
		<g>
			<path fill-rule="evenodd" clip-rule="evenodd" fill="#F79E1B" d="M20,14.727c0.709-0.566,1.266-1.254,1.669-2.063
				c0.411-0.833,0.616-1.723,0.616-2.669c0-0.938-0.205-1.824-0.616-2.657C21.266,6.528,20.709,5.844,20,5.286
				C21.088,4.429,22.317,4,23.688,4c1.652,0,3.063,0.586,4.232,1.759s1.754,2.584,1.754,4.235c0,1.666-0.585,3.082-1.754,4.247
				C26.76,15.414,25.349,16,23.688,16C22.31,16,21.08,15.575,20,14.727z"/>
			<path fill-rule="evenodd" clip-rule="evenodd" fill="#FF5F00" d="M20,14.727c-0.71-0.566-1.266-1.254-1.669-2.063
				c-0.411-0.841-0.617-1.73-0.617-2.669s0.206-1.824,0.617-2.657C18.734,6.528,19.29,5.844,20,5.286
				c0.709,0.558,1.266,1.242,1.669,2.051c0.411,0.833,0.616,1.719,0.616,2.657c0,0.946-0.205,1.836-0.616,2.669
				C21.266,13.473,20.709,14.16,20,14.727z"/>
			<path fill-rule="evenodd" clip-rule="evenodd" fill="#EB001B" d="M20,5.286c-0.71,0.558-1.266,1.242-1.669,2.051
				c-0.411,0.833-0.617,1.719-0.617,2.657s0.206,1.828,0.617,2.669c0.403,0.81,0.959,1.497,1.669,2.063
				c-0.517,0.404-1.084,0.716-1.706,0.934C17.649,15.887,16.988,16,16.311,16c-1.652,0-3.063-0.586-4.232-1.759
				c-1.169-1.165-1.753-2.581-1.753-4.247c0-1.65,0.584-3.062,1.753-4.235S14.659,4,16.311,4c0.677,0,1.338,0.113,1.983,0.34
				C18.916,4.566,19.483,4.882,20,5.286z"/>
		</g>
	</g>
</g>
</svg>
