<svg xmlns="http://www.w3.org/2000/svg" width="38" height="24" fill="none" aria-labelledby="pi-mayabank" role="img" viewBox="0 0 38 24"><title id="pi-mayabank">Maya Bank</title><path fill="#fff" d="M0 0h38v24H0z"/><path fill="#00B463" d="M10.622 5.36c-.69 0-1.353.271-1.847.754l.256.51-.108.086a2.67 2.67 0 0 0-2.286-1.35C5.18 5.36 4 6.635 4 8.13v3.22a.2.2 0 0 0 .207.207h1.056a.19.19 0 0 0 .195-.194v-3.25c0-.74.444-1.35 1.215-1.35.716 0 1.228.535 1.228 1.33v2.673a.193.193 0 0 0 .193.207h1.01a.195.195 0 0 0 .194-.207V8.081c0-.788.534-1.33 1.252-1.33.765 0 1.19.608 1.19 1.35v3.25a.2.2 0 0 0 .206.194h1.046a.2.2 0 0 0 .194-.126.2.2 0 0 0 .013-.081V8.13c0-1.495-1.13-2.77-2.577-2.77m9.456.121h-.96a.195.195 0 0 0-.207.195v.133l.34.535-.092.092a3.05 3.05 0 0 0-2.277-1.076 3.16 3.16 0 1 0 0 6.318 3.06 3.06 0 0 0 2.29-1.073l.078.065-.34.558v.122a.205.205 0 0 0 .128.192q.038.015.08.014h.96a.196.196 0 0 0 .205-.206V5.676a.188.188 0 0 0-.206-.195zm-3.196 4.836c-1.046 0-1.773-.739-1.773-1.786s.729-1.81 1.773-1.81a1.74 1.74 0 0 1 1.81 1.81c0 1.046-.754 1.786-1.81 1.786m16.905-4.836h-.96a.195.195 0 0 0-.207.195v.133l.341.535-.093.092a3.04 3.04 0 0 0-2.277-1.076 3.16 3.16 0 1 0 0 6.318 3.06 3.06 0 0 0 2.29-1.073l.08.065-.341.558v.122a.2.2 0 0 0 .207.207h.96a.2.2 0 0 0 .207-.207V5.676a.19.19 0 0 0-.128-.185.2.2 0 0 0-.079-.009zm-3.195 4.836c-1.045 0-1.773-.739-1.773-1.786s.73-1.81 1.773-1.81a1.74 1.74 0 0 1 1.81 1.81c.005 1.046-.747 1.786-1.805 1.786zm-3.941-4.836h-.99c-.158 0-.242.086-.242.17v2.965c0 .924-.607 1.568-1.544 1.568-.863 0-1.421-.644-1.421-1.568V5.651c0-.084-.133-.17-.22-.17h-1.05a.183.183 0 0 0-.17.17v2.955c0 1.58 1.239 2.955 2.867 2.955.736 0 1.446-.268 1.999-.754l.055.05-.444.59v.23c0 .61-.911.95-1.445.95h-.335a.205.205 0 0 0-.219.193v.972a.214.214 0 0 0 .219.195h.341c1.625 0 2.82-.949 2.82-2.733V5.65a.2.2 0 0 0-.22-.17zm-9.038 7.534H4.601a.56.56 0 0 0-.561.561v2.242a2.807 2.807 0 0 0 2.807 2.807H17.62a2.81 2.81 0 1 0 0-5.604l-.006-.006z"/><path fill="#fff" d="M7.314 14.535h.845c.564 0 .86.225.86.66a.55.55 0 0 1-.332.555.62.62 0 0 1 .494.656c0 .632-.576.72-.896.72h-.971zm.838 1.089c.277 0 .413-.114.413-.355 0-.24-.14-.354-.413-.354h-.38v.709zm.137 1.111c.296 0 .434-.123.434-.38s-.147-.38-.434-.38h-.517v.76zm2.066-2.2h.571l.976 2.592h-.484l-.21-.574h-1.134l-.21.574h-.483zm.716 1.639-.431-1.182-.429 1.182zm1.132-1.639h.551l1.25 1.967v-1.967h.455v2.592h-.554l-1.246-1.968v1.968h-.458zm3.462 1.451h-.225v1.14h-.458v-2.59h.458v1.051h.217l.887-1.052h.535l-1.035 1.225 1.097 1.367h-.577z"/></svg>