<svg xmlns="http://www.w3.org/2000/svg" width="38" height="24" fill="none" aria-labelledby="pi-maybankm2u" role="img" viewBox="0 0 38 24"><title id="pi-maybankm2u">Maybank 2U</title><path fill="#FFC80B" d="M0 0h38v24H0z"/><path fill="#000" d="M12 17.2c-.3 0-.3.1-.3 1 0 .7 0 .9.4.9.3 0 .5-.3.6-.8 0-.7-.2-1.2-.7-1.1m9.1-.4a1 1 0 0 1 .2-.4c.2-.2.5-.2.8 0l.1.5c0 .3 0 .3-.3.7l-1 1.4-.3-.2a11 11 0 0 0-.4-.5l-.2-.4.4-.5.5-.4zM7 18.5l.2-.2.3-.1.1.4c0 .5 0 .5-.3.5s-.5-.4-.3-.6m7.2 0a.8.8 0 0 1 .3-.2.7.7 0 0 1 .3-.1l.1.3c0 .5 0 .6-.3.6s-.5-.3-.4-.6m15.8-.8c0-.2.2-.4.3-.5.1-.2.3-.2.5 0 .4.5.4 1.6 0 1.8h-.5l-.3-.6z"/><path fill="#000" fill-rule="evenodd" d="M0 12h38v12H0zm12 4.9c-.3.2-.3.1-.3-.6v-.7h-.5v3.6c.5.4 1.3.3 1.7-.1.3-.3.4-.7.4-1.2s-.2-.9-.4-1h-1Zm7.4 1-.1-1.1v-1.2h-.5a23.3 23.3 0 0 0 0 3.8h.4v-.7q0-.9.6 0l.4.5.2.2h2.4v-.5h-.6l-.6-.1.4-.7c.8-.9.8-1 .8-1.4s0-.4-.2-.6a1.1 1.1 0 0 0-.4-.3c-.3 0-.8 0-1 .2-.2 0-.4.5-.4.6s0 .2-.3.2c-.2 0-.2 0-.8.7l-.3.3Zm-15-1H4c-.3-.2-1.3-.1-1.5.1v2.4h.1a.4.4 0 0 0 .3 0H3v-1l.1-1.2a.5.5 0 0 1 .3-.1c.4 0 .5.1.5 1.3 0 1 0 1 .3 1h.2v-2l.2-.2c.1-.1.4-.2.6 0l.1 1.1v1h.5v-2a.7.7 0 0 0-.2-.4H5a3 3 0 0 0-.7 0Zm13.7.6c0-.2 0-.3-.2-.5l-.4-.2-1.2.1c-.2.1-.2.2-.2 1.5v1h.5v-1c0-1.2 0-1.3.4-1.3.2 0 .4 0 .5.2v1l.1 1c0 .1.3.1.4 0 .1 0 .2 0 .1-.8zM34 17h-.2c-.4-.2-.8-.3-1.3-.1-.3 0-.3.2-.3 1.4v1l.2.1a.6.6 0 0 0 .3 0v-2.1l.2-.1c.2-.2.5-.1.6 0l.1 1.2v1h.2a.8.8 0 0 0 .2 0h.2v-1l.1-1.2c.1-.2.4-.2.6 0l.1 1.1v1h.2c.1.1.3 0 .4 0v-2a1 1 0 0 0-.2-.3c-.2-.2-.2-.2-.6-.2l-.7.1zM8.2 18.2c0-.8 0-1.1-.2-1.3l-.6-.1c-.5 0-.8.1-.9.4 0 .2 0 .4.2.4l.2-.3.4-.2c.2 0 .4 0 .4.5 0 .2 0 .2-.5.4-.3 0-.5.2-.7.3-.2.2-.2.3-.2.5 0 .4.2.5.6.6h1c.3-.2.3-.3.3-1.2m1.2-.5A4 4 0 0 0 9 17h-.5l.1.4.1.3a22 22 0 0 0 .6 1.4c.2.5.2.8 0 1-.1.1-.2.2-.5.1l-.3.1c0 .2 0 .3.2.4.4.1.8-.1 1-.6l.4-1.2.4-1v-.2c.3-.5.3-.8.1-.8s-.3.1-.5 1l-.4.8-.3-.9Zm6-.6V17c-.3-.2-.3-.2-.7-.2l-.6.1c-.3.2-.4.4-.3.5.1.3.2.2.5-.2q.3-.3.6 0v.6l-.4.2q-.75.15-.9.6v.5c.3.4 1.4.5 1.8.1l.1-.1v-2Zm8.6.9v-1c0-.1-.1-.2-.3-.2-.3 0-.3 0-.3 1.2l.1 1.1.4.3c.5.2 1.4 0 1.5-.3v-2.2h-.2c-.3-.1-.3 0-.3 1 0 1.1 0 1.2-.4 1.2L24 19l-.1-1Zm4.9-.4c.1-.1 0-.4-.1-.6-.2-.2-.2-.2-.6-.2-.6 0-.7 0-1 .6l-.1.7.1.8c.4.7 1.3.8 1.7 0 .2-.4.1-.5-.2-.2-.2.2-.5.3-.7.2-.5-.3-.6-1.4-.1-1.7.2-.2.4-.1.6.2.1.2.3.3.4.2m2.8.5c0-.5-.2-.8-.5-1.1-.2-.2-.2-.2-.7-.2-.3 0-.4 0-.6.2l-.4.4-.1.7.1.8c.2.3.6.5 1 .6.2 0 .3 0 .5-.2.3-.1.4-.2.5-.5.2-.3.2-.4.2-.7m-5.4 1.3c.2 0 .4-.2.4-.3a.4.4 0 0 0-.1-.2.3.3 0 0 0-.6.2z" clip-rule="evenodd"/><path fill="#000" d="M5.5 3a.8.8 0 0 0-.2.4c0 .2-.1.2-.2 0l-.3.1c0 .2-.2.3-.5.4l-.6.5a3 3 0 0 1-.4.4l-.4.6s1-.7 1-.9a.8.8 0 0 1 .3-.2c.1-.1.1-.1.2 0h.4V4H5a1 1 0 0 1 .3 0l.2-.3v-.3c.2 0 .3 0 .5.4l.1.6c0 .3 0 .4.2.4h.3l.3.1.3.3v.1c.2 0 .1-.5 0-.6v-.3c.1-.1 0-.2-.4-.4a2.5 2.5 0 0 1-.5-.4c-.2-.3-.6-.5-.7-.5h-.1Z"/><path fill="#000" d="M5.7 4.2c-.2-.2-.2-.3 0-.4l.2.1c.2.4 0 .5-.2.3"/><path fill="#000" fill-rule="evenodd" d="M5 4.3c-.2.2-.3.2-.7.3l-.1.2c0 .2 0 .3.2.2s.2 0 0 .2c-.1.2 0 .2.2.2.1 0 .1 0 0 .2-.2.1-.2.1-.4-.1L4 5.3c-.1 0-.2 0 0 .1V6h1a3 3 0 0 0 0-.2v-.1l.2.5c0 .3.1.3.2.1.1-.1.1-.2 0-.4a1.6 1.6 0 0 0 0-.4c-.1 0 0-.6.2-.7s0-.3-.3-.2c-.1.2-.2.2-.2 0l.2-.2c.2-.1.3-.3.1-.4a2.4 2.4 0 0 0-.3.3Zm0 1h-.2s0-.3.2-.4q0-.15 0 0a.6.6 0 0 1 0 .3Z" clip-rule="evenodd"/><path fill="#000" d="M5.8 4.8v-.1l.2.1.1.7v.4c-.2 0-.2 0 0 .3l-.1.7-.1-.1a7 7 0 0 0-.2-.3c-.2-.3-.2-.6 0-1z"/><path fill="#000" fill-rule="evenodd" d="m6.5 5 .1.3.1.2c-.2 0-.2 0 0 .5l-.1.5c-.2 0-.2 0-.2.2v.4c.1.1 0 .2 0 .2l-.3.3-.1.1v-.2c-.1-.3-.3-.5-.5-.5-.3 0-.4.1-.6.5l-.3.4-.3-.3.3-.2L5 7c.3-.2.3-.5.1-.7s-.4-.2-.7-.2L4.1 6h-.3c-.1 0-.1-.1 0-.2.1 0 0-.1 0-.1h-.2v-.1.5a.3.3 0 0 0 0 .2q0 .15 0 0H4l-.5.3c-.3 0-.4-.3-.3-.5.2-.3.1-.4-.2-.4-.4 0-.5.1-.2.4 0 .2.2.4.3.5l.2.2.3.2c.3.2.3.1.3-.1a.3.3 0 0 1 .2-.3c.2-.2.6-.1.4.1a.4.4 0 0 0 0 .2c0 .2-.2.3-.4.3s-.2 0 0 .5c0 .3.2.3.6.4l.3-.2c.1-.4.3-.7.5-.6l.1.2v.3a.3.3 0 0 0-.1.2s0 .1.2 0H6c.1 0 .1.2 0 .4-.2.3 0 .4.4.1.7-.3 1.2-.8 1.5-1.7V5c-.2-.1-.2 0-.2.4 0 .6 0 1.1-.1 1l-.1-.2c0-.5-.1-.6-.2-.6l-.1.9c0 .6-.1 1-.3 1.1l-.2.2.2-1v-.5l.1-.6c.2-.1 0-.3-.2-.6-.2-.2-.2-.2-.3-.1M3 6" clip-rule="evenodd"/><path fill="#000" fill-rule="evenodd" d="M4.3 2.6A3.5 3.5 0 0 0 2 6.7c.2 1.2 1 2 2.2 2.6l1 .2a3 3 0 0 0 2.4-1c.8-.8 1-1.6 1-2.7 0-.7-.1-1-.5-1.6a3.3 3.3 0 0 0-2-1.6H4.4Zm1.9.4c1.2.3 2 1.6 2 3S7.5 8.5 6 9c-.3.1-1.2.1-1.6 0a3 3 0 0 1-1.6-1.2C1.4 6 2.6 3.1 5 2.8c.5 0 .8 0 1.3.2Zm16 2.8V3.6h1c.1 0 .2.3.2.7v.6h1c.4.2.8.5 1 .9.1.3 0 1.2-.1 1.5-.2.3-.5.6-.9.7h-1.8a.5.5 0 0 1-.3 0l-.1-1.8v-.5ZM24 7.2c.5-.3.4-1.3 0-1.5a1.3 1.3 0 0 0-.3 0h-.3v1.6h.6Z" clip-rule="evenodd"/><path fill="#000" d="M32.6 3.6V8h1.1V6.6l.4.4.5.7.2.3H36l-.3-.6-.8-1.1 1-1.2-.1-.3h-1l-.6.6-.4.6V4.9l-.1-1.3h-1Zm-22.4.3a1 1 0 0 0 .1 0h1.2l.2.6.3.8a.8.8 0 0 1 0 .2l.3.7.4-1.1.4-1.2h.7l.7.1a56 56 0 0 1 .5 4h-.5c-.5 0-.6 0-.6-.2a27 27 0 0 0-.3-2.2l-.5 1.2-.2.7-.2.6h-.4c-.3 0-.4 0-.5-.5l-.2-.6a27 27 0 0 1-.4-1.1 8 8 0 0 1 0-.3c-.1-.1-.3 0-.3.3L10.6 8h-.9c0-.1 0-1 .2-1.8v-.5l.3-1.7Z"/><path fill="#000" fill-rule="evenodd" d="M15.8 5c-.4 0-.5.1-.4.4 0 .2.2.3.2.3H17c.2.2 0 .3-.4.3-1 .2-1.6.5-1.6 1.1 0 .5.4.8 1 1a6 6 0 0 0 1.7 0c.2 0 .3-.1.3-.2.2 0 .2-.3.2-1v-.1c0-1.4-.1-1.6-.7-1.8-.2-.1-.4-.2-.9-.1h-.9Zm1.4 2v.3l-.4.1c-.4 0-.4 0-.5-.2V7l.6-.2h.3zm8.7-1.6c-.2-.3-.1-.3.3-.5H28c.4.2.5.4.6.7v2.3c0 .2-1.6.3-2.2.2-.7-.2-1-.9-.7-1.4.2-.4.7-.6 1.5-.7.4 0 .5 0 .3-.3H26zm1.7 1.8V7c0-.2 0-.2-.3-.2-.5 0-.7.2-.6.5 0 .1.2.2.6.2.3 0 .3 0 .3-.2Z" clip-rule="evenodd"/><path fill="#000" d="M29.6 5H29v3h1.1V5.8h.2a.7.7 0 0 1 .3 0c.3 0 .3 0 .3 1.2l.1 1.1h1l.1-1.2-.1-1.3-.5-.5-1-.1h-1ZM18.7 6.2c-.4-1-.5-1.2-.4-1.3h1c.1 0 .2 0 .5 1.1l.3.8.6-1.7c0-.2.2-.3.7-.3l.6.1v.2a1 1 0 0 0-.2.3s0 .3-.2.4a16 16 0 0 0-.3.7l-.2.5-.1.4-.3.7-.5 1-.6.1H19s0-.3.4-1c.1-.2.1-.2-.2-.9v-.2l-.2-.4a27 27 0 0 0-.3-.5"/></svg>