<?xml version="1.0"?>
<svg xmlns="http://www.w3.org/2000/svg" width="38" height="24" viewBox="0 0 38 24" role="img">
<title>Maybank</title><path fill="#FFC80B" d="M2,0h34c1.105,0,2,0.895,2,2v20c0,1.105-0.895,2-2,2H2c-1.105,0-2-0.895-2-2V2C0,0.895,0.895,0,2,0z"/>
<path fill="#000" d="M7.441,13.794l1.13-3.083l0.369,3.083h1.193L9.487,9.265H8.031l-0.964,2.721L6.102,9.265H4.646L4,13.794h1.193l0.369-3.083  l1.13,3.083H7.441z"/>
<path fill="#000" d="M13.713,10.427l1.535,3.367l-0.608,1.321h1.322l2.109-4.688h-1.364l-0.809,2.354l-0.821-2.354H13.713z"/>
<path fill="#000" d="M34,13.79l-1.396-1.801l1.272-1.562h-1.421l-1.13,1.47V8.893H30.09v4.897h1.235v-1.705l1.268,1.705H34z"/>
<path fill="#000" d="M18.27,13.62c0,0,0.653,0.245,1.57,0.245s2.11-0.284,2.11-1.861s-1.584-1.634-1.769-1.634  c-0.349,0-0.572,0.095-0.653,0.137V8.885H18.27V13.62z M19.527,13.013v-1.771c0.251-0.084,1.158-0.311,1.158,0.84  C20.685,13.254,19.754,13.074,19.527,13.013"/>
<path fill="#000" d="M22.624,11.279c1.804-0.533,1.804,0.107,1.804,0.192v0.114c-1.46,0.012-2.33,0.43-2.33,1.186  c0,0.767,0.81,1.101,1.882,1.101s1.62-0.249,1.62-0.249v-2.096c0-0.738-0.476-1.208-1.62-1.208s-1.641,0.27-1.641,0.27  L22.624,11.279z M23.257,12.756c0-0.484,0.92-0.519,1.172-0.519V13.1C24.166,13.131,23.257,13.206,23.257,12.756"/>
<path fill="#000" d="M10.819,11.279c1.804-0.533,1.804,0.107,1.804,0.192v0.114c-1.46,0.012-2.33,0.43-2.33,1.186  c0,0.767,0.81,1.101,1.882,1.101s1.62-0.249,1.62-0.249v-2.096c0-0.738-0.476-1.208-1.62-1.208s-1.641,0.27-1.641,0.27  L10.819,11.279z M11.451,12.756c0-0.484,0.92-0.519,1.172-0.519V13.1C12.36,13.131,11.451,13.206,11.451,12.756"/>
<path fill="#000" d="M28.378,13.786h1.243v-2.131c0-1.108-0.796-1.342-1.776-1.342s-1.769,0.27-1.769,0.27v3.204h1.243v-2.548  c0.956-0.28,1.059,0.18,1.059,0.403V13.786z"/>
</svg>
