<svg xmlns="http://www.w3.org/2000/svg" width="38" height="24" fill="none" aria-labelledby="pi-maybankqrpay" role="img" viewBox="0 0 38 24"><title id="pi-maybankqrpay">Maybank QR Pay</title><path fill="#fff" d="M0 0h38v24H0z"/><path fill="#000" d="M31.01 5.46h.32v-.31h-.32zm3.33 3.3h.32v-.32h-.32zm-1.34 1h-.33v.33H33zm1.66 1h-.32v.31h.32v-.32Zm-3.32-.67h.33v-.33h-.33zM33 7.79h-.33v.32H33v-.33Zm-3.32.31H30v-.32h-.32zm.66 0h.33v-.79c0-.13.07-.19.2-.2h.8v-.46c0-.13.06-.19.2-.19h.46V5.8h-.66v.47c0 .11-.07.19-.17.19s-.16-.08-.16-.19V5.8h-.1c-.64 0-.56.07-.57-.57V5c0-.13.06-.19.19-.19h.63c.12 0 .18.06.18.19v.47h.8c.13 0 .2.06.2.19v.94c0 .12-.07.19-.2.2H32v.43c0 .17-.05.22-.22.22h-.77v.65h1.33v-.48c0-.1.06-.17.17-.17h.65c.1 0 .18.07.18.18v.63c0 .1-.07.18-.18.18h-.48v.98H33v-.47c0-.12.07-.18.19-.18H34v-.49c0-.1.06-.17.17-.17h.49v-.66h-.83a.16.16 0 0 1-.04-.32h1.03c.11 0 .18.06.18.17v1.62c0 .12-.07.18-.2.18h-1.46v.32h.78c.15 0 .21.07.21.21v.79h.46c.15 0 .2.06.2.2v.59c0 .14-.05.2-.2.2h-.58c-.15 0-.2-.06-.2-.2V9.76h-.67v.43c0 .18-.06.23-.23.23h-.57c-.14 0-.2-.06-.2-.2V8.44H31v.33h.8c.13 0 .2.06.2.19v1.27c0 .13-.07.19-.2.19h-.61c-.13 0-.2-.07-.2-.2v-.6c0-.13.07-.2.2-.2h.47V9.1h-.78c-.17 0-.22-.05-.22-.22v-.44h-1.12c-.15 0-.2-.06-.2-.21v-.59c0-.12.06-.2.18-.2h.63c.11 0 .18.08.18.2v.47ZM30 9.77h-1.32v1.31H30v-1.3Zm-1.66.66v-.64c0-.21.14-.35.35-.35H30c.21 0 .35.13.35.35v1.28c0 .2-.14.35-.35.35h-1.3c-.21 0-.34-.14-.34-.36v-.63Z"/><path fill="#000" d="M34.66 5.15h-1.32v1.3h1.32zM34 4.8h.64c.22 0 .36.14.36.36v1.25c0 .23-.14.37-.36.37h-1.28c-.22 0-.35-.14-.36-.35V5.16c0-.21.14-.35.36-.35H34Zm-5.32 1.64H30v-1.3h-1.32zm.66-1.64h.65c.22 0 .35.14.35.36v1.27c0 .21-.14.35-.35.35h-1.3c-.2 0-.34-.14-.34-.35V5.17c0-.22.13-.36.35-.36h.64Zm.5 4.29h-.31c-.11 0-.19-.07-.19-.17 0-.09.08-.16.18-.16h.65c.1 0 .17.07.17.16 0 .1-.07.17-.18.17zm1.67 1.97v-.15c0-.1.07-.17.16-.17.1 0 .16.07.17.16v.34c0 .1-.08.16-.17.16-.1 0-.16-.08-.17-.17v-.17Zm2 .01v.16a.18.18 0 0 1-.18.17.17.17 0 0 1-.16-.17 9 9 0 0 1 0-.32c0-.1.07-.17.17-.17.09 0 .16.07.16.17v.16ZM32.34 4.8h.17c.09 0 .15.07.16.16a.16.16 0 0 1-.15.17h-.37c-.09 0-.15-.09-.15-.17a.17.17 0 0 1 .17-.16zm-3.66 4.3h-.17a.16.16 0 0 1-.16-.17.16.16 0 0 1 .15-.16 6 6 0 0 1 .35 0 .16.16 0 0 1 .16.16c0 .1-.07.16-.16.17zm0-1.15h.16a.17.17 0 0 1 .17.16.17.17 0 0 1-.17.16 6 6 0 0 1-.33 0c-.1 0-.16-.07-.16-.16 0-.1.06-.16.16-.16zm0-.5h-.17c-.1 0-.17-.07-.16-.17a.16.16 0 0 1 .16-.16h.34a.17.17 0 0 1 .16.16c0 .1-.07.16-.16.17zm3.99 3.63v.17a.17.17 0 0 1-.17.16.16.16 0 0 1-.16-.16 9 9 0 0 1 0-.34.16.16 0 0 1 .17-.16.16.16 0 0 1 .16.16zm-2 0v-.18a.16.16 0 0 1 .17-.15.16.16 0 0 1 .17.15v.36a.17.17 0 0 1-.33 0v-.19Zm0-4.62v-.17a.16.16 0 0 1 .17-.16c.09 0 .16.07.17.16v.34a.16.16 0 0 1-.33 0v-.17Zm-1.33 3.63h.17c.1 0 .16.06.16.16v.34c0 .1-.07.16-.16.16h-.33a.16.16 0 0 1-.17-.17v-.32c0-.1.07-.16.17-.17z"/><path fill="#000" d="M34 6.13h-.17c-.1 0-.16-.07-.16-.17a6 6 0 0 1 0-.32c0-.1.07-.17.17-.17a6 6 0 0 1 .32 0c.1 0 .17.07.17.17v.32c0 .1-.07.17-.17.17zm-4.66 0h-.16a.16.16 0 0 1-.17-.17v-.32c0-.1.07-.17.17-.17h.33c.1 0 .16.07.16.16v.34c0 .1-.07.16-.17.16z"/><path fill="#FFD000" d="M3 4.82v6.58h24.69V4.82z"/><path fill="#1D1D1B" d="M18.43 7.92a.7.7 0 0 0-.22.04v1.06a1 1 0 0 0 .2.02c.3 0 .48-.2.48-.57 0-.35-.17-.55-.46-.55m-.06 1.6a2.7 2.7 0 0 1-.9-.15V6.59h.74v.94c.09-.04.25-.06.37-.06.62 0 1.04.34 1.04.95 0 .74-.44 1.1-1.25 1.1m2.7-.96c-.39.01-.69.05-.69.28 0 .17.17.26.43.26.1 0 .22-.02.26-.03zm-.24.95c-.75 0-1.12-.23-1.12-.65 0-.53.65-.65 1.36-.68V8.1c0-.15-.13-.23-.38-.23-.23 0-.5.07-.67.12l-.18-.4a2.8 2.8 0 0 1 .94-.16c.65 0 .98.22.98.75v1.19c-.19.08-.55.14-.93.14m2.54-.04V8.19c0-.17-.1-.28-.36-.28-.13 0-.25.05-.25.05v1.5h-.73V7.6c.27-.09.58-.16 1-.16.74 0 1.06.26 1.06.69v1.35h-.72Zm2.46 0-.73-.99h-.01v.99h-.72V6.59h.72v1.75h.01l.66-.85h.82l-.74.92.8 1.06zm-9.72.79h-.76l.36-.8-.9-1.97h.8l.47 1.4.48-1.4h.8zM12.33 6.8h-.84l-.56 1.64-.56-1.64h-.85l-.38 2.66h.69l.22-1.83.65 1.83h.46l.64-1.83.23 1.83h.69zm1.84 1.75c-.4.01-.69.05-.69.28 0 .17.16.26.43.26a1 1 0 0 0 .26-.03zm-.25.95c-.74 0-1.11-.23-1.11-.65 0-.53.64-.65 1.36-.68V8.1c0-.15-.14-.23-.38-.23-.23 0-.5.07-.67.12l-.18-.4c.21-.07.57-.16.94-.16.64 0 .97.22.97.75v1.19c-.18.08-.54.14-.93.14Zm-7.66.67a2.03 2.03 0 1 1 0-4.07 2.03 2.03 0 0 1 0 4.07m0-4.25a2.21 2.21 0 0 0 0 4.42 2.21 2.21 0 0 0 0-4.42"/><path fill="#1D1D1B" d="M5.38 8.04c-.16-.04-.3.14-.38.28.03-.19.27-.5.38-.28m-.35 0c.06-.18.18-.25.25-.2-.1.03-.16.09-.25.2m.4.3c.09-.08.08-.18-.05-.21-.1-.03-.3.14-.32.33.09-.1.32-.3.38-.13Zm1.28.48c.01-.24-.22-.35-.27-.6-.04-.25.37-.64.1-1.04.5.4.11.62.36.95a.46.46 0 0 1-.22-.16c-.14.18.33.43.03.85m-.79-1.93c.06 0 .16.04.12.08-.13.13-.32.08-.46.2.06-.15.32-.18.34-.28"/><path fill="#1D1D1B" d="M5.76 7.42c-.02 0-.04-.03-.04-.06.02.06.08.03.05-.06a1 1 0 0 0 .11 0c-.06.04-.09.11-.12.11Zm.6-.36c.06-.06 0-.15-.23-.17.24.11-.14.14-.16.34-.12.05-.22-.03-.29.02-.06.06-.13.02-.1-.04-.08.04-.07.14 0 .17.02 0 .03.02.02.02-.08.08-.11.14-.03.21a.4.4 0 0 1 .12-.15c.04.04.12.01.23-.1h.01c-.08.3-.3.35-.38.33.04.07.33.1.36-.02.08-.28.36-.41.12-.4.07-.08.28-.15.33-.2Zm.12-.15a1 1 0 0 1 .25.21c.01-.12-.06-.36-.16-.42-.05-.02-.11.14-.09.21"/><path fill="#1D1D1B" d="M4.64 7.89c.07-.2.25-.43.55-.6.07-.18.04-.3.75-.57.02-.1.02-.23.05-.23s.13.04.21.15a1 1 0 0 1 .08 0c.01-.07.05-.24.1-.33.06-.07.16-.08.29.02.13.11.22.16.4.39.16.07.4.16.6.4a.7.7 0 0 0-.27-.08c.17.15.28.39.2.75-.04-.34-.28-.48-.43-.58.08.28-.28.18-.39-.03h.1a1.04 1.04 0 0 0-.3-.76c-.12-.1-.18.14-.22.31a.13.13 0 0 1-.13.1.4.4 0 0 0 .03-.1c-.18.02-.38.12-.5.18-.32.14-.4.21-.46.45-.25.1-.54.4-.66.53"/><path fill="#1D1D1B" d="M6.2 7.83c.04.04.25.36.01.75.07-.3-.12-.85-.32-.56.14.06.18.17.15.28-.06-.11-.2-.23-.34-.18a.19.19 0 0 1-.24-.07c-.09-.14.06-.3-.2-.29.32-.16.23.15.38.19.17.04.2-.07.26-.14.04-.06.14-.1.23-.04.05-.14-.02-.35.1-.47.06-.04.2-.03.29.03-.12 0-.25.13-.31.5Z"/><path fill="#1D1D1B" d="M5.5 9.1a.18.18 0 0 1-.06-.13c.05.04.12.05.12.05s-.03.06-.07.08Zm.3-.35c.04 0 .07.03.1.01.02-.02 0-.1-.03-.13.03 0 .14 0 .13.04-.01.1-.07.14-.23.21.03-.02.02-.07.04-.13Zm-.62-.08c.02-.04.08-.08.1-.08-.01.09.03.22.03.22s-.13-.09-.13-.15Zm-.4-.4a.7.7 0 0 1-.15-.17.26.26 0 0 1 .12-.08c.04-.01.07.01.06.03 0 .01-.04.01-.05.04-.02.06.04.07.05.1 0 0 .02.05-.03.08m3.04-.99c.15.56.11 1.1-.05 1.42.02-.2-.16-.5-.09-.84-.33.33.19 1.12-.57 1.65.11-.19.16-.64.13-.8.03.01.08.06.1.1.07-.2.07-.5-.05-.8a.4.4 0 0 1 .17.08c.02-.46-.32-.5-.38-.62 0 .13.16.25.18.42a.47.47 0 0 0-.24-.05 1 1 0 0 1 .22.72.4.4 0 0 0-.25-.1c.1.15.15.55.02.73 0-.04-.02-.16-.07-.2a.48.48 0 0 1-.35.34c.15-.16.12-.43-.1-.5-.2-.07-.44.06-.54.52-.14.05-.57-.04-.31-.32.15.05.54-.21.52-.4-.04-.25-.27-.34-.46-.34-.23 0-.38.22-.57.31-.16-.02-.21-.04-.3-.25 0-.13.13-.22.13-.35-.11.02-.14-.15-.36.03-.01-.03.02-.11.02-.11a.28.28 0 0 0-.1.18.53.53 0 0 0 .2.21c.13.35.26.38.4.4.02.03.12.15.25.17a.9.9 0 0 1-.02-.3c.28-.27.49-.1.52-.03-.25.06-.08.58-.48.35-.02.05 0 .19.05.27.04.36.5.27.64.33-.02-.35.18-.6.35-.59.16.02.2.3-.08.56.07.04.38-.02.53-.13.02.09-.1.35-.24.54a1.78 1.78 0 0 0 1.18-2.6"/><path fill="#FFD000" d="m31.74 14.16-1.09-2.07h2.17z"/><path fill="#1D1D1B" d="m33.49 12.09-1.8 3.22c-.3-.49-1.5-2.73-1.79-3.22h-1.5l2.6 4.57v2.52h1.36v-2.52c.18-.31 2.44-4.27 2.63-4.57zm-11.17 2.98c-.05.15-.12.28-.21.4a.96.96 0 0 1-.37.27 1.2 1.2 0 0 1-.52.1h-1.8v-2.56h1.65c.22 0 .4.04.57.12a1.27 1.27 0 0 1 .66.72 1.44 1.44 0 0 1 .02.95m1.22-1.45a2.6 2.6 0 0 0-.53-.8 2.55 2.55 0 0 0-1.79-.74h-3.16v7.1h1.36v-2.12H21c.45 0 .85-.06 1.2-.19.34-.12.63-.3.85-.52a2.2 2.2 0 0 0 .52-.78 2.6 2.6 0 0 0-.03-1.95m4.93 2.19-1.19.5-.78-1.58-1.21 2.42-.08.15-.12.25-.81 1.62H22.8l3.63-7.08h.14z"/><path fill="#1D1D1B" d="M30.19 19.17h-1.47l-.92-1.83-.26-.51-.26-.52 1.19-.5-.3.87 1.1.69.36.71.56 1.1Zm-17.66-3.45h1.87c.12 0 .25-.03.38-.07a1 1 0 0 0 .35-.23 1.23 1.23 0 0 0 .36-.9 2 2 0 0 0-.04-.36 1.2 1.2 0 0 0-.16-.41 1 1 0 0 0-.32-.33 1.07 1.07 0 0 0-.58-.14h-1.86zm0 3.46h-1.36v-7.1h3.23c.36 0 .7.06 1 .18a2.24 2.24 0 0 1 1.26 1.28c.12.3.18.63.18.98 0 .54-.13 1-.4 1.41-.27.4-.62.69-1.07.86l1.76 2.39h-1.62a47 47 0 0 1-1.64-2.26h-1.34zM8.59 16.5a2.4 2.4 0 0 1-.48.72l-.04.03-.04.04-.08.07a3 3 0 0 1-.26.2l-.14.07-.07.04-.07.03a1 1 0 0 1-.1.05 2.1 2.1 0 0 1-.77.14c-.3 0-.59-.06-.85-.18a2.1 2.1 0 0 1-.55-.35l-.08-.07a.2.2 0 0 1-.04-.04 2.4 2.4 0 0 1-.51-.75 2.25 2.25 0 0 1 0-1.74 2.3 2.3 0 0 1 .47-.72l.08-.07a2.2 2.2 0 0 1 .62-.42 2.05 2.05 0 0 1 .86-.18 2.1 2.1 0 0 1 .76.14l.1.05.15.07a2 2 0 0 1 .4.27l.08.07.08.07q.3.3.48.72a2.22 2.22 0 0 1 0 1.74m1.22-2.25a3.6 3.6 0 0 0-.76-1.13 3.7 3.7 0 0 0-1.29-.82c-.05-.03-.11-.04-.17-.06a3.4 3.4 0 0 0-1.04-.16 3.42 3.42 0 0 0-2.12.71 3.63 3.63 0 0 0-1.15 1.46A3.4 3.4 0 0 0 3 15.63v.16c.02.43.1.84.23 1.22a3 3 0 0 0 .69 1.13c.3.32.7.57 1.17.76.42.17.9.26 1.44.28h.03A4.3 4.3 0 0 0 8 18.9a3.3 3.3 0 0 0 1.18-.76A3 3 0 0 0 9.87 17c.13-.38.2-.8.22-1.22v-.08a3.4 3.4 0 0 0-.28-1.45"/><path fill="#1D1D1B" d="M5.6 15.49s1.55-.03 2.27.83c.73.85 1.33 2.53 2.56 2.7 0 0-1.8.66-3.08-1.32-.6-1.07-.88-2.07-1.75-2.21"/><path fill="#FFD000" d="m29.27 17.37-1.47-.03-2.59-.04.08-.15 2-.84 1.18-.5.4.78z"/></svg>