<svg viewBox="0 0 38 24" role="img" width="38" height="24" aria-labelledby="pi-mb" xmlns="http://www.w3.org/2000/svg"><title id="pi-mb">Multibanco</title><path opacity=".07" d="M35 0H3C1.3 0 0 1.3 0 3v18c0 1.7 1.4 3 3 3h32c1.7 0 3-1.3 3-3V3c0-1.7-1.4-3-3-3z"/><path fill="#fff" d="M35 1c1.1 0 2 .9 2 2v18c0 1.1-.9 2-2 2H3c-1.1 0-2-.9-2-2V3c0-1.1.9-2 2-2h32"/><path d="M17.853 10.07c-.861 1.762-1.339 3.375-1.905 4.955-.167.469-.302.929-.907.951-.673.026-.811-.505-.984-.987-.464-1.287-.91-2.573-1.392-3.853-.105-.275-.137-.63-.525-.799-.209 1.692-.428 3.353-.608 5.017-.057.514-.19.891-.768.871-.666-.022-.629-.508-.573-.97.266-2.117.533-4.236.812-6.354.056-.404.106-.85.671-.888.525-.037.959.119 1.186.617.469 1.044.907 2.1 1.375 3.146.269.599.391 1.265.819 1.865.683-1.634 1.209-3.261 1.99-4.782.211-.412.436-.784.954-.833.543-.059.923.07 1.001.714.256 2.185.537 4.364.819 6.542.06.448.083.868-.499.936-.584.069-.766-.303-.828-.812-.196-1.695-.403-3.388-.638-5.336z" fill="#010101"/><path d="M20.503 12.069c0-1.053.019-2.103-.011-3.156-.016-.659.258-.928.909-.913.861.022 1.727-.015 2.588.009 1.989.058 2.981 1.6 2.149 3.395-.176.385-.009.484.212.685.799.719.996 1.629.63 2.608-.374.989-1.165 1.499-2.218 1.532-1.118.03-2.235-.004-3.355.013-.64.008-.928-.25-.909-.915.024-1.085.005-2.171.005-3.258z"/><path d="M18.664 20.546c-2.394 0-4.789.003-7.183-.002-1.408-.005-2.14-1.068-1.668-2.394.124-.351.362-.517.728-.477.383.046.602.331.552.66-.13.867.342.915 1.006.911 4.442-.018 8.882-.016 13.321-.004.625.002 1.182.018 1.023-.887-.055-.341.136-.62.529-.669.374-.048.592.141.733.471.502 1.191-.266 2.382-1.567 2.389-2.491.01-4.984.002-7.474.002z" fill="#3b75c4"/><path d="M18.805 3.698c1.758 0 3.514-.005 5.273.001 1.342.004 2.108.838 2.038 2.185-.021.359-.122.629-.51.693-.406.067-.766-.109-.776-.512-.03-1.007-.643-1.048-1.424-1.04-3.161.028-6.322.031-9.482-.002-.693-.009-1.097.153-1.175.891-.043.422-.256.742-.749.663-.55-.087-.574-.482-.534-.939.135-1.385.71-1.939 2.071-1.94h5.268z" fill="#3a75c3"/><path d="M21.716 12.045c0-.255-.018-.51.003-.761.053-.657-.304-1.653.173-1.891.671-.328 1.614-.184 2.427-.109a.997.997 0 01.936 1.125c-.053.565-.447.891-1.029.941-.253.02-.506.009-.763.004-.45-.011-.872.067-.889.618-.018.615.444.689.923.692.382.001.764-.003 1.146.001.741.014 1.244.358 1.265 1.127.024.732-.501 1.099-1.151 1.151-.855.065-1.718.008-2.577.024-.405.009-.469-.202-.464-.539.006-.795 0-1.588 0-2.383z" fill="#fdfdfd"/></svg>