<svg xmlns="http://www.w3.org/2000/svg" fill="none" viewBox="0 0 38 24" height="24" width="38" aria-labelledby="pi-mb" role="img"><title id="pi-mb">Multibanco</title><path fill="#fff" d="M0 0h38v24H0z"/><path fill="#3D73B9" fill-rule="evenodd" d="M18.72 17.266h5.859c1.337 0 1.35-1.421 1.214-2.122-.075-.472-.876-.465-.965 0v.547c0 .25-.204.454-.455.455H13.144a.458.458 0 0 1-.456-.455v-.547c-.088-.465-.89-.472-.963 0-.137.7-.124 2.122 1.214 2.122h5.781ZM14.58 3.649h9.032c.634 0 1.153.55 1.153 1.22v.585a.56.56 0 0 1-1.114.006v-.318a.372.372 0 0 0-.372-.371h-9.05a.372.372 0 0 0-.372.37v.313c0 .82-1.065.815-1.065.018V4.87c.003-.671.522-1.222 1.156-1.222h.632Z" clip-rule="evenodd"/><path fill="#1D1D1B" fill-rule="evenodd" d="M24.538 10.357a1.788 1.788 0 0 1 1.057 1.6c0 .984-.858 1.788-1.907 1.788h-2.943a.488.488 0 0 1-.5-.464V7.68a.493.493 0 0 1 .492-.49h2.45c1.44-.004 2.343 1.553 1.626 2.8a1.854 1.854 0 0 1-.275.367Zm-2.195-.454h.933v-.011a.89.89 0 0 0 .754-.878.89.89 0 0 0-.888-.888h-1.881v4.646h2.384a.918.918 0 0 0 .911-1.285.92.92 0 0 0-.911-.55h-1.302a.517.517 0 0 1 0-1.032" clip-rule="evenodd"/><path fill="#1D1D1B" d="M14.953 18.986c0-.123.13-.199.236-.137.05.028.08.08.08.137v.851a.71.71 0 0 1-.708.709.71.71 0 0 1-.708-.708v-.851a.158.158 0 0 1 .295-.092c.016.028.022.06.019.092v.851a.397.397 0 0 0 .395.393.395.395 0 0 0 .394-.394l-.003-.851Zm1.494 1.244a.16.16 0 0 1 0 .317h-.44a.59.59 0 0 1-.591-.592v-.969c0-.122.13-.197.235-.136.05.027.08.08.08.136v.968c0 .152.124.277.277.277h.439v-.001Zm3.331-7.043a.59.59 0 1 1-1.173.123l-.486-4.45-1.711 4.353v.053a.58.58 0 0 1-.148.168l-.009.007a.487.487 0 0 1-.102.073l-.011.005-.01.007h-.058a.606.606 0 0 1-.174.032h-.042a.594.594 0 0 1-.193-.04h-.05l-.01-.006-.009-.005h-.005a.536.536 0 0 1-.093-.062l-.02-.017-.014-.015-.036-.009-.017-.02a.658.658 0 0 1-.063-.093v-.006l-.005-.008-.006-.01v-.044L13.591 8.86l-.484 4.45a.59.59 0 0 1-1.174-.123l.572-5.248a.98.98 0 0 1 .844-.862h.03c.051-.003.1-.003.15 0a.97.97 0 0 1 .865.617l1.462 3.696 1.459-3.708a.97.97 0 0 1 .866-.617c.05-.004.1-.004.15 0h.03a.978.978 0 0 1 .844.866l.573 5.256Zm-5.986 7.184a.157.157 0 0 1-.209.176.16.16 0 0 1-.105-.139l-.134-1.136-.482 1.115a.158.158 0 0 1-.256.05.151.151 0 0 1-.033-.05l-.482-1.115-.136 1.136a.156.156 0 0 1-.175.137.158.158 0 0 1-.132-.113.157.157 0 0 1-.005-.061l.158-1.319a.256.256 0 0 1 .139-.196l.031-.015h.012a.273.273 0 0 1 .298.097l.019.029c.002.007.005.012.009.019l.409.947.408-.956a.256.256 0 0 1 .185-.149.853.853 0 0 1 .048-.007h.048a.266.266 0 0 1 .227.202v.02l.158 1.328Zm3.343.018a.159.159 0 0 1-.317 0v-1.246h-.449a.157.157 0 0 1-.136-.08.158.158 0 0 1 .136-.236h1.214c.121 0 .197.132.137.237a.163.163 0 0 1-.137.079h-.448v1.246Zm.984 0a.157.157 0 0 1-.236.136.152.152 0 0 1-.08-.136v-1.403a.157.157 0 0 1 .295-.079.16.16 0 0 1 .021.079v1.403Zm3.233-.018a.158.158 0 0 1-.313.038l-.056-.446h-.542a.159.159 0 0 1-.091-.295.157.157 0 0 1 .091-.02h.507l-.014-.116v-.012c-.004-.026-.012-.053-.019-.081a.383.383 0 0 0-.033-.081.356.356 0 0 0-.318-.213.307.307 0 0 0-.15.035.445.445 0 0 0-.22.352l-.099.877a.156.156 0 0 1-.3.047.154.154 0 0 1-.012-.08l.099-.878a.753.753 0 0 1 .389-.598.668.668 0 0 1 .293-.07.667.667 0 0 1 .6.389.821.821 0 0 1 .081.276l.107.876Zm.482.018a.159.159 0 0 1-.093.162.158.158 0 0 1-.221-.162v-1.3a.131.131 0 0 1 0-.028.152.152 0 0 1 .012-.051l.012-.028a.23.23 0 0 1 .124-.103l.022-.005h.058a.218.218 0 0 1 .166.086l.837 1.07v-1.044a.158.158 0 0 1 .315 0v1.3a.222.222 0 0 1-.115.193c-.006.005-.013.007-.019.01l-.013.006a.228.228 0 0 1-.17-.009l-.019-.011a.16.16 0 0 1-.032-.024c-.007-.006-.013-.014-.021-.02l-.004-.007-.839-1.075v1.04Zm2.464-.159a.16.16 0 0 1 0 .317h-.464a.622.622 0 0 1-.622-.621v-.475a.625.625 0 0 1 .622-.622h.464c.122 0 .198.132.137.238a.164.164 0 0 1-.137.078h-.464a.306.306 0 0 0-.218.093.299.299 0 0 0-.093.216v.474c0 .17.138.308.308.308h.465l.002-.006Zm.913-1.088a.432.432 0 0 0-.299.118.395.395 0 0 0-.121.28v.294a.39.39 0 0 0 .12.279c.08.076.188.118.299.118a.432.432 0 0 0 .299-.118.387.387 0 0 0 .122-.279v-.294a.394.394 0 0 0-.122-.28.437.437 0 0 0-.299-.118m0-.315a.742.742 0 0 1 .517.206.702.702 0 0 1 .217.506v.294a.696.696 0 0 1-.217.505.743.743 0 0 1-.517.207.74.74 0 0 1-.677-.437.702.702 0 0 1-.057-.275v-.294a.707.707 0 0 1 .218-.506.74.74 0 0 1 .516-.206Zm-6.645.316v1.087h.61a.197.197 0 0 0 .145-.332l-.006-.006a.2.2 0 0 0-.139-.059h-.21a.158.158 0 0 1-.137-.236.157.157 0 0 1 .137-.078h.071a.2.2 0 0 0 .171-.152.186.186 0 0 0-.182-.223l-.46-.001Zm-.315.534v-.686c0-.021.003-.042.012-.061a.174.174 0 0 1 .037-.055.154.154 0 0 1 .103-.045h.618a.503.503 0 0 1 .426.77c.033.02.064.043.093.07l.009.012a.51.51 0 0 1-.371.865h-.77a.158.158 0 0 1-.157-.158v-.712Z"/></svg>