<svg xmlns="http://www.w3.org/2000/svg" role="img" viewBox="0 0 38 24" width="38" height="24" aria-labelledby="pi-mbway"><title id="pi-mbway">MB WAY</title><g id="pi-mbway" stroke="none" fill-rule="nonzero" fill-opacity="1"><path d="M1.477 20.96l-.063.65c-.031.32.164.6.414.6h16.16c.25 0 .442-.28.414-.6l-.066-.65c-.04-.503.242-.96.629-1.015.387-.054.73.313.77.817l.062.629c.125 1.406-.485 2.644-1.578 2.644H1.594c-1.09 0-1.703-1.238-1.578-2.644l.062-.63c.043-.503.383-.87.77-.816.39.055.672.512.629 1.016" fill="#d81e25"/><path d="M18.36 9.508c0 .86-.231 1.344-.618 1.941l-.039.059.055.043c.762.605 1.297 1.523 1.336 2.808.058 1.918-1.188 3.504-2.668 3.5H12.52c-.38 0-.688-.41-.688-.918V7.082c0-.512.309-.918.688-.918l3.222.008c1.406.004 2.617 1.348 2.617 3.336m-1.941 6.578c.785 0 1.41-.746 1.395-1.727-.016-1.004-.72-1.656-1.5-1.656H14.73c-.351 0-.64-.379-.64-.855 0-.477.289-.856.64-.856h1.055c.715-.039 1.262-.597 1.297-1.476.035-.942-.586-1.645-1.344-1.645h-2.566l-.008 8.215h3.254M5.773 14.48l.02.07.02-.07c.18-.648.398-1.367.628-2.152.243-.824.477-1.613.715-2.367.242-.762.469-1.441.684-2.035.219-.61.398-1.024.535-1.25.215-.332.496-.504.848-.504h.16c.219 0 .383.074.512.215a.828.828 0 01.203.457l1.007 10.191c0 .262-.058.465-.171.613-.114.145-.278.211-.493.211-.21 0-.382-.062-.507-.195a.766.766 0 01-.235-.508 41.5 41.5 0 01-.097-1.129c-.043-.414-.2-2.191-.247-2.64-.039-.461-.324-3.34-.421-4.387l-.008-.086-.324.883c-.11.3-.227.668-.36 1.094-.129.425-.262.87-.39 1.347-.141.457-.766 2.782-.766 2.782-.059.21-.168.636-.266 1.027-.101.39-.191.742-.218.808-.149.387-.438.637-.805.641-.375 0-.664-.254-.809-.64a14.728 14.728 0 01-.222-.81c-.098-.39-.207-.816-.266-1.026 0 0-.625-2.325-.766-2.782a46.391 46.391 0 00-.39-1.347c-.133-.426-.25-.793-.36-1.094l-.324-.883L2.652 9c-.097 1.047-.379 3.926-.422 4.387-.042.449-.203 2.226-.246 2.64-.03.414-.062.79-.097 1.13a.766.766 0 01-.235.507c-.125.133-.297.195-.507.195-.215 0-.38-.066-.493-.21C.54 17.5.48 17.292.48 17.034L1.488 6.844a.833.833 0 01.207-.457.638.638 0 01.504-.215h.164c.352 0 .637.172.848.504.14.226.316.64.535 1.25.215.594.445 1.273.684 2.035.238.754.476 1.543.715 2.367.23.785.449 1.504.628 2.152" fill="#100f0d"/><path d="M3.797 0H16.07c1.157 0 1.73 1.129 1.867 2.621l.051.477c.043.511-.246.972-.633 1.027-.386.05-.734-.32-.777-.832l-.047-.457c-.05-.566-.234-1-.68-1H4.012c-.44 0-.624.434-.679 1l-.047.457c-.039.512-.387.883-.773.832-.39-.055-.676-.516-.637-1.027l.055-.477C2.066 1.13 2.64 0 3.797 0" fill="#d81e25"/><path d="M25.871 10.742c-.082.426-.172.883-.262 1.367-.093.485-.183.946-.277 1.391-.086.441-.172.828-.254 1.164a4.435 4.435 0 01-.203.684.504.504 0 01-.5.328.917.917 0 01-.262-.055c-.105-.035-.195-.133-.27-.297-.05-.12-.116-.363-.198-.719-.082-.359-.168-.77-.258-1.234-.09-.465-.176-.957-.266-1.476-.09-.524-.172-1.004-.242-1.454a63.69 63.69 0 01-.262-1.703c-.004-.039-.008-.066-.008-.082V8.61c0-.129.036-.238.114-.32a.384.384 0 01.289-.121.38.38 0 01.261.09c.063.055.114.16.141.308 0 .012.02.13.05.336.032.211.075.477.126.801.05.328.11.692.172 1.094.062.406.125.816.195 1.23.07.414.14.813.207 1.203.07.387.133.723.191 1 .063-.261.125-.562.2-.902.07-.336.144-.687.215-1.047.07-.36.14-.719.207-1.082.066-.36.125-.695.183-1.004.055-.312.106-.586.149-.828.039-.238.074-.418.097-.535a.677.677 0 01.168-.348.419.419 0 01.309-.129c.129 0 .238.043.32.133a.67.67 0 01.16.344c.07.379.14.805.219 1.273.074.47.156.946.238 1.426.086.48.176.953.262 1.414.09.461.176.871.262 1.227.058-.277.125-.613.191-.996.07-.39.14-.79.211-1.203.07-.41.14-.817.207-1.22.067-.401.125-.765.18-1.089.055-.32.097-.582.129-.785.031-.203.05-.309.05-.313.028-.148.075-.254.141-.308a.387.387 0 01.262-.09c.113 0 .21.039.285.121a.45.45 0 01.117.32v.047c0 .016 0 .043-.008.082-.004.063-.035.25-.086.567-.05.312-.113.695-.183 1.136-.07.45-.152.93-.242 1.446a77.279 77.279 0 01-.262 1.468c-.09.47-.172.88-.254 1.23-.078.352-.148.595-.203.716-.07.164-.16.27-.27.308a.81.81 0 01-.265.067.745.745 0 01-.11-.012c-.047-.012-.097-.023-.152-.047a.5.5 0 01-.285-.316 5.818 5.818 0 01-.195-.73 67.755 67.755 0 01-.497-2.508c-.082-.473-.16-.915-.234-1.32M32.555 12.508c-.13-.504-.246-.969-.36-1.387a31.23 31.23 0 00-.351-1.207 3.91 3.91 0 01-.094-.297 5.576 5.576 0 00-.059-.203c-.003.008-.027.07-.058.191a3.374 3.374 0 01-.094.31c-.117.378-.234.78-.348 1.206-.109.418-.226.883-.351 1.387zm-1.992 1.015c-.09.372-.168.715-.239 1.032-.07.32-.133.582-.191.78-.067.227-.2.34-.395.34-.14 0-.238-.046-.3-.132a.603.603 0 01-.094-.344c0-.054.004-.105.015-.156.012-.043.051-.203.114-.473.062-.273.144-.61.246-1.015.101-.403.215-.844.336-1.325a68.641 68.641 0 01.765-2.742c.125-.406.242-.734.352-.98a.492.492 0 01.191-.27.66.66 0 01.328-.07c.133 0 .247.027.336.082.094.055.157.148.192.281.086.23.187.543.304.934.114.39.239.816.364 1.27.133.453.258.917.383 1.39.125.473.242.914.347 1.32.102.407.192.754.266 1.043.074.29.125.473.14.555.012.05.02.102.02.156 0 .137-.035.25-.11.344a.384.384 0 01-.312.133c-.101 0-.18-.031-.23-.09a.621.621 0 01-.121-.25c-.06-.2-.13-.461-.211-.781-.079-.317-.164-.66-.254-1.032h-2.242M35.594 12.742a1.056 1.056 0 01-.086-.129c-.028-.043-.055-.101-.086-.164a7.762 7.762 0 01-.274-.562c-.097-.219-.195-.457-.296-.703a43.01 43.01 0 01-.536-1.454c-.074-.218-.14-.41-.191-.566-.055-.16-.09-.27-.102-.332-.011-.039-.02-.07-.023-.086 0-.02-.004-.05-.004-.09 0-.136.04-.258.113-.347a.37.37 0 01.309-.141c.121 0 .203.039.258.117.047.078.086.156.11.235.01.039.042.12.085.253.043.133.102.297.164.489.067.195.14.41.227.64.086.235.168.461.254.688.086.223.172.437.254.644.078.207.156.375.226.508.113-.226.234-.508.367-.851.133-.34.258-.676.375-1.012.121-.332.223-.629.313-.883.086-.258.136-.418.156-.476a.921.921 0 01.113-.235c.051-.078.137-.117.254-.117a.37.37 0 01.309.14c.074.09.113.212.113.348 0 .04-.004.07-.004.09l-.023.086c-.02.063-.051.172-.102.336-.05.164-.113.355-.191.57a43.01 43.01 0 01-.535 1.457 15.46 15.46 0 01-.297.707 7.355 7.355 0 01-.274.57c-.054.102-.11.192-.172.27v2.41a.621.621 0 01-.109.38.359.359 0 01-.293.144.352.352 0 01-.289-.145.599.599 0 01-.113-.379v-2.41" fill="#100f0d"/></g></svg>