<svg xmlns="http://www.w3.org/2000/svg" width="38" height="24" fill="none" aria-labelledby="pi-mcash" role="img" viewBox="0 0 38 24"><title id="pi-mcash">M Cash</title><path fill="#0DB04B" d="M0 0h38v24H0z"/><path fill="#fff" d="M19.642 3.428c.958.294 1.545.922 1.844 1.844.203.624.424 1.243.64 1.864.032.09.045.198.137.256.115-.018.141-.116.192-.187.667-.922 1.562-1.413 2.707-1.42.718-.006 1.437-.003 2.155-.001 1.478.003 2.664 1.138 2.67 2.62q.025 5.34 0 10.682c-.006 1.494-1.16 2.62-2.648 2.643-.698.01-1.397.012-2.094-.003a2.655 2.655 0 0 1-2.553-2.152l-.047-.23c-1.126.232-1.126.232-2.023.017-.102.06-.086.172-.109.266-.303 1.283-1.302 2.09-2.617 2.103q-.971.01-1.942 0c-1.517-.018-2.664-1.173-2.67-2.686-.002-.486-.029-.973.008-1.456.03-.395-.132-.597-.467-.774-.984-.517-1.953-1.065-2.925-1.605-1.378-.767-1.854-2.28-1.093-3.656.248-.45.203-.719-.115-1.097-1.049-1.245-.89-2.829.37-3.866a435 435 0 0 1 4.594-3.727c1.178-.944 2.763-.764 3.755.43.202.242.359.305.657.188.5-.196 1.027-.205 1.574-.053m5.4 3.101c-.915.073-1.6.512-2.074 1.293-.158.26-.31.523-.487.77-.197.275-.493.244-.653-.055-.038-.071-.064-.149-.09-.225-.327-.946-.678-1.885-.972-2.841-.325-1.057-1.513-1.673-2.54-1.262-.868.348-.747.356-1.345-.38-.773-.95-1.854-1.093-2.802-.332a352 352 0 0 0-4.634 3.775c-.61.507-.826 1.177-.602 1.963.103.361.344.635.57.921.703.888.652.641.134 1.587-.645 1.176-.353 2.208.828 2.859 1.08.595 2.158 1.197 3.244 1.783.29.157.43.35.417.695-.024.667-.013 1.335-.004 2.003a1.91 1.91 0 0 0 1.876 1.886c.678.009 1.356.002 2.034.003q.596-.002 1.073-.36c.612-.458.849-1.078.81-1.83-.014-.259-.095-.58.249-.709.313-.118.444.161.615.334.522.525 1.258.538 1.79.027.088-.083.165-.178.25-.265.113-.116.245-.183.41-.121a.364.364 0 0 1 .257.37q-.002.304-.005.607a1.93 1.93 0 0 0 1.914 1.946q1.002.01 2.003.002c1.093-.008 1.927-.829 1.929-1.922q.008-5.296 0-10.594c-.002-1.001-.683-1.811-1.683-1.901-.812-.073-1.636-.024-2.512-.027"/><path fill="#fff" d="M23.789 8.847c.1-.166.185-.316.28-.46.255-.391.607-.606 1.087-.602.678.007 1.356.001 2.033.002.579 0 .8.223.8.812q.002 2.307.001 4.614v5.646c0 .657-.213.869-.872.87h-1.61c-.644-.001-.87-.226-.871-.883a623 623 0 0 1-.001-3.43c.002-.617.013-1.233.022-1.85.001-.104-.027-.196-.131-.38l-2.924 4.445-2.866-4.354c-.213.158-.16.333-.16.483-.004 1.7-.001 3.4-.001 5.1 0 .659-.212.869-.873.87l-1.548-.001c-.655-.001-.877-.221-.877-.871q-.002-3.84-.002-7.68c0-.85-.002-1.7.002-2.55.002-.625.22-.842.835-.841.657 0 1.315.008 1.972-.003.507-.008.87.216 1.13.635l2.024 3.28c.289.467.5.473.788.009.585-.946 1.167-1.895 1.762-2.861"/><path fill="#fff" d="M14.754 4.54c.539-.405.808-.37 1.217.138.213.266.428.53.635.787-.064.153-.186.157-.287.192-1.002.349-2.008.688-3.008 1.045-.8.286-1.068.854-.793 1.646q1.04 2.993 2.086 5.987c.022.064.066.125.038.203-.11.038-.137-.063-.181-.117a2541 2541 0 0 1-4.18-5.168c-.405-.504-.367-.785.144-1.2z"/><path fill="#fff" d="m17.155 5.907 1.396-.49c.566-.199.846-.062 1.046.512q.77 2.205 1.537 4.41c.013.036.016.075.026.125-.138.013-.152-.098-.193-.165q-.654-1.058-1.302-2.12c-.373-.612-.902-.93-1.631-.915-.668.014-1.336.001-2.003.002-.792.002-1.266.47-1.27 1.267-.004 1.376 0 2.752-.003 4.128 0 .098.027.202-.037.3-.117-.043-.114-.158-.144-.245q-.789-2.28-1.57-4.561c-.176-.517-.035-.799.485-.98zm-3.928 7.783 1.424 1.758c-.126.076-.187.002-.252-.034q-1.74-.959-3.477-1.926c-.496-.277-.587-.609-.311-1.108.197-.36.403-.714.636-1.125z"/></svg>