<?xml version="1.0" encoding="UTF-8" standalone="no"?>
<svg
   xmlns:dc="http://purl.org/dc/elements/1.1/"
   xmlns:cc="http://creativecommons.org/ns#"
   xmlns:rdf="http://www.w3.org/1999/02/22-rdf-syntax-ns#"
   xmlns:svg="http://www.w3.org/2000/svg"
   xmlns="http://www.w3.org/2000/svg"
   xmlns:sodipodi="http://sodipodi.sourceforge.net/DTD/sodipodi-0.dtd"
   xmlns:inkscape="http://www.inkscape.org/namespaces/inkscape"
   id="svg6730"
   xml:space="preserve"
   height="24"
   width="38"
   version="1.1"
   inkscape:version="0.91+devel r14880"
   sodipodi:docname="medicinos_bankas.svg"
   viewBox="0 0 38 24"><metadata
     id="metadata8113"><rdf:RDF><cc:Work
         rdf:about=""><dc:format>image/svg+xml</dc:format><dc:type
           rdf:resource="http://purl.org/dc/dcmitype/StillImage" /><dc:title></dc:title></cc:Work></rdf:RDF></metadata><sodipodi:namedview
     pagecolor="#ffffff"
     bordercolor="#666666"
     borderopacity="1"
     objecttolerance="10"
     gridtolerance="10"
     guidetolerance="10"
     inkscape:pageopacity="1"
     inkscape:pageshadow="2"
     inkscape:window-width="1588"
     inkscape:window-height="789"
     id="namedview8111"
     showgrid="false"
     inkscape:zoom="15.315789"
     inkscape:cx="19.522335"
     inkscape:cy="14.917242"
     inkscape:window-x="1704"
     inkscape:window-y="26"
     inkscape:window-maximized="0"
     inkscape:current-layer="svg6730"
     inkscape:document-units="px"
     inkscape:pagecheckerboard="true"
     showguides="true" /><defs
     id="defs6734"><clipPath
       id="clipPath8096"
       clipPathUnits="userSpaceOnUse"><rect
         id="rect8098"
         height="4"
         width="16.562"
         y="13.562"
         x="22.938"
         style="fill:none;stroke:#000000;stroke-width:0.5" /></clipPath></defs><rect
     style="fill:#ffffff;fill-opacity:1;stroke:none;stroke-width:0.49885747;stroke-miterlimit:4;stroke-dasharray:none;stroke-opacity:1"
     id="rect14200"
     width="38"
     height="24"
     x="5.6171126e-009"
     y="3.7988615e-015"
     ry="0" /><g
     id="g14237"
     transform="translate(0,0.32646049)"><g
       id="g14212"><g
         id="g12875"
         transform="translate(-36.43299,8.4226805)"
         style="fill:#6e470a;fill-opacity:1"><path
           id="path12860"
           d="M 62.715379,7.8151921 V 7.2052258 c 0.145244,0.058096 0.319496,0.1452386 0.46474,0.2323795 L 62.715379,6.0143567 V 4.99774 H 64.1096 v 0.1742672 c -0.116217,0 -0.174289,0.029054 -0.174289,0.1452385 0,0.029054 0.05807,0.1452202 0.08714,0.3776053 0.11618,0.2033343 0.203297,0.4647406 0.290469,0.8132823 0.116163,0.2904514 0.232343,0.6971017 0.406632,1.1327972 0.145244,0.4647406 0.232343,0.7261469 0.261407,0.8423274 0.02905,0.05809 0.08715,0.1452257 0.08715,0.203316 0.02905,0.087135 0.05807,0.1452257 0.116181,0.2614063 0.02904,0.029045 0.05807,0.1161805 0.145226,0.1452257 0.05811,0.087154 0.08714,0.1161989 0.203297,0.1161989 V 9.3546305 H 63.267292 V 9.2094048 c 0.116181,0 0.174271,-0.05809 0.261425,-0.1161989 0.05809,-0.05809 0.05809,-0.1742709 0.05809,-0.2904514 0,-0.1452257 -0.02905,-0.2904514 -0.145244,-0.4356955 C 63.325382,8.2218333 63.180156,8.0766076 63.03493,7.9894722 62.947795,7.9023459 62.831633,7.8442465 62.715434,7.815205 Z"
           inkscape:connector-curvature="0"
           style="fill:#6e470a;fill-opacity:1" /><path
           id="path12858"
           d="M 69.42499,6.3048081 69.308791,6.362891 C 69.279746,6.1886238 69.163547,6.1014664 69.105456,6.0143493 69.018339,5.86912 68.90214,5.8110334 68.815005,5.7238979 68.698824,5.60771 68.582625,5.5496271 68.437418,5.4915184 68.292174,5.4624641 68.175994,5.43343 68.059813,5.43343 c -0.174271,0 -0.319515,0.029034 -0.464759,0.1452294 -0.145207,0.087126 -0.232343,0.2323611 -0.232343,0.3775868 0,0.1452367 0.05807,0.2323795 0.145226,0.2904514 0.116162,0.058112 0.290451,0.1452367 0.493767,0.2033343 l 0.755174,0.2323612 c 0.261443,0.058096 0.464759,0.1452257 0.609966,0.2614246 0.174253,0.058083 0.29047,0.203316 0.377624,0.3485417 0.08714,0.1452386 0.174252,0.3485601 0.174252,0.6099847 0,0.4647222 -0.261388,0.8713726 -0.755192,1.1908691 -0.348541,0.2614247 -0.871372,0.4066504 -1.452294,0.4066504 -0.261406,0 -0.551857,-0.05809 -0.958508,-0.116199 -0.17427,-0.029027 -0.348541,-0.05809 -0.435695,-0.05809 -0.116162,0 -0.232398,0.029045 -0.34856,0.1452441 L 65.823245,7.6409195 65.968471,7.58282 c 0.05811,0.2614246 0.145262,0.4937857 0.290451,0.6971017 0.145263,0.2033344 0.319534,0.3776052 0.522868,0.4937858 0.232361,0.1161805 0.493767,0.1742708 0.726147,0.1742708 0.145226,0 0.290451,-0.029045 0.464722,-0.05809 0.145226,-0.05809 0.232343,-0.1161805 0.319497,-0.2323795 C 68.408355,8.5994183 68.4374,8.4541926 68.4374,8.2799033 68.4374,8.1346776 68.408355,7.9894519 68.263129,7.93138 68.146948,7.9023257 68.001704,7.7861378 67.798388,7.7570871 L 67.160498,7.5241745 C 66.781808,7.407994 66.52077,7.2918134 66.346131,7.1465877 66.230318,7.0884974 66.171493,6.9432717 66.085093,6.798046 66.027039,6.6528258 65.968931,6.5075946 65.968931,6.3623689 c 0,-0.1161952 0.05811,-0.2614246 0.08712,-0.4066503 0.05814,-0.1452202 0.116217,-0.2904514 0.203334,-0.3775868 0.08717,-0.1452294 0.203334,-0.2614247 0.319533,-0.3194966 0.34856,-0.2323795 0.755211,-0.3776052 1.219933,-0.3776052 0.174271,0 0.406613,0.087137 0.69712,0.1161806 0.203316,0.029045 0.319497,0.029045 0.34856,0.029045 0.174271,0 0.319478,-0.029045 0.435659,-0.1452257 l 0.145244,1.4232487 z"
           inkscape:connector-curvature="0"
           style="fill:#6e470a;fill-opacity:1" /><path
           id="path12856"
           d="m 62.715379,4.9977216 v 1.0166167 l -0.02905,-0.1161769 -0.464703,1.2199143 c 0.17427,0 0.348523,0.029054 0.493767,0.087137 V 7.8151791 C 62.512081,7.7280402 62.308765,7.6989877 62.04734,7.6989877 l -0.261406,0.6680566 c -0.05809,0.2614246 -0.116199,0.4356955 -0.116199,0.551876 0,0.1742709 0.116199,0.2614063 0.348579,0.2904514 V 9.3545974 H 60.536956 V 9.2093717 c 0.116181,-0.029045 0.203316,-0.05809 0.261406,-0.1452257 0.08714,-0.1161805 0.145226,-0.1452257 0.17429,-0.2614062 0.05809,-0.1161806 0.11618,-0.1742893 0.203297,-0.3485601 l 1.016654,-2.7592883 c 0.08708,-0.203316 0.116162,-0.2904514 0.116162,-0.3776052 0,-0.058085 -0.02908,-0.1452386 -0.145263,-0.1452386 V 4.9977805 h 0.551895 z"
           inkscape:connector-curvature="0"
           style="fill:#6e470a;fill-opacity:1" /><path
           id="path12854"
           d="M 48.279576,7.8151002 V 7.234179 c 0.145226,0.058083 0.29047,0.1161843 0.464741,0.203316 L 48.279576,6.0723367 v -1.074707 h 1.365177 v 0.1742672 c -0.116199,0 -0.145226,0.029054 -0.145226,0.1452386 0,0.029054 0,0.1452201 0.116162,0.3776052 0.02905,0.2033343 0.145245,0.4647406 0.261425,0.8132823 0.05811,0.2904514 0.203334,0.6971017 0.34856,1.1327972 0.203335,0.4647406 0.261425,0.7261469 0.290452,0.8423274 0.05809,0.05809 0.05809,0.1452257 0.08714,0.203316 0.02904,0.087135 0.05809,0.1452257 0.116181,0.2614063 0.02904,0.029045 0.116198,0.1161805 0.145244,0.1452257 0.05809,0.087154 0.145207,0.1161989 0.203316,0.1161989 V 9.3545202 H 48.802486 V 9.2092945 c 0.08715,0 0.174289,-0.05809 0.261424,-0.1161989 0.05807,-0.05809 0.116181,-0.1742709 0.116181,-0.2904514 0,-0.1452257 -0.08714,-0.2904514 -0.203334,-0.4356955 C 48.889616,8.221723 48.744372,8.0764973 48.57012,7.9893619 48.482984,7.93129 48.366804,7.8731813 48.27965,7.8150947 Z"
           inkscape:connector-curvature="0"
           style="fill:#6e470a;fill-opacity:1" /><path
           id="path12852"
           d="m 54.611601,5.8400307 c 0,-0.4356771 -0.145226,-0.6680566 -0.406651,-0.6680566 V 4.9977069 h 1.307068 v 0.1742672 c -0.145207,0 -0.203334,0.029054 -0.290469,0.1452386 -0.02905,0.1161879 -0.05809,0.2904514 -0.05809,0.5228309 v 2.6721528 c 0,0.2614063 0.02905,0.4356771 0.05809,0.5518761 0.08713,0.087135 0.145262,0.1452257 0.290469,0.1452257 V 9.3545239 H 54.20495 V 9.2092982 c 0.203316,-0.029045 0.319515,-0.1452257 0.319515,-0.406632 0,-0.1161805 -0.02904,-0.203316 -0.116199,-0.34856 C 54.350176,8.3379256 54.263041,8.221745 54.117815,8.076501 L 52.17179,5.81098 v 2.7302432 c 0,0.2323795 0,0.4066503 0.08714,0.5228309 0.02904,0.087135 0.145244,0.1452257 0.261443,0.1452257 V 9.3545055 H 51.213286 V 9.2092798 c 0.145245,0 0.23238,-0.05809 0.319515,-0.1452257 0.02905,-0.1161806 0.05807,-0.2904514 0.05807,-0.5228309 v -2.701198 c 0,-0.2323611 -0.02904,-0.406632 -0.05807,-0.5228309 C 51.445662,5.20101 51.358527,5.1719557 51.213282,5.1719557 V 4.9976885 h 2.555973 v 0.1742672 c -0.116181,0.029054 -0.203316,0.1161953 -0.203316,0.1742929 0,0.087134 0.11618,0.2323611 0.290451,0.406632 l 0.755192,0.9294812 V 5.8400344 Z"
           inkscape:connector-curvature="0"
           style="fill:#6e470a;fill-opacity:1" /><path
           id="path12850"
           d="M 60.536993,9.3546765 V 9.2094508 c -0.145226,0 -0.203353,-0.05809 -0.319515,-0.1452257 C 60.188433,8.9770896 60.072271,8.8318639 60.043189,8.6866382 59.90164,8.3355229 59.783989,7.9879004 59.638763,7.697449 59.52295,7.4069976 59.348311,7.1455914 59.203086,6.85514 59.000873,6.5937337 58.826234,6.3613726 58.565196,6.0999663 L 58.883222,5.8095149 C 59.348311,5.4319281 59.783989,5.1993831 60.133266,5.170338 V 4.9960708 H 58.245331 V 5.170338 c 0.05809,0 0.145263,0 0.174271,0.087154 0.08715,0.029041 0.116162,0.058085 0.116162,0.1742708 0,0.029034 0,0.058089 -0.08712,0.1742709 -0.02905,0.058083 -0.08715,0.145222 -0.174289,0.203316 -0.08712,0.058096 -0.145225,0.1452202 -0.174271,0.2033159 l -0.69712,0.6390115 V 5.8674399 c 0,-0.2614246 0,-0.4356954 0.05809,-0.551876 0.02904,-0.1161842 0.145244,-0.1452386 0.290451,-0.1452386 V 4.9960582 h -2.09125 v 0.1742671 c 0.145207,0 0.232343,0.029054 0.290451,0.1452386 0.05807,0.1161879 0.08714,0.2904514 0.08714,0.5228309 v 2.701198 c 0,0.2323795 -0.02905,0.4066504 -0.08714,0.5228309 -0.05813,0.087136 -0.145262,0.1452257 -0.290451,0.1452257 v 0.1452257 h 2.14934 V 9.2076494 c -0.145262,0 -0.261461,-0.05809 -0.319533,-0.1452257 C 57.40293,8.946243 57.40293,8.7719721 57.40293,8.5395926 V 7.1453891 l 0.203335,-0.17428 c 0.290451,0.3194966 0.522812,0.6099663 0.638993,0.9294813 0.05809,0.145222 0.174271,0.3194965 0.203334,0.5809211 0.116199,0.203316 0.145244,0.3485417 0.145244,0.4937858 0,0.1161622 -0.08714,0.2323611 -0.290488,0.2323611 v 0.1452257 h 2.236476 z"
           inkscape:connector-curvature="0"
           style="fill:#6e470a;fill-opacity:1" /><path
           id="path12848"
           d="m 48.279576,4.9977216 v 1.074707 l -0.05807,-0.1742672 -0.40665,1.2199143 c 0.145207,0 0.290451,0.029054 0.464722,0.1161916 V 7.8151885 C 48.047197,7.7280494 47.843899,7.6989969 47.582475,7.6989969 l -0.261407,0.6680566 c -0.05809,0.2614246 -0.08712,0.4356954 -0.08712,0.551876 0,0.1742708 0.08712,0.2614063 0.290452,0.2904514 V 9.3546066 H 46.072069 V 9.2093809 c 0.08714,-0.029045 0.203316,-0.05809 0.319515,-0.1452257 0.02904,-0.1161806 0.08713,-0.1452257 0.145244,-0.2614063 0.02905,-0.1161805 0.08714,-0.1742892 0.174271,-0.34856 l 1.016617,-2.7592883 c 0.08713,-0.203316 0.116162,-0.2904514 0.116162,-0.3776052 0,-0.058085 -0.02905,-0.1452386 -0.145226,-0.1452386 V 4.9977897 h 0.580903 z"
           inkscape:connector-curvature="0"
           style="fill:#6e470a;fill-opacity:1" /><path
           id="path12846"
           d="M 43.69026,9.3546765 V 8.918981 c 0.145226,0 0.261407,-0.029045 0.377606,-0.087135 0.145225,-0.05809 0.261406,-0.1742709 0.377586,-0.3194966 0.05809,-0.1452441 0.08714,-0.2904514 0.08714,-0.4647406 0,-0.2614063 -0.05807,-0.4647406 -0.203335,-0.6390115 -0.11618,-0.1742671 -0.290469,-0.3194965 -0.522794,-0.4356771 l -0.116199,0.029041 V 6.5081938 c 0.145226,-0.058092 0.290452,-0.1742837 0.406669,-0.2614246 0.08713,-0.1161806 0.145226,-0.2323611 0.145226,-0.406632 0,-0.116175 -0.05809,-0.2323611 -0.174289,-0.2904514 C 43.98073,5.4625321 43.835486,5.433498 43.69026,5.433498 V 4.9978025 h 0.668057 c 0.261425,0 0.435677,0.029045 0.580939,0.029045 0.203316,0.029054 0.290452,0.1161879 0.435696,0.1742763 0.116162,0.1161843 0.203298,0.2614063 0.203298,0.4647223 0,0.2323795 -0.116163,0.4356954 -0.348524,0.6099663 -0.203334,0.1452257 -0.464722,0.2904698 -0.755192,0.4356771 0.261388,0.029054 0.464722,0.1161842 0.726129,0.2323795 0.232379,0.1452238 0.377587,0.2904514 0.522831,0.4647222 0.145225,0.1742764 0.203316,0.4356955 0.203316,0.6680566 0,0.2614247 -0.05809,0.4356955 -0.145244,0.6099847 -0.145226,0.203316 -0.29047,0.3485417 -0.493786,0.4647223 -0.145226,0.087135 -0.348542,0.1452257 -0.551876,0.1742708 -0.23238,0.029045 -0.435696,0.029045 -0.755192,0.029045 H 43.69026 Z"
           inkscape:connector-curvature="0"
           style="fill:#6e470a;fill-opacity:1" /><path
           id="path12844"
           d="m 43.69026,4.9977216 v 0.4356955 h -0.02905 c -0.232379,0 -0.377605,0.029034 -0.435695,0.1161879 -0.02905,0.029041 -0.08714,0.1452221 -0.08714,0.3194966 V 6.711429 c 0.145226,-0.029041 0.34856,-0.1161677 0.522831,-0.17428 0.02905,0 0.02905,-0.029034 0.02905,-0.029034 v 0.4937674 l -0.551857,0.1452385 v 1.3361132 c 0,0.1452257 0,0.203316 0.05809,0.2904514 0,0.029045 0.02905,0.05809 0.08714,0.1452257 h 0.261425 0.145226 V 9.3546067 H 41.424759 V 9.209381 c 0.145207,0 0.261388,-0.05809 0.290451,-0.1452257 0.02904,-0.1161806 0.08714,-0.2904514 0.08714,-0.5228309 v -2.701198 c 0,-0.2323611 -0.05809,-0.406632 -0.08714,-0.5228309 C 41.68616,5.2011112 41.569966,5.1720569 41.424759,5.1720569 V 4.9977898 h 2.265521 z"
           inkscape:connector-curvature="0"
           style="fill:#6e470a;fill-opacity:1" /></g></g><g
       style="fill:#6e470a;fill-opacity:1"
       id="g12862"><path
         inkscape:connector-curvature="0"
         style="fill:#6e470a;fill-opacity:1"
         d="M 31.055257,9.4999022 V 8.918981 h 0.08713 c 0.203298,0 0.377624,-0.087135 0.493786,-0.1452257 0.08713,-0.1161806 0.203316,-0.2614063 0.232379,-0.4356955 0.116199,-0.2323611 0.174271,-0.5228309 0.174271,-0.9004177 0,-0.4647406 -0.05809,-0.9004361 -0.203334,-1.2489594 -0.05807,-0.08715 -0.116181,-0.2323795 -0.203316,-0.319515 -0.08713,-0.1452293 -0.203298,-0.2033343 -0.29047,-0.2904514 -0.08713,-0.058099 -0.174271,-0.087141 -0.290451,-0.1161952 V 4.8816183 h 0.02904 c 0.203353,0 0.435714,0.029041 0.609985,0.087137 0.232342,0.029043 0.40665,0.087143 0.638993,0.1742764 0.174271,0.058087 0.319496,0.1742708 0.464722,0.3194965 0.261425,0.2323795 0.406669,0.4937858 0.522831,0.7842372 0.11618,0.3195149 0.174289,0.6099847 0.174289,0.9875715 0,0.1742672 0,0.4066504 -0.05813,0.6099663 -0.05807,0.203316 -0.174271,0.3776053 -0.232343,0.5518761 C 33.08844,8.5994953 32.97226,8.744721 32.827034,8.8318564 32.6237,9.0642175 32.362293,9.2094616 32.042797,9.3256422 31.723282,9.4418227 31.403804,9.499913 31.084271,9.499913 h -0.02905 z"
         id="path12842" /><path
         inkscape:connector-curvature="0"
         style="fill:#6e470a;fill-opacity:1"
         d="m 37.474417,6.3049368 -0.174271,0.058083 C 37.271101,6.1887525 37.213029,6.101595 37.125875,6.014478 37.067748,5.8692486 36.951586,5.811162 36.835423,5.7240266 36.719224,5.6078387 36.603044,5.5497558 36.457818,5.4916471 c -0.145225,-0.029054 -0.232361,-0.058088 -0.34856,-0.058088 -0.203316,0 -0.348578,0.029034 -0.493786,0.1452293 -0.145244,0.087126 -0.203316,0.2323612 -0.203316,0.3775869 0,0.1452367 0.05807,0.2323795 0.145226,0.2904514 0.116181,0.058112 0.261425,0.1452367 0.493786,0.2033343 l 0.784237,0.2323611 c 0.174271,0.058096 0.406614,0.1452257 0.551858,0.2614247 0.145225,0.058083 0.290451,0.203316 0.40665,0.3485417 0.05807,0.1452385 0.145207,0.34856 0.145207,0.6099847 0,0.4647222 -0.261406,0.8713726 -0.726128,1.1908691 -0.377587,0.2614246 -0.900436,0.4066503 -1.510403,0.4066503 -0.232379,0 -0.52283,-0.05809 -0.929481,-0.1161989 -0.174289,-0.029027 -0.319496,-0.05809 -0.435677,-0.05809 -0.116199,0 -0.203334,0.029045 -0.319533,0.1452441 l -0.145208,-1.829899 0.145208,-0.058099 c 0.02904,0.2614246 0.116199,0.4937857 0.261424,0.6971017 0.145245,0.2033344 0.319497,0.3776052 0.551895,0.4937858 0.203316,0.1161805 0.435677,0.1742708 0.726147,0.1742708 0.145225,0 0.290451,-0.029045 0.435677,-0.05809 0.11618,-0.05809 0.261406,-0.1161805 0.319515,-0.2323795 0.116162,-0.05809 0.145225,-0.203316 0.145225,-0.3776052 0,-0.1452257 -0.05809,-0.2904514 -0.17427,-0.3485233 C 36.16733,7.9024544 36.022086,7.7862665 35.847815,7.7572158 L 35.154776,7.5243032 C 34.834912,7.4081227 34.573873,7.2919421 34.428648,7.1467164 34.283422,7.0886261 34.165771,6.9434004 34.138196,6.7981747 34.051061,6.6529545 34.021997,6.5077233 34.021997,6.3624976 c 0,-0.1161953 0,-0.2614246 0.05813,-0.4066503 0.05807,-0.1452202 0.116144,-0.2904514 0.232361,-0.3775868 0.05809,-0.1452294 0.17429,-0.2614247 0.290452,-0.3194966 0.377623,-0.2323795 0.755192,-0.3776052 1.248978,-0.3776052 0.145225,0 0.406632,0.087137 0.69712,0.1161806 0.174271,0.029045 0.290451,0.029045 0.319496,0.029045 0.203316,0 0.34856,-0.029045 0.435696,-0.1452257 l 0.174271,1.4232486 z"
         id="path12840" /><path
         inkscape:connector-curvature="0"
         style="fill:#6e470a;fill-opacity:1"
         d="m 31.055257,4.8816881 v 0.5809028 h -0.08714 c -0.145207,0 -0.290451,0.029054 -0.435658,0.1452368 -0.116199,0.1161879 -0.203335,0.2614246 -0.290452,0.4066503 -0.08713,0.2323611 -0.145244,0.5518761 -0.145244,0.9294629 0,0.4647222 0.05811,0.9004177 0.203298,1.2489778 0.08713,0.1742708 0.174271,0.3485416 0.348578,0.4937857 0.145226,0.1452257 0.261406,0.203316 0.406614,0.2323611 v 0.5809212 c -0.290452,0 -0.638993,-0.05809 -0.929445,-0.1452257 C 29.777234,9.2385805 29.544873,9.0933364 29.312512,8.9190655 29.167268,8.7738398 29.02206,8.599569 28.934906,8.3962346 c -0.08713,-0.1742892 -0.17427,-0.34856 -0.232361,-0.5809211 -0.05809,-0.2323795 -0.05809,-0.4066504 -0.05809,-0.6680566 0,-0.319515 0.05809,-0.6390115 0.203316,-0.9004362 0.08713,-0.2904514 0.29047,-0.5228125 0.493786,-0.755192 0.232379,-0.1742763 0.493785,-0.3195149 0.784255,-0.4356771 0.290452,-0.087143 0.609967,-0.17428 0.929445,-0.17428 z"
         id="path12838" /><path
         inkscape:connector-curvature="0"
         style="fill:#6e470a;fill-opacity:1"
         d="M 12.321141,9.3548235 V 8.8610378 c 0.116185,-0.029045 0.203316,-0.087136 0.29047,-0.1742709 0.174293,-0.1452441 0.319497,-0.34856 0.435696,-0.6099847 0.08714,-0.2323611 0.116167,-0.4937857 0.116167,-0.7261469 0,-0.2033159 -0.02904,-0.4066503 -0.08714,-0.6390114 C 13.049864,6.5081241 12.933682,6.2757629 12.875592,6.1014921 12.759411,5.8981761 12.614186,5.7529504 12.439915,5.6077247 12.410875,5.5786837 12.352795,5.5786837 12.32373,5.5496417 V 5.0268108 h 0.05811 c 0.17428,0 0.348542,0.029054 0.493786,0.087137 0.145215,0.029051 0.290433,0.058083 0.40665,0.1452367 0.14522,0.058085 0.290433,0.1742708 0.435677,0.2323611 0.261425,0.2323795 0.464741,0.5228309 0.609967,0.8133007 0.145233,0.3485417 0.232379,0.6680382 0.232379,0.9875531 0,0.3485601 -0.02904,0.6099847 -0.145249,0.9004361 -0.116181,0.2614063 -0.261425,0.4647223 -0.464723,0.6389931 -0.34856,0.3485601 -0.900417,0.5228309 -1.626583,0.5228309 z"
         id="path12836" /><path
         inkscape:connector-curvature="0"
         style="fill:#6e470a;fill-opacity:1"
         d="m 17.026638,9.3548235 h -2.09125 V 9.2095978 c 0.08713,0 0.203334,-0.05809 0.232361,-0.1452257 0.08714,-0.1161805 0.116171,-0.2904514 0.116171,-0.5228309 v -2.701198 c 0,-0.2323611 -0.02904,-0.406632 -0.116171,-0.5228309 C 15.138709,5.2013281 15.022516,5.1722737 14.935388,5.1722737 V 4.9980066 h 2.09125 v 0.1742671 c -0.145211,0 -0.261388,0.029054 -0.290451,0.1452386 -0.05807,0.1161879 -0.116181,0.2904514 -0.116181,0.5228309 v 2.701198 c 0,0.2323795 0.05811,0.4066504 0.116181,0.5228309 0.02904,0.087135 0.145249,0.1452257 0.290451,0.1452257 z"
         id="path12834" /><path
         inkscape:connector-curvature="0"
         style="fill:#6e470a;fill-opacity:1"
         d="m 21.296457,9.5000492 c -0.02904,-0.029045 -0.05809,-0.05809 -0.145244,-0.05809 -0.02904,0 -0.05809,-0.058109 -0.174271,-0.058109 l -0.958508,0.1161989 c -0.348578,0 -0.69712,-0.05809 -1.045643,-0.1742708 C 18.625352,9.23754 18.334901,9.0647398 18.073862,8.8901013 17.812824,8.6566372 17.608772,8.4544242 17.463547,8.1051472 17.318321,7.8148796 17.231921,7.4953831 17.231921,7.0887511 c 0,-0.3485417 0.08712,-0.6680566 0.203316,-0.9294628 0.145226,-0.2904514 0.290451,-0.4937858 0.493786,-0.6971202 0.261424,-0.1742635 0.493767,-0.3194965 0.813282,-0.4356771 0.290451,-0.058088 0.580921,-0.1452257 0.958508,-0.1452257 0.261443,0 0.580921,0.087137 0.958508,0.1161806 0.116199,0.029045 0.174271,0.029045 0.203334,0.029045 0.203316,0 0.261407,-0.058088 0.34856,-0.1742671 l 0.348542,1.8588889 -0.08713,0.087137 C 21.384383,6.5368438 21.239158,6.3044827 21.123345,6.1302119 20.978119,5.8978507 20.80348,5.752625 20.601267,5.6654896 20.397216,5.4912188 20.16559,5.4619898 19.961539,5.4619898 c -0.261443,0 -0.522831,0.087154 -0.697102,0.203316 -0.203316,0.1452386 -0.348578,0.3485601 -0.40665,0.5809212 -0.116199,0.2033343 -0.145226,0.4356955 -0.145226,0.7261652 0,0.2323612 0,0.4356771 0.116181,0.6680566 0.02904,0.2614247 0.145244,0.4356771 0.232379,0.6099664 0.203316,0.2323795 0.377587,0.3776052 0.551858,0.4937857 0.261406,0.087136 0.493786,0.1742709 0.755174,0.1742709 0.290451,0 0.580921,-0.087135 0.784255,-0.2614247 0.23238,-0.1452257 0.406632,-0.3776052 0.522813,-0.6680566 l 0.145244,0.087137 -0.522831,1.4232486 z"
         id="path12832" /><path
         inkscape:connector-curvature="0"
         style="fill:#6e470a;fill-opacity:1"
         d="M 24.026701,9.3548235 H 21.964496 V 9.2095978 c 0.11618,0 0.203316,-0.05809 0.261406,-0.1452257 0.08715,-0.1161805 0.08715,-0.2904514 0.08715,-0.5228309 v -2.701198 c 0,-0.2323611 0,-0.406632 -0.08715,-0.5228309 C 22.167812,5.2013281 22.080676,5.1722737 21.964496,5.1722737 V 4.9980066 h 2.062205 v 0.1742671 c -0.145245,0 -0.232398,0.029054 -0.290452,0.1452386 -0.02904,0.1161879 -0.08713,0.2904514 -0.08713,0.5228309 v 2.701198 c 0,0.2323795 0.05807,0.4066504 0.08713,0.5228309 0.05807,0.087135 0.145207,0.1452257 0.290452,0.1452257 z"
         id="path12830" /><path
         inkscape:connector-curvature="0"
         style="fill:#6e470a;fill-opacity:1"
         d="m 27.512117,5.8401778 c 0,-0.4356771 -0.145207,-0.6680566 -0.406613,-0.6680566 V 4.997854 h 1.336113 v 0.1742672 c -0.116199,0 -0.23238,0.029054 -0.261425,0.1452385 -0.08713,0.1161879 -0.08713,0.2904514 -0.08713,0.5228309 v 2.6721529 c 0,0.2614063 0,0.4356771 0.08713,0.5518761 0.02904,0.087135 0.145244,0.1452257 0.261425,0.1452257 V 9.354671 H 27.105504 V 9.2094453 c 0.232342,-0.029045 0.377587,-0.1452257 0.377587,-0.406632 0,-0.1161806 -0.02908,-0.203316 -0.116181,-0.3485601 C 27.30882,8.3380727 27.192639,8.2218921 27.076459,8.076648 l -1.97507,-2.2655209 v 2.7302432 c 0,0.2323795 0.02904,0.4066503 0.05811,0.5228309 0.08712,0.087135 0.145207,0.1452257 0.290451,0.1452257 V 9.3546526 H 24.171927 V 9.2094269 c 0.116162,0 0.232343,-0.05809 0.290433,-0.1452257 C 24.52047,8.9480206 24.5495,8.7737498 24.5495,8.5413703 V 5.8401722 c 0,-0.2323611 -0.02904,-0.4066319 -0.08714,-0.5228309 C 24.40427,5.2011571 24.288089,5.1721028 24.171927,5.1721028 V 4.9978356 h 2.526927 v 0.1742672 c -0.08713,0.029054 -0.17427,0.1161952 -0.17427,0.1742929 0,0.087134 0.08713,0.2323611 0.290451,0.4066319 l 0.697083,0.9294813 V 5.8401814 Z"
         id="path12828" /><path
         inkscape:connector-curvature="0"
         style="fill:#6e470a;fill-opacity:1"
         d="m 0.96338873,5.8982846 v 2.6140626 c 0,0.2614062 0,0.4066503 0.0871299,0.551876 0.05812,0.087135 0.145246,0.1452257 0.3195333,0.1452257 V 9.3546746 H 0.06298391 V 9.2094489 c 0.11618056,0 0.20331598,-0.05809 0.26142464,-0.1452257 0.0290451,-0.1161805 0.0580719,-0.2904514 0.0580719,-0.5228309 v -2.701198 c 0,-0.2323611 -0.0290451,-0.406632 -0.0580719,-0.5228309 C 0.26628883,5.2011792 0.17915892,5.1721248 0.06298388,5.1721248 V 4.9978577 H 2.2994597 V 5.1721248 C 2.1832809,5.2011792 2.125198,5.2592786 2.125198,5.3173634 c 0,0.029054 0.029045,0.1161879 0.058083,0.1742764 L 2.273174,5.6933013 2.6217157,6.5646555 3.1154831,5.6642561 c 0.058083,-0.203316 0.087137,-0.3194965 0.087137,-0.3485417 0,-0.058085 -0.029045,-0.1161842 -0.087137,-0.1452385 V 4.9962087 h 2.09125 v 0.1742672 c -0.1452496,0 -0.2323795,0.029054 -0.2904514,0.1452385 -0.058099,0.116188 -0.087143,0.2904514 -0.087143,0.5228309 v 2.7011981 c 0,0.2323795 0.029045,0.4066503 0.087143,0.5228309 C 4.9743534,9.1497097 5.0614907,9.2078 5.2067329,9.2078 v 0.1452257 h -2.09125 V 9.2078 c 0.1452201,0 0.2033343,-0.05809 0.2904514,-0.1452257 0.058096,-0.1161806 0.058096,-0.2904514 0.058096,-0.5228309 V 5.8966356 L 2.1860441,8.5103306 0.96614822,5.8968195 Z"
         id="path12826" /><path
         inkscape:connector-curvature="0"
         style="fill:#6e470a;fill-opacity:1"
         d="M 12.320406,5.0268936 V 5.5497245 C 12.177754,5.46167 12.003483,5.4328086 11.858258,5.4328086 c -0.174262,0 -0.261407,0.058088 -0.319497,0.1742709 -0.02905,0.1161879 -0.0581,0.2614246 -0.0581,0.4356955 v 2.1493403 c 0,0.1742709 0.02904,0.3194966 0.02904,0.4356771 0,0.058109 0.08713,0.1452441 0.145202,0.203316 0.02904,0.087135 0.145257,0.087135 0.29047,0.087135 0.145246,0 0.261425,-0.029045 0.377587,-0.058109 V 9.3539201 H 12.206805 9.737968 V 9.2086944 c 0.1742672,0 0.2614063,-0.05809 0.319497,-0.1452257 0.02904,-0.1161805 0.05809,-0.2904514 0.05809,-0.5228309 v -2.701198 c 0,-0.2323611 -0.02904,-0.406632 -0.05809,-0.5228309 C 9.9993906,5.2004255 9.9122515,5.1713711 9.737977,5.1713711 V 4.997104 h 2.14934 c 0.145226,0 0.29047,0.029045 0.435677,0.029045 z"
         id="path12824" /><path
         inkscape:connector-curvature="0"
         style="fill:#6e470a;fill-opacity:1"
         d="M 5.3493887,9.3548033 V 9.2095776 c 0.1161842,0 0.203316,-0.05809 0.2614246,-0.1452257 0.058083,-0.1161806 0.058083,-0.2904514 0.058083,-0.5228309 V 5.840323 c 0,-0.2323611 0,-0.406632 -0.058083,-0.5228309 C 5.5527047,5.2013078 5.4655674,5.1722535 5.3493887,5.1722535 V 4.9979864 h 2.9918332 0.1742635 c 0.1742672,0 0.319515,0 0.3775869,-0.1161806 L 9.2441876,6.4195437 9.0989619,6.5066792 C 9.0118264,6.1581375 8.8375556,5.8967312 8.5761493,5.7224604 8.3147431,5.5481895 8.0241078,5.432009 7.646521,5.432009 c -0.17428,0 -0.3194965,0.029034 -0.3776052,0.058088 -0.087143,0.058099 -0.1452257,0.1161824 -0.1452257,0.203316 -0.058096,0.058083 -0.087139,0.2033344 -0.087139,0.3485601 v 0.2032976 0.17428 h 0.2614247 0.145222 c 0.203316,0 0.406632,-0.029041 0.5228309,-0.058083 0.087143,-0.087143 0.1742672,-0.2323795 0.1742672,-0.4647223 L 8.2855455,5.8676914 8.5759969,7.5523463 H 8.4307583 C 8.3438066,7.3780756 8.2566712,7.2328499 8.1112616,7.0876242 8.0241262,7.0004888 7.9081295,6.9423985 7.8209941,6.9423985 7.7046297,6.8552631 7.588633,6.8552631 7.4434073,6.8552631 H 7.2691199 7.0367588 V 8.133286 8.336602 c 0,0.203316 0.087139,0.3485601 0.1742763,0.4647407 0.1161842,0.087135 0.2614063,0.1161805 0.4937858,0.1161805 0.755192,0 1.3361132,-0.4066503 1.7427451,-1.2199326 L 9.5928028,7.7556864 9.0119,9.4984499 C 8.953817,9.382251 8.8376236,9.3532242 8.6052312,9.3532242 H 5.3521756 Z"
         id="path6780" /></g></g></svg>