<svg xmlns="http://www.w3.org/2000/svg" fill="none" viewBox="0 0 38 24" height="24" width="38" aria-labelledby="pi-medicinosbankas" role="img"><title id="pi-medicinosbankas">Medicinos bankas</title><path fill="#fff" d="M0 0h38v24H0z"/><path fill="#074455" d="m29.131 14.24-.1.016a1.003 1.003 0 0 0-.146-.255 1.293 1.293 0 0 0-.218-.215 1.058 1.058 0 0 0-.268-.146.844.844 0 0 0-.286-.053c-.12 0-.24.035-.34.102a.326.326 0 0 0-.159.284c0 .103.04.18.119.224.074.044.193.094.352.146l.57.172c.162.05.305.109.423.177a.815.815 0 0 1 .283.271.801.801 0 0 1 .103.42c0 .371-.171.667-.517.891-.286.194-.654.29-1.096.29-.184 0-.411-.025-.685-.075a2.045 2.045 0 0 0-.321-.046.372.372 0 0 0-.265.115l-.105-1.361.105-.016a1.217 1.217 0 0 0 .61.863c.129.07.27.113.416.127.686.065 1.136-.657.323-.887l-.492-.159c-.262-.084-.452-.171-.567-.265-.477-.385-.3-1.086.162-1.4.255-.175.56-.263.915-.263.113 0 .278.022.502.063.14.025.224.04.255.04.137 0 .237-.04.302-.118l.125 1.059v-.001Z"/><path fill="#074455" fill-rule="evenodd" d="M24.188 13.275v.75l-.03-.102-.309.919c.112 0 .226.018.339.059l.001.44a1.36 1.36 0 0 0-.49-.085l-.177.498c-.05.126-.08.258-.093.393 0 .127.074.2.224.218v.121H22.59v-.006h.01v-.115h-.01v-.003a.413.413 0 0 0 .196-.112.779.779 0 0 0 .134-.178c.031-.062.072-.153.118-.265l.766-2.024a.869.869 0 0 0 .085-.265c0-.071-.038-.112-.11-.121v-.122h.409Zm0 2.065v-.439c.113.04.228.1.34.18l-.34-1.058v-.748h1.019v.122c-.075.01-.112.05-.112.121 0 .016.025.103.075.259.244.777.437 1.667.825 2.388a.458.458 0 0 0 .109.134.332.332 0 0 0 .155.066v.121h-1.681v-.121a.3.3 0 0 0 .193-.088.268.268 0 0 0 .075-.199.577.577 0 0 0-.125-.333 1.137 1.137 0 0 0-.286-.274 1.158 1.158 0 0 0-.247-.131Z" clip-rule="evenodd"/><path fill="#074455" d="M22.59 16.362v.003c-.106-.003-.183-.034-.233-.094a1.024 1.024 0 0 1-.152-.29c-.232-.694-.556-1.364-1.072-1.892l.25-.213c.326-.277.632-.436.915-.48v-.12h-1.414v.12c.056.004.11.02.156.05a.15.15 0 0 1 .071.131c0 .038-.018.082-.059.134-.04.055-.083.107-.13.156l-.137.134-.52.467v-.56c0-.178.018-.309.059-.39.04-.078.109-.118.208-.121l-.006-.122h-1.532v.122c.1 0 .168.037.209.112.04.075.062.202.062.377v1.99c0 .174-.022.299-.062.374-.041.077-.11.115-.21.115v.121h1.567v-.121a.25.25 0 0 1-.224-.119c-.05-.077-.072-.202-.072-.37v-1.003l.169-.156c.312.37.728.96.728 1.48 0 .106-.074.162-.224.168v.115h1.653v.006h-.009v-.121l.009-.003Zm-9.037-1.022v-.439c.112.04.227.1.34.18l-.34-1.058v-.748h1.018v.122c-.074.01-.112.05-.112.121 0 .016.025.103.075.259.16.48.321.96.483 1.439.104.306.184.85.452 1.083a.332.332 0 0 0 .155.066v.121h-1.682v-.121a.3.3 0 0 0 .193-.088.268.268 0 0 0 .075-.199c-.015-.346-.356-.623-.657-.738Zm4.656-1.454c0-.327-.097-.49-.296-.49v-.12h.981v.12c-.1 0-.168.038-.209.113-.04.078-.059.202-.059.377v1.983c0 .175.019.3.06.377.04.075.109.113.208.113v.12h-.98v-.114c.164-.028.248-.122.248-.28a.538.538 0 0 0-.075-.28 2.117 2.117 0 0 0-.214-.281l-1.449-1.67v2.022c0 .171.019.296.06.374.037.077.106.115.205.115v.121h-.95v-.121c.1 0 .168-.038.209-.115.04-.075.062-.2.062-.374v-1.99c0-.175-.022-.302-.062-.377-.04-.075-.11-.112-.209-.112v-.122h1.866v.122c-.085.025-.128.068-.128.13 0 .06.065.162.196.315l.536.657v-.613Z"/><path fill="#074455" d="m13.553 14.026-.031-.103-.309.919c.113 0 .228.018.34.059v.439a1.359 1.359 0 0 0-.489-.084l-.177.498c-.05.126-.081.258-.094.393 0 .127.075.2.224.218v.121h-1.071v-.121a.423.423 0 0 0 .206-.115.774.774 0 0 0 .133-.178c.032-.062.072-.153.119-.265l.766-2.024a.861.861 0 0 0 .084-.265c0-.071-.037-.112-.109-.121v-.122h.408v.751Zm-3.348 2.46v-.327a.892.892 0 0 0 .265-.071c.398-.175.44-.724.205-1.047-.1-.14-.23-.254-.383-.333l-.087.031v-.358c.199-.1.532-.36.37-.625a.233.233 0 0 0-.102-.091.656.656 0 0 0-.268-.069v-.32h.492c1.166 0 .995.89.056 1.248.665.105 1.442.74.972 1.467a.98.98 0 0 1-.358.324 1.128 1.128 0 0 1-.411.137 3.959 3.959 0 0 1-.533.034h-.218Z"/><path fill="#074455" d="M10.205 13.276v.32h-.04c-.156 0-.259.025-.312.075-.034.031-.05.106-.05.224v.63c.119-.029.24-.072.362-.125l.04-.019v.358l-.402.134c0 .374-.065.803.016 1.171.01.044.034.075.078.093.04.02.106.028.2.028.036 0 .074-.003.108-.006v.327H8.533v-.121c.1 0 .171-.038.211-.115.038-.075.06-.2.06-.374v-1.99c0-.175-.022-.302-.06-.377-.04-.075-.112-.112-.211-.112v-.122h1.672v.001Zm17.68-2.433v-.42a.505.505 0 0 0 .405-.112.75.75 0 0 0 .212-.309c.065-.162.1-.38.1-.645 0-.367-.047-.67-.14-.912a1.157 1.157 0 0 0-.15-.271.877.877 0 0 0-.224-.205.504.504 0 0 0-.203-.075v-.42h.016c.159 0 .311.015.46.043.984.184 1.489 1.151 1.259 2.112-.037.149-.09.286-.165.417-.072.13-.159.243-.265.342-.347.313-.822.453-1.289.455h-.016Zm4.71-2.323-.104.012a1.045 1.045 0 0 0-.364-.47.943.943 0 0 0-.265-.143.79.79 0 0 0-.286-.053.62.62 0 0 0-.343.103.326.326 0 0 0-.155.283c0 .103.037.177.115.221.41.25.928.262 1.348.498a.78.78 0 0 1 .28.271c.275.463.007 1.039-.41 1.311-.29.193-.655.29-1.1.29a3.897 3.897 0 0 1-.682-.075 1.832 1.832 0 0 0-.32-.05.384.384 0 0 0-.265.116l-.11-1.358.11-.016c.03.187.1.358.205.508.106.15.24.268.402.355.262.135.567.164.85.08a.593.593 0 0 0 .252-.158.398.398 0 0 0 .1-.277c0-.118-.04-.203-.118-.256a1.44 1.44 0 0 0-.346-.149c-.436-.143-1.045-.233-1.265-.689a.81.81 0 0 1-.08-.326 1.025 1.025 0 0 1 .217-.592c.07-.087.147-.159.23-.218.256-.177.562-.265.92-.265.109 0 .277.022.501.066.137.025.221.037.252.037.14 0 .24-.037.306-.115l.125 1.059Zm-4.71-1.046v.42c-.025-.002-.05-.007-.075-.007a.457.457 0 0 0-.311.119.864.864 0 0 0-.218.299c-.075.171-.112.392-.112.663 0 .358.05.664.153.913.062.156.15.283.258.389.09.087.19.137.305.153v.42a2.355 2.355 0 0 1-.691-.109c-.943-.268-1.346-1.426-.959-2.283a1.55 1.55 0 0 1 .959-.862c.223-.076.456-.114.691-.115Zm-13.78 3.289v-.365a.687.687 0 0 0 .22-.128c.633-.544.502-1.9-.221-2.317v-.386l.05.003c.112.01.227.025.34.053 1.18.257 1.728 1.932.794 2.768-.265.234-.66.359-1.184.371l.001.001Zm3.437 0h-1.535v-.122c.097 0 .168-.038.206-.113.04-.074.062-.202.062-.376v-1.99c0-.175-.022-.3-.062-.374-.038-.078-.11-.115-.206-.115V7.55h1.535v.122a.225.225 0 0 0-.208.115c-.04.078-.06.202-.06.374v1.99c0 .174.02.299.06.373.043.078.112.116.208.116v.123Zm3.168.108a.15.15 0 0 0-.09-.065.567.567 0 0 0-.144-.013l-.697.05c-.274 0-.536-.037-.782-.112-.748-.22-1.297-.847-1.283-1.648 0-.702.429-1.295 1.102-1.504a2.3 2.3 0 0 1 .695-.106c.205 0 .439.025.7.075.078.013.14.019.181.019a.267.267 0 0 0 .246-.131l.277 1.386-.102.028a1.794 1.794 0 0 0-.246-.473 1.316 1.316 0 0 0-.377-.356.943.943 0 0 0-.486-.134c-1.274-.028-1.08 1.966-.217 2.41.163.084.342.129.525.132a1.019 1.019 0 0 0 .972-.667l.112.04-.386 1.069Zm2.005-.109h-1.538v-.121c.1 0 .168-.038.208-.113.041-.074.063-.202.063-.376v-1.99c0-.175-.022-.3-.063-.374-.04-.078-.109-.115-.208-.115V7.55h1.538v.122a.225.225 0 0 0-.208.115c-.04.078-.06.202-.06.374v1.99c0 .174.02.299.06.373.043.078.112.116.208.116v.122Zm2.567-2.6c0-.324-.1-.49-.296-.49v-.12h.98v.12c-.099 0-.167.041-.208.116-.04.075-.062.2-.062.374v1.987c0 .174.022.299.062.373.04.075.11.115.209.115v.122h-.981v-.118c.947-.143-1.458-2.472-1.489-2.508v2.019c0 .174.019.299.06.373.037.078.105.116.202.116v.121h-.947v-.121c.1 0 .168-.038.209-.113.04-.074.059-.202.059-.376v-1.99c0-.175-.019-.3-.06-.377-.04-.075-.109-.112-.208-.112V7.55h1.866v.122c-.406.114.501.979.604 1.105v-.615Zm-19.537.04v1.928c0 .18.022.308.066.39.043.077.118.117.227.12v.122h-.965v-.121c.096 0 .165-.038.202-.113.038-.074.056-.199.056-.376v-1.99c0-.178-.018-.302-.056-.377-.037-.075-.103-.112-.202-.112V7.55h1.644v.122c-.075.021-.112.062-.112.118 0 .298.258.664.37.919l.352-.695a.735.735 0 0 0 .078-.224c0-.056-.028-.097-.084-.118V7.55H8.87v.122c-.1 0-.168.04-.209.115-.04.075-.059.2-.059.374v1.99c0 .174.019.299.06.376.04.075.108.113.208.113v.121H7.321v-.121c.1 0 .171-.038.215-.116.044-.074.065-.199.065-.373v-1.95l-.937 1.922-.919-1.921Z"/><path fill="#074455" d="M14.104 7.567v.386a.736.736 0 0 0-.342-.081c-.125 0-.203.04-.23.115-.208.602-.14 1.595-.028 2.218.012.071.043.13.093.17.05.044.127.066.233.066.1 0 .191-.015.275-.043l-.001.364h-1.89v-.121c.1 0 .168-.038.208-.113.041-.074.06-.202.06-.376v-1.99c0-.175-.019-.3-.06-.374-.04-.075-.109-.115-.208-.115V7.55h1.55c.125.003.237.007.34.017Zm-5.142 3.195v-.121c.097 0 .169-.038.206-.113.04-.074.062-.202.062-.376v-1.99c0-.175-.022-.3-.062-.374-.037-.075-.11-.115-.206-.115V7.55h2.336c.144 0 .24-.025.287-.078l.249 1.125-.106.034c-.063-.224-.2-.42-.39-.555a1.101 1.101 0 0 0-.66-.205.734.734 0 0 0-.302.047.226.226 0 0 0-.121.137 1.1 1.1 0 0 0-.025.267V8.6c.334 0 .794.064.794-.392l.1-.016.215 1.236-.1.013A.919.919 0 0 0 11 9.08c-.202-.196-.51-.155-.769-.155v.94a1.18 1.18 0 0 0-.006.118c0 .175.04.296.118.362.081.065.2.096.361.096.561 0 .988-.302 1.284-.91l.102.041-.414 1.27c-.053-.052-.15-.08-.293-.08"/></svg>