<svg version="1.1" viewBox="0 0 38 24" enable-background="new 0 0 38 24;" xmlns="http://www.w3.org/2000/svg" role="img" width="38" height="24" aria-labelledby="pi-meeza">
<title  id="pi-meeza">Meeza</title>
<path opacity="7.000000e-02" enable-background="new" d="M35,0H3C1.3,0,0,1.3,0,3v18c0,1.7,1.4,3,3,3h32c1.7,0,3-1.3,3-3V3C38,1.3,36.6,0,35,0z M35,1c1.1,0,2,0.9,2,2
	v18c0,1.1-0.9,2-2,2H3c-1.1,0-2-0.9-2-2V3c0-1.1,0.9-2,2-2H35"/>
	<path fill="#532A74" d="M19.7,7.2c0.4,0,0.8,0,1.3,0c0.5,0,0.8,0.3,0.9,0.8c0.1,0.3,0.1,0.5,0,0.8c-0.1,0.4-0.1,0.8-0.1,1.2
		c0,1.1-0.2,2.3-0.1,3.4c0,0.5,0.1,0.9,0.4,1.4c0.3,0.5,0.7,0.7,1.3,0.6c0.1-0.3,0.1-0.5,0.1-0.8c0-1.5,0.1-3,0.2-4.4
		c0-0.7,0.1-1.5,0.1-2.2c0-0.1,0-0.3,0-0.4c0-0.2,0.1-0.3,0.4-0.3c0.2,0,0.4,0,0.6,0c1,0,2,0,2.9,0c1.1,0,2,0.9,2.3,1.6
		c0.2,0.5,0.2,1.1,0.2,1.7c0,0.3,0,0.5,0,0.8c0,1.3-0.1,2.7-0.3,4c-0.2,1.3-0.9,2.1-2.1,2.5c-0.1,0-0.3,0.1-0.4,0.1
		c-0.5,0.1-1.1,0-1.6,0c-0.5,0-0.8-0.3-1.2-0.6c-0.7,0.5-1.5,0.8-2.4,0.7c-0.9-0.1-1.6-0.5-2.2-1.2c-0.5,0.5-1,0.9-1.6,1.1
		c-0.7,0.2-1.3,0-1.9-0.2c-0.2,0.2-0.1,0.4-0.2,0.6c0,0.5,0,1-0.1,1.5c0,0.4-0.1,0.8-0.5,1c-0.1,0-0.1,0.1-0.2,0.1
		c-0.4,0.1-0.9,0.2-1.3,0.2c-0.3,0-0.4-0.2-0.4-0.5c0-0.3,0.1-0.6,0.1-0.8c0-0.8,0.1-1.7,0.1-2.5c0.1-1.7,0.2-3.3,0.3-5
		c0-0.7,0.1-1.3,0.1-2c0.1-0.9,0.1-1.8,0.2-2.8c0-0.4,0.1-0.5,0.5-0.5c0.3,0,0.5,0,0.8,0c0.6,0,1,0.4,1,1c0,0.4,0,0.7,0,1.1
		c0,0.8-0.1,1.7-0.1,2.5c0,0.5-0.1,1-0.1,1.4c0,0.5,0.1,0.9,0.3,1.3c0.4,0.7,1.2,1.1,2,0.9c0.2-0.1,0.4-0.2,0.3-0.5
		c0-0.3-0.1-0.6-0.1-0.9c0-0.8,0.1-1.7,0.1-2.5c0-0.9,0.1-1.7,0.2-2.6c0-0.4,0.1-0.9,0.1-1.3C19.6,7.5,19.6,7.4,19.7,7.2 M25.8,14.1
		c0,0.2,0,0.4,0,0.6c0,0.4,0.1,0.5,0.5,0.5c0.3,0,0.6,0,0.8,0c0.3,0,0.5-0.1,0.5-0.5c0-0.3,0-0.6,0.1-0.9c0-0.7,0.1-1.5,0.1-2.2
		c0-0.4,0-0.8,0-1.2c0-0.3-0.1-0.5-0.5-0.5c-0.3,0-0.6,0-0.9,0c-0.4,0-0.4,0-0.5,0.4C25.9,11.6,25.9,12.8,25.8,14.1"/>
	<path fill="#532A74" d="M13.7,7.3c0.1,0.1,0.1,0.3,0.1,0.4c-0.2,2.2-0.3,4.4-0.4,6.7c0,0.7-0.2,1.4-0.5,2c-0.5,0.8-1.2,1.3-2.1,1.4
		c-0.6,0.1-1.1,0.1-1.7,0c-0.9-0.1-1.5-0.6-1.9-1.4c-0.3-0.6-0.4-1.3-0.3-2C6.9,13.1,7,11.9,7,10.7c0-0.6,0.1-1.1,0.3-1.6
		C7.9,8,8.8,7.2,10.1,7.2c1.1,0,2.1,0,3.2,0C13.4,7.2,13.5,7.2,13.7,7.3 M9.2,13.9L9.2,13.9c0,0.2,0,0.4,0,0.6c0,0.5,0,0.5,0.5,0.5
		c0.3,0,0.5,0,0.8,0c0.4,0,0.5-0.1,0.5-0.5c0-0.1,0-0.2,0-0.3c0-1.2,0.1-2.3,0.2-3.5c0-0.1,0-0.3,0-0.4c0-0.4-0.1-0.4-0.4-0.4
		c-0.2,0-0.4,0-0.6,0c-0.8,0-0.8,0.1-0.9,0.8C9.3,11.8,9.2,12.8,9.2,13.9"/>
	<path fill="#EC6A2B" d="M22.2,21.2c-0.1-0.1-0.2-0.2-0.1-0.3c0.1-0.5,0-1,0.1-1.4c0.1-0.6,0.5-1,1.2-1c0.3,0,0.5,0,0.8,0
		c1.7,0,3.3,0,5,0c0.1,0,0.2,0,0.3,0c0.2,0,0.3,0.1,0.3,0.3c0,0.1,0,0.2,0,0.4c-0.1,0.4,0,0.8-0.1,1.2c-0.1,0.5-0.5,0.8-1,0.9
		c-0.1,0-0.2,0-0.2,0c-2,0-4,0-5.9,0C22.4,21.2,22.3,21.2,22.2,21.2"/>
	<path fill="#532A74" d="M20.4,6.3c-0.1-0.3,0-0.5,0-0.7c0-0.3,0-0.7,0-1c0-0.3-0.2-0.4-0.4-0.3c-0.1,0.1-0.1,0.2-0.1,0.3
		c0,0.4,0,0.8-0.1,1.2c0,0.1,0,0.3,0,0.4c-0.2,0.1-0.4,0.1-0.7,0.1c-0.1-0.3,0-0.6,0-1c0-0.2,0-0.5,0.1-0.7c0-0.1,0-0.2-0.1-0.3
		c-0.1-0.1-0.2-0.1-0.3-0.1c-0.1,0-0.1,0.1-0.1,0.2c0,0.5-0.1,1-0.1,1.5c0,0.3-0.1,0.3-0.3,0.3c-0.4,0-0.4,0-0.4-0.4
		c0-0.6,0.1-1.3,0.1-1.9c0-0.3,0.1-0.4,0.4-0.4c0.2,0,0.3,0,0.5,0c0.5,0.1,1,0,1.4,0c0.2,0,0.3,0,0.5,0c0.4,0.1,0.5,0.2,0.6,0.6
		c0,0.2,0,0.4,0,0.6c0,0.4-0.1,0.8-0.1,1.2c0,0.3-0.1,0.4-0.4,0.3C20.6,6.3,20.5,6.3,20.4,6.3"/>
	<path fill="#532A74" d="M13.4,4.5c0,0.4,0,0.9-0.2,1.3c-0.2,0.4-0.5,0.6-0.9,0.6c-0.1,0-0.3,0-0.4,0c-0.4,0-0.7-0.2-0.8-0.6
		C10.9,5.2,11,4.6,11.2,4c0.2-0.3,0.5-0.5,0.8-0.5c0.3,0,0.6,0,0.9,0c0.4,0,0.4,0.1,0.4,0.5C13.4,4.1,13.4,4.3,13.4,4.5"/>
	<path fill="#532A74" d="M18.2,18.3c0.2,0,0.3,0,0.4,0c0.3,0,0.5,0.2,0.5,0.5c0,0.1,0,0.2,0,0.3c-0.1,0.3-0.1,0.7-0.1,1
		c0,1-1.1,1.5-1.9,1c-0.2-0.1-0.3-0.3-0.4-0.5c-0.1-0.6-0.1-1.2,0.2-1.7c0.1-0.3,0.4-0.4,0.6-0.4C17.7,18.3,18,18.3,18.2,18.3"/>
	<path fill="#532A74" d="M9.9,3.5c0.3,0,0.4,0,0.6,0c0.2,0,0.3,0.1,0.3,0.4c0,0.5-0.1,1.1-0.2,1.6c-0.1,0.6-0.5,0.9-1.1,0.9
		C8.7,6.4,8.3,6,8.3,5.1c0-0.3,0.1-0.6,0.2-0.9c0.1-0.4,0.4-0.6,0.8-0.7C9.5,3.5,9.8,3.5,9.9,3.5"/>
	<path fill="#532A74" d="M21.5,18.4c0,0.1,0.1,0.1,0.1,0.1c0.1,0.7,0.1,1.3-0.1,2c-0.2,0.7-1.2,1-1.9,0.5c-0.3-0.2-0.4-0.6-0.4-0.9
		c0-0.4,0-0.7,0.1-1.1c0.1-0.4,0.4-0.6,0.8-0.7C20.5,18.3,21,18.3,21.5,18.4"/>
	<path fill="#EC6A2B" d="M15.4,3.5c0.3,0,0.6,0,0.8,0.1C16.7,3.7,17,4,17,4.4c0.1,0.4,0,0.9-0.1,1.3c-0.1,0.4-0.4,0.6-0.7,0.6
		c-0.4,0-0.7,0.1-1-0.1c-0.3-0.2-0.5-0.5-0.6-0.9c-0.1-0.5,0.1-1.1,0.1-1.6c0-0.1,0.1-0.2,0.2-0.2C15.1,3.5,15.2,3.5,15.4,3.5"/>
	<path fill="#532A74" d="M25.7,5.6c0.1,0.2,0.1,0.4,0,0.6c0,0.1-0.1,0.1-0.3,0.1c-0.3,0-0.7,0-1,0c-0.4,0-0.6-0.2-0.7-0.6
		c-0.1-0.6,0-1.2,0.1-1.7c0.1-0.3,0.3-0.5,0.7-0.5c0.3,0,0.5,0,0.8,0c0.2,0,0.4,0.1,0.4,0.3c0.2,0.4,0.3,0.9,0.1,1.4
		c-0.4,0.1-0.9,0-1.3,0.1c-0.1,0.2,0,0.3,0.2,0.3c0.1,0,0.3,0,0.4,0C25.4,5.6,25.5,5.6,25.7,5.6 M25.2,4.6c0-0.3,0-0.4-0.3-0.4
		c-0.2,0-0.3,0.1-0.3,0.4C24.8,4.7,25,4.7,25.2,4.6"/>
	<path fill="#532A74" d="M28.6,4.2c-0.1-0.2-0.1-0.4,0.1-0.6c0.4-0.1,0.9-0.1,1.4,0c0.3,0.1,0.5,0.3,0.5,0.6c0,0.3,0,0.5,0,0.8
		c0,0.3,0,0.6,0,0.8c0,0.4-0.2,0.5-0.5,0.5c-0.3,0-0.7,0-1,0c-0.4,0-0.6-0.2-0.6-0.6c0,0,0-0.1,0-0.1c0-0.7,0.1-0.9,0.8-1
		c0.2,0,0.3,0,0.5-0.1c0.1-0.2,0-0.3-0.2-0.3c-0.1,0-0.3,0-0.4,0C28.9,4.2,28.7,4.3,28.6,4.2 M29.4,5.6c0.2,0,0.3-0.1,0.3-0.2
		c0-0.2-0.1-0.2-0.3-0.2c-0.3,0-0.4,0.1-0.4,0.3C29.1,5.6,29.2,5.6,29.4,5.6"/>
	<path fill="#532A74" d="M22.3,5.2c-0.1,0.2,0,0.3,0.2,0.4c0.2,0,0.4,0,0.6,0c0.2,0,0.3,0.1,0.3,0.3c0,0.2-0.1,0.4-0.3,0.4
		c-0.4,0-0.8,0.1-1.2,0c-0.3,0-0.4-0.2-0.5-0.4c-0.2-0.6-0.1-1.2,0.1-1.8c0.1-0.3,0.3-0.5,0.7-0.5c0.3,0,0.6,0,0.8,0
		c0.4,0.1,0.5,0.3,0.6,0.7c0,0.2,0,0.5,0,0.7c0,0.2-0.1,0.3-0.3,0.3c-0.2,0-0.3,0-0.5,0L22.3,5.2z M22.8,4.6c0-0.3,0-0.4-0.3-0.4
		c-0.2,0-0.3,0.1-0.3,0.4C22.4,4.7,22.6,4.6,22.8,4.6"/>
	<path fill="#532A74" d="M27.2,5.5c0.3,0,0.5,0,0.7,0c0.2,0,0.3,0.1,0.3,0.3c0,0.3-0.1,0.4-0.2,0.5c-0.1,0-0.1,0-0.2,0
		c-0.5,0-1.1,0-1.6,0c-0.2-0.2-0.2-0.4,0-0.6c0.1-0.2,0.3-0.5,0.5-0.7c0.2-0.2,0.3-0.4,0.5-0.7c-0.2-0.1-0.4-0.1-0.6-0.1
		c-0.2,0-0.3,0-0.3-0.2c0-0.2,0.1-0.5,0.3-0.5c0.1,0,0.1,0,0.2,0c0.4,0,0.9,0,1.3,0c0.3,0,0.4,0.1,0.3,0.4c0,0.2-0.1,0.3-0.2,0.5
		C27.7,4.7,27.5,5.1,27.2,5.5"/>
</svg>
