<svg width="38" height="24" viewBox="0 0 38 24" fill="none" role="img" aria-labelledby="pi-mercadocredito" xmlns="http://www.w3.org/2000/svg"><title id="pi-mercadocredito">MercadoCredito</title><g clip-path="url(#pi-mercadocredito_clip0_402_510)"><path d="M35.994 11.197c-.05-6.213-7.598-11.213-16.87-11.213h-.22a23.519 23.519 0 00-8.77 1.708c-4.69 1.911-7.877 5.3-8.114 9.186-.007.107-.009.215-.012.323 0 .047-.005.094-.005.142v.05L2 11.487l.002.282-.001.235.002.066v.079c.001.088.008.175.01.262.004.08.005.16.01.239.184 3.093 1.828 5.905 4.676 7.96 3.093 2.23 7.286 3.406 12.141 3.406h.259c4.988-.043 9.264-1.294 12.367-3.617 2.95-2.21 4.56-5.242 4.534-8.538l-.006-.664z" fill="#0A0080"/><path d="M17.333 16.033c.153-.063.315-.101.48-.113.325-.003.637.126.869.358.231.232.363.548.365.88.003.33-.123.65-.35.885-.228.236-.539.37-.863.373h-.01a1.2 1.2 0 01-.843-.338 1.248 1.248 0 01-.378-.84c-.012-.285-.16-.328-.25-.328h-.002a.343.343 0 00-.23.116.83.83 0 01-.578.277.992.992 0 01-.391-.084.893.893 0 01-.514-.373.924.924 0 01-.144-.626.291.291 0 00-.057-.25.297.297 0 00-.137-.069.282.282 0 00-.223.07c-.172.149-.38.246-.603.282a.967.967 0 01-.321-.061 1.276 1.276 0 01-.706-.57 1.319 1.319 0 01-.16-.903.226.226 0 00-.076-.24c-.111-.069-.213.035-.281.103a.68.68 0 01-.575.19 1.017 1.017 0 01-.661-.31 1.055 1.055 0 01-.293-.68.962.962 0 01.272-.678.912.912 0 01.652-.278.84.84 0 01.607.156c.176.128.297.32.34.536l.008.057c.011.08.026.191.122.222.11.034.174-.07.217-.139a.532.532 0 01.034-.049l.03-.04c.118-.169.278-.302.464-.385.186-.083.391-.113.593-.086.142.002.283.023.419.064a.962.962 0 01.478.385.992.992 0 01.155.601c0 .062.024.122.066.166.042.045.1.071.16.073h.005a.267.267 0 00.194-.098 1.04 1.04 0 01.716-.391c.183.001.364.041.531.117.89.38.488 1.55.485 1.56-.054.136-.143.366.046.49l.039.018.073.01a.636.636 0 00.2-.05l.026-.01z" fill="#fff"/><path d="M17.298 15.933z" fill="#2D3277"/><path d="M35.071 9.855a38.531 38.531 0 00-6.955 2.375c-1.607-1.407-5.322-4.645-6.33-5.402a4.483 4.483 0 00-1.35-.785 2.04 2.04 0 00-.675-.1 2.737 2.737 0 00-.847.152 6.743 6.743 0 00-1.949 1.278l-.037.031c-.462.447-1 .804-1.587 1.055-.192.046-.388.07-.586.072h-.018a1.498 1.498 0 01-1.032-.311.39.39 0 01.045-.073l1.4-1.565c1.083-1.123 2.106-2.183 4.473-2.259a3.58 3.58 0 01.117-.003 8.075 8.075 0 013.126.728 9.86 9.86 0 004.37 1.03 11.074 11.074 0 004.673-1.164c1.648 1.412 2.768 3.1 3.162 4.941z" fill="#fff"/><path d="M18.913.757h.213a23.667 23.667 0 016.62.924l.143.042c.098.03.194.062.29.093a17.407 17.407 0 014.962 2.488 9.959 9.959 0 01-3.908.905h-.063a8.95 8.95 0 01-3.939-.947 9.071 9.071 0 00-3.452-.81h-.046l-.138.002a6.003 6.003 0 00-3.952 1.457 7.898 7.898 0 00-1.954.387 5.13 5.13 0 01-1.345.275c-.14-.002-.36-.007-.464-.01l-.057-.002a26.255 26.255 0 01-4.8-1.303c3.053-2.187 7.371-3.462 11.89-3.5z" fill="#00C8A1"/><path d="M6.24 4.863l-.002.003a24.065 24.065 0 005.413 1.542l.17.012c.172.012.35.02.53.023a5.857 5.857 0 001.584-.312c.208-.062.414-.122.625-.176l-.03.032-1.421 1.594a.856.856 0 00-.211.928c.092.195.238.358.42.471a3.03 3.03 0 001.585.398c.213 0 .424-.024.631-.072.62-.148 1.254-.669 1.935-1.23a6.212 6.212 0 011.824-1.14c.161-.044.327-.069.493-.073a.848.848 0 01.123.006 2.7 2.7 0 011.372.658c1.126.848 5.935 5.06 6.49 5.547a.926.926 0 01.282.694.76.76 0 01-.363.599c-.186.129-.404.2-.628.207h-.007c-.187 0-.37-.052-.532-.15l-.133-.121c-.444-.406-1.794-1.64-2.351-2.108a.58.58 0 00-.377-.19.27.27 0 00-.217.107c-.123.157-.058.383.16.57l2.11 2.125c.137.135.228.311.26.503a.877.877 0 01-.111.46.855.855 0 01-.333.332c-.199.147-.436.23-.681.239h-.009a.975.975 0 01-.516-.15l-.322-.32c-.546-.537-1.11-1.094-1.524-1.44a.635.635 0 00-.378-.187H22.1a.283.283 0 00-.209.094c-.059.07-.132.22.036.442.034.046.072.088.112.128l1.537 1.73a.488.488 0 01.037.611l-.048.064c-.041.046-.085.09-.13.13a1.097 1.097 0 01-.678.223c-.063 0-.125-.006-.188-.015-.173-.03-.225-.073-.242-.094l-.049-.051A17.28 17.28 0 0020.9 16.19a.6.6 0 00-.359-.181h-.002a.28.28 0 00-.214.1c-.13.146-.072.36.147.567l1.159 1.315-.009.013c-.03.043-.16.189-.6.25a1.15 1.15 0 01-.173.01 2.719 2.719 0 01-1.129-.32 2.121 2.121 0 00-.197-1.933 2.059 2.059 0 00-.725-.675 2.012 2.012 0 00-.95-.252 1.843 1.843 0 00-.24-1.096 1.79 1.79 0 00-.827-.742 2.122 2.122 0 00-.84-.184h-.013c-.186 0-.37.031-.546.09a1.741 1.741 0 00-.97-.784 1.988 1.988 0 00-.73-.125 1.9 1.9 0 00-1.063.329 1.734 1.734 0 00-.583-.43 1.704 1.704 0 00-.703-.153h-.014c-.43.006-.844.172-1.163.467-.49-.354-2.146-1.34-6.293-2.262a22.732 22.732 0 01-.937-.254c.397-1.848 1.538-3.6 3.313-5.077z" fill="#fff"/><path d="M35.21 11.881l-.002.015a7 7 0 01-.048.42c-.366 2.403-1.966 4.642-4.605 6.396-3.053 2.029-7.126 3.166-11.469 3.203l-.215.001c-8.857 0-16.065-4.655-16.113-10.44a6.774 6.774 0 01.027-.61l.9.21c4.087.889 5.618 1.83 5.999 2.105a1.815 1.815 0 00.22 1.625c.16.233.375.423.624.554a1.72 1.72 0 001.04.183c.084.329.246.631.472.88.226.25.509.439.823.55.195.076.402.116.61.117.11 0 .22-.01.327-.033a1.87 1.87 0 001.05.94c.22.088.452.135.686.138.151-.001.301-.025.445-.07.165.355.426.655.752.866.326.21.704.32 1.09.32h.017a2.031 2.031 0 001.404-.588 3.727 3.727 0 001.627.461c.088 0 .175-.007.262-.018.227-.01.45-.07.654-.174.203-.105.382-.253.525-.434a.833.833 0 00.034-.053 2.1 2.1 0 00.476.062 1.85 1.85 0 001.119-.417c.31-.22.538-.541.644-.91.09.01.18.016.27.017.41-.008.809-.14 1.145-.38.24-.145.44-.35.582-.594.143-.244.224-.52.235-.805.085.013.17.018.256.017a1.967 1.967 0 001.075-.346c.213-.136.392-.322.522-.542.13-.22.207-.468.224-.724a1.728 1.728 0 00-.189-.908 41.866 41.866 0 016.496-2.133c.014.184.03.368.03.555 0 .183-.007.364-.02.544z" fill="#00C8A1"/></g><defs><clipPath id="pi-mercadocredito_clip0_402_510"><path fill="#fff" d="M0 0h38v24H0z"/></clipPath></defs></svg>