<svg width="38" height="24" viewBox="0 0 38 24" fill="none" aria-labelledby="pi-mercadopago" xmlns="http://www.w3.org/2000/svg"><title id="pi-mercadopago">Mercado Pago</title><path opacity=".07" d="M35 0H3C1.3 0 0 1.3 0 3v18c0 1.7 1.4 3 3 3h32c1.7 0 3-1.3 3-3V3c0-1.7-1.4-3-3-3z" fill="#000"/><path d="M35 1c1.1 0 2 .9 2 2v18c0 1.1-.9 2-2 2H3c-1.1 0-2-.9-2-2V3c0-1.1.9-2 2-2h32z" fill="#fff"/><path d="M35 1c1.1 0 2 .9 2 2v18c0 1.1-.9 2-2 2H3c-1.1 0-2-.9-2-2V3c0-1.1.9-2 2-2h32z" fill="#fff"/><path d="M19.502 5.263c-5.69 0-10.303 2.842-10.303 6.349 0 3.506 4.613 6.624 10.303 6.624s10.303-3.118 10.303-6.624c0-3.507-4.612-6.35-10.303-6.35z" fill="#00BCFF"/><path d="M16.15 9.65c-.005.009-.105.11-.04.19.16.196.651.308 1.149.2.296-.063.676-.355 1.044-.636a4.206 4.206 0 011.192-.732c.279-.098.584-.106.869-.021.288.103.556.254.792.445.69.5 3.468 2.835 3.948 3.24a27.423 27.423 0 014.562-1.381c-.203-1.2-.951-2.342-2.1-3.24-1.6.648-3.686 1.035-5.599.136a5.461 5.461 0 00-2.065-.453c-1.518.034-2.175.667-2.87 1.336l-.882.915z" fill="#fff"/><path d="M24.991 12.59c-.033-.028-3.266-2.753-3.998-3.284a1.823 1.823 0 00-.907-.415 1.288 1.288 0 00-.432.04 3.936 3.936 0 00-1.182.679c-.41.314-.796.61-1.154.687a1.93 1.93 0 01-1.272-.184.55.55 0 01-.211-.223.364.364 0 01.108-.407l.892-.93c.104-.099.208-.199.316-.297-.276.04-.548.099-.814.176a3.671 3.671 0 01-.949.17 9.376 9.376 0 01-.968-.145 16.308 16.308 0 01-2.781-.896c-1.269.91-2.095 2.026-2.34 3.279.182.046.66.151.783.177 2.87.615 3.765 1.248 3.927 1.38a.95.95 0 01.347-.237.984.984 0 01.827.047.938.938 0 01.316.275c.193-.15.435-.232.684-.232.14.002.278.025.41.07.128.04.246.104.346.191.1.087.179.193.232.312a.985.985 0 01.4-.082c.164.002.327.036.477.101.21.095.379.255.481.454a.95.95 0 01.083.643 1.162 1.162 0 01.919.316c.213.206.332.484.333.775 0 .18-.047.359-.136.518.297.175.64.263.988.255a.652.652 0 00.462-.195c.03-.039.059-.084.031-.117l-.81-.866s-.133-.122-.09-.168c.046-.049.129.02.187.067.412.332.916.832.916.832.008.006.041.07.228.101a.872.872 0 00.64-.143.996.996 0 00.14-.14.051.051 0 01-.009.008.403.403 0 00-.023-.514l-.946-1.023s-.135-.12-.088-.168c.04-.043.128.021.187.068.3.242.722.65 1.128 1.033a.794.794 0 00.907-.03.638.638 0 00.252-.24c.059-.1.088-.215.084-.331a.643.643 0 00-.2-.38l-1.291-1.251s-.137-.113-.089-.17c.04-.047.128.022.186.068a74.243 74.243 0 011.525 1.316.806.806 0 00.877-.017.575.575 0 00.201-.189.549.549 0 00.036-.533.657.657 0 00-.166-.231z" fill="#fff"/><path d="M18.726 14.175c-.152.02-.302.053-.448.096-.016-.01.012-.088.03-.132.02-.044.284-.81-.36-1.074a.783.783 0 00-.896.128c-.027.027-.039.025-.042-.009a.668.668 0 00-.143-.395.71.71 0 00-.355-.24c-.2-.06-.416-.055-.614.013a.968.968 0 00-.483.363.667.667 0 00-.207-.396.723.723 0 00-.865-.086.681.681 0 00-.286.348.653.653 0 00-.001.444.68.68 0 00.285.348.723.723 0 00.866-.082c.004.003.005.01.003.022a.864.864 0 00.091.617c.107.188.28.334.488.41a.715.715 0 00.68-.102c.055-.038.064-.022.056.029-.023.157.007.493.496.683a.65.65 0 00.736-.132c.063-.054.08-.045.083.04a.834.834 0 00.169.463.883.883 0 00.405.297.917.917 0 00.952-.21.825.825 0 00.174-.925.862.862 0 00-.326-.376.91.91 0 00-.488-.142z" fill="#fff"/><path d="M19.5 5C13.703 5 9.002 7.971 9.002 11.615L9 12.002C9 15.87 13.109 19 19.5 19c6.429 0 10.5-3.13 10.5-6.997v-.388C30 7.971 25.3 5 19.5 5zm10.027 5.882c-1.513.323-2.99.785-4.41 1.381-.997-.837-3.299-2.765-3.922-3.215a2.77 2.77 0 00-.813-.456c-.129-.04-.263-.06-.399-.06-.172.002-.343.03-.506.082a4.174 4.174 0 00-1.193.728l-.02.015c-.361.277-.735.563-1.018.624-.124.027-.25.04-.377.04a1.002 1.002 0 01-.709-.219c-.017-.022-.006-.057.035-.107l.006-.007.876-.91c.686-.66 1.335-1.285 2.827-1.318h.074a5.455 5.455 0 011.962.447c.83.4 1.745.61 2.673.617a7.196 7.196 0 002.928-.674c1.065.862 1.771 1.9 1.986 3.032zM19.503 5.391c3.078 0 5.832.85 7.683 2.188a6.664 6.664 0 01-2.571.561 5.867 5.867 0 01-2.501-.58 5.805 5.805 0 00-2.135-.485h-.084a3.796 3.796 0 00-2.435.833c-.412.02-.82.093-1.214.214a3.406 3.406 0 01-.856.158c-.11 0-.307-.01-.325-.01a17.146 17.146 0 01-3.067-.819c1.848-1.265 4.525-2.06 7.505-2.06zm-7.869 2.325c1.281.504 2.835.894 3.326.924.137.009.283.024.43.024.328-.015.653-.073.965-.173a7.53 7.53 0 01.607-.144l-.173.165-.89.928a.416.416 0 00-.122.474.61.61 0 00.234.25c.288.156.614.236.945.23.127.001.253-.012.377-.038.373-.08.765-.38 1.18-.698a3.958 3.958 0 011.158-.668c.106-.027.214-.042.324-.043.027 0 .055.001.083.005.326.051.63.191.877.403.73.529 3.964 3.254 3.996 3.28a.602.602 0 01.194.458.486.486 0 01-.077.23.51.51 0 01-.181.168.805.805 0 01-.425.127.72.72 0 01-.374-.104c-.012-.01-1.12-.988-1.528-1.317a.346.346 0 00-.191-.098.109.109 0 00-.085.038c-.064.076.008.182.092.25l1.294 1.255c.097.09.16.209.18.337a.552.552 0 01-.079.3.58.58 0 01-.229.217.854.854 0 01-.459.146.682.682 0 01-.369-.108l-.185-.176c-.34-.322-.69-.654-.947-.86a.348.348 0 00-.193-.097.11.11 0 00-.081.034c-.03.031-.05.087.024.18a.57.57 0 00.065.07l.944 1.023a.342.342 0 01.021.436l-.033.04a1.047 1.047 0 01-.088.082.774.774 0 01-.462.14.746.746 0 01-.127-.01.327.327 0 01-.186-.075l-.012-.012c-.051-.051-.527-.52-.921-.836a.33.33 0 00-.184-.094.115.115 0 00-.085.036c-.078.082.039.205.089.25l.805.856a.172.172 0 01-.03.052c-.03.039-.127.133-.42.168a.832.832 0 01-.106.007 1.903 1.903 0 01-.789-.226 1.12 1.12 0 00-.072-1.113 1.184 1.184 0 00-.435-.394 1.237 1.237 0 00-.622-.143.995.995 0 00-.117-.641 1.051 1.051 0 00-.493-.445 1.306 1.306 0 00-.502-.107c-.126 0-.25.021-.369.064a1.003 1.003 0 00-.588-.48 1.366 1.366 0 00-.431-.074 1.165 1.165 0 00-.672.207 1.04 1.04 0 00-1.508-.082c-.25-.184-1.245-.793-3.907-1.375a14.59 14.59 0 01-.598-.159c.25-1.15 1.01-2.202 2.135-3.064zm4.939 6.675l-.03-.025h-.028a.147.147 0 00-.082.032.7.7 0 01-.398.136.641.641 0 01-.222-.041.852.852 0 01-.456-.383.802.802 0 01-.082-.579.08.08 0 00-.027-.078l-.044-.035-.04.038a.658.658 0 01-.79.075.624.624 0 01-.239-.263.597.597 0 01.101-.663.664.664 0 01.669-.184.644.644 0 01.303.193c.08.09.13.201.146.32l.022.165.094-.14a.886.886 0 01.45-.344.923.923 0 01.574-.007c.13.039.243.116.324.22a.61.61 0 01.13.36c.007.081.066.085.078.085a.108.108 0 00.074-.037.648.648 0 01.471-.192.94.94 0 01.354.077c.603.25.33.987.326.995-.052.122-.054.177-.005.208l.024.01h.018a.43.43 0 00.116-.029c.103-.04.212-.062.322-.068a.849.849 0 01.582.232.79.79 0 01.241.56.767.767 0 01-.241.56.824.824 0 01-.582.233.834.834 0 01-.57-.218.774.774 0 01-.251-.538c-.001-.037-.005-.133-.09-.133a.158.158 0 00-.1.05.589.589 0 01-.403.176.732.732 0 01-.266-.056c-.469-.183-.475-.493-.456-.617a.11.11 0 00-.017-.095zm2.93 3.442c-5.576 0-10.096-2.785-10.096-6.221a3.9 3.9 0 01.024-.411c.045.01.487.112.58.132 2.719.582 3.617 1.187 3.77 1.301a.949.949 0 00.092.922c.093.135.219.245.367.321a1.05 1.05 0 00.667.1c.04.194.133.375.267.525.135.15.308.264.502.33.116.044.239.067.363.068a.943.943 0 00.232-.028c.093.19.24.35.421.465.183.114.394.178.612.184a.93.93 0 00.31-.053c.076.178.196.335.35.456a1.242 1.242 0 001.121.208c.19-.057.363-.16.502-.297.31.174.659.274 1.017.292.052 0 .103-.003.154-.01a.96.96 0 00.69-.324.511.511 0 00.042-.067c.106.031.216.048.326.05.239-.005.47-.085.657-.227a.872.872 0 00.39-.551c.072.014.145.021.22.021a1.25 1.25 0 00.675-.206.955.955 0 00.361-.354.91.91 0 00.123-.482 1.15 1.15 0 00.856-.166.91.91 0 00.306-.293.87.87 0 00.134-.396.91.91 0 00-.14-.557 26.868 26.868 0 014.187-1.263c.008.103.013.206.013.31 0 3.436-4.52 6.221-10.095 6.221z" fill="#0A0080"/></svg>