<svg xmlns="http://www.w3.org/2000/svg" width="38" height="24" fill="none" aria-labelledby="pi-merpay" role="img" viewBox="0 0 38 24"><title id="pi-merpay">Merpay</title><path fill="#fff" d="M0 0h38v24H0z"/><path fill="#231916" d="m33.01 10.52-1.26 3.12-1.27-3.12h-1.27l1.97 4.41-1.03 2.43h1.09l2.95-6.84zM21 8.19h-2.63v7.21h1.12v-2.8H21a2.14 2.14 0 0 0 2.36-2.19A2.15 2.15 0 0 0 21 8.19m.19 3.35h-1.68v-2.3h1.72a1.08 1.08 0 0 1 1 1.17 1 1 0 0 1-1 1.13zm5.03-1.09a2.42 2.42 0 0 0-2.51 2.49 2.33 2.33 0 0 0 2.4 2.49 1.68 1.68 0 0 0 1.43-.78v.75h1.14v-2.46a2.31 2.31 0 0 0-2.46-2.49m0 4a1.32 1.32 0 0 1-1.35-1.49 1.39 1.39 0 0 1 1.35-1.49 1.32 1.32 0 0 1 1.33 1.49 1.38 1.38 0 0 1-1.35 1.47z"/><path fill="#E62419" d="m10 18 4.74-2.37a1 1 0 0 0 .54-.88V9.24a1 1 0 0 0-.54-.88L10 6a1 1 0 0 0-.89 0L4.36 8.36a1 1 0 0 0-.55.88v5.52a1 1 0 0 0 .55.88L9.09 18a1 1 0 0 0 .91 0"/><path fill="#59BDEC" d="M13.49 11.87a2.57 2.57 0 1 0 0-5.14 2.57 2.57 0 0 0 0 5.14"/><path fill="#fff" d="m5.39 14-.5-.25v-1.5c0-.43.24-.86.75-.81a1.3 1.3 0 0 1 1 .75.62.62 0 0 1 .52-.19 1.63 1.63 0 0 1 1.23 1.72v1.78l-.55-.27v-1.64a.88.88 0 0 0-.69-.93c-.16 0-.3.11-.31.39v1.67l-.5-.25v-1.55c0-.69-.44-.91-.64-.93s-.31.06-.31.41z"/></svg>