<svg xmlns="http://www.w3.org/2000/svg" width="38" height="24" fill="none" aria-labelledby="pi-metrobank" role="img" viewBox="0 0 38 24"><title id="pi-metrobank">Metro Bank</title><path fill="#fff" d="M0 0h38v24H0z"/><path fill="#023184" d="M6.21 9.015c.111-.052.217.042.308.095.804.54 1.624 1.06 2.427 1.6.216.149.201.507-.022.64-.844.559-1.693 1.107-2.535 1.666a.19.19 0 0 1-.202.004q-1.219-.797-2.437-1.592c-.127-.08-.28-.18-.282-.35-.033-.177.087-.34.233-.426.839-.542 1.663-1.107 2.51-1.637m.932 1.08c.134.217.277.428.404.649q.225.013.452 0c-.29-.21-.588-.41-.856-.65m-2.58.65c.147.005.295.012.443 0 .139-.207.266-.42.41-.624-.284.21-.563.424-.853.624m1.042.004h.407l-.001-.617c-.123.214-.265.415-.406.617m.955-.598q-.005.3 0 .598h.391zm-1.996 1.142q.43.319.86.639c-.151-.206-.284-.424-.42-.64zm1.04 0c.14.207.28.413.41.627a31 31 0 0 1 0-.627zm.958-.002q-.006.305-.003.61.196-.306.399-.608-.198-.002-.396-.002m1.017 0c-.157.212-.292.438-.43.66.268-.244.572-.443.864-.66zm2.694-.424.75-.003c.32.892.644 1.782.922 2.688.082-.377.227-.736.356-1.098q.29-.795.585-1.59.37.005.74-.001c.072.964.123 1.929.187 2.893q.031.426.045.854h-.645c-.024-.586-.06-1.172-.09-1.758-.013-.3-.01-.6-.057-.896-.069.295-.175.58-.277.864l-.646 1.77c-.16-.001-.319-.005-.478.005-.248-.672-.47-1.354-.703-2.032a5 5 0 0 1-.151-.542c-.064.86-.102 1.725-.16 2.587q-.318.001-.634-.004.136-1.868.256-3.737m13.335-.002h.644q.001.655 0 1.312c.4-.393 1.109-.4 1.514-.01.3.293.416.729.397 1.138-.005.427-.166.88-.523 1.136-.425.326-1.092.306-1.467-.09l-.008.259q-.294-.002-.588-.004c.033-.265.032-.533.032-.8q.002-1.47-.001-2.941m1.103 1.58a.68.68 0 0 0-.434.46c-.046.205-.022.418-.025.627a.6.6 0 0 0 .6.583c.244.02.47-.147.57-.363.154-.37.138-.845-.134-1.157a.58.58 0 0 0-.577-.15m7.279-1.577c.215 0 .43-.005.646-.003-.003.677-.015 1.354.009 2.03.274-.326.545-.656.838-.968.26.016.52 0 .78.004q-.525.569-1.059 1.129.582.771 1.16 1.546-.396.002-.794 0c-.236-.353-.494-.69-.733-1.041a.24.24 0 0 0-.087-.08c-.053.063-.124.128-.117.218q-.003.45 0 .903h-.64c0-1.246.005-2.492-.003-3.738m-14.774.642q.314-.11.634-.2-.002.31-.002.618c.192.008.384 0 .577.007.034-.005.058.02.084.04q.001.244.001.49-.331.003-.663 0l.002 1.039c.003.15-.01.302.032.447.018.056.051.118.112.135.148.048.305.004.448-.042.027.179.032.36.038.54-.247.077-.518.123-.771.044a.62.62 0 0 1-.376-.305 1.3 1.3 0 0 1-.113-.544v-1.313h-.384l.003-.534h.38z"/><path fill="#023184" d="M3.473 11.803c.008-.122.165-.208.271-.143.239.129.453.296.682.442.618.404 1.221.832 1.85 1.219.119-.057.23-.127.339-.2q1.048-.703 2.099-1.402a.4.4 0 0 1 .284-.076q.052.071.105.14c0 .816-.005 1.631 0 2.446-.004.196-.175.385-.378.379H3.852c-.142.013-.264-.086-.336-.198-.05-.076-.04-.17-.041-.256q-.003-1.176-.002-2.351m3.235 1.96c-.1.057-.194.13-.31.148a.7.7 0 0 1-.474-.106q-.815-.511-1.632-1.016c-.053-.032-.108-.073-.174-.056-.008.412-.001.823-.005 1.235.077.02.156.034.236.032 1.363-.002 2.726.004 4.089-.007.037-.228.024-.46.025-.689 0-.199.013-.4-.027-.597-.59.329-1.148.71-1.728 1.056m7.834-1.435c.381-.498 1.18-.614 1.672-.216.373.327.46.87.385 1.34h-1.731c.026.256.175.52.427.612.357.107.743.042 1.081-.096.04.171.095.34.115.516-.43.165-.911.233-1.364.124a1.18 1.18 0 0 1-.829-.822c-.128-.49-.067-1.048.244-1.458m.464.309c-.054.092-.09.193-.13.293q.561.003 1.124 0c-.023-.097-.044-.196-.088-.286a.48.48 0 0 0-.41-.256.55.55 0 0 0-.496.249m4.566-.429c.197-.252.54-.395.855-.302q-.004.302.001.603c-.139-.003-.282-.026-.418.012a.59.59 0 0 0-.334.382c-.037.113-.033.233-.032.35v1.355h-.65c-.006-.892.031-1.785-.014-2.677h.582zm2.118-.308c.344-.06.714.01 1 .214.292.198.468.535.515.88.04.342.009.703-.156 1.01-.172.32-.49.55-.843.629-.403.092-.853.005-1.169-.267-.299-.264-.445-.67-.438-1.063-.008-.377.113-.77.383-1.042.187-.195.44-.322.707-.361zm.073.523a.62.62 0 0 0-.369.277c-.145.231-.176.519-.135.785.037.274.206.545.477.636a.59.59 0 0 0 .632-.223 1.11 1.11 0 0 0-.006-1.281.6.6 0 0 0-.599-.194m4.877-.283c.364-.207.796-.314 1.212-.237.246.037.48.173.612.388.15.251.17.553.164.84.005.492-.026.988.052 1.477q-.302.002-.602.002-.008-.106-.015-.214a1.07 1.07 0 0 1-.812.268.81.81 0 0 1-.641-.37.87.87 0 0 1 .203-1.128c.33-.273.779-.29 1.185-.335-.03-.154-.09-.335-.253-.393-.32-.096-.673.006-.934.205q-.088-.251-.171-.504zm.598 1.404c-.183.159-.136.518.107.591.22.047.476-.046.591-.245.093-.163.064-.36.057-.539-.258.004-.554.005-.755.193m2.505-1.364c.332-.335.902-.404 1.295-.139.233.151.364.419.41.686.028.15.018.301.021.452.002.476-.004.952.006 1.427q-.322.003-.646.002c.002-.426.006-.851.003-1.277-.002-.24.023-.503-.117-.714-.101-.16-.314-.208-.489-.164a.59.59 0 0 0-.427.55q-.002.803 0 1.603a23 23 0 0 1-.642 0q.002-.764.002-1.527c-.003-.367.01-.736-.03-1.103l.05-.036c.178-.017.357-.005.536-.008z"/></svg>