<svg xmlns="http://www.w3.org/2000/svg" width="38" height="24" viewBox="0 0 38 24">
  <defs>
    <style>
      .a {
        fill: #e8e8e8;
      }

      .b {
        fill: #fff;
      }

      .c {
        fill: #004097;
      }
    </style>
  </defs>
  <title>ministop</title>
  <g>
    <path class="a" d="M35,0H3A3,3,0,0,0,0,3V21a3,3,0,0,0,3,3H35a3,3,0,0,0,3-3V3A3,3,0,0,0,35,0Z" transform="translate(0 0)"/>
    <path class="b" d="M35,1a2,2,0,0,1,2,2V21a2,2,0,0,1-2,2H3a2,2,0,0,1-2-2V3A2,2,0,0,1,3,1H35" transform="translate(0 0)"/>
  </g>
  <g>
    <path class="c" d="M21.19,4a.57.57,0,0,0,.89.72A2.92,2.92,0,0,1,25.43,4c1.56.55,1.78,2.92,1.79,2.95a.55.55,0,0,0,.35.48,3.71,3.71,0,0,1,2.61,3.54,3.06,3.06,0,0,1-.06.6.62.62,0,0,0,.49.67A2.27,2.27,0,0,1,32.5,14.7a3,3,0,0,1-2.43,2.76.55.55,0,0,0-.46.55v2.21H8.87V11.94a.55.55,0,0,0-.55-.55h-2L13.38,4,16,6.63a.57.57,0,0,0,.8-.81h0l-3-3a.55.55,0,0,0-.78,0l0,0L4.55,11.6a.55.55,0,0,0,.39,1H7.7v8.31a.55.55,0,0,0,.55.55H30.17a.55.55,0,0,0,.55-.55v-2.4a3.89,3.89,0,0,0,2.9-3.75,3.4,3.4,0,0,0-2.34-3.49V11a4.82,4.82,0,0,0-3-4.43c-.12-.78-.61-2.95-2.46-3.61A4,4,0,0,0,21.19,4Z" transform="translate(0 0)"/>
    <path class="c" d="M12.11,7.84a.76.76,0,0,0-.5.71v3.72a.76.76,0,1,0,1.52,0V10.61l.49.55a.76.76,0,0,0,.55.27.77.77,0,0,0,.55-.25l.65-.71v1.8a.76.76,0,0,0,1.52,0V8.55A.76.76,0,0,0,15.57,8L14.21,9.55,12.94,8.06A.76.76,0,0,0,12.11,7.84Z" transform="translate(0 0)"/>
    <path class="c" d="M17.87,8.55V12.3a.76.76,0,1,0,1.52,0V8.55a.76.76,0,1,0-1.52,0Z" transform="translate(0 0)"/>
    <path class="c" d="M25.42,8.55V12.3a.76.76,0,1,0,1.52,0V8.55a.76.76,0,1,0-1.52,0Z" transform="translate(0 0)"/>
    <path class="c" d="M20.91,7.82a.76.76,0,0,0-.55.72v3.75a.76.76,0,1,0,1.52,0V11l1.22,1.76a.76.76,0,0,0,1.38-.44V8.55a.76.76,0,1,0-1.52,0V9.88L21.74,8.12A.76.76,0,0,0,20.91,7.82Z" transform="translate(0 0)"/>
    <path class="c" d="M12.53,17.91c-.32.12-.62-.14-.81-.38h0a.65.65,0,1,0-1,.78l0,0h0a2,2,0,0,0,2.26.77,2,2,0,0,0,1.27-1.81A1.65,1.65,0,0,0,13,15.78c-.73-.23-.84-.47-.86-.52s-.11-.41.5-.38a1,1,0,0,1,.55.34h0a.65.65,0,0,0,1-.79h0a2.26,2.26,0,0,0-1.51-.84,2,2,0,0,0-1.52.65l-.07.08a1.57,1.57,0,0,0-.2,1.35A2.36,2.36,0,0,0,12.59,17a.39.39,0,0,1,.32.45v0A.43.43,0,0,1,12.53,17.91Z" transform="translate(0 0)"/>
    <path class="c" d="M15.09,13.81a.65.65,0,1,0,0,1.29h2.63a.65.65,0,0,0,0-1.29Z" transform="translate(0 0)"/>
    <path class="c" d="M15.63,14.59v3.73a.76.76,0,1,0,1.52,0V14.59a.76.76,0,1,0-1.52,0Z" transform="translate(0 0)"/>
    <path class="c" d="M26.29,13.7H24.8a.76.76,0,0,0-.76.76h0v3.86a.76.76,0,1,0,1.52,0v-.89h.72a2.05,2.05,0,0,0,1.95-1.9A1.91,1.91,0,0,0,26.29,13.7Zm-.08,2.21h-.55V15h.58s.47.09.47.44S26.21,15.9,26.21,15.9Z" transform="translate(0 0)"/>
    <path class="c" d="M20.74,13.58a2.76,2.76,0,1,0,2.76,2.76A2.76,2.76,0,0,0,20.74,13.58Zm0,4a1.16,1.16,0,1,1,1.16-1.16,1.16,1.16,0,0,1-1.16,1.16h0Z" transform="translate(0 0)"/>
  </g>
</svg>
