<svg xmlns="http://www.w3.org/2000/svg" role="img" viewBox="0 0 38 24" width="38" height="24" aria-labelledby="pi-minicuotas"><title id="pi-minicuotas">Minicuotas</title><path fill="#000" opacity=".07" d="M35 0H3C1.3 0 0 1.3 0 3v18c0 1.7 1.4 3 3 3h32c1.7 0 3-1.3 3-3V3c0-1.7-1.4-3-3-3z"/><path fill="#fff" d="M35 1c1.1 0 2 .9 2 2v18c0 1.1-.9 2-2 2H3c-1.1 0-2-.9-2-2V3c0-1.1.9-2 2-2h32"/><path d="M35.921 9.08H2.08v5.462H35.92V9.08z" fill="#fff"/><path fill-rule="evenodd" clip-rule="evenodd" d="M2 9h34v5.622H2V9zm.157.16v5.302h33.686V9.16H2.157z" fill="#EE363D"/><path d="M35.921 9.08H25.246v5.462H35.92V9.08z" fill="#EE363D"/><path d="M31.335 11.388v-.007c.174-.076.29-.227.29-.476 0-.352-.237-.572-.71-.572h-.889v2.225h.899c.548 0 .778-.248.778-.648 0-.28-.127-.457-.368-.522zm-.838-.634h.4c.184 0 .261.065.261.242 0 .176-.074.244-.25.244h-.411v-.486zm.435 1.397H30.5v-.543h.421c.213 0 .294.075.294.262-.003.213-.088.281-.283.281zM33.048 10.333h-.584l-.757 2.225h.517l.123-.436h.79l.123.436h.545l-.757-2.225zm-.58 1.372l.22-.76.06-.234h.006l.057.234.209.76h-.552zM34.8 12.144c-.4 0-.542-.155-.542-.713 0-.525.135-.688.531-.688.163 0 .357.03.47.076v-.428a1.474 1.474 0 00-.498-.09c-.697 0-1.016.392-1.016 1.134 0 .792.326 1.166.984 1.166.19 0 .4-.05.545-.122v-.432c-.124.05-.315.097-.474.097zM34.998 13.055c0-.144.035-.187.145-.187a.35.35 0 01.127.021v-.115a.39.39 0 00-.134-.025c-.188 0-.276.108-.276.306 0 .212.088.313.265.313.053 0 .11-.014.145-.032v-.116a.35.35 0 01-.127.03c-.106-.004-.145-.047-.145-.195zM30.146 13.055c0-.144.036-.187.145-.187.043 0 .096.007.128.021v-.115a.39.39 0 00-.135-.025c-.187 0-.276.108-.276.306 0 .212.089.313.266.313.053 0 .11-.014.145-.032v-.116a.35.35 0 01-.128.03c-.106-.004-.145-.047-.145-.195zM30.879 13.105c.064-.021.099-.079.099-.162 0-.13-.074-.187-.22-.187h-.215v.598h.134v-.224h.085l.103.224h.155l-.141-.249zm-.12-.072h-.082v-.162h.085c.057 0 .081.018.081.08-.003.06-.028.082-.084.082zM31.243 13.102h.216v-.108h-.216v-.12h.259l-.004-.118h-.39v.601h.404v-.118h-.269v-.137zM31.845 12.756h-.22v.598h.223c.174 0 .262-.087.262-.303 0-.205-.078-.295-.265-.295zm0 .479h-.089v-.36h.085c.092 0 .128.032.128.176.003.155-.036.184-.124.184zM32.453 12.749c-.184 0-.258.097-.258.31 0 .212.078.31.258.31.184 0 .259-.095.259-.31.003-.217-.07-.31-.259-.31zm.004.497c-.088 0-.12-.04-.12-.191s.032-.187.12-.187c.092 0 .12.036.12.187s-.032.19-.12.19zM33.14 13.105l-.021.061h-.004l-.021-.06-.135-.35h-.148v.601h.117v-.371h.003l.022.062.12.31h.088l.12-.31.022-.062h.003l-.003.065v.306h.12v-.601h-.145l-.138.35zM33.869 12.756h-.16l-.205.598h.142l.032-.115h.212l.032.115h.149l-.202-.598zm-.156.37l.06-.204.018-.065h.004l.014.065.056.205h-.152zM34.06 12.756l-.004.122h.16v.48h.13v-.48h.16l-.004-.122h-.442zM34.608 13.357h.135v-.601h-.135v.601zM27.991 10.815l1.175.958-.315.785h-.86v-1.743zM27.836 10.25l-2.038.558v.936l2.038-.893v-.6zM27.836 11.024l-2.038.893v1.033l2.038-1.263v-.663zM27.284 13.357h1.334v-.637h-.683l-.651.637zM27.836 11.874l-2.038 1.264v.22h1.26l.778-.764v-.72z" fill="#fff"/><path d="M2.74 10.077h.896l.697 1.89.69-1.89H5.9v3.039h-.672v-2.135L4.4 13.116h-.223l-.831-2.135v2.135H2.74v-3.039z" fill="#EE363D"/><path fill-rule="evenodd" clip-rule="evenodd" d="M2.69 10.026h.98l.663 1.795.655-1.795h.963v3.141h-.773v-1.916l-.744 1.916h-.291l-.747-1.917v1.917H2.69v-3.141zm.1.103v2.936h.505v-2.353l.916 2.353h.155l.912-2.354v2.354h.572v-2.936h-.792l-.725 1.985-.732-1.985h-.81z" fill="#EE363D"/><path d="M6.463 10.254c0-.191.149-.335.343-.335a.335.335 0 110 .67.328.328 0 01-.343-.335zm.046.64h.602v2.226h-.602v-2.225z" fill="#EE363D"/><path fill-rule="evenodd" clip-rule="evenodd" d="M6.806 9.97a.281.281 0 00-.293.284c0 .164.125.286.292.283h.001c.173 0 .297-.123.297-.283 0-.16-.127-.284-.297-.284zm-.394.284c0-.221.174-.386.394-.386a.386.386 0 110 .772.379.379 0 01-.394-.386zm.046.59h.703v2.327h-.702v-2.328zm.101.102v2.122h.501v-2.122h-.5z" fill="#EE363D"/><path d="M7.666 10.895h.605v.353c.11-.22.347-.404.711-.404.432 0 .736.263.736.86v1.416h-.605v-1.325c0-.303-.116-.447-.385-.447-.259 0-.457.162-.457.49v1.285h-.605v-2.228z" fill="#EE363D"/><path fill-rule="evenodd" clip-rule="evenodd" d="M8.982 10.896c-.345 0-.565.173-.666.375l-.095.19v-.515h-.504v2.126h.504v-1.234c0-.175.053-.311.146-.404a.5.5 0 01.36-.137c.144 0 .257.038.332.127.075.088.105.214.105.37v1.274h.504v-1.363c0-.29-.074-.492-.192-.62-.119-.127-.288-.19-.494-.19zm-.66.182c.138-.166.36-.285.66-.285.226 0 .425.069.567.222.142.153.22.383.22.69v1.466h-.706v-1.376c0-.146-.029-.243-.08-.303-.05-.059-.13-.092-.255-.092a.4.4 0 00-.29.107c-.07.07-.116.178-.116.33v1.338h-.706v-2.332h.706v.235z" fill="#EE363D"/><path d="M10.207 10.254c0-.191.148-.335.343-.335a.335.335 0 110 .67.328.328 0 01-.343-.335zm.046.64h.601v2.226h-.601v-2.225z" fill="#EE363D"/><path fill-rule="evenodd" clip-rule="evenodd" d="M10.55 9.97a.281.281 0 00-.293.284c0 .164.124.286.292.283h.001c.173 0 .296-.123.296-.283 0-.16-.127-.284-.296-.284zm-.394.284c0-.221.174-.386.394-.386a.386.386 0 110 .772.379.379 0 01-.394-.386zm.046.59h.703v2.327h-.703v-2.328zm.101.102v2.122h.5v-2.122h-.5z" fill="#EE363D"/><path d="M11.275 12.032V12c0-.72.506-1.156 1.13-1.156.505 0 .972.227 1.025.864h-.573c-.042-.259-.194-.378-.442-.378-.315 0-.524.238-.524.663v.032c0 .447.198.677.534.677.241 0 .44-.144.467-.428h.553c-.032.525-.411.892-1.044.892-.64-.003-1.126-.406-1.126-1.134z" fill="#EE363D"/><path fill-rule="evenodd" clip-rule="evenodd" d="M11.641 11.19c-.194.188-.315.463-.315.81v.032c0 .352.117.62.306.801.19.182.459.28.769.282.307 0 .547-.089.714-.237a.846.846 0 00.274-.553h-.452a.507.507 0 01-.166.309.522.522 0 01-.346.12.53.53 0 01-.432-.19c-.101-.126-.152-.309-.152-.539v-.032c0-.22.054-.4.155-.524a.521.521 0 01.419-.19.5.5 0 01.33.103.48.48 0 01.154.275h.475c-.035-.274-.154-.46-.316-.578-.176-.128-.407-.183-.654-.183-.3 0-.569.104-.763.293zm-.07-.075a1.18 1.18 0 01.833-.322c.26 0 .514.058.713.203.2.146.336.376.364.708l.004.056h-.67l-.008-.043a.401.401 0 00-.126-.255.402.402 0 00-.266-.08.421.421 0 00-.341.153c-.082.1-.133.253-.133.458v.032c0 .217.049.373.13.473.08.1.198.153.354.153.11 0 .208-.033.281-.096a.42.42 0 00.136-.287l.005-.046h.651l-.003.055a.962.962 0 01-.314.679c-.188.167-.454.262-.78.262-.331-.002-.626-.107-.838-.31-.213-.203-.338-.5-.338-.876V12c0-.373.131-.676.346-.885z" fill="#EE363D"/><path d="M13.809 12.324v-1.43h.602v1.347c0 .303.12.447.378.447.255 0 .457-.162.457-.49v-1.303h.601v2.225h-.601v-.353c-.114.227-.333.396-.694.396-.428 0-.743-.256-.743-.839z" fill="#EE363D"/><path fill-rule="evenodd" clip-rule="evenodd" d="M13.758 10.843h.703v1.398c0 .146.03.243.08.303s.128.092.248.092a.4.4 0 00.289-.107c.07-.07.117-.178.117-.331v-1.355h.703v2.328h-.703v-.233c-.135.166-.345.276-.643.276-.224 0-.424-.067-.568-.216-.144-.149-.226-.373-.226-.674v-1.48zm.101.103v1.378c0 .282.076.478.197.602.12.125.292.185.496.185.342 0 .544-.158.649-.367l.095-.192v.516h.5v-2.122h-.5v1.252a.55.55 0 01-.148.404.5.5 0 01-.359.137c-.138 0-.25-.039-.324-.128-.074-.087-.105-.213-.105-.37v-1.295h-.5z" fill="#EE363D"/><path d="M16.247 12.029v-.033c0-.698.499-1.152 1.154-1.152.654 0 1.15.447 1.15 1.138v.032c0 .702-.496 1.149-1.154 1.149-.651 0-1.15-.443-1.15-1.134zm1.688-.011v-.029c0-.425-.195-.68-.534-.68-.333 0-.535.245-.535.673v.032c0 .425.191.68.535.68.34 0 .534-.255.534-.676z" fill="#EE363D"/><path fill-rule="evenodd" clip-rule="evenodd" d="M16.613 11.195c-.196.19-.316.465-.316.801v.033c0 .332.12.602.315.789.196.187.47.293.785.293.318 0 .593-.107.789-.296.195-.19.314-.463.314-.8v-.033a1.07 1.07 0 00-.314-.79 1.115 1.115 0 00-.785-.296c-.316 0-.592.109-.788.3zm-.07-.074c.217-.21.519-.328.858-.328.338 0 .639.116.855.324.216.208.345.506.345.865v.032c0 .364-.129.665-.346.875-.216.21-.518.325-.858.325-.337 0-.637-.114-.854-.322a1.166 1.166 0 01-.346-.863v-.033c0-.362.13-.664.347-.875zm.427.331a.53.53 0 01.43-.195c.184 0 .333.07.435.2.1.13.15.313.15.532v.029c0 .218-.05.4-.15.528-.102.13-.25.2-.434.2a.526.526 0 01-.436-.2c-.1-.13-.15-.312-.15-.532v-.032c0-.222.053-.403.155-.53zm.078.065c-.082.103-.131.258-.131.465v.032c0 .206.046.363.127.468.08.103.198.162.357.162a.428.428 0 00.355-.162c.081-.104.128-.26.128-.464v-.029c0-.205-.047-.363-.128-.468a.427.427 0 00-.355-.161.43.43 0 00-.353.157z" fill="#EE363D"/><path d="M19.05 12.457V11.33h-.28v-.435h.28v-.483h.601v.483h.46v.439h-.46v1.073c0 .18.089.263.24.263.093 0 .16-.015.23-.044v.476a1.11 1.11 0 01-.367.06c-.46-.003-.705-.24-.705-.705z" fill="#EE363D"/><path fill-rule="evenodd" clip-rule="evenodd" d="M19 10.36h.702v.483h.46v.542h-.46v1.022c0 .082.02.133.049.163.028.03.073.048.14.048a.522.522 0 00.212-.04l.07-.027v.588l-.035.011c-.089.03-.215.064-.384.064-.239-.002-.43-.064-.56-.194-.131-.131-.195-.322-.195-.563v-1.075h-.28v-.539H19v-.482zm.1.104v.482h-.28v.333h.28v1.178c0 .224.059.384.164.49.107.105.268.163.49.165.135 0 .239-.024.317-.048v-.366a.644.644 0 01-.18.023.284.284 0 01-.213-.08c-.053-.056-.077-.136-.077-.234v-1.124h.46v-.337h-.46v-.482H19.1z" fill="#EE363D"/><path d="M20.412 12.5c0-.518.467-.713 1.136-.713h.247v-.09c0-.262-.077-.406-.353-.406-.238 0-.347.122-.372.313h-.573c.039-.526.446-.76.98-.76s.916.22.916.825v1.45h-.587v-.266c-.124.18-.318.313-.662.313-.4-.003-.732-.198-.732-.666zm1.38-.162v-.187h-.234c-.35 0-.555.076-.555.313 0 .162.095.267.318.267.27.003.47-.148.47-.393z" fill="#EE363D"/><path fill-rule="evenodd" clip-rule="evenodd" d="M20.553 11.553h.474a.387.387 0 01.116-.216.43.43 0 01.299-.098c.146 0 .252.039.32.124.065.084.084.2.084.335v.14h-.298c-.331 0-.605.05-.794.156a.541.541 0 00-.292.506c0 .22.078.37.198.467a.777.777 0 00.485.148c.327 0 .506-.125.62-.291l.091-.134v.378h.487v-1.4c0-.29-.091-.48-.239-.598-.15-.12-.365-.174-.627-.174-.26 0-.485.057-.647.173a.677.677 0 00-.277.484zm.22-.568c.184-.132.43-.192.704-.192.273 0 .515.056.69.196.177.143.277.365.277.68v1.502h-.688v-.177c-.134.134-.326.224-.612.224a.876.876 0 01-.547-.17c-.147-.119-.236-.3-.236-.548 0-.278.128-.473.343-.595.212-.12.506-.169.844-.169h.197v-.039c0-.128-.02-.215-.062-.27-.041-.051-.111-.085-.241-.085-.11 0-.184.028-.232.072a.308.308 0 00-.09.197l-.006.044h-.672l.005-.055a.793.793 0 01.325-.615zm.354 1.188c.106-.055.255-.073.431-.073h.284v.238a.412.412 0 01-.153.33.569.569 0 01-.368.114c-.118 0-.212-.027-.276-.085a.3.3 0 01-.093-.233c0-.067.015-.126.045-.176a.314.314 0 01.13-.115zm-.044.17a.23.23 0 00-.03.121c0 .07.02.122.059.156.039.035.105.06.21.06a.471.471 0 00.304-.092.31.31 0 00.115-.25v-.135h-.183c-.173 0-.302.019-.386.062a.213.213 0 00-.089.077z" fill="#EE363D"/><path d="M22.75 12.418h.564c.024.201.12.313.385.313.234 0 .343-.09.343-.241 0-.152-.13-.216-.442-.263-.58-.09-.807-.26-.807-.691 0-.465.418-.692.864-.692.485 0 .849.18.902.688h-.556c-.031-.184-.134-.267-.343-.267-.198 0-.308.094-.308.23 0 .141.107.195.421.242.549.08.85.22.85.699 0 .478-.344.73-.92.73-.588-.003-.93-.266-.952-.748z" fill="#EE363D"/><path fill-rule="evenodd" clip-rule="evenodd" d="M23.087 11.058a.563.563 0 00-.243.478c0 .206.053.339.167.434.118.098.308.161.597.206.155.023.274.052.355.098a.264.264 0 01.097.09c.023.038.033.08.033.126 0 .09-.034.166-.105.219a.485.485 0 01-.289.073c-.139 0-.243-.029-.316-.093a.373.373 0 01-.113-.22h-.465c.02.202.104.355.24.462.15.117.37.182.658.184.282 0 .5-.062.645-.175.144-.112.224-.279.224-.504 0-.227-.07-.364-.198-.458-.133-.097-.334-.15-.608-.19a1.075 1.075 0 01-.345-.091.23.23 0 01-.09-.085.227.227 0 01-.03-.116c0-.084.035-.157.1-.207a.417.417 0 01.26-.075c.11 0 .2.022.268.075a.338.338 0 01.115.192h.457a.624.624 0 00-.26-.44c-.146-.101-.347-.145-.584-.145a.987.987 0 00-.57.162zm-.058-.084c.17-.123.397-.181.628-.181.247 0 .47.046.641.162.172.118.283.305.311.572l.006.056h-.654l-.007-.042c-.015-.084-.044-.137-.087-.17-.043-.035-.108-.054-.207-.054a.32.32 0 00-.197.053.152.152 0 00-.06.126c0 .028.005.048.014.064a.13.13 0 00.052.047.994.994 0 00.312.08c.274.039.498.095.652.208.16.116.24.288.24.54 0 .254-.091.453-.263.586-.17.133-.413.197-.707.197-.3-.002-.546-.07-.72-.206-.175-.137-.271-.338-.283-.592l-.002-.054h.66l.006.045c.011.095.038.159.085.2.047.042.123.069.25.069.112 0 .185-.022.23-.055.042-.03.063-.074.063-.135a.132.132 0 00-.018-.072.162.162 0 00-.06-.054.983.983 0 00-.321-.086c-.292-.046-.506-.112-.646-.229-.144-.12-.204-.287-.204-.513 0-.25.113-.439.286-.562z" fill="#EE363D"/></svg>