<svg xmlns="http://www.w3.org/2000/svg" fill="none" viewBox="0 0 38 24" height="24" width="38" aria-labelledby="pi-ministop" role="img"><title id="pi-ministop">Ministop</title><path fill="#fff" d="M0 0h38v24H0z"/><path fill="#004097" d="M21.19 4a.572.572 0 1 0 .89.72A2.92 2.92 0 0 1 25.43 4c1.56.55 1.78 2.92 1.79 2.95a.55.55 0 0 0 .35.48 3.71 3.71 0 0 1 2.61 3.54c0 .201-.02.402-.06.6a.62.62 0 0 0 .49.67 2.27 2.27 0 0 1 1.89 2.46 3 3 0 0 1-2.43 2.76.55.55 0 0 0-.46.55v2.21H8.87v-8.28a.55.55 0 0 0-.55-.55h-2L13.38 4 16 6.63a.57.57 0 0 0 .8-.81l-3-3a.55.55 0 0 0-.78 0L4.55 11.6a.55.55 0 0 0 .39 1H7.7v8.31a.55.55 0 0 0 .55.55h21.92a.55.55 0 0 0 .55-.55v-2.4a3.89 3.89 0 0 0 2.9-3.75 3.4 3.4 0 0 0-2.34-3.49V11a4.82 4.82 0 0 0-3-4.43c-.12-.78-.61-2.95-2.46-3.61A4 4 0 0 0 21.19 4Z"/><path fill="#004097" d="M12.11 7.84a.76.76 0 0 0-.5.71v3.72a.76.76 0 0 0 1.52 0v-1.66l.49.55a.76.76 0 0 0 .55.27.771.771 0 0 0 .55-.25l.65-.71v1.8a.76.76 0 0 0 1.52 0V8.55A.76.76 0 0 0 15.57 8l-1.36 1.55-1.27-1.49a.76.76 0 0 0-.83-.22Zm5.76.71v3.75a.76.76 0 0 0 1.52 0V8.55a.76.76 0 0 0-1.52 0Zm7.55 0v3.75a.76.76 0 0 0 1.52 0V8.55a.76.76 0 1 0-1.52 0Zm-4.51-.73a.76.76 0 0 0-.55.72v3.75a.76.76 0 0 0 1.52 0V11l1.22 1.76a.76.76 0 0 0 1.38-.44V8.55a.76.76 0 1 0-1.52 0v1.33l-1.22-1.76a.76.76 0 0 0-.83-.3Zm-8.38 10.09c-.32.12-.62-.14-.81-.38a.65.65 0 1 0-1 .78 2 2 0 0 0 2.26.77 2 2 0 0 0 1.27-1.81A1.65 1.65 0 0 0 13 15.78c-.73-.23-.84-.47-.86-.52-.02-.05-.11-.41.5-.38a1 1 0 0 1 .55.34.65.65 0 0 0 1-.79 2.26 2.26 0 0 0-1.51-.84 2 2 0 0 0-1.52.65l-.07.08a1.57 1.57 0 0 0-.2 1.35 2.36 2.36 0 0 0 1.7 1.33.39.39 0 0 1 .32.45.43.43 0 0 1-.38.46Zm2.56-4.1a.652.652 0 0 0-.73.645.65.65 0 0 0 .73.645h2.63a.65.65 0 0 0 0-1.29h-2.63Z"/><path fill="#004097" d="M15.63 14.59v3.73a.76.76 0 0 0 1.52 0v-3.73a.76.76 0 0 0-1.52 0Zm10.66-.89H24.8a.76.76 0 0 0-.76.76v3.86a.76.76 0 0 0 1.52 0v-.89h.72a2.05 2.05 0 0 0 1.95-1.9 1.91 1.91 0 0 0-1.94-1.83Zm-.08 2.21h-.55V15h.58s.47.09.47.44-.5.46-.5.46v.01Zm-5.47-2.33a2.76 2.76 0 1 0 0 5.52 2.76 2.76 0 0 0 0-5.52Zm0 4a1.16 1.16 0 1 1 0-2.322 1.16 1.16 0 0 1 0 2.322Z"/></svg>