<svg xmlns="http://www.w3.org/2000/svg" fill="none" viewBox="0 0 38 24" height="24" width="38" aria-labelledby="pi-minicuotas" role="img"><title id="pi-minicuotas">Minicuotas</title><path fill="#fff" d="M0 0h38v24H0z"/><path fill="#fff" d="M35.921 9.08H2.08v5.462h33.84V9.08h.001Z"/><path fill="#EE363D" fill-rule="evenodd" d="M2 9h34v5.622H2V9Zm.157.16v5.302h23.089V9.16H2.157Zm29.178 2.221v.007c.241.065.368.242.368.522 0 .4-.23.648-.778.648h-.899v-2.225h.889c.473 0 .71.22.71.572 0 .249-.116.4-.29.476Zm-.438-.627h-.4v.486h.411c.176 0 .25-.068.25-.244 0-.177-.077-.242-.261-.242Zm-.397 1.397h.432c.195 0 .28-.068.283-.281 0-.187-.081-.262-.294-.262H30.5v.543Zm1.964-1.818h.584l.757 2.225h-.545l-.123-.436h-.79l-.123.436h-.517l.757-2.225Zm.224.612-.22.76h.552l-.209-.76-.057-.234h-.006l-.06.234Zm1.57.486c0 .558.142.713.542.713.159 0 .35-.047.474-.097v.432a1.311 1.311 0 0 1-.545.122c-.658 0-.984-.374-.984-1.166 0-.742.319-1.134 1.016-1.134.17.001.338.031.498.09v.428a1.42 1.42 0 0 0-.47-.076c-.396 0-.531.163-.531.688Zm.885 1.437c-.11 0-.145.043-.145.187 0 .148.039.191.145.195a.35.35 0 0 0 .127-.03v.116a.345.345 0 0 1-.145.032c-.177 0-.265-.101-.265-.313 0-.198.088-.306.276-.306a.39.39 0 0 1 .134.025v.115a.35.35 0 0 0-.127-.021Zm-4.852 0c-.109 0-.145.043-.145.187 0 .148.039.191.145.195a.35.35 0 0 0 .128-.03v.116a.345.345 0 0 1-.145.032c-.177 0-.266-.101-.266-.313 0-.198.089-.306.276-.306a.39.39 0 0 1 .135.025v.115a.362.362 0 0 0-.128-.021Zm.687.075c0 .083-.035.141-.099.162l.141.249h-.155l-.103-.224h-.085v.224h-.134v-.598h.215c.146 0 .22.057.22.187Zm-.301.09h.082c.056 0 .081-.022.084-.082 0-.062-.024-.08-.081-.08h-.085v.162Zm.782.069h-.216v.137h.269v.118h-.404v-.601h.39l.004.118h-.259v.12h.216v.108Zm.166-.346h.22c.187 0 .265.09.265.295 0 .216-.088.303-.262.303h-.223v-.598Zm.131.479h.089c.088 0 .127-.029.124-.184 0-.144-.036-.176-.128-.176h-.085v.36Zm.439-.176c0-.213.074-.31.258-.31.189 0 .262.093.259.31 0 .215-.075.31-.259.31-.18 0-.258-.098-.258-.31Zm.142-.004c0 .151.032.191.12.191v-.001c.088 0 .12-.039.12-.19s-.028-.187-.12-.187c-.088 0-.12.036-.12.187Zm.782.111.021-.061v.001l.138-.35h.145v.601h-.12v-.306l.003-.065h-.003l-.022.062-.12.31h-.088l-.12-.31-.022-.062h-.003v.371h-.117v-.601h.148l.135.35.021.06h.004Zm.59-.41h.16l.202.598h-.149l-.032-.115h-.212l-.032.115h-.142l.205-.598Zm.064.166-.06.204.152.001-.056-.205-.014-.065h-.004l-.018.065Zm.283-.044.004-.122h.442l.004.122h-.16v.48h-.13v-.48h-.16Zm.687.479h-.135v-.601h.135v.601Zm-5.577-1.584-1.175-.958v1.743h.86l.315-.785Zm-3.368-.965 2.038-.558v.601l-2.038.893v-.936Zm0 1.109 2.038-.893v.663l-2.038 1.263v-1.033Zm2.82 1.44h-1.334l.651-.637h.683v.637Zm-2.82-.219 2.038-1.264v.72l-.778.764h-1.26v-.22Z" clip-rule="evenodd"/><path fill="#EE363D" d="M3.67 10.026h-.98v3.141h.706V11.25l.747 1.917h.291l.744-1.916v1.916h.773v-3.141h-.963l-.655 1.795-.663-1.795Zm3.136-.158a.384.384 0 0 0-.394.386.379.379 0 0 0 .394.386.386.386 0 1 0 0-.772Zm-.348.976.001 2.327h.702v-2.327h-.703Zm2.524-.051c-.3 0-.522.119-.66.285v-.235h-.706v2.332h.706v-1.338c0-.152.046-.26.116-.33a.4.4 0 0 1 .29-.107c.125 0 .205.033.255.092.051.06.08.157.08.303v1.376h.706v-1.466c0-.307-.078-.537-.22-.69-.142-.153-.341-.222-.567-.222Zm1.568-.925a.384.384 0 0 0-.394.386.38.38 0 0 0 .394.386.386.386 0 1 0 0-.772Zm.355.976h-.703v2.327h.703v-2.327Zm1.499-.051a1.18 1.18 0 0 0-.833.322c-.215.209-.346.512-.346.885v.032c0 .376.125.673.338.876.212.203.507.308.838.31.326 0 .592-.095.78-.262a.963.963 0 0 0 .314-.68l.003-.054h-.651l-.005.046a.42.42 0 0 1-.136.287.424.424 0 0 1-.281.096.428.428 0 0 1-.354-.153c-.081-.1-.13-.256-.13-.473v-.032c0-.205.051-.358.133-.458a.421.421 0 0 1 .341-.153.403.403 0 0 1 .266.08.402.402 0 0 1 .126.255l.008.043h.67l-.004-.056c-.028-.332-.164-.562-.364-.708-.199-.145-.453-.203-.713-.203Zm2.057.05h-.703v1.481c0 .301.082.525.226.674.144.149.344.216.568.216.298 0 .508-.11.643-.276v.233h.703v-2.328h-.703v1.355a.45.45 0 0 1-.117.331.4.4 0 0 1-.289.107c-.12 0-.198-.032-.248-.092-.05-.06-.08-.157-.08-.303v-1.398Z"/><path fill="#EE363D" fill-rule="evenodd" d="M17.401 10.793c-.339 0-.641.118-.858.328h.001a1.193 1.193 0 0 0-.347.875v.033a1.166 1.166 0 0 0 .346.863c.217.208.517.322.854.322.34 0 .642-.115.858-.325.217-.21.346-.511.346-.875v-.032c0-.359-.129-.657-.345-.865a1.216 1.216 0 0 0-.855-.324Zm-.484 1.189c0-.207.049-.362.131-.465a.43.43 0 0 1 .353-.157.427.427 0 0 1 .355.161c.081.105.128.263.128.468v.029c0 .204-.047.36-.128.464a.428.428 0 0 1-.355.162.428.428 0 0 1-.357-.162c-.081-.105-.127-.262-.127-.468v-.032Z" clip-rule="evenodd"/><path fill="#EE363D" d="M19.702 10.36H19v.483h-.281v.539h.28v1.075c0 .241.064.432.195.563.13.13.321.192.56.194.169 0 .295-.034.384-.064l.035-.011v-.588l-.07.027a.522.522 0 0 1-.212.04c-.067 0-.112-.018-.14-.048-.029-.03-.049-.081-.049-.163v-1.022h.46v-.542h-.46v-.483Z"/><path fill="#EE363D" fill-rule="evenodd" d="M21.477 10.793c-.274 0-.52.06-.704.192h-.001a.793.793 0 0 0-.325.615l-.005.055h.672l.006-.044a.308.308 0 0 1 .09-.197c.048-.044.122-.072.232-.072.13 0 .2.034.241.085.042.055.062.142.062.27v.039h-.197c-.338 0-.632.049-.844.169a.644.644 0 0 0-.343.595c0 .248.089.429.236.548.158.116.35.176.547.17.286 0 .478-.09.612-.224v.177h.688v-1.502c0-.315-.1-.537-.277-.68-.175-.14-.417-.196-.69-.196Zm-.424 1.671a.23.23 0 0 1 .03-.121v-.001a.213.213 0 0 1 .089-.077c.084-.043.213-.062.386-.062h.183v.135a.31.31 0 0 1-.115.25.471.471 0 0 1-.304.092c-.105 0-.171-.025-.21-.06-.039-.034-.059-.086-.059-.156Zm1.976-1.49c.17-.123.397-.181.628-.181.247 0 .47.046.641.162.172.118.283.305.311.572l.006.056h-.654l-.007-.042c-.015-.084-.044-.137-.087-.17-.043-.035-.108-.054-.207-.054a.32.32 0 0 0-.197.053.152.152 0 0 0-.06.126c0 .028.005.048.014.064a.13.13 0 0 0 .052.047c.099.043.204.07.312.08.274.039.498.095.652.208.16.116.24.288.24.54 0 .254-.091.453-.263.586-.17.133-.413.197-.707.197-.3-.002-.546-.07-.72-.206-.175-.137-.271-.338-.283-.592l-.002-.054h.66l.006.045c.011.095.038.159.085.2.047.042.123.069.25.069.112 0 .185-.022.23-.055.042-.03.063-.074.063-.135a.132.132 0 0 0-.018-.072.161.161 0 0 0-.06-.054.981.981 0 0 0-.321-.086c-.292-.046-.506-.112-.646-.229-.144-.12-.204-.287-.204-.513 0-.25.113-.439.286-.562Z" clip-rule="evenodd"/></svg>