<svg xmlns="http://www.w3.org/2000/svg" role="img" width="38" height="24" fill="none" viewBox="0 0 38 24" aria-labelledby="pi-mispay"><title id="pi-mispay">MISpay</title><g clip-path="url(#pi-mispay-clip)"><path fill="#6322d0" d="M35 1c1.1 0 2 .9 2 2v18c0 1.1-.9 2-2 2H3c-1.1 0-2-.9-2-2V3c0-1.1.9-2 2-2z"/></g><path fill="#000" opacity=".07" d="M35 0H3C1.3 0 0 1.3 0 3v18c0 1.7 1.4 3 3 3h32c1.7 0 3-1.3 3-3V3c0-1.7-1.4-3-3-3z"/><path fill="#fff" d="M17.627 8.014v2.735a1.73 1.73 0 0 0 1.194-.476 1.6 1.6 0 0 0 .495-1.15v-1.11zm.637 3.237a1.6 1.6 0 0 0-.637 1.273V16h1.689v-5.102c-.397 0-.763.132-1.052.354m6.75.467-.154-.06a10 10 0 0 0-1.126-.297c-.22-.05-.444-.1-.661-.158a6.5 6.5 0 0 1-.984-.324q-.473-.214-.417-.763c.026-.227.159-.4.33-.525q.167-.12.37-.18c.21-.063.443-.096.671-.096.195 0 .499.025.785.152.152.066.298.162.42.298a1.5 1.5 0 0 1 .31.556c.079.284.103.37.234.37l.03-.002.013-.004.06-.01.644-.115.48-.084.15-.035-.029-.139-.015-.067a3 3 0 0 0-.097-.382c-.098-.308-.278-.728-.59-1.016l-.002-.002a2.7 2.7 0 0 0-.673-.448l-.017-.009-.01-.003a3.7 3.7 0 0 0-1.218-.34 4.435 4.435 0 0 0-1.471.106c-.827.204-1.558.65-1.878 1.326a1.77 1.77 0 0 0-.032 1.454c.187.447.556.843 1.075 1.132q.203.112.435.202c.163.052.344.104.569.165l.313.084q.226.059.448.121c.147.04.297.075.442.107.23.052.445.1.651.177q.09.033.169.074.52.264.464.77c-.037.326-.26.554-.56.695-.256.12-.57.177-.874.177q-.19 0-.362-.03a3.3 3.3 0 0 1-.71-.201c-.836-.356-.992-.959-1.051-1.187a.4.4 0 0 0-.055-.14l-.06-.075-.185.04c-.303.063-.59.123-.871.184l-.297.062.023.14q.07.405.203.753.027.068.059.134c.304.649.892 1.133 1.707 1.404l.027.01q.191.054.386.094a4.8 4.8 0 0 0 1 .11c1.476 0 3.132-.652 3.28-2.086q.009-.088.012-.178v-.013c.014-.907-.444-1.556-1.36-1.928m-8.245-3.03-.001-.012a.8.8 0 0 0-.113-.276l-.008-.015a1 1 0 0 0-.091-.112l-.013-.012a1 1 0 0 0-.122-.101l-.003-.003h-.002a.9.9 0 0 0-.306-.126V8.03a1 1 0 0 0-.154-.015l-.013-.001h-.005a1 1 0 0 0-.156.015.9.9 0 0 0-.287.108l-.017.008a1 1 0 0 0-.114.088l-.015.011a1 1 0 0 0-.106.122l-.004.005v.002l-.507.707-1.687 2.36-.81 1.132V8.827a1 1 0 0 0-.013-.14l-.002-.011a1 1 0 0 0-.046-.15 1 1 0 0 0-.075-.141.8.8 0 0 0-.226-.225l-.003-.003h-.002a.87.87 0 0 0-.46-.142l-.011-.001h-.005a1 1 0 0 0-.157.015 1 1 0 0 0-.157.044 1 1 0 0 0-.13.064l-.016.008a1 1 0 0 0-.115.088l-.014.011a1 1 0 0 0-.103.118l-.003.004-.004.005v.002l-.506.708-1.688 2.36-.81 1.132-1.54 2.152a.79.79 0 0 0-.094.752l.005.011q.06.14.167.254l.013.012q.056.055.12.1l.004.002q0 0 .003.002a2 2 0 0 0 .122.067l.105.04.011.001q.047.013.098.022l.031.005a1 1 0 0 0 .101.007h.02l.082-.006.027-.003.095-.019.063-.018.029-.01.06-.026.025-.012a1 1 0 0 0 .153-.099l.026-.023.043-.042.023-.024a1 1 0 0 0 .057-.07l.006-.006.953-1.335 1.689-2.361.36-.504v-.002 3.746q0 .072.014.139l.003.012a1 1 0 0 0 .04.14l.004.01q.03.068.067.126l.01.014a.7.7 0 0 0 .09.114l.012.012a1 1 0 0 0 .127.102v.003a2 2 0 0 0 .124.066q.052.021.106.04l.009.002q.048.012.099.021l.032.005a1 1 0 0 0 .1.007h.019l.083-.006.025-.003.097-.019.062-.018.03-.01a1 1 0 0 0 .086-.038 1 1 0 0 0 .178-.122l.042-.041.025-.025a1 1 0 0 0 .057-.07l.005-.006.14-.197.813-1.137 1.688-2.362.362-.505v4.485q0 .039.005.074h1.679l.004-.074V8.827a1 1 0 0 0-.014-.14m13.508-.04a.53.53 0 0 0-.316-.054.5.5 0 0 0-.095.018c-.196.056-.31.212-.326.44l-.002.053a.47.47 0 0 0 .388.474 1 1 0 0 0 .1.01c.055-.01.11-.016.164-.032.195-.06.31-.216.32-.445.008-.236-.093-.387-.233-.464m0 0a.53.53 0 0 0-.316-.054.5.5 0 0 0-.095.018c-.196.056-.31.212-.326.44l-.002.053a.47.47 0 0 0 .388.474 1 1 0 0 0 .1.01c.055-.01.11-.016.164-.032.195-.06.31-.216.32-.445.008-.236-.093-.387-.233-.464m-2.112-.064-.063.018c-.171.062-.275.212-.293.423-.022.264.132.468.353.524.096.024.196.02.29-.01.204-.06.326-.234.327-.47.003-.346-.272-.562-.614-.485m-.003.965c.096.024.196.02.29-.01.204-.06.326-.234.327-.47.003-.346-.272-.563-.614-.487l-.063.02c-.171.062-.275.212-.293.423-.022.264.132.468.353.524m2.115-.901a.53.53 0 0 0-.316-.054.5.5 0 0 0-.095.018c-.196.056-.31.212-.326.44l-.002.053a.47.47 0 0 0 .388.474 1 1 0 0 0 .1.01c.055-.01.11-.016.164-.032.195-.06.31-.216.32-.445.008-.236-.093-.387-.233-.464m2.163-.302-.601 1.594a.88.88 0 0 1-.42.471.7.7 0 0 1-.39.075 1.2 1.2 0 0 1-.258-.056l.11-.292c.093.028.182.056.279.037.187-.038.295-.157.36-.318.009-.023-.003-.057-.013-.083l-.53-1.408-.027-.074h.337l.41 1.105h.015l.41-1.105h.333zm-1.926 1.51v-.141c-.013.002-.022 0-.026.004-.147.157-.42.213-.674.155a.77.77 0 0 1-.407-.232.8.8 0 0 1-.191-.51.9.9 0 0 1 .137-.53 1 1 0 0 1 .055-.076c.165-.192.486-.296.77-.234a.66.66 0 0 1 .298.146c.006.007.015.01.036.026v-.172h.32v1.565zm-3.027-1.564h.317l.006.092.076-.038a.94.94 0 0 1 .68-.054.8.8 0 0 1 .302.172.77.77 0 0 1 .23.485.87.87 0 0 1-.118.579.7.7 0 0 1-.209.215.75.75 0 0 1-.284.114q-.155.028-.311.012a1 1 0 0 1-.367-.127v.584h-.322zM26.944 8v2.743l4.368-.007c.932 0 1.688-.727 1.688-1.627V8zm1.22.584-.062.018c-.171.062-.275.212-.293.423-.022.264.132.468.353.524.096.024.196.02.29-.01.204-.06.326-.234.327-.47.003-.346-.272-.562-.614-.485m2.114.063a.53.53 0 0 0-.316-.054.5.5 0 0 0-.095.018c-.196.056-.311.213-.327.442l-.001.05c.003.247.155.43.387.476a1 1 0 0 0 .1.01c.055-.01.111-.016.164-.032.196-.06.31-.216.32-.445.008-.236-.092-.388-.232-.465m0 0a.53.53 0 0 0-.316-.054.5.5 0 0 0-.095.018c-.196.056-.311.213-.327.442l-.001.05c.003.247.155.43.387.476a1 1 0 0 0 .1.01c.055-.01.111-.016.164-.032.196-.06.31-.216.32-.445.008-.236-.092-.388-.232-.465m-2.113-.063-.062.018c-.171.061-.275.21-.294.423-.021.264.132.468.353.524.096.024.197.02.29-.01.205-.06.326-.234.327-.47.003-.346-.272-.563-.614-.487m0 0-.062.02c-.171.061-.275.21-.294.423a.48.48 0 0 0 .354.523.53.53 0 0 0 .29-.009c.204-.06.326-.236.327-.472.003-.345-.273-.561-.615-.485"/><defs><clipPath id="pi-mispay-clip"><path fill="#fff" d="M0 0h38v24H0z"/></clipPath></defs></svg>
