<?xml version="1.0" encoding="UTF-8" standalone="no"?>
<svg
   xmlns:dc="http://purl.org/dc/elements/1.1/"
   xmlns:cc="http://creativecommons.org/ns#"
   xmlns:rdf="http://www.w3.org/1999/02/22-rdf-syntax-ns#"
   xmlns:svg="http://www.w3.org/2000/svg"
   xmlns="http://www.w3.org/2000/svg"
   version="1.1"
   id="svg3764"
   viewBox="0 0 38 24"
   height="24"
   width="38">
  <metadata
     id="metadata3780">
    <rdf:RDF>
      <cc:Work
         rdf:about="">
        <dc:format>image/svg+xml</dc:format>
        <dc:type
           rdf:resource="http://purl.org/dc/dcmitype/StillImage" />
        <dc:title></dc:title>
      </cc:Work>
    </rdf:RDF>
  </metadata>
  <defs
     id="defs3778">
    <clipPath
       clipPathUnits="userSpaceOnUse"
       id="clipPath3965">
      <path
         d="m 0,841.89 1190.55,0 L 1190.55,0 0,0 0,841.89 Z"
         id="path3967" />
    </clipPath>
  </defs>
  <path
     id="path3766"
     d="M35 0h-32c-1.7 0-3 1.3-3 3v18c0 1.7 1.4 3 3 3h32c1.7 0 3-1.3 3-3v-18c0-1.7-1.4-3-3-3z"
     enable-background="new"
     opacity=".07" />
  <path
     fill="#fff"
     id="path3768"
     d="M35 1c1.1 0 2 .9 2 2v18c0 1.1-.9 2-2 2h-32c-1.1 0-2-.9-2-2v-18c0-1.1.9-2 2-2h32" />
  <g
     transform="matrix(0.03102668,0,0,-0.03102668,0.30570367,25.393986)"
     id="g3961">
    <g
       id="g3963"
       clip-path="url(#clipPath3965)">
      <g
         id="g3969"
         transform="translate(321.6328,386.3643)">
        <path
           d="m 0,0 0,-0.976 c 0,-11.996 4.744,-22.993 14.221,-33.034 9.844,-8.724 20.527,-13.099 32.041,-13.099 l 1.806,0 c 12.819,0 24.297,5.201 34.419,15.617 7.899,9.569 11.842,19.747 11.842,30.516 l 0,0.976 c 0,13.274 -4.876,24.741 -14.627,34.408 -5.392,4.827 -10.922,8.222 -16.581,10.184 -5.392,1.756 -10.264,2.633 -14.623,2.633 l -2.653,0 c -7.796,0 -15.794,-2.421 -23.961,-7.241 C 19.099,38.32 15.614,35.338 11.436,31.059 6.503,24.845 3.44,19.309 2.233,14.479 0.753,10.493 0,5.666 0,0 m 45.991,71.463 2.358,0 c 14.672,0 28.94,-5.008 42.778,-15.036 6.312,-5.304 10.726,-9.854 13.234,-13.656 9.48,-12.996 14.209,-27.27 14.209,-42.771 0,-18.767 -6.83,-35.48 -20.479,-50.169 -7.338,-6.963 -14.3,-11.783 -20.893,-14.48 -9.945,-4.454 -19.559,-6.693 -28.849,-6.693 l -2.358,0 c -14.872,0 -29.174,5.065 -42.926,15.186 -5.107,4.187 -9.098,8.22 -11.973,12.125 -10.222,13.183 -15.333,27.91 -15.333,44.159 0,17.643 6.134,33.583 18.401,47.794 6.312,6.414 10.861,10.311 13.649,11.706 12.445,7.899 25.174,11.835 38.182,11.835"
           style="fill:#414142;fill-opacity:1;fill-rule:nonzero;stroke:none"
           id="path3971" />
      </g>
      <g
         id="g3973"
         transform="translate(479.1841,386.4922)">
        <path
           d="m 0,0 0,-1.104 c 0,-12.732 5.248,-24.154 15.736,-34.286 9.574,-7.976 19.741,-11.977 30.525,-11.977 l 1.806,0 c 11.427,0 21.961,4.324 31.626,12.966 9.76,9.847 14.632,20.939 14.632,33.297 l 0,1.104 c 0,12.636 -4.646,23.735 -13.929,33.306 -6.322,5.853 -12.219,9.532 -17.701,11.003 -5.008,1.769 -9.797,2.659 -14.346,2.659 l -2.371,0 C 34.926,46.968 24.568,42.741 14.907,34.28 4.962,24.529 0,13.107 0,0 m -12.683,128.202 1.122,0 c 3.902,0 7.189,-2.053 9.886,-6.144 C -0.561,120.303 0,117.515 0,113.694 L 0,64.373 c 0,-2.124 1.484,-3.808 4.46,-5.002 0.919,-0.102 1.436,-0.142 1.529,-0.142 1.211,0 4.505,1.575 9.896,4.736 10.403,4.738 20.522,7.106 30.376,7.106 l 2.368,0 c 12.627,0 25.165,-3.866 37.61,-11.571 13.562,-8.918 23.041,-21.167 28.425,-36.771 2.516,-7.628 3.758,-15.152 3.758,-22.586 l 0,-0.84 c 0,-16.818 -5.854,-32.266 -17.543,-46.386 C 94.371,-53.769 90.05,-57.628 87.914,-58.646 75.469,-67.191 61.952,-71.47 47.371,-71.47 c -13.929,0 -27.026,3.866 -39.294,11.565 -0.923,0.567 -1.853,0.84 -2.785,0.84 l -0.416,0 c -2.979,0 -5.247,-2.28 -6.831,-6.823 -2.785,-3.722 -6.221,-5.582 -10.313,-5.582 -4.078,0 -7.56,2.084 -10.447,6.266 -0.932,2.323 -1.39,4.091 -1.39,5.299 l 0,176.671 c 0,4.091 2.277,7.512 6.827,10.313 1.958,0.736 3.484,1.123 4.595,1.123"
           style="fill:#414142;fill-opacity:1;fill-rule:nonzero;stroke:none"
           id="path3975" />
      </g>
      <g
         id="g3977"
         transform="translate(622.8037,457.5635)">
        <path
           d="m 0,0 1.941,0 c 3.163,0 6.083,-1.589 8.778,-4.744 1.494,-2.323 2.232,-4.504 2.232,-6.55 l 0,-119.683 c 0,-4.362 -2.368,-7.892 -7.108,-10.583 -1.856,-0.659 -3.29,-0.981 -4.317,-0.981 l -1.124,0 c -3.894,0 -7.188,2.039 -9.885,6.13 -1.111,1.768 -1.668,4.506 -1.668,8.222 l 0,113.83 c 0,6.33 1.893,10.493 5.714,12.551 C -3.672,-0.614 -1.861,0 0,0 m 0.551,48.07 0.834,0 c 5.481,0 9.804,-2.749 12.961,-8.228 1.025,-1.955 1.529,-4.046 1.529,-6.266 l 0,-1.393 c 0,-5.306 -2.834,-9.565 -8.493,-12.83 -2.055,-0.916 -4.188,-1.388 -6.414,-1.388 -6.315,0 -10.964,3.162 -13.929,9.473 -0.655,1.679 -0.978,3.247 -0.978,4.745 l 0,1.251 c 0,6.305 3.345,10.907 10.028,13.784 1.679,0.568 3.163,0.852 4.462,0.852"
           style="fill:#414142;fill-opacity:1;fill-rule:nonzero;stroke:none"
           id="path3979" />
      </g>
      <g
         id="g3981"
         transform="translate(715.8281,457.6924)">
        <path
           d="m 0,0 c 14.771,0 28.332,-4.227 40.688,-12.682 2.785,-2.503 4.178,-5.666 4.178,-9.46 0,-4.194 -2.088,-7.576 -6.262,-10.17 -2.24,-1.039 -4.091,-1.536 -5.576,-1.536 -2.884,0 -6.325,1.342 -10.309,4.04 -6.967,3.808 -14.581,5.705 -22.852,5.705 l -0.842,0 c -7.247,0 -14.772,-2.144 -22.57,-6.403 -10.119,-6.13 -17.13,-14.686 -21.038,-25.651 -1.661,-5.092 -2.507,-10.202 -2.507,-15.315 0,-13.099 5.114,-24.657 15.323,-34.691 6.325,-5.397 12.639,-8.92 18.951,-10.597 4.459,-1.194 8.405,-1.807 11.841,-1.807 l 1.123,0 c 9.474,0 18.333,2.698 26.614,8.092 2.123,1.111 4.22,1.653 6.266,1.653 3.707,0 7.011,-1.808 9.899,-5.421 1.291,-2.234 1.939,-4.414 1.939,-6.55 0,-5.021 -2.559,-8.874 -7.657,-11.571 -11.335,-6.866 -23.871,-10.306 -37.623,-10.306 -15.333,0 -29.769,5.021 -43.33,15.049 -2.975,2.316 -6.32,5.569 -10.028,9.752 -4.089,4.826 -6.786,8.645 -8.089,11.428 -6.224,11.054 -9.335,22.754 -9.335,35.113 0,15.41 4.83,29.775 14.49,43.056 1.675,2.323 4.786,5.704 9.338,10.17 5.108,4.35 9.939,7.706 14.491,10.035 C -22.193,-2.698 -11.232,0 0,0"
           style="fill:#189b9e;fill-opacity:1;fill-rule:nonzero;stroke:none"
           id="path3983" />
      </g>
      <g
         id="g3985"
         transform="translate(786.8467,457.6924)">
        <path
           d="m 0,0 c 3.248,0 6.414,-1.581 9.483,-4.731 1.114,-0.658 2.223,-0.98 3.336,-0.98 l 0.426,0 c 1.026,0 3.201,0.787 6.55,2.368 C 25.919,-1.103 31.964,0 37.904,0 c 11.705,0 22.583,-4.046 32.602,-12.113 1.671,-1.679 2.515,-2.569 2.515,-2.659 -9.111,-9.28 -13.854,-13.926 -14.212,-13.926 -1.033,-0.646 -2.042,-0.981 -3.066,-0.981 -1.493,0 -3.585,0.942 -6.278,2.788 -3.721,1.871 -7.709,2.788 -11.978,2.788 -7.062,0 -13.333,-2.827 -18.805,-8.486 -4.559,-5.118 -6.828,-11.056 -6.828,-17.844 l 0,-78.446 c 0,-5.202 -1.439,-8.816 -4.323,-10.868 -2.226,-1.941 -4.597,-2.923 -7.115,-2.923 l -1.246,0 c -1.3,0 -2.919,0.419 -4.875,1.258 -2.607,1.388 -4.55,3.68 -5.854,6.828 -0.47,1.2 -0.696,3.111 -0.696,5.705 l 0,115.087 c 0,4.925 1.349,8.403 4.046,10.449 C -5.896,-1.103 -3.153,0 0,0"
           style="fill:#189b9e;fill-opacity:1;fill-rule:nonzero;stroke:none"
           id="path3987" />
      </g>
      <g
         id="g3989"
         transform="translate(881.9844,386.6348)">
        <path
           d="m 0,0 c 0,-6.492 0.777,-10.352 2.372,-11.558 1.199,-1.11 2.684,-1.684 4.449,-1.684 1.401,0 3.998,1.594 7.806,4.75 0.461,0.179 19.179,13.467 56.145,39.854 1.395,1.291 2.089,2.776 2.089,4.448 l 0,0.851 c 0,1.659 -0.917,3.144 -2.788,4.441 -7.511,3.916 -14.623,5.853 -21.315,5.853 l -2.788,0 C 35.105,46.955 24.703,42.734 14.762,34.279 4.921,24.252 0,12.816 0,0 m 47.229,71.193 c 19.779,0 37.161,-7.46 52.111,-22.432 5.381,-5.944 8.075,-10.39 8.075,-13.358 0,-0.659 0.046,-1.174 0.148,-1.549 0,-2.969 -1.348,-5.847 -4.042,-8.635 -1.485,-1.199 -24.527,-17.643 -69.112,-49.317 0,-0.102 -3.762,-2.838 -11.29,-8.221 -1.11,-1.302 -1.675,-2.607 -1.675,-3.898 l 0,-0.851 c 0,-1.755 0.981,-3.278 2.933,-4.587 7.528,-3.803 14.63,-5.725 21.325,-5.725 l 2.784,0 c 10.667,0 20.804,4.007 30.377,11.996 5.199,5.291 8.266,9.106 9.186,11.422 1.584,2.518 3.123,6.003 4.607,10.448 0.92,4.557 2.224,7.718 3.898,9.487 2.786,2.504 5.618,3.756 8.493,3.756 5.569,0 9.429,-2.646 11.57,-7.944 0.465,-1.116 0.697,-2.369 0.697,-3.762 l 0,-0.414 c -0.1,-3.633 -1.81,-9.524 -5.155,-17.702 -1.956,-4.451 -5.16,-9.569 -9.616,-15.326 -4.653,-5.292 -8.731,-9.189 -12.258,-11.706 -6.044,-4.362 -11.378,-7.375 -16.03,-9.054 -8.919,-3.62 -17.469,-5.433 -25.636,-5.433 l -2.223,0 c -14.4,0 -28.243,4.601 -41.521,13.791 -6.41,4.923 -11.661,10.26 -15.748,16.035 -3.065,4.544 -5.482,8.726 -7.244,12.532 -4.092,10.126 -6.135,19.691 -6.135,28.699 0,17.095 5.673,32.654 17.012,46.683 5.288,5.562 9.14,9.144 11.553,10.719 13.189,9.571 27.492,14.346 42.916,14.346"
           style="fill:#189b9e;fill-opacity:1;fill-rule:nonzero;stroke:none"
           id="path3991" />
      </g>
      <g
         id="g3993"
         transform="translate(1024.6191,387.2031)">
        <path
           d="m 0,0 0,-1.53 c 0,-12.643 5.065,-24.013 15.19,-34.144 9.655,-8.178 19.871,-12.274 30.64,-12.274 l 2.518,0 c 10.492,0 20.437,3.871 29.813,11.576 4.183,3.905 7.061,7.189 8.642,9.893 5.008,8.087 7.525,16.399 7.525,24.949 l 0,1.53 c 0,12.525 -5.067,23.857 -15.185,33.995 -9.661,8.254 -19.928,12.391 -30.795,12.391 l -2.518,0 C 35.428,46.386 25.502,42.527 16.017,34.835 11.929,30.918 9.096,27.581 7.515,24.793 2.506,16.811 0,8.543 0,0 m 106.034,127.755 0.961,0 c 4.375,0 7.899,-2.42 10.597,-7.24 0.644,-1.866 0.98,-3.304 0.98,-4.325 l 0,-176.806 c 0,-4.647 -2.554,-8.216 -7.667,-10.727 -1.671,-0.56 -3.2,-0.838 -4.606,-0.838 -4.828,0 -8.486,2.563 -10.997,7.66 -1.214,3.163 -3.162,4.745 -5.847,4.745 l -0.284,0 c -1.304,0 -2.878,-0.616 -4.737,-1.815 -11.796,-7.06 -23.826,-10.59 -36.086,-10.59 l -2.092,0 c -14.209,0 -27.825,4.459 -40.819,13.378 -6.963,5.105 -12.591,10.855 -16.86,17.276 -8.551,12.344 -12.819,26.155 -12.819,41.384 0,14.294 4.414,27.944 13.232,40.954 6.596,8.466 12.597,14.21 17.973,17.275 5.294,3.994 12.358,7.336 21.172,10.035 6.7,1.676 13.204,2.504 19.515,2.504 13.087,0 25.871,-3.802 38.321,-11.423 1.109,-0.361 1.896,-0.542 2.361,-0.542 2.69,0 4.647,1.472 5.848,4.452 0.09,0.749 0.148,1.292 0.148,1.666 l 0,48.631 c 0,6.674 2.458,11.139 7.381,13.379 1.854,0.65 3.286,0.967 4.325,0.967"
           style="fill:#189b9e;fill-opacity:1;fill-rule:nonzero;stroke:none"
           id="path3995" />
      </g>
      <g
         id="g3997"
         transform="translate(76.4399,439.9712)">
        <path
           d="m 0,0 c -1.707,0 -3.449,0.484 -4.991,1.478 -4.279,2.755 -5.515,8.466 -2.753,12.739 12.874,19.941 32.467,33.209 55.15,37.364 22.79,4.182 45.89,-1.368 65.04,-15.591 4.088,-3.039 4.933,-8.816 1.901,-12.907 -3.034,-4.084 -8.819,-4.93 -12.898,-1.897 C 86.442,32.331 68.421,36.674 50.717,33.434 33.103,30.215 17.84,19.837 7.75,4.22 5.985,1.491 3.021,0 0,0"
           style="fill:#414142;fill-opacity:1;fill-rule:nonzero;stroke:none"
           id="path3999" />
      </g>
      <g
         id="g4001"
         transform="translate(56.5771,464.3135)">
        <path
           d="m 0,0 c -1.717,0 -3.446,0.47 -4.999,1.464 -4.278,2.776 -5.504,8.479 -2.742,12.753 16.078,24.896 40.508,41.468 68.818,46.643 28.456,5.215 57.292,-1.703 81.199,-19.475 4.088,-3.047 4.94,-8.822 1.907,-12.907 -3.043,-4.091 -8.819,-4.93 -12.907,-1.897 C 111.516,41.268 87.768,46.999 64.404,42.713 41.149,38.468 21.041,24.793 7.753,4.214 5.988,1.49 3.023,0 0,0"
           style="fill:#414142;fill-opacity:1;fill-rule:nonzero;stroke:none"
           id="path4003" />
      </g>
      <g
         id="g4005"
         transform="translate(264.9736,442.8179)">
        <path
           d="m 0,0 c -4.689,4.065 -9.573,7.24 -14.616,9.628 -1.146,0.463 -2.485,1.044 -4.022,1.723 -0.438,0.174 -0.886,0.31 -1.328,0.458 -5.964,1.897 -11.871,2.891 -17.757,2.937 -7.55,-0.072 -14.672,-1.459 -21.357,-4.196 -0.245,-0.11 -0.494,-0.199 -0.749,-0.302 -0.855,-0.369 -1.71,-0.788 -2.555,-1.194 -0.862,-0.434 -1.73,-0.871 -2.581,-1.336 -0.268,-0.156 -0.539,-0.31 -0.807,-0.465 -2.191,-1.284 -4.34,-2.743 -6.45,-4.336 -1.685,-1.627 -3.156,-2.893 -4.427,-3.808 -1.604,-1.259 -2.943,-1.899 -4.02,-1.899 l -0.01,0 -0.555,0 -0.01,0 c -1.068,0 -2.414,0.64 -4.021,1.899 -1.257,0.915 -2.739,2.194 -4.426,3.808 -2.114,1.593 -4.256,3.059 -6.437,4.336 -0.278,0.155 -0.549,0.309 -0.817,0.465 -0.855,0.465 -1.71,0.902 -2.575,1.336 -0.852,0.406 -1.707,0.825 -2.572,1.194 -0.235,0.103 -0.496,0.192 -0.741,0.302 -6.686,2.737 -13.798,4.124 -21.354,4.196 -5.889,-0.046 -11.797,-1.04 -17.764,-2.937 -0.438,-0.148 -0.883,-0.284 -1.325,-0.458 -1.539,-0.679 -2.875,-1.26 -4.02,-1.723 -5.044,-2.388 -9.93,-5.563 -14.615,-9.628 -6.033,-6.338 -9.75,-11.204 -11.144,-14.631 -4.079,-8.369 -6.133,-15.377 -6.133,-21.051 l 0,-76.076 c 0,-3.434 0.473,-6.074 1.402,-7.925 0.936,-1.401 1.947,-2.537 3.024,-3.48 0.865,-0.658 1.843,-1.277 2.965,-1.826 0.81,-0.451 2.204,-0.767 4.143,-0.955 0.081,0 0.158,-0.014 0.248,-0.014 0.059,0 0.114,0.014 0.181,0.014 1.63,0.098 3.169,0.453 4.628,1.084 0.374,0.155 0.709,0.343 1.055,0.518 1.955,1.212 3.597,3.07 4.933,5.626 0.742,1.756 1.11,4.079 1.11,6.958 l 0,76.212 c 0.329,3.968 1.991,8.182 5.001,12.655 0.01,0.007 0.01,0.007 0.023,0.046 0.439,0.633 0.9,1.284 1.394,1.935 3.885,4.711 8.357,8.003 13.387,9.964 0.191,0.078 0.371,0.155 0.565,0.239 0.797,0.291 1.616,0.529 2.449,0.748 0.39,0.111 0.787,0.252 1.19,0.342 0.64,0.142 1.301,0.246 1.966,0.349 0.574,0.097 1.135,0.207 1.729,0.284 0.739,0.077 1.503,0.077 2.269,0.116 0.47,0.013 0.912,0.078 1.38,0.078 l 0.071,0 0.065,0 c 1.2,0 2.372,-0.071 3.527,-0.194 0.325,-0.026 0.638,-0.102 0.968,-0.155 0.774,-0.115 1.558,-0.218 2.323,-0.386 0.968,-0.221 1.91,-0.491 2.846,-0.795 0.064,-0.019 0.142,-0.039 0.222,-0.071 5.863,-1.935 11.077,-5.659 15.614,-11.222 3.721,-5.762 5.572,-10.254 5.572,-13.507 l 0,-0.426 0,-76.212 c 0,-3.053 0.53,-5.589 1.536,-7.681 0.914,-1.587 1.968,-2.903 3.159,-3.897 0.765,-0.581 1.597,-1.104 2.549,-1.524 0.901,-0.451 2.372,-0.787 4.395,-1.076 0.113,0 0.226,-0.022 0.348,-0.022 0.11,0 0.223,0.022 0.336,0.022 2.02,0.289 3.495,0.625 4.392,1.076 0.955,0.42 1.787,0.943 2.552,1.511 1.188,1.007 2.249,2.31 3.156,3.91 1.01,2.092 1.539,4.628 1.539,7.681 l 0,76.212 0,0.426 c 0,3.253 1.865,7.745 5.572,13.507 4.537,5.563 9.748,9.287 15.617,11.222 0.075,0.032 0.155,0.052 0.223,0.071 0.929,0.304 1.875,0.574 2.842,0.795 0.762,0.168 1.549,0.271 2.324,0.386 0.326,0.053 0.642,0.129 0.978,0.155 1.145,0.123 2.322,0.194 3.517,0.194 l 0.077,0 0.058,0 c 0.468,0 0.919,-0.065 1.381,-0.078 0.762,-0.039 1.539,-0.039 2.278,-0.116 0.584,-0.077 1.149,-0.187 1.719,-0.284 0.662,-0.103 1.327,-0.207 1.966,-0.349 0.403,-0.09 0.797,-0.231 1.19,-0.342 0.833,-0.219 1.652,-0.457 2.45,-0.748 0.193,-0.084 0.384,-0.161 0.564,-0.239 5.033,-1.961 9.503,-5.253 13.401,-9.964 0.484,-0.651 0.941,-1.302 1.383,-1.935 0.007,-0.039 0.02,-0.039 0.02,-0.046 3.011,-4.473 4.675,-8.687 4.998,-12.655 l 0,-76.212 c 0,-2.879 0.375,-5.202 1.117,-6.958 1.332,-2.556 2.985,-4.414 4.939,-5.626 0.339,-0.175 0.674,-0.363 1.059,-0.518 1.445,-0.631 2.988,-0.986 4.614,-1.084 0.068,0 0.126,-0.014 0.191,-0.014 0.081,0 0.157,0.014 0.235,0.014 1.946,0.188 3.339,0.504 4.146,0.955 1.123,0.549 2.101,1.168 2.966,1.826 1.09,0.943 2.1,2.079 3.019,3.48 0.936,1.851 1.408,4.491 1.408,7.925 l 0,76.076 c 0,5.674 -2.046,12.682 -6.134,21.051 C 9.75,-11.204 6.03,-6.338 0,0"
           style="fill:#414142;fill-opacity:1;fill-rule:nonzero;stroke:none"
           id="path4007" />
      </g>
    </g>
  </g>
</svg>
