<svg viewBox="0 0 38 24" xmlns="http://www.w3.org/2000/svg" width="38" height="24" role="img" aria-labelledby="pi-mobilepay"><title id="pi-mobilepay">MobilePay</title>
<path d="M0 12V0H38V24H0V12Z" fill="white"/>
<path fill-rule="evenodd" clip-rule="evenodd" d="M18.6003 15.8021C18.6003 15.8021 21.5329 14.9084 23.5624 14.9034C26.9176 14.8951 29.1886 16.2354 29.1886 16.2354V9.7373C29.1886 9.7373 26.9061 8.55541 24.0307 8.4755C21.1553 8.39559 18.6003 9.64669 18.6003 9.64669L18.6003 15.8021Z" fill="#5A78FF"/>
<path fill-rule="evenodd" clip-rule="evenodd" d="M15.4239 8.7272L17.8368 14.4707V8.96631C17.8368 8.96631 19.7437 7.94515 21.8744 7.65746C24.005 7.36978 26.718 7.75023 26.718 7.75023L25.4057 4.61473C25.4057 4.61473 22.5539 4.43056 19.9723 5.53361C17.3907 6.63666 15.4239 8.7272 15.4239 8.7272Z" fill="#5A78FF"/>
<path d="M20.1972 4.65678C19.8804 3.88821 19.2468 2.35105 19.2468 2.35105C18.8023 1.27257 17.573 0.756454 16.5011 1.19827L9.94087 3.90218C8.86896 4.34399 8.36035 5.57643 8.80487 6.6549L15.1304 22.0017C15.5749 23.0802 16.8042 23.5963 17.8761 23.1545L24.4363 20.4506C25.5082 20.0088 26.0168 18.7763 25.5723 17.6979C25.5723 17.6979 24.9714 16.24 24.7881 15.7952C24.7881 15.7952 24.2527 15.7636 24.0046 15.7572C23.7426 15.7504 23.258 15.7556 23.258 15.7556C23.4942 16.3287 24.2784 18.2312 24.2784 18.2312C24.4266 18.5907 24.257 19.0015 23.8997 19.1487L17.3395 21.8527C16.9822 21.9999 16.5725 21.8279 16.4243 21.4684L10.0988 6.12159C9.95061 5.7621 10.1201 5.35129 10.4775 5.20401L17.0376 2.5001C17.3949 2.35283 17.8047 2.52487 17.9529 2.88436L18.9135 5.21493C18.9135 5.21493 19.358 4.99801 19.5969 4.90227C19.8359 4.80653 20.1972 4.65678 20.1972 4.65678Z" fill="#5A78FF"/>
</svg>
