<svg id="Layer_1" data-name="Layer 1" xmlns="http://www.w3.org/2000/svg" viewBox="0 0 38 24"><title>mobikwik</title><rect x="0.5" y="0.5" width="37" height="23" rx="3" ry="3" style="fill:#fff;stroke:#000;stroke-opacity:0.07000000029802322"/><path d="M31.15,8.52a3.33,3.33,0,0,0-1,.1c-0.25.05-.49,0.17-0.75,0.23a5.29,5.29,0,0,1-.65.07c0.07-1,.12-2,0.2-3v0a1,1,0,0,0-.87-1.15,7.37,7.37,0,0,0-1.07,0V4.36a0.75,0.75,0,0,0-.94-0.82l-0.7.11-7,1.17V11.9a3.94,3.94,0,0,1-.2.91c-0.08.31-.17,0.63-0.26,1a0.16,0.16,0,0,0,0,.14l3.75-7.33A1.07,1.07,0,0,1,22.91,6a1.06,1.06,0,0,1,.84,1.07v9.7a1.09,1.09,0,0,1-2.17,0h0v-5H21.5l-2.92,5.6q-0.17.33-.36,0.63a1.09,1.09,0,0,1-1.21.45,1,1,0,0,1-.75-1V8.84H16.13L10.71,19.13a1.12,1.12,0,1,1-2-1C9.33,17,9.92,15.89,10.5,14.79l4.92-9.47-6.32,1A1.42,1.42,0,0,0,8,7.26V20.34A1,1,0,0,0,9,21H24.29a1.12,1.12,0,0,0,1.2-.92l0.06-.23h1.1a0.81,0.81,0,0,0,.75-0.39,2.05,2.05,0,0,0,.27-0.67c0.08-.44.11-0.9,0.16-1.35q0.26-2.42.51-4.85h0a0.19,0.19,0,0,1,.19-0.2c0.26,0,.5-0.09.75-0.14a4.5,4.5,0,0,0,1.86-.75A2,2,0,0,0,32,9.7,1.08,1.08,0,0,0,31.15,8.52Zm-3.37-2.6c-0.1.67-.14,1.36-0.21,2-0.12,1.18-.23,2.36-0.35,3.55L26.86,15q-0.16,1.5-.33,3a0.63,0.63,0,0,1-.87.53L27,4.78v0a6,6,0,0,1,.55.45A0.75,0.75,0,0,1,27.78,5.91Zm2.47,5A0.86,0.86,0,0,1,29.41,10a0.85,0.85,0,0,1,.85-0.85h0A0.86,0.86,0,0,1,30.25,10.88ZM30.81,10a0.55,0.55,0,0,1-.54.54A0.54,0.54,0,1,1,30.81,10Z" style="fill:#26bcbc"/><path d="M18,13.89h0Zm-8.64,6a1.12,1.12,0,0,1-.57-1.74C9.33,17,9.92,15.89,10.5,14.79L16.25,3.74a1.12,1.12,0,0,1,1.44-.61l0,0a1.13,1.13,0,0,0-1.49.57L10.29,14.86C9.69,16,9.09,17.12,8.51,18.25a1.13,1.13,0,0,0,1.43,1.63A1.11,1.11,0,0,1,9.32,19.88ZM21.71,6.57A1.06,1.06,0,0,1,22.79,6a1.07,1.07,0,0,0-1.15.55c-0.81,1.57-2.11,4.22-2.92,5.88Zm1,11.28a1.09,1.09,0,0,1-1.09-1.09h0v-5H21.5v0h0.06v5.07a1.1,1.1,0,0,0,2.2,0v-0.1A1.09,1.09,0,0,1,22.66,17.85ZM23.73,7a1,1,0,0,1,0,.11V7S23.73,7,23.73,7ZM17,18.44a1,1,0,0,1-.75-1V8.84H16.13l0,0.06v8.64a1.06,1.06,0,0,0,.79,1,1.1,1.1,0,0,0,1.08-.3A1.09,1.09,0,0,1,17,18.44Z" style="fill:#00aaa8"/></svg>