<?xml version="1.0" encoding="utf-8"?>
<!-- Generator: Adobe Illustrator 16.0.0, SVG Export Plug-In . SVG Version: 6.00 Build 0)  -->
<!DOCTYPE svg PUBLIC "-//W3C//DTD SVG 1.1//EN" "http://www.w3.org/Graphics/SVG/1.1/DTD/svg11.dtd">
<svg version="1.1" xmlns="http://www.w3.org/2000/svg" xmlns:xlink="http://www.w3.org/1999/xlink" x="0px" y="0px" width="40px"
	 height="20px" viewBox="0 0 40 20" enable-background="new 0 0 40 20" xml:space="preserve">
<g id="Layer_3">
	<g>
		<g>
			<path fill-rule="evenodd" clip-rule="evenodd" fill="#FFFFFF" d="M0.25,16.094V3.175c0-0.05,0-0.099,0-0.146
				c0-1.852,0.955-2.779,2.864-2.779h32.859c1.86,0.036,2.79,0.962,2.79,2.779v12.967c0,1.853-0.971,2.778-2.914,2.778H3.114
				C1.241,18.774,0.286,17.881,0.25,16.094z"/>
			
				<path fill-rule="evenodd" clip-rule="evenodd" fill="none" stroke="#CECECE" stroke-linecap="round" stroke-linejoin="round" stroke-miterlimit="3" d="
				M35.973,0.25H3.114c-1.909,0-2.864,0.927-2.864,2.779c0,0.048,0,0.097,0,0.146v12.918v0.731c0,1.949,0.971,2.925,2.914,2.925
				h33.575c2.008,0,3.012-0.976,3.012-2.925V3.175c0-1.95-1.004-2.925-3.012-2.925H35.973z"/>
		</g>
	</g>
</g>
<g id="Layer_1">
	<g>
		<path fill-rule="evenodd" clip-rule="evenodd" fill="#5A78FF" d="M18.622,3.231l-4.572,1.89c-0.14,0.05-0.245,0.155-0.315,0.315
			c-0.06,0.16-0.06,0.31,0,0.45l4.377,10.56c0.05,0.159,0.155,0.27,0.315,0.33c0.15,0.06,0.294,0.055,0.435-0.016l4.587-1.89
			c0.149-0.061,0.255-0.165,0.314-0.315c0.061-0.149,0.061-0.3,0-0.45l-1.019-2.475c-1.26,0.06-2.318,0.335-3.178,0.825
			l-1.859-4.455c0.04-0.05,0.08-0.095,0.12-0.135c0.03-0.03,0.06-0.06,0.09-0.09c0.02-0.02,0.035-0.035,0.045-0.045
			c0.02-0.02,0.03-0.035,0.03-0.045c0.04-0.04,0.08-0.08,0.12-0.12c0.66-0.67,1.424-1.195,2.293-1.575l-1.019-2.445
			c-0.041-0.11-0.11-0.2-0.21-0.27c-0.1-0.06-0.205-0.09-0.315-0.09C18.812,3.186,18.731,3.201,18.622,3.231z M18.367,2.601
			c0.33-0.13,0.649-0.13,0.959,0c0.34,0.13,0.569,0.36,0.689,0.69l1.02,2.445c1.339-0.53,2.522-0.725,3.552-0.585l0.915,2.22
			c0.569,0.13,1.069,0.325,1.498,0.585v4.5c-1.099-0.561-2.272-0.835-3.522-0.825l0.915,2.22c0.13,0.32,0.13,0.646,0,0.976
			c-0.14,0.319-0.37,0.545-0.689,0.675l-4.572,1.89c-0.16,0.07-0.319,0.105-0.479,0.105c-0.26,0-0.495-0.07-0.704-0.21
			c-0.22-0.141-0.375-0.33-0.465-0.57L13.105,6.141c-0.14-0.31-0.14-0.63,0-0.96c0.13-0.32,0.36-0.55,0.689-0.69L18.367,2.601z"/>
	</g>
</g>
</svg>
