<svg xmlns="http://www.w3.org/2000/svg" width="38" height="24" viewBox="0 0 38 24"><path d="M0 10.686v-19h38v38H0v-19z" fill="#fbfbfb"/><path d="M3.135 27.8c-.276-.136-.693-.512-.928-.836l-.426-.588v-6.188c0-6.909.131-11.608.32-11.491.07.042.126.741.126 1.553v1.475h4.23c2.327 0 4.231-.05 4.232-.111.002-.113-.36-1.126-1.85-5.166-.455-1.234-.823-2.483-.823-2.79 0-.656.33-1.36.74-1.58.587-.314 8.552-3.298 9-3.372.554-.09 1.436.291 1.729.749.112.177.562 1.245 1 2.374.91 2.354.646 2.221 2.711 1.364 2.054-.853 2.013-.874 3.559 1.778.724 1.244 1.298 2.398 1.298 2.614.002.362.058.394.842.475.462.047.936.183 1.054.3.148.148.24.704.294 1.79l.08 1.575h5.45V10.25c0-.812.057-1.51.126-1.553.189-.117.32 4.582.32 11.49v6.19l-.428.59c-.845 1.165.375 1.087-16.813 1.083-14.008-.003-15.385-.025-15.843-.25zm12.154-16.136c0-.033-.267-.524-.594-1.09-.326-.567-.593-1.186-.593-1.377 0-.483 1.05-1.42 3.191-2.849.98-.653 1.805-1.21 1.835-1.237.063-.058-.717-2.168-.863-2.332-.082-.091-2.173.666-7.015 2.542-.227.088-.193.251.335 1.581.324.816.714 1.75.866 2.077.153.327.464 1.078.69 1.67l.414 1.076h.867c.477 0 .867-.027.867-.06z" fill="#f3f3f3"/><path d="M16.228 23.68c-.26-.112-.572-.36-.694-.55-.382-.593-7.37-19.041-7.37-19.458 0-.552.28-1.105.7-1.38.331-.217 4.355-1.796 7.574-2.973 2.303-.842 2.679-.585 3.897 2.662.474 1.265.895 2.174 1.008 2.174.106 0 .469-.141.807-.314 1.107-.564 2.54-1.042 2.874-.958.234.059.699.724 1.615 2.31.707 1.224 1.244 2.293 1.194 2.375-.056.09-.982.15-2.303.15h-2.21l-.386-.507c-.431-.565-1.18-.978-1.773-.978-.215 0-.664.14-.997.31-.47.239-.675.472-.914 1.036-.283.671-.366.745-1.069.95-1.228.356-1.276.464-1.227 2.754.029 1.341-.01 1.99-.122 2.029-.09.03-.682-.848-1.315-1.953-.86-1.501-1.127-2.094-1.056-2.343.122-.429 1.22-1.336 3.304-2.73l1.66-1.111-.348-.918-.506-1.327c-.086-.224-.243-.41-.347-.41-.334-.006-7.388 2.722-7.388 2.857 0 .093 4.794 12.617 5.598 14.624.04.102.15.185.244.186.156 0 7.224-2.655 7.35-2.762.032-.026-.112-.501-.319-1.055l-.376-1.008-.965.032c-.83.027-3.547.493-4.137.71-.546.2-.626-.131-.805-3.368-.107-1.917-.123-3.263-.042-3.416.598-1.125 11.312-1.78 12.324-.753.22.222.29.767.439 3.426.123 2.191.13 3.21.024 3.317-.108.107-.476.104-1.201-.008-1.099-.17-3.33-.222-3.472-.08-.046.046.21.814.569 1.706.358.892.652 1.827.652 2.076 0 .623-.369 1.284-.857 1.536-.746.386-8.64 3.357-8.904 3.351-.142-.003-.47-.098-.73-.21zm5.223-3.142c.775-.297 1.408-.604 1.408-.684 0-.08-.117-.098-.26-.041-.142.057-.794.302-1.447.544-1.147.426-1.673.72-1.29.72.1 0 .814-.243 1.589-.54zm3.352-7.113c1.306-.675 1.348-2.725.073-3.56-.492-.323-1.524-.326-2.141-.008-.62.32-1.137 1.387-1.002 2.064.279 1.392 1.824 2.149 3.07 1.504zm-1.755-.133c-1.144-.51-1.418-2.113-.501-2.932.589-.526 1.088-.646 1.803-.432.71.213 1.215.883 1.235 1.636.033 1.294-1.37 2.25-2.537 1.728zM19.495 7.93c-.109-.283.363-.955.855-1.22.518-.278 1.564-.134 2 .275.295.278.484.71.324.74-.36.071-2.761.43-2.9.434-.104.002-.23-.1-.28-.23z" fill="#aab8c5"/><path d="M16.084 23.463c-.536-.327-.184.52-4.718-11.337-1.68-4.393-3.053-8.187-3.053-8.432 0-.741.367-1.25 1.143-1.582.391-.167 2.412-.95 4.49-1.739 5.072-1.926 4.885-1.972 6.242 1.54.485 1.256.916 2.317.956 2.357.04.04.706-.199 1.48-.532 1.497-.645 2.282-.848 2.559-.662.264.177 2.57 4.233 2.484 4.37-.041.068-1.032.123-2.201.123H23.34l-.386-.506c-.532-.698-1.489-1.054-2.266-.845-.805.217-1.094.46-1.532 1.29-.325.614-.474.743-1.047.906-.367.105-.816.36-.998.568-.317.361-.327.456-.236 2.249.077 1.519.058 1.859-.102 1.805-.243-.08-2.225-3.517-2.226-3.86 0-.359 1.467-1.617 3.303-2.83.877-.58 1.595-1.141 1.595-1.248 0-.47-.97-2.724-1.172-2.724-.255 0-7.302 2.666-7.496 2.836-.162.143 5.531 14.978 5.785 15.075.161.062 6.994-2.467 7.484-2.77.168-.104.13-.316-.212-1.188-.229-.584-.51-1.098-.623-1.142-.27-.103-2.32.19-3.905.56-1.013.237-1.287.257-1.43.103-.192-.204-.567-6.026-.414-6.425.105-.272 1.136-.578 3.097-.916 2.034-.352 8.088-.383 8.757-.045.547.275.59.516.745 4.213l.112 2.657-.651-.1c-1.18-.18-4.094-.286-4.175-.15-.043.072.213.866.568 1.764 1.022 2.583.888 3.18-.877 3.912-2.408 1-7.835 2.99-8.15 2.99-.185 0-.547-.128-.804-.285zm5.313-2.77c1.507-.579 1.75-.727 1.53-.94-.199-.19-3.333 1.002-3.333 1.267 0 .308.282.257 1.803-.327zm3.3-7.095c1.048-.438 1.559-1.885 1.028-2.909-.584-1.126-2.044-1.539-3.111-.879-.653.404-.942.982-.942 1.888 0 1.544 1.55 2.516 3.026 1.9zm-1.724-.464c-.515-.29-.856-.942-.856-1.639 0-.418.115-.657.505-1.046.569-.569 1.27-.67 2.006-.289.549.284.959 1.15.841 1.776-.198 1.054-1.576 1.715-2.496 1.198zm-3.38-5.354c0-.128.196-.429.435-.668.58-.58 1.57-.612 2.192-.073.55.476.386.604-1.037.809-1.495.215-1.59.211-1.59-.068z" fill="#90a3b4"/><path d="M16.376 23.529c-.259-.111-.572-.357-.697-.548-.315-.482-7.366-18.928-7.366-19.27 0-.49.272-1.018.653-1.267.748-.49 8.429-3.336 9.004-3.336.924 0 1.238.409 2.164 2.82.454 1.184.89 2.23.968 2.326.104.129.418.048 1.209-.311 1.675-.76 2.601-1.033 2.84-.835.256.213 2.458 4.05 2.458 4.285 0 .128-.58.176-2.1.176h-2.102l-.505-.59c-.892-1.043-2.235-1.158-3.237-.278-.284.25-.57.663-.636.92-.103.403-.233.504-.928.726-1.301.417-1.383.596-1.27 2.76.076 1.426.056 1.819-.087 1.771-.231-.077-2.177-3.367-2.189-3.7-.01-.326 1.487-1.572 3.332-2.77.816-.53 1.543-1.016 1.615-1.079.133-.116-.866-2.888-1.092-3.027-.108-.067-6.784 2.407-7.463 2.765-.143.076-.26.229-.26.34 0 .254 5.608 14.805 5.767 14.964.158.159 7.603-2.71 7.702-2.967.043-.113-.107-.678-.333-1.255l-.412-1.05-1.08.083c-.596.044-1.82.233-2.722.42-.902.185-1.681.296-1.733.245-.112-.113-.345-3.574-.354-5.267-.008-1.451-.081-1.385 2.01-1.81 2.046-.416 5.302-.655 7.335-.539 2.158.124 2.794.281 2.89.716.162.738.392 6.087.268 6.212-.078.077-.46.07-.923-.018-.987-.187-3.868-.198-3.868-.014 0 .074.301.904.668 1.844 1.19 3.042 1.253 2.966-4.23 5.04-2.245.848-4.25 1.583-4.453 1.631-.204.048-.583-.003-.843-.113zm6.224-3.224c.408-.148.59-.712.23-.712-.24 0-2.965 1.047-3.201 1.23-.137.106-.144.197-.026.34.132.158.39.11 1.375-.258.668-.249 1.397-.519 1.622-.6zm2.74-7.132c.457-.456.546-.657.604-1.354.055-.669.006-.918-.27-1.365-.693-1.12-2.284-1.382-3.285-.54-1.191 1.002-1.102 2.68.189 3.569.422.29.645.337 1.365.286.752-.052.929-.127 1.397-.596zm-2.613-.343c-.896-.755-.707-2.15.36-2.655.605-.288.861-.29 1.404-.01.617.32.892.792.892 1.53 0 .517-.087.734-.434 1.08-.588.589-1.559.612-2.222.055zm-3.052-4.953c-.237-.384.763-1.199 1.47-1.199.578 0 1.297.414 1.24.714-.036.182-.263.278-.831.347a25.69 25.69 0 0 0-1.285.19c-.281.053-.544.03-.594-.052z" fill="#718a9f"/><path d="M16.164 23.378c-.482-.262-.296.185-4.375-10.465C9.621 7.253 8.411 3.9 8.42 3.578c.024-.904.503-1.18 5.015-2.892 2.286-.868 4.31-1.578 4.497-1.578.53 0 1.14.38 1.35.84.104.23.522 1.287.928 2.35.406 1.062.797 1.99.868 2.063.076.076.735-.133 1.569-.5.79-.346 1.68-.662 1.976-.701l.538-.072 1.226 2.115c.675 1.163 1.208 2.134 1.185 2.157-.023.023-.967.056-2.098.073l-2.057.032-.464-.529c-.602-.687-.955-.851-1.83-.851-.931 0-1.675.493-2.097 1.39-.282.6-.39.687-1.13.902-1.105.32-1.184.506-1.139 2.658.024 1.135-.015 1.727-.11 1.668-.246-.152-1.95-3.214-1.95-3.504 0-.372 1.236-1.43 3.228-2.76.918-.615 1.67-1.196 1.67-1.292.001-.43-1.08-2.922-1.267-2.922-.276 0-7.5 2.77-7.672 2.942-.106.107 2.482 7.061 5.632 15.13a.31.31 0 0 0 .267.186c.27 0 7.518-2.786 7.687-2.955.157-.157-.572-2.148-.88-2.404-.216-.179-2.653.13-4.32.549-.531.133-1.015.184-1.084.113-.07-.07-.206-1.52-.304-3.223-.196-3.42-.237-3.232.753-3.504 2.083-.572 7.42-.942 9.842-.682 1.544.165 1.482.035 1.67 3.52.089 1.66.117 3.073.062 3.139-.055.065-.785.049-1.622-.037-2.189-.225-2.966-.206-3.073.075-.05.127.18.946.51 1.818.33.873.643 1.736.696 1.917.143.487-.31 1.318-.86 1.576-1.292.607-8.354 3.215-8.692 3.21a2.01 2.01 0 0 1-.775-.217zm5.211-2.542c1.489-.568 1.88-.815 1.716-1.08-.16-.26-.511-.196-2.013.368-1.567.59-1.712.682-1.583 1.017.126.328.293.301 1.88-.305zm3.796-7.401c.612-.468 1.026-1.502.89-2.226-.119-.633-.801-1.454-1.422-1.71-.595-.247-1.646-.116-2.193.274-1.028.732-1.225 2.422-.387 3.313.236.251.63.55.875.664.613.284 1.64.14 2.237-.315zm-2.197-.457c-.526-.285-.708-.647-.708-1.403 0-1.579 2.145-2.076 2.901-.672.744 1.38-.793 2.835-2.193 2.075zm-3.232-5.295c0-.292.438-.669 1.009-.868.386-.134.568-.115 1.021.11 1.023.507.842.641-1.176.876-.695.08-.854.059-.854-.118z" fill="#52708a"/><path d="M16.377 23.38c-.259-.11-.545-.34-.636-.509-.353-.66-7.28-18.889-7.28-19.158 0-.494.339-1.056.77-1.28.612-.316 8.092-3.153 8.396-3.184 1.155-.118 1.383.149 2.415 2.818.487 1.26.961 2.339 1.054 2.396.092.057.644-.112 1.225-.377 1.34-.607 2.57-1.016 2.743-.91.14.087 2.397 3.999 2.397 4.155 0 .05-.92.09-2.046.09h-2.046l-.256-.433c-.287-.487-1.329-1.052-1.938-1.052-.901 0-1.787.637-2.297 1.65-.193.383-.4.537-.917.682-.368.103-.828.37-1.023.593-.343.393-.351.46-.258 2.09.059 1.031.042 1.65-.043 1.598-.197-.122-1.942-3.19-1.942-3.415 0-.251 1.821-1.695 3.6-2.854.796-.519 1.447-.992 1.448-1.052 0-.27-1.074-2.846-1.248-2.99-.298-.248-7.865 2.673-7.925 3.058-.05.326 5.522 14.866 5.806 15.15.157.157.896-.078 4.043-1.285l3.85-1.478-.017-.492c-.01-.271-.194-.887-.41-1.368l-.391-.875-1.075.084c-.592.046-1.797.23-2.679.41-.882.178-1.649.28-1.705.223-.104-.104-.44-5.908-.355-6.158.131-.394 3.613-.991 6.558-1.126 2.352-.108 4.984.095 5.28.406.17.178.62 6.144.473 6.29-.03.03-.453-.009-.938-.088-1.343-.22-3.768-.19-3.86.048-.04.107.229.979.599 1.937.886 2.291.873 2.8-.084 3.294-.556.288-7.933 3.106-8.446 3.226-.204.048-.583-.003-.842-.114zm6.224-2.947c.58-.242.772-.767.341-.932-.283-.109-3.458 1.113-3.556 1.368-.042.11.023.299.145.42.196.197.352.174 1.368-.2a57.62 57.62 0 0 0 1.702-.656zm2.28-6.722c.747-.354 1.145-1.003 1.213-1.976.073-1.047-.33-1.712-1.338-2.213-.927-.46-1.706-.343-2.5.374-.674.61-.943 1.318-.807 2.125.26 1.535 1.976 2.38 3.432 1.69zm-2.097-.984c-.256-.22-.416-.538-.469-.935-.156-1.163 1.103-2.032 2.155-1.488.572.296.764.645.764 1.391 0 .832-.555 1.366-1.422 1.366-.449 0-.755-.1-1.028-.334zM19.891 7.67c0-.351.728-.843 1.248-.843.458 0 1.127.345 1.127.582 0 .065-.434.164-.963.218-.53.054-1.064.137-1.188.185-.14.053-.224 0-.224-.142z" fill="#294f70"/><path d="M16.312 23.236c-.48-.269-.29.187-4.346-10.407C10.12 8.006 8.61 3.855 8.61 3.605c0-.251.117-.595.26-.765.224-.267 7.627-3.21 8.836-3.514.55-.138 1.202.266 1.488.922.136.312.57 1.402.963 2.423.696 1.807.726 1.855 1.152 1.838.241-.009.977-.258 1.635-.554 2.117-.952 1.914-1.032 3.231 1.263l1.137 1.98-1.868.042-1.867.041-.573-.59c-1.297-1.336-3.245-1.06-4.074.575-.31.612-.447.73-1.038.896-.422.118-.826.364-1.064.646-.375.445-.382.493-.281 1.91.056.799.068 1.453.025 1.453-.124 0-1.727-2.785-1.727-3.002 0-.254 1.609-1.535 3.448-2.746.794-.522 1.481-1.01 1.527-1.085.12-.193-1.089-3.219-1.32-3.308-.167-.064-7.421 2.608-7.924 2.919a.455.455 0 0 0-.184.351c0 .13 1.21 3.383 2.688 7.228 3.345 8.696 3.09 8.067 3.31 8.152.164.063 7.426-2.616 7.918-2.92.274-.17.229-.532-.198-1.593-.576-1.432-.545-1.415-2.254-1.202-.8.1-1.975.305-2.611.457-.82.195-1.173.227-1.21.108-.112-.365-.342-5.963-.248-6.055.191-.187 2.927-.697 4.697-.876 1.948-.197 5.996-.117 6.628.131.442.173.484.443.668 4.243l.1 2.064-.356-.103c-.195-.057-1.272-.144-2.392-.193-1.793-.08-2.049-.062-2.13.15-.05.132.215 1.029.59 1.993.739 1.899.825 2.506.423 2.986-.25.299-8.008 3.357-8.912 3.512-.221.039-.577-.027-.79-.146zm5.211-2.247c.776-.293 1.494-.601 1.596-.686.253-.208.234-.634-.038-.86-.183-.152-.537-.067-1.965.47-1.74.653-1.975.84-1.762 1.395.127.332.64.257 2.17-.32zm3.691-7.32c1.929-1.373.992-4.467-1.352-4.467-1.314 0-2.223.692-2.5 1.904-.239 1.05.415 2.34 1.416 2.794.65.295 1.859.18 2.436-.23zm-2.091-.833c-.838-.467-.966-1.47-.275-2.161.725-.725 1.913-.455 2.23.507.39 1.183-.877 2.255-1.955 1.654zm-3.084-5.248c0-.507 1.324-.797 1.856-.408.254.186.205.214-.528.308-.445.056-.925.136-1.068.176-.143.04-.26.006-.26-.076z" fill="#012e56"/></svg>