<?xml version="1.0" encoding="UTF-8" standalone="no"?>
<!-- Created with Inkscape (http://www.inkscape.org/) -->

<svg
   xmlns:dc="http://purl.org/dc/elements/1.1/"
   xmlns:cc="http://creativecommons.org/ns#"
   xmlns:rdf="http://www.w3.org/1999/02/22-rdf-syntax-ns#"
   xmlns:svg="http://www.w3.org/2000/svg"
   xmlns="http://www.w3.org/2000/svg"
   xmlns:sodipodi="http://sodipodi.sourceforge.net/DTD/sodipodi-0.dtd"
   xmlns:inkscape="http://www.inkscape.org/namespaces/inkscape"
   id="svg3619"
   version="1.1"
   inkscape:version="0.91 r13725"
   width="38"
   height="24"
   viewBox="0 0 38 24"
   sodipodi:docname="mobilepay.svg">
  <metadata
     id="metadata3625">
    <rdf:RDF>
      <cc:Work
         rdf:about="">
        <dc:format>image/svg+xml</dc:format>
        <dc:type
           rdf:resource="http://purl.org/dc/dcmitype/StillImage" />
        <dc:title></dc:title>
      </cc:Work>
    </rdf:RDF>
  </metadata>
  <defs
     id="defs3623" />
  <sodipodi:namedview
     pagecolor="#ffffff"
     bordercolor="#666666"
     borderopacity="1"
     objecttolerance="10"
     gridtolerance="10"
     guidetolerance="10"
     inkscape:pageopacity="0"
     inkscape:pageshadow="2"
     inkscape:window-width="1294"
     inkscape:window-height="1024"
     id="namedview3621"
     showgrid="false"
     inkscape:zoom="1.4142136"
     inkscape:cx="224.4705"
     inkscape:cy="50.89147"
     inkscape:window-x="4086"
     inkscape:window-y="137"
     inkscape:window-maximized="0"
     inkscape:current-layer="svg3619" />
  <g
     id="g4251"
     transform="matrix(0.1484375,0,0,0.1484375,-11.584398,6.7039494)">
    <path
       style="fill:#fbfbfb"
       d="m 83.424927,26.82843 0,-128 128.000003,0 128,0 0,128 0,128 -128,0 -128.000003,0 0,-128 z"
       id="path4267"
       inkscape:connector-curvature="0" />
    <path
       style="fill:#f3f3f3"
       d="m 104.54521,142.11793 c -1.85884,-0.91572 -4.671343,-3.44799 -6.249999,-5.62726 l -2.870284,-3.96232 0,-41.68965 c 0,-46.54072 0.88194,-78.20127 2.156443,-77.41358 0.463956,0.28674 0.843557,4.99479 0.843557,10.46233 l 0,9.94098 28.500003,0 c 15.675,0 28.50509,-0.3375 28.51131,-0.75 0.0114,-0.75947 -2.43218,-7.58288 -12.46377,-34.802818 -3.06468,-8.315773 -5.54754,-16.729756 -5.54754,-18.79966 0,-4.412958 2.22415,-9.161936 4.98226,-10.638028 3.95922,-2.118914 57.61638,-22.220985 60.63595,-22.7166 3.73516,-0.613068 9.67794,1.960398 11.64615,5.043259 0.75981,1.190116 3.79115,8.388516 6.73631,15.996445 6.13893,15.858095 4.35552,14.961451 18.26779,9.184479 13.83907,-5.746576 13.55951,-5.886316 23.97269,11.982923 4.88258,8.378622 8.74505,16.15216 8.75,17.6101 0.008,2.43573 0.38686,2.64911 5.66723,3.19409 3.11211,0.3212 6.308,1.23362 7.10199,2.02761 0.99531,0.99531 1.61181,4.73918 1.98523,12.0559 l 0.54163,10.6123 18.35638,0 18.35639,0 0,-9.94098 c 0,-5.46754 0.3796,-10.17559 0.84356,-10.46233 1.2745,-0.78769 2.15644,30.87286 2.15644,77.41358 l 0,41.68965 -2.88378,3.98095 c -5.68718,7.85093 2.52575,7.32187 -113.26735,7.29636 -94.368,-0.0208 -103.64257,-0.16745 -106.72859,-1.68773 z M 186.42493,33.41627 c 0,-0.22668 -1.8,-3.53421 -4,-7.35006 -2.2,-3.81585 -4,-7.98643 -4,-9.26796 0,-3.25692 7.07429,-9.5727 21.5,-19.194752 6.6,-4.402247 12.1617,-8.151757 12.35933,-8.332244 0.42881,-0.391604 -4.82918,-14.606578 -5.81096,-15.709927 -0.54967,-0.617744 -14.64084,4.486793 -47.25759,17.119101 -1.53231,0.59346 -1.29873,1.696185 2.25698,10.654982 2.18141,5.49616 4.80761,11.79302 5.83602,13.99302 1.0284,2.2 3.12136,7.2625 4.65101,11.25 l 2.78118,7.25 5.84201,0 c 3.21311,0 5.84202,-0.18547 5.84202,-0.41216 z"
       id="path4265"
       inkscape:connector-curvature="0" />
    <path
       style="fill:#aab8c5"
       d="m 192.75041,114.3693 c -1.74599,-0.75947 -3.8503,-2.42935 -4.67625,-3.71086 -2.57502,-3.9953 -49.64923,-128.277793 -49.64923,-131.080907 0,-3.724527 1.88743,-7.445326 4.71734,-9.299552 2.22906,-1.460537 29.33427,-12.100623 51.02013,-20.02783 15.51476,-5.671378 18.05039,-3.939174 26.25413,17.935396 3.19447,8.517784 6.03465,14.642883 6.78984,14.642883 0.71403,0 3.1627,-0.951177 5.44148,-2.113727 7.4573,-3.804428 17.10538,-7.020691 19.36173,-6.454383 1.57509,0.395322 4.70542,4.872872 10.87573,15.556416 4.76524,8.250728 8.38451,15.453654 8.04282,16.006504 -0.37129,0.60077 -6.61208,1.00519 -15.51133,1.00519 l -14.89009,0 -2.6007,-3.40969 c -2.90297,-3.806 -7.94832,-6.59031 -11.94205,-6.59031 -1.45129,0 -4.47505,0.936835 -6.71948,2.08186 -3.16398,1.61414 -4.54615,3.18337 -6.15224,6.98488 -1.91114,4.52352 -2.46869,5.0185 -7.20338,6.39491 -8.27574,2.40582 -8.59801,3.12906 -8.26806,18.55538 0.19331,9.03795 -0.0692,13.40705 -0.82129,13.66869 -0.60798,0.21151 -4.59396,-5.70748 -8.85773,-13.15329 -5.79271,-10.11581 -7.59124,-14.10592 -7.11512,-15.78514 0.81881,-2.88788 8.21268,-8.99884 22.25895,-18.396815 l 11.18068,-7.480685 -2.34416,-6.184895 c -1.28929,-3.401692 -2.82196,-7.422395 -3.40593,-8.934895 -0.58397,-1.5125 -1.63541,-2.758917 -2.33652,-2.769815 -2.25248,-0.03501 -49.77475,18.343555 -49.77475,19.249682 0,0.626002 32.29877,85.001483 37.71332,98.520133 0.27536,0.6875 1.01501,1.25137 1.64367,1.25305 1.05269,0.003 48.66654,-17.8879 49.52088,-18.60728 0.20782,-0.17499 -0.7613,-3.37313 -2.15362,-7.10697 l -2.53147,-6.7888 -6.504,0.21224 c -5.59665,0.18263 -23.89784,3.3229 -27.8696,4.78209 -3.68069,1.35227 -4.21478,-0.8805 -5.4261,-22.68406 -0.71754,-12.91552 -0.82655,-21.98241 -0.27673,-23.01652 4.02818,-7.57625 76.20689,-11.98629 83.02444,-5.07269 1.4748,1.49558 1.94538,5.17208 2.95431,23.08135 0.83166,14.76262 0.88046,21.62203 0.15895,22.34354 -0.7215,0.7215 -3.20485,0.70541 -8.08914,-0.0524 -7.39933,-1.14805 -22.43392,-1.4912 -23.39123,-0.53389 -0.3078,0.30781 1.4172,5.47768 3.83334,11.4886 2.41614,6.01092 4.39298,12.30643 4.39298,13.99001 0,4.19332 -2.484,8.64355 -5.77433,10.34504 -5.0235,2.59775 -58.20838,22.61731 -59.98058,22.57756 -0.9598,-0.0215 -3.17363,-0.66053 -4.91961,-1.41999 z m 35.18523,-21.173 c 5.21911,-1.99767 9.48929,-4.07082 9.48929,-4.60699 0,-0.53617 -0.7875,-0.66073 -1.75,-0.2768 -0.9625,0.38393 -5.35,2.03447 -9.75,3.66785 -7.72767,2.86869 -11.27535,4.84807 -8.68929,4.84807 0.66588,0 5.48088,-1.63446 10.7,-3.63213 z m 22.58317,-47.91642 c 8.79754,-4.54938 9.08102,-18.3594 0.49238,-23.98689 -3.31699,-2.17337 -10.26998,-2.19659 -14.42456,-0.0482 -4.17434,2.15863 -7.66024,9.34094 -6.7478,13.9031 1.87501,9.37508 12.28284,14.4743 20.67998,10.13197 z m -11.82419,-0.89505 c -7.7057,-3.44288 -9.55023,-14.23605 -3.37572,-19.75297 3.96864,-3.54598 7.33254,-4.35175 12.1464,-2.90948 4.78024,1.43219 8.18551,5.94345 8.31864,11.02042 0.2286,8.7184 -9.22246,15.1569 -17.08932,11.64203 z M 214.75659,8.25035 c -0.73056,-1.90381 2.4467,-6.43061 5.76474,-8.21332 3.48669,-1.873331 10.53307,-0.90532 13.46587,1.84989 1.99165,1.87107 3.26649,4.77913 2.18773,4.99049 -2.42312,0.47476 -18.6017,2.88982 -19.53138,2.91555 -0.70477,0.0195 -1.5539,-0.67467 -1.88696,-1.54261 z"
       id="path4263"
       inkscape:connector-curvature="0" />
    <path
       style="fill:#90a3b4"
       d="m 191.78196,112.90448 c -3.61023,-2.2014 -1.23952,3.49583 -31.78306,-76.37999 -11.31569,-29.59217 -20.57397,-55.152016 -20.57397,-56.799661 0,-4.997451 2.47805,-8.426877 7.70112,-10.657747 2.63938,-1.127326 16.25438,-6.399835 30.25555,-11.716687 34.16462,-12.97379 32.90233,-13.285114 42.04459,10.369666 3.27177,8.465396 6.171,15.613967 6.44275,15.885711 0.27174,0.271745 4.75634,-1.341595 9.96577,-3.5852 10.08972,-4.345452 15.37485,-5.713598 17.2418,-4.463335 1.78118,1.19282 17.31371,28.518333 16.73907,29.448113 -0.27977,0.4527 -6.95372,0.82308 -14.83098,0.82308 l -14.32229,0 -2.60149,-3.41072 c -3.58356,-4.698295 -10.02781,-7.09938 -15.26734,-5.688519 -5.42067,1.459635 -7.36363,3.095489 -10.32064,8.689349 -2.18628,4.13583 -3.18966,5.00465 -7.04853,6.10325 -2.47466,0.70452 -5.50184,2.42516 -6.72708,3.82363 -2.13353,2.4352 -2.20068,3.07559 -1.58873,15.14993 0.51864,10.23298 0.38941,12.52407 -0.68617,12.16555 -1.63785,-0.54595 -14.98863,-23.69921 -14.99372,-26.00248 -0.005,-2.42304 9.87908,-10.89484 22.24632,-19.067 5.9125,-3.906926 10.75,-7.69261 10.75,-8.412629 0,-3.168258 -6.53408,-18.350361 -7.89764,-18.350361 -1.7213,0 -49.19294,17.963794 -50.50137,19.110277 -1.09262,0.957389 37.26371,100.900573 38.97592,101.557613 1.08366,0.41583 47.11792,-16.62518 50.41418,-18.66238 1.13769,-0.70313 0.88473,-2.12739 -1.42216,-8.00725 -1.54329,-3.9336 -3.43449,-7.39317 -4.20265,-7.68795 -1.82178,-0.69908 -15.62075,1.28008 -26.30459,3.77282 -6.82422,1.59222 -8.66756,1.72474 -9.63677,0.69284 -1.29141,-1.37494 -3.81368,-40.59929 -2.78335,-43.28431 0.70464,-1.83625 7.65232,-3.89293 20.85843,-6.1746 13.7079,-2.36838 54.48963,-2.57869 59,-0.30427 3.67911,1.85525 3.96571,3.47779 5.0141,28.38682 l 0.75337,17.8996 -4.38374,-0.67234 c -7.94463,-1.21848 -27.5796,-1.92877 -28.12175,-1.01729 -0.29129,0.48973 1.42927,5.84042 3.82348,11.89042 6.88576,17.39985 5.985,21.41673 -5.90953,26.35318 -16.22202,6.73244 -52.78241,20.14656 -54.90027,20.14308 -1.25161,-0.002 -3.69,-0.86615 -5.41863,-1.92021 z m 35.79262,-18.66486 c 10.15183,-3.89643 11.78393,-4.89848 10.30035,-6.32403 -1.33304,-1.28089 -22.45,6.74414 -22.45,8.53162 0,2.07135 1.9013,1.72589 12.14965,-2.20759 z m 22.23381,-47.79805 c 7.05549,-2.94797 10.49835,-12.69449 6.92109,-19.59321 -3.93439,-7.58745 -13.77065,-10.36712 -20.96076,-5.92339 -4.3987,2.71855 -6.34379,6.61834 -6.34379,12.71894 0,10.39977 10.43793,16.95317 20.38346,12.79766 z M 238.1875,43.3172 c -3.467,-1.94977 -5.76257,-6.3473 -5.76257,-11.03911 0,-2.81726 0.77546,-4.42512 3.4,-7.04966 3.83162,-3.83162 8.55168,-4.51059 13.51481,-1.94405 3.699,1.91282 6.45846,7.7408 5.66579,11.96611 -1.3318,7.09911 -10.61826,11.55333 -16.81803,8.06671 z M 215.42493,7.25151 c 0,-0.86731 1.31538,-2.89231 2.92308,-4.5 3.90389,-3.90389 10.57621,-4.126427 14.77116,-0.49264 3.70341,3.208 2.60205,4.06694 -6.98509,5.44759 -10.07377,1.45073 -10.70915,1.42374 -10.70915,-0.45495 z"
       id="path4261"
       inkscape:connector-curvature="0" />
    <path
       style="fill:#718a9f"
       d="m 193.75041,113.34505 c -1.74599,-0.74613 -3.85944,-2.4051 -4.69655,-3.68661 -2.12306,-3.25011 -49.62893,-127.520506 -49.62893,-129.824101 0,-3.293313 1.8358,-6.852216 4.40191,-8.5336 5.04252,-3.30398 56.78568,-22.472309 60.66196,-22.472309 6.22404,0 8.33536,2.752422 14.57449,19 3.06243,7.975 5.99617,15.025705 6.51943,15.668232 0.70413,0.864631 2.82133,0.319348 8.14679,-2.098201 11.2832,-5.122124 17.52358,-6.957538 19.12807,-5.625927 1.73338,1.438579 16.56735,27.288456 16.56735,28.870486 0,0.85805 -3.9088,1.18541 -14.15407,1.18541 l -14.15407,0 -3.40452,-3.97741 c -6.01011,-7.021468 -15.05679,-7.797949 -21.80646,-1.87166 -1.91199,1.67875 -3.8406,4.46906 -4.2858,6.20067 -0.69686,2.71051 -1.56646,3.3908 -6.25226,4.8912 -8.76582,2.80683 -9.31934,4.01065 -8.55127,18.59742 0.50542,9.59864 0.37452,12.24847 -0.58922,11.92722 -1.56,-0.52 -14.66836,-22.68313 -14.74536,-24.93089 -0.0752,-2.19582 10.01852,-10.58805 22.44303,-18.659812 5.5,-3.573152 10.39614,-6.843307 10.88032,-7.26701 0.89796,-0.785809 -5.83554,-19.454999 -7.3558,-20.394576 -0.7297,-0.450979 -45.70513,16.215745 -50.27452,18.630432 -0.9625,0.508631 -1.75,1.540502 -1.75,2.293046 0,1.708487 37.77455,99.73592 38.84565,100.80702 1.06824,1.06824 51.21988,-18.25285 51.88624,-19.98935 0.29289,-0.76325 -0.71534,-4.56831 -2.24051,-8.4557 l -2.77302,-7.06798 -7.28379,0.55088 c -4.00608,0.30297 -12.2548,1.57605 -18.33047,2.82906 -6.07568,1.253 -11.32863,1.99624 -11.67323,1.65164 -0.75849,-0.75848 -2.32747,-24.07331 -2.38758,-35.47902 -0.0515,-9.77689 -0.54594,-9.33164 13.5434,-12.1964 13.77872,-2.80161 35.71297,-4.41222 49.41331,-3.62837 14.53554,0.83162 18.82236,1.89426 19.46635,4.82543 1.09205,4.97053 2.64599,41.00182 1.80459,41.84322 -0.52159,0.52159 -3.10019,0.47226 -6.21755,-0.11894 -6.64542,-1.26027 -26.05339,-1.3313 -26.05339,-0.09534 0,0.50313 2.025,6.09371 4.5,12.42352 8.01278,20.49267 8.44139,19.98209 -28.5,33.95123 -15.125,5.71942 -28.625,10.66551 -30,10.99131 -1.375,0.32581 -3.92854,-0.0181 -5.67452,-0.76422 z m 41.92452,-21.71777 c 2.75148,-0.99504 3.97982,-4.79885 1.54965,-4.79885 -1.6183,0 -19.9729,7.05362 -21.56198,8.28622 -0.92201,0.71516 -0.96844,1.33325 -0.17223,2.29263 0.88492,1.06627 2.62828,0.73952 9.26233,-1.73601 4.49473,-1.67722 9.40973,-3.49702 10.92223,-4.04399 z m 18.46261,-48.0448 c 3.0748,-3.0748 3.67884,-4.42931 4.06801,-9.12221 0.37366,-4.50581 0.0413,-6.18392 -1.82186,-9.19857 -4.666,-7.54974 -15.38524,-9.31107 -22.12944,-3.6362 -8.02176,6.74987 -7.42334,18.05779 1.27229,24.04143 2.84366,1.95678 4.34528,2.27223 9.19921,1.93251 5.0686,-0.35474 6.25662,-0.86178 9.41179,-4.01696 z m -17.60188,-2.31433 c -6.03873,-5.08126 -4.76789,-14.4764 2.4195,-17.88704 4.08036,-1.93626 5.80672,-1.94692 9.45873,-0.0584 4.15668,2.1495 6.01104,5.32856 6.01104,10.30514 0,3.47944 -0.58736,4.94178 -2.92308,7.27749 -3.962,3.96201 -10.50041,4.1205 -14.96619,0.3628 z M 215.96903,7.89979 c -1.59627,-2.58282 5.14245,-8.07136 9.90985,-8.07136 3.89359,0 8.73338,2.7884 8.34491,4.80784 -0.23631,1.22845 -1.76913,1.8688 -5.59355,2.33675 -2.89742,0.35453 -6.79383,0.93084 -8.65869,1.28069 -1.89207,0.35495 -3.66109,0.19853 -4.00252,-0.35392 z"
       id="path4259"
       inkscape:connector-curvature="0" />
    <path
       style="fill:#52708a"
       d="m 192.31617,112.33046 c -3.24519,-1.76381 -1.9881,1.24375 -29.46815,-70.50203 -14.60598,-38.13376 -22.75801,-60.71577 -22.70151,-62.885637 0.15854,-6.089136 3.3817,-7.948463 33.77953,-19.486262 15.40061,-5.845456 29.03546,-10.628101 30.29966,-10.628101 3.56247,0 7.67918,2.563201 9.09008,5.65979 0.70412,1.54538 3.5178,8.666628 6.25262,15.824996 2.73482,7.158368 5.36782,13.41421 5.85112,13.901871 0.5095,0.514099 4.94904,-0.898447 10.56576,-3.361748 5.32787,-2.336622 11.31888,-4.465761 13.31334,-4.73142 l 3.62631,-0.483017 8.26165,14.249778 c 4.54391,7.837378 8.13537,14.37606 7.98102,14.53041 -0.15434,0.15435 -6.51518,0.37744 -14.13519,0.49577 l -13.85456,0.21513 -3.12646,-3.56588 c -4.0582,-4.628579 -6.43787,-5.73568 -12.32858,-5.73568 -6.27655,0 -11.28858,3.32139 -14.12827,9.36255 -1.90352,4.04958 -2.6296,4.62926 -7.61295,6.07795 -7.44363,2.16393 -7.97766,3.41045 -7.6727,17.90968 0.16081,7.64558 -0.10283,11.63258 -0.74305,11.23691 -1.65704,-1.02411 -13.14091,-21.65602 -13.14091,-23.60896 0,-2.503 8.33349,-9.62787 21.75,-18.595539 6.1875,-4.135762 11.25135,-8.051247 11.253,-8.701079 0.007,-2.899374 -7.27237,-19.681512 -8.53743,-19.681512 -1.86071,0 -50.52562,18.660049 -51.6828,19.81723 -0.71828,0.718277 16.72218,47.57126 37.94325,101.93277 0.26837,0.6875 1.07588,1.25 1.79446,1.25 1.82575,0 50.64838,-18.76886 51.78858,-19.90906 1.05768,-1.05768 -3.85406,-14.46844 -5.93019,-16.19147 -1.45395,-1.20667 -17.872,0.8769 -29.10188,3.69325 -3.58078,0.89802 -6.83896,1.23881 -7.30558,0.76411 -0.46323,-0.47126 -1.38239,-10.24252 -2.04258,-21.71391 -1.32578,-23.03671 -1.59713,-21.77371 5.07117,-23.60424 14.03397,-3.8525 49.98167,-6.34455 66.30454,-4.59651 10.3982,1.11355 9.98292,0.23782 11.24405,23.71092 0.60124,11.1908 0.79027,20.70791 0.42006,21.14914 -0.37021,0.44123 -5.28729,0.32873 -10.92684,-0.25 -14.74571,-1.5132 -19.97689,-1.38499 -20.70307,0.5074 -0.32917,0.8578 1.21914,6.3703 3.44068,12.25 2.22153,5.87971 4.33161,11.69124 4.68905,12.91452 0.95852,3.28036 -2.09657,8.87402 -5.79574,10.61161 -8.70777,4.09025 -56.28266,21.65901 -58.55673,21.6242 -1.4388,-0.022 -3.78994,-0.67809 -5.22476,-1.45793 z m 35.10876,-17.12285 c 10.03011,-3.82921 12.66713,-5.49073 11.55931,-7.28322 -1.07936,-1.74643 -3.44453,-1.31262 -13.55931,2.48701 -10.5591,3.96654 -11.53102,4.59083 -10.66417,6.84981 0.84832,2.21068 1.97152,2.02854 12.66417,-2.0536 z m 25.56984,-49.86466 c 4.12715,-3.14792 6.91533,-10.11478 6.00022,-14.99276 -0.79956,-4.26201 -5.3979,-9.7936 -9.58203,-11.52672 -4.00956,-1.66081 -11.08581,-0.77367 -14.77341,1.85213 -6.92575,4.93158 -8.25536,16.31607 -2.60692,22.32137 1.59076,1.69126 4.2423,3.70195 5.8923,4.46819 4.13339,1.9195 11.04744,0.94583 15.06984,-2.12221 z m -14.7947,-3.07332 c -3.54394,-1.92323 -4.77514,-4.36038 -4.77514,-9.45238 0,-10.63766 14.45419,-13.98819 19.54717,-4.5311 5.00974,9.30254 -5.34151,19.10123 -14.77203,13.98348 z M 216.42493,6.59864 c 0,-1.9713 2.94622,-4.5069 6.79622,-5.84902 2.60235,-0.90718 3.82794,-0.77581 6.8806,0.73751 6.89107,3.41616 5.67279,4.3235 -7.92682,5.90365 -4.67987,0.54376 -5.75,0.39633 -5.75,-0.79214 z"
       id="path4257"
       inkscape:connector-curvature="0" />
    <path
       style="fill:#294f70"
       d="m 193.75367,112.34642 c -1.7442,-0.74538 -3.67135,-2.28965 -4.28257,-3.43172 -2.37819,-4.4437 -49.04617,-127.25224 -49.04617,-129.066851 0,-3.324617 2.28089,-7.113316 5.18719,-8.616221 4.12496,-2.133099 54.51321,-21.246761 56.56114,-21.455212 7.78183,-0.79208 9.3184,1.001191 16.27018,18.988182 3.28125,8.489892 6.47561,15.751181 7.09858,16.136197 0.62297,0.385016 4.33897,-0.75545 8.25779,-2.534369 9.01954,-4.094357 17.3165,-6.846767 18.47703,-6.129518 0.94122,0.581705 16.14809,26.935962 16.14809,27.985432 0,0.33335 -6.20298,0.60609 -13.78439,0.60609 l -13.78439,0 -1.72099,-2.9134 c -1.93757,-3.280037 -8.9517,-7.0866 -13.05807,-7.0866 -6.0691,0 -12.03856,4.28752 -15.47603,11.11555 -1.29918,2.58062 -2.68815,3.6138 -6.17613,4.59407 -2.47639,0.69597 -5.57473,2.49292 -6.88993,3.99597 -2.31401,2.64453 -2.36934,3.09169 -1.74193,14.07685 0.39673,6.94632 0.28592,11.12179 -0.28577,10.76847 -1.32823,-0.82089 -13.08237,-21.49305 -13.08237,-23.00813 0,-1.69175 12.26586,-11.41675 24.25,-19.226646 5.3625,-3.494665 9.75135,-6.682931 9.753,-7.085036 0.007,-1.819242 -7.23237,-19.176565 -8.40436,-20.14923 -2.00558,-1.664491 -52.98818,18.011922 -53.38987,20.605485 -0.33999,2.195216 37.20052,100.150507 39.11583,102.065827 1.05535,1.05534 6.03525,-0.52848 27.23345,-8.66139 l 25.94195,-9.95289 -0.11941,-3.31945 c -0.0657,-1.8257 -1.30701,-5.97161 -2.75852,-9.21314 l -2.63911,-5.8937 -7.24148,0.56501 c -3.98281,0.31075 -12.10289,1.55151 -18.04461,2.75723 -5.94172,1.20572 -11.11048,1.88488 -11.48612,1.50923 -0.70228,-0.70227 -2.96045,-39.80389 -2.39616,-41.49103 0.88627,-2.64985 24.34559,-6.67651 44.18541,-7.58419 15.84228,-0.7248 33.5732,0.63809 35.57036,2.73411 1.14633,1.20306 4.16938,41.39063 3.18742,42.37259 -0.20951,0.20951 -3.05322,-0.0567 -6.31935,-0.59153 -9.05162,-1.48225 -25.38897,-1.2765 -26.00448,0.3275 -0.2768,0.72134 1.53732,6.59133 4.03139,13.04443 5.96757,15.44038 5.88046,18.8625 -0.56499,22.19557 -3.74802,1.93818 -53.44597,20.92061 -56.90035,21.73343 -1.375,0.32354 -3.92707,-0.0216 -5.67126,-0.76697 z m 41.93237,-19.85373 c 3.9085,-1.63307 5.1999,-5.16639 2.29561,-6.28087 -1.90951,-0.73275 -23.29681,7.49692 -23.95751,9.21866 -0.28283,0.73704 0.15686,2.01117 0.97709,2.83139 1.32176,1.32176 2.3699,1.16738 9.21862,-1.35782 4.25001,-1.56703 9.4098,-3.55214 11.46619,-4.41136 z m 15.35745,-45.28755 c 5.03036,-2.38706 7.7113,-6.75537 8.16948,-13.31131 0.49293,-7.05299 -2.2171,-11.53625 -9.01153,-14.90802 -6.24143,-3.09734 -11.49194,-2.3127 -16.83686,2.51611 -4.54701,4.10795 -6.36004,8.87876 -5.44112,14.31781 1.74757,10.34379 13.31299,16.03916 23.12003,11.38541 z m -14.12463,-6.62827 c -1.72879,-1.48705 -2.80193,-3.62583 -3.16045,-6.29886 -1.05098,-7.83558 7.42768,-13.69293 14.51539,-10.02773 3.8565,1.99427 5.15113,4.35074 5.15113,9.37604 0,5.60562 -3.74442,9.20211 -9.5806,9.20211 -3.0266,0 -5.08642,-0.66967 -6.92547,-2.25156 z M 217.42493,6.508 c 0,-2.36483 4.90966,-5.67957 8.41235,-5.67957 3.08062,0 7.58765,2.32764 7.58765,3.91861 0,0.44286 -2.91934,1.1043 -6.48743,1.46986 -3.56809,0.36556 -7.16809,0.92585 -8,1.24508 -0.9451,0.36267 -1.51257,0.005 -1.51257,-0.95398 z"
       id="path4255"
       inkscape:connector-curvature="0" />
    <path
       style="fill:#012e56"
       d="m 193.31617,111.37088 c -3.23209,-1.80677 -1.95146,1.26006 -29.27643,-70.11049 -12.43815,-32.48742 -22.61481,-60.450062 -22.61481,-62.139212 0,-1.689149 0.7875,-4.008196 1.75,-5.153438 1.5089,-1.795388 51.37759,-21.627326 59.52571,-23.672373 3.70449,-0.929766 8.09454,1.791113 10.0263,6.214132 0.91737,2.100412 3.83541,9.443931 6.48455,16.318931 4.6918,12.176096 4.89302,12.497082 7.76503,12.387376 1.62162,-0.06194 6.57591,-1.743693 11.00951,-3.737221 14.26328,-6.413342 12.89507,-6.948071 21.76912,8.507856 l 7.66033,13.341989 -12.58267,0.28053 -12.58267,0.28053 -3.86046,-3.97795 c -8.7332,-8.998959 -21.85884,-7.145841 -27.44328,3.87453 -2.09102,4.12643 -3.00939,4.91905 -6.99112,6.03386 -2.84151,0.79558 -5.56724,2.45206 -7.17091,4.35792 -2.52246,2.99776 -2.56971,3.31881 -1.89309,12.86254 0.38167,5.38342 0.45912,9.78804 0.17213,9.78804 -0.84056,0 -11.63848,-18.7583 -11.63848,-20.21853 0,-1.71336 10.83853,-10.34554 23.22843,-18.49992 5.35064,-3.521508 9.98155,-6.812293 10.29092,-7.312857 0.80261,-1.298652 -7.33731,-21.684859 -8.8975,-22.283563 -1.1235,-0.431125 -49.99244,17.571772 -53.37732,19.663742 -0.6845,0.423039 -1.24453,1.488421 -1.24453,2.367515 0,0.879095 8.15008,22.790033 18.11129,48.690983 22.53165,58.58637 20.81068,54.34871 22.30456,54.92197 1.09762,0.42119 50.0233,-17.62861 53.33962,-19.67821 1.84109,-1.13786 1.53654,-3.58011 -1.33791,-10.72872 -3.87884,-9.6465 -3.67018,-9.5352 -15.18244,-8.09847 -5.38724,0.67233 -13.30371,2.05837 -17.59216,3.08009 -5.52385,1.31605 -7.89909,1.52796 -8.14672,0.72682 -0.76049,-2.46033 -2.30752,-40.17284 -1.67337,-40.79236 1.28677,-1.25709 19.71872,-4.6941 31.6432,-5.9005 13.11852,-1.32722 40.39183,-0.7881 44.64716,0.88255 2.97741,1.16894 3.26299,2.98263 4.50075,28.58352 l 0.67224,13.90405 -2.39311,-0.69411 c -1.31621,-0.38175 -8.56928,-0.96741 -16.11793,-1.30145 -12.07724,-0.53444 -13.79935,-0.41315 -14.34561,1.01039 -0.34143,0.88975 1.44724,6.93383 3.97482,13.43129 4.97581,12.79093 5.5541,16.87882 2.84561,20.11543 -1.68538,2.01401 -53.9442,22.61189 -60.0342,23.66256 -1.49369,0.2577 -3.88974,-0.1877 -5.32456,-0.98977 z m 35.10876,-15.13793 c 5.225,-1.96966 10.0625,-4.04655 10.75,-4.61531 1.70043,-1.40674 1.57414,-4.27531 -0.25506,-5.79341 -1.23396,-1.0241 -3.61921,-0.45501 -13.24245,3.15947 -11.71844,4.40144 -13.30532,5.6587 -11.86845,9.40314 0.8588,2.23801 4.31744,1.72832 14.61596,-2.15389 z M 253.2892,46.92508 c 12.99357,-9.25224 6.68344,-30.09665 -9.11102,-30.09665 -8.8513,0 -14.9738,4.66419 -16.83686,12.82649 -1.61374,7.07003 2.78885,15.76174 9.53403,18.82233 4.382,1.98831 12.52285,1.21847 16.41385,-1.55217 z m -14.08913,-5.61503 c -5.64767,-3.14865 -6.507,-9.90361 -1.85206,-14.55854 4.88448,-4.88449 12.88465,-3.06572 15.02364,3.41549 2.63079,7.97137 -5.9062,15.19359 -13.17158,11.14305 z M 218.42493,5.95252 c 0,-3.41044 8.91688,-5.36779 12.50407,-2.74477 1.71201,1.25185 1.38315,1.44335 -3.55887,2.07233 -2.99486,0.38116 -6.2327,0.91579 -7.1952,1.18807 -0.9625,0.27228 -1.75,0.0403 -1.75,-0.51563 z"
       id="path4253"
       inkscape:connector-curvature="0" />
  </g>
</svg>
