<svg xmlns="http://www.w3.org/2000/svg" width="38" height="24" fill="none" aria-labelledby="pi-mode" role="img" viewBox="0 0 38 24"><title id="pi-mode">Mode</title><path fill="#fff" d="M0 0h38v24H0z"/><path fill="#2A2A2A" d="M12.866 12.138v3.657a.44.44 0 0 1-.438.438h-.839a.44.44 0 0 1-.438-.439v-3.536c0-.783-.399-1.264-1.117-1.264-.758 0-1.237.506-1.237 1.503v3.298a.44.44 0 0 1-.437.438h-.84a.44.44 0 0 1-.438-.439v-3.536c0-.783-.399-1.264-1.117-1.264-.731 0-1.25.506-1.25 1.503v3.298a.44.44 0 0 1-.438.438h-.838A.44.44 0 0 1 3 15.795v-5.772a.44.44 0 0 1 .439-.438h.838a.44.44 0 0 1 .438.438v.267c.373-.559.997-.891 1.849-.891.824 0 1.435.345 1.808.957.412-.598 1.077-.957 1.981-.957 1.516 0 2.513 1.077 2.513 2.739m14.921-4.712v8.2a.427.427 0 0 1-.427.426h-.815a.427.427 0 0 1-.427-.426v-.337c-.466.595-1.15.944-2.095.944-1.732 0-3.155-1.487-3.155-3.414s1.423-3.414 3.155-3.414c.944 0 1.63.35 2.095.944V7.426A.424.424 0 0 1 26.545 7h.815a.426.426 0 0 1 .427.426m-1.669 5.393c0-1.086-.762-1.823-1.784-1.823-1.035 0-1.798.737-1.798 1.823 0 1.087.763 1.824 1.798 1.824 1.021 0 1.784-.738 1.784-1.824m5.95 1.903c.512 0 .942-.17 1.24-.427a.43.43 0 0 1 .497-.052l.62.357a.425.425 0 0 1 .092.665c-.604.62-1.448.966-2.475.966-2.17 0-3.54-1.486-3.54-3.41s1.383-3.41 3.41-3.41c1.912 0 3.269 1.512 3.269 3.411q0 .152-.012.293a.427.427 0 0 1-.425.39h-4.5c.235.855.946 1.217 1.824 1.217m1.448-2.507c-.207-.93-.905-1.305-1.604-1.305-.892 0-1.499.478-1.693 1.305z"/><path fill="#FF2F4D" d="M16.866 13.67a.854.854 0 1 0 0-1.708.854.854 0 0 0 0 1.707z"/><path fill="#2A2A2A" d="M16.57 9.423a3.412 3.412 0 1 1-1.357 6.384.83.83 0 0 1 .807-1.452 1.75 1.75 0 1 0-.896-1.38.832.832 0 1 1-1.655.145 3.417 3.417 0 0 1 3.101-3.697"/></svg>