<svg xmlns="http://www.w3.org/2000/svg" width="38" height="24" fill="none" aria-labelledby="pi-mokka" role="img" viewBox="0 0 38 24"><title id="pi-mokka">Mokka</title><path fill="#FF5A1E" d="M0 0h38v24H0z"/><path fill="#fff" d="M23.023 14.723c-.02.57-.335.882-.668.882-.449 0-.746-.375-1.273-1.355-.234.293-.45.57-.629.785-.27.336-.527.55-.84.55-.332 0-.449-.253-.449-.589 0-.746.195-3.105.04-4.11.155-.097.39-.156.566-.156.57 0 .746.391.746 1.06 0 .452-.063 1.32-.118 1.733.88-1.28 1.41-2.203 1.606-2.753.61-.098.922.195.922.648 0 .473-.297.922-1.078 1.848.488.863.84 1.336 1.175 1.457m-15.832.996c.684-.012 1.008-.578.977-1.723q-.001-.128-.031-1.715c-.012-.437.031-.761.117-.969.078.141.176.415.305.81q.182.6.347.991c.098.27.274.512.5.742.23.227.48.336.774.325q.418-.013.828-.633c.27-.414.488-.871.66-1.363.176-.493.36-.95.566-1.364.196-.414.371-.62.512-.62.031.206 0 .85-.121 1.929-.121 1.082-.172 1.898-.152 2.434.023.468.25.785.695.949.45.164.84.101 1.2-.196q-.091-.654-.11-1.636c-.012-.34.012-.852.043-1.551q.048-1.042.031-1.516c-.043-1.437-.422-2.246-1.629-2.203-.469.008-.816.207-1.121.688a5 5 0 0 0-.379.675c-.098.207-.23.5-.394.907-.16.402-.305.73-.41.957a4 4 0 0 1-.165-.48c-.164-.489-.25-.75-.468-1.255a4 4 0 0 0-.72-1.132c-.3-.34-.671-.504-1.073-.493-.47 0-.86.196-1.164.602q-.02.275-.122 1.351a77 77 0 0 1-.171 1.832c-.055.504-.11 1.063-.184 1.66q-.084.704-.219 1.4c.117.425.477.62 1.078.597m24.258-1.43c.117.57.293 1.043.356 1.16-.137.117-.356.196-.63.196-.624 0-.8-.332-.94-1.278l-1.079.059c-.176.945-.37 1.199-.898 1.199-.258 0-.473-.078-.59-.254.098-.176.2-.55.375-1.379.156-.785.41-1.847.645-2.398.214-.492.511-.844 1.156-.844 1.02 0 1.215.824 1.453 2.555.25-.04.43-.059.547-.098.117.55.02.945-.395 1.082m-2.094-.848c.274-.02.528-.039.782-.039-.098-.964-.137-1.574-.293-1.71-.137.097-.313.745-.489 1.75zm-2.058 1.282c-.02.57-.332.882-.668.882-.45 0-.723-.375-1.195-1.355-.23.293-.45.55-.606.766-.273.336-.527.55-.844.55-.332 0-.449-.254-.449-.59 0-.746.195-3.105.04-4.109.155-.097.39-.156.566-.156.57 0 .746.39.746 1.059 0 .453-.059 1.32-.117 1.734.882-1.281 1.41-2.207 1.609-2.754.601-.102.918.195.918.648 0 .473-.317.922-1.078 1.868.43.847.746 1.355 1.078 1.457m-12.422-1.516c0-1.453.727-2.457 1.96-2.457 1.231 0 1.88 1.004 1.88 2.398 0 1.454-.688 2.497-1.961 2.497-1.117 0-1.879-.864-1.879-2.438m1.195.02c0 .843.235 1.316.727 1.316.488 0 .723-.512.723-1.434 0-.687-.157-1.257-.684-1.257-.512 0-.766.511-.766 1.375"/></svg>