<svg xmlns="http://www.w3.org/2000/svg" role="img" viewBox="0 0 38 24" width="38" height="24" aria-labelledby="pi-mollie_giftcard"><title id="pi-mollie_giftcard">Mollie Giftcard</title><path d="M33.25 0H4.75C2.138 0 0 1.8 0 4v16c0 2.2 2.138 4 4.75 4h28.5c2.612 0 4.75-1.8 4.75-4V4c0-2.2-2.138-4-4.75-4z" fill="#000"/><path d="M38 8H0v3h38V8z" fill="#fff"/><path d="M12.3 9h5.4v7.2l-2.9-2-2.5 2V9z" fill="#fff"/><path d="M15.4 7.7l4.5-2.3c.3-.2.8 0 1 .3v.1c.1.1.1.2.1.4v6.7c0 .4-.3.8-.8.8-.1 0-.2 0-.3-.1l-4.5-2.3c-.3-.2-.4-.4-.4-.8v-2c0-.3.1-.6.4-.8z" fill="#fff"/><path d="M14.6 7.7l-4.5-2.3c-.3-.2-.8 0-1 .3v.1c-.1.1-.1.2-.1.4v6.7c0 .4.3.8.8.8.1 0 .2 0 .3-.1l4.5-2.3c.3-.2.4-.4.4-.8v-2c0-.3-.1-.6-.4-.8z" fill="#fff"/><path d="M14.9 14c1.9-.1 3.3-1.7 3.2-3.6.1-1.9-1.3-3.5-3.2-3.6-1.9.1-3.3 1.7-3.2 3.6-.1 1.9 1.3 3.5 3.2 3.6z" fill="#fff"/></svg>