<svg xmlns="http://www.w3.org/2000/svg" role="img" viewBox="0 0 38 24" width="38" height="24" aria-labelledby="pi-momopay"><title id="pi-momopay">MoMoPay</title><defs><clipPath id="pi-b"><path d="M0 0h38v24H0z"/></clipPath></defs><g id="pi-a" clip-path="url(#pi-b)"><path fill="#fff" d="M0 0h38v24H0z"/><rect width="38" height="24" rx="2" fill="#fff"/><path d="M2 1a1 1 0 00-1 1v20a1 1 0 001 1h34a1 1 0 001-1V2a1 1 0 00-1-1H2m0-1h34a2 2 0 012 2v20a2 2 0 01-2 2H2a2 2 0 01-2-2V2a2 2 0 012-2z" fill="rgba(0,0,0,0.07)"/><g transform="translate(7 1.872)"><rect width="22.352" height="20.256" rx="5" fill="#a50064"/><path d="M20.936 7.068a3.448 3.448 0 103.545 3.447 3.5 3.5 0 00-3.545-3.447zm0 4.918a1.487 1.487 0 01-1.5-1.469 1.506 1.506 0 013.009 0 1.487 1.487 0 01-1.5 1.469zm-4.554-2.329v4.32h-2.044V9.636a.6.6 0 10-1.2 0v4.341H11.1V9.636a.6.6 0 10-1.2 0v4.341H7.87v-4.32a2.628 2.628 0 012.659-2.589 2.689 2.689 0 011.594.52 2.7 2.7 0 011.592-.52 2.63 2.63 0 012.667 2.589zm4.553 5.788a3.451 3.451 0 103.542 3.455 3.494 3.494 0 00-3.541-3.455zm0 4.918a1.468 1.468 0 111.5-1.469 1.508 1.508 0 01-.45 1.055 1.467 1.467 0 01-1.055.422zm-4.553-2.32v4.311h-2.044v-4.335a.6.6 0 10-1.2 0v4.334H11.1v-4.334a.6.6 0 10-1.2 0v4.334H7.87v-4.311a2.663 2.663 0 01.8-1.857 2.591 2.591 0 011.861-.74 2.7 2.7 0 011.594.518 2.688 2.688 0 011.592-.518 2.593 2.593 0 011.866.737 2.665 2.665 0 01.799 1.86z" transform="translate(-4.589 -4.961)" fill="#fff"/></g></g></svg>