<svg viewBox="0 0 38 24" xmlns="http://www.w3.org/2000/svg" version="1.1" x="0" y="0" width="38" height="24" xml:space="preserve" style="background-color:#fff" role="img" stroke-width="0" aria-labelledby="pi-mondido"><title id="pi-mondido">Mondido</title><path d="M5.473 9.396c-.516 0-1 .225-1.339.577a1.875 1.875 0 0 0-1.339-.577 1.866 1.866 0 0 0-1.871 1.859v2.075a.548.548 0 0 0 .517.73.548.548 0 0 0 .515-.738v-2.066a.83.83 0 1 1 1.66 0v2.182a.512.512 0 0 0 .501.623.512.512 0 0 0 .514-.51v-.012a.274.274 0 0 0 .02-.1v-2.184a.831.831 0 0 1 1.661 0v2.184a.25.25 0 0 0 .008.062l-.001.049c0 .281.229.51.512.51a.512.512 0 0 0 .509-.576c.002-.016.005-.03.005-.045v-2.184a1.867 1.867 0 0 0-1.872-1.859zm12.345 1.86a1.863 1.863 0 0 0-3.728 0v2.184c0 .016.002.031.005.046-.002.021-.005.043-.005.065 0 .281.23.51.514.51a.512.512 0 0 0 .513-.51l-.002-.049a.258.258 0 0 0 .009-.062v-2.184a.83.83 0 1 1 1.661 0v2.184c0 .035.007.068.02.1v.012c0 .281.229.51.513.51a.512.512 0 0 0 .501-.623v-2.183zm7.271-1.86a.51.51 0 0 0-.51.479l-.002.015v3.549c0 .016.002.031.006.046a.512.512 0 0 0 .506.575.513.513 0 0 0 .516-.51l-.002-.049a.319.319 0 0 0 .008-.062V9.89a.224.224 0 0 0-.016-.08.512.512 0 0 0-.506-.414zm0-.438a.513.513 0 0 0 .516-.51c0-.281-.23-.51-.516-.51a.513.513 0 0 0-.512.51c0 .282.231.51.512.51zm-2.051-1.02a.514.514 0 0 0-.514.496c-.004.018-.008.034-.008.052v1.317a2.333 2.333 0 0 0-1.322-.406 2.338 2.338 0 0 0-2.345 2.332 2.34 2.34 0 0 0 2.345 2.332c1.195 0 2.18-.887 2.328-2.034a.256.256 0 0 0 .027-.118V8.448a.51.51 0 0 0-.511-.51zm-1.844 5.102a1.317 1.317 0 0 1-1.318-1.312c0-.724.592-1.312 1.318-1.312.73 0 1.32.588 1.32 1.312a1.315 1.315 0 0 1-1.32 1.312zm9.69-5.102a.514.514 0 0 0-.514.496c-.002.018-.004.034-.004.052v1.317a2.344 2.344 0 0 0-1.324-.406 2.337 2.337 0 0 0-2.346 2.332 2.339 2.339 0 0 0 2.346 2.332 2.34 2.34 0 0 0 2.326-2.034.257.257 0 0 0 .029-.118V8.486c0-.004 0-.007-.002-.012a.513.513 0 0 0-.511-.536zm-1.842 5.102c-.729 0-1.32-.589-1.32-1.312 0-.724.592-1.312 1.32-1.312s1.318.588 1.318 1.312c0 .723-.589 1.312-1.318 1.312zM10.709 9.396a2.339 2.339 0 0 0-2.347 2.332c0 1.287 1.05 2.332 2.347 2.332s2.347-1.045 2.347-2.332a2.34 2.34 0 0 0-2.347-2.332zm0 3.644c-.728 0-1.32-.589-1.32-1.312 0-.724.592-1.312 1.32-1.312s1.32.588 1.32 1.312c0 .723-.592 1.312-1.32 1.312zm24.052-3.644a2.339 2.339 0 0 0-2.346 2.332 2.34 2.34 0 0 0 2.346 2.332 2.34 2.34 0 0 0 2.348-2.332 2.34 2.34 0 0 0-2.348-2.332zm0 3.644c-.727 0-1.32-.589-1.32-1.312 0-.724.594-1.312 1.32-1.312.729 0 1.32.588 1.32 1.312 0 .723-.592 1.312-1.32 1.312z" fill="#40C2CB"/></svg>