<?xml version="1.0" encoding="utf-8"?>
<!-- Generator: Adobe Illustrator 21.1.0, SVG Export Plug-In . SVG Version: 6.00 Build 0)  -->
<svg version="1.1" id="Layer_1" xmlns="http://www.w3.org/2000/svg" xmlns:xlink="http://www.w3.org/1999/xlink" x="0px" y="0px"
	 width="38" height="24" viewBox="0 0 80 80" style="enable-background:new 0 0 80 80;" xml:space="preserve">
<style type="text/css">
	.st0{fill:#FFFFFF;}
	.st1{fill:#FF6600;}
	.st2{fill:#4C4C4C;}
</style>
<rect x="0" class="st0" width="80" height="80"/>
<title>Artboard 1</title>
<g id="Layer_1-2">
	<g id="_150062856">
		<path id="_149931032" class="st1" d="M40,0C17.9,0,0,17.9,0,40c0,4.3,0.7,8.6,2,12.7h12V19l26,26l26-26v33.6h12
			C85,31.7,73.6,9,52.7,2C48.6,0.7,44.3,0,40,0z"/>
		<path id="_149931160" class="st2" d="M34,51L22.7,39.6v21.2H5.8c11.5,18.9,36.1,24.9,55,13.4c5.5-3.3,10.1-7.9,13.4-13.4H57.3
			V39.6L46,51l-6,6L34,51z"/>
	</g>
</g>
</svg>
