<svg xmlns="http://www.w3.org/2000/svg" fill="none" viewBox="0 0 38 24" height="24" width="38" aria-labelledby="pi-monzo" role="img"><title id="pi-monzo">Monzo</title><path fill="#fff" d="M0 0h38v24H0z"/><path fill="#E34B5F" d="M28 15.7a.832.832 0 0 1-.244.59l-3.733 3.733a.338.338 0 0 1-.515-.05.328.328 0 0 1-.056-.186v-8.363l4.494-4.468H28V15.7Z"/><path fill="#E7CE9C" d="M25.02 3.977a.333.333 0 0 0-.47 0L19 9.527h-.077v6.263l.077.164 8.999-9-2.979-2.977Z"/><path fill="#1E7889" d="M10 15.7a.83.83 0 0 0 .244.59l3.732 3.733a.337.337 0 0 0 .515-.05.328.328 0 0 0 .056-.185v-8.364l-4.495-4.468H10V15.7Z"/><path fill="#97BAA6" d="M13.45 3.977a.333.333 0 0 0-.472 0L10 6.956l9 9V9.527l-5.55-5.55Z"/></svg>