<svg width="38" height="24" viewBox="0 0 38 24" fill="none" xmlns="http://www.w3.org/2000/svg" role="image" aria-labelledby="pi-monzo"><title id="pi-monzo">Monzo</title><rect width="38" height="24" rx="2" fill="#fff"/><rect x=".5" y=".5" width="37" height="23" rx="1.5" stroke="#000" stroke-opacity=".07"/><g clip-path="url(#clip0_28_16)"><path d="M28 15.701a.832.832 0 01-.244.59l-3.733 3.732a.338.338 0 01-.365.071.328.328 0 01-.206-.307v-8.363l4.494-4.468H28V15.7z" fill="#E34B5F"/><path d="M25.02 3.977a.333.333 0 00-.47 0L19 9.527h-.077v6.263l.077.164 8.999-8.999-2.978-2.978z" fill="#E7CE9C"/><path d="M10 15.701c0 .221.087.433.244.59l3.732 3.732a.337.337 0 00.365.072.328.328 0 00.206-.307v-8.364l-4.495-4.468H10V15.7z" fill="#1E7889"/><path d="M13.45 3.977a.333.333 0 00-.472 0L10 6.956l9 9V9.527l-5.55-5.55z" fill="#97BAA6"/></g><defs><clipPath id="clip0_28_16"><path fill="#fff" transform="translate(10 3)" d="M0 0h18v18H0z"/></clipPath></defs></svg>