<svg xmlns="http://www.w3.org/2000/svg" width="38" height="24" fill="none" aria-labelledby="pi-mpesa" role="img" viewBox="0 0 38 24"><title id="pi-mpesa">M-Pesa</title><path fill="#fff" d="M0 0h38v24H0z"/><path fill="#fff" d="M12.37 8.27h2.36a1.37 1.37 0 0 1 1.37 1.36v3.92a1.37 1.37 0 0 1-1.37 1.37h-2.36A1.37 1.37 0 0 1 11 13.56V9.63a1.37 1.37 0 0 1 1.37-1.36"/><path fill="#D2E288" d="M16.67 5.84a.47.47 0 0 0-.94 0v.88h-4.21a1.08 1.08 0 0 0-1.08 1.08v11.9a1.08 1.08 0 0 0 1.08 1.08h4.07a1.08 1.08 0 0 0 1.08-1.08V7.78a1 1 0 0 0 0-.28.5.5 0 0 0 0-.18zm-.57 7.72a1.37 1.37 0 0 1-1.37 1.37h-2.36A1.37 1.37 0 0 1 11 13.56V9.63a1.37 1.37 0 0 1 1.37-1.37h2.36a1.37 1.37 0 0 1 1.37 1.37z"/><path fill="#8DC63F" d="M20.22 8.51h-2.6v6.31H19V12h.94a1.61 1.61 0 0 0 1.64-1.63c.02-1.03-.41-1.74-1.36-1.86M19 11.34V9.17c.64-.09 1.13.09 1.17 1.09s-.49 1.13-1.17 1.08m5-2.9h1.64v.71h-1.32c-.74.14-.58.93-.61 1.5h1.73v.87h-1.68v2.1a.84.84 0 0 0 .83.85h1.2V15h-2.04c-.6 0-1.09-.32-1.32-1.25V9.68c0-.83.57-1.24 1.59-1.28zm2.25 1.79c-.1-1.36.66-1.67 1.58-1.78A1.57 1.57 0 0 1 29.69 10h-1.27c-.08-.58-.53-.8-.94-.53-.59.72 1.25 2 1.8 2.46a1.94 1.94 0 0 1-.67 3.23h-.89c-.91 0-1.45-.55-1.6-1.62h1.29c.07.45.26.74.67.72.64-.12.82-.68.36-1.4-1-.81-2.08-1.57-2.2-2.62zm-22.6-2H5v.42c.82-.35 1.43-.6 2.08 0 1.15-.54 2-.48 2.46.53l.06 5.67H8.22V9.42c-.1-.46-.47-.54-.91-.51v5.92H5.92V9.42c-.1-.42-.47-.54-.92-.51v5.92H3.63v-6.6zM30.45 15h1.4v-3.49H33V15h1.36v-5a1.72 1.72 0 0 0-1.91-1.65c-1.26 0-2 .58-2 1.59zm1.4-5.33c0-.37.17-.52.58-.56s.56.25.59.62v1h-1.17z"/><path fill="#82221C" d="M12.09 10.92c.23.55.55.8.94.81a5.4 5.4 0 0 1-1.93.9 6 6 0 0 1-1.23-.24 3.17 3.17 0 0 0 2.22-1.46z"/><path fill="#EC2127" d="m14.71 9.52 2.82 1.42c-1.43 1.89-3.85 1.94-6.43 1.69a5.07 5.07 0 0 0 3.61-3.11"/></svg>