<?xml version="1.0" encoding="UTF-8"?>
<!-- Generator: Adobe Illustrator 16.0.0, SVG Export Plug-In . SVG Version: 6.00 Build 0)  -->
<!DOCTYPE svg PUBLIC "-//W3C//DTD SVG 1.1//EN" "http://www.w3.org/Graphics/SVG/1.1/DTD/svg11.dtd">
<svg version="1.1" id="Layer_1" xmlns="http://www.w3.org/2000/svg" xmlns:xlink="http://www.w3.org/1999/xlink" x="0px" y="0px" viewBox="0 0 46.744 23.437" enable-background="none" xml:space="preserve" width="38px" height="24px">
<g>
	<g>
		<path fill-rule="evenodd" clip-rule="evenodd" fill="#FFFFFF" d="M13.297,4.411h3.588c1.142,0,2.076,0.933,2.076,2.075v5.968    c0,1.141-0.934,2.076-2.076,2.076h-3.588c-1.142,0-2.076-0.935-2.076-2.076V6.486C11.221,5.344,12.155,4.411,13.297,4.411    L13.297,4.411z"/>
	</g>
	<g>
		<path fill-rule="evenodd" clip-rule="evenodd" fill="#D1E187" d="M18.183,23.437h-6.184c-0.904,0-1.643-0.739-1.643-1.644V3.675    c0-0.903,0.739-1.643,1.643-1.643h6.184c0.074,0,0.146,0.005,0.216,0.015V0.714C18.399,0.321,18.72,0,19.113,0l0,0    c0.393,0,0.713,0.321,0.713,0.714v2.248c0,0.1-0.021,0.195-0.058,0.281c0.038,0.138,0.058,0.283,0.058,0.432v18.118    C19.826,22.698,19.087,23.437,18.183,23.437L18.183,23.437z M13.297,4.411h3.588c1.142,0,2.076,0.933,2.076,2.075v5.968    c0,1.141-0.934,2.076-2.076,2.076h-3.588c-1.142,0-2.076-0.935-2.076-2.076V6.486C11.221,5.344,12.155,4.411,13.297,4.411    L13.297,4.411z"/>
	</g>
	<g>
		<path fill-rule="evenodd" clip-rule="evenodd" fill="#8BC53F" d="M21.279,4.791l3.946-0.016c1.439,0.183,2.104,1.259,2.043,2.826    c-0.109,1.579-1.005,2.351-2.5,2.486l-1.433-0.028l0.041,4.332h-2.098V4.791L21.279,4.791z M23.398,5.775    c0.975-0.139,1.722,0.131,1.773,1.665c-0.032,1.37-0.76,1.716-1.773,1.643V5.775L23.398,5.775z"/>
	</g>
	<g>
		<path fill-rule="evenodd" clip-rule="evenodd" fill="#8BC53F" d="M30.934,4.671l2.498-0.011l-0.019,1.071l-1.957-0.009    c-1.129,0.21-0.877,1.415-0.932,2.285l2.633-0.049l0.009,1.316l-2.551-0.027l-0.012,3.187c0.1,0.826,0.535,1.242,1.269,1.29    l1.402-0.016l0.427,0.01l-0.014,0.995l-0.438,0.017l-2.663-0.028c-0.917-0.031-1.659-0.486-2-1.901l-0.065-6.184    C28.56,5.35,29.397,4.728,30.934,4.671L30.934,4.671z"/>
	</g>
	<g>
		<path fill-rule="evenodd" clip-rule="evenodd" fill="#8BC53F" d="M34.35,7.385c-0.158-2.072,0.997-2.539,2.399-2.703    c1.643-0.097,2.675,0.588,2.876,2.335l-1.939-0.005c-0.123-0.881-0.809-1.221-1.436-0.8c-0.895,1.094,1.896,3.02,2.733,3.734    c1.447,1.145,1.202,4.316-1.026,4.904l-1.359,0.049c-1.38,0.032-2.201-0.84-2.439-2.456l1.954-0.035    c0.106,0.691,0.401,1.12,1.026,1.089c0.973-0.186,1.24-1.042,0.549-2.134C36.239,10.133,34.523,8.979,34.35,7.385L34.35,7.385z"/>
	</g>
	<g>
		<path fill-rule="evenodd" clip-rule="evenodd" fill="#8BC53F" d="M0,4.358h2.054l0.021,0.638C3.316,4.46,4.252,4.081,5.232,4.963    C6.985,4.136,8.311,4.23,8.968,5.767l0.092,8.625H6.989V6.164C6.835,5.46,6.277,5.34,5.605,5.386v9.005H3.486V6.164    C3.333,5.46,2.775,5.34,2.102,5.386v9.005H0V4.358L0,4.358z"/>
	</g>
	<g>
		<path fill-rule="evenodd" clip-rule="evenodd" fill="#8BC53F" d="M40.777,14.642h2.13V9.345h1.773v5.297h2.064V7.075    c-0.042-1.538-1.224-2.502-2.897-2.508c-1.91-0.017-2.999,0.889-3.07,2.421V14.642L40.777,14.642z M42.907,6.535    c0.07-0.565,0.253-0.793,0.875-0.854c0.63,0.017,0.854,0.38,0.897,0.94v1.535h-1.773V6.535L42.907,6.535z"/>
	</g>
	<g>
		<path fill-rule="evenodd" clip-rule="evenodd" fill="#81211C" d="M12.875,8.448c0.355,0.831,0.838,1.212,1.424,1.236    c-0.913,0.683-1.9,1.097-2.931,1.361c-0.647-0.042-1.265-0.206-1.866-0.37C11.019,10.375,12.15,9.642,12.875,8.448L12.875,8.448z"/>
		<path fill="#CC8B5D" d="M11.368,11.056L11.368,11.056c-0.671-0.043-1.335-0.225-1.869-0.371l0-0.019    c0.757-0.15,1.423-0.411,1.98-0.777c0.562-0.369,1.028-0.855,1.386-1.445l0.01-0.017l0.008,0.018    c0.173,0.405,0.383,0.713,0.623,0.917c0.231,0.196,0.498,0.301,0.792,0.313l0.006,0.018c-0.836,0.625-1.796,1.071-2.934,1.363    L11.368,11.056z M9.545,10.677c0.525,0.144,1.171,0.317,1.821,0.358c1.125-0.29,2.076-0.728,2.904-1.343    c-0.289-0.017-0.55-0.123-0.777-0.316c-0.24-0.203-0.448-0.508-0.621-0.907c-0.358,0.585-0.823,1.068-1.382,1.436    C10.942,10.266,10.288,10.525,9.545,10.677z"/>
	</g>
	<g>
		<path fill-rule="evenodd" clip-rule="evenodd" fill="#EB2026" d="M16.853,6.308l4.281,2.162c-2.181,2.869-5.857,2.944-9.773,2.573    C13.979,10.398,15.792,8.798,16.853,6.308L16.853,6.308z"/>
		<path fill="#CC8B5D" d="M14.24,11.211c-0.828,0-1.742-0.05-2.88-0.158l-0.001-0.02c1.294-0.319,2.413-0.882,3.325-1.673    c0.903-0.783,1.629-1.811,2.16-3.056l0.004-0.01l4.302,2.172l-0.007,0.009c-0.396,0.521-0.859,0.971-1.377,1.336    c-0.486,0.344-1.04,0.626-1.643,0.839C17.057,11.027,15.787,11.211,14.24,11.211z M11.42,11.039    c1.11,0.104,2.007,0.152,2.82,0.152c1.544,0,2.812-0.183,3.875-0.559c0.602-0.213,1.153-0.494,1.638-0.837    c0.514-0.362,0.973-0.807,1.366-1.321l-4.261-2.152c-0.531,1.243-1.258,2.271-2.16,3.053    C13.795,10.157,12.693,10.717,11.42,11.039z"/>
	</g>
</g>
</svg>