<svg viewBox="0 0 38 24" xmlns="http://www.w3.org/2000/svg" role="img" width="38" height="24" aria-labelledby="pi-mpesa"><title id="pi-mpesa">Mpesa</title><path opacity=".07" d="M35 0H3C1.3 0 0 1.3 0 3v18c0 1.7 1.4 3 3 3h32c1.7 0 3-1.3 3-3V3c0-1.7-1.4-3-3-3z"/><path fill="#fff" d="M35 1c1.1 0 2 .9 2 2v18c0 1.1-.9 2-2 2H3c-1.1 0-2-.9-2-2V3c0-1.1.9-2 2-2h32"/><path d="M14.33 11.48v.23c0 1.636.001 2.246-.002 3.883a.793.793 0 01-.311.642.823.823 0 01-.549.186c-.873-.003-1.746-.001-2.619-.003-.382 0-.68-.273-.782-.623-.01-.034-.008-.071-.008-.106L10.056 12c0-.067.015-.107.094-.088.102.024.204.053.308.066.082.009.103.05.103.12 0 .216-.004.432.002.648.005.282.158.477.382.628.133.089.28.119.439.118.54-.002 1.08 0 1.62-.002a.818.818 0 00.77-.524.808.808 0 00.045-.265c.006-.286.002-.573.006-.86 0-.039.02-.093.05-.113.13-.086.264-.163.399-.242.01-.006.024-.003.056-.006z" fill="#C9DCBF"/><path d="M6.777 11.691l.576-1.17.543-1.11c.027-.057.062-.112.084-.17.045-.123.123-.166.257-.162.339.009.679.005 1.018.002.083-.001.114.025.114.111-.002 1.44-.001 2.88.001 4.32 0 .084-.025.109-.111.109-.28 0-.56.008-.84.014-.107.002-.14-.03-.14-.143l-.001-2.45c0-.04 0-.079-.023-.121l-.597 1.252c-.094.195-.19.39-.283.586-.05.103-.099.206-.147.31-.035.077-.086.12-.178.116a10.295 10.295 0 00-.562 0c-.072.003-.116-.024-.145-.085l-.51-1.065-.517-1.073c-.003-.005-.01-.007-.032-.022-.007.042-.02.076-.018.11.005.164.02.327.019.491-.007.573-.02 1.147-.028 1.72 0 .094.004.188.015.281.007.06-.021.077-.07.078-.316 0-.634.001-.95-.003-.02 0-.045-.032-.058-.055-.01-.018-.002-.044-.002-.068v-4.26c0-.1.05-.15.15-.15.304 0 .608-.002.913 0 .063.001.129.01.19.025a.14.14 0 01.082.064c.22.435.436.873.655 1.31.085.17.179.337.263.51.11.223.214.45.332.7v-.001zM20.425 12.638h2.303c.138 0 .141.003.142.142l-.002.707c0 .124-.006.131-.13.131h-3.182c-.077 0-.155-.003-.23.008-.098.015-.116-.032-.116-.114l.001-1.51v-2.73c0-.125.062-.18.184-.169.03.003.059.002.088.002l2.968-.001c.07 0 .14-.019.211-.023.108-.004.132.02.132.126 0 .252-.002.504.002.755.001.088-.026.119-.117.118-.7-.003-1.402-.001-2.104-.002a.262.262 0 01-.068-.008c-.06-.015-.082.011-.082.07 0 .215.001.432-.002.648-.001.075.045.071.095.071l1.863-.001c.206 0 .18-.014.181.183.002.226-.003.452.002.678.002.091-.032.115-.12.115-.63-.002-1.26 0-1.89 0-.131 0-.13 0-.13.133.002.22 0 .438 0 .671h.002zM32.263 13.609c-.041.004-.072.008-.104.008l-.66.002c-.139 0-.28-.004-.42.007-.08.007-.112-.031-.136-.09-.086-.212-.173-.423-.255-.636-.02-.05-.045-.066-.098-.066-.585.002-1.171.001-1.757.001-.05 0-.082.005-.105.068a10.097 10.097 0 01-.268.652c-.018.04-.078.085-.12.085a33.397 33.397 0 01-1.032-.02c-.126-.005-.121-.01-.069-.13.162-.37.318-.742.479-1.112.152-.347.307-.692.457-1.04.183-.422.363-.847.543-1.271.123-.293.243-.587.366-.88.027-.064.07-.105.146-.105h1.067c.098 0 .11.08.135.14.13.3.254.604.382.906.154.367.312.732.467 1.098.195.464.39.927.58 1.391.134.324.263.65.403.993z" fill="#39B54A"/><path d="M29.134 11.868c.015.017.017.021.02.021l1.074.008c.06 0 .064-.04.049-.079-.055-.15-.114-.297-.172-.445-.072-.187-.142-.375-.215-.561l-.17-.436-.586 1.492zM25.435 13.697c-.734-.007-1.3-.152-1.823-.458a3.461 3.461 0 01-.357-.252c-.022-.019-.038-.08-.025-.105.131-.27.271-.536.403-.806.034-.071.06-.066.112-.023.29.248.626.413.983.537.22.076.45.112.684.089a.863.863 0 00.244-.053.3.3 0 00.198-.297c0-.145-.078-.238-.195-.305-.213-.121-.45-.172-.684-.236a6.893 6.893 0 01-.518-.169 2.662 2.662 0 01-.323-.14c-.309-.16-.53-.394-.61-.741-.137-.59.08-1.173.648-1.477.232-.124.473-.21.735-.228.195-.015.392-.041.587-.029.208.013.415.062.622.1.307.056.593.173.866.32.128.068.144.095.084.226-.117.255-.237.508-.357.76-.024.053-.052.075-.12.043-.27-.124-.538-.255-.817-.35a1.588 1.588 0 00-.694-.092c-.13.015-.287.103-.3.192-.02.164-.026.273.152.37.152.083.315.148.48.204.384.132.791.209 1.14.431.242.156.437.36.52.655.138.486.053.921-.279 1.302-.177.203-.41.323-.66.407-.268.088-.543.135-.696.126zM16.096 9.08c.304 0 .609-.012.912.003.317.016.634.047.93.18.326.148.582.376.722.706.145.34.171.697.109 1.065-.04.241-.112.464-.247.665a1.36 1.36 0 01-.73.55 2.773 2.773 0 01-.63.12c-.289.02-.58.008-.872.004-.077 0-.1.024-.099.1.004.333.002.665.002.997 0 .098-.048.146-.143.147-.243 0-.485 0-.727.002-.074.001-.147.022-.22.022-.112 0-.136-.033-.134-.14.001-.092-.011-.184-.011-.277-.002-.489-.001-.977-.001-1.466 0-.18-.003-.358 0-.538.003-.1.023-.199.022-.298-.005-.564-.013-1.128-.024-1.69-.001-.082.015-.132.105-.137.045-.003.089-.015.134-.015h.902zm.096 2.32c.115 0 .211.003.308-.002.234-.01.469-.019.702-.041.132-.013.231-.1.31-.203.14-.182.14-.397.105-.607a.652.652 0 00-.138-.273c-.112-.146-.282-.19-.46-.192-.242-.004-.485 0-.727-.003-.075-.001-.101.024-.1.1.003.28 0 .563 0 .842v.378z" fill="#39B54A"/><path d="M14.329 10.56c-.171-.083-.317-.148-.456-.223-.028-.014-.047-.067-.05-.103-.005-.112-.001-.226-.002-.339-.003-.38-.28-.759-.702-.778-.516-.025-1.032-.024-1.548-.034-.214-.003-.426.02-.616.119a.825.825 0 00-.228.203c-.138.16-.17.354-.167.564.008.48 0 .961.003 1.443 0 .09-.036.145-.113.182-.094.046-.189.094-.285.137-.075.035-.108.013-.109-.071v-.426c0-.79.006-1.583-.002-2.373a.825.825 0 01.6-.79.995.995 0 01.256-.035c.853-.003 1.708-.004 2.561 0 .098 0 .131-.026.125-.125-.007-.135-.003-.272 0-.407a.35.35 0 01.321-.326c.269-.014.413.128.412.398v2.983z" fill="#C9DCBF"/><path fill-rule="evenodd" clip-rule="evenodd" d="M11.108 10.865c.165.385.39.562.663.574-.425.316-.885.509-1.364.632-.3-.02-.589-.096-.868-.173.706-.138 1.232-.48 1.569-1.033" fill="#7F1D1E"/><path fill-rule="evenodd" clip-rule="evenodd" d="M12.96 9.87l1.991 1.004c-1.014 1.332-2.725 1.367-4.547 1.195 1.219-.3 2.062-1.042 2.555-2.199z" fill="#EC1D27"/></svg>