<?xml version="1.0" encoding="utf-8"?>
<!-- Generator: Adobe Illustrator 16.0.0, SVG Export Plug-In . SVG Version: 6.00 Build 0)  -->
<!DOCTYPE svg PUBLIC "-//W3C//DTD SVG 1.1//EN" "http://www.w3.org/Graphics/SVG/1.1/DTD/svg11.dtd">
<svg version="1.1" id="Layer_1" xmlns="http://www.w3.org/2000/svg" xmlns:xlink="http://www.w3.org/1999/xlink" x="0px" y="0px"
	 width="38px" height="24px" viewBox="0 0 38 24" style="enable-background:new 0 0 38 24;" xml:space="preserve">
<style type="text/css">
<![CDATA[
	.st0{opacity:0.9;fill-rule:evenodd;clip-rule:evenodd;fill:#FFFFFF;}
	.st1{fill-rule:evenodd;clip-rule:evenodd;fill:#81211C;}
	.st2{fill-rule:evenodd;clip-rule:evenodd;fill:#EB2026;}
	.st3{fill-rule:evenodd;clip-rule:evenodd;fill:#8BC53F;}
	.st4{fill-rule:evenodd;clip-rule:evenodd;fill:#FFFFFF;}
	.st5{fill-rule:evenodd;clip-rule:evenodd;fill:#D1E187;}
]]>
</style>
<rect class="st0" width="38" height="24"/>
<g>
	<path class="st4" d="M11.7,7.1h2.8c0.9,0,1.6,0.7,1.6,1.6v4.6c0,0.9-0.7,1.6-1.6,1.6h-2.8c-0.9,0-1.6-0.7-1.6-1.6V8.7
		C10.1,7.9,10.8,7.1,11.7,7.1L11.7,7.1z"/>
	<path class="st5" d="M15.4,21.7h-4.7c-0.7,0-1.3-0.6-1.3-1.3V6.6c0-0.7,0.6-1.3,1.3-1.3h4.7c0.1,0,0.1,0,0.2,0v-1
		c0-0.3,0.2-0.5,0.5-0.5l0,0c0.3,0,0.5,0.2,0.5,0.5V6c0,0.1,0,0.1,0,0.2c0,0.1,0,0.2,0,0.3v13.9C16.7,21.2,16.1,21.7,15.4,21.7
		L15.4,21.7z M11.7,7.1h2.8c0.9,0,1.6,0.7,1.6,1.6v4.6c0,0.9-0.7,1.6-1.6,1.6h-2.8c-0.9,0-1.6-0.7-1.6-1.6V8.7
		C10.1,7.9,10.8,7.1,11.7,7.1L11.7,7.1z"/>
	<path class="st3" d="M17.8,7.4l3,0c1.1,0.1,1.6,1,1.6,2.2c-0.1,1.2-0.8,1.8-1.9,1.9l-1.1,0l0,3.3h-1.6V7.4L17.8,7.4z M19.4,8.2
		c0.7-0.1,1.3,0.1,1.4,1.3c0,1.1-0.6,1.3-1.4,1.3V8.2L19.4,8.2z"/>
	<path class="st3" d="M25.2,7.3l1.9,0l0,0.8l-1.5,0c-0.9,0.2-0.7,1.1-0.7,1.8l2,0l0,1l-2,0l0,2.4c0.1,0.6,0.4,1,1,1l1.1,0l0.3,0
		l0,0.8l-0.3,0l-2,0c-0.7,0-1.3-0.4-1.5-1.5l0-4.7C23.4,7.9,24,7.4,25.2,7.3L25.2,7.3z"/>
	<path class="st3" d="M27.8,9.4c-0.1-1.6,0.8-1.9,1.8-2.1c1.3-0.1,2.1,0.5,2.2,1.8l-1.5,0c-0.1-0.7-0.6-0.9-1.1-0.6
		c-0.7,0.8,1.5,2.3,2.1,2.9c1.1,0.9,0.9,3.3-0.8,3.8l-1,0c-1.1,0-1.7-0.6-1.9-1.9l1.5,0c0.1,0.5,0.3,0.9,0.8,0.8
		c0.7-0.1,1-0.8,0.4-1.6C29.3,11.5,28,10.6,27.8,9.4L27.8,9.4z"/>
	<path class="st3" d="M1.5,7.1h1.6l0,0.5c1-0.4,1.7-0.7,2.4,0C6.9,6.9,7.9,7,8.4,8.2l0.1,6.6H6.9V8.5C6.7,7.9,6.3,7.8,5.8,7.9v6.9
		H4.2V8.5C4.1,7.9,3.6,7.8,3.1,7.9v6.9H1.5V7.1L1.5,7.1z"/>
	<path class="st3" d="M32.8,15h1.6v-4.1h1.4V15h1.6V9.2c0-1.2-0.9-1.9-2.2-1.9c-1.5,0-2.3,0.7-2.4,1.9V15L32.8,15z M34.4,8.8
		c0.1-0.4,0.2-0.6,0.7-0.7c0.5,0,0.7,0.3,0.7,0.7V10h-1.4V8.8L34.4,8.8z"/>
	<path class="st1" d="M11.4,10.2c0.3,0.6,0.6,0.9,1.1,0.9c-0.7,0.5-1.5,0.8-2.2,1c-0.5,0-1-0.2-1.4-0.3
		C9.9,11.7,10.8,11.1,11.4,10.2L11.4,10.2z"/>
	<path class="st2" d="M14.4,8.6l3.3,1.7c-1.7,2.2-4.5,2.3-7.5,2C12.2,11.7,13.6,10.5,14.4,8.6L14.4,8.6z"/>
</g>
</svg>
