<svg version="1" xmlns="http://www.w3.org/2000/svg" x="0" y="0" width="38" height="24"  viewBox="0 0 38 24" xml:space="preserve" role="img" aria-labelledby="pi-mpesa"><title id="pi-mpesa">MPESA</title><rect x="4" y="0" fill="#FFF" width="38" height="24"/><path fill="none" d="M23 7v3l2-2-2-1z"/><path fill="none" d="M40 7h-1v2h2V8l-1-1z"/><path fill="#FFF" d="M15 10z"/><path fill="#FFF" d="M18 6h-3l-2 1v3l2-1 1 1 2-3 2 1V7l-2-1z"/><path fill="#FFF" d="M13 11v1l2 2h3l2-2v-2l-6 1h-1z"/><path fill="#FFF" d="M14 11z"/><path fill="#FFF" d="M16 10z"/><path fill="#D1E187" d="M20 12l-2 2h-3l-2-2v-1 9l1 1h5l1-1V10v2z"/><path fill="#D1E187" d="M13 7l2-1h3l2 1v2-6a1 1 0 0 0-1 0v1h-5l-1 1v5-3z"/><path fill="#8BC53F" d="M25 6h-4v8h2v-4h1c2 0 2 0 2-2l-1-2zm-2 4V7l2 1-2 2z"/><path fill="#8BC53F" d="M30 13l-1-1v-2h2V9h-2l1-2h1V6h-2c-1 0-2 0-2 2v5l2 1h3v-1h-2z"/><path fill="#8BC53F" d="M34 7l1 1h1c0-2-1-2-2-2s-2 0-2 2l3 3-1 2v-1h-2c0 2 1 2 2 2h1c2 0 2-3 1-4-1 0-3-2-2-3z"/><path fill="#8BC53F" d="M8 6H4v8h2V7h1v7h2V7h1v7h2l-1-7c0-1-1-2-3-1z"/><path fill="#8BC53F" d="M40 6c-2 0-3 1-3 2v6h2v-4h2v4h1V8l-2-2zm1 3h-2V7h1l1 1v1z"/><path fill="#82231C" d="M14 11a6 6 0 0 0 2-1l-1-1-2 1-1 1h2z"/><path fill="#EA2429" d="M20 8l-2-1-2 3a4 4 0 0 1-1 0 5 5 0 0 1-1 1l6-1a5 5 0 0 0 1-1h-1V8z"/></svg>