<svg width="38" height="24" aria-labelledby="pi-multibanco" xmlns="http://www.w3.org/2000/svg"><title id="pi-multibanco">Multibanco</title><path opacity=".07" d="M35 0H3C1.3 0 0 1.3 0 3v18c0 1.7 1.4 3 3 3h32c1.7 0 3-1.3 3-3V3c0-1.7-1.4-3-3-3z"/><path fill="#fff" d="M35 1c1.1 0 2 .9 2 2v18c0 1.1-.9 2-2 2H3c-1.1 0-2-.9-2-2V3c0-1.1.9-2 2-2h32"/><path d="M18.867 15.68c-5.839 0-11.678-.003-17.518.008-.289.001-.348-.056-.347-.346.016-2.38.014-4.759.001-7.14-.001-.252.052-.302.304-.302 11.735.007 23.469.007 35.204 0 .253 0 .305.05.303.302a781.754 781.754 0 000 7.183c.002.252-.05.303-.303.303-5.881-.01-11.763-.008-17.644-.008z" fill="#fefefe"/><path d="M4.821 10.888c-.38.778-.591 1.49-.84 2.187-.074.207-.134.41-.401.42-.297.011-.358-.223-.434-.435-.205-.568-.402-1.137-.615-1.701-.046-.122-.06-.278-.231-.353-.092.747-.189 1.48-.269 2.215-.025.226-.083.393-.339.384-.293-.01-.277-.225-.252-.428.117-.935.235-1.87.358-2.804.024-.179.047-.375.296-.392.232-.017.424.052.524.272.207.461.4.926.607 1.388.118.265.172.559.361.823.301-.721.533-1.439.878-2.11.093-.182.193-.346.421-.368.24-.025.408.031.442.316.113.964.237 1.925.361 2.887.026.198.037.383-.22.413-.257.03-.338-.134-.365-.358-.086-.748-.178-1.496-.282-2.356z" fill="#010101"/><path d="M5.99 11.771c0-.465.009-.929-.004-1.393-.007-.291.114-.41.401-.403.38.009.762-.007 1.142.004.878.025 1.315.706.949 1.498-.078.17-.004.214.093.302.353.318.44.719.279 1.151-.165.437-.515.662-.98.676-.493.014-.987-.001-1.48.006-.282.003-.41-.11-.402-.404.011-.478.002-.958.002-1.437z"/><path d="M12.459 12.343c.24-.568.449-1.16.762-1.704.077-.134.14-.277.32-.307.221-.037.393-.011.429.26.104.78.215 1.558.319 2.338.023.174.032.366-.209.377-.225.01-.257-.178-.28-.351-.063-.473-.122-.947-.186-1.42-.015-.107.011-.227-.108-.324-.313.508-.481 1.07-.677 1.619-.072.202-.097.471-.402.467-.304-.005-.324-.281-.393-.48-.19-.541-.365-1.086-.72-1.674-.085.622-.157 1.153-.232 1.684a1.816 1.816 0 01-.066.328c-.04.122-.137.178-.266.148-.123-.028-.196-.111-.178-.243.111-.85.223-1.7.338-2.549.018-.133.128-.18.246-.192.201-.019.348.059.448.242.29.53.533 1.08.743 1.647.017.045.001.112.112.134z" fill="#010101"/><path d="M5.18 15.512c-1.057 0-2.114.001-3.171-.001-.621-.002-.944-.471-.736-1.057.055-.154.159-.228.321-.21.169.02.266.146.244.291-.058.382.151.403.444.402 1.96-.008 3.919-.006 5.878-.002.276.001.522.009.453-.391-.025-.151.059-.274.232-.296.166-.021.262.063.324.209.221.525-.117 1.051-.691 1.054-1.1.004-2.2.001-3.298.001z" fill="#3b75c4"/><path d="M22.717 11.781c0-.379.004-.759-.001-1.138-.002-.204.076-.328.291-.325.394.003.791-.019 1.18.025.616.07.92.601.676 1.163-.066.149-.048.211.058.311.27.253.364.562.224.917-.151.382-.455.563-.851.577-.407.015-.816-.003-1.224.007-.256.006-.357-.112-.354-.356.004-.394 0-.788.001-1.181z" fill="#010101"/><path d="M5.242 8.076c.776 0 1.55-.002 2.326.001.592.001.931.37.9.964-.009.158-.054.278-.225.306-.18.029-.338-.048-.343-.226-.013-.445-.283-.462-.628-.459-1.395.012-2.79.013-4.185-.001-.305-.004-.484.068-.518.393-.019.186-.113.328-.331.293-.243-.039-.254-.213-.235-.415.058-.611.313-.855.914-.856h2.325z" fill="#3a75c3"/><path d="M30.869 12.393v-1.67c0-.186-.017-.4.251-.393.237.006.229.21.228.379-.006.702-.012 1.405-.031 2.107-.005.177.103.422-.184.49-.26.061-.411-.095-.55-.295-.368-.53-.75-1.051-1.13-1.573-.079-.109-.174-.206-.333-.39 0 .685.002 1.268-.001 1.85 0 .176.044.408-.229.407-.261-.001-.244-.217-.241-.404l.02-2.192c.002-.167-.033-.361.195-.406.189-.037.35.026.475.193.476.643.96 1.279 1.441 1.918l.089-.021zm-2.606.599c.023.163-.021.287-.197.315-.18.028-.242-.103-.287-.246-.079-.254.067-.625-.219-.751-.224-.099-.527-.026-.795-.022-.19.003-.413.012-.42-.232-.008-.275.231-.266.434-.262.07.002.143.01.21-.002.194-.034.493.119.563-.084.077-.222-.052-.497-.232-.691-.189-.203-.422-.269-.69-.164-.285.11-.398.346-.445.619-.076.443-.141.888-.211 1.332-.015.097-.03.195-.051.29-.03.141-.113.234-.265.21-.146-.022-.223-.122-.198-.271.112-.664.127-1.348.346-1.99.161-.473.589-.736 1.078-.727.486.009.867.259 1.032.73.217.629.212 1.301.347 1.946zm5.765-1.195c0-.969.399-1.456 1.214-1.482.827-.026 1.32.435 1.352 1.262.005.113.002.225.001.337-.004.92-.455 1.406-1.301 1.401-.816-.006-1.264-.497-1.266-1.391v-.127z" fill="#010101"/><path d="M17.005 11.448c0 .225.006.449-.001.675a1.22 1.22 0 01-1.224 1.192 1.212 1.212 0 01-1.211-1.162c-.018-.491-.003-.984-.005-1.476 0-.183.025-.357.259-.346.199.009.237.163.237.334-.001.449-.005.899.001 1.348.007.486.301.799.734.794.414-.005.705-.31.715-.772.009-.449.005-.899.001-1.348-.002-.186.029-.359.252-.359.227 0 .249.177.245.36-.007.253-.003.507-.003.76zm14.739.335c0-1.193.687-1.73 1.868-1.464.138.032.241.094.24.247-.002.182-.124.226-.284.23-.254.004-.508.002-.759.033-.51.064-.632.36-.571 1.327.027.411.258.636.672.651.211.007.421.012.633.013.176.001.316.052.305.257-.009.171-.127.238-.289.237-.281-.003-.565.018-.844-.014-.539-.061-.938-.509-.968-1.055-.011-.153-.003-.308-.003-.462z" fill="#020202"/><path d="M19.966 12.003c0-.31-.012-.62.004-.929.011-.218-.058-.307-.284-.282-.153.017-.309.001-.464 0-.145 0-.253-.061-.265-.212-.013-.151.079-.251.223-.253.677-.009 1.353-.01 2.029-.006.149.001.237.099.228.248-.008.148-.106.202-.253.228-.247.042-.587-.151-.724.124-.101.204-.026.497-.027.75-.002.437-.001.873-.001 1.31 0 .167-.028.331-.238.324-.198-.006-.235-.156-.232-.329.009-.325.004-.649.004-.973z" fill="#050505"/><path d="M17.392 11.401c0-.267-.007-.535.003-.802.005-.154.078-.282.254-.273.177.009.219.135.22.297.003.492.014.984.027 1.476.013.497.228.708.73.72.212.006.424-.007.635.01.145.011.221.113.211.263-.009.132-.09.215-.217.214-.35-.002-.705.059-1.05-.042-.468-.138-.746-.479-.79-.98-.025-.294-.029-.589-.042-.884a.115.115 0 00.019.001z" fill="#040404"/><path d="M22.268 11.835c0 .393-.002.787.001 1.18 0 .159-.048.288-.224.293-.172.005-.254-.12-.255-.275-.005-.815-.005-1.628-.001-2.443.001-.157.08-.276.257-.267.178.008.226.128.224.292-.006.407-.002.814-.002 1.22z" fill="#090909"/><path d="M6.526 11.76c0-.112-.008-.225.001-.336.024-.29-.134-.729.077-.834.296-.145.712-.082 1.071-.048a.44.44 0 01.413.496c-.023.249-.198.394-.454.415-.112.009-.224.005-.337.002-.199-.005-.385.03-.392.273-.008.271.196.303.407.305.169.001.337-.002.506.001.327.006.548.158.558.497.01.323-.221.485-.508.508-.377.029-.758.003-1.137.011-.179.003-.207-.089-.205-.238.003-.351 0-.701 0-1.052z" fill="#fdfdfd"/><path d="M23.197 11.783v-.253c0-.766.157-.892.923-.731.194.041.342.139.344.363.001.226-.153.321-.347.354-.124.021-.253.01-.38.011-.149.002-.25.082-.269.218-.023.173.11.255.255.276.152.022.309.011.463.009.28-.002.533.06.523.399-.008.301-.233.372-.504.379-1.008.031-1.008.034-1.008-1.025z" fill="#fbfbfb"/><path d="M36.116 11.804c0 .674-.18.959-.637 1.003-.669.065-.963-.202-.971-.88-.005-.423-.054-.869.456-1.067.676-.263 1.152.13 1.152.944z" fill="#fdfdfd"/></svg>