<svg xmlns="http://www.w3.org/2000/svg" width="38" height="24" fill="none" aria-labelledby="pi-mybank" role="img" viewBox="0 0 38 24"><title id="pi-mybank">mybank</title><path fill="#fff" d="M0 0h38v24H0z"/><path fill="#204866" d="M24.468 9.969c-1.117-.009-1.64.62-1.64.62-.338.353-.12.826.213.863.479.052.474-.34 1.208-.514.643-.152.672.43.672.43-2.744-.068-2.613 2.185-1.681 2.662.894.458 1.735-.118 1.735-.118s.03.311.474.311c.507 0 .507-.495.507-.495v-2.191c-.038-1.604-1.488-1.568-1.488-1.568m-.218 3.174s-.72.142-.71-.359c.005-.5 1.31-.472 1.44-.43 0-.004.043.567-.73.789m9.085.194-1.12-1.649.82-.76s.383-.345.068-.685c-.343-.377-.758-.004-.758-.004l-1.034.94V9.293a.497.497 0 0 0-.503-.49.497.497 0 0 0-.503.491v4.435c0 .269.223.49.503.49a.497.497 0 0 0 .503-.49v-1.181l.188-.184 1.015 1.554s.328.538.817.193c.367-.26.004-.774.004-.774m-3.571-1.804c0-1.6-1.367-1.827-2.295-1.317v.004a.51.51 0 0 0-.479-.335.507.507 0 0 0-.512.5v3.34c0 .273.227.5.512.5.28 0 .513-.222.513-.5l-.005-2.253s.125-.142.323-.284c.479-.33.933-.217.933.35l.015 2.196c0 .274.227.491.502.491a.5.5 0 0 0 .503-.491z"/><path fill="#27BCED" d="M15.059 14.286c.116-.188.135-.325.135-.325l-1.155-2.952s-.207-.571.251-.741c.489-.18.667.278.701.373.039.094.73 1.898.73 1.898l.667-1.894s.193-.59.724-.377c.44.174.212.75.212.75s-.681 1.974-1.256 3.405c-.343.855-.633.94-.967 1.02-.443.11-1.289.052-1.289-.486 0-.43.45-.453.652-.449.02 0 .435.038.595-.222m-2.682-4.958-1.053 2.847-1.15-2.833s-.17-.534-.653-.534c-.556 0-.536.43-.55.534s0 4.425 0 4.425-.006.453.502.453c.522 0 .497-.458.502-.458s0-2.28 0-2.28l.846 2.28s.126.449.517.44.503-.44.503-.44l.71-2.276v2.276s0 .458.512.458c.498 0 .498-.458.498-.458V9.347s0-.539-.541-.539c-.445.005-.614.425-.643.52q-.006.017-.005.019Z"/><path fill="#27BCED" d="M33.5 15.963H18.046l.004.005a7.11 7.11 0 0 1-5.364 2.422c-3.895 0-7.05-3.084-7.05-6.89s3.155-6.89 7.05-6.89c2.156 0 4.089.95 5.379 2.437h1.416A8.22 8.22 0 0 0 12.686 3.5c-4.523 0-8.186 3.584-8.186 8s3.663 8 8.186 8a8.25 8.25 0 0 0 5.997-2.564l14.14-.015z"/><path fill="#204866" d="M21.646 11.32c.029-.037.367-.306.338-1.024-.053-1.45-1.343-1.436-1.628-1.44-.46-.015-.735-.01-1.58 0-.716.004-.706.637-.706.637v4.727h2.402c1.285 0 1.763-.69 1.763-1.657 0-.973-.59-1.242-.59-1.242m-2.541-1.464h1.329c.266.004.546.146.546.533 0 .406-.242.534-.546.534h-1.33zm1.42 3.4h-1.42V11.93h1.42c.344.019.677.189.677.66 0 .487-.305.667-.677.667"/></svg>