<svg width="28" height="18" viewBox="0 0 28 18" version="1.1" aria-labelledby="pi-mybank" xmlns="http://www.w3.org/2000/svg"><title id="pi-mybank">mybank</title><g id="第四版" stroke="none" stroke-width="1" fill="none" fill-rule="evenodd"><g id="画板" transform="translate(-42 -296)"><g id="mybank" transform="translate(43 297)"><rect id="矩形" stroke-opacity=".07" stroke="#000" fill="#FFF" x="-.5" y="-.5" width="27" height="17" rx="2"/><g id="mybank-logo-vector" transform="translate(4 3)" fill-rule="nonzero"><g id="编组" transform="translate(11.258 3.315)" fill="#204866"><path d="M1.136.729C.443.723.119 1.116.119 1.116c-.21.221-.075.516.132.54.297.032.294-.213.75-.322.399-.094.417.269.417.269C-.286 1.56-.205 2.969.374 3.267c.555.287 1.077-.073 1.077-.073s.018.194.294.194c.315 0 .315-.31.315-.31V1.71C2.036.706 1.136.73 1.136.73M1 2.713S.554 2.8.56 2.488c.003-.313.813-.295.894-.268 0-.003.027.354-.453.493" id="形状"/><path d="M6.64 2.834l-.696-1.03.51-.476s.237-.215.042-.428C6.283.664 6.025.897 6.025.897l-.642.588V.307A.31.31 0 005.071 0a.31.31 0 00-.312.307v2.772a.31.31 0 00.312.306.31.31 0 00.312-.306V2.34l.117-.115.63.97s.204.337.507.122c.228-.163.003-.484.003-.484" id="路径"/></g><g id="编组" transform="translate(5.78 3.99)"><path d="M9.901 1.03c0-1-.849-1.142-1.424-.823V.21A.314.314 0 008.18 0a.316.316 0 00-.318.313V2.4c0 .17.14.313.318.313a.316.316 0 00.318-.313L8.495.992s.078-.089.2-.177c.298-.207.58-.136.58.218l.008 1.373a.31.31 0 00.312.307.311.311 0 00.312-.307L9.901 1.03z" id="路径" fill="#204866"/><path d="M.774 2.75c.072-.117.084-.203.084-.203L.14.702S.012.345.297.24C.6.127.711.413.732.472c.024.06.453 1.187.453 1.187L1.599.475s.12-.369.45-.236c.273.11.132.47.132.47s-.423 1.233-.78 2.127c-.213.535-.393.588-.6.638C.525 3.542 0 3.506 0 3.17c0-.269.279-.283.405-.28.012 0 .27.023.369-.14" id="路径" fill="#27BCED"/></g><g id="编组" fill="#27BCED"><path d="M4.89 3.642l-.655 1.78-.714-1.77s-.105-.334-.405-.334c-.344 0-.332.268-.341.333-.01.065 0 2.766 0 2.766s-.003.283.311.283c.324 0 .31-.286.312-.286.003 0 0-1.426 0-1.426l.525 1.426s.078.28.321.274c.243-.006.312-.274.312-.274l.441-1.423v1.423s0 .286.318.286c.31 0 .31-.286.31-.286v-2.76s0-.336-.337-.336c-.276.003-.38.265-.399.324-.003.006-.003.012-.003.012" id="路径"/><path d="M18 7.79H8.408l.003.002a4.401 4.401 0 01-3.33 1.514C2.664 9.306.705 7.38.705 5S2.664.694 5.08.694c1.338 0 2.538.593 3.339 1.523h.878A5.092 5.092 0 005.081 0C2.274 0 0 2.24 0 5s2.274 5 5.081 5c1.473 0 2.796-.62 3.723-1.603l8.776-.009.42-.599z" id="路径"/></g><path d="M10.642 4.888c.018-.024.228-.192.21-.64-.033-.907-.834-.898-1.01-.9-.286-.01-.457-.007-.981 0-.444.002-.438.398-.438.398V6.7h1.49c.798 0 1.095-.43 1.095-1.036 0-.608-.366-.776-.366-.776m-1.578-.915h.825c.165.003.34.091.34.333 0 .254-.15.334-.34.334h-.825v-.667zm.882 2.125h-.882v-.83h.882c.213.012.42.119.42.414 0 .304-.189.416-.42.416" id="形状" fill="#204866"/></g></g></g></g></svg>