<svg xmlns="http://www.w3.org/2000/svg" fill="none" viewBox="0 0 38 24" height="24" width="38" aria-labelledby="pi-myfatoorah" role="img"><title id="pi-myfatoorah">MyFatoorah</title><path fill="#fff" d="M0 0h38v24H0z"/><path fill="#50B2E4" d="M7.5 14.8H2.9v.8h4.6v-.8Zm0-1.4H2.9v.8h4.6v-.8Zm0-1.4H2.9v.8h4.6V12Zm2.3-1.4H2.9v.8h6.9v-.8Zm0-1.4H2.9v.8h6.9v-.8Zm2.3-1.4H2.9v.8h9.2v-.8Zm0-1.4H2.9v.8h9.2v-.8Zm0-1.4H2.9v.8h9.2V5Z"/><path fill="#010101" d="M12.1 10.6h.8v.3c.2-.2.5-.4.8-.4.4 0 .7.2.9.5.2-.3.5-.5.9-.5.8 0 1.1.5 1.1 1.2v1.8h-.8v-1.7c0-.4-.2-.6-.5-.6s-.5.2-.5.7v1.6H14v-1.7c0-.4-.2-.6-.5-.6s-.5.2-.5.7v1.6h-.8l-.1-2.9Zm5.8 2.9-1.2-2.9h.9l.7 1.8.7-1.8h.8L18.1 15h-.8l.6-1.5Zm-5.8 1h2.5v.8h-1.7v1h1.7v.8h-1.7v1.8h-.8v-4.4Zm5.1 2.9c0-.4-.3-.8-.8-.8s-.8.3-.8.8.3.8.8.8c.4 0 .8-.4.8-.8Zm-2.4 0c0-1.1.8-1.6 1.4-1.6.4 0 .7.1.9.4v-.3h.9v3h-.8v-.3c-.2.2-.5.4-.9.4-.7 0-1.5-.5-1.5-1.6Zm3.5-1.5h.5v-1h.8v1h.6v.7h-.6v.9c0 .5.1.5.6.5v.8H20c-.9 0-1.3-.3-1.3-1.3v-1h-.5c.1.1.1-.6.1-.6Zm4.3 1.5c0-.4-.3-.8-.7-.8-.4 0-.7.4-.7.8s.3.8.7.8c.3 0 .7-.4.7-.8Zm-2.3 0c0-.9.7-1.6 1.5-1.6s1.5.7 1.5 1.6c0 .9-.6 1.6-1.5 1.6s-1.5-.7-1.5-1.6Zm5.6 0c0-.4-.3-.8-.7-.8-.4 0-.7.4-.7.8s.3.8.7.8c.3 0 .7-.4.7-.8Zm-2.3 0c0-.9.7-1.6 1.5-1.6.9 0 1.5.7 1.5 1.6 0 .9-.6 1.6-1.5 1.6-.8 0-1.5-.7-1.5-1.6Zm3.3-1.5h.8v.5c.2-.3.4-.5.8-.5h.3v.8h-.5c-.4 0-.6.2-.6.8v1.4h-.8v-3Zm4.4 1.5c0-.4-.3-.8-.8-.8s-.8.3-.8.8.3.8.8.8.8-.4.8-.8Zm-2.3 0c0-1.1.8-1.6 1.4-1.6.4 0 .7.1.9.4v-.3h.8v3h-.8v-.3c-.2.2-.5.4-.9.4-.6 0-1.4-.5-1.4-1.6Zm3.5 1.5V15h.9v1.6c.1-.3.4-.5.9-.5s.9.3.9 1v1.8h-.9v-1.5c0-.3-.2-.5-.4-.5-.3 0-.4.2-.4.5v1.5h-1Z"/></svg>