<?xml version="1.0" encoding="UTF-8"?>
<svg id="Layer_1" xmlns="http://www.w3.org/2000/svg" version="1.1" viewBox="0 0 38 24">
  <!-- Generator: Adobe Illustrator 30.3.0, SVG Export Plug-In . SVG Version: 2.1.3 Build 182)  -->
  <defs>
    <style>
      .st0 {
        fill: #0d1313;
      }
    </style>
  </defs>
  <path class="st0" d="M21.96,9.4c1.24,0,2.32.89,2.32,2.2s-1.09,2.21-2.32,2.21-2.32-.88-2.32-2.21,1.1-2.2,2.32-2.2ZM21.96,12.75c.61,0,1.13-.49,1.13-1.15s-.52-1.15-1.13-1.15-1.13.49-1.13,1.15.53,1.15,1.13,1.15Z"/>
  <path class="st0" d="M24.6,9.4h1.23v.67c.35-.49.8-.67,1.31-.67,1.19,0,1.51.95,1.51,2.02v2.3h-1.23v-2.27c0-.58-.21-1.03-.78-1.03s-.81.45-.81,1.04v2.27h-1.23v-4.32h0Z"/>
  <path class="st0" d="M30.43,9.41h1.17v.96h-1.17v2.06c0,.18.07.37.31.37s.32-.2.32-.4c0-.12-.03-.3-.06-.36h.97c.07.16.1.35.1.5,0,.63-.41,1.26-1.41,1.26-.74,0-1.47-.26-1.47-1.49v-3.86h1.23v.96s.01,0,.01,0Z"/>
  <g>
    <rect class="st0" x="1.32" y="9.4" width="1.23" height="4.32"/>
    <path class="st0" d="M6.31,9.4c-.4,0-1.01.09-1.33.71-.21-.43-.65-.71-1.29-.71-.29,0-.51.09-.72.23v.84c.06-.03.16-.06.29-.06.54,0,.71.45.71,1.03v2.27h1.22v-2.27c0-.57.16-1.04.7-1.04s.71.45.71,1.03v2.27h1.23v-2.3c0-1.07-.32-2.02-1.51-2.02v.02h0Z"/>
  </g>
  <g>
    <rect class="st0" x="12.91" y="9.4" width="1.23" height="4.32"/>
    <path class="st0" d="M17.89,9.4c-.4,0-1.01.09-1.33.71-.21-.43-.65-.71-1.29-.71-.29,0-.51.09-.72.23v.84c.06-.03.16-.06.29-.06.54,0,.71.45.71,1.03v2.27h1.22v-2.27c0-.57.16-1.04.7-1.04s.71.45.71,1.03v2.27h1.23v-2.3c0-1.07-.32-2.02-1.51-2.02v.02h0Z"/>
  </g>
  <g>
    <polygon class="st0" points="9.75 11.36 8.9 9.4 7.67 9.4 9.13 12.77 9.75 11.36"/>
    <polygon class="st0" points="11.23 9.4 8.49 15.55 9.72 15.55 12.46 9.4 11.23 9.4"/>
  </g>
  <g>
    <polygon class="st0" points="33.97 11.36 33.11 9.4 31.89 9.4 33.34 12.77 33.97 11.36"/>
    <polygon class="st0" points="35.44 9.4 32.71 15.55 33.94 15.55 36.68 9.4 35.44 9.4"/>
  </g>
</svg>