<svg xmlns="http://www.w3.org/2000/svg" role="img" viewBox="0 0 38 24" width="38" height="24" aria-labelledby="pi-mytmoney">
    <title id="pi-mytmoney">mytmoney</title>
	<linearGradient id="pi-bg" x1="116.46" y1="-42.74" x2="130.79" y2="-18.18" gradientTransform="translate(-116.98 43.37) rotate(.03) scale(1.05 1.01)" gradientUnits="userSpaceOnUse"><stop offset="0" stop-color="#d3d800"/><stop offset=".5" stop-color="#00a1a2"/><stop offset="1" stop-color="#259fd9"/></linearGradient>
	<rect fill="#FFFFFF" width="38" height="24"/>
	<path fill="url(#pi-bg)" d="M16.8,21.37H1.11C.5,21.37,0,20.87,0,20.25V6.39C0,2.86,2.87,0,6.4,0h15.69c.62,0,1.11,.51,1.11,1.12V14.98c0,3.53-2.87,6.39-6.4,6.39Z"/><g><g><path fill="#FFFFFF" d="M7.5,5.81c-.83,0-1.44,.34-1.62,.45-.17-.12-.69-.45-1.54-.45-1.05,0-2.08,.4-2.13,.42l-.08,.03v3.78h1.48v-2.87c.13-.04,.41-.1,.72-.1,.64,0,.96,.31,.96,.93v2.05h1.49v-2.05c0-.33-.06-.57-.11-.7,.13-.08,.42-.23,.83-.23,.64,0,.96,.31,.96,.93v2.05h1.49v-2.05c0-1.39-.89-2.18-2.44-2.18Z"/><path fill="#FFFFFF" d="M14.23,8.76c-.17,.04-.54,.11-.91,.11-.7,0-1.15-.36-1.15-.93v-1.98h-1.49v1.98c0,1.32,1.03,2.18,2.63,2.18,.32,0,.69-.04,.89-.07-.07,.22-.35,.82-1.32,.82-.75,0-1.29-.34-1.3-.35l-.12-.07-.59,1.03,.09,.07s.76,.58,1.92,.58c1.85,0,2.82-1.12,2.82-2.22v-3.94h-1.48v2.79Z"/><path fill="#FFFFFF" d="M16.98,8.84c-.39,0-.71,.29-.71,.64s.32,.65,.7,.65,.7-.29,.7-.65-.32-.65-.7-.65Z"/><path fill="#FFFFFF" d="M21,8.54l-.14,.09s-.26,.16-.64,.16c-.5,0-.77-.26-.77-.74v-1.46h1.47v-1.12h-1.46v-1.28h-1.44l-.05,3.85c0,1.27,.79,2,2.16,2,.59,0,1.13-.28,1.15-.29l.09-.05-.36-1.17Z"/></g><g><path fill="#FFFFFF" d="M7.18,14.64v1.86h-.87v-1.61c0-.38-.23-.6-.59-.6-.42,0-.68,.32-.68,.75v1.46h-.87v-1.61c0-.38-.23-.6-.58-.6-.43,0-.68,.32-.68,.75v1.46h-.88v-2.96h.88v.51c.22-.36,.57-.54,1.03-.54,.52,0,.89,.25,1.03,.68,.2-.46,.59-.68,1.1-.68,.68,0,1.1,.44,1.1,1.13Z"/><path fill="#FFFFFF" d="M10.95,15.02c0,.9-.66,1.51-1.64,1.51-.98,0-1.64-.61-1.64-1.51,0-.91,.66-1.51,1.64-1.5,.98,0,1.64,.6,1.64,1.51Zm-2.4,0c0,.48,.31,.81,.77,.81s.76-.33,.76-.81-.31-.81-.76-.81-.77,.33-.77,.81Z"/><path fill="#FFFFFF" d="M14.58,14.65v1.86h-.88v-1.61c0-.37-.23-.6-.6-.6-.44,0-.7,.32-.7,.76v1.46h-.88v-2.96h.88v.52c.22-.37,.58-.54,1.06-.55,.68,0,1.12,.44,1.12,1.13Z"/><path fill="#FFFFFF" d="M18.15,15.28h-2.19c.1,.37,.4,.59,.79,.59,.29,0,.56-.11,.77-.31l.46,.45c-.31,.33-.76,.52-1.31,.52-.98,0-1.6-.61-1.6-1.5s.64-1.52,1.57-1.52c1.07,0,1.57,.69,1.5,1.76Zm-.82-.5c-.01-.39-.27-.64-.68-.64s-.65,.25-.72,.64h1.39Z"/><path fill="#FFFFFF" d="M18.99,17.61c-.32,0-.58-.09-.83-.29l.37-.61c.14,.11,.26,.16,.4,.16,.18,0,.32-.09,.4-.26l.09-.16-1.27-2.9h.9l.8,2.03,.72-2.03h.87l-1.34,3.29c-.22,.52-.59,.77-1.12,.77Z"/></g></g>
</svg>