<svg xmlns="http://www.w3.org/2000/svg" width="38" height="24" fill="none" aria-labelledby="pi-n26" role="img" viewBox="0 0 38 24"><title id="pi-n26">N26</title><path fill="#fff" d="M0 0h38v24H0z"/><path fill="#000" d="m12.6 10.7 2.7 3.7h.5V9.6h-.6v3.7l-2.6-3.6v-.1H12v4.8h.6zm7 1.8c1-.5 1.3-1 1.3-1.6 0-.9-.6-1.4-1.5-1.4a2 2 0 0 0-1.7 1v.2l.5.2v-.2a1.2 1.2 0 0 1 1.2-.7c.6 0 1 .4 1 .9 0 .3-.2.6-1 1.1-1.4.8-1.7 1.2-1.8 2v.4H21V14h-2.7c0-.5.3-.7 1.5-1.4Zm4.7-1.2c-.5 0-.9.1-1.2.4 0-1 .5-1.7 1.3-1.7.3 0 .7.1.9.4l.2.1.4-.4-.2-.2a2 2 0 0 0-1.3-.4c-1.2 0-2 1-2 2.6 0 1.8 1 2.4 1.9 2.4 1.1 0 1.7-.8 1.7-1.7 0-1.1-1-1.5-1.7-1.5m1.1 1.5c0 .6-.4 1.2-1.1 1.2-.5 0-1.1-.4-1.2-1.6.2-.2.6-.6 1.2-.6 1 0 1.1.7 1.1 1M12 15.1h3.8v.4H12V15Zm0-6.6h3.8V9H12v-.4Z"/></svg>