<svg xmlns="http://www.w3.org/2000/svg" width="38" height="24" fill="none" aria-labelledby="pi-nationalebioscoopbon" role="img" viewBox="0 0 38 24"><title id="pi-nationalebioscoopbon">Nationale Bioscoop Bon</title><path fill="#000" d="M0 0h38v24H0z"/><path fill="#fff" d="m8.3 9.5-2-2v2h-.6V6.2h.2L7.8 8V6.2h.6v3.3h-.2Zm2.4-3.3 1.6 3.3h-.8l-1-2-1 2h-.7l1.7-3.3zm4 0v.6h-1v2.7h-.6V6.8h-1v-.6zm.7 3.3V6.2h.7v3.3zm4.9-1.7a1.7 1.7 0 1 1-3.4 0 1.7 1.7 0 0 1 3.4 0m-2.8 0a1 1 0 1 0 2.1 0 1 1 0 0 0-2 0Zm5.9 1.7-1.8-2v2h-.7V6.2h.2L23 8V6.2h.7v3.3h-.2Z"/><path fill="#E11B22" d="m26.1 6.2 1.6 3.3H27l-1-2-1 2h-.8L26 6.2h.2Z"/><path fill="#fff" d="M29 8.8h1.2v.7h-2V6.2h.8zm4-2h-1.6v.6h1.3v.7h-1.3v.7H33v.7h-2.2V6.2H33zM9.7 10.4a1 1 0 0 1 .8 1.5 1 1 0 0 1-.6 1.8H9v-3.3h.8Zm0 1.3c.2 0 .4-.2.4-.4a.4.4 0 0 0-.4-.4h-.3v.8zm.2 1.5a.4.4 0 0 0 .4-.4c0-.3-.2-.4-.4-.4h-.5v.8zm1.7.5v-3.3h.7v3.3zm4.7-1.7a1.7 1.7 0 1 1-3.5 0 1.7 1.7 0 0 1 3.5 0m-2.8 0a1 1 0 1 0 2.1 0 1 1 0 0 0-2.1 0m4.1.3c-.1 0-.3 0-.5-.2a1 1 0 0 1-.4-.7c0-.3 0-.5.2-.7s.5-.3.8-.3c.4 0 .7 0 1 .3h.1l-.3.6h-.1a1 1 0 0 0-.7-.3l-.3.1v.2c0 .2 0 .3.4.4.4 0 .6.2.8.5.2.1.3.4.3.6 0 .6-.5 1-1 1a1.8 1.8 0 0 1-1.4-.6l.5-.4c.2.2.5.4.9.3.1 0 .3-.1.3-.3s-.2-.3-.5-.5Zm4-1.1c-.6-.4-1.6 0-1.6.9a1 1 0 0 0 1.7.8l.4.5a1.7 1.7 0 1 1 0-2.7z"/><path fill="#00AEEF" d="M25.8 12a1.7 1.7 0 1 1-3.5 0 1.7 1.7 0 0 1 3.5 0M23 12a1 1 0 1 0 2.1 0 1 1 0 0 0-2.1 0"/><path fill="#fff" d="M31.3 10.4a1 1 0 0 1 0 2h-.4v1.3h-.7v-3.3h1Zm0 1.3a.3.3 0 0 0 0-.6h-.4v.6zm-8.6 2.8a1 1 0 0 1 .8 1.5 1 1 0 0 1-.6 1.8h-1.1v-3.3zm0 1.3c.2 0 .4-.2.4-.4s-.2-.3-.4-.3h-.3v.7zm.2 1.5a.4.4 0 1 0 0-.8h-.5v.8z"/><path fill="#FD0" d="M27.7 16.2a1.7 1.7 0 1 1-3.5 0 1.7 1.7 0 0 1 3.5 0m-2.8 0a1 1 0 1 0 2.1 0 1 1 0 0 0-2 0Z"/><path fill="#fff" d="m30.7 17.8-1.9-2v2h-.6v-3.3h.2l1.8 1.9v-1.9h.7v3.3z"/><path fill="#FD0" d="M25.6 15.6v1.1l1-.5z"/><path fill="#00AEEF" d="M24.4 12.5a.4.4 0 1 0 0-.9.4.4 0 0 0 0 .9m5.2-.5a1.7 1.7 0 1 1-3.5 0 1.7 1.7 0 0 1 3.5 0m-2.8 0a1 1 0 1 0 2.1 0 1 1 0 0 0-2 0Z"/><path fill="#00AEEF" d="M28.3 12.5a.4.4 0 1 0 0-.9.4.4 0 0 0 0 .9"/></svg>