<svg fill="none" viewBox="0 0 38 24" width="38" height="24" role="img" xmlns="http://www.w3.org/2000/svg" xmlns:xlink="http://www.w3.org/1999/xlink" aria-labelledby="pi-nationaleentertainmentcard"><title id="pi-nationaleentertainmentcard">Nationale Entertainment Card</title><radialGradient id="pi-nationaleentertainmentcard-a" cx=".5" cy=".5" gradientTransform="matrix(62.5 0 0 62 -31.344 -19.375)" gradientUnits="userSpaceOnUse" r=".5"><stop offset="0" stop-color="#12c6ff" stop-opacity=".5"/><stop offset="1" stop-opacity=".5"/></radialGradient><linearGradient id="pi-nationaleentertainmentcard-b"><stop offset="0" stop-color="#ff0202"/><stop offset=".15" stop-color="#ff9c01"/><stop offset=".32" stop-color="#fff400"/><stop offset=".475" stop-color="#7ed21c"/><stop offset=".649" stop-color="#b8dbf1"/><stop offset=".817" stop-color="#7f2b89"/><stop offset="1" stop-color="#dd0085"/></linearGradient><linearGradient id="pi-nationaleentertainmentcard-c" gradientTransform="matrix(22.4353 0 0 2.09297 .057 -.016)" gradientUnits="userSpaceOnUse" x2="1" xlink:href="#pi-nationaleentertainmentcard-b"/><linearGradient id="pi-nationaleentertainmentcard-d" gradientTransform="matrix(24.6209 0 0 2.7252 -5.046 -.298)" gradientUnits="userSpaceOnUse" x2="1" xlink:href="#pi-nationaleentertainmentcard-b"/><path fill="#000" d="M35 0H3C1.3 0 0 1.3 0 3v18c0 1.7 1.4 3 3 3h32c1.7 0 3-1.3 3-3V3c0-1.7-1.4-3-3-3z"/><path fill="url(#pi-nationaleentertainmentcard-a)" d="M35 0H3C1.3 0 0 1.3 0 3v18c0 1.7 1.4 3 3 3h32c1.7 0 3-1.3 3-3V3c0-1.7-1.4-3-3-3z"/><g clip-rule="evenodd" fill-rule="evenodd"><path d="M0 0v2.072h1.407v-.381H.425v-.493h.891V.83h-.89V.378h.981V0zm3.304 0h-.415v1.31L1.974 0h-.405v2.072h.415V.692l.979 1.38h.34zm.114.378h.665v1.694h.435V.378h.669V0H3.418zM5.298 0v2.072h1.407v-.381h-.982v-.493h.89V.83h-.89V.378h.982V0zM7.52 1.3h-.226v.772h-.428V0h.854c.435 0 .725.233.725.658 0 .33-.182.54-.472.611l.546.803h-.486zM7.295.367v.577h.399c.216 0 .327-.115.327-.287 0-.175-.112-.29-.328-.29zm1.158.01V0h1.768v.378h-.668v1.694h-.436V.378zM10.764 0h.429l.793 2.072h-.439l-.186-.5h-.776l-.182.5H9.97zm.21.52l-.254.688h.506zM12.494 0h-.432v2.072h.432zm1.957 0h-.415v1.31L13.122 0h-.405v2.072h.416V.692l.978 1.38h.341zm1.438 2.072L16.392.72v1.353h.409V0h-.506l-.55 1.461L15.19 0h-.513v2.072h.405V.72l.513 1.353zM17.027 0v2.072h1.407v-.381h-.982v-.493h.89V.83h-.89V.378h.982V0zm3.303 0h-.415v1.31L19.001 0h-.405v2.072h.415V.692l.978 1.38h.341zm.115.378h.665v1.694h.435V.378h.668V0h-1.768z" fill="url(#pi-nationaleentertainmentcard-c)" transform="matrix(1.15 0 0 1.15 5.462 11.787)"/><path d="M1.735.034H1.32v1.31L.405.033H0v2.072h.415V.726l.979 1.38h.34zm1.418 0h.428l.793 2.072h-.438l-.186-.5h-.776l-.182.5H2.36zm.209.52l-.253.688h.506zM4.675.411h.665v1.694h.435V.412h.669V.034H4.675zm2.86-.378h-.433v2.072h.432zm2.629 1.036c0 .617-.405 1.07-.982 1.07-.578 0-.98-.453-.98-1.07 0-.621.402-1.07.98-1.07.577 0 .982.449.982 1.07zm-.436 0c0-.405-.216-.685-.546-.685-.328 0-.54.28-.54.685s.212.685.54.685c.33 0 .546-.28.546-.685zM12.574.034h-.415v1.31l-.915-1.31h-.405v2.072h.415V.726l.979 1.38h.34zm1.418 0h.428l.793 2.072h-.438l-.186-.5h-.776l-.183.5h-.432zm.209.52l-.253.688h.506zm1.637 1.552h1.397v-.381h-.965V.034h-.432zM17.924.034v2.072h1.408v-.381h-.983v-.493h.891V.864h-.89V.412h.982V.034z" fill="url(#pi-nationaleentertainmentcard-d)" transform="matrix(1.15 0 0 1.15 8.912 8.05)"/><path d="M20.7 16.468c0 .73.474 1.23 1.11 1.23.563 0 .908-.33.998-.811h-.493c-.082.221-.23.369-.505.369-.38 0-.605-.338-.605-.788 0-.454.225-.788.605-.788.276 0 .423.147.505.365h.493c-.09-.478-.435-.808-.998-.808-.636 0-1.11.501-1.11 1.23zm3.54-1.192h.493l.912 2.383h-.504l-.214-.574h-.893l-.21.574h-.496zm.24.598l-.29.792h.582zm2.637.897h-.26v.888h-.493v-2.383h.982c.5 0 .834.268.834.757 0 .38-.21.621-.543.703l.628.923h-.558zm-.26-1.072v.664h.458c.248 0 .376-.132.376-.33 0-.202-.128-.334-.376-.334zm2.616 1.522h.33c.454 0 .702-.291.702-.753 0-.466-.248-.757-.702-.757h-.33zm-.493.438v-2.383h.842c.722 0 1.176.466 1.176 1.192s-.454 1.191-1.176 1.191z" fill="#fff"/></g></svg>