<svg width="38" height="24" viewBox="0 0 38 24" fill="none" xmlns="http://www.w3.org/2000/svg" role="image" aria-labelledby="pi-natwest"><title id="pi-natwest">Natwest</title><rect width="38" height="24" rx="2" fill="#fff"/><rect x=".5" y=".5" width="37" height="23" rx="1.5" stroke="#000" stroke-opacity=".07"/><g clip-path="url(#clip0_11_14)"><path fill-rule="evenodd" clip-rule="evenodd" d="M27 12.5c0 6.96-.539 7.5-7.491 7.5-6.97 0-7.509-.54-7.509-7.5S12.539 5 19.491 5C26.444 5 27 5.54 27 12.5z" fill="#3C1053"/><path d="M21.723 14.163H18.75l1.478 2.581h2.99l-1.495-2.58z" fill="#E90000"/><path d="M23.217 11.564l1.495 2.6-1.495 2.58-1.494-2.58 1.494-2.6z" fill="#C20000"/><path d="M20.975 7.692h-2.972l-1.495 2.582h2.973l1.494-2.582z" fill="#E90000"/><path d="M19.48 10.274l1.495 2.581 1.495-2.581-1.495-2.582-1.495 2.582z" fill="#C20000"/><path d="M17.256 14.146l1.477-2.582h-2.972l-1.495 2.582v.017l2.99-.017z" fill="#E90000"/><path d="M18.75 16.744h-2.989l-1.495-2.58v-.018h2.99l1.494 2.598z" fill="#C20000"/><path d="M21.723 11.564l-.748 1.291H19.48l-.73 1.308h2.973l1.495-2.599h-1.495z" fill="url(#paint0_linear_11_14)"/><path d="M17.256 11.564h1.477l.747 1.291h1.495l-1.495-2.581h-2.972l.748 1.29z" fill="url(#paint1_linear_11_14)"/><path d="M19.48 15.436l-.73-1.273.73-1.308-.747-1.29-1.477 2.58 1.494 2.6.73-1.309z" fill="url(#paint2_linear_11_14)"/></g><defs><linearGradient id="paint0_linear_11_14" x1="19.86" y1="12.649" x2="21.731" y2="13.721" gradientUnits="userSpaceOnUse"><stop stop-color="#DC1405" stop-opacity=".1"/><stop offset="1" stop-color="#DC1405" stop-opacity=".6"/></linearGradient><linearGradient id="paint1_linear_11_14" x1="19.687" y1="11.195" x2="18.733" y2="12.325" gradientUnits="userSpaceOnUse"><stop stop-color="#DC1405" stop-opacity=".1"/><stop offset="1" stop-color="#DC1405" stop-opacity=".6"/></linearGradient><linearGradient id="paint2_linear_11_14" x1="18.26" y1="13.015" x2="19.594" y2="14.128" gradientUnits="userSpaceOnUse"><stop stop-color="#DC1405" stop-opacity=".1"/><stop offset="1" stop-color="#DC1405" stop-opacity=".6"/></linearGradient><clipPath id="clip0_11_14"><path fill="#fff" transform="translate(12 5)" d="M0 0h15v15H0z"/></clipPath></defs></svg>