<svg xmlns="http://www.w3.org/2000/svg" width="38" height="24" fill="none" aria-labelledby="pi-naver_pay" role="img" viewBox="0 0 38 24"><title id="pi-naver_pay">Naver Pay</title><path fill="#fff" d="M0 0h38v24H0z"/><path fill="#333" d="M20.2 9.6v2.6h1.4c1 0 1.5-.4 1.5-1.3v-.1c0-.5 0-.8-.3-1l-1.1-.2zm-1-.9h2.5c.4 0 .8 0 1.1.2.3 0 .5.2.7.4l.5.6.1.8v.3l-.1.8a2 2 0 0 1-.5.7l-.7.4-1 .2h-1.6v2.8h-1zm9 4.7H27c-.4 0-.7 0-.8.2l-.3.6v.2c0 .2.1.4.3.5.2.2.4.2.7.2h.6l.5-.3.2-.4.1-.5v-.5ZM26.7 16a2 2 0 0 1-1.4-.4c-.3-.3-.4-.7-.4-1.2v-.2c0-.5.1-.9.4-1.2s.8-.4 1.5-.4h1.4v-.3c0-.4 0-.7-.2-.8q-.3-.3-.9-.3l-.8.1-.8.4-.4-.7.9-.5a3 3 0 0 1 1.1-.2l.8.1.7.4a1.6 1.6 0 0 1 .6 1.3v3.8h-1v-.7c0 .1 0 .2-.2.3l-.3.2a2 2 0 0 1-1 .3m5.9-1.2 1.4-4.4h1l-2.8 7.7-.9-.3.7-1.8-2-5.6h1l1.5 4.4"/><path fill="#00C63B" d="M3 18.6h12.6V6H3z"/><path fill="#fff" d="m10.3 15.2-2-3v3H6.2V9.4h2.1l2 3v-3h2.1v5.8"/></svg>