<svg xmlns="http://www.w3.org/2000/svg" role="img" viewBox="0 0 38 24" width="38" height="24" aria-labelledby="pi-nelo"><title id="pi-nelo">Nelo</title><path fill="#000" d="M35 0H3C1.3 0 0 1.3 0 3v18c0 1.7 1.4 3 3 3h32c1.7 0 3-1.3 3-3V3c0-1.7-1.4-3-3-3z" opacity=".07"/><path fill="#067BF2" d="M35 1c1.1 0 2 .9 2 2v18c0 1.1-.9 2-2 2H3c-1.1 0-2-.9-2-2V3c0-1.1.9-2 2-2h32z"/><path fill="#fff" d="M5.5 9.411h1.376v1.139h.023c.163-.404.466-.712.91-.973.419-.237.932-.356 1.492-.356.35 0 .676.048 1.002.166.326.119.606.285.84.498.233.238.442.522.582.878.14.356.21.783.21 1.28v4.767H10.56v-4.363c0-.356-.047-.64-.14-.878-.094-.237-.21-.45-.373-.593a1.577 1.577 0 00-.537-.332 1.845 1.845 0 00-.63-.095c-.279 0-.559.048-.792.143a1.711 1.711 0 00-.653.45c-.186.214-.326.45-.42.783a3.866 3.866 0 00-.163 1.115v3.818H5.5V9.41zm9.233 4.221c0 .332.07.617.21.878.14.26.326.498.536.688.234.19.49.332.793.426.303.095.606.166.933.166.42 0 .816-.094 1.119-.308.326-.213.606-.474.886-.806l1.05.806C19.49 16.502 18.416 17 17.017 17c-.583 0-1.096-.095-1.562-.308a3.283 3.283 0 01-1.19-.83 3.482 3.482 0 01-.745-1.234 4.745 4.745 0 01-.257-1.541c0-.546.094-1.067.28-1.542.187-.474.443-.877.793-1.233.326-.356.723-.616 1.189-.83.466-.19.956-.308 1.515-.308.653 0 1.19.118 1.633.356.443.237.816.521 1.096.9.28.38.49.783.63 1.258.116.474.186.925.186 1.423v.498c0 .023-5.853.023-5.853.023zm4.384-1.114c0-.309-.07-.593-.14-.854-.093-.26-.21-.498-.397-.688a1.625 1.625 0 00-.652-.45 2.6 2.6 0 00-.91-.166c-.35 0-.653.07-.932.19-.28.118-.513.308-.723.497a2.46 2.46 0 00-.443.688c-.117.261-.163.498-.163.759-.024.024 4.36.024 4.36.024zM21.937 5h1.376v11.834h-1.375V5zm5.177 4.53c-.466.213-.886.474-1.236.83s-.63.759-.816 1.233c-.21.474-.303.972-.303 1.518 0 .545.093 1.043.303 1.517.21.475.466.878.816 1.234.117.118.257.213.373.332l.606-1.233c-.21-.214-.35-.499-.466-.807-.116-.308-.163-.664-.163-1.043 0-.38.047-.712.163-1.044.117-.308.28-.593.467-.806.21-.213.466-.403.746-.522a2.7 2.7 0 011.002-.19c.14 0 .28.024.397.024l.606-1.21a3.535 3.535 0 00-1.003-.142c-.513 0-1.026.095-1.492.309zm4.267.83c-.094-.095-.21-.19-.303-.285l-.63 1.257c.163.213.303.45.42.735.116.309.163.664.163 1.044s-.047.711-.163 1.043c-.117.309-.28.593-.467.807-.21.213-.466.403-.746.521-.303.143-.63.19-1.002.19-.117 0-.21 0-.327-.024l-.606 1.233c.303.072.606.119.91.119.536 0 1.049-.095 1.515-.308.466-.214.886-.475 1.236-.83.35-.356.63-.76.816-1.233.21-.475.303-.973.303-1.518 0-.546-.093-1.044-.303-1.518a3.903 3.903 0 00-.816-1.233z"/></svg>