<svg xmlns="http://www.w3.org/2000/svg" width="38" height="24" fill="none" aria-labelledby="pi-nelo" role="img" viewBox="0 0 38 24"><title id="pi-nelo">Nelo</title><path fill="#067BF2" d="M0 0h38v24H0z"/><path fill="#fff" d="M5.5 9.4h1.4v1.1a2 2 0 0 1 1-1 3 3 0 0 1 1.4-.3c.4 0 .7 0 1 .2l.8.5q.45.3.6.9c.2.3.2.7.2 1.2v4.8h-1.3v-4.4c0-.3 0-.6-.2-.8a1.5 1.5 0 0 0-.9-1H8.1l-.7.5a2 2 0 0 0-.4.8V17H5.5zm9.2 4.2.2 1 .6.6.8.4.9.2a2 2 0 0 0 1.1-.3l1-.8 1 .8A4 4 0 0 1 17 17a3.7 3.7 0 0 1-2.7-1.1c-.4-.4-.6-.8-.8-1.3a4.7 4.7 0 0 1 0-3l.8-1.3A3.6 3.6 0 0 1 17 9.2c.7 0 1.2 0 1.7.3.4.3.8.6 1 1 .3.3.6.7.7 1.2l.2 1.4v.5zm4.4-1-.1-1a1.8 1.8 0 0 0-1-1c-.3-.2-.6-.2-1-.2l-1 .1-.6.5-.5.7-.1.8H19ZM22 5h1.4v11.8H22zm5.2 4.5a4 4 0 0 0-1.2.9 2 2 0 0 0-.8 1.2l-.3 1.5c0 .6 0 1 .3 1.5.2.5.4 1 .8 1.3l.4.3.6-1.2-.5-.8a3 3 0 0 1-.2-1c0-.5 0-.8.2-1.1l.5-.8.7-.6 1-.2h.4l.6-1.1-1-.2zm4.3.9L31 10l-.7 1.2.5.8.1 1-.1 1c-.1.4-.3.6-.5.9l-.7.5-1 .2h-.4l-.6 1.2 1 .1c.5 0 1 0 1.4-.3a4 4 0 0 0 1.3-.8l.8-1.3c.2-.4.3-1 .3-1.5s0-1-.3-1.5c-.2-.5-.5-.9-.8-1.2Z"/></svg>