<svg xmlns="http://www.w3.org/2000/svg" role="img" viewBox="0 0 38 24" width="38" height="24" aria-labelledby="pi-neocuotas"><title id="pi-neocuotas">Neocuotas</title><path fill="#fff" d="M0 0h38v24H0z"/><path d="M9.32 8.06c.2-.68.9-1.08 1.59-.9.71.18 1.06.69 1.28 1.39l1.18 3.17 2.84-6.11C14.85 4.7 13.3 4 11.54 4c-4.72 0-8.55 3.85-8.55 8.6 0 2.7 1.23 5.1 3.17 6.68L9.31 8.06h.01z" fill="#5f249f"/><path d="M14.68 16.12c-.2.68-.9 1.08-1.59.9-.71-.18-1.06-.69-1.28-1.39l-1.18-3.17-2.84 6.11c1.36.91 2.91 1.61 4.67 1.61 4.72 0 8.55-3.85 8.55-8.6 0-2.7-1.23-5.1-3.17-6.68l-3.15 11.22h-.01z" fill="#5f249f"/></svg>