<svg xmlns="http://www.w3.org/2000/svg" width="38" height="24" fill="none" aria-labelledby="pi-nequi" role="img" viewBox="0 0 38 24"><title id="pi-nequi">Nequi</title><path fill="#fff" d="M0 0h38v24H0z"/><path fill="#FD0084" d="M4.6 7H3.3a.3.3 0 0 0-.3.3v1.2c0 .1.1.3.3.3h1.3c.2 0 .3-.2.3-.3V7.3a.3.3 0 0 0-.3-.3"/><path fill="#20001B" d="M12.8 7h-1.1a.3.3 0 0 0-.3.3V12h-.2L8.5 7.2c0-.1 0-.2-.2-.2h-2a.3.3 0 0 0-.2.3v7.4q0 .3.3.3h1.1q.3 0 .3-.3V10c0-.1.1-.2.2 0l2.8 5h2q.3 0 .3-.3V7.3a.3.3 0 0 0-.3-.2Zm7 5.1c0-2-1.3-3.1-2.8-3.1-2 0-3 1.3-3 3.2 0 2 1.3 3 3 3 1.5 0 2.5-.8 2.7-2 0 0 0-.2-.2-.2h-1l-.2.2c-.2.5-.6.7-1.3.7-.8 0-1.3-.5-1.4-1.5h4c.1 0 .2-.1.2-.3m-4.1-.8c.2-.7.6-1 1.2-1s1.1.3 1.2 1zm19-2.1h-1.1a.3.3 0 0 0-.3.2v5.3q0 .3.3.3h1.1q.3 0 .3-.3V9.4a.3.3 0 0 0-.3-.2m-8.6 0h-1.2a.3.3 0 0 0-.3.2v.3A2 2 0 0 0 23 9c-1.7 0-2.6 1.6-2.6 3.2 0 1.4.7 3 2.5 3 .7 0 1.4-.4 1.7-.8v2.3l.3.3h1.2l.3-.3V9.4a.3.3 0 0 0-.3-.2m-2.7 4.7c-.7 0-1.3-.6-1.3-1.8s.6-1.8 1.3-1.8c.8 0 1.3.5 1.3 1.8s-.5 1.8-1.3 1.8m8.9-4.7H31a.3.3 0 0 0-.3.2v3c0 1-.4 1.3-1 1.3-.5 0-1-.3-1-1.3v-3a.3.3 0 0 0-.2-.2h-1.2a.3.3 0 0 0-.3.2v3.2c0 1.8 1 2.6 2.7 2.6s2.7-.8 2.7-2.6V9.4a.3.3 0 0 0-.2-.2Z"/></svg>