<svg xmlns="http://www.w3.org/2000/svg" role="img" viewBox="0 0 38 24" width="38" height="24" aria-labelledby="pi-neteller"><title id="pi-neteller">NETELLER</title><g clip-path="url(#clip0_15_97)"><path d="M35 .001H3c-1.7 0-3 1.3-3 3v18C0 22.7 1.4 24 3 24h32c1.7 0 3-1.3 3-3V3c0-1.7-1.4-3-3-3v.001z" fill="#000" fill-opacity=".07"/><path d="M35 1c1.1 0 2.001.9 2.001 2v18a2.006 2.006 0 01-2 2H3A2.007 2.007 0 011 21V3c0-1.1.9-2 2.001-2h32z" fill="#fff"/><path d="M32.501 9.458c-.382-.303-.961-.456-1.722-.456H28.79l-.74 4.637h-2.607l.168-1.052h1.57l.187-1.183h-1.569l.167-1.046h1.618L27.798 9h-3.28l-.706 4.403h-1.206l.708-4.396h-1.716l-.703 4.396h-1.173l.709-4.396h-1.718l-.74 4.632h-2.627l.166-1.052h1.576l.187-1.173H15.7l.167-1.049h1.64l.215-1.358H7.482L6.9 12.675 5.74 9.007H3.959L3 15h1.7l.581-3.773L6.41 15h6.095l.74-4.635h.955L13.458 15h16.041l.465-2.926.752 2.926h1.702l-.779-2.391.179-.044c.357-.075.68-.295.911-.619.224-.35.337-.778.322-1.213 0-.566-.18-.984-.55-1.275zm-21.478 4.181H8.419l.168-1.052h1.633l.186-1.183H8.789l.156-1.04h2.6l-.522 3.275zm20.08-2.022c-.171.139-.42.206-.759.206h-.336l.258-1.608h.247c.282 0 .487.052.63.159.08.06.143.144.186.242a.71.71 0 01.056.317.883.883 0 01-.065.384.768.768 0 01-.217.3zM34.235 13.294a.721.721 0 01.376.114c.121.072.22.181.286.315a.933.933 0 010 .85.759.759 0 01-.664.427.753.753 0 01-.664-.427.926.926 0 010-.85.752.752 0 01.286-.315.727.727 0 01.38-.114zm0 .14a.63.63 0 00-.548.355.772.772 0 000 .709c.056.11.138.201.237.263a.59.59 0 00.635 0 .64.64 0 00.237-.263.769.769 0 000-.709.617.617 0 00-.239-.263.606.606 0 00-.322-.091zm-.34 1.182V13.7h.283a.614.614 0 01.205.025.21.21 0 01.103.088.263.263 0 01-.026.309.24.24 0 01-.17.084.24.24 0 01.07.048c.046.056.086.117.121.182l.103.18h-.162l-.074-.145a.747.747 0 00-.139-.213.153.153 0 00-.103-.031h-.078v.389h-.133zm.133-.516h.162a.245.245 0 00.157-.038.135.135 0 00.042-.102.131.131 0 00-.02-.072.117.117 0 00-.057-.048.372.372 0 00-.132-.016h-.152v.276z" fill="#76BA0E"/></g><defs><clipPath id="clip0_15_97"><path fill="#fff" d="M0 0h38v24H0z"/></clipPath></defs></svg>