<svg xmlns="http://www.w3.org/2000/svg" role="img" viewBox="0 0 38 24" width="38" height="24" aria-labelledby="pi-neteller"><title id="pi-neteller">NETELLER</title><path fill="#000" d="M35 0H3C1.3 0 0 1.3 0 3v18c0 1.7 1.4 3 3 3h32c1.7 0 3-1.3 3-3V3c0-1.7-1.4-3-3-3" opacity=".07"/><path fill="#fff" d="M35 1c1.1 0 2 .9 2 2v18c0 1.1-.9 2-2 2H3c-1.1 0-2-.9-2-2V3c0-1.1.9-2 2-2z"/><g clip-path="url(#pi-neteller-clip0)"><g clip-path="url(#pi-neteller-clip1)" fill="#255F11"><path d="M10.804 11.514v.003a.1.1 0 01-.03.072l-2.496 2.42a.053.053 0 01-.037.014h-.015a.052.052 0 01-.053-.05v-2.456a.1.1 0 01-.03.072l-2.48 2.404a.107.107 0 01-.075.03h-.003a.107.107 0 01-.074-.03l-2.48-2.404A.1.1 0 013 11.517v-.003a.1.1 0 01.03-.072l2.48-2.404c.02-.02.047-.03.075-.03h.003c.027 0 .054.01.074.03l2.48 2.404a.1.1 0 01.03.072V9.06c0-.028.024-.051.053-.051h.016c.013 0 .027.005.037.015l2.495 2.419a.1.1 0 01.03.072h.001zm23.723-.294a.559.559 0 00-.467.23.882.882 0 00-.17.538v1.83h-.872v-3.306h.873v.433a.762.762 0 01.277-.322.754.754 0 01.413-.111H35v.708h-.474zm-4.957.934c0-.341.07-.64.21-.899.14-.258.325-.455.555-.59.23-.14.473-.21.73-.21h.244c.27 0 .514.072.73.216.221.14.393.333.514.578.122.245.183.513.183.806 0 .105-.005.202-.014.29h-2.28c.028.257.1.458.217.602a.545.545 0 00.427.217h.243c.14 0 .26-.044.358-.131a.564.564 0 00.19-.335h.845a1.182 1.182 0 01-.236.61 1.37 1.37 0 01-.508.414 1.528 1.528 0 01-.663.144h-.23c-.288 0-.547-.072-.777-.217a1.538 1.538 0 01-.542-.61 1.957 1.957 0 01-.196-.885zm2.3-.407a.686.686 0 00-.169-.452.499.499 0 00-.386-.184h-.23a.509.509 0 00-.365.17.945.945 0 00-.237.466h1.387zm-4.814-2.52h.825v4.59h-.825v-4.59zm1.257 0h.825v4.59h-.825v-4.59zm-4.853 2.931c0-.341.07-.64.21-.899.14-.258.325-.455.555-.59.23-.14.473-.21.73-.21h.244c.27 0 .514.072.73.216.221.14.393.333.515.578.121.245.182.513.182.806 0 .105-.004.202-.013.289h-2.28c.027.258.1.46.216.603a.545.545 0 00.427.217h.243c.14 0 .26-.044.359-.131a.564.564 0 00.19-.335h.845c-.023.228-.102.43-.237.61-.13.175-.3.313-.508.413a1.527 1.527 0 01-.662.145h-.23c-.289 0-.548-.072-.778-.217a1.537 1.537 0 01-.541-.61 1.957 1.957 0 01-.197-.885zm2.3-.407a.686.686 0 00-.169-.452.499.499 0 00-.385-.184h-.23a.509.509 0 00-.366.17.944.944 0 00-.236.466h1.386zM22.346 9.36v1.154h.92v.708h-.92v1.528c0 .24.113.361.339.361h.561v.708h-.819c-.306 0-.543-.08-.71-.242-.162-.162-.243-.407-.243-.735v-1.62h-.636v-.708h.636v-.8l.872-.355zm-4.836 2.798c0-.341.07-.64.21-.899a1.49 1.49 0 01.555-.59c.23-.14.473-.21.73-.21h.244c.27 0 .514.072.73.216.221.14.393.333.514.578.122.245.183.513.183.806 0 .105-.005.202-.014.289h-2.28c.028.258.1.46.217.603a.544.544 0 00.426.217h.244c.14 0 .26-.044.358-.131a.564.564 0 00.19-.335h.845c-.022.228-.101.43-.236.61-.131.175-.3.313-.508.413a1.529 1.529 0 01-.663.145h-.23a1.43 1.43 0 01-.778-.217 1.537 1.537 0 01-.54-.61 1.957 1.957 0 01-.197-.885zm2.3-.407a.686.686 0 00-.169-.452.499.499 0 00-.386-.184h-.23a.509.509 0 00-.365.17.944.944 0 00-.237.466h1.387zm-6.369-2.524h1.008l1.59 2.708.237.447.027-.007a1.898 1.898 0 01-.014-.177 7.087 7.087 0 01-.007-.328V9.227h.947v4.59h-1.008l-1.59-2.701a7.997 7.997 0 01-.236-.447l-.027.007a7.432 7.432 0 01.014.505v2.637h-.94V9.227z"/></g></g><defs><clipPath id="pi-neteller-clip0"><path fill="#fff" d="M0 0h38v24H0z"/></clipPath><clipPath id="pi-neteller-clip1"><path fill="#fff" transform="translate(3 9)" d="M0 0h32v5.15H0z"/></clipPath></defs></svg>