<svg xmlns="http://www.w3.org/2000/svg" width="38" height="24" fill="none" aria-labelledby="pi-neteller" role="img" viewBox="0 0 38 24"><title id="pi-neteller">NETELLER</title><path fill="#fff" d="M0 0h38v24H0z"/><path fill="#76BA0E" d="M34.9 9.5c-.5-.3-1.1-.4-2-.4h-2.1l-.8 4.5h-3l.2-1H29l.2-1.2h-1.7l.2-1h1.8l.2-1.3h-3.6l-.8 4.3H24l.8-4.3h-1.9l-.8 4.3H21l.7-4.3h-1.8l-.9 4.5h-2.8l.1-1H18l.2-1.2h-1.7l.1-1h1.8l.3-1.3H7.5l-.7 3.6L5.5 9H3.6l-1 5.8h1.8l.6-3.7L6.3 15H13l.8-4.5h1L14 15h17.6l.5-2.8.8 2.8h1.9l-.9-2.3h.2c.4-.1.7-.3 1-.7.2-.3.4-.7.4-1.1 0-.6-.2-1-.6-1.3Zm-23.6 4.1H8.5l.2-1h1.8l.2-1.2H8.9l.2-1h2.8zm22-2c-.2.2-.4.2-.8.2H32l.3-1.5h.3l.7.1a.6.6 0 0 1 .2.6.8.8 0 0 1-.3.6Z"/></svg>