<svg xmlns="http://www.w3.org/2000/svg" width="38" height="24" fill="none" aria-labelledby="pi-nordea" role="img" viewBox="0 0 38 24"><title id="pi-nordea">Nordea</title><path fill="#fff" d="M0 0h38v24H0z"/><path fill="#0000A0" d="M33 9.9a2.8 2.8 0 0 0-1 5.4l1.2.2a2 2 0 0 0 1.7-.9v.8H36v-2.7a2.7 2.7 0 0 0-3-2.8m1.8 2.9a1.6 1.6 0 0 1-1.8 1.5 1.6 1.6 0 0 1-1.4-1.4 1.6 1.6 0 1 1 3.2-.3zm-7.7-3a2.8 2.8 0 1 0 2.7 4l-1-.4a1.6 1.6 0 0 1-3 .2l4.2-1.2a2.8 2.8 0 0 0-2.9-2.5Zm-1.5 2.8a1.6 1.6 0 0 1 1-1.5 1.5 1.5 0 0 1 2 .7zM17.9 11V9.9a1.7 1.7 0 0 0-1.6.8v-.6h-1.2v5.3h1.3v-2.6a1.6 1.6 0 0 1 1.5-1.8M7 13.2 3.2 9H2v6.4h1.3v-4.3L7 15.4h1.1V9H7v4.3Zm16.7-4.8h-1.1v2a2.4 2.4 0 0 0-1.9-.5 2.8 2.8 0 1 0 1.2 5.4c.3-.1.5-.3.7-.6v.7h1.1zm-1.1 4.4a1.6 1.6 0 0 1-1.8 1.5 1.6 1.6 0 0 1-1.4-1.4 1.6 1.6 0 1 1 3.2-.3zm-10.9-3a2.8 2.8 0 1 0 0 5.7 2.8 2.8 0 0 0 0-5.6Zm0 4.5a1.6 1.6 0 1 1 0-3.2 1.6 1.6 0 0 1 0 3.2"/></svg>