<?xml version="1.0" encoding="UTF-8" standalone="no"?>
<!-- Created with Inkscape (http://www.inkscape.org/) -->

<svg
   xmlns:dc="http://purl.org/dc/elements/1.1/"
   xmlns:cc="http://creativecommons.org/ns#"
   xmlns:rdf="http://www.w3.org/1999/02/22-rdf-syntax-ns#"
   xmlns:svg="http://www.w3.org/2000/svg"
   xmlns="http://www.w3.org/2000/svg"
   xmlns:sodipodi="http://sodipodi.sourceforge.net/DTD/sodipodi-0.dtd"
   xmlns:inkscape="http://www.inkscape.org/namespaces/inkscape"
   version="1.0"
   width="38"
   height="24"
   viewBox="0 0 87.243447 53.04118"
   id="svg2"
   xml:space="preserve"
   sodipodi:version="0.32"
   inkscape:version="0.92pre1 15099"
   sodipodi:docname="nordea.svg"
   inkscape:output_extension="org.inkscape.output.svg.inkscape"><metadata
     id="metadata14"><rdf:RDF><cc:Work
         rdf:about=""><dc:format>image/svg+xml</dc:format><dc:type
           rdf:resource="http://purl.org/dc/dcmitype/StillImage" /><dc:title></dc:title></cc:Work></rdf:RDF></metadata><sodipodi:namedview
     inkscape:window-height="573"
     inkscape:window-width="1043"
     inkscape:pageshadow="2"
     inkscape:pageopacity="0.0"
     guidetolerance="10.0"
     gridtolerance="10.0"
     objecttolerance="10.0"
     borderopacity="1.0"
     bordercolor="#666666"
     pagecolor="#ffffff"
     id="base"
     height="52.94px"
     width="239.12398px"
     inkscape:zoom="8.9539216"
     inkscape:cx="13.372333"
     inkscape:cy="10.578134"
     inkscape:window-x="419"
     inkscape:window-y="123"
     inkscape:current-layer="svg2"
     showgrid="false"
     inkscape:window-maximized="0"
     inkscape:pagecheckerboard="true" /><defs
     id="defs4" /><rect
     style="fill:#ffffff;stroke-width:2.29278612"
     id="rect3668"
     width="87.243446"
     height="55.101124"
     x="0"
     y="-1.0299722" /><path
     d="m 12.766165,28.457356 c 0,2.80411 2.405882,4.76217 5.849534,4.76217 3.443652,0 5.848741,-1.95806 5.848741,-4.76217 0,-2.8041 -2.405089,-4.76232 -5.848741,-4.76232 -3.443811,0 -5.849534,1.95838 -5.849534,4.76232 l 0,0 z m 2.399682,3.2e-4 c 0,-1.6549 1.386395,-2.76722 3.449852,-2.76722 2.063297,0 3.450009,1.11232 3.450009,2.76722 0,1.65442 -1.386554,2.76659 -3.450009,2.76659 -2.063457,1.6e-4 -3.449852,-1.11217 -3.449852,-2.76659 l 0,0 z"
     style="fill:#0065a4"
     id="path6"
     inkscape:connector-curvature="0" /><path
     d="m 27.783615,24.642196 c 0,-0.19681 0,-0.7122 0,-0.7122 l -2.308752,0 0,9.04805 2.330051,0 0,-4.81669 c 0,-0.82395 0.09332,-1.66237 1.205803,-2.06966 0.368341,-0.13512 0.737632,-0.19506 1.197378,-0.19394 l 0.33416,6.3e-4 0,-2.20542 c 0,0 -1.503875,0 -2.75864,0.94923 l 0,0 z"
     style="fill:#0065a4"
     id="path8"
     inkscape:connector-curvature="0" /><path
     d="m 40.035588,20.603036 c 0,0 0,3.63568 0,4.03057 -0.91123,-0.6033 -2.180941,-0.9497 -3.535224,-0.9497 -3.443967,0 -5.849055,1.9579 -5.849055,4.76217 0,2.8041 2.405088,4.76184 5.849055,4.76184 1.350946,0 2.562789,-0.3057 3.536334,-0.86814 0,0.20476 0,0.63414 0,0.63414 l 2.311609,0 0,-4.55455 c 0,0.002 1.61e-4,-0.0191 1.61e-4,-0.0191 l 0,-7.79725 -2.31288,0 0,0 z m -6.985074,7.85464 c 0,-1.6549 1.386394,-2.76722 3.449692,-2.76722 2.0633,0 3.449537,1.11232 3.449537,2.76722 0,1.65442 -1.386237,2.76659 -3.449537,2.76659 -2.063298,1.6e-4 -3.449692,-1.11217 -3.449692,-2.76659 l 0,0 z"
     style="fill:#0065a4"
     id="path10"
     inkscape:connector-curvature="0" /><path
     d="m 55.921018,28.452906 c 0,2.84894 2.333234,4.76249 5.804865,4.76249 1.410875,0 2.694893,-0.24848 3.578141,-0.8637 0,0.24259 0.0011,0.63128 0.0011,0.63128 l 2.313043,0 0,-4.48174 c 0,-2.87755 -2.350087,-4.81081 -5.847945,-4.81081 -3.444125,0 -5.849217,1.95854 -5.849217,4.76248 l 0,0 z m 2.398571,0 c 0,-1.6549 1.386554,-2.76643 3.450484,-2.76643 2.0633,0 3.449376,1.11153 3.449376,2.76643 0,1.65458 -1.386232,2.76643 -3.449376,2.76643 -2.06393,0 -3.450484,-1.11185 -3.450484,-2.76643 l 0,0 z"
     style="fill:#0065a4"
     id="path12"
     inkscape:connector-curvature="0" /><path
     d="m 55.079422,29.356986 c -0.294096,1.45761 -1.28179,2.47185 -2.390939,3.0796 -1.007725,0.5518 -2.110673,0.78087 -3.421714,0.77912 -3.586884,-0.004 -5.830932,-2.18093 -5.830614,-4.70922 0,-2.84735 2.471062,-4.838 5.830614,-4.81511 4.463616,0.0294 5.804387,2.79775 5.903425,4.53214 0,0.003 -8.577016,1.86108 -8.700852,1.88779 0.606794,0.70838 1.570167,1.0915 2.797588,1.10851 1.457454,0.02 2.531314,-0.55418 3.031277,-1.26128 l 2.781215,-0.60155 0,0 z m -9.192554,-1.13745 c 0.288692,-0.0623 6.016928,-1.30373 6.329472,-1.37161 -0.502514,-0.66069 -1.521684,-1.1713 -2.948936,-1.18227 -1.964097,0.0541 -3.284041,1.09468 -3.380536,2.55388 l 0,0 z"
     style="fill:#0065a4"
     id="path14"
     inkscape:connector-curvature="0" /><path
     d="m 9.5444382,32.976456 2.2395968,0.0211 0,-11.15586 -2.3181288,0 0,7.62335 -7.0276748,-7.62891 -2.29619131,0 c 0,0.37597 0.00302,11.16763 0.00302,11.16763 l 2.31765241,0 -0.00223,-7.46358 7.0839507,7.43623 0,0 z"
     style="fill:#0065a4"
     id="path16"
     inkscape:connector-curvature="0" /><path
     d="m 71.994042,20.912076 c -0.571505,-2.07777 -1.498787,-3.83043 -2.626534,-5.041164 7.61587,-1.743287 13.010584,-1.486706 13.762841,0.611565 1.291486,3.602149 -5.735709,10.325069 -11.98013,12.330509 1.286721,-1.64711 1.753939,-4.59175 0.843823,-7.90091 l 0,0 z m 11.818139,-1.39403 c 0.747485,-1.54044 0.915358,-2.916658 0.503145,-4.08701 -0.105236,-0.298231 -0.254673,-0.55815 -0.437174,-0.795813 2.108128,0.300139 3.983521,3.435063 3.39914,6.982843 -0.448301,2.72176 -1.492906,5.10125 -2.638619,6.5142 -1.465878,-0.72492 -4.551049,-0.90042 -8.008689,-0.34148 -0.783098,0.12655 -1.405791,0.25261 -2.115598,0.43193 3.952044,-2.07983 7.781677,-5.58055 9.297795,-8.70467 l 0,0 z"
     style="fill:#ffffff"
     id="path18"
     inkscape:connector-curvature="0" /><path
     d="m 71.994042,20.912076 c 0.910116,3.30916 0.442738,6.2538 -0.843979,7.90106 6.244417,-2.00543 13.271614,-8.72851 11.980126,-12.3305 -0.752256,-2.098271 -6.146968,-2.354852 -13.76284,-0.611565 1.128063,1.210575 2.055347,2.963235 2.626693,5.041005 l 0,0 z"
     style="fill:#0065a4"
     id="path20"
     inkscape:connector-curvature="0" /><path
     d="m 83.812181,19.518046 c 0.747485,-1.54044 0.915358,-2.916658 0.503145,-4.08701 -0.105236,-0.298231 -0.254673,-0.55815 -0.437174,-0.795813 2.108128,0.300139 3.983521,3.435063 3.39914,6.982843 -0.448301,2.72176 -1.492906,5.10125 -2.638619,6.5142 -1.465878,-0.72492 -4.551049,-0.90042 -8.008689,-0.34148 -0.783098,0.12655 -1.405791,0.25261 -2.115598,0.43193 3.952044,-2.07983 7.781677,-5.58055 9.297795,-8.70467 l 0,0 z"
     style="fill:#0065a4"
     id="path22"
     inkscape:connector-curvature="0" /></svg>