<svg xmlns="http://www.w3.org/2000/svg" version="1" width="38" height="24" viewBox="0 0 87.243447 53.04118"><path fill="#fff" stroke-width="2.293" d="M0-1.03h87.243v55.101H0z"/><path d="M12.766 28.457c0 2.804 2.406 4.763 5.85 4.763 3.443 0 5.848-1.959 5.848-4.763s-2.405-4.762-5.848-4.762c-3.444 0-5.85 1.958-5.85 4.762zm2.4 0c0-1.654 1.386-2.767 3.45-2.767 2.063 0 3.45 1.113 3.45 2.768 0 1.654-1.387 2.766-3.45 2.766-2.064 0-3.45-1.112-3.45-2.766zM27.784 24.642v-.712h-2.31v9.048h2.33v-4.817c0-.824.094-1.662 1.207-2.07a3.311 3.311 0 0 1 1.197-.193h.334v-2.205s-1.504 0-2.758.95zM40.036 20.603v4.03c-.912-.603-2.181-.95-3.536-.95-3.444 0-5.849 1.959-5.849 4.763s2.405 4.762 5.85 4.762c1.35 0 2.562-.306 3.536-.868v.634h2.311v-4.555-7.816h-2.312zm-6.985 7.855c0-1.655 1.386-2.768 3.45-2.768 2.063 0 3.449 1.113 3.449 2.768 0 1.654-1.386 2.766-3.45 2.766-2.063 0-3.45-1.112-3.45-2.766zM55.921 28.453c0 2.849 2.333 4.762 5.805 4.762 1.41 0 2.695-.248 3.578-.863l.001.631h2.313v-4.482c0-2.877-2.35-4.81-5.848-4.81-3.444 0-5.849 1.958-5.849 4.762zm2.399 0c0-1.655 1.386-2.767 3.45-2.767 2.063 0 3.45 1.112 3.45 2.767 0 1.654-1.387 2.766-3.45 2.766-2.064 0-3.45-1.112-3.45-2.766zM55.08 29.357c-.295 1.458-1.282 2.472-2.392 3.08-1.007.551-2.11.78-3.421.779-3.587-.004-5.831-2.181-5.83-4.71 0-2.847 2.47-4.838 5.83-4.815 4.463.03 5.804 2.798 5.903 4.533 0 .003-8.577 1.86-8.7 1.887.606.709 1.57 1.092 2.797 1.109 1.457.02 2.531-.554 3.031-1.261l2.781-.602zm-9.193-1.137l6.33-1.372c-.503-.66-1.522-1.171-2.95-1.182-1.964.054-3.284 1.094-3.38 2.554zM9.544 32.976l2.24.022V21.842H9.466v7.623l-7.028-7.629H.142l.003 11.168h2.318L2.46 25.54l7.084 7.436z" fill="#0065a4"/><path d="M71.994 20.912c-.571-2.078-1.499-3.83-2.626-5.041 7.615-1.743 13.01-1.487 13.762.611 1.292 3.603-5.735 10.326-11.98 12.331 1.287-1.647 1.754-4.592.844-7.9zm11.818-1.394c.748-1.54.916-2.917.503-4.087a2.854 2.854 0 0 0-.437-.796c2.108.3 3.984 3.435 3.4 6.983-.449 2.722-1.494 5.101-2.64 6.514-1.465-.725-4.55-.9-8.008-.341a23.42 23.42 0 0 0-2.116.432c3.952-2.08 7.782-5.58 9.298-8.705z" fill="#fff"/><path d="M71.994 20.912c.91 3.31.443 6.254-.844 7.901 6.244-2.005 13.272-8.728 11.98-12.33-.752-2.099-6.147-2.355-13.763-.612 1.128 1.21 2.056 2.963 2.627 5.041z" fill="#0065a4"/><path d="M83.812 19.518c.748-1.54.916-2.917.503-4.087a2.854 2.854 0 0 0-.437-.796c2.108.3 3.984 3.435 3.4 6.983-.449 2.722-1.494 5.101-2.64 6.514-1.465-.725-4.55-.9-8.008-.341a23.42 23.42 0 0 0-2.116.432c3.952-2.08 7.782-5.58 9.298-8.705z" fill="#0065a4"/></svg>