<svg xmlns="http://www.w3.org/2000/svg" width="38" zoomAndPan="magnify" viewBox="0 0 29.016 18.145" height="24" preserveAspectRatio="xMidYMid meet" version="1.0" id="svg33"><defs id="defs11"><clipPath id="d362a6c4a7"><path d="M.484 5.348h29.032v18.144H.484zm0 0" id="path2" clip-rule="nonzero"/></clipPath><clipPath id="bb1d148f2c"><path d="M21 8.484h2.992V11H21zm0 0" id="path5" clip-rule="nonzero"/></clipPath><clipPath id="af2019136d"><path d="M7.297 11H22v8.371H7.297zm0 0" id="path8" clip-rule="nonzero"/></clipPath></defs><g clip-path="url(#d362a6c4a7)" id="g15" transform="translate(-.492 -5.348)"><path d="M27.219 5.348H2.78c-1.297 0-2.289.984-2.289 2.27v13.609c0 1.285 1.067 2.265 2.29 2.265h24.437c1.297 0 2.289-.98 2.289-2.265V7.617c0-1.285-1.067-2.27-2.29-2.27zm0 0" id="path13" fill="#000" fill-opacity=".07" fill-rule="nonzero"/></g><path d="M26.727.758c.84 0 1.527.68 1.527 1.512v13.609c0 .832-.688 1.512-1.527 1.512H2.289c-.84 0-1.527-.68-1.527-1.512V2.269c0-.832.687-1.511 1.527-1.511h24.438" id="path17" fill="#fff" fill-opacity="1" fill-rule="nonzero"/><g clip-path="url(#bb1d148f2c)" id="g21" transform="translate(-.492 -5.348)"><path d="M21.492 9.426a.128.128 0 000 .187l1.414 1.317c.055.054.133.039.188-.012l.843-.957c.055-.055.043-.149-.011-.188l-1.364-1.25c-.05-.054-.144-.054-.183 0zm0 0" id="path19" fill="#067dc8" fill-opacity="1" fill-rule="nonzero"/></g><g clip-path="url(#af2019136d)" id="g25" transform="translate(-.492 -5.348)"><path d="M21.305 12.844l-.766.746h.356v5.433H7.727V13.59h9.304l2.395-2.383H7.316v8.164h13.989zm0 0" id="path23" fill="#858882" fill-opacity="1" fill-rule="nonzero"/></g><path d="M14.95 10.715l.238-.774H8.015v.774zm0 0" id="path27" fill="#858882" fill-opacity="1" fill-rule="nonzero"/><path d="M19.688 11.71h-3.93l-1.324.665.199-.664H7.91v.797h11.777zm0 0" id="path29" fill="#858882" fill-opacity="1" fill-rule="nonzero"/><path d="M20.746 4.453c-.05-.055-.144-.055-.184 0l-5.003 4.93a.655.655 0 00-.133.226l-.742 2.38c-.024.066.015.105.082.066l2.316-1.14c.066-.028.156-.11.211-.15l4.855-4.796a.128.128 0 000-.188zm-4.023 5.238a.662.662 0 01-.223.133s-.238.09-.387-.054c-.133-.145-.039-.387-.039-.387a.779.779 0 01.145-.211l3.972-3.828a.545.545 0 01.227-.133s.238-.094.383.05c.133.15.039.387.039.387a.779.779 0 01-.145.211zm0 0" id="path31" fill="#067dc8" fill-opacity="1" fill-rule="nonzero"/></svg>