<svg xmlns="http://www.w3.org/2000/svg" width="38" height="24" fill="none" aria-labelledby="pi-novuna" role="img" viewBox="0 0 38 24"><title id="pi-novuna">Novuna</title><path fill="#fff" d="M0 0h38v24H0z"/><path fill="#7D3CFF" d="M34.2 10a.5.5 0 0 0-.5.4v.1c-.4-.4-1-.6-1.6-.6a2.6 2.6 0 0 0-2.5 2.6c0 1.4 1.1 2.6 2.5 2.6.6 0 1.2-.2 1.6-.6v.1c0 .3.2.5.5.5a.5.5 0 0 0 .4-.5v-4.2a.5.5 0 0 0-.4-.4m-2 4.1c-1 0-1.7-.7-1.7-1.6 0-1 .7-1.7 1.6-1.7s1.6.8 1.6 1.7-.7 1.6-1.6 1.6Zm-9-4.2a.5.5 0 0 0-.4.5v2.4c0 .7-.6 1.4-1.3 1.4s-1.3-.7-1.3-1.4v-2.4a.5.5 0 0 0-.5-.5.5.5 0 0 0-.4.5v2.4c0 1.3 1 2.3 2.2 2.3s2.2-1 2.2-2.3v-2.4a.5.5 0 0 0-.4-.5Zm3.5 0c-1.2 0-2.2 1-2.2 2.3v2.4c0 .2.2.4.5.4a.5.5 0 0 0 .4-.4v-2.4c0-.8.6-1.4 1.3-1.4.8 0 1.3.6 1.3 1.4v2.4c0 .2.2.4.5.4a.5.5 0 0 0 .4-.4v-2.4c0-1.3-1-2.3-2.2-2.3M7.4 8a.5.5 0 0 0-.5.5v4.7l-1.2-1.5a.4.4 0 0 0-.6 0 .5.5 0 0 0 0 .6L7 15l.1.1h.4V15h.1v-.2h.1V8.5c0-.3-.2-.5-.4-.5Zm-2.6 2.6-2-2.4v-.1h-.6v.1H2v6.2c0 .3.2.5.4.5a.5.5 0 0 0 .5-.4V9.9L4 11.3a.4.4 0 0 0 .4.2l.3-.1a.5.5 0 0 0 0-.7Zm6.3-.8a2.6 2.6 0 0 0-2.5 2.6c0 1.4 1.1 2.6 2.5 2.6s2.5-1.2 2.5-2.6-1.1-2.6-2.5-2.6m0 4.2c-.9 0-1.6-.7-1.6-1.6 0-1 .7-1.7 1.6-1.7 1 0 1.6.8 1.6 1.7S12 14 11.1 14m7.1-4.1a.5.5 0 0 0-.6.2l-1.4 3.2-1.4-3.2a.5.5 0 0 0-.6-.2.5.5 0 0 0-.2.6l1.8 4.1v.1l.1.1h.1v.1h.5v-.2h.1l1.8-4.2c.1-.2 0-.5-.2-.6m17.2-2.5c-.5 0-.8.3-.8.7s.3.8.8.8c.4 0 .7-.4.7-.8s-.3-.7-.7-.7m0 1.3q-.6 0-.6-.6c0-.3.2-.6.6-.6.3 0 .5.3.5.6 0 .4-.2.6-.5.6m.3-.7c0-.1-.1-.2-.3-.2h-.3v.7h.1v-.2h.2l.1.2h.2l-.2-.3a.2.2 0 0 0 .2-.2m-.3.1h-.2V8h.2l.1.1-.1.1Z"/></svg>