<svg xmlns="http://www.w3.org/2000/svg" role="img" width="38" height="24" viewBox="0 0 38 24" aria-labelledby="pi-np_atobarai"><title id="pi-np_atobarai">NP Atobarai</title><defs><linearGradient id="gradation" x1="9.248" y1="8.193" x2="28.739" y2="8.193" gradientUnits="userSpaceOnUse"><stop offset=".486" stop-color="#1eace6"/><stop offset=".494" stop-color="#26aae4"/><stop offset=".55" stop-color="#5b9cd4"/><stop offset=".603" stop-color="#8691c7"/><stop offset=".65" stop-color="#a489be"/><stop offset=".69" stop-color="#b684b9"/><stop offset=".719" stop-color="#bd82b7"/><stop offset=".826" stop-color="#db4693"/><stop offset=".88" stop-color="#e72d84"/></linearGradient></defs><path fill="#fff" d="M0 0h38v24H0z"/><path fill="#e4007f" d="M9.471 20.733l-3.847-4.434-.014-.016h-.409v5.275h.496v-4.451l3.868 4.451h.402v-5.275h-.496v4.45zM12.851 16.283h-1.475v5.275h.5v-2.424h.941c1.606 0 1.779-1 1.779-1.437s-.173-1.414-1.745-1.414zm-.979.427h.964c.782 0 1.23.363 1.23.995 0 .457-.221 1-1.276 1h-.918zM17.235 16.272a2.831 2.831 0 01-.65 1.112 3.05 3.05 0 01-1 .693v-.51a2.48 2.48 0 00.723-.55 1.9 1.9 0 00.444-.745zM17.228 17.816a3.36 3.36 0 01-.6 1.2h.115v2.545H16.3v-2.196a2.593 2.593 0 01-.711.5v-.516a2.479 2.479 0 00.705-.6 2.407 2.407 0 00.462-.935zM19.154 16.272l-1.015.906h1.088l.662-.565h.6L18.5 18.326h.875a3.039 3.039 0 00.534-.046 2.407 2.407 0 00.486-.136l-.231-.76h.45l.431 1.477h-.437l-.1-.341a1.89 1.89 0 01-.514.158 3.369 3.369 0 01-.628.061h-.608a2.241 2.241 0 01-.255.541h2.278v.377a2.125 2.125 0 01-.446.671 3.411 3.411 0 01-.757.592 5.338 5.338 0 00.7.163 4.489 4.489 0 00.711.056v.419a4.8 4.8 0 01-1.009-.1 4.376 4.376 0 01-.9-.3 6.152 6.152 0 01-.915.294 4.1 4.1 0 01-.932.107v-.419a4.036 4.036 0 00.689-.062 4.647 4.647 0 00.69-.175 2.935 2.935 0 01-.44-.389 2.455 2.455 0 01-.344-.468 2.414 2.414 0 01-.3.192 1.95 1.95 0 01-.3.131v-.481a1.562 1.562 0 00.62-.464 1.9 1.9 0 00.419-.684h-1.033v-.413h.65l.881-.759H17.55v-.389l1.033-.906zm-1.2 3.67h.31a1.5 1.5 0 00.334.438 2.186 2.186 0 00.474.328 2.874 2.874 0 001.239-1.033h-2.09c-.057.065-.1.111-.127.14a2.09 2.09 0 00-.143.127zM23.564 16.272v.8h.711v.45h-.711v1.5c.174-.052.3-.093.383-.121a4.01 4.01 0 00.328-.133v.473a7.488 7.488 0 01-.711.242v1.475a.606.606 0 01-.164.437.62.62 0 01-.468.169h-.614v-.449h.5a.28.28 0 00.188-.073.222.222 0 00.085-.176V19.6a10.884 10.884 0 01-.938.166v-.461a6.77 6.77 0 00.942-.17v-1.617h-.942v-.45h.947v-.8zM25.9 16.272l-.82 4.733h.389a2.907 2.907 0 00.781-.094 1.811 1.811 0 00.623-.313l-.389-1.64h.468l.6 2.6H27.1l-.115-.5a2.135 2.135 0 01-.65.331 2.976 2.976 0 01-.881.113h-1.2v-.493h.346l.8-4.733zM32.294 17a.887.887 0 01.706.316 1.256 1.256 0 01.272.849v2.606h-.467v-2.609a.9.9 0 00-.121-.5.438.438 0 00-.39-.209zM30.276 20.444a.974.974 0 01-.194.312.5.5 0 01-.742-.049.806.806 0 01-.151-.514V16.77h-.467v3.423a1.191 1.191 0 00.313.879.942.942 0 00.693.281q.73 0 1.04-.909z"/><path d="M20.9 14.268a5.787 5.787 0 01-3.477-1.539 2.928 2.928 0 01-1.553.968c-1.641.326-3.27-.484-5.126-2.547A5.367 5.367 0 019.3 8.137c-.194-1.291.2-1.817.565-2.032.8-.469 2.252.057 4.087 1.482.584.453 1.095.866 1.742 1.39.352.285.748.605 1.222.985a13.242 13.242 0 001.5-1.016 27.59 27.59 0 001.483-1.3q.152-.325.308-.664.3-.65.626-1.341a8.732 8.732 0 011.554-2.444 2.376 2.376 0 012.021-.822 1.637 1.637 0 01.579.176 2.224 2.224 0 011.28-.427 2.3 2.3 0 011.671 1.019 5.069 5.069 0 01.469 4.634 6.387 6.387 0 01-3.245 3.616 5.5 5.5 0 01-3.132 2.7 3.835 3.835 0 01-1.13.175zm-3.233-1.82c1.564 1.21 2.806 1.733 4.253 1.288a4.931 4.931 0 002.624-2.061 9.825 9.825 0 01-1.608.514A6.689 6.689 0 0118.4 11.4a9.7 9.7 0 01-.734 1.048zm-6.715-1.624l.068.077c2.313 2.57 3.834 2.619 4.778 2.431a2.553 2.553 0 001.335-.832q-.329-.265-.676-.565c-.4-.34-.719-.628-.994-.878a5.436 5.436 0 01-3.889.062 5.627 5.627 0 01-.623-.295zm4.9.086c.241.217.518.463.844.743q.349.3.679.566a9.1 9.1 0 00.7-1 10.345 10.345 0 01-1.191-.809 9.028 9.028 0 01-.906.449zm2.732.17a6.312 6.312 0 004.266.747 9.221 9.221 0 002.04-.721c.119-.214.234-.444.344-.692a10.241 10.241 0 00.832-4.877A3.516 3.516 0 0025 2.991a18.264 18.264 0 00-2.32 2.291c-.706.774-1.525 1.672-2.474 2.577-.575 1.229-1.099 2.321-1.62 3.221zm-7.461-2.589a1.376 1.376 0 00-.775.2.621.621 0 00-.291.6c.021.2.2.9 1.655 1.484a4.976 4.976 0 003.437 0l-.211-.2a8.416 8.416 0 00-2.2-1.615 3.539 3.539 0 00-1.615-.469zm6.106 1.718a9.853 9.853 0 001.033.692c.394-.681.794-1.482 1.218-2.374-.268.238-.545.475-.832.708a12.927 12.927 0 01-1.419.974zm8.1-7.433A4.029 4.029 0 0126.438 5.5a10.628 10.628 0 01-.862 5.062l-.1.22a5.882 5.882 0 002.578-3.133 4.844 4.844 0 00-.405-4.279 1.959 1.959 0 00-1.394-.881 1.765 1.765 0 00-.93.287zM11.114 8.117a3.976 3.976 0 011.8.514 8.812 8.812 0 012.277 1.669l.356.329c.094-.036.189-.074.284-.114a7.831 7.831 0 00.736-.358c-.424-.34-.784-.631-1.107-.893-.646-.522-1.156-.935-1.736-1.386-1.659-1.286-3.031-1.83-3.672-1.454-.482.283-.475 1.056-.385 1.655a5.685 5.685 0 00.133.667 1.068 1.068 0 01.339-.365 1.717 1.717 0 01.975-.264zm13.044-5.389c-1.068 0-2 .959-2.991 3.066q-.266.567-.516 1.107a64.95 64.95 0 001.753-1.869A20.83 20.83 0 0124.632 2.8a1.326 1.326 0 00-.267-.06 1.758 1.758 0 00-.207-.012z" fill="url(#gradation)"/></svg>