<svg xmlns="http://www.w3.org/2000/svg" role="img" viewBox="0 0 38 24" width="38" height="24" aria-labelledby="pi-aftee"><title id="pi-aftee">NPkakebarai</title><path fill="#000" opacity=".07" d="M35 0H3C1.3 0 0 1.3 0 3v18c0 1.7 1.4 3 3 3h32c1.7 0 3-1.3 3-3V3c0-1.7-1.4-3-3-3z"/><path fill="#fff" d="M35 1c1.1 0 2 .9 2 2v18c0 1.1-.9 2-2 2H3c-1.1 0-2-.9-2-2V3c0-1.1.9-2 2-2h32"/><defs><linearGradient id="新規グラデーションスウォッチ_3" x1="10.245" y1="8.558" x2="27.786" y2="8.558" gradientUnits="userSpaceOnUse"><stop offset="0.486" stop-color="#1eace6"/><stop offset="0.494" stop-color="#26aae4"/><stop offset="0.55" stop-color="#5b9cd4"/><stop offset="0.603" stop-color="#8691c7"/><stop offset="0.65" stop-color="#a489be"/><stop offset="0.69" stop-color="#b684b9"/><stop offset="0.719" stop-color="#bd82b7"/><stop offset="0.826" stop-color="#db4693"/><stop offset="0.88" stop-color="#e72d84"/></linearGradient></defs><g id="レイヤー_3" data-name="レイヤー 3"><polygon points="7.59 19.83 4.131 15.843 4.119 15.829 3.751 15.829 3.751 20.572 4.196 20.572 4.196 16.57 7.674 20.572 8.036 20.572 8.036 15.829 7.59 15.829 7.59 19.83" fill="#00abeb"/><path d="M10.628,15.829H9.3v4.743h.446v-2.18h.846c1.444,0,1.6-.9,1.6-1.292S12.041,15.829,10.628,15.829Zm-.88.384h.867c.7,0,1.105.326,1.105.894,0,.411-.2.9-1.147.9H9.748Z" fill="#00abeb"/><path d="M14.033,15.829v.781h.519v.4h-.519V18.3a4.306,4.306,0,0,0,.519-.23V18.5l-.519.206V20.1a.461.461,0,0,1-.147.347.5.5,0,0,1-.355.141h-.377v-.409h.257a.207.207,0,0,0,.145-.058.188.188,0,0,0,.062-.144V18.841l-.259.076a2.656,2.656,0,0,1-.27.066v-.42l.529-.131V17.009h-.529v-.4h.529v-.781Z" fill="#00abeb"/><polygon points="15.96 15.829 15.96 16.288 16.681 16.288 16.681 16.697 15.96 16.697 15.96 17.588 16.681 17.588 16.681 17.992 14.802 17.992 14.802 17.588 15.529 17.588 15.529 16.697 14.802 16.697 14.802 16.288 15.529 16.288 15.529 15.829 15.96 15.829" fill="#00abeb"/><path d="M15.96,18.3v.5h.721v.4H15.96v.842a2.636,2.636,0,0,0,.721-.186v.426a3.258,3.258,0,0,1-.751.18,8.212,8.212,0,0,1-1.128.066v-.4q.389,0,.727-.033V19.2H14.8v-.4h.727v-.5Z" fill="#00abeb"/><polygon points="17.524 15.829 17.524 17.588 18.179 18.166 18.179 18.705 17.524 18.127 17.524 20.586 17.109 20.586 17.109 15.829 17.524 15.829" fill="#00abeb"/><path d="M23.761,17.3h-.5v1.949a1.254,1.254,0,0,1-.324.905,1.19,1.19,0,0,1-.905.34H21.5v-.422H22a.806.806,0,0,0,.6-.224.823.823,0,0,0,.224-.609V17.3H20.716v-.437h2.109v-.853h.432v.853h.5Z" fill="#00abeb"/><path d="M20.313,20.063a.741.741,0,0,1-.627-.759V16.079h-.427V19.3a1.161,1.161,0,0,0,.342.856,1.137,1.137,0,0,0,.712.333Z" fill="#00abeb"/><path d="M25.991,15.834v.716h.639v.4h-.639V18.3c.156-.047.271-.083.344-.109.1-.036.2-.076.295-.12V18.5c-.2.08-.414.152-.639.218v1.325a.545.545,0,0,1-.148.393.559.559,0,0,1-.42.152h-.552v-.4h.453a.261.261,0,0,0,.17-.065.205.205,0,0,0,.076-.158V18.824q-.279.06-.453.093c-.117.022-.248.042-.394.06v-.414a6.181,6.181,0,0,0,.847-.153V16.954h-.847v-.4h.847v-.716Z" fill="#00abeb"/><path d="M28.093,15.834l-.738,4.255h.35a2.638,2.638,0,0,0,.7-.084,1.661,1.661,0,0,0,.56-.282l-.35-1.474h.421l.54,2.337h-.409l-.1-.453a1.954,1.954,0,0,1-.584.3,2.691,2.691,0,0,1-.792.1H26.607v-.443h.317l.721-4.255Z" fill="#00abeb"/><path d="M33.838,16.486a.8.8,0,0,1,.635.284,1.128,1.128,0,0,1,.245.763v2.343H34.3V17.533a.815.815,0,0,0-.109-.45.4.4,0,0,0-.351-.187Z" fill="#00abeb"/><path d="M32.024,19.585a.9.9,0,0,1-.174.28.431.431,0,0,1-.318.126.426.426,0,0,1-.349-.17.726.726,0,0,1-.136-.462V16.282h-.419v3.077a1.065,1.065,0,0,0,.281.79.847.847,0,0,0,.623.252c.438,0,.749-.273.934-.816Z" fill="#00abeb"/><path d="M20.731,14.025A5.215,5.215,0,0,1,17.6,12.64a2.634,2.634,0,0,1-1.4.871c-1.477.293-2.943-.435-4.614-2.293a4.828,4.828,0,0,1-1.3-2.711h0c-.175-1.162.18-1.635.508-1.828.72-.423,2.027.051,3.679,1.333.525.408.985.78,1.568,1.251.316.256.672.544,1.1.887a11.925,11.925,0,0,0,1.349-.915c.477-.387.92-.781,1.334-1.175.092-.2.184-.394.278-.6q.271-.583.564-1.207a7.883,7.883,0,0,1,1.4-2.2,2.14,2.14,0,0,1,1.819-.739,1.488,1.488,0,0,1,.521.158,2.011,2.011,0,0,1,1.152-.384,2.069,2.069,0,0,1,1.5.917,4.562,4.562,0,0,1,.422,4.171,5.745,5.745,0,0,1-2.92,3.254,4.951,4.951,0,0,1-2.82,2.433A3.418,3.418,0,0,1,20.731,14.025Zm-2.91-1.638c1.407,1.089,2.525,1.559,3.827,1.159a4.432,4.432,0,0,0,2.362-1.855,8.79,8.79,0,0,1-1.447.463,6.021,6.021,0,0,1-4.085-.711A8.79,8.79,0,0,1,17.821,12.387Zm-6.044-1.462.062.07c2.081,2.313,3.451,2.356,4.3,2.188a2.3,2.3,0,0,0,1.2-.749c-.2-.159-.4-.329-.609-.509-.355-.305-.646-.565-.894-.79a4.891,4.891,0,0,1-3.5.056A4.947,4.947,0,0,1,11.777,10.925ZM16.19,11c.217.2.466.416.759.668.211.181.414.351.611.51a8.011,8.011,0,0,0,.626-.9,9.375,9.375,0,0,1-1.071-.728,8.3,8.3,0,0,1-.816.4Zm2.459.153a5.682,5.682,0,0,0,3.84.672,8.325,8.325,0,0,0,1.835-.648c.107-.193.211-.4.31-.624a9.224,9.224,0,0,0,.749-4.389,3.172,3.172,0,0,0-.962-2.291,16.321,16.321,0,0,0-2.088,2.062c-.635.7-1.373,1.505-2.227,2.319C19.59,9.363,19.118,10.346,18.649,11.156ZM11.932,8.825a1.251,1.251,0,0,0-.7.18.562.562,0,0,0-.262.54c.02.18.184.81,1.49,1.335a4.481,4.481,0,0,0,3.093,0l-.189-.176A7.579,7.579,0,0,0,13.39,9.248,3.192,3.192,0,0,0,11.932,8.825Zm5.495,1.547a9.038,9.038,0,0,0,.93.623c.355-.613.714-1.334,1.1-2.137q-.361.322-.749.637A11.509,11.509,0,0,1,17.427,10.372Zm7.287-6.69a3.633,3.633,0,0,1,1,2.454,9.581,9.581,0,0,1-.776,4.556c-.03.067-.06.133-.091.2a5.291,5.291,0,0,0,2.32-2.819,4.362,4.362,0,0,0-.364-3.851,1.766,1.766,0,0,0-1.255-.794A1.6,1.6,0,0,0,24.714,3.682ZM11.924,8.489a3.58,3.58,0,0,1,1.622.463,7.892,7.892,0,0,1,2.047,1.5l.32.295c.085-.032.171-.066.257-.1a7.249,7.249,0,0,0,.662-.322c-.382-.306-.706-.568-1-.8-.581-.47-1.04-.841-1.562-1.247-1.493-1.158-2.728-1.647-3.3-1.309-.434.255-.428.951-.346,1.49a4.978,4.978,0,0,0,.12.6.932.932,0,0,1,.3-.328A1.537,1.537,0,0,1,11.924,8.489Zm11.74-4.85c-.962,0-1.8.863-2.692,2.76q-.24.51-.465,1c.572-.579,1.091-1.148,1.579-1.682A18.444,18.444,0,0,1,24.091,3.7a1.22,1.22,0,0,0-.241-.054A1.682,1.682,0,0,0,23.664,3.639Z" fill="url(#新規グラデーションスウォッチ_3)"/></g></svg>