<svg xmlns="http://www.w3.org/2000/svg" width="38" height="24" role="img" viewBox="0 0 38 24" aria-labelledby="pi-oca" >
  <title id="pi-oca">OCA</title>
  <defs>
    <style>
      .cls-1 {
        fill: #81cff4;
      }

      .cls-1, .cls-2 {
        fill-rule: evenodd;
      }

      .cls-2 {
        fill: #02509c;
      }
    </style>
  </defs>
  <g data-name="Capa 2">
    <g data-name="Capa 1">
      <g>
        <polygon class="cls-1" points="0.58 3.54 0 4.52 17.2 4.52 17.2 3.54 0.58 3.54 0.58 3.54"/>
        <path class="cls-2" d="M4.81.65v0s0,0,0,0,0,0-.08-.06a.69.69,0,0,0-.23,0,.79.79,0,0,0-.24,0,.24.24,0,0,0-.13.13L3.28,2.42l0,0v0s0,0,.07.07a.53.53,0,0,0,.2,0,.91.91,0,0,0,.27,0,.22.22,0,0,0,.13-.12L4.81.65Zm2.1,0L6,2.43a.05.05,0,0,0,0,0,.93.93,0,0,1-.54.47,3.3,3.3,0,0,1-.68.1c-.29,0-.78,0-1.49,0A15.43,15.43,0,0,1,1.52,3c-.29,0-.43-.12-.43-.23a.47.47,0,0,1,0-.16c0-.06,0-.11.08-.18L2.08.63v0A.84.84,0,0,1,2.6.14,3.1,3.1,0,0,1,3.26,0C3.53,0,4,0,4.81,0a15,15,0,0,1,1.8.07C6.87.12,7,.2,7,.33A.74.74,0,0,1,7,.45L6.91.63Zm5.63,0a1.26,1.26,0,0,0,.08-.18.3.3,0,0,0,0-.12c0-.13-.13-.21-.39-.26A15,15,0,0,0,10.45,0C9.69,0,9.16,0,8.89,0a2.88,2.88,0,0,0-.64.11A.78.78,0,0,0,8,.3a.93.93,0,0,0-.23.33l-.89,1.8a.83.83,0,0,0-.07.18.5.5,0,0,0,0,.16c0,.11.14.19.43.23a15.43,15.43,0,0,0,1.76.07q1.07,0,1.5,0a3.19,3.19,0,0,0,.67-.1.91.91,0,0,0,.55-.49v0L12,1.76H9.89l-.32.66a.22.22,0,0,1-.13.12.88.88,0,0,1-.26,0,.56.56,0,0,1-.21,0c-.05,0-.06,0-.06-.07v0s0,0,0,0L9.79.65A.24.24,0,0,1,9.92.52a.82.82,0,0,1,.24,0,.76.76,0,0,1,.24,0s.07,0,.07.06a.41.41,0,0,0,0,.07l-.2.4h2.08l.21-.42Zm3,.16L14.71,2h.67L15.65.79ZM14.73,0h2.53l-.2,3h-2l.15-.6h-.88l-.46.6h-2l2.79-3Z"/>
        <path class="cls-2" d="M12.31,4.12h.38a.26.26,0,0,1-.1.13,1,1,0,0,1-.17.1l-.21.06H12a1.07,1.07,0,0,1-.25,0,.35.35,0,0,1-.18-.1.26.26,0,0,1-.06-.25.42.42,0,0,1,.15-.23.75.75,0,0,1,.28-.15,1.54,1.54,0,0,1,.31,0,2,2,0,0,1,.28,0,.38.38,0,0,1,.18.09.17.17,0,0,1,.07.13s0,0,0,.07h-.39v0a.09.09,0,0,0,0-.08.24.24,0,0,0-.13,0A.26.26,0,0,0,12,4a.74.74,0,0,0,0,.12.08.08,0,0,0,0,.06l.06,0h.07a.42.42,0,0,0,.15,0,.22.22,0,0,0,.08-.09Zm.38.3H13l.13-.16h.37l0,.16H14l-.17-.79h-.45l-.7.79Zm.84-.33H13.3l.19-.22,0,.22Zm.85-.45h.74a.62.62,0,0,1,.31,0c.08,0,.11.07.11.13a.17.17,0,0,1,0,.11.35.35,0,0,1-.11.09l-.17.06.14.34h-.48l-.11-.3h-.12l-.1.3h-.44l.27-.78Zm.38.16,0,.15h.2a.23.23,0,0,0,.13,0s.05,0,.05-.06,0,0,0,0l-.1,0Zm.74.62H16a1.27,1.27,0,0,0,.41-.06.67.67,0,0,0,.28-.14A.46.46,0,0,0,16.87,4a.28.28,0,0,0,0-.09.24.24,0,0,0,0-.12l-.1-.1a.59.59,0,0,0-.16-.07h-.82l-.27.78ZM16,4.24l.14-.43h.07a.3.3,0,0,1,.18,0,.12.12,0,0,1,.05.11V4a.28.28,0,0,1-.12.17.49.49,0,0,1-.27.06Z"/>
      </g>
    </g>
  </g>
</svg>
