<svg id="Layer_1" data-name="Layer 1" xmlns="http://www.w3.org/2000/svg" viewBox="0 0 36 14.11"><defs><style>.cls-1{fill:none;}.cls-2{fill:#3758a5;}.cls-3{fill:#2bb46e;}.cls-4{fill:#00be6e;}.cls-5{fill:#f5911e;}.cls-6{fill:#004bd2;}</style></defs><path d="M35.77,8.68A4,4,0,0,1,35,9a2.68,2.68,0,0,0-.59-.25l-.31.33a5.76,5.76,0,0,1,.68.23h-1v2.79h.39v-.89h.76v.89h.39v-.89h.75v.89h.42V9.28h-1s-.1-.07-.1-.06a4,4,0,0,0,1.1-.6h0V8.29H33.65v.35h2.2Zm-.83,2.13h-.76v-.38h.76Zm0-.76h-.75V9.67h.76Zm1.14.76h-.73v-.38h.73Zm0-1.15v.39h-.75V9.66Z" transform="translate(-1 -4.94)"/><path d="M21.09,12.59l.4.23a7.44,7.44,0,0,0,1.09-3.69h-.46A6.93,6.93,0,0,1,21.09,12.59Z" transform="translate(-1 -4.94)"/><path d="M24.81,8.19h-2.5v.45h2.05a10.94,10.94,0,0,0,1.26,4.18l.4-.23a10,10,0,0,1-1.21-4.17Z" transform="translate(-1 -4.94)"/><rect x="27.01" y="8.26" width="0.4" height="1" transform="translate(0.78 16.87) rotate(-45.02)"/><path d="M29.78,12.33v-.55h1.46v-.4H29.78v-.26h1v-.4h-1v-.28H31V10h-.79l.32-.49h.67v-.4H29.78V8.88H31V8.49H29.78V8.05h-.4v.44H28.19v.39h1.19v.27H28v.4h.6l.32.49h-.79v.4h1.27v.28h-1v.4h1v.26H27.93v.4h1.45v.55h-.14A2.58,2.58,0,0,1,27.76,12V10h-1.2v.39h.81v1.38l-.74.73.28.28.56-.56h0a3.89,3.89,0,0,0,2.24.46h1.5l.21-.45-.78,0Zm-.73-2.78h1l-.32.49h-.34Z" transform="translate(-1 -4.94)"/><rect x="32.59" y="8.26" width="0.4" height="1" transform="translate(2.42 20.82) rotate(-45.02)"/><path d="M36.22,12.32l-1.39,0A2.56,2.56,0,0,1,33.35,12V10H32.14v.39H33v1.38l-.73.73.28.28.56-.56h0a3.92,3.92,0,0,0,2.25.46h1.49l.21-.45Z" transform="translate(-1 -4.94)"/><path d="M17.64,13.8l0,0a.75.75,0,0,0-.14-.12l0,0a2.29,2.29,0,0,0-2.67,0l0,0a.49.49,0,0,0-.13.12l0,0a2.73,2.73,0,0,0,0,3.51l0,0a.49.49,0,0,0,.13.12s0,0,0,0a2.29,2.29,0,0,0,2.67,0l0,0a.75.75,0,0,0,.14-.12l0,0a2.73,2.73,0,0,0,0-3.51Zm-1.51,3.62a1.4,1.4,0,0,1-1.2-.59,2.38,2.38,0,0,1,0-2.55,1.43,1.43,0,0,1,1.2-.59,1.41,1.41,0,0,1,1.19.59,2.38,2.38,0,0,1,0,2.55A1.39,1.39,0,0,1,16.13,17.42Z" transform="translate(-1 -4.94)"/><path d="M20.15,17.42a.86.86,0,0,1-.74-.38,1.49,1.49,0,0,1-.22-.82c0-.48.13-1.28,1-1.28a.77.77,0,0,1,.82.65h.54a1.23,1.23,0,0,0-1.4-1.11c-1,0-1.53.66-1.53,1.74a1.48,1.48,0,0,0,1.52,1.66,1.35,1.35,0,0,0,1.43-1.26h-.54A.85.85,0,0,1,20.15,17.42Z" transform="translate(-1 -4.94)"/><path d="M22.81,13.57h-.52v1h-.56V15h.56V17.1c0,.61.22.7.77.7h.4v-.46h-.24c-.34,0-.41-.05-.41-.29V15h.65v-.46h-.65Z" transform="translate(-1 -4.94)"/><path d="M23.76,16.18a1.58,1.58,0,1,0,3.16,0,1.58,1.58,0,1,0-3.16,0Zm2.61,0c0,.74-.42,1.24-1,1.24s-1-.5-1-1.24.41-1.24,1-1.24S26.37,15.43,26.37,16.18Z" transform="translate(-1 -4.94)"/><path d="M28,15h0v-.44h-.52v4.51H28V17.37h0a1.22,1.22,0,0,0,1,.51,1.49,1.49,0,0,0,1.48-1.69,1.52,1.52,0,0,0-1.49-1.71A1.08,1.08,0,0,0,28,15Zm2,1.16a1.61,1.61,0,0,1-.22.87.85.85,0,0,1-.77.4.91.91,0,0,1-.79-.38,1.47,1.47,0,0,1-.24-.87c0-.6.26-1.23,1-1.23A1.08,1.08,0,0,1,30,16.15Z" transform="translate(-1 -4.94)"/><path d="M31.59,16.75v-2.2h-.53v2.14a1.34,1.34,0,0,0,.24.86,1.07,1.07,0,0,0,.88.33,1.14,1.14,0,0,0,1.06-.59h0v.51h.49V14.55h-.52v1.84a.92.92,0,0,1-1,1A.62.62,0,0,1,31.59,16.75Z" transform="translate(-1 -4.94)"/><path d="M36.67,16.2a2.11,2.11,0,0,0-.73-.26l-.21-.06c-.45-.09-.86-.18-.86-.52s.49-.42.7-.42.71.05.76.55h.52c0-.69-.47-1-1.33-1a1.56,1.56,0,0,0-.82.21.83.83,0,0,0-.39.71c0,.62.55.8,1.06.91l.16,0c.47.1.92.19.92.57s-.44.5-.8.5-.86-.08-.88-.63h-.53c0,.95.88,1.09,1.38,1.09.32,0,1.38-.07,1.38-1A.76.76,0,0,0,36.67,16.2Z" transform="translate(-1 -4.94)"/><path class="cls-1" d="M2.92,16.85l.11,0Z" transform="translate(-1 -4.94)"/><path class="cls-1" d="M2.91,16.85h0Z" transform="translate(-1 -4.94)"/><path class="cls-1" d="M3,16.88H3Z" transform="translate(-1 -4.94)"/><path class="cls-1" d="M3.09,16.89h0Z" transform="translate(-1 -4.94)"/><path class="cls-1" d="M2.89,16.84h0Z" transform="translate(-1 -4.94)"/><path class="cls-1" d="M3.36,16.93h0l-.25,0,.28,0Z" transform="translate(-1 -4.94)"/><path class="cls-1" d="M3.05,16.88h0Z" transform="translate(-1 -4.94)"/><path class="cls-1" d="M3.07,16.88h0Z" transform="translate(-1 -4.94)"/><path class="cls-1" d="M2.81,16.82Z" transform="translate(-1 -4.94)"/><path class="cls-1" d="M2.77,16.81h0Z" transform="translate(-1 -4.94)"/><path class="cls-1" d="M2.82,16.83h0Z" transform="translate(-1 -4.94)"/><path class="cls-1" d="M2.87,16.84h0Z" transform="translate(-1 -4.94)"/><path class="cls-1" d="M2.84,16.83h0Z" transform="translate(-1 -4.94)"/><path class="cls-1" d="M2.86,16.84h0Z" transform="translate(-1 -4.94)"/><path class="cls-1" d="M2.79,16.82h0Z" transform="translate(-1 -4.94)"/><path class="cls-1" d="M3.39,16.93Z" transform="translate(-1 -4.94)"/><path class="cls-1" d="M5.07,16.84h0Z" transform="translate(-1 -4.94)"/><polygon class="cls-1" points="2.49 12 2.49 12 2.5 12 2.49 12"/><path class="cls-1" d="M3.45,16.94h0Z" transform="translate(-1 -4.94)"/><path class="cls-2" d="M2.83,16.83h0Z" transform="translate(-1 -4.94)"/><path class="cls-2" d="M2.85,16.83h0Z" transform="translate(-1 -4.94)"/><path class="cls-2" d="M2.76,16.81h0Z" transform="translate(-1 -4.94)"/><path class="cls-2" d="M2.78,16.81h0Z" transform="translate(-1 -4.94)"/><polygon class="cls-2" points="2.39 11.99 2.39 11.99 2.39 11.99 2.39 11.99"/><path class="cls-2" d="M2.8,16.82h0Z" transform="translate(-1 -4.94)"/><path class="cls-2" d="M2.81,16.82h0Z" transform="translate(-1 -4.94)"/><polygon class="cls-2" points="2.49 12 2.49 12 2.49 12 2.49 12"/><path class="cls-2" d="M2.87,16.84Z" transform="translate(-1 -4.94)"/><path class="cls-2" d="M5,16.85H5Z" transform="translate(-1 -4.94)"/><path class="cls-2" d="M3.05,16.88Z" transform="translate(-1 -4.94)"/><path class="cls-2" d="M3,16.88Z" transform="translate(-1 -4.94)"/><path class="cls-2" d="M3.09,16.89Z" transform="translate(-1 -4.94)"/><path class="cls-2" d="M3.11,16.89Z" transform="translate(-1 -4.94)"/><path class="cls-2" d="M3.07,16.88Z" transform="translate(-1 -4.94)"/><polygon class="cls-2" points="2.46 11.99 2.46 11.99 2.46 11.99 2.46 11.99"/><path class="cls-2" d="M2.88,16.84h0Z" transform="translate(-1 -4.94)"/><path class="cls-2" d="M2.92,16.85Z" transform="translate(-1 -4.94)"/><polygon class="cls-2" points="4.12 11.88 4.12 11.88 4.12 11.88 4.12 11.88"/><path class="cls-2" d="M2.9,16.85h0Z" transform="translate(-1 -4.94)"/><polygon class="cls-3" points="17.73 0.09 17.73 0.09 17.72 0.09 17.72 0.09 17.73 0.09"/><polygon class="cls-3" points="17.72 0.09 17.72 0.09 17.72 0.09 17.72 0.09"/><path class="cls-4" d="M13.33,9.14h.24q.51,0,1-.12h0a5.61,5.61,0,0,1,.3-.82,4.94,4.94,0,0,1,2.63-2.71c.54-.19,1.57-.3,1.9.14a1.48,1.48,0,0,0-.59-.55l-.05,0h0a4.87,4.87,0,0,0-2.31.11,6.53,6.53,0,0,0-2.08,1.17l-.16.13h0L14,6.59h0l-.28.28s0,0,0,0L13.6,7V7c-.08.09-.17.18-.24.27v0l-.09.12,0,0a.94.94,0,0,1-.09.12h0l-.1.14v0a1,1,0,0,1-.08.11.05.05,0,0,1,0,0L12.85,8V8a1,1,0,0,0-.08.14h0l-.06.12,0,0,0,.09a.05.05,0,0,0,0,0l-.07.12h0L12.35,9c0,.09-.07.17-.1.25C12.71,9.21,12.78,9.2,13.33,9.14Z" transform="translate(-1 -4.94)"/><path class="cls-5" d="M20.14,6a2.46,2.46,0,0,0-.3-.4,2.26,2.26,0,0,0-1-.54h-.07l.05,0a1.18,1.18,0,0,1,.69.93c0,.06,0,.11,0,.18a2.21,2.21,0,0,1-.27.62,3.28,3.28,0,0,1-.73.78A8,8,0,0,1,15,8.92L14.54,9h0q-.45.08-1,.12l-1.32.12H12c-.71.06-3.37-.09-4.11-.09a10.48,10.48,0,0,0-3.14.46,5.66,5.66,0,0,0-3,2,4.44,4.44,0,0,0-.71,1.6,3.32,3.32,0,0,0,.16,1.71l.08.18A4.09,4.09,0,0,0,2.7,16.79H3l.06,0h.49A5.09,5.09,0,0,0,5,16.85h.1a3.29,3.29,0,0,1-.4,0H4.46a2.08,2.08,0,0,1-1.71-1,3.17,3.17,0,0,1-.29-.75h0s0-.08,0-.12,0,0,0,0,0-.07,0-.11v0a2.9,2.9,0,0,1,0-.43,3.41,3.41,0,0,1,.86-2.22,6.42,6.42,0,0,1,2.68-1.87,9.2,9.2,0,0,1,3.25-.55h.2a4.28,4.28,0,0,1,.52,0c.48,0,.9.1,1.29.17l.48.08.21,0a16.26,16.26,0,0,0,2.21.32h0l.72,0h0c2.79,0,5.37-1.26,5.54-3.41a1.34,1.34,0,0,0,0-.21h0A2,2,0,0,0,20.14,6Z" transform="translate(-1 -4.94)"/><path class="cls-6" d="M11.87,10.1c-.39.85-2.48,5.29-6,6.53a6.21,6.21,0,0,1-.74.2H5a5.09,5.09,0,0,1-1.5.09H3.39l-.28,0H3l-.11,0H2.7l0,0h0a5.52,5.52,0,0,0,3.28,1H6.1a7.2,7.2,0,0,0,3.66-1.19c2.31-1.45,3.54-4.13,4.27-6.07a.42.42,0,0,1,0-.1,0,0,0,0,1,0,0A16.26,16.26,0,0,1,11.87,10.1Z" transform="translate(-1 -4.94)"/></svg>