<svg width="38" height="24" viewBox="0 0 38 24" role="img" aria-labelledby="pi-octopus" fill="none" xmlns="http://www.w3.org/2000/svg">
 <title id="pi-octopus">Octopus</title>
 <g>
  <title>Layer 1</title>
  <path id="svg_1" d="m35,0l-32,0c-1.7,0 -3,1.3 -3,3l0,18c0,1.7 1.4,3 3,3l32,0c1.7,0 3,-1.3 3,-3l0,-18c0,-1.7 -1.4,-3 -3,-3z" opacity="0.07" fill="#000"/>
  <path id="svg_2" d="m35,0.8c1.1,0 2,0.9 2,2l0,18c0,1.1 -0.9,2 -2,2l-32,0c-1.1,0 -2,-0.9 -2,-2l0,-18c0,-1.1 0.9,-2 2,-2l32,0" fill="#fff"/>
  <g stroke="null" stroke-width="5">
   <path stroke="null" stroke-width="0.35278" fill-rule="nonzero" fill="#000" transform="translate(31.61 -30.325)" d="m1.82388,40.17492l-0.66553,0l0,-0.34028l0.66553,0l0,0.34028zm-0.00322,0.68378l-0.65694,0l0,-0.33921l0.65694,0l0,0.33921zm-1.02191,-0.68378l-0.66768,-0.00537l0,-0.33277l0.67197,0l-0.00429,0.33813zm0.00429,0.68378l-0.67197,0l0,-0.33921l0.67197,0l0,0.33921zm0.74926,-1.90643c-0.13633,0.06977 -0.38,0.20073 -0.65802,0.26836a2.46891,2.46891 0 0 0 -0.52384,-0.21791l-0.27587,0.28768c0.2952,0.0848 0.44548,0.14384 0.6022,0.21469l-0.91994,-0.00537l0,2.49145l0.35423,0l0,-0.79112l0.67197,0l0,0.79112l0.35531,0l0,-0.79112l0.6709,0l0,0.79112l0.37034,0l0,-2.49789l-0.86627,0.00644a0.28983,0.28983 0 0 0 -0.08695,-0.05475c0.31344,-0.117 0.6505,-0.27909 0.98112,-0.53565l0,-0.30593l-0.00537,0.00322l-2.57089,0l0,0.31237l1.97083,0l-0.06977,0.03328zm-13.11313,3.49726l0.35316,0.20395c0.84694,-1.4631 0.97254,-2.69111 0.97254,-3.29224l-0.40576,0c0,0.56141 -0.1213,1.70784 -0.91994,3.08828m3.31907,-3.93201l-2.23597,0l0,0.40576l1.83558,0c0.05367,0.80401 0.39288,2.46569 1.12496,3.73127l0.35209,-0.20395c-0.76107,-1.31711 -1.07666,-3.07862 -1.07666,-3.7302l0,-0.20288zm2.58055,0.69559l-0.63333,-0.63118l-0.24904,0.25011l0.63333,0.63333l0.24904,-0.25226z"/>
   <path stroke="null" stroke-width="0.35278" fill-rule="nonzero" fill="#000" transform="translate(31.61 -30.325)" d="m-4.45145,39.73051l0.86841,0l-0.28553,0.44118l-0.29842,0l-0.28446,-0.44118zm0.64621,2.48286l0,-0.49271l1.30745,0l0,-0.35423l-1.30745,0l0,-0.23616l0.92316,0l0,-0.35531l-0.92316,0l0,-0.24904l1.06378,0l0,-0.35423l-0.7031,0l0.28339,-0.44011l0.59898,0l0,-0.35638l-1.24304,0l0,-0.23723l1.05948,0l0,-0.35423l-1.05948,0l0,-0.39395l-0.35423,0l0,0.39395l-1.06163,0l0,0.35423l1.06056,0l0,0.23616l-1.25485,0l0,0.35638l0.54101,0l0.28553,0.44118l-0.70632,0l0,0.35423l1.13463,0l0,0.24904l-0.92316,0l0,0.35531l0.92316,0l0,0.23616l-1.29242,0l0,0.35423l1.29242,0l0,0.49915l-0.12774,0.00107c-0.47768,0.00322 -0.90169,-0.05904 -1.32033,-0.32418l0,-1.72502l-1.07451,0l0,0.34994l0.72457,0l0,1.22587l-0.65694,0.65802l0.24689,0.24904l0.50452,-0.50452l-0.00537,0.01288c0.55067,0.37356 1.25056,0.41327 2.00733,0.41327l1.33643,0l0.18463,-0.40791l-0.69774,0.03757l-0.76644,0.00751zm3.13444,-3.00026l-0.63226,-0.63118l-0.25011,0.25011l0.63333,0.63333l0.24904,-0.25226zm2.62134,2.99275l-1.24626,0.0161c-0.4809,0.00215 -0.90384,-0.06011 -1.3214,-0.32525l0,-1.72502l-1.07559,0l0,0.34994l0.72564,0l0,1.22587l-0.66017,0.65909l0.25011,0.24904l0.50452,-0.50559l-0.00751,0.01288c0.55175,0.37356 1.24948,0.41435 2.00518,0.41435l1.33751,0l0.18356,-0.40898l-0.69559,0.03757zm-17.95112,4.5546c-0.45084,0 -0.82225,-0.18034 -1.07129,-0.52706c-0.21254,-0.29412 -0.32847,-0.69881 -0.32847,-1.13785c0,-0.43796 0.11593,-0.84158 0.32847,-1.13677c0.24904,-0.34457 0.62045,-0.52706 1.07129,-0.52706c0.45084,0 0.82225,0.18248 1.07022,0.52706c0.21361,0.2952 0.32847,0.69881 0.32847,1.13677c0,0.43904 -0.11486,0.84372 -0.32847,1.13785c-0.24796,0.34672 -0.61937,0.52706 -1.07022,0.52706m1.34931,-3.2332c-0.00537,-0.00644 -0.01073,-0.01503 -0.01825,-0.01932a1.23016,1.23016 0 0 0 -0.117,-0.10734c-0.00966,-0.00859 -0.01825,-0.01395 -0.02362,-0.02254c-0.29842,-0.23938 -0.69452,-0.38751 -1.19044,-0.38751c-0.497,0 -0.89095,0.14813 -1.19044,0.38644c-0.00751,0.00966 -0.01718,0.01503 -0.02469,0.02469c-0.03972,0.0322 -0.08051,0.06655 -0.11593,0.10627c-0.00751,0.00429 -0.01395,0.01288 -0.01932,0.01932c-0.39181,0.40361 -0.57429,0.98756 -0.57429,1.56722c0,0.5818 0.18248,1.16683 0.57536,1.57044l0.01825,0.02147c0.03542,0.0365 0.07621,0.07299 0.11593,0.10627l0.02469,0.0204c0.29949,0.24045 0.69344,0.38644 1.19152,0.38644c0.49486,0 0.89095,-0.14599 1.18937,-0.38644a1.55219,1.55219 0 0 0 0.15887,-0.14813c0.39181,-0.40361 0.57322,-0.98864 0.57322,-1.56937c0,-0.5818 -0.18141,-1.16468 -0.57322,-1.56829m2.24563,3.2332a0.76214,0.76214 0 0 1 -0.65909,-0.33384a1.32248,1.32248 0 0 1 -0.19966,-0.73853c0,-0.42723 0.12023,-1.14536 0.9135,-1.14536c0.39395,0 0.65265,0.2061 0.72779,0.58073l0.48734,0c-0.06441,-0.63011 -0.52169,-0.99186 -1.25163,-0.99186c-0.84802,0 -1.37078,0.59576 -1.37078,1.55649c0,0.91564 0.51954,1.48457 1.35897,1.48457c0.71384,0 1.1679,-0.39825 1.27954,-1.12282l-0.47983,0c-0.06441,0.45084 -0.35853,0.71062 -0.80615,0.71062m2.37659,-3.43501l-0.46802,0l0,0.87271l-0.49593,0l0,0.41327l0.49593,0l0,1.86134c0,0.54531 0.20395,0.63333 0.68807,0.63333l0.36068,0l0,-0.4122l-0.21469,0c-0.30486,0 -0.36604,-0.04508 -0.36604,-0.26621l0,-1.81626l0.58073,0l0,-0.41327l-0.58073,0l0,-0.87271zm3.17738,2.33044c0,0.66124 -0.36819,1.10564 -0.9135,1.10564c-0.54745,0 -0.91457,-0.4444 -0.91457,-1.10564c0,-0.66553 0.36604,-1.11316 0.91457,-1.11316c0.54531,0 0.9135,0.44655 0.9135,1.11316m-2.32507,0c0,0.92101 0.55604,1.51677 1.41157,1.51677c0.8566,0 1.4105,-0.59576 1.4105,-1.51677c0,-0.92638 -0.55389,-1.52428 -1.4105,-1.52428c-0.85553,0 -1.41157,0.59791 -1.41157,1.52428m5.55934,-0.02791c0,0.22006 -0.03435,0.5335 -0.19322,0.77932c-0.15028,0.23508 -0.38322,0.35423 -0.687,0.35423c-0.3113,0 -0.5496,-0.11486 -0.71276,-0.34028c-0.13955,-0.19322 -0.21361,-0.46158 -0.21361,-0.7718c0,-0.53672 0.23616,-1.10564 0.8974,-1.10564c0.62796,0 0.9092,0.54423 0.9092,1.08417m-1.76688,-1.03694l-0.00107,0.00429l-0.02147,0l0,-0.39717l-0.46695,0l0,4.0254l0.46695,0l0,-1.50818l0.02147,0l0,0.00322c0.20932,0.33491 0.62259,0.45406 0.93711,0.45406c0.80723,0 1.32677,-0.59254 1.32677,-1.51355c0,-0.70418 -0.34994,-1.5275 -1.33751,-1.5275c-0.44333,0 -0.78254,0.16746 -0.9253,0.45943m3.19563,1.57688l0,-1.96869l-0.46802,0l0,1.9118c0,0.34135 0.06977,0.59146 0.21147,0.76536c0.16531,0.19966 0.42186,0.29627 0.78576,0.29627c0.42938,0 0.74711,-0.17712 0.94463,-0.52599l0.00107,-0.00429l0.0204,0l0,0.46373l0.44011,0l0,-2.90687l-0.46802,0l0,1.64236c0,0.57536 -0.32525,0.91886 -0.86949,0.91886c-0.3639,0 -0.59791,-0.23294 -0.59791,-0.59254m4.54065,-0.49164c-0.18034,-0.12452 -0.42079,-0.19 -0.6548,-0.24045c-0.06119,-0.01718 -0.12559,-0.02898 -0.18678,-0.04508c-0.39717,-0.08588 -0.76966,-0.16746 -0.76966,-0.46909c0,-0.34135 0.43796,-0.37892 0.62582,-0.37892c0.19,0 0.6387,0.0483 0.68163,0.49164l0.46802,0c-0.03435,-0.60757 -0.42401,-0.90169 -1.18722,-0.90169c-0.2748,0 -0.54209,0.06977 -0.73209,0.19322a0.7192,0.7192 0 0 0 -0.35316,0.62904c0,0.55711 0.48949,0.71491 0.94999,0.81903c0.04508,0.00859 0.09124,0.02147 0.13633,0.03006c0.42294,0.09017 0.82118,0.17604 0.82118,0.51632c0,0.3639 -0.38644,0.44011 -0.71062,0.44011c-0.28661,0 -0.76858,-0.07192 -0.79005,-0.56356l-0.46909,0c0.03542,0.84909 0.78683,0.97683 1.23016,0.97683c0.28983,0 1.23445,-0.06655 1.23445,-0.91457a0.65909,0.65909 0 0 0 -0.29412,-0.58288"/>
   <path stroke="null" stroke-width="0.35278" fill-rule="nonzero" fill="#02bd70" transform="translate(31.61 -30.325)" d="m-18.50062,39.36984l0.00429,-0.00215l0.01503,0l0.05689,-0.00644l0.00751,0l0.11164,-0.01073l0.02469,-0.00215c0.30164,-0.02791 0.58717,-0.06441 0.85875,-0.1052l0.00322,0c0.08373,-0.27265 0.16316,-0.50774 0.27158,-0.73423c0.71384,-1.49745 1.65739,-2.18015 2.35083,-2.42275c0.47983,-0.17068 1.39762,-0.27051 1.69067,0.12881a1.27954,1.27954 0 0 0 -0.52062,-0.49056l-0.05153,-0.02362l-0.00322,-0.00215c-0.71813,-0.15887 -1.53502,-0.06119 -2.06959,0.10627a5.98442,5.98442 0 0 0 -1.99445,1.15609c-0.00751,0.00215 -0.01181,0.00859 -0.01718,0.01395c-0.04294,0.0365 -0.08588,0.07407 -0.12452,0.11271l-0.00644,0.00429a5.54968,5.54968 0 0 0 -0.36175,0.37034l-0.01395,0.01395a6.33758,6.33758 0 0 0 -0.20932,0.24904c-0.00537,0.00322 -0.00751,0.01073 -0.01395,0.01503l-0.08158,0.10734l-0.01825,0.02254l-0.08373,0.11486c0,0.00322 -0.00107,0.00537 -0.00322,0.00537l-0.08588,0.12452l-0.01395,0.01718c-0.02147,0.0365 -0.04294,0.0687 -0.06441,0.10305l-0.01932,0.0322c-0.02147,0.03006 -0.03972,0.06226 -0.06011,0.09339c-0.00322,0.00966 -0.01073,0.0161 -0.01503,0.02576c-0.02469,0.03864 -0.0483,0.07943 -0.07085,0.11808c-0.00107,0.00429 -0.00537,0.01073 -0.00859,0.01503c-0.01825,0.03435 -0.03757,0.06763 -0.05475,0.10198c-0.00644,0.01181 -0.01288,0.02469 -0.0204,0.03542c-0.01288,0.02791 -0.03006,0.05367 -0.04294,0.08265l-0.01825,0.03328c-0.01718,0.03972 -0.03757,0.07514 -0.05689,0.11378a7.7717,7.7717 0 0 0 -0.16316,0.34779l-0.09017,0.22113c0.41113,-0.03006 0.47231,-0.03972 0.96287,-0.08695"/>
   <path stroke="null" stroke-width="0.35278" fill-rule="nonzero" fill="#f5911f" transform="translate(31.61 -30.325)" d="m-12.41422,36.55635a1.77117,1.77117 0 0 0 -0.27051,-0.3596c-0.24904,-0.24152 -0.57322,-0.39503 -0.92638,-0.48197l-0.00322,0l-0.05367,-0.01288l-0.01073,-0.00215l-0.00215,0l0.00322,0.00107l0.05153,0.02362c0.28446,0.14921 0.60864,0.45514 0.60971,0.8287a0.98649,0.98649 0 0 1 -0.02147,0.15672c-0.04508,0.18248 -0.12452,0.36926 -0.2426,0.55497a2.83173,2.83173 0 0 1 -0.65265,0.69559c-0.64514,0.50559 -1.64236,0.94463 -3.04857,1.20762c-0.14277,0.02684 -0.28553,0.05045 -0.43689,0.07514l-0.00429,0c-0.27051,0.04186 -0.55604,0.07729 -0.85875,0.1052c-0.69881,0.06441 -0.71598,0.07299 -1.18508,0.10734l0.00215,-0.00322l-0.01073,0l-0.20932,0.0161c-0.63548,0.04508 -3.01207,-0.08373 -3.67331,-0.08373c-0.88988,0 -1.88067,0.11056 -2.8049,0.40576c-1.0509,0.32955 -2.02129,0.89417 -2.66642,1.7905a3.79568,3.79568 0 0 0 -0.6387,1.43411a2.88326,2.88326 0 0 0 0.21683,1.68315c0.20395,0.46587 0.57429,1.02299 1.26022,1.49852l0.0365,0.01395l0.01181,0.00429c0.00644,0.00107 0.01073,0.00215 0.01503,0.00537l0.00537,0l0.00966,0.00322c0.00107,0 0.00322,0 0.00537,0.00215l0.00859,0.00215c0.00215,0 0.00537,0 0.00751,0.00215l0.00751,0.00215l0.00751,0.00215l0.00751,0.00215l0.00859,0.00215c0.00215,0 0.00429,0 0.00644,0.00215l0.00859,0.00215a0.01288,0.01288 0 0 0 0.00644,0.00107a0.05045,0.05045 0 0 0 0.00859,0.00322l0.00644,0l0.01073,0.00429l0.00537,0a0.0322,0.0322 0 0 1 0.01073,0.00429l0.00322,0l0.04294,0.01073a0.71706,0.71706 0 0 0 0.05153,0.01073l0.0161,0.00322l0.01718,0.00322l0.01825,0.00429c0.00644,0 0.01181,0.00215 0.01718,0.00322l0.02791,0.00429l0.01073,0.00215a0.15565,0.15565 0 0 0 0.01718,0.00322l0.01288,0.00215l0.01718,0.00215l0.01288,0.00215a0.13955,0.13955 0 0 1 0.01718,0.00215l0.01288,0.00322l0.01718,0.00107l0.01395,0.00215l0.01718,0.00215a0.19322,0.19322 0 0 0 0.01288,0.00215l0.01932,0.00215l0.01288,0.00107l0.02898,0.00322l0.00215,0a0.69774,0.69774 0 0 0 0.06119,0.00537a0.23508,0.23508 0 0 0 0.02469,0.00322l0.00751,0l0.01932,0.00107c0.50666,0.04723 0.97039,-0.00644 1.34609,-0.08373l0.04294,-0.00859l0.04186,-0.00751l0,-0.00107a2.67072,2.67072 0 0 1 -0.35853,0.03006a2.18767,2.18767 0 0 1 -0.2265,0c-0.687,-0.03542 -1.21299,-0.35638 -1.5275,-0.85982a2.43885,2.43885 0 0 1 -0.26085,-0.66661l-0.00107,-0.00215l-0.0204,-0.10627c-0.00429,-0.01073 -0.00429,-0.02147 -0.00537,-0.03435l-0.01718,-0.09768a3.01958,3.01958 0 0 1 -0.03006,-0.41542c0.00322,-0.58073 0.18248,-1.27525 0.76966,-1.98694c0.66553,-0.80401 1.5157,-1.33106 2.39806,-1.66383a8.26655,8.26655 0 0 1 2.89721,-0.49915l0.00751,0.00215l0.17175,0c0.16316,0.00537 0.31774,0.01288 0.4648,0.02576c0.42938,0.03972 0.8083,0.09232 1.15287,0.15243c0.14491,0.02362 0.28768,0.0526 0.43152,0.07943l0.18141,0.03435c0.60542,0.11593 1.23231,0.23294 1.97513,0.27909c0.2061,0.01288 0.42079,0.01932 0.64728,0.01932l0.01073,0c2.48609,0 4.79505,-1.12496 4.94533,-3.04213c0.00644,-0.06011 0.00859,-0.12237 0.00966,-0.1857l0,-0.01718a1.78513,1.78513 0 0 0 -0.19644,-0.72457"/>
   <path stroke="null" stroke-width="0.35278" fill-rule="nonzero" fill="#024ad2" transform="translate(31.61 -30.325)" d="m-19.80592,40.22644c-0.3435,0.75677 -2.20914,4.72528 -5.36398,5.82555c-0.21469,0.07514 -0.43582,0.13633 -0.66339,0.18248a2.41953,2.41953 0 0 1 -0.04186,0.00966l-0.04294,0.00859c-0.3757,0.07621 -0.83836,0.13096 -1.34609,0.08373l-0.01932,-0.00215l-0.00751,0l-0.02362,-0.00215l-0.00537,0l-0.02576,-0.00215l-0.00215,0a0.67197,0.67197 0 0 0 -0.02898,-0.00429l-0.00215,0a3.00456,3.00456 0 0 1 -0.25118,-0.03542l-0.01718,-0.00322c-0.00644,0 -0.01073,-0.00107 -0.01718,-0.00322l-0.00107,0l-0.0161,-0.00322l-0.00215,0l-0.0161,-0.00322a1.62089,1.62089 0 0 1 -0.09339,-0.02147l-0.00322,0a0.02898,0.02898 0 0 0 -0.01181,-0.00322l-0.00537,-0.00107l-0.01073,-0.00429l-0.00537,0a0.05045,0.05045 0 0 1 -0.00859,-0.00322a0.01073,0.01073 0 0 1 -0.00644,-0.00215l-0.00859,-0.00215c-0.00215,0 -0.00537,0 -0.00751,-0.00215c-0.00215,0 -0.00537,0 -0.00859,-0.00215l-0.00751,-0.00107l-0.00644,-0.00215c-0.00322,0 -0.00537,-0.00215 -0.00859,-0.00322a0.01932,0.01932 0 0 0 -0.00644,-0.00107a0.1052,0.1052 0 0 0 -0.00859,-0.00215l-0.00537,-0.00215l-0.01073,-0.00322l-0.00429,0a0.0526,0.0526 0 0 0 -0.01503,-0.00537l-0.01288,-0.00429l-0.03542,-0.01395l0.04294,0.03328c0.21254,0.16316 1.22479,0.86197 2.92405,0.88022l0.06548,0c0.83836,0 2.02451,-0.28231 3.27077,-1.0627c2.06744,-1.29886 3.1602,-3.69263 3.81071,-5.42087l0.03542,-0.09124l0.01073,-0.03006c-0.74282,-0.04508 -1.36971,-0.16209 -1.97513,-0.27909"/>
  </g>
 </g>
</svg>