<svg xmlns="http://www.w3.org/2000/svg" fill="none" viewBox="0 0 38 24" height="24" width="38" aria-labelledby="pi-octoclicks" role="img"><title id="pi-octoclicks">Octo Clicks</title><path fill="#fff" d="M0 0h38v24H0z"/><path fill="#E72635" d="M17.967 8.94c.038-.052.058-.29.058-.345V7.443a.208.208 0 0 0-.075-.153.234.234 0 0 0-.148-.05h-4.994a.227.227 0 0 0-.156.055.188.188 0 0 0-.062.148v.013a.239.239 0 0 0 .093.189c.286.222.552.459.844.877.28.403.294.494.38.494h.498v4.892c0 .062.026.124.074.165.039.036.09.057.143.058h1.361a.2.2 0 0 0 .158-.067.222.222 0 0 0 .06-.151V9.016h1.6a.194.194 0 0 0 .166-.077v.001Z"/><path fill="#E72635" d="M20.165 12.25a1.525 1.525 0 1 1 0-3.05 1.525 1.525 0 0 1 0 3.05Zm3.422-2.462a3.673 3.673 0 0 0-.357-.85 3.504 3.504 0 0 0-1.275-1.275 3.609 3.609 0 0 0-.85-.358 3.467 3.467 0 0 0-.943-.127 3.464 3.464 0 0 0-1.566.365.616.616 0 0 0-.139.133.428.428 0 0 0-.086.26v.915c0 .24-.194.434-.433.434h-.722a.435.435 0 0 0-.41.293 3.529 3.529 0 0 0-.191 1.155 3.526 3.526 0 0 0 1.755 3.059c.543.32 1.162.486 1.792.482.63.003 1.25-.164 1.793-.483.263-.155.503-.34.72-.554.435-.431.75-.97.912-1.56a3.42 3.42 0 0 0 .128-.944 3.458 3.458 0 0 0-.128-.945ZM5.243 12.21a1.526 1.526 0 1 1 0-3.051 1.526 1.526 0 0 1 0 3.051Zm8.193-.309-1.472-.492a.263.263 0 0 0-.305.103 1.507 1.507 0 0 1-2.379.21 1.501 1.501 0 0 1-.402-1.024c0-.968-.387-1.847-1.014-2.49l-.03-.03a3.568 3.568 0 1 0-3.425 5.974l.069.014a3.555 3.555 0 0 0 3.166-.77l.207-.192a3.554 3.554 0 0 0 3.673.875 3.579 3.579 0 0 0 2.065-1.806.267.267 0 0 0-.153-.372Z"/><path fill="#E72635" d="M10.388 9.188c.467 0 .883.212 1.16.545a.27.27 0 0 0 .312.072l1.426-.6a.275.275 0 0 0 .125-.4 3.564 3.564 0 0 0-5.374-.788c.517.526.884 1.2 1.03 1.953a1.508 1.508 0 0 1 1.321-.782Z"/><path fill="#790008" d="M27.066 11.094h-.33c-.826 0-1.435.578-1.435 1.352 0 .94.718 1.353 1.25 1.353h.515v.454h-.516c-1.006 0-1.754-.774-1.754-1.807 0-.877.717-1.806 1.888-1.806h.382v.454Zm.475 3.159h.454V10.64h-.454v3.613Zm1.29 0h.454v-2.477h-.454v2.477Zm.227-3.303c.176 0 .274.134.274.273 0 .14-.098.274-.274.274a.265.265 0 0 1-.273-.274c0-.139.098-.273.273-.273Zm2.617 1.26h-.351c-.428 0-.851.278-.851.804s.423.805.85.805h.352v.434h-.434c-.578 0-1.243-.444-1.243-1.239 0-.795.665-1.238 1.243-1.238h.434v.434Zm.377 2.043V10.64h.454v2.054h.19c.192 0 .316-.072.383-.186l.428-.732h.516l-.325.557c-.098.17-.248.418-.387.454v.01c.366.073.567.29.567.728v.728h-.454v-.676c0-.31-.165-.45-.402-.45h-.516v1.126h-.454Zm2.168-.433h1.269c.211 0 .294-.083.294-.238 0-.454-1.564-.279-1.564-1.136 0-.438.305-.67.846-.67h1.069v.433h-1.146c-.222 0-.289.062-.294.217-.005.428 1.564.247 1.564 1.135 0 .47-.33.692-.77.692H34.22v-.434.001Zm-22.618 3.05h1.859v-1.86h-1.859v1.86Z"/><path fill="#fff" d="M12.842 15.362h-.988l.436.578h.989l-.437-.578Z"/><path fill="#ED1C24" d="M13.279 15.94h-.989l-.436.578h.988l.437-.578Z"/><path fill="#790008" d="M14.841 16.262a.388.388 0 0 1-.396.056.388.388 0 0 1-.238-.366.392.392 0 0 1 .634-.31l.004.002.168-.168-.004-.004a.64.64 0 0 0-1.054.48.639.639 0 0 0 1.054.48l.004-.004-.168-.169-.004.003Zm.401.288h.242v-1.197h-.242v1.197Zm1.197-.432-.422-.767h-.236v1.197h.241v-.715l.417.724.417-.724v.715h.241v-1.197h-.236l-.422.767Zm1.42.216h-.236v-.283h.236c.11 0 .15.073.15.14 0 .07-.04.143-.15.143Zm-.236-.764h.221c.093 0 .149.05.149.132s-.056.132-.149.132h-.221v-.264Zm.471.366a.28.28 0 0 0 .14-.245c0-.208-.142-.338-.371-.338h-.483v1.197h.502c.228 0 .37-.132.37-.346a.283.283 0 0 0-.158-.268Zm2.702-.576h.174l.417 1.186h-.145l-.113-.32h-.5l-.108.328h-.162l.437-1.195v.001Zm-.117.727h.4l-.196-.578h-.004l-.2.578Zm2.531-.727h.175l.416 1.186h-.145l-.113-.32h-.499l-.109.328h-.161l.437-1.195-.001.001Zm-.116.727h.4l-.197-.578h-.003l-.2.578Zm-.551-.573s-.45-.357-.853.023c0 0-.182.158-.172.489 0 0 .021.544.622.551 0 0 .256-.015.427-.116v-.567h-.396v.109h.28v.372s-.412.195-.645-.038c0 0-.186-.101-.148-.45 0 0 .078-.425.508-.399 0 0 .233.028.295.13l.082-.104Zm-2.507 1.032h.124v-1.195h-.124v1.195Zm-.443-1.196v.979l-.714-.978h-.124v1.195h.124v-.981l.714.981h.125v-1.195l-.125-.001Z"/><path fill="#000" d="M9.003 16.515v-1.198h.45c.092 0 .164.012.219.037a.294.294 0 0 1 .177.27c0 .051-.013.1-.042.145a.31.31 0 0 1-.125.108.295.295 0 0 1 .226.29.354.354 0 0 1-.035.157.32.32 0 0 1-.089.112.385.385 0 0 1-.13.059.791.791 0 0 1-.194.02h-.457Zm.159-.695h.26c.07 0 .12-.004.15-.013a.173.173 0 0 0 .092-.06.172.172 0 0 0 .03-.104c0-.04-.01-.075-.029-.105a.147.147 0 0 0-.082-.062.663.663 0 0 0-.182-.017h-.24v.361h.001Zm0 .554h.298a.543.543 0 0 0 .108-.007.27.27 0 0 0 .09-.031.2.2 0 0 0 .085-.169.19.19 0 0 0-.034-.116.172.172 0 0 0-.096-.07.587.587 0 0 0-.175-.02h-.276v.413Zm1.301.141v-.507l-.462-.69h.192l.236.36c.044.069.084.136.122.203.042-.071.085-.142.13-.211l.233-.353h.184l-.476.69v.508h-.16.001Z"/></svg>