<svg xmlns="http://www.w3.org/2000/svg" xmlns:xlink="http://www.w3.org/1999/xlink" fill="none" viewBox="0 0 38 24" height="24" width="38" aria-labelledby="pi-offlinebanktransferlatinamerica" role="img"><title id="pi-offlinebanktransferlatinamerica">Offline Bank Transfer Latin America</title><defs><path id="pi-offlinebanktransferlatinamerica-b" fill="#fff" d="M0 0h38v24H0z"/></defs><g clip-path="url(#pi-offlinebanktransferlatinamerica-a)"><use xlink:href="#pi-offlinebanktransferlatinamerica-b"/><path fill="#29CFD4" d="M10 19.373c0-.161.13-.292.292-.292h17.416c.161 0 .292.13.292.292v1.168H10v-1.168Zm16.054-8.076H11.946v7.784h14.108v-7.784Z"/><path fill="#086981" d="M10.973 18.4c0-.161.13-.292.292-.292h15.47c.162 0 .292.13.292.292v.681H10.973V18.4Z"/><path fill="#086981" d="M22.649 12.076c0-.162.13-.292.292-.292h.875c.162 0 .292.13.292.292v6.032h-1.46l.001-6.032Zm-2.919 0c0-.162.13-.292.292-.292h.875c.162 0 .292.13.292.292v6.032h-1.46l.001-6.032Zm-2.92 0c0-.162.132-.292.293-.292h.875c.162 0 .292.13.292.292v6.032h-1.46v-6.032Zm-2.918 0c0-.162.13-.292.292-.292h.876c.16 0 .291.13.291.292v6.032h-1.459v-6.032Z"/><path fill="#29CFD4" d="M18.256 4.157a.876.876 0 0 1 1.002 0l7.852 5.426c.743.514.392 1.714-.501 1.714H10.904c-.893 0-1.244-1.2-.5-1.714l7.852-5.426Z"/><path fill="#086981" d="M10.022 10.324c-.118.454.243.973.883.973h15.704c.64 0 1-.519.882-.973H10.022Zm8.735-1.459a1.46 1.46 0 1 0 .076-2.918 1.46 1.46 0 0 0-.076 2.918Z"/><path fill="#000" fill-opacity=".07" d="M26.054 18.108v-6.81H11.946l14.108 6.81Z"/></g><defs><clipPath id="pi-offlinebanktransferlatinamerica-a"><use xlink:href="#pi-offlinebanktransferlatinamerica-b"/></clipPath></defs></svg>