<svg xmlns="http://www.w3.org/2000/svg" width="38" height="24" fill="none" aria-labelledby="pi-omannet" role="img" viewBox="0 0 38 24"><title id="pi-omannet">OmanNet</title><path fill="#fff" d="M0 0h38v24H0z"/><path fill="#08A455" d="M23.6 7.5a.3.3 0 1 0 0-.6.3.3 0 0 0 0 .6m-1.4.4h-.1.7l-.1.1-.1.1c-.1.8.1 2.1 1.1 1.9.7-.2.8-1.4.7-1.9V8c-.1-.1-.1-.1 0-.1h.6c.1 0 .1 0 0 .1 0 .4 0 .9-.1 1.3-.4.8-1.5 1.1-2.2.4-.5-.5-.4-1.2-.4-1.8 0 0 0-.1-.1-.1zm-10.6 3.9c.8-.7 1.8-.7 2.4.1h.1c.3-.4.6-.6 1.1-.6 2.6-.2 1.1 3 1.9 3.2.1 0 .1.1.1.1 0 .1-.1.1-.1.1h-1.3c-.1 0-.1-.1-.1-.1 0-.1 0-.1.1-.1.4-.2.3-1.5.2-2-.1-.6-.4-.9-1-.8-.9.1-.8 1.4-.8 2.2 0 .3.1.5.3.7.1 0 .1.1 0 .2l-.1.1h-1.2c-.1 0-.1-.1-.1-.1 0-.1 0-.1.1-.1.2-.1.3-.3.3-.5V13c0-.5-.1-.9-.6-1.1-.7-.2-1.1.3-1.2 1-.1.6-.2 1.7.2 1.8.1 0 .1.1.1.1 0 .1-.1.1-.1.1h-1.2s-.1 0-.1-.1c-.1-.1 0-.2.1-.2 0 0 .1 0 .1-.1.3-.6.2-1.6.1-2.3 0-.1-.1-.3-.2-.3s-.1-.1-.1-.1 0-.1.1-.1l.8-.3c.1 0 .1 0 .1.1v.4c0 .1 0 .1.1 0zm8.6 2.6c-.2.2-.4.3-.5.3-.7.2-1.8.1-2.2-.6s.3-1.2 1-1.4c.5-.1 1-.2 1.5-.2 0 0 .1 0 .1-.1.1-1.2-1.9-1.1-2.1-.2 0 .1-.1.1-.2.1s-.1 0-.1-.1l-.2-.6s0-.1.1-.1c1.2-.5 3.3-.8 3.3 1.2v.8c0 .4-.1.7.3.8.1 0 .1.1.1.2l-.1.1h-.7s-.1 0-.1-.1v-.3h-.1zm-.9.1c.8-.1.8-.8.9-1.4 0 0 0-.1-.1-.1-.5 0-1.8 0-1.8.8 0 .6.5.8 1 .7m3.3-2.7c.6-.5 1.2-.6 1.9-.3.6.2.8.8.8 1.5q.022.602.1 1.2 0 .3.3.3c.1 0 .1.1.1.2s-.1.1-.1.1h-1.2c-.1 0-.1-.1-.1-.1 0-.1 0-.1.1-.1.2-.1.3-.2.3-.4v-1.7c-.1-.5-.4-.7-.9-.7-1 0-1 1.6-1 2.3 0 .2.1.4.3.5.1 0 .1.1.1.2l-.1.1H22c-.1 0-.1-.1-.1-.1s0-.1.1-.1c.2-.1.3-.3.3-.5 0-.7.1-1.4-.1-2a.2.2 0 0 0-.1-.1H22a.1.1 0 1 1 0-.2l.1-.1.8-.3s.1 0 .1.1v.3s0 .1.1 0z"/><path fill="#E10F12" d="M16.6 7.1a.3.3 0 1 0 0-.6.3.3 0 0 0 0 .6m.7 0a.3.3 0 1 0 0-.6.3.3 0 0 0 0 .6m2.9 0a.3.3 0 1 0 0-.6.3.3 0 0 0 0 .6m.6 2.2c-.2-.4-.1-1-.1-1.5a.2.2 0 0 0-.1-.1l-.1-.1.6-.1h.1c0 .7-.2 1.8.2 2.1h-5.2c-.5 0-.8 0-1-.1-.7-.3-.6-.8-.1-1.2.6-.4 1.2-.6 1.9-.4.1 0 .1 0 .1.1v.4c0 .1 0 .1-.1 0-.1-.2-.2-.3-.4-.4-1.2-.4-2 1.2-.6 1.3.8.1 1.6.1 2.3 0 0 0 .1 0 .1-.1V7.8s0-.1-.1-.1l-.1-.1.6-.1h.1v1.8s0 .1.1.1h1.9c.1 0 .1 0 0-.1zm15.6 2.3h.5c.1 0 .1.1.1.1l-.1.2s0 .1-.1.1h-.5s-.1 0-.1.1v1.1c0 .5-.1 1.2.5 1.4.1 0 .1.1.1.2l-.1.1c-.5 0-1.2.2-1.2-.7v-2.1c0-.1 0-.1-.1-.1h-.3c-.1 0-.2-.1-.2-.2s0-.1.1-.2c.4-.2.7-.4.9-.9 0-.1.1-.1.1-.1.1 0 .2.1.2.1v.8zm-9.7 0v2.1c0 .4.2.7.5.9.1 0 .1.1.1.2l-.1.1h-1.3c-.1 0-.1-.1-.1-.1 0-.1 0-.1.1-.1.3-.1.5-.4.5-.8v-2.4c0-.2-.1-.4-.4-.4a.112.112 0 1 1-.1-.2c0-.1.1-.1.1-.1h1.1l2.7 2.8h.1c.1-.6 0-1.4 0-1.8-.1-.3-.2-.6-.5-.8a.1.1 0 1 1 0-.2h1.3c.1 0 .1 0 .1.1v.2c-.4.1-.4.5-.4 1V15c0 .1-.1.1-.1.1h-.1l-3.3-3.3h-.1zm7.9 1.7s-.1 0-.1.1c-.2.6-.5.9-1 1-1 .3-1.8-.5-1.6-1.5 0 0 0-.1.1-.1h2.8c.1 0 .1-.1.1-.2-.4-1.2-1.9-1.6-2.9-1-.6.3-.9.8-.9 1.3-.2 2.2 3 2.7 3.8.8.1-.2 0-.4-.2-.4zm-2.6-.9c0-.4.4-.7 1-.7.5 0 1 .3 1 .7z"/><path fill="#08A455" d="M6.4 9.5c-.1 0-.1.1-.2.1L4.8 5.9l.2-.1zm-2.1 2.7L2 11.9v-.2h.1l2.2.3zm2.3 4.6-.2-.1.3-1.9H7l-.3 1.9v.1z"/><path fill="#E10F12" d="M8.8 14.5v-.1c2.1-1.3 1.6-4.2-.7-4.9 0 0-.1 0 0-.1l.3-1.9h-.2l-.3 1.9s0 .1-.1 0c-.4-.1-.9 0-1.3 0-.1 0-.1.1-.2.1-1.1.4-1.8 1.2-1.9 2.4v.2c0 .5.2 1 .5 1.5v.1L3 14.8l.1.2L5 13.9h.1q.75.75 1.8.9H7c.5 0 1-.1 1.4-.3h.1l1.8 3.6.2-.1-1.8-3.6zm-1.5.1c-1.5 0-2.7-1.1-2.7-2.5s1.2-2.5 2.7-2.5 2.7 1.1 2.7 2.5-1.2 2.5-2.7 2.5"/><path fill="#08A455" d="M12.5 6.7h-.1l-2.8 3.5s-.1.1-.1 0V10l2.8-3.4.3.2zm-2.6 5.5c0 1.4-1.2 2.5-2.7 2.5s-2.7-1.1-2.7-2.5 1.2-2.5 2.7-2.5 2.7 1.1 2.7 2.5m-.2 0c0-1.2-1.1-2.2-2.5-2.3-1.4 0-2.5 1-2.5 2.3 0 1.2 1.1 2.3 2.5 2.3s2.5-1 2.5-2.2z"/><path fill="#E10F12" d="M5.1 10 3.7 8.8l-.2.2 1.4 1.2c.1.1.1.1.2 0zm3.2-2.4a.5.5 0 1 0 0-1 .5.5 0 0 0 0 1"/><path fill="#08A455" d="M12.6 6.7a.5.5 0 1 0 0-1 .5.5 0 0 0 0 1m-7.8-.8a.5.5 0 1 0 0-1 .5.5 0 0 0 0 1m1.7 11.8a.5.5 0 1 0 0-1 .5.5 0 0 0 0 1m-5-5.5a.5.5 0 1 0 0-1 .5.5 0 0 0 0 1"/><path fill="#E10F12" d="M3.3 9.1a.5.5 0 1 0 0-1 .5.5 0 0 0 0 1m-.7 6.5a.5.5 0 1 0 0-1 .5.5 0 0 0 0 1m8 3.5a.5.5 0 1 0 0-1 .5.5 0 0 0 0 1"/></svg>