<svg xmlns="http://www.w3.org/2000/svg" width="38" height="24" fill="none" aria-labelledby="pi-omasp" role="img" viewBox="0 0 38 24"><title id="pi-omasp">OmaSp</title><path fill="#fff" d="M0 0h38v24H0z"/><path fill="#1DCA7A" d="M15.06 10.24c.76 0 1.2.51 1.2 1.36v3.56h.86v-3.61a1.85 1.85 0 0 0-2-2 1.87 1.87 0 0 0-1.85 1.16 1.91 1.91 0 0 0-1.87-1.12 2 2 0 0 0-1.76.91v-.76h-.75v5.42h.85v-3.41a1.52 1.52 0 0 1 1.61-1.51 1.22 1.22 0 0 1 1.25 1.36v3.56h.81V11.8a1.44 1.44 0 0 1 1.65-1.51zm17-1.7h.85v-.5a2.83 2.83 0 0 0-5.62.5c0 1.7 1 2.36 1 4a1.84 1.84 0 0 1-1.86 2 2 2 0 0 1-2-2.11A2.08 2.08 0 0 1 26 10.34h.3v-.75l-.35.05a2.75 2.75 0 0 0-2.36 2.81 2.78 2.78 0 0 0 2.81 2.86 2.73 2.73 0 0 0 2.76-2.81c0-1.8-1-2.46-1-4A1.88 1.88 0 0 1 30 6.43a1.91 1.91 0 0 1 2 1.71z"/><path fill="#1DCA7A" d="M32.87 9.59a2.29 2.29 0 0 0-2 1.16v-1H30v8.53h.86v-6a1.87 1.87 0 0 1 1.9-2 2 2 0 0 1 2 2.11 2.06 2.06 0 0 1-2 2.26 1.7 1.7 0 0 1-.9-.2v.75c.289.102.593.153.9.15a2.76 2.76 0 0 0 2.86-3 2.75 2.75 0 0 0-2.76-2.76zm-12.44 0c-1.16 0-2 .5-2.16 1.36h.86c.14-.5.65-.66 1.25-.66.75 0 1.35.3 1.35 1.11v.15a.44.44 0 0 1-.5.5h-1.3c-1.1 0-1.86.6-1.86 1.61s.81 1.65 2 1.65a1.81 1.81 0 0 0 1.7-.9v.75h.86V11.4c0-1.11-.86-1.81-2.21-1.81zm1.3 3.61a1.42 1.42 0 0 1-1.6 1.41c-.9 0-1.2-.5-1.2-1s.3-.95 1.1-.95h1c.3 0 .56 0 .7-.2v.75zM5.18 9.59a2.76 2.76 0 0 0-2.81 2.86 2.79 2.79 0 1 0 5.57 0 2.72 2.72 0 0 0-2.76-2.86m0 5a2 2 0 0 1-2-2.16 1.95 1.95 0 1 1 3.87 0 2 2 0 0 1-1.91 2.16z"/></svg>