<svg xmlns="http://www.w3.org/2000/svg" viewBox="0 0 38 24" width="38" height="24" role="img" aria-labelledby="pi-omtpay"><title id="pi-omtpay">OMT Pay</title><path opacity=".07" d="M35 0H3C1.3 0 0 1.3 0 3v18c0 1.7 1.4 3 3 3h32c1.7 0 3-1.3 3-3V3c0-1.7-1.4-3-3-3z" fill="#000"/><path d="M35 1c1.1 0 2 .9 2 2v18c0 1.1-.9 2-2 2H3c-1.1 0-2-.9-2-2V3c0-1.1.9-2 2-2h32z" fill="#fff"/>
  <path fill="#fedc00" d="M33.81,16.92c-.9.46-1.89.71-2.9.71H7.09c-1.01,0-2.01-.25-2.89-.71s-1.7-1.16-2.26-2.01c-1.17-1.77-1.17-4.05,0-5.83.56-.85,1.33-1.54,2.25-2.01s1.9-.71,2.92-.71h23.79c1.02,0,2.02.25,2.92.71s1.69,1.16,2.25,2.01c1.17,1.77,1.17,4.05,0,5.83-.56.84-1.33,1.54-2.25,2.01ZM19.14,16.34c.7-.47,1.26-1.08,1.67-1.8.95-1.66.88-3.7-.17-5.3s-2.83-2.51-4.73-2.51H7.04c-1.84,0-3.58.86-4.64,2.35-1.25,1.76-1.26,4.09-.02,5.86.48.69,1.12,1.27,1.88,1.68.82.44,1.74.7,2.68.7h9.15c1.09,0,2.15-.39,3.05-.99ZM26.77,10.94c.02-.66-.15-1.27-.82-1.49-.2-.06-.4-.09-.61-.09h-1.76s0,4.66,0,4.66h.52s0-1.57,0-1.57h1.26c.2,0,.39-.04.58-.1.62-.21.82-.79.84-1.41ZM29.4,13.81c.1.1.2.15.32.2.16.05.31.07.48.07l.02-.4c-.19-.02-.39-.11-.39-.29v-1.74c0-.19-.02-.36-.09-.53-.16-.45-.61-.54-1.07-.54-.43,0-.84.06-1.25.15l.02.39c.47-.05.91-.09,1.37-.08.26,0,.44.16.49.41.03.17.02.34.02.51l-1.11.11c-.43.04-.83.21-.94.64-.06.25-.06.51,0,.76.09.35.38.58.74.61.47.04.93-.07,1.38-.26ZM33.4,10.65h-.51s-.85,2.92-.85,2.92c-.08,0-.15,0-.22,0l-.84-2.92h-.51s.96,3.37.96,3.37h.5s-.44,1.49-.44,1.49h.51s1.4-4.86,1.4-4.86Z"/>
  <path fill="#fff" d="M19.14,16.34c-.9.6-1.96.98-3.05.98H6.95c-.94,0-1.87-.25-2.68-.69-.76-.41-1.4-.99-1.88-1.68-1.24-1.76-1.23-4.1.02-5.86,1.06-1.49,2.79-2.35,4.64-2.35h8.87c1.9,0,3.7.93,4.73,2.51s1.12,3.64.17,5.3c-.41.71-.97,1.33-1.67,1.8ZM7.82,13.55c.74-.54,1.3-1.39,1.29-2.32,0-.56-.26-1.08-.7-1.42-.49-.38-1.12-.51-1.73-.44-.67-.07-1.34.23-1.78.73-.4.32-.72.7-.93,1.16-.39.84-.34,1.81.39,2.43.53.46,1.27.59,1.96.48.56,0,1.12-.24,1.52-.63ZM16.51,10.26l-.88,3.86h.94s.89-3.87.89-3.87h1.47s.18-.81.18-.81h-5.1s-2.15,3.55-2.15,3.55l-.54-3.55h-1.3s-1.07,4.68-1.07,4.68h.94s.81-3.51.81-3.51l.5,3.51h.79s2.11-3.52,2.11-3.52l-.8,3.52h.93s.89-3.87.89-3.87h1.4Z"/>
  <path fill="#000" d="M26.77,10.94c-.02.62-.22,1.2-.84,1.41-.19.06-.38.1-.58.1h-1.26s0,1.57,0,1.57h-.52s0-4.66,0-4.66h1.76c.21,0,.41.03.61.09.67.22.84.83.82,1.49ZM26.17,10.38c-.07-.26-.25-.44-.5-.51-.11-.03-.23-.05-.35-.05h-1.24s0,2.17,0,2.17h1.27c.21,0,.4-.08.55-.21.35-.31.37-.97.26-1.4Z"/>
  <path fill="#000" d="M29.4,13.81c-.44.19-.9.3-1.38.26-.36-.03-.65-.25-.74-.61-.07-.25-.07-.51,0-.76.11-.43.51-.6.94-.64l1.11-.11c0-.17,0-.34-.02-.51-.05-.25-.23-.41-.49-.41-.46,0-.9.04-1.37.08l-.02-.39c.41-.08.83-.14,1.25-.15.46,0,.91.08,1.07.54.06.17.08.34.08.53v1.74c0,.18.2.27.39.29l-.02.4c-.17,0-.32-.02-.48-.07-.12-.05-.22-.09-.32-.2ZM27.8,13.36c.07.19.22.29.41.3.38.01.75-.07,1.11-.21v-1.11s-1.06.1-1.06.1c-.11.02-.22.05-.31.11-.23.17-.24.53-.15.81Z"/>
  <path fill="#000" d="M33.4,10.65l-1.4,4.86h-.51s.44-1.49.44-1.49h-.5s-.96-3.37-.96-3.37h.51s.84,2.92.84,2.92c.07.01.14,0,.22,0l.85-2.92h.51Z"/>
  <polygon fill="#000" points="16.51 10.26 15.11 10.25 14.22 14.12 13.29 14.12 14.09 10.6 11.98 14.12 11.19 14.12 10.69 10.61 9.88 14.12 8.94 14.12 10.01 9.44 11.31 9.44 11.85 12.99 14 9.44 19.1 9.44 18.92 10.25 17.45 10.25 16.56 14.12 15.62 14.12 16.51 10.26"/>
  <path fill="#000" d="M7.82,13.55c-.4.38-.96.64-1.52.63-.69.11-1.42-.02-1.96-.48-.72-.62-.77-1.6-.39-2.43.21-.46.54-.85.93-1.16.44-.5,1.11-.8,1.78-.73.62-.07,1.24.06,1.73.44.44.35.69.86.7,1.42.02.94-.55,1.78-1.29,2.32ZM7.28,13.79c.55-.3.91-.83,1-1.46.09-.69-.06-1.39-.42-1.99-.34-.55-.89-.93-1.56-.85-.51.06-.97.3-1.3.68-.25.28-.4.6-.46.98-.1.63,0,1.28.29,1.85.15.31.36.57.64.77.57.41,1.23.35,1.83.02Z"/>
  <path fill="#fedc00" d="M26.17,10.38c.11.43.09,1.09-.26,1.4-.16.13-.34.2-.55.2h-1.27s0-2.17,0-2.17h1.24c.12,0,.23.02.35.05.25.07.43.26.5.51Z"/>
  <path fill="#fedc00" d="M27.8,13.36c-.08-.28-.08-.64.15-.81.09-.06.2-.09.31-.11l1.06-.1v1.11c-.36.14-.73.22-1.11.21-.19,0-.35-.11-.41-.3Z"/>
  <path fill="#fedc00" d="M7.28,13.79c-.6.33-1.26.38-1.83-.02-.28-.2-.49-.46-.64-.77-.28-.57-.38-1.22-.29-1.85.06-.37.21-.7.46-.98.34-.38.8-.62,1.3-.68.67-.08,1.22.3,1.56.85.36.59.52,1.3.42,1.99-.09.63-.44,1.16-1,1.46ZM6.61,13.88c.82-.13,1.42-.79,1.5-1.6.06-.61-.07-1.22-.37-1.76-.33-.59-.87-1-1.56-.88-.27.05-.52.14-.75.3-.42.29-.68.74-.74,1.25-.1.84.17,1.83.82,2.38.31.26.7.37,1.11.31Z"/>
  <path fill="#000" d="M6.61,13.88c-.41.06-.8-.05-1.11-.31-.65-.55-.92-1.54-.82-2.38.06-.51.32-.96.74-1.25.23-.16.48-.25.75-.3.7-.12,1.23.29,1.56.88.3.53.43,1.15.37,1.76-.08.82-.68,1.47-1.5,1.6ZM6.27,13.39c.71-.1,1.33-.54,1.67-1.16.04-.06.05-.12.05-.2,0-.61-.19-1.24-.56-1.72-.29-.14-.59-.17-.9-.13-.76.11-1.44.62-1.74,1.33,0,.62.18,1.27.58,1.75.28.13.57.17.9.13Z"/>
  <path fill="#fff" d="M6.27,13.39c-.32.04-.61,0-.9-.13-.4-.48-.59-1.13-.58-1.75.3-.71.98-1.23,1.74-1.33.31-.04.61,0,.9.13.37.48.56,1.12.56,1.72,0,.07-.02.13-.05.2-.34.62-.95,1.06-1.67,1.16Z"/>
</svg>
