<svg width="38" height="24" role="img" viewBox="0 0 38 24" xmlns="http://www.w3.org/2000/svg" aria-labelledby="pi-onecard"><title id="pi-onecard">onecard</title><title>Layer 1</title><path opacity=".07" d="M35 0H3C1.3 0 0 1.3 0 3v18c0 1.7 1.4 3 3 3h32c1.7 0 3-1.3 3-3V3c0-1.7-1.4-3-3-3z" id="svg_1"/><path fill="#fefffc" d="M34.752.94c1.1 0 2 .9 2 2v18c0 1.1-.9 2-2 2h-32c-1.1 0-2-.9-2-2v-18c0-1.1.9-2 2-2h32" id="svg_2" stroke="null"/><g stroke="null"><g stroke="null" id="svg_65" fill-rule="evenodd"><path fill="#15557f" d="M11.648 1.387c-.019.008-.034.03-.034.049 0 .043-.118.156-.164.156-.081 0-.284.248-.284.348v.098l-.217.008-.217.008-.008.105-.01.105h-.188c-.208 0-.255.027-.255.145 0 .078-.002.079-.18.079-.197 0-.268.04-.268.15 0 .058-.02.066-.242.096-.3.04-.43.146-.43.352 0 .06-.014.07-.104.078-.104.009-.106.011-.114.137l-.008.129.188-.026c.147-.02.198-.04.24-.093a.173.173 0 01.143-.069c.129-.002.222-.063.258-.171.031-.09.037-.094.162-.084.176.012.303-.035.36-.135.036-.064.074-.088.163-.102.08-.013.125-.037.143-.078.015-.032.093-.088.173-.124a.512.512 0 00.201-.153.267.267 0 01.147-.11c.05-.012.09-.04.09-.062s.03-.047.064-.057c.18-.051.354-.144.362-.193.009-.057.043-.08.175-.12.061-.017.09-.048.11-.117.02-.066.051-.102.106-.122.044-.015.073-.037.066-.048-.007-.012-.002-.061.012-.11l.025-.088-.215.003c-.118 0-.23.008-.25.016m9.96.001a.605.605 0 00.154 0c.043-.006.008-.011-.076-.011-.085 0-.12.005-.077.011m1.092.007c.622.017.662.027.639.176-.005.027-.064.02.486.05.555.03 1.038.073 1.073.095.013.008.14.028.282.044.142.016.304.052.36.081.057.029.191.08.3.116.18.06.397.201.524.343.027.03.096.07.154.09.13.045.176.109.118.165-.068.067-.453.012-.563-.08a.365.365 0 00-.117-.074.772.772 0 00-.352.061c-.068.03-.175.062-.237.072-.142.023-.438.304-.492.467-.027.081-.045.102-.08.087-.256-.104-1.245-.136-1.6-.052-.113.027-.4.05-.76.062-.608.02-.634.025-.581.107.101.158.208.172 1.355.187 1.155.015 1.399.04 1.617.168.065.038.173.084.24.102.068.018.186.076.262.129a.685.685 0 00.172.095c.095 0 .73.698.814.896.03.069.089.166.131.216.043.05.092.144.11.21.018.066.053.182.078.26.041.126.045.492.037 4.014l-.009 3.875-.071.316c-.05.22-.092.341-.139.397a1.09 1.09 0 00-.127.214.94.94 0 01-.139.22l-.187.198c-.06.062-.12.133-.134.158-.027.049-.318.274-.353.274a.937.937 0 00-.169.096c-.08.054-.234.124-.342.157a2.865 2.865 0 00-.322.12l-.126.06h-7.945l-.21-.089a3.002 3.002 0 00-.345-.122 1.376 1.376 0 01-.336-.171l-.27-.184c-.073-.048-.342-.322-.495-.505a.986.986 0 01-.137-.23.776.776 0 00-.126-.21c-.056-.06-.1-.164-.154-.363l-.075-.28-.01-2.196c-.012-2.743 0-2.62-.268-2.77l-.111-.062-.08.076c-.067.064-.095.074-.186.06l-.331-.047c-.663-.092-.955-.192-1.08-.372-.016-.022-.028-.85-.037-2.38-.002-.34.017-.409.11-.409.082 0 .137-.286.075-.384-.068-.107-2.088-.139-3.047-.047-.169.016-.178.013-.263-.072a.367.367 0 00-.168-.098.365.365 0 01-.109-.028c-.02-.013-.027.058-.021.228l.008.247 1.56.008 1.56.007V5.3c0 .093-.012.125-.043.125-.165 0-.154-.296-.154 4.14v4.03l.098.108.098.108.002.445c.003.633.062.76.354.764l.09.002.008.216.008.217.105.009.105.009v.2c0 .293.039.41.141.43.068.014.082.03.082.095 0 .112.068.166.207.166.128 0 .241.084.241.177 0 .036.026.047.112.047.11 0 .112.003.112.1 0 .147.068.287.15.307.051.013.076.045.093.12.027.113.077.137.295.142.127.003.133.007.133.081 0 .12.047.146.258.146.183 0 .19.002.19.068 0 .131.06.155.394.155.3 0 .307.002.333.07.034.087.19.154.363.154.097 0 .146.015.183.056.08.089 9.013.089 9.093 0 .038-.042.086-.056.193-.056.234 0 .352-.045.37-.141l.017-.083h.303c.329 0 .39-.024.39-.155 0-.066.007-.068.19-.068.21 0 .257-.027.257-.146 0-.075.006-.078.139-.078.204 0 .275-.036.296-.15.014-.073.036-.102.088-.115.08-.02.149-.16.149-.308v-.099l.133-.002c.21-.005.267-.03.293-.131.018-.07.038-.09.09-.09.091 0 .155-.071.155-.17 0-.068.012-.082.067-.082.11 0 .137-.067.151-.365l.014-.279h.09c.146 0 .293-.148.317-.322.016-.114.03-.14.08-.148.176-.025.162.426.17-5.317.01-5.692.017-5.366-.117-5.391-.092-.017-.093-.02-.11-.202-.015-.16-.03-.199-.111-.285a.642.642 0 01-.112-.148c-.012-.034-.047-.05-.115-.05h-.097l-.009-.216-.008-.217-.105-.009c-.1-.008-.105-.013-.105-.105 0-.145-.068-.287-.147-.307-.049-.012-.075-.045-.093-.12-.022-.088-.04-.106-.13-.128-.07-.017-.105-.042-.105-.073 0-.081-.1-.142-.262-.159-.155-.016-.155-.016-.164-.117-.007-.095-.014-.102-.113-.11-.09-.007-.105-.018-.105-.077 0-.083-.264-.346-.35-.348-.075 0-.124-.035-.163-.113-.067-.133-.089-.135-2.327-.131-1.154.002-1.836.01-1.516.019m3.79.33c.03.054.026.066-.025.093-.066.035-.12-.011-.094-.081a.329.329 0 00.014-.093c0-.063.04-.031.104.081m2.217 2.433c0-.041.008-.044.04-.014.021.02.033.046.026.057-.007.012.003.021.023.021.057 0-.01.05-.095.071-.074.018-.077.015-.077-.087 0-.1.003-.103.041-.052.038.05.041.05.042.004m-6.252 2.087c-.113.034-.206.102-.354.257l-.147.155c-.09.096-.128.249-.128.515 0 .122-.021.406-.046.631l-.046.41.087.278c.07.224.102.287.164.326.043.027.14.098.214.158.288.23.975.198 1.108-.051a.334.334 0 01.108-.1.467.467 0 00.14-.177c.139-.298.145-.342.145-1.014v-.64l-.109-.203c-.14-.264-.476-.553-.642-.554-.057 0-.165-.006-.242-.013a.8.8 0 00-.252.022m-3.553.023a.271.271 0 00-.151.076.434.434 0 01-.151.102c-.068.028-.116.071-.134.12a.39.39 0 01-.103.138l-.075.062-.02.666c-.012.366-.03.701-.04.746-.036.149.042.552.12.617.038.032.11.098.162.146.317.305.922.258 1.264-.098.243-.253.279-.385.21-.765a5.323 5.323 0 01-.032-.671c.002-.513-.015-.62-.118-.75a3.664 3.664 0 01-.115-.153c-.028-.04-.074-.072-.103-.072-.03 0-.08-.033-.112-.075-.064-.082-.37-.127-.602-.09m.28.385c.061.028.145.06.185.07.062.015.077.038.093.147.025.167-.005.2-.143.157-.1-.03-.11-.027-.226.072-.295.251-.313.257-.389.11-.123-.237-.114-.258.219-.53.11-.09.117-.091.26-.026m-1.01 4.5c-.313.04-.441.555-.263 1.05l.099.274c.025.069.074.157.11.195.034.039.103.13.152.203.05.073.124.15.165.172.042.022.101.068.132.102.03.035.119.105.196.157.077.052.171.119.21.15.133.104.95.288 1.229.274.42-.02.78-.269.886-.613.086-.283-.304-.58-.69-.526-.388.055-.862-.002-1.044-.125-.272-.184-.605-.643-.703-.969-.044-.148-.273-.373-.364-.359l-.116.016m-1.753 7.469c-.063.017-.104.121-.1.255.002.057.009.082.016.056.013-.05.048-.067.205-.093a.311.311 0 00.124-.043c.035-.035.08-.034.057.002-.009.015-.002.028.016.028.018 0 .026-.018.017-.04-.026-.067.096-.148.226-.149.108 0 .12.007.151.092.036.099.087.124.253.124.147 0 .24.043.257.118.008.035.01-.015.007-.11-.004-.097-.022-.192-.041-.21-.035-.035-1.075-.062-1.188-.03m3.03 0c-.11.015-.196.079-.196.147 0 .037-.05.052-.256.076-.237.027-.263.037-.337.12a.321.321 0 01-.18.105c-.054.01-.103.03-.108.047a2.182 2.182 0 00-.026.108c-.013.062-.033.077-.095.077-.353 0-.501.855-.2 1.161.085.087.146.126.198.126.064 0 .078.015.093.1.022.112.096.154.263.148.084-.004.089-.006.026-.016-.042-.007-.077-.025-.077-.04 0-.017-.018-.023-.04-.015-.044.017-.126-.063-.11-.108.006-.015-.04-.07-.101-.121-.062-.051-.113-.105-.113-.12 0-.014-.024-.053-.055-.085-.03-.033-.047-.072-.037-.087.01-.016.003-.02-.014-.009-.047.029-.115-.095-.136-.248-.014-.107-.01-.13.018-.112.028.017.032.004.018-.059-.013-.053-.01-.068.006-.043.021.032.03.029.044-.015.02-.065.24-.293.266-.276.01.006.021-.028.025-.077.004-.048.016-.094.027-.103a.296.296 0 00.05-.07.435.435 0 01.304-.183c.049 0 .105-.015.126-.035.028-.025.033-.025.019 0-.013.023.005.031.063.027.045-.003.077-.014.07-.025-.006-.01.002-.027.018-.037.016-.01.026-.002.021.017-.008.035.168.089.209.063.012-.007.022-.053.023-.102 0-.104.188-.272.336-.303.424-.088.93-.011.874.133-.017.046.082.063.401.069.307.005.331.011.355.095.01.031.013-.022.009-.118a.596.596 0 00-.03-.196c-.022-.022-1.583-.036-1.75-.015m4.403.074l-.11.095v.612l.11.142c.13.172.164.18.64.174l.342-.005.014.869c.008.477.023.877.035.889.011.011.01.034-.003.05-.085.11-.061.217.045.208.141-.012.201-.4.062-.4-.035 0-.041-.1-.042-.658l-.001-.657.016.657.015.658.004-.798c.002-.438-.007-.766-.02-.727-.02.067-.022.066-.024-.02-.004-.11-.067-.152-.175-.114a1.81 1.81 0 01-.386.017c-.33-.01-.38-.03-.404-.163a.3.3 0 00-.018-.07.436.436 0 01-.017-.084.826.826 0 00-.074-.202c-.06-.116-.06-.12-.009-.168.029-.027.043-.032.03-.01-.015.027-.011.032.012.018.02-.012.027-.028.018-.037-.034-.034.082-.118.164-.119.102 0 .158-.03.166-.09.013-.086.09-.128.219-.12.196.012.243.035.235.113-.007.06.005.069.12.084a.69.69 0 01.179.043c.043.024.049.013.049-.094 0-.185-.006-.187-.575-.187h-.507l-.11.094m-7.532.442c-.003.074-.02.137-.04.145-.028.01-.027.014 0 .016.05.003.068-.057.055-.184-.01-.104-.01-.103-.015.023m1.318.177c0 .093.006.127.012.077a.746.746 0 000-.168c-.007-.042-.012-.001-.012.091m3.577-.03c-.007.223-.208.406-.455.413-.098.002-.229.007-.29.01-.231.01-.291-.012-.31-.116-.01-.052-.035-.095-.054-.095-.044 0-.08.122-.04.136.035.012-.1.086-.166.092-.19.015.333.048.75.047.466-.002.518.003.552.049.026.036.037.04.037.01 0-.024.016-.016.042.022a.55.55 0 00.209.121c.157.058.216.113.18.169-.008.014.017.025.057.025.085 0 .183.09.183.168 0 .031.019.056.042.056.131 0 .151.08.151.614 0 .278-.01.505-.023.505-.014 0-.019.023-.012.05.009.032-.02.082-.08.136-.05.048-.108.11-.128.14-.02.028-.028.033-.019.01.01-.023-.002-.017-.027.013-.024.03-.044.044-.044.031 0-.012-.015-.011-.035.003a.341.341 0 01-.132.034c-.187.016-.125.037.076.026.397-.021.438-.1.45-.859.011-.693.018-.663-.213-.897-.205-.207-.274-.253-.38-.253-.054 0-.073-.018-.088-.086-.023-.105-.097-.137-.33-.141-.152-.003-.162-.006-.076-.026.147-.034.232-.249.19-.477-.008-.037-.015-.006-.017.07m-9.05.008c-.1.026-.16.751-.07.842.054.053.264.045.219-.009-.056-.066-.014-.77.049-.818.048-.037-.077-.046-.198-.015m1.849.01c.034.013.063.04.063.06 0 .026.009.024.03-.006.022-.033.026-.027.02.028-.007.06.002.069.061.062.056-.007.062-.002.028.02-.034.024-.03.03.021.03.048 0 .063-.016.063-.068 0-.106-.07-.156-.218-.154-.107.001-.12.006-.068.027m1.509-.01c-.073.02-.104.124-.104.351 0 .234.024.244.032.013.003-.087.015-.159.028-.159.012 0 .016-.016.009-.037-.018-.046.085-.143.125-.118.017.01.03.006.03-.01 0-.015.035-.032.077-.039.053-.008.042-.012-.035-.012a.848.848 0 00-.162.012m9.556-.001c-.02.007-.035.04-.035.074v.06l.042-.06c.027-.04.08-.065.147-.072l.105-.011-.112-.003a.562.562 0 00-.147.012m.914.002c.085.016.133.064.15.15.01.057.013.055.016-.018.005-.109-.04-.154-.149-.15-.073.004-.075.007-.017.018m.651.013c-.039.039-.046.201-.008.178.014-.01.022-.038.019-.064-.01-.062.041-.116.098-.105a.135.135 0 00.084-.017c.027-.017.01-.025-.06-.025-.055 0-.114.014-.133.033m1.982-.008c.184.036.222.12.223.485v.217h.084c.056 0 .084.014.084.042 0 .023.012.042.028.042.04 0 .036-.513-.006-.554-.018-.019-.069-.034-.112-.034-.064 0-.078-.012-.078-.068 0-.103-.071-.156-.205-.153l-.117.004.099.019m-14.182.224c.104.066.259.245.28.324.017.06.02.041.01-.069-.015-.18-.067-.242-.224-.267-.083-.013-.1-.01-.066.012m11.832-.001c-.075.02-.107.097-.108.255 0 .102.006.095.035-.036.01-.048.03-.07.049-.059.018.011.024.007.013-.01-.022-.036.048-.098.08-.07.012.011.014.006.004-.012-.011-.02.012-.043.059-.06.096-.036-.011-.042-.132-.008m-3.359.222c-.056.017-.075.048-.097.16a.617.617 0 01-.09.219c-.124.157-.137 1.703-.015 1.855a.781.781 0 01.09.142c.022.05.05.063.14.063.106 0 .112-.004.084-.057-.017-.031-.04-.051-.05-.045-.01.007-.036-.006-.056-.027-.02-.021-.026-.04-.014-.04.012 0-.005-.024-.039-.052-.111-.093-.085-2.124.027-2.055.016.01.02.005.011-.01-.022-.037.048-.1.08-.071.012.011.014.006.003-.012-.032-.057.468-.085.704-.039.005.001.002.014-.008.03-.01.015 0 .02.023.011.044-.016.17.128.197.227.008.03.009-.007 0-.084-.023-.218-.035-.223-.508-.23a3.515 3.515 0 00-.482.015m2.107.257c0 .084.005.119.012.076a.604.604 0 000-.153c-.007-.043-.012-.008-.012.077m1.11.074c0 .103.007.18.014.174.026-.027.038-.36.013-.36-.014 0-.026.084-.026.186m-11.4-.079c.005.026.01.08.01.12.003.07.078.119.152.1.028-.007.103.126.086.153-.007.01.003.029.02.04.022.013.027.007.013-.02-.011-.02-.003-.017.02.01.021.026.048.04.059.029.01-.011.01.004 0 .033-.015.036-.01.046.012.032.024-.015.033.047.033.235s-.01.25-.033.235c-.023-.014-.027-.004-.013.032.011.03.012.044 0 .033-.01-.01-.037.002-.059.03-.022.026-.03.03-.019.008.014-.026.01-.032-.014-.018-.019.012-.027.028-.02.036.03.03-.043.124-.082.109-.022-.009-.04-.003-.04.013s-.012.022-.026.013c-.08-.05-.133.145-.122.453.001.02-.01.035-.026.035-.015 0-.053.032-.083.07-.071.091-.219.171-.22.12 0-.022-.008-.025-.02-.008-.011.016-.068.03-.126.032-.142.006-.188.027-.189.086 0 .103-.05.134-.243.15l-.19.017.197.005c.217.004.264-.02.264-.138 0-.075 0-.075.26-.088.28-.015.319-.008.273.047-.11.133-.063.535.069.59.125.053.134.051.098-.016-.037-.068-.032-.581.005-.604.015-.01.02-.034.012-.056-.009-.021-.003-.039.012-.039s.024-.016.02-.035c-.004-.02.009-.032.028-.028.02.004.035-.003.035-.016 0-.013.059-.026.13-.029.193-.007.187-.032-.007-.032-.109 0-.19.016-.232.046-.104.073-.05-.117.068-.242a.396.396 0 00.102-.18c.007-.066.027-.087.1-.105.12-.032.133-.087.133-.57 0-.426-.018-.487-.143-.487-.05 0-.077-.026-.106-.095-.044-.105-.216-.197-.198-.106m.697.914c0 .462.004.654.008.428.005-.226.005-.603 0-.839-.004-.236-.008-.05-.008.411m12.57-.75c-.043.011-.048.053-.047.381 0 .343.003.362.04.278.035-.08.082-.107.161-.094.012.001.022-.044.023-.102 0-.058.007-.19.013-.294l.012-.189-.076.004a.73.73 0 00-.126.016m-.76.155c-.015.034-.053.05-.12.05h-.099l.013.305c.013.328.033.38.159.407.084.018.203.18.138.186-.122.01.17.044.363.041.245-.003.282-.022.269-.136l-.01-.083c0-.012-.153-.021-.337-.021h-.336v-.068a.155.155 0 00-.157-.156c-.116 0-.088-.232.03-.252.07-.012.086-.03.106-.125.027-.132.015-.226-.02-.148m-13.6.102c.013.14.028.16.135.186.106.026.1-.029-.017-.139a.662.662 0 01-.112-.129c-.01-.022-.013.014-.007.082m5.569.296c-.015.076-.033.098-.092.107-.041.007.319.013.8.016l.874.004v.224h-1.567c-1.388 0-1.566.005-1.566.043 0 .023.018.05.042.059.023.008.042.038.042.066 0 .078.085.082 1.628.078 1.604-.004 1.47.013 1.485-.197.008-.11.002-.154-.02-.14-.016.01-.014-.003.006-.027.022-.027.026-.052.01-.062-.015-.009-.025-.07-.023-.135.004-.113 0-.12-.08-.127-.083-.007-.175.104-.136.166.017.028-.38.032-.63.006-.127-.013-.17-.028-.159-.055.008-.02 0-.046-.017-.056-.02-.013-.023-.007-.008.017.017.027.01.033-.024.02-.054-.021-.06.01-.011.06.028.028.026.032-.008.02-.06-.024-.123-.128-.076-.128.024 0 .021-.01-.007-.028a.772.772 0 00-.243-.027h-.202l-.018.096m-5.602.237l-.104.11-.66.01c-.712.008-.742.015-.758.157-.007.055-.027.077-.079.084-.19.027-.206.52-.018.59.047.018.075.06.093.132.028.12.079.144.303.144.077 0 .115-.007.084-.015-.067-.017-.117-.081-.136-.176-.01-.046-.048-.087-.11-.116-.138-.066-.218-.484-.105-.554.016-.01.293-.013.616-.006.663.014.797 0 .776-.076-.009-.034.014-.066.069-.099.05-.03.087-.08.098-.13.013-.069.123-.175.14-.135.002.007.013.002.025-.01.011-.01-.013-.02-.055-.02-.052 0-.108.035-.18.11m12.516.087a.72.72 0 00.01.209c.024.167.024.167.03.042.003-.07.01-.147.014-.172.013-.066-.033-.134-.054-.08m.044.62c-.002.027.01.056.026.066.019.012.02.03.003.05-.037.046-.051.214-.018.213.015 0 .027-.025.026-.055-.002-.03.008-.055.02-.055.013 0 .02-.016.017-.035-.004-.019.009-.032.028-.028.019.004.035-.005.035-.02s.019-.02.042-.011c.023.009.042.002.042-.015s-.013-.032-.028-.034a.581.581 0 01-.056-.01.528.528 0 00-.068-.011c-.022-.002-.046-.026-.053-.053-.011-.044-.013-.044-.016-.001m2.86.006c-.019.021-.027.045-.019.053s-.023.01-.07.002l-.083-.013-.02.308c-.021.32-.035.354-.153.37-.054.008-.072.029-.08.094a.282.282 0 01-.038.119c-.035.042-.012.043.126.005.085-.024.109-.046.122-.112.014-.068.03-.082.095-.082.147 0 .167-.052.167-.436a4.28 4.28 0 00-.007-.347.205.205 0 00-.04.04m-12.294.284c-.017.02-.022.05-.012.066.01.016.004.03-.012.03s-.026.015-.023.034c.004.02-.008.032-.028.028-.019-.004-.035.005-.035.02s-.017.02-.039.012c-.043-.016-.058.02-.087.206-.012.079-.03.113-.05.1-.019-.01-.024-.008-.013.005.029.031-.034.101-.07.079-.016-.01-.02-.005-.01.012s-.016.043-.06.06c-.067.027-.062.03.05.015.163-.02.17-.03.188-.248.014-.169.02-.184.08-.184.082 0 .151-.07.151-.154 0-.051.018-.068.077-.076l.077-.009-.077-.016c-.047-.01-.088-.003-.107.02m.487.087c.038.124.102.148.39.148.27 0 .28-.024.012-.031-.103-.003-.187-.017-.187-.032s-.018-.02-.04-.012c-.045.018-.126-.064-.11-.11.007-.018-.012-.038-.041-.046-.05-.013-.051-.005-.024.083m4.114-.007c-.033.038-.052.078-.042.09.01.012-.004.004-.031-.016-.041-.032-.05-.032-.05.001 0 .028-.048.041-.174.047a.766.766 0 00-.189.024c-.007.008.108.01.257.005.289-.01.316-.022.346-.143.024-.099-.034-.103-.117-.008m4.579.165c-.016.016-.029.057-.029.09 0 .051-.022.065-.133.083a14.28 14.28 0 00-.16.027l-.078.01c-.034.002-.049.028-.049.082 0 .043-.015.094-.033.112-.026.026-.008.034.082.034.13 0 .203-.055.203-.153 0-.12.218-.115.241.005.02.109.021.11.165.132.103.017.107.016.048-.02-.035-.02-.054-.05-.042-.064.012-.014.01-.017-.003-.006-.034.028-.105-.033-.082-.07.01-.017.004-.02-.015-.01-.021.014-.032-.004-.032-.052 0-.044.012-.066.03-.056.018.012.022-.01.01-.06-.01-.054-.008-.068.01-.043.021.03.029.03.042-.004.02-.05-.13-.081-.175-.037m-2.878.106c.008.084.02.095.103.103.064.006.088-.001.075-.023-.011-.017-.047-.027-.08-.023-.048.007-.059-.004-.052-.052.004-.033-.006-.069-.023-.08-.022-.013-.029.011-.023.075m.22.181c0 .112.045.15.177.15.13 0 .127-.016-.006-.037-.11-.017-.114-.02-.13-.102-.019-.098-.042-.103-.042-.01" id="svg_70"/><path fill="#9fbacc" d="M12.328 1.662a.449.449 0 00-.224.137.789.789 0 01-.205.156c-.066.033-.127.077-.136.1a.35.35 0 01-.117.101 1.74 1.74 0 00-.194.14c-.05.044-.109.08-.128.08-.02 0-.065.03-.1.067a.702.702 0 01-.195.124.651.651 0 00-.186.117.926.926 0 01-.23.14c-.096.044-.174.093-.174.109 0 .045-.127.117-.258.146a.465.465 0 00-.172.075 1.52 1.52 0 01-.202.131l-.322.18c-.22.124-.313.283-.251.43a.932.932 0 01.03.506c-.056.186.075.283.347.258.109-.01.576-.026 1.037-.034a78.765 78.765 0 001.368-.036c.578-.023.523-.006.663-.203.043-.06.047-.06.176-.018l.133.044.065-.102a.834.834 0 01.173-.183c.06-.044.142-.128.184-.187.164-.232.28-.228.405.013.05.096.08.066.108-.108.039-.247.115-.35.257-.35.197 0 .34-.054.388-.145a.315.315 0 01.139-.12.212.212 0 00.128-.126c.03-.089.048-.096.29-.134l.14-.022.007-.125c.021-.392.053-.447.258-.447.14 0 .185.026.271.157.069.104.093.079.093-.096 0-.228.031-.26.282-.285a.923.923 0 00.372-.109.584.584 0 01.33-.087.679.679 0 00.245-.04c.066-.035.934-.077 1.469-.073.03 0 .046-.007.036-.016-.01-.01-.317-.02-.683-.024a59.056 59.056 0 01-1.491-.04c-.454-.02-1.033-.04-1.287-.046-.73-.019-2.377-.073-2.546-.084a1.037 1.037 0 00-.293.03m.066.15c.03.02.026.029-.021.044-.067.021-.125-.003-.1-.043.02-.032.07-.033.12 0m-1.103.897c-.042.041-.158.047-.172.007-.009-.024.02-.035.093-.035.069 0 .096.01.079.028m-.363.22c-.062.054-.212.096-.241.067-.053-.053.004-.09.137-.09.073 0 .118.01.104.023m5.817.562c-.415.067-1.027.34-1.24.554a.376.376 0 01-.116.091.887.887 0 00-.18.161l-.248.259a.993.993 0 00-.144.196 1.46 1.46 0 01-.116.185c-.075.1-.225.517-.257.715a9.48 9.48 0 000 .839c.01.39.021.994.022 1.342.002.499.012.659.046.755.063.176.068.362.08 2.753.012 2.188.019 2.33.121 2.52l.158.296c.357.675 1.076 1.152 1.933 1.282.133.02 1.382.027 3.89.022l3.692-.008.28-.077c.758-.21 1.294-.63 1.648-1.29.224-.418.21-.146.23-4.536.019-4.264.02-4.21-.134-4.42a2.034 2.034 0 01-.143-.25c-.172-.355-.705-.85-1.096-1.018-.803-.343.012-.3-7.29-.383-.546-.006-1.057-.001-1.136.012m-7 .13c-.05.023-.098.06-.107.082-.022.058-.059.052-.08-.014-.027-.087.007-.112.149-.11l.13.002-.091.04m14.398.069c.239.018.402.047.531.094.625.225.638.231.852.405.324.262.64.619.706.798a.83.83 0 00.103.203c.123.135.12.093.12 2.723 0 1.377-.006 3.228-.014 4.113l-.016 1.609-.103.2c-.057.11-.104.22-.104.245 0 .025-.035.081-.077.126a1.549 1.549 0 00-.159.216c-.088.146-.412.452-.522.492a.473.473 0 00-.123.074.807.807 0 01-.224.1c-.093.028-.2.073-.24.102-.15.106-.237.108-4.307.108-4.135 0-4.142 0-4.32-.122a.89.89 0 00-.247-.101.596.596 0 01-.203-.084.788.788 0 00-.13-.087c-.13-.068-.444-.37-.534-.514a2.536 2.536 0 00-.133-.196.85.85 0 01-.097-.196.766.766 0 00-.123-.218l-.073-.078-.019-1.209c-.01-.664-.02-1.763-.022-2.44-.001-.677-.014-1.306-.029-1.398-.052-.335-.049-3.028.004-3.218.126-.453.536-1.014.917-1.256.07-.044.155-.107.188-.139.116-.111.743-.342 1.03-.38.235-.03 6.946-.005 7.368.028m-14.503.78c.02.033-.032.067-.07.044-.03-.02-.01-.07.03-.07.013 0 .031.012.04.026m3.197.358c-.108.074-.14.189-.078.287a.064.064 0 01-.005.078c-.042.051-.062.478-.026.566.029.07.03.07.03-.016.002-.064.036-.121.131-.217l.128-.13-.009-.293c-.011-.344-.028-.37-.17-.275m5.91 1.247c-.317.14-.526.36-.733.775-.121.244-.102 1.662.024 1.766.024.02.072.1.107.177.068.153.191.273.434.424.348.218.66.207 1.11-.039.103-.056.308-.26.387-.387.03-.048.081-.124.112-.167.053-.075.055-.117.048-.892l-.009-.812-.115-.228c-.29-.572-.87-.834-1.365-.617m3.615-.017a1.422 1.422 0 00-.586.512c-.04.07-.104.176-.144.236-.064.096-.074.14-.078.363-.003.14-.013.428-.023.64-.025.521-.004.665.115.808a.437.437 0 01.094.154c0 .169.607.57.895.592.511.036 1.112-.408 1.204-.89.043-.227.036-1.468-.01-1.643-.149-.574-.937-.99-1.467-.772m.74.11c.242.101.628.534.668.748.009.049.012.422.008.83l-.01.74-.089.155c-.49.844-1.531.81-1.95-.065l-.108-.228.02-.42c.012-.231.025-.54.03-.687.024-.796.765-1.351 1.431-1.073m-3.723-.009c.282.073.566.358.692.693.044.119.087.927.079 1.499-.007.443-.65.972-1.127.926-.373-.035-.752-.339-.889-.711l-.084-.229.015-.652c.015-.65.015-.654.102-.876.207-.528.688-.786 1.212-.65m-1.234 4.772c-.384.124-.645.585-.55.969.116.471.148.562.255.72a.878.878 0 01.113.206c0 .02.04.063.086.097a.355.355 0 01.112.128.267.267 0 00.12.112c.054.025.11.076.127.112a.207.207 0 00.1.093c.037.015.115.07.172.125a.977.977 0 00.2.143c.052.025.138.075.191.11.058.04.176.078.299.097.111.018.28.057.377.088.843.272 1.9-.569 1.498-1.192-.195-.303-.368-.36-1.1-.362-.455-.001-.497-.006-.6-.065a4.645 4.645 0 00-.23-.12c-.093-.043-.132-.085-.177-.188a.888.888 0 00-.11-.188.9.9 0 01-.111-.23c-.166-.475-.488-.748-.772-.655m.364.195c.093.062.143.137.294.438.215.43.308.58.406.649l.168.124c.155.118.513.175.88.14.506-.049.817.087.932.406.168.468-.554 1.062-1.183.973-.461-.065-1.041-.24-1.122-.337a1.668 1.668 0 00-.219-.163c-.549-.362-.873-.875-.952-1.503-.075-.599.374-1.009.796-.727" id="svg_69"/><path fill="#769db6" d="M12.152 1.4c-.02.02-.035.07-.035.113 0 .063-.02.087-.094.118a.21.21 0 00-.124.125c-.021.06-.053.091-.109.103-.116.024-.161.054-.17.114-.009.05-.25.18-.336.179-.02 0-.047.03-.06.066-.019.047-.056.072-.128.086-.072.013-.116.043-.148.099a.442.442 0 01-.192.145c-.081.036-.159.092-.174.124-.018.04-.063.065-.144.078-.095.015-.123.034-.147.099-.035.091-.161.142-.353.142-.106 0-.118.007-.133.081-.017.088-.175.171-.324.171a.176.176 0 00-.125.063.505.505 0 01-.302.154c-.123.017-.125.027-.126.642 0 .594 0 .593.136.61.044.006.12.05.168.098.084.084.096.088.249.072.432-.045 2.813-.067 2.926-.027.174.062.225.281.1.44-.082.105-.144.339-.148.563-.008.48.018 2.221.034 2.244.126.18.418.28 1.081.372l.33.047c.092.013.12.004.188-.06l.079-.076.11.062c.269.15.256.024.27 2.784l.01 2.21.087.271c.049.15.118.307.154.35.036.043.106.159.156.257.187.372.814.906 1.218 1.038.108.035.271.096.364.137l.168.073h7.945l.126-.06c.07-.032.221-.09.337-.13.381-.126.874-.492 1.09-.807.4-.586.402-.588.478-.892l.074-.295.011-3.888.01-3.888-.09-.282c-.05-.155-.116-.305-.147-.333a.788.788 0 01-.125-.2c-.078-.173-.184-.31-.42-.545l-.267-.264c-.053-.053-.112-.097-.13-.097a.685.685 0 01-.17-.095 1.064 1.064 0 00-.262-.13 1.19 1.19 0 01-.241-.101c-.218-.128-.462-.153-1.617-.168-1.147-.015-1.254-.03-1.355-.187-.053-.082-.027-.087.581-.107.36-.011.647-.035.76-.062.355-.084 1.344-.052 1.6.052.035.014.053-.006.08-.087.054-.163.35-.444.492-.467.062-.01.17-.042.237-.072a.772.772 0 01.352-.061c.018.001.07.035.117.074.11.092.495.147.563.08.058-.056.012-.12-.118-.165a.433.433 0 01-.154-.09 1.35 1.35 0 00-.525-.343 2.793 2.793 0 01-.298-.116 1.446 1.446 0 00-.361-.081 1.938 1.938 0 01-.282-.044c-.035-.022-.518-.064-1.073-.094-.55-.03-.491-.024-.484-.05.017-.066-.044-.143-.126-.16-.183-.04-11.026-.051-11.064-.012m1.588.274c.53.017 1.173.036 1.427.043.254.006.833.026 1.287.045.454.019 1.125.037 1.491.041.366.004.674.014.683.024.01.01-.007.017-.036.016-.535-.004-1.403.038-1.47.072a.679.679 0 01-.244.04c-.133 0-.2.019-.33.088a.923.923 0 01-.372.109c-.25.026-.282.057-.282.285 0 .175-.025.2-.093.096-.086-.131-.13-.157-.27-.157-.206 0-.238.055-.26.447l-.006.125-.14.022c-.242.038-.26.045-.29.134a.212.212 0 01-.128.126.315.315 0 00-.14.12c-.046.09-.19.145-.387.145-.142 0-.218.103-.257.35-.028.174-.058.204-.108.108-.125-.24-.24-.245-.405-.013a1.017 1.017 0 01-.184.187.834.834 0 00-.173.183l-.065.102-.133-.044c-.129-.043-.133-.042-.176.018-.14.197-.085.18-.663.203-.29.011-.906.028-1.368.036-.461.008-.928.023-1.037.034-.272.025-.403-.072-.348-.258a.932.932 0 00-.03-.507c-.061-.146.032-.305.252-.429l.322-.18a1.52 1.52 0 00.202-.131.465.465 0 01.172-.075c.13-.029.257-.101.257-.146 0-.016.08-.065.175-.109a.927.927 0 00.23-.14.65.65 0 01.186-.117.703.703 0 00.195-.124c.035-.037.08-.067.1-.067.02 0 .077-.036.128-.08.05-.043.138-.106.194-.14a.35.35 0 00.117-.102c.009-.022.07-.066.136-.099a.789.789 0 00.205-.156c.104-.119.296-.18.517-.166.084.006.588.024 1.119.04m7.778 1.85c3.101.037 2.895.017 3.652.341.39.167.924.663 1.096 1.018.045.092.109.205.142.25.155.21.154.156.135 4.42-.02 4.39-.006 4.118-.23 4.535-.354.662-.89 1.081-1.648 1.29l-.28.078-3.693.008c-2.507.005-3.756-.001-3.889-.022-.857-.13-1.576-.607-1.934-1.282l-.157-.296c-.102-.19-.11-.332-.12-2.52-.013-2.391-.018-2.577-.081-2.753-.034-.096-.044-.256-.046-.755a61.896 61.896 0 00-.023-1.342 9.472 9.472 0 010-.84c.033-.197.183-.615.258-.714a1.46 1.46 0 00.116-.185.993.993 0 01.144-.196l.248-.259a.887.887 0 01.18-.16.376.376 0 00.117-.092c.212-.214.824-.487 1.24-.554.078-.013.59-.018 1.136-.012l3.637.042m-8.51 1.582l.01.293-.129.13c-.095.096-.129.153-.13.217-.002.086-.002.086-.03.016-.037-.088-.017-.515.025-.566a.064.064 0 00.005-.078c-.062-.098-.03-.213.078-.286.143-.097.16-.07.171.274m9.447 1.024c-.415.113-.768.614-.783 1.114-.005.146-.018.456-.03.687l-.02.42.109.228c.418.875 1.459.91 1.95.065l.089-.154.009-.742c.01-.867.01-.864-.14-1.088-.296-.44-.755-.646-1.184-.53m-3.658.036c-.523.186-.71.574-.73 1.522l-.016.652.084.229c.137.372.516.676.89.711.476.046 1.12-.483 1.126-.926.008-.572-.035-1.38-.08-1.499-.207-.555-.782-.865-1.274-.69m4.152.072c.166 0 .502.29.643.554l.108.204v1.282l-.085.234a.938.938 0 01-1.128.61c-.238-.058-.551-.302-.631-.493-.117-.278-.13-.418-.078-.842.026-.213.048-.488.048-.611 0-.268.038-.42.129-.517l.146-.155c.222-.234.366-.3.606-.279.077.007.186.013.242.013m-3.445.121c.033.042.083.075.112.075.029 0 .075.033.103.072.027.04.08.108.115.153.103.13.12.237.118.75 0 .266.014.568.032.671.07.384.021.56-.22.794-.625.61-1.73.11-1.536-.694.01-.045.028-.38.04-.746l.02-.666.075-.062a.39.39 0 00.103-.138c.018-.049.066-.092.134-.12a.434.434 0 00.15-.102c.098-.127.652-.117.754.013m-.583.321c-.333.273-.342.293-.219.53.076.147.094.142.389-.11.116-.1.126-.103.226-.072.138.042.168.01.143-.157-.016-.11-.03-.132-.093-.148a1.385 1.385 0 01-.186-.069c-.143-.065-.15-.064-.26.026m-.75 4.369c-.83.133-.504 1.651.495 2.31.101.067.2.141.219.164.08.098.66.272 1.122.337.629.089 1.35-.505 1.183-.973-.115-.32-.426-.455-.931-.406-.368.035-.726-.022-.881-.14a7.277 7.277 0 00-.168-.124c-.098-.07-.191-.218-.406-.649-.231-.461-.356-.564-.633-.519m.314.19c.062.064.168.24.266.445.089.186.178.356.199.378.02.02.057.07.082.109.208.326.769.502 1.34.419.72-.104.996.658.36.992l-.173.09c-.292.155-1.3-.011-1.693-.279-.641-.435-.941-.874-1.038-1.517-.062-.412.122-.734.422-.739.116-.002.143.01.235.103" id="svg_68"/><path fill="#ececec" d="M12.272 1.814c-.024.04.034.064.1.043.048-.015.052-.024.022-.044-.051-.032-.102-.031-.122.001m-1.154.904c.014.04.13.034.172-.007.017-.018-.01-.028-.079-.028-.072 0-.102.011-.093.035m-.443.22c-.038.061.036.09.133.053.15-.06.154-.084.015-.084-.071 0-.138.014-.148.03m-1.118.67c-.021.035.01.14.041.14.013 0 .03-.019.039-.042.009-.023.057-.06.108-.082l.092-.04-.131-.002c-.073-.001-.14.01-.149.026m7.218.058c-.287.037-.914.268-1.03.38a1.513 1.513 0 01-.188.138c-.381.242-.79.803-.917 1.256-.053.19-.056 2.883-.004 3.218.015.092.028.722.03 1.399 0 .677.01 1.775.021 2.44l.02 1.208.072.078c.04.043.095.142.123.218a.85.85 0 00.097.196c.025.031.085.12.133.196.09.144.404.446.535.514.04.021.098.06.13.087.03.028.121.065.202.084a.89.89 0 01.247.101c.178.122.185.122 4.32.122 4.07 0 4.156-.002 4.306-.108.04-.029.148-.074.24-.102a.807.807 0 00.225-.1.473.473 0 01.123-.074c.11-.04.434-.346.522-.492a1.55 1.55 0 01.159-.216c.042-.045.077-.101.077-.126 0-.024.047-.135.104-.245l.103-.2.016-1.609c.008-.885.015-2.736.015-4.113 0-2.63.002-2.588-.121-2.723a.83.83 0 01-.103-.203c-.067-.179-.382-.536-.706-.798-.214-.174-.227-.18-.852-.405a2.047 2.047 0 00-.531-.094c-.422-.033-7.133-.058-7.368-.027m-7.217.807c-.02.034.032.067.07.044.03-.02.01-.07-.029-.07-.013 0-.032.012-.04.026m9.865 1.593c.305.114.534.323.689.629l.115.228.009.812c.007.775.005.817-.048.892-.031.043-.081.119-.112.168-.26.412-.82.663-1.231.552-.258-.07-.608-.345-.7-.55a.67.67 0 00-.107-.178c-.126-.104-.145-1.522-.024-1.766.355-.711.859-.992 1.41-.787m3.658.006c.322.124.675.483.747.761.046.175.053 1.416.01 1.643-.092.483-.693.927-1.204.89-.288-.021-.895-.423-.895-.592a.437.437 0 00-.094-.154c-.12-.143-.14-.287-.115-.808.01-.212.02-.5.023-.64.004-.223.014-.267.078-.363.04-.06.104-.166.144-.236.275-.486.808-.69 1.306-.5m-4.574 4.933c.18.108.305.288.409.583a.9.9 0 00.112.23.888.888 0 01.109.188c.045.103.084.145.176.189.065.03.169.085.23.12.104.058.146.063.602.064.73.002.904.06 1.099.362.402.623-.655 1.464-1.498 1.192a3.009 3.009 0 00-.377-.088.837.837 0 01-.299-.096 1.723 1.723 0 00-.191-.11.976.976 0 01-.2-.144.717.717 0 00-.173-.125.207.207 0 01-.099-.093.296.296 0 00-.126-.112.267.267 0 01-.121-.112.355.355 0 00-.112-.128c-.047-.034-.086-.077-.086-.097a.878.878 0 00-.113-.205c-.107-.159-.139-.25-.255-.72-.073-.295.1-.73.346-.868.273-.155.353-.159.567-.03" id="svg_67"/><path fill="#646464" d="M12.103 1.403a.57.57 0 00-.02.105c-.005.039-.02.08-.036.093-.017.014-.01.019.014.012.023-.006.046-.048.052-.093a.278.278 0 01.038-.117c.02-.024.02-.035-.003-.035-.018 0-.038.016-.045.035m14.283.24c0 .032-.006.073-.014.094-.026.07.028.116.094.081.051-.027.055-.04.024-.093-.064-.113-.104-.144-.104-.081M9.766 3.04a10.37 10.37 0 00-.04.11c-.007.019.003.028.022.021.04-.015.105-.208.07-.208-.013 0-.037.035-.052.077m-.698.368c-.097.013-.128.03-.135.073-.005.035 0 .043.014.023.013-.018.06-.037.107-.043a.428.428 0 00.14-.043c.03-.019.043-.032.027-.03l-.153.02m19.556.798c0 .102.003.105.077.087.085-.021.152-.07.095-.07-.02 0-.03-.01-.023-.022.007-.011-.005-.037-.026-.057-.032-.03-.04-.027-.04.014 0 .046-.004.046-.042-.004-.038-.051-.041-.048-.041.052M12.401 5.338c-.042.026-.064.175-.034.224.01.017.038-.033.062-.11.043-.141.04-.157-.028-.114m7.366 3.508l-.082.09.091-.082c.085-.076.104-.1.082-.1a.697.697 0 00-.09.092m-1.102 2.692a.7.7 0 00.068.154c.037.07.067.114.067.098a.703.703 0 00-.067-.154c-.037-.069-.068-.113-.068-.098m7.54 2.886c-.079.1-.079.1-.008.053.065-.042.118-.122.097-.144-.005-.004-.045.037-.089.091m-9.412 4.274c-.03.032-.048.074-.04.094.006.019-.002.035-.02.035-.017 0-.024-.013-.015-.028.022-.036-.022-.037-.057-.002a.311.311 0 01-.124.043c-.16.027-.196.044-.2.093a8.16 8.16 0 00-.006.199l-.004.151-.334.003c-.23.002-.337.013-.344.036-.006.018-.027.027-.046.02-.045-.018-.14.087-.117.126.01.017.006.03-.01.03-.033 0-.03-.11-.029 1.168l.002 1.07-.072.004c-.04.002-.106.006-.148.01l-.21.015c-.073.005-.133.019-.133.032 0 .013-.016.02-.035.016-.02-.004-.032.009-.028.028.004.02-.005.035-.02.035s-.02.018-.012.04c.008.02.003.046-.011.055-.038.023-.043.536-.006.604.029.054.056.057.727.057.854 0 .953-.03.994-.29.028-.184.043-.22.086-.203.022.008.04.003.04-.012s.015-.024.034-.02c.02.004.032-.009.028-.028-.003-.02.007-.035.023-.035s.022-.013.012-.03c-.024-.038.04-.114.078-.091.024.014.138.023.464.036.02 0 .031.019.023.04-.018.048.065.127.114.109.02-.007.035 0 .035.014 0 .04.274.048 1.902.048 1.68 0 1.875-.007 1.875-.066 0-.033.008-.033.049-.001.027.02.04.027.03.015-.01-.012.01-.052.045-.089.055-.059.11-.077.324-.107a.232.232 0 00.076-.027c.02-.012.036-.013.036-.001 0 .011.02-.004.043-.033.025-.03.037-.036.027-.013-.01.023 0 .018.02-.01.02-.03.077-.092.128-.14.059-.054.088-.104.08-.136-.008-.027-.003-.05.01-.05.014 0 .025-.227.024-.505 0-.533-.02-.614-.15-.614-.024 0-.043-.025-.043-.056 0-.078-.098-.168-.183-.168-.04 0-.065-.01-.056-.025.035-.056-.024-.111-.181-.169a.55.55 0 01-.208-.12c-.027-.039-.043-.047-.043-.022 0 .028-.01.025-.037-.011-.034-.046-.086-.051-.553-.05-.416.002-.94-.03-.75-.046.067-.006.202-.08.167-.092-.04-.014-.004-.136.04-.136.02 0 .044.043.053.095.02.104.08.127.31.116.062-.003.193-.008.291-.01.268-.007.434-.176.46-.467.032-.359.022-.37-.355-.375-.319-.006-.418-.023-.4-.069.054-.144-.45-.221-.875-.133-.148.03-.335.199-.336.303-.001.049-.011.095-.023.102-.04.026-.217-.028-.209-.063.005-.019-.005-.027-.021-.017-.016.01-.024.027-.018.037.007.01-.025.022-.07.025-.058.004-.076-.004-.063-.028.014-.024.009-.024-.019.001-.02.02-.077.035-.126.035a.435.435 0 00-.303.182.296.296 0 01-.051.071c-.011.009-.023.055-.027.103-.004.049-.015.083-.025.077-.026-.017-.246.21-.266.276-.014.044-.023.047-.044.015-.016-.025-.019-.01-.006.043.014.063.01.076-.018.059-.029-.018-.032.005-.018.112.021.153.09.277.136.248.017-.01.023-.007.014.009-.01.015.007.054.037.087.03.032.055.071.055.085 0 .015.05.069.113.12.061.051.106.108.1.126-.016.04.078.13.106.102.01-.011.03-.005.042.015.025.041.355.07.525.044.105-.015.118-.026.134-.112l.018-.095h.202c.11 0 .22.013.243.028.029.018.03.027.007.028-.047 0 .015.104.076.127.035.013.036.01.008-.019-.05-.05-.043-.081.012-.06.033.013.04.007.023-.02-.015-.024-.012-.03.008-.017.018.01.025.035.017.056-.01.027.032.042.16.055.249.026.646.022.629-.006-.039-.062.053-.173.136-.166.077.008.083.016.08.12-.001.062.01.126.024.144.016.02.015.04-.004.051-.018.012-.02.035-.004.063.028.052.007.266-.03.29-.032.02-2.828.028-2.967.008-.07-.01-.105-.03-.105-.059a.109.109 0 00-.041-.074c-.035-.026-.043-.206-.05-1.128-.01-1.246.012-1.152-.272-1.183a1.322 1.322 0 01-.208-.032 1.064 1.064 0 01-.042-.097c-.044-.112-.243-.128-.334-.028m7.494-.017a.203.203 0 00-.047.085c-.008.058-.065.088-.166.088-.078 0-.21.095-.184.132.005.007 0 .022-.011.032-.012.01-.011 0 .001-.024.016-.028.006-.026-.03.008-.051.049-.051.052.01.168a.826.826 0 01.073.202.436.436 0 00.017.084.3.3 0 01.018.07c.024.133.074.153.404.163.17.006.343-.002.386-.017.108-.038.171.003.175.114.002.086.003.087.025.02.012-.039.02.289.019.727l-.004.798-.015-.658-.016-.657v.657c.002.563.008.658.044.658.068 0 .094.314.031.382-.02.022-1.055.044-1.076.023a13.683 13.683 0 01-.023-.868c-.012-1.11-.017-1.119-.617-1.11-.49.009-.5.034-.497 1.324.003.818.004.83.064.881.034.028.052.052.04.052-.013 0-.006.019.013.04.02.021.045.034.056.027.01-.006.033.014.05.045s.022.057.012.057c-.01 0-.003.018.015.04.018.022.029.063.024.09-.006.038.007.05.047.045.074-.008.153.055.168.133.024.12.038.122 1.13.131 1.034.009 1.039.008 1.039-.135 0-.056.014-.082.048-.085.027-.002.062-.006.077-.009l.161-.027c.112-.018.133-.032.133-.083 0-.086.044-.12.139-.106.057.008.076.024.065.053-.013.034-.02.035-.042.004-.018-.025-.02-.011-.009.042.011.052.007.073-.012.061-.058-.035-.028.117.034.173.13.118.145.12 1.33.12 1.238 0 1.196.005 1.213-.153.008-.065.026-.086.08-.094.118-.016.132-.05.153-.37l.02-.308.084.013c.046.007.077.006.069-.002-.009-.009.003-.034.025-.056.05-.05.062-1.575.013-1.575-.016 0-.028-.02-.028-.042 0-.028-.028-.042-.084-.042h-.084v-.217c0-.515.038-.497-1.091-.495-1.091.002-1.128.006-1.104.13.011.06-.014.077-.147.093-.116.015-.25.1-.239.153.005.017-.003.025-.017.016-.03-.018-.058.042-.064.133-.002.033-.014-.05-.026-.184-.03-.35-.02-.343-.565-.343-.432 0-.447.002-.498.065-.052.064-.052.064-.06-.193-.009-.288-.012-.292-.221-.32-.116-.014-.128-.022-.121-.083.008-.078-.038-.1-.237-.113-.09-.006-.14.005-.17.037m-11.927.629c-.062.046-.103.751-.048.817.03.036.138.042.675.042.352 0 .641.01.643.021l.012.099c.006.044.053.118.11.172.09.084.157.483.07.41-.034-.03-.133.06-.148.135a.209.209 0 01-.098.13c-.055.033-.077.065-.069.099.02.076-.113.09-.776.076-.323-.007-.6-.004-.616.006-.112.07-.033.488.105.554.062.029.1.07.11.116.037.186.023.183.816.182.824-.001.867-.007.891-.128.02-.096.047-.113.198-.119.058-.002.115-.016.126-.032.012-.017.02-.014.02.008.002.051.149-.029.22-.12.03-.038.068-.07.083-.07s.027-.015.027-.035c-.012-.308.04-.503.121-.453.014.009.026.003.026-.013s.018-.022.04-.013c.034.013.124-.096.102-.125-.004-.005.002-.017.014-.028.011-.01.011 0 0 .024-.013.026-.005.023.02-.007.021-.027.048-.04.059-.029.01.011.01-.004 0-.033-.015-.036-.01-.046.012-.032.024.015.033-.047.033-.235s-.009-.25-.033-.235c-.023.014-.027.004-.013-.032.012-.03.012-.044 0-.033-.01.01-.037-.003-.058-.03-.022-.026-.031-.03-.02-.008.014.026.01.032-.012.019-.018-.011-.028-.03-.021-.04.013-.02-.056-.165-.072-.15-.042.043-.163-.038-.166-.11a2.158 2.158 0 00-.011-.136 2.014 2.014 0 01-.01-.123c-.004-.06-.23-.32-.287-.328a.941.941 0 00-.171-.021c-.072-.004-.083-.011-.05-.034.034-.022.028-.027-.028-.02-.059.007-.069-.002-.063-.062.003-.038-.001-.054-.01-.033-.012.027-.025.024-.053-.014-.047-.065-1.618-.092-1.7-.03m12.674.77c-.007.042-.012.007-.012-.077 0-.085.005-.12.012-.077a.604.604 0 010 .154m1.138-.016c-.017.235-.039.242-.039.013 0-.102.012-.186.026-.186.014 0 .02.076.013.173m2.018.267a7.921 7.921 0 00-.013.294c0 .058-.011.103-.023.102-.135-.022-.207.112-.197.366.01.209.008.21-.266.213-.19.003-.48-.03-.36-.041.066-.006-.054-.168-.138-.186-.126-.028-.146-.079-.16-.407l-.012-.306h.099c.1 0 .14-.042.157-.167.002-.015.167-.03.388-.036.211-.004.419-.011.461-.014l.076-.007-.012.19m-2.016.786a1.712 1.712 0 00-.014.172c-.006.125-.006.125-.03-.042-.027-.18-.013-.281.03-.213.012.021.019.059.014.083m.059.595a.528.528 0 01.068.01c.015.004.04.009.056.01.015.003.028.018.028.035 0 .017-.02.024-.042.015-.023-.009-.042-.004-.042.011s-.016.024-.035.02c-.02-.004-.032.009-.028.028.004.02-.004.035-.016.035-.013 0-.022.025-.021.055 0 .03-.008.055-.02.056-.01 0-.02-.005-.02-.013 0-.199.01-.352.02-.315.006.027.03.05.052.053" id="svg_66"/></g></g></svg>