<svg xmlns="http://www.w3.org/2000/svg" width="38" height="24" fill="none" aria-labelledby="pi-onlinebanking" role="img" viewBox="0 0 38 24"><title id="pi-onlinebanking">Online Banking</title><g clip-path="url(#pi-onlinebanking-a)"><path fill="#F5F5F5" d="M0 0h38v24H0z"/><path fill="#707070" fill-rule="evenodd" d="M0 3V0h38v4H0zm11-1a1 1 0 1 1-2 0 1 1 0 0 1 2 0M7 3a1 1 0 1 0 0-2 1 1 0 0 0 0 2M5 2a1 1 0 1 1-2 0 1 1 0 0 1 2 0" clip-rule="evenodd"/><path fill="#707070" d="M12.557 9.81a.92.92 0 1 0 .724 1.69L18.212 9a2 2 0 0 1 1.576 0l4.93 2.5a.92.92 0 0 0 .725-1.69l-5.655-2.65a2 2 0 0 0-1.576 0z"/><path fill="#707070" d="M18 12a1 1 0 1 1 2 0v4a1 1 0 1 1-2 0zm5 0a1 1 0 0 0-1 1v3a1 1 0 1 0 2 0v-3a1 1 0 0 0-1-1m-8 0a1 1 0 0 0-1 1v3a1 1 0 1 0 2 0v-3a1 1 0 0 0-1-1m-2 6a1 1 0 1 0 0 2h12a1 1 0 1 0 0-2z"/></g><defs><clipPath id="pi-onlinebanking-a"><path fill="#fff" d="M0 0h38v24H0z"/></clipPath></defs></svg>