<svg width="38" height="24" fill="none" xmlns="http://www.w3.org/2000/svg"><g clip-path="url(#a)"><rect width="38" height="24" rx="3" fill="#F5F5F5" style="fill:#f5f5f5;fill:color(display-p3 .9608 .9608 .9608);fill-opacity:1"/><rect x=".5" y=".5" width="37" height="23" rx="2.5" stroke="#000" stroke-opacity=".07" style="stroke:#000;stroke-opacity:.07"/><path fill-rule="evenodd" clip-rule="evenodd" d="M0 3c0-2 1.5-3 3-3h32c2 0 3 1.5 3 3v1H0V3Zm11-1a1 1 0 1 1-2 0 1 1 0 0 1 2 0ZM7 3a1 1 0 1 0 0-2 1 1 0 0 0 0 2ZM5 2a1 1 0 1 1-2 0 1 1 0 0 1 2 0Z" fill="#707070" style="fill:#707070;fill:color(display-p3 .4392 .4392 .4392);fill-opacity:1"/><path d="M12.557 9.81a.92.92 0 1 0 .724 1.69L18.212 9a2 2 0 0 1 1.576 0l4.93 2.5a.92.92 0 0 0 .725-1.69l-5.655-2.65a2 2 0 0 0-1.576 0l-5.655 2.65Z" fill="#707070" style="fill:#707070;fill:color(display-p3 .4392 .4392 .4392);fill-opacity:1"/><path d="M18 12a1 1 0 1 1 2 0v4a1 1 0 1 1-2 0v-4ZM23 12a1 1 0 0 0-1 1v3a1 1 0 1 0 2 0v-3a1 1 0 0 0-1-1ZM15 12a1 1 0 0 0-1 1v3a1 1 0 1 0 2 0v-3a1 1 0 0 0-1-1ZM13 18a1 1 0 1 0 0 2h12a1 1 0 1 0 0-2H13Z" fill="#707070" style="fill:#707070;fill:color(display-p3 .4392 .4392 .4392);fill-opacity:1"/></g><defs><clipPath id="a"><path fill="#fff" style="fill:#fff;fill-opacity:1" d="M0 0h38v24H0z"/></clipPath></defs></svg>