<svg xmlns="http://www.w3.org/2000/svg" role="img" viewBox="0 0 38 24" width="38" height="24" aria-labelledby="pi-openbankpay" fill="none"><title id="pi-openbankpay">Openbank Pay</title><path opacity=".07" d="M35 0H3C1.3 0 0 1.3 0 3v18c0 1.7 1.4 3 3 3h32c1.7 0 3-1.3 3-3V3c0-1.7-1.4-3-3-3z"/><path d="M35 1c1.1 0 2 .9 2 2v18c0 1.1-.9 2-2 2H3c-1.1 0-2-.9-2-2V3c0-1.1.9-2 2-2h32z" fill="#fff"/><path d="M19.085 6.361a.107.107 0 00-.114.106v1.851c0 .054.04.098.095.103 2.427.256 4.164 2.132 4.164 4.78 0 2.855-2.017 4.81-4.74 4.81-2.723 0-4.739-1.955-4.739-4.81 0-2.648 1.737-4.524 4.164-4.78a.105.105 0 00.095-.103V6.467a.107.107 0 00-.114-.106c-3.79.266-6.41 3.075-6.41 6.84 0 3.96 2.896 6.862 7.004 6.862 4.109 0 7.004-2.901 7.004-6.861 0-3.766-2.619-6.575-6.41-6.84z" fill="#080808"/><path d="M26.182 4.494l-.668-1.153a.921.921 0 01-.106-.279l-.028.049a.92.92 0 000 .922l.535.922a.92.92 0 010 .923l-.028.048a.918.918 0 00-.106-.28l-.801-1.382a.918.918 0 01-.106-.28l-.028.049a.92.92 0 00-.002.92l.536.925a.92.92 0 010 .922l-.028.048a.92.92 0 00-.105-.279l-.668-1.153a.918.918 0 01-.123-.5c-.715.185-1.209.58-1.209 1.038 0 .637.955 1.153 2.133 1.153s2.133-.516 2.133-1.153c0-.457-.493-.853-1.208-1.039a.918.918 0 00-.123-.42z" fill="red"/></svg>