<svg xmlns="http://www.w3.org/2000/svg" width="38" height="24" fill="none" aria-labelledby="pi-orangemobilemoney" role="img" viewBox="0 0 38 24"><title id="pi-orangemobilemoney">Orange Mobile Money</title><path fill="#fff" d="M0 0h38v24H0z"/><path fill="#000" fill-rule="evenodd" d="M16.84 6.84H9.45c-.83 0-1.5.67-1.5 1.5s.67 1.5 1.5 1.5h3.77L7.16 15.9a1.49 1.49 0 0 0 0 2.12c.59.59 1.54.59 2.12 0l6.06-6.06v3.77c0 .83.67 1.5 1.5 1.5s1.5-.67 1.5-1.5V8.34c0-.83-.67-1.5-1.5-1.5" clip-rule="evenodd"/><path fill="#FF690D" fill-rule="evenodd" d="M21.16 17.16h7.39c.83 0 1.5-.67 1.5-1.5s-.67-1.5-1.5-1.5h-3.77l6.06-6.06c.59-.59.59-1.54 0-2.12a1.49 1.49 0 0 0-2.12 0l-6.06 6.06V8.27c0-.83-.67-1.5-1.5-1.5s-1.5.67-1.5 1.5v7.39c0 .83.67 1.5 1.5 1.5" clip-rule="evenodd"/></svg>