<svg xmlns="http://www.w3.org/2000/svg" width="38" height="24" fill="none" alt="CitiCobrandIcon" aria-labelledby="pi-overstockciticobrand" role="img" viewBox="0 0 38 24"><title id="pi-overstockciticobrand">Overstock Mastercard</title><g clip-path="url(#pi-clip0_11771_33661)"><path fill="#ED0000" d="M38.895 23H1V1h37.895z"/><path fill="#FF5362" fill-rule="evenodd" d="M20.526 1c5.234 1.519 8.238 6.597 6.952 12.623-1.03 4.88-4.625 9.129-9.06 11.377H2.387A1.387 1.387 0 0 1 1 23.613v-10.21l.927-2.083C3.885 6.348 8.463 2.324 13.587 1zM6.37 13.398c0 6.161 3.671 11.16 8.206 11.16 4.534 0 8.205-4.999 8.205-11.16 0-6.16-3.67-11.16-8.205-11.16s-8.206 5-8.206 11.16" clip-rule="evenodd"/><g clip-path="url(#pi-clip1_11771_33661)"><path fill="#D72027" d="M29.398 18.06c0-.668.323-1.265.828-1.65a2.2 2.2 0 0 0-1.351-.454c-1.203 0-2.179.942-2.179 2.104s.976 2.105 2.178 2.105c.511 0 .98-.17 1.352-.454a2.07 2.07 0 0 1-.828-1.65z"/><path fill="#F26828" d="M29.398 18.06c0 .669.323 1.265.827 1.65a2.07 2.07 0 0 0 .828-1.65 2.07 2.07 0 0 0-.828-1.65c-.504.385-.827.98-.827 1.65"/><path fill="#fff" d="M33.663 19.21v.016h.026v.062h.02v-.062h.026v-.017h-.072zm.153 0-.02.05-.02-.05h-.027v.078h.02v-.055l.018.047h.02l.018-.047v.055h.019v-.079h-.028z"/><path fill="#F99E23" d="M31.576 15.956c-.51 0-.979.17-1.35.454.504.385.827.98.827 1.65a2.07 2.07 0 0 1-.828 1.65c.372.285.84.455 1.351.455 1.203 0 2.178-.943 2.178-2.105s-.975-2.104-2.178-2.104"/><path fill="#fff" d="M31.576 15.956c1.203 0 2.178.942 2.178 2.104s-.975 2.105-2.178 2.105c-.51 0-.979-.17-1.35-.456a2.2 2.2 0 0 1-1.351.456c-1.203 0-2.179-.943-2.179-2.105s.976-2.104 2.178-2.104c.511 0 .98.17 1.351.454.372-.285.84-.454 1.351-.454m0-.144c-.49 0-.955.145-1.35.419a2.35 2.35 0 0 0-1.351-.419c-1.283 0-2.327 1.009-2.327 2.248s1.044 2.248 2.327 2.248c.49 0 .955-.145 1.35-.419.396.274.86.419 1.351.419 1.283 0 2.327-1.009 2.327-2.248s-1.044-2.248-2.327-2.248"/></g><g fill="#fff" clip-path="url(#pi-clip2_11771_33661)"><path d="M11.034 11.329a.474.474 0 0 1 0 .583.12.12 0 0 0 .027.175.13.13 0 0 0 .18-.026.7.7 0 0 0 .15-.44.72.72 0 0 0-.15-.44.13.13 0 0 0-.18-.026.12.12 0 0 0-.027.175m.446-.235a.98.98 0 0 1 0 1.05.123.123 0 0 0 .041.173c.06.037.14.018.179-.04a1.23 1.23 0 0 0 0-1.314.13.13 0 0 0-.178-.041.123.123 0 0 0-.043.172z"/><path d="M11.95 10.857a1.47 1.47 0 0 1 0 1.527.123.123 0 0 0 .047.172.13.13 0 0 0 .177-.045 1.72 1.72 0 0 0 0-1.778.13.13 0 0 0-.177-.045.12.12 0 0 0-.046.171"/><path d="M12.42 10.618a1.97 1.97 0 0 1 0 2.004.124.124 0 0 0 .05.172.133.133 0 0 0 .177-.047 2.21 2.21 0 0 0 0-2.253.133.133 0 0 0-.178-.047.124.124 0 0 0-.048.171z"/></g><g fill="#fff" clip-path="url(#pi-clip3_11771_33661)"><path d="M18.61 6.871h-.024v-.158l-.064.158h-.015l-.064-.158v.158h-.024v-.178h.042l.053.131.052-.13h.042v.177zm-.225-.16h-.059v.16h-.024v-.16h-.059v-.016h.142zm-9.472-.516c0 .388-.234.715-.662.715s-.662-.327-.662-.715.234-.716.662-.716.662.328.662.716m-1.153 0c0 .288.163.577.491.577s.491-.288.491-.577c0-.29-.163-.577-.491-.577s-.491.288-.491.577m1.123-.676h.19l.44 1.187h.005l.435-1.187h.176L9.605 6.87h-.182l-.54-1.352zm1.403.72c.003.241.133.532.46.532.25 0 .386-.142.44-.346h.171c-.073.307-.257.484-.61.484-.445 0-.632-.33-.632-.715 0-.357.188-.716.632-.716s.629.38.616.76h-1.077zm.906-.138c-.008-.249-.168-.482-.445-.482s-.435.236-.461.482zm1.927-.186c-.008-.205-.17-.296-.366-.296-.152 0-.33.057-.33.233 0 .148.172.2.29.229l.228.05c.195.028.399.139.399.373 0 .294-.3.406-.562.406-.326 0-.548-.147-.575-.477h.17c.014.224.184.338.413.338.16 0 .382-.069.382-.256 0-.158-.152-.21-.307-.246l-.22-.047c-.222-.058-.39-.131-.39-.362 0-.275.28-.38.527-.38.28 0 .501.142.512.435zm.64-.396h.284v.14h-.284v.911c0 .108.015.17.137.178q.073 0 .147-.008v.143c-.05 0-.1.005-.152.005-.228 0-.307-.074-.303-.305v-.925h-.165v-.14h.165v-.405h.17v.406zm1.64.676c0 .388-.234.715-.662.715s-.662-.327-.662-.715.234-.716.662-.716.661.328.661.716zm-1.153 0c0 .288.162.577.49.577.329 0 .492-.288.492-.577 0-.29-.163-.577-.491-.577-.329 0-.491.288-.491.577m2.363-.251c-.046-.202-.173-.325-.397-.325-.328 0-.49.288-.49.577 0 .29.162.577.49.577a.41.41 0 0 0 .407-.385h.171c-.046.325-.265.524-.578.524-.428 0-.661-.328-.661-.716s.233-.715.661-.715c.298 0 .53.154.568.464h-.171zm.36-.944h.172v1.175l.776-.655h.227l-.598.501.638.851h-.214l-.552-.737-.277.224v.513h-.171V5zm-4.807.506v.164a.47.47 0 0 0-.41.48v.72h-.17V5.517h.157v.318h.006a.51.51 0 0 1 .417-.33zM4.87 4.99h2.396v2.315H6.035c.424-.146.782-.513.877-.943.122-.558-.246-1.01-.823-1.01-.521 0-1.035.37-1.22.852zm1.712 1.365c0 .48-.307.869-.685.869s-.685-.388-.685-.87c0-.48.307-.867.685-.867s.685.388.685.868"/></g><g fill="#fff" clip-path="url(#pi-clip4_11771_33661)"><path fill-rule="evenodd" d="m30.726 6.388-.008.006a.56.56 0 0 1-.39.175c-.29 0-.5-.21-.5-.5 0-.289.21-.5.5-.5.139 0 .273.061.39.177l.008.006.186-.218-.005-.006a.72.72 0 0 0-.57-.263.88.88 0 0 0-.59.21.77.77 0 0 0-.25.593c0 .242.087.45.25.595a.88.88 0 0 0 .59.21.72.72 0 0 0 .57-.263l.005-.005-.186-.219zm.374.456h.33V5.292h-.33zm1.619-.337a.5.5 0 0 1-.243.077c-.107 0-.155-.054-.155-.175v-.823h.335v-.292h-.335v-.483l-.323.167v.316h-.279v.292h.279v.877c0 .238.146.402.365.406a.53.53 0 0 0 .291-.071l.004-.003.079-.3-.02.012zm.271.337h.33V5.292h-.33z" clip-rule="evenodd"/><path fill-rule="evenodd" d="M33.513 5.019c-.3-.411-.8-.657-1.308-.657s-1.007.246-1.307.657l-.016.022h.378l.004-.004c.257-.258.595-.394.94-.394s.683.136.94.394l.004.004h.378l-.016-.022z" clip-rule="evenodd"/><path d="M33.91 4.914c0 .017-.014.025-.03.025h-.05v-.052h.05c.016 0 .03.009.03.025zm.032 0c0-.038-.027-.055-.062-.055h-.082v.183h.031v-.07h.037l.037.07h.038l-.038-.074a.05.05 0 0 0 .04-.053zm.093.039a.167.167 0 0 0-.173-.167.167.167 0 0 0-.173.167c0 .095.075.166.173.166a.167.167 0 0 0 .173-.166m-.027 0a.14.14 0 0 1-.145.14.14.14 0 0 1-.144-.14.14.14 0 0 1 .145-.14.14.14 0 0 1 .144.14"/></g><path fill="#fff" d="M5.283 20.275v1.189h.788v-.133h-.63v-1.056zm2.463 1.189.317-1.189h-.158l-.241.989H7.66l-.263-.989h-.172l-.266.989h-.004l-.233-.989h-.161l.305 1.189h.164l.275-.999h.003l.272.999zm.631-.491.201-.555h.004l.198.555zm.118-.698-.463 1.189h.162l.133-.358h.503l.13.358h.175l-.465-1.189zm.757 0v1.189h.787v-.133h-.63v-1.056zm.925 0v1.189h.158v-.416l.198-.185.43.6h.2l-.522-.708.501-.48h-.204l-.603.593v-.593zm1.11 0v1.189h.826v-.133h-.668v-.412h.618v-.133h-.618v-.378h.663v-.133h-.82zm1.018 0v1.189h.158v-.508h.386q.059 0 .094.018a.14.14 0 0 1 .056.047.2.2 0 0 1 .032.068 1 1 0 0 1 .026.17l.004.085.006.07a.1.1 0 0 0 .024.05h.176a.2.2 0 0 1-.038-.069.6.6 0 0 1-.027-.17.6.6 0 0 0-.02-.171.22.22 0 0 0-.08-.13.2.2 0 0 0-.083-.033v-.003a.25.25 0 0 0 .156-.112.36.36 0 0 0 .05-.19.28.28 0 0 0-.096-.228.4.4 0 0 0-.265-.083h-.56zm.488.548h-.33v-.415h.393q.111 0 .161.057a.2.2 0 0 1 .05.146.2.2 0 0 1-.023.107.2.2 0 0 1-.06.065.2.2 0 0 1-.086.032 1 1 0 0 1-.105.008"/><path fill="#BCBEC0" d="M8.99 10.095H5.425a.42.42 0 0 0-.421.42v2.51c0 .233.188.422.421.422H8.99a.42.42 0 0 0 .421-.421v-2.51a.42.42 0 0 0-.42-.421z"/><path fill="#231F20" fill-rule="evenodd" d="M5.005 11.167h1.197v.05H5.005zm0 1.16h1.197v.05H5.005zm4.41-1.11H8.218v-.05h1.197zm0 1.16H8.218v-.05h1.197zm-2.205.611c-.328 0-.63-.086-.898-.234l.024-.044c.262.144.555.228.875.228s.604-.082.866-.228l.024.044a1.8 1.8 0 0 1-.89.234zm-.891-2.199c.269-.15.561-.228.89-.228.33 0 .621.08.89.228l-.024.044a1.76 1.76 0 0 0-.866-.222c-.32 0-.605.076-.866.221z" clip-rule="evenodd"/><path fill="#231F20" d="M6.327 10.613c0-.186-.043-.362-.12-.518h.056a1.22 1.22 0 0 1-.032 1.099 1.22 1.22 0 0 1 0 1.162 1.22 1.22 0 0 1 .032 1.099h-.056a1.17 1.17 0 0 0-.027-1.087l-.006-.012.006-.012a1.17 1.17 0 0 0 0-1.138l-.006-.012.006-.012c.094-.169.147-.363.147-.57zm1.716 0q.002-.28.114-.518h.055a1.17 1.17 0 0 0 .028 1.087l.006.012-.006.012a1.17 1.17 0 0 0-.147.569c0 .207.053.4.147.57l.006.011-.006.012a1.17 1.17 0 0 0-.028 1.086h-.055a1.22 1.22 0 0 1 .032-1.098 1.22 1.22 0 0 1 0-1.163 1.2 1.2 0 0 1-.146-.58"/></g><path fill="#000" fill-opacity=".07" fill-rule="evenodd" d="M35 1H3a2 2 0 0 0-2 2v18a2 2 0 0 0 2 2h32a2 2 0 0 0 2-2V3a2 2 0 0 0-2-2M3 0a3 3 0 0 0-3 3v18a3 3 0 0 0 3 3h32a3 3 0 0 0 3-3V3a3 3 0 0 0-3-3z" clip-rule="evenodd"/><defs><clipPath id="pi-clip0_11771_33661"><rect width="36" height="22" x="1" y="1" fill="#fff" rx="2"/></clipPath><clipPath id="pi-clip1_11771_33661"><path fill="#fff" d="M26.47 15.716h7.483v4.694H26.47z"/></clipPath><clipPath id="pi-clip2_11771_33661"><path fill="#fff" d="M11.008 10.43h1.946v2.38h-1.946z"/></clipPath><clipPath id="pi-clip3_11771_33661"><path fill="#fff" d="M4.87 4.99h13.741v2.315H4.87z"/></clipPath><clipPath id="pi-clip4_11771_33661"><path fill="#fff" d="M29.497 4.362h4.539v2.511h-4.539z"/></clipPath></defs></svg>