<svg alt="CitiPlccCard" aria-labelledby="pi-overstockcitiplcc" width="38" height="24" role="img" viewBox="0 0 38 24" fill="none" xmlns="http://www.w3.org/2000/svg"><title id="pi-overstockcitiplcc">Overstock Credit Card</title><g clip-path="url(#pi-clip0_11711_3069)"><mask id="pi-mask0_11711_3069" style="mask-type:luminance" maskUnits="userSpaceOnUse" x="0" y="0" width="40" height="26"><path d="M38.39 0H1.61C.72 0 0 .72 0 1.61v22.012c0 .89.72 1.61 1.61 1.61h36.78c.89 0 1.61-.72 1.61-1.61V1.61C40 .72 39.28 0 38.39 0z" fill="#fff"/></mask><g mask="url(#pi-mask0_11711_3069)"><path d="M40 25.232H0V0h40v25.232z" fill="#252525"/><path fill-rule="evenodd" clip-rule="evenodd" d="M21.444-.987c6.213 1.797 9.78 7.804 8.254 14.932-1.224 5.773-5.492 10.8-10.758 13.459H-.128a1.61 1.61 0 01-1.61-1.61V13.685a1517.637 1517.637 0 011.102-2.464C1.688 5.339 7.122.578 13.206-.987h8.238zM4.638 13.679c0 7.288 4.358 13.203 9.742 13.203 5.383 0 9.741-5.915 9.741-13.203 0-7.288-4.358-13.202-9.741-13.202-5.384 0-9.742 5.914-9.742 13.202z" fill="#545658"/><mask id="pi-mask1_11711_3069" style="mask-type:luminance" maskUnits="userSpaceOnUse" x="3" y="3" width="18" height="4"><path d="M20.34 3.396H3.163v2.99H20.34v-2.99z" fill="#fff"/></mask><g mask="url(#pi-mask1_11711_3069)" fill="#fff"><path d="M20.34 5.825h-.03V5.62l-.08.205h-.018l-.08-.205v.205h-.03v-.23h.052l.066.17.066-.17h.052v.23h.002zm-.28-.206h-.075v.206h-.03v-.206h-.073v-.022h.177v.022zM8.217 4.952c0 .501-.292.924-.827.924-.535 0-.827-.423-.827-.924 0-.501.292-.924.827-.924.535 0 .827.423.827.924zm-1.44 0c0 .372.203.745.613.745s.614-.372.614-.745c0-.374-.204-.745-.614-.745-.41 0-.614.371-.614.745zm1.402-.873h.238l.55 1.533h.007l.543-1.533h.22l-.655 1.746h-.226l-.675-1.746H8.18zm1.755.93c.003.311.165.687.576.687.312 0 .48-.184.55-.448h.213c-.092.397-.322.626-.763.626-.557 0-.79-.426-.79-.924 0-.46.235-.924.79-.924s.786.492.77.982H9.934v.001zm1.132-.178c-.01-.321-.21-.623-.556-.623-.346 0-.543.305-.576.623h1.132zm2.41-.241c-.01-.264-.214-.382-.459-.382-.19 0-.413.074-.413.302 0 .19.217.257.363.294l.285.064c.245.038.5.18.5.484 0 .378-.377.524-.703.524-.407 0-.685-.19-.72-.616h.214c.017.288.23.436.516.436.2 0 .477-.089.477-.331 0-.203-.19-.27-.384-.318l-.274-.06c-.277-.074-.487-.17-.487-.468 0-.355.35-.49.658-.49.35 0 .627.183.64.56h-.214zm.799-.511h.356v.18h-.356v1.178c0 .139.02.22.172.229.06 0 .121-.003.184-.01v.184c-.064 0-.125.006-.19.006-.286 0-.385-.095-.38-.393V4.26h-.207v-.18h.207v-.524h.214v.524zm2.05.873c0 .501-.293.924-.828.924-.535 0-.827-.423-.827-.924 0-.501.292-.924.827-.924.535 0 .828.423.828.924zm-1.442 0c0 .372.204.745.614.745.41 0 .614-.372.614-.745 0-.374-.203-.745-.614-.745-.41 0-.614.371-.614.745zm2.955-.324c-.058-.26-.217-.42-.496-.42-.41 0-.614.372-.614.746 0 .373.204.745.614.745.264 0 .48-.207.509-.498h.213c-.057.42-.331.676-.722.676-.535 0-.827-.422-.827-.923 0-.502.292-.924.827-.924.372 0 .661.2.709.6h-.213v-.002zm.45-1.22h.214v1.518l.97-.846h.284l-.747.647.798 1.1h-.267l-.691-.952-.347.288v.664h-.213V3.409zm-6.009.654v.212c-.31.046-.512.303-.512.619v.93h-.213V4.077h.197v.41h.006a.643.643 0 01.522-.426v.001zM3.165 3.396H6.16v2.99H4.62c.53-.19.979-.663 1.097-1.218.153-.72-.307-1.304-1.029-1.304-.652 0-1.293.477-1.525 1.1V3.395h.002zm2.14 1.762c0 .62-.384 1.122-.857 1.122-.472 0-.856-.5-.856-1.122 0-.62.384-1.12.856-1.12.473 0 .857.501.857 1.12z"/></g><path d="M3.317 21.598v1.065h.705v-.12h-.564v-.945h-.141zM5.521 22.663l.285-1.065h-.142l-.216.886h-.003l-.235-.886h-.154l-.238.886h-.003l-.209-.886h-.145l.273 1.065h.148l.246-.895h.003l.242.895h.148zM6.086 22.223l.18-.496h.004l.177.496h-.36zm.106-.625l-.414 1.065h.144l.12-.321h.45l.116.32h.156l-.415-1.064h-.157zM6.87 21.598v1.065h.704v-.12h-.563v-.945h-.142zM7.698 21.598v1.065h.141v-.373l.177-.165.385.538h.179l-.467-.635.449-.43h-.183l-.54.53v-.53h-.141zM8.692 21.598v1.065h.739v-.12h-.598v-.368h.553v-.12h-.553v-.337h.593v-.12h-.734zM9.603 21.598v1.065h.141v-.455h.346c.035 0 .063.005.083.016a.13.13 0 01.051.042.165.165 0 01.028.061.754.754 0 01.024.152l.003.076a.579.579 0 00.006.063.095.095 0 00.021.045h.158a.196.196 0 01-.034-.062.597.597 0 01-.024-.153.593.593 0 00-.018-.154.19.19 0 00-.072-.114.183.183 0 00-.074-.03v-.003a.224.224 0 00.14-.1.319.319 0 00.045-.17.255.255 0 00-.087-.204.347.347 0 00-.237-.075h-.5zm.436.49h-.295v-.37h.352c.066 0 .115.017.144.05a.19.19 0 01.045.131c0 .04-.007.071-.02.096a.158.158 0 01-.054.058.204.204 0 01-.078.028.567.567 0 01-.094.008z" fill="#fff"/></g></g><rect x=".5" y=".5" width="37" height="23" rx="1.5" stroke="#000" stroke-opacity=".07"/><defs><clipPath id="pi-clip0_11711_3069"><rect width="38" height="24" rx="2" fill="#fff"/></clipPath></defs></svg>