<svg xmlns="http://www.w3.org/2000/svg" fill="none" viewBox="0 0 38 24" height="24" width="38" aria-labelledby="pi-overstockciticobrand" role="img"><title id="pi-overstockciticobrand">Overstock Mastercard</title><g clip-path="url(#pi-overstockcitiplcc-a)"><path fill="#FF5362" d="M0 0h38v24H0z"/><path fill="#ED0000" fill-rule="evenodd" d="M38 0v24H14c5.13-1.825 9.582-6.378 10.728-11.762 1.483-6.986-2.974-12.651-9.96-12.651C8.458-.413 2.24 4.223 0 10.26V0h38Z" clip-rule="evenodd"/><path fill="#ED0000" fill-rule="evenodd" d="M12.51 23.044c-4.7 0-8.499-4.917-8.499-11s3.8-11 8.499-11c4.702 0 8.501 4.917 8.501 11s-3.8 11-8.501 11Z" clip-rule="evenodd"/><path fill="#fff" fill-rule="evenodd" d="M19 6.266h-.027v-.192l-.076.192h-.017l-.075-.192h-.001v.192h-.027v-.215h.05l.061.159h.001l.062-.159H19v.215Zm-.263-.194h-.069v.194h-.026v-.194h-.07v-.02h.165v.02ZM7.669 5.447c0 .47-.272.866-.774.866-.5 0-.773-.396-.773-.866s.273-.867.773-.867c.502 0 .774.397.774.867Zm-1.347 0c0 .35.19.699.573.699.383 0 .573-.35.573-.699s-.19-.698-.573-.698c-.383 0-.573.35-.573.698Zm1.31-.818h.223l.513 1.437h.006l.508-1.437h.205l-.61 1.637h-.214l-.63-1.637Zm1.64.873c.003.292.155.644.54.644.291 0 .45-.172.512-.42h.2c-.085.373-.3.588-.712.588-.52 0-.74-.4-.74-.867 0-.431.22-.866.74-.866.526 0 .734.46.719.92H9.272Zm1.06-.169c-.011-.302-.198-.584-.52-.584-.327 0-.508.286-.54.584h1.06Zm2.251-.225c-.01-.247-.2-.36-.428-.36-.178 0-.387.07-.387.284 0 .178.203.24.34.276l.265.06c.228.035.466.169.466.454 0 .356-.352.492-.656.492-.38 0-.64-.177-.671-.578h.199c.016.27.216.41.482.41.187 0 .447-.082.447-.311 0-.19-.178-.254-.359-.298l-.256-.058c-.26-.07-.457-.158-.457-.437 0-.334.327-.46.615-.46.327 0 .587.171.6.526h-.2Zm.747-.48h.333v.17h-.333V5.9c0 .13.018.207.161.216.058 0 .115-.003.172-.01v.172c-.061 0-.117.007-.178.007-.266 0-.359-.089-.356-.368v-1.12h-.193v-.17h.193v-.491h.2v.492Zm1.916.82c0 .47-.273.866-.773.866-.501 0-.774-.396-.774-.867 0-.47.273-.866.774-.866.5 0 .773.397.773.866Zm-1.347 0c0 .349.19.698.574.698.383 0 .573-.35.573-.699s-.19-.697-.573-.697c-.383 0-.574.348-.574.697Zm2.762-.305c-.053-.244-.202-.393-.462-.393-.384 0-.574.348-.574.697 0 .35.19.699.574.699.246 0 .45-.193.474-.466h.2c-.054.393-.31.634-.674.634-.502 0-.774-.396-.774-.867 0-.47.272-.866.774-.866.348 0 .617.187.661.562h-.199ZM17.083 4h.2v1.423l.906-.794h.267l-.698.606.745 1.032h-.25l-.647-.893-.323.27v.623h-.2V4Zm-5.617.811c-.29.044-.478.285-.478.582v.873h-.2V4.629h.184v.383h.006a.597.597 0 0 1 .488-.399v.198ZM5.74 4.003v2.745H4.33c.485-.173.896-.608 1.004-1.118.14-.661-.28-1.197-.941-1.197-.596 0-1.182.437-1.394 1.008V4.003h2.74Z" clip-rule="evenodd"/><path fill="#fff" fill-rule="evenodd" d="M4.14 6.665c-.419 0-.758-.463-.758-1.035 0-.572.34-1.035.758-1.035s.757.463.757 1.035c0 .572-.339 1.035-.757 1.035Z" clip-rule="evenodd"/></g><defs><clipPath id="pi-overstockcitiplcc-a"><path fill="#fff" d="M0 0h38v24H0z"/></clipPath></defs></svg>
