<svg role="img" width="38" height="24" alt="CitiPlccCard" aria-labelledby="pi-overstockcitiplcc" xmlns="http://www.w3.org/2000/svg" fill="none" viewBox="0 0 38 24"><title id="pi-overstockcitiplcc">Overstock Credit Card</title><g clip-path="url(#pi-overstockcitiplcc-a)"><path fill="#545658" d="M0 0h38v24H0z"/><path fill="#252525" fill-rule="evenodd" d="M38 0v24H14c5.13-1.83 9.58-6.38 10.73-11.76C26.2 5.25 21.75-.41 14.77-.41 8.46-.41 2.24 4.22 0 10.26V0h38z" clip-rule="evenodd"/><path fill="#252525" fill-rule="evenodd" d="M12.51 23.04c-4.7 0-8.5-4.91-8.5-11 0-6.08 3.8-11 8.5-11s8.5 4.92 8.5 11c0 6.09-3.8 11-8.5 11z" clip-rule="evenodd"/><path fill="#fff" fill-rule="evenodd" d="M19 6.27h-.03v-.2l-.07.2h-.02l-.08-.2v.2h-.02v-.22h.05l.06.16.06-.16H19v.22zm-.26-.2h-.07v.2h-.03v-.2h-.07v-.02h.17v.02zM7.67 5.45c0 .47-.27.86-.77.86s-.78-.4-.78-.86c0-.47.27-.87.78-.87.5 0 .77.4.77.87zm-1.35 0c0 .35.2.7.58.7.38 0 .57-.35.57-.7s-.2-.7-.57-.7c-.39 0-.58.35-.58.7zm1.31-.82h.22l.52 1.44.51-1.44h.2l-.6 1.64h-.22l-.63-1.64zm1.64.87c0 .3.16.65.54.65.3 0 .45-.18.51-.42h.2c-.08.37-.3.58-.7.58-.53 0-.75-.4-.75-.86 0-.43.22-.87.74-.87.53 0 .74.46.72.92H9.27zm1.06-.17c0-.3-.2-.58-.52-.58-.33 0-.5.29-.54.58h1.06zm2.25-.22c0-.25-.2-.36-.43-.36-.17 0-.38.07-.38.28 0 .18.2.24.34.28l.26.06c.23.03.47.17.47.45 0 .36-.35.5-.66.5-.38 0-.64-.18-.67-.58h.2c.02.27.22.4.48.4.19 0 .45-.08.45-.3 0-.2-.18-.26-.36-.3l-.25-.06c-.26-.07-.46-.16-.46-.44 0-.33.32-.46.61-.46.33 0 .59.17.6.53h-.2zm.75-.48h.33v.17h-.33v1.1c0 .13.02.2.16.22l.17-.01v.17h-.18c-.26 0-.35-.08-.35-.36V4.8h-.2v-.17h.2v-.5h.2v.5zm1.92.82c0 .47-.28.86-.78.86s-.77-.4-.77-.86c0-.47.27-.87.77-.87s.78.4.78.87zm-1.35 0c0 .35.19.7.57.7.39 0 .58-.35.58-.7s-.2-.7-.58-.7c-.38 0-.57.35-.57.7zm2.76-.3c-.05-.25-.2-.4-.46-.4-.39 0-.58.35-.58.7s.2.7.58.7c.25 0 .45-.2.47-.47h.2c-.05.4-.3.63-.67.63-.5 0-.77-.4-.77-.86 0-.47.27-.87.77-.87.35 0 .62.19.66.56h-.2zM17.08 4h.2v1.42l.9-.8h.28l-.7.61.74 1.04h-.25l-.64-.9-.33.27v.63h-.2V4zm-5.61.81c-.3.04-.48.29-.48.58v.88h-.2V4.63h.18V5a.6.6 0 01.5-.4v.2zM5.74 4v2.75h-1.4c.48-.17.89-.61 1-1.12.14-.66-.29-1.2-.95-1.2-.6 0-1.18.44-1.39 1.01V4h2.74z" clip-rule="evenodd"/><path fill="#fff" fill-rule="evenodd" d="M4.14 6.66c-.42 0-.76-.46-.76-1.03 0-.57.34-1.04.76-1.04s.76.47.76 1.04c0 .57-.34 1.03-.76 1.03z" clip-rule="evenodd"/></g><defs><clipPath id="pi-overstockcitiplcc-a"><path fill="#fff" d="M0 0h38v24H0z"/></clipPath></defs></svg>