<svg xmlns="http://www.w3.org/2000/svg" role="img" viewBox="0 0 38 24" width="38" height="24" aria-labelledby="pi-oxxo"><title id="pi-oxxo">OXXO</title><path d="M38 0H0v24h38V0z" fill="#fff"/><path fill-rule="evenodd" clip-rule="evenodd" d="M4 5.938C4 5.426 4.415 5 4.914 5h27.403c.498 0 .914.426.914.938V17.9c0 .512-.416.938-.914.938H4.914c-.498 0-.914-.427-.914-.938V5.938z" fill="#EEA414"/><path fill-rule="evenodd" clip-rule="evenodd" d="M4 6.365h29.23v11.108H4V6.365z" fill="#fff"/><path fill-rule="evenodd" clip-rule="evenodd" d="M28.785 9.264c-1.33 0-2.43 1.11-2.43 2.495 0 1.365 1.08 2.495 2.43 2.495 1.33 0 2.43-1.109 2.43-2.495 0-1.386-1.1-2.495-2.43-2.495zM8.778 9.264c-1.33 0-2.43 1.11-2.43 2.495 0 1.365 1.08 2.495 2.43 2.495 1.33 0 2.431-1.109 2.431-2.495-.02-1.386-1.101-2.495-2.43-2.495z" fill="#E00817"/><path fill-rule="evenodd" clip-rule="evenodd" d="M28.598 7.068c-2.244-.042-3.303 1.429-4.84 3.241l-1.455 1.727 2.285 2.815c.54.874-.498 1.727-1.142.938l-2.12-2.601-2.056 2.452c-.644.789-1.683-.086-1.122-.939l2.244-2.665-1.475-1.812.934-1.194 1.496 1.834 1.288-1.536c.624-.746 1.268-1.748 2.12-2.26H4v9.723h4.84c2.244 0 3.262-1.386 4.758-3.24l1.413-1.75-2.348-2.771c-.56-.853.457-1.727 1.122-.96l2.181 2.538 2.016-2.495c.623-.789 1.683.064 1.142.917l-2.181 2.73 1.517 1.769-.956 1.151-1.496-1.727-1.267 1.557c-.623.767-1.247 1.748-2.057 2.281h20.547V7.068h-4.633zM12.6 11.76c0 2.175-1.724 3.945-3.843 3.945-2.12 0-3.844-1.77-3.844-3.945s1.724-3.944 3.844-3.944c2.119 0 3.843 1.77 3.843 3.944zm16.184 3.923c-2.12 0-3.844-1.77-3.844-3.944 0-2.175 1.725-3.945 3.844-3.945 2.119 0 3.843 1.77 3.843 3.945-.02 2.175-1.745 3.944-3.843 3.944z" fill="#E00817"/></svg>