<svg xmlns="http://www.w3.org/2000/svg" xmlns:xlink="http://www.w3.org/1999/xlink" x="0px" y="0px"
	 role="img" viewBox="0 0 38 24" width="38" height="24" aria-labelledby="pi-oxxo" style="enable-background:new 0 0 38 24;" xml:space="preserve">
<title id="pi-oxxo">OXXO</title>
<style type="text/css">
	.st0{opacity:7.000000e-02;enable-background:new    ;}
	.st1{fill:#FFFFFF;}
	.st2{fill-rule:evenodd;clip-rule:evenodd;fill:#EEA414;}
	.st3{fill-rule:evenodd;clip-rule:evenodd;fill:#FFFFFF;}
	.st4{fill-rule:evenodd;clip-rule:evenodd;fill:#E00817;}
</style>
<path class="st0" d="M35,0H3C1.3,0,0,1.3,0,3v18c0,1.7,1.4,3,3,3h32c1.7,0,3-1.3,3-3V3C38,1.3,36.6,0,35,0z"/>
<path class="st1" d="M35,1c1.1,0,2,0.9,2,2v18c0,1.1-0.9,2-2,2H3c-1.1,0-2-0.9-2-2V3c0-1.1,0.9-2,2-2H35"/>
<g>
	<path class="st2" d="M11,8.8c0-0.3,0.2-0.5,0.5-0.5h15.1c0.3,0,0.5,0.2,0.5,0.5v6.4c0,0.3-0.2,0.5-0.5,0.5H11.5
		c-0.3,0-0.5-0.2-0.5-0.5V8.8L11,8.8z"/>
	<polygon class="st3" points="11,9 27,9 27,15 11,15 11,9 	"/>
	<path class="st4" d="M24.6,10.6c-0.7,0-1.3,0.6-1.3,1.3c0,0.7,0.6,1.3,1.3,1.3c0.7,0,1.3-0.6,1.3-1.3
		C25.9,11.2,25.3,10.6,24.6,10.6L24.6,10.6z"/>
	<path class="st4" d="M13.6,10.6c-0.7,0-1.3,0.6-1.3,1.3c0,0.7,0.6,1.3,1.3,1.3c0.7,0,1.3-0.6,1.3-1.3
		C14.9,11.2,14.3,10.6,13.6,10.6L13.6,10.6z"/>
	<path class="st4" d="M24.5,9.4c-1.2,0-1.8,0.8-2.7,1.7L21,12.1l1.3,1.5c0.3,0.5-0.3,0.9-0.6,0.5l-1.2-1.4L19.4,14
		c-0.4,0.4-0.9,0-0.6-0.5l1.2-1.4l-0.8-1l0.5-0.6l0.8,1l0.7-0.8c0.3-0.4,0.7-0.9,1.2-1.2H11v5.2h2.7c1.2,0,1.8-0.7,2.6-1.7l0.8-0.9
		l-1.3-1.5C15.4,10,16,9.5,16.3,9.9l1.2,1.4l1.1-1.3c0.4-0.4,0.9,0,0.6,0.5l-1.2,1.5l0.8,0.9l-0.5,0.6l-0.8-0.9l-0.7,0.8
		c-0.3,0.4-0.7,0.9-1.1,1.2H27V9.4H24.5L24.5,9.4z M15.7,11.9c0,1.2-0.9,2.1-2.1,2.1c-1.2,0-2.1-0.9-2.1-2.1c0-1.2,0.9-2.1,2.1-2.1
		C14.7,9.8,15.7,10.7,15.7,11.9L15.7,11.9z M24.6,14c-1.2,0-2.1-0.9-2.1-2.1c0-1.2,0.9-2.1,2.1-2.1c1.2,0,2.1,0.9,2.1,2.1
		C26.7,13.1,25.8,14,24.6,14L24.6,14z"/>
</g>
</svg>
