<svg
    xmlns="http://www.w3.org/2000/svg" width="38" height="24" role="img" viewBox="0 0 38 24" aria-labelledby="pi-oxxo">
    <title id="pi-oxxo">OXXO</title>
    <style>.st4{fill-rule:evenodd;clip-rule:evenodd;fill:#e00817}</style>
    <path d="M35 0H3C1.3 0 0 1.3 0 3v18c0 1.7 1.4 3 3 3h32c1.7 0 3-1.3 3-3V3c0-1.7-1.4-3-3-3z" opacity=".07"/>
    <path d="M35 1c1.1 0 2 .9 2 2v18c0 1.1-.9 2-2 2H3c-1.1 0-2-.9-2-2V3c0-1.1.9-2 2-2h32" fill="#fff"/>
    <path d="M11 8.8c0-.3.2-.5.5-.5h15.1c.3 0 .5.2.5.5v6.4c0 .3-.2.5-.5.5H11.5c-.3 0-.5-.2-.5-.5V8.8z" fill-rule="evenodd" clip-rule="evenodd" fill="#eea414"/>
    <path fill-rule="evenodd" clip-rule="evenodd" fill="#fff" d="M11 9h16v6H11V9z"/>
    <path class="st4" d="M24.6 10.6c-.7 0-1.3.6-1.3 1.3 0 .7.6 1.3 1.3 1.3.7 0 1.3-.6 1.3-1.3 0-.7-.6-1.3-1.3-1.3zM13.6 10.6c-.7 0-1.3.6-1.3 1.3 0 .7.6 1.3 1.3 1.3.7 0 1.3-.6 1.3-1.3 0-.7-.6-1.3-1.3-1.3z"/>
    <path class="st4" d="M24.5 9.4c-1.2 0-1.8.8-2.7 1.7l-.8 1 1.3 1.5c.3.5-.3.9-.6.5l-1.2-1.4-1.1 1.3c-.4.4-.9 0-.6-.5l1.2-1.4-.8-1 .5-.6.8 1 .7-.8c.3-.4.7-.9 1.2-1.2H11v5.2h2.7c1.2 0 1.8-.7 2.6-1.7l.8-.9-1.3-1.5c-.4-.6.2-1.1.5-.7l1.2 1.4 1.1-1.3c.4-.4.9 0 .6.5L18 12l.8.9-.5.6-.8-.9-.7.8c-.3.4-.7.9-1.1 1.2H27V9.4h-2.5zm-8.8 2.5c0 1.2-.9 2.1-2.1 2.1-1.2 0-2.1-.9-2.1-2.1 0-1.2.9-2.1 2.1-2.1 1.1 0 2.1.9 2.1 2.1zm8.9 2.1c-1.2 0-2.1-.9-2.1-2.1 0-1.2.9-2.1 2.1-2.1 1.2 0 2.1.9 2.1 2.1 0 1.2-.9 2.1-2.1 2.1z"/>
</svg>