<svg xmlns="http://www.w3.org/2000/svg" fill="none" viewBox="0 0 38 24" height="24" width="38" aria-labelledby="pi-ozow" role="img"><title id="pi-ozow">Ozow</title><path fill="#fff" d="M0 0h38v24H0z"/><path fill="#1F232E" d="m32.758 14.057-.796-2.35-.053-.005c-.067.186-.139.37-.201.557-.211.635-.416 1.273-.635 1.905-.022.065-.119.143-.185.146a9.124 9.124 0 0 1-.866.002c-.056-.003-.144-.062-.161-.114-.49-1.466-.974-2.936-1.458-4.405-.01-.028-.017-.058-.033-.11.313 0 .618-.04.908.01.359.06.447.388.543.69.216.68.437 1.36.68 2.114.148-.433.276-.8.398-1.168.164-.495.326-.99.484-1.487.041-.128.103-.192.25-.18.187.016.376.018.562 0 .176-.016.245.057.296.215.268.83.546 1.656.821 2.483.01.029.027.055.059.119l.358-1.11c.136-.422.27-.845.41-1.265a.611.611 0 0 1 .596-.437c.241-.005.483 0 .765 0-.062.188-.115.353-.17.517-.396 1.203-.798 2.404-1.188 3.609-.17.52-.16.524-.715.524-.117 0-.236-.012-.351.003-.194.024-.297-.05-.318-.263Zm-15.32.055c-1.292.685-2.734.253-3.415-1.01-.64-1.187-.05-2.836 1.194-3.338 1.344-.542 2.692.01 3.264 1.337.436 1.012.02 2.34-.913 2.923-.04.025-.077.053-.13.088Zm.112-2.44-.053-.154a1.383 1.383 0 0 0-1.45-.898c-.621.075-1.154.6-1.215 1.205-.062.614.192 1.087.714 1.38.475.267.986.249 1.436-.07.481-.343.69-.826.568-1.463Z"/><path fill="#20232E" d="M28.248 12.45c-.293 1.63-2.183 2.498-3.61 1.674a2.485 2.485 0 0 1-1.22-2.375 2.487 2.487 0 0 1 1.74-2.1 2.452 2.452 0 0 1 3.09 2.801Zm-3.206.671c.125.062.244.143.376.183.793.235 1.592-.21 1.765-.976a1.39 1.39 0 0 0-1.122-1.699c-.625-.104-1.224.237-1.503.856-.24.532-.051 1.193.484 1.636Z"/><path fill="#20242F" d="M22.79 14.312h-3.775c.011-.404-.075-.774.267-1.127.71-.736 1.365-1.527 2.04-2.296.05-.055.087-.12.157-.22h-.875c-.359 0-.718.003-1.077-.001-.334-.004-.504-.17-.516-.503-.006-.155-.001-.31-.001-.482h4.147c0 .252.008.5-.006.747-.004.065-.07.133-.12.188-.81.879-1.62 1.756-2.46 2.664.1.009.163.02.226.02.594 0 1.187-.002 1.78 0 .398.002.579.19.58.593v.417h-.367Z"/><path fill="#06D796" d="M4.375 11.636c-.472.473-.93.937-1.398 1.39-.069.065-.2.128-.276.106-.072-.022-.131-.15-.16-.243-.105-.332 0-.598.247-.842.777-.764 1.524-1.558 2.313-2.308.773-.735 1.717-.97 2.764-.812.269.04.43.252.384.49-.049.25-.248.382-.524.331-.86-.158-1.581.11-2.19.714-.387.383-.766.773-1.16 1.174Z"/><path fill="#05C5A5" d="M10.234 11.031c.593 1.678-.433 3.56-2.165 3.987-.853.21-1.652.088-2.416-.376a1.14 1.14 0 0 1 .18-.22l.389-.378c1.176.526 2.356.2 3.015-.85.317-.506.418-1.065.318-1.678.155-.128.289-.24.43-.342.077-.056.166-.096.249-.143Z"/><path fill="#06BFAA" d="M6.819 15.887c.716.06 1.409-.024 2.071-.325a4.097 4.097 0 0 0 1.41-1.078c.188-.217.422-.258.611-.105.19.154.206.429.018.646-1.026 1.187-2.322 1.762-3.894 1.694a4.37 4.37 0 0 1-.668-.092c.178-.223.375-.423.575-.627l-.123-.113Z"/><path fill="#05CF9C" d="M6.21 14.033c-.118.137-.247.263-.376.39a2.312 2.312 0 0 0-.189.205c-.182-.116-.375-.235-.538-.387-.162-.15-.295-.334-.447-.51l-.54.587c.177.189.377.402.581.645a.387.387 0 0 1-.096.148c-.152.14-.306.279-.46.418-.299-.351-.615-.69-.893-1.059-.173-.23-.131-.398.071-.603.369-.375.738-.749 1.114-1.116.268-.262.552-.22.71.116.194.408.469.745.812 1.03.068.057.16.085.252.136Z"/><path fill="#04D09B" d="M6.289 13.125c-.67-.562-.655-1.563-.12-2.148a1.505 1.505 0 0 1 2.183-.021c-.096.43-.229.566-.555.58-.313-.302-.699-.284-.963-.055-.247.213-.259.498-.203.813-.012.066-.017.114-.022.162l.144-.013c.002.001.005.003-.003.021-.077.113-.149.206-.216.302-.084.118-.164.24-.245.36Z"/><path fill="#05DD90" d="M6.582 8.126c-.613.158-1.2.376-1.696.787-.125.103-.244.214-.368.319-.207.177-.456.171-.622-.012-.14-.154-.12-.412.056-.584.915-.892 2.007-1.361 3.31-1.35-.173.227-.37.43-.558.64-.052.057-.082.133-.122.2Z"/><path fill="#05CBA0" d="M7.811 11.546c.312-.024.445-.16.551-.577.562.584.57 1.5.017 2.068-.558.575-1.488.624-2.08.098a3.892 3.892 0 0 1 .464-.66c.209.162.424.251.68.181.497-.135.66-.629.368-1.11Z"/><path fill="#05C8A2" d="M11.015 9.1c.542.668.865 1.43.96 2.284.032.275-.115.459-.353.484-.238.026-.42-.119-.46-.39a4.135 4.135 0 0 0-.77-1.884c.09-.064.174-.103.244-.16.13-.106.253-.223.379-.335Z"/><path fill="#04C7A2" d="M4.154 15.543c.145-.153.3-.291.451-.432a.662.662 0 0 0 .104-.135c.45.238.89.513 1.353.737.216.104.48.108.74.166.059.047.1.085.14.121-.2.204-.397.404-.593.62-.83-.14-1.55-.517-2.195-1.077Z"/><path fill="#04D09B" d="M11.007 9.084c-.118.128-.24.244-.371.35-.07.057-.155.096-.25.145-.488-.544-1.03-.992-1.73-1.265.073-.115.157-.202.24-.29.106-.114.211-.23.317-.343.728.293 1.288.8 1.794 1.403Z"/><path fill="#05D895" d="M9.203 7.672a5.094 5.094 0 0 1-.308.351c-.082.089-.166.175-.251.28a4.522 4.522 0 0 0-2.04-.175.496.496 0 0 1 .1-.202c.189-.21.385-.412.58-.635a3.403 3.403 0 0 1 1.737.325c.053.025.114.032.182.056Z"/><path fill="#06CC9F" d="M10.236 11.014c-.085.064-.174.104-.251.16-.141.102-.275.214-.428.323-.158-.448-.372-.852-.71-1.19-.167-.168-.135-.406.033-.563.168-.156.385-.156.565.007.376.343.63.766.79 1.263Z"/><path fill="#05CBA0" d="M6.63 12.294a.462.462 0 0 1 .117.136c-.043.017-.091.021-.138.026.005-.048.01-.096.022-.162Z"/></svg>