<svg xmlns="http://www.w3.org/2000/svg" role="img" viewBox="0 0 38 24" width="38" height="24" aria-labelledby="pi-pagoexpress"><title id="pi-pagoexpress">Pago Express</title><path opacity=".07" d="M35 0H3C1.3 0 0 1.3 0 3v18c0 1.7 1.4 3 3 3h32c1.7 0 3-1.3 3-3V3c0-1.7-1.4-3-3-3z"/><path fill="#FFF" d="M35 1c1.1 0 2 .9 2 2v18c0 1.1-.9 2-2 2H3c-1.1 0-2-.9-2-2V3c0-1.1.9-2 2-2h32"/><g fill-rule="evenodd" clip-rule="evenodd"><path fill="#932428" d="M8.27 8.29c0-.52.27-.53.75-.53h11.36c.74 0 .59.1.58-.69 0-.24.02-.33.18-.45.13-.09.35-.1.55-.08.16.01 1.35.93 1.49 1.05.5.41 1.04.76 1.44 1.09 1.07.86 2.53 1.86 3.61 2.73.14.11.63.41.66.6.03.22-.12.35-.24.43-.28.17-1.64 1.23-1.81 1.33-.46.27-2.21 1.61-2.94 2.12l-.35.27c-.16.09-.24.16-.37.25-.15.1-.25.17-.38.28l-.72.53c-.15.09-.19.2-.42.2-.8 0-.7-.2-.7-1.21 0-.3.07-.32-.22-.32H9.65c-.29 0-1 .07-1.22-.1-.09-.07-.16-.15-.16-.3v-7.2zm12.64-4.83v1.08c0 .27.13.2-.66.2-2.31 0-14.01-.03-14.12 0-.13.04-.29.2-.37.31 0 .01-.01.02-.01.02-.05.06.01.03-.07.06 0 .4-.04 12.99.01 13.15l.03.06.29.3c.19.11.39.07.61.07h13.63c.79 0 .66-.07.66.2 0 .36-.05 1.61.02 1.88.03.11.03.09.08.18.06.11.15.2.26.27l.12.05c.25.1.55.06.83.06.06-.16.41-.41.56-.53l.22-.2c.21-.19.46-.35.65-.56.01-.01.06-.06.06-.07a.55.55 0 01.09-.07l2.28-1.96c.01 0 .01-.01.02-.02l1.99-1.72c.1-.07.2-.2.3-.29l.52-.44c.01 0 .01-.01.02-.02.01 0 .01-.01.02-.02l1.11-.96c.13-.09.2-.18.31-.28l1.55-1.37c.44-.37.42-.42.42-.99-.11-.04-.17-.2-.3-.29-.01 0-.07-.05-.08-.05l-.05-.05c0-.01-.01-.01-.02-.02l-.98-.89-.02-.02-.36-.33c-.01-.01-.03-.02-.04-.03l-.02-.02-.03-.04c-.1-.11-.13-.1-.23-.2l-.24-.22c-.07-.07-.11-.09-.18-.15l-2.08-1.89c-.01 0-.01-.01-.02-.02l-.02-.02-.02-.02-.57-.52c-.01-.01-.03-.02-.03-.03l-.04-.03-1.19-1.08c-.33-.32-.71-.62-1.03-.94l-.02-.02-1.94-1.74c-.01 0-.01-.01-.02-.02l-.59-.53c-.05-.05-.04-.02-.07-.09h-.72c-.04.09-.13.06-.21.12-.09.06-.12.1-.18.18-.04.06-.03.03-.06.1l-.05.12c0 .14-.02.22-.02.35z"/><path fill="#2E4379" d="M14.79 12.44c.12-.08.36-.2.41-.33-.24-.02-.38.03-.58.03-.29 0-.28-.02-.46.13-.14.11-.52.47-.73.51l.07-.64c-1.03 0-.86-.12-.86.52 0 .87.12.65-.49 1.05-.29.2-1.26.93-1.51.98.15-.22.25-.3.27-.54h-.81c.01-.14.03-.14.12-.24.07-.08.06-.09.13-.17h.86c.09-.16.38-.42.38-.6l-.78-.01c.01-.14.1-.13.25-.4l.93-.01s.35-.39.38-.59h-1.36c-.35.01-.2-.02-.49.35l-1.2 1.62c-.12.17-.43.51-.43.68.35-.01 1.18.05 1.62 0l.14.01.01.01h.75l.89-.66c.09-.08.21-.19.34-.22 0 .16-.12.65-.09.79.02.12.17.09.38.08.42 0 .32.04.48-.11l.02-1.31 1.36-.93z"/><path fill="#932428" d="M16.88 10.85c-.15.1-.09.15-.32.24-.43.17-.87-.16-.87-.8 0-.96.85-1.05 1.12-.57.2-.02.54-.22.61-.32-.03-.13-.19-.28-.29-.37s-.27-.18-.43-.22c-1.76-.41-2.24 2.02-1.05 2.76.26.16.72.23 1.07.12.31-.1.56-.32.69-.58.13-.24.24-.74.16-1.1h-1.31l.01.62.62.01-.01.21zM19.04 9.46c.43-.18.74.25.8.58.08.42-.16.86-.42.96-.85.34-1.19-1.21-.38-1.54zm1.47 1.03c.06-.43.02-.77-.21-1.13-.67-1.02-2.14-.71-2.39.61-.08.41.04.82.24 1.14.66 1.06 2.18.64 2.36-.62z"/><path fill="#2E4379" d="M17.78 13.35c.01-.17 0-.1.08-.2l.31-.44h.18c.49-.02.1.65-.57.64zm-.55.65c.04-.13.05-.12.18-.15l-.11.88c.94.06.78.11.81-.73v-.13c.02-.21.01-.09.06-.14.01-.06.15-.05.24-.09.47-.17 1.25-.8 1.03-1.39-.15-.06-.17-.09-.34-.1h-1.22c-.09.04-.6.79-.72.96l-.94 1.29c-.09.13-.18.18-.19.37l.64-.01c.16-.24.45-.54.56-.76z"/><path fill="#932428" d="M13.44 10.57c-.01-.02-.02-.03-.02-.08 0-.01.01-.04.01-.06l.1-.37c.02-.08.1-.44.13-.5.07.02.07-.05.13.2.02.09.03.17.06.27.04.13.12.45.11.56-.16 0-.39.03-.52-.02zm-.38 1.12c.09-.16.11-.44.16-.53h.9c.07.1.1.33.15.48h.65l-.8-2.82-.83.04-.24.74c-.12.31-.64 1.99-.63 2.1l.64-.01z"/><path fill="#2E4379" d="M15.44 13.29c.02-.15 0-.09.08-.18l.28-.4c.21-.01.28-.02.42.06 0 .39-.37.53-.78.52zm-.51.64c.39-.02.83.01 1.21-.21.41-.25.84-.68.98-1.12.06-.2-.03-.38-.21-.43-.19-.05-1.14-.03-1.37-.02-.11.05-1.3 1.78-1.43 1.93-.12.14-.43.52-.45.68h.63c.16-.12.45-.63.64-.83zM21.5 12.71c.09-.08.35-.41.37-.57h-1.59c-.2.19-.32.41-.5.66-.09.12-.15.19-.24.32l-.83 1.17c-.11.14-.31.29-.32.48h1.37c.28 0 .23.04.48-.3.13-.17.17-.21.16-.34h-.79c.01-.18.12-.25.2-.38l.93-.01c.13-.31.34-.41.36-.6l-.78-.01c.01-.13.05-.12.12-.23.21-.27.15-.18 1.06-.19z"/><path fill="#932428" d="M11.36 9.51c.42-.03.58.04.5.48-.14.14-.25.14-.51.12l.01-.6zm-.06 2.14c.01-.02.02.01.03-.08v-.1c.01-1.01-.11-.63.54-.72.86-.12.87-1.45.24-1.82-.19-.11-1.1-.08-1.4-.07l.01 2.84c.13 0 .2 0 .32-.02l.26-.03z"/><path fill="#2E4379" d="M23.31 12.73c.12-.04.17-.11.34-.24.1-.07.23-.17.26-.3-.49-.64-2.38.25-2.33 1.18.22.19.31.2.59.32-.01.27-.19.42-.41.48-.39.12-.41-.15-.55-.31-.15.04-.23.17-.34.24-.29.2-.47.24-.26.46.56.57 1.71-.05 2.11-.54.16-.19.39-.38.35-.76-.15-.22-.39-.2-.58-.33-.01-.16.02-.17.12-.25.12-.09.04-.07.2-.12.33-.08.47.14.48.13 0 .02.01.04.02.04zM25.51 12.75c.08-.06.19-.17.28-.24.05-.04.09-.08.14-.12.02-.02.06-.05.07-.06.04-.04.03-.03.06-.1-.07-.13-.09-.12-.24-.18-.28-.11-.88-.02-1.03.08-.38.26-.27.12-.64.48-.15.13-.44.39-.4.7.03.24.39.26.58.39l-.03.23c-.02.01-.7.66-.89-.07-.13.02-.08.02-.2.11l-.51.37c.01.66 1.44.64 2.32-.47.55-.68.08-.72-.37-.93 0-.33.37-.41.63-.34.15.04.05.09.23.15z"/></g></svg>