<svg version="1.1"
    xmlns="http://www.w3.org/2000/svg" x="0" y="0" width="38" height="24" aria-labelledby="pi-pagoexpress" role="img" viewBox="0 0 38 24" xml:space="preserve">
    <title id="pi-pagoexpress">PagoExpress</title>
    <style>.st1{fill:#fff}.st2{fill:#ab1f22}.st3{fill:#1a417c}</style>
    <path d="M35 0H3C1.3 0 0 1.3 0 3v18c0 1.7 1.4 3 3 3h32c1.7 0 3-1.3 3-3V3c0-1.7-1.4-3-3-3z" opacity=".07"/>
    <path class="st1" d="M35 1c1.1 0 2 .9 2 2v18c0 1.1-.9 2-2 2H3c-1.1 0-2-.9-2-2V3c0-1.1.9-2 2-2h32"/>
    <g>
        <path class="st2" d="M16.3 8.4h3.5c.1 0 .1 0 .1-.1v-.5c0-.3.2-.4.4-.4.1 0 .2 0 .3.1 1.2 1.1 2.4 2.2 3.5 3.2.4.4.8.7 1.2 1.1.2.2.2.4 0 .6-.6.5-1.1 1-1.7 1.5L21.2 16c-.2.2-.5.4-.7.7-.3.1-.6-.1-.6-.4v-.8c0-.1 0-.1-.1-.1h-7c-.1 0-.2 0-.3-.1-.1-.1-.1-.1-.1-.2v-1.2-5c0-.2.1-.4.4-.4 1.2-.1 2.3-.1 3.5-.1z"/>
        <path class="st1" d="M16.9 9.9h2.9c.2 0 .2 0 .2-.2v-.1c0-.1 0-.2.1-.3.1-.1.2-.1.3 0 .2.1.4.3.6.5.8.6 1.6 1.2 2.3 1.8.1.1.3.2.4.3.1.1.1.2 0 .3-.7.5-1.5 1.1-2.2 1.6-.4.3-.7.5-1.1.8-.1.1-.3.1-.4 0-.1 0-.1-.1-.1-.1V14c0-.1 0-.1-.1-.1h-5.9c-.1 0-.2-.1-.2-.2v-.2-3.2-.1c0-.2.1-.3.3-.3h2.9z"/>
        <path class="st3" d="M15 12.6h.4c0 .1-.1.2-.2.3H14.9c-.1 0-.2 0-.2.1v.1H15c.1 0 .1 0 .1.1 0 0 0 .1-.1.1h.1c.3-.2.5-.4.8-.5.1 0 .1-.1.1-.2v-.4c0-.1 0-.1.1-.1H16.4c.1 0 0 .1 0 .2v.1h.1c.1 0 .1-.1.2-.1.1-.1.2-.1.3-.1h.3c0 .1-.1.1-.1.1-.2.2-.5.3-.7.5-.1 0-.1.1-.1.1v.5c0 .1 0 .1-.1.1-.3 0-.3.1-.3-.3v-.1s-.1 0-.1.1c-.1.1-.2.1-.2.2-.2.2-.4.2-.6.2h-.7c-.1 0-.1 0-.1-.1.1-.1.2-.3.3-.4.2-.2.3-.5.5-.7 0-.1.1-.1.1-.1h.6c.1 0 .1 0 .1.1-.1.1-.2.2-.3.2h-.1c-.4-.3-.5-.2-.5 0z"/>
        <path class="st2" d="M18 11h.2c.2 0 .2 0 .2.2v.2c-.1.3-.3.5-.5.5-.3 0-.6-.1-.7-.4-.1-.3-.1-.5.1-.8.2-.4.7-.4 1-.1.1.1.1.1 0 .2 0 0-.1 0-.1.1h-.1c-.1-.1-.3-.1-.4.1-.1.2-.1.4 0 .5.1.2.4.2.5 0v-.1h-.1c-.2 0-.2 0-.2-.2 0 0 0-.1.1-.1-.2-.1-.1-.1 0-.1z"/>
        <path class="st2" d="M19.7 11.1c0 .3-.1.5-.3.6-.3.2-.7.2-.9-.1-.2-.3-.2-.6 0-.8.1-.3.4-.4.7-.3.3 0 .5.2.5.6 0-.1 0 0 0 0z"/>
        <path class="st3" d="M18.2 12.9c-.1.2-.2.2-.3.3-.1.1-.3.1-.4.1v-.1c.3-.4.5-.7.8-1.1.1-.1.1-.1.2-.1h.4c.2 0 .3.1.2.3-.1.2-.3.4-.5.5-.1 0-.1.1-.1.2v.3c0 .1 0 .1-.1.1-.3 0-.3 0-.2-.2v-.3z"/>
        <path class="st2" d="M16.8 11.8c-.1 0-.2 0-.2-.1s-.1-.1-.1-.1h-.2c-.1 0-.1 0-.1.1s0 .1-.1.1h-.3v-.1l.3-.9c0-.1.1-.2.1-.4 0-.1 0-.1.1-.1h.3c.1.1.1.2.1.3l.3.9c0 .3 0 .3-.2.3.1 0 0 0 0 0z"/>
        <path class="st3" d="M17.6 12.1h.3c.1 0 .2.1.2.2-.1.3-.4.6-.7.6h-.2c-.1 0-.2 0-.3.2 0 0 0 .1-.1.1-.1.2-.2.2-.4.2v-.1s0-.1.1-.1c.2-.3.5-.7.7-1 .1-.1.2-.2.3-.1h.1zM20.4 12.1c0 .1-.1.2-.1.2H20c-.1 0-.2.1-.3.2v.1h.3c.1 0 .1 0 0 .1 0 .1-.1.1-.1.2h-.4-.1l-.1.1c0 .1.1 0 .1 0h.2c.1 0 .1 0 0 .1-.1.2-.2.2-.3.2h-.5c-.1 0-.1 0 0-.1 0-.1.1-.1.2-.2.2-.3.4-.6.6-.8.1-.1.2-.2.3-.2.1.1.3.1.5.1z"/>
        <path class="st2" d="M14.9 11.1v-.6c0-.1 0-.1.1-.1h.3c.3 0 .5.2.5.6 0 .2-.2.3-.4.3s-.2 0-.1.2v.1c0 .2 0 .2-.2.2-.1 0-.1 0-.1-.1-.1-.1-.1-.4-.1-.6z"/>
        <path class="st3" d="M21.1 12c.1 0 .1 0 0 0 .1 0 .2 0 .2.1s-.1.1-.1.1-.1 0-.1.1c0 0-.1.1-.1 0-.1-.1-.2 0-.3.1v.1h.1c.2.1.2.1.1.3-.2.3-.5.5-.9.6-.1 0-.2 0-.3-.1-.1-.1-.1-.1 0-.2l.1-.1c.1-.1.1-.1.2 0s.1.1.2 0c.1 0 .2-.1.2-.2v-.1h-.1c-.2-.1-.2-.2-.1-.4.3-.1.7-.3.9-.3zM22.2 12h.2c.1 0 .1.1 0 .1l-.1.1c-.1.1-.1.1-.2 0s-.3 0-.3.1v.1c.1 0 .1 0 .2.1.1 0 .1.1.1.2-.1.3-.6.7-1 .6H21c-.1-.1-.1-.2 0-.2 0 0 .1 0 .1-.1.1-.1.2-.2.2 0 0 .1.1.1.2 0 .1 0 .1 0 .2-.1s.1-.1 0-.2c-.2-.1-.3-.2-.1-.4 0-.1.2-.3.6-.3z"/>
        <path class="st1" d="M18.8 11.1c0-.2.2-.4.3-.4.2 0 .3.2.3.4s-.2.4-.3.4c-.2 0-.3-.2-.3-.4z"/>
        <path d="M18.7 12.3h.1v.1c-.1.1-.2.1-.3.1 0 0-.1 0 0-.1 0 .1 0 0 .2-.1-.1 0-.1 0 0 0z" fill="#fafbfc"/>
        <path d="M16.4 10.8c.1.1.1.3.1.5v.1h-.1c-.1 0-.1 0-.1-.1 0-.2 0-.4.1-.5z" fill="#fcfafa"/>
        <path d="M17.3 12.6c0-.1 0-.2.1-.2 0-.1.1-.1.2-.1s.1 0 .1.1c-.1.1-.2.2-.4.2z" fill="#f9fafb"/>
        <path d="M15.3 11.1c-.1 0 0-.1 0-.2s0-.1.1-.1.2 0 .2.2c-.1 0-.2.1-.3.1z" fill="#fffdfd"/>
    </g>
</svg>