<svg xmlns="http://www.w3.org/2000/svg" role="img" viewBox="0 0 38 24" width="38" height="24" aria-labelledby="pi-paidy"><title id="pi-paidy">Paidy</title><path fill="#000" opacity=".07" d="M35 0H3C1.3 0 0 1.3 0 3v18c0 1.7 1.4 3 3 3h32c1.7 0 3-1.3 3-3V3c0-1.7-1.4-3-3-3z"/><path fill="#fff" d="M35 1c1.1 0 2 .9 2 2v18c0 1.1-.9 2-2 2H3c-1.1 0-2-.9-2-2V3c0-1.1.9-2 2-2h32"/><path d="M22.63 12.3a.97.97 0 00-.84.432 1.869 1.869 0 00-.309 1.143 2.1 2.1 0 00.309 1.248 1.024 1.024 0 00.882.432.988.988 0 00.859-.432 2.257 2.257 0 00.285-1.248 1.988 1.988 0 00-.309-1.167 1.064 1.064 0 00-.877-.408z" fill="#e5258c"/><path d="M7.409 17.953a.632.632 0 01-.7.7h-.7v-5.1a2.482 2.482 0 012.662-2.476c.342 0 2.477 0 2.477 2.8 0 2.695-1.552 2.866-2.192 2.866a1.827 1.827 0 01-1.556-.821v2.031zm2.33-4.01a2.058 2.058 0 00-.309-1.228 1.015 1.015 0 00-.877-.427.992.992 0 00-.859.427 2.1 2.1 0 00-.285 1.228 1.817 1.817 0 00.309 1.163 1.008 1.008 0 00.882.427.979.979 0 00.84-.427 2 2 0 00.3-1.163" fill="#0d47a1"/><path d="M24.437 6.091a1.115 1.115 0 00-.455-.1 1.131 1.131 0 00-.954.521l.65 1.528h2.88v1.723l1.015-2.277z" fill="#8bc34a"/><path d="M19.157 8.041H23.1l-1.286-3.032-5.243 2.23a1.869 1.869 0 00-.987 2.449l.788 1.85v-.726a2.789 2.789 0 012.785-2.771" fill="#2196f3"/><path d="M15.138 16.444c-1.006.493-3.525.65-3.525-1.419a1.456 1.456 0 01.5-1.229c.968-.749 2.752-.5 2.752-1.1 0-.2-.124-.489-.9-.489-.631 0-.769.237-.84.389h-1.37c.052-.422.418-1.513 2.149-1.513 2.121 0 2.311 1.043 2.311 1.532v1.86a1.947 1.947 0 01-1.077 1.974m-.252-2.549c-1.072.488-1.945.341-1.945 1.086a.628.628 0 00.717.655 1.092 1.092 0 001.228-1.224z" fill="#0d47a1"/><path d="M19.157 8.573a2.256 2.256 0 00-2.257 2.253V17.7h6.87a2.256 2.256 0 002.254-2.254V8.577zm-.029 8.07H17.7v-4.749a.674.674 0 01.2-.489.666.666 0 01.494-.2h.735v5.442zm0-5.916H17.7V10.3a.694.694 0 01.2-.494.67.67 0 01.494-.2h.735v1.125zm6.078 3.539a2.113 2.113 0 01-.84 1.964 3.477 3.477 0 01-1.822.513 3.145 3.145 0 01-1.044-.176 1.725 1.725 0 01-.82-.56 3.285 3.285 0 01-.594-2.068 3.345 3.345 0 01.594-2.069 2 2 0 012.476-.593 1.955 1.955 0 01.655.636V9.578h.7a.668.668 0 01.489.214.678.678 0 01.2.484z" fill="#e5258c"/><path d="M27.488 18.565V17.44h.389a.987.987 0 00.645-.194c.157-.129.185-.337.09-.622L26.71 11.2h1.575l1.106 3.848.963-3.359a.6.6 0 01.654-.489h.983L29.9 17.4a2.2 2.2 0 01-.612.963c-.536.427-1.76.2-1.8.2" fill="#0d47a1"/></svg>