<svg xmlns="http://www.w3.org/2000/svg" fill="none" viewBox="0 0 38 24" height="24" width="38" aria-labelledby="pi-palawa" role="img"><title id="pi-palawa">Palawa</title><path fill="#fff" d="M0 0h38v24H0z"/><path fill="#086C2C" fill-rule="evenodd" d="M2 6.5v.4h34V6H2v.5Zm14.5 1.9-1.3 2.2h.7l.2-.2.1-.2h.5c.6 0 .6 0 .6.2s0 .3.4.3h.4l-.6-2.3h-1Zm2.3 0-.5 2.2H21l.2-.2v-.2h1.1v.3l.1.1h.8l-.7-2.3h-.9a72.7 72.7 0 0 0-1.4 2V10h-.9l.2-.9.1-.9h-.7Zm4.5 0 .5 2v.2h.8l.5-1c0-.4 0-.3.2.4l.2.6h.7l1.2-2.2s-.7-.1-.8 0L26 9.5a21.3 21.3 0 0 0-.4-1.2h-.3c-.4 0-.3-.2-.7.7l-.3.7-.1-.7-.2-.7h-.7Zm5 0L27 10.6h.4c.4 0 .4 0 .6-.2l.1-.2h1a9.3 9.3 0 0 1 .2.4h.7l-.2-.9-.3-1-.1-.4h-1Zm2.3 0-.5 2.2h.7l.3-1.1c0-.3 0-.3.2 0l.6 1.1h.4c.5 0 .4.1.6-.5l.2-1v-.7h-.6l-.1.2-.2 1c0 .2 0 .1-.4-.6l-.4-.7h-.8ZM8 8.4l-.3 1.4H10l.2-.1c1-.6 2.4 0 2.4 1.2 0 1.1-1.2 1.9-2.3 1.4l-.2-.1H9c-1.1 0-1.3 0-1.4-.4l-.4-.2-.4 1.8-.3 2h2.6v-.1l.3-.9c.1-1 .1-.9.4-.8 1 .5 2.2.3 3.2-.6 1.7-1.6 1.4-4-.5-4.5H8Zm9 1 .1.3h-.5l.1-.4c.3-.4.3-.4.3 0Zm5-.1c0 .4 0 .4-.2.4-.3 0-.3 0-.2-.2l.2-.4c0-.2 0-.2.2.2Zm6.8 0c.1.4.1.4-.2.4-.3 0-.3 0-.1-.4l.2-.3.1.3Zm-18 .4.1.1v.2-.3Zm-.4.1v.2c.1 0 0-.2 0-.2Zm1 0v.2-.2ZM10 10l.2.2v-.1c-.2 0-.2-.1-.2 0Zm1.7.1c-.1.2 0 .2.1 0h-.1Zm-2 .3.2.1h-.1Zm2.3 0c0 .1-.1.2 0 .2l.1-.1H12Zm-2.3.5h.1-.1Zm2.3 0h.2-.1s-.1 0 0 0Zm-2.2.4v.1h.1c0-.1 0-.1-.1 0Zm2 0 .3.2v-.1h-.2Zm17.7.1c-.5.1-.8.4-.8.7 0 .3.2.4.7.6l.4.4c-.1.2-.6.2-.9 0l-.2-.2-.1.2c-.3.3-.3.3-.2.4.5.4 1.6.4 2 0 .4-.4.3-.9-.2-1.1-.6-.2-.7-.3-.6-.4.2-.2.3-.2.6 0h.2c.4-.4.4-.4.1-.5-.3-.1-.7-.2-1-.1Zm2.4 0c-.4.1-.7.4-.7.7 0 .3 0 .4.5.6.5.2.6.3.5.4-.2.2-.6.2-1 0v-.2l-.2.3c-.2.2-.2.2 0 .3.7.5 1.9.3 2-.4.1-.3 0-.5-.6-.8-.4-.2-.5-.2-.3-.4h.6l.1.2.1-.1c.3-.4.3-.4 0-.5-.3-.1-.7-.2-1-.1Zm-16.3 0-.5 2.3H17c.1-.5.1-.5-.4-.5h-.4v-.1c0-.3 0-.3.5-.3h.4v-.2c.1-.3.1-.3-.3-.3h-.4v-.1c0-.3 0-.3.5-.3h.5v-.5h-1.7Zm2.1 0 .4.6.4.5-.7.6-.6.6h.9l.4-.3.3-.4.4.4.2.3h.9l-.4-.6-.4-.6.5-.5.6-.6h-1l-.3.3-.3.3-.2-.3-.2-.3h-.9Zm3.4 0a57.6 57.6 0 0 1-.5 2.3h.8l.1-.3V13h.6c.6-.1.9-.2 1-.6.2-.3 0-.7-.4-.9-.1 0-1.6-.1-1.6 0Zm2.5 1.1-.2 1.2h.8v-.6c.1-.3.1-.3.4.1 0 .2.2.4.3.4v.1h1-.1l-.4-.5c-.3-.4-.3-.4-.1-.4.7-.2.9-1 .2-1.3h-1.7l-.2 1Zm3-1a204 204 0 0 1-.4 2.2h1.7v-.2c.1-.3.2-.3-.4-.3h-.4v-.1c0-.3 0-.3.5-.3h.4v-.2c.1-.3.2-.3-.3-.3h-.4v-.1c0-.3 0-.3.5-.3h.5v-.5h-1.6Zm-16.6.2c0 .1 0 .2.1 0Zm1.6 0 .1.1c.1.1.1 0 0 0v-.1Zm-1.2.3v.1-.2Zm1 0v.1-.2ZM25 12l-.1.4h-.6l.1-.5h.6Zm-2.8 0c.4.1.1.4-.4.4-.2 0-.2 0-.1-.4h.5Zm-11.4 0v.2-.1c0-.2 0-.2 0 0ZM2 17.6v.5h34v-1H2v.5Z" clip-rule="evenodd"/><path fill="#F2CA0E" fill-rule="evenodd" d="m7.7 8-.3 1.5c0 .3 0 .3-1.5.3H4.6v.1c0 .2 0 .3.3.4l.1.1h-.2c-.2 0-.3 0-.2.3 0 .4.7.5 2 .5H7v.1a86.2 86.2 0 0 1-.9 4.4h3.5l.1-.8.2-.7h.3c.4.1 1 .1 1.6 0 3-1 3.8-5 1.1-6l-.3-.1H7.7Zm8.7.3-1.6 2.5h1.3l.1-.2c.2-.2.2-.2.6-.2.3 0 .3 0 .4.3v.1H21l.2-.2c.1-.2.1-.2.5-.2h.3v.1c.1.4 0 .3.7.3s.7 0 .6-.2l-.4-1.3c0-.4-.2-.7-.3-1.1h-1.2l-.6.8-.5 1h-.4l-.4-.1a21.1 21.1 0 0 1 .3-1.7h-1.2a20.9 20.9 0 0 0-.4 1.7l-.2-.8-.3-.9h-1.3Zm6.6 0 .1.5.3 1.2c.2 1 .1.8.8.8h.6v-.3c.3-.5.3-.5.4 0v.3h1.2l1.3-2.6h-1.2l-.1.1-.2.5c-.2.4-.2.4-.3-.3v-.3h-1.1l-.3.5c-.1.4-.1.4-.2 0v-.5H23Zm4.4 1.2a22 22 0 0 0-.8 1.3h1.3l.2-.3v-.1h.7v.1l.1.3h1l1.2-.1.1-.8.3.4.3.5h1.1a18 18 0 0 0 .5-2.1v-.5h-1.1l-.1.4c-.1.5-.1.5-.3.2l-.2-.4-.1-.3h-1.3A72.1 72.1 0 0 1 30 10l-.3-.8c0-.5-.2-.9-.2-.9h-1.3l-.8 1.3Zm-9.9-1.1.6 2.2h-.4c-.3 0-.4 0-.4-.2s0-.2-.6-.2h-.5v.2l-.3.2h-.7l1.3-2.2h1Zm2 0-.1.8-.2.9h.9v.4l1.4-2.2h.9l.7 2.3h-.8v-.1l-.1-.2h-1.1c0 .2-.1.2-.2.3h-2.6l.5-2.3h.7Zm4.5 0a15.5 15.5 0 0 1 .3 1.4l.3-.7c.4-.9.3-.8.7-.8h.3l.3 1.4c0 .2 0 .1.1-.1l.6-1.3h.8l-1.2 2.3h-.7l-.2-.6c-.1-.7-.1-.8-.2-.4l-.5 1a3 3 0 0 1-.5 0h-.3v-.1l-.5-2.2h.7v.1Zm5.4.2.3 1.1.2 1h-.7l-.1-.2v-.2h-1.3c-.2.4-.2.4-.6.4H27l1.4-2.3h1v.2Zm2.4.4.4.7a118.3 118.3 0 0 1 .3-1.3h.7l-.1.6-.2 1c-.2.7-.1.7-.6.7H32l-.6-1.2c-.2-.3-.2-.3-.2 0l-.3 1.1h-.7l.5-2.2h.8l.4.6Zm-19.2-.5c2 .5 2.2 3 .5 4.5-1 .9-2.2 1.1-3.2.6-.3 0-.3-.1-.4.8l-.2.9H6.5a42.9 42.9 0 0 1 .7-3.7s.3 0 .4.2c0 .3.3.4 1.4.4h1.1c1 .6 2.3-.2 2.3-1.3S11 9.1 10 9.7H7.7L8 8.6h4.6Zm4.1.8-.1.4h.5L17 9l-.3.3Zm5-.2-.1.4c-.1.2-.1.2.2.2.3 0 .3 0 .2-.4-.1-.4-.1-.4-.2-.2Zm7 0-.2.2c-.2.4-.2.4.1.4.3 0 .3 0 .2-.4l-.1-.3Zm-17.5.5c1.1.2 1.5 1.5.7 2.3a1.4 1.4 0 0 1-2.3-.4c-.5-1 .4-2.1 1.6-2Zm-1.5.3v.2l-.2.2v.1H7.7c-2.4 0-2.7 0-3-.3-.3-.2-.4-.2 2.4-.2h2.5Zm-.3.8v.4h-2c-2.2 0-2.4 0-2.7-.4 0-.1-.1-.1 2.3-.1h2.4Zm0 .7c0 .2.1.2-1 .1h-1l-.3-.3h2.2l.1.2Zm20-.2h-.2l-.5.5c-.2.2-.2.1-.1-.2v-.2a23.9 23.9 0 0 0-2.2 0v.3l-.3 1-.1.9-.5-.6h.1c.7-.3.8-1.1.2-1.5l-1.4-.1h-.8v.6c0 .1-.2 0-.2 0 0-.2-.3-.5-.6-.6h-3.3l-.2.2c-.3.2-.2.2-.4 0l-.2-.2h-3.3v.2l-.3 1.4-.1.6-.1.4h3.4l.3-.3.3-.3s0 .2.2.3l.2.3h2.3v-.2l.1-.4v-.2h.4c.6 0 1-.1 1.1-.4.2-.2.2-.1 0 .5l-.1.7h1.3v-.4s.2 0 .2.2l.2.2h1.6c1.9 0 1.7 0 1.7-.2 0-.1 0-.1.2 0a2 2 0 0 0 2.2 0l.1-.1h.1c.8.6 2.1.4 2.5-.2a.7.7 0 0 0-.2-1l.2-.4.3-.4h-.1c-.7-.6-2-.5-2.3.1-.3.5-.1.9.5 1.2.3.1.4.2.2.2l-.5-.3H31c-.1.1-.1.1-.2 0 0-.1 0-.3-.2-.4h-.1l.3-.4c.3-.4.3-.4 0-.6-.4-.2-1-.3-1.4-.2Zm.7.2.6.2-.3.5-.2-.1c-.3-.2-.4-.2-.6 0-.1 0 0 .2.6.4.5.2.6.7.2 1-.4.5-1.5.5-2 0l.2-.3.1-.2.2.2c.3.2.8.2.9 0 0-.1 0-.2-.4-.4-.5-.2-.7-.3-.7-.6 0-.5.7-.8 1.4-.7Zm2.5 0c.3 0 .5.2.5.2l-.2.4h-.2c-.3-.1-.5-.2-.6 0-.2 0-.1.1.3.3.6.3.7.5.6.8-.1.7-1.3 1-2 .4-.3 0-.2-.1 0-.3l.2-.3.1.1c.3.3.7.3.9.1.1 0 0-.2-.5-.4s-.5-.3-.5-.6c0-.5.7-.9 1.4-.7Zm-15.2 0-.1.5h-.5c-.5 0-.5 0-.5.3v.1h.4c.4 0 .4 0 .3.3v.2h-.4c-.5 0-.5 0-.5.3v.1h.4c.5 0 .5 0 .4.5H15l.5-2.2h1.8Zm1.4.3.2.3.3-.3.3-.3h1l-.6.6-.5.5a12.8 12.8 0 0 0 .8 1.2h-.9l-.2-.3-.4-.4-.3.4-.4.3h-.9l.6-.6.7-.6-.4-.5-.4-.6h.9l.2.3Zm4-.2c.4.2.5.6.3 1-.1.3-.4.4-1 .4h-.5a8.1 8.1 0 0 0-.2.8h-.8a17.7 17.7 0 0 1 .5-2.3l1.6.1Zm2.7 0c.7.4.5 1.1-.2 1.3-.2 0-.2 0 .1.4l.4.4v.1H25a8 8 0 0 1-.3-.5c-.3-.4-.3-.4-.3-.1l-.1.4v.2h-.8l.2-1.2.2-1h1.7Zm2.9 0-.1.3v.1h-.5c-.5 0-.5 0-.5.3v.1h.4c.5 0 .4 0 .4.3v.2h-.5c-.5 0-.4 0-.5.3v.1h.4c.6 0 .5 0 .4.3v.2h-1.8l.3-1.1.2-1.2h1.8v.2Zm-7.6 0a39.1 39.1 0 0 0-.3 1.9l-.8-.9a16.5 16.5 0 0 1 1.1-1Zm-3 .5c.4.5.5.4 0 1-.6.4-.6.4-.6.2v-.1l.2-1 .1-.2c0-.3 0-.3.4.1Zm-8.1-.2c.1.2.2.2-.7.2H7.9c-.2-.2-.2-.2.8-.2h.8l.2.1Zm14.8.1v.6h.5c.2-.2.2-.4 0-.5 0-.1-.4-.2-.5 0Zm-2.7 0c-.1.6-.1.5.1.5.4 0 .6-.1.5-.3 0-.2-.6-.3-.6-.1Zm7 .7.4.3c.3.1.4.2.2.2l-.5-.3c-.2-.1-.2-.1-.4.1-.3.3-.3.3-.2-.2v-.5c0-.2.2-.1.2 0l.2.4Z" clip-rule="evenodd"/><path fill="#E20C14" fill-rule="evenodd" d="M15.7 14.5c-.5 0-.6.1-.4.4v.9h.2v-.3l.1-.3h.3c.6 0 1-.2 1-.4 0-.3-.5-.4-1.3-.3Zm3.4 0c-.4 0-.4 0-.4.2v.1c.2 0 .2.1.1.7v.4h.3v-.3c0-.4 0-.3.5 0 .4.2.4.2.5 0 .1 0 .2 0-.2-.2-.3-.2-.3-.2 0-.3.4 0 .6-.1.6-.3 0-.3-.6-.4-1.4-.3Zm2.3.2a12.2 12.2 0 0 1-.6 1.1h.4v-.1c.2-.2.7-.3.7 0h.2l.2-.1-.2-.3-.2-.6v-.2h-.4l-.1.2Zm2.4-.2h-.5v.3c.2 0 .2.6 0 1h.5v-.5h.3c.8-.1 1.2-.4 1-.7-.3-.1-.7-.2-1.3-.1Zm1.7.3-.4.6c-.2.5-.2.4 0 .4l.3-.1c0-.2.6-.3.6 0h.2c.2-.1.2 0 0-.4l-.2-.7v-.1h-.3l-.2.3Zm3.7-.3-.1.2-.4.7c-.2.4-.2.4 0 .4l.3-.1c0-.1 0-.2.3-.2l.3.1c0 .2 0 .2.2 0 .2 0 .2 0 .1-.2l-.3-.7v-.2h-.4Zm2.9.3-.4.7c-.2.3-.2.3 0 .3l.3-.1.3-.2c.3 0 .4 0 .4.2l.3-.2a14.8 14.8 0 0 0-.3-.9v-.1h-.4l-.2.3Zm-1.7-.3h-.1v1c-.1.3-.2.3.4.2.6 0 .6 0 .6-.2 0-.1 0-.1-.2 0h-.6v-.3l.2-.7h-.3Zm-12 0-.5.1-.5.1h-.1v.8c-.1.4-.2.3.2.3h.6c.4-.1.4-.1.4-.3h-.3l-.5-.1v-.1h.3l.4-.2c0-.1 0-.1-.4 0-.3 0-.4 0-.3-.1 0-.1 0-.2.5-.2.2 0 .3 0 .3-.2h-.2Zm8.3.6v.8a8 8 0 0 0 1-.3c.6-.2.7-.5.4-.6-.2-.2-1.1-.4-1.4-.4v.5Zm-10.2-.3c0 .1-.7.3-.8.2l.1-.2h.7Zm3.5 0s-.7.2-.8.1l.1-.1h.7Zm4.6 0c.2 0 0 .2-.5.2h-.3v-.1l.1-.1h.7Zm3 .1c.5.2.4.5-.3.6-.3 0-.3 0-.3-.2 0-.4 0-.5.5-.4Zm-5.9.2-.1.2c-.1 0-.1 0 0-.2 0-.1 0-.1.1 0Zm4.1 0c.1.2 0 .2 0 .2-.2 0-.2 0-.1-.2 0-.1 0-.1.1 0Zm3.6 0v.2c-.2 0-.2 0-.1-.2 0-.1 0-.1.1 0Zm3 0c.1.2.1.2 0 .2-.2 0-.2 0-.1-.2 0-.1.1-.1.2 0Z" clip-rule="evenodd"/><path fill="#AED0BF" fill-rule="evenodd" d="M2 6v1h34H2V6h34H2Zm7 2Zm4.9.7.1.2v-.2h-.2Zm-3 1v.3-.3Zm0 .1v.2-.3.1Zm-.6 0 .2.2v-.2s-.1-.1-.2 0Zm19.7 0v.1-.1c0-.1 0-.1 0 0Zm-19.5 0v.2l-.1-.2Zm.8 0v.3l.2-.3h-.2Zm.2 0-.1.2v-.2Zm-5.6.1Zm4 .1.3.3V10h-.3Zm1.8 0v.3l.2-.3h-.2Zm-1.6 0v.2L10 10h.1Zm1.7.1-.1.1.1-.2v.1Zm2.8.2c0-.1 0 0 0 0Zm-5 .1.2.1c.2.1.3 0 .1 0-.1-.1-.2-.1-.2 0Zm6.9 0h.6-.6Zm5 0h.5-.6Zm6.8 0h.4-.4ZM7 10.4Zm3 0v.1h-.2c0-.1.1 0 .2 0Zm2 0c-.1.1-.1.2 0 .2l.3-.2H12Zm.2 0-.2.2v-.1h.2Zm-6.2.2Zm8.7.2v-.1Zm-2.3.1v.1-.1Zm-2.7 0 .1.1h.2c0-.1-.2-.2-.3-.1Zm2.3 0 .2.1h.1c0-.1-.2-.2-.3-.1Zm-2 0h-.2c-.1 0 0 0 0 0h.1Zm2.3 0H12h.2Zm-5.5.2Zm-1 .1H6h-.1c-.1 0-.1 0 0 0Zm1.4 0h2.2-2.2Zm8.3 0v.1h3.3-3.3Zm4.8 0Zm3.4 0h.8-.8Zm3.2 0Zm-17 .1c-.3.1-.2.2 0 .1h.2c0-.1 0-.2-.2 0Zm.1 0-.2.1s.2-.1.2 0Zm2 0c-.1 0 0 .1 0 .2.3 0 .4 0 .1-.1-.1-.1-.1-.1-.2 0Zm.1.1h.1-.2.1Zm7.2.1-.2.1h.2l.2-.2-.2.1Zm-10.4 0H8h1.4-.7Zm-1.1 0h.1-.1Zm2.3.2c0 .1-.1.2 0 .2l.2-.2c0-.1 0 0-.2 0Zm1.6 0 .2.2c.1 0 0 0 0-.2-.1-.1-.2-.1-.2 0Zm-1.5 0-.1.1s.1-.2.2-.1Zm-2.3 0h.8-.9Zm4 0v.1l-.1-.1Zm16.7 0v.1c0-.1 0-.1 0 0Zm-18 .1-.2.3h.2v-.3Zm.8.1.1.3v-.3h-.1Zm-.8 0-.1.2v-.2Zm.9 0v.2s-.1-.2 0-.2Zm-.5 0v.3-.2Zm0 .2v.1-.3.2Zm-2.4 0Zm17.7.1v.1s0 .1 0 0c0 0 0-.1 0 0Zm5 .4c-.1.1-.1.1 0 .1v-.1l-.2-.1h.1Zm-2.5 0v.1h-.1c.2 0 .2-.1.1-.1Zm4.6.4s0 .1 0 0Zm-16 .2v.2-.2l.2-.1-.1.1Zm1 .6v.1H15h3.4l.1-.1.1-.2-.1.2Zm4.8 0 .6.1h.6-1.2Zm5 0-1.7.1h-1.6H28Zm-8.8.1Zm-3.1.5h.1-.1Zm5.2.2v.1-.1l.3-.1h.2v.2c0-.3-.3-.4-.5-.1Zm2.9-.2h.1-.1Zm1.3.1v.1c0-.1 0-.2.2-.1h.2c0-.1-.3 0-.4 0Zm3.6 0v.1c-.1.2-.1.1 0 0l.2-.1h.2v.1c0-.2-.2-.3-.4-.2Zm3 0v.1c0-.1.1-.2.3-.1h.1c0-.1-.3 0-.4 0Zm-16.7 0h-.2.7-.5Zm1.1 0 .3.1h.1l-.4-.1c-.2 0-.2 0 0 0Zm2.4 0h-.2c-.2 0-.2 0-.2.2v.1-.1c0-.2 0-.2.5-.2h.1-.2Zm1 0a5 5 0 0 1 .3 0H20Zm3.6 0h.5-.5Zm1.1 0c.4 0 .5.2.4.4v.1c.2-.3 0-.5-.4-.5h-.2.2Zm5.8 0h.2c0 .1 0 .1 0 0h-.2Zm-15.3 0v.1c.1 0 .1 0 0 0Zm3.2 0v.1h.1-.1Zm4.9 0v.2-.2h.2-.2Zm7 0v.4-.2Zm-12.2 0c-.1.1-.1.1 0 .1h.1c.1 0 .1 0 0 0h-.1Zm2.3.1v.4c.2-.2.1-.4 0-.4Zm5.6 0 .2.4v-.2l-.2-.2Zm6.7 0v.2-.2Zm-6 0v.6-.3c0-.3 0-.3.3-.2h.3a4 4 0 0 0-.6-.1Zm-9.1 0c.1 0 0 0 0 0Zm13 .2c0 .1 0 0 0 0l.1-.1Zm-15.4 0c.1 0 .1.2 0 .8v.2-.1c.2-.3.2-.8 0-.8v-.2Zm2 0v.5-.7h.2-.1Zm1.2 0H18h.5c0-.1 0-.1 0 0Zm9 0h.2-.2Zm2.3 0v.1s0 .1 0 0v-.2Zm-13.7 0h.3-.4Zm3.7 0h.2-.5.3Zm2.2 0 .2.4-.1-.4Zm2.4 0c.3 0 .4 0 .2.1-.1 0-.2 0 0 0 0 0 .2 0 0-.1H24h.3Zm4.7 0v.2-.2Zm-12.5 0-.1.1c-.1 0-.1 0 0 0h.1c0-.1 0-.1 0 0Zm2.7 0v.1l.1-.1h-.1Zm4.6 0c0 .1 0 .2.3.2h.2-.2c-.3 0-.3-.1-.2-.2Zm4 0c.1 0 .2 0 0 0h-.1Zm-10.1 0v.3-.2c.1 0 .1 0 0 0Zm1.1.2v.1-.2.1Zm-3.1 0h.5-.2l-.3-.1Zm1.3 0h-.3l-.1.2.4-.3Zm2.5 0h-.2.5-.3Zm1.6.1-.1.3.3-.5-.2.2Zm7-.1c.2 0 .2.2 0 .4 0 0 0 .1 0 0 .3 0 .3-.3 0-.5-.2 0-.2 0 0 0Zm-1 0h.2-.2Zm3.1.1v.2-.3.1Zm-2.7-.1h.1-.1Zm3 .1v.2-.1l.1-.2v.1ZM18.4 15s.1 0 0 0h.1-.2.1Zm7 .1v.1c.1-.3 0-.3 0-.1Zm6.6 0v.1c.1-.3.1-.3 0-.1Zm-11.6 0h-.2c-.2 0-.2 0 0 0h.3-.1Zm1.3 0c.1.1.1.2 0 .2.1 0 .2 0 .1-.2 0-.1 0-.1-.1 0Zm3.4 0h-.4.3c0-.1 0-.1 0 0Zm.7 0h.1v.2h-.1v-.1c-.1 0 0 .1 0 .1.2 0 .2 0 .1-.2 0-.1 0-.1-.1 0Zm2 0c.2 0 .2.2 0 .3h-.2l.4-.2-.2-.2Zm1.1 0v.2-.2h.1Zm.5 0h.1c0 .2-.1.2-.2.1l.1.1c.2 0 .2 0 .1-.2 0-.1 0-.1-.1 0Zm3 0h.1v.2h-.1v-.1c-.1 0 0 .1 0 .1.2 0 .2 0 .2-.2 0-.1-.1-.1-.2 0Zm-14.5 0h.2-.2Zm5.6 0v.1-.1Zm6.4 0 .1.3-.1-.4v.2Zm-3.6 0v.1-.1Zm6.6 0v.1h.1V15Zm-16.5.1h-.1.2-.2Zm3.4 0 .1.1c.1 0 .1 0 0 0s0 0 0-.1h-.1Zm4.8 0h-.7.8Zm2.5.1v.2h.4-.4v-.3.1Zm-9 0H18h.3-.2Zm-2.3 0v.5h-.5.5v-.5h.5-.5Zm2 0c0 .2 0 .3.4.2h-.4v-.2h.2-.2Zm1 .2v.2l.1-.2v-.2.2Zm4.7-.1s0 .1 0 0Zm-4.2.2-.1.3s.2-.6 0-.6v.3Zm4.6 0v.2h-.4v-.1c-.1.2 0 .2.1.2.3 0 .3 0 .3-.3v-.3.3Zm2.6-.2v.2s-.1 0 0 0v-.2c0-.1-.1-.1 0 0Zm.2.2v.3h.2-.3v-.6.3Zm6.3-.3v.2c.1 0 .1 0 0 .1.1 0 .2 0 .1-.1v-.2Zm-13.6 0v.1l.2.1s.1.1.1 0h-.2l-.1-.1Zm-1 .1c-.1 0 0 0 0 0h.2v.1c0 .2 0 .2-.3.2.3 0 .3 0 .3-.2 0-.1-.1-.2-.3-.1Zm12.8 0h.2v.1c.1-.1 0-.2-.2-.1Zm-1.1 0v.2c-.1 0-.1 0 0 0v-.2Zm-9.9 0v.3h-.4.3c.2-.2.2-.3 0-.3Zm4.9.2c-.2.2-.2.3 0 .3h.2-.2v-.3c.1-.2.1-.2 0 0Zm5.2-.1v.3h.3c.1 0 .1 0 0 0h-.3v-.4Zm.5 0h-.2.5-.3Zm.9.1v.3h.2-.1c-.2 0-.2 0 0-.3 0-.2 0-.2-.1 0Zm-3 0v-.1Zm-7 0h-.2.4s0-.1 0 0h-.2Zm4.2 0h-.4.6v.2l.3-.1H26v-.2h-.2Zm3.5 0H29v.2-.1c.1-.2.5-.2.6 0v-.1s0-.1 0 0h-.3Zm3 0h-.2.5v.1h.3-.3c0-.2 0-.2-.2-.2Zm-4.6 0c.2 0 .1 0 0 0Zm-10.5.1v.2-.4.1Zm3.6 0c-.1.1 0 .2 0 .2h.2-.1c-.2 0-.2 0 0-.2h-.1Zm10.5 0H31h.2Zm-9.4 0c0 .1 0 .1.2 0H22Zm3.5 0v.1-.1Zm1.8 0-.2.1.6-.1h-.4Zm2.5 0h.1c.1 0 0 0 0 0Zm2.3 0v.1-.1Zm-3.5 0c-.1.1 0 .2.1.2.2 0 .2 0 0 0 0 0-.1 0 0-.1 0-.1 0-.1-.1 0Zm-10.6 0h.1-.1Zm12.8 0h.2-.2Zm-13.3.1h.3c.1 0 .1 0 0 0h-.3Zm1.3 0c0 .2 0 .2.2.2h.1-.1l-.2-.2ZM2 17.2v.9h34H2v-1h34H2Z" clip-rule="evenodd"/></svg>