<svg xmlns="http://www.w3.org/2000/svg" fill="none" viewBox="0 0 38 24" height="24" width="38" aria-labelledby="pi-palawan" role="img"><title id="pi-palawan">Palawan</title><path fill="#fff" d="M0 0h38v24H0z"/><path fill="#FAC809" d="M12.08 20h7.03l.63-3.25s.03-.2.23-.05c0 0 2.15.88 4.72-.5 0 0 3.05-1.25 4.22-5.07 0 0 1.28-4.24-1.82-6.26 0 0-1.08-.81-3.17-.87h-8.63l-3.21 16Z"/><path fill="#236A32" d="M13.07 19.14h5.44l.69-3.55s.07-.29.27-.11c0 0 2.54 1.78 5.6-.37 0 0 3.03-1.82 3.28-5.28 0 0 .43-4.09-3.44-4.9 0 0-.47-.08-.91-.1h-7.96l-2.97 14.3Z"/><path fill="#FAC809" d="M24.95 10.02a3.15 3.15 0 0 1-5.11 2.46h-3.43c-1.24-.03-1.12-1.04-1.12-1.04h-.07c-1.12-.06-1.22-.9-1.22-.9h-2.63c-2.56-.05-2.3-1.6-2.3-1.6h.92c.09-.06-.04-.1-.04-.1C9.08 8.68 9 7.6 9 7.6h10.78a3.15 3.15 0 0 1 5.17 2.41Z"/><path fill="#fff" d="M21.8 12.84a2.83 2.83 0 1 1 0-5.65 2.83 2.83 0 0 1 0 5.65Z"/><path fill="#236A32" d="M21.8 7.96a.1.1 0 0 1-.1-.1V7.4a.1.1 0 1 1 .2 0v.45a.1.1 0 0 1-.1.1Zm0 4.74a.1.1 0 0 1-.1-.1v-.45a.1.1 0 0 1 .2 0v.45a.1.1 0 0 1-.1.1Zm-.86-.85a.1.1 0 0 1 .04.14l-.19.41a.1.1 0 1 1-.18-.09l.19-.4a.1.1 0 0 1 .14-.06Zm2-4.3a.1.1 0 0 1 .05.14l-.2.4a.1.1 0 0 1-.18-.09l.2-.4a.1.1 0 0 1 .13-.05Zm.31 1.01a.1.1 0 0 1 0-.14l.33-.32a.1.1 0 0 1 .14.15l-.32.31a.1.1 0 0 1-.15 0Zm-3.37 3.34a.1.1 0 0 1 0-.14l.32-.32a.1.1 0 1 1 .14.14l-.32.32a.1.1 0 0 1-.14 0Zm.02-1.13a.1.1 0 0 1-.05.14l-.42.17a.1.1 0 1 1-.08-.19l.42-.17a.1.1 0 0 1 .14.05Zm4.4-1.79a.1.1 0 0 1-.05.13l-.43.17a.1.1 0 0 1-.07-.19l.42-.17a.1.1 0 0 1 .13.06ZM23.84 10c0-.06.05-.1.1-.1l.46-.01a.1.1 0 0 1 0 .2h-.45a.1.1 0 0 1-.1-.1Zm-4.74.01c0-.06.04-.1.1-.1h.45a.1.1 0 0 1 0 .2h-.45a.1.1 0 0 1-.1-.1Zm.85-.87a.1.1 0 0 1-.14.05l-.41-.2a.1.1 0 1 1 .09-.18l.4.2a.1.1 0 0 1 .06.13Zm4.3 2a.1.1 0 0 1-.14.05l-.4-.19a.1.1 0 0 1 .08-.18l.4.19a.1.1 0 0 1 .06.13Zm-.6.84a.1.1 0 0 1-.15-.02l-.3-.34a.1.1 0 1 1 .16-.13l.3.34a.1.1 0 0 1-.01.15ZM20.4 8.54a.1.1 0 0 1-.15 0l-.3-.35a.1.1 0 0 1 .15-.13l.3.34a.1.1 0 0 1 0 .14Zm2.2 3.34a.1.1 0 0 1 .14.05l.18.42a.1.1 0 1 1-.19.08l-.18-.42a.1.1 0 0 1 .05-.13Zm-1.87-4.36a.1.1 0 0 1 .14.05l.18.42a.1.1 0 0 1-.19.08l-.18-.42a.1.1 0 0 1 .05-.13Z"/><path fill="#fff" d="M19.43 7.9H9.27s.27.95 1.75 1.02l7.88.01s.05-.5.53-1.03Zm-.73 1.36H9.37s.1.95 2.14 1.02h7.19s-.04-.6 0-1.02Zm0 1.28h-4.53s.23.64 1.16.74h3.64s-.2-.23-.27-.74Zm.34 1.03h-3.52s0 .63.7.66h3.38s-.42-.36-.56-.66Z"/></svg>