<svg xmlns="http://www.w3.org/2000/svg" width="38" height="24" fill="none" aria-labelledby="pi-palawa" role="img" viewBox="0 0 38 24"><title id="pi-palawa">Palawa</title><path fill="#fff" d="M0 0h38v24H0z"/><path fill="#086C2C" fill-rule="evenodd" d="M2 6.5v.4h34V6H2zm14.5 1.9-1.3 2.2h.7l.2-.2.1-.2h.5c.6 0 .6 0 .6.2s0 .3.4.3h.4l-.6-2.3zm2.3 0-.5 2.2H21l.2-.2v-.2h1.1v.3l.1.1h.8l-.7-2.3h-.9a73 73 0 0 0-1.4 2V10h-.9l.2-.9.1-.9h-.7Zm4.5 0 .5 2v.2h.8l.5-1c0-.4 0-.3.2.4l.2.6h.7l1.2-2.2s-.7-.1-.8 0L26 9.5a21 21 0 0 0-.4-1.2h-.3c-.4 0-.3-.2-.7.7l-.3.7-.1-.7-.2-.7h-.7Zm5 0L27 10.6h.4c.4 0 .4 0 .6-.2l.1-.2h1a9 9 0 0 1 .2.4h.7l-.2-.9-.3-1-.1-.4h-1Zm2.3 0-.5 2.2h.7l.3-1.1c0-.3 0-.3.2 0l.6 1.1h.4c.5 0 .4.1.6-.5l.2-1v-.7h-.6l-.1.2-.2 1c0 .2 0 .1-.4-.6l-.4-.7h-.8ZM8 8.4l-.3 1.4H10l.2-.1c1-.6 2.4 0 2.4 1.2 0 1.1-1.2 1.9-2.3 1.4l-.2-.1H9c-1.1 0-1.3 0-1.4-.4l-.4-.2-.4 1.8-.3 2h2.6v-.1l.3-.9c.1-1 .1-.9.4-.8 1 .5 2.2.3 3.2-.6 1.7-1.6 1.4-4-.5-4.5H8Zm9 1 .1.3h-.5l.1-.4c.3-.4.3-.4.3 0Zm5-.1c0 .4 0 .4-.2.4-.3 0-.3 0-.2-.2l.2-.4c0-.2 0-.2.2.2m6.8 0c.1.4.1.4-.2.4s-.3 0-.1-.4l.2-.3zm-18 .4.1.1v.2-.3Zm-.4.1v.2c.1 0 0-.2 0-.2m1 0v.2zM10 10l.2.2v-.1c-.2 0-.2-.1-.2 0Zm1.7.1c-.1.2 0 .2.1 0zm-2 .3.2.1h-.1Zm2.3 0c0 .1-.1.2 0 .2l.1-.1H12Zm-2.3.5h.1zm2.3 0h.2-.1s-.1 0 0 0Zm-2.2.4v.1h.1c0-.1 0-.1-.1 0Zm2 0 .3.2v-.1h-.2Zm17.7.1c-.5.1-.8.4-.8.7s.2.4.7.6l.4.4c-.1.2-.6.2-.9 0l-.2-.2-.1.2c-.3.3-.3.3-.2.4.5.4 1.6.4 2 0s.3-.9-.2-1.1c-.6-.2-.7-.3-.6-.4.2-.2.3-.2.6 0h.2c.4-.4.4-.4.1-.5s-.7-.2-1-.1m2.4 0c-.4.1-.7.4-.7.7s0 .4.5.6.6.3.5.4c-.2.2-.6.2-1 0v-.2l-.2.3c-.2.2-.2.2 0 .3.7.5 1.9.3 2-.4.1-.3 0-.5-.6-.8-.4-.2-.5-.2-.3-.4h.6l.1.2.1-.1c.3-.4.3-.4 0-.5s-.7-.2-1-.1m-16.3 0-.5 2.3H17c.1-.5.1-.5-.4-.5h-.4v-.1c0-.3 0-.3.5-.3h.4v-.2c.1-.3.1-.3-.3-.3h-.4v-.1c0-.3 0-.3.5-.3h.5v-.5h-1.7Zm2.1 0 .4.6.4.5-.7.6-.6.6h.9l.4-.3.3-.4.4.4.2.3h.9l-.4-.6-.4-.6.5-.5.6-.6h-1l-.3.3-.3.3-.2-.3-.2-.3zm3.4 0a58 58 0 0 1-.5 2.3h.8l.1-.3V13h.6c.6-.1.9-.2 1-.6.2-.3 0-.7-.4-.9-.1 0-1.6-.1-1.6 0Zm2.5 1.1-.2 1.2h.8v-.6c.1-.3.1-.3.4.1 0 .2.2.4.3.4v.1h1-.1l-.4-.5c-.3-.4-.3-.4-.1-.4.7-.2.9-1 .2-1.3h-1.7zm3-1a204 204 0 0 1-.4 2.2h1.7v-.2c.1-.3.2-.3-.4-.3h-.4v-.1c0-.3 0-.3.5-.3h.4v-.2c.1-.3.2-.3-.3-.3h-.4v-.1c0-.3 0-.3.5-.3h.5v-.5h-1.6Zm-16.6.2c0 .1 0 .2.1 0Zm1.6 0 .1.1c.1.1.1 0 0 0v-.1Zm-1.2.3v.1-.2Zm1 0v.1-.2ZM25 12l-.1.4h-.6l.1-.5h.6Zm-2.8 0c.4.1.1.4-.4.4-.2 0-.2 0-.1-.4zm-11.4 0v.2-.1q0-.3 0 0ZM2 17.6v.5h34v-1H2z" clip-rule="evenodd"/><path fill="#F2CA0E" fill-rule="evenodd" d="m7.7 8-.3 1.5c0 .3 0 .3-1.5.3H4.6v.1c0 .2 0 .3.3.4l.1.1h-.2c-.2 0-.3 0-.2.3 0 .4.7.5 2 .5H7v.1a86 86 0 0 1-.9 4.4h3.5l.1-.8.2-.7h.3c.4.1 1 .1 1.6 0 3-1 3.8-5 1.1-6l-.3-.1H7.7Zm8.7.3-1.6 2.5h1.3l.1-.2c.2-.2.2-.2.6-.2.3 0 .3 0 .4.3v.1H21l.2-.2c.1-.2.1-.2.5-.2h.3v.1c.1.4 0 .3.7.3s.7 0 .6-.2l-.4-1.3c0-.4-.2-.7-.3-1.1h-1.2l-.6.8-.5 1h-.4l-.4-.1a21 21 0 0 1 .3-1.7h-1.2a21 21 0 0 0-.4 1.7l-.2-.8-.3-.9h-1.3Zm6.6 0 .1.5.3 1.2c.2 1 .1.8.8.8h.6v-.3c.3-.5.3-.5.4 0v.3h1.2l1.3-2.6h-1.2l-.1.1-.2.5c-.2.4-.2.4-.3-.3v-.3h-1.1l-.3.5c-.1.4-.1.4-.2 0v-.5H23Zm4.4 1.2a22 22 0 0 0-.8 1.3h1.3l.2-.3v-.1h.7v.1l.1.3h1l1.2-.1.1-.8.3.4.3.5h1.1a18 18 0 0 0 .5-2.1v-.5h-1.1l-.1.4c-.1.5-.1.5-.3.2l-.2-.4-.1-.3h-1.3A72 72 0 0 1 30 10l-.3-.8c0-.5-.2-.9-.2-.9h-1.3l-.8 1.3Zm-9.9-1.1.6 2.2h-.4c-.3 0-.4 0-.4-.2s0-.2-.6-.2h-.5v.2l-.3.2h-.7l1.3-2.2zm2 0-.1.8-.2.9h.9v.4l1.4-2.2h.9l.7 2.3h-.8v-.1l-.1-.2h-1.1c0 .2-.1.2-.2.3h-2.6l.5-2.3h.7Zm4.5 0a16 16 0 0 1 .3 1.4l.3-.7c.4-.9.3-.8.7-.8h.3l.3 1.4c0 .2 0 .1.1-.1l.6-1.3h.8l-1.2 2.3h-.7l-.2-.6c-.1-.7-.1-.8-.2-.4l-.5 1a3 3 0 0 1-.5 0h-.3v-.1l-.5-2.2h.7zm5.4.2.3 1.1.2 1h-.7l-.1-.2v-.2h-1.3c-.2.4-.2.4-.6.4H27l1.4-2.3h1zm2.4.4.4.7a118 118 0 0 1 .3-1.3h.7l-.1.6-.2 1c-.2.7-.1.7-.6.7H32l-.6-1.2c-.2-.3-.2-.3-.2 0l-.3 1.1h-.7l.5-2.2h.8l.4.6Zm-19.2-.5c2 .5 2.2 3 .5 4.5-1 .9-2.2 1.1-3.2.6-.3 0-.3-.1-.4.8l-.2.9H6.5a43 43 0 0 1 .7-3.7s.3 0 .4.2c0 .3.3.4 1.4.4h1.1c1 .6 2.3-.2 2.3-1.3S11 9.1 10 9.7H7.7L8 8.6h4.6Zm4.1.8-.1.4h.5L17 9zm5-.2-.1.4c-.1.2-.1.2.2.2s.3 0 .2-.4-.1-.4-.2-.2Zm7 0-.2.2c-.2.4-.2.4.1.4s.3 0 .2-.4l-.1-.3Zm-17.5.5c1.1.2 1.5 1.5.7 2.3a1.4 1.4 0 0 1-2.3-.4c-.5-1 .4-2.1 1.6-2Zm-1.5.3v.2l-.2.2v.1H7.7c-2.4 0-2.7 0-3-.3-.3-.2-.4-.2 2.4-.2h2.5Zm-.3.8v.4h-2c-2.2 0-2.4 0-2.7-.4 0-.1-.1-.1 2.3-.1h2.4Zm0 .7c0 .2.1.2-1 .1h-1l-.3-.3h2.2zm20-.2h-.2l-.5.5c-.2.2-.2.1-.1-.2v-.2a24 24 0 0 0-2.2 0v.3l-.3 1-.1.9-.5-.6h.1c.7-.3.8-1.1.2-1.5l-1.4-.1h-.8v.6c0 .1-.2 0-.2 0 0-.2-.3-.5-.6-.6h-3.3l-.2.2c-.3.2-.2.2-.4 0l-.2-.2h-3.3v.2l-.3 1.4-.1.6-.1.4h3.4l.3-.3.3-.3s0 .2.2.3l.2.3h2.3v-.2l.1-.4v-.2h.4c.6 0 1-.1 1.1-.4.2-.2.2-.1 0 .5l-.1.7h1.3v-.4s.2 0 .2.2l.2.2h1.6c1.9 0 1.7 0 1.7-.2 0-.1 0-.1.2 0a2 2 0 0 0 2.2 0l.1-.1h.1c.8.6 2.1.4 2.5-.2a.7.7 0 0 0-.2-1l.2-.4.3-.4h-.1c-.7-.6-2-.5-2.3.1-.3.5-.1.9.5 1.2.3.1.4.2.2.2l-.5-.3H31c-.1.1-.1.1-.2 0 0-.1 0-.3-.2-.4h-.1l.3-.4c.3-.4.3-.4 0-.6-.4-.2-1-.3-1.4-.2m.7.2.6.2-.3.5-.2-.1c-.3-.2-.4-.2-.6 0-.1 0 0 .2.6.4.5.2.6.7.2 1-.4.5-1.5.5-2 0l.2-.3.1-.2.2.2c.3.2.8.2.9 0 0-.1 0-.2-.4-.4-.5-.2-.7-.3-.7-.6 0-.5.7-.8 1.4-.7m2.5 0c.3 0 .5.2.5.2l-.2.4h-.2c-.3-.1-.5-.2-.6 0q-.3 0 .3.3c.6.3.7.5.6.8-.1.7-1.3 1-2 .4-.3 0-.2-.1 0-.3l.2-.3.1.1c.3.3.7.3.9.1.1 0 0-.2-.5-.4s-.5-.3-.5-.6c0-.5.7-.9 1.4-.7m-15.2 0-.1.5h-.5c-.5 0-.5 0-.5.3v.1h.4c.4 0 .4 0 .3.3v.2h-.4c-.5 0-.5 0-.5.3v.1h.4c.5 0 .5 0 .4.5H15l.5-2.2h1.8Zm1.4.3.2.3.3-.3.3-.3h1l-.6.6-.5.5a13 13 0 0 0 .8 1.2h-.9l-.2-.3-.4-.4-.3.4-.4.3h-.9l.6-.6.7-.6-.4-.5-.4-.6h.9zm4-.2c.4.2.5.6.3 1-.1.3-.4.4-1 .4h-.5a8 8 0 0 0-.2.8h-.8a18 18 0 0 1 .5-2.3l1.6.1Zm2.7 0c.7.4.5 1.1-.2 1.3-.2 0-.2 0 .1.4l.4.4v.1H25a8 8 0 0 1-.3-.5c-.3-.4-.3-.4-.3-.1l-.1.4v.2h-.8l.2-1.2.2-1h1.7Zm2.9 0-.1.3v.1h-.5c-.5 0-.5 0-.5.3v.1h.4c.5 0 .4 0 .4.3v.2h-.5c-.5 0-.4 0-.5.3v.1h.4c.6 0 .5 0 .4.3v.2h-1.8l.3-1.1.2-1.2h1.8v.2Zm-7.6 0a39 39 0 0 0-.3 1.9l-.8-.9a17 17 0 0 1 1.1-1m-3 .5c.4.5.5.4 0 1-.6.4-.6.4-.6.2v-.1l.2-1 .1-.2c0-.3 0-.3.4.1Zm-8.1-.2c.1.2.2.2-.7.2H7.9c-.2-.2-.2-.2.8-.2h.8l.2.1Zm14.8.1v.6h.5c.2-.2.2-.4 0-.5 0-.1-.4-.2-.5 0Zm-2.7 0c-.1.6-.1.5.1.5.4 0 .6-.1.5-.3 0-.2-.6-.3-.6-.1Zm7 .7.4.3c.3.1.4.2.2.2l-.5-.3c-.2-.1-.2-.1-.4.1-.3.3-.3.3-.2-.2v-.5c0-.2.2-.1.2 0l.2.4Z" clip-rule="evenodd"/><path fill="#E20C14" fill-rule="evenodd" d="M15.7 14.5c-.5 0-.6.1-.4.4v.9h.2v-.3l.1-.3h.3c.6 0 1-.2 1-.4 0-.3-.5-.4-1.3-.3Zm3.4 0c-.4 0-.4 0-.4.2v.1c.2 0 .2.1.1.7v.4h.3v-.3c0-.4 0-.3.5 0 .4.2.4.2.5 0 .1 0 .2 0-.2-.2-.3-.2-.3-.2 0-.3q.6 0 .6-.3c0-.3-.6-.4-1.4-.3m2.3.2a12 12 0 0 1-.6 1.1h.4v-.1c.2-.2.7-.3.7 0h.2l.2-.1-.2-.3-.2-.6v-.2h-.4zm2.4-.2h-.5v.3c.2 0 .2.6 0 1h.5v-.5h.3c.8-.1 1.2-.4 1-.7-.3-.1-.7-.2-1.3-.1m1.7.3-.4.6c-.2.5-.2.4 0 .4l.3-.1c0-.2.6-.3.6 0h.2c.2-.1.2 0 0-.4l-.2-.7v-.1h-.3zm3.7-.3-.1.2-.4.7c-.2.4-.2.4 0 .4l.3-.1c0-.1 0-.2.3-.2l.3.1c0 .2 0 .2.2 0 .2 0 .2 0 .1-.2l-.3-.7v-.2zm2.9.3-.4.7c-.2.3-.2.3 0 .3l.3-.1.3-.2c.3 0 .4 0 .4.2l.3-.2a15 15 0 0 0-.3-.9v-.1h-.4zm-1.7-.3h-.1v1c-.1.3-.2.3.4.2.6 0 .6 0 .6-.2 0-.1 0-.1-.2 0h-.6v-.3l.2-.7zm-12 0-.5.1-.5.1h-.1v.8c-.1.4-.2.3.2.3h.6c.4-.1.4-.1.4-.3h-.3l-.5-.1v-.1h.3l.4-.2c0-.1 0-.1-.4 0-.3 0-.4 0-.3-.1 0-.1 0-.2.5-.2.2 0 .3 0 .3-.2h-.2Zm8.3.6v.8a8 8 0 0 0 1-.3c.6-.2.7-.5.4-.6-.2-.2-1.1-.4-1.4-.4zm-10.2-.3c0 .1-.7.3-.8.2l.1-.2zm3.5 0s-.7.2-.8.1l.1-.1zm4.6 0c.2 0 0 .2-.5.2h-.3v-.1l.1-.1zm3 .1c.5.2.4.5-.3.6-.3 0-.3 0-.3-.2 0-.4 0-.5.5-.4Zm-5.9.2-.1.2c-.1 0-.1 0 0-.2 0-.1 0-.1.1 0m4.1 0c.1.2 0 .2 0 .2-.2 0-.2 0-.1-.2 0-.1 0-.1.1 0m3.6 0v.2c-.2 0-.2 0-.1-.2 0-.1 0-.1.1 0m3 0c.1.2.1.2 0 .2-.2 0-.2 0-.1-.2 0-.1.1-.1.2 0Z" clip-rule="evenodd"/><path fill="#AED0BF" fill-rule="evenodd" d="M2 6v1h34H2zh34zm11.9 2.7.1.2v-.2h-.2Zm-3 1v.3zm0 .1v.2-.3zm-.6 0 .2.2v-.2s-.1-.1-.2 0m19.7 0v.1zq0-.15 0 0m-19.5 0v.2l-.1-.2Zm.8 0v.3l.2-.3zm.2 0-.1.2v-.2Zm-1.6.2.3.3V10zm1.8 0v.3l.2-.3zm-1.6 0v.2L10 10zm1.7.1-.1.1.1-.2zm2.8.2c0-.1 0 0 0 0m-5 .1.2.1c.2.1.3 0 .1 0-.1-.1-.2-.1-.2 0Zm6.9 0h.6zm5 0h.5-.6Zm6.8 0h.4zm-18.3 0v.1h-.2c0-.1.1 0 .2 0Zm2 0c-.1.1-.1.2 0 .2l.3-.2zm.2 0-.2.2v-.1h.2Zm2.5.4v-.1Zm-2.3.1v.1zm-2.7 0 .1.1h.2c0-.1-.2-.2-.3-.1m2.3 0 .2.1h.1c0-.1-.2-.2-.3-.1m-2 0h-.2c-.1 0 0 0 0 0h.1Zm2.3 0H12h.2Zm-6.5.3H6h-.1q-.15 0 0 0Zm1.4 0h2.2zm8.3 0v.1h3.3-3.3Zm8.2 0h.8zm-13.8.1c-.3.1-.2.2 0 .1h.2c0-.1 0-.2-.2 0Zm.1 0-.2.1s.2-.1.2 0Zm2 0c-.1 0 0 .1 0 .2.3 0 .4 0 .1-.1-.1-.1-.1-.1-.2 0Zm.1.1h.1-.2zm7.2.1-.2.1h.2l.2-.2zm-10.4 0H8h1.4-.7Zm-1.1 0h.1zm2.3.2c0 .1-.1.2 0 .2l.2-.2c0-.1 0 0-.2 0m1.6 0 .2.2c.1 0 0 0 0-.2-.1-.1-.2-.1-.2 0m-1.5 0-.1.1s.1-.2.2-.1Zm-2.3 0h.8-.9Zm4 0v.1l-.1-.1Zm16.7 0v.1q0-.15 0 0Zm-18 .1-.2.3h.2zm.8.1.1.3v-.3zm-.8 0-.1.2v-.2Zm.9 0v.2s-.1-.2 0-.2m-.5 0v.3-.2Zm0 .2v.1-.3zm15.3.1v.1s0 .1 0 0c0 0 0-.1 0 0Zm5 .4c-.1.1-.1.1 0 .1zl-.2-.1h.1Zm-2.5 0v.1h-.1c.2 0 .2-.1.1-.1m4.6.4s0 .1 0 0m-16 .2v.2zl.2-.1-.1.1Zm1 .6v.1H15h3.4l.1-.1.1-.2-.1.2Zm4.8 0 .6.1h.6-1.2Zm5 0-1.7.1h-1.6H28Zm-11.9.6h.1zm5.2.2v.1zl.3-.1h.2v.2c0-.3-.3-.4-.5-.1m2.9-.2h.1zm1.3.1v.1c0-.1 0-.2.2-.1h.2c0-.1-.3 0-.4 0m3.6 0v.1c-.1.2-.1.1 0 0l.2-.1h.2v.1c0-.2-.2-.3-.4-.2Zm3 0v.1c0-.1.1-.2.3-.1h.1c0-.1-.3 0-.4 0m-16.7 0h-.2.7zm1.1 0 .3.1h.1zq-.3 0 0 0m2.4 0h-.2c-.2 0-.2 0-.2.2v.1-.1c0-.2 0-.2.5-.2h.1zm1 0a5 5 0 0 1 .3 0H20Zm3.6 0h.5zm1.1 0c.4 0 .5.2.4.4v.1c.2-.3 0-.5-.4-.5h-.2zm5.8 0h.2q0 .15 0 0zm-15.3 0v.1q.15 0 0 0Zm3.2 0v.1h.1-.1Zm4.9 0v.2zh.2zm7 0v.4-.2Zm-12.2 0c-.1.1-.1.1 0 .1h.1q.15 0 0 0h-.1Zm2.3.1v.4c.2-.2.1-.4 0-.4m5.6 0 .2.4v-.2zm6.7 0v.2zm-6 0v.6-.3c0-.3 0-.3.3-.2h.3a4 4 0 0 0-.6-.1m-9.1 0c.1 0 0 0 0 0m13 .2c0 .1 0 0 0 0l.1-.1Zm-15.4 0c.1 0 .1.2 0 .8v.2-.1c.2-.3.2-.8 0-.8v-.2Zm2 0v.5-.7h.2-.1Zm1.2 0H18zq0-.15 0 0m9 0h.2zm2.3 0v.1s0 .1 0 0v-.2Zm-13.7 0h.3-.4Zm3.7 0h.2-.5zm2.2 0 .2.4-.1-.4Zm2.4 0c.3 0 .4 0 .2.1-.1 0-.2 0 0 0 0 0 .2 0 0-.1H24h.3Zm4.7 0v.2zm-12.5 0-.1.1q-.15 0 0 0h.1q0-.15 0 0Zm2.7 0v.1l.1-.1zm4.6 0c0 .1 0 .2.3.2h.2-.2c-.3 0-.3-.1-.2-.2Zm4 0c.1 0 .2 0 0 0h-.1Zm-10.1 0v.3-.2q.15 0 0 0Zm1.1.2v.1-.2zm-3.1 0h.5-.2l-.3-.1Zm1.3 0h-.3l-.1.2.4-.3Zm2.5 0h-.2.5zm1.6.1-.1.3.3-.5zm7-.1c.2 0 .2.2 0 .4 0 0 0 .1 0 0 .3 0 .3-.3 0-.5q-.3 0 0 0Zm-1 0h.2zm3.1.1v.2-.3zm-2.7-.1h.1zm3 .1v.2-.1l.1-.2v.1ZM18.4 15s.1 0 0 0h.1-.2zm7 .1v.1c.1-.3 0-.3 0-.1m6.6 0v.1c.1-.3.1-.3 0-.1m-11.6 0h-.2q-.3 0 0 0h.3zm1.3 0c.1.1.1.2 0 .2.1 0 .2 0 .1-.2 0-.1 0-.1-.1 0m3.4 0h-.4.3q0-.15 0 0Zm.7 0h.1v.2h-.1v-.1c-.1 0 0 .1 0 .1.2 0 .2 0 .1-.2 0-.1 0-.1-.1 0m2 0c.2 0 .2.2 0 .3h-.2l.4-.2-.2-.2Zm1.1 0v.2zh.1Zm.5 0h.1c0 .2-.1.2-.2.1l.1.1c.2 0 .2 0 .1-.2 0-.1 0-.1-.1 0m3 0h.1v.2h-.1v-.1c-.1 0 0 .1 0 .1.2 0 .2 0 .2-.2 0-.1-.1-.1-.2 0m-14.5 0h.2zm5.6 0v.1zm6.4 0 .1.3-.1-.4v.2Zm-3.6 0v.1zm6.6 0v.1h.1V15Zm-16.5.1h-.1.2-.2Zm3.4 0 .1.1q.15 0 0 0c-.15 0 0 0 0-.1zm4.8 0h-.7.8Zm2.5.1v.2h.4-.4v-.3zm-9 0H18h.3zm-2.3 0v.5h-.5.5zh.5zm2 0c0 .2 0 .3.4.2h-.4zh.2zm1 .2v.2l.1-.2v-.2.2Zm4.7-.1s0 .1 0 0m-4.2.2-.1.3s.2-.6 0-.6v.3Zm4.6 0v.2h-.4v-.1c-.1.2 0 .2.1.2.3 0 .3 0 .3-.3v-.3zm2.6-.2v.2s-.1 0 0 0zc0-.1-.1-.1 0 0m.2.2v.3h.2-.3v-.6.3Zm6.3-.3v.2c.1 0 .1 0 0 .1.1 0 .2 0 .1-.1v-.2Zm-13.6 0v.1l.2.1s.1.1.1 0h-.2l-.1-.1Zm-1 .1c-.1 0 0 0 0 0h.2v.1c0 .2 0 .2-.3.2.3 0 .3 0 .3-.2 0-.1-.1-.2-.3-.1Zm12.8 0h.2v.1c.1-.1 0-.2-.2-.1m-1.1 0v.2q-.15 0 0 0zm-9.9 0v.3h-.4.3q.3-.3 0-.3Zm4.9.2q-.3.3 0 .3h.2-.2zq.15-.3 0 0m5.2-.1v.3h.3q.15 0 0 0h-.3v-.4Zm.5 0h-.2.5zm.9.1v.3h.2-.1c-.2 0-.2 0 0-.3 0-.2 0-.2-.1 0m-3 0v-.1Zm-7 0h-.2.4s0-.1 0 0zm4.2 0h-.4.6v.2l.3-.1H26v-.2h-.2Zm3.5 0H29v.2-.1c.1-.2.5-.2.6 0v-.1s0-.1 0 0h-.3Zm3 0h-.2.5v.1h.3-.3c0-.2 0-.2-.2-.2Zm-4.6 0c.2 0 .1 0 0 0m-10.5.1v.2-.4.1Zm3.6 0c-.1.1 0 .2 0 .2h.2-.1c-.2 0-.2 0 0-.2zm10.5 0H31h.2Zm-9.4 0c0 .1 0 .1.2 0zm3.5 0v.1zm1.8 0-.2.1.6-.1zm2.5 0h.1c.1 0 0 0 0 0Zm2.3 0v.1zm-3.5 0c-.1.1 0 .2.1.2q.3 0 0 0s-.1 0 0-.1c0-.1 0-.1-.1 0Zm-10.6 0h.1zm12.8 0h.2zm-13.3.1h.3q.15 0 0 0zm1.3 0c0 .2 0 .2.2.2h.1-.1zM2 17.2v.9h34H2v-1h34H2Z" clip-rule="evenodd"/></svg>