<svg xmlns="http://www.w3.org/2000/svg" width="38" height="24" fill="none" aria-labelledby="pi-payafterdeliveryinstalments" role="img" viewBox="0 0 38 24"><title id="pi-payafterdeliveryinstalments">Pay After Delivery Installments</title><path fill="#fff" d="M0 0h38v24H0z"/><path fill="#B9B5B5" d="M20.97 6.81h-.54v10.76h.54V6.8Z"/><path fill="#FABD00" d="M15.42 5.74v.3h-.01v2.99a3.6 3.6 0 0 0-1.89-.5 3.6 3.6 0 0 0-2.76 1.23c.6.68.89 1.5.89 2.44 0-.55.17-1 .51-1.36l.02-.02c.36-.36.8-.54 1.34-.54s.99.18 1.35.54q.54.54.54 1.38a1.86 1.86 0 0 1-1.89 1.91 1.8 1.8 0 0 1-1.34-.54l-.02-.02c-.34-.36-.51-.8-.51-1.36 0 .95-.3 1.75-.89 2.42l-.02.02a3.5 3.5 0 0 0 2.78 1.23c1.03 0 1.9-.34 2.61-1.05a3.56 3.56 0 0 0 1.07-2.54V8.52c0-1.24-.73-2.27-1.78-2.78"/><path fill="#00ABEE" d="M9.86 12.2a1.9 1.9 0 0 1-.53 1.37c-.36.36-.8.54-1.35.54H7.9a1.86 1.86 0 0 1-1.8-1.92 1.86 1.86 0 0 1 1.88-1.92 1.83 1.83 0 0 1 1.88 1.92c0-.94.29-1.74.88-2.41l.02-.02a3.56 3.56 0 0 0-2.78-1.23H7.9c-1 .02-1.84.36-2.53 1.05a3.6 3.6 0 0 0-1.07 2.54v3.74c0 1.25.73 2.27 1.79 2.78v-3.28a3.6 3.6 0 0 0 1.9.5 3.57 3.57 0 0 0 2.76-1.23 3.55 3.55 0 0 1-.89-2.44Z"/><path fill="#006693" d="M11.65 12.2c0 .94-.3 1.74-.89 2.41l-.01.02a3.55 3.55 0 0 1-.89-2.44c0-.94.29-1.74.88-2.41l.02-.02c.6.68.9 1.5.9 2.44Z"/><path fill="#00ABEE" d="M31.19 8.43h-.54v-.14a.4.4 0 1 0-.8 0v.14h-2.7v-.14a.4.4 0 1 0-.8 0v.14h-.54a1.62 1.62 0 0 0-1.61 1.6v4.85a1.61 1.61 0 0 0 1.6 1.61h5.39a1.62 1.62 0 0 0 1.6-1.61v-4.84a1.62 1.62 0 0 0-1.6-1.61m.8 6.45a.8.8 0 0 1-.8.8H25.8a.8.8 0 0 1-.8-.8v-3.5h6.98v3.5ZM25 10.58v-.54c0-.45.36-.8.8-.8h.55v.4a.4.4 0 0 0 .8 0v-.4h2.7v.4a.4.4 0 0 0 .8 0v-.4h.54c.44 0 .8.35.8.8v.54z"/><path fill="#00ABEE" d="M26.35 14.34a.8.8 0 1 0 0-1.61.8.8 0 0 0 0 1.61m2.15 0a.8.8 0 1 0 0-1.61.8.8 0 0 0 0 1.61m2.15 0a.8.8 0 1 0 0-1.61.8.8 0 0 0 0 1.61"/></svg>