<svg xmlns="http://www.w3.org/2000/svg" viewBox="0 0 38 24" width="38" height="24" fill="none" role="img" aria-labelledby="pi-payap"><title id="pi-payap">Payap</title><g clip-path="url(#pi-payap)"><path fill="#610AC7" d="M1 3a2 2 0 012-2h32a2 2 0 012 2v18a2 2 0 01-2 2H3a2 2 0 01-2-2z"/><path stroke="#000" stroke-opacity=".07" d="M3 .5A2.5 2.5 0 00.5 3v18A2.5 2.5 0 003 23.5h32a2.5 2.5 0 002.5-2.5V3A2.5 2.5 0 0035 .5z"/><path fill="#8EFFE9" d="M24.778 8.413V6.368a.573.573 0 00-.57-.576h-4.295a.573.573 0 00-.569.576v2.236c0 .319.255.577.569.577h4.08c.42 0 .759.344.759.768v1.828c0 .424-.34.768-.758.768h-4.739a.763.763 0 01-.758-.768V9.752a.573.573 0 00-.568-.576h-5.117a.573.573 0 00-.569.576v2.032c0 .425-.34.768-.758.768h-2a.573.573 0 00-.569.577v2.224c0 .318.255.576.569.576h1.997c.418 0 .758.344.758.769v2.044c0 .318.254.577.568.577h4.296a.573.573 0 00.57-.577v-2.236a.573.573 0 00-.57-.577h-4.099a.763.763 0 01-.758-.768v-1.828c0-.424.34-.768.758-.768h4.734c.419 0 .758.344.758.768v2.025c0 .318.255.577.57.577h5.116a.573.573 0 00.569-.577v-2.032c0-.424.339-.768.758-.768h2.004a.573.573 0 00.569-.577V9.758a.573.573 0 00-.57-.577h-1.978a.763.763 0 01-.757-.768z"/></g><defs><clipPath id="pi-payap"><path fill="#fff" d="M0 0h38v24H0z"/></clipPath></defs></svg>