<svg viewBox="0 0 38 24" role="img" width="38" height="24" aria-labelledby="pi-paybylink" xmlns="http://www.w3.org/2000/svg"><title id="pi-paybylink">Pay By Link</title><path opacity=".07" d="M 35 0 L 3 0 C 1.3 0 0 1.3 0 3 L 0 21 C 0 22.7 1.4 24 3 24 L 35 24 C 36.7 24 38 22.7 38 21 L 38 3 C 38 1.3 36.6 0 35 0 Z"/><path fill="#fff" d="M 35 1 C 36.1 1 37 1.9 37 3 L 37 21 C 37 22.1 36.1 23 35 23 L 3 23 C 1.9 23 1 22.1 1 21 L 1 3 C 1 1.9 1.9 1 3 1 L 35 1"/><path fill-rule="evenodd" clip-rule="evenodd" fill="#1F4972" d="M 18.873 9.704 C 18.456 8.917 18.042 8.966 16.9 8.966 L 16.711 9.704 L 18.873 9.704 Z" style=""/><polygon fill-rule="evenodd" clip-rule="evenodd" fill="#1F4973" points="23.61 10.803 24.141 10.803 24.141 10.306 23.61 10.306 23.61 10.803" style=""/><polygon fill-rule="evenodd" clip-rule="evenodd" fill="#1D4B73" points="27.213 13.139 27.763 13.139 27.767 12.124 28.466 13.139 29.157 13.137 28.281 11.974 29.049 11.045 28.406 11.052 27.763 11.868 27.763 10.289 27.213 10.289 27.213 13.139" style=""/><path fill-rule="evenodd" clip-rule="evenodd" fill="#EF7A2A" d="M 17.604 12.693 L 17.243 12.693 L 17.243 11.868 L 17.535 11.868 C 17.827 11.868 18.135 11.974 18.135 12.264 L 18.135 12.315 C 18.135 12.566 17.854 12.693 17.604 12.693 Z M 17.243 10.751 L 17.535 10.751 C 17.783 10.751 18.016 10.837 18.016 11.078 L 18.016 11.147 C 18.016 11.39 17.691 11.456 17.432 11.456 L 17.243 11.456 L 17.243 10.751 Z M 18.032 11.68 C 18.198 11.575 18.235 11.639 18.415 11.461 C 18.519 11.357 18.582 11.227 18.582 11.026 L 18.582 10.958 C 18.582 10.521 18.142 10.306 17.69 10.306 L 16.677 10.306 L 16.677 13.139 L 17.723 13.139 C 18.268 13.139 18.667 12.865 18.667 12.315 C 18.667 11.971 18.361 11.68 18.032 11.68 Z" style=""/><path fill-rule="evenodd" clip-rule="evenodd" fill="#1F4973" d="M 10.397 10.751 L 10.654 10.751 C 10.891 10.751 11.02 10.882 11.117 11.026 L 11.138 11.234 L 11.133 11.251 C 11.133 11.488 10.875 11.628 10.637 11.628 L 10.397 11.628 L 10.397 10.751 Z M 10.705 12.075 C 11.314 12.075 11.734 11.752 11.734 11.13 C 11.734 10.461 11.112 10.306 10.431 10.306 L 9.829 10.306 L 9.829 13.139 L 10.397 13.139 L 10.397 12.075 L 10.705 12.075 Z" style=""/><polygon fill-rule="evenodd" clip-rule="evenodd" fill="#1F4973" points="21.619 13.139 23.284 13.139 23.284 12.693 22.186 12.693 22.186 10.306 21.619 10.306 21.619 13.139" style=""/><polygon fill-rule="evenodd" clip-rule="evenodd" fill="#1D4B73" points="23.61 13.139 24.159 13.139 24.159 11.045 23.61 11.045 23.61 13.139" style=""/><path fill-rule="evenodd" clip-rule="evenodd" fill="#1D4B73" d="M 25.274 12.023 C 25.274 11.717 25.43 11.421 25.737 11.421 L 25.772 11.421 C 26.065 11.421 26.098 11.727 26.098 12.023 L 26.098 13.139 L 26.647 13.139 L 26.647 11.886 C 26.647 11.331 26.446 10.993 25.892 10.993 L 25.875 10.993 C 25.495 10.993 25.423 11.184 25.24 11.32 L 25.24 11.045 L 24.725 11.045 L 24.725 13.139 L 25.274 13.139 L 25.274 12.023 Z" style=""/><path fill-rule="evenodd" clip-rule="evenodd" fill="#1F4973" d="M 12.472 12.521 C 12.472 12.276 12.751 12.177 13.005 12.177 L 13.313 12.177 C 13.313 12.508 13.146 12.795 12.832 12.795 L 12.799 12.795 C 12.639 12.795 12.472 12.706 12.472 12.555 L 12.472 12.521 Z M 12.202 11.61 C 12.404 11.563 12.47 11.404 12.85 11.404 L 12.884 11.404 C 13.182 11.404 13.313 11.552 13.313 11.851 L 13.005 11.851 C 12.453 11.851 11.958 11.993 11.958 12.538 L 11.958 12.607 C 11.958 12.947 12.305 13.191 12.644 13.191 L 12.73 13.191 C 13.088 13.191 13.162 12.971 13.331 12.848 L 13.352 13.139 L 13.828 13.139 C 13.828 12.805 13.841 12.035 13.798 11.744 C 13.757 11.481 13.759 11.378 13.601 11.22 C 13.5 11.119 13.297 11.009 13.108 11.009 L 12.85 11.009 C 12.611 11.009 12.339 11.081 12.178 11.164 L 12.202 11.61 Z" style=""/><path fill-rule="evenodd" clip-rule="evenodd" fill="#ED7B2B" d="M 19.028 11.045 C 19.104 11.216 19.818 13.209 19.818 13.277 C 19.818 13.458 19.681 13.62 19.525 13.62 L 19.405 13.62 L 19.183 13.588 L 19.183 13.689 C 19.183 13.914 19.09 14.033 19.372 14.033 L 19.646 14.033 C 19.956 14.033 20.174 13.738 20.261 13.515 C 20.367 13.245 20.478 12.969 20.575 12.695 C 20.669 12.423 20.781 12.147 20.883 11.87 C 20.932 11.739 21.182 11.141 21.191 11.045 L 20.675 11.045 C 20.615 11.045 20.558 11.332 20.526 11.409 C 20.477 11.528 20.432 11.666 20.395 11.792 C 20.347 11.953 20.152 12.465 20.143 12.573 L 19.625 11.045 L 19.028 11.045 Z" style=""/><path fill-rule="evenodd" clip-rule="evenodd" fill="#1D4B73" d="M 14.103 11.045 C 14.166 11.185 14.909 13.258 14.909 13.26 C 14.909 13.45 14.772 13.62 14.583 13.62 L 14.497 13.62 L 14.274 13.588 L 14.236 13.998 L 14.685 14.059 L 14.72 14.049 C 14.843 14.049 15.046 13.928 15.118 13.865 C 15.207 13.787 15.283 13.626 15.338 13.517 C 15.438 13.318 15.576 12.928 15.654 12.699 C 15.748 12.421 15.856 12.149 15.964 11.876 C 16.021 11.726 16.255 11.164 16.265 11.045 L 15.715 11.045 L 15.217 12.578 C 15.199 12.462 14.999 11.95 14.954 11.79 C 14.916 11.653 14.858 11.53 14.823 11.404 C 14.805 11.34 14.738 11.045 14.669 11.045 L 14.103 11.045 Z" style=""/><path fill-rule="evenodd" clip-rule="evenodd" fill="#ED7B2B" d="M 21.208 15.098 L 21.403 14.394 L 19.268 14.393 C 19.276 14.487 19.464 14.729 19.529 14.784 C 19.687 14.915 19.756 14.942 19.959 15.023 C 20.228 15.132 20.825 15.098 21.208 15.098 Z" style=""/><path fill-rule="evenodd" clip-rule="evenodd" fill="#ED7A2B" d="M 18.994 17.244 C 18.924 17.184 18.461 16.974 18.314 16.877 C 18.094 16.732 17.926 16.578 17.745 16.398 C 17.57 16.225 17.43 16.015 17.291 15.804 C 17.222 15.697 17.162 15.584 17.099 15.464 C 17.044 15.352 16.997 15.187 16.934 15.098 C 15.242 15.098 13.548 15.098 11.855 15.098 C 11.405 15.098 9.606 15.145 9.346 15.066 C 8.941 14.942 8.794 14.889 8.576 14.564 C 8.43 14.344 8.285 13.952 8.285 13.586 L 8.285 10.272 C 8.285 9.517 8.85 9.116 9.496 8.992 C 9.989 8.9 11.336 8.966 11.941 8.966 C 13.594 8.966 15.247 8.966 16.9 8.966 C 18.042 8.966 18.456 8.917 18.873 9.704 L 21.362 9.704 L 21.383 9.699 L 21.173 8.966 C 21.141 8.93 20.895 8.389 20.823 8.269 C 20.708 8.08 20.519 7.823 20.371 7.673 C 20.201 7.502 20.007 7.329 19.804 7.193 C 19.718 7.136 19.141 6.832 19.13 6.819 C 19.007 6.816 18.666 6.675 18.479 6.647 C 18.244 6.611 18.042 6.561 17.758 6.561 L 9.676 6.561 C 8.646 6.561 7.5 7.129 6.987 7.648 C 6.386 8.253 5.883 9.124 5.883 10.323 L 5.883 13.707 C 5.883 14.748 6.439 15.845 6.95 16.381 C 7.499 16.956 8.457 17.502 9.571 17.502 L 17.654 17.502 C 17.854 17.502 18.216 17.458 18.376 17.416 C 18.504 17.383 18.901 17.252 18.994 17.244 Z" style=""/><path fill-rule="evenodd" clip-rule="evenodd" fill="#1F4972" d="M 19.13 6.819 C 19.141 6.832 19.718 7.136 19.804 7.193 C 20.007 7.329 20.201 7.502 20.371 7.673 C 20.519 7.823 20.708 8.08 20.823 8.269 C 20.895 8.389 21.141 8.93 21.173 8.966 C 22.849 8.966 24.524 8.966 26.201 8.966 C 26.712 8.966 28.336 8.903 28.699 8.99 C 29.085 9.082 29.3 9.167 29.495 9.447 C 29.622 9.625 29.821 10.078 29.821 10.374 L 29.821 13.758 C 29.821 14.543 29.289 14.93 28.633 15.059 C 28.115 15.161 26.822 15.098 26.184 15.098 C 24.524 15.098 22.865 15.098 21.208 15.098 C 20.825 15.098 20.228 15.132 19.959 15.023 C 19.756 14.942 19.687 14.915 19.529 14.784 C 19.464 14.729 19.277 14.487 19.268 14.393 L 16.744 14.393 L 16.934 15.098 C 16.997 15.187 17.044 15.352 17.099 15.463 C 17.162 15.583 17.221 15.697 17.291 15.804 C 17.43 16.015 17.57 16.225 17.745 16.398 C 17.926 16.578 18.094 16.732 18.314 16.877 C 18.461 16.974 18.924 17.184 18.994 17.244 C 19.119 17.254 19.496 17.4 19.724 17.441 C 19.995 17.488 20.264 17.519 20.572 17.519 L 28.328 17.519 C 29.396 17.519 30.538 16.974 31.087 16.45 C 31.689 15.875 32.224 14.946 32.224 13.775 L 32.224 10.323 C 32.224 9.287 31.636 8.162 31.112 7.639 C 30.524 7.051 29.58 6.544 28.414 6.544 L 20.538 6.544 C 20.371 6.544 19.938 6.599 19.79 6.636 C 19.673 6.667 19.557 6.691 19.443 6.72 C 19.328 6.748 19.241 6.793 19.13 6.819 Z" style=""/></svg>