<svg xmlns="http://www.w3.org/2000/svg" role="img" viewBox="0 0 38 24" width="38" height="24" aria-labelledby="pi-paybybank_cashback"><title id="pi-paybybank_cashback">Pay by Bank (1.5% cashback)</title><path fill="#000" opacity=".07" d="M35 0H3C1.3 0 0 1.3 0 3v18c0 1.7 1.4 3 3 3h32c1.7 0 3-1.3 3-3V3c0-1.7-1.4-3-3-3z"/><path fill="#fff" d="M35 1c1.1 0 2 .9 2 2v18c0 1.1-.9 2-2 2H3c-1.1 0-2-.9-2-2V3c0-1.1.9-2 2-2h32"/><path opacity=".07" d="M35 0H3C1.3 0 0 1.3 0 3v18c0 1.7 1.4 3 3 3h32c1.7 0 3-1.3 3-3V3c0-1.7-1.4-3-3-3z" fill="#000"/><path d="M35 1c1.1 0 2 .9 2 2v18c0 1.1-.9 2-2 2H3c-1.1 0-2-.9-2-2V3c0-1.1.9-2 2-2h32z" fill="#fff"/><path d="M11.15 4.364v7.637H9.534V5.897H9.49L7.741 6.993V5.561l1.89-1.197h1.518zm2.347 7.734a.871.871 0 01-.633-.261.87.87 0 01-.262-.634c0-.244.088-.453.261-.627a.871.871 0 01.634-.26.87.87 0 01.627.26.843.843 0 01.268.627.841.841 0 01-.127.45.963.963 0 01-.324.325.854.854 0 01-.444.12zm4.912.007c-.527 0-.997-.097-1.41-.29a2.454 2.454 0 01-.976-.802 2.06 2.06 0 01-.377-1.171h1.566a.953.953 0 00.373.72c.231.183.506.275.824.275.254 0 .477-.056.671-.167.197-.115.35-.273.459-.474.112-.204.168-.437.168-.701 0-.268-.058-.505-.172-.708a1.213 1.213 0 00-.466-.478 1.372 1.372 0 00-.682-.175 1.62 1.62 0 00-.653.138 1.18 1.18 0 00-.488.377L15.81 8.39l.362-4.027h4.668v1.32h-3.337l-.198 1.913h.045c.134-.189.337-.345.608-.47.27-.124.574-.186.91-.186.46 0 .87.108 1.23.324.36.217.645.514.854.891.209.376.312.808.31 1.298.002.515-.117.972-.358 1.372-.24.398-.573.711-1.003.94-.428.226-.925.34-1.492.34zm8.158-1.536v-.403c0-.306.065-.586.194-.842.132-.259.322-.465.57-.62.252-.156.558-.234.918-.234.365 0 .672.077.921.23.251.155.44.361.567.62.129.256.194.538.194.846v.403c0 .306-.065.588-.194.846a1.51 1.51 0 01-.57.616c-.252.156-.558.234-.918.234-.365 0-.672-.078-.921-.235a1.517 1.517 0 01-.567-.615 1.865 1.865 0 01-.194-.846zm1.085-.403v.403c0 .176.043.343.127.5.087.156.244.234.47.234.226 0 .38-.077.462-.23a1.03 1.03 0 00.127-.504v-.403c0-.181-.04-.35-.12-.507-.079-.157-.235-.235-.469-.235-.224 0-.38.078-.466.235-.087.157-.13.326-.13.507zM22.648 6.2v-.403c0-.308.066-.59.198-.846.132-.259.322-.465.57-.62.252-.153.555-.23.91-.23.368 0 .677.077.925.23.249.155.438.361.567.62.13.256.194.538.194.846V6.2c0 .308-.066.59-.198.846a1.51 1.51 0 01-.57.616c-.249.151-.555.227-.918.227s-.67-.077-.92-.231a1.549 1.549 0 01-.567-.615 1.872 1.872 0 01-.19-.843zm1.093-.403V6.2c0 .181.042.35.127.503.087.154.24.231.458.231.23 0 .384-.077.466-.23a1.03 1.03 0 00.127-.504v-.403c0-.181-.04-.35-.119-.507-.08-.157-.237-.235-.474-.235-.22 0-.374.08-.458.239-.085.159-.127.327-.127.503zm-.6 6.205l5.25-7.637h.977l-5.25 7.637h-.977z" fill="#18193F"/><path d="M32 13.9H6a3.1 3.1 0 100 6.2h26a3.1 3.1 0 100-6.2z" fill="#E2FF62" stroke="#E2FF62" stroke-width=".2"/><path d="M8.023 19.06c-.29 0-.54-.065-.75-.197a1.306 1.306 0 01-.48-.549 1.827 1.827 0 01-.168-.8c0-.305.057-.574.172-.807.114-.234.276-.417.484-.549a1.35 1.35 0 01.737-.197c.227 0 .43.042.609.127a1.062 1.062 0 01.629.88h-.568a.68.68 0 00-.215-.363.633.633 0 00-.446-.152.726.726 0 00-.427.129.83.83 0 00-.284.363 1.388 1.388 0 00-.101.555c0 .219.033.408.1.566a.84.84 0 00.28.37c.123.087.267.13.432.13.111 0 .211-.02.301-.06a.615.615 0 00.229-.178.668.668 0 00.13-.277h.569a1.09 1.09 0 01-.613.879c-.176.087-.383.13-.62.13zm2.73.006c-.19 0-.362-.035-.515-.105a.868.868 0 01-.365-.31.89.89 0 01-.133-.499c0-.169.032-.308.097-.418a.72.72 0 01.264-.26c.11-.063.234-.111.371-.144.137-.032.276-.057.418-.074l.438-.05a.642.642 0 00.244-.07c.05-.03.076-.081.076-.152v-.013c0-.17-.048-.303-.145-.397-.095-.094-.237-.14-.425-.14-.197 0-.352.043-.465.13a.699.699 0 00-.233.288l-.548-.125c.065-.183.16-.33.285-.442.126-.113.271-.195.435-.246a1.7 1.7 0 01.899-.035c.135.027.261.078.379.152.118.075.215.18.29.319.076.136.114.314.114.533V19h-.57v-.41h-.024a.829.829 0 01-.17.223.901.901 0 01-.29.181c-.12.048-.261.072-.427.072zm.127-.468c.162 0 .3-.032.414-.096a.67.67 0 00.264-.25.649.649 0 00.092-.334v-.387a.303.303 0 01-.121.059 1.88 1.88 0 01-.201.045 23.534 23.534 0 01-.4.056 1.444 1.444 0 00-.311.073.533.533 0 00-.223.146.366.366 0 00-.082.25c0 .145.053.254.16.328.107.073.243.11.408.11zm4.38-1.866l-.53.094a.628.628 0 00-.105-.193.523.523 0 00-.191-.15.694.694 0 00-.303-.06.727.727 0 00-.414.112c-.11.073-.166.168-.166.283 0 .1.037.181.111.242a.9.9 0 00.36.15l.476.11c.276.064.482.162.617.295a.693.693 0 01.203.518c0 .18-.052.34-.156.48-.103.14-.247.249-.432.328-.183.08-.396.12-.638.12-.336 0-.61-.072-.822-.215a.908.908 0 01-.391-.616l.564-.085a.54.54 0 00.217.334c.11.074.252.11.428.11.191 0 .344-.039.459-.118.114-.081.172-.18.172-.295a.306.306 0 00-.106-.236.691.691 0 00-.318-.145l-.508-.111c-.28-.064-.487-.166-.621-.305a.736.736 0 01-.2-.53c0-.177.05-.331.15-.464a.972.972 0 01.41-.31c.174-.076.374-.114.599-.114.324 0 .58.07.766.21.186.14.309.327.369.561zm1.284.487V19h-.584v-4h.577v1.488h.037a.863.863 0 01.322-.384c.145-.095.333-.143.566-.143a1.1 1.1 0 01.54.127c.154.084.274.21.359.379.086.167.129.375.129.625V19h-.584v-1.838c0-.22-.057-.39-.17-.512-.113-.122-.271-.183-.473-.183a.773.773 0 00-.37.088.634.634 0 00-.257.258.836.836 0 00-.092.406zM19.316 19v-4h.584v1.486h.035a1.63 1.63 0 01.146-.216.83.83 0 01.266-.215.928.928 0 01.45-.094c.242 0 .458.061.648.184.19.122.339.298.447.529.11.23.164.508.164.832 0 .324-.054.602-.162.834-.108.23-.256.408-.445.533a1.153 1.153 0 01-.647.186.955.955 0 01-.447-.092.848.848 0 01-.27-.215 1.624 1.624 0 01-.15-.219h-.049V19h-.57zm.572-1.5c0 .21.03.396.092.555a.84.84 0 00.266.373.68.68 0 00.425.133c.175 0 .32-.047.438-.14a.86.86 0 00.265-.38c.062-.16.092-.34.092-.541 0-.198-.03-.376-.09-.533a.816.816 0 00-.265-.373.694.694 0 00-.44-.137.7.7 0 00-.43.13.803.803 0 00-.263.366c-.06.156-.09.339-.09.547zm3.697 1.566c-.19 0-.362-.035-.516-.105a.868.868 0 01-.365-.31.891.891 0 01-.133-.499c0-.169.033-.308.098-.418a.72.72 0 01.264-.26c.11-.063.234-.111.37-.144.137-.032.277-.057.419-.074l.437-.05a.641.641 0 00.244-.07c.051-.03.077-.081.077-.152v-.013c0-.17-.049-.303-.145-.397-.095-.094-.237-.14-.426-.14-.196 0-.351.043-.465.13a.7.7 0 00-.232.288l-.549-.125c.065-.183.16-.33.285-.442.127-.113.272-.195.436-.246a1.7 1.7 0 01.898-.035c.136.027.262.078.38.152.118.075.215.18.29.319.076.136.113.314.113.533V19h-.57v-.41h-.023a.83.83 0 01-.17.223.903.903 0 01-.291.181c-.119.048-.26.072-.426.072zm.127-.468a.84.84 0 00.414-.096.67.67 0 00.355-.584v-.387a.303.303 0 01-.12.059 1.886 1.886 0 01-.202.045 23.534 23.534 0 01-.4.056 1.445 1.445 0 00-.31.073.533.533 0 00-.223.146.366.366 0 00-.082.25c0 .145.053.254.16.328.107.073.243.11.408.11zm3.395.463c-.29 0-.54-.066-.75-.198a1.306 1.306 0 01-.48-.549 1.827 1.827 0 01-.168-.8c0-.305.057-.574.171-.807.115-.234.276-.417.485-.549a1.35 1.35 0 01.736-.197c.228 0 .431.042.61.127a1.062 1.062 0 01.629.88h-.569a.681.681 0 00-.215-.363.633.633 0 00-.445-.152.726.726 0 00-.428.129.83.83 0 00-.283.363 1.388 1.388 0 00-.102.555c0 .219.034.408.1.566.066.16.16.282.281.37.123.087.267.13.432.13.11 0 .21-.02.3-.06a.614.614 0 00.23-.178.668.668 0 00.13-.277h.568a1.09 1.09 0 01-.613.879c-.176.087-.382.13-.62.13zm2.394-1.079l-.004-.712h.102L30.794 16h.7l-1.364 1.445h-.092l-.537.537zM28.964 19v-4h.584v4h-.584zm1.894 0l-1.074-1.426.402-.408L31.576 19h-.718z" fill="#18193F"/></svg>