<svg width="38" height="24" viewBox="0 0 38 24" fill="none" xmlns="http://www.w3.org/2000/svg" role="img" aria-labelledby="pi-paybybankapp"><title id="pi-paybybankapp">Pay by Bank app</title><g clip-path="url(#clip0_3703_502)"><rect x=".5" y=".5" width="37" height="23" rx="2.5" fill="#fff"/><rect x=".5" y=".5" width="37" height="23" rx="2.5" stroke="#F6F7F8"/><g clip-path="url(#clip1_3703_502)"><path d="M10.01 8.793a.519.519 0 01.36.144.495.495 0 01.144.42c0 .096-.028.19-.082.27l-2.31 3.471h3.926a.104.104 0 00.072-.029.099.099 0 00.03-.07V7.236a.098.098 0 00-.03-.07.103.103 0 00-.072-.03H9.195a.103.103 0 00-.072.03.098.098 0 00-.03.07v.695a.196.196 0 01-.06.14.206.206 0 01-.143.059h-.611a.208.208 0 01-.145-.058.198.198 0 01-.06-.141V6.672c0-.14.058-.275.16-.374a.55.55 0 01.384-.156h4.007a.55.55 0 01.384.156c.102.099.16.234.16.374v6.89c0 .141-.058.276-.16.375a.55.55 0 01-.384.155h-5.4a.514.514 0 01-.358-.145.49.49 0 01-.143-.419c-.001-.096.028-.19.082-.271l2.309-3.47H5.12a.103.103 0 00-.071.028.098.098 0 00-.03.07v5.433c0 .026.01.052.03.07.019.019.044.03.071.03h2.853c.027 0 .053-.011.072-.03a.098.098 0 00.03-.07v-.364c0-.053.021-.104.06-.14a.207.207 0 01.144-.06h.61c.055 0 .107.022.145.06.038.036.06.087.06.14v1.257c0 .14-.058.275-.16.374a.55.55 0 01-.384.155H4.543a.55.55 0 01-.383-.154.524.524 0 01-.16-.373v-6.89c0-.141.057-.276.16-.375a.55.55 0 01.383-.155h5.467zm-3.465 7.549a.275.275 0 00.149-.046.258.258 0 00.037-.405.272.272 0 00-.294-.056.268.268 0 00-.12.097.259.259 0 00.124.39c.033.013.068.02.104.02M16.111 6.143c.738 0 1.197.433 1.197 1.142 0 .71-.454 1.139-1.197 1.139h-.71v.906c0 .147-.05.195-.2.195h-.398c-.152 0-.2-.048-.2-.195V6.338c0-.148.048-.195.2-.195h1.308zm-.083 1.57c.288 0 .454-.156.454-.428s-.166-.438-.454-.438H15.4v.867h.628zM18.655 6.977c.728 0 1.09.333 1.09 1.005v1.21c0 .167-.04.219-.181.276-.196.086-.503.129-.923.129-.425 0-.713-.062-.875-.19-.16-.13-.244-.325-.244-.596 0-.586.318-.782 1.138-.782.127 0 .244.005.347.01v-.105c0-.233-.127-.353-.376-.353-.181 0-.313.058-.405.177-.084.11-.113.129-.25.076l-.268-.11c-.122-.052-.156-.133-.098-.252.181-.329.528-.495 1.045-.495zm.352 1.61c-.03 0-.093 0-.19-.005a4.5 4.5 0 00-.22-.005c-.259 0-.337.082-.337.229 0 .147.073.233.327.233.129.004.258-.003.386-.019.024-.005.034-.019.034-.033v-.4zM22.279 7.048c.131 0 .175.043.175.176v2.339c0 .662-.351 1.058-1.113 1.058-.508 0-.855-.148-1.045-.443-.083-.12-.059-.215.073-.281l.278-.139c.137-.07.2-.052.284.062.083.115.22.181.395.181.26 0 .39-.128.39-.385V9.42c-.15.026-.301.037-.453.034-.703 0-1.054-.33-1.054-.986V7.224c0-.133.044-.176.18-.176h.376c.137 0 .181.043.181.176v1.219c0 .238.137.357.415.357.12 0 .24-.011.357-.033V7.224c0-.133.044-.176.18-.176h.38zM24.456 6c.132 0 .175.043.175.176v.848c.151-.032.305-.048.46-.047.702 0 1.054.352 1.054.986v.595c0 .69-.381 1.038-1.148 1.038-.38 0-.688-.052-.923-.157-.156-.076-.18-.114-.18-.266V6.176c0-.133.043-.176.18-.176h.382zm.947 1.967c0-.233-.137-.348-.41-.348a1.347 1.347 0 00-.361.053v1.219c-.001.005 0 .01.002.014a.022.022 0 00.012.01c.102.027.207.04.313.037.297 0 .444-.133.444-.395v-.59zM28.646 7.048c.131 0 .175.043.175.176v2.339c0 .662-.351 1.058-1.113 1.058-.508 0-.854-.148-1.045-.443-.083-.12-.058-.215.073-.281l.279-.139c.136-.07.2-.052.283.062.083.115.22.181.395.181.26 0 .39-.128.39-.385V9.42c-.149.026-.301.037-.453.034-.703 0-1.054-.33-1.054-.986V7.224c0-.133.043-.176.18-.176h.376c.137 0 .18.043.18.176v1.219c0 .238.138.357.416.357.12 0 .239-.011.356-.033V7.224c0-.133.044-.176.181-.176h.38zM18.785 11.528c.727 0 1.089.333 1.089 1.005v1.21c0 .166-.04.219-.18.276-.196.086-.504.129-.924.129-.425 0-.713-.062-.874-.19-.161-.129-.244-.325-.244-.596 0-.586.317-.781 1.138-.781.127 0 .244.004.346.01v-.106c0-.233-.127-.352-.376-.352-.18 0-.312.057-.405.176-.083.11-.112.129-.249.076l-.269-.11c-.122-.052-.156-.133-.097-.252.18-.329.527-.495 1.045-.495zm.351 1.61c-.029 0-.092 0-.19-.005a4.589 4.589 0 00-.22-.005c-.258 0-.337.081-.337.229 0 .147.073.233.327.233.13.004.258-.003.386-.019.025-.004.034-.019.034-.033v-.4zM21.51 11.528c.702 0 1.054.329 1.054.986V13.9c0 .134-.044.176-.176.176h-.38c-.137 0-.181-.042-.181-.176v-1.362c0-.239-.137-.358-.416-.358a1.268 1.268 0 00-.341.043c-.01 0-.015.005-.015.02V13.9c0 .134-.044.176-.18.176h-.377c-.136 0-.18-.042-.18-.176v-1.925c0-.156.039-.214.195-.276.283-.114.615-.171.996-.171M25.298 13.862c.084.152.054.214-.121.214h-.338c-.21 0-.259-.024-.322-.162l-.259-.586c-.053-.128-.16-.19-.312-.19h-.171v.757c0 .139-.044.181-.186.181h-.366c-.141 0-.185-.042-.185-.18v-3.164c0-.138.044-.18.185-.18h.366c.142 0 .186.042.186.18V12.5h.132l.551-.757c.083-.128.137-.143.347-.143h.327c.18 0 .225.072.122.21l-.654.871c.098.067.19.182.273.343l.425.839zM27.554 11.528c.728 0 1.09.333 1.09 1.005v1.21c0 .166-.04.219-.181.276-.196.086-.503.129-.924.129-.424 0-.712-.062-.873-.19-.162-.129-.245-.325-.245-.596 0-.586.318-.781 1.138-.781.127 0 .244.004.347.01v-.106c0-.233-.127-.352-.376-.352-.18 0-.313.057-.405.176-.083.11-.113.129-.25.076l-.27-.11c-.122-.052-.156-.133-.097-.252.18-.329.527-.495 1.045-.495h.001zm.35 1.61c-.03 0-.092 0-.19-.005a4.593 4.593 0 00-.22-.005c-.259 0-.337.081-.337.229 0 .147.074.233.328.233.128.004.257-.003.385-.019.024-.004.034-.019.034-.033v-.4zM30.276 11.528c.718 0 1.064.352 1.064.986v.6c0 .672-.38 1.034-1.128 1.034a2.031 2.031 0 01-.386-.043v.843c0 .133-.044.176-.176.176h-.382c-.137 0-.18-.043-.18-.176v-2.996c0-.158.038-.215.195-.276.264-.1.595-.148.99-.148h.003zm.32.99c0-.233-.137-.348-.41-.348-.113 0-.226.01-.337.034a.031.031 0 00-.025.033v1.239c.109.017.218.027.328.028.298 0 .444-.128.444-.39v-.596zM32.935 11.528c.718 0 1.065.352 1.065.986v.6c0 .672-.381 1.034-1.129 1.034a2.028 2.028 0 01-.385-.043v.843c0 .133-.044.176-.176.176h-.381c-.137 0-.18-.043-.18-.176v-2.996c0-.158.039-.215.195-.276.264-.1.596-.148.991-.148zm.323.99c0-.233-.137-.348-.41-.348-.114 0-.227.01-.338.034a.032.032 0 00-.024.033v1.239c.108.017.218.026.327.027.298 0 .445-.128.445-.39v-.595zM16.172 10.691c.653 0 1.046.33 1.046.905 0 .32-.113.555-.339.709v.019c.313.129.471.407.471.823 0 .297-.108.527-.319.694-.211.168-.495.25-.839.25h-1.399c-.152 0-.2-.049-.2-.197v-3.006c0-.149.048-.197.2-.197h1.38zm-.122 1.34c.24 0 .358-.11.358-.325 0-.215-.117-.325-.358-.325h-.658v.65h.658zm.092.676h-.75v.694h.75c.245 0 .368-.114.368-.343 0-.234-.123-.349-.368-.349" fill="#130F10"/><path d="M10.998 11.01h-.748v1.312h.748V11.01z" fill="#FF5F00"/><path d="M10.298 11.666a.816.816 0 01.326-.655.867.867 0 00-.902-.095.848.848 0 00-.35.308.819.819 0 000 .885c.085.132.206.239.35.307a.874.874 0 00.902-.094.815.815 0 01-.327-.655z" fill="#EB001B"/><path d="M12.007 11.666a.82.82 0 01-.13.443.848.848 0 01-.35.308.873.873 0 01-.903-.095.838.838 0 00.327-.655.817.817 0 00-.327-.656.867.867 0 011.253.213c.085.133.13.286.13.443zm-.081.517v-.027h.01v-.005h-.027v.005h.01v.027h.007zm.055 0v-.032h-.009l-.01.022-.01-.022h-.008v.032h.006v-.024l.01.02h.006l.01-.02v.024h.005z" fill="#F79E1B"/><path d="M22.958 17.894v-.697c0-.262-.171-.438-.447-.44a.45.45 0 00-.4.197.426.426 0 00-.376-.197.385.385 0 00-.333.164v-.136h-.247v1.11h.25v-.616c0-.19.11-.294.278-.294.169 0 .247.104.247.292v.617h.25v-.615c0-.19.114-.294.278-.294.164 0 .25.104.25.292v.617h.25zm3.696-1.109h-.404v-.336H26v.336h-.23v.222H26v.506c0 .258.102.41.395.41.109.001.216-.029.309-.085l-.071-.207a.463.463 0 01-.22.063c-.123 0-.163-.074-.163-.186v-.501h.404v-.222zm2.108-.027a.342.342 0 00-.3.162v-.135h-.244v1.11h.247v-.621c0-.184.08-.286.242-.286a.41.41 0 01.157.028l.076-.228a.538.538 0 00-.176-.03h-.002zm-3.19.114a.867.867 0 00-.463-.114c-.288 0-.474.134-.474.355 0 .18.138.292.393.327l.117.016c.136.018.2.053.2.116 0 .085-.09.134-.26.134a.617.617 0 01-.377-.114l-.118.188a.835.835 0 00.493.141c.328 0 .518-.152.518-.362 0-.195-.15-.297-.397-.332l-.117-.016c-.107-.014-.193-.035-.193-.11 0-.08.081-.13.216-.13a.745.745 0 01.355.096l.108-.195zm6.627-.114a.342.342 0 00-.3.162v-.135h-.245v1.11h.248v-.621c0-.184.08-.286.242-.286a.41.41 0 01.157.028l.078-.228a.538.538 0 00-.176-.03h-.004zm-3.187.582c0 .336.24.582.606.582a.607.607 0 00.41-.132l-.12-.195a.509.509 0 01-.297.1c-.197-.003-.342-.142-.342-.355s.145-.353.342-.355a.506.506 0 01.297.1l.12-.195a.605.605 0 00-.41-.133c-.366 0-.606.246-.606.583zm2.316 0v-.555h-.247v.135a.43.43 0 00-.359-.163.562.562 0 00-.568.583c0 .339.25.581.57.581a.44.44 0 00.359-.163v.135h.247l-.002-.553zm-.92 0c0-.195.131-.355.345-.355.204 0 .342.152.342.355 0 .203-.137.355-.342.355-.214 0-.345-.16-.345-.355zm-2.983-.582c-.333 0-.566.236-.566.582 0 .352.243.582.583.582a.704.704 0 00.465-.153l-.12-.179a.552.552 0 01-.332.114c-.159 0-.304-.072-.34-.271h.845c.002-.03.005-.06.005-.093-.003-.346-.221-.582-.54-.582zm-.004.215c.159 0 .261.098.287.27h-.59c.026-.161.126-.27.302-.27zm6.205.367v-1h-.247v.58a.428.428 0 00-.36-.163.562.562 0 00-.568.583.56.56 0 00.568.581.438.438 0 00.359-.163v.135h.247l.001-.553zm.289.452c.01 0 .02.002.029.005a.077.077 0 01.039.038.07.07 0 010 .054.071.071 0 01-.016.023.076.076 0 01-.12-.023.066.066 0 010-.054.073.073 0 01.067-.043h.001zm0 .125a.053.053 0 00.022-.004.055.055 0 00.03-.03.056.056 0 000-.042.05.05 0 00-.013-.018.061.061 0 00-.017-.011.057.057 0 00-.074.03.054.054 0 000 .042.053.053 0 00.012.017.06.06 0 00.04.016zm.004-.088a.03.03 0 01.02.006.019.019 0 01.006.007.019.019 0 01.001.008.018.018 0 01-.005.013.028.028 0 01-.016.007l.022.025h-.017l-.02-.025h-.007v.025h-.015v-.066h.031zm-.016.012v.018h.016c.003 0 .007 0 .01-.002a.007.007 0 00.002-.003v-.004-.004a.008.008 0 00-.003-.002.017.017 0 00-.009-.003h-.016zm-1.198-.501c0-.195.131-.355.346-.355.204 0 .342.152.342.355 0 .203-.138.355-.342.355-.215 0-.346-.16-.346-.355zm-8.355 0v-.555h-.247v.135a.43.43 0 00-.359-.163.562.562 0 00-.569.583c0 .339.252.581.57.581a.44.44 0 00.36-.163v.135h.247l-.002-.553zm-.92 0c0-.195.13-.355.345-.355.204 0 .342.152.342.355 0 .203-.138.355-.342.355-.213 0-.344-.16-.344-.355z" fill="#1E1A1B"/></g></g><defs><clipPath id="pi-clip0_3703_502"><path fill="#fff" d="M0 0h38v24H0z"/></clipPath><clipPath id="pi-clip1_3703_502"><path fill="#fff" transform="translate(4 6)" d="M0 0h30v13H0z"/></clipPath></defs></svg>