<svg xmlns="http://www.w3.org/2000/svg" role="img" viewBox="0 0 38 24" width="38" height="24" aria-labelledby="pi-paycash"><title id="pi-paycash">PayCash</title><path fill="#000" opacity=".07" d="M35 0H3C1.3 0 0 1.3 0 3v18c0 1.7 1.4 3 3 3h32c1.7 0 3-1.3 3-3V3c0-1.7-1.4-3-3-3z"/><path fill="#fff" d="M35 1c1.1 0 2 .9 2 2v18c0 1.1-.9 2-2 2H3c-1.1 0-2-.9-2-2V3c0-1.1.9-2 2-2h32"/><path d="M5.995 8.422c.301 0 .58.029.833.086.254.058.473.155.657.288.185.134.329.312.432.536.104.224.157.5.157.83a1.938 1.938 0 01-.695 1.545c-.214.179-.461.317-.74.412a2.758 2.758 0 01-.888.145l-1.624.004-.444 2.144-1.307.002L3.6 8.427l2.395-.005zm-.308 2.819c.334-.001.598-.086.79-.257.191-.171.288-.437.286-.794a.773.773 0 00-.08-.373.571.571 0 00-.214-.225.927.927 0 00-.297-.112 1.66 1.66 0 00-.34-.033l-1.121.002-.364 1.796 1.34-.004zM8.274 10.712c.128-.182.283-.328.466-.439.184-.111.389-.191.616-.24.228-.047.464-.07.709-.072.195 0 .398.013.608.04.211.027.406.08.583.161.178.08.323.194.437.34.115.146.17.342.164.586 0 .205-.03.447-.09.725l-.378 1.734a1.477 1.477 0 00-.046.288 4.295 4.295 0 00-.011.296c0 .071.013.155.042.25l-1.186.002v-.425c-.162.184-.359.32-.592.406a2.08 2.08 0 01-.726.132 1.86 1.86 0 01-.613-.09 1.316 1.316 0 01-.438-.245.95.95 0 01-.26-.358 1.123 1.123 0 01-.084-.428c-.001-.417.142-.75.427-1 .286-.251.69-.408 1.214-.47.278-.034.52-.06.727-.077.205-.017.376-.044.513-.08a.64.64 0 00.304-.16c.067-.068.1-.172.1-.312 0-.111-.027-.2-.076-.266a.548.548 0 00-.187-.158.763.763 0 00-.243-.078 1.577 1.577 0 00-.246-.02c-.21 0-.4.052-.567.155a.673.673 0 00-.307.48l-1.108.004c.037-.273.12-.5.248-.681zm1.767 1.768c-.172.02-.345.035-.518.046-.111.011-.22.03-.325.055a.955.955 0 00-.28.113.577.577 0 00-.271.534c0 .16.066.282.197.361.132.08.284.12.456.12.183 0 .338-.03.463-.088a1.03 1.03 0 00.52-.538c.05-.117.091-.234.125-.35l.117-.418c-.15.091-.312.145-.484.165z" fill="#00609C"/><path d="M13.218 15.384a1.24 1.24 0 01-.35.28 1.376 1.376 0 01-.437.139 3.9 3.9 0 01-.887.022 7.308 7.308 0 00-.316-.023l.198-.988c.078 0 .156.008.237.025.08.017.16.025.238.025a.76.76 0 00.333-.063.693.693 0 00.204-.151.953.953 0 00.133-.187c.035-.066.073-.125.112-.174l-.778-4.26 1.216-.003.383 3.08h.016l1.485-3.085 1.25-.003-2.73 4.912c-.1.184-.202.334-.307.454z" fill="#00609C"/><path d="M20.213 9.727c-.194-.182-.446-.272-.756-.271-.327.001-.611.076-.854.227-.242.15-.44.343-.595.579-.155.237-.27.5-.345.79-.076.29-.113.574-.113.85.002.201.028.392.08.57.052.18.131.339.238.477.106.138.242.247.409.329.165.081.366.12.6.12a1.383 1.383 0 00.904-.348c.119-.106.22-.23.301-.37a1.35 1.35 0 00.162-.44l1.281-.004c-.13.407-.282.752-.458 1.035a2.711 2.711 0 01-.594.689 2.11 2.11 0 01-.732.384c-.268.08-.56.119-.876.12-.826.002-1.464-.216-1.913-.654-.45-.438-.675-1.072-.678-1.903a4.09 4.09 0 01.217-1.344c.146-.423.356-.797.629-1.12.274-.324.607-.58 1-.772.394-.19.836-.287 1.324-.288.337-.001.65.045.938.136a2.1 2.1 0 01.746.408c.21.181.372.405.488.674.114.269.17.58.165.932l-1.277.003c-.001-.358-.099-.629-.291-.81zM22.218 10.679c.127-.181.282-.328.465-.439.184-.11.39-.191.617-.239a3.53 3.53 0 01.708-.072c.195-.002.398.012.609.04.21.026.405.08.584.16.177.08.322.194.437.34.113.148.168.342.163.587 0 .205-.03.447-.09.726l-.378 1.732a1.397 1.397 0 00-.045.288 4.34 4.34 0 00-.012.296c0 .071.014.155.042.25l-1.185.002-.001-.425c-.161.183-.358.32-.592.406-.233.088-.475.13-.725.132a1.89 1.89 0 01-.613-.09 1.315 1.315 0 01-.439-.244.957.957 0 01-.26-.357 1.123 1.123 0 01-.083-.429c-.002-.417.141-.75.427-1 .285-.25.69-.407 1.214-.47.277-.034.52-.06.726-.077a3.02 3.02 0 00.514-.08.645.645 0 00.303-.159c.067-.069.1-.174.1-.313 0-.11-.025-.2-.076-.266a.55.55 0 00-.188-.158.792.792 0 00-.241-.078 1.574 1.574 0 00-.246-.02c-.211.001-.4.052-.567.155a.673.673 0 00-.307.48l-1.108.004c.036-.274.119-.5.247-.682zm1.766 1.768c-.172.02-.344.035-.518.046-.11.012-.22.03-.325.055a.952.952 0 00-.28.113.578.578 0 00-.196.205.65.65 0 00-.075.329c0 .16.066.282.198.361.131.08.283.12.455.12.184 0 .34-.03.464-.09a1.03 1.03 0 00.52-.537c.05-.117.09-.234.125-.35l.115-.418c-.148.091-.31.146-.483.166zM28.503 10.862c-.103-.102-.27-.153-.504-.153a1.223 1.223 0 00-.52.098.337.337 0 00-.204.33c0 .094.04.174.12.241.081.067.222.13.421.19l.592.19c.16.05.31.109.446.174.136.067.256.149.36.245a1.052 1.052 0 01.33.812c.002.266-.058.492-.177.678a1.432 1.432 0 01-.47.456c-.194.117-.413.2-.658.252-.245.05-.492.075-.742.075a3.211 3.211 0 01-.643-.064 1.931 1.931 0 01-.588-.219 1.286 1.286 0 01-.43-.407 1.135 1.135 0 01-.169-.636v-.174l1.092-.002v.14c0 .1.025.185.076.258.05.07.115.131.196.178a1.24 1.24 0 00.58.143c.088 0 .178-.01.266-.027a.769.769 0 00.242-.088.535.535 0 00.174-.159.423.423 0 00.066-.246c0-.15-.04-.255-.118-.316a1.056 1.056 0 00-.308-.157l-.909-.29a3.219 3.219 0 01-.396-.157 1.044 1.044 0 01-.292-.207.804.804 0 01-.183-.3 1.286 1.286 0 01-.064-.433c-.001-.255.059-.469.178-.641.119-.172.273-.313.462-.422a2.11 2.11 0 01.621-.234c.226-.048.44-.073.646-.073.233 0 .458.018.676.057.216.038.407.109.571.21.164.103.294.242.389.42.095.177.14.405.135.682l-1.1.003a.6.6 0 00-.164-.427zM31.943 8.359l-.44 2.154h.017a1.27 1.27 0 01.192-.201c.083-.073.184-.14.3-.203a2.003 2.003 0 01.94-.221c.844-.003 1.266.385 1.269 1.16 0 .044-.006.102-.016.172-.011.07-.024.141-.038.214-.013.072-.028.14-.041.205a2.835 2.835 0 00-.03.155l-.53 2.537-1.192.004.523-2.537c.01-.066.026-.156.045-.267.02-.111.03-.198.03-.26 0-.128-.062-.234-.182-.317a.676.676 0 00-.39-.125c-.178 0-.336.037-.473.106a1.16 1.16 0 00-.351.273c-.098.112-.178.24-.243.385a2.344 2.344 0 00-.146.445l-.48 2.301-1.183.003 1.226-5.98 1.193-.003zM35.624 13.657a.688.688 0 11-1.377 0 .688.688 0 011.377 0z" fill="#00CD68"/><path d="M35.508 13.657a.572.572 0 11-1.144 0 .572.572 0 011.144 0z" fill="#fff"/><path d="M34.636 13.667v-.37l.163.002c.163 0 .175 0 .216.005.062.008.1.024.134.058a.187.187 0 01.038.056c.014.03.02.05.02.081a.2.2 0 01-.056.138.223.223 0 01-.146.07h-.01l.018.009a.2.2 0 01.07.058c.027.031.053.069.097.14l.051.082.024.038.002.004h-.145l-.01-.017-.015-.028-.012-.022a1.496 1.496 0 00-.08-.137.27.27 0 00-.09-.096c-.023-.01-.045-.014-.104-.014h-.045v.312H34.64v-.369h-.003z" fill="#00CD68"/><path d="M34.958 13.618a.21.21 0 00.067-.018.068.068 0 00.023-.017c.02-.02.03-.04.03-.07.002-.015 0-.02-.002-.03a.1.1 0 00-.053-.067.148.148 0 00-.056-.015c-.013-.003-.036-.003-.114-.004h-.098v.224l.093-.002c.073.002.097 0 .11 0z" fill="#fff"/></svg>