<svg xmlns="http://www.w3.org/2000/svg" width="38" height="24" fill="none" aria-labelledby="pi-payco" role="img" viewBox="0 0 38 24"><title id="pi-payco">Payco</title><path fill="#fff" d="M0 0h38v24H0z"/><path fill="#E7231E" d="M5 9.78a.72.72 0 0 1 .72-.72h1.96c1.57 0 2.51.92 2.51 2.27v.02c0 1.51-1.18 2.3-2.65 2.3h-1.1v1.37a.72.72 0 0 1-.72.72.72.72 0 0 1-.72-.72zm2.59 2.59c.72 0 1.14-.44 1.14-1v-.02c0-.64-.45-1-1.17-1H6.44v2.01H7.6Zm2.37 2.38 2.3-5.17a.9.9 0 0 1 .84-.57h.08a.88.88 0 0 1 .84.57l2.29 5.17a.69.69 0 0 1-.61.99c-.34 0-.57-.2-.7-.5l-.44-1.04h-2.89l-.46 1.08a.7.7 0 0 1-.92.4.67.67 0 0 1-.42-.62.7.7 0 0 1 .1-.31Zm4.06-1.82-.9-2.17-.91 2.17zm3.89.21-2.12-2.87a.85.85 0 0 1-.18-.52.7.7 0 0 1 .72-.7c.33 0 .54.18.71.45l1.6 2.3 1.62-2.32c.18-.27.4-.43.7-.43a.67.67 0 0 1 .7.7.9.9 0 0 1-.19.5l-2.12 2.87v1.9a.72.72 0 0 1-1.44 0zm3.8-.73v-.02c0-1.87 1.4-3.39 3.41-3.39.99 0 1.65.27 2.2.67a.72.72 0 0 1 .23.84.7.7 0 0 1-.66.43.76.76 0 0 1-.43-.14c-.38-.3-.85-.46-1.34-.47-1.1 0-1.9.92-1.9 2.05v.02c0 1.12.78 2.06 1.9 2.06a2.1 2.1 0 0 0 1.42-.51.67.67 0 1 1 .86 1.02 3.3 3.3 0 0 1-2.33.82 3.31 3.31 0 0 1-3.37-3.38Zm6.31 0v-.02A3.39 3.39 0 0 1 31.52 9 3.36 3.36 0 0 1 35 12.38v.01c0 1.88-1.47 3.4-3.5 3.4a3.36 3.36 0 0 1-3.48-3.38m5.47 0v-.02a1.98 1.98 0 1 0-3.96-.01v.02a2 2 0 0 0 2 2.06c1.16 0 1.96-.92 1.96-2.05"/></svg>