<svg xmlns="http://www.w3.org/2000/svg" role="img" fill="none" width="38" height="24" viewBox="0 0 38 24" aria-labelledby="pi-payeverpaybybank"><title id="pi-payeverpaybybank">payever Pay by Bank</title><rect x=".5" y="1.949" width="37" height="20.103" rx="2.314" stroke="#1D1D1F"/><path d="M32.812 17.772a.587.587 0 00.43.174.579.579 0 00.424-.174.588.588 0 00.175-.43.588.588 0 00-.175-.431.579.579 0 00-.423-.175.587.587 0 00-.43.175.587.587 0 00-.175.43c0 .17.058.315.174.431zM29.876 17.828v-1.567l1.386 1.61a.067.067 0 00.051.024h1.136a.067.067 0 00.049-.113l-1.83-1.982 1.83-1.989a.067.067 0 00-.05-.112h-1.164a.067.067 0 00-.052.024l-1.356 1.634v-2.985a.067.067 0 00-.067-.067h-.84a.067.067 0 00-.067.067v5.456c0 .037.03.067.067.067h.84c.037 0 .067-.03.067-.067zM28.043 17.894c.037 0 .067-.03.067-.067v-2.396c0-.377-.073-.703-.222-.976a1.477 1.477 0 00-.625-.617 1.866 1.866 0 00-.886-.206c-.25 0-.487.048-.712.145h0a1.5 1.5 0 00-.43.282v-.294a.067.067 0 00-.067-.067h-.84a.067.067 0 00-.068.067v4.062c0 .037.03.067.067.067h.84c.038 0 .068-.03.068-.067v-2.27c0-.354.088-.612.254-.788.172-.18.404-.274.704-.274.3 0 .528.093.695.274h0c.167.176.255.434.255.787v2.271c0 .037.03.067.067.067h.833zM19.39 14.663h0a2.342 2.342 0 00-.26 1.116c0 .417.087.794.259 1.129h0v.001c.178.33.417.589.717.777h0c.302.184.633.276.994.276.324 0 .615-.066.872-.2.19-.099.352-.217.484-.355v.421c0 .037.03.067.067.067h.848c.037 0 .067-.03.067-.067v-4.062a.067.067 0 00-.067-.067h-.848a.067.067 0 00-.067.067v.41a1.807 1.807 0 00-.477-.344 1.79 1.79 0 00-.864-.2 1.94 1.94 0 00-1.725 1.03zm2.897.433h.001c.111.195.168.427.168.697 0 .271-.057.505-.168.705h0a1.123 1.123 0 01-1.999-.014 1.473 1.473 0 01-.161-.705c0-.271.054-.5.16-.69a1.12 1.12 0 01.432-.439h0a1.12 1.12 0 01.572-.153 1.12 1.12 0 01.995.599zM12.788 13.791a.067.067 0 00-.062-.092h-.87a.067.067 0 00-.062.043l-1.123 2.93-1.081-2.93a.067.067 0 00-.063-.043H8.59a.067.067 0 00-.062.091l1.59 3.971-.815 1.95a.067.067 0 00.061.093h.87a.067.067 0 00.062-.04l2.492-5.973zM8.195 16.908h0a2.43 2.43 0 00.258-1.13c0-.417-.085-.79-.258-1.115a1.876 1.876 0 00-1.718-1.03 1.875 1.875 0 00-1.349.552v-1.813a.067.067 0 00-.067-.067h-.84a.067.067 0 00-.067.067v5.456c0 .037.03.067.067.067h.84c.037 0 .067-.03.067-.067v-.407c.131.137.29.253.478.349h0c.257.128.547.191.87.191.366 0 .7-.091 1.002-.275h0c.305-.189.545-.448.717-.778zm-.9-1.82h0l.001.002c.111.19.168.418.168.688 0 .271-.057.505-.168.705h0v.001a1.149 1.149 0 01-.433.46 1.145 1.145 0 01-1.142 0 1.176 1.176 0 01-.432-.446 1.474 1.474 0 01-.16-.705c0-.27.054-.502.16-.697.113-.197.257-.345.432-.446a1.146 1.146 0 011.142 0h.002c.18.097.323.242.43.438zM18.465 16.908h0a2.43 2.43 0 00.258-1.13c0-.417-.085-.79-.258-1.115a1.876 1.876 0 00-1.718-1.03 1.875 1.875 0 00-1.349.551v-1.812a.067.067 0 00-.067-.067h-.84a.067.067 0 00-.067.067v5.456c0 .037.03.067.067.067h.84c.037 0 .067-.03.067-.067v-.407c.131.137.29.253.478.349h0c.257.128.547.191.87.191.367 0 .7-.091 1.002-.275h0c.305-.189.545-.448.717-.778zm-.9-1.82h0l.001.002c.111.189.168.418.168.688 0 .27-.057.505-.168.705h0a1.148 1.148 0 01-.433.461 1.146 1.146 0 01-1.142 0 1.174 1.174 0 01-.431-.446 1.473 1.473 0 01-.162-.705c0-.27.055-.502.161-.697.113-.197.257-.345.432-.447a1.146 1.146 0 011.143 0h0l.001.001c.18.097.323.242.43.438z" fill="#1D1D1F" stroke="#1D1D1F" stroke-width=".134" stroke-linejoin="round"/><mask id="pi-payeverpaybybank-path-9-outside-1_4997_193" maskUnits="userSpaceOnUse" x="3.221" y="4.696" width="15" height="7" fill="#000"><path fill="#fff" d="M3.221 4.696h15v7h-15z"/><path d="M4.873 6.569c.13-.18.284-.341.456-.48a1.738 1.738 0 012.323.139c.39.385.625.902.66 1.452.05.625-.107 1.193-.503 1.683a1.78 1.78 0 01-1.096.666c-.518.091-.983-.04-1.395-.364a2.096 2.096 0 01-.235-.22c-.072-.078-.135-.165-.207-.254l-.003.058v1.98c0 .178-.098.307-.259.343a.32.32 0 01-.36-.174.328.328 0 01-.033-.14v-5.24a.323.323 0 01.31-.32.313.313 0 01.227.074.319.319 0 01.11.215c.009.176.004.353.005.53v.052zm2.816 1.303c-.01-.473-.164-.896-.51-1.24a1.276 1.276 0 00-1.692-.114c-.413.32-.611.756-.638 1.272-.025.489.118.924.45 1.287a1.287 1.287 0 001.93.005c.313-.337.451-.744.46-1.21zM12.393 6.57V6.52v-.485a.332.332 0 01.198-.311.323.323 0 01.43.18c.016.04.024.084.024.128V9.7a.33.33 0 01-.2.307.322.322 0 01-.358-.073.328.328 0 01-.094-.235v-.498l-.01-.004-.042.056c-.258.36-.588.624-1.016.741-.625.172-1.181.023-1.661-.407-.381-.342-.6-.779-.685-1.281A2.377 2.377 0 019.196 6.8c.231-.459.573-.808 1.06-.985.637-.23 1.218-.106 1.74.321.141.118.265.256.367.41.006.01.013.018.02.026l.01-.002zm.028 1.311c-.01-.475-.16-.895-.5-1.237a1.28 1.28 0 00-1.805-.039 1.658 1.658 0 00-.527 1.093c-.05.511.08.971.42 1.36.517.595 1.369.622 1.92.063.338-.342.483-.762.492-1.24zM15.602 8.825l.159-.355 1.142-2.557c.083-.186.27-.262.442-.184a.324.324 0 01.19.313.33.33 0 01-.03.125l-.47 1.051-1.82 4.078c-.048.11-.118.193-.237.221a.323.323 0 01-.33-.11.33.33 0 01-.045-.346c.125-.283.252-.565.378-.847.08-.18.16-.361.243-.541a.102.102 0 00-.001-.093l-1.52-3.4c-.07-.16-.036-.32.091-.417a.325.325 0 01.498.134c.151.335.3.67.45 1.006l.835 1.87.025.052z"/></mask><path d="M4.873 6.569c.13-.18.284-.341.456-.48a1.738 1.738 0 012.323.139c.39.385.625.902.66 1.452.05.625-.107 1.193-.503 1.683a1.78 1.78 0 01-1.096.666c-.518.091-.983-.04-1.395-.364a2.096 2.096 0 01-.235-.22c-.072-.078-.135-.165-.207-.254l-.003.058v1.98c0 .178-.098.307-.259.343a.32.32 0 01-.36-.174.328.328 0 01-.033-.14v-5.24a.323.323 0 01.31-.32.313.313 0 01.227.074.319.319 0 01.11.215c.009.176.004.353.005.53v.052zm2.816 1.303c-.01-.473-.164-.896-.51-1.24a1.276 1.276 0 00-1.692-.114c-.413.32-.611.756-.638 1.272-.025.489.118.924.45 1.287a1.287 1.287 0 001.93.005c.313-.337.451-.744.46-1.21zM12.393 6.57V6.52v-.485a.332.332 0 01.198-.311.323.323 0 01.43.18c.016.04.024.084.024.128V9.7a.33.33 0 01-.2.307.322.322 0 01-.358-.073.328.328 0 01-.094-.235v-.498l-.01-.004-.042.056c-.258.36-.588.624-1.016.741-.625.172-1.181.023-1.661-.407-.381-.342-.6-.779-.685-1.281A2.377 2.377 0 019.196 6.8c.231-.459.573-.808 1.06-.985.637-.23 1.218-.106 1.74.321.141.118.265.256.367.41.006.01.013.018.02.026l.01-.002zm.028 1.311c-.01-.475-.16-.895-.5-1.237a1.28 1.28 0 00-1.805-.039 1.658 1.658 0 00-.527 1.093c-.05.511.08.971.42 1.36.517.595 1.369.622 1.92.063.338-.342.483-.762.492-1.24zM15.602 8.825l.159-.355 1.142-2.557c.083-.186.27-.262.442-.184a.324.324 0 01.19.313.33.33 0 01-.03.125l-.47 1.051-1.82 4.078c-.048.11-.118.193-.237.221a.323.323 0 01-.33-.11.33.33 0 01-.045-.346c.125-.283.252-.565.378-.847.08-.18.16-.361.243-.541a.102.102 0 00-.001-.093l-1.52-3.4c-.07-.16-.036-.32.091-.417a.325.325 0 01.498.134c.151.335.3.67.45 1.006l.835 1.87.025.052z" fill="#1D1D1F"/><path d="M4.873 6.569h-.08a.08.08 0 00.145.047l-.065-.047zm.456-.48l-.05-.063.05.062zm2.323.139l-.057.056.057-.056zm.66 1.452l-.08.005v.001l.08-.006zM7.81 9.363l-.062-.05.062.05zm-1.096.666l.014.079-.014-.08zm-1.395-.364l-.05.063.05-.063zm-.235-.22l.06-.055h-.001l-.06.054zm-.207-.254l.062-.05c-.02-.026-.055-.036-.087-.026a.08.08 0 00-.056.072l.08.004zm-.003.058h.08-.08zm0 1.98h.08-.08zm-.259.343l-.017-.078.017.078zm-.393-.314h-.08.08zm0-5.24h-.08.08zm.31-.32l.002.08h.003l-.006-.08zm.336.289l.08-.005V5.98l-.08.007zm.006.53h-.08.08zm2.816 1.355l.08.001V7.87l-.08.002zm-.51-1.24l-.057.056.057-.057zm-1.692-.114l.05.064-.05-.064zM4.85 7.79l-.08-.004.08.004zm.45 1.287l-.06.055h.001l.06-.055zm1.93.005l.059.055-.06-.055zm5.164-2.511l.02.078a.08.08 0 00.06-.078h-.08zm0-.537h.08v-.002l-.08.002zm.652-.003l-.08-.002v.002h.08zm0 3.67h-.08.08zm-.652 0h.08V9.7h-.08zm0-.446h-.08.08zm0-.053h.08a.08.08 0 00-.05-.074l-.03.074zm-.01-.004l.03-.075a.08.08 0 00-.094.027l.064.048zm-.042.056l-.066-.047.066.047zm-1.016.741l-.021-.077.021.077zm-1.661-.407l-.054.06.054-.06zm-.685-1.281l.08-.014v-.001l-.08.015zM9.196 6.8l.071.036-.071-.036zm1.06-.985l.027.076-.027-.076zm1.74.321l.051-.062-.051.062zm.367.41l-.067.045.067-.045zm.02.026l-.066.048a.08.08 0 00.085.03l-.02-.078zm.039 1.308l.08.002V7.88l-.08.001zm-.5-1.237l-.058.056.058-.056zm-1.806-.039l.054.06.001-.002-.055-.058zm-.527 1.093l.08.007v-.001l-.08-.006zm.42 1.36l.06-.052-.06.053zm1.92.063l-.057-.057.058.057zm3.673-.296l-.073.034a.08.08 0 00.146-.002l-.073-.032zm.159-.355l-.074-.033.074.033zm1.142-2.557l-.073-.033.073.033zm.442-.184l-.034.073.034-.073zm.16.438l-.073-.034v.001l.073.033zm-.47 1.051l-.073-.033.073.033zm-1.82 4.078l-.073-.032.074.032zm-.237.221l-.018-.078h-.001l.02.078zm-.375-.456l.074.033-.074-.033zm.378-.847l-.073-.033.073.033zm.243-.541l-.072-.036-.001.002.073.034zm-.001-.093l-.074.033.003.004.071-.037zm-1.52-3.4l.074-.032-.073.032zm.091-.417l.05.064-.05-.064zm.498.134l-.074.031.001.002.074-.033zm.45 1.006l-.074.033.074-.033zm.835 1.87l.074-.032-.074.032zM4.937 6.616c.127-.174.276-.33.442-.465l-.1-.125c-.178.144-.337.31-.471.496l.13.094zm.442-.465a1.657 1.657 0 011.133-.36l.01-.16a1.818 1.818 0 00-1.243.395l.1.125zm1.133-.36c.409.025.794.2 1.083.493l.115-.113a1.822 1.822 0 00-1.188-.54l-.01.16zm1.084.494c.376.371.602.87.636 1.4l.16-.01A2.322 2.322 0 007.71 6.17l-.113.115zm.636 1.401c.048.607-.103 1.154-.485 1.626l.125.101c.41-.507.571-1.096.52-1.74l-.16.013zm-.485 1.626a1.7 1.7 0 01-1.048.637l.028.159a1.86 1.86 0 001.145-.695l-.125-.1zm-1.048.637c-.494.088-.936-.036-1.331-.347l-.1.127c.43.336.917.475 1.459.379l-.028-.159zm-1.33-.346a2.016 2.016 0 01-.227-.213l-.119.109c.076.082.158.159.245.23l.1-.126zm-.227-.213c-.07-.075-.128-.156-.204-.25l-.125.102c.069.085.136.177.211.257l.118-.11zm-.347-.203c0 .016-.003.04-.003.062h.161l.003-.053-.16-.009zm-.003.062v1.98h.161v-1.98h-.16zm0 1.98c0 .144-.075.237-.195.265l.035.156c.201-.045.32-.21.321-.421h-.16zm-.196.265a.24.24 0 01-.106 0l-.036.156a.4.4 0 00.178 0l-.035-.156zm-.106 0a.241.241 0 01-.096-.047l-.1.126a.402.402 0 00.16.077l.036-.157zm-.096-.047a.244.244 0 01-.068-.084l-.144.07a.405.405 0 00.111.14l.1-.126zm-.068-.084a.247.247 0 01-.024-.106l-.161.002c0 .06.014.12.04.174l.145-.07zm-.024-.105v-5.24H4.14v5.24h.16zm0-5.24c0-.063.024-.123.067-.168l-.116-.111a.404.404 0 00-.112.279h.16zm.067-.168a.237.237 0 01.164-.073l-.005-.16a.398.398 0 00-.275.122l.116.111zm.167-.073a.233.233 0 01.17.056l.104-.122a.394.394 0 00-.286-.094l.012.16zm.17.056c.046.04.076.098.081.16l.16-.013a.4.4 0 00-.137-.269l-.105.122zm.081.158c.01.174.004.345.005.526l.161-.001c-.001-.173.004-.355-.005-.534l-.16.01zm.005.526v.052h.161v-.053l-.16.001zM7.77 7.87c-.01-.49-.17-.934-.533-1.296l-.113.114c.329.328.475.73.486 1.186l.16-.004zm-.532-1.295a1.356 1.356 0 00-.877-.404l-.01.161c.291.02.566.146.772.356l.115-.113zm-.877-.404a1.354 1.354 0 00-.922.284l.099.127c.231-.18.52-.27.812-.25l.01-.16zm-.922.284c-.434.335-.642.794-.67 1.331l.161.008c.026-.496.215-.909.607-1.212l-.098-.127zm-.67 1.331c-.025.509.124.966.472 1.346l.119-.109a1.625 1.625 0 01-.43-1.229l-.16-.008zm.472 1.346a1.367 1.367 0 002.048.005l-.118-.11c-.507.545-1.31.543-1.811-.004l-.119.109zm2.048.005c.329-.354.472-.78.481-1.264l-.16-.003c-.009.45-.141.837-.44 1.157l.119.11zm5.186-2.566v-.052h-.161v.052h.16zm0-.052v-.485h-.161v.485h.16zm0-.487a.25.25 0 01.016-.097l-.15-.058a.412.412 0 00-.027.159l.16-.004zm.016-.097a.251.251 0 01.053-.083l-.116-.112a.41.41 0 00-.087.137l.15.058zm.053-.083a.246.246 0 01.08-.056l-.063-.147a.406.406 0 00-.133.091l.116.112zm.08-.056a.243.243 0 01.095-.02v-.16a.404.404 0 00-.159.033l.064.147zm.095-.02c.032 0 .065.007.095.02l.062-.149a.404.404 0 00-.158-.031v.16zm.095.02c.03.012.057.03.08.054l.115-.112a.405.405 0 00-.133-.09l-.062.148zm.08.054a.248.248 0 01.054.083l.15-.06a.41.41 0 00-.089-.135l-.115.112zm.054.083a.25.25 0 01.017.096l.161.003a.414.414 0 00-.029-.159l-.15.06zm.017.098V9.7h.161V6.03h-.16zm0 3.67a.251.251 0 01-.018.096l.15.06c.02-.05.03-.104.029-.158l-.16.002zm-.018.096a.25.25 0 01-.053.082l.115.112a.41.41 0 00.088-.134l-.15-.06zm-.053.082a.246.246 0 01-.08.054l.063.149a.405.405 0 00.132-.09l-.115-.113zm-.08.054a.243.243 0 01-.094.02v.16c.054 0 .107-.01.157-.031l-.063-.149zm-.094.02a.243.243 0 01-.094-.02l-.063.149c.05.02.103.031.157.031v-.16zm-.094-.02a.245.245 0 01-.08-.054l-.115.113c.037.038.083.069.132.09l.063-.148zm-.08-.054a.248.248 0 01-.053-.082l-.15.06c.02.05.05.096.088.135l.115-.113zm-.053-.082a.251.251 0 01-.018-.096l-.161-.002c0 .054.01.108.03.158l.149-.06zm-.018-.097v-.445h-.161v.446l.16-.001zm0-.445v-.053h-.161v.053h.16zm-.05-.127l-.01-.005-.062.15.01.003.062-.148zm-.105.022c-.013.017-.03.037-.044.057l.131.094.041-.055-.128-.096zm-.044.057c-.25.348-.565.599-.971.71l.043.156c.449-.124.793-.401 1.06-.772l-.132-.094zm-.971.71c-.597.165-1.126.024-1.587-.39l-.107.12c.499.448 1.083.605 1.737.426l-.043-.155zm-1.587-.39c-.365-.327-.576-.747-.659-1.234L8.9 8.32c.088.518.314.973.71 1.328l.107-.12zm-.659-1.235a2.297 2.297 0 01.21-1.455l-.144-.072A2.458 2.458 0 008.9 8.32l.158-.03zm.21-1.455c.224-.444.551-.777 1.015-.945l-.055-.151c-.51.184-.865.55-1.104 1.024l.143.072zm1.015-.945c.608-.22 1.16-.103 1.662.307l.102-.124c-.542-.444-1.152-.576-1.819-.334l.055.15zm1.661.307c.135.113.254.245.352.393l.134-.09a2.006 2.006 0 00-.383-.427l-.103.124zm.353.394l.02.028.13-.095-.017-.024-.133.09zm.105.058l.01-.002-.038-.156-.011.002.039.156zm.1 1.229c-.012-.493-.167-.934-.523-1.293l-.114.113c.323.326.465.725.476 1.183l.161-.003zm-.522-1.292c-.25-.26-.592-.41-.952-.418l-.003.161a1.2 1.2 0 01.839.369l.116-.112zm-.952-.418a1.36 1.36 0 00-.968.377l.111.116a1.2 1.2 0 01.854-.332l.003-.16zm-.967.376c-.322.297-.52.707-.553 1.146l.16.012c.031-.399.21-.77.502-1.04l-.109-.118zM9.51 7.69c-.051.531.084 1.014.439 1.422l.121-.106c-.323-.372-.447-.81-.4-1.3l-.16-.016zm.439 1.422c.548.629 1.454.658 2.039.065l-.115-.113c-.518.526-1.316.5-1.803-.058l-.121.106zm2.039.065c.354-.358.505-.8.515-1.294l-.16-.003c-.01.46-.15.86-.47 1.184l.115.113zm3.688-.32l.16-.354-.148-.066-.159.355.147.065zm.16-.354l1.141-2.558-.146-.065-1.143 2.557.147.066zm1.141-2.558c.067-.149.208-.2.335-.143l.067-.146c-.217-.1-.45.002-.549.224l.147.065zm.335-.143c.03.014.056.033.078.057l.119-.11a.405.405 0 00-.13-.093l-.067.146zm.078.057c.023.024.04.052.051.083l.151-.055a.408.408 0 00-.083-.137l-.119.109zm.051.083c.011.03.016.063.015.096l.16.007a.41.41 0 00-.024-.158l-.151.055zm.015.096a.25.25 0 01-.023.095l.146.068a.41.41 0 00.038-.156l-.161-.007zm-.024.096c-.156.351-.312.701-.47 1.051l.147.066c.158-.35.314-.7.47-1.051l-.147-.066zm-.47 1.052a9799.23 9799.23 0 00-1.819 4.078l.147.065 1.82-4.078-.147-.065zm-1.819 4.078c-.043.097-.097.155-.182.175l.037.156c.152-.036.238-.143.292-.266l-.147-.065zm-.183.175a.244.244 0 01-.136-.005l-.05.153c.072.024.15.027.225.008l-.04-.156zm-.136-.005a.246.246 0 01-.112-.077l-.124.102c.048.059.113.103.185.128l.051-.153zm-.112-.077a.25.25 0 01-.055-.127l-.16.021c.01.076.042.148.09.208l.125-.102zm-.055-.127a.251.251 0 01.02-.136l-.146-.066a.412.412 0 00-.033.223l.16-.02zm.02-.137l.378-.846-.146-.066c-.126.282-.253.564-.378.847l.147.065zm.378-.846c.081-.181.16-.361.243-.54l-.146-.068c-.083.18-.163.362-.243.542l.146.066zm.242-.538a.182.182 0 00.02-.084l-.162.002c0 .004 0 .007-.002.01l.144.072zm.02-.084a.181.181 0 00-.022-.083l-.142.075a.022.022 0 01.003.01l.16-.002zm-.02-.078l-1.519-3.4-.146.066c.505 1.134 1.012 2.267 1.519 3.4l.146-.066zm-1.519-3.4c-.058-.13-.027-.249.066-.32l-.098-.128c-.16.123-.2.325-.114.514l.146-.065zm.066-.32a.245.245 0 01.101-.046l-.031-.158a.405.405 0 00-.168.076l.098.128zm.101-.046a.243.243 0 01.111.004l.042-.156a.404.404 0 00-.184-.006l.031.158zm.111.004c.036.01.07.027.098.052l.106-.12a.407.407 0 00-.162-.088l-.042.156zm.098.052c.028.025.05.056.065.091l.149-.062a.41.41 0 00-.108-.15l-.106.121zm.066.093l.45 1.006.146-.066c-.15-.335-.298-.67-.45-1.006l-.146.066zm.45 1.006l.835 1.87.147-.065-.836-1.87-.147.065zm.835 1.87l.025.053.145-.07-.023-.048-.147.065z" fill="#1D1D1F" mask="url(#path-9-outside-1_4997_193)"/><path d="M33.78 6.069a.967.967 0 01-.094.143c-.077.083-.182.085-.286.081-.506-.018-.904.187-1.197.599-.189.264-.29.582-.29.908-.005.643-.003 1.286-.004 1.93 0 .196-.112.306-.307.31-.113.002-.22-.014-.284-.117a.332.332 0 01-.055-.166c-.003-1.26-.004-2.52-.002-3.78a.274.274 0 01.267-.28h.114a.271.271 0 01.249.178c.013.034.019.07.018.106v.655l.003.063c.018-.028.028-.043.037-.06.203-.35.475-.625.846-.793.223-.1.465-.147.709-.136a.28.28 0 01.255.185l.02.044v.13zM27.09 8.137c.024.156.073.307.144.447.212.414.533.696.99.798.32.072.635.023.942-.08.187-.057.358-.16.497-.299.077-.08.168-.11.27-.068a.282.282 0 01.179.208.287.287 0 01-.08.264 1.9 1.9 0 01-.821.481c-.349.116-.718.15-1.082.102a1.935 1.935 0 01-1.072-.52 2.14 2.14 0 01-.697-1.704c.03-.781.373-1.397 1.038-1.808a1.976 1.976 0 012.437.302c.444.448.652.992.65 1.622a.263.263 0 01-.077.179.258.258 0 01-.178.076H27.09zm2.806-.533a1.711 1.711 0 00-.246-.684c-.33-.526-.927-.77-1.506-.599-.499.147-.818.49-.991.976-.035.098-.054.2-.082.307h2.825zM18.552 8.137c.095.574.516 1.113 1.135 1.247.285.061.565.027.842-.05a1.352 1.352 0 00.593-.327.229.229 0 01.255-.078.283.283 0 01.195.208.288.288 0 01-.082.274 1.869 1.869 0 01-.772.462c-.4.133-.81.186-1.226.099-.638-.134-1.108-.504-1.414-1.077a2.235 2.235 0 01.254-2.485c.42-.5.96-.76 1.612-.736.735.027 1.293.382 1.682 1.006.214.347.325.75.319 1.159-.001.15-.058.245-.178.283a.363.363 0 01-.107.014l-3.04.001h-.068zm-.01-.533h2.813v-.028a1.643 1.643 0 00-.317-.76c-.319-.41-.736-.602-1.251-.533-.704.094-1.166.704-1.244 1.32zM24.192 8.825l.241-.541 1.063-2.38a.329.329 0 01.323-.206.325.325 0 01.295.245.337.337 0 01-.023.229l-1.21 2.713c-.123.274-.247.548-.368.824-.063.142-.168.223-.322.223-.154.001-.26-.08-.323-.221-.523-1.175-1.048-2.349-1.572-3.523-.097-.217.002-.436.22-.484a.323.323 0 01.368.196l.516 1.156.768 1.72.024.049z" fill="#1D1D1F" fill-opacity=".2"/><path d="M33.82 6.069a.04.04 0 01-.005.019c-.028.052-.06.102-.097.149l-.002.002h0c-.091.098-.215.098-.317.094-.493-.017-.878.181-1.163.582h0a1.519 1.519 0 00-.282.885h0a171.86 171.86 0 00-.005 1.93c0 .105-.03.193-.092.255a.356.356 0 01-.255.095c-.115.002-.24-.014-.318-.135M33.82 6.07l-2.596 3.688v.002c.003.067.024.13.061.186M33.82 6.07v-.13a.04.04 0 00-.003-.017l-.007-.014-.013-.028.023.189zm-2.535 3.876s0 0 0 0l.034-.022m-.034.022s0 0 0 0l.034-.022m0 0a.332.332 0 01-.055-.166l2.423-3.545c-.077.083-.182.085-.286.081-.506-.018-.904.187-1.197.599-.189.264-.29.582-.29.908-.003.46-.003.92-.004 1.381v.548c0 .197-.112.308-.307.31-.113.002-.22-.013-.284-.116zm-2.164-.66h0c.181-.055.346-.154.48-.288a.314.314 0 01.144-.09.262.262 0 01.17.013.322.322 0 01.203.237.327.327 0 01-.09.3 1.939 1.939 0 01-.838.492c-.354.117-.73.152-1.099.103h0a1.975 1.975 0 01-1.095-.53 2.18 2.18 0 01-.709-1.735c.031-.795.38-1.423 1.057-1.842h0a2.016 2.016 0 012.487.309c.451.456.664 1.01.661 1.65h0a.303.303 0 01-.293.295m-1.078 1.086l1.077-1.086s0 0 0 0m-1.077 1.086h-.001c-.303.103-.61.15-.92.08-.444-.1-.756-.372-.963-.777m1.884.697l-1.884-.697m2.962-.389H27.137m3.095 0h-3.095m0 0c.026.135.07.266.133.389m-.133-.389l.133.389m-6.75.728h0a1.312 1.312 0 00.572-.313.269.269 0 01.297-.09.324.324 0 01.222.237.33.33 0 01-.093.312 1.91 1.91 0 01-.788.472c-.405.134-.821.188-1.246.1-.65-.137-1.13-.515-1.442-1.099a2.276 2.276 0 01.259-2.529h0c.427-.509.98-.774 1.644-.75.75.027 1.32.39 1.715 1.025h0c.218.354.331.763.325 1.18m-1.466 1.455l1.14-1.117s0 0 0 0m-1.14 1.117h0c-.274.077-.547.11-.823.05-.584-.126-.989-.624-1.096-1.167m1.92 1.117L18.6 8.177m3.385-.338c0 .08-.016.15-.05.205a.272.272 0 01-.156.116h0a.403.403 0 01-.12.017m.326-.338s0 0 0 0h-.04.04s0 0 0 0zm-.325.338h-3.04s0 0 0 0h-.02m3.06 0H18.6m12.926-2.52a.314.314 0 00-.305.321s0 0 0 0l.305-.32zm.423.751v-.426l1.71-.219a.28.28 0 00-.155-.053l.002-.04s0 0 0 0a1.58 1.58 0 00-.727.14 1.873 1.873 0 00-.83.751v-.153zm-2.058 1.156h-.041l.006.04h.04a1.802 1.802 0 00-.005-.04zm-2.768 0h-.042l.032.04.01-.04zm-.97-1.63h0a.37.37 0 00-.331-.276.364.364 0 00-.363.23l-1.063 2.38-.206.46-.753-1.688-.516-1.156a.367.367 0 00-.413-.22h0a.36.36 0 00-.257.202.41.41 0 00.008.338h0c.525 1.174 1.049 2.349 1.572 3.523.034.076.08.138.141.18a.369.369 0 00.22.066.37.37 0 00.218-.067.43.43 0 00.14-.181l.263-.593.104-.231h0l1.21-2.712a.378.378 0 00.026-.256zm-4.84 1.63h-2.724c.092-.587.538-1.152 1.203-1.241.5-.067.903.119 1.214.517.16.212.266.46.307.724z" stroke="#1D1D1F" stroke-opacity=".2" stroke-width=".08" stroke-linejoin="round"/></svg>
