<svg xmlns="http://www.w3.org/2000/svg" width="38" height="24" fill="none" role="img" aria-labelledby="pi-payeverpaybybank"><title id="pi-payeverpaybybank">payever Pay by Bank</title><path fill="#fff" stroke="#000" stroke-opacity=".07" d="M35.186 1.95H2.814A2.314 2.314 0 00.5 4.262v15.475a2.314 2.314 0 002.314 2.314h32.372a2.314 2.314 0 002.314-2.314V4.263a2.314 2.314 0 00-2.314-2.314z"/><path fill="#1D1D1F" stroke="#1D1D1F" stroke-linejoin="round" stroke-width=".134" d="M32.812 17.772a.59.59 0 00.43.174.58.58 0 00.424-.174.6.6 0 00.175-.43.6.6 0 00-.175-.43.58.58 0 00-.423-.176.59.59 0 00-.43.175.59.59 0 00-.175.43q0 .256.174.431zm-2.936.056v-1.567l1.386 1.61a.07.07 0 00.051.024h1.136a.067.067 0 00.066-.079.1.1 0 00-.017-.034l-1.83-1.982 1.83-1.989a.07.07 0 00.012-.072.07.07 0 00-.062-.04h-1.164a.07.07 0 00-.052.024l-1.356 1.634v-2.985a.067.067 0 00-.067-.067h-.84a.067.067 0 00-.067.067v5.456c0 .037.03.067.067.067h.84c.037 0 .067-.03.067-.067zm-1.833.066c.037 0 .067-.03.067-.067v-2.396q0-.566-.222-.976a1.48 1.48 0 00-.625-.617 1.87 1.87 0 00-.886-.206q-.375 0-.712.145a1.5 1.5 0 00-.43.282v-.294a.067.067 0 00-.067-.067h-.84a.07.07 0 00-.048.02.068.068 0 00-.02.048v4.061c0 .037.03.067.067.067h.84c.038 0 .068-.03.068-.067v-2.27c0-.354.088-.612.254-.788.172-.18.404-.274.704-.274s.528.093.695.274c.167.176.255.434.255.787v2.271c0 .037.03.067.067.067zm-8.653-3.23a2.34 2.34 0 00-.26 1.115q0 .626.26 1.13.266.496.716.777.453.276.994.276a1.86 1.86 0 001.356-.555v.421c0 .037.03.067.067.067h.848c.037 0 .067-.03.067-.067v-4.062a.067.067 0 00-.067-.067h-.848a.067.067 0 00-.067.067v.41q-.21-.211-.477-.344a1.8 1.8 0 00-.864-.2 1.94 1.94 0 00-1.725 1.03zm2.897.432q.168.292.17.697-.001.406-.169.705a1.124 1.124 0 01-1.999-.014 1.5 1.5 0 01-.16-.705q0-.405.16-.69c.1-.184.249-.336.431-.439.174-.101.371-.154.572-.153a1.12 1.12 0 01.995.6zm-9.499-1.305a.07.07 0 00-.007-.062.07.07 0 00-.055-.03h-.87a.07.07 0 00-.062.043l-1.123 2.93-1.08-2.93a.07.07 0 00-.064-.043H8.59a.067.067 0 00-.062.091l1.59 3.971-.815 1.95a.067.067 0 00.061.093h.87a.07.07 0 00.062-.04zm-4.593 3.117a2.4 2.4 0 00.258-1.13q0-.626-.258-1.115a1.88 1.88 0 00-1.718-1.03 1.88 1.88 0 00-1.349.552v-1.813a.07.07 0 00-.041-.062.1.1 0 00-.026-.005h-.84a.07.07 0 00-.062.042.1.1 0 00-.005.025v5.456c0 .037.03.067.067.067h.84c.037 0 .067-.03.067-.067v-.407q.196.205.478.35.385.19.87.19.549.001 1.002-.275.458-.283.717-.778zm-.9-1.82l.001.002q.167.284.168.688 0 .406-.168.705a1.144 1.144 0 01-.433.461 1.15 1.15 0 01-1.142 0 1.2 1.2 0 01-.432-.446 1.5 1.5 0 01-.16-.705q0-.405.16-.697.17-.295.432-.446a1.15 1.15 0 011.142 0h.002q.27.145.43.438zm11.17 1.82a2.42 2.42 0 00.258-1.13q0-.626-.258-1.115a1.88 1.88 0 00-1.718-1.03 1.87 1.87 0 00-1.349.551v-1.812a.067.067 0 00-.067-.067h-.84a.067.067 0 00-.067.067v5.456c0 .037.03.067.067.067h.84c.037 0 .067-.03.067-.067v-.407q.196.205.478.35.385.19.87.19.55.001 1.002-.275.458-.283.717-.778zm-.9-1.82l.001.002q.167.284.168.688 0 .405-.168.705a1.144 1.144 0 01-.433.461 1.15 1.15 0 01-1.142 0 1.2 1.2 0 01-.43-.446 1.5 1.5 0 01-.163-.705q.001-.405.161-.697.17-.295.432-.447a1.15 1.15 0 011.143 0l.001.001q.27.145.43.438z"/><path fill="#1D1D1F" d="M4.873 6.569a2.5 2.5 0 01.456-.48 1.74 1.74 0 012.323.139c.39.385.625.902.66 1.452.05.625-.107 1.193-.503 1.683-.27.35-.66.588-1.096.666-.518.09-.983-.04-1.395-.364a2 2 0 01-.235-.22c-.072-.078-.135-.165-.207-.254l-.003.058v1.98c0 .178-.098.307-.26.343a.32.32 0 01-.36-.174.3.3 0 01-.032-.14v-5.24a.323.323 0 01.31-.32.313.313 0 01.337.289c.009.176.004.353.005.53zm2.816 1.303c-.01-.473-.164-.896-.51-1.24a1.276 1.276 0 00-1.692-.114c-.413.32-.611.756-.638 1.272-.025.489.118.924.45 1.287a1.287 1.287 0 001.93.005c.313-.337.45-.744.46-1.21m4.704-1.302v-.535a.33.33 0 01.198-.311.324.324 0 01.43.18q.024.061.024.128V9.7a.33.33 0 01-.39.326.32.32 0 01-.239-.2.3.3 0 01-.023-.127V9.2l-.01-.004-.042.056c-.258.36-.588.624-1.016.74-.625.173-1.181.024-1.661-.406a2.15 2.15 0 01-.685-1.281A2.38 2.38 0 019.196 6.8c.23-.46.573-.808 1.06-.985.637-.23 1.218-.106 1.74.32q.212.18.367.41l.02.027zm.028 1.31c-.01-.474-.16-.894-.5-1.236a1.28 1.28 0 00-1.805-.04 1.66 1.66 0 00-.527 1.094c-.05.51.08.97.42 1.36a1.282 1.282 0 001.92.063c.338-.342.483-.762.492-1.24m3.18.945l.16-.355 1.142-2.557c.083-.186.27-.262.442-.184a.32.32 0 01.19.313.3.3 0 01-.03.125l-.47 1.05-1.82 4.079c-.048.11-.118.193-.237.22a.32.32 0 01-.33-.11.33.33 0 01-.045-.345q.188-.424.378-.847.12-.27.243-.541a.1.1 0 00-.001-.093l-1.52-3.4c-.07-.16-.036-.32.09-.417a.326.326 0 01.499.134l.45 1.006.835 1.87z"/><path fill="#1D1D1F" fill-opacity=".2" d="M33.78 6.069a1 1 0 01-.094.143c-.077.083-.182.085-.286.081-.506-.018-.904.187-1.197.599a1.56 1.56 0 00-.29.908c-.005.643-.003 1.286-.004 1.93 0 .196-.112.306-.307.31-.113.002-.22-.014-.284-.117a.33.33 0 01-.055-.166q-.005-1.89-.002-3.78a.274.274 0 01.267-.28h.114a.27.27 0 01.25.178q.018.052.017.106v.655l.003.063c.018-.028.028-.043.037-.06.203-.35.475-.625.846-.793.223-.1.465-.147.71-.136a.28.28 0 01.254.185l.02.044zm-6.69 2.068q.037.236.144.447c.212.414.533.696.99.798.32.072.635.023.942-.08.187-.057.358-.16.497-.299.077-.08.168-.11.27-.068a.28.28 0 01.18.208.29.29 0 01-.08.264 1.9 1.9 0 01-.822.481 2.4 2.4 0 01-1.082.102 1.94 1.94 0 01-1.072-.52 2.14 2.14 0 01-.697-1.704c.03-.781.373-1.397 1.038-1.808a1.976 1.976 0 012.437.302c.444.448.652.992.65 1.622a.263.263 0 01-.255.255zm2.806-.533a1.7 1.7 0 00-.246-.684c-.33-.526-.927-.77-1.506-.6-.499.148-.818.49-.99.977-.036.098-.055.2-.083.307zm-11.344.533c.095.574.516 1.113 1.135 1.247.285.061.565.027.842-.05a1.36 1.36 0 00.593-.327.23.23 0 01.255-.078.283.283 0 01.19.356.3.3 0 01-.077.126 1.9 1.9 0 01-.772.462c-.4.133-.81.186-1.226.099-.638-.134-1.108-.504-1.414-1.077a2.23 2.23 0 01.254-2.485c.42-.5.96-.76 1.612-.736.735.027 1.293.382 1.682 1.006.214.347.325.75.32 1.159q-.001.226-.179.283a.4.4 0 01-.107.014l-3.04.001zm-.01-.533h2.813v-.028a1.64 1.64 0 00-.317-.76c-.319-.41-.736-.602-1.25-.533-.705.094-1.167.704-1.245 1.32zm5.65 1.22l.241-.54 1.063-2.38a.33.33 0 01.323-.206.325.325 0 01.295.245.34.34 0 01-.023.229l-1.21 2.713q-.186.41-.368.824c-.063.142-.168.223-.322.223s-.26-.08-.323-.221q-.785-1.762-1.572-3.523c-.097-.217.002-.436.22-.484a.32.32 0 01.368.196l.516 1.156.768 1.72z"/></svg>
