<svg id="Layer_1" data-name="Layer 1" xmlns="http://www.w3.org/2000/svg" viewBox="0 0 38 24"><defs><style>.cls-1{fill:#29aae1;}.cls-2{fill:#8c64aa;}.cls-3{fill:#81d3f3;}.cls-4{fill:#c5b1d4;}.cls-5{fill:#5592cd;}</style></defs><polygon class="cls-1" points="32.24 9.89 33.12 9.89 34.13 11.36 35.18 9.89 36.01 9.89 34.56 11.82 36.19 14.09 35.3 14.09 34.13 12.35 32.96 14.09 32.13 14.09 33.7 11.88 32.24 9.89"/><path class="cls-2" d="M14.77,11.38a1.54,1.54,0,0,0-.24-.5,1.23,1.23,0,0,0-.4-.35,1.35,1.35,0,0,0-.59-.13,1.2,1.2,0,0,0-.59.14,1.25,1.25,0,0,0-.4.36,1.68,1.68,0,0,0-.22.51,2.25,2.25,0,0,0-.07.58,3.07,3.07,0,0,0,.07.6,1.37,1.37,0,0,0,.24.5,1.1,1.1,0,0,0,.41.36,1.25,1.25,0,0,0,.61.13,1.2,1.2,0,0,0,.59-.14,1.12,1.12,0,0,0,.39-.36,1.58,1.58,0,0,0,.21-.52,3.05,3.05,0,0,0,.06-.6,2.25,2.25,0,0,0-.07-.58M12.29,9.89v.57h0a1.07,1.07,0,0,1,.54-.51,2.08,2.08,0,0,1,.8-.16,1.87,1.87,0,0,1,.85.18,1.69,1.69,0,0,1,.6.49,2,2,0,0,1,.36.7,2.59,2.59,0,0,1,.13.84,3,3,0,0,1-.12.85,2,2,0,0,1-.36.69,1.63,1.63,0,0,1-.6.47,2,2,0,0,1-.84.17l-.35,0a1.73,1.73,0,0,1-.37-.11,1.27,1.27,0,0,1-.36-.2,1.05,1.05,0,0,1-.28-.31h0v2.16h-.7V9.89Z"/><path class="cls-2" d="M18.83,11.92a.86.86,0,0,1-.35.14l-.44.08-.47.06a2.58,2.58,0,0,0-.42.12.76.76,0,0,0-.3.23.65.65,0,0,0-.12.41.49.49,0,0,0,.07.28.41.41,0,0,0,.18.19.71.71,0,0,0,.25.11,1.55,1.55,0,0,0,.31,0,1.74,1.74,0,0,0,.59-.09,1.08,1.08,0,0,0,.39-.24.81.81,0,0,0,.23-.3.79.79,0,0,0,.08-.31ZM20,14.08a1,1,0,0,1-.5.1A.61.61,0,0,1,19,14a.67.67,0,0,1-.15-.49,1.6,1.6,0,0,1-.67.49,2.16,2.16,0,0,1-.81.15,2.35,2.35,0,0,1-.54-.06,1.33,1.33,0,0,1-.45-.21.94.94,0,0,1-.29-.36A1.13,1.13,0,0,1,16,13a1.22,1.22,0,0,1,.12-.58,1,1,0,0,1,.32-.37,1.4,1.4,0,0,1,.46-.22,4.37,4.37,0,0,1,.52-.12l.54-.09a1.91,1.91,0,0,0,.45-.08.69.69,0,0,0,.31-.15.37.37,0,0,0,.11-.3.64.64,0,0,0-.08-.36.49.49,0,0,0-.22-.21.76.76,0,0,0-.3-.1l-.33,0a1.46,1.46,0,0,0-.73.17.7.7,0,0,0-.32.63h-.69a1.6,1.6,0,0,1,.16-.66,1.24,1.24,0,0,1,.39-.43,1.76,1.76,0,0,1,.56-.24,2.86,2.86,0,0,1,.67-.08,5.09,5.09,0,0,1,.56,0A1.61,1.61,0,0,1,19,10a1,1,0,0,1,.37.35,1.18,1.18,0,0,1,.14.6V13.1a2.93,2.93,0,0,0,0,.36c0,.07.09.11.2.11l.21,0Z"/><path class="cls-2" d="M22.08,14.65c-.09.21-.17.38-.24.52a1.68,1.68,0,0,1-.26.35.88.88,0,0,1-.32.19,1.25,1.25,0,0,1-.4.06h-.25a.86.86,0,0,1-.23-.06v-.63l.2.07a.79.79,0,0,0,.2,0,.61.61,0,0,0,.36-.1.59.59,0,0,0,.21-.29l.29-.7L20,9.89h.78L22,13.33h0l1.18-3.44h.73Z"/><path class="cls-1" d="M24.07,10.5V9.89h.7V9.27a1,1,0,0,1,.3-.78,1.25,1.25,0,0,1,.86-.26h.23l.22,0v.6l-.19,0H26a.7.7,0,0,0-.39.09.45.45,0,0,0-.14.38v.58h.82v.61h-.82v3.59h-.69V10.5Z"/><rect class="cls-1" x="26.93" y="8.29" width="0.69" height="5.8"/><path class="cls-1" d="M31.34,11.13a1.15,1.15,0,0,0-.62-.63,1.12,1.12,0,0,0-.48-.1,1.06,1.06,0,0,0-.48.1,1,1,0,0,0-.37.25,1.19,1.19,0,0,0-.25.38,1.4,1.4,0,0,0-.1.46h2.41a1.41,1.41,0,0,0-.11-.46m.17,2.69a1.91,1.91,0,0,1-1.19.36,2.11,2.11,0,0,1-.87-.16,1.6,1.6,0,0,1-.62-.46,1.78,1.78,0,0,1-.38-.69,3.19,3.19,0,0,1-.14-.89,2.75,2.75,0,0,1,.14-.88,2.38,2.38,0,0,1,.41-.69,2,2,0,0,1,.63-.45,1.86,1.86,0,0,1,.79-.17,1.69,1.69,0,0,1,.93.24,1.73,1.73,0,0,1,.59.58,2.2,2.2,0,0,1,.31.78,3.29,3.29,0,0,1,.07.81H29a1.49,1.49,0,0,0,.06.52,1.21,1.21,0,0,0,.65.75,1.57,1.57,0,0,0,.6.11,1.19,1.19,0,0,0,.71-.2,1,1,0,0,0,.37-.62h.69a1.7,1.7,0,0,1-.61,1.06"/><path class="cls-3" d="M6.53,11a4.85,4.85,0,0,0,0,2A4.85,4.85,0,0,1,9,14.29,3.28,3.28,0,0,1,9,9.63,4.93,4.93,0,0,1,6.53,11"/><path class="cls-3" d="M4.57,11a4.59,4.59,0,0,0,1,.1h0a4.73,4.73,0,0,0,1-.1A4.87,4.87,0,0,1,7.87,8.47a3.3,3.3,0,0,1-4.65,0A5,5,0,0,1,4.57,11"/><path class="cls-4" d="M6.53,12.94a4.73,4.73,0,0,0-1-.1,4.59,4.59,0,0,0-1,.1,5,5,0,0,1-1.35,2.51,3.3,3.3,0,0,1,4.65,0,4.87,4.87,0,0,1-1.34-2.51"/><path class="cls-4" d="M4.57,12.94a5.33,5.33,0,0,0,.09-1,5.33,5.33,0,0,0-.09-1A5,5,0,0,1,2.05,9.63,3.26,3.26,0,0,1,3,12a3.28,3.28,0,0,1-1,2.33,4.88,4.88,0,0,1,2.52-1.35"/><path class="cls-5" d="M2.05,8.47a.82.82,0,0,0,0,1.16A5,5,0,0,0,4.57,11,5,5,0,0,0,3.22,8.47a.83.83,0,0,0-1.17,0"/><path class="cls-2" d="M2.05,15.45a.83.83,0,0,0,1.17,0,5,5,0,0,0,1.35-2.51,4.88,4.88,0,0,0-2.52,1.35.82.82,0,0,0,0,1.16"/><path class="cls-5" d="M9,15.45a.83.83,0,0,1-1.17,0,4.87,4.87,0,0,1-1.34-2.51A4.85,4.85,0,0,1,9,14.29a.82.82,0,0,1,0,1.16"/><path class="cls-1" d="M9,8.47A.82.82,0,0,1,9,9.63,4.93,4.93,0,0,1,6.53,11,4.87,4.87,0,0,1,7.87,8.47.83.83,0,0,1,9,8.47"/></svg>