<svg aria-labelledby="pi-Payflex" width="38" height="24"><path fill="#fff" d="M0 0h38v24H0z"/><g opacity=".5"><path style="fill:#002751" d="M8 8.11a.88.88 0 0 0-1 0 .88.88 0 0 1 1 0Zm-1.12 7.7a.9.9 0 0 0 1.27 0l.08-.09-.08.09a.9.9 0 0 1-1.27 0ZM.43 8.34a.9.9 0 0 0 0 1 .9.9 0 0 1 0-1Zm7.72 1.13a.9.9 0 0 0 0-1.27l-.1-.09.1.09a.9.9 0 0 1 0 1.27ZM.69 15.93a.91.91 0 0 0 .83.07.88.88 0 0 1-.83-.07ZM1.81 8.2a.9.9 0 0 0-1.27 0 1.34 1.34 0 0 0-.11.14 1.34 1.34 0 0 1 .11-.14.9.9 0 0 1 1.27 0Z"/><path style="fill:#002751" d="M.76 14.33A5.77 5.77 0 0 1 2 13.49a5.65 5.65 0 0 1 1.26-.42 5.45 5.45 0 0 0 0-2.13A5.65 5.65 0 0 1 2 10.52a5.13 5.13 0 0 1-1.24-.84l-.22-.21a.7.7 0 0 1-.13-.17 1.09 1.09 0 0 0 .13.17l.19.21a3.59 3.59 0 0 1 0 4.65l-.19.21a.82.82 0 0 0-.16.22.82.82 0 0 1 .16-.22Zm7.46 1.39a.9.9 0 0 0 .08-1 .88.88 0 0 1-.08 1Z"/><path style="fill:#002751" d="M.38 14.76a.9.9 0 0 0 .16 1.05l.15.12a.57.57 0 0 1-.15-.12.9.9 0 0 1-.16-1.05Zm6.29-4.24a5.65 5.65 0 0 1-1.26.42 5.45 5.45 0 0 0 0 2.13 5.65 5.65 0 0 1 1.26.42 5.13 5.13 0 0 1 1.26.84l.22.21a.8.8 0 0 1 .15.21 1.37 1.37 0 0 0-.15-.21L8 14.33a3.59 3.59 0 0 1 0-4.65l.19-.21-.22.21a5.77 5.77 0 0 1-1.3.84Zm-3.81-.84a5.65 5.65 0 0 1 .42 1.26 5.45 5.45 0 0 0 2.13 0 5.65 5.65 0 0 1 .42-1.26 5.13 5.13 0 0 1 .84-1.26l.21-.22a.75.75 0 0 1 .18-.13.59.59 0 0 0-.18.13l-.21.19a3.59 3.59 0 0 1-4.67 0l-.19-.19.19.22a5.77 5.77 0 0 1 .86 1.26Zm2.97 4.65a5.65 5.65 0 0 1-.42-1.26 5.45 5.45 0 0 0-2.13 0 5.65 5.65 0 0 1-.42 1.26A5.13 5.13 0 0 1 2 15.59l-.21.22a.85.85 0 0 1-.29.19.91.91 0 0 0 .29-.19l.21-.19a3.59 3.59 0 0 1 4.65 0l.21.19-.21-.22a5.77 5.77 0 0 1-.82-1.26Z"/></g><path style="fill:#002751" d="m7.93 9.68.22-.21a.9.9 0 0 0 0-1.27l-.1-.09a.89.89 0 0 0-1 0 .75.75 0 0 0-.18.13l-.21.22a5.77 5.77 0 0 0-.84 1.26 5.65 5.65 0 0 0-.42 1.26 5.65 5.65 0 0 0 1.26-.42 5.77 5.77 0 0 0 1.27-.88ZM2 8.42l-.19-.22a.9.9 0 0 0-1.27 0 1.34 1.34 0 0 0-.11.14.9.9 0 0 0 0 1 1.09 1.09 0 0 0 .13.17l.22.21a5.77 5.77 0 0 0 1.22.8 5.65 5.65 0 0 0 1.26.42 5.65 5.65 0 0 0-.42-1.26A5.77 5.77 0 0 0 2 8.42Zm6.15 6.12-.22-.21a5.77 5.77 0 0 0-1.26-.84 5.65 5.65 0 0 0-1.26-.42 5.65 5.65 0 0 0 .42 1.26 5.13 5.13 0 0 0 .84 1.26l.21.22a.9.9 0 0 0 1.27 0l.08-.09a.9.9 0 0 0 .08-1Zm-7.39-.21-.22.21a.82.82 0 0 0-.16.22.9.9 0 0 0 .16 1.05l.15.12a.91.91 0 0 0 1.12-.12l.19-.22a5.77 5.77 0 0 0 .84-1.26 5.65 5.65 0 0 0 .42-1.26 5.65 5.65 0 0 0-1.26.42 5.77 5.77 0 0 0-1.24.84Zm13.63-2.95a1.59 1.59 0 0 0-.26-.54 1.24 1.24 0 0 0-.44-.38 1.39 1.39 0 0 0-.63-.14 1.33 1.33 0 0 0-.65.15 1.24 1.24 0 0 0-.43.39 1.7 1.7 0 0 0-.24.55 2.72 2.72 0 0 0-.08.63 2.82 2.82 0 0 0 .08.65 1.63 1.63 0 0 0 .25.55 1.31 1.31 0 0 0 .45.39 1.34 1.34 0 0 0 .66.15 1.28 1.28 0 0 0 .65-.15 1.24 1.24 0 0 0 .42-.4 1.71 1.71 0 0 0 .23-.57 2.81 2.81 0 0 0 .07-.65 2.18 2.18 0 0 0-.08-.63m-2.7-1.63v.62a1.11 1.11 0 0 1 .58-.55 2.13 2.13 0 0 1 .88-.17 2 2 0 0 1 .92.19 2 2 0 0 1 .66.53 2.24 2.24 0 0 1 .39.77 3.32 3.32 0 0 1 0 1.84 2.38 2.38 0 0 1-.39.76 1.82 1.82 0 0 1-.65.51 2.19 2.19 0 0 1-.92.19 1.82 1.82 0 0 1-.38 0 1.48 1.48 0 0 1-.41-.12 1.47 1.47 0 0 1-.69-.56v2.35h-.75V9.75ZM18.81 12a.9.9 0 0 1-.37.15l-.44.05-.51.07a2.06 2.06 0 0 0-.46.13.76.76 0 0 0-.33.25.68.68 0 0 0-.13.44.59.59 0 0 0 .08.31.64.64 0 0 0 .19.21.78.78 0 0 0 .28.11 1.86 1.86 0 0 0 .34 0 1.76 1.76 0 0 0 .64-.1 1.2 1.2 0 0 0 .43-.26 1.11 1.11 0 0 0 .25-.33.88.88 0 0 0 .08-.34V12ZM20 14.31a1 1 0 0 1-.54.11.63.63 0 0 1-.46-.16.7.7 0 0 1-.17-.54 1.85 1.85 0 0 1-.72.54 2.35 2.35 0 0 1-.89.16 2.27 2.27 0 0 1-.59-.07 1.33 1.33 0 0 1-.48-.22 1 1 0 0 1-.32-.39 1.32 1.32 0 0 1-.12-.59 1.35 1.35 0 0 1 .13-.64 1 1 0 0 1 .35-.4 1.53 1.53 0 0 1 .5-.23c.19-.05.38-.1.57-.13l.59-.09a2.87 2.87 0 0 0 .49-.09.84.84 0 0 0 .34-.17.41.41 0 0 0 .12-.32.76.76 0 0 0-.09-.4.59.59 0 0 0-.24-.23 1.17 1.17 0 0 0-.33-.11h-.36a1.63 1.63 0 0 0-.8.18.78.78 0 0 0-.35.69h-.75a1.59 1.59 0 0 1 .18-.72 1.47 1.47 0 0 1 .42-.47 1.76 1.76 0 0 1 .61-.26 3.4 3.4 0 0 1 .73-.08 4.3 4.3 0 0 1 .62 0 1.62 1.62 0 0 1 .55.18 1 1 0 0 1 .4.38 1.21 1.21 0 0 1 .15.64v2.35a1.79 1.79 0 0 0 0 .39q0 .12.21.12a.74.74 0 0 0 .23 0v.6Zm2.35.63c-.09.22-.18.41-.26.57a2 2 0 0 1-.28.38.84.84 0 0 1-.35.21 1.45 1.45 0 0 1-.44.07h-.27a1.22 1.22 0 0 1-.26-.06v-.71l.23.08h.22a.71.71 0 0 0 .39-.11.67.67 0 0 0 .23-.31l.31-.77-1.81-4.52h.85l1.34 3.74 1.28-3.74h.8Zm2.17-4.52v-.67h.77v-.68a1.12 1.12 0 0 1 .32-.85 1.39 1.39 0 0 1 .94-.29h.24L27 8v.65l-.21-.05h-.21a.72.72 0 0 0-.42.11.48.48 0 0 0-.15.41v.64h.88v.66H26v3.91h-.75v-3.92h-.77Zm3.12-2.41h.75v6.32h-.75zm4.8 3.09a1.33 1.33 0 0 0-.27-.41 1.13 1.13 0 0 0-.41-.27 1.27 1.27 0 0 0-.52-.1 1.32 1.32 0 0 0-.53.1 1.15 1.15 0 0 0-.4.28 1.62 1.62 0 0 0-.27.41 2 2 0 0 0-.12.5h2.63a1.26 1.26 0 0 0-.11-.51m.18 2.9a2.06 2.06 0 0 1-1.29.39 2.3 2.3 0 0 1-.95-.18 1.88 1.88 0 0 1-.68-.5 2.14 2.14 0 0 1-.41-.76 4.19 4.19 0 0 1-.16-1 2.69 2.69 0 0 1 .16-1 2.18 2.18 0 0 1 .45-.75 2.1 2.1 0 0 1 .68-.5 2 2 0 0 1 .86-.18 1.85 1.85 0 0 1 1 .25 2.09 2.09 0 0 1 .65.64 2.75 2.75 0 0 1 .34.85 3.89 3.89 0 0 1 .08.88h-3.42a1.78 1.78 0 0 0 .07.57 1.26 1.26 0 0 0 .71.81 1.6 1.6 0 0 0 .65.12 1.26 1.26 0 0 0 .78-.22 1.06 1.06 0 0 0 .4-.67h.74a1.76 1.76 0 0 1-.66 1.25m.8-4.25h.97l1.09 1.61 1.14-1.61h.91l-1.58 2.11 1.77 2.47h-.96l-1.28-1.89-1.27 1.89h-.91l1.71-2.41-1.59-2.17z"/></svg>