<svg width="38" height="24" viewBox="0 0 38 24" fill="none" xmlns="http://www.w3.org/2000/svg" version="1.1" aria-labelledby="pi-payflex" role="img"><title id="pi-payflex">Payflex</title><path opacity=".07" d="M35 0H3C1.3 0 0 1.3 0 3v18c0 1.7 1.4 3 3 3h32c1.7 0 3-1.3 3-3V3c0-1.7-1.4-3-3-3z" fill="#000"/><path d="M35 1c1.1 0 2 .9 2 2v18c0 1.1-.9 2-2 2H3c-1.1 0-2-.9-2-2V3c0-1.1.9-2 2-2h32z" fill="#fff"/><path d="M31.238 9.544h.816l.938 1.364.974-1.364h.77l-1.345 1.79 1.512 2.107h-.826l-1.085-1.615-1.086 1.615h-.77l1.457-2.05-1.355-1.847z" fill="#29AAE1"/><path d="M15.027 10.926a1.43 1.43 0 00-.223-.464 1.142 1.142 0 00-.371-.325 1.253 1.253 0 00-.548-.12c-.19-.005-.379.04-.547.13a1.16 1.16 0 00-.371.334 1.557 1.557 0 00-.205.473 2.091 2.091 0 00-.065.538c.004.188.025.374.065.557.042.168.118.326.223.464.097.142.228.256.38.334.176.088.37.129.566.12a1.039 1.039 0 00.91-.464c.093-.147.16-.31.195-.482.037-.183.055-.37.055-.557a2.087 2.087 0 00-.064-.538zm-2.302-1.382v.528a.993.993 0 01.501-.473 1.93 1.93 0 01.743-.148c.272-.007.542.05.788.167.219.106.41.262.557.454.153.193.267.414.334.65.083.252.124.515.12.78.002.266-.036.532-.11.788-.069.234-.182.451-.335.64-.148.188-.339.337-.556.437a1.857 1.857 0 01-.78.157h-.325a1.606 1.606 0 01-.343-.102 1.18 1.18 0 01-.334-.185.974.974 0 01-.26-.288v2.005h-.65v-5.41h.65zm6.069 1.883a.797.797 0 01-.325.13l-.408.075-.436.055a2.397 2.397 0 00-.39.112.706.706 0 00-.278.213.603.603 0 00-.112.38.454.454 0 00.065.26.38.38 0 00.167.177.66.66 0 00.232.102c.096.01.192.01.288 0 .186.004.371-.025.547-.084.136-.047.259-.123.362-.223a.752.752 0 00.214-.278.732.732 0 00.074-.288v-.63zm1.086 2.005a.928.928 0 01-.464.092.566.566 0 01-.464-.167.622.622 0 01-.14-.454c-.163.203-.378.36-.621.454a2.177 2.177 0 01-1.253.083 1.233 1.233 0 01-.418-.194.873.873 0 01-.269-.334 1.047 1.047 0 01-.083-.482c-.008-.186.03-.371.111-.539a.928.928 0 01.297-.343c.129-.094.273-.163.427-.204.158-.047.32-.084.482-.112l.502-.083c.141-.008.282-.033.417-.074a.64.64 0 00.288-.14.344.344 0 00.102-.278.594.594 0 00-.074-.334.454.454 0 00-.204-.195.706.706 0 00-.279-.093h-.306a1.355 1.355 0 00-.677.158.65.65 0 00-.297.585h-.64c.004-.213.055-.421.148-.613a1.15 1.15 0 01.362-.399c.159-.104.334-.179.52-.222.203-.05.412-.075.621-.075.173-.01.347-.01.52 0 .163.033.32.092.464.177.14.076.258.188.343.324.092.171.137.363.13.557v1.995a2.697 2.697 0 000 .334c0 .065.084.102.185.102h.195l.075.474zm1.93.529c-.07.163-.144.323-.223.482a1.559 1.559 0 01-.241.325.816.816 0 01-.297.176 1.16 1.16 0 01-.371.056h-.232a.796.796 0 01-.214-.056v-.584l.186.065a.738.738 0 00.185 0 .567.567 0 00.334-.093.548.548 0 00.195-.27l.27-.649-1.522-3.87h.723l1.132 3.193 1.096-3.192h.677L21.81 13.96z" fill="#8C64AA"/><path d="M23.656 10.11v-.566h.65v-.576a.928.928 0 01.278-.724 1.16 1.16 0 01.798-.24h.418v.556h-.353a.65.65 0 00-.362.083.417.417 0 00-.13.353v.538h.761v.566h-.76v3.332h-.64V10.11h-.66zm2.654-2.051h.64v5.382h-.64V8.059zm4.093 2.635a1.067 1.067 0 00-.576-.584 1.04 1.04 0 00-.445-.093.984.984 0 00-.446.093.928.928 0 00-.343.232c-.1.101-.178.22-.232.352-.055.136-.086.28-.093.427h2.237a1.308 1.308 0 00-.102-.427zm.157 2.496c-.32.232-.709.35-1.104.335a1.957 1.957 0 01-.807-.149 1.485 1.485 0 01-.576-.427 1.652 1.652 0 01-.352-.64 2.957 2.957 0 01-.13-.826 2.551 2.551 0 01.13-.817c.09-.233.218-.45.38-.64.166-.176.365-.318.585-.417.23-.106.48-.16.733-.158a1.605 1.605 0 011.41.76c.142.221.24.467.288.724.053.247.075.5.065.752h-2.95c-.01.163.008.326.055.483a1.122 1.122 0 00.603.696c.177.07.366.104.557.102.233.01.464-.056.659-.186a.928.928 0 00.343-.575h.64c-.06.386-.262.737-.566.983" fill="#29AAE1"/><path d="M7.38 10.574a4.5 4.5 0 000 1.856 4.5 4.5 0 012.292 1.197 3.044 3.044 0 010-4.325 4.575 4.575 0 01-2.292 1.272" fill="#81D3F3"/><path d="M5.561 10.574c.305.064.617.095.928.092a4.39 4.39 0 00.928-.092 4.52 4.52 0 011.207-2.348 3.062 3.062 0 01-4.315 0 4.64 4.64 0 011.252 2.348" fill="#81D3F3"/><path d="M7.38 12.374a4.39 4.39 0 00-.928-.093 4.261 4.261 0 00-.928.093 4.64 4.64 0 01-1.252 2.329 3.062 3.062 0 014.315 0 4.518 4.518 0 01-1.244-2.33" fill="#C5B1D4"/><path d="M5.561 12.374c.057-.306.085-.617.084-.928a4.946 4.946 0 00-.084-.928 4.64 4.64 0 01-2.338-1.216 3.025 3.025 0 01.882 2.2 3.044 3.044 0 01-.928 2.162 4.529 4.529 0 012.338-1.253" fill="#C5B1D4"/><path d="M3.223 8.226a.76.76 0 000 1.076 4.64 4.64 0 002.338 1.271A4.64 4.64 0 004.31 8.226a.77.77 0 00-1.086 0" fill="#5592CD"/><path d="M3.223 14.703a.77.77 0 001.086 0 4.64 4.64 0 001.252-2.33 4.529 4.529 0 00-2.338 1.254.762.762 0 000 1.076" fill="#8C64AA"/><path d="M9.672 14.703a.77.77 0 01-1.085 0 4.518 4.518 0 01-1.244-2.33 4.5 4.5 0 012.33 1.254.762.762 0 010 1.076" fill="#5592CD"/><path d="M9.672 8.226a.761.761 0 010 1.076 4.575 4.575 0 01-2.292 1.272 4.52 4.52 0 011.244-2.348.77.77 0 011.048 0z" fill="#29AAE1"/></svg>
