<svg data-name="Layer 1" xmlns="http://www.w3.org/2000/svg" width="38" height="24"><path fill="#fff" d="M0 0h38v24H0z"/><rect x=".4" y=".25" width="37.21" height="23.5" rx="2" fill="#fff" stroke="#000" stroke-miterlimit="10" opacity=".07"/><g opacity=".5" fill="#002751"><path d="M8.69 8.29a.85.85 0 0 0-.93 0 .85.85 0 0 1 .93 0zM7.59 15.54a.84.84 0 0 0 1.19 0l.08-.08-.08.08a.84.84 0 0 1-1.19 0zM1.51 8.51a.84.84 0 0 0 0 .9.84.84 0 0 1 0-.9zM8.78 9.57a.84.84 0 0 0 0-1.19l-.09-.09.09.09a.84.84 0 0 1 0 1.19zM1.77 15.65a.81.81 0 0 0 .77.07.81.81 0 0 1-.77-.07z"/><path d="M2.82 8.38a.85.85 0 0 0-1.2 0l-.11.13.11-.13a.85.85 0 0 1 1.2 0zM1.83 14.15A4.78 4.78 0 0 1 3 13.36 5.05 5.05 0 0 1 4.2 13a5.23 5.23 0 0 0 0-2 5 5 0 0 1-1.2-.44 5.07 5.07 0 0 1-1.18-.79l-.21-.2a.61.61 0 0 1-.12-.16.61.61 0 0 0 .12.16 1.12 1.12 0 0 1 .18.2 3.37 3.37 0 0 1 0 4.38 1.62 1.62 0 0 1-.18.2 1 1 0 0 0-.15.2 1 1 0 0 1 .15-.2zM8.86 15.46a.85.85 0 0 0 .07-.92.85.85 0 0 1-.07.92zM1.47 14.55a.84.84 0 0 0 .15 1l.15.11-.15-.11a.84.84 0 0 1-.15-1z"/><path d="M7.39 10.56a5.1 5.1 0 0 1-1.18.44 4.86 4.86 0 0 0 0 2 5.14 5.14 0 0 1 1.18.4 5 5 0 0 1 1.19.79 1.89 1.89 0 0 1 .2.2.7.7 0 0 1 .15.19.7.7 0 0 0-.15-.19l-.18-.2a3.39 3.39 0 0 1 0-4.38l.18-.2c-.06.07-.13.13-.2.2a5.35 5.35 0 0 1-1.19.75zM3.8 9.77A5.14 5.14 0 0 1 4.2 11a4.86 4.86 0 0 0 2 0 5.1 5.1 0 0 1 .4-1.23 5.41 5.41 0 0 1 .79-1.18l.2-.21a.7.7 0 0 1 .17-.13.7.7 0 0 0-.17.13l-.2.18a3.39 3.39 0 0 1-4.39 0l-.19-.18c.06.07.13.13.19.21a4.78 4.78 0 0 1 .8 1.18zM6.6 14.15A5 5 0 0 1 6.21 13a5.23 5.23 0 0 0-2 0 5.05 5.05 0 0 1-.4 1.19A4.78 4.78 0 0 1 3 15.33l-.19.21a.84.84 0 0 1-.28.18.84.84 0 0 0 .28-.18l.19-.18a3.37 3.37 0 0 1 4.38 0l.2.18-.2-.21a5.41 5.41 0 0 1-.78-1.18z"/></g><path d="M8.58 9.77c.07-.07.14-.13.2-.2a.84.84 0 0 0 0-1.19l-.09-.09a.85.85 0 0 0-.93 0 .7.7 0 0 0-.17.13l-.2.21a5.41 5.41 0 0 0-.79 1.14A5.1 5.1 0 0 0 6.21 11a5.1 5.1 0 0 0 1.18-.39 5.35 5.35 0 0 0 1.19-.84zM3 8.59c-.06-.08-.13-.14-.19-.21a.85.85 0 0 0-1.2 0l-.11.13a.84.84 0 0 0 0 .9.61.61 0 0 0 .12.16l.21.2a5.07 5.07 0 0 0 1.17.79 5 5 0 0 0 1.2.44 5.14 5.14 0 0 0-.4-1.18A4.78 4.78 0 0 0 3 8.59zM8.78 14.35a1.89 1.89 0 0 0-.2-.2 5 5 0 0 0-1.19-.79A5.14 5.14 0 0 0 6.21 13a5 5 0 0 0 .39 1.19 5.41 5.41 0 0 0 .79 1.18l.2.21a.84.84 0 0 0 1.19 0l.08-.08a.85.85 0 0 0 .07-.92.7.7 0 0 0-.15-.23zM1.83 14.15l-.21.2a1 1 0 0 0-.15.2.84.84 0 0 0 .15 1l.15.11a.81.81 0 0 0 .77.07.84.84 0 0 0 .28-.18l.18-.22a4.78 4.78 0 0 0 .79-1.18A5.05 5.05 0 0 0 4.2 13a5.05 5.05 0 0 0-1.19.4 4.78 4.78 0 0 0-1.18.75zM14.66 11.37a1.55 1.55 0 0 0-.24-.52 1.19 1.19 0 0 0-.42-.35 1.36 1.36 0 0 0-1.2 0 1.15 1.15 0 0 0-.41.38 1.45 1.45 0 0 0-.23.52 2.32 2.32 0 0 0-.07.59 2.48 2.48 0 0 0 .07.61 1.46 1.46 0 0 0 .24.52 1.22 1.22 0 0 0 .42.36 1.33 1.33 0 0 0 .63.14 1.25 1.25 0 0 0 .61-.14 1.21 1.21 0 0 0 .4-.38 1.47 1.47 0 0 0 .21-.53 2.51 2.51 0 0 0 .07-.62 2.25 2.25 0 0 0-.08-.58m-2.55-1.53v.58a1.07 1.07 0 0 1 .55-.52 2 2 0 0 1 .83-.16 2 2 0 0 1 .87.18 1.75 1.75 0 0 1 .61.5 2.05 2.05 0 0 1 .37.72 2.71 2.71 0 0 1 .13.86 3 3 0 0 1-.12.87 2.09 2.09 0 0 1-.37.71 1.55 1.55 0 0 1-.62.48 1.91 1.91 0 0 1-.86.18 1.56 1.56 0 0 1-.35 0 1.86 1.86 0 0 1-.39-.1 1.31 1.31 0 0 1-.36-.21 1 1 0 0 1-.29-.32v2.22h-.7V9.84zM18.82 11.92a.81.81 0 0 1-.35.15l-.45.07-.48.07a1.5 1.5 0 0 0-.44.12.79.79 0 0 0-.31.23.7.7 0 0 0-.12.42.56.56 0 0 0 .07.3.58.58 0 0 0 .19.19.68.68 0 0 0 .26.11 1.55 1.55 0 0 0 .31 0 1.72 1.72 0 0 0 .6-.09 1.43 1.43 0 0 0 .41-.24 1 1 0 0 0 .24-.32.77.77 0 0 0 .07-.32zM20 14.13a1 1 0 0 1-.51.11.56.56 0 0 1-.43-.16.66.66 0 0 1-.17-.5 1.65 1.65 0 0 1-.68.5 2 2 0 0 1-.83.16 2.52 2.52 0 0 1-.56-.07 1.17 1.17 0 0 1-.45-.21 1 1 0 0 1-.31-.37 1.31 1.31 0 0 1-.11-.55 1.16 1.16 0 0 1 .13-.6 1 1 0 0 1 .33-.38 1.4 1.4 0 0 1 .46-.22l.54-.13a3.84 3.84 0 0 1 .55-.08 2.81 2.81 0 0 0 .47-.09.7.7 0 0 0 .31-.16.38.38 0 0 0 .12-.3.71.71 0 0 0-.09-.38.63.63 0 0 0-.22-.21.81.81 0 0 0-.31-.1h-.34a1.54 1.54 0 0 0-.75.17.72.72 0 0 0-.32.65h-.71a1.55 1.55 0 0 1 .16-.68 1.31 1.31 0 0 1 .4-.44 1.6 1.6 0 0 1 .58-.25 3 3 0 0 1 .68-.07 3.69 3.69 0 0 1 .58 0A1.45 1.45 0 0 1 19 10a1.09 1.09 0 0 1 .38.36 1.22 1.22 0 0 1 .14.61v2.21a1.64 1.64 0 0 0 0 .37c0 .07.08.11.19.11h.22zM22.15 14.72a3.89 3.89 0 0 1-.24.53 1.3 1.3 0 0 1-.27.36.91.91 0 0 1-.32.2 1.33 1.33 0 0 1-.42.06h-.25a1.05 1.05 0 0 1-.24-.06v-.64l.21.07h.21a.61.61 0 0 0 .36-.11.64.64 0 0 0 .22-.29l.29-.73L20 9.84h.8l1.25 3.52 1.21-3.52H24zM24.19 10.46v-.62h.73V9.2a1 1 0 0 1 .3-.8 1.32 1.32 0 0 1 .89-.27h.23a.78.78 0 0 1 .23 0v.61h-.4a.74.74 0 0 0-.4.1.44.44 0 0 0-.14.39v.6h.83v.62h-.83v3.69h-.71v-3.68zM27.14 8.2h.71v5.95h-.71zM31.66 11.1a1.28 1.28 0 0 0-.26-.38 1.16 1.16 0 0 0-.39-.26 1.09 1.09 0 0 0-.48-.1 1.15 1.15 0 0 0-.5.1 1.12 1.12 0 0 0-.38.26 1.3 1.3 0 0 0-.25.39 1.47 1.47 0 0 0-.11.47h2.48a1.53 1.53 0 0 0-.11-.48m.17 2.77a2 2 0 0 1-1.22.37 2.29 2.29 0 0 1-.9-.17 1.74 1.74 0 0 1-.63-.47 1.88 1.88 0 0 1-.39-.71 3.27 3.27 0 0 1-.15-.91 2.57 2.57 0 0 1 .15-.9 2.19 2.19 0 0 1 .42-.71 2 2 0 0 1 .65-.47 1.92 1.92 0 0 1 .81-.16 1.74 1.74 0 0 1 .95.24 1.84 1.84 0 0 1 .61.6 2.44 2.44 0 0 1 .32.8 3.37 3.37 0 0 1 .07.82h-3.23a1.9 1.9 0 0 0 .07.54 1.22 1.22 0 0 0 .24.45 1.06 1.06 0 0 0 .43.31 1.4 1.4 0 0 0 .6.12 1.22 1.22 0 0 0 .74-.21 1 1 0 0 0 .38-.63h.7a1.7 1.7 0 0 1-.62 1.09" fill="#002751"/><path fill="#002751" d="M32.58 9.84h.9l1.04 1.51 1.07-1.51h.85l-1.48 1.98 1.67 2.32h-.91l-1.2-1.78-1.2 1.78h-.86l1.62-2.26-1.5-2.04z"/></svg>