<svg id="Layer_1" data-name="Layer 1" xmlns="http://www.w3.org/2000/svg" viewBox="0 0 38 14"><defs><style>.cls-1{fill:#29aae1;}.cls-2{fill:#8c64aa;}.cls-3{fill:#81d3f3;}.cls-4{fill:#c5b1d4;}.cls-5{fill:#5592cd;}.cls-6{font-size:2.67px;fill:#45546c;font-family:OpenSans-Bold, Open Sans;font-weight:700;}</style></defs><polygon class="cls-1" points="32.77 2.92 33.7 2.92 34.75 4.45 35.84 2.92 36.7 2.92 35.19 4.93 36.89 7.29 35.97 7.29 34.75 5.48 33.53 7.29 32.66 7.29 34.3 4.99 32.77 2.92"/><path class="cls-2" d="M14.58,4.47A1.79,1.79,0,0,0,14.33,4a1.22,1.22,0,0,0-.42-.36,1.34,1.34,0,0,0-.61-.14,1.21,1.21,0,0,0-1,.52A1.4,1.4,0,0,0,12,4.5a2.47,2.47,0,0,0-.08.6,2.51,2.51,0,0,0,.08.62,1.51,1.51,0,0,0,.24.53,1.11,1.11,0,0,0,.43.37,1.36,1.36,0,0,0,.63.14A1.33,1.33,0,0,0,14,6.62a1.32,1.32,0,0,0,.4-.38,1.81,1.81,0,0,0,.22-.55,3.18,3.18,0,0,0,.07-.62,2.47,2.47,0,0,0-.08-.6M12,2.92v.59h0A1.08,1.08,0,0,1,12.57,3a2.26,2.26,0,0,1,1.72,0,1.83,1.83,0,0,1,.62.51,2,2,0,0,1,.38.73,3.17,3.17,0,0,1,.13.88,2.84,2.84,0,0,1-.13.88,1.89,1.89,0,0,1-.37.72,1.67,1.67,0,0,1-.62.49,2.07,2.07,0,0,1-.88.18,1.59,1.59,0,0,1-.36,0,1.9,1.9,0,0,1-.39-.11A1.65,1.65,0,0,1,12.3,7,1.15,1.15,0,0,1,12,6.71h0V9h-.72v-6Z"/><path class="cls-2" d="M18.8,5a.86.86,0,0,1-.35.15L18,5.26l-.49.07a1.5,1.5,0,0,0-.44.12.7.7,0,0,0-.32.24.66.66,0,0,0-.12.42.56.56,0,0,0,.07.3.61.61,0,0,0,.19.2.68.68,0,0,0,.26.11,1.73,1.73,0,0,0,.32,0,1.78,1.78,0,0,0,.61-.09,1.42,1.42,0,0,0,.42-.25.9.9,0,0,0,.24-.32.77.77,0,0,0,.07-.32ZM20,7.28a1.06,1.06,0,0,1-.52.11A.6.6,0,0,1,19,7.23a.66.66,0,0,1-.17-.51,1.56,1.56,0,0,1-.69.51,2.15,2.15,0,0,1-.85.16,2.6,2.6,0,0,1-.56-.07,1.5,1.5,0,0,1-.46-.21A1.06,1.06,0,0,1,16,6.73a1.33,1.33,0,0,1-.11-.56A1.35,1.35,0,0,1,16,5.56a1.17,1.17,0,0,1,.34-.39A1.7,1.7,0,0,1,16.79,5l.55-.13.56-.09a2.69,2.69,0,0,0,.47-.08.8.8,0,0,0,.32-.16.39.39,0,0,0,.12-.31.71.71,0,0,0-.09-.38.54.54,0,0,0-.23-.22.76.76,0,0,0-.31-.1l-.34,0a1.45,1.45,0,0,0-.76.18.69.69,0,0,0-.33.65H16a1.39,1.39,0,0,1,.17-.68,1.27,1.27,0,0,1,.4-.46,1.79,1.79,0,0,1,.58-.25,3.14,3.14,0,0,1,.7-.07,3.9,3.9,0,0,1,.59,0A1.83,1.83,0,0,1,19,3a1.12,1.12,0,0,1,.38.37,1.24,1.24,0,0,1,.14.62V6.26a1.58,1.58,0,0,0,0,.37c0,.08.09.12.2.12l.22,0Z"/><path class="cls-2" d="M22.19,7.88c-.09.21-.17.39-.25.54a1.3,1.3,0,0,1-.27.36.94.94,0,0,1-.33.2,1.09,1.09,0,0,1-.42.07l-.26,0L20.42,9V8.31l.21.07.21,0a.62.62,0,0,0,.37-.1.73.73,0,0,0,.22-.3l.3-.74L20,2.92h.81L22.09,6.5h0l1.23-3.58h.76Z"/><path class="cls-1" d="M24.26,3.55V2.92H25V2.27a1,1,0,0,1,.31-.81,1.31,1.31,0,0,1,.9-.28l.23,0,.23.05v.63l-.2,0h-.2a.69.69,0,0,0-.41.1.44.44,0,0,0-.14.39v.61h.84v.63h-.84V7.29H25V3.55Z"/><rect class="cls-1" x="27.25" y="1.25" width="0.72" height="6.04"/><path class="cls-1" d="M31.84,4.21a1.26,1.26,0,0,0-.26-.4,1.16,1.16,0,0,0-.39-.26,1.3,1.3,0,0,0-1,0,1.05,1.05,0,0,0-.39.27,1.3,1.3,0,0,0-.25.39,1.53,1.53,0,0,0-.11.48H32a1.53,1.53,0,0,0-.11-.48M32,7a2,2,0,0,1-1.23.37,2.27,2.27,0,0,1-.91-.17,1.65,1.65,0,0,1-.65-.48A1.8,1.8,0,0,1,28.83,6a3.42,3.42,0,0,1-.15-.93,2.67,2.67,0,0,1,.15-.91,2,2,0,0,1,.43-.72A1.9,1.9,0,0,1,29.91,3a1.88,1.88,0,0,1,.82-.17,1.79,1.79,0,0,1,1,.24,1.81,1.81,0,0,1,.62.61,2.37,2.37,0,0,1,.32.81,3.61,3.61,0,0,1,.08.84H29.44a1.66,1.66,0,0,0,.07.55,1.35,1.35,0,0,0,.24.46,1.35,1.35,0,0,0,.43.31,1.52,1.52,0,0,0,.62.12,1.23,1.23,0,0,0,.75-.21,1.05,1.05,0,0,0,.39-.64h.71A1.77,1.77,0,0,1,32,7"/><path class="cls-3" d="M6,4.05a5,5,0,0,0-.1,1,5,5,0,0,0,.1,1A5.16,5.16,0,0,1,8.61,7.5a3.42,3.42,0,0,1,0-4.85A5.14,5.14,0,0,1,6,4.05"/><path class="cls-3" d="M4,4.05a5,5,0,0,0,1,.1H5a5,5,0,0,0,1-.1,5.08,5.08,0,0,1,1.4-2.61A3.42,3.42,0,0,1,5,2.44a3.46,3.46,0,0,1-2.43-1A5,5,0,0,1,4,4.05"/><path class="cls-4" d="M6,6.09A5,5,0,0,0,5,6a5.87,5.87,0,0,0-1,.1A5.05,5.05,0,0,1,2.54,8.71,3.42,3.42,0,0,1,5,7.71a3.38,3.38,0,0,1,2.42,1A5.11,5.11,0,0,1,6,6.09"/><path class="cls-4" d="M4,6.09a5,5,0,0,0,.1-1,5,5,0,0,0-.1-1,5.14,5.14,0,0,1-2.62-1.4,3.43,3.43,0,0,1,1,2.42,3.43,3.43,0,0,1-1,2.43A5.16,5.16,0,0,1,4,6.09"/><path class="cls-5" d="M1.33,1.44a.86.86,0,0,0,0,1.21A5.14,5.14,0,0,0,4,4.05,5,5,0,0,0,2.54,1.44a.85.85,0,0,0-1.21,0"/><path class="cls-2" d="M1.33,8.71a.85.85,0,0,0,1.21,0A5.05,5.05,0,0,0,4,6.09,5.16,5.16,0,0,0,1.33,7.5a.86.86,0,0,0,0,1.21"/><path class="cls-5" d="M8.61,8.71a.86.86,0,0,1-1.22,0A5.11,5.11,0,0,1,6,6.09,5.16,5.16,0,0,1,8.61,7.5a.86.86,0,0,1,0,1.21"/><path class="cls-1" d="M8.61,1.44a.86.86,0,0,1,0,1.21A5.14,5.14,0,0,1,6,4.05a5.08,5.08,0,0,1,1.4-2.61.86.86,0,0,1,1.22,0"/><text class="cls-6" transform="translate(11.01 12.03)">Shop Now. Pay In 4.</text></svg>