<svg data-name="Layer 1" xmlns="http://www.w3.org/2000/svg" viewBox="0 0 38 24"><g opacity=".5" fill="#002751"><path d="M8.17 8.11a.88.88 0 0 0-1 0 .88.88 0 0 1 1 0zM7 15.72a.91.91 0 0 0 1.26 0l.07-.09-.07.09a.91.91 0 0 1-1.26 0zM.65 8.34a.87.87 0 0 0 0 .94.87.87 0 0 1 0-.94zM8.28 9.45a.89.89 0 0 0 0-1.25l-.11-.09.11.09a.89.89 0 0 1 0 1.25zM.91 15.84a.91.91 0 0 0 .82.07.91.91 0 0 1-.82-.07zM2 8.2a.88.88 0 0 0-1.25 0 .76.76 0 0 0-.11.14.76.76 0 0 1 .12-.14.88.88 0 0 1 1.24 0zM1 14.26a5 5 0 0 1 1.24-.83A5.67 5.67 0 0 1 3.46 13a5.35 5.35 0 0 0 0-2.11 5.16 5.16 0 0 1-1.24-.41A5.6 5.6 0 0 1 1 9.66l-.24-.21a.7.7 0 0 1-.13-.17.7.7 0 0 0 .13.17l.24.21a3.54 3.54 0 0 1 0 4.6 1.8 1.8 0 0 1-.19.2.82.82 0 0 0-.16.22.82.82 0 0 1 .16-.22 2.09 2.09 0 0 1 .19-.2zM8.35 15.63a.88.88 0 0 0 .08-1 .88.88 0 0 1-.08 1zM.6 14.68a.9.9 0 0 0 .16 1l.15.12-.15-.12a.9.9 0 0 1-.16-1z"/><path d="M6.82 10.49a5.09 5.09 0 0 1-1.25.41 5.35 5.35 0 0 0 0 2.11 5.57 5.57 0 0 1 1.25.42 5 5 0 0 1 1.24.83l.22.2a.8.8 0 0 1 .15.21.8.8 0 0 0-.15-.21 1.8 1.8 0 0 1-.19-.2 3.54 3.54 0 0 1 0-4.6l.19-.21-.22.21a5.6 5.6 0 0 1-1.24.83zM3.05 9.66a5 5 0 0 1 .41 1.24 5.35 5.35 0 0 0 2.11 0A5.5 5.5 0 0 1 6 9.66a5.27 5.27 0 0 1 .83-1.24A2.09 2.09 0 0 1 7 8.2a1.1 1.1 0 0 1 .18-.14A1.1 1.1 0 0 0 7 8.2l-.2.19a3.54 3.54 0 0 1-4.6 0L2 8.2l.21.22a5.27 5.27 0 0 1 .84 1.24z"/><path d="M6 14.26A5.57 5.57 0 0 1 5.57 13a5.35 5.35 0 0 0-2.11 0 5.09 5.09 0 0 1-.41 1.25 5.27 5.27 0 0 1-.83 1.24l-.22.23a1.07 1.07 0 0 1-.28.19 1.07 1.07 0 0 0 .28-.19l.21-.19a3.54 3.54 0 0 1 4.6 0l.2.18-.2-.21A5.27 5.27 0 0 1 6 14.26z"/></g><path d="m8.06 9.66.22-.21a.89.89 0 0 0 0-1.25l-.11-.09a.88.88 0 0 0-1 0A1.1 1.1 0 0 0 7 8.2a2.09 2.09 0 0 0-.2.22A5.27 5.27 0 0 0 6 9.66a5.5 5.5 0 0 0-.42 1.24 5.09 5.09 0 0 0 1.25-.41 5.6 5.6 0 0 0 1.23-.83zM2.22 8.42 2 8.2a.88.88 0 0 0-1.25 0 .76.76 0 0 0-.11.14.87.87 0 0 0 0 .94.7.7 0 0 0 .13.17l.23.21a5.6 5.6 0 0 0 1.24.83 5.16 5.16 0 0 0 1.24.41 5 5 0 0 0-.41-1.24 5.27 5.27 0 0 0-.85-1.24zM8.28 14.46l-.22-.2a5 5 0 0 0-1.24-.83A5.57 5.57 0 0 0 5.57 13 5.57 5.57 0 0 0 6 14.26a5.27 5.27 0 0 0 .83 1.24l.2.21H7a.91.91 0 0 0 1.26 0l.07-.09a.88.88 0 0 0 .08-1 .8.8 0 0 0-.13-.16zM1 14.26a2.09 2.09 0 0 0-.22.2.82.82 0 0 0-.16.22.9.9 0 0 0 .16 1l.15.12a.91.91 0 0 0 .82.07 1.07 1.07 0 0 0 .25-.15l.21-.22a5.27 5.27 0 0 0 .83-1.24A5.09 5.09 0 0 0 3.46 13a5.67 5.67 0 0 0-1.24.42 5 5 0 0 0-1.22.84zM14.44 11.34a1.58 1.58 0 0 0-.25-.54 1.16 1.16 0 0 0-.44-.38 1.32 1.32 0 0 0-.62-.14 1.26 1.26 0 0 0-.64.15 1.24 1.24 0 0 0-.43.39 1.61 1.61 0 0 0-.24.55 2.56 2.56 0 0 0-.07.62 2.73 2.73 0 0 0 .07.64 1.85 1.85 0 0 0 .25.55 1.4 1.4 0 0 0 .45.38 1.42 1.42 0 0 0 .65.14 1.24 1.24 0 0 0 .64-.15 1.21 1.21 0 0 0 .42-.39 1.88 1.88 0 0 0 .23-.56 3.5 3.5 0 0 0 .07-.65 2.1 2.1 0 0 0-.09-.61m-2.67-1.61v.61a1.06 1.06 0 0 1 .58-.54 2.29 2.29 0 0 1 1.78 0 1.81 1.81 0 0 1 .64.52 2.07 2.07 0 0 1 .39.75 3 3 0 0 1 .13.91 3.28 3.28 0 0 1-.12.91 2.23 2.23 0 0 1-.39.75 1.85 1.85 0 0 1-.64.5 2 2 0 0 1-.91.19 1.73 1.73 0 0 1-.37 0 2.08 2.08 0 0 1-.41-.11 1.58 1.58 0 0 1-.38-.21 1.38 1.38 0 0 1-.3-.34V16H11V9.73zM18.81 11.92a.84.84 0 0 1-.37.15l-.47.08-.5.07a1.93 1.93 0 0 0-.46.12.9.9 0 0 0-.33.25.74.74 0 0 0-.12.44.59.59 0 0 0 .07.31.61.61 0 0 0 .19.2.79.79 0 0 0 .28.12 2 2 0 0 0 1-.07 1.28 1.28 0 0 0 .43-.25.93.93 0 0 0 .24-.33.73.73 0 0 0 .08-.34zM20 14.23a1 1 0 0 1-.53.12.66.66 0 0 1-.46-.16.69.69 0 0 1-.17-.53 1.92 1.92 0 0 1-.72.53 2.5 2.5 0 0 1-.88.16 2.79 2.79 0 0 1-.58-.07 1.36 1.36 0 0 1-.47-.22 1 1 0 0 1-.32-.39 1.53 1.53 0 0 1 0-1.21 1.13 1.13 0 0 1 .35-.4 1.48 1.48 0 0 1 .49-.23 5.07 5.07 0 0 1 .56-.13l.58-.09a3.07 3.07 0 0 0 .49-.09.74.74 0 0 0 .33-.17.41.41 0 0 0 .12-.32.75.75 0 0 0-.09-.39.66.66 0 0 0-.24-.23 1 1 0 0 0-.32-.1h-.35a1.57 1.57 0 0 0-.79.18.75.75 0 0 0-.34.68h-.75a1.65 1.65 0 0 1 .18-.71 1.27 1.27 0 0 1 .42-.47 1.82 1.82 0 0 1 .6-.26 3.26 3.26 0 0 1 .72-.07 4.17 4.17 0 0 1 .61 0 1.56 1.56 0 0 1 .54.18 1 1 0 0 1 .4.38 1.18 1.18 0 0 1 .15.63v2.33a1.74 1.74 0 0 0 0 .38c0 .08.08.12.2.12h.23zM22.31 14.86a4.1 4.1 0 0 1-.26.55 1.44 1.44 0 0 1-.28.38 1.08 1.08 0 0 1-.34.21 1.4 1.4 0 0 1-.43.06 1.76 1.76 0 0 1-.52-.08v-.68a1.23 1.23 0 0 0 .23.08h.21a.66.66 0 0 0 .38-.11.72.72 0 0 0 .23-.31l.31-.76L20 9.73h.84l1.33 3.7 1.27-3.7h.79zM24.45 10.39v-.66h.76v-.67a1.08 1.08 0 0 1 .32-.84 1.38 1.38 0 0 1 .93-.28 1.06 1.06 0 0 1 .24 0 .78.78 0 0 1 .24 0v.64H26.53a.68.68 0 0 0-.42.11.45.45 0 0 0-.15.4v.63h.87v.66H26v3.86h-.75v-3.85zM27.54 8.01h.74v6.24h-.74zM32.28 11.06a1.13 1.13 0 0 0-.27-.41 1.41 1.41 0 0 0-.4-.27 1.36 1.36 0 0 0-.51-.1 1.42 1.42 0 0 0-.52.1 1.15 1.15 0 0 0-.4.28 1.2 1.2 0 0 0-.26.4 1.66 1.66 0 0 0-.12.5h2.6a1.41 1.41 0 0 0-.12-.5m.18 2.9a2 2 0 0 1-1.27.39 2.22 2.22 0 0 1-.94-.18 1.74 1.74 0 0 1-.67-.49 2.1 2.1 0 0 1-.41-.75A3.56 3.56 0 0 1 29 12a2.87 2.87 0 0 1 .15-1 2.41 2.41 0 0 1 .45-.74 2 2 0 0 1 .67-.49 2 2 0 0 1 .85-.17 1.9 1.9 0 0 1 1 .24 2 2 0 0 1 .64.64 2.54 2.54 0 0 1 .33.84 3.25 3.25 0 0 1 .08.86H29.8a2.12 2.12 0 0 0 .07.57 1.35 1.35 0 0 0 .26.47 1.14 1.14 0 0 0 .44.33 1.59 1.59 0 0 0 .64.12 1.26 1.26 0 0 0 .78-.22 1 1 0 0 0 .39-.66h.74a1.79 1.79 0 0 1-.66 1.21M33.25 9.73h.95l1.09 1.58 1.13-1.58h.89l-1.56 2.08 1.75 2.44h-.95l-1.26-1.87-1.26 1.87h-.9l1.69-2.38-1.57-2.14z" fill="#002751"/></svg>