<svg xmlns="http://www.w3.org/2000/svg" width="38" height="24" fill="none" aria-labelledby="pi-payfast_instant_eft" role="img" viewBox="0 0 38 24"><title id="pi-payfast_instant_eft">PayFast Instant EFT</title><path fill="#fff" d="M0 0h38v24H0z"/><path fill="#23509F" d="M15.58 7.44H9.53v.55h5.96zm-.26 1.6H5.78v.55h9.45l.1-.56Zm-.26 1.59H1.8v.55h13.17l.1-.55Zm1.73-3.68c.01-.09.12-.2.22-.2h5.25c.1 0 .14.08.13.17l-.44 2.66c-.01.1-.1.15-.18.15H19.3a.12.12 0 0 0-.13.1l-.13.83c-.01.06.04.1.09.1h1.17c.06 0 .1.05.08.11l-.43 2.7c-.02.07-.09.13-.14.13h-1.2c-.06 0-.11.04-.13.12l-.14.87c0 .06.03.1.07.1h2.56c.1 0 .15.08.14.15l-.44 2.75a.2.2 0 0 1-.2.16h-5.29c-.09 0-.15-.08-.13-.19l1.74-10.7zm6.21.01c.02-.1.1-.2.21-.2h5.33c.1 0 .16.07.15.16l-.42 2.57a.24.24 0 0 1-.22.2h-2.4a.19.19 0 0 0-.19.16l-.14.89c-.02.07.02.13.12.13h1.13c.07 0 .15.08.14.15l-.44 2.68a.2.2 0 0 1-.2.16h-1.11c-.08 0-.17.1-.18.2l-.59 3.59c-.02.13-.1.2-.22.2h-2.58c-.07 0-.14-.08-.13-.19zm6.44 10.9a.18.18 0 0 1-.17-.14v-.07l1.25-7.73c.02-.1-.06-.17-.16-.17h-1.48c-.09 0-.17-.12-.16-.21l.43-2.63c.01-.1.07-.15.16-.15h6.33c.1 0 .18.06.16.18l-.42 2.6a.25.25 0 0 1-.24.2h-1.48c-.1 0-.19.08-.21.21l-1.25 7.71a.24.24 0 0 1-.24.2z"/></svg>