<svg id="Layer_1" data-name="Layer 1" xmlns="http://www.w3.org/2000/svg" viewBox="0 0 38 24"><path d="M.74,23.88a.48.48,0,0,1-.47-.48V1.09a1,1,0,0,1,1-1h36a.48.48,0,0,1,.47.48V23.4a.48.48,0,0,1-.47.48Z" fill="#fff"/><path d="M37.26.25a.35.35,0,0,1,.35.35V23.4a.35.35,0,0,1-.35.35H.74a.35.35,0,0,1-.35-.35V1.09A.85.85,0,0,1,1.23.25h36m0-.25h-36A1.09,1.09,0,0,0,.14,1.09V23.4a.6.6,0,0,0,.6.6H37.26a.6.6,0,0,0,.6-.6V.6a.6.6,0,0,0-.6-.6Z" fill="#ccc"/><polygon points="32.7 9.82 33.61 9.82 34.66 11.34 35.74 9.82 36.6 9.82 35.1 11.82 36.78 14.16 35.87 14.16 34.66 12.37 33.45 14.16 32.58 14.16 34.21 11.88 32.7 9.82" fill="#29aae1"/><path d="M14.62,11.36a1.64,1.64,0,0,0-.24-.52,1.22,1.22,0,0,0-.42-.36,1.45,1.45,0,0,0-1.22,0,1.24,1.24,0,0,0-.41.38,1.45,1.45,0,0,0-.23.52A2.46,2.46,0,0,0,12,12a2.56,2.56,0,0,0,.07.62,1.55,1.55,0,0,0,.24.52,1.3,1.3,0,0,0,.43.37,1.33,1.33,0,0,0,.63.14,1.21,1.21,0,0,0,.62-.15,1.09,1.09,0,0,0,.39-.38,1.32,1.32,0,0,0,.22-.53A2.65,2.65,0,0,0,14.7,12a2.33,2.33,0,0,0-.08-.59M12.05,9.82v.59h0a1.09,1.09,0,0,1,.55-.53,2.1,2.1,0,0,1,.84-.16,1.83,1.83,0,0,1,1.5.68,2.28,2.28,0,0,1,.37.73,3.1,3.1,0,0,1,.13.87,3.17,3.17,0,0,1-.12.88,2.45,2.45,0,0,1-.37.72,1.89,1.89,0,0,1-.63.48,2,2,0,0,1-.87.18,1.56,1.56,0,0,1-.35,0,1.82,1.82,0,0,1-.4-.11,1.43,1.43,0,0,1-.36-.2,1.15,1.15,0,0,1-.29-.33h0v2.24h-.71v-6Z" fill="#8c64aa"/><path d="M18.82,11.92a.86.86,0,0,1-.35.15l-.46.07-.49.07a1.43,1.43,0,0,0-.43.12.87.87,0,0,0-.32.24.66.66,0,0,0-.12.42.56.56,0,0,0,.07.3.58.58,0,0,0,.19.19.68.68,0,0,0,.26.11,1.12,1.12,0,0,0,.32,0,1.81,1.81,0,0,0,.61-.1,1.27,1.27,0,0,0,.41-.24,1.12,1.12,0,0,0,.23-.32.79.79,0,0,0,.08-.32ZM20,14.15a1,1,0,0,1-.51.11A.57.57,0,0,1,19,14.1a.66.66,0,0,1-.17-.51,1.59,1.59,0,0,1-.68.51,2.18,2.18,0,0,1-.85.16,2.6,2.6,0,0,1-.56-.07,1.21,1.21,0,0,1-.46-.21,1.09,1.09,0,0,1-.3-.37,1.22,1.22,0,0,1-.12-.56,1.35,1.35,0,0,1,.13-.61,1,1,0,0,1,.33-.38,1.56,1.56,0,0,1,.47-.22,5.29,5.29,0,0,1,.54-.13l.56-.09a4.13,4.13,0,0,0,.47-.08.87.87,0,0,0,.32-.16.39.39,0,0,0,.12-.31.71.71,0,0,0-.09-.38.69.69,0,0,0-.23-.22.94.94,0,0,0-.31-.1l-.34,0a1.61,1.61,0,0,0-.76.17.72.72,0,0,0-.32.65h-.72a1.55,1.55,0,0,1,.17-.68,1.44,1.44,0,0,1,.4-.45,1.79,1.79,0,0,1,.58-.25,3.11,3.11,0,0,1,.69-.07,3.9,3.9,0,0,1,.59,0,1.45,1.45,0,0,1,.52.17,1,1,0,0,1,.38.37,1.1,1.1,0,0,1,.14.61v2.23a1.64,1.64,0,0,0,0,.37c0,.08.09.12.2.12a.64.64,0,0,0,.22,0Z" fill="#8c64aa"/><path d="M22.18,14.74a2.75,2.75,0,0,1-.25.54,1.3,1.3,0,0,1-.27.36.83.83,0,0,1-.32.2,1.33,1.33,0,0,1-.42.06h-.25a1,1,0,0,1-.25-.06v-.66l.22.08.21,0a.61.61,0,0,0,.36-.1.62.62,0,0,0,.22-.3l.3-.73L20,9.82h.81l1.27,3.55h0l1.22-3.55h.75Z" fill="#8c64aa"/><path d="M24.24,10.45V9.82H25V9.17a1,1,0,0,1,.31-.8,1.31,1.31,0,0,1,.9-.27h.23l.23.05v.62l-.2,0h-.21a.68.68,0,0,0-.4.1c-.1.06-.14.19-.14.38v.61h.84v.63h-.84v3.71H25V10.45Z" fill="#29aae1"/><rect x="27.21" y="8.16" width="0.71" height="6" fill="#29aae1"/><path d="M31.77,11.1a1.11,1.11,0,0,0-.26-.39,1.36,1.36,0,0,0-.39-.27,1.3,1.3,0,0,0-.49-.09,1.35,1.35,0,0,0-.5.09,1.19,1.19,0,0,0-.38.27,1.14,1.14,0,0,0-.25.39,1.3,1.3,0,0,0-.11.48h2.49a1.53,1.53,0,0,0-.11-.48m.17,2.79a2,2,0,0,1-1.23.37,2.29,2.29,0,0,1-.9-.17,1.78,1.78,0,0,1-.64-.47,1.8,1.8,0,0,1-.39-.72,3.34,3.34,0,0,1-.15-.92,2.67,2.67,0,0,1,.15-.91,2,2,0,0,1,.43-.71,1.75,1.75,0,0,1,.64-.47,1.88,1.88,0,0,1,.82-.17,1.75,1.75,0,0,1,1,.24,1.9,1.9,0,0,1,.62.61,2.44,2.44,0,0,1,.32.8,3.53,3.53,0,0,1,.07.84H29.39a1.6,1.6,0,0,0,.06.54,1.11,1.11,0,0,0,.25.45,1.18,1.18,0,0,0,.43.32,1.41,1.41,0,0,0,.61.12,1.16,1.16,0,0,0,.74-.22,1,1,0,0,0,.39-.63h.7a1.72,1.72,0,0,1-.63,1.1" fill="#29aae1"/><path d="M6.09,10.94A5,5,0,0,0,6,12a4.87,4.87,0,0,0,.1,1,5.09,5.09,0,0,1,2.6,1.4,3.4,3.4,0,0,1,0-4.82,5.07,5.07,0,0,1-2.6,1.39" fill="#81d3f3"/><path d="M4.07,10.94a4.88,4.88,0,0,0,1,.11h0a4.88,4.88,0,0,0,1-.11,5.09,5.09,0,0,1,1.4-2.6,3.4,3.4,0,0,1-4.82,0,5.16,5.16,0,0,1,1.4,2.6" fill="#81d3f3"/><path d="M6.09,13a4.87,4.87,0,0,0-1-.1,4.87,4.87,0,0,0-1,.1,5.16,5.16,0,0,1-1.4,2.6,3.4,3.4,0,0,1,4.82,0A5.09,5.09,0,0,1,6.09,13" fill="#c5b1d4"/><path d="M4.07,13a5.67,5.67,0,0,0,.1-1,5.87,5.87,0,0,0-.1-1,5,5,0,0,1-2.6-1.39,3.41,3.41,0,0,1,1,2.41,3.42,3.42,0,0,1-1,2.41A5,5,0,0,1,4.07,13" fill="#c5b1d4"/><path d="M1.47,8.34a.85.85,0,0,0,0,1.21,5,5,0,0,0,2.6,1.39,5.16,5.16,0,0,0-1.4-2.6.85.85,0,0,0-1.2,0" fill="#5592cd"/><path d="M1.47,15.57a.85.85,0,0,0,1.2,0A5.16,5.16,0,0,0,4.07,13a5,5,0,0,0-2.6,1.4.83.83,0,0,0,0,1.2" fill="#8c64aa"/><path d="M8.69,15.57a.85.85,0,0,1-1.2,0A5.09,5.09,0,0,1,6.09,13a5.09,5.09,0,0,1,2.6,1.4.85.85,0,0,1,0,1.2" fill="#5592cd"/><path d="M8.69,8.34a.86.86,0,0,1,0,1.21,5.07,5.07,0,0,1-2.6,1.39,5.09,5.09,0,0,1,1.4-2.6.85.85,0,0,1,1.2,0" fill="#29aae1"/></svg>