<svg xmlns="http://www.w3.org/2000/svg" width="38" height="24" fill="none" aria-labelledby="pi-payitmonthly" role="img" viewBox="0 0 38 24"><title id="pi-payitmonthly">PayItMonthly</title><path fill="#C5B4E2" d="M0 0h38v24H0z"/><path fill="#fff" d="M15.34 7.78a1.6 1.6 0 0 0-.99-.7 1.59 1.59 0 1 0 1 .71zm-.65 1a.72.72 0 0 1-.85.54.72.72 0 0 1-.54-.85.7.7 0 0 1 .69-.55c.05 0 .1 0 .15.02a.7.7 0 0 1 .44.31c.1.16.14.35.09.53z"/><path fill="#fff" stroke="#fff" stroke-miterlimit="10" stroke-width=".5" d="M29.45 12.26v-.14a7.7 7.7 0 0 0-11.2-6.84 5.44 5.44 0 0 0-9.72 3.36v10.19a2 2 0 0 0 2 1.93c1.08 0 2-.9 2-2v-.95c0-.24-.2-.44-.44-.44s-.44.2-.44.44v.95a1.12 1.12 0 1 1-2.24 0V8.63a4.56 4.56 0 1 1 2.97 4.28.44.44 0 0 0-.57.26c-.09.23.03.48.26.57.61.23 1.25.34 1.9.34h.09v3.84c.02 1 .66 2.9 2.91 2.9H20v-3.68a2.61 2.61 0 0 0 3.5 0v.68c.02 1 .66 2.9 2.91 2.9h3.03v-8.44zm-.87 5.53v2.03h-2.15c-.82 0-1.39-.32-1.74-.97-.26-.5-.29-1.02-.3-1.07v-2.62c0-.24-.2-.44-.44-.44s-.44.2-.44.44a1.75 1.75 0 0 1-3.5 0c0-.24-.2-.44-.44-.44s-.44.2-.44.44v4.76h-2.15c-.82 0-1.39-.32-1.74-.97-.26-.5-.29-1.02-.3-1.07v-3.91A5.45 5.45 0 0 0 18.74 6a6.82 6.82 0 0 1 9.83 6.11v5.67h.01z"/></svg>