<svg width="38" height="24" viewBox="0 0 38 24" role="img" aria-labelledby="pi-payinstore" xmlns="http://www.w3.org/2000/svg"><title id="pi-payinstore">Pay Instore</title><path opacity=".07" d="M35 0H3C1.3 0 0 1.3 0 3v18c0 1.7 1.4 3 3 3h32c1.7 0 3-1.3 3-3V3c0-1.7-1.4-3-3-3z"/><path d="M35 1c1.1 0 2 .9 2 2v18c0 1.1-.9 2-2 2H3c-1.1 0-2-.9-2-2V3c0-1.1.9-2 2-2h32z" fill="#1c3b6c" fill-opacity="1"/><g transform="translate(-.033 -.018) scale(.99936)" stroke-width="1.001"><rect x="18.09" y="3.1" width="12.05" height="17.63" rx="1.211" ry="1.211" fill="#fff"/><rect x="19.54" y="5.14" width="9.13" height="6.08" rx=".63" ry=".63" fill="#003163"/><rect x="19.73" y="12.77" width="2.22" height="1.45" rx=".15" ry=".15" fill="#003163"/><rect x="23" y="12.77" width="2.22" height="1.45" rx=".15" ry=".15" fill="#003163"/><rect x="26.27" y="12.77" width="2.22" height="1.45" rx=".15" ry=".15" fill="#003163"/><rect x="19.73" y="15.13" width="2.22" height="1.45" rx=".15" ry=".15" fill="#003163"/><rect x="23" y="15.13" width="2.22" height="1.45" rx=".15" ry=".15" fill="#003163"/><rect x="26.27" y="15.13" width="2.22" height="1.45" rx=".15" ry=".15" fill="#003163"/><rect x="19.73" y="17.51" width="2.22" height="1.45" rx=".15" ry=".15" fill="#003163"/><rect x="23" y="17.51" width="2.22" height="1.45" rx=".15" ry=".15" fill="#003163"/><rect x="26.27" y="17.51" width="2.22" height="1.45" rx=".15" ry=".15" fill="#003163"/><path d="M18.56 14.01c-.14.62-.65 1.08-1.27 1.17-.07 0-.14.01-.21.01H15.3c-.12 0-.15-.04-.14-.15l.07-.63c0-.06.05-.1.11-.1h.19c.1 0 .13-.04.13-.14V5.16a.156.156 0 00-.08-.06h-3.37a.611.611 0 00-.63.54v8.14c0 .22.13.41.34.48.03.01.06.01.09 0 .13-.1.24-.21.34-.35.19-.25.35-.52.48-.81.02-.06.03-.13.04-.2.06-.47.19-.93.38-1.37.1-.24.27-.46.48-.62.17-.13.38-.19.59-.16a.4.4 0 01.22.14c.11.13.17.28.19.45.05.3.05.6 0 .89-.06.38-.14.76-.25 1.14-.03.14-.05.28-.06.42-.04.37-.09.74-.13 1.11-.04.37-.09.75-.13 1.13-.03.24-.09.48-.18.71a6.36 6.36 0 01-.95 1.78c-.08.1-.16.18-.24.28a.3.3 0 00-.04.1v.24h.1c.21 0 .37.17.37.37v1.01c0 .2-.17.37-.37.37H8.79c-.2 0-.37-.17-.37-.37v-1.01c0-.19.14-.34.33-.37h.07c-.02-.17-.04-.33-.05-.49-.04-.37-.09-.74-.13-1.11-.04-.37-.09-.75-.14-1.13-.05-.38-.1-.79-.16-1.19-.07-.57-.17-1.14-.3-1.71-.02-.08-.07-.15-.09-.22-.03-.08-.05-.17-.06-.26-.05-.28-.03-.58.05-.85.07-.19.19-.36.34-.5.16-.14.3-.3.45-.45.4-.41.8-.84 1.2-1.25.24-.24.48-.48.73-.71.02-.02.02-.05.02-.07V5.89c-.01-.77.55-1.43 1.32-1.53.07-.01.14-.02.21-.01h4.97c.72 0 1.33.54 1.41 1.26v8.18c0 .07-.01.14-.03.21zm-1.55.16c0 .11.03.13.14.13.31-.03.55-.28.56-.59V5.72a.61.61 0 00-.59-.62c-.08 0-.12.04-.12.12v8.96h.01z" fill="#fff"/></g></svg>