<svg viewBox="0 0 38 24" role="img" xmlns="http://www.w3.org/2000/svg" width="38" height="24" aria-labelledby="pi-payitmonthly"><title id="pi-payitmonthly">PayItMonthly</title><path fill="#c5b4e2" d="M35 0H3C1.3 0 0 1.3 0 3v18c0 1.7 1.4 3 3 3h32c1.7 0 3-1.3 3-3V3c0-1.7-1.4-3-3-3z"/><path d="M15.34 7.78c-.23-.36-.58-.6-.99-.7a1.586 1.586 0 10-.68 3.1c.11.02.23.04.34.04.73 0 1.38-.5 1.55-1.24.09-.41.02-.84-.21-1.19zm-.65 1c-.09.38-.46.62-.85.54a.719.719 0 01-.54-.85c.07-.33.37-.55.69-.55.05 0 .1 0 .15.02.18.04.34.15.44.31.1.16.14.35.09.53z" fill="#fff"/><path d="M29.45 12.26v-.14c0-4.24-3.45-7.69-7.69-7.69-1.22 0-2.43.29-3.51.85-1-1.27-2.55-2.08-4.28-2.08-3 0-5.44 2.44-5.44 5.44v10.19h0c.04 1.07.92 1.93 2 1.93s2-.9 2-2v-.95c0-.24-.2-.44-.44-.44s-.44.2-.44.44v.95c0 .62-.5 1.12-1.12 1.12s-1.12-.5-1.12-1.12V8.63c0-2.51 2.04-4.56 4.56-4.56s4.56 2.04 4.56 4.56-2.04 4.56-4.56 4.56c-.55 0-1.08-.1-1.59-.28-.23-.09-.48.03-.57.26s.03.48.26.57c.61.23 1.25.34 1.9.34h.09v3.84c.02 1 .66 2.9 2.91 2.9H20v-3.68c.47.42 1.08.67 1.75.67s1.29-.25 1.75-.67v.68c.02 1 .66 2.9 2.91 2.9h3.03v-8.44h0zm-.87 5.53v2.03h-2.15c-.82 0-1.39-.32-1.74-.97-.26-.5-.29-1.02-.3-1.07v-2.62c0-.24-.2-.44-.44-.44s-.44.2-.44.44c0 .97-.79 1.75-1.75 1.75s-1.75-.79-1.75-1.75c0-.24-.2-.44-.44-.44s-.44.2-.44.44v4.76h-2.15c-.82 0-1.39-.32-1.74-.97-.26-.5-.29-1.02-.3-1.07v-3.91c2.53-.46 4.47-2.68 4.47-5.35 0-.95-.25-1.84-.67-2.62.94-.46 1.97-.7 3.02-.7 3.75 0 6.81 3.05 6.81 6.81v.42h0v5.25h.01z" fill="#fff" stroke="#fff" stroke-miterlimit="10" stroke-width=".5"/></svg>