
<svg width="50" height="32" viewBox="0 0 50 32" fill="none" xmlns="http://www.w3.org/2000/svg" role="img" aria-labelledby="payjustnow"><title id="payjustnow">PayJustNow</title><path d="M4 0.5 H46 A3.5 3.5 0 0 1 49.5 4 V27 A3.5 3.5 0 0 1 46 30.5 H4 A3.5 3.5 0 0 1 0.5 27 V4 A3.5 3.5 0 0 1 4 0.5 Z" stroke="#C4C7C7" fill="#FFFFFF"/><path d="M16.782 16.032C16.7857 15.9146 16.7653 15.7977 16.7218 15.6882C16.6783 15.5787 16.6126 15.4788 16.5288 15.3945C16.445 15.3102 16.3446 15.2432 16.2337 15.1974C16.1228 15.1516 16.0036 15.128 15.8832 15.128C15.7628 15.128 15.6436 15.1516 15.5327 15.1974C15.4218 15.2432 15.3214 15.3102 15.2376 15.3945C15.1538 15.4788 15.0881 15.5787 15.0447 15.6882C15.0012 15.7977 14.9807 15.9146 14.9844 16.032C14.9807 16.1494 15.0012 16.2663 15.0447 16.3758C15.0881 16.4853 15.1538 16.5852 15.2376 16.6695C15.3214 16.7538 15.4218 16.8209 15.5327 16.8667C15.6436 16.9124 15.7628 16.936 15.8832 16.936C16.0036 16.936 16.1228 16.9124 16.2337 16.8667C16.3446 16.8209 16.445 16.7538 16.5288 16.6695C16.6126 16.5852 16.6783 16.4853 16.7218 16.3758C16.7653 16.2663 16.7857 16.1494 16.782 16.032M15.8759 17.5825C15.6641 17.5873 15.4534 17.5508 15.2562 17.475C15.059 17.3993 14.8794 17.2859 14.7278 17.1415C14.5762 16.9971 14.4558 16.8246 14.3736 16.6341C14.2913 16.4437 14.249 16.2391 14.249 16.0324C14.249 15.8258 14.2913 15.6212 14.3736 15.4308C14.4558 15.2403 14.5762 15.0678 14.7278 14.9234C14.8794 14.779 15.059 14.6656 15.2562 14.5898C15.4534 14.5141 15.6641 14.4776 15.8759 14.4824H17.4522V17.5825H15.8759Z" fill="black"/><path d="M21.0043 14.9267L18.9235 19.2H18.1513L18.9965 17.4813L17.7694 14.9334C17.7473 14.8907 17.7343 14.8441 17.731 14.7964C17.7277 14.7488 17.7342 14.7009 17.7502 14.6557C17.7662 14.6106 17.7913 14.569 17.8241 14.5334C17.8569 14.4979 17.8967 14.4692 17.941 14.4489C17.9851 14.428 18.0331 14.4164 18.0821 14.4146C18.131 14.4129 18.1798 14.4212 18.2252 14.4389C18.2707 14.4566 18.3119 14.4834 18.3461 14.5176C18.3804 14.5517 18.4069 14.5924 18.4241 14.6371L19.3989 16.6721L20.3737 14.6238C20.393 14.5819 20.4209 14.5443 20.4555 14.5131C20.4901 14.482 20.5308 14.4579 20.5752 14.4425C20.6195 14.427 20.6666 14.4204 20.7136 14.423C20.7606 14.4256 20.8066 14.4375 20.8489 14.4578C20.8911 14.4781 20.9287 14.5066 20.9594 14.5414C20.9902 14.5762 21.0134 14.6167 21.0278 14.6604C21.0421 14.7042 21.0473 14.7503 21.0429 14.796C21.0386 14.8418 21.0249 14.8862 21.0026 14.9267" fill="black"/><path d="M20.6967 17.5825V16.9131H21.1738C21.6235 16.9131 21.8508 16.6704 21.8603 16.2261V12.8649H22.5862V16.2956C22.5862 17.0445 22.0199 17.5833 21.2459 17.5833L20.6967 17.5825Z" fill="black"/><path d="M24.5189 17.5825C23.7097 17.5825 23.116 16.9893 23.116 16.1877V14.4824H23.8067V16.2078C23.8067 16.3051 23.8264 16.4015 23.8646 16.4915C23.9028 16.5814 23.9588 16.6631 24.0294 16.732C24.1 16.8008 24.1838 16.8554 24.276 16.8927C24.3683 16.9299 24.4671 16.9491 24.567 16.9491C24.6668 16.9491 24.7657 16.9299 24.8579 16.8927C24.9501 16.8554 25.0339 16.8008 25.1045 16.732C25.1751 16.6631 25.2311 16.5814 25.2693 16.4915C25.3075 16.4015 25.3272 16.3051 25.3272 16.2078V14.4824H26.0188V17.5825H24.5189Z" fill="black"/><path d="M26.5397 17.5825V16.9491H27.9564C27.9986 16.9513 28.0408 16.945 28.0805 16.9308C28.1202 16.9165 28.1564 16.8945 28.1871 16.8661C28.2178 16.8378 28.2422 16.8036 28.2589 16.7657C28.2756 16.7278 28.2842 16.687 28.2842 16.6458C28.2842 16.6046 28.2756 16.5638 28.2589 16.5259C28.2422 16.488 28.2178 16.4538 28.1871 16.4255C28.1564 16.3971 28.1202 16.3751 28.0805 16.3608C28.0408 16.3465 27.9986 16.3403 27.9564 16.3425H27.4913C26.925 16.3425 26.5105 15.9517 26.5105 15.412C26.5105 14.8723 26.925 14.4824 27.4913 14.4824H28.9243V15.1158H27.5205C27.4783 15.1136 27.436 15.1199 27.3964 15.1341C27.3567 15.1484 27.3204 15.1704 27.2897 15.1988C27.2591 15.2271 27.2346 15.2613 27.2179 15.2992C27.2013 15.3371 27.1927 15.3779 27.1927 15.4191C27.1927 15.4603 27.2013 15.5011 27.2179 15.539C27.2346 15.5769 27.2591 15.6111 27.2897 15.6394C27.3204 15.6678 27.3567 15.6898 27.3964 15.7041C27.436 15.7184 27.4783 15.7246 27.5205 15.7224H28.9243V17.5825H26.5397Z" fill="black"/><path d="M30.8595 16.919C30.4098 16.919 30.1816 16.6763 30.173 16.232V15.1158H31.2087V14.4824H30.1747V13.4456H29.4488V16.2948C29.4488 17.0428 30.016 17.5825 30.79 17.5825H31.3357V16.9131L30.8595 16.919Z" fill="black"/><path d="M12.7033 15.0781C12.907 15.0716 13.1 14.9881 13.2417 14.8453C13.3833 14.7025 13.4625 14.5116 13.4625 14.3129C13.4625 14.1143 13.3833 13.9234 13.2417 13.7806C13.1 13.6378 12.907 13.5543 12.7033 13.5477H12.6965C12.5912 13.5443 12.4864 13.5616 12.3881 13.5985C12.2899 13.6355 12.2003 13.6913 12.1246 13.7627C12.0489 13.8341 11.9888 13.9196 11.9477 14.0141C11.9066 14.1086 11.8854 14.2103 11.8854 14.3129C11.8854 14.4156 11.9066 14.5172 11.9477 14.6118C11.9888 14.7063 12.0489 14.7918 12.1246 14.8632C12.2003 14.9346 12.2899 14.9904 12.3881 15.0273C12.4864 15.0643 12.5912 15.0815 12.6965 15.0781H12.7033ZM11.218 17.5884V12.8649H12.7454C12.9435 12.8603 13.1406 12.8943 13.325 12.965C13.5094 13.0358 13.6775 13.1417 13.8193 13.2767C13.9611 13.4117 14.0738 13.573 14.1507 13.7511C14.2276 13.9292 14.2673 14.1205 14.2673 14.3138C14.2673 14.507 14.2276 14.6983 14.1507 14.8764C14.0738 15.0545 13.9611 15.2158 13.8193 15.3508C13.6775 15.4858 13.5094 15.5918 13.325 15.6625C13.1406 15.7332 12.9435 15.7672 12.7454 15.7626H11.9431V17.5825L11.218 17.5884Z" fill="black"/><path d="M33.7295 16.4027V14.0372C33.7295 13.6866 33.4876 13.4439 33.1632 13.4439C32.8389 13.4439 32.5892 13.6866 32.5892 14.0372V17.5825H31.8675V14.074C31.862 13.9058 31.8917 13.7384 31.955 13.5818C32.0182 13.4253 32.1136 13.2831 32.2352 13.1638C32.3569 13.0445 32.5023 12.9508 32.6624 12.8883C32.8226 12.8258 32.9942 12.7959 33.1667 12.8004C33.9063 12.8004 34.4589 13.3326 34.4589 14.074V16.4403C34.4559 16.5152 34.4685 16.5898 34.4958 16.6598C34.5231 16.7298 34.5646 16.7937 34.6179 16.8477C34.6711 16.9016 34.735 16.9446 34.8056 16.9739C34.8763 17.0032 34.9523 17.0183 35.0291 17.0183C35.1059 17.0183 35.1819 17.0032 35.2526 16.9739C35.3232 16.9446 35.3871 16.9016 35.4403 16.8477C35.4936 16.7937 35.5351 16.7298 35.5624 16.6598C35.5897 16.5898 35.6023 16.5152 35.5993 16.4403V12.8649H36.3252V16.4027C36.3165 16.7323 36.1761 17.0455 35.934 17.2756C35.6919 17.5057 35.3672 17.6345 35.0291 17.6345C34.691 17.6345 34.3663 17.5057 34.1242 17.2756C33.882 17.0455 33.7417 16.7323 33.733 16.4027" fill="black"/><path d="M38.5242 16.9759C38.7758 16.9686 39.0146 16.866 39.1899 16.6899C39.3652 16.5137 39.4633 16.2779 39.4633 16.0325C39.4633 15.787 39.3652 15.5512 39.1899 15.3751C39.0146 15.1989 38.7758 15.0963 38.5242 15.089H38.5105C38.2589 15.0963 38.0201 15.1989 37.8448 15.3751C37.6695 15.5512 37.5714 15.787 37.5714 16.0325C37.5714 16.2779 37.6695 16.5137 37.8448 16.6899C38.0201 16.866 38.2589 16.9686 38.5105 16.9759H38.5242ZM38.5105 17.6495C38.0706 17.6495 37.6487 17.4791 37.3376 17.1758C37.0266 16.8724 36.8518 16.461 36.8518 16.0321C36.8518 15.6031 37.0266 15.1917 37.3376 14.8884C37.6487 14.585 38.0706 14.4146 38.5105 14.4146H38.5242C38.9641 14.4146 39.386 14.585 39.697 14.8884C40.0081 15.1917 40.1829 15.6031 40.1829 16.0321C40.1829 16.461 40.0081 16.8724 39.697 17.1758C39.386 17.4791 38.9641 17.6495 38.5242 17.6495H38.5105Z" fill="black"/><path d="M7.58435 15.9023L8.25879 17.2168C8.27907 17.2554 8.28879 17.2983 8.287 17.3416C8.28521 17.3849 8.27196 17.427 8.24856 17.4638C8.22515 17.5006 8.19238 17.5309 8.15342 17.5517C8.11447 17.5725 8.07066 17.5831 8.02625 17.5825H5.07793C5.00966 17.5825 4.94418 17.556 4.89591 17.509C4.84763 17.4619 4.82051 17.398 4.82051 17.3315V13.1184C4.82051 13.0518 4.84763 12.988 4.89591 12.9409C4.94418 12.8938 5.00966 12.8674 5.07793 12.8674H9.39573C9.464 12.8674 9.52947 12.8938 9.57775 12.9409C9.62602 12.988 9.65315 13.0518 9.65315 13.1184V15.9985C9.65368 16.0419 9.6427 16.0846 9.62126 16.1226C9.59983 16.1606 9.56867 16.1925 9.53083 16.2152C9.49298 16.238 9.44974 16.2508 9.40531 16.2524C9.36088 16.254 9.31679 16.2444 9.27731 16.2244L7.93015 15.5676C7.88202 15.5443 7.82765 15.5363 7.77463 15.5447C7.72162 15.5531 7.67262 15.5774 7.6345 15.6143C7.59638 15.6512 7.57105 15.6988 7.56206 15.7505C7.55307 15.8021 7.56086 15.8552 7.58435 15.9023" fill="black"/><path d="M44.4064 14.4824H45.1246L44.1988 17.2252C44.1018 17.5215 43.9414 17.6495 43.7148 17.6495C43.4883 17.6495 43.3278 17.5215 43.2172 17.2311L42.6577 15.7249L42.0974 17.2311C41.9875 17.5206 41.8348 17.6495 41.6074 17.6495C41.38 17.6495 41.2204 17.5215 41.1235 17.2252L40.2045 14.4824H40.9501L41.6486 16.5575L42.2218 15.0514C42.3188 14.7953 42.4638 14.6874 42.6714 14.6874C42.8791 14.6874 43.0241 14.7953 43.1202 15.0514L43.7011 16.5818L44.4064 14.4824Z" fill="black"/><path d="M45.3229 17.0981C45.3355 17.0982 45.3481 17.0958 45.3597 17.0911C45.3714 17.0863 45.3819 17.0793 45.3907 17.0705C45.3997 17.0621 45.4069 17.052 45.4118 17.0407C45.4166 17.0295 45.4191 17.0174 45.419 17.0053C45.4192 16.9928 45.4168 16.9804 45.412 16.9689C45.4071 16.9574 45.3999 16.947 45.3907 16.9383C45.3821 16.9292 45.3716 16.922 45.3599 16.9171C45.3482 16.9122 45.3356 16.9097 45.3229 16.9099C45.3102 16.9094 45.2975 16.9117 45.2857 16.9166C45.274 16.9215 45.2635 16.929 45.2551 16.9383C45.246 16.947 45.2387 16.9574 45.2339 16.9689C45.229 16.9804 45.2266 16.9928 45.2268 17.0053C45.2273 17.0299 45.2376 17.0534 45.2555 17.0707C45.2735 17.0881 45.2976 17.0979 45.3229 17.0981M45.1247 17.3851V16.8103H45.3135C45.3699 16.8076 45.4251 16.8269 45.4671 16.8638C45.4865 16.8817 45.5018 16.9034 45.5119 16.9275C45.522 16.9516 45.5266 16.9776 45.5254 17.0036C45.5259 17.0396 45.5158 17.0751 45.4963 17.1058C45.4769 17.1364 45.4489 17.1611 45.4156 17.1768L45.5503 17.3851H45.4293L45.3075 17.1977H45.2268V17.3851H45.1247ZM45.3083 17.5441C45.388 17.5449 45.4664 17.5244 45.5349 17.4847C45.6372 17.4229 45.7112 17.325 45.7414 17.2114C45.7716 17.0978 45.7557 16.9772 45.697 16.8747C45.6585 16.8077 45.6025 16.7517 45.5349 16.7124C45.4664 16.6729 45.3883 16.6521 45.3088 16.6521C45.2292 16.6521 45.1511 16.6729 45.0827 16.7124C45.0148 16.7513 44.9591 16.8074 44.9213 16.8747C44.8825 16.9432 44.8621 17.0203 44.8621 17.0986C44.8621 17.1768 44.8825 17.2539 44.9213 17.3224C44.9599 17.3894 45.0158 17.4454 45.0835 17.4847C45.1515 17.524 45.2293 17.5446 45.3083 17.5441M45.3083 17.6496C45.2091 17.6489 45.1117 17.623 45.0259 17.5743C44.9401 17.5257 44.8688 17.456 44.8192 17.3721C44.7696 17.2883 44.7433 17.1932 44.743 17.0964C44.7427 16.9996 44.7684 16.9045 44.8175 16.8203C44.8798 16.7147 44.9762 16.6322 45.0916 16.5856C45.2071 16.539 45.3351 16.5309 45.4557 16.5626C45.5763 16.5943 45.6828 16.664 45.7586 16.7609C45.8344 16.8577 45.8752 16.9763 45.8747 17.0981C45.8758 17.1709 45.8619 17.2432 45.8339 17.3107C45.8058 17.3781 45.7641 17.4394 45.7113 17.4909C45.6585 17.5423 45.5956 17.5829 45.5263 17.6101C45.4571 17.6374 45.383 17.6508 45.3083 17.6496" fill="black"/></svg>