<?xml version="1.0" encoding="UTF-8" standalone="no"?>
<svg
   xmlns:dc="http://purl.org/dc/elements/1.1/"
   xmlns:cc="http://creativecommons.org/ns#"
   xmlns:rdf="http://www.w3.org/1999/02/22-rdf-syntax-ns#"
   xmlns:svg="http://www.w3.org/2000/svg"
   xmlns="http://www.w3.org/2000/svg"
   xmlns:sodipodi="http://sodipodi.sourceforge.net/DTD/sodipodi-0.dtd"
   xmlns:inkscape="http://www.inkscape.org/namespaces/inkscape"
   id="Layer_1"
   data-name="Layer 1"
   viewBox="0 0 38 24"
   version="1.1"
   sodipodi:docname="paymark_online_eftpos.svg"
   inkscape:version="0.92.1 r15371"
   width="38"
   height="24">
  <metadata
     id="metadata3729">
    <rdf:RDF>
      <cc:Work
         rdf:about="">
        <dc:format>image/svg+xml</dc:format>
        <dc:type
           rdf:resource="http://purl.org/dc/dcmitype/StillImage" />
        <dc:title>Online Eftpos by Paymark_Hor_dark-380x240</dc:title>
      </cc:Work>
    </rdf:RDF>
  </metadata>
  <sodipodi:namedview
     pagecolor="#ffffff"
     bordercolor="#666666"
     borderopacity="1"
     objecttolerance="10"
     gridtolerance="10"
     guidetolerance="10"
     inkscape:pageopacity="0"
     inkscape:pageshadow="2"
     inkscape:window-width="1600"
     inkscape:window-height="837"
     id="namedview3727"
     showgrid="false"
     inkscape:zoom="9.9937758"
     inkscape:cx="38.153532"
     inkscape:cy="10.60066"
     inkscape:window-x="-8"
     inkscape:window-y="-8"
     inkscape:window-maximized="1"
     inkscape:current-layer="Layer_1" />
  <defs
     id="defs3682">
    <style
       id="style3680">.cls-1{fill:none;}.cls-2{fill:#29243f;}</style>
  </defs>
  <title
     id="title3684">Online Eftpos by Paymark_Hor_dark-380x240</title>
  <g
     id="g3751"
     transform="matrix(0.09904125,0,0,0.09904125,0.16582069,0.56766851)">
    <path
       id="path3686"
       d="M 40.84,80.3 A 35.12,35.12 0 1 0 76,115.42 35.12,35.12 0 0 0 40.84,80.3 Z m 0,67.4 a 31.87,31.87 0 1 1 31.87,-31.87 31.87,31.87 0 0 1 -31.87,31.88 z"
       class="cls-1"
       inkscape:connector-curvature="0"
       style="fill:none" />
    <path
       id="path3688"
       d="m 47.61,110.63 c -0.28,1 -1,1.37 -1.68,1.07 a 1.19,1.19 0 0 0 1.12,-1.19 v -7.71 a 6.295,6.295 0 1 0 -12.59,0 v 2.71 h -5.68 v 23.54 a 2.73,2.73 0 0 0 2.56,2.81 h 19 c 0,0 2.55,0.18 2.55,-2.81 V 105.54 H 48.6 Z m -5.27,16.77 a 1.19,1.19 0 0 1 -0.48,1 1.9,1.9 0 0 1 -1.94,0 1,1 0 0 1 -0.47,-1 l 0.83,-4.34 a 1.69,1.69 0 1 1 1.23,0 z m 2.32,-21.85 h -6.28 l -1,5.09 c -0.28,0.94 -0.94,1.36 -1.65,1.08 a 1.19,1.19 0 0 0 1.1,-1.18 v -7.7 a 3.91,3.91 0 1 1 7.82,0 z"
       class="cls-1"
       inkscape:connector-curvature="0"
       style="fill:none" />
    <path
       id="path3690"
       d="M 40.84,87.44 A 28.09,28.09 0 1 0 68.93,115.53 28.09,28.09 0 0 0 40.84,87.44 Z m 0,52.87 A 24.67,24.67 0 1 1 65.51,115.64 24.67,24.67 0 0 1 40.84,140.3 Z"
       class="cls-1"
       inkscape:connector-curvature="0"
       style="fill:none" />
    <path
       id="path3692"
       d="m 42.55,121.46 a 1.7,1.7 0 1 0 -2.27,1.6 l -0.83,4.34 a 1,1 0 0 0 0.47,1 1.9,1.9 0 0 0 1.94,0 1.19,1.19 0 0 0 0.48,-1 L 41.51,123 a 1.7,1.7 0 0 0 1.04,-1.54 z"
       class="cls-2"
       inkscape:connector-curvature="0"
       style="fill:#29243f" />
    <path
       id="path3694"
       d="m 40.75,98.9 a 3.9,3.9 0 0 0 -3.9,3.92 v 7.7 a 1.19,1.19 0 0 1 -1.1,1.18 c 0.71,0.28 1.37,-0.14 1.65,-1.08 l 1,-5.09 h 6.28 v -2.73 a 3.91,3.91 0 0 0 -3.92,-3.9 z"
       class="cls-2"
       inkscape:connector-curvature="0"
       style="fill:#29243f" />
    <path
       id="path3696"
       d="m 40.84,76.43 a 39,39 0 1 0 39,39 39,39 0 0 0 -39,-39 z m 0,74.12 A 35.12,35.12 0 1 1 76,115.42 35.12,35.12 0 0 1 40.84,150.54 Z"
       class="cls-2"
       inkscape:connector-curvature="0"
       style="fill:#29243f" />
    <path
       id="path3698"
       d="M 40.84,84 A 31.87,31.87 0 1 0 72.71,115.87 31.87,31.87 0 0 0 40.84,84 Z m 0,59.65 a 28.09,28.09 0 1 1 28.09,-28.09 28.09,28.09 0 0 1 -28.09,28.06 z"
       class="cls-2"
       inkscape:connector-curvature="0"
       style="fill:#29243f" />
    <path
       id="path3700"
       d="M 40.84,91 A 24.67,24.67 0 1 0 65.51,115.67 24.67,24.67 0 0 0 40.84,91 Z m 12.07,38.12 c 0,3 -2.55,2.81 -2.55,2.81 h -19 a 2.73,2.73 0 0 1 -2.56,-2.81 v -23.58 h 5.69 v -2.71 a 6.295,6.295 0 1 1 12.59,0 v 7.71 a 1.19,1.19 0 0 1 -1.12,1.19 c 0.72,0.31 1.4,-0.11 1.68,-1.07 l 1,-5.09 h 4.31 z m 2.87,-23.23 h -0.54 v 2 h -0.37 v -2 h -0.55 v -0.31 h 1.46 z m 2.24,2 h -0.35 v -1.93 0 l -0.47,1.93 h -0.31 l -0.47,-1.93 v 0 1.93 h -0.35 v -2.32 h 0.58 l 0.41,1.72 v 0 l 0.4,-1.72 H 58 Z"
       class="cls-2"
       inkscape:connector-curvature="0"
       style="fill:#29243f" />
    <path
       id="path3702"
       d="m 99.18,137.38 c -9.62,0 -12,-8.58 -12,-19.1 0,-10.52 2.37,-19 12.41,-19 9.62,0 12,8.58 12,19 0,10.42 -2.37,19.1 -12.41,19.1 z m 0.21,-35.77 c -7,0 -9.27,6.21 -9.27,16.73 0,10.52 2.3,16.66 9.27,16.66 6.97,0 9.27,-6.21 9.27,-16.66 0,-10.45 -2.3,-16.73 -9.27,-16.73 z"
       class="cls-2"
       inkscape:connector-curvature="0"
       style="fill:#29243f" />
    <path
       id="path3704"
       d="m 117.94,100.07 h 2.65 v 5.51 h 0.14 A 9.73,9.73 0 0 1 130,99.24 c 5.16,0 9.2,2.93 9.2,9.83 v 27.47 h -2.65 v -26.22 c 0,-6.48 -2.72,-8.72 -7.25,-8.72 -5.58,0 -8.72,5.23 -8.72,11.57 v 23.36 h -2.65 z"
       class="cls-2"
       inkscape:connector-curvature="0"
       style="fill:#29243f" />
    <path
       id="path3706"
       d="m 146.74,86.76 h 2.65 v 49.78 h -2.65 z"
       class="cls-2"
       inkscape:connector-curvature="0"
       style="fill:#29243f" />
    <path
       id="path3708"
       d="m 157.19,86.76 h 2.65 v 7.11 h -2.65 z m 0,13.32 h 2.65 v 36.47 h -2.65 z"
       class="cls-2"
       inkscape:connector-curvature="0"
       style="fill:#29243f" />
    <path
       id="path3710"
       d="M 167.37,100.07 H 170 v 5.51 h 0.14 a 9.73,9.73 0 0 1 9.27,-6.35 c 5.16,0 9.2,2.93 9.2,9.83 v 27.47 H 186 v -26.21 c 0,-6.48 -2.72,-8.72 -7.25,-8.72 -5.58,0 -8.72,5.23 -8.72,11.57 v 23.36 h -2.65 z"
       class="cls-2"
       inkscape:connector-curvature="0"
       style="fill:#29243f" />
    <path
       id="path3712"
       d="m 197.91,118.13 c 0,5.86 0.07,16.87 8.58,16.87 7.67,0 8.92,-7.67 8.92,-10.39 h 2.65 c 0,5.58 -3.07,12.76 -11.29,12.76 -9.41,0 -11.78,-7.67 -11.78,-20.08 0,-11.16 4,-18.06 12.2,-18.06 8.58,0 11.37,7.11 11.37,18.9 z m 17.71,-2.37 c 0,-6.62 -1,-14.15 -8.58,-14.15 -8.09,0 -9.13,9.41 -9.13,14.15 z"
       class="cls-2"
       inkscape:connector-curvature="0"
       style="fill:#29243f" />
    <path
       id="path3714"
       d="m 229.57,118.55 c 0,5.72 0,14.36 7.18,14.36 5.58,0 6.35,-5.86 6.35,-8.65 h 5.9 c 0,4 -2.37,13.25 -12.55,13.25 -9.13,0 -13,-6.34 -13,-19.17 0,-9.34 1.81,-20.15 13.32,-20.15 11.51,0 12.48,10 12.48,18 v 2.37 z m 13.53,-4.6 v -2 c 0,-4.18 -1.33,-9.13 -6.48,-9.13 -6.14,0 -6.83,7.53 -6.83,9.76 v 1.39 z"
       class="cls-2"
       inkscape:connector-curvature="0"
       style="fill:#29243f" />
    <path
       id="path3716"
       d="m 257.53,103.77 h -5.44 v -4.6 h 5.44 v -4.39 c 0,-5.65 2.44,-8.58 8.09,-8.58 h 4.25 v 5 h -2.72 c -2.51,0 -3.76,1 -3.76,3.56 v 4.39 h 6.41 v 4.6 h -6.41 v 32.77 h -5.86 z"
       class="cls-2"
       inkscape:connector-curvature="0"
       style="fill:#29243f" />
    <path
       id="path3718"
       d="m 275.73,88.29 h 5.86 v 10.88 h 6.48 v 4.6 h -6.48 v 24 c 0,3 0.77,4.18 3.83,4.18 a 18.08,18.08 0 0 0 2.58,-0.21 v 4.81 a 24.65,24.65 0 0 1 -4.74,0.42 c -6.07,0 -7.53,-2.51 -7.53,-7.39 v -25.8 h -5.44 v -4.6 h 5.44 z"
       class="cls-2"
       inkscape:connector-curvature="0"
       style="fill:#29243f" />
    <path
       id="path3720"
       d="m 292.18,99.17 h 5.58 v 4.6 h 0.14 c 0.77,-2.79 4,-5.58 8.09,-5.58 8.85,0 12.2,7.88 12.2,19 0,8.51 -2.51,20.36 -12.2,20.36 a 8.48,8.48 0 0 1 -7.81,-5.23 H 298 v 16.52 h -5.86 z m 13,33.33 c 5.44,0 6.83,-5.72 6.83,-15.34 0,-8.23 -1.39,-13.95 -6.83,-13.95 -6.48,0 -7.53,6.14 -7.53,14.64 0.04,7.26 1.29,14.65 7.57,14.65 z"
       class="cls-2"
       inkscape:connector-curvature="0"
       style="fill:#29243f" />
    <path
       id="path3722"
       d="m 336.25,98.19 c 10.81,0 13.46,9.13 13.46,19.66 0,10.53 -2.72,19.66 -13.46,19.66 -10.74,0 -13.46,-9.13 -13.46,-19.66 0,-10.53 2.72,-19.66 13.46,-19.66 z m 7.32,19.66 c 0,-8.09 -1.18,-15.06 -7.46,-15.06 -5.93,0 -7.18,7 -7.18,15.06 0,8.06 1.19,15.06 7.18,15.06 6.2,0 7.46,-6.97 7.46,-15.05 z"
       class="cls-2"
       inkscape:connector-curvature="0"
       style="fill:#29243f" />
    <path
       id="path3724"
       d="m 371.74,110.12 c 0,-4.74 -1.26,-7.32 -5.51,-7.32 -1.88,0 -6.07,0.49 -6.07,5.72 0,4.39 4.6,5.23 9.2,6.76 4.6,1.53 9.13,3.14 9.13,10.53 0,7.88 -5.09,11.71 -12.06,11.71 -12.69,0 -12.83,-9.41 -12.83,-13.25 h 5.86 c 0,4.53 1.26,8.65 7,8.65 1.88,0 6.21,-0.91 6.21,-6.2 0,-5 -4.6,-6.07 -9.13,-7.6 -4.53,-1.53 -9.2,-2.86 -9.2,-10.6 0,-7 5.44,-10.32 11.92,-10.32 10.88,0 11.3,7.53 11.36,11.92 z"
       class="cls-2"
       inkscape:connector-curvature="0"
       style="fill:#29243f" />
  </g>
</svg>
