<svg xmlns="http://www.w3.org/2000/svg" width="38" height="24" fill="none" aria-labelledby="pi-paynow" role="img" viewBox="0 0 38 24"><title id="pi-paynow">PayNow</title><path fill="#fff" d="M0 0h38v24H0z"/><mask id="pi-paynow-a" width="32" height="20" x="3" y="2" maskUnits="userSpaceOnUse" style="mask-type:luminance"><path fill="#fff" d="M3 2.1h32v19.82H3z"/></mask><g mask="url(#pi-paynow-a)"><path fill="#941F7F" d="M3 2.36c0-.08.02-.14.06-.19a.24.24 0 0 1 .2-.07h3.59a2.44 2.44 0 0 1 1.88.86 2.96 2.96 0 0 1 .63 1.2 2.9 2.9 0 0 1-.1 1.67A2.6 2.6 0 0 1 7.92 7.3c-.31.15-.66.23-1.05.23h-1.7v2.68c0 .16-.09.25-.26.25H3.24a.3.3 0 0 1-.18-.06.25.25 0 0 1-.07-.18V2.36zm4.24 2.46c0-.1-.02-.22-.07-.33a.9.9 0 0 0-.45-.52.8.8 0 0 0-.35-.08h-1.2v1.89h1.2A.9.9 0 0 0 7 5.49c.07-.1.13-.2.17-.3.04-.11.07-.23.07-.36m4.84-2.51.04-.08a.3.3 0 0 1 .07-.07l.1-.05.09-.02h1.44c.06 0 .12.02.16.06l.1.11.14.32 2.96 7.62c.02.07.02.14-.02.18-.04.05-.11.07-.22.07h-1.61a.36.36 0 0 1-.2-.04.33.33 0 0 1-.1-.16l-.23-.57-.21-.57H11.6l-.22.57-.21.57a.28.28 0 0 1-.3.2H9.23a.3.3 0 0 1-.18-.05c-.05-.04-.06-.1-.03-.17l3.07-7.92Zm1.02 2.4-.21.62-.22.67-.22.67c-.07.22-.14.43-.22.62h1.73l-.86-2.57Zm6.78.48 1.35-2.9.06-.1.04-.05.05-.01.06-.02h2.15s.05 0 .07.03c.02.01.02.03.02.05 0 .04-.02.09-.08.14l-2.65 4.68v3.13c0 .17-.08.26-.25.26h-1.68a.22.22 0 0 1-.17-.07.3.3 0 0 1-.06-.2V7.02l-2.65-4.66c-.04-.04-.07-.09-.07-.13 0-.02 0-.05.02-.06a.1.1 0 0 1 .06-.02h2.16l.06.01c.02 0 .03 0 .05.02l.04.05.06.1 1.36 2.88ZM3 12.3q0-.105.06-.18c.05-.04.1-.07.18-.07h1.83a.34.34 0 0 1 .31.17l1.41 2.26 1.42 2.27v-4.48a.3.3 0 0 1 .09-.16c.04-.03.1-.05.15-.05h1.6a.3.3 0 0 1 .2.06c.05.05.07.1.07.18v7.84c0 .07-.01.13-.06.16a.3.3 0 0 1-.18.06H8.3a.18.18 0 0 1-.13-.06l-.12-.13-1.47-2.44c-.5-.8-.98-1.6-1.48-2.43v4.8a.3.3 0 0 1-.05.19c-.04.04-.11.06-.2.06h-1.6a.26.26 0 0 1-.2-.07.27.27 0 0 1-.05-.18zm23.27 7.94-.1-.2-.1-.2a838 838 0 0 1-2.88-7.53v-.1c0-.1.08-.15.21-.15h1.8c.15 0 .24.07.3.2l1.7 5.1 1.59-5.1c.05-.14.15-.2.3-.2h1.83a.4.4 0 0 1 .18.04c.03.03.05.08.05.13v.08l-1 2.85.76 2.2 1.8-5.09c.06-.14.16-.2.32-.2h1.76c.08 0 .15.01.18.04.04.03.06.07.06.13v.08a174 174 0 0 1-.78 1.96l-.8 1.96-.8 1.96-.76 1.97a.33.33 0 0 1-.1.13.25.25 0 0 1-.2.08h-1.36a.37.37 0 0 1-.2-.05.22.22 0 0 1-.08-.13l-.89-2.32-.37 1-.37.99-.15.33a.5.5 0 0 1-.12.12.22.22 0 0 1-.15.06h-1.36q-.18 0-.24-.12"/><path fill="url(#pi-paynow-b)" d="M21.97 12.16a5.8 5.8 0 0 0-.86-.9.38.38 0 0 0-.23-.09.37.37 0 0 0-.3.15l-3.34 4.6-1.68-2.05a.35.35 0 0 0-.26-.13c-.1 0-.2.06-.27.15l-.71.97a.47.47 0 0 0 .01.54l2.72 3.32a.33.33 0 0 0 .53-.02l3.5-4.8a4.33 4.33 0 1 1-2.16-2.02c.18.07.4 0 .52-.14l.56-.78c.06-.09.1-.2.06-.3a.34.34 0 0 0-.19-.22 5.99 5.99 0 0 0-6.37.67 6.05 6.05 0 1 0 8.48 1.04Z"/></g><defs><linearGradient id="pi-paynow-b" x1="18.93" x2="12.46" y1="10.57" y2="18.74" gradientUnits="userSpaceOnUse"><stop offset=".02" stop-color="#E83762"/><stop offset=".39" stop-color="#CC2E6C"/><stop offset=".97" stop-color="#9A1F81"/></linearGradient></defs></svg>