<svg xmlns="http://www.w3.org/2000/svg" width="38" height="24" fill="none" aria-labelledby="pi-paynowmbank" role="img" viewBox="0 0 38 24"><title id="pi-paynowmbank">Paynow mBank</title><path fill="#fff" d="M0 0h38v24H0z"/><mask id="pi-paynowmbank-a" width="34" height="12" x="2" y="5" maskUnits="userSpaceOnUse" style="mask-type:luminance"><path fill="#fff" d="M35.49 5.62h-33v10.52h33z"/></mask><g fill="#000" mask="url(#pi-paynowmbank-a)"><path d="M6.83 8.59c.3.17.55.41.72.72.18.33.27.7.26 1.08 0 .37-.08.75-.26 1.08-.17.3-.41.55-.72.72-.3.17-.66.26-1.01.26-.51 0-.91-.17-1.2-.49v1.87H3.46V9.28H3V8.4h1.4l.07.6c.29-.44.74-.66 1.36-.66.36 0 .7.08 1.01.26Zm-.48 2.6c.2-.22.3-.5.29-.8.01-.3-.1-.58-.29-.8a.97.97 0 0 0-.73-.3.97.97 0 0 0-.73.3c-.2.22-.3.5-.29.8-.01.3.1.58.29.8a.97.97 0 0 0 .73.3.97.97 0 0 0 .73-.3m6.23-2.8v4h-1.1v-.46c-.3.34-.71.52-1.26.52-.35 0-.7-.09-1.02-.26a1.8 1.8 0 0 1-.71-.72c-.18-.33-.28-.7-.27-1.08 0-.38.08-.75.26-1.09a1.91 1.91 0 0 1 1.74-.97q.75 0 1.2.48V8.4h1.16Zm-1.43 2.8c.2-.21.3-.5.3-.8s-.1-.58-.3-.8a1.04 1.04 0 0 0-1.46 0c-.2.22-.3.5-.3.8s.1.59.3.8a1.04 1.04 0 0 0 1.46 0m6.46-2.8v3.32c0 .74-.18 1.28-.55 1.64-.37.35-.91.53-1.62.53-.36 0-.72-.04-1.07-.14-.3-.08-.59-.22-.83-.4l.45-.84a2.13 2.13 0 0 0 1.36.44c.38 0 .66-.08.84-.26.17-.18.26-.45.26-.82v-.13c-.15.15-.33.27-.52.35-.21.07-.44.11-.66.11a1.7 1.7 0 0 1-1.25-.45c-.3-.3-.46-.75-.45-1.35v-2h1.15v1.83c0 .65.27.98.81.98a.87.87 0 0 0 .67-.27c.17-.18.26-.45.26-.8V8.38h1.15Zm4.74.39c.3.3.46.73.46 1.32v2.29h-1.16v-2.11c0-.32-.07-.56-.21-.71a.76.76 0 0 0-.6-.23.92.92 0 0 0-.7.27c-.18.18-.26.45-.26.8v1.98h-1.16v-3.1h-.45v-.9h1.38l.06.62c.15-.22.36-.4.6-.5q.405-.195.84-.18a1.65 1.65 0 0 1 1.2.45m2.2 3.4a1.96 1.96 0 0 1-1.06-1.8 1.97 1.97 0 0 1 1.07-1.8 2.56 2.56 0 0 1 2.26.01 1.97 1.97 0 0 1 1.06 1.8 1.97 1.97 0 0 1-1.06 1.8 2.56 2.56 0 0 1-2.26 0Zm1.87-.99c.2-.22.3-.5.28-.8.02-.3-.08-.58-.28-.8a.96.96 0 0 0-.73-.3.98.98 0 0 0-.96.67c-.05.14-.08.29-.07.43a1.1 1.1 0 0 0 .3.8.98.98 0 0 0 .73.3.97.97 0 0 0 .73-.3M35 8.39l-1.45 4h-1.11l-.9-2.48-.93 2.48H29.5l-1.44-4h1.09l.94 2.7.98-2.7h.98l.95 2.7.98-2.7z"/></g><path fill="#AE0000" d="M26.51 14.34h-5.6v1.32h5.6z"/><path fill="#FF8600" d="M20.92 14.34h-8.65v1.32h8.65z"/><path fill="#0065B1" d="M27.16 14.34h-.64v1.32h.64z"/><path fill="#E90A0A" d="M11.31 14.34H3v1.32h8.31z"/><path fill="#008F20" d="M35 14.34h-7.85v1.32H35z"/><path fill="#26221E" d="M12.27 14.34h-.96v1.32h.96z"/></svg>