<svg xmlns="http://www.w3.org/2000/svg" xmlns:xlink="http://www.w3.org/1999/xlink" width="38" height="24" viewBox="0 0 38 24" role="img" fill="none" aria-labelledby="pi-paynlspraypaynew"><title id="pi-paynlspraypaynew">Paynl Spraypay New</title><path fill="#000" d="M35 0H3C1.3 0 0 1.3 0 3v18c0 1.7 1.4 3 3 3h32c1.7 0 3-1.3 3-3V3c0-1.7-1.4-3-3-3" opacity=".07"/><path fill="#fff" d="M35 1c1.1 0 2 .9 2 2v18c0 1.1-.9 2-2 2H3c-1.1 0-2-.9-2-2V3c0-1.1.9-2 2-2z"/><path fill="#00358e" d="M4.061 15.826q-.646 0-1.072-.184t-.646-.481a1.1 1.1 0 01-.232-.632q0-.053.042-.093a.14.14 0 01.1-.042h.813q.09 0 .139.033a.4.4 0 01.087.084.68.68 0 00.393.333q.155.055.375.055.375 0 .565-.116t.19-.316a.3.3 0 00-.103-.239 1 1 0 00-.332-.164 6 6 0 00-.61-.152 3.7 3.7 0 01-.836-.268 1.3 1.3 0 01-.526-.432q-.181-.267-.181-.668 0-.394.223-.704.222-.31.623-.484.4-.174.949-.174a2.4 2.4 0 01.784.117q.339.116.571.31t.352.41.126.422a.14.14 0 01-.035.094q-.036.042-.1.041h-.852a.3.3 0 01-.123-.025.22.22 0 01-.09-.084.45.45 0 00-.203-.249.8.8 0 00-.429-.106q-.284 0-.442.1t-.158.307q0 .13.087.226a.7.7 0 00.29.168q.203.071.558.148.588.11.949.274t.532.427.171.655q0 .439-.252.755a1.6 1.6 0 01-.687.487 2.8 2.8 0 01-1.01.171zm2.756-.065a.15.15 0 01-.116-.048.16.16 0 01-.045-.113v-4.196q0-.07.045-.116a.16.16 0 01.116-.045h1.807q.535 0 .933.164.397.165.62.494t.222.833q0 .497-.222.819a1.3 1.3 0 01-.62.478 2.6 2.6 0 01-.933.154h-.768v1.414a.16.16 0 01-.048.113.16.16 0 01-.119.048h-.871zm1.02-2.466h.755a.65.65 0 00.442-.142q.165-.142.164-.432a.6.6 0 00-.142-.413q-.143-.168-.465-.168h-.755zm3.343 2.466a.15.15 0 01-.116-.048.16.16 0 01-.045-.113v-4.196q0-.07.045-.116a.16.16 0 01.116-.045h1.755q.838 0 1.317.383.477.384.478 1.088 0 .459-.22.775t-.581.477l.884 1.588a.2.2 0 01.019.071.13.13 0 01-.042.093.13.13 0 01-.093.042h-.859q-.123 0-.181-.061a.5.5 0 01-.084-.113l-.736-1.42h-.658v1.433a.16.16 0 01-.048.113.16.16 0 01-.119.048zm1-2.511h.742q.303 0 .455-.149a.53.53 0 00.152-.4.57.57 0 00-.145-.407q-.146-.154-.461-.154h-.742v1.11zm3.04 2.511a.13.13 0 01-.093-.042.13.13 0 01-.042-.093q0-.033.007-.058l1.517-4.143a.246.246 0 01.252-.181h.955a.246.246 0 01.252.181l1.51 4.143a.13.13 0 01-.029.151.14.14 0 01-.1.042h-.794q-.097 0-.145-.048a.2.2 0 01-.061-.087l-.252-.658h-1.723l-.245.658a.3.3 0 01-.058.087q-.045.048-.155.048h-.794zm1.517-1.723h1.201l-.6-1.704zm4.17 1.723a.16.16 0 01-.113-.048.16.16 0 01-.048-.113v-1.388l-1.498-2.763-.013-.035a.1.1 0 01-.006-.035q0-.053.042-.093a.14.14 0 01.1-.042h.807q.097 0 .152.048a.3.3 0 01.074.087l.923 1.665.929-1.665a.3.3 0 01.074-.087q.055-.049.152-.048h.807q.058 0 .097.042a.13.13 0 01.039.093l-.003.035q-.003.017-.01.035l-1.498 2.763V15.6a.16.16 0 01-.048.113.16.16 0 01-.119.048h-.839z"/><path fill="#00a9ce" d="M24.186 15.804a.15.15 0 01-.116-.048.16.16 0 01-.045-.113v-4.196q0-.07.045-.116a.16.16 0 01.116-.045h1.807q.535 0 .933.164.397.165.62.494t.222.833q0 .497-.222.819a1.3 1.3 0 01-.62.478 2.6 2.6 0 01-.933.154h-.768v1.414a.16.16 0 01-.048.113.16.16 0 01-.119.048h-.871zm1.019-2.466h.755a.65.65 0 00.442-.142q.164-.142.164-.432a.6.6 0 00-.142-.413q-.143-.168-.465-.168h-.755zm2.614 2.466a.13.13 0 01-.093-.042.13.13 0 01-.042-.093q0-.033.007-.058l1.517-4.143a.246.246 0 01.252-.181h.955a.246.246 0 01.252.181l1.51 4.143a.13.13 0 01-.029.151.14.14 0 01-.1.042h-.794q-.097 0-.145-.048a.2.2 0 01-.061-.087l-.252-.658h-1.723l-.245.658a.3.3 0 01-.058.087q-.045.048-.155.048h-.794zm1.517-1.723h1.201l-.6-1.704zm4.17 1.723a.16.16 0 01-.113-.048.16.16 0 01-.048-.113v-1.388l-1.498-2.763-.013-.035a.1.1 0 01-.006-.035q0-.053.042-.093a.14.14 0 01.1-.042h.807q.097 0 .152.048a.3.3 0 01.074.087l.923 1.665.929-1.665a.3.3 0 01.074-.087q.055-.049.152-.048h.807q.058 0 .097.042a.13.13 0 01.039.093l-.003.035-.01.035-1.498 2.763v1.388a.16.16 0 01-.048.113.16.16 0 01-.119.048h-.839z"/><path fill="#00358e" d="M9.037 18.843a.63.63 0 01-.317-.074.48.48 0 01-.195-.205.7.7 0 01-.073-.303l-.002-.209q0-.11.002-.208a.7.7 0 01.073-.304.5.5 0 01.196-.204.63.63 0 01.316-.074.7.7 0 01.259.045.52.52 0 01.277.247.3.3 0 01.035.114q.002.02-.011.032a.05.05 0 01-.035.012h-.048q-.02 0-.029-.01a.1.1 0 01-.018-.034.39.39 0 00-.212-.233.5.5 0 00-.218-.041.46.46 0 00-.317.106q-.122.106-.131.355a7 7 0 000 .395q.009.245.131.353a.46.46 0 00.317.108.5.5 0 00.233-.049.37.37 0 00.162-.151.5.5 0 00.059-.26v-.112h-.382a.05.05 0 01-.035-.014.05.05 0 01-.013-.036v-.031q0-.024.013-.037a.05.05 0 01.035-.013h.47q.024 0 .037.013t.013.037v.193q0 .176-.069.309a.5.5 0 01-.202.209.65.65 0 01-.322.075zm1.088-.022a.05.05 0 01-.035-.013.05.05 0 01-.013-.035v-1.437q0-.024.013-.037a.05.05 0 01.035-.013h.856q.024 0 .037.013t.013.037v.033a.05.05 0 01-.013.035q-.013.013-.037.013h-.766v.56h.718q.024 0 .037.013t.013.037v.033a.05.05 0 01-.013.035q-.013.013-.037.013h-.718v.581h.783q.025 0 .037.013.013.013.013.037v.033a.05.05 0 01-.013.035q-.013.013-.037.013zm1.822.022a.7.7 0 01-.302-.057.5.5 0 01-.19-.147.35.35 0 01-.07-.191q0-.018.013-.031a.04.04 0 01.033-.013h.044q.022 0 .034.013a.05.05 0 01.014.031.26.26 0 00.055.122q.046.06.136.101a.6.6 0 00.233.041q.215 0 .314-.078a.25.25 0 00.099-.21.2.2 0 00-.052-.142.4.4 0 00-.157-.096q-.105-.043-.27-.095a2 2 0 01-.257-.104.4.4 0 01-.148-.13.37.37 0 01-.047-.198q0-.112.059-.201a.4.4 0 01.172-.141.65.65 0 01.275-.053.7.7 0 01.226.035.5.5 0 01.16.093q.064.058.097.125a.3.3 0 01.035.13q0 .015-.011.03t-.035.014h-.044a.1.1 0 01-.027-.009q-.016-.01-.021-.035a.25.25 0 00-.115-.181.45.45 0 00-.264-.071.5.5 0 00-.266.064q-.103.063-.103.2 0 .088.046.144a.4.4 0 00.145.099q.099.043.255.093.164.052.272.105a.4.4 0 01.16.128q.053.075.053.196a.38.38 0 01-.067.227.42.42 0 01-.19.143.8.8 0 01-.294.049m1.025-.022a.05.05 0 01-.035-.013.05.05 0 01-.013-.035v-1.437q0-.024.013-.037a.05.05 0 01.035-.013h.533q.153 0 .267.051a.4.4 0 01.175.153.46.46 0 01.063.25.46.46 0 01-.063.25.4.4 0 01-.175.152.6.6 0 01-.267.052h-.443v.579a.05.05 0 01-.013.035q-.013.013-.037.013zm.09-.759h.432q.19 0 .284-.083.093-.084.093-.239 0-.156-.093-.239-.093-.084-.284-.083h-.432v.645zm1.398.759a.05.05 0 01-.035-.013.05.05 0 01-.013-.035v-1.437q0-.024.013-.037a.05.05 0 01.035-.013h.511q.23 0 .368.11t.137.334a.42.42 0 01-.088.281.44.44 0 01-.244.143l.353.601a.1.1 0 01.007.024.04.04 0 01-.013.031.04.04 0 01-.031.013h-.026q-.035 0-.053-.019a.2.2 0 01-.031-.04l-.349-.59h-.452v.601a.05.05 0 01-.013.035q-.013.013-.037.013h-.04zm.09-.781h.41q.19 0 .284-.078t.093-.234q0-.156-.093-.234t-.284-.078h-.41zm1.424.781a.05.05 0 01-.035-.013.05.05 0 01-.013-.035v-1.437q0-.024.013-.037a.05.05 0 01.035-.013h.856q.024 0 .037.013t.013.037v.033a.05.05 0 01-.013.035q-.013.013-.037.013h-.766v.56h.718q.024 0 .037.013t.013.037v.033a.05.05 0 01-.013.035q-.013.013-.037.013h-.718v.581h.783q.024 0 .037.013t.013.037v.033a.05.05 0 01-.013.035q-.013.013-.037.013zm1.409 0a.05.05 0 01-.035-.013.05.05 0 01-.013-.035v-1.44q0-.022.013-.035a.05.05 0 01.035-.013h.042q.022 0 .035.013t.013.035v1.44a.05.05 0 01-.013.035.05.05 0 01-.035.013zm.66 0a.05.05 0 01-.035-.013.05.05 0 01-.013-.035v-1.437q0-.024.013-.037a.05.05 0 01.035-.013h.467q.233 0 .364.068t.188.201a.9.9 0 01.058.324l.002.175-.002.174a1 1 0 01-.059.334.38.38 0 01-.184.196.8.8 0 01-.356.065h-.478zm.09-.131h.377q.176 0 .278-.047a.29.29 0 00.147-.151.7.7 0 00.047-.276l.002-.115v-.098l-.002-.114q-.004-.242-.112-.357t-.371-.115h-.366zm2.182.131a.05.05 0 01-.035-.013.05.05 0 01-.013-.035v-1.437q0-.024.013-.037a.05.05 0 01.035-.013h.573q.153 0 .251.055a.36.36 0 01.144.144.4.4 0 01.046.194q0 .095-.03.161a.3.3 0 01-.075.109.4.4 0 01-.089.064q.087.044.156.14a.45.45 0 01.016.445.4.4 0 01-.154.162.47.47 0 01-.251.063h-.588zm.09-.869h.454q.163 0 .247-.072a.25.25 0 00.084-.202q0-.13-.084-.195a.4.4 0 00-.247-.066h-.454zm0 .738h.476a.35.35 0 00.251-.086.3.3 0 00.089-.217.29.29 0 00-.089-.218.35.35 0 00-.251-.085h-.476zm1.452.131a.05.05 0 01-.035-.013.05.05 0 01-.013-.035v-1.437q0-.024.013-.037a.05.05 0 01.035-.013h.856q.024 0 .037.013t.013.037v.033a.05.05 0 01-.013.035q-.013.013-.037.013h-.766v.56h.718q.024 0 .037.013t.013.037v.033a.05.05 0 01-.013.035q-.013.013-.037.013h-.718v.581h.783q.024 0 .037.013t.013.037v.033a.05.05 0 01-.013.035q-.013.013-.037.013zm1.745 0a.05.05 0 01-.035-.013.05.05 0 01-.013-.035v-1.356h-.435a.05.05 0 01-.035-.013.05.05 0 01-.013-.035v-.033q0-.024.013-.037a.05.05 0 01.035-.013h1.005q.024 0 .037.013t.013.037v.033a.05.05 0 01-.013.035q-.013.013-.037.013h-.432v1.356a.05.05 0 01-.013.035q-.013.013-.037.013zm.674 0a.05.05 0 01-.031-.013.04.04 0 01-.013-.031q0-.01.004-.024l.555-1.424a.1.1 0 01.023-.033.07.07 0 01.041-.011h.075q.026 0 .041.011a.1.1 0 01.023.033l.555 1.424.004.024a.04.04 0 01-.013.031.04.04 0 01-.031.013h-.044q-.023 0-.033-.012a.1.1 0 01-.015-.021l-.136-.351h-.777l-.136.351q-.002.009-.014.021t-.034.012zm.281-.516h.672l-.336-.865zm1.413.516a.05.05 0 01-.035-.013.05.05 0 01-.013-.035v-1.44q0-.022.013-.035a.05.05 0 01.035-.013h.042q.022 0 .035.013t.013.035v1.356h.757q.024 0 .037.013t.013.037v.033a.05.05 0 01-.013.035q-.013.013-.037.013h-.847zm1.312 0a.05.05 0 01-.035-.013.05.05 0 01-.013-.035v-1.437q0-.024.013-.037a.05.05 0 01.035-.013h.856q.024 0 .037.013t.013.037v.033a.05.05 0 01-.013.035q-.013.013-.037.013h-.766v.56h.718q.024 0 .037.013t.013.037v.033a.05.05 0 01-.013.035q-.013.013-.037.013h-.718v.581h.783q.025 0 .037.013.013.013.013.037v.033a.05.05 0 01-.013.035q-.013.013-.037.013zm1.409 0a.05.05 0 01-.035-.013.05.05 0 01-.013-.035v-1.437q0-.024.013-.037a.05.05 0 01.035-.013h.046q.023 0 .033.011t.013.015l.81 1.238v-1.213q0-.024.013-.037a.05.05 0 01.035-.013h.04q.024 0 .037.013t.013.037v1.435a.05.05 0 01-.013.036.05.05 0 01-.035.014h-.048q-.022 0-.032-.011l-.014-.015-.808-1.233v1.211a.05.05 0 01-.013.035q-.013.013-.037.013z"/><g transform="translate(.09 .086)"><rect width=".593" height="3.852" x="12.185" y="5.243" fill="url(#linearGradient25-6)" rx=".296" ry=".296"/><rect width=".593" height="3.556" x="13.37" y="5.907" fill="url(#pi-a)" rx=".296" ry=".296"/><rect width=".593" height="3.259" x="14.556" y="6.41" fill="url(#pi-b)" rx=".296" ry=".296"/><rect width=".593" height="2.963" x="15.741" y="6.778" fill="url(#pi-c)" rx=".296" ry=".296"/><rect width=".593" height="2.667" x="16.926" y="7.009" fill="url(#pi-d)" rx=".296" ry=".296"/><rect width=".593" height="2.37" x="18.111" y="7.121" fill="url(#pi-e)" rx=".296" ry=".296"/><rect width=".593" height="2.074" x="19.296" y="7.121" fill="url(#pi-f)" rx=".296" ry=".296"/><rect width=".593" height="1.778" x="20.481" y="7.009" fill="url(#pi-g)" rx=".296" ry=".296"/><rect width=".593" height="1.481" x="21.667" y="6.778" fill="url(#pi-h)" rx=".296" ry=".296"/><rect width=".593" height="1.185" x="22.852" y="6.41" fill="url(#pi-i)" rx=".296" ry=".296"/><rect width=".593" height=".889" x="24.037" y="5.907" fill="url(#pi-j)" rx=".296" ry=".296"/><rect width=".593" height=".593" x="25.222" y="5.243" fill="url(#pi-k)" rx=".296" ry=".296"/></g><defs><linearGradient id="pi-l" x1="12.217" x2="25.775" y1="7.169" y2="7.169" data-name="Naamloos verloop 9" gradientUnits="userSpaceOnUse"><stop offset="0" stop-color="#00358e"/><stop offset="1" stop-color="#00a9ce"/></linearGradient><linearGradient xlink:href="#pi-l" id="pi-a" x1="12.217" x2="25.775" y1="7.684" y2="7.684" data-name="Naamloos verloop 9"/><linearGradient xlink:href="#pi-l" id="pi-b" x1="12.217" x2="25.775" y1="8.04" y2="8.04" data-name="Naamloos verloop 9"/><linearGradient xlink:href="#pi-l" id="pi-c" x1="12.217" x2="25.775" y1="8.259" y2="8.259" data-name="Naamloos verloop 9"/><linearGradient xlink:href="#pi-l" id="pi-d" x1="12.217" x2="25.775" y1="8.342" y2="8.342" data-name="Naamloos verloop 9"/><linearGradient xlink:href="#pi-l" id="pi-e" x1="12.217" x2="25.775" y1="8.307" y2="8.307" data-name="Naamloos verloop 9"/><linearGradient xlink:href="#pi-l" id="pi-f" x1="12.217" x2="25.775" y1="8.158" y2="8.158" data-name="Naamloos verloop 9"/><linearGradient xlink:href="#pi-l" id="pi-g" x1="12.217" x2="25.775" y1="7.898" y2="7.898" data-name="Naamloos verloop 9"/><linearGradient xlink:href="#pi-l" id="pi-h" x1="12.217" x2="25.775" y1="7.518" y2="7.518" data-name="Naamloos verloop 9"/><linearGradient xlink:href="#pi-l" id="pi-i" x1="12.217" x2="25.775" y1="7.003" y2="7.003" data-name="Naamloos verloop 9"/><linearGradient xlink:href="#pi-l" id="pi-j" x1="12.217" x2="25.775" y1="6.351" y2="6.351" data-name="Naamloos verloop 9"/><linearGradient xlink:href="#pi-l" id="pi-k" x1="12.217" x2="25.775" y1="5.539" y2="5.539" data-name="Naamloos verloop 9"/></defs></svg>