<svg version="1.1" id="logo" xmlns="http://www.w3.org/2000/svg" x="0" y="0" viewBox="0 0 1069.8 318.9" xml:space="preserve"><path fill="#a70584" d="M103.6 178.5h60V238h-60z"/><path fill="#36b588" d="M103.4 97.8h60v60h-60z"/><path fill="#fad05b" d="M23.4 177.8h60v60h-60z"/><path d="M342.5 94c0 41.4-33.3 74.6-76.2 74.6h-32.7V237h-49.8V19.4h82.4c43 0 76.3 33.3 76.3 74.6zm-49.7 0c0-15.9-11.2-28-26.4-28h-32.7v56h32.7c15.1 0 26.4-12.1 26.4-28zM516.1 77.3V237h-47.9v-15c-10.5 12.1-26.2 19.5-47.6 19.5-41.8 0-76.3-36.7-76.3-84.3s34.5-84.3 76.3-84.3c21.4 0 37 7.3 47.6 19.5v-15l47.9-.1zm-47.9 79.9c0-23.9-16-38.9-38-38.9s-38 15-38 38.9 16 39 38 39 38-15.1 38-39zM698 77.3l-54.2 153.8c-17.8 50.4-46 70.4-90.4 68.2v-44.4c22.2 0 32.7-7 39.6-26.3L530 77.3h52.3l35.2 97 29.8-97H698zM875.3 94c0 41.4-33.3 74.6-76.2 74.6h-32.7V237h-49.8V19.4H799c43 0 76.3 33.3 76.3 74.6zm-49.8 0c0-15.9-11.2-28-26.4-28h-32.7v56h32.7c15.2 0 26.4-12.1 26.4-28zM881.5 159.3c0-46.3 36.7-82.1 82.4-82.1s82.4 35.8 82.4 82.1-36.7 82.1-82.4 82.1-82.4-35.7-82.4-82.1zm118.2 0c0-22.1-15.5-36.7-35.8-36.7s-35.8 14.6-35.8 36.7 15.5 36.7 35.8 36.7 35.8-14.6 35.8-36.7z"/></svg>