<svg xmlns="http://www.w3.org/2000/svg" role="img" viewBox="0 0 38 24" width="38" height="24" aria-labelledby="pi-payplan"><title id="pi-payplan">PayPlan by RBC</title><path opacity=".07" d="M35 0H3C1.3 0 0 1.3 0 3v18c0 1.7 1.4 3 3 3h32c1.7 0 3-1.3 3-3V3c0-1.7-1.4-3-3-3z"/><path fill="#004187" d="M35 1c1.1 0 2 .9 2 2v18c0 1.1-.9 2-2 2H3c-1.1 0-2-.9-2-2V3c0-1.1.9-2 2-2h32"/><circle cx="26.84" cy="6.02" r="1.21" fill="#ffd86b"/><circle cx="21.65" cy="3.84" r="1.61" fill="#ffcf4c"/><circle cx="15.55" cy="5.74" r="2.01" fill="#ffc72c"/><circle cx="12.3" cy="12.03" r="2.36" fill="#fcb135"/><circle cx="15.21" cy="19.12" r="2.62" fill="#f58a20"/></svg>