<?xml version="1.0" encoding="utf-8"?>
<!-- Generator: Adobe Illustrator 16.0.0, SVG Export Plug-In . SVG Version: 6.00 Build 0)  -->
<!DOCTYPE svg PUBLIC "-//W3C//DTD SVG 1.1//EN" "http://www.w3.org/Graphics/SVG/1.1/DTD/svg11.dtd">
<svg version="1.1" xmlns="http://www.w3.org/2000/svg" xmlns:xlink="http://www.w3.org/1999/xlink" x="0px" y="0px" width="38px"
	 height="24px" viewBox="0 0 38 24" enable-background="new 0 0 38 24" xml:space="preserve" aria-labelledby="pi-paypal" role="img">
	   <title id="pi-paypal">PayPal</title>
<g id="pi-paypal-Layer_3">
	<g>
		<g>
			<path fill-rule="evenodd" clip-rule="evenodd" fill="#FFFFFF" d="M0.25,16.928V3.33c0-0.053,0-0.104,0-0.154
				c0-1.95,0.93-2.925,2.789-2.925h31.995c1.812,0.038,2.717,1.013,2.717,2.925v13.65c0,1.95-0.945,2.925-2.838,2.925H3.039
				C1.215,19.75,0.285,18.81,0.25,16.928z"/>
			
				<path fill-rule="evenodd" clip-rule="evenodd" fill="none" stroke="#CECECE" stroke-linecap="round" stroke-linejoin="round" stroke-miterlimit="3" d="
				M34.164,0.25H2.969c-1.813,0-2.719,0.927-2.719,2.779c0,0.048,0,0.097,0,0.146v12.918v0.731c0,1.949,0.922,2.925,2.766,2.925
				h31.875c1.906,0,2.859-0.976,2.859-2.925V3.175c0-1.95-0.953-2.925-2.859-2.925H34.164z"/>
		</g>
	</g>
</g>
<g id="pi-paypal-Layer_1">
	<g>
		<g>
			<path fill-rule="evenodd" clip-rule="evenodd" fill="#253B80" d="M16.821,11.271l-0.677,4.153h-2.744
				c-0.238-0.048-0.333-0.19-0.285-0.43l1.817-11.457c0.024-0.167,0.083-0.299,0.178-0.395C15.229,3.047,15.36,3,15.502,3h4.349
				c1.592,0,2.696,0.346,3.313,1.038c0.547,0.668,0.737,1.504,0.571,2.506c-0.024,0-0.166-0.059-0.429-0.179h-0.035L23.164,6.33
				c-0.023,0-0.047-0.013-0.07-0.036c-0.167-0.048-0.333-0.084-0.499-0.107c-0.381-0.048-0.761-0.072-1.141-0.072h-3.386
				c-0.309,0-0.487,0.144-0.535,0.43l-0.713,4.655V11.271z"/>
			<path fill-rule="evenodd" clip-rule="evenodd" fill="#222D65" d="M23.735,6.544l-0.036,0.251v0.107
				c-0.023,0.048-0.036,0.107-0.036,0.179c-0.45,1.886-1.52,3.044-3.207,3.474c-0.237,0.071-0.499,0.131-0.784,0.179
				c-0.309,0.023-0.642,0.036-0.998,0.036h-1.283c-0.333,0-0.523,0.167-0.57,0.501v-0.071l0.713-4.655
				c0.047-0.286,0.226-0.43,0.535-0.43h3.386c0.38,0,0.76,0.024,1.141,0.072c0.166,0.023,0.332,0.06,0.499,0.107
				c0.023,0.023,0.047,0.036,0.07,0.036l0.107,0.035h0.035C23.569,6.485,23.711,6.544,23.735,6.544z"/>
			<path fill-rule="evenodd" clip-rule="evenodd" fill="#179BD7" d="M23.735,6.544c0.237,0.12,0.439,0.274,0.605,0.466
				c0.522,0.621,0.678,1.492,0.464,2.614c-0.429,2.315-1.89,3.473-4.384,3.473H20.1c-0.143,0-0.273,0.048-0.392,0.144
				c-0.096,0.096-0.144,0.202-0.144,0.322l-0.07,0.144l-0.429,2.828C19.019,16.845,18.84,17,18.531,17h-2.316
				c-0.071-0.024-0.13-0.071-0.178-0.144c-0.071-0.071-0.095-0.155-0.071-0.251l0.178-1.182l0.677-4.153
				c0.047-0.334,0.237-0.501,0.57-0.501h1.283c0.356,0,0.689-0.013,0.998-0.036c0.285-0.048,0.547-0.107,0.784-0.179
				c1.688-0.43,2.757-1.588,3.207-3.474c0-0.071,0.013-0.131,0.036-0.179V6.795L23.735,6.544z"/>
		</g>
	</g>
</g>
</svg>

