<svg xmlns="http://www.w3.org/2000/svg" width="38" height="24" fill="none" aria-labelledby="pi-payrexxbanktransfer" role="img" viewBox="0 0 38 24"><title id="pi-payrexxbanktransfer">Payrexx Bank Transfer</title><path fill="#fff" d="M0 0h38v24H0z"/><path fill="#000" d="M5.93 17.65a.24.24 0 0 1-.24-.24c0-.13.11-.24.24-.24h8.23c.13 0 .24.11.24.24s-.11.24-.24.24zm0-1.88a.24.24 0 0 1-.24-.24c0-.13.11-.24.24-.24h8.23c.13 0 .24.11.24.24s-.11.24-.24.24zm0-1.88a.24.24 0 0 1-.24-.24c0-.13.11-.24.24-.24h8.23c.13 0 .24.11.24.24s-.11.24-.24.24zm-2-9.65h28.11c.15 0 .28.13.28.28v16.92c0 .16-.13.28-.28.28H3.93a.28.28 0 0 1-.28-.28V4.52c0-.16.13-.28.28-.28m27.83.56H4.21v16.35h27.55zM5.83 2.89a.3.3 0 0 1-.3-.3c0-.16.14-.3.3-.3h28.21c.17 0 .3.14.3.3v16.92a.3.3 0 0 1-.3.3.3.3 0 0 1-.3-.3V2.89z"/><path fill="#00AFF0" d="M6.02 10.07a.13.13 0 0 1-.13-.13c0-.07.06-.13.13-.13h1.59V8.22c0-.07.06-.13.13-.13s.13.06.13.13v1.59h1.59c.07 0 .13.06.13.13s-.06.13-.13.13H7.87v1.59c0 .07-.06.13-.13.13a.13.13 0 0 1-.13-.13v-1.59z"/><path fill="#000" d="M23.93 16.15h1.56c.05 0 .09.04.09.09v1.5c0 .05-.04.09-.09.09h-1.56a.09.09 0 0 1-.09-.09v-1.5c0-.05.04-.09.09-.09m1.47.19h-1.38v1.31h1.38zm-4.68-.19h1.56c.05 0 .09.04.09.09v1.5c0 .05-.04.09-.09.09h-1.56a.09.09 0 0 1-.09-.09v-1.5c0-.05.04-.09.09-.09m1.47.19h-1.38v1.31h1.38zm-1.47-3.25h1.56c.05 0 .09.04.09.09v1.5c0 .05-.04.09-.09.09h-1.56a.09.09 0 0 1-.09-.09v-1.5c0-.05.04-.09.09-.09m1.47.19h-1.38v1.31h1.38zm1.74-.19h1.56c.05 0 .09.04.09.09v1.5c0 .05-.04.09-.09.09h-1.56a.09.09 0 0 1-.09-.09v-1.5c0-.05.04-.09.09-.09m1.47.19h-1.38v1.31h1.38z"/><path fill="#00AFF0" d="M19.08 11.22h3.01v.31h-2.86v2.97h-.31v-3.12c0-.08.07-.15.15-.15zm5.04 0h3.17c.08 0 .15.07.15.15v3.12h-.31v-2.97h-3.01v-.31zm3.32 5.21v3.19c0 .08-.07.15-.15.15h-3.17v-.31h3.01v-3.04h.31zm-5.35 3.34h-3.01a.15.15 0 0 1-.15-.15v-3.19h.31v3.04h2.86v.31zm1.93-3.43h1.38v1.31h-1.38z"/><path fill="#000" d="M15.58 9.6h-.47V6.15h.47zm1.21-2.56.03.38a.9.9 0 0 1 .32-.32.8.8 0 0 1 .44-.11c.28 0 .49.08.64.24s.23.41.23.75V9.6h-.47V7.99c0-.23-.04-.39-.13-.48-.09-.1-.23-.14-.41-.14a.7.7 0 0 0-.37.09.7.7 0 0 0-.24.24v1.9h-.47V7.04zm3.2 1.8.04.18h.02l.05-.18.59-1.81h.48l-.94 2.56h-.35l-.96-2.56h.48l.61 1.81zm1.44-.55c0-.38.1-.69.31-.94s.48-.37.84-.37.64.12.84.37c.21.24.31.56.31.94v.05c0 .38-.1.7-.31.94a1.1 1.1 0 0 1-.84.37c-.35 0-.63-.12-.84-.37a1.38 1.38 0 0 1-.31-.94zm.47.06c0 .27.06.5.17.67s.29.27.51.27q.33 0 .51-.27c.12-.18.17-.4.17-.67V8.3c0-.27-.06-.49-.17-.67a.58.58 0 0 0-.51-.27.58.58 0 0 0-.51.27c-.11.18-.17.4-.17.67zm2.9 1.25h-.47V7.04h.47zm0-3.22h-.47V5.9h.47zm1.74 2.91a.6.6 0 0 0 .38-.14c.11-.1.16-.21.16-.35h.43c0 .23-.09.43-.28.6-.2.17-.42.26-.68.26-.36 0-.64-.12-.84-.37-.2-.24-.29-.55-.29-.91v-.1c0-.36.1-.67.3-.91a1 1 0 0 1 .83-.37c.29 0 .52.09.7.27s.27.39.26.65-.42.01-.42.01a.57.57 0 0 0-.15-.4.5.5 0 0 0-.39-.16c-.23 0-.4.09-.5.27a1.2 1.2 0 0 0-.16.65v.1c0 .26.05.47.16.65.1.18.27.27.5.27zm2.58.36c-.37 0-.66-.12-.86-.35a1.34 1.34 0 0 1-.31-.93v-.1c0-.37.11-.67.32-.91a1 1 0 0 1 .78-.36c.34 0 .6.11.77.32s.26.5.26.85v.25h-1.65c0 .27.06.48.17.64s.29.24.52.24c.16 0 .3-.02.42-.07s.22-.11.31-.19l.18.3c-.09.09-.21.16-.36.22s-.33.09-.54.09zm-.07-2.29c-.16 0-.3.06-.4.19a.95.95 0 0 0-.2.48c-.03.19 1.16.01 1.16.01V8a.74.74 0 0 0-.14-.46q-.135-.18-.42-.18"/></svg>