<svg xmlns="http://www.w3.org/2000/svg" role="img" viewBox="0 0 38 24" width="38" height="24" aria-labelledby="pi-payrexxpowerpay"><title id="pi-payrexxpowerpay">Powerpay</title><path d="M35 0H3C1.3 0 0 1.3 0 3v18c0 1.7 1.4 3 3 3h32c1.7 0 3-1.3 3-3V3c0-1.7-1.4-3-3-3z" fill="#000" opacity=".07"/><path d="M35 1c1.1 0 2 .9 2 2v18c0 1.1-.9 2-2 2H3c-1.1 0-2-.9-2-2V3c0-1.1.9-2 2-2h32" fill="#fff"/><g transform="matrix(.3 0 0 .3 1 0)"><g data-name="Ebene_1" id="Ebene_1-2"><path d="M20.31 35.14h3.8c2.26 0 3.67 1.28 3.67 3.22v.03c0 2.16-1.74 3.29-3.87 3.29H22v3.1h-1.69v-9.65zm3.66 5.02c1.28 0 2.08-.72 2.08-1.72v-.03c0-1.13-.81-1.72-2.08-1.72H22v3.47h1.97zm15.98-5.02h1.83l2.3 7.15 2.37-7.18h1.43l2.37 7.18 2.3-7.15h1.78l-3.35 9.71h-1.47l-2.37-6.93-2.37 6.93h-1.46l-3.37-9.72zm16.12 0h7.14v1.51h-5.45v2.52h4.84v1.51h-4.84v2.59h5.52v1.51h-7.23v-9.65zm9.23 0h4.3c1.21 0 2.16.36 2.78.96.53.56.82 1.31.8 2.08v.03c0 1.58-.95 2.54-2.29 2.92l2.6 3.65h-2.02l-2.37-3.36h-2.12v3.36h-1.69v-9.64zm4.18 4.78c1.21 0 1.98-.63 1.98-1.61v-.03c0-1.03-.74-1.6-2-1.6h-2.47v3.24h2.48zm-32.17-3.89l-.92 1.24c.67.63 1.22 1.68 1.22 2.7V40c0 1.87-1.54 3.53-3.46 3.53s-3.48-1.68-3.48-3.56v-.03c.01-.98.42-1.92 1.13-2.6l-.82-1.29c-1.2.95-1.89 2.39-1.88 3.92V40c0 2.71 2.07 4.96 5.03 4.96s5.07-2.28 5.07-4.99v-.03c.02-1.52-.68-2.97-1.87-3.91z" fill="#f0a41f"/><path d="M34.89 39.39a.76.76 0 11-1.52 0v-3.66a.76.76 0 111.52 0v3.66zm-3.93-3.34c.28-.28.72-.17 1.04.15s.06.86-.21 1.14-.48.17-.79-.15a.835.835 0 01-.03-1.14zm6.35-.02c-.28-.28-.74-.15-1.06.17s-.14.79.14 1.07.55.24.87-.08c.31-.32.33-.82.05-1.16z" fill="#f0a41f"/><path d="M75.3 44.79v-9.65h3.8c1.12 0 2.01.29 2.67.88s.99 1.37.99 2.34v.03c0 1.04-.36 1.85-1.09 2.43s-1.65.87-2.76.88H77v3.1h-1.7zm1.69-4.63h1.97c.63 0 1.14-.16 1.51-.48.37-.3.58-.76.56-1.24v-.03c.03-.49-.18-.96-.56-1.27-.37-.3-.88-.45-1.52-.45h-1.97v3.47zm5.72 4.63l4.24-9.71h1.57l4.24 9.71h-1.79l-.98-2.33h-4.56l-.99 2.33H82.7zm3.35-3.83h3.32l-1.67-3.87-1.65 3.87zm9.68 3.83v-3.8l-3.83-5.85h2.02l2.69 4.26 2.72-4.26h1.94l-3.83 5.8v3.84h-1.71z" fill="#067dad"/></g></g></svg>