<svg xmlns="http://www.w3.org/2000/svg" width="38" height="24" fill="none" aria-labelledby="pi-payright" role="img" viewBox="0 0 38 24"><title id="pi-payright">Payright</title><path fill="#fff" d="M0 0h38v24H0z"/><path fill="#F93253" d="M24.58 9.97a.34.34 0 1 1-.68 0 .34.34 0 0 1 .68 0m-2.24 1.08a.32.32 0 0 0-.3-.27.31.31 0 0 0-.32.24.6.6 0 0 0-.02.14v2.12c0 .07.01.15.06.21.07.12.21.17.36.13a.29.29 0 0 0 .22-.24 1 1 0 0 0 0-.1l.01-1.23a.9.9 0 0 1 .1-.42.47.47 0 0 1 .34-.28q.15-.03.3 0l.17-.01a.27.27 0 0 0 .18-.24.26.26 0 0 0-.1-.24.4.4 0 0 0-.18-.07.94.94 0 0 0-.76.3l-.05.05-.01-.1Zm-7.61 1.15c0 .86-.63 1.53-1.44 1.53-.36 0-.66-.15-.87-.37-.05-.05-.12-.02-.12.05v1.31a.32.32 0 1 1-.64 0v-3.64a.3.3 0 0 1 .59-.01v.04c0 .06.07.07.11.02.19-.24.5-.45.93-.45.81 0 1.44.67 1.44 1.52m-.64 0a.9.9 0 1 0-1.79 0 .89.89 0 0 0 1.24.84.9.9 0 0 0 .55-.84m4.11-1.12v2.26a.3.3 0 0 1-.59 0v-.05c0-.05-.07-.07-.11 0a1.13 1.13 0 0 1-.93.44c-.8 0-1.44-.67-1.44-1.53 0-.85.63-1.52 1.44-1.52.44 0 .74.2.93.45.04.05.1.04.11-.02v-.04a.3.3 0 0 1 .6 0Zm-.64 1.12a.9.9 0 1 0-1.79 0 .89.89 0 0 0 1.24.84.9.9 0 0 0 .55-.84m3.38-1.42a.3.3 0 0 0-.27.18l-.64 1.56a.07.07 0 0 1-.06.05.07.07 0 0 1-.06-.05l-.62-1.54a.33.33 0 0 0-.3-.2.32.32 0 0 0-.3.45l.91 2.2a.18.18 0 0 1 0 .13l-.45 1.07a.3.3 0 1 0 .54.23l1.52-3.67a.3.3 0 0 0-.27-.41m2.98.32v2.21a.32.32 0 1 0 .64 0v-2.2a.32.32 0 1 0-.64 0Zm8.97-.32a.09.09 0 0 1-.1-.09v-1a.32.32 0 1 0-.63 0v1c0 .06-.03.09-.08.1h-.2a.3.3 0 1 0 0 .6h.2c.04 0 .08.03.08.08v1.84a.32.32 0 1 0 .64 0v-1.84c0-.05.03-.09.09-.09h.31a.3.3 0 0 0 0-.6zm-2.5-.1a1 1 0 0 0-.76.34.07.07 0 0 1-.1 0 .1.1 0 0 1-.01-.04V9.24a.32.32 0 0 0-.32-.34.32.32 0 0 0-.32.34v4.07a.32.32 0 1 0 .64 0v-1.45c0-.05.02-.1.05-.15.17-.26.38-.4.6-.4.28 0 .47.16.47.52v1.48a.32.32 0 1 0 .64 0v-1.69c0-.6-.36-.94-.9-.94Zm-2.2 3c0 .9-.67 1.46-1.52 1.46a1.7 1.7 0 0 1-.82-.2 1.3 1.3 0 0 1-.42-.38l-.03-.05a.4.4 0 0 1-.08-.45.29.29 0 0 1 .38-.1c.06.03.1.07.13.13l.13.17c.1.13.24.22.4.26.2.05.34.05.45.04a1 1 0 0 0 .18-.04c.33-.1.56-.4.56-.84v-.34c0-.07-.08-.09-.13-.05a1.15 1.15 0 0 1-.86.38c-.81 0-1.44-.67-1.44-1.5 0-.82.63-1.48 1.44-1.48.43 0 .73.2.93.44.03.05.1.04.1-.02v-.04a.3.3 0 0 1 .6 0zm-.64-1.49a.9.9 0 0 0-1.24-.83.89.89 0 0 0-.55.83.9.9 0 0 0 1.53.64.9.9 0 0 0 .26-.64M9.98 14.13l-1-1.03a.32.32 0 0 0-.22-.1.32.32 0 0 0-.33.32c0 .09.04.17.1.23l1 1.03a.32.32 0 0 0 .54-.22.32.32 0 0 0-.09-.23"/><path fill="url(#pi-payright-a)" d="M10.36 10.3a1.63 1.63 0 0 0-3.24.25v2.93a1.02 1.02 0 0 1-.62.95h-.03a1 1 0 0 1-.32.07h-.02a.98.98 0 0 1-.91-.61.99.99 0 0 1 .19-1.06 1 1 0 0 1 .66-.31h.07a.3.3 0 0 0 .31-.32v-.02a.31.31 0 0 0-.3-.3H6.1a1.61 1.61 0 0 0-1.52 1.1 1.62 1.62 0 0 0 .4 1.69c.26.26.6.42.97.46h.35a1.63 1.63 0 0 0 1.46-1.62v-2.94a1.02 1.02 0 0 1 .63-.94h.02c.05-.03.11-.04.17-.05a1 1 0 0 1 .15-.02h.02a.99.99 0 0 1 .1 1.98h-.11a.31.31 0 0 0-.31.31v.03c0 .17.14.3.31.3h.04a1.62 1.62 0 0 0 1.52-1.12c.08-.24.1-.5.06-.75Z"/><path fill="#5431FF" d="m6.36 10.51-1-1.03a.32.32 0 0 0-.53.1.32.32 0 0 0 .07.35l1 1.03a.32.32 0 1 0 .46-.45"/><defs><linearGradient id="pi-payright-a" x1="10.5" x2="4.5" y1="8.92" y2="14.92" gradientUnits="userSpaceOnUse"><stop stop-color="#F93253"/><stop offset="1" stop-color="#5431FF"/></linearGradient></defs></svg>