<svg xmlns="http://www.w3.org/2000/svg" width="38" height="24" fill="none" aria-labelledby="pi-paysafecardpaynlversion" role="img" viewBox="0 0 38 24"><title id="pi-paysafecardpaynlversion">Paysafecard (PAY. version)</title><path fill="#0080B9" d="M0 0h38v24H0z"/><path fill="#F80000" d="M18.31 18.32h2.31c1.35 0 2-.63 2.02-1.98.02-1.41.02-2.82 0-4.24-.02-1.32-.67-1.97-2.02-1.97-1.57-.02-3.16-.02-4.73 0-1.14 0-1.86.65-1.9 1.8a79 79 0 0 0 0 4.61c.04 1.17.73 1.78 1.92 1.8zm-4.1-8.24a4.1 4.1 0 0 1 3.77-4.4l.31-.01a4.12 4.12 0 0 1 4.13 4.37c-.34-.14-.68-.25-.99-.4-.07-.03-.11-.16-.13-.23a3.08 3.08 0 0 0-2.96-2.22c-1.4 0-2.52.83-2.99 2.22-.02.1-.06.18-.15.23l-1 .44z"/></svg>