<svg xmlns="http://www.w3.org/2000/svg" role="img" viewBox="0 0 38 24" width="38" height="24" aria-labelledby="pi-paysafecard"><title id="pi-paysafecard">PaySafeCard</title><g clip-path="url(#pi-paysafecard-clip0_15_79)"><path d="M35 .001H3c-1.7 0-3 1.3-3 3v18C0 22.7 1.4 24 3 24h32c1.7 0 3-1.3 3-3V3c0-1.7-1.4-3-3-3v.001z" fill="#000" fill-opacity=".07"/><path d="M35 1c1.1 0 2.001.9 2.001 2v18a2.006 2.006 0 01-2 2H3a2.007 2.007 0 01-2-2V3c0-1.1.9-2 2.001-2h32z" fill="#fff"/><path d="M25.873 11.244v1.61a.617.617 0 00.192.463.695.695 0 00.512.184h1.011v-.29h-.998a.362.362 0 01-.294-.132.481.481 0 01-.116-.317V11.31a.379.379 0 01.116-.29.377.377 0 01.281-.119h.999v-.303h-.999a.876.876 0 00-.473.145.551.551 0 00-.23.502zm4.659-.066a.67.67 0 00-.192-.462.31.31 0 00-.179-.118.834.834 0 00-.243-.014h-1.6v.304h1.536c.32 0 .371.185.371.303v.37h-1.267c-.435 0-.64.264-.64.832v.422c0 .182.069.358.192.488a.59.59 0 00.448.212h.96a.573.573 0 00.422-.198.641.641 0 00.192-.462v-1.677zm-.307 1.65a.362.362 0 01-.051.172.335.335 0 01-.192.185.546.546 0 01-.23.026h-.64a.637.637 0 01-.333-.066.41.41 0 01-.154-.304v-.554c0-.158.064-.41.474-.41h1.139l-.013.951zm1.843-1.927h.14v-.317h-.178a.623.623 0 00-.487.172c-.09.092-.128.264-.128.515v2.23h.295v-2.217a.356.356 0 01.091-.279.333.333 0 01.267-.104zM35 9.502h-.295v1.082h-1.19c-.461 0-.679.212-.679.66v1.584a.664.664 0 00.154.475.641.641 0 00.46.212h.935a.531.531 0 00.435-.212.754.754 0 00.18-.528V9.502zm-.295 3.26a.44.44 0 01-.25.415.385.385 0 01-.16.034h-.832a.289.289 0 01-.243-.119.423.423 0 01-.09-.277v-1.492c0-.277.141-.422.397-.422h1.178v1.861zM8.787 11.508c0-.118-.052-.171-.154-.171h-.537a.198.198 0 00-.146.06.21.21 0 00-.06.15v1.004c0 .145.078.211.218.211h.5a.174.174 0 00.127-.066.136.136 0 00.051-.119v-1.069zm-1.6-.145a.945.945 0 01.166-.58.823.823 0 01.205-.146.614.614 0 01.256-.066h.998c.435 0 .666.251.666.752v1.518a.576.576 0 01-.205.45.687.687 0 01-.46.21h-.948v1.096h-.704v-3.234h.026zm3.558 1.267a.119.119 0 00.051.106c.038.027.082.04.128.04h.538c.115 0 .179-.053.192-.146v-.211c0-.119-.064-.171-.192-.171h-.538a.201.201 0 00-.14.04.235.235 0 00-.04.157v.185zm.909-1.135c0-.105-.064-.158-.192-.158h-1.408v-.74h1.587c.46.014.691.238.704.687v1.544a.714.714 0 01-.18.489.59.59 0 01-.46.198h-.96c-.46 0-.704-.225-.704-.66v-.594c0-.462.23-.687.678-.7h.935v-.066zm2.649 2.375a.203.203 0 00.14-.065.16.16 0 00.052-.119v-.171h-.896a.857.857 0 01-.281-.04.571.571 0 01-.218-.158 1.011 1.011 0 01-.154-.251.905.905 0 01-.05-.29v-2.192h.703v1.954c0 .158.064.237.192.237h.5a.207.207 0 00.153-.066.184.184 0 00.064-.118v-2.007h.691v3.22a.92.92 0 01-.18.582.582.582 0 01-.473.224h-1.638v-.74h1.395zm1.433-1.095h1.242c.115 0 .18-.052.18-.145v-.066a.147.147 0 00-.014-.066.124.124 0 00-.04-.055.119.119 0 00-.062-.024h-.614a.64.64 0 01-.474-.198.571.571 0 01-.205-.422v-.555c.013-.435.23-.646.679-.66h1.446v.74h-1.229c-.14 0-.217.04-.217.132v.066c0 .092.076.145.217.145h.615a.532.532 0 01.422.198.66.66 0 01.18.448v.542a.715.715 0 01-.206.448.68.68 0 01-.192.159.757.757 0 01-.281.04h-1.447v-.727zm3.341-.145a.123.123 0 00.051.106.22.22 0 00.128.04h.538c.115 0 .179-.053.192-.146v-.211c0-.119-.064-.171-.192-.171h-.538a.2.2 0 00-.14.04.235.235 0 00-.039.157v.185zm.909-1.135c0-.105-.064-.158-.192-.158h-1.408v-.74h1.587c.46.014.691.238.704.687v1.544a.714.714 0 01-.18.489.592.592 0 01-.46.198h-.96c-.46 0-.704-.225-.704-.66v-.594c0-.462.23-.687.678-.7h.935v-.066zm1.254-1.32a.605.605 0 01.218-.475.808.808 0 01.537-.185h.448v.713h-.269a.196.196 0 00-.162.05.209.209 0 00-.068.161v.159h.5v.739h-.5v2.19h-.704v-3.352zm-17.944.304a.807.807 0 01.166-.053c.05-.246.18-.467.368-.626a1.039 1.039 0 011.338 0c.189.159.319.38.368.626a.68.68 0 01.384.198 2.01 2.01 0 00-.013-.277 1.479 1.479 0 00-.463-.97A1.392 1.392 0 004.462 9c-.362.009-.707.16-.964.423a1.483 1.483 0 00-.42.99v.211a1.26 1.26 0 01.218-.145z" fill="#3200FF"/><path d="M5.33 10.584h-1.7a.492.492 0 00-.256.066.49.49 0 00-.205.146.875.875 0 00-.167.567v1.373a.946.946 0 00.167.58c.06.06.13.108.205.146.08.04.167.063.256.066h1.7c.435 0 .665-.251.665-.753v-1.438c0-.502-.217-.74-.665-.753zm19.084.898v-.013a.102.102 0 00-.012-.054.098.098 0 00-.039-.039.202.202 0 00-.115-.04h-.486a.198.198 0 00-.154.053.16.16 0 00-.077.133v.303l.883-.343zm-.857 1.043v.04a.187.187 0 00.05.144c.027.04.052.066.09.066h1.434v.74h-1.523a1.007 1.007 0 01-.32-.04.622.622 0 01-.23-.145.623.623 0 01-.154-.238 1.196 1.196 0 01-.038-.343v-1.478c.012-.449.23-.673.678-.687h.947c.435.014.653.238.666.713v.58l-1.6.648z" fill="#3200FF"/></g><defs><clipPath id="pi-paysafecard-clip0_15_79"><path fill="#fff" d="M0 0h38v24H0z"/></clipPath></defs></svg>