<svg xmlns="http://www.w3.org/2000/svg" fill="none" viewBox="0 0 38 24" height="24" width="38" aria-labelledby="pi-paysera" role="img"><title id="pi-paysera">Paysera</title><path fill="#fff" d="M0 0h38v24H0z"/><path fill="#3C6" d="M5.2 11.7H4v4.24h1.2V11.7Z"/><path fill="#009" d="M8.23 11.7a1.51 1.51 0 0 1-.44 1.08c-.28.28-.67.45-1.08.45-.72 0-1.4.3-1.92.8-.5.5-.8 1.2-.79 1.9h1.2a1.51 1.51 0 0 1 .43-1.07c.3-.28.68-.45 1.08-.45.72 0 1.41-.3 1.92-.8s.8-1.2.8-1.9h-1.2Z"/><path fill="#39F" d="M6.71 9A2.74 2.74 0 0 0 4 11.7h1.2a1.51 1.51 0 0 1 .43-1.07c.29-.29.68-.45 1.08-.45a1.54 1.54 0 0 1 1.4.94c.08.19.12.38.12.58h1.2A2.74 2.74 0 0 0 6.71 9Z"/><path fill="#009" d="m24.8 11.38-.44.52a1 1 0 0 0-.71-.3c-.22 0-.34.08-.34.23 0 .12.08.18.33.27l.3.13c.62.25.9.5.9.96a.86.86 0 0 1-.35.73 1.4 1.4 0 0 1-.89.27c-.56 0-1-.2-1.31-.61l.44-.52c.27.29.57.43.89.43.23 0 .4-.1.4-.26 0-.14-.1-.19-.33-.29l-.34-.14c-.58-.23-.87-.5-.87-.96 0-.58.48-.94 1.17-.94.48 0 .86.16 1.15.48ZM18.54 11h-.8v.34c-.43-.54-1.52-.6-2.12.05a1.8 1.8 0 0 0 0 2.35c.6.64 1.69.6 2.13.05v.34h.79V11Zm-1.65 2.43c-1.1 0-1.1-1.73 0-1.73 1.06 0 1.07 1.73 0 1.73Zm-5.45 1.68h.8v-1.32c.44.54 1.53.6 2.12-.04a1.8 1.8 0 0 0 0-2.36c-.6-.64-1.68-.59-2.12-.05V11h-.8v4.1Zm1.66-3.4c1.09 0 1.09 1.72 0 1.72-1.07 0-1.07-1.72 0-1.72Zm20.9-.73h-.8v.34c-.43-.54-1.53-.59-2.12.05a1.8 1.8 0 0 0 0 2.36c.6.64 1.69.59 2.12.04v.34h.8v-3.13Zm-1.65 2.43c-1.1 0-1.1-1.72 0-1.72 1.06 0 1.07 1.72 0 1.72Zm-10.9-2.43-.83 2.06-.78-2.06h-.91l1.21 2.95c-.04.21-.2.45-.77.46v.73a1.5 1.5 0 0 0 1.54-.9l1.44-3.24h-.9Zm8.94.77v-.81a1.89 1.89 0 0 0-.26-.02 1.44 1.44 0 0 0-1.04.4 1.42 1.42 0 0 0-.41 1.06v1.75h.86v-1.8a.57.57 0 0 1 .36-.55.59.59 0 0 1 .23-.05l.26.02Zm-3.62-.85a1.68 1.68 0 0 0-1.54 1.03 1.63 1.63 0 0 0 .37 1.79c.7.66 1.88.58 2.49.08l-.33-.6c-.46.34-1.56.46-1.79-.37h2.27c.02-.32.08-.77-.17-1.2a1.44 1.44 0 0 0-1.3-.73Zm-.04.7c.37 0 .66.23.68.59H26c.1-.36.4-.6.74-.6Z"/></svg>