<svg xmlns="http://www.w3.org/2000/svg" width="38" height="24" fill="none" aria-labelledby="pi-paysafecash" role="img" viewBox="0 0 38 24"><title id="pi-paysafecash">Paysafecash</title><path fill="#fff" d="M0 0h38v24H0z"/><path fill="#FF5073" d="M22.88 13.79a.61.61 0 0 0 .43-1.04.61.61 0 0 0-.86 0 .61.61 0 0 0-.14.66.61.61 0 0 0 .57.38"/><path fill="#7887E6" d="M28.77 10.68c-.57 0-1.03.18-1.31.35l.26.53c.17-.08.53-.21.83-.21.21 0 .4.07.4.3v.2c-1.29-.1-1.66.47-1.66.99 0 .5.44.94 1 .94.23 0 .47-.09.66-.2v.13h.95v-2.06c0-.67-.43-.97-1.12-.97Zm.18 2.38a.64.64 0 0 1-.37.12c-.23 0-.39-.14-.39-.35 0-.25.2-.48.76-.4zm-6.07-1.17a.61.61 0 0 0 .56-.84.61.61 0 0 0-.8-.33.6.6 0 0 0-.2 1 .6.6 0 0 0 .44.17m7.69 1.02c.22.1.49.2.77.2.27 0 .43-.09.43-.25 0-.43-1.4-.25-1.4-1.25 0-.63.56-.94 1.26-.94.38 0 .75.12 1 .24l-.26.62a1.9 1.9 0 0 0-.7-.17c-.23 0-.37.09-.37.23 0 .4 1.38.23 1.38 1.2 0 .65-.59 1-1.27 1-.38 0-.8-.1-1.14-.28zm-4.42-.25c-.08.27-.25.45-.53.45-.42 0-.58-.39-.58-.88 0-.5.18-.88.58-.88.27 0 .44.17.52.44h.9a1.43 1.43 0 0 0-1.42-1.12c-.92 0-1.58.58-1.58 1.55 0 .98.65 1.55 1.58 1.55.66 0 1.25-.4 1.42-1.12h-.9v.01Zm8.73 1.05v-1.98c0-.22-.1-.37-.32-.37-.23 0-.47.15-.6.25v2.1h-.93v-4h.94v1.36c.24-.2.57-.4.96-.4.38 0 .9.2.9 1.02v2.02z"/><path fill="#2D2341" d="M21.66 12.42v-.24c0-.86-.61-1.5-1.45-1.5-.83 0-1.48.65-1.48 1.57 0 .94.62 1.53 1.6 1.53.26 0 .8-.05 1.21-.33l-.26-.57a1.8 1.8 0 0 1-.82.23h-.08l-.06-.01h-.01l-.05-.01h-.02l-.05-.02h-.02l-.04-.01-.03-.02h-.01l-.06-.03a.5.5 0 0 1-.1-.08l-.04-.04-.01-.02a.1.1 0 0 0-.02-.02l-.04-.05a.9.9 0 0 1-.11-.37h1.95zm-1.45-1.1c.26 0 .47.21.5.6h-1c.04-.39.24-.6.5-.6m-8.16.27c0-.14.14-.23.38-.23s.5.09.7.17l.25-.61a2.3 2.3 0 0 0-1-.24c-.7 0-1.26.31-1.26.94 0 .99 1.4.8 1.4 1.25 0 .16-.16.24-.43.24-.28 0-.55-.1-.76-.2l-.3.6c.35.19.76.27 1.14.27.68 0 1.27-.34 1.27-.98 0-.98-1.39-.82-1.39-1.21m-5.42-.91c-.58 0-1.04.18-1.32.35l.26.53c.17-.08.53-.21.83-.21.22 0 .4.07.4.3v.2c-1.29-.1-1.66.47-1.66.99 0 .5.44.94 1 .94.23 0 .48-.09.66-.2v.13h.94v-2.06c0-.67-.42-.97-1.11-.97m.22 2.38a.65.65 0 0 1-.38.12c-.23 0-.39-.14-.39-.35 0-.25.2-.48.76-.4v.63Zm8.35-2.38c-.58 0-1.04.18-1.32.35l.26.53c.17-.08.53-.21.83-.21.22 0 .4.07.4.3v.2c-1.29-.1-1.66.47-1.66.99 0 .5.44.94 1 .94.23 0 .48-.09.66-.2v.13h.94v-2.06c0-.67-.42-.97-1.11-.97m.18 2.38a.64.64 0 0 1-.37.12c-.24 0-.4-.14-.4-.35 0-.25.2-.48.76-.4v.63Zm1.7-2.43v.12h-.5v.64h.5v2.33h.94v-2.33h.64v-.64h-.64v-.16c0-.26.1-.45.4-.45.08 0 .19.02.27.04v-.66q-.225-.06-.45-.06c-.76 0-1.16.46-1.16 1.17m-6.93.12-.64 1.77-.75-1.77H7.8l1.27 2.82-.4.97h.9l1.5-3.8h-.92ZM3.73 9.7H2.18v4.01h.96v-1.46h.6c.77 0 1.36-.49 1.36-1.3 0-.71-.44-1.25-1.37-1.25m-.1 1.85h-.49V10.4h.49c.34 0 .54.24.54.58 0 .37-.22.57-.54.57"/></svg>