<svg xmlns="http://www.w3.org/2000/svg" role="img" viewBox="0 0 38 24" width="38" height="24" aria-labelledby="pi-paysera"><title id="pi-paysera">Paysera</title><path d="M34.853.05H2.987C1.295.05 0 1.345 0 3.038v17.924c0 1.693 1.394 2.988 2.987 2.988h31.866c1.693 0 2.988-1.295 2.988-2.988V3.038c0-1.693-1.394-2.988-2.988-2.988z" fill-opacity=".07" fill-rule="nonzero"/><path d="M34.853 1.046c1.096 0 1.992.896 1.992 1.992v17.924a1.997 1.997 0 01-1.992 1.992H2.987a1.997 1.997 0 01-1.991-1.992V3.038c0-1.096.896-1.992 1.991-1.992h31.866" fill="#fff" fill-rule="nonzero"/><path fill="#3c6" d="M4.826 11.283h1.121v3.976H4.826z"/><path d="M8.802 11.283c.002.377-.147.74-.414 1.009a1.448 1.448 0 01-1.013.426 2.586 2.586 0 00-1.805.751 2.525 2.525 0 00-.744 1.79h1.121a1.417 1.417 0 01.415-1.008 1.453 1.453 0 011.013-.427 2.576 2.576 0 001.804-.75c.478-.476.745-1.12.744-1.791H8.802z" fill="#009" fill-rule="nonzero"/><path d="M7.375 8.741a2.579 2.579 0 00-1.805.75 2.525 2.525 0 00-.744 1.791h1.121a1.42 1.42 0 01.414-1.009 1.453 1.453 0 011.013-.427c.381.004.745.158 1.013.427.267.269.416.631.414 1.009h1.121a2.524 2.524 0 00-.743-1.791 2.578 2.578 0 00-1.804-.75z" fill="#39f" fill-rule="nonzero"/><path d="M24.368 10.974l-.41.494a.965.965 0 00-.668-.28c-.21 0-.319.071-.319.209 0 .113.078.172.31.261l.29.119c.577.231.836.465.836.9a.817.817 0 01-.331.691c-.24.174-.533.262-.83.25-.53 0-.939-.19-1.234-.572l.409-.488c.259.268.543.399.836.399.217 0 .38-.084.38-.244 0-.125-.085-.173-.311-.268l-.319-.131c-.548-.22-.812-.464-.812-.899 0-.553.445-.887 1.096-.887.449-.001.805.148 1.077.446zM18.489 10.622h-.747v.319c-.412-.508-1.438-.557-1.997.045-.533.574-.559 1.612 0 2.213s1.585.552 1.997.044v.319h.746l.001-2.94zm-1.552 2.279c-1.027 0-1.028-1.618 0-1.618 1.001 0 1.005 1.618 0 1.618zM11.82 14.481h.746v-1.235c.413.508 1.439.556 1.997-.045.558-.601.533-1.639 0-2.213-.558-.601-1.585-.553-1.997-.045v-.318h-.745l-.001 3.856zm1.552-3.196c1.027 0 1.026 1.618 0 1.618-1.005 0-1-1.618.002-1.618h-.002zM33.015 10.607h-.746v.318c-.413-.508-1.439-.556-1.998.046-.533.574-.558 1.611 0 2.212.559.601 1.585.554 1.997.045v.319h.746l.001-2.94zm-1.552 2.279c-1.026 0-1.027-1.618 0-1.618 1.001 0 1.005 1.617 0 1.617v.001zM21.214 10.602l-.776 1.935-.728-1.935h-.859l1.141 2.774c-.036.198-.196.418-.726.426v.695c.688.046 1.202-.303 1.444-.852l1.359-3.046-.855.003zM29.626 11.33v-.768a1.943 1.943 0 00-.252-.019 1.353 1.353 0 00-.974.376 1.33 1.33 0 00-.388.997v1.65h.813v-1.689a.534.534 0 01.337-.527.533.533 0 01.219-.041c.082 0 .164.007.245.021zM26.218 10.532a1.568 1.568 0 00-1.443.959 1.529 1.529 0 00.347 1.684c.65.618 1.766.547 2.336.077l-.31-.572c-.427.325-1.462.438-1.675-.34h2.129c.02-.296.071-.724-.155-1.127-.376-.677-1.074-.681-1.229-.681zm-.031.649c.342 0 .616.217.641.558h-1.344c.105-.341.373-.558.703-.558z" fill="#009" fill-rule="nonzero"/></svg>