<svg xmlns="http://www.w3.org/2000/svg" width="38" height="24" role="img" aria-labelledby="pi-paysafecard"><title id="pi-paysafecard">PaySafeCard</title><path fill="#fff" stroke="#000" stroke-width="1.5" d="M-5-1h50v28H-5z"/><path d="M2 12V-5h34v34H2V12z" fill="#fdfcfc"/><path d="M13.11 22.46c-.43-.23-.99-.697-1.243-1.036-.432-.58-.46-.943-.46-5.91 0-4.998.026-5.33.47-5.934.973-1.328 1.502-1.433 7.236-1.433 5.866 0 6.391.115 7.246 1.586.426.733.461 1.177.461 5.78 0 5.746-.109 6.172-1.772 6.927-.84.381-1.529.43-6.052.435-4.54.004-5.19-.041-5.886-.415zM11.684 8.31c-.193-.502.283-2.89.765-3.834.639-1.252 2.14-2.694 3.491-3.352 1.488-.726 4.2-.787 5.893-.134 2.389.921 4.309 3.493 4.582 6.136.152 1.478-.094 1.662-1.399 1.049-.75-.353-1.051-.655-1.249-1.253-.143-.433-.658-1.198-1.144-1.7-2.512-2.587-6.845-1.696-8.264 1.7-.489 1.169-2.382 2.151-2.675 1.388z" fill="#e8a1aa"/><path d="M13.338 22.256c-.434-.218-1.02-.743-1.303-1.166-.493-.738-.515-.965-.515-5.379 0-5.49.158-6.138 1.679-6.874.875-.424 1.383-.464 5.93-.463 5.468 0 6.028.115 6.995 1.433.442.602.47.939.47 5.706 0 4.768-.028 5.105-.47 5.707-.967 1.319-1.525 1.433-7.01 1.433-4.296 0-5.097-.055-5.776-.397zM12.115 8.213c-.262-.262-.145-1.79.22-2.858.467-1.374 2.117-3.195 3.58-3.953 1.565-.811 4.458-.876 6.06-.137 2.274 1.05 3.915 3.278 4.202 5.705.117.983.08 1.177-.221 1.177-.77 0-1.572-.582-2.012-1.462-1.298-2.59-3.754-3.742-6.36-2.985-1.44.419-2.93 1.744-3.39 3.015-.195.54-.555.933-1.113 1.218-.454.232-.888.357-.966.28z" fill="#e07885"/><path d="M14.127 22.454c-2.32-.598-2.494-1.082-2.494-6.94 0-7.192-.175-7.027 7.48-7.027 7.572 0 7.367-.196 7.367 7.026 0 7.124.118 7.003-6.913 7.07-2.618.026-5.066-.033-5.44-.13zm-2.08-15.467c.409-3.449 3.36-6.116 6.79-6.136.814-.004 1.997.163 2.628.373 1.41.468 3.224 2.05 3.862 3.37.553 1.14.931 2.952.696 3.331-.308.499-1.432-.362-2.26-1.73C22.39 3.926 19.978 2.923 17.5 3.59c-1.204.324-2.883 1.81-3.342 2.958-.223.556-.619 1.035-1.035 1.25-1.105.572-1.228.48-1.075-.81z" fill="#dc5c6c"/><path d="M13.333 22.03c-1.425-.712-1.586-1.374-1.586-6.517 0-6.997-.09-6.912 7.317-6.913 7.498 0 7.303-.186 7.303 6.913 0 7.1.195 6.914-7.303 6.913-4.246 0-5.048-.055-5.73-.396zm-1.086-15.2c.213-2.214 1.794-4.32 4.005-5.335 1.515-.696 4.28-.682 5.722.028 1.325.652 2.768 2.102 3.37 3.384.56 1.188.86 3.013.497 3.013-.57 0-1.37-.544-1.618-1.102-.839-1.879-2.459-3.196-4.367-3.55-1.148-.213-2.922.249-4.023 1.047-.5.362-1.227 1.222-1.616 1.91-.672 1.192-1.208 1.695-1.804 1.695-.187 0-.238-.338-.166-1.09z" fill="#d63247"/><path d="M13.202 21.773c-1.189-.725-1.342-1.452-1.342-6.373 0-6.734-.177-6.573 7.253-6.573 5.746 0 6.245.108 6.818 1.48.46 1.101.46 9.312 0 10.412-.574 1.375-1.067 1.481-6.863 1.48-4.656 0-5.237-.043-5.866-.426zm-.873-14.93c.382-2.17 1.7-4.004 3.59-4.999 1.003-.527 1.422-.607 3.194-.608 2.372-.001 3.033.264 4.706 1.886.695.673 1.24 1.475 1.53 2.25.563 1.504.6 2.427.092 2.232-.197-.075-.447-.137-.556-.137-.108 0-.39-.435-.624-.966-1.982-4.48-8.52-4.493-10.389-.022-.297.71-.895 1.214-1.44 1.214-.167 0-.202-.288-.103-.85z" fill="#d71027"/><path d="M14.058 21.922c-.87-.226-1.63-1.092-1.872-2.137-.363-1.564-.258-7.797.15-8.998.574-1.682.78-1.734 6.953-1.734 5.206 0 5.307.01 5.763.51.256.28.58.733.72 1.005.331.644.345 9.038.016 9.982-.434 1.244-1.141 1.407-6.391 1.476-2.587.033-4.99-.014-5.34-.104zM12.54 7.242c-.177-.287.667-2.604 1.19-3.27.588-.747 1.59-1.566 2.549-2.083.61-.328 1.267-.427 2.833-.428 1.805 0 2.158.069 3.06.603.561.332 1.335.944 1.72 1.36.748.806 1.68 2.796 1.68 3.583 0 .746-.813.184-1.131-.782-.337-1.02-2.327-2.773-3.511-3.093-2.986-.808-5.858.431-7.141 3.081-.475.982-1.007 1.42-1.249 1.029z" fill="#e00018"/><path d="M14.715 21.393c-.261-.382-.475-.8-.475-.931 0-.13-.306-.226-.68-.213-.47.017-.68.14-.68.4 0 .264.135.34.453.257.311-.082.454-.007.454.236 0 .196.178.46.396.587.374.217.375.23.004.237-.67.012-1.769-1.172-1.994-2.146-.115-.499-.211-2.495-.214-4.436-.007-4.112.297-5.444 1.367-5.997.886-.458 1.531-.43 1.492.063-.017.218.122.397.309.397s.326-.179.308-.397c-.029-.366.326-.397 4.55-.397 4.464 0 4.595.014 5.047.51.256.28.58.733.72 1.005.331.644.345 9.038.016 9.982-.432 1.239-1.163 1.415-6.143 1.479l-4.455.058-.475-.694zm9.892-.26c.068-.205-.946-.29-4.061-.34-2.284-.036-4.235-.031-4.336.012-.101.043 0 .22.226.393.549.42 8.03.36 8.17-.065zM13.327 18.8c0-.722-.323-1.237-.648-1.036-.324.2-.325 1.158-.001 1.762.201.376.29.406.45.155.109-.173.198-.57.198-.881zm10.886.92c0-.117-.102-.276-.226-.353-.125-.077-.227.019-.227.213s.102.353.227.353c.124 0 .226-.096.226-.213zm.706-1.892c-.185-.185-.252-.16-.252.096 0 .45.304.755.417.417.048-.143-.026-.374-.165-.513zm-.887-.66c-.212-.212-.272-.151-.272.272 0 .423.06.484.272.272.212-.212.212-.332 0-.544zm.799-2.727c-.05-.408-.093-.129-.094.619-.001.748.04 1.081.092.74a6.04 6.04 0 0 0 .002-1.36zm-.357-1.534c.294-.844.53-.857.986-.057l.354.623-.134-.924c-.145-1.006-.61-2.488-.858-2.736-.085-.085-.155.153-.155.529 0 .925-.413 2.047-.81 2.2-.44.168-.417 1.045.028 1.045.194 0 .459-.306.589-.68zM13.372 10.3c.381-.841.227-1.027-.362-.437-.37.369-.493 1.23-.177 1.23.098 0 .341-.357.539-.793zm10.955.337c0-.185-.23-.37-.51-.41-.496-.07-.708.366-.351.723.264.264.86.047.86-.313zm-1.128-1.14c.084-.135-1.194-.217-3.392-.217-1.94 0-3.527.076-3.526.17 0 .257 6.76.304 6.918.048zm-10.65-2.242c-.183-.297.647-2.603 1.183-3.283.587-.747 1.589-1.566 2.548-2.083.61-.328 1.267-.427 2.833-.428 1.805 0 2.158.069 3.06.603 1.176.696 2.292 1.84 2.673 2.74.22.517.208.623-.07.623-.374 0-.453.354-.125.557.116.071.287.008.38-.142.199-.323.502.321.526 1.123.014.44-.049.483-.413.288-.236-.127-.544-.56-.685-.962-.14-.402-.473-.964-.74-1.249-.48-.509-.81-1.788-.397-1.533.493.305.161-.33-.347-.663-.664-.435-.891-.467-.66-.094.092.15.178.502.19.783.02.461-.015.478-.35.175-.91-.824-3.763-1.068-5.244-.449-.464.194-1.113.352-1.443.352-.46 0-.577.093-.498.397.056.218-.072.58-.286.803-.363.38-.397.382-.537.02-.204-.533-.64-.08-.725.755-.053.519-.024.561.162.235.441-.776.6-.382.178.445-.46.903-.995 1.339-1.213.987zm4.49-4.662c.532-.294.56-.66.059-.756-.25-.048-.443.099-.52.397-.069.26-.214.473-.324.473-.11 0-.197.178-.193.396.006.348.042.355.288.057.155-.187.465-.442.69-.567zm3.548-.44c0-.055-.102-.163-.227-.24-.125-.077-.227-.032-.227.1s.102.24.227.24.227-.045.227-.1z" fill="#de0018"/></svg>