<svg viewBox="0 0 38 24" xmlns="http://www.w3.org/2000/svg" width="38" height="24" role="img" aria-labelledby="pi-paysera"><title id="pi-paysera">Paysera</title><g fill-rule="evenodd"><path d="M36.894 12.216a1.866 1.866 0 00-.462-.084 7.75 7.75 0 00-.8-.032c-.472 0-.8.008-.986.025a1.205 1.205 0 00-.353.077.313.313 0 00-.126.137.663.663 0 00-.046.258c0 .094.017.175.053.243.03.056.08.102.148.137l.052.014c.047.014.11.025.187.032.235.028.632.042 1.191.042.312 0 .564-.008.754-.024.19-.02.329-.047.416-.085a.317.317 0 00.165-.13.45.45 0 00.06-.243.39.39 0 00-.06-.23.408.408 0 00-.193-.137zm-8.39-2.304a.111.111 0 01.082-.035h.574c.033 0 .062.011.088.035a.115.115 0 01.035.084v.19c.078-.075.17-.14.275-.193.124-.066.284-.11.48-.13a5.29 5.29 0 01.478-.029c.104-.002.219-.003.346-.003.364 0 .64.02.828.06.202.047.37.128.503.243.141.122.246.278.314.468.063.177.098.395.102.656v.377c0 .03-.013.059-.039.084a.115.115 0 01-.084.036h-.588a.115.115 0 01-.085-.036.123.123 0 01-.035-.084v-.26c0-.184-.013-.327-.039-.43v-.004a.405.405 0 00-.11-.198.584.584 0 00-.281-.123 2.667 2.667 0 00-.553-.05c-.099 0-.192.002-.279.004a3.49 3.49 0 00-.553.064c-.1.02-.189.047-.264.077a.452.452 0 00-.264.24c-.05.098-.087.231-.113.398a4.175 4.175 0 00-.039.606v1.684a.115.115 0 01-.035.085.127.127 0 01-.088.035h-.574a.111.111 0 01-.082-.035.115.115 0 01-.035-.085V9.996c0-.032.012-.06.035-.084zM24.09 7.963c.458 0 .837.01 1.138.032a19.225 19.225 0 00-3.742.472c-1.748.411-2.689 1.02-2.822 1.825-.036.214.106.469.426.765.153.14.515.42 1.089.835.512.371.876.674 1.092.91.326.351.475.68.447.986-.112 1.179-1.545 1.882-4.298 2.11a23.67 23.67 0 01-4.102-.01 23.174 23.174 0 003.274-.215c2.215-.301 3.398-.844 3.548-1.628.035-.181-.101-.411-.409-.69a32.01 32.01 0 00-1.04-.815c-.471-.361-.812-.67-1.021-.923-.298-.362-.42-.701-.367-1.018.163-.977 1-1.688 2.513-2.132.077-.02.156-.043.236-.067 1.106-.291 2.452-.437 4.038-.437zm.063 2.66a.881.881 0 00-.405.156l-.004.003a.576.576 0 00-.176.247 1.2 1.2 0 00-.08.306h3.156c-.01-.11-.03-.209-.063-.296a.554.554 0 00-.173-.24c-.103-.081-.258-.14-.465-.175a6.362 6.362 0 00-.955-.053c-.364 0-.642.017-.835.053zm-.004-.757a8.67 8.67 0 01.857-.035c.314 0 .588.008.82.024.235.017.423.043.564.078a1.353 1.353 0 011.047 1.025c.051.221.08.551.088.99a.11.11 0 01-.039.085.108.108 0 01-.084.035h-3.94c.012.167.035.308.067.423a.69.69 0 00.162.31.582.582 0 00.18.123c.087.038.182.065.285.081h-.003c.125.021.28.038.465.05.216.007.45.01.701.01.407 0 .701-.017.885-.053a.822.822 0 00.222-.074.505.505 0 00.144-.102.316.316 0 00.06-.12.988.988 0 00.042-.21.152.152 0 01.039-.078.117.117 0 01.081-.029h.606a.11.11 0 01.081.036c.024.02.035.049.035.084-.004.237-.05.44-.137.606a.966.966 0 01-.38.409c-.16.091-.379.162-.656.211a6.193 6.193 0 01-.958.064c-.606 0-1.076-.024-1.41-.07-.333-.05-.59-.137-.768-.262a1.315 1.315 0 01-.461-.64c-.094-.276-.141-.611-.141-1.008 0-.282.02-.527.06-.733.042-.219.105-.4.19-.546a1.24 1.24 0 01.708-.578c.153-.05.349-.085.588-.106zm10.48.758a.963.963 0 00-.156.042.286.286 0 00-.148.123.502.502 0 00-.053.25v.05c0 .035-.01.064-.031.088a.122.122 0 01-.085.031h-.602a.105.105 0 01-.078-.031.1.1 0 01-.039-.074l-.01-.173c0-.211.04-.391.123-.539a.85.85 0 01.377-.349c.16-.075.378-.131.655-.169.27-.035.607-.053 1.012-.053.298 0 .567.008.806.025.228.012.414.033.557.063.296.064.53.182.701.356h-.003c.145.146.24.317.285.515.021.11.035.236.042.377.012.157.018.345.018.563v1.924a.115.115 0 01-.035.085.115.115 0 01-.085.035h-.578a.132.132 0 01-.084-.035.126.126 0 01-.032-.088l.004-.134c-.118.1-.248.172-.391.215a2.893 2.893 0 01-.459.067c-.206.014-.443.02-.711.02-.247 0-.52-.003-.818-.01a7.946 7.946 0 01-.532-.035 1.635 1.635 0 01-.349-.078.952.952 0 01-.267-.137.824.824 0 01-.31-.38 1.71 1.71 0 01-.081-.582c0-.298.04-.533.123-.705a.87.87 0 01.183-.236.835.835 0 01.26-.155v-.003a.991.991 0 01.22-.064c.136-.025.299-.044.489-.056.186-.012.42-.018.701-.018.378 0 .69.006.937.018.25.014.435.03.557.05.127.025.242.069.345.13.033.02.066.044.1.07v-.148c0-.153-.014-.283-.04-.39a.632.632 0 00-.109-.233.498.498 0 00-.158-.13.903.903 0 00-.24-.089h-.003a3.563 3.563 0 00-.392-.046 8.961 8.961 0 00-.606-.017c-.31 0-.563.008-.76.024l-.25.036z" fill="#f3661b"/><path d="M9.432 12.216a1.914 1.914 0 00-.461-.084 7.815 7.815 0 00-.8-.032c-.477 0-.806.008-.987.025-.091.009-.168.02-.229.035a.502.502 0 00-.127.042.32.32 0 00-.123.137.677.677 0 00-.042.258c0 .098.016.18.05.243a.334.334 0 00.15.137l.05.014a.854.854 0 00.187.032c.235.028.63.042 1.187.042.315 0 .566-.008.754-.024a1.47 1.47 0 00.42-.085.336.336 0 00.168-.13.51.51 0 00.053-.243.39.39 0 00-.06-.23.41.41 0 00-.19-.137zm-1.3-2.396c.296 0 .565.008.807.025.228.014.412.035.553.063.3.064.536.182.705.356.143.148.236.32.278.515.024.11.039.236.046.377.012.157.018.345.018.563v1.924a.11.11 0 01-.04.085.111.111 0 01-.08.035h-.575a.127.127 0 01-.088-.035.136.136 0 01-.035-.088l.007-.134c-.115.1-.245.172-.39.215a2.985 2.985 0 01-.459.067c-.21.014-.447.02-.715.02-.247 0-.518-.003-.814-.01a7.481 7.481 0 01-.529-.035h-.003a1.702 1.702 0 01-.349-.078.893.893 0 01-.271-.14.81.81 0 01-.307-.378 1.644 1.644 0 01-.084-.58c0-.3.042-.534.126-.706a.818.818 0 01.18-.236.937.937 0 01.26-.155v-.003a.984.984 0 01.223-.064c.136-.025.3-.044.49-.056.185-.012.42-.018.704-.018.374 0 .685.006.934.018.254.014.44.03.557.05.127.025.242.069.345.13a.917.917 0 01.095.07v-.148c0-.153-.013-.283-.039-.39a.562.562 0 00-.105-.233.498.498 0 00-.159-.13.845.845 0 00-.24-.089 3.88 3.88 0 00-.398-.046 8.862 8.862 0 00-.606-.017c-.307 0-.56.008-.757.024l-.25.036a.85.85 0 00-.155.042.29.29 0 00-.148.123.502.502 0 00-.053.25v.05a.114.114 0 01-.12.12h-.599a.117.117 0 01-.081-.032.134.134 0 01-.039-.074l-.007-.173c0-.211.041-.391.123-.539a.83.83 0 01.374-.349c.16-.075.378-.131.655-.169a8.12 8.12 0 011.015-.053zm-5.535.75a9.04 9.04 0 00-1.015.043c-.204.026-.356.072-.454.137a.686.686 0 00-.247.346c-.057.16-.085.388-.085.687 0 .354.03.615.092.782a.63.63 0 00.282.345c.096.052.24.09.433.116.205.026.466.04.786.04.432 0 .75-.015.951-.043.193-.023.34-.07.444-.137a.617.617 0 00.25-.346c.059-.164.088-.399.088-.704 0-.346-.03-.602-.091-.769a.626.626 0 00-.113-.2.665.665 0 00-.17-.138 1.221 1.221 0 00-.411-.116 5.63 5.63 0 00-.74-.042zM.032 9.913a.127.127 0 01.088-.035h.574a.11.11 0 01.081.035.115.115 0 01.035.084v.177a.842.842 0 01.07-.064c.102-.075.217-.133.346-.173a2.45 2.45 0 01.493-.08c.21-.017.457-.025.744-.025.49 0 .869.017 1.134.053.266.037.487.108.663.211.134.078.249.173.345.285.096.11.17.236.222.377.096.257.145.611.145 1.064 0 .285-.023.531-.067.74a1.523 1.523 0 01-.205.543 1.325 1.325 0 01-.754.574 3.027 3.027 0 01-.616.099 11.547 11.547 0 01-1.614.007 2.344 2.344 0 01-.476-.077 1.141 1.141 0 01-.43-.226v1.476a.116.116 0 01-.035.085.112.112 0 01-.08.035H.12a.127.127 0 01-.088-.035.114.114 0 01-.032-.085v-4.96a.11.11 0 01.032-.085zm11.926.024l1.699 3.055 1.568-3.051a.114.114 0 01.105-.063h.677c.044 0 .079.018.102.056.024.042.025.081.004.116l-1.776 3.393v.004a9.382 9.382 0 01-.508.874 1.85 1.85 0 01-.433.44c-.15.103-.315.175-.493.215a3.844 3.844 0 01-.719.056c-.13 0-.24-.002-.335-.007a.12.12 0 01-.077-.035.116.116 0 01-.035-.085v-.528c0-.035.012-.065.038-.088a.132.132 0 01.095-.028 2.6 2.6 0 00.719-.021.892.892 0 00.286-.089v-.003a.768.768 0 00.207-.19 2.44 2.44 0 00.141-.201.137.137 0 01-.095-.06l-2.05-3.64a.117.117 0 010-.123.113.113 0 01.102-.056h.676a.11.11 0 01.102.06" fill="#2f689d"/></g></svg>