<?xml version="1.0" encoding="UTF-8" standalone="no"?>
<!-- Created with Inkscape (http://www.inkscape.org/) -->

<svg
   xmlns:dc="http://purl.org/dc/elements/1.1/"
   xmlns:cc="http://creativecommons.org/ns#"
   xmlns:rdf="http://www.w3.org/1999/02/22-rdf-syntax-ns#"
   xmlns:svg="http://www.w3.org/2000/svg"
   xmlns="http://www.w3.org/2000/svg"
   xmlns:sodipodi="http://sodipodi.sourceforge.net/DTD/sodipodi-0.dtd"
   xmlns:inkscape="http://www.inkscape.org/namespaces/inkscape"
   id="svg3619"
   version="1.1"
   inkscape:version="0.91 r13725"
   width="38"
   height="24"
   viewBox="0 0 38 24"
   sodipodi:docname="paysafecard.svg">
  <metadata
     id="metadata3625">
    <rdf:RDF>
      <cc:Work
         rdf:about="">
        <dc:format>image/svg+xml</dc:format>
        <dc:type
           rdf:resource="http://purl.org/dc/dcmitype/StillImage" />
        <dc:title></dc:title>
      </cc:Work>
    </rdf:RDF>
  </metadata>
  <defs
     id="defs3623" />
  <sodipodi:namedview
     pagecolor="#ffffff"
     bordercolor="#666666"
     borderopacity="1"
     objecttolerance="10"
     gridtolerance="10"
     guidetolerance="10"
     inkscape:pageopacity="0"
     inkscape:pageshadow="2"
     inkscape:window-width="1863"
     inkscape:window-height="1176"
     id="namedview3621"
     showgrid="true"
     inkscape:zoom="22.627417"
     inkscape:cx="19.485677"
     inkscape:cy="13.946033"
     inkscape:window-x="3897"
     inkscape:window-y="24"
     inkscape:window-maximized="1"
     inkscape:current-layer="svg3619"
     showguides="true">
    <inkscape:grid
       type="xygrid"
       id="grid5829" />
  </sodipodi:namedview>
  <rect
     style="fill:#ffffff;fill-opacity:1;stroke:#000000;stroke-width:1.5;stroke-miterlimit:4;stroke-dasharray:none;stroke-opacity:1"
     id="rect4797"
     width="50"
     height="28"
     x="-5"
     y="-1" />
  <g
     id="g5025"
     transform="matrix(0.22666668,0,0,0.22666667,11.116349,8.2629484)">
    <path
       style="fill:#fdfcfc"
       d="m -40.219185,16.486992 0,-75 75,0 74.999995,0 0,75 0,75 -74.999995,0 -75,0 0,-75 z"
       id="path5041"
       inkscape:connector-curvature="0" />
    <path
       style="fill:#e8a1aa"
       d="M 8.797395,62.635552 C 6.898676,61.617252 4.430697,59.559252 3.312997,58.062222 1.405802,55.507742 1.280815,53.904012 1.280815,31.986992 1.280815,9.941947 1.396841,8.475485 3.3519,5.810322 7.64947,-0.048183 9.982005,-0.5099 35.280815,-0.5099 c 25.87947,0 28.1942,0.506662 31.96598,6.996892 1.87766,3.230949 2.03402,5.191176 2.03402,25.5 0,25.34969 -0.4799,27.22578 -7.81632,30.55662 -3.707691,1.68335 -6.74534,1.90195 -26.699282,1.92142 -20.02974,0.0195 -22.896747,-0.18245 -25.967818,-1.82948 z M 2.504378,0.208992 C 1.653372,-2.008695 3.754686,-12.541468 5.878762,-16.705 c 2.819854,-5.527371 9.44309,-11.888406 15.402053,-14.792317 6.564229,-3.198868 18.526143,-3.469706 25.997087,-0.58862 10.53896,4.064233 19.011413,15.410635 20.214983,27.072126 0.67263,6.517148 -0.41341,7.3315 -6.16925,4.625934 -3.311853,-1.556754 -4.639625,-2.888425 -5.510242,-5.526419 -0.630852,-1.911501 -2.903568,-5.285475 -5.050479,-7.497721 C 39.683383,-24.828717 20.564112,-20.896811 14.30397,-5.914182 12.150278,-0.759673 3.796229,3.575503 2.504378,0.208992 Z"
       id="path5039"
       inkscape:connector-curvature="0" />
    <path
       style="fill:#e07885"
       d="m 9.800748,61.735442 c -1.914036,-0.96165 -4.501536,-3.2775 -5.75,-5.14633 -2.174067,-3.25438 -2.269933,-4.25656 -2.269933,-23.729767 0,-24.220495 0.69824,-27.079677 7.40612,-30.326906 3.863266,-1.870176 6.104845,-2.045314 26.159604,-2.043893 24.128642,0.0017 26.598086,0.507532 30.863196,6.321776 1.9488,2.656642 2.07108,4.143065 2.07108,25.17667 0,21.0336 -0.12228,22.52003 -2.07108,25.17667 -4.26747,5.81746 -6.72779,6.32022 -30.92892,6.32022 -18.951347,0 -22.482251,-0.24229 -25.480067,-1.74844 z M 4.404637,-0.22252 c -1.154382,-1.154382 -0.636548,-7.89686 0.968205,-12.606551 2.065481,-6.061855 9.342891,-14.095057 15.800375,-17.441317 6.902681,-3.57696 19.665804,-3.864652 26.730003,-0.602517 10.035566,4.634265 17.272975,14.459163 18.541565,25.170491 0.51367,4.337083 0.3531,5.189406 -0.97763,5.189406 -3.3992,0 -6.933222,-2.566765 -8.876567,-6.447061 -5.722462,-11.426092 -16.558312,-16.512205 -28.057131,-13.169408 -6.353594,1.84704 -12.92794,7.693801 -14.955208,13.30011 -0.860582,2.379899 -2.44917,4.118364 -4.910932,5.374261 -2.001372,1.021024 -3.919579,1.575688 -4.26268,1.232586 z"
       id="path5037"
       inkscape:connector-curvature="0" />
    <path
       style="fill:#dc5c6c"
       d="m 13.280815,62.607072 c -10.231937,-2.63569 -11,-4.77371 -11,-30.62008 0,-31.728089 -0.775062,-31 33,-31 33.40287,0 32.5,-0.861204 32.5,31 0,31.42764 0.52006,30.89578 -30.5,31.1922 -11.55,0.11037 -22.35,-0.14709 -24,-0.57212 z M 4.108042,-5.62812 c 1.802274,-15.21738 14.819727,-26.983455 29.949843,-27.070741 3.593599,-0.02073 8.812974,0.719321 11.598612,1.644561 6.219652,2.065837 14.223038,9.048054 17.038918,14.864883 2.43684,5.033839 4.1064,13.024392 3.07129,14.699242 C 64.406835,0.710143 59.446151,-3.08648 55.793597,-9.123024 49.737136,-19.132482 39.094101,-23.55936 28.162721,-20.615845 22.852014,-19.18582 15.445008,-12.630254 13.4191,-7.567013 12.436868,-5.112172 10.688287,-2.9994 8.85364,-2.050667 3.976265,0.471521 3.434041,0.062768 4.108042,-5.62812 Z"
       id="path5035"
       inkscape:connector-curvature="0" />
    <path
       style="fill:#d63247"
       d="m 9.780815,60.735442 c -6.286094,-3.14026 -6.996892,-6.06075 -6.996892,-28.74845 0,-30.869573 -0.395261,-30.496115 32.279011,-30.498446 33.081741,-0.00236 32.217881,-0.820115 32.217881,30.498446 0,31.31856 0.86386,30.50081 -32.217881,30.49845 -18.73425,-10e-4 -22.271857,-0.24621 -25.282119,-1.75 z M 4.988535,-6.322995 c 0.938384,-9.765945 7.914328,-19.058478 17.669875,-23.53773 6.683749,-3.068838 18.883956,-3.008816 25.242814,0.124189 5.843729,2.879202 12.212451,9.272811 14.871431,14.929552 2.46446,5.242909 3.79145,13.293976 2.19114,13.293976 -2.51501,0 -6.04321,-2.401556 -7.140368,-4.860272 -3.69926,-8.28999 -10.847833,-14.101427 -19.265594,-15.661977 -5.063994,-0.938803 -12.890143,1.097175 -17.750079,4.617694 -2.205495,1.597653 -5.412548,5.390017 -7.126784,8.427476 -2.968147,5.259268 -5.329687,7.477079 -7.961643,7.477079 -0.822673,0 -1.04951,-1.493019 -0.730792,-4.809987 z"
       id="path5033"
       inkscape:connector-curvature="0" />
    <path
       style="fill:#d71027"
       d="m 9.201124,59.601522 c -5.244822,-3.19829 -5.920309,-6.40606 -5.920309,-28.11453 0,-29.708908 -0.782244,-29 32,-29 25.34972,0 27.54812,0.477579 30.07878,6.534299 2.02827,4.854346 2.02827,41.077051 0,45.931401 -2.5344,6.06567 -4.70932,6.53475 -30.27912,6.53056 -20.542017,-0.003 -23.104614,-0.1897 -25.879351,-1.88173 z M 5.349889,-6.263008 c 1.684344,-9.574485 7.497064,-17.667433 15.840906,-22.055014 4.421384,-2.324971 6.272279,-2.67728 14.09002,-2.681974 10.46321,-0.0063 13.380664,1.162666 20.762072,8.318829 3.065273,2.971736 5.470398,6.509935 6.749998,9.92997 2.48071,6.630294 2.64884,10.705781 0.40614,9.845178 -0.86998,-0.333844 -1.97392,-0.606989 -2.4532,-0.606989 -0.47928,0 -1.719645,-1.917551 -2.756364,-4.261225 -8.741121,-19.760754 -37.590628,-19.82217 -45.832092,-0.097569 -1.30831,3.131225 -3.950454,5.358794 -6.356126,5.358794 -0.734498,0 -0.88747,-1.270941 -0.451354,-3.75 z"
       id="path5031"
       inkscape:connector-curvature="0" />
    <path
       style="fill:#e00018"
       d="M 12.976781,60.258902 C 9.135887,59.262342 5.790877,55.443422 4.72116,50.833642 3.119499,43.931542 3.578821,16.436091 5.384301,11.137296 7.913955,3.71317 8.820777,3.486992 36.056841,3.486992 c 22.967218,0 23.411127,0.03928 25.424694,2.25 1.12715,1.2375 2.55559,3.232916 3.17432,4.434259 1.46321,2.841009 1.52385,39.873051 0.0721,44.037511 -1.91271,5.48679 -5.035392,6.20761 -28.196083,6.50859 -11.411913,0.1483 -22.011709,-0.058 -23.555101,-0.45845 z M 6.285847,-4.504865 c -0.781616,-1.264682 2.940738,-11.488095 5.25323,-14.427953 2.589522,-3.292043 7.010977,-6.904841 11.241738,-9.185692 2.687829,-1.449039 5.588439,-1.887773 12.5,-1.890694 7.959915,-0.0034 9.520043,0.304164 13.5,2.661083 2.475,1.465688 5.890187,4.165688 7.589305,6 3.295664,3.557891 7.410695,12.334512 7.410695,15.805678 0,3.290484 -3.5863,0.812995 -4.992963,-3.449242 -1.48426,-4.497353 -10.26293,-12.231851 -15.487745,-13.645568 -13.172699,-3.564235 -25.845749,1.904268 -31.504933,13.594583 -2.095734,4.329208 -4.443247,6.262758 -5.509327,4.537805 z"
       id="path5029"
       inkscape:connector-curvature="0" />
    <path
       style="fill:#de0018"
       d="m 15.877328,57.925112 c -1.153082,-1.68403 -2.096513,-3.53195 -2.096513,-4.10648 0,-0.57453 -1.348974,-0.99669 -2.99772,-0.93812 -2.07989,0.0739 -2.998417,0.61362 -3,1.76286 -0.0016,1.16444 0.59172,1.50105 1.99772,1.13337 1.371604,-0.35868 2,-0.0307 2,1.04393 0,0.86182 0.7875,2.02562 1.75,2.58622 1.650671,0.96143 1.651566,1.02101 0.01578,1.04969 -2.952496,0.0518 -7.802995,-5.17076 -8.795008,-9.46959 C 4.243903,48.786992 3.817793,39.979654 3.804672,31.415131 3.776881,13.275479 5.116245,7.399135 9.834641,4.959157 c 3.908698,-2.021266 6.75799,-1.90105 6.585063,0.277835 -0.07639,0.9625 0.536111,1.75 1.361111,1.75 0.825,0 1.4375,-0.7875 1.361111,-1.75 -0.128058,-1.613533 1.437467,-1.75 20.075686,-1.75 19.689381,0 20.267819,0.05846 22.263923,2.25 1.12715,1.2375 2.55559,3.232916 3.17432,4.434259 1.46321,2.841009 1.52385,39.873051 0.0721,44.037511 -1.90438,5.46289 -5.130853,6.2396 -27.100637,6.5239 l -19.653478,0.25433 -2.096512,-3.06188 z m 43.639725,-1.14397 c 0.300922,-0.9049 -4.170967,-1.27927 -17.91762,-1.5 -10.07524,-0.16178 -18.683046,-0.13845 -19.128459,0.0519 -0.445412,0.1903 0.0046,0.96963 1,1.73184 2.41802,1.85155 35.422402,1.59179 36.046079,-0.28369 z M 9.750189,46.486992 c 0,-3.18524 -1.420821,-5.457058 -2.857571,-4.5691 -1.428103,0.88262 -1.430449,5.10519 -0.0043,7.76994 0.888289,1.65978 1.281105,1.79522 1.984687,0.68426 0.48246,-0.76181 0.8772,-2.5101 0.8772,-3.8851 z m 48.030626,4.05902 c 0,-0.51754 -0.45,-1.2191 -1,-1.55902 -0.55,-0.33992 -1,0.0835 -1,0.94098 0,0.85746 0.45,1.55902 1,1.55902 0.55,0 1,-0.42344 1,-0.94098 z m 3.1125,-8.34652 c -0.81667,-0.816667 -1.1125,-0.70476 -1.1125,0.42083 0,1.98786 1.3447,3.33256 1.84167,1.84167 0.21083,-0.6325 -0.1173,-1.65062 -0.72917,-2.2625 z m -3.9125,-2.9125 c -0.933333,-0.933333 -1.2,-0.666667 -1.2,1.2 0,1.86667 0.266667,2.13333 1.2,1.2 0.933333,-0.933333 0.933333,-1.466667 0,-2.4 z m 3.52473,-12.032091 c -0.22256,-1.79735 -0.40925,-0.567909 -0.41486,2.732091 -0.006,3.3 0.17648,4.770559 0.40466,3.267909 0.22817,-1.50265 0.23276,-4.20265 0.0102,-6 z M 58.93066,20.486992 c 1.297195,-3.72114 2.342195,-3.781203 4.349565,-0.25 l 1.56328,2.75 -0.59031,-4.078751 c -0.64241,-4.438732 -2.69358,-10.975786 -3.78704,-12.069244 -0.37694,-0.376936 -0.68534,0.672511 -0.68534,2.332105 0,4.082627 -1.821172,9.03329 -3.569876,9.70433 -1.944033,0.745996 -1.841857,4.61156 0.121896,4.61156 0.85361,0 2.022632,-1.35 2.597825,-3 z m -48.980131,-11.5 C 11.632532,5.276078 10.9537,4.456964 8.352244,7.058421 6.725361,8.685303 6.179277,12.486992 7.57247,12.486992 c 0.43541,0 1.505536,-1.575 2.378059,-3.5 z m 48.330286,1.486305 c 0,-0.817468 -1.0125,-1.630103 -2.25,-1.805856 -2.188806,-0.31086 -3.123473,1.612744 -1.548764,3.187454 1.165032,1.165032 3.798764,0.207152 3.798764,-1.381598 z M 53.304807,5.448172 c 0.370311,-0.599176 -5.265872,-0.96118 -14.964975,-0.96118 -8.557459,0 -15.557685,0.3375 -15.556056,0.75 0.0045,1.132676 29.823999,1.339002 30.521031,0.21118 z M 6.320491,-4.448811 c -0.809059,-1.309085 2.855425,-11.479734 5.218586,-14.484007 2.589522,-3.292043 7.010977,-6.904841 11.241738,-9.185692 2.687829,-1.449039 5.588439,-1.887773 12.5,-1.890694 7.959915,-0.0034 9.520043,0.304164 13.5,2.661083 5.186461,3.071408 10.110582,8.11804 11.79174,12.085113 0.96854,2.285516 0.91565,2.75 -0.31318,2.75 -1.64452,0 -1.993084,1.563973 -0.547658,2.457295 0.511998,0.316431 1.264618,0.03536 1.672498,-0.624607 0.88202,-1.427138 2.21754,1.416059 2.32631,4.952496 0.0597,1.939522 -0.21632,2.131793 -1.82453,1.271109 -1.04215,-0.557742 -2.401206,-2.466716 -3.020131,-4.242165 -0.618925,-1.775449 -2.090091,-4.255044 -3.269259,-5.51021 -2.110626,-2.246659 -3.569995,-7.888076 -1.749494,-6.762945 2.178213,1.34621 0.711611,-1.456474 -1.531113,-2.925963 -2.928113,-1.918573 -3.929107,-2.061409 -2.911884,-0.415508 0.407733,0.659726 0.785802,2.215339 0.840153,3.456918 0.08896,2.032118 -0.06519,2.108988 -1.544524,0.770211 -4.016549,-3.634927 -16.599085,-4.711697 -23.136992,-1.979985 -2.044734,0.854345 -4.909636,1.553354 -6.366449,1.553354 -2.028447,0 -2.54271,0.409827 -2.19595,1.75 0.24904,0.9625 -0.317673,2.557457 -1.259361,3.544349 -1.601812,1.678703 -1.754492,1.684038 -2.368951,0.08278 -0.901651,-2.349664 -2.822242,-0.347566 -3.198229,3.333957 -0.233935,2.290604 -0.106937,2.476231 0.710779,1.038911 1.947767,-3.423639 2.647766,-1.685546 0.789278,1.959771 -2.032577,3.986781 -4.39366,5.907281 -5.353377,4.354426 z m 19.810583,-20.564197 c 2.345985,-1.300304 2.470387,-2.910859 0.257753,-3.336974 -1.102671,-0.212355 -1.951593,0.434825 -2.295519,1.75 -0.300166,1.147836 -0.943272,2.086974 -1.429124,2.086974 -0.485853,0 -0.869057,0.7875 -0.851566,1.75 0.02786,1.53289 0.185795,1.563905 1.273039,0.25 0.682679,-0.825 2.053117,-1.95 3.045417,-2.5 z m 15.649741,-1.940983 c 0,-0.242541 -0.45,-0.719098 -1,-1.059017 -0.55,-0.339919 -1,-0.141476 -1,0.440983 0,0.582459 0.45,1.059017 1,1.059017 0.55,0 1,-0.198442 1,-0.440983 z"
       id="path5027"
       inkscape:connector-curvature="0" />
  </g>
</svg>
