<svg xmlns="http://www.w3.org/2000/svg" width="38" height="24" fill="none" aria-labelledby="pi-paysafecard" role="img" viewBox="0 0 38 24"><title id="pi-paysafecard">Paysafecard</title><path fill="#fff" d="M0 0h38v24H0z"/><path fill="#3200FF" d="M25.87 11.24v1.61a.62.62 0 0 0 .2.47.7.7 0 0 0 .5.18h1.02v-.29h-1a.36.36 0 0 1-.3-.13.48.48 0 0 1-.11-.32v-1.45a.38.38 0 0 1 .12-.29.38.38 0 0 1 .28-.12h1v-.3h-1a.9.9 0 0 0-.48.14.55.55 0 0 0-.23.5m4.66-.06a.67.67 0 0 0-.19-.46.3.3 0 0 0-.18-.12.8.8 0 0 0-.24-.02h-1.6v.3h1.53c.32 0 .38.2.38.31v.37h-1.27c-.44 0-.64.27-.64.83v.43c0 .18.07.35.19.48a.59.59 0 0 0 .45.22h.96a.57.57 0 0 0 .42-.2.64.64 0 0 0 .2-.46v-1.68Zm-.3 1.65c0 .06-.02.12-.06.17a.33.33 0 0 1-.19.19.55.55 0 0 1-.23.02h-.64a.64.64 0 0 1-.33-.06.41.41 0 0 1-.16-.3v-.56c0-.16.07-.41.48-.41h1.14zm1.84-1.93h.14v-.32h-.18a.62.62 0 0 0-.49.18c-.09.09-.13.26-.13.51v2.23h.3v-2.22a.36.36 0 0 1 .1-.27.33.33 0 0 1 .26-.1ZM35 9.5h-.3v1.08h-1.19c-.46 0-.67.22-.67.66v1.59c-.02.17.04.34.15.47a.64.64 0 0 0 .46.22h.93a.53.53 0 0 0 .44-.22.75.75 0 0 0 .18-.52zm-.3 3.26a.44.44 0 0 1-.25.42.4.4 0 0 1-.16.03h-.83a.29.29 0 0 1-.24-.12.42.42 0 0 1-.09-.27v-1.5c0-.27.14-.42.4-.42h1.17zM8.8 11.51c0-.12-.05-.17-.16-.17H8.1a.2.2 0 0 0-.15.06.2.2 0 0 0-.06.15v1c0 .15.08.21.22.21h.5a.17.17 0 0 0 .13-.06.14.14 0 0 0 .05-.12V11.5Zm-1.6-.15a.95.95 0 0 1 .16-.58c.06-.06.13-.1.2-.14a.6.6 0 0 1 .26-.07h1c.44 0 .67.25.67.75v1.52a.58.58 0 0 1-.2.45.7.7 0 0 1-.47.21h-.95v1.1h-.7v-3.24zm3.55 1.27a.12.12 0 0 0 .06.1c.03.03.08.05.12.05h.54c.12 0 .18-.06.2-.15v-.21c0-.12-.07-.17-.2-.17h-.54a.2.2 0 0 0-.14.04.23.23 0 0 0-.04.16zm.91-1.13c0-.11-.06-.16-.19-.16h-1.4v-.74h1.58c.46.01.7.24.7.68v1.55c0 .18-.06.35-.18.49a.6.6 0 0 1-.46.2h-.96c-.46 0-.7-.23-.7-.66v-.6c0-.46.23-.69.68-.7h.93zm2.65 2.37a.2.2 0 0 0 .14-.06.16.16 0 0 0 .05-.12v-.17h-.9a.9.9 0 0 1-.27-.04.6.6 0 0 1-.22-.16 1 1 0 0 1-.15-.25.9.9 0 0 1-.05-.3v-2.19h.7v1.96c0 .16.06.24.2.24h.5a.2.2 0 0 0 .14-.07.18.18 0 0 0 .07-.12v-2h.69v3.21c0 .21-.06.42-.18.59a.58.58 0 0 1-.47.22H12.9v-.74h1.4Zm1.44-1.1h1.24c.11 0 .18-.05.18-.14v-.07c0-.02 0-.04-.02-.06a.12.12 0 0 0-.1-.08h-.61a.64.64 0 0 1-.48-.2.57.57 0 0 1-.2-.42v-.56c.01-.43.23-.64.68-.66h1.44v.74h-1.23c-.14 0-.21.04-.21.14v.06q0 .15.21.15h.62a.53.53 0 0 1 .42.2c.12.12.18.28.18.44v.55a.72.72 0 0 1-.2.44.7.7 0 0 1-.2.16.8.8 0 0 1-.28.04h-1.44v-.72Zm3.34-.14a.12.12 0 0 0 .05.1c.04.03.08.05.13.05h.53c.12 0 .18-.06.2-.15v-.21c0-.12-.07-.17-.2-.17h-.53a.2.2 0 0 0-.14.04.23.23 0 0 0-.04.16zm.9-1.13c0-.11-.06-.16-.19-.16h-1.4v-.74h1.58c.46.01.7.24.7.68v1.55a.7.7 0 0 1-.17.49.6.6 0 0 1-.46.2h-.96c-.46 0-.7-.23-.7-.66v-.6c0-.46.22-.69.67-.7H20v-.06Zm1.26-1.32a.6.6 0 0 1 .22-.48.8.8 0 0 1 .54-.18h.44v.7h-.27a.2.2 0 0 0-.16.06.2.2 0 0 0-.07.16v.16h.5v.74h-.5v2.19h-.7zm-17.94.3a1 1 0 0 1 .16-.05c.05-.25.18-.47.37-.63a1.04 1.04 0 0 1 1.34 0c.19.16.32.38.37.63.14.02.28.09.38.2a2 2 0 0 0-.01-.28 1.5 1.5 0 0 0-.47-.97 1.4 1.4 0 0 0-1.94.04c-.26.27-.41.62-.42 1v.2z"/><path fill="#3200FF" d="M5.33 10.58h-1.7a.5.5 0 0 0-.26.07.5.5 0 0 0-.2.15.87.87 0 0 0-.17.56v1.38c0 .2.05.4.17.58.06.06.13.1.2.14a.6.6 0 0 0 .26.07h1.7c.43 0 .67-.25.67-.75v-1.44c0-.5-.22-.74-.67-.76m19.08.9v-.01a.1.1 0 0 0-.05-.1.2.2 0 0 0-.11-.03h-.49a.2.2 0 0 0-.15.05.16.16 0 0 0-.08.13v.3zm-.85 1.05v.04a.18.18 0 0 0 .05.14c.02.04.05.07.09.07h1.43v.74h-1.52a1 1 0 0 1-.32-.04.6.6 0 0 1-.23-.15.6.6 0 0 1-.16-.24 1.2 1.2 0 0 1-.03-.34v-1.48c0-.45.23-.67.67-.69h.95c.44.02.65.24.67.72v.58z"/></svg>