<svg viewBox="0 0 38 24" xmlns="http://www.w3.org/2000/svg" role="img" width="38" height="24" aria-labelledby="pi-paysafecash"><title id="pi-paysafecash">Paysafecash</title><g id="Layer_x0020_1"><path fill="#000" fill-opacity=".071" d="M34.96.244H3.04C1.344.244.047 1.541.047 3.236v17.956c0 1.695 1.396 2.992 2.993 2.992h31.92c1.696 0 2.993-1.297 2.993-2.992V3.236c0-1.696-1.396-2.993-2.993-2.993v.001z"/><path fill="#fff" d="M34.96 1.241c1.097 0 1.996.898 1.996 1.995v17.956a2.001 2.001 0 01-1.996 1.995H3.04a2.002 2.002 0 01-1.996-1.995V3.236c0-1.097.898-1.995 1.996-1.995h31.92z"/><g id="_183639336"><path id="_183640224" fill="#FF5073" d="M21.623 13.274c.323 0 .585-.26.585-.58 0-.32-.262-.58-.585-.58a.582.582 0 00-.584.58c0 .32.26.58.584.58z"/><path id="_183639912" fill="#7887E6" d="M27.256 10.3c-.553 0-.99.172-1.258.339l.246.506c.162-.072.507-.202.794-.202.209 0 .39.074.39.29v.188c-1.236-.09-1.592.45-1.592.947 0 .486.419.895.962.895.214 0 .449-.083.626-.191v.124h.904v-1.968c0-.637-.408-.927-1.072-.927zm.173 2.28a.616.616 0 01-.355.11c-.224 0-.375-.13-.375-.333 0-.233.187-.46.725-.373v.596h.005z"/><path id="_183640176" fill="#7887E6" d="M21.623 11.462c.323 0 .585-.26.585-.58a.583.583 0 00-.585-.581.582.582 0 00-.584.581c0 .32.26.58.584.58z"/><path id="_183639864" fill="#7887E6" d="M28.976 12.435c.203.098.46.187.725.187.261 0 .418-.078.418-.234 0-.413-1.341-.243-1.341-1.19 0-.602.537-.902 1.206-.902.365 0 .72.109.955.228l-.25.59a1.759 1.759 0 00-.664-.16c-.225 0-.36.083-.36.217 0 .378 1.321.224 1.321 1.156 0 .61-.558.942-1.212.942-.365 0-.757-.084-1.09-.26l.292-.574z"/><path id="_183639984" fill="#7887E6" d="M24.746 12.197c-.073.258-.235.425-.506.425-.397 0-.553-.369-.553-.834 0-.487.171-.84.553-.84.26 0 .422.16.502.42h.86c-.161-.683-.73-1.072-1.362-1.072-.878 0-1.51.55-1.51 1.481 0 .932.627 1.481 1.51 1.481.636 0 1.2-.388 1.363-1.072h-.857v.01z"/><path id="_183639168" fill="#7887E6" d="M33.09 13.202v-1.896c0-.213-.094-.352-.308-.352-.22 0-.45.145-.565.239v2.003h-.898V9.375h.898v1.299c.23-.18.548-.373.914-.373.365 0 .857.186.857.964v1.937h-.898z"/><path id="_183639384" fill="#2D2341" d="M20.459 11.964v-.223c0-.828-.585-1.44-1.383-1.44-.794 0-1.41.627-1.41 1.502 0 .896.584 1.466 1.514 1.466.26 0 .773-.047 1.17-.316l-.252-.549c-.265.15-.537.218-.783.218h-.078c-.02 0-.036-.006-.057-.006h-.01c-.016 0-.032-.005-.047-.01-.006 0-.01 0-.017-.005-.015-.005-.03-.005-.046-.011-.01 0-.016-.005-.026-.005-.01-.005-.021-.005-.032-.01-.01-.005-.02-.011-.036-.016-.005 0-.005-.005-.01-.005-.016-.01-.038-.015-.053-.026a.515.515 0 01-.1-.077l-.036-.037c-.004-.005-.01-.01-.01-.015-.005-.011-.011-.016-.02-.026-.011-.016-.022-.026-.032-.042a.858.858 0 01-.11-.356h1.864v-.011zm-1.383-1.04c.245 0 .444.195.474.569h-.95c.037-.374.23-.57.476-.57zm-7.796.247c0-.134.136-.217.36-.217.235 0 .48.083.663.16l.251-.585a2.25 2.25 0 00-.955-.228c-.669 0-1.206.301-1.206.901 0 .943 1.342.773 1.342 1.192 0 .155-.157.233-.418.233a1.67 1.67 0 01-.726-.187l-.288.57c.334.176.727.26 1.092.26.647 0 1.211-.333 1.211-.943-.006-.932-1.326-.778-1.326-1.156zm-5.18-.87c-.553 0-.992.171-1.257.336l.244.508c.162-.072.507-.202.794-.202.209 0 .392.074.392.291v.187c-1.238-.089-1.593.45-1.593.947 0 .486.418.895.961.895.214 0 .449-.083.626-.191v.124h.899v-1.968c.005-.637-.403-.927-1.065-.927zm.21 2.28a.623.623 0 01-.356.108c-.224 0-.375-.13-.375-.332 0-.232.183-.46.725-.373v.596h.006zm7.977-2.28c-.553 0-.992.171-1.258.336l.246.508c.162-.072.505-.202.794-.202.208 0 .39.074.39.291v.187c-1.237-.089-1.592.45-1.592.947 0 .486.419.895.96.895.216 0 .45-.083.628-.191v.124h.898v-1.968c.005-.637-.408-.927-1.066-.927zm.173 2.28a.619.619 0 01-.355.108c-.224 0-.377-.13-.377-.332 0-.232.188-.46.727-.373v.596h.005zm1.628-2.326v.12h-.474v.605h.474v2.226h.893V10.98h.617v-.612h-.617v-.15c0-.248.1-.43.377-.43a.9.9 0 01.261.042v-.631a1.673 1.673 0 00-.429-.058c-.72 0-1.102.44-1.102 1.114zm-6.62.113l-.615 1.694-.711-1.694h-.92l1.207 2.7-.376.926h.852l1.445-3.63h-.882v.004zm-6.135-1H1.851v3.834h.919v-1.399h.563c.747 0 1.305-.46 1.305-1.242 0-.68-.418-1.192-1.305-1.192zm-.099 1.767H2.77v-1.098h.464c.33 0 .517.228.517.554-.006.352-.209.544-.517.544z"/><path id="_183639120" fill="#7887E6" d="M35.187 10.851a.78.78 0 110-1.561.78.78 0 010 1.561zm0 .223a1.004 1.004 0 10-.002-2.007 1.004 1.004 0 00.002 2.007z"/><path id="_183639048" fill="#7887E6" d="M35.215 9.513h-.475v1.115h.294v-.406h.021l.242.406h.336l-.285-.428c.135-.053.285-.18.285-.34 0-.198-.135-.347-.418-.347zm-.18.514v-.32h.148c.105 0 .165.067.165.162 0 .102-.066.158-.165.158h-.149z"/></g></g></svg>