<svg id="Layer_1" data-name="Layer 1" xmlns="http://www.w3.org/2000/svg" viewBox="0 0 38 24"><title>paytm</title><rect x="0.5" y="0.5" width="37" height="23" rx="3" ry="3" style="fill:#fff;stroke:#000;stroke-opacity:0.07000000029802322"/><path d="M14.17,13.32v2.6a0.87,0.87,0,0,1-.74.91h-2.7a1.83,1.83,0,0,1-2-1.9,14.66,14.66,0,0,1,.06-2.08,1.81,1.81,0,0,1,1.69-1.54h1.19a0.31,0.31,0,0,0,.34-0.41,0.33,0.33,0,0,0-.23-0.41H10c-0.38,0-.46-0.08-0.46-0.47V8.91a0.3,0.3,0,0,1,.25-0.35h2.39a1.87,1.87,0,0,1,1.92,2.1C14.18,11.57,14.17,12.45,14.17,13.32Zm-3.32,1.34a0.34,0.34,0,0,0,.31.36h0.61a0.33,0.33,0,0,0,.36-0.35V13.54c0-.3-0.16-0.36-0.72-0.36s-0.53.1-.56,0.37v1.11h0Zm9.58-2.73v2.81a2,2,0,0,1-1.85,2.15H16.13c-0.34,0-.42-0.07-0.42-0.42V15.21A0.3,0.3,0,0,1,16,14.86H18a0.32,0.32,0,0,0,.36-0.34,0.33,0.33,0,0,0-.31-0.35h-1a1.94,1.94,0,0,1-2-1.86h0V9a0.32,0.32,0,0,1,.26-0.37h1.34c0.34,0,.42.1,0.42,0.45v2.6c0,0.45.1,0.54,0.55,0.54h0.05c0.62,0,.67-0.05.67-0.66V9a0.36,0.36,0,0,1,.45-0.5H20a0.36,0.36,0,0,1,.42.42C20.43,10,20.43,10.94,20.43,11.93ZM4.57,14.48v1.94c0,0.46-.06.51-0.52,0.51H2.87a0.3,0.3,0,0,1-.36-0.36V9a0.28,0.28,0,0,1,.22-0.32H6.2a1.66,1.66,0,0,1,1.62,1.61,17.62,17.62,0,0,1,0,2.49,1.74,1.74,0,0,1-1.73,1.74H4.57Zm0-2.08H5.43a0.32,0.32,0,0,0,.32-0.31h0V11a0.32,0.32,0,0,0-.28-0.35H4.59v1.74Z" style="fill:#22346c"/><path d="M28.94,9a2.2,2.2,0,0,1,2.86.1,7.28,7.28,0,0,1,1.15-.51,2.08,2.08,0,0,1,2.56,2v5.83c0,0.36-.09.45-0.45,0.45H33.91a0.35,0.35,0,0,1-.42-0.42V11.21a0.6,0.6,0,0,0-.79-0.64,0.55,0.55,0,0,0-.49.58v5.4a0.31,0.31,0,0,1-.25.36H30.53a0.3,0.3,0,0,1-.35-0.31V11.17a0.48,0.48,0,0,0-.29-0.55,1.38,1.38,0,0,0-.71,0,0.48,0.48,0,0,0-.26.53v5.21c0,0.48-.06.55-0.56,0.55h-1c-0.36,0-.42-0.08-0.42-0.44V9c0-.42.06-0.47,0.46-0.47h1.09A0.42,0.42,0,0,1,28.94,9Zm-5.43,1.64H22.74a0.33,0.33,0,0,1-.41-0.4V9a0.31,0.31,0,0,1,.25-0.36h0.1a2,2,0,0,0,1.74-1A2,2,0,0,1,25,7.07c0.24-.16.42,0,0.44,0.27V8.61h0.7a0.36,0.36,0,0,1,.42.42v1.22a0.35,0.35,0,0,1-.42.42H25.48v5.83c0,0.42-.07.48-0.47,0.49H23.92a0.34,0.34,0,0,1-.42-0.42C23.51,14.7,23.51,10.79,23.51,10.65Z" style="fill:#24b8eb"/></svg>