<svg xmlns="http://www.w3.org/2000/svg" fill="none" viewBox="0 0 38 24" height="24" width="38" aria-labelledby="pi-payto" role="img"><title id="pi-payto">PayTo</title><path fill="#fff" d="M0 0h38v24H0z"/><path fill="#231F20" fill-rule="evenodd" d="M6.97 11.2c.19 0 .37-.02.54-.04.17-.03.33-.08.46-.15a.85.85 0 0 0 .32-.3.89.89 0 0 0 .12-.49.84.84 0 0 0-.12-.47.83.83 0 0 0-.31-.28c-.14-.07-.3-.12-.45-.14A4.07 4.07 0 0 0 7 9.3h-.85v1.9h.8ZM5 8.3h2.13c.37 0 .7.03 1 .1.3.07.56.18.78.34.21.15.38.36.5.6.11.24.17.53.17.88 0 .36-.07.67-.2.92s-.32.45-.55.6a2.4 2.4 0 0 1-.8.34c-.32.07-.65.1-.98.1h-.9v2.74H5V8.3Zm7.6 4.53h-.24c-.18 0-.36 0-.56.02-.18.01-.36.04-.54.1-.15.04-.29.12-.41.21a.48.48 0 0 0-.17.39c0 .1.03.19.07.26.05.07.1.12.18.17a.8.8 0 0 0 .25.09l.27.02c.38 0 .67-.1.87-.3.2-.2.29-.47.29-.81v-.15Zm.03 1.43h-.03c-.11.19-.29.35-.53.47-.26.13-.55.2-.84.19-.18 0-.36-.03-.55-.07a1.66 1.66 0 0 1-.53-.23 1.19 1.19 0 0 1-.56-1.05c0-.33.09-.59.27-.78.2-.2.45-.36.72-.44.3-.1.62-.17.98-.2.36-.04.7-.06 1.05-.06V12c0-.28-.1-.48-.3-.6a1.2 1.2 0 0 0-.71-.2 1.8 1.8 0 0 0-1.2.5l-.57-.67c.25-.23.54-.4.87-.51a2.99 2.99 0 0 1 1.96-.01 1.5 1.5 0 0 1 .9 1.02c.06.21.1.43.1.65v2.64h-1.03v-.55Zm1.28-3.67h1.25l1.27 3.2h.02l1.12-3.2h1.18l-2.14 5.36a3.8 3.8 0 0 1-.27.54c-.17.3-.46.54-.8.64a2.21 2.21 0 0 1-.94.06c-.1 0-.2-.02-.3-.05l.1-.95c.14.04.28.06.42.06.1 0 .2-.01.3-.04a.52.52 0 0 0 .21-.13.9.9 0 0 0 .15-.21l.14-.3.23-.57-1.94-4.41ZM23.95 14c.21 0 .49-.08.6-.11v.86c-.2.08-.4.12-.6.13a1.58 1.58 0 0 1-1.56-1.59v-2.6h-.99v-.86h.99V8.75h.86v1.08h2.33c-.33.23-.62.52-.85.85h-1.49v2.61c0 .4.33.7.71.7V14Zm3.5.88a2.5 2.5 0 0 1-2.52-2.53 2.53 2.53 0 0 1 2.53-2.52h2.84v-.78l1.47 1.21-1.47 1.22v-.8h-2.88c-.88 0-1.61.8-1.61 1.67a1.64 1.64 0 0 0 2.28 1.54 1.64 1.64 0 0 0 1.02-1.54c0-.37-.12-.74-.33-1.05h.97a2.53 2.53 0 0 1-2.3 3.58ZM30.02 5h-7.25a3 3 0 0 0-3 3v7.24a3 3 0 0 0 3 3H30a3 3 0 0 0 2.99-3V8A3 3 0 0 0 30 5Z" clip-rule="evenodd"/></svg>