<svg version="1.1" id="图层_1" xmlns="http://www.w3.org/2000/svg" x="0" y="0" viewBox="0 0 38 24" xml:space="preserve"><style type="text/css">.st1{fill:#fff}</style><circle cx="19" cy="12" r="11.9" fill="#ef0f0e"/><path class="st1" d="M26.1 9c-.1.2-.3.3-.4.5-1.2 2.4-2.3 4.8-3.4 7.2-.1.1-.2.2-.3.4-.1-.2-.2-.4-.3-.5-1-2.2-2-4.5-3-6.7-.1-.2-.2-.5-.4-.7v.3c-.1 1.9-.1 3.8-.2 5.7 0 .2 0 .5.1.7 0 .3.3.5.6.5h.3c.1 0 .2.1.2.2-.1.1-.2.2-.3.2h-2.7c-.1 0-.2-.1-.3-.1.1-.1.1-.2.2-.3h.1c.8-.2.8-.2.9-1 .1-1.9.2-3.9.3-5.8 0-.5.1-1 .1-1.6 0-.5-.2-.7-.7-.8-.1 0-.2 0-.3-.1-.1 0-.2-.1-.2-.2s.1-.2.2-.2h2.2c.2 1.7 1.2 3 1.8 4.4.5 1.1 1 2.1 1.5 3.2.1.2.2.3.3.5l.6-1.2 3-6.3c.3-.7.3-.7 1-.7h1.2c.2 0 .3.1.3.2s-.2.2-.3.2h-.1c-.8.2-1 .3-1 1.2 0 2.4.1 4.8.1 7.3 0 .5.2.6.6.8.1 0 .2 0 .3.1.1 0 .2.2.2.2 0 .1-.1.2-.2.2h-3c-.1 0-.3-.1-.3-.2 0-.2.1-.2.3-.2h.3c.3 0 .5-.2.5-.5v-.5-6c.3-.2.3-.3.2-.4z"/><path class="st1" d="M8.1 12.3c.4 0 .7.1 1.1 0 1.2 0 2.5 0 3.7-.1 1.5-.1 2.2-1.1 2.1-2.6-.1-1.9-1.5-2.3-2.8-2.2-.3 0-.3.2-.3.4 0 .6-.1 1.1-.1 1.7v2.6h-1.2v-.4c0-1.2 0-2.4-.1-3.6 0-.6-.1-.7-.7-.8-.2 0-.4-.1-.6-.1v-.1c0-.1.1-.2.2-.2 1.2 0 2.4-.1 3.6-.1.6 0 1.2.2 1.8.4 1.8.7 2.3 3.4.6 4.6-.8.6-1.6.8-2.6 1-1.5.2-3 0-4.4-.4-.1 0-.1 0-.2-.1h-.1zM11.2 17H9.7c-.2 0-.4 0-.3-.2 0-.1.2-.2.3-.3h.1c.6-.1.7-.3.7-.9v-2.2c0-.3.1-.4.4-.3h.4c.5 0 .5 0 .5.5v1.8c0 .6.3.9.9 1h.2l.3.3c-.2.2-.3.3-.4.3h-1.6z"/></svg>