<svg class="icon" width="32px" height="20.21px" viewBox="0 0 1621 1024" version="1.1" xmlns="http://www.w3.org/2000/svg" role="img" aria-labelledby="pi-Pefect_money"><title id="pi-Pefect_money">Pefect_money</title><path d="M810.666667 512m-507.733334 0a507.733333 507.733333 0 1 0 1015.466667 0 507.733333 507.733333 0 1 0-1015.466667 0Z" fill="#EF0F0E" /><path d="M1113.6 384c-4.266667 8.533333-12.8 12.8-17.066667 21.333333-51.2 102.4-98.133333 204.8-145.066666 307.2-4.266667 4.266667-8.533333 8.533333-12.8 17.066667-4.266667-8.533333-8.533333-17.066667-12.8-21.333333-42.666667-93.866667-85.333333-192-128-285.866667-4.266667-8.533333-8.533333-21.333333-17.066667-29.866667v12.8c-4.266667 81.066667-4.266667 162.133333-8.533333 243.2 0 8.533333 0 21.333333 4.266666 29.866667 0 12.8 12.8 21.333333 25.6 21.333333h12.8c4.266667 0 8.533333 4.266667 8.533334 8.533334-4.266667 4.266667-8.533333 8.533333-12.8 8.533333h-115.2c-4.266667 0-8.533333-4.266667-12.8-4.266667 4.266667-4.266667 4.266667-8.533333 8.533333-12.8h4.266667c34.133333-8.533333 34.133333-8.533333 38.4-42.666666 4.266667-81.066667 8.533333-166.4 12.8-247.466667 0-21.333333 4.266667-42.666667 4.266666-68.266667 0-21.333333-8.533333-29.866667-29.866666-34.133333-4.266667 0-8.533333 0-12.8-4.266667-4.266667 0-8.533333-4.266667-8.533334-8.533333s4.266667-8.533333 8.533334-8.533333h93.866666c8.533333 72.533333 51.2 128 76.8 187.733333 21.333333 46.933333 42.666667 89.6 64 136.533333 4.266667 8.533333 8.533333 12.8 12.8 21.333334l25.6-51.2 128-268.8c12.8-29.866667 12.8-29.866667 42.666667-29.866667h51.2c8.533333 0 12.8 4.266667 12.8 8.533333s-8.533333 8.533333-12.8 8.533334h-4.266667c-34.133333 8.533333-42.666667 12.8-42.666666 51.2 0 102.4 4.266667 204.8 4.266666 311.466666 0 21.333333 8.533333 25.6 25.6 34.133334 4.266667 0 8.533333 0 12.8 4.266666 4.266667 0 8.533333 8.533333 8.533334 8.533334 0 4.266667-4.266667 8.533333-8.533334 8.533333h-128c-4.266667 0-12.8-4.266667-12.8-8.533333 0-8.533333 4.266667-8.533333 12.8-8.533334h12.8c12.8 0 21.333333-8.533333 21.333334-21.333333v-21.333333-256c12.8-8.533333 12.8-12.8 8.533333-17.066667z" fill="#FFFFFF" /><path d="M345.6 524.8c17.066667 0 29.866667 4.266667 46.933333 0 51.2 0 106.666667 0 157.866667-4.266667 64-4.266667 93.866667-46.933333 89.6-110.933333-4.266667-81.066667-64-98.133333-119.466667-93.866667-12.8 0-12.8 8.533333-12.8 17.066667 0 25.6-4.266667 46.933333-4.266666 72.533333v110.933334h-51.2v-17.066667c0-51.2 0-102.4-4.266667-153.6 0-25.6-4.266667-29.866667-29.866667-34.133333-8.533333 0-17.066667-4.266667-25.6-4.266667v-4.266667c0-4.266667 4.266667-8.533333 8.533334-8.533333 51.2 0 102.4-4.266667 153.6-4.266667 25.6 0 51.2 8.533333 76.8 17.066667 76.8 29.866667 98.133333 145.066667 25.6 196.266667-34.133333 25.6-68.266667 34.133333-110.933334 42.666666-64 8.533333-128 0-187.733333-17.066666-4.266667 0-4.266667 0-8.533333-4.266667h-4.266667zM477.866667 725.333333H413.866667c-8.533333 0-17.066667 0-12.8-8.533333 0-4.266667 8.533333-8.533333 12.8-12.8h4.266666c25.6-4.266667 29.866667-12.8 29.866667-38.4v-93.866667c0-12.8 4.266667-17.066667 17.066667-12.8h17.066666c21.333333 0 21.333333 0 21.333334 21.333334v76.8c0 25.6 12.8 38.4 38.4 42.666666h8.533333l12.8 12.8c-8.533333 8.533333-12.8 12.8-17.066667 12.8h-68.266666z" fill="#FFFFFF" /></svg>