<svg class="icon" width="38" height="24" viewBox="0 0 38 24" version="1.1" xmlns="http://www.w3.org/2000/svg" role="img" aria-labelledby="pi-pefectmoney"><title id="pi-pefectmoney">Pefect Money</title><path d="M302.93300000000005 512a507.733 507.733 0 101015.467 0 507.733 507.733 0 10-1015.467 0z" fill="#EF0F0E"/><path d="M1113.6 384c-4.267 8.533-12.8 12.8-17.067 21.333-51.2 102.4-98.133 204.8-145.066 307.2-4.267 4.267-8.534 8.534-12.8 17.067-4.267-8.533-8.534-17.067-12.8-21.333-42.667-93.867-85.334-192-128-285.867-4.267-8.533-8.534-21.333-17.067-29.867v12.8c-4.267 81.067-4.267 162.134-8.533 243.2 0 8.534 0 21.334 4.266 29.867 0 12.8 12.8 21.333 25.6 21.333h12.8c4.267 0 8.534 4.267 8.534 8.534-4.267 4.266-8.534 8.533-12.8 8.533h-115.2c-4.267 0-8.534-4.267-12.8-4.267 4.266-4.266 4.266-8.533 8.533-12.8h4.267c34.133-8.533 34.133-8.533 38.4-42.666 4.266-81.067 8.533-166.4 12.8-247.467 0-21.333 4.266-42.667 4.266-68.267 0-21.333-8.533-29.866-29.866-34.133-4.267 0-8.534 0-12.8-4.267-4.267 0-8.534-4.266-8.534-8.533s4.267-8.533 8.534-8.533h93.866c8.534 72.533 51.2 128 76.8 187.733 21.334 46.933 42.667 89.6 64 136.533 4.267 8.534 8.534 12.8 12.8 21.334l25.6-51.2 128-268.8c12.8-29.867 12.8-29.867 42.667-29.867h51.2c8.533 0 12.8 4.267 12.8 8.533s-8.533 8.534-12.8 8.534h-4.267c-34.133 8.533-42.666 12.8-42.666 51.2 0 102.4 4.266 204.8 4.266 311.466 0 21.334 8.534 25.6 25.6 34.134 4.267 0 8.534 0 12.8 4.266 4.267 0 8.534 8.534 8.534 8.534 0 4.266-4.267 8.533-8.534 8.533h-128c-4.266 0-12.8-4.267-12.8-8.533 0-8.534 4.267-8.534 12.8-8.534h12.8c12.8 0 21.334-8.533 21.334-21.333V401.067c12.8-8.534 12.8-12.8 8.533-17.067z" fill="#FFF"/><path d="M345.6 524.8c17.067 0 29.867 4.267 46.933 0 51.2 0 106.667 0 157.867-4.267 64-4.266 93.867-46.933 89.6-110.933-4.267-81.067-64-98.133-119.467-93.867-12.8 0-12.8 8.534-12.8 17.067 0 25.6-4.266 46.933-4.266 72.533v110.934h-51.2V499.2c0-51.2 0-102.4-4.267-153.6 0-25.6-4.267-29.867-29.867-34.133-8.533 0-17.066-4.267-25.6-4.267v-4.267c0-4.266 4.267-8.533 8.534-8.533 51.2 0 102.4-4.267 153.6-4.267 25.6 0 51.2 8.534 76.8 17.067 76.8 29.867 98.133 145.067 25.6 196.267-34.134 25.6-68.267 34.133-110.934 42.666-64 8.534-128 0-187.733-17.066-4.267 0-4.267 0-8.533-4.267H345.6zm132.267 200.533h-64c-8.534 0-17.067 0-12.8-8.533 0-4.267 8.533-8.533 12.8-12.8h4.266c25.6-4.267 29.867-12.8 29.867-38.4v-93.867c0-12.8 4.267-17.066 17.067-12.8h17.066c21.334 0 21.334 0 21.334 21.334v76.8c0 25.6 12.8 38.4 38.4 42.666h8.533l12.8 12.8c-8.533 8.534-12.8 12.8-17.067 12.8h-68.266z" fill="#FFF"/></svg>