<svg xmlns="http://www.w3.org/2000/svg" width="38" height="24" aria-labelledby="pi-Pei"><g clip-path="url(#clip0_417_90)"><path opacity=".07" d="M35 0H3C1.3 0 0 1.3 0 3v18c0 1.7 1.4 3 3 3h32c1.7 0 3-1.3 3-3V3c0-1.7-1.4-3-3-3z"/><path d="M35 1c1.1 0 2 .9 2 2v18c0 1.1-.9 2-2 2H3c-1.1 0-2-.9-2-2V3c0-1.1.9-2 2-2h32z" fill="#fff"/><g clip-path="url(#clip1_417_90)"><path d="M20.657 11.892c.637.257 1.364.447 2.04.266.419-.114.707-.61.479-.99-.309-.457-.976-.524-1.484-.428-.557.133-.895.647-1.035 1.152zm-2.21-1.762c.896-1.133 2.41-1.685 3.873-1.656 1.065.019 2.19.228 3.016.904 1.065.857 1.144 2.57.199 3.542-.448.457-1.075.723-1.702.876-1.095.228-2.28.133-3.295-.315.08.39.248.79.587 1.038.538.4 1.254.448 1.901.419.966-.076 1.951-.248 2.827-.657.05.733.08 1.476.13 2.209a6.05 6.05 0 01-2.34.666c-1.363.134-2.837.105-4.06-.552-.966-.495-1.633-1.418-1.872-2.428-.319-1.37-.17-2.913.736-4.046zm-6.719 1.019c-.438.105-.786.438-.955.828-.2.457-.2.971-.12 1.447.08.429.269.886.647 1.152.378.276.916.267 1.344.095.508-.228.767-.752.846-1.256.1-.61.07-1.304-.348-1.81-.329-.409-.906-.608-1.414-.456zM7 8.72c.896-.162 1.623-.304 2.419-.01.498.182.766.715.697 1.21.458-.905 1.503-1.428 2.528-1.438.846.01 1.702.22 2.389.705.876.619 1.354 1.637 1.503 2.656.21 1.361 0 2.837-.836 3.989-.627.866-1.712 1.4-2.807 1.39-.936.038-1.991-.314-2.409-1.162.01 1.743 0 2.18 0 3.932-.956.02-2.867 0-2.867-2.437V10.95c-.01-.171.04-.38-.12-.486-.149-.123-.487-.104-.487-.123V8.72H7z" fill="#603284"/><path d="M28.003 8.635h2.588v8.283h-2.926c0-2.475.02-4.979.03-8.32" fill="#633485"/><path d="M28.79 5.027c-.568.105-1.065.62-1.255 1.143-.159.476-.129.742.13 1.6h3.096c.388-.858.298-1.686-.279-2.21-.438-.39-1.105-.647-1.692-.533z" fill="#EF8E19"/></g></g><defs><clipPath id="clip0_417_90"><path fill="#fff" d="M0 0h38v24H0z"/></clipPath><clipPath id="clip1_417_90"><path fill="#fff" transform="translate(7 5)" d="M0 0h24v15H0z"/></clipPath></defs></svg>