<svg width="38" height="24" fill="none" role="img" viewBox="0 0 38 24" aria-labelledby="pi-pei" xmlns="http://www.w3.org/2000/svg"><title id="pi-pei">Pei</title><path fill="#fff" d="M.268 0h38v24h-38z"/><path d="M9.945 8.897h2.524v.786h.03c.26-.407.87-.96 1.957-.96 1.842 0 3.423 1.557 3.423 3.696 0 2.604-1.494 4.19-3.684 4.19-.942 0-1.523-.407-1.726-.61v3.1H9.945V8.898zm3.989 2.358c-.783 0-1.407.625-1.407 1.411s.624 1.412 1.407 1.412c.784 0 1.421-.626 1.421-1.412 0-.786-.623-1.411-1.421-1.411zM28.256 8.897h-2.524v7.538h2.524V8.897zM26.985 4.9c-.884 0-1.587.707-1.587 1.594 0 .886.704 1.593 1.587 1.593.884 0 1.605-.706 1.605-1.593 0-.888-.704-1.594-1.605-1.594zM24.822 13.214h.005v-.01c-.48.51-1.494 1.077-2.35 1.077-.363 0-.74-.116-.87-.204l3.785-2.691c-.29-.932-.87-2.663-3.336-2.663-1.726 0-3.93 1.251-3.93 3.958 0 3.128 2.495 3.929 3.727 3.929 1.418 0 2.434-.517 2.968-.826v-2.57zm-4.289-.912c0-.902.58-1.397 1.277-1.397.203 0 .667.058.827.262L20.59 12.71c-.029-.146-.058-.277-.058-.408" fill="#FF5338"/><path stroke="#000" stroke-opacity=".07" d="M.768.5h37v23h-37z"/></svg>