<svg xmlns="http://www.w3.org/2000/svg" width="38" height="24" fill="none" aria-labelledby="pi-pei" role="img" viewBox="0 0 38 24"><title id="pi-pei">Pei</title><path fill="#fff" d="M0 0h38v24H0z"/><path fill="#FF5338" d="M9.95 8.9h2.52v.78h.03c.26-.4.87-.96 1.96-.96 1.84 0 3.42 1.56 3.42 3.7 0 2.6-1.5 4.19-3.68 4.19-.95 0-1.53-.4-1.73-.61v3.1H9.95zm3.98 2.35c-.78 0-1.4.63-1.4 1.42a1.41 1.41 0 1 0 1.4-1.41ZM28.26 8.9h-2.53v7.53h2.53zm-1.28-4c-.88 0-1.58.7-1.58 1.6 0 .88.7 1.59 1.59 1.59a1.6 1.6 0 1 0 0-3.19Zm-2.16 8.31a3.7 3.7 0 0 1-2.34 1.07c-.37 0-.74-.12-.87-.2l3.78-2.7c-.29-.93-.87-2.66-3.33-2.66a3.88 3.88 0 0 0-3.93 3.96 3.7 3.7 0 0 0 3.72 3.93 5.8 5.8 0 0 0 2.97-.83zm-4.29-.9c0-.91.58-1.4 1.28-1.4.2 0 .67.05.83.26l-2.05 1.54c-.03-.15-.06-.28-.06-.4"/></svg>