<svg xmlns="http://www.w3.org/2000/svg" width="38" height="24" fill="none" aria-labelledby="pi-perlasfinance" role="img" viewBox="0 0 38 24"><title id="pi-perlasfinance">Perlas finance</title><path fill="#fff" d="M0 0h38v24H0z"/><path fill="#F9EC4B" d="M12.47 5.47h13.06v13.06H12.47z"/><path fill="#026670" d="m19.82 11.8-.01.02v-.01Zm.01 0h-.01Z"/><path fill="#026670" d="M22.9 9.22a1.16 1.16 0 0 0-.48-.4c-.24-.1-.48-.11-.71-.23-.24-.1-.35-.35-.59-.48-.1-.05-.21-.1-.33-.12-.3-.05-.57.06-.87 0-.25-.07-.46-.23-.73-.26a3 3 0 0 0-.42 0c-.27.03-.48.19-.73.25-.3.07-.58-.04-.87.01a1.6 1.6 0 0 0-.33.12c-.24.13-.35.37-.59.48-.23.12-.48.14-.7.23-.2.09-.36.22-.49.4-.17.24-.27.5-.2.8.24 1.17 1.3 1.78 2.27 2.25l.03.02.06.01a.13.13 0 0 0 .13-.12.12.12 0 0 0-.07-.1v-.01h-.01a4.7 4.7 0 0 1-1.58-1.2c-.2-.27-.4-.57-.35-.92a.84.84 0 0 1 .4-.6c.26-.12.54-.14.8-.27.23-.13.35-.4.6-.5.3-.14.6-.02.93-.05.18-.01.34-.11.5-.18a1 1 0 0 1 .38-.1h.06c.13 0 .26.05.38.1.16.07.32.17.5.18.32.03.64-.09.94.05.24.1.36.37.6.5.25.13.53.15.79.27a.84.84 0 0 1 .4.6c.04.35-.15.65-.35.92-.42.55-1 .88-1.58 1.2h-.01a.12.12 0 0 0 .06.23l.06-.01.03-.02c.97-.47 2.04-1.08 2.28-2.25a1 1 0 0 0-.21-.8"/><path fill="#026670" d="M19 13.23a1.02 1.02 0 1 1 0-2.05 1.02 1.02 0 0 1 0 2.05m-.04-2.31a1.35 1.35 0 1 0 0 2.7 1.35 1.35 0 0 0 0-2.7m1.57.36a.11.11 0 0 1-.08-.04.12.12 0 0 1 0-.14c0-.02.01-.03.03-.04l.05-.04.68-.5a.16.16 0 0 1 .1-.03.16.16 0 0 1 .15.18.17.17 0 0 1-.08.13l-.09.05-.57.33-.13.08a.1.1 0 0 1-.05.02m-.67-.54a.12.12 0 0 1-.1-.16l.01-.04.27-.5.17-.32a.16.16 0 0 1 .12-.08.15.15 0 0 1 .11.05.17.17 0 0 1 .03.2l-.38.59-.13.2a.12.12 0 0 1-.1.06m-1-.35-.04-.68a16 16 0 0 0 0-.52.2.2 0 0 1 .17-.12c.1 0 .18.08.18.18v.05l-.04.81-.01.28a.14.14 0 0 1-.14.13.14.14 0 0 1-.13-.13m-1.15.87-.13-.08-.57-.33-.08-.05a.17.17 0 0 1-.05-.25.16.16 0 0 1 .1-.06c.05 0 .08.01.11.03l.68.5.06.04a.12.12 0 0 1-.04.21zm.4-.52a.12.12 0 0 1-.1-.05l-.13-.21-.37-.58a.17.17 0 0 1 .02-.21.15.15 0 0 1 .11-.05.16.16 0 0 1 .13.08l.16.31.27.51.02.04a.12.12 0 0 1-.05.15.1.1 0 0 1-.06.01m4.2 4.08a.12.12 0 0 0 .02-.12c-.03-.06-.1-.1-.15-.07l-.02.02c-1 .68-1.67 1.15-3.16 1.15-1.3 0-2.01-.31-3.2-1.15l-.02-.02a.1.1 0 0 0-.14.07.12.12 0 0 0 0 .12 4.4 4.4 0 0 0 3.34 1.46c1.8 0 2.6-.72 3.33-1.46"/><path fill="#026670" d="M22.85 13.12c-.57-.32-1.17-.45-1.8-.59a.1.1 0 0 0-.12.1c0 .06.04.1.1.11.39.08.77.18 1.15.32.22.1.44.19.6.38.07.1.11.2.06.32s-.17.16-.29.17c-.2 0-.41-.03-.6-.12a.8.8 0 0 0-.28-.1c-.27-.05-.47.14-.69.28-.21.13-.4.23-.64.27a1 1 0 0 1-.45-.07c-.27-.1-.54-.23-.83-.25h-.12c-.3.03-.56.15-.83.25-.15.05-.3.1-.45.07a1.7 1.7 0 0 1-.64-.27c-.22-.14-.42-.33-.7-.27a.8.8 0 0 0-.27.1c-.19.08-.4.12-.6.1a.32.32 0 0 1-.29-.16c-.05-.12 0-.22.06-.32.16-.2.38-.29.6-.38.38-.14.76-.24 1.16-.32a.1.1 0 0 0 .07-.04.1.1 0 0 0-.03-.15.1.1 0 0 0-.08-.02c-.62.14-1.22.26-1.79.59a.8.8 0 0 0-.43.7c.01.24.18.45.4.54.36.12.75.03 1.08-.14.12-.05.23-.01.34.06.37.25.75.52 1.21.48.33-.04.6-.2.91-.29a1 1 0 0 1 .28-.04h.12c.1 0 .19.02.28.04.31.09.58.25.9.29.47.04.85-.22 1.22-.48.1-.07.22-.11.34-.06.34.17.72.26 1.08.14a.61.61 0 0 0 .4-.54.8.8 0 0 0-.43-.7"/></svg>