<svg xmlns="http://www.w3.org/2000/svg" width="38" height="24" fill="none" aria-labelledby="pi-permata" role="img" viewBox="0 0 38 24"><title id="pi-permata">Permata</title><path fill="#fff" d="M0 0h38v24H0z"/><path fill="#000" d="M21.48 15.02c0-.3-.11-.53-.34-.65a1 1 0 0 0-.25-.08 2 2 0 0 0-.34-.02h-.45v1.54h.45c.32 0 .56-.06.7-.19a.56.56 0 0 0 .17-.25c.04-.11.06-.23.06-.35m-1.38-2.19v1.32h.47c.54 0 .82-.22.82-.67 0-.44-.3-.65-.86-.65zm-.36 2.77v-2.62a.2.2 0 0 0-.06-.1.2.2 0 0 0-.06-.04.6.6 0 0 0-.21-.03v-.07h1.19c.16 0 .31 0 .47.03.11.02.23.05.34.1a.6.6 0 0 1 .37.6c0 .4-.27.65-.82.72l-.09.01a2.1 2.1 0 0 1 .6.15.73.73 0 0 1 .42.7c0 .4-.19.65-.58.77a4.5 4.5 0 0 1-.74.08h-1.16v-.07c.14 0 .23-.02.27-.07a.2.2 0 0 0 .04-.06.4.4 0 0 0 .02-.1m2.74-.28c0 .13.03.25.1.36a.35.35 0 0 0 .29.13c.11 0 .23-.03.33-.1.1-.05.19-.13.25-.23a.7.7 0 0 0 .07-.24c.02-.12.03-.24.03-.37v-.23l-.47.06-.3.1a.54.54 0 0 0-.3.53Zm1.12.5a.6.6 0 0 1-.05-.26v-.04l-.03.03a1.2 1.2 0 0 1-.48.34c-.1.02-.2.04-.3.04a.65.65 0 0 1-.44-.14.54.54 0 0 1-.14-.2.7.7 0 0 1-.05-.25c0-.34.21-.56.64-.66a4 4 0 0 1 .78-.1l.02-.3c0-.08 0-.16-.02-.24a.5.5 0 0 0-.05-.17c-.06-.12-.19-.18-.37-.18q-.45 0-.48.42l-.01.1c0 .02-.02.03-.03.04a.3.3 0 0 1-.14.03c-.15 0-.2-.04-.2-.11a.4.4 0 0 1 .07-.22.7.7 0 0 1 .22-.2c.2-.1.41-.14.64-.13.28 0 .47.07.57.19a.5.5 0 0 1 .1.2c.02.09.03.19.03.29v.44l-.01.42v.46c.01.08.04.16.1.19.08.02.17.04.25.03.07 0 .14 0 .2-.03a.18.18 0 0 0 .1-.14c.02-.1.03-.2.02-.3v-1.19c0-.15-.01-.27-.06-.33s-.13-.08-.24-.08v-.06l.63-.05v.5l.03-.05a.9.9 0 0 1 .32-.36.8.8 0 0 1 .45-.1c.26 0 .45.08.56.26a.6.6 0 0 1 .09.22c.02.1.02.21.02.32v.92c0 .1 0 .2.02.3a.17.17 0 0 0 .1.14c.07.02.15.03.23.03.07 0 .13 0 .2-.03a.17.17 0 0 0 .09-.14l.02-.3v-2.15c0-.1 0-.19-.02-.28a.15.15 0 0 0-.1-.12.7.7 0 0 0-.2-.02v-.07l.66-.03-.03.87V15l.73-.8c.1-.1.16-.2.16-.28 0-.1-.1-.15-.28-.16v-.06h.94v.06a.7.7 0 0 0-.15.03 1.1 1.1 0 0 0-.38.25c-.04.05-.1.12-.2.21l-.23.26.63.99c.05.09.12.17.2.24.06.05.14.08.22.09v.06h-.58l-.06-.12-.1-.17-.06-.12-.46-.76-.37.41v.23c0 .1 0 .2.02.3a.17.17 0 0 0 .1.14c.06.02.13.03.2.03v.06H25.7v-.06c.13 0 .22-.03.25-.07a.2.2 0 0 0 .04-.07l.01-.09.01-.13v-1a1 1 0 0 0-.07-.48.41.41 0 0 0-.4-.25.58.58 0 0 0-.52.3c-.1.17-.15.36-.15.55v.77c0 .1 0 .2.02.3a.17.17 0 0 0 .1.14.6.6 0 0 0 .2.03v.06h-.95l-.32.01-.2-.02c-.07-.02-.1-.03-.12-.07M3.86 14.45h.2c.25 0 .43-.06.55-.18a.64.64 0 0 0 .14-.26c.03-.12.05-.24.05-.37q0-.78-.69-.78h-.25zm0 .12v.78c0 .1 0 .2.02.29a.16.16 0 0 0 .1.12c.09.03.17.04.26.03v.11H3v-.1a.7.7 0 0 0 .23-.04.16.16 0 0 0 .1-.12c.02-.1.03-.19.02-.28v-2.07c0-.1 0-.2-.02-.29a.17.17 0 0 0-.09-.12.7.7 0 0 0-.22-.04v-.1h1.17c.4 0 .69.06.88.2.18.15.27.37.27.68 0 .43-.17.7-.5.84a3.4 3.4 0 0 1-.79.1zm2.04.01h.9c0-.1 0-.21-.02-.31 0-.08-.03-.15-.05-.22-.08-.22-.2-.33-.35-.33-.18 0-.3.13-.4.38a3 3 0 0 0-.09.49zm1.43.12H5.9l.03.39c.02.1.04.2.08.28.12.28.3.42.55.42.14 0 .28-.04.39-.12.12-.1.22-.22.29-.36l.1.07c-.08.17-.2.33-.37.44a.95.95 0 0 1-.53.14c-.32 0-.63-.11-.81-.32q-.3-.3-.3-.84c0-.54.1-.64.29-.85a1 1 0 0 1 .78-.32c.2 0 .38.04.55.14.15.1.26.25.31.41l.06.21c.02.1.02.2.03.31m.09-1.01.8-.06v.47q.27-.465.63-.48c.1 0 .19.03.26.1a.3.3 0 0 1 .1.22.24.24 0 0 1-.08.2.34.34 0 0 1-.22.06.17.17 0 0 1-.2-.13.3.3 0 0 0-.05-.12.08.08 0 0 0-.07-.03H8.6c-.08 0-.16.07-.23.2a.8.8 0 0 0-.08.2 1.2 1.2 0 0 0-.03.27v.79c0 .09 0 .18.02.27a.16.16 0 0 0 .1.12c.07.02.14.03.22.03v.1H7.41v-.1c.07 0 .14 0 .21-.03a.16.16 0 0 0 .1-.12c.01-.09.02-.18.01-.27V14.2c0-.17-.01-.29-.05-.34s-.12-.08-.25-.07v-.1Zm2.75-.06v.42a.83.83 0 0 1 .74-.43q.495 0 .6.45a.95.95 0 0 1 .32-.34.77.77 0 0 1 .41-.1c.25 0 .44.07.56.24a.6.6 0 0 1 .1.23c.02.1.03.22.02.34v.94c0 .09 0 .18.02.27a.16.16 0 0 0 .1.12c.06.03.13.04.2.03v.1h-1.14v-.1c.07 0 .14 0 .2-.03a.16.16 0 0 0 .09-.12l.02-.27v-.93c0-.23-.03-.39-.08-.49a.28.28 0 0 0-.27-.14c-.15 0-.28.08-.38.23a.75.75 0 0 0-.13.43v.9c0 .09 0 .18.02.27a.16.16 0 0 0 .08.12q.105.045.21.03v.1h-1.14v-.1c.07 0 .14 0 .2-.03a.16.16 0 0 0 .1-.12l.01-.27v-.94c0-.42-.11-.63-.34-.62a.46.46 0 0 0-.37.2.83.83 0 0 0-.15.5v.86c0 .09 0 .18.02.27a.15.15 0 0 0 .09.12c.07.03.14.04.2.03v.1H9.34v-.1a.6.6 0 0 0 .22-.03.16.16 0 0 0 .09-.11c.01-.1.02-.19.01-.28v-1.19c0-.17 0-.28-.05-.33-.04-.05-.12-.08-.26-.07v-.1l.83-.06Zm6.1.2v1.41l.01.23c0 .06.02.1.03.16.02.04.05.08.09.11.03.03.08.04.12.04a.5.5 0 0 0 .3-.13l.06.1a.87.87 0 0 1-.59.22c-.23 0-.39-.08-.48-.23a.5.5 0 0 1-.04-.12 1 1 0 0 1-.01-.17v-1.63h-.25v-.12q.12 0 .24-.06c.06-.04.12-.1.16-.17a1 1 0 0 0 .1-.19l.06-.26.21-.02v.17l-.01.2v.32h.52v.13h-.52ZM14.72 15v-.33c-.3.02-.52.08-.64.17a.48.48 0 0 0-.19.43c0 .12.03.25.1.36a.3.3 0 0 0 .25.14c.08 0 .17-.03.24-.08a.5.5 0 0 0 .17-.2.7.7 0 0 0 .06-.2c.01-.1.02-.2.01-.3Zm.8.8v.1h-.3c-.1 0-.21 0-.3-.04a.3.3 0 0 1-.13-.07.25.25 0 0 1-.06-.18c-.1.1-.21.2-.34.26a.9.9 0 0 1-.39.08.67.67 0 0 1-.48-.17.6.6 0 0 1-.17-.45c0-.37.22-.6.68-.68.23-.04.46-.07.7-.08v-.28c0-.22-.03-.37-.07-.46a.26.26 0 0 0-.27-.12.3.3 0 0 0-.28.15.4.4 0 0 0-.05.12 1.4 1.4 0 0 0-.02.18.2.2 0 0 1-.06.16.3.3 0 0 1-.2.05c-.2 0-.3-.07-.3-.2 0-.08.03-.15.07-.21a.6.6 0 0 1 .2-.18c.21-.12.45-.18.7-.17.29 0 .5.06.62.18.06.05.1.13.13.2.03.1.04.22.04.32v.37l-.01.37v.23a2.4 2.4 0 0 0 .03.42l.05.06a.4.4 0 0 0 .2.04m2.87-.8v-.33c-.3.02-.52.08-.64.17-.13.09-.2.23-.19.43 0 .13.03.25.1.36a.3.3 0 0 0 .25.14c.08 0 .17-.03.24-.08a.5.5 0 0 0 .17-.2.7.7 0 0 0 .06-.2l.02-.3Zm.8.8v.1h-.3c-.1 0-.21 0-.3-.03a.3.3 0 0 1-.13-.08.25.25 0 0 1-.06-.18c-.1.11-.21.2-.34.27a.9.9 0 0 1-.39.08.68.68 0 0 1-.48-.17.6.6 0 0 1-.17-.46c0-.36.22-.59.68-.68.23-.04.46-.06.7-.07v-.29a1 1 0 0 0-.08-.46.26.26 0 0 0-.1-.1c-.06-.02-.1-.02-.16-.02a.3.3 0 0 0-.28.15.4.4 0 0 0-.05.12l-.02.18a.2.2 0 0 1-.07.16.3.3 0 0 1-.19.05c-.2 0-.3-.07-.3-.2a.4.4 0 0 1 .07-.21.6.6 0 0 1 .2-.18c.2-.12.45-.18.7-.16.29 0 .5.05.62.17.06.06.1.13.13.2.03.1.04.22.04.32v.75a8 8 0 0 0 0 .56.18.18 0 0 0 .07.14.4.4 0 0 0 .2.05"/><path fill="#0096B8" d="m27.93 10.59-.01.16 3.14 3.69.11.01h.01l.06-.1-1.34-4.49-.23-.15z"/><path fill="#005675" d="m27.92 10.75 3.14 3.69.11.01-2.32-3.52z"/><path fill="#0BBBEF" d="m29.67 9.7-.8.95.33.14.7-.93-.23-.15Z"/><path fill="#007290" d="m27.92 10.75.93.18.02-.28-.94-.06zm1.28.04 1.98 3.66.06-.1-1.34-4.49z"/><path fill="#81B73E" d="m32.97 9.62 2.03.93v.27l-3.33 5.04-.15.04h-.03l-.04-.12 1.34-6.06z"/><path fill="#69931D" d="m33.65 10.93-2.13 4.97.15-.04L35 10.82z"/><path fill="#277933" d="m32.79 9.72-1.34 6.06.04.11 1.77-5.17z"/><path fill="#AECC53" d="m33.57 10.57.08.36 1.35-.11v-.27z"/><path fill="#69931D" d="m32.79 9.72.47 1 .31-.15-.6-.95z"/><path fill="#E4032E" d="m29.86 8.18.09-.15 2.6-.03.16.18-1.24 4.16-.08.04-.09-.06z"/><path fill="#B51227" d="m29.86 8.18 1.01.5.19-.22-1.11-.43z"/><path fill="#791B15" d="m29.86 8.18 1.44 4.14.09.06-.52-3.7-1-.5Z"/><path fill="#B51227" d="m31.36 8.69.03 3.7.08-.05 1.24-4.16-1.35.5Z"/><path fill="#EA5160" d="m32.55 8-1.5.46.31.22 1.35-.5z"/></svg>