<svg xmlns="http://www.w3.org/2000/svg" role="img" viewBox="0 0 38 24" width="38" height="24" aria-labelledby="pi-personalpay"><title id="pi-personalpay">Personal Pay</title><path d="M35 0H3C1.3 0 0 1.3 0 3v18c0 1.7 1.4 3 3 3h32c1.7 0 3-1.3 3-3V3c0-1.7-1.4-3-3-3z" opacity=".07"/><path d="M35 1c1.1 0 2 .9 2 2v18c0 1.1-.9 2-2 2H3c-1.1 0-2-.9-2-2V3c0-1.1.9-2 2-2h32" fill="#fff"/><g fill="#5d4ffc"><path d="M9.38 8.14H2.83v2.61h.5V8.63h6.05c.51 0 .97.42.97.88v4.08H7.96c-1.57 0-2.84-1.28-2.84-2.84h-.5c0 1.84 1.5 3.34 3.34 3.34h2.89V9.51c0-.73-.69-1.37-1.47-1.37"/><path d="M7.96 11.8c-.58 0-1.06-.47-1.06-1.06h-.5c0 .86.7 1.55 1.55 1.55v-.49zM3.33 10.74h-.5c0 2.82 2.3 5.13 5.13 5.13v-.5c-2.56 0-4.63-2.07-4.63-4.63M34.05 7h.63l-.01 3.42c0 .08.01.11.1.11h.4v.52h-.61c-.4 0-.52-.26-.52-.63L34.05 7zm-2.22 3.59c.4 0 .79-.33.84-.82h-.54c-.41 0-.71.15-.71.45-.01.23.16.37.41.37m.26-1.27h.58v-.18c0-.3-.18-.53-.54-.53-.34 0-.65.24-.8.57l-.53-.26c.25-.57.75-.89 1.34-.89.68 0 1.17.4 1.16 1.12v1.29c0 .07.01.09.08.09h.22v.52h-.4c-.25 0-.42-.15-.42-.47v-.14h-.03c-.2.43-.6.68-1.05.68-.47 0-.92-.28-.92-.86s.56-.94 1.31-.94m-4.35-1.23h.58v.56h.01c.2-.35.48-.64.98-.64.64 0 .99.49.99 1.17v1.86h-.64V9.28c0-.4-.15-.7-.54-.71-.5 0-.75.49-.75.94v1.52h-.64l.01-2.94zm-1.97 2.45c.53 0 .94-.43.94-.98 0-.54-.41-.98-.94-.98s-.94.43-.94.97c0 .55.41.99.94.99M25.79 8c.89 0 1.54.71 1.54 1.56 0 .85-.7 1.56-1.55 1.56-.85 0-1.55-.71-1.55-1.56 0-.86.71-1.56 1.56-1.56m-3.92 2.07c.24.3.54.52.93.52.27 0 .5-.1.5-.33 0-.24-.28-.35-.61-.45-.45-.15-1.01-.35-1.01-.91 0-.49.49-.9 1.1-.9.63 0 1 .36 1.17.75l-.46.24a.775.775 0 00-.71-.46c-.26 0-.46.14-.46.34 0 .25.24.33.58.44.46.15 1.04.32 1.04.9 0 .58-.56.91-1.15.91-.53 0-1.02-.28-1.3-.71l.38-.34zm-2.08-1.99h.58v.54h.02c.15-.38.35-.54.77-.54h.19v.63h-.41c-.36 0-.52.21-.52.61v1.7h-.64l.01-2.94zm-1.12 1.24c-.01-.41-.26-.74-.74-.74-.41 0-.78.29-.83.74h1.57zM17.96 8c.81 0 1.33.62 1.32 1.46v.35h-2.19c.05.42.44.71.93.71.37 0 .63-.19.83-.38l.37.37c-.32.4-.77.59-1.25.59-.77 0-1.51-.55-1.51-1.53.01-.88.68-1.57 1.5-1.57m-3.28 2.49c.47 0 .79-.38.79-.93 0-.51-.26-.99-.77-.99-.5 0-.79.44-.79.96s.26.96.77.96m-1.42-2.43h.55l.01.56h.02c.2-.37.56-.63 1-.63.81 0 1.28.7 1.28 1.55 0 .84-.48 1.56-1.29 1.56-.51 0-.78-.28-.92-.57h-.02v1.5h-.64l.01-3.97zM14.61 15.67c.61 0 1.05-.47 1.05-1.3s-.4-1.33-1.03-1.33-1.08.62-1.08 1.33.36 1.3 1.06 1.3m-1.36-2.82h.28v.67h.02c.15-.39.5-.75 1.09-.75.59 0 1.33.66 1.33 1.6s-.59 1.59-1.35 1.59-.93-.36-1.07-.76h-.03V17h-.28l.01-4.15zM17.41 15.65c.53 0 1.01-.49 1.08-1.2h-.76c-.54 0-1 .22-1 .64s.31.57.68.56m-.98-.55c0-.56.54-.9 1.3-.9h.77v-.38c0-.45-.28-.75-.77-.75s-.84.24-1.03.75l-.27-.13c.23-.57.74-.91 1.31-.91.57 0 1.06.47 1.06 1.04v1.68c0 .06.03.1.07.1h.27v.28h-.3c-.25 0-.33-.15-.33-.42l.01-.3h-.05c-.19.46-.58.79-1.1.79-.52-.01-.94-.29-.94-.85M19.62 12.86l1.02 2.77h.04l1.03-2.77h.32l-1.37 3.56c-.13.33-.27.5-.52.5h-.54v-.28h.5c.15 0 .24-.12.32-.31l.17-.45h-.17l-1.11-3.02h.31z"/></g></svg>