<svg viewBox="0 0 38 24" xmlns="http://www.w3.org/2000/svg" width="38" height="24" role="img" fill="none" aria-labelledby="pi-pesalink"><title id="pi-pesalink">Pesalink</title><rect width="36" height="22" x="1" y="1" fill="#fff" rx="2"/><rect width="37" height="23" x=".5" y=".5" stroke="#000" stroke-opacity=".07" rx="2.5"/><g clip-path="url(#a)"><path fill="#03152A" d="M17.698 9.805a70.767 70.767 0 00.343 0h.263a175.427 175.427 0 01.95 0 177.66 177.66 0 011.034 0c.257 0 .524.02.723.204a.785.785 0 01.219.602 25.297 25.297 0 010 .212v1.404a294.14 294.14 0 01.001.907v.086c.002.269.001.583-.198.79-.228.202-.452.26-.751.258H19.25a92.852 92.852 0 00-.984-.001 34.987 34.987 0 00-.447 0h-.088c-.26 0-.502-.032-.71-.204-.231-.246-.255-.502-.254-.824v-.597a157.108 157.108 0 010-.934 155.25 155.25 0 010-1.02c-.001-.272.042-.465.233-.668a.766.766 0 01.233-.155l.063-.027c.13-.042.267-.033.401-.033z"/><path fill="#F3972B" d="M20.037 3.865c.072.063.143.127.214.193l.047.043c.134.123.263.25.391.38l.065.066a51.236 51.236 0 01.36.364l.467.473a1162.791 1162.791 0 00.725.733l.136.138a95.326 95.326 0 01.15.15l.048.05c.042.041.086.078.133.115.085.08.085.08.105.142l.071.036c.03.027.06.056.088.085l.025.024.05.052.08.08c.127.13.127.13.127.15l-.067-.007-.091-.01-.04-.005c-.16-.017-.32-.015-.48-.015h-.661a779.282 779.282 0 00-1.038 0h-.201a3577.001 3577.001 0 00-3.6 0h-.201a1437.782 1437.782 0 01-1.68 0c-.219 0-.435.008-.653.038.09-.11.19-.21.29-.311.075-.074.148-.15.222-.224l.065-.065.034-.035.788-.797a1316.186 1316.186 0 001.334-1.35c.115-.115.23-.23.354-.336l.067-.061c.217-.192.46-.363.742-.431l.046-.012a1.676 1.676 0 011.488.347z"/><path fill="#0ACBE5" d="M14.053 7.644c.026.052.011.088.002.145-.016.11-.024.219-.029.33l-.002.052c-.01.253-.012.507-.015.76l-.002.136a162.792 162.792 0 00-.008 2.635v2.235L14 16.32l-.04-.042a3.096 3.096 0 00-.133-.124 4.444 4.444 0 01-.213-.205l-.042-.042a17.236 17.236 0 01-.095-.096l-.049-.05-.025-.025a.927.927 0 00-.112-.1l-.029-.023-.053-.053a35.394 35.394 0 00-.174-.175l-.051-.051-.028-.028a1856.788 1856.788 0 01-.988-.992l-.316-.318-.167-.168-.158-.158-.057-.057a5.21 5.21 0 01-.293-.314l-.048-.055a1.901 1.901 0 01-.493-1.425c.049-.461.282-.833.608-1.15l.153-.154.256-.262.034-.033.111-.113.08-.08a172.501 172.501 0 01.445-.447 763.196 763.196 0 01.921-.924l1.01-1.012z"/><path fill="#F23A2A" d="M23.787 7.608a.415.415 0 01.134.093l.037.037.04.04.041.041.138.138a430.998 430.998 0 00.323.321l.257.257.44.438a92.244 92.244 0 00.387.385l.173.173.09.09.133.132.04.04c.073.072.146.14.223.206.055.048.106.098.157.15l.033.032.069.068.104.104c.107.107.213.214.311.33l.08.086a2.085 2.085 0 01.224.296c.109.166.187.331.248.519l.018.055c.115.39-.011.826-.197 1.174a2.15 2.15 0 01-.123.202l-.025.035c-.095.127-.207.24-.316.355L25.13 15.1l-.609.616-.16.16-.28.265-.205.178.004-.05c.013-.19.017-.38.016-.572v-.373l.001-.295v-1.047l.001-1.116v-1.49a1013.855 1013.855 0 00.002-1.904V8.246c.002-.223-.012-.433-.113-.638z"/><path fill="#179987" d="M23.356 16.896a.348.348 0 01-.11.14c-.288.254-.557.528-.827.802l-.168.168-.293.296a40.096 40.096 0 01-.19.192l-.167.169-.071.073-.105.105-.032.033a2.717 2.717 0 01-.08.076s-.113.12-.156.162l-.026.026-.087.087-.06.06-.127.128-.162.162a36.94 36.94 0 01-.125.126l-.059.06c-.384.385-.85.767-1.42.771h-.137c-.725-.01-1.186-.47-1.67-.956a37.867 37.867 0 00-.127-.127c-.38-.38-.38-.38-.387-.531a12.489 12.489 0 01-.001-.132v-.529l-.001-.161v-.078c-.001-.193.005-.372.1-.545l.018-.034c.15-.264.393-.409.678-.49.08-.01.156-.011.236-.01a14.76 14.76 0 01.252 0l.2-.001h2.493l.53-.001h.233a197.654 197.654 0 011.083 0h.276c.12-.001.233-.012.35-.033a.756.756 0 01.139-.008z"/></g></svg>