<svg xmlns="http://www.w3.org/2000/svg" width="38" height="24" fill="none" aria-labelledby="pi-pfpay" role="img" viewBox="0 0 38 24"><title id="pi-pfpay">PostFinance Pay</title><path fill="#FC0" d="M0 0h38v24H0z"/><path fill="#000" d="m11.84 15.9.67-3.02h2.59l.3-1.48h-2.58l.4-1.86h2.72l.34-1.48h-4.5l-1.7 7.85h1.76Zm-6-2.39h.75c2.42 0 3.76-1.15 3.76-3.09 0-1.44-1.05-2.36-2.84-2.36H5.3L3.6 15.9h1.72l.52-2.4Zm.3-1.44L6.7 9.5h.72c.8 0 1.18.32 1.18 1.05 0 .94-.61 1.53-1.74 1.53h-.72Zm12.67 3.85h-1.28l1.58-7.86h1.44c.37 0 .74.03 1.09.08.35.07.66.17.93.33s.48.36.65.63c.17.26.25.6.25 1 0 .48-.08.89-.25 1.23-.16.35-.4.63-.7.85s-.65.39-1.07.5c-.46.1-.93.15-1.4.15h-.29c-.1 0-.2 0-.33-.02l-.62 3.1Zm.8-4.17.27.02h.24c.62 0 1.12-.12 1.48-.35.37-.23.56-.64.56-1.22a1 1 0 0 0-.13-.53.94.94 0 0 0-.36-.34 1.9 1.9 0 0 0-.57-.18 6 6 0 0 0-.75-.05h-.22l-.51 2.65Zm6.52 3.97a2.2 2.2 0 0 1-1.03.25 1.8 1.8 0 0 1-1.26-.45c-.33-.29-.49-.7-.49-1.2 0-.37.1-.7.26-.96s.4-.47.67-.63c.29-.16.61-.28.98-.35a6.2 6.2 0 0 1 2-.07c.03-.13.04-.26.04-.4 0-.32-.1-.57-.32-.73a1.4 1.4 0 0 0-.89-.26 3.75 3.75 0 0 0-1.72.44l.23-1.12a5 5 0 0 1 1.64-.28c.7 0 1.23.16 1.61.47s.57.77.57 1.37c0 .24-.03.55-.1.92l-.2 1.1-.15.67-.09.52c-.02.15-.04.3-.04.43v.45H26.8l.04-.49.07-.48h-.03c-.19.36-.44.63-.76.8Zm1-2.56a5.8 5.8 0 0 0-1.66.05c-.29.06-.5.15-.68.25a1 1 0 0 0-.38.38 1 1 0 0 0-.1.48c0 .26.08.47.25.61a1 1 0 0 0 .66.21 1.8 1.8 0 0 0 1.25-.58c.17-.19.31-.4.42-.64.12-.23.2-.49.24-.76m3.7-2.98c.1.73.18 1.42.24 1.99l.16 1.35.08.74.03.36h.03l.1-.22c.02-.09.08-.2.15-.34l.27-.55.41-.82.59-1.17.7-1.35h1.27l-3.26 5.95a6.8 6.8 0 0 1-1.14 1.58c-.2.17-.4.3-.63.38a2.2 2.2 0 0 1-1.17.1c-.14-.02-.3-.07-.41-.1l.2-1.02c.1.04.2.06.29.07l.26.02c.32 0 .6-.1.81-.3.23-.21.44-.52.64-.95l-.88-5.72h1.27Z"/></svg>