<svg width="38" height="24" role="img" viewBox="0 0 38 24" xmlns="http://www.w3.org/2000/svg" aria-labelledby="pi-philippines_bt"><title id="pi-philippines_bt">philippines_bt</title><title>Layer 1</title><path opacity=".07" d="M35 0H3C1.3 0 0 1.3 0 3v18c0 1.7 1.4 3 3 3h32c1.7 0 3-1.3 3-3V3c0-1.7-1.4-3-3-3z" id="svg_1"/><path fill="#fefffc" d="M34.877.877c1.1 0 2 .9 2 2v18c0 1.1-.9 2-2 2h-32c-1.1 0-2-.9-2-2v-18c0-1.1.9-2 2-2h32" id="svg_2" stroke="null"/><g stroke="null"><g stroke="null" id="svg_19" fill-rule="evenodd"><path fill="#eae8e5" d="M6.36 7.542c-.017.015-.03.02-.03.012 0-.027-.043-.018-.059.012-.013.025-.008.03.044.038.055.009.152.073.136.09a1.46 1.46 0 01-.251.012c-.026-.002-.034-.013-.038-.05-.006-.064-.167-.083-.183-.022-.015.055-.01.066.032.076.119.03.107.084-.02.084-.104 0-.133-.022-.1-.074.012-.02.01-.026-.014-.028-.017-.001-.024.005-.018.015.007.01.003.012-.011.003-.032-.02-.133-.019-.15.003-.025.03-.001.08.043.09.102.024.106.075.007.084-.096.008-.124 0-.124-.039 0-.05-.017-.062-.101-.065-.055-.002-.078.002-.075.015.002.01-.005.016-.016.014-.01-.002-.018.012-.018.031 0 .032-.006.035-.074.032a.223.223 0 00-.094.012c-.015.01-.012.012.01.006.028-.009.028-.008.004.011a.081.081 0 00-.027.057c0 .02-.005.029-.011.02-.016-.02-.142-.025-.13-.003.007.01.002.012-.016.006-.021-.008-.025-.004-.019.02.01.04-.019.06-.078.05-.037-.005-.047-.002-.038.011.007.012.005.015-.005.009-.024-.015-.066.006-.057.03.01.024-.02.044-.057.037-.017-.002-.024.002-.018.012.006.009.003.016-.006.016-.008 0-.016.016-.016.034 0 .029-.008.034-.056.036-.106.004-.126.01-.119.039.005.019-.007.033-.044.05-.03.015-.051.036-.051.052 0 .019-.015.03-.049.037-.09.018-.103.025-.116.06-.01.024-.028.037-.056.04-.024.003-.043.015-.044.028l-.004.041c0 .01-.022.02-.047.02-.04 0-.045.004-.045.044 0 .043-.022.056-.079.047-.006 0-.011.019-.011.043 0 .04-.005.045-.045.045s-.045.006-.045.046-.005.045-.045.045-.045.005-.045.044c0 .036-.007.045-.04.049-.03.003-.042.014-.046.041-.007.046-.01.05-.053.052-.027.001-.035.012-.039.05-.003.03-.011.045-.023.04-.04-.015-.073.032-.075.104-.002.066-.005.07-.044.07-.034 0-.043.009-.05.044-.006.03-.02.047-.044.053-.02.005-.035.02-.035.035 0 .014-.003.04-.007.056a.341.341 0 00-.01.057c0 .014-.01.026-.024.026-.03 0-.07.04-.06.06.006.007-.011.033-.036.055-.026.023-.043.05-.039.06.004.012 0 .02-.009.02-.01 0-.013.02-.01.045.005.029 0 .046-.01.046-.035 0-.069.057-.077.13-.006.056-.018.081-.052.111-.042.037-.044.045-.044.16v.12l-.043.01c-.024.004-.044.017-.043.028 0 .01 0 .072-.002.136l-.002.116h-.086l-.003.137c-.003.13-.005.14-.047.181l-.043.044v.97c-.001.557.004.966.012.961.007-.005.012.003.011.018-.001.016.01.028.032.03.032.005.034.012.034.152 0 .081.005.152.011.158a.045.045 0 01.011.028c0 .009.01.019.023.022.02.006.02.005 0-.01-.013-.008-.016-.015-.007-.016.038 0 .052.04.052.154 0 .087.005.116.018.108.011-.008.014-.003.008.014-.006.013-.005.024 0 .023.057-.009.064.002.064.09 0 .108.02.167.06.178.022.005.03.021.032.055a.504.504 0 00.011.103c.002.018.015.027.04.027.032 0 .038.006.038.05 0 .027.004.055.01.06.007.007.012.023.012.037 0 .014.008.024.017.022.025-.005.054.035.056.075.002.025.013.035.043.038.04.005.042.01.042.077 0 .073.023.112.061.103.012-.002.023.015.028.041.007.035.018.046.05.05.026.003.042.014.042.03.005.115.022.158.06.149.021-.006.03 0 .03.02 0 .015.006.031.015.037.008.005.011.015.006.023-.005.008.008.014.028.014.034 0 .063.04.057.08 0 .005.004.01.01.009.042-.007.062.006.071.046.007.033.02.045.05.048.031.004.041.014.045.046.004.035.012.042.048.042.036 0 .044.007.048.041.003.032.013.042.046.046.035.004.041.012.041.049 0 .039.005.044.045.044s.045.005.045.044c0 .036.008.045.045.054.035.007.046.018.046.044s.01.037.044.043c.03.007.045.02.048.044.004.024.017.035.044.038.026.004.043.019.055.05.01.029.027.044.048.044.017 0 .046.017.064.037.018.021.059.045.09.054.035.009.057.024.057.038 0 .014.007.018.018.012.012-.008.014-.003.008.014-.008.02 0 .025.035.025.03 0 .045.008.045.022 0 .023.061.072.084.066.03-.006.092.032.1.061.006.022.021.032.05.034.024 0 .05.003.059.005a.32.32 0 00.04.006c.014 0 .027.016.03.035.004.029.018.036.09.047.065.01.088.022.1.047.016.036.078.052.193.052.05 0 .07.009.094.04.017.022.031.035.031.028 0-.006.01-.003.021.006.012.01.027.017.034.016.07-.013.15.004.163.034.025.056.075.058 1.341.052 1.366-.006 1.267-.002 1.267-.05 0-.033.006-.035.094-.037a1.178 1.178 0 00.148-.01c.014-.002.03-.02.034-.04.009-.036.016-.038.1-.038.049 0 .09-.006.09-.014 0-.007.012-.01.027-.006.018.004.032-.006.044-.032.014-.03.029-.039.07-.039.029 0 .056-.006.06-.014.006-.008.02-.01.031-.006.014.005.025-.005.031-.03.008-.031.02-.038.092-.047.064-.008.08-.015.074-.032-.005-.013-.002-.018.006-.013.009.005.015 0 .015-.013 0-.015.025-.025.077-.033.067-.009.08-.016.094-.054.011-.03.026-.043.052-.043a.16.16 0 00.12-.062c.01-.016.03-.028.042-.028.012 0 .034-.02.048-.045.015-.027.04-.046.063-.048.025-.003.04-.017.045-.041.006-.025.02-.037.043-.04.039-.002.066-.034.055-.063-.004-.011.007-.019.028-.019.04 0 .07-.026.07-.063 0-.016.01-.027.027-.027.037 0 .063-.029.063-.07 0-.027.008-.035.038-.035s.04-.01.047-.045c.007-.038.016-.045.052-.045.038 0 .043-.006.043-.045 0-.04.005-.045.045-.045s.045-.006.045-.044c0-.036.008-.044.045-.052.036-.007.046-.017.046-.046 0-.029.008-.038.04-.042.033-.003.043-.013.047-.045.004-.03.014-.041.045-.045.031-.003.041-.014.045-.045.004-.031.014-.041.045-.045.032-.004.042-.014.045-.046.003-.024.014-.041.028-.041.012 0 .018-.007.013-.015-.005-.008 0-.011.012-.007.022.009.04-.048.04-.122 0-.027.01-.036.042-.04.032-.003.042-.013.046-.045.003-.029.015-.044.04-.05.037-.01.052-.045.052-.122 0-.041.007-.049.042-.053.039-.004.042-.01.046-.09.004-.08.007-.086.045-.09.043-.005.043-.006.046-.11.002-.06.005-.066.043-.07.041-.005.042-.006.046-.136.004-.13.005-.13.045-.135.04-.005.04-.006.045-.136.004-.12.007-.132.034-.132.016 0 .03-.007.03-.016 0-.009.006-.011.015-.006.01.006.014-.04.014-.127 0-.131 0-.136-.036-.145-.072-.018-.099.014-.099.12 0 .096-.032.149-.055.09-.014-.037.01-.252.03-.265.01-.006.012-.011.004-.011-.007 0-.001-.014.014-.03.02-.023.03-.068.038-.174.015-.193.052-.206.073-.026.011.096.023.124.054.124.01 0 .023.009.027.019.005.015.012.014.028-.002.017-.018.017-.02-.002-.009-.02.011-.02.01-.003-.011.014-.017.018-.079.017-.218l-.002-.193-.042.002c-.057.004-.058-.014-.055-.652.003-.543.004-.55.07-.533.026.007.028-.005.025-.185l-.003-.193h-.036c-.033 0-.04.01-.058.097-.037.172-.089.167-.092-.01-.003-.124.01-.167.05-.162.04.004.04.003.046-.161l.005-.13-.044-.007c-.043-.006-.089.078-.089.163 0 .064-.044.027-.053-.044-.017-.135-.007-.168.048-.168h.047v-.109c0-.06-.006-.105-.013-.1-.008.004-.014 0-.014-.009 0-.054-.067-.003-.078.06-.023.136-.079.139-.08.004 0-.083.002-.086.046-.093.042-.008.045-.012.05-.09.005-.095-.007-.156-.028-.143-.008.005-.015.001-.015-.007 0-.009-.01-.016-.023-.016-.014 0-.023-.016-.024-.042-.004-.089-.006-.102-.018-.12a.03.03 0 00-.035-.012c-.027.01-.047-.042-.042-.11.004-.044-.002-.053-.04-.067-.043-.016-.05-.03-.044-.096.002-.02-.008-.038-.022-.044-.018-.007-.02-.012-.007-.02.012-.008.002-.016-.028-.022-.032-.007-.043-.017-.038-.032.011-.028-.023-.07-.05-.06-.017.007-.044-.024-.048-.055l-.003-.023V9.3c.003-.024-.006-.037-.028-.043-.018-.005-.042-.031-.054-.06-.017-.042-.028-.052-.052-.045-.029.007-.037-.004-.031-.046.001-.01-.005-.019-.014-.019-.01 0-.013-.007-.008-.015.006-.009-.01-.015-.038-.015-.035 0-.045-.006-.04-.021.005-.012-.004-.033-.02-.048-.016-.014-.03-.02-.03-.014s-.01.003-.022-.008a.045.045 0 01-.014-.048c.007-.02.004-.027-.007-.02-.009.006-.016.002-.016-.008s-.005-.014-.01-.009c-.016.016-.068-.02-.06-.043.01-.027-.015-.045-.072-.05-.013 0-.02-.013-.016-.031.003-.017 0-.034-.009-.039-.007-.005-.014-.001-.014.007 0 .01-.013.003-.03-.014-.016-.016-.03-.034-.029-.038.002-.02-.065-.064-.086-.056-.018.007-.021.001-.014-.022.006-.018.003-.036-.006-.041a.019.019 0 01-.005-.026c.006-.011-.002-.014-.023-.008-.033.008-.073-.036-.065-.074.002-.009-.009-.016-.023-.016-.069 0-.082-.005-.074-.027.005-.012 0-.022-.01-.023-.011 0-.01-.005.004-.014.032-.02-.016-.037-.067-.024-.022.005-.038.003-.038-.006 0-.009-.013-.015-.03-.015-.021 0-.03-.01-.03-.037 0-.03-.006-.034-.032-.027-.022.006-.03.003-.022-.01.007-.01 0-.017-.017-.017-.02 0-.028-.01-.028-.033.001-.024-.007-.034-.028-.035a.118.118 0 01-.051-.013c-.013-.008-.025-.005-.034.008-.019.03-.016.055.004.028.013-.018.014-.018.007.005a.208.208 0 00-.01.035c0 .004-.006.003-.014-.002s-.015-.002-.015.007c0 .008.02.015.044.015.07 0 .091.015.091.062 0 .038-.006.044-.043.044-.044 0-.114-.048-.096-.067.016-.016-.029-.038-.08-.038-.031 0-.049-.01-.06-.034-.01-.025-.034-.038-.085-.048-.086-.017-.097-.055-.026-.092.045-.023.046-.025.023-.06-.017-.026-.018-.037-.005-.043.01-.004-.002-.005-.028 0-.038.004-.052-.002-.072-.032-.014-.02-.035-.037-.047-.037-.012 0-.022-.005-.022-.011 0-.007-.023-.012-.05-.013-.05-.001-.051 0-.045.047.009.062-.006.07-.1.058-.092-.012-.103-.05-.024-.087.034-.016.05-.033.046-.05a.453.453 0 01-.006-.046c0-.01-.008-.018-.017-.018-.009 0-.011.008-.005.018.008.013.003.013-.014-.001-.022-.018-.03-.018-.05 0-.018.014-.023.014-.015.001.006-.01.005-.018-.004-.018-.008 0-.011.022-.006.052l.008.053h-.218l.011-.042c.013-.05.008-.047.064-.051.035-.003.049-.012.054-.038.008-.043-.004-.056-.026-.026-.015.02-.02.02-.049-.007-.024-.023-.035-.025-.05-.012-.015.014-.017.013-.007-.003.009-.016.006-.02-.014-.012a.234.234 0 01-.03.01c-.002 0 0 .02.003.045l.006.046h-.114c-.084 0-.114-.006-.114-.02 0-.036.036-.07.077-.074.022-.001.038-.008.034-.013a.012.012 0 01.005-.017c.006-.004.004-.005-.005-.003-.02.004-.068-.047-.056-.059.004-.004-.02-.005-.055-.003-.034.003-.067.01-.073.016-.005.007 0 .007.01 0 .023-.013.011.047-.014.074a.926.926 0 01-.264.003c-.02-.02.028-.082.07-.09.04-.008.044-.013.028-.03-.029-.028-.118-.07-.118-.055 0 .007-.023.012-.052.01-.028 0-.048-.006-.044-.013.014-.022-.005-.012-.026.014-.014.017-.015.021-.002.014.012-.008.019-.002.019.018 0 .044-.008.044-.747.045-.776.001-.768.002-.76-.055.008-.052-.155-.062-.208-.014m2.27.093c0 .014.01.019.023.014.013-.005.019-.015.014-.022-.013-.021-.036-.016-.036.008m-3.046.297c.022.034.013.04-.07.051-.074.01-.1-.01-.08-.063.013-.032.128-.023.15.012m2.09-.017c.131.008.266.025.3.036.087.028.13.037.254.053.06.008.15.031.199.052.05.02.109.038.132.038.023 0 .084.02.135.043a.814.814 0 00.148.053c.03.006.064.02.074.032.01.013.054.033.097.046.043.012.09.036.105.051a.16.16 0 00.073.039.285.285 0 01.092.044c.025.018.06.038.078.044.018.005.058.03.089.055.03.024.064.044.074.044.01 0 .03.013.045.03a.373.373 0 00.084.06c.032.016.07.041.086.056a5.522 5.522 0 01.316.266c.076.067.179.172.254.257.043.05.11.124.148.165.038.041.087.1.108.132.02.03.043.056.049.056.006 0 .026.029.043.064.033.064.079.135.136.21.018.022.04.062.049.09.01.027.028.057.042.067.014.01.034.049.045.086a.24.24 0 00.046.092.16.16 0 01.038.073c.006.026.03.083.053.128a.378.378 0 01.043.111c0 .017.016.058.036.092.02.034.044.105.054.16.01.053.03.113.042.133.012.02.035.117.051.217.017.1.037.193.045.209a.34.34 0 01.014.113l.008.447c.008.366-.003.544-.045.738a3.54 3.54 0 00-.04.215.641.641 0 01-.036.15.889.889 0 00-.046.162.943.943 0 01-.061.193.346.346 0 00-.037.1c0 .015-.02.066-.045.112a.427.427 0 00-.045.109c0 .013-.02.055-.045.092a.28.28 0 00-.045.093c0 .013-.016.044-.035.067a.535.535 0 00-.063.107c-.015.035-.032.063-.038.063-.005 0-.022.028-.037.061a.242.242 0 01-.044.072.936.936 0 00-.09.12c-.04.061-.091.13-.113.153a8.41 8.41 0 00-.121.136 4.455 4.455 0 01-.556.533l-.1.083a.537.537 0 01-.083.054.65.65 0 00-.086.053c-.034.027-.114.028-2.219.028H5.146l-.08-.052c-.155-.101-.183-.121-.235-.17a2.617 2.617 0 01-.306-.268 5.55 5.55 0 01-.381-.42 2.416 2.416 0 01-.15-.204 4.864 4.864 0 00-.078-.116c-.108-.158-.103-.168.153-.303.033-.017.104-.058.157-.091.054-.033.121-.07.15-.084a.63.63 0 00.099-.06.194.194 0 01.063-.036.829.829 0 00.134-.077c.111-.073.163-.103.343-.201a.624.624 0 00.083-.05.481.481 0 01.075-.044c.06-.03.221-.122.355-.202.024-.014.07-.04.104-.056a.873.873 0 00.111-.068.26.26 0 01.063-.038c.006 0 .068-.035.136-.077.07-.042.146-.087.17-.098a2 2 0 00.143-.08c.094-.057.21-.123.332-.19a.7.7 0 00.077-.047.965.965 0 01.095-.057 16.266 16.266 0 00.43-.243c.033-.018.078-.044.1-.059.023-.015.068-.041.1-.059.034-.017.091-.049.129-.07l.157-.087a.634.634 0 00.098-.06.46.46 0 01.083-.051c.274-.146.287-.176.114-.254a.5.5 0 01-.083-.044 1.897 1.897 0 00-.242-.137.393.393 0 01-.095-.06.13.13 0 00-.062-.032.15.15 0 01-.068-.038.239.239 0 00-.073-.047.516.516 0 01-.092-.052.335.335 0 00-.078-.043.257.257 0 01-.069-.038 1.996 1.996 0 00-.185-.107 1.511 1.511 0 01-.157-.089.374.374 0 00-.074-.045.472.472 0 01-.088-.054c-.011-.012-.03-.021-.04-.021a.335.335 0 01-.093-.05 1.368 1.368 0 00-.11-.068c-.021-.01-.076-.04-.123-.067a13.252 13.252 0 00-.16-.09.4.4 0 01-.085-.054.38.38 0 00-.088-.054 1.581 1.581 0 01-.236-.136.176.176 0 00-.062-.03.186.186 0 01-.07-.037.504.504 0 00-.095-.06 2.82 2.82 0 01-.164-.091 2.238 2.238 0 00-.15-.083.574.574 0 01-.089-.054.634.634 0 00-.098-.058 2.06 2.06 0 01-.166-.097.812.812 0 00-.119-.068.215.215 0 01-.06-.035.677.677 0 00-.1-.06c-.076-.037-.15-.108-.15-.146 0-.032.217-.257.362-.375l.089-.076a.641.641 0 01.08-.058c.03-.019.056-.04.056-.045 0-.006.028-.027.064-.047a.511.511 0 00.071-.044c.018-.023.193-.133.226-.144a.285.285 0 00.078-.045.249.249 0 01.09-.045.168.168 0 00.074-.037.33.33 0 01.105-.052.474.474 0 00.116-.055.138.138 0 01.07-.029c.04 0 .137-.038.15-.058a.327.327 0 01.11-.031.687.687 0 00.16-.048.648.648 0 01.172-.044c.11-.013.157-.023.275-.059.127-.038.627-.053.98-.03m1.722.114c0 .035-.006.04-.052.04-.133 0-.17-.026-.095-.065.093-.05.147-.04.147.025m-4 .008c.003.017-.01.027-.047.034-.065.012-.1-.001-.1-.038 0-.04.139-.036.147.004m4.186.025c-.021.014-.008.108.015.108.058 0 .083-.02.081-.06 0-.024-.007-.04-.014-.036-.007.004-.012 0-.012-.008 0-.018-.045-.02-.07-.004m-4.364.055c.015.019.012.025-.022.038-.073.028-.113.02-.113-.022 0-.045.101-.056.135-.016m-.15.097c0 .021-.014.03-.056.035-.067.009-.092-.007-.065-.04.03-.035.121-.031.121.005m-.15.091c0 .02-.014.033-.038.04-.054.013-.082-.002-.072-.039.011-.044.11-.045.11 0m5.08.044c0 .007-.016.016-.034.018l-.034.005.033.033c.021.022.026.035.015.04-.01.004.008.004.04.001.052-.006.059-.002.074.039.016.042.047.055.117.048.004 0 .005.018.002.04-.005.038 0 .044.04.052.032.006.046.019.05.043.003.025.016.036.046.04.034.004.041.012.041.048 0 .038.006.045.039.045.03 0 .043.01.056.045.01.026.032.05.05.054a.052.052 0 01.038.04c.004.024.017.035.046.038.031.004.042.013.042.038 0 .03.029.094.03.066 0-.027.06.023.06.05 0 .02.015.036.042.046.024.008.044.023.044.033.001.01.005.031.01.048a.379.379 0 01.008.046c0 .01.018.024.038.034.029.013.038.028.038.062 0 .04.005.046.044.046.044 0 .061.021.061.078 0 .016.017.043.038.06.028.022.037.043.037.087 0 .052.005.059.042.063.05.006.065.15.016.16-.026.005-.033-.011-.05-.106-.007-.043-.016-.057-.038-.057-.028 0-.04-.024-.05-.098-.003-.016-.019-.036-.036-.044-.035-.016-.064-.068-.064-.114 0-.02-.01-.03-.03-.03-.031 0-.04-.012-.048-.067-.003-.018-.02-.033-.042-.038-.028-.005-.039-.018-.043-.049a.12.12 0 00-.047-.073.215.215 0 01-.061-.075c-.01-.024-.025-.043-.034-.043-.025 0-.07-.047-.07-.074 0-.013-.016-.03-.034-.039a.071.071 0 01-.04-.048c-.002-.02-.014-.034-.03-.034-.036 0-.062-.03-.062-.07 0-.028-.008-.035-.039-.035-.026 0-.041-.01-.047-.031-.004-.017-.03-.04-.059-.052-.028-.012-.05-.031-.05-.044 0-.012-.024-.034-.053-.047-.029-.014-.053-.036-.053-.05 0-.026-.063-.062-.108-.062-.018 0-.027-.011-.027-.037 0-.03-.008-.037-.049-.041-.08-.008-.08-.083 0-.091l.076-.009c.01-.001.018.004.018.012m-5.2.045c0 .02-.014.031-.046.039-.027.005-.052.024-.061.044-.016.035-.07.068-.111.068-.012 0-.022.013-.022.028 0 .029-.033.052-.074.054-.012 0-.026.018-.031.038-.007.027-.022.04-.053.045-.035.006-.046.017-.05.048-.003.031-.013.042-.045.045-.031.004-.042.015-.048.05-.004.025-.017.046-.03.047l-.04.004c-.01 0-.02.02-.022.043-.004.032-.014.042-.046.046-.03.004-.041.014-.045.045-.003.03-.014.042-.04.045-.046.007-.04-.058.009-.08a.084.084 0 00.041-.048.078.078 0 01.043-.048.126.126 0 00.054-.052c.012-.021.033-.043.048-.047a.061.061 0 00.036-.036.1.1 0 01.044-.046.139.139 0 00.052-.055c.01-.024.029-.036.054-.036.03 0 .038-.007.038-.037s.01-.04.049-.05c.03-.008.05-.023.054-.042.007-.035.029-.05.073-.05.024-.001.034-.01.034-.032 0-.032.043-.057.102-.058.023-.001.033.007.033.028m-.802.713c.012.032-.022.088-.048.078-.013-.005-.026.003-.031.018-.023.068-.043.106-.052.1-.015-.01-.073.075-.073.105 0 .014-.013.024-.031.024-.057 0-.021-.127.038-.138.02-.004.032-.02.035-.047.003-.029.015-.043.041-.05.02-.005.037-.019.037-.03 0-.063.065-.109.084-.06m-.283.4c-.008.033-.024.06-.036.06-.022 0-.066.075-.066.113 0 .05-.037.01-.042-.043-.004-.047 0-.057.034-.07.021-.008.038-.026.038-.041 0-.04.043-.094.067-.085.015.006.017.02.005.067m-.184.298c-.014.081-.053.085-.053.004 0-.06.026-.102.05-.08.007.008.009.042.003.076m-.095.175c-.004.08-.013.099-.034.066-.028-.044-.012-.156.021-.145.01.004.016.035.013.079m.492.125c.007.125.016.173.035.194.027.03.033.158.012.251-.021.096.018.147.147.193.123.044.218.052.25.022a.516.516 0 01.05-.041c.037-.025.044-.06.012-.06-.031 0-.042-.065-.016-.091.027-.027.051-.001.052.056 0 .049.041.043.072-.01.014-.026.034-.046.044-.046.01 0 .03-.019.045-.041.124-.192.311-.29.341-.178.016.059.015.06-.08.166a.959.959 0 01-.181.158c-.008 0-.02.017-.024.037-.007.025-.024.04-.053.046-.04.009-.06.047-.036.07.02.02.11-.023.12-.058.005-.024.022-.039.052-.044.029-.006.046-.02.052-.044.014-.055.129-.067.149-.015.01.025-.172.143-.222.143-.032 0-.039.007-.039.04 0 .04-.044.044-.17.012-.043-.01-.044-.01-.037.04a.265.265 0 01-.004.093c-.01.032-.002.068.028.145.071.176.07.174.215.17a.67.67 0 01.194.018c.037.012.148.026.248.032.207.012.248.029.248.103 0 .078-.054.098-.266.1a2.09 2.09 0 00-.26.016c-.046.008-.132.02-.192.026-.11.012-.152.037-.154.092a.41.41 0 01-.036.096c-.027.056-.033.084-.023.117a.262.262 0 01.003.095c-.009.056.006.066.054.035.04-.025.133-.003.145.033.006.02.023.03.052.03.023 0 .05.01.06.022.01.012.048.039.084.06.076.045.082.062.03.086-.046.02-.113-.004-.113-.04 0-.012-.024-.033-.053-.045a.15.15 0 01-.07-.06c-.024-.052-.108-.057-.1-.005.003.02.018.036.042.042.023.005.04.02.042.04.003.02.022.039.05.048.024.009.043.026.043.038 0 .013.019.033.042.045.17.09.218.295.07.295-.03 0-.157-.106-.157-.132 0-.01-.014-.025-.03-.03a.11.11 0 01-.05-.05.126.126 0 00-.051-.051c-.019-.008-.034-.021-.034-.029 0-.064-.088-.085-.1-.024-.011.058-.03.07-.05.032-.018-.034-.007-.071.023-.083.04-.015.023-.051-.03-.069-.03-.01-.053-.027-.053-.039 0-.039-.13-.017-.287.049a.144.144 0 00-.088.173c.024.084.017.224-.012.256-.02.022-.028.067-.034.19-.01.181-.03.233-.1.247-.082.015-.112-.05-.1-.223a1.408 1.408 0 00-.017-.276 2.142 2.142 0 01-.024-.211c0-.045-.013-.078-.053-.133a1.21 1.21 0 00-.262-.078c-.1 0-.123-.496-.038-.804.011-.041.031-.146.045-.233a.802.802 0 01.09-.307c.025-.05.043-.065.096-.082a.17.17 0 00.122-.169c0-.03.007-.09.016-.135a3.48 3.48 0 00.03-.223c.012-.115.022-.15.05-.18a.688.688 0 00.061-.082c.047-.075.072-.025.083.17m7.365-.176c-.001.107-.046.173-.066.098-.02-.078-.012-.116.028-.116.02 0 .038.008.038.018m-7.21.173c.01.05-.016.184-.035.184-.044 0-.057-.126-.02-.196.026-.052.044-.048.056.012m-.727.022a.23.23 0 01-.016.067l-.017.043-.019-.045c-.019-.044-.016-.074.012-.11.018-.023.04.002.04.045m8.023.052c.003.061 0 .078-.021.086-.035.014-.05-.015-.051-.09 0-.117.065-.114.072.004m-8.121.193c-.008.038-.02.07-.029.072-.022.004-.027-.123-.006-.149.032-.039.05 0 .035.077m1.384.012c-.01.037-.03.065-.049.072-.016.006-.037.032-.046.058-.017.048-.058.062-.073.023-.011-.03.024-.115.058-.14.015-.01.027-.027.027-.036 0-.037.047-.07.074-.054.024.015.025.024.009.077m-1.474.185a.308.308 0 01-.018.146c-.012.022-.033-.025-.033-.075 0-.083.03-.125.05-.07m-.09.255a.756.756 0 01-.017.23c-.012.035-.03-.037-.032-.13-.002-.11.025-.164.05-.1m3.996.353c.006.026.01.068.01.094 0 .064.012.078.093.114.107.047.123.125.03.15-.1.027-.123.053-.123.14 0 .136-.08.147-.168.023-.035-.05-.132-.059-.19-.019-.059.042-.097-.067-.04-.114.058-.048.057-.178 0-.2-.025-.01-.03-.08-.009-.114.01-.016.02-.017.034-.005.053.043.176.04.202-.007.022-.037.113-.106.143-.108.005 0 .013.02.018.046m-1.892.03c.078.036.022.073-.11.073-.087 0-.157-.034-.105-.051.018-.006.137-.033.166-.037.006-.001.028.006.049.015m-2.202.76c-.002.46-.006.628-.017.59-.04-.137-.03-1.232.011-1.232.004 0 .006.29.006.643m2.219-.305c.067.05-.024.078-.168.052-.132-.023-.14-.027-.105-.053.04-.029.233-.029.273 0m-.648.758c.005.024.025.05.043.059.05.023.075.113.037.137-.036.022-.065.003-.078-.052-.005-.02-.017-.036-.025-.036-.017 0-.06-.091-.06-.128 0-.045.073-.027.083.02m-.904.202c.01.077-.009.231-.032.254-.043.043-.06-.167-.024-.299.014-.05.046-.025.056.045m.424.057c.015.047.01.181-.006.198-.02.02-.062-.08-.062-.145 0-.074.05-.112.068-.053m-.996.27c.007.104.002.14-.02.126a.366.366 0 01-.014-.13c0-.144.023-.141.034.003m.095.276c.012.05.002.138-.016.134-.02-.005-.029-.17-.009-.17.009 0 .02.017.025.036m8.287.254c0 .049-.024.102-.046.102-.016 0-.019-.109-.004-.164.013-.049.05-.003.05.062m-8.198.04c.01.08-.001.125-.024.09-.017-.028-.017-.183 0-.172.008.005.018.042.024.083m8.093.187c0 .058-.007.083-.023.09-.023.009-.033-.096-.013-.148.019-.048.036-.02.036.058m-8 .054c.007.05.005.063-.012.057-.013-.004-.023-.034-.025-.08-.006-.093.025-.074.038.023m7.906.146c-.004.052-.011.072-.027.072-.018 0-.022-.014-.018-.06.01-.11.052-.12.045-.012m-7.82.004c.01.06-.001.103-.023.08a.313.313 0 01-.016-.129c.005-.034.03-.002.04.049m7.731.155c0 .063-.024.102-.043.072-.008-.012-.012-.029-.009-.038.003-.009.01-.035.014-.058.012-.054.039-.038.038.024m-7.641.027c.01.063.002.09-.022.065-.012-.012-.022-.082-.018-.115.005-.035.031-.003.04.05m7.551.123c0 .044-.022.077-.043.064-.022-.013-.021-.046.001-.082.022-.036.042-.026.042.018m-7.46.017c.016.063-.016.097-.037.039-.009-.027-.013-.055-.008-.062.015-.024.036-.014.045.023m7.376.082c.018.028-.022.122-.052.122-.033 0-.034-.001-.015-.048a.98.98 0 00.022-.06c.009-.029.032-.036.045-.014m-7.281.072c.014.032.014.042 0 .052-.03.017-.044.001-.044-.048 0-.055.02-.057.044-.004m7.185.1c0 .048-.038.081-.051.046-.013-.035.003-.08.03-.08.012 0 .021.014.021.035m-7.095.042c.007.035.02.051.042.055.02.002.038.021.048.048.008.025.024.045.035.046.01 0 .003.007-.017.015-.04.016-.06-.002-.061-.052 0-.015-.014-.03-.03-.035-.043-.011-.088-.108-.06-.125.027-.017.03-.012.043.048m7.014.066a.65.65 0 00-.018.06.065.065 0 01-.044.043c-.02.005-.04.026-.05.054-.009.025-.026.045-.038.045-.032 0-.044-.025-.017-.036.012-.004.023-.025.023-.046 0-.027.008-.038.027-.038.037 0 .063-.03.063-.071 0-.025.008-.035.031-.035s.03.007.023.024m-6.827.15c.023.032.024.038.004.046-.033.013-.054-.006-.054-.048 0-.046.015-.046.05.002m6.624.133c-.016.018-.077.017-.077-.002 0-.004.015-.023.034-.043.04-.041.08 0 .043.045m-6.528 0c-.009.026-.04.027-.05.003-.018-.046.008-.082.033-.047.012.016.02.036.017.044m6.449.065c-.004.03-.015.043-.04.047-.037.005-.042-.014-.014-.058.028-.045.06-.038.054.011m-6.37-.003c.015.017.016.028.003.04-.022.022-.064-.011-.053-.042.01-.027.027-.027.05.002m.094.13c-.027.027-.07-.014-.046-.043.015-.018.02-.018.04.002.018.018.02.027.006.04m6.185-.028a.043.043 0 01-.038.039c-.037.005-.046-.025-.016-.055s.06-.021.054.016m-6.098.08c.014.017.015.027.003.04-.022.022-.065-.012-.054-.042.011-.028.027-.027.051.002m6.011-.004c0 .028-.031.056-.063.056s-.035-.023-.008-.053c.023-.027.071-.029.071-.003m-.105.093c0 .032-.007.038-.045.038-.025 0-.045-.007-.045-.015 0-.009.009-.015.02-.015.012 0 .03-.01.04-.023.025-.03.03-.028.03.015m-5.786.022c0 .021-.035.028-.065.013-.022-.011-.024-.019-.01-.036.019-.022.075-.005.075.023m.102.076c.01 0 .018.007.018.015 0 .02-.086.02-.098 0-.022-.036.006-.067.036-.04.015.014.035.025.044.025m5.59-.012c-.002.02-.018.036-.042.042a.084.084 0 00-.052.04c-.025.057-.135.09-.125.039.003-.018.022-.028.054-.031.04-.004.048-.011.048-.042 0-.026.009-.036.03-.036.016 0 .038-.01.049-.022.028-.032.044-.028.039.01m-5.533.08a.085.085 0 00.051.022c.016 0 .03.01.03.023 0 .017-.011.02-.042.014-.073-.016-.079-.02-.079-.052 0-.036.01-.038.04-.008m.179.114c.005.01.003.024-.005.032-.019.019-.084-.012-.07-.034.011-.019.062-.018.075.002m5.108-.002c.012.02-.045.048-.074.037-.019-.007-.02-.014-.007-.03.02-.024.068-.028.081-.007m-4.992.088l.048.026-.058.005c-.065.005-.077-.001-.064-.035.01-.029.015-.029.074.004m4.873.017c-.005.009-.025.016-.044.016a.084.084 0 00-.051.018c-.014.014-.018.012-.018-.012 0-.02.015-.034.048-.045.052-.015.082-.005.065.023m-4.712.077c.019.012.02.017.002.028-.026.016-.111-.01-.099-.03.011-.018.069-.017.097.002m4.569-.001c0 .024-.053.045-.09.035-.033-.009-.034-.01-.007-.03.031-.023.097-.027.097-.005m-4.399.106c.022.02-.01.028-.064.017-.076-.016-.081-.052-.006-.039a.216.216 0 01.07.022m4.263-.017c0 .019-.1.051-.12.04-.029-.019-.015-.037.034-.042l.068-.009c.01-.001.018.004.018.011m-4.083.102c.027.016-.01.033-.054.026-.074-.013-.088-.02-.078-.037.009-.014.101-.006.132.011m3.91-.01c.012.018-.012.028-.078.033-.061.005-.07-.022-.012-.035.069-.015.08-.015.09.002m-3.704.106c0 .007-.007.016-.015.021-.018.012-.138-.02-.13-.034.01-.015.145-.003.145.013m3.458.009c-.052.022-.092.018-.092-.01 0-.008.032-.014.072-.014l.071.001-.05.023m-3.227.077c.023.014-.069.033-.111.024-.076-.016-.086-.024-.046-.036a.298.298 0 01.157.012m3.055-.002c.003.01-.013.021-.036.026-.05.01-.146-.012-.11-.026.071-.027.137-.027.146 0m-.221.088c0 .018-.024.022-.123.022-.143 0-.146-.025-.005-.034.05-.003.099-.006.109-.008.01-.001.019.007.019.02m-2.525.007c.019.012.018.015-.007.017a.722.722 0 01-.225-.018c-.02-.019.203-.017.232.001m.368.088c.028.017-.09.032-.176.023-.089-.01-.113-.028-.053-.04a.812.812 0 01.23.017m1.759-.013c.068 0 .036.027-.043.036-.083.01-.202-.01-.161-.025a.418.418 0 01.147-.016.294.294 0 00.057.005m-.433.09c.02 0 .03.007.026.016-.012.02-1.145.02-1.157 0-.013-.02.685-.031 1.131-.017" id="svg_24"/><path fill="#cc1424" d="M8.089 11.498c0 .013-.032.038-.072.057a.494.494 0 00-.079.042.478.478 0 01-.075.043.576.576 0 00-.097.06.211.211 0 01-.068.039.194.194 0 00-.06.03.726.726 0 01-.09.056c-.038.02-.112.062-.166.093a14.66 14.66 0 01-.157.09 7.55 7.55 0 00-.15.088c-.05.03-.125.071-.166.093a3.079 3.079 0 00-.158.091 2.218 2.218 0 01-.135.078c-.03.015-.08.044-.113.064-.033.02-.078.048-.1.06a11.722 11.722 0 00-.276.157l-.157.091a7.49 7.49 0 01-.166.094.396.396 0 00-.075.049.343.343 0 01-.075.045c-.08.04-.136.07-.218.12-.033.02-.087.05-.12.068a6.888 6.888 0 00-.158.09 17.054 17.054 0 00-.678.4.727.727 0 01-.09.05c-.028.012-.095.05-.149.083a3.183 3.183 0 01-.157.092c-.199.103-.226.125-.22.18.002.029.01.055.016.06.01.007.066.086.128.186a4.304 4.304 0 00.888.925c.005 0 .031.018.057.04.026.02.084.062.13.09l.082.051 2.172-.004 2.172-.004.054-.041a.231.231 0 01.07-.041.3.3 0 00.081-.054c.036-.03.084-.068.108-.086.21-.162.635-.6.761-.784l.087-.122a.454.454 0 00.049-.076c0-.004.015-.03.033-.055.034-.047.087-.142.148-.266a.597.597 0 01.052-.09.442.442 0 00.046-.105.365.365 0 01.037-.09.406.406 0 00.06-.15c0-.013.016-.055.036-.093a.61.61 0 00.051-.158.97.97 0 01.046-.166c.017-.043.037-.13.046-.195.008-.065.026-.162.039-.215.037-.156.057-.56.042-.835l-.013-.24-1.627-.004c-1.446-.003-1.626-.001-1.626.02" id="svg_23"/><path fill="#063cac" d="M7.007 7.958a.731.731 0 00-.126.03 1.91 1.91 0 01-.263.04c-.144.015-.228.03-.244.045a.519.519 0 01-.156.045.592.592 0 00-.171.051.4.4 0 01-.13.045c-.05.008-.092.023-.095.03-.008.023-.077.055-.142.067a.221.221 0 00-.094.045.207.207 0 01-.084.044.249.249 0 00-.091.047c-.025.02-.057.038-.071.038-.014 0-.049.02-.077.045-.027.025-.058.045-.068.045a.22.22 0 00-.072.041c-.03.023-.088.065-.13.094-.298.204-.657.556-.566.556.011 0 .037.016.057.036.02.019.058.042.085.052.028.01.07.034.095.055.025.02.052.038.06.038s.048.023.09.052a.363.363 0 00.096.053c.01 0 .027.01.037.022.01.012.055.039.1.06.045.02.081.043.081.05 0 .009.019.02.041.025a.298.298 0 01.088.046.68.68 0 00.097.06c.029.013.09.046.137.072l.162.09c.042.023.09.055.107.071.016.017.041.03.056.03a.23.23 0 01.085.045.245.245 0 00.078.045c.01 0 .038.016.06.035.024.019.067.044.096.055a.345.345 0 01.083.046.466.466 0 00.094.053c.035.015.063.033.063.04 0 .006.036.03.08.05.08.04.177.094.267.153a.23.23 0 00.068.034c.01 0 .029.013.043.03a.219.219 0 00.081.046.3.3 0 01.093.052.21.21 0 00.075.042.19.19 0 01.071.04.432.432 0 00.101.06c.038.016.068.035.068.041 0 .007.032.025.072.04.039.017.083.042.098.057s.037.028.05.028c.022 0 .088.037.122.07.01.01.034.023.052.028.018.006.06.03.092.054a.243.243 0 00.08.043c.011 0 .033.012.048.027s.057.04.094.054a.397.397 0 01.101.06l.035.032h3.086l.008-.06c.013-.11-.011-.321-.044-.376a.549.549 0 01-.045-.16.401.401 0 00-.044-.148.431.431 0 01-.05-.128.494.494 0 00-.052-.138.334.334 0 01-.043-.105.211.211 0 00-.037-.087.31.31 0 01-.047-.09.331.331 0 00-.055-.099c-.019-.021-.034-.05-.034-.063 0-.014-.02-.048-.044-.075a.279.279 0 01-.055-.091c-.005-.023-.018-.046-.028-.052a.334.334 0 01-.06-.071 1.44 1.44 0 00-.14-.196.192.192 0 01-.04-.063.07.07 0 00-.04-.042c-.016-.005-.03-.015-.03-.021 0-.01-.158-.185-.235-.261a1.475 1.475 0 00-.214-.191c-.007 0-.018-.014-.023-.03-.006-.017-.02-.03-.033-.03-.013 0-.041-.02-.063-.043a.383.383 0 00-.085-.066.31.31 0 01-.074-.055c-.015-.018-.037-.032-.048-.032-.01 0-.04-.02-.066-.045-.025-.025-.055-.045-.066-.045-.01 0-.038-.017-.06-.037a.222.222 0 00-.08-.047.213.213 0 01-.08-.044.28.28 0 00-.098-.05.218.218 0 01-.09-.048.171.171 0 00-.085-.04.33.33 0 01-.112-.045.43.43 0 00-.13-.051.384.384 0 01-.118-.045.464.464 0 00-.15-.045.69.69 0 01-.166-.044 1.05 1.05 0 00-.274-.053 1.624 1.624 0 01-.275-.048c-.065-.027-.595-.042-.74-.02m5.955 2.048l.003 1.312.188.004c.104.002.203 0 .222-.004l.034-.008v-.991l.59-.004.59-.004.004-.04c.004-.039.01-.042.09-.046.081-.004.086-.007.09-.046.004-.034.012-.041.05-.041.038 0 .043-.005.043-.044 0-.037.007-.045.042-.049.04-.005.041-.005.045-.135.005-.13.005-.13.045-.136l.041-.004.004-.246c.005-.256-.002-.288-.058-.288-.025 0-.028-.012-.028-.09v-.09h-.045c-.043 0-.046-.004-.046-.056 0-.113-.009-.124-.099-.124-.08 0-.08-.001-.08-.046s-.001-.045-.09-.045c-.086 0-.09-.001-.094-.04l-.005-.042-.77-.004-.77-.004.004 1.311m2.45 0l.003 1.312h.436l.004-.59.004-.59H17.046v.578c0 .445.004.58.018.59.023.014.435.026.486.013l.037-.01V8.696h-.541v1.082h-1.188V8.695h-.451l.004 1.311m2.635-1.287c-.012.033-.01 2.465.004 2.539l.01.06h.436l.004-1.312.003-1.31h-.223c-.19 0-.226.003-.234.023m.908 1.275c0 1.023.004 1.302.019 1.312.03.019 1.824.023 1.86.004.027-.014.03-.032.03-.18v-.165h-1.368v-2.27h-.54v1.3m2.272.011l.004 1.312h.436l.004-1.312.003-1.31h-.451l.004 1.31m.913-.004v1.308l.038.01c.052.012.468 0 .483-.015a5.37 5.37 0 00.017-.5l.005-.487h1.17v-.044c0-.043.002-.044.087-.049.081-.004.086-.007.09-.045.004-.031.015-.041.046-.045.038-.004.04-.01.045-.09.004-.084.005-.086.052-.09l.049-.005.004-.385c.004-.446-.002-.5-.061-.506-.034-.004-.041-.012-.041-.05 0-.038-.005-.043-.045-.043s-.045-.005-.045-.045-.005-.045-.045-.045-.046-.005-.046-.046v-.045h-.18v-.09H22.14v1.307m2.45 0v1.308l.037.009c.077.02.474 0 .49-.024.007-.013.013-.226.013-.5v-.477h1.174l.009-.044c.008-.041.014-.045.085-.049.067-.004.078-.009.085-.041a.06.06 0 01.045-.046c.04-.01.057-.048.059-.132.001-.041.007-.048.039-.048.052 0 .054-.017.05-.436l-.005-.368-.04-.005c-.039-.005-.041-.01-.046-.09-.004-.08-.006-.086-.044-.09-.032-.004-.042-.014-.046-.046-.003-.03-.013-.041-.044-.045-.03-.003-.042-.015-.048-.048-.009-.043-.012-.045-.099-.045-.086 0-.09-.001-.094-.041l-.005-.041-.808-.004-.807-.004v1.307m2.45 0v1.308l.036.009c.051.013.463.001.486-.014.014-.01.018-.288.018-1.31v-1.3h-.54v1.307m.909-1.243c-.014.096-.002 2.532.012 2.546.022.022.488.026.514.005.019-.016.022-.132.022-.83 0-.734.002-.81.024-.802.013.005.033.009.045.009.014 0 .021.016.021.045 0 .04.005.045.045.045s.045.005.045.045.005.045.046.045c.043 0 .045.002.045.073 0 .076.018.108.063.108.02 0 .027.011.027.045 0 .04.005.045.045.045.043 0 .045.003.045.066 0 .09.012.114.054.114.03 0 .036.008.036.045 0 .04.005.045.045.045s.045.005.045.046c0 .04.005.045.045.045.044 0 .045.002.045.066 0 .09.012.114.055.114.03 0 .036.008.036.045 0 .04.005.045.045.045.043 0 .045.003.045.067 0 .09.011.113.054.113.028 0 .036.009.036.035 0 .041.026.07.062.07.017 0 .028.015.031.042.004.032.014.042.044.046.035.004.04.012.048.08a.3.3 0 00.019.086c.019.02.487.021.51.002.02-.016.022-.19.022-1.317V8.695h-.465V10.418l-.046-.006c-.043-.007-.045-.01-.045-.081 0-.069-.003-.076-.044-.09-.032-.01-.045-.026-.049-.055-.003-.032-.014-.042-.046-.045-.034-.004-.041-.012-.041-.05 0-.038-.005-.043-.044-.043-.044 0-.045-.002-.05-.087-.003-.081-.006-.086-.045-.09-.035-.005-.041-.013-.041-.05 0-.039-.006-.044-.045-.044-.044 0-.046-.002-.046-.072 0-.076-.018-.108-.063-.108-.02 0-.027-.012-.027-.045 0-.04-.005-.045-.045-.045s-.045-.005-.045-.045-.005-.045-.044-.045c-.044 0-.045-.002-.049-.087-.004-.082-.007-.086-.046-.09-.034-.005-.041-.013-.041-.05 0-.039-.005-.044-.045-.044-.043 0-.045-.003-.045-.061 0-.075-.022-.12-.06-.12-.02 0-.03-.012-.033-.04-.004-.032-.014-.043-.044-.046-.036-.005-.04-.013-.049-.08-.012-.109.003-.104-.325-.104h-.299l-.01.064m2.728 1.243v1.308l.034.008c.054.013 2.021.001 2.035-.013a.752.752 0 00.018-.176l.005-.164H31.217v-.827l.725-.004.725-.004.005-.142c.002-.079 0-.158-.004-.177l-.009-.034h-1.442v-.72l.77-.005.77-.004v-.345l-1.04-.004-1.04-.004v1.307m2.82-1.297c-.006.006-.01.026-.01.045 0 .033-.006.035-.09.035h-.09v.045c0 .04-.006.046-.046.046s-.045.005-.045.045-.005.045-.045.045h-.045v.09c0 .086-.002.09-.037.09-.051 0-.055.024-.05.3l.004.234.041.004c.04.005.042.01.042.076 0 .076.019.107.063.107.016 0 .027.012.027.027 0 .045.032.064.108.064.07 0 .072 0 .072.045s0 .045.089.045c.086 0 .088.001.097.045l.009.044.222.004.222.005.005.04.005.042h.359v.045c0 .04.004.045.043.045.037 0 .045.007.05.042.003.032.013.042.045.046.035.004.042.012.042.049 0 .039.005.044.045.044.066 0 .07.1.003.108-.039.004-.041.009-.045.09-.005.085-.006.087-.05.087-.038 0-.044.005-.044.045v.045h-.18v.091h-.374l-.004-.042c-.005-.04-.006-.041-.137-.045l-.131-.005v-.044c0-.043-.003-.045-.067-.045-.089 0-.113-.011-.113-.053 0-.026-.011-.037-.046-.044-.034-.008-.045-.019-.045-.046 0-.026-.01-.037-.044-.044-.033-.008-.045-.02-.049-.05-.003-.032-.014-.042-.045-.045-.037-.005-.04-.01-.045-.083l-.005-.078-.063-.013a.348.348 0 00-.128 0l-.064.013v.511l.041.005c.035.004.042.012.042.049 0 .037.007.046.045.053.035.007.045.017.045.045 0 .028.01.038.045.046.03.006.045.017.045.036 0 .037.045.059.12.059.054 0 .06.004.06.036 0 .042.025.054.114.054.056 0 .067.005.067.03 0 .056.042.06.554.06.521 0 .543-.002.543-.068 0-.014.025-.022.086-.025.08-.004.087-.007.091-.044.004-.035.013-.04.083-.05.09-.012.1-.023.1-.109 0-.057.004-.063.042-.067l.041-.005.004-.139.005-.139h.09l-.004-.168c-.005-.166-.005-.169-.042-.178-.034-.007-.039-.017-.045-.098-.007-.084-.01-.09-.048-.094-.032-.004-.042-.014-.045-.045-.004-.032-.014-.042-.045-.045-.032-.004-.042-.014-.046-.045-.004-.038-.01-.041-.09-.045-.08-.005-.085-.007-.09-.045-.004-.039-.01-.041-.09-.045-.08-.005-.084-.007-.093-.05l-.009-.044h-.18c-.181 0-.181 0-.181-.036 0-.048-.022-.054-.203-.054h-.156l-.005-.041c-.004-.04-.009-.042-.09-.046-.085-.004-.087-.005-.087-.049 0-.04-.005-.044-.045-.044-.068 0-.072-.176-.004-.183.04-.005.042-.01.046-.091l.004-.087h.066c.089 0 .113-.012.113-.054v-.036h.376v.036c0 .043.024.054.114.054.064 0 .066.002.066.045 0 .04.005.045.045.045s.045.005.045.045.005.045.045.045h.046v.18h.542l-.005-.13c-.004-.132-.004-.132-.045-.137-.04-.005-.042-.008-.042-.094 0-.089 0-.09-.045-.09-.04 0-.045-.004-.045-.044 0-.04-.005-.045-.045-.045s-.045-.005-.045-.045-.005-.045-.045-.045-.045-.005-.045-.046c0-.044 0-.045-.09-.045-.085 0-.089 0-.093-.04l-.005-.042-.534-.004c-.295-.002-.54 0-.545.006m-19.442.387c0 .041.042.054.182.054.088 0 .088 0 .088.045 0 .04.005.045.045.045.045 0 .046.001.046.082 0 .078.001.082.045.091l.045.01v.268h-.045c-.045 0-.045 0-.045.09v.089l-.087.005c-.082.004-.087.006-.091.045l-.005.042h-.824v-.902h.646v.036m9.257-.009c0 .05.033.063.153.063.115 0 .116 0 .12.041.004.033.014.043.047.047l.041.004v.537l-.041.005c-.033.004-.043.014-.046.045-.004.031-.014.042-.045.045-.032.004-.042.014-.046.046l-.004.042h-.81v-.902h.316c.294 0 .315.002.315.027m2.45 0c0 .045.032.063.116.063.074 0 .08.003.08.037 0 .028.01.038.044.046.035.007.046.018.046.045s.01.037.045.045l.045.01v.448h-.043c-.037 0-.045.008-.053.045-.007.036-.017.045-.047.045s-.04.01-.047.046l-.01.045h-.807v-.902h.315c.294 0 .316.002.316.027m-12.154 3.875c-.037.015-.027 2.6.01 2.62.02.01.347.014.996.012l.966-.004v-.36l-.77-.005-.77-.004v-.811h1.458v-.36H14.04v-.721h1.549l-.005-.185-.004-.184-.977-.003c-.537-.001-.985.001-.995.005m4.445.02c-.017.031-.02 2.483-.002 2.563l.01.045.728.004c.8.005.796.005.796-.049 0-.036.004-.037.132-.041l.131-.004.005-.048c.005-.048.006-.049.09-.053l.086-.005.004-.086c.005-.085.006-.086.05-.086h.044l-.004-.402-.004-.402-.042-.005c-.034-.004-.04-.012-.04-.049 0-.039-.006-.044-.046-.044s-.045-.005-.045-.045-.005-.045-.045-.045-.045-.005-.045-.045.005-.045.045-.045.045-.006.045-.044c0-.036.007-.044.045-.052l.046-.009-.004-.395-.004-.395-.042-.004c-.034-.004-.041-.012-.041-.05 0-.038-.005-.043-.045-.043s-.045-.005-.045-.043c0-.042-.004-.044-.09-.054-.076-.008-.09-.014-.093-.043-.007-.05-.06-.053-.872-.055-.71 0-.733 0-.748.028m3.28-.019c-.013.005-.02.04-.02.097 0 .089 0 .089-.045.089s-.045 0-.045.089c0 .086-.001.09-.041.094-.04.004-.042.01-.046.091-.004.08-.007.086-.04.086-.045 0-.053.024-.053.16v.11h-.045c-.045 0-.045.001-.045.09 0 .086-.002.09-.042.094-.04.005-.04.005-.045.136l-.004.132h-.045c-.044 0-.044 0-.044.089 0 .086-.002.09-.042.094-.039.004-.041.01-.046.088-.004.077-.007.085-.048.1-.045.017-.045.018-.045.137 0 .12 0 .121-.041.126-.04.004-.042.008-.046.097-.004.09-.006.094-.045.098-.04.005-.04.007-.045.128-.004.122-.004.123-.049.132l-.044.01v.125c0 .151-.018.143.286.143.251 0 .255-.001.255-.115 0-.079 0-.08.045-.08h.045v-.18h.09v-.09c0-.086.002-.09.036-.09.043 0 .054-.025.054-.115v-.066H22.14v.18h.09v.271h.045c.044 0 .044 0 .048.094.005.09.007.094.045.098.032.004.042.014.045.045l.005.04h.252c.29 0 .281.005.281-.13 0-.108-.01-.132-.054-.132-.033 0-.036-.005-.036-.09 0-.085 0-.088-.044-.098-.042-.01-.044-.014-.049-.095-.004-.08-.006-.086-.046-.09-.04-.005-.04-.005-.04-.121 0-.12-.014-.152-.063-.152-.022 0-.027-.016-.031-.087-.004-.082-.007-.086-.046-.091-.04-.004-.041-.009-.043-.09-.003-.132-.016-.175-.055-.18-.029-.005-.033-.014-.033-.07 0-.089-.012-.114-.054-.114-.032 0-.035-.007-.04-.086-.004-.082-.006-.087-.045-.091-.04-.005-.042-.007-.042-.105 0-.144-.01-.168-.062-.168-.043 0-.043-.001-.043-.09 0-.09 0-.09-.044-.09h-.045l-.004-.132c-.005-.131-.005-.132-.046-.137-.04-.004-.041-.007-.041-.092 0-.078-.004-.088-.034-.096-.04-.011-.552-.01-.579 0m1.834 0l-.034.008v1.287c0 .777.006 1.297.015 1.31.015.024.41.044.488.024l.038-.01.002-.852c.001-.469.005-.837.009-.819.003.02.02.038.041.043.023.006.038.023.044.053.006.034.017.043.045.043.03 0 .038.01.042.042.004.032.014.042.044.046.035.004.04.013.053.09.011.073.018.086.047.09.025.004.037.018.044.05.007.035.016.043.051.043.041 0 .043.003.047.087.004.081.007.086.046.09.034.005.041.013.041.05 0 .039.005.044.045.044s.045.005.045.045.005.045.045.045h.045v.18h.046c.04 0 .045.005.045.045s.005.045.044.045c.043 0 .044.002.049.087.004.082.007.086.046.09.034.005.04.013.04.05 0 .039.006.044.046.044s.045.005.045.045.005.045.044.045c.044 0 .045.002.05.086.004.083.006.087.049.096.066.014.448.015.47 0 .015-.009.018-.282.015-1.318l-.004-1.306-.203-.005c-.112-.002-.232 0-.267.005l-.064.01v.788c0 .718-.002.787-.023.766-.013-.013-.033-.024-.044-.024-.012 0-.023-.018-.026-.041-.003-.032-.013-.042-.045-.046-.031-.004-.041-.014-.045-.045-.004-.032-.014-.042-.046-.045-.037-.005-.041-.011-.041-.06 0-.091-.015-.123-.054-.123-.026 0-.035-.01-.04-.042-.003-.031-.013-.042-.043-.046-.035-.004-.04-.013-.052-.09-.012-.07-.02-.086-.046-.09-.022-.003-.035-.019-.041-.049-.007-.035-.017-.044-.047-.044-.032 0-.038-.007-.038-.045 0-.042-.004-.045-.052-.045h-.053v-.18h-.045c-.04 0-.045-.006-.045-.046s-.005-.045-.045-.045c-.043 0-.044-.002-.048-.086-.005-.082-.007-.087-.046-.091-.035-.004-.042-.012-.042-.05 0-.038-.005-.043-.045-.043s-.045-.005-.045-.044c0-.036-.007-.046-.044-.054-.034-.007-.045-.019-.049-.05l-.004-.04-.233-.002a3.216 3.216 0 00-.267.005m2.63.005l-.035.014.004 1.291c.003.71.01 1.297.017 1.304.022.022.488.026.514.005.018-.015.022-.078.022-.369 0-.35 0-.35.033-.355.021-.003.037-.018.042-.042a.06.06 0 01.045-.045.06.06 0 00.045-.045.06.06 0 01.045-.045.06.06 0 00.046-.046c.006-.026.021-.04.053-.045.035-.006.045-.016.049-.048a.048.048 0 01.096 0c.003.032.013.042.046.046.034.004.041.012.041.049 0 .039.005.044.045.044s.045.005.045.045.005.045.045.045c.044 0 .045.002.045.066 0 .09.012.114.055.114.03 0 .036.008.036.045 0 .04.005.045.045.045s.045.005.045.045.005.046.045.046c.043 0 .045.002.045.066 0 .089.012.114.053.114.027 0 .036.01.04.041.004.033.013.043.046.046.035.004.041.012.041.05 0 .037.007.045.045.053.03.006.046.018.046.035 0 .055.033.061.287.057l.246-.004v-.271l-.04-.004c-.038-.005-.041-.01-.046-.083-.004-.073-.007-.078-.046-.083-.034-.004-.04-.012-.04-.049 0-.037-.008-.046-.046-.053-.038-.008-.045-.017-.045-.053 0-.038-.006-.043-.045-.043-.044 0-.045-.001-.045-.076 0-.071-.003-.078-.045-.094-.03-.011-.045-.028-.048-.055-.004-.029-.015-.039-.045-.043-.032-.003-.042-.013-.045-.045-.004-.031-.014-.041-.046-.045-.035-.004-.042-.012-.042-.049 0-.039-.005-.044-.045-.044-.044 0-.045-.002-.045-.072 0-.076-.019-.108-.062-.108-.017 0-.028-.014-.03-.041-.005-.033-.014-.043-.047-.046-.035-.004-.041-.012-.041-.05 0-.038-.005-.043-.045-.043-.065 0-.069-.086-.004-.093.032-.004.042-.014.046-.045.003-.032.014-.042.045-.046.031-.003.041-.013.045-.045.004-.03.014-.041.045-.045.031-.003.042-.014.045-.045.004-.031.014-.041.045-.045.032-.004.042-.014.045-.045.004-.031.014-.042.046-.045.03-.004.041-.014.044-.044.004-.03.016-.042.05-.049.034-.007.044-.017.044-.045 0-.028.01-.038.045-.045.036-.007.045-.017.045-.047 0-.032.007-.038.045-.038.04 0 .045-.005.045-.045s.005-.045.045-.045.045-.005.045-.045.005-.045.045-.045c.042 0 .045-.004.045-.053 0-.048.004-.052.045-.052.045 0 .046-.001.046-.08v-.082l-.07-.01a4.321 4.321 0 00-.568.001c-.062.009-.071.015-.079.053-.007.033-.017.043-.045.043-.028 0-.038.01-.045.045-.007.035-.017.045-.045.045-.028 0-.038.01-.045.045-.007.035-.017.045-.045.045-.028 0-.038.01-.045.045-.007.035-.017.045-.045.045-.028 0-.038.01-.045.045-.007.035-.017.045-.045.045-.028 0-.038.01-.045.044-.007.034-.019.046-.049.05-.03.003-.04.013-.044.044-.004.032-.014.042-.045.045-.031.004-.042.014-.045.045-.004.032-.014.042-.045.046-.032.003-.042.013-.045.045-.004.031-.014.041-.046.045-.03.003-.041.014-.045.045-.003.031-.013.041-.045.045-.03.004-.041.014-.045.045-.003.031-.014.042-.045.045-.03.004-.041.014-.045.045-.003.03-.014.04-.049.046l-.044.006v-.544c0-.483-.003-.545-.024-.553a2.803 2.803 0 00-.499.006m2.71.003c-.005.01-.006.604-.004 1.319l.004 1.3.188.004c.103.003.203 0 .221-.004l.034-.008-.004-1.311-.004-1.311-.214-.004c-.163-.003-.216 0-.222.015m.905-.009c-.006.006-.01.598-.01 1.315v1.305l.037.009c.05.013.462.002.485-.013.015-.01.02-.196.02-.842.002-.456.005-.817.01-.803.003.016.02.026.042.026.031 0 .036.01.045.084.01.076.014.084.054.092.036.007.043.016.043.052 0 .038.006.043.045.043.04 0 .045.005.045.045s.005.045.045.045c.043 0 .044.002.049.086.004.082.006.087.045.092.035.004.042.011.042.048 0 .04.005.045.044.045.044 0 .044.001.049.086.004.082.007.087.046.091.034.004.041.012.041.049 0 .039.005.044.045.044s.045.005.045.045.005.045.045.045c.043 0 .044.002.048.087.005.081.007.086.046.09.035.005.042.013.042.05 0 .038.005.044.044.044.043 0 .044.001.049.086.004.082.007.087.046.091.034.004.041.012.041.05 0 .037.007.045.045.053.035.007.045.017.045.044 0 .025.011.038.037.045.051.013.462.002.485-.013.015-.01.02-.288.02-1.31v-1.297l-.048-.01a3.062 3.062 0 00-.47 0c-.021.009-.024.095-.024.824v.815l-.045-.006c-.038-.006-.045-.014-.045-.05 0-.038-.006-.044-.044-.044-.044 0-.045-.001-.05-.086-.003-.081-.006-.087-.044-.091-.031-.004-.042-.014-.045-.045-.004-.032-.014-.042-.046-.045-.036-.005-.042-.012-.042-.056 0-.074-.024-.128-.058-.128-.021 0-.031-.012-.034-.04-.004-.033-.014-.043-.047-.047-.034-.004-.04-.012-.04-.049 0-.039-.006-.044-.046-.044-.042 0-.045-.004-.045-.056 0-.092-.014-.124-.053-.124-.027 0-.036-.01-.04-.042-.004-.031-.014-.042-.044-.045-.035-.004-.04-.014-.052-.09-.012-.072-.02-.087-.047-.09-.023-.004-.034-.018-.037-.046-.004-.033-.014-.041-.054-.045-.043-.004-.049-.01-.049-.049s-.005-.044-.045-.044h-.045v-.18h-.045c-.04 0-.045-.006-.045-.044 0-.026-.01-.047-.024-.053a3.432 3.432 0 00-.507.001m3.375 0c-.01.005-.019.023-.019.042 0 .032-.008.035-.122.044-.143.012-.148.015-.148.063 0 .03-.008.037-.045.037-.04 0-.045.005-.045.045s-.005.045-.046.045c-.04 0-.045.005-.045.045s-.005.045-.045.045-.045.005-.045.045-.005.045-.045.045c-.043 0-.045.003-.045.067 0 .088-.012.114-.052.114-.04 0-.053.069-.053.304 0 .144 0 .146-.036.146-.05 0-.054.022-.054.216 0 .206.007.235.054.235.035 0 .036.002.036.147 0 .184.008.214.053.214.032 0 .036.009.046.09.01.087.011.09.053.09.043 0 .043.001.043.09v.09h.045c.04 0 .045.006.045.046s.005.045.044.045c.037 0 .045.007.05.041.004.04.009.042.09.046.084.004.087.006.087.047 0 .052.025.06.169.061.098 0 .101.002.101.038 0 .053.012.054.526.05l.459-.005.004-.04c.005-.041.006-.042.136-.046l.13-.004.005-.048c.004-.048.006-.049.09-.053.076-.004.085-.008.093-.042.006-.027.021-.04.053-.045.035-.006.046-.017.05-.048.003-.028.014-.042.036-.045.02-.003.037-.02.043-.042.013-.047.016-1.047.004-1.094l-.01-.034h-.656c-.49 0-.66.005-.674.019-.012.012-.018.08-.018.207 0 .246-.04.225.424.225h.387v.226c0 .218 0 .225-.031.225-.021 0-.037.015-.048.045-.01.025-.028.045-.041.045-.032 0-.06.03-.06.063 0 .022-.012.028-.058.028-.132 0-.195.016-.204.054-.014.056-.279.056-.279 0 0-.042-.042-.054-.181-.054-.084 0-.088-.002-.092-.042-.004-.032-.014-.042-.046-.046-.03-.003-.042-.013-.042-.035 0-.02-.015-.036-.045-.047-.032-.013-.045-.027-.045-.052 0-.027-.01-.037-.045-.044-.034-.007-.045-.017-.045-.043 0-.08-.018-.125-.054-.134-.033-.008-.036-.017-.036-.09 0-.127-.014-.173-.055-.183-.035-.009-.035-.012-.035-.187v-.178l.041-.004c.041-.005.041-.006.046-.136.004-.13.004-.13.045-.135.032-.004.042-.014.048-.05.005-.031.017-.046.04-.05.034-.004.05-.04.05-.117 0-.046.002-.047.083-.057.07-.01.084-.016.091-.046.008-.03.022-.036.09-.045.07-.008.083-.015.09-.046.014-.052.368-.059.368-.007 0 .038.043.06.119.06.052 0 .06.005.06.032 0 .02.016.037.046.048.025.01.045.028.045.04 0 .032.03.06.061.06.02 0 .028.02.036.083.009.068.016.083.04.083.018 0 .036.018.05.052l.022.053h.248c.286 0 .28.003.28-.14 0-.106-.01-.13-.054-.13-.032 0-.036-.007-.04-.087-.004-.08-.007-.086-.043-.09-.035-.005-.04-.014-.053-.09-.012-.079-.017-.087-.054-.091-.031-.004-.041-.014-.045-.045-.004-.038-.01-.041-.091-.045-.084-.005-.086-.006-.086-.047 0-.045-.037-.061-.138-.061-.035 0-.043-.007-.043-.036 0-.028-.01-.038-.047-.045-.055-.011-.989-.01-1.016 0m-13.56.402c0 .043.025.054.115.054.06 0 .066.003.066.038 0 .03.01.04.045.047l.045.01v.356h-.045c-.04 0-.045.005-.045.045v.045h-.117c-.121 0-.153.014-.153.063 0 .026-.022.027-.316.027h-.316v-.72h.721v.035m2.45.407c0 .126.014.172.055.183.03.007.035.018.035.073 0 .088.012.113.055.113.033 0 .036.005.037.086.003.133.016.176.055.181.026.004.034.015.034.05v.043h-.631v-.089c0-.086.001-.09.04-.094.042-.004.042-.005.047-.136l.004-.132h.044c.045 0 .045 0 .045-.088 0-.086.001-.088.045-.097.044-.009.045-.011.045-.097v-.088l.045.007c.044.006.045.009.045.085m-5.716.312c-.005.019-.01.105-.01.192 0 .087.005.173.01.192l.01.033.85-.003.851-.004v-.436l-.85-.004-.852-.004-.009.034m3.357.372c0 .045 0 .045.089.045.086 0 .09.002.094.042.004.032.014.042.046.046.04.004.041.007.041.1a.52.52 0 00.015.134c.01.024.01.041 0 .047-.008.005-.015.045-.015.09 0 .076-.002.08-.04.085-.033.004-.043.014-.047.046-.005.04-.007.042-.105.042-.137 0-.168.01-.168.054v.036h-.721v-.812h.811v.045" id="svg_22"/><path fill="#fcd629" d="M3.842 9.937a.688.688 0 01-.062.081c-.027.031-.037.066-.049.18a3.48 3.48 0 01-.03.224.91.91 0 00-.016.135.17.17 0 01-.122.169c-.053.017-.071.032-.096.082a.802.802 0 00-.09.307 2.741 2.741 0 01-.045.233c-.085.308-.062.804.038.804.036 0 .252.064.262.078.04.055.053.088.053.133 0 .03.011.125.024.21.015.097.021.204.016.277-.01.172.02.238.1.223.07-.014.092-.066.1-.246.007-.124.015-.169.035-.19.03-.033.036-.173.012-.257a.144.144 0 01.087-.173c.158-.066.288-.088.288-.049 0 .012.023.03.052.039.054.017.07.054.031.07-.03.011-.04.048-.022.082.02.037.037.026.049-.032.012-.061.1-.04.1.024 0 .008.015.02.033.029a.126.126 0 01.052.052.11.11 0 00.05.048c.016.006.03.02.03.031 0 .026.126.132.156.132.149 0 .1-.205-.07-.295-.022-.012-.04-.032-.04-.045 0-.012-.02-.03-.045-.038-.027-.01-.046-.028-.049-.047-.003-.02-.019-.036-.042-.041-.024-.006-.04-.021-.042-.042-.008-.052.076-.047.1.005a.15.15 0 00.07.06c.029.012.052.033.052.045 0 .036.068.06.113.04.053-.024.047-.041-.029-.086a.446.446 0 01-.084-.06c-.01-.012-.037-.022-.06-.022-.03 0-.046-.01-.052-.03-.012-.036-.105-.058-.145-.033-.049.03-.063.021-.054-.035a.262.262 0 00-.003-.095c-.01-.033-.004-.06.023-.117a.411.411 0 00.036-.096c.002-.055.043-.08.154-.092.06-.006.146-.018.192-.026a2.09 2.09 0 01.26-.016c.212-.002.266-.022.266-.1 0-.074-.041-.091-.248-.103a1.45 1.45 0 01-.248-.032.67.67 0 00-.194-.018c-.146.004-.144.006-.215-.17-.03-.077-.038-.113-.028-.145a.265.265 0 00.004-.093c-.007-.05-.006-.05.036-.04.127.032.171.029.171-.013 0-.032.007-.039.04-.039.049 0 .23-.118.22-.143-.02-.052-.134-.04-.148.015-.006.023-.023.038-.052.043-.03.006-.047.02-.053.045-.009.035-.098.079-.119.059-.023-.024-.005-.062.036-.071.03-.007.046-.021.053-.046.005-.02.015-.037.024-.037.035 0 .27-.24.27-.277-.003-.17-.205-.094-.35.13-.015.023-.035.042-.045.042-.01 0-.03.02-.044.045-.03.054-.072.06-.072.011 0-.057-.025-.083-.052-.056-.026.026-.015.09.016.09s.025.036-.011.06a.515.515 0 00-.052.041c-.031.03-.126.022-.25-.021-.128-.046-.167-.097-.146-.193.021-.093.015-.222-.012-.251-.019-.021-.028-.07-.035-.194-.011-.194-.036-.244-.083-.169m.182.155c-.037.07-.023.196.021.196.02 0 .045-.135.036-.184-.012-.06-.03-.064-.057-.012m.557.225c-.013.014-.024.034-.024.043 0 .01-.012.026-.027.036-.034.025-.07.11-.058.14.015.038.056.025.073-.023.008-.026.03-.052.046-.058.046-.017.076-.127.04-.149-.02-.012-.031-.01-.05.01m2.41.847a.258.258 0 00-.08.076c-.026.046-.149.05-.202.007-.015-.012-.024-.01-.034.005-.022.034-.016.104.008.114.058.022.059.152.001.2-.057.047-.019.156.04.114.058-.04.155-.03.19.019.088.124.167.113.168-.023 0-.087.022-.113.124-.14.092-.025.076-.103-.031-.15-.08-.036-.093-.05-.093-.114 0-.062-.017-.141-.028-.14a.376.376 0 00-.064.032m-1.937.044c-.108.023-.111.025-.09.05.034.042.255.024.255-.02 0-.013-.068-.048-.087-.045-.006 0-.04.008-.078.015m2.987.322c-.056.03-.053.043.004.014.024-.013.045-.026.045-.03 0-.01-.002-.01-.05.016m3.315.134c0 .05.003.068.007.041a.396.396 0 000-.09c-.004-.022-.007 0-.007.05m-6.43-.002c-.035.026-.027.03.105.053.144.026.235-.003.168-.053-.04-.029-.233-.029-.273 0m6.43.572c0 .042.003.057.007.034a.264.264 0 000-.075c-.004-.019-.007 0-.007.041m-6.887.166c0 .037.042.127.059.127.008 0 .02.017.025.037.013.055.042.074.078.052.038-.024.014-.114-.037-.137a.092.092 0 01-.043-.059c-.01-.047-.082-.065-.082-.02m-.878.177c-.036.132-.019.342.024.3.023-.024.043-.178.032-.255-.01-.07-.042-.096-.056-.045m.43.089c-.025.025-.023.103.006.17.03.072.053.052.053-.05.001-.12-.019-.16-.059-.12m2.015.014c-.052.032-.068.054-.023.03.035-.02.089-.061.079-.061a.29.29 0 00-.056.03m-1.264.727c-.065.046-.082.066-.025.031.078-.048.105-.068.09-.067a.234.234 0 00-.065.036m6.102.471l-.034.056.038-.042a.164.164 0 00.038-.057c0-.022-.005-.017-.042.043m-6.676.639c0 .003.022.025.05.049l.048.044-.044-.049c-.041-.045-.054-.056-.054-.044m6.148.106l-.036.047.043-.04c.024-.023.04-.044.036-.048-.004-.003-.023.015-.043.041m-6 .047a.445.445 0 00.072.083c.052.048.008-.01-.081-.106-.004-.004 0 .007.008.023m5.796.177l-.074.079.079-.075c.073-.07.086-.083.074-.083-.002 0-.037.035-.079.079m-5.25.33l.051.042.045.037-.036-.041c-.02-.023-.043-.041-.051-.041-.009 0-.013.001-.01.003" id="svg_21"/><path fill="#648ccc" d="M6.568 7.552c-.01.061-.024.06.759.06.739-.002.747-.002.747-.047 0-.018-.007-.025-.018-.018-.01.006-.013.004-.008-.005.006-.008.037-.013.07-.01.034.003.06 0 .06-.009 0-.008-.324-.014-.802-.014h-.802l-.006.043m1.633-.03a.04.04 0 00.03.016c.012 0 .032.012.047.026.018.019.024.02.019.005-.004-.012-.03-.031-.057-.042-.027-.011-.044-.013-.039-.005m-2.039.129c.007.059.006.059.176.053.12-.004.125-.006.096-.04-.033-.04-.11-.066-.198-.066h-.08l.006.053m2.095-.042c-.03.006-.074.073-.06.088.006.005.19.01.242.008.016 0 .033-.02.042-.046.01-.027.028-.046.048-.05a1.505 1.505 0 00-.272 0m.335.016c.057.041.067.072.026.075-.042.004-.078.038-.078.074 0 .014.03.02.114.02h.114l-.006-.045c-.004-.025 0-.048.01-.052.008-.004.002-.007-.015-.005-.05.004-.114-.018-.103-.036.006-.01.004-.013-.005-.008-.009.006-.02 0-.025-.012-.005-.013-.017-.023-.028-.023s-.013.005-.004.012m-2.706.114l.001.047.103.005c.157.006.109-.085-.051-.096-.053-.004-.055-.002-.053.044M8.84 7.7c0 .018.058.049.066.035.005-.007-.008-.02-.029-.03-.02-.008-.037-.011-.037-.005m.091.064c0 .015-.018.024-.049.027-.057.004-.052 0-.065.051l-.01.042h.107c.101 0 .106-.002.106-.035 0-.019.009-.044.02-.055.015-.018.014-.019-.008-.002-.018.014-.027.015-.027.003 0-.009-.013-.016-.028-.016-.016 0-.033-.009-.037-.02-.005-.012-.008-.01-.009.005m-3.261.014a.053.053 0 01-.04.005c-.02-.007-.015.078.004.1.008.01.174.002.184-.008.016-.016-.025-.058-.066-.069-.024-.006-.047-.018-.052-.026-.005-.009-.018-.01-.03-.002m3.414.115c-.076.038-.064.075.027.087.093.012.108.004.1-.056-.006-.058-.051-.069-.127-.03m-3.65.026c-.02.053.006.074.08.063.083-.011.092-.017.07-.051-.022-.035-.137-.044-.15-.012m1.508-.005c-.105.007-.217.02-.248.03a1.337 1.337 0 01-.275.058.648.648 0 00-.173.044.687.687 0 01-.16.048.327.327 0 00-.11.031c-.012.02-.11.058-.149.058a.138.138 0 00-.07.03.474.474 0 01-.116.054.33.33 0 00-.105.052.168.168 0 01-.074.037.249.249 0 00-.09.044.285.285 0 01-.078.046c-.033.01-.208.121-.226.144a.512.512 0 01-.071.044c-.036.02-.064.04-.064.047 0 .006-.025.026-.056.045a.64.64 0 00-.08.058 2.287 2.287 0 01-.09.076c-.144.118-.36.343-.36.375 0 .038.073.11.15.145a.68.68 0 01.099.06c.026.02.053.036.06.036.008 0 .061.031.119.068.058.037.133.08.166.097a.633.633 0 01.098.058c.02.016.06.04.09.054.028.013.096.05.15.083.053.032.127.073.163.09.036.019.079.046.095.06a.186.186 0 00.07.038c.022.006.05.02.062.03.027.024.128.083.236.136a.38.38 0 01.088.053.4.4 0 00.084.056c.042.022.114.063.16.09l.123.066c.021.01.07.041.111.069.04.027.082.049.093.049.01 0 .029.01.04.02.012.012.051.037.088.055.037.019.07.039.074.045.004.006.075.046.157.09.082.042.165.09.185.106.02.015.051.033.069.038a.335.335 0 01.078.043.516.516 0 00.092.052c.027.01.06.032.073.047a.15.15 0 00.068.037.13.13 0 01.062.033c.01.013.053.04.095.06.09.043.219.116.243.138.01.009.043.026.075.04.032.013.075.04.097.06l.038.038 1.622-.004 1.622-.004.005-.066a.286.286 0 00-.011-.105 1.743 1.743 0 01-.045-.214 1.001 1.001 0 00-.05-.21.548.548 0 01-.042-.134.636.636 0 00-.054-.16.263.263 0 01-.036-.09.378.378 0 00-.043-.112.663.663 0 01-.053-.129.16.16 0 00-.038-.072.24.24 0 01-.046-.092c-.01-.037-.03-.076-.045-.086a.164.164 0 01-.042-.067.378.378 0 00-.049-.09 1.337 1.337 0 01-.136-.21c-.017-.035-.037-.064-.043-.064-.007 0-.029-.025-.05-.056a1.35 1.35 0 00-.107-.132 9.014 9.014 0 01-.148-.165 3.193 3.193 0 00-.254-.257 5.516 5.516 0 00-.238-.202 1.202 1.202 0 01-.078-.064.477.477 0 00-.086-.057.373.373 0 01-.085-.06c-.014-.016-.034-.029-.044-.029A.227.227 0 019.45 8.5a.386.386 0 00-.089-.054.338.338 0 01-.078-.044.285.285 0 00-.092-.044.16.16 0 01-.073-.039.286.286 0 00-.105-.051.27.27 0 01-.097-.046c-.01-.012-.043-.026-.074-.032a.814.814 0 01-.148-.053.476.476 0 00-.135-.043.498.498 0 01-.132-.038.937.937 0 00-.199-.052 1.156 1.156 0 01-.254-.054c-.132-.042-.64-.06-1.032-.035m.805.063c.03.014.154.035.275.048.144.016.237.034.274.053.03.015.105.035.166.044.06.01.128.03.15.045a.384.384 0 00.118.045.431.431 0 01.13.051c.03.02.08.04.112.046.032.005.07.023.086.04a.218.218 0 00.089.046.28.28 0 01.099.05c.02.02.056.04.078.045a.222.222 0 01.081.047c.022.02.05.037.06.037.011 0 .041.02.066.045.026.025.055.045.066.045.011 0 .033.014.048.032a.31.31 0 00.074.055.383.383 0 01.085.066c.022.023.05.043.063.043.013 0 .027.013.033.03.005.016.016.03.024.03a3.183 3.183 0 01.45.452c-.001.006.012.016.028.02a.07.07 0 01.04.043.192.192 0 00.04.063c.027.03.053.064.14.196a.334.334 0 00.06.07c.01.007.023.03.028.053.006.022.03.063.055.09.024.028.044.062.044.076 0 .013.015.042.034.063a.331.331 0 01.055.099.31.31 0 00.047.09.211.211 0 01.037.087.334.334 0 00.043.105.494.494 0 01.053.138c.01.049.033.107.049.128a.4.4 0 01.044.148c.008.06.029.132.045.16.033.055.057.267.044.376l-.008.06H8.166l-.035-.033a.397.397 0 00-.101-.059.346.346 0 01-.094-.054c-.015-.015-.037-.027-.048-.027a.243.243 0 01-.08-.043.455.455 0 00-.092-.054.157.157 0 01-.052-.028.293.293 0 00-.123-.07c-.012 0-.034-.013-.05-.028a.359.359 0 00-.097-.056c-.04-.016-.072-.034-.072-.04 0-.007-.03-.026-.068-.042a.432.432 0 01-.1-.06.19.19 0 00-.072-.04.21.21 0 01-.075-.042.3.3 0 00-.093-.052.219.219 0 01-.08-.047c-.015-.016-.035-.03-.044-.03a.23.23 0 01-.068-.033 2.513 2.513 0 00-.268-.153c-.043-.021-.079-.044-.079-.05 0-.007-.028-.025-.063-.04a.466.466 0 01-.094-.053.344.344 0 00-.083-.046.414.414 0 01-.095-.055c-.023-.02-.051-.035-.061-.035a.245.245 0 01-.078-.045.23.23 0 00-.085-.045c-.015 0-.04-.013-.056-.03a.606.606 0 00-.107-.071 12.537 12.537 0 01-.162-.09 3.12 3.12 0 00-.137-.073.68.68 0 01-.097-.06.298.298 0 00-.088-.045c-.022-.006-.04-.017-.04-.024 0-.008-.037-.031-.082-.052a.407.407 0 01-.1-.059c-.01-.012-.027-.022-.037-.022a.362.362 0 01-.096-.053.42.42 0 00-.09-.052.185.185 0 01-.06-.038.356.356 0 00-.095-.055.271.271 0 01-.085-.052c-.02-.02-.046-.036-.057-.036-.09 0 .268-.353.566-.556.042-.029.1-.071.13-.094a.22.22 0 01.072-.041c.01 0 .04-.02.068-.045.028-.025.063-.045.077-.045.014 0 .046-.017.071-.038a.25.25 0 01.091-.047.207.207 0 00.084-.044c.021-.02.063-.04.094-.045.065-.012.134-.044.142-.066.003-.009.046-.023.095-.031a.401.401 0 00.13-.045.592.592 0 01.171-.051.519.519 0 00.156-.045c.016-.015.1-.03.244-.045.12-.013.239-.031.263-.04.123-.05.757-.056.866-.01m1.573-.004c-.11.031-.143.089-.052.092.126.004.128.004.128-.038 0-.047-.029-.067-.076-.054m.146.02c.015.018.03.035.031.039.003.003.004-.008.004-.025a.04.04 0 00-.031-.039c-.03-.008-.031-.007-.004.025m-4.218.038c0 .037.035.05.1.038.081-.015.062-.057-.028-.063-.063-.004-.072-.001-.072.025m4.203.042c-.065.034-.051.073.032.089.051.01.075.023.086.048.01.024.027.033.06.034.05 0 .095.022.079.038-.018.018.051.067.095.067.035 0 .043.007.047.04.004.035.013.043.053.047.04.004.05.01.05.041 0 .025.008.037.026.037.045 0 .108.036.108.062 0 .014.024.036.053.05.029.013.053.035.053.047 0 .013.022.032.05.044.028.012.055.035.06.052.004.02.02.03.046.03.03 0 .039.008.039.035 0 .041.026.07.062.07.016 0 .028.014.03.034.003.019.02.04.04.05.018.007.033.025.033.038 0 .026.046.074.071.074.009 0 .024.02.034.043.01.024.037.057.06.075a.12.12 0 01.048.073c.004.03.015.044.043.05.023.004.04.019.042.037.008.055.017.068.047.068.02 0 .031.01.031.029 0 .046.03.098.064.114.017.008.033.028.035.044.01.074.023.098.05.098.023 0 .032.014.04.057.016.095.023.11.049.105.05-.01.034-.153-.016-.16-.037-.003-.042-.01-.042-.062 0-.044-.009-.065-.037-.087-.02-.017-.038-.044-.038-.06 0-.057-.017-.078-.062-.078-.038 0-.043-.006-.043-.046 0-.034-.01-.05-.038-.062-.02-.01-.038-.025-.038-.034a.377.377 0 00-.009-.046.432.432 0 01-.009-.048c0-.01-.02-.025-.044-.033-.028-.01-.042-.026-.042-.046 0-.027-.06-.078-.06-.05-.001.028-.03-.037-.03-.066 0-.025-.01-.034-.042-.038-.029-.003-.043-.014-.046-.037a.052.052 0 00-.038-.04c-.019-.006-.04-.029-.05-.055-.013-.035-.027-.046-.056-.046-.033 0-.039-.006-.039-.044 0-.037-.007-.044-.041-.049-.03-.003-.043-.014-.047-.039-.003-.024-.017-.037-.05-.043-.04-.008-.044-.015-.039-.051.003-.023.002-.042-.002-.041-.07.007-.101-.006-.117-.048-.016-.041-.022-.045-.075-.04-.031.004-.05.004-.04 0 .012-.005.007-.018-.015-.04l-.032-.033.033-.005c.07-.01.031-.03-.04-.022l-.076.009v-.046c0-.05-.02-.064-.091-.064-.025 0-.044-.007-.044-.016 0-.008.006-.012.013-.007.018.011.033-.03.022-.06-.01-.025-.01-.025-.135.004-.036.008-.062-.083-.03-.104.031-.02-.091-.008-.131.013m-4.368.058c0 .042.04.05.113.022.058-.022.023-.06-.055-.06-.052 0-.058.004-.058.038m-.136.075c-.027.033-.002.05.065.041.042-.005.056-.014.056-.035 0-.036-.092-.04-.12-.006m-.14.098c-.01.037.018.052.072.038.024-.006.038-.02.038-.039 0-.044-.099-.043-.11.001m-.112.075c-.02.008-.034.027-.034.044 0 .022-.01.03-.034.031-.044 0-.066.016-.073.051-.003.018-.024.034-.054.042-.039.01-.05.02-.05.05 0 .03-.007.037-.037.037-.025 0-.043.012-.054.036a.139.139 0 01-.052.055.1.1 0 00-.045.046.061.061 0 01-.035.035c-.015.005-.036.027-.048.048a.126.126 0 01-.054.052.078.078 0 00-.043.048.083.083 0 01-.042.049c-.048.02-.054.086-.007.08.025-.004.036-.017.04-.046.003-.031.013-.041.044-.045.032-.004.042-.014.045-.046.003-.023.013-.042.023-.043l.04-.004c.013-.001.026-.022.03-.047.006-.035.017-.046.048-.05.032-.003.042-.014.046-.045.003-.031.014-.042.049-.048.031-.005.046-.018.053-.045.005-.02.019-.038.03-.038.042-.002.075-.025.075-.054 0-.015.01-.028.022-.028.04 0 .095-.033.11-.068.01-.02.035-.039.062-.045.032-.007.046-.019.046-.039 0-.031-.041-.037-.101-.013m5.682.248c.013.012.027.022.031.022s.004-.01 0-.022c-.005-.013-.02-.023-.031-.023-.02 0-.02.003 0 .023m-6.452.487a.134.134 0 00-.015.051c0 .012-.017.026-.037.031-.026.007-.038.021-.041.05-.003.028-.015.043-.035.047-.06.01-.095.138-.038.138.018 0 .03-.01.03-.024 0-.03.06-.114.074-.105.01.006.03-.032.052-.1.005-.015.018-.023.03-.018.027.01.061-.046.05-.078-.013-.03-.051-.026-.07.008m-.263.35a.13.13 0 00-.023.06c0 .016-.017.034-.038.042-.033.013-.038.023-.034.07.005.054.042.092.042.043 0-.038.044-.113.066-.113.03 0 .057-.116.03-.126-.01-.005-.03.007-.043.025m-.17.27c-.01.01-.018.043-.018.074 0 .08.04.077.053-.004.011-.067-.006-.1-.035-.07m-.099.185c-.013.035-.01.1.005.126.02.033.03.015.034-.066.004-.073-.02-.11-.039-.06m7.82.033c.001.11.05.15.066.052.014-.086.012-.094-.028-.094-.03 0-.037.008-.037.042m-7.9.127c-.029.036-.032.065-.013.11l.019.045.017-.043c.029-.072.01-.157-.024-.112m8.001.021c-.014.015-.013.13.002.153.03.046.064.001.06-.078-.004-.073-.03-.105-.062-.075m-8.094.192c-.021.026-.016.153.006.15.023-.005.046-.138.027-.157-.01-.01-.02-.008-.033.007m8.227.009c-.044.008-.046.01-.045.094 0 .142.054.13.082-.018.018-.093.02-.088-.037-.076m.09.239c-.053.01-.062.048-.046.177.013.105.04.092.071-.037.02-.078.031-.166.021-.152a.402.402 0 01-.046.012m-8.415.025c-.013.035-.01.116.005.14.016.025.025.01.037-.06.015-.08-.018-.142-.042-.08m-.09.256a.602.602 0 00.006.217c.014.049.025.021.037-.1.012-.116-.015-.19-.043-.117m8.633.036a.145.145 0 00-.003.033c0 .005-.015.008-.034.006-.05-.006-.074.158-.041.274.03.103.11-.132.091-.268-.005-.037-.01-.057-.013-.045m-8.718.53c-.02.078-.01 1.09.013 1.169.01.037.015-.132.016-.59.002-.658 0-.689-.029-.58m8.746-.032c-.016.01-.02.117-.023.528-.002.481.004.67.02.652.004-.003.023 0 .043.007l.035.013.001-.598c.001-.645 0-.65-.076-.602m-.104 1.337l-.013.154c-.009.108-.019.154-.04.176-.014.017-.02.03-.013.03.008 0 .006.006-.004.012-.02.013-.044.228-.03.265.023.059.055.006.055-.09 0-.106.027-.138.1-.12.02.005.035.004.034-.002-.006-.039.004-.08.02-.08.035 0 .06-.026.065-.066.002-.021-.002-.035-.01-.03a.017.017 0 00-.005.022c.004.008.001.014-.008.014-.008 0-.016-.006-.016-.015 0-.008-.01-.015-.021-.015-.032 0-.044-.027-.055-.126-.008-.067-.055-.17-.06-.129m-8.55.251c0 .068.006.127.014.131.022.014.027-.022.02-.127-.01-.144-.034-.147-.034-.004m.093.327c.005.092.032.12.04.04.006-.063-.008-.122-.029-.122-.009 0-.013.033-.01.082m8.272.145c-.015.055-.012.163.004.163.043 0 .061-.124.026-.172-.02-.026-.02-.025-.03.009m-8.185.091c0 .085.018.134.036.103.014-.022-.005-.163-.023-.174-.007-.005-.013.027-.013.071m8.094.141c-.02.052-.01.156.013.147.016-.006.023-.031.023-.09 0-.078-.017-.105-.036-.057m-8.001.088c.002.047.012.077.025.08.017.006.02-.005.013-.056-.013-.097-.044-.116-.038-.024m7.912.11c-.02.033-.017.132.005.132.016 0 .023-.02.027-.072.004-.063-.012-.093-.032-.06m-7.827.015a.313.313 0 00.016.13c.022.022.034-.02.023-.081-.008-.051-.034-.083-.039-.049m7.733.18c-.005.023-.011.05-.014.058-.003.01.001.026.009.038.02.03.043-.01.043-.072 0-.062-.026-.079-.038-.024m-7.643 0c-.008.063.019.143.04.12.014-.013-.008-.13-.024-.13-.008 0-.015.004-.016.01m7.55.155c-.023.037-.024.07-.002.083.02.013.043-.02.043-.064 0-.045-.02-.054-.042-.019m-7.463.013c-.005.007 0 .035.008.062.015.041.02.045.032.023.026-.046-.013-.129-.04-.085m7.376.118a.976.976 0 01-.022.06c-.019.047-.018.049.015.049.03 0 .07-.094.052-.123-.013-.02-.036-.014-.045.014m-7.28.063c0 .05.015.065.043.047.015-.009.015-.02 0-.051-.023-.053-.043-.051-.043.004m7.177.089a.093.093 0 000 .053c.014.035.052.002.052-.045 0-.043-.039-.049-.052-.008m-7.086.002c-.028.017.017.114.06.125.016.004.03.02.03.035 0 .05.021.068.061.052.02-.008.028-.015.017-.016-.01 0-.027-.02-.035-.045-.01-.027-.028-.046-.048-.049-.022-.003-.035-.019-.042-.054-.012-.06-.016-.065-.043-.048m7.003.125c0 .041-.026.07-.063.07-.02 0-.027.012-.027.039 0 .02-.01.041-.023.046-.027.01-.015.036.017.036.012 0 .03-.02.038-.045.01-.028.03-.05.05-.054a.065.065 0 00.044-.044.65.65 0 01.018-.059c.006-.017 0-.024-.023-.024s-.031.01-.031.035m-6.823.137c0 .042.02.06.054.048.02-.008.019-.014-.004-.046-.035-.048-.05-.048-.05-.002m6.631.09c-.041.043-.042.048-.004.058.04.01.069-.026.051-.064-.013-.028-.014-.028-.047.006m-6.534-.002c-.013.033.003.075.026.067.028-.009.03-.032.006-.064-.02-.028-.022-.028-.032-.003m6.444.1c-.028.045-.023.064.015.058.024-.003.035-.016.039-.046.005-.05-.026-.056-.054-.011m-6.366.006c-.011.03.031.064.053.042.013-.012.012-.023-.002-.04-.024-.029-.04-.03-.05-.002m.097.089c-.014.017-.013.025.005.04.035.03.068-.006.036-.038-.02-.02-.026-.02-.041-.002m6.177-.002c-.03.03-.021.06.016.055a.043.043 0 00.038-.04c.006-.036-.024-.045-.054-.015m-6.095.094c-.011.03.032.063.054.041.012-.012.011-.022-.003-.04-.024-.028-.04-.029-.05-.001m5.99 0c-.027.031-.024.053.008.053s.063-.027.063-.055c0-.026-.048-.024-.071.003m-.064.075c-.01.012-.028.023-.04.023-.011 0-.02.006-.02.015 0 .008.02.015.045.015.038 0 .045-.006.045-.038 0-.044-.005-.046-.03-.015m-5.83.014c-.015.017-.012.024.009.036.03.015.065.008.065-.013 0-.028-.056-.045-.075-.023m.096.073c-.005.014-.004.031 0 .04.013.02.1.02.1 0 0-.007-.009-.014-.019-.014s-.03-.011-.044-.025c-.025-.022-.028-.022-.037 0m5.633.003a.074.074 0 01-.05.022c-.02 0-.029.01-.029.036 0 .03-.008.038-.048.042-.032.003-.05.013-.054.03-.01.052.1.019.126-.037a.084.084 0 01.052-.041c.023-.006.039-.021.042-.042.005-.038-.011-.042-.04-.01m-5.533.097c0 .031.007.036.08.052.03.006.04.003.04-.014 0-.013-.013-.023-.029-.023a.085.085 0 01-.051-.023c-.03-.03-.04-.028-.04.008m.143.104c-.013.022.052.052.07.034.01-.008.011-.023.006-.032-.013-.02-.064-.021-.076-.002m5.103.007c-.013.016-.011.023.007.03.03.011.086-.017.074-.037-.013-.02-.06-.017-.08.007m-4.986.077c-.013.034-.001.04.064.034l.058-.004-.048-.027c-.058-.032-.063-.032-.074-.003m4.883-.002c-.034.01-.05.025-.05.045 0 .024.005.026.019.012a.084.084 0 01.051-.018c.037 0 .062-.026.041-.043-.007-.006-.035-.004-.061.004m-4.745.098c-.012.02.074.046.099.03.017-.012.017-.016-.002-.028-.028-.019-.086-.02-.097-.002m4.569.007c-.027.019-.026.02.007.029.037.01.09-.011.09-.035 0-.022-.065-.018-.097.006m-4.424.087c.007.02.1.045.122.032.021-.013-.008-.03-.07-.041-.044-.008-.056-.006-.052.009m4.299-.007c-.049.006-.063.024-.034.042.02.012.12-.02.12-.039 0-.007-.008-.012-.018-.011l-.068.008m-4.129.094c-.01.017.004.024.078.036.044.008.081-.01.054-.025-.03-.017-.123-.025-.132-.01m3.952-.002c-.059.013-.05.04.013.035.065-.005.089-.015.078-.033-.01-.017-.022-.017-.09-.002m-3.76.095c-.008.014.112.046.13.034.032-.02.012-.034-.054-.04-.038-.003-.072 0-.075.006m3.51.012c0 .028.04.032.092.01l.051-.023h-.071c-.04-.001-.071.005-.071.013m-3.292.075c-.04.012-.03.02.046.036.042.01.134-.01.111-.024a.298.298 0 00-.157-.012m3.119-.005c-.07.016-.076.024-.03.037.054.016.131.002.123-.022-.006-.02-.047-.026-.093-.015m-.256.091c-.141.01-.138.034.005.034.1 0 .123-.004.123-.022 0-.013-.009-.021-.019-.02-.01.002-.06.005-.109.008m-2.63.018a.722.722 0 00.226.018c.025-.002.026-.005.007-.017-.029-.018-.252-.02-.232-.001m.371.072c-.06.012-.036.03.053.04.086.009.205-.006.176-.023a.812.812 0 00-.229-.017m1.86 0c-.087.01-.103.022-.045.036.06.015.21.002.21-.018 0-.008-.016-.014-.036-.014a.294.294 0 01-.057-.005.297.297 0 00-.072.001m-1.41.092c-.018.003-.03.011-.025.019.012.02 1.145.018 1.157-.001.005-.009-.006-.016-.026-.017a51.398 51.398 0 00-1.105-.001" id="svg_20"/></g></g></svg>