<svg xmlns="http://www.w3.org/2000/svg" width="38" height="24" fill="none" aria-labelledby="pi-pivo" role="img" viewBox="0 0 38 24"><title id="pi-pivo">Pivo</title><path fill="#fff" d="M0 0h38v24H0z"/><path fill="#25D0C5" d="M19.58 17.25 17 8.31h2l2.16 7.51 2.16-7.51h2l-2.62 8.94zM8 15.52a2.65 2.65 0 1 0 0-5.3 2.65 2.65 0 0 0 0 5.3m.15-7.2a4.39 4.39 0 0 1 4.35 4.55 4.4 4.4 0 0 1-4.35 4.55 3.83 3.83 0 0 1-2.94-1.33v3.59H3.3V8.32H5V10a3.87 3.87 0 0 1 3.17-1.68zM14 17.25V8.31h1.95v8.94zm16.19-7.06a2.69 2.69 0 1 0 1.01.2c-.32-.13-.67-.2-1.02-.2zm0 7.25a4.57 4.57 0 1 1 1.73-.35 4.5 4.5 0 0 1-1.74.35zM16.33 5.73A1.36 1.36 0 1 1 15 4.32a1.39 1.39 0 0 1 1.33 1.41"/></svg>