<svg xmlns="http://www.w3.org/2000/svg" role="img" viewBox="0 0 38 24" width="38" height="24" aria-labelledby="pi-PIX"><title id="pi-PIX">PIX</title><path d="M38.132.13h-38v24h38v-24z" fill="#fff"/><path d="M16.18 16.87c-.135 0-.135-.135-.135-.135V10.9c0-1.221.95-2.171 2.171-2.171h1.764c1.222 0 2.172.95 2.172 2.17v1.493c0 1.221-.95 2.171-2.172 2.171h-2.85c-.135 0-.135-.136-.135-.136 0-.135.135-.135.135-.135h2.85c1.086 0 1.9-.814 1.9-1.9v-1.492c0-.95-.814-1.9-1.9-1.9h-1.764c-1.086 0-1.9.814-1.9 1.9v5.834l-.136.136zM24.188 14.564c-.136 0-.136-.136-.136-.136V9.68c0-.407-.272-.679-.679-.679h-.814c-.136 0-.136-.135-.136-.135l.136-.136h.814c.543-.136.95.407.95.95v4.748c0 .136-.136.136-.136.136z" fill="#98989C"/><path d="M23.916 8.187l-.407-.407c-.136-.136-.136-.271 0-.271l.407-.407c.136-.136.271-.136.271 0l.408.407c.135.135.135.271 0 .271l-.272.407c-.136.136-.271.136-.407 0z" fill="#4BB8A9"/><path d="M26.359 14.564h-.679c-.135 0-.135-.136-.135-.136 0-.135.135-.135.135-.135h.815c.407 0 .678-.136.95-.407l1.764-1.764c.136-.136.407-.271.543-.271.271 0 .407.135.543.27l1.764 1.765c.271.271.543.407.95.407h.678c.136 0 .136.135.136.135 0 .136-.136.136-.136.136h-.678c-.407 0-.814-.136-1.221-.543l-1.765-1.764h-.271c-.136 0-.272 0-.272.136l-1.764 1.764a2.293 2.293 0 01-1.357.407zM26.359 8.594h-.679c-.135 0-.135.136-.135.136l.135.136h.815c.407 0 .678.135.95.407l1.764 1.763c.136.136.407.272.543.272.271 0 .407-.136.543-.272l1.764-1.763c.271-.272.543-.407.95-.407h.678c.136 0 .136-.136.136-.136 0-.136-.136-.136-.136-.136h-.678c-.407 0-.814.136-1.221.543L30.023 10.9c-.136.135-.271.135-.271.135-.136 0-.272 0-.272-.135l-1.764-1.764c-.407-.271-.814-.543-1.357-.543z" fill="#98989C"/><path d="M6.273 15.242c.407 0 .815-.135 1.086-.407l1.493-1.492c.136-.136.271-.136.407 0l1.493 1.492c.271.272.678.407 1.085.407h.272l-1.9 1.9c-.543.543-1.493.543-2.171 0l-1.9-1.9h.135zM11.702 9.951c-.407 0-.815.136-1.086.407L9.123 11.85c-.136.136-.271.136-.407 0l-1.493-1.492c-.271-.271-.543-.407-.95-.407h-.271l1.9-1.9c.543-.542 1.493-.542 2.171 0l1.9 1.9h-.271z" fill="#4BB8A9"/><path d="M4.509 11.58l1.086-1.086h.678c.272 0 .543.135.679.271l1.493 1.492c.135.136.271.136.543.136.135 0 .27 0 .407-.136l1.492-1.492c.136-.136.408-.271.68-.271h.678l1.221 1.085c.543.543.543 1.493 0 2.171l-1.086 1.085h-.678c-.272 0-.543-.135-.679-.27l-1.628-1.493a.656.656 0 00-.95 0l-1.493 1.492a1.037 1.037 0 01-.679.271h-.678L4.509 13.75c-.679-.678-.679-1.628 0-2.17z" fill="#4BB8A9"/><path d="M17.266 16.056h-.271v.408h.271a.292.292 0 00.272-.272c0-.136-.136-.136-.272-.136zm-.271.815v-.814h.543c.135 0 .135.135.135.27 0 .137 0 .272-.135.272h-.543v.272zM18.08 16.056c-.135 0-.271 0-.271.272 0 .136.136.271.271.271.136 0 .272 0 .272-.271s-.136-.271-.272-.271zm.272.543s-.136.136-.272.136c-.135 0-.135 0-.271-.136-.136 0-.136-.135-.136-.271s0-.271.136-.271c0 0 .136-.136.271-.136.136 0 .136 0 .272.136.136 0 .136.135.136.27 0 0 0 .137-.136.272zM19.302 16.6l-.272-.544-.271.543-.271-.678h.135l.136.543.271-.543.272.543.136-.543h.135l-.271.678zM19.98 16.056a.292.292 0 00-.271.272h.543c-.136-.271-.136-.271-.272-.271zm0 .543c-.135 0-.135 0-.271-.135 0 0-.136-.136-.136-.272s0-.271.136-.271h.543c.136 0 .136.136.136.271h-.543c-.136.272-.136.272.135.407 0-.135.136-.135.272-.135v.135h-.272z" fill="#98989C"/><path d="M20.387 16.6v-.68H20.796v.136h-.272l-.136.543z" fill="#98989C"/><path d="M21.202 16.056a.292.292 0 00-.272.272h.543c0-.271-.136-.271-.271-.271zm0 .543c-.136 0-.136 0-.272-.135 0 0-.135-.136-.135-.272s0-.271.135-.271h.543c.136 0 .136.136.136.271h-.543c-.136.272-.136.272.136.407.135-.135.271-.135.271-.135v.135h-.271zM22.152 16.056h-.272a.292.292 0 00-.271.272c0 .136.136.271.271.271h.272v-.543zm0 .543H21.745c-.136-.135-.136-.271-.136-.271 0-.136 0-.271.136-.271h.543v-.272h.135l-.271.814zM23.238 16.056h-.272v.408h.271a.292.292 0 00.272-.272c0-.136-.136-.136-.271-.136zm.135.543h-.543v-.95h.136v.272H23.373c.136 0 .136.136.136.271 0 .136 0 .272-.136.407zM23.645 16.87c0-.135 0-.135 0 0 .135-.135.271-.135.271-.135l-.271-.678h.135l.272.542.271-.543h.136l-.271.679c-.272 0-.408.136-.543.136zM25.137 16.192h-.27v.272h.27c.136 0 .272 0 .272-.136s-.136-.136-.271-.136zm0-.271h-.135v.271h.136c.135 0 .271 0 .271-.136-.136-.135-.136-.135-.271-.135zm.272.543h-.814v-.814h.542l.136.135c0 .136 0 .136-.136.136.136 0 .136.136.136.271.272.272.272.272.136.272zM26.223 16.328h-.271c-.136 0-.136 0-.136.136 0 0 0 .135.136.135 0-.135.135-.135.271-.271zm0 .271H25.816v-.135c0-.136 0-.136.136-.136h.543c0-.136 0-.136-.272-.136h-.271v-.136h.543s.135.136.135.272l-.407.271z" fill="#98989C"/><path d="M27.038 16.6v-.408c0-.136 0-.136-.136-.136h-.272v.408h-.135v-.679h.543v.814zM27.58 16.6h-.271c-.136 0-.136-.136-.136-.272s0-.271.136-.271H27.716v.135h-.136c-.135 0-.271 0-.271.136s0 .136.136.136h.271v.135h-.136zM28.395 16.056c-.136 0-.272 0-.272.136s0 .272.272.272c.135 0 .271 0 .271-.136-.136-.136-.136-.271-.271-.271zm.271.543h-.543c-.136 0-.136-.135-.136-.271s0-.271.136-.271h.543c.136 0 .136.135.136.27 0 0-.136.137-.136.272zM29.616 16.6c-.136 0-.136 0-.271-.136-.136-.136-.136-.272-.136-.407 0-.136 0-.272.136-.407.135-.136.271-.136.271-.136h.272v.136h-.272c-.271 0-.271.135-.271.27 0 .136.135.272.271.272h.407v.136c-.135.271-.271.271-.407.271zM30.43 16.056c-.135 0-.135 0-.135.136h.407c-.136-.136-.136-.136-.272-.136zm0 .543c-.135 0-.135 0-.271-.135-.136 0-.136-.136-.136-.272s0-.271.136-.271h.543c.135.136.135.136.135.271h-.542c0 .272 0 .272.135.407.136-.135.272-.135.407-.135v.135h-.407zM31.516 16.6v-.408c0-.136 0-.136-.136-.136h-.271v.408h-.136v-.679h.543v.814zM32.059 16.6c-.136 0-.136 0-.136-.136V16.057h-.135v-.136h.135v-.136h.136v.136h.271v.136h-.271V16.463h.271v.135h-.271zM32.33 16.6v-.68H32.737v.136h-.27v.408h-.137v.135zM33.28 16.328h-.271c-.136 0-.136 0-.136.136 0 0 0 .135.136.135.136-.135.271-.135.271-.271zm.136.271H33.01v-.135c0-.136 0-.136.136-.136h.543c0-.136 0-.136-.272-.136h-.271v-.136h.543s.135.136.135.272l-.407.271z" fill="#98989C"/><path d="M33.823 15.65h-.136v.95h.136v-.95z" fill="#98989C"/></svg>