<svg xmlns="http://www.w3.org/2000/svg" width="38" height="24" fill="none" aria-labelledby="pi-pix" role="img" viewBox="0 0 38 24"><title id="pi-pix">Pix</title><path fill="#fff" d="M0 0h38v24H0z"/><path fill="#939598" fill-rule="evenodd" d="M18.12 8.25c-1.2 0-2.16.93-2.16 2.07v6.88a.22.22 0 1 1-.43 0v-6.88c0-1.39 1.17-2.5 2.6-2.5h2.1a2.55 2.55 0 0 1 2.59 2.5v1.47c0 1.39-1.17 2.5-2.6 2.5h-2.97a.22.22 0 1 1 0-.43h2.97c1.2 0 2.17-.93 2.17-2.07v-1.47c0-1.13-.96-2.07-2.16-2.07h-2.1Zm4.85-.22c0-.12.1-.22.22-.22h.91a1.18 1.18 0 0 1 1.19 1.16v5.14a.22.22 0 1 1-.43 0V8.97a.7.7 0 0 0-.22-.51.78.78 0 0 0-.54-.21h-.91a.22.22 0 0 1-.22-.22" clip-rule="evenodd"/><path fill="#32BCAD" d="m24.88 7.23-.41-.4a.26.26 0 0 1-.08-.18.25.25 0 0 1 .08-.18l.41-.4a.27.27 0 0 1 .38 0l.41.4a.25.25 0 0 1 .08.18.25.25 0 0 1-.08.18l-.41.4a.26.26 0 0 1-.2.08.27.27 0 0 1-.18-.08"/><path stroke="#939598" stroke-linecap="round" stroke-linejoin="round" stroke-miterlimit="10" stroke-width=".43" d="M26.83 8.02h.9c.48 0 .92.18 1.25.5l2.12 2.05a.7.7 0 0 0 .5.2.73.73 0 0 0 .5-.2l2.1-2.04c.34-.32.79-.5 1.25-.5h.74"/><path fill="#939598" fill-rule="evenodd" d="M31.6 11.54a.5.5 0 0 0-.35.14l-2.12 2.04a2 2 0 0 1-1.4.56h-.9a.22.22 0 0 1 0-.43h.9c.42 0 .81-.16 1.1-.44l2.12-2.04a.92.92 0 0 1 .65-.26.94.94 0 0 1 .65.26m0 0 2.1 2.04c.3.27.7.43 1.1.43h.74a.22.22 0 0 1 0 .43h-.74a2 2 0 0 1-1.4-.55l-2.1-2.04a.5.5 0 0 0-.35-.14" clip-rule="evenodd"/><path fill="#32BCAD" d="M10.34 15.37c-.45 0-.88-.17-1.2-.48L7.4 13.21a.34.34 0 0 0-.46 0L5.2 14.9a1.7 1.7 0 0 1-1.2.48h-.35l2.2 2.12c.7.67 1.8.67 2.5 0l2.2-2.13h-.2ZM4 9.44c.45 0 .88.17 1.2.48l1.74 1.68a.33.33 0 0 0 .46 0l1.74-1.67a1.7 1.7 0 0 1 1.2-.48h.21l-2.2-2.13a1.8 1.8 0 0 0-2.5 0l-2.2 2.12h.34Z"/><path fill="#32BCAD" d="m12.38 11.2-1.33-1.28a.3.3 0 0 1-.1.02h-.6c-.32 0-.63.12-.85.34l-1.74 1.67a.83.83 0 0 1-.59.24.86.86 0 0 1-.59-.24l-1.74-1.68a1.22 1.22 0 0 0-.85-.34h-.74l-.1-.01-1.33 1.29a1.66 1.66 0 0 0 0 2.4l1.34 1.3a.3.3 0 0 1 .09-.02h.74c.32 0 .62-.13.85-.34l1.74-1.68c.32-.3.87-.3 1.18 0l1.74 1.67c.22.22.53.34.84.34h.61c.03 0 .07 0 .1.02l1.33-1.29c.69-.66.69-1.74 0-2.4"/></svg>