<svg viewBox="0 0 38 24" width="38" height="24" xmlns="http://www.w3.org/2000/svg" xmlns:bx="https://boxy-svg.com"><title id="pi-pix">Pix</title><path fill="#000" opacity=".07" d="M35 0H3C1.3 0 0 1.301 0 3v18c0 1.7 1.4 3 3 3h32c1.7 0 3-1.3 3-3V3c0-1.699-1.4-3-3-3z"/><path fill="#fff" d="M35.444.5c1.131 0 2.056.941 2.056 2.091v18.818c0 1.15-.925 2.091-2.056 2.091H2.556C1.425 23.5.5 22.559.5 21.409V2.591C.5 1.441 1.425.5 2.556.5h32.888" bx:origin="0.5 0.5"/><g transform="matrix(.15189 0 0 .15428 -80.55 1.79)" id="layer1"><path d="M633.421 99.49V51.164c0-8.892 7.208-16.1 16.1-16.1l14.268.022c8.865.017 16.043 7.21 16.043 16.075v10.286c0 8.892-7.208 16.1-16.1 16.1h-20.161" id="path2356" fill="none" stroke="#939598" stroke-width="2.976" stroke-linecap="round" stroke-linejoin="round" stroke-miterlimit="10" stroke-dasharray="none" stroke-opacity="1"/><path d="M683.82 35.059h6.189a6.607 6.607 0 016.606 6.607v36.098" id="path2360" fill="none" stroke="#939598" stroke-width="2.976" stroke-linecap="round" stroke-linejoin="round" stroke-miterlimit="10" stroke-dasharray="none" stroke-opacity="1"/><path d="M695.289 29.466l-2.807-2.807a1.783 1.783 0 010-2.522l2.805-2.805a1.786 1.786 0 012.525 0l2.805 2.805a1.783 1.783 0 010 2.522l-2.806 2.807a1.783 1.783 0 01-2.522 0" id="path2364" fill="#32bcad" fill-opacity="1" fill-rule="nonzero" stroke="none" stroke-width=".353"/><path d="M708.49 35.027h6.137c3.158 0 6.186 1.254 8.419 3.486l14.356 14.357a4.762 4.762 0 006.735 0l14.304-14.304a11.906 11.906 0 018.418-3.487h4.99" id="path2368" fill="none" stroke="#939598" stroke-width="2.976" stroke-linecap="round" stroke-linejoin="round" stroke-miterlimit="10" stroke-dasharray="none" stroke-opacity="1"/><path d="M708.49 77.448h6.137c3.158 0 6.186-1.254 8.419-3.487l14.356-14.356a4.762 4.762 0 016.735 0l14.304 14.304a11.906 11.906 0 008.418 3.487h4.99" id="path2372" fill="none" stroke="#939598" stroke-width="2.976" stroke-linecap="round" stroke-linejoin="round" stroke-miterlimit="10" stroke-dasharray="none" stroke-opacity="1"/><path d="M596.827 86.62c-3.08 0-5.977-1.2-8.156-3.377l-11.777-11.777c-.827-.829-2.268-.826-3.094 0l-11.82 11.82a11.463 11.463 0 01-8.156 3.377h-2.321l14.916 14.916c4.658 4.658 12.21 4.658 16.869 0l14.958-14.959z" id="path2376" fill="#32bcad" fill-opacity="1" fill-rule="nonzero" stroke="none" stroke-width=".353"/><path d="M553.824 44.963c3.08 0 5.977 1.2 8.156 3.377l11.82 11.822a2.19 2.19 0 003.094-.001l11.777-11.778a11.463 11.463 0 018.156-3.377h1.419l-14.958-14.958c-4.659-4.658-12.211-4.658-16.87 0l-14.915 14.915z" id="path2380" fill="#32bcad" fill-opacity="1" fill-rule="nonzero" stroke="none" stroke-width=".353"/><path d="M610.618 57.379l-9.039-9.04c-.199.08-.414.13-.642.13h-4.11a8.123 8.123 0 00-5.706 2.364L579.345 62.61a5.637 5.637 0 01-3.997 1.654 5.637 5.637 0 01-3.997-1.653l-11.821-11.82a8.121 8.121 0 00-5.706-2.365h-5.054c-.215 0-.417-.05-.607-.122l-9.075 9.075c-4.659 4.658-4.659 12.21 0 16.869l9.075 9.075c.19-.072.392-.123.607-.123h5.054a8.122 8.122 0 005.706-2.364l11.82-11.82c2.136-2.134 5.86-2.135 7.995.002l11.776 11.775a8.123 8.123 0 005.706 2.365h4.11c.228 0 .443.05.642.13l9.04-9.04c4.658-4.659 4.658-12.21 0-16.87" id="path2384" fill="#32bcad" fill-opacity="1" fill-rule="nonzero" stroke="none" stroke-width=".353"/><path d="M645.69 95.381c-.666 0-1.443.161-2.21.338v2.945c.531.194 1.139.288 1.721.288 1.477 0 2.177-.499 2.177-1.8 0-1.222-.573-1.77-1.687-1.77m-2.71 5.468v-5.823h.406l.042.253c.683-.16 1.628-.371 2.304-.371.549 0 1.072.083 1.51.438.507.414.667 1.08.667 1.806 0 .76-.253 1.478-.945 1.874-.481.27-1.13.38-1.713.38-.6 0-1.173-.093-1.773-.27v1.713z" id="path2388" fill="#939598" fill-opacity="1" fill-rule="nonzero" stroke="none" stroke-width=".353"/><path d="M651.618 95.364c-1.477 0-2.136.464-2.136 1.764 0 1.257.65 1.823 2.136 1.823 1.468 0 2.126-.456 2.126-1.756 0-1.257-.65-1.831-2.126-1.831m1.898 3.587c-.49.354-1.147.456-1.898.456-.768 0-1.427-.11-1.908-.456-.54-.38-.76-1.004-.76-1.789 0-.777.22-1.409.76-1.798.481-.345 1.14-.456 1.908-.456.759 0 1.409.11 1.898.456.55.389.76 1.021.76 1.789 0 .785-.22 1.419-.76 1.798" id="path2392" fill="#939598" fill-opacity="1" fill-rule="nonzero" stroke="none" stroke-width=".353"/><path d="M660.508 99.289l-1.646-3.536h-.034l-1.62 3.536h-.448l-1.755-4.263h.549l1.46 3.579h.034l1.586-3.579h.455l1.63 3.579h.033l1.427-3.579h.531l-1.755 4.263z" id="path2396" fill="#939598" fill-opacity="1" fill-rule="nonzero" stroke="none" stroke-width=".353"/><path d="M665.894 95.356c-1.367 0-1.832.607-1.916 1.485h3.832c-.042-.97-.54-1.485-1.916-1.485m-.017 4.05c-.82 0-1.35-.117-1.772-.472-.498-.43-.667-1.055-.667-1.772 0-.684.228-1.41.793-1.823.473-.329 1.055-.43 1.663-.43.549 0 1.181.059 1.704.413.617.414.735 1.14.735 1.966h-4.372c.017.878.304 1.655 1.958 1.655.785 0 1.519-.127 2.203-.245v.447c-.71.127-1.494.262-2.245.262" id="path2400" fill="#939598" fill-opacity="1" fill-rule="nonzero" stroke="none" stroke-width=".353"/><path d="M669.762 99.289v-4.263h.405l.042.254c.903-.227 1.325-.371 2.119-.371h.059v.472h-.119c-.666 0-1.071.093-2.008.338v3.57z" id="path2404" fill="#939598" fill-opacity="1" fill-rule="nonzero" stroke="none" stroke-width=".353"/><path d="M675.279 95.356c-1.367 0-1.832.607-1.916 1.485h3.832c-.042-.97-.54-1.485-1.916-1.485m-.017 4.05c-.819 0-1.35-.117-1.772-.472-.499-.43-.667-1.055-.667-1.772 0-.684.228-1.41.793-1.823.473-.329 1.055-.43 1.663-.43.549 0 1.182.059 1.704.413.617.414.735 1.14.735 1.966h-4.372c.017.878.304 1.655 1.958 1.655.785 0 1.519-.127 2.203-.245v.447c-.71.127-1.494.262-2.245.262" id="path2408" fill="#939598" fill-opacity="1" fill-rule="nonzero" stroke="none" stroke-width=".353"/><path d="M683.173 95.652a5.112 5.112 0 00-1.722-.288c-1.476 0-2.177.499-2.177 1.798 0 1.232.574 1.772 1.687 1.772.667 0 1.444-.16 2.212-.33zm.093 3.637l-.042-.254c-.684.16-1.63.372-2.305.372-.548 0-1.071-.076-1.51-.439-.507-.414-.667-1.08-.667-1.806 0-.76.253-1.477.945-1.865.481-.279 1.131-.388 1.722-.388.59 0 1.165.101 1.764.27v-1.95h.498v6.06z" id="path2412" fill="#939598" fill-opacity="1" fill-rule="nonzero" stroke="none" stroke-width=".353"/><path d="M690.972 95.381c-.667 0-1.443.161-2.211.338v2.937c.54.202 1.14.296 1.722.296 1.476 0 2.176-.499 2.176-1.8 0-1.222-.573-1.77-1.687-1.77m1.274 3.645c-.48.27-1.13.38-1.713.38a6.07 6.07 0 01-1.907-.321l-.026.203h-.338v-6.06h.499v2.034c.683-.151 1.603-.354 2.253-.354.55 0 1.072.083 1.51.438.507.414.667 1.08.667 1.806 0 .76-.253 1.478-.945 1.874" id="path2416" fill="#939598" fill-opacity="1" fill-rule="nonzero" stroke="none" stroke-width=".353"/><path d="M693.852 100.926v-.464c.245.025.473.042.634.042.616 0 .987-.177 1.333-.878l.16-.337-2.228-4.263h.574l1.908 3.68h.033l1.815-3.68h.565l-2.397 4.786c-.438.87-.911 1.156-1.78 1.156-.195 0-.405-.017-.617-.042" id="path2420" fill="#939598" fill-opacity="1" fill-rule="nonzero" stroke="none" stroke-width=".353"/><path d="M705.51 96.858h-1.655v1.494h1.662c1.14 0 1.57-.127 1.57-.751 0-.668-.59-.743-1.578-.743m-.303-2.422h-1.35v1.519h1.358c1.122 0 1.57-.135 1.57-.768 0-.675-.566-.751-1.578-.751m2.565 4.448c-.608.388-1.342.405-2.684.405h-2.523v-5.781h2.464c1.156 0 1.865.016 2.456.371.422.253.59.641.59 1.148 0 .607-.252 1.013-.911 1.283v.033c.743.17 1.224.55 1.224 1.368 0 .556-.202.92-.616 1.173" id="path2424" fill="#939598" fill-opacity="1" fill-rule="nonzero" stroke="none" stroke-width=".353"/><path d="M713.436 97.5a17.866 17.866 0 00-1.536-.068c-.87 0-1.174.177-1.174.574 0 .371.254.574.92.574.557 0 1.224-.126 1.79-.254zm.253 1.789l-.034-.254c-.726.178-1.57.372-2.312.372-.457 0-.946-.06-1.292-.313-.32-.227-.472-.599-.472-1.03 0-.48.21-.928.717-1.155.447-.211 1.046-.228 1.595-.228.447 0 1.046.025 1.545.06v-.077c0-.667-.44-.886-1.638-.886-.464 0-1.03.024-1.57.075v-.86c.6-.05 1.275-.085 1.832-.085.742 0 1.511.06 1.983.397.49.346.583.828.583 1.46v2.524z" id="path2428" fill="#939598" fill-opacity="1" fill-rule="nonzero" stroke="none" stroke-width=".353"/><path d="M720.19 99.289v-2.355c0-.776-.396-1.055-1.106-1.055-.522 0-1.18.135-1.738.27v3.14h-1.19v-4.263h.97l.043.27c.75-.193 1.587-.387 2.279-.387.523 0 1.055.075 1.46.438.337.305.464.726.464 1.334v2.608z" id="path2432" fill="#939598" fill-opacity="1" fill-rule="nonzero" stroke="none" stroke-width=".353"/><path d="M724.734 99.407c-.549 0-1.149-.076-1.587-.447-.523-.423-.675-1.089-.675-1.807 0-.675.22-1.41.869-1.822.532-.347 1.19-.422 1.874-.422.49 0 .97.034 1.502.083v.912c-.431-.041-.946-.076-1.359-.076-1.131 0-1.662.355-1.662 1.334 0 .92.396 1.316 1.324 1.316.54 0 1.174-.1 1.79-.219v.877c-.667.136-1.393.27-2.076.27" id="path2436" fill="#939598" fill-opacity="1" fill-rule="nonzero" stroke="none" stroke-width=".353"/><path d="M730.325 95.803c-1.131 0-1.63.354-1.63 1.325 0 .97.49 1.385 1.63 1.385 1.122 0 1.611-.347 1.611-1.318 0-.97-.48-1.392-1.611-1.392m2.042 3.157c-.523.353-1.207.447-2.042.447-.853 0-1.536-.102-2.05-.447-.592-.388-.803-1.03-.803-1.798 0-.769.211-1.418.802-1.806.515-.346 1.198-.447 2.05-.447.845 0 1.52.1 2.043.447.59.388.793 1.037.793 1.797 0 .769-.21 1.419-.793 1.807" id="path2440" fill="#939598" fill-opacity="1" fill-rule="nonzero" stroke="none" stroke-width=".353"/><path d="M740.03 99.407c-.716 0-1.493-.118-2.075-.6-.692-.574-.903-1.46-.903-2.414 0-.851.27-1.864 1.173-2.455.7-.455 1.57-.548 2.447-.548.642 0 1.3.042 2.018.1v1.039a26.08 26.08 0 00-1.967-.093c-1.646 0-2.346.625-2.346 1.957 0 1.36.65 1.968 1.865 1.968.793 0 1.68-.16 2.574-.347v1.03c-.895.177-1.832.363-2.785.363" id="path2444" fill="#939598" fill-opacity="1" fill-rule="nonzero" stroke="none" stroke-width=".353"/><path d="M746.313 95.668c-.988 0-1.368.355-1.444 1.005h2.87c-.034-.692-.44-1.005-1.426-1.005m-.178 3.739c-.7 0-1.333-.084-1.806-.473-.506-.421-.684-1.055-.684-1.781 0-.65.212-1.375.803-1.797.522-.372 1.19-.447 1.865-.447.607 0 1.325.067 1.848.43.684.481.743 1.224.75 2.101h-4.05c.025.65.371 1.073 1.57 1.073.742 0 1.57-.11 2.27-.22v.835c-.819.136-1.713.279-2.566.279" id="path2448" fill="#939598" fill-opacity="1" fill-rule="nonzero" stroke="none" stroke-width=".353"/><path d="M754.206 99.289v-2.355c0-.776-.396-1.055-1.105-1.055-.524 0-1.182.135-1.739.27v3.14h-1.19v-4.263h.97l.043.27c.75-.193 1.587-.387 2.279-.387.523 0 1.055.075 1.46.438.337.305.464.726.464 1.334v2.608z" id="path2452" fill="#939598" fill-opacity="1" fill-rule="nonzero" stroke="none" stroke-width=".353"/><path d="M758.775 99.407c-.574 0-1.097-.16-1.384-.608-.21-.304-.312-.717-.312-1.291v-1.596h-.861v-.885h.86l.128-1.292h1.054v1.292h1.68v.885h-1.68v1.368c0 .33.025.608.118.81.127.287.405.397.777.397.278 0 .616-.043.852-.084v.852c-.388.076-.836.152-1.232.152" id="path2456" fill="#939598" fill-opacity="1" fill-rule="nonzero" stroke="none" stroke-width=".353"/><path d="M761.1 99.289v-4.263h.971l.043.27c.785-.219 1.367-.387 2.11-.387.033 0 .084 0 .151.008v1.013c-.135-.008-.295-.008-.413-.008-.583 0-1.021.067-1.672.22v3.147z" id="path2460" fill="#939598" fill-opacity="1" fill-rule="nonzero" stroke="none" stroke-width=".353"/><path d="M768.701 97.5a17.86 17.86 0 00-1.536-.068c-.869 0-1.173.177-1.173.574 0 .371.253.574.92.574.557 0 1.224-.126 1.79-.254zm.253 1.789l-.033-.254c-.726.178-1.57.372-2.313.372-.456 0-.945-.06-1.291-.313-.32-.227-.473-.599-.473-1.03 0-.48.212-.928.718-1.155.447-.211 1.046-.228 1.595-.228.447 0 1.046.025 1.544.06v-.077c0-.667-.439-.886-1.637-.886-.464 0-1.03.024-1.57.075v-.86c.599-.05 1.275-.085 1.832-.085.742 0 1.51.06 1.983.397.49.346.582.828.582 1.46v2.524z" id="path2464" fill="#939598" fill-opacity="1" fill-rule="nonzero" stroke="none" stroke-width=".353"/><path id="path2466" d="M771.422 93.23h1.19v6.059h-1.19z" fill="#939598" fill-opacity="1" fill-rule="nonzero" stroke="none" stroke-width=".353"/></g></svg>