<svg width="90" height="38" viewBox="0 0 90 38" fill="none" xmlns="http://www.w3.org/2000/svg">
<g clip-path="url(#clip0_3496_27035)" filter="url(#filter0_ddd_3496_27035)">
<path fill-rule="evenodd" clip-rule="evenodd" d="M43.6514 12.0781C41.427 12.0783 39.6489 13.78 39.6489 15.8497V28.3468C39.6489 28.5632 39.47 28.7387 39.2494 28.7387C39.0287 28.7387 38.8498 28.5632 38.8498 28.3468V15.8497C38.8498 13.3206 41.0134 11.2944 43.6517 11.2944L47.5536 11.3001C50.1843 11.3049 52.3393 13.3271 52.3393 15.849V18.5089C52.3393 21.0381 50.1757 23.0642 47.5374 23.0642H42.0247C41.8041 23.0642 41.6252 22.8888 41.6252 22.6724C41.6252 22.456 41.8041 22.2805 42.0247 22.2805H47.5374C49.7619 22.2805 51.5402 20.5787 51.5402 18.5089V15.849C51.5402 13.7858 49.7697 12.0879 47.5524 12.0838C47.5524 12.0838 47.5525 12.0838 47.5524 12.0838L43.6514 12.0781C43.6515 12.0781 43.6513 12.0781 43.6514 12.0781Z" fill="#939598"/>
<path fill-rule="evenodd" clip-rule="evenodd" d="M52.6306 11.685C52.6306 11.4686 52.8095 11.2931 53.0302 11.2931H54.7225C55.3029 11.2932 55.8625 11.5112 56.2772 11.9035C56.6923 12.2962 56.9284 12.8319 56.9284 13.3935V22.7285C56.9284 22.9449 56.7495 23.1203 56.5288 23.1203C56.3081 23.1203 56.1292 22.9449 56.1292 22.7285V13.3935C56.1292 13.049 55.9847 12.7156 55.7224 12.4675C55.4596 12.219 55.1002 12.0769 54.7225 12.0768C54.7225 12.0768 54.7225 12.0768 54.7225 12.0768H53.0302C52.8095 12.0768 52.6306 11.9014 52.6306 11.685Z" fill="#939598"/>
<path d="M56.1662 10.2386L55.3987 9.51274C55.3534 9.46992 55.3175 9.41908 55.293 9.36313C55.2685 9.30718 55.2558 9.24721 55.2558 9.18664C55.2558 9.12608 55.2685 9.06611 55.293 9.01015C55.3175 8.9542 55.3534 8.90336 55.3987 8.86055L56.1657 8.13517C56.2573 8.04862 56.3814 8 56.5109 8C56.6404 8 56.7645 8.04862 56.8561 8.13517L57.6231 8.86055C57.6684 8.90336 57.7043 8.9542 57.7288 9.01015C57.7533 9.06611 57.766 9.12608 57.766 9.18664C57.766 9.24721 57.7533 9.30718 57.7288 9.36313C57.7043 9.41908 57.6684 9.46992 57.6231 9.51274L56.8558 10.2386C56.8106 10.2815 56.7568 10.3154 56.6977 10.3386C56.6385 10.3618 56.5751 10.3737 56.511 10.3737C56.447 10.3737 56.3836 10.3618 56.3244 10.3386C56.2653 10.3154 56.2115 10.2815 56.1662 10.2386Z" fill="#32BCAD"/>
<path d="M59.7759 11.6767H61.4539C62.3175 11.6767 63.1454 12.001 63.756 12.5782L67.6814 16.2909C67.8023 16.4053 67.9459 16.496 68.1039 16.5579C68.2619 16.6198 68.4312 16.6516 68.6022 16.6516C68.7732 16.6516 68.9426 16.6198 69.1005 16.5579C69.2585 16.496 69.4021 16.4053 69.523 16.2909L73.4342 12.5919C74.0447 12.0145 74.8727 11.6902 75.736 11.6901H77.1004" stroke="#939598" stroke-width="0.431568" stroke-miterlimit="10" stroke-linecap="round" stroke-linejoin="round"/>
<path fill-rule="evenodd" clip-rule="evenodd" d="M68.6022 18.0637C68.4817 18.0637 68.3627 18.0861 68.2521 18.1295C68.1415 18.1728 68.042 18.2359 67.9588 18.3146L64.0334 22.0271C63.3468 22.6764 62.4188 23.0386 61.4539 23.0386H59.7759C59.5552 23.0386 59.3763 22.8632 59.3763 22.6468C59.3763 22.4304 59.5552 22.2549 59.7759 22.2549H61.4539C62.2161 22.2549 62.944 21.9686 63.4786 21.463L67.404 17.7505C67.5627 17.6005 67.7503 17.4822 67.9557 17.4017C68.161 17.3212 68.3807 17.28 68.6022 17.28C68.8237 17.28 69.0434 17.3212 69.2488 17.4017C69.4542 17.4822 69.6417 17.6005 69.8004 17.7505M69.8004 17.7505L73.7116 21.4495C74.2461 21.955 74.9741 22.2415 75.736 22.2415H77.1004C77.3211 22.2415 77.5 22.4169 77.5 22.6333C77.5 22.8497 77.3211 23.0252 77.1004 23.0252H75.736C74.7713 23.0251 73.8433 22.6628 73.1569 22.0136L69.2457 18.3146C69.1625 18.2359 69.0629 18.1728 68.9523 18.1295C68.8417 18.0861 68.7227 18.0637 68.6022 18.0637" fill="#939598"/>
<path d="M29.2433 25.0187C28.4011 25.0187 27.609 24.7083 27.0132 24.1454L23.7929 21.0998C23.5668 20.8854 23.1728 20.8862 22.9469 21.0998L19.7149 24.1565C19.4227 24.4342 19.0751 24.6544 18.6923 24.8043C18.3095 24.9542 17.8991 25.0308 17.4848 25.0298H16.8501L20.9287 28.887C22.2023 30.0916 24.2673 30.0916 25.5413 28.887L29.6313 25.0187H29.2433Z" fill="#32BCAD"/>
<path d="M17.4848 14.2462C18.3269 14.2462 19.1191 14.5565 19.7149 15.1194L22.9469 18.1766C23.0592 18.2825 23.2114 18.342 23.37 18.342C23.5286 18.3419 23.6807 18.2824 23.7929 18.1764L27.0132 15.1306C27.3054 14.8528 27.653 14.6327 28.0358 14.4828C28.4186 14.3329 28.829 14.2562 29.2433 14.2573H29.6313L25.5413 10.3891C24.2673 9.18458 22.2024 9.18458 20.9284 10.3891L16.8501 14.2462H17.4848Z" fill="#32BCAD"/>
<path d="M33.0142 17.4569L30.5427 15.1192C30.4883 15.1399 30.4295 15.1528 30.3671 15.1528H29.2433C28.6584 15.1543 28.0978 15.374 27.6831 15.7641L24.4631 18.8097C24.3197 18.9455 24.1493 19.0532 23.9618 19.1266C23.7742 19.2 23.5732 19.2377 23.3702 19.2374C23.1672 19.2377 22.9662 19.2001 22.7787 19.1267C22.5911 19.0534 22.4207 18.9457 22.2773 18.8099L19.045 15.7533C18.6304 15.363 18.0697 15.1432 17.4848 15.1417H16.1028C16.0441 15.1417 15.9888 15.1287 15.9369 15.1101L13.4555 17.4569C12.1815 18.6615 12.1815 20.6144 13.4555 21.8192L15.9369 24.166C15.9888 24.1474 16.0441 24.1342 16.1028 24.1342H17.4848C18.0697 24.1327 18.6304 23.913 19.045 23.5229L22.277 20.4662C22.8611 19.9144 23.8793 19.9141 24.4631 20.4668L27.6831 23.5118C28.0977 23.902 28.6584 24.1218 29.2433 24.1234H30.3671C30.4295 24.1234 30.4883 24.1363 30.5427 24.157L33.0145 21.8192C34.2882 20.6144 34.2882 18.6617 33.0145 17.4567" fill="#32BCAD"/>
</g>
<defs>
<filter id="filter0_ddd_3496_27035" x="8.5" y="6" width="73" height="30" filterUnits="userSpaceOnUse" color-interpolation-filters="sRGB">
<feFlood flood-opacity="0" result="BackgroundImageFix"/>
<feColorMatrix in="SourceAlpha" type="matrix" values="0 0 0 0 0 0 0 0 0 0 0 0 0 0 0 0 0 0 127 0" result="hardAlpha"/>
<feOffset dy="0.5"/>
<feGaussianBlur stdDeviation="0.25"/>
<feComposite in2="hardAlpha" operator="out"/>
<feColorMatrix type="matrix" values="0 0 0 0 1 0 0 0 0 1 0 0 0 0 1 0 0 0 0.12 0"/>
<feBlend mode="normal" in2="BackgroundImageFix" result="effect1_dropShadow_3496_27035"/>
<feColorMatrix in="SourceAlpha" type="matrix" values="0 0 0 0 0 0 0 0 0 0 0 0 0 0 0 0 0 0 127 0" result="hardAlpha"/>
<feOffset dy="1"/>
<feGaussianBlur stdDeviation="1"/>
<feComposite in2="hardAlpha" operator="out"/>
<feColorMatrix type="matrix" values="0 0 0 0 1 0 0 0 0 1 0 0 0 0 1 0 0 0 0.08 0"/>
<feBlend mode="normal" in2="effect1_dropShadow_3496_27035" result="effect2_dropShadow_3496_27035"/>
<feColorMatrix in="SourceAlpha" type="matrix" values="0 0 0 0 0 0 0 0 0 0 0 0 0 0 0 0 0 0 127 0" result="hardAlpha"/>
<feOffset dy="2"/>
<feGaussianBlur stdDeviation="2"/>
<feComposite in2="hardAlpha" operator="out"/>
<feColorMatrix type="matrix" values="0 0 0 0 1 0 0 0 0 1 0 0 0 0 1 0 0 0 0.12 0"/>
<feBlend mode="normal" in2="effect2_dropShadow_3496_27035" result="effect3_dropShadow_3496_27035"/>
<feBlend mode="normal" in="SourceGraphic" in2="effect3_dropShadow_3496_27035" result="shape"/>
</filter>
<clipPath id="clip0_3496_27035">
<rect width="65" height="22" fill="white" transform="translate(12.5 8)"/>
</clipPath>
</defs>
</svg>
