<svg xmlns="http://www.w3.org/2000/svg" role="img" viewBox="0 0 38 24" width="38" height="24" aria-labelledby="pi-plata"><title id="pi-plata">Plata</title><rect x="0" y="0" width="38" height="24" rx="2" fill="#FF5D15"/><rect x=".5" y=".5" width="37" height="23" rx="1.5" stroke="#000" stroke-opacity=".07" fill="none"/><path d="M29.086 10h.954L32 14h-1.025l-1.413-3.125L28.157 14h-1.024l1.953-4zM11.571 10h.96v3.313h2.839l-.34.687H11.57v-4zM22.138 10h4.29v.688h-1.665V14h-.96v-3.313h-1.665V10zM18.52 10h.953l1.96 4H20.41l-1.413-3.125L17.59 14h-1.025l1.954-4z" fill="#fff"/><path fill-rule="evenodd" clip-rule="evenodd" d="M6.782 10.016c-.23.01-.444.032-.645.064L6 10.102V14h.96v-1.366l.146.008h.746c.274 0 .54-.021.799-.064.262-.044.5-.116.709-.218h.002c.213-.108.388-.248.522-.422.142-.185.208-.408.208-.659a.974.974 0 00-.229-.66 1.403 1.403 0 00-.542-.387c-.214-.09-.45-.15-.707-.184A5.65 5.65 0 007.883 10c-.219 0-.873.005-1.101.016zm1.58.714c.15.022.279.06.39.111l.002.002.003.001c.11.046.191.107.248.18l.002.003.003.003c.052.06.083.14.083.25a.479.479 0 01-.094.312l-.002.002-.001.001a.632.632 0 01-.263.199 1.65 1.65 0 01-.422.113c-.16.02-.324.03-.49.03H7.1a3.573 3.573 0 00-.14-.005l.001-1.225c.039-.003.082-.005.131-.006.12-.004.672-.005.806-.005.154 0 .31.011.464.034z" fill="#fff"/></svg>