<?xml version="1.0" encoding="utf-8"?>
<!-- Generator: Adobe Illustrator 21.0.0, SVG Export Plug-In . SVG Version: 6.00 Build 0)  -->
<svg version="1.1" id="图层_1" xmlns="http://www.w3.org/2000/svg" xmlns:xlink="http://www.w3.org/1999/xlink" x="0px" y="0px"
	 viewBox="0 0 38 24" style="enable-background:new 0 0 38 24;" xml:space="preserve">
<style type="text/css">
	.st0{fill:#EF0F0E;}
	.st1{fill:#FFFFFF;}
</style>
<circle class="st0" cx="19" cy="12" r="11.9"/>
<g>
	<path class="st1" d="M26.1,9c-0.1,0.2-0.3,0.3-0.4,0.5c-1.2,2.4-2.3,4.8-3.4,7.2c-0.1,0.1-0.2,0.2-0.3,0.4
		c-0.1-0.2-0.2-0.4-0.3-0.5c-1-2.2-2-4.5-3-6.7c-0.1-0.2-0.2-0.5-0.4-0.7c0,0.1,0,0.2,0,0.3c-0.1,1.9-0.1,3.8-0.2,5.7
		c0,0.2,0,0.5,0.1,0.7c0,0.3,0.3,0.5,0.6,0.5c0.1,0,0.2,0,0.3,0c0.1,0,0.2,0.1,0.2,0.2c-0.1,0.1-0.2,0.2-0.3,0.2c-0.5,0-1,0-1.5,0
		c-0.4,0-0.8,0-1.2,0c-0.1,0-0.2-0.1-0.3-0.1c0.1-0.1,0.1-0.2,0.2-0.3c0,0,0.1,0,0.1,0c0.8-0.2,0.8-0.2,0.9-1
		c0.1-1.9,0.2-3.9,0.3-5.8c0-0.5,0.1-1,0.1-1.6c0-0.5-0.2-0.7-0.7-0.8c-0.1,0-0.2,0-0.3-0.1c-0.1,0-0.2-0.1-0.2-0.2
		c0-0.1,0.1-0.2,0.2-0.2c0.7,0,1.5,0,2.2,0c0.2,1.7,1.2,3,1.8,4.4c0.5,1.1,1,2.1,1.5,3.2c0.1,0.2,0.2,0.3,0.3,0.5
		c0.2-0.4,0.4-0.8,0.6-1.2c1-2.1,2-4.2,3-6.3c0.3-0.7,0.3-0.7,1-0.7c0.4,0,0.8,0,1.2,0c0.2,0,0.3,0.1,0.3,0.2c0,0.1-0.2,0.2-0.3,0.2
		c0,0-0.1,0-0.1,0c-0.8,0.2-1,0.3-1,1.2c0,2.4,0.1,4.8,0.1,7.3c0,0.5,0.2,0.6,0.6,0.8c0.1,0,0.2,0,0.3,0.1c0.1,0,0.2,0.2,0.2,0.2
		c0,0.1-0.1,0.2-0.2,0.2c-0.3,0-0.7,0-1,0c-0.7,0-1.3,0-2,0c-0.1,0-0.3-0.1-0.3-0.2c0-0.2,0.1-0.2,0.3-0.2c0.1,0,0.2,0,0.3,0
		c0.3,0,0.5-0.2,0.5-0.5c0-0.2,0-0.4,0-0.5c0-2,0-4,0-6C26.2,9.2,26.2,9.1,26.1,9C26.1,9,26.1,9,26.1,9z"/>
	<path class="st1" d="M8.1,12.3c0.4,0,0.7,0.1,1.1,0c1.2,0,2.5,0,3.7-0.1c1.5-0.1,2.2-1.1,2.1-2.6c-0.1-1.9-1.5-2.3-2.8-2.2
		c-0.3,0-0.3,0.2-0.3,0.4c0,0.6-0.1,1.1-0.1,1.7c0,0.7,0,1.5,0,2.2c0,0.1,0,0.2,0,0.4c-0.4,0-0.8,0-1.2,0c0-0.1,0-0.2,0-0.4
		c0-1.2,0-2.4-0.1-3.6c0-0.6-0.1-0.7-0.7-0.8c-0.2,0-0.4-0.1-0.6-0.1c0,0,0-0.1,0-0.1C9.2,7,9.3,6.9,9.4,6.9c1.2,0,2.4-0.1,3.6-0.1
		c0.6,0,1.2,0.2,1.8,0.4c1.8,0.7,2.3,3.4,0.6,4.6c-0.8,0.6-1.6,0.8-2.6,1c-1.5,0.2-3,0-4.4-0.4c-0.1,0-0.1,0-0.2-0.1
		C8.2,12.3,8.1,12.3,8.1,12.3z"/>
	<path class="st1" d="M11.2,17c-0.5,0-1,0-1.5,0c-0.2,0-0.4,0-0.3-0.2c0-0.1,0.2-0.2,0.3-0.3c0,0,0.1,0,0.1,0
		c0.6-0.1,0.7-0.3,0.7-0.9c0-0.7,0-1.4,0-2.2c0-0.3,0.1-0.4,0.4-0.3c0.1,0,0.3,0,0.4,0c0.5,0,0.5,0,0.5,0.5c0,0.6,0,1.2,0,1.8
		c0,0.6,0.3,0.9,0.9,1c0.1,0,0.1,0,0.2,0c0.1,0.1,0.2,0.2,0.3,0.3C13,16.9,12.9,17,12.8,17C12.2,17,11.7,17,11.2,17z"/>
</g>
</svg>
