<svg xmlns="http://www.w3.org/2000/svg" aria-labelledby="pi-podiumcadeaukaart" role="img" viewBox="0 0 38 24">
    <title id="pi-podium_cadeaukaart">
        Podium Cadeaukaart
    </title>
    <path d="M35 0H3C1.3 0 0 1.3 0 3v18c0 1.7 1.4 3 3 3h32c1.7 0 3-1.3 3-3V3c0-1.7-1.4-3-3-3z" opacity=".07"/>
    <path fill="#b70000" d="M35 1c1.1 0 2 .9 2 2v18c0 1.1-.9 2-2 2H3c-1.1 0-2-.9-2-2V3c0-1.1.9-2 2-2h32"/>
    <path fill="none" d="M33.37 55.65H14.34c-1.37 0-2.49-1.12-2.49-2.49V34.14c0-1.37 1.12-2.49 2.49-2.49h19.02c1.37 0 2.49 1.12 2.49 2.49v19.02c.01 1.37-1.11 2.49-2.48 2.49z"/>
    <path d="M34.5 15.49c-.59-.01-1.09-.19-1.52-.56-.43-.37-.69-.83-.82-1.38-.01 0-.01 0-.02.01v.09c0 .23 0 .46-.01.69-.01.67-.51 1.06-.99 1.15-.65.11-1.28-.35-1.36-1-.01-.11-.01-.23-.01-.34 0-.2 0-.41-.02-.62-.01.03-.02.05-.02.08-.06.22-.13.43-.24.63-.32.63-.83 1.02-1.51 1.19-.16.04-.33.06-.49.09h-.08c0-.03-.01-.06-.01-.09v-5.18c0-.89.6-1.59 1.47-1.75.95-.17 1.84.44 2.03 1.38.01.04.02.07.03.1h.02c.01-.03.02-.07.03-.1.16-.72.72-1.27 1.44-1.4.25-.05.5-.03.75.04.32.08.62.24.86.48.27.27.41.6.44.97.02.27.02.55.02.82v4.57c.01.04.01.08.01.13zM16.3 8.44v-.11-1.36c0-.21.04-.42.14-.61.21-.4.66-.72 1.25-.65.53.06.94.45 1.04.96.02.12.03.24.03.36v5.91c0 .46-.09.9-.33 1.29-.36.59-.86 1-1.54 1.18-.45.12-.9.07-1.33-.09-.83-.29-1.32-.88-1.52-1.72a2.22 2.22 0 01-.06-.51c0-.79-.01-1.58 0-2.36.02-1.1.85-2.06 1.93-2.25.14-.01.26-.02.39-.04zM3.51 8.47c.06 0 .09-.01.13-.01.77 0 1.53-.01 2.3 0 1.17.02 2.13.85 2.32 2 .03.18.02.37.03.56.01.48.01.97.01 1.45 0 .29-.01.57-.02.86-.02.53-.23.99-.59 1.38-.39.43-.87.68-1.44.76-.08.01-.17.02-.26.03v.11c0 .47.01.94 0 1.41s-.22.84-.64 1.07c-.71.39-1.66.01-1.81-.89-.01-.08-.02-.15-.02-.23v-2.58c0-.65.22-1.22.67-1.69.34-.35.75-.58 1.22-.68.02 0 .05-.01.09-.02v-.02c-.02 0-.05-.01-.07-.01h-.7c-.24 0-.47-.06-.68-.19-.33-.21-.5-.52-.53-.9-.02-.17-.02-.35-.02-.53 0-.54 0-1.07.01-1.61v-.27zM24.56 10.42c.19-.74.59-1.3 1.27-1.66.34-.18.71-.28 1.1-.26 0 .03.01.06.01.09 0 1.51.02 3.03-.01 4.54-.01.93-.42 1.67-1.27 2.11-1.18.62-2.6.21-3.23-.98-.17-.32-.26-.66-.27-1.01-.01-.28-.01-.56-.01-.85v-1.29c0-.49 0-.97.01-1.46.01-.55.36-.97.91-1.12.67-.19 1.46.36 1.47 1.1v.8c.01-.01.02-.01.02-.01zM13.51 11.97v.97c0 .16-.01.32-.02.47-.07.6-.33 1.1-.79 1.49-1.32 1.15-3.35.54-3.86-1.1-.07-.23-.1-.47-.1-.71v-2.25c0-1.12.76-2.08 1.85-2.33 1.23-.28 2.47.44 2.82 1.66.05.18.09.36.09.54.01.42.01.84.01 1.26zM19.23 12.01V9.76c0-.32.09-.6.31-.83.34-.37.77-.5 1.25-.37.49.14.77.48.88.97.01.05.02.11.02.17v4.57c0 .46-.2.83-.61 1.06-.76.44-1.67.01-1.84-.85-.01-.08-.01-.15-.01-.23v-2.24zM20.46 8.16c-.66.01-1.23-.53-1.23-1.23 0-.69.54-1.23 1.23-1.23s1.23.54 1.23 1.23c0 .73-.6 1.24-1.23 1.23zM32.47 17.59c.02.05.05.1.07.15.06.12.11.23.17.35l.03.06c.02.06 0 .12-.05.14-.06.03-.12.01-.15-.05-.02-.03-.04-.07-.05-.11-.07-.15-.15-.3-.21-.45-.03-.06-.06-.09-.13-.08-.03 0-.06 0-.1.01v.51c0 .03 0 .06-.01.09-.01.06-.04.08-.1.09-.06 0-.1-.03-.11-.09-.01-.03-.01-.06-.01-.08v-1.28-.07c.01-.07.05-.11.12-.11.14 0 .28-.01.42 0 .21.02.36.16.4.36.04.21-.04.41-.22.52-.03.01-.05.02-.07.04zm-.44-.21c.11 0 .21.01.3 0 .12-.01.2-.11.21-.23 0-.13-.08-.24-.2-.25-.1-.01-.2 0-.3 0-.01.15-.01.31-.01.48zM18.09 17.45v-.65c0-.11.06-.16.16-.16.11.01.22 0 .33 0 .26 0 .45.18.46.44.01.25.01.5 0 .75s-.19.42-.45.43h-.33c-.12 0-.16-.04-.16-.15-.02-.22-.02-.44-.01-.66zm.22.59h.23c.16 0 .25-.09.25-.25v-.33-.34c0-.12-.06-.21-.17-.24-.1-.03-.21-.01-.32-.01.01.39.01.77.01 1.17zM26.17 17.37c.03-.04.05-.07.07-.09.12-.18.24-.36.37-.54.02-.02.03-.05.05-.07.04-.04.1-.04.14-.01.04.03.06.08.04.13-.01.03-.03.05-.04.07-.09.13-.17.26-.27.39-.04.05-.04.1-.01.15.11.22.21.44.32.66.01.03.03.05.03.08.02.06 0 .11-.05.13-.05.03-.11.01-.14-.03-.01-.02-.02-.04-.03-.07-.09-.18-.17-.36-.26-.54-.01-.03-.03-.05-.05-.1-.07.12-.19.2-.17.36.01.09 0 .18 0 .27 0 .07-.05.11-.11.11s-.1-.04-.11-.11v-.09-1.26-.09c.01-.06.05-.09.11-.09s.1.03.11.09c.01.04.01.07 0 .11v.54zM28.03 17.91l-.09.27c-.01.02-.02.05-.03.07-.03.04-.09.06-.14.04-.05-.02-.07-.06-.06-.12 0-.02.01-.04.02-.06l.42-1.32c.01-.02.01-.05.03-.07.03-.05.07-.07.12-.07.05 0 .1.02.12.08.01.02.02.05.02.07.13.43.27.86.4 1.29.01.02.02.05.02.07.01.07-.01.11-.07.13-.06.02-.11 0-.14-.06-.02-.03-.02-.07-.04-.11-.02-.07-.04-.14-.07-.21h-.51zm.27-.82h-.02c-.06.19-.12.39-.18.59h.37c-.04-.2-.11-.39-.17-.59zM30.53 17.91h-.51c-.03.08-.05.17-.08.25-.01.03-.01.05-.03.08-.03.05-.09.07-.15.05-.05-.02-.07-.06-.06-.12 0-.02.01-.04.02-.06.14-.44.28-.87.42-1.31.01-.03.02-.05.03-.08.03-.05.07-.07.12-.07.05 0 .1.02.12.08.01.02.01.04.02.05.14.44.28.88.41 1.32.01.02.02.05.02.07.01.06-.02.11-.07.12-.06.02-.11 0-.14-.06-.02-.05-.03-.1-.05-.15-.02-.05-.03-.1-.05-.15-.01 0-.01-.01-.02-.02zm-.06-.23c-.06-.2-.12-.4-.18-.59h-.02c-.06.19-.12.39-.18.59h.38zM16.82 17.89h-.52c-.01.02-.02.04-.02.06-.02.06-.04.13-.06.2-.03.11-.09.15-.16.12-.08-.02-.09-.07-.06-.18.06-.21.13-.41.19-.62.07-.23.15-.46.22-.69.01-.02.01-.05.02-.07.02-.05.07-.08.13-.08s.1.03.12.08c.01.02.01.04.02.06.13.43.27.86.4 1.29.01.03.02.06.02.09.01.06-.02.1-.08.12-.05.02-.11-.01-.13-.06-.01-.02-.02-.05-.03-.08-.01-.08-.03-.16-.06-.24zm-.07-.23c-.06-.2-.12-.39-.18-.58h-.02c-.06.19-.12.38-.18.58h.38zM22.67 17.9h-.52c-.03.1-.06.2-.09.29-.02.07-.06.1-.13.09-.07-.01-.11-.06-.1-.12 0-.02.01-.03.01-.04.14-.45.29-.91.43-1.36.02-.06.05-.1.11-.11.08-.01.13.02.16.1.06.19.12.39.18.58.08.25.16.5.23.75.01.02.01.04.02.06.02.07-.01.12-.06.14-.07.02-.13 0-.15-.07-.03-.08-.05-.16-.08-.24.01-.03 0-.05-.01-.07zm-.45-.23h.38c-.06-.2-.12-.4-.18-.59h-.02c-.06.19-.12.38-.18.59zM20.29 16.87v.45c.03 0 .07.01.1.01h.31c.07 0 .11.04.11.11s-.04.11-.11.11h-.41v.49c.03 0 .05.01.08.01h.51c.08 0 .12.05.12.11s-.04.11-.12.11h-.69c-.08 0-.13-.04-.13-.13v-.38-.9-.07c0-.11.04-.15.15-.15H20.91c.06.01.1.06.1.12s-.04.09-.1.1h-.52c-.04.01-.06.01-.1.01zM24.88 17.32v.51c0 .22-.15.4-.35.45-.23.05-.45-.05-.54-.25-.02-.06-.04-.12-.04-.18V16.8v-.06c.01-.06.04-.09.1-.1.06 0 .1.03.11.09.01.03 0 .06 0 .08v.99c0 .04 0 .08.02.12.04.11.15.17.27.15.11-.02.2-.11.2-.22v-.42-.65c0-.08.03-.12.09-.13.07-.01.12.03.13.1v.07c.01.16.01.33.01.5zM14.2 17.44v-.36c0-.21.13-.38.32-.44.21-.06.44.02.55.19.04.06.06.13.05.2 0 .07-.03.1-.09.11-.06.01-.1-.02-.12-.07-.01-.02-.01-.04-.02-.05-.05-.15-.21-.22-.36-.14-.08.04-.12.11-.12.19v.77c0 .11.08.19.2.21.12.02.22-.03.27-.13l.03-.09c.02-.06.06-.08.13-.07.05.01.08.04.09.1.01.07-.01.14-.05.2-.13.18-.3.23-.51.2-.18-.03-.32-.16-.36-.34-.01-.04-.01-.09-.01-.13-.01-.12 0-.23 0-.35zM33.94 16.89h-.22c-.05 0-.09-.02-.11-.07-.02-.07.02-.13.09-.15h.71c.06.01.1.06.1.12s-.04.09-.1.1H34.18V18.19c-.01.07-.05.11-.12.11-.06 0-.1-.04-.11-.1v-.07-1.11c-.01-.04-.01-.08-.01-.13z" class="st3"/>
</svg>