<svg fill="none" height="24" viewBox="0 0 32 24" width="32" xmlns="http://www.w3.org/2000/svg"><path d="m28 0h-24c-2.20914 0-4 1.79086-4 4v16c0 2.2091 1.79086 4 4 4h24c2.2091 0 4-1.7909 4-4v-16c0-2.20914-1.7909-4-4-4z" fill="#ec1d24"/><path clip-rule="evenodd" d="m5.99934 5.83663.00066-3.0237c-.06189-1.56329-1.37773-2.81293-2.99319-2.81293-.04639 0-3.00116329.00346231-3.00116329.00346231s-.00099659 2.83932769-.00099659 2.84776769c0 .79999.64994788 1.45013 1.46376988 1.46895h1.33964c-1.55578.103-2.7889048 1.35675-2.80806 2.89873 0 0 .00033188 3.26379.00033188 3.26529 0 .8373.69434712 1.5158 1.55112812 1.5158.85656 0 1.5509-.6785 1.5509-1.5158 0-.0137-.0011-1.86126-.0011-1.86126 1.56397-.04749 2.82555-1.26489 2.89808-2.78631z" fill="#fff" fill-rule="evenodd" transform="translate(13 6)"/></svg>