<svg xmlns="http://www.w3.org/2000/svg" role="img" viewBox="0 0 38 24" width="38" height="24" aria-labelledby="pi-podiumcadeaukaart"><title id="pi-podiumcadeaukaart">Podium Cadeaukaart</title><path fill="#ec1d24" d="M35 0H3C1.3 0 0 1.3 0 3v18c0 1.7 1.4 3 3 3h32c1.7 0 3-1.3 3-3V3c0-1.7-1.4-3-3-3z"/><path fill="#ec1d24" d="M35 1c1.1 0 2 .9 2 2v18c0 1.1-.9 2-2 2H3c-1.1 0-2-.9-2-2V3c0-1.1.9-2 2-2h32"/><path clip-rule="evenodd" d="M23.2 12.004V8.376C23.126 6.5 21.547 5 19.608 5l-3.601.004-.001 3.417c0 .96.78 1.74 1.756 1.763h1.608c-1.867.124-3.347 1.628-3.37 3.479v3.918c0 1.005.834 1.819 1.862 1.819s1.86-.814 1.86-1.819v-2.233c1.876-.057 3.39-1.518 3.477-3.344z" fill="#fff" fill-rule="evenodd"/></svg>