<svg xmlns="http://www.w3.org/2000/svg" width="38" height="24" fill="none" aria-labelledby="pi-pointspay" role="img" viewBox="0 0 38 24"><title id="pi-pointspay">Pointspay</title><path fill="#fff" d="M0 0h38v24H0z"/><path fill="#192451" d="M17.66 10.82c0 2.12-1.55 3.82-3.5 3.82s-1.79-.4-2.36-1.05v3.73H9.93V7.24h1.88v.82A2.84 2.84 0 0 1 14.15 7c1.95 0 3.5 1.63 3.5 3.82Zm-1.87 0c0-1.06-.73-1.95-1.87-2.03h-.16a1.9 1.9 0 0 0-1.96 1.87v.16c0 1.06.74 1.95 1.88 2.03h.16a2.04 2.04 0 0 0 2.03-1.87v-.16zm10.16-3.58v7.24h-1.87v-.81a2.93 2.93 0 0 1-2.36 1.05c-1.95 0-3.5-1.62-3.5-3.82s1.55-3.82 3.5-3.82c.9 0 1.8.33 2.36 1.06v-.82h1.87zm-1.87 3.58c0-1.14-.81-2.03-1.95-2.03s-2.03.81-2.03 1.95v.16c0 1.14.81 2.04 1.95 2.04s2.03-.82 2.03-1.96zM34 7.24l-2.6 7.24c-.73 2.11-1.95 3-3.82 2.84v-1.7c1.05 0 1.54-.4 1.87-1.38l-2.93-7h2.03l1.87 4.88 1.63-4.88z"/><path fill="#A78FFF" d="M8.06 10.82A2.04 2.04 0 0 0 6.2 8.8h-.16A2.04 2.04 0 0 0 4 10.66v.16c0 1.06.73 1.95 1.87 2.03h.16a2.04 2.04 0 0 0 2.03-1.87z"/></svg>