<svg viewBox="0 0 38 24" xmlns="http://www.w3.org/2000/svg" width="38" height="24" role="img" aria-labelledby="polygon"><title id="polygon">Polygon</title><rect width="38" height="24" rx="3" fill-opacity="0.07"/><rect x="1" y="1" width="36" height="22" rx="2" fill="#fff"/><path d="M23.43,9.06a1.15,1.15,0,0,0-1.08,0l-2.52,1.48-1.71.94L15.65,13a1.15,1.15,0,0,1-1.08,0L12.64,11.8a1.09,1.09,0,0,1-.54-1V8.61a1.12,1.12,0,0,1,.54-.95l1.93-1.12a1.15,1.15,0,0,1,1.08,0l1.93,1.17a1.08,1.08,0,0,1,.54.94v1.48l1.71-1V7.62a1.12,1.12,0,0,0-.54-1L15.7,4.56a1.15,1.15,0,0,0-1.08,0L10.93,6.72a1,1,0,0,0-.54.9v4.22a1.12,1.12,0,0,0,.54.95l3.64,2.11a1.15,1.15,0,0,0,1.08,0l2.47-1.44,1.71-1L22.3,11a1.15,1.15,0,0,1,1.08,0l1.94,1.13a1.11,1.11,0,0,1,.54.94v2.25a1.1,1.1,0,0,1-.54.94l-1.89,1.13a1.15,1.15,0,0,1-1.08,0l-1.93-1.13a1.08,1.08,0,0,1-.54-.94V13.91l-1.71,1v1.48a1.12,1.12,0,0,0,.54.95l3.64,2.11a1.15,1.15,0,0,0,1.08,0l3.64-2.11a1.11,1.11,0,0,0,.54-.95V12.11a1.1,1.1,0,0,0-.54-.94Z" fill="#8247e5"/></svg>
