<svg xmlns="http://www.w3.org/2000/svg" width="38" height="24" fill="none" aria-labelledby="pi-pop-pankki" role="img" viewBox="0 0 38 24"><title id="pi-pop-pankki">POP Pankki</title><path fill="#fff" d="M0 0h38v24H0z"/><path fill="#41D87E" d="M7.23 6.64c3.27 0 5.09 1.53 5.09 4.26s-1.82 4.25-5.09 4.25h-1v2.21h-3.7V6.64zm0 5.46c.85 0 1.34-.43 1.34-1.2s-.49-1.2-1.34-1.2h-1v2.4zm17.41-.1a5.51 5.51 0 0 1-5.88 5.6 5.51 5.51 0 0 1-5.88-5.6 5.51 5.51 0 0 1 5.88-5.6 5.51 5.51 0 0 1 5.88 5.6m-3.75 0a2.13 2.13 0 1 0-1.3 1.99 2.1 2.1 0 0 0 1.3-1.99m9.48-5.36c3.27 0 5.1 1.53 5.1 4.26s-1.83 4.25-5.1 4.25h-1v2.21h-3.69V6.64zm0 5.46c.86 0 1.34-.43 1.34-1.2s-.48-1.2-1.34-1.2h-1v2.4z"/></svg>