<svg xmlns="http://www.w3.org/2000/svg" role="img" viewBox="0 0 38 24" width="38" height="24" aria-labelledby="pi-pop">
    <title id="pi-pop">pop</title>
	<rect fill="#FFFFFF" width="38" height="24"/>
    <path fill="#55B363" d="M8.41,5.65C5.97,5.71,6.18,6.87,3.35,6.89l0.04,13.86h0c1.35,0,2.45-1.1,2.44-2.46l-0.01-3.55
	c0.76,0.59,1.68,0.87,2.61,0.87c2.41-0.01,4.93-1.85,4.92-4.99C13.35,7.48,10.81,5.6,8.41,5.65z M8.37,13.49
	c-1.41,0-2.55-1.28-2.56-2.85s1.13-2.86,2.54-2.86c1.41,0,2.55,1.28,2.56,2.85S9.78,13.49,8.37,13.49z M29.7,5.59
	c-2.44,0.06-2.23,1.21-5.06,1.24l0.04,13.86c1.35,0,2.45-1.1,2.44-2.46l-0.01-3.55c0.76,0.59,1.68,0.87,2.61,0.87
	c2.41-0.01,4.93-1.85,4.92-4.99C34.64,7.41,32.1,5.53,29.7,5.59z M29.66,13.43c-1.41,0-2.55-1.28-2.56-2.85
	c0-1.57,1.13-2.86,2.54-2.86c1.41,0,2.55,1.28,2.56,2.85C32.2,12.13,31.07,13.42,29.66,13.43z M18.91,5.6
	c-2.75,0.01-4.99,2.26-4.98,5.01c0.01,2.75,2.26,4.99,5.01,4.98c2.75-0.01,4.99-2.26,4.98-5.01C23.91,7.83,21.66,5.59,18.91,5.6z
	 M18.93,13.46c-1.41,0-2.55-1.28-2.56-2.85c0-1.57,1.13-2.86,2.54-2.86c1.41,0,2.55,1.28,2.56,2.85S20.34,13.45,18.93,13.46z"/>
</svg>