<svg viewBox="0 0 38 24" xmlns="http://www.w3.org/2000/svg" role="img" width="38" height="24" aria-labelledby="pi-postepay"><title id="pi-postepay">PostePay</title><path opacity=".07" d="M35 0H3C1.3 0 0 1.3 0 3v18c0 1.7 1.4 3 3 3h32c1.7 0 3-1.3 3-3V3c0-1.7-1.4-3-3-3z" id="path3"/><path fill="#fff" d="M35 1c1.1 0 2 .9 2 2v18c0 1.1-.9 2-2 2H3c-1.1 0-2-.9-2-2V3c0-1.1.9-2 2-2h32" id="path5"/><g clip-path="url(#a)" id="g247" transform="translate(2.537 -4.45) scale(32.92551)"><path d="M1 .352H0v.295h1z" fill="#f7e122" id="path229"/><path d="M.129.44A.044.044 0 01.145.437c.01 0 .019.004.026.01.006.007.01.016.011.027.001.009 0 .017-.002.027a.067.067 0 01-.01.024.05.05 0 01-.02.02A.05.05 0 01.13.55V.535A.043.043 0 00.137.532.04.04 0 00.15.517.09.09 0 00.16.497.068.068 0 00.16.473.03.03 0 00.153.457.023.023 0 00.137.45L.128.451v-.01zM.057.59L.085.467c0-.005.002-.009.003-.014V.44h.02L.106.456A.063.063 0 01.125.442L.129.44v.011A.04.04 0 00.12.456.04.04 0 00.108.47a.09.09 0 00-.009.023C.097.503.097.51.097.515.097.522.1.526.104.53s.01.006.016.006L.13.535v.016H.125a.043.043 0 01-.02-.004.045.045 0 01-.014-.013L.078.59z" fill="#0055a3" id="path231"/><path d="M.65.456a.03.03 0 00-.008.001V.441h.003a.044.044 0 01.02-.005c.01 0 .018.003.024.01A.04.04 0 01.7.471a.08.08 0 01-.012.056.047.047 0 01-.04.023H.641V.53A.013.013 0 00.65.526.034.034 0 00.66.514a.104.104 0 00.006-.02.068.068 0 00.002-.02.02.02 0 00-.005-.013.017.017 0 00-.013-.005zM.641.457C.636.46.63.465.626.472A.057.057 0 00.618.51c0 .007.002.012.006.016A.018.018 0 00.642.53v.02A.037.037 0 01.626.547.03.03 0 01.613.533L.6.59H.566L.592.473A.352.352 0 00.598.44h.03v.014A.083.083 0 01.642.442z" fill="#0055a3" id="path233"/><path d="M.775.496H.77c-.005 0-.01 0-.014.002V.48H.78L.78.47V.465A.01.01 0 00.777.458C.775.456.772.455.768.455.763.455.759.456.757.46c0 0-.002 0-.002.002V.438h.013A.06.06 0 01.8.444a.026.026 0 01.012.021.05.05 0 01-.002.02L.802.522.799.536V.55H.77V.542.534a.042.042 0 01-.014.013V.53a.035.035 0 00.01-.008.056.056 0 00.01-.026zm-.02.002a.028.028 0 00-.011.005C.737.507.734.513.734.52c0 .003.002.006.004.008s.005.003.009.003C.75.53.753.53.755.529v.017a.037.037 0 01-.019.005.033.033 0 01-.023-.008.03.03 0 01-.01-.021A.032.032 0 01.718.49.078.078 0 01.755.48zm0-.06v.023a.02.02 0 00-.003.008H.72c0-.01.006-.018.013-.024A.058.058 0 01.755.438z" fill="#0055a3" id="path235"/><path d="M.818.59L.845.55.825.437H.86l.01.076L.91.438h.032L.874.554.854.59z" fill="#0055a3" id="path237"/><path d="M.246.45a.03.03 0 00-.008 0V.437h.01c.013 0 .023.003.03.01a.038.038 0 01.014.026c0 .01 0 .019-.003.03a.08.08 0 01-.01.025.05.05 0 01-.041.024V.537A.03.03 0 00.247.533.035.035 0 00.259.52.086.086 0 00.271.474C.27.465.267.459.263.456.26.45.253.45.246.45zm-.008 0a.047.047 0 00-.01.004.044.044 0 00-.012.015.075.075 0 00-.009.023C.205.5.205.507.205.514c0 .007.004.012.008.016s.01.006.017.006h.008V.55h-.01a.046.046 0 01-.03-.01.037.037 0 01-.014-.028c0-.01 0-.02.003-.03A.077.077 0 01.2.456.05.05 0 01.22.441.086.086 0 01.238.436v.015z" fill="#0055a3" id="path239"/><path d="M.315.513a.013.013 0 00-.001.005.01.01 0 000 .004c0 .005.002.008.005.01.003.003.008.004.014.004A.034.034 0 00.353.53.015.015 0 00.36.517C.36.514.358.511.355.51a.077.077 0 00-.017-.01.089.089 0 01-.024-.015A.02.02 0 01.306.47c0-.01.003-.017.01-.024A.054.054 0 01.35.436c.013 0 .022.002.028.006a.02.02 0 01.01.017v.01h-.02V.463C.368.459.367.455.364.453A.024.024 0 00.349.45a.027.027 0 00-.016.005.012.012 0 00-.005.011.01.01 0 00.004.008.076.076 0 00.018.01A.09.09 0 01.376.5c.003.005.006.01.006.016C.383.525.38.534.37.54a.062.062 0 01-.037.01.058.058 0 01-.029-.006.023.023 0 01-.01-.019V.52.513z" fill="#0055a3" id="path241"/><path d="M.448.55h-.01l-.01.001C.42.551.414.55.41.547.406.544.404.54.403.534v-.01L.407.509.42.454h-.02L.401.439h.02L.427.414.45.41.442.44h.024L.463.454H.44L.427.51l-.001.01v.005c0 .004 0 .006.003.007.001.002.005.002.01.002h.007L.452.533z" fill="#0055a3" id="path243"/><path d="M.518.481h.028L.547.473V.468A.018.018 0 00.54.454.028.028 0 00.523.449H.518V.436h.005c.014 0 .025.002.032.008.007.005.011.014.012.025a.1.1 0 01-.002.027H.518zm0 .07V.533A.026.026 0 00.536.516H.56A.042.042 0 01.54.542.046.046 0 01.518.55zM.49.48H.52v.015H.486a.038.038 0 00-.001.01v.008c0 .007.003.012.007.016.004.003.01.006.017.006A.02.02 0 00.52.534v.017H.507a.048.048 0 01-.03-.009.036.036 0 01-.013-.026C.463.507.464.498.466.486A.11.11 0 01.477.46a.046.046 0 01.02-.017.057.057 0 01.022-.006v.013a.026.026 0 00-.017.009A.04.04 0 00.49.48z" fill="#0055a3" id="path245"/></g></svg>