<svg xmlns="http://www.w3.org/2000/svg" width="38" height="24" aria-labelledby="pi-postpay"><title id="pi-postpay">Postpay</title><path opacity=".07" fill="#000" d="M35 0H3C1.3 0 0 1.3 0 3v18c0 1.7 1.4 3 3 3h32c1.7 0 3-1.3 3-3V3c0-1.7-1.4-3-3-3z"/><path fill="#fff" d="M35 1c1.1 0 2 .9 2 2v18c0 1.1-.9 2-2 2H3c-1.1 0-2-.9-2-2V3c0-1.1.9-2 2-2h32"/><path d="M17.18 7.871h1.482c.035.503.047 1.009.036 1.518.32-.015.638.003.952.052.041.392.047.786.018 1.183l-.053.052c-.305.018-.611.024-.917.018.006 1.247 0 2.494-.018 3.74l-.053.053a14.83 14.83 0 01-1.447 0 .334.334 0 01-.053-.088c-.017-1.235-.023-2.47-.017-3.705-.294.006-.589 0-.882-.018l-.053-.052a6.698 6.698 0 01.017-1.183c.302-.05.608-.068.918-.052-.006-.471 0-.942.017-1.412l.053-.106z" opacity=".98" clip-rule="evenodd" fill="#3ebbd2" fill-rule="evenodd"/><path d="M8.994 9.306c1.303-.03 2.225.54 2.767 1.714.414 1.343.063 2.432-1.053 3.267-1.026.567-2.038.543-3.035-.071-.922-.729-1.273-1.675-1.054-2.839.345-1.208 1.136-1.898 2.375-2.071zm.071 1.5c.725-.02 1.16.325 1.304 1.035.043.67-.249 1.117-.875 1.34-.974.038-1.432-.432-1.375-1.411.131-.507.447-.828.946-.964z" opacity=".978" clip-rule="evenodd" fill="#3ebbd2" fill-rule="evenodd"/><path d="M13.852 9.315a2.577 2.577 0 012.01.748.342.342 0 01.054.16c-.113.22-.25.428-.41.623a.76.76 0 01-.213.178c-.216-.117-.435-.23-.658-.339a.79.79 0 00-.712 0c-.206.209-.182.387.071.534.39.136.781.267 1.175.392.898.417 1.19 1.1.872 2.046-.36.596-.887.934-1.584 1.015-.735.077-1.4-.1-1.993-.534a1.926 1.926 0 01-.356-.41c.155-.292.333-.57.534-.836a.231.231 0 01.178 0 2.31 2.31 0 001.53.427c.282-.13.318-.308.107-.534a8.223 8.223 0 00-1.14-.427c-.883-.326-1.22-.948-1.013-1.868.279-.706.795-1.098 1.548-1.175z" opacity=".973" clip-rule="evenodd" fill="#3ebbd2" fill-rule="evenodd"/><path d="M2.34 16.517H.917a.153.153 0 00-.053-.071 345.11 345.11 0 010-7.01.404.404 0 01.124-.054c.38-.024.76-.024 1.139 0a.337.337 0 01.089.053c.033.168.068.334.107.499.505-.548 1.127-.756 1.868-.623 1.046.25 1.704.897 1.975 1.94.24 1.11-.05 2.053-.872 2.828-.73.538-1.525.657-2.384.356a1.805 1.805 0 01-.445-.302l-.036 2.277a.402.402 0 01-.089.107zm.997-5.765c.686-.063 1.131.233 1.334.89.126.763-.176 1.255-.907 1.477-.696.07-1.129-.232-1.3-.908-.107-.735.184-1.222.873-1.459zM21.622 16.57H20.2a.153.153 0 00-.053-.072 345.11 345.11 0 010-7.01.404.404 0 01.124-.054c.38-.024.76-.024 1.139 0a.337.337 0 01.089.053c.033.168.068.334.107.499.505-.548 1.127-.756 1.868-.623 1.046.25 1.704.897 1.975 1.94.24 1.11-.05 2.054-.872 2.829-.73.537-1.525.656-2.384.355a1.805 1.805 0 01-.445-.302l-.036 2.278a.402.402 0 01-.089.106zm.997-5.766c.686-.063 1.131.233 1.334.89.126.763-.176 1.255-.907 1.477-.696.07-1.129-.232-1.299-.908-.107-.735.183-1.221.872-1.459z" opacity=".978" clip-rule="evenodd" fill="#3ebbd2" fill-rule="evenodd"/><path d="M27.902 9.243c.748-.123 1.376.092 1.883.645.044-.163.08-.33.108-.502a.34.34 0 01.09-.054 9.192 9.192 0 011.147 0 .407.407 0 01.126.054c.024 1.686.024 3.372 0 5.058l-.054.054a10.99 10.99 0 01-1.255 0 .253.253 0 01-.09-.161 1.65 1.65 0 00-.072-.36c-.495.515-1.1.713-1.812.593-1.31-.294-2.021-1.113-2.134-2.458-.04-1.49.648-2.447 2.063-2.87zm.394 1.47c.712-.066 1.16.245 1.346.933.115.756-.19 1.24-.915 1.453-.682.07-1.118-.224-1.31-.879-.12-.755.174-1.257.88-1.507z" opacity=".981" clip-rule="evenodd" fill="#3ebbd2" fill-rule="evenodd"/><path d="M37.138 9.433v.247a718.632 718.632 0 00-2.631 6.569.668.668 0 01-.159.247h-1.377c-.084-.031-.114-.09-.089-.177.247-.61.5-1.216.76-1.818a606.264 606.264 0 01-1.96-4.856c-.04-.107-.011-.184.088-.23.447-.023.895-.023 1.342 0 .065.01.117.04.159.088l1.13 3.108 1.13-3.108a.249.249 0 01.159-.088c.484-.027.967-.022 1.448.018z" opacity=".973" clip-rule="evenodd" fill="#3ebbd2" fill-rule="evenodd"/></svg>