<svg xmlns="http://www.w3.org/2000/svg" width="38" height="24" fill="none" aria-labelledby="pi-postpay" role="img" viewBox="0 0 38 24"><title id="pi-postpay">Postpay</title><path fill="#fff" d="M0 0h38v24H0z"/><path fill="#3EBBD2" fill-rule="evenodd" d="M17.42 8.45h1.29c.03.44.04.87.03 1.32.27-.02.55 0 .82.04.04.34.04.68.02 1.03l-.05.04c-.26.02-.53.02-.8.02v3.24l-.05.04q-.63.045-1.26 0a.3.3 0 0 1-.05-.07c0-1.07-.02-2.14 0-3.21-.26 0-.52 0-.77-.02l-.05-.04a6 6 0 0 1 .02-1.03c.26-.04.52-.06.8-.04-.02-.41 0-.82 0-1.23zm-7.1 1.25a2.38 2.38 0 0 1 2.4 1.48c.36 1.16.06 2.1-.9 2.83-.9.5-1.78.47-2.64-.06a2.37 2.37 0 0 1-.91-2.46c.3-1.05.98-1.65 2.05-1.8Zm.07 1.3c.63-.02 1 .28 1.13.9.04.57-.22.96-.76 1.15-.84.04-1.24-.37-1.2-1.22.12-.44.4-.72.83-.84Z" clip-rule="evenodd" opacity=".98"/><path fill="#3EBBD2" fill-rule="evenodd" d="M14.54 9.7a2.23 2.23 0 0 1 1.74.65.3.3 0 0 1 .05.14c-.1.2-.22.37-.36.54a.7.7 0 0 1-.18.15l-.57-.3a.69.69 0 0 0-.62 0c-.18.2-.16.34.06.47l1.02.34c.78.36 1.03.96.75 1.78-.3.51-.77.8-1.37.88a2.4 2.4 0 0 1-1.73-.47c-.12-.1-.22-.22-.3-.35.13-.26.28-.5.46-.73a.2.2 0 0 1 .15 0 2 2 0 0 0 1.33.37c.24-.11.27-.26.1-.46a7 7 0 0 0-1-.37c-.76-.28-1.05-.82-.88-1.62q.375-.915 1.35-1.02" clip-rule="evenodd" opacity=".97"/><path fill="#3EBBD2" fill-rule="evenodd" d="M4.56 15.94H3.32a.13.13 0 0 0-.04-.06c-.02-2.02-.02-4.05 0-6.07a.4.4 0 0 1 .1-.05c.33-.02.66-.02 1 0a.3.3 0 0 1 .07.05l.1.43c.43-.48.97-.66 1.61-.54.9.21 1.48.78 1.71 1.68.21.96-.04 1.78-.75 2.45-.63.47-1.32.57-2.07.31a1.6 1.6 0 0 1-.38-.26l-.04 1.97a.4.4 0 0 1-.07.1Zm.86-5c.6-.05.98.21 1.16.78.1.66-.15 1.09-.79 1.28-.6.06-.98-.2-1.13-.79-.09-.64.17-1.06.76-1.26ZM21.27 16h-1.23a.13.13 0 0 0-.05-.06c-.02-2.03-.02-4.05 0-6.08a.4.4 0 0 1 .11-.05q.495-.03.99 0a.3.3 0 0 1 .07.05l.1.43a1.7 1.7 0 0 1 1.62-.54c.9.22 1.47.78 1.7 1.68.22.97-.03 1.78-.75 2.46a2.1 2.1 0 0 1-2.06.3 1.6 1.6 0 0 1-.39-.26l-.03 1.98a.4.4 0 0 1-.08.09m.87-5c.6-.05.98.2 1.15.77.11.67-.15 1.1-.78 1.28-.6.06-.98-.2-1.13-.78-.1-.64.16-1.06.76-1.27m4.57-1.36c.65-.1 1.2.08 1.64.56l.1-.44a.3.3 0 0 1 .07-.04c.33-.02.66-.02 1 0 .03 0 .07.02.1.04.02 1.47.02 2.93 0 4.39l-.04.05c-.37.02-.73.02-1.1 0a.22.22 0 0 1-.07-.14c0-.11-.03-.22-.06-.32-.43.45-.96.62-1.57.52-1.14-.26-1.76-.97-1.85-2.13-.04-1.3.56-2.12 1.79-2.5v.01Zm.35 1.27c.61-.05 1 .22 1.16.81.1.66-.16 1.08-.79 1.26-.6.06-.97-.2-1.13-.76-.1-.65.14-1.09.76-1.3Z" clip-rule="evenodd" opacity=".98"/><path fill="#3EBBD2" fill-rule="evenodd" d="M34.72 9.8v.22l-2.28 5.7a.6.6 0 0 1-.14.2h-1.2c-.06-.02-.09-.07-.07-.15l.66-1.57L30 9.99c-.03-.1 0-.16.08-.2.39-.02.77-.02 1.16 0 .06 0 .1.03.14.07l.98 2.7.98-2.7a.22.22 0 0 1 .14-.07 9 9 0 0 1 1.25.01Z" clip-rule="evenodd" opacity=".97"/></svg>