<?xml version="1.0" encoding="UTF-8" standalone="no"?>
<!-- Created with Inkscape (http://www.inkscape.org/) -->

<svg
   xmlns:dc="http://purl.org/dc/elements/1.1/"
   xmlns:cc="http://creativecommons.org/ns#"
   xmlns:rdf="http://www.w3.org/1999/02/22-rdf-syntax-ns#"
   xmlns:svg="http://www.w3.org/2000/svg"
   xmlns="http://www.w3.org/2000/svg"
   xmlns:sodipodi="http://sodipodi.sourceforge.net/DTD/sodipodi-0.dtd"
   xmlns:inkscape="http://www.inkscape.org/namespaces/inkscape"
   id="svg2"
   version="1.1"
   inkscape:version="0.91 r13725"
   width="36"
   height="24"
   xml:space="preserve"
   sodipodi:docname="postfinance-e-finance (1).svg"><metadata
     id="metadata8"><rdf:RDF><cc:Work
         rdf:about=""><dc:format>image/svg+xml</dc:format><dc:type
           rdf:resource="http://purl.org/dc/dcmitype/StillImage" /><dc:title></dc:title></cc:Work></rdf:RDF></metadata><defs
     id="defs6"><clipPath
       clipPathUnits="userSpaceOnUse"
       id="clipPath18"><path
         d="m 0,0 1486.77,0 0,420 L 0,420 0,0 Z"
         id="path20"
         inkscape:connector-curvature="0" /></clipPath></defs><sodipodi:namedview
     pagecolor="#ffffff"
     bordercolor="#666666"
     borderopacity="1"
     objecttolerance="10"
     gridtolerance="10"
     guidetolerance="10"
     inkscape:pageopacity="0"
     inkscape:pageshadow="2"
     inkscape:window-width="1077"
     inkscape:window-height="903"
     id="namedview4"
     showgrid="false"
     inkscape:zoom="16.400322"
     inkscape:cx="27.482122"
     inkscape:cy="23.012814"
     inkscape:window-x="829"
     inkscape:window-y="369"
     inkscape:window-maximized="0"
     inkscape:current-layer="g10" /><g
     id="g10"
     inkscape:groupmode="layer"
     inkscape:label="ink_ext_XXXXXX"
     transform="matrix(1.25,0,0,-1.25,0,23.999998)"><rect
       style="fill:#fcd205;fill-opacity:1"
       id="rect4432"
       width="28.779922"
       height="19.316692"
       x="0.048779543"
       y="-19.170353"
       transform="scale(1,-1)" /><g
       id="g16"
       clip-path="url(#clipPath18)"
       transform="matrix(0.01932252,0,0,0.01932252,0,5.4145277)"><path
         d="m 0,0 1486.77,0 0,420.234 L 0,420.234 0,0 Z"
         style="fill:#fcd205;fill-opacity:1;fill-rule:nonzero;stroke:none"
         id="path22"
         inkscape:connector-curvature="0" /><path
         d="m 1234.7,96.0625 14.53,68.8005 -1185.7612,0 -14.543,-68.8005 1185.7742,0"
         style="fill:#ffffff;fill-opacity:1;fill-rule:nonzero;stroke:none"
         id="path24"
         inkscape:connector-curvature="0" /><path
         d="m 1377.52,258.633 c 0,0 15.9,72.89 16.12,73.574 l -101.04,0 c 0,-0.461 -20.89,-96.73 -20.89,-97.187 0.22,0 25.89,0 25.89,0 0.22,0 15.89,72.664 15.89,72.664 l 49.04,0 c 0,0 -15.44,-72.887 -15.89,-73.348 0.45,0 74.7,0 74.7,0 l -9.76,-44.953 c 0,0 -74.02,0 -74.26,0 0,-0.457 -14.98,-68.574 -14.98,-68.574 0,0 -55.63,0 -56.08,0 0,-0.223 -5,-24.5199 -5.22,-24.7465 l 82.64,0 c 0,0.2266 14.77,68.8005 14.77,68.8005 0,0 73.79,0 74.25,0 0,0.227 19.53,93.321 19.53,93.77 l -74.71,0"
         style="fill:#ed1c24;fill-opacity:1;fill-rule:nonzero;stroke:none"
         id="path26"
         inkscape:connector-curvature="0" /><path
         d="m 1194.68,237.059 c 10.67,0 17.94,-7.262 17.94,-19.297 0,-2.039 -0.23,-3.856 -0.45,-5.899 l -46.1,0 c 4.77,15.207 14.98,25.196 28.61,25.196 z m 22.93,-90.371 5.91,27.023 c -9.99,-3.399 -19.76,-6.121 -32.24,-6.121 -14.54,0 -27.25,4.988 -27.93,22.476 l 74.93,0 c 2.72,8.86 4.31,17.707 4.31,25.879 0,24.981 -14.53,45.422 -45.64,45.422 -40.42,0 -64.94,-33.164 -64.94,-69.719 0,-31.328 20.89,-49.726 53.36,-49.726 13.17,0 23.61,2.051 32.24,4.766 l 0,0 z m -123.29,22.941 c -14.76,0 -24.75,6.355 -24.75,24.746 0,21.57 13.62,39.512 35.2,39.512 6.81,0 14.53,-2.043 22.25,-5 l 5.45,25.886 c -8.86,3.176 -19.31,5.45 -29.75,5.45 -35.65,0 -66.08,-26.563 -66.08,-67.442 0,-33.601 20.67,-49.488 50.41,-49.488 9.99,0 18.39,1.812 24.53,4.305 l 5.9,26.574 c -6.81,-2.5 -14.31,-4.543 -23.16,-4.543 l 0,0 z m -156.898,-24.297 12.488,57.449 c 4.992,23.157 16.352,31.106 28.156,31.106 15.215,0 17.032,-11.36 14.075,-24.297 l -13.625,-64.258 32.474,0 14.3,65.848 c 7.04,32.922 -8.17,50.187 -32.009,50.187 -13.176,0 -25.886,-5.226 -36.789,-16.808 l 2.949,13.39 -30.195,0 -24.297,-112.617 32.473,0 z m -116.707,32.469 c 0,11.347 9.988,17.715 26.558,17.715 3.188,0 10.215,-0.235 16.582,-1.141 l -1.367,-6.359 c -3.867,-13.387 -14.754,-22.481 -27.691,-22.481 -9.317,0 -14.082,4.543 -14.082,12.266 l 0,0 z m 31.336,82.883 c -14.989,0 -30.203,-3.411 -35.196,-5 l -5.449,-26.114 c 7.254,2.039 21.563,5.907 34.285,5.907 17.024,0 23.157,-5.223 23.157,-14.082 0,-1.583 0,-3.407 -0.45,-5.215 l -0.46,-2.274 c -8.172,0.906 -15.887,1.582 -19.532,1.582 -32.234,0 -58.113,-12.48 -58.113,-42.004 0,-19.296 14.98,-30.879 34.504,-30.879 13.855,0 25.664,5.45 33.379,14.532 l -2.5,-11.805 28.836,0 14.082,64.48 c 1.133,4.778 1.582,9.766 1.582,14.532 0,19.308 -10.664,36.34 -48.125,36.34 l 0,0 z M 694.695,145.332 707.18,202.781 c 5,23.157 16.343,31.106 28.164,31.106 15.215,0 17.027,-11.36 14.082,-24.297 l -13.633,-64.258 32.469,0 14.297,65.848 c 7.043,32.922 -8.164,50.187 -32,50.187 -13.188,0 -25.903,-5.226 -36.797,-16.808 l 2.949,13.39 -30.195,0 -24.297,-112.617 32.476,0 z m -58.125,143.73 c -0.691,-10.214 6.809,-18.164 16.797,-18.164 11.125,0 19.074,7.95 19.746,18.164 0.688,10.215 -6.804,18.165 -16.797,18.165 -11.121,0 -19.07,-7.95 -19.746,-18.165 l 0,0 z m -4.55,-31.113 -24.293,-112.617 32.246,0 24.297,112.617 -32.25,0 z m -91.739,-112.617 12.715,58.809 49.055,0 5.91,28.836 -48.828,0 7.5,36.105 51.543,0 6.355,28.84 -85.144,0 -32.246,-152.59 33.14,0 z m -32.011,87.871 5.226,24.746 -34.734,0 6.804,31.336 -33.836,-7.488 -21.117,-96.27 c -5.894,-27.257 9.082,-42.234 36.328,-42.234 5.688,0 15.215,1.129 22.036,3.395 l 5.449,24.757 c -5.449,-1.367 -12.27,-2.726 -18.164,-2.726 -9.321,0 -15.903,3.176 -13.625,14.535 l 10.675,49.949 34.958,0 z M 385.203,178.484 c 0,-9.089 -11.121,-10.672 -20.43,-10.672 -11.812,0 -24.976,3.172 -32.007,5.45 l -5.461,-25.43 c 10.222,-2.5 23.164,-4.539 35.422,-4.539 29.058,0 52.683,10.895 52.683,38.141 0,35.195 -42.234,29.062 -42.234,44.726 0,7.043 6.812,9.543 17.476,9.543 10.215,0 24.536,-4.094 29.297,-5.449 l 5.449,25.652 c -9.761,2.727 -21.343,4.317 -31.793,4.317 -31.554,0 -50.625,-14.082 -50.625,-37.469 0,-34.277 42.223,-28.606 42.223,-44.27 l 0,0 z M 263.047,141.922 c 35.652,0 59.719,25.89 65.168,59.719 5.68,33.836 -13.164,59.726 -48.82,59.726 -35.645,0 -59.715,-25.89 -65.165,-59.726 -5.675,-33.829 13.172,-59.719 48.817,-59.719 l 0,0 z m 2.961,26.113 c -12.949,0 -23.164,10.219 -18.403,33.606 4.766,23.386 16.125,33.601 29.067,33.601 12.945,0 23.164,-10.437 18.164,-33.601 -4.77,-23.157 -15.891,-33.606 -28.828,-33.606 l 0,0 z m -136.926,23.848 14.309,0 c 45.64,0 71.074,22.472 71.074,59.941 0,27.93 -19.77,46.098 -53.598,46.098 l -42.222,0 -32.2466,-152.59 32.6956,0 9.988,46.551 z m 5.676,27.929 10.672,50.176 13.625,0 c 14.988,0 22.246,-6.133 22.246,-20.437 0,-18.391 -11.574,-29.739 -32.91,-29.739 l -13.633,0"
         style="fill:#231f20;fill-opacity:1;fill-rule:nonzero;stroke:none"
         id="path28"
         inkscape:connector-curvature="0" /></g></g></svg>