<svg xmlns="http://www.w3.org/2000/svg" width="38" height="24" fill="none" aria-labelledby="pi-poweredbyansa" role="img" viewBox="0 0 38 24"><title id="pi-poweredbyansa">Powered by Ansa</title><path fill="#fff" d="M0 0h38v24H0z"/><path fill="#271C6A" fill-opacity=".68" d="M3 10.12V5.76h.46v.5h.05l.15-.2a.85.85 0 0 1 .74-.34c.25 0 .48.06.68.2.2.13.35.32.46.56a2.32 2.32 0 0 1 0 1.75A1.2 1.2 0 0 1 4.41 9a.95.95 0 0 1-.48-.1.9.9 0 0 1-.27-.24l-.15-.22h-.04v1.68zm.46-2.78c0 .24.04.45.1.64.06.16.17.31.3.42a.83.83 0 0 0 .98 0 1 1 0 0 0 .3-.44c.06-.2.1-.4.1-.62 0-.2-.04-.4-.1-.6a.93.93 0 0 0-.3-.43.77.77 0 0 0-.5-.16.77.77 0 0 0-.48.15.9.9 0 0 0-.3.42c-.07.2-.1.41-.1.62M7.63 9a1.3 1.3 0 0 1-1.21-.78 2 2 0 0 1-.17-.86c0-.33.05-.62.17-.87a1.3 1.3 0 0 1 1.21-.78 1.28 1.28 0 0 1 1.22.78 2 2 0 0 1 .17.87c0 .33-.06.61-.17.86a1.3 1.3 0 0 1-1.22.77Zm0-.44c.19 0 .37-.05.52-.17a1 1 0 0 0 .3-.44 1.77 1.77 0 0 0 0-1.18 1 1 0 0 0-.3-.45.78.78 0 0 0-.52-.17.78.78 0 0 0-.51.17 1 1 0 0 0-.3.45c-.07.19-.1.39-.1.59 0 .21.03.41.1.6.05.16.16.31.3.43s.33.18.51.17m2.67.37-.94-3.17h.5l.66 2.43h.03l.65-2.43h.5l.65 2.42h.04l.66-2.42h.5l-.94 3.17h-.46l-.67-2.44h-.05l-.67 2.44zm5 .07c-.3 0-.55-.07-.76-.2a1.34 1.34 0 0 1-.5-.58 2 2 0 0 1-.17-.85c0-.33.06-.61.17-.86.1-.24.27-.44.49-.58.2-.14.45-.21.72-.21a1.26 1.26 0 0 1 .9.35q.195.18.3.48c.08.2.12.46.12.75v.2h-2.36v-.4h1.88c0-.18-.04-.34-.1-.48a.8.8 0 0 0-.73-.45.82.82 0 0 0-.5.14.94.94 0 0 0-.3.37c-.08.15-.12.32-.12.5v.27c0 .24.04.45.12.61a.9.9 0 0 0 .84.51c.11 0 .23-.02.33-.06a.71.71 0 0 0 .44-.44l.45.13c-.05.16-.13.3-.24.43-.11.12-.25.21-.42.28-.17.06-.35.1-.56.1Zm1.95-.07V5.76h.45v.48h.04c.05-.16.16-.3.3-.39.15-.1.32-.14.5-.14h.24v.5a1.4 1.4 0 0 0-.29-.03.8.8 0 0 0-.4.1.72.72 0 0 0-.37.64v2.01zM20.5 9c-.3 0-.55-.07-.77-.2a1.34 1.34 0 0 1-.49-.58 2 2 0 0 1-.17-.85c0-.33.06-.61.17-.86a1.27 1.27 0 0 1 1.2-.8q.255 0 .48.09c.16.05.3.14.43.27.12.12.23.28.3.48.08.2.11.46.11.75v.2H19.4v-.4h1.89c0-.18-.04-.34-.1-.48a.8.8 0 0 0-.73-.45.82.82 0 0 0-.5.14.94.94 0 0 0-.31.37c-.07.15-.11.32-.11.5v.27c0 .24.04.45.12.61.07.16.19.29.34.38s.32.13.5.13q.165 0 .33-.06a.71.71 0 0 0 .43-.44l.46.13c-.05.16-.13.3-.24.43-.12.12-.26.21-.42.28-.17.06-.36.1-.56.1Zm3.1 0c-.24 0-.47-.07-.67-.2a1.5 1.5 0 0 1-.46-.57 2.1 2.1 0 0 1-.17-.88c0-.33.06-.62.17-.87a1.22 1.22 0 0 1 1.14-.76.82.82 0 0 1 .74.33l.15.21h.04V4.7h.47v4.23h-.46v-.49h-.05l-.15.22a.9.9 0 0 1-.27.24c-.15.07-.31.1-.48.1m.07-.44c.17 0 .34-.05.48-.16a.96.96 0 0 0 .3-.42 2.1 2.1 0 0 0 0-1.26.9.9 0 0 0-.3-.42.77.77 0 0 0-.48-.15.77.77 0 0 0-.5.16.95.95 0 0 0-.3.43 1.9 1.9 0 0 0 0 1.22 1 1 0 0 0 .3.44c.14.1.32.16.5.16m3.84.37V4.7h.47v1.56h.04l.14-.2q.12-.15.27-.24c.12-.07.28-.1.48-.1.25 0 .48.06.68.2.2.13.35.32.46.56.11.28.17.57.16.87 0 .34-.05.63-.16.88-.11.24-.26.43-.46.57-.2.13-.42.2-.68.2a.95.95 0 0 1-.47-.1.9.9 0 0 1-.27-.24l-.15-.22h-.05v.49zm.46-1.59c0 .24.04.45.1.64.06.16.17.31.3.42a.83.83 0 0 0 .98 0 1 1 0 0 0 .3-.44 1.9 1.9 0 0 0 0-1.22.93.93 0 0 0-.3-.43.77.77 0 0 0-.5-.16.77.77 0 0 0-.48.15.9.9 0 0 0-.3.42c-.07.2-.1.41-.1.62m3.12 2.78a1 1 0 0 1-.34-.06l.12-.43q.15.045.3.03c.1 0 .18-.05.24-.12.08-.1.15-.22.19-.35l.08-.24-1.13-3.2h.51l.85 2.54h.03l.85-2.53h.5L32 9.39c-.05.17-.13.3-.21.41a.82.82 0 0 1-.69.32Z"/><path fill="#271C6A" d="M5.67 19.3c1.15 0 1.93-.49 2.44-1.11v.95H9.8v-4.53c0-1-.26-1.8-.81-2.35-.53-.55-1.36-.86-2.49-.86-1.19 0-2 .25-2.84.63l.47 1.37a5.1 5.1 0 0 1 2.15-.48c1.2 0 1.86.58 1.86 1.67v.18a6.2 6.2 0 0 0-2.02-.31c-1.83 0-3.11.8-3.11 2.46v.02c0 1.54 1.26 2.36 2.67 2.36Zm.48-1.27c-.82 0-1.46-.42-1.46-1.16v-.03c0-.8.65-1.27 1.76-1.27.68 0 1.26.13 1.7.3v.53c0 .96-.86 1.63-2 1.63m5.68 1.11h1.73v-4.3c0-1.2.7-1.9 1.7-1.9 1.02 0 1.6.68 1.6 1.86v4.34h1.72v-4.87c0-1.77-.98-2.93-2.67-2.93-1.17 0-1.86.63-2.35 1.34V11.5h-1.73zm11.39.15c1.56 0 2.78-.8 2.78-2.4v-.03c0-1.38-1.23-1.88-2.33-2.23-.88-.29-1.69-.52-1.69-1.09v-.02c0-.42.39-.76 1.05-.76.63 0 1.4.28 2.12.73l.68-1.25a5.1 5.1 0 0 0-2.75-.87c-1.5 0-2.67.89-2.67 2.35v.03c0 1.44 1.23 1.9 2.34 2.22.88.28 1.68.48 1.68 1.08v.03c0 .5-.43.82-1.17.82a4.2 4.2 0 0 1-2.45-.94l-.77 1.19c.9.73 2.02 1.13 3.18 1.14m6.7.01c1.15 0 1.93-.49 2.44-1.11v.95h1.68v-4.53c0-1-.26-1.8-.81-2.35-.52-.55-1.36-.86-2.48-.86-1.2 0-2 .25-2.84.63l.46 1.37a5.2 5.2 0 0 1 2.15-.48c1.2 0 1.86.58 1.86 1.67v.18a6.2 6.2 0 0 0-2.02-.31c-1.83 0-3.1.8-3.1 2.46v.02c0 1.54 1.26 2.36 2.66 2.36m.48-1.27c-.82 0-1.46-.42-1.46-1.16v-.03c0-.8.66-1.27 1.76-1.27.69 0 1.27.13 1.7.3v.53c0 .96-.86 1.63-2 1.63"/></svg>