<svg xmlns="http://www.w3.org/2000/svg" width="38" height="24" fill="none" aria-labelledby="pi-prepaysolutions" role="img" viewBox="0 0 38 24"><title id="pi-prepaysolutions">PrePaySolutions</title><path fill="#fff" d="M0 0h38v24H0z"/><path fill="#A4A5A9" d="m12.5 18.04-.09.06-1.53.56-3.24 1.18c-.62.23-1.24.46-1.86.67a.64.64 0 0 1-.82-.33c-.1-.2-.16-.42-.24-.64L3.3 15.66l-1.18-3.23a.71.71 0 0 1 .08-.7.6.6 0 0 1 .34-.24l.96-.35 3.26-1.2c.67-.23 1.33-.47 2-.72l1.21-.44.16-.05.19.48 1.09 3.01c0 .03.02.05.03.08.08.24.31.35.58.26l.9-.33 1.85-.67 2.4-.88.15-.04.05.1 1.2 3.37q-.465-.3-1.02-.3h-1.92l-.12.01v3.16l-1.64.59-1.29.45v-1.55h.19c.35-.01.7 0 1.06-.04.37-.04.7-.2.97-.47.46-.49.5-1.42-.26-1.85a1.4 1.4 0 0 0-.51-.2c-.25-.06-.5-.09-.76-.1h-1.64l-.1.01v4.2h.7l.26.02Z"/><path fill="#F68B1E" d="m10.4 8.62-.24.08-.05-.1-.84-2.32A.7.7 0 0 1 9.22 6c.02-.21.15-.35.35-.43l.97-.35 7.1-2.59 1.57-.57c.35-.13.61 0 .74.34l1.78 4.89.37 1.01a.6.6 0 0 1-.02.47.54.54 0 0 1-.3.24l-2.46.9-1.86.67-.12.04-.06-.16-1.23-3.37c-.08-.24-.24-.35-.45-.34-.05 0-.1.02-.14.04-1.68.6-3.36 1.22-5.05 1.84Z"/><path fill="#020203" d="M15.52 16.99v-3.17h2.04c.37 0 .71.09 1.03.3l.06.07c.36.33.47.74.32 1.2-.15.48-.5.73-.98.81l-.1.01.08.08c.08.08.17.15.24.24l1.1 1.44.02.05h-1.25l-.51-.73-.62-.83c-.12-.11-.23-.19-.38-.19v1.75h-1.05V17Zm1.05-2.25v.9l.3-.01c.22-.01.43-.02.64-.06.25-.04.4-.24.4-.5s-.12-.44-.38-.52a44 44 0 0 0-.86-.06l-.1.02z"/><path fill="#030303" d="m27.95 14.42.26-.62h1.15L31 18.02h-1.14l-.37-.99h-1.54l-.37 1h-1.11l1.47-3.61Zm.83.43-.03-.1-.51 1.56h.98c-.15-.48-.3-.96-.44-1.46"/><path fill="#010102" d="m12.5 18.04-.26-.01h-.7v-4.2l.1-.02h1.64c.25.01.51.04.76.1.18.03.35.1.51.2.75.43.72 1.36.26 1.85-.27.27-.6.43-.97.47-.35.04-.71.03-1.06.04h-.19v1.54l-.08.03Zm1.3-3.36a.57.57 0 0 0-.34-.16c-.14-.02-.28-.02-.42-.02h-.44v1.27h.82c.23-.01.42-.12.5-.35a.7.7 0 0 0-.12-.74"/><path fill="#020202" d="M24.5 17.03v.99h-1.06v-4.2h.1c.55 0 1.1-.02 1.65 0 .25 0 .5.04.74.08.2.03.37.11.54.21.75.45.7 1.38.24 1.85-.26.27-.6.43-.96.47-.33.03-.67.03-1 .04h-.25zm1.33-1.6c.13-.38.05-.86-.54-.93h-.78v1.28c.29 0 .57 0 .86-.02.2-.01.35-.12.46-.33"/><path fill="#040404" d="M19.75 14.58v-.76h3l-.14.68h-1.79v.97h1.49v.7h-1.48v1.12h1.98v.73h-3.04l-.02-.02z"/><path fill="#030303" d="M32.8 17.63v.39h-1.11v-1.59c0-.1-.03-.18-.08-.27L30.18 14l-.12-.19h1.27c.3.55.66 1.08.93 1.65l.96-1.64h1.23c0 .06-.05.1-.08.15l-1.5 2.21a.4.4 0 0 0-.08.25v1.2Z"/><path fill="#F58D22" d="M31.54 20.31v1.63h-.62c-.07 0-.11-.02-.15-.09l-.88-1.68-.08-.15.03 1.9h-.64a45 45 0 0 1 0-2.8l.12-.01h.52c.07 0 .12.02.15.09.3.55.66 1.07.9 1.65 0 .02.02.03.03.05l-.04-1.78h.66zm-17.41.72c-.09-.33-.1-.65 0-.96q.21-.795 1.02-.96.45-.09.9.03c.43.13.73.4.86.83q.195.6-.03 1.2c-.17.45-.51.7-.98.79-.24.04-.5.04-.75 0-.52-.1-.84-.43-1.02-.93m1.8.4a.6.6 0 0 0 .21-.35c.1-.38.09-.76 0-1.14a.52.52 0 0 0-.3-.36.66.66 0 0 0-.95.42 2.06 2.06 0 0 0 .07 1.25c.04.1.12.18.22.22.25.1.5.11.75-.04"/><path fill="#F58D21" d="M28.03 19.2c.42.18.66.5.74.93.08.36.06.71-.08 1.05-.18.45-.52.7-.99.78-.24.04-.47.03-.7 0a1.24 1.24 0 0 1-1.04-.91c-.11-.34-.1-.7 0-1.04.17-.54.55-.84 1.1-.92a2 2 0 0 1 .97.1Zm-1.36 1.7.06.24c.06.21.2.35.43.38.12.02.24.03.35 0 .27-.03.4-.22.46-.46.08-.36.08-.72 0-1.07a.57.57 0 0 0-.17-.31c-.27-.25-.9-.25-1.07.26l-.04.15c-.06.26-.05.53-.02.82Z"/><path fill="#F58D22" d="M21.81 20v1.16a.7.7 0 0 1-.37.64c-.2.11-.4.16-.63.18a1.84 1.84 0 0 1-1.02-.15.7.7 0 0 1-.42-.67v-2.05h.7v2.01c.02.18.11.3.29.35q.225.06.45 0c.2-.05.3-.17.3-.38v-1.97h.7zM11.5 21.4c.04-.1.09-.1.16-.06.32.13.64.21.99.17a.9.9 0 0 0 .25-.07.3.3 0 0 0 .18-.29.27.27 0 0 0-.17-.27c-.1-.05-.2-.08-.3-.11l-.56-.14a1 1 0 0 1-.22-.1.73.73 0 0 1-.13-1.2c.21-.18.46-.26.73-.3a2.33 2.33 0 0 1 1.32.25l.05.04-.16.2-.15.18c-.19-.06-.36-.13-.54-.17a1.2 1.2 0 0 0-.37-.01.55.55 0 0 0-.24.1.23.23 0 0 0 .04.42c.2.07.4.1.61.16.2.05.38.1.55.23.42.29.41.86.1 1.18-.17.17-.37.27-.6.32-.57.13-1.12.07-1.65-.15-.03 0-.05-.02-.07-.04.04-.13.12-.23.18-.35Zm20.95 0c.28.1.55.14.84.11.07 0 .15-.03.23-.06a.3.3 0 0 0 .2-.3.29.29 0 0 0-.18-.28l-.3-.1-.38-.1a2 2 0 0 1-.36-.12.73.73 0 0 1-.2-1.16c.13-.15.3-.25.5-.3a2.23 2.23 0 0 1 1.6.19l.04.04-.31.4-.25-.1a1.4 1.4 0 0 0-.61-.11.5.5 0 0 0-.3.1c-.17.13-.14.36.06.43.16.06.32.09.47.13.14.04.28.07.41.12.1.03.18.08.26.13.39.27.45.8.14 1.15-.2.22-.45.33-.72.38-.54.1-1.07.04-1.58-.18l-.06-.03c.07-.15.16-.29.25-.44z"/><path fill="#F58C20" d="M22.92 20.11v-.52h-.82v-.46c.1-.02 2.22-.03 2.43 0l-.05.21-.06.24h-.8v2.35h-.66l-.03-.01V20.1Zm-5.1 1.83h-.43c-.03-.11-.04-2.63-.01-2.82h.68v2.34h1.22l-.13.48z"/><path fill="#F68D22" d="M25.48 20.62v1.3h-.71v-2.8h.68l.02.01v.01z"/><path fill="#909091" d="m35.85 21.28.07.04v.6c-.06.02-.08-.01-.08-.06v-.39l-.06.1-.1.3-.07.06c-.02-.02-.05-.04-.06-.07-.04-.07-.06-.15-.09-.22l-.07-.16-.03.44h-.04c-.03-.1-.04-.48-.01-.63.06-.02.1 0 .13.06l.12.32.05.12.14-.37zm-.84.37v.21c0 .04 0 .04-.09.07v-.55l-.24-.03.07-.06h.47c-.02.07-.02.07-.2.08v.28Z"/><path fill="#A2A2A5" d="M16.58 16.58v-.3c.14 0 .25.07.36.17z"/><path fill="#A2A3A7" d="M16.57 14.72v-.21l.1-.02a47 47 0 0 1 .86.06c.26.08.39.26.38.53 0 .25-.15.45-.4.5-.2.03-.42.04-.64.05h-.3v-.9Z"/><path fill="#F9F9F9" d="m28.78 14.86.44 1.45h-.98l.51-1.56.03.1Z"/><path fill="#A1A2A6" d="M13.81 14.7c.2.22.2.46.11.72-.08.23-.27.34-.5.35h-.82V14.5h.44c.14 0 .28 0 .42.02.13.01.25.07.35.17Z"/><path fill="#FBFBFB" d="M25.82 15.44c-.1.2-.24.31-.45.32l-.87.02v-1.27l.11-.01h.68c.59.07.67.55.53.94"/></svg>