<svg xmlns="http://www.w3.org/2000/svg" width="38" height="24" fill="none" aria-labelledby="pi-progressiveleasing" role="img" viewBox="0 0 38 24"><title id="pi-progressiveleasing">Progressive Leasing</title><path fill="#fff" d="M0 0h38v24H0z"/><path fill="#0093C9" d="M9.5 7.2 6.7 5.5a.8.8 0 0 0-.8 0L3 7.2a.8.8 0 0 0-.4.7v7.6q0 .45.3.6l2.6 1.5.3.1h.4l.3-.6v-3.6l3-1.8.3-.6V7.9l-.4-.7Zm-3.4 9.9c-.1 0-.2.1-.2 0l-2.6-1.5V8.2c0-.1 0-.2.1-.1L6 9.7V17Zm3.2-6v.2l-2.5 1.4-.2-.1V9.8q0-.45-.3-.6L3.7 7.7c-.1 0-.1-.2 0-.2L6 6h.3l2.8 1.7.1.2v3.2Z"/><path fill="#000" d="M13 9.7h.2c.7 0 1-.3 1-.8 0-.4-.3-.7-1-.7h-.1v1.5Zm-.3 1.5V8h.6c.8 0 1.2.3 1.2 1 0 .6-.4 1-1.3 1h-.1v1.2z"/><path fill="#000" d="M13 9.7h.2c.7 0 1-.2 1-.8 0-.4-.3-.7-1-.7H13zm0 1.5h-.3V8h.6c.8 0 1.2.3 1.2 1 0 .6-.5 1-1.3 1h-.1v1.2Zm2 0V9a1.6 1.6 0 0 1 1.3-.2v.4h-.4a1 1 0 0 0-.5 0v2z"/><path fill="#000" d="M15.4 11.2H15V9a1.6 1.6 0 0 1 1.2-.2v.3H16a1 1 0 0 0-.5 0v2ZM17.7 9c-.5 0-.8.4-.8 1 0 .5.3.8.8.8s.9-.3.9-.9c0-.5-.4-1-.9-1Zm0 2.2c-.7 0-1.2-.6-1.2-1.3s.5-1.2 1.2-1.2S19 9.3 19 10s-.5 1.3-1.2 1.3Z"/><path fill="#000" d="M17.7 9c-.5 0-.8.4-.8 1s.3 1 .8 1 .9-.4.9-1-.4-1-.9-1m0-.2c.7 0 1.2.5 1.2 1.2s-.5 1.2-1.2 1.2-1.1-.5-1.1-1.2.4-1.2 1.1-1.2m3 .3c-.6 0-1 .3-1 .9s.4.9 1 .9l.4-.1V9.2zm-.3 3.1-.7-.1v-.4l.7.2c.3 0 .7-.1.7-.8l-.4.1c-.8 0-1.3-.4-1.3-1.2s.5-1.2 1.3-1.2l.8.1v2.3c0 .7-.6 1-1 1"/><path fill="#000" d="m21.2 9.2-.5-.1c-.6 0-1 .3-1 .9s.4.9 1 .9h.5V9Zm0 1.9h-.5c-.8 0-1.3-.3-1.3-1.1s.5-1.2 1.3-1.2l.8.1v2.3c0 .7-.6 1-1 1s-.6 0-.8-.2v-.3l.7.2c.4 0 .8-.2.8-.8m1 0v-2a1.6 1.6 0 0 1 1.3-.3v.4h-.4a1 1 0 0 0-.5 0v2h-.3Z"/><path fill="#000" d="M22.6 11.2h-.3V9a1.6 1.6 0 0 1 1.2-.2v.3h-.4a1 1 0 0 0-.5 0v2Zm3-1.5c-.1-.4-.3-.6-.7-.6s-.6.3-.7.6h1.3Zm-.6 1.6c-.7 0-1.2-.6-1.2-1.3s.4-1.2 1.1-1.2 1 .4 1 1v.3h-1.8c0 .5.5.8.9.8.3 0 .5 0 .8-.2v.3c-.2.2-.5.3-.8.3"/><path fill="#000" d="M25.6 9.8c0-.5-.3-.7-.7-.7s-.7.2-.8.7h1.4ZM24 10c0 .6.4 1 .9 1 .3 0 .5-.2.8-.3v.3c-.2.2-.5.2-.8.2-.7 0-1.2-.4-1.2-1.2 0-.7.5-1.2 1.1-1.2s1 .3 1 1v.2zm3 1.3-.7-.2v-.5c.2.3.4.3.6.3.3 0 .5 0 .5-.3s-.2-.3-.6-.5c-.4-.1-.6-.3-.6-.7s.3-.6.8-.6c.2 0 .5 0 .6.2v.4a1 1 0 0 0-.6-.3c-.3 0-.4.1-.4.3s.1.3.4.5c.5 0 .7.2.7.7 0 .4-.3.7-.8.7"/><path fill="#000" d="m26.4 10.7.6.3c.3 0 .5-.2.5-.4 0-.3-.2-.4-.6-.5s-.5-.3-.5-.7.3-.6.7-.6c.2 0 .4 0 .6.2v.3a1 1 0 0 0-.6-.2c-.3 0-.4.1-.4.3 0 .3.1.4.5.5s.6.3.6.7-.3.7-.8.7l-.6-.2zm2.6.6-.7-.2v-.5c.3.3.5.3.7.3.3 0 .4 0 .4-.3s-.1-.3-.5-.5c-.4-.1-.6-.3-.6-.7s.3-.6.7-.6c.3 0 .5 0 .7.2v.4A1 1 0 0 0 29 9c-.2 0-.4.1-.4.3s.2.3.5.5c.4 0 .7.3.7.7s-.3.7-.8.7"/><path fill="#000" d="M28.3 10.7c.2.2.4.3.7.3s.5-.1.5-.4-.2-.4-.6-.5-.6-.3-.6-.7.3-.6.7-.6c.3 0 .5 0 .7.2v.3a1 1 0 0 0-.7-.2c-.2 0-.4.1-.4.3 0 .3.1.4.5.5s.7.3.7.7-.4.7-.8.7l-.7-.2zm2.3-2.3a.3.3 0 0 1-.3-.3c0-.1.1-.2.3-.2.1 0 .3 0 .3.2s-.2.3-.3.3m-.2.4h.4v2.4h-.4z"/><path fill="#000" d="M30.8 11.2h-.4V8.8h.4zm-.4-3c0-.2 0-.3.2-.3.1 0 .2 0 .2.2 0 .1 0 .3-.2.3a.2.2 0 0 1-.3-.3Zm1.7 3-1-2.4h.4l.8 2 .7-2h.4l-1 2.4z"/><path fill="#000" d="m32 11.2-.8-2.4h.3l.8 2 .7-2h.4l-1 2.4h-.3Zm3.4-1.5c0-.4-.3-.6-.7-.6s-.6.3-.7.6zm-.6 1.6c-.7 0-1.2-.6-1.2-1.3s.5-1.2 1.1-1.2c.7 0 1 .4 1 1v.3H34c0 .5.4.8.8.8.3 0 .6 0 .8-.2v.3c-.2.2-.5.3-.8.3"/><path fill="#000" d="M35.4 9.8c0-.5-.3-.7-.7-.7s-.7.2-.7.7zm-1.5.2c0 .6.4 1 .9 1 .3 0 .6-.2.8-.3v.3c-.2.2-.5.2-.8.2-.7 0-1.2-.4-1.2-1.2 0-.7.5-1.2 1.1-1.2s1 .3 1 1v.2zm-21.2 6v-3.2h.4v3h1.3v.3h-1.7Z"/><path fill="#000" d="M12.7 12.9h.3v2.9h1.4v.3h-1.7zm3.7 1.7q0-.6-.6-.6c-.4 0-.7.2-.7.6zm-.5 1.5c-.8 0-1.2-.5-1.2-1.2 0-.8.4-1.3 1-1.3.7 0 1 .4 1 1v.3H15c0 .6.5.9.9.9.3 0 .5 0 .8-.3v.4z"/><path fill="#000" d="M16.4 14.6c0-.5-.2-.7-.6-.7s-.7.3-.8.7zM15 15c0 .6.4 1 .9 1 .3 0 .5-.2.8-.3v.3l-.8.2c-.7 0-1.2-.5-1.2-1.2s.5-1.2 1.1-1.2 1 .3 1 1v.2zm3.4 0c-.3 0-.8.1-.8.5 0 .3.4.4.7.4h.3V15zm-.1 1.2c-.7 0-1-.2-1-.7s.3-.7 1-.7h.3v-.3c0-.3-.2-.4-.5-.4s-.5 0-.7.2v-.4l.8-.2c.5 0 .8.3.8.8V16l-.7.1Z"/><path fill="#000" d="M18.6 15h-.2c-.5 0-.8 0-.8.4 0 .3.3.4.7.4h.3zm0-.6c0-.3-.2-.4-.5-.4l-.7.1v-.3l.8-.1c.4 0 .8.2.8.7V16l-.7.1c-.6 0-1-.2-1-.7s.4-.7 1-.7h.3zm1.6 1.7c-.2 0-.5 0-.6-.2v-.4l.6.3c.3 0 .5-.1.5-.3 0-.3-.2-.4-.6-.5-.4-.2-.6-.3-.6-.7s.3-.7.8-.7l.6.2v.4a1 1 0 0 0-.6-.2c-.3 0-.4 0-.4.3 0 .2.1.3.5.4s.6.3.6.7c0 .5-.3.7-.8.7"/><path fill="#000" d="m19.6 15.6.6.2c.3 0 .5 0 .5-.3s-.2-.4-.6-.5c-.4-.2-.6-.3-.6-.7s.4-.6.8-.6c.2 0 .4 0 .6.2v.3a1 1 0 0 0-.6-.3c-.3 0-.4.2-.4.4s0 .3.5.4c.4.2.6.3.6.8 0 .4-.3.6-.8.6-.2 0-.5 0-.6-.2zm2.2-2.3a.3.3 0 0 1-.2-.3c0-.2 0-.3.2-.3s.3.2.3.3-.1.3-.3.3m-.2.4h.4V16h-.4v-2.4Z"/><path fill="#000" d="M22 16h-.3v-2.3h.3v2.4Zm-.4-3 .2-.3c.2 0 .3.2.3.3s-.1.2-.3.2a.2.2 0 0 1-.2-.2m2.8 3v-1.5c0-.3-.2-.5-.7-.5h-.6v2h-.3v-2.2l1-.2c.6 0 1 .3 1 .9V16z"/><path fill="#000" d="M22.8 13.8a3 3 0 0 1 1-.1c.6 0 1 .2 1 .8V16h-.4v-1.5c0-.5-.3-.6-.6-.6l-.7.1v2h-.3zm3.8.2c-.6 0-1 .3-1 .9 0 .5.4.8 1 .8h.5V14zm-.3 3h-.7v-.4l.7.2c.3 0 .8-.1.8-.8h-.5c-.8 0-1.3-.4-1.3-1.1 0-.8.5-1.3 1.3-1.3.3 0 .6 0 .8.2V16c0 .7-.5 1-1 1"/><path fill="#000" d="M27 14h-.4c-.6 0-1 .3-1 .9 0 .5.4.9 1 .9l.5-.1V14Zm0 2h-.4c-.8 0-1.3-.3-1.3-1.1s.5-1.2 1.3-1.2l.8.1v2.3c0 .7-.5 1-1 1l-.8-.2v-.3l.7.2c.4 0 .8-.2.8-.8Z"/><path fill="#4A4F54" d="m29 14.4-.2-.5-.1.5h-.1v-.7h.2l.2.5.1-.4h.2v.6l-.1-.5zm-.6 0h-.1v-.6H28h.6-.2z"/></svg>