<svg xmlns="http://www.w3.org/2000/svg" width="38" height="24" fill="none" aria-labelledby="pi-przelewy24" role="img" viewBox="0 0 38 24"><title id="pi-przelewy24">Przelewy24</title><path fill="#fff" d="M0 0h38v24H0z"/><path fill="#CF4545" d="M3 15.58 3.81 11H5.9c.51 0 .84.1 1 .3.15.2.18.57.08 1.11-.1.53-.25.88-.48 1.07-.23.2-.61.29-1.15.29H3.83l-.32 1.8H3Zm.91-2.25h1.22c.51 0 .84-.05 1-.15.17-.1.28-.35.35-.73q.12-.66 0-.84c-.07-.12-.3-.17-.65-.17H4.25l-.34 1.9Zm3.53-.96h.46l-.1.37c.24-.3.57-.45 1-.45.58 0 .82.3.72.92l-.04.22H9l.03-.08.04-.17c.06-.33-.1-.5-.45-.5-.52 0-.84.33-.95.97l-.34 1.93h-.47l.57-3.21Zm2.49 0h2.3l-.08.45-2.33 2.37h1.9l-.06.39H9.2l.08-.45 2.33-2.37H9.86l.07-.4Zm4.6 2.24H15l-.01.11c-.06.34-.2.57-.43.7-.22.14-.59.2-1.1.2-.58 0-.95-.1-1.1-.32-.14-.22-.15-.67-.03-1.36.11-.64.28-1.07.5-1.3.23-.2.6-.32 1.15-.32.59 0 .95.1 1.1.29q.225.285.06 1.2l-.04.25h-2.3c-.09.5-.09.83 0 .97.08.14.32.2.71.2.38 0 .63-.03.75-.1.13-.06.2-.2.25-.42zm.16-.92.02-.15c.06-.34.04-.57-.05-.67-.1-.1-.33-.16-.7-.16-.39 0-.64.06-.78.18-.13.13-.23.4-.3.8h1.8Zm1.97-2.7-.81 4.59h-.47L16.2 11h.47Zm2.22 3.62h.48l-.02.11c-.06.34-.2.57-.43.7-.22.14-.59.2-1.1.2-.58 0-.95-.1-1.1-.32-.14-.22-.15-.67-.03-1.36.11-.64.28-1.07.5-1.3.23-.2.61-.32 1.15-.32.59 0 .96.1 1.1.29.15.19.18.59.07 1.2l-.05.25h-2.3c-.09.5-.09.83 0 .97.08.14.32.2.71.2.38 0 .63-.03.75-.1.13-.06.21-.2.25-.42zm.16-.92.02-.15c.06-.34.05-.57-.05-.67s-.33-.16-.7-.16c-.38 0-.64.06-.77.18-.14.13-.24.4-.31.8h1.8Zm5.35-1.32-1.46 3.2h-.7l-.1-1.78-.04-.54-.02-.27-.01-.27h-.01l-.11.27-.11.27-.23.54-.75 1.79h-.7l-.3-3.21h.49l.14 1.77.04.56.02.28.01.28h.02l.11-.28.12-.28.23-.55.75-1.78h.68l.12 1.78.04.55.01.28.01.28h.01l.12-.28.12-.28.24-.56.76-1.77zm2.35 0-.6 1.43-.32.7-.14.37-.15.35h-.02l-.06-.35-.05-.36-.12-.71-.24-1.43h-.5l.64 3.48-.07.16c-.2.43-.42.63-.67.62a.5.5 0 0 1-.16-.03l-.07.4.22.02c.29 0 .52-.1.71-.27q.285-.27.6-.99l1.5-3.4h-.5Z"/><path fill="#AEB2BA" d="m30.24 15.17-.08.43h-3.2l.14-.85c.09-.48.23-.8.45-.95.2-.14.66-.26 1.36-.34.55-.06.9-.15 1.03-.25.14-.1.24-.38.32-.83.07-.39.05-.64-.06-.76-.1-.12-.37-.18-.8-.18-.54 0-.88.05-1.04.15-.15.09-.26.32-.33.68l-.05.34h-.5l.05-.24c.1-.54.27-.9.53-1.09.26-.18.72-.27 1.4-.27.6 0 .98.1 1.16.3.17.19.2.57.1 1.14-.09.54-.25.9-.47 1.09-.23.18-.67.3-1.32.37q-.87.075-1.05.24c-.13.1-.24.39-.32.87l-.03.15h2.7Zm4.21-4.11-.53 3.06h.66l-.07.43h-.67l-.18 1.05h-.5l.18-1.05h-2.5l.11-.6 2.73-2.9h.77Zm-1.04 3.06.49-2.73h-.02l-2.54 2.73zM13.6 9.61c.98-.58 2.03-1.06 3.11-1.42l-.2-1.13a22 22 0 0 0-4 1.72zm12.37-.62 3.85-2.11c-1.6-.5-3.63-.87-6.17-.88h-.03l-.88 1.77c1.13.23 2.22.64 3.23 1.22m-14.45.36a15.3 15.3 0 0 0-2.58 1.96h2.15c.5-.39 1-.76 1.54-1.1l-1.1-.86Zm10.86-3.32a23.2 23.2 0 0 0-5.02.78l.15 1.15a11.7 11.7 0 0 1 4.34-.33zm9.5 1.67-5 1.88c.46.34.7.58.7.58H35s-.84-1.31-3.14-2.46Z"/></svg>