<svg xmlns="http://www.w3.org/2000/svg" xmlns:xlink="http://www.w3.org/1999/xlink" width="38" height="24" fill="none" aria-labelledby="pi-przelewytwofourpaynlversion" role="img" viewBox="0 0 38 24"><title id="pi-przelewytwofourpaynlversion">Przelewy24 (PAY. version)</title><defs><path id="pi-przelewytwofourpaynlversion-b" fill="#fff" d="M0 0h38v24H0z"/></defs><g clip-path="url(#pi-przelewytwofourpaynlversion-a)"><use xlink:href="#pi-przelewytwofourpaynlversion-b"/><path fill="#A9ABAA" d="M12.89 8.13c.73-.42 1.5-.77 2.3-1.03l-.15-.84C14 6.58 13.02 7 12.08 7.5l.8.62h.01Zm9.1-.45 2.84-1.54c-1.47-.44-3-.66-4.54-.64h-.02l-.65 1.3c.83.16 1.64.46 2.38.88Zm-10.63.26c-.68.41-1.32.9-1.9 1.44h1.57a14 14 0 0 1 1.13-.81zm7.99-2.43c-1.25.05-2.48.25-3.69.57l.1.84a8.6 8.6 0 0 1 3.22-.24zm7 1.23L22.68 8.1c.18.13.36.27.52.42h5.46s-.62-.95-2.3-1.79Z"/><path fill="#D13239" d="M15.3 11.4c-.11-.1-.24-.17-.37-.22a3 3 0 0 0-1.06-.2l-.23-.01H10.4l-1.23 7.47h1.16l.45-2.77 2.25.01s.87.04 1.49-.29c.61-.33.79-1.07.79-1.07l.12-.62.16-1.05.02-.17s.02-.08.02-.2c0-.16-.03-.41-.16-.65-.06-.08-.1-.15-.18-.22Zm-.9 1.33c0 .01-.1.61-.24 1.32-.05.28-.25.42-.5.47-.39.09-.81.07-.81.07h-1.88l.41-2.49h1.97c.18 0 .42.02.63.04.17.03.3.06.35.11.06.07.07.17.08.25v.23Z"/><path fill="#B3B2B1" d="M16.75 13.58h1.16l.07-.45s.13-.83.4-.98c.1-.05.24-.1.4-.13.32-.05.7-.06 1.02-.05.49.02.67.02 1.16.08.5.06.37.53.37.53l-.1.7s-.03.33-.14.52c-.1.18-.38.3-.54.35-.39.13-1.71.47-1.71.47l-1.04.3s-.63.18-.99.57c-.36.4-.5.84-.55 1.08-.05.23-.32 1.85-.32 1.85h5.59l.19-1.11H17.3l.07-.45s.06-.47.24-.62c.07-.06.1-.12.45-.24.21-.08.94-.27.94-.27l1.66-.45s.91-.24 1.27-.74.5-1.45.5-1.45.1-.92.03-1.22a1.36 1.36 0 0 0-.68-.78c-.34-.15-.68-.24-1.69-.23-1 .02-1.5.06-2.01.25-.52.2-.8.53-1 1.01-.21.47-.33 1.46-.33 1.46m11.16 1.96.79-4.7h-1.39l-4.33 4.65-.2 1.17h3.79l-.28 1.66h1.17l.27-1.66h1.07l.19-1.12zm-1.15 0h-2.44l2.97-3.17z"/></g><defs><clipPath id="pi-przelewytwofourpaynlversion-a"><use xlink:href="#pi-przelewytwofourpaynlversion-b"/></clipPath></defs></svg>