<svg width="100%" height="100%" viewBox="0 0 38 24" version="1.1" xmlns="http://www.w3.org/2000/svg" xml:space="preserve" fill-rule="evenodd" clip-rule="evenodd" stroke-miterlimit="10"><g transform="translate(7) scale(.03)"><path fill="#fff" d="M0 0h800v800H0z"/><circle cx="400" cy="400" r="377" fill="none" stroke="#fff" stroke-width="1"/><path d="M72.32 351.82H26.05a379.624 379.624 0 00-3 43.45h77.42l-28.15-43.45zm163.75-60.48h16.79l1.52-14h-12.6a10.001 10.001 0 00-5.33 1.55 7.792 7.792 0 00-1.5 12c.301.289.703.451 1.12.45zM323.62 327c-4.13 0-17.33.06-30.53.08h-21.92c-4.09 0-7 0-9.2-.15-9.54 1.64-26.55 16.81-31.8 30.93-1 4.44-8.66 46.21-17 92 11.47 21.84 29.17 25.09 31.78 25.46l56.72-1.62c19.71-6.34 26.88-27 27.7-29.6L345 348.9c1.58-10.62-14.69-21.97-21.38-21.9z" fill="#035bad" fill-rule="nonzero"/><path d="M400 23c-145.48 0-271.71 82.41-334.57 203.08 7.299 1.487 12.589 7.965 12.589 15.413 0 8.629-7.1 15.73-15.73 15.73a15.736 15.736 0 01-9.859-3.473 387.664 387.664 0 00-11.58 31.3 15.724 15.724 0 012.149 7.934A15.74 15.74 0 0134.59 306.9a375.664 375.664 0 00-7.18 35.28h49.91l34.37 53.09h84v9.65H144.3l-33.08 55.77H75.84c-2.089 6.482-8.161 10.905-14.972 10.905-8.629 0-15.73-7.101-15.73-15.73 0-8.629 7.101-15.73 15.73-15.73 6.811 0 12.883 4.423 14.972 10.905h31.46l27.36-46.12H23a377.654 377.654 0 0011.09 86.32 13.023 13.023 0 018.246 12.1c0 2.855-.941 5.632-2.676 7.9a367.137 367.137 0 0011.94 33.08 15.723 15.723 0 019.201-2.974c8.624 0 15.72 7.096 15.72 15.72 0 7.195-4.939 13.515-11.921 15.254C127.18 693.87 253.88 777 400 777c208.21 0 377-168.79 377-377S608.21 23 400 23zM96.56 307.66h-.01c-8.629 0-15.73-7.101-15.73-15.73 0-8.629 7.101-15.73 15.73-15.73 8.629 0 15.73 7.101 15.73 15.73v.01c0 8.624-7.096 15.72-15.72 15.72zm-1.82 214.13c-8.629 0-15.73-7.101-15.73-15.73 0-8.629 7.101-15.73 15.73-15.73 8.629 0 15.73 7.101 15.73 15.73v.01c0 8.624-7.096 15.72-15.72 15.72h-.01zm202.33-277.73a1.648 1.648 0 011.45 1.81l-1.81 16.75c2.1-1.75 5.25-3.07 10-3.07 4.9 0 8.41 1.28 10.44 3.79a8.723 8.723 0 011.69 6.71l-2.51 23.11a1.637 1.637 0 01-1.62 1.46h-.18a1.648 1.648 0 01-1.45-1.81l2.51-23.17a.485.485 0 010-.17 5.444 5.444 0 00-1-4.09c-1.37-1.66-4.09-2.54-7.87-2.54-8.56 0-10.4 5.08-10.79 7.23l-2.5 23.1a1.646 1.646 0 01-1.63 1.46h-.18a1.648 1.648 0 01-1.45-1.81l2.38-22c0-.13 0-.37.08-.7l2.67-24.6a1.637 1.637 0 011.77-1.46zm-34.35 31.19a45.79 45.79 0 015.34-11.48 8.27 8.27 0 017.2-4.22H290c.9 0 1.64.74 1.64 1.64 0 .9-.74 1.64-1.64 1.64h-14.74a5.007 5.007 0 00-4.36 2.58l-.07.12a42.873 42.873 0 00-4.95 10.59c-1.41 5.09.41 10.77.43 10.83a5.011 5.011 0 004.73 3.42h13.24a1.646 1.646 0 011.512 1.635c0 .851-.663 1.569-1.512 1.635H271a8.258 8.258 0 01-7.8-5.64c-.09-.29-2.2-6.69-.48-12.75zm-33.15 8.85a11.058 11.058 0 015.08-8 13.322 13.322 0 017.08-2h13l.87-8v-.05c.024-.169.037-.339.037-.51a3.588 3.588 0 00-3.57-3.57H234.68a1.647 1.647 0 01-1.768-1.635 1.647 1.647 0 011.768-1.635h17.39c3.76.004 6.852 3.1 6.852 6.86 0 .308-.021.615-.062.92L256 293.16a1.646 1.646 0 01-1.63 1.46h-18.3a4.944 4.944 0 01-3.54-1.52 11.005 11.005 0 01-2.96-9zM340.27 447c-.34 1.2-8.6 29.55-36.07 37.79a5.513 5.513 0 01-1.46.23l-57.91 1.66c-.23.02-.46.02-.69 0-.91-.09-19.21-2-33.92-20.59-6.22 34.2-12.47 68.56-16.22 89.55a5.657 5.657 0 01-5.54 4.63 5.627 5.627 0 01-5.633-5.614c0-.341.031-.681.093-1.016.062-.335 9-49.64 18-99.28 4.52-24.83 9.06-49.65 12.49-68.27 1.73-9.32 3.17-17.09 4.2-22.52a86.8 86.8 0 012.05-9.39h-.1c6.36-17.4 26.2-36.05 40.81-38.37a6.027 6.027 0 011.53 0c3.72.13 39.45 0 63 0 5.47-.13 34.67 10.93 31.28 34.06 0 .2 0 .41-.07.61l-15.72 96a4.61 4.61 0 01-.12.52zm168.21-121.52h-88.69c-4.32 1.1-31.69 9.22-31.46 38v.42c-.06 1-1.22 23.71 20.25 27.64h62.87c.32 0 31.42 2.37 29.79 45.36-1.24 33.25-27.24 46.42-40.78 48.74a5.128 5.128 0 01-.95.08h-99.24a6.246 6.246 0 01-.237.005c-3.094 0-5.64-2.546-5.64-5.64s2.546-5.64 5.64-5.64c.079 0 .158.002.237.005H459c3.76-.79 29.83-7.38 31-38 1.16-30.34-16.24-33.37-19.06-33.67h-63.73c-25.54-4.26-30.89-27.22-30.15-39.43-.14-31.75 26.65-46 40.87-49 .39-.088.79-.132 1.19-.13h89.36c.079-.003.158-.005.237-.005 3.094 0 5.64 2.546 5.64 5.64s-2.546 5.64-5.64 5.64c-.079 0-.158-.002-.237-.005v-.01zm154.7 81.57l-127.45 1.07c-3.21 18.12-5.88 36.28-5.67 45.65.4 17.46 22.37 20.9 25.23 21.27h91.24c3.094 0 5.64 2.546 5.64 5.64s-2.546 5.64-5.64 5.64H554.4c-12.12-1.32-35.1-9.73-35.61-32.32-.55-24 15.51-96.8 16.2-99.89.049-.253.122-.501.22-.74.55-1.51 14-36.88 43.84-36.88h65.87a5.56 5.56 0 011.57.22c1.15.33 28.17 8.41 28.17 31.66 0 19.54-5.73 52.59-6 54a5.657 5.657 0 01-5.48 4.68z" fill="#035bad" fill-rule="nonzero"/><path d="M644 327.79h-65c-20.8 0-31.86 26-33.15 29.2-.63 2.9-4.4 20.2-8.1 39.84l120.55-1c1.58-9.82 5-33 5-47.42.09-13.19-15.75-19.41-19.3-20.62z" fill="#035bad" fill-rule="nonzero"/><path d="M96.56 276.21h-.01c-8.629 0-15.73 7.101-15.73 15.73 0 8.629 7.101 15.73 15.73 15.73 8.629 0 15.73-7.101 15.73-15.73 0-8.625-7.095-15.725-15.72-15.73zM78 241.49c-.002-7.434-5.27-13.903-12.55-15.41-4.667 9.02-9 18.243-13 27.67a15.725 15.725 0 009.83 3.453c8.621 0 15.716-7.092 15.72-15.713zM43 293a15.56 15.56 0 00-2.15-7.93 374.39 374.39 0 00-6.26 21.85A15.731 15.731 0 0043 293z" fill="#ffb900" fill-rule="nonzero"/><circle cx="94.74" cy="506.07" r="15.73" fill="#ffb900"/><path d="M34.12 491.24a378.663 378.663 0 005.57 20 13.005 13.005 0 002.676-7.9c0-5.334-3.282-10.15-8.246-12.1zm42.48 65.82v-.031c0-8.624-7.096-15.72-15.72-15.72a15.726 15.726 0 00-9.28 3.031 367.794 367.794 0 0013 28c7.02-1.713 11.999-8.054 12-15.28zM107.3 451H75.84c-2.089-6.482-8.161-10.905-14.972-10.905-8.629 0-15.73 7.101-15.73 15.73 0 8.629 7.101 15.73 15.73 15.73 6.811 0 12.883-4.423 14.972-10.905h35.38l33.08-55.77h51.4v-9.65h-84l-34.38-53.05H27.41c-.49 3.2-.95 6.41-1.36 9.64h46.27l28.13 43.45H23v9.65h111.66L107.3 451z" fill="#ffb900" fill-rule="nonzero"/><path d="M236.07 294.62h18.26c.832 0 1.539-.633 1.63-1.46l2.9-26.79c.041-.305.062-.612.062-.92 0-3.76-3.092-6.856-6.852-6.86h-17.39a1.647 1.647 0 00-1.768 1.635 1.647 1.647 0 001.768 1.635h17.397a3.588 3.588 0 013.57 3.57c0 .171-.013.341-.037.51v.06l-.87 8h-13a13.322 13.322 0 00-7.08 2 11.082 11.082 0 00-2.12 17 4.94 4.94 0 003.53 1.62zm-3.25-10.12a7.735 7.735 0 013.58-5.62 10.001 10.001 0 015.33-1.55h12.6l-1.52 14h-16.74a1.612 1.612 0 01-1.17-.5 7.796 7.796 0 01-2.08-6.33zm61.31-11.9a1.637 1.637 0 01-1.61-1.63v-.15l-2.38 22a1.648 1.648 0 001.45 1.81h.18c.832 0 1.539-.633 1.63-1.46l2.5-23.1a7.085 7.085 0 00-.11.93 1.628 1.628 0 01-1.62 1.6h-.04zm2.58-9.98l1.81-16.75a1.641 1.641 0 00-1.625-1.809 1.64 1.64 0 00-1.625 1.459l-2.67 24.6a12.002 12.002 0 014.11-7.5z" fill="#fff" fill-rule="nonzero"/><path d="M306.69 262.83c3.78 0 6.5.88 7.87 2.54a5.444 5.444 0 011 4.09.485.485 0 000 .17l-2.51 23.17a1.648 1.648 0 001.45 1.81h.18a1.637 1.637 0 001.62-1.46l2.51-23.11a8.723 8.723 0 00-1.69-6.71c-2-2.51-5.54-3.79-10.44-3.79-4.73 0-7.88 1.32-10 3.07l-.81 7.44c.42-2.14 2.26-7.22 10.82-7.22zm-14.17 7.99l.08-.7c-.05.33-.07.57-.08.7z" fill="#fff" fill-rule="nonzero"/><path d="M292.6 270.12l-.08.7v.11a1.647 1.647 0 001.633 1.794 1.648 1.648 0 001.637-1.734c.016-.312.053-.623.11-.93l.81-7.44a12.002 12.002 0 00-4.11 7.5zM271 293.64h13.24a1.646 1.646 0 001.512-1.635c0-.851-.663-1.569-1.512-1.635H271a5.011 5.011 0 01-4.73-3.42c0-.06-1.84-5.74-.43-10.83a42.873 42.873 0 014.95-10.59l.07-.12a5.007 5.007 0 014.36-2.58H290c.9 0 1.64-.74 1.64-1.64 0-.9-.74-1.64-1.64-1.64h-14.74a8.27 8.27 0 00-7.2 4.22 45.79 45.79 0 00-5.34 11.48c-1.68 6.06.39 12.46.48 12.73a8.258 8.258 0 007.8 5.66zm237.48 20.57h-89.36c-.4-.002-.8.042-1.19.13-14.22 3.08-41 17.29-40.87 49-.74 12.21 4.61 35.17 30.15 39.43h63.69c2.82.3 20.22 3.33 19.06 33.67-1.17 30.59-27.24 37.18-31 38h-98.69a6.246 6.246 0 00-.237-.005c-3.094 0-5.64 2.546-5.64 5.64s2.546 5.64 5.64 5.64c.079 0 .158-.002.237-.005h99.24c.318.003.637-.024.95-.08 13.55-2.32 39.5-15.49 40.77-48.73 1.63-43-29.47-45.35-29.79-45.36h-62.87c-21.47-3.93-20.31-26.64-20.25-27.64v-.42c-.23-28.79 27.14-36.91 31.46-38h88.69c.079.003.158.005.237.005 3.094 0 5.64-2.546 5.64-5.64s-2.546-5.64-5.64-5.64c-.079 0-.158.002-.237.005h.01zm154.7 92.84a5.658 5.658 0 005.51-4.66c.24-1.4 6-34.45 6-54 0-23.25-27-31.33-28.17-31.66a5.56 5.56 0 00-1.57-.22h-65.9c-29.82 0-43.29 35.37-43.84 36.88a3.908 3.908 0 00-.22.74c-.69 3.09-16.75 75.92-16.2 99.89.51 22.56 23.49 31 35.56 32.25h92.18c3.094 0 5.64-2.546 5.64-5.64s-2.546-5.64-5.64-5.64h-91.24c-2.86-.37-24.83-3.81-25.23-21.27-.21-9.37 2.46-27.53 5.67-45.65m122.62-12.3l-120.55 1c3.7-19.64 7.47-36.94 8.1-39.84 1.29-3.21 12.35-29.2 33.15-29.2h65c3.52 1.22 19.36 7.43 19.36 20.61-.02 14.46-3.48 37.66-5.06 47.48v-.05zM356.2 349.76c3.39-23.13-25.81-34.19-31.28-34.06-23.59.08-59.32.16-63 0a6.027 6.027 0 00-1.53 0c-14.61 2.32-34.45 21-40.81 38.37h.1a86.8 86.8 0 00-2.05 9.39c-1 5.43-2.47 13.2-4.2 22.52-3.43 18.62-8 43.44-12.49 68.27l-18 99.28a5.582 5.582 0 00-.093 1.016 5.627 5.627 0 005.633 5.614 5.657 5.657 0 005.54-4.63c3.79-21 10-55.35 16.26-89.61 14.71 18.55 33 20.5 33.92 20.59.23.02.46.02.69 0l57.85-1.51a5.513 5.513 0 001.46-.23c27.47-8.24 35.73-36.59 36.07-37.79a4.52 4.52 0 00.14-.62l15.72-96c.03-.19.04-.36.07-.6zm-11.2-.86l-15.6 95.24c-.82 2.56-8 23.26-27.7 29.6l-56.72 1.62c-2.61-.37-20.31-3.62-31.78-25.46 8.36-45.84 16-87.61 17-92 5.25-14.12 22.26-29.29 31.8-30.93 2.16.13 5.11.14 9.2.15h21.92c13.2 0 26.4-.06 30.53-.08 6.66-.11 22.93 11.24 21.35 21.86z" fill="#fff" fill-rule="nonzero"/></g></svg>