<svg
    xmlns="http://www.w3.org/2000/svg" width="38" height="24" role="img" viewBox="0 0 38 24" aria-labelledby="pi-pse">
    <title id="pi-pse">PSE</title>
    <path d="M35 0H3C1.3 0 0 1.3 0 3v18c0 1.7 1.4 3 3 3h32c1.7 0 3-1.3 3-3V3c0-1.7-1.4-3-3-3z" opacity=".07"/>
    <path fill="#fff" d="M35 1c1.1 0 2 .9 2 2v18c0 1.1-.9 2-2 2H3c-1.1 0-2-.9-2-2V3c0-1.1.9-2 2-2h32"/>
    <path d="M13.4 12.9c-.1-.1 0-.3-.1-.4v-.2-.2-.1h.1l.3.6c0 .1 0 .3.2.3.2.1.2.2.3.4v.2c0 .1.1.1.2.2.3.4.7.8 1.1 1.1.8.6 1.7.9 2.7 1 1.5.2 2.9-.2 4.1-1.1.9-.7 1.6-1.5 2-2.5 0-.1.1-.2.1-.3 0 0 0-.1.1-.1v.7c-.1.1 0 .1-.1.2s-.2.3-.2.4c-.6 1-1.4 1.8-2.4 2.4-.7.4-1.5.6-2.3.7-1.1.1-2.1 0-3.1-.5-.8-.3-1.5-.8-2.1-1.4-.4-.4-.7-.8-.9-1.3.1 0 .1-.1 0-.1z" fill="#13385c"/>
    <path d="M24.6 11.9c-.1.1-.1.2-.1.2-.3.8-.7 1.4-1.3 2-.5.5-1 .9-1.7 1.2-.6.3-1.2.5-1.8.5-.4.1-.8.1-1.1 0-.7 0-1.3-.2-1.9-.5-.6-.3-1.1-.6-1.6-1l-.6-.6-.1-.1h.2s.1 0 .1.1c.7.7 1.5 1.3 2.4 1.6.6.2 1.1.3 1.7.3.7 0 1.4-.1 2.1-.3.7-.2 1.4-.6 1.9-1.1.8-.7 1.4-1.6 1.7-2.7 0-.1 0-.2.1-.2V11.9z" fill="#14395f"/>
    <path d="M13.9 13c-.2-.1-.2-.2-.2-.4 0-.1.1-.2.2-.2s.2 0 .3.1l.1.1h.3c.2 0 .2-.1.3-.2 0-.1.1-.1.1-.2s0-.1-.1-.1H13.5v-.2h1c-.1-.2-.2-.3-.4-.5-.1-.1-.2 0-.3 0h-.3v-.2H14.1c.1 0 .2 0 .3.2.1.2.3.3.4.5l.1.1H16c0 .2 0 .2-.1.2h-.5c-.1 0-.1.1-.1.1-.1.2-.2.3-.2.5-.1.2-.2.2-.3.2h-.4l-.1.1c-.2 0-.3 0-.4-.1z" fill="#fab617"/>
    <path d="M13.4 11.3h.3c.1.2.1.3.2.5v.1h-.3c-.1 0-.2 0-.1-.1v-.1-.2c-.1-.1-.1-.2-.1-.2z" fill="#123c63"/>
    <path d="M13.4 12h1.7c-.1.1-.1.3-.2.4-.1 0-.1-.1-.1-.1-.1-.1-.1-.2-.3-.2h-.7c-.2 0-.3 0-.4-.1z" fill="#18416e"/>
    <path d="M13.4 11.7c0 .2.1.2.3.2h.2c.2-.1.4-.1.6 0h-1.1v-.2z" fill="#526e86"/>
    <path d="M18.9 6.4h.3-.3z" fill="#8aa1bb"/>
    <path d="M19.1 17.6h-.3.3z" fill="#8295a3"/>
    <path d="M13.4 12.1v0z" fill="#4d6a88"/>
    <path fill="#4a6985" d="M24.6 11.8v-.2.2zM24.6 12.3v-.2.2z"/>
    <path fill="#c6d1dc" d="M19.1 6.4h0zM18.9 6.4c-.1.1-.1.1-.2 0h.2z"/>
    <path d="M19.1 17.6c.1-.1.1-.1.2 0h-.2z" fill="#c3ccd3"/>
    <path d="M18.9 17.6h-.2.2z" fill="#bfc8d1"/>
    <path fill="#133f6b" d="M23.7 8.9c.2.2.3.4.4.7.1 1-.1 1.9-.5 2.8-.5 1-1.2 1.7-2.2 2.2-.9.5-1.8.7-2.8.6-.9-.1-1.7-.3-2.5-.8-.1 0-.1-.1-.1-.1 0-.1 0-.2.1-.3.1 0 .1 0 .1.1.7.5 1.5.8 2.4.9.8.1 1.6-.1 2.4-.4.6-.3 1-.6 1.5-1.1.1 0 .1-.1.2-.1 0-.1.1-.2.1-.2.6-.7.9-1.5 1-2.4 0-.5 0-.9-.1-1.4-.1-.4-.1-.5 0-.5z"/>
    <path d="M16 14.2c.6.4 1.2.7 1.9.8.5.1.9.1 1.4.1.7 0 1.3-.2 1.9-.5.4-.2.8-.5 1.1-.8.5-.4.9-1 1.2-1.6.3-.5.4-1.1.5-1.6v-.9-.1c.1.2.2.5.3.7 0 .3-.1.6-.1.9-.2.9-.6 1.8-1.3 2.5-.9 1-2 1.6-3.3 1.7-1 .1-2 0-3-.5-.2-.1-.5-.2-.7-.4-.1 0-.2 0-.2-.1.2-.1.2-.1.3-.2z" fill="#133d68"/>
    <path d="M24.6 11.4c-.1.1-.1.1-.1.2-.2.7-.6 1.4-1 2-.4.5-.8.9-1.3 1.2-.6.4-1.3.7-2 .8-.6.1-1.1.1-1.7.1-.8-.1-1.6-.3-2.3-.7-.6-.3-1.1-.8-1.6-1.3 0-.1.1-.1.2-.1s.1.1.2.1c.5.5 1 .9 1.6 1.2.6.3 1.3.5 1.9.6 1 .1 2-.1 3-.5 1-.5 1.8-1.2 2.4-2.2.3-.5.5-1.1.6-1.6 0-.1 0-.2.1-.2v.4z" fill="#133a61"/>
    <path fill="#113c64" d="M15.8 14.4c.2 0 .4.2.5.3.6.3 1.2.6 1.8.7 1.1.2 2.1 0 3.1-.5.5-.2.9-.5 1.3-.9.8-.8 1.4-1.7 1.6-2.9.1-.2.1-.5.1-.8v-.1c0 .1.1.3.1.4 0 .1 0 .2-.1.3-.2 1-.6 1.9-1.3 2.7-.9 1.1-2.1 1.7-3.5 1.9-1 .1-1.9 0-2.8-.4-.6-.2-1.2-.6-1.6-1l-.5-.5c0-.1-.1-.2-.2-.3-.1-.1-.2-.2-.2-.3v-.1h.1c.1.1.1.2.2.3.3.4.7.8 1.1 1.2.2-.1.3-.1.3 0z"/>
    <path fill="#1c477d" d="M18.7 6.4h.7c.3 0 .7.1 1 .2l.1.1c1.1.5 1.9 1.4 2.2 2.6.1.4.1.9.1 1.3 0 .1 0 .1-.1.2h-.1c.2-1.1-.1-2.1-.8-3-.8-.8-1.6-1.2-2.5-1.3-1-.1-1.8.2-2.6.8-.7.6-1.2 1.4-1.3 2.4-.1.7.1 1.4.4 2 0 .1.1.1.1.1h-1.1-.1c.1-.1.2 0 .3 0h.5c.1 0 .1 0 .1-.1-.1-.2-.2-.4-.2-.7-.3-1.3-.1-2.4.8-3.5.3-.4.7-.7 1.2-.9h.1c.3-.1.7-.2 1.2-.2z"/>
    <path fill="#113c64" d="M14.7 13.5l.6.6c.4.4.9.7 1.4.9.5.2 1 .4 1.5.4.4 0 .7.1 1.1 0 .5 0 1-.1 1.5-.3.6-.2 1.2-.5 1.7-1 .6-.5 1.1-1.1 1.4-1.8.3-.5.4-1.1.5-1.6 0-.1 0-.1.1-.1 0 .1.1.2.1.3-.1 0-.1.1-.1.2-.2.7-.5 1.4-.9 2.1-.5.7-1.1 1.3-1.9 1.7-.5.3-1.1.5-1.7.6-.5.1-1 .1-1.5.1-.7-.1-1.4-.3-2.1-.6-.4-.2-.8-.5-1.2-.8-.2-.2-.3-.4-.5-.5v-.2z"/>
    <path fill="#1a467a" d="M22.6 10.7c.1-.4.1-.8 0-1.1 0-.5-.2-.9-.4-1.4-.3-.5-.6-.8-1-1.2-.2-.2-.5-.3-.8-.5-.1 0-.1 0 0-.1.4.1.8.2 1.2.4.1 0 .1.1.2.1 0 0 0 .1.1.1.7.7 1.1 1.5 1.2 2.5v1c0 .1 0 .1-.1.2-.3.2-.4.1-.4 0z"/>
    <path fill="#174476" d="M22.8 10.8c.1-.4.1-.7.1-1.1 0-.3-.1-.7-.2-1-.2-.6-.5-1.1-1-1.6l-.1-.1c.3.2.6.3.8.5.2.3.3.6.5.9.2.4.3.9.3 1.4 0 .4 0 .7-.1 1.1 0 .1 0 .2-.1.2h-.1s-.1-.1-.1-.3z"/>
    <path d="M23.7 8.9c-.1.1 0 .1 0 .2 0 .3.1.6.1.8 0 .5 0 1-.2 1.5-.2.6-.4 1.1-.8 1.6-.1.1-.1.1-.1.2 0-.1-.1-.1-.1-.2s.1-.1.1-.2c.5-.7.8-1.4.9-2.2.1-.6 0-1.3-.2-1.9 0-.1-.1-.2 0-.3.1.2.2.3.3.5z" fill="#14406d"/>
    <path fill="#164273" d="M23 11.2c.1-.2.1-.4.2-.6.1-.3 0-.7 0-1 0-.5-.2-1-.4-1.4-.1-.2-.2-.3-.3-.5v-.1c.2.1.3.3.5.4l.3.9c.2 1 .2 1.9-.2 2.8 0 .1-.1.2-.2.2-.1-.2 0-.3.1-.5 0 0-.1-.1 0-.2z"/>
    <path fill="#164271" d="M22.9 11.9c.1-.1.2-.3.2-.4l.3-1.2c.1-.7-.1-1.4-.4-2.1 0-.1-.1-.1 0-.2l.2.2c.1.3.2.6.3 1 .1.6.1 1.1 0 1.7-.1.8-.5 1.5-1 2.1l-.1.1h-.2c-.1-.1 0-.1 0-.2.1-.1.2-.3.3-.4.1-.1.1-.2.2-.3.1-.1.1-.2.2-.3z"/>
    <path fill="#164271" d="M22.4 13c0-.1.2-.2.3-.4.3-.5.6-1 .7-1.6.1-.3.1-.6.1-1 0-.2 0-.5-.1-.8-.1-.3-.1-.6-.3-1v-.1l.2.2c0 .2.1.3.1.5.1.4.1.8.1 1.3 0 .6-.2 1.2-.5 1.8-.1.3-.3.5-.5.8 0 .1-.1.1-.1.2.1.1 0 .1 0 .1z"/>
    <path d="M24.4 13.6c-.1.3-.2.5-.3.7l-.4.4c-.9.9-1.9 1.4-3.1 1.8-.7.2-1.4.2-2 .2-.9 0-1.7-.3-2.5-.7-.7-.3-1.3-.8-1.9-1.3-.1-.1-.1-.1-.1-.2s.1-.1.2-.2c.1 0 .1 0 .1.1.5.5 1.1.9 1.7 1.2.4.2.9.4 1.4.5.5.1 1.1.2 1.6.2.9 0 1.7-.2 2.5-.6.5-.2 1-.5 1.4-.9.5-.4.8-.8 1.2-1.3 0 .2.1.1.2.1z" fill="#153557"/>
    <path d="M14.1 14.6c.4.5.9.8 1.4 1.1.4.3.9.5 1.3.6.4.1.9.3 1.4.3.3 0 .7.1 1 .1.6 0 1.2-.1 1.7-.3.8-.2 1.6-.6 2.2-1.2.3-.2.6-.5.9-.8l.1-.1c-.1.3-.3.5-.4.8-.1.1-.2.2-.4.3-1 .8-2.1 1.3-3.3 1.4-1.4.2-2.8 0-4.1-.6-.5-.2-.9-.5-1.3-.9h-.1c-.2-.2-.4-.4-.4-.7-.1 0-.1 0 0 0z" fill="#143454"/>
    <path fill="#143659" d="M13.4 12.9c.1 0 .1 0 0 0 .4.6.8 1.2 1.3 1.6.4.3.7.6 1.2.9.6.4 1.3.6 2 .7.5.1 1 .1 1.5.1s1-.1 1.5-.3c.4-.1.8-.3 1.2-.5.5-.3.9-.6 1.3-1 .4-.5.8-1 1.1-1.5 0 0 0-.1.1-.1 0 .1 0 .3-.1.4-.3.6-.8 1.1-1.3 1.6-.6.6-1.3 1-2.1 1.3-.6.2-1.1.3-1.7.4-1.1.1-2.2-.1-3.3-.6-.7-.3-1.3-.8-1.8-1.3l-.2-.2c-.1-.1-.1-.2-.2-.2s-.1.1-.2 0c-.1-.2-.1-.3-.2-.5 0-.1 0-.2-.1-.3.1-.2 0-.3 0-.5z"/>
    <path d="M15.3 16.3c-.2-.2-.4-.3-.6-.5.1-.1.1-.1.1 0 .2.1.4.3.6.4.9.5 1.8.8 2.8.9 1.4.1 2.7-.1 3.9-.8.4-.2.7-.4 1-.7.1-.1.1-.1.2 0-.2.2-.3.4-.5.6-.2.1-.5.3-.7.4-.8.4-1.6.6-2.4.7-.4 0-.7.1-1.1 0-.9 0-1.7-.2-2.6-.6-.2-.2-.4-.3-.7-.4z" fill="#143251"/>
    <path d="M24.4 13.6c-.1 0-.1 0-.1.1-.3.4-.5.7-.9 1-.4.4-.9.7-1.3 1-.5.3-1 .5-1.5.6-.4.1-.8.2-1.2.2h-.6c-.6 0-1.1-.1-1.6-.3-.4-.1-.7-.2-1-.4-.4-.2-.8-.5-1.2-.8l-.6-.6s0-.1-.1-.1v-.1c.1 0 .1 0 .1.1.6.6 1.3 1.1 2.2 1.5.6.3 1.2.4 1.9.5.9.1 1.7 0 2.6-.3.9-.3 1.7-.8 2.4-1.4.4-.4.7-.8 1-1.2 0 0 0-.1.1-.1h.1c-.3.1-.3.2-.3.3z" fill="#153659"/>
    <path d="M16.6 17.1c-.3-.1-.5-.3-.7-.4 0 0-.1 0-.1-.1s0-.1.1 0h.2s.1 0 .1.1h.1s.1 0 .1.1h.1s.1 0 .1.1c.1 0 .2.1.2.1.1 0 .1 0 .2.1h.1c.1 0 .1 0 .2.1.1 0 .3.1.4.1.8.1 1.6.1 2.4 0 .1 0 .3 0 .4-.1.5-.1 1-.3 1.5-.5.1-.1.2-.1.3-.2 0 0 .1-.1.1 0-.3.2-.5.4-.9.6-.7.3-1.4.4-2.1.5-.9-.1-1.8-.2-2.8-.5z" fill="#15304e"/>
    <path d="M23.4 15.5c-.1 0-.1 0-.1.1-.8.6-1.7 1.1-2.7 1.3-.7.2-1.4.2-2.1.2-1-.1-2-.4-2.9-.9-.2-.1-.5-.3-.7-.4 0 0-.1-.1-.1 0l-.3-.3h.1c.5.4 1.1.8 1.7 1 .5.2 1.1.4 1.6.4.4.1.8.1 1.1.1.9 0 1.8-.2 2.6-.6.5-.2 1-.5 1.4-.8.1-.1.3-.2.4-.3 0 0 .1-.1.2-.1 0 0-.1.2-.2.3z" fill="#133352"/>
    <path d="M16.6 17.1c.1 0 .2 0 .3.1.4.1.9.2 1.3.3.3 0 .6.1.8 0 .8 0 1.5-.1 2.2-.4.1 0 .2-.1.4-.1-.4.3-1 .5-1.5.6-.3.1-.6.1-.9.1h-.7c-.5-.1-1.2-.3-1.9-.6z" fill="#142f4c"/>
    <path fill="#143659" d="M24.5 13.3c-.1-.1-.1 0 0 0-.2.1-.3.3-.4.4-.4.6-.9 1.1-1.5 1.5-.7.5-1.4.8-2.2 1-.7.2-1.3.2-2 .1-.9-.1-1.7-.3-2.5-.7-.4-.2-.8-.5-1.2-.9l-.5-.5v-.1c.1 0 .1 0 .1.1.6.6 1.2 1.1 2 1.4.6.3 1.2.5 1.9.5.4 0 .7.1 1.1 0 .5 0 .9-.1 1.4-.2.6-.2 1.2-.5 1.8-.8.5-.3.9-.7 1.3-1.1.2-.1.4-.4.7-.7-.1-.1 0-.2.1-.2-.1.1-.1.1-.1.2z"/>
    <path fill="#14314f" d="M16 16.6c-.2-.1-.3-.2-.5-.2-.1-.1-.2-.1-.2-.2.1-.1.1 0 .1 0 .4.2.9.4 1.3.6.4.1.9.2 1.4.3.3 0 .6.1.9.1.9 0 1.8-.2 2.7-.5.4-.2.7-.3 1.1-.5 0 0 .1-.1.1 0l-.3.3c-.1 0-.1 0-.2.1-.5.3-1 .5-1.5.6-.1 0-.2 0-.2.1-.1 0-.3.1-.4.1-.8.1-1.6.1-2.4 0-.1 0-.3 0-.4-.1-.1 0-.1 0-.2-.1h-.1c-.1 0-.1 0-.2-.1-.1 0-.2 0-.2-.1 0 0-.1 0-.1-.1h-.1s-.1 0-.1-.1h-.1c-.3-.1-.4-.1-.4-.2z"/>
    <path d="M14.2 14.2c0 .1 0 .1 0 0v.2c0 .1-.1.1-.1.1H14c-.1-.1-.2-.3-.2-.5.2 0 .3 0 .4.2z" fill="#f9b617"/>
    <path fill="#14314f" d="M15.5 16.4h.2c.1 0 .2.1.2.1-.1 0-.1-.1-.2 0 0 0-.1 0-.2-.1z"/>
    <path d="M13.5 13.4c.1 0 .1.1.1.3 0-.2-.1-.3-.1-.3z" fill="#e5ab2c"/>
    <path fill="#1a467a" d="M17.4 6.6c0 .1 0 .1 0 0-.5.3-.8.5-1.1.8-.5.5-.9 1.2-1 1.9-.1.7 0 1.5.3 2.2v.1c0 .1.1.2.1.2h-.2-.1c-.1 0-.1-.1-.1-.2-.6-1.5-.4-2.9.6-4.2 0-.1.1-.1.1-.2.5-.3.9-.5 1.4-.6z"/>
    <path fill="#174475" d="M16 7.2c.1.1 0 .1 0 0-.3.4-.5.7-.7 1.1-.2.4-.3.7-.3 1.2-.1.7 0 1.4.3 2.1 0 .1.1.2.1.3H15l-.3-.9c0-.1 0-.2-.1-.3v-.4c0-.4 0-.8.1-1.2.1-.4.3-.8.5-1.2.3-.3.5-.5.8-.7z"/>
    <path fill="#154272" d="M15.3 7.8c0 .2-.1.3-.2.4-.2.5-.4 1-.4 1.5 0 .1 0 .3-.1.4-.1 0-.2 0-.2-.1-.1-.2 0-.5 0-.7 0-.3.2-.7.2-1 .3-.1.4-.3.7-.5z"/>
    <path fill="#16406e" d="M14.7 11.7c-.1-.2-.3-.3-.4-.5-.1-.3-.1-.6-.1-.9v-.5-.1c.1-.2.1-.3-.1-.4.1-.2.2-.4.4-.6.1 0 .1.1.1.1-.1.3-.1.6-.1.9v.4c-.1.2-.1.3.1.4 0 0 0 .1.1.2.1.3.1.5.2.8-.2.1-.1.2-.2.2z"/>
    <path fill="#133f6b" d="M14.1 9.8v.8c0 .2.1.4.1.6v.1c-.1-.1-.2-.2-.4-.2h-.4c.1-.1.2 0 .3 0 .2 0 .2 0 .1-.2 0-.2-.1-.5-.1-.7v-.3c.2-.1.3-.1.4-.1z"/>
    <path fill="#16406e" d="M14.3 10.1c-.1-.1-.1-.2-.1-.3 0-.3.1-.7.2-1v-.1c.1-.1.2-.2.3-.4.1 0 0 .1 0 .1-.2.5-.3 1-.2 1.6-.1.2-.1.2-.2.1z"/>
    <path fill="#103e68" d="M13.9 9.9c0 .3 0 .7.1 1 0 .2 0 .2-.2.2-.1 0-.1-.1-.1-.1 0-.1 0-.3-.1-.4v-.3c.1-.2.1-.3.3-.4-.1-.1 0-.1 0 0z"/>
    <path d="M13.9 9.9c-.1 0-.1-.1 0 0 0-.2.1-.4.2-.5.2.1.3.3.1.5h-.3z" fill="#f9b619"/>
    <path d="M13.7 10.5c.1.1.1.3.1.4v.1h-.3c0-.2.1-.3.1-.5 0 .1 0 0 .1 0z" fill="#113d66"/>
    <path d="M13.7 10.5l-.1.1c0-.1.1-.3.1-.4v.3z" fill="#f1b120"/>
    <path fill="#fab619" d="M14.7 13.5v.1l-.1.1h-.2c-.1 0-.1-.1-.2-.2v-.2c0-.1.1-.1.2-.2h.1c.2.2.2.3.2.4z"/>
    <path fill="#123a61" d="M13.4 12h.3c.1.1.1.2.2.4v.1c-.1 0-.1.1-.2.2-.1-.2-.1-.3-.2-.5 0-.1-.1-.1-.1-.2zM14.4 13.3c-.1 0-.1.1-.2.1-.1-.1-.1-.2-.2-.3 0-.1-.1 0-.1-.1.1 0 .2 0 .3-.1.1.1.1.2.2.4zM14.2 13.4v0z"/>
    <path fill="#1c477d" d="M15.9 11.9c-.2-.1-.2-.3-.3-.4-.2-.5-.3-.9-.3-1.4 0-.8.3-1.5.7-2.1.5-.7 1.3-1.2 2.1-1.3 1-.2 1.9 0 2.7.6.8.5 1.3 1.3 1.5 2.2 0 .2.1.5.1.7 0 .2 0 .4-.1.6 0 0 0 .1-.1.1h-.1v-.2c0-.5 0-1.1-.2-1.6-.3-.8-.8-1.5-1.6-1.9-.4-.2-.8-.3-1.2-.4-.9-.1-1.8.2-2.5.8-.7.6-1.1 1.3-1.2 2.2-.1.8.1 1.6.6 2.3 0 .1 0 .2-.1.3h-.1c-.1-.2-.3-.1-.4-.1h-.3.5c.3-.3.3-.3.3-.4z"/>
    <path d="M14.9 12.6c.1-.2.1-.3.2-.4h.1c.2.3.4.6.6.8v.1c0 .2 0 .3-.1.4-.1 0-.1 0-.2-.1-.1-.2-.4-.5-.6-.8z" fill="#164170"/>
    <path fill="#133f6b" d="M14.9 12.6l.3.3.6.6c.1.1 0 .2 0 .3-.1.1-.1 0-.2 0-.3-.3-.6-.6-.8-.9-.1-.1-.1-.2-.3-.1H14.2h-.1c.1-.1.2 0 .3 0 .3 0 .5 0 .5-.2z"/>
    <path fill="#174476" d="M15.9 13.1l-.3-.3c-.1-.2-.3-.4-.4-.5 0 0 0-.1-.1-.1 0-.1 0-.1.1-.1h.4c.1.2.2.4.4.5v.1c0 .1 0 .2-.1.4.1 0 0 0 0 0z"/>
    <path fill="#154272" d="M14.7 11.7c-.1-.4-.1-.8-.2-1.1.1-.1.2-.1.2-.1.1.1.1.2.1.3.1.3.1.6.3.8v.1c-.2.1-.3.1-.4 0 0 .1 0 .1 0 0z"/>
    <path fill="#103e68" d="M14.4 11.8h-.6c0-.2-.1-.4-.1-.5.2 0 .4 0 .5.2.1.1.2.2.2.3z"/>
    <path fill="#123d67" d="M14 12h.3c.1.2.2.4.3.5v.1h-.3c-.2-.1-.2-.3-.3-.6 0 .1 0 .1 0 0z"/>
    <path d="M14.6 12.6c0-.1-.1-.3-.2-.4 0-.1-.1-.1-.1-.2.2 0 .4 0 .5.3 0 0 0 .1.1.1 0 0 0 .1-.1.1-.1.1-.1.2-.2.1z" fill="#123f6a"/>
    <path fill="#113c64" d="M14 12c0 .2.1.3.2.4 0 0 .1.1.1.2h-.1c-.1-.1-.2-.1-.3-.1 0-.1-.1-.2-.1-.3v-.1c0-.1.1-.1.2-.1zM14.2 12.8s.1 0 0 0c.1.2.2.3.3.4h-.1c-.1-.1-.2-.2-.2-.3v-.1z"/>
    <path fill="#fff" d="M15.9 13.1c0-.2.1-.3.1-.5s0-.3.1-.4c0-.1.1-.2.1-.3v-.3c0-.1.1-.3.1-.4 0-.1.1-.1.1-.2l.1-.1s.1 0 .1-.1c.1 0 .2-.1.3-.1H17.8c.2.1.3.2.4.3.1.1.1.3.1.4v.2c0 .1-.1.2-.1.4v.2c0 .1 0 .2-.1.3 0 .1 0 .1-.1.2 0 .1-.1.1-.1.2s-.1.1-.1.1c-.1.1-.2.1-.3.2-.1 0-.2.1-.3.1h-.5c-.2 0-.3 0-.5-.1-.1-.1-.1.1-.1.1V13.6c0 .1 0 .1-.1.2 0 .1 0 .2-.1.3-.1.2-.1.2-.2.2l-.1-.1c0-.1 0-.2.1-.3 0-.1.1-.2.1-.4.1-.1.1-.2.1-.4zM22.3 10.7h.2c.1 0 .2.1.2.1.1.1.1.2.2.3v.3c-.1.2-.1.3-.1.5 0 .1-.1.2-.2.2-.1.1-.3 0-.4 0h-1.1c-.3 0-.3 0-.3.3v.3c.1.1.2.2.3.2h1.3c.1 0 .1.1.1.2s-.1.1-.2.1c-.1.1-.2 0-.3 0h-.1-.1-.8c-.1 0-.2 0-.3-.1l-.2-.2c-.1-.1-.1-.2-.1-.3 0-.1 0-.3.1-.4 0-.1 0-.2.1-.3 0-.1 0-.2.1-.3 0-.1 0-.2.1-.3.1-.2.2-.3.3-.4.1-.1.1-.1.2-.1 0 0 .1 0 .2-.1h.5c.1-.1.2-.1.3 0z"/>
    <path fill="#16406e" d="M22.2 13.3h.3c0 .1-.1.1-.2.2-.4.3-.8.7-1.3.9-.5.2-1 .4-1.6.4-.8.1-1.6 0-2.4-.3-.4-.2-.7-.3-1-.6v-.2c.2.1.5.3.7.4.5.2 1 .4 1.5.5h.6c.4 0 .8 0 1.2-.1.6-.2 1.2-.4 1.7-.8.2-.2.4-.3.5-.4z"/>
    <path fill="#123d67" d="M15.8 13.9c0 .1 0 .2-.1.3-.2-.1-.3-.2-.4-.3-.3-.3-.6-.6-.8-1 0 0-.1-.1 0-.1.2 0 .3 0 .5.2.1.4.4.7.8.9-.1 0-.1 0 0 0z"/>
    <path d="M23 11.5v-.3V11.5z" fill="#194474"/>
    <path fill="#174476" d="M22.3 12.1h.4c-.1.3-.3.5-.4.7-.1.1-.1.1-.1.2h-.5v-.1c.2-.2.4-.5.6-.8z"/>
    <path fill="#14314f" d="M17.7 17.2c.2 0 .5.1.7.1h1c.2 0 .5 0 .7-.1-.1.1-.3.1-.5.1-.4.1-.8 0-1.2 0-.2-.1-.4-.1-.7-.1zM17.3 17.1c.1 0 .3 0 .4.1-.1 0-.2-.1-.4-.1zM20.2 17.2c.1 0 .3-.1.4-.1-.1 0-.3.1-.4.1zM17.1 17c.1 0 .2 0 .2.1-.1 0-.1 0-.2-.1zM16.8 16.9c.1 0 .1 0 .2.1-.1 0-.1 0-.2-.1zM16 16.6c.1 0 .1 0 .1.1 0 0-.1 0-.1-.1zM16.2 16.7c.1 0 .1 0 .1.1 0 0-.1 0-.1-.1zM16.4 16.8c.1 0 .1 0 .1.1 0 0 0-.1-.1-.1z"/>
    <path fill="#fab619" d="M14.7 10.6c-.1 0-.2.1-.2.1-.2-.1-.3-.3-.1-.5h.1c.1 0 .1 0 .2.1.1 0 .1.1 0 .3z"/>
    <path fill="#1c4980" d="M22.3 10.7H22c-.1-.1 0-.1 0-.2.1-.9-.1-1.6-.6-2.3-.5-.7-1.2-1.1-2-1.2-1-.1-1.9.1-2.6.8-.5.5-.9 1.2-1 1.9-.1.6 0 1.1.3 1.6 0 .1.1.2.1.2 0 .1 0 .2-.1.3-.2-.2-.3-.4-.4-.6-.1-.3-.2-.5-.2-.8v-.7c0-.3.1-.6.2-.9.3-.7.8-1.3 1.6-1.8.4-.2.8-.4 1.2-.4h.8c.6.1 1.1.2 1.6.6.5.3.9.8 1.2 1.3.2.4.3.8.4 1.2v.4c-.1.2-.1.4-.2.6z"/>
    <path fill="#1a467a" d="M16.1 12.2c0 .2 0 .3-.1.4 0-.1-.2-.2-.2-.3-.1-.1-.1-.2-.1-.3h.1s.1 0 .3.2c-.1 0-.1 0 0 0z"/>
    <path fill="#1e4a83" d="M16.2 11.6c0-.1-.1-.2-.1-.3-.1-.3-.2-.7-.2-1 0-.6.1-1.1.3-1.6.5-.9 1.2-1.5 2.3-1.7h.5c.4 0 .7 0 1 .2.5.2 1 .5 1.4 1 .4.4.6.9.7 1.5.1.4.1.7 0 1.1v.1h-.2c-.1-.1 0-.2 0-.3.1-1-.2-1.9-1-2.6-.4-.3-.9-.6-1.4-.6-1.2-.2-2.3.4-2.9 1.4-.4.8-.5 1.5-.2 2.4 0 .1.1.1.1.2-.2-.1-.3 0-.3.2z"/>
    <path fill="#1d4c86" d="M16.3 11.1c-.1-.1-.1-.2-.2-.3-.2-1-.1-1.9.6-2.6.5-.6 1.1-1 1.9-1 .6-.1 1.3 0 1.8.4.8.5 1.3 1.2 1.4 2 .1.3.1.7 0 1v.1h-.2v-.4c.1-.6-.1-1.2-.4-1.8-.4-.6-.9-1-1.6-1.1-.8-.2-1.6 0-2.3.5-.6.5-.9 1.1-1 1.9 0 .4 0 .7.1 1.1v.1l-.1.1z"/>
    <path fill="#174475" d="M21.2 13.3h.5c0 .1 0 .1-.1.1-.6.5-1.3.8-2.1.9-.7.1-1.4 0-2-.3-.4-.1-.7-.3-1-.6-.1-.1-.1-.1-.2-.1v-.2c.2.1.4.2.6.2.5.3 1.1.5 1.7.6.8.1 1.5 0 2.2-.3 0-.1.2-.2.4-.3z"/>
    <path d="M18.3 11c-.1-.1-.2-.2-.4-.3-.1-.1-.1-.3-.2-.4v-.4c.1-.2.1-.4.3-.6.3-.4 1-.6 1.6-.3.5.3.7 1 .4 1.6 0 0 0 .1-.1.1h-.2c-.1 0 0-.1 0-.1 0-.1.1-.2.1-.2.1-.3 0-.7-.3-.9-.3-.3-.7-.3-1-.1-.3.2-.4.4-.4.8 0 .3.2.6.5.8.1 0 .1 0 .2.1 0 .1-.1.2-.2.2-.1-.2-.2-.2-.3-.3z" fill="#26569e"/>
    <path fill="#1a467a" d="M21.2 13.3c0 .1-.1.1-.2.2-.5.3-1 .5-1.5.5-1 .1-1.8-.1-2.7-.6 0 0-.1 0-.1-.1h.6c.6.3 1.2.4 1.8.4.5 0 1.1-.2 1.5-.4.1 0 .1-.1.2 0 .2-.1.3 0 .4 0z"/>
    <path fill="#1e4c87" d="M21.6 10.7h-.1c-.1 0-.1-.1-.1-.2v-.6c0-1.2-.9-2.3-2.2-2.4-.9-.1-1.6.1-2.2.8-.4.5-.7 1-.7 1.6 0 .3 0 .6.1.8v.1s0 .1-.1.1c-.1-.2-.1-.3-.2-.5-.1-.6 0-1.1.2-1.6.4-.4.7-.8 1.2-1 .5-.3 1-.5 1.5-.5.6 0 1.2.2 1.7.6.5.5.8 1 .9 1.7v1.1z"/>
    <path fill="#1e4d8a" d="M16.5 10.9c-.2-.6-.2-1.3.1-1.9.2-.6.7-1 1.2-1.3.3-.1.6-.2 1-.3.4 0 .7 0 1.1.1.6.2 1.1.6 1.4 1.1.3.5.4 1 .3 1.6v.5s-.1 0-.1.1c-.1 0-.1-.1 0-.1.1-.2.1-.5.1-.7 0-.6-.2-1.1-.6-1.5-.5-.6-1.2-.9-1.9-.8-.6 0-1.1.2-1.5.6-.5.4-.7.9-.8 1.4v.5c0 .1-.1.2 0 .3v.1c0 .1.1.2.1.4-.3-.2-.3-.2-.4-.1z"/>
    <path fill="#164273" d="M16.1 13.3c0-.1.1 0 .1 0 .4.3.8.5 1.2.7.3.1.6.2 1 .2.7.1 1.3 0 1.9-.2l1.2-.6s0-.1.1-.1h.2c0 .1 0 .1-.1.2-.6.5-1.3.8-2 .9-1.3.2-2.4-.1-3.5-.8-.1 0-.1-.1-.2-.1.1-.1.1-.1.1-.2z"/>
    <path fill="#1c477d" d="M20.9 13.2c-.3.1-.5.3-.8.3-.5.2-1 .2-1.6.2-.4 0-.8-.1-1.1-.3 0 0-.1 0-.1-.1.1 0 .2-.1.3-.1h.1c.9.3 1.8.3 2.7-.2.1 0 .1-.1.2-.1.2.1.2.2.3.3z"/>
    <path d="M17.6 10.7h-.3v-.1c0-.1-.1-.1-.2-.2 0 0-.1 0-.1-.1h.1c-.2 0-.2-.2-.1-.4h.2-.1c0-.1.1-.1.1-.1.1 0 .2 0 .2-.2.2-.7.7-1.2 1.4-1.3.9-.1 1.8.6 1.8 1.6 0 .2 0 .4-.1.6 0 0 0 .1-.1.1h-.1v-.2c.3-.8-.2-1.7-1-1.9-.8-.2-1.6.3-1.8 1v.1c-.1.2-.1.4-.1.6v-.1c.1.2.2.4.2.6z" fill="#245495"/>
    <path fill="#1e4c87" d="M18.1 12.7c0-.1 0-.1.1-.2 0-.1.1-.1.2-.1s.3 0 .4.1c.4 0 .8 0 1.2-.2.1 0 .1-.1.2 0s.1.2 0 .4c-.3.1-.6.2-.9.2-.4 0-.7 0-1.1-.1 0 0-.1 0-.1-.1z"/>
    <path d="M20.7 13c-.4.2-.8.4-1.2.4-.6.1-1.1 0-1.6-.1-.1 0-.2-.1-.3-.1.1-.1.2-.1.3-.2.2 0 .3 0 .4.2h1.2c.3 0 .6-.1.8-.4 0 0 0-.1.1-.1s.2-.1.3-.1c-.1.2 0 .3 0 .4z" fill="#1d487f"/>
    <path fill="#1f4e8b" d="M20.1 12.3c-.2.1-.5.2-.7.2-.4.1-.7 0-1.1 0h-.2c0-.1 0-.2.1-.3.1-.1.1 0 .2 0 .4.1.7.1 1.1 0 .1 0 .2-.1.4-.1.1 0 .2 0 .2.2z"/>
    <path fill="#1e4c87" d="M21.6 10.7s0-.1 0 0V10c0-.6-.2-1.2-.6-1.7-.5-.6-1-.9-1.7-1-.7-.1-1.4.1-2 .6-.6.4-.9 1-1 1.7-.1.5 0 .9.1 1.3-.1-.2-.1-.3-.2-.5-.1-.6 0-1.1.2-1.6.3-.6.8-1.1 1.4-1.3.8-.3 1.5-.3 2.3.1.8.4 1.3 1 1.5 1.9.1.4.1.8 0 1.2z"/>
    <path fill="#16416f" d="M16.1 13.7v-.1c.1 0 .1 0 .2.1.7.5 1.5.8 2.3.9 1.2.1 2.3-.3 3.2-1.1l.1-.1h.1c0 .1 0 .1-.1.2l-.9.6c-.5.3-1.1.5-1.7.5h-1c-.4 0-.8-.2-1.2-.3-.3-.1-.6-.3-.9-.5 0-.2 0-.2-.1-.2z"/>
    <path fill="#1d4c86" d="M17.9 12.4c0 .1 0 .2-.1.3-.2-.1-.3-.2-.5-.3-.3-.2-.5-.4-.7-.7 0-.1-.1-.1-.1-.1 0-.1 0-.3.1-.4.1 0 .1 0 .1.1.3.5.6.8 1.2 1.1-.1 0 0 0 0 0z"/>
    <path fill="#154272" d="M22 13.3c-.1.2-.3.3-.4.4-.6.4-1.3.7-2 .8-.8.1-1.6 0-2.4-.3-.4-.2-.7-.3-1-.6h-.1c.1-.1.1 0 .2 0 .2.2.4.3.7.4.5.3 1.1.4 1.7.5 1.2.1 2.3-.3 3.2-1 0 0 0-.1.1-.1-.1-.1 0-.1 0-.1z"/>
    <path fill="#1c4980" d="M17.6 12.9c-.1.1-.3.1-.5.1-.2-.2-.5-.3-.6-.5l-.1-.1c0-.2 0-.3.1-.5h.1c.3.3.6.6.9.8 0 .1.1.1.1.2z"/>
    <path fill="#204f8c" d="M18 11.8c0 .1 0 .3-.1.4 0-.1-.1-.1-.2-.2-.4-.2-.6-.5-.8-.9 0-.1-.1-.1-.1-.2 0 0 .1-.1.2-.1h.1s.1 0 .1.1c.2.5.4.7.8.9z"/>
    <path fill="#1e4d8a" d="M16.8 11c.1.2.2.4.3.5.2.2.4.4.7.6.1 0 .1.1.1.1v.2c-.1-.1-.2-.1-.3-.2-.4-.2-.7-.5-.9-.9l-.1-.1c0-.1.1-.1.2-.2z"/>
    <path d="M18.1 12.7c.4.1.8.2 1.2.1.3 0 .5-.1.8-.2h.1v.2c-.2.1-.3.2-.5.2h-1.3c-.1 0-.3 0-.4-.1 0-.1.1-.1.1-.2z" fill="#1d4b85"/>
    <path fill="#1e4a83" d="M17.6 12.9c-.1-.1-.3-.2-.4-.3l-.6-.6-.1-.1c0-.1 0-.2.1-.3h.1c.3.4.7.7 1.1 1 0 0 .1 0 .1.1-.2.1-.2.2-.3.2z"/>
    <path d="M18 11.8c-.4-.2-.6-.4-.8-.8 0 0 0-.1-.1-.1h.5c.1.2.3.3.5.5-.1.2-.1.3-.1.4z" fill="#215392"/>
    <path d="M16.3 12.4s.1-.1 0 0c.3.2.6.4.8.6h-.3c-.4 0-.6-.2-.5-.6z" fill="#1b477b"/>
    <path d="M19.9 12.1c-.2 0-.3.1-.4.1-.4.1-.7.1-1.1 0h-.1V12h.1c.2 0 .3.1.5.1h.8c0-.1.1-.1.2 0z" fill="#20528f"/>
    <path d="M17.6 10.7c0-.2-.1-.3-.2-.4v-.2c.1-.1.2-.1.2 0 .1 0 .1.1.1.2s-.1.1 0 .2.2.3.2.4c-.1-.2-.2-.2-.3-.2z" fill="#25559a"/>
    <path fill="#225495" d="M18 11.5c-.2-.1-.4-.3-.5-.4 0-.1-.1-.1-.2-.1H17h-.1.8c.3 0 .4.2.3.5z"/>
    <path fill="#205292" d="M18.9 12c-.2 0-.4 0-.6-.1 0-.1 0-.3.1-.4.1-.1.1 0 .2 0 0 .3.1.4.3.5-.1 0 0 0 0 0z"/>
    <path d="M17 10.4c.2.1.2.1.3.3H17c0-.2-.1-.2-.3-.2h-.1.1c.1 0 .2 0 .2-.1.1-.1 0-.1.1 0z" fill="#235391"/>
    <path fill="#204f8c" d="M16.6 10.4c.3 0 .3 0 .4.3-.1 0-.2.1-.3.1-.1-.1-.1-.2-.1-.4z"/>
    <path fill="#1e4a83" d="M18 12.9c.1 0 .3 0 .4.1l-.2.2c0-.1-.1-.1-.2-.2-.1 0-.1 0-.2-.1.1.1.2 0 .2 0z"/>
    <path fill="#28569b" d="M18.3 11c.1 0 .2.1.3.1 0 .1 0 .1-.1.2-.1 0-.1 0-.2.1V11z"/>
    <path d="M18.3 11.4c0-.1.1-.1.2-.1v.1c0 .1 0 .1-.1.2-.1 0-.1-.1-.2 0 .1-.1.1-.1.1-.2z" fill="#255697"/>
    <path d="M21.2 10.9c-.2.2-.3.5-.4.7-.1 0-.1 0-.1.1-.1.1-.2.2-.4.3-.1 0-.2-.1-.3-.2 0-.1.1-.1.1-.2.6-.4.9-1 .9-1.7s-.3-1.3-1-1.7c-1.3-.8-2.9 0-3.1 1.5 0 .1 0 .1-.1.2h-.3c.1-.1.1-.3.1-.4.2-.9 1-1.6 1.9-1.8 1.3-.2 2.5.6 2.7 2v1.2z" fill="#204f8e"/>
    <path fill="#1f4e8b" d="M21.2 10.9c-.1 0-.1-.1 0 0 .1-.4.1-.6.1-.9 0-.5-.2-1-.5-1.4-.4-.4-.8-.7-1.4-.8-.7-.1-1.3 0-1.9.5-.5.4-.7.9-.8 1.4 0 .1 0 .2-.1.2 0 .1.1 0 .2.1v.1c-.1 0-.1.1-.2.1v-.7c.1-.5.3-.9.6-1.2.4-.4.9-.6 1.4-.7.5-.1 1 0 1.4.2.6.3 1 .7 1.2 1.3.2.5.2 1 .1 1.6v.1s-.1 0-.1.1z"/>
    <path d="M22.3 10.9c.2 0 .3.1.4.3v.5c0 .1 0 .1-.1.1H22v-.1c.1-.2.2-.5.3-.8 0 .1 0 .1 0 0z" fill="#18467b"/>
    <path fill="#16416f" d="M16.1 13.7c0-.1.1-.1 0 0 .6.4 1.1.6 1.7.8.3.1.7.1 1.1.1.6 0 1.1-.1 1.6-.3.5-.2.9-.4 1.3-.8.1-.1.2-.1.2-.2h.1c-.1.2-.2.3-.4.4-.6.4-1.2.8-2 .9-.5.1-1 .1-1.5.1-.5-.1-1-.2-1.5-.4-.1-.3-.3-.4-.6-.6z"/>
    <path fill="#1c4980" d="M22.3 10.9c0 .3-.2.5-.3.8l-.1.1h-.4v-.1c.2-.2.3-.5.4-.7v-.1h.4z"/>
    <path fill="#1a467a" d="M22.3 12.1c-.1.2-.3.4-.4.6l-.3.3h-.4c-.1 0 0-.1 0-.1.3-.2.5-.5.7-.7.2-.1.3-.1.4-.1z"/>
    <path fill="#1d4c86" d="M21.2 11.8c-.3 0-.2 0-.2-.2v-.2c.1-.3.3-.5.6-.5v.1c0 .3-.1.6-.4.8z"/>
    <path fill="#1c477d" d="M21.9 12.1c-.1.2-.2.3-.3.4-.1.1-.2.2-.4.3 0 0-.1.1 0 .1-.1 0-.2-.1-.3-.2.2-.2.4-.3.5-.5l.2-.2c.1.1.2.1.3.1z"/>
    <path fill="#1e4a83" d="M21.2 11.8c.1-.1.2-.3.3-.4.1-.1.2-.3.2-.5h.3c-.1.3-.2.5-.3.7 0 0-.1.1-.1.2h-.4z"/>
    <path fill="#1c4980" d="M21.6 12.1c-.2.3-.4.5-.7.7-.1-.1-.1-.2 0-.4l.3-.3h.4z"/>
    <path d="M20.3 12c.1-.2.3-.3.4-.4h.1c0 .1 0 .2-.1.3-.1.1-.2.2-.3.2-.1 0-.1 0-.1-.1z" fill="#1f4e8a"/>
    <path d="M20.6 12.7c-.1 0-.2.1-.2.1 0-.2.1-.3.1-.4.1-.1.1-.1.2-.1 0 .1-.1.2-.1.4z" fill="#1d4b84"/>
    <path d="M20.7 12.3c-.1 0-.1.1-.2.1-.1-.1-.1-.1-.1-.2.1 0 .2-.2.3-.2v.3z" fill="#204d87"/>
    <path d="M21.3 12.1l-.3.3c0-.4-.1-.3.3-.3z" fill="#204b83"/>
    <path d="M22.7 11.5v-.2.2z" fill="#1c477a"/>
    <path fill="#fff" d="M20.4 12.1c0 .1 0 .1.1.2 0 .2 0 .3-.1.4-.2.4-.5.5-.9.5h-1c-.1 0-.1 0-.2-.1 0-.1 0-.2.2-.2h1.3c.2 0 .4-.2.5-.4.1-.1 0-.2 0-.3 0-.1-.1-.2-.3-.2h-1c-.2-.1-.3-.2-.3-.4v-.2-.1c0-.1.1-.1.1-.2s.1-.1.1-.2c.1-.2.4-.3.6-.3h1.1c.2 0 .2 0 .2.2 0 .1-.1.1-.1.1h-1.1c-.2 0-.4.1-.5.3-.1.1-.1.2 0 .3.1.2.3.2.5.2h.5c.1 0 .1 0 .2.1.1 0 .2.1.2.1-.2.1-.1.2-.1.2z"/>
    <path d="M19.6 10.7h-.3c-.2 0-.4.1-.6.3 0-.1-.1-.1-.1-.1-.4-.1-.6-.4-.6-.8 0-.6.6-1 1.1-.9.6.2.9.8.5 1.4.1 0 0 0 0 .1z" fill="#2658a1"/>
    <path d="M20.1 10.7h-.2c.2-.3.3-.7.1-1.1-.2-.4-.5-.7-.9-.7-.6-.1-1.2.3-1.3.9 0 0 0 .1-.1.1h-.3s-.1 0 0-.1c.1 0 .2-.1.2-.2.2-.6.7-1 1.3-1 .6 0 1.2.5 1.3 1.1.1.4.1.7-.1 1z" fill="#25559c"/>
    <path d="M17.5 9.8c0 .1 0 .1 0 0 .1.1.2.1.3.1.1.1 0 .2 0 .2v.1s0 .1-.1.1V10c0-.1 0-.2-.1-.2s-.2 0-.2.1v.2c0 .1 0 .1-.1.2 0-.2.1-.5.1-.7.1.1.1.2.1.2z" fill="#f2f3f8"/>
    <path d="M16.7 10h-.1s-.1 0 0-.1h.3c.1.1.1.2 0 .3 0 .2-.1.2-.2.2h-.1c-.1-.1-.1-.2 0-.3.1-.1.1 0 .2-.1h-.1z" fill="#eeeff5"/>
    <path fill="#205292" d="M16.9 10.2c0-.1.1-.2 0-.3.1-1 .7-1.7 1.7-1.9.7-.1 1.3 0 1.8.4.4.3.6.8.7 1.3.1.6 0 1.1-.4 1.6-.1.2-.3.3-.5.5 0 0-.1 0-.1.1h-.7c0-.1.1-.1.1-.1.4-.1.8-.4 1-.7l.1-.1c0-.3.2-.6.1-.9 0-.6-.3-1.1-.9-1.4-.5-.3-1-.3-1.5-.2-.6.2-1 .6-1.1 1.3 0 .1 0 .2-.1.3H17v.1c-.1-.2 0-.1-.1 0z"/>
    <path fill="#225495" d="M17.2 9.9c0-.6.3-1 .8-1.3.3-.2.7-.3 1.1-.3.9 0 1.6.6 1.7 1.5.1.3 0 .7-.1 1v.2c0-.2 0-.2-.2-.2.2-.5.2-1.1-.1-1.6-.3-.4-.7-.6-1.2-.7-.9-.1-1.6.5-1.7 1.3-.1.1-.2.1-.3.1z"/>
    <path fill="#23559a" d="M17.5 9.8v-.2c.1-.2.2-.5.3-.7.2-.3.6-.5.9-.5.4-.1.8 0 1.1.2.6.4.8 1.2.6 1.9v.1h-.2v-.1c.4-.9-.2-1.7-1-1.8-.7-.1-1.3.4-1.5 1.1-.1.1-.1.1-.2 0z"/>
    <path d="M16.9 10.2c0-.1 0-.2.1-.2-.1.3-.1.3.2.3v.1h-.3v-.2z" fill="#ecedf4"/>
    <path d="M17 10c0-.1 0-.1 0 0 .1-.1.2-.1.4-.1-.1.1-.3 0-.4.1z" fill="#f4f5f8"/>
    <path fill="#28569b" d="M18.5 11.4v0z"/>
    <path d="M16.7 10c.1 0 .1 0 .1.1s-.1.1-.1.1V10z" fill="#22528e"/>
    <path fill="#225495" d="M20.5 10.9c-.1.3-.4.5-.6.6l-.6.3c-.2 0-.4 0-.5-.2 0-.1.1-.1.1-.1.2 0 .4 0 .6-.1.2-.1.4-.2.5-.4l.1-.1h.4z"/>
    <path fill="#23559a" d="M20.2 10.9c-.2.3-.5.5-.9.6H19s-.1 0-.1.1c-.1-.1-.1-.2 0-.3h.2c.3 0 .5-.2.7-.3.1-.1.2-.1.4-.1z"/>
    <path d="M19.8 10.9c-.1.2-.4.3-.6.3-.1 0-.2.1-.4 0 .1-.2.2-.3.5-.3h.5z" fill="#26569b"/>
    <path d="M19.5 10c0 .3-.3.6-.6.6s-.6-.3-.6-.6c0-.4.3-.6.6-.6.4 0 .7.3.6.6z" fill="#295ba5"/>
    <path d="M16.7 10.3c-.1 0-.2 0-.2-.1s.1-.1.2-.1c0 0 .1 0 .1.1s0 .2-.1.1z" fill="#25538f"/>
    <path d="M19.2 10c0 .2-.1.3-.3.3-.2 0-.3-.1-.3-.3 0-.2.1-.3.3-.3.2 0 .3.1.3.3z" fill="#285ba6"/>
</svg>