<svg xmlns="http://www.w3.org/2000/svg" width="38" height="24" fill="none" aria-labelledby="pi-pse" role="img" viewBox="0 0 38 24"><title id="pi-pse">Pagos Electrónicos Seguros (PSE)</title><path fill="#fff" d="M0 0h38v24H0z"/><path fill="#0660AA" d="M26.83 14.93h-3.3a.19.19 0 0 1-.19-.19.19.19 0 0 1 .19-.2h3.29a1.3 1.3 0 0 0 1.03-1.28c.04-1.03-.54-1.13-.64-1.14H25.1c-.85-.15-1.03-.93-1-1.34 0-1.08.89-1.57 1.36-1.67a.2.2 0 0 1 .04 0h2.98a.19.19 0 0 1 .18.19.19.19 0 0 1-.18.19H25.5c-.14.04-1.05.31-1.05 1.3 0 .04-.04.81.68.94h2.1s1.04.08.99 1.54a1.7 1.7 0 0 1-1.36 1.66h-.04Zm6.23.02H30c-.4-.04-1.17-.33-1.18-1.1-.02-.8.52-3.28.54-3.39v-.02c.02-.05.47-1.26 1.46-1.26h2.2l.05.01c.04.01.94.29.94 1.08 0 .66-.19 1.79-.2 1.83a.19.19 0 0 1-.18.16l-4.25.04c-.1.61-.2 1.23-.19 1.55.02.6.75.7.84.72h3.04a.19.19 0 0 1 .19.2.2.2 0 0 1-.19.18Zm-3.35-4.4c-.02.1-.15.7-.27 1.36l4.01-.03c.06-.34.17-1.13.17-1.61 0-.45-.52-.66-.64-.7H30.8c-.69 0-1.06.88-1.1.99Zm-11.9 6.91h-.04a.19.19 0 0 1-.15-.22l.6-3.37.41-2.32.14-.77.07-.32c.2-.59.87-1.22 1.36-1.3h2.15c.18 0 1.15.37 1.04 1.15v.02l-.53 3.26v.02c-.01.05-.29 1-1.2 1.29h-.05l-1.93.06h-.02c-.03 0-.64-.07-1.13-.7l-.54 3.05a.18.18 0 0 1-.19.16Zm.82-3.75c.38.75.97.86 1.06.87l1.88-.05c.66-.22.9-.92.93-1.01l.52-3.24c.05-.36-.5-.74-.71-.74h-2.05c-.33.05-.89.57-1.07 1.05z"/><path fill="#FDB718" d="M15.27 8.35a.53.53 0 0 1-.52.53.53.53 0 0 1-.53-.53.53.53 0 0 1 .53-.54c.29 0 .52.24.52.54m-1.71-1.28a.53.53 0 0 0 .52-.54.53.53 0 0 0-.52-.53.53.53 0 0 0-.52.53c0 .3.23.54.52.54m-.67 1.28a.53.53 0 0 1-.52.53.53.53 0 0 1-.52-.53.53.53 0 0 1 .52-.54.53.53 0 0 1 .52.54m1.8 7.8a.53.53 0 0 0 .52-.53.53.53 0 0 0-.53-.53.53.53 0 0 0-.52.53c0 .3.24.54.53.54Zm-1.13-1.7a.53.53 0 0 0 .52-.53.53.53 0 0 0-.52-.54.53.53 0 0 0-.53.54c0 .3.24.53.53.53m-2.32-.09c.24 0 .44-.2.44-.44a.44.44 0 0 0-.44-.44.44.44 0 0 0-.43.44c0 .24.2.44.43.44m1.6 1.26a.44.44 0 0 1-.44.45.44.44 0 0 1-.43-.45c0-.24.2-.44.43-.44.24 0 .44.2.44.44m-1.62 2.31c.23 0 .43-.2.43-.44a.44.44 0 0 0-.43-.44.44.44 0 0 0-.44.44c0 .25.2.45.44.45Zm-1.13-1.96a.34.34 0 0 0 .32-.22.3.3 0 0 0 .02-.13.34.34 0 0 0-.34-.34.34.34 0 0 0-.33.34c0 .2.15.35.33.35m-4.12-3.58a.34.34 0 0 0 .33-.35.34.34 0 0 0-.33-.34.34.34 0 0 0-.34.34c0 .2.15.35.34.35m.6-1.83a.34.34 0 0 0 .33-.34.34.34 0 0 0-.33-.34.34.34 0 0 0-.34.34c0 .19.15.34.34.34m1.47-2.21c0 .19-.15.34-.33.34a.34.34 0 0 1-.34-.34.34.34 0 1 1 .67 0M9.2 6.57c0 .2-.15.35-.34.35a.34.34 0 0 1-.34-.35c0-.19.16-.34.34-.34.19 0 .34.15.34.34m-.3 11.27a.34.34 0 0 0 .33-.35.34.34 0 0 0-.34-.34.34.34 0 0 0-.33.34c0 .2.15.35.33.35Zm-1.16-1.88a.34.34 0 0 0 .33-.34.34.34 0 0 0-.33-.34.34.34 0 0 0-.34.34c0 .2.15.35.34.35Zm-1.19-1.7a.34.34 0 0 0 .31-.47.34.34 0 0 0-.3-.21.34.34 0 0 0-.34.34c0 .19.15.34.33.34m-.63 1.54a.18.18 0 0 0 .16-.11l.01-.07a.17.17 0 0 0-.24-.16.17.17 0 0 0-.1.16c0 .1.07.18.17.18m-1.08-1.7a.18.18 0 0 0 .16-.12l.01-.06a.17.17 0 0 0-.17-.18.17.17 0 0 0-.17.18c0 .1.08.17.17.17Zm-.5-2.1a.17.17 0 0 1-.17.18A.18.18 0 0 1 4 12c0-.1.08-.18.17-.18.1 0 .18.08.18.18Zm.45-1.61a.18.18 0 0 0 .16-.11l.01-.07a.17.17 0 0 0-.17-.17.17.17 0 0 0-.17.17c0 .1.07.18.17.18m1.17-1.86a.17.17 0 0 0 .17-.17.17.17 0 0 0-.17-.18.17.17 0 0 0-.17.18c0 .1.07.17.17.17m2.92 5.82c.24 0 .43-.2.43-.44a.44.44 0 0 0-.43-.44.44.44 0 0 0-.44.44c0 .24.2.44.44.44m-1.22-1.87c.24 0 .43-.2.43-.44a.44.44 0 0 0-.43-.44.44.44 0 0 0-.44.44c0 .24.2.44.44.44m1.63-2.27a.44.44 0 0 1-.43.44.44.44 0 0 1-.43-.44c0-.25.2-.44.43-.44.24 0 .43.2.43.44m.77-1.43c.24 0 .43-.2.43-.44a.44.44 0 0 0-.43-.44.44.44 0 0 0-.43.44c0 .24.2.44.43.44m1.14-1.8c.24 0 .43-.2.43-.45a.44.44 0 0 0-.43-.44.44.44 0 0 0-.43.44c0 .25.2.44.43.44Zm-1.17 5.6a.53.53 0 0 0 .53-.54.53.53 0 0 0-.73-.5.53.53 0 0 0-.32.5c0 .3.23.53.52.53Zm1.17-1.84a.53.53 0 0 0 .52-.53.53.53 0 0 0-.72-.5.53.53 0 0 0-.32.5c0 .3.23.53.52.53m2.36 7.28a.53.53 0 0 0 .52-.54.53.53 0 0 0-.52-.53.53.53 0 0 0-.53.53c0 .3.24.54.53.54"/><path fill="#FDB718" d="M18.05 11.86H10.3v.33h7.75zm-4.03-1.8H11.6v.32h2.43v-.32Z"/><path fill="#FDB718" d="m15.07 12.17-1.34-2.11h.37l1.35 2.1h-.38Zm.14 1.58h-1.25v.33h1.25z"/><path fill="#FDB718" d="m14.91 14.08 1.11-1.91h.32l-1.1 1.91z"/></svg>