<svg xmlns="http://www.w3.org/2000/svg" width="38" height="24" role="img" viewBox="0 0 38 24" aria-labelledby="pi-pse">
  <title id="pi-pse">PSE</title>
  <defs>
    <style>
      .cls-1 {
        fill: #13385c;
      }

      .cls-2 {
        fill: #14395f;
      }

      .cls-3 {
        fill: #fab617;
      }

      .cls-4 {
        fill: #123c63;
      }

      .cls-5 {
        fill: #18416e;
      }

      .cls-6 {
        fill: #526e86;
      }

      .cls-7 {
        fill: #8aa1bb;
      }

      .cls-8 {
        fill: #8295a3;
      }

      .cls-9 {
        fill: #4d6a88;
      }

      .cls-10 {
        fill: #4a6985;
      }

      .cls-11 {
        fill: #c6d1dc;
      }

      .cls-12 {
        fill: #c3ccd3;
      }

      .cls-13 {
        fill: #bfc8d1;
      }

      .cls-14 {
        fill: #133f6b;
      }

      .cls-15 {
        fill: #133d68;
      }

      .cls-16 {
        fill: #133a61;
      }

      .cls-17 {
        fill: #113c64;
      }

      .cls-18 {
        fill: #1c477d;
      }

      .cls-19 {
        fill: #1a467a;
      }

      .cls-20 {
        fill: #174476;
      }

      .cls-21 {
        fill: #14406d;
      }

      .cls-22 {
        fill: #164273;
      }

      .cls-23 {
        fill: #164271;
      }

      .cls-24 {
        fill: #153557;
      }

      .cls-25 {
        fill: #143454;
      }

      .cls-26 {
        fill: #143659;
      }

      .cls-27 {
        fill: #143251;
      }

      .cls-28 {
        fill: #153659;
      }

      .cls-29 {
        fill: #15304e;
      }

      .cls-30 {
        fill: #133352;
      }

      .cls-31 {
        fill: #142f4c;
      }

      .cls-32 {
        fill: #14314f;
      }

      .cls-33 {
        fill: #f9b617;
      }

      .cls-34 {
        fill: #e5ab2c;
      }

      .cls-35 {
        fill: #174475;
      }

      .cls-36 {
        fill: #154272;
      }

      .cls-37 {
        fill: #16406e;
      }

      .cls-38 {
        fill: #103e68;
      }

      .cls-39 {
        fill: #f9b619;
      }

      .cls-40 {
        fill: #113d66;
      }

      .cls-41 {
        fill: #f1b120;
      }

      .cls-42 {
        fill: #fab619;
      }

      .cls-43 {
        fill: #123a61;
      }

      .cls-44 {
        fill: #164170;
      }

      .cls-45 {
        fill: #123d67;
      }

      .cls-46 {
        fill: #123f6a;
      }

      .cls-47 {
        fill: #fff;
      }

      .cls-48 {
        fill: #194474;
      }

      .cls-49 {
        fill: #1c4980;
      }

      .cls-50 {
        fill: #1e4a83;
      }

      .cls-51 {
        fill: #1d4c86;
      }

      .cls-52 {
        fill: #26569e;
      }

      .cls-53 {
        fill: #1e4c87;
      }

      .cls-54 {
        fill: #1e4d8a;
      }

      .cls-55 {
        fill: #245495;
      }

      .cls-56 {
        fill: #1d487f;
      }

      .cls-57 {
        fill: #1f4e8b;
      }

      .cls-58 {
        fill: #16416f;
      }

      .cls-59 {
        fill: #204f8c;
      }

      .cls-60 {
        fill: #1d4b85;
      }

      .cls-61 {
        fill: #215392;
      }

      .cls-62 {
        fill: #1b477b;
      }

      .cls-63 {
        fill: #20528f;
      }

      .cls-64 {
        fill: #25559a;
      }

      .cls-65 {
        fill: #225495;
      }

      .cls-66 {
        fill: #205292;
      }

      .cls-67 {
        fill: #235391;
      }

      .cls-68 {
        fill: #28569b;
      }

      .cls-69 {
        fill: #255697;
      }

      .cls-70 {
        fill: #204f8e;
      }

      .cls-71 {
        fill: #18467b;
      }

      .cls-72 {
        fill: #1f4e8a;
      }

      .cls-73 {
        fill: #1d4b84;
      }

      .cls-74 {
        fill: #204d87;
      }

      .cls-75 {
        fill: #204b83;
      }

      .cls-76 {
        fill: #1c477a;
      }

      .cls-77 {
        fill: #2658a1;
      }

      .cls-78 {
        fill: #25559c;
      }

      .cls-79 {
        fill: #f2f3f8;
      }

      .cls-80 {
        fill: #eeeff5;
      }

      .cls-81 {
        fill: #23559a;
      }

      .cls-82 {
        fill: #ecedf4;
      }

      .cls-83 {
        fill: #f4f5f8;
      }

      .cls-84 {
        fill: #22528e;
      }

      .cls-85 {
        fill: #26569b;
      }

      .cls-86 {
        fill: #295ba5;
      }

      .cls-87 {
        fill: #25538f;
      }

      .cls-88 {
        fill: #285ba6;
      }
    </style>
  </defs>
  <g data-name="Capa 2">
    <g data-name="Capa 1">
      <g id="fiKfwi.tif">
        <g>
          <path class="cls-1" d="M.09,7.32C0,7.19.08,7,0,6.89V6.71a.36.36,0,0,0,0-.25V6.37a.06.06,0,0,1,.09,0c.11.23.21.47.31.7s0,.31.2.38.26.27.37.42,0,0,0,0a.34.34,0,0,0,0,.2c.05.08.14.13.2.2A5.52,5.52,0,0,0,2.45,9.49a6.32,6.32,0,0,0,3.06,1.17,6.5,6.5,0,0,0,4.58-1.19,6.56,6.56,0,0,0,2.27-2.83c0-.11.08-.23.13-.34s0-.13.12-.12v.31a.41.41,0,0,0,0,.22v.18c-.06.06,0,.15-.06.22a1.34,1.34,0,0,0-.26.43,6.81,6.81,0,0,1-2.7,2.65A7,7,0,0,1,7,11a6.73,6.73,0,0,1-3.43-.52A7.07,7.07,0,0,1,1.23,8.9a6.82,6.82,0,0,1-1-1.44S.14,7.36.09,7.32Z"/>
          <path class="cls-2" d="M12.61,6.18c-.1.07-.11.19-.14.28A6.61,6.61,0,0,1,11,8.71a6.51,6.51,0,0,1-1.85,1.36,6.93,6.93,0,0,1-2,.61,6.07,6.07,0,0,1-1.28.05,6.6,6.6,0,0,1-2.18-.51A7.17,7.17,0,0,1,1.84,9.06a7.38,7.38,0,0,1-.62-.63.35.35,0,0,1-.08-.13.2.2,0,0,1,.17,0,.38.38,0,0,1,.12.09,6.33,6.33,0,0,0,2.69,1.81A6.2,6.2,0,0,0,6,10.52a6.61,6.61,0,0,0,2.3-.33,6.35,6.35,0,0,0,2.18-1.26,6.29,6.29,0,0,0,1.93-3c0-.07,0-.17.14-.2s0,.08,0,.09v.16a.38.38,0,0,0,0,.21Z"/>
          <path class="cls-3" d="M.59,7.48a.32.32,0,0,1-.22-.4.27.27,0,0,1,.22-.22.35.35,0,0,1,.28.08S1,7,1,7h.32c.21,0,.22-.15.29-.27l.1-.21c.05-.12,0-.13-.1-.14H.36a1.11,1.11,0,0,1-.36,0V6.15a.28.28,0,0,1,.2,0c.31,0,.62,0,.93,0a2,2,0,0,0-.39-.51c-.1-.09-.25,0-.37,0s-.22,0-.31,0,0-.12,0-.18a.25.25,0,0,1,.17,0h.4A.38.38,0,0,1,1,5.45c.14.2.31.37.45.56a.28.28,0,0,0,.13.09c.35,0,.71,0,1.06,0a.41.41,0,0,1,.22,0c.05.17,0,.23-.15.24s-.39,0-.58,0-.1.08-.13.14-.17.34-.25.52a.31.31,0,0,1-.36.22,1.88,1.88,0,0,0-.41,0c-.05,0-.06.09-.1.13A.28.28,0,0,1,.59,7.48Z"/>
          <path class="cls-4" d="M.06,5.5H.4a2.69,2.69,0,0,1,.17.55.07.07,0,0,1,0,.08H.17C.06,6.15,0,6.13,0,6a.08.08,0,0,0,0,0V5.75C.06,5.68,0,5.58.06,5.5Z"/>
          <path class="cls-5" d="M0,6.34H1.85a2.48,2.48,0,0,1-.22.43.22.22,0,0,1-.14-.17.26.26,0,0,0-.33-.19H.4c-.11,0-.21,0-.31,0H0Z"/>
          <path class="cls-6" d="M0,5.94c0,.19.14.2.3.19H.55a1,1,0,0,1,.66,0,.21.21,0,0,1-.12,0H0Z"/>
          <path class="cls-7" d="M6.15,0h.31s0,0,0,.05a.48.48,0,0,1-.29,0S6.14,0,6.15,0Z"/>
          <path class="cls-8" d="M6.46,12.64H6.15s0,0,0,0a.37.37,0,0,1,.29,0A0,0,0,0,1,6.46,12.64Z"/>
          <path class="cls-9" d="M0,6.46a.23.23,0,0,1,0,.25Z"/>
          <path class="cls-10" d="M12.61,6.15a.17.17,0,0,1,0-.21Z"/>
          <path class="cls-10" d="M12.61,6.71a.18.18,0,0,1,0-.22Z"/>
          <path class="cls-11" d="M6.46,0V0h.22a0,0,0,0,0,0,0A.15.15,0,0,1,6.46,0Z"/>
          <path class="cls-11" d="M6.15,0V0a.14.14,0,0,1-.21,0V0Z"/>
          <path class="cls-12" d="M6.46,12.64v0a.16.16,0,0,1,.22,0s0,0,0,0Z"/>
          <path class="cls-13" d="M6.15,12.62v0H6v0A.11.11,0,0,1,6.15,12.62Z"/>
          <path class="cls-14" d="M11.54,2.83a3.41,3.41,0,0,1,.43.74A5.74,5.74,0,0,1,9,9.15a5.7,5.7,0,0,1-3.11.67,5.59,5.59,0,0,1-2.76-.94.46.46,0,0,1-.16-.15A.43.43,0,0,1,3,8.4c.07,0,.11,0,.15,0a5.32,5.32,0,0,0,2.67,1,5.19,5.19,0,0,0,2.69-.48,5.39,5.39,0,0,0,1.65-1.19c.06,0,.14-.06.18-.13a1,1,0,0,1,.16-.28A5.26,5.26,0,0,0,11.58,4.6,5.19,5.19,0,0,0,11.5,3C11.48,3,11.41,2.87,11.54,2.83Z"/>
          <path class="cls-15" d="M3,8.74a5.54,5.54,0,0,0,2.17.94,5.47,5.47,0,0,0,1.56.1A5.62,5.62,0,0,0,8.78,9.2a5.56,5.56,0,0,0,1.28-.87,5.89,5.89,0,0,0,1.33-1.76,5.45,5.45,0,0,0,.52-1.81c0-.35,0-.69,0-1,0,0,0-.11,0-.16a4.65,4.65,0,0,1,.33.8c-.05.32-.06.65-.14,1a6,6,0,0,1-1.44,2.81A5.94,5.94,0,0,1,7,10.09a5.82,5.82,0,0,1-3.31-.54,4.93,4.93,0,0,1-.77-.44c-.08,0-.19,0-.24-.12A.64.64,0,0,0,3,8.74Z"/>
          <path class="cls-16" d="M12.58,5.69a.53.53,0,0,0-.11.24A6.13,6.13,0,0,1,11.3,8.16,6.56,6.56,0,0,1,9.82,9.51a6.44,6.44,0,0,1-2.28.94,6.19,6.19,0,0,1-1.87.09,6.05,6.05,0,0,1-2.56-.77A6.43,6.43,0,0,1,1.35,8.33l0,0c0-.08.09-.11.17-.13a.33.33,0,0,1,.17.12A5.7,5.7,0,0,0,3.5,9.68,6.22,6.22,0,0,0,9,9.69a6.12,6.12,0,0,0,2.66-2.5,6.73,6.73,0,0,0,.7-1.84c0-.07,0-.17.12-.18A2.27,2.27,0,0,1,12.58,5.69Z"/>
          <path class="cls-17" d="M2.68,9a1.78,1.78,0,0,1,.58.3A6.17,6.17,0,0,0,5.33,10a5.79,5.79,0,0,0,3.5-.52,5.64,5.64,0,0,0,1.48-1,5.94,5.94,0,0,0,1.81-3.19,8.27,8.27,0,0,0,.12-.85.13.13,0,0,1,.06-.1l.12.43a1,1,0,0,0-.06.3,6,6,0,0,1-1.41,3A6.11,6.11,0,0,1,7,10.23a6.07,6.07,0,0,1-3.12-.41A6,6,0,0,1,2.09,8.66c-.2-.18-.37-.39-.57-.58a.45.45,0,0,0-.24-.34A1.74,1.74,0,0,1,1,7.36a.08.08,0,0,1,0-.11h.16c.1.07.13.18.2.28A6.11,6.11,0,0,0,2.63,8.82.34.34,0,0,1,2.68,9Z"/>
          <path class="cls-18" d="M5.94,0h.74A4.93,4.93,0,0,1,7.82.21s0,.05.08.06a4.15,4.15,0,0,1,2.42,2.92,4.5,4.5,0,0,1,.06,1.51.25.25,0,0,1-.08.18c-.06,0-.11,0-.16,0a3.86,3.86,0,0,0-.93-3.38A3.82,3.82,0,0,0,6.6.14a3.81,3.81,0,0,0-2.87.91A3.94,3.94,0,0,0,2.78,6c0,.06.12.08.11.17H1.69c-.05,0-.11,0-.16,0s.22,0,.34,0h.59c.09,0,.11,0,.07-.1a4.7,4.7,0,0,1-.28-.74,4.1,4.1,0,0,1,.87-3.88,4,4,0,0,1,1.35-1,.14.14,0,0,0,.08,0A5.47,5.47,0,0,1,5.94,0Z"/>
          <path class="cls-17" d="M1.53,8.05c.23.19.41.43.63.63a7,7,0,0,0,1.52,1,5.69,5.69,0,0,0,1.66.5,6.72,6.72,0,0,0,1.27.05,6,6,0,0,0,1.68-.33,5.78,5.78,0,0,0,1.9-1.08,6.22,6.22,0,0,0,1.59-2A5.89,5.89,0,0,0,12.34,5c0-.06,0-.13.08-.16a2.2,2.2,0,0,1,.07.37c-.09,0-.07.14-.09.22a6.13,6.13,0,0,1-1,2.31A6.29,6.29,0,0,1,9.3,9.58a6.37,6.37,0,0,1-1.87.68,6,6,0,0,1-1.74.08,6.27,6.27,0,0,1-2.32-.67A6.37,6.37,0,0,1,2,8.74c-.2-.17-.35-.39-.56-.56C1.45,8.12,1.47,8.08,1.53,8.05Z"/>
          <path class="cls-19" d="M10.3,4.87a4.17,4.17,0,0,0,0-1.27,3.83,3.83,0,0,0-.49-1.52A4,4,0,0,0,8.72.79a4.48,4.48,0,0,0-.9-.52c-.06,0-.07,0,0-.06A5.39,5.39,0,0,1,9.16.7l.17.1s0,.06.07.09a4.49,4.49,0,0,1,1.32,2.77,4,4,0,0,1,0,1.15A.32.32,0,0,1,10.6,5,.32.32,0,0,1,10.3,4.87Z"/>
          <path class="cls-20" d="M10.58,5a2.93,2.93,0,0,0,.12-1.21,4.37,4.37,0,0,0-.23-1.13A4.37,4.37,0,0,0,9.39,1S9.26.88,9.33.8a5.65,5.65,0,0,1,.92.61A4.75,4.75,0,0,1,11.06,4a5.17,5.17,0,0,1-.12,1.24.38.38,0,0,1-.11.25s-.06,0-.08,0S10.6,5.17,10.58,5Z"/>
          <path class="cls-21" d="M11.54,2.83c-.07.06,0,.12,0,.18a6,6,0,0,1,.09.94,5.06,5.06,0,0,1-.23,1.73,5.25,5.25,0,0,1-.92,1.75,2.4,2.4,0,0,0-.11.23,1.42,1.42,0,0,0-.14-.23.33.33,0,0,1,.11-.21,5.14,5.14,0,0,0,1-2.46,5,5,0,0,0-.17-2.13c0-.1-.08-.19,0-.3A3.59,3.59,0,0,1,11.54,2.83Z"/>
          <path class="cls-22" d="M10.8,5.45A1.86,1.86,0,0,0,11,4.76a4.52,4.52,0,0,0,0-1.1,4.47,4.47,0,0,0-.42-1.56c-.1-.19-.2-.38-.31-.56a.21.21,0,0,1,0-.13l.52.47a9.44,9.44,0,0,1,.35,1,4.93,4.93,0,0,1-.26,3.17c0,.09-.07.18-.19.18a1,1,0,0,1,.06-.54C10.78,5.63,10.72,5.52,10.8,5.45Z"/>
          <path class="cls-23" d="M10.68,6.25a.73.73,0,0,0,.23-.44,4.47,4.47,0,0,0,.29-1.35,4.88,4.88,0,0,0-.41-2.39c0-.06-.09-.12,0-.19a.8.8,0,0,1,.2.21A4.88,4.88,0,0,1,11.3,3.2a5.21,5.21,0,0,1-1.12,4.2s0,0-.06.06a.39.39,0,0,1-.28,0c-.1-.08,0-.15,0-.2s.24-.29.35-.44.15-.25.23-.38S10.59,6.3,10.68,6.25Z"/>
          <path class="cls-23" d="M10.12,7.44A1.86,1.86,0,0,1,10.4,7a5.24,5.24,0,0,0,.81-1.82,5.69,5.69,0,0,0,.13-1.08,4.07,4.07,0,0,0-.07-.85A6.5,6.5,0,0,0,11,2.21s0-.08,0-.12l.2.24a2.72,2.72,0,0,0,.13.58,4.93,4.93,0,0,1,.14,1.43,5.3,5.3,0,0,1-.52,2,5.1,5.1,0,0,1-.53.86,1.59,1.59,0,0,0-.15.21A.08.08,0,0,1,10.12,7.44Z"/>
          <path class="cls-24" d="M12.34,8.13A3.85,3.85,0,0,1,12,9c-.15.16-.29.34-.44.49a7.59,7.59,0,0,1-3.46,2,7.09,7.09,0,0,1-2.29.23A7.37,7.37,0,0,1,3,10.9,7.31,7.31,0,0,1,.9,9.4a.45.45,0,0,1-.14-.19c0-.1.1-.14.17-.18a.19.19,0,0,1,.17.09A7.28,7.28,0,0,0,3,10.51a6.58,6.58,0,0,0,1.55.58,6.65,6.65,0,0,0,1.83.22,7.36,7.36,0,0,0,2.84-.65,7.6,7.6,0,0,0,1.59-1,6.88,6.88,0,0,0,1.33-1.42.65.65,0,0,1,.16-.17S12.34,8.06,12.34,8.13Z"/>
          <path class="cls-25" d="M.77,9.2a7.13,7.13,0,0,0,1.52,1.27,6.71,6.71,0,0,0,1.51.71,7.73,7.73,0,0,0,1.51.36,8.56,8.56,0,0,0,1.13.06,7.64,7.64,0,0,0,2-.31A7.54,7.54,0,0,0,10.91,10a5.51,5.51,0,0,0,1-.91c0-.05.07-.13.16-.12a4.59,4.59,0,0,1-.48.87,4.7,4.7,0,0,0-.43.35A7.84,7.84,0,0,1,7.4,11.79a7.66,7.66,0,0,1-4.54-.7,7.77,7.77,0,0,1-1.5-.95.14.14,0,0,0-.1-.05A3.89,3.89,0,0,1,.71,9.2,0,0,0,0,1,.77,9.2Z"/>
          <path class="cls-26" d="M.09,7.32c.08,0,.08,0,.1.08A6.82,6.82,0,0,0,1.52,9.13a6.43,6.43,0,0,0,1.3,1,6.8,6.8,0,0,0,2.27.82A6.73,6.73,0,0,0,6.71,11a7.61,7.61,0,0,0,1.71-.33,6.29,6.29,0,0,0,1.35-.61,6.63,6.63,0,0,0,1.42-1.11,6.67,6.67,0,0,0,1.22-1.71.67.67,0,0,1,.09-.14s.05,0,.05,0a1.59,1.59,0,0,1-.06.43,7.51,7.51,0,0,1-1.43,1.8,7.17,7.17,0,0,1-2.3,1.41,7.44,7.44,0,0,1-1.91.43,6.9,6.9,0,0,1-3.66-.68A6.61,6.61,0,0,1,1.15,9,.82.82,0,0,0,1,8.86c-.09-.07-.14-.19-.28-.2s-.13.06-.2,0a2.7,2.7,0,0,1-.2-.54.33.33,0,0,0-.08-.3A2.28,2.28,0,0,1,.09,7.32Z"/>
          <path class="cls-27" d="M2.18,11.08a3.52,3.52,0,0,1-.61-.61c.06-.07.06-.07.16,0s.45.3.69.43A7.77,7.77,0,0,0,9.88,11a7.66,7.66,0,0,0,1.18-.76c.11-.09.11-.08.2,0-.18.23-.39.43-.58.65s-.51.3-.78.43a8.16,8.16,0,0,1-2.72.82,8.85,8.85,0,0,1-1.26.05,8.23,8.23,0,0,1-2.85-.66C2.77,11.37,2.48,11.21,2.18,11.08Z"/>
          <path class="cls-28" d="M12.34,8.13c-.09,0-.1,0-.13.09a7.37,7.37,0,0,1-1,1.12,7.6,7.6,0,0,1-1.49,1.09,7.44,7.44,0,0,1-1.71.68,8,8,0,0,1-1.3.22c-.22,0-.44,0-.66,0a8.12,8.12,0,0,1-1.83-.29,7.7,7.7,0,0,1-1.16-.44,7.63,7.63,0,0,1-1.36-.86A7.3,7.3,0,0,1,1,9.11.18.18,0,0,0,.93,9a.12.12,0,0,1,0-.15c.08,0,.11,0,.15.09a7.24,7.24,0,0,0,2.42,1.67,6.6,6.6,0,0,0,2.09.51,7,7,0,0,0,2.88-.33,6.93,6.93,0,0,0,2.64-1.58,6.6,6.6,0,0,0,1.14-1.39c0-.05.05-.1.1-.12s.09,0,.06,0Z"/>
          <path class="cls-29" d="M3.57,12a5,5,0,0,1-.81-.46s-.1,0-.12-.09,0-.06.09-.06l.14,0,.08,0,.15.06.08,0,.14.06.1,0,.16.06.27.09.2.06.13,0a1,1,0,0,0,.23.06h0a2,2,0,0,0,.43.08h.05a8.07,8.07,0,0,0,2.64,0h0A3,3,0,0,0,8.08,12a10.23,10.23,0,0,0,1.71-.61c.12,0,.23-.13.35-.18s.12-.08.16,0a6.87,6.87,0,0,1-1,.64l-.06,0a7.86,7.86,0,0,1-2.39.56A8.26,8.26,0,0,1,3.66,12,.14.14,0,0,0,3.57,12Z"/>
          <path class="cls-30" d="M11.26,10.21c-.08,0-.12,0-.17.07a8,8,0,0,1-3,1.46,7.74,7.74,0,0,1-2.35.19,7.9,7.9,0,0,1-3.25-1c-.26-.15-.5-.32-.75-.48,0,0-.08-.09-.14,0a1.84,1.84,0,0,1-.31-.38c0-.05.08,0,.12,0a7.4,7.4,0,0,0,2,1.16,7.29,7.29,0,0,0,1.83.49,6.68,6.68,0,0,0,1.26.09,7.92,7.92,0,0,0,2.95-.66,8.7,8.7,0,0,0,1.56-.91c.15-.11.29-.24.43-.36s.11-.1.19-.09Z"/>
          <path class="cls-31" d="M3.57,12a.57.57,0,0,1,.36.06,9.44,9.44,0,0,0,1.5.28,5.86,5.86,0,0,0,.94.05A8.59,8.59,0,0,0,8.88,12a1.56,1.56,0,0,1,.41-.11,4.9,4.9,0,0,1-1.64.63,5.4,5.4,0,0,1-1,.14H6a6.53,6.53,0,0,1-2.3-.56Z"/>
          <path class="cls-26" d="M12.43,7.79c0-.1-.07,0-.08,0s-.2.31-.32.47A7.2,7.2,0,0,1,7.91,11a7.48,7.48,0,0,1-2.26.16,6.84,6.84,0,0,1-2.76-.81,7.24,7.24,0,0,1-1.37-1c-.2-.16-.36-.36-.56-.52a0,0,0,0,1,0-.06c.07,0,.11.05.15.1a6.94,6.94,0,0,0,2.2,1.58,7.13,7.13,0,0,0,2.07.6,7.39,7.39,0,0,0,1.24.05,6.54,6.54,0,0,0,1.58-.27,6.85,6.85,0,0,0,2-.91,6.78,6.78,0,0,0,1.4-1.22,7.24,7.24,0,0,0,.77-1.07.43.43,0,0,1,.15-.15A.76.76,0,0,1,12.43,7.79Z"/>
          <path class="cls-32" d="M3,11.51s0,0-.06,0-.3-.13-.46-.18a1.27,1.27,0,0,1-.25-.21c.06-.07.11,0,.15,0a8.78,8.78,0,0,0,1.48.63,8,8,0,0,0,1.53.33,6.24,6.24,0,0,0,1,.06,7.92,7.92,0,0,0,3-.61,7.52,7.52,0,0,0,1.2-.61c.05,0,.1-.1.17,0a3,3,0,0,1-.38.33c-.09,0-.16,0-.23.07a8.1,8.1,0,0,1-1.71.67L8.09,12l-.46.09a8.4,8.4,0,0,1-2.74,0L4.43,12c-.08,0-.17,0-.25-.06s-.09,0-.12,0l-.21-.07a.55.55,0,0,1-.28-.09s-.11,0-.16-.06-.07,0-.09,0l-.15-.06a.06.06,0,0,1-.06,0A1,1,0,0,0,3,11.51Z"/>
          <path class="cls-33" d="M1,8.83v.06L.93,9a.49.49,0,0,1-.16.16H.71a1.64,1.64,0,0,1-.24-.52C.7,8.57.82,8.61,1,8.83Z"/>
          <path class="cls-32" d="M2.43,11.29c.08,0,.15,0,.21.05a1,1,0,0,1,.25.13c-.09,0-.15-.11-.25,0A1.06,1.06,0,0,1,2.43,11.29Z"/>
          <path class="cls-34" d="M.19,7.84c.13,0,.16.14.08.3A1.11,1.11,0,0,1,.19,7.84Z"/>
          <path class="cls-19" d="M4.55.27c0,.09-.06.08-.1.1a4.52,4.52,0,0,0-1.12.81A4.1,4.1,0,0,0,2.5,5.79a.19.19,0,0,1,0,.07c0,.09.14.18.08.25s-.17,0-.26,0H2.28a.44.44,0,0,1-.13-.2,4.46,4.46,0,0,1,.68-4.73A1,1,0,0,0,3,1,5.36,5.36,0,0,1,4.55.27Z"/>
          <path class="cls-35" d="M3,1C3,1,3,1.05,3,1.09a4.79,4.79,0,0,0-.75,1.14,4.77,4.77,0,0,0-.37,1.29,4.5,4.5,0,0,0,.32,2.32l.12.28h-.4a3.8,3.8,0,0,1-.35-1,2.19,2.19,0,0,0-.1-.34.69.69,0,0,0,0-.49,7.54,7.54,0,0,1,.16-1.34,5.11,5.11,0,0,1,.54-1.3A4,4,0,0,1,3,1Z"/>
          <path class="cls-36" d="M2.12,1.62a1,1,0,0,1-.19.44A5.12,5.12,0,0,0,1.5,3.78a1,1,0,0,1-.07.5.27.27,0,0,1-.25-.08,2.57,2.57,0,0,1,0-.83,6.66,6.66,0,0,1,.26-1.09A4.06,4.06,0,0,1,2.12,1.62Z"/>
          <path class="cls-37" d="M1.45,6,1,5.5a3.58,3.58,0,0,1-.15-1c0-.19-.05-.39-.06-.59a.13.13,0,0,1,0-.06c.15-.19.09-.35-.08-.5a3.38,3.38,0,0,1,.43-.7c.1,0,.07.1.06.16a7.12,7.12,0,0,0-.16,1,.88.88,0,0,0,0,.36.14.14,0,0,1,0,.11c-.11.19-.09.29.09.43l.05,0A.35.35,0,0,1,1.26,5c.06.29.14.57.23.86C1.51,5.89,1.56,6,1.45,6Z"/>
          <path class="cls-14" d="M.82,3.9c.05,0,0,.09,0,.14a.92.92,0,0,0,.05.4c.06.1,0,.21,0,.33s.08.44.13.67A0,0,0,0,1,1,5.5a.44.44,0,0,0-.44-.19,4,4,0,0,1-.49,0,0,0,0,0,1,0,0c.11-.08.23,0,.35,0s.18,0,.15-.2S.54,4.5.51,4.23a.48.48,0,0,1,0-.29A.31.31,0,0,1,.82,3.9Z"/>
          <path class="cls-37" d="M1.08,4.25C1,4.15,1,4,1,3.9a6.8,6.8,0,0,1,.17-1.1.11.11,0,0,0,0-.13,2.71,2.71,0,0,1,.3-.39c.07.05,0,.11,0,.16A4.86,4.86,0,0,0,1.2,4.21S1.13,4.28,1.08,4.25Z"/>
          <path class="cls-38" d="M.56,3.93A6.3,6.3,0,0,0,.65,5.08c0,.21,0,.21-.19.21a.17.17,0,0,1-.08-.14c0-.16,0-.31-.07-.47a1.9,1.9,0,0,0,0-.34A2.35,2.35,0,0,1,.49,3.9S.55,3.89.56,3.93Z"/>
          <path class="cls-39" d="M.56,3.93l-.07,0a2.14,2.14,0,0,1,.25-.53c.25.1.28.32.08.53A.39.39,0,0,1,.56,3.93Z"/>
          <path class="cls-40" d="M.34,4.67a2.92,2.92,0,0,1,.09.5l0,.12H.1a2.28,2.28,0,0,1,.1-.52S.26,4.65.34,4.67Z"/>
          <path class="cls-41" d="M.34,4.67c-.05,0-.07.11-.14.1a3,3,0,0,1,.12-.43A.33.33,0,0,1,.34,4.67Z"/>
          <path class="cls-42" d="M1.53,8.05l-.05.13-.16.12H1.14A.47.47,0,0,1,1,8.12a.37.37,0,0,1,0-.21,0,0,0,0,0,0,0c0-.11.1-.15.19-.18s.09,0,.14,0A.33.33,0,0,1,1.53,8.05Z"/>
          <path class="cls-43" d="M.09,6.37H.4a1.62,1.62,0,0,1,.2.42.08.08,0,0,1,0,.1.43.43,0,0,0-.21.19L.13,6.53A.29.29,0,0,1,.09,6.37Z"/>
          <path class="cls-43" d="M1.14,7.72A.56.56,0,0,0,1,7.88a3.55,3.55,0,0,1-.23-.31c0-.06-.1-.05-.14-.09a.38.38,0,0,0,.3-.1A1,1,0,0,1,1.14,7.72Z"/>
          <path class="cls-43" d="M1,7.91v.21A.2.2,0,0,1,1,7.91Z"/>
          <path class="cls-18" d="M2.89,6.16a.86.86,0,0,1-.31-.5,3.63,3.63,0,0,1-.33-1.59,4,4,0,0,1,.83-2.4A3.89,3.89,0,0,1,5.48.16,3.86,3.86,0,0,1,8.55.82a3.9,3.9,0,0,1,1.63,2.51,3.31,3.31,0,0,1,.09.77c0,.22,0,.44-.06.67,0,0,0,.06-.07.06a.09.09,0,0,1-.11,0c0-.07,0-.14,0-.21a4,4,0,0,0-.17-1.76A3.75,3.75,0,0,0,8,.74,3.69,3.69,0,0,0,6.64.32a3.66,3.66,0,0,0-2.79.84A3.68,3.68,0,0,0,2.48,3.64,3.64,3.64,0,0,0,3.1,6.2.42.42,0,0,1,3,6.56s-.07,0-.08,0-.3-.14-.47-.14-.27,0-.39,0a1.62,1.62,0,0,1,.58,0C2.8,6.35,2.89,6.31,2.89,6.16Z"/>
          <path class="cls-44" d="M1.75,7A3.23,3.23,0,0,1,2,6.52c.07,0,.09,0,.12.06a6.52,6.52,0,0,0,.69.88.22.22,0,0,1,.06.13,1.44,1.44,0,0,1-.1.5c-.08,0-.13,0-.18-.08A6.18,6.18,0,0,1,1.75,7Z"/>
          <path class="cls-14" d="M1.75,7c.16.08.22.25.32.38a7.5,7.5,0,0,0,.67.71.42.42,0,0,1,0,.38c-.08.06-.12,0-.17,0a4.81,4.81,0,0,1-.92-1,.26.26,0,0,0-.28-.15.16.16,0,0,1-.13,0H1s-.05,0-.06,0a.7.7,0,0,1,.38,0A.34.34,0,0,0,1.75,7Z"/>
          <path class="cls-20" d="M2.83,7.57c-.06-.14-.2-.23-.3-.35s-.3-.4-.43-.61c0,0,0-.09-.1-.09a.28.28,0,0,1,.08-.15h.41c.15.19.27.4.44.58a.17.17,0,0,1,0,.12,2,2,0,0,1-.06.42S2.88,7.57,2.83,7.57Z"/>
          <path class="cls-36" d="M1.45,6a.08.08,0,0,0,0-.11c-.13-.36-.19-.75-.3-1.11a.33.33,0,0,1,.27-.07c.12.06.1.19.12.29A4.27,4.27,0,0,0,1.85,6a.4.4,0,0,1,0,.15H1.53Z"/>
          <path class="cls-38" d="M1.21,6.12H.55A6,6,0,0,1,.4,5.51a.44.44,0,0,1,.53.24A3.27,3.27,0,0,0,1.21,6.12Z"/>
          <path class="cls-45" d="M.71,6.37h.34A3.7,3.7,0,0,1,1.37,7a.07.07,0,0,1,0,.08H1A3.77,3.77,0,0,1,.7,6.47.09.09,0,0,1,.71,6.37Z"/>
          <path class="cls-46" d="M1.35,7a3.22,3.22,0,0,0-.21-.46l-.09-.21c.25,0,.45,0,.52.3a.33.33,0,0,0,.06.1.94.94,0,0,0-.06.15A.16.16,0,0,1,1.35,7Z"/>
          <path class="cls-17" d="M.71,6.37a2.81,2.81,0,0,0,.22.5A.31.31,0,0,1,1,7s-.06,0-.09,0a.33.33,0,0,0-.31-.13,1.55,1.55,0,0,0-.13-.36c0-.06-.06-.1,0-.16Z"/>
          <path class="cls-17" d="M1,7.26H1a2.13,2.13,0,0,0,.27.46H1.14a1.2,1.2,0,0,1-.25-.34Z"/>
          <path class="cls-47" d="M2.83,7.57a3,3,0,0,0,.1-.52A1,1,0,0,1,3,6.55a1.51,1.51,0,0,0,.07-.37,1.1,1.1,0,0,1,0-.36,3.74,3.74,0,0,1,.12-.45,1,1,0,0,1,.15-.21l.05,0,.1-.1.13-.08A.82.82,0,0,1,4,4.82a1.46,1.46,0,0,1,.36,0h.34a1,1,0,0,1,.39,0,.7.7,0,0,1,.46.38.84.84,0,0,1,.07.44c0,.07,0,.13,0,.2s-.06.28-.07.42a1.09,1.09,0,0,0,0,.26c0,.12,0,.23-.07.35a1.41,1.41,0,0,1-.06.22,1.24,1.24,0,0,1-.1.2,1.15,1.15,0,0,1-.14.17,2.1,2.1,0,0,1-.3.22.88.88,0,0,1-.36.1H3.82a1.22,1.22,0,0,1-.56-.11c-.14-.07-.08.07-.11.12a1.13,1.13,0,0,0,0,.18.09.09,0,0,0,0,0,.41.41,0,0,0,0,.16c0,.07,0,.14-.07.2a1.27,1.27,0,0,0,0,.34C2.88,9,2.87,9,2.68,9a.21.21,0,0,1-.07-.16c0-.12,0-.24.06-.34a1.78,1.78,0,0,0,.07-.39A2.35,2.35,0,0,0,2.83,7.57Z"/>
          <path class="cls-47" d="M10,4.83h.11l.16,0a1.12,1.12,0,0,1,.28.16.92.92,0,0,1,.19.35,1,1,0,0,1,0,.34,2.35,2.35,0,0,0-.09.53c0,.11-.07.22-.22.22a1.18,1.18,0,0,1-.46,0H8.85c-.3,0-.3,0-.36.28a.55.55,0,0,0,0,.38.36.36,0,0,0,.33.23h.4c.14,0,.28,0,.42,0a.2.2,0,0,1,.15,0h.43c.13,0,.15.11.13.22a.23.23,0,0,1-.19.09c-.09.07-.19,0-.29,0H9.28a4.34,4.34,0,0,1-.51,0,.82.82,0,0,1-.37-.13.75.75,0,0,1-.22-.25.55.55,0,0,1-.1-.35,3.47,3.47,0,0,1,.06-.45c0-.12,0-.25.07-.37s0-.23.07-.35,0-.24.07-.36A1.36,1.36,0,0,1,8.71,5c.06-.07.16-.09.23-.14a1.15,1.15,0,0,1,.17-.06l.17,0a.69.69,0,0,1,.2,0h.25C9.83,4.79,9.94,4.76,10,4.83Z"/>
          <path class="cls-37" d="M9.88,7.76h.3c0,.11-.11.16-.18.22A5.94,5.94,0,0,1,8.59,9a5.51,5.51,0,0,1-1.77.5,5.41,5.41,0,0,1-2.64-.38A5.06,5.06,0,0,1,3,8.4a.54.54,0,0,1,0-.22H3.1c.27.15.52.34.8.48a5,5,0,0,0,1.66.53,3.39,3.39,0,0,0,.64.05,5.11,5.11,0,0,0,1.29-.15,5.34,5.34,0,0,0,1.93-.94C9.58,8,9.72,7.89,9.88,7.76Z"/>
          <path class="cls-45" d="M2.67,8.49c0,.11,0,.23-.06.34a1.41,1.41,0,0,1-.43-.33,6.16,6.16,0,0,1-.93-1.1s-.06-.08-.05-.14a.45.45,0,0,1,.51.25,4.46,4.46,0,0,0,.89,1S2.65,8.48,2.67,8.49Z"/>
          <path class="cls-48" d="M10.77,5.72V5.38l0,.07C10.78,5.54,10.83,5.63,10.77,5.72Z"/>
          <path class="cls-20" d="M10,6.47h.46a2.58,2.58,0,0,1-.49.74.73.73,0,0,0-.16.23,2.81,2.81,0,0,1-.58,0,.11.11,0,0,1,0-.14A5,5,0,0,0,10,6.51.1.1,0,0,1,10,6.47Z"/>
          <path class="cls-32" d="M4.89,12.09l.79.08a11.22,11.22,0,0,0,1.16,0l.79-.08a1.89,1.89,0,0,1-.52.09,9.09,9.09,0,0,1-1.38,0A3,3,0,0,1,4.89,12.09Z"/>
          <path class="cls-32" d="M4.43,12a1.22,1.22,0,0,1,.46.09A1.22,1.22,0,0,1,4.43,12Z"/>
          <path class="cls-32" d="M7.63,12.09A1.22,1.22,0,0,1,8.09,12,1.22,1.22,0,0,1,7.63,12.09Z"/>
          <path class="cls-32" d="M4.18,11.94a.37.37,0,0,1,.25.06A.37.37,0,0,1,4.18,11.94Z"/>
          <path class="cls-32" d="M3.85,11.84a.28.28,0,0,1,.21.07A.27.27,0,0,1,3.85,11.84Z"/>
          <path class="cls-32" d="M3,11.51a.17.17,0,0,1,.16.06A.23.23,0,0,1,3,11.51Z"/>
          <path class="cls-32" d="M3.17,11.6a.17.17,0,0,1,.15.06A.17.17,0,0,1,3.17,11.6Z"/>
          <path class="cls-32" d="M3.41,11.69a.19.19,0,0,1,.16.06A.19.19,0,0,1,3.41,11.69Z"/>
          <path class="cls-42" d="M1.44,4.74a.5.5,0,0,1-.27.07c-.28-.14-.31-.34-.09-.56l.12,0a.45.45,0,0,1,.23.07A.33.33,0,0,1,1.44,4.74Z"/>
          <path class="cls-49" d="M10,4.83H9.72c-.06-.07,0-.15,0-.22A3.43,3.43,0,0,0,9,2,3.35,3.35,0,0,0,6.78.64a3.4,3.4,0,0,0-2.92.93A3.34,3.34,0,0,0,2.79,3.71a3.43,3.43,0,0,0,.29,1.84.39.39,0,0,1,.06.28,1.35,1.35,0,0,1-.06.35,1.62,1.62,0,0,1-.4-.68,2.9,2.9,0,0,1-.24-.93,4.67,4.67,0,0,1,0-.75,5.22,5.22,0,0,1,.2-1A3.93,3.93,0,0,1,4.36.76,3.59,3.59,0,0,1,5.74.29a4,4,0,0,1,.91,0A3.65,3.65,0,0,1,8.38.9a3.81,3.81,0,0,1,1.3,1.46,4,4,0,0,1,.4,1.36,2.06,2.06,0,0,1,0,.43A3.07,3.07,0,0,1,10,4.83Z"/>
          <path class="cls-19" d="M3,6.55a2.74,2.74,0,0,1-.08.5c-.05-.15-.19-.24-.27-.37a1.17,1.17,0,0,1-.17-.31h.14c.13,0,.25,0,.31.14A.07.07,0,0,0,3,6.55Z"/>
          <path class="cls-50" d="M3.14,5.83A1.66,1.66,0,0,0,3,5.44a3.83,3.83,0,0,1-.26-1.17,3.35,3.35,0,0,1,.36-1.74A3.53,3.53,0,0,1,5.66.61c.2,0,.4,0,.6,0A2.93,2.93,0,0,1,7.4.75,3.48,3.48,0,0,1,9,1.82a3.43,3.43,0,0,1,.79,1.69,3.39,3.39,0,0,1,0,1.23.28.28,0,0,0,0,.09H9.48c-.08-.12,0-.24,0-.36A3.19,3.19,0,0,0,8.33,1.6,3,3,0,0,0,6.75.89,3.25,3.25,0,0,0,3.18,5.13a2.18,2.18,0,0,1,.09.23Z"/>
          <path class="cls-51" d="M3.27,5.36c-.14-.09-.15-.26-.18-.39A3.27,3.27,0,0,1,3.72,2,3.11,3.11,0,0,1,5.83.84a3.28,3.28,0,0,1,2.07.41A3.32,3.32,0,0,1,9.5,3.54a3.18,3.18,0,0,1,0,1.15.66.66,0,0,0,0,.14H9.22a1.64,1.64,0,0,1,0-.44,2.92,2.92,0,0,0-.49-2A2.91,2.91,0,0,0,7,1.16a3,3,0,0,0-2.59.57,2.92,2.92,0,0,0-1.13,2.1A2.78,2.78,0,0,0,3.38,5c0,.06,0,.11.05.16Z"/>
          <path class="cls-35" d="M8.74,7.75h.55c0,.08,0,.11-.11.15a4.74,4.74,0,0,1-2.39,1,4.66,4.66,0,0,1-2.28-.3,4.33,4.33,0,0,1-1.15-.64.45.45,0,0,0-.25-.12l0-.25a.93.93,0,0,0,.63.2,4.49,4.49,0,0,0,1.85.7,4.29,4.29,0,0,0,2.5-.37C8.34,8,8.54,7.87,8.74,7.75Z"/>
          <path class="cls-52" d="M5.51,5.2a.85.85,0,0,0-.41-.34l-.21-.48a2.82,2.82,0,0,0,0-.41A2.35,2.35,0,0,1,5.2,3.3,1.33,1.33,0,0,1,7,3a1.31,1.31,0,0,1,.44,1.75s0,.09-.1.11a.45.45,0,0,1-.28,0c-.07,0,0-.11,0-.16a1.74,1.74,0,0,0,.14-.27,1,1,0,0,0-.28-1.06,1,1,0,0,0-1.61.76A.93.93,0,0,0,5.87,5C6,5,6,5,6.05,5.13a.41.41,0,0,1-.17.24A.56.56,0,0,1,5.51,5.2Z"/>
          <path class="cls-19" d="M8.74,7.75a.45.45,0,0,1-.21.18,4.66,4.66,0,0,1-1.7.59,4.48,4.48,0,0,1-3-.67.16.16,0,0,1-.07-.09h.68a4,4,0,0,0,2.05.42,4.08,4.08,0,0,0,1.71-.5c.06,0,.11-.08.19,0A1.61,1.61,0,0,0,8.74,7.75Z"/>
          <path class="cls-53" d="M9.23,4.83h0a.3.3,0,0,1-.16,0c-.12,0-.07-.13-.06-.19A3.56,3.56,0,0,0,9.1,4,2.83,2.83,0,0,0,6.68,1.28a2.76,2.76,0,0,0-2.5.86A2.69,2.69,0,0,0,3.42,4a2.73,2.73,0,0,0,.12.94.24.24,0,0,1,0,.12.15.15,0,0,1-.09.1,1.25,1.25,0,0,1-.19-.59,2.92,2.92,0,0,1,.26-1.77A3,3,0,0,1,4.58,1.57,3.09,3.09,0,0,1,6.3,1.06a2.92,2.92,0,0,1,1.91.72,3,3,0,0,1,1,2,2.91,2.91,0,0,1,0,.93A.48.48,0,0,0,9.23,4.83Z"/>
          <path class="cls-54" d="M3.54,5.05A2.85,2.85,0,0,1,3.6,3,2.85,2.85,0,0,1,6,1.22a3.12,3.12,0,0,1,1.18.15A2.84,2.84,0,0,1,8.75,2.64a2.94,2.94,0,0,1,.38,1.74,2.7,2.7,0,0,1,0,.28c0,.07,0,.14,0,.2L9,4.92c-.09,0,0-.09,0-.14A2.77,2.77,0,0,0,9,4a2.44,2.44,0,0,0-.64-1.65,2.65,2.65,0,0,0-2.16-.95A2.59,2.59,0,0,0,4.51,2a2.7,2.7,0,0,0-.94,1.61,2.51,2.51,0,0,0,0,.61c0,.1-.1.2,0,.29s0,0,0,.06.13.26.07.41Z"/>
          <path class="cls-22" d="M3.11,7.81c.05-.08.11,0,.15,0a5.3,5.3,0,0,0,1.37.77,4.62,4.62,0,0,0,1.1.25,4.74,4.74,0,0,0,2.18-.26,5.33,5.33,0,0,0,1.3-.72l.08-.09h.25c0,.09,0,.13-.1.17A5.09,5.09,0,0,1,7.16,9a4.88,4.88,0,0,1-3.87-.9A.43.43,0,0,0,3.08,8Z"/>
          <path class="cls-18" d="M8.41,7.63A8.13,8.13,0,0,1,7.56,8a4.31,4.31,0,0,1-1.75.18,4.08,4.08,0,0,1-1.24-.34c-.05,0-.1,0-.11-.1l.33-.1a.3.3,0,0,1,.13,0A3.74,3.74,0,0,0,8,7.5c.07,0,.13-.1.22-.09Z"/>
          <path class="cls-55" d="M4.71,4.83H4.34s0,0,0-.08a.2.2,0,0,0-.2-.17S4,4.57,4,4.52s.1,0,.15,0c-.21,0-.25-.17-.11-.44a.29.29,0,0,1,.21,0,.24.24,0,0,1-.16,0c0-.06.07-.06.11-.06s.19,0,.22-.17a1.84,1.84,0,0,1,3.65.34A1.89,1.89,0,0,1,8,4.7a.23.23,0,0,1-.09.14.07.07,0,0,1-.09,0c-.05-.07,0-.13,0-.19A1.67,1.67,0,1,0,4.66,3.6a.65.65,0,0,1,0,.13c-.08.22-.07.45-.14.68,0,0,0-.07,0-.08A.57.57,0,0,1,4.71,4.83Z"/>
          <path class="cls-53" d="M5.3,7.11l.06-.22c0-.11.1-.1.18-.08L6,6.88a3,3,0,0,0,1.38-.21.26.26,0,0,1,.19,0,.31.31,0,0,1,0,.4,5,5,0,0,1-1,.26A3.19,3.19,0,0,1,5.44,7.2C5.39,7.19,5.32,7.18,5.3,7.11Z"/>
          <path class="cls-56" d="M8.21,7.41a3.62,3.62,0,0,1-1.3.5,3.82,3.82,0,0,1-1.84-.14,1,1,0,0,1-.28-.12l.28-.21a.55.55,0,0,1,.46.22.33.33,0,0,0,.22,0H6.86a1,1,0,0,0,.86-.42.43.43,0,0,1,.09-.1c.1,0,.19-.13.31-.11S8.18,7.3,8.21,7.41Z"/>
          <path class="cls-57" d="M7.57,6.64a5.34,5.34,0,0,1-.8.26,3,3,0,0,1-1.24-.05c-.07,0-.13,0-.17,0l.06-.37c.06-.11.16,0,.23,0a2.4,2.4,0,0,0,1.19,0c.13,0,.25-.13.41-.1S7.56,6.48,7.57,6.64Z"/>
          <path class="cls-53" d="M9.23,4.83c-.07,0,0,0,0-.08a5.36,5.36,0,0,0,.06-.7,3.05,3.05,0,0,0-.69-1.87A2.93,2.93,0,0,0,6.62,1.11a2.88,2.88,0,0,0-2.22.63A2.88,2.88,0,0,0,3.29,3.66a2.91,2.91,0,0,0,.16,1.49l0,0a1,1,0,0,1-.19-.58A2.89,2.89,0,0,1,3.5,2.76,3,3,0,0,1,5.08,1.27a3,3,0,0,1,2.54.08A3,3,0,0,1,9.26,3.48,2.93,2.93,0,0,1,9.23,4.83Z"/>
          <path class="cls-58" d="M3.08,8.18h0a.27.27,0,0,1,0-.15c.08,0,.13,0,.19.06a4.88,4.88,0,0,0,2.62,1A4.94,4.94,0,0,0,9.5,7.88l.16-.12h.12c.05.09,0,.13-.09.17a5,5,0,0,1-1,.68,5,5,0,0,1-1.95.61,4.74,4.74,0,0,1-1.13,0,5.1,5.1,0,0,1-1.33-.34,5.34,5.34,0,0,1-1.05-.57C3.21,8.25,3.16,8.18,3.08,8.18Z"/>
          <path class="cls-51" d="M5.05,6.8a.55.55,0,0,1-.12.35c-.18-.14-.38-.22-.56-.35a3.43,3.43,0,0,1-.77-.75.41.41,0,0,0-.15-.14.8.8,0,0,1,.15-.47c.08,0,.1,0,.13.1A2.93,2.93,0,0,0,5,6.7S5.06,6.73,5.05,6.8Z"/>
          <path class="cls-36" d="M9.66,7.76a1.56,1.56,0,0,1-.45.4A4.77,4.77,0,0,1,7,9.07a4.91,4.91,0,0,1-2.65-.34A4.55,4.55,0,0,1,3.2,8.08L3.08,8V8c.08-.12.14,0,.19,0A5,5,0,0,0,4,8.49,5.23,5.23,0,0,0,5.86,9a5,5,0,0,0,3.6-1.15s0-.07.08-.11Z"/>
          <path class="cls-49" d="M4.74,7.32a.69.69,0,0,1-.56.12,4.59,4.59,0,0,1-.72-.6.26.26,0,0,0-.16-.07,3,3,0,0,1,.09-.52c.08-.06.12,0,.17,0a3.54,3.54,0,0,0,1.05.87C4.67,7.2,4.75,7.23,4.74,7.32Z"/>
          <path class="cls-59" d="M5.17,6.15c0,.16,0,.32-.09.47a.59.59,0,0,0-.24-.2,2.73,2.73,0,0,1-.94-1c0-.07-.1-.13-.06-.22A.22.22,0,0,1,4,5.17c.05,0,.09,0,.14,0a.15.15,0,0,1,.1.09,2.2,2.2,0,0,0,.85.86Z"/>
          <path class="cls-54" d="M3.84,5.23a1.6,1.6,0,0,0,.35.57A2.81,2.81,0,0,0,5,6.46a.15.15,0,0,1,.1.16.36.36,0,0,1,0,.18l-.31-.19a2.62,2.62,0,0,1-1-1,.26.26,0,0,0-.11-.14A.45.45,0,0,1,3.84,5.23Z"/>
          <path class="cls-60" d="M5.3,7.11a3,3,0,0,0,1.34.13A3.23,3.23,0,0,0,7.49,7S7.56,7,7.6,7s0,.15,0,.21a.59.59,0,0,1-.44.26c-.47,0-1,0-1.42,0-.16-.09-.34-.09-.49-.19Z"/>
          <path class="cls-50" d="M4.74,7.32A2.63,2.63,0,0,0,4.25,7a3.54,3.54,0,0,1-.72-.67s-.07-.08-.14-.07l.06-.34c.06,0,.09,0,.12,0A3.17,3.17,0,0,0,4.83,7a.14.14,0,0,1,.1.12A.32.32,0,0,1,4.74,7.32Z"/>
          <path class="cls-61" d="M5.17,6.15a2,2,0,0,1-.92-.84.91.91,0,0,0-.07-.14,2,2,0,0,1,.42,0,.09.09,0,0,1,.08,0,1.65,1.65,0,0,0,.53.52l0,0A1.76,1.76,0,0,1,5.17,6.15Z"/>
          <path class="cls-62" d="M3.3,6.77s.05-.09.09,0a8.57,8.57,0,0,0,.79.68v0H3.82C3.36,7.44,3.19,7.21,3.3,6.77Z"/>
          <path class="cls-63" d="M7.26,6.43c-.18,0-.32.09-.49.12a2.4,2.4,0,0,1-1.19,0,.18.18,0,0,0-.16,0l0-.25a.18.18,0,0,1,.16,0,2,2,0,0,0,.55.07c.3,0,.6,0,.9,0C7.14,6.36,7.23,6.33,7.26,6.43Z"/>
          <path class="cls-64" d="M4.71,4.83a1.45,1.45,0,0,0-.18-.49.26.26,0,0,1,0-.28A.23.23,0,0,1,4.83,4c.11,0,.09.13.09.21s-.08.13,0,.19a1,1,0,0,1,.17.46Z"/>
          <path class="cls-65" d="M5.23,5.75a1.21,1.21,0,0,1-.56-.49.16.16,0,0,0-.18-.09H4a2.72,2.72,0,0,1,.9,0C5.2,5.21,5.31,5.46,5.23,5.75Z"/>
          <path class="cls-66" d="M6.16,6.37a2.08,2.08,0,0,1-.7-.1l.08-.43c.06-.1.14,0,.21,0a.12.12,0,0,1,0,0,.75.75,0,0,0,.3.42S6.16,6.32,6.16,6.37Z"/>
          <path class="cls-67" d="M4,4.53l0,0c.23,0,.23,0,.27.28L4,4.86l0,0a.24.24,0,0,0-.3-.23.1.1,0,0,1-.07,0l0,0c0-.06.1,0,.15,0a.15.15,0,0,0,.19-.14s0,0,0,0H4C4,4.37,4,4.45,4,4.53Z"/>
          <path class="cls-59" d="M3.57,4.55h.07c.3,0,.3,0,.33.31L3.66,5A2.2,2.2,0,0,1,3.57,4.55Z"/>
          <path class="cls-50" d="M5.2,7.29a.93.93,0,0,1,.46.15.58.58,0,0,0-.19.25c0-.11-.09-.15-.2-.17a.84.84,0,0,1-.2-.08Z"/>
          <path class="cls-68" d="M5.51,5.2l.36.15a.2.2,0,0,1-.07.23.3.3,0,0,0-.22.08A1.2,1.2,0,0,0,5.51,5.2Z"/>
          <path class="cls-69" d="M5.58,5.66c0-.15.11-.13.21-.09a.15.15,0,0,1,0,.09c0,.06,0,.14-.06.19s-.14-.06-.21,0Z"/>
          <path class="cls-70" d="M8.74,5.05a1.27,1.27,0,0,0-.43.83.2.2,0,0,0-.16.1,2.25,2.25,0,0,1-.41.34.57.57,0,0,1-.28-.18c0-.1.09-.13.15-.18a2.2,2.2,0,0,0,1-1.87A2.19,2.19,0,0,0,7.49,2.15,2.3,2.3,0,0,0,4,3.78c0,.07,0,.16-.08.21a.51.51,0,0,1-.3,0l0,0a1.15,1.15,0,0,0,.13-.48,2.63,2.63,0,0,1,5.16.24,2.42,2.42,0,0,1,0,1A.92.92,0,0,0,8.74,5.05Z"/>
          <path class="cls-57" d="M8.74,5.05c-.07,0-.05,0,0-.1a2.8,2.8,0,0,0,.13-1,2.51,2.51,0,0,0-.6-1.57,2.43,2.43,0,0,0-1.51-.88,2.6,2.6,0,0,0-3,2.15c0,.1,0,.24-.13.26.05.08.16,0,.2.08a.17.17,0,0,1,0,.14.4.4,0,0,1-.26.06,1.89,1.89,0,0,1,0-.75,2.64,2.64,0,0,1,.73-1.34,2.67,2.67,0,0,1,1.61-.8,2.68,2.68,0,0,1,1.58.25A2.75,2.75,0,0,1,8.83,3.05a3,3,0,0,1,.11,1.76s0,.08,0,.11S8.8,5,8.74,5.05Z"/>
          <path class="cls-71" d="M10,5.14a.41.41,0,0,1,.43.33.57.57,0,0,1,0,.26c0,.1,0,.21-.05.31s0,.12-.13.12H9.63a.09.09,0,0,1,0-.11A4.46,4.46,0,0,0,10,5.17Z"/>
          <path class="cls-58" d="M3.08,8.18c0-.09.07,0,.09,0A5.13,5.13,0,0,0,5,9.06a4.81,4.81,0,0,0,1.2.14A5.1,5.1,0,0,0,8,8.9,5.35,5.35,0,0,0,9.52,8c.1-.08.22-.14.26-.27h.1a1.27,1.27,0,0,1-.42.41,5.16,5.16,0,0,1-2.19,1,5.43,5.43,0,0,1-1.66.06A5.76,5.76,0,0,1,4,8.75,4.35,4.35,0,0,1,3.08,8.18Z"/>
          <path class="cls-49" d="M10,5.14A2.65,2.65,0,0,1,9.7,6a.3.3,0,0,0-.07.15H9.17a.08.08,0,0,1,0-.12,4.57,4.57,0,0,0,.41-.83s0,0,.05-.06A1.78,1.78,0,0,1,10,5.14Z"/>
          <path class="cls-19" d="M10,6.47a3.43,3.43,0,0,1-.46.62c-.11.12-.25.2-.31.35a2.06,2.06,0,0,1-.43,0c-.09-.05-.05-.11,0-.15a6.2,6.2,0,0,0,.8-.82Z"/>
          <path class="cls-51" d="M8.8,6.15c-.3,0-.23,0-.2-.22a2,2,0,0,1,.05-.24.68.68,0,0,1,.67-.55.08.08,0,0,1,0,.08A2.13,2.13,0,0,1,8.8,6.15Z"/>
          <path class="cls-18" d="M9.6,6.47a1.52,1.52,0,0,1-.35.45,4.86,4.86,0,0,1-.41.38c-.05,0-.09.07,0,.14a.38.38,0,0,1-.32-.24,7.81,7.81,0,0,0,.59-.56c.06-.06.11-.14.19-.17Z"/>
          <path class="cls-50" d="M8.8,6.15l.31-.48a1.51,1.51,0,0,0,.21-.53h.31A3.05,3.05,0,0,1,9.24,6s-.09.1-.07.17Z"/>
          <path class="cls-49" d="M9.26,6.47a2.72,2.72,0,0,1-.78.73.43.43,0,0,1,0-.4,1.29,1.29,0,0,1,.37-.33Z"/>
          <path class="cls-72" d="M7.75,6.31c.14-.18.34-.3.49-.47s.06,0,.07,0a1.36,1.36,0,0,1-.06.36c-.12.1-.21.23-.37.24A.17.17,0,0,1,7.75,6.31Z"/>
          <path class="cls-73" d="M8.12,7.08a1.13,1.13,0,0,1-.28.12,2,2,0,0,1,.08-.49c.08-.06.14-.15.26-.1Z"/>
          <path class="cls-74" d="M8.18,6.61c-.1,0-.15.1-.24.1a.22.22,0,0,1-.07-.25c.15,0,.23-.18.38-.22C8.2,6.36,8.23,6.5,8.18,6.61Z"/>
          <path class="cls-75" d="M8.83,6.47a1.46,1.46,0,0,1-.37.33C8.52,6.37,8.45,6.47,8.83,6.47Z"/>
          <path class="cls-76" d="M10.46,5.73V5.47A.3.3,0,0,1,10.46,5.73Z"/>
          <path class="cls-47" d="M7.87,6.46l.07.25a1.38,1.38,0,0,1-.1.49,1.09,1.09,0,0,1-1,.56c-.37,0-.75,0-1.12,0a.25.25,0,0,1-.2-.06.21.21,0,0,1,.19-.25c.47,0,.94,0,1.41,0A.6.6,0,0,0,7.6,7a.38.38,0,0,0,0-.37.32.32,0,0,0-.31-.21,6.54,6.54,0,0,0-.77,0,.91.91,0,0,1-.33,0,.7.7,0,0,1-.38-.49.54.54,0,0,1,0-.22V5.57l.08-.22L6,5.14a.79.79,0,0,1,.69-.35.37.37,0,0,1,.29,0h.31a.36.36,0,0,1,.25,0c.08,0,.17,0,.24,0h.1c.17,0,.23,0,.21.2A.26.26,0,0,1,8,5.17a2,2,0,0,1-.35,0H6.7a.52.52,0,0,0-.53.33.36.36,0,0,0,0,.36c.12.22.32.22.53.21h.57a.29.29,0,0,1,.23.07.92.92,0,0,1,.27.16Z"/>
          <path class="cls-77" d="M7,4.83H6.72a1,1,0,0,0-.69.3C6,5.07,6,5.06,5.91,5a1,1,0,0,1-.67-.93,1,1,0,1,1,1.84.57A.41.41,0,0,0,7,4.83Z"/>
          <path class="cls-78" d="M7.57,4.83H7.32a1.32,1.32,0,0,0,.13-1.19,1.23,1.23,0,0,0-1-.81A1.27,1.27,0,0,0,5,3.82C5,3.87,5,4,4.91,4a.44.44,0,0,1-.28,0,.05.05,0,0,1,0-.08c.14,0,.18-.08.22-.21a1.51,1.51,0,0,1,2.94.11A1.31,1.31,0,0,1,7.57,4.83Z"/>
          <path class="cls-79" d="M4.61,3.9s0,.07,0,.07h.27c.08.08,0,.17,0,.26a1,1,0,0,0,0,.17l-.07.15a1.12,1.12,0,0,1,0-.33c0-.08.06-.18-.07-.19s-.23,0-.25.13l0,.18-.06.19h0a5.5,5.5,0,0,1,.15-.81C4.68,3.77,4.66,3.83,4.61,3.9Z"/>
          <path class="cls-80" d="M3.75,4H3.61s-.07,0,0-.06L3.9,4c.11.09.11.17,0,.33v0c0,.18-.09.22-.25.2a.57.57,0,0,0-.13,0c-.15-.08-.1-.18,0-.29s.16,0,.24-.06S3.86,4.08,3.75,4Z"/>
          <path class="cls-66" d="M3.93,4.31c0-.11.07-.23,0-.33A2.37,2.37,0,0,1,5.75,1.8a2.3,2.3,0,0,1,2,.49A2.25,2.25,0,0,1,8.57,3.7a2.32,2.32,0,0,1-.45,1.83A2.23,2.23,0,0,1,7.57,6s-.09,0-.09.11a5.81,5.81,0,0,0-.83,0c0-.07.06-.08.1-.1a2,2,0,0,0,1.16-.83L8,5.14l.12-.09c0-.35.17-.67.15-1a1.93,1.93,0,0,0-1-1.62,1.84,1.84,0,0,0-1.69-.17A1.93,1.93,0,0,0,4.32,3.64a.78.78,0,0,1-.07.3s-.09,0-.13,0,0,.06,0,.09,0,.18-.11.25Z"/>
          <path class="cls-65" d="M4.25,3.94A2,2,0,0,1,5.1,2.43a1.85,1.85,0,0,1,1.22-.36A2,2,0,0,1,8.25,3.73a1.9,1.9,0,0,1-.11,1.08c0,.08,0,.17-.05.24,0-.19,0-.2-.18-.22a1.77,1.77,0,0,0-.16-1.75A1.76,1.76,0,0,0,6.44,2.3,1.78,1.78,0,0,0,4.49,3.76C4.46,3.92,4.39,4,4.25,3.94Z"/>
          <path class="cls-81" d="M4.61,3.9c0-.06,0-.13,0-.18A1.89,1.89,0,0,1,5,3,1.64,1.64,0,0,1,6,2.4a1.62,1.62,0,0,1,1.21.28,1.7,1.7,0,0,1,.63,2.08l0,.07H7.57a.19.19,0,0,1,0-.13A1.49,1.49,0,0,0,6.45,2.64,1.51,1.51,0,0,0,4.81,3.82C4.78,4,4.71,4,4.61,3.9Z"/>
          <path class="cls-82" d="M4,4.31c0-.09,0-.21.1-.28s0,0,0,0v0c-.1.33-.1.34.24.38,0,0,0,0,0,.06H4A.21.21,0,0,1,4,4.31Z"/>
          <path class="cls-83" d="M4.09,4.06l0,0L4.12,4h.37C4.35,4.07,4.2,4,4.09,4.06Z"/>
          <path class="cls-68" d="M5.78,5.66v.22l0,0C5.76,5.78,5.73,5.72,5.78,5.66Z"/>
          <path class="cls-84" d="M3.75,4c.08,0,.14,0,.14.09s-.08.07-.14.06Z"/>
          <path class="cls-65" d="M8,5.14a1.93,1.93,0,0,1-.67.69c-.2.13-.45.17-.65.29s-.43,0-.53-.24.08-.1.15-.1A1.81,1.81,0,0,0,7,5.63a1.43,1.43,0,0,0,.56-.41.18.18,0,0,1,.09-.08Z"/>
          <path class="cls-81" d="M7.6,5.14a1.45,1.45,0,0,1-1,.64,1.1,1.1,0,0,1-.36,0s-.12,0-.13.07a.35.35,0,0,1,0-.37,1.32,1.32,0,0,1,.28,0,1.6,1.6,0,0,0,.8-.35Z"/>
          <path class="cls-85" d="M7.2,5.14a1,1,0,0,1-.66.36.61.61,0,0,1-.42,0,.56.56,0,0,1,.52-.37A5.23,5.23,0,0,1,7.2,5.14Z"/>
          <path class="cls-86" d="M6.92,4.1a.67.67,0,0,1-1.34,0,.67.67,0,1,1,1.34,0Z"/>
          <path class="cls-87" d="M3.71,4.47c-.1,0-.2,0-.19-.1s.12-.13.22-.12.12,0,.12.06S3.82,4.5,3.71,4.47Z"/>
          <path class="cls-88" d="M6.58,4.11a.31.31,0,0,1-.34.32.33.33,0,0,1-.33-.33.35.35,0,0,1,.35-.35A.33.33,0,0,1,6.58,4.11Z"/>
        </g>
      </g>
    </g>
  </g>
</svg>
