<svg xmlns="http://www.w3.org/2000/svg" xmlns:xlink="http://www.w3.org/1999/xlink" x="0px" y="0px"
	 role="img" viewBox="0 0 38 24" width="38" height="24" aria-labelledby="pi-pse" style="enable-background:new 0 0 38 24;" xml:space="preserve">
<title id="pi-pse">PSE</title>
<style type="text/css">
	.st0{opacity:7.000000e-02;enable-background:new    ;}
	.st1{fill:#FFFFFF;}
	.st2{fill:#13385C;}
	.st3{fill:#14395F;}
	.st4{fill:#FAB617;}
	.st5{fill:#123C63;}
	.st6{fill:#18416E;}
	.st7{fill:#526E86;}
	.st8{fill:#8AA1BB;}
	.st9{fill:#8295A3;}
	.st10{fill:#4D6A88;}
	.st11{fill:#4A6985;}
	.st12{fill:#C6D1DC;}
	.st13{fill:#C3CCD3;}
	.st14{fill:#BFC8D1;}
	.st15{fill:#133F6B;}
	.st16{fill:#133D68;}
	.st17{fill:#133A61;}
	.st18{fill:#113C64;}
	.st19{fill:#1C477D;}
	.st20{fill:#1A467A;}
	.st21{fill:#174476;}
	.st22{fill:#14406D;}
	.st23{fill:#164273;}
	.st24{fill:#164271;}
	.st25{fill:#153557;}
	.st26{fill:#143454;}
	.st27{fill:#143659;}
	.st28{fill:#143251;}
	.st29{fill:#153659;}
	.st30{fill:#15304E;}
	.st31{fill:#133352;}
	.st32{fill:#142F4C;}
	.st33{fill:#14314F;}
	.st34{fill:#F9B617;}
	.st35{fill:#E5AB2C;}
	.st36{fill:#174475;}
	.st37{fill:#154272;}
	.st38{fill:#16406E;}
	.st39{fill:#103E68;}
	.st40{fill:#F9B619;}
	.st41{fill:#113D66;}
	.st42{fill:#F1B120;}
	.st43{fill:#FAB619;}
	.st44{fill:#123A61;}
	.st45{fill:#164170;}
	.st46{fill:#123D67;}
	.st47{fill:#123F6A;}
	.st48{fill:#194474;}
	.st49{fill:#1C4980;}
	.st50{fill:#1E4A83;}
	.st51{fill:#1D4C86;}
	.st52{fill:#26569E;}
	.st53{fill:#1E4C87;}
	.st54{fill:#1E4D8A;}
	.st55{fill:#245495;}
	.st56{fill:#1D487F;}
	.st57{fill:#1F4E8B;}
	.st58{fill:#16416F;}
	.st59{fill:#204F8C;}
	.st60{fill:#1D4B85;}
	.st61{fill:#215392;}
	.st62{fill:#1B477B;}
	.st63{fill:#20528F;}
	.st64{fill:#25559A;}
	.st65{fill:#225495;}
	.st66{fill:#205292;}
	.st67{fill:#235391;}
	.st68{fill:#28569B;}
	.st69{fill:#255697;}
	.st70{fill:#204F8E;}
	.st71{fill:#18467B;}
	.st72{fill:#1F4E8A;}
	.st73{fill:#1D4B84;}
	.st74{fill:#204D87;}
	.st75{fill:#204B83;}
	.st76{fill:#1C477A;}
	.st77{fill:#2658A1;}
	.st78{fill:#25559C;}
	.st79{fill:#F2F3F8;}
	.st80{fill:#EEEFF5;}
	.st81{fill:#23559A;}
	.st82{fill:#ECEDF4;}
	.st83{fill:#F4F5F8;}
	.st84{fill:#22528E;}
	.st85{fill:#26569B;}
	.st86{fill:#295BA5;}
	.st87{fill:#25538F;}
	.st88{fill:#285BA6;}
</style>
<path class="st0" d="M35,0H3C1.3,0,0,1.3,0,3v18c0,1.7,1.4,3,3,3h32c1.7,0,3-1.3,3-3V3C38,1.3,36.6,0,35,0z"/>
<path class="st1" d="M35,1c1.1,0,2,0.9,2,2v18c0,1.1-0.9,2-2,2H3c-1.1,0-2-0.9-2-2V3c0-1.1,0.9-2,2-2H35"/>
<g id="fiKfwi.tif_1_">
	<g>
		<path class="st2" d="M13.4,12.9c-0.1-0.1,0-0.3-0.1-0.4c0-0.1,0-0.1,0-0.2c0-0.1,0-0.1,0-0.2c0,0,0-0.1,0-0.1c0,0,0.1,0,0.1,0
			c0.1,0.2,0.2,0.4,0.3,0.6c0,0.1,0,0.3,0.2,0.3c0.2,0.1,0.2,0.2,0.3,0.4c0,0,0,0,0,0c0,0.1,0,0.1,0,0.2c0,0.1,0.1,0.1,0.2,0.2
			c0.3,0.4,0.7,0.8,1.1,1.1c0.8,0.6,1.7,0.9,2.7,1c1.5,0.2,2.9-0.2,4.1-1.1c0.9-0.7,1.6-1.5,2-2.5c0-0.1,0.1-0.2,0.1-0.3
			c0,0,0-0.1,0.1-0.1c0,0.1,0,0.2,0,0.3c0,0.1,0,0.1,0,0.2c0,0.1,0,0.1,0,0.2c-0.1,0.1,0,0.1-0.1,0.2c-0.1,0.1-0.2,0.3-0.2,0.4
			c-0.6,1-1.4,1.8-2.4,2.4c-0.7,0.4-1.5,0.6-2.3,0.7c-1.1,0.1-2.1,0-3.1-0.5c-0.8-0.3-1.5-0.8-2.1-1.4c-0.4-0.4-0.7-0.8-0.9-1.3
			C13.5,13,13.5,12.9,13.4,12.9z"/>
		<path class="st3" d="M24.6,11.9c-0.1,0.1-0.1,0.2-0.1,0.2c-0.3,0.8-0.7,1.4-1.3,2c-0.5,0.5-1,0.9-1.7,1.2
			c-0.6,0.3-1.2,0.5-1.8,0.5c-0.4,0.1-0.8,0.1-1.1,0c-0.7,0-1.3-0.2-1.9-0.5c-0.6-0.3-1.1-0.6-1.6-1c-0.2-0.2-0.4-0.4-0.6-0.6
			c0,0-0.1-0.1-0.1-0.1c0,0,0.1,0,0.2,0c0,0,0.1,0,0.1,0.1c0.7,0.7,1.5,1.3,2.4,1.6c0.6,0.2,1.1,0.3,1.7,0.3c0.7,0,1.4-0.1,2.1-0.3
			c0.7-0.2,1.4-0.6,1.9-1.1c0.8-0.7,1.4-1.6,1.7-2.7c0-0.1,0-0.2,0.1-0.2c0,0,0,0.1,0,0.1c0,0,0,0.1,0,0.1
			C24.6,11.7,24.6,11.8,24.6,11.9C24.6,11.9,24.6,11.9,24.6,11.9z"/>
		<path class="st4" d="M13.9,13c-0.2-0.1-0.2-0.2-0.2-0.4c0-0.1,0.1-0.2,0.2-0.2c0.1,0,0.2,0,0.3,0.1c0,0,0.1,0.1,0.1,0.1
			c0.1,0,0.2,0,0.3,0c0.2,0,0.2-0.1,0.3-0.2c0-0.1,0.1-0.1,0.1-0.2c0-0.1,0-0.1-0.1-0.1c-0.4,0-0.8,0-1.1,0c-0.1,0-0.2,0-0.3,0
			c0-0.1,0-0.1,0-0.2c0.1,0,0.1,0,0.2,0c0.3,0,0.6,0,0.8,0c-0.1-0.2-0.2-0.3-0.4-0.5c-0.1-0.1-0.2,0-0.3,0c-0.1,0-0.2,0-0.3,0
			c0-0.1,0-0.1,0-0.2c0,0,0.1,0,0.2,0c0.1,0,0.2,0,0.4,0c0.1,0,0.2,0,0.3,0.2c0.1,0.2,0.3,0.3,0.4,0.5c0,0,0.1,0.1,0.1,0.1
			c0.3,0,0.6,0,0.9,0c0.1,0,0.1,0,0.2,0c0,0.2,0,0.2-0.1,0.2c-0.2,0-0.3,0-0.5,0c-0.1,0-0.1,0.1-0.1,0.1c-0.1,0.2-0.2,0.3-0.2,0.5
			c-0.1,0.2-0.2,0.2-0.3,0.2c-0.1,0-0.2,0-0.4,0c0,0-0.1,0.1-0.1,0.1C14.1,13.1,14,13.1,13.9,13z"/>
		<path class="st5" d="M13.4,11.3c0.1,0,0.2,0,0.3,0c0.1,0.2,0.1,0.3,0.2,0.5c0,0,0,0.1,0,0.1c-0.1,0-0.2,0-0.3,0
			c-0.1,0-0.2,0-0.1-0.1c0,0,0,0,0-0.1c0-0.1,0-0.1,0-0.2C13.4,11.4,13.4,11.3,13.4,11.3z"/>
		<path class="st6" d="M13.4,12c0.5,0,1.1,0,1.7,0c-0.1,0.1-0.1,0.3-0.2,0.4c-0.1,0-0.1-0.1-0.1-0.1c-0.1-0.1-0.1-0.2-0.3-0.2
			c0,0-0.1,0-0.1,0c-0.1,0-0.2,0-0.3,0c-0.1,0-0.2,0-0.3,0C13.6,12.1,13.5,12.1,13.4,12C13.4,12,13.4,12,13.4,12
			C13.4,12,13.4,12,13.4,12z"/>
		<path class="st7" d="M13.4,11.7c0,0.2,0.1,0.2,0.3,0.2c0.1,0,0.2,0,0.2,0c0.2-0.1,0.4-0.1,0.6,0c-0.1,0-0.1,0-0.1,0
			c-0.3,0-0.6,0-1,0C13.4,11.8,13.4,11.7,13.4,11.7z"/>
		<path class="st8" d="M18.9,6.4c0.1,0,0.2,0,0.3,0c0,0,0,0,0,0C19,6.4,19,6.4,18.9,6.4C18.9,6.4,18.9,6.4,18.9,6.4z"/>
		<path class="st9" d="M19.1,17.6c-0.1,0-0.2,0-0.3,0c0,0,0,0,0,0C19,17.6,19,17.6,19.1,17.6C19.1,17.6,19.1,17.6,19.1,17.6z"/>
		<path class="st10" d="M13.4,12.1c0,0.1,0,0.1,0,0.2C13.4,12.3,13.4,12.2,13.4,12.1z"/>
		<path class="st11" d="M24.6,11.8c0-0.1,0-0.1,0-0.2C24.6,11.7,24.6,11.8,24.6,11.8z"/>
		<path class="st11" d="M24.6,12.3c0-0.1,0-0.1,0-0.2C24.6,12.2,24.6,12.3,24.6,12.3z"/>
		<path class="st12" d="M19.1,6.4C19.1,6.4,19.1,6.4,19.1,6.4c0.1,0,0.1,0,0.2,0c0,0,0,0,0,0C19.3,6.4,19.2,6.4,19.1,6.4z"/>
		<path class="st12" d="M18.9,6.4C18.9,6.4,18.9,6.4,18.9,6.4c-0.1,0.1-0.1,0.1-0.2,0c0,0,0,0,0,0C18.7,6.4,18.8,6.4,18.9,6.4z"/>
		<path class="st13" d="M19.1,17.6C19.1,17.6,19.1,17.6,19.1,17.6c0.1-0.1,0.1-0.1,0.2,0c0,0,0,0,0,0C19.3,17.6,19.2,17.6,19.1,17.6
			z"/>
		<path class="st14" d="M18.9,17.6C18.9,17.6,18.9,17.6,18.9,17.6c-0.1,0-0.1,0-0.2,0c0,0,0,0,0,0C18.8,17.6,18.8,17.6,18.9,17.6z"
			/>
		<path class="st15" d="M23.7,8.9c0.2,0.2,0.3,0.4,0.4,0.7c0.1,1-0.1,1.9-0.5,2.8c-0.5,1-1.2,1.7-2.2,2.2c-0.9,0.5-1.8,0.7-2.8,0.6
			c-0.9-0.1-1.7-0.3-2.5-0.8c-0.1,0-0.1-0.1-0.1-0.1c0-0.1,0-0.2,0.1-0.3c0.1,0,0.1,0,0.1,0.1c0.7,0.5,1.5,0.8,2.4,0.9
			c0.8,0.1,1.6-0.1,2.4-0.4c0.6-0.3,1-0.6,1.5-1.1c0.1,0,0.1-0.1,0.2-0.1c0-0.1,0.1-0.2,0.1-0.2c0.6-0.7,0.9-1.5,1-2.4
			c0-0.5,0-0.9-0.1-1.4C23.6,9,23.6,8.9,23.7,8.9z"/>
		<path class="st16" d="M16,14.2c0.6,0.4,1.2,0.7,1.9,0.8c0.5,0.1,0.9,0.1,1.4,0.1c0.7,0,1.3-0.2,1.9-0.5c0.4-0.2,0.8-0.5,1.1-0.8
			c0.5-0.4,0.9-1,1.2-1.6c0.3-0.5,0.4-1.1,0.5-1.6c0-0.3,0-0.6,0-0.9c0,0,0-0.1,0-0.1c0.1,0.2,0.2,0.5,0.3,0.7
			c0,0.3-0.1,0.6-0.1,0.9c-0.2,0.9-0.6,1.8-1.3,2.5c-0.9,1-2,1.6-3.3,1.7c-1,0.1-2,0-3-0.5c-0.2-0.1-0.5-0.2-0.7-0.4
			c-0.1,0-0.2,0-0.2-0.1C15.9,14.3,15.9,14.3,16,14.2z"/>
		<path class="st17" d="M24.6,11.4c-0.1,0.1-0.1,0.1-0.1,0.2c-0.2,0.7-0.6,1.4-1,2c-0.4,0.5-0.8,0.9-1.3,1.2c-0.6,0.4-1.3,0.7-2,0.8
			c-0.6,0.1-1.1,0.1-1.7,0.1c-0.8-0.1-1.6-0.3-2.3-0.7c-0.6-0.3-1.1-0.8-1.6-1.3c0,0,0,0,0,0c0-0.1,0.1-0.1,0.2-0.1
			c0.1,0,0.1,0.1,0.2,0.1c0.5,0.5,1,0.9,1.6,1.2c0.6,0.3,1.3,0.5,1.9,0.6c1,0.1,2-0.1,3-0.5c1-0.5,1.8-1.2,2.4-2.2
			c0.3-0.5,0.5-1.1,0.6-1.6c0-0.1,0-0.2,0.1-0.2C24.6,11.1,24.6,11.3,24.6,11.4z"/>
		<path class="st18" d="M15.8,14.4c0.2,0,0.4,0.2,0.5,0.3c0.6,0.3,1.2,0.6,1.8,0.7c1.1,0.2,2.1,0,3.1-0.5c0.5-0.2,0.9-0.5,1.3-0.9
			c0.8-0.8,1.4-1.7,1.6-2.9c0.1-0.2,0.1-0.5,0.1-0.8c0,0,0-0.1,0-0.1c0,0.1,0.1,0.3,0.1,0.4c0,0.1,0,0.2-0.1,0.3
			c-0.2,1-0.6,1.9-1.3,2.7c-0.9,1.1-2.1,1.7-3.5,1.9c-1,0.1-1.9,0-2.8-0.4c-0.6-0.2-1.2-0.6-1.6-1c-0.2-0.2-0.3-0.3-0.5-0.5
			c0-0.1-0.1-0.2-0.2-0.3c-0.1-0.1-0.2-0.2-0.2-0.3c0,0,0-0.1,0-0.1c0,0,0.1,0,0.1,0c0.1,0.1,0.1,0.2,0.2,0.3
			c0.3,0.4,0.7,0.8,1.1,1.2C15.7,14.3,15.8,14.3,15.8,14.4z"/>
		<path class="st19" d="M18.7,6.4c0.1,0,0.1,0,0.2,0c0.1,0,0.2,0,0.3,0c0.1,0,0.1,0,0.2,0c0.3,0,0.7,0.1,1,0.2c0,0,0,0,0.1,0.1
			c1.1,0.5,1.9,1.4,2.2,2.6c0.1,0.4,0.1,0.9,0.1,1.3c0,0.1,0,0.1-0.1,0.2c-0.1,0-0.1,0-0.1,0c0.2-1.1-0.1-2.1-0.8-3
			C21,7,20.2,6.6,19.3,6.5c-1-0.1-1.8,0.2-2.6,0.8c-0.7,0.6-1.2,1.4-1.3,2.4c-0.1,0.7,0.1,1.4,0.4,2c0,0.1,0.1,0.1,0.1,0.1
			c-0.4,0-0.7,0-1.1,0c0,0-0.1,0-0.1,0c0.1-0.1,0.2,0,0.3,0c0.1,0,0.2,0,0.3,0c0.1,0,0.1,0,0.2,0c0.1,0,0.1,0,0.1-0.1
			c-0.1-0.2-0.2-0.4-0.2-0.7c-0.3-1.3-0.1-2.4,0.8-3.5c0.3-0.4,0.7-0.7,1.2-0.9c0,0,0.1,0,0.1,0C17.8,6.5,18.2,6.4,18.7,6.4z"/>
		<path class="st18" d="M14.7,13.5c0.2,0.2,0.4,0.4,0.6,0.6c0.4,0.4,0.9,0.7,1.4,0.9c0.5,0.2,1,0.4,1.5,0.4c0.4,0,0.7,0.1,1.1,0
			c0.5,0,1-0.1,1.5-0.3c0.6-0.2,1.2-0.5,1.7-1c0.6-0.5,1.1-1.1,1.4-1.8c0.3-0.5,0.4-1.1,0.5-1.6c0-0.1,0-0.1,0.1-0.1
			c0,0.1,0.1,0.2,0.1,0.3c-0.1,0-0.1,0.1-0.1,0.2c-0.2,0.7-0.5,1.4-0.9,2.1c-0.5,0.7-1.1,1.3-1.9,1.7c-0.5,0.3-1.1,0.5-1.7,0.6
			c-0.5,0.1-1,0.1-1.5,0.1c-0.7-0.1-1.4-0.3-2.1-0.6c-0.4-0.2-0.8-0.5-1.2-0.8c-0.2-0.2-0.3-0.4-0.5-0.5
			C14.7,13.6,14.7,13.6,14.7,13.5z"/>
		<path class="st20" d="M22.6,10.7c0.1-0.4,0.1-0.8,0-1.1c0-0.5-0.2-0.9-0.4-1.4c-0.3-0.5-0.6-0.8-1-1.2c-0.2-0.2-0.5-0.3-0.8-0.5
			c-0.1,0-0.1,0,0-0.1c0.4,0.1,0.8,0.2,1.2,0.4c0.1,0,0.1,0.1,0.2,0.1c0,0,0,0.1,0.1,0.1c0.7,0.7,1.1,1.5,1.2,2.5c0,0.3,0,0.7,0,1
			c0,0.1,0,0.1-0.1,0.2C22.7,10.9,22.6,10.8,22.6,10.7z"/>
		<path class="st21" d="M22.8,10.8c0.1-0.4,0.1-0.7,0.1-1.1c0-0.3-0.1-0.7-0.2-1c-0.2-0.6-0.5-1.1-1-1.6c0,0-0.1-0.1-0.1-0.1
			c0.3,0.2,0.6,0.3,0.8,0.5c0.2,0.3,0.3,0.6,0.5,0.9c0.2,0.4,0.3,0.9,0.3,1.4c0,0.4,0,0.7-0.1,1.1c0,0.1,0,0.2-0.1,0.2
			c0,0-0.1,0-0.1,0C22.9,11.1,22.8,11,22.8,10.8z"/>
		<path class="st22" d="M23.7,8.9c-0.1,0.1,0,0.1,0,0.2c0,0.3,0.1,0.6,0.1,0.8c0,0.5,0,1-0.2,1.5c-0.2,0.6-0.4,1.1-0.8,1.6
			c-0.1,0.1-0.1,0.1-0.1,0.2c0-0.1-0.1-0.1-0.1-0.2c0-0.1,0.1-0.1,0.1-0.2c0.5-0.7,0.8-1.4,0.9-2.2c0.1-0.6,0-1.3-0.2-1.9
			c0-0.1-0.1-0.2,0-0.3C23.5,8.6,23.6,8.7,23.7,8.9z"/>
		<path class="st23" d="M23,11.2c0.1-0.2,0.1-0.4,0.2-0.6c0.1-0.3,0-0.7,0-1c0-0.5-0.2-1-0.4-1.4c-0.1-0.2-0.2-0.3-0.3-0.5
			c0,0,0-0.1,0-0.1C22.7,7.7,22.8,7.9,23,8c0.1,0.3,0.2,0.6,0.3,0.9c0.2,1,0.2,1.9-0.2,2.8c0,0.1-0.1,0.2-0.2,0.2
			c-0.1-0.2,0-0.3,0.1-0.5C23,11.4,22.9,11.3,23,11.2z"/>
		<path class="st24" d="M22.9,11.9c0.1-0.1,0.2-0.3,0.2-0.4c0.1-0.4,0.2-0.8,0.3-1.2c0.1-0.7-0.1-1.4-0.4-2.1c0-0.1-0.1-0.1,0-0.2
			c0.1,0.1,0.1,0.1,0.2,0.2c0.1,0.3,0.2,0.6,0.3,1c0.1,0.6,0.1,1.1,0,1.7c-0.1,0.8-0.5,1.5-1,2.1c0,0,0,0-0.1,0.1
			c-0.1,0-0.2,0-0.2,0c-0.1-0.1,0-0.1,0-0.2c0.1-0.1,0.2-0.3,0.3-0.4c0.1-0.1,0.1-0.2,0.2-0.3C22.8,12.1,22.8,12,22.9,11.9z"/>
		<path class="st24" d="M22.4,13c0-0.1,0.2-0.2,0.3-0.4c0.3-0.5,0.6-1,0.7-1.6c0.1-0.3,0.1-0.6,0.1-1c0-0.2,0-0.5-0.1-0.8
			c-0.1-0.3-0.1-0.6-0.3-1c0,0,0-0.1,0-0.1c0.1,0.1,0.1,0.1,0.2,0.2c0,0.2,0.1,0.3,0.1,0.5c0.1,0.4,0.1,0.8,0.1,1.3
			c0,0.6-0.2,1.2-0.5,1.8c-0.1,0.3-0.3,0.5-0.5,0.8c0,0.1-0.1,0.1-0.1,0.2C22.5,13,22.4,13,22.4,13z"/>
		<path class="st25" d="M24.4,13.6c-0.1,0.3-0.2,0.5-0.3,0.7c-0.1,0.1-0.3,0.3-0.4,0.4c-0.9,0.9-1.9,1.4-3.1,1.8
			c-0.7,0.2-1.4,0.2-2,0.2c-0.9,0-1.7-0.3-2.5-0.7c-0.7-0.3-1.3-0.8-1.9-1.3c-0.1-0.1-0.1-0.1-0.1-0.2c0-0.1,0.1-0.1,0.2-0.2
			c0.1,0,0.1,0,0.1,0.1c0.5,0.5,1.1,0.9,1.7,1.2c0.4,0.2,0.9,0.4,1.4,0.5c0.5,0.1,1.1,0.2,1.6,0.2c0.9,0,1.7-0.2,2.5-0.6
			c0.5-0.2,1-0.5,1.4-0.9c0.5-0.4,0.8-0.8,1.2-1.3C24.2,13.7,24.3,13.6,24.4,13.6C24.4,13.6,24.4,13.6,24.4,13.6z"/>
		<path class="st26" d="M14.1,14.6c0.4,0.5,0.9,0.8,1.4,1.1c0.4,0.3,0.9,0.5,1.3,0.6c0.4,0.1,0.9,0.3,1.4,0.3c0.3,0,0.7,0.1,1,0.1
			c0.6,0,1.2-0.1,1.7-0.3c0.8-0.2,1.6-0.6,2.2-1.2c0.3-0.2,0.6-0.5,0.9-0.8c0,0,0.1-0.1,0.1-0.1c-0.1,0.3-0.3,0.5-0.4,0.8
			c-0.1,0.1-0.2,0.2-0.4,0.3c-1,0.8-2.1,1.3-3.3,1.4c-1.4,0.2-2.8,0-4.1-0.6c-0.5-0.2-0.9-0.5-1.3-0.9c0,0-0.1,0-0.1,0
			C14.3,15.1,14.1,14.9,14.1,14.6C14,14.6,14,14.6,14.1,14.6z"/>
		<path class="st27" d="M13.4,12.9C13.5,12.9,13.5,12.9,13.4,12.9c0.4,0.6,0.8,1.2,1.3,1.6c0.4,0.3,0.7,0.6,1.2,0.9
			c0.6,0.4,1.3,0.6,2,0.7c0.5,0.1,1,0.1,1.5,0.1c0.5,0,1-0.1,1.5-0.3c0.4-0.1,0.8-0.3,1.2-0.5c0.5-0.3,0.9-0.6,1.3-1
			c0.4-0.5,0.8-1,1.1-1.5c0,0,0-0.1,0.1-0.1c0,0,0,0,0,0c0,0.1,0,0.3-0.1,0.4c-0.3,0.6-0.8,1.1-1.3,1.6c-0.6,0.6-1.3,1-2.1,1.3
			c-0.6,0.2-1.1,0.3-1.7,0.4c-1.1,0.1-2.2-0.1-3.3-0.6c-0.7-0.3-1.3-0.8-1.8-1.3c-0.1-0.1-0.1-0.1-0.2-0.2c-0.1-0.1-0.1-0.2-0.2-0.2
			c-0.1,0-0.1,0.1-0.2,0c-0.1-0.2-0.1-0.3-0.2-0.5c0-0.1,0-0.2-0.1-0.3C13.5,13.2,13.4,13.1,13.4,12.9z"/>
		<path class="st28" d="M15.3,16.3c-0.2-0.2-0.4-0.3-0.6-0.5c0.1-0.1,0.1-0.1,0.1,0c0.2,0.1,0.4,0.3,0.6,0.4
			c0.9,0.5,1.8,0.8,2.8,0.9c1.4,0.1,2.7-0.1,3.9-0.8c0.4-0.2,0.7-0.4,1-0.7c0.1-0.1,0.1-0.1,0.2,0c-0.2,0.2-0.3,0.4-0.5,0.6
			c-0.2,0.1-0.5,0.3-0.7,0.4c-0.8,0.4-1.6,0.6-2.4,0.7c-0.4,0-0.7,0.1-1.1,0c-0.9,0-1.7-0.2-2.6-0.6C15.8,16.5,15.6,16.4,15.3,16.3z
			"/>
		<path class="st29" d="M24.4,13.6c-0.1,0-0.1,0-0.1,0.1c-0.3,0.4-0.5,0.7-0.9,1c-0.4,0.4-0.9,0.7-1.3,1c-0.5,0.3-1,0.5-1.5,0.6
			c-0.4,0.1-0.8,0.2-1.2,0.2c-0.2,0-0.4,0-0.6,0c-0.6,0-1.1-0.1-1.6-0.3c-0.4-0.1-0.7-0.2-1-0.4c-0.4-0.2-0.8-0.5-1.2-0.8
			c-0.2-0.2-0.4-0.4-0.6-0.6c0,0,0-0.1-0.1-0.1c0-0.1,0-0.1,0-0.1c0.1,0,0.1,0,0.1,0.1c0.6,0.6,1.3,1.1,2.2,1.5
			c0.6,0.3,1.2,0.4,1.9,0.5c0.9,0.1,1.7,0,2.6-0.3c0.9-0.3,1.7-0.8,2.4-1.4c0.4-0.4,0.7-0.8,1-1.2c0,0,0-0.1,0.1-0.1
			c0.1,0,0.1,0,0.1,0C24.4,13.4,24.4,13.5,24.4,13.6z"/>
		<path class="st30" d="M16.6,17.1c-0.3-0.1-0.5-0.3-0.7-0.4c0,0-0.1,0-0.1-0.1c0-0.1,0-0.1,0.1,0c0,0,0.1,0,0.1,0c0,0,0,0,0.1,0
			c0,0,0.1,0,0.1,0.1c0,0,0,0,0.1,0c0,0,0.1,0,0.1,0.1c0,0,0.1,0,0.1,0c0,0,0.1,0,0.1,0.1c0.1,0,0.2,0.1,0.2,0.1
			c0.1,0,0.1,0,0.2,0.1c0,0,0.1,0,0.1,0c0.1,0,0.1,0,0.2,0.1c0,0,0,0,0,0c0.1,0,0.3,0.1,0.4,0.1c0,0,0,0,0,0c0.8,0.1,1.6,0.1,2.4,0
			c0,0,0,0,0,0c0.1,0,0.3,0,0.4-0.1c0.5-0.1,1-0.3,1.5-0.5c0.1-0.1,0.2-0.1,0.3-0.2c0,0,0.1-0.1,0.1,0c-0.3,0.2-0.5,0.4-0.9,0.6
			c0,0,0,0,0,0c-0.7,0.3-1.4,0.4-2.1,0.5C18.5,17.5,17.6,17.4,16.6,17.1C16.6,17.1,16.6,17.1,16.6,17.1z"/>
		<path class="st31" d="M23.4,15.5c-0.1,0-0.1,0-0.1,0.1c-0.8,0.6-1.7,1.1-2.7,1.3c-0.7,0.2-1.4,0.2-2.1,0.2c-1-0.1-2-0.4-2.9-0.9
			c-0.2-0.1-0.5-0.3-0.7-0.4c0,0-0.1-0.1-0.1,0c-0.1-0.1-0.2-0.2-0.3-0.3c0,0,0.1,0,0.1,0c0.5,0.4,1.1,0.8,1.7,1
			c0.5,0.2,1.1,0.4,1.6,0.4c0.4,0.1,0.8,0.1,1.1,0.1c0.9,0,1.8-0.2,2.6-0.6c0.5-0.2,1-0.5,1.4-0.8c0.1-0.1,0.3-0.2,0.4-0.3
			c0,0,0.1-0.1,0.2-0.1C23.6,15.2,23.5,15.4,23.4,15.5z"/>
		<path class="st32" d="M16.6,17.1c0.1,0,0.2,0,0.3,0.1c0.4,0.1,0.9,0.2,1.3,0.3c0.3,0,0.6,0.1,0.8,0c0.8,0,1.5-0.1,2.2-0.4
			c0.1,0,0.2-0.1,0.4-0.1c-0.4,0.3-1,0.5-1.5,0.6c-0.3,0.1-0.6,0.1-0.9,0.1c-0.1,0-0.1,0-0.2,0c-0.1,0-0.2,0-0.3,0
			c-0.1,0-0.1,0-0.2,0C18,17.6,17.3,17.4,16.6,17.1C16.6,17.1,16.6,17.1,16.6,17.1z"/>
		<path class="st27" d="M24.5,13.3C24.4,13.2,24.4,13.3,24.5,13.3c-0.2,0.1-0.3,0.3-0.4,0.4c-0.4,0.6-0.9,1.1-1.5,1.5
			c-0.7,0.5-1.4,0.8-2.2,1c-0.7,0.2-1.3,0.2-2,0.1c-0.9-0.1-1.7-0.3-2.5-0.7c-0.4-0.2-0.8-0.5-1.2-0.9c-0.2-0.2-0.3-0.3-0.5-0.5
			c0,0,0,0,0-0.1c0.1,0,0.1,0,0.1,0.1c0.6,0.6,1.2,1.1,2,1.4c0.6,0.3,1.2,0.5,1.9,0.5c0.4,0,0.7,0.1,1.1,0c0.5,0,0.9-0.1,1.4-0.2
			c0.6-0.2,1.2-0.5,1.8-0.8c0.5-0.3,0.9-0.7,1.3-1.1C24,13.9,24.2,13.6,24.5,13.3c-0.1-0.1,0-0.2,0.1-0.2
			C24.5,13.2,24.5,13.2,24.5,13.3z"/>
		<path class="st33" d="M16,16.6C16,16.6,16,16.6,16,16.6c-0.2-0.1-0.3-0.2-0.5-0.2c-0.1-0.1-0.2-0.1-0.2-0.2c0.1-0.1,0.1,0,0.1,0
			c0.4,0.2,0.9,0.4,1.3,0.6c0.4,0.1,0.9,0.2,1.4,0.3c0.3,0,0.6,0.1,0.9,0.1c0.9,0,1.8-0.2,2.7-0.5c0.4-0.2,0.7-0.3,1.1-0.5
			c0,0,0.1-0.1,0.1,0c-0.1,0.1-0.2,0.2-0.3,0.3c-0.1,0-0.1,0-0.2,0.1c-0.5,0.3-1,0.5-1.5,0.6c-0.1,0-0.2,0-0.2,0.1
			c-0.1,0-0.3,0.1-0.4,0.1c-0.8,0.1-1.6,0.1-2.4,0c-0.1,0-0.3,0-0.4-0.1c-0.1,0-0.1,0-0.2-0.1c0,0-0.1,0-0.1,0c-0.1,0-0.1,0-0.2-0.1
			c-0.1,0-0.2,0-0.2-0.1c0,0-0.1,0-0.1-0.1c0,0-0.1,0-0.1,0c0,0-0.1,0-0.1-0.1c0,0,0,0-0.1,0C16.1,16.7,16,16.7,16,16.6z"/>
		<path class="st34" d="M14.2,14.2C14.2,14.3,14.2,14.3,14.2,14.2c0,0.1,0,0.1,0,0.2c0,0.1-0.1,0.1-0.1,0.1c0,0,0,0-0.1,0
			c-0.1-0.1-0.2-0.3-0.2-0.5C14,14,14.1,14,14.2,14.2z"/>
		<path class="st33" d="M15.5,16.4c0.1,0,0.1,0,0.2,0c0.1,0,0.2,0.1,0.2,0.1c-0.1,0-0.1-0.1-0.2,0C15.7,16.5,15.6,16.5,15.5,16.4z"
			/>
		<path class="st35" d="M13.5,13.4c0.1,0,0.1,0.1,0.1,0.3C13.6,13.5,13.5,13.4,13.5,13.4z"/>
		<path class="st20" d="M17.4,6.6C17.4,6.7,17.4,6.7,17.4,6.6c-0.5,0.3-0.8,0.5-1.1,0.8c-0.5,0.5-0.9,1.2-1,1.9
			c-0.1,0.7,0,1.5,0.3,2.2c0,0,0,0,0,0.1c0,0.1,0.1,0.2,0.1,0.2c0,0-0.2,0-0.2,0c0,0,0,0-0.1,0c-0.1,0-0.1-0.1-0.1-0.2
			c-0.6-1.5-0.4-2.9,0.6-4.2c0-0.1,0.1-0.1,0.1-0.2C16.5,6.9,16.9,6.7,17.4,6.6z"/>
		<path class="st36" d="M16,7.2C16.1,7.3,16,7.3,16,7.2c-0.3,0.4-0.5,0.7-0.7,1.1c-0.2,0.4-0.3,0.7-0.3,1.2c-0.1,0.7,0,1.4,0.3,2.1
			c0,0.1,0.1,0.2,0.1,0.3c-0.1,0-0.2,0-0.4,0c-0.1-0.3-0.2-0.6-0.3-0.9c0-0.1,0-0.2-0.1-0.3c0-0.1,0-0.3,0-0.4c0-0.4,0-0.8,0.1-1.2
			c0.1-0.4,0.3-0.8,0.5-1.2C15.5,7.6,15.7,7.4,16,7.2z"/>
		<path class="st37" d="M15.3,7.8c0,0.2-0.1,0.3-0.2,0.4c-0.2,0.5-0.4,1-0.4,1.5c0,0.1,0,0.3-0.1,0.4c-0.1,0-0.2,0-0.2-0.1
			c-0.1-0.2,0-0.5,0-0.7c0-0.3,0.2-0.7,0.2-1C14.9,8.2,15,8,15.3,7.8z"/>
		<path class="st38" d="M14.7,11.7c-0.1-0.2-0.3-0.3-0.4-0.5c-0.1-0.3-0.1-0.6-0.1-0.9c0-0.2,0-0.3,0-0.5c0,0,0,0,0-0.1
			c0.1-0.2,0.1-0.3-0.1-0.4c0.1-0.2,0.2-0.4,0.4-0.6c0.1,0,0.1,0.1,0.1,0.1c-0.1,0.3-0.1,0.6-0.1,0.9c0,0.1,0,0.2,0,0.3
			c0,0,0,0.1,0,0.1c-0.1,0.2-0.1,0.3,0.1,0.4c0,0,0,0,0,0c0,0,0,0.1,0.1,0.2c0.1,0.3,0.1,0.5,0.2,0.8C14.7,11.6,14.8,11.7,14.7,11.7
			z"/>
		<path class="st15" d="M14.1,9.8c0,0,0,0.1,0,0.1c0,0.1,0,0.2,0,0.4c0,0.1,0,0.2,0,0.3c0,0.2,0.1,0.4,0.1,0.6c0,0,0,0,0,0.1
			c-0.1-0.1-0.2-0.2-0.4-0.2c-0.1,0-0.3,0-0.4,0c0,0,0,0,0,0c0.1-0.1,0.2,0,0.3,0c0.2,0,0.2,0,0.1-0.2c0-0.2-0.1-0.5-0.1-0.7
			c0-0.1,0-0.2,0-0.3C13.9,9.8,14,9.8,14.1,9.8z"/>
		<path class="st38" d="M14.3,10.1c-0.1-0.1-0.1-0.2-0.1-0.3c0-0.3,0.1-0.7,0.2-1c0,0,0-0.1,0-0.1c0.1-0.1,0.2-0.2,0.3-0.4
			c0.1,0,0,0.1,0,0.1c-0.2,0.5-0.3,1-0.2,1.6C14.4,10.2,14.4,10.2,14.3,10.1z"/>
		<path class="st39" d="M13.9,9.9c0,0.3,0,0.7,0.1,1c0,0.2,0,0.2-0.2,0.2c-0.1,0-0.1-0.1-0.1-0.1c0-0.1,0-0.3-0.1-0.4
			c0-0.1,0-0.2,0-0.3C13.7,10.1,13.7,10,13.9,9.9C13.8,9.8,13.9,9.8,13.9,9.9z"/>
		<path class="st40" d="M13.9,9.9C13.8,9.9,13.8,9.8,13.9,9.9c0-0.2,0.1-0.4,0.2-0.5c0.2,0.1,0.3,0.3,0.1,0.5
			C14,9.9,13.9,9.9,13.9,9.9z"/>
		<path class="st41" d="M13.7,10.5c0.1,0.1,0.1,0.3,0.1,0.4c0,0,0,0.1,0,0.1c-0.1,0-0.2,0-0.3,0c0-0.2,0.1-0.3,0.1-0.5
			C13.6,10.6,13.6,10.5,13.7,10.5z"/>
		<path class="st42" d="M13.7,10.5c0,0-0.1,0.1-0.1,0.1c0-0.1,0.1-0.3,0.1-0.4C13.7,10.3,13.7,10.4,13.7,10.5z"/>
		<path class="st43" d="M14.7,13.5c0,0,0,0.1,0,0.1c0,0-0.1,0.1-0.1,0.1c-0.1,0-0.1,0-0.2,0c-0.1,0-0.1-0.1-0.2-0.2
			c0-0.1,0-0.1,0-0.2c0,0,0,0,0,0c0-0.1,0.1-0.1,0.2-0.2c0,0,0.1,0,0.1,0C14.7,13.3,14.7,13.4,14.7,13.5z"/>
		<path class="st44" d="M13.4,12c0.1,0,0.2,0,0.3,0c0.1,0.1,0.1,0.2,0.2,0.4c0,0,0,0.1,0,0.1c-0.1,0-0.1,0.1-0.2,0.2
			c-0.1-0.2-0.1-0.3-0.2-0.5C13.5,12.1,13.4,12.1,13.4,12z"/>
		<path class="st44" d="M14.4,13.3c-0.1,0-0.1,0.1-0.2,0.1c-0.1-0.1-0.1-0.2-0.2-0.3c0-0.1-0.1,0-0.1-0.1c0.1,0,0.2,0,0.3-0.1
			C14.3,13,14.3,13.1,14.4,13.3z"/>
		<path class="st44" d="M14.2,13.4c0,0.1,0,0.1,0,0.2C14.2,13.5,14.2,13.5,14.2,13.4z"/>
		<path class="st19" d="M15.9,11.9c-0.2-0.1-0.2-0.3-0.3-0.4c-0.2-0.5-0.3-0.9-0.3-1.4c0-0.8,0.3-1.5,0.7-2.1
			c0.5-0.7,1.3-1.2,2.1-1.3c1-0.2,1.9,0,2.7,0.6c0.8,0.5,1.3,1.3,1.5,2.2c0,0.2,0.1,0.5,0.1,0.7c0,0.2,0,0.4-0.1,0.6
			c0,0,0,0.1-0.1,0.1c0,0-0.1,0-0.1,0c0-0.1,0-0.1,0-0.2c0-0.5,0-1.1-0.2-1.6c-0.3-0.8-0.8-1.5-1.6-1.9c-0.4-0.2-0.8-0.3-1.2-0.4
			c-0.9-0.1-1.8,0.2-2.5,0.8c-0.7,0.6-1.1,1.3-1.2,2.2c-0.1,0.8,0.1,1.6,0.6,2.3c0,0.1,0,0.2-0.1,0.3c0,0-0.1,0-0.1,0
			c-0.1-0.2-0.3-0.1-0.4-0.1c-0.1,0-0.2,0-0.3,0c0.2,0,0.3,0,0.5,0C15.9,12,15.9,12,15.9,11.9z"/>
		<path class="st45" d="M14.9,12.6c0.1-0.2,0.1-0.3,0.2-0.4c0.1,0,0.1,0,0.1,0c0.2,0.3,0.4,0.6,0.6,0.8c0,0,0,0.1,0,0.1
			c0,0.2,0,0.3-0.1,0.4c-0.1,0-0.1,0-0.2-0.1C15.4,13.2,15.1,12.9,14.9,12.6z"/>
		<path class="st15" d="M14.9,12.6c0.1,0.1,0.2,0.2,0.3,0.3c0.2,0.2,0.4,0.4,0.6,0.6c0.1,0.1,0,0.2,0,0.3c-0.1,0.1-0.1,0-0.2,0
			c-0.3-0.3-0.6-0.6-0.8-0.9c-0.1-0.1-0.1-0.2-0.3-0.1c0,0-0.1,0-0.1,0c-0.1,0-0.1,0-0.2,0c0,0,0,0-0.1,0c0.1-0.1,0.2,0,0.3,0
			C14.7,12.8,14.9,12.8,14.9,12.6z"/>
		<path class="st21" d="M15.9,13.1c-0.1-0.1-0.2-0.2-0.3-0.3c-0.1-0.2-0.3-0.4-0.4-0.5c0,0,0-0.1-0.1-0.1c0-0.1,0-0.1,0.1-0.1
			c0.1,0,0.2,0,0.4,0c0.1,0.2,0.2,0.4,0.4,0.5c0,0,0,0.1,0,0.1C16,12.8,16,12.9,15.9,13.1C16,13.1,15.9,13.1,15.9,13.1z"/>
		<path class="st37" d="M14.7,11.7C14.7,11.7,14.7,11.7,14.7,11.7c-0.1-0.4-0.1-0.8-0.2-1.1c0.1-0.1,0.2-0.1,0.2-0.1
			c0.1,0.1,0.1,0.2,0.1,0.3c0.1,0.3,0.1,0.6,0.3,0.8c0,0,0,0.1,0,0.1C14.9,11.8,14.8,11.8,14.7,11.7C14.7,11.8,14.7,11.8,14.7,11.7z
			"/>
		<path class="st39" d="M14.4,11.8c-0.2,0-0.4,0-0.6,0c0-0.2-0.1-0.4-0.1-0.5c0.2,0,0.4,0,0.5,0.2C14.3,11.6,14.4,11.7,14.4,11.8z"
			/>
		<path class="st46" d="M14,12c0.1,0,0.2,0,0.3,0c0.1,0.2,0.2,0.4,0.3,0.5c0,0,0,0.1,0,0.1c-0.1,0-0.2,0-0.3,0
			C14.1,12.5,14.1,12.3,14,12C14,12.1,14,12.1,14,12z"/>
		<path class="st47" d="M14.6,12.6c0-0.1-0.1-0.3-0.2-0.4c0-0.1-0.1-0.1-0.1-0.2c0.2,0,0.4,0,0.5,0.3c0,0,0,0.1,0.1,0.1
			c0,0,0,0.1-0.1,0.1C14.7,12.6,14.7,12.7,14.6,12.6z"/>
		<path class="st18" d="M14,12c0,0.2,0.1,0.3,0.2,0.4c0,0,0.1,0.1,0.1,0.2c0,0-0.1,0-0.1,0c-0.1-0.1-0.2-0.1-0.3-0.1
			c0-0.1-0.1-0.2-0.1-0.3c0,0,0-0.1,0-0.1C13.8,12,13.9,12,14,12z"/>
		<path class="st18" d="M14.2,12.8C14.2,12.8,14.3,12.8,14.2,12.8c0.1,0.2,0.2,0.3,0.3,0.4c0,0-0.1,0-0.1,0
			c-0.1-0.1-0.2-0.2-0.2-0.3C14.2,12.9,14.2,12.9,14.2,12.8z"/>
		<path class="st1" d="M15.9,13.1c0-0.2,0.1-0.3,0.1-0.5c0-0.2,0-0.3,0.1-0.4c0-0.1,0.1-0.2,0.1-0.3c0-0.1,0-0.2,0-0.3
			c0-0.1,0.1-0.3,0.1-0.4c0-0.1,0.1-0.1,0.1-0.2c0,0,0,0,0,0c0,0,0.1-0.1,0.1-0.1c0,0,0.1,0,0.1-0.1c0.1,0,0.2-0.1,0.3-0.1
			c0.1,0,0.2,0,0.3,0c0.1,0,0.2,0,0.3,0c0.1,0,0.2,0,0.3,0c0.2,0.1,0.3,0.2,0.4,0.3c0.1,0.1,0.1,0.3,0.1,0.4c0,0.1,0,0.1,0,0.2
			c0,0.1-0.1,0.2-0.1,0.4c0,0.1,0,0.2,0,0.2c0,0.1,0,0.2-0.1,0.3c0,0.1,0,0.1-0.1,0.2c0,0.1-0.1,0.1-0.1,0.2c0,0.1-0.1,0.1-0.1,0.1
			c-0.1,0.1-0.2,0.1-0.3,0.2c-0.1,0-0.2,0.1-0.3,0.1c-0.2,0-0.4,0-0.5,0c-0.2,0-0.3,0-0.5-0.1c-0.1-0.1-0.1,0.1-0.1,0.1
			c0,0.1,0,0.1,0,0.2c0,0,0,0,0,0c0,0,0,0.1,0,0.1c0,0.1,0,0.1-0.1,0.2c0,0.1,0,0.2-0.1,0.3c-0.1,0.2-0.1,0.2-0.2,0.2
			c0,0-0.1-0.1-0.1-0.1c0-0.1,0-0.2,0.1-0.3c0-0.1,0.1-0.2,0.1-0.4C15.9,13.4,15.9,13.3,15.9,13.1z"/>
		<path class="st1" d="M22.3,10.7c0,0,0.1,0,0.1,0c0,0,0.1,0,0.1,0c0.1,0,0.2,0.1,0.2,0.1c0.1,0.1,0.1,0.2,0.2,0.3
			c0,0.1,0,0.2,0,0.3c-0.1,0.2-0.1,0.3-0.1,0.5c0,0.1-0.1,0.2-0.2,0.2c-0.1,0.1-0.3,0-0.4,0c-0.1,0-0.2,0-0.4,0c-0.1,0-0.2,0-0.3,0
			c-0.1,0-0.2,0-0.4,0c-0.3,0-0.3,0-0.3,0.3c0,0.1,0,0.2,0,0.3c0.1,0.1,0.2,0.2,0.3,0.2c0.1,0,0.2,0,0.4,0c0.1,0,0.2,0,0.4,0
			c0.1,0,0.1,0,0.1,0c0.1,0,0.2,0,0.3,0c0,0,0.1,0,0.1,0c0.1,0,0.1,0.1,0.1,0.2c0,0.1-0.1,0.1-0.2,0.1c-0.1,0.1-0.2,0-0.3,0
			c0,0-0.1,0-0.1,0c0,0-0.1,0-0.1,0c0,0-0.1,0-0.1,0c-0.1,0-0.1,0-0.2,0c-0.2,0-0.3,0-0.5,0c-0.1,0-0.2,0-0.3-0.1
			c-0.1-0.1-0.1-0.1-0.2-0.2c-0.1-0.1-0.1-0.2-0.1-0.3c0-0.1,0-0.3,0.1-0.4c0-0.1,0-0.2,0.1-0.3c0-0.1,0-0.2,0.1-0.3
			c0-0.1,0-0.2,0.1-0.3c0.1-0.2,0.2-0.3,0.3-0.4c0.1-0.1,0.1-0.1,0.2-0.1c0,0,0.1,0,0.2-0.1c0,0,0.1,0,0.1,0c0.1,0,0.1,0,0.2,0
			c0.1,0,0.1,0,0.2,0C22.1,10.6,22.2,10.6,22.3,10.7z"/>
		<path class="st38" d="M22.2,13.3c0.1,0,0.2,0,0.3,0c0,0.1-0.1,0.1-0.2,0.2c-0.4,0.3-0.8,0.7-1.3,0.9c-0.5,0.2-1,0.4-1.6,0.4
			c-0.8,0.1-1.6,0-2.4-0.3c-0.4-0.2-0.7-0.3-1-0.6c0-0.1,0-0.1,0-0.2c0,0,0,0,0,0c0.2,0.1,0.5,0.3,0.7,0.4c0.5,0.2,1,0.4,1.5,0.5
			c0.2,0,0.4,0,0.6,0c0.4,0,0.8,0,1.2-0.1c0.6-0.2,1.2-0.4,1.7-0.8C21.9,13.5,22.1,13.4,22.2,13.3z"/>
		<path class="st46" d="M15.8,13.9c0,0.1,0,0.2-0.1,0.3c-0.2-0.1-0.3-0.2-0.4-0.3c-0.3-0.3-0.6-0.6-0.8-1c0,0-0.1-0.1,0-0.1
			c0.2,0,0.3,0,0.5,0.2C15.1,13.4,15.4,13.7,15.8,13.9C15.7,13.9,15.7,13.9,15.8,13.9z"/>
		<path class="st48" d="M23,11.5c0-0.1,0-0.2,0-0.3c0,0,0,0,0,0.1C23,11.3,23,11.4,23,11.5z"/>
		<path class="st21" d="M22.3,12.1c0.1,0,0.3,0,0.4,0c-0.1,0.3-0.3,0.5-0.4,0.7c-0.1,0.1-0.1,0.1-0.1,0.2c-0.2,0-0.3,0-0.5,0
			c0-0.1,0-0.1,0-0.1C21.9,12.7,22.1,12.4,22.3,12.1C22.3,12.1,22.3,12.1,22.3,12.1z"/>
		<path class="st33" d="M17.7,17.2c0.2,0,0.5,0.1,0.7,0.1c0.3,0,0.7,0,1,0c0.2,0,0.5,0,0.7-0.1c-0.1,0.1-0.3,0.1-0.5,0.1
			c-0.4,0.1-0.8,0-1.2,0C18.2,17.2,18,17.2,17.7,17.2z"/>
		<path class="st33" d="M17.3,17.1c0.1,0,0.3,0,0.4,0.1C17.6,17.2,17.5,17.1,17.3,17.1z"/>
		<path class="st33" d="M20.2,17.2c0.1,0,0.3-0.1,0.4-0.1C20.5,17.1,20.3,17.2,20.2,17.2z"/>
		<path class="st33" d="M17.1,17c0.1,0,0.2,0,0.2,0.1C17.2,17.1,17.2,17.1,17.1,17z"/>
		<path class="st33" d="M16.8,16.9c0.1,0,0.1,0,0.2,0.1C16.9,17,16.9,17,16.8,16.9z"/>
		<path class="st33" d="M16,16.6c0.1,0,0.1,0,0.1,0.1C16.1,16.7,16,16.7,16,16.6z"/>
		<path class="st33" d="M16.2,16.7c0.1,0,0.1,0,0.1,0.1C16.3,16.8,16.2,16.8,16.2,16.7z"/>
		<path class="st33" d="M16.4,16.8c0.1,0,0.1,0,0.1,0.1C16.5,16.9,16.5,16.8,16.4,16.8z"/>
		<path class="st43" d="M14.7,10.6c-0.1,0-0.2,0.1-0.2,0.1c-0.2-0.1-0.3-0.3-0.1-0.5c0,0,0.1,0,0.1,0c0.1,0,0.1,0,0.2,0.1
			C14.8,10.3,14.8,10.4,14.7,10.6z"/>
		<path class="st49" d="M22.3,10.7c-0.1,0-0.2,0-0.3,0c-0.1-0.1,0-0.1,0-0.2c0.1-0.9-0.1-1.6-0.6-2.3c-0.5-0.7-1.2-1.1-2-1.2
			c-1-0.1-1.9,0.1-2.6,0.8c-0.5,0.5-0.9,1.2-1,1.9c-0.1,0.6,0,1.1,0.3,1.6c0,0.1,0.1,0.2,0.1,0.2c0,0.1,0,0.2-0.1,0.3
			c-0.2-0.2-0.3-0.4-0.4-0.6c-0.1-0.3-0.2-0.5-0.2-0.8c0-0.2,0-0.4,0-0.7c0-0.3,0.1-0.6,0.2-0.9C16,8.1,16.5,7.5,17.3,7
			c0.4-0.2,0.8-0.4,1.2-0.4c0.3,0,0.5,0,0.8,0c0.6,0.1,1.1,0.2,1.6,0.6c0.5,0.3,0.9,0.8,1.2,1.3c0.2,0.4,0.3,0.8,0.4,1.2
			c0,0.1,0,0.3,0,0.4C22.4,10.3,22.4,10.5,22.3,10.7z"/>
		<path class="st20" d="M16.1,12.2c0,0.2,0,0.3-0.1,0.4c0-0.1-0.2-0.2-0.2-0.3c-0.1-0.1-0.1-0.2-0.1-0.3c0,0,0.1,0,0.1,0
			C15.8,12,15.9,12,16.1,12.2C16,12.2,16,12.2,16.1,12.2z"/>
		<path class="st50" d="M16.2,11.6c0-0.1-0.1-0.2-0.1-0.3c-0.1-0.3-0.2-0.7-0.2-1c0-0.6,0.1-1.1,0.3-1.6c0.5-0.9,1.2-1.5,2.3-1.7
			c0.2,0,0.4,0,0.5,0c0.4,0,0.7,0,1,0.2c0.5,0.2,1,0.5,1.4,1c0.4,0.4,0.6,0.9,0.7,1.5c0.1,0.4,0.1,0.7,0,1.1c0,0,0,0.1,0,0.1
			c-0.1,0-0.1,0-0.2,0c-0.1-0.1,0-0.2,0-0.3c0.1-1-0.2-1.9-1-2.6c-0.4-0.3-0.9-0.6-1.4-0.6c-1.2-0.2-2.3,0.4-2.9,1.4
			c-0.4,0.8-0.5,1.5-0.2,2.4c0,0.1,0.1,0.1,0.1,0.2C16.3,11.3,16.2,11.4,16.2,11.6z"/>
		<path class="st51" d="M16.3,11.1c-0.1-0.1-0.1-0.2-0.2-0.3c-0.2-1-0.1-1.9,0.6-2.6c0.5-0.6,1.1-1,1.9-1c0.6-0.1,1.3,0,1.8,0.4
			c0.8,0.5,1.3,1.2,1.4,2c0.1,0.3,0.1,0.7,0,1c0,0,0,0.1,0,0.1c-0.1,0-0.1,0-0.2,0c0,0,0,0,0,0c0-0.1,0-0.3,0-0.4
			c0.1-0.6-0.1-1.2-0.4-1.8c-0.4-0.6-0.9-1-1.6-1.1c-0.8-0.2-1.6,0-2.3,0.5c-0.6,0.5-0.9,1.1-1,1.9c0,0.4,0,0.7,0.1,1.1
			c0,0,0,0.1,0,0.1C16.4,11,16.3,11.1,16.3,11.1z"/>
		<path class="st36" d="M21.2,13.3c0.2,0,0.3,0,0.5,0c0,0.1,0,0.1-0.1,0.1c-0.6,0.5-1.3,0.8-2.1,0.9c-0.7,0.1-1.4,0-2-0.3
			c-0.4-0.1-0.7-0.3-1-0.6c-0.1-0.1-0.1-0.1-0.2-0.1c0-0.1,0-0.1,0-0.2c0.2,0.1,0.4,0.2,0.6,0.2c0.5,0.3,1.1,0.5,1.7,0.6
			c0.8,0.1,1.5,0,2.2-0.3C20.8,13.5,21,13.4,21.2,13.3z"/>
		<path class="st52" d="M18.3,11c-0.1-0.1-0.2-0.2-0.4-0.3c-0.1-0.1-0.1-0.3-0.2-0.4c0-0.1,0-0.2,0-0.4c0.1-0.2,0.1-0.4,0.3-0.6
			c0.3-0.4,1-0.6,1.6-0.3c0.5,0.3,0.7,1,0.4,1.6c0,0,0,0.1-0.1,0.1c-0.1,0-0.2,0-0.2,0c-0.1,0,0-0.1,0-0.1c0-0.1,0.1-0.2,0.1-0.2
			c0.1-0.3,0-0.7-0.3-0.9c-0.3-0.3-0.7-0.3-1-0.1c-0.3,0.2-0.4,0.4-0.4,0.8c0,0.3,0.2,0.6,0.5,0.8c0.1,0,0.1,0,0.2,0.1
			c0,0.1-0.1,0.2-0.2,0.2C18.5,11.1,18.4,11.1,18.3,11z"/>
		<path class="st20" d="M21.2,13.3c0,0.1-0.1,0.1-0.2,0.2c-0.5,0.3-1,0.5-1.5,0.5c-1,0.1-1.8-0.1-2.7-0.6c0,0-0.1,0-0.1-0.1
			c0.2,0,0.4,0,0.6,0c0.6,0.3,1.2,0.4,1.8,0.4c0.5,0,1.1-0.2,1.5-0.4c0.1,0,0.1-0.1,0.2,0C21,13.2,21.1,13.3,21.2,13.3z"/>
		<path class="st53" d="M21.6,10.7C21.6,10.7,21.6,10.7,21.6,10.7c0,0-0.1,0-0.1,0c-0.1,0-0.1-0.1-0.1-0.2c0-0.2,0-0.4,0-0.6
			c0-1.2-0.9-2.3-2.2-2.4c-0.9-0.1-1.6,0.1-2.2,0.8c-0.4,0.5-0.7,1-0.7,1.6c0,0.3,0,0.6,0.1,0.8c0,0,0,0.1,0,0.1c0,0,0,0.1-0.1,0.1
			c-0.1-0.2-0.1-0.3-0.2-0.5c-0.1-0.6,0-1.1,0.2-1.6C16.7,8.4,17,8,17.5,7.8c0.5-0.3,1-0.5,1.5-0.5c0.6,0,1.2,0.2,1.7,0.6
			c0.5,0.5,0.8,1,0.9,1.7c0,0.3,0,0.6,0,0.8C21.6,10.6,21.6,10.6,21.6,10.7z"/>
		<path class="st54" d="M16.5,10.9c-0.2-0.6-0.2-1.3,0.1-1.9c0.2-0.6,0.7-1,1.2-1.3c0.3-0.1,0.6-0.2,1-0.3c0.4,0,0.7,0,1.1,0.1
			c0.6,0.2,1.1,0.6,1.4,1.1c0.3,0.5,0.4,1,0.3,1.6c0,0.1,0,0.2,0,0.3c0,0.1,0,0.1,0,0.2c0,0-0.1,0-0.1,0.1c-0.1,0-0.1-0.1,0-0.1
			c0.1-0.2,0.1-0.5,0.1-0.7c0-0.6-0.2-1.1-0.6-1.5c-0.5-0.6-1.2-0.9-1.9-0.8c-0.6,0-1.1,0.2-1.5,0.6c-0.5,0.4-0.7,0.9-0.8,1.4
			c0,0.2,0,0.4,0,0.5c0,0.1-0.1,0.2,0,0.3c0,0,0,0,0,0.1c0,0.1,0.1,0.2,0.1,0.4C16.6,10.8,16.6,10.8,16.5,10.9z"/>
		<path class="st23" d="M16.1,13.3c0-0.1,0.1,0,0.1,0c0.4,0.3,0.8,0.5,1.2,0.7c0.3,0.1,0.6,0.2,1,0.2c0.7,0.1,1.3,0,1.9-0.2
			c0.4-0.2,0.8-0.4,1.2-0.6c0,0,0-0.1,0.1-0.1c0.1,0,0.1,0,0.2,0c0,0.1,0,0.1-0.1,0.2c-0.6,0.5-1.3,0.8-2,0.9
			c-1.3,0.2-2.4-0.1-3.5-0.8c-0.1,0-0.1-0.1-0.2-0.1C16.1,13.4,16.1,13.4,16.1,13.3z"/>
		<path class="st19" d="M20.9,13.2c-0.3,0.1-0.5,0.3-0.8,0.3c-0.5,0.2-1,0.2-1.6,0.2c-0.4,0-0.8-0.1-1.1-0.3c0,0-0.1,0-0.1-0.1
			c0.1,0,0.2-0.1,0.3-0.1c0,0,0.1,0,0.1,0c0.9,0.3,1.8,0.3,2.7-0.2c0.1,0,0.1-0.1,0.2-0.1C20.8,13,20.8,13.1,20.9,13.2z"/>
		<path class="st55" d="M17.6,10.7c-0.1,0-0.2,0-0.3,0c0,0,0,0,0-0.1c0-0.1-0.1-0.1-0.2-0.2c0,0-0.1,0-0.1-0.1c0,0,0.1,0,0.1,0
			c-0.2,0-0.2-0.2-0.1-0.4c0.1,0,0.1,0,0.2,0c-0.1,0-0.1,0-0.1,0c0-0.1,0.1-0.1,0.1-0.1c0.1,0,0.2,0,0.2-0.2
			c0.2-0.7,0.7-1.2,1.4-1.3c0.9-0.1,1.8,0.6,1.8,1.6c0,0.2,0,0.4-0.1,0.6c0,0,0,0.1-0.1,0.1c0,0-0.1,0-0.1,0c0-0.1,0-0.1,0-0.2
			c0.3-0.8-0.2-1.7-1-1.9c-0.8-0.2-1.6,0.3-1.8,1c0,0,0,0.1,0,0.1c-0.1,0.2-0.1,0.4-0.1,0.6c0,0,0-0.1,0-0.1
			C17.5,10.3,17.6,10.5,17.6,10.7z"/>
		<path class="st53" d="M18.1,12.7c0-0.1,0-0.1,0.1-0.2c0-0.1,0.1-0.1,0.2-0.1c0.1,0,0.3,0,0.4,0.1c0.4,0,0.8,0,1.2-0.2
			c0.1,0,0.1-0.1,0.2,0c0.1,0.1,0.1,0.2,0,0.4c-0.3,0.1-0.6,0.2-0.9,0.2c-0.4,0-0.7,0-1.1-0.1C18.2,12.8,18.1,12.8,18.1,12.7z"/>
		<path class="st56" d="M20.7,13c-0.4,0.2-0.8,0.4-1.2,0.4c-0.6,0.1-1.1,0-1.6-0.1c-0.1,0-0.2-0.1-0.3-0.1c0.1-0.1,0.2-0.1,0.3-0.2
			c0.2,0,0.3,0,0.4,0.2c0.1,0,0.1,0,0.2,0c0.3,0,0.7,0,1,0c0.3,0,0.6-0.1,0.8-0.4c0,0,0-0.1,0.1-0.1c0.1,0,0.2-0.1,0.3-0.1
			C20.6,12.8,20.7,12.9,20.7,13z"/>
		<path class="st57" d="M20.1,12.3c-0.2,0.1-0.5,0.2-0.7,0.2c-0.4,0.1-0.7,0-1.1,0c-0.1,0-0.1,0-0.2,0c0-0.1,0-0.2,0.1-0.3
			c0.1-0.1,0.1,0,0.2,0c0.4,0.1,0.7,0.1,1.1,0c0.1,0,0.2-0.1,0.4-0.1C20,12.1,20.1,12.1,20.1,12.3z"/>
		<path class="st53" d="M21.6,10.7C21.6,10.7,21.6,10.6,21.6,10.7c0-0.3,0-0.5,0-0.7c0-0.6-0.2-1.2-0.6-1.7c-0.5-0.6-1-0.9-1.7-1
			c-0.7-0.1-1.4,0.1-2,0.6c-0.6,0.4-0.9,1-1,1.7c-0.1,0.5,0,0.9,0.1,1.3c0,0,0,0,0,0c-0.1-0.2-0.1-0.3-0.2-0.5
			c-0.1-0.6,0-1.1,0.2-1.6c0.3-0.6,0.8-1.1,1.4-1.3c0.8-0.3,1.5-0.3,2.3,0.1c0.8,0.4,1.3,1,1.5,1.9C21.7,9.9,21.7,10.3,21.6,10.7z"
			/>
		<path class="st58" d="M16.1,13.7C16.1,13.7,16.1,13.7,16.1,13.7c0,0,0-0.1,0-0.1c0.1,0,0.1,0,0.2,0.1c0.7,0.5,1.5,0.8,2.3,0.9
			c1.2,0.1,2.3-0.3,3.2-1.1c0,0,0.1-0.1,0.1-0.1c0,0,0.1,0,0.1,0c0,0.1,0,0.1-0.1,0.2c-0.3,0.2-0.6,0.4-0.9,0.6
			c-0.5,0.3-1.1,0.5-1.7,0.5c-0.3,0-0.7,0-1,0c-0.4,0-0.8-0.2-1.2-0.3c-0.3-0.1-0.6-0.3-0.9-0.5C16.2,13.7,16.2,13.7,16.1,13.7z"/>
		<path class="st51" d="M17.9,12.4c0,0.1,0,0.2-0.1,0.3c-0.2-0.1-0.3-0.2-0.5-0.3c-0.3-0.2-0.5-0.4-0.7-0.7c0-0.1-0.1-0.1-0.1-0.1
			c0-0.1,0-0.3,0.1-0.4c0.1,0,0.1,0,0.1,0.1C17,11.8,17.3,12.1,17.9,12.4C17.8,12.4,17.9,12.4,17.9,12.4z"/>
		<path class="st37" d="M22,13.3c-0.1,0.2-0.3,0.3-0.4,0.4c-0.6,0.4-1.3,0.7-2,0.8c-0.8,0.1-1.6,0-2.4-0.3c-0.4-0.2-0.7-0.3-1-0.6
			c0,0-0.1,0-0.1,0c0,0,0,0,0,0c0.1-0.1,0.1,0,0.2,0c0.2,0.2,0.4,0.3,0.7,0.4c0.5,0.3,1.1,0.4,1.7,0.5c1.2,0.1,2.3-0.3,3.2-1
			c0,0,0-0.1,0.1-0.1C21.9,13.3,22,13.3,22,13.3z"/>
		<path class="st49" d="M17.6,12.9C17.5,13,17.3,13,17.1,13c-0.2-0.2-0.5-0.3-0.6-0.5c0,0-0.1-0.1-0.1-0.1c0-0.2,0-0.3,0.1-0.5
			c0.1,0,0.1,0,0.1,0c0.3,0.3,0.6,0.6,0.9,0.8C17.5,12.8,17.6,12.8,17.6,12.9z"/>
		<path class="st59" d="M18,11.8c0,0.1,0,0.3-0.1,0.4c0-0.1-0.1-0.1-0.2-0.2c-0.4-0.2-0.6-0.5-0.8-0.9c0-0.1-0.1-0.1-0.1-0.2
			c0,0,0.1-0.1,0.2-0.1c0,0,0.1,0,0.1,0c0,0,0.1,0,0.1,0.1C17.4,11.4,17.6,11.6,18,11.8C18,11.8,18,11.8,18,11.8z"/>
		<path class="st54" d="M16.8,11c0.1,0.2,0.2,0.4,0.3,0.5c0.2,0.2,0.4,0.4,0.7,0.6c0.1,0,0.1,0.1,0.1,0.1c0,0.1,0,0.1,0,0.2
			c-0.1-0.1-0.2-0.1-0.3-0.2c-0.4-0.2-0.7-0.5-0.9-0.9c0,0-0.1-0.1-0.1-0.1C16.6,11.1,16.7,11.1,16.8,11z"/>
		<path class="st60" d="M18.1,12.7c0.4,0.1,0.8,0.2,1.2,0.1c0.3,0,0.5-0.1,0.8-0.2c0,0,0.1,0,0.1,0c0,0.1,0,0.1,0,0.2
			C20,12.9,19.9,13,19.7,13c-0.4,0-0.8,0-1.3,0C18.3,13,18.1,13,18,12.9C18,12.8,18.1,12.8,18.1,12.7z"/>
		<path class="st50" d="M17.6,12.9c-0.1-0.1-0.3-0.2-0.4-0.3c-0.2-0.2-0.4-0.4-0.6-0.6c0,0-0.1-0.1-0.1-0.1c0-0.1,0-0.2,0.1-0.3
			c0.1,0,0.1,0,0.1,0c0.3,0.4,0.7,0.7,1.1,1c0,0,0.1,0,0.1,0.1C17.7,12.8,17.7,12.9,17.6,12.9z"/>
		<path class="st61" d="M18,11.8c-0.4-0.2-0.6-0.4-0.8-0.8c0,0,0-0.1-0.1-0.1c0.1,0,0.3,0,0.4,0c0,0,0.1,0,0.1,0
			c0.1,0.2,0.3,0.3,0.5,0.5c0,0,0,0,0,0C18,11.6,18,11.7,18,11.8z"/>
		<path class="st62" d="M16.3,12.4C16.3,12.4,16.4,12.3,16.3,12.4c0.3,0.2,0.6,0.4,0.8,0.6c0,0,0,0,0,0c-0.1,0-0.2,0-0.3,0
			C16.4,13,16.2,12.8,16.3,12.4z"/>
		<path class="st63" d="M19.9,12.1c-0.2,0-0.3,0.1-0.4,0.1c-0.4,0.1-0.7,0.1-1.1,0c-0.1,0-0.1,0-0.1,0c0-0.1,0-0.1,0-0.2
			c0,0,0.1,0,0.1,0c0.2,0,0.3,0.1,0.5,0.1c0.3,0,0.5,0,0.8,0C19.7,12,19.8,12,19.9,12.1z"/>
		<path class="st64" d="M17.6,10.7c0-0.2-0.1-0.3-0.2-0.4c0-0.1,0-0.2,0-0.2c0.1-0.1,0.2-0.1,0.2,0c0.1,0,0.1,0.1,0.1,0.2
			c0,0.1-0.1,0.1,0,0.2c0.1,0.1,0.2,0.3,0.2,0.4C17.8,10.7,17.7,10.7,17.6,10.7z"/>
		<path class="st65" d="M18,11.5c-0.2-0.1-0.4-0.3-0.5-0.4c0-0.1-0.1-0.1-0.2-0.1c-0.1,0-0.2,0-0.3,0c0,0-0.1,0-0.1,0
			c0.3,0,0.5,0,0.8,0C18,11,18.1,11.2,18,11.5z"/>
		<path class="st66" d="M18.9,12c-0.2,0-0.4,0-0.6-0.1c0-0.1,0-0.3,0.1-0.4c0.1-0.1,0.1,0,0.2,0c0,0,0,0,0,0
			C18.6,11.8,18.7,11.9,18.9,12C18.8,12,18.9,12,18.9,12z"/>
		<path class="st67" d="M17,10.4C17,10.4,17,10.4,17,10.4c0.2,0.1,0.2,0.1,0.3,0.3c-0.1,0-0.2,0-0.3,0c0,0,0,0,0,0
			c0-0.2-0.1-0.2-0.3-0.2c0,0,0,0-0.1,0c0,0,0,0,0,0c0,0,0.1,0,0.1,0c0.1,0,0.2,0,0.2-0.1c0,0,0,0,0,0c0,0,0,0,0,0
			C17,10.3,16.9,10.3,17,10.4z"/>
		<path class="st59" d="M16.6,10.4C16.6,10.4,16.6,10.4,16.6,10.4c0.3,0,0.3,0,0.4,0.3c-0.1,0-0.2,0.1-0.3,0.1
			C16.6,10.7,16.6,10.6,16.6,10.4z"/>
		<path class="st50" d="M18,12.9c0.1,0,0.3,0,0.4,0.1c-0.1,0.1-0.1,0.1-0.2,0.2c0-0.1-0.1-0.1-0.2-0.2c-0.1,0-0.1,0-0.2-0.1
			C17.9,13,18,12.9,18,12.9z"/>
		<path class="st68" d="M18.3,11c0.1,0,0.2,0.1,0.3,0.1c0,0.1,0,0.1-0.1,0.2c-0.1,0-0.1,0-0.2,0.1C18.3,11.3,18.3,11.1,18.3,11z"/>
		<path class="st69" d="M18.3,11.4c0-0.1,0.1-0.1,0.2-0.1c0,0,0,0.1,0,0.1c0,0.1,0,0.1-0.1,0.2c-0.1,0-0.1-0.1-0.2,0
			C18.3,11.5,18.3,11.5,18.3,11.4z"/>
		<path class="st70" d="M21.2,10.9c-0.2,0.2-0.3,0.5-0.4,0.7c-0.1,0-0.1,0-0.1,0.1c-0.1,0.1-0.2,0.2-0.4,0.3c-0.1,0-0.2-0.1-0.3-0.2
			c0-0.1,0.1-0.1,0.1-0.2c0.6-0.4,0.9-1,0.9-1.7c0-0.7-0.3-1.3-1-1.7c-1.3-0.8-2.9,0-3.1,1.5c0,0.1,0,0.1-0.1,0.2
			c-0.1,0-0.2,0-0.3,0c0,0,0,0,0,0c0.1-0.1,0.1-0.3,0.1-0.4c0.2-0.9,1-1.6,1.9-1.8c1.3-0.2,2.5,0.6,2.7,2c0,0.3,0,0.6,0,0.9
			C21.2,10.7,21.2,10.8,21.2,10.9z"/>
		<path class="st57" d="M21.2,10.9C21.1,10.9,21.1,10.8,21.2,10.9c0.1-0.4,0.1-0.6,0.1-0.9c0-0.5-0.2-1-0.5-1.4
			c-0.4-0.4-0.8-0.7-1.4-0.8c-0.7-0.1-1.3,0-1.9,0.5c-0.5,0.4-0.7,0.9-0.8,1.4c0,0.1,0,0.2-0.1,0.2c0,0.1,0.1,0,0.2,0.1
			c0,0,0,0.1,0,0.1c-0.1,0-0.1,0.1-0.2,0.1c0-0.2,0-0.5,0-0.7c0.1-0.5,0.3-0.9,0.6-1.2c0.4-0.4,0.9-0.6,1.4-0.7c0.5-0.1,1,0,1.4,0.2
			c0.6,0.3,1,0.7,1.2,1.3c0.2,0.5,0.2,1,0.1,1.6c0,0,0,0.1,0,0.1C21.3,10.8,21.2,10.8,21.2,10.9z"/>
		<path class="st71" d="M22.3,10.9c0.2,0,0.3,0.1,0.4,0.3c0,0.1,0,0.2,0,0.2c0,0.1,0,0.2,0,0.3c0,0.1,0,0.1-0.1,0.1
			c-0.2,0-0.4,0-0.6,0c0,0,0-0.1,0-0.1C22.1,11.5,22.2,11.2,22.3,10.9C22.3,11,22.3,11,22.3,10.9z"/>
		<path class="st58" d="M16.1,13.7C16.1,13.6,16.2,13.6,16.1,13.7c0.6,0.4,1.1,0.6,1.7,0.8c0.3,0.1,0.7,0.1,1.1,0.1
			c0.6,0,1.1-0.1,1.6-0.3c0.5-0.2,0.9-0.4,1.3-0.8c0.1-0.1,0.2-0.1,0.2-0.2c0,0,0.1,0,0.1,0c-0.1,0.2-0.2,0.3-0.4,0.4
			c-0.6,0.4-1.2,0.8-2,0.9c-0.5,0.1-1,0.1-1.5,0.1c-0.5-0.1-1-0.2-1.5-0.4C16.6,14,16.4,13.9,16.1,13.7z"/>
		<path class="st49" d="M22.3,10.9c0,0.3-0.2,0.5-0.3,0.8c0,0-0.1,0.1-0.1,0.1c-0.1,0-0.3,0-0.4,0c0,0,0-0.1,0-0.1
			c0.2-0.2,0.3-0.5,0.4-0.7c0,0,0,0,0-0.1C22.1,10.9,22.2,10.9,22.3,10.9z"/>
		<path class="st20" d="M22.3,12.1c-0.1,0.2-0.3,0.4-0.4,0.6c-0.1,0.1-0.2,0.2-0.3,0.3c-0.1,0-0.3,0-0.4,0c-0.1,0,0-0.1,0-0.1
			c0.3-0.2,0.5-0.5,0.7-0.7C22.1,12.1,22.2,12.1,22.3,12.1z"/>
		<path class="st51" d="M21.2,11.8c-0.3,0-0.2,0-0.2-0.2c0-0.1,0-0.1,0-0.2c0.1-0.3,0.3-0.5,0.6-0.5c0,0,0,0,0,0.1
			C21.6,11.3,21.5,11.6,21.2,11.8z"/>
		<path class="st19" d="M21.9,12.1c-0.1,0.2-0.2,0.3-0.3,0.4c-0.1,0.1-0.2,0.2-0.4,0.3c0,0-0.1,0.1,0,0.1c-0.1,0-0.2-0.1-0.3-0.2
			c0.2-0.2,0.4-0.3,0.5-0.5c0.1-0.1,0.1-0.1,0.2-0.2C21.7,12.1,21.8,12.1,21.9,12.1z"/>
		<path class="st50" d="M21.2,11.8c0.1-0.1,0.2-0.3,0.3-0.4c0.1-0.1,0.2-0.3,0.2-0.5c0.1,0,0.2,0,0.3,0c-0.1,0.3-0.2,0.5-0.3,0.7
			c0,0-0.1,0.1-0.1,0.2C21.4,11.8,21.3,11.8,21.2,11.8z"/>
		<path class="st49" d="M21.6,12.1c-0.2,0.3-0.4,0.5-0.7,0.7c-0.1-0.1-0.1-0.2,0-0.4c0.1-0.1,0.2-0.2,0.3-0.3
			C21.4,12.1,21.5,12.1,21.6,12.1z"/>
		<path class="st72" d="M20.3,12c0.1-0.2,0.3-0.3,0.4-0.4c0,0,0.1,0,0.1,0c0,0.1,0,0.2-0.1,0.3c-0.1,0.1-0.2,0.2-0.3,0.2
			C20.3,12.1,20.3,12.1,20.3,12z"/>
		<path class="st73" d="M20.6,12.7c-0.1,0-0.2,0.1-0.2,0.1c0-0.2,0.1-0.3,0.1-0.4c0.1-0.1,0.1-0.1,0.2-0.1
			C20.7,12.4,20.6,12.5,20.6,12.7z"/>
		<path class="st74" d="M20.7,12.3c-0.1,0-0.1,0.1-0.2,0.1c-0.1-0.1-0.1-0.1-0.1-0.2c0.1,0,0.2-0.2,0.3-0.2
			C20.7,12,20.7,12.2,20.7,12.3z"/>
		<path class="st75" d="M21.3,12.1c-0.1,0.1-0.2,0.2-0.3,0.3C21,12,20.9,12.1,21.3,12.1z"/>
		<path class="st76" d="M22.7,11.5c0-0.1,0-0.2,0-0.2C22.7,11.3,22.7,11.4,22.7,11.5z"/>
		<path class="st1" d="M20.4,12.1c0,0.1,0,0.1,0.1,0.2c0,0.2,0,0.3-0.1,0.4c-0.2,0.4-0.5,0.5-0.9,0.5c-0.3,0-0.7,0-1,0
			c-0.1,0-0.1,0-0.2-0.1c0-0.1,0-0.2,0.2-0.2c0.4,0,0.8,0,1.3,0c0.2,0,0.4-0.2,0.5-0.4c0.1-0.1,0-0.2,0-0.3c0-0.1-0.1-0.2-0.3-0.2
			c-0.2,0-0.5,0-0.7,0c-0.1,0-0.2,0-0.3,0c-0.2-0.1-0.3-0.2-0.3-0.4c0-0.1,0-0.1,0-0.2c0,0,0-0.1,0-0.1c0-0.1,0.1-0.1,0.1-0.2
			c0-0.1,0.1-0.1,0.1-0.2c0.1-0.2,0.4-0.3,0.6-0.3c0.1,0,0.2,0,0.3,0c0.1,0,0.2,0,0.3,0c0.1,0,0.1,0,0.2,0c0.1,0,0.2,0,0.2,0
			c0,0,0.1,0,0.1,0c0.2,0,0.2,0,0.2,0.2c0,0.1-0.1,0.1-0.1,0.1c-0.1,0-0.2,0-0.3,0c-0.1,0-0.2,0-0.3,0c-0.2,0-0.3,0-0.5,0
			c-0.2,0-0.4,0.1-0.5,0.3c-0.1,0.1-0.1,0.2,0,0.3c0.1,0.2,0.3,0.2,0.5,0.2c0.2,0,0.3,0,0.5,0c0.1,0,0.1,0,0.2,0.1
			c0.1,0,0.2,0.1,0.2,0.1C20.3,12,20.4,12.1,20.4,12.1z"/>
		<path class="st77" d="M19.6,10.7c-0.1,0-0.2,0-0.3,0c-0.2,0-0.4,0.1-0.6,0.3c0-0.1-0.1-0.1-0.1-0.1c-0.4-0.1-0.6-0.4-0.6-0.8
			c0-0.6,0.6-1,1.1-0.9c0.6,0.2,0.9,0.8,0.5,1.4C19.7,10.6,19.6,10.6,19.6,10.7z"/>
		<path class="st78" d="M20.1,10.7c-0.1,0-0.1,0-0.2,0c0.2-0.3,0.3-0.7,0.1-1.1c-0.2-0.4-0.5-0.7-0.9-0.7c-0.6-0.1-1.2,0.3-1.3,0.9
			c0,0,0,0.1-0.1,0.1c-0.1,0-0.2,0-0.3,0c0,0-0.1,0,0-0.1c0.1,0,0.2-0.1,0.2-0.2c0.2-0.6,0.7-1,1.3-1c0.6,0,1.2,0.5,1.3,1.1
			C20.3,10.1,20.3,10.4,20.1,10.7z"/>
		<path class="st79" d="M17.5,9.8C17.5,9.9,17.5,9.9,17.5,9.8c0.1,0.1,0.2,0.1,0.3,0.1c0.1,0.1,0,0.2,0,0.2c0,0,0,0.1,0,0.1
			c0,0,0,0.1-0.1,0.1c0-0.1,0-0.2,0-0.3c0-0.1,0-0.2-0.1-0.2c-0.1,0-0.2,0-0.2,0.1c0,0.1,0,0.1,0,0.2c0,0.1,0,0.1-0.1,0.2
			c0,0,0,0,0,0c0-0.2,0.1-0.5,0.1-0.7C17.5,9.7,17.5,9.8,17.5,9.8z"/>
		<path class="st80" d="M16.7,10c0,0-0.1,0-0.1,0c0,0-0.1,0,0-0.1c0.1,0,0.2,0,0.3,0c0.1,0.1,0.1,0.2,0,0.3c0,0,0,0,0,0
			c0,0.2-0.1,0.2-0.2,0.2c0,0-0.1,0-0.1,0c-0.1-0.1-0.1-0.2,0-0.3c0.1-0.1,0.1,0,0.2-0.1C16.8,10,16.8,10,16.7,10z"/>
		<path class="st66" d="M16.9,10.2c0-0.1,0.1-0.2,0-0.3c0.1-1,0.7-1.7,1.7-1.9c0.7-0.1,1.3,0,1.8,0.4c0.4,0.3,0.6,0.8,0.7,1.3
			c0.1,0.6,0,1.1-0.4,1.6c-0.1,0.2-0.3,0.3-0.5,0.5c0,0-0.1,0-0.1,0.1c-0.2,0-0.5,0-0.7,0c0-0.1,0.1-0.1,0.1-0.1
			c0.4-0.1,0.8-0.4,1-0.7c0,0,0,0,0,0c0,0,0.1-0.1,0.1-0.1c0-0.3,0.2-0.6,0.1-0.9c0-0.6-0.3-1.1-0.9-1.4c-0.5-0.3-1-0.3-1.5-0.2
			c-0.6,0.2-1,0.6-1.1,1.3c0,0.1,0,0.2-0.1,0.3c0,0-0.1,0-0.1,0c0,0,0,0.1,0,0.1C16.9,10,17,10.1,16.9,10.2
			C16.9,10.2,16.9,10.2,16.9,10.2z"/>
		<path class="st65" d="M17.2,9.9c0-0.6,0.3-1,0.8-1.3c0.3-0.2,0.7-0.3,1.1-0.3c0.9,0,1.6,0.6,1.7,1.5c0.1,0.3,0,0.7-0.1,1
			c0,0.1,0,0.1,0,0.2c0-0.2,0-0.2-0.2-0.2c0.2-0.5,0.2-1.1-0.1-1.6c-0.3-0.4-0.7-0.6-1.2-0.7c-0.9-0.1-1.6,0.5-1.7,1.3
			C17.4,9.9,17.3,9.9,17.2,9.9z"/>
		<path class="st81" d="M17.5,9.8c0-0.1,0-0.1,0-0.2c0.1-0.2,0.2-0.5,0.3-0.7c0.2-0.3,0.6-0.5,0.9-0.5c0.4-0.1,0.8,0,1.1,0.2
			c0.6,0.4,0.8,1.2,0.6,1.9c0,0,0,0,0,0.1c-0.1,0-0.1,0-0.2,0c0,0,0-0.1,0-0.1c0.4-0.9-0.2-1.7-1-1.8c-0.7-0.1-1.3,0.4-1.5,1.1
			C17.6,9.9,17.6,9.9,17.5,9.8z"/>
		<path class="st82" d="M16.9,10.2c0-0.1,0-0.2,0.1-0.2c0,0,0,0,0,0c0,0,0,0,0,0c-0.1,0.3-0.1,0.3,0.2,0.3c0,0,0,0,0,0.1
			c-0.1,0-0.2,0-0.3,0C16.9,10.3,16.9,10.3,16.9,10.2z"/>
		<path class="st83" d="M17,10C17,10,17,10,17,10C17,9.9,17,9.9,17,10c0.1-0.1,0.2-0.1,0.4-0.1C17.3,10,17.1,9.9,17,10z"/>
		<path class="st68" d="M18.5,11.4c0,0.1,0,0.1,0,0.2c0,0,0,0,0,0C18.5,11.5,18.5,11.5,18.5,11.4z"/>
		<path class="st84" d="M16.7,10c0.1,0,0.1,0,0.1,0.1c0,0.1-0.1,0.1-0.1,0.1C16.7,10,16.7,10,16.7,10z"/>
		<path class="st65" d="M20.5,10.9c-0.1,0.3-0.4,0.5-0.6,0.6c-0.2,0.1-0.4,0.2-0.6,0.3c-0.2,0-0.4,0-0.5-0.2c0-0.1,0.1-0.1,0.1-0.1
			c0.2,0,0.4,0,0.6-0.1c0.2-0.1,0.4-0.2,0.5-0.4c0,0,0.1-0.1,0.1-0.1C20.3,10.9,20.4,10.9,20.5,10.9z"/>
		<path class="st81" d="M20.2,10.9c-0.2,0.3-0.5,0.5-0.9,0.6c-0.1,0-0.2,0-0.3,0c0,0-0.1,0-0.1,0.1c-0.1-0.1-0.1-0.2,0-0.3
			c0.1,0,0.2,0,0.2,0c0.3,0,0.5-0.2,0.7-0.3C19.9,10.9,20,10.9,20.2,10.9z"/>
		<path class="st85" d="M19.8,10.9c-0.1,0.2-0.4,0.3-0.6,0.3c-0.1,0-0.2,0.1-0.4,0c0.1-0.2,0.2-0.3,0.5-0.3
			C19.5,10.9,19.6,10.9,19.8,10.9z"/>
		<path class="st86" d="M19.5,10c0,0.3-0.3,0.6-0.6,0.6c-0.3,0-0.6-0.3-0.6-0.6c0-0.4,0.3-0.6,0.6-0.6C19.3,9.4,19.6,9.7,19.5,10z"
			/>
		<path class="st87" d="M16.7,10.3c-0.1,0-0.2,0-0.2-0.1c0-0.1,0.1-0.1,0.2-0.1c0,0,0.1,0,0.1,0.1C16.8,10.3,16.8,10.4,16.7,10.3z"
			/>
		<path class="st88" d="M19.2,10c0,0.2-0.1,0.3-0.3,0.3c-0.2,0-0.3-0.1-0.3-0.3c0-0.2,0.1-0.3,0.3-0.3C19.1,9.7,19.2,9.8,19.2,10z"
			/>
	</g>
</g>
</svg>
