<svg xmlns="http://www.w3.org/2000/svg" width="38" height="24" viewBox="0 0 38 24"><path opacity="0.07" d="M35,0H3C1.3,0,0,1.3,0,3v18c0,1.7,1.4,3,3,3h32c1.7,0,3-1.3,3-3V3
  C38,1.3,36.6,0,35,0z"/><path fill="#FFFFFF" d="M35,1c1.1,0,2,0.9,2,2v18c0,1.1-0.9,2-2,2H3c-1.1,0-2-0.9-2-2V3c0-1.1,0.9-2,2-2H35"/>
<path fill="#E32728" d="M26.993,6.535L22.383,2h-6.691l-4.684,4.61v4.758l0.744,0.669
	l-0.744,0.669v4.758L15.617,22h6.84l4.535-4.461v-4.907l-0.669-0.595l0.669-0.595V6.535L26.993,6.535z M19.037,20.587l-5.502-5.502
	l0.595-0.595l1.487,1.413h6.84l1.487-1.487l0.669,0.669L19.037,20.587L19.037,20.587z M16.584,12.037l2.453-2.454l2.528,2.454
	l-2.528,2.453L16.584,12.037L16.584,12.037z M23.944,9.584l-1.561-1.487h-6.691L14.13,9.658l-0.595-0.669l5.502-5.502l5.576,5.502
	L23.944,9.584L23.944,9.584z"/>
</svg>
