<svg xmlns="http://www.w3.org/2000/svg" width="38" height="24" fill="none" aria-labelledby="pi-publicbank_pbe" role="img" viewBox="0 0 38 24"><title id="pi-publicbank_pbe">Public Bank PBe</title><path fill="#fff" d="M0 0h38v24H0z"/><path fill="#E42126" fill-rule="evenodd" d="M25.79 7.63 22.1 4h-5.35L13 7.69v3.8l.6.54-.6.53v3.81L16.69 20h5.47l3.63-3.57v-3.92l-.54-.48.54-.48zm-6.37 11.24-4.4-4.4.48-.48 1.19 1.13h5.47l1.19-1.19.53.54zm-1.96-6.84 1.96-1.96 2.03 1.96-2.03 1.96zm5.89-1.96-1.25-1.2h-5.35l-1.25 1.26-.48-.54 4.4-4.4 4.46 4.4z" clip-rule="evenodd"/></svg>