<svg xmlns="http://www.w3.org/2000/svg" width="38" height="24" viewBox="0 0 38 24" role="img" aria-labelledby="pi-qcard"><title id="pi-qcard">Q Card</title><defs><mask id="pi-qcard-mask" x="4.56" y=".07" width="31.03" height="22.44" maskUnits="userSpaceOnUse"><g><g><path d="M31.56,3.38H6.27c-.56,0-1.01.45-1.01,1.01v15.2c0,.56.45,1.01,1.01,1.01h25.29c.56,0,1.01-.45,1.01-1.01V4.39c0-.56-.45-1.01-1.01-1.01Z" fill="#fff"/></g></g></mask></defs><path d="M35,0H3C1.3,0,0,1.3,0,3v18c0,1.7,1.4,3,3,3h32c1.7,0,3-1.3,3-3V3c0-1.7-1.4-3-3-3Z" fill="#fff" isolation="isolate" opacity=".07"/><path d="M35,1c1.1,0,2,.9,2,2v18c0,1.1-.9,2-2,2H3c-1.1,0-2-.9-2-2V3c0-1.1.9-2,2-2h32" fill="#fff"/><g mask="url(#pi-qcard-mask)"><path d="M33.16,3.09H4.66v17.9h28.5V3.09Z" fill="#dcddde" stroke="#f18700" stroke-miterlimit="10" stroke-width=".2"/><path d="M28.44,10.92c0,2.86-2.24,4.49-4.34,4.49s-4.34-1.63-4.34-4.49,2.2-4.47,4.34-4.47,4.34,1.61,4.34,4.47ZM30.96,17.47c-.45.18-.83.22-1.23.22-.58,0-1.29-.11-2.15-.52-.73-.34-1.11-.52-1.43-.6v-.04c2.2-.65,4.07-2.77,4.07-5.61,0-3.71-3.04-5.99-6.12-5.99s-6.12,2.28-6.12,5.99c0,3.51,2.66,5.72,5.52,5.97.63.29,1.7.8,2.82,1.38,1.03.56,1.87.8,3.04.8.17,0,.34-.02.49-.06,0,0,1.11-1.54,1.11-1.54Z" fill="#231f20"/><path d="M27.16,11.03c0,.49-.36.75-.84.75h-.26v-1.49h.26c.48,0,.84.26.84.75M27.35,11.03c0-.58-.46-.91-1.01-.91h-.47v1.82h.47c.55,0,1.01-.33,1.01-.91ZM25.22,10.62c0,.21-.17.33-.36.33h-.31v-.65h.29c.2,0,.37.12.37.33M25.7,11.94l-.64-.86c.2-.06.36-.23.36-.47,0-.31-.26-.5-.53-.5h-.52v1.82h.19v-.83h.32l.61.83h.22-.01ZM23.62,11.28h-.64l.22-.56c.04-.09.07-.18.1-.28.03.1.06.19.09.28l.22.56h.01ZM24.09,11.94l-.75-1.86h-.06l-.75,1.86h.19l.21-.51h.77l.21.51h.19-.01ZM22.37,10.22c-.12-.07-.3-.12-.54-.12-.48,0-.96.35-.96.94s.47.94.96.94c.23,0,.37-.04.49-.09l.04-.19c-.13.08-.3.12-.51.12-.42,0-.79-.29-.79-.78s.38-.78.79-.78c.19,0,.37.06.48.12l.04-.17h0Z" fill="#231f20"/><path d="M13.57,18.37h0c-.14-.07-.25-.1-.35-.12h0c.69-.08,1.24-.67,1.24-1.45,0-.9-.72-1.5-1.52-1.5s-1.52.6-1.52,1.5c0,.85.63,1.43,1.38,1.5.14.06.34.15.56.27.33.18.55.25.86.25.09,0,.16-.02.21-.03l.21-.29c-.11.05-.23.07-.36.07-.21,0-.41-.06-.71-.21M11.73,16.81h0c0-.75.57-1.23,1.21-1.23s1.21.44,1.21,1.23-.58,1.23-1.21,1.23-1.21-.49-1.21-1.23" fill="#d8bc0f" stroke="#d8bc0f" stroke-miterlimit="10" stroke-width=".2"/><path d="M8.45,16.1h0c-.22-.11-.41-.17-.56-.2h0c1.1-.12,1.98-1.08,1.98-2.31,0-1.43-1.15-2.39-2.43-2.39s-2.43.96-2.43,2.39c0,1.35,1,2.28,2.19,2.39.22.09.54.25.9.44.53.28.88.4,1.37.4.14,0,.26-.03.34-.05l.33-.46c-.18.08-.36.12-.58.12-.33,0-.65-.09-1.13-.33M5.52,13.6h0c0-1.19.92-1.97,1.93-1.97s1.93.71,1.93,1.97c0,1.19-.92,1.97-1.93,1.97s-1.93-.78-1.93-1.97" fill="#3b9238" stroke="#3b9238" stroke-miterlimit="10" stroke-width=".2"/><path d="M7.93,20.35h0c-.16-.08-.3-.12-.42-.15h0c.82-.09,1.47-.8,1.47-1.72,0-1.06-.85-1.77-1.8-1.77s-1.8.71-1.8,1.77c0,1,.74,1.69,1.63,1.77.16.07.4.18.67.32.39.21.65.3,1.02.3.1,0,.19-.02.25-.04l.24-.34c-.13.06-.27.09-.43.09-.25,0-.49-.07-.84-.24M5.75,18.5h0c0-.88.68-1.46,1.43-1.46s1.43.52,1.43,1.46c0,.88-.69,1.46-1.43,1.46s-1.43-.58-1.43-1.46" fill="#2e9bc5" stroke="#2e9bc5" stroke-miterlimit="10" stroke-width=".2"/><path d="M12.16,9.84h0c-.34-.17-.64-.26-.88-.31v-.02c1.73-.17,3.1-1.66,3.1-3.59,0-2.24-1.8-3.74-3.8-3.74s-3.8,1.5-3.8,3.74c0,2.11,1.57,3.57,3.43,3.74.34.15.84.39,1.41.68.83.44,1.38.63,2.15.63.22,0,.41-.05.53-.08l.51-.72c-.28.12-.57.18-.91.18-.52,0-1.02-.15-1.76-.51M7.57,5.94h0c0-1.86,1.43-3.08,3.02-3.08s3.02,1.1,3.02,3.08c0,1.86-1.44,3.08-3.02,3.08s-3.02-1.22-3.02-3.08" fill="#d8bc0f" stroke="#d8bc0f" stroke-miterlimit="10" stroke-width=".2"/><path d="M8.46,10.35h0c-.21-.1-.39-.16-.54-.19h0c1.06-.12,1.9-1.03,1.9-2.22,0-1.37-1.1-2.29-2.33-2.29s-2.33.92-2.33,2.29.96,2.19,2.1,2.29c.21.09.52.24.86.42.51.27.84.38,1.32.38.13,0,.25-.03.33-.05l.31-.44c-.17.08-.35.11-.56.11-.32,0-.63-.09-1.08-.31M5.65,7.96h0c0-1.14.88-1.89,1.85-1.89s1.85.68,1.85,1.89c0,1.14-.88,1.89-1.85,1.89s-1.85-.75-1.85-1.89" fill="#cd007a" stroke="#cd007a" stroke-miterlimit="10" stroke-width=".2"/><path d="M32.06,16.64h0c-.12-.06-.23-.09-.31-.11h0c.62-.07,1.11-.6,1.11-1.3,0-.8-.64-1.34-1.36-1.34s-1.36.54-1.36,1.34.56,1.28,1.23,1.34c.12.05.3.14.51.24.3.16.49.22.77.22.08,0,.15-.02.19-.03l.18-.26c-.1.04-.2.07-.33.07-.19,0-.37-.05-.63-.18M30.41,15.25h0c0-.67.51-1.11,1.08-1.11s1.08.4,1.08,1.11c0,.67-.52,1.11-1.08,1.11s-1.08-.44-1.08-1.11" fill="#683c89" stroke="#683c89" stroke-miterlimit="10" stroke-width=".2"/><path d="M19.93,21.63h0c-.24-.12-.44-.18-.61-.21v-.02c1.21-.12,2.17-1.16,2.17-2.51,0-1.56-1.26-2.61-2.65-2.61s-2.65,1.05-2.65,2.61,1.1,2.49,2.4,2.61c.24.1.59.27.99.48.58.31.96.44,1.5.44.15,0,.29-.03.37-.06l.36-.5c-.2.09-.4.13-.64.13-.37,0-.71-.1-1.23-.36M16.72,18.9h0c0-1.3,1-2.15,2.11-2.15s2.11.77,2.11,2.15c0,1.3-1.01,2.15-2.11,2.15s-2.11-.85-2.11-2.15" fill="#3b9238" stroke="#3b9238" stroke-miterlimit="10" stroke-width=".2"/><path d="M22.4,19.81h0c-.11-.06-.21-.09-.29-.1h0c.57-.06,1.02-.55,1.02-1.19,0-.74-.59-1.23-1.25-1.23s-1.25.49-1.25,1.23c0,.7.52,1.18,1.13,1.23.11.05.28.13.46.22.27.15.45.21.71.21.07,0,.13-.02.18-.03l.17-.24c-.09.04-.19.06-.3.06-.17,0-.34-.05-.58-.17M20.88,18.52h0c0-.61.47-1.02,1-1.02s1,.36,1,1.02c0,.61-.48,1.02-1,1.02s-1-.4-1-1.02" fill="#c81920" stroke="#c81920" stroke-miterlimit="10" stroke-width=".2"/><path d="M31.51,7.11h0c-.16-.08-.31-.13-.42-.15h0c.84-.09,1.5-.81,1.5-1.75,0-1.08-.87-1.81-1.84-1.81s-1.84.73-1.84,1.81c0,1.02.76,1.73,1.66,1.81.17.07.41.19.68.33.4.21.67.3,1.04.3.1,0,.2-.02.26-.04l.25-.35c-.14.06-.27.09-.44.09-.25,0-.49-.07-.85-.25M29.29,5.22h0c0-.9.69-1.49,1.46-1.49s1.46.53,1.46,1.49c0,.9-.7,1.49-1.46,1.49s-1.46-.59-1.46-1.49" fill="#005ca0" stroke="#005ca0" stroke-miterlimit="10" stroke-width=".2"/><path d="M33.79,12.37h0c-.19-.1-.36-.15-.5-.17h0c.98-.11,1.77-.96,1.77-2.06,0-1.27-1.02-2.13-2.16-2.13s-2.16.85-2.16,2.13c0,1.2.89,2.03,1.95,2.13.19.08.48.22.8.39.47.25.78.36,1.22.36.12,0,.23-.03.3-.05l.29-.41c-.16.07-.32.1-.52.1-.3,0-.58-.08-1-.29M31.17,10.16h0c0-1.06.81-1.75,1.72-1.75s1.72.63,1.72,1.75c0,1.06-.82,1.75-1.72,1.75s-1.72-.69-1.72-1.75" fill="#cd007a" stroke="#cd007a" stroke-miterlimit="10" stroke-width=".2"/><path d="M24.22,3.94h0c-.17-.08-.31-.13-.43-.15h0c.85-.1,1.53-.83,1.53-1.78,0-1.1-.89-1.84-1.87-1.84s-1.87.74-1.87,1.84c0,1.04.77,1.76,1.69,1.84.17.07.41.19.69.34.41.22.68.31,1.06.31.11,0,.2-.02.26-.04l.25-.35c-.14.06-.28.09-.45.09-.26,0-.5-.07-.87-.25M21.96,2.02h0c0-.92.71-1.52,1.49-1.52s1.49.54,1.49,1.52c0,.92-.71,1.52-1.49,1.52s-1.49-.6-1.49-1.52" fill="#d5741a" stroke="#d5741a" stroke-miterlimit="10" stroke-width=".2"/><path d="M20.49,4.09h0c-.16-.08-.3-.12-.41-.14h0c.81-.09,1.46-.79,1.46-1.7,0-1.06-.84-1.76-1.79-1.76s-1.79.71-1.79,1.76.74,1.68,1.61,1.76c.16.07.4.18.66.32.39.21.65.3,1.01.3.1,0,.19-.02.25-.04l.24-.33c-.14.06-.27.08-.43.08-.24,0-.48-.07-.83-.24M18.33,2.26h0c0-.87.68-1.45,1.42-1.45s1.42.52,1.42,1.45c0,.87-.68,1.45-1.42,1.45s-1.42-.57-1.42-1.45" fill="#3b9238" stroke="#3b9238" stroke-miterlimit="10" stroke-width=".2"/><path d="M17.51,5.97h0c-.14-.07-.27-.11-.37-.13h0c.73-.08,1.32-.71,1.32-1.53,0-.95-.76-1.59-1.61-1.59s-1.61.64-1.61,1.59c0,.9.66,1.51,1.46,1.59.14.06.36.16.6.29.35.19.58.27.91.27.09,0,.17-.02.23-.03l.22-.3c-.12.05-.24.08-.39.08-.22,0-.43-.06-.75-.22M15.56,4.31h0c0-.79.61-1.31,1.28-1.31s1.28.47,1.28,1.31c0,.79-.61,1.31-1.28,1.31s-1.28-.52-1.28-1.31" fill="#005ca0" stroke="#005ca0" stroke-miterlimit="10" stroke-width=".2"/><path d="M15.19,7.52h0c-.21-.1-.39-.16-.53-.19h0c1.05-.12,1.89-1.03,1.89-2.21,0-1.37-1.1-2.28-2.32-2.28s-2.32.92-2.32,2.28c0,1.29.96,2.18,2.09,2.28.21.09.51.24.86.42.51.27.84.38,1.31.38.13,0,.25-.03.33-.05l.31-.44c-.17.08-.35.11-.55.11-.32,0-.62-.09-1.08-.31M12.39,5.14h0c0-1.14.87-1.88,1.84-1.88s1.84.67,1.84,1.88c0,1.14-.88,1.88-1.84,1.88s-1.84-.74-1.84-1.88" fill="#c81920" stroke="#c81920" stroke-miterlimit="10" stroke-width=".2"/><path d="M28.33,4.92h0c-.1-.05-.19-.08-.26-.09h0c.51-.06.92-.5.92-1.07,0-.67-.53-1.11-1.13-1.11s-1.13.45-1.13,1.11.47,1.06,1.02,1.11c.1.04.25.11.42.2.25.13.41.19.64.19.06,0,.12,0,.16-.02l.15-.21c-.08.04-.17.05-.27.05-.16,0-.3-.04-.52-.15M26.97,3.76h0c0-.55.43-.92.9-.92s.9.33.9.92c0,.55-.43.92-.9.92s-.9-.36-.9-.92" fill="#3b9238" stroke="#3b9238" stroke-miterlimit="10" stroke-width=".2"/><path d="M16.83,13.85h0c-.13-.07-.24-.1-.34-.12h0c.66-.07,1.19-.65,1.19-1.39,0-.86-.69-1.44-1.46-1.44s-1.46.58-1.46,1.44c0,.81.6,1.37,1.32,1.44.13.06.32.15.54.26.32.17.53.24.83.24.08,0,.16-.02.21-.03l.2-.28c-.11.05-.22.07-.35.07-.2,0-.39-.06-.68-.2M15.07,12.35h0c0-.72.55-1.18,1.16-1.18s1.16.42,1.16,1.18c0,.72-.55,1.18-1.16,1.18s-1.16-.47-1.16-1.18" fill="#2e9bc5" stroke="#2e9bc5" stroke-miterlimit="10" stroke-width=".2"/><path d="M13.14,14.32h0c-.18-.09-.33-.14-.45-.16h0c.9-.1,1.61-.87,1.61-1.88,0-1.16-.93-1.94-1.97-1.94s-1.97.78-1.97,1.94c0,1.1.82,1.86,1.78,1.94.18.08.44.2.73.35.43.23.72.33,1.12.33.11,0,.21-.02.28-.04l.27-.37c-.15.06-.3.09-.47.09-.27,0-.53-.08-.92-.27M10.75,12.3h0c0-.97.74-1.6,1.57-1.6s1.57.57,1.57,1.6c0,.97-.75,1.6-1.57,1.6s-1.57-.63-1.57-1.6" fill="#d5741a" stroke="#d5741a" stroke-miterlimit="10" stroke-width=".2"/><path d="M15.18,20.59h0c-.15-.08-.28-.12-.39-.14h0c.77-.09,1.38-.75,1.38-1.61,0-1-.8-1.66-1.69-1.66s-1.69.67-1.69,1.66.7,1.59,1.53,1.66c.15.07.37.17.63.3.37.2.61.28.96.28.1,0,.18-.02.24-.04l.23-.32c-.13.06-.25.08-.4.08-.23,0-.45-.07-.78-.23M13.14,18.86h0c0-.83.64-1.37,1.34-1.37s1.34.49,1.34,1.37c0,.83-.64,1.37-1.34,1.37s-1.34-.54-1.34-1.37" fill="#683c89" stroke="#683c89" stroke-miterlimit="10" stroke-width=".2"/></g></svg>