<?xml version="1.0" encoding="UTF-8"?>
<svg id="pi-qMastercardQCard" xmlns="http://www.w3.org/2000/svg" width="38" height="24" viewBox="0 0 38 24" role="img" aria-labelledby="pi-qMastercardQCard-title"><title id="pi-qMastercardQCard-title">Q Mastercard + Q Card</title><defs>
  <mask id="pi-mask-1" x="12.48" y="6" width="23.57" height="14.83" maskUnits="userSpaceOnUse">
    <g>
      <path d="M35.57,6.26H12.98v14.25h22.59V6.26Z" fill="#fff"/>
    </g>
  </mask>
  <mask id="pi-mask-2" x="12.48" y="6" width="23.57" height="14.83" maskUnits="userSpaceOnUse">
    <g>
      <path d="M34.73,6.26H13.82c-.46,0-.84.37-.84.84v12.58c0,.46.37.84.84.84h20.91c.46,0,.84-.37.84-.84V7.1c0-.46-.37-.84-.84-.84Z" fill="#fff"/>
    </g>
  </mask>
</defs><path d="M35,0H3C1.3,0,0,1.3,0,3v18c0,1.7,1.4,3,3,3h32c1.7,0,3-1.3,3-3V3c0-1.7-1.4-3-3-3Z" fill="#fff" opacity=".07"/><path d="M35,1c1.1,0,2,.9,2,2v18c0,1.1-.9,2-2,2H3c-1.1,0-2-.9-2-2V3c0-1.1.9-2,2-2h32" fill="#fff"/><g mask="url(#pi-mask-1)"><g mask="url(#pi-mask-2)"><path d="M36.05,6.02H12.49v14.81h23.57V6.02Z" fill="#dcddde"/><path d="M12.49,9.58v-.81c.12-.04.25-.07.37-.08-.04.14-.05.3-.05.46,0,.11,0,.22.02.33-.12.03-.24.07-.35.12M14.4,9.68c-.31-.17-.67-.26-1-.27-.01-.08-.02-.17-.02-.27,0-.18.03-.34.08-.49.19,0,.37.03.56.07.07.36.21.68.39.96M15.84,9.99c-.37-.18-.68-.49-.88-.9.36.21.67.49.91.84-.01.02-.02.04-.04.05ZM16.38,11.26c-.15-.01-.34-.06-.55-.16-.2-.1-.32-.15-.42-.18,0-.01,0-.02-.01-.03.13-.04.26-.1.37-.17.17.06.35.1.53.13.04.13.06.27.08.4M16.3,12.41c-.24-.18-.52-.31-.81-.4.02-.12.03-.24.03-.37v-.14c.29.15.54.21.88.21h.01c0,.25-.04.48-.1.71M12.49,14.03v-.33s.03.01.05.02c-.02.1-.04.21-.05.31ZM12.49,14.51h0v-.06s0,.04,0,.07M15.76,15.69c-.48-.02-.86-.15-1.31-.39-.47-.24-.93-.46-1.25-.61-.04-.14-.05-.29-.05-.45,0-.13.01-.26.04-.37h.15c.78,0,1.62-.46,1.98-1.29.27.08.53.24.74.45-.37.69-.99,1.19-1.69,1.4v.02c.16.04.35.12.71.3.43.21.78.26,1.07.26.07,0,.14,0,.2,0-.14.3-.34.53-.59.69Z" fill="#afb1b4"/><path d="M21.96,7.55c-.02-.44-.19-.81-.43-1.1.08-.14.14-.29.2-.45h1.05s.02.05.03.08c-.16.57-.46,1.06-.84,1.46ZM21.41,7.68c-.25-.05-.49-.17-.68-.35.17-.12.33-.26.48-.42.12.21.21.46.21.76h0ZM18.36,8.59c-1.13-.27-2.13-1.05-2.56-2.23.29-.15.62-.24.94-.24h.1c.25.66.74,1.13,1.3,1.4v.14c0,.35.08.66.23.92ZM19.61,9s-.04-.02-.07-.02c-.04-.02-.08-.04-.12-.06.07-.24.1-.49.1-.76,0-.13,0-.26-.02-.39.23-.02.46-.08.69-.16.27.27.61.46.98.56-.01,0-.02.01-.03.02h-.08c-.58,0-1.15.3-1.45.81M20.11,9.07c.19-.26.47-.41.76-.46.04.02.08.04.13.06-.24.24-.57.38-.89.4ZM22.72,9.95v-.11c0-.25-.05-.48-.14-.68h.06c.24,0,.47-.02.74-.13l-.66.92M22.23,9.98c-.07,0-.14,0-.21-.01l.17-.24c-.14.06-.26.07-.39.07-.18,0-.4-.04-.68-.17-.23-.11-.34-.17-.45-.19h0c.3-.1.59-.28.81-.53.18.08.34.13.5.17.15.2.24.45.24.75,0,.05,0,.1,0,.14" fill="#cacbcd"/><path d="M21.67,13.27s-.09,0-.13,0c-.19-.31-.47-.55-.78-.69v-.03c0-.26-.05-.48-.14-.68.68.17,1.3.6,1.64,1.25-.18.11-.39.17-.59.17M18.32,13.6c-.21-.15-.39-.37-.48-.65.46-.74,1.31-1.16,2.16-1.16h.01s.02.02.02.04c-.01.08-.02.16-.02.24,0,.12.01.24.04.34h-.05c-.71,0-1.43.42-1.69,1.19M22.47,13.68c-.11-.05-.18-.08-.25-.1h0c.07-.03.14-.06.2-.09.02.06.04.12.05.18ZM18.83,15.63c-.34-.2-.73-.33-1.12-.36-.14-.3-.22-.65-.22-1.03,0-.25.04-.49.1-.71.17.23.39.42.64.53,0,.05,0,.11,0,.17,0,.61.25,1.09.61,1.4M22.08,15.66c-.11-.23-.27-.42-.48-.56.12-.24.2-.53.2-.87,0-.16-.02-.31-.05-.46.15.07.33.16.52.26.09.05.18.09.26.12v.08c0,.55-.17,1.04-.45,1.43M19.27,15.95s-.08-.07-.12-.11c.04.02.09.05.13.07,0,.01,0,.02-.01.04ZM20.82,17.18c-.39-.2-.75-.37-.99-.48-.05-.09-.1-.19-.15-.28,0-.05,0-.09,0-.14,0-.09,0-.17.02-.25.11.02.21.03.32.03.5,0,1.02-.23,1.37-.64.18.14.31.34.37.59-.26.24-.57.41-.9.51v.02c.14.03.29.1.59.24.07.03.12.06.18.08-.06.1-.14.19-.23.27h-.14c-.15,0-.3.02-.45.06M22.39,17.52c-.15-.12-.33-.23-.52-.3.07-.08.12-.16.17-.25.1.02.2.02.29.02.17,0,.32-.01.5-.09l-.45.61" fill="#afb1b4"/><path d="M35.15,6.57c-.2-.19-.45-.33-.71-.4,0-.05.01-.11.01-.16h.78c0,.2-.03.38-.07.56M31.42,7.54c-.38,0-.78-.29-.78-.81,0-.11.02-.21.05-.3.11.48.39.86.73,1.1M31.81,7.76h-.02.02ZM32.35,7.95c-.09-.01-.18-.04-.3-.09-.05-.02-.1-.05-.13-.06.14.05.29.08.43.1v.05M32.68,8.74c-.15-.07-.29-.14-.4-.18-1.23-.11-2.38-1.05-2.42-2.54h.74c-.17.18-.27.43-.27.72,0,.63.48,1.03.99,1.07.11.05.3.14.5.25.18.1.33.14.55.14h.03c.06.21.15.39.28.54M33.99,8.94c-.53,0-1.09-.38-1.16-1.06.65-.1,1.29-.55,1.53-1.3.25.08.48.24.62.48-.31.67-.89,1.14-1.53,1.33v.02c.14.03.31.11.62.26.15.07.29.12.42.15-.15.07-.33.11-.49.11ZM35.07,9.47s-.09-.04-.14-.06c-.2-.1-.3-.14-.39-.16h0c.22-.08.43-.2.6-.36.13,0,.26-.03.41-.09l-.48.67" fill="#cacbcd"/><path d="M16.04,17.32c-.08-.07-.17-.14-.26-.2.11.06.23.11.33.14-.02.02-.05.03-.08.05M15.61,17.79c0-.07,0-.13.01-.19.02.02.05.04.07.07-.03.04-.05.08-.08.12M17.66,19.71c.34-.24.59-.65.59-1.19,0-.75-.48-1.24-1.02-1.4l.26-.36c-.17.07-.32.08-.48.08-.21,0-.48-.04-.8-.18.2-.07.41-.1.62-.1,1,0,1.99.74,1.99,1.95,0,.27-.05.51-.14.74-.29.26-.66.42-1.03.46ZM15.35,19.85c-.31-.33-.5-.78-.5-1.32,0-.11,0-.23.02-.33.08.61.36,1.1.75,1.47-.08.07-.18.13-.27.18" fill="#cacbcd"/><path d="M18.16,20.82h-.78c-.3-.15-.57-.28-.74-.36-.31-.03-.62-.13-.9-.3.1-.06.19-.12.28-.2.36.22.76.36,1.18.39.23.1.58.27.96.46" fill="#cacbcd"/><path d="M35.24,16.76c-.65-.09-1.25-.54-1.43-1.26.12-.16.28-.27.46-.33.04.74.62,1.16,1.2,1.18-.04.17-.12.3-.23.41" fill="#cacbcd"/><path d="M33.77,15.06c0-.42.15-.77.37-1.04.02.25.09.48.18.68-.01.04-.02.08-.03.12-.19.04-.37.12-.52.23ZM36.05,17.13c-.17-.08-.33-.16-.46-.23.14-.17.23-.37.27-.61.07-.02.13-.05.19-.08v.91" fill="#cacbcd"/><path d="M34.77,14.06c-.01-.08-.02-.17-.02-.27,0-.08,0-.17.02-.24.23-.1.48-.15.73-.15.15,0,.3.02.45.06.04.02.07.04.11.05v.46c-.18-.09-.37-.14-.56-.14-.26,0-.51.08-.72.24" fill="#cacbcd"/><path d="M20.99,20.05c-.29-.07-.55-.23-.72-.49.3-.6.8-1.05,1.38-1.32.11.02.23.04.36.04.04,0,.08,0,.12-.01l.14-.19c.11.16.2.36.22.59-.01.03-.02.07-.02.09-.63.16-1.2.61-1.47,1.29Z" fill="#cacbcd"/><path d="M22.79,18.01s-.02-.05-.04-.07h.1s-.04.05-.05.07M20.84,20.82h-.61l.15-.21c-.15.07-.29.08-.43.09.02-.23.05-.45.11-.65.23.21.5.35.8.41-.02.11-.04.24-.04.36" fill="#cacbcd"/><path d="M25.47,20.82h-.32c-.05-1.29-1.02-2.05-1.99-2.13.1-.29.27-.52.48-.69,1.13.24,2.14,1.1,2.36,2.39-.14.18-.33.33-.52.43" fill="#cacbcd"/><path d="M30.28,20.82h-.43c.12-.15.21-.36.21-.62,0-.56-.41-.9-.83-.96v-.03c0-.11-.02-.21-.05-.3.64.03,1.25.52,1.25,1.29,0,.23-.06.44-.15.62Z" fill="#afb1b4"/><path d="M28.22,19.93c-.12,0-.25-.05-.36-.12.15-.48.57-.8,1.03-.87.04.08.05.18.05.29v.04c-.33.06-.63.29-.72.67ZM28.39,20.82h-.44c-.1-.18-.15-.39-.15-.62,0,0,.05,0,.08-.01l.05-.07c.08.02.15.04.23.05,0,0,.01,0,.02.01v.03c0,.26.08.46.21.62" fill="#afb1b4"/><path d="M22.58,9.16c-.17,0-.37-.02-.58-.08-.1-.14-.23-.24-.37-.33.08-.11.15-.24.21-.38.02,0,.04.02.05.02.3.17.55.42.7.75M22.5,10.67c-.14-.08-.29-.14-.44-.17.09-.15.15-.32.17-.52h.19c.1,0,.21-.01.29-.04-.02.27-.1.51-.22.72M20.22,11.28c-.48-.26-.84-.77-.84-1.44,0-.14.01-.26.04-.38.14.05.29.07.43.09.01,0,.02.01.04.02-.02.09-.02.18-.02.27,0,.53.27.9.62,1.09-.11.1-.2.22-.27.35M22.49,12.07c-.32,0-.55-.07-.83-.22-.3-.16-.6-.3-.77-.38-.08,0-.15-.02-.23-.04.09-.15.21-.28.34-.37h.05c.23,0,.46-.07.66-.2.18,0,.36.06.52.15-.18.17-.39.3-.62.37h0c.09.03.19.08.39.18.24.11.43.14.59.14.07,0,.12,0,.19-.02.01.04.02.08.03.12l-.18.26s-.09.02-.13.02" fill="#6d6e70"/><path d="M22.42,9.98h-.19s0-.1,0-.14c0-.31-.1-.56-.24-.75.21.05.41.07.58.08.09.2.14.43.14.68v.11c-.09.02-.2.04-.29.04" fill="#66686a"/><path d="M20.87,8.62c-.16-.07-.28-.11-.39-.14v-.02c.23-.07.44-.15.65-.27.06,0,.12,0,.18.02-.06.15-.14.29-.24.4h-.02c-.06,0-.12,0-.18.01" fill="#6d6e70"/><path d="M20.05,9.07c-.15,0-.3-.02-.44-.07.3-.52.87-.81,1.45-.81h.08c-.21.11-.42.2-.65.27v.02c.11.02.23.07.39.14-.29.05-.57.2-.76.46h-.07" fill="#66686a"/><path d="M21.49,8.91s-.1-.04-.15-.07c-.13-.06-.24-.11-.34-.16.02-.02.05-.05.07-.07.19,0,.38.05.55.15-.04.05-.08.11-.12.15M21.7,10.22c-.37,0-.63-.07-.95-.25-.33-.17-.64-.32-.84-.42.02-.12.07-.24.12-.34.18.09.38.19.58.29.5.27.91.42,1.43.46l-.17.24s-.1.02-.15.02" fill="#b61d23"/><path d="M22.02,9.96c-.51-.05-.93-.19-1.43-.46-.2-.1-.39-.2-.58-.29.02-.05.06-.1.09-.14.32-.02.65-.15.89-.4.1.05.21.1.34.16.05.02.1.05.15.07-.22.25-.5.43-.81.52h0c.1.04.22.09.45.2.27.13.49.17.68.17.12,0,.24-.01.39-.07l-.17.24h0Z" fill="#a8191e"/><path d="M19.08,6.66c-.1-.14-.2-.28-.32-.4.11-.1.24-.18.37-.25h.47v.13c0,.07,0,.13,0,.2-.2.07-.37.17-.52.32M21.2,6.91c-.22-.36-.59-.58-.97-.63v-.27h.73c.21.11.41.26.57.45-.1.17-.2.31-.32.45M21.8,7.71c.05-.05.11-.11.16-.16v.14c-.05,0-.11.01-.17.02M18.67,7.71c-.18-.04-.36-.11-.53-.19.02-.24.07-.45.16-.65.18.23.31.51.37.83M21.7,8.31c-.12-.05-.26-.09-.39-.11.07.01.14.02.22.03.05.02.11.05.17.08ZM18.58,8.91c-.09-.1-.17-.21-.23-.32.1.02.2.04.3.06-.02.09-.05.18-.08.26ZM19.43,9.45c-.07-.02-.12-.04-.19-.07.07-.14.13-.3.18-.46.04.02.08.04.12.05.02.01.04.02.06.03-.08.14-.14.29-.17.45" fill="#b61d23"/><path d="M21.74,7.71c-.11,0-.22-.01-.33-.04h0c0-.3-.08-.56-.21-.77.12-.14.23-.29.32-.45.25.29.41.66.43,1.1-.05.05-.11.11-.16.16h-.06M18.66,8.65c-.1-.02-.2-.04-.3-.06-.14-.26-.23-.57-.23-.92v-.14c.17.08.35.14.53.19.03.14.04.29.04.45,0,.17-.02.34-.05.49M19.6,9.01s-.04-.02-.06-.03c.02,0,.04.02.07.02" fill="#a8191e"/><path d="M19.9,9.56s-.02-.01-.04-.02c-.15-.01-.29-.04-.43-.09.04-.16.1-.31.17-.45.13.07.27.13.42.21-.05.1-.1.22-.12.34Z" fill="#5a0000"/><path d="M20.02,9.21c-.15-.07-.29-.14-.42-.21.14.05.29.07.44.07h.07s-.06.09-.09.14" fill="#500"/><path d="M21.62,8.75c-.17-.1-.36-.14-.55-.15.1-.11.18-.25.24-.4.14.02.27.06.39.11.04.02.08.04.12.06-.05.14-.12.26-.21.38" fill="#5a0000"/><path d="M35.18,12.67c-.18-.07-.35-.18-.49-.33.36-.37.86-.61,1.37-.66v.54c-.33.05-.64.2-.87.45ZM35.45,15.75c-.33-.13-.64-.34-.87-.63.36,0,.73.23.87.63Z" fill="#6d6e70"/><path d="M34.14,14.02c0-.08-.01-.15-.01-.23,0-.39.1-.74.26-1.03.15.14.33.24.52.32-.07.14-.11.29-.13.46-.24.11-.46.27-.63.48ZM35.27,14.99c-.21-.12-.46-.2-.7-.2-.07,0-.13,0-.2.01-.02-.04-.04-.07-.05-.11.08-.28.24-.5.45-.65.06.4.24.71.5.94ZM36.05,15.9c-.07,0-.13-.02-.19-.03-.05-.3-.19-.55-.39-.73.18.11.38.18.58.21v.54" fill="#6d6e70"/><path d="M34.32,14.7c-.1-.2-.16-.43-.18-.68.17-.21.39-.37.63-.48-.01.08-.02.16-.02.24,0,.1,0,.18.02.27-.21.15-.37.37-.45.65" fill="#66686a"/><path d="M19.68,16.04c-.14-.02-.28-.07-.41-.12.15-.58.63-.96,1.17-1.06h.07s.1,0,.14-.02h0s.05-.01.07-.01c.31,0,.62.1.88.27-.06.12-.14.23-.22.33-.19-.15-.43-.23-.66-.23-.46,0-.93.3-1.03.84M22.04,16.98c-.12-.02-.26-.05-.42-.11.1-.16.15-.36.15-.58,0-.09-.01-.18-.03-.27.12-.11.23-.23.33-.36.09.18.14.4.14.63,0,.26-.07.49-.17.69ZM20.06,17.59c-.01-.19-.05-.36-.1-.53.13.13.29.23.46.27-.13.07-.26.15-.36.26M21.65,18.24c-.13-.03-.25-.08-.39-.15-.26-.14-.51-.26-.67-.33.2-.13.44-.2.67-.2.06,0,.12,0,.17.01-.07.04-.14.07-.22.09.08.02.17.07.35.15.21.1.39.13.52.13h.06s.05.06.08.09c-.2.05-.4.12-.58.21" fill="#d8bc0f"/><path d="M21.75,16.02c-.06-.26-.2-.45-.37-.59.08-.1.15-.21.22-.33.2.14.37.33.48.56-.1.13-.21.26-.33.36M19.67,16.42c-.11-.18-.25-.33-.4-.48,0-.01,0-.02.01-.04.13.06.27.1.41.12-.02.08-.02.16-.02.25,0,.05,0,.1,0,.14M21.87,17.23c-.15-.05-.31-.09-.47-.1.09-.07.17-.16.23-.27.15.06.29.1.42.11-.05.09-.11.18-.17.25" fill="#ab9609"/><path d="M22.01,18.27c-.13,0-.24-.01-.36-.04.18-.09.38-.15.58-.21.01.01.02.02.03.04l-.14.19s-.08.01-.12.01Z" fill="#c6ad0e"/><path d="M28.89,18.94c-.11-.27-.38-.42-.64-.42-.11,0-.22.02-.32.08-.01-.09-.03-.17-.05-.24.12-.05.24-.07.37-.07.4,0,.79.24.92.65h-.07c-.08,0-.15,0-.23.02M27.3,19.38s-.01-.1-.01-.15c0-.3.12-.54.31-.71.01.06.02.13.02.2,0,.3-.14.52-.32.66ZM27.82,19.95c-.08,0-.16-.02-.26-.05-.07-.07-.13-.15-.17-.24.08-.04.16-.1.23-.17.05.13.14.24.24.31-.01.05-.02.09-.04.14M29.1,20.51c-.18,0-.32-.04-.48-.12-.17-.08-.33-.16-.43-.21,0-.09.01-.17.04-.24h.04c.32,0,.67-.24.69-.67.06-.01.11-.02.17-.02.04,0,.07,0,.11,0-.01.43-.3.76-.64.86.05.02.11.05.23.1.14.07.25.08.34.08.07,0,.12,0,.2-.04l-.17.24s-.05,0-.08,0" fill="#d8bc0f"/><path d="M28.95,19.26v-.04c0-.11-.02-.2-.05-.29.07-.01.15-.02.23-.02h.07c.03.1.05.2.05.3v.03s-.07,0-.11,0c-.06,0-.11,0-.17.02M28.19,20.18s-.01,0-.02-.01c-.08,0-.15-.02-.23-.05l.15-.21c-.08.04-.15.04-.23.04h-.03s.02-.09.04-.14c.11.07.23.12.36.12-.02.08-.03.16-.04.24Z" fill="#ab9609"/><path d="M27.6,18.52c-.09-.4-.44-.62-.77-.62-.08,0-.17.01-.24.04-.06-.08-.13-.15-.2-.23.14-.06.29-.09.45-.09.45,0,.89.27,1.05.72-.1.04-.2.1-.29.17M26.32,19.7c-.34-.17-.61-.51-.61-.98,0-.24.07-.44.18-.61.08.08.15.17.21.27-.04.1-.07.21-.07.34,0,.3.13.52.32.66,0,.11-.02.21-.04.31M27.79,20.2c-.21,0-.37-.04-.55-.14-.1-.05-.2-.1-.29-.14.04-.13.06-.27.07-.4.1-.02.19-.07.28-.13.02.1.05.2.09.29-.06.03-.12.06-.19.08.06.02.13.05.26.11.04.02.07.03.1.04.07.07.15.12.24.17,0,.04,0,.09,0,.13h-.01Z" fill="#c81920"/><path d="M27.81,20.2s0-.09,0-.13c.04.02.08.04.12.05l-.05.07s-.05,0-.08.01Z" fill="#a00e13"/><path d="M27.62,19.49c-.03-.08-.05-.17-.05-.27,0-.31.16-.52.37-.63,0,.04,0,.08,0,.12,0,.32-.13.59-.33.78Z" fill="#c81920"/><path d="M27.81,20.07c-.09-.04-.17-.1-.24-.17.1.04.18.05.26.05,0,.04-.01.08-.02.12Z" fill="#c31a20"/><path d="M27.93,20.12s-.08-.03-.12-.05c0-.04.01-.08.02-.12h.03c.07,0,.14,0,.23-.04l-.15.21Z" fill="#9c0f13"/><path d="M27.39,19.66c-.04-.08-.08-.18-.09-.29.18-.14.32-.36.32-.66,0-.07,0-.14-.02-.2.08-.07.18-.13.29-.17.03.08.05.16.05.24-.21.11-.37.33-.37.63,0,.1.02.2.05.27-.07.07-.14.12-.23.17" fill="#c31a20"/><path d="M32.55,7.9c-.07,0-.13,0-.2-.01,0-.05,0-.11,0-.16,0-.2.04-.39.09-.55.01-.03.02-.06.04-.1.26-.61.89-.97,1.52-.97.15,0,.3.02.45.06-.02.14-.04.28-.08.41-.12-.04-.24-.06-.36-.06-.58,0-1.17.43-1.17,1.21,0,.05,0,.1,0,.15-.1.01-.19.02-.28.02ZM35.01,8.9c-.15,0-.33-.02-.53-.07.37-.18.68-.55.68-1.1,0-.26-.07-.49-.18-.67.07-.15.13-.32.17-.49.3.28.49.67.49,1.16s-.2.89-.5,1.17h-.13M35.82,9.51h-.02s.02,0,.03-.01h-.01M34.69,9.76s-.07-.04-.1-.05c-.3-.15-.59-.29-.76-.37-.44-.04-.86-.25-1.15-.6.24.12.53.26.84.42.45.24.81.35,1.33.35.07,0,.15,0,.21-.02.08.02.16.05.24.06-.21.04-.42.12-.61.23" fill="#005ca0"/><path d="M34.97,7.07c-.15-.24-.38-.4-.62-.48.04-.13.07-.26.08-.41.27.07.51.21.71.4-.04.17-.1.34-.17.49ZM34.85,9.5c-.52,0-.88-.1-1.33-.35-.3-.15-.59-.3-.84-.42-.12-.15-.22-.34-.28-.54.02,0,.04,0,.05,0l.2-.28c-.08.03-.15.04-.22.04h-.08v-.05c.07,0,.13.01.2.01.09,0,.18,0,.28-.02.07.68.62,1.06,1.16,1.06.17,0,.34-.04.49-.11.2.05.37.07.53.07h.13c-.17.16-.38.28-.6.34h0c.09.03.19.08.39.17.05.02.1.04.14.06-.07.02-.14.03-.21.03" fill="#005494"/><path d="M19.14,15.85c-.11-.06-.21-.13-.31-.21.11.07.21.14.31.21ZM19.96,17.07c-.1-.11-.18-.24-.24-.39h.04s.04.02.06.03c.05.11.1.23.14.36M16.84,19.98c-.23,0-.46-.06-.66-.17.1-.12.19-.25.26-.4.31.2.67.3,1.02.3.07,0,.14,0,.2-.01-.24.17-.53.27-.82.27M19.95,20.82h-1l.12-.17c-.15.06-.27.07-.4.07-.19,0-.42-.04-.7-.17-.24-.11-.36-.17-.46-.2h0c.51-.16.97-.56,1.18-1.1.37-.33.62-.81.62-1.44,0-1.22-.96-1.91-1.85-1.91-.53,0-1.07.23-1.43.67-.18-.08-.3-.14-.39-.15h0c.55-.17,1.03-.56,1.32-1.11.17-.03.34-.05.51-.05.08,0,.17,0,.25.01.3.66.88,1.12,1.55,1.31.09.48.4.84.8,1.02-.31.29-.51.7-.51,1.21,0,.17.02.33.07.48-.32.45-.78.77-1.27.91v.02c.14.03.3.11.61.26.37.18.67.23.92.23h.1s0,.08,0,.12" fill="#6d6e70"/><path d="M19.26,16.58c-.67-.2-1.25-.65-1.55-1.31.4.04.78.16,1.12.36.1.08.2.15.31.21.04.04.08.07.12.11-.02.11-.04.22-.04.34,0,.1.01.2.02.29M19.83,16.7s-.04-.02-.06-.03h-.04c-.02-.08-.04-.16-.05-.24.06.09.11.18.15.28" fill="#5d5e61"/><path d="M18.95,20.82h-.78c-.39-.2-.74-.36-.96-.46-.42-.04-.83-.17-1.18-.39.05-.05.1-.1.15-.15.21.11.43.17.66.17.29,0,.58-.1.82-.27.37-.04.74-.2,1.03-.46-.22.55-.67.94-1.18,1.09h0c.11.04.23.1.46.21.29.14.51.17.7.17.13,0,.26-.01.4-.07l-.12.17h0Z" fill="#66686a"/><path d="M20.05,17.6c-.39-.18-.71-.54-.8-1.02.15.05.31.08.47.09.05.15.14.29.24.39.05.17.08.34.1.53h0Z" fill="#685c00"/><path d="M19.72,16.67c-.16-.02-.31-.05-.47-.09-.02-.09-.02-.19-.02-.29,0-.12.01-.23.04-.34.15.14.29.3.4.48.01.09.03.17.05.24Z" fill="#594e00"/><path d="M14.87,18.19c-.02-.12-.02-.25-.02-.38,0-.18.02-.35.05-.52.11.01.22.04.32.07-.17.23-.29.5-.34.83ZM15.78,19.51c-.21-.24-.36-.58-.36-.99,0-.29.07-.53.18-.74v.02c0,.5.16.93.42,1.24-.05.18-.14.33-.24.46" fill="#6d6e70"/><path d="M15.63,19.67c-.39-.37-.67-.86-.75-1.47.05-.31.17-.59.34-.83.14.05.28.12.4.23,0,.06-.01.12-.01.19-.11.21-.18.45-.18.74,0,.41.14.74.36.99-.05.06-.1.11-.15.15" fill="#66686a"/><path d="M15.52,16.99c-.15-.07-.32-.11-.49-.14.01-.03.02-.06.04-.09.14.07.3.14.46.23Z" fill="#6d6e70"/><path d="M30.7,6.43c-.03-.13-.05-.27-.05-.42h.44c-.17.08-.31.23-.38.42M31.79,7.74c-.12-.05-.25-.12-.36-.21.37,0,.78-.29.78-.81,0-.36-.2-.61-.44-.72h.48c.17.18.27.43.27.72,0,.12-.02.24-.05.35-.01.03-.02.06-.04.1-.12.29-.37.49-.64.56M31.92,7.8s-.07-.03-.11-.04c.03,0,.07.02.11.04Z" fill="#3b9238"/><path d="M32.37,8.19c-.21,0-.36-.04-.55-.14-.2-.11-.39-.2-.5-.25-.51-.05-.99-.44-.99-1.07,0-.3.11-.54.27-.72h.04c0,.15.02.29.05.42-.04.09-.05.19-.05.3,0,.51.4.81.78.81.11.08.24.15.36.21,0,0,.01,0,.02,0,.04.02.07.03.11.04.04.02.08.04.13.06.12.05.21.08.3.09.01.09.03.17.05.25h-.03" fill="#348633"/><path d="M32.4,8.19c-.02-.08-.04-.16-.05-.25h.08c.07,0,.14,0,.22-.04l-.2.28s-.04,0-.05,0" fill="#004a2d"/><path d="M16.68,20.82h-1.28c-.32-.17-.62-.31-.8-.39-.86-.08-1.66-.74-1.66-1.79,0-1.12.91-1.8,1.84-1.8.08,0,.17,0,.25.02-.05.14-.1.29-.13.45-.04,0-.08,0-.12,0-.64,0-1.31.49-1.31,1.34s.67,1.35,1.31,1.35c.2,0,.4-.05.58-.14.12.12.25.23.39.32-.11.07-.23.12-.36.15h0c.1.04.21.09.43.19.26.12.48.16.65.16.12,0,.23-.01.37-.07l-.15.21h0Z" fill="#2e9bc5"/><path d="M15.75,20.17c-.14-.09-.28-.2-.39-.32.1-.05.19-.11.27-.18.12.11.26.21.4.3-.08.08-.18.14-.28.2Z" fill="#298fb6"/><path d="M16.44,19.42c-.15-.1-.3-.23-.42-.37.04-.12.06-.27.06-.42,0-.42-.16-.75-.4-.97.1-.14.22-.26.36-.34.34.31.58.76.58,1.32,0,.29-.07.55-.18.78Z" fill="#2e9bc5"/><path d="M15.69,17.66s-.05-.04-.07-.07c.02-.18.05-.35.11-.5.02.01.04.02.05.03.09.06.18.12.26.2-.14.09-.26.21-.36.34" fill="#298fb6"/><path d="M16.18,19.82c-.15-.08-.28-.18-.39-.31.11-.13.19-.29.24-.46.12.15.26.27.42.37-.07.15-.16.28-.26.4" fill="#004d65"/><path d="M16.03,19.97c-.14-.09-.27-.19-.4-.3.05-.05.11-.1.15-.15.11.13.25.23.39.31-.05.05-.1.11-.15.15Z" fill="#00485f"/><path d="M15.22,17.37c-.11-.04-.21-.07-.32-.07.03-.15.07-.3.13-.45.17.02.34.07.49.14.02,0,.04.02.05.02-.13.1-.25.23-.35.36" fill="#004d65"/><path d="M15.62,17.6c-.12-.1-.26-.18-.4-.23.1-.14.22-.26.35-.36.04.02.09.04.13.07.01,0,.02.01.03.02-.06.15-.1.32-.11.5Z" fill="#00485f"/><path d="M20.72,17.38c-.1,0-.2-.01-.3-.04.12-.07.26-.12.4-.15.04.02.07.04.11.05.05.03.1.05.15.08-.12.04-.24.07-.36.07M22.3,18.01l.09-.12c-.09.04-.17.05-.24.05-.2-.2-.45-.33-.71-.37.04-.02.08-.05.12-.07.19.05.39.07.61.07.07,0,.14,0,.2-.02v-.02c.15.12.28.26.37.42-.15.01-.3.04-.45.07M20.07,20.05c-.21-.2-.38-.45-.46-.76.29-.4.46-.9.46-1.48,0-.07,0-.14,0-.21.16.08.34.12.52.14,0,0,.01,0,.02.01-.32.21-.55.57-.55,1.06,0,.3.08.55.22.74-.08.15-.14.31-.2.49ZM22.95,20.82h-1.18c-.27-.14-.52-.26-.68-.33-.08,0-.15-.02-.23-.04.03-.15.07-.29.12-.42.09.02.18.03.27.03.45,0,.93-.27,1.13-.75,0,.25.04.48.1.69-.18.18-.41.31-.65.39h0c.09.03.2.08.4.18.24.12.45.15.61.15h.02s.06.07.09.1" fill="#683c89"/><path d="M21.08,17.32s-.1-.05-.15-.08c-.04-.02-.07-.04-.11-.05.14-.04.3-.06.45-.06h.14c-.1.08-.21.14-.32.18M22.18,17.56c-.23,0-.42-.02-.61-.07.11-.07.21-.16.3-.27.19.07.37.17.52.3v.02c-.07.02-.15.02-.21.02" fill="#542c6f"/><path d="M22.48,18.66c-.02-.23-.1-.43-.22-.59l.04-.06c.15-.04.3-.05.45-.07.01.02.02.04.04.07-.14.19-.24.41-.31.65ZM20.87,20.46c-.3-.07-.58-.21-.8-.41.05-.17.12-.34.2-.49.18.26.44.42.72.49-.05.13-.09.27-.12.42Z" fill="#60367e"/><path d="M20.59,17.75s-.01,0-.02-.01c-.18-.02-.35-.07-.52-.14h0c.11-.11.23-.2.36-.27.1.03.2.04.3.04.12,0,.24-.02.36-.07.17.08.32.14.49.18-.04.02-.08.05-.12.07-.06,0-.12-.01-.17-.01-.23,0-.47.07-.67.2M22.23,18.03s-.05-.07-.08-.09c.08,0,.15-.02.24-.05l-.09.12s-.05.01-.07.02Z" fill="#6b3c2f"/><path d="M21.57,17.49c-.16-.04-.32-.1-.49-.18.11-.04.23-.11.32-.18.16.01.31.05.47.1-.09.1-.19.19-.3.27" fill="#542e21"/><path d="M22.26,18.07s-.02-.02-.03-.04c.02,0,.05-.01.07-.02l-.04.05h0Z" fill="#633729"/><path d="M19.61,19.29c-.04-.15-.07-.31-.07-.48,0-.51.2-.92.51-1.21h0c0,.07,0,.14,0,.21,0,.57-.18,1.07-.46,1.48" fill="#300743"/><path d="M20.06,17.61h0,0s0,0,0,0" fill="#2f1101"/><path d="M35.47,15.14c-.07-.04-.14-.1-.2-.15.07.04.14.1.2.15ZM34.27,15.17v-.09c0-.09,0-.17.02-.26.03,0,.05-.01.08-.01.06.11.13.21.21.31h-.01c-.1,0-.2.02-.3.05M35.5,16.35h-.03c.02-.08.04-.17.04-.27,0-.12-.02-.23-.05-.33.14.05.27.1.42.12.01.07.02.14.02.21s0,.14-.02.21c-.12.04-.24.06-.37.06ZM35.7,17.83c-.26,0-.43-.05-.65-.17-.24-.12-.47-.23-.61-.3-.61-.05-1.18-.53-1.18-1.28,0-.45.21-.8.51-1.02v.02c0,.15.02.29.05.42-.11.15-.18.34-.18.58,0,.61.48.96.93.96.24,0,.49-.1.67-.29.03,0,.06,0,.09.01.07.04.16.08.27.12-.15.19-.36.33-.59.39.07.02.15.06.31.14.18.09.34.11.46.11.08,0,.17,0,.26-.05l-.24.33s-.07.01-.11.01Z" fill="#3f1f61"/><path d="M33.82,15.5c-.03-.13-.05-.27-.05-.42v-.02c.15-.11.33-.2.52-.23-.01.08-.02.17-.02.26v.09c-.18.06-.34.17-.46.33M35.59,16.9c-.1-.05-.2-.09-.27-.12-.03,0-.06,0-.09-.01.11-.11.18-.24.23-.41h.03c.12,0,.25-.02.37-.06-.04.23-.14.44-.27.61Z" fill="#3a195a"/><path d="M35.86,15.87c-.14-.02-.29-.07-.42-.12-.14-.4-.51-.62-.87-.63-.08-.1-.15-.2-.21-.31.07-.01.13-.01.2-.01.24,0,.49.07.7.2.07.05.13.11.2.15.2.18.34.43.39.73Z" fill="#1b0033"/><path d="M18.29,6.88c-.36-.47-.92-.73-1.46-.75-.01-.04-.03-.08-.04-.11h1.68c.1.08.2.16.29.25-.2.17-.36.37-.47.62M14.06,7.38c.17-.57.5-1.03.94-1.37h.69c.03.12.07.23.11.34-.36.19-.67.5-.86.91-.07,0-.14-.01-.21-.01-.23,0-.46.04-.68.12M19.26,7.78c-.19,0-.38-.02-.57-.07v-.05c0-.43.16-.77.4-1.01.21.31.36.69.41,1.11-.08,0-.16.01-.24.01M19.42,8.92s-.03-.02-.04-.02c.01,0,.03.01.04.02M17.66,11.46c-.48-.24-.93-.46-1.2-.58-.05,0-.11-.01-.16-.02-.04-.15-.09-.3-.15-.43.08-.08.14-.17.2-.26.12.02.25.04.37.04.75,0,1.54-.46,1.85-1.29.18.2.4.36.65.47-.33.67-.92,1.14-1.57,1.33v.02c.14.03.31.11.63.26-.24.11-.46.26-.63.47M19.13,11.87c-.4,0-.71-.06-1.03-.19.24-.26.58-.4.91-.4.21,0,.43.06.62.17l-.29.4c-.07.02-.15.02-.22.02" fill="#d8bc0f"/><path d="M16.3,10.86c-.18-.02-.36-.07-.53-.13.14-.08.27-.18.38-.3.06.14.11.29.15.43Z" fill="#ab9609"/><path d="M15.8,6.36c-.04-.11-.08-.23-.11-.34h1.1s.02.08.04.11h-.1c-.32,0-.65.08-.94.24M19.42,8.92s-.03-.01-.04-.02c-.38-.21-.67-.62-.69-1.18.19.04.38.07.57.07.08,0,.16,0,.24-.01.02.12.02.26.02.39,0,.27-.04.52-.1.76Z" fill="#c6ad0e"/><path d="M18.69,7.72h-.01c-.07-.33-.2-.61-.37-.83.11-.24.27-.45.47-.62.12.12.23.26.32.4-.24.24-.4.58-.4,1.01v.05M19.24,9.38c-.25-.11-.47-.27-.65-.47.03-.08.05-.17.08-.26.08.01.15.02.24.03.13.06.29.14.48.23.01,0,.03.02.04.02-.05.16-.11.31-.18.46" fill="#b21e22"/><path d="M19.37,8.9c-.18-.09-.34-.16-.48-.23-.08,0-.16-.02-.24-.03.04-.15.05-.31.05-.49,0-.15-.01-.3-.04-.45h.01c.02.56.31.96.69,1.18" fill="#a41a1e"/><path d="M14.96,9.09c-.3-.17-.62-.3-.96-.37-.04-.18-.05-.36-.05-.56v-.18c.23-.16.5-.24.78-.24h.07c-.02.13-.04.27-.04.42,0,.35.07.67.2.93M15.21,10.46c-.32-.2-.6-.46-.81-.78.33.18.61.44.81.78Z" fill="#d8bc0f"/><path d="M15.21,10.46c-.2-.34-.49-.61-.81-.78-.18-.28-.32-.6-.39-.96.34.07.66.2.96.37.2.41.51.71.88.9-.16.23-.39.39-.62.48" fill="#ab9609"/><path d="M12.87,8.69c.15-.65.62-1.1,1.19-1.31-.05.19-.09.39-.1.6-.23.15-.41.38-.51.67h-.1c-.16,0-.33.01-.49.04M15.51,11.5s-.05-.02-.08-.04c-.35-.18-.69-.34-.88-.43-.81-.07-1.57-.64-1.71-1.55.17-.04.34-.06.51-.06h.04c.12.74.74,1.15,1.34,1.15.16,0,.32-.03.48-.09.08.13.14.28.2.43-.01,0-.02,0-.03,0h0s.02.01.04.02c.05.17.09.36.1.56ZM16.4,11.7v-.07c0-.12,0-.25-.02-.37h.12c.12,0,.24-.01.39-.07l-.34.48s-.1.02-.14.02" fill="#cd007a"/><path d="M12.84,9.47c-.02-.11-.02-.21-.02-.33,0-.16.02-.31.05-.46.16-.02.32-.04.49-.04h.1c-.05.15-.08.31-.08.49,0,.1,0,.18.02.27h-.04c-.17,0-.34.02-.51.06M15.4,10.9c-.05-.15-.11-.3-.2-.43.18.11.37.2.56.27-.12.07-.24.12-.37.17ZM16.39,11.7c-.34,0-.59-.07-.88-.21-.01-.2-.05-.39-.1-.56.1.03.21.08.42.18.21.1.4.15.55.16.01.12.02.24.02.37v.07h-.01" fill="#a50062"/><path d="M16.36,10.17c-.14-.03-.28-.07-.41-.12-.02-.04-.05-.07-.07-.11.14-.21.22-.48.22-.79,0-.87-.66-1.37-1.3-1.4.03-.17.08-.33.14-.47.89.1,1.72.79,1.72,1.87,0,.39-.11.74-.3,1.02Z" fill="#cd007a"/><path d="M15.95,10.04s-.07-.04-.11-.05c.01-.02.02-.04.04-.05.02.04.05.07.07.11Z" fill="#a50062"/><path d="M16.16,10.43c-.06-.14-.13-.27-.21-.39.13.06.27.1.41.12-.06.1-.13.18-.2.26Z" fill="#c81920"/><path d="M15.78,10.73c-.2-.07-.39-.15-.56-.27.24-.09.46-.26.62-.48.04.02.07.04.11.05.08.12.15.25.21.39-.11.12-.24.22-.38.3" fill="#a00e13"/><path d="M13.96,7.97c.01-.21.05-.41.1-.6.21-.08.45-.12.68-.12.07,0,.14,0,.21.01-.07.14-.11.3-.14.47h-.07c-.27,0-.55.08-.78.24Z" fill="#c81920"/><path d="M36.05,13.48s-.07-.02-.11-.03c-.18-.09-.35-.17-.46-.22-.2-.02-.4-.07-.59-.14.07-.15.17-.29.28-.41.15.06.33.1.49.1.13,0,.26-.02.39-.06v.77h0Z" fill="#cd007a"/><path d="M35.5,9.55c-.06,0-.13,0-.2-.02.12-.02.24-.04.37-.04h.14c-.11.04-.2.05-.3.05M34.38,12.76c-.37-.32-.61-.8-.61-1.4,0-.74.39-1.3.92-1.6.23.11.44.16.72.16.04,0,.1,0,.13-.01l.29-.4c.08,0,.15.02.23.03v.49c-.12-.04-.26-.06-.39-.06-.67,0-1.35.5-1.35,1.39,0,.41.15.74.37.97-.12.12-.22.26-.31.42" fill="#cd007a"/><path d="M34.9,13.08c-.19-.08-.36-.18-.52-.32.08-.15.19-.29.31-.42.14.15.31.26.49.33-.11.12-.21.26-.28.41" fill="#690039"/><path d="M35.41,9.92c-.28,0-.48-.05-.72-.16.19-.11.4-.18.61-.23.07.01.14.02.2.02.1,0,.19,0,.3-.05h.02l-.29.4s-.09.01-.13.01" fill="#282781"/><path d="M15.85,16.82c.05-.09.11-.17.17-.25.05.02.1.05.16.08.01,0,.02.01.04.02-.12.04-.25.09-.37.15M16.87,17.39c-.29,0-.52-.04-.76-.12.22-.13.48-.2.72-.2.13,0,.27.02.4.06l-.17.24c-.05.01-.12.02-.19.02" fill="#3b9238"/><path d="M16.11,17.27c-.11-.04-.22-.09-.33-.14-.02-.01-.04-.02-.05-.03.04-.1.08-.18.12-.27.12-.07.24-.11.37-.15.32.15.58.18.8.18.15,0,.3-.01.48-.08l-.26.36c-.13-.04-.26-.06-.4-.06-.25,0-.5.07-.72.2Z" fill="#348633"/><path d="M13.2,13.87c-.23-.02-.45-.07-.67-.15.24-1.12,1.27-1.79,2.31-1.79.22,0,.44.03.65.09-.03.21-.09.4-.16.58-.16-.05-.32-.07-.49-.07-.73,0-1.48.49-1.64,1.36M16.35,15.5l.43-.59c-.15.06-.28.09-.41.1.1-.22.16-.48.16-.77,0-.5-.18-.91-.46-1.21.1-.2.18-.4.24-.63.53.4.9,1.03.9,1.83,0,.4-.1.75-.26,1.07-.21.04-.41.11-.61.19M15.07,16.76c-.18-.09-.34-.16-.46-.21-1.03-.09-1.99-.84-2.12-2.03.18.05.37.08.56.1.05.02.1.05.16.08.2.83.92,1.28,1.63,1.28.31,0,.64-.09.92-.28h.21c-.39.26-.71.62-.91,1.06" fill="#3b9238"/><path d="M16.06,13.03c-.21-.21-.46-.37-.74-.45.08-.17.13-.37.16-.58.29.08.57.21.81.4-.06.23-.14.43-.24.63M13.22,14.69c-.06-.03-.11-.05-.16-.08-.19-.02-.37-.05-.56-.1,0-.02,0-.04,0-.07v-.42c.01-.11.02-.21.05-.31.21.09.44.14.67.15-.02.12-.04.24-.04.37,0,.16.02.31.05.45M15.98,15.7h-.21c.25-.16.46-.4.59-.69.13-.01.26-.04.41-.1l-.43.59c-.12.06-.25.12-.37.2" fill="#29762b"/><path d="M15.57,17.01s-.04-.02-.05-.02c-.16-.08-.31-.15-.46-.23.2-.45.52-.81.91-1.06.08,0,.17-.01.24-.03l.12-.17c.2-.09.4-.15.61-.19-.29.55-.77.94-1.32,1.1h0c.1.04.21.08.39.17-.07.08-.12.16-.17.25-.1.05-.2.11-.29.18" fill="#024b11"/><path d="M15.98,15.7c.12-.08.24-.14.37-.2l-.12.17c-.07.02-.16.03-.24.03Z" fill="#004007"/><path d="M15.73,17.09c-.05-.03-.11-.06-.16-.08.09-.07.18-.13.29-.18-.05.08-.09.17-.12.27Z" fill="#00470e"/><path d="M15.78,17.13s-.04-.02-.05-.03c.02.01.04.02.05.03Z" fill="#007436"/><path d="M15.57,17.01s-.04-.02-.05-.02c.02,0,.04.02.05.02" fill="#004013"/><path d="M15.73,17.1s-.02-.01-.03-.02c-.04-.02-.09-.05-.13-.07.05.02.11.05.16.08Z" fill="#003c10"/><path d="M23.94,20.82h-.87l.12-.17c-.12.05-.23.06-.33.06-.16-.21-.29-.45-.37-.71.3-.29.49-.7.49-1.19v-.12h.01c.06,0,.11,0,.17,0-.07.18-.1.39-.1.61,0,.73.38,1.25.88,1.51" fill="#3b9238"/><path d="M25.89,18.11c-.32-.33-.76-.5-1.18-.5-.38,0-.77.14-1.07.39-.21-.05-.43-.07-.65-.07h-.15c.45-.58,1.15-.9,1.87-.9.62,0,1.24.24,1.67.68-.2.08-.37.22-.49.4M26.83,19.54c-.17,0-.33-.05-.48-.15v-.07c0-.37-.1-.68-.26-.93.1-.22.27-.37.48-.44.28.36.45.83.45,1.37,0,.07,0,.14,0,.2-.07.02-.13.02-.2.02M26.46,20.82h-.42c0-.15-.02-.29-.04-.43.15-.19.27-.43.33-.7.12.06.26.1.4.11.06.03.14.07.23.11-.1.35-.27.66-.49.91Z" fill="#3b9238"/><path d="M23.16,18.7c-.06,0-.11,0-.17,0h-.01c-.02-.26-.08-.48-.19-.68.02-.02.04-.05.05-.07h.15c.22,0,.43.02.65.07-.21.18-.38.41-.48.69M26.04,20.82h-.56c.2-.1.38-.25.52-.43.02.14.04.28.04.43Z" fill="#348633"/><path d="M26.11,18.38c-.06-.1-.13-.18-.21-.27.12-.18.3-.31.49-.4.07.07.14.15.2.23-.2.07-.39.21-.48.44M26.96,19.92c-.09-.05-.17-.08-.23-.11-.14-.01-.27-.05-.4-.11.02-.1.04-.21.04-.31.14.1.31.15.48.15.07,0,.13,0,.2-.02-.01.14-.04.27-.07.4" fill="#592326"/><path d="M22.39,19.32h0c0-.21.02-.39.07-.56.01,0,.02,0,.03,0v.06c0,.19-.04.36-.1.5" fill="#3b9238"/><path d="M22.46,18.76s.02-.07.02-.09c0,.03,0,.06,0,.09-.01,0-.02,0-.03,0Z" fill="#348633"/><path d="M22.49,20.01c-.07-.21-.1-.44-.1-.69.06-.15.1-.32.1-.5v-.06c.17-.04.33-.06.5-.06v.12c0,.49-.2.9-.49,1.19M23.07,20.82h-.12s-.06-.07-.09-.1c.11,0,.21-.01.33-.06l-.12.17" fill="#39362b"/><path d="M22.49,18.75s0-.06,0-.09c.07-.24.17-.46.31-.65.11.2.18.43.19.68-.17,0-.33.02-.5.06" fill="#333026"/><path d="M23.17,6.69c-.16-.17-.29-.36-.37-.59,0-.03.02-.05.02-.08h.43v.13c0,.2-.03.38-.09.55M26.02,7.86c-.34,0-.59-.07-.89-.23-.33-.17-.64-.32-.83-.4-.22-.02-.43-.08-.63-.17.07-.14.12-.29.15-.45.2.12.43.18.65.18.47,0,.96-.27,1.17-.78h.54c-.18.56-.61.96-1.11,1.1h0c.09.04.21.09.42.19.26.12.46.15.63.15.12,0,.23-.01.36-.07l-.32.45s-.1.02-.14.02" fill="#3b9238"/><path d="M20.18,7.61c-.31-.32-.53-.75-.58-1.27.14-.05.29-.07.44-.07.06,0,.12,0,.18.01.03.45.23.8.5,1.05-.17.11-.35.21-.54.29ZM21.31,8.2s-.1-.02-.15-.04c.07-.04.13-.08.2-.12-.01.05-.03.1-.05.15M23.58,8.99c-.41,0-.7-.08-1.06-.28-.23-.12-.45-.23-.64-.31-.02-.01-.04-.02-.05-.03.08-.2.13-.43.13-.68.52-.08,1.01-.43,1.21-1,.15.15.32.27.5.36-.25.53-.71.9-1.22,1.06h0c.11.04.25.1.5.22.3.15.55.18.75.18.14,0,.27-.01.43-.08l-.39.54c-.05.01-.11.02-.17.02" fill="#005ca0"/><path d="M21.17,8.17c-.37-.1-.71-.29-.98-.56.19-.07.37-.17.54-.29.2.18.43.29.68.35,0,.14-.02.26-.05.37-.07.04-.13.08-.2.12Z" fill="#005494"/><path d="M21.88,8.4s-.04-.02-.05-.02c.02,0,.04.02.05.03" fill="#002550"/><path d="M19.61,6.34c0-.07,0-.13,0-.2v-.13h.62v.27c-.06,0-.12-.01-.18-.01-.15,0-.3.02-.44.07M21.83,8.37s-.08-.04-.13-.06c-.07-.03-.12-.06-.17-.08-.07,0-.14-.02-.22-.03.02-.05.04-.1.05-.15.15-.1.3-.21.43-.34.05,0,.11,0,.17-.02,0,.24-.05.47-.13.68" fill="#2f2c30"/><path d="M21.36,8.05c.03-.12.05-.24.05-.37.11.02.22.04.33.04h.06c-.14.12-.29.24-.43.34" fill="#2b272b"/><path d="M21.83,8.37s-.09-.04-.12-.06c.04.02.09.04.13.06" fill="#030003"/><path d="M23.82,6.61c-.22-.13-.4-.33-.52-.59h.56v.13c0,.16-.02.31-.05.46" fill="#005ca0"/><path d="M23.67,7.05c-.19-.09-.36-.21-.5-.36.05-.17.09-.34.09-.55v-.13h.06c.11.26.3.46.52.59-.04.16-.08.31-.15.45" fill="#005132"/><path d="M20.22,12.84c-.07-.13-.12-.28-.16-.44.07,0,.12,0,.19.02v.12c0,.11-.01.21-.03.3Z" fill="#2e9bc5"/><path d="M20.25,12.42c-.07,0-.12-.01-.19-.02-.02-.11-.04-.23-.04-.34,0-.08,0-.17.02-.24.11.17.18.37.2.61" fill="#227da0"/><path d="M21.01,11.07c-.18,0-.35-.05-.51-.14.31-.3.74-.47,1.18-.47.13,0,.26.02.39.05-.09.15-.21.27-.34.36h-.04c-.23,0-.46.07-.66.2M20.55,11.71c-.09-.16-.2-.3-.33-.42,0,0,0-.01.01-.02.14.08.29.13.43.17-.05.08-.08.17-.11.27M22.41,13.49c-.04-.14-.1-.27-.16-.39.33-.19.58-.55.58-1.04,0-.1,0-.18-.02-.27l.11-.16c-.05.02-.1.04-.15.04-.1-.31-.3-.53-.55-.67.1-.1.19-.21.27-.34.47.26.81.74.81,1.39s-.39,1.2-.89,1.43M21.74,13.78c-.1-.04-.17-.08-.24-.11-.33-.03-.66-.16-.92-.37.07-.15.12-.31.15-.49.2.26.49.42.8.46.1.15.17.33.21.52ZM23.08,14.25c-.21,0-.38-.03-.55-.1,0-.17-.02-.33-.06-.48.04.02.08.04.13.07.23.11.42.14.58.14.11,0,.21-.01.33-.06l-.3.42s-.09.01-.13.01Z" fill="#2e9bc5"/><path d="M22.53,14.16c-.08-.03-.17-.07-.26-.12-.18-.1-.37-.18-.52-.26-.04-.19-.12-.36-.21-.52.04,0,.09,0,.13,0,.2,0,.41-.05.59-.17.07.12.12.25.16.39-.07.03-.13.05-.2.08h0c.07.02.14.06.25.11.04.15.05.31.06.48Z" fill="#227da0"/><path d="M22.23,11.01c-.16-.09-.34-.14-.52-.15.14-.09.26-.21.34-.36.15.04.3.1.44.17-.07.12-.17.24-.27.34M20.66,11.44c-.15-.04-.3-.09-.43-.17.07-.13.17-.25.27-.35.16.08.34.13.51.14-.14.1-.26.22-.34.37ZM22.81,11.8s-.02-.08-.03-.12c.05-.01.1-.02.15-.04l-.11.16" fill="#004d65"/><path d="M29.43,7.21c-.32,0-.55-.07-.83-.22-.31-.16-.6-.3-.77-.37-.45-.04-.87-.26-1.16-.61h.66c.2.13.43.2.67.2s.46-.07.66-.2h.65c-.2.25-.47.42-.75.51h0c.09.03.19.08.39.17.24.11.43.14.59.14.11,0,.21-.01.34-.06l-.3.42s-.09.01-.13.01" fill="#d5741a"/><path d="M17.59,13.53c-.19-.27-.3-.6-.3-.99,0-.43.15-.8.38-1.08.03.01.05.03.08.04.12.07.24.12.36.17-.19.21-.31.5-.31.87,0,.15.02.29.06.41-.11.18-.2.37-.26.58M20.44,14.85c-.3-.01-.52-.08-.79-.23-.32-.17-.62-.31-.8-.39-.21-.02-.43-.08-.62-.17.01-.17.05-.32.1-.46.21.14.46.22.7.22.52,0,1.06-.34,1.2-.97.1.17.22.32.37.45-.21.42-.58.72-.99.84h0c.1.03.2.08.4.18.25.12.45.15.61.15.11,0,.22-.01.35-.06l-.31.43c-.07,0-.15.01-.22.02" fill="#d5741a"/><path d="M18.23,14.07c-.25-.12-.48-.3-.64-.53.06-.21.15-.4.26-.58.08.29.26.5.48.65-.05.14-.08.3-.1.46" fill="#aa5c0e"/><path d="M20.51,14.85h-.07c.07-.01.14-.02.22-.02h0s-.1.03-.15.03" fill="#cd6c1d"/><path d="M20.05,11.79h-.03c-.1-.14-.23-.26-.38-.34l.21-.3c-.21.08-.38.1-.56.1-.26,0-.58-.05-.98-.24,0,0-.01,0-.02-.01.23-.1.48-.15.72-.15.43,0,.87.16,1.19.46-.08.15-.14.31-.17.49" fill="#d5741a"/><path d="M20.05,11.82s-.02-.02-.02-.04h.03v.04" fill="#aa5c0e"/><path d="M18.1,11.67c-.11-.05-.23-.11-.36-.17-.03-.01-.05-.03-.08-.04.17-.21.39-.36.63-.47,0,0,.01,0,.02.01.4.19.72.24.98.24.18,0,.36-.02.56-.1l-.21.3c-.19-.11-.41-.17-.62-.17-.34,0-.68.14-.91.4" fill="#cd6c1d"/><path d="M20.62,11.86s-.07-.02-.1-.02c0-.04.02-.08.03-.12.02.05.05.1.07.14M20.73,12.8c-.07-.09-.12-.19-.16-.3.06.02.12.04.18.07,0,.08,0,.16-.02.23" fill="#d5741a"/><path d="M20.76,12.57c-.06-.03-.12-.05-.18-.07-.05-.13-.07-.28-.07-.44,0-.08,0-.15.02-.23.04,0,.07.01.1.02.09.2.14.43.14.68v.03Z" fill="#aa5c0e"/><path d="M20.52,11.83c-.15-.03-.31-.05-.47-.05.03-.18.09-.34.17-.49.13.12.24.26.33.42-.01.04-.02.08-.03.12M20.59,13.29c-.15-.12-.27-.27-.37-.45.02-.1.03-.2.03-.3v-.12c.11.02.22.04.33.08.04.11.1.21.16.3-.02.17-.08.34-.15.49Z" fill="#635b32"/><path d="M20.57,12.5c-.11-.04-.21-.06-.33-.08-.02-.24-.1-.44-.2-.61v-.03c.16,0,.31.02.47.05-.01.07-.02.15-.02.23,0,.16.02.31.07.44" fill="#4d4825"/><path d="M32.15,12.5c0,2.36-1.85,3.71-3.59,3.71s-3.59-1.35-3.59-3.71,1.82-3.7,3.59-3.7,3.59,1.33,3.59,3.7ZM34.24,17.92c-.37.15-.69.18-1.02.18-.48,0-1.06-.09-1.78-.43-.6-.29-.91-.43-1.18-.49v-.03c1.82-.54,3.37-2.29,3.37-4.64,0-3.07-2.51-4.95-5.06-4.95s-5.06,1.89-5.06,4.95c0,2.9,2.2,4.73,4.57,4.94.52.24,1.41.66,2.33,1.14.86.46,1.54.66,2.51.66.14,0,.29-.02.4-.05l.91-1.27Z" fill="#231f20"/><path d="M31.09,12.59c0,.4-.3.62-.69.62h-.21v-1.23h.21c.4,0,.69.21.69.62M31.25,12.59c0-.48-.38-.75-.84-.75h-.39v1.51h.39c.46,0,.84-.27.84-.75ZM29.49,12.25c0,.17-.14.27-.3.27h-.26v-.54h.24c.17,0,.31.1.31.27M29.88,13.35l-.53-.71c.17-.05.3-.19.3-.39,0-.26-.21-.41-.44-.41h-.43v1.51h.16v-.69h.26l.5.69h.18-.01ZM28.17,12.8h-.53l.18-.46c.03-.07.06-.15.08-.23.02.08.05.16.08.23l.18.46h0ZM28.55,13.35l-.62-1.54h-.05l-.62,1.54h.15l.17-.42h.64l.17.42h.16ZM27.13,11.92c-.1-.06-.25-.1-.45-.1-.4,0-.8.29-.8.78s.39.78.8.78c.19,0,.31-.03.4-.08l.04-.16c-.11.07-.25.1-.42.1-.34,0-.65-.24-.65-.64s.31-.64.65-.64c.16,0,.31.05.4.1l.03-.14Z" fill="#231f20"/><path d="M23.88,16.8h.06v-.14h.15v-.05h-.15v-.09h.15v-.05h-.21v.33ZM23.54,16.64c0-.07.05-.12.11-.12s.11.05.11.12c0,.07-.05.12-.11.12s-.11-.05-.11-.12ZM23.48,16.64c0,.1.07.17.17.17s.18-.07.18-.17-.07-.17-.18-.17c-.1,0-.17.07-.17.17ZM23.06,16.75v-.23h.05c.07,0,.12.03.12.11s-.06.11-.14.11h-.04ZM23,16.8h.12c.08,0,.17-.05.17-.17s-.08-.17-.17-.17h-.13v.33ZM22.63,16.8h.06v-.26l.17.26h.08v-.33h-.06v.24l-.16-.25h-.08v.33h0ZM22.34,16.8h.23v-.05h-.17v-.09h.15v-.05h-.15v-.08h.16v-.05h-.22v.33ZM22.15,16.5s-.06-.04-.1-.04c-.06,0-.12.03-.12.1,0,.12.15.08.15.15,0,.03-.03.05-.06.05s-.05-.01-.07-.04l-.04.04s.07.05.11.05c.07,0,.12-.04.12-.11,0-.12-.15-.08-.15-.15,0-.03.03-.04.05-.04s.05,0,.06.02l.04-.05h0ZM21.65,16.8h.23v-.05h-.17v-.09h.15v-.05h-.15v-.08h.16v-.05h-.22v.33ZM21.42,16.61v-.09h.05s.07,0,.07.04-.04.05-.07.05h-.05ZM21.36,16.8h.06v-.14h.04l.08.14h.07l-.09-.15s.08-.04.08-.09c0-.07-.06-.09-.12-.09h-.11v.33ZM21.23,16.8h.06v-.33h-.06v.33ZM21.01,16.61v-.1h.04s.07,0,.07.05-.04.05-.08.05h-.04ZM20.95,16.8h.06v-.14h.04c.07,0,.13-.02.13-.1,0-.07-.06-.09-.12-.09h-.11v.33ZM20.59,16.8h.07l.09-.14.09.14h.08l-.12-.17.11-.16h-.07l-.08.12-.08-.12h-.07l.11.16-.12.17h-.01ZM20.34,16.8h.23v-.05h-.17v-.09h.15v-.05h-.15v-.08h.16v-.05h-.22v.33Z" fill="#231f20"/></g></g><path d="M24.6,16.5s-.02.02-.02.03c-.11.33-.34.52-.68.59,0,0,0,0-.02.01-.01,0-.02,0-.03,0-.02,0-.04,0-.06,0-1.77,0-3.54,0-5.32,0-.02,0-.05,0-.07,0-.04-.24-.16-.42-.36-.54-.02-.01-.04-.01-.07-.02-.01,0-.02-.03-.04-.04-.15-.06-.31-.08-.47-.05-.33.06-.59.31-.64.65-.01,0-.02,0-.03,0h-3.96s-.03,0-.04,0c0-.02.02-.03.03-.05-.16.05-.28-.02-.41-.09,0,0,.01,0,.01,0,.24-.07.37-.28.34-.53-.03-.22-.24-.39-.47-.39-.25,0-.45.18-.47.42-.03.24.12.45.37.51.11.02.21.08.3.13-.02,0-.03,0-.05,0-1.07,0-2.15,0-3.22,0-.25-.37-.61-.56-1.05-.58-.39-.02-.73.1-1.02.36-.07.07-.13.15-.19.22-1.15,0-2.3,0-3.44,0-.02,0-.05,0-.07,0,.07-.23.11-.46.09-.7-.02-.41-.16-.78-.43-1.09-.31-.36-.71-.56-1.19-.63,0-.01,0-.03,0-.04,0-1.94,0-3.88,0-5.82,0,0,0-.02,0-.03.1.04.21.07.32.07.12,0,.18-.04.22-.16-.1.03-.2.04-.3.01-.08-.02-.16-.06-.24-.09,0-.04,0-.07,0-.11.03-.01.05-.02.07-.03.3-.16.46-.52.38-.86-.06-.25-.21-.43-.45-.54,0-.01,0-.03,0-.04,0-1.2,0-2.4,0-3.61,0-.01.02-.02.02-.03.05-.18.14-.32.29-.43.14-.11.3-.18.48-.18,2.03,0,4.05,0,6.08,0,.02,0,.04,0,.06,0-.36.38-.18,1,.32,1.12.12.03.23.07.33.13.13.07.26.13.4.13.04,0,.09,0,.12-.03.03-.02.05-.07.07-.1,0,0,0,0,0,0,0,0,0,0,0,0-.13.03-.26.02-.38-.03-.07-.03-.14-.07-.21-.1.01,0,.03,0,.04-.01.14-.03.26-.11.35-.22.2-.25.19-.65-.04-.89,1.84,0,3.67,0,5.51,0,.03,0,.05,0,.08,0-.18.3-.04.64.29.73.07.02.13.04.19.07.08.03.15.08.24.09.15.03.15.02.21-.08-.15.05-.28-.01-.41-.09.12-.03.21-.09.28-.18.12-.18.11-.36,0-.54.02,0,.03,0,.04,0,2.37,0,4.73,0,7.1,0,.02,0,.04,0,.05,0,0,.11,0,.21,0,.32.07.45.33.75.77.89.13.04.28.05.4.12,0,.02,0,.04,0,.06v11.99c0,.1,0,.21,0,.32ZM23.89,11.17c-.15.04-.27-.03-.39-.09.14-.05.19-.08.23-.13.14-.15.17-.37.06-.56-.09-.17-.31-.27-.5-.23-.22.04-.38.22-.39.43,0,.24.12.43.35.49.1.02.18.07.27.1.07.03.14.06.21.07.09.02.12,0,.17-.08,0,0,0,0,0,0,0,0,0,0-.01,0ZM7.39,13.7q-.13.02-.4-.09c.12-.02.22-.09.28-.18.1-.16.11-.33.03-.49-.09-.17-.25-.25-.44-.25-.23,0-.43.19-.45.4-.03.26.11.47.35.53.08.02.16.06.23.08.08.03.15.06.24.08.1.02.12,0,.18-.08,0,0,0,0-.01,0ZM19.67,9.82c-.15.04-.27-.03-.4-.09,0,0,.02,0,.03,0,.24-.07.38-.29.33-.53-.04-.23-.24-.39-.48-.38-.24,0-.43.17-.47.4-.03.24.1.45.33.52.11.03.21.08.32.12.06.03.13.04.2.06.07.02.12-.02.15-.09,0,0,0,0,0,0,0,0,0,0-.01,0ZM21.44,13.68s0,0-.02,0c-.35-.27-.75-.37-1.19-.29-.72.13-1.27.79-1.18,1.61.04.37.2.69.49.94.26.23.58.36.93.37.28.01.55-.06.79-.2.06-.04.11-.08.18-.12,0,0,.01,0,.02.01.36.27.76.37,1.21.27.66-.14,1.13-.7,1.16-1.37.02-.42-.12-.79-.41-1.09-.33-.33-.73-.48-1.19-.44-.29.02-.54.13-.78.3ZM17.94,14.27c-.37.14-.76.19-1.16.17-.39-.02-.77-.1-1.14-.24-.34-.12-.67-.27-.99-.43-.32-.16-.66-.28-1.01-.36-.01,0-.03-.01-.04-.02.01-.01.02-.02.03-.02.19-.03.39-.06.58-.1.78-.19,1.45-.59,2.01-1.16.48-.49.83-1.07,1.04-1.73.24-.72.3-1.46.19-2.2-.07-.51-.21-.99-.44-1.45-.46-.91-1.15-1.58-2.05-2.04-.73-.37-1.51-.54-2.33-.53-.44,0-.87.07-1.29.2-1.08.32-1.95.93-2.59,1.86-.53.77-.78,1.64-.79,2.57,0,.43.04.86.14,1.28.2.82.6,1.52,1.19,2.12.39.39.83.7,1.33.93.47.22.95.36,1.46.43.08.01.16.01.24.04.35.16.71.32,1.06.49.38.19.76.39,1.14.58.59.29,1.21.5,1.88.54.33.02.66.01.99-.08.02,0,.05-.02.06-.04.16-.22.31-.44.47-.65.04-.05.06-.1.06-.16,0,.01.01.03.02.04.02-.03.04-.06.07-.1-.05.02-.08.04-.13.05ZM6.33,6.47c-.23-.09-.46-.18-.69-.27.13-.02.25-.05.37-.11.73-.36.9-1.26.52-1.87-.44-.72-1.47-.86-2.1-.28-.4.37-.51.85-.37,1.37.14.51.5.81,1.01.93.07.02.14.02.2.04.18.08.37.18.55.27.22.11.44.18.69.18.11,0,.21-.02.26-.13.01-.03.03-.05.05-.07.02-.02.03-.04.05-.07-.18.06-.35.07-.54.02ZM18.98,5.12s.07-.05.1-.08c.11-.11.18-.24.18-.4,0-.08-.05-.14-.13-.15-.08,0-.15.06-.15.14,0,.1-.05.18-.12.23-.09.07-.19.13-.29.19-.12.07-.24.14-.33.25-.1.1-.15.22-.15.36,0,.08.05.15.13.15.08,0,.14-.06.15-.14,0-.05.02-.11.06-.15.06-.06.13-.12.2-.17.12-.08.24-.15.36-.23ZM23.04,8.46c.06-.24.07-.47.03-.71-.03-.21-.1-.41-.21-.59-.03-.05-.08-.07-.13-.04-.05.03-.07.08-.03.14.13.24.2.49.2.76,0,.28-.07.54-.2.79-.03.06-.02.11.03.14.05.03.11.01.14-.05.08-.13.13-.28.17-.43ZM22.43,7.61c.07.18.09.37.07.57-.02.16-.07.31-.15.45-.03.05-.02.1.02.13.05.04.12.03.15-.03.1-.18.16-.37.18-.58.02-.28-.04-.54-.18-.79-.03-.05-.09-.07-.13-.05-.05.03-.06.09-.03.14.03.05.05.11.08.17ZM2.52,12.49c.07.03.14.07.21.1.06.02.12.04.19.04.06,0,.1-.02.12-.09-.15.04-.27-.02-.38-.08.07-.04.14-.07.2-.13.15-.13.18-.36.1-.54-.07-.16-.26-.29-.49-.26-.23.03-.41.2-.42.44-.01.23.13.42.35.48.04.01.09.02.14.04ZM2.49,3.49c-.2.29-.06.65.27.74.06.02.12.04.17.06.05.02.09.05.14.07.06.02.12.04.19.04.08,0,.09,0,.13-.09-.15.05-.27-.03-.4-.09.27-.06.42-.32.34-.58-.05-.18-.17-.29-.35-.33-.2-.04-.36.02-.49.18ZM22.1,7.91c.03.19,0,.36-.1.52-.01.03-.02.07,0,.1,0,.04.04.06.08.06.05,0,.08-.02.1-.06.12-.21.16-.43.12-.67-.02-.12-.06-.23-.13-.34-.03-.05-.09-.06-.13-.03-.04.03-.07.09-.04.13.06.09.09.19.11.3ZM18.26,5.03s.06.05.07.04c.08-.04.16-.1.24-.15-.02-.01-.03-.03-.05-.04-.09-.07-.16-.15-.16-.27,0-.08-.07-.14-.14-.14-.08,0-.14.06-.14.14,0,.16.06.29.18.41ZM19.26,5.59c-.02-.14-.09-.25-.2-.34-.01-.01-.04-.03-.05-.02-.08.05-.16.1-.24.15.01,0,.02.01.02.02.1.07.19.15.19.3,0,.08.08.13.15.12.07,0,.12-.06.12-.14,0-.02,0-.04,0-.07ZM21.69,8.18s-.03.05-.04.08c-.03.05-.02.11.02.14.05.03.1.02.14-.03.14-.19.14-.5,0-.68-.04-.05-.09-.05-.14-.02-.05.03-.06.09-.02.14.08.12.09.24.04.38ZM11.35,13.46c-.07-.03-.14-.02-.22-.02v.39c.06,0,.11,0,.16-.01.09-.02.15-.08.16-.15.01-.08-.02-.15-.11-.2ZM10.65,13.98v.09h-.22v-.17s-.03,0-.04,0v.38h.05v-.17h.22v.17s.03,0,.04,0v-.39s-.03,0-.05,0c0,.02,0,.04,0,.07ZM22.46,4.96v.04s.01,0,.02,0c0-.01.02-.02.02-.04,0-.09,0-.17,0-.26,0-.01,0-.02,0-.04.04.06.08.12.12.18.05.07.05.07.09,0,.04-.06.08-.11.12-.17,0,0,0,0,0,0v.32s.04,0,.04-.03c0-.09,0-.17,0-.26v-.13c-.06.03-.08.09-.11.13-.03.04-.06.09-.1.14-.03-.05-.06-.1-.1-.14-.03-.04-.05-.1-.11-.13v.38ZM10.97,14.12s.02-.02.03-.03c.03-.03.04-.07.03-.11,0-.04-.04-.07-.08-.07-.05,0-.1,0-.14,0v.39s.03,0,.05,0v-.17s.06,0,.08.03c.02.04.05.07.08.11.02.03.05.05.09.03-.04-.05-.08-.11-.13-.17ZM11.19,14.14v-.24s-.03,0-.05,0v.23s0,.02,0,.02c0,.08.06.13.13.14.1,0,.17-.04.17-.12,0-.09,0-.18,0-.27-.02,0-.03,0-.05,0,0,.08,0,.16,0,.24,0,.06-.03.09-.1.1-.06,0-.11-.02-.12-.11ZM20.44,4.67s-.04-.08-.09-.08c0,.13,0,.26,0,.39,0,.01.01.02.02.03,0,0,.01,0,.02,0v-.34c.09.11.16.22.25.32.01.01.03.02.05.04v-.42s0,0-.01,0c0,.01-.02.02-.02.03,0,.06,0,.12,0,.17v.13s0,0-.01,0c-.06-.08-.13-.17-.2-.26ZM21.09,5.43c-.04-.05-.08-.1-.12-.15-.01-.01-.03-.02-.05-.03,0,.14,0,.27,0,.4,0,0,.02.02.03.03,0,0,0,0,.01-.01v-.34c.09.11.16.22.24.32.01.01.03.02.05.04,0-.14,0-.26,0-.39,0-.01-.01-.02-.02-.03,0,.01-.02.02-.02.03,0,.06,0,.12,0,.17v.13s0,0-.01,0c-.04-.05-.08-.1-.12-.16ZM21.89,5h.08s0-.01,0-.02c-.01,0-.03-.02-.04-.02-.07,0-.14,0-.2,0v-.15h.21s0-.01,0-.02c-.01,0-.02-.02-.04-.02-.06,0-.12,0-.18,0v-.15h.24s-.02-.04-.03-.04c-.08,0-.17,0-.25,0v.42h.2ZM20.28,5.56s.05.1.12.11v-.41s-.01,0-.02,0c0,.01-.02.03-.02.04,0,.06,0,.13,0,.19v.12c-.09-.12-.17-.22-.25-.32-.01-.01-.03-.02-.05-.04,0,.15,0,.28,0,.4,0,0,.02.02.03.03,0,0,0,0,.01,0v-.34c.06.08.12.16.18.24ZM21.88,5.26h-.13v.41h.28s0-.04-.03-.04c-.07,0-.14,0-.21,0v-.15h.22s0-.03,0-.03c-.07,0-.14-.01-.22-.02v-.14h.23s0,0,0-.01c-.01,0-.02-.02-.03-.02-.04,0-.07,0-.12,0ZM19.84,4.85c.04.11.12.16.23.15.11-.01.2-.1.19-.22,0-.11-.09-.2-.2-.2-.15,0-.25.1-.22.26ZM22.31,4.91s-.04-.05-.06-.08c.01,0,.02,0,.02,0,.06-.02.09-.06.09-.12,0-.06-.04-.1-.11-.11-.07,0-.13,0-.2,0v.4s.02,0,.02,0c0-.05.01-.11.02-.16.07-.01.13,0,.16.06.02.03.04.06.07.08.01.01.03.02.05.02,0,0,0,0,0-.01-.02-.03-.04-.05-.07-.08ZM20.51,5.64c.01-.06.05-.09.11-.07.02,0,.04,0,.06,0,.07,0,.11,0,.13.08,0,.01.02.02.04.03-.05-.14-.1-.26-.16-.38,0-.01-.02-.02-.03-.02,0,0-.02.01-.03.02-.01.03-.03.05-.04.08-.05.1-.09.2-.14.3,0,0,0,0,.01.01.01-.01.03-.02.04-.04ZM20.87,4.65c.07-.05.15-.05.24-.02,0-.01-.01-.03-.02-.03-.09-.03-.18-.02-.25.05-.07.06-.07.15-.05.23.03.1.15.15.28.12.04-.01.06-.03.06-.08,0-.04,0-.08,0-.12,0-.01-.01-.02-.02-.03,0,0,0,0-.01,0,0,.05,0,.09,0,.14,0,.01-.02.04-.03.04-.08.03-.18,0-.22-.07-.04-.07-.03-.17.03-.24ZM10.39,13.81c.01-.07.06-.1.13-.08.02,0,.04,0,.06,0q.05.1.1.09c-.05-.13-.11-.26-.16-.39,0,0-.01,0-.02,0-.05.13-.11.26-.16.4.03,0,.04-.01.06-.02ZM4.45,12.81s.01-.02.02-.02c.03,0,.05,0,.08,0,0-.02,0-.03.01-.05h-.17v.19c.05,0,.11-.02.13.03.01.02.01.06,0,.08-.04.05-.09.03-.14.01,0,.04.06.08.09.08.06,0,.11-.06.11-.12,0-.08-.04-.13-.15-.14,0-.02,0-.04,0-.07ZM19.59,5.37v-.08h.25s-.02-.04-.03-.04c-.08,0-.17,0-.26,0,0,.13,0,.26,0,.39,0,0,.02.02.03.03,0,0,0,0,.01-.01v-.18h.22s0-.01,0-.02c-.01,0-.02-.01-.03-.01-.06,0-.12,0-.19,0v-.08ZM10.13,13.63c-.02-.05-.04-.1-.06-.16-.01-.03-.03-.05-.07-.03.05.13.1.26.15.39h.02c.05-.13.1-.26.15-.39,0,0-.01,0-.02-.01-.01.01-.03.02-.04.04-.01.02-.02.04-.03.06-.03.07-.05.13-.08.2-.01-.04-.02-.06-.04-.1ZM10.29,13.95s.05-.01.03-.05h-.31v.05h.13v.34h.05v-.34h.09ZM4.94,12.78c.06.07,0,.08-.05.1,0,.01,0,.03.01.04.07.01.1.04.09.09,0,.02-.01.04-.03.04-.04.01-.08.01-.13.02,0,.02,0,.04.04.05.06,0,.13-.02.15-.07.03-.06,0-.1-.06-.17.04-.02.05-.06.04-.1,0-.04-.04-.06-.08-.06-.03,0-.06,0-.09.01,0,.02,0,.03.01.04.03,0,.05,0,.09,0ZM21.37,5.45c0-.06.03-.1.08-.13.07-.04.14-.03.21,0,0-.02-.01-.03-.03-.04-.04,0-.08-.01-.12-.01-.09,0-.15.06-.18.15-.02.08,0,.16.06.22.07.06.16.07.24.04.01,0,.02-.02.03-.03-.19.05-.3-.01-.3-.18ZM10.9,13.78h-.13v-.35s-.04,0-.05,0v.38h.22s0-.05-.04-.04ZM5.17,12.97s-.04.09-.06.14c.04.01.06,0,.08-.04.02-.05.04-.1.06-.15.03-.07.06-.13.08-.2h-.26s0,.03,0,.05h.18c-.03.07-.06.13-.09.2ZM19.59,4.94v-.35s-.01,0-.02,0c0,.01-.02.02-.02.04,0,.08,0,.16,0,.24v.14h.28s0,0,0-.01c-.01,0-.02-.02-.04-.02-.06,0-.11,0-.17,0-.01,0-.03,0-.04-.02ZM21.29,4.61s.03.01.04.01c.04,0,.07,0,.11,0v.37s.01,0,.02,0c0-.01.01-.02.01-.04,0-.11,0-.23,0-.34h.15s0-.01,0-.02c-.01,0-.03-.02-.04-.02-.09,0-.18,0-.27,0-.01,0-.02,0-.03.02ZM4.71,12.95v.17h.05v-.38c-.1,0-.12,0-.13.05h.07v.17ZM11,13.48v.34h.05v-.38s-.05,0-.05.04ZM19.94,5.56c0-.09,0-.18,0-.27,0-.01-.01-.02-.02-.04,0,0,0,0-.01,0v.4s0,0,.01,0c0-.01.02-.02.02-.03,0-.02,0-.05,0-.08ZM23.77,15.75s0-.03.01-.05c0,0,0,0-.01,0,0,0-.02.02-.02.01-.04,0-.06-.01-.1-.02,0,.03.01.04.02.07,0-.02.01-.04.02-.05,0,0,0,0,0,0,0,.01,0,.03,0,.04.02,0,.04,0,.06,0Z" fill="#1d1d1b"/><path d="M2.64,17.13s-.02-.02-.03-.02c-.16-.03-.3-.09-.42-.2-.12-.11-.21-.24-.25-.39,0-.01-.01-.02-.02-.04,0-.1,0-.2,0-.3,0-.38,0-.76,0-1.15.02,0,.04,0,.06,0,.66.13,1.12.64,1.17,1.35.02.25-.01.49-.11.73-.1,0-.2,0-.29,0-.02,0-.03,0-.05,0-.02,0-.03,0-.04,0Z" fill="#1d1d1b"/><path d="M3.04,17.12c.09-.24.12-.48.1-.73-.05-.72-.51-1.22-1.17-1.35-.02,0-.03,0-.06,0,0-.11,0-.22,0-.33.47.06.87.26,1.19.62.27.31.41.68.43,1.09.01.24-.02.47-.1.7-.14,0-.27,0-.4,0Z" fill="#479ece"/><path d="M1.91,8.37c0-.37,0-.74,0-1.11.02,0,.03.01.04.02.16.11.23.27.26.46.03.25-.09.5-.3.63Z" fill="#1d1d1b"/><path d="M1.91,8.37c.22-.13.33-.38.3-.63-.02-.19-.1-.35-.26-.46-.01,0-.03-.02-.04-.03,0-.05,0-.1,0-.16.24.1.39.28.45.53.08.34-.07.69-.38.86-.02.01-.04.02-.07.03,0-.05,0-.09,0-.14Z" fill="#479ece"/><path d="M1.91,8.64c.08.03.16.06.24.09.1.03.2.02.3-.01-.04.12-.11.16-.22.16-.11,0-.22-.03-.32-.07,0-.05,0-.11,0-.16Z" fill="#479ece"/><path d="M23.66,2.8c.14,0,.27,0,.4.05.23.09.39.25.49.47.01.03.03.06.04.09,0,.15,0,.3,0,.45-.05,0-.09,0-.14,0-.35-.04-.6-.22-.74-.54-.07-.17-.08-.35-.06-.53Z" fill="#1d1d1b"/><path d="M23.66,2.79c-.02.18-.01.36.06.53.14.32.39.5.74.54.04,0,.09,0,.14,0,0,.09,0,.17,0,.26-.12-.07-.27-.08-.4-.12-.43-.14-.7-.43-.77-.89-.02-.1,0-.21,0-.32.08,0,.15,0,.23,0Z" fill="#479ece"/><path d="M17.97,14.27c0,.06-.02.11-.05.16-.16.22-.31.43-.47.65-.01.02-.04.04-.06.04-.32.09-.65.1-.99.08-.67-.04-1.29-.25-1.88-.54-.38-.19-.75-.39-1.14-.58-.35-.17-.7-.34-1.06-.49-.07-.03-.16-.03-.24-.04-.51-.07-1-.21-1.46-.43-.5-.23-.94-.54-1.33-.93-.59-.6-.99-1.3-1.19-2.12-.1-.42-.15-.85-.14-1.28.02-.93.26-1.8.79-2.57.64-.93,1.51-1.54,2.59-1.86.42-.12.85-.19,1.29-.2.82-.02,1.6.15,2.33.53.9.46,1.6,1.14,2.05,2.04.23.46.38.94.44,1.45.1.75.04,1.49-.19,2.2-.22.65-.56,1.23-1.04,1.73-.56.58-1.23.97-2.01,1.16-.19.05-.39.07-.58.1,0,0-.02,0-.03.02.01,0,.02.02.04.02.35.08.69.2,1.01.36.32.16.65.31.99.43.37.13.75.22,1.14.24.4.02.78-.03,1.16-.17.01,0,.02,0,.02,0ZM9.25,7.32c-.03.09-.07.19-.1.28-.23.7-.26,1.42-.12,2.14.14.72.46,1.35.97,1.87.78.79,1.73,1.18,2.83,1.16.32,0,.64-.05.94-.14,1.14-.33,1.96-1.03,2.44-2.12.24-.53.33-1.1.32-1.68,0-.47-.07-.92-.23-1.36-.32-.91-.91-1.59-1.77-2.02-.83-.41-1.71-.53-2.62-.32-1.25.28-2.14,1.01-2.67,2.2Z" fill="#fefefe"/><path d="M21.43,16c-.06.04-.11.09-.17.12-.24.14-.51.21-.79.2-.35-.01-.66-.14-.93-.37-.28-.25-.45-.57-.49-.94-.08-.81.47-1.47,1.18-1.61.44-.08.84.01,1.19.29-.07.08-.15.15-.22.23-.21.25-.32.55-.33.88,0,.11,0,.22.03.33.05.28.18.53.38.74.05.05.09.09.14.14Z" fill="#d03732"/><path d="M21.45,13.68c.23-.18.48-.28.77-.3.46-.04.87.11,1.19.44.3.3.43.67.41,1.09-.03.68-.5,1.23-1.16,1.37-.44.09-.84,0-1.21-.28,0-.02.02-.03.03-.05.1-.08.19-.18.26-.29.22-.33.3-.69.24-1.07-.06-.34-.22-.63-.48-.87-.02-.02-.04-.04-.05-.06Z" fill="#e8a341"/><path d="M6.33,6.47c.18.04.36.04.54-.02-.02.02-.03.05-.05.07-.02.02-.04.05-.05.07-.05.12-.15.13-.26.13-.25,0-.47-.07-.69-.18-.18-.09-.36-.19-.55-.27-.06-.03-.13-.03-.2-.04-.51-.12-.86-.42-1.01-.93-.15-.52-.03-.99.37-1.37.63-.58,1.66-.44,2.1.28.37.61.2,1.51-.52,1.87-.12.06-.24.1-.37.11.23.09.46.18.7.27ZM5.95,5.85c.14-.09.25-.2.33-.34.15-.25.18-.52.14-.8-.04-.26-.16-.47-.36-.64-.17-.14-.36-.21-.57-.23-.36-.04-.67.07-.92.32-.18.18-.27.4-.29.65-.03.32.05.61.27.85.36.4.92.47,1.4.19Z" fill="#e28b33"/><path d="M21.44,13.68s.04.04.06.06c.26.24.42.52.48.87.06.39-.02.75-.24,1.07-.07.11-.16.2-.26.29-.01.01-.02.03-.03.04,0,0-.01,0-.02,0-.05-.05-.1-.09-.15-.14-.2-.21-.33-.45-.38-.74-.02-.11-.03-.22-.03-.33,0-.33.11-.63.33-.88.07-.08.15-.15.22-.23,0,0,.01,0,.02-.01Z" fill="#d76136"/><path d="M6.96,17.12c.06-.08.12-.16.19-.22.29-.26.63-.39,1.02-.36.44.03.8.21,1.05.58-.11,0-.21,0-.32,0-.04-.04-.07-.07-.11-.1-.26-.21-.56-.28-.89-.23-.24.04-.45.15-.63.34-.11,0-.21,0-.31,0Z" fill="#e28b33"/><path d="M8.84,2.8c.06,0,.13,0,.19,0-.13.1-.21.23-.24.39-.06.36.26.69.62.63.22-.04.38-.17.44-.39.06-.22.02-.43-.16-.59-.02-.01-.03-.03-.05-.04.06,0,.12,0,.19,0,.25.24.25.64.05.89-.09.11-.21.19-.35.22-.02,0-.03,0-.04.01.07.03.14.07.21.1.12.05.24.07.38.03,0,0,0,0,0,0-.02.04-.04.08-.07.1-.03.02-.08.03-.12.03-.15,0-.28-.06-.4-.13-.11-.06-.22-.1-.33-.13-.5-.12-.68-.74-.32-1.12Z" fill="#c72a6b"/><path d="M18.98,5.12c-.12.08-.24.15-.36.22-.07.05-.14.1-.2.17-.03.04-.05.1-.06.15-.01.08-.07.15-.15.14-.08,0-.13-.07-.13-.15,0-.14.06-.26.15-.36.1-.1.21-.18.33-.25.1-.06.2-.12.29-.19.08-.06.12-.13.12-.23,0-.08.07-.14.15-.14.08,0,.13.06.13.15,0,.16-.07.29-.18.4-.03.03-.07.06-.1.09Z" fill="#489fd9"/><path d="M23.04,8.47c-.04.15-.1.29-.17.43-.03.06-.09.08-.14.05-.05-.03-.06-.08-.03-.14.14-.25.21-.51.2-.79,0-.27-.07-.52-.2-.76-.03-.06-.02-.11.03-.14.05-.03.1-.01.13.04.11.18.18.38.21.59.04.24.03.48-.03.72Z" fill="#fbfbfb"/><path d="M16.82,17.12c.05-.34.31-.59.64-.65.16-.03.32-.01.47.05.02,0,.03.03.04.04.02,0,.05,0,.07.02.2.12.32.31.36.54-.05,0-.11,0-.16,0-.03-.16-.1-.29-.23-.39-.01-.01-.02-.03-.03-.04-.02,0-.04,0-.05,0-.12-.06-.25-.08-.38-.07-.27.02-.52.24-.56.51-.06,0-.12,0-.17,0Z" fill="#80ac41"/><path d="M22.43,7.61c-.03-.06-.05-.11-.08-.16-.03-.06-.02-.12.03-.14.05-.03.1,0,.13.05.14.25.2.51.18.79-.02.21-.07.4-.18.58-.04.06-.1.07-.15.03-.04-.03-.04-.07-.02-.13.08-.14.13-.29.15-.45.02-.19,0-.38-.07-.57Z" fill="#fbfbfb"/><path d="M2.52,12.48s-.09-.02-.13-.04c-.22-.06-.36-.25-.35-.48.01-.24.19-.42.42-.44.23-.03.41.1.49.26.09.19.05.41-.1.54-.06.05-.13.08-.2.13.11.06.23.12.38.08-.02.07-.05.1-.12.09-.06,0-.13-.02-.19-.04-.07-.03-.14-.06-.21-.1ZM2.52,12.38c.2,0,.37-.15.38-.34.02-.22-.1-.39-.32-.42-.23-.04-.42.12-.44.35-.02.26.19.42.38.41Z" fill="#7faa40"/><path d="M19.68,9.82c-.03.07-.07.1-.14.09-.07-.02-.14-.03-.2-.06-.1-.05-.21-.09-.32-.12-.23-.06-.36-.28-.33-.52.03-.23.23-.4.47-.4.23,0,.44.16.48.38.04.24-.09.47-.33.53,0,0-.02,0-.03,0,.13.06.25.13.4.09,0,0,0,0,0,0ZM18.83,9.07s-.01.02-.02.03c-.13.26.06.58.35.57.15,0,.26-.07.33-.21.07-.14.06-.28-.02-.41-.13-.21-.48-.23-.64.02Z" fill="#efc242"/><path d="M7.4,13.7c-.05.09-.08.11-.18.08-.08-.02-.16-.06-.24-.08-.08-.03-.15-.06-.23-.08-.24-.06-.38-.27-.35-.53.02-.22.22-.4.45-.4.2,0,.35.07.44.25.09.16.08.33-.03.49-.07.1-.16.16-.28.18q.27.11.41.09s0,0,0,0ZM7.05,12.8c-.28-.12-.58.08-.55.4.02.23.24.39.47.34.15-.04.27-.17.29-.32.02-.19-.05-.33-.21-.42Z" fill="#c72a6b"/><path d="M2.49,3.49c.13-.16.3-.22.49-.18.18.04.3.15.35.33.07.26-.08.51-.34.58.13.06.25.14.4.09-.04.08-.05.1-.13.09-.06,0-.13-.02-.19-.04-.05-.02-.1-.05-.14-.07-.06-.02-.11-.05-.17-.06-.34-.09-.47-.45-.27-.74ZM3.23,3.61s-.06-.1-.1-.13c-.12-.11-.3-.12-.45-.04-.13.08-.2.23-.18.4.04.26.31.4.55.29.18-.09.26-.3.18-.51Z" fill="#7faa40"/><path d="M23.9,11.17c-.05.09-.07.1-.17.08-.07-.02-.14-.04-.21-.07-.09-.04-.17-.08-.27-.1-.23-.06-.36-.24-.35-.49,0-.21.17-.39.39-.43.2-.04.41.06.5.23.1.18.08.4-.06.56-.05.05-.1.08-.23.13.12.07.24.13.39.09,0,0,0,0,0,0ZM23.1,10.89c.1.09.21.13.34.1.15-.03.25-.12.29-.27.04-.16.01-.3-.12-.41-.16-.13-.4-.11-.53.04-.13.15-.13.39.02.54Z" fill="#c72a6b"/><path d="M12.49,17.12c-.1-.05-.19-.1-.31-.13-.24-.05-.39-.27-.37-.51.03-.24.23-.42.47-.42.23,0,.44.17.47.39.04.25-.09.46-.34.53,0,0,0,0-.01,0,.13.06.25.13.41.09-.01.02-.02.03-.03.05-.1,0-.2,0-.3,0ZM12.42,16.89c.15-.06.23-.16.25-.31.02-.18-.06-.38-.29-.43-.2-.05-.4.06-.46.26-.04.14-.02.28.08.39.11.12.25.15.41.1Z" fill="#479ece"/><path d="M15.43,2.8s.06,0,.1,0c0,.01-.01.02-.02.03-.12.17-.08.42.09.54.17.12.4.09.53-.08.09-.12.12-.34-.01-.5.03,0,.07,0,.11,0,.11.18.12.36,0,.54-.06.1-.16.15-.28.18.13.07.26.13.41.09-.06.11-.06.11-.21.08-.08-.02-.16-.06-.24-.09-.06-.02-.13-.05-.19-.07-.33-.08-.46-.43-.29-.73Z" fill="#efc242"/><path d="M22.1,7.91c-.02-.11-.05-.21-.11-.29-.03-.04,0-.1.04-.13.05-.03.1-.01.13.03.06.1.11.22.13.34.04.24,0,.46-.12.67-.02.04-.05.06-.1.06-.04,0-.07-.02-.08-.06,0-.03,0-.07,0-.1.09-.16.13-.34.1-.53Z" fill="#fbfbfb"/><path d="M18.26,5.03c-.11-.11-.18-.24-.18-.4,0-.08.06-.14.14-.14.08,0,.14.06.14.14,0,.12.07.2.16.27.01.01.03.02.05.04-.08.05-.16.1-.24.15-.01,0-.05-.03-.07-.04Z" fill="#cd2c47"/><path d="M19.26,5.6s0,.05,0,.07c0,.08-.05.14-.12.14-.08,0-.15-.04-.15-.12,0-.14-.08-.22-.19-.3,0,0-.01,0-.02-.02.08-.05.16-.1.24-.15,0,0,.04,0,.05.02.1.09.18.2.2.35Z" fill="#cd2c47"/><path d="M21.69,8.18c.05-.14.04-.26-.04-.38-.03-.05-.02-.1.02-.14.04-.03.1-.02.14.02.15.18.15.5,0,.68-.04.05-.1.06-.14.03-.04-.03-.05-.08-.02-.14.01-.03.03-.05.04-.08Z" fill="#fbfbfb"/><path d="M11.35,13.46c.09.05.12.12.11.2-.01.08-.07.14-.16.15-.05,0-.11,0-.16.01v-.39c.07,0,.15-.01.22.02ZM11.28,13.78c.1-.03.14-.09.12-.18-.02-.08-.1-.13-.21-.11v.3s.06,0,.09,0Z" fill="#ebebeb"/><path d="M10.65,13.98v-.07s.03,0,.05,0v.39s-.03,0-.04,0v-.17h-.22v.17h-.05v-.38s.03,0,.04,0v.17h.22v-.1Z" fill="#ebebeb"/><path d="M22.46,4.95v-.37c.06.03.08.09.11.13.03.04.06.09.1.14.03-.05.06-.1.1-.14.03-.04.05-.1.11-.13v.13c0,.09,0,.17,0,.26,0,.02,0,.04-.04.03v-.32s0,0,0,0c-.04.06-.08.11-.12.17-.05.07-.05.07-.09,0-.04-.06-.08-.11-.12-.18,0,.02,0,.03,0,.04,0,.09,0,.17,0,.26,0,.01-.01.02-.02.04,0,0-.01,0-.02,0v-.05Z" fill="#e2e2e2"/><path d="M10.97,14.12c.04.06.08.11.12.16-.04.02-.07,0-.09-.03-.02-.04-.05-.07-.08-.11-.02-.03-.04-.04-.08-.03v.17s-.03,0-.05,0v-.39s.1,0,.14,0c.04,0,.07.03.08.07,0,.04,0,.08-.03.11-.01,0-.02.02-.03.03ZM10.95,14.07s.04-.05.02-.08c-.03-.04-.07-.03-.11-.03v.13s.06,0,.09-.02Z" fill="#f1f1f1"/><path d="M11.19,14.15c0,.08.06.1.12.1.06,0,.09-.04.1-.1,0-.08,0-.16,0-.24.02,0,.03,0,.05,0,0,.09,0,.18,0,.27,0,.08-.07.13-.17.12-.08,0-.13-.06-.13-.14,0,0,0-.02,0-.02v-.23s.03,0,.05,0c0,.08,0,.16,0,.24Z" fill="#e5e5e5"/><path d="M20.44,4.67c.07.09.13.17.19.25,0,0,0,0,.01,0v-.13c0-.06,0-.12,0-.17,0-.01.01-.02.02-.03,0,0,0,0,.01,0v.42s-.04-.02-.05-.04c-.08-.1-.16-.21-.25-.32v.34s-.01,0-.02,0c0-.01-.02-.02-.02-.03,0-.13,0-.25,0-.39.06,0,.06.06.09.09Z" fill="#e5e5e5"/><path d="M21.09,5.44c.04.05.08.1.12.16,0,0,0,0,.01,0v-.13c0-.06,0-.12,0-.17,0-.01.01-.02.02-.03,0,.01.02.02.02.03,0,.12,0,.25,0,.39-.02-.02-.04-.02-.05-.04-.08-.1-.16-.21-.24-.32v.34s0,0-.01.01c0,0-.03-.02-.03-.03,0-.13,0-.25,0-.4.02.01.04.02.05.03.04.05.08.1.12.16Z" fill="#e2e2e2"/><path d="M21.88,5h-.19v-.42c.09,0,.17,0,.25,0,0,0,.01.02.03.04h-.24v.15c.06,0,.12,0,.18,0,.01,0,.02.01.04.02,0,0,0,.01,0,.02h-.21v.15c.07,0,.14,0,.2,0,.01,0,.03.01.04.02,0,0,0,.01,0,.02h-.09Z" fill="#ebebeb"/><path d="M20.27,5.56c-.06-.08-.11-.15-.18-.24v.34s0,0-.01,0c0,0-.03-.02-.03-.03,0-.13,0-.26,0-.4.03.02.04.03.05.04.08.1.16.21.25.32v-.12c0-.06,0-.13,0-.19,0-.01.01-.03.02-.04,0,0,.01,0,.02,0v.41c-.07,0-.08-.08-.12-.11Z" fill="#f1f1f1"/><path d="M21.88,5.26s.08,0,.11,0c.01,0,.02.01.03.02,0,0,0,0,0,.01h-.23v.14c.07,0,.15.01.22.02,0,0,0,.01,0,.03h-.22v.15c.07,0,.14,0,.21,0,.03,0,.04,0,.03.04h-.28v-.41h.13Z" fill="#e5e5e5"/><path d="M19.84,4.84c-.02-.16.07-.27.22-.26.11,0,.2.09.2.2,0,.11-.08.2-.19.22-.11.01-.19-.04-.23-.16ZM20.22,4.74s0-.02,0-.03c-.03-.08-.11-.12-.2-.1-.08.02-.14.09-.14.17,0,.09.05.16.14.18.13.03.24-.06.22-.22Z" fill="#eee"/><path d="M22.31,4.92s.05.05.07.08c0,0,0,0,0,.01-.02,0-.03-.01-.05-.02-.03-.02-.05-.05-.07-.08-.04-.07-.1-.07-.16-.06,0,.05-.01.11-.02.16,0,0-.01,0-.02,0v-.4c.07,0,.13,0,.2,0,.07,0,.1.05.11.11,0,.06-.03.1-.09.12,0,0-.01,0-.02,0,.02.03.04.05.06.08ZM22.25,4.62h-.16v.17c.05,0,.1,0,.15,0,.06,0,.09-.03.09-.08,0-.05-.02-.08-.08-.09Z" fill="#e5e5e5"/><path d="M20.51,5.64s-.03.03-.04.04c0,0,0,0-.01-.01.05-.1.09-.2.14-.3.01-.03.02-.05.04-.08,0-.01.02-.02.03-.02.01,0,.03.01.03.02.06.12.11.25.16.38-.01,0-.03-.02-.04-.03-.02-.07-.06-.09-.13-.08-.02,0-.04,0-.06,0-.06-.01-.1.01-.12.08ZM20.63,5.53h.12c-.03-.07-.06-.14-.1-.21-.03.08-.06.14-.09.21h.07Z" fill="#f1f1f1"/><path d="M20.86,4.66c-.06.07-.08.17-.03.23.04.07.14.1.22.07.01,0,.03-.03.03-.04,0-.05,0-.09,0-.14,0,0,0,0,.01,0,0,.01.02.02.02.03,0,.04,0,.08,0,.12,0,.05-.02.07-.06.08-.12.03-.25-.02-.28-.12-.03-.08-.02-.17.05-.23.07-.07.16-.08.25-.05.01,0,.02.02.02.03-.08-.03-.16-.03-.24.02Z" fill="#ebebeb"/><path d="M10.38,13.81s-.03.01-.06.02c.06-.14.11-.27.16-.4,0,0,.01,0,.02,0,.05.13.11.26.16.39t-.1-.09s-.04,0-.06,0c-.07-.01-.12.01-.13.09ZM10.55,13.66s-.04-.08-.06-.13c-.02.06-.04.1-.06.16.04,0,.07,0,.1,0,0,0,.01-.01.02-.02Z" fill="#f1f1f1"/><path d="M4.45,12.81s0,.05,0,.07c.1.01.15.05.15.14,0,.07-.05.12-.11.12-.04,0-.09-.04-.09-.08.05.01.1.04.14-.01.01-.02.01-.06,0-.08-.03-.05-.08-.04-.13-.03v-.19h.17s0,.03-.01.05c-.03,0-.06,0-.08,0,0,0-.02.01-.02.03Z" fill="#f1f1f1"/><path d="M19.59,5.38v.07c.07,0,.13,0,.19,0,.01,0,.02,0,.03.01,0,0,0,.01,0,.02h-.22v.18s0,0-.01.01c0,0-.03-.02-.03-.03,0-.13,0-.25,0-.39.09,0,.17,0,.26,0,0,0,.02.02.03.04h-.25v.08Z" fill="#e5e5e5"/><path d="M10.13,13.64s.02.06.04.1c.03-.07.05-.14.08-.2,0-.02.01-.04.03-.06,0-.01.03-.02.04-.04,0,0,.01,0,.02.01-.05.13-.1.26-.15.39h-.02c-.05-.13-.1-.26-.15-.39.04-.01.06,0,.07.03.02.05.04.1.06.16Z" fill="#f1f1f1"/><path d="M10.28,13.95h-.09v.34h-.05v-.34h-.13v-.05h.31s0,.05-.04.05Z" fill="#ebebeb"/><path d="M4.94,12.77s-.05,0-.08,0c0,0,0-.02-.01-.04.03,0,.06-.01.09-.01.04,0,.07.02.08.06.01.04,0,.08-.04.1.07.06.09.11.06.17-.02.05-.09.08-.15.07-.04,0-.04-.03-.04-.05.04,0,.09-.01.13-.02.01,0,.02-.03.03-.04,0-.05-.02-.08-.09-.09,0-.01,0-.03-.01-.04.04-.03.11-.04.04-.1Z" fill="#f1f1f1"/><path d="M21.37,5.45c0,.16.12.23.3.18,0,.01-.02.03-.03.03-.09.04-.17.03-.24-.04-.07-.06-.08-.14-.06-.22.02-.09.09-.14.18-.15.04,0,.08,0,.12.01.01,0,.02.02.03.04-.07-.02-.14-.03-.21,0-.05.03-.07.08-.08.13Z" fill="#ebebeb"/><path d="M10.9,13.78s.05,0,.04.04h-.22v-.38s.03,0,.05,0v.35h.13Z" fill="#e5e5e5"/><path d="M5.18,12.97c.03-.06.05-.13.08-.19h-.18s0-.03,0-.05h.26c-.03.07-.06.13-.08.2-.02.05-.04.1-.06.15-.01.04-.03.05-.08.04.02-.05.04-.09.06-.14Z" fill="#fbfbfb"/><path d="M19.59,4.94s.03.02.04.02c.06,0,.11,0,.17,0,.01,0,.02.01.04.02,0,0,0,0,0,.01h-.28v-.14c0-.08,0-.16,0-.24,0-.01.01-.02.02-.04,0,0,.01,0,.02,0,0,.12,0,.23,0,.36Z" fill="#e5e5e5"/><path d="M21.29,4.61s.02-.02.03-.02c.09,0,.18,0,.27,0,.01,0,.03.01.04.02,0,0,0,.01,0,.02h-.15c0,.12,0,.23,0,.34,0,.01,0,.02-.01.04,0,0-.01,0-.02,0v-.37s-.08,0-.11,0c-.01,0-.03,0-.04-.02Z" fill="#dcdcdc"/><path d="M4.71,12.94v-.17h-.07s.03-.05.13-.05v.38h-.05v-.17Z" fill="#ebebeb"/><path d="M11,13.48s.02-.04.05-.03v.38h-.05c0-.12,0-.23,0-.35Z" fill="#fff"/><path d="M19.94,5.56s0,.05,0,.08c0,.01-.01.02-.02.03,0,0,0,0-.01,0v-.4s0,0,.01,0c0,.01.02.02.02.04,0,.09,0,.18,0,.27Z" fill="#e2e2e2"/><path d="M23.76,15.75s-.04,0-.06,0c0-.01,0-.02,0-.04,0,0,0,0,0,0,0,.01,0,.03-.02.05,0-.02-.01-.04-.02-.07.03,0,.06.01.1.02,0,0,0,0,.02-.01,0,0,.01,0,.01,0,0,.02,0,.03-.01.04Z" fill="#d76136"/><path d="M17.97,14.27s-.01,0-.02,0c.03-.02.07-.03.12-.05-.03.04-.05.07-.07.1,0-.02-.02-.03-.03-.04Z" fill="#d2d2d2"/><path d="M19.68,9.82s0,0,0,0c0,0,0,0,0,0,0,0,0,0,0,0Z" fill="#efc242"/><path d="M23.9,11.17s0,0,0,0c0,0,0,0,0,0,0,0,0,0,0,0Z" fill="#c72a6b"/><path d="M7.4,13.71s0,0,0,0c0,0,0,0,0,0Z" fill="#c72a6b"/><path d="M10.09,4.05s0,0,0,0c0,0,0,0,0,0,0,0,0,0,0,0Z" fill="#c72a6b"/><path d="M9.64,2.79s.04.03.05.04c.18.16.22.36.16.59-.06.22-.21.35-.44.39-.36.06-.68-.27-.62-.63.03-.16.1-.29.24-.39.2,0,.4,0,.6,0Z" fill="#1d1d1b"/><path d="M16.11,2.8c.13.16.11.38.02.5-.13.17-.36.2-.53.08-.17-.12-.21-.37-.09-.54,0-.01.02-.02.02-.03.19,0,.38,0,.58,0Z" fill="#1e1e1b"/><path d="M9.25,7.31c.52-1.18,1.42-1.91,2.67-2.19.91-.2,1.79-.09,2.62.32.86.43,1.45,1.11,1.77,2.02.15.44.22.9.23,1.36,0,.58-.08,1.15-.32,1.68-.48,1.09-1.31,1.79-2.44,2.12-.31.09-.62.14-.94.14-1.11.01-2.06-.37-2.83-1.16-.51-.52-.83-1.15-.97-1.87-.14-.72-.11-1.44.12-2.14.03-.09.07-.19.11-.28ZM12.79,8.79c.07-.05.16-.09.22-.15.23-.22.33-.49.31-.81-.02-.31-.15-.55-.4-.73-.23-.16-.48-.22-.76-.19-.24.03-.45.13-.62.31-.22.23-.3.52-.26.84.05.43.38.77.8.85.1.02.19.05.28.09.12.06.25.12.37.18.15.07.31.11.48.09.03,0,.08,0,.1-.03.05-.05.09-.11.13-.18-.19.07-.36.05-.53-.02-.13-.05-.27-.11-.38-.16.07-.03.17-.06.26-.09Z" fill="#1d1d1b"/><path d="M5.94,5.85c-.47.28-1.04.21-1.4-.19-.22-.24-.29-.53-.27-.85.02-.25.11-.47.29-.65.25-.26.56-.36.92-.32.21.02.41.1.57.23.2.17.32.38.36.64.04.28.01.55-.14.8-.08.14-.2.25-.34.35Z" fill="#1d1d1b"/><path d="M8.89,17.12c-.53,0-1.07,0-1.61,0,.16-.19.37-.3.62-.34.33-.05.63.02.89.23.04.03.07.07.11.1Z" fill="#1e1e1b"/><path d="M18.24,17.12c-.41,0-.82,0-1.24,0,.03-.27.28-.5.55-.51.13,0,.26,0,.38.07.01,0,.03,0,.05,0,0,.01.01.03.03.04.13.1.2.23.23.39Z" fill="#1e1e1b"/><path d="M2.51,12.38c-.18,0-.4-.16-.37-.41.02-.24.22-.39.44-.35.21.04.34.2.32.42-.02.2-.18.34-.39.34Z" fill="#1e1e1b"/><path d="M18.83,9.06c.16-.24.51-.22.64-.01.08.13.09.27.02.41-.07.13-.18.2-.33.21-.29.01-.48-.31-.35-.57,0-.01.01-.02.02-.03Z" fill="#1e1e1b"/><path d="M7.05,12.81c.16.08.23.23.21.41-.02.15-.14.28-.29.32-.22.05-.45-.11-.47-.34-.03-.31.26-.51.55-.39Z" fill="#1e1d1c"/><path d="M3.23,3.61c.08.22,0,.42-.18.51-.23.12-.51-.03-.55-.29-.02-.17.05-.32.18-.4.15-.08.32-.07.45.04.04.04.07.09.1.14Z" fill="#1e1e1b"/><path d="M23.1,10.89c-.14-.15-.15-.39-.01-.54.13-.15.38-.17.53-.04.13.11.16.26.12.41-.04.15-.14.24-.29.27-.13.03-.25,0-.34-.1Z" fill="#1e1d1c"/><path d="M12.42,16.89c-.16.04-.29.01-.4-.1-.1-.11-.13-.24-.08-.39.06-.19.26-.3.46-.26.23.05.31.25.29.43-.02.15-.11.26-.26.32Z" fill="#1d1d1b"/><path d="M11.28,13.78s-.06,0-.09,0v-.3c.11-.01.2.03.21.11.02.09-.02.15-.12.18Z" fill="#1e1e1b"/><path d="M10.95,14.07s-.06.01-.09.02v-.13s.08-.01.11.03c.02.03.01.06-.02.09Z" fill="#1e1e1b"/><path d="M20.23,4.75c.03.15-.09.25-.22.22-.08-.02-.14-.09-.14-.18,0-.09.06-.16.14-.17.09-.02.17.02.2.1,0,0,0,.02.01.03Z" fill="#1e1e1b"/><path d="M22.26,4.62c.05.01.07.04.07.09,0,.05-.03.07-.09.08-.05,0-.1,0-.15,0v-.17c.05,0,.11,0,.16,0Z" fill="#1e1e1b"/><path d="M20.63,5.53h-.06c.03-.07.06-.14.09-.21.03.07.06.14.1.21h-.13Z" fill="#1e1e1b"/><path d="M10.55,13.66s-.01.02-.02.02c-.03,0-.06,0-.1,0,.02-.05.04-.1.06-.16.02.05.04.09.06.13Z" fill="#1e1e1b"/><path d="M12.78,8.79c-.1.03-.19.07-.26.09.12.05.25.11.38.16.17.07.34.08.53.02-.05.07-.09.13-.13.18-.02.02-.07.02-.1.03-.17.01-.33-.02-.48-.09-.12-.06-.25-.12-.37-.18-.09-.05-.18-.08-.28-.09-.42-.08-.75-.42-.8-.85-.04-.32.04-.6.26-.84.17-.18.38-.28.62-.31.28-.03.53.03.76.19.25.18.38.43.4.73.02.32-.08.59-.31.81-.06.06-.15.1-.22.16ZM12.35,7.07s-.07,0-.11,0c-.2.01-.37.09-.51.22-.35.33-.33.92.03,1.24.31.28.81.27,1.11-.02.2-.2.27-.44.24-.72-.04-.41-.34-.7-.76-.72Z" fill="#80ac41"/><path d="M12.35,7.07c.41.02.71.31.75.72.03.28-.04.52-.24.72-.3.29-.8.3-1.11.02-.36-.32-.37-.91-.03-1.24.14-.14.31-.21.51-.22.04,0,.07,0,.11,0Z" fill="#1d1d1b"/></svg>