<svg xmlns="http://www.w3.org/2000/svg" width="38" height="24" fill="none" aria-labelledby="pi-qliro" role="img" viewBox="0 0 38 24"><title id="pi-qliro">Qliro</title><path fill="#000" d="M0 0h38v24H0z"/><path fill="#00FFC2" d="M10.52 15.04h-.08l.64 1.36H9.46l-.63-1.36h-.39c-.47 0-.84-.13-1.1-.38-.25-.25-.38-.62-.38-1.1V9.43c0-.47.13-.84.38-1.1s.62-.38 1.1-.38h2.09c.47 0 .84.13 1.1.38.25.25.38.62.38 1.1v4.13c0 .47-.13.84-.38 1.1-.25.25-.62.38-1.1.38zM8.49 9.52v3.95c0 .17.08.25.25.25h1.47c.17 0 .25-.08.25-.25V9.52c0-.17-.08-.25-.25-.25H8.74c-.17 0-.25.08-.25.25M12.88 15V7.99h1.54v5.67h2.68v1.33h-4.21zm4.9 0V7.99h1.54V15zm5.81 0-.79-2.64h-.99V15h-1.54V7.99h3.47c.47 0 .84.13 1.1.38.25.25.38.62.38 1.1v1.42c0 .74-.29 1.2-.88 1.4l.9 2.71h-1.66zm-.16-5.7h-1.62v1.76h1.62c.17 0 .25-.08.25-.25V9.55c0-.17-.08-.25-.25-.25m6.14 5.74h-2.09c-.47 0-.84-.13-1.1-.38s-.38-.62-.38-1.1V9.43c0-.47.13-.84.38-1.1.25-.25.62-.38 1.1-.38h2.09c.47 0 .84.13 1.1.38.25.25.38.62.38 1.1v4.13c0 .47-.13.84-.38 1.1-.26.25-.62.38-1.1.38m-2.03-5.52v3.95c0 .17.08.25.25.25h1.47c.17 0 .25-.08.25-.25V9.52c0-.17-.09-.25-.25-.25h-1.47c-.17 0-.25.08-.25.25"/></svg>