<svg xmlns="http://www.w3.org/2000/svg" width="38" height="24" aria-labelledby="pi-qnb"><path d="M35 0H3C1.3 0 0 1.3 0 3v18c0 1.7 1.4 3 3 3h32c1.7 0 3-1.3 3-3V3c0-1.7-1.4-3-3-3z" opacity=".07"/><path fill="#fff" d="M35 1c1.1 0 2 .9 2 2v18c0 1.1-.9 2-2 2H3c-1.1 0-2-.9-2-2V3c0-1.1.9-2 2-2h32"/><g style="fill:#00295b;fill-opacity:1"><path d="M0 0c.094.554.154 1.122.154 1.699 0 .513-.052 1.016-.122 1.51h-4.04c.547.541 1.825 1.831 3.101 3.104A10.652 10.652 0 0 1-2.672 8.92l-6.139-6.144a1.47 1.47 0 0 1-.456-1.077c0-.414.161-.829.457-1.117l6.118-6.125A10.6 10.6 0 0 1-.921-2.939C-2.126-1.744-3.486-.518-4.008 0H0z" style="fill:#00295b;fill-opacity:1;fill-rule:nonzero;stroke:none" transform="matrix(.46296 0 0 -.46296 10.756 13.537)"/></g><g style="fill:#00295b;fill-opacity:1"><path d="M0 0c0 .424-.163.786-.463 1.077l-6.142 6.144A10.71 10.71 0 0 1-8.37 4.614l3.105-3.105h-4.046A10.867 10.867 0 0 1-9.432 0c0-.577.061-1.146.15-1.699h4.017c-.518-.519-1.886-1.74-3.091-2.939a10.674 10.674 0 0 1 1.773-2.604l6.12 6.124C-.167-.829 0-.414 0 0" style="fill:#00295b;fill-opacity:1;fill-rule:nonzero;stroke:none" transform="matrix(.46296 0 0 -.46296 5.308 12.75)"/></g><g style="fill:#00295b;fill-opacity:1"><path d="M0 0c-.416 0-.807-.161-1.1-.457l-6.115-6.116a10.522 10.522 0 0 1 2.6-1.771c1.27 1.271 2.54 2.537 3.079 3.079v-4.014A10.213 10.213 0 0 1 0-9.404c.572 0 1.127.06 1.67.143v3.996c.521-.514 1.745-1.88 2.938-3.079a10.585 10.585 0 0 1 2.606 1.771L1.09-.461C.8-.161.418 0 0 0" style="fill:#00295b;fill-opacity:1;fill-rule:nonzero;stroke:none" transform="matrix(.46296 0 0 -.46296 5.885 13.338)"/></g><path d="M0 0c.428 0 .824.17 1.117.475l6.131 6.126a10.824 10.824 0 0 1-2.654 1.806c-.895-.899-2.212-2.31-2.939-3.035v1.757c0 .887-.75 1.601-1.65 1.601-.9 0-1.557-.702-1.567-1.579V5.372c-.834.827-2.194 2.19-3.032 3.035a10.936 10.936 0 0 1-2.657-1.806L-1.118.468A1.574 1.574 0 0 1 0 0" style="fill:#c60751;fill-opacity:1;fill-rule:nonzero;stroke:none" transform="matrix(.46296 0 0 -.46296 5.885 12.186)"/><g style="fill:#00295b;fill-opacity:1"><path d="M0 0c5.163 0 8.489-3.621 8.489-8.553 0-2.791-.767-4.868-1.883-6.042l2.009-1.775-2.034-1.937-2.113 1.871c-1.215-.697-2.283-1.155-4.541-1.155-5.185 0-8.539 3.364-8.539 8.805C-8.612-3.642-5.461 0 0 0m-.098-14.572c.718 0 1.517.161 2.035.437L.125-12.517l1.987 1.914 1.762-1.595c.421.878.695 1.569.767 3.371 0 3.555-1.463 5.765-4.692 5.765-2.875 0-4.713-1.941-4.713-5.724 0-3.854 1.936-5.786 4.666-5.786" style="fill:#00295b;fill-opacity:1;fill-rule:nonzero;stroke:none" transform="matrix(.46296 0 0 -.46296 17.251 8.513)"/></g><g style="fill:#00295b;fill-opacity:1"><path d="m0 0 6.949-11.415V0h3.577v-16.604H6.705L-.398-4.982v-11.622h-3.595V0H0z" style="fill:#00295b;fill-opacity:1;fill-rule:nonzero;stroke:none" transform="matrix(.46296 0 0 -.46296 23.85 8.757)"/></g><g style="fill:#00295b;fill-opacity:1"><path d="M0 0c4.2 0 6.107-1.57 6.107-4.336 0-1.36-.377-2.468-2.162-3.364 1.565-.507 2.706-1.798 2.706-3.873 0-2.423-1.364-5.031-6.674-5.031h-8.146V0H0zm-4.516-6.498h4.391c1.787 0 2.532.568 2.532 1.792 0 1.152-.696 1.737-3.052 1.737h-3.871v-3.529zm0-7.129H-.2c1.991 0 2.957.622 2.957 2.306 0 1.29-.871 1.985-2.858 1.985h-4.415v-4.291z" style="fill:#00295b;fill-opacity:1;fill-rule:nonzero;stroke:none" transform="matrix(.46296 0 0 -.46296 33.296 8.757)"/></g></svg>