<svg viewBox="0 0 38 24" xmlns="http://www.w3.org/2000/svg" height="24" width="38" role="img" aria-labelledby="pi-qpay"><title id="pi-qpay">QPay</title><g transform="translate(0.000000,270.000000) scale(0.100000,-0.100000)"
fill="#000000" stroke="none"><path d="M1306 2663 c-1 -2 -38 -7 -82 -13 -102 -14 -227 -52 -334 -103 -328 -156 -593 -466 -679 -794 -6 -24 -15 -60 -21 -80 -55 -214 -30 -527 60 -743 75 -180 149 -291 289 -431 171 -170 320 -257 566 -328 233 -67 553 -51 777 40 44 18 48 18 85 2 21 -9 58 -24 83 -33 25 -10 109 -43 188 -75 198 -79 210 -71 105 70 -130 175 -313 422 -405 544 -120 161 -152 176 -265 125 -90 -41 -151 -54 -248 -54 -100 1 -159 11 -222 40 -24 11 -45 20 -48 20 -16 0 -125 84 -166 127 -71 74 -107 134 -139 233 -53 164 -36 346 47 487 91 157 227 258 400 298 208 48 421 -18 578 -180 110 -114 167 -262 167 -432 -1 -51 4 -95 9 -98 8 -6 69 -19 148 -32 42 -7 48 3 57 90 l7 68 111 -3 111 -3 -3 -95 c-4 -103 -15 -129 -48 -112 -24 13 -157 36 -174 30 -8 -2 -21 -31 -30 -63 -22 -78 -35 -85 -102 -56 -137 61 -127 61 -157 3 -11 -21 -38 -62 -60 -92 l-41 -54 67 -68 c37 -38 75 -68 84 -68 9 0 34 23 55 50 21 28 44 50 51 50 7 0 50 -25 97 -55 99 -63 99 -66 25 -150 -27 -31 -49 -62 -49 -68 0 -17 119 -137 135 -137 28 0 153 160 140 180 -4 6 -38 31 -77 57 -38 25 -72 52 -75 59 -3 7 4 26 14 41 11 15 31 51 44 80 27 59 38 63 102 34 74 -34 116 -46 126 -36 14 16 48 124 61 195 6 36 16 84 21 107 18 80 11 261 -15 393 -39 195 -90 322 -199 485 -135 202 -325 354 -582 465 -78 34 -206 67 -290 75 -63 5 -295 12 -299 8z"/><path d="M3097 2152 c-16 -17 -17 -86 -17 -789 0 -645 2 -772 14 -782 9 -8 57 -11 147 -9 l134 3 3 268 2 267 152 0 c141 0 170 4 273 33 77 22 136 58 199 121 99 99 135 198 136 373 0 114 -12 184 -45 258 -48 107 -150 198 -270 240 -90 31 -134 35 -419 35 -271 0 -294 -1 -309 -18z m616 -245 c54 -32 78 -63 102 -132 40 -115 24 -253 -40 -345 -46 -66 -97 -83 -255 -84 l-135 -1 -3 285 c-1 157 0 291 3 299 4 11 32 13 144 9 127 -4 141 -6 184 -31z"/> <path d="M4590 1735 c-90 -18 -175 -42 -239 -67 l-53 -21 6 -46 c9 -64 52 -151 76 -151 20 0 94 19 175 44 28 9 91 19 140 22 104 6 143 -8 183 -67 19 -28 22 -44 20 -99 l-3 -65 -130 -2 c-71 0 -156 -6 -187 -12 -153 -28 -273 -127 -308 -253 -18 -68 -17 -184 4 -243 35 -103 113 -181 208 -210 62 -18 181 -20 246 -3 46 11 130 57 185 100 l27 22 43 -40 c56 -54 84 -70 134 -77 37 -6 45 -4 68 19 34 34 78 121 65 129 -19 12 -44 70 -51 120 -4 28 -9 187 -11 355 l-4 305 -26 55 c-43 88 -113 147 -219 184 -54 19 -254 20 -349 1z m294 -651 c13 -5 16 -24 16 -108 l0 -103 -41 -33 c-49 -39 -129 -70 -182 -70 -23 0 -53 10 -76 25 -34 21 -41 32 -52 80 -10 46 -10 63 0 93 34 95 82 122 223 122 53 0 103 -3 112 -6z"/> <path d="M5440 1735 c-87 -20 -98 -27 -90 -60 8 -32 43 -154 70 -245 17 -58 38 -132 46 -165 9 -33 19 -69 23 -80 5 -11 23 -72 41 -135 18 -63 40 -142 50 -175 10 -33 23 -80 30 -105 14 -56 47 -129 68 -153 21 -24 77 -47 113 -47 23 0 29 -4 29 -23 0 -26 -33 -119 -49 -139 -6 -7 -22 -27 -36 -44 -37 -46 -103 -74 -176 -74 -33 0 -68 4 -77 9 -10 5 -37 11 -62 13 -45 3 -45 3 -68 -43 -12 -25 -25 -69 -29 -97 l-6 -52 39 -17 c32 -14 71 -17 209 -18 169 0 170 0 230 30 107 53 163 124 255 325 11 24 65 203 99 330 18 63 40 144 50 180 10 36 29 103 41 150 12 47 30 112 40 145 9 33 32 114 50 180 17 66 41 148 51 182 22 73 24 97 6 111 -18 15 -162 25 -216 15 -41 -8 -45 -12 -57 -48 -15 -50 -29 -106 -45 -170 -6 -27 -15 -63 -20 -80 -5 -16 -22 -88 -39 -160 -17 -71 -35 -147 -40 -167 -38 -145 -62 -244 -67 -276 -5 -33 -20 -38 -34 -11 -4 8 -13 41 -19 74 -18 90 -82 342 -145 575 -58 213 -74 245 -138 269 -34 13 -56 13 -127 -4z"/></g></svg>