<svg xmlns="http://www.w3.org/2000/svg" width="38" height="24" fill="none" aria-labelledby="pi-qrcode"><g clip-path="url(#a)"><path fill="#000" d="M35 0H3C1.3 0 0 1.3 0 3v18c0 1.7 1.4 3 3 3h32c1.7 0 3-1.3 3-3V3c0-1.7-1.4-3-3-3Z" opacity=".07"/><path fill="#fff" d="M35 1c1.1 0 2 .9 2 2v18c0 1.1-.9 2-2 2H3c-1.1 0-2-.9-2-2V3c0-1.1.9-2 2-2h32Z"/><path fill="#000" d="M17.623 6.167H14.19a1.025 1.025 0 0 0-1.024 1.024v3.435c.001.565.46 1.024 1.024 1.024h3.433c.565 0 1.023-.459 1.024-1.024V7.19c0-.565-.459-1.024-1.024-1.024Zm.317 4.459a.318.318 0 0 1-.317.318H14.19a.318.318 0 0 1-.318-.318V7.19c0-.175.143-.318.318-.318h3.433c.175 0 .317.143.317.318v3.435Zm5.866-4.459h-3.433c-.565 0-1.023.459-1.024 1.024v3.435c0 .565.459 1.024 1.024 1.024h3.433c.565 0 1.023-.459 1.024-1.024V7.19c0-.565-.459-1.024-1.024-1.024Zm.318 4.459a.318.318 0 0 1-.318.318h-3.433a.318.318 0 0 1-.318-.318V7.19c0-.175.143-.318.318-.318h3.433c.175 0 .318.143.318.318v3.435Zm-6.501 1.724H14.19a1.025 1.025 0 0 0-1.024 1.024v3.434a1.026 1.026 0 0 0 1.024 1.025h3.433c.565 0 1.023-.459 1.024-1.024v-3.435c0-.565-.459-1.024-1.024-1.024Zm.317 4.459a.318.318 0 0 1-.317.318H14.19a.319.319 0 0 1-.318-.318v-3.435c0-.175.143-.318.318-.318h3.433c.175 0 .317.143.317.318v3.435Z"/><path fill="#000" d="M16.508 13.87h-1.202a.622.622 0 0 0-.62.62v1.203a.622.622 0 0 0 .62.62h1.202a.621.621 0 0 0 .62-.62v-1.202a.621.621 0 0 0-.62-.62Zm-.086 1.738H15.39v-1.032h1.032v1.032Zm.085-7.921h-1.201a.622.622 0 0 0-.62.62v1.202c0 .342.277.62.62.621h1.201a.622.622 0 0 0 .62-.621V8.307a.621.621 0 0 0-.62-.62Zm-.085 1.738H15.39V8.393h1.032v1.032Zm6.267-1.738h-1.2a.622.622 0 0 0-.62.62v1.202c0 .342.278.62.62.621h1.2c.342 0 .62-.279.62-.621V8.307a.622.622 0 0 0-.62-.62Zm-.085 1.738h-1.032V8.393h1.032v1.032Zm-1.132 2.925H20.3a.951.951 0 0 0-.95.95v1.103a.353.353 0 1 0 .706 0V13.3c0-.134.109-.244.244-.244h1.173a.353.353 0 0 0 0-.706ZM20.3 17.127a.244.244 0 0 1-.244-.244v-.918a.353.353 0 1 0-.705 0v.918c0 .525.425.95.95.95a.353.353 0 0 0 0-.706Zm3.58-4.777a.353.353 0 0 0 0 .706c.134.002.242.11.244.244v1.213a.353.353 0 1 0 .705 0V13.3a.951.951 0 0 0-.95-.95Zm.597 3.257h-1.838l-.196.034v-1.098a.353.353 0 1 0-.706 0v1.096c0 .371.301.671.672.672h1.715v.57a.247.247 0 0 1-.243.244h-1.79a.353.353 0 0 0 0 .706h1.792a.95.95 0 0 0 .95-.95v-.924a.353.353 0 0 0-.353-.35h-.003Z"/></g><defs><clipPath id="a"><path fill="#fff" d="M0 0h38v24H0z"/></clipPath></defs></svg>