<svg xmlns="http://www.w3.org/2000/svg" width="38" height="24" fill="none" aria-labelledby="pi-qris" role="img" viewBox="0 0 38 24"><title id="pi-qris">QRIS</title><path fill="#fff" d="M0 0h38v24H0z"/><path fill="#010101" d="M34.6 13.68v-3.23h-5.39V9.37h5.4V7.2h-8.64v5.39h5.4v1.08h-5.4v2.15h8.64v-2.15ZM24.9 7.2h-2.17v8.62h2.16V7.21Zm-11.88 0v2.16h6.48v1.08h-6.48v5.38h2.16v-3.2l3.24 3.2h3.23l-3.37-3.23h3.38V7.21h-8.64Zm-6.48 5.4H8.7v-2.15H6.54zm.54-1.62h1.08v1.08H7.08z"/><path fill="#010101" d="M5.46 7.21H3.58a.27.27 0 0 0-.27.27v8.08a.27.27 0 0 0 .27.27H8.7v-2.15H5.47V7.21Zm6.21 0H6.54v2.16h3.24v3.23h2.16V7.48a.27.27 0 0 0-.08-.19.28.28 0 0 0-.19-.08m.27 6.47H9.78v4.85h2.16z"/><path fill="#010101" d="M6.32 6H2.27a.27.27 0 0 0-.27.27v4.04h.54v-3.5a.27.27 0 0 1 .27-.27h3.51zm29.14 7v3.51a.27.27 0 0 1-.27.27h-3.51v.54h4.05a.27.27 0 0 0 .27-.27V13z"/></svg>