<svg xmlns="http://www.w3.org/2000/svg" width="38" height="24" fill="none" aria-labelledby="pi-qrph" role="img" viewBox="0 0 38 24"><title id="pi-qrph">QR Ph</title><path fill="#fff" d="M0 0h38v24H0z"/><path fill="#D01F2E" d="M13.72 8.64a3.5 3.5 0 0 0-1.53.53c-.29.22-.55.47-.76.75a3.3 3.3 0 0 0-.6 1.75c-.08.79.13 1.58.58 2.23a3.26 3.26 0 0 0 2.88 1.25c.25 0 .5-.04.76-.1.17.12.33.26.47.42l.44.42h1.07c.93 0 1.06 0 1.04-.03a48 48 0 0 0-.85-.77l-.81-.73.15-.15c.42-.44.7-.99.82-1.58.07-.42.08-.85.05-1.27a3.03 3.03 0 0 0-1.8-2.49 4.06 4.06 0 0 0-1.9-.23Zm.91 1.26a1.67 1.67 0 0 1 1.17 1.45c.07.47.04.95-.07 1.41-.13.42-.42.78-.8.98-.25.13-.52.18-.8.17a1.48 1.48 0 0 1-1.09-.4 1.93 1.93 0 0 1-.6-1.34c-.05-.47.03-.95.22-1.39a1.62 1.62 0 0 1 1.2-.92c.26-.02.52-.01.77.04m3.73 1.98v3.17h1.53V12.6h.28c.56.03.57.04 1.75 1.88l.37.56h1.74l-.04-.06-1.41-2.06a2.2 2.2 0 0 0-.75-.67c-.1-.04-.13-.08-.06-.08.24-.07.46-.17.67-.3.34-.22.6-.55.73-.94.05-.17.06-.34.05-.52.02-.18 0-.37-.06-.55a1.53 1.53 0 0 0-1.15-1c-.45-.13-.49-.13-2.13-.14h-1.52v3.15ZM21 9.83c.18.03.34.12.47.26.12.15.18.34.17.53a.63.63 0 0 1-.07.36 1 1 0 0 1-.73.54l-.54.03h-.4V9.79h.47c.2 0 .42 0 .63.04"/><path fill="#1F4288" d="M24.19 11.88v3.17h1.52v-2.19h.54c.96 0 1.49-.12 2.02-.48.22-.16.4-.35.57-.57.24-.4.34-.88.29-1.35a1.9 1.9 0 0 0-.19-.68c-.25-.52-.7-.83-1.47-1-.21-.04-.3-.04-1.75-.05h-1.53zm2.63-2.01c.17.04.33.13.46.25a1.06 1.06 0 0 1 0 1.36c-.24.22-.5.3-1.12.3h-.45V9.8l.5.01c.2 0 .4.01.61.05Zm3.08 2.02v3.16h1.54v-2.57h2.8v2.57h1.52V8.72h-1.52v1.26l-.01 1.26h-1.4l-1.39.01V8.72H29.9z"/><path fill="#FF0" d="M5.87 13.46a1.7 1.7 0 1 0 0-3.41 1.7 1.7 0 0 0 0 3.4Z"/><path fill="#1F4288" d="m7.09 8.75-.96-.64h-2.2a1.69 1.69 0 0 0-1.7 1.68v2.93h1.3V9.77a.38.38 0 0 1 .37-.37h2.23z"/><path fill="#D01F2E" d="m4.66 14.75.95.64h2.21a1.69 1.69 0 0 0 1.7-1.68v-2.93h-1.3v2.95a.38.38 0 0 1-.38.37H5.61z"/></svg>