<svg xmlns="http://www.w3.org/2000/svg" xmlns:xlink="http://www.w3.org/1999/xlink" width="38" height="24" fill="none" aria-labelledby="pi-rapidtransfer" role="img" viewBox="0 0 38 24"><title id="pi-rapidtransfer">Rapid Transfer</title><defs><path id="pi-rapidtransfer-b" fill="#fff" d="M0 0h38v24H0z"/></defs><g clip-path="url(#pi-rapidtransfer-a)"><use xlink:href="#pi-rapidtransfer-b"/><mask id="pi-rapidtransfer-c" width="38" height="24" x="0" y="0" maskUnits="userSpaceOnUse" style="mask-type:luminance"><path fill="#fff" d="M0 0h38v24H0z"/></mask><g mask="url(#pi-rapidtransfer-c)"><path fill="#231F20" d="M30.6 16h-.69v-.12h.69c.17 0 .26-.1.26-.28v-.24h-.95v-.12H32v.4c0 .24-.12.36-.34.36h-.4c-.2 0-.3-.1-.34-.22-.03.14-.12.22-.3.22Zm1.28-.36v-.28h-.91v.24c0 .19.08.28.25.28h.43c.15 0 .22-.08.22-.24Zm.1-.7h-.1v-.5h-.86v.48h-.1v-.48h-.9v.5h-.11v-.62h2.07zm0-.88h-.1v-.5h-.86v.48h-.1v-.47h-1v-.13h2.06zm-1.43-.92h-.32c-.22 0-.34-.12-.34-.36v-.06c0-.24.12-.36.33-.36h.42v.12h-.42q-.21 0-.21.24v.06c0 .16.07.24.2.24h.33c.13 0 .2-.04.26-.14l.25-.33a.39.39 0 0 1 .36-.19h.26q.33 0 .33.36v.06q0 .36-.33.36h-.35V13h.36c.14 0 .21-.07.21-.23v-.06q0-.24-.21-.24h-.27c-.12 0-.19.04-.26.14l-.24.34a.39.39 0 0 1-.36.18Zm-.64-1.21 1.79-.6-1.42.02h-.37v-.12H32v.13l-1.8.59 1.43-.01H32v.11h-2.1v-.12Z"/><path fill="#66C18F" d="M28.95 16v-4.96L27.15 16z"/><path fill="#231F20" d="M29.91 10.97v-.11l.44-.08v-.52l-.44-.08v-.12l2.09.4v.12l-2.09.4Zm.55-.69v.47l1.32-.23zm.14-.48h-.69v-.12h.69c.17 0 .26-.09.26-.27v-.25h-.95v-.12H32v.4c0 .24-.12.36-.34.36h-.4c-.2 0-.3-.09-.34-.22-.03.14-.12.22-.3.22Zm1.27-.36v-.28h-.9v.25c0 .18.08.27.25.27h.43c.15 0 .23-.08.23-.24ZM28.5 8.28a.66.66 0 0 0-.57-.28h-2.08l-2.79 8h2.18c.5 0 1.04-.4 1.21-.9l2.11-6.14c.09-.25.07-.5-.06-.68m-3.1 6.82h-.98l2.15-6.2h.97l-.48 1.4zm4.52-6.74h1.96V8h.11v.83h-.1v-.36H29.9v-.12ZM23 8l-2.8 8h1.04l2.8-8zm-11.38.96a.76.76 0 0 0-.05-.68.64.64 0 0 0-.56-.28H8.95L6 16h1.05l1.15-3.15h.54L8.17 16h1.08l.54-3.27c.34-.16.62-.46.74-.79zm-1.02-.05L9.46 12h-.95l1.13-3.08h.95Zm5.72-.63a.65.65 0 0 0-.57-.28h-1.23c-.5 0-1.04.4-1.22.9L10.71 16h1.05l1.14-3.15h1L12.8 16h1.06l2.52-7.04a.76.76 0 0 0-.05-.68Zm-.98.62-1.1 3.06h-1.01l1.1-3.06h1Zm5.64-.62A.65.65 0 0 0 20.4 8h-2l-2.86 8h1.05l.89-2.5h1.04c.5 0 1.04-.4 1.21-.9l1.29-3.64a.76.76 0 0 0-.05-.68Zm-.97.63-1.3 3.66h-.9l1.31-3.66z"/></g></g><defs><clipPath id="pi-rapidtransfer-a"><use xlink:href="#pi-rapidtransfer-b"/></clipPath></defs></svg>