<?xml version="1.0" encoding="utf-8"?>
<!-- Generator: Adobe Illustrator 16.0.0, SVG Export Plug-In . SVG Version: 6.00 Build 0)  -->
<!DOCTYPE svg PUBLIC "-//W3C//DTD SVG 1.1//EN" "http://www.w3.org/Graphics/SVG/1.1/DTD/svg11.dtd">
<svg version="1.1" xmlns="http://www.w3.org/2000/svg" xmlns:xlink="http://www.w3.org/1999/xlink" x="0px" y="0px" width="40px"
	 height="20px" viewBox="0 0 40 20" enable-background="new 0 0 40 20" xml:space="preserve">
<g id="Layer_3">
	<g>
		<g>
			<path fill-rule="evenodd" clip-rule="evenodd" fill="#FFFFFF" d="M0.25,16.094V3.175c0-0.05,0-0.099,0-0.146
				c0-1.852,0.955-2.779,2.864-2.779h32.859c1.86,0.036,2.79,0.962,2.79,2.779v12.967c0,1.853-0.971,2.778-2.914,2.778H3.114
				C1.241,18.774,0.286,17.881,0.25,16.094z"/>
			
				<path fill-rule="evenodd" clip-rule="evenodd" fill="none" stroke="#CECECE" stroke-linecap="round" stroke-linejoin="round" stroke-miterlimit="3" d="
				M35.973,0.25H3.114c-1.909,0-2.864,0.927-2.864,2.779c0,0.048,0,0.097,0,0.146v12.918v0.731c0,1.949,0.971,2.925,2.914,2.925
				h33.575c2.008,0,3.012-0.976,3.012-2.925V3.175c0-1.95-1.004-2.925-3.012-2.925H35.973z"/>
		</g>
	</g>
</g>
<g id="Layer_1">
	<g>
		<path fill-rule="evenodd" clip-rule="evenodd" fill="#E4003E" d="M14.301,7.605c0.445-1.064,1.146-1.923,2.104-2.575
			c0.993-0.652,2.089-0.996,3.287-1.03c1.095,0,2.122,0.292,3.081,0.876l-5.495,5.614L14.301,7.605z M25.186,7.605
			c0.344,0.722,0.514,1.511,0.514,2.369c0,1.648-0.564,3.057-1.693,4.224c-1.164,1.168-2.568,1.768-4.211,1.802
			c-0.821,0-1.609-0.153-2.362-0.463L25.186,7.605z"/>
	</g>
</g>
</svg>
