<?xml version="1.0" encoding="utf-8"?>
<!-- Generator: Adobe Illustrator 16.0.0, SVG Export Plug-In . SVG Version: 6.00 Build 0)  -->
<!DOCTYPE svg PUBLIC "-//W3C//DTD SVG 1.1//EN" "http://www.w3.org/Graphics/SVG/1.1/DTD/svg11.dtd">
<svg version="1.1" xmlns="http://www.w3.org/2000/svg" xmlns:xlink="http://www.w3.org/1999/xlink" x="0px" y="0px" width="38px"
	 height="24px" viewBox="0 0 38 24" enable-background="new 0 0 38 24" xml:space="preserve" aria-labelledby="pi-ratepay">
	 <title id="pi-ratepay">Ratepay</title>
<g id="pi-ratepay-Layer_3">
	<g>
		<g>
			<path fill-rule="evenodd" clip-rule="evenodd" fill="#FFFFFF" d="M0.25,16.928V3.33c0-0.053,0-0.104,0-0.154
				c0-1.95,0.93-2.925,2.789-2.925h31.995c1.812,0.038,2.717,1.013,2.717,2.925v13.65c0,1.95-0.945,2.925-2.838,2.925H3.039
				C1.215,19.75,0.285,18.81,0.25,16.928z"/>
			
				<path fill-rule="evenodd" clip-rule="evenodd" fill="none" stroke="#CECECE" stroke-linecap="round" stroke-linejoin="round" stroke-miterlimit="3" d="
				M34.164,0.25H2.969c-1.813,0-2.719,0.927-2.719,2.779c0,0.048,0,0.097,0,0.146v12.918v0.731c0,1.949,0.922,2.925,2.766,2.925
				h31.875c1.906,0,2.859-0.976,2.859-2.925V3.175c0-1.95-0.953-2.925-2.859-2.925H34.164z"/>
		</g>
	</g>
</g>
<g id="pi-ratepay-Layer_1">
	<g>
		<path fill-rule="evenodd" clip-rule="evenodd" fill="#E4003E" d="M13.301,7.605c0.445-1.064,1.146-1.923,2.104-2.575
			c0.993-0.652,2.089-0.996,3.287-1.03c1.095,0,2.122,0.292,3.081,0.876l-5.495,5.614L13.301,7.605z M24.186,7.605
			c0.344,0.722,0.514,1.511,0.514,2.369c0,1.648-0.564,3.057-1.693,4.224c-1.164,1.168-2.568,1.768-4.211,1.802
			c-0.821,0-1.609-0.153-2.362-0.463L24.186,7.605z"/>
	</g>
</g>
</svg>