<svg viewBox="0 0 38 24" xmlns="http://www.w3.org/2000/svg" role="img" width="38" height="24" aria-labelledby="pi-ratepay">
<title id="pi-ratepay">Ratepay</title>
<path opacity=".07" d="M35 0H3C1.3 0 0 1.3 0 3v18c0 1.7 1.4 3 3 3h32c1.7 0 3-1.3 3-3V3c0-1.7-1.4-3-3-3z"/>
<path fill="#fff" d="M35 1c1.1 0 2 .9 2 2v18c0 1.1-.9 2-2 2H3c-1.1 0-2-.9-2-2V3c0-1.1.9-2 2-2h32"/>
<path fill-rule="evenodd" clip-rule="evenodd" fill="#E4003E" d="M18.775,19c-0.963,0-1.895-0.182-2.793-0.546l9.12-9.248
	c0.385,0.835,0.577,1.755,0.577,2.762c0,1.926-0.663,3.575-1.99,4.945C22.34,18.262,20.702,18.957,18.775,19z M14.794,6.188
	C15.95,5.417,17.234,5.021,18.647,5c1.285,0,2.484,0.332,3.597,0.996l-6.423,6.583l-3.5-3.372
	C12.835,7.965,13.659,6.959,14.794,6.188z"/>
</svg>
