<svg width="381" height="114" viewBox="0 0 381 114" fill="none" xmlns="http://www.w3.org/2000/svg">
<g clip-path="url(#clip0_1840_6481)">
<path d="M97.1445 0.589857V58.1976H99.2155L99.2575 0.612867L97.1446 0.589844L97.1445 0.589857Z" fill="#D71A20"/>
<path d="M29.4336 0.000641323C24.687 -0.0357967 19.3277 1.47647 13.4295 5.56469C13.4287 5.56469 15.1981 10.2185 11.504 15.1241C11.5033 15.1241 11.6006 15.1742 11.604 15.1731C15.1849 13.1152 32.2438 -2.41695 50.739 16.1535C50.739 16.1535 79.9391 13.508 72.1945 39.9049C72.1945 39.9049 82.5224 43.7511 81.2718 58.2148C81.2718 58.2148 81.3935 58.2212 81.3969 58.2148C81.8303 57.2896 87.8777 44.6794 78.3211 38.8509C78.3211 38.8509 82.1852 29.5495 74.9702 20.9332C71.3011 16.5491 64.578 12.3619 52.2644 14.1191C52.2638 14.1191 43.6734 0.109994 29.4336 0.000634874V0.000641323ZM0.00107713 0.539891C0.00107713 0.539885 -0.00134642 0.660227 0.00107713 0.662446C1.62288 1.5477 11.4857 7.68991 0.426186 15.026L7.27793 43.9248C7.27793 43.9248 16.8831 36.289 24.8574 39.7824C29.9458 42.0121 31.2583 48.1699 30.2838 57.7491C30.2838 57.7491 30.4293 57.7579 30.4338 57.7491C31.165 56.0673 40.5948 38.902 26.2328 33.7036C23.5234 32.7218 19.706 32.4151 12.8544 34.8801L6.50274 17.0114C6.50274 17.0114 16.5836 3.61611 0.00107713 0.539891ZM60.0164 36.5959C54.626 36.8616 51.3892 40.7138 51.3892 40.7138C42.8886 32.5767 35.3851 41.4981 35.3851 41.4981C40.9058 46.9295 38.2358 58.2148 38.2358 58.2148C38.2334 58.2084 38.3564 58.2229 38.3609 58.2148C42.9445 50.8665 42.3869 43.6306 42.3869 43.6306C46.9739 42.2572 49.6888 47.1847 49.6888 47.1847C55.4256 41.0112 61.1643 40.6151 64.2925 42.5276C72.0541 47.2756 69.3938 57.7491 69.3938 57.7491C69.3938 57.7523 69.5427 57.7536 69.5438 57.7491C76.0413 45.4009 70.1514 39.5741 66.093 37.797C63.8552 36.816 61.8132 36.5073 60.0164 36.5959Z" fill="#D71A20"/>
<path fill-rule="evenodd" clip-rule="evenodd" d="M307.595 36.0292C307.595 35.7317 307.843 35.7892 308.195 35.7892H309.022C309.097 35.7885 309.175 35.7811 309.389 35.798C309.389 35.798 310.16 35.9115 310.81 36.5943L320.359 48.8698L326.691 48.8756L316.97 35.9164L315.095 33.6374C315.018 33.5187 315.047 33.3708 315.382 33.0188L324.812 22.4624L325.685 21.5442C325.777 21.4264 326.004 21.2588 325.495 21.2588H321.013H320.273C319.532 21.2588 319.559 21.2024 319.117 21.6671L310.469 31.4445C310.469 31.4445 309.969 32.1505 309.335 32.1505H308.253C308.194 32.1485 308.096 32.1492 307.939 32.1492C307.844 32.1332 307.655 32.1491 307.616 31.9065C307.601 31.8102 307.592 31.7464 307.59 31.4827V8.96654H301.713V48.8721H307.587V36.3066L307.595 36.0292ZM367.611 20.6388C367.253 20.6527 363.963 20.7051 361.694 21.5365C361.132 21.6873 356.433 23.5698 354.46 29.1156C354.078 30.0211 352.915 34.37 353.889 38.896C355.448 45.2241 357.743 46.9848 361.92 48.5764C370.604 50.9482 379.336 46.0728 380.443 38.5815C380.443 38.5815 382.025 28.4434 377.324 23.4892C377.324 23.4892 374.853 20.6388 367.611 20.6388ZM367.228 25.4818C373.46 25.4818 374.261 30.2906 374.261 30.2906C375.095 33.5703 374.638 37.3407 374.638 37.3407C374.238 42.283 370.557 44.3455 369.567 44.4452C367.208 45.107 364.403 44.2314 364.41 44.2422C360.507 43.1401 360.088 37.6524 360.088 37.6524C359.722 34.8671 360.003 32.1416 360.487 30.4392C360.966 28.7548 361.786 27.8786 361.605 28.0892C363.744 25.4112 367.228 25.4818 367.228 25.4818ZM285.381 20.6731C285.381 20.6731 277.633 20.7915 274.334 26.8427C274.334 26.8427 268.179 37.2418 277.243 46.0091C278.598 47.1325 280.771 49.1371 287.695 49.0338C289.173 48.9563 291.933 49.3686 297.337 44.7254L295.571 42.1152L295.383 41.8693C295.244 41.6314 294.465 41.4494 293.816 41.8464L292.204 42.9814C291.304 43.6631 290.188 43.964 287.549 44.1965C283.761 44.3861 281.051 43.3086 279.315 39.6307C279.315 39.6307 278.723 38.6068 278.723 35.3337C278.726 35.1918 278.696 34.9992 279.012 34.9992H296.775H297.141C297.307 34.9992 297.436 35.0044 297.477 34.9335C297.527 34.8489 297.535 34.5384 297.535 34.2645C297.535 33.0238 297.545 31.6025 297.472 30.5421C297.39 29.2787 297.057 27.8379 296.304 26.2537C296.304 26.2537 294.011 20.6731 285.381 20.6731V20.6731ZM286.508 24.8157C292.31 25.2438 292.277 31.6424 292.152 31.6H278.797C278.797 24.0985 286.508 24.8157 286.508 24.8157ZM244.417 9.89203V48.6364H250.657V34.7362V34.5475L250.797 34.5389H258.285C258.313 34.5212 259.33 34.6475 262.423 33.9986C265.442 33.381 269.375 30.0543 270.42 28.1435C271.112 26.877 272.565 22.2666 271.684 19.1664C271.154 17.0457 270.627 15.7944 269.648 14.5349C269.648 14.5349 266.477 9.89196 258.395 9.89196H244.417L244.417 9.89203ZM250.718 15.0639H258.679C265.352 15.0639 265.406 21.4393 265.406 21.4393C265.406 26.7078 262.034 28.4323 262.034 28.4323C260.265 29.5132 259.619 29.619 259.301 29.633C259.125 29.6408 258.946 29.6369 258.77 29.633H250.718V15.0639ZM210.009 35.8508C210.009 35.5533 210.257 35.6108 210.609 35.6108H211.435C211.511 35.6101 211.588 35.6027 211.802 35.6195C211.802 35.6195 212.574 35.7331 213.223 36.4158L222.773 48.6914L229.104 48.6972L219.384 35.7379L217.508 33.459C217.432 33.3402 217.46 33.1924 217.796 32.8404L227.225 22.284L228.099 21.3658C228.19 21.2479 228.418 21.0804 227.909 21.0804H223.427H222.686C221.946 21.0804 221.972 21.024 221.53 21.4887L212.882 31.2663C212.882 31.2663 212.382 31.9723 211.749 31.9723H210.667C210.607 31.9704 210.51 31.9717 210.353 31.9717C210.258 31.9558 210.069 31.9716 210.029 31.729C210.015 31.6328 210.005 31.5689 210.004 31.3052V8.78906H204.127V48.6946H210.001V36.1291L210.009 35.8508ZM180.631 29.136C180.631 29.1213 180.631 29.1042 180.632 29.085C180.628 29.0225 180.676 28.8366 180.74 28.7098C180.74 28.7098 182.338 25.4872 187.403 25.4872C187.403 25.4872 192.759 25.3447 192.759 29.6356V48.464H198.354V30.3131C198.354 29.7846 198.381 29.313 198.354 28.7276C198.354 28.7276 198.193 22.9698 192.485 21.3782C191.201 20.9318 189.011 20.8625 187.498 21.012C187.498 21.012 184.068 21.1543 180.691 24.6682L180.563 24.8373C180.435 25.0065 180.043 25.0777 180.043 24.4768V23.3321V22.7534C180.024 22.3735 179.9 21.5002 178.956 21.5002H174.867V48.4641H180.627V29.2115L180.631 29.136ZM339.093 20.6788C338.436 20.7053 337.724 20.77 336.953 20.8847C336.953 20.8847 333.406 21.2847 328.711 25.093C328.711 25.093 328.032 25.4382 328.76 26.1909L330.749 28.2436C330.936 28.4197 331.444 28.7487 332.584 28.052C333.27 27.6135 335.853 26.0621 337.807 25.5047C337.807 25.5047 342.176 24.2205 343.906 28.5809C343.906 28.5809 344.292 29.1697 344.292 32.3719C344.31 33.0578 344.295 33.0695 343.771 33.0695C343.771 33.0695 331.46 32.4047 328.138 38.3499C328.138 38.3499 324.966 42.4893 329.391 47.0611C329.391 47.0611 332.397 50.2081 338.57 48.4992C338.57 48.4992 341.734 47.9348 344.016 45.5773C344.029 45.5567 344.106 45.4764 344.124 45.4544C344.313 45.2236 344.802 44.9565 344.931 45.4744C344.954 45.5684 344.965 45.615 344.975 45.746C344.985 45.88 344.996 45.8946 345.002 46.2721C345.006 46.9546 344.908 48.2533 346.697 48.2533H349.41C349.577 48.2552 349.876 48.2285 349.876 47.8902V30.2019C349.887 29.592 349.546 27.2294 349.352 26.7512C349.361 26.7709 348.346 24.1436 345.719 22.2712C345.595 22.2109 343.696 20.4934 339.093 20.6788L339.093 20.6788ZM343.653 36.7718C343.799 36.7757 344.212 36.772 344.212 37.1635V41.6778C344.212 41.8271 343.407 43.263 341.363 43.9678C340.136 44.4343 336.131 45.7829 334.317 44.268C334.317 44.268 331.873 42.4475 333.319 39.8595C333.319 39.8595 333.896 38.5025 337.339 37.5494C337.339 37.5494 339.825 36.7718 343.653 36.7718ZM158.752 20.676C158.095 20.7025 157.382 20.7701 156.612 20.8847C156.612 20.8847 153.064 21.2847 148.369 25.093C148.369 25.093 147.69 25.4382 148.419 26.1909L150.408 28.2436C150.595 28.4197 151.1 28.7487 152.24 28.052C152.926 27.6135 155.512 26.0621 157.466 25.5047C157.466 25.5047 161.835 24.2205 163.565 28.5809C163.565 28.5809 163.95 29.1698 163.95 32.3719C163.969 33.0578 163.95 33.0666 163.427 33.0666C163.427 33.0666 151.119 32.4047 147.796 38.3499C147.796 38.3499 144.622 42.4893 149.047 47.0611C149.047 47.0611 152.055 50.2053 158.229 48.4963C158.229 48.4963 161.393 47.9319 163.675 45.5745C163.688 45.5538 163.764 45.4736 163.782 45.4516C163.972 45.2207 164.46 44.9565 164.59 45.4745C164.613 45.5684 164.621 45.615 164.631 45.7461C164.641 45.8801 164.655 45.8918 164.661 46.2693C164.665 46.9517 164.567 48.2534 166.355 48.2534H169.069C169.236 48.2553 169.534 48.2285 169.534 47.8903V30.202C169.546 29.592 169.202 27.2295 169.008 26.7512C169.017 26.771 168.005 24.1437 165.377 22.2713C165.254 22.211 163.355 20.4906 158.752 20.676L158.752 20.676ZM163.309 36.7689C163.455 36.7728 163.87 36.7722 163.87 37.1635V41.6749C163.87 41.8242 163.065 43.263 161.022 43.9678C159.794 44.4343 155.787 45.7829 153.973 44.268C153.973 44.268 151.532 42.4475 152.978 39.8595C152.978 39.8595 153.554 38.4997 156.997 37.5466C156.997 37.5466 159.481 36.7689 163.309 36.7689ZM115.397 9.96065V48.462H129.174C129.174 48.462 133.62 48.7219 137.466 47.0926C137.466 47.0926 141.184 45.5199 143.141 41.9608C143.141 41.9608 144.792 38.6289 143.763 34.5962C143.437 33.8944 143.295 32.6025 140.411 30.4393C140.344 30.4011 138.773 29.1359 136.323 29.2442C136.244 29.241 135.803 29.2643 135.73 28.9841C135.727 28.9841 135.603 28.6081 136.262 28.4065C137.664 28.0155 139.306 27.1283 141.155 25.1874C141.155 25.1874 142.981 23.5613 142.981 19.9041C142.981 19.9041 142.964 17.2194 141.441 14.4492C141.441 14.4492 140.209 11.9385 135.598 10.6411C135.293 10.5535 132.825 9.96065 115.75 9.96065H115.397ZM121.758 15.061H130.375C134.236 15.061 135.48 17.5311 135.48 17.5311C136.498 19.3824 136.529 21.0276 136.529 21.0276C136.529 23.7484 134.769 25.0816 134.769 25.0816C133.245 26.3966 130.982 27.0332 130.152 27.0486C129.2 27.1034 124.693 27.0486 121.965 27.0486C121.813 27.0484 121.727 27.0594 121.728 27.0114L121.731 26.9056V15.1068C121.732 15.083 121.721 15.0641 121.759 15.061L121.758 15.061ZM121.689 31.6543H130.871C134.983 31.6543 136.306 34.1616 136.306 34.1616C137.39 36.04 137.425 37.7096 137.425 37.7096C137.425 40.4703 135.549 41.8236 135.549 41.8236C133.925 43.1579 131.515 43.8006 130.631 43.8163C129.618 43.872 124.819 43.8163 121.912 43.8163C121.751 43.8161 121.658 43.8278 121.659 43.7791V43.6733V31.7029C121.66 31.6787 121.649 31.6574 121.689 31.6544L121.689 31.6543Z" fill="black"/>
</g>
<path d="M0 70.3359H380.84V107.999C380.84 111.313 378.154 113.999 374.84 113.999H6C2.6863 113.999 0 111.313 0 107.999V70.3359Z" fill="#D71A20"/>
<path d="M109.975 91.4591C110.745 91.4591 111.398 91.3648 111.933 91.1761C112.48 90.9763 112.927 90.7044 113.273 90.3603C113.619 90.0162 113.87 89.6167 114.026 89.1616C114.182 88.6954 114.261 88.196 114.261 87.6632C114.261 86.5977 113.909 85.7652 113.206 85.1659C112.514 84.5665 111.437 84.2668 109.975 84.2668H107.698V91.4591H109.975ZM121.996 104.312H116.872C115.924 104.312 115.243 103.957 114.83 103.247L110.778 96.2041C110.588 95.9044 110.376 95.6879 110.142 95.5548C109.908 95.4105 109.573 95.3383 109.137 95.3383H107.698V104.312H102.039V80.0547H109.975C111.738 80.0547 113.239 80.2378 114.478 80.6041C115.728 80.9593 116.744 81.4587 117.525 82.1025C118.318 82.7462 118.893 83.5065 119.25 84.3834C119.607 85.2602 119.786 86.2148 119.786 87.247C119.786 88.035 119.68 88.7787 119.468 89.4779C119.255 90.1772 118.943 90.8265 118.53 91.4258C118.117 92.0141 117.604 92.5413 116.99 93.0075C116.387 93.4737 115.689 93.8566 114.897 94.1563C115.265 94.3449 115.611 94.5836 115.935 94.8722C116.259 95.1496 116.549 95.4826 116.805 95.8711L121.996 104.312Z" fill="white"/>
<path d="M167.744 95.0386L165.483 88.3958C165.316 87.974 165.137 87.4801 164.948 86.914C164.758 86.3368 164.568 85.7153 164.378 85.0493C164.211 85.7264 164.032 86.3535 163.843 86.9307C163.653 87.5078 163.474 88.0073 163.307 88.4291L161.063 95.0386H167.744ZM176.734 104.312H172.348C171.857 104.312 171.46 104.201 171.159 103.979C170.858 103.746 170.629 103.452 170.473 103.097L169.033 98.8679H159.757L158.318 103.097C158.195 103.407 157.972 103.69 157.648 103.946C157.335 104.19 156.945 104.312 156.476 104.312H152.056L161.499 80.0547H167.292L176.734 104.312Z" fill="white"/>
<path d="M224.606 84.5166H217.742V104.312H212.083V84.5166H205.218V80.0547H224.606V84.5166Z" fill="white"/>
<path d="M269.974 95.0886V104.312H264.315V95.0886L255.475 80.0547H260.464C260.955 80.0547 261.34 80.1712 261.62 80.4043C261.91 80.6263 262.15 80.9149 262.339 81.2701L265.788 88.3292C266.079 88.8841 266.341 89.4058 266.575 89.8941C266.81 90.3714 267.016 90.8431 267.195 91.3093C267.362 90.832 267.552 90.3548 267.764 89.8775C267.987 89.3891 268.244 88.873 268.534 88.3292L271.95 81.2701C272.028 81.1258 272.123 80.9815 272.234 80.8372C272.346 80.6929 272.474 80.5653 272.619 80.4543C272.776 80.3322 272.949 80.2378 273.138 80.1712C273.339 80.0935 273.557 80.0547 273.791 80.0547H278.814L269.974 95.0886Z" fill="white"/>
<defs>
<clipPath id="clip0_1840_6481">
<rect width="380.84" height="58.2177" fill="white"/>
</clipPath>
</defs>
</svg>
