<svg xmlns="http://www.w3.org/2000/svg" width="38" height="24" fill="none" aria-labelledby="pi-rcs" role="img" viewBox="0 0 38 24"><title id="pi-rcs">RCS</title><path fill="#fff" d="M0 0h38v24H0z"/><path fill="#ED6D1F" d="M6.75 16.6 3.2 13.23a.43.43 0 0 1-.13-.32c0-.25.21-.45.47-.45h1.45c.13 0 .25.05.34.13l2.6 2.46c.09.08.2.13.33.13.27 0 .48-.2.48-.45v-.91c0-.75.65-1.36 1.44-1.36h2.89c.28 0 .55-.08.77-.22a.1.1 0 0 1 .06-.01c.07 0 .12.05.12.1a.1.1 0 0 1-.03.09l-1.53 1.45c-.26.24-.62.4-1.02.4H9.7c-.27 0-.48.2-.48.46v.9A1.4 1.4 0 0 1 7.78 17c-.4 0-.76-.16-1.03-.4m3.01-9.2 3.56 3.37c.09.08.14.2.14.32 0 .25-.22.45-.48.45h-1.44a.5.5 0 0 1-.34-.13L8.6 8.95a.5.5 0 0 0-.34-.13c-.26 0-.48.2-.48.45v.91a1.4 1.4 0 0 1-1.44 1.36H3.46c-.29 0-.55.08-.78.22a.1.1 0 0 1-.06.01c-.06 0-.12-.05-.12-.1a.1.1 0 0 1 .03-.09l1.53-1.45c.26-.24.62-.4 1.02-.4h1.74c.26 0 .48-.2.48-.46v-.9C7.3 7.6 7.94 7 8.74 7c.4 0 .76.16 1.02.4m19.7 2.56-.08.05a2.4 2.4 0 0 1-.46.2.5.5 0 0 1-.12.02c-.03 0-.1 0-.15-.03-.41-.3-.92-.48-1.47-.48a2.32 2.32 0 0 0-2.4 2.26 2.33 2.33 0 0 0 2.4 2.26 2.5 2.5 0 0 0 1.48-.48.25.25 0 0 1 .14-.05c.05 0 .1 0 .13.02a1.6 1.6 0 0 1 .56.27c.08.09.05.17 0 .22-.59.54-1.41.88-2.31.88-1.82 0-3.35-1.4-3.35-3.12 0-1.74 1.53-3.13 3.35-3.13.9 0 1.7.34 2.3.89.03.03.08.13-.02.22m-9.87 2.74h-.27c-.07 0-.1-.03-.13-.06a.4.4 0 0 1-.01-.17c0-.07 0-.16.03-.25.03-.17.13-.37.36-.37h.92c.64 0 1.14-.47 1.14-1.02 0-.56-.5-1.02-1.14-1.02h-1.93v5.05c0 .08-.07.12-.12.14l-.08.01h-.29s-.11 0-.23-.04c-.11-.03-.23-.11-.23-.28V9.3c0-.2.18-.28.31-.3.15-.03.34-.03.5-.03h2.11c1.13 0 2.05.83 2.05 1.87 0 .76-.49 1.4-1.19 1.7q.15.105.24.24l1.87 2.02c.1.1.04.17-.04.2a.4.4 0 0 1-.1.02h-.37c-.11 0-.23 0-.34-.03a.55.55 0 0 1-.29-.13c-.23-.26-1.5-1.58-1.5-1.58a1.7 1.7 0 0 0-1.27-.57Zm12.09-2.25c0 .42.24.62 1.65 1.07 1.36.43 2.14.94 2.17 1.84.03 1.1-1 1.73-2.31 1.73-.95 0-1.83-.3-2.54-.86-.05-.05-.08-.14 0-.23a1.8 1.8 0 0 1 .58-.28.6.6 0 0 1 .14-.02c.04 0 .1 0 .15.04.51.34 1.05.51 1.7.51.83 0 1.3-.34 1.3-.78 0-.45-.23-.72-1.58-1.15-1.43-.46-2.21-.86-2.22-1.86-.01-1.01.99-1.6 2.21-1.6.84 0 1.71.34 2.3.89.04.03.1.13-.02.22l-.07.05a2.4 2.4 0 0 1-.45.2.5.5 0 0 1-.13.02c-.03 0-.1 0-.15-.03-.4-.3-.92-.5-1.48-.5-.82 0-1.26.34-1.25.74"/></svg>