<svg
    xmlns="http://www.w3.org/2000/svg" width="38" height="24" role="img" viewBox="0 0 38 24" aria-labelledby="pi-redpagos">
    <title id="pi-redpagos">RedPagos</title>
    <style>.st2{fill:#23214a}.st3{fill:#c8ca14}</style>
    <path d="M35 0H3C1.3 0 0 1.3 0 3v18c0 1.7 1.4 3 3 3h32c1.7 0 3-1.3 3-3V3c0-1.7-1.4-3-3-3z" opacity=".07"/>
    <path d="M35 1c1.1 0 2 .9 2 2v18c0 1.1-.9 2-2 2H3c-1.1 0-2-.9-2-2V3c0-1.1.9-2 2-2h32" fill="#fff"/>
    <path class="st2" d="M19.4 12.9c0 .1.1.2.3.2.4 0 .5-.3.6-.6h-.2c-.3.1-.7.1-.7.4zM24.6 11.9c-.4 0-.6.4-.6.8 0 .3.1.5.4.5.4 0 .6-.5.6-.8 0-.3-.1-.5-.4-.5z"/>
    <path class="st2" d="M9.1 10.9v3h7.4l.5-2.2v-.3h.5l-.1.3c.1-.2.3-.3.6-.3.5 0 .7.3.7.8 0 .6-.3 1.3-1 1.3-.2 0-.5-.1-.5-.4l-.2.9h4l.1-.2c.2.1.4.2.6.2.5 0 .6-.4.7-.8-.1.2-.4.4-.7.4-.5 0-.7-.4-.7-.8 0-.6.4-1.2 1-1.2.3 0 .5.1.6.3l.1-.3h.5c0 .1 0 .1-.1.3l-.3 1.5c-.1.3-.1.5-.3.7h6.3v-3H9.1zm11.4 2.6h-.4l.1-.3c-.2.2-.4.3-.6.3-.4 0-.6-.2-.6-.6 0-.6.7-.7 1.2-.7h.2V12c0-.2-.2-.3-.4-.3s-.4.1-.6.2l.1-.4c.2-.1.4-.1.7-.1.4 0 .8.1.8.6-.2.3-.4 1.1-.5 1.5zm3.8 0c-.6 0-.9-.3-.9-.9 0-.7.5-1.2 1.2-1.2.5 0 .9.3.9.9 0 .7-.5 1.2-1.2 1.2zm2.9-1.6c-.1 0-.3-.1-.4-.1-.2 0-.3 0-.3.2s.7.3.7.8-.4.7-.9.7c-.2 0-.4 0-.6-.1l.1-.4c.1.1.3.2.5.2s.4-.1.4-.2c0-.3-.7-.3-.7-.8s.4-.6.8-.6c.2 0 .4 0 .6.1l-.2.2z"/>
    <path class="st2" d="M21.6 12.6c0 .2.1.4.3.4.4 0 .6-.4.6-.8 0-.2-.1-.4-.4-.4-.3.1-.5.5-.5.8zM17.6 13.1c.4 0 .6-.5.6-.8 0-.2-.1-.4-.4-.4-.3 0-.5.5-.5.8 0 .2.1.4.3.4z"/>
    <g>
        <path class="st3" d="M28.9 10H9.1v.9h7l-.2.8c-.2-.2-.4-.3-.6-.3-.7 0-1 .7-1 1.2 0 .4.2.8.7.8.3 0 .5-.1.6-.3v.3h.5c0-.1 0-.3.1-.4l.5-2.1H29V10zm-13.7 3.1c-.3 0-.3-.3-.3-.5 0-.3.2-.8.5-.8s.4.2.4.5c0 .4-.2.8-.6.8z"/>
        <path class="st3" d="M12.1 11.5c-.2 0-.5.2-.6.4l.1-.4h-.5v.3l-.4 1.7h.5l.2-.9c.1-.3.2-.6.6-.6h.2l.1-.5h-.2zM13.3 11.5c-.6 0-1.1.6-1.1 1.2s.4.9.9.9c.2 0 .4 0 .6-.1l.1-.4c-.2.1-.4.1-.6.1-.4 0-.5-.1-.5-.5h1.4v-.4c0-.6-.3-.8-.8-.8zm.3.8h-.9c.1-.3.2-.5.6-.5.2 0 .3.1.3.3v.2z"/>
    </g>
    <g>
        <path class="st2" d="M13.6 10.2h.1c.1 0 .2 0 .2.1s-.1.2-.2.2c0 0 .1 0 .1.1l.1.2h-.1v-.1c0-.1 0-.1-.1-.1l-.1.3h-.1l.1-.7zm.1.3c.1 0 .2 0 .2-.1s-.1-.1-.1-.1h-.1v.2zM14.1 10.6c0 .1 0 .1.1.1h.1v.1h-.1c-.1 0-.2-.1-.2-.2s.1-.3.3-.3c.1 0 .2.1.2.2v.1h-.4zm.3-.1c0-.1 0-.1-.1-.1s-.1 0-.1.1h.2zM15.1 10.2l-.1.6v.1h-.1v-.1l-.1.1c-.1 0-.2-.1-.2-.2s.1-.3.2-.3.1 0 .1.1l.1-.3h.1zm-.5.4s0 .1.1.1.1-.1.1-.2 0-.1-.1-.1l-.1.2zM15.4 10.2h.2l.1.5.1-.5h.1l-.1.6h-.2l-.1-.5-.1.5h-.1l.1-.6zM16.2 10.7c0 .1-.1.1-.1.1-.1 0-.1 0-.1-.1s.2-.2.3-.2c0 0 0-.1-.1-.1h-.1v-.1h.2c.1 0 .2 0 .2.1-.2.1-.2.3-.3.3zm-.1 0c.1 0 .1-.1.1-.1-.1 0-.2 0-.1.1-.1 0 0 0 0 0zM16.8 10.5c0-.1-.1-.1 0 0-.2 0-.2.1-.2.1 0 .1 0 .1.1.1h.1v.1h-.1c-.1 0-.2-.1-.2-.2 0-.2.1-.3.3-.3-.1 0 0 .1 0 .2zM16.9 10.4h.1l-.1.5h-.1l.1-.5zm0-.2h.1v.1h-.1v-.1zM17.5 10.5c0 .2-.1.3-.3.3-.1 0-.2-.1-.2-.2 0-.2.1-.3.3-.3.1 0 .2.1.2.2zm-.1 0c0-.1 0-.1-.1-.1s-.1.1-.1.2 0 .1.1.1.1-.1.1-.2zM17.7 10.4l.1-.1.1-.1c.1 0 .1.1.1.1V10.6h-.1v-.2-.1s0-.1-.1-.1-.1.1-.1.1v.2h-.1l.1-.1zM18.4 10.7c0 .1-.1.1-.1.1-.1 0-.1 0-.1-.1s.2-.2.3-.2c0 0 0-.1-.1-.1h-.1v-.1h.2c.1 0 .2 0 .2.1-.2.1-.2.3-.3.3zm-.1 0c.1 0 .1-.1.1-.1-.1 0-.2 0-.1.1-.1 0-.1 0 0 0z"/>
        <path class="st2" d="M18.7 10.2h.1l-.1.7h-.1l.1-.7zM19.6 10.2l-.1.6v.1h-.1v-.1l-.1.1c-.1 0-.2-.1-.2-.2s.1-.3.2-.3.1 0 .1.1l.1-.3h.1zm-.4.4s0 .1.1.1.1-.1.1-.2 0-.1-.1-.1l-.1.2zM19.7 10.6c0 .1 0 .1.1.1h.1v.1h-.1c-.1 0-.2-.1-.2-.2s.1-.3.3-.3c.1 0 .2.1.2.2v.1h-.4zm.2-.1c.1 0 .1 0 0 0 0-.1 0-.1-.1-.1s-.1 0-.1.1h.2zM20.9 10.3h-.1c-.1 0-.2.1-.2.2s.1.2.2.2h.1v.1h-.1c-.2 0-.3-.1-.3-.3 0-.2.1-.3.3-.3h.2l-.1.1z"/>
        <path class="st2" d="M21.4 10.5c0 .2-.1.3-.3.3-.1 0-.2-.1-.2-.2 0-.2.1-.3.3-.3.1 0 .2.1.2.2zm-.2 0c0-.1 0-.1-.1-.1s-.1.1-.1.2 0 .1.1.1.1-.1.1-.2zM21.7 10.2l-.1.3.1-.1c.1 0 .2.1.2.2s-.1.3-.2.3-.1 0-.1-.1v.1h-.1l.1-.7h.1zm-.1.5c.1 0 .1-.1.1-.2s0-.1-.1-.1-.1.1-.1.2l.1.1zM22 10.4l.1-.1v.1l.1-.1v.1c-.1 0-.1.1-.1.1v.2H22v-.3zM22.6 10.7c0 .1-.1.1-.1.1-.1 0-.1 0-.1-.1s.2-.2.3-.2c0 0 0-.1-.1-.1h-.1v-.1h.2c.1 0 .2 0 .2.1-.2.1-.2.3-.3.3zm-.1 0c.1 0 .1-.1.1-.1-.1 0-.2 0-.1.1-.1 0-.1 0 0 0z"/>
        <path class="st2" d="M22.9 10.4l.1-.1.1-.1c.1 0 .1.1.1.1V10.6h-.1v-.2-.1s0-.1-.1-.1-.1.1-.1.1v.2h-.1l.1-.1zM23.7 10.4l-.3.3h.2v.1h-.4v-.1l.3-.3h-.2v-.1l.4.1zM24 10.7c0 .1-.1.1-.1.1-.1 0-.1 0-.1-.1s.2-.2.3-.2c0 0 0-.1-.1-.1h-.1v-.1h.2c.1 0 .2 0 .2.1-.1.1-.2.3-.3.3zm-.1 0c.1 0 .1-.1.1-.1s-.1 0-.1.1z"/>
    </g>
</svg>