<svg role="img" width="38" height="24" viewBox="0 0 38 24" aria-labelledby="pi-resolvepay" fill="none" xmlns="http://www.w3.org/2000/svg"><title id="pi-resolvepay">Resolve Pay</title><rect width="38" height="24" rx="2" fill="#fff"/><rect x=".5" y=".5" width="37" height="23" rx="1.5" stroke="#000" stroke-opacity=".07"/><path fill-rule="evenodd" clip-rule="evenodd" d="M12.663 16.498l3.63-3.628L19 15.574l7.212-7.203 2.19 2.188c.382.382.598.903.598 1.447 0 .545-.216 1.066-.599 1.448L20.45 21.4c-.804.801-2.094.801-2.897 0l-4.89-4.901z" fill="#0F2454"/><path fill-rule="evenodd" clip-rule="evenodd" d="M18.992 8.413l-2.687 2.693-.881.882-3.641 3.628-2.182-2.18A2.04 2.04 0 019 11.988c0-.545.217-1.067.601-1.448l7.953-7.94a2.039 2.039 0 012.889 0L25.34 7.49l-3.641 3.628-2.707-2.704z" fill="#0F2454"/></svg>