<svg xmlns="http://www.w3.org/2000/svg" width="38" height="24" fill="none" aria-labelledby="pi-resolvepay" role="img" viewBox="0 0 38 24"><title id="pi-resolvepay">Resolve Pay</title><path fill="#fff" d="M0 0h38v24H0z"/><path fill="#0F2454" fill-rule="evenodd" d="m13.3 16.05 3.26-3.27L19 15.21l6.49-6.48 1.97 1.97a1.84 1.84 0 0 1 0 2.6l-7.16 7.16c-.72.72-1.88.72-2.6 0z" clip-rule="evenodd"/><path fill="#0F2454" fill-rule="evenodd" d="m19 8.77-2.43 2.42-.79.8-3.27 3.26-1.97-1.96a1.84 1.84 0 0 1 0-2.6l7.16-7.15a1.84 1.84 0 0 1 2.6 0l4.4 4.4-3.27 3.26-2.44-2.43Z" clip-rule="evenodd"/></svg>