<svg xmlns="http://www.w3.org/2000/svg" fill="none" viewBox="0 0 38 24" height="24" width="38" aria-labelledby="pi-revolut" role="img"><title id="pi-revolut">Revolut</title><path fill="#fff" d="M0 0h38v24H0z"/><path fill="#191C1F" d="M24.04 9h1.1v6.12h-1.1V9Zm8.88 2.58v-.95h-1.14V9.39h-1.1v4.51c0 .41.11.73.32.94.2.2.52.31.95.31h.97v-.95h-.71c-.16 0-.27-.03-.33-.1-.06-.06-.1-.21-.1-.39v-2.13h1.14Zm-15.19-.95-1.13 3.3-1.14-3.3h-1.15l1.64 4.48h1.3l1.63-4.48h-1.15Zm11.17 2.25c0 .28-.04.53-.13.73a1 1 0 0 1-.36.46.99.99 0 0 1-.56.16c-.31 0-.55-.1-.7-.3a1.62 1.62 0 0 1-.23-.93v-2.37h-1.1v2.49c0 .39.05.72.14.98a1.53 1.53 0 0 0 .96.97c.22.06.44.1.68.1a1.7 1.7 0 0 0 1.34-.58l.1.53H30v-4.5h-1.1v2.26Z"/><path fill="#191C1F" fill-rule="evenodd" d="M21.15 10.58c.46 0 .87.1 1.22.28.34.2.61.47.8.81.2.34.3.75.3 1.2 0 .46-.1.86-.3 1.2-.18.34-.46.62-.8.8-.35.2-.76.3-1.22.3-.46 0-.87-.1-1.22-.3a2.05 2.05 0 0 1-.81-.8c-.2-.36-.3-.78-.29-1.2 0-.45.1-.86.29-1.2.19-.34.46-.61.81-.8.38-.2.8-.3 1.22-.3Zm0 3.66c.25 0 .46-.05.64-.17.17-.11.31-.28.41-.48.1-.2.15-.45.15-.71 0-.28-.05-.52-.15-.72a1.13 1.13 0 0 0-1.06-.66 1.13 1.13 0 0 0-1.05.66 1.75 1.75 0 0 0 0 1.42c.1.21.24.38.42.5.18.1.4.16.64.16Z" clip-rule="evenodd"/><path fill="#191C1F" d="M6.14 10.51H5v4.6h1.14v-4.6Z"/><path fill="#191C1F" d="M7.94 9a1.78 1.78 0 0 1 .09 3.54l1.85 2.58H8.53l-1.85-2.57a.07.07 0 0 1-.01-.04v-.88a.07.07 0 0 1 .07-.07h1.08a.78.78 0 0 0 .8-.8.8.8 0 0 0-.82-.78H5V9h2.94Z"/><path fill="#191C1F" fill-rule="evenodd" d="M13.21 10.84a2.45 2.45 0 0 0-1.15-.26c-.45 0-.84.1-1.18.28-.33.2-.6.47-.78.81-.19.34-.28.75-.28 1.21 0 .46.1.86.28 1.2a2 2 0 0 0 .81.8c.35.2.77.29 1.24.29.38 0 .72-.07 1-.21a1.85 1.85 0 0 0 1.04-1.32l.02-.03h-1.1v.02a.86.86 0 0 1-.35.48c-.2.13-.43.2-.66.19-.22 0-.42-.05-.6-.14a.97.97 0 0 1-.39-.4c-.1-.18-.15-.39-.15-.6v-.04h3.29v-.01a1.52 1.52 0 0 0 .03-.39c0-.44-.1-.82-.3-1.14a1.93 1.93 0 0 0-.77-.74Zm-.4.84c.2.16.3.38.35.67H11a1.04 1.04 0 0 1 .57-.8c.16-.07.33-.11.5-.11.3 0 .56.08.75.24Z" clip-rule="evenodd"/></svg>