<svg width="38" height="24" viewBox="0 0 38 24" fill="none" xmlns="http://www.w3.org/2000/svg"><title id="pi-revolut">Revolut</title><g clip-path="url(#clip0_130_20195)"><path d="M2.066 3.905c0-.982.83-1.778 1.854-1.778h29.658c1.024 0 1.854.796 1.854 1.778v16c0 .982-.83 1.777-1.854 1.777H3.92c-1.024 0-1.854-.795-1.854-1.777v-16z" fill="#fff"/><mask id="mask0_130_20195" style="mask-type:luminance" maskUnits="userSpaceOnUse" x="3" y="8" width="32" height="7"><path d="M35 8H3v7h32V8z" fill="#fff"/></mask><g mask="url(#mask0_130_20195)"><path d="M34.48 8H3v7.108h31.48V8z" fill="#fff"/><path fill-rule="evenodd" clip-rule="evenodd" d="M8.556 14.863L6.869 11.96c1.067-.382 1.595-1.05 1.595-2.02C8.466 8.755 7.508 8 5.982 8H3v6.863h1.317v-2.784h1.115l1.618 2.784h1.506zM5.982 9.137c.778 0 1.167.304 1.167.902 0 .598-.39.902-1.167.902H4.317V9.137h1.665zm20.064 5.726V8H24.79v6.863h1.255zm-2.694-4.314c-.53-.46-1.168-.686-1.906-.686a2.797 2.797 0 00-1.895.686c-.529.45-.795 1.079-.795 1.882 0 .804.27 1.432.798 1.893a2.836 2.836 0 001.892.676c.738 0 1.377-.225 1.906-.676.539-.461.808-1.088.808-1.893 0-.804-.27-1.431-.808-1.882zm-2.903 2.912c-.279-.264-.418-.607-.418-1.03 0-.421.14-.764.418-1.019a1.38 1.38 0 01.997-.392 1.42 1.42 0 011.005.392c.29.255.429.598.429 1.02 0 .42-.14.764-.429 1.029a1.441 1.441 0 01-1.007.382 1.424 1.424 0 01-.995-.382zm9.653-.777V10h1.258v2.89c0 1.098-.717 2.11-2.283 2.11h-.01c-1.576 0-2.294-.99-2.294-2.11V10h1.26v2.684c0 .648.348 1.076 1.036 1.076.677 0 1.033-.429 1.033-1.075zM17.416 10l-1.255 3.294L14.906 10h-1.34l2.005 4.863h1.178L18.756 10h-1.34zm-4.522.549c.45.461.678 1.04.678 1.745v.432h-3.81c.08.745.61 1.215 1.357 1.215.608 0 1.057-.294 1.366-.892l.938.53c-.469.95-1.236 1.421-2.324 1.421a2.513 2.513 0 01-1.806-.716c-.488-.48-.738-1.098-.738-1.853 0-.755.249-1.362.748-1.842a2.595 2.595 0 011.856-.727c.708 0 1.286.226 1.735.687zm-.48 1.274c-.119-.627-.588-1.019-1.296-1.019-.649 0-1.167.441-1.356 1.02h2.653zm20.044 2.755c.274.27.646.422 1.035.422h.87v-1.098h-.649a.435.435 0 01-.397-.26.418.418 0 01-.033-.163v-2.477h1.077v-1h-1.077V8.686h-1.255v4.873c0 .382.154.749.428 1.019z" fill="#191C1F"/></g><path fill-rule="evenodd" clip-rule="evenodd" d="M3.92 1.238h29.658c1.536 0 2.78 1.194 2.78 2.667v16c0 1.473-1.244 2.666-2.78 2.666H3.92c-1.536 0-2.78-1.194-2.78-2.666v-16c0-1.473 1.244-2.667 2.78-2.667zm0 .889c-1.024 0-1.854.796-1.854 1.778v16c0 .982.83 1.777 1.854 1.777h29.658c1.024 0 1.854-.795 1.854-1.777v-16c0-.982-.83-1.778-1.854-1.778H3.92z" fill="#fff"/><path d="M34.505.793H2.993c-1.28 0-2.317.995-2.317 2.223v17.778c0 1.227 1.037 2.222 2.317 2.222h31.512c1.28 0 2.317-.995 2.317-2.222V3.016c0-1.228-1.037-2.223-2.317-2.223z" stroke="#000" stroke-opacity=".1"/></g><defs><clipPath id="clip0_130_20195"><path fill="#fff" d="M0 0h38v24H0z"/></clipPath></defs></svg>