<svg xmlns="http://www.w3.org/2000/svg" width="38" height="24" fill="none" aria-labelledby="pi-rhbbank" role="img" viewBox="0 0 38 24"><title id="pi-rhbbank">RHB Bank</title><path fill="#fff" d="M0 0h38v24H0z"/><path fill="#0068B3" d="M17.78 8.75c-.13 1.04-.25 2.13-.4 3.21-.16 1.22-.3 2.44-.5 3.64-.15.88-.76 1.27-1.6 1.08-.69-.16-.97-.55-.9-1.26l.19-1.63c.03-.3.13-.6-.33-.63-.57-.06-.79.04-.86.5-.09.5-.18 1.02-.2 1.53-.07 1.37-1.37 1.57-2.29 1.42-.27-.04-.25-.27-.23-.45l.2-1.44.77-5.95c.08-.62.37-1.08.99-1.31.83-.3 1.5.14 1.47 1.06-.02.7-.17 1.4-.26 2.11l-.13.96c-.03.27 0 .51.36.55.54.05.75-.04.81-.43.1-.6.16-1.22.24-1.83l.19-1.24c.07-.58.45-.92.97-1.1.9-.3 1.5.19 1.51 1.21m-7.16 1.23c-.02.9-.29 2.03-1.46 2.72-.27.15-.14.33-.04.48.24.42.52.82.75 1.24.3.56.23 1.14-.09 1.67-.45.76-1.27.8-1.78.08-.44-.6-.82-1.24-1.23-1.86-.04-.07-.15-.14-.22-.13-.06 0-.14.12-.16.2-.09.44-.14.89-.23 1.33-.15.73-.32.88-1.01.93-1.2.1-1.25.03-1.08-1.15l.79-5.17a3.45 3.45 0 0 1 4.1-3c1.22.2 1.67.83 1.66 2.66m-2.36-.23c.05-.33.04-.65-.34-.79-.29-.1-.6.16-.72.6-.02.07-.04.13-.04.2-.07.53-.15 1.07-.21 1.61-.02.16-.03.33 0 .48.1.38.58.52.82.21.16-.19.25-.45.3-.69.09-.53.13-1.08.19-1.62m11.4 6.89H18.1c-.39.01-.52-.18-.46-.54l.4-2.58c.18-1.14.35-2.3.55-3.43.35-2.06 2.66-3.03 4.1-2.62 1.27.37 1.96 1.5 1.51 2.75-.19.54-.67 1.01-.74 1.55-.07.53.3 1.1.34 1.66a3 3 0 0 1-2.99 3.21h-1.16Zm1.87-3.57c-.01-.47-.12-.71-.35-.7-.23 0-.46.13-.68.23-.07.03-.12.16-.14.24-.1.63-.24 1.26-.3 1.9-.03.43.43.67.81.42a.94.94 0 0 0 .4-.5c.12-.56.19-1.14.26-1.6Zm.56-3.48c.02-.54-.29-.8-.73-.6-.18.08-.38.27-.43.45-.14.5-.22 1.01-.3 1.52-.05.33.17.48.45.5.36.01.65-.14.74-.5.12-.47.2-.95.27-1.37"/><path fill="#CF3138" d="m30.01 7.66-5.07 3.93 4.1 4.87L34 12.45l-3.99-4.8Z"/></svg>