<svg xmlns="http://www.w3.org/2000/svg" width="38" height="24" fill="none" aria-labelledby="pi-rhbnow" role="img" viewBox="0 0 38 24"><title id="pi-rhbnow">RHB Now</title><path fill="#fff" d="M0 0h38v24H0z"/><path fill="#CF3138" d="m29.4 14.31.01.24c.02.17.12.23.26.13.2-.15.42-.3.6-.48l2.03-2.13.14-.17c.2-.22.3-.24.57-.14.21.09.25.17.15.38-.24.45-.5.89-.73 1.34a9 9 0 0 0-.37.8.8.8 0 0 0-.03.33c0 .1.16.18.27.14.24-.09.41-.25.58-.42l.06-.06a.75.75 0 0 0 .33-.74c-.02-.12.06-.28.13-.4.23-.38.49-.76.83-1.06.12-.11.24-.23.43-.22.13 0 .26.08.3.2.09.27.07.53-.02.78-.13.37-.33.69-.57 1-.08.1-.06.16.06.21.17.08.34.04.49-.03.14-.08.27-.18.4-.27l.16-.1c.08.47-.14.75-.54.93-.17.08-.37.15-.56.16-.18 0-.37-.06-.53-.13-.14-.06-.23-.03-.33.06q-.525.495-1.08.96a1 1 0 0 1-.6.24.54.54 0 0 1-.55-.43c-.05-.25-.06-.5-.08-.76v-.2l-.04-.01-.31.3c-.28.27-.54.55-.84.8-.27.21-.65.19-.94-.02-.22-.15-.4-.33-.47-.6-.03-.12-.13-.18-.25-.17l-.53.1a1.5 1.5 0 0 0-.62.33c-.25.2-.5.37-.81.47-.65.21-1.14.08-1.47-.58-.05-.1-.1-.2-.14-.33-.05.04-.1.07-.13.11-.4.4-.79.8-1.25 1.1-.26.18-.53.33-.83.4a.65.65 0 0 1-.74-.38c-.14-.3-.14-.6-.1-.91.1-.63.42-1.17.7-1.72l1.2-2.32.32-.58c.02-.04 0-.1 0-.15-.04.02-.1.02-.14.06-.46.46-.92.9-1.36 1.39a26 26 0 0 0-1.38 1.6c-.54.7-1.04 1.44-1.56 2.15l-.1.14c-.15.17-.27.2-.46.09a4 4 0 0 1-.5-.38c-.1-.1-.14-.23-.05-.37.18-.32.37-.64.54-.97l1.64-3.12c.16-.31.32-.63.37-.98v-.1c-.01-.28-.1-.32-.35-.24-.34.11-.6.35-.88.55l-.68.49c-.24.16-.37.09-.41-.23.3.04.46-.18.65-.37.48-.53.97-1.03 1.47-1.54.13-.13.28-.24.42-.34.25-.18.73-.19.95-.03.12.08.18.2.18.35 0 .26 0 .53-.06.79-.03.17-.14.34-.22.5l-.78 1.52c-.2.4-.42.78-.63 1.16l-.02.09c.07-.05.12-.08.15-.12l1.32-1.55c.31-.37.63-.74.96-1.1a7.6 7.6 0 0 1 1.64-1.31l.2-.12q.21-.15.42 0c.28.18.5.41.64.73.09.22.05.45-.07.66-.24.4-.48.8-.74 1.18-.5.78-1.03 1.56-1.45 2.4-.16.32-.3.66-.4 1a.7.7 0 0 0 .02.4c.05.17.24.23.41.13.37-.2.69-.47.96-.78a.54.54 0 0 0 .1-.28c.06-.5.33-.87.67-1.2.35-.33.74-.6 1.18-.78.4-.16.8-.3 1.24-.25.12.02.24.08.34.14.13.1.13.25.01.4-.08.1-.07.16.03.24.23.19.2.44.2.7-.02.35-.21.63-.33.95-.02.05-.02.11-.03.17.08.01.17.04.25.03.05-.01.12-.07.13-.12.1-.69.46-1.23.95-1.7.28-.26.56-.53.85-.78.27-.24.7-.17.95-.03.13.07.14.28.05.45-.16.35-.4.62-.68.88-.31.31-.64.6-.97.9-.15.15-.18.34-.2.55m-3.02.53.3-.21c.08-.06.1-.13.08-.23-.03-.09-.06-.18-.07-.27-.03-.3.06-.59.19-.86l.2-.44c-.02 0-.03-.02-.04-.03l-.42.22c-.55.29-.94.7-1.1 1.33-.06.28.08.56.34.6a.8.8 0 0 0 .52-.1Z"/><path fill="#0068B3" d="m8.27 10.91.1-.79.07-.62c.06-.5.18-.96.68-1.2.28-.13.58-.2.85-.01.25.17.38.44.38.73 0 .31-.06.62-.1.93l-.1.9-.1.54-.07.48c-.01.11.04.17.14.17.23.01.46.02.7.01.07 0 .13-.05.14-.14.02-.25.06-.5.1-.75l.07-.66.08-.69c.06-.31.05-.65.22-.94.24-.43.89-.73 1.31-.54.26.11.36.34.45.58.07.21.04.42 0 .64-.06.48-.1.96-.17 1.44l-.14 1-.1.8-.13 1.12-.09.63-.06.47c-.05.31-.26.5-.53.63-.32.14-.64.1-.95-.05a.7.7 0 0 1-.41-.76c.06-.43.08-.86.12-1.28l.05-.52c.01-.11-.04-.17-.16-.16h-.65c-.1 0-.14.05-.15.15l-.09.68-.07.5-.1.63c-.06.3-.26.5-.51.65-.27.17-.56.23-.88.2H7.8c-.08 0-.12-.04-.11-.13l.05-.48.15-1L8 13.03l.07-.58.11-.93.08-.6ZM6.13 15.7c-.21-.01-.32-.16-.42-.3l-1-1.63-.16-.25c-.02-.03-.06-.06-.09-.06s-.06.06-.07.09c-.04.28-.07.57-.12.85-.05.32-.08.65-.24.95a.56.56 0 0 1-.54.32l-.84.01c-.12 0-.16-.05-.15-.16l.16-1.14.17-1.22.15-1.05.17-1.26c.08-.62.2-1.24.58-1.75a2.42 2.42 0 0 1 2.47-.94c.3.05.6.11.85.28.39.25.58.62.58 1.08 0 .3.03.6 0 .9a2.75 2.75 0 0 1-.68 1.7c-.13.14-.32.25-.49.36-.15.1-.17.17-.07.33l.66 1.08c.14.24.17.5.16.77-.02.47-.55 1.02-1.02 1.06l-.06-.01Zm-.76-6.25c-.22.05-.31.21-.35.4l-.11.8c-.04.37-.08.74-.1 1.12-.01.06 0 .13.03.19.15.28.6.21.7-.07.1-.24.13-.52.17-.78.05-.37.08-.74.14-1.1.06-.39-.08-.56-.48-.56m12.89.05c.12.28.1.56.03.84-.13.45-.35.87-.64 1.24-.14.16-.1.33 0 .5.18.36.29.75.29 1.16a2.68 2.68 0 0 1-1.6 2.31 2 2 0 0 1-.84.15l-.71-.02h-1.52c-.11 0-.16-.05-.14-.16a120 120 0 0 1 .32-2.25c.05-.28.1-.57.13-.85l.2-1.36c.08-.53.15-1.07.43-1.55.3-.5.74-.83 1.26-1.07.32-.15.64-.26 1-.24.67.02 1.24.26 1.6.86.08.13.13.28.2.44Zm-3.22 4.88c.05.05.09.11.15.14.23.11.55.04.65-.19.1-.2.13-.43.17-.65l.16-.97c.04-.22-.02-.4-.19-.49a.54.54 0 0 0-.76.42c-.07.39-.13.77-.18 1.16-.03.19-.01.38 0 .58m.6-2.9H16c.17-.01.36-.2.39-.35l.22-1.28c.04-.18-.04-.33-.2-.39-.06-.02-.14-.02-.2-.02a.51.51 0 0 0-.57.43l-.09.52-.12.66c-.03.18.01.33.21.43"/></svg>