<svg xmlns="http://www.w3.org/2000/svg" xmlns:xlink="http://www.w3.org/1999/xlink" width="38" height="24" fill="none" aria-labelledby="pi-riverty" role="img" viewBox="0 0 38 24"><title id="pi-riverty">Riverty</title><defs><path id="pi-riverty-b" fill="#fff" d="M0 0h38v24H0z"/></defs><g clip-path="url(#pi-riverty-a)"><use xlink:href="#pi-riverty-b"/><path fill="#282828" d="M38 12v12H0V12"/><path fill="#255A57" d="M35 0h3v12H0V0z"/><path fill="#fff" d="m21.75 6.05-.04-.13-.02-.04c-.2-.57-.67-.9-1.25-.9-.1 0-.18 0-.27.02-.46.1-1.01.44-1.01 1.46v1.62c0 .11.03.18.06.24a.28.28 0 0 0 .17.14h.07c.05 0 .11-.01.16-.05.12-.08.12-.23.12-.34v-1.6c0-.54.17-.8.56-.89a.7.7 0 0 1 .82.49c.06.29.1.37.13.43l.01.02a.3.3 0 0 0 .37.06c.17-.1.16-.33.12-.53M7.73 4a1.6 1.6 0 0 0-.64 0c-.77.15-1.27.77-1.27 1.58v2.51c0 .1.01.18.04.24a.3.3 0 0 0 .18.14c.08.02.16 0 .23-.04.13-.1.14-.24.14-.35V7.06h2v1.02c0 .12.04.2.06.24a.3.3 0 0 0 .17.14h.07c.06 0 .11-.01.16-.05.12-.08.13-.21.13-.34v-2.5c0-.81-.5-1.43-1.27-1.58Zm.68 2.5h-2v-.92c0-.4.14-.67.44-.87a1 1 0 0 1 1.12 0c.3.2.44.48.44.87zm10.32-.18a1.76 1.76 0 0 0-2.17-1.25 1.77 1.77 0 0 0-1.25 2.3c.23.74.9 1.2 1.66 1.2a1.85 1.85 0 0 0 1.36-.59c.1-.12.16-.21.14-.33a.28.28 0 0 0-.32-.24h-.01a.4.4 0 0 0-.18.1l-.05.07-.08.07a1.17 1.17 0 0 1-1.98-.55h2.68c.1-.01.16-.05.2-.12.1-.12.1-.3 0-.66m-2.9.25.04-.15a1.17 1.17 0 0 1 1.48-.8 1.2 1.2 0 0 1 .84.97zm-.91.53a.28.28 0 0 0-.4-.12c-.13.07-.15.22-.16.27l-.03.13v.04c-.1.4-.4.6-.8.55-.26-.04-.6-.18-.6-.9V7h.78c.1 0 .38 0 .38-.29 0-.14-.1-.26-.23-.27h-.93v-1.1a.5.5 0 0 0-.05-.24.3.3 0 0 0-.17-.14.27.27 0 0 0-.23.04c-.12.08-.13.21-.13.35V7c0 .93.33 1.4 1.08 1.52a1.25 1.25 0 0 0 1.52-1.07.65.65 0 0 0-.03-.36Zm14.23-.5A1.68 1.68 0 0 0 27.61 5a1.79 1.79 0 0 0-1.93 1.4 1.75 1.75 0 0 0 1.73 2.16 1.63 1.63 0 0 0 1.17-.48c0 .12 0 .18.03.24a.28.28 0 0 0 .18.15c.08.02.16 0 .23-.05.12-.08.14-.22.14-.34V6.6Zm-1.47 1.36a1.16 1.16 0 0 1-1.41-.85 1.2 1.2 0 0 1 1.15-1.55c.24 0 .47.06.67.2.3.22.48.57.5.96.02.61-.34 1.1-.9 1.24ZM25.14 4.5a1.5 1.5 0 0 0-1.19-.55c-.88.01-1.47.66-1.47 1.61v2.52c0 .11.03.18.05.24a.3.3 0 0 0 .18.14h.07c.05 0 .11-.01.16-.05.12-.08.13-.22.13-.34V6.93h.86c.8 0 1.36-.43 1.51-1.18a1.5 1.5 0 0 0-.3-1.25m-1.21 1.86h-.02l-.83-.02v-.83c0-.37.06-.55.23-.73a.86.86 0 0 1 .67-.27c.53.02.9.4.89.94s-.4.9-.95.9Zm8.32-1.15a.3.3 0 0 0-.18-.14.27.27 0 0 0-.22.05c-.12.08-.13.21-.13.34v1.6c0 .32-.1.57-.26.72a.7.7 0 0 1-.58.15c-.4-.05-.62-.34-.62-.82V5.46c0-.09 0-.17-.04-.24a.3.3 0 0 0-.17-.14.27.27 0 0 0-.23.04c-.12.09-.14.22-.14.35v1.66c0 .66.3 1.13.84 1.32.42.15.88.08 1.2-.16v.01c-.06.35-.23.56-.55.64a.66.66 0 0 1-.47-.03.6.6 0 0 1-.23-.18l-.09-.11-.05-.07a.4.4 0 0 0-.08-.08l-.02-.02h-.01a.27.27 0 0 0-.26-.02.29.29 0 0 0-.17.21c-.02.13.03.24.13.38.07.1.16.2.25.27.21.17.5.26.78.26.13 0 .25-.02.38-.05.63-.16.98-.67.98-1.44v-2.6a.5.5 0 0 0-.05-.24h-.01Zm-20.29.7v-.03a1.3 1.3 0 0 0-1.26-.9c-.1 0-.18 0-.27.02-.47.1-1.01.44-1.01 1.46v1.62c0 .12.03.2.05.23a.3.3 0 0 0 .18.15h.06c.06 0 .12-.01.16-.05.12-.08.14-.21.14-.34v-.38L9.99 7h.84c.27 0 .34-.14.34-.26a.28.28 0 0 0-.06-.2c-.06-.07-.15-.1-.28-.1h-.84c0-.52.17-.78.56-.87.26-.06.52.03.68.23.06.07.11.17.14.26.06.29.1.38.13.43l.01.02a.3.3 0 0 0 .37.06c.18-.1.16-.33.12-.53a1 1 0 0 0-.04-.13m21.33-1.7a.4.4 0 0 0-.3-.12.4.4 0 0 0-.3.13.44.44 0 0 0-.13.3.44.44 0 0 0 .26.41.41.41 0 0 0 .47-.1.43.43 0 0 0 .13-.3.4.4 0 0 0-.13-.31Zm-.04.58a.35.35 0 0 1-.27.11.35.35 0 0 1-.26-.1.38.38 0 0 1-.1-.28.38.38 0 0 1 .36-.38c.1 0 .2.04.27.12.07.07.1.16.1.26a.38.38 0 0 1-.1.27"/><path fill="#fff" d="M33.18 4.42c0-.07-.03-.1-.07-.13a.4.4 0 0 0-.13-.01h-.17v.48h.09v-.19h.06l.1.01c.03.02.04.06.04.12v.06h.08v-.1a.15.15 0 0 0-.04-.08.14.14 0 0 0-.08-.04.1.1 0 0 0 .07-.03c.03-.02.05-.05.05-.1Zm-.13.08a.2.2 0 0 1-.08.01h-.07v-.17h.07a.2.2 0 0 1 .1.02c.02.01.03.04.03.07s-.02.06-.05.07"/><path fill="#E7E4E2" d="m32.22 15.95-1.25 1.54v1.26h-.68v-1.26l-1.24-1.54h.84l.76.95.75-.95zm-6.93 0v.55h1.1v2.25h.67V16.5h1.1v-.55H25.3Zm-3.4.55h1.01c.3 0 .44.1.44.33s-.14.34-.44.34h-1v-.67Zm2.29 2.25-.78-1.08c.42-.1.64-.4.64-.84 0-.57-.37-.88-1.06-.88h-1.76v2.8h.67v-1.03h.75l.74 1.03zm-7.51-2.8v2.8h2.67v-.55h-2v-.58h1.72v-.55h-1.71v-.57h2v-.55zm-2.13 0-.88 2.07-.88-2.07h-.73l1.25 2.8h.7l1.24-2.8zm-4.6 2.8h.68v-2.8h-.68zm-4.12 0h.68v-2.16h-.68zm.68-2.16h2.28v-.64H6.5z"/></g><defs><clipPath id="pi-riverty-a"><use xlink:href="#pi-riverty-b"/></clipPath></defs></svg>