<svg xmlns="http://www.w3.org/2000/svg" width="38" height="24" aria-labelledby="pi-rivertyafterpay"><path d="M35 0H3C1.3 0 0 1.3 0 3v18c0 1.7 1.4 3 3 3h32c1.7 0 3-1.3 3-3V3c0-1.7-1.4-3-3-3z" opacity=".07" vector-effect="non-scaling-stroke"/><path fill="#282828" d="M36.977 11.532 36.948 21c0 1.1-.9 2-2 2h-32c-1.1 0-2-.9-2-2v-9.83" vector-effect="non-scaling-stroke"/><path fill="#255a57" d="M34.948 1c1.1 0 2 .9 2 2l.026 8.96-36.039-.017L.948 3c0-1.1.9-2 2-2h32" vector-effect="non-scaling-stroke"/><path fill="#fff" stroke="null" d="M21.746 6.051c-.012-.051-.028-.095-.039-.134l-.012-.036c-.203-.573-.672-.91-1.25-.906-.101 0-.187.008-.277.028-.461.103-1.008.44-1.008 1.461v1.614c0 .115.028.183.056.238a.286.286 0 0 0 .175.139.34.34 0 0 0 .066.008.256.256 0 0 0 .16-.052c.122-.083.122-.227.122-.346v-1.6c0-.54.168-.803.559-.883.261-.06.52.028.68.222a.697.697 0 0 1 .144.266c.059.287.09.374.13.43l.012.015a.304.304 0 0 0 .363.064c.177-.099.158-.334.119-.528zM7.733 3.986a1.599 1.599 0 0 0-.645 0c-.769.158-1.27.778-1.27 1.58v2.515a.49.49 0 0 0 .044.234l.004.005a.286.286 0 0 0 .176.14c.078.02.16.004.226-.045.13-.087.145-.238.145-.345V7.057h2v1.02c0 .124.036.195.055.238a.286.286 0 0 0 .176.14.34.34 0 0 0 .066.008.256.256 0 0 0 .16-.052c.117-.08.133-.211.133-.346V5.563c-.005-.803-.5-1.42-1.27-1.577zm.676 2.506H6.416v-.921c0-.398.137-.676.437-.874a.996.996 0 0 1 .762-.155.84.84 0 0 1 .351.15l.005.005c.297.202.437.48.437.874v.921zm10.325-.182c-.25-.95-1.203-1.498-2.171-1.252a1.768 1.768 0 0 0-1.133.862 1.845 1.845 0 0 0-.121 1.442c.234.736.901 1.196 1.663 1.196a1.848 1.848 0 0 0 1.036-.31 1.5 1.5 0 0 0 .32-.278c.097-.12.157-.215.145-.326a.276.276 0 0 0-.325-.243l-.012.005a.432.432 0 0 0-.18.103l-.05.064-.075.068-.004.004a1.133 1.133 0 0 1-.579.326 1.167 1.167 0 0 1-1.405-.875h2.554l.056-.008.086-.004c.094-.008.164-.044.21-.111.087-.124.082-.307-.015-.664zm-2.899.245c.008-.051.023-.095.039-.147a1.172 1.172 0 0 1 1.477-.798 1.2 1.2 0 0 1 .837.965l-2.353-.02zm-.918.537a.278.278 0 0 0-.165-.143.293.293 0 0 0-.223.024c-.137.067-.164.219-.172.27l-.023.127-.005.04c-.09.392-.401.607-.8.547-.258-.039-.602-.178-.602-.901v-.047h.782c.094 0 .379 0 .379-.287 0-.142-.106-.262-.231-.27-.059-.008-.11-.008-.168-.008h-.762v-1.1a.496.496 0 0 0-.043-.235v-.004a.286.286 0 0 0-.175-.14.268.268 0 0 0-.227.044c-.117.08-.132.211-.132.346v1.64c0 .934.332 1.402 1.079 1.526.086.016.172.024.258.024.586 0 1.078-.37 1.234-.958.012-.047.02-.091.028-.135V7.45c.023-.172.015-.267-.032-.358zm14.235-.496a1.681 1.681 0 0 0-.863-1.394 1.786 1.786 0 0 0-1.394-.143 1.752 1.752 0 0 0-1.219 1.335c-.191.96.34 1.859 1.234 2.093.165.044.332.064.496.064.25 0 .492-.051.71-.15.18-.083.34-.194.466-.33v.008c0 .107 0 .17.03.234l.005.005a.286.286 0 0 0 .175.139c.079.02.16.004.227-.044.121-.083.14-.222.14-.346V6.663l-.007-.067zM27.683 7.95a1.156 1.156 0 0 1-1.414-.85v-.005a1.109 1.109 0 0 1-.047-.25c-.035-.568.3-1.08.82-1.244.125-.04.255-.06.38-.06.241 0 .472.072.672.215.3.214.48.564.492.958.023.608-.337 1.105-.903 1.236zm-2.539-3.452a1.497 1.497 0 0 0-1.191-.548c-.88.012-1.473.659-1.473 1.613v2.515c0 .115.028.183.055.238a.286.286 0 0 0 .176.139.34.34 0 0 0 .066.008.256.256 0 0 0 .16-.052c.121-.083.137-.222.137-.346v-1.14h.855c.809 0 1.36-.43 1.512-1.176a1.508 1.508 0 0 0-.297-1.251zm-1.219 1.859h-.012l-.832-.013V5.51c0-.374.055-.548.23-.73a.859.859 0 0 1 .668-.267c.528.013.894.398.891.938-.011.536-.397.906-.945.906zm8.325-1.144a.286.286 0 0 0-.176-.14.268.268 0 0 0-.226.044c-.117.08-.13.215-.13.346v1.6c0 .315-.093.569-.26.72-.149.13-.348.182-.58.15-.398-.056-.616-.346-.616-.819V5.455a.548.548 0 0 0-.039-.238.286.286 0 0 0-.175-.14.268.268 0 0 0-.227.045c-.121.083-.14.222-.14.345v1.66c0 .664.297 1.132.84 1.323.419.147.876.075 1.191-.163V8.3c-.05.349-.226.56-.538.643a.662.662 0 0 1-.473-.031.624.624 0 0 1-.234-.187l-.086-.11-.055-.065a.4.4 0 0 0-.079-.083l-.015-.016-.016-.008a.274.274 0 0 0-.258-.012.29.29 0 0 0-.164.211c-.02.127.03.235.121.374l.004.005c.067.095.157.19.254.27.211.17.488.258.782.258.125 0 .25-.015.375-.047.63-.163.977-.676.977-1.442V5.455c.005-.123-.03-.19-.05-.235l-.007-.007zm-20.286.704-.012-.036c-.204-.573-.673-.91-1.25-.906a1.19 1.19 0 0 0-.277.028c-.462.103-1.008.44-1.008 1.461v1.614a.48.48 0 0 0 .055.234v.005a.286.286 0 0 0 .176.139.34.34 0 0 0 .066.008.256.256 0 0 0 .16-.052c.117-.08.132-.214.132-.346v-.381l-.012-.672h.833c.273 0 .34-.142.347-.266a.275.275 0 0 0-.066-.202c-.058-.064-.152-.095-.281-.095H9.99c.004-.524.172-.783.558-.866.262-.06.52.028.68.223a.722.722 0 0 1 .145.266c.059.286.09.373.13.428l.011.016a.304.304 0 0 0 .364.064c.183-.099.164-.333.124-.529a.955.955 0 0 0-.04-.135zm21.329-1.701a.412.412 0 0 0-.304-.127.409.409 0 0 0-.305.127.441.441 0 0 0-.125.31c0 .119.043.222.125.31a.4.4 0 0 0 .305.13.413.413 0 0 0 .304-.13.441.441 0 0 0 .125-.31.41.41 0 0 0-.125-.31zm-.047.576a.346.346 0 0 1-.262.11.351.351 0 0 1-.262-.11.374.374 0 0 1-.109-.27.377.377 0 0 1 .371-.378c.102 0 .188.036.262.111a.358.358 0 0 1 .109.266.38.38 0 0 1-.11.27z"/><path fill="#fff" stroke="null" d="M33.18 4.419c0-.064-.028-.103-.074-.124a.346.346 0 0 0-.13-.015h-.164v.48h.086v-.19h.066c.047 0 .074.004.094.015.028.02.043.056.043.111v.064h.079l-.005-.004c-.004-.005-.004-.013-.004-.024V4.66a.15.15 0 0 0-.028-.075.143.143 0 0 0-.082-.047.164.164 0 0 0 .071-.024c.032-.02.048-.051.048-.095zm-.133.083a.19.19 0 0 1-.078.012h-.074V4.34h.07a.21.21 0 0 1 .102.02c.023.013.03.036.03.068a.077.077 0 0 1-.05.075z"/><path fill="#E7E4E2" stroke="null" d="m32.218 15.95-1.244 1.543v1.256h-.684v-1.256l-1.244-1.544h.848l.757.951.753-.95h.814zm-6.93 0v.55h1.097v2.249h.679v-2.248h1.097v-.552h-2.873zm-3.395.55h1.01c.3 0 .44.108.44.334 0 .227-.14.334-.44.334h-1.01v-.667zm2.285 2.249L23.4 17.67c.418-.107.636-.391.636-.836 0-.576-.37-.885-1.058-.885h-1.762v2.8h.678v-1.03h.75l.735 1.03h.8zm-7.512-2.8v2.8h2.676v-.552h-1.997v-.58h1.715v-.552h-1.715v-.564h1.997v-.551h-2.676zm-2.129 0-.874 2.071-.88-2.07h-.735l1.249 2.799h.696l1.249-2.8h-.705zm-4.6 2.8h.678v-2.8h-.679v2.8zm-4.118 0h.679v-2.158h-.68v2.158zm.679-2.158h2.28v-.642h-2.28v.642z"/></svg>