<svg xmlns="http://www.w3.org/2000/svg" width="38" height="24" aria-labelledby="pi-riverty"><path d="M35 0H3C1.3 0 0 1.3 0 3v18c0 1.7 1.4 3 3 3h32c1.7 0 3-1.3 3-3V3c0-1.7-1.4-3-3-3z" opacity=".07" vector-effect="non-scaling-stroke"/><path fill="#527a42" d="M35 1c1.1 0 2 .9 2 2v18c0 1.1-.9 2-2 2H3c-1.1 0-2-.9-2-2V3c0-1.1.9-2 2-2h32"/><path fill="#e7e4e2" d="m31.943 10.57-.79 1.04-.788-1.04h-.897l1.291 1.685v1.399h.717v-1.399l1.291-1.685h-.86.036zm-6.383 0v.61h1.147v2.474h.717v-2.475h1.148v-.61h-3.013zm-3.515 1.327h1.04c.322 0 .466-.108.466-.359s-.144-.359-.466-.359h-1.04v.754-.036zm1.542 1.757-.753-1.148h-.79v1.148h-.717V10.57h1.83c.717 0 1.111.358 1.111.968s-.215.79-.645.933l.824 1.183h-.86zm-6.994-3.084v3.084h2.798v-.61h-2.08V12.4h1.793v-.61H17.31v-.61h2.08v-.61h-2.798zm-2.223 0-.897 2.295-.932-2.295h-.753l1.29 3.084h.718l1.291-3.084h-.753.036zm-4.806 3.084h.718V10.57h-.718v3.084zm-4.304 0h.718v-2.367h-.717v2.367zm.718-2.367h2.367v-.717H5.978v.717z" class="cls-2"/></svg>