<svg xmlns="http://www.w3.org/2000/svg" width="38" height="24" fill="none" aria-labelledby="pi-rupay" role="img" viewBox="0 0 38 24"><title id="pi-rupay">RuPay</title><path fill="#fff" d="M0 0h38v24H0z"/><path fill="#097A44" fill-rule="evenodd" d="m32 15.77 2-7.41 2 3.82z" clip-rule="evenodd"/><path fill="#F46F20" fill-rule="evenodd" d="m30.76 15.79 2-7.4 2 3.82z" clip-rule="evenodd"/><path fill="#302F82" fill-rule="evenodd" d="M20.67 8.2a2 2 0 0 0-1.56-.56h-3l-1.95 6.81h1.75l.66-2.31h1.23a3.4 3.4 0 0 0 1.9-.5 2.9 2.9 0 0 0 1.12-1.72 1.77 1.77 0 0 0-.15-1.72m-3.21.94h1.12c.2-.02.4.03.55.15.11.11.07.35 0 .53-.06.25-.2.47-.4.62-.2.14-.45.2-.7.2H17zM9.14 9a1.9 1.9 0 0 0-.2-.61 1.3 1.3 0 0 0-.58-.53c-.34-.13-.71-.2-1.08-.18H4l-2 6.75h1.73l.72-2.52H5.7c.47 0 .58.1.6.13s.09.15 0 .65l-.16.6c-.05.2-.1.39-.11.59v.55h1.79l.12-.43-.11-.08s-.07-.05-.06-.2c.03-.19.07-.38.13-.56l.1-.42c.13-.35.17-.74.1-1.11a.9.9 0 0 0-.26-.41 2 2 0 0 0 .68-.54c.24-.3.42-.63.53-1 .07-.22.1-.45.09-.68m-1.86.83a.84.84 0 0 1-.5.6c-.2.07-.42.1-.64.09H4.86l.38-1.33h1.43c.18-.01.36.02.53.09.05 0 .21.07.08.5zm4.9 2.17c-.06.24-.16.47-.3.67a1 1 0 0 1-.87.43c-.34 0-.36-.14-.38-.2-.01-.18.01-.35.07-.52l.89-3.11H9.9l-.86 3a3 3 0 0 0-.15 1.32c.08.42.4.91 1.41.91.25 0 .5-.03.73-.1.21-.07.41-.17.6-.29l-.08.3h1.62l1.47-5.13H13zm12.93 1.1.63-2.18c.24-.83-.07-1.21-.37-1.39-.42-.23-.9-.34-1.37-.33-.73-.04-1.44.2-2 .68-.31.3-.55.68-.69 1.1l-.09.26h1.61v-.11c.06-.14.14-.26.25-.37a.84.84 0 0 1 .56-.17.9.9 0 0 1 .46.08v.18c0 .06 0 .15-.25.23-.16.05-.32.09-.48.1l-.44.05a4 4 0 0 0-1.25.32c-.57.27-.99.78-1.15 1.39a1.25 1.25 0 0 0 .17 1.22c.29.3.7.47 1.12.44.37 0 .74-.09 1.07-.25l.4-.23v.33H25l.13-.48-.13-.07a.6.6 0 0 1 0-.22c0-.25.07-.43.11-.58m-2.92-.1a.62.62 0 0 1 .34-.4q.27-.12.57-.15l.29-.05.3-.07v.07c-.07.3-.25.57-.51.75-.22.13-.47.2-.72.21a.34.34 0 0 1-.25-.08.55.55 0 0 1-.02-.28m7.91-3.68-1.69 3v-3h-1.8l.39 5.13-.12.19a.8.8 0 0 1-.23.25.6.6 0 0 1-.24.08h-.68l-.39 1.37h.83a2 2 0 0 0 1.29-.34 9.6 9.6 0 0 0 1.27-1.71l3.17-5z" clip-rule="evenodd"/></svg>