<svg version="1.1" xmlns="http://www.w3.org/2000/svg" x="0" y="0" viewBox="0 0 38 24" width="38" height="24" role="img" aria-labelledby="pi-sadad" xml:space="preserve"><title id="pi-sadad">Sadad</title><style type="text/css">.st0{fill:#fff}.st1{fill:#ec7824}.st2{fill:#9e9e9c}</style><path class="st0" d="M4 24c-2.2 0-4-1.8-4-4V4c0-2.2 1.8-4 4-4h30c2.2 0 4 1.8 4 4v16c0 2.2-1.8 4-4 4H4z"/><path class="st0" d="M34 .1c2.2 0 3.9 1.7 3.9 3.9v16c0 2.2-1.7 3.9-3.9 3.9H4C1.8 23.9.1 22.2.1 20V4C.1 1.8 1.8.1 4 .1h30m0-.1H4C1.8 0 0 1.8 0 4v16c0 2.2 1.8 4 4 4h30c2.2 0 4-1.8 4-4V4c0-2.2-1.8-4-4-4z"/><g><path class="st1" d="M22 13.7H14.7c-.1 0-.2 0-.1-.2.1-.4.3-.8.4-1.2 0-.1.1-.1.2-.1h2.1c.5 0 .8-.2.9-.7 0-.1.1-.2.1-.2.1-.3 0-.5-.4-.5h-1.5c-.1 0-.2 0-.1-.2.1-.4.3-.8.4-1.2 0-.1.1-.1.2-.1h1.7c.7 0 1.2.5 1.2 1.2 0 .3-.1.7-.2 1l-.3.6c0 .1 0 .1.1.1h4.5c.3 0 .5-.2.7-.5.2-.4.3-.8.4-1.2.1-.1.1-.3.2-.4 0-.1.1-.1.1-.1h1.1c.3 0 .3 0 .2.3-.2.6-.4 1.2-.7 1.8 0 .1 0 .1.1.1h.9c.3 0 .5-.2.6-.5.1-.2.2-.4.2-.6.1-.3.3-.6.3-1 0-.1.1-.1.2-.1h1.2c.1 0 .1 0 .1.1-.2.5-.4 1.1-.6 1.6 0 .1-.1.2-.2.3v.1h.9c.3 0 .6-.2.7-.6.2-.5.3-1 .5-1.4 0-.1.1-.2.2-.2h1.1c.1 0 .2 0 .1.1-.1.4-.3.7-.4 1.1-.1.3-.2.5-.3.8-.2.3-.4.7-.8.9-.2.1-.4.3-.6.4-.4.2-.8.3-1.2.3h-5.6c-.3.1-.8.1-1.3.2 0-.1 0-.1 0 0zM6.7 13.6h-2c-.1 0-.2 0-.1-.2.1-.4.3-.7.4-1.1.1-.2.1-.2.3-.2h3.6c.3 0 .5-.1.6-.4.1-.2.2-.4.2-.6.1-.3 0-.4-.3-.5H7.1c-.1 0-.1 0-.1-.1.1-.4.3-.8.4-1.2 0-.1.1-.1.2-.1h2.3c.5 0 1 .2 1.2.7.1.3.2.6.1.9-.2.7-.4 1.4-1 1.9s-1.2.9-2 .9c-.5.1-1.1 0-1.5 0z"/><path class="st2" d="M12.3 13.6h-.5c-.1 0-.1-.1-.1-.1.2-.3.2-.6.4-.9.3-.7.5-1.5.8-2.2.2-.6.5-1.3.7-1.9.2-.6.5-1.3.7-1.9 0-.1.1-.2.2-.2h1c.2 0 .2 0 .2.3-.1.3-.3.7-.4 1-.1.4-.3.8-.4 1.3-.1.3-.2.6-.3.8-.1.3-.2.7-.4 1-.2.6-.4 1.1-.6 1.7-.1.2-.2.4-.2.7-.1.3-.4.6-.8.6-.1-.2-.2-.2-.3-.2zM21.1 16.3h-.3c-.1 0-.3 0-.4.1-.1.1-.3.1-.4 0 0 0-.1-.1-.2 0H19h-.1c-.1 0-.1 0-.1-.1s0-.1.1-.1h.4c.1 0 .2 0 .2-.1s0-.2-.1-.2h-.1s-.1 0-.1-.1c0 0 0-.1.1-.1.3 0 .5.1.4.4 0 .1 0 .1.1.1.2 0 .2-.1.3-.2.1-.2.4-.3.5-.2.1 0 .2.1.2.2s0 .2.1.2.2 0 .3-.1c0-.1.1-.2.1-.2.1-.1.1-.3.1-.4v-.1c0-.1.1-.1.2 0 .1 0 0 .1 0 .1-.1.2-.1.4-.2.5-.1.2-.1.2.1.2s.3 0 .4-.3c.1-.2.1-.3.2-.5 0-.1.1-.1.2-.1s.1.1 0 .2c-.1.2-.2.5-.3.7-.1.1-.2.2-.3.2-.3-.1-.5-.1-.6-.1zm-.7-.4c0-.1 0-.1-.1-.1s-.2.2-.2.3c0 .1 0 .1.1.1s.2-.1.2-.3zM29 15.7c.1-.1.2-.1.2-.1.1 0 .2-.1.3-.1.2 0 .3.1.3.3 0 .1-.1.2 0 .2.1.1.2 0 .3 0 .1 0 .1-.1.1-.1 0-.1.1-.2.1-.3 0-.1.1-.1.2-.1s0 .1 0 .1c0 .1-.1.1-.1.2-.1.4-.2.4-.6.4H28c-.1 0-.2-.1-.2-.2.1-.3.2-.5.3-.8 0-.1.1-.1.1-.1.1 0 0 .1 0 .1 0 .2-.1.3-.2.5s0 .2.2.2c.3 0 .3 0 .4-.3.1-.2.1-.3.2-.5 0 0 0-.1.1-.1h.1v.1c.1.3 0 .4 0 .6zm.2.4h.2c.1 0 .2-.1.2-.2s-.1-.2-.2-.2c-.2 0-.4.1-.5.3v.1h.3zM24.4 16.3h-.7s-.1 0-.1-.1 0-.1.1-.1h.3c.1 0 .2 0 .2-.1s0-.2-.1-.2-.1 0-.1-.1.1-.1.2-.1c.2 0 .4.2.3.4 0 .1 0 .2.1.2.2 0 .3 0 .4-.3 0-.1 0-.1.1-.2 0 0 0-.1.1-.1h.2v.1c0 .1-.1.2-.1.3 0 .1 0 .1.1.1s.1-.1.2-.1c0-.1.1-.2.1-.3 0-.1.1-.1.1-.1.1 0 .1.1 0 .2 0 .1-.1.2-.1.3v.1h.1c.1 0 .2-.1.2-.2s.1-.2.1-.2c0-.1.1-.1.2-.1s0 .1 0 .1c0 .2-.1.4-.3.5-.1.1-.1.1-.2.1-.5-.1-.9-.1-1.4-.1zM17.9 16.3h-.3c-.1 0-.2 0-.3.1-.1.1-.1.1-.2.1H17s0-.1.1-.1h0c-.1 0-.2-.2-.2-.4.1-.2.3-.4.5-.4s.3.1.2.3v.1c0 .1 0 .1.1.1h.2c.1 0 .1-.1.1-.1.1-.2.2-.4.4-.4.1 0 .2 0 .3.1.1.1.1.2 0 .3-.1.2-.3.4-.5.4-.2-.1-.3-.1-.3-.1zm.6-.5c0-.1 0-.1-.1-.1s-.2.1-.2.2 0 .1.1.1c0 .1.1 0 .2-.2zm-1.2 0c0-.1 0-.1-.1-.1s-.2.1-.2.2.1.1.2.1c0 .1.1-.1.1-.2zM15.9 16.3h-.5c-.2 0-.2-.1-.2-.2.1-.2.2-.5.2-.7 0 0 0-.1.1-.1h.1c.1 0 0 .1 0 .1-.1.2-.1.4-.2.5 0 .1 0 .2.1.2s.2 0 .3-.2c.1-.2.3-.4.6-.4.1 0 .1 0 .2.1 0 0 .1.1 0 .1s-.1.1-.2 0-.1-.1-.2 0-.1.1-.2.3c0 0 0 .1.1.1h.2c.1 0 .1 0 .1.1s0 .1-.1.1h-.4zM27.2 15.5h.4c.1 0 .1 0 .1.1.1.1.1.2 0 .4s-.3.4-.5.3c-.2 0-.2-.1-.2-.3 0-.1 0-.1.1-.2v-.1H27c-.1.1-.2.2-.2.3-.1.1-.1.3-.1.4 0 0 0 .1-.1.1h-.1v-.1c.1-.2.1-.5.3-.7 0-.1.1-.2.4-.2zm0 .5c0 .1.1.1.1.1.1 0 .2-.2.2-.3 0-.1 0-.1-.1-.1 0 0-.2.1-.2.3zM14.4 16.3h-.5c-.2 0-.2-.2-.2-.3 0-.1.1-.2.1-.3 0-.1.1-.1.2-.1s0 .1 0 .1c0 .1 0 .2-.1.2 0 .1 0 .2.1.2h.6c.1 0 .1 0 .2-.1 0-.1.1-.2.1-.3 0-.1 0-.1.1-.1s.1 0 .1.1c0 .2-.1.3-.2.5-.1.1-.2.2-.3.2.1-.1-.1-.1-.2-.1zM22.9 16.3h-.4c-.1 0-.1 0-.1-.1s0-.1.1-.1h.4c.1 0 .2 0 .2-.1s0-.2-.2-.2c-.1 0-.1 0-.1-.1s.1-.1.1-.1c.3 0 .4.2.3.4v.1c-.1.2-.1.2-.3.2zM23.8 15.3c0 .1-.1.2-.1.3-.1.2-.1.4-.2.5 0 .1 0 .1-.1.1h-.1v-.1l.3-.9c0-.1.1-.1.1-.1.1.1.1.1.1.2zM14.7 15.5c-.1-.2 0-.2.1-.2 0 0 .1 0 .1.1s-.1.1-.2.1z"/><path class="st2" d="M14.5 15.5c-.1 0-.1 0 0 0-.1-.2 0-.2.1-.2s.1 0 .1.1c-.1.1-.1.1-.2.1zM18.5 15.4c-.1 0-.1 0-.1-.1s.1-.1.1-.1c.1 0 .1 0 .1.1 0 0 0 .1-.1.1zM30.5 15.4c-.1 0-.1 0 0 0-.1-.2 0-.2 0-.2s.1 0 .1.1c0 0 0 .1-.1.1zM29.5 15.4s-.1 0 0 0c-.1-.2 0-.2.1-.2 0 0 .1 0 .1.1-.1 0-.1.1-.2.1z"/></g></svg>
