<svg xmlns="http://www.w3.org/2000/svg" width="38" height="24" fill="none" aria-labelledby="pi-sadad" role="img" viewBox="0 0 38 24"><title id="pi-sadad">Sadad</title><path fill="#fff" d="M0 0h38v24H0z"/><path fill="#EC7824" d="M22 13.7h-7.3c-.1 0-.2 0-.1-.2.1-.4.3-.8.4-1.2 0-.1.1-.1.2-.1h2.1c.5 0 .8-.2.9-.7 0-.1.1-.2.1-.2.1-.3 0-.5-.4-.5h-1.5c-.1 0-.2 0-.1-.2.1-.4.3-.8.4-1.2 0-.1.1-.1.2-.1h1.7c.7 0 1.2.5 1.2 1.2 0 .3-.1.7-.2 1l-.3.6c0 .1 0 .1.1.1h4.5c.3 0 .5-.2.7-.5.2-.4.3-.8.4-1.2.1-.1.1-.3.2-.4 0-.1.1-.1.1-.1h1.1c.3 0 .3 0 .2.3-.2.6-.4 1.2-.7 1.8 0 .1 0 .1.1.1h.9c.3 0 .5-.2.6-.5.1-.2.2-.4.2-.6.1-.3.3-.6.3-1 0-.1.1-.1.2-.1h1.2c.1 0 .1 0 .1.1-.2.5-.4 1.1-.6 1.6 0 .1-.1.2-.2.3v.1h.9c.3 0 .6-.2.7-.6.2-.5.3-1 .5-1.4 0-.1.1-.2.2-.2h1.1c.1 0 .2 0 .1.1-.1.4-.3.7-.4 1.1-.1.3-.2.5-.3.8-.2.3-.4.7-.8.9-.2.1-.4.3-.6.4q-.6.3-1.2.3h-5.6c-.3.1-.8.1-1.3.2q0-.15 0 0m-15.3-.1h-2c-.1 0-.2 0-.1-.2.1-.4.3-.7.4-1.1.1-.2.1-.2.3-.2h3.6c.3 0 .5-.1.6-.4.1-.2.2-.4.2-.6.1-.3 0-.4-.3-.5H7.1c-.1 0-.1 0-.1-.1.1-.4.3-.8.4-1.2 0-.1.1-.1.2-.1h2.3c.5 0 1 .2 1.2.7.1.3.2.6.1.9-.2.7-.4 1.4-1 1.9s-1.2.9-2 .9c-.5.1-1.1 0-1.5 0"/><path fill="#9E9E9C" d="M12.3 13.6h-.5c-.1 0-.1-.1-.1-.1.2-.3.2-.6.4-.9.3-.7.5-1.5.8-2.2.2-.6.5-1.3.7-1.9s.5-1.3.7-1.9c0-.1.1-.2.2-.2h1c.2 0 .2 0 .2.3-.1.3-.3.7-.4 1-.1.4-.3.8-.4 1.3-.1.3-.2.6-.3.8-.1.3-.2.7-.4 1-.2.6-.4 1.1-.6 1.7-.1.2-.2.4-.2.7-.1.3-.4.6-.8.6-.1-.2-.2-.2-.3-.2m8.8 2.7h-.3c-.1 0-.3 0-.4.1s-.3.1-.4 0c0 0-.1-.1-.2 0h-.9c-.1 0-.1 0-.1-.1s0-.1.1-.1h.4c.1 0 .2 0 .2-.1s0-.2-.1-.2h-.1s-.1 0-.1-.1c0 0 0-.1.1-.1.3 0 .5.1.4.4 0 .1 0 .1.1.1.2 0 .2-.1.3-.2.1-.2.4-.3.5-.2.1 0 .2.1.2.2s0 .2.1.2.2 0 .3-.1c0-.1.1-.2.1-.2.1-.1.1-.3.1-.4v-.1c0-.1.1-.1.2 0 .1 0 0 .1 0 .1-.1.2-.1.4-.2.5-.1.2-.1.2.1.2s.3 0 .4-.3c.1-.2.1-.3.2-.5 0-.1.1-.1.2-.1s.1.1 0 .2c-.1.2-.2.5-.3.7-.1.1-.2.2-.3.2-.3-.1-.5-.1-.6-.1m-.7-.4c0-.1 0-.1-.1-.1s-.2.2-.2.3 0 .1.1.1.2-.1.2-.3m8.6-.2c.1-.1.2-.1.2-.1.1 0 .2-.1.3-.1q.3 0 .3.3c0 .1-.1.2 0 .2.1.1.2 0 .3 0s.1-.1.1-.1c0-.1.1-.2.1-.3s.1-.1.2-.1 0 .1 0 .1c0 .1-.1.1-.1.2-.1.4-.2.4-.6.4H28c-.1 0-.2-.1-.2-.2.1-.3.2-.5.3-.8 0-.1.1-.1.1-.1.1 0 0 .1 0 .1 0 .2-.1.3-.2.5s0 .2.2.2c.3 0 .3 0 .4-.3.1-.2.1-.3.2-.5 0 0 0-.1.1-.1h.1v.1c.1.3 0 .4 0 .6m.2.4h.2c.1 0 .2-.1.2-.2s-.1-.2-.2-.2c-.2 0-.4.1-.5.3v.1zm-4.8.2h-.7s-.1 0-.1-.1 0-.1.1-.1h.3c.1 0 .2 0 .2-.1s0-.2-.1-.2-.1 0-.1-.1.1-.1.2-.1c.2 0 .4.2.3.4 0 .1 0 .2.1.2.2 0 .3 0 .4-.3 0-.1 0-.1.1-.2 0 0 0-.1.1-.1h.2v.1c0 .1-.1.2-.1.3s0 .1.1.1.1-.1.2-.1c0-.1.1-.2.1-.3s.1-.1.1-.1c.1 0 .1.1 0 .2 0 .1-.1.2-.1.3v.1h.1c.1 0 .2-.1.2-.2s.1-.2.1-.2c0-.1.1-.1.2-.1s0 .1 0 .1c0 .2-.1.4-.3.5-.1.1-.1.1-.2.1-.5-.1-.9-.1-1.4-.1m-6.5 0h-.3c-.1 0-.2 0-.3.1s-.1.1-.2.1H17s0-.1.1-.1c-.1 0-.2-.2-.2-.4.1-.2.3-.4.5-.4s.3.1.2.3v.1c0 .1 0 .1.1.1h.2c.1 0 .1-.1.1-.1.1-.2.2-.4.4-.4.1 0 .2 0 .3.1q.15.15 0 .3c-.1.2-.3.4-.5.4-.2-.1-.3-.1-.3-.1m.6-.5c0-.1 0-.1-.1-.1s-.2.1-.2.2 0 .1.1.1c0 .1.1 0 .2-.2m-1.2 0c0-.1 0-.1-.1-.1s-.2.1-.2.2.1.1.2.1c0 .1.1-.1.1-.2m-1.4.5h-.5c-.2 0-.2-.1-.2-.2.1-.2.2-.5.2-.7 0 0 0-.1.1-.1h.1c.1 0 0 .1 0 .1-.1.2-.1.4-.2.5 0 .1 0 .2.1.2s.2 0 .3-.2.3-.4.6-.4c.1 0 .1 0 .2.1 0 0 .1.1 0 .1s-.1.1-.2 0-.1-.1-.2 0-.1.1-.2.3c0 0 0 .1.1.1h.2c.1 0 .1 0 .1.1s0 .1-.1.1zm11.3-.8h.4c.1 0 .1 0 .1.1.1.1.1.2 0 .4s-.3.4-.5.3c-.2 0-.2-.1-.2-.3 0-.1 0-.1.1-.2v-.1H27c-.1.1-.2.2-.2.3-.1.1-.1.3-.1.4 0 0 0 .1-.1.1h-.1v-.1c.1-.2.1-.5.3-.7 0-.1.1-.2.4-.2m0 .5c0 .1.1.1.1.1.1 0 .2-.2.2-.3s0-.1-.1-.1c0 0-.2.1-.2.3m-12.8.3h-.5c-.2 0-.2-.2-.2-.3s.1-.2.1-.3.1-.1.2-.1 0 .1 0 .1c0 .1 0 .2-.1.2 0 .1 0 .2.1.2h.6c.1 0 .1 0 .2-.1 0-.1.1-.2.1-.3s0-.1.1-.1.1 0 .1.1c0 .2-.1.3-.2.5-.1.1-.2.2-.3.2.1-.1-.1-.1-.2-.1m8.5 0h-.4c-.1 0-.1 0-.1-.1s0-.1.1-.1h.4c.1 0 .2 0 .2-.1s0-.2-.2-.2c-.1 0-.1 0-.1-.1s.1-.1.1-.1c.3 0 .4.2.3.4v.1c-.1.2-.1.2-.3.2m.9-1c0 .1-.1.2-.1.3-.1.2-.1.4-.2.5 0 .1 0 .1-.1.1h-.1v-.1l.3-.9c0-.1.1-.1.1-.1.1.1.1.1.1.2m-9.1.2c-.1-.2 0-.2.1-.2 0 0 .1 0 .1.1s-.1.1-.2.1"/><path fill="#9E9E9C" d="M14.5 15.5q-.15 0 0 0c-.1-.2 0-.2.1-.2s.1 0 .1.1c-.1.1-.1.1-.2.1m4-.1c-.1 0-.1 0-.1-.1s.1-.1.1-.1c.1 0 .1 0 .1.1 0 0 0 .1-.1.1m12 0q-.15 0 0 0c-.1-.2 0-.2 0-.2s.1 0 .1.1c0 0 0 .1-.1.1m-1 0c-.1 0 0 0 0 0-.1-.2 0-.2.1-.2 0 0 .1 0 .1.1-.1 0-.1.1-.2.1"/></svg>