<svg xmlns="http://www.w3.org/2000/svg" fill="none" width="38" height="24" role="img" aria-labelledby="pi-santander" viewBox="0 0 38 24"><title id="pi-santander">Santander</title><path fill="#fff" d="M0 0h38v24H0z"/><path fill="#EA1D25" d="M22.94 10.82a3.83 3.83 0 00-.53-1.76l-2.8-4.87c-.2-.37-.36-.78-.45-1.19l-.12.2c-.7 1.2-.7 2.7 0 3.9l2.26 3.89c.7 1.19.7 2.7 0 3.89l-.12.2a4.18 4.18 0 00-.45-1.18l-2.06-3.57-1.31-2.3a4.14 4.14 0 01-.46-1.18l-.12.2a3.87 3.87 0 000 3.9l2.26 3.89c.7 1.19.7 2.7 0 3.89l-.12.2a4.18 4.18 0 00-.45-1.18l-2.84-4.88a4.32 4.32 0 01-.53-2.13c-3 .78-5.1 2.46-5.1 4.39 0 2.7 4.03 4.87 9 4.87s9-2.17 9-4.87c.04-1.85-2.01-3.53-5.06-4.3z"/></svg>
