<svg xmlns="http://www.w3.org/2000/svg" width="38" height="24" fill="none" aria-labelledby="pi-satispay" role="img" viewBox="0 0 38 24"><title id="pi-satispay">Satispay</title><path fill="#F94C43" d="M0 0h38v24H0z"/><path fill="#fff" d="M23.77 4.23a.13.13 0 0 0 .03-.15.13.13 0 0 0-.12-.08h-3.47l1.9 1.9zm-5.35 10.2-2.43-2.42 2.43-2.43-2.52-2.52-4.86 4.85a.13.13 0 0 0-.03.15l.03.04 4.86 4.85zm3.68 3.68L20.22 20h3.46a.13.13 0 0 0 .12-.08.13.13 0 0 0-.03-.15z"/><path fill="#fff" d="M19.09 4.04a.13.13 0 0 0-.1-.04h-4.67a.13.13 0 0 0-.12.08.13.13 0 0 0 .03.15L22 12l-7.78 7.76a.13.13 0 0 0 .02.2c.03.02.05.03.08.03H19c.04 0 .07-.01.1-.04l7.86-7.86a.14.14 0 0 0 0-.19L19.1 4.04Z"/></svg>