<svg xmlns="http://www.w3.org/2000/svg" width="38" height="24" fill="none" aria-labelledby="pi-satisfi" role="img" viewBox="0 0 38 24"><title id="pi-satisfi">SatisFi</title><path fill="#fff" d="M0 0h38v24H0z"/><path fill="#1D1D1B" d="M8.77 6.33a1.48 1.48 0 0 0-1.4-.88 1.28 1.28 0 0 0-1.34 1.23c0 .72.72 1.04 1.27 1.29l.54.23c1.04.47 1.92.99 1.92 2.27a2.5 2.5 0 0 1-2.46 2.5h-.07a2.46 2.46 0 0 1-2.52-2.08l.88-.25c.08.84.78 1.49 1.62 1.5a1.62 1.62 0 0 0 1.66-1.57c0-.95-.74-1.27-1.5-1.62l-.48-.2c-.95-.44-1.76-.92-1.76-2.08a2.12 2.12 0 0 1 2.26-2.06 2.32 2.32 0 0 1 2.1 1.23z"/><path fill="#1D1D1B" fill-rule="evenodd" d="M14.84 12.84h.85V7.8h-.85v.71a2.19 2.19 0 0 0-1.73-.86c-1.51 0-2.42 1.24-2.42 2.68a2.46 2.46 0 0 0 2.41 2.64 2.1 2.1 0 0 0 1.74-.83zm-1.65-.65c-1.07 0-1.65-.93-1.65-1.92a1.72 1.72 0 0 1 1.65-1.84 1.69 1.69 0 0 1 1.69 1.85c0 1.02-.62 1.91-1.69 1.91" clip-rule="evenodd"/><path fill="#1D1D1B" d="M18.18 12.84h-.86V8.59h-.52v-.8h.52V6h.86v1.8h.9v.8h-.9v4.25Zm6.52-3.87a.81.81 0 0 0-.68-.52.62.62 0 0 0-.62.56c0 .47.58.62 1.17.88a1.53 1.53 0 0 1 1.16 1.45 1.65 1.65 0 0 1-1.7 1.64 1.85 1.85 0 0 1-1.79-1.29l.78-.3c.21.47.46.8 1.02.8a.77.77 0 0 0 .82-.8c0-1.13-2.27-.74-2.27-2.33a1.44 1.44 0 0 1 1.5-1.43c.59.02 1.11.39 1.34.94zm3.15-3.38v2.4h2.69v.84h-2.7v4.01h-.9V4.75h3.7v.83h-2.8Z"/><path fill="#4C8A32" d="M20.45 6.5a.61.61 0 1 0 0-1.21.61.61 0 0 0 0 1.22Zm11.8 6.34a5.68 5.68 0 1 1-11.36 0V7.8h-.87v5.04a6.55 6.55 0 0 0 13.1 0V7.8h-.87zm.43-6.34a.61.61 0 1 0 0-1.21.61.61 0 0 0 0 1.22Z"/><path fill="#3B3C43" d="M6 15.24V16h-.1v-.76h-.1v-.08h.1v-.4c0-.23.11-.28.22-.28h.07v.08h-.06c-.07 0-.15.03-.15.22v.38h.2v.08zm.39-.08h.08v.11a.2.2 0 0 1 .25-.12l-.04.08h-.06c-.17 0-.17.23-.17.33v.45h-.06z"/><path fill="#3B3C43" fill-rule="evenodd" d="M7.34 16.02a.44.44 0 0 0 .44-.44v-.01a.43.43 0 0 0-.44-.43.44.44 0 0 0 0 .88m0-.79a.35.35 0 1 1 0 .7.35.35 0 0 1 0-.7" clip-rule="evenodd"/><path fill="#3B3C43" d="M8.06 15.16h.08v.1a.26.26 0 0 1 .4-.07c.03.03.07.07.08.11a.25.25 0 0 1 .25-.15.26.26 0 0 1 .18.07.3.3 0 0 1 .08.23V16h-.1v-.56a.25.25 0 0 0-.06-.17.16.16 0 0 0-.12-.05c-.22 0-.22.22-.22.27V16h-.1v-.54c0-.05 0-.23-.18-.23-.19 0-.22.12-.22.29V16h-.06v-.84Zm2.55-.3a.28.28 0 0 0-.27-.16.24.24 0 0 0-.25.23c0 .14.1.2.23.26.1.04.19.09.27.14a.3.3 0 0 1 .14.27.4.4 0 0 1-.4.4.4.4 0 0 1-.32-.15.4.4 0 0 1-.09-.15h.06a.35.35 0 0 0 .33.24.31.31 0 0 0 .33-.3.24.24 0 0 0-.13-.21l-.24-.12a.5.5 0 0 1-.24-.19.3.3 0 0 1-.03-.15.32.32 0 0 1 .32-.34.36.36 0 0 1 .33.2l-.04.04Zm.7 1.15-.4-.85h.08l.35.75.3-.75h.1l-.54 1.3h-.1l.2-.45Zm.64-.85h.08v.13a.28.28 0 0 1 .26-.15.25.25 0 0 1 .23.12c.03.06.05.14.04.2V16h-.08v-.53c0-.06 0-.12-.03-.17a.16.16 0 0 0-.16-.08.22.22 0 0 0-.2.12.4.4 0 0 0-.05.22V16h-.08v-.84Zm1.62.2a.4.4 0 0 0-.3-.14.36.36 0 0 0-.33.38.36.36 0 0 0 .34.34.44.44 0 0 0 .3-.15v.11a.47.47 0 0 1-.31.12.43.43 0 0 1-.43-.44.44.44 0 0 1 .71-.33l.02.1Zm.27-.85h.08v.78a.3.3 0 0 1 .26-.15.26.26 0 0 1 .23.12.5.5 0 0 1 .04.2V16h-.08v-.53a.3.3 0 0 0-.03-.17.18.18 0 0 0-.17-.08.2.2 0 0 0-.2.12.5.5 0 0 0-.05.22V16h-.08v-1.5Zm.95.65h.08v.11a.2.2 0 0 1 .18-.13h.09l-.04.07h-.06c-.17 0-.17.22-.17.33v.45h-.08z"/><path fill="#3B3C43" fill-rule="evenodd" d="M15.3 15.58a.44.44 0 0 0 .62.43.44.44 0 1 0-.62-.43m.44-.35c.2 0 .35.16.35.35a.35.35 0 0 1-.34.35.36.36 0 0 1-.36-.35c0-.2.16-.35.35-.35" clip-rule="evenodd"/><path fill="#3B3C43" d="M16.46 15.16h.08v.13a.28.28 0 0 1 .25-.15.25.25 0 0 1 .23.12.5.5 0 0 1 .05.2V16h-.09v-.53a.3.3 0 0 0-.03-.17.18.18 0 0 0-.17-.08.2.2 0 0 0-.2.12.4.4 0 0 0-.04.22V16h-.09v-.84Zm1.2.85-.4-.85h.1l.36.75.3-.75h.1l-.55 1.3h-.1l.2-.45Z"/></svg>