<svg xmlns="http://www.w3.org/2000/svg" viewBox="0 0 38 24" width="38" height="24" role="img" aria-labelledby="pi-satisfi"><title id="pi-satisfi">SatisFi</title><path fill="#fff" d="M0 0h38v24H0z"/><path d="M7.584 7.383a1.653 1.653 0 00-1.557-.985 1.433 1.433 0 00-1.502 1.378c0 .806.806 1.164 1.42 1.44l.606.261C7.715 10.001 8.7 10.58 8.7 12.02a2.79 2.79 0 01-2.756 2.797H5.87a2.756 2.756 0 01-2.818-2.335l.978-.276c.094.94.875 1.662 1.819 1.681A1.812 1.812 0 007.7 12.123c0-1.061-.827-1.42-1.667-1.805l-.551-.234c-1.054-.49-1.964-1.02-1.964-2.322a2.37 2.37 0 012.529-2.3A2.597 2.597 0 018.39 6.838l-.806.544z" fill="#1D1D1B"/><path fill-rule="evenodd" clip-rule="evenodd" d="M14.376 14.665h.958V9.023h-.958v.799a2.445 2.445 0 00-1.929-.958c-1.694 0-2.714 1.378-2.714 2.99a2.756 2.756 0 002.7 2.962 2.349 2.349 0 001.943-.937v.786zm-1.84-.723c-1.198 0-1.845-1.048-1.845-2.157a1.922 1.922 0 011.839-2.053 1.888 1.888 0 011.894 2.067c0 1.144-.688 2.143-1.887 2.143z" fill="#1D1D1B"/><path d="M18.117 14.665h-.958V9.91h-.585v-.888h.585V6.997h.958v2.026h1.012v.888h-1.012v4.754zM25.412 10.332a.91.91 0 00-.764-.579.689.689 0 00-.69.627c0 .523.648.689 1.303.985a1.715 1.715 0 011.302 1.619 1.846 1.846 0 01-1.909 1.84 2.067 2.067 0 01-1.99-1.44l.86-.345c.242.53.524.902 1.151.902a.861.861 0 00.916-.902c0-1.26-2.542-.827-2.542-2.604a1.605 1.605 0 011.674-1.598c.663.023 1.25.433 1.502 1.047l-.813.448zM28.932 6.55v2.693h3.01v.937h-3.01v4.485H27.92V5.62h4.133v.93h-3.12z" fill="#1D1D1B"/><circle cx="20.652" cy="6.901" r=".682" fill="#4C8A32"/><path d="M33.851 14.665a6.352 6.352 0 01-12.703 0V9.023h-.978v5.642a7.33 7.33 0 0014.66 0V9.023h-.979v5.642z" fill="#4C8A32"/><circle cx="34.333" cy="6.901" r=".682" fill="#4C8A32"/><path d="M4.484 17.352v.847h-.09v-.848h-.11v-.09h.103v-.44c0-.262.131-.317.248-.317h.076v.083h-.069c-.075 0-.158.034-.158.248v.427h.227v.09h-.227zM4.925 17.262h.09v.124a.214.214 0 01.282-.131l-.042.09a.13.13 0 00-.068 0c-.193 0-.193.254-.193.365v.503h-.07v-.951z" fill="#3B3C43"/><path fill-rule="evenodd" clip-rule="evenodd" d="M5.993 18.22a.49.49 0 00.489-.49v-.014a.482.482 0 00-.49-.475.49.49 0 000 .978zm-.007-.875A.393.393 0 116 18.13a.393.393 0 01-.014-.785z" fill="#3B3C43"/><path d="M6.799 17.262h.09v.117a.29.29 0 01.433-.083.235.235 0 01.103.124.283.283 0 01.276-.172.29.29 0 01.207.083c.061.07.091.162.082.255v.62h-.117v-.634a.276.276 0 00-.055-.193.172.172 0 00-.138-.048c-.248 0-.248.248-.248.303v.565h-.11v-.6c0-.062 0-.261-.207-.261-.206 0-.24.137-.24.323v.538h-.07l-.006-.937zM9.644 16.931a.317.317 0 00-.297-.186.269.269 0 00-.282.255c0 .165.11.22.262.296.106.044.207.096.303.159a.324.324 0 01.158.296.448.448 0 01-.461.44.441.441 0 01-.352-.158.496.496 0 01-.096-.165l.062-.007a.393.393 0 00.372.276.351.351 0 00.365-.338.269.269 0 00-.145-.24l-.261-.132a.572.572 0 01-.269-.206.317.317 0 01-.041-.173.358.358 0 01.358-.379.4.4 0 01.372.214l-.048.048zM10.429 18.212l-.448-.95h.097l.392.833.338-.833h.11l-.613 1.46h-.11l.234-.51zM11.152 17.262h.09v.145a.317.317 0 01.282-.166.283.283 0 01.262.131.477.477 0 01.048.234v.593h-.09v-.593a.352.352 0 00-.04-.186.18.18 0 00-.18-.09.248.248 0 00-.227.132.449.449 0 00-.048.248v.489h-.09l-.007-.937zM12.964 17.482a.44.44 0 00-.33-.151.4.4 0 00-.38.427.406.406 0 00.38.379.49.49 0 00.33-.172v.124a.524.524 0 01-.345.13.482.482 0 01-.482-.489.49.49 0 01.806-.372l.021.124zM13.26 16.532h.09v.875a.324.324 0 01.29-.166.29.29 0 01.26.131.468.468 0 01.042.234v.593h-.09v-.593a.345.345 0 00-.034-.186.2.2 0 00-.186-.09.227.227 0 00-.227.132.522.522 0 00-.055.248v.489h-.09v-1.667zM14.321 17.262h.09v.124a.22.22 0 01.206-.145.159.159 0 01.097 0l-.048.076h-.062c-.193 0-.193.248-.193.365v.503h-.09v-.923z" fill="#3B3C43"/><path fill-rule="evenodd" clip-rule="evenodd" d="M14.9 17.73a.49.49 0 10.978 0 .49.49 0 00-.978 0zm.49-.392c.216 0 .392.176.392.392a.393.393 0 01-.386.386.4.4 0 01-.4-.386c0-.216.176-.392.393-.392z" fill="#3B3C43"/><path d="M16.188 17.262h.09v.145a.317.317 0 01.282-.166.283.283 0 01.262.131.475.475 0 01.048.234v.593h-.096v-.593a.344.344 0 00-.035-.186.2.2 0 00-.186-.09.227.227 0 00-.227.132.448.448 0 00-.048.248v.489h-.097l.007-.937zM17.545 18.212l-.448-.95h.11l.393.833.338-.833h.103l-.613 1.46h-.103l.22-.51z" fill="#3B3C43"/></svg>