<svg xmlns="http://www.w3.org/2000/svg" width="38" height="24" aria-labelledby="pi-satispay" role="img" version="1.1" viewBox="0 0 38 24">
  <title>Satispay</title>
  <path fill="#f94c43" d="M35 0H3a2.946 2.946 0 0 0-3 3v18a3.01 3.01 0 0 0 3 3h32a2.946 2.946 0 0 0 3-3V3a3.01 3.01 0 0 0-3-3" style="fill:#ff3d00;fill-opacity:1"/>
  <path d="M673.066 283.461h640.814l1012.66 924.379c50.64 46.22 79.68 112.06 79.68 180.62 0 68.57-29.04 134.4-79.68 180.63l-1012.66 924.37H673.066c-24.632 0-39.66-16.09-45.492-31.15-5.847-15.06-5.605-37.06 12.582-53.68L1724.9 1418.47a40.72 40.72 0 0 0 13.24-30.01c0-11.39-4.83-22.32-13.24-30L640.156 368.289c-18.187-16.609-18.429-38.617-12.582-53.668 5.832-15.062 20.86-31.16 45.492-31.16" style="fill:#fffcf0;fill-opacity:1;fill-rule:nonzero;stroke:none" transform="matrix(.00891 0 0 -.00891 7.016 24.373)"/>
  <path d="m868.125 2030.03-504.973-460.94c-50.636-46.23-79.683-112.06-79.683-180.63 0-68.56 29.047-134.4 79.683-180.62l504.973-460.949L1251.45 1096.8l-286.657 261.66a40.7 40.7 0 0 0-13.242 30 40.7 40.7 0 0 0 13.242 30.01l286.657 261.66zm1148.515 463.43h-515.95l320.89-292.91 227.95 208.08c18.19 16.62 18.44 38.62 12.6 53.68-5.85 15.06-20.86 31.15-45.49 31.15M1821.58 576.379l-320.89-292.918h515.95c24.63 0 39.64 16.098 45.49 31.16 5.84 15.051 5.59 37.059-12.6 53.668z" style="fill:#fffcf0;fill-opacity:1;fill-rule:nonzero;stroke:none" transform="matrix(.00891 0 0 -.00891 7.016 24.373)"/>
</svg>
