<svg xmlns="http://www.w3.org/2000/svg" width="38" height="24" fill="none" aria-labelledby="pi-sbpl" role="img" viewBox="0 0 38 24"><title id="pi-sbpl">ShopBack</title><path fill="#000" d="M0 0h38v24H0z"/><path fill="#fff" d="M8.62 10.04c0 1.1-.97 1.77-2.12 1.77-.52 0-.98-.12-1.4-.37a1.86 1.86 0 0 1-.88-1.26l1.4-.36a.95.95 0 0 0 .9.6c.35 0 .52-.1.52-.32 0-.2-.2-.3-.64-.41l-.58-.17C5 9.3 4.55 8.77 4.55 7.97c-.03-.98.94-1.62 1.97-1.6.39 0 .75.09 1.1.27.23.13.42.3.55.5.1.15.2.38.25.59l-1.28.33a.59.59 0 0 0-.59-.39c-.23 0-.42.08-.42.26s.2.27.58.38l.56.15c.9.26 1.35.78 1.35 1.57Zm5.82-.95a2.68 2.68 0 0 0 2.79 2.72c1.6.03 2.8-1.22 2.78-2.72a2.68 2.68 0 0 0-2.78-2.73 2.68 2.68 0 0 0-2.79 2.73m3.99 0c0 .69-.44 1.26-1.2 1.26-.77 0-1.2-.57-1.2-1.26 0-.7.43-1.26 1.2-1.26.76 0 1.2.57 1.2 1.26m2.2-2.6v5.19h1.56v-1.46h1.04c1.1 0 1.84-.79 1.84-1.87 0-1.1-.73-1.85-1.84-1.85h-2.6Zm2.85 1.86c0 .27-.16.46-.53.46h-.76v-.9h.76c.37 0 .53.18.53.44M12.29 6.5v1.98l-1.63.42V6.5H9.1v5.19h1.56v-1.42l1.63-.42v1.84h1.56V6.5zM4.61 18.35h2.66c1.06 0 1.73-.63 1.73-1.5 0-.73-.42-1.16-.89-1.34.3-.24.44-.57.44-1 0-.78-.66-1.35-1.68-1.35H4.61zm1.56-3.21v-.71h.48c.27 0 .4.15.4.35s-.13.36-.4.36zm0 1.93v-.73h.8c.3 0 .47.15.47.36 0 .25-.15.37-.47.37zm8.29-1.32a2.68 2.68 0 0 0 2.78 2.73c1.12 0 2-.53 2.47-1.4l-1.42-.69a1.1 1.1 0 0 1-1.05.62c-.75 0-1.2-.59-1.2-1.26 0-.66.45-1.26 1.2-1.26.48 0 .84.21 1.06.63l1.4-.68a2.67 2.67 0 0 0-2.46-1.41 2.68 2.68 0 0 0-2.78 2.72m5.75 2.6h1.55V16.2h.5l1.13 2.15h1.82l-1.55-2.8 1.41-2.39h-1.73l-1.58 2.72v-2.72h-1.55v5.18Zm-5.57 0H13l-.3-.83-1.88.49-.12.34H9.06l2.15-5.19h1.28zm-2.4-2.08-.39-1-.47 1.23z"/><path fill="#FF3407" d="M32.83 12.78h-.28l.5-.4c.34-.29.49-.75.35-1.17a1.04 1.04 0 0 0-1-.72h-4.37a.1.1 0 0 1-.07-.16l2.9-2.85c.04-.03.1 0 .08.05l-1 2.36h1.29l2.42-5.67h-1.16l-5.75 5.66a1.05 1.05 0 0 0 .76 1.8h4.26c.09 0 .13.1.06.16l-1 .82q-.21.18-.33.45l-.36.86h2.09c.09 0 .12.1.06.16L28 17.65c-.04.03-.1-.01-.08-.06l1.55-3.62.14-.31.59-1.39h-1.3l-3.2 7.5h1.58l6.24-5.13a1.04 1.04 0 0 0-.09-1.68 1.1 1.1 0 0 0-.6-.18h-.01Z"/></svg>