<svg xmlns="http://www.w3.org/2000/svg" width="38" height="24" fill="none" aria-labelledby="pi-screamtruck" role="img" viewBox="0 0 38 24"><title id="pi-screamtruck">Scream Truck</title><path fill="#fff" d="M0 0h38v24H0z"/><path fill="#FF249C" fill-rule="evenodd" d="M6.18 6.52a.9.9 0 0 0-.4-.28 1.3 1.3 0 0 0-.76-.06c-.1.02-.2.05-.28.1a.6.6 0 0 0-.2.17.45.45 0 0 0-.08.27c0 .17.06.3.19.4.13.08.28.16.48.22l.62.2c.22.06.42.15.62.26a1.42 1.42 0 0 1 .67 1.26c0 .31-.06.58-.18.82-.1.22-.27.42-.47.58-.2.15-.44.27-.69.34a3 3 0 0 1-1.83-.06A2.5 2.5 0 0 1 3 10.2l.88-.97a1.35 1.35 0 0 0 1.37.5 1 1 0 0 0 .28-.1.6.6 0 0 0 .2-.19.46.46 0 0 0 .07-.26.48.48 0 0 0-.2-.4c-.14-.11-.3-.2-.48-.25-.2-.08-.42-.15-.63-.21a2.8 2.8 0 0 1-.63-.28 1.32 1.32 0 0 1-.68-1.21 1.71 1.71 0 0 1 .65-1.37c.2-.15.43-.27.69-.34a3.1 3.1 0 0 1 1.71.02c.3.09.56.24.8.45zm5.35.08a1.2 1.2 0 0 0-.45-.34 1.5 1.5 0 0 0-.61-.12 1.53 1.53 0 0 0-1.16.52c-.15.16-.26.36-.34.57a2.24 2.24 0 0 0 0 1.45c.08.22.2.41.34.57a1.52 1.52 0 0 0 1.12.52 1.32 1.32 0 0 0 1.15-.6l1.03.76c-.24.34-.54.58-.9.74-.35.16-.74.24-1.12.24-.44 0-.84-.07-1.21-.2A2.68 2.68 0 0 1 7.8 9.17a3.2 3.2 0 0 1-.23-1.22c0-.45.08-.86.23-1.23A2.7 2.7 0 0 1 9.38 5.2a3.4 3.4 0 0 1 1.7-.17 2.6 2.6 0 0 1 .98.4c.16.1.3.23.41.39l-.94.77Zm2.43.87h.72l.36-.01c.12-.01.23-.03.33-.07s.19-.1.25-.19c.07-.1.1-.23.1-.36a.6.6 0 0 0-.09-.34.6.6 0 0 0-.22-.2 1 1 0 0 0-.3-.08 2.5 2.5 0 0 0-.35-.03h-.8zm-1.23-2.33h2.16q.42 0 .81.09a2 2 0 0 1 .67.27c.2.13.34.3.46.53.11.22.17.5.17.82 0 .4-.1.74-.31 1.01-.2.28-.5.46-.9.53l1.42 2.38h-1.48l-1.16-2.25h-.61v2.25h-1.23zm5.08 0h3.8V6.3h-2.57v1.05h2.43v1.14h-2.43v1.14h2.71v1.15h-3.94zm7.16 1.64-.68 1.75h1.37zm-.47-1.64h1.02l2.43 5.63h-1.39l-.48-1.2H23.9l-.47 1.2h-1.36l2.42-5.63Zm3.93 0h1.86l1.29 3.67h.02l1.3-3.67h1.85v5.63h-1.23V6.45h-.02l-1.47 4.32h-.94l-1.41-4.32h-.02v4.32h-1.23zm-23.4 7.77H3.06v-1.34h5.41v1.34H6.53v5.54h-1.5V12.9Zm5.53 1.5h.88l.44-.01c.15-.01.28-.04.4-.09a.7.7 0 0 0 .3-.23.7.7 0 0 0 .13-.43c0-.15-.03-.3-.1-.42a.7.7 0 0 0-.28-.24 1.2 1.2 0 0 0-.37-.11 3 3 0 0 0-.42-.03h-.98zm-1.51-2.84h2.65c.34 0 .67.03.99.1.3.07.58.18.82.34.23.16.42.37.56.64s.2.6.2 1c0 .5-.12.9-.37 1.25a1.7 1.7 0 0 1-1.1.64l1.73 2.9h-1.8L11.3 15.7h-.74v2.75H9.05zm11.83 4.22c0 .41-.06.79-.18 1.13a2.48 2.48 0 0 1-1.45 1.49c-.4.15-.82.22-1.25.21a3.4 3.4 0 0 1-1.25-.21 2.48 2.48 0 0 1-1.45-1.49 3.3 3.3 0 0 1-.18-1.13v-4.22h1.5v4.17a1.5 1.5 0 0 0 .39 1.06 1.3 1.3 0 0 0 1 .42 1.3 1.3 0 0 0 .98-.42c.12-.14.22-.3.28-.47.07-.18.1-.38.1-.6v-4.16h1.51zm5.67-2.43a1.5 1.5 0 0 0-.55-.42 1.8 1.8 0 0 0-.75-.15 1.88 1.88 0 0 0-1.41.63 2.25 2.25 0 0 0-.57 1.59 2.3 2.3 0 0 0 .56 1.59 1.86 1.86 0 0 0 1.38.62 1.63 1.63 0 0 0 1.41-.74l1.25.95c-.29.4-.66.7-1.1.9-.43.2-.9.29-1.37.29-.5 0-1-.08-1.48-.25a3.28 3.28 0 0 1-1.94-1.87 3.9 3.9 0 0 1-.27-1.5c0-.54.1-1.04.27-1.49a3.3 3.3 0 0 1 1.94-1.86 4.2 4.2 0 0 1 2.08-.2 3.3 3.3 0 0 1 1.2.48c.2.13.36.29.5.47zm2-1.8h1.51v2.86l2.66-2.85h1.97l-3.04 3.2 3.3 3.68h-2.1l-2.79-3.27v3.27h-1.5v-6.88Z" clip-rule="evenodd"/></svg>