<svg width="38" height="24" viewBox="0 0 38 24" fill="none" xmlns="http://www.w3.org/2000/svg" aria-labelledby="pi-seabankph"><title id="pi-seabankph">SeaBank</title><g clip-path="url(#pi-clip0_97_2531)"><path d="M38-7H0v38h38V-7z" fill="#fff"/><g clip-path="url(#pi-clip1_97_2531)"><path fill-rule="evenodd" clip-rule="evenodd" d="M10.472 16.338a2.761 2.761 0 01-.783.15c-1.068.044-1.832-.278-2.57-.594-.657-.278-1.273-.542-2.026-.5a2.44 2.44 0 00-1.237.473.346.346 0 00.182.602.345.345 0 00.25-.066c.251-.18.546-.292.854-.322.578-.028 1.104.191 1.71.45.688.292 1.457.619 2.48.648a5.8 5.8 0 00.382-.004c.335-.014.666-.076.982-.186a.346.346 0 00.214-.437.342.342 0 00-.437-.214z" fill="#2673DD"/><path fill-rule="evenodd" clip-rule="evenodd" d="M11.566 14.8c-.325.226-.983.607-1.735.638-.959.04-1.584-.235-2.247-.522-.7-.304-1.42-.62-2.512-.576-1.01.04-1.865.614-2.284.954a.354.354 0 00.182.637.354.354 0 00.265-.083c.353-.282 1.063-.764 1.865-.793.928-.038 1.545.23 2.197.516.64.28 1.297.565 2.243.585.106.003.215 0 .322-.007.928-.035 1.72-.493 2.11-.762a.353.353 0 00.09-.495.355.355 0 00-.495-.09V14.8z" fill="#2673DD"/><path fill-rule="evenodd" clip-rule="evenodd" d="M7.443 6.82a4.77 4.77 0 00-4.255 2.602 4.772 4.772 0 00.387 4.973c.206-.1.42-.183.638-.249a4.108 4.108 0 115.43.917c.105 0 .219 0 .335-.007.373-.02.727-.187 1.023-.325.755-.844 1.217-1.909 1.217-3.135a4.778 4.778 0 00-4.775-4.777z" fill="#EA5F00"/><path fill-rule="evenodd" clip-rule="evenodd" d="M7.711 14.564l.01.004c.414.17.815.333 1.28.42a3.762 3.762 0 10-4.388-.948 3.34 3.34 0 01.353-.042c1.194-.071 2.02.268 2.745.566zm.27-2.534a.893.893 0 00-.237-.164 2.599 2.599 0 00-.31-.121 3.427 3.427 0 01-.315-.12 1.353 1.353 0 01-.555-.387c-.15-.173-.219-.395-.219-.66 0-.16.035-.316.105-.46a.927.927 0 01.272-.325c.116-.087.247-.152.386-.193a1.48 1.48 0 01.45-.062h.008a1.5 1.5 0 01.635.136c.18.087.349.193.507.316l-.377.532a1.855 1.855 0 00-.337-.195 1.256 1.256 0 00-.438-.094.616.616 0 00-.354.077.288.288 0 00-.159.262.31.31 0 00.053.184c.04.057.092.104.153.137.064.038.131.072.201.098.07.029.142.053.206.077.14.05.277.108.408.175.133.067.256.15.366.25a1.1 1.1 0 01.263.342c.068.145.1.305.09.465a1.004 1.004 0 01-.389.808 1.2 1.2 0 01-.416.21 1.794 1.794 0 01-1.374-.172c-.103-.055-.2-.12-.291-.193a1.166 1.166 0 01-.179-.15l.386-.54c.131.122.283.223.447.296.167.082.35.125.536.128a.715.715 0 00.401-.102.348.348 0 00.174-.307.312.312 0 00-.097-.245v-.003zM15.935 10.155a1.735 1.735 0 00-.368-.25 3.665 3.665 0 00-.413-.176l-.21-.079a.975.975 0 01-.206-.099.548.548 0 01-.152-.137.304.304 0 01-.056-.185.295.295 0 01.16-.263.625.625 0 01.357-.076c.153.005.303.037.445.096.12.054.234.12.34.199l.38-.534a2.662 2.662 0 00-.51-.32 1.535 1.535 0 00-.637-.139h-.009a1.468 1.468 0 00-.455.062c-.14.042-.271.108-.389.195a.947.947 0 00-.275.326c-.072.142-.11.3-.11.46a.946.946 0 00.222.665c.15.175.343.31.56.39.104.046.211.085.32.119.106.035.21.076.312.124.088.041.169.097.24.165a.333.333 0 01.094.248.357.357 0 01-.175.306.72.72 0 01-.405.101 1.305 1.305 0 01-.54-.126 1.726 1.726 0 01-.452-.301l-.388.543c.04.039.098.092.18.163a2.024 2.024 0 00.686.357c.325.095.669.097.995.008.152-.043.295-.114.42-.21a1.02 1.02 0 00.395-.813 1.02 1.02 0 00-.356-.818v-.001zM25.463 10.014c.036-.036.069-.073.1-.113a.7.7 0 00.095-.153.976.976 0 00.072-.216c.02-.1.03-.202.029-.304a1.007 1.007 0 00-.24-.64 1.104 1.104 0 00-.28-.232.913.913 0 00-.368-.12 2.645 2.645 0 00-.295-.024c-.11-.003-.223-.004-.347-.004h-1.017v3.849h1.407c.129 0 .233 0 .315-.008a1.38 1.38 0 00.398-.099 1.007 1.007 0 00.552-.556c.055-.14.081-.291.078-.442 0-.257-.053-.46-.152-.613a.903.903 0 00-.347-.326zm-1.62-1.139h.625c.085 0 .16.009.222.016a.638.638 0 01.315.126.328.328 0 01.123.271c.003.15-.04.258-.12.321a.665.665 0 01-.318.12c-.074.01-.148.015-.222.013h-.625v-.867zm1.328 2.344c-.096.088-.247.14-.455.153a3.029 3.029 0 01-.244.008h-.629v-.996h.32c.102 0 .195 0 .285-.003.077-.004.155-.004.233 0 .203.01.358.057.47.14a.41.41 0 01.127.158.41.41 0 01.039.197.442.442 0 01-.146.346v-.003zM19.431 9.996a1.485 1.485 0 00-.315-.512 1.357 1.357 0 00-.465-.32 1.642 1.642 0 00-1.201.007 1.348 1.348 0 00-.76.8 1.756 1.756 0 00-.093.579 1.502 1.502 0 00.447 1.097 1.464 1.464 0 001.04.415 2.24 2.24 0 00.482-.044c.126-.022.25-.057.368-.105.101-.045.198-.1.288-.164.084-.058.165-.116.24-.175l-.34-.478a2.485 2.485 0 01-.154.113 1.433 1.433 0 01-.514.196 1.796 1.796 0 01-.356.02 1.336 1.336 0 01-.219-.034.94.94 0 01-.221-.095.823.823 0 01-.188-.17.684.684 0 01-.125-.254l-.008-.026h2.193l.005-.166c.013-.23-.02-.461-.1-.678l-.004-.006zm-2.122.272l.004-.023a.437.437 0 01.065-.182l.018-.032a.63.63 0 01.175-.193.902.902 0 01.5-.15c.21.004.38.063.507.178.058.047.11.101.153.162.043.066.07.14.08.219l.004.023-1.506-.002zM22.019 9.346l-.044-.037a.999.999 0 00-.337-.185 1.267 1.267 0 00-.45-.073 1.308 1.308 0 00-.545.113c-.166.07-.315.174-.438.306-.129.14-.228.306-.292.485-.073.201-.109.413-.105.627a1.482 1.482 0 00.398 1.043c.124.134.273.242.438.32.17.075.356.113.543.112.153.003.306-.02.451-.066a1.01 1.01 0 00.337-.198l.043-.04v.304h.679V9.138h-.678v.208zm-.063 1.578a.706.706 0 01-.407.414.798.798 0 01-.572 0 .74.74 0 01-.247-.166c-.145-.15-.219-.35-.219-.6a.859.859 0 01.22-.6.7.7 0 01.54-.239.723.723 0 01.52.218c.074.076.13.167.167.266.085.23.085.481 0 .71l-.002-.003zM28.375 9.346l-.044-.037a.99.99 0 00-.336-.185 1.267 1.267 0 00-.45-.073 1.308 1.308 0 00-.545.113c-.166.07-.315.174-.438.306a1.454 1.454 0 00-.292.485c-.073.2-.11.413-.105.627-.002.197.034.394.105.578a1.441 1.441 0 00.73.784c.172.076.357.114.544.113.153.003.306-.02.452-.066.124-.044.238-.111.336-.198l.044-.04v.304h.679V9.15h-.68v.196zm-.062 1.578a.714.714 0 01-.687.463.737.737 0 01-.54-.218c-.145-.15-.219-.35-.219-.6a.857.857 0 01.22-.6.7.7 0 01.54-.239c.096 0 .192.019.28.057.091.035.173.09.24.161a.76.76 0 01.168.263c.083.23.083.481 0 .71l-.002.003zM34.004 10.41l1.23-1.351h-.894l-1.019 1.108V8.168h-.678v3.889h.68v-.883l.225-.252.887 1.135h.841l-1.273-1.648zM32.03 9.732a1.005 1.005 0 00-.356-.463 1.06 1.06 0 00-.657-.197c-.143 0-.284.023-.42.066a.946.946 0 00-.341.179v-.163h-.69v2.903h.688v-1.555c.004-.1.013-.2.028-.299a.79.79 0 01.085-.26.492.492 0 01.183-.174.602.602 0 01.302-.078c.134-.011.266.03.369.116a.574.574 0 01.19.323c.017.084.029.168.034.253.007.1.011.247.011.44v1.235h.674v-1.402a5.9 5.9 0 00-.018-.496 1.551 1.551 0 00-.082-.428z" fill="#EA5F00"/><path d="M15.325 15.394h-.951l-.181.498h-.579l.98-2.42h.504l.986 2.42h-.579l-.18-.498zm-.805-.404h.659l-.332-.905-.327.905zM18.168 15.007h-.432v.885h-.517v-2.42h.951c.311 0 .551.064.72.192a.637.637 0 01.254.54.693.693 0 01-.117.412.78.78 0 01-.355.263l.57.988v.023h-.58l-.494-.883zm-.432-.426h.438c.136 0 .242-.01.316-.073a.324.324 0 00.112-.262.331.331 0 00-.023-.146.36.36 0 00-.083-.124c-.07-.065-.179-.087-.324-.087h-.436v.692z" fill="#7A7A7A"/><path fill-rule="evenodd" clip-rule="evenodd" d="M29.303 14.594a1.103 1.103 0 00-.062.382c-.001.129.02.257.062.379a.919.919 0 00.168.293.752.752 0 00.57.258c.091.004.182-.014.264-.052a.632.632 0 00.22-.167v.202h.468v-1.793h-.468v.17a.63.63 0 00-.22-.168.576.576 0 00-.263-.052.753.753 0 00-.57.254.918.918 0 00-.17.294zm.805.876c.237 0 .43-.22.43-.49 0-.271-.193-.49-.43-.49-.236 0-.429.219-.429.49 0 .27.192.49.43.49zM19.582 15.533a.61.61 0 00.214.285c.105.08.315.12.473.12.085 0 .17-.013.25-.04a.565.565 0 00.205-.11v.1h.492v-1.78h-.492v.934a1.517 1.517 0 01-.018.184.479.479 0 01-.052.157.293.293 0 01-.11.106.352.352 0 01-.18.048.303.303 0 01-.22-.072.352.352 0 01-.113-.198 1.084 1.084 0 01-.02-.154 3.299 3.299 0 01-.007-.253v-.752h-.48v.858c0 .117.004.218.01.304a.97.97 0 00.048.263z" fill="#7A7A7A"/><path d="M22.747 14.545a1.492 1.492 0 00-.188-.013c-.198 0-.327.061-.389.184v1.176h-.523v-1.797h.494l.015.214a.494.494 0 01.436-.247c.055 0 .11.007.163.022l-.008.461zM25.586 15.887h-.516v-2.42h.516v2.42z" fill="#7A7A7A"/><path fill-rule="evenodd" clip-rule="evenodd" d="M28.61 14.586a.951.951 0 00.071-.071.58.58 0 00.12-.232.801.801 0 00.02-.19.569.569 0 00-.17-.403.768.768 0 00-.462-.221 2.348 2.348 0 00-.21-.015c-.071-.002-.158-.003-.247-.003h-.683v2.42h.958c.092 0 .166 0 .224-.005.097-.008.192-.029.283-.062a.723.723 0 00.233-.137.644.644 0 00.216-.488.624.624 0 00-.353-.593zm-1.112-.715h.404c.06 0 .114.005.158.01.08.007.158.034.226.079a.21.21 0 01.067.075.19.19 0 01.02.095.225.225 0 01-.085.201.508.508 0 01-.227.076 1.04 1.04 0 01-.158.008h-.405v-.544zm.904 1.472a.583.583 0 01-.324.096 2.444 2.444 0 01-.173.005h-.407v-.625h.39c.055-.003.11-.003.166 0 .117 0 .232.03.334.088.038.024.069.058.09.098.02.038.03.08.028.124a.245.245 0 01-.025.118.288.288 0 01-.079.098v-.002zM33.063 14.467a.612.612 0 00-.214-.286c-.105-.08-.315-.12-.473-.12a.819.819 0 00-.251.04.55.55 0 00-.204.11v-.1h-.492v1.78h.492v-.935c.002-.061.007-.122.017-.183a.495.495 0 01.052-.158.302.302 0 01.11-.105.355.355 0 01.18-.048.3.3 0 01.22.067.354.354 0 01.113.198c.01.05.017.103.02.155.005.06.008.133.008.252v.755h.482v-.855c0-.117-.004-.218-.01-.304a.974.974 0 00-.05-.263zM34.441 14.813l.81-.886h-.587l-.669.727v-1.185h-.48v2.427h.48v-.578l.148-.166.581.744h.554l-.837-1.083zM22.975 14.594a1.104 1.104 0 00-.062.382c-.001.13.02.257.062.379a.922.922 0 00.168.293.752.752 0 00.57.258c.092.003.182-.015.264-.052a.635.635 0 00.22-.167v.202h.468v-1.793h-.468v.17a.638.638 0 00-.22-.168.579.579 0 00-.263-.052.75.75 0 00-.57.254.918.918 0 00-.169.294zm.805.876c.237 0 .43-.22.43-.49 0-.272-.193-.49-.43-.49s-.429.219-.429.49c0 .27.192.49.43.49z" fill="#7A7A7A"/></g></g><rect x=".5" y=".5" width="37" height="23" rx="1.5" stroke="#000" stroke-opacity=".07"/><defs><clipPath id="pi-clip0_97_2531"><rect width="38" height="24" rx="2" fill="#fff"/></clipPath><clipPath id="pi-clip1_97_2531"><path fill="#fff" transform="translate(2 6.171)" d="M0 0h34v11.657H0z"/></clipPath></defs></svg>