<svg width="38" height="24" viewBox="0 0 38 24" version="1.1" xmlns="http://www.w3.org/2000/svg" role="img" aria-labelledby="pi-seb"><title id="pi-seb">Seb</title><path d="M35,0L3,0C1.3,0 0,1.3 0,3L0,21C0,22.7 1.4,24 3,24L35,24C36.7,24 38,22.7 38,21L38,3C38,1.3 36.6,0 35,0Z" fill-opacity="0.07" fill-rule="nonzero"/><path d="M35,1C36.1,1 37,1.9 37,3L37,21C37,22.1 36.1,23 35,23L3,23C1.9,23 1,22.1 1,21L1,3C1,1.9 1.9,1 3,1L35,1" fill="white" fill-rule="nonzero"/><g transform="matrix(1.15087,0,0,1.15087,-1.47612,-2.31702)"><path d="M26.556,14.358L24.717,14.358L24.717,13.098L26.608,13.098C26.957,13.098 27.235,13.389 27.225,13.731C27.241,14.102 26.921,14.398 26.556,14.358ZM24.659,10.425L26.208,10.425C26.55,10.419 26.841,10.684 26.858,11.028C26.847,11.369 26.556,11.643 26.208,11.637L24.717,11.637L24.717,10.425L24.659,10.425ZM22.709,15.895L27.165,15.895C28.285,16.011 29.272,15.159 29.319,14.033C29.307,13.198 28.732,12.471 27.914,12.286C28.529,12.032 28.924,11.421 28.894,10.76C28.826,9.676 27.868,8.875 26.789,8.997L22.709,8.997L22.709,15.919L22.709,15.895ZM21.277,17.497L21.712,17.497L21.712,7.384L21.277,7.384L21.277,17.497ZM13.478,17.497L13.902,17.497L13.902,7.384L13.478,7.384L13.478,17.497ZM20.44,8.979L14.87,8.979L14.87,15.895L20.504,15.895L20.504,14.3L16.918,14.3L16.918,13.186L19.46,13.186L19.46,11.695L16.918,11.695L16.918,10.58L20.504,10.58L20.504,8.997L20.44,8.979ZM12.532,9.954L11.278,10.894C10.791,10.488 10.17,10.273 9.531,10.279C9.108,10.279 8.661,10.401 8.597,10.702C8.529,11.004 8.806,11.225 9.276,11.357L11.047,11.84C12.161,12.164 12.921,12.641 12.921,13.767C12.921,15.304 11.552,16.105 9.723,16.105C8.429,16.133 7.175,15.624 6.265,14.7L7.571,13.719C8.122,14.294 8.882,14.625 9.677,14.636C10.292,14.636 10.861,14.504 10.937,14.154C11.011,13.813 10.767,13.655 10.246,13.534C9.723,13.412 9.132,13.29 8.597,13.146C7.083,12.739 6.66,11.862 6.66,11.08C6.66,9.966 7.658,8.851 9.521,8.851C10.623,8.845 11.696,9.247 12.532,9.966L12.532,9.954Z" fill="rgb(35,30,29)" fill-rule="nonzero"/></g></svg>
