<svg xmlns="http://www.w3.org/2000/svg" xmlns:xlink="http://www.w3.org/1999/xlink" width="38" height="24" fill="none" aria-labelledby="pi-seb" role="img" viewBox="0 0 38 24"><title id="pi-seb">SEB</title><defs><path id="pi-seb-b" fill="#fff" d="M0 0h38v24H0z"/></defs><g clip-path="url(#pi-seb-a)"><use xlink:href="#pi-seb-b"/><path fill="#fff" d="M0 0h38v24H0z"/><path fill="#000" d="m0 16.24 2.17-1.62c1.51 1.32 2.58 1.51 3.46 1.51 1.01 0 1.96-.21 2.08-.79.1-.45-.28-.82-1.14-1.02a79 79 0 0 1-2.73-.65c-2.5-.66-3.2-2.1-3.2-3.4 0-1.8 1.67-3.65 4.72-3.65 3.14 0 4.97 1.8 4.97 1.8L8.28 9.95c-.96-.84-2.2-1-2.9-1s-1.42.2-1.53.7c-.1.49.34.86 1.12 1.07l2.92.8c1.83.53 3.1 1.32 3.1 3.17 0 2.54-2.26 3.86-5.3 3.86A7.84 7.84 0 0 1 0 16.25M11.9 4.17h.7v16.68h-.7zm12.86 0h.7v16.68h-.7zm-10.5 14.04V6.81h9.13v2.6h-5.93v1.82h4.2v2.51h-4.2v1.84h6.1v2.63zm12.86 0V6.81h6.7c1.93 0 3.5 1.12 3.5 2.89 0 1.4-.87 2.2-1.65 2.52l-.13.01.13.02c1.36.43 2.33 1.41 2.33 2.9 0 1.88-1.6 3.06-3.55 3.06zm3.22-2.53h3.13a1 1 0 0 0 1-1.04 1 1 0 0 0-1-1.04h-3.13zm0-4.5h2.56c.59 0 1.06-.47 1.06-1 0-.54-.47-1-1.06-1h-2.56z"/></g><defs><clipPath id="pi-seb-a"><use xlink:href="#pi-seb-b"/></clipPath></defs></svg>