<?xml version='1.0' encoding='UTF-8'?>
<svg xmlns="http://www.w3.org/2000/svg" viewBox="0 0 38 24" width="38" height="24" role="img" aria-labelledby="pi-secure-bank-transfer">
  <title id="pi-secure-bank-transfer">Secure Bank Transfer</title>
  <g transform="scale(0.0280046674)">
    <g fill-rule="nonzero" fill="none">
      <path d="M615.7 763.3H16.4C7.4 763.3 0 756 0 747v-64c0-9 7.4-16.4 16.4-16.4h31.2v-57c0-9 7.5-16.4 16.4-16.4h33.2V245.6H27.7A17 17 0 0111 228.8V180c0-6.6 4-12.5 10.2-15.2L405.3 0 789 164.8a17.2 17.2 0 0110.1 15.2v49.2c0 9-7.4 16.4-16.7 16.4h-67.6v216.7c-6.6 4.3-14 9.4-21.9 14.4V245.6h-47.6v259.6c-7 4-14.4 7.8-21.9 11.8V245.6h-84.3V593H572V615H69.5V666h503.3c.8 5.5 2 13.3 4.3 21.9H21.9v53h577.8c4.7 7.5 10.2 15 16 22.3zM517 593.1V245.6h-47.7V593H517zm-69.5 0V245.6H365V593h82.4zm-104.7 0V245.6h-47.6V593h47.6zm-69.5 0V245.6H189V593h84.3zm-106.6 0V245.6h-47.6V593h47.6zM33.2 223.7h744.2v-40.2L405.3 23.8 33.2 183.5v40.2zm372-36.7c-32 0-57.7-25.7-57.7-57.8 0-32 25.8-57.7 57.8-57.7 32 0 57.8 25.7 57.8 57.7a58 58 0 01-57.8 57.8zm0-92.9c-19.8 0-35.8 16-35.8 35.5 0 19.6 16 35.6 35.9 35.6s36-16 36-35.6a36 36 0 00-36-35.5z" fill="#081F2C"/>
      <g fill="#40C1AC">
        <path d="M750 857l-3.1-.8c-95.7-27.3-141-80.4-162.4-119.5-23.5-43-23.5-79.6-23.5-80.8V544.6c0-7 4.3-13.6 11-16.4 76.9-30.4 153-85.9 167-96.4a17.6 17.6 0 0121.2 0c14.4 11 90.1 66 167 96.4 6.7 2.8 11 9 11 16.4v110.5c0 1.6 0 38-23.4 80.9-21.1 39.4-66.8 92.1-162.5 119.4L750 857zM582.9 547.8V655c0 .4.4 33.2 21.5 71.9 27.7 50.7 76.5 86.7 145.2 107 68.7-20.3 117.5-56.7 145.3-107a167 167 0 0021.4-71.9V547.8c-73.4-29.7-143.3-79-166.7-96-23.4 17-93.3 65.9-166.7 96z"/>
        <path d="M733.2 692c-2.8 0-5.9-1.1-7.8-3l-40.2-40.3a11 11 0 010-15.6 11 11 0 0115.6 0l32.8 32.4 65.6-64a11 11 0 0115.6 0 11 11 0 010 15.6l-73.4 71.4c-2.4 2.4-5.1 3.6-8.2 3.6z"/>
      </g>
    </g>
  </g>
</svg>
