<svg xmlns="http://www.w3.org/2000/svg" width="38" height="24" fill="none" aria-labelledby="pi-seicomart" role="img" viewBox="0 0 38 24"><title id="pi-seicomart">Seicomart</title><path fill="#fff" d="M0 0h38v24H0z"/><path fill="#F08500" d="M0 7.2h38v9.6H0z"/><path fill="#fff" d="M5.53 12.46c.05.42.38.58.89.58.28 0 .54-.07.88-.22l.14.7c-.37.15-.82.21-1.21.21-1 0-1.76-.59-1.76-1.58 0-1 .67-1.58 1.61-1.58 1.12 0 1.53.79 1.53 1.69v.19H5.52h.01Zm1.15-.6c0-.34-.16-.63-.58-.63-.38 0-.56.29-.58.64h1.16Zm4.4 1.11a.77.77 0 0 1-.8-.8c0-.52.35-.82.8-.82a.9.9 0 0 1 .57.17l.14-.77a1.9 1.9 0 0 0-.83-.17c-1 0-1.76.58-1.77 1.58 0 1 .76 1.58 1.77 1.58.31 0 .59-.05.83-.16l-.14-.77a.93.93 0 0 1-.57.16m-9.9.6c.38.12.78.17 1.34.17.82 0 1.78-.2 1.78-1.23 0-.86-.69-1.01-1.3-1.15-.4-.1-.76-.18-.76-.5 0-.18.12-.39.74-.39.33 0 .66.09.94.21l.13-.74c-.37-.13-.79-.2-1.3-.2-.8 0-1.6.37-1.6 1.2 0 .79.63.96 1.18 1.1.4.1.78.2.78.55 0 .43-.5.43-.66.43a3.9 3.9 0 0 1-1.13-.2l-.14.77v-.01Zm7.75.1v-3s-1.04-.16-1.04.77v2.23zm3.54-2.3s-.05.02-.05.04.03.04.05.04.04-.02.04-.04-.02-.04-.04-.04m1.58 1.67h.01c.1.02.19.04.27.04a.8.8 0 0 0 .65-.32H15v.01c-.1.25-.28.47-.34.52-.04.03-.11.03-.11.03-.25 0-.4-.1-.52-.23l-.01-.02v-.02c0-.01 0-.02.03-.02Zm.03-.4c.48 0 .56-.28.67-.5 0 0 .12-.26.32-.32a1.6 1.6 0 0 0-.46-.84h-.01s-.1.13-.1.35c0 .17.05.31.05.47 0 .1-.02.2-.07.32a.68.68 0 0 1-.3.35s-.07.04-.23.08c-.02 0-.03.02-.02.04l.02.03h.11z"/><path fill="#fff" d="M12.85 11.36c-.33.39-.16.8.11.9.05.03.34.12.49-.26.08-.2.06-.4.15-.6a.97.97 0 0 1 .73-.63v-.02a1.65 1.65 0 1 0 .06 2.75s-.62.17-1.25-.06c-1.13-.43-.76-1.48-.76-1.8 0-.1-.04-.15-.08-.2-.04-.04-.1-.08-.09-.1 0-.03.12-.03.21-.02.12 0 .18.03.25.04h.17Zm12.19-.15v-.57c-.27 0-.95.03-.95.8v2.22h1.03v-1.27c0-.59.2-1.02.7-1.02h.65v1.25c0 .71.24 1.12 1.16 1.12.27 0 .38-.02.62-.07l-.12-.65s-.1.03-.19.03c-.33 0-.41-.18-.41-.55v-1.13h.73v-.74h-.73v-.88s-1.05-.14-1.05.79v.1h-.5c-.29 0-.78.13-.93.57s-.01 0-.01 0m-8.75-.56c-.27 0-.95.03-.95.8v2.22h1.04V12.4c0-.65.22-.95.6-.95.29 0 .42.26.42.6v1.63h1.04V12.4c0-.65.22-.95.6-.95.29 0 .41.26.41.6v1.63h1.05V11.9c0-.83-.2-1.31-1.07-1.31-.43 0-.83.17-1.07.58-.16-.4-.52-.58-.95-.58-.48 0-.9.19-1.1.62h-.01v-.55h-.01Zm7.51 3.01a4 4 0 0 1-.06-.7v-1.14c0-.91-.67-1.25-1.44-1.25-.44 0-.82.06-1.19.2v.72a2 2 0 0 1 .96-.23c.38 0 .69.11.69.52a3.3 3.3 0 0 0-.49-.04c-.56 0-1.56.1-1.56 1.03 0 .66.54.95 1.13.95.43 0 .72-.17.96-.55.2.59.96.48.98.48zm-1.68-.62c-.24 0-.43-.13-.43-.33 0-.28.28-.4.63-.4.16 0 .31 0 .45.02 0 .36-.25.72-.65.72z"/><path fill="#fff" d="M37.43 11.04c-.17-.03-1.46-.38-2.2 1.36-.32.77-.86 1.32-2.18 1.15-.04 0-.07-.03-.09-.07 0-.05.03-.12.09-.13 0 0 1.09-.14 1.55-1.3.55-1.34-.26-2.04.2-3.16.2-.53.68-.63.68-.63-.05 0 .4-.11-.13-.23-.92-.2-2.66.08-3.39 1.86-.26.66-.2 1.24-.46 1.86-.47 1.14-1.31.85-1.47.8-.82-.35-1.3-1.57-.34-2.74v-.02h-.02c-.1 0-.34.04-.52.02-.19-.03-.39-.1-.72-.14-.29-.03-.6-.02-.64.06-.03.08.15.2.27.33.11.12.24.29.24.6 0 .97-1.1 4.12 2.27 5.4 0 0 2.98 1.21 5.97-.77.25-.17.09-.23-.13-.12 0 0-2.08.8-3.18-.16-.01-.02-.03-.03-.03-.05s-.01-.04 0-.07c0-.03.04-.05.07-.06h.05c1.9.5 2.8-.61 3.1-1.54.32-1-.13-1.6 1-2.07.25-.1.17-.16.01-.18m-8.9-.97a.14.14 0 0 1-.15-.14c0-.07.07-.13.14-.13s.14.06.14.13c0 .08-.07.14-.14.14Z"/></svg>