<svg width="38" height="24" viewBox="0 0 38 24" role="img" version="1.1" xmlns="http://www.w3.org/2000/svg" aria-labelledby="pi-sentoo"><title id="pi-sentoo">Sentoo</title><path opacity=".07" d="M35 0H3C1.3 0 0 1.3 0 3v18c0 1.7 1.4 3 3 3h32c1.7 0 3-1.3 3-3V3c0-1.7-1.4-3-3-3z"/><path fill="#fff" d="M35 1c1.1 0 2 .9 2 2v18c0 1.1-.9 2-2 2H3c-1.1 0-2-.9-2-2V3c0-1.1.9-2 2-2h32"/><g fill="#00698F" fill-rule="nonzero"><path d="M18.617 20.383a2.106 2.106 0 010-2.979l2.787-2.787a2.107 2.107 0 012.98 2.98l-2.788 2.786a2.106 2.106 0 01-2.979 0M15.626 16.383l-.01-.01a2.105 2.105 0 010-2.977l4.78-4.78a2.105 2.105 0 012.978 0l.01.01a2.105 2.105 0 010 2.978l-4.78 4.78a2.105 2.105 0 01-2.978 0M14.6 10.4c-.8-.796-.8-2.098 0-2.895l2.928-2.918a2.003 2.003 0 012.833 0l.036.036c.802.8.816 2.028-.03 2.882L17.505 10.4c-.802.8-2.103.8-2.905 0"/></g></svg>