<svg width="38" height="24" version="1.1" id="pi-sepadirectdebit-Layer_1" role="img" aria-labelledby="pi-sepadirectdebit" xmlns="http://www.w3.org/2000/svg" x="0" y="0" viewBox="0 0 38 24" xml:space="preserve"><title id="pi-sepadirectdebit">SEPA Direct Debit</title><style type="text/css">.st2{fill:#0054a5}</style><path d="M3 1h32c1.1 0 2 .9 2 2v18c0 1.1-.9 2-2 2H3c-1.1 0-2-.9-2-2V3c0-1.1.9-2 2-2z" fill="#fff"/><path d="M3 .5h32c1.4 0 2.5 1.1 2.5 2.5v18c0 1.4-1.1 2.5-2.5 2.5H3C1.6 23.5.5 22.4.5 21V3C.5 1.6 1.6.5 3 .5z" fill="none" stroke="#fff" stroke-opacity=".07"/><g id="pi-sepadirectdebit-rNOiWK.tif"><path class="st2" d="M10.7 10.5h-2c0-.3 0-.6-.1-.7-.1-.2-.5-.3-1-.3s-.9 0-1.1.1-.3.3-.3.6.1.5.2.6.3.1.4.1h.4c.9.1 1.4.1 1.6.1.7.1 1.2.3 1.5.6.2.2.4.5.4.9v.8c0 .7-.1 1.1-.2 1.4-.2.6-.7.9-1.5 1.1-.3.1-.8.1-1.5.1-1.1 0-1.9-.1-2.4-.2-.5-.2-.9-.5-1.1-1-.1-.3-.1-.8-.1-1.4h2v.2c0 .4.1.6.3.7.1.1.3.1.5.1h.7c.4 0 .6 0 .7-.1.2-.1.3-.2.4-.4v-.4c0-.4-.1-.6-.4-.7-.1 0-.6-.1-1.4-.1-.6 0-1.1-.1-1.4-.1-.7-.1-1.1-.4-1.3-.8-.2-.3-.3-.8-.3-1.5 0-.5.1-.9.2-1.2.1-.3.3-.5.5-.7.5-.2.5-.2.7-.2.4-.1.5-.1 1-.1h1.5c.9 0 1.5 0 1.8.1.9.2 1.3.9 1.3 2v.4zM19.7 16.1V7.9H23.8c.6 0 1 0 1.3.1.7.2 1.1.6 1.3 1.3.1.3.2.9.2 1.5 0 .8-.1 1.4-.2 1.8-.3.7-.8 1.1-1.6 1.2H21.9v2.1h-2.2v.2zm2.2-4h1.4c.4 0 .7 0 .8-.1.1-.1.2-.2.3-.4V11c0-.3 0-.6-.1-.8s-.3-.4-.6-.4H21.9v2.3zM31.2 14.7h-2.9l-.4 1.4h-2.3L28 8h3.3l2.5 8.1h-2.2l-.4-1.4zm-.4-1.6l-1-3.5-1 3.5h2z"/><path d="M16.7 9.1c.9 0 1.7.4 2.2 1.1l.5-1c-.8-.8-1.8-1.2-2.9-1.2-1.7 0-3.2 1-3.8 2.5h-.9l-.5 1.2h1.2v.7h-.6l-.5 1.2h1.4c.6 1.4 2.1 2.4 3.8 2.4.9 0 1.6-.3 2.3-.7v-1.4c-.5.6-1.3 1-2.2 1-1 0-1.9-.5-2.4-1.3h3l.5-1.2h-4V12v-.3h4.4l.5-1.2h-4.5c.5-.8 1.4-1.4 2.5-1.4z" fill="#ffc10e"/></g></svg>
