<svg class="icon" width="38" height="24" viewBox="0 0 38 24" version="1.1" xmlns="http://www.w3.org/2000/svg" role="img" aria-labelledby="pi-SEPA"><title id="pi-SEPA">SEPA</title><path d="M29.867 418.133c0-8.533 4.266-12.8 4.266-21.333 8.534-51.2 29.867-72.533 76.8-81.067 59.734-12.8 119.467-12.8 179.2-4.266 59.734 8.533 85.334 42.666 85.334 98.133v25.6h-102.4v-4.267c-4.267-38.4-12.8-42.666-51.2-42.666H179.2c-25.6 4.266-38.4 12.8-38.4 42.666 0 25.6 8.533 38.4 38.4 38.4 25.6 0 51.2 0 76.8 4.267l76.8 12.8c34.133 8.533 51.2 34.133 55.467 68.267 0 29.866 0 64-4.267 93.866-4.267 34.134-25.6 55.467-55.467 64-25.6 8.534-46.933 12.8-72.533 17.067h-76.8c-25.6-4.267-51.2-4.267-76.8-8.533-38.4-8.534-64-34.134-68.267-72.534 0-4.266-4.266-12.8-4.266-17.066v-38.4h102.4c4.266 38.4 12.8 51.2 38.4 51.2h76.8c25.6 0 34.133-17.067 34.133-42.667s-12.8-38.4-34.133-38.4c-38.4-4.267-81.067-8.533-119.467-12.8-55.467-4.267-81.067-29.867-89.6-85.333 0-4.267-4.267-8.534-4.267-12.8-4.266-12.8-4.266-21.334-4.266-34.134zM857.6 729.6V324.267c0-17.067 4.267-21.334 21.333-21.334 72.534 0 145.067 0 217.6 4.267 76.8 4.267 115.2 42.667 119.467 119.467 4.267 34.133 0 68.266-4.267 102.4-8.533 51.2-46.933 85.333-102.4 85.333H964.267v110.933C930.133 729.6 891.733 729.6 857.6 729.6zm106.667-209.067h98.133c25.6 0 34.133-12.8 34.133-38.4v-42.666c0-29.867-12.8-42.667-42.666-46.934h-76.8c-4.267 0-12.8 8.534-12.8 8.534v119.466zm204.8 209.067c25.6-89.6 55.466-183.467 81.066-273.067 17.067-51.2 29.867-102.4 46.934-153.6H1459.2c4.267 0 12.8 8.534 12.8 12.8l115.2 384c4.267 8.534 8.533 21.334 12.8 29.867h-115.2c-8.533-21.333-12.8-42.667-21.333-64-4.267-4.267-8.534-12.8-12.8-12.8h-136.534c-4.266 0-12.8 4.267-12.8 8.533-8.533 21.334-12.8 46.934-17.066 68.267h-115.2zm217.6-337.067h-4.267c-17.067 59.734-34.133 123.734-51.2 183.467h110.933c-17.066-64-38.4-123.733-55.466-183.467z" fill="#10298E"/><path d="M716.8 661.333c-68.267 0-119.467-29.866-140.8-76.8h153.6l17.067-46.933H558.933V503.467l192 8.533 21.334-55.467h-204.8c21.333-59.733 76.8-89.6 149.333-89.6 38.4 0 68.267 8.534 89.6 17.067l17.067-59.733C806.4 315.733 768 307.2 712.533 307.2c-115.2 0-204.8 55.467-234.666 153.6h-51.2l-21.334 46.933h64v38.4h-38.4l-25.6 46.934h72.534C503.467 678.4 584.533 729.6 699.733 729.6c55.467 0 98.134-8.533 115.2-17.067l-12.8-59.733c-17.066 4.267-51.2 8.533-85.333 8.533z" fill="#FFBE00"/></svg>