<?xml version="1.0" standalone="no"?><!DOCTYPE svg PUBLIC "-//W3C//DTD SVG 1.1//EN" "http://www.w3.org/Graphics/SVG/1.1/DTD/svg11.dtd"><svg class="icon" width="32px" height="20.21px" viewBox="0 0 1621 1024" version="1.1" xmlns="http://www.w3.org/2000/svg"><path d="M29.866667 418.133333c0-8.533333 4.266667-12.8 4.266666-21.333333 8.533333-51.2 29.866667-72.533333 76.8-81.066667 59.733333-12.8 119.466667-12.8 179.2-4.266666 59.733333 8.533333 85.333333 42.666667 85.333334 98.133333v25.6H273.066667v-4.266667c-4.266667-38.4-12.8-42.666667-51.2-42.666666h-42.666667c-25.6 4.266667-38.4 12.8-38.4 42.666666 0 25.6 8.533333 38.4 38.4 38.4 25.6 0 51.2 0 76.8 4.266667l76.8 12.8c34.133333 8.533333 51.2 34.133333 55.466667 68.266667 0 29.866667 0 64-4.266667 93.866666-4.266667 34.133333-25.6 55.466667-55.466667 64-25.6 8.533333-46.933333 12.8-72.533333 17.066667H179.2c-25.6-4.266667-51.2-4.266667-76.8-8.533333-38.4-8.533333-64-34.133333-68.266667-72.533334 0-4.266667-4.266667-12.8-4.266666-17.066666v-38.4h102.4c4.266667 38.4 12.8 51.2 38.4 51.2h76.8c25.6 0 34.133333-17.066667 34.133333-42.666667s-12.8-38.4-34.133333-38.4c-38.4-4.266667-81.066667-8.533333-119.466667-12.8-55.466667-4.266667-81.066667-29.866667-89.6-85.333333 0-4.266667-4.266667-8.533333-4.266667-12.8-4.266667-12.8-4.266667-21.333333-4.266666-34.133334zM857.6 729.6v-21.333333-384c0-17.066667 4.266667-21.333333 21.333333-21.333334 72.533333 0 145.066667 0 217.6 4.266667 76.8 4.266667 115.2 42.666667 119.466667 119.466667 4.266667 34.133333 0 68.266667-4.266667 102.4-8.533333 51.2-46.933333 85.333333-102.4 85.333333h-136.533333-8.533333V725.333333c-34.133333 4.266667-72.533333 4.266667-106.666667 4.266667z m106.666667-209.066667h98.133333c25.6 0 34.133333-12.8 34.133333-38.4v-42.666666c0-29.866667-12.8-42.666667-42.666666-46.933334h-76.8c-4.266667 0-12.8 8.533333-12.8 8.533334v119.466666zM1169.066667 729.6c25.6-89.6 55.466667-183.466667 81.066666-273.066667 17.066667-51.2 29.866667-102.4 46.933334-153.6h162.133333c4.266667 0 12.8 8.533333 12.8 12.8l115.2 384c4.266667 8.533333 8.533333 21.333333 12.8 29.866667h-115.2c-8.533333-21.333333-12.8-42.666667-21.333333-64-4.266667-4.266667-8.533333-12.8-12.8-12.8h-136.533334c-4.266667 0-12.8 4.266667-12.8 8.533333-8.533333 21.333333-12.8 46.933333-17.066666 68.266667h-115.2z m217.6-337.066667h-4.266667c-17.066667 59.733333-34.133333 123.733333-51.2 183.466667h110.933333c-17.066667-64-38.4-123.733333-55.466666-183.466667z" fill="#10298E" /><path d="M716.8 661.333333c-68.266667 0-119.466667-29.866667-140.8-76.8h153.6l17.066667-46.933333h-187.733334v-21.333333-12.8l192 8.533333 21.333334-55.466667h-204.8c21.333333-59.733333 76.8-89.6 149.333333-89.6 38.4 0 68.266667 8.533333 89.6 17.066667l17.066667-59.733333c-17.066667-8.533333-55.466667-17.066667-110.933334-17.066667-115.2 0-204.8 55.466667-234.666666 153.6H426.666667l-21.333334 46.933333H469.333333v38.4h-38.4l-25.6 46.933334h72.533334c25.6 85.333333 106.666667 136.533333 221.866666 136.533333 55.466667 0 98.133333-8.533333 115.2-17.066667l-12.8-59.733333c-17.066667 4.266667-51.2 8.533333-85.333333 8.533333z" fill="#FFBE00" /></svg>