<svg version="1.1" id="图层_1" xmlns="http://www.w3.org/2000/svg" x="0" y="0" viewBox="0 0 38 24" xml:space="preserve"><style type="text/css">.st0{fill:#10298e}</style><path class="st0" d="M.7 9.8c0-.2.1-.3.1-.5.2-1.2.7-1.7 1.8-1.9 1.4-.3 2.8-.3 4.2-.1 1.4.2 2 1 2 2.3v.6H6.4v-.1c-.1-.9-.3-1-1.2-1h-1c-.6.1-.9.3-.9 1 0 .6.2.9.9.9.6 0 1.2 0 1.8.1l1.8.3c.8.2 1.2.8 1.3 1.6 0 .7 0 1.5-.1 2.2-.1.8-.6 1.3-1.3 1.5-.6.2-1.1.3-1.7.4H4.2c-.6-.1-1.2-.1-1.8-.2-.9-.2-1.5-.8-1.6-1.7 0-.1-.1-.3-.1-.4v-.9h2.4c.1.9.3 1.2.9 1.2h1.8c.6 0 .8-.4.8-1s-.3-.9-.8-.9c-.9-.1-1.9-.2-2.8-.3-1.3-.1-1.9-.7-2.1-2 0-.1-.1-.2-.1-.3-.1-.3-.1-.5-.1-.8zM20.1 17.1v-.5-9c0-.4.1-.5.5-.5 1.7 0 3.4 0 5.1.1 1.8.1 2.7 1 2.8 2.8.1.8 0 1.6-.1 2.4-.2 1.2-1.1 2-2.4 2h-3.2-.2V17c-.8.1-1.7.1-2.5.1zm2.5-4.9h2.3c.6 0 .8-.3.8-.9v-1c0-.7-.3-1-1-1.1h-1.8c-.1 0-.3.2-.3.2v2.8zM27.4 17.1c.6-2.1 1.3-4.3 1.9-6.4.4-1.2.7-2.4 1.1-3.6h3.8c.1 0 .3.2.3.3l2.7 9c.1.2.2.5.3.7h-2.7c-.2-.5-.3-1-.5-1.5-.1-.1-.2-.3-.3-.3h-3.2c-.1 0-.3.1-.3.2-.2.5-.3 1.1-.4 1.6h-2.7zm5.1-7.9h-.1c-.4 1.4-.8 2.9-1.2 4.3h2.6c-.4-1.5-.9-2.9-1.3-4.3z"/><path d="M16.8 15.5c-1.6 0-2.8-.7-3.3-1.8h3.6l.4-1.1h-4.4v-.5-.3l4.5.2.5-1.3h-4.8c.5-1.4 1.8-2.1 3.5-2.1.9 0 1.6.2 2.1.4l.4-1.4c-.4-.2-1.3-.4-2.6-.4-2.7 0-4.8 1.3-5.5 3.6H10l-.5 1.1H11v.9h-.9l-.6 1.1h1.7c.6 2 2.5 3.2 5.2 3.2 1.3 0 2.3-.2 2.7-.4l-.3-1.4c-.4.1-1.2.2-2 .2z" fill="#ffbe00"/></svg>