<svg xmlns="http://www.w3.org/2000/svg" width="38" height="24" fill="none" aria-labelledby="pi-sequra" role="img" viewBox="0 0 38 24"><title id="pi-sequra">SeQura</title><path fill="#1C1C1C" d="M0 0h38v24H0z"/><path fill="#fff" d="M8.12 12.4a1 1 0 0 1 .39.88c0 .2-.08.4-.2.57-.11.15-.27.28-.44.36a2 2 0 0 1-.6.17 3.2 3.2 0 0 1-1.62-.2 1.7 1.7 0 0 1-.62-.48.14.14 0 0 1 .03-.2l.43-.3a.15.15 0 0 1 .2.02 1.3 1.3 0 0 0 .97.48h.01l.33-.01a1 1 0 0 0 .3-.08.6.6 0 0 0 .22-.15.35.35 0 0 0 .09-.22.32.32 0 0 0-.05-.22.6.6 0 0 0-.19-.16 1 1 0 0 0-.27-.13l-.05-.02-.3-.08c-.2-.05-.4-.1-.58-.17a2.2 2.2 0 0 1-.5-.23.9.9 0 0 1-.43-.86.9.9 0 0 1 .2-.5c.1-.15.24-.27.4-.35.18-.08.37-.14.56-.18a2.53 2.53 0 0 1 1.5.2c.2.1.39.26.52.45a.12.12 0 0 1-.04.16l-.5.3a.1.1 0 0 1-.09.02.1.1 0 0 1-.07-.05 1.06 1.06 0 0 0-.8-.41h-.3a1 1 0 0 0-.26.08.6.6 0 0 0-.2.14.3.3 0 0 0-.07.2.22.22 0 0 0 .06.16.7.7 0 0 0 .22.16l.34.14.41.1c.19.05.37.1.55.17q.24.09.45.24"/><path fill="#fff" fill-rule="evenodd" d="M12.57 11.03c.32.37.5.85.5 1.34v.22a.2.2 0 0 1-.11.18.2.2 0 0 1-.08.01H9.92a1.23 1.23 0 0 0 .68.75 1.2 1.2 0 0 0 1.31-.26.21.21 0 0 1 .25-.04l.38.2c.1.05.13.18.06.27a1.96 1.96 0 0 1-2.3.57 2.02 2.02 0 0 1-1.03-.99 2.09 2.09 0 0 1 .69-2.6 1.97 1.97 0 0 1 2.61.35m-1.34.1a1.22 1.22 0 0 0-1.33.84v.02h2.35l-.01-.02a1.23 1.23 0 0 0-1-.84Z" clip-rule="evenodd"/><path fill="#fff" d="M19.75 12.71a3.1 3.1 0 0 1-.72 1.43c.23.08.48.12.73.12.1 0 .17.08.17.18v.53a.17.17 0 0 1-.17.18 3 3 0 0 1-2.15-.9 3.08 3.08 0 0 1-.89-2.18c0-.1.08-.17.18-.17h.52c.1 0 .17.08.17.17 0 .58.23 1.14.64 1.55l.02.02.02.02a2.2 2.2 0 0 0-.7-3.63 2.14 2.14 0 0 0-2.65.92 2.21 2.21 0 0 0 .46 2.8c.4.33.89.51 1.4.51.07 0 .13.06.13.14v.61c0 .08-.06.14-.13.14a3.02 3.02 0 0 1-3-2.58 3.05 3.05 0 0 1 4.1-3.36 3.05 3.05 0 0 1 1.87 3.5m3.74.18c.06-.14.09-.28.09-.43v-1.93c0-.11.08-.2.19-.2h.48c.11 0 .2.09.2.2v1.93a2.03 2.03 0 0 1-1.22 1.85 1.97 1.97 0 0 1-1.51 0 2 2 0 0 1-1.22-1.85v-1.93c0-.11.09-.2.2-.2h.48c.1 0 .2.09.2.2v1.93a1.14 1.14 0 0 0 .67 1.03 1.1 1.1 0 0 0 1.2-.24c.1-.1.19-.22.24-.36m2.23-1.98a2.05 2.05 0 0 1 1.45-.61c.14 0 .25.1.25.25v.37c0 .14-.11.26-.25.26a1.18 1.18 0 0 0-.84.35 1.2 1.2 0 0 0-.35.82v1.92a.2.2 0 0 1-.2.2h-.48a.2.2 0 0 1-.19-.2v-2.04h.01c.04-.5.25-.97.6-1.32"/><path fill="#fff" fill-rule="evenodd" d="M27.9 12.38c0-1.14.92-2.07 2.05-2.07s2.05.93 2.04 2.07v1.87a.2.2 0 0 1-.11.18.2.2 0 0 1-.08.02h-.45a.2.2 0 0 1-.19-.2v-.2a2.03 2.03 0 0 1-3.1-.88 2 2 0 0 1-.16-.79m1.59 1.13a1.2 1.2 0 0 0 1.3-.27c.23-.23.36-.54.36-.86a1.23 1.23 0 0 0-.74-1.12 1.2 1.2 0 0 0-.92 0c-.15.05-.28.14-.4.26a1.23 1.23 0 0 0 .4 1.99" clip-rule="evenodd"/></svg>