<svg xmlns="http://www.w3.org/2000/svg" xmlns:xlink="http://www.w3.org/1999/xlink" x="0px" y="0px"
	 role="img" viewBox="0 0 38 24" width="38" height="24" aria-labelledby="pi-servipag" style="enable-background:new 0 0 38 24;" xml:space="preserve">
<title id="pi-servipag">ServiPag</title>
<style type="text/css">
	.st0{opacity:7.000000e-02;enable-background:new    ;}
	.st1{fill:#FFFFFF;}
	.st2{fill:#FCDB02;}
	.st3{fill:#7E858B;}
	.st4{fill:#FDFDFD;}
</style>
<path class="st0" d="M35,0H3C1.3,0,0,1.3,0,3v18c0,1.7,1.4,3,3,3h32c1.7,0,3-1.3,3-3V3C38,1.3,36.6,0,35,0z"/>
<path class="st1" d="M35,1c1.1,0,2,0.9,2,2v18c0,1.1-0.9,2-2,2H3c-1.1,0-2-0.9-2-2V3c0-1.1,0.9-2,2-2H35"/>
<g>
	<g>
		<path class="st2" d="M27.8,12c0,2.1-1.6,3.7-3.7,3.7c-2.1,0-3.6-1.7-3.6-3.7c0-2.1,1.6-3.7,3.7-3.7C26.3,8.3,27.8,10,27.8,12z
			 M27.6,12.5c0-0.2,0-0.4,0-0.6c0-0.1,0-0.1-0.1-0.1c-0.3,0-0.6,0-1,0c0,0-0.1,0-0.1,0.1c0,0.1,0,0.2,0,0.3c0,0,0,0.1,0.1,0.1
			c0.1,0,0.2,0,0.3,0c0.1,0,0.1,0,0.1,0.1c0,0.1,0,0.2,0,0.3c0,0.1,0,0.1-0.1,0.1c-0.1,0-0.2,0-0.3,0c-0.2,0-0.4-0.1-0.6-0.3
			c-0.3-0.4-0.2-1,0.3-1.1c0.4-0.1,0.8-0.1,1.2,0c0,0,0.1,0,0.1,0c0-0.1,0-0.2,0-0.4c0-0.1,0-0.1-0.1-0.1c-0.3-0.1-0.6-0.1-0.9-0.1
			c-0.3,0-0.5,0.1-0.8,0.2c-0.6,0.3-0.9,0.9-0.6,1.5c0.2,0.3,0.4,0.5,0.8,0.6c0.5,0.2,1.1,0.1,1.6,0c0,0,0,0,0-0.1
			C27.6,12.8,27.6,12.6,27.6,12.5z M24.9,13.2c0.1,0,0.2,0,0.3,0c0.1,0,0.1,0,0-0.1c-0.3-0.7-0.6-1.5-1-2.2c0,0,0-0.1-0.1-0.1
			c-0.2,0-0.5,0-0.7,0c0,0-0.1,0-0.1,0.1c-0.3,0.7-0.6,1.5-1,2.2c0,0.1,0,0.1,0,0.1c0.2,0,0.4,0,0.6,0c0.1,0,0.1,0,0.1-0.1
			c0-0.1,0.1-0.2,0.2-0.4c0,0,0-0.1,0.1-0.1c0.3,0,0.6,0,0.9,0c0.1,0,0.1,0,0.1,0.1c0,0.1,0.1,0.2,0.1,0.3c0,0.1,0,0.1,0.1,0.1
			C24.7,13.2,24.8,13.2,24.9,13.2z M20.7,12c0,0.4,0,0.7,0,1.1c0,0.1,0,0.1,0.1,0.1c0.2,0,0.4,0,0.5,0c0.1,0,0.1,0,0.1-0.1
			c0-0.2,0-0.4,0-0.7c0-0.1,0-0.1,0.1-0.1c0.1,0,0.3,0,0.4,0c0.2,0,0.4-0.1,0.6-0.2c0.4-0.3,0.4-1-0.1-1.2c-0.2-0.1-0.4-0.1-0.6-0.1
			c-0.3,0-0.7,0-1,0c-0.1,0-0.1,0-0.1,0.1C20.7,11.3,20.7,11.6,20.7,12z"/>
		<path class="st3" d="M14.9,10.1c1.9,0,3.8,0,5.7,0c0,0,0,0,0.1,0c0.1,0,0.1,0,0,0.1c-0.3,0.6-0.5,1.3-0.5,2c0,0.6,0.2,1.2,0.5,1.7
			c0.1,0.1,0.1,0.1-0.1,0.1c-3.9,0-7.7,0-11.6,0c-0.1,0-0.1,0-0.1-0.1c-0.3-0.7-0.4-1.4-0.3-2.1c0-0.5,0.1-1,0.3-1.5
			c0-0.1,0.1-0.1,0.1-0.1C11,10.1,13,10.1,14.9,10.1z M15.9,12c0.1,0,0.1,0,0.2-0.1c0.2-0.1,0.3-0.3,0.3-0.5c0-0.2-0.1-0.4-0.3-0.5
			c-0.1-0.1-0.3-0.1-0.4-0.1c-0.5,0-0.9,0-1.4,0c-0.1,0-0.1,0-0.1,0.1c0,0.7,0,1.4,0,2.2c0,0.1,0,0.1,0.1,0.1c0.2,0,0.4,0,0.5,0
			c0.1,0,0.1,0,0.1-0.1c0-0.3,0-0.5,0-0.8c0,0,0-0.1,0-0.1c0.3,0,0.4,0,0.5,0.3c0.1,0.2,0.1,0.4,0.2,0.6c0,0,0,0.1,0.1,0.1
			c0.2,0,0.4,0,0.6,0c0.1,0,0.1,0,0.1-0.1c-0.1-0.3-0.2-0.5-0.3-0.8C16.1,12.2,16.1,12.1,15.9,12z M12.1,12c0,0.4,0,0.7,0,1.1
			c0,0,0,0.1,0.1,0.1c0.6,0,1.2,0,1.8,0c0,0,0.1,0,0.1-0.1c0-0.1,0-0.2,0-0.3c0-0.1,0-0.1-0.1-0.1c-0.3,0-0.7,0-1,0
			c-0.1,0-0.1,0-0.1-0.1c0-0.1,0-0.2,0-0.4c0-0.1,0-0.1,0.1-0.1c0.3,0,0.6,0,0.9,0c0.1,0,0.1,0,0.1-0.1c0-0.1,0-0.2,0-0.3
			c0-0.1,0-0.1-0.1-0.1c-0.3,0-0.6,0-0.9,0c-0.1,0-0.1,0-0.1-0.1c0-0.1,0-0.2,0-0.3c0-0.1,0-0.1,0.1-0.1c0.3,0,0.7,0,1,0
			c0.1,0,0.1,0,0.1-0.1c0-0.1,0-0.2,0-0.3c0-0.1,0-0.1-0.1-0.1c-0.6,0-1.1,0-1.7,0c-0.1,0-0.1,0-0.1,0.1
			C12.1,11.3,12.1,11.6,12.1,12z M17.8,12.6C17.7,12.6,17.7,12.6,17.8,12.6c-0.2-0.6-0.4-1.2-0.6-1.7c0-0.1,0-0.1-0.1-0.1
			c-0.2,0-0.4,0-0.6,0c-0.1,0-0.1,0-0.1,0.1c0.3,0.7,0.6,1.4,0.8,2.2c0,0.1,0.1,0.1,0.1,0.1c0.2,0,0.5,0,0.7,0c0.1,0,0.1,0,0.1-0.1
			c0.3-0.7,0.6-1.4,0.9-2.2c0-0.1,0-0.1-0.1-0.1c-0.2,0-0.4,0-0.5,0c-0.1,0-0.1,0-0.1,0.1C18.2,11.5,18,12,17.8,12.6
			C17.8,12.6,17.8,12.6,17.8,12.6z M11,10.8c-0.2,0-0.5,0-0.8,0.2c-0.2,0.1-0.3,0.3-0.3,0.5c0,0.3,0.1,0.5,0.4,0.6
			c0.2,0.1,0.3,0.1,0.5,0.2c0.1,0,0.2,0.1,0.3,0.1c0.1,0.1,0.1,0.3,0,0.3c-0.1,0-0.1,0-0.2,0.1c-0.3,0-0.5,0-0.8-0.1
			c0,0-0.1,0-0.1,0c0,0.1,0,0.3,0,0.4c0,0.1,0,0.1,0.1,0.1c0.2,0,0.3,0.1,0.5,0.1c0.3,0,0.7,0,1-0.1c0.3-0.1,0.4-0.3,0.4-0.6
			c0-0.3-0.1-0.5-0.4-0.6c-0.1,0-0.2-0.1-0.3-0.1c-0.1,0-0.3-0.1-0.4-0.1c-0.1,0-0.1-0.1-0.1-0.2c0-0.1,0.1-0.1,0.1-0.2
			c0,0,0.1,0,0.1,0c0.3,0,0.5,0,0.8,0.1c0.1,0,0.1,0,0.1-0.1c0-0.1,0-0.2,0-0.3c0-0.1,0-0.1-0.1-0.1C11.5,10.8,11.3,10.8,11,10.8z
			 M20,12c0-0.4,0-0.7,0-1.1c0-0.1,0-0.1-0.1-0.1c-0.2,0-0.4,0-0.5,0c-0.1,0-0.1,0-0.1,0.1c0,0.7,0,1.4,0,2.2c0,0.1,0,0.1,0.1,0.1
			c0.2,0,0.4,0,0.6,0c0.1,0,0.1,0,0.1-0.1C20,12.7,20,12.4,20,12z"/>
		<path class="st3" d="M28.3,13.9c-0.2,0-0.4,0-0.6,0c-0.1,0-0.1,0,0-0.1c0.3-0.6,0.5-1.2,0.5-1.9c0-0.6-0.2-1.2-0.5-1.8
			c-0.1-0.1-0.1-0.1,0.1-0.1c0.4,0,0.8,0,1.2,0c0.1,0,0.1,0,0.1,0.1c0.3,0.7,0.4,1.4,0.3,2.1c0,0.5-0.1,1.1-0.3,1.6
			c0,0.1,0,0.1-0.1,0.1C28.7,13.9,28.5,13.9,28.3,13.9z"/>
		<path class="st3" d="M27.6,12.5c0,0.2,0,0.4,0,0.6c0,0,0,0.1,0,0.1c-0.5,0.1-1.1,0.2-1.6,0c-0.3-0.1-0.6-0.3-0.8-0.6
			c-0.3-0.6,0-1.3,0.6-1.5c0.3-0.1,0.5-0.1,0.8-0.2c0.3,0,0.6,0,0.9,0.1c0.1,0,0.1,0,0.1,0.1c0,0.1,0,0.2,0,0.4c0,0.1,0,0.1-0.1,0
			c-0.4-0.2-0.8-0.2-1.2,0c-0.5,0.2-0.6,0.8-0.3,1.1c0.2,0.2,0.4,0.2,0.6,0.3c0.1,0,0.2,0,0.3,0c0,0,0.1,0,0.1-0.1
			c0-0.1,0-0.2,0-0.3c0-0.1,0-0.1-0.1-0.1c-0.1,0-0.2,0-0.3,0c0,0-0.1,0-0.1-0.1c0-0.1,0-0.2,0-0.3c0,0,0-0.1,0.1-0.1
			c0.3,0,0.6,0,1,0c0.1,0,0.1,0,0.1,0.1C27.6,12.1,27.6,12.3,27.6,12.5z"/>
		<path class="st3" d="M24.9,13.2c-0.1,0-0.2,0-0.3,0c-0.1,0-0.1,0-0.1-0.1c0-0.1-0.1-0.2-0.1-0.3c0-0.1,0-0.1-0.1-0.1
			c-0.3,0-0.6,0-0.9,0c-0.1,0-0.1,0-0.1,0.1c0,0.1-0.1,0.2-0.2,0.4c0,0,0,0.1-0.1,0.1c-0.2,0-0.4,0-0.6,0c-0.1,0-0.1,0,0-0.1
			c0.3-0.7,0.6-1.5,1-2.2c0,0,0-0.1,0.1-0.1c0.2,0,0.5,0,0.7,0c0,0,0.1,0,0.1,0.1c0.3,0.7,0.6,1.5,1,2.2c0,0.1,0,0.1,0,0.1
			C25.1,13.2,25,13.2,24.9,13.2z M23.8,11.3C23.8,11.3,23.8,11.3,23.8,11.3c-0.1,0.3-0.2,0.6-0.3,0.8c0,0,0,0.1,0,0.1
			c0.2,0,0.4,0,0.6,0c0,0,0,0,0-0.1c0-0.1-0.1-0.2-0.1-0.3C23.9,11.7,23.9,11.5,23.8,11.3z"/>
		<path class="st3" d="M20.7,12c0-0.4,0-0.7,0-1.1c0-0.1,0-0.1,0.1-0.1c0.3,0,0.7,0,1,0c0.2,0,0.4,0.1,0.6,0.1
			c0.5,0.2,0.5,0.9,0.1,1.2c-0.2,0.1-0.4,0.2-0.6,0.2c-0.1,0-0.3,0-0.4,0c-0.1,0-0.1,0-0.1,0.1c0,0.2,0,0.4,0,0.7
			c0,0.1,0,0.1-0.1,0.1c-0.2,0-0.4,0-0.5,0c-0.1,0-0.1,0-0.1-0.1C20.7,12.7,20.7,12.4,20.7,12z M21.4,11.6c0,0.1,0,0.2,0,0.3
			c0,0,0,0.1,0,0.1c0.1,0,0.3,0,0.4,0c0.1,0,0.2-0.1,0.2-0.3c0-0.1-0.1-0.2-0.2-0.3c-0.1,0-0.3,0-0.4,0c0,0,0,0,0,0.1
			C21.4,11.4,21.4,11.5,21.4,11.6z"/>
		<path class="st4" d="M15.9,12c0.2,0,0.2,0.2,0.3,0.3c0.1,0.3,0.2,0.5,0.3,0.8c0,0.1,0,0.1-0.1,0.1c-0.2,0-0.4,0-0.6,0
			c-0.1,0-0.1,0-0.1-0.1c-0.1-0.2-0.1-0.4-0.2-0.6c-0.1-0.2-0.2-0.3-0.5-0.3c-0.1,0,0,0,0,0.1c0,0.3,0,0.5,0,0.8
			c0,0.1,0,0.1-0.1,0.1c-0.2,0-0.4,0-0.5,0c-0.1,0-0.1,0-0.1-0.1c0-0.7,0-1.4,0-2.2c0,0,0-0.1,0.1-0.1c0.5,0,0.9,0,1.4,0
			c0.1,0,0.3,0,0.4,0.1c0.2,0.1,0.3,0.3,0.3,0.5c0,0.2-0.1,0.4-0.3,0.5C16,12,16,12,15.9,12z M15,11.5c0,0.1,0,0.1,0,0.2
			c0,0,0,0.1,0.1,0.1c0.2,0,0.3,0,0.5,0c0.1,0,0.2-0.1,0.2-0.2c0-0.1-0.1-0.2-0.2-0.2c-0.2,0-0.3,0-0.5,0c0,0,0,0,0,0
			C15,11.4,15,11.5,15,11.5z"/>
		<path class="st4" d="M12.1,12c0-0.4,0-0.7,0-1.1c0-0.1,0-0.1,0.1-0.1c0.6,0,1.1,0,1.7,0c0.1,0,0.1,0,0.1,0.1c0,0.1,0,0.2,0,0.3
			c0,0.1,0,0.1-0.1,0.1c-0.3,0-0.7,0-1,0c-0.1,0-0.1,0-0.1,0.1c0,0.1,0,0.2,0,0.3c0,0.1,0,0.1,0.1,0.1c0.3,0,0.6,0,0.9,0
			c0.1,0,0.1,0,0.1,0.1c0,0.1,0,0.2,0,0.3c0,0.1,0,0.1-0.1,0.1c-0.3,0-0.6,0-0.9,0c-0.1,0-0.1,0-0.1,0.1c0,0.1,0,0.2,0,0.4
			c0,0.1,0,0.1,0.1,0.1c0.3,0,0.7,0,1,0c0.1,0,0.1,0,0.1,0.1c0,0.1,0,0.2,0,0.3c0,0,0,0.1-0.1,0.1c-0.6,0-1.2,0-1.8,0
			c-0.1,0-0.1,0-0.1-0.1C12.1,12.7,12.1,12.4,12.1,12z"/>
		<path class="st4" d="M17.8,12.6C17.8,12.6,17.8,12.6,17.8,12.6c0.2-0.6,0.4-1.2,0.6-1.7c0-0.1,0-0.1,0.1-0.1c0.2,0,0.4,0,0.5,0
			c0.1,0,0.1,0,0.1,0.1c-0.3,0.7-0.6,1.4-0.9,2.2c0,0.1,0,0.1-0.1,0.1c-0.2,0-0.5,0-0.7,0c-0.1,0-0.1,0-0.1-0.1
			c-0.3-0.7-0.6-1.4-0.8-2.2c0-0.1,0-0.1,0.1-0.1c0.2,0,0.4,0,0.6,0c0.1,0,0.1,0,0.1,0.1C17.4,11.5,17.6,12,17.8,12.6
			C17.7,12.6,17.7,12.6,17.8,12.6z"/>
		<path class="st4" d="M11,10.8c0.3,0,0.5,0,0.7,0.1c0,0,0.1,0,0.1,0.1c0,0.1,0,0.2,0,0.3c0,0.1,0,0.1-0.1,0.1
			c-0.3-0.1-0.5-0.1-0.8-0.1c0,0-0.1,0-0.1,0c-0.1,0-0.1,0.1-0.1,0.2c0,0.1,0,0.1,0.1,0.2c0.1,0.1,0.3,0.1,0.4,0.1
			c0.1,0,0.2,0.1,0.3,0.1c0.2,0.1,0.4,0.3,0.4,0.6c0,0.3-0.1,0.5-0.4,0.6c-0.3,0.1-0.6,0.2-1,0.1c-0.2,0-0.4,0-0.5-0.1
			c0,0-0.1,0-0.1-0.1c0-0.1,0-0.3,0-0.4c0-0.1,0-0.1,0.1,0c0.2,0.1,0.5,0.1,0.8,0.1c0.1,0,0.2,0,0.2-0.1c0.1-0.1,0.1-0.2,0-0.3
			c-0.1-0.1-0.2-0.1-0.3-0.1c-0.2-0.1-0.3-0.1-0.5-0.2c-0.2-0.1-0.4-0.3-0.4-0.6c0-0.3,0.1-0.4,0.3-0.5C10.5,10.8,10.8,10.8,11,10.8
			z"/>
		<path class="st4" d="M20,12c0,0.4,0,0.7,0,1.1c0,0.1,0,0.1-0.1,0.1c-0.2,0-0.4,0-0.6,0c-0.1,0-0.1,0-0.1-0.1c0-0.7,0-1.4,0-2.2
			c0-0.1,0-0.1,0.1-0.1c0.2,0,0.4,0,0.5,0c0.1,0,0.1,0,0.1,0.1C20,11.3,20,11.6,20,12z"/>
		<path class="st2" d="M23.8,11.3c0.1,0.2,0.1,0.4,0.2,0.6c0,0.1,0.1,0.2,0.1,0.3c0,0,0,0.1,0,0.1c-0.2,0-0.4,0-0.6,0c0,0,0,0,0-0.1
			C23.6,11.9,23.7,11.6,23.8,11.3C23.8,11.3,23.8,11.3,23.8,11.3z"/>
		<path class="st2" d="M21.4,11.6c0-0.1,0-0.2,0-0.3c0,0,0-0.1,0-0.1c0.1,0,0.3,0,0.4,0c0.1,0,0.2,0.1,0.2,0.3
			c0,0.1-0.1,0.2-0.2,0.3c-0.1,0-0.3,0-0.4,0c0,0,0,0,0-0.1C21.4,11.8,21.4,11.7,21.4,11.6z"/>
		<path class="st3" d="M15,11.5c0-0.1,0-0.1,0-0.2c0,0,0,0,0,0c0.2,0,0.3,0,0.5,0c0.1,0,0.2,0.1,0.2,0.2c0,0.1-0.1,0.2-0.2,0.2
			c-0.2,0-0.3,0-0.5,0c0,0-0.1,0-0.1-0.1C15,11.7,15,11.6,15,11.5z"/>
	</g>
</g>
</svg>
