<svg
    xmlns="http://www.w3.org/2000/svg" width="38" height="24" role="img" viewBox="0 0 38 24" aria-labelledby="pi-servipag">
    <title id="pi-servipag">ServiPag</title>
    <path d="M35 0H3C1.3 0 0 1.3 0 3v18c0 1.7 1.4 3 3 3h32c1.7 0 3-1.3 3-3V3c0-1.7-1.4-3-3-3z" opacity=".07"/>
    <path d="M35 1c1.1 0 2 .9 2 2v18c0 1.1-.9 2-2 2H3c-1.1 0-2-.9-2-2V3c0-1.1.9-2 2-2h32" fill="#fff"/>
    <path fill="#fcdb02" d="M27.8 12c0 2.1-1.6 3.7-3.7 3.7S20.5 14 20.5 12c0-2.1 1.6-3.7 3.7-3.7s3.6 1.7 3.6 3.7zm-.2.5v-.6c0-.1 0-.1-.1-.1h-1s-.1 0-.1.1v.3s0 .1.1.1h.3c.1 0 .1 0 .1.1v.3c0 .1 0 .1-.1.1h-.3c-.2 0-.4-.1-.6-.3-.3-.4-.2-1 .3-1.1.4-.1.8-.1 1.2 0h.1V11c0-.1 0-.1-.1-.1-.3-.1-.6-.1-.9-.1-.3 0-.5.1-.8.2-.6.3-.9.9-.6 1.5.2.3.4.5.8.6.5.2 1.1.1 1.6 0V13c.1-.2.1-.4.1-.5zm-2.7.7h.3c.1 0 .1 0 0-.1-.3-.7-.6-1.5-1-2.2 0 0 0-.1-.1-.1h-.7s-.1 0-.1.1c-.3.7-.6 1.5-1 2.2v.1h.6c.1 0 .1 0 .1-.1s.1-.2.2-.4c0 0 0-.1.1-.1h.9c.1 0 .1 0 .1.1s.1.2.1.3c0 .1 0 .1.1.1.2.1.3.1.4.1zM20.7 12v1.1c0 .1 0 .1.1.1h.5c.1 0 .1 0 .1-.1v-.7c0-.1 0-.1.1-.1h.4c.2 0 .4-.1.6-.2.4-.3.4-1-.1-1.2-.2-.1-.4-.1-.6-.1h-1c-.1 0-.1 0-.1.1V12z"/>
    <path fill="#7e858b" d="M14.9 10.1h5.8c.1 0 .1 0 0 .1-.3.6-.5 1.3-.5 2 0 .6.2 1.2.5 1.7.1.1.1.1-.1.1H9c-.1 0-.1 0-.1-.1-.3-.7-.4-1.4-.3-2.1 0-.5.1-1 .3-1.5 0-.1.1-.1.1-.1 2-.1 4-.1 5.9-.1zm1 1.9c.1 0 .1 0 .2-.1.2-.1.3-.3.3-.5s-.1-.4-.3-.5c-.1-.1-.3-.1-.4-.1h-1.4c-.1 0-.1 0-.1.1v2.2c0 .1 0 .1.1.1h.5c.1 0 .1 0 .1-.1v-.8-.1c.3 0 .4 0 .5.3.1.2.1.4.2.6 0 0 0 .1.1.1h.6c.1 0 .1 0 .1-.1-.1-.3-.2-.5-.3-.8 0-.1 0-.2-.2-.3zm-3.8 0v1.1s0 .1.1.1H14s.1 0 .1-.1v-.3c0-.1 0-.1-.1-.1h-1c-.1 0-.1 0-.1-.1v-.4c0-.1 0-.1.1-.1h.9c.1 0 .1 0 .1-.1v-.3c0-.1 0-.1-.1-.1H13c-.1 0-.1 0-.1-.1v-.3c0-.1 0-.1.1-.1h1c.1 0 .1 0 .1-.1v-.3c0-.1 0-.1-.1-.1h-1.7c-.1 0-.1 0-.1.1-.1.6-.1.9-.1 1.3zm5.7.6c-.1 0-.1 0 0 0-.2-.6-.4-1.2-.6-1.7 0-.1 0-.1-.1-.1h-.6c-.1 0-.1 0-.1.1.3.7.6 1.4.8 2.2 0 .1.1.1.1.1h.7c.1 0 .1 0 .1-.1.3-.7.6-1.4.9-2.2 0-.1 0-.1-.1-.1h-.5c-.1 0-.1 0-.1.1-.1.6-.3 1.1-.5 1.7zM11 10.8c-.2 0-.5 0-.8.2-.2.1-.3.3-.3.5 0 .3.1.5.4.6.2.1.3.1.5.2.1 0 .2.1.3.1.1.1.1.3 0 .3s-.1 0-.2.1c-.3 0-.5 0-.8-.1H10v.4c0 .1 0 .1.1.1.2 0 .3.1.5.1.3 0 .7 0 1-.1.3-.1.4-.3.4-.6s-.1-.5-.4-.6c-.1 0-.2-.1-.3-.1-.1 0-.3-.1-.4-.1-.1 0-.1-.1-.1-.2s.1-.1.1-.2h.1c.3 0 .5 0 .8.1.1 0 .1 0 .1-.1v-.3c0-.1 0-.1-.1-.1-.3-.2-.5-.2-.8-.2zm9 1.2v-1.1c0-.1 0-.1-.1-.1h-.5c-.1 0-.1 0-.1.1v2.2c0 .1 0 .1.1.1h.6c.1 0 .1 0 .1-.1-.1-.4-.1-.7-.1-1.1zM28.3 13.9h-.6c-.1 0-.1 0 0-.1.3-.6.5-1.2.5-1.9 0-.6-.2-1.2-.5-1.8-.1-.1-.1-.1.1-.1H29c.1 0 .1 0 .1.1.3.7.4 1.4.3 2.1 0 .5-.1 1.1-.3 1.6 0 .1 0 .1-.1.1h-.7z"/>
    <path fill="#7e858b" d="M27.6 12.5v.7c-.5.1-1.1.2-1.6 0-.3-.1-.6-.3-.8-.6-.3-.6 0-1.3.6-1.5.3-.1.5-.1.8-.2.3 0 .6 0 .9.1.1 0 .1 0 .1.1v.4c0 .1 0 .1-.1 0-.4-.2-.8-.2-1.2 0-.5.2-.6.8-.3 1.1.2.2.4.2.6.3h.3s.1 0 .1-.1v-.3c0-.1 0-.1-.1-.1h-.3s-.1 0-.1-.1V12s0-.1.1-.1h1c.1 0 .1 0 .1.1-.1.1-.1.3-.1.5zM24.9 13.2h-.3c-.1 0-.1 0-.1-.1s-.1-.2-.1-.3c0-.1 0-.1-.1-.1h-.9c-.1 0-.1 0-.1.1s-.1.2-.2.4c0 0 0 .1-.1.1h-.6c-.1 0-.1 0 0-.1.3-.7.6-1.5 1-2.2 0 0 0-.1.1-.1h.7s.1 0 .1.1c.3.7.6 1.5 1 2.2v.1c-.2-.1-.3-.1-.4-.1zm-1.1-1.9c-.1.3-.2.6-.3.8v.1h.6v-.1c0-.1-.1-.2-.1-.3-.1-.1-.1-.3-.2-.5zM20.7 12v-1.1c0-.1 0-.1.1-.1h1c.2 0 .4.1.6.1.5.2.5.9.1 1.2-.2.1-.4.2-.6.2h-.4c-.1 0-.1 0-.1.1v.7c0 .1 0 .1-.1.1h-.5c-.1 0-.1 0-.1-.1V12zm.7-.4v.4h.4c.1 0 .2-.1.2-.3 0-.1-.1-.2-.2-.3h-.4v.2z"/>
    <path fill="#fdfdfd" d="M15.9 12c.2 0 .2.2.3.3.1.3.2.5.3.8 0 .1 0 .1-.1.1h-.6c-.1 0-.1 0-.1-.1-.1-.2-.1-.4-.2-.6-.1-.2-.2-.3-.5-.3-.1 0 0 0 0 .1v.8c0 .1 0 .1-.1.1h-.5c-.1 0-.1 0-.1-.1v-2.2s0-.1.1-.1h1.4c.1 0 .3 0 .4.1.2.1.3.3.3.5s-.1.4-.3.5c-.2.1-.2.1-.3.1zm-.9-.5v.2s0 .1.1.1h.5c.1 0 .2-.1.2-.2s-.1-.2-.2-.2h-.5c-.1 0-.1.1-.1.1zM12.1 12v-1.1c0-.1 0-.1.1-.1h1.7c.1 0 .1 0 .1.1v.3c0 .1 0 .1-.1.1h-1c-.1 0-.1 0-.1.1v.3c0 .1 0 .1.1.1h.9c.1 0 .1 0 .1.1v.3c0 .1 0 .1-.1.1h-.9c-.1 0-.1 0-.1.1v.4c0 .1 0 .1.1.1h1c.1 0 .1 0 .1.1v.3s0 .1-.1.1h-1.8c-.1 0-.1 0-.1-.1.1-.6.1-.9.1-1.3zM17.8 12.6c.2-.6.4-1.2.6-1.7 0-.1 0-.1.1-.1h.5c.1 0 .1 0 .1.1-.3.7-.6 1.4-.9 2.2 0 .1 0 .1-.1.1h-.7c-.1 0-.1 0-.1-.1-.3-.7-.6-1.4-.8-2.2 0-.1 0-.1.1-.1h.6c.1 0 .1 0 .1.1.1.6.3 1.1.5 1.7-.1 0-.1 0 0 0zM11 10.8c.3 0 .5 0 .7.1 0 0 .1 0 .1.1v.3c0 .1 0 .1-.1.1-.3-.1-.5-.1-.8-.1h-.1c-.1 0-.1.1-.1.2s0 .1.1.2.3.1.4.1c.1 0 .2.1.3.1.2.1.4.3.4.6s-.1.5-.4.6c-.3.1-.6.2-1 .1-.2 0-.4 0-.5-.1 0 0-.1 0-.1-.1v-.4c0-.1 0-.1.1 0 .2.1.5.1.8.1.1 0 .2 0 .2-.1.1-.1.1-.2 0-.3-.1-.1-.2-.1-.3-.1-.2-.1-.3-.1-.5-.2s-.4-.3-.4-.6.1-.4.3-.5c.4-.1.7-.1.9-.1zM20 12v1.1c0 .1 0 .1-.1.1h-.6c-.1 0-.1 0-.1-.1v-2.2c0-.1 0-.1.1-.1h.5c.1 0 .1 0 .1.1.1.4.1.7.1 1.1z"/>
    <path fill="#fcdb02" d="M23.8 11.3c.1.2.1.4.2.6 0 .1.1.2.1.3v.1h-.6v-.1l.3-.9zM21.4 11.6v-.3-.1h.4c.1 0 .2.1.2.3 0 .1-.1.2-.2.3h-.4v-.1-.1z"/>
    <path fill="#7e858b" d="M15 11.5v-.2h.5c.1 0 .2.1.2.2s-.1.2-.2.2H15s-.1 0-.1-.1c.1.1.1 0 .1-.1z"/>
</svg>