<svg xmlns="http://www.w3.org/2000/svg" width="38" height="24" viewBox="0 0 38 24"><defs><style>.a{fill:#fff}.b{fill:#008357}.c{fill:#ed1c2e}.d{fill:#f58220}</style></defs><title>seveneleven</title><path class="a" d="M7.82 0h23.46v23.47H7.82z"/><path class="b" d="M2 0h34a2 2 0 0 1 2 2v20a2 2 0 0 1-2 2H2a2 2 0 0 1-2-2V2a2 2 0 0 1 2-2z"/><path class="a" d="M27.05 20.47a1 1 0 0 1-.73.72h-3.86v.77h-5.64v-.73h-4.21a1 1 0 0 1-.41-.23 1.08 1.08 0 0 1-.29-.59L10.14 3.07a.91.91 0 0 1 .62-.77L28 2.25a1 1 0 0 1 .76.6 1.09 1.09 0 0 1 0 .45z"/><path class="c" d="M26.12 8.51a5.81 5.81 0 0 0-3.34 3.78h-4.66a5.29 5.29 0 0 1 .19-.64 10.6 10.6 0 0 1 2.8-4.43A14.17 14.17 0 0 1 25 4.51a7 7 0 0 1 .75-.27c.12 0 .23-.07.37-.09v4.36"/><path class="d" d="M24.66 4.24a11.76 11.76 0 0 0-2.6 1.63 15.9 15.9 0 0 0-2.42 2.35h-6.4v-4z"/><path class="b" d="M21.63 12.65c-.15 1.1-.31 2.19-.51 3.28h-1.5c-.16-1.09-.33-2.18-.48-3.26h1c.13.81.23 1.63.38 2.42.15-.8.24-1.63.38-2.44a6.08 6.08 0 0 1 .69 0m-6.82.67H14v.57h.77v.7H14v.65h.77v.68H13v-3.28h1.81v.69m4.13 0h-.78v.57h.77v.7h-.77v.65h.77v.68h-1.8v-3.29h1.81v.69m4.74 0h-.78v.57h.77v.7h-.77v.65h.77v.68h-1.8v-3.29h1.81v.69m-8.52-.69h1v2.61h.73v.68h-1.73v-3.29M25 13a.92.92 0 0 1 .83-.45c.58 0 .69.42.69 1.25v2.12h-1v-2.05c0-.29 0-.49-.24-.49s-.28.23-.28.62v1.92h-1v-3.3h1V13M23.42 17c.11 0 .2 0 .2-.14s-.09-.12-.18-.12h-.17V17h.15m-.15.47h-.13v-.84h.32c.2 0 .3.08.3.24a.22.22 0 0 1-.22.23l.24.37h-.15l-.22-.36h-.15v.36zm.15.19a.61.61 0 1 0-.6-.61.59.59 0 0 0 .61.61zm-.74-.66a.74.74 0 1 1 .74.73.73.73 0 0 1-.74-.73z"/><path class="c" d="M17.14 21.62v-.08-1.49c.06-1.25.15-2.54.33-3.77h4.78c-.17 1.77-.16 3.55-.16 5.34h-5z"/></svg>