<?xml version="1.0" encoding="UTF-8"?>
<svg width="36px" height="22px" viewBox="0 0 36 22" version="1.1" xmlns="http://www.w3.org/2000/svg" xmlns:xlink="http://www.w3.org/1999/xlink">
    <!-- Generator: Sketch 62 (91390) - https://sketch.com -->
    <title>Sezzle Shopify Icon</title>
    <desc>Sezzle Shopify Icon</desc>
    <defs>
        <linearGradient x1="80.5242928%" y1="85.6202908%" x2="45.7530144%" y2="37.6798239%" id="linearGradient-1">
            <stop stop-color="#CE5DCB" offset="0%"></stop>
            <stop stop-color="#C558CC" offset="20.95%"></stop>
            <stop stop-color="#AC4ACF" offset="55.25%"></stop>
            <stop stop-color="#8534D4" offset="98.45%"></stop>
            <stop stop-color="#8333D4" offset="100%"></stop>
        </linearGradient>
        <linearGradient x1="-0.00122003011%" y1="49.9952968%" x2="99.9968433%" y2="49.9952968%" id="linearGradient-2">
            <stop stop-color="#FF5667" offset="2.37%"></stop>
            <stop stop-color="#FC8B82" offset="65.92%"></stop>
            <stop stop-color="#FBA28E" offset="100%"></stop>
        </linearGradient>
        <linearGradient x1="-0.00260647448%" y1="50.000149%" x2="99.9997915%" y2="50.000149%" id="linearGradient-3">
            <stop stop-color="#00B874" offset="0%"></stop>
            <stop stop-color="#29D3A2" offset="51.26%"></stop>
            <stop stop-color="#53DFB6" offset="68.17%"></stop>
            <stop stop-color="#9FF4D9" offset="100%"></stop>
        </linearGradient>
        <linearGradient x1="-0.00281499244%" y1="49.9994784%" x2="99.9985404%" y2="49.9994784%" id="linearGradient-4">
            <stop stop-color="#FCD77E" offset="0%"></stop>
            <stop stop-color="#FEA500" offset="52.41%"></stop>
            <stop stop-color="#FF5B00" offset="100%"></stop>
        </linearGradient>
    </defs>
    <g id="Page-1" stroke="none" stroke-width="1" fill="none" fill-rule="evenodd">
        <g id="Group-4" fill-rule="nonzero">
            <rect id="Rectangle" fill="#FFFFFF" x="0" y="0" width="36" height="22" rx="3"></rect>
            <g id="Group-3" transform="translate(11.000000, 2.000000)">
                <path d="M1.25240777,12.4153738 C2.92228479,14.0852508 5.62924333,14.0852508 7.29912035,12.4153738 L7.45916951,12.2553246 C8.29364545,11.4208487 6.62376843,7.04308796 7.45916951,6.20861202 L1.25240777,12.4153738 Z" id="Path" fill="url(#linearGradient-1)"></path>
                <path d="M7.6201438,6.04763773 L7.46009465,6.20768688 C6.62561871,7.04216282 8.29457059,11.4199235 7.46009465,12.2543995 L13.6668564,6.04763773 C12.8314553,5.21316178 11.7379403,4.79592228 10.6435001,4.79592228 C9.54905992,4.79499867 8.45461974,5.21316178 7.6201438,6.04763773" id="Path" fill="url(#linearGradient-2)"></path>
                <path d="M1.25240777,6.36866118 C-0.417469256,8.0385382 -0.417469256,10.7454967 1.25240777,12.4153738 L7.62106894,6.04671259 C9.29094596,4.37683556 9.29094596,1.66987702 7.62106894,6.97841784e-15 L1.25240777,6.36866118 Z" id="SVGID_3_" fill="url(#linearGradient-3)"></path>
                <path d="M7.29912035,12.4153738 C5.62924333,14.0852508 5.62924333,16.7922093 7.29912035,18.4620863 L13.6677815,12.0934252 C15.3376586,10.4235481 15.3376586,7.71658961 13.6677815,6.04671259 L7.29912035,12.4153738 Z" id="Path" fill="url(#linearGradient-4)"></path>
            </g>
        </g>
    </g>
</svg>
