<?xml version="1.0" encoding="UTF-8"?>
<svg width="38px" height="24px" viewBox="0 0 38 24" version="1.1" xmlns="http://www.w3.org/2000/svg" xmlns:xlink="http://www.w3.org/1999/xlink">
    <!-- Generator: Sketch 42 (36781) - http://www.bohemiancoding.com/sketch -->
    <title>Sezzle Shopify Icon</title>
    <desc>Sezzle Shopify Icon</desc>
    <defs>
        <rect id="path-1" x="0" y="0" width="38" height="24" rx="4"></rect>
        <mask id="mask-2" maskContentUnits="userSpaceOnUse" maskUnits="objectBoundingBox" x="0" y="0" width="38" height="24" fill="white">
            <use xlink:href="#path-1"></use>
        </mask>
    </defs>
    <g id="Page-1" stroke="none" stroke-width="1" fill="none" fill-rule="evenodd">
        <use id="Backing-Grey-Border" stroke-opacity="0.237573596" stroke="#979797" mask="url(#mask-2)" stroke-width="2" xlink:href="#path-1"></use>
        <rect id="Inner-White" fill="#FFFFFF" x="1" y="1" width="36" height="22" rx="3"></rect>
        <g id="sezzle" transform="translate(12.000000, 2.000000)">
            <path d="M4.46449438,2.92370787 C4.86617978,5.00741573 5.30865169,5.77629213 8.07977528,8.54741573 C10.4105618,10.8783146 12.0489888,12.8168539 12.0082022,14.5608989 C11.988764,15.3904494 11.1260674,16.4975281 10.6405618,16.9830337 C10.1886517,14.9994382 9.2094382,13.7944944 7.07550562,11.6605618 C4.94157303,9.52662921 3.46,8.52808989 3.11460674,6.88674157 C2.76921348,5.2452809 3.46,4.02247191 4.46449438,2.92370787" id="Fill-9" fill="#3BAB48"></path>
            <path d="M7.3858427,0.00235955056 C7.78752809,2.08606742 8.23,2.85494382 11.0011236,5.62606742 C13.3319101,7.95696629 14.9703371,9.89550562 14.9295506,11.6395506 C14.9101124,12.4691011 14.0474157,13.5761798 13.5619101,14.0616854 C13.11,12.0780899 12.1307865,10.8731461 9.99685393,8.73921348 C7.86280899,6.6052809 6.38134831,5.60674157 6.03595506,3.96539326 C5.6905618,2.32393258 6.38134831,1.1011236 7.3858427,0.00235955056" id="Fill-10" fill="#85BF43"></path>
            <path d="M1.54314607,5.84505618 C1.94483146,7.92876404 2.38730337,8.69764045 5.15842697,11.468764 C7.48921348,13.7996629 9.12764045,15.7382022 9.08685393,17.4822472 C9.06741573,18.3117978 8.2047191,19.4188764 7.71921348,19.904382 C7.26730337,17.9207865 6.28808989,16.7158427 4.1541573,14.5819101 C2.02011236,12.4479775 0.538651685,11.4494382 0.193258427,9.80808989 C-0.152134831,8.16662921 0.538651685,6.94382022 1.54314607,5.84505618" id="Fill-11" fill="#0A8A44"></path>
        </g>
    </g>
</svg>