<svg width="40" height="26" viewBox="0 0 40 26" role="img" version="1.1" xmlns="http://www.w3.org/2000/svg" aria-labelledby="pi-sezzle"><title id="pi-sezzle">Sezzle</title><defs><linearGradient x1="80.524%" y1="85.62%" x2="45.753%" y2="37.68%" id="pi-sezzle-linearGradient-1"><stop stop-color="#CE5DCB" offset="0%"/><stop stop-color="#C558CC" offset="20.95%"/><stop stop-color="#AC4ACF" offset="55.25%"/><stop stop-color="#8534D4" offset="98.45%"/><stop stop-color="#8333D4" offset="100%"/></linearGradient><linearGradient x1="-.001%" y1="49.995%" x2="99.997%" y2="49.995%" id="pi-sezzle-linearGradient-2"><stop stop-color="#FF5667" offset="2.37%"/><stop stop-color="#FC8B82" offset="65.92%"/><stop stop-color="#FBA28E" offset="100%"/></linearGradient><linearGradient x1="-.003%" y1="50%" x2="100%" y2="50%" id="pi-sezzle-linearGradient-3"><stop stop-color="#00B874" offset="0%"/><stop stop-color="#29D3A2" offset="51.26%"/><stop stop-color="#53DFB6" offset="68.17%"/><stop stop-color="#9FF4D9" offset="100%"/></linearGradient><linearGradient x1="-.003%" y1="49.999%" x2="99.999%" y2="49.999%" id="pi-sezzle-linearGradient-4"><stop stop-color="#FCD77E" offset="0%"/><stop stop-color="#FEA500" offset="52.41%"/><stop stop-color="#FF5B00" offset="100%"/></linearGradient></defs><g transform="translate(1 1)" fill-rule="nonzero" stroke="none" stroke-width="1" fill="none"><rect id="bg" stroke-opacity=".07" stroke="#000" fill="#FFF" x="-.5" y="-.5" width="39" height="24.222" rx="2"/><path d="M12.417 15.044a4.836 4.836 0 006.84 0l.18-.181c.944-.944-.945-5.896 0-6.84l-7.02 7.02z" id="sezzle-2" fill="url(#pi-sezzle-linearGradient-1)"/><path d="M19.62 7.84l-.182.182c-.943.944.944 5.896 0 6.84L26.46 7.84a4.823 4.823 0 00-3.42-1.416 4.817 4.817 0 00-3.42 1.416" id="sezzle-3" fill="url(#pi-sezzle-linearGradient-2)"/><path d="M12.417 8.204a4.836 4.836 0 000 6.84L19.62 7.84a4.836 4.836 0 000-6.84l-7.204 7.204z" id="sezzle-1" fill="url(#pi-sezzle-linearGradient-3)"/><path d="M19.256 15.044a4.836 4.836 0 000 6.84l7.204-7.205a4.836 4.836 0 000-6.84l-7.204 7.205z" id="sezzle-4" fill="url(#pi-sezzle-linearGradient-4)"/></g></svg>