<svg xmlns="http://www.w3.org/2000/svg" width="38" height="24" fill="none" aria-labelledby="pi-sezzle" role="img" viewBox="0 0 38 24"><title id="pi-sezzle">Sezzle</title><path fill="#fff" d="M0 0h38v24H0z"/><path fill="url(#pi-sezzle-a)" d="M12.36 15.48a4.64 4.64 0 0 0 6.57 0l.17-.17c.9-.9-.9-5.66 0-6.57z"/><path fill="url(#pi-sezzle-b)" d="m19.27 8.57-.17.17c-.9.9.9 5.66 0 6.57l6.74-6.74a4.63 4.63 0 0 0-6.57 0"/><path fill="url(#pi-sezzle-c)" d="M12.36 8.92a4.64 4.64 0 0 0 0 6.56l6.92-6.91a4.64 4.64 0 0 0 0-6.57z"/><path fill="url(#pi-sezzle-d)" d="M18.93 15.48a4.64 4.64 0 0 0 0 6.57l6.91-6.92a4.64 4.64 0 0 0 0-6.56z"/><defs><linearGradient id="pi-sezzle-a" x1="18" x2="15.08" y1="15.68" y2="12.2" gradientUnits="userSpaceOnUse"><stop stop-color="#CE5DCB"/><stop offset=".21" stop-color="#C558CC"/><stop offset=".55" stop-color="#AC4ACF"/><stop offset=".98" stop-color="#8534D4"/><stop offset="1" stop-color="#8333D4"/></linearGradient><linearGradient id="pi-sezzle-b" x1="18.84" x2="25.84" y1="11.26" y2="11.26" gradientUnits="userSpaceOnUse"><stop offset=".02" stop-color="#FF5667"/><stop offset=".66" stop-color="#FC8B82"/><stop offset="1" stop-color="#FBA28E"/></linearGradient><linearGradient id="pi-sezzle-c" x1="11" x2="20.64" y1="8.74" y2="8.74" gradientUnits="userSpaceOnUse"><stop stop-color="#00B874"/><stop offset=".51" stop-color="#29D3A2"/><stop offset=".68" stop-color="#53DFB6"/><stop offset="1" stop-color="#9FF4D9"/></linearGradient><linearGradient id="pi-sezzle-d" x1="17.57" x2="27.2" y1="15.31" y2="15.31" gradientUnits="userSpaceOnUse"><stop stop-color="#FCD77E"/><stop offset=".52" stop-color="#FEA500"/><stop offset="1" stop-color="#FF5B00"/></linearGradient></defs></svg>