<svg width="38" height="24" viewBox="0 0 38 24" xmlns="http://www.w3.org/2000/svg" style="background:#fff"><title>sezzle-horizontal</title><g fill-rule="nonzero" fill="none"><path d="M4.36 7.854c-.016-.713.38-1.33.799-1.849.134.592.279 1.2.633 1.692.943 1.382 2.3 2.392 3.157 3.85.28.47.507 1.027.419 1.596-.104.506-.437.91-.746 1.29a4.579 4.579 0 0 0-.727-1.682c-.81-1.155-1.865-2.072-2.804-3.102-.439-.474-.768-1.11-.73-1.795" fill="#8DC642"/><path d="M2.73 9.652c-.03-.743.366-1.402.823-1.926.079.68.316 1.345.72 1.882.963 1.307 2.254 2.316 3.082 3.74.243.445.462.954.397 1.483-.103.523-.442.94-.752 1.343-.15-.576-.357-1.143-.697-1.624-.83-1.198-1.927-2.139-2.887-3.21-.408-.451-.707-1.05-.687-1.688" fill="#3CB64B"/><path d="M1.105 11.352c-.033-.719.36-1.348.792-1.861.126.592.28 1.196.63 1.689.956 1.395 2.33 2.416 3.186 3.896.283.489.51 1.076.367 1.657-.137.45-.425.825-.718 1.173-.149-.621-.394-1.22-.766-1.726-.818-1.123-1.849-2.035-2.774-3.05-.435-.471-.762-1.098-.717-1.778" fill="#0E9648"/><path d="M31.138 9.074h.905c.008 2.003 0 4.006.004 6.01h-.91c.001-2.004-.001-4.007.001-6.01M12.144 11.092a.777.777 0 0 1 .756-.67c1.008-.05 2.02-.004 3.03-.023-.002.332-.002.662-.002.993-.987-.004-1.973-.003-2.96-.002l.007.911c.817.008 1.635-.014 2.452.007.37.01.704.378.707.771.013.444.02.888-.006 1.33-.039.427-.45.705-.83.674-1.044.003-2.088 0-3.132 0 .003-.32.006-.639.013-.957 1.019.004 2.036-.005 3.054.006v-.894c-.775 0-1.552.017-2.328-.004-.374.002-.745-.28-.766-.698a9.425 9.425 0 0 1 .005-1.444M16.747 11.208c.008-.43.378-.794.78-.786.846-.044 1.694-.017 2.54-.015.405-.018.863.23.927.692.055.458.05.925.014 1.385-.019.434-.405.752-.8.748-.862.025-1.725-.001-2.587.01v.885c1.067.033 2.143-.072 3.206.06l-.012.888c-1.095.012-2.192.015-3.287.003-.441.003-.83-.451-.786-.919.004-.984-.006-1.968.005-2.951zm.871.185l.005.908c.834.002 1.667-.001 2.5.002.002-.305.002-.612.003-.918-.836.01-1.672 0-2.508.008zM21.491 10.402c1.44 0 2.882-.003 4.322 0l-.008.514c-.924 1.058-1.821 2.143-2.742 3.206.904.01 1.81.006 2.715.001.017.318.032.637.041.955-1.443.01-2.885.003-4.33.005v-.523c.91-1.063 1.836-2.108 2.752-3.164-.916-.012-1.833-.004-2.749-.006-.002-.33-.002-.659-.001-.988M26.24 10.4c1.445.002 2.889 0 4.333.002l.011.463c-.907 1.102-1.854 2.165-2.763 3.265.286 0 .57-.002.856-.004.62.004 1.24 0 1.86-.004.026.32.046.64.047.96-1.448.003-2.895.001-4.343.001l-.001-.54c.94-1.034 1.826-2.122 2.771-3.151-.922-.006-1.845-.002-2.769-.002-.001-.33-.002-.659-.001-.99M32.717 11.234c-.03-.482.41-.843.838-.819a52.728 52.728 0 0 1 2.513-.006c.397-.016.811.265.883.696.045.44.03.885.015 1.327-.005.42-.348.782-.741.796-.882.033-1.766.004-2.65.01v.892c1.06-.008 2.122.001 3.182-.005.003.32.006.637.007.957-1.076-.001-2.152.007-3.228-.001-.408.017-.829-.347-.817-.797a137.67 137.67 0 0 1-.002-3.05zm.856.156c.003.304.005.609.01.913.845-.003 1.692 0 2.538-.002l.006-.91c-.85-.003-1.703 0-2.554 0z" fill="#18181A"/></g></svg>