<svg xmlns="http://www.w3.org/2000/svg" role="img" viewBox="0 0 38 24" width="38" height="24" aria-labelledby="pi-shopify_pay"><title id="pi-shopify_pay">Shop Pay</title><rect x=".5" y=".5" width="37" height="23" rx="2" fill="#5A31F4" stroke="#3F22AB"/><path d="M21.382 9.713c0 1.668-1.177 2.858-2.821 2.858h-1.549a.133.133 0 00-.092.038.128.128 0 00-.038.091v2.192a.129.129 0 01-.08.119.13.13 0 01-.05.01h-1.084a.13.13 0 01-.12-.08.127.127 0 01-.01-.05V6.986a.129.129 0 01.13-.13h2.9c1.637 0 2.814 1.19 2.814 2.858zm-1.352 0c0-.958-.658-1.658-1.55-1.658h-1.468a.13.13 0 00-.13.13v3.05a.129.129 0 00.13.13h1.468c.892.005 1.55-.695 1.55-1.652zM21.704 13.504a1.527 1.527 0 01.647-1.317c.423-.316 1.084-.48 2.055-.514l1.033-.036v-.303c0-.607-.41-.863-1.068-.863-.658 0-1.075.231-1.17.61a.127.127 0 01-.125.09h-1.022a.13.13 0 01-.126-.092.126.126 0 01-.004-.055c.152-.898.904-1.58 2.494-1.58 1.692 0 2.303.783 2.303 2.276v3.172a.13.13 0 01-.132.129h-1.03a.13.13 0 01-.13-.13v-.236a.096.096 0 00-.061-.091.099.099 0 00-.107.022c-.31.334-.808.575-1.607.575-1.175 0-1.95-.607-1.95-1.657zm3.735-.687v-.246l-1.339.07c-.705.036-1.115.326-1.115.816 0 .444.376.69 1.034.69.893 0 1.42-.48 1.42-1.33zM27.755 17.417v-.919a.131.131 0 01.157-.127c.158.029.318.044.479.044a1.229 1.229 0 001.245-.876l.067-.211a.133.133 0 000-.088l-2.145-5.471a.13.13 0 01.122-.18h1.04a.132.132 0 01.123.085l1.456 3.859a.131.131 0 00.125.088.133.133 0 00.125-.088l1.265-3.848a.13.13 0 01.126-.09h1.076a.134.134 0 01.132.116.133.133 0 01-.008.063l-2.295 6.076c-.528 1.413-1.433 1.773-2.43 1.773a1.96 1.96 0 01-.561-.066.132.132 0 01-.1-.14zM8.57 6.4a5.363 5.363 0 00-3.683 1.427.231.231 0 00-.029.31l.618.839a.236.236 0 00.276.084.237.237 0 00.086-.056 3.823 3.823 0 012.738-1.11c2.12 0 3.227 1.584 3.227 3.15 0 1.7-1.163 2.898-2.835 2.921-1.292 0-2.266-.85-2.266-1.974a1.908 1.908 0 01.713-1.48.231.231 0 00.033-.324l-.65-.815a.236.236 0 00-.339-.034c-.399.32-.72.724-.942 1.183a3.39 3.39 0 00-.337 1.47c0 1.935 1.655 3.452 3.775 3.464h.03c2.517-.032 4.337-1.884 4.337-4.415 0-2.247-1.667-4.64-4.752-4.64z" fill="#fff"/></svg>