<svg role="img" width="38" height="24" viewBox="0 0 38 24" aria-labelledby="pi-shopeepay" xmlns="http://www.w3.org/2000/svg"><title id="pi-shopeepay">ShopeePay</title><path d="M35 0H3a3 3 0 00-3 3v18a3 3 0 003 3h32a3 3 0 003-3V3a3 3 0 00-3-3z" opacity=".07" style="isolation:isolate"/><path d="M35 1a2 2 0 012 2v18a2 2 0 01-2 2H3a2 2 0 01-2-2V3a2 2 0 012-2h32" fill="#fff"/><path d="M19.339 9.186c.07-.012.197-.018.313-.048.382-.083.706-.26.915-.61.15-.242.209-.515.093-.793a1.339 1.339 0 00-.65-.692c-.283-.137-.579-.243-.874-.362a1.18 1.18 0 01-.481-.331c-.116-.136-.14-.35-.052-.474a.766.766 0 01.585-.325c.353-.03.678.053.985.23.029.018.098 0 .11-.023.064-.1.116-.207.174-.314.029-.053.017-.095-.035-.124-.417-.22-.84-.373-1.327-.296-.307.065-.585.183-.805.432-.267.302-.348.657-.162 1.024.185.379.521.563.886.716.278.119.562.214.829.356.133.07.26.207.318.343.093.201-.034.45-.231.562a1.241 1.241 0 01-.823.166 1.8 1.8 0 01-.782-.343c-.07-.047-.105-.042-.15.012-.07.083-.146.165-.221.254-.046.054-.018.095.023.13.394.314.823.492 1.362.51zm2.225-2.404c-.006-.071-.006-.112-.006-.154V5.136c0-.1-.035-.136-.134-.136-.08.006-.162 0-.243 0-.156 0-.162.006-.162.166v3.889c-.006.077.029.113.104.113h.29c.122 0 .139-.018.139-.148 0-.415-.012-.835.006-1.25.023-.532.48-.769.92-.65.296.076.435.301.441.627.006.426.006.853 0 1.285 0 .106.035.142.14.136.098-.006.196 0 .295 0 .07 0 .104-.036.104-.107V8.66c-.006-.367 0-.74-.029-1.107a1.025 1.025 0 00-.504-.823c-.382-.237-.782-.273-1.194-.065a1.655 1.655 0 01-.168.118z" fill="#FEFEFE"/><path d="M27.462 12.625v-.308c0-.326-.041-.29.284-.29h.648c.087 0 .116.035.116.124v4.967c0 .09-.029.125-.116.119a18.277 18.277 0 00-.81 0c-.088 0-.122-.036-.122-.119v-.378c0-.036-.006-.066-.012-.13-.046.04-.081.058-.104.088a1.595 1.595 0 01-.893.485c-.295.06-.59.077-.88.024-.504-.089-.956-.302-1.321-.68-.238-.243-.464-.492-.591-.812a2.474 2.474 0 01-.174-.568 3.977 3.977 0 01-.035-.829c.023-.314.116-.616.267-.894.382-.698.938-1.184 1.709-1.35.527-.112 1.066-.095 1.553.213.121.077.231.178.347.267.035.03.07.059.099.095.006-.018.023-.024.035-.024zm-2.978 1.995c-.047.847.7 1.492 1.413 1.522.88.04 1.559-.723 1.576-1.451.023-.888-.69-1.604-1.512-1.61-.788 0-1.512.716-1.477 1.539z" fill="#F3473B"/><path d="M26.784 8.593v-1.77c0-.201 0-.201.203-.201h.19c.082-.006.117.035.11.118 0 .024-.005.041 0 .065.007.03.018.06.024.089.029-.012.064-.024.087-.047.336-.35.939-.385 1.338-.137.371.231.609.557.667.995.052.355-.03.687-.244.983-.145.207-.324.35-.544.45-.383.177-.904.124-1.211-.202-.023-.023-.064-.035-.093-.053-.006.036-.023.071-.023.113 0 .48-.006.959 0 1.432 0 .101-.03.142-.128.13a1.838 1.838 0 00-.255 0c-.098.007-.127-.04-.127-.136.006-.61.006-1.22.006-1.829zm.533-.716c0 .461.342.817.776.817.446 0 .782-.35.794-.8.011-.426-.383-.81-.77-.81-.424 0-.835.39-.8.793z" fill="#F44D40"/><path d="M19.339 9.185a2.145 2.145 0 01-1.35-.503c-.04-.036-.076-.071-.024-.13.076-.083.145-.166.22-.255.047-.053.082-.065.151-.012.232.172.487.296.783.344.3.047.567-.024.822-.166.197-.113.325-.361.232-.563a.821.821 0 00-.319-.343c-.266-.142-.55-.237-.828-.355-.36-.154-.701-.344-.887-.717-.185-.367-.104-.728.163-1.024.208-.254.486-.373.805-.426.487-.083.91.077 1.327.296.052.03.063.071.034.124-.058.107-.11.213-.173.314-.018.024-.087.036-.11.024a1.657 1.657 0 00-.985-.231.784.784 0 00-.586.325c-.092.125-.063.338.053.474.133.154.295.26.48.332.296.112.591.225.875.36.296.143.516.38.65.693.12.285.057.551-.094.794-.208.343-.532.527-.915.61a5.526 5.526 0 00-.324.035zM21.564 6.781c.069-.047.115-.082.168-.106.405-.207.81-.178 1.193.065.296.184.475.468.504.823.03.367.023.734.03 1.107v.403c0 .07-.03.106-.105.106-.099 0-.197-.006-.296 0-.104.006-.139-.035-.139-.136.006-.426.006-.853 0-1.285-.006-.331-.139-.55-.44-.627-.44-.119-.898.118-.921.651-.018.414-.006.835-.006 1.25 0 .13-.017.147-.14.147h-.289c-.075 0-.11-.035-.104-.112v-.054-3.836c0-.16.006-.166.162-.166h.243c.093-.006.134.036.134.136-.006.498 0 .995 0 1.492 0 .03.006.071.006.142zM34.055 8.09h-.817c-.104 0-.11.018-.075.112.098.284.504.456.765.403.237-.053.44-.124.59-.32.035-.041.064-.047.105-.006.087.077.174.148.26.22.058.047.058.094.012.147a1.43 1.43 0 01-.811.498c-.296.059-.574.041-.834-.101-.371-.201-.591-.515-.667-.947-.063-.367.023-.681.232-.965.226-.32.522-.51.933-.521.319-.006.585.094.817.302.197.177.336.402.394.669.029.13.029.266.04.396.006.083-.029.119-.116.119-.278-.006-.55-.006-.828-.006zm-.272-.438h.55c.075 0 .099-.03.064-.1-.128-.232-.313-.38-.58-.398-.283-.017-.48.137-.637.362-.058.088-.029.136.07.136h.533zM31.204 8.09h-.8c-.12 0-.132.023-.08.136.133.284.452.426.753.379.232-.042.434-.113.59-.302.018-.024.1-.024.128 0 .087.06.157.136.238.201.058.053.058.107.011.16-.22.249-.475.438-.816.48-.087.011-.174.035-.261.035-.452.006-.788-.207-1.037-.586a1.256 1.256 0 01.035-1.45c.19-.255.422-.468.747-.516.37-.053.724.012 1.014.296.18.178.33.373.382.622.03.124.047.255.058.385.006.124-.035.16-.156.166-.273-.006-.54-.006-.806-.006zm-.272-.438h.51c.035 0 .098-.012.098-.03.012-.035-.005-.089-.028-.118a1.297 1.297 0 00-.192-.208c-.313-.266-.834-.142-.99.231-.041.095-.03.125.075.125h.527z" fill="#F44C40"/><path d="M26.453 7.888c.012.746-.62 1.35-1.315 1.35s-1.35-.604-1.32-1.415c.022-.61.555-1.332 1.425-1.278.585.041 1.234.615 1.21 1.343zm-1.315-.793c-.382-.059-.788.367-.794.77-.005.468.377.84.788.829.452-.006.777-.35.788-.817.012-.42-.37-.83-.782-.782z" fill="#F44C3F"/><path d="M29.084 12.068c.035-.006.052-.011.075-.011.33 0 .66-.006.99.005.041 0 .1.042.117.083l.521.995c.099.19.191.385.29.58.22.426.44.853.66 1.273.041.077.076.166.116.243.04.077.087.083.151.023.017-.017.04-.041.052-.065.14-.26.278-.52.417-.781.244-.462.493-.918.736-1.38l.487-.888c.023-.035.07-.083.104-.083.348-.005.695-.005 1.043-.005.011 0 .023.005.052.011-.023.054-.04.101-.07.148l-.677 1.261c-.151.273-.302.545-.452.823-.197.373-.394.746-.591 1.113-.296.545-.591 1.084-.887 1.622l-.382.71c-.26.492-.521.984-.788 1.475-.023.036-.081.071-.122.071-.324.006-.654.006-.979 0-.098 0-.11-.03-.07-.106.14-.25.279-.504.418-.752.185-.338.37-.67.556-1.007.15-.278.301-.556.458-.829a.202.202 0 000-.213c-.192-.373-.383-.752-.574-1.125a31.803 31.803 0 00-.319-.621c-.266-.521-.527-1.042-.793-1.557-.151-.296-.313-.592-.464-.888a.275.275 0 01-.075-.125zM18.012 13.554v-3.48c0-.149 0-.149.15-.149h2.683c.278 0 .545.077.8.184.4.16.747.408 1.014.752.15.195.278.42.382.645.093.201.168.426.203.645.035.255.029.521.023.788-.012.325-.128.627-.29.911a2.094 2.094 0 01-.486.604c-.238.19-.493.344-.777.438a2.82 2.82 0 01-.967.166c-.505-.006-1.009 0-1.513 0-.145 0-.168.024-.168.172v1.859c0 .095-.023.124-.116.124a18.54 18.54 0 00-.816 0c-.093 0-.122-.03-.122-.124v-3.535zm1.09-1.065v1.367c0 .071.01.119.098.119.596-.024 1.199.047 1.79-.036.521-.077.921-.331 1.147-.835.116-.254.122-.527.081-.787a1.494 1.494 0 00-.556-.953c-.267-.208-.562-.344-.892-.356-.51-.017-1.02 0-1.53-.005-.104 0-.133.035-.133.136-.006.45-.006.9-.006 1.35z" fill="#F34538"/><path d="M9.547 17.219H4.002c-.37 0-.654-.178-.846-.51A1.202 1.202 0 013 16.095c0-3.12.006-6.234 0-9.354 0-.249.14-.414.394-.432.22-.012.435-.065.655-.1.08-.013.168-.019.255-.025.202-.023.405-.041.608-.065.203-.03.411-.065.614-.094.209-.03.411-.048.62-.077l.69-.09a7.4 7.4 0 01.359-.04c.226-.03.452-.066.678-.101.08-.012.162-.018.243-.024.214-.024.434-.041.649-.07.22-.03.446-.066.666-.102.081-.011.162-.017.244-.023.208-.024.417-.042.625-.071.215-.03.429-.065.643-.101.076-.012.157-.012.232-.024l.637-.07c.22-.03.44-.066.667-.101.08-.012.168-.012.255-.024.18-.024.359-.053.544-.071.14-.012.319.183.319.35.006.408 0 .816 0 1.23 0 .066-.023.084-.081.078H4.112c-.19 0-.197.03-.156.213.058.272.365.456.632.456 3.458-.006 6.912-.006 10.37 0 .313 0 .615.083.835.337.174.195.278.415.278.693-.006 2.599-.006 5.198 0 7.797 0 .361-.162.622-.423.829a.938.938 0 01-.608.207c-1.837-.006-3.662-.006-5.493-.006zm-.07-7.998c-.162-.012-.405.035-.648.112-.452.148-.823.409-1.05.853-.161.325-.202.669-.08 1.012.162.456.492.77.904.983.336.171.69.296 1.037.438.26.107.521.201.753.367.156.118.307.243.382.42a.787.787 0 01.07.361c-.035.32-.255.527-.516.664-.347.183-.712.266-1.118.195-.313-.06-.614-.148-.88-.32a7.528 7.528 0 01-.354-.242c-.04-.03-.081-.042-.122.005-.104.13-.214.26-.324.385-.052.065-.058.124.017.172.232.148.452.308.695.432a2.545 2.545 0 001.802.231c.54-.124.991-.397 1.298-.888.214-.343.278-.705.157-1.095a1.756 1.756 0 00-.672-.888 3.672 3.672 0 00-.962-.48c-.348-.124-.713-.23-1.026-.438-.185-.118-.365-.255-.446-.468-.145-.36-.017-.663.33-.882.377-.237.794-.266 1.223-.183.301.059.597.165.863.325.064.042.116.024.15-.041.088-.142.169-.284.25-.426.035-.06.029-.107-.03-.137a1.732 1.732 0 00-.179-.094 3.214 3.214 0 00-1.523-.373z" fill="#F34336"/></svg>