<svg width="38" height="24" viewBox="0 0 38 24" role="img" aria-labelledby="pi-shop_cash" fill="none" xmlns="http://www.w3.org/2000/svg"><title id="pi-shop_cash">Shop Cash</title><g clip-path="url(#clip0_392_83672)"><path d="M35 0H3C1.3 0 0 1.3 0 3v18c0 1.7 1.4 3 3 3h32c1.7 0 3-1.3 3-3V3c0-1.7-1.4-3-3-3z" fill="#DEDEDE"/><path d="M35 1c1.1 0 2 .9 2 2v18c0 1.1-.9 2-2 2H3c-1.1 0-2-.9-2-2V3c0-1.1.9-2 2-2h32z" fill="#5433EB"/><path d="M17.336 4.667c-1.725 0-3.341.528-4.501 1.29a.18.18 0 00-.058.239l1.4 2.387a.18.18 0 00.246.064c.88-.531 1.89-.807 2.919-.801 2.773 0 4.811 1.954 4.811 4.535 0 2.2-1.631 3.828-3.7 3.828-1.685 0-2.854-.98-2.854-2.363 0-.792.337-1.44 1.215-1.899a.176.176 0 00.07-.248l-1.322-2.233a.178.178 0 00-.215-.076c-1.771.655-3.013 2.233-3.013 4.35 0 3.203 2.554 5.594 6.117 5.594 4.16 0 7.152-2.88 7.152-7.008 0-4.425-3.48-7.659-8.267-7.659z" fill="#fff"/></g><defs><clipPath id="clip0_392_83672"><path fill="#fff" d="M0 0h38v24H0z"/></clipPath></defs></svg>