<svg xmlns="http://www.w3.org/2000/svg" width="38" height="24" fill="none" aria-labelledby="pi-shopify_pay" role="img" viewBox="0 0 38 24"><title id="pi-shopify_pay">Shop Pay</title><path fill="#5A31F4" d="M0 0h38v24H0z"/><g fill="#fff" clip-path="url(#pi-shopify_pay-clip0_4071_512)"><path d="M9.859 11.398c-.965-.212-1.395-.295-1.395-.672q0-.53.873-.53c.511 0 .885.226 1.16.67.021.034.064.046.099.028l1.085-.556a.08.08 0 0 0 .031-.108c-.45-.792-1.282-1.225-2.378-1.225-1.44 0-2.334.719-2.334 1.862 0 1.215 1.09 1.522 2.055 1.734s1.397.295 1.397.671-.314.555-.941.555c-.58 0-1.009-.269-1.269-.79a.075.075 0 0 0-.102-.035l-1.083.544a.08.08 0 0 0-.034.106c.43.876 1.311 1.368 2.489 1.368 1.5 0 2.405-.707 2.405-1.886s-1.094-1.521-2.059-1.733zM15.674 9.005c-.615 0-1.16.221-1.55.615a.038.038 0 0 1-.065-.028V7.078A.077.077 0 0 0 13.983 7h-1.358a.077.077 0 0 0-.077.078v7.804c0 .043.034.078.077.078h1.358a.077.077 0 0 0 .076-.078v-3.423c0-.662.5-1.169 1.174-1.169s1.162.497 1.162 1.169v3.423c0 .043.033.078.076.078h1.358a.077.077 0 0 0 .077-.078v-3.423c0-1.439-.93-2.454-2.232-2.454M20.66 8.78a3.54 3.54 0 0 0-1.924.56.08.08 0 0 0-.024.105l.598 1.036c.022.037.07.05.105.028a2.36 2.36 0 0 1 1.248-.348c1.185 0 2.056.848 2.056 1.97 0 .954-.697 1.662-1.58 1.662-.721 0-1.221-.426-1.221-1.026 0-.344.144-.626.52-.825a.077.077 0 0 0 .029-.108l-.565-.97a.076.076 0 0 0-.092-.032c-.757.284-1.288.97-1.288 1.888 0 1.391 1.092 2.43 2.615 2.43 1.778 0 3.057-1.25 3.057-3.043 0-1.922-1.488-3.326-3.534-3.326M28.166 8.993c-.687 0-1.3.258-1.748.711-.025.025-.065.007-.065-.027V9.13a.077.077 0 0 0-.077-.078h-1.323a.076.076 0 0 0-.076.078v7.793c0 .043.033.077.076.077h1.358a.076.076 0 0 0 .077-.077v-2.556c0-.034.04-.051.065-.029a2.46 2.46 0 0 0 1.713.668c1.593 0 2.835-1.308 2.835-3.007s-1.243-3.007-2.835-3.007m-.257 4.694c-.906 0-1.593-.73-1.593-1.697s.686-1.698 1.593-1.698c.908 0 1.592.719 1.592 1.697 0 .98-.675 1.698-1.593 1.698z"/></g><defs><clipPath id="pi-shopify_pay-clip0_4071_512"><path fill="#fff" d="M7 7h24v10H7z"/></clipPath></defs></svg>