<svg xmlns="http://www.w3.org/2000/svg" width="38" height="24" fill="none" aria-labelledby="pi-shopeepay" role="img" viewBox="0 0 38 24"><title id="pi-shopeepay">ShopeePay</title><path fill="#EE4D2D" d="M0 0h38v24H0z"/><mask id="pi-shopeepay-a" width="22" height="22" x="8" y="1" maskUnits="userSpaceOnUse" style="mask-type:luminance"><path fill="#fff" d="M8 1h22v22H8z"/></mask><g fill="#fff" mask="url(#pi-shopeepay-a)"><path fill-rule="evenodd" d="M14.06 17.61h1.24c.28 0 .56-.1.77-.29a1.02 1.02 0 0 0 .23-1.14 1.1 1.1 0 0 0-1-.65h-1.24zm-.67 2.4v-4.95c0-.05.02-.1.06-.13a.2.2 0 0 1 .13-.05h1.72c.46.01.89.2 1.2.52a1.68 1.68 0 0 1 0 2.36c-.32.32-.74.5-1.2.53h-1.24V20c0 .05-.02.1-.06.13a.2.2 0 0 1-.13.05h-.29a.2.2 0 0 1-.13-.05.18.18 0 0 1-.06-.13Zm7.85 1.53 1.27-2.16-1.52-2.44a.11.11 0 0 1 0-.11.1.1 0 0 1 .1-.06h.6l1.22 1.96 1.18-1.96h.57a.1.1 0 0 1 .09.17l-2.86 4.76h-.57a.11.11 0 0 1-.08-.16m-2.6-4.15a1.05 1.05 0 0 0-.98.6 1 1 0 0 0-.08.4c.01.26.13.5.33.7a1.07 1.07 0 0 0 1.46 0c.2-.2.31-.44.32-.7a1 1 0 0 0-.32-.72c-.2-.19-.47-.29-.75-.28h.01Zm1.2 2.43v-.29l-.1.08c-.31.25-.7.39-1.1.39a1.67 1.67 0 0 1-1.52-1 1.59 1.59 0 0 1 .36-1.75c.3-.3.72-.47 1.16-.47.4 0 .79.14 1.1.39l.1.07v-.29a.18.18 0 0 1 .05-.12.2.2 0 0 1 .13-.06h.39V20H20a.18.18 0 0 1-.19-.16Z" clip-rule="evenodd"/><path d="M21.01 11.08a1.54 1.54 0 0 1-.94 1.24c-.31.14-.66.2-1 .18a3.2 3.2 0 0 1-1.37-.36c-.19-.1-.37-.23-.54-.38-.04-.03-.06-.06-.02-.11l.22-.33c.03-.05.08-.05.13 0 .05.06.06.05.08.05.43.35.95.56 1.5.59.74 0 1.27-.34 1.35-.86.08-.51-.34-1.05-1.2-1.32q-.555-.195-1.08-.45a1.43 1.43 0 0 1-.84-1.37c.07-.4.28-.76.6-1.01A1.6 1.6 0 0 1 19 6.6a3.1 3.1 0 0 1 1.73.54l.02.03a.1.1 0 0 1-.02.08l-.18.3c-.04.06-.07.06-.13 0-.41-.28-.9-.44-1.4-.45-.27-.02-.53.06-.74.23s-.35.41-.4.68c0 .45.35.8 1.1 1.06 1.54.5 2.13 1.09 2.02 2.01m2.7-5.76h-8.68a.47.47 0 0 1-.44-.3.5.5 0 0 1-.04-.2.22.22 0 0 1 .14-.2.2.2 0 0 1 .08-.01h7.77a.2.2 0 0 0 .2-.14.2.2 0 0 0 .01-.08v-.8a.49.49 0 0 0-.32-.45.5.5 0 0 0-.2-.03l-7.87.7a1.11 1.11 0 0 0-1 1.1v7.68c.01.29.13.56.33.77.2.2.48.32.77.32h9.25a1.1 1.1 0 0 0 1.09-1.09V6.42a1.1 1.1 0 0 0-.67-1.02 1.1 1.1 0 0 0-.42-.08"/></g></svg>