<svg xmlns="http://www.w3.org/2000/svg" width="38" height="24" fill="none" aria-labelledby="pi-siauliubankas" role="img" viewBox="0 0 38 24"><title id="pi-siauliubankas">Šiaulių bankas</title><path fill="#fff" d="M0 0h38v24H0z"/><path fill="#002D64" d="m18.04 16.14.02-.39c0-.18.02-1.07-.75-1.6-.55-.39-1.32-.67-2-1.05a3.2 3.2 0 0 1-.6-.43v4.4s-.02.28.06.5c.14.39.53.84 1.42.6l.36-.13c.67-.3 1.36-.8 1.49-1.9m1.46.4v-4.96s1.18-.6 1.47-.7c.97-.38 2.25.02 2.32 1.64.02.54-.1 1.04-.2 1.29-.2.5-.55.99-1.2 1.42-.79.53-2.4 1.3-2.4 1.3Zm-1.44-3.87v-4.5s.02-.36-.09-.53c-.1-.16-.32-.33-.77-.28-.89.1-1.84 1.1-2.02 1.43-.39.7-.53 1.81.54 2.62a15.5 15.5 0 0 0 2.34 1.26m2.34-6.85c-.74.16-.9.57-.9 1.2v3.04s1.7-.76 2.02-.97c1.86-1.17.84-3.71-1.11-3.27Z"/></svg>