<svg xmlns="http://www.w3.org/2000/svg" width="38" height="24" fill="none" aria-labelledby="pi-siirto" role="img" viewBox="0 0 38 24"><title id="pi-siirto">Siirto</title><path fill="#F3A900" d="M0 0h38v24H0z"/><path fill="#fff" fill-rule="evenodd" d="M30.9 12a3 3 0 0 0-5.37.15 2.94 2.94 0 0 0 1.91 4.04 3 3 0 0 0 3.16-1 3 3 0 0 0 .3-3.19m-1.47 2.1a1.47 1.47 0 0 1-1.41.61 1.45 1.45 0 0 1-1.14-1 1.34 1.34 0 0 1 .35-1.36 1.46 1.46 0 0 1 1.55-.35c.3.13.56.35.73.64a1.44 1.44 0 0 1-.08 1.46" clip-rule="evenodd"/><path fill="#F5333F" fill-rule="evenodd" d="M34.25 14a1.5 1.5 0 0 1-1 2.27 1.46 1.46 0 0 1-1.25-2.5 1.46 1.46 0 0 1 2.27.24z" clip-rule="evenodd"/><path fill="#fff" fill-rule="evenodd" d="M23 8.72h-.22l-2.39 2.63v.35h.81v2.42a2.08 2.08 0 0 0 .58 1.58c.46.38 1.05.57 1.64.53a4.3 4.3 0 0 0 1.58-.35V14.6c-.37.2-.78.32-1.2.33a.84.84 0 0 1-.65-.25A.93.93 0 0 1 23 14v-2.3h2v-1.21h-2z" clip-rule="evenodd"/><path fill="#fff" d="M9.53 10a6.55 6.55 0 0 0-2.64-.74c-.75 0-1.22.27-1.22.68 0 1.25 4.24.9 4.24 3.78 0 1.59-1.34 2.51-3.2 2.51a5.7 5.7 0 0 1-3-.8v-1.77a4.88 4.88 0 0 0 2.86 1.07c.79 0 1.22-.28 1.22-.77 0-1.35-4.25-.86-4.25-3.83 0-1.43 1.25-2.37 3.19-2.37.97 0 1.94.23 2.82.64zm2.73-1.27a1 1 0 1 1-2 0 1 1 0 0 1 2 0m-.09 7.4H10.4v-5.58h1.77zm2.65-7.4a1 1 0 1 1-2 0 1 1 0 0 1 2 0m-.09 7.4H13v-5.58h1.77zm2.57-3.98c.52-1.17 1.11-1.71 1.79-1.71.46.04.89.23 1.21.56l-.49 1.55a2.1 2.1 0 0 0-1-.42c-.65 0-1.07.61-1.46 1.64v2.41h-1.82v-5.63h1.77z"/></svg>