<svg xmlns="http://www.w3.org/2000/svg" role="img" viewBox="0 0 38 24" width="38" height="24" aria-labelledby="pi-sika_hsa"><title id="pi-sika_hsa">Sika HSA</title><path opacity=".07" d="M35 0H3C1.3 0 0 1.3 0 3v18c0 1.7 1.4 3 3 3h32c1.7 0 3-1.3 3-3V3c0-1.7-1.4-3-3-3z" fill="#000"/><path d="M35 1c1.1 0 2 .9 2 2v18c0 1.1-.9 2-2 2H3c-1.1 0-2-.9-2-2V3c0-1.1.9-2 2-2h32z" fill="#fff"/><path d="M7.945 7.25H6.5v9.008h1.445V7.25zm5.499 0h-1.445v9.008h1.445V7.25z" fill="#5AA52A"/><path d="M7.59 10.55v1.399h3.01A1.4 1.4 0 0012 10.55H7.59zm12.441.506h-2.656c-.706 0-1.276-.54-1.277-1.205.001-.665.571-1.204 1.277-1.206h4.67V7.25h-4.67c-1.52.002-2.752 1.164-2.754 2.6 0 1.436 1.234 2.6 2.754 2.602h2.656c.704.001 1.276.54 1.277 1.205-.001.665-.571 1.204-1.277 1.206h-4.67v1.395h4.67c1.52-.002 2.752-1.166 2.754-2.6 0-1.436-1.234-2.6-2.756-2.602h.002zM31.042 7.28h-3.243c-2.268.003-4.103 1.739-4.105 3.878l.005 5.075h1.447l-.002-2.364h5.164v2.362h1.446V7.962c0-.372-.317-.674-.709-.68l-.003-.002zm-.734 5.226H25.14v-1.347c0-1.384 1.186-2.507 2.653-2.512l2.514-.011v3.87z" fill="#5AA52A"/></svg>