<svg xmlns="http://www.w3.org/2000/svg" role="img" viewBox="0 0 38 24" width="38" height="24" aria-labelledby="pi-sikafsa"><title id="pi-sikafsa">Sikafsa</title><path opacity=".07" d="M35 0H3C1.3 0 0 1.3 0 3v18c0 1.7 1.4 3 3 3h32c1.7 0 3-1.3 3-3V3c0-1.7-1.4-3-3-3z" fill="#000"/><path d="M35 1c1.1 0 2 .9 2 2v18c0 1.1-.9 2-2 2H3c-1.1 0-2-.9-2-2V3c0-1.1.9-2 2-2h32z" fill="#fff"/><path d="M7.475 7.25H6v9h1.475v-9zm.678 0v1.397h3.984c.771 0 1.397-.626 1.397-1.397H8.153zm0 3.297v1.397h3.013c.772 0 1.397-.625 1.397-1.397h-4.41zm11.903.506h-2.711c-.72 0-1.302-.539-1.304-1.204.002-.664.583-1.203 1.304-1.205h4.767V7.25h-4.767c-1.552.002-2.81 1.163-2.811 2.599 0 1.433 1.259 2.596 2.81 2.598h2.712c.718.002 1.302.54 1.304 1.205-.002.663-.584 1.202-1.304 1.204h-4.768v1.394h4.768c1.552-.002 2.809-1.165 2.81-2.598 0-1.434-1.258-2.597-2.812-2.6h.002zm11.31-3.773h-3.31c-2.314.003-4.188 1.737-4.19 3.874l.006 5.07h1.476l-.002-2.36h5.271v2.36h1.476V7.96c0-.371-.323-.673-.723-.68l-.004-.001zm-.749 5.22h-5.274v-1.344c0-1.383 1.211-2.506 2.708-2.51l2.566-.011V12.5z" fill="#5AA52A"/></svg>