<svg xmlns="http://www.w3.org/2000/svg" role="img" viewBox="0 0 38 24" width="38" height="24" aria-labelledby="pi-simpl">
    <title id="pi-simpl">Simpl</title>
    <g clip-path="url(#pi-clip0_3721_39148)">
        <path opacity="0.07" d="M3 0H35C36.66 0 38 1.34 38 3V21C38 22.66 36.66 24 35 24H3C1.34 24 0 22.66 0 21V3C0 1.34 1.34 0 3 0Z" fill="black" />
        <path d="M1 3C1 1.9 1.9 1 3 1H35C36.1 1 37 1.9 37 3V21C37 22.1 36.1 23 35 23H3C1.9 23 1 22.1 1 21V3Z" fill="white" />
        <path fill-rule="evenodd" clip-rule="evenodd" d="M10.3851 10.1196C10.1767 9.79052 10.1854 9.3518 10.4605 9.0762L10.7636 8.77272C10.8851 8.65108 10.8851 8.45403 10.7636 8.33236C8.98978 6.55592 6.10356 6.55584 4.32974 8.33236C2.79732 9.86711 2.58974 12.2326 3.70521 13.9935C3.91359 14.3224 3.90493 14.761 3.62979 15.0366L3.32667 15.3401C3.20522 15.4619 3.20524 15.6588 3.32672 15.7804C5.10053 17.5569 7.98669 17.557 9.76048 15.7804C11.2929 14.2458 11.5006 11.8804 10.3851 10.1196ZM4.77074 8.77283C6.17543 7.36606 8.38838 7.24981 9.92666 8.4239C10.0203 8.4954 10.0256 8.63251 9.94228 8.71591L9.64958 9.00911C9.57595 9.08278 9.45879 9.08789 9.37456 9.02665C8.15355 8.13852 6.43514 8.24559 5.33411 9.34818C4.23301 10.451 4.12616 12.1723 5.01341 13.3951C5.07442 13.4792 5.06932 13.5961 4.99592 13.6696L4.71436 13.9516C4.63093 14.0351 4.49348 14.03 4.42198 13.9359C3.25 12.3954 3.36628 10.1794 4.77074 8.77283ZM4.16562 15.6894C5.70393 16.8634 7.91688 16.7472 9.32156 15.3405C10.7261 13.9338 10.8422 11.718 9.67021 10.1774C9.59875 10.0834 9.4613 10.0782 9.37786 10.1617L9.09634 10.4437C9.02294 10.5171 9.01793 10.6341 9.0789 10.7181C9.96621 11.9411 9.8593 13.6624 8.75821 14.7652C7.65718 15.8677 5.93877 15.9749 4.7177 15.0867C4.6335 15.0254 4.51635 15.0305 4.44277 15.1042L4.15 15.3974C4.06674 15.4808 4.07194 15.6179 4.16562 15.6894Z" fill="#15B79E" />
        <path d="M34.9333 8.65845V14.807H33.7925V8.65845H34.9333Z" fill="#15B79E" />
        <path d="M30.6557 10.2847C31.276 10.2847 31.7938 10.5085 32.2091 10.9562C32.619 11.3984 32.8239 11.9459 32.8239 12.5985C32.8239 13.2458 32.6164 13.7932 32.201 14.2408C31.7857 14.6885 31.2679 14.9123 30.6477 14.9123C30.103 14.9123 29.6418 14.7074 29.2642 14.2974V16.6194H28.1235V10.398H29.2561V10.94C29.6337 10.5032 30.1002 10.2847 30.6557 10.2847ZM30.4536 13.8686C30.8149 13.8686 31.1088 13.7474 31.3354 13.5046C31.5619 13.262 31.6751 12.9625 31.6751 12.6066C31.6751 12.2506 31.5619 11.9513 31.3354 11.7086C31.1088 11.4659 30.8149 11.3445 30.4536 11.3445C30.0975 11.3445 29.8063 11.4659 29.5798 11.7086C29.3532 11.9513 29.2399 12.2506 29.2399 12.6066C29.2399 12.9625 29.3532 13.262 29.5798 13.5046C29.8063 13.7474 30.0975 13.8686 30.4536 13.8686Z" fill="#15B79E" />
        <path d="M25.1867 10.2764C25.7153 10.2764 26.1441 10.441 26.473 10.7699C26.8129 11.099 26.9827 11.5574 26.9827 12.1453V14.807H25.8421V12.3557C25.8421 12.0266 25.7611 11.7732 25.5993 11.5951C25.4429 11.4172 25.2299 11.3282 24.9602 11.3282C24.6689 11.3282 24.4343 11.4253 24.2563 11.6194C24.0784 11.8083 23.9894 12.0644 23.9894 12.3881V14.807H22.8487V12.3638C22.8487 12.0401 22.7678 11.7866 22.6059 11.6032C22.4496 11.4198 22.2338 11.3282 21.9588 11.3282C21.6783 11.3282 21.4463 11.4253 21.2629 11.6194C21.0849 11.8136 20.996 12.0725 20.996 12.3961V14.807H19.8552V10.3978H20.9717V11.0289C21.0957 10.7969 21.2791 10.6136 21.5218 10.4787C21.7646 10.3385 22.0289 10.2711 22.3147 10.2764C22.5951 10.2764 22.8513 10.3439 23.0833 10.4787C23.3206 10.6136 23.4959 10.805 23.6091 11.0532C23.7709 10.8104 23.9921 10.6217 24.2725 10.4868C24.553 10.3466 24.8578 10.2764 25.1867 10.2764Z" fill="#15B79E" />
        <path d="M18.8159 9.20053C18.8159 9.40009 18.7484 9.5673 18.6136 9.70214C18.4788 9.83697 18.3116 9.90433 18.112 9.90433C17.9124 9.90433 17.7452 9.83697 17.6104 9.70214C17.4756 9.5673 17.4082 9.40009 17.4082 9.20053C17.4082 9.00097 17.4756 8.83647 17.6104 8.70702C17.7452 8.57218 17.9124 8.50476 18.112 8.50476C18.3116 8.50476 18.4788 8.57218 18.6136 8.70702C18.7484 8.83647 18.8159 9.00097 18.8159 9.20053ZM18.6784 10.3978V14.807H17.5376V10.3978H18.6784Z" fill="#15B79E" />
        <path d="M14.3781 14.9042C13.9088 14.9042 13.4747 14.8071 13.0756 14.613C12.6764 14.4187 12.3556 14.1437 12.1128 13.7878L12.8005 12.9545C13.1997 13.51 13.7282 13.7878 14.3862 13.7878C14.6343 13.7878 14.8392 13.7284 15.0011 13.6097C15.1628 13.4911 15.2437 13.3373 15.2437 13.1486C15.2437 12.9005 15.0631 12.6929 14.7016 12.5257C14.6586 12.504 14.4617 12.4259 14.1111 12.291C13.836 12.1832 13.6014 12.0753 13.4072 11.9674C12.7762 11.606 12.4606 11.1099 12.4606 10.4788C12.4606 9.9772 12.6495 9.56187 13.027 9.23292C13.41 8.89853 13.9007 8.73132 14.4995 8.73132C15.2761 8.73132 15.9315 9.001 16.4654 9.54033L15.8263 10.4141C15.6644 10.2415 15.4622 10.1067 15.2194 10.0096C14.9821 9.9071 14.7476 9.85593 14.5156 9.85593C14.2783 9.85593 14.0896 9.90984 13.9493 10.0177C13.8145 10.1201 13.7471 10.2577 13.7471 10.4303C13.7471 10.6622 13.9088 10.859 14.2325 11.0209L14.823 11.2797C15.1574 11.42 15.4002 11.5251 15.5512 11.5953C16.2308 11.9243 16.5705 12.4205 16.5705 13.0838C16.5705 13.6178 16.3683 14.0547 15.9638 14.3945C15.5593 14.7343 15.0307 14.9042 14.3781 14.9042Z" fill="#15B79E" />
    </g>
    <defs>
        <clipPath id="pi-clip0_3721_39148">
            <rect width="38" height="24" fill="white"></rect>
        </clipPath>
    </defs>
</svg>