<svg width="73" height="24" viewBox="0 0 73 24" fill="none" xmlns="http://www.w3.org/2000/svg">
<path fill-rule="evenodd" clip-rule="evenodd" d="M18.6054 8.16946C18.1933 7.51878 18.2104 6.65111 18.7546 6.10607L19.3539 5.50589C19.5942 5.26531 19.5942 4.87563 19.354 4.635C15.846 1.12174 10.1379 1.12159 6.62982 4.635C3.59918 7.67014 3.18862 12.3485 5.39469 15.8309C5.8068 16.4815 5.78967 17.349 5.24553 17.8939L4.64607 18.4943C4.40586 18.7348 4.4059 19.1245 4.64614 19.365C8.1542 22.8783 13.8621 22.8784 17.3702 19.365C20.4008 16.3301 20.8114 11.6519 18.6054 8.16946ZM7.50152 5.50608C10.2795 2.72394 14.6561 2.49401 17.6984 4.81601C17.8836 4.95741 17.8939 5.22858 17.7293 5.39349L17.1502 5.97337C17.0048 6.11907 16.773 6.12917 16.6065 6.00806C14.1917 4.25163 10.7932 4.46337 8.61568 6.64394C6.43804 8.82495 6.22672 12.2291 7.98144 14.6476C8.10209 14.8139 8.09202 15.045 7.94685 15.1904L7.39001 15.7481C7.22501 15.9133 6.95317 15.903 6.81179 15.7172C4.49397 12.6704 4.72393 8.28794 7.50152 5.50608ZM6.30492 19.1849C9.34723 21.5069 13.7238 21.2769 16.5018 18.4948C19.2795 15.7129 19.5092 11.3306 17.1914 8.28387C17.05 8.09802 16.7781 8.0877 16.6131 8.25294L16.0564 8.81047C15.9113 8.95585 15.9012 9.18695 16.0219 9.35324C17.7766 11.7719 17.5653 15.1761 15.3876 17.3571C13.2101 19.5377 9.81165 19.7494 7.39677 17.9928C7.23026 17.8717 6.99854 17.8818 6.85305 18.0275L6.27405 18.6074C6.10938 18.7723 6.11966 19.0435 6.30492 19.1849Z" fill="#15B79E"/>
<path d="M71.131 5.28003V17.44H68.875V5.28003H71.131Z" fill="#15B79E"/>
<path d="M62.6726 8.49603C63.8992 8.49603 64.9232 8.9387 65.7446 9.82403C66.5552 10.6987 66.9606 11.7814 66.9606 13.072C66.9606 14.352 66.5499 15.4347 65.7286 16.32C64.9072 17.2054 63.8832 17.648 62.6565 17.648C61.5792 17.648 60.6672 17.2427 59.9205 16.432V21.024H57.6646V8.72003H59.9046V9.79203C60.6512 8.92803 61.5739 8.49603 62.6726 8.49603ZM62.2726 15.584C62.9872 15.584 63.5686 15.344 64.0166 14.864C64.4646 14.384 64.6886 13.792 64.6886 13.088C64.6886 12.384 64.4646 11.792 64.0166 11.312C63.5686 10.832 62.9872 10.592 62.2726 10.592C61.5686 10.592 60.9925 10.832 60.5445 11.312C60.0965 11.792 59.8725 12.384 59.8725 13.088C59.8725 13.792 60.0965 14.384 60.5445 14.864C60.9925 15.344 61.5686 15.584 62.2726 15.584Z" fill="#15B79E"/>
<path d="M51.857 8.48002C52.9023 8.48002 53.7503 8.80536 54.401 9.45602C55.073 10.1067 55.409 11.0134 55.409 12.176V17.44H53.153V12.592C53.153 11.9414 52.993 11.44 52.673 11.088C52.3637 10.736 51.9423 10.56 51.409 10.56C50.833 10.56 50.369 10.752 50.017 11.136C49.665 11.5094 49.489 12.016 49.489 12.656V17.44H47.233V12.608C47.233 11.968 47.073 11.4667 46.753 11.104C46.4437 10.7414 46.017 10.56 45.473 10.56C44.9183 10.56 44.4597 10.752 44.097 11.136C43.745 11.52 43.569 12.032 43.569 12.672V17.44H41.313V8.72002H43.521V9.96802C43.7663 9.50936 44.129 9.14669 44.609 8.88002C45.089 8.60269 45.6117 8.46936 46.177 8.48002C46.7317 8.48002 47.2383 8.61336 47.697 8.88002C48.1663 9.14669 48.513 9.52536 48.737 10.016C49.057 9.53602 49.4943 9.16269 50.049 8.89602C50.6037 8.61869 51.2063 8.48002 51.857 8.48002Z" fill="#15B79E"/>
<path d="M39.2562 6.35201C39.2562 6.74668 39.1228 7.07735 38.8562 7.34401C38.5895 7.61068 38.2588 7.74401 37.8642 7.74401C37.4695 7.74401 37.1388 7.61068 36.8722 7.34401C36.6055 7.07735 36.4722 6.74668 36.4722 6.35201C36.4722 5.95735 36.6055 5.63201 36.8722 5.37601C37.1388 5.10935 37.4695 4.97601 37.8642 4.97601C38.2588 4.97601 38.5895 5.10935 38.8562 5.37601C39.1228 5.63201 39.2562 5.95735 39.2562 6.35201ZM38.9842 8.72001V17.44H36.7282V8.72001H38.9842Z" fill="#15B79E"/>
<path d="M30.48 17.632C29.552 17.632 28.6933 17.44 27.904 17.056C27.1147 16.672 26.48 16.128 26 15.424L27.36 13.776C28.1493 14.8747 29.1947 15.424 30.496 15.424C30.9867 15.424 31.392 15.3067 31.712 15.072C32.032 14.8373 32.192 14.5333 32.192 14.16C32.192 13.6693 31.8347 13.2587 31.12 12.928C31.0347 12.8853 30.6453 12.7307 29.952 12.464C29.408 12.2507 28.944 12.0373 28.56 11.824C27.312 11.1093 26.688 10.128 26.688 8.88001C26.688 7.88801 27.0613 7.06668 27.808 6.41601C28.5653 5.75468 29.536 5.42401 30.72 5.42401C32.256 5.42401 33.552 5.95734 34.608 7.02401L33.344 8.75201C33.024 8.41068 32.624 8.14401 32.144 7.95201C31.6747 7.74934 31.2107 7.64801 30.752 7.64801C30.2827 7.64801 29.9093 7.75468 29.632 7.96801C29.3653 8.17068 29.232 8.44268 29.232 8.78401C29.232 9.24268 29.552 9.63201 30.192 9.95201L31.36 10.464C32.0213 10.7413 32.5013 10.9493 32.8 11.088C34.144 11.7387 34.816 12.72 34.816 14.032C34.816 15.088 34.416 15.952 33.616 16.624C32.816 17.296 31.7707 17.632 30.48 17.632Z" fill="#15B79E"/>
</svg>
