<svg width="36" height="24" viewBox="0 0 36 24" fill="none" xmlns="http://www.w3.org/2000/svg"><rect x="1" y="1" width="34" height="22" rx="2" fill="#1A1A1A" stroke="#1A1A1A" stroke-opacity=".07"/><path d="M4.747 13.826c.88 0 1.381-.416 1.381-1.141 0-.459-.219-.81-.71-1.126l-.362-.234c-.261-.166-.363-.31-.363-.49 0-.262.203-.4.608-.4.155 0 .342.02.555.047v-.619a3.98 3.98 0 00-.576-.048c-.805 0-1.28.39-1.28 1.04 0 .406.197.736.603 1.003l.416.267c.309.202.41.362.41.57 0 .32-.224.47-.698.47-.155 0-.358-.01-.678-.043v.656c.315.037.523.048.694.048zM6.637 13.778H7.3v-2.821h-.662v2.821zm0-3.29H7.3V9.66h-.662v.826zM7.923 12.098v1.68h.661v-1.696c0-.357.166-.57.464-.57.299 0 .48.213.48.591v1.675h.662v-1.675c0-.378.176-.592.48-.592.293 0 .463.214.463.571v1.696h.662v-1.68c0-.757-.41-1.205-1.083-1.205-.405 0-.698.16-.858.41-.16-.25-.454-.41-.854-.41-.672 0-1.077.448-1.077 1.205zM12.418 14.84h.662v-.678c0-.219-.006-.448-.016-.661.202.213.522.33.858.33.763 0 1.403-.602 1.403-1.46 0-.87-.64-1.468-1.403-1.468-.368 0-.714.144-.912.395l-.005-.341h-.587v3.882zm.614-2.47c0-.544.352-.859.805-.859.475 0 .821.347.821.86 0 .506-.346.852-.82.852-.454 0-.806-.314-.806-.853zM15.84 13.778h.662V9.661h-.662v4.117zM18.486 13.842a1.55 1.55 0 001.312-.693l-.437-.347c-.208.304-.507.47-.859.47-.48 0-.816-.31-.87-.758h2.171c.064-1.11-.608-1.616-1.354-1.616-.816 0-1.435.613-1.435 1.477 0 .848.592 1.467 1.472 1.467zm-.832-1.803a.795.795 0 01.79-.597c.373 0 .655.203.735.597h-1.525z" fill="#fff"/><rect x="20.808" y="8" width="11.111" height="8" rx="2.5" fill="#D0F451"/><path d="M22.128 13.778h.694v-1.504h.485c.827 0 1.344-.469 1.344-1.194 0-.758-.517-1.216-1.344-1.216h-1.179v3.914zm.694-2.138v-1.126h.485c.405 0 .64.214.64.566s-.235.56-.64.56h-.485zM26.27 13.832c.368 0 .71-.139.912-.395l.006.341h.586v-2.82h-.587l-.005.34c-.202-.255-.544-.394-.912-.394-.768 0-1.402.597-1.402 1.466 0 .86.634 1.462 1.402 1.462zm-.741-1.462c0-.511.352-.858.826-.858.448 0 .806.314.806.858 0 .54-.358.854-.806.854-.474 0-.826-.347-.826-.854zM28.79 14.84h.694l1.499-3.883h-.694l-.688 1.899-.741-1.899h-.736l1.13 2.704-.463 1.179z" fill="#1A1A1A"/></svg>