<svg xmlns="http://www.w3.org/2000/svg" width="38" height="24" fill="none" aria-labelledby="pi-sinpemovil" role="img" viewBox="0 0 38 24"><title id="pi-sinpemovil">Sinpe Móvil</title><path fill="#fff" d="M0 0h38v24H0z"/><path fill="#000" d="M6.82 14.18c-.16 0-.31-.02-.46-.05a1.4 1.4 0 0 1-.41-.16.83.83 0 0 1-.42-.71v-.03h.97v.03c0 .08.04.15.11.21.05.04.13.07.24.07.08 0 .15-.01.21-.05q.09-.045.09-.12a.16.16 0 0 0-.08-.14c-.06-.03-.2-.07-.43-.11a1.74 1.74 0 0 1-.8-.29.64.64 0 0 1-.25-.54c0-.16.04-.3.11-.41s.17-.2.29-.26.25-.11.39-.13c.3-.06.6-.05.86 0 .14.02.27.07.39.13s.22.15.3.26c.07.11.12.25.12.4v.03h-.93v-.03c0-.07-.04-.12-.1-.17a.3.3 0 0 0-.2-.07.4.4 0 0 0-.2.04c-.05.02-.07.06-.07.13 0 .02 0 .04.02.06l.07.05c.04.02.16.04.33.08q.345.06.51.12c.19.06.34.15.45.26.11.12.17.28.17.48 0 .17-.04.32-.11.44a.9.9 0 0 1-.3.29 1.3 1.3 0 0 1-.42.15c-.15.03-.31.04-.48.04m2.59-2.88H8.36v-.74h1.02zm0 2.82H8.36v-2.6h1.02zm3.06 0h-1.02v-1.36a.8.8 0 0 0-.06-.36c-.03-.07-.11-.11-.23-.11-.04 0-.08 0-.13.02a.26.26 0 0 0-.11.07c-.04.03-.06.08-.09.14a.8.8 0 0 0-.03.24v1.37H9.75v-2.6h.98v.28a1 1 0 0 1 .81-.35c.25 0 .46.08.63.23s.26.38.26.66v1.77zm2.16-1.06c-.01.08-.04.14-.07.21a.4.4 0 0 1-.36.21.4.4 0 0 1-.22-.06.36.36 0 0 1-.14-.16 1 1 0 0 1-.09-.44c0-.09 0-.17.02-.24a.7.7 0 0 1 .07-.21.4.4 0 0 1 .36-.21.38.38 0 0 1 .36.22 1 1 0 0 1 .09.45c0 .09 0 .16-.02.24m.92-.72a1.4 1.4 0 0 0-.2-.44 1.1 1.1 0 0 0-.35-.32.94.94 0 0 0-.47-.12 1 1 0 0 0-.51.11l-.14.1a1 1 0 0 1-.08.09v-.24h-.98v3.42h1.02v-1.06a.7.7 0 0 0 .27.21 1.1 1.1 0 0 0 .94-.03 1.07 1.07 0 0 0 .53-.75c.03-.16.05-.32.05-.48s-.02-.33-.07-.49m2.09.21h-.98v-.03c.05-.3.23-.45.53-.45a.4.4 0 0 1 .32.13c.08.09.13.2.13.32zm.93.48c0-.51-.12-.91-.36-1.17-.24-.27-.61-.41-1.11-.41a1.42 1.42 0 0 0-.98.4 1.44 1.44 0 0 0-.27 1.54 1.2 1.2 0 0 0 .76.69 1.8 1.8 0 0 0 1.39-.12c.24-.14.41-.34.51-.61v-.04h-.95a.26.26 0 0 1-.15.14.6.6 0 0 1-.23.05c-.14 0-.25-.04-.33-.13a.52.52 0 0 1-.13-.31h1.85zm5.01 1.3h-.27a.1.1 0 0 1-.1-.1v-1.99c0-.63-.12-1.03-.7-1.03-.5 0-.9.48-1.02.93a1.7 1.7 0 0 0-.06.48v1.61c0 .06-.04.1-.1.1h-.27a.1.1 0 0 1-.1-.1v-1.99c0-.65-.11-1.03-.68-1.03-.52 0-.93.5-1.06.99-.03.12-.05.25-.05.42v1.61c0 .06-.04.1-.1.1h-.27a.1.1 0 0 1-.1-.1v-3.29c0-.06.04-.1.1-.1h.27c.05 0 .1.05.1.1v.43a1.5 1.5 0 0 1 1.11-.61c.57 0 .91.23 1.05.72.21-.34.63-.72 1.17-.72 1.04 0 1.16.79 1.16 1.39v2.09c0 .06-.04.1-.1.1m2.19-.35c-.74 0-1.32-.63-1.32-1.43s.58-1.39 1.32-1.39 1.32.61 1.32 1.39S26.47 14 25.73 14m0-3.24c-.98 0-1.74.79-1.74 1.81s.77 1.85 1.74 1.85 1.74-.81 1.74-1.85-.76-1.81-1.74-1.81m.13-.31h-.28s-.07-.02-.09-.05a.09.09 0 0 1 0-.1l.43-.73s.05-.05.08-.05h.36s.07.02.09.06c.02.03.01.07 0 .11l-.5.73s-.05.04-.08.04M29 14.34h-.25s-.08-.03-.09-.06l-1.25-3.3v-.1a.1.1 0 0 1 .08-.04h.29s.08.03.09.07l.98 2.58.02.07.02-.06.98-2.59s.05-.07.09-.07h.28l.08.04c.02.03.02.06 0 .1l-1.25 3.3s-.05.06-.09.06m1.91-4.14h-.32a.1.1 0 0 1-.1-.1v-.48c0-.06.04-.1.1-.1h.32c.05 0 .1.05.1.1v.48c0 .06-.04.1-.1.1m-.02 4.14h-.27a.1.1 0 0 1-.1-.1v-3.29c0-.06.04-.1.1-.1h.27c.05 0 .1.05.1.1v3.29c0 .06-.04.1-.1.1m1.38.02c-.17 0-.72-.06-.72-.79V9.62c0-.06.04-.1.1-.1h.27c.05 0 .1.05.1.1v3.86c0 .41.19.41.28.41h.08c.03 0 .06 0 .08.02s.03.05.03.08v.26s-.03.09-.08.1z"/><path fill="#215AA8" d="M10.88 10.69a53 53 0 0 1 2.34-4.25c.36-.58.74-1.16 1.12-1.74l.66-.97a59 59 0 0 0-4.91 6.7v.25h.79"/><path fill="#000" d="M25.56 15.14a42 42 0 0 1-1.71 3.79l-.49.98c.52-.81 1.66-2.61 2.8-4.85-.19.05-.39.07-.59.07h-.02z"/><path fill="#215AA8" d="M25.58 15.08h-.05v.02c-.3.73-.58 1.41-.86 2.02l-.85 1.79c-.44.89-.75 1.45-.75 1.46l.04.03s1.57-2.3 3.14-5.36l.03-.06-.06.02c-.2.06-.42.09-.63.09M28.9 2.44h-.01l-.09-.08c-.3-.21-.67-.33-1.11-.35h-.13c-.36 0-.76.06-1.21.18-.32.08-.65.2-1.01.34l-.05.02c-1.54.62-5.39 2.43-10.84 8.13l-.21.22h.09l.35-.29c.49-.41.99-.82 1.49-1.21l.06-.05.54-.43c.8-.64 1.67-1.32 2.56-1.94a15.7 15.7 0 0 1 4.24-2.07c.23-.06.36-.08.45-.09h.05l.05-.02h.02c.17-.04.35-.06.53-.06h.03c.41 0 .81.1 1.18.28.7.35 1.26.99 1.52 1.79l.09.33c.04.2.06.4.07.61v.47a10.6 10.6 0 0 1-.33 2.06c-.19.73.06 0 .09 0h.35c.19.01.37.1.5.25l.03.04c.59-1.56 1-3.02 1.22-4.32.32-1.87.15-3.15-.52-3.8zm-6.58 12.58c-.45.28-.56.35-1.02.61l-.56.33c-1.63.97-3.65 2.19-5.55 2.77-2.04.63-2.54.65-2.79.66h-.1l-.29.01a3 3 0 0 1-2.96-2.76c-.03-.35-.02-.68.05-1.11l.1-.48v-.04H7.61v.04c-.35.79-.63 1.55-.84 2.26-.56 1.89-.53 3.24.11 4l.05.05c.41.41 1.03.62 1.85.62.57 0 1.24-.1 1.99-.3C15.28 20.5 20.22 17 22.8 15h-.48z"/></svg>