<svg xmlns="http://www.w3.org/2000/svg" role="img" viewBox="0 0 38 24" width="38" height="24" aria-labelledby="pi-sistecredito"><title id="pi-sistecredito">SISTECREDITO</title><defs><style>.cls-1,.cls-2{fill:#3ec92b;stroke-width:0}.cls-2{fill:#00369c}</style></defs><path class="cls-2" d="M11.6 11.6v-.9h-.9v-.9H10c0 .3 0 .4-.1.5-.1.2-.4.4-.6.4v.8h.4V13c0 .3 0 .6.3.8.2.2.5.3.9.3h.8v-.8h-.2-.5s-.1-.2 0-.3v-1.3h.9zM1 13.7l.5-.7.6.3H3s.1-.1.1-.2v-.2h-1c-.3-.1-.6-.2-.8-.4-.2-.2-.3-.4-.3-.7 0-.3.1-.6.4-.8.3-.2.7-.3 1.1-.3.2 0 .5 0 .7.1.2 0 .5.2.7.3l-.5.7c-.2 0-.3-.2-.5-.2h-.8s-.1 0-.1.2v.2h1c.3.1.6.2.8.4.2.2.3.4.3.7 0 .2 0 .3-.1.5 0 .1-.2.3-.3.4-.1.1-.3.2-.5.2h-.6c-.3 0-.6 0-.9-.1-.3 0-.5-.2-.7-.3zM5.8 13.7l.5-.7.6.3h.9s.1-.1.1-.2v-.2h-1c-.3-.1-.6-.2-.8-.4-.2-.2-.3-.4-.3-.7 0-.3.1-.6.4-.8.3-.2.7-.3 1.1-.3.2 0 .5 0 .7.1.2 0 .5.2.7.3l-.5.7c-.2 0-.3-.2-.5-.2h-.8s-.1 0-.1.2v.2h1c.3.1.6.2.8.4.2.2.3.4.3.7 0 .2 0 .3-.1.5 0 .1-.2.3-.3.4-.1.1-.3.2-.5.2h-.6c-.3 0-.6 0-.9-.1-.3 0-.5-.2-.7-.3z"/><path class="cls-2" d="M15.1 13.7c-.2.2-.4.3-.7.4-.2 0-.5.1-.8.1-.2 0-.5 0-.7-.1-.2 0-.4-.2-.6-.4-.2-.2-.3-.3-.4-.6 0-.2-.1-.4-.1-.7 0-.2 0-.5.1-.7 0-.2.2-.4.4-.6.2-.2.3-.3.6-.4.2 0 .5-.1.7-.1.5 0 .9.2 1.2.5.2.2.3.4.4.6 0 .2.1.5.1.7v.3h-2.4c0 .2.2.3.3.4.2.1.3.2.5.1h.4c.1 0 .2-.1.3-.2l.7.6zm-1.5-2.2c-.2 0-.3 0-.4.1-.1 0-.2.2-.3.4h1.4c0-.2-.1-.3-.3-.4-.1 0-.3-.1-.4-.1zM4.4 9.8c0 .3.3.6.6.5.3 0 .5-.2.5-.5H4.4zM4.4 10.7h1v3.4h-1v-3.4z"/><g><path class="cls-1" d="M33.1 11.6v-.9h-.9v-.9h-.7c0 .3 0 .4-.1.5-.1.2-.4.4-.6.4v.8h.4V13c0 .3 0 .6.3.8.2.2.5.3.9.3h.8v-.8H33h-.5s-.1-.2 0-.3v-1.3h.9zM17.4 13.3h.4c.1 0 .2-.2.3-.3l.6.6c-.2.2-.4.4-.6.5-.2.1-.5.2-.8.2-.2 0-.5 0-.7-.1-.7-.3-1.1-.9-1.1-1.6 0-.2 0-.5.1-.7 0-.2.2-.4.4-.6.3-.3.8-.5 1.3-.5.3 0 .5 0 .8.2.2.1.5.3.6.5l-.6.7c-.1-.1-.2-.2-.4-.3h-.4c-.2 0-.4 0-.6.2-.2.2-.2.4-.2.6 0 .2 0 .4.2.6.1.2.4.2.6.2zM19 14.1v-3.4h1v.3c.1-.1.2-.2.4-.3.2 0 .3-.1.5-.1h.4v.9h-.2-.3c-.2 0-.3 0-.4.1-.1 0-.3.2-.3.3V14h-1zM22.7 9.8c0 .3.3.6.6.5.3 0 .5-.2.5-.5h-1.1zM24.8 13.7c-.2.2-.4.3-.7.4-.2 0-.5.1-.8.1-.2 0-.5 0-.7-.1-.4-.2-.8-.5-1-.9 0-.2-.1-.4-.1-.7 0-.2 0-.5.1-.7 0-.2.2-.4.4-.6.2-.2.3-.3.6-.4.2 0 .5-.1.7-.1.5 0 .9.2 1.2.5.2.2.3.4.4.6 0 .2.1.5.1.7v.3h-2.4c0 .2.2.3.3.4.2.1.3.2.5.1h.4c.1 0 .2-.1.3-.2l.7.6zm-1.5-2.2c-.2 0-.3 0-.4.1-.1 0-.2.2-.3.4H24c0-.2-.1-.3-.3-.4-.1 0-.3-.1-.4-.1zM27.9 14.1v-.2c-.1 0-.3.2-.4.2H27c-.2 0-.5 0-.7-.1-.2 0-.4-.2-.5-.4-.2-.2-.3-.3-.4-.6 0-.2-.1-.4-.1-.7 0-.2 0-.5.1-.7.2-.4.5-.7.9-.9.4-.1.8-.2 1.1 0 .1 0 .3 0 .4.2v-.8l1-.2v4.3h-1zm-1.6-1.7c0 .2 0 .5.3.6.2.2.4.3.6.2h.4c.1 0 .2-.1.3-.2v-1.2s-.2-.1-.3-.2h-.4c-.2 0-.5 0-.6.2-.2.2-.3.4-.3.6zM29.3 9.8c0 .3.3.6.6.5.3 0 .5-.2.5-.5h-1.1zM29.3 10.7h1v3.4h-1v-3.4z"/><path class="cls-1" d="M36.4 11.7h-.2l-.2.5v.2c0 .2 0 .4-.2.6-.3.3-.8.3-1.1 0-.3-.3-.3-.9 0-1.2.3-.3.8-.3 1.1 0 0 0 0 .1.1.2v-.3c.2-.2.4-.3.6-.2l.4.2c0-.2-.2-.4-.4-.5-.2-.2-.4-.3-.6-.4-.5-.2-1-.2-1.4 0-.2 0-.4.2-.6.4-.2.2-.3.3-.4.6-.2.4-.2.9 0 1.4 0 .2.2.4.4.6.2.2.4.3.6.4.5.2 1 .2 1.4 0 .2 0 .4-.2.6-.4.2-.2.3-.3.4-.6 0-.2.1-.4.1-.7V12l-.5-.2z"/></g></svg>