<svg xmlns="http://www.w3.org/2000/svg" width="38" height="24" fill="none" aria-labelledby="pi-sistecredito" role="img" viewBox="0 0 38 24"><title id="pi-sistecredito">Sistecredito</title><path fill="#fff" d="M0 0h38v24H0z"/><path fill="#00369C" d="M11.78 11.6v-.84h-.92v-.87l-.66.14a1 1 0 0 1-.14.35.9.9 0 0 1-.6.42h-.04v.8h.43v1.44c-.02.29.09.58.3.78.2.18.5.26.89.26.12 0 .24-.01.35-.03.12-.01.23-.04.35-.07v-.81a1.6 1.6 0 0 1-.45.07.52.52 0 0 1-.34-.09.43.43 0 0 1-.1-.31v-1.25h.92zM1.5 13.68l.48-.68c.18.11.37.2.56.27.16.05.33.08.5.08.13 0 .27-.02.39-.07.08-.03.14-.1.15-.19a.18.18 0 0 0-.08-.15.46.46 0 0 0-.25-.08l-.65-.1a1.26 1.26 0 0 1-.74-.33.85.85 0 0 1-.26-.65.92.92 0 0 1 .38-.78c.3-.21.67-.31 1.03-.28a2.83 2.83 0 0 1 1.37.39l-.48.64c-.16-.1-.33-.17-.51-.23a1.6 1.6 0 0 0-.48-.07.8.8 0 0 0-.31.06.21.21 0 0 0-.12.17c0 .06.03.12.09.16q.135.075.3.09l.65.1c.28.03.54.14.75.32.17.16.27.4.26.63a.96.96 0 0 1-.42.79 1.68 1.68 0 0 1-1.06.31c-.29 0-.58-.03-.86-.11a1.85 1.85 0 0 1-.68-.32zm4.65 0 .48-.68c.18.11.37.2.56.27.16.05.33.08.5.08.13 0 .27-.02.39-.07.08-.03.14-.1.15-.19a.18.18 0 0 0-.08-.15.46.46 0 0 0-.25-.08l-.65-.1a1.26 1.26 0 0 1-.74-.33.85.85 0 0 1-.26-.65.92.92 0 0 1 .38-.78c.3-.21.67-.31 1.03-.28a2.83 2.83 0 0 1 1.37.39l-.48.64c-.16-.1-.33-.17-.51-.23a1.6 1.6 0 0 0-.48-.07.8.8 0 0 0-.31.06.21.21 0 0 0-.12.17c0 .06.03.12.09.16q.135.075.3.09l.65.1c.28.03.54.14.75.32.17.16.27.4.26.63a.96.96 0 0 1-.42.79 1.68 1.68 0 0 1-1.06.31c-.29 0-.58-.03-.86-.11a1.85 1.85 0 0 1-.68-.32zm9.04-.07c-.19.16-.4.29-.63.38-.24.08-.48.12-.73.12a1.85 1.85 0 0 1-1.27-.49 1.7 1.7 0 0 1-.52-1.21 1.7 1.7 0 0 1 .49-1.21 1.7 1.7 0 0 1 2.4.02 1.95 1.95 0 0 1 .46 1.29v.25h-2.34a.89.89 0 0 0 .81.52.94.94 0 0 0 .65-.25l.66.59zm-1.46-2.08a.7.7 0 0 0-.43.14.75.75 0 0 0-.25.38h1.37a.84.84 0 0 0-.26-.38.65.65 0 0 0-.42-.14zM4.78 9.9c.02.31.28.54.58.53a.56.56 0 0 0 .53-.53zm.05.87h1v3.28h-1z"/><path fill="#3EC92B" d="M32.69 11.6v-.84h-.92v-.87l-.66.14a1 1 0 0 1-.14.35.9.9 0 0 1-.6.42h-.04v.8h.43v1.44c-.02.29.09.58.3.78.2.18.5.26.89.26.12 0 .24-.01.35-.03.12-.01.23-.04.35-.07v-.81a1.6 1.6 0 0 1-.45.07.52.52 0 0 1-.34-.09.43.43 0 0 1-.1-.31v-1.25h.92zm-15.24 1.64c.13 0 .26-.03.38-.09q.195-.105.33-.27l.59.62c-.17.19-.37.34-.61.44s-.49.16-.75.16c-.23 0-.47-.04-.68-.13a1.67 1.67 0 0 1-1.05-1.57c0-.23.04-.46.13-.67a1.74 1.74 0 0 1 1.61-1.03 1.87 1.87 0 0 1 1.39.61l-.61.64c-.1-.12-.22-.21-.35-.28a.9.9 0 0 0-.4-.09.72.72 0 0 0-.54.24.82.82 0 0 0-.22.59c0 .22.08.43.23.59.14.16.35.24.56.24zm1.59.8v-3.28h1v.33a1.13 1.13 0 0 1 1.09-.39c.05 0 .1.03.15.06v.87l-.22-.07a1 1 0 0 0-.69.08c-.13.07-.24.18-.33.3v2.08h-1zm3.54-4.14c.01.31.27.54.58.53a.55.55 0 0 0 .53-.53zm2.02 3.71c-.19.16-.4.29-.64.38-.24.08-.48.12-.73.12-.24 0-.48-.04-.7-.13a1.7 1.7 0 0 1 .62-3.27c.45 0 .88.18 1.19.51a1.95 1.95 0 0 1 .46 1.29v.25h-2.34a.89.89 0 0 0 .81.52.94.94 0 0 0 .65-.25l.66.59zm-1.46-2.08a.7.7 0 0 0-.43.14.75.75 0 0 0-.25.38h1.37a.84.84 0 0 0-.26-.38.65.65 0 0 0-.42-.14zm4.48 2.51v-.24a1.47 1.47 0 0 1-.88.28 1.6 1.6 0 0 1-1.18-.49 1.65 1.65 0 0 1-.49-1.2 1.65 1.65 0 0 1 1.03-1.55 1.76 1.76 0 0 1 1.51.09v-.82l1-.22v4.14h-.99zm-1.56-1.64c0 .22.09.44.25.59.16.16.38.24.61.24.13 0 .26-.02.38-.06a.8.8 0 0 0 .31-.2v-1.15c-.09-.08-.2-.14-.31-.19a1 1 0 0 0-.38-.07.85.85 0 0 0-.61.24.82.82 0 0 0-.25.59zm2.91-2.5c.01.31.27.54.58.53a.55.55 0 0 0 .53-.53zm.05.87h1v3.28h-1zm6.88.93a.15.15 0 0 0-.2.08l-.19.45.02.18c0 .22-.08.43-.23.59-.3.31-.8.32-1.11.02l-.02-.02a.86.86 0 0 1 0-1.18c.3-.31.8-.32 1.11-.02l.02.02c.05.05.09.1.12.16l.12-.27a.35.35 0 0 1 .45-.18l.36.16a1.9 1.9 0 0 0-.35-.49 1.86 1.86 0 0 0-2.51 0 1.7 1.7 0 0 0-.38.54c-.19.42-.19.91 0 1.33a1.7 1.7 0 0 0 .94.9c.45.17.95.17 1.39 0a1.7 1.7 0 0 0 1.08-1.57c0-.16-.02-.32-.07-.47l-.53-.23z"/></svg>