<svg role="img" aria-labelledby="pi-skeps" width="38" height="24" viewBox="0 0 38 24" version="1.1" xmlns="http://www.w3.org/2000/svg" xmlns:xlink="http://www.w3.org/1999/xlink"><title id="pi-skeps">Skeps</title><defs><path d="M5.947 0v7.93H7.06V6.085l1.077-.934.793-.686 2.724-2.341h-1.647L7.06 4.725V0H5.947zm19.802 2.413c-.402.304-.604.724-.604 1.26 0 .497.181.88.54 1.147.359.268.854.457 1.486.568l.496.083c.427.071.743.172.948.301a.629.629 0 01.308.562.75.75 0 01-.349.644c-.233.162-.551.243-.953.243-.963 0-1.524-.469-1.682-1.408l-1.042.261c.103.662.395 1.165.877 1.508.481.343 1.097.514 1.847.514.726 0 1.304-.161 1.734-.484.43-.324.645-.773.645-1.348 0-.537-.183-.929-.551-1.178-.367-.248-.905-.435-1.615-.561l-.498-.071c-.363-.063-.637-.16-.823-.29a.633.633 0 01-.278-.55c0-.245.103-.436.308-.573.205-.139.485-.207.841-.207.773 0 1.235.358 1.385 1.076l1.018-.296a2.03 2.03 0 00-.817-1.212c-.418-.296-.947-.444-1.586-.444-.687 0-1.231.152-1.635.455zm-6.075.645h-.118v-.934h-1.089v8.172h1.112V5.033c0-.646.164-1.159.516-1.537.351-.379.811-.568 1.379-.568.56 0 1.014.187 1.361.562.342.369.516.874.521 1.514v-.027h1.123c0 .338-.029.626-.082.88.056-.259.083-.533.083-.824 0-.607-.121-1.146-.366-1.614a2.699 2.699 0 00-.983-1.082 2.55 2.55 0 00-1.361-.379c-.947 0-1.646.367-2.096 1.1zm-6.391-.716a2.704 2.704 0 00-1.035 1.077c-.249.461-.373.983-.373 1.567 0 .591.124 1.124.373 1.596.248.473.6.844 1.054 1.112.453.268.976.402 1.568.402.702 0 1.253-.148 1.652-.443a3.66 3.66 0 00.976-1.083l-.923-.52a2.204 2.204 0 01-.651.781c-.268.197-.62.296-1.054.296-.521 0-.951-.161-1.29-.479-.332-.313-.521-.713-.566-1.203l-.002-.034s-.017-.153-.018-.378v-.038c0-.136.007-.294.027-.459l.002-.023c.063-.489.249-.876.557-1.159.307-.284.71-.426 1.207-.426.482 0 .873.14 1.172.42.3.279.466.668.498 1.165h1.12a3.039 3.039 0 00-.339-1.183 2.48 2.48 0 00-.989-1.017c-.422-.236-.909-.355-1.462-.355-.56 0-1.062.129-1.504.384zm-12.43.071c-.403.304-.604.724-.604 1.26 0 .497.179.88.538 1.147.359.268.855.457 1.486.568l.498.083c.425.071.741.172.946.301a.627.627 0 01.308.562.747.747 0 01-.349.644c-.233.162-.551.243-.953.243-.963 0-1.523-.469-1.681-1.408L0 6.074c.103.662.395 1.165.876 1.508.482.343 1.097.514 1.847.514.726 0 1.304-.161 1.734-.484.43-.324.645-.773.645-1.348 0-.537-.183-.929-.549-1.178-.368-.248-.907-.435-1.617-.561l-.498-.071c-.362-.063-.637-.16-.822-.29a.633.633 0 01-.278-.55.65.65 0 01.308-.573c.205-.139.485-.207.84-.207.773 0 1.236.358 1.385 1.076l1.018-.296a2.029 2.029 0 00-.816-1.212c-.419-.296-.948-.444-1.587-.444-.686 0-1.231.152-1.633.455z" id="pi-path-1"/><path d="M4.9 0l-.005.237c-.027.608-.157 1.043-.36 1.427l-.11.193c-.23.373-.52.668-.873.884l-.178.1a2.554 2.554 0 01-1.183.279l-.198-.005C1.146 3.07.43 2.73.021 2.1L0 2.067V.056l.006.208c.033.543.197.982.51 1.319l.121.119c.334.299.753.448 1.258.448l.183-.007c.477-.037.87-.223 1.178-.555l.1-.116c.28-.36.421-.833.421-1.472H4.9z" id="pi-path-3"/><path d="M4.9 0l-.005.237c-.027.608-.157 1.043-.36 1.427l-.11.193c-.23.373-.52.668-.873.884l-.178.1a2.554 2.554 0 01-1.183.279l-.198-.005C1.146 3.07.43 2.73.021 2.1L0 2.067V.056l.006.208c.033.543.197.982.51 1.319l.121.119c.334.299.753.448 1.258.448l.183-.007c.477-.037.87-.223 1.178-.555l.1-.116c.28-.36.421-.833.421-1.472H4.9z" id="pi-path-6"/><path id="pi-path-9" d="M.793 0l1.425 1.845 1.251 1.62H2.107L0 .686z"/><path id="pi-path-12" d="M.793 0l1.425 1.845 1.251 1.62H2.107L0 .686z"/><path d="M4.583.05l.013.219.004.21v.47H.018V.94A4.314 4.314 0 01.028.051h4.554z" id="pi-path-15"/><path d="M4.583.05l.013.219.004.21v.47H.018V.94A4.314 4.314 0 01.028.051h4.554z" id="pi-path-18"/><linearGradient x1="57.206%" y1="49.415%" x2="57.206%" y2="230.652%" id="pi-linearGradient-5"><stop stop-color="#131415" offset="0%"/><stop stop-color="#131415" offset="100%"/></linearGradient><linearGradient x1="64.903%" y1="53.761%" x2="57.206%" y2="53.761%" id="pi-linearGradient-8"><stop stop-color="#131415" offset="0%"/><stop stop-color="#131415" offset="100%"/></linearGradient><linearGradient x1="39.23%" y1="48.015%" x2="39.23%" y2="229.251%" id="pi-linearGradient-11"><stop stop-color="#131415" offset="0%"/><stop stop-color="#131415" offset="100%"/></linearGradient><linearGradient x1="43.585%" y1="52.438%" x2="40.004%" y2="49.672%" id="pi-linearGradient-14"><stop stop-color="#131415" offset="0%"/><stop stop-color="#131415" offset="100%"/></linearGradient><linearGradient x1="46.859%" y1="48.125%" x2="46.859%" y2="229.361%" id="pi-linearGradient-17"><stop stop-color="#131415" offset="0%"/><stop stop-color="#131415" offset="100%"/></linearGradient><linearGradient x1="54.086%" y1="49.377%" x2="46.859%" y2="49.377%" id="pi-linearGradient-20"><stop stop-color="#131415" offset="0%"/><stop stop-color="#131415" offset="100%"/></linearGradient></defs><g id="pi-Artboard" stroke="none" stroke-width="1" fill="none" fill-rule="evenodd"><g id="pi-Group"><rect id="pi-Rectangle" stroke="#EEE" fill="#FFF" x=".5" y=".5" width="37" height="23" rx="2"/><g id="pi-Group-22" transform="translate(4 7)"><g id="pi-Group-3"><mask id="pi-mask-2" fill="#fff"><use xlink:href="#pi-path-1"/></mask><path id="pi-Fill-1" fill="#131415" mask="url(#pi-mask-2)" d="M-.064 10.359h30.127V-.063H-.064z"/></g><g id="pi-Group-6" transform="translate(19.579 4.968)"><mask id="pi-mask-4" fill="#fff"><use xlink:href="#pi-path-3"/></mask><path id="pi-Fill-4" fill="url(#pi-linearGradient-5)" mask="url(#pi-mask-4)" d="M-36.414 18.157h63.655v-35.894h-63.655z"/></g><g id="pi-Group-9" transform="translate(19.579 4.968)"><mask id="pi-mask-7" fill="#fff"><use xlink:href="#pi-path-6"/></mask><path id="pi-Fill-7" fill="url(#pi-linearGradient-8)" mask="url(#pi-mask-7)" d="M-36.414 18.157h63.655v-35.894h-63.655z"/></g><g id="pi-Group-12" transform="translate(8.137 4.465)"><mask id="pi-mask-10" fill="#fff"><use xlink:href="#pi-path-9"/></mask><path id="pi-Fill-10" fill="url(#pi-linearGradient-11)" mask="url(#pi-mask-10)" d="M-24.972 18.66h63.655v-35.894h-63.655z"/></g><g id="pi-Group-15" transform="translate(8.137 4.465)"><mask id="pi-mask-13" fill="#fff"><use xlink:href="#pi-path-12"/></mask><path id="pi-Fill-13" fill="url(#pi-linearGradient-14)" mask="url(#pi-mask-13)" d="M-24.972 18.66h63.655v-35.894h-63.655z"/></g><g id="pi-Group-18" transform="translate(12.994 4.455)"><mask id="pi-mask-16" fill="#fff"><use xlink:href="#pi-path-15"/></mask><path id="pi-Fill-16" fill="url(#pi-linearGradient-17)" mask="url(#pi-mask-16)" d="M-29.829 18.67h63.655v-35.894h-63.655z"/></g><g id="pi-Group-21" transform="translate(12.994 4.455)"><mask id="pi-mask-19" fill="#fff"><use xlink:href="#pi-path-18"/></mask><path id="pi-Fill-19" fill="url(#pi-linearGradient-20)" mask="url(#pi-mask-19)" d="M-29.829 18.67h63.655v-35.894h-63.655z"/></g></g></g></g></svg>