<svg xmlns="http://www.w3.org/2000/svg" width="38" height="24" fill="none" aria-labelledby="pi-skeps" role="img" viewBox="0 0 38 24"><title id="pi-skeps">Skeps</title><path fill="#36005C" d="M0 0h38v24H0z"/><path fill="#fff" d="m29.07 11.1-1.94-2.31a.51.51 0 0 0-.4-.18h-2.06l3 3.45a.17.17 0 0 1 0 .22l-3 3.4h2.1c.15 0 .3-.06.39-.18l1.91-2.23a1.66 1.66 0 0 0 0-2.18ZM10.73 6H9.2a.15.15 0 0 0-.16.15v9.44c0 .08.07.15.16.15h1.53a.15.15 0 0 0 .16-.15V6.15a.15.15 0 0 0-.16-.15"/><path fill="#fff" d="M24.52 8.6H23a.15.15 0 0 0-.16.16v9.44c0 .08.07.15.16.15h1.53a.15.15 0 0 0 .16-.16V8.77a.15.15 0 0 0-.16-.15ZM12.9 12.04l3-3.4h-2.1a.52.52 0 0 0-.4.17l-1.9 2.23a1.66 1.66 0 0 0 0 2.18l1.93 2.3a.52.52 0 0 0 .4.19h2.07l-3-3.45a.17.17 0 0 1 0-.22m-7.7-.74.75.08c1.59.16 2.26.8 2.26 2.17 0 .85-.27 1.49-.82 1.9-.5.4-1.25.6-2.22.6a4.45 4.45 0 0 1-3.14-1.22.22.22 0 0 1 .04-.25l.05-.07.76-.88a.19.19 0 0 1 .27-.02l.08.07c.51.48 1.32.8 2.01.8.83 0 1.23-.25 1.23-.77 0-.4-.17-.62-1.1-.7l-.77-.08c-1.57-.16-2.24-.81-2.24-2.18q0-1.2.75-1.8a3.35 3.35 0 0 1 2.07-.54 4.2 4.2 0 0 1 2.7.9.2.2 0 0 1 .05.3l-.73.88c-.08.1-.2.12-.31.05a3.27 3.27 0 0 0-1.8-.58c-.66 0-.99.21-.99.66 0 .38.17.6 1.1.68m28.05.08-.76-.08c-.92-.09-1.09-.3-1.09-.68 0-.44.33-.66 1-.66.72 0 1.4.3 1.79.58.11.07.23.05.3-.05l.74-.87a.23.23 0 0 0-.04-.32 4.33 4.33 0 0 0-2.7-.9c-.92 0-1.61.2-2.08.55-.5.39-.75 1-.75 1.8 0 1.37.67 2.02 2.24 2.18l.77.07c.93.1 1.1.3 1.1.71 0 .52-.4.77-1.23.77-.69 0-1.5-.32-2.02-.8l-.07-.07a.2.2 0 0 0-.28.02l-.75.88-.05.07a.22.22 0 0 0 0 .32 4.45 4.45 0 0 0 3.1 1.15q1.44 0 2.22-.6c.54-.41.82-1.05.82-1.9 0-1.37-.67-2.01-2.26-2.17"/><path fill="#fff" d="M16.58 9.23c.59-.53 1.4-.83 2.24-.83 1.47 0 2.6.76 3.01 2.03.16.5.25.96.25 2.17 0 .14-.1.23-.25.23h-4.49c0 .15.07.38.14.53.26.68.8 1.03 1.56 1.03.71 0 1.27-.24 1.7-.73l.03-.04a.2.2 0 0 1 .14-.06c.06 0 .1.02.14.06l.82.94a.2.2 0 0 1 0 .25 3.93 3.93 0 0 1-2.98 1.22c-1.72 0-3.46-1.3-3.46-3.81 0-1.29.4-2.32 1.15-3Zm3.66 2.2v-.02c0-.23-.03-.4-.09-.58-.18-.54-.66-.86-1.32-.86-.65 0-1.16.32-1.37.87a1.5 1.5 0 0 0-.12.57v.01h2.9Z"/></svg>