<svg role="img" aria-labelledby="pi-skeps" width="38" height="24" viewBox="0 0 38 24" fill="none" xmlns="http://www.w3.org/2000/svg"><title id="pi-skeps">Skeps</title><path fill="#000" opacity=".07" d="M35 0H3C1.3 0 0 1.3 0 3v18c0 1.7 1.4 3 3 3h32c1.7 0 3-1.3 3-3V3c0-1.7-1.4-3-3-3z"/><path fill="#fff" d="M35 1c1.1 0 2 .9 2 2v18c0 1.1-.9 2-2 2H3c-1.1 0-2-.9-2-2V3c0-1.1.9-2 2-2h32"/><path d="M27.452 11.147l-1.58-1.875a.42.42 0 00-.32-.15h-1.689l2.445 2.811a.136.136 0 01.001.179l-2.439 2.774h1.705a.42.42 0 00.319-.147l1.557-1.818a1.352 1.352 0 000-1.774z" fill="#006DFF"/><path d="M12.513 7H11.26a.125.125 0 00-.125.125v7.686c0 .07.056.125.125.125h1.252c.069 0 .125-.056.125-.125V7.125A.125.125 0 0012.513 7zM23.745 9.123h-1.251a.125.125 0 00-.126.125v7.685c0 .07.056.126.126.126h1.251c.07 0 .126-.056.126-.126V9.248a.125.125 0 00-.126-.125zM14.27 11.909l2.438-2.774h-1.704a.42.42 0 00-.32.147L13.129 11.1a1.352 1.352 0 00-.001 1.774l1.579 1.875a.42.42 0 00.321.15h1.688l-2.444-2.812a.136.136 0 01-.002-.178zM7.992 11.31l.621.061h.001c1.289.13 1.839.658 1.839 1.769 0 .692-.226 1.215-.67 1.556-.415.318-1.023.48-1.809.48-1.32 0-2.144-.587-2.518-.937a.182.182 0 01-.004-.26l.036-.052.617-.72a.156.156 0 01.225-.014l.062.057c.42.387 1.079.648 1.642.648.672 0 .999-.205.999-.625 0-.332-.135-.503-.898-.576l-.621-.061c-1.281-.132-1.827-.663-1.827-1.774 0-.657.206-1.15.613-1.465.38-.295.947-.444 1.686-.444.834 0 1.617.258 2.203.727a.184.184 0 01.036.258l-.6.71c-.063.08-.157.095-.25.038a2.666 2.666 0 00-1.46-.468c-.545 0-.809.175-.809.534 0 .313.137.485.886.559zM30.848 11.371l-.621-.06c-.75-.074-.886-.246-.886-.56 0-.358.264-.533.808-.533.59 0 1.14.241 1.46.468.094.057.187.043.25-.038l.6-.71a.184.184 0 00-.035-.258c-.587-.469-1.37-.727-2.204-.727-.738 0-1.306.149-1.685.444-.407.315-.614.808-.614 1.465 0 1.111.546 1.642 1.827 1.774l.622.06c.763.074.897.245.897.577 0 .42-.326.625-.999.625-.562 0-1.222-.26-1.641-.648l-.063-.057a.156.156 0 00-.225.014l-.616.72-.036.053a.182.182 0 00.004.26c.374.349 1.198.935 2.518.935.785 0 1.394-.16 1.808-.479.445-.34.67-.864.67-1.556 0-1.11-.55-1.64-1.838-1.769z" fill="#36005C"/><path d="M17.274 9.63a2.76 2.76 0 011.826-.677c1.197 0 2.115.617 2.456 1.652.13.403.196.788.196 1.773 0 .111-.079.186-.197.186h-3.66v.006c0 .115.06.3.111.424.214.552.655.843 1.276.843.579 0 1.031-.197 1.382-.6l.024-.028a.163.163 0 01.115-.051c.046 0 .089.02.118.053l.666.765c.05.059.05.147-.001.205a7.597 7.597 0 01-.09.099c-.56.578-1.39.896-2.335.896-1.402 0-2.821-1.07-2.821-3.112 0-1.045.323-1.887.934-2.435zm2.982 1.789v-.008c0-.187-.02-.33-.069-.475-.147-.442-.542-.705-1.075-.705-.532 0-.95.264-1.12.708a1.223 1.223 0 00-.097.47v.01h2.361z" fill="#36005C"/></svg>