<svg xmlns="http://www.w3.org/2000/svg" xml:space="preserve" viewBox="0 0 38 24" role="img" width="38" height="24" aria-labelledby="pi-skrill_wallet"><title id="pi-skrill_wallet">Skrill Wallet</title><g id="Layer_x0020_1"><g id="_222201584" fill="#862165"><path id="_222201224" d="M25.98 5.805l-.249.123-.247.248-.122.247-.124.37v.742l.124.37.123.123.123.247.123.124.248.123.123.124.371.124h.74l.372-.124.124-.124.247-.123.122-.124.124-.123.123-.247.124-.248V6.67l-.124-.247-.123-.247-.124-.124-.122-.124-.247-.123-.124-.124h-1.483z"/><path id="_222201080" d="M4.24 6.3l-.495.123-.37.123-.247.124-.247.123-.247.124-.247.124-.124.123-.124.124-.123.123-.124.124-.123.122-.124.124-.123.124-.124.247-.124.123-.122.247-.124.37v2.225l.124.37.122.247.124.124.125.246.122.125.124.122.123.124.124.123.123.124.248.124.123.123.247.124.247.123.37.124.247.123.495.124.865.124.865.123.246.124.123.123v.741l-.123.123-.124.124-.247.124-.493.123H3.869l-.865-.123-.74-.124-.248-.124-.37-.123h-.494v2.84l.122.125.618.123.742.124h4.199l.495-.124.37-.123.248-.124.246-.124.247-.123.123-.124.124-.123.247-.124.124-.123.123-.124.124-.124.123-.247.124-.122.124-.247.123-.248.124-.123.122-.371.124-.618v-.864l-.123-.618-.123-.247-.124-.247-.123-.247-.124-.124-.124-.247-.123-.122-.124-.124-.123-.124-.124-.123-.247-.124-.124-.123-.247-.124-.123-.123-.37-.124-.247-.124-.371-.123-.494-.124-1.235-.123-.618-.124-.123-.123-.124-.124v-.74l.124-.124.247-.124.618-.123h.864l.865.123.618.124.493.124.371.123.37.124.247.122h.248v-2.84l-.248-.124-.37-.123-.37-.124-.495-.123-.617-.124-1.112-.123H5.351z"/><path id="_223209424" d="M13.256 6.3l-.618.123-.74.123-.494.124-.495.123-.247.124v11.117h3.336l.123-2.718.124.37.123.248.123.37.125.248.122.493.124.371.123.371.124.247h3.83v-.618l-.124-.37-.123-.248-.124-.37-.124-.247-.123-.247-.124-.247-.123-.247-.124-.247-.123-.248-.124-.247-.124-.247-.123-.247-.124-.246-.123-.247v-.248l.123-.247.124-.123.123-.124.124-.247.124-.247.123-.124.124-.247.123-.246.124-.124.123-.247.124-.37.124-.124.123-.37.124-.248.122-.37.124-.37v-.247H15.48l-.124.123-.124.246-.123.247-.124.371-.123.124-.124.247-.122.247-.124.247-.125.124-.122.247-.124.123-.123-5.558h-.247z"/><path id="_223209088" d="M22.026 9.388l-.37.123-.37.124-.248.122-.123.125-.247.122-.124.124-.123.124-.124.123-.124.124-.123.123-.124.247-.123.124-.124.247-.123.37-.124.372v6.052h3.212l.124-5.065.123-.37.124-.124.123-.124.124-.123.493-.124.865-.122V9.264h-2.1z"/><path id="_223208920" d="M25.238 18.034h3.211V9.388h-3.211z"/><path id="_222201272" d="M31.908 6.3l-.618.123-.74.123-.618.124-.371.123v11.24h3.211V6.177h-.247z"/><path id="_222201680" d="M36.355 6.3l-.618.123-.865.123-.617.124-.371.123v11.24h3.088V6.177h-.124z"/></g></g></svg>