<svg width="28" height="18" viewBox="0 0 28 18" aria-labelledby="pi-skrill" version="1.1" xmlns="http://www.w3.org/2000/svg"><title id="pi-skrill">skrill</title><defs><linearGradient x1=".018%" y1="49.967%" x2="100.002%" y2="49.967%" id="linearGradient-1"><stop stop-color="#872166" offset="0%"/><stop stop-color="#4F2455" offset="100%"/></linearGradient></defs><g id="第四版" stroke="none" stroke-width="1" fill="none" fill-rule="evenodd"><g id="画板" transform="translate(-42 -351)"><g id="skrill" transform="translate(43 352)"><rect id="矩形" stroke-opacity=".07" stroke="#000" fill="#FFF" x="-.5" y="-.5" width="27" height="17" rx="2"/><g id="Skrill-Logo" transform="translate(3 4.5)" fill="url(#linearGradient-1)" fill-rule="nonzero"><path d="M15.904.687l1.665-.304v6.545h-1.665V.687zm2.43 0v6.237H20V.384l-1.665.303zm-4.797 6.237h1.665V2.14h-1.665v4.785zM2.533 2.815c-.212-.014-.698-.047-.698-.495 0-.542.702-.542.963-.542.462 0 1.062.14 1.488.271 0 0 .24.087.441.174l.018.003V.744L4.72.737C4.216.557 3.63.383 2.54.383.663.383 0 1.503 0 2.461c0 .553.233 1.854 2.381 2.006.184.01.667.04.667.506 0 .383-.395.61-1.062.61A5.11 5.11 0 01.12 5.211V6.74c.642.173 1.369.26 2.219.26 1.835 0 2.657-1.059 2.657-2.11 0-1.193-.918-1.966-2.463-2.075zm10.065-.744c-1.538.05-2.318.759-2.318 2.164v2.693h1.68V4.73c0-.843.106-1.204 1.083-1.236V2.092c-.17-.032-.445-.021-.445-.021zm-4.515.065c-.036.094-.304.867-.95 1.666V.383L5.416.73v6.194h1.719V5.01c.497.766.744 1.915.744 1.915h2.057C9.73 6.057 8.84 4.46 8.84 4.46a7.846 7.846 0 001.207-2.327H8.083v.004zm6.283-.456a.832.832 0 00.822-.838.833.833 0 00-.822-.842.83.83 0 00-.819.842.83.83 0 00.819.838z" id="Shape"/></g></g></g></g></svg>