<svg xmlns="http://www.w3.org/2000/svg" width="38" height="24" fill="none" aria-labelledby="pi-skrilldigitalwallet" role="img" viewBox="0 0 38 24"><title id="pi-skrilldigitalwallet">Skrill Digital Wallet</title><path fill="#fff" d="M0 0h38v24H0z"/><path fill="#811E68" fill-rule="evenodd" d="M26.12 9.16a1.22 1.22 0 0 1-1.36-.28 1.3 1.3 0 0 1 .4-2.09 1.23 1.23 0 0 1 1.37.28 1.31 1.31 0 0 1 0 1.82c-.12.11-.26.2-.41.27m1.92-1.42 2.55-.47v9.94h-2.55zm3.64 0v9.47h2.55V7.27zm-4.73 9.47h-2.54V9.9h2.54zM7.62 10.98c-.32-.03-1.06-.08-1.06-.76 0-.82 1.07-.82 1.47-.82a8.7 8.7 0 0 1 2.92.67v.02H11l-.03-.01-.02-.01V7.83h.01a8.9 8.9 0 0 0-3.32-.54c-2.85 0-3.87 1.7-3.87 3.15 0 .83.35 2.8 3.63 3.03.28.02 1.01.06 1.01.77 0 .58-.6.92-1.61.92a7.9 7.9 0 0 1-2.85-.56v2.31c.98.27 2.08.4 3.38.4 2.8 0 4.04-1.6 4.04-3.2 0-1.8-1.4-2.97-3.75-3.13m11.8 2.14c0-2.13 1.19-3.2 3.53-3.28.21 0 .43.02.64.06v2.06c-1.48.06-1.62.64-1.62 1.92l-.02 3.34h-2.54v-4.1ZM16.13 10c-.05.15-.56 1.23-1.54 2.44V7.27l-2.55.56v9.38h2.55v-2.9a11 11 0 0 1 1.18 2.9h3.18c-.31-1.3-1.72-3.74-1.72-3.74.8-1.05 1.41-2.22 1.81-3.48h-2.9Z" clip-rule="evenodd"/></svg>