<svg viewBox="0 0 38 24" xmlns="http://www.w3.org/2000/svg" role="img" width="38" height="24" aria-labelledby="pi-skrill_digital_wallet"><title id="pi-skrill_digital_wallet">Skrill Digital Wallet</title><g id="Layer_x0020_1"><g id="_273484512"><path id="_273485304" fill="#000" fill-opacity=".071" d="M34.964.246H3.036C1.338.246.046 1.548.046 3.238V21.19c0 1.69 1.395 2.992 2.988 2.992h31.93c1.696 0 2.988-1.303 2.988-2.992V3.238c0-1.69-1.395-2.994-2.989-2.994v.002z"/><path id="_273485832" fill="#fff" d="M34.96 1.241c1.097 0 1.996.898 1.996 1.995v17.956a2.001 2.001 0 01-1.996 1.995H3.04a2.002 2.002 0 01-1.996-1.995V3.236c0-1.097.898-1.995 1.996-1.995h31.92z"/><path id="_273780488" fill="#811E68" d="M26.486 8.957c-.158.066-.328.099-.498.098a1.279 1.279 0 01-.922-.387 1.364 1.364 0 01-.003-1.9c.244-.253.577-.396.925-.396.347 0 .68.143.924.396a1.37 1.37 0 01.282 1.467 1.335 1.335 0 01-.708.722zm2.012-1.487l2.665-.492v10.41h-2.665V7.47zm3.81 0v9.918h2.666V6.978l-2.666.492zm-4.951 9.918H24.69v-7.66h2.667v7.66zM7.119 10.856h-.001c-.337-.022-1.11-.074-1.11-.786 0-.86 1.118-.86 1.537-.86.738 0 1.693.221 2.374.43 0 0 .365.13.685.267v.017h.051l-.03-.008-.02-.009v-2.34l.009-.009c-.805-.287-1.741-.566-3.476-.566-2.992 0-4.053 1.78-4.053 3.298 0 .877.369 2.941 3.796 3.18h.002c.292.018 1.06.065 1.06.8 0 .608-.628.966-1.694.966a8.178 8.178 0 01-2.98-.59v2.428c1.027.275 2.184.41 3.54.41 2.925 0 4.234-1.679 4.234-3.346.002-1.887-1.464-3.113-3.924-3.282zm12.348 2.248c0-2.23 1.245-3.351 3.699-3.432a3.85 3.85 0 01.669.056v2.164c-1.554.054-1.69.667-1.69 2.003l-.023 3.496h-2.666l.01-4.287zm-3.438-3.278c-.059.151-.59 1.284-1.618 2.554V6.978l-2.666.588v9.822h2.666v-3.042c.794 1.213 1.238 3.044 1.238 3.044h3.329c-.324-1.375-1.803-3.922-1.803-3.922a12.051 12.051 0 001.9-3.64l-3.046-.002z"/></g></g></svg>