<svg viewBox="0 0 38 24" xmlns="http://www.w3.org/2000/svg" role="img" width="38" height="24" aria-labelledby="pi-skrilldigitalwallet"><title id="pi-skrilldigitalwallet">Skrill Digital Wallet</title><path opacity=".07" d="M35 0H3C1.3 0 0 1.3 0 3v18c0 1.7 1.4 3 3 3h32c1.7 0 3-1.3 3-3V3c0-1.7-1.4-3-3-3z"/><path fill="#fff" d="M35 1c1.1 0 2 .9 2 2v18c0 1.1-.9 2-2 2H3c-1.1 0-2-.9-2-2V3c0-1.1.9-2 2-2h32"/><path fill-rule="evenodd" clip-rule="evenodd" d="M26.12 9.161c-.15.064-.312.096-.475.094-.33.002-.646-.13-.88-.37a1.301 1.301 0 01-.004-1.814 1.23 1.23 0 01.884-.377c.331 0 .65.135.884.377a1.31 1.31 0 01.268 1.401 1.283 1.283 0 01-.272.414 1.239 1.239 0 01-.405.275zm1.922-1.42l2.546-.47v9.943h-2.546zm3.64 0v9.473h2.546V7.272zm-4.73 9.473h-2.546V9.898h2.546zM7.624 10.976h-.002c-.321-.022-1.06-.072-1.06-.751 0-.822 1.068-.822 1.469-.822.705 0 1.617.212 2.268.41 0 0 .348.126.654.257v.016h.049l-.03-.008-.019-.009V7.835l.01-.009c-.769-.274-1.663-.54-3.32-.54-2.858 0-3.87 1.7-3.87 3.149 0 .837.351 2.81 3.624 3.036H7.4c.28.018 1.012.062 1.012.765 0 .58-.6.922-1.617.922a7.82 7.82 0 01-2.846-.562v2.318c.98.262 2.085.392 3.38.392 2.794 0 4.044-1.605 4.044-3.196.002-1.802-1.398-2.974-3.748-3.134zm11.793 2.146c0-2.13 1.189-3.2 3.532-3.277.215 0 .429.017.64.053v2.066c-1.484.053-1.615.639-1.615 1.913l-.021 3.34h-2.547zm-3.283-3.13c-.057.144-.564 1.226-1.546 2.438V7.272l-2.546.562v9.38h2.546v-2.905c.758 1.159 1.182 2.907 1.182 2.907h3.18c-.31-1.313-1.722-3.747-1.722-3.747a11.468 11.468 0 001.815-3.477z" fill="#811e68"/></svg>