<svg id="pi-slice1" data-name="Layer 2" xmlns="http://www.w3.org/2000/svg" width="38" height="24" viewBox="0 0 38 24" role="img" aria-labelledby="pi-slice-fnbo"><title id="pi-slice-fnbo">Slice by fnbo</title><g id="pi-Slicebyfnbo"><rect id="pi-background" data-name="Background" width="38" height="24" rx="2" ry="2" fill="#fff"/><g id="pi-logo" data-name="Logo"><g id="pi-text" data-name="Text" fill="#006341"><path d="M16 13.2c-.9-.2-1.3-.3-1.3-.6s.2-.5.8-.5 1 .3 1.1.7l1.5-.6c-.4-.9-1.2-1.4-2.6-1.4-1.5 0-2.5.9-2.5 1.9s1.1 1.7 2.2 1.9c.7.1 1.3.2 1.3.6s-.3.6-.9.6-1.1-.3-1.3-.8l-1.6.6c.4 1.1 1.3 1.7 2.8 1.7 1.8 0 2.6-1.2 2.6-2.1 0-1.3-1.2-1.7-2.2-1.9zM18.7 8h1.7v9h-1.7zM21 10.8h1.7V17H21zM26.3 12.3c.7 0 1.2.4 1.5 1l1.5-.6c-.5-1.1-1.6-1.9-3-1.9s-3.2 1.4-3.2 3.2 1.4 3.2 3.2 3.2 2.5-.8 3-1.9l-1.5-.6c-.2.6-.8 1-1.5 1s-1.6-.7-1.6-1.6.7-1.6 1.6-1.6zM35.9 13.9c0-1.8-1.3-3.2-3.2-3.2s-3.2 1.4-3.2 3.2 1.3 3.2 3.3 3.2 2.3-.7 2.9-1.6l-1.3-.8c-.3.6-.8 1-1.5 1s-1.4-.4-1.6-1.1h4.8V14zm-4.7-.7c.3-.6.8-1 1.5-1s1.2.3 1.5 1h-3zM21.8 8.2c-.6 0-1 .4-1 1s.4 1 1 1 1-.4 1-1-.4-1-1-1z"/></g><g id="pi-icon" data-name="Icon" fill="#bfd130"><path d="M5.1 17c.5.1 1-.3 1-.8v-4.3l-3.7 3.7c.8.7 1.7 1.2 2.7 1.4zM11.2 11c.5 0 .9-.5.8-1-.2-1-.7-1.9-1.4-2.7L6.9 11h4.3zM11.2 11.5H6.9l3 3c.4.4 1 .3 1.2-.1.4-.6.7-1.3.8-1.9.1-.5-.3-1-.8-1zM6.6 11.9v4.3c0 .5.5.9 1 .8.7-.1 1.3-.4 1.9-.8.4-.3.5-.9.1-1.2l-3-3zM7.3 7.9c0-.5-.4-1-.9-1H6c-.5.2-.8.8-.6 1.3l1 2.7.9-2.7v-.3zM3.8 12l2.1-.8-2.2-.7h-.3c-.4 0-.8.3-.8.7v.3c.2.4.6.6 1 .5z"/></g></g><path d="M36 1c.6 0 1 .4 1 1v20c0 .6-.4 1-1 1H2c-.6 0-1-.4-1-1V2c0-.6.4-1 1-1h34m0-1H2C.9 0 0 .9 0 2v20c0 1.1.9 2 2 2h34c1.1 0 2-.9 2-2V2c0-1.1-.9-2-2-2z" id="pi-border" data-name="Border" opacity=".07"/></g></svg>