<svg xmlns="http://www.w3.org/2000/svg" role="img" width="38" height="24" viewBox="0 0 38 24" aria-labelledby="pi-snap_checkout" xml:space="preserve"><title id="pi-snap_checkout">Snap Checkout</title><path fill="#000" opacity=".07" d="M35 0H3C1.3 0 0 1.3 0 3v18c0 1.7 1.4 3 3 3h32c1.7 0 3-1.3 3-3V3c0-1.7-1.4-3-3-3z"/><path fill="#fff" d="M35 1c1.1 0 2 .9 2 2v18c0 1.1-.9 2-2 2H3c-1.1 0-2-.9-2-2V3c0-1.1.9-2 2-2h32"/><g fill="#1a3a67"><path d="M7.94 8.66c-.4.32-.62.81-.61 1.32-.02.38.14.75.43 1.01.43.34.95.56 1.49.66.19.05.38.09.58.12.58.12.89.31.89.57 0 .17-.09.33-.25.41-.2.1-.43.15-.66.14-.31.03-.62-.04-.89-.2a.796.796 0 01-.31-.64h-1.4v.06c-.03.54.19 1.07.61 1.41.52.36 1.14.52 1.77.48.66.05 1.33-.11 1.9-.46.44-.34.7-.87.67-1.43.01-.12.01-.23 0-.35-.07-.32-.26-.6-.53-.78-.27-.17-.57-.3-.89-.38-.38-.12-.78-.19-1.16-.29-.19-.05-.38-.11-.55-.2-.09-.05-.22-.17-.22-.28-.01-.16.07-.31.2-.39.19-.1.41-.14.63-.13.24-.01.49.05.69.19l.17.17c.12.23.36.37.61.36H12c-.02-.51-.27-.99-.66-1.32-.52-.35-1.14-.52-1.77-.48-.6-.04-1.19.13-1.66.47"/><path d="M7.94 8.66c-.4.32-.62.81-.61 1.32-.02.38.14.75.43 1.01.43.34.95.56 1.49.66.19.05.38.09.58.12.58.12.89.31.89.57 0 .17-.09.33-.25.41-.2.1-.43.15-.66.14-.31.03-.62-.04-.89-.2a.796.796 0 01-.31-.64h-1.4v.06c-.03.54.19 1.07.61 1.41.52.36 1.14.52 1.77.48.66.05 1.33-.11 1.9-.46.44-.34.7-.87.67-1.43.01-.12.01-.23 0-.35-.07-.32-.26-.6-.53-.78-.27-.17-.57-.3-.89-.38-.38-.12-.78-.19-1.16-.29-.19-.05-.38-.11-.55-.2-.09-.05-.22-.17-.22-.28-.01-.16.07-.31.2-.39.19-.1.41-.14.63-.13.24-.01.49.05.69.19l.17.17c.12.23.36.37.61.36H12c-.02-.51-.27-.99-.66-1.32-.52-.35-1.14-.52-1.77-.48-.6-.04-1.19.13-1.66.47"/></g><g fill="#1a3a67"><path d="M12.45 10.59v3.31h1.47v-3.36c0-.54.44-.97.97-.98.54 0 .97.44.98.97v2.66c0 .19.07.38.19.52.14.13.33.2.52.19h.73v-3.35c0-1.35-1.09-2.44-2.44-2.44s-2.44 1.09-2.44 2.44"/><path d="M12.45 10.59v3.31h1.47v-3.36c0-.54.44-.97.97-.98.54 0 .97.44.98.97v2.66c0 .19.07.38.19.52.14.13.33.2.52.19h.73v-3.35c0-1.35-1.09-2.44-2.44-2.44s-2.44 1.09-2.44 2.44"/></g><path d="M19.14 12.74a.604.604 0 01-.09-.85c.01-.01.02-.03.03-.04.23-.27.73-.29 1.08-.36.3-.05.6-.13.89-.25v.48c.02.32-.11.63-.35.83-.27.21-.61.33-.96.3-.15 0-.6-.11-.6-.11zm-.71-4.13c-.34.26-.55.65-.59 1.07h1.4c.06-.15.19-.27.35-.32.38-.13 1.45-.2 1.45.43 0 .48-.8.53-1.13.58-.6.04-1.19.23-1.7.56-.41.31-.62.82-.55 1.33-.05.52.16 1.03.57 1.36.38.28.85.42 1.32.42.3 0 .59-.02.89-.05.25-.03.5-.09.73-.19.12.14.3.23.49.24h.72V9.75c.02-.47-.22-.92-.61-1.18-.54-.3-1.16-.44-1.77-.4-.58-.04-1.15.13-1.61.49" fill="#1a3a67"/><g fill="#1a3a67"><path d="M29.81 7.04c-.4 0-.73.33-.73.73l.4 4.23h1.07l.24-4.95-.98-.01z"/><path d="M29.81 7.04c-.4 0-.73.33-.73.73l.4 4.23h1.07l.24-4.95-.98-.01z"/></g><g fill="#1a3a67"><path d="M29.37 12.57v1.36h.8c.25.03.48-.15.51-.4v-1l-1.31.04z"/><path d="M29.37 12.57v1.36h.8c.25.03.48-.15.51-.4v-1l-1.31.04z"/></g><path d="M7.64 16.97v-1.38H7.4v-.29h.24v-.27c0-.27.17-.42.5-.42h.26v.35h-.12c-.15 0-.23.06-.23.21v.12h.36v.28h-.36v1.39h-.41zM9.01 14.61h.41v.42h-.41v-.42zm0 .68h.41v1.68h-.41v-1.68zM10.19 16.97V15.3h.41v.17c.1-.13.25-.2.42-.2.28-.04.53.15.58.42.01.05 0 1.3 0 1.3h-.36v-1.02c0-.2-.1-.3-.28-.3-.09 0-.18.03-.25.1-.08.1-.11.22-.11.35v.89h-.4v-.04zM13.82 16.69c-.01.1.01.19.05.28h-.42a.203.203 0 01-.04-.15c-.15.12-.34.19-.54.19a.571.571 0 01-.41-.14.473.473 0 01-.16-.38c0-.4.67-.52.67-.52l.43-.16c0-.14-.1-.2-.32-.2a.372.372 0 00-.23.05c-.05 0-.07.1-.07.19h-.4c-.01-.17.07-.33.21-.43a.86.86 0 01.49-.13c.17-.01.34.02.5.1.16.09.25.27.23.45m-.4.56v-.24c-.06.03-.12.05-.19.06l-.22.06-.19.06c-.05.04-.09.1-.08.17 0 .06.03.11.07.14.05.04.12.06.19.06.1 0 .2-.02.28-.07a.29.29 0 00.14-.24M14.56 16.97V15.3h.41v.17a.56.56 0 01.45-.2.517.517 0 01.58.57v1.14h-.4v-1.02c0-.2-.09-.3-.28-.3-.09 0-.18.03-.25.1-.07.1-.11.22-.1.35V17h-.41v-.03zM18.25 15.73l-.35.17a.464.464 0 00-.13-.2.34.34 0 00-.22-.07c-.13 0-.25.07-.32.18a.56.56 0 00-.11.35c0 .12.03.24.1.35.07.1.19.16.31.16.19-.01.36-.14.41-.33l.34.19c-.11.32-.42.52-.75.51a.752.752 0 01-.6-.25.9.9 0 01-.22-.63c-.01-.23.07-.46.23-.64a.82.82 0 01.63-.24c.31-.02.6.17.7.47M20.44 16.23h-1.23c0 .12.05.23.14.3.08.07.18.11.29.12.19.01.37-.08.48-.24l.34.19c-.17.28-.41.42-.82.42-.27 0-.42-.07-.63-.26a.9.9 0 01-.22-.63c-.01-.23.07-.46.23-.63.17-.16.39-.25.62-.25.55.03.75.34.8.98m-1.23-.31h.82a.338.338 0 00-.09-.19.37.37 0 00-.29-.14c-.11 0-.21.03-.29.1a.39.39 0 00-.15.23" fill="#98c354"/><path d="M25.68 8.17a2.85 2.85 0 00-2.85 2.86v4.92h.71c.19 0 .37-.08.51-.21a.65.65 0 00.2-.51v-1.77c.43.26.92.4 1.43.4a2.86 2.86 0 100-5.72v.03zm.05 4.32c-.81 0-1.47-.65-1.47-1.45 0-.81.65-1.47 1.45-1.47.81 0 1.47.65 1.47 1.45v.02c0 .8-.65 1.45-1.45 1.45z" fill="#1a3a67"/></svg>