<svg xmlns="http://www.w3.org/2000/svg" role="img" width="38" height="24" viewBox="0 0 38 24" aria-labelledby="pi-snap_checkout"><title id="pi-snap_checkout">Snap Checkout</title><rect width="38" height="24" style="fill: #fff;opacity: 0"/><g><rect y="2.32" width="38" height="19.36" rx="1.77" style="fill: #003768"/><g><g><path id="pi-snap_checkout-SVGID" d="M4.53,7.94a1.87,1.87,0,0,0-.69,1.49,1.45,1.45,0,0,0,.48,1.14A3.78,3.78,0,0,0,6,11.31a6.57,6.57,0,0,0,.65.14c.66.14,1,.35,1,.64a.51.51,0,0,1-.28.46,1.68,1.68,0,0,1-.74.16,1.67,1.67,0,0,1-1-.23.9.9,0,0,1-.35-.72H3.7v.07a1.9,1.9,0,0,0,.69,1.59,3.13,3.13,0,0,0,2,.54,3.61,3.61,0,0,0,2.14-.52,1.92,1.92,0,0,0,.76-1.61,2.58,2.58,0,0,0,0-.39,1.4,1.4,0,0,0-.6-.88,3.69,3.69,0,0,0-1-.43c-.43-.13-.88-.21-1.31-.33a2.72,2.72,0,0,1-.62-.23c-.1-.06-.25-.19-.25-.32a.49.49,0,0,1,.22-.43,1.35,1.35,0,0,1,.71-.14,1.27,1.27,0,0,1,.78.21l.19.19a.76.76,0,0,0,.69.41h1A2.05,2.05,0,0,0,8.35,8a3.18,3.18,0,0,0-2-.54,2.82,2.82,0,0,0-1.86.53" style="fill: #fff"/><path id="pi-snap_checkout-SVGID-2" data-name="SVGID" d="M4.53,7.94a1.87,1.87,0,0,0-.69,1.49,1.45,1.45,0,0,0,.48,1.14A3.78,3.78,0,0,0,6,11.31a6.57,6.57,0,0,0,.65.14c.66.14,1,.35,1,.64a.51.51,0,0,1-.28.46,1.68,1.68,0,0,1-.74.16,1.67,1.67,0,0,1-1-.23.9.9,0,0,1-.35-.72H3.7v.07a1.9,1.9,0,0,0,.69,1.59,3.13,3.13,0,0,0,2,.54,3.61,3.61,0,0,0,2.14-.52,1.92,1.92,0,0,0,.76-1.61,2.58,2.58,0,0,0,0-.39,1.4,1.4,0,0,0-.6-.88,3.69,3.69,0,0,0-1-.43c-.43-.13-.88-.21-1.31-.33a2.72,2.72,0,0,1-.62-.23c-.1-.06-.25-.19-.25-.32a.49.49,0,0,1,.22-.43,1.35,1.35,0,0,1,.71-.14,1.27,1.27,0,0,1,.78.21l.19.19a.76.76,0,0,0,.69.41h1A2.05,2.05,0,0,0,8.35,8a3.18,3.18,0,0,0-2-.54,2.82,2.82,0,0,0-1.86.53" style="fill: #fff"/></g><g><path id="pi-snap_checkout-SVGID-3" data-name="SVGID" d="M9.62,10.12h0v3.73h1.66V10.06a1.1,1.1,0,1,1,2.2,0v3a.86.86,0,0,0,.22.59.82.82,0,0,0,.59.22h.82V10.09a2.75,2.75,0,0,0-5.5,0" style="fill: #fff"/><path id="pi-snap_checkout-SVGID-4" data-name="SVGID" d="M9.62,10.12h0v3.73h1.66V10.06a1.1,1.1,0,1,1,2.2,0v3a.86.86,0,0,0,.22.59.82.82,0,0,0,.59.22h.82V10.09a2.75,2.75,0,0,0-5.5,0" style="fill: #fff"/></g><g><path id="pi-snap_checkout-SVGID-5" data-name="SVGID" d="M17.17,12.55a.68.68,0,0,1-.06-1c.26-.31.82-.33,1.22-.41a4.73,4.73,0,0,0,1-.28v.54a1.16,1.16,0,0,1-.4.94,1.62,1.62,0,0,1-1.08.34,1.11,1.11,0,0,1-.64-.18m-.84-4.61a1.77,1.77,0,0,0-.67,1.21h1.58a.63.63,0,0,1,.39-.36c.43-.15,1.64-.23,1.64.48,0,.54-.9.6-1.27.65a4.09,4.09,0,0,0-1.92.63A1.63,1.63,0,0,0,15.5,12a1.74,1.74,0,0,0,.64,1.53,2.49,2.49,0,0,0,1.49.47,9,9,0,0,0,1-.06,2.83,2.83,0,0,0,.82-.21s0,0,0,0A.76.76,0,0,0,20,14h.81V9.17a1.53,1.53,0,0,0-.69-1.33,3.68,3.68,0,0,0-2-.45,2.68,2.68,0,0,0-1.82.55" style="fill: #fff"/><path id="pi-snap_checkout-SVGID-6" data-name="SVGID" d="M17.17,12.55a.68.68,0,0,1-.06-1c.26-.31.82-.33,1.22-.41a4.73,4.73,0,0,0,1-.28v.54a1.16,1.16,0,0,1-.4.94,1.62,1.62,0,0,1-1.08.34,1.11,1.11,0,0,1-.64-.18m-.84-4.61a1.77,1.77,0,0,0-.67,1.21h1.58a.63.63,0,0,1,.39-.36c.43-.15,1.64-.23,1.64.48,0,.54-.9.6-1.27.65a4.09,4.09,0,0,0-1.92.63A1.63,1.63,0,0,0,15.5,12a1.74,1.74,0,0,0,.64,1.53,2.49,2.49,0,0,0,1.49.47,9,9,0,0,0,1-.06,2.83,2.83,0,0,0,.82-.21s0,0,0,0A.76.76,0,0,0,20,14h.81V9.17a1.53,1.53,0,0,0-.69-1.33,3.68,3.68,0,0,0-2-.45,2.68,2.68,0,0,0-1.82.55" style="fill: #fff"/></g><g><path id="pi-snap_checkout-SVGID-7" data-name="SVGID" d="M29.21,6.11a.82.82,0,0,0-.82.82l.45,4.77h1.21l.27-5.59Z" style="fill: #fff"/><path id="pi-snap_checkout-SVGID-8" data-name="SVGID" d="M29.21,6.11a.82.82,0,0,0-.82.82l.45,4.77h1.21l.27-5.59Z" style="fill: #fff"/></g><g><path id="pi-snap_checkout-SVGID-9" data-name="SVGID" d="M28.71,12.35v1.54h.9a.52.52,0,0,0,.58-.58v-1Z" style="fill: #fff"/><path id="pi-snap_checkout-SVGID-10" data-name="SVGID" d="M28.71,12.35v1.54h.9a.52.52,0,0,0,.58-.58v-1Z" style="fill: #fff"/></g><path d="M4.19,17.32V15.76H3.92v-.33h.27v-.3c0-.31.19-.47.56-.47h.3v.4H4.91c-.17,0-.26.07-.26.24v.13h.41v.32H4.65v1.57Z" style="fill: #98c355"/><path d="M5.73,14.66h.46v.47H5.73Zm0,.77h.46v1.9H5.73Z" style="fill: #98c355"/><path d="M7.07,17.32V15.43h.46v.19A.63.63,0,0,1,8,15.39a.57.57,0,0,1,.65.65v1.29H8.24V16.18c0-.23-.11-.34-.32-.34a.41.41,0,0,0-.28.11.57.57,0,0,0-.12.39v1H7.07Z" style="fill: #98c355"/><path d="M11.16,16v1a.67.67,0,0,0,.06.32h-.47a.29.29,0,0,1-.05-.17.94.94,0,0,1-.61.21.66.66,0,0,1-.46-.16.55.55,0,0,1-.18-.43c0-.32.19-.52.57-.59l.19,0L10.7,16V16c0-.16-.11-.23-.36-.23a.39.39,0,0,0-.26.06c-.06,0-.08.11-.08.22H9.55a.55.55,0,0,1,.24-.48,1,1,0,0,1,.55-.15,1.18,1.18,0,0,1,.56.11.54.54,0,0,1,.26.51m-.46.64v-.27a.64.64,0,0,1-.21.07l-.25.06-.22.07a.21.21,0,0,0-.09.19.19.19,0,0,0,.08.16.31.31,0,0,0,.21.07.66.66,0,0,0,.32-.08.33.33,0,0,0,.16-.27" style="fill: #98c355"/><path d="M12,17.32V15.43h.46v.19a.63.63,0,0,1,.51-.23.58.58,0,0,1,.65.65v1.29h-.45V16.18c0-.23-.1-.34-.32-.34a.41.41,0,0,0-.28.11.57.57,0,0,0-.11.39v1H12Z" style="fill: #98c355"/><path d="M16.16,15.92l-.4.19a.61.61,0,0,0-.15-.23.44.44,0,0,0-.25-.08A.42.42,0,0,0,15,16a.62.62,0,0,0-.12.4.67.67,0,0,0,.11.39.41.41,0,0,0,.35.18.5.5,0,0,0,.46-.37l.38.21a.88.88,0,0,1-.85.58.87.87,0,0,1-.68-.28,1,1,0,0,1-.25-.71,1,1,0,0,1,.26-.72.93.93,0,0,1,.71-.27.79.79,0,0,1,.79.53" style="fill: #98c355"/><path d="M18.63,16.49H17.24a.46.46,0,0,0,.16.34.49.49,0,0,0,.33.13.63.63,0,0,0,.54-.27l.38.22a1,1,0,0,1-.92.47.88.88,0,0,1-.71-.29,1,1,0,0,1-.25-.71,1,1,0,0,1,.26-.71,1,1,0,0,1,.7-.28c.6,0,.9.36.9,1.1m-1.39-.35h.92a.36.36,0,0,0-.1-.22.44.44,0,0,0-.33-.16.55.55,0,0,0-.33.11.53.53,0,0,0-.16.27" style="fill: #98c355"/><path d="M24.55,7.39a3.23,3.23,0,0,0-3.22,3.23h0v5.55h.8a.78.78,0,0,0,.57-.24.75.75,0,0,0,.23-.57v-2a3.17,3.17,0,0,0,1.61.45,3.23,3.23,0,0,0,0-6.46Zm.05,4.87a1.65,1.65,0,1,1,1.64-1.64A1.64,1.64,0,0,1,24.6,12.26Z" style="fill: #fff"/></g></g></svg>