<svg xmlns="http://www.w3.org/2000/svg" role="img" viewBox="0 0 38 24" width="38" height="24" aria-labelledby="pi-snap_checkout"><title id="pi-snap_checkout">Snap Checkout</title><g fill="#062d4e"><path fill="#000" opacity=".07" d="M35 0H3C1.3 0 0 1.3 0 3v18c0 1.7 1.4 3 3 3h32c1.7 0 3-1.3 3-3V3c0-1.7-1.4-3-3-3z"/><path fill="#fff" d="M35 1c1.1 0 2 .9 2 2v18c0 1.1-.9 2-2 2H3c-1.1 0-2-.9-2-2V3c0-1.1.9-2 2-2h32"/><path d="M4.8 14.2c-.5-.2-.9-.6-1.2-1-.3-.4-.5-.9-.5-1.4h1.8c0 .4.2.7.5.9.3.2.7.4 1.2.4s.9-.1 1.1-.3c.3-.2.4-.4.4-.7 0-.3-.2-.5-.4-.7-.3-.2-.8-.3-1.4-.5-.6-.2-1.1-.3-1.5-.5-.5-.1-.8-.4-1.1-.7-.3-.4-.5-.8-.5-1.3 0-.4.1-.9.4-1.2.3-.4.6-.7 1.1-.9.6-.3 1.1-.4 1.8-.4.9 0 1.7.2 2.3.7s.9 1.1.9 2H8c0-.4-.2-.7-.5-.9-.3-.2-.6-.3-1.1-.3-.5 0-.8.1-1 .3-.3.1-.4.4-.4.6 0 .2.1.4.2.6.2.1.4.3.6.4.2.1.6.2 1 .3.7.1 1.2.3 1.6.5.4.2.7.4 1 .7.3.3.4.8.4 1.3s-.1.9-.4 1.3c-.3.4-.6.7-1.1.9-.5.2-1 .3-1.7.3s-1.2-.1-1.8-.4zm11.9-7.9c.5.3.9.7 1.2 1.2.3.5.4 1.2.4 1.9v4.9h-1.7V9.8c0-.7-.2-1.3-.6-1.7-.4-.4-.9-.6-1.5-.6s-1.1.1-1.5.5c-.4.4-.6 1-.6 1.7v4.7h-1.7V6.1h1.7v1c.3-.3.6-.6 1.1-.8.5-.3 1-.4 1.5-.4.6 0 1.2.2 1.7.4zM19.8 8c.3-.7.8-1.2 1.4-1.5.6-.4 1.3-.5 2-.5s1.2.1 1.7.4c.5.3.9.6 1.2 1V6.1h1.7v8.4h-1.7v-1.2c-.3.4-.7.7-1.2 1-.5.3-1.1.4-1.7.4-.7 0-1.4-.2-2-.6-.6-.4-1.1-.9-1.4-1.5-.3-.7-.5-1.4-.5-2.3 0-.9.2-1.7.5-2.3zm6 .7c-.2-.4-.5-.7-.9-1-.4-.2-.8-.3-1.2-.3-.4 0-.9.1-1.2.3-.4.2-.7.5-.9 1-.2.4-.4.9-.4 1.5s.1 1.1.4 1.5c.2.4.5.8.9 1 .4.2.8.3 1.2.3.4 0 .9-.1 1.2-.3.4-.2.7-.5.9-1 .2-.4.4-.9.4-1.5 0-.5-.2-1-.4-1.5zm6.3-2.4c.5-.3 1.1-.4 1.7-.4.7 0 1.4.2 2 .5.6.4 1.1.9 1.4 1.5.3.7.5 1.4.5 2.2 0 .8-.2 1.6-.5 2.3-.3.7-.8 1.2-1.4 1.5-.6.4-1.3.6-2 .6-.6 0-1.2-.1-1.7-.4-.5-.3-.9-.6-1.2-1v5.2h-1.7V6.1h1.7v1.2c.3-.4.7-.7 1.2-1zm3.6 2.4c-.2-.4-.5-.7-.9-1-.4-.2-.8-.3-1.3-.3-.4 0-.8.1-1.2.3-.4.2-.7.5-.9 1-.2.4-.4.9-.4 1.5s.1 1.1.4 1.5c.2.4.5.8.9 1 .4.2.8.3 1.2.3.4 0 .9-.1 1.3-.3.4-.2.7-.6.9-1 .2-.4.4-.9.4-1.5s-.2-1.1-.4-1.5z"/></g><circle cx="3.4" cy="5.4" r=".6" fill="#1b844a"/><path d="M1.2 9.1c-.1 0-.3-.1-.4-.3-.1-.3 0-.5.3-.7l.7-.3c.3-.1.5 0 .7.3.1.3 0 .5-.3.7l-.7.2c-.1.1-.2.1-.3.1z" fill="#062d4e"/><path d="M5 5.3s-.1 0 0 0c-.3-.1-.5-.3-.5-.6l.3-1.4c0-.3.3-.5.6-.4.3.1.5.3.4.6l-.3 1.4c0 .2-.3.4-.5.4z" fill="#ffca4d"/><path d="M2.3 7.1h-.2L.5 6.5c-.3-.1-.4-.4-.3-.7.1-.3.4-.4.7-.3l1.7.7c.3.1.4.4.3.7-.2.1-.4.3-.6.2z" fill="#3d5ccf"/><path d="M2.4 4.6c-.1 0-.3 0-.4-.2l-.6-.8c-.1-.2-.1-.6.2-.7s.5-.1.7.1l.6.8c.1.3 0 .6-.2.7-.1.1-.2.1-.3.1z" fill="#1b844a"/><path d="M27.2 21.4H7.7c-.5 0-.8-.4-.8-.8v-4c0-.5.4-.8.8-.8h19.5c.5 0 .8.4.8.8v4c0 .4-.4.8-.8.8z" fill="#3d5ccf"/><path d="M10.8 17v2.5h-.5V17h.5zm2.5 1.7h-1.4c0 .1.1.2.1.3.1.1.2.1.3.1.2 0 .3-.1.4-.2h.5c-.1.2-.2.3-.3.4-.2.1-.3.2-.6.2-.2 0-.3 0-.5-.1s-.3-.2-.3-.3-.1-.3-.1-.5 0-.4.1-.5.2-.3.3-.3.3-.1.5-.1.3 0 .5.1c.1.1.3.2.3.3.1.1.1.3.1.5.1 0 .1 0 .1.1zm-.5-.3c0-.1 0-.2-.1-.3-.1-.1-.2-.1-.3-.1-.1 0-.2 0-.3.1-.1.1-.1.2-.2.3h.9zM14 18c.1-.2.2-.3.3-.3.1-.1.3-.1.4-.1.1 0 .3 0 .4.1.1.1.2.1.3.2v-.3h.5v1.9h-.5v-.3c-.1.1-.1.2-.3.2-.1.1-.2.1-.4.1s-.3 0-.4-.1l-.3-.3c-.1-.2-.1-.3-.1-.5 0-.3 0-.4.1-.6zm1.3.2c0-.1-.1-.1-.2-.2h-.2c-.1 0-.2 0-.2.1-.1 0-.1.1-.2.2 0 .1-.1.2-.1.3s0 .2.1.3c0 .1.1.2.2.2s.2.1.2.1c.1 0 .2 0 .2-.1s.1-.1.2-.2c0-.1.1-.2.1-.3 0-.2 0-.3-.1-.4zm1.7 1.2c-.1-.1-.2-.1-.3-.2-.1-.1-.1-.2-.1-.3h.5c0 .1 0 .1.1.2s.1.1.2.1.2 0 .2-.1c.1 0 .1-.1.1-.1 0-.1 0-.1-.1-.1s-.2-.1-.3-.1c-.1 0-.3-.1-.3-.1-.1 0-.2-.1-.2-.2-.1-.1-.1-.2-.1-.3 0-.1 0-.2.1-.3.1-.1.2-.2.3-.2.1-.1.2-.1.4-.1s.4.1.5.2c.1.1.2.3.2.5h-.4c0-.1 0-.1-.1-.2-.1 0-.1-.1-.2-.1s-.2 0-.2.1l-.1.1c0 .1 0 .1.1.1s.2.1.3.1c.1 0 .2.1.3.1s.2.1.2.2c.1.1.1.2.1.3 0 .1 0 .2-.1.3-.1.1-.1.2-.3.2-.1.1-.2.1-.4.1-.1-.1-.3-.1-.4-.2zm1.9-2.1c-.1-.1-.1-.1-.1-.2s0-.1.1-.2.1-.1.2-.1.2 0 .2.1c.1.1.1.1.1.2s0 .1-.1.2-.1.1-.2.1-.1-.1-.2-.1zm.4.3v1.9h-.5v-1.9h.5zm2.4.2c.1.1.2.3.2.6v1.1h-.5v-1c0-.2 0-.3-.1-.3 0-.2-.1-.2-.3-.2-.1 0-.2 0-.3.1-.1.1-.1.2-.1.3v1h-.5v-1.9h.5v.2l.2-.2c.1 0 .2-.1.3-.1.3.2.5.2.6.4zm2.2-.2c.1.1.2.1.3.2v-.3h.5v1.9c0 .2 0 .3-.1.5l-.3.3c-.1.1-.3.1-.5.1-.3 0-.5-.1-.7-.2-.2-.1-.3-.3-.3-.5h.5c0 .1.1.2.2.2.1.1.2.1.3.1.1 0 .3 0 .3-.1.1-.1.1-.2.1-.4v-.3c-.1.1-.1.2-.3.2-.1.1-.2.1-.4.1s-.3 0-.4-.1l-.3-.3c-.1-.2-.1-.3-.1-.5s0-.4.1-.5c.1-.2.2-.3.3-.3.1-.1.3-.1.4-.1h.4zm.1.6c0-.1-.1-.1-.2-.2-.1 0-.2-.1-.2-.1-.1 0-.2 0-.2.1-.1 0-.1.1-.2.2 0 .1-.1.2-.1.3s0 .2.1.3.1.2.2.2.2.1.2.1c.1 0 .2 0 .2-.1.1 0 .1-.1.2-.2 0-.1.1-.2.1-.3 0-.1 0-.2-.1-.3z" fill="#fff"/></svg>
