<svg xmlns="http://www.w3.org/2000/svg" width="38" height="24" fill="none" aria-labelledby="pi-snap_checkout" role="img" viewBox="0 0 38 24"><title id="pi-snap_checkout">Snap Checkout</title><path fill="#fff" d="M0 0h38v24H0z"/><path fill="#1A3A67" d="M7.94 8.66c-.4.32-.62.81-.61 1.32-.02.38.14.75.43 1.01.43.34.95.56 1.49.66.19.05.38.09.58.12.58.12.89.31.89.57 0 .17-.09.33-.25.41-.2.1-.43.15-.66.14-.31.03-.62-.04-.89-.2a.8.8 0 0 1-.31-.64h-1.4v.06c-.03.54.19 1.07.61 1.41.52.36 1.14.52 1.77.48.66.05 1.33-.11 1.9-.46.44-.34.7-.87.67-1.43v-.35c-.07-.32-.26-.6-.53-.78-.27-.17-.57-.3-.89-.38-.38-.12-.78-.19-1.16-.29a2.6 2.6 0 0 1-.55-.2c-.09-.05-.22-.17-.22-.28a.43.43 0 0 1 .2-.39c.19-.1.41-.14.63-.13.24-.01.49.05.69.19l.17.17c.12.23.36.37.61.36H12a1.84 1.84 0 0 0-.66-1.32 2.84 2.84 0 0 0-1.77-.48c-.6-.04-1.19.13-1.66.47"/><path fill="#1A3A67" d="M7.94 8.66c-.4.32-.62.81-.61 1.32-.02.38.14.75.43 1.01.43.34.95.56 1.49.66.19.05.38.09.58.12.58.12.89.31.89.57 0 .17-.09.33-.25.41-.2.1-.43.15-.66.14-.31.03-.62-.04-.89-.2a.8.8 0 0 1-.31-.64h-1.4v.06c-.03.54.19 1.07.61 1.41.52.36 1.14.52 1.77.48.66.05 1.33-.11 1.9-.46.44-.34.7-.87.67-1.43v-.35c-.07-.32-.26-.6-.53-.78-.27-.17-.57-.3-.89-.38-.38-.12-.78-.19-1.16-.29a2.6 2.6 0 0 1-.55-.2c-.09-.05-.22-.17-.22-.28a.43.43 0 0 1 .2-.39c.19-.1.41-.14.63-.13.24-.01.49.05.69.19l.17.17c.12.23.36.37.61.36H12a1.84 1.84 0 0 0-.66-1.32 2.84 2.84 0 0 0-1.77-.48c-.6-.04-1.19.13-1.66.47m4.54 1.89v3.31h1.47v-3.36c0-.54.44-.97.97-.98.54 0 .97.44.98.97v2.66c0 .19.07.38.19.52.14.13.33.2.52.19h.73v-3.35a2.44 2.44 0 1 0-4.88 0"/><path fill="#1A3A67" d="M12.45 10.59v3.31h1.47v-3.36c0-.54.44-.97.97-.98.54 0 .97.44.98.97v2.66c0 .19.07.38.19.52.14.13.33.2.52.19h.73v-3.35a2.44 2.44 0 1 0-4.88 0m6.71 2.19a.6.6 0 0 1-.09-.85l.03-.04c.23-.27.73-.29 1.08-.36.3-.05.6-.13.89-.25v.48a1 1 0 0 1-.35.83c-.27.21-.61.33-.96.3-.15 0-.6-.11-.6-.11m-.71-4.13c-.34.26-.55.65-.59 1.07h1.4a.56.56 0 0 1 .35-.32c.38-.13 1.45-.2 1.45.43 0 .48-.8.53-1.13.58-.6.04-1.19.23-1.7.56-.41.31-.62.82-.55 1.33-.05.52.16 1.03.57 1.36.38.28.85.42 1.32.42.3 0 .59-.02.89-.05.25-.03.5-.09.73-.19.12.14.3.23.49.24h.72V9.75c.02-.47-.22-.92-.61-1.18a3.23 3.23 0 0 0-1.77-.4 2.34 2.34 0 0 0-1.61.49m11.42-1.62c-.4 0-.73.33-.73.73l.4 4.23h1.07l.24-4.95z"/><path fill="#1A3A67" d="M29.81 7.04c-.4 0-.73.33-.73.73l.4 4.23h1.07l.24-4.95zm-.44 5.53v1.36h.8c.25.03.48-.15.51-.4v-1z"/><path fill="#1A3A67" d="M29.37 12.57v1.36h.8c.25.03.48-.15.51-.4v-1z"/><path fill="#98C354" d="M7.64 16.97v-1.38H7.4v-.29h.24v-.27c0-.27.17-.42.5-.42h.26v.35h-.12c-.15 0-.23.06-.23.21v.12h.36v.28h-.36v1.39h-.41zm1.37-2.36h.41v.42h-.41zm0 .68h.41v1.68h-.41zm1.18 1.68V15.3h.41v.17c.1-.13.25-.2.42-.2.28-.04.53.15.58.42v1.3h-.36v-1.02c0-.2-.1-.3-.28-.3a.35.35 0 0 0-.25.1.54.54 0 0 0-.11.35v.89h-.4v-.04zm3.63-.28c-.01.1.01.19.05.28h-.42a.2.2 0 0 1-.04-.15.87.87 0 0 1-.54.19.57.57 0 0 1-.41-.14.47.47 0 0 1-.16-.38c0-.4.67-.52.67-.52l.43-.16c0-.14-.1-.2-.32-.2a.37.37 0 0 0-.23.05c-.05 0-.07.1-.07.19h-.4a.5.5 0 0 1 .21-.43.86.86 0 0 1 .49-.13c.17-.01.34.02.5.1.16.09.25.27.23.45m-.4.56v-.24a.6.6 0 0 1-.19.06l-.22.06-.19.06c-.05.04-.09.1-.08.17 0 .06.03.11.07.14a.3.3 0 0 0 .19.06c.1 0 .2-.02.28-.07a.3.3 0 0 0 .14-.24m1.15.57V15.3h.41v.17a.56.56 0 0 1 .45-.2.52.52 0 0 1 .58.57v1.14h-.4v-1.02c0-.2-.09-.3-.28-.3a.35.35 0 0 0-.25.1.53.53 0 0 0-.1.35V17h-.41zm3.69-1.24-.35.17a.46.46 0 0 0-.13-.2.34.34 0 0 0-.22-.07.38.38 0 0 0-.32.18.64.64 0 0 0-.01.7c.07.1.19.16.31.16a.45.45 0 0 0 .41-.33l.34.19a.77.77 0 0 1-.75.51.75.75 0 0 1-.6-.25.9.9 0 0 1-.22-.63.9.9 0 0 1 .23-.64.82.82 0 0 1 .63-.24.7.7 0 0 1 .7.47m2.17.48h-1.23c0 .12.05.23.14.3a.5.5 0 0 0 .29.12c.19.01.37-.08.48-.24l.34.19c-.17.28-.41.42-.82.42-.27 0-.42-.07-.63-.26a.9.9 0 0 1-.22-.63.87.87 0 0 1 .23-.63.9.9 0 0 1 .62-.25c.55.03.75.34.8.98m-1.23-.31h.82a.34.34 0 0 0-.09-.19.37.37 0 0 0-.29-.14.43.43 0 0 0-.29.1.4.4 0 0 0-.15.23"/><path fill="#1A3A67" d="M25.68 8.17a2.85 2.85 0 0 0-2.85 2.86v4.92h.71c.19 0 .37-.08.51-.21a.65.65 0 0 0 .2-.51v-1.77a2.86 2.86 0 1 0 1.43-5.32zm.05 4.32a1.46 1.46 0 1 1 1.45-1.47v.02c0 .8-.65 1.45-1.45 1.45"/></svg>