<svg xmlns="http://www.w3.org/2000/svg" role="img" viewBox="0 0 38 24" width="38" height="24" aria-labelledby="pi-snap_checkout"><title id="pi-snap_checkout">Snap Checkout</title><path fill="#000" opacity=".07" d="M35 0H3C1.3 0 0 1.3 0 3v18c0 1.7 1.4 3 3 3h32c1.7 0 3-1.3 3-3V3c0-1.7-1.4-3-3-3z"/><path fill="#fff" d="M35 1c1.1 0 2 .9 2 2v18c0 1.1-.9 2-2 2H3c-1.1 0-2-.9-2-2V3c0-1.1.9-2 2-2h32"/><g fill="#062d4e"><path d="M6.325 13.801c-.468-.216-.838-.501-1.111-.874a2.165 2.165 0 01-.434-1.234h1.608c.028.317.178.584.457.798.277.216.622.317 1.043.317.434 0 .777-.085 1.014-.252.243-.165.364-.385.364-.645 0-.281-.135-.489-.402-.626-.269-.135-.694-.286-1.272-.449-.565-.152-1.022-.305-1.375-.449s-.658-.368-.918-.669c-.26-.3-.389-.694-.389-1.183 0-.398.116-.766.355-1.098.233-.332.573-.597 1.014-.785.44-.193.946-.286 1.519-.286.851 0 1.543.216 2.061.645s.802 1.022.838 1.767H9.146c-.028-.336-.161-.605-.406-.802-.248-.201-.58-.3-.995-.3-.406 0-.722.076-.94.233a.712.712 0 00-.328.614c0 .201.072.368.22.501.144.135.322.243.533.317s.518.174.927.29c.546.144.99.29 1.342.444.349.148.65.372.906.658.256.29.385.677.394 1.155 0 .425-.116.806-.355 1.143s-.569.601-.999.789c-.43.193-.935.286-1.519.286-.601.013-1.128-.091-1.6-.307zM16.989 6.739c.468.248.834.609 1.098 1.09s.394 1.062.394 1.744V14h-1.536V9.804c0-.673-.169-1.187-.501-1.547-.336-.36-.793-.537-1.375-.537s-1.043.178-1.38.537c-.341.36-.51.874-.51 1.547v4.194H11.63V6.493h1.551v.855c.256-.309.58-.552.973-.722s.815-.26 1.259-.26c.584.008 1.113.127 1.576.375zM19.77 8.21a3.418 3.418 0 011.28-1.354 3.442 3.442 0 011.792-.485c.592 0 1.107.116 1.547.349s.793.518 1.058.865V6.491h1.568v7.505h-1.568v-1.117a3.1 3.1 0 01-1.075.887c-.453.237-.973.355-1.551.355a3.289 3.289 0 01-1.771-.497c-.537-.332-.959-.793-1.272-1.388s-.472-1.267-.472-2.021c-.008-.758.15-1.424.463-2.006zm5.351.679a2.284 2.284 0 00-.838-.874 2.179 2.179 0 00-1.117-.3c-.398 0-.77.097-1.117.29-.345.197-.622.48-.838.855-.216.377-.317.825-.317 1.342s.108.973.317 1.363c.216.389.493.69.842.893.349.205.722.305 1.111.305.398 0 .77-.097 1.117-.3.345-.201.622-.493.838-.878s.317-.838.317-1.354c.006-.504-.102-.959-.315-1.339zM30.807 6.725a3.271 3.271 0 011.538-.355 3.42 3.42 0 011.792.485 3.39 3.39 0 011.272 1.354c.309.584.461 1.251.461 2.004s-.152 1.43-.461 2.021a3.448 3.448 0 01-1.272 1.388 3.36 3.36 0 01-1.792.497c-.573 0-1.079-.116-1.524-.349s-.806-.518-1.09-.865v4.655H28.18V6.492h1.551v1.102c.264-.341.622-.631 1.075-.87zm3.168 2.148a2.172 2.172 0 00-.842-.855 2.257 2.257 0 00-1.126-.294c-.389 0-.762.097-1.111.3a2.204 2.204 0 00-.842.874c-.216.381-.317.829-.317 1.35s.108.967.317 1.354c.216.385.493.681.842.878.349.201.722.3 1.111.3.398 0 .777-.104 1.126-.305.349-.205.631-.501.842-.893.216-.389.317-.842.317-1.363s-.102-.971-.317-1.348z"/></g><circle fill="#1b844a" cx="5.008" cy="5.859" r=".497"/><path fill="#062d4e" d="M3.102 9.186a.45.45 0 01-.389-.269.45.45 0 01.229-.597l.592-.264c.229-.097.493 0 .597.229s0 .493-.229.597l-.592.264a.396.396 0 01-.207.04z"/><path fill="#ffca4d" d="M6.468 5.789a.261.261 0 01-.057-.008.449.449 0 01-.368-.525l.233-1.255a.452.452 0 01.889.161l-.231 1.255a.452.452 0 01-.466.372z"/><path fill="#3d5ccf" d="M4.043 7.461a.336.336 0 01-.148-.032l-1.483-.592a.46.46 0 01-.252-.588.453.453 0 01.588-.252l1.483.597a.447.447 0 01.252.584.448.448 0 01-.44.284z"/><path fill="#1b844a" d="M4.156 5.21a.43.43 0 01-.345-.193l-.533-.751a.45.45 0 01.734-.518l.529.753a.45.45 0 01-.385.709z"/><g><path fill="#3d5ccf" d="M26.352 20.242H8.906a.758.758 0 01-.758-.758v-3.599c0-.421.341-.758.758-.758h17.451c.421 0 .758.341.758.758v3.599a.761.761 0 01-.762.758z"/><g fill="#fff"><path d="M11.64 16.253v2.273h-.43v-2.273h.43zM13.938 17.804h-1.246c.008.121.053.22.131.286a.386.386 0 00.277.104c.161 0 .273-.068.341-.205h.468a.761.761 0 01-.281.402.809.809 0 01-.514.157.89.89 0 01-.44-.108c-.131-.072-.233-.174-.305-.309s-.108-.286-.108-.461.036-.332.108-.468.169-.237.3-.309a.9.9 0 01.444-.108c.161 0 .305.036.434.104a.751.751 0 01.3.294.886.886 0 01.108.44 1.139 1.139 0 01-.017.182zm-.434-.292a.322.322 0 00-.121-.264.414.414 0 00-.286-.097.385.385 0 00-.269.097.447.447 0 00-.135.269h.81v-.004zM14.566 17.207a.752.752 0 01.277-.309.743.743 0 01.394-.108c.125 0 .237.028.332.076a.708.708 0 01.229.193v-.243h.434v1.701h-.434v-.25a.585.585 0 01-.229.197.688.688 0 01-.336.076.691.691 0 01-.389-.112.764.764 0 01-.277-.313 1.004 1.004 0 01-.104-.461c0-.161.036-.311.104-.446zm1.179.197a.385.385 0 00-.165-.169c-.072-.04-.144-.057-.224-.057s-.152.019-.22.057a.447.447 0 00-.165.169.55.55 0 00-.061.264.6.6 0 00.061.269.435.435 0 00.385.235.432.432 0 00.389-.226.632.632 0 000-.542zM17.224 18.475a.64.64 0 01-.264-.205.56.56 0 01-.108-.286h.434c.008.068.04.121.099.161a.326.326 0 00.209.061c.08 0 .148-.019.193-.049s.068-.076.068-.125c0-.053-.028-.099-.085-.125a1.6 1.6 0 00-.269-.089c-.125-.032-.233-.061-.313-.093s-.152-.085-.209-.152-.089-.157-.089-.273c0-.093.028-.178.08-.26a.563.563 0 01.233-.184.903.903 0 01.36-.068c.201 0 .364.049.485.152a.567.567 0 01.201.413h-.402a.219.219 0 00-.085-.161.308.308 0 00-.201-.057c-.076 0-.14.013-.178.044a.139.139 0 00-.061.121c0 .057.028.104.085.131.057.032.148.057.269.089s.224.061.305.093c.08.032.148.085.205.152s.089.161.089.273c0 .099-.028.188-.08.264s-.131.14-.233.184-.22.068-.355.068a.874.874 0 01-.381-.08zM18.936 16.549a.244.244 0 01-.076-.178.254.254 0 01.264-.25.252.252 0 01.264.25.254.254 0 01-.264.25.291.291 0 01-.188-.072zm.404.273v1.701h-.43v-1.701h.43zM21.486 16.987c.125.131.188.305.188.537v.999h-.43v-.94a.45.45 0 00-.104-.313.364.364 0 00-.277-.108.371.371 0 00-.281.108c-.068.072-.104.174-.104.313v.94h-.43v-1.701h.43v.209a.623.623 0 01.51-.235c.212.004.372.066.497.19zM23.386 16.871a.621.621 0 01.229.197v-.243h.434v1.716c0 .157-.032.3-.093.421a.66.66 0 01-.286.294.917.917 0 01-.461.108c-.243 0-.44-.057-.597-.169s-.243-.264-.264-.461h.425c.023.076.072.14.148.184a.531.531 0 00.273.068.415.415 0 00.305-.112c.076-.076.116-.188.116-.341v-.264a.677.677 0 01-.561.281.72.72 0 01-.394-.112.765.765 0 01-.281-.313 1.004 1.004 0 01-.104-.461c0-.169.036-.322.104-.457a.752.752 0 01.277-.309.743.743 0 01.394-.108.857.857 0 01.336.083zm.165.533a.42.42 0 00-.165-.169c-.072-.04-.144-.057-.224-.057s-.152.019-.22.057a.447.447 0 00-.165.169.55.55 0 00-.061.264.6.6 0 00.061.269.44.44 0 00.774.009.568.568 0 00.061-.269.535.535 0 00-.061-.273z"/></g></g></svg>
