<svg xmlns="http://www.w3.org/2000/svg" xmlns:xlink="http://www.w3.org/1999/xlink" viewBox="0 0 38 24" width="38" height="24" role="img" aria-labelledby="pi-snaplogo"><title id="pi-snaplogo">Snap Checkout UK</title><path fill="#FFFFFF" d="M34.1,24H3.9C1.8,24,0,22.2,0,20.1V3.9C0,1.8,1.8,0,3.9,0h30.1C36.2,0,38,1.8,38,3.9v16.1 C38,22.2,36.2,24,34.1,24z"/><path fill="#0D2B47" d="M7.2,14.7c-0.4-0.2-0.8-0.5-1-0.8c-0.3-0.3-0.4-0.8-0.4-1.2h1.5c0,0.3,0.2,0.5,0.4,0.8c0.3,0.2,0.6,0.3,1,0.3 s0.8-0.1,0.9-0.3C9.9,13.4,10,13.2,10,13s-0.1-0.4-0.3-0.6c-0.3-0.2-0.7-0.3-1.2-0.4c-0.5-0.2-0.9-0.3-1.3-0.4 c-0.3-0.2-0.6-0.3-0.8-0.6s-0.4-0.7-0.4-1.1c0-0.3,0.1-0.7,0.3-1c0.2-0.3,0.5-0.6,0.9-0.8C7.6,7.9,8,7.8,8.6,7.8 c0.8,0,1.4,0.2,1.9,0.6c0.5,0.4,0.8,0.9,0.8,1.7H9.9C9.8,9.8,9.7,9.5,9.5,9.3C9.2,9.2,8.9,9,8.5,9C8.1,9,7.9,9.1,7.7,9.3 C7.4,9.4,7.3,9.6,7.3,9.8c0,0.2,0.1,0.3,0.2,0.5c0.2,0.2,0.3,0.3,0.5,0.3c0.2,0.1,0.5,0.2,0.8,0.3c0.5,0.2,0.9,0.3,1.3,0.4 c0.3,0.2,0.6,0.3,0.8,0.6s0.3,0.6,0.3,1.1c0,0.4-0.1,0.8-0.3,1.1c-0.2,0.3-0.4,0.4-0.8,0.7c-0.4,0.2-0.8,0.3-1.4,0.3 S7.7,15,7.2,14.7L7.2,14.7z"/><path fill="#0D2B47" d="M17.2,8.2c0.4,0.3,0.8,0.6,1,1c0.3,0.4,0.3,1,0.3,1.6v4.1h-1.4V11c0-0.6-0.2-1.1-0.5-1.4 c-0.3-0.3-0.8-0.5-1.3-0.5s-1,0.2-1.3,0.5c-0.3,0.3-0.5,0.8-0.5,1.4v3.9h-1.4v-7h1.4v0.8c0.3-0.3,0.5-0.5,0.9-0.7 c0.4-0.2,0.8-0.3,1.2-0.3C16.3,7.8,16.7,7.9,17.2,8.2L17.2,8.2z"/><path fill="#0D2B47" d="M19.6,9.5c0.3-0.5,0.7-0.9,1.2-1.3c0.5-0.3,1.1-0.4,1.7-0.4c0.6,0,1,0.1,1.4,0.3s0.8,0.5,1,0.8V7.9h1.4v7h-1.4 v-1c-0.3,0.3-0.6,0.6-1,0.8s-0.9,0.3-1.4,0.3c-0.6,0-1.2-0.2-1.7-0.5s-0.9-0.8-1.2-1.3c-0.3-0.6-0.4-1.2-0.4-1.9 C19.2,10.7,19.3,10.1,19.6,9.5L19.6,9.5z M24.6,10.2c-0.2-0.3-0.4-0.6-0.8-0.8c-0.3-0.2-0.7-0.3-1-0.3s-0.8,0.1-1,0.3 c-0.3,0.2-0.6,0.4-0.8,0.8c-0.2,0.3-0.3,0.8-0.3,1.3s0.1,0.9,0.3,1.3c0.2,0.3,0.4,0.7,0.8,0.8c0.3,0.2,0.7,0.3,1,0.3s0.8-0.1,1-0.3 c0.3-0.2,0.6-0.4,0.8-0.8c0.2-0.3,0.3-0.8,0.3-1.3S24.8,10.5,24.6,10.2z"/><path fill="#0D2B47" d="M30,8.2c0.4-0.3,0.9-0.3,1.4-0.3c0.6,0,1.2,0.2,1.7,0.4C33.6,8.6,34,9,34.3,9.5c0.3,0.5,0.4,1.2,0.4,1.9 c0,0.7-0.2,1.4-0.4,1.9c-0.3,0.6-0.7,1-1.2,1.3C32.6,14.8,32,15,31.4,15c-0.5,0-1-0.1-1.4-0.3c-0.4-0.3-0.8-0.5-1-0.8v4.4h-1.4V7.9 H29v1C29.2,8.7,29.6,8.3,30,8.2L30,8.2z M32.9,10.2c-0.2-0.3-0.4-0.6-0.8-0.8c-0.3-0.2-0.7-0.3-1-0.3c-0.3,0-0.7,0.1-1,0.3 c-0.3,0.2-0.6,0.4-0.8,0.8c-0.2,0.3-0.3,0.8-0.3,1.3s0.1,0.9,0.3,1.3c0.2,0.3,0.4,0.7,0.8,0.8c0.3,0.2,0.7,0.3,1,0.3 c0.3,0,0.8-0.1,1-0.3c0.3-0.2,0.6-0.5,0.8-0.8c0.2-0.3,0.3-0.8,0.3-1.3C33.2,10.9,33.1,10.5,32.9,10.2z"/><circle fill="#0D2B47" cx="6" cy="7.3" r="0.5"/><path fill="#0D2B47" d="M4.2,10.4c-0.2,0-0.3-0.1-0.4-0.3c-0.1-0.3,0-0.4,0.3-0.6l0.6-0.2c0.3-0.1,0.4,0,0.6,0.3c0.1,0.3,0,0.4-0.3,0.6 l-0.6,0.3C4.3,10.4,4.3,10.4,4.2,10.4L4.2,10.4z"/><path fill="#0D2B47" d="M7.3,7.2L7.3,7.2C7.1,7.2,6.9,7,6.9,6.8l0.3-1.2c0-0.3,0.3-0.4,0.5-0.3C7.9,5.3,8,5.5,8,5.7L7.8,6.9 C7.8,7.1,7.6,7.3,7.3,7.2z"/><path fill="#0D2B47" d="M5.1,8.8c-0.1,0-0.1,0-0.2,0L3.5,8.2C3.4,8.2,3.2,7.9,3.3,7.7c0.1-0.3,0.3-0.3,0.5-0.3l1.4,0.6 c0.3,0,0.4,0.3,0.3,0.5C5.4,8.7,5.2,8.8,5.1,8.8L5.1,8.8z"/><path fill="#0D2B47" d="M5.1,6.7c-0.1,0-0.3-0.1-0.3-0.2L4.4,5.9C4.2,5.6,4.3,5.4,4.5,5.3c0.2-0.2,0.4-0.1,0.6,0.1L5.6,6 c0.1,0.2,0.1,0.5-0.1,0.6C5.4,6.7,5.3,6.7,5.1,6.7L5.1,6.7z"/><path fill="#0D2B47" d="M9.4,17.4H9v1.8H8.3v-1.8H8v-0.6h0.3v-0.1c0-0.3,0.1-0.5,0.3-0.7c0.2-0.2,0.4-0.3,0.8-0.3c0.1,0,0.1,0,0.1,0 v0.6c-0.2,0-0.3,0-0.3,0.1s-0.1,0.2-0.1,0.3l0,0h0.4V17.4L9.4,17.4z"/><path fill="#0D2B47" d="M10.1,16.4C10,16.3,10,16.3,10,16.2s0-0.2,0.1-0.3c0.1-0.1,0.2-0.1,0.3-0.1c0.2,0,0.3,0,0.3,0.1 c0.1,0.1,0.1,0.2,0.1,0.3s0,0.2-0.1,0.3c-0.1,0.1-0.3,0.1-0.4,0.1C10.3,16.5,10.2,16.5,10.1,16.4z M10.8,16.8v2.4H10v-2.4H10.8z"/><path fill="#0D2B47" d="M13.8,17c0.2,0.2,0.3,0.4,0.3,0.8v1.4h-0.8v-1.3c0-0.2,0-0.3-0.1-0.3s-0.2-0.2-0.3-0.2c-0.2,0-0.3,0.1-0.3,0.2 s-0.1,0.3-0.1,0.3v1.3h-0.8v-2.4h0.8v0.3c0.1-0.1,0.2-0.2,0.3-0.3c0.1-0.1,0.3-0.1,0.4-0.1S13.6,16.9,13.8,17L13.8,17z"/><path fill="#0D2B47" d="M14.8,17.4c0.1-0.2,0.3-0.3,0.4-0.4c0.2-0.1,0.3-0.2,0.5-0.2c0.2,0,0.3,0,0.4,0.1c0.2,0.1,0.3,0.2,0.3,0.3v-0.3 h0.8v2.4h-0.7v-0.3c-0.1,0.1-0.2,0.2-0.3,0.3c-0.2,0.1-0.3,0.1-0.4,0.1c-0.2,0-0.3-0.1-0.5-0.2s-0.3-0.3-0.4-0.4 c-0.1-0.2-0.2-0.4-0.2-0.7C14.6,17.6,14.7,17.5,14.8,17.4L14.8,17.4z M16.3,17.5c-0.1-0.1-0.3-0.2-0.3-0.2s-0.3,0.1-0.3,0.2 c-0.1,0.1-0.2,0.3-0.2,0.4c0,0.2,0.1,0.3,0.2,0.4c0.1,0.1,0.3,0.2,0.3,0.2s0.3-0.1,0.3-0.2c0.1-0.1,0.2-0.3,0.2-0.4 C16.5,17.8,16.4,17.7,16.3,17.5L16.3,17.5z"/><path fill="#0D2B47" d="M20.2,17c0.2,0.2,0.3,0.4,0.3,0.8v1.4h-0.8v-1.3c0-0.2,0-0.3-0.1-0.3s-0.2-0.2-0.3-0.2c-0.2,0-0.3,0.1-0.3,0.2 s-0.1,0.3-0.1,0.3v1.3h-0.8v-2.4h0.8v0.3c0.1-0.1,0.2-0.2,0.3-0.3c0.1-0.1,0.3-0.1,0.4-0.1S20,16.9,20.2,17L20.2,17z"/><path fill="#0D2B47" d="M21.3,17.4c0.1-0.2,0.3-0.3,0.4-0.4c0.2-0.1,0.4-0.2,0.6-0.2c0.3,0,0.6,0.1,0.8,0.3c0.2,0.2,0.3,0.3,0.4,0.7 h-0.8c-0.1-0.2-0.2-0.3-0.4-0.3c-0.2,0-0.3,0.1-0.3,0.2c-0.1,0.1-0.1,0.3-0.1,0.4c0,0.2,0,0.3,0.1,0.4c0.1,0.1,0.2,0.2,0.3,0.2 s0.3-0.1,0.4-0.3h0.8c-0.1,0.3-0.2,0.5-0.4,0.7c-0.2,0.2-0.4,0.3-0.8,0.3c-0.3,0-0.4-0.1-0.6-0.2c-0.2-0.1-0.3-0.3-0.4-0.4 c-0.1-0.2-0.2-0.4-0.2-0.7C21.1,17.8,21.2,17.5,21.3,17.4L21.3,17.4z"/><path fill="#0D2B47" d="M26.4,18.2h-1.7c0,0.2,0.1,0.3,0.2,0.3c0.1,0.1,0.2,0.1,0.3,0.1c0.2,0,0.3-0.1,0.4-0.3h0.8 c0,0.2-0.1,0.3-0.3,0.4c-0.1,0.1-0.3,0.3-0.4,0.3c-0.2,0.1-0.3,0.1-0.5,0.1c-0.3,0-0.4-0.1-0.6-0.2c-0.2-0.1-0.3-0.3-0.4-0.4 c-0.1-0.2-0.2-0.4-0.2-0.7c0-0.3,0.1-0.5,0.2-0.7c0.1-0.2,0.3-0.3,0.4-0.4c0.2-0.1,0.4-0.2,0.6-0.2c0.2,0,0.4,0.1,0.6,0.2 c0.2,0.1,0.3,0.3,0.4,0.4c0.1,0.2,0.2,0.4,0.2,0.6C26.4,18,26.4,18.1,26.4,18.2L26.4,18.2z M25.7,17.8c0-0.1-0.1-0.3-0.2-0.3 c-0.1-0.1-0.2-0.1-0.3-0.1c-0.2,0-0.3,0-0.3,0.1c-0.1,0.1-0.2,0.2-0.2,0.3H25.7L25.7,17.8z"/><path fill="#E2E3DE" d="M34.1,0H3.9C1.8,0,0,1.8,0,3.9v16.1C0,22.2,1.8,24,3.9,24h30.1c2.2,0,3.9-1.8,3.9-3.9V3.9C38,1.8,36.2,0,34.1,0 z M37,19.9c0,1.7-1.3,3-3,3H4.1c-1.7,0-3-1.3-3-3V4.1c0-1.7,1.3-3,3-3h29.9c1.7,0,3,1.3,3,3V19.9z"/></svg>