<svg xmlns="http://www.w3.org/2000/svg" x="0" y="0" viewBox="0 0 38 24" xml:space="preserve" width="38" height="24" role="img" aria-labelledby="pi-snap_checkout_uk"><title id="pi-snap_checkout_uk">Snap Checkout UK</title><path fill="#fff" d="M0 0h38v24H0z"/><path fill="#0D2B47" d="M5 15.2c-.5-.2-.9-.6-1.2-1-.3-.4-.5-.9-.5-1.4h1.8c0 .4.2.6.5.9.3.2.7.4 1.2.4s.9-.1 1.1-.3c.3-.2.4-.4.4-.7 0-.3-.1-.5-.4-.7-.3-.2-.8-.3-1.4-.5-.6-.2-1.1-.3-1.5-.5-.4-.2-.7-.4-1-.7s-.5-.8-.5-1.3c0-.4.1-.8.4-1.2.2-.4.6-.7 1.1-.9.5-.2 1-.3 1.7-.3.9 0 1.7.2 2.3.7.6.5.9 1.1.9 2H8.2c-.1-.4-.2-.7-.5-.9s-.6-.4-1.1-.4-.8.1-1 .3c-.3.2-.4.4-.4.7 0 .2.1.4.2.6.2.2.4.3.6.4.2.1.6.2 1 .3.6.2 1.1.3 1.5.5.4.2.7.4 1 .7.3.3.4.7.4 1.3 0 .5-.1.9-.4 1.3-.2.3-.5.5-1 .8-.5.2-1 .3-1.7.3s-1.2-.1-1.8-.4zM16.9 7.4c.5.3.9.7 1.2 1.2.3.5.4 1.2.4 1.9v4.9h-1.7v-4.6c0-.7-.2-1.3-.6-1.7-.4-.4-.9-.6-1.5-.6s-1.2.2-1.5.6c-.4.4-.6 1-.6 1.7v4.6h-1.7V7.1h1.7v1c.3-.3.6-.6 1.1-.8s.9-.3 1.4-.3c.7 0 1.2.1 1.8.4zM19.7 9c.3-.6.8-1.1 1.4-1.5.6-.4 1.3-.5 2-.5s1.2.1 1.7.4c.5.3.9.6 1.2 1V7.1h1.7v8.3H26v-1.2c-.3.4-.7.7-1.2 1-.5.3-1.1.4-1.7.4-.7 0-1.4-.2-2-.6-.6-.4-1.1-.9-1.4-1.5-.3-.7-.5-1.4-.5-2.2 0-.9.2-1.6.5-2.3zm5.9.8c-.2-.4-.5-.7-.9-1-.4-.2-.8-.3-1.2-.3s-.9.1-1.2.3c-.4.2-.7.5-.9 1-.2.4-.4.9-.4 1.5s.1 1.1.4 1.5c.2.4.5.8.9 1 .4.2.8.3 1.2.3s.9-.1 1.2-.3c.4-.2.7-.5.9-1 .2-.4.4-.9.4-1.5s-.1-1.1-.4-1.5zM32 7.4c.5-.3 1.1-.4 1.7-.4.7 0 1.4.2 2 .5.6.4 1.1.9 1.4 1.5a5.09 5.09 0 010 4.4c-.3.7-.8 1.2-1.4 1.5-.6.4-1.3.6-2 .6-.6 0-1.2-.1-1.7-.4-.5-.3-.9-.6-1.2-1v5.2h-1.7V7.1h1.7v1.2c.3-.3.7-.7 1.2-.9zm3.5 2.4c-.2-.4-.5-.7-.9-1-.4-.2-.8-.3-1.2-.3s-.8.1-1.2.3c-.4.2-.7.5-.9 1-.2.4-.4.9-.4 1.5s.1 1.1.4 1.5c.2.4.5.8.9 1 .4.2.8.3 1.2.3s.9-.1 1.2-.3c.4-.2.7-.6.9-1 .2-.4.4-.9.4-1.5-.1-.6-.2-1.1-.4-1.5z"/><circle fill="#0D2B47" cx="3.6" cy="6.4" r=".6"/><path fill="#0D2B47" d="M1.5 10.1c-.2 0-.4-.1-.5-.3-.1-.3 0-.5.3-.7l.7-.2c.3-.1.5 0 .7.3.1.3 0 .5-.3.7l-.7.3c-.1-.1-.1-.1-.2-.1zM5.2 6.3c-.3 0-.5-.3-.5-.5L5 4.4c0-.3.3-.5.6-.4.3 0 .4.3.4.5l-.3 1.4c0 .3-.2.5-.5.4zM2.5 8.2h-.2L.7 7.5c-.2-.1-.4-.4-.3-.6.1-.3.4-.4.6-.3l1.6.7c.4 0 .5.3.4.6-.1.2-.3.3-.5.3zM2.6 5.7c-.1 0-.3-.1-.4-.2l-.5-.8c-.2-.3-.1-.6.1-.7.2-.2.5-.1.7.1l.6.8c.1.2.1.6-.1.7-.1.1-.2.1-.4.1zM7.6 18.4h-.4v2.1h-.9v-2.1H6v-.7h.3v-.1c0-.3.1-.6.3-.8.2-.2.5-.3.9-.3h.1v.7c-.2 0-.3 0-.4.1-.1.1-.1.2-.1.3h.5v.8zM8.5 17.2c-.1-.1-.1-.2-.1-.3s0-.2.1-.3c.1-.1.2-.1.4-.1s.3 0 .4.1c.1.1.1.2.1.3s0 .2-.1.3-.3.1-.5.1c-.1 0-.2 0-.3-.1zm.8.4v2.8h-.9v-2.8h.9zM12.8 17.9c.2.2.3.5.3.9v1.7h-.9V19c0-.2 0-.3-.1-.4-.1-.1-.2-.2-.4-.2s-.3.1-.4.2c-.1.1-.1.3-.1.4v1.5h-.9v-2.8h.9v.3c.1-.1.2-.2.4-.3.1-.1.3-.1.5-.1s.5.1.7.3zM14 18.3c.1-.2.3-.4.5-.5.2-.1.4-.2.6-.2.2 0 .4 0 .5.1.2.1.3.2.3.3v-.4h.9v2.8H16V20c-.1.1-.2.2-.4.3-.2.1-.3.1-.5.1s-.4-.1-.6-.2c-.2-.1-.3-.3-.5-.5-.1-.2-.2-.5-.2-.8s.1-.4.2-.6zm1.8.2c-.1-.1-.3-.2-.4-.2s-.3.1-.4.2c-.1.1-.2.3-.2.5s.1.4.2.5c.1.1.3.2.4.2s.3-.1.4-.2.2-.3.2-.5-.1-.3-.2-.5zM20.4 17.9c.2.2.3.5.3.9v1.7h-.9V19c0-.2 0-.3-.1-.4-.1-.1-.2-.2-.4-.2s-.3.1-.4.2c-.1.1-.1.3-.1.4v1.5h-.9v-2.8h.9v.3c.1-.1.2-.2.4-.3.1-.1.3-.1.5-.1s.5.1.7.3zM21.7 18.3c.1-.2.3-.4.5-.5.2-.1.5-.2.7-.2.4 0 .7.1.9.3.2.2.4.4.5.8h-.9c-.1-.2-.2-.3-.5-.3-.2 0-.3.1-.4.2-.1.1-.1.3-.1.5s0 .4.1.5c.1.1.2.2.4.2s.4-.1.5-.3h.9c-.1.3-.2.6-.5.8-.2.2-.5.3-.9.3-.3 0-.5-.1-.7-.2-.2-.1-.4-.3-.5-.5-.1-.2-.2-.5-.2-.8s.1-.6.2-.8zM27.8 19.3h-2c0 .2.1.3.2.4.1.1.2.1.4.1s.4-.1.5-.3h.9c0 .2-.1.4-.3.5-.1.1-.3.3-.5.4-.2.1-.4.1-.6.1-.3 0-.5-.1-.7-.2s-.4-.3-.5-.5c-.1-.2-.2-.5-.2-.8 0-.3.1-.6.2-.8.1-.2.3-.4.5-.5s.5-.2.7-.2.5.1.7.2c.2.1.4.3.5.5.1.2.2.5.2.7v.4zm-.9-.5c0-.1-.1-.3-.2-.4-.1-.1-.2-.1-.4-.1s-.3 0-.4.1c-.1.1-.2.2-.2.4h1.2z"/></svg>