<svg xmlns="http://www.w3.org/2000/svg" width="38" height="24" fill="none" aria-labelledby="pi-softbank" role="img" viewBox="0 0 38 24"><title id="pi-softbank">Softbank</title><path fill="#fff" d="M0 0h38v24H0z"/><path fill="#BBBCBE" d="M3 10v1.57h6.36V10zm0 3.12v1.57h6.36v-1.57z"/><path fill="#212121" d="M12.83 10c-.5 0-.84.12-1.07.3a.93.93 0 0 0-.38.75c0 .24.08.45.2.61.18.26.7.55 1.1.74.36.19.7.34.91.58.14.15.21.36.2.57a.8.8 0 0 1-.32.66 1.3 1.3 0 0 1-.76.24c-.68 0-1.03-.2-1.23-.98l-.23.06c.08.28.15.55.21.94.38.14.78.21 1.19.22.56 0 .99-.17 1.25-.41q.36-.33.36-.84c0-.3-.14-.6-.28-.75-.27-.31-.63-.46-1.13-.72a3.2 3.2 0 0 1-.81-.5.76.76 0 0 1-.22-.5.61.61 0 0 1 .23-.5c.18-.14.43-.23.75-.23.75 0 .88.23 1.02.88l.22-.06-.15-.88c-.34-.13-.7-.19-1.06-.18m9.08.08v.2c.48 0 .52.03.52.48v3.17c0 .45-.04.48-.52.48v.18h2.07c.66 0 1.03-.15 1.28-.4.25-.24.36-.55.36-.87 0-.35-.18-.6-.41-.77a1.8 1.8 0 0 0-1.05-.34v-.01c.4-.06.67-.19.86-.36a.96.96 0 0 0 .2-1.15.9.9 0 0 0-.3-.32c-.34-.23-.72-.29-1.3-.29zm-2.64.11a.9.9 0 0 0-.65.25c-.2.22-.3.51-.3.9v.4h-.47v.2h.46V14c0 .4-.03.43-.48.43v.16h1.43v-.16c-.48 0-.5-.03-.5-.41v-2.08h.8v-.2h-.8v-.38c0-.45.07-.68.2-.83a.4.4 0 0 1 .3-.15c.2 0 .29.14.36.28s.13.27.28.27c.12 0 .18-.06.18-.19 0-.11-.09-.27-.27-.4a.9.9 0 0 0-.54-.15m13.55 0c-.23.14-.49.23-.76.26v.14c.34 0 .38.05.38.41v3.02c0 .36-.01.41-.38.41v.16h1.18v-.16c-.35 0-.36-.05-.36-.41v-.67l.35-.36 1.04 1.6H35v-.16c-.19.01-.34-.01-.48-.24l-.97-1.47.67-.64c.15-.14.25-.19.43-.2v-.15h-.94v.16c.3 0 .27.1.1.26l-.91.89h-.02v-2.81zm-9.74.14h.61c.45 0 .73.1.91.24.14.12.24.37.24.59 0 .3-.1.53-.29.68-.23.2-.59.28-1.03.28h-.63v-1.57c0-.17.03-.22.2-.22Zm-2.5.6c-.08.67-.35.82-.75.86v.15h.48v2.08c0 .5.3.64.62.64.23 0 .45-.07.62-.23l-.1-.14a.64.64 0 0 1-.39.16c-.22 0-.3-.16-.3-.46v-2.05h.66v-.2h-.67v-.8h-.17Zm-4.47.73c-.4 0-.7.12-.95.35-.26.24-.39.64-.39 1.15 0 .57.15.96.4 1.2.25.21.56.3.94.3.4 0 .7-.1.96-.32.24-.24.4-.61.4-1.18 0-.5-.15-.9-.4-1.14a1.28 1.28 0 0 0-.96-.36m11.08 0c-.25 0-.5.06-.71.18-.2.12-.34.3-.34.44 0 .1.06.2.18.2.13 0 .2-.07.23-.16.06-.14.1-.25.19-.31.12-.1.27-.15.43-.15.21 0 .36.07.45.2.09.1.11.3.11.44v.27l-.37.09c-.4.08-.73.22-.94.37a.79.79 0 0 0-.4.7c0 .24.1.42.25.54.17.13.38.2.59.2.42 0 .67-.15.88-.36h.03c.06.21.2.33.42.33.13 0 .26-.03.38-.09l-.04-.15a.3.3 0 0 1-.16.05c-.13 0-.2-.12-.2-.41v-1.5a.86.86 0 0 0-.21-.63c-.16-.18-.38-.25-.77-.25m2.35 0c-.21.15-.43.22-.7.26v.15c.33 0 .36.04.36.4v1.55c0 .38-.03.41-.37.41v.16h1.11v-.16c-.3 0-.3-.03-.3-.41v-1.53c.25-.35.54-.6.8-.6.18 0 .3.05.38.13.12.13.14.33.14.57v1.43c0 .38-.02.41-.32.41v.16h1.07v-.16c-.28 0-.3-.05-.3-.4v-1.46c0-.34-.09-.57-.23-.7-.14-.14-.34-.2-.61-.2-.36 0-.68.2-.94.52l-.03-.5zm-13.44.2c.27 0 .49.09.63.27.18.22.27.54.27 1.03 0 .51-.12.83-.28 1.04a.78.78 0 0 1-.6.27.8.8 0 0 1-.63-.27c-.16-.2-.26-.53-.26-1.04 0-.5.1-.81.26-1.03a.75.75 0 0 1 .61-.27m6.8.5h.78c.52 0 .88.08 1.1.26a.84.84 0 0 1 .35.7c0 .32-.1.56-.25.72-.22.22-.51.31-.96.31h-.8c-.19 0-.23-.04-.23-.3v-1.7Zm4.83.6v1.13c-.16.16-.37.33-.68.33a.6.6 0 0 1-.43-.15c-.1-.1-.13-.23-.13-.4 0-.29.17-.46.42-.6.23-.14.55-.23.82-.3Z"/></svg>