<svg xmlns="http://www.w3.org/2000/svg" xmlns:xlink="http://www.w3.org/1999/xlink" width="38" height="24" fill="none" aria-labelledby="pi-solanapayhelio" role="img" viewBox="0 0 38 24"><title id="pi-solanapayhelio">Solana Pay</title><defs><path id="pi-solanapayhelio-b" fill="#fff" d="M0 0h38v24H0z"/></defs><g clip-path="url(#pi-solanapayhelio-a)"><use xlink:href="#pi-solanapayhelio-b"/><mask id="pi-solanapayhelio-c" width="38" height="24" x="0" y="0" maskUnits="userSpaceOnUse" style="mask-type:luminance"><path fill="#fff" d="M0 0h38v24H0z"/></mask><g mask="url(#pi-solanapayhelio-c)"><path fill="#000" d="m28.78 7.68-1.43-3.17h-1.2L28.2 8.8l-.03.12a.77.77 0 0 1-.8.55c-.21 0-.42-.06-.6-.16l-.18.91c.27.12.57.18.86.18.82 0 1.32-.3 1.73-1.2l2.17-4.68H30.2l-1.42 3.17ZM18.64 3H15.2v5.82h1.13V6.68h2.3c1.27 0 2.1-.64 2.1-1.84S19.89 3 18.63 3Zm-.06 2.67h-2.26V4h2.26c.65 0 1.02.3 1.02.83s-.37.83-1.02.83Zm6.86 2.05V5.97c0-1.04-.74-1.58-2-1.58-1.03 0-1.93.49-2.18 1.23l.93.33c.14-.37.61-.64 1.2-.64.71 0 1.01.29 1.01.64v.11l-1.68.2c-.96.1-1.6.53-1.6 1.32 0 .85.73 1.31 1.7 1.31a2.4 2.4 0 0 0 1.69-.62c.17.42.34.7 1.49.55v-.87c-.46.11-.56 0-.56-.23m-1.03-.56c0 .57-.78.87-1.43.87-.5 0-.8-.16-.8-.49 0-.32.24-.43.72-.49l1.52-.18v.3Z"/><path fill="url(#pi-solanapayhelio-d)" d="M13.07 7.46v.08c0 .02-.02.04-.04.06l-1.08 1.15a.26.26 0 0 1-.19.08H6.62c-.02 0-.05 0-.07-.02a.14.14 0 0 1-.04-.06c-.01-.02-.01-.04 0-.07l.03-.06 1.08-1.15a.26.26 0 0 1 .19-.08h5.13c.03 0 .05 0 .07.02a.1.1 0 0 1 .06.05m-1.12-2.19a.3.3 0 0 0-.08-.06.3.3 0 0 0-.1-.02H6.62a.13.13 0 0 0-.12.08v.07c0 .02.02.05.04.06l1.08 1.16.09.06.1.02h5.13l.07-.02a.1.1 0 0 0 .05-.06.12.12 0 0 0-.03-.13zm-5.4-.85.07.02h5.15a.26.26 0 0 0 .18-.08l1.09-1.15a.13.13 0 0 0 .03-.06v-.07a.1.1 0 0 0-.05-.06.12.12 0 0 0-.07-.02H7.8a.26.26 0 0 0-.18.08L6.53 4.24a.12.12 0 0 0-.03.06.1.1 0 0 0 0 .07z"/><path fill="#000" d="m18.98 11.24 1.2 2h-.14l-1.14-1.92-1.1 1.92h-.13l1.17-2.03-1.17-1.98h.13l1.12 1.9 1.12-1.9h.13l-1.19 2Zm-7.22 10.03v-3.02c0-.68-.36-.9-.93-.9a1.45 1.45 0 0 0-1.13.58v3.34H8.4v-6.85h1.3v2.54a2.3 2.3 0 0 1 1.75-.77c1.09 0 1.61.6 1.61 1.56v3.52zm4.68.09c-1.51 0-2.61-1.05-2.61-2.67s1.07-2.66 2.6-2.66c1.51 0 2.58 1.02 2.58 2.55 0 .17-.02.34-.04.5h-3.81c.07.77.6 1.2 1.25 1.2.57 0 .88-.28 1.05-.62h1.42a2.44 2.44 0 0 1-2.44 1.7m-1.27-3.15h2.48c-.02-.68-.57-1.1-1.24-1.1-.63 0-1.13.4-1.24 1.1m4.51-3.79h1.28v6.85h-1.28zm2.13.34c0-.43.34-.76.8-.76.48 0 .81.33.81.76s-.35.76-.8.76c-.47 0-.81-.34-.81-.76m.14 1.37h1.32v5.14h-1.32z"/><path fill="#F76C1B" d="M28.27 18.57a1.53 1.53 0 0 0-2.1-1.34 1.55 1.55 0 0 0-.98 1.34h-1.17a2.7 2.7 0 0 1 2.71-2.71 2.72 2.72 0 0 1 2.72 2.7h-1.18Zm-1.48 2.87a2.7 2.7 0 0 1-2.43-1.54l1.05-.49a1.54 1.54 0 0 0 2.73.06l1.05.5a2.72 2.72 0 0 1-2.4 1.47"/></g></g><defs><linearGradient id="pi-solanapayhelio-d" x1="7.05" x2="12.39" y1="8.97" y2="2.89" gradientUnits="userSpaceOnUse"><stop offset=".08" stop-color="#9945FF"/><stop offset=".3" stop-color="#8752F3"/><stop offset=".5" stop-color="#5497D5"/><stop offset=".6" stop-color="#43B4CA"/><stop offset=".72" stop-color="#28E0B9"/><stop offset=".97" stop-color="#19FB9B"/></linearGradient><clipPath id="pi-solanapayhelio-a"><use xlink:href="#pi-solanapayhelio-b"/></clipPath></defs></svg>