<svg xmlns="http://www.w3.org/2000/svg" width="38" height="24" viewBox="0 0 38 24" aria-labelledby="pi-solana_pay"><title id="pi-solana_pay">Solana Pay</title><defs><linearGradient id="pi-solana_pay-g" x1="10.67" y1="1061.51" x2="3.1" y2="1070.53" gradientTransform="translate(0 -1054)" gradientUnits="userSpaceOnUse"><stop offset=".18" stop-color="#14f195"/><stop offset=".86" stop-color="#9945ff"/></linearGradient></defs><path d="M3.26 0h31.48A3.14 3.14 0 0 1 38 3v18a3.14 3.14 0 0 1-3.26 3H3.26A3.14 3.14 0 0 1 0 21V3a3.14 3.14 0 0 1 3.26-3Z"/><path d="m32.13 14.41-2-4.32H28.5l2.83 5.83v.17a1 1 0 0 1-.42.57 1.06 1.06 0 0 1-.69.18 1.79 1.79 0 0 1-.81-.22l-.26 1.25a3.46 3.46 0 0 0 1.19.24 2.34 2.34 0 0 0 2.39-1.65l3-6.37h-1.64ZM18.61 8h-4.75v8h1.56v-2.95h3.19c1.73 0 2.88-.87 2.88-2.51S20.34 8 18.61 8Zm-.09 3.63h-3.11V9.4h3.11c.91 0 1.42.41 1.42 1.13s-.51 1.13-1.42 1.13ZM27.9 14.47v-2.4c0-1.41-1-2.15-2.76-2.15a3 3 0 0 0-3 1.68l1.28.45a1.69 1.69 0 0 1 1.66-.88c1 0 1.39.4 1.39.88v.16l-2.32.25c-1.33.14-2.21.74-2.21 1.81s1 1.8 2.34 1.8a3.35 3.35 0 0 0 2.34-.85c.23.56.47.94 2.05.74v-1.18c-.67.15-.77 0-.77-.31Zm-1.42-.76c0 .77-1.08 1.17-2 1.17-.69 0-1.1-.22-1.1-.65s.34-.6 1-.68l2.09-.24Z" style="fill:#fff"/><path d="M11.4 14.11a.17.17 0 0 1 0 .1v.09l-1.5 1.57a.32.32 0 0 1-.12.08.33.33 0 0 1-.14 0H2.5a.14.14 0 0 1-.09 0l-.07-.07a.17.17 0 0 1 0-.1v-.09l1.51-1.57L4 14h7.33a.14.14 0 0 1 .07.11Zm-1.54-3a.41.41 0 0 0-.11-.11H2.41l-.07.07a.17.17 0 0 0 0 .1.11.11 0 0 0 0 .08l1.51 1.58L4 13h7.33a.16.16 0 0 0 .06-.08.14.14 0 0 0 0-.09.14.14 0 0 0 0-.09ZM2.41 10h7.34a.21.21 0 0 0 .11-.08l1.5-1.57a.14.14 0 0 0 0-.09.14.14 0 0 0 0-.09.16.16 0 0 0-.06-.08H4l-.12.08-1.5 1.54a.14.14 0 0 0 0 .09.14.14 0 0 0 .07.16Z" style="fill:url(#pi-solana_pay-g)"/></svg>
