<svg xmlns="http://www.w3.org/2000/svg" width="38" height="24" viewBox="0 0 38 24" role="img" aria-labelledby="pi-souhoola"><title id="pi-souhoola">Souhoola</title><g transform="translate(-352 -765)"><g transform="translate(352 765)"><path data-name="Path 1666" d="M35,0H3A2.946,2.946,0,0,0,0,3V21a3.009,3.009,0,0,0,3,3H35a2.946,2.946,0,0,0,3-3V3A3.009,3.009,0,0,0,35,0Z" opacity="0.07"/><path data-name="Path 1667" d="M35,1a2.006,2.006,0,0,1,2,2V21a2.006,2.006,0,0,1-2,2H3a2.006,2.006,0,0,1-2-2V3A2.006,2.006,0,0,1,3,1H35" fill="#fff"/></g><g data-name="souhoola-logo" transform="translate(356.835 767.587)"><path data-name="Path 53908" d="M27.584,8.849a.885.885,0,0,1-.056,1.427,3.358,3.358,0,0,1-2.074.5A5.375,5.375,0,1,1,25.6.031a5.256,5.256,0,0,1,4.892,3.533c.481,1.332.581,2.891,1.04,3.874a3.29,3.29,0,0,0,2.92,2.092A3.429,3.429,0,0,0,38.01,6.611s.071-.681.031-2.9c-.023-1.258.04-2.986.04-2.986A.684.684,0,0,1,38.842,0c.73,0,.663.774.663.774L39.487,5.31s.606,5.14-4.627,5.673a4.514,4.514,0,0,1-4.386-2.416,8.9,8.9,0,0,1-.921-3.076C29,2.144,26.8,1.381,25.617,1.364a4.053,4.053,0,0,0-1.444,7.894A4.443,4.443,0,0,0,27.584,8.849Z" transform="translate(-15.66)"/><path data-name="Path 53909" d="M52.643,39.944a.531.531,0,0,1,.781.2c.377.759-1.247,1.453-1.247,1.453" transform="translate(-40.719 -31.094)"/><path data-name="Path 53910" d="M20.62,71.091a.314.314,0,0,1-.02.506,1.191,1.191,0,0,1-.736.179,1.907,1.907,0,1,1,.051-3.813,1.864,1.864,0,0,1,1.736,1.253c.171.473.206,1.026.369,1.374a1.167,1.167,0,0,0,1.036.742A1.216,1.216,0,0,0,24.319,70.3s.025-.242.011-1.027c-.008-.446.014-1.059.014-1.059a.243.243,0,0,1,.27-.259c.259,0,.235.275.235.275l-.007,1.609A1.775,1.775,0,0,1,23.2,71.848a1.6,1.6,0,0,1-1.556-.857,3.158,3.158,0,0,1-.327-1.091c-.2-1.187-.977-1.458-1.4-1.464a1.438,1.438,0,0,0-.512,2.8A1.576,1.576,0,0,0,20.62,71.091Z" transform="translate(-14.01 -53.029)"/><path data-name="Path 53911" d="M29.51,82.124a.188.188,0,0,1,.277.071c.134.269-.442.516-.442.516" transform="translate(-22.9 -64.061)"/><path data-name="Path 53912" d="M1.093,64.864a1.991,1.991,0,0,1-.48-.257,1.276,1.276,0,0,1-.342-.372.974.974,0,0,1-.131-.512,1.109,1.109,0,0,1,.131-.539,1.3,1.3,0,0,1,.344-.407A1.6,1.6,0,0,1,1.1,62.52a1.7,1.7,0,0,1,.545-.09,2.03,2.03,0,0,1,.434.046,1.741,1.741,0,0,1,.4.136,1.491,1.491,0,0,1,.334.223,1.194,1.194,0,0,1,.249.309.162.162,0,0,1,.019.14.278.278,0,0,1-.065.113.238.238,0,0,1-.14.059A.228.228,0,0,1,2.7,63.4a1.285,1.285,0,0,0-.476-.382,1.44,1.44,0,0,0-.576-.109,1.3,1.3,0,0,0-.361.052,1.149,1.149,0,0,0-.328.152.825.825,0,0,0-.242.251.652.652,0,0,0-.094.351.546.546,0,0,0,.111.351.946.946,0,0,0,.282.236,1.779,1.779,0,0,0,.374.155q.2.06.388.105.284.088.555.2a2.075,2.075,0,0,1,.48.272,1.281,1.281,0,0,1,.336.384,1.061,1.061,0,0,1,.127.533,1.356,1.356,0,0,1-.132.6,1.446,1.446,0,0,1-.357.464,1.618,1.618,0,0,1-.522.3,1.853,1.853,0,0,1-.624.105,1.893,1.893,0,0,1-.526-.073,2.028,2.028,0,0,1-.466-.2,1.632,1.632,0,0,1-.372-.3A1.279,1.279,0,0,1,.034,66.5a.234.234,0,0,1-.017-.205.277.277,0,0,1,.117-.125A.194.194,0,0,1,.3,66.146a.4.4,0,0,1,.163.136.968.968,0,0,0,.2.276,1.269,1.269,0,0,0,.282.209,1.425,1.425,0,0,0,.342.132,1.561,1.561,0,0,0,.38.046,1.383,1.383,0,0,0,.4-.061,1.141,1.141,0,0,0,.363-.184.955.955,0,0,0,.261-.3.86.86,0,0,0,.1-.42.64.64,0,0,0-.1-.366.9.9,0,0,0-.265-.253,1.864,1.864,0,0,0-.372-.18q-.207-.075-.418-.144A4.374,4.374,0,0,1,1.093,64.864Z" transform="translate(0 -48.72)"/><path data-name="Path 53913" d="M54.084,64.553a1.836,1.836,0,0,1,.535-.47,1.3,1.3,0,0,1,.662-.178,1.4,1.4,0,0,1,.6.125,1.3,1.3,0,0,1,.457.355,1.621,1.621,0,0,1,.292.556,2.442,2.442,0,0,1,.1.729v1.607a.236.236,0,0,1-.242.242.23.23,0,0,1-.169-.069.234.234,0,0,1-.069-.173v-1.6a1.49,1.49,0,0,0-.269-.955.911.911,0,0,0-.752-.334,1.062,1.062,0,0,0-.44.092,1.137,1.137,0,0,0-.361.255,1.24,1.24,0,0,0-.248.386,1.347,1.347,0,0,0-.1.479v1.673a.237.237,0,0,1-.071.175.241.241,0,0,1-.342,0,.237.237,0,0,1-.071-.175V62.85a.237.237,0,0,1,.071-.175.243.243,0,0,1,.344,0,.241.241,0,0,1,.069.175Z" transform="translate(-41.829 -48.856)"/><path data-name="Path 53914" d="M70.864,70.862a1.375,1.375,0,0,0,.286.426,1.357,1.357,0,0,0,.426.29,1.36,1.36,0,0,0,1.059,0,1.382,1.382,0,0,0,.428-.29,1.333,1.333,0,0,0,.286-.426,1.314,1.314,0,0,0,.1-.52,1.339,1.339,0,0,0-.39-.953,1.357,1.357,0,0,0-.428-.288,1.373,1.373,0,0,0-1.056,0,1.342,1.342,0,0,0-.716.715,1.316,1.316,0,0,0-.106.526A1.293,1.293,0,0,0,70.864,70.862Zm-.445-1.235a1.824,1.824,0,0,1,.393-.583,1.87,1.87,0,0,1,.583-.391,1.829,1.829,0,0,1,1.422,0,1.828,1.828,0,0,1,.971.974,1.8,1.8,0,0,1,.144.715,1.773,1.773,0,0,1-.144.71,1.834,1.834,0,0,1-.971.972,1.829,1.829,0,0,1-1.422,0,1.87,1.87,0,0,1-.583-.391,1.829,1.829,0,0,1-.393-.581,1.773,1.773,0,0,1-.144-.71A1.8,1.8,0,0,1,70.419,69.627Z" transform="translate(-54.841 -53.464)"/><path data-name="Path 53915" d="M89.041,70.862a1.374,1.374,0,0,0,.286.426,1.357,1.357,0,0,0,.426.29,1.36,1.36,0,0,0,1.059,0,1.38,1.38,0,0,0,.428-.29,1.328,1.328,0,0,0,.286-.426,1.312,1.312,0,0,0,.1-.52,1.34,1.34,0,0,0-.39-.953,1.356,1.356,0,0,0-.428-.288,1.373,1.373,0,0,0-1.056,0,1.342,1.342,0,0,0-.716.715,1.316,1.316,0,0,0-.106.526A1.292,1.292,0,0,0,89.041,70.862ZM88.6,69.627a1.824,1.824,0,0,1,.393-.583,1.87,1.87,0,0,1,.583-.391,1.829,1.829,0,0,1,1.422,0,1.829,1.829,0,0,1,.971.974,1.8,1.8,0,0,1,.144.715,1.772,1.772,0,0,1-.144.71,1.834,1.834,0,0,1-.971.972,1.829,1.829,0,0,1-1.422,0,1.87,1.87,0,0,1-.583-.391,1.83,1.83,0,0,1-.393-.581,1.773,1.773,0,0,1-.144-.71A1.8,1.8,0,0,1,88.6,69.627Z" transform="translate(-69.026 -53.464)"/><path data-name="Path 53916" d="M108.126,67.278a.227.227,0,0,1-.071.169.246.246,0,0,1-.342,0,.226.226,0,0,1-.071-.169V62.843a.224.224,0,0,1,.071-.171.251.251,0,0,1,.342,0,.225.225,0,0,1,.071.171Z" transform="translate(-84.002 -48.857)"/><path data-name="Path 53917" d="M112.827,70.342a1.3,1.3,0,0,0,.105.52,1.377,1.377,0,0,0,.286.426,1.36,1.36,0,0,0,.426.29,1.36,1.36,0,0,0,1.059,0,1.341,1.341,0,0,0,.71-.715,1.316,1.316,0,0,0,.1-.52A1.334,1.334,0,0,0,114.174,69a1.318,1.318,0,0,0-.526.105,1.342,1.342,0,0,0-.716.715A1.318,1.318,0,0,0,112.827,70.342Zm-.484,0a1.8,1.8,0,0,1,.144-.715,1.826,1.826,0,0,1,.393-.583,1.872,1.872,0,0,1,.584-.391,1.826,1.826,0,0,1,1.416,0,1.869,1.869,0,0,1,.578.386,1.815,1.815,0,0,1,.392.574,1.844,1.844,0,0,1,.152.706v1.557a.244.244,0,0,1-.071.176.235.235,0,0,1-.175.073.222.222,0,0,1-.171-.073.251.251,0,0,1-.067-.176l0-.33a2.02,2.02,0,0,1-.6.453,1.631,1.631,0,0,1-.743.173,1.775,1.775,0,0,1-.71-.144,1.872,1.872,0,0,1-.584-.391,1.832,1.832,0,0,1-.393-.581A1.773,1.773,0,0,1,112.343,70.342Z" transform="translate(-87.671 -53.464)"/></g></g></svg>