<svg xmlns="http://www.w3.org/2000/svg" width="38" height="24" fill="none" aria-labelledby="pi-souhoola" role="img" viewBox="0 0 38 24"><title id="pi-souhoola">Souhoola</title><path fill="#fff" d="M0 0h38v24H0z"/><path fill="#000" d="M16.76 11.44a.89.89 0 0 1-.06 1.42c-.62.4-1.34.57-2.07.5a5.38 5.38 0 1 1 .14-10.74 5.26 5.26 0 0 1 4.9 3.53c.48 1.33.58 2.9 1.04 3.88a3.29 3.29 0 0 0 2.92 2.09 3.43 3.43 0 0 0 3.55-2.92s.08-.68.04-2.9c-.03-1.26.04-2.99.04-2.99a.68.68 0 0 1 .76-.72c.73 0 .66.77.66.77l-.02 4.54s.6 5.14-4.63 5.67a4.51 4.51 0 0 1-4.38-2.42c-.5-.96-.8-2-.92-3.07-.55-3.35-2.76-4.11-3.94-4.13a4.05 4.05 0 0 0-1.44 7.9 4.44 4.44 0 0 0 3.4-.41Z"/><path fill="#000" d="M16.76 11.44a.53.53 0 0 1 .78.2c.38.76-1.25 1.45-1.25 1.45m-4.84 7.56a.31.31 0 0 1-.02.5c-.22.14-.48.2-.74.18a1.9 1.9 0 1 1 .05-3.8 1.86 1.86 0 0 1 1.74 1.24c.17.48.2 1.03.37 1.38a1.17 1.17 0 0 0 1.03.74 1.22 1.22 0 0 0 1.26-1.03s.03-.24.01-1.03l.02-1.06a.24.24 0 0 1 .27-.26c.26 0 .23.28.23.28v1.6a1.77 1.77 0 0 1-2.55 1.82 1.6 1.6 0 0 1-.65-.66 3.2 3.2 0 0 1-.33-1.1c-.2-1.18-.98-1.45-1.4-1.46a1.44 1.44 0 0 0-.51 2.8 1.58 1.58 0 0 0 1.21-.14Z"/><path fill="#000" d="M11.45 20.65a.19.19 0 0 1 .27.07c.14.27-.44.52-.44.52m-5.35-2.51a2 2 0 0 1-.48-.26 1.1 1.1 0 0 1-.34-.37.97.97 0 0 1-.14-.51c0-.19.05-.37.14-.54.08-.16.2-.3.34-.4a1.7 1.7 0 0 1 1.03-.35 2 2 0 0 1 .83.18c.12.06.24.13.34.22.1.1.18.2.25.31a.16.16 0 0 1 .02.14.3.3 0 0 1-.07.11.24.24 0 0 1-.14.06.23.23 0 0 1-.18-.05c-.12-.17-.28-.3-.47-.38a1.44 1.44 0 0 0-.94-.06c-.11.03-.23.08-.33.15a.8.8 0 0 0-.24.25c-.06.1-.1.23-.1.35 0 .13.04.25.12.35s.17.18.28.24c.12.06.24.12.37.15.14.04.27.08.4.1l.55.2c.17.08.33.17.48.28.13.1.25.24.33.39.1.16.14.34.13.53a1.36 1.36 0 0 1-.49 1.06 1.5 1.5 0 0 1-.52.3 1.85 1.85 0 0 1-1.15.03 2 2 0 0 1-.47-.2 1.63 1.63 0 0 1-.61-.64.23.23 0 0 1-.02-.2.3.3 0 0 1 .12-.13.2.2 0 0 1 .16-.03.4.4 0 0 1 .17.14c.05.1.12.2.2.28a1.27 1.27 0 0 0 .62.34 1.56 1.56 0 0 0 .78-.02 1.1 1.1 0 0 0 .63-.48c.06-.13.1-.28.1-.42a.64.64 0 0 0-.1-.37.9.9 0 0 0-.27-.25 2 2 0 0 0-.37-.18 14 14 0 0 0-.96-.32m11.16-.45c.15-.19.33-.35.54-.47a1.4 1.4 0 0 1 1.26-.05c.17.08.33.2.45.36.14.16.24.35.3.55.07.24.1.48.1.73V21a.24.24 0 0 1-.25.25.23.23 0 0 1-.16-.07.24.24 0 0 1-.07-.17v-1.6c.02-.34-.08-.68-.27-.96a.91.91 0 0 0-.75-.33 1.14 1.14 0 0 0-.8.35c-.11.1-.2.24-.25.38-.07.15-.1.32-.1.48V21a.24.24 0 0 1-.07.18.24.24 0 0 1-.4-.08.24.24 0 0 1-.02-.1v-4.42a.24.24 0 0 1 .07-.17.24.24 0 0 1 .27-.06.24.24 0 0 1 .13.14l.02.1v1.7Zm3.77 1.7a1.38 1.38 0 0 0 .71.72 1.36 1.36 0 0 0 1.77-.72c.07-.16.1-.34.1-.52a1.34 1.34 0 0 0-1.87-1.24 1.34 1.34 0 0 0-.71 1.76m-.45-1.23a1.82 1.82 0 1 1 3.37 1.42 1.82 1.82 0 0 1-3.37-1.42m4.44 1.23a1.37 1.37 0 0 0 .71.72 1.36 1.36 0 0 0 1.78-.72c.06-.16.1-.34.1-.52a1.34 1.34 0 0 0-1.88-1.24 1.34 1.34 0 0 0-.71 1.76m-.44-1.23a1.82 1.82 0 0 1 3.37 0 1.8 1.8 0 0 1 0 1.42 1.83 1.83 0 0 1-3.52-.7c0-.25.05-.5.15-.72M28.96 21a.23.23 0 0 1-.07.18.25.25 0 0 1-.4-.08.2.2 0 0 1-.01-.1v-4.43a.22.22 0 0 1 .07-.17.25.25 0 0 1 .34 0 .23.23 0 0 1 .07.17v4.44ZM30 19.47a1.3 1.3 0 0 0 .38.94 1.36 1.36 0 0 0 1.49.3 1.34 1.34 0 0 0-.53-2.59c-.18 0-.36.04-.53.1a1.34 1.34 0 0 0-.82 1.25Zm-.5 0a1.8 1.8 0 0 1 .54-1.3 1.87 1.87 0 0 1 1.3-.54 1.83 1.83 0 0 1 1.83 1.81V21a.24.24 0 0 1-.08.18.24.24 0 0 1-.17.07.22.22 0 0 1-.17-.07.25.25 0 0 1-.07-.18v-.33a1.9 1.9 0 0 1-1.34.63 1.87 1.87 0 0 1-1.69-1.12c-.1-.23-.14-.47-.14-.71Z"/></svg>