<svg width="38" height="24" viewBox="0 0 38 24" fill="none" xmlns="http://www.w3.org/2000/svg" role="image" aria-labelledby="pi-sparkasse"><title id="pi-sparkasse">Sparkasse</title><rect width="38" height="24" rx="2" fill="#fff"/><rect x=".5" y=".5" width="37" height="23" rx="1.5" stroke="#000" stroke-opacity=".07"/><path d="M16.842 6.36c.124.272.291.509.5.715.21.205.456.365.742.481.285.117.59.174.91.174a2.363 2.363 0 001.647-.655 2.26 2.26 0 00.5-.714 2.11 2.11 0 00.181-.87c0-.31-.06-.6-.18-.872a2.254 2.254 0 00-.501-.713 2.343 2.343 0 00-1.646-.656c-.322 0-.626.058-.91.174a2.27 2.27 0 00-.742.482c-.21.205-.377.442-.501.713a2.063 2.063 0 00-.187.871c0 .31.061.6.187.87zM12.18 19.38c.12.272.287.509.5.714a2.342 2.342 0 001.647.656h9.345c.322 0 .625-.058.91-.174a2.27 2.27 0 001.237-1.195 2.11 2.11 0 00.18-.871v-4.944H15.256V12.22H26v-.894c0-.31-.06-.6-.18-.87a2.31 2.31 0 00-.495-.715 2.287 2.287 0 00-.741-.482 2.383 2.383 0 00-.91-.173h-9.346a2.363 2.363 0 00-1.647.655c-.213.206-.38.443-.5.714a2.11 2.11 0 00-.181.87v4.945h10.721v1.346H12v.894c0 .31.06.6.18.87z" fill="red"/></svg>