<svg xmlns="http://www.w3.org/2000/svg" width="38" height="24" fill="none" aria-labelledby="pi-sparkasse" role="img" viewBox="0 0 38 24"><title id="pi-sparkasse">Sparkasse</title><path fill="#fff" d="M0 0h38v24H0z"/><path fill="red" d="M16.84 6.36a2.27 2.27 0 0 0 1.24 1.2c.29.11.6.17.91.17a2.36 2.36 0 0 0 2.15-1.37c.12-.27.18-.57.18-.87a2.13 2.13 0 0 0-.68-1.58A2.34 2.34 0 0 0 19 3.25a2.4 2.4 0 0 0-1.66.66 2.07 2.07 0 0 0-.68 1.58q0 .465.18.87m-4.66 13.02a2.34 2.34 0 0 0 2.15 1.37h9.34a2.27 2.27 0 0 0 2.15-1.37c.12-.27.18-.57.18-.87v-4.94H15.26v-1.35H26v-.9c0-.3-.06-.6-.18-.86a2.31 2.31 0 0 0-2.15-1.37h-9.34a2.36 2.36 0 0 0-2.15 1.37c-.12.27-.18.57-.18.87v4.94h10.72v1.35H12v.89q0 .465.18.87"/></svg>