<svg width="38" height="24" viewBox="0 0 38 24" fill="none" xmlns="http://www.w3.org/2000/svg" role="image" aria-labelledby="pi-sparda"><title id="pi-sparda">Sparda</title><g clip-path="url(#clip0_17_37)"><rect width="38" height="24" rx="2" fill="#fff"/><path d="M1 9h36v5.911H1V9z" fill="#fff" stroke="#fff" stroke-width="4.313" stroke-miterlimit="3.864"/><path d="M1 2a1 1 0 011-1h34a1 1 0 011 1v12H1V2z" fill="#005AAA"/><path d="M1 14h36v8a1 1 0 01-1 1H2a1 1 0 01-1-1v-8z" fill="#F06400"/><path d="M7.085 10.144h-.298l-.045.167c-.198-.167-.43-.244-.729-.244-.618 0-1.015.322-1.015.833 0 .189.044.333.154.455.11.123.254.2.585.278l.122.034.121.033.122.033c.143.034.254.056.331.09.122.044.177.11.177.232 0 .2-.188.334-.475.334-.265 0-.541-.111-.663-.278-.066-.078-.099-.178-.143-.378h-.354v.922h.299l.077-.2c.232.2.486.278.84.278.607 0 .982-.322.982-.844 0-.311-.133-.522-.398-.633-.165-.067-.254-.09-.75-.2-.387-.078-.508-.156-.508-.323 0-.2.198-.344.474-.344.42 0 .685.244.74.655h.343v-.9h.01z" fill="#fff"/><path fill-rule="evenodd" clip-rule="evenodd" d="M8.123 10.855h-.84v.3h.155c.1 0 .133.045.133.167v1.6c0 .122-.034.167-.133.167h-.155v.3h1.149v-.3h-.177c-.1 0-.132-.045-.132-.167v-.444a.645.645 0 00.519.222c.508 0 .784-.356.784-1.011 0-.556-.276-.9-.74-.9-.243 0-.42.078-.563.278v-.212zm.364.3c.221 0 .342.212.342.578 0 .411-.121.634-.353.634-.243 0-.353-.2-.353-.59 0-.4.132-.621.364-.621zM11.37 11.989v.211c0 .122-.023.167-.09.167-.054 0-.076-.034-.076-.123v-.833c0-.433-.243-.611-.829-.611-.485 0-.75.167-.75.478a.3.3 0 00.298.31c.165 0 .276-.11.276-.266 0-.1-.056-.166-.177-.21a.436.436 0 01.22-.045c.266 0 .42.1.42.288 0 .156-.077.223-.342.278l-.077.011-.066.023-.067.022c-.099.022-.176.044-.243.066-.198.067-.309.234-.309.467 0 .311.21.5.541.5a.69.69 0 00.575-.278c.077.19.22.278.474.278.32 0 .475-.166.475-.51V12h-.254v-.011zm-.707.1c0 .144-.166.278-.332.278-.132 0-.21-.078-.21-.212 0-.122.045-.177.243-.233.056-.01.089-.033.31-.1v.267h-.011z" fill="#fff"/><path d="M12.573 10.855h-.85v.3h.165c.1 0 .133.045.133.167v.845c0 .122-.033.166-.133.166h-.165v.3h1.203v-.3h-.22c-.1 0-.133-.044-.133-.166v-.445c0-.389.143-.655.342-.655-.077.1-.1.155-.1.222 0 .155.111.267.266.267.188 0 .31-.134.31-.345 0-.233-.155-.4-.365-.4-.188 0-.298.067-.475.311l.022-.267z" fill="#fff"/><path fill-rule="evenodd" clip-rule="evenodd" d="M15.29 10.145h-.862v.3h.166c.1 0 .132.044.132.166v.445c-.176-.19-.309-.256-.519-.256-.463 0-.784.411-.784 1 0 .544.31.911.773.911a.69.69 0 00.563-.267v.212h.807v-.3h-.155c-.1 0-.132-.045-.132-.167v-2.044h.01zm-.895 1.022c.232 0 .364.222.364.6s-.154.633-.386.633-.353-.211-.353-.6c0-.4.143-.633.375-.633zM17.51 11.989v.211c0 .122-.023.167-.09.167-.054 0-.077-.034-.077-.123v-.833c0-.433-.242-.611-.828-.611-.486 0-.75.167-.75.478a.3.3 0 00.297.31c.166 0 .277-.11.277-.266 0-.1-.056-.166-.177-.21a.436.436 0 01.22-.045c.266 0 .42.1.42.288 0 .156-.077.223-.342.278l-.077.011-.066.011-.067.023c-.1.022-.176.044-.243.066-.199.067-.309.234-.309.467 0 .311.21.5.541.5a.69.69 0 00.575-.278c.077.19.22.278.474.278.32 0 .475-.167.475-.511v-.211h-.254zm-.719.1c0 .144-.165.278-.33.278-.133 0-.21-.078-.21-.212 0-.122.043-.177.242-.233.055-.01.089-.033.31-.1v.267h-.012z" fill="#fff"/><path d="M17.918 11.5v.467H19V11.5h-1.082z" fill="#fff"/><path fill-rule="evenodd" clip-rule="evenodd" d="M19.055 10.145v.31h.199c.155 0 .199.045.199.178v1.534c0 .122-.055.178-.2.178h-.198v.31h1.7c.564 0 .917-.266.917-.688 0-.334-.187-.545-.574-.623.354-.122.508-.288.508-.555 0-.411-.298-.633-.861-.633h-1.69v-.011zm1.016 1.055v-.733h.42c.342 0 .475.1.475.366 0 .256-.144.367-.475.367h-.42zm0 1.145v-.812h.486c.298 0 .453.145.453.4 0 .29-.144.412-.475.412h-.464zM23.583 11.989v.211c0 .122-.022.167-.089.167-.055 0-.077-.034-.077-.123v-.833c0-.433-.243-.611-.828-.611-.486 0-.751.167-.751.478a.3.3 0 00.298.31c.166 0 .276-.11.276-.266 0-.1-.055-.166-.177-.21a.436.436 0 01.221-.045c.265 0 .42.1.42.288 0 .156-.077.223-.342.278l-.078.011-.066.011-.066.023c-.1.022-.177.044-.243.066-.199.067-.31.234-.31.467 0 .311.21.5.542.5a.69.69 0 00.574-.278c.077.19.22.278.475.278.32 0 .475-.167.475-.511v-.211h-.254zm-.718.1c0 .144-.166.278-.331.278-.133 0-.21-.078-.21-.212 0-.122.044-.177.243-.233.055-.01.088-.033.309-.1v.267h-.011z" fill="#fff"/><path d="M24.731 10.855h-.806v.3h.155c.1 0 .132.045.132.167v.845c0 .122-.033.166-.132.166h-.155v.3h1.06v-.3h-.088c-.1 0-.133-.044-.133-.166V11.6c0-.311.11-.456.354-.456.199 0 .265.1.265.356v.655c0 .123-.033.167-.133.167h-.1v.3h1.083v-.3h-.166c-.099 0-.143-.044-.143-.166v-.823c0-.333-.22-.533-.585-.533-.254 0-.409.078-.619.322l.011-.267zM27.194 10.145h-.85v.3h.165c.1 0 .133.044.133.166v1.556c0 .122-.034.166-.133.166h-.166v.3h1.05v-.3h-.056c-.099 0-.143-.044-.143-.166V12l.232-.178.287.411a.117.117 0 01.022.056c0 .033-.033.044-.1.044h-.088v.3h1.071v-.3h-.077c-.066 0-.088-.022-.199-.166l-.486-.69.287-.221a.453.453 0 01.32-.111h.144v-.3H27.46v.3h.177c.066 0 .088.01.088.044 0 .022-.022.044-.044.067l-.497.366v-1.477h.01z" fill="#fff"/><path fill-rule="evenodd" clip-rule="evenodd" d="M30.518 11.822v-.1c0-.555-.354-.91-.928-.91-.563 0-.927.377-.927.955 0 .588.364.955.971.955.475 0 .806-.266.862-.689h-.354c-.066.234-.22.356-.452.356-.277 0-.431-.189-.453-.567h1.28zm-1.281-.289c.01-.277.143-.433.353-.433.221 0 .365.167.354.433h-.707z" fill="#fff"/><path d="M31.38 10.855h-.807v.3h.155c.099 0 .132.045.132.167v.845c0 .122-.033.166-.132.166h-.155v.3h1.06v-.3h-.088c-.1 0-.133-.044-.133-.166V11.6c0-.311.11-.456.354-.456.198 0 .265.1.265.356v.655c0 .123-.034.167-.133.167h-.1v.3h1.083v-.3h-.155c-.099 0-.143-.044-.143-.166v-.823c0-.333-.221-.533-.585-.533-.254 0-.409.078-.619.322v-.267z" fill="#fff"/></g><defs><clipPath id="clip0_17_37"><rect width="38" height="24" rx="2" fill="#fff"/></clipPath></defs></svg>