<svg width="38" height="24" viewBox="0 0 38 24" role="img" fill="none" xmlns="http://www.w3.org/2000/svg" aria-labelledby="pi-spaylater"><title id="pi-spaylater">SPayLater</title><g clip-path="url(#pi-clip0_97_2479)"><path d="M38-7H0v38h38V-7z" fill="#EE4D2D"/><path d="M11.047 11.428c-.61-.196-.68-.433-.68-.59.013-.283.29-.5.654-.513.321 0 .6.085.882.265.13.078.204.011.249-.046l.005-.007.067-.098.003-.003.079-.116c.04-.074.064-.162-.06-.25a2.291 2.291 0 00-.356-.184 2.29 2.29 0 00-.888-.165c-.694.015-1.245.476-1.28 1.074-.024.437.196.787.655 1.043.133.07.583.237.777.294.535.155.81.428.757.746-.05.288-.369.482-.81.496a1.693 1.693 0 01-.98-.354l-.049-.037c-.035-.023-.088-.054-.15-.042-.045.008-.083.037-.116.087l-.076.115a6.76 6.76 0 00-.072.11c-.078.115-.02.186.04.237.13.104.293.211.406.266a2.362 2.362 0 001.06.24c.22 0 .48-.055.68-.143a1.16 1.16 0 00.704-.957c.072-.691-.377-1.13-1.5-1.466v-.002zM14.747 9.793h-1.429a.197.197 0 00-.196.196v3.775c0 .083.068.15.15.15h.361a.15.15 0 00.15-.15v-.973h.964a1.514 1.514 0 001.498-1.499c0-.816-.672-1.489-1.498-1.5m.825 1.49a.829.829 0 01-.832.827h-.957v-1.654h.96c.457 0 .83.37.83.827M22.9 11.022h-.51l-.962 1.596-.996-1.596h-.55a.15.15 0 00-.132.078.15.15 0 00.003.154l1.262 2.043-1.05 1.805a.15.15 0 00-.001.152.15.15 0 00.132.076h.512l2.422-4.079a.15.15 0 00.001-.152.15.15 0 00-.132-.077M18.755 11.22v.136a1.507 1.507 0 00-.947-.332c-.815 0-1.478.644-1.478 1.435 0 .79.663 1.456 1.478 1.456.347 0 .682-.118.947-.333v.136c0 .109.088.197.197.197h.4v-2.891h-.4a.197.197 0 00-.197.196zm-.95.44c.46 0 .835.36.835.8a.842.842 0 01-.835.822.84.84 0 01-.836-.822c0-.445.375-.8.836-.8zM25.639 13.28l-.013-.04h-1.33V9.936a.15.15 0 00-.15-.15h-.377a.15.15 0 00-.15.15v3.975h2.473l-.112-.1c-.003-.003-.247-.225-.341-.53M28.126 11.221v.06a1.056 1.056 0 00-.276-.17 1.293 1.293 0 00-.507-.095 1.34 1.34 0 00-1.26.854c-.072.178-.109.382-.109.604 0 .198.034.385.1.559.065.174.16.328.278.458.12.13.265.234.433.31.168.075.355.112.558.112.203 0 .365-.031.51-.094.1-.043.192-.098.272-.163v.063c0 .109.088.197.197.197h.434v-2.892h-.434a.197.197 0 00-.197.197m-.476.49a.748.748 0 01.414.414c.041.1.062.216.062.343 0 .128-.02.244-.06.345a.682.682 0 01-.403.41.82.82 0 01-.294.053.703.703 0 01-.534-.217c-.14-.145-.21-.342-.21-.584 0-.242.071-.451.213-.596a.71.71 0 01.518-.224c.103 0 .201.018.294.056M30.787 13.296a.15.15 0 00-.186-.061.452.452 0 01-.348.019c-.07-.034-.109-.1-.118-.206a5.51 5.51 0 01-.016-.452v-.908h.611a.15.15 0 00.15-.15V11.2a.15.15 0 00-.15-.15h-.61v-.732a.15.15 0 00-.15-.15h-.353a.15.15 0 00-.15.15v.732h-.189a.15.15 0 00-.15.15v.34c0 .082.068.15.15.15h.19v.964c0 .207.005.366.015.476.012.114.035.219.072.314.06.142.154.259.282.348a.79.79 0 00.462.135c.106 0 .216-.014.327-.04a1.16 1.16 0 00.267-.104.15.15 0 00.06-.21l-.166-.276zM33.573 11.453a1.321 1.321 0 00-.992-.442c-.21 0-.406.038-.58.113a1.309 1.309 0 00-.728.771c-.066.175-.1.364-.1.561 0 .223.039.428.113.608.075.18.176.337.302.466.126.13.277.232.45.3.172.069.354.103.543.103.16 0 .306-.014.433-.043a1.61 1.61 0 00.343-.116 1.867 1.867 0 00.44-.289.15.15 0 00.025-.2l-.173-.249a.15.15 0 00-.22-.028 1.625 1.625 0 01-.32.21 1.094 1.094 0 01-.514.103.845.845 0 01-.483-.17.708.708 0 01-.267-.415h2.083l.01-.175a1.57 1.57 0 00-.08-.618 1.477 1.477 0 00-.285-.49m-1.73.703a.625.625 0 01.238-.373.788.788 0 01.48-.154.73.73 0 01.485.166.708.708 0 01.215.36h-1.417zM35.943 11.024c-.239 0-.439.042-.596.125a.991.991 0 00-.286.24v-.213a.15.15 0 00-.15-.15h-.34a.15.15 0 00-.15.15v2.587c0 .083.068.15.15.15h.34a.15.15 0 00.15-.15v-.994c0-.152.016-.296.05-.427a.964.964 0 01.153-.338.762.762 0 01.269-.247.938.938 0 01.41-.08H36v-.653h-.057z" fill="#fff"/><path d="M14.747 9.793h-1.429a.197.197 0 00-.196.196v3.775c0 .083.068.15.15.15h.361a.15.15 0 00.15-.15v-.973h.964a1.514 1.514 0 001.498-1.499c0-.816-.672-1.489-1.498-1.5m.825 1.49a.829.829 0 01-.832.827h-.957v-1.654h.96c.457 0 .83.37.83.827M22.9 11.022h-.51l-.962 1.596-.996-1.596h-.55a.15.15 0 00-.132.078.15.15 0 00.003.154l1.262 2.043-1.05 1.805a.15.15 0 00-.001.152.15.15 0 00.132.076h.512l2.422-4.079a.15.15 0 00.001-.152.15.15 0 00-.132-.077M18.755 11.22v.136a1.507 1.507 0 00-.947-.332c-.815 0-1.478.644-1.478 1.435 0 .79.663 1.456 1.478 1.456.347 0 .682-.118.947-.333v.136c0 .109.088.197.197.197h.4v-2.891h-.4a.197.197 0 00-.197.196zm-.95.44c.46 0 .835.36.835.8a.842.842 0 01-.835.822.84.84 0 01-.836-.822c0-.445.375-.8.836-.8zM25.639 13.28l-.013-.04h-1.33V9.936a.15.15 0 00-.15-.15h-.377a.15.15 0 00-.15.15v3.975h2.473l-.112-.1c-.003-.003-.247-.225-.341-.53M28.126 11.221v.06a1.056 1.056 0 00-.276-.17 1.293 1.293 0 00-.507-.095 1.34 1.34 0 00-1.26.854c-.072.178-.109.382-.109.604 0 .198.034.385.1.559.065.174.16.328.278.458.12.13.265.234.433.31.168.075.355.112.558.112.203 0 .365-.031.51-.094.1-.043.192-.098.272-.163v.063c0 .109.088.197.197.197h.434v-2.892h-.434a.197.197 0 00-.197.197m-.476.49a.748.748 0 01.414.414c.041.1.062.216.062.343 0 .128-.02.244-.06.345a.682.682 0 01-.403.41.82.82 0 01-.294.053.703.703 0 01-.534-.217c-.14-.145-.21-.342-.21-.584 0-.242.071-.451.213-.596a.71.71 0 01.518-.224c.103 0 .201.018.294.056M30.787 13.296a.15.15 0 00-.186-.061.452.452 0 01-.348.019c-.07-.034-.109-.1-.118-.206a5.51 5.51 0 01-.016-.452v-.908h.611a.15.15 0 00.15-.15V11.2a.15.15 0 00-.15-.15h-.61v-.732a.15.15 0 00-.15-.15h-.353a.15.15 0 00-.15.15v.732h-.189a.15.15 0 00-.15.15v.34c0 .082.068.15.15.15h.19v.964c0 .207.005.366.015.476.012.114.035.219.072.314.06.142.154.259.282.348a.79.79 0 00.462.135c.106 0 .216-.014.327-.04a1.16 1.16 0 00.267-.104.15.15 0 00.06-.21l-.166-.276zM33.573 11.453a1.321 1.321 0 00-.992-.442c-.21 0-.406.038-.58.113a1.309 1.309 0 00-.728.771c-.066.175-.1.364-.1.561 0 .223.039.428.113.608.075.18.176.337.302.466.126.13.277.232.45.3.172.069.354.103.543.103.16 0 .306-.014.433-.043a1.61 1.61 0 00.343-.116 1.867 1.867 0 00.44-.289.15.15 0 00.025-.2l-.173-.249a.15.15 0 00-.22-.028 1.625 1.625 0 01-.32.21 1.094 1.094 0 01-.514.103.845.845 0 01-.483-.17.708.708 0 01-.267-.415h2.083l.01-.175a1.57 1.57 0 00-.08-.618 1.477 1.477 0 00-.285-.49m-1.73.703a.625.625 0 01.238-.373.788.788 0 01.48-.154.73.73 0 01.485.166.708.708 0 01.215.36h-1.417zM35.943 11.024c-.239 0-.439.042-.596.125a.991.991 0 00-.286.24v-.213a.15.15 0 00-.15-.15h-.34a.15.15 0 00-.15.15v2.587c0 .083.068.15.15.15h.34a.15.15 0 00.15-.15v-.994c0-.152.016-.296.05-.427a.964.964 0 01.153-.338.762.762 0 01.269-.247.938.938 0 01.41-.08H36v-.653h-.057zM5.225 9.91l2.394-.116v-.26c0-.28-.2-.48-.447-.449l-2.1.274c.078.17.131.356.153.55zM7.685 10.142H5.236a1.8 1.8 0 01-1.922 1.76v1.484c0 .303.246.548.548.548h3.823c.28 0 .506-.227.506-.506v-2.78a.506.506 0 00-.506-.506zm-.23 2.278a.383.383 0 110-.765.383.383 0 010 .765z" fill="#fff"/><path d="M3.44 8.67a1.44 1.44 0 100 2.879 1.44 1.44 0 000-2.879zm.863 1.62a.129.129 0 01-.092.041h-.76a.14.14 0 01-.14-.14V9.164c0-.072.06-.131.134-.127a.13.13 0 01.121.13v.907h.642a.13.13 0 01.13.122.127.127 0 01-.035.095z" fill="#fff"/></g><rect x=".5" y=".5" width="37" height="23" rx="2.5" stroke="#000" stroke-opacity=".07"/><defs><clipPath id="pi-clip0_97_2479"><rect width="38" height="24" rx="3" fill="#fff"/></clipPath></defs></svg>