<svg width="38" height="24" viewBox="0 0 38 24" fill="none" role="img" aria-labelledby="pi-sportsgiftcard" version="1.1" xmlns="http://www.w3.org/2000/svg"><title id="pi-sportsgiftcard">Sportsgiftcard</title><g clip-path="url(#clip0_39_228)"><path opacity=".07" d="M35 0H3C1.3 0 0 1.3 0 3v18c0 1.7 1.4 3 3 3h32c1.7 0 3-1.3 3-3V3c0-1.7-1.4-3-3-3z" fill="#000"/><path d="M35 1c1.1 0 2 .9 2 2v18c0 1.1-.9 2-2 2H3c-1.1 0-2-.9-2-2V3c0-1.1.9-2 2-2h32z" fill="#fff"/></g><defs><clipPath id="pi-sportsgiftcard-clip0_39_228"><path fill="#fff" d="M0 0h38v24H0z"/></clipPath></defs><g stroke-width="1.001"><g fill="#ffec00"><path d="M20.857 6.662c-.15-.17-.33-.24-.6-.24-.39 0-.63.25-.63.49 0 .2.17.27.36.32l.28.06c.56.13.76.38.76.84 0 .72-.64 1.049-1.35 1.049-.53 0-.85-.12-1.139-.44l.46-.38c.18.2.42.29.74.29.37 0 .669-.2.669-.47 0-.23-.14-.31-.35-.36l-.28-.07c-.56-.13-.77-.429-.77-.759 0-.61.5-1.09 1.32-1.09.39 0 .74.13.97.39zM15.5 7.782l.46 1.37h-.69l-.39-1.3h-.47l-.28 1.3h-.63l.68-3.22h1.18c.68 0 .92.41.92.86 0 .4-.26.82-.78.99zm-.23-1.32h-.57l-.19.89h.57c.43 0 .58-.31.58-.52 0-.23-.14-.37-.39-.37zM7.654 6.662c-.15-.17-.33-.24-.6-.24-.39 0-.63.25-.63.49 0 .2.17.27.36.32l.28.06c.56.13.76.38.76.84 0 .72-.64 1.049-1.35 1.049-.53 0-.849-.12-1.139-.44l.46-.38c.18.2.42.29.74.29.37 0 .67-.2.67-.47 0-.23-.14-.31-.35-.36l-.28-.07c-.56-.13-.77-.429-.77-.759 0-.61.5-1.09 1.32-1.09.389 0 .739.13.969.39zM9.563 7.902h-.65l-.26 1.25h-.63l.68-3.22h1.2c.57 0 .91.35.91.85 0 .58-.44 1.12-1.24 1.12zm.24-1.44h-.58l-.2.91h.56c.41 0 .59-.3.59-.54 0-.2-.1-.37-.38-.37zM13.32 7.542c-.13.62-.21.98-.499 1.26-.26.27-.61.369-.95.369-.65 0-1.019-.41-1.019-.91 0-.14.02-.36.1-.72.13-.619.21-.979.5-1.258.26-.27.61-.37.95-.37.649 0 1.019.41 1.019.91 0 .14-.02.36-.1.719zm-.959-1.11c-.19 0-.33.06-.45.2s-.21.33-.34.92c-.06.27-.1.51-.1.67 0 .29.2.44.44.44.19 0 .33-.06.45-.19s.21-.33.34-.92c.06-.27.1-.51.1-.67 0-.29-.2-.44-.44-.44zM18.868 6.463h-.83l-.57 2.688h-.63l.56-2.688h-.849l.11-.53h2.299l-.11.53z"/></g><g fill="#0d3048"><path d="M9.023 14.458c0-.25-.13-.44-.44-.44-.2 0-.33.07-.45.18-.14.13-.22.33-.34.88-.05.25-.1.49-.1.64 0 .26.2.41.45.41.33 0 .54-.22.63-.44h.64c-.23.63-.72.939-1.32.939-.639 0-1.029-.38-1.029-.86 0-.13.02-.34.1-.68.13-.589.21-.919.5-1.199.26-.24.61-.35.95-.35.689 0 1.019.41 1.019.94h-.63zM11.432 16.587l-.07-.56h-1.14l-.32.56h-.669l1.839-3.038h.5l.5 3.038zm-.28-2.189l-.68 1.17h.84zM14.31 15.288l.47 1.289h-.69l-.39-1.23h-.48l-.279 1.23h-.63l.68-3.038h1.18c.679 0 .919.39.919.81 0 .379-.26.769-.79.929zm-.23-1.24h-.57l-.19.84h.57c.43 0 .58-.29.58-.49 0-.22-.14-.35-.39-.35zM17.798 15.048c-.16.74-.25.98-.54 1.23-.23.2-.549.299-.929.299h-1.2l.68-3.038h1.11c.56 0 1 .26 1 .85 0 .13-.02.27-.11.659zm-.99-1.01h-.479l-.46 2.05h.48c.2 0 .36-.05.49-.17.14-.12.21-.29.34-.87.08-.35.1-.51.1-.61 0-.27-.19-.4-.48-.4z"/></g><g fill="#0d3048"><path d="M9.603 10.85c-.01-.28-.16-.46-.46-.46-.2 0-.34.06-.46.18-.16.15-.23.37-.35.89-.06.26-.1.5-.1.65 0 .27.2.41.46.41.3 0 .62-.2.7-.62l.03-.13h-.6l.1-.48h1.23l-.09.44c-.09.41-.22.7-.47.94-.24.229-.57.349-.95.349-.7 0-1.05-.41-1.05-.88 0-.18.03-.4.1-.69.16-.719.24-.939.52-1.219.25-.24.62-.35.97-.35.7 0 1.05.41 1.05.96h-.64zM10.952 12.989h-.64l.69-3.078h.64zM14.31 10.41h-1.499l-.18.81h1.28l-.11.5h-1.29l-.28 1.269h-.64l.69-3.078h2.14zM16.869 10.42h-.84L15.46 13h-.639l.57-2.579h-.86l.11-.51h2.339z"/></g><g><path d="M29.832 7.522l-.14-.14c-.03-.02-.04-.08-.04-.08-2.289-.47-3.548-.48-3.548-.48s-.12.1-.15.11c-.03 0-.04.03-.03.19.03.37.25.85.29.98.04.13.05.42.1.51.04.09.03.21.13.31.09.1.34.539.35.559 0 0-.04-.08-.04-.11v-.21c0-.08.06-.2.08-.24.01-.04.01-.05.04-.1s.04-.07.07-.1c.04-.03.08-.08.13-.11s.07-.07.22-.1c.14-.03.27 0 .35.04.089.03.109.12.109.12l-.09-.04s-.01 0 .06.04c.07.04.14.11.15.15.02.04 0 .04.03.06.02.02.01.1.01.1s.08.07.09.11c.02.04.09.2.1.27.01.06-.07.21-.07.3 0 .08.07.16.08.18.01.02.08.1.12.1.05 0 .03-.04.05-.08.02-.04.07-.09.07-.13 0-.04.03-.02.08-.04.06-.02.05-.04.06-.06.01-.02.01-.03.02-.04 0 0 .04 0 .09-.02.05-.02.04-.02.06-.05.02-.02.02-.02.06-.04.04-.02.04 0 .09-.02.05 0 .04-.03.04-.05 0-.02.04-.01.05-.02.08-.12.23-.28.35-.39.12-.12.1-.31.18-.46.07-.15.189-.22.279-.42.1-.2.15-.38.16-.48.02-.1-.01-.1-.04-.12z" fill="none"/><path d="M32.58 7.522v.02h.01l-.5-.09c.03-.53-.17-.99-.5-1.17-.139-.07-.279-.12-.389-.15h-.04c-.46-.08-.91.35-1.08.98h-.03c-.01-.01-.02-.03-.05-.03-.03 0-.04 0-.03-.02.01-.03-.02-.05-.04-.04-.03 0-.09.03-.13.05-.04.02-.04-.02-.05.08-1.578-.38-3.647-.55-3.647-.55s0-.08-.02-.11-.14-.03-.15-.04c-.01-.01-.08-.04-.09 0-.01.04.03.13.03.13h-.03s-.02-.05-.05-.09c-.03-.04-.1-.05-.14-.07-.04-.01-.05.02-.05.02s-.03 0-.05-.01c-.02 0-.06 0-.07.02-.01.02-.03.01-.06 0h-.07c-.03 0-.04 0-.09.03-.05.02-.06.06-.06.06h-.03c0-.59-.28-1.069-.66-1.209-.14-.06-.29-.08-.409-.1h-.04c-.43-.02-.81.4-.92.99l-.7-.03s-.08.1-.08.19.03.22.07.22l.68.03c.01.55.26 1.019.61 1.179.01 0 .03.02.06.02h.02c.08.03.22.06.32.08.03 0 .05 0 .08.01h.02c.47.02.88-.49.94-1.14h.05s0 .02.01.06c.01.04.15.2.21.26.06.05.03.07.07.2.04.14.14.93.16 1.13.01.18.239.759.339.989.19.51.52 1.599.73 2.309v.06c.04.47.04.91.03 1.259l.13.12-.14.14c-.01.24-.02.4-.03.4v.13c0 .03-.02.08-.04.11v.15c0 .04-.02.08-.03.12v.28s0 .06-.01.11v.149c0 .06 0 .07-.02.17-.01.1-.04.3-.04.36s-.05.21-.09.27c-.04.06.05.08.05.08s0 .12-.09.23c-.08.09-.15.22-.2.35-.09.24-.14.519-.13.709v.1c0 .03 0 .06.01.09 0 .06.01.12.01.15v.33c0 .02-.02.04-.02.04s-.06 0-.1.05c-.04.05-.1.08-.1.09 0 .01 0 .01-.01.01 0 0-.03 0-.05.02-.02.03-.02.05-.03.06h-.04c-.01.02-.04.04-.04.06 0 .02.1.16.29.27.18.11.24.12.29.16.05.04.32.249.43.309.1.06.23.13.25.1.02-.03.01-.03.03-.05.02-.02.04-.06.02-.1h-.01v.02c-.02-.04-.03-.07-.03-.07a.758.758 0 00-.09-.16c-.02-.02-.05-.04-.05-.06 0-.01-.04-.06-.04-.08 0-.02.02-.06 0-.08 0-.02-.04-.05-.03-.07 0-.02.04-.02 0-.07-.04-.04-.05-.05-.03-.07.01-.02 0-.05-.04-.06-.03 0-.05-.01-.05-.03 0-.02.02-.07 0-.09-.01 0 .02-.06.02-.08v-.3c0-.04-.01-.22 0-.29 0-.02 0-.05.01-.07.01-.03.03-.06.04-.09.05-.1.08-.2.1-.289.03-.1.05-.2.06-.28.03-.15.15-.32.21-.46.07-.14.12-.17.14-.17.02 0 .14-.05.24-.06.1 0 .249-.05.289-.15.04-.09.22-.59.22-.59s.03.15.04.21c0 .05.03-.02.02.03 0 .05.07.24.07.25 0 .02 0 .25-.02.39 0 .07.02.18.05.29.04.12.08.24.12.29.02.04.04.11.05.18.01 0 .02 0 .02-.01 0 .01.01.03.02.04.02.06.07.23.08.24 0 .02.02.04.02.06v.04s-.05.02-.08.07-.07.1-.07.11v.02s-.03 0-.04.04c0 .03 0 .05-.02.06-.02.01-.03 0-.04.02 0 .02-.03.05-.01.07.01.02.14.11.34.16s.26.04.32.06c.06.02.37.14.49.16.11.03.249.05.259.02.01-.03 0-.03.01-.05.01-.02.02-.06 0-.09v.02l-.05-.05a.677.677 0 00-.13-.12c-.02-.01-.06-.03-.06-.04 0-.01-.05-.04-.06-.06-.01-.02 0-.06-.02-.07-.02-.02-.05-.04-.05-.06 0-.02.03-.03-.02-.06s-.06-.03-.05-.05c.01-.02-.02-.05-.05-.04-.03 0-.05 0-.06-.01 0-.02 0-.07-.02-.08-.01 0 0-.06 0-.08 0-.02-.07-.24-.09-.28-.02-.04-.08-.2-.09-.27 0-.03 0-.07-.01-.12.02-.09.02-.18.01-.27v-.05c-.01-.12-.04-.23-.04-.27-.02-.07.02-.25.03-.32.01-.07.05-.14.05-.14s.14-.08.14-.11 0-.07-.02-.14c-.03-.069-.02-.199-.02-.299v-.05l.02-.49s0-.13-.01-.25c0 0 .02-.27.03-.62l-.11-.11.11-.099c0-.29 0-.61-.02-.86v-.17c0-.11-.06-.41-.05-.57v-.589c0-.06.07-.5.09-.56.02-.06.11-.12.11-.12s-.02-.04.02-.07c.04-.04.18-.27.24-.37.05-.11.27-.459.3-.529.03-.07.18-.31.25-.43.07-.13.14-.46.14-.56v-.06c.08.19.2.35.35.44.01 0 .03.02.05.03h.02c.08.04.21.09.31.12l.08.02h.02c.449.08.909-.34 1.079-.96l.49.09s.1-.08.11-.17c.01-.09 0-.219-.04-.219zm-2.718.12c-.02.1-.07.28-.16.48-.1.2-.21.27-.28.42-.07.15-.06.34-.18.46s-.27.279-.35.389c-.02 0-.05 0-.05.02s0 .04-.04.05c-.05 0-.05 0-.09.02-.04.02-.04.02-.06.04-.02.02-.02.03-.06.05-.05.02-.08.02-.09.02 0 0 0 .02-.02.04-.01.02 0 .04-.06.06-.06.02-.08 0-.08.04s-.05.09-.07.13c-.02.04 0 .08-.05.08-.04 0-.11-.08-.12-.1-.01-.02-.08-.1-.08-.18 0-.08.08-.24.07-.3-.01-.06-.08-.22-.1-.27-.02-.04-.09-.11-.09-.11s.01-.08-.01-.1c-.02-.02-.02-.02-.03-.06a.424.424 0 00-.149-.15c-.07-.04-.06-.04-.06-.04l.09.04s-.03-.09-.11-.12c-.09-.03-.21-.07-.35-.04-.14.04-.17.07-.22.1-.05.03-.1.08-.13.11s-.05.05-.07.1c-.02.05-.03.07-.04.1-.02.04-.08.15-.08.24v.21c0 .03.04.1.04.11a7.086 7.086 0 00-.35-.56c-.1-.11-.08-.22-.13-.31-.04-.09-.06-.38-.1-.51-.04-.13-.259-.609-.289-.979 0-.16 0-.18.03-.19.03-.01.15-.11.15-.11s1.26.01 3.548.48c0 0 0 .06.04.08.04.03.12.12.14.14.03.03.06.03.04.12z" fill="#71caf3"/></g></g></svg>