<svg xmlns="http://www.w3.org/2000/svg" width="38" height="24" fill="none" aria-labelledby="pi-spraypay" role="img" viewBox="0 0 38 24"><title id="pi-spraypay">Spraypay</title><path fill="#fff" d="M0 0h38v24H0z"/><path fill="#0057A5" d="M4.33 12.78c.26 0 .46-.18.46-.4s-.2-.4-.46-.4c-.25 0-.45.18-.45.4s.2.4.45.4m.77 1.32c.24 0 .45-.18.45-.4s-.2-.4-.46-.4c-.25 0-.45.18-.45.4s.2.4.45.4Zm1.41.8c.25 0 .46-.17.46-.4 0-.21-.2-.39-.46-.39-.25 0-.45.18-.45.4s.2.4.45.4Zm1.69.1c.26 0 .46-.18.46-.4s-.2-.4-.45-.4c-.26 0-.46.18-.46.4s.2.4.46.4Zm1.52-.67c.25 0 .46-.18.46-.4s-.2-.4-.46-.4c-.25 0-.45.18-.45.4s.2.4.45.4m.94-1.23c.25 0 .45-.18.45-.4s-.2-.4-.45-.4c-.26 0-.46.18-.46.4s.2.4.46.4m.09-1.48c.26 0 .46-.17.46-.4 0-.21-.2-.39-.46-.39-.25 0-.45.18-.45.4s.2.4.45.4ZM6.88 9.4c.25 0 .46-.17.46-.4 0-.21-.2-.39-.46-.39-.25 0-.45.18-.45.4s.2.4.45.4Zm-1.51.67c.25 0 .45-.18.45-.4s-.2-.4-.45-.4c-.26 0-.46.18-.46.4s.2.4.46.4m-.94 1.23c.25 0 .46-.18.46-.4s-.2-.4-.46-.4c-.25 0-.45.18-.45.4s.2.4.45.4M3.67 14c.33 0 .6-.23.6-.52 0-.3-.27-.53-.6-.53-.34 0-.6.24-.6.53s.26.52.6.52m1.49 1.46c.33 0 .6-.23.6-.52 0-.3-.27-.53-.6-.53-.34 0-.6.24-.6.53s.26.52.6.52m2.13.62c.33 0 .6-.24.6-.53s-.27-.52-.6-.52c-.34 0-.6.23-.6.52 0 .3.26.53.6.53m2.2-.4c.33 0 .6-.23.6-.52 0-.3-.27-.53-.6-.53-.34 0-.6.24-.6.53s.26.52.6.52m1.67-1.29c.34 0 .6-.24.6-.53s-.26-.52-.6-.52c-.33 0-.6.23-.6.52 0 .3.27.53.6.53m.71-1.86c.33 0 .6-.23.6-.52 0-.3-.27-.53-.6-.53s-.6.24-.6.53.27.52.6.52M7.8 8.55c.33 0 .6-.24.6-.53s-.27-.52-.6-.52c-.34 0-.6.23-.6.52 0 .3.26.53.6.53m-2.2.39c.33 0 .6-.23.6-.52 0-.3-.27-.53-.6-.53-.34 0-.6.24-.6.53s.26.52.6.52m-1.68 1.3c.33 0 .6-.24.6-.53s-.27-.52-.6-.52c-.34 0-.6.23-.6.52 0 .3.26.53.6.53m-.71 1.86c.34 0 .6-.24.6-.53 0-.3-.26-.53-.6-.53-.33 0-.6.24-.6.53s.27.52.6.52Zm.18 3.55c.42 0 .77-.3.77-.67s-.35-.67-.77-.67c-.43 0-.78.3-.78.67s.35.67.78.67m2.4 1.38c.42 0 .77-.3.77-.67s-.35-.67-.77-.67c-.43 0-.77.3-.77.67s.34.67.77.67m2.87.15c.42 0 .77-.3.77-.68 0-.37-.35-.67-.77-.67-.43 0-.78.3-.78.67 0 .38.35.68.78.68m2.57-1.13c.42 0 .77-.3.77-.67s-.35-.67-.77-.67c-.43 0-.78.3-.78.67s.35.67.78.67m1.57-2.08c.43 0 .78-.3.78-.68 0-.37-.35-.67-.77-.67-.43 0-.78.3-.78.68 0 .37.35.67.78.67Zm.18-2.5c.42 0 .77-.3.77-.67s-.35-.68-.77-.68c-.43 0-.78.3-.78.68 0 .37.35.67.78.67M9.29 7.86c.42 0 .77-.3.77-.67 0-.38-.35-.68-.77-.68-.43 0-.78.3-.78.68 0 .37.35.67.78.67m-2.87-.15c.42 0 .77-.3.77-.67s-.35-.67-.77-.67c-.43 0-.78.3-.78.67s.35.67.78.67M3.85 8.83c.42 0 .77-.3.77-.67s-.35-.67-.77-.67c-.43 0-.78.3-.78.67s.35.67.78.67m-1.58 2.09c.42 0 .77-.3.77-.67s-.35-.67-.77-.67c-.43 0-.78.3-.78.67s.35.67.78.67m-.17 2.5c.42 0 .77-.3.77-.67 0-.38-.35-.68-.77-.68-.43 0-.78.3-.78.68 0 .37.35.67.78.67m9.85-6.5a.66.66 0 0 0-.83.14c-.17.22-.12.5.1.68l-.38.6c-.04.05-.02.12.04.15h.08c.04 0 .07-.02.08-.05l.38-.6c.25.09.54.01.7-.2.19-.23.11-.56-.17-.72m3.92-.93a.86.86 0 0 0-1.1-.06.61.61 0 0 0-.06.95c.1.1.25.18.4.2l-.03.83c0 .06.05.1.12.11.03 0 .05-.01.08-.03.02-.02.04-.04.04-.08l.03-.8a.9.9 0 0 0 .45-.17.61.61 0 0 0 .07-.95m-4.11 2.99a.5.5 0 0 0-.64-.04.36.36 0 0 0-.04.56c.08.09.2.13.33.14l.24.72c.02.05.08.08.15.07l.06-.05c.02-.02.03-.05.02-.09l-.24-.7a.5.5 0 0 0 .08-.05c.19-.15.2-.4.04-.56m-3.04-.26c-.24-.07-.5.04-.58.25a.36.36 0 0 0 .13.42l-.41.67c-.04.05-.01.11.05.14.02.02.04.02.07.01a.1.1 0 0 0 .09-.05l.42-.68c.22.04.44-.07.52-.26.08-.2-.05-.43-.29-.5m5.73.08c.21-.15.29-.42.16-.64-.14-.26-.5-.37-.8-.24s-.42.45-.28.7c.13.23.43.34.7.28l.38.66c.03.05.1.07.16.05a.1.1 0 0 0 .05-.06c.02-.02.02-.06 0-.09zm3.41.5s.53.52 1.17.52c.25 0 .5-.08.5-.33 0-.49-2.29-.54-2.29-1.93 0-.79.8-1.32 1.8-1.32.68 0 1.63.28 1.63.96v.48h-1.14v-.2c0-.16-.26-.26-.5-.26-.25 0-.51.1-.51.3 0 .54 2.3.46 2.3 1.91 0 .74-.67 1.36-1.8 1.36-1.2 0-1.86-.72-1.86-.72zm3.76-.72c0-.09-.06-.14-.16-.14h-.27v-.9h1.06c.36 0 .48.15.48.28v.06s.33-.4 1.1-.4c1 0 1.65.67 1.65 1.66 0 1-.73 1.66-1.7 1.66-.6 0-.94-.27-.94-.27v1.43h-1.22zm1.9 1.33c.39 0 .72-.27.72-.76 0-.47-.29-.78-.71-.78-.37 0-.72.24-.72.78 0 .39.24.76.72.76Zm2.69-1.33c0-.09-.05-.14-.15-.14h-.27v-.9h1.08c.33 0 .52.12.52.41v.17l-.01.16h.01c.16-.43.62-.8 1.16-.8l.14.02v1.05s-.1-.02-.25-.02c-.29 0-.76.08-.94.55-.04.12-.06.26-.06.44v1.2H26.2V8.58Zm4.77.14h.05V8.7c0-.3-.17-.42-.47-.42-.16 0-.32.03-.32.16v.14H29.1v-.35c0-.71 1.04-.75 1.46-.75 1.27 0 1.7.57 1.7 1.3v.92c0 .08.05.13.15.13h.27v.9H31.6c-.35 0-.48-.2-.48-.33v-.06h-.01s-.26.46-1.02.46c-.68 0-1.24-.4-1.24-1.02 0-.94 1.55-1.05 2.12-1.05Zm-.54 1.26c.32 0 .6-.3.6-.56v-.05h-.11c-.4 0-.84.1-.84.35 0 .14.1.26.35.26m3.22 1.15c.2 0 .42-.05.54-.32l.04-.09-1.15-2.18c-.04-.08-.07-.1-.16-.1h-.13v-.9h.9c.2 0 .35.1.42.26l.54 1.29c.07.17.13.49.13.49h.01l.12-.5.4-1.28c.06-.16.25-.25.44-.25h.91v.89h-.13c-.08 0-.13.02-.17.1l-1.1 2.52c-.32.7-.95.96-1.53.96-.63 0-1.03-.34-1.03-.34l.44-.75s.22.2.5.2Z"/><path fill="#00853E" d="M17.62 13.13h-.46v-.93h2.46c.99 0 1.65.63 1.65 1.52s-.66 1.53-1.65 1.53h-.73v1.36h-1.27zm1.75 1.2c.4 0 .6-.26.6-.61s-.2-.6-.58-.6h-.5v1.2h.48Zm4.2.28h.05v-.03c0-.3-.16-.42-.47-.42-.15 0-.32.03-.32.15v.15H21.7v-.36c0-.7 1.03-.74 1.45-.74 1.28 0 1.7.57 1.7 1.3v.92c0 .08.05.13.15.13h.27v.9h-1.06c-.36 0-.48-.2-.48-.33v-.06h-.02s-.25.46-1.02.46c-.68 0-1.24-.4-1.24-1.02 0-.94 1.55-1.05 2.12-1.05m-.54 1.26c.32 0 .6-.3.6-.56v-.05h-.1c-.4 0-.84.1-.84.35 0 .14.1.26.34.26m3.22 1.15c.2 0 .42-.05.54-.32l.05-.1-1.16-2.17c-.04-.08-.07-.1-.16-.1h-.13v-.9h.9c.2 0 .35.1.42.26l.54 1.28c.07.18.13.5.13.5h.01s.07-.32.13-.5l.4-1.28c.05-.17.24-.26.43-.26h.92v.9h-.14c-.08 0-.13.02-.17.1l-1.1 2.52c-.32.7-.95.95-1.53.95-.63 0-1.02-.33-1.02-.33l.44-.76s.2.2.5.2Z"/></svg>