<svg xmlns="http://www.w3.org/2000/svg" role="img" viewBox="0 0 38 24" width="38" height="24" aria-labelledby="pi-stoov"><title id="pi-stoov">Stoov</title><path opacity="0.07" d="m35,0l-32,0c-1.7,0 -3,1.3 -3,3l0,18c0,1.7 1.4,3 3,3l32,0c1.7,0 3,-1.3 3,-3l0,-18c0,-1.7 -1.4,-3 -3,-3z"/><path fill="#ffffff" d="m35,1c1.1,0 2,0.9 2,2l0,18c0,1.1 -0.9,2 -2,2l-32,0c-1.1,0 -2,-0.9 -2,-2l0,-18c0,-1.1 0.9,-2 2,-2l32,0"/><path fill="#ef4823" stroke="null" d="m11.92832,14.42502c-0.31537,0 -0.73503,-0.09424 -0.73503,-0.91119l0,-2.8391l1.68542,0a0.23257,0.23257 0 0 0 0.2327,-0.2327l0,-0.87198a0.23257,0.23257 0 0 0 -0.2327,-0.23282l-1.68542,0l0,-1.15256c0,-0.10277 -0.12439,-0.15492 -0.19789,-0.08267l-2.24366,2.20421a0.23157,0.23157 0 0 0 -0.06974,0.16585l0,0.08708c0,0.0642 0.05202,0.11634 0.11635,0.11634l0.9382,0l0,2.56042c0,0.56516 0.02639,0.94122 0.07954,1.14878c0.05327,0.20707 0.12187,0.37845 0.20266,0.51013a1.47546,1.47546 0 0 0 0.30809,0.3552c0.38699,0.3405 0.87701,0.51326 1.45573,0.51326c0.56453,0 1.09363,-0.13657 1.57196,-0.40546c0.04046,-0.02261 0.06546,-0.06546 0.06546,-0.11207l0,-1.12077a0.12816,0.12816 0 0 0 -0.19412,-0.11019c-0.45609,0.27265 -0.89284,0.41036 -1.29755,0.41036l0,-0.00012zm5.47968,-4.98426c-0.96144,0 -1.77286,0.31035 -2.41228,0.92224c-0.64054,0.61366 -0.96571,1.39078 -0.96571,2.31001c0,0.91118 0.32153,1.68165 0.95528,2.2909c0.63263,0.6075 1.42998,0.91559 2.36944,0.91559c0.96936,0 1.78568,-0.30319 2.42686,-0.90089c0.64368,-0.60008 0.96998,-1.36502 0.96998,-2.27193c0,-0.93217 -0.32077,-1.71846 -0.95466,-2.33576c-0.632,-0.6173 -1.43613,-0.93016 -2.38891,-0.93016zm1.34291,4.54148c-0.34904,0.34477 -0.80527,0.51992 -1.35635,0.51992c-0.55611,0 -1.01597,-0.17263 -1.36703,-0.51389c-0.35508,-0.34465 -0.52771,-0.77888 -0.52771,-1.32808c0,-0.54694 0.17389,-1.00203 0.51678,-1.35346c0.34728,-0.3552 0.78026,-0.52796 1.32519,-0.52796c0.5634,0 1.01723,0.17402 1.38713,0.53098c0.36815,0.35583 0.54681,0.7937 0.54681,1.3375c0.00063,0.5487 -0.17138,0.98532 -0.52482,1.33499zm6.0432,-4.54148c-0.96157,0 -1.77286,0.31035 -2.41228,0.92224c-0.64054,0.61366 -0.96571,1.39078 -0.96571,2.31001c0,0.91118 0.32153,1.68165 0.95528,2.2909c0.63263,0.6075 1.42986,0.91559 2.36944,0.91559c0.96936,0 1.78568,-0.30319 2.42686,-0.90089c0.64368,-0.60008 0.96998,-1.36502 0.96998,-2.27193c0,-0.93217 -0.3209,-1.71846 -0.95466,-2.33576c-0.632,-0.6173 -1.43613,-0.93016 -2.38891,-0.93016zm1.34291,4.54148c-0.34904,0.34477 -0.80539,0.51992 -1.35648,0.51992c-0.55598,0 -1.01597,-0.17263 -1.36677,-0.51389c-0.35521,-0.34465 -0.52797,-0.77888 -0.52797,-1.32808c0,-0.54694 0.17402,-1.00203 0.51691,-1.35346c0.34716,-0.3552 0.78026,-0.52796 1.32456,-0.52796c0.5634,0 1.01723,0.17402 1.38713,0.53098c0.36815,0.35583 0.54682,0.7937 0.54682,1.3375c0.00062,0.5487 -0.17088,0.98532 -0.5242,1.33499zm6.51538,-4.50291l-1.43324,3.39132l-1.48929,-3.39446a0.23282,0.23282 0 0 0 -0.21309,-0.13909l-1.08521,0a0.23245,0.23245 0 0 0 -0.21247,0.32706l2.64988,5.9604c0.03732,0.08393 0.12062,0.13846 0.21234,0.13846l0.27014,0c0.09248,0 0.17641,-0.05516 0.2131,-0.14034l2.58743,-5.96041a0.23245,0.23245 0 0 0 -0.21322,-0.32517l-1.0729,0c-0.09297,0 -0.17753,0.05642 -0.21359,0.14198l0.00012,0.00025zm-25.98589,2.44646l-0.42983,-0.24426c-0.31361,-0.17402 -0.534,-0.32215 -0.65412,-0.44039c-0.10466,-0.1029 -0.15542,-0.20455 -0.15542,-0.3111c0,-0.12062 0.05026,-0.21184 0.15857,-0.28647c0.11999,-0.08343 0.28471,-0.12565 0.48989,-0.12565c0.42682,0 0.9921,0.21134 1.67989,0.6271a0.12866,0.12866 0 0 0 0.19525,-0.11019l0,-1.11636c0,-0.09072 -0.05264,-0.1734 -0.13532,-0.21134c-0.31663,-0.14575 -1.13232,-0.48751 -1.81885,-0.48751c-0.59883,0 -1.0974,0.15807 -1.48137,0.47042c-0.39252,0.31839 -0.59091,0.73604 -0.59091,1.24013c0,0.38825 0.12979,0.75074 0.38636,1.07767c0.2523,0.32215 0.76179,0.69394 1.55675,1.13609c0.37481,0.21309 0.61969,0.37593 0.72687,0.48311c0.09247,0.09247 0.1372,0.20581 0.1372,0.34728c0,0.12741 -0.06986,0.23697 -0.21435,0.33548c-0.15982,0.10906 -0.34716,0.16233 -0.5732,0.16233c-0.22352,0 -0.50334,-0.08204 -0.84384,-0.21058c-0.2817,-0.10655 -0.68288,-0.35344 -0.94611,-0.52482a0.1744,0.1744 0 0 0 -0.26951,0.14638l0,1.14149c0,0.09248 0.05453,0.17565 0.13896,0.2131c0.2572,0.1132 0.80112,0.34779 1.01723,0.40659c0.29087,0.07966 0.62647,0.11999 0.99638,0.11999c0.63815,0 1.17026,-0.17025 1.58062,-0.50635c0.41828,-0.34239 0.63012,-0.78693 0.63012,-1.32155c0,-0.74169 -0.53211,-1.41779 -1.58126,-2.01059z"/><path fill="#ef4823" stroke="null" d="m34.18446,15.25968c0,0.34729 -0.27253,0.61918 -0.62697,0.61918c-0.35106,0 -0.63087,-0.27265 -0.63087,-0.61918c0,-0.33924 0.27981,-0.61177 0.63074,-0.61177c0.3552,0 0.6271,0.27253 0.6271,0.6119l0,-0.00013zm-1.10053,0c0,0.27265 0.20154,0.48876 0.47771,0.48876c0.26888,0 0.46665,-0.21611 0.46665,-0.48499c0,-0.27265 -0.19777,-0.49253 -0.47029,-0.49253c-0.27253,0 -0.47406,0.22051 -0.47406,0.48876zm0.37669,0.3209l-0.14198,0l0,-0.61165c0.05566,-0.01106 0.13406,-0.01834 0.23496,-0.01834c0.11585,0 0.16786,0.01834 0.21259,0.04473c0.03367,0.02639 0.06006,0.07463 0.06006,0.13406c0,0.06735 -0.05214,0.11936 -0.1269,0.14198l0,0.00754c0.05956,0.02262 0.09323,0.06722 0.1122,0.14939c0.01834,0.09298 0.03003,0.13042 0.04473,0.15304l-0.15316,0c-0.01834,-0.02262 -0.03003,-0.0784 -0.04837,-0.14952c-0.01106,-0.06722 -0.04837,-0.09675 -0.12678,-0.09675l-0.06735,0l0,0.24564l0,-0.00013zm0.00377,-0.34653l0.06722,0c0.0784,0 0.14211,-0.02639 0.14211,-0.08946c0,-0.05579 -0.04096,-0.09298 -0.13042,-0.09298c-0.03732,0 -0.0637,0.00352 -0.0784,0.00729l0,0.17515l-0.00063,0l0.00013,0z"/></svg>
