<svg xmlns="http://www.w3.org/2000/svg" width="38" height="24" fill="none" aria-labelledby="pi-storecredit" role="img" viewBox="0 0 38 24"><title id="pi-storecredit">Store Credit</title><path fill="#F5F5F5" d="M0 0h38v24H0z"/><path fill="#707070" d="m11.47 5.39-.42.53c-.68.88-1.17 2.05-.55 2.97.38.59 1.06 1.1 2.27 1.1 2.77.01 3.18-3.72 3.18-3.72S16.23 10 19 10s3.05-3.73 3.05-3.73.41 3.73 3.18 3.73c1.2 0 1.89-.51 2.27-1.1.62-.92.13-2.1-.55-2.97l-.42-.53a1 1 0 0 0-.79-.39H12.26a1 1 0 0 0-.8.39ZM13 12v-.02a4.5 4.5 0 0 0 1.87-.47A1 1 0 0 1 15 12v5h3v-3a1 1 0 1 1 2 0v3h3v-5a1 1 0 0 1 .13-.5 4.5 4.5 0 0 0 1.87.48V17a1 1 0 1 1 0 2H13a1 1 0 1 1 0-2zM3 11a1 1 0 0 1 1-1h2a1 1 0 0 1 1 1v2a1 1 0 0 1-1 1H4a1 1 0 0 1-1-1zm29-1a1 1 0 0 0-1 1v2a1 1 0 0 0 1 1h2a1 1 0 0 0 1-1v-2a1 1 0 0 0-1-1z"/></svg>