<svg xmlns="http://www.w3.org/2000/svg" width="38" height="24" fill="none" aria-labelledby="pi-stripe" role="img" viewBox="0 0 38 24"><title id="pi-stripe">Stripe</title><path fill="#fff" d="M0 0h38v24H0z"/><path fill="#635BFF" fill-rule="evenodd" d="M32 12.59c0-1.85-.9-3.3-2.6-3.3-1.73 0-2.77 1.45-2.77 3.29 0 2.17 1.23 3.27 3 3.27.85 0 1.5-.2 2-.47v-1.45c-.5.25-1.06.4-1.77.4-.7 0-1.33-.24-1.4-1.1h3.53zm-3.57-.69c0-.81.5-1.15.96-1.15.44 0 .9.34.9 1.15zm-4.58-2.62c-.53 0-1.04.2-1.42.57l-.1-.45h-1.58v8.42l1.8-.38.01-2.05c.26.19.64.46 1.28.46 1.3 0 2.47-1.04 2.47-3.33 0-2.1-1.2-3.24-2.46-3.24m-.44 4.98c-.42 0-.68-.15-.85-.34v-2.68c.18-.21.44-.35.85-.35.66 0 1.11.73 1.11 1.68 0 .97-.44 1.69-1.1 1.69Zm-5.15-5.4 1.82-.4V7l-1.82.38zm0 .54h1.82v6.32h-1.82zm-1.94.54-.12-.54h-1.55v6.32h1.8v-4.28c.43-.55 1.15-.45 1.37-.37V9.4c-.23-.08-1.07-.24-1.5.54m-3.61-2.1-1.76.37-.01 5.79c0 1.07.8 1.85 1.87 1.85.6 0 1.03-.1 1.26-.23v-1.47c-.23.1-1.37.43-1.37-.64v-2.57h1.37V9.4H12.7V7.84Zm-4.88 3.4c0-.28.23-.4.61-.4.55 0 1.24.18 1.8.47v-1.7a4.8 4.8 0 0 0-1.8-.33c-1.47 0-2.44.77-2.44 2.05 0 1.99 2.74 1.67 2.74 2.53 0 .33-.28.44-.69.44a4.5 4.5 0 0 1-1.97-.58v1.72a5 5 0 0 0 1.97.41c1.5 0 2.54-.74 2.54-2.03-.01-2.15-2.76-1.77-2.76-2.58" clip-rule="evenodd"/></svg>