<svg xmlns="http://www.w3.org/2000/svg" role="img" viewBox="0 0 38 24" width="38" height="24" aria-labelledby="pi-super-payments">
<title id="pi-super-payments">Super Payments</title>
<g clip-path="url(#clip0-196-3407)">
<path opacity="0.07" d="M35 0H3C1.3 0 0 1.3 0 3V21C0 22.7 1.4 24 3 24H35C36.7 24 38 22.7 38 21V3C38 1.3 36.6 0 35 0Z" fill="black"/>
<path d="M35.001 1C36.101 1 37 1.9 37 3V20.999C37 22.1 36.1 23 35.001 23H3.001C1.9 23 1 22.1 1 20.999V3.001C1 1.901 1.9 1.001 3 1.001L35.001 1Z" fill="white"/>
<path d="M32.3874 14.3913V11.4597C32.3874 10.5824 33.1088 9.87192 33.999 9.87192H35V10.7666H34.2666C33.6249 10.7666 33.305 11.0792 33.305 11.7072V14.3913H32.3874ZM30.9702 13.0474H31.9336C31.783 13.4315 31.5311 13.7676 31.2048 14.02C30.8537 14.3069 30.4082 14.449 29.8729 14.449C29.2055 14.449 28.6573 14.2327 28.2265 13.7982C27.7956 13.3646 27.5811 12.799 27.5811 12.1004C27.5811 11.4001 27.7956 10.8345 28.2265 10.3999C28.6573 9.96726 29.2055 9.75 29.871 9.75C30.4944 9.75 31.0169 9.96084 31.4386 10.3825C31.8594 10.8042 32.0702 11.3313 32.0702 11.9648C32.0702 12.0188 32.061 12.1261 32.0418 12.2893L32.0253 12.4158H28.4969C28.5464 12.8026 28.6949 13.1088 28.9461 13.338C29.1973 13.5672 29.5291 13.69 29.872 13.6808C30.1121 13.6854 30.3486 13.6212 30.554 13.4957C30.7346 13.3912 30.8803 13.2344 30.9702 13.0474ZM28.4969 11.7374H31.2012C31.1665 11.4005 31.0132 11.087 30.7685 10.8528C30.5249 10.6278 30.2025 10.5076 29.871 10.5182C29.4924 10.5182 29.1872 10.6282 28.9552 10.8482C28.7224 11.0682 28.5702 11.3643 28.4969 11.7374ZM22.7987 16.1669V9.83984H23.6228L23.6686 10.5008C23.7667 10.3935 23.8987 9.75 25.1812 9.75C25.7917 9.75 26.2968 9.96451 26.6937 10.3917C27.0898 10.8207 27.2896 11.3882 27.2896 12.1004C27.2896 12.81 27.0898 13.3802 26.6937 13.8073C26.2968 14.2354 25.7917 14.449 25.1812 14.449C24.5706 14.449 24.0784 14.2382 23.7612 13.8165H23.7154V16.1669H22.7987ZM24.0949 13.2106C24.3479 13.4947 24.6642 13.6359 25.0446 13.6359C25.2242 13.6392 25.4022 13.6028 25.5661 13.5293C25.73 13.4557 25.8755 13.3469 25.9925 13.2106C26.2446 12.9291 26.372 12.5579 26.372 12.1004C26.372 11.6412 26.2464 11.2699 25.9925 10.9885C25.8759 10.8517 25.7304 10.7425 25.5665 10.669C25.4025 10.5954 25.2242 10.5592 25.0446 10.5631C24.8648 10.5599 24.6866 10.5962 24.5225 10.6696C24.3583 10.7429 24.2124 10.8515 24.0949 10.9876C23.8428 11.2717 23.7154 11.6412 23.7154 12.1004C23.7154 12.557 23.8419 12.9291 24.0949 13.2106ZM18.272 12.5505V9.84075H19.1887V12.5524C19.1887 12.8466 19.2941 13.1015 19.5059 13.316C19.7167 13.5287 19.977 13.6368 20.2887 13.6368C20.6252 13.6368 20.9066 13.5287 21.1367 13.316C21.2449 13.2204 21.3315 13.1028 21.3908 12.9712C21.45 12.8395 21.4806 12.6968 21.4804 12.5524V9.83984H22.3962V14.3564H21.5712L21.4704 13.767C21.4704 13.767 21.375 14.0191 21.0945 14.1768C20.7971 14.3581 20.4546 14.4518 20.1063 14.4472C19.5499 14.4472 19.1053 14.2776 18.7725 13.9357C18.4388 13.5965 18.2738 13.1336 18.2738 12.5496L18.272 12.5505ZM13.7059 14.3684H13V13.4242H13.7059C13.9024 13.4271 14.0954 13.3727 14.2614 13.2674C14.4273 13.162 14.5575 13.0107 14.6372 12.832L15.3706 11.0261C15.5217 10.6716 15.7747 10.3701 16.0975 10.1598C16.4211 9.94892 16.8016 9.83617 17.1893 9.83892H17.9062V10.7831H17.1912C16.9941 10.7798 16.8003 10.8343 16.6338 10.9399C16.4688 11.0453 16.3377 11.1966 16.258 11.3753L15.5246 13.1812C15.3735 13.5357 15.1205 13.8372 14.7977 14.0475C14.4741 14.2584 14.0936 14.3702 13.7059 14.3684Z" fill="#1E2B29"/>
<path d="M10.823 7.5H4.297C4.12668 7.5 3.95802 7.53355 3.80066 7.59873C3.6433 7.66391 3.50032 7.75945 3.37988 7.87988C3.25944 8.00032 3.16391 8.1433 3.09873 8.30066C3.03355 8.45802 3 8.62668 3 8.797V15.322C3 16.039 3.58 16.62 4.297 16.62H10.823C11.1671 16.6197 11.497 16.4829 11.7402 16.2395C11.9834 15.9961 12.12 15.6661 12.12 15.322V8.797C12.1201 8.62664 12.0867 8.45792 12.0215 8.3005C11.9564 8.14309 11.8609 8.00005 11.7404 7.87959C11.6199 7.75913 11.4769 7.66359 11.3195 7.59846C11.1621 7.53333 10.9934 7.49987 10.823 7.5Z" fill="#F54900"/>
<path d="M5.17223 11.5183C5.35311 11.5183 5.52658 11.4464 5.65448 11.3185C5.78238 11.1906 5.85423 11.0172 5.85423 10.8363C5.85423 10.6554 5.78238 10.4819 5.65448 10.354C5.52658 10.2261 5.35311 10.1543 5.17223 10.1543C4.99136 10.1543 4.81789 10.2261 4.68999 10.354C4.56209 10.4819 4.49023 10.6554 4.49023 10.8363C4.49023 11.0172 4.56209 11.1906 4.68999 11.3185C4.81789 11.4464 4.99136 11.5183 5.17223 11.5183ZM10.6002 12.8553H9.48323V13.9753H10.6002V12.8553ZM6.35523 13.9753H4.58523V12.8433H6.35523C6.55523 12.8433 6.73523 12.7293 6.80323 12.5603L7.32023 11.2653C7.44148 10.9687 7.64921 10.7154 7.91639 10.5385C8.18356 10.3616 8.49781 10.2692 8.81823 10.2733H10.6012V11.4033H8.81823C8.72417 11.4014 8.63164 11.4273 8.55228 11.4778C8.47292 11.5284 8.41028 11.6013 8.37223 11.6873L7.85323 12.9823C7.73199 13.2789 7.52426 13.5322 7.25708 13.7091C6.98991 13.886 6.67566 13.9794 6.35523 13.9753Z" fill="white"/>
</g>
<defs>
<clipPath id="clip0-196-3407">
<rect width="38" height="24" fill="white"/>
</clipPath>
</defs>
</svg>

