<svg xmlns="http://www.w3.org/2000/svg" width="38" height="24" fill="none" aria-labelledby="pi-sveafaktura" role="img" viewBox="0 0 38 24"><title id="pi-sveafaktura">Svea Faktura</title><path fill="#fff" d="M0 0h38v24H0z"/><path fill="#002C50" d="M14.72 15.07c-.25 0-.28-.13-.28-.23s.1-.28.35-.28h1.33V14h-1.41c-.62 0-.92.27-.92.83s.28.77.88.77h.58c.26 0 .34.06.34.26s-.06.25-.38.25h-1.4v.59h1.49c.63 0 .92-.26.92-.82s-.24-.77-.85-.77m3-1.11-.75 1.85-.73-1.85h-.72l1.16 2.7h.62l1.1-2.7zm2.63.5.05-.53h-.94c-.85 0-1.25.45-1.25 1.4a1.3 1.3 0 0 0 .41 1.06c.23.18.53.27.82.24h1v-.59h-.88c-.36 0-.51-.14-.53-.51h1.41V15h-1.5a.48.48 0 0 1 .54-.49m2.44.19.3.79h-.6zm-.3-.73-1.13 2.7h.72l.22-.59h1l.22.59h.7L22.9 14z"/><path fill="#00ABC8" d="M23.82 17.85h-9.89a.13.13 0 0 1-.12-.12v-.43a.13.13 0 0 1 .12-.13h9.93a.13.13 0 0 1 .13.13v.43a.12.12 0 0 1-.04.09.12.12 0 0 1-.09.03"/><path fill="#00325C" d="M9.26 10.49V6.71a.24.24 0 0 1 .05-.18.25.25 0 0 1 .19-.06h2a.16.16 0 0 1 .14.08c.02.07.02.15 0 .22V7c.02.08.02.15 0 .23a.15.15 0 0 1-.14.07h-1.32v.88h1.25a.15.15 0 0 1 .14.07c.02.08.02.15 0 .23v.18c.02.08.02.15 0 .23a.15.15 0 0 1-.14.07h-1.25v1.57c0 .13-.12.2-.36.2h-.2c-.24-.04-.36-.11-.36-.24m3.02-.01a.92.92 0 0 1-.21-.63 1 1 0 0 1 .35-.8c.4-.26.89-.37 1.37-.32v-.2a.3.3 0 0 0-.11-.26.64.64 0 0 0-.36-.08 1.3 1.3 0 0 0-.35 0l-.28.1-.13.05a.2.2 0 0 1-.14-.09 1 1 0 0 1-.12-.21.4.4 0 0 1-.06-.18c0-.07 0-.13.15-.2q.195-.105.42-.15c.19-.04.38-.06.58-.06.35-.03.7.06 1 .26a1 1 0 0 1 .3.74v2.04c0 .06-.08.11-.24.14h-.43a.16.16 0 0 1-.15-.09.5.5 0 0 1-.06-.19v-.13a.8.8 0 0 1-.14.17c-.09.08-.2.14-.3.19a1 1 0 0 1-.44.09.88.88 0 0 1-.65-.19m1.29-.57c.1-.07.18-.16.22-.27v-.33q-.84 0-.84.45A.26.26 0 0 0 13 10a.3.3 0 0 0 .22.07.56.56 0 0 0 .35-.16m4.62.69c0 .06-.12.09-.35.09h-.25c-.2 0-.31-.04-.36-.12l-.83-1.38v1.29c0 .13-.12.2-.36.2h-.16c-.24 0-.36-.07-.36-.2V6.34c0-.13.12-.19.36-.19H16c.24 0 .36.06.36.19v2.38l.72-1.08a.3.3 0 0 1 .14-.1h.45c.23 0 .34 0 .34.09a.17.17 0 0 1-.06.12l-.83 1.19 1 1.55c.03.03.06.07.07.11m.49-.85V8.24h-.1a.17.17 0 0 1-.14-.07.6.6 0 0 1 0-.23v-.1a.6.6 0 0 1 0-.23.15.15 0 0 1 .14-.07h.1l.08-.54c0-.13.12-.2.32-.2h.19c.2 0 .3.07.3.2v.57h.29a.14.14 0 0 1 .14.07c.02.08.02.15 0 .23v.1c.02.08.02.15 0 .23a.16.16 0 0 1-.14.07h-.29v1.49c0 .07 0 .14.05.2a.2.2 0 0 0 .16.06H20s.06 0 .09.09l.07.19v.15c0 .19-.19.29-.57.29-.59-.02-.91-.34-.91-.99m2.16.74a1.1 1.1 0 0 1-.22-.74v-2c0-.13.12-.2.36-.2h.17c.24 0 .36.07.36.2v1.9c0 .1.02.2.09.28a.34.34 0 0 0 .27.09c.1 0 .2-.03.29-.1a.9.9 0 0 0 .19-.25V7.72c0-.13.12-.2.36-.2h.17c.24 0 .36.07.36.2v2.77c0 .06-.08.11-.24.14h-.43a.16.16 0 0 1-.15-.09.53.53 0 0 1-.06-.32c-.1.13-.23.24-.38.32a1 1 0 0 1-.51.13.9.9 0 0 1-.63-.18m3.16 0V7.87a1 1 0 0 1 0-.12c0-.07.08-.12.25-.15a2.4 2.4 0 0 1 .5.01c.04.02.06.04.07.07l.07.18v.13a1 1 0 0 1 .26-.33.6.6 0 0 1 .39-.12.31.31 0 0 1 .27.1c.05.06.07.14.07.22 0 .1-.02.22-.05.32 0 .12-.08.19-.13.19h-.29c-.1 0-.2.03-.28.09a.8.8 0 0 0-.2.21v1.92c0 .13-.12.2-.36.2h-.17c-.3-.1-.4-.17-.4-.3m2.27-.01a.92.92 0 0 1-.21-.63 1 1 0 0 1 .35-.8c.4-.26.89-.37 1.37-.32v-.2a.3.3 0 0 0-.11-.26.6.6 0 0 0-.35-.08 1.3 1.3 0 0 0-.36 0l-.27.1-.14.05a.17.17 0 0 1-.13-.09 1 1 0 0 1-.13-.21.35.35 0 0 1-.05-.18c0-.07.05-.13.15-.2.13-.07.27-.12.41-.15.2-.04.38-.06.58-.06.35-.03.7.06 1 .26a1 1 0 0 1 .3.74v2.04c0 .06-.08.11-.24.14h-.43a.16.16 0 0 1-.15-.09.5.5 0 0 1-.06-.19v-.13a.8.8 0 0 1-.14.17 1 1 0 0 1-.3.19 1 1 0 0 1-.44.09.88.88 0 0 1-.65-.19m1.29-.57c.1-.07.18-.16.22-.27v-.33q-.84 0-.84.45A.26.26 0 0 0 27 10a.3.3 0 0 0 .22.07.54.54 0 0 0 .34-.16"/></svg>