<svg xmlns="http://www.w3.org/2000/svg" width="38" height="24" fill="none" aria-labelledby="pi-sveadelbetalning" role="img" viewBox="0 0 38 24"><title id="pi-sveadelbetalning">Svea Delbetalning</title><path fill="#fff" d="M0 0h38v24H0z"/><path fill="#002C50" d="M14.52 15.1c-.25 0-.28-.13-.28-.23s.1-.28.35-.28h1.35V14h-1.42c-.64 0-.94.27-.94.84s.28.78.89.78h.58c.27 0 .35.06.35.26s-.06.25-.38.25H13.6v.6h1.51c.64 0 .94-.27.94-.83s-.25-.78-.87-.78m3.05-1.1-.77 1.87-.74-1.87h-.73l1.17 2.72h.63l1.12-2.72zm2.7.5L21 14h-1c-.86 0-1.27.45-1.27 1.41a1.28 1.28 0 0 0 .42 1.07c.23.19.53.28.83.25h1v-.6h-.9c-.37 0-.52-.14-.53-.51H21V15h-1.54a.49.49 0 0 1 .55-.51m2.47.24.32.8h-.62zm-.3-.74L21 16.72h.73l.22-.6h1l.23.6H24L22.82 14z"/><path fill="#00ABC8" d="M23.76 17.91h-10a.12.12 0 0 1-.12-.12v-.44a.12.12 0 0 1 .12-.12H23.8a.13.13 0 0 1 .13.12v.44a.13.13 0 0 1-.13.12"/><path fill="#00325C" d="M1.89 10.6a.23.23 0 0 1-.06-.18V6.66a.25.25 0 0 1 .06-.19.26.26 0 0 1 .19 0h1.29A1.86 1.86 0 0 1 4.81 7c.36.44.54 1 .5 1.58.04.57-.14 1.13-.5 1.57a1.83 1.83 0 0 1-1.44.55H2.08a.25.25 0 0 1-.19-.1m1.48-.73a.88.88 0 0 0 .74-.34c.18-.3.27-.65.25-1 .02-.35-.07-.7-.25-1a.85.85 0 0 0-.74-.34h-.6v2.68zm2.86.41a1.68 1.68 0 0 1-.39-1.18c-.04-.45.1-.9.39-1.26a1.43 1.43 0 0 1 1.09-.4 1.17 1.17 0 0 1 1 .44c.22.33.33.72.31 1.12a.46.46 0 0 1-.13.21c-.08.1-.14.14-.18.14H6.77a.66.66 0 0 0 .23.5c.14.1.31.16.49.15.1.02.2.02.31 0l.29-.1h.13a.2.2 0 0 1 .14.09c.05.06.09.13.12.2.03.05.05.1.06.17 0 .1-.07.18-.19.24a2.3 2.3 0 0 1-.91.2 1.52 1.52 0 0 1-1.21-.52m1.52-1.52a.74.74 0 0 0-.11-.44.36.36 0 0 0-.32-.17c-.3 0-.49.2-.55.61zm1.49.97V6.28c0-.13.12-.19.36-.19h.17c.24 0 .37.06.37.19v3.46a.28.28 0 0 0 0 .2.2.2 0 0 0 .16.06h.17s.07 0 .09.09c.04.06.06.13.07.2v.14c0 .2-.2.3-.59.3-.51-.02-.8-.35-.8-1m2.99.85a.8.8 0 0 1-.32-.33l-.06.27a.19.19 0 0 1-.11.12.8.8 0 0 1-.25 0h-.07c-.24 0-.36-.06-.36-.19V6.28c0-.13.12-.19.36-.19h.17c.24 0 .37.06.37.19v1.35a1 1 0 0 1 .61-.19 1.14 1.14 0 0 1 .95.44c.24.35.35.77.33 1.19.01.3-.04.6-.14.89a1.2 1.2 0 0 1-.41.56.92.92 0 0 1-.58.19.9.9 0 0 1-.49-.13m.71-1.51c0-.61-.18-.92-.56-.92-.15 0-.3.04-.42.12v1.35a.58.58 0 0 0 .49.36c.33.02.49-.31.49-.91m1.81 1.21a1.68 1.68 0 0 1-.39-1.18c-.04-.45.1-.9.39-1.26a1.46 1.46 0 0 1 1.09-.4 1.14 1.14 0 0 1 1 .44c.22.33.33.72.31 1.12a.4.4 0 0 1-.13.21c-.08.1-.14.14-.18.14h-1.55a.66.66 0 0 0 .21.49c.14.11.32.17.5.16.1.02.2.02.31 0l.29-.1h.13a.2.2 0 0 1 .14.09c.05.06.1.13.13.2a.5.5 0 0 1 .05.17c0 .1-.06.18-.19.24a2.3 2.3 0 0 1-.9.2 1.54 1.54 0 0 1-1.21-.52m1.52-1.52a.74.74 0 0 0-.11-.44.36.36 0 0 0-.32-.17c-.3 0-.48.2-.55.61zm1.57.97V8.2h-.09a.16.16 0 0 1-.14-.07.5.5 0 0 1 0-.23v-.11a.5.5 0 0 1 0-.23.14.14 0 0 1 .14-.07h.09l.08-.58c0-.13.13-.19.33-.19h.19c.2 0 .3.06.3.19v.58H19a.15.15 0 0 1 .14.07c.02.08.02.15 0 .23v.11c.02.08.02.15 0 .23a.17.17 0 0 1-.14.07h-.3v1.54c0 .07.01.14.05.2A.22.22 0 0 0 19 10h.16s.07 0 .1.09l.07.2v.14c0 .2-.19.3-.58.3-.61-.02-.91-.35-.91-1m2.08.74a1 1 0 0 1-.21-.65 1 1 0 0 1 .35-.8c.41-.26.9-.38 1.39-.32v-.2a.34.34 0 0 0-.11-.27.7.7 0 0 0-.34-.08 1.4 1.4 0 0 0-.36 0l-.27.1a.4.4 0 0 1-.14.05.2.2 0 0 1-.14-.09c-.06-.06-.1-.13-.15-.21a.5.5 0 0 1-.06-.18c0-.07.05-.14.15-.2.13-.08.27-.13.42-.16.18-.03.37-.03.55-.02.35-.03.7.06 1 .27a1 1 0 0 1 .3.74v2.02c0 .07-.08.12-.25.15a2 2 0 0 1-.43.05.16.16 0 0 1-.15-.09 1 1 0 0 1-.07-.19v-.14l-.15.17a1.06 1.06 0 0 1-.75.29.88.88 0 0 1-.58-.24m1.3-.58c.1-.07.18-.16.23-.27v-.34c-.57 0-.85.15-.85.45a.24.24 0 0 0 .08.2.3.3 0 0 0 .22.07c.12 0 .23-.04.32-.11m1.92-.16V6.28c0-.13.12-.19.36-.19h.17c.25 0 .37.06.37.19v3.46c0 .07 0 .14.05.2a.21.21 0 0 0 .17.06h.16s.07 0 .1.09a1 1 0 0 1 .06.2v.14c0 .2-.2.3-.58.3-.57-.02-.86-.35-.86-1m1.79.75V7.7c0-.06.08-.11.25-.14a1.8 1.8 0 0 1 .52.02c.02.01.05.03.06.06l.07.18v.13a1.13 1.13 0 0 1 .91-.46.86.86 0 0 1 .67.24c.16.21.24.47.22.74v2.06c0 .13-.12.19-.36.19h-.17c-.25 0-.37-.06-.37-.19V8.56c0-.1-.02-.2-.08-.29a.38.38 0 0 0-.28-.09c-.1 0-.21.04-.29.11a.9.9 0 0 0-.2.24v2c0 .13-.12.19-.36.19h-.22c-.24-.05-.37-.11-.37-.24m3.36-3.62v-.43c0-.15.15-.22.45-.22s.45.07.45.22v.43c0 .16-.15.23-.45.23s-.45-.09-.45-.23m0 3.62V7.67c0-.13.13-.19.37-.19h.17c.24 0 .36.06.36.19v2.81c0 .13-.12.19-.36.19h-.17c-.24 0-.37-.06-.37-.19m1.63 0V8.15a3 3 0 0 1 0-.45c0-.06.08-.11.24-.14a1.9 1.9 0 0 1 .53.02c.02.01.05.03.06.06a.48.48 0 0 1 .06.31c.1-.14.24-.25.39-.33a1 1 0 0 1 .51-.13.88.88 0 0 1 .68.24c.16.21.23.48.21.74v2.06c0 .13-.12.19-.36.19H32c-.24 0-.36-.06-.36-.19V8.56c0-.1-.02-.2-.09-.29a.36.36 0 0 0-.28-.09c-.1 0-.2.04-.29.11a.9.9 0 0 0-.19.24v2c0 .13-.12.19-.37.19h-.17c-.25-.05-.33-.11-.33-.24m3.15.63c0-.15.05-.3.14-.42a1 1 0 0 1 .41-.28.44.44 0 0 1-.2-.18.6.6 0 0 1-.06-.27c0-.1.03-.2.09-.28.07-.1.16-.18.27-.23a.94.94 0 0 1-.49-.9 1 1 0 0 1 .36-.82c.28-.18.6-.27.94-.26.16-.02.31-.02.47 0h1a.13.13 0 0 1 .13.07c.04.07.05.15.05.23v.13c0 .19-.05.28-.15.28h-.26c.03.05.06.1.07.16v.18a1 1 0 0 1-.35.81c-.26.18-.57.27-.89.26-.25 0-.37.06-.37.17s0 .11.13.14c.14.04.28.07.43.09h.34c.24.04.48.13.68.27a.72.72 0 0 1 .26.61c0 .2-.07.39-.2.54-.15.16-.34.29-.55.36-.26.09-.54.13-.82.13-.95.07-1.43-.2-1.43-.79m2 .05a.24.24 0 0 0 .15-.22c0-.09-.06-.16-.2-.2a3 3 0 0 0-.73-.1.6.6 0 0 0-.24.14.26.26 0 0 0-.09.18.21.21 0 0 0 .16.2c.15.06.32.09.48.08.15 0 .3-.02.45-.08zm-.18-2.32a.41.41 0 0 0 .11-.32.4.4 0 0 0-.13-.32.46.46 0 0 0-.33-.11.47.47 0 0 0-.33.11.39.39 0 0 0-.12.32.41.41 0 0 0 .12.32c.1.07.21.1.33.1a.5.5 0 0 0 .33-.1z"/></svg>