<svg xmlns="http://www.w3.org/2000/svg" width="38" height="24" fill="none" aria-labelledby="pi-sveacheckout" role="img" viewBox="0 0 38 24"><title id="pi-sveacheckout">Svea Checkout</title><path fill="#fff" d="M0 0h38v24H0z"/><path fill="#00325C" d="M7.41 9.47H5.1c-.84 0-.94-.42-.94-.74 0-.65.34-.92 1.18-.92h4.49V6H5.08C2.98 6 2 6.86 2 8.7c0 1.74.93 2.55 2.93 2.55H7c.8 0 1.07.2 1.07.8 0 .5-.19.77-1.19.77H2.34v1.8h4.82c2.1 0 3.07-.84 3.07-2.65 0-1.78-.82-2.5-2.82-2.5M17.3 6l-2.45 5.9-2.4-5.9h-2.34l3.77 8.63h2.02L19.52 6h-2.23Zm5.87 1.78h3.03V6h-3.07c-2.78 0-4.08 1.42-4.08 4.46 0 1.57.44 2.69 1.34 3.4.88.7 1.74.77 2.7.77h3.12v-1.78h-3.04c-1.26 0-1.77-.46-1.82-1.7h4.86V9.37h-4.83c.1-1.08.68-1.6 1.79-1.6ZM30.24 6l-3.66 8.63h2.22l.74-1.98h3.38l.77 1.98H36L32.31 6zm0 4.84.97-2.56 1.02 2.56h-2Z"/><path fill="#00AECE" d="M35.58 16.28H2.7a.41.41 0 0 0-.42.41v1.42c0 .23.19.42.42.42h32.88c.23 0 .42-.19.42-.42V16.7a.42.42 0 0 0-.42-.41Z"/></svg>