<svg xmlns="http://www.w3.org/2000/svg" role="img" viewBox="0 0 38 24" width="38" height="24" aria-labelledby="pi-sveacheckout"><title id="pi-sveacheckout">Svea Checkout</title><path d="M6.05 6.59H3.46c-.936 0-1.044-.796-1.044-1.396 0-1.245.381-1.753 1.317-1.753h5.014V0h-5.3C1.097 0 0 1.636 0 5.148c0 3.302 1.042 4.84 3.28 4.84h2.304c.908 0 1.198.366 1.198 1.51 0 .95-.21 1.464-1.328 1.464H.375v3.439h5.39c2.343 0 3.435-1.602 3.435-5.039 0-3.388-.913-4.771-3.15-4.771zM17.09 0l-2.736 11.236L11.682 0H9.059l4.214 16.406h2.265L19.576.002 17.09.001zM23.645 3.377h3.396V0h-3.435c-3.112 0-4.561 2.697-4.561 8.487 0 2.99.489 5.103 1.494 6.46.989 1.347 1.95 1.456 3.016 1.456h3.486V13.03h-3.396c-1.404 0-1.968-.885-2.024-3.237h5.42V6.417h-5.396c.12-2.072.76-3.04 2-3.04zM31.564.001l-4.093 16.404h2.48l.829-3.759h3.782l.855 3.759H38L33.88 0h-2.315zm-.01 9.206l1.093-4.877 1.136 4.877h-2.23z" fill="#00325C"/><path d="M37.534 19.547H.779c-.257 0-.466.353-.466.789v2.696c0 .436.209.79.466.79h36.755c.257 0 .465-.354.465-.79v-2.696c0-.436-.208-.79-.465-.79z" fill="#00AECE"/></svg>