<svg xmlns="http://www.w3.org/2000/svg" width="38" height="24" fill="none" aria-labelledby="pi-sveab2bfaktura" role="img" viewBox="0 0 38 24"><title id="pi-sveab2bfaktura">Svea B2B Faktura</title><path fill="#fff" d="M0 0h38v24H0z"/><path fill="#002C50" d="M14.69 15.09c-.26 0-.29-.13-.29-.22s.11-.29.36-.29h1.34V14h-1.42c-.63 0-.93.26-.93.83s.28.78.89.78h.58c.26 0 .34.06.34.26s-.06.25-.38.25h-1.41v.59h1.5c.64 0 .93-.26.93-.82s-.25-.78-.86-.78m3.02-1.09-.75 1.86-.74-1.86h-.72l1.16 2.71h.63l1.11-2.71zm2.7.49.05-.52h-.95c-.86 0-1.26.44-1.26 1.4a1.31 1.31 0 0 0 .41 1.07c.24.18.53.27.83.24h1v-.59h-.89c-.37 0-.52-.14-.53-.51h1.42V15H19.6a.48.48 0 0 1 .54-.5m2.45.22.31.8h-.61zm-.3-.73-1.13 2.71h.72l.22-.59h1l.22.59h.75L22.93 14z"/><path fill="#00ABC8" d="M23.86 17.89h-10a.12.12 0 0 1-.12-.12v-.43a.13.13 0 0 1 .12-.13h10a.13.13 0 0 1 .13.13v.43a.14.14 0 0 1-.13.13"/><path fill="#00325C" d="M3.31 10.61a.25.25 0 0 1-.06-.19V6.67a.21.21 0 0 1 .24-.24h1.2c.38-.03.76.07 1.08.29a1 1 0 0 1 .16 1.34c-.12.16-.28.28-.46.36a1 1 0 0 1 .82.99 1.13 1.13 0 0 1-.38.91c-.33.23-.73.34-1.13.31H3.49a.24.24 0 0 1-.18-.02M4.6 8.12c.14.01.29-.03.4-.12a.39.39 0 0 0 .15-.32c0-.3-.18-.45-.55-.45h-.42v.9zm.18 1.75c.15 0 .3-.03.41-.12a.5.5 0 0 0 .14-.37.39.39 0 0 0-.17-.38.8.8 0 0 0-.48-.12h-.5v1zm1.85.6a1.5 1.5 0 0 1 0-.34v-.09l1.5-1.87a1 1 0 0 0 .23-.58.47.47 0 0 0-.16-.37.66.66 0 0 0-.41-.12c-.1 0-.2.01-.29.05a2 2 0 0 0-.26.13.36.36 0 0 1-.15.08.3.3 0 0 1-.24-.15.5.5 0 0 1-.11-.27c0-.17.12-.31.37-.41.26-.1.55-.15.83-.15.36-.03.72.1 1 .33a1.12 1.12 0 0 1 .34.86c0 .37-.13.72-.37 1L7.76 10h1.39c.07 0 .12 0 .14.07.04.07.05.15.05.23v.1c0 .08-.01.16-.05.23 0 .05-.07.07-.14.07h-2.4s-.08-.1-.12-.23m3.5.14a.25.25 0 0 1-.06-.19V6.67a.24.24 0 0 1 .06-.18.25.25 0 0 1 .19-.06h1.19c.39-.03.77.07 1.09.29a1 1 0 0 1 .16 1.34c-.12.16-.29.28-.47.36.23.04.45.16.59.35a1 1 0 0 1 .23.64 1.13 1.13 0 0 1-.38.91c-.33.23-.73.34-1.13.31h-1.28a.26.26 0 0 1-.19-.02m1.29-2.49a.6.6 0 0 0 .42-.12.39.39 0 0 0 .16-.33c0-.3-.18-.45-.55-.45H11v.9zm.18 1.75c.14 0 .28-.04.4-.12a.46.46 0 0 0 .14-.37A.4.4 0 0 0 12 9a.8.8 0 0 0-.48-.12H11v1zm3.51.61V6.67a.2.2 0 0 1 .14-.23.2.2 0 0 1 .1-.01h2a.16.16 0 0 1 .14.07c.02.08.02.15 0 .23v.19c.02.08.02.15 0 .23a.14.14 0 0 1-.14.07H16v.89h1.3a.14.14 0 0 1 .14.07c.02.08.02.15 0 .23v.19c.02.08.02.15 0 .23a.16.16 0 0 1-.14.07H16v1.58c0 .13-.12.2-.36.2h-.21c-.2 0-.32-.07-.32-.2m3.05-.01a.93.93 0 0 1-.16-.64 1 1 0 0 1 .3-.83c.4-.26.9-.38 1.38-.32v-.2a.28.28 0 0 0-.11-.26.56.56 0 0 0-.36-.09 2 2 0 0 0-.36 0l-.27.1h-.14a.2.2 0 0 1-.14-.09 1.3 1.3 0 0 1-.12-.2.45.45 0 0 1-.06-.19c0-.07.05-.13.15-.2.13-.08.27-.13.42-.16.2-.04.4-.06.59-.06.35-.03.7.06 1 .27a.92.92 0 0 1 .31.74v2.14c0 .06-.08.11-.24.14-.15.03-.3.05-.44.05a.16.16 0 0 1-.15-.09.6.6 0 0 1-.06-.19v-.14a.6.6 0 0 1-.14.18c-.1.08-.2.14-.31.19a1 1 0 0 1-.44.09.88.88 0 0 1-.65-.24m1.3-.57c.1-.07.17-.17.22-.28v-.33q-.84 0-.84.45a.22.22 0 0 0 .08.19.3.3 0 0 0 .22.08c.12 0 .23-.04.32-.11m4.65.69c0 .06-.11.09-.34.09h-.26q-.3 0-.36-.12l-.84-1.39v1.3c0 .13-.12.2-.36.2h-.17c-.24 0-.36-.07-.36-.2V6.3c0-.13.12-.2.36-.2h.17c.24 0 .36.07.36.2v2.39L23 7.6a.3.3 0 0 1 .13-.09h.46c.23 0 .34 0 .34.09v.12l-.84 1.2 1 1.56zm.5-.86V8.21h-.1a.14.14 0 0 1-.14-.07.5.5 0 0 1 0-.23V7.8a.5.5 0 0 1 0-.23.16.16 0 0 1 .14-.07h.1l.07-.57c0-.13.13-.2.33-.2h.19c.2 0 .3.07.3.2v.57h.3a.17.17 0 0 1 .14.07v.57a.15.15 0 0 1-.14.07h-.3v1.54c0 .07.01.14.05.2a.22.22 0 0 0 .17.06h.16s.07 0 .1.09l.07.2v.15c0 .19-.19.29-.58.29-.57-.03-.86-.35-.86-1.01m2.17.74a1.1 1.1 0 0 1-.21-.74V7.68c0-.13.12-.19.36-.19h.17c.24 0 .36.06.36.19V9.6a.38.38 0 0 0 .09.28.34.34 0 0 0 .27.1c.1 0 .21-.04.29-.11a.8.8 0 0 0 .2-.25V7.68c0-.13.12-.19.36-.19h.17c.24 0 .36.06.36.19v2.8c0 .06-.08.11-.24.14a2 2 0 0 1-.43.05.15.15 0 0 1-.15-.09 1 1 0 0 1-.07-.19v-.14c-.1.14-.24.25-.39.33a1 1 0 0 1-.52.13.87.87 0 0 1-.62-.24m3.22.01V7.71c0-.06.08-.11.24-.14.14-.03.3-.05.44-.05a.16.16 0 0 1 .15.08l.06.18v.13q.105-.195.27-.33a.5.5 0 0 1 .39-.13.34.34 0 0 1 .27.1.4.4 0 0 1 .07.23c0 .1-.02.22-.05.32 0 .12-.08.19-.13.19h-.29a.5.5 0 0 0-.29.09 1.2 1.2 0 0 0-.19.21v1.94c0 .13-.12.2-.37.2h-.16c-.34-.05-.41-.12-.41-.25m2.26-.01A1 1 0 0 1 32.4 9c.4-.27.9-.38 1.38-.32v-.2a.3.3 0 0 0-.11-.26.6.6 0 0 0-.36-.09 2 2 0 0 0-.36 0l-.28.1h-.14s-.08 0-.13-.09a.9.9 0 0 1-.13-.2.6.6 0 0 1-.05-.19c0-.07.05-.13.15-.2.13-.08.27-.13.42-.16.2-.04.4-.06.59-.06.35-.03.7.06 1 .27a1 1 0 0 1 .31.74v2.14c0 .06-.08.11-.25.14a2 2 0 0 1-.43.05.16.16 0 0 1-.15-.09.6.6 0 0 1-.06-.33 1 1 0 0 1-.45.37 1 1 0 0 1-.44.09.86.86 0 0 1-.65-.24m1.3-.57c.1-.07.17-.17.22-.28v-.33c-.56 0-.85.15-.85.45a.26.26 0 0 0 .08.19c.06.06.15.08.23.08.12 0 .23-.04.32-.11"/></svg>