<svg xmlns="http://www.w3.org/2000/svg" role="img" viewBox="0 0 38 24" width="38" height="24" aria-labelledby="pi-swedbank"><title id="pi-swedbank">Swedbank</title><path d="M35 0H3C1.3 0 0 1.3 0 3v18c0 1.7 1.4 3 3 3h32c1.7 0 3-1.3 3-3V3c0-1.7-1.4-3-3-3z" fill-opacity=".07" fill-rule="nonzero"/><path d="M35 1c1.1 0 2 .9 2 2v18c0 1.1-.9 2-2 2H3c-1.1 0-2-.9-2-2V3c0-1.1.9-2 2-2h32" fill="#fff" fill-rule="nonzero"/><clipPath id="pi-swedbank_clip1"><path d="M35 1c1.1 0 2 .9 2 2v18c0 1.1-.9 2-2 2H3c-1.1 0-2-.9-2-2V3c0-1.1.9-2 2-2h32" clip-rule="nonzero"/></clipPath><g clip-path="url(#pi-swedbank_clip1)"><g id="pi-swedbank_Lager_2" transform="matrix(.16667 0 0 .16667 1 8)"><g id="pi-swedbank_Lager_1-2"><path d="M213.2 24c0 11.7-9.5 21.2-21.2 21.2s-21.2-9.5-21.2-21.2S180.3 2.8 192 2.8s21.2 9.5 21.2 21.2z" fill="url(#pi-swedbank_Radial2)"/><g fill-rule="nonzero"><path d="M192 1c-12.7 0-23 10.3-23 23s10.3 23 23 23 23-10.3 23-23-10.3-23-23-23zm0 45c-12.2 0-22-9.8-22-22s9.8-22 22-22 22 9.8 22 22-9.8 22-22 22z" fill="url(#pi-swedbank_Linear3)"/><path d="M192 2c-12.2 0-22 9.8-22 22s9.8 22 22 22 22-9.8 22-22-9.8-22-22-22zm0 43c-11.6 0-21-9.4-21-21s9.4-21 21-21 21 9.4 21 21-9.4 21-21 21z" fill="url(#pi-swedbank_Linear4)"/><path d="M192 46.1c-12.2 0-22.1-9.9-22.1-22.1 0-12.2 9.9-22.1 22.1-22.1 12.2 0 22.1 9.9 22.1 22.1 0 12.2-9.9 22.1-22.1 22.1zm0-44c-12.1 0-21.9 9.8-21.9 21.9 0 12.1 9.8 21.9 21.9 21.9 12.1 0 21.9-9.8 21.9-21.9 0-12.1-9.8-21.9-21.9-21.9z" fill="#faaf5a"/></g><path d="M210.4 26.9c-.1.7-2 .6-2.5.6-.4 0-.7.3-.8.7-.5.1-1.1.1-1.6.1-1.7 0-2.1-.6-2.1-.6-.8 0-.8.7-1.5.9-.4.1-.9-.7-.9-.7-1.1.1-2.3 0-3.4-.2-.5-.3-1.4-2-1.8-2h-.6c-.5.1-.8.5-.7 1.3.1.8.3 2.3.4 2.9.2 1 2.1 1.4 2.9 1.8l.1.4c-.9-.1-3.2-.4-2.7.1.2.2.5.5.7.8v.3c-1.2-.6-2.5-.9-3.8-1-1.3 0-2.6.3-3.8.9v-.4c.3-.3.6-.5.8-.8.3-.3-.7-.3-2.2-.3l.1-.4c.9-.3 2.3-.4 2.5-1.4.2-.8.3-3 .3-3 .1-1.2-.8-2-1.3-1.8-.5.2-.9.4-1.3.7-.2.3.1.7.1 1.3 0 .3-1.1.4-2.4.3-.5 0-1.5 1-1.7 1-.4 0-.7.1-1.1.1-.3 0-.6-.6-1.1-.6-.3 0-.7.6-.9.5-.6-.1-1.2-.3-1.8-.5-.2-.1.2-1.2.1-1.3-.4-.1-.7-.1-1.1.1-.2.1-.6.5-.7.6-.8.2-1.7.3-2.5.1 0-.5.1-1 .2-1.5.5-.5 1.4-1.2 1.2-1.5-.1-.2-.9-.7-.8-1 .1-.2.2-.4.4-.5.2-.3.7.1 1-.1.3-.2.4-.6.5-.6.3-.1.6-.1.8-.1.2 0 .4.7.6.7.3 0 .7 0 .8-.2.2-.4.3-.8.3-1.2 0-.4-1.2-.8-1.2-1 0-.2.4-1.5.6-1.6.3-.1.9-.3.9-.5-.1-.6-.4-1.9-.3-2 .3-.3.7-.5 1.1-.8.2-.1.5 0 .8.2.4.2.8.1 1.1-.2.1-.2.1-1.5.3-1.6.3-.2.7-.4.8-.5.2-.1.9.3 1 .2.4-.5.6-.8.6-1-.2-.5-.3-1.1-.3-1.6.1-.3.3-.7.5-1 .2-.3 1.1-.1 1.5-.5.5-.4.3-.8.9-.9.8-.2 1.6-.6 2.3-1.1.8-.1 1.6-.1 2.4.1.3 0 .9-.5 1.1-.6.5 0 1.1.1 1.6.3.2.1.3 1.1.8 1.3.4.2.8.3 1.3.3 1.1.1 1.4-.7 1.8-.6.5.2 1 .5 1.3.9.3.4-.2 1.7.5 2 .9.4 1.8 1.3 1.7 1.6-.1.4-.5 1.2-.3 1.4.1.1.8 0 1.1-.1.4 0 .8.1 1.1.3.2.3.5.6.8.8.5.2 1.2.5 1.2.7.2.7-.3 1.6-.2 1.9 0 0 .9.3 1 .6v1.8c.4-.1.9-.2 1.4 0 .4.1.5.6.7 1.1 0 .1.5.2.6.3.3.7.2 1.1 0 1.2-.6.2-2 .7-1.8 1.3.1.3.4.6.7.6.6 0 1.2.1 1.7.3-.1.7.2 1.3.2 1.9z" fill="url(#pi-swedbank_Radial5)"/><g fill-rule="nonzero"><path d="M206.8 18.4l-.5.4.1.1.5-.3c0-.1 0-.2-.1-.2z" fill="#dc8730"/><path d="M206.9 18.5l-.5.3v.2l.5-.3v-.2z" fill="#8d4428"/><path d="M206.9 18.7l-.5.3v.4l.5-.4v-.3z" fill="#9f5024"/><path d="M206.9 19.1l-.5.4v1.2l.6-.7h-.1v-.9z" fill="#ad5725"/><path d="M204.3 14.7l-.5.4.3.3.5-.4-.3-.3z" fill="#e48e33"/><path d="M204.6 15l-.5.4.2.2.5-.4c-.1-.1-.2-.1-.2-.2z" fill="#db7b29"/><path d="M207 19.9l-.6.8c.1 0 .3-.1.4-.1l.6-.7h-.4z" fill="#dc8730"/><path d="M206.8 20.6h.2l.6-.6h-.2l-.6.6zM203.7 14.9c0 .1.1.2.2.2l.5-.4-.3-.3c-.1-.1-.3-.2-.5-.3l-.6.5c.2 0 .5.1.7.3z" fill="#ffb560"/><path d="M192.7 7.6V7c-.2.1-.4.2-.5.3v.6c.2-.1.4-.2.5-.3z" fill="#bc6327"/><path d="M207.5 19.9l-.6.6h.2l.5-.6h-.1z" fill="#ffcb80"/><path d="M207.6 19.9l-.5.6c.2 0 .5 0 .7.1l.4-.5c-.2-.1-.4-.1-.6-.2z" fill="#ffd68e"/><path d="M204.5 15.7l.2.1.5-.5-.2-.1c-.1 0-.1-.1-.2-.1l-.5.4c0 .1.1.2.2.2z" fill="#ffb560"/><path d="M193 7.5h.2V7h-.2c-.1 0-.3 0-.4.1v.6c.2-.2.3-.2.4-.2z" fill="#d57c3f"/><path d="M194.4 7.7l.4-.4-1.5-.3v.5c.3 0 .7.1 1.1.2z" fill="#ffcd85"/><path d="M194.6 7.7c.1 0 .1.1.2.3l.4-.5-.3-.3h-.1l-.4.4c0 .1.1.1.2.1z" fill="#efa952"/><path d="M194.9 8.4l.4-.5c0-.1-.1-.3-.2-.4l-.4.5c.1.1.1.3.2.4z" fill="#dc8730"/><path d="M195.2 9l.4-.5c-.1-.1-.2-.4-.3-.6l-.4.5c0 .2.2.4.3.6z" fill="#e48e33"/><path d="M195.4 9c.5.2 1 .3 1.5.4l.1-.6c-.5 0-.9-.1-1.3-.4l-.4.5c0 .1 0 .1.1.1z" fill="#ffcd85"/><path d="M198 8.9l.1-.7c-.2.1-.4.2-.6.4l-.1.8c.2-.2.4-.3.6-.5z" fill="#db7b29"/><path d="M197.4 9.3l.1-.8c-.2.2-.4.3-.6.3l-.1.6c.2 0 .4-.1.6-.1z" fill="#fdac4a"/><path d="M198.4 8.7h.1l.1-.6c-.1 0-.2-.1-.3-.1-.1 0-.2 0-.3.1l-.1.7c.2 0 .3-.1.5-.1z" fill="#eb962a"/><path d="M198.9 8.9l.1-.6c-.1-.1-.3-.1-.4-.2l-.1.6c.1.1.2.1.4.2z" fill="#ffc378"/><path d="M199.2 9.2l.2-.5c-.1-.1-.3-.2-.5-.3l-.1.6c.2 0 .3.1.4.2z" fill="#ffce89"/><path d="M199.6 9.6l.5-.3c-.2-.2-.4-.5-.7-.6l-.2.5c.1.1.3.2.4.4z" fill="#ffd79d"/><path d="M199.7 9.8l.5-.3s0-.1-.1-.1l-.1-.1-.5.3.2.2z" fill="#eeaf67"/><path d="M199.7 10.6l.6-.4c0-.3 0-.5-.1-.8l-.5.3c.1.3.1.6 0 .9z" fill="#dc8730"/><path d="M199.8 11.4l.5-.4v-.8l-.6.4c0 .3.1.5.1.8z" fill="#ad5725"/><path d="M200 11.5l.5-.4c-.1 0-.1-.1-.1-.2l-.5.4c0 .1 0 .2.1.2z" fill="#bf6b29"/><path d="M200.4 11.1l-.5.4c.1.1.1.1.2.1h.1l.5-.4c-.1.1-.2 0-.3-.1z" fill="#fcb664"/><path d="M200.6 11.9l.4-.3c-.1-.1-.3-.2-.4-.3l-.5.4c.3 0 .4.1.5.2z" fill="#ffc378"/><path d="M201.6 12.8l.4-.3c-.3-.3-.6-.7-1-.9l-.4.3c.4.2.7.5 1 .9z" fill="#ffd68e"/><path d="M201.8 13l.4-.3c0-.1-.1-.1-.2-.2l-.4.3.2.2z" fill="#fdac4a"/><path d="M201.8 13.2l.5-.3c0-.1-.1-.2-.1-.2l-.4.3c0 .1.1.2 0 .2z" fill="#dc8730"/><path d="M201.8 13.2c0 .1-.1.3-.1.4l.7-.5c0-.1 0-.2-.1-.3l-.5.4z" fill="#ad5725"/><path d="M201.5 14.7l.7-.7c-.1 0 0-.4.1-.7v-.1l-.7.5c-.1.4-.2.8-.1 1z" fill="#994822"/><path d="M201.7 14.7l.8-.8h-.3l-.7.7c0 .1.1.2.2.1z" fill="#fcb664"/><path d="M202.6 14.6h.4l.6-.5c-.3-.1-.7-.1-1.1-.1l-.8.7c.3 0 .6 0 .9-.1z" fill="#ffd68e"/><path d="M205.2 16.1l.6-.4c-.2-.1-.4-.3-.7-.4l-.5.5c.2 0 .4.2.6.3z" fill="#ffd79d"/><path d="M205.5 16.2l.6-.3-.3-.3-.6.4c.1.1.2.2.3.2z" fill="#ffb560"/><path d="M205.7 16.4l.5-.3c0-.1-.1-.2-.2-.3l-.6.3.3.3z" fill="#dc8730"/><path d="M205.7 17.3l.6-.4c0-.3 0-.5-.1-.8l-.5.3v.9z" fill="#8d4428"/><path d="M205.4 18.3l.6-.4c.1-.3.1-.7.2-1l-.6.4c-.1.3-.1.7-.2 1z" fill="#ad5725"/><path d="M205.7 18.4l.6-.4c-.1-.1-.2-.1-.2-.1l-.6.4c-.1 0 .1.1.2.1z" fill="#ffb560"/><path d="M206.3 18.8l.5-.4c-.1-.2-.4-.4-.6-.4l-.6.4c.3.1.5.2.7.4z" fill="#ffd68e"/><path d="M208.1 20.1l-.4.5c.1 0 .2.1.3.2l.4-.5c-.1 0-.2-.1-.3-.2z" fill="#ffb560"/><path d="M208.6 20.8c-.1-.1-.1-.3-.2-.4l-.4.5c.1.1.2.2.2.4l.4-.5z" fill="#dc8730"/><path d="M208.4 21.7c0 .1.1.1.2.1l.4-.5-.1-.1c-.1-.2-.3-.4-.3-.6l-.4.5c.1.3.1.5.2.6z" fill="#d47429"/><path d="M209 21.4l-.4.5c.2.1.4.1.4.2l.4-.5c-.1-.1-.3-.1-.4-.2z" fill="#ffb560"/><path d="M209.3 21.6l-.4.5s0 .1.1.1l.4-.5s0-.1-.1-.1z" fill="#e7944b"/><path d="M209.1 23.1l.5.2c.2-.5.1-1.1-.1-1.5v-.1l-.4.5c.1.4.1.8 0 .9z" fill="#ad5725"/><path d="M208.9 23.2c-.3.1-.7.3-1.1.5l.7.3.8-.4c.1-.1.2-.2.3-.4l-.5-.2c0 .2-.1.2-.2.2z" fill="#964c25"/><path d="M208.6 24l-.7-.3c-.1.1-.3.1-.4.2l.7.2.4-.1z" fill="#823d1e"/><path d="M207.5 23.9c-.1.1-.3.2-.4.4l.7.1.1-.1s.1 0 .2-.1l-.6-.3z" fill="#6c2b13"/><path d="M207.9 24.3l-.7-.1c-.1.1-.1.2 0 .3l.7-.1c-.1 0 0-.1 0-.1z" fill="#823d1e"/><path d="M207.8 24.5l-.7.1c0 .1.1.2.1.3l.7-.3-.1-.1z" fill="#ba6019"/><path d="M207.5 25l.7-.5h-.3l-.7.3c.1.1.2.2.3.2z" fill="#ad5725"/><path d="M207.5 25.1h.4l.8-.5h-.5l-.7.5z" fill="#d47429"/><path d="M208.9 25.2l.7-.5c-.3-.1-.6-.1-.9-.2l-.8.5c.3.2.7.2 1 .2z" fill="#e7944b"/><path d="M209.6 25.4c.1 0 .1.1.2.1l.5-.4c-.1-.2-.3-.3-.5-.4-.1 0-.2-.1-.2-.1l-.7.5c.2.2.4.2.7.3z" fill="#ffce89"/><path d="M210 25.9l.5-.3-.3-.3-.5.4c.2-.1.3 0 .3.2z" fill="#d89050"/><path d="M210.4 26.9c0 .1-.1.1-.1.2l.5.3c.1-.1.1-.2.1-.4 0-.5-.1-1.1-.4-1.5l-.5.3c.3.3.4.7.4 1.1z" fill="#bc6327"/><path d="M210.8 27.4l-.5-.3c-.2.3-1 .4-1.6.4l.2.6c.8-.1 1.6-.2 1.9-.7z" fill="#8d4428"/><path d="M207.8 27.4h-.3l.2.6h1.1l-.2-.6c-.2.1-.6 0-.8 0z" fill="#6c2b13"/><path d="M207.1 27.9l.3.7c.2-.2.2-.6.4-.6l-.2-.6c-.2.1-.4.3-.5.5z" fill="#8d4428"/><path d="M207.4 28.6l-.3-.7c0 .1-.1.2-.1.3l.2.6c0-.1.1-.1.2-.2z" fill="#7e3717"/><path d="M205.4 28.3c-1.7 0-2.1-.7-2.1-.7l-.2.7s.1 0 .1.1c.7.4 1.4.5 2.2.5.6 0 1.2 0 1.8-.2l-.2-.6c-.5.1-1.1.2-1.6.2z" fill="#6c2b13"/><path d="M202.4 28l-.2.9c.2-.1.4-.3.6-.5.1-.1.2-.2.3-.1l.2-.7c-.3 0-.7.2-.9.4z" fill="#964c25"/><path d="M201.7 28.5l-.1.6c.2 0 .5-.1.7-.2l.2-.9c-.2.2-.5.4-.8.5z" fill="#7e3717"/><path d="M200.9 27.8l-.3.6c.2.4.6.7 1.1.7l.1-.7c-.4.2-.9-.6-.9-.6z" fill="#6c2b13"/><path d="M197.4 27.6l-.4.5c.6.3 1.3.4 2 .4l.3-.6c-.6 0-1.2-.1-1.9-.3z" fill="#7e3717"/><path d="M195.7 25.5h-.4l.1.6c.1 0 .1 0 .2.1.4.3 1.3 1.7 1.5 1.9l.4-.5c-.5-.3-1.5-2-1.8-2.1z" fill="#6c2b13"/><path d="M195.3 25.5c-.2 0-.3 0-.4.1l.3.6c.1 0 .2-.1.2-.1l-.1-.6z" fill="#7e3717"/><path d="M194.5 26l.5.5c0-.1 0-.2.1-.3l-.3-.6c-.1.1-.2.2-.3.4z" fill="#6c2b13"/><path d="M199.3 27.8l-.3.6h1.5l.3-.6c-.5.1-1 .1-1.5 0z" fill="#964c25"/><path d="M194.4 26.8l.7.4v-.7l-.5-.5c-.2.2-.2.5-.2.8z" fill="#94441e"/><path d="M194.8 29.9l.6-.2c0-.2-.2-1.7-.3-2.5l-.7-.4c.1 1 .2 2.1.4 3.1z" fill="#ad5725"/><path d="M195.4 29.7l-.6.2c0 .1.1.3.2.4l.5-.3c0-.1-.1-.2-.1-.3z" fill="#dd8732"/><path d="M195.5 29.9l-.5.3c.2.2.5.4.7.6l.4-.5c-.2-.1-.4-.3-.6-.4z" fill="#ffb560"/><path d="M196.7 31.2l.3-.5c-.3-.1-.6-.3-.9-.4l-.4.5c.3.1.6.3 1 .4z" fill="#ffc278"/><path d="M197.4 31.5l.3-.5c-.2-.1-.5-.2-.8-.3l-.3.5c.3.1.6.2.8.3z" fill="#ea913e"/><path d="M197.8 31.6l.4-.4c-.1-.1-.3-.2-.4-.3l-.3.5c0 .1.2.2.3.2z" fill="#c57231"/><path d="M197.8 32l.6.5c.1-.1 0-.7-.1-1 0-.1-.1-.2-.2-.3l-.4.4.1.4z" fill="#94441e"/><path d="M197 31.9l.5.6c.2 0 .5.1.7.1.1 0 .2 0 .2-.1l-.6-.5c-.2 0-.5-.1-.8-.1zM195.8 33.3l.5.6c.1-.1.1-.5.1-.8l-.6-.2v.4z" fill="#7e3717"/><path d="M196.1 32.4c.5 0 1 0 1.4.1l-.5-.6c-.9-.1-2-.1-2 .1l1.1.4c-.1 0 0 0 0 0z" fill="#642813"/><path d="M196 32.4l-1-.4v.2c.2.2.5.5.7.8l.5.2c0-.1 0-.2-.1-.3.1-.2-.1-.4-.1-.5z" fill="#964c25"/><path d="M195.5 33.2v.7c.4.2.6.2.7.1l-.5-.6-.2-.2z" fill="#6c2b13"/><path d="M192.4 32.3l-.1.6c1 .1 2 .3 3 .8.1 0 .2.1.3.1v-.7c-1-.4-2.1-.6-3.2-.8z" fill="#7e3717"/><path d="M188.5 33.2l-.3.8c1.3-.7 2.7-1 4.2-1l.1-.6c-1.4-.2-2.8.1-4 .8z" fill="#6c2b13"/><path d="M188.2 33.3l-.4.7c.1 0 .2 0 .4-.1l.3-.8-.3.2z" fill="#56220c"/><path d="M187.8 33.9l.5-.7v-.4h-.6c-.1.4 0 .8.1 1.1z" fill="#6c2b13"/><path d="M188.1 32.4c.2 0-.4.3-.4.5h.6c.3-.3.6-.5.8-.8l.1-.1-1.1.4z" fill="#94441e"/><path d="M188.5 31.8l-.7.5h.3l1-.4s-.2 0-.6-.1z" fill="#56220c"/><path d="M186.7 31.9l-.6.4c.1.2 1 0 1.7.1l.7-.5c-.6-.1-1.2-.1-1.8 0z" fill="#6c2b13"/><path d="M186.9 31.4l-.3-.4c-.3.3-.4.8-.4 1.2v.1l.6-.4.1-.5z" fill="#94441e"/><path d="M188 31.2l-.4-.5c-.3.1-.7.2-.9.3 0 0-.1 0-.1.1l.3.5c.3-.2.8-.3 1.1-.4z" fill="#bc6327"/><path d="M188.6 31l-.5-.5c-.2.1-.4.2-.7.2l.4.5c.4-.1.6-.1.8-.2z" fill="#f49e4d"/><path d="M189.2 30.5l-.5-.5c-.2.2-.4.3-.6.4l.5.5c.2 0 .4-.2.6-.4z" fill="#dd8732"/><path d="M189.4 30.1c.2-.8.4-3.1.4-3.2l-.6.2c-.1.8-.2 2.3-.3 2.9 0 .1-.1.1-.1.2l.5.5c0-.3.1-.4.1-.6z" fill="#76310a"/><path d="M189.4 25.8l-.5.4c.2.3.2.6.2 1l.6-.2c0-.5-.1-.9-.3-1.2z" fill="#964c25"/><path d="M188.4 25.3c-.5.2-1 .4-1.4.8l.6.4c-.1-.3.8-.6.9-.6.2 0 .3.1.4.3l.5-.4c-.2-.4-.6-.6-1-.5z" fill="#6c2b13"/><path d="M187 26c-.1.2 0 .5.1.8l.7.5c0-.3 0-.6-.1-.9l-.7-.4z" fill="#964c25"/><path d="M187.1 26.7v.7l.4.4c.2-.1.3-.4.3-.6l-.7-.5z" fill="#7e3717"/><path d="M186.7 27.6l.2.5c.2 0 .4-.1.6-.3l-.4-.4c-.1.1-.3.2-.4.2z" fill="#94441e"/><path d="M184.7 27.6l.1.6c.5 0 1.6 0 2.1-.1l-.2-.5c-.7.1-1.3.1-2 0z" fill="#6c2b13"/><path d="M183.7 28.1l.2.6c.2-.2.5-.4.8-.6h.2l-.1-.6c-.5.2-.8.4-1.1.6z" fill="#994b17"/><path d="M183.7 28.1c-.4.3-.6.5-.7.6l.2.6c.3-.1.6-.3.8-.5l-.3-.7z" fill="#7e3717"/><path d="M182 28.7c-.3 0-.6-.5-1-.6v.6c.1 0 .1.1.2.1.2.3.5.4.8.5.4 0 .9 0 1.3-.1l-.2-.6c-.4.1-.8.1-1.1.1z" fill="#6c2b13"/><path d="M180.8 28.1c-.2 0-.5.3-.6.4l.1.6c.2-.1.3-.3.5-.4 0 0 .1-.1.2 0v-.6h-.2z" fill="#a35622"/><path d="M180.2 28.5c-.1.1-.2.1-.3.2v.6c.1 0 .3 0 .4-.1l-.1-.7z" fill="#7e3717"/><path d="M178.2 28.1l-.5.3.3.3c.6.3 1.3.5 2 .6v-.6c-.7-.1-1.3-.3-1.8-.6z" fill="#6c2b13"/><path d="M178.2 27.3l-.7.5v.3c0 .1 0 .3.1.4l.5-.3c0-.4 0-.7.1-.9z" fill="#af6638"/><path d="M178.3 26.9l-.8.6v.3l.7-.5c.1-.1.1-.3.1-.4z" fill="#7e3717"/><path d="M177.3 26.9l.1.7.1-.1h.1l.7-.6c-.3-.1-.7-.1-1 0z" fill="#6c2b13"/><path d="M177.2 26.9c-.1.1-.4.3-.6.5l.3.6c.2-.1.4-.2.5-.4l-.1-.7h-.1z" fill="#a5572a"/><path d="M176.4 27.5c-.8.2-1.7.3-2.5.1l-.5.3c.2.3 1.3.5 3.1.2.1 0 .2-.1.4-.1l-.3-.6s-.1.1-.2.1z" fill="#6c2b13"/><path d="M174.1 26.3l-.5-.2c-.2.6-.2 1.2-.2 1.8l.5-.3c.1-.5.1-.9.2-1.3z" fill="#a5572a"/><path d="M174.2 26.1l.2-.2-.5-.4-.2.2c-.1.1-.1.2-.1.3l.5.2s.1 0 .1-.1z" fill="#e69646"/><path d="M175.4 24.6l-.9.1c.1.1-.4.5-.7.8l.5.4c.6-.4 1.2-1 1.1-1.3z" fill="#d27c3c"/><path d="M175.4 24.6c-.1-.2-.3-.3-.5-.5l-.7.1c.1.2.2.4.4.5l.8-.1c.1 0 0 0 0 0z" fill="#7a2c13"/><path d="M174.6 23.6h-.6c0 .2.1.4.2.6l.7-.1c-.1-.1-.3-.3-.3-.5z" fill="#9f5024"/><path d="M174.8 23.4l-.6-.2c0 .1-.1.2-.2.3v.1h.6s.1 0 .2-.2z" fill="#dc8730"/><path d="M175 23.1l.1-.1-.2-.6c-.3.2-.6.5-.8.8l.6.2c.2-.1.3-.3.3-.3z" fill="#bf6b29"/><path d="M175.5 23l-.1-.7c-.2 0-.4 0-.6.1l.2.6h.5z" fill="#ad5725"/><path d="M175.4 22.4l.1.7h.4l-.1-.7h-.4z" fill="#dc8730"/><path d="M175.8 22.3v.7h.1l-.1-.7z" fill="#bf6b29"/><path d="M176.3 22.7l-.2-.7c-.1.1-.2.3-.3.4l.2.6.3-.3z" fill="#e69646"/><path d="M176.1 22l.2.7c.1-.1.1-.2.2-.3l-.2-.6c-.1 0-.1.1-.2.2z" fill="#dc8730"/><path d="M176.3 21.9l.2.5v-.6h-.1s-.1 0-.1.1z" fill="#bf6b29"/><path d="M177.2 22.3v-.6h-.7l.1.6h.6z" fill="#ad5725"/><path d="M177.2 21.7v.6h.2l.2-.6h-.4z" fill="#bf6b29"/><path d="M177.5 21.7l-.2.6h.1l.3-.6h-.2z" fill="#fdac4a"/><path d="M177.6 22.6l.3-.7c-.1-.1-.1-.2-.2-.2l-.3.6c.1.1.2.2.2.3z" fill="#e69646"/><path d="M177.8 23l.3-.7c-.1-.1-.1-.2-.2-.3l-.3.7c.1 0 .1.2.2.3z" fill="#bf6b29"/><path d="M177.9 23.1h.1l.2-.6-.2-.2-.3.7c.1 0 .2.1.2.1z" fill="#e69646"/><path d="M178.6 23l-.3-.6h-.1l-.2.7c.2 0 .4 0 .6-.1z" fill="#a5572a"/><path d="M178.7 22.9s0-.1.1-.1l-.4-.5c0 .1 0 .1-.1.2l.3.6c.1-.1.1-.2.1-.2z" fill="#e69646"/><path d="M178.9 22.4l-.5-.4v.3l.4.5c0-.2.1-.3.1-.4z" fill="#dc8730"/><path d="M179 21.6l-.6.1v.3l.5.4c.1-.2.1-.5.1-.8z" fill="#c27138"/><path d="M178.6 21.2l-.7.3c.2.1.4.3.4.3l.6-.2c0-.2-.1-.3-.3-.4z" fill="#7a2c13"/><path d="M178.2 20.9l-.6.2c.1.1.3.2.4.3l.7-.3c-.2 0-.4-.1-.5-.2z" fill="#9a4921"/><path d="M177.8 20.6l-.5.1c.1.2.2.3.3.4l.6-.2c-.3-.1-.4-.2-.4-.3z" fill="#ad5725"/><path d="M177.3 20.5v.2l.5-.1v-.2l-.5.1z" fill="#96441e"/><path d="M177.9 20.3h-.5c0 .1 0 .2-.1.2l.5-.1s0-.1.1-.1z" fill="#ad5725"/><path d="M178.3 19.2l-.5-.3c-.2.4-.4.9-.5 1.3h.5c.1-.3.3-.6.5-1z" fill="#e69646"/><path d="M177.8 19l.5.3c0-.1.1-.1.1-.1l-.5-.3c-.1 0-.1 0-.1.1z" fill="#f49e4d"/><path d="M178.5 19l-.5-.4c-.1 0-.1.1-.1.2l.5.3.1-.1z" fill="#dc8730"/><path d="M179 18.8l-.5-.4c-.1.1-.3.1-.4.2h-.1l.5.4c.2 0 .4-.1.5-.2z" fill="#a04e14"/><path d="M178.6 18.3c0 .1-.1.1-.2.2l.5.4c.1-.1.3-.2.2-.3l-.5-.3z" fill="#f49e4d"/><path d="M179.2 18.5c0-.2-.1-.5-.2-.8l-.6-.1c.1.2.1.5.1.7l.7.2c0 .1 0 0 0 0z" fill="#e69646"/><path d="M178.9 16.8l-.5-.1c0 .3 0 .6.1.9l.6.1c-.1-.3-.1-.6-.2-.9z" fill="#dc8730"/><path d="M179 16.5l.1-.1-.5-.4c-.2.2-.2.4-.2.6l.5.1s.1-.1.1-.2z" fill="#aa5a28"/><path d="M179.9 15.9l-.2-.6c-.4.3-.7.5-1.1.8l.5.4c.3-.3.5-.4.8-.6z" fill="#944428"/><path d="M180 15.8c.1 0 .1-.1.2-.1V15c-.1 0-.2 0-.3.1-.1 0-.1.1-.2.1l.2.6h.1z" fill="#a5572a"/><path d="M180.6 15.8v-.7c-.1-.1-.3-.1-.4-.1v.7c.2 0 .3.1.4.1z" fill="#ffc283"/><path d="M180.6 15.2v.7c.3.2.7.3 1.1.2l-.2-.6c-.2 0-.5-.2-.9-.3z" fill="#ffb560"/><path d="M182 15.8l-.5-.4v.1l.2.6.3-.3z" fill="#c27138"/><path d="M181.5 14.7v.7l.5.4c.1-.2.1-.4.1-.6l-.6-.5z" fill="#944428"/><path d="M182.1 14.9l-.5-.5v.3l.5.5v-.3z" fill="#ad5725"/><path d="M182.1 14.3l-.4-.4c-.1.2-.2.4-.2.6l.5.5c.1-.3.1-.5.1-.7z" fill="#dc8730"/><path d="M182.2 14.2s.1-.1.2-.1l-.4-.4c-.1 0-.1.1-.2.1l-.1.1.4.5c0-.2.1-.2.1-.2z" fill="#aa5e33"/><path d="M182.9 13.8l-.2-.6c-.3.1-.5.3-.8.5l.4.4c.2-.1.5-.3.6-.3z" fill="#944428"/><path d="M182.9 13.7h.2l-.1-.7c-.1 0-.2.1-.3.1l.2.6z" fill="#ad5725"/><path d="M183.3 13.7l-.2-.7h-.2l.2.6c.1.1.2.1.2.1z" fill="#ffc283"/><path d="M183.7 13.8l-.2-.7c-.1-.1-.3-.1-.4-.1l.2.7c.1 0 .3.1.4.1z" fill="#ffb560"/><path d="M184 13.9l-.2-.6c-.1 0-.2-.1-.3-.1l.2.7h.3z" fill="#e5872b"/><path d="M184.2 13.6l-.3-.5-.1.1.2.6c.1 0 .2-.1.2-.2z" fill="#ad5725"/><path d="M184.6 13l-.6-.1c0 .1-.1.2-.1.2l.3.5c.2-.1.3-.4.4-.6z" fill="#944428"/><path d="M184.6 12.9s0-.1-.1-.2l-.6-.1c0 .2.1.3.1.4l.6.1v-.2z" fill="#b96534"/><path d="M184.4 12l-.6-.1c0 .2.1.5.2.7l.6.1c-.1-.2-.2-.5-.2-.7z" fill="#ad5725"/><path d="M184.3 11.2l-.5-.1v.2c0 .2 0 .4.1.7l.6.1c-.2-.5-.3-.8-.2-.9z" fill="#f29b40"/><path d="M184.6 10.5l-.3-.5c-.2.3-.4.7-.6 1.1l.5.1c.2-.2.3-.5.4-.7z" fill="#dc8730"/><path d="M184.6 10.5l.3-.3-.3-.6c-.1 0-.2.1-.2.2s-.1.1-.2.2l.4.5z" fill="#bc6327"/><path d="M185.3 10.1l-.3-.6c-.1 0-.3.1-.4.2l.3.6c.1-.2.2-.2.4-.2z" fill="#944428"/><path d="M185 9.5l.3.6c.4-.1.8-.1 1.1-.3l-.2-.7c-.3.3-.8.3-1.2.4z" fill="#b46027"/><path d="M186.6 9.4l-.3-.7c-.1.1-.2.3-.3.4v.1l.2.7c.2-.2.4-.4.4-.5z" fill="#ad5725"/><path d="M187.2 8.9l-.1-.6c-.3 0-.5.1-.7.3l.3.7c0-.1.1-.3.5-.4z" fill="#dc8730"/><path d="M187.9 8.7l-.1-.6c-.2.1-.4.2-.7.2h-.1l.1.6c.3 0 .6-.1.8-.2z" fill="#fdac4a"/><path d="M188.7 8.3l-.2-.6c-.2.2-.5.3-.8.4l.1.6c.4-.1.7-.2.9-.4z" fill="#bc6327"/><path d="M189.4 7.9l-.1-.6c-.1 0-.2.1-.3.1-.1.1-.3.2-.5.3l.2.6c.3-.1.6-.3.7-.4z" fill="#bf6b29"/><path d="M189.5 7.9c.3-.1.7-.1 1-.1v-.5c-.4-.1-.8-.1-1.2 0l.2.6z" fill="#fdac4a"/><path d="M191.4 7.9v-.5c-.3 0-.6-.1-.9-.2v.5c.3.1.7.2.9.2z" fill="#ffc378"/><path d="M191.9 8v-.6h-.5v.5c.3.1.5.1.5.1z" fill="#fdac4a"/><path d="M192.3 7.9v-.6c-.1.1-.2.1-.4.2v.6c.1-.1.2-.2.4-.2z" fill="#d57c3f"/></g><g fill-rule="nonzero"><path d="M190.9 19.5c-.1.2-.3.9-.6 1.1-.4.3-1.1 0-1.3.1-.2.1-.2.3-.1.5l.1.1c.9.4 1.7.8 2.5 1.3.1 0 .2 0 .2-.2s.4-2.7.4-2.8c0-.4-1.1-.3-1.2-.1z" fill="url(#pi-swedbank_Radial6)"/><path d="M193.8 19.9c0 .1-.4 2.8-.3 2.8.8-.7 1.6-1.3 2.4-1.9.1-.1 0-.2 0-.2-.2-.3-.4-.6-.7-.9-.1.1-1.4.2-1.4.2z" fill="url(#pi-swedbank_Radial7)"/><path d="M194.4 24.1c0 .1 1 .3 1.8.1.2-.1.5-.9.9-1 .4-.1 1.3.3 1.6 0 .2-.2.2-.9-.2-.9-.6 0-1.2-.1-1.8-.3.1 0-2.2 1.2-2.3 2.1z" fill="url(#pi-swedbank_Radial8)"/><path d="M187.7 22.4c-.1 0-.3.6-.5.8-.1.1-.3.1-.4.1-.2 0-.5-.1-.7-.2-.1-.1-.3-.1-.4-.1-.3 0-.5.3-.6.6-.2.7 1.1 1 1.3 1.1.5 0 .9-.2 1.3-.4.3-.2.6-.3 1-.3.3 0 .6.2 1.1.2.1 0 .2-.1.2-.1.1-.1.1-.3 0-.4-.5-.4-1.1-.7-1.6-1-.2-.3-.6-.4-.7-.3z" fill="url(#pi-swedbank_Radial9)"/><g><path d="M204.3 23.9c0 .2 0 .3.1.5 0 .1.5 0 .5 0 0-.2 0-.4-.4-.7 0-.1-.2.1-.2.2z" fill="url(#pi-swedbank_Radial10)"/><path d="M176.3 25.1c-.1.2-.1.5 0 .7.2.2.8-.3.9-.4.1-.1.1-.2.1-.3 0-.2-.1-.3-.2-.3-.2.1-.5.2-.8.3z" fill="url(#pi-swedbank_Radial11)"/><path d="M205.6 22c-.2 0-.3.2-.3.3 0 .2.2.4.6.4.6 0 .6.3.9.3.6 0 .4-.5.5-.8 0-.2-1-.3-1.7-.2z" fill="url(#pi-swedbank_Radial12)"/><path d="M202.2 16.4c-.2 0-.3.2-.3.4.1.1.4 0 .8.2.3.3.5.6.7 1 .2.2.4.3.7.3.2-.1-.2-1.2-.3-1.2-.4-.2-.7-.5-.9-.6-.2 0-.5-.1-.7-.1z" fill="url(#pi-swedbank_Radial13)"/><path d="M204.2 20.4c-.2.1-.2.3-.2.5.3.2.6.3.9.2.1-.1.2-.2.1-.4 0-.1-.3-.8-.5-.8-.1.1-.2.4-.3.5z" fill="url(#pi-swedbank_Radial14)"/><path d="M181.6 20.7c-.3.2-.5.5-.7.9-.1.1-.2.4-.1.4.2 0 .3 0 .4-.2.3-.4.6-.2.8-.4.4-.4.4-.8.3-.8-.3-.1-.5-.1-.7.1z" fill="url(#pi-swedbank_Radial15)"/><path d="M199.9 14.2c-.2.4-.2.8 0 1.2.1.1.4 0 .5-.1.1-.4 0-.7-.2-1-.1-.1-.2-.2-.3-.1z" fill="url(#pi-swedbank_Radial16)"/><path d="M201.1 18.8c-.2.1-.6.4-.5.6.1.2.2.1.6.1.2 0 .4.3.5.4.2.1.4.1.6.2.2-.1.3-.2.3-.4 0-.1-.4-.3-.5-.4-.2-.3-.1-.5-.1-.6 0-.1-.7 0-.9.1z" fill="url(#pi-swedbank_Radial17)"/><path d="M195.9 16.7c0 .1.3.3.4.3.1-.1.3-.1.4-.1.4 0 1 .5 1.3.4.1-.1.2-.3.2-.5-.2-.2-.5-.3-.8-.4-.4 0-.6-.2-.7-.2-.6.3-.7.2-.8.5z" fill="url(#pi-swedbank_Radial18)"/><path d="M197 13.7c0 .1.1.2.5.6.2.1.2.4.4.7l.4.1c.1-.3-.2-.4-.2-.7 0-.5 0-.6-.1-.7-.2-.1-.4-.2-.7-.2-.1-.1-.3.1-.3.2z" fill="url(#pi-swedbank_Radial19)"/><path d="M192.5 11.5c0 .2.3.6.4.6.2 0 .5-.3.8-.3.2 0 .5-.2.5-.4v-.1c-.1-.1-.2-.2-.4-.2-.2.1-.5.1-.7 0-.1-.2-.5-.2-.6.4z" fill="url(#pi-swedbank_Radial20)"/><path d="M197.2 11.4c.1.2.2.2.2.1.1-.1.3-.2.5-.2.3 0 .7 1 .8 1 .1 0 .1-.4.1-.6-.1-.3-.2-.5-.4-.7-.2-.2-.5-.4-.8-.4-.2-.1-.5.6-.4.8z" fill="url(#pi-swedbank_Radial21)"/><path d="M193.9 13.3c-.3.4-.5.4-.8.6-.2.2-.2.7 0 .7s.3-.3 1-.6c.4-.2.8-.3 1.2-.1.2 0 .3-.1.3-.3-.3-.2-.6-.3-.9-.4-.2-.1-.6-.1-.8.1z" fill="url(#pi-swedbank_Radial22)"/><path d="M193.1 9.1c-.1.3.1.6.4.7h.2c.2 0 .5-.1.5-.4v-.2c-.2-.2-1-.4-1.1-.1z" fill="url(#pi-swedbank_Radial23)"/><path d="M189.9 9.4c0 .1 0 .4.1.5.1.1.3-.2.6-.2.5.1.5.4.6.4.2 0 .4-.3.3-.7 0 0-.1 0-.2-.1s-.2-.3-.3-.3c-.4 0-1 .1-1.1.4z" fill="url(#pi-swedbank_Radial24)"/><path d="M188.8 15.8c-.3.2-.7.5-.6.8 0 .1.5 0 .7 0 .4-.1.6-.5.6-.9 0-.1-.3-.1-.7.1z" fill="url(#pi-swedbank_Radial25)"/><path d="M198.9 18.1c-.2.5-.2.8 0 .8.3.1.3 0 .9-.7.1-.1.4-.2.4-.2.1-.1.2-.2.2-.4 0-.1-.6-.4-.7-.4-.2.1-.8.8-.8.9z" fill="url(#pi-swedbank_Radial26)"/><path d="M190.7 13.2c-.4.6-.4 1.3-.1 1.3.1 0 .2-.2.2-.3 0-.2 0-.3.1-.4.1-.1.2-.1.3-.1 0 0 .2-.5 0-.6-.2-.1-.3-.1-.5.1z" fill="url(#pi-swedbank_Radial27)"/><path d="M182.8 17.9c-.2.1-.3.3-.3.5s.2.4.5.3c.3-.1.4-.3.9-.5.2-.1.2-.4.1-.4-.2 0-.4-.1-.6-.1-.1 0-.3.1-.6.2z" fill="url(#pi-swedbank_Radial28)"/><path d="M187 11.1c-.2.1-.4.1-.6.1-.3.1-.5.3-.6.6 0 .5.2 1 .4 1.5.1.1.2.1.3 0 .1-.1-.1-1.2.1-1.5.2-.2 1.3-.5 1.4-.7.1-.1 0-.7-.1-.7-.2.1-.7.6-.9.7z" fill="url(#pi-swedbank_Radial29)"/><path d="M180.7 17c-.2.1-.3.2-.5.3-.1.1-.2.3-.1.5 0 .1.1.2.3.1.2-.2.4-.3.6-.3.1 0 .1-.3 0-.5 0-.1-.2-.2-.3-.1z" fill="url(#pi-swedbank_Radial30)"/><path d="M185.2 20.7c.1 0 .5.4.3.6-.1.1-.2 0-.5.1-.2.1-.5.2-.6.4-.2.2-.5.4-.7.4-.1 0-.1 0-.2-.1s-.1-.3-.1-.4c0-.1.1-.4.3-.4.3 0 .5-.1.8-.2.2-.1.2-.4.7-.4z" fill="url(#pi-swedbank_Radial31)"/><path d="M183.3 15.7c-.1.1-.2.2-.2.4s.3.5.5.3c.3-.3.5-.8.4-.9-.1-.1-.6.1-.7.2z" fill="url(#pi-swedbank_Radial32)"/><path d="M186.3 15c-.5.1-.9.4-1.1.9 0 .2.1.3.2.3.2 0 .6-.6.8-.6.2 0 .5 0 .7.1.3.1.4.2.5 0 .1-.2 0-.6-.2-.7h-.9z" fill="url(#pi-swedbank_Radial33)"/><path d="M179.4 26.7c0 .3.1.4.7.5.6 0 .5-.3.5-.3-.3-.1-.5-.3-.8-.5 0-.1-.3 0-.4.3z" fill="url(#pi-swedbank_Radial34)"/><path d="M179.1 23.9c0 .1 0 .3.1.4.1.1.1.1.2.1s.2 0 .5-.2c.1-.1.3-.1.3-.2s.1-.1 0-.2c-.1-.2-.3-.3-.4-.3-.3 0-.6.2-.7.4z" fill="url(#pi-swedbank_Radial35)"/><path d="M180.6 19.1c-.2 0-.5.1-.7.2-.2.1-.4.4-.4.6 0 .1.1.3.3.3.2 0 .3-.1.4-.2.1-.2.3-.4.5-.4s.4 0 .4-.1v-.4h-.5z" fill="url(#pi-swedbank_Radial36)"/><path d="M182.9 26.3c0 .2.1.4.3.4.2 0 .4-.1.5-.1.2 0 .3.1.4 0 0-.1 0-.3-.1-.4-.1-.2-.3-.1-.4-.1-.2 0-.4-.2-.5-.2-.1 0-.1.3-.2.4z" fill="url(#pi-swedbank_Radial37)"/><path d="M197.7 25.8c.3.3.6.3 1 .2.1 0 .2-.3.1-.4-.3-.2-.6-.2-.9-.1-.2 0-.2.2-.2.3z" fill="url(#pi-swedbank_Radial38)"/><path d="M181.3 24.9c-.3.1-.4.2-.5.4 0 .2.1.2.4.2.5 0 .7-.2.7-.4 0-.4-.4-.3-.6-.2z" fill="url(#pi-swedbank_Radial39)"/><path d="M200.4 26.3c.1.3.5 0 1 .2.1 0 .3.4.6.4.1 0 .2-.5.3-.8 0-.2-.4-.3-.6-.3-.3.1-.7.2-1.1.3-.2 0-.2.1-.2.2z" fill="url(#pi-swedbank_Radial40)"/><path d="M200.9 23.7c0 .1.7 0 1 .2.4.3.7.3.7.2.1-.2 0-.5-.2-.7-.2-.1-.5-.2-.7-.2-.8.1-.8.4-.8.5z" fill="url(#pi-swedbank_Radial41)"/><path d="M205.6 25.8c-.2 0-.4.4-.7.4-.2 0-.5-.2-.6-.2-.2 0-.5.4-.4.6.3.3.7.4 1.1.4.2 0 .4-.1.5-.2.2-.2.4-.3.5-.3v-.3c-.1-.3-.3-.4-.4-.4z" fill="url(#pi-swedbank_Radial42)"/><path d="M207.8 26.2c-.1.2-.1.4.1.5 0 0 .1 0 .1.1.1 0 .7-.1.7-.2.1-.1-.1-.5-.3-.5-.2 0-.5-.1-.6.1z" fill="url(#pi-swedbank_Radial43)"/></g></g><g fill-rule="nonzero"><path d="M195 23.3l-.1-.1c-.3.2-.5.5-.6.9h.2c.1-.3.2-.6.5-.8z" fill="#9f5024"/><path d="M194.3 24v.1c0 .1.1.2.3.2l.1-.2c-.1 0-.1 0-.2-.1v-.1l-.2.1z" fill="#f29b40"/><path d="M195.3 24.3c-.2 0-.4 0-.7-.1l-.1.2c.2.1.5.1.7.1.4 0 .8 0 1.1-.2l-.1-.1c-.3.1-.6.1-.9.1zM186.2 13.3l-.1.1c.1.1.3.1.5 0l-.1-.1c-.1.1-.2.1-.3 0z" fill="#ffb560"/><path d="M186.5 12.6v.8l.1.1c.1-.2.1-.5 0-.7 0-.3-.1-.6.1-.7l-.1-.1c-.2 0-.1.3-.1.6z" fill="#efa952"/><path d="M207.8 26.5h-.2c0 .1.1.2.2.3l.1-.1c0-.1 0-.1-.1-.2z" fill="#fdac4a"/><path d="M197.7 10.6c.2 0 .4.1.6.3l.1-.1c-.2-.2-.4-.3-.7-.3-.2 0-.4.2-.5.4l.1.1c.1-.2.2-.4.4-.4zM180.6 17c.1-.1.2-.1.3 0l.1-.2c-.1-.1-.3 0-.4.1-.1.1-.2.1-.2.2l.1.1c0-.1.1-.1.1-.2z" fill="#7e3717"/><path d="M195.5 13.7l-.1.1v.2c.1 0 .2 0 .2-.1l-.1-.2z" fill="#f29b40"/><path d="M186 24.4l-.1.2c.1 0 .2.1.3.1l.1-.2s-.2 0-.3-.1z" fill="#fdac4a"/><path d="M188.2 11.3V11h-.2v.2s0 .1-.1.1l.1.1c.1-.1.2-.1.2-.1z" fill="#ffb560"/><path d="M191.2 13.3v.2h.2v-.3l-.2.1z" fill="#dc8730"/><path d="M190.8 14.1c0 .2-.1.4-.2.4v.2c.2 0 .3-.3.4-.4 0-.1 0-.2.1-.4l-.1-.2c-.1.1-.2.3-.2.4zM205.1 21.1l-.1-.1s0 .1-.1.1l.1.2c0-.1 0-.1.1-.2z" fill="#fdac4a"/><path d="M193.8 9l.1-.2c-.2-.1-.7-.2-.9.1l.1.1c.1-.1.5 0 .7 0z" fill="#7e3717"/><path d="M194.1 9.2v.1h.2v-.2c-.1-.2-.2-.3-.4-.3l-.1.2c.1.1.2.1.3.2z" fill="#9f5024"/><path d="M193.4 9.7l-.1.2c.5.2.9-.1.9-.5l-.2-.1c.1.4-.1.6-.6.4z" fill="#ffb560"/><path d="M193.1 9.4h-.2c.1.2.2.4.4.5l.1-.2c-.1 0-.2-.2-.3-.3z" fill="#dc8730"/><path d="M193.1 9.1L193 9c-.1.1-.1.3-.1.4h.2v-.3zM191.1 9.1c.1.1.2.2.4.3 0 .1.1.2 0 .3h.2c0-.2 0-.5-.2-.5-.1 0-.2-.2-.3-.3h-.1v.2c-.1 0 0 0 0 0z" fill="#9f5024"/><path d="M191 9.1l.1-.1c-.4-.1-.8 0-1.2.2l.1.1c.4-.2.7-.2 1-.2z" fill="#7e3717"/><path d="M191.5 9.7c0 .1 0 .2-.1.3l-.2.2s-.1-.2-.2-.2c-.1-.1-.3-.1-.4-.1v.2c.1 0 .2 0 .3.1l.3.3c.2 0 .3-.1.4-.2.1-.1.1-.2.1-.4l-.2-.2z" fill="#ffb560"/><path d="M190.2 9.8l.1.2c.1-.1.2-.1.3-.1v-.2c-.2 0-.3.1-.4.1z" fill="#fdac4a"/><path d="M190 9.9l-.1.2h.1c.1 0 .2 0 .2-.1l-.1-.2c0 .1 0 .1-.1.1z" fill="#ffb560"/><path d="M189.7 9.5c0 .2.1.5.2.5l.1-.2c-.1 0-.1-.3-.1-.4l-.2.1z" fill="#dc8730"/><path d="M190 9.2l-.1-.1c-.1.1-.2.3-.2.4h.2c0-.1 0-.2.1-.3z" fill="#9f5024"/><path d="M193.2 11.1c.2.1.5.1.7 0h.2l.1-.1c-.1-.1-.2-.1-.4 0-.1.1-.3.1-.5 0-.3-.2-.6-.1-.8.2l.1.1c.2-.3.4-.3.6-.2z" fill="#7e3717"/><path d="M194.2 11.2v.1h.2v-.1c0-.1-.1-.2-.2-.3l-.1.1c0 .1.1.2.1.2z" fill="#9f5024"/><path d="M193.5 11.9h.4c.2 0 .4-.2.4-.5h-.2c-.1.3-.2.3-.3.3-.1 0-.3 0-.4.1l-.6.3c-.1 0-.1 0-.2-.1l-.1.1c.1.1.2.1.3.1.3 0 .5-.2.7-.3z" fill="#ffb560"/><path d="M192.5 11.5h-.2c0 .2.1.4.3.5l.1-.1c-.1-.1-.2-.2-.2-.4z" fill="#dc8730"/><path d="M192.6 11.2l-.1-.1c-.1.1-.1.3-.2.4h.2c0-.1.1-.2.1-.3zM198.4 11c.2.2.3.5.4.7v.1h.2v-.2c-.1-.3-.2-.6-.5-.8l-.1-.1-.1.1c0 .1 0 .1.1.2z" fill="#9f5024"/><path d="M198.8 11.8c0 .2 0 .3-.1.5l.1.2c.1 0 .2-.4.2-.6l-.2-.1z" fill="#dc8730"/><path d="M198.7 12.3c-.1-.1-.2-.3-.3-.4-.1-.3-.3-.5-.5-.5v.2c.1 0 .3.4.4.6.3.4.4.4.4.4v-.3z" fill="#ffc378"/><path d="M197.8 11.3c-.3 0-.4.2-.5.2h-.1l-.1.2h.1c.2 0 .2-.2.5-.2h.1v-.2z" fill="#efa952"/><path d="M197.2 11.7v-.2s-.1 0-.1-.1c0-.2.1-.4.1-.6l-.1-.1c-.1.2-.2.5-.2.7.2.2.2.3.3.3z" fill="#9f5024"/><path d="M197.3 13.2c-.1 0-.2.1-.2.1l.1.1s.1-.1.2-.1c.2 0 .4 0 .5.1v-.2h-.6z" fill="#7e3717"/><path d="M198.3 14.3c0-.3.1-.5-.1-.8-.1-.1-.2-.2-.3-.2l-.1.2c.1 0 .1 0 .2.1.1.2 0 .5 0 .7 0 .2.1.3.1.4v.1h.2c0-.1 0-.2-.1-.3.1 0 .1-.1.1-.2z" fill="#9f5024"/><path d="M197.9 14.9l-.1.1c.1.1.3.1.4.1.1 0 .2-.1.2-.3h-.2v.1c-.1.1-.2.1-.3 0z" fill="#ffb560"/><path d="M197.7 14.5c-.1-.2-.2-.3-.4-.4l-.1.1c.2.1.3.2.4.4.1.2.2.4.3.5l.1-.1c-.2-.2-.2-.4-.3-.5z" fill="#efa952"/><path d="M197.1 13.8l-.1.1c.1.1.2.2.2.3l.1-.1c-.1-.1-.1-.2-.2-.3z" fill="#dc8730"/><path d="M197 13.7s0-.1.1-.2l-.1-.1c-.1.1-.2.2-.2.4 0 .1.1.1.1.2l.1-.1c.1-.1.1-.2 0-.2z" fill="#b46027"/><path d="M199.9 14.2c.1 0 .2 0 .2.1l.1-.1c-.1-.1-.3-.2-.4-.2-.1 0-.1.1-.2.3l.2.1c0-.1.1-.1.1-.2z" fill="#7e3717"/><path d="M200.4 15h.2c0-.3-.1-.6-.3-.9l-.1.1c.1.3.2.5.2.8z" fill="#9f5024"/><path d="M200.3 15.3c-.1.1-.2.1-.4.1l-.1.1c.2.1.4 0 .6-.1.1-.1.2-.2.1-.4h-.2c.1.1.1.2 0 .3z" fill="#ffb560"/><path d="M199.9 15.5l.1-.1c-.1-.1-.2-.3-.2-.8v-.1l-.2-.1v.2c0 .3 0 .8.3.9z" fill="#b46027"/><path d="M194.5 13c-.2 0-.5.1-.7.2l-.3.3s-.1.1-.2.1l.1.1c.1 0 .2-.1.2-.1.1-.1.2-.2.4-.3.2-.1.4-.1.6-.1.2 0 .5.1.7.2l.1-.2c-.4-.2-.6-.2-.9-.2z" fill="#7e3717"/><path d="M195.8 13.6c0-.1-.3-.3-.5-.4l-.1.2c.1.1.3.1.4.2v.1l.2.1v-.2z" fill="#9f5024"/><path d="M195.7 13.7l-.2-.1s0 .1-.1.1l.1.2c.2-.1.2-.1.2-.2zM195.3 13.8c-.4-.1-.8 0-1.2.1h-.1l.1.2s.1 0 .1-.1c.3-.1.7-.2 1-.1h.1v-.1c.1 0 0 0 0 0z" fill="#ffb560"/><path d="M193.4 14.4c-.1.1-.2.1-.3.2h-.1l-.1.1h.1c.2 0 .3-.1.4-.2.2-.1.4-.3.6-.4l-.1-.2c-.1.2-.3.3-.5.5z" fill="#fdac4a"/><path d="M192.8 14.2c0 .2 0 .3.2.5l.1-.1c-.1-.1-.1-.2-.1-.3l-.2-.1z" fill="#dc8730"/><path d="M193.4 13.7l-.1-.1c-.4.2-.5.5-.5.7h.2c0-.2 0-.4.4-.6z" fill="#9f5024"/><path d="M190.8 13.1c.1-.1.2-.1.3-.1l.1-.2c-.2-.1-.4 0-.5.1-.1.1-.1.2-.2.2l.1.1c.1.1.2-.1.2-.1z" fill="#7e3717"/><path d="M191.2 12.9l-.1.2c.1 0 .1.1.1.2l.2-.1c0-.2-.1-.3-.2-.3z" fill="#9f5024"/><path d="M191.4 13.5h-.2v.2l.1.2c0-.1.1-.3.1-.4z" fill="#ffb560"/><path d="M191.2 13.6s-.1 0 0 0l-.1.2h.2l-.1-.2z" fill="#dc8730"/><path d="M191.1 13.8v-.2c-.1 0-.1 0-.1.1l.1.1c-.1.1 0 0 0 0z" fill="#f29b40"/><path d="M190.5 14.5l-.1.2c.1 0 .1.1.2.1l-.1-.3c.1 0 0 0 0 0z" fill="#ffb560"/><path d="M190.4 14.6l.1-.2c-.1-.1-.1-.1-.1-.2h-.2c.1.2.1.3.2.4z" fill="#dc8730"/><path d="M190.6 13.4l-.1-.2s0 .1-.1.1c-.1.3-.2.6-.2.9h.2c0-.2.1-.5.2-.8z" fill="#9f5024"/><path d="M187.9 10.4c-.3 0-.7.5-1 .6-.2 0-.4.1-.6.1-.2.1-.4.2-.5.4l.1.1c.1-.1.2-.3.4-.3s.4-.1.6-.1c.2-.1.7-.5.9-.6l.1-.2z" fill="#7e3717"/><path d="M188 10.4l-.1.2c.1.1.1.3.1.4h.2c0-.2-.1-.5-.2-.6z" fill="#9f5024"/><path d="M188.1 11.4l-.1-.1c-.2.1-.5.2-.7.3l.1.1c.2-.1.5-.2.7-.3z" fill="#fdac4a"/><path d="M186.6 11.9l.1.1.6-.3-.1-.1c-.2 0-.4.1-.6.3z" fill="#ffb560"/><path d="M186.1 13c0-.1-.1-.3-.1-.4-.1-.2-.1-.5-.1-.7h-.2c0 .3.1.6.2.9 0 .1.1.2.1.3 0 .1.1.3.2.4l.1-.1c-.1-.2-.2-.3-.2-.4z" fill="#dc8730"/><path d="M185.9 11.9c0-.1.1-.2.1-.3l-.1-.1c-.1.1-.1.2-.2.4v.1l.2-.1c-.1 0 0 0 0 0z" fill="#9f5024"/><path d="M189.3 15.6l.1-.2h-.1c-.3.1-.6.2-.8.4l.1.1c.2-.1.5-.2.7-.3z" fill="#7e3717"/><path d="M189.6 15.8v.3l.2.1c.1-.1.1-.3 0-.4-.1-.1-.1-.2-.3-.2l-.1.2c.1-.1.1-.1.2 0z" fill="#9f5024"/><path d="M189.7 16.1h-.2c-.1.3-.3.5-.6.5l.1.2c.4-.1.6-.4.7-.7z" fill="#f8a943"/><path d="M189 16.6c-.2 0-.3.1-.5.1-.1 0-.2 0-.2-.1l-.1.1c.1.1.2.1.3.1.2 0 .4 0 .6-.1l-.1-.1z" fill="#ffb560"/><path d="M188.2 16.8l.1-.1v-.3h-.2s0 .3.1.4z" fill="#dc8730"/><path d="M188.6 16l-.1-.1c-.1.1-.3.3-.3.4h.2c0-.1.1-.2.2-.3z" fill="#9f5024"/><path d="M185.4 15.3l.1.1c.4-.4.9-.5 1.4-.4v-.2c-.5 0-1.1.1-1.5.5z" fill="#7e3717"/><path d="M187.2 14.9c-.1 0-.1 0-.2-.1v.2c.1 0 .1 0 .2.1.1 0 .2.1.2.2l.2-.1c-.2-.1-.3-.2-.4-.3z" fill="#9f5024"/><path d="M187.3 15.3v.3h.2v-.4l-.2.1z" fill="#dc8730"/><path d="M187.5 15.6h-.2c0 .1 0 .1-.1.2l.1.2c.2-.1.2-.2.2-.4z" fill="#f8a943"/><path d="M187.3 15.8c-.2 0-.7-.2-.9-.2v.2c.3.1.6.2.9.2h.1l-.1-.2z" fill="#ffb560"/><path d="M186 15.6l.1.2c.1-.1.2-.1.3 0v-.2c-.1-.1-.3-.1-.4 0z" fill="#f8a943"/><path d="M186 15.6l-.6.6v.2c.2 0 .4-.2.4-.3l.3-.3-.1-.2z" fill="#dc8730"/><path d="M185.3 16.1l-.1.1c.1 0 .1.1.2.1l-.1-.2z" fill="#ffb560"/><path d="M185.2 16.3l.1-.1-.1-.1-.2.1s.1 0 .2.1z" fill="#efa952"/><path d="M185 16v.1l.2-.1v-.1c0-.2.2-.4.3-.5l-.1-.1c-.2.2-.4.4-.4.7z" fill="#9f5024"/><path d="M183.9 15.5l.1-.1h-.1c-.3 0-.6.2-.7.4l.1.1c.1-.3.3-.4.6-.4z" fill="#7e3717"/><path d="M184 15.3l-.1.2c.1 0 0 .2 0 .2h.2c.1-.2 0-.3-.1-.4z" fill="#9f5024"/><path d="M184 15.7c0 .1-.1.2-.1.3l.1.1c.1-.1.1-.3.2-.4h-.2z" fill="#dc8730"/><path d="M183.6 16.3c-.1 0-.1.1-.2.1 0 0-.1 0-.1-.1l-.1.1c.1.1.1.1.2.1s.2 0 .3-.1c.1-.1.2-.2.3-.4l-.2-.1c0 .2-.1.3-.2.4z" fill="#ffb560"/><path d="M183.1 16.1h-.2c0 .1.1.2.2.3l.1-.1s0-.1-.1-.2z" fill="#dc8730"/><path d="M183.1 16.1c0-.1.1-.2.1-.3l-.1-.1c-.1.1-.2.3-.2.4v.1l.2-.1zM180.9 16.8l-.1.2c.1 0 .2.1.2.2l.2-.1c0-.1-.1-.2-.3-.3z" fill="#9f5024"/><path d="M181 17.2v.2h.2v-.3l-.2.1z" fill="#dc8730"/><path d="M181 17.5c-.1 0-.1.1-.2.1s-.2.1-.3.2c-.1.1-.3.2-.3.1l-.1.1c.1.1.3.1.5-.1.1-.1.1-.1.3-.2.1 0 .3 0 .4-.2v-.1h-.2c-.1 0-.1.1-.1.1z" fill="#ffb560"/><path d="M180.1 18l.1-.1c-.1-.1-.1-.1-.1-.2h-.2c0 .1.1.2.2.3z" fill="#dc8730"/><path d="M180.4 17.2l-.1-.1-.1.1c-.1.1-.2.3-.2.5h.2c0-.1.1-.3.2-.3-.1-.1-.1-.2 0-.2z" fill="#9f5024"/><path d="M180.8 19.1l.1-.2c-.5-.1-.9.1-1.2.5l.1.1c.2-.3.6-.4 1-.4z" fill="#7e3717"/><path d="M181.2 19.2v.3l.1.1c.1-.2 0-.5-.1-.5s-.3-.1-.4-.1v.2c.1-.1.2-.1.4 0z" fill="#9f5024"/><path d="M181.2 19.4c0 .1-.1.2-.3.1-.2 0-.4 0-.5.2l.1.1c.1-.1.2-.1.4-.1s.4-.1.5-.2l-.2-.1z" fill="#ffb560"/><path d="M180.2 20c0 .1-.1.1-.1.1l.1.1c.1-.1.2-.1.2-.2s.1-.1.1-.2l-.1-.1c-.1.1-.2.2-.2.3z" fill="#dc8730"/><path d="M180.1 20.1h-.2v.2c.1 0 .2 0 .3-.1l-.1-.1z" fill="#f29b40"/><path d="M179.8 20.1s-.1 0 0 0l-.2.1.1.1h.1v-.2c0 .1 0 0 0 0z" fill="#ffb560"/><path d="M179.7 20v-.2h-.2c0 .1 0 .2.1.3l.1.1V20c0 .1 0 0 0 0z" fill="#dc8730"/><path d="M179.7 19.5l-.1-.1c-.1.1-.1.3-.1.4h.2c-.1-.1 0-.2 0-.3z" fill="#9f5024"/><path d="M182.1 20.5l.1-.2c-.5 0-1 .3-1.2.8l.1.1c.2-.4.6-.6 1-.7z" fill="#7e3717"/><path d="M182.4 20.5c0-.1-.1-.1-.2-.2l-.1.2h.1v.2h.2v-.2z" fill="#9f5024"/><path d="M182.3 20.8c0 .1-.1.2-.1.4l.1.1c.1-.1.1-.3.2-.4l-.2-.1z" fill="#dc8730"/><path d="M182.1 21.1c-.1.1-.1.2-.2.3l.1.1.3-.3-.2-.1z" fill="#f29b40"/><path d="M181.9 21.4c-.1.1-.3 0-.5.1-.1.1-.2.3-.3.3-.1 0-.1.1-.2.1v.2c.1 0 .2 0 .3-.1.1-.1.2-.3.3-.3.2-.1.4 0 .5-.1l-.1-.2z" fill="#fdac4a"/><path d="M180.8 21.9l-.1.1h.2l-.1-.1z" fill="#ffb560"/><path d="M181.1 21.2l-.1-.1c-.1.1-.1.2-.2.4l.2.1c-.1-.1 0-.3.1-.4z" fill="#9f5024"/><path d="M180.6 22s.1 0 0 0l.1-.1c0-.1 0-.2.1-.3l-.2-.1c.1.1-.1.4 0 .5z" fill="#dc8730"/><path d="M179.7 23.4c.1 0 .1 0 .3.1l.1-.1c-.2-.1-.2-.1-.4-.1s-.3.1-.4.2l.1.1c.1 0 .2-.1.3-.2z" fill="#7e3717"/><path d="M180.1 23.4l-.1.1.2.2.2-.1c-.1 0-.2-.1-.3-.2z" fill="#9f5024"/><path d="M180.4 23.7l-.2.1v.2l.1.1c.1-.2.1-.3.1-.4z" fill="#dc8730"/><path d="M180.2 23.9c0 .1-.1.1-.2.1-.2.1-.3.2-.4.3-.1.1-.2.1-.3.1v.2c.1 0 .3 0 .4-.1.1-.1.2-.2.4-.2.1 0 .2-.1.2-.2l-.1-.2z" fill="#fdac4a"/><path d="M179.2 24.3l-.1.1c.1.1.1.1.2.1v-.2c0 .1 0 .1-.1 0z" fill="#ffb560"/><path d="M179 24.4l.2-.1h-.1c0-.1-.1-.1-.1-.2h-.2c.1.1.2.2.2.3z" fill="#dc8730"/><path d="M179.1 23.9l.3-.3-.1-.1-.3.3c0 .1-.1.2 0 .3h.2c-.1-.1-.1-.1-.1-.2z" fill="#9f5024"/><path d="M184.7 20.9c.1-.1.2-.2.4-.1h.1l.1.1.1-.1-.1-.1c-.1 0-.2-.1-.2-.1-.2 0-.4.1-.5.2-.1.1-.2.2-.3.2l.1.1c.1 0 .2-.1.3-.2z" fill="#7e3717"/><path d="M185.3 20.8c.1.1.2.2.2.4v.1l.2.1c.1-.2-.1-.5-.2-.6h-.2z" fill="#9f5024"/><path d="M185.6 21.3l-.2-.1h-.1l.1.2.2-.1z" fill="#fdac4a"/><path d="M184.7 21.5l.1.2c.2-.1.4-.2.7-.2l-.1-.2c-.3 0-.5.1-.7.2z" fill="#f29b40"/><path d="M184.7 21.7l-.1-.2c-.2.1-.4.4-.6.5 0 0-.4.3-.5.3v.2l.6-.3c.3-.2.4-.4.6-.5z" fill="#fdac4a"/><path d="M183.5 22.2l-.1.1c.1.1.2.1.2.1v-.2h-.1z" fill="#ffb560"/><path d="M183.4 22.3l.1-.1c-.1-.1-.2-.3 0-.7l-.1-.1c-.4.5-.2.8 0 .9z" fill="#dc8730"/><path d="M183.6 21.4c.3 0 .5-.1.8-.2l-.1-.1c-.2.1-.4.2-.7.2-.1 0-.2.1-.3.2l.1.1c.1-.1.1-.2.2-.2z" fill="#9f5024"/><path d="M181.7 24.8v-.2c-.3 0-.6 0-.9.2l.2.2c.2-.1.4-.2.7-.2z" fill="#7e3717"/><path d="M181.7 24.7l-.1.2c.1 0 .2.1.2.2h.2c0-.3-.1-.4-.3-.4z" fill="#9f5024"/><path d="M181.9 25v.2l.1.1c.1-.1.1-.2.1-.3h-.2z" fill="#dc8730"/><path d="M180.8 25.4l-.1.1c.4.2.9.1 1.2-.3l-.1-.1c-.2.5-.8.4-1 .3z" fill="#ffb560"/><path d="M180.6 25.3c0 .1 0 .2.1.3l.1-.1v-.1l-.2-.1z" fill="#dc8730"/><path d="M180.8 25.2c0-.1.1-.2.1-.2l-.1-.1c-.1.1-.2.2-.2.3v.1l.2-.1c0 .1 0 0 0 0z" fill="#9f5024"/><path d="M176.4 25.1c.3-.1.5-.2.8-.3h.1l.1-.2h-.2l-.9.3c-.1.1-.1.1-.1.2l.2.1c-.1 0-.1 0 0-.1z" fill="#7e3717"/><path d="M177.4 24.7l-.1.2s.1.1.1.3c0 .1 0 .1-.1.2l.1.1c.1-.1.1-.2.1-.3 0-.4-.1-.5-.1-.5z" fill="#9f5024"/><path d="M177.5 25.4l-.1-.1c-.1.1-.1.2-.2.2l.1.1.2-.2z" fill="#ffb560"/><path d="M176.6 25.8v.2c.2-.1.4-.2.5-.3l-.1-.1c-.1 0-.2.1-.4.2z" fill="#f29b40"/><path fill="#fdac4a" d="M176.4 25.8h.2v.2h-.2z"/><path d="M176.4 25.8l-.1.1c.1 0 .1.1.2.1l-.1-.2z" fill="#ffb560"/><path d="M176.1 25.6c0 .1 0 .2.1.3l.1-.1c0-.1-.1-.2-.1-.3l-.1.1z" fill="#dc8730"/><path d="M176.3 25.3l-.2-.1v.4h.2v-.3z" fill="#9f5024"/><path d="M180.1 26.6l.1-.1c-.1-.1-.2-.1-.3-.2h-.1c-.2 0-.3.1-.4.3l.1.1c.1-.1.2-.2.3-.2.1-.1.2 0 .3.1z" fill="#7e3717"/><path d="M180.6 26.7l-.4-.2-.1.2.4.2h.2c.1-.1 0-.2-.1-.2z" fill="#9f5024"/><path d="M180.6 26.9c0 .1 0 .1-.1.2l.1.1c.1-.1.1-.2.1-.3h-.1z" fill="#dc8730"/><path d="M180.5 27c-.1.1-.5.1-.5.1v.2s.5.1.7-.2l-.2-.1z" fill="#f29b40"/><path d="M179.7 27l-.1.2c.1.1.3.1.4.1v-.2c-.1 0-.2 0-.3-.1z" fill="#fdac4a"/><path d="M179.4 27.1l.1.1.1-.2s-.1 0-.1-.1l-.1.2z" fill="#ffb560"/><path d="M179.5 26.9l-.1.1.1.1v-.2c0 .1 0 0 0 0z" fill="#fdac4a"/><path d="M179.5 26.8h-.2c0 .1 0 .2.1.2l.1-.1v-.1z" fill="#dc8730"/><path d="M179.5 26.5l-.1-.1c-.1.1-.1.2-.1.3h.2v-.2z" fill="#9f5024"/><path d="M183.4 25.9c-.1 0-.2-.1-.3-.1-.1 0-.3.1-.3.2l.1.1c0-.1.1-.1.2-.2.1 0 .1.1.2.1s.2.1.3.1v-.2c0 .1-.1 0-.2 0z" fill="#7e3717"/><path d="M183.8 25.9h-.2v.2h.2c.1 0 .2 0 .2.2v.2l.2.1v-.3c0-.2-.1-.4-.4-.4z" fill="#9f5024"/><path d="M184.2 26.6l-.2-.1v.1l.1.1c.1 0 .1-.1.1-.1z" fill="#dc8730"/><path d="M184.1 26.6h-.2c-.2 0-.4.1-.5.1v.2c.2-.1.3-.1.5-.1.1 0 .2.1.3 0l-.1-.2z" fill="#fdac4a"/><path d="M183.1 26.6l-.1.1c.1.1.2.1.3 0v-.2c-.1.2-.1.2-.2.1z" fill="#ffb560"/><path d="M183 26.6l-.1.1c0 .1.1.1.1.1v-.2c.1 0 0 0 0 0z" fill="#fdac4a"/><path d="M183 26.4l-.2.1c0 .1 0 .1.1.2l.1-.1v-.2z" fill="#dc8730"/><path d="M183 26.1l-.1-.1c-.1.1-.1.3-.1.5l.2-.1v-.3z" fill="#9f5024"/><path d="M182.9 17.9c.2-.1.4-.2.6-.2.1 0 .2 0 .3.1l.1-.2c-.1 0-.3-.1-.4-.1-.2 0-.4.1-.6.2-.1 0-.2.1-.2.2l.1.1.1-.1z" fill="#7e3717"/><path d="M183.9 17.6l-.1.2c.1 0 .2.1.3.1l.1-.1c.1-.1-.2-.2-.3-.2z" fill="#9f5024"/><path d="M184.3 17.7l-.1.1v.2l.2.1c0-.1 0-.3-.1-.4z" fill="#dc8730"/><path d="M184.2 18c0 .1-.1.1-.2.2-.1 0-.7.4-.8.5l.1.2c.1-.1.7-.5.8-.5.1 0 .2-.1.2-.3l-.1-.1z" fill="#fdac4a"/><path d="M183.1 18.7v.2c.1 0 .1 0 .1-.1l-.1-.1c.1 0 0 0 0 0z" fill="#ffb560"/><path fill="#fdac4a" d="M182.8 18.7h.4v.2h-.4z"/><path d="M182.7 18.7l-.1.1s.1.1.2.1l-.1-.2z" fill="#ffb560"/><path d="M182.6 18.5h-.2c0 .1.1.2.2.3l.1-.1c-.1-.1-.1-.1-.1-.2z" fill="#dc8730"/><path d="M182.6 18.4c0-.1.1-.3.2-.4l-.1-.1c-.1.1-.2.3-.2.5v.1l.1-.1z" fill="#9f5024"/><path d="M197.4 16.2c-.3 0-.5-.2-.8-.2-.1 0-.2.1-.4.1l.1.1c.1 0 .2-.1.3-.1.1 0 .4.2.7.2.1 0 .3 0 .4.1l.1-.1c-.1 0-.3-.1-.4-.1z" fill="#7e3717"/><path d="M198.3 16.7c-.1-.2-.3-.3-.5-.4l-.1.2c.2.1.3.2.4.3v.2l.1.1c.1-.2.1-.3.1-.4z" fill="#9f5024"/><path d="M198.1 17c0 .1-.1.1-.1.2h-.3c-.3-.2-.6-.3-1-.3v.1c.3 0 .6.2.9.3.1.1.3.1.4.1.1-.1.2-.2.2-.3l-.1-.1z" fill="#ffb560"/><path d="M196.7 16.8c-.1 0-.4.1-.5.1v.2c.1 0 .4-.1.5-.1v-.2z" fill="#ec9c4b"/><path d="M196.3 16.9c-.1 0-.1 0-.1-.1l-.2.2c.1.1.2.1.3.1v-.2z" fill="#ffb560"/><path d="M196 17l.1-.1c-.1 0-.2-.1-.2-.2h-.2c.1.2.2.2.3.3z" fill="#dc8730"/><path d="M196.1 16.5c.1 0 .2-.1.3-.2l-.1-.1c-.1.1-.3.1-.3.1-.1.1-.2.2-.2.4h.2c0-.1 0-.2.1-.2z" fill="#9f5024"/><path d="M199.7 17.1c-.2.1-.3.2-.4.3-.2.2-.4.4-.5.7-.1.2-.1.4-.1.5h.2c0-.2.1-.4.2-.6.1-.2.3-.4.4-.5l.3-.3c.1 0 .3.1.4.1l.1-.1c-.3 0-.4 0-.6-.1z" fill="#7e3717"/><path d="M200.5 17.5c-.1-.1-.2-.1-.3-.2l-.1.1c.1 0 .2.1.3.2v.1l.2.1c0-.1 0-.3-.1-.3z" fill="#9f5024"/><path d="M200.4 17.7c0 .1-.1.2-.2.3v.2c.1-.1.3-.2.3-.4l-.1-.1z" fill="#ffb560"/><path d="M200.1 18.2h.2V18h-.1c-.1 0-.1 0-.2.1l.1.2c-.1-.1-.1-.1 0-.1z" fill="#ec9c4b"/><path d="M199.6 18.3c-.1.2-.3.4-.5.6h-.2l-.1.1h.4l.6-.6c0-.1.1-.1.2-.2l-.1-.2-.3.3z" fill="#ffb560"/><path d="M198.8 19l.1-.1c-.1 0-.1-.1-.1-.2h-.2c0 .1.1.3.2.3z" fill="#dc8730"/><path d="M201.9 16.9c0-.2.1-.4.2-.4.2 0 .4 0 .6.1.2.1.4.2.5.4.1 0 .1.1.2.1l.1-.1c-.1 0-.2-.1-.2-.1-.2-.2-.4-.3-.6-.4-.2-.1-.5-.1-.7-.1-.5.1-.5.6-.4.7l.3-.2z" fill="#7e3717"/><path d="M204 17.7c0 .1.1.3.1.4h.2c0-.2-.1-.4-.1-.5 0-.2-.1-.4-.2-.5 0 0-.1-.1-.2-.1l-.1.1c.1 0 .1.1.1.1.1.1.2.3.2.5z" fill="#9f5024"/><path d="M204.1 18.1c0 .1 0 .1-.1.2l.1.1c.1-.1.1-.2.1-.3h-.1z" fill="#b46027"/><path d="M203.8 18.3v.2c.1 0 .3.1.4 0l-.1-.1c-.1-.1-.2-.1-.3-.1z" fill="#f29b40"/><path d="M203.4 18.1l-.1.1c.1.1.3.2.5.3v-.2c-.2 0-.3-.1-.4-.2z" fill="#ffb560"/><path d="M203.4 18c-.1-.2-.2-.4-.4-.6-.1-.1-.1-.2-.2-.3l-.1.1c.1.1.2.2.3.4.1.2.2.3.3.5 0 0 0 .1.1.1V18z" fill="#f29b40"/><path d="M202 16.9l-.1.1c.3 0 .5.1.7.2l.1-.1c-.2-.1-.5-.2-.7-.2z" fill="#ffb560"/><path d="M202.2 18.9v-.2c0-.1-.1-.2-.2-.2-.3 0-.6.1-.9.1-.1 0-.3.1-.4.2l.1.1c.1-.1.2-.1.3-.2.3-.1.6-.1.9-.1v.1c0 .2 0 .3.1.5l.1-.1c.1 0 0-.1 0-.2z" fill="#7e3717"/><path d="M202.3 19.1l-.1.1s.3.2.3.3l.1-.1-.3-.3z" fill="#9f5024"/><path d="M202.6 19.3l-.1.1c.1 0 .1.1.1.1v.1l.1.1c.1-.1.1-.2 0-.3l-.1-.1z" fill="#b46027"/><path d="M202.8 19.8l-.1-.1c0 .1-.1.2-.2.2v.2l.3-.3z" fill="#f29b40"/><path d="M202.4 19.9c-.2 0-.4-.1-.6-.2v.2c.2.1.5.2.7.2l-.1-.2z" fill="#ffb560"/><path d="M201.8 19.7c-.1 0-.1-.1-.2-.1l-.2-.2-.1.1.3.3h.1l.1-.1z" fill="#f29b40"/><path d="M201.2 19.4h-.4c-.1 0-.1-.1-.2-.1l-.2.1c.1.1.2.2.3.2h.5l.1-.1c.1-.1 0-.1-.1-.1z" fill="#ffb560"/><path d="M200.6 19.3c.1-.2.2-.3.3-.4l-.1-.1-.3.3c-.1.1-.1.2 0 .2h.1z" fill="#9f5024"/><path d="M204.3 20.3c.1-.1.1-.3.2-.3s.2.2.3.5l.2-.1c-.1-.1-.2-.6-.5-.6-.2 0-.3.2-.4.3-.1.1-.2.2-.3.4h.2c.1 0 .3-.1.3-.2z" fill="#7e3717"/><path d="M205 20.4l-.2.1c.1.1.1.2.1.3h.2c0-.2 0-.3-.1-.4z" fill="#9f5024"/><path d="M205.1 20.7l-.2.1v.1l.2.1c.1-.1.1-.2 0-.3z" fill="#dc8730"/><path d="M205.1 20.9l-.2-.1v.1l.1.1c.1.1.1 0 .1-.1zM204.7 21.1c-.2 0-.4-.1-.6-.2l-.1.1c.2.1.5.2.7.2h.2l-.1-.2c0 .1 0 .1-.1.1z" fill="#ffb560"/><path d="M204 20.9l-.2.1c0 .1.1.1.1.1l.1-.2c.1 0 0 0 0 0z" fill="#dc8730"/><path d="M204 20.6l-.2-.1c-.1.1-.1.3 0 .4l.1-.1c.1 0 .1-.1.1-.2z" fill="#9f5024"/><path d="M206.4 21.8h-.7c-.1 0-.3 0-.3.1l.1.1c.1 0 .1-.1.2-.1h.8c.2 0 .4 0 .6.1l.1-.2c-.3.1-.6.1-.8 0z" fill="#7e3717"/><path d="M207.1 21.9l-.1.2c.1 0 .2.1.2.1v.3l.2.1v-.3c0-.2-.2-.3-.3-.4z" fill="#9f5024"/><path d="M207.2 22.5c0 .1 0 .2-.1.3l.1.1c.1-.1.1-.3.1-.4h-.1z" fill="#dc8730"/><path d="M207.2 23l-.1-.1c-.1.1-.2.1-.3.1v.2c.2-.1.3-.1.4-.2z" fill="#ffb560"/><path d="M206.7 22.9l-.2-.2-.1.2c.1 0 .1.1.2.1.1.1.2.1.2.1v-.2c0 .1-.1 0-.1 0z" fill="#fdac4a"/><path d="M205.9 22.7h-.4l-.1.1c.1 0 .2.1.3.1h.2c.2 0 .3 0 .5.1l.1-.2c-.2-.1-.4-.1-.6-.1z" fill="#ffb560"/><path d="M205.4 22.5l-.1.1c0 .1.1.1.2.1l.1-.1c-.1 0-.2 0-.2-.1z" fill="#dc8730"/><path d="M205.4 22.1l-.1-.1c-.2.2-.2.5-.1.7l.1-.1c0-.2 0-.4.1-.5z" fill="#9f5024"/><path d="M204.6 23.5c-.2 0-.3.1-.4.3v.3h.2v-.2c0-.1.1-.1.2-.2.1.1.2.1.2.2l.1-.1c-.1-.1-.2-.3-.3-.3z" fill="#7e3717"/><path d="M204.9 23.8l-.1.1c.1.1.1.1.1.2h.2c0-.1-.1-.2-.2-.3z" fill="#9f5024"/><path fill="#dc8730" d="M204.9 24.1h.2v.1h-.2z"/><path d="M205 24.3h-.5l-.1.2h.5c.1 0 .1-.1.1-.2z" fill="#ffb560"/><path d="M204.4 24.4l-.1.1h.1v-.1z" fill="#dc8730"/><path d="M204.4 24.4c0-.1-.1-.2-.1-.3h-.2c0 .1.1.3.1.4l.2-.1z" fill="#9f5024"/><path d="M207.9 26l.1.1c.2-.1.5-.1.6 0l.1-.1c-.2-.2-.7-.1-.8 0z" fill="#7e3717"/><path d="M208.7 26l-.1.1c.1.1.2.2.2.3h.2c-.1-.1-.2-.3-.3-.4z" fill="#9f5024"/><path d="M208.9 26.6v-.1h-.2v.1h.2c-.1 0 0 0 0 0z" fill="#ffb560"/><path d="M208.7 26.5c-.1 0-.1.1-.2.1v.2c.1 0 .2-.1.3-.1l-.1-.2z" fill="#fdac4a"/><path d="M208.1 26.7l-.2.1h.1c.2 0 .3 0 .5-.1v-.2c-.1.1-.3.2-.4.2z" fill="#ffb560"/><path fill="#dc8730" d="M207.6 26.3h.2v.2h-.2z"/><path d="M208 26.1l-.1-.1c-.2 0-.3.2-.3.4h.2c0-.2 0-.2.2-.3z" fill="#9f5024"/><path d="M205.6 25.6c-.2 0-.3.2-.4.3-.1.1-.1.1-.2.1s-.5-.2-.6-.2c-.1 0-.2.1-.3.1l.1.1c.1-.1.1-.1.2-.1.2 0 .4.1.6.2.3 0 .5-.4.7-.4.1 0 .2 0 .2.1l.1-.1c-.2 0-.3 0-.4-.1z" fill="#7e3717"/><path d="M206.1 26c0-.1-.1-.2-.2-.3l-.1.2s.1 0 .1.1v.2h.2V26z" fill="#9f5024"/><path d="M206.1 26.4v-.2h-.2v.1l.2.1z" fill="#fdac4a"/><path d="M205.9 26.3c-.1.1-.2.1-.3.1l-.3.3.1.1.3-.3c.1 0 .2-.1.3-.2h-.1z" fill="#dc8730"/><path d="M204 26.6l-.1.1c.4.2.8.3 1.3.2v-.2c-.4.2-.8.1-1.2-.1z" fill="#ffb560"/><path d="M205.3 26.8l-.1.1v.2c.1 0 .2 0 .2-.1l-.1-.2z" fill="#fdac4a"/><path d="M203.9 26.5l-.2.1c.1.1.1.2.2.2l.1-.1c0-.1-.1-.1-.1-.2z" fill="#dc8730"/><path d="M204.1 26.1l-.1-.1c-.2.2-.3.5-.2.6l.2-.1c-.1-.1 0-.3.1-.4z" fill="#9f5024"/><path d="M201.7 23.1c-.3 0-.6.1-.8.3l.2.1c.2-.2.4-.3.7-.2.2 0 .3.1.5.1l.1-.2c-.3-.1-.5-.1-.7-.1z" fill="#7e3717"/><path d="M202.4 23.3c-.1 0-.1-.1-.2-.1l-.1.2c.1 0 .1 0 .2.1s.2.2.3.4h.2c-.1-.3-.2-.5-.4-.6z" fill="#9f5024"/><path d="M202.6 23.8v.2h.2v-.3l-.2.1z" fill="#dc8730"/><path d="M202.8 24h-.2s0 .1-.1.1l.1.2c.1-.1.2-.2.2-.3z" fill="#fdac4a"/><path d="M202.6 24.1c-.1 0-.2 0-.3-.1-.1 0-.2-.1-.2-.1l-.1.2c.1 0 .2.1.2.1.1.1.2.1.4.1h.1l-.1-.2z" fill="#ffb560"/><path d="M201.8 23.9l-.1.1c.1 0 .1.1.2.1l.1-.2h-.2z" fill="#ec9c4b"/><path d="M201.3 23.8h-.2l-.1.2h.3c.1 0 .3 0 .4.1l.1-.2c-.2-.1-.3-.1-.5-.1z" fill="#ffb560"/><path d="M200.9 23.7l-.2.1c.1.1.2.1.2.1l.1-.2h-.1z" fill="#dc8730"/><path d="M200.9 23.7c0-.1 0-.2.1-.2l-.1-.1c0 .1-.2.3-.1.4l.1-.1z" fill="#9f5024"/><path d="M201.2 25.8c-.2.1-.5.1-.6.1-.1 0-.2.1-.2.2l.2.1.1-.1c.2 0 .5-.1.7-.1.2-.1.3-.1.5-.1.1 0 .2 0 .3.1l.1-.1c-.1-.1-.3-.1-.4-.1-.4-.1-.6-.1-.7 0z" fill="#7e3717"/><path d="M202.3 26.1c0-.1-.1-.2-.2-.3l-.1.1c.1.1.1.1.1.2v.3h.2v-.3z" fill="#9f5024"/><path d="M202.1 26.3c0 .1-.1.3-.1.4l.1.1c.1-.2.1-.3.2-.5h-.2z" fill="#fdac4a"/><path d="M202 26.8v.2c.1 0 .1-.1.2-.1l-.2-.1z" fill="#dc8730"/><path d="M201.9 26.8h-.1l-.1.2h.3l-.1-.2z" fill="#ffb560"/><path d="M201.6 26.6c-.1-.1-.3-.2-.4-.2v.2c.1 0 .2 0 .3.1l.3.3.1-.2c-.2-.1-.3-.1-.3-.2z" fill="#fdac4a"/><path fill="#ffb560" d="M200.7 26.4h.4v.2h-.4z"/><path d="M200.6 26.4l-.1.2h.2v-.2h-.1z" fill="#fdac4a"/><path d="M200.5 26.3l-.1.1s.1.1.2.1l-.1-.2z" fill="#dc8730"/><path d="M200.4 26.3v-.1l-.2-.1c0 .1-.1.1-.1.2s.1.1.1.2l.2-.2z" fill="#9f5024"/><path d="M197.7 25.4s-.1.1-.1.2h.2v-.1c.3-.1.6-.1.9 0l.1-.2c-.4-.1-.8-.1-1.1.1z" fill="#7e3717"/><path d="M198.8 25.4l-.1.2s.1 0 .1.1.1.1 0 .2h.2c0-.1 0-.3-.1-.4 0 0-.1 0-.1-.1z" fill="#9f5024"/><path d="M198.8 26c-.2.1-.4.1-.6 0v.2c.3.1.5.1.8 0 .1-.1.1-.1.1-.2h-.2c-.1-.1-.1 0-.1 0z" fill="#ffb560"/><path d="M197.8 25.8l-.1.1c.1.1.3.2.4.3V26c-.1 0-.2-.1-.3-.2z" fill="#dc8730"/><path d="M197.8 25.8v-.2h-.2v.3l.2-.1z" fill="#9f5024"/><path d="M196.9 21.8c-.7.3-1.4.8-2 1.4l.1.1c.6-.5 1.2-1 1.9-1.3.5.2 1.1.3 1.6.3l.1-.2c-.6 0-1.2-.1-1.7-.3z" fill="#7e3717"/><path d="M198.5 22.1v.2c.2 0 .3.1.4.2h.2c-.1-.2-.3-.4-.6-.4z" fill="#9f5024"/><path d="M198.9 22.5v.4l.1.1v-.5h-.1z" fill="#dc8730"/><path d="M198.9 22.9c0 .1 0 .1-.1.2s-.2.2-.4.1c-.3 0-.7-.1-1-.1-.1 0-.2 0-.4.1l.1.2c.1 0 .2-.1.3 0 .3 0 .7.1 1 .1.2 0 .4-.1.5-.2 0-.1.1-.1.1-.2l-.1-.2z" fill="#ffb560"/><path d="M196.3 24.1l.1.1c.1-.1.5-.8.7-.9l-.1-.1c-.2.1-.6.8-.7.9z" fill="#fdac4a"/><path d="M195.3 19.6c-.2 0-.7.1-1.1.1-.3 0-.6.1-.6.1l.1.1.5-.1c.4-.1.8-.1.9-.1l.2-.1z" fill="#7e3717"/><path d="M195.3 19.6l-.1.2.4.4.1-.1c0-.2-.2-.3-.4-.5z" fill="#9f5024"/><path d="M195.9 20.6v.1l.2.1v-.2c-.1-.2-.2-.3-.3-.5l-.1.1c.1.1.1.3.2.4z" fill="#b46027"/><path d="M196.1 20.8h-.2c0 .1 0 .1-.1.1-.6.4-1.1.8-1.7 1.3-.3.3-.5.5-.7.6l-.1.3c.3-.2.6-.5.9-.8.5-.5 1.1-.9 1.6-1.3.2-.1.3-.1.3-.2z" fill="#fdac4a"/><path d="M193.5 21.3c-.1.6-.1 1.1-.1 1.7l.1-.3c0-.3.1-.9.2-1.5l-.2.1z" fill="#bf6b29"/><path d="M193.8 20l-.1-.1s-.1.7-.2 1.5l.2-.1c0-.5.1-.9.1-1.3z" fill="#9f5024"/><path d="M191.6 19.2c-.3 0-.5 0-.8.2l.1.1c.2-.1.4-.1.6-.1h.4l.1-.2h-.4z" fill="#7e3717"/><path d="M192 19.2l-.1.2c.1 0 .2.1.3.2l.2-.1c-.1-.1-.2-.2-.4-.3z" fill="#9f5024"/><path d="M192.2 19.6c-.1.5-.1 1.1-.2 1.6l.2.1c.1-.8.2-1.7.2-1.7h-.2z" fill="#f29b40"/><path d="M192 21.2c0 .4-.1.8-.2 1.2l.1.1c.1-.4.2-.8.2-1.2l-.1-.1z" fill="#fdac4a"/><path d="M191.6 22.5v.2c.1 0 .2-.1.3-.2l-.2-.1c0 .1 0 .1-.1.1z" fill="#f29b40"/><path d="M191.6 22.5c-.1 0-.1-.1-.2-.2l-.1.1c.1 0 .2.1.2.1h.1z" fill="#fdac4a"/><path d="M189.1 21.2l-.2.1h.1c.8.3 1.5.7 2.2 1.1l.1-.2c-.7-.3-1.4-.7-2.2-1z" fill="#f29b40"/><path d="M188.9 20.8v-.1l-.1-.1c-.2.2-.1.6.1.7l.1-.1c0-.1-.1-.3-.1-.4z" fill="#9f5024"/><path d="M189.9 20.5c-.3 0-.6-.1-.7-.1-.1 0-.3 0-.3.1l.1.1c.1-.1.1-.1.2-.1.2 0 .5.1.7.1.2 0 .4 0 .5-.1l-.1-.1c-.1.1-.3.1-.4.1z" fill="#7e3717"/><path d="M190.3 20.4l.1.1c.3-.3.5-.7.6-1.1l-.1-.1c-.2.5-.4.8-.6 1.1z" fill="#9f5024"/><path d="M188.4 22.4c-.2-.1-.4-.2-.6-.2h-.2l.1.2h.1c.2 0 .4.1.5.2.2.1.8.4 1.2.7l.1-.1c-.4-.4-1.1-.8-1.2-.8z" fill="#7e3717"/><path d="M189.6 23.1l-.1.1c.1.1.3.2.4.3 0 .1.1.2 0 .3l.1.1c.1-.2.1-.3 0-.5-.1-.1-.2-.2-.4-.3z" fill="#9f5024"/><path d="M189.9 23.9s-.1.2-.2.2c-.3 0-.6-.1-.8-.2h-.6v.1h.5c.3.1.6.1.9.2.2 0 .3-.1.3-.3h-.1z" fill="#fdac4a"/><path d="M187.4 24.3v.2c.3-.2.6-.3 1-.4v-.2c-.4 0-.7.2-1 .4zM186.6 24.6v.2c.3-.1.5-.1.8-.3v-.2c-.3.1-.5.2-.8.3z" fill="#ffb560"/><path d="M186.6 24.6h-.2l-.1.2h.3v-.2z" fill="#f29b40"/><path d="M185.1 23.9l-.1.1c.3.3.6.5 1 .6l.1-.2c-.4 0-.7-.2-1-.5z" fill="#ffb560"/><path d="M185.1 23.5l-.1-.1c-.1.2-.1.4 0 .6l.1-.1c0-.2-.1-.3 0-.4z" fill="#f29b40"/><path d="M186.8 23.1c-.3 0-.6-.1-.9-.2-.1 0-.2-.1-.3-.1-.3 0-.6.3-.7.6l.1.1c.1-.3.3-.5.6-.5h.2c.3.2.6.3 1 .3.1 0 .3 0 .4-.1l-.1-.1h-.3z" fill="#7e3717"/><path d="M187.1 23l.1.1c.2-.1.4-.7.5-.8l-.1-.2c-.1.2-.2.8-.5.9z" fill="#9f5024"/></g><g fill="#b43c19" fill-rule="nonzero"><path d="M180.1 33.7c-.2 0-.4.1-.6.2-.3.3-.4.7-.2 1.1.1.2.1.5.2.5.1.2 0 .4-.1.6-.1.1-.2.1-.3.1-.2 0-.3-.1-.4-.2-.2-.2-.2-.6-.1-.9l-.5-.2c-.2.5-.1 1 .2 1.4.2.3.5.4.9.4.2 0 .5-.1.6-.2.3-.3.4-.7.3-1 0-.1-.2-.5-.2-.7-.1-.2 0-.4.1-.5.1-.1.1-.1.2-.1s.2.1.3.1c.1.1.1.4.1.5l.5.2c.2-.5-.1-1.2-.6-1.4-.2.1-.3.1-.4.1zM182.3 35.6l-2.1 2.6.5.4 2.1-2.6-.3-.2-.2-.2zM183.8 36.7l-1.6 3 .5.3 1.1-2.1.1 2.7.5.3 1.6-3-.5-.3-1.1 2.1-.1-2.8c0 .1-.5-.2-.5-.2zM188 38.5c-.8 0-1.4.6-1.5 1.3-.3.8.1 1.7.9 2 .1 0 .1 0 .2.1.1 0 .3.1.4.1.4 0 .8-.2 1-.5l-.4-.4c-.2.2-.4.3-.6.3h-.2c-.5-.1-.8-.6-.6-1.4.2-.6.5-.9.9-.9h.2c.3.1.5.3.6.5l.6-.2c-.1-.5-.5-.8-1-.9-.2.1-.4 0-.5 0zM190.5 39l-.1 3.4 2.2.1V42h-1.5v-1h1.1v-.5h-1.1v-.8h1.5v-.5l-2.1-.2zM196.5 38.4l-.3.1-.9.8.3.4.5-.4.7 2.5.6-.2-.9-3.2zM198.8 37.5c-.2 0-.4 0-.5.1-.5.2-.8.7-.6 1.2.1.3.4.5.7.5-.3.3-.4.7-.2 1 .2.3.5.6.9.5.2 0 .4-.1.6-.1.6-.2.9-.8.7-1.3v-.1c-.1-.3-.5-.5-.8-.5h-.1c.2-.2.3-.6.1-.9-.1-.2-.5-.4-.8-.4zm-.2 1.5c-.2 0-.3-.1-.4-.2-.1-.2 0-.5.2-.6.1 0 .1-.1.2-.1.2 0 .3.1.4.3.1.2 0 .4-.2.6h-.1c.1-.1 0 0-.1 0zm.6 1.4c-.2 0-.4-.1-.4-.3-.1-.3 0-.6.3-.7.1 0 .2-.1.3-.1.2 0 .4.1.5.3.1.3 0 .6-.3.7h-.1c-.1 0-.2.1-.3.1zM201.5 36c-.3 0-.5.1-.7.3-.5.3-.6 1-.3 1.4 0 0 0 .1.1.1l.5-.3c-.2-.2-.1-.5.1-.7.2-.2.5-.1.7.1.1.2.2.5.1.8l-.2 1.8.2.2 1.8-1.3-.3-.4-1 .8.1-1.2c.1-.4 0-.7-.2-1-.3-.5-.6-.6-.9-.6zM204 33.8c-.4 0-.7.1-.9.4-.5.5-.5 1.4.3 2.2.3.3.8.5 1.3.6.4 0 .7-.1.9-.4.5-.5.5-1.4-.3-2.2-.4-.4-.8-.6-1.3-.6zm.7 2.5c-.4 0-.7-.2-.9-.5-.6-.5-.6-1-.4-1.3.1-.1.3-.2.4-.2.4 0 .7.2.9.5.6.5.6 1 .4 1.3 0 .2-.2.2-.4.2z"/></g><g fill="#ff5f00" fill-rule="nonzero"><path d="M1.9 18.4c0 4.4 2.9 6 7.4 7.1 4.2 1 5.1 2.3 5.1 4 0 1.8-1.6 3.1-4 3.1-2.6 0-5.1-1.1-7-3-.1.1-2.2 2.7-2.3 2.8 2.5 2.3 5.8 3.6 9.2 3.6 4.7 0 7.9-2.8 7.9-7 0-3.7-2.2-5.8-7.1-7.1-4.4-1.1-5.3-2.3-5.3-4 0-1.5 1.3-3 3.7-3 2.2.1 4.3.9 6 2.3l2-3c-2.2-1.9-5.1-2.9-8-2.8-4.5.2-7.6 3.1-7.6 7zM30.6 18.5l-3.8 12.1s-3.4-12-3.4-12.1h-3.8L25 35.9h3.3c0-.1 3.8-12 3.8-12s3.8 11.9 3.8 12h3.3c0-.1 5.4-17.2 5.5-17.4H41l-3.5 12.1-3.8-12.1h-3.1zM46.6 27.2c0 5.3 3.6 9 8.5 9 2.2.1 4.4-.6 6.3-1.8 0-.1-1-2.9-1-3-1.5 1.1-3.3 1.6-5.2 1.6-2.5.1-4.7-1.8-4.9-4.3v-.1h12.3l.1-1c0-4.6-2.5-9.3-8-9.3-4.6-.1-8.1 3.8-8.1 8.9zm3.7-1.2c.4-2.8 2.1-4.6 4.4-4.6 2.4 0 4 1.8 4.3 4.6v.1l-8.7-.1zM79.1 11.6V20l-.1-.1c-1.4-1.2-3.3-1.8-5.1-1.8-3.8 0-7.7 3.1-7.7 9v.1c0 5.9 4.1 9 8.1 9 2.9-.1 5.7-.3 8.5-.8V11.6h-3.7zm-9.2 15.6c0-3.3 2.1-5.7 4.9-5.7 2.6 0 4.4 1.8 4.4 2.5v8.6h-.1c-1.4.2-2.9.3-4.3.3-2.8-.1-4.9-2.5-4.9-5.7zM87.8 11.6v23.8c2.8.5 5.7.7 8.5.8 4 0 8.1-3.1 8.1-9v-.1c0-5.9-3.9-9-7.7-9-1.9-.1-3.7.6-5.1 1.8l-.1.1v-8.4h-3.7zm3.7 21l-.1-8.6c0-.7 1.7-2.5 4.4-2.5 2.8 0 4.9 2.4 4.9 5.6v.1c0 3.2-2.1 5.6-4.9 5.6-1.4.1-2.9 0-4.3-.2zM109 19.7c0 .1 1 3 1 3.1 1.5-.7 3.1-1.1 4.8-1.1 2.7 0 4.2 1.3 4.2 3.8v.4h-.1c-1.5-.5-3-.7-4.6-.7-4.2 0-6.7 2.1-6.7 5.6v.1c0 3.6 3.1 5.3 5.9 5.3 3.1-.1 6.1-.3 9.2-.8v-9.8c0-4.8-2.5-7.3-7.3-7.3-2.2 0-4.4.4-6.4 1.4zm2.2 11c0-1.8 1.5-2.8 3.9-2.8 1.3 0 2.6.2 3.9.7V33h-.1c-1.5.2-3 .3-4.5.3-1.8 0-3.2-1.1-3.2-2.6zM127.3 19v16.8h3.7v-14h.1c1.3-.2 2.5-.3 3.8-.3 2.3 0 3.6 1.7 3.6 4.5v9.8h3.7v-11c0-4.1-2.3-6.6-5.9-6.6-3 0-6 .3-9 .8zM147 11.6v24.2h3.7v-4.9l2.4-2.6s5 7.5 5.1 7.5h4.3c-.1-.2-6.9-10.2-6.9-10.2l6.6-7h-4.5l-7 7.8V11.6H147z"/></g><g fill="none"><path d="M215 47h1v1h-1zM0 0h1v1H0z"/></g></g></g></g><defs><radialGradient id="pi-swedbank_Radial2" cx="0" cy="0" r="1" gradientUnits="userSpaceOnUse" gradientTransform="matrix(32.918 0 0 -32.918 197.025 13.13)"><stop offset="0" stop-color="#ffe178" stop-opacity="1"/><stop offset=".18" stop-color="#ffd05f" stop-opacity="1"/><stop offset=".4" stop-color="#ffbe46" stop-opacity="1"/><stop offset=".6" stop-color="#ff9b0f" stop-opacity="1"/><stop offset=".8" stop-color="#f7780f" stop-opacity="1"/><stop offset=".9" stop-color="#f3640f" stop-opacity="1"/><stop offset="1" stop-color="#e65f19" stop-opacity="1"/></radialGradient><radialGradient id="pi-swedbank_Radial5" cx="0" cy="0" r="1" gradientUnits="userSpaceOnUse" gradientTransform="matrix(36.955 0 0 -36.955 196.771 8.767)"><stop offset="0" stop-color="#ffc85a" stop-opacity="1"/><stop offset=".27" stop-color="#f59619" stop-opacity="1"/><stop offset=".44" stop-color="#e56b16" stop-opacity="1"/><stop offset=".56" stop-color="#dc5014" stop-opacity="1"/><stop offset=".79" stop-color="#ba3f18" stop-opacity="1"/><stop offset=".83" stop-color="#b43c19" stop-opacity="1"/><stop offset="1" stop-color="#b43c19" stop-opacity="1"/></radialGradient><radialGradient id="pi-swedbank_Radial6" cx="0" cy="0" r="1" gradientUnits="userSpaceOnUse" gradientTransform="matrix(35.704 0 0 -35.704 194.521 9.315)"><stop offset="0" stop-color="#ffe178" stop-opacity="1"/><stop offset=".18" stop-color="#ffd05f" stop-opacity="1"/><stop offset=".4" stop-color="#ffbe46" stop-opacity="1"/><stop offset=".6" stop-color="#ff9b0f" stop-opacity="1"/><stop offset=".8" stop-color="#f7780f" stop-opacity="1"/><stop offset=".9" stop-color="#f3640f" stop-opacity="1"/><stop offset="1" stop-color="#e65f19" stop-opacity="1"/></radialGradient><radialGradient id="pi-swedbank_Radial7" cx="0" cy="0" r="1" gradientUnits="userSpaceOnUse" gradientTransform="matrix(35.813 0 0 -35.813 194.458 9.284)"><stop offset="0" stop-color="#ffe178" stop-opacity="1"/><stop offset=".18" stop-color="#ffd05f" stop-opacity="1"/><stop offset=".4" stop-color="#ffbe46" stop-opacity="1"/><stop offset=".6" stop-color="#ff9b0f" stop-opacity="1"/><stop offset=".8" stop-color="#f7780f" stop-opacity="1"/><stop offset=".9" stop-color="#f3640f" stop-opacity="1"/><stop offset="1" stop-color="#e65f19" stop-opacity="1"/></radialGradient><radialGradient id="pi-swedbank_Radial8" cx="0" cy="0" r="1" gradientUnits="userSpaceOnUse" gradientTransform="matrix(35.759 0 0 -35.759 194.438 9.243)"><stop offset="0" stop-color="#ffe178" stop-opacity="1"/><stop offset=".18" stop-color="#ffd05f" stop-opacity="1"/><stop offset=".4" stop-color="#ffbe46" stop-opacity="1"/><stop offset=".6" stop-color="#ff9b0f" stop-opacity="1"/><stop offset=".8" stop-color="#f7780f" stop-opacity="1"/><stop offset=".9" stop-color="#f3640f" stop-opacity="1"/><stop offset="1" stop-color="#e65f19" stop-opacity="1"/></radialGradient><radialGradient id="pi-swedbank_Radial9" cx="0" cy="0" r="1" gradientUnits="userSpaceOnUse" gradientTransform="matrix(35.703 0 0 -35.703 194.557 9.256)"><stop offset="0" stop-color="#ffe178" stop-opacity="1"/><stop offset=".18" stop-color="#ffd05f" stop-opacity="1"/><stop offset=".4" stop-color="#ffbe46" stop-opacity="1"/><stop offset=".6" stop-color="#ff9b0f" stop-opacity="1"/><stop offset=".8" stop-color="#f7780f" stop-opacity="1"/><stop offset=".9" stop-color="#f3640f" stop-opacity="1"/><stop offset="1" stop-color="#e65f19" stop-opacity="1"/></radialGradient><radialGradient id="pi-swedbank_Radial10" cx="0" cy="0" r="1" gradientUnits="userSpaceOnUse" gradientTransform="matrix(39.559 0 0 -39.559 193.16 7.643)"><stop offset="0" stop-color="#ffe178" stop-opacity="1"/><stop offset=".18" stop-color="#ffd05f" stop-opacity="1"/><stop offset=".4" stop-color="#ffbe46" stop-opacity="1"/><stop offset=".6" stop-color="#ff9b0f" stop-opacity="1"/><stop offset=".8" stop-color="#f7780f" stop-opacity="1"/><stop offset=".9" stop-color="#f3640f" stop-opacity="1"/><stop offset="1" stop-color="#e65f19" stop-opacity="1"/></radialGradient><radialGradient id="pi-swedbank_Radial11" cx="0" cy="0" r="1" gradientUnits="userSpaceOnUse" gradientTransform="matrix(36.516 0 0 -36.516 195.24 8.851)"><stop offset="0" stop-color="#ffe178" stop-opacity="1"/><stop offset=".18" stop-color="#ffd05f" stop-opacity="1"/><stop offset=".4" stop-color="#ffbe46" stop-opacity="1"/><stop offset=".6" stop-color="#ff9b0f" stop-opacity="1"/><stop offset=".8" stop-color="#f7780f" stop-opacity="1"/><stop offset=".9" stop-color="#f3640f" stop-opacity="1"/><stop offset="1" stop-color="#e65f19" stop-opacity="1"/></radialGradient><radialGradient id="pi-swedbank_Radial12" cx="0" cy="0" r="1" gradientUnits="userSpaceOnUse" gradientTransform="matrix(37.963 0 0 -37.963 193.87 8.053)"><stop offset="0" stop-color="#ffe178" stop-opacity="1"/><stop offset=".18" stop-color="#ffd05f" stop-opacity="1"/><stop offset=".4" stop-color="#ffbe46" stop-opacity="1"/><stop offset=".6" stop-color="#ff9b0f" stop-opacity="1"/><stop offset=".8" stop-color="#f7780f" stop-opacity="1"/><stop offset=".9" stop-color="#f3640f" stop-opacity="1"/><stop offset="1" stop-color="#e65f19" stop-opacity="1"/></radialGradient><radialGradient id="pi-swedbank_Radial13" cx="0" cy="0" r="1" gradientUnits="userSpaceOnUse" gradientTransform="matrix(35.903 0 0 -35.903 194.228 9.36)"><stop offset="0" stop-color="#ffe178" stop-opacity="1"/><stop offset=".18" stop-color="#ffd05f" stop-opacity="1"/><stop offset=".4" stop-color="#ffbe46" stop-opacity="1"/><stop offset=".6" stop-color="#ff9b0f" stop-opacity="1"/><stop offset=".8" stop-color="#f7780f" stop-opacity="1"/><stop offset=".9" stop-color="#f3640f" stop-opacity="1"/><stop offset="1" stop-color="#e65f19" stop-opacity="1"/></radialGradient><radialGradient id="pi-swedbank_Radial14" cx="0" cy="0" r="1" gradientUnits="userSpaceOnUse" gradientTransform="matrix(37.355 0 0 -37.355 193.825 8.762)"><stop offset="0" stop-color="#ffe178" stop-opacity="1"/><stop offset=".18" stop-color="#ffd05f" stop-opacity="1"/><stop offset=".4" stop-color="#ffbe46" stop-opacity="1"/><stop offset=".6" stop-color="#ff9b0f" stop-opacity="1"/><stop offset=".8" stop-color="#f7780f" stop-opacity="1"/><stop offset=".9" stop-color="#f3640f" stop-opacity="1"/><stop offset="1" stop-color="#e65f19" stop-opacity="1"/></radialGradient><radialGradient id="pi-swedbank_Radial15" cx="0" cy="0" r="1" gradientUnits="userSpaceOnUse" gradientTransform="matrix(36.492 0 0 -36.492 195.035 9.052)"><stop offset="0" stop-color="#ffe178" stop-opacity="1"/><stop offset=".18" stop-color="#ffd05f" stop-opacity="1"/><stop offset=".4" stop-color="#ffbe46" stop-opacity="1"/><stop offset=".6" stop-color="#ff9b0f" stop-opacity="1"/><stop offset=".8" stop-color="#f7780f" stop-opacity="1"/><stop offset=".9" stop-color="#f3640f" stop-opacity="1"/><stop offset="1" stop-color="#e65f19" stop-opacity="1"/></radialGradient><radialGradient id="pi-swedbank_Radial16" cx="0" cy="0" r="1" gradientUnits="userSpaceOnUse" gradientTransform="matrix(37.533 0 0 -37.533 193.921 9.308)"><stop offset="0" stop-color="#ffe178" stop-opacity="1"/><stop offset=".18" stop-color="#ffd05f" stop-opacity="1"/><stop offset=".4" stop-color="#ffbe46" stop-opacity="1"/><stop offset=".6" stop-color="#ff9b0f" stop-opacity="1"/><stop offset=".8" stop-color="#f7780f" stop-opacity="1"/><stop offset=".9" stop-color="#f3640f" stop-opacity="1"/><stop offset="1" stop-color="#e65f19" stop-opacity="1"/></radialGradient><radialGradient id="pi-swedbank_Radial17" cx="0" cy="0" r="1" gradientUnits="userSpaceOnUse" gradientTransform="matrix(36.298 0 0 -36.298 194.3 9.101)"><stop offset="0" stop-color="#ffe178" stop-opacity="1"/><stop offset=".18" stop-color="#ffd05f" stop-opacity="1"/><stop offset=".4" stop-color="#ffbe46" stop-opacity="1"/><stop offset=".6" stop-color="#ff9b0f" stop-opacity="1"/><stop offset=".8" stop-color="#f7780f" stop-opacity="1"/><stop offset=".9" stop-color="#f3640f" stop-opacity="1"/><stop offset="1" stop-color="#e65f19" stop-opacity="1"/></radialGradient><radialGradient id="pi-swedbank_Radial18" cx="0" cy="0" r="1" gradientUnits="userSpaceOnUse" gradientTransform="matrix(36.788 0 0 -36.788 194.39 9.154)"><stop offset="0" stop-color="#ffe178" stop-opacity="1"/><stop offset=".18" stop-color="#ffd05f" stop-opacity="1"/><stop offset=".4" stop-color="#ffbe46" stop-opacity="1"/><stop offset=".6" stop-color="#ff9b0f" stop-opacity="1"/><stop offset=".8" stop-color="#f7780f" stop-opacity="1"/><stop offset=".9" stop-color="#f3640f" stop-opacity="1"/><stop offset="1" stop-color="#e65f19" stop-opacity="1"/></radialGradient><radialGradient id="pi-swedbank_Radial19" cx="0" cy="0" r="1" gradientUnits="userSpaceOnUse" gradientTransform="matrix(36.381 0 0 -36.381 194.324 9.392)"><stop offset="0" stop-color="#ffe178" stop-opacity="1"/><stop offset=".18" stop-color="#ffd05f" stop-opacity="1"/><stop offset=".4" stop-color="#ffbe46" stop-opacity="1"/><stop offset=".6" stop-color="#ff9b0f" stop-opacity="1"/><stop offset=".8" stop-color="#f7780f" stop-opacity="1"/><stop offset=".9" stop-color="#f3640f" stop-opacity="1"/><stop offset="1" stop-color="#e65f19" stop-opacity="1"/></radialGradient><radialGradient id="pi-swedbank_Radial20" cx="0" cy="0" r="1" gradientUnits="userSpaceOnUse" gradientTransform="matrix(37.243 0 0 -37.243 194.496 9.439)"><stop offset="0" stop-color="#ffe178" stop-opacity="1"/><stop offset=".18" stop-color="#ffd05f" stop-opacity="1"/><stop offset=".4" stop-color="#ffbe46" stop-opacity="1"/><stop offset=".6" stop-color="#ff9b0f" stop-opacity="1"/><stop offset=".8" stop-color="#f7780f" stop-opacity="1"/><stop offset=".9" stop-color="#f3640f" stop-opacity="1"/><stop offset="1" stop-color="#e65f19" stop-opacity="1"/></radialGradient><radialGradient id="pi-swedbank_Radial21" cx="0" cy="0" r="1" gradientUnits="userSpaceOnUse" gradientTransform="matrix(36.278 0 0 -36.278 194.323 9.493)"><stop offset="0" stop-color="#ffe178" stop-opacity="1"/><stop offset=".18" stop-color="#ffd05f" stop-opacity="1"/><stop offset=".4" stop-color="#ffbe46" stop-opacity="1"/><stop offset=".6" stop-color="#ff9b0f" stop-opacity="1"/><stop offset=".8" stop-color="#f7780f" stop-opacity="1"/><stop offset=".9" stop-color="#f3640f" stop-opacity="1"/><stop offset="1" stop-color="#e65f19" stop-opacity="1"/></radialGradient><radialGradient id="pi-swedbank_Radial22" cx="0" cy="0" r="1" gradientUnits="userSpaceOnUse" gradientTransform="matrix(36.414 0 0 -36.414 194.47 9.387)"><stop offset="0" stop-color="#ffe178" stop-opacity="1"/><stop offset=".18" stop-color="#ffd05f" stop-opacity="1"/><stop offset=".4" stop-color="#ffbe46" stop-opacity="1"/><stop offset=".6" stop-color="#ff9b0f" stop-opacity="1"/><stop offset=".8" stop-color="#f7780f" stop-opacity="1"/><stop offset=".9" stop-color="#f3640f" stop-opacity="1"/><stop offset="1" stop-color="#e65f19" stop-opacity="1"/></radialGradient><radialGradient id="pi-swedbank_Radial23" cx="0" cy="0" r="1" gradientUnits="userSpaceOnUse" gradientTransform="matrix(37.103 0 0 -37.103 194.514 9.587)"><stop offset="0" stop-color="#ffe178" stop-opacity="1"/><stop offset=".18" stop-color="#ffd05f" stop-opacity="1"/><stop offset=".4" stop-color="#ffbe46" stop-opacity="1"/><stop offset=".6" stop-color="#ff9b0f" stop-opacity="1"/><stop offset=".8" stop-color="#f7780f" stop-opacity="1"/><stop offset=".9" stop-color="#f3640f" stop-opacity="1"/><stop offset="1" stop-color="#e65f19" stop-opacity="1"/></radialGradient><radialGradient id="pi-swedbank_Radial24" cx="0" cy="0" r="1" gradientUnits="userSpaceOnUse" gradientTransform="matrix(36.202 0 0 -36.202 194.6 9.57)"><stop offset="0" stop-color="#ffe178" stop-opacity="1"/><stop offset=".18" stop-color="#ffd05f" stop-opacity="1"/><stop offset=".4" stop-color="#ffbe46" stop-opacity="1"/><stop offset=".6" stop-color="#ff9b0f" stop-opacity="1"/><stop offset=".8" stop-color="#f7780f" stop-opacity="1"/><stop offset=".9" stop-color="#f3640f" stop-opacity="1"/><stop offset="1" stop-color="#e65f19" stop-opacity="1"/></radialGradient><radialGradient id="pi-swedbank_Radial25" cx="0" cy="0" r="1" gradientUnits="userSpaceOnUse" gradientTransform="matrix(36.767 0 0 -36.767 194.704 9.201)"><stop offset="0" stop-color="#ffe178" stop-opacity="1"/><stop offset=".18" stop-color="#ffd05f" stop-opacity="1"/><stop offset=".4" stop-color="#ffbe46" stop-opacity="1"/><stop offset=".6" stop-color="#ff9b0f" stop-opacity="1"/><stop offset=".8" stop-color="#f7780f" stop-opacity="1"/><stop offset=".9" stop-color="#f3640f" stop-opacity="1"/><stop offset="1" stop-color="#e65f19" stop-opacity="1"/></radialGradient><radialGradient id="pi-swedbank_Radial26" cx="0" cy="0" r="1" gradientUnits="userSpaceOnUse" gradientTransform="matrix(36.14 0 0 -36.14 194.307 9.267)"><stop offset="0" stop-color="#ffe178" stop-opacity="1"/><stop offset=".18" stop-color="#ffd05f" stop-opacity="1"/><stop offset=".4" stop-color="#ffbe46" stop-opacity="1"/><stop offset=".6" stop-color="#ff9b0f" stop-opacity="1"/><stop offset=".8" stop-color="#f7780f" stop-opacity="1"/><stop offset=".9" stop-color="#f3640f" stop-opacity="1"/><stop offset="1" stop-color="#e65f19" stop-opacity="1"/></radialGradient><radialGradient id="pi-swedbank_Radial27" cx="0" cy="0" r="1" gradientUnits="userSpaceOnUse" gradientTransform="matrix(36.559 0 0 -36.559 194.69 9.405)"><stop offset="0" stop-color="#ffe178" stop-opacity="1"/><stop offset=".18" stop-color="#ffd05f" stop-opacity="1"/><stop offset=".4" stop-color="#ffbe46" stop-opacity="1"/><stop offset=".6" stop-color="#ff9b0f" stop-opacity="1"/><stop offset=".8" stop-color="#f7780f" stop-opacity="1"/><stop offset=".9" stop-color="#f3640f" stop-opacity="1"/><stop offset="1" stop-color="#e65f19" stop-opacity="1"/></radialGradient><radialGradient id="pi-swedbank_Radial28" cx="0" cy="0" r="1" gradientUnits="userSpaceOnUse" gradientTransform="matrix(36.922 0 0 -36.922 194.921 8.918)"><stop offset="0" stop-color="#ffe178" stop-opacity="1"/><stop offset=".18" stop-color="#ffd05f" stop-opacity="1"/><stop offset=".4" stop-color="#ffbe46" stop-opacity="1"/><stop offset=".6" stop-color="#ff9b0f" stop-opacity="1"/><stop offset=".8" stop-color="#f7780f" stop-opacity="1"/><stop offset=".9" stop-color="#f3640f" stop-opacity="1"/><stop offset="1" stop-color="#e65f19" stop-opacity="1"/></radialGradient><radialGradient id="pi-swedbank_Radial29" cx="0" cy="0" r="1" gradientUnits="userSpaceOnUse" gradientTransform="matrix(36.048 0 0 -36.048 194.72 9.511)"><stop offset="0" stop-color="#ffe178" stop-opacity="1"/><stop offset=".18" stop-color="#ffd05f" stop-opacity="1"/><stop offset=".4" stop-color="#ffbe46" stop-opacity="1"/><stop offset=".6" stop-color="#ff9b0f" stop-opacity="1"/><stop offset=".8" stop-color="#f7780f" stop-opacity="1"/><stop offset=".9" stop-color="#f3640f" stop-opacity="1"/><stop offset="1" stop-color="#e65f19" stop-opacity="1"/></radialGradient><radialGradient id="pi-swedbank_Radial30" cx="0" cy="0" r="1" gradientUnits="userSpaceOnUse" gradientTransform="matrix(36.927 0 0 -36.927 195.193 9.047)"><stop offset="0" stop-color="#ffe178" stop-opacity="1"/><stop offset=".18" stop-color="#ffd05f" stop-opacity="1"/><stop offset=".4" stop-color="#ffbe46" stop-opacity="1"/><stop offset=".6" stop-color="#ff9b0f" stop-opacity="1"/><stop offset=".8" stop-color="#f7780f" stop-opacity="1"/><stop offset=".9" stop-color="#f3640f" stop-opacity="1"/><stop offset="1" stop-color="#e65f19" stop-opacity="1"/></radialGradient><radialGradient id="pi-swedbank_Radial31" cx="0" cy="0" r="1" gradientUnits="userSpaceOnUse" gradientTransform="matrix(36.228 0 0 -36.228 194.764 9.096)"><stop offset="0" stop-color="#ffe178" stop-opacity="1"/><stop offset=".18" stop-color="#ffd05f" stop-opacity="1"/><stop offset=".4" stop-color="#ffbe46" stop-opacity="1"/><stop offset=".6" stop-color="#ff9b0f" stop-opacity="1"/><stop offset=".8" stop-color="#f7780f" stop-opacity="1"/><stop offset=".9" stop-color="#f3640f" stop-opacity="1"/><stop offset="1" stop-color="#e65f19" stop-opacity="1"/></radialGradient><radialGradient id="pi-swedbank_Radial32" cx="0" cy="0" r="1" gradientUnits="userSpaceOnUse" gradientTransform="matrix(37.539 0 0 -37.539 195.341 9.182)"><stop offset="0" stop-color="#ffe178" stop-opacity="1"/><stop offset=".18" stop-color="#ffd05f" stop-opacity="1"/><stop offset=".4" stop-color="#ffbe46" stop-opacity="1"/><stop offset=".6" stop-color="#ff9b0f" stop-opacity="1"/><stop offset=".8" stop-color="#f7780f" stop-opacity="1"/><stop offset=".9" stop-color="#f3640f" stop-opacity="1"/><stop offset="1" stop-color="#e65f19" stop-opacity="1"/></radialGradient><radialGradient id="pi-swedbank_Radial33" cx="0" cy="0" r="1" gradientUnits="userSpaceOnUse" gradientTransform="matrix(36.583 0 0 -36.583 194.714 9.178)"><stop offset="0" stop-color="#ffe178" stop-opacity="1"/><stop offset=".18" stop-color="#ffd05f" stop-opacity="1"/><stop offset=".4" stop-color="#ffbe46" stop-opacity="1"/><stop offset=".6" stop-color="#ff9b0f" stop-opacity="1"/><stop offset=".8" stop-color="#f7780f" stop-opacity="1"/><stop offset=".9" stop-color="#f3640f" stop-opacity="1"/><stop offset="1" stop-color="#e65f19" stop-opacity="1"/></radialGradient><radialGradient id="pi-swedbank_Radial34" cx="0" cy="0" r="1" gradientUnits="userSpaceOnUse" gradientTransform="matrix(36.967 0 0 -36.967 195.092 8.424)"><stop offset="0" stop-color="#ffe178" stop-opacity="1"/><stop offset=".18" stop-color="#ffd05f" stop-opacity="1"/><stop offset=".4" stop-color="#ffbe46" stop-opacity="1"/><stop offset=".6" stop-color="#ff9b0f" stop-opacity="1"/><stop offset=".8" stop-color="#f7780f" stop-opacity="1"/><stop offset=".9" stop-color="#f3640f" stop-opacity="1"/><stop offset="1" stop-color="#e65f19" stop-opacity="1"/></radialGradient><radialGradient id="pi-swedbank_Radial35" cx="0" cy="0" r="1" gradientUnits="userSpaceOnUse" gradientTransform="matrix(36.457 0 0 -36.457 195.027 8.881)"><stop offset="0" stop-color="#ffe178" stop-opacity="1"/><stop offset=".18" stop-color="#ffd05f" stop-opacity="1"/><stop offset=".4" stop-color="#ffbe46" stop-opacity="1"/><stop offset=".6" stop-color="#ff9b0f" stop-opacity="1"/><stop offset=".8" stop-color="#f7780f" stop-opacity="1"/><stop offset=".9" stop-color="#f3640f" stop-opacity="1"/><stop offset="1" stop-color="#e65f19" stop-opacity="1"/></radialGradient><radialGradient id="pi-swedbank_Radial36" cx="0" cy="0" r="1" gradientUnits="userSpaceOnUse" gradientTransform="matrix(36.674 0 0 -36.674 194.986 8.887)"><stop offset="0" stop-color="#ffe178" stop-opacity="1"/><stop offset=".18" stop-color="#ffd05f" stop-opacity="1"/><stop offset=".4" stop-color="#ffbe46" stop-opacity="1"/><stop offset=".6" stop-color="#ff9b0f" stop-opacity="1"/><stop offset=".8" stop-color="#f7780f" stop-opacity="1"/><stop offset=".9" stop-color="#f3640f" stop-opacity="1"/><stop offset="1" stop-color="#e65f19" stop-opacity="1"/></radialGradient><radialGradient id="pi-swedbank_Radial37" cx="0" cy="0" r="1" gradientUnits="userSpaceOnUse" gradientTransform="matrix(36.862 0 0 -36.862 194.958 8.595)"><stop offset="0" stop-color="#ffe178" stop-opacity="1"/><stop offset=".18" stop-color="#ffd05f" stop-opacity="1"/><stop offset=".4" stop-color="#ffbe46" stop-opacity="1"/><stop offset=".6" stop-color="#ff9b0f" stop-opacity="1"/><stop offset=".8" stop-color="#f7780f" stop-opacity="1"/><stop offset=".9" stop-color="#f3640f" stop-opacity="1"/><stop offset="1" stop-color="#e65f19" stop-opacity="1"/></radialGradient><radialGradient id="pi-swedbank_Radial38" cx="0" cy="0" r="1" gradientUnits="userSpaceOnUse" gradientTransform="matrix(37.822 0 0 -37.822 194.285 8.202)"><stop offset="0" stop-color="#ffe178" stop-opacity="1"/><stop offset=".18" stop-color="#ffd05f" stop-opacity="1"/><stop offset=".4" stop-color="#ffbe46" stop-opacity="1"/><stop offset=".6" stop-color="#ff9b0f" stop-opacity="1"/><stop offset=".8" stop-color="#f7780f" stop-opacity="1"/><stop offset=".9" stop-color="#f3640f" stop-opacity="1"/><stop offset="1" stop-color="#e65f19" stop-opacity="1"/></radialGradient><radialGradient id="pi-swedbank_Radial39" cx="0" cy="0" r="1" gradientUnits="userSpaceOnUse" gradientTransform="matrix(37.232 0 0 -37.232 195.038 8.342)"><stop offset="0" stop-color="#ffe178" stop-opacity="1"/><stop offset=".18" stop-color="#ffd05f" stop-opacity="1"/><stop offset=".4" stop-color="#ffbe46" stop-opacity="1"/><stop offset=".6" stop-color="#ff9b0f" stop-opacity="1"/><stop offset=".8" stop-color="#f7780f" stop-opacity="1"/><stop offset=".9" stop-color="#f3640f" stop-opacity="1"/><stop offset="1" stop-color="#e65f19" stop-opacity="1"/></radialGradient><radialGradient id="pi-swedbank_Radial40" cx="0" cy="0" r="1" gradientUnits="userSpaceOnUse" gradientTransform="matrix(37.627 0 0 -37.627 194.167 8.174)"><stop offset="0" stop-color="#ffe178" stop-opacity="1"/><stop offset=".18" stop-color="#ffd05f" stop-opacity="1"/><stop offset=".4" stop-color="#ffbe46" stop-opacity="1"/><stop offset=".6" stop-color="#ff9b0f" stop-opacity="1"/><stop offset=".8" stop-color="#f7780f" stop-opacity="1"/><stop offset=".9" stop-color="#f3640f" stop-opacity="1"/><stop offset="1" stop-color="#e65f19" stop-opacity="1"/></radialGradient><radialGradient id="pi-swedbank_Radial41" cx="0" cy="0" r="1" gradientUnits="userSpaceOnUse" gradientTransform="matrix(36.945 0 0 -36.945 194.236 8.653)"><stop offset="0" stop-color="#ffe178" stop-opacity="1"/><stop offset=".18" stop-color="#ffd05f" stop-opacity="1"/><stop offset=".4" stop-color="#ffbe46" stop-opacity="1"/><stop offset=".6" stop-color="#ff9b0f" stop-opacity="1"/><stop offset=".8" stop-color="#f7780f" stop-opacity="1"/><stop offset=".9" stop-color="#f3640f" stop-opacity="1"/><stop offset="1" stop-color="#e65f19" stop-opacity="1"/></radialGradient><radialGradient id="pi-swedbank_Radial42" cx="0" cy="0" r="1" gradientUnits="userSpaceOnUse" gradientTransform="matrix(36.729 0 0 -36.729 194.098 8.598)"><stop offset="0" stop-color="#ffe178" stop-opacity="1"/><stop offset=".18" stop-color="#ffd05f" stop-opacity="1"/><stop offset=".4" stop-color="#ffbe46" stop-opacity="1"/><stop offset=".6" stop-color="#ff9b0f" stop-opacity="1"/><stop offset=".8" stop-color="#f7780f" stop-opacity="1"/><stop offset=".9" stop-color="#f3640f" stop-opacity="1"/><stop offset="1" stop-color="#e65f19" stop-opacity="1"/></radialGradient><radialGradient id="pi-swedbank_Radial43" cx="0" cy="0" r="1" gradientUnits="userSpaceOnUse" gradientTransform="matrix(39.002 0 0 -39.002 193.202 7.348)"><stop offset="0" stop-color="#ffe178" stop-opacity="1"/><stop offset=".18" stop-color="#ffd05f" stop-opacity="1"/><stop offset=".4" stop-color="#ffbe46" stop-opacity="1"/><stop offset=".6" stop-color="#ff9b0f" stop-opacity="1"/><stop offset=".8" stop-color="#f7780f" stop-opacity="1"/><stop offset=".9" stop-color="#f3640f" stop-opacity="1"/><stop offset="1" stop-color="#e65f19" stop-opacity="1"/></radialGradient><linearGradient id="pi-swedbank_Linear3" x1="0" y1="0" x2="1" y2="0" gradientUnits="userSpaceOnUse" gradientTransform="rotate(124.155 101.223 56.74) scale(46.209)"><stop offset="0" stop-color="#ffe6a5" stop-opacity="1"/><stop offset=".02" stop-color="#ffe6a5" stop-opacity="1"/><stop offset=".11" stop-color="#fcc677" stop-opacity="1"/><stop offset=".29" stop-color="#f5871e" stop-opacity="1"/><stop offset=".29" stop-color="#f5871e" stop-opacity="1"/><stop offset=".56" stop-color="#e1690f" stop-opacity="1"/><stop offset=".63" stop-color="#cc5c0e" stop-opacity="1"/><stop offset=".8" stop-color="#9c3d0c" stop-opacity="1"/><stop offset=".93" stop-color="#7e2a0b" stop-opacity="1"/><stop offset="1" stop-color="#73230a" stop-opacity="1"/></linearGradient><linearGradient id="pi-swedbank_Linear4" x1="0" y1="0" x2="1" y2="0" gradientUnits="userSpaceOnUse" gradientTransform="scale(42.672) rotate(-56.045 3.03 -3.474)"><stop offset="0" stop-color="#ffe6a0" stop-opacity="1"/><stop offset=".01" stop-color="#ffe6a0" stop-opacity="1"/><stop offset=".11" stop-color="#fcc877" stop-opacity="1"/><stop offset=".33" stop-color="#f5871e" stop-opacity="1"/><stop offset=".33" stop-color="#f5871e" stop-opacity="1"/><stop offset=".64" stop-color="#e1690f" stop-opacity="1"/><stop offset=".65" stop-color="#db650f" stop-opacity="1"/><stop offset=".76" stop-color="#ae490d" stop-opacity="1"/><stop offset=".86" stop-color="#8e340b" stop-opacity="1"/><stop offset=".94" stop-color="#7a280a" stop-opacity="1"/><stop offset=".99" stop-color="#73230a" stop-opacity="1"/><stop offset="1" stop-color="#73230a" stop-opacity="1"/></linearGradient></defs></svg>