<svg width="38" height="24" viewBox="0 0 38 24" version="1.1" xmlns="http://www.w3.org/2000/svg" role="img" aria-labelledby="pi-swedbank"><title id="pi-swedbank">Swedbank</title><path d="M35,0L3,0C1.3,0 0,1.3 0,3L0,21C0,22.7 1.4,24 3,24L35,24C36.7,24 38,22.7 38,21L38,3C38,1.3 36.6,0 35,0Z" fill-opacity="0.07" fill-rule="nonzero"/><path d="M35,1C36.1,1 37,1.9 37,3L37,21C37,22.1 36.1,23 35,23L3,23C1.9,23 1,22.1 1,21L1,3C1,1.9 1.9,1 3,1L35,1" fill="white" fill-rule="nonzero"/><g transform="matrix(0.265555,0,0,0.265555,-0.686441,-1.83401)"><g transform="matrix(4.16667,0,0,4.16667,0,-97.8258)"><path d="M4.446,34.233C4.446,35.711 5.486,36.312 6.947,36.615C8.415,36.918 8.664,37.384 8.664,37.947C8.664,38.511 8.1,38.986 7.31,38.986C6.417,38.965 5.561,38.591 4.933,37.947C4.933,37.947 4.191,38.861 4.174,38.884C5.02,39.674 6.134,40.102 7.293,40.085C8.701,40.27 9.952,39.182 9.963,37.758C9.963,36.545 9.216,35.802 7.554,35.402C6.043,35.035 5.745,34.64 5.745,34.06C5.745,33.475 6.179,33.021 7.001,33.021C7.764,33.036 8.496,33.317 9.08,33.811L9.769,32.771C9.005,32.143 8.046,31.808 7.06,31.823C5.702,31.688 4.517,32.734 4.473,34.103L4.446,34.233ZM14.007,34.006L12.718,38.04L11.533,34.038L10.288,34.038C10.288,34.038 12.107,39.787 12.118,39.821L13.238,39.821L14.527,35.825C14.527,35.825 15.805,39.798 15.805,39.821L16.947,39.821L18.81,34.038L17.554,34.038L16.379,38.06L15.069,34.038L14.007,34.006Z" fill="rgb(241,92,34)" fill-rule="nonzero"/></g><g transform="matrix(4.16667,0,0,4.16667,0,-97.1963)"><path d="M19.486,36.914C19.384,38.576 20.71,39.973 22.378,39.956C23.114,39.979 23.84,39.767 24.457,39.355L24.121,38.315C23.613,38.673 23,38.857 22.378,38.835C21.517,38.879 20.786,38.224 20.721,37.369L24.88,37.369L24.88,37.017C24.88,35.435 24.04,33.898 22.189,33.898C20.559,33.935 19.292,35.327 19.412,36.951L19.486,36.914ZM20.721,36.486C20.738,35.657 21.392,34.975 22.221,34.926C23.054,34.969 23.704,35.668 23.683,36.508L20.721,36.508L20.721,36.486ZM30.245,31.808L30.245,34.612C29.779,34.217 29.183,34.012 28.572,34.032C26.991,34.06 25.778,35.435 25.951,37.006C25.805,38.587 27.035,39.962 28.621,39.999C29.558,39.973 30.489,39.88 31.409,39.729L31.409,31.808L30.245,31.808ZM27.24,37.006C27.132,36.037 27.862,35.17 28.842,35.122C29.438,35.089 29.996,35.424 30.245,35.966L30.245,38.77C29.779,38.852 29.302,38.884 28.831,38.868C27.847,38.846 27.083,37.985 27.192,37.006L27.24,37.006Z" fill="rgb(241,92,34)" fill-rule="nonzero"/></g></g></svg>
