<svg xmlns="http://www.w3.org/2000/svg" width="38" height="24" fill="none" aria-labelledby="pi-swedbank" role="img" viewBox="0 0 38 24"><title id="pi-swedbank">Swedbank</title><path fill="#fff" d="M0 0h38v24H0z"/><path fill="#FF5F00" d="M3.16 10.98c0 .83.57 1.13 1.47 1.34.83.19 1 .43 1 .76 0 .34-.31.58-.79.58a2 2 0 0 1-1.38-.56l-.46.53c.5.43 1.15.68 1.82.68.94 0 1.57-.53 1.57-1.33 0-.7-.44-1.1-1.4-1.34-.88-.21-1.06-.44-1.06-.76 0-.28.26-.57.74-.57.43.02.85.17 1.19.44l.4-.57a2.4 2.4 0 0 0-1.6-.53c-.89.04-1.5.59-1.5 1.33m5.69.02-.75 2.28L7.42 11h-.75l1.07 3.3h.65l.76-2.27.75 2.27h.65a312 312 0 0 1 1.1-3.3h-.74l-.7 2.3-.75-2.3zm3.17 1.64c0 1 .71 1.7 1.69 1.7.43.02.87-.1 1.25-.34l-.2-.56c-.3.2-.66.3-1.03.3-.5.02-.94-.34-.98-.81v-.02h2.44l.02-.2c0-.86-.5-1.75-1.58-1.75-.92-.02-1.6.72-1.6 1.68Zm.73-.23c.08-.53.42-.87.88-.87.47 0 .79.34.85.87v.02zm5.71-2.72v1.59l-.02-.02a1.62 1.62 0 0 0-1-.34c-.76 0-1.53.59-1.53 1.7v.02c0 1.12.81 1.7 1.6 1.7.58-.01 1.13-.05 1.69-.15V9.7h-.74Zm-1.82 2.95c0-.62.42-1.08.97-1.08.52 0 .87.34.87.48v1.62h-.02c-.27.04-.57.06-.85.06-.55-.02-.97-.47-.97-1.08m3.55-2.95v4.5c.55.1 1.13.14 1.68.15.8 0 1.61-.58 1.61-1.7v-.02c0-1.11-.77-1.7-1.53-1.7-.37-.02-.73.11-1 .34l-.03.02v-1.6h-.73Zm.73 3.97-.02-1.62c0-.14.34-.48.88-.48.55 0 .97.46.97 1.06v.02c0 .6-.42 1.06-.97 1.06-.28.02-.58 0-.86-.04m3.48-2.44.2.59c.29-.13.6-.21.94-.21.54 0 .84.25.84.72v.08h-.02c-.3-.1-.6-.14-.92-.14-.83 0-1.32.4-1.32 1.06v.02c0 .68.61 1 1.16 1 .62-.01 1.21-.05 1.83-.15v-1.85c0-.91-.5-1.38-1.45-1.38-.43 0-.87.07-1.27.26Zm.43 2.08c0-.34.3-.53.77-.53.26 0 .52.04.78.14v.83h-.02q-.45.06-.9.06c-.35 0-.63-.21-.63-.5m3.19-2.21v3.18h.73v-2.65h.02c.26-.04.5-.06.76-.06.45 0 .71.32.71.85v1.86h.74v-2.08c0-.78-.46-1.25-1.17-1.25-.6 0-1.2.05-1.79.15m3.91-1.4v4.58h.73v-.93l.48-.49 1 1.42H35l-1.37-1.93L34.94 11h-.9l-1.38 1.48v-2.8h-.73Z"/></svg>