<?xml version="1.0" encoding="utf-8"?>
<!-- Generator: Adobe Illustrator 16.0.0, SVG Export Plug-In . SVG Version: 6.00 Build 0)  -->
<!DOCTYPE svg PUBLIC "-//W3C//DTD SVG 1.1//EN" "http://www.w3.org/Graphics/SVG/1.1/DTD/svg11.dtd">
<svg version="1.1" xmlns="http://www.w3.org/2000/svg" xmlns:xlink="http://www.w3.org/1999/xlink" x="0px" y="0px" width="40px"
	 height="20px" viewBox="0 0 40 20" enable-background="new 0 0 40 20" xml:space="preserve">
<g id="Layer_3">
	<g>
		<g>
			<path fill-rule="evenodd" clip-rule="evenodd" fill="#FFFFFF" d="M0.25,16.094V3.175c0-0.05,0-0.099,0-0.146
				c0-1.852,0.955-2.779,2.864-2.779h32.859c1.86,0.036,2.79,0.962,2.79,2.779v12.967c0,1.853-0.971,2.778-2.914,2.778H3.114
				C1.241,18.774,0.286,17.881,0.25,16.094z"/>
			
				<path fill-rule="evenodd" clip-rule="evenodd" fill="none" stroke="#CECECE" stroke-linecap="round" stroke-linejoin="round" stroke-miterlimit="3" d="
				M35.973,0.25H3.114c-1.909,0-2.864,0.927-2.864,2.779c0,0.048,0,0.097,0,0.146v12.918v0.731c0,1.949,0.971,2.925,2.914,2.925
				h33.575c2.008,0,3.012-0.976,3.012-2.925V3.175c0-1.95-1.004-2.925-3.012-2.925H35.973z"/>
		</g>
	</g>
</g>
<g id="Layer_1">
	<g>
		<g>
			
				<radialGradient id="SVGID_1_" cx="71.1387" cy="11.3984" r="32.561" gradientTransform="matrix(0.2569 0 0 0.2572 5.8979 2.5529)" gradientUnits="userSpaceOnUse">
				<stop  offset="0" style="stop-color:#FDD626"/>
				<stop  offset="0.3647" style="stop-color:#F17345"/>
				<stop  offset="0.6627" style="stop-color:#F00912"/>
				<stop  offset="0.8784" style="stop-color:#EE0920"/>
				<stop  offset="1" style="stop-color:#E30767"/>
			</radialGradient>
			<path fill-rule="evenodd" clip-rule="evenodd" fill="url(#SVGID_1_)" d="M26.691,13.461c0.025-0.267,0.038-0.532,0.038-0.798
				c0-0.18-0.008-0.356-0.025-0.527c-0.009-0.197-0.025-0.391-0.051-0.579c-0.231-1.595-0.942-2.989-2.133-4.181
				c-0.462-0.472-0.954-0.867-1.477-1.184l1.644-2.058c0.215,0.163,0.42,0.348,0.617,0.553c0.573,0.566,1.036,1.179,1.387,1.84
				c0.539,1.046,0.809,2.2,0.809,3.46c0,0.377-0.021,0.75-0.063,1.119C27.316,11.938,27.068,12.724,26.691,13.461z"/>
			
				<radialGradient id="SVGID_2_" cx="69.0879" cy="16.1484" r="47.4227" gradientTransform="matrix(0.2569 0 0 0.2571 5.8979 2.555)" gradientUnits="userSpaceOnUse">
				<stop  offset="0" style="stop-color:#FDD626"/>
				<stop  offset="0.3137" style="stop-color:#EB5253"/>
				<stop  offset="0.5059" style="stop-color:#EB4F65"/>
				<stop  offset="0.6392" style="stop-color:#E739CB"/>
				<stop  offset="0.8" style="stop-color:#9E16EC"/>
				<stop  offset="1" style="stop-color:#5702F0"/>
			</radialGradient>
			<path fill-rule="evenodd" clip-rule="evenodd" fill="url(#SVGID_2_)" d="M23.044,6.192c0.522,0.317,1.015,0.712,1.477,1.184
				c1.19,1.192,1.901,2.585,2.133,4.181c0.025,0.188,0.042,0.382,0.051,0.579c0.018,0.171,0.025,0.348,0.025,0.527
				c0,0.266-0.013,0.531-0.038,0.798c-0.359,0.651-0.822,1.27-1.387,1.853C23.841,16.771,22.072,17.5,20,17.5
				c-1.053,0-2.024-0.192-2.915-0.579c0.625,0.215,1.297,0.322,2.017,0.322c1.712,0,3.176-0.604,4.392-1.814
				c0.403-0.411,0.741-0.849,1.015-1.312c0.034-0.069,0.068-0.133,0.104-0.193c0.471-0.875,0.706-1.84,0.706-2.895
				c0-1.724-0.608-3.195-1.824-4.413C23.348,6.471,23.198,6.33,23.044,6.192z"/>
			
				<radialGradient id="SVGID_3_" cx="39.0928" cy="39.6484" r="46.7687" gradientTransform="matrix(0.2569 0 0 0.2571 5.8979 2.5599)" gradientUnits="userSpaceOnUse">
				<stop  offset="0" style="stop-color:#424EE9"/>
				<stop  offset="0.3922" style="stop-color:#58C9BE"/>
				<stop  offset="0.7647" style="stop-color:#6CD82E"/>
				<stop  offset="1" style="stop-color:#E5DB2A"/>
			</radialGradient>
			<path fill-rule="evenodd" clip-rule="evenodd" fill="url(#SVGID_3_)" d="M16.957,13.782c-0.472-0.3-0.917-0.665-1.336-1.094
				c-1.242-1.243-1.957-2.701-2.146-4.374c-0.017-0.129-0.025-0.257-0.025-0.386c-0.017-0.171-0.025-0.347-0.025-0.527
				c0-0.412,0.03-0.81,0.09-1.196c0.316-0.541,0.711-1.046,1.182-1.518C16.16,3.229,17.929,2.5,20,2.5
				c1.147,0,2.2,0.219,3.159,0.656c-0.685-0.249-1.421-0.373-2.208-0.373c-1.722,0-3.19,0.604-4.405,1.813
				c-0.402,0.412-0.741,0.85-1.015,1.313c-0.061,0.111-0.12,0.228-0.18,0.347c-0.42,0.832-0.63,1.75-0.63,2.753
				c0,1.715,0.608,3.182,1.824,4.4C16.683,13.538,16.819,13.662,16.957,13.782z"/>
			
				<radialGradient id="SVGID_4_" cx="39.6436" cy="46.3984" r="33.7722" gradientTransform="matrix(0.2569 0 0 0.2571 5.8979 2.5606)" gradientUnits="userSpaceOnUse">
				<stop  offset="0.0863" style="stop-color:#424EE9"/>
				<stop  offset="0.4471" style="stop-color:#58C9BE"/>
				<stop  offset="0.7098" style="stop-color:#59CAB5"/>
				<stop  offset="1" style="stop-color:#8CE785"/>
			</radialGradient>
			<path fill-rule="evenodd" clip-rule="evenodd" fill="url(#SVGID_4_)" d="M13.515,6.205c-0.06,0.386-0.09,0.785-0.09,1.196
				c0,0.18,0.009,0.356,0.025,0.527c0,0.129,0.009,0.257,0.025,0.386c0.188,1.672,0.903,3.13,2.146,4.374
				c0.419,0.429,0.864,0.794,1.336,1.094L15.3,15.854c-0.205-0.172-0.407-0.352-0.604-0.54c-0.497-0.515-0.908-1.055-1.233-1.621
				c-0.642-1.098-0.963-2.333-0.963-3.705c0-0.231,0.009-0.459,0.025-0.682C12.62,8.173,12.949,7.14,13.515,6.205z"/>
		</g>
	</g>
</g>
</svg>
