<svg xmlns="http://www.w3.org/2000/svg" width="38" height="24" fill="none" aria-labelledby="pi-swissbilling" role="img" viewBox="0 0 38 24"><title id="pi-swissbilling">swissbilling</title><path fill="#fff" d="M0 0h38v24H0z"/><path fill="#E31927" d="M34.38 11.09c0 .33-.13.46-.4.46-.26 0-.4-.13-.4-.46 0-.32.14-.46.4-.46.27 0 .4.12.4.46m.25 1.95c0 .29-.2.37-.6.37s-.55-.08-.55-.33c0-.1.04-.2.1-.27h.81c.17 0 .24.04.24.23m.53-.04c0-.54-.3-.69-.74-.69h-.7c-.1 0-.14-.02-.14-.11 0-.06.04-.17.11-.28.09.03.22.05.34.05.52 0 .88-.28.88-.85a.7.7 0 0 0-.11-.4v-.04l.3-.01c.03-.13.04-.28.04-.41h-.77a1.7 1.7 0 0 0-.41-.05c-.59 0-.91.36-.91.9 0 .3.1.52.28.65-.13.22-.24.43-.27.57.03.13.1.27.16.37-.18.15-.26.3-.26.5 0 .4.28.67 1.05.67.79 0 1.15-.35 1.15-.87m-2.7-.19V11c0-.59-.34-.8-.73-.8a.95.95 0 0 0-.7.3h-.04v-.26c-.17 0-.4.02-.55.04v2.54h.55v-1.95a.88.88 0 0 1 .53-.16c.3 0 .38.12.38.34v1.76zm-2.73 0v-2.55h-.55v2.55zm.04-3.23c0-.17-.1-.34-.32-.34-.21 0-.31.17-.31.34s.1.33.31.33c.22 0 .32-.15.32-.33m-1.3 3.23V9.18c-.17 0-.4.01-.55.03v3.6zm-1.26 0V9.18c-.17 0-.4.01-.55.03v3.6zm-1.26 0v-2.55h-.55v2.55zM26 9.58c0-.17-.1-.34-.32-.34-.21 0-.31.17-.31.34s.1.33.31.33.32-.15.32-.33m-1.73 1.91c0 .66-.17.9-.57.9a.7.7 0 0 1-.41-.12v-1.39a.75.75 0 0 1 .5-.17c.31 0 .48.17.48.79Zm.6-.05c0-.89-.4-1.23-.92-1.23a.82.82 0 0 0-.63.27h-.03v-1.3c-.18 0-.4.01-.55.03v3.36c.26.2.6.3.98.3.72 0 1.15-.52 1.15-1.43m-2.73.72c0-.78-1.23-.73-1.23-1.25 0-.3.18-.46.52-.46.2 0 .4.03.58.09a1 1 0 0 0 .05-.26 2.2 2.2 0 0 0-.57-.07c-.49 0-.85.27-.85.73 0 .71 1.23.6 1.23 1.25 0 .28-.16.43-.54.43a1.5 1.5 0 0 1-.67-.14l-.07.24c.18.1.45.15.68.15.48 0 .87-.24.87-.71m-2.02 0c0-.78-1.23-.73-1.23-1.25 0-.3.18-.46.52-.46.2 0 .41.03.59.09a1 1 0 0 0 .04-.26 2.2 2.2 0 0 0-.56-.07c-.5 0-.86.27-.86.73 0 .71 1.23.6 1.23 1.25 0 .28-.15.43-.53.43-.24 0-.47-.03-.67-.14-.04.07-.06.16-.08.24.19.1.46.15.68.15.49 0 .87-.24.87-.71m-2.19-2.64c0-.1-.06-.19-.16-.19-.11 0-.17.08-.17.19 0 .1.06.18.16.18.11 0 .17-.08.17-.18m-.04 3.3v-2.56h-.25v2.55h.25Zm-.91-2.54a1 1 0 0 0-.23-.03l-.47 1.95-.08.36a2.4 2.4 0 0 0-.09-.35l-.65-1.95h-.24l-.63 1.94c-.04.12-.06.24-.08.36h-.01a3 3 0 0 0-.07-.35l-.47-1.96a.9.9 0 0 0-.24.03c.16.83.4 1.75.64 2.54h.27l.62-1.93c.04-.11.07-.22.08-.34h.01a2 2 0 0 0 .08.33l.64 1.94h.26c.26-.82.48-1.66.66-2.54m-3.7 1.88c0-.78-1.24-.73-1.24-1.26 0-.3.18-.45.53-.45.2 0 .4.03.58.09a1 1 0 0 0 .05-.26 2.2 2.2 0 0 0-.57-.07c-.49 0-.85.26-.85.73 0 .71 1.23.6 1.23 1.25 0 .28-.16.43-.54.43a1.5 1.5 0 0 1-.67-.14l-.08.24c.2.1.46.14.68.14.5 0 .87-.23.87-.7M9.6 10.18l-3.2 3.21s-.26.27-.52 0l-1.3-1.3s-.26-.26 0-.53c.27-.27.54 0 .54 0l1.02 1.03 2.93-2.95s.25-.24.51.02c.27.27.02.52.02.52m1.51 1.2a4 4 0 0 0-3.97-4 3.98 3.98 0 0 0-3.97 4 4 4 0 0 0 3.97 4c2.2 0 3.97-1.8 3.97-4"/></svg>