<svg xmlns="http://www.w3.org/2000/svg" width="38" height="24" fill="none" aria-labelledby="pi-synchrony" role="img" viewBox="0 0 38 24"><title id="pi-synchrony">Synchrony</title><path fill="#fff" d="M0 0h38v24H0z"/><path fill="#FBC600" d="M7.33 8.31H5.9v3.72h1.43zm-4.22 3.72H1.67v3.72h1.44zm2.11 3.72H3.78V8.3h1.44v7.44Z"/><path fill="#3B3D44" d="m14.23 10.38-1 2.7-1.17-2.7h-.47l1.39 3.28-.44 1.28h.49l1.67-4.56zm21.79 0-1 2.7-1.16-2.7h-.48l1.39 3.28-.44 1.28h.49l1.67-4.56zm-25.65 1.39c-.74-.12-.86-.25-.86-.52 0-.29.3-.48.72-.48.45 0 .7.17.77.52v.01h.48v-.06c-.1-.58-.54-.9-1.24-.9s-1.2.38-1.2.9c0 .7.58.85 1.23.96.6.1.8.2.8.55 0 .34-.3.54-.77.54-.64 0-.84-.33-.89-.63h-.49c.06.66.59 1.07 1.38 1.07.73 0 1.25-.4 1.25-.99 0-.71-.56-.87-1.18-.97m16.19-1.43c-.43 0-.77.17-1 .4v-.36h-.46v3.3h.46V11.7c0-.47.33-.94.97-.94.1 0 .22.02.32.05v-.46c-.1-.02-.2-.02-.3-.02Zm-6.77 2.94c-.64 0-1.11-.52-1.11-1.23v-.04c0-.72.47-1.24 1.12-1.24.45 0 .8.25.98.64h.5a1.51 1.51 0 0 0-1.48-1.07c-.9 0-1.59.72-1.59 1.67v.04c0 .94.7 1.67 1.58 1.67.76 0 1.37-.52 1.53-1.26h-.48c-.13.5-.53.82-1.05.82m12.24-2.94c-.43 0-.77.17-1 .4v-.36h-.46v3.3h.46V11.7c0-.47.34-.94.97-.94.54 0 .78.29.78.9v2h.47v-2c0-.86-.44-1.33-1.22-1.33Zm-2.44 1.7V12c0-.72-.45-1.23-1.1-1.23s-1.12.52-1.12 1.24v.04c0 .71.47 1.23 1.11 1.23.66 0 1.11-.5 1.11-1.23Zm.47-.04v.05c0 .95-.68 1.67-1.58 1.67-.89 0-1.58-.73-1.58-1.67v-.04c0-.95.69-1.67 1.59-1.67s1.57.7 1.57 1.66m-6.85-1.66c-.43 0-.77.17-1 .4v-1.8h-.45v4.73h.46v-1.96c0-.47.33-.94.96-.94.54 0 .79.29.79.9v2h.46v-2c0-.86-.43-1.33-1.22-1.33m-5.45 1.33v2h-.46v-2c0-.61-.25-.9-.78-.9a.92.92 0 0 0-.97.94v1.96h-.46v-3.29h.46v.36a1.4 1.4 0 0 1 1-.4c.78 0 1.21.47 1.21 1.33"/></svg>