<svg xmlns="http://www.w3.org/2000/svg" viewBox="0 0 38 24" width="38" height="24" role="img" aria-labelledby="pi-synchrony_pay"><title id="pi-synchrony_pay">Synchrony Pay</title><path fill="#fff" d="M0 0h38v24H0z"/><mask id="mask0_1765_4748" style="mask-type:alpha" maskUnits="userSpaceOnUse" x="5" y="5" width="4" height="14"><path fill-rule="evenodd" clip-rule="evenodd" d="M5.835 5.195h2.491v13.23H5.835V5.194z" fill="#fff"/></mask><g mask="url(#mask0_1765_4748)"><path fill-rule="evenodd" clip-rule="evenodd" d="M8.326 17.948c.002.352-.068.497-.453.474-.647-.037-1.297-.022-1.945-.03-.12-.154-.088-.337-.088-.511-.001-4.051-.001-8.103.001-12.155 0-.172-.041-.356.085-.51.678-.005 1.356.004 2.033-.02.3-.012.367.093.365.375-.012 1.502-.006 3.005-.006 4.508 0 2.623-.006 5.246.008 7.869z" fill="#FAC90D"/></g><path fill-rule="evenodd" clip-rule="evenodd" d="M12.072 11.48c.004.263-.065.362-.345.354a34.993 34.993 0 00-1.9-.001c-.252.006-.334-.08-.333-.327.006-2.003.006-4.005 0-6.007-.001-.23.072-.307.304-.302a37.69 37.69 0 001.9-.002c.283-.008.382.068.376.366-.017.986-.007 1.973-.007 2.959 0 .987-.008 1.974.005 2.96z" fill="#FAC90D"/><mask id="mask1_1765_4748" style="mask-type:alpha" maskUnits="userSpaceOnUse" x="2" y="11" width="3" height="8"><path fill-rule="evenodd" clip-rule="evenodd" d="M2 11.875h2.513v6.542H2v-6.542z" fill="#fff"/></mask><g mask="url(#mask1_1765_4748)"><path fill-rule="evenodd" clip-rule="evenodd" d="M4.421 18.393c-.706.007-1.412.007-2.118.024-.234.005-.304-.088-.303-.312.012-2.058.018-4.118.025-6.178.746-.1 1.496-.023 2.244-.04.272-.006.237.215.239.384.007.677.003 1.355.003 2.033 0 1.193.001 2.385-.001 3.578-.001.174.032.356-.089.511z" fill="#FAC90D"/></g><path fill-rule="evenodd" clip-rule="evenodd" d="M5.928 18.393c-.315-.027-.163-.274-.164-.408-.01-2.65-.008-5.3-.008-7.95 0-1.487-.003-2.974.007-4.461 0-.124-.129-.35.163-.358l.002 13.177zM4.57 18.134c0 .11.04.252-.149.259.001-2-.007-4 .009-5.999.003-.358-.086-.494-.464-.476-.646.029-1.294.009-1.941.009.032-.116.13-.102.214-.102.678-.002 1.356.006 2.033-.005.233-.005.304.078.303.305-.006 2.003-.003 4.006-.005 6.01z" fill="#FAC90D"/><rect x="15.498" y="5.195" width="20.502" height="13.152" rx=".774" fill="#393840"/><path d="M20.38 12.733v2.132h-1.247v-6.05h2.36c.455 0 .854.083 1.197.25.346.166.612.402.798.71.185.305.278.652.278 1.043 0 .593-.203 1.06-.61 1.404-.405.341-.966.511-1.683.511H20.38zm0-1.01h1.113c.33 0 .58-.077.752-.232.175-.155.262-.377.262-.665 0-.296-.087-.536-.262-.719-.174-.183-.415-.277-.723-.282H20.38v1.899zM27.103 14.865a1.332 1.332 0 01-.12-.403c-.291.324-.67.486-1.135.486-.44 0-.806-.127-1.097-.382a1.232 1.232 0 01-.432-.964c0-.476.176-.842.528-1.097.354-.255.865-.384 1.533-.387h.553v-.257c0-.208-.054-.374-.162-.499-.106-.124-.273-.187-.503-.187-.202 0-.362.049-.478.146a.497.497 0 00-.17.399h-1.201c0-.26.08-.502.24-.723.161-.222.389-.395.682-.52a2.46 2.46 0 01.99-.191c.553 0 .992.14 1.316.42.327.277.49.667.49 1.171v1.95c.003.426.063.749.18.968v.07h-1.214zm-.993-.835c.177 0 .34-.039.49-.116a.79.79 0 00.333-.32v-.773h-.45c-.6 0-.92.207-.959.623l-.004.07c0 .15.052.274.158.37.105.098.249.146.432.146zM30.672 13.166l.831-2.797h1.289l-1.808 5.194-.1.237c-.268.587-.712.881-1.33.881-.174 0-.351-.026-.531-.079v-.91l.183.004c.227 0 .396-.034.507-.104a.678.678 0 00.265-.345l.142-.37-1.575-4.508h1.292l.835 2.797z" fill="#fff"/></svg>