<svg aria-labelledby="pi-synchrony"  width="38" height="24" viewBox="0 0 38 24" role="img" xmlns="http://www.w3.org/2000/svg"> 
<title id="pi-synchrony">Synchrony</title>
<rect width="100%" height="100%" fill="#fff"/>
<path d="M6.34 7.88H4.786v4.024H6.34zm-4.573 4.024H.214v4.024h1.553zm2.287 4.024H2.5V7.88h1.553z" id="pi-path24" fill="#fbc600" stroke-width=".022"/>
<path fill="#3b3d44" d="M13.803 10.121l-1.08 2.925-1.262-2.925h-.517l1.504 3.542-.47 1.392h.523l1.81-4.934zm23.58 0l-1.08 2.925-1.262-2.925h-.517l1.505 3.542-.47 1.392h.522l1.81-4.934zM9.622 11.62c-.793-.131-.932-.272-.932-.56 0-.309.321-.516.784-.516.484 0 .756.176.834.555l.004.02h.52l-.01-.07c-.106-.626-.582-.972-1.34-.972-.755 0-1.301.413-1.301.982 0 .745.631.912 1.334 1.03.662.114.866.207.866.599 0 .36-.325.583-.832.583-.69 0-.903-.364-.957-.683h-.534c.065.709.635 1.15 1.49 1.15.798 0 1.355-.437 1.355-1.063 0-.773-.606-.94-1.281-1.055zm17.52-1.55c-.463 0-.833.192-1.078.44v-.389h-.498v3.56h.498v-2.127c0-.502.36-1.01 1.047-1.01a1.121 1.121 0 01.349.05v-.496a1.794 1.794 0 00-.318-.027zm-7.32 3.188c-.697 0-1.203-.559-1.203-1.329v-.05c0-.773.509-1.334 1.21-1.334.486 0 .87.263 1.061.685h.536a1.637 1.637 0 00-1.596-1.152c-.978 0-1.715.775-1.715 1.802v.05c0 1.011.748 1.803 1.702 1.803.827 0 1.481-.56 1.66-1.36h-.516c-.15.537-.577.885-1.138.885zm13.244-3.187c-.464 0-.834.19-1.079.438v-.388h-.498v3.56h.498v-2.127c0-.502.36-1.01 1.047-1.01.579 0 .847.307.847.966v2.171h.499v-2.165c0-.932-.467-1.445-1.314-1.445zm-2.642 1.852v-.05c0-.783-.49-1.329-1.192-1.329s-1.21.562-1.21 1.334v.05c0 .77.507 1.33 1.204 1.33.706 0 1.198-.55 1.198-1.335zm.504-.05v.05c0 1.031-.733 1.809-1.708 1.809-.955 0-1.702-.792-1.702-1.803v-.05c0-1.027.737-1.802 1.714-1.802.984 0 1.697.756 1.697 1.796zm-7.404-1.802c-.463 0-.833.19-1.078.438V8.555h-.499v5.126h.499v-2.127c0-.502.36-1.01 1.047-1.01.578 0 .847.307.847.966v2.171h.498v-2.165c0-.932-.466-1.445-1.314-1.445zm-5.9 1.445v2.165h-.498V11.51c0-.659-.269-.966-.847-.966-.687 0-1.047.508-1.047 1.01v2.127h-.499v-3.56h.499v.388a1.5 1.5 0 011.078-.438c.848 0 1.315.513 1.315 1.445z" id="pi-path26" stroke-width=".022"/></svg>
