<svg xmlns="http://www.w3.org/2000/svg" role="img" viewBox="0 0 38 24" width="38" height="24" aria-labelledby="pi-tabby"><title id="pi-tabby">Tabby</title><path fill="#000" opacity=".07" d="M35 0H3C1.3 0 0 1.3 0 3v18c0 1.7 1.4 3 3 3h32c1.7 0 3-1.3 3-3V3c0-1.7-1.4-3-3-3z"/><path fill="#6CFF93" d="M35 1c1.1 0 2 .9 2 2v18c0 1.1-.9 2-2 2H3c-1.1 0-2-.9-2-2V3c0-1.1.9-2 2-2h32"/><g transform="translate(2.2 5.02) scale(.1338)"><path fill="#000" d="M207.01 33.0938V48.4355C207.01 52.0019 208.422 53.9531 211.515 53.9531C215.297 53.9531 217.162 51.5981 217.162 46.2822V33.0938H230.273V58.7979C230.273 72.9287 221.165 80.6494 209.229 80.6494C200.928 80.6494 196.306 78.1614 193.361 75.3457V62.8555C195.984 66.6237 200.261 69.2168 206.732 69.2168C212.588 69.2167 218.186 66.2544 218.186 58.9199V57.5742C216.236 62.7552 211.92 64.787 206.876 64.7871C199.953 64.7871 193.832 59.673 193.832 50.7236V33.0938H207.01ZM76.708 32.084C82.4902 32.084 86.3898 34.6414 88.6758 39.4189V33.0938H101.854V72.1211H88.6758V64.7871C86.457 70.1029 82.4902 73.1309 76.708 73.1309C68.2364 73.1309 62.1857 65.5273 62.1855 51.5986C62.1855 39.0155 68.2364 32.084 76.708 32.084ZM119.806 23.6729V39.4189C122.092 34.6415 125.991 32.0841 131.773 32.084C140.245 32.084 146.363 39.0155 146.363 51.5986C146.363 65.5273 140.245 73.1309 131.773 73.1309C125.991 73.1308 122.024 70.1029 119.806 64.7871V72.1211H106.628V23.6729H119.806ZM163.441 23.6729V39.4189C165.727 34.6414 169.627 32.0841 175.409 32.084C183.881 32.084 189.933 38.9482 189.933 51.5986C189.932 65.5946 183.881 73.1309 175.409 73.1309C169.627 73.1308 165.66 70.1029 163.441 64.7871V72.1211H150.264V23.6729H163.441ZM44.5771 23.6729V33.0938H58.207V42.7832H44.5771V46.8203H58.207V56.5107H44.5771C44.6445 59.875 46.4604 61.3555 50.1582 61.3555C52.4674 61.3554 54.9111 60.6868 58.207 59.1484V70.1836C55.4936 71.6411 51.6802 72.9366 47.042 72.9287C38.5414 72.9142 31.3994 68.5249 31.3994 57.3848V56.5107H22.2793L21.6738 46.8203H31.3994V42.7832H21.5391L20.9346 33.0938H31.3994V23.6729H44.5771ZM82.2217 41.9756C78.1876 41.9756 75.834 45.2062 75.834 50.9258C75.8341 56.6451 78.1877 59.875 82.2217 59.875C86.3899 59.8748 88.6083 56.6449 88.6084 50.9258C88.6084 45.2063 86.39 41.9758 82.2217 41.9756ZM169.896 41.9756C165.795 41.9756 163.441 45.0716 163.441 50.9258C163.442 56.7797 165.795 59.875 169.896 59.875C173.93 59.8748 176.283 56.6449 176.283 50.9258C176.283 45.2063 173.93 41.9758 169.896 41.9756ZM126.193 41.9756C122.092 41.9756 119.806 45.2734 119.806 50.9258C119.806 56.1741 122.092 59.2021 126.193 59.2021C130.294 59.2021 132.58 56.2413 132.58 50.9258C132.58 45.0717 130.295 41.9757 126.193 41.9756Z"/></g></svg>
