<svg xmlns="http://www.w3.org/2000/svg" fill="none" viewBox="0 0 38 24" height="24" width="38" aria-labelledby="pi-taly" role="img"><title id="pi-taly">Taly</title><path fill="#131D2B" d="M0 0h38v24H0z"/><path fill="#0E6FF7" d="M4.89 15.41V9.27A1.47 1.47 0 0 1 5.6 8l3.97-2.31a1.46 1.46 0 0 1 2.2 1.26v.03L7.93 9.23a1.46 1.46 0 0 0-.72 1.26v6.12l-.12.07a1.46 1.46 0 0 1-2.2-1.27Z"/><path fill="#CAD1DB" d="M7.85 9.28a1.46 1.46 0 0 0-.66 1.21v6.13l-.11.07a1.46 1.46 0 0 1-2.2-1.27v-2.65c0-1.95 2.5-3.19 2.97-3.5Z"/><path fill="#fff" d="M18.1 15.57c-.4.08-.82.12-1.23.1a2.8 2.8 0 0 1-1.08-.23c-.3-.13-.55-.37-.7-.67a1.97 1.97 0 0 1-.24-.83l-.01-.97V7.1h1.29v6.49c.01.2.05.36.13.5.15.25.38.4.7.43.32.03.7.02 1.13-.04v1.08Zm-4.53-5.59V8.95h4.52v1.03h-4.52Zm6.93 5.78c-.49 0-.9-.1-1.23-.27a1.92 1.92 0 0 1-.75-.73 2 2 0 0 1-.26-.99c0-.33.06-.63.18-.88.12-.26.3-.48.53-.65.26-.19.55-.34.86-.43.33-.1.66-.17 1-.23a36.46 36.46 0 0 1 2.4-.35l-.47.25c0-.52-.1-.9-.33-1.15-.23-.25-.62-.38-1.17-.38-.35 0-.67.08-.96.25-.29.16-.49.42-.6.8l-1.2-.37c.17-.57.48-1.02.93-1.36.47-.33 1.08-.5 1.84-.5.6 0 1.11.1 1.55.3.44.2.76.52.97.96.1.22.17.45.2.69.02.24.03.5.03.78v4.07h-1.13v-1.51l.21.2c-.27.5-.62.88-1.04 1.13a3.1 3.1 0 0 1-1.56.37Zm.23-1.05a2.06 2.06 0 0 0 1.57-.69c.16-.2.26-.4.3-.62a2 2 0 0 0 .13-.67l.01-.58.42.15a223.71 223.71 0 0 1-2 .31c-.27.05-.5.1-.71.17a2.4 2.4 0 0 0-.48.22c-.13.08-.24.19-.32.31a.93.93 0 0 0 .01.93c.1.15.23.27.4.34.17.08.4.13.67.13Zm4.14.86V7.11h1.29v8.46h-1.29Zm3.37 2.94 1.28-3.48.02 1.03-2.88-7.1h1.33l2.16 5.48h-.4l2.07-5.49h1.3l-3.66 9.56h-1.22Z"/></svg>