<svg xmlns="http://www.w3.org/2000/svg" role="img" viewBox="0 0 38 24" width="38" height="24" fill="none" aria-labelledby="pi-taly"><title id="pi-taly">Taly</title><g clip-path="url(#pi-clip0_4669_9963)"><rect x="2" y="2" width="34" height="20" rx="2" fill="#1C2B40"/><path d="M6.37061 15.0559V9.55213C6.37086 9.3231 6.43109 9.09812 6.5453 8.89961C6.65952 8.70108 6.82372 8.53593 7.02159 8.42059L10.5724 6.35165C10.7715 6.23477 10.9979 6.1726 11.2287 6.17146C11.4596 6.1703 11.6866 6.2302 11.8868 6.34509C12.087 6.45997 12.2533 6.62576 12.3687 6.82563C12.4842 7.0255 12.5448 7.25234 12.5444 7.48318V7.51158L9.0858 9.52372C8.8884 9.63879 8.72463 9.80362 8.61082 10.0018C8.49701 10.1999 8.43713 10.4244 8.43719 10.6529V16.1235L8.33303 16.185C8.13451 16.3003 7.90915 16.3611 7.67963 16.3615C7.45012 16.3619 7.22455 16.3019 7.02562 16.1874C6.82669 16.0729 6.66141 15.9081 6.54642 15.7095C6.43144 15.5109 6.37079 15.2854 6.37061 15.0559Z" fill="#0E6FF7"/><path d="M9.0215 9.5649C8.75485 9.74447 8.56138 10.0137 8.47615 10.3236C8.4508 10.4317 8.43729 10.5422 8.43585 10.6532V16.1327L8.33389 16.1943C8.13523 16.3099 7.90961 16.371 7.67978 16.3714C7.44997 16.372 7.22409 16.3117 7.02496 16.197C6.82583 16.0823 6.66047 15.9171 6.5456 15.7181C6.43072 15.519 6.37038 15.2932 6.37067 15.0634V12.6923C6.37067 10.9448 8.60182 9.8352 9.0215 9.5649Z" fill="#CAD1DB"/><path d="M18.1892 15.1964C17.8163 15.2695 17.4507 15.3005 17.0923 15.2895C16.7341 15.2786 16.4142 15.2091 16.1327 15.0811C15.8512 14.9532 15.6392 14.7521 15.4966 14.478C15.3686 14.233 15.2992 13.9843 15.2882 13.7321C15.2808 13.4762 15.2772 13.1874 15.2772 12.8657V7.62857H16.4288V12.8108C16.4288 13.0484 16.4307 13.255 16.4343 13.4305C16.4416 13.606 16.48 13.754 16.5495 13.8747C16.6811 14.1014 16.8895 14.2311 17.1746 14.264C17.4635 14.2933 17.8016 14.2805 18.1892 14.2257V15.1964ZM14.142 10.195V9.27373H18.1892V10.195H14.142Z" fill="white"/><path d="M20.3426 15.3608C19.9039 15.3608 19.5366 15.2804 19.2404 15.1195C18.9442 14.955 18.7194 14.7393 18.5658 14.4724C18.416 14.2019 18.341 13.9058 18.341 13.584C18.341 13.2843 18.3941 13.0211 18.5001 12.7943C18.6061 12.5677 18.7633 12.3758 18.9717 12.2186C19.1801 12.0577 19.436 11.928 19.7394 11.8292C20.0026 11.7524 20.3007 11.6848 20.6333 11.6264C20.966 11.5678 21.3151 11.513 21.6807 11.4618C22.05 11.4106 22.4155 11.3595 22.7775 11.3083L22.3607 11.5386C22.368 11.0743 22.2693 10.7306 22.0646 10.5076C21.8635 10.2809 21.5162 10.1676 21.0226 10.1676C20.7119 10.1676 20.4267 10.2408 20.1672 10.387C19.9076 10.5295 19.7266 10.7671 19.6242 11.0999L18.5549 10.7708C18.7011 10.2627 18.979 9.85868 19.3885 9.5589C19.8016 9.25911 20.35 9.10922 21.0336 9.10922C21.5638 9.10922 22.0244 9.20062 22.4155 9.38341C22.8104 9.56255 23.0992 9.84771 23.282 10.2389C23.377 10.4327 23.4355 10.6374 23.4575 10.8531C23.4794 11.0688 23.4904 11.3009 23.4904 11.5495V15.1964H22.4759V13.8418L22.6733 14.0173C22.4283 14.4706 22.1158 14.8088 21.7355 15.0318C21.359 15.2511 20.8947 15.3608 20.3426 15.3608ZM20.5455 14.4231C20.871 14.4231 21.1507 14.3664 21.3846 14.2531C21.6186 14.1361 21.8069 13.988 21.9494 13.8089C22.092 13.6298 22.1852 13.4433 22.2291 13.2495C22.2913 13.074 22.326 12.8767 22.3333 12.6573C22.3442 12.438 22.3498 12.2624 22.3498 12.1308L22.7226 12.268C22.3607 12.3227 22.0317 12.3721 21.7355 12.416C21.4394 12.4599 21.1707 12.5037 20.9294 12.5476C20.6918 12.5878 20.4798 12.6371 20.2933 12.6957C20.1361 12.7505 19.9954 12.8164 19.871 12.8931C19.7504 12.9699 19.6535 13.0631 19.5804 13.1727C19.511 13.2824 19.4762 13.4159 19.4762 13.5731C19.4762 13.7267 19.5146 13.8692 19.5914 14.0008C19.6682 14.1288 19.7851 14.2311 19.9423 14.3079C20.0995 14.3847 20.3007 14.4231 20.5455 14.4231Z" fill="white"/><path d="M24.2564 15.1964V7.62891H25.4025V15.1964H24.2564Z" fill="white"/><path d="M27.2697 17.8286L28.4159 14.7083L28.4324 15.6296L25.8494 9.27374H27.0449L28.9752 14.1818H28.6243L30.4668 9.27374H31.6294L28.361 17.8286H27.2697Z" fill="white"/></g><defs><clipPath id="pi-clip0_4669_9963"><rect x="2" y="2" width="34" height="20" rx="2" fill="white"/></clipPath></defs></svg>