<svg xmlns="http://www.w3.org/2000/svg" width="38" height="24" aria-labelledby="pi-tamara"><title id="pi-tamara">Tamara</title><path opacity=".07" fill="#000" d="M35 0H3C1.3 0 0 1.3 0 3v18c0 1.7 1.4 3 3 3h32c1.7 0 3-1.3 3-3V3c0-1.7-1.4-3-3-3z"/><path fill="#fff" d="M35 1c1.1 0 2 .9 2 2v18c0 1.1-.9 2-2 2H3c-1.1 0-2-.9-2-2V3c0-1.1.9-2 2-2h32"/><path d="M3.767 6.188h.11a.77.77 0 01.61.517c.02.789.026 1.578.02 2.367.973-.007 1.947 0 2.92.018.464.233.58.584.351 1.054a.625.625 0 01-.425.277c-.949.019-1.898.025-2.847.019-.015.777.004 1.554.056 2.329.308 1.585 1.202 2.7 2.68 3.346 1.962.654 3.62.204 4.973-1.35.612-.792.92-1.692.925-2.699.053-.41.287-.632.702-.665.462.073.69.344.684.813-.183 2.604-1.49 4.373-3.92 5.306-.44.134-.883.226-1.33.277h-.924c-2.534-.333-4.204-1.713-5.01-4.14a10.917 10.917 0 01-.204-1V6.706a.804.804 0 01.629-.517z" opacity=".977" clip-rule="evenodd" fill="#3fe1d1" fill-rule="evenodd"/><path d="M12.058 9.094c.7-.046.99.274.869.96-.26.424-.61.517-1.054.278-.245-.21-.325-.476-.24-.795.04-.092.09-.178.148-.259.091-.067.184-.128.277-.184z" opacity=".948" clip-rule="evenodd" fill="#3fe1d1" fill-rule="evenodd"/><path d="M9.568 9.095c.733-.013.998.333.795 1.035-.277.357-.616.425-1.017.204-.276-.272-.331-.586-.166-.943a.896.896 0 01.388-.296z" opacity=".951" clip-rule="evenodd" fill="#3fe1d1" fill-rule="evenodd"/><path d="M17.043 9.61a.366.366 0 01.352.11c.018.432.024.863.018 1.294a32.6 32.6 0 011.553.019c.148.148.148.296 0 .444a32.6 32.6 0 01-1.553.018c-.006.567 0 1.134.019 1.7.141.53.48.746 1.016.648a.828.828 0 00.389-.314c.098-.225.178-.453.24-.684.154-.084.283-.053.388.092-.035 1.045-.57 1.508-1.608 1.386-.496-.163-.798-.502-.906-1.016a86.936 86.936 0 010-3.587.39.39 0 00.092-.11z" opacity=".944" clip-rule="evenodd" fill="#3fe1d1" fill-rule="evenodd"/><path d="M33.249 10.737c.84-.095 1.363.262 1.571 1.072.025.814.025 1.627 0 2.44-.175.202-.34.19-.499-.036-.66.323-1.245.225-1.756-.296-.394-.61-.363-1.195.092-1.756a1.67 1.67 0 01.592-.296c.358-.006.715-.025 1.072-.056-.168-.447-.489-.638-.961-.573a6.634 6.634 0 01-.425.204c-.224-.03-.298-.154-.222-.37.15-.164.328-.275.536-.333zm.11 1.59h1c.005.42 0 .838-.02 1.257-.453.407-.909.42-1.367.037-.346-.579-.216-1.01.388-1.294z" opacity=".934" clip-rule="evenodd" fill="#3fe1d1" fill-rule="evenodd"/><path d="M23.602 10.737c.558-.091 1.008.081 1.35.518.445-.539.994-.668 1.645-.388.357.214.573.529.647.943.036.829.024 1.654-.037 2.477a.324.324 0 01-.314.055.17.17 0 01-.093-.092 45.139 45.139 0 00-.073-2.477c-.25-.531-.638-.673-1.165-.426a.94.94 0 00-.351.573l-.037 2.33c-.148.148-.296.148-.444 0l-.037-2.367c-.212-.608-.613-.787-1.202-.536a.915.915 0 00-.35.61l-.038 2.293a.17.17 0 01-.092.092c-.159.054-.276.011-.352-.13a22.926 22.926 0 01.037-2.55c.161-.45.463-.759.906-.925z" opacity=".945" clip-rule="evenodd" fill="#3fe1d1" fill-rule="evenodd"/><path d="M28.396 10.718c.745-.098 1.257.198 1.534.887.06.873.072 1.748.037 2.625-.067.13-.172.172-.314.13a.598.598 0 01-.185-.167c-.722.345-1.332.21-1.83-.407-.354-.67-.249-1.255.314-1.756.14-.082.288-.144.444-.185.358-.006.715-.024 1.072-.055-.17-.448-.49-.64-.961-.573a6.634 6.634 0 01-.425.203c-.205-.04-.28-.163-.222-.37.15-.163.328-.274.536-.332zm.148 1.59h.961c.006.419 0 .838-.018 1.257-.432.387-.875.412-1.331.073-.344-.43-.314-.83.092-1.201a1.63 1.63 0 01.296-.13z" opacity=".938" clip-rule="evenodd" fill="#3fe1d1" fill-rule="evenodd"/><path d="M31.287 10.766c.425-.076.801.022 1.128.296.107.216.045.352-.185.407a7.94 7.94 0 00-.463-.204c-.5-.055-.814.161-.942.647l-.037 2.33c-.076.14-.193.183-.352.13a.17.17 0 01-.092-.093 42.729 42.729 0 010-2.514c.134-.51.448-.842.943-.999z" opacity=".941" clip-rule="evenodd" fill="#3fe1d1" fill-rule="evenodd"/><path d="M22.278 11.693v2.588c-.193.165-.36.14-.499-.074-.95.407-1.615.136-1.996-.813-.133-.788.181-1.3.943-1.535.344-.018.69-.024 1.035-.018a.745.745 0 00-.555-.61.752.752 0 00-.702.185c-.245.038-.363-.067-.352-.315a.913.913 0 01.426-.314c.837-.191 1.404.11 1.7.906zm-1.442.628h.962c.006.432 0 .863-.019 1.295-.378.304-.779.347-1.201.129-.413-.398-.438-.817-.074-1.257.108-.067.22-.122.332-.167z" opacity=".94" clip-rule="evenodd" fill="#3fe1d1" fill-rule="evenodd"/></svg>