<svg xmlns="http://www.w3.org/2000/svg" width="38" height="24" aria-labelledby="pi-tamara"><title id="pi-tamara">Tamara</title><path opacity=".07" fill="#000" d="M35 0H3C1.3 0 0 1.3 0 3v18c0 1.7 1.4 3 3 3h32c1.7 0 3-1.3 3-3V3c0-1.7-1.4-3-3-3z"/><path fill="#fff" d="M35 1c1.1 0 2 .9 2 2v18c0 1.1-.9 2-2 2H3c-1.1 0-2-.9-2-2V3c0-1.1.9-2 2-2h32"/><g clip-rule="evenodd" fill="#3fe1d1" fill-rule="evenodd"><path d="M6.374 7.185h.091c.236.037.43.203.506.429.017.654.022 1.309.017 1.963.807-.005 1.615 0 2.422.015.385.194.48.485.29.875a.518.518 0 01-.352.23c-.787.015-1.574.02-2.361.015-.013.645.003 1.29.046 1.932.256 1.315.997 2.24 2.223 2.776 1.628.542 3.003.169 4.125-1.12a3.596 3.596 0 00.768-2.239c.044-.34.238-.524.582-.552.383.06.572.286.567.675-.151 2.16-1.236 3.627-3.251 4.401a6.185 6.185 0 01-1.103.23h-.767c-2.102-.276-3.487-1.421-4.156-3.434a9.056 9.056 0 01-.169-.83V7.615a.667.667 0 01.522-.429z" opacity=".977"/><path d="M13.251 9.596c.58-.038.821.227.721.796-.216.352-.506.429-.874.23a.603.603 0 01-.2-.659 1.17 1.17 0 01.123-.215c.076-.055.153-.106.23-.152z" opacity=".948"/><path d="M11.186 9.597c.608-.011.828.276.66.858-.23.296-.512.353-.844.17-.23-.226-.275-.487-.138-.783a.743.743 0 01.322-.245z" opacity=".951"/><path d="M17.386 10.024a.304.304 0 01.292.09c.015.36.02.717.015 1.074.43-.005.86 0 1.288.016.123.123.123.246 0 .368-.429.016-.858.02-1.288.015-.005.47 0 .941.016 1.41.117.44.398.62.843.538a.687.687 0 00.322-.26c.082-.187.148-.376.2-.568.127-.07.234-.044.321.076-.029.867-.472 1.251-1.333 1.15-.412-.135-.662-.416-.752-.843-.02-.991-.02-1.983 0-2.975a.324.324 0 00.076-.091z" opacity=".944"/><path d="M30.83 10.959c.696-.08 1.13.217 1.302.889.021.675.021 1.35 0 2.024-.145.167-.282.157-.414-.03-.547.268-1.032.187-1.456-.246-.327-.506-.301-.99.076-1.456.146-.114.313-.198.491-.246.297-.005.593-.02.89-.046-.14-.371-.406-.53-.798-.476-.115.061-.233.117-.352.17-.186-.025-.247-.128-.184-.307a.931.931 0 01.444-.276zm.09 1.318h.83c.004.349 0 .696-.017 1.043-.375.338-.754.349-1.134.03-.287-.48-.179-.837.322-1.073z" opacity=".934"/><path d="M22.827 10.959c.463-.076.836.067 1.12.43.369-.448.824-.555 1.364-.323.297.178.476.44.537.783.03.687.02 1.372-.03 2.054a.269.269 0 01-.261.046.141.141 0 01-.077-.076 37.443 37.443 0 00-.06-2.055c-.208-.44-.53-.558-.967-.353a.78.78 0 00-.291.475l-.031 1.933c-.123.122-.246.122-.368 0l-.031-1.964c-.176-.504-.508-.653-.997-.444a.759.759 0 00-.29.506l-.032 1.902a.141.141 0 01-.076.076c-.132.045-.23.009-.292-.108a19.017 19.017 0 01.03-2.115 1.22 1.22 0 01.752-.767z" opacity=".945"/><path d="M26.804 10.943c.618-.081 1.042.164 1.272.736.05.724.06 1.45.03 2.177-.055.108-.142.143-.26.108a.496.496 0 01-.153-.139c-.599.287-1.105.175-1.518-.337-.294-.556-.207-1.041.26-1.457a1.46 1.46 0 01.369-.153c.297-.005.593-.02.889-.046-.141-.372-.407-.53-.797-.475-.116.06-.233.116-.353.168-.17-.033-.232-.135-.184-.307a.936.936 0 01.445-.275zm.122 1.319h.798c.005.347 0 .695-.015 1.042-.359.321-.726.342-1.104.06-.286-.356-.26-.688.076-.995.078-.044.16-.08.245-.108z" opacity=".938"/><path d="M29.202 10.983c.352-.063.664.018.935.245.09.18.038.292-.153.338a6.586 6.586 0 00-.384-.17c-.415-.045-.675.134-.781.537l-.031 1.933c-.063.116-.16.152-.292.108a.141.141 0 01-.076-.077c-.02-.695-.02-1.39 0-2.086.11-.423.371-.698.782-.828z" opacity=".941"/><path d="M21.729 11.752v2.146c-.16.137-.299.116-.414-.061-.788.338-1.34.113-1.656-.674-.11-.654.15-1.079.782-1.274.286-.015.573-.02.859-.015a.618.618 0 00-.46-.506.624.624 0 00-.583.154c-.203.031-.3-.056-.292-.262.09-.12.213-.21.354-.26.694-.158 1.164.091 1.41.752zm-1.196.52h.798c.005.359 0 .716-.016 1.075-.314.252-.646.288-.996.107-.343-.33-.364-.678-.062-1.043.09-.056.183-.101.276-.139z" opacity=".94"/></g></svg>