<svg xmlns="http://www.w3.org/2000/svg" width="38" height="24" fill="none" aria-labelledby="pi-tamara" viewBox="0 0 38 24"><title id="pi-tamara">Tamara</title><rect width="38" height="24" fill="#000" rx="2"/><path fill="#fff" fill-rule="evenodd" d="M6.052 14.04a2.728 2.728 0 0 1-.344-.028c-.344-.056-.563-.224-.657-.5a1.156 1.156 0 0 1-.068-.361v-2.067l.203-.009c.433-.021.893-.053 1.33-.173l-.279-.944-1.254.185v-1.39H3.5v1.39H2.5v.953h1.001s0 1.965.008 2.467c.001.306.09.606.257.864.2.302.489.49.912.594.455.111.916.106 1.402.1H6.201v-1.076h-.056l-.093-.005Zm2.988-3.966c.718-.15 1.288-.044 1.877.176.702.262 1.109.837 1.108 1.58v3.28h-1.35v-.938l-.325.25a4.885 4.885 0 0 0-.15.127 2.444 2.444 0 0 1-1.644.569 1.504 1.504 0 0 1-1.254-.637c-.159-.22-.235-.49-.239-.85-.01-.946.617-1.243 1.145-1.326.172-.027.346-.04.52-.04.517.008 1.03.107 1.512.293l.03.011.038.015a.207.207 0 0 0 .144 0l.235-.05s-.019-.616-.048-.765c-.07-.36-.5-.605-.949-.596-.386.007-.746.337-.953.63-.26-.195-.455-.362-.642-.524a13.24 13.24 0 0 0-.361-.304c.295-.559.746-.783 1.306-.9Zm.158 4.064c.542 0 1.013-.29 1.301-.805l.165-.295H8.18l-.008.19c-.016.437.214.76.619.867.11.026.224.04.338.043h.069Zm13.955-4.064c.717-.15 1.287-.044 1.876.176.702.262 1.11.837 1.11 1.58v3.28h-1.352v-.938l-.324.25-.13.11-.02.017a2.445 2.445 0 0 1-1.644.569 1.504 1.504 0 0 1-1.253-.637c-.16-.22-.236-.49-.24-.85-.01-.946.617-1.243 1.145-1.326.172-.027.346-.04.52-.04.517.008 1.03.107 1.512.293l.031.011.038.015a.207.207 0 0 0 .144 0l.234-.05s-.019-.616-.048-.765c-.07-.36-.5-.605-.949-.596-.385.007-.746.337-.953.63-.26-.195-.453-.361-.641-.523h-.001c-.114-.1-.231-.2-.361-.305.295-.559.745-.783 1.306-.9Zm.158 4.064c.541 0 1.013-.29 1.3-.805l.167-.295h-2.484l-.008.19c-.017.437.213.761.619.867.11.026.224.04.337.043h.07ZM34.26 10.25c-.589-.22-1.159-.327-1.877-.176-.56.118-1.01.342-1.306.901.13.105.247.205.361.304.188.162.382.33.643.523.206-.292.567-.622.953-.63.449-.008.878.237.949.597.029.149.048.765.048.765l-.235.05a.207.207 0 0 1-.144 0 .504.504 0 0 1-.037-.015l-.031-.011a4.404 4.404 0 0 0-1.513-.293c-.174 0-.348.013-.52.04-.527.083-1.155.38-1.144 1.327.004.36.08.63.239.85a1.493 1.493 0 0 0 1.253.636c.6.018 1.186-.185 1.645-.57l.019-.015.13-.111.325-.25v.939h1.35V11.83c.001-.743-.406-1.318-1.108-1.58Zm-.417 3.083c-.289.514-.76.805-1.301.805h-.07a1.612 1.612 0 0 1-.337-.043c-.405-.106-.636-.43-.62-.866l.009-.19h2.483l-.164.294Zm-4.958-2.324c.206-.374.518-.564.955-.583.1-.005.2-.005.309-.003v1.279h-.021c-.106.001-.505.005-.672.028a1.21 1.21 0 0 0-.73.366c-.194.203-.31.466-.33.745-.006.106-.004.213-.002.318l.002.154v1.807h-1.31v-4.628h1.307v.768l.324.075.168-.326Zm-10.741.628c-.43.04-.746.409-.746.876v2.604h-1.37V12.56a.976.976 0 0 0-.167-.601c-.203-.274-.59-.393-.962-.297a.792.792 0 0 0-.598.688 2.039 2.039 0 0 0-.017.26v2.51h-1.361v-4.629h1.367v1.04l.196-.342c.439-.765 1.291-.897 1.857-.74.525.15.854.565.97 1.138l.2-.4c.44-.764 1.388-.882 1.953-.724.522.147.831.497.94 1.071.026.149.038.3.037.45V15.115h-1.306V12.58a1.343 1.343 0 0 0-.017-.255c-.093-.479-.458-.737-.976-.688Z" clip-rule="evenodd"/><rect width="37" height="23" x=".5" y=".5" stroke="#000" stroke-opacity=".07" rx="1.5"/></svg>