<svg width="38" height="24" viewBox="0 0 38 24" fill="none" xmlns="http://www.w3.org/2000/svg"><g clip-path="url(#clip0_5742_4546)"><path d="M0 4.755A3.455 3.455 0 013.455 1.3h3.517a3.455 3.455 0 013.454 3.455v14.508a3.455 3.455 0 01-3.454 3.455H3.455A3.455 3.455 0 010 19.263V4.755z" fill="#72A89C"/><g filter="url(#filter0_d_5742_4546)"><path d="M4.017 3.988A3.455 3.455 0 017.472.534h4.246a3.455 3.455 0 013.455 3.454V20.03a3.455 3.455 0 01-3.455 3.454H7.472a3.455 3.455 0 01-3.455-3.454V3.988z" fill="#136D58"/></g><g filter="url(#filter1_d_5742_4546)"><path d="M38 3.53v16.94A3.53 3.53 0 0134.47 24H11.883a3.53 3.53 0 01-3.529-3.53v-2.117a2.81 2.81 0 01.58-1.715A7.726 7.726 0 0010.47 12a7.726 7.726 0 00-1.563-4.67 2.81 2.81 0 01-.555-1.683V3.53A3.53 3.53 0 0111.883 0H34.47A3.53 3.53 0 0138 3.53z" fill="#17413A"/></g><path fill-rule="evenodd" clip-rule="evenodd" d="M20.378 8.844v4.027l6.119 3.558v-.718l.952.554v1.192c0 .35-.244.491-.544.317L19.97 13.74c-.3-.174-.544-.6-.544-.949V7.815c0-.35.243-.49.544-.316l6.935 4.033c.3.175.544.6.544.95v1.045l-.952-.553v-.572l-6.12-3.558z" fill="#fff"/><path fill-rule="evenodd" clip-rule="evenodd" d="M21.726 6.543c0-.35.244-.491.544-.317l6.936 4.033c.3.175.544.6.544.95v4.976c0 .35-.244.49-.544.316l-6.935-4.033c-.3-.175-.544-.6-.544-.95v-1.17l.951.554v.696l6.12 3.558V11.13l-6.12-3.558v.764l-.952-.554V6.543z" fill="#fff"/></g><defs><filter id="filter0_d_5742_4546" x="3.106" y="-.186" width="12.595" height="24.39" filterUnits="userSpaceOnUse" color-interpolation-filters="sRGB"><feFlood flood-opacity="0" result="BackgroundImageFix"/><feColorMatrix in="SourceAlpha" type="matrix" values="0 0 0 0 0 0 0 0 0 0 0 0 0 0 0 0 0 0 127 0" result="hardAlpha"/><feOffset dx="-.192"/><feGaussianBlur stdDeviation=".36"/><feComposite in2="hardAlpha" operator="out"/><feColorMatrix type="matrix" values="0 0 0 0 0 0 0 0 0 0 0 0 0 0 0 0 0 0 0.2 0"/><feBlend mode="normal" in2="BackgroundImageFix" result="effect1_dropShadow_5742_4546"/><feBlend mode="normal" in="SourceGraphic" in2="effect1_dropShadow_5742_4546" result="shape"/></filter><filter id="filter1_d_5742_4546" x="6.754" y="-1.2" width="32.046" height="26.399" filterUnits="userSpaceOnUse" color-interpolation-filters="sRGB"><feFlood flood-opacity="0" result="BackgroundImageFix"/><feColorMatrix in="SourceAlpha" type="matrix" values="0 0 0 0 0 0 0 0 0 0 0 0 0 0 0 0 0 0 127 0" result="hardAlpha"/><feOffset dx="-.4"/><feGaussianBlur stdDeviation=".6"/><feComposite in2="hardAlpha" operator="out"/><feColorMatrix type="matrix" values="0 0 0 0 0 0 0 0 0 0 0 0 0 0 0 0 0 0 0.2 0"/><feBlend mode="normal" in2="BackgroundImageFix" result="effect1_dropShadow_5742_4546"/><feBlend mode="normal" in="SourceGraphic" in2="effect1_dropShadow_5742_4546" result="shape"/></filter><clipPath id="clip0_5742_4546"><path fill="#fff" d="M0 0h38v24H0z"/></clipPath></defs></svg>