<svg xmlns="http://www.w3.org/2000/svg" role="img" viewBox="0 0 38 24" width="38" height="24" aria-labelledby="pi-tandympayment"><title id="pi-tandympayment">Tandym Payment</title><g clip-path="url(#clip0_3087_108)"><rect x=".5" y=".5" width="37" height="23" rx="2.5" fill="#EEF5F4" stroke="#EEF5F4"/><path d="M2.895 6.154c0-1.565 1.31-2.833 2.928-2.833h2.981c1.617 0 2.928 1.268 2.928 2.833v11.9c0 1.564-1.31 2.833-2.928 2.833H5.823c-1.617 0-2.928-1.269-2.928-2.834V6.155z" fill="#72A89C"/><g filter="url(#filter0_d_3087_108)"><path d="M6.3 5.525c0-1.564 1.311-2.833 2.928-2.833h3.6c1.617 0 2.928 1.269 2.928 2.833v13.157c0 1.565-1.311 2.834-2.928 2.834h-3.6c-1.617 0-2.928-1.269-2.928-2.834V5.525z" fill="#136D58"/></g><g filter="url(#filter1_d_3087_108)"><path d="M35.105 5.15v13.894c0 1.598-1.34 2.895-2.991 2.895H12.967c-1.652 0-2.992-1.297-2.992-2.895v-1.737a2.256 2.256 0 01.491-1.406 6.202 6.202 0 00-.02-7.635 2.257 2.257 0 01-.471-1.38V5.149c0-1.598 1.34-2.895 2.992-2.895h19.147c1.652 0 2.991 1.297 2.991 2.895z" fill="#17413A"/></g><path fill-rule="evenodd" clip-rule="evenodd" d="M20.168 9.508v3.303l5.187 2.918v-.589l.807.454v.978c0 .287-.206.403-.461.26l-5.879-3.308c-.255-.143-.46-.492-.46-.778l-.001-4.082c0-.286.206-.402.461-.26l5.879 3.309c.254.143.46.492.46.778v.858l-.806-.454v-.469l-5.187-2.918z" fill="#fff"/><path fill-rule="evenodd" clip-rule="evenodd" d="M21.311 7.62c0-.286.207-.402.461-.259l5.879 3.308c.255.143.461.492.461.778v4.082c0 .286-.206.402-.46.26l-5.88-3.309c-.254-.143-.46-.492-.46-.778v-.96l.806.454v.57l5.187 2.92v-3.303l-5.187-2.92v.628l-.807-.454V7.62z" fill="#fff"/></g><defs><filter id="filter0_d_3087_108" x="5.552" y="2.102" width="10.637" height="20.004" filterUnits="userSpaceOnUse" color-interpolation-filters="sRGB"><feFlood flood-opacity="0" result="BackgroundImageFix"/><feColorMatrix in="SourceAlpha" type="matrix" values="0 0 0 0 0 0 0 0 0 0 0 0 0 0 0 0 0 0 127 0" result="hardAlpha"/><feOffset dx="-.157"/><feGaussianBlur stdDeviation=".295"/><feComposite in2="hardAlpha" operator="out"/><feColorMatrix type="matrix" values="0 0 0 0 0 0 0 0 0 0 0 0 0 0 0 0 0 0 0.2 0"/><feBlend mode="normal" in2="BackgroundImageFix" result="effect1_dropShadow_3087_108"/><feBlend mode="normal" in="SourceGraphic" in2="effect1_dropShadow_3087_108" result="shape"/></filter><filter id="filter1_d_3087_108" x="8.663" y="1.271" width="27.098" height="21.652" filterUnits="userSpaceOnUse" color-interpolation-filters="sRGB"><feFlood flood-opacity="0" result="BackgroundImageFix"/><feColorMatrix in="SourceAlpha" type="matrix" values="0 0 0 0 0 0 0 0 0 0 0 0 0 0 0 0 0 0 127 0" result="hardAlpha"/><feOffset dx="-.328"/><feGaussianBlur stdDeviation=".492"/><feComposite in2="hardAlpha" operator="out"/><feColorMatrix type="matrix" values="0 0 0 0 0 0 0 0 0 0 0 0 0 0 0 0 0 0 0.2 0"/><feBlend mode="normal" in2="BackgroundImageFix" result="effect1_dropShadow_3087_108"/><feBlend mode="normal" in="SourceGraphic" in2="effect1_dropShadow_3087_108" result="shape"/></filter><clipPath id="clip0_3087_108"><path fill="#fff" d="M0 0h38v24H0z"/></clipPath></defs></svg>