<svg xmlns="http://www.w3.org/2000/svg" role="img" viewBox="0 0 38 24" width="38" height="24" fill="none" aria-labelledby="pi-tandym">
<title id="pi-tandym">Tandym</title>
<rect x="0.5" y="0.5" width="37" height="23" rx="2.5" fill="white" stroke="#DDDDDD"/>
<path fill-rule="evenodd" clip-rule="evenodd" d="M13.2597 7.85345L13.2598 13.1435L21.3559 17.8181L21.3559 16.8749L22.6155 17.6022L22.6156 19.1688C22.6156 19.6278 22.2934 19.8139 21.8958 19.5844L12.72 14.2863C12.3225 14.0568 12.0002 13.4986 12.0002 13.0396L12 6.50279C12 6.04375 12.3223 5.8577 12.7198 6.08723L21.8956 11.3853C22.2931 11.6148 22.6154 12.173 22.6154 12.632L22.6155 14.0063L21.3558 13.279L21.3558 12.5281L13.2597 7.85345Z" fill="#17413A"/>
<path fill-rule="evenodd" clip-rule="evenodd" d="M15.0443 4.83119C15.0442 4.37215 15.3665 4.18609 15.764 4.41562L24.9398 9.71365C25.3373 9.94318 25.6596 10.5014 25.6596 10.9604L25.6598 17.4972C25.6598 17.9562 25.3376 18.1423 24.9401 17.9128L15.7643 12.6147C15.3668 12.3852 15.0445 11.827 15.0445 11.368L15.0444 9.83098L16.304 10.5583L16.3041 11.4719L24.4002 16.1465L24.4 10.8565L16.3039 6.18185L16.304 7.18564L15.0443 6.45837L15.0443 4.83119Z" fill="#17413A"/>
</svg>
