<svg xmlns="http://www.w3.org/2000/svg" role="img" viewBox="0 0 38 24" width="38" height="24" fill="none" aria-labelledby="pi-tandym"><title id="pi-tandym-payment">Tandym Payment</title><rect x=".5" y=".5" width="37" height="23" rx="2.5" fill="#fff" stroke="#DDD"/><path fill-rule="evenodd" clip-rule="evenodd" d="M13.26 7.853v5.29l8.096 4.675v-.943l1.26.727v1.567c0 .459-.323.645-.72.415l-9.176-5.298c-.398-.23-.72-.787-.72-1.246V6.503c0-.46.322-.645.72-.416l9.176 5.298c.397.23.72.788.72 1.247v1.374l-1.26-.727v-.75L13.26 7.852z" fill="#17413A"/><path fill-rule="evenodd" clip-rule="evenodd" d="M15.044 4.831c0-.459.322-.645.72-.415l9.176 5.298c.397.23.72.787.72 1.246v6.537c0 .46-.322.645-.72.416l-9.176-5.298c-.397-.23-.72-.788-.72-1.247V9.831l1.26.727v.914l8.096 4.675v-5.29l-8.096-4.675v1.004l-1.26-.728V4.831z" fill="#17413A"/></svg>
