<?xml version="1.0" encoding="utf-8"?>
<!-- Generator: Adobe Illustrator 18.0.0, SVG Export Plug-In . SVG Version: 6.00 Build 0)  -->
<svg version="1.1" id="Layer_1" xmlns="http://www.w3.org/2000/svg" xmlns:xlink="http://www.w3.org/1999/xlink" x="0px" y="0px"
	 viewBox="0 0 38 24" enable-background="new 0 0 38 24" xml:space="preserve">
<rect x="0" fill="#FFFFFF" width="38" height="24"/>
<g>
	<g>
		<g>
			<g>
				<g>
					<path fill="#4B4440" d="M2.192,9.808C0.981,9.808,0,10.789,0,12c0,1.21,0.981,2.192,2.192,2.192
						c1.21,0,2.192-0.981,2.192-2.192C4.383,10.789,3.402,9.808,2.192,9.808z M2.192,13.885c-1.041,0-1.885-0.844-1.885-1.885
						c0-1.041,0.844-1.885,1.885-1.885c1.041,0,1.885,0.844,1.885,1.885C4.076,13.041,3.233,13.885,2.192,13.885z"/>
				</g>
			</g>
			<g>
				<g>
					<path fill="#4B4440" d="M2.192,10.389c-0.89,0-1.611,0.721-1.611,1.611c0,0.89,0.721,1.611,1.611,1.611
						c0.89,0,1.611-0.721,1.611-1.611C3.802,11.11,3.081,10.389,2.192,10.389z M2.192,13.249c-0.69,0-1.249-0.559-1.249-1.249
						s0.559-1.249,1.249-1.249c0.69,0,1.249,0.559,1.249,1.249S2.882,13.249,2.192,13.249z"/>
				</g>
			</g>
		</g>
		<g>
			<g>
				<path fill="#4B4440" d="M4.996,10.814H5.1v0.447h0.694v0.097H5.1v0.869c0,0.372,0.118,0.565,0.418,0.565
					c0.107,0,0.204-0.043,0.261-0.086l0.043,0.082c-0.072,0.05-0.186,0.1-0.322,0.1c-0.358,0-0.504-0.218-0.504-0.629V10.814z"/>
			</g>
			<g>
				<path fill="#4B4440" d="M6.251,11.375c0.154-0.097,0.311-0.147,0.494-0.147c0.433,0,0.579,0.236,0.579,0.637v1.005h-0.1v-0.279
					c-0.107,0.147-0.279,0.297-0.597,0.297c-0.3,0-0.501-0.182-0.501-0.461c0-0.322,0.265-0.49,0.612-0.49
					c0.132,0,0.336,0.025,0.486,0.132c0-0.447-0.018-0.744-0.49-0.744c-0.182,0-0.297,0.047-0.451,0.136L6.251,11.375z
					 M7.224,12.487v-0.322c-0.136-0.097-0.297-0.143-0.479-0.143c-0.25,0-0.511,0.118-0.511,0.397c0,0.236,0.182,0.372,0.415,0.372
					C6.97,12.791,7.12,12.623,7.224,12.487z"/>
			</g>
			<g>
				<path fill="#4B4440" d="M7.897,11.261H8v0.236c0.129-0.154,0.379-0.268,0.619-0.268c0.479,0,0.765,0.336,0.765,0.812
					c0,0.49-0.325,0.862-0.819,0.862c-0.218,0-0.418-0.05-0.565-0.161v0.844H7.897V11.261z M8,11.597v1.037
					c0.186,0.132,0.376,0.172,0.561,0.172c0.426,0,0.715-0.311,0.715-0.755c0-0.433-0.247-0.726-0.68-0.726
					C8.344,11.325,8.104,11.461,8,11.597z"/>
			</g>
		</g>
	</g>
	<g>
		<rect x="10.719" y="9.607" fill="#4B4440" width="0.053" height="4.787"/>
	</g>
	<g>
		<g>
			<path fill="#4B4440" d="M35.73,14.375H14.441c-1.309,0-2.375-1.065-2.375-2.375s1.065-2.375,2.375-2.375H35.73
				C37.003,9.625,38,10.668,38,12S37.003,14.375,35.73,14.375z M14.441,9.836c-1.193,0-2.164,0.971-2.164,2.164
				s0.971,2.164,2.164,2.164H35.73c1.174,0,2.059-0.93,2.059-2.164s-0.885-2.164-2.059-2.164H14.441z"/>
		</g>
		<g>
			<g>
				<rect x="32.671" y="10.388" fill="#0B73BA" width="3.203" height="0.887"/>
			</g>
			<g>
				<polygon fill="#FAE816" points="33.971,11.968 33.971,12.47 33.255,12.47 33.255,11.53 33.971,11.53 33.971,11.935 
					34.487,11.53 35.444,11.53 34.906,11.949 35.485,12.47 34.456,12.47 				"/>
			</g>
			<g>
				<path fill="#0B73BA" d="M35.874,11.385h-3.203v1.285h3.203V11.385z M33.971,11.968v0.502h-0.716v-0.94h0.716v0.405l0.516-0.405
					h0.957l-0.538,0.419l0.579,0.521h-1.029L33.971,11.968z"/>
			</g>
			<g>
				<rect x="32.671" y="12.78" fill="#0B73BA" width="3.203" height="0.831"/>
			</g>
		</g>
		<g>
			<g>
				<polygon fill-rule="evenodd" clip-rule="evenodd" fill="#FAB51D" points="16.593,13.494 16.67,13.492 16.746,13.486 
					16.821,13.477 16.895,13.464 16.967,13.447 17.038,13.427 17.108,13.403 17.176,13.376 17.242,13.346 17.306,13.313 
					17.369,13.277 17.43,13.238 17.488,13.197 17.545,13.152 17.599,13.106 17.651,13.056 17.701,13.004 17.748,12.949 
					17.792,12.893 17.834,12.834 17.873,12.773 17.909,12.711 17.942,12.646 17.972,12.58 17.999,12.512 18.023,12.442 
					18.043,12.371 18.06,12.299 18.073,12.225 18.082,12.15 18.088,12.074 18.089,11.997 18.088,11.921 18.082,11.845 18.073,11.77 
					18.06,11.697 18.043,11.625 18.023,11.555 17.999,11.485 17.972,11.418 17.942,11.352 17.909,11.287 17.873,11.225 
					17.834,11.164 17.792,11.106 17.748,11.05 17.701,10.995 17.651,10.944 17.599,10.894 17.545,10.847 17.488,10.803 
					17.43,10.761 17.369,10.722 17.306,10.686 17.242,10.654 17.176,10.623 17.108,10.597 17.038,10.573 16.967,10.553 
					16.895,10.536 16.821,10.523 16.746,10.514 16.67,10.508 16.593,10.506 16.516,10.508 16.44,10.514 16.366,10.523 
					16.292,10.536 16.22,10.553 16.149,10.573 16.08,10.597 16.012,10.623 15.946,10.654 15.882,10.686 15.82,10.722 15.759,10.761 
					15.701,10.803 15.644,10.847 15.59,10.894 15.538,10.944 15.489,10.995 15.442,11.05 15.398,11.106 15.356,11.164 
					15.318,11.225 15.282,11.287 15.249,11.352 15.219,11.418 15.192,11.485 15.169,11.555 15.149,11.625 15.132,11.697 
					15.119,11.77 15.109,11.845 15.104,11.921 15.102,11.997 15.104,12.074 15.109,12.15 15.119,12.225 15.132,12.299 
					15.149,12.371 15.169,12.442 15.192,12.512 15.219,12.58 15.249,12.646 15.282,12.711 15.318,12.773 15.356,12.834 
					15.398,12.893 15.442,12.949 15.489,13.004 15.538,13.056 15.59,13.106 15.644,13.152 15.701,13.197 15.759,13.238 
					15.82,13.277 15.882,13.313 15.946,13.346 16.012,13.376 16.08,13.403 16.149,13.427 16.22,13.447 16.292,13.464 16.366,13.477 
					16.44,13.486 16.516,13.492 16.593,13.494 16.593,13.494 				"/>
			</g>
			<g>
				<polygon fill-rule="evenodd" clip-rule="evenodd" fill="#E40520" points="14.594,13.494 14.671,13.492 14.747,13.486 
					14.822,13.477 14.895,13.464 14.967,13.447 15.039,13.427 15.108,13.403 15.175,13.376 15.241,13.346 15.306,13.313 
					15.368,13.277 15.428,13.238 15.487,13.197 15.543,13.152 15.597,13.106 15.649,13.056 15.699,13.004 15.745,12.949 
					15.789,12.893 15.831,12.834 15.87,12.773 15.906,12.711 15.939,12.646 15.968,12.58 15.995,12.512 16.018,12.442 
					16.039,12.371 16.055,12.299 16.069,12.225 16.078,12.15 16.084,12.074 16.086,11.997 16.084,11.921 16.078,11.845 
					16.069,11.77 16.055,11.697 16.039,11.625 16.018,11.555 15.995,11.485 15.968,11.418 15.939,11.352 15.906,11.287 
					15.87,11.225 15.831,11.164 15.789,11.106 15.745,11.05 15.699,10.995 15.649,10.944 15.597,10.894 15.543,10.847 
					15.487,10.803 15.428,10.761 15.368,10.722 15.306,10.686 15.241,10.654 15.175,10.623 15.108,10.597 15.039,10.573 
					14.967,10.553 14.895,10.536 14.822,10.523 14.747,10.514 14.671,10.508 14.594,10.506 14.517,10.508 14.441,10.514 
					14.366,10.523 14.293,10.536 14.22,10.553 14.149,10.573 14.08,10.597 14.012,10.623 13.945,10.654 13.881,10.686 
					13.818,10.722 13.757,10.761 13.699,10.803 13.642,10.847 13.588,10.894 13.536,10.944 13.486,10.995 13.439,11.05 
					13.395,11.106 13.353,11.164 13.314,11.225 13.278,11.287 13.245,11.352 13.215,11.418 13.188,11.485 13.165,11.555 
					13.145,11.625 13.128,11.697 13.115,11.77 13.105,11.845 13.1,11.921 13.098,11.997 13.1,12.074 13.105,12.15 13.115,12.225 
					13.128,12.299 13.145,12.371 13.165,12.442 13.188,12.512 13.215,12.58 13.245,12.646 13.278,12.711 13.314,12.773 
					13.353,12.834 13.395,12.893 13.439,12.949 13.486,13.004 13.536,13.056 13.588,13.106 13.642,13.152 13.699,13.197 
					13.757,13.238 13.818,13.277 13.881,13.313 13.945,13.346 14.012,13.376 14.08,13.403 14.149,13.427 14.22,13.447 
					14.293,13.464 14.366,13.477 14.441,13.486 14.517,13.492 14.594,13.494 14.594,13.494 				"/>
			</g>
			<g>
				<polygon fill-rule="evenodd" clip-rule="evenodd" fill="#FAB51D" points="15.419,11.079 16.213,11.079 16.213,10.998 
					15.487,10.998 15.419,11.079 15.419,11.079 				"/>
			</g>
			<g>
				<polygon fill-rule="evenodd" clip-rule="evenodd" fill="#FAB51D" points="15.3,11.259 16.213,11.259 16.213,11.178 
					15.348,11.178 15.3,11.259 15.3,11.259 				"/>
			</g>
			<g>
				<polygon fill-rule="evenodd" clip-rule="evenodd" fill="#FAB51D" points="15.211,11.439 16.213,11.439 16.213,11.358 
					15.246,11.358 15.211,11.439 15.211,11.439 				"/>
			</g>
			<g>
				<polygon fill-rule="evenodd" clip-rule="evenodd" fill="#FAB51D" points="15.15,11.62 16.213,11.62 16.213,11.539 
					15.175,11.539 15.15,11.62 15.15,11.62 				"/>
			</g>
			<g>
				<polygon fill-rule="evenodd" clip-rule="evenodd" fill="#FAB51D" points="15.185,12.492 16.215,12.492 16.215,12.41 
					15.16,12.41 15.185,12.492 15.185,12.492 				"/>
			</g>
			<g>
				<polygon fill-rule="evenodd" clip-rule="evenodd" fill="#FAB51D" points="15.261,12.672 16.215,12.672 16.215,12.591 
					15.224,12.591 15.261,12.672 15.261,12.672 				"/>
			</g>
			<g>
				<polygon fill-rule="evenodd" clip-rule="evenodd" fill="#FAB51D" points="15.369,12.852 16.215,12.852 16.215,12.771 
					15.318,12.771 15.369,12.852 15.369,12.852 				"/>
			</g>
			<g>
				<polygon fill-rule="evenodd" clip-rule="evenodd" fill="#FAB51D" points="15.515,13.032 16.215,13.032 16.215,12.951 
					15.445,12.951 15.515,13.032 15.515,13.032 				"/>
			</g>
			<g>
				<polygon fill-rule="evenodd" clip-rule="evenodd" fill="#FAB51D" points="15.115,11.8 16.213,11.8 16.213,11.718 15.13,11.718 
					15.115,11.8 15.115,11.8 				"/>
			</g>
			<g>
				<polygon fill-rule="evenodd" clip-rule="evenodd" fill="#FAB51D" points="15.784,12.312 16.202,12.312 16.202,12.231 
					15.799,12.231 15.784,12.312 15.784,12.312 				"/>
			</g>
			<g>
				<polygon fill-rule="evenodd" clip-rule="evenodd" fill="#FAB51D" points="15.817,12.132 16.202,12.132 16.202,12.05 
					15.832,12.05 15.817,12.132 15.817,12.132 				"/>
			</g>
			<g>
				<polygon fill-rule="evenodd" clip-rule="evenodd" fill="#FAB51D" points="15.087,12.05 15.195,12.05 15.195,12.132 
					15.092,12.132 15.087,12.05 15.087,12.05 				"/>
			</g>
			<g>
				<polygon fill-rule="evenodd" clip-rule="evenodd" fill="#FFFFFF" points="14.883,11.952 14.876,11.951 14.87,11.95 
					14.863,11.949 14.856,11.948 14.85,11.947 14.844,11.946 14.837,11.945 14.83,11.944 14.823,11.943 14.815,11.943 
					14.806,11.942 14.796,11.942 14.786,11.942 14.774,11.942 14.761,11.943 14.746,11.944 14.737,11.946 14.727,11.947 
					14.718,11.95 14.711,11.953 14.704,11.957 14.697,11.961 14.692,11.966 14.687,11.97 14.685,11.976 14.682,11.982 
					14.681,11.988 14.681,11.994 14.682,12 14.685,12.007 14.689,12.013 14.694,12.02 14.704,12.029 14.716,12.037 14.73,12.043 
					14.745,12.049 14.761,12.054 14.778,12.06 14.795,12.066 14.811,12.072 14.826,12.081 14.84,12.091 14.852,12.104 14.863,12.12 
					14.871,12.139 14.876,12.161 14.878,12.188 14.876,12.22 14.873,12.244 14.867,12.265 14.858,12.284 14.849,12.301 
					14.837,12.315 14.824,12.328 14.81,12.339 14.794,12.348 14.778,12.356 14.761,12.362 14.744,12.367 14.727,12.371 
					14.709,12.375 14.692,12.376 14.676,12.377 14.661,12.378 14.639,12.378 14.619,12.377 14.601,12.377 14.584,12.377 
					14.569,12.376 14.556,12.375 14.544,12.374 14.532,12.373 14.521,12.371 14.512,12.37 14.502,12.368 14.493,12.366 
					14.485,12.364 14.477,12.36 14.469,12.358 14.46,12.354 14.483,12.243 14.488,12.244 14.493,12.246 14.5,12.248 14.509,12.25 
					14.518,12.252 14.528,12.254 14.539,12.256 14.551,12.258 14.564,12.26 14.577,12.262 14.59,12.264 14.604,12.265 
					14.619,12.266 14.634,12.266 14.648,12.266 14.663,12.266 14.678,12.263 14.689,12.259 14.698,12.253 14.705,12.246 
					14.71,12.239 14.714,12.231 14.717,12.223 14.718,12.215 14.72,12.201 14.715,12.188 14.707,12.178 14.694,12.17 14.679,12.162 
					14.661,12.155 14.642,12.147 14.622,12.14 14.602,12.13 14.583,12.12 14.565,12.107 14.549,12.091 14.536,12.072 14.527,12.049 
					14.523,12.022 14.523,11.99 14.526,11.97 14.529,11.951 14.534,11.934 14.54,11.918 14.549,11.903 14.558,11.89 14.568,11.877 
					14.581,11.866 14.595,11.856 14.611,11.848 14.63,11.841 14.65,11.835 14.673,11.831 14.697,11.827 14.724,11.825 
					14.754,11.825 14.773,11.825 14.79,11.825 14.805,11.826 14.82,11.826 14.832,11.827 14.844,11.828 14.854,11.829 14.863,11.83 
					14.871,11.831 14.878,11.833 14.885,11.834 14.891,11.835 14.896,11.836 14.901,11.836 14.905,11.838 14.909,11.838 
					14.883,11.952 14.883,11.952 				"/>
			</g>
			<g>
				<path fill="#FFFFFF" d="M14.661,12.389l-0.118-0.004l-0.042-0.006l-0.053-0.018l0.027-0.132l0.104,0.022l0.056,0.004l0.029,0
					l0.023-0.006l0.006-0.004l0.009-0.012l0.004-0.007l0.003-0.013l0.001-0.011l-0.003-0.008l-0.006-0.007l-0.012-0.008
					l-0.014-0.007l-0.077-0.032l-0.02-0.011l-0.019-0.014l-0.017-0.017l-0.014-0.021l-0.01-0.025l-0.005-0.03l0-0.034l0.006-0.04
					l0.005-0.018l0.006-0.017l0.009-0.016l0.01-0.014l0.011-0.013l0.014-0.012l0.015-0.011l0.017-0.009l0.019-0.008l0.022-0.006
					l0.049-0.008l0.028-0.002l0.05-0.001l0.099,0.006l0.038,0.007l0.013,0.001l-0.031,0.136l-0.107-0.01l-0.057,0.005l-0.025,0.012
					l-0.006,0.006l-0.005,0.013l0.001,0.008l0.005,0.01l0.004,0.006l0.009,0.008l0.01,0.006l0.027,0.011l0.049,0.017l0.016,0.007
					l0.016,0.009l0.015,0.011l0.014,0.014l0.012,0.017l0.009,0.021l0.006,0.024l0.002,0.029l-0.002,0.034l-0.003,0.025l-0.007,0.022
					l-0.009,0.02l-0.01,0.018l-0.013,0.016l-0.014,0.014l-0.015,0.012l-0.017,0.01l-0.035,0.015l-0.036,0.01l-0.018,0.003
					L14.661,12.389z M14.619,12.366l0.042,0.001l0.048-0.003l0.033-0.007l0.016-0.005l0.031-0.014l0.015-0.009l0.013-0.01
					l0.012-0.012l0.011-0.014l0.009-0.015l0.008-0.018l0.006-0.019l0.003-0.022l0.002-0.031l-0.002-0.025l-0.005-0.021l-0.007-0.018
					l-0.009-0.013l-0.012-0.011l-0.013-0.009l-0.014-0.008l-0.047-0.017l-0.032-0.011l-0.015-0.007l-0.013-0.008l-0.012-0.011
					l-0.011-0.015l-0.005-0.017l0-0.009l0.002-0.011l0.008-0.014l0.01-0.009l0.016-0.01l0.017-0.007l0.021-0.003l0.052-0.003
					l0.078,0.009l0.021-0.092l-0.123-0.011l-0.048,0l-0.026,0.002l-0.046,0.008l-0.02,0.005l-0.017,0.007L14.6,11.867l-0.013,0.009
					l-0.012,0.01l-0.017,0.024l-0.007,0.014l-0.01,0.031l-0.006,0.037l0,0.031l0.004,0.025l0.009,0.02l0.012,0.017l0.015,0.014
					l0.016,0.012l0.037,0.019l0.057,0.022l0.016,0.008l0.016,0.011l0.011,0.014l0.005,0.015l-0.003,0.026l-0.003,0.009l-0.01,0.018
					l-0.01,0.011l-0.009,0.006l-0.014,0.005l-0.016,0.003l-0.031,0.001l-0.058-0.004l-0.084-0.016l-0.018,0.09l0.032,0.01
					l0.079,0.008L14.619,12.366z"/>
			</g>
			<g>
				<polygon fill-rule="evenodd" clip-rule="evenodd" fill="#FFFFFF" points="15.003,11.713 15.143,11.713 15.122,11.835 
					15.206,11.835 15.188,11.949 15.099,11.947 15.051,12.228 15.051,12.238 15.053,12.247 15.058,12.253 15.065,12.259 
					15.074,12.262 15.084,12.265 15.095,12.267 15.107,12.268 15.118,12.268 15.128,12.267 15.137,12.265 15.145,12.263 
					15.152,12.261 15.156,12.26 15.159,12.259 15.16,12.258 15.143,12.352 15.139,12.354 15.136,12.356 15.132,12.358 15.129,12.36 
					15.125,12.362 15.121,12.364 15.116,12.365 15.112,12.366 15.107,12.368 15.102,12.369 15.096,12.37 15.09,12.371 
					15.083,12.372 15.076,12.373 15.068,12.374 15.059,12.375 15.021,12.375 15.001,12.374 14.983,12.371 14.967,12.369 
					14.953,12.365 14.942,12.36 14.932,12.355 14.923,12.349 14.917,12.343 14.912,12.336 14.908,12.327 14.906,12.319 
					14.904,12.309 14.904,12.298 14.904,12.287 14.905,12.276 14.907,12.263 15.003,11.713 15.003,11.713 				"/>
			</g>
			<g>
				<path fill="#FFFFFF" d="M15.06,12.387h-0.039l-0.039-0.004l-0.031-0.006l-0.024-0.011l-0.01-0.007l-0.014-0.016l-0.005-0.011
					l-0.005-0.02l-0.001-0.024l0.003-0.026l0.097-0.56h0.163l-0.021,0.122h0.084l-0.022,0.137l-0.089-0.003l-0.047,0.279
					l0.001,0.005l0.007,0.007l0.017,0.005l0.021,0.002l0.027-0.003l0.022-0.006l0.02-0.009l-0.005,0.021l-0.018,0.098l-0.032,0.017
					L15.06,12.387z M15.012,11.725l-0.097,0.564l0.001,0.02l0.004,0.016l0.003,0.007l0.009,0.01l0.016,0.009l0.01,0.004l0.027,0.005
					l0.037,0.003l0.086-0.008l0.024-0.011l0.013-0.07l-0.027,0.004l-0.012,0l-0.025-0.003l-0.024-0.009l-0.007-0.006l-0.009-0.012
					l-0.003-0.012l0.001-0.01l0.05-0.292l0.089,0.003l0.015-0.091h-0.084l0.021-0.122H15.012z"/>
			</g>
			<g>
				<polygon fill-rule="evenodd" clip-rule="evenodd" fill="#FFFFFF" points="15.318,12.14 15.316,12.148 15.315,12.157 
					15.317,12.167 15.318,12.176 15.322,12.186 15.326,12.195 15.332,12.204 15.338,12.213 15.345,12.222 15.352,12.229 
					15.36,12.236 15.369,12.243 15.379,12.248 15.389,12.253 15.399,12.256 15.409,12.258 15.422,12.26 15.435,12.262 
					15.448,12.263 15.461,12.264 15.474,12.265 15.487,12.265 15.501,12.264 15.514,12.263 15.528,12.261 15.541,12.259 
					15.555,12.256 15.569,12.251 15.583,12.246 15.598,12.24 15.612,12.231 15.627,12.223 15.606,12.347 15.598,12.351 
					15.59,12.355 15.582,12.358 15.575,12.361 15.567,12.364 15.559,12.366 15.551,12.368 15.542,12.37 15.533,12.371 
					15.523,12.372 15.513,12.373 15.501,12.374 15.488,12.375 15.474,12.375 15.458,12.375 15.442,12.375 15.417,12.375 
					15.392,12.372 15.367,12.369 15.342,12.362 15.317,12.355 15.294,12.345 15.271,12.333 15.25,12.318 15.23,12.301 15.212,12.28 
					15.198,12.257 15.186,12.231 15.178,12.201 15.172,12.167 15.171,12.13 15.173,12.088 15.175,12.072 15.178,12.054 
					15.182,12.034 15.188,12.013 15.195,11.991 15.204,11.97 15.216,11.947 15.23,11.926 15.246,11.906 15.266,11.887 15.288,11.87 
					15.313,11.855 15.342,11.842 15.375,11.833 15.411,11.827 15.452,11.825 15.472,11.825 15.492,11.827 15.513,11.831 
					15.534,11.836 15.554,11.843 15.574,11.853 15.592,11.864 15.608,11.879 15.623,11.896 15.636,11.916 15.646,11.939 
					15.653,11.966 15.657,11.996 15.658,12.03 15.654,12.069 15.647,12.111 15.644,12.142 15.276,12.142 15.3,12.042 15.521,12.042 
					15.521,12.03 15.521,12.018 15.52,12.007 15.518,11.997 15.515,11.987 15.511,11.979 15.506,11.971 15.501,11.964 
					15.495,11.958 15.488,11.953 15.481,11.948 15.473,11.944 15.465,11.941 15.457,11.939 15.449,11.938 15.439,11.937 
					15.43,11.937 15.421,11.939 15.412,11.941 15.404,11.944 15.395,11.948 15.388,11.952 15.38,11.958 15.374,11.964 
					15.367,11.971 15.361,11.979 15.355,11.987 15.351,11.995 15.346,12.004 15.343,12.015 15.34,12.024 15.338,12.035 
					15.318,12.14 15.318,12.14 				"/>
			</g>
			<g>
				<path fill="#FFFFFF" d="M15.459,12.387l-0.042-0.001l-0.052-0.006l-0.026-0.006l-0.025-0.008l-0.024-0.01l-0.024-0.013
					l-0.022-0.015l-0.021-0.018l-0.019-0.022l-0.015-0.024l-0.012-0.028l-0.009-0.031l-0.006-0.035l-0.002-0.039l0.004-0.059
					l0.007-0.039l0.006-0.022l0.008-0.022l0.009-0.022l0.012-0.023l0.014-0.022l0.016-0.021l0.022-0.02l0.022-0.018l0.027-0.016
					l0.031-0.013l0.034-0.01l0.037-0.006l0.042-0.002l0.021,0l0.021,0.002l0.043,0.009l0.021,0.008l0.021,0.01l0.02,0.013
					l0.018,0.015l0.016,0.018l0.014,0.022l0.011,0.025l0.007,0.028l0.005,0.031l0.001,0.036l-0.004,0.039l-0.008,0.043l-0.004,0.04
					h-0.327l0,0.005l0.003,0.016l0.012,0.025l0.012,0.015l0.015,0.014l0.016,0.01l0.018,0.007l0.046,0.006l0.025,0.002l0.039-0.002
					l0.039-0.007l0.04-0.016l0.048-0.028l-0.025,0.154l-0.054,0.023l-0.028,0.005L15.459,12.387z M15.452,11.836l-0.04,0.002
					l-0.035,0.006l-0.032,0.009l-0.028,0.012l-0.024,0.014l-0.021,0.016l-0.02,0.018l-0.015,0.019l-0.013,0.02l-0.011,0.021
					l-0.009,0.021l-0.013,0.041l-0.009,0.053l-0.002,0.04l0.001,0.036l0.005,0.032l0.008,0.028l0.011,0.025l0.014,0.021l0.016,0.02
					l0.018,0.016l0.02,0.014l0.022,0.012l0.022,0.009l0.048,0.013l0.049,0.006l0.04,0l0.091-0.007l0.038-0.013l0.009-0.005
					l0.015-0.095l-0.008,0.005l-0.045,0.017l-0.043,0.008l-0.042,0.002l-0.066-0.006l-0.023-0.006l-0.021-0.011l-0.01-0.007
					l-0.017-0.016l-0.014-0.019l-0.011-0.02l-0.004-0.011l-0.004-0.022l0-0.005h-0.042l0.028-0.122h0.036l0.002-0.009l0.007-0.022
					l0.01-0.019l0.013-0.018l0.014-0.014l0.017-0.012l0.02-0.008l0.02-0.004l0.01-0.001l0.029,0.005l0.019,0.008l0.015,0.011
					l0.013,0.015l0.006,0.008l0.008,0.021l0.002,0.011l0.002,0.025l-0.001,0.024h-0.186l-0.015,0.076h0.303l0.002-0.02l0.008-0.043
					l0.003-0.037l-0.001-0.033l-0.004-0.029l-0.007-0.025l-0.01-0.022l-0.012-0.019L15.6,11.886l-0.015-0.013l-0.017-0.011
					l-0.018-0.009l-0.019-0.007l-0.04-0.008l-0.02-0.002L15.452,11.836z M15.291,12.13h0.017l0.015-0.076h-0.014L15.291,12.13z
					 M15.35,12.031h0.16l0-0.002l-0.001-0.022l-0.005-0.017l-0.003-0.008l-0.014-0.017l-0.019-0.012l-0.013-0.004l-0.017-0.002
					l-0.023,0.004l-0.016,0.006l-0.018,0.014l-0.011,0.013l-0.014,0.024L15.35,12.031z"/>
			</g>
			<g>
				<polygon fill-rule="evenodd" clip-rule="evenodd" fill="#FFFFFF" points="16.519,11.866 16.513,11.862 16.506,11.859 
					16.499,11.856 16.492,11.852 16.484,11.849 16.476,11.846 16.467,11.843 16.458,11.84 16.448,11.838 16.438,11.835 
					16.428,11.834 16.417,11.832 16.406,11.831 16.395,11.83 16.382,11.83 16.369,11.83 16.357,11.83 16.344,11.831 16.331,11.832 
					16.316,11.835 16.302,11.839 16.288,11.844 16.274,11.851 16.26,11.86 16.246,11.872 16.233,11.885 16.221,11.901 16.209,11.92 
					16.198,11.942 16.187,11.967 16.177,11.995 16.169,12.027 16.166,12.045 16.164,12.063 16.163,12.081 16.164,12.098 
					16.165,12.115 16.168,12.131 16.173,12.146 16.179,12.161 16.186,12.175 16.195,12.188 16.206,12.2 16.218,12.21 16.232,12.219 
					16.247,12.227 16.264,12.233 16.284,12.238 16.29,12.24 16.298,12.241 16.307,12.242 16.317,12.243 16.328,12.244 16.34,12.244 
					16.352,12.244 16.365,12.243 16.378,12.242 16.391,12.239 16.404,12.236 16.416,12.231 16.429,12.226 16.44,12.219 
					16.451,12.211 16.461,12.202 16.438,12.337 16.435,12.339 16.432,12.342 16.428,12.346 16.424,12.349 16.418,12.353 
					16.411,12.356 16.403,12.36 16.394,12.363 16.382,12.366 16.369,12.369 16.354,12.371 16.337,12.373 16.317,12.374 
					16.294,12.375 16.269,12.374 16.24,12.373 16.217,12.37 16.194,12.365 16.17,12.358 16.147,12.347 16.125,12.335 16.104,12.32 
					16.084,12.303 16.066,12.282 16.049,12.26 16.035,12.234 16.023,12.206 16.014,12.176 16.008,12.142 16.005,12.106 
					16.006,12.067 16.012,12.025 16.016,12.004 16.02,11.984 16.026,11.964 16.031,11.946 16.036,11.928 16.043,11.91 
					16.049,11.894 16.056,11.878 16.064,11.862 16.071,11.848 16.08,11.834 16.089,11.821 16.098,11.808 16.108,11.796 
					16.118,11.785 16.129,11.774 16.141,11.764 16.152,11.755 16.164,11.746 16.177,11.738 16.191,11.73 16.204,11.724 
					16.218,11.718 16.233,11.712 16.248,11.707 16.264,11.703 16.28,11.7 16.297,11.697 16.314,11.694 16.333,11.692 16.35,11.691 
					16.369,11.691 16.386,11.691 16.402,11.692 16.417,11.694 16.432,11.696 16.446,11.698 16.459,11.701 16.473,11.703 
					16.485,11.706 16.496,11.709 16.506,11.712 16.516,11.715 16.524,11.718 16.531,11.721 16.537,11.723 16.542,11.725 
					16.545,11.726 16.519,11.866 16.519,11.866 				"/>
			</g>
			<g>
				<path fill="#FFFFFF" d="M16.294,12.386l-0.026-0.001l-0.052-0.004l-0.025-0.005l-0.025-0.008l-0.024-0.011l-0.023-0.012
					l-0.022-0.016l-0.021-0.018l-0.019-0.021l-0.017-0.024l-0.015-0.027l-0.013-0.029l-0.01-0.032l-0.006-0.035l-0.002-0.037
					l0.001-0.04L16,12.024l0.019-0.081l0.019-0.053l0.023-0.047l0.027-0.041l0.032-0.035l0.036-0.029l0.028-0.016l0.044-0.019
					l0.032-0.009l0.051-0.009l0.037-0.003l0.019-0.001l0.049,0.003l0.057,0.01l0.083,0.026l-0.03,0.165l-0.056-0.026l-0.036-0.01
					l-0.043-0.005l-0.049,0.001l-0.027,0.004l-0.013,0.004l-0.027,0.012l-0.013,0.009l-0.012,0.01l-0.012,0.012l-0.012,0.015
					l-0.011,0.018l-0.01,0.021l-0.01,0.024l-0.009,0.028l-0.011,0.049l-0.003,0.034l0.002,0.033l0.003,0.015l0.01,0.028l0.015,0.024
					l0.01,0.01l0.011,0.01l0.013,0.008l0.014,0.007l0.016,0.006l0.049,0.009l0.011,0.001l0.047-0.002l0.024-0.006l0.012-0.004
					l0.022-0.011l0.018-0.016l0.019,0.01l-0.023,0.139l-0.024,0.019l-0.017,0.008l-0.022,0.007l-0.03,0.005l-0.038,0.003
					L16.294,12.386z M16.369,11.702l-0.036,0.001l-0.051,0.007l-0.031,0.007l-0.043,0.016l-0.026,0.014l-0.024,0.016l-0.022,0.019
					l-0.03,0.033l-0.025,0.038l-0.022,0.044l-0.018,0.051l-0.019,0.078l-0.005,0.041l-0.001,0.038l0.002,0.035l0.006,0.033
					l0.009,0.029l0.012,0.027l0.014,0.024l0.016,0.022l0.018,0.019l0.019,0.017l0.02,0.014l0.021,0.011l0.022,0.01l0.022,0.007
					l0.022,0.004l0.022,0.002l0.053,0.002l0.059-0.003l0.027-0.005l0.033-0.012l0.015-0.012l0.017-0.101l-0.024,0.012l-0.027,0.008
					l-0.028,0.004l-0.038,0.001l-0.047-0.006l-0.02-0.005l-0.018-0.007l-0.016-0.008l-0.015-0.01l-0.014-0.011l-0.012-0.013
					l-0.01-0.014l-0.008-0.015l-0.011-0.032l-0.003-0.018l-0.002-0.036l0.001-0.018l0.006-0.037l0.008-0.033l0.01-0.029l0.011-0.026
					l0.011-0.023l0.013-0.02l0.013-0.017l0.014-0.014l0.014-0.012l0.015-0.01l0.03-0.014l0.015-0.004l0.029-0.004l0.052-0.001
					l0.056,0.008l0.045,0.015l0.015,0.007l0.021-0.116l-0.062-0.019l-0.069-0.011L16.369,11.702z"/>
			</g>
			<g>
				<polygon fill-rule="evenodd" clip-rule="evenodd" fill="#FFFFFF" points="17.76,12.375 17.621,12.375 17.631,12.32 
					17.631,12.314 17.623,12.324 17.614,12.333 17.605,12.341 17.596,12.348 17.587,12.355 17.578,12.36 17.569,12.365 17.56,12.37 
					17.55,12.373 17.54,12.376 17.531,12.378 17.521,12.38 17.511,12.381 17.501,12.382 17.491,12.383 17.481,12.383 17.455,12.381 
					17.431,12.375 17.408,12.366 17.388,12.355 17.37,12.341 17.354,12.323 17.34,12.304 17.328,12.283 17.318,12.261 
					17.309,12.237 17.304,12.212 17.3,12.187 17.299,12.161 17.299,12.135 17.302,12.109 17.306,12.083 17.314,12.054 
					17.323,12.025 17.333,12 17.346,11.975 17.359,11.953 17.374,11.933 17.39,11.914 17.406,11.898 17.424,11.883 17.443,11.871 
					17.461,11.86 17.481,11.851 17.501,11.844 17.521,11.839 17.541,11.836 17.562,11.835 17.576,11.836 17.591,11.838 
					17.604,11.84 17.616,11.843 17.627,11.847 17.638,11.852 17.648,11.857 17.657,11.863 17.665,11.869 17.672,11.876 
					17.679,11.883 17.685,11.889 17.69,11.895 17.694,11.902 17.699,11.908 17.702,11.914 17.702,11.914 17.737,11.716 
					17.874,11.716 17.76,12.375 17.76,12.375 				"/>
			</g>
			<g>
				<path fill="#FFFFFF" d="M17.491,12.394h-0.01l-0.027-0.002l-0.026-0.006l-0.024-0.009l-0.022-0.012l-0.02-0.016l-0.017-0.018
					l-0.015-0.02l-0.013-0.022l-0.01-0.024l-0.009-0.025l-0.006-0.025l-0.004-0.027l-0.002-0.027l0-0.027l0.003-0.027l0.004-0.026
					l0.008-0.031l0.009-0.029l0.011-0.026l0.013-0.025l0.014-0.023l0.016-0.021l0.016-0.019l0.017-0.017l0.018-0.015l0.039-0.025
					l0.021-0.009l0.021-0.007l0.021-0.005l0.021-0.003l0.022-0.001l0.015,0l0.029,0.004l0.025,0.008l0.022,0.011l0.018,0.013
					l0.024,0.024l0.032-0.179h0.16l-0.002,0.013l-0.115,0.669h-0.163l0.007-0.038l-0.01,0.009l-0.019,0.013l-0.02,0.01l-0.031,0.009
					L17.491,12.394z M17.562,11.847l-0.02,0.001l-0.019,0.003l-0.019,0.005l-0.019,0.007l-0.019,0.008l-0.036,0.023l-0.017,0.014
					l-0.016,0.016l-0.015,0.018l-0.014,0.02l-0.013,0.022l-0.012,0.024l-0.01,0.025l-0.009,0.028l-0.007,0.029l-0.004,0.025
					l-0.003,0.025l0,0.025l0.001,0.025l0.004,0.025l0.005,0.023l0.008,0.023l0.01,0.022l0.012,0.02l0.013,0.017l0.015,0.016
					l0.017,0.013l0.019,0.01l0.021,0.008l0.023,0.005l0.025,0.002l0.047-0.004l0.027-0.008l0.025-0.014l0.025-0.02l0.016-0.018
					l0.02,0.007v0.005l-0.008,0.044h0.116l0.11-0.636h-0.114l-0.033,0.189l-0.021,0.003l-0.016-0.024l-0.026-0.024l-0.027-0.014
					l-0.022-0.007l-0.026-0.004L17.562,11.847z"/>
			</g>
			<g>
				<polygon fill-rule="evenodd" clip-rule="evenodd" fill="#FAB51D" points="17.532,12.253 17.546,12.252 17.559,12.249 
					17.571,12.246 17.583,12.24 17.593,12.234 17.603,12.227 17.613,12.218 17.621,12.209 17.629,12.199 17.636,12.188 
					17.643,12.176 17.648,12.164 17.653,12.151 17.657,12.138 17.661,12.125 17.664,12.111 17.666,12.097 17.668,12.082 
					17.668,12.069 17.667,12.055 17.666,12.042 17.664,12.029 17.66,12.017 17.656,12.005 17.651,11.995 17.645,11.985 
					17.638,11.978 17.631,11.97 17.622,11.964 17.613,11.96 17.603,11.958 17.593,11.957 17.579,11.958 17.567,11.96 17.555,11.964 
					17.543,11.969 17.533,11.975 17.523,11.983 17.515,11.992 17.506,12.002 17.499,12.013 17.492,12.024 17.485,12.036 
					17.479,12.049 17.474,12.063 17.47,12.077 17.467,12.091 17.464,12.106 17.461,12.128 17.461,12.152 17.465,12.177 
					17.472,12.201 17.482,12.222 17.495,12.238 17.512,12.249 17.532,12.253 17.532,12.253 				"/>
			</g>
			<g>
				<polygon fill-rule="evenodd" clip-rule="evenodd" fill="#FFFFFF" points="14.437,12.263 14.417,12.375 14.29,12.375 
					14.294,12.354 14.296,12.336 14.298,12.322 14.3,12.314 14.293,12.322 14.285,12.33 14.276,12.338 14.265,12.345 14.252,12.352 
					14.24,12.358 14.227,12.364 14.213,12.369 14.199,12.374 14.184,12.377 14.17,12.38 14.155,12.382 14.14,12.383 14.125,12.384 
					14.111,12.382 14.097,12.38 14.08,12.376 14.064,12.37 14.049,12.364 14.037,12.356 14.026,12.348 14.016,12.339 14.008,12.33 
					14.001,12.32 13.995,12.309 13.99,12.298 13.985,12.287 13.982,12.276 13.981,12.264 13.979,12.253 13.978,12.242 
					13.978,12.231 13.98,12.211 13.982,12.192 13.988,12.175 13.994,12.157 14.002,12.141 14.011,12.127 14.022,12.113 14.034,12.1 
					14.047,12.088 14.061,12.078 14.075,12.068 14.09,12.06 14.107,12.053 14.123,12.048 14.14,12.043 14.158,12.04 14.159,12.04 
					14.162,12.039 14.165,12.039 14.171,12.038 14.177,12.037 14.183,12.037 14.191,12.036 14.2,12.035 14.208,12.034 
					14.217,12.033 14.226,12.032 14.234,12.032 14.242,12.031 14.249,12.03 14.257,12.03 14.262,12.03 14.274,12.03 14.286,12.03 
					14.297,12.031 14.308,12.031 14.317,12.032 14.324,12.032 14.329,12.032 14.331,12.032 14.332,12.029 14.335,12.02 
					14.337,12.009 14.338,12 14.336,11.989 14.332,11.979 14.326,11.97 14.318,11.962 14.308,11.955 14.298,11.951 14.286,11.948 
					14.273,11.947 14.258,11.946 14.243,11.946 14.228,11.946 14.211,11.946 14.195,11.947 14.179,11.949 14.162,11.95 
					14.147,11.952 14.132,11.954 14.117,11.957 14.104,11.959 14.092,11.962 14.081,11.965 14.072,11.968 14.065,11.971 
					14.059,11.975 14.095,11.853 14.106,11.848 14.117,11.844 14.129,11.841 14.141,11.838 14.153,11.836 14.166,11.834 
					14.18,11.832 14.193,11.831 14.207,11.83 14.222,11.829 14.237,11.829 14.252,11.829 14.269,11.829 14.286,11.829 
					14.303,11.829 14.321,11.83 14.335,11.831 14.35,11.834 14.365,11.837 14.381,11.841 14.397,11.847 14.412,11.855 
					14.427,11.863 14.442,11.873 14.454,11.884 14.465,11.896 14.475,11.909 14.483,11.925 14.488,11.941 14.491,11.958 
					14.491,11.977 14.488,11.997 14.437,12.263 14.437,12.263 				"/>
			</g>
			<g>
				<path fill="#FFFFFF" d="M14.125,12.395l-0.029-0.003l-0.035-0.01l-0.016-0.007l-0.026-0.017l-0.011-0.01l-0.017-0.022
					l-0.007-0.012l-0.01-0.023l-0.003-0.012l-0.005-0.036l0-0.012l0.005-0.04l0.005-0.019l0.007-0.018l0.018-0.032l0.011-0.015
					l0.027-0.026l0.03-0.021l0.033-0.016l0.035-0.01l0.125-0.014l0.061,0.002L14.327,12l-0.002-0.009l-0.004-0.008l-0.005-0.007
					l-0.015-0.011l-0.019-0.006l-0.055-0.002l-0.064,0.004l-0.08,0.014l-0.019,0.009l-0.017-0.013l0.038-0.127l0.028-0.011
					l0.038-0.009l0.055-0.006l0.079-0.001l0.05,0.002l0.032,0.006l0.017,0.005l0.033,0.014l0.031,0.019l0.014,0.012l0.012,0.013
					l0.011,0.014l0.009,0.017l0.006,0.018l0.003,0.019l0,0.021l-0.003,0.022l-0.051,0.266l-0.022,0.121h-0.15l0.007-0.04
					l-0.012,0.008l-0.04,0.02l-0.03,0.01l-0.03,0.007L14.125,12.395z M14.257,12.041l-0.098,0.01l-0.017,0.003l-0.032,0.009
					l-0.03,0.014l-0.027,0.019l-0.024,0.023l-0.009,0.013l-0.016,0.029l-0.006,0.016l-0.005,0.017l-0.004,0.036l0.001,0.02
					l0.006,0.032l0.008,0.02l0.012,0.019l0.007,0.009l0.019,0.015l0.012,0.007l0.028,0.01l0.017,0.005l0.025,0.003l0.043-0.003
					l0.027-0.006l0.027-0.009l0.036-0.018l0.018-0.014l0.014-0.015l0.019,0.011l-0.002,0.008l-0.006,0.039h0.104l0.018-0.102
					l0.054-0.286l0-0.017l-0.003-0.015l-0.005-0.014l-0.007-0.014l-0.019-0.023l-0.012-0.01l-0.028-0.017l-0.029-0.013l-0.03-0.007
					l-0.028-0.003l-0.083-0.001l-0.057,0.003l-0.049,0.009l-0.027,0.009l-0.028,0.093l0.053-0.011l0.081-0.008l0.032-0.001
					l0.043,0.002l0.014,0.003l0.012,0.005l0.012,0.008l0.01,0.008l0.008,0.011l0.005,0.012l0.003,0.015l-0.004,0.023l-0.006,0.022
					L14.257,12.041z"/>
			</g>
			<g>
				<polygon fill-rule="evenodd" clip-rule="evenodd" fill="#E40520" points="14.315,12.132 14.315,12.129 14.313,12.127 
					14.31,12.125 14.305,12.124 14.3,12.123 14.293,12.122 14.286,12.122 14.278,12.122 14.27,12.123 14.261,12.124 14.253,12.125 
					14.245,12.126 14.237,12.127 14.231,12.129 14.225,12.13 14.219,12.132 14.215,12.133 14.211,12.134 14.206,12.136 14.2,12.139 
					14.194,12.142 14.187,12.145 14.18,12.149 14.174,12.153 14.166,12.158 14.16,12.163 14.154,12.169 14.148,12.175 
					14.143,12.182 14.14,12.188 14.137,12.197 14.135,12.205 14.134,12.222 14.137,12.236 14.142,12.246 14.149,12.253 
					14.156,12.258 14.165,12.261 14.173,12.263 14.181,12.263 14.196,12.263 14.21,12.261 14.223,12.259 14.234,12.256 
					14.245,12.253 14.254,12.248 14.263,12.244 14.27,12.238 14.277,12.233 14.283,12.227 14.288,12.222 14.292,12.215 
					14.295,12.209 14.299,12.203 14.301,12.198 14.303,12.192 14.306,12.178 14.31,12.161 14.313,12.145 14.315,12.132 
					14.315,12.132 				"/>
			</g>
			<g>
				<polygon fill-rule="evenodd" clip-rule="evenodd" fill="#FFFFFF" points="13.377,12.375 13.24,12.375 13.354,11.713 
					13.593,11.713 13.615,12.106 13.78,11.713 14.029,11.713 13.912,12.375 13.775,12.375 13.862,11.881 13.856,11.881 
					13.651,12.375 13.496,12.375 13.495,12.354 13.492,12.299 13.487,12.222 13.482,12.132 13.477,12.042 13.472,11.962 
					13.469,11.905 13.468,11.881 13.466,11.881 13.463,11.881 13.461,11.881 13.461,11.881 13.377,12.375 13.377,12.375 				"/>
			</g>
			<g>
				<path fill="#FFFFFF" d="M13.921,12.387h-0.16l0.075-0.428l-0.178,0.428h-0.173l-0.001-0.032L13.46,11.95l-0.074,0.437h-0.16
					l0.002-0.013l0.116-0.671h0.259l0.02,0.354l0.149-0.354h0.27L13.921,12.387z M13.788,12.364h0.114l0.113-0.639h-0.228
					l-0.162,0.386l-0.022-0.004l-0.022-0.382h-0.218l-0.111,0.639h0.114l0.084-0.494h0.026l0.002,0.011l0.028,0.483h0.136
					l0.205-0.494h0.026L13.788,12.364z"/>
			</g>
			<g>
				<polygon fill-rule="evenodd" clip-rule="evenodd" fill="#FFFFFF" points="16.938,12.263 16.918,12.375 16.791,12.375 
					16.792,12.354 16.792,12.336 16.792,12.323 16.794,12.317 16.787,12.324 16.78,12.332 16.77,12.339 16.76,12.346 16.75,12.353 
					16.738,12.358 16.725,12.365 16.712,12.37 16.699,12.374 16.685,12.378 16.671,12.38 16.657,12.382 16.642,12.383 
					16.628,12.384 16.614,12.382 16.6,12.38 16.582,12.376 16.566,12.37 16.552,12.364 16.539,12.356 16.528,12.348 16.518,12.339 
					16.51,12.33 16.503,12.32 16.497,12.309 16.493,12.298 16.489,12.287 16.486,12.276 16.484,12.264 16.483,12.253 16.482,12.242 
					16.482,12.231 16.483,12.211 16.486,12.192 16.49,12.175 16.497,12.157 16.504,12.141 16.514,12.127 16.525,12.113 16.536,12.1 
					16.549,12.088 16.563,12.078 16.577,12.068 16.593,12.06 16.608,12.053 16.625,12.048 16.642,12.043 16.659,12.04 16.66,12.04 
					16.663,12.039 16.666,12.039 16.671,12.038 16.677,12.037 16.685,12.037 16.692,12.036 16.701,12.035 16.709,12.034 
					16.718,12.033 16.727,12.032 16.735,12.032 16.743,12.031 16.75,12.03 16.757,12.03 16.763,12.03 16.775,12.03 16.787,12.03 
					16.798,12.031 16.81,12.031 16.819,12.032 16.827,12.032 16.832,12.032 16.834,12.032 16.835,12.029 16.836,12.02 
					16.838,12.009 16.839,12 16.837,11.989 16.833,11.979 16.826,11.97 16.819,11.962 16.81,11.955 16.799,11.951 16.788,11.948 
					16.776,11.947 16.762,11.946 16.747,11.946 16.731,11.946 16.715,11.946 16.698,11.947 16.682,11.949 16.666,11.95 
					16.65,11.952 16.635,11.954 16.621,11.957 16.608,11.959 16.596,11.962 16.584,11.965 16.575,11.968 16.568,11.971 
					16.563,11.975 16.598,11.853 16.609,11.848 16.621,11.844 16.633,11.841 16.644,11.838 16.657,11.836 16.669,11.834 
					16.683,11.832 16.696,11.831 16.711,11.83 16.725,11.829 16.74,11.829 16.756,11.829 16.771,11.829 16.787,11.829 
					16.804,11.829 16.821,11.83 16.836,11.831 16.851,11.834 16.866,11.837 16.882,11.841 16.898,11.847 16.913,11.855 
					16.929,11.863 16.943,11.873 16.955,11.884 16.967,11.896 16.977,11.909 16.985,11.925 16.99,11.941 16.994,11.958 
					16.994,11.977 16.991,11.997 16.938,12.263 16.938,12.263 				"/>
			</g>
			<g>
				<polygon fill-rule="evenodd" clip-rule="evenodd" fill="#FFFFFF" points="16.918,12.379 16.921,12.376 16.941,12.264 
					16.935,12.263 16.915,12.375 16.918,12.371 16.918,12.379 16.92,12.378 16.921,12.376 16.918,12.379 16.918,12.379 				"/>
			</g>
			<g>
				<polygon fill-rule="evenodd" clip-rule="evenodd" fill="#FFFFFF" points="16.788,12.375 16.791,12.379 16.918,12.379 
					16.918,12.371 16.791,12.371 16.794,12.375 16.788,12.375 16.788,12.379 16.791,12.379 16.788,12.375 16.788,12.375 				"/>
			</g>
			<g>
				<polygon fill-rule="evenodd" clip-rule="evenodd" fill="#FFFFFF" points="16.796,12.319 16.792,12.315 16.789,12.323 
					16.789,12.336 16.789,12.354 16.788,12.375 16.794,12.375 16.795,12.354 16.796,12.336 16.795,12.323 16.795,12.319 
					16.791,12.315 16.796,12.319 16.796,12.319 				"/>
			</g>
			<g>
				<polygon fill-rule="evenodd" clip-rule="evenodd" fill="#FFFFFF" points="16.6,12.383 16.6,12.383 16.614,12.385 16.628,12.387 
					16.642,12.386 16.657,12.385 16.671,12.383 16.685,12.381 16.699,12.377 16.714,12.373 16.726,12.367 16.739,12.362 
					16.752,12.355 16.762,12.348 16.773,12.341 16.781,12.334 16.789,12.326 16.796,12.319 16.791,12.315 16.785,12.322 
					16.777,12.329 16.768,12.336 16.759,12.343 16.748,12.349 16.736,12.355 16.724,12.362 16.711,12.366 16.698,12.37 
					16.684,12.375 16.67,12.377 16.657,12.379 16.642,12.38 16.628,12.381 16.614,12.379 16.601,12.377 16.601,12.377 16.6,12.383 
					16.6,12.383 				"/>
			</g>
			<g>
				<polygon fill-rule="evenodd" clip-rule="evenodd" fill="#FFFFFF" points="16.478,12.231 16.478,12.231 16.479,12.242 
					16.48,12.253 16.481,12.265 16.483,12.276 16.486,12.287 16.489,12.299 16.494,12.311 16.501,12.321 16.508,12.332 
					16.516,12.341 16.526,12.351 16.537,12.359 16.551,12.367 16.565,12.374 16.582,12.379 16.6,12.383 16.601,12.377 
					16.583,12.373 16.567,12.367 16.554,12.361 16.541,12.354 16.53,12.346 16.521,12.337 16.513,12.328 16.506,12.318 16.5,12.308 
					16.496,12.297 16.492,12.286 16.489,12.275 16.487,12.264 16.486,12.253 16.485,12.242 16.485,12.231 16.485,12.231 
					16.478,12.231 16.478,12.231 				"/>
			</g>
			<g>
				<polygon fill-rule="evenodd" clip-rule="evenodd" fill="#FFFFFF" points="16.659,12.037 16.659,12.037 16.641,12.04 
					16.624,12.045 16.608,12.05 16.591,12.057 16.576,12.065 16.561,12.075 16.547,12.086 16.534,12.098 16.522,12.111 
					16.511,12.125 16.501,12.14 16.494,12.156 16.487,12.173 16.483,12.192 16.48,12.211 16.478,12.231 16.485,12.231 
					16.486,12.211 16.489,12.193 16.493,12.176 16.5,12.158 16.507,12.143 16.516,12.129 16.527,12.115 16.538,12.102 
					16.551,12.091 16.565,12.08 16.579,12.071 16.594,12.063 16.61,12.056 16.626,12.051 16.642,12.046 16.659,12.043 
					16.659,12.043 16.659,12.037 16.659,12.037 				"/>
			</g>
			<g>
				<polygon fill-rule="evenodd" clip-rule="evenodd" fill="#FFFFFF" points="16.763,12.026 16.763,12.026 16.757,12.026 
					16.75,12.027 16.743,12.028 16.735,12.028 16.727,12.029 16.718,12.03 16.709,12.031 16.701,12.032 16.692,12.033 
					16.685,12.034 16.677,12.035 16.671,12.036 16.666,12.036 16.662,12.036 16.66,12.037 16.659,12.037 16.659,12.043 
					16.66,12.043 16.663,12.042 16.666,12.042 16.671,12.042 16.677,12.04 16.685,12.04 16.692,12.039 16.701,12.038 16.709,12.037 
					16.718,12.036 16.727,12.036 16.735,12.035 16.743,12.034 16.75,12.033 16.757,12.033 16.763,12.033 16.763,12.033 
					16.763,12.026 16.763,12.026 				"/>
			</g>
			<g>
				<polygon fill-rule="evenodd" clip-rule="evenodd" fill="#FFFFFF" points="16.831,12.032 16.834,12.029 16.832,12.029 
					16.827,12.029 16.819,12.028 16.81,12.027 16.798,12.027 16.787,12.027 16.775,12.026 16.763,12.026 16.763,12.033 
					16.775,12.033 16.787,12.033 16.798,12.035 16.81,12.035 16.819,12.035 16.827,12.035 16.832,12.036 16.834,12.036 
					16.837,12.033 16.834,12.036 16.836,12.036 16.837,12.033 16.831,12.032 16.831,12.032 				"/>
			</g>
			<g>
				<polygon fill-rule="evenodd" clip-rule="evenodd" fill="#FFFFFF" points="16.836,12 16.836,12 16.835,12.009 16.833,12.019 
					16.832,12.028 16.831,12.032 16.837,12.033 16.838,12.029 16.84,12.02 16.841,12.009 16.842,12 16.842,12 16.836,12 16.836,12 
									"/>
			</g>
			<g>
				<polygon fill-rule="evenodd" clip-rule="evenodd" fill="#FFFFFF" points="16.776,11.95 16.776,11.95 16.788,11.951 
					16.798,11.954 16.808,11.958 16.817,11.964 16.824,11.971 16.83,11.98 16.834,11.989 16.836,12 16.842,12 16.84,11.988 
					16.836,11.977 16.829,11.967 16.821,11.959 16.811,11.952 16.8,11.948 16.789,11.945 16.776,11.943 16.776,11.944 16.776,11.95 
					16.776,11.95 				"/>
			</g>
			<g>
				<polygon fill-rule="evenodd" clip-rule="evenodd" fill="#FFFFFF" points="16.56,11.974 16.565,11.977 16.57,11.975 
					16.576,11.971 16.585,11.968 16.596,11.965 16.608,11.962 16.621,11.96 16.636,11.957 16.65,11.955 16.666,11.953 
					16.682,11.952 16.698,11.95 16.715,11.949 16.731,11.949 16.747,11.949 16.762,11.949 16.776,11.95 16.776,11.944 
					16.762,11.943 16.747,11.942 16.731,11.942 16.715,11.943 16.698,11.944 16.682,11.946 16.666,11.947 16.65,11.949 
					16.635,11.951 16.621,11.954 16.607,11.956 16.595,11.959 16.584,11.962 16.574,11.965 16.567,11.968 16.561,11.972 
					16.566,11.975 16.56,11.974 16.56,11.974 				"/>
			</g>
			<g>
				<polygon fill-rule="evenodd" clip-rule="evenodd" fill="#FFFFFF" points="16.597,11.85 16.595,11.853 16.56,11.974 
					16.566,11.975 16.601,11.853 16.599,11.856 16.597,11.85 16.596,11.851 16.595,11.853 16.597,11.85 16.597,11.85 				"/>
			</g>
			<g>
				<polygon fill-rule="evenodd" clip-rule="evenodd" fill="#FFFFFF" points="16.821,11.827 16.821,11.827 16.804,11.826 
					16.787,11.825 16.771,11.825 16.756,11.825 16.74,11.825 16.725,11.826 16.711,11.827 16.696,11.828 16.683,11.829 
					16.669,11.831 16.657,11.833 16.644,11.835 16.632,11.838 16.62,11.841 16.608,11.845 16.597,11.85 16.599,11.856 16.61,11.851 
					16.622,11.847 16.633,11.844 16.645,11.841 16.657,11.839 16.67,11.837 16.683,11.835 16.696,11.834 16.711,11.833 
					16.725,11.832 16.74,11.832 16.756,11.832 16.771,11.832 16.787,11.832 16.804,11.833 16.821,11.833 16.821,11.833 
					16.821,11.827 16.821,11.827 				"/>
			</g>
			<g>
				<polygon fill-rule="evenodd" clip-rule="evenodd" fill="#FFFFFF" points="16.994,11.998 16.994,11.998 16.996,11.977 
					16.996,11.958 16.993,11.94 16.988,11.924 16.979,11.908 16.969,11.894 16.958,11.881 16.945,11.87 16.93,11.86 16.915,11.851 
					16.899,11.844 16.883,11.838 16.867,11.834 16.851,11.83 16.836,11.828 16.821,11.827 16.821,11.833 16.836,11.834 
					16.85,11.836 16.866,11.84 16.881,11.844 16.897,11.851 16.912,11.857 16.927,11.866 16.941,11.875 16.954,11.886 
					16.965,11.898 16.975,11.911 16.981,11.926 16.987,11.941 16.991,11.958 16.991,11.977 16.988,11.997 16.988,11.997 
					16.994,11.998 16.994,11.998 				"/>
			</g>
			<g>
				<polygon fill-rule="evenodd" clip-rule="evenodd" fill="#FFFFFF" points="16.941,12.264 16.941,12.264 16.994,11.998 
					16.988,11.997 16.935,12.263 16.935,12.263 16.941,12.264 16.941,12.264 				"/>
			</g>
			<g>
				<polygon fill-rule="evenodd" clip-rule="evenodd" fill="#FAB51D" points="16.816,12.132 16.815,12.129 16.813,12.126 
					16.81,12.125 16.805,12.123 16.799,12.122 16.792,12.122 16.785,12.122 16.777,12.122 16.77,12.124 16.761,12.125 
					16.753,12.126 16.746,12.127 16.738,12.128 16.732,12.129 16.725,12.131 16.72,12.132 16.716,12.132 16.712,12.134 
					16.707,12.135 16.702,12.137 16.695,12.14 16.689,12.143 16.682,12.147 16.676,12.151 16.669,12.156 16.663,12.161 
					16.657,12.167 16.651,12.173 16.647,12.181 16.643,12.188 16.64,12.196 16.639,12.205 16.639,12.222 16.641,12.236 
					16.645,12.246 16.651,12.253 16.659,12.258 16.667,12.261 16.676,12.263 16.684,12.263 16.699,12.263 16.714,12.261 
					16.727,12.259 16.738,12.255 16.749,12.251 16.759,12.247 16.768,12.242 16.776,12.236 16.783,12.23 16.789,12.224 
					16.795,12.217 16.799,12.211 16.803,12.205 16.805,12.199 16.807,12.193 16.809,12.187 16.811,12.173 16.813,12.158 
					16.815,12.144 16.816,12.132 16.816,12.132 				"/>
			</g>
			<g>
				<polygon fill-rule="evenodd" clip-rule="evenodd" fill="#FFFFFF" points="16.976,12.375 17.118,12.375 17.118,12.375 
					17.169,12.088 17.171,12.077 17.174,12.066 17.177,12.055 17.181,12.044 17.186,12.033 17.192,12.022 17.199,12.012 
					17.207,12.003 17.216,11.994 17.226,11.986 17.237,11.979 17.251,11.972 17.265,11.967 17.282,11.963 17.299,11.96 
					17.319,11.959 17.326,11.959 17.33,11.959 17.331,11.959 17.331,11.959 17.354,11.83 17.34,11.831 17.326,11.832 17.314,11.835 
					17.302,11.838 17.291,11.843 17.28,11.847 17.27,11.853 17.26,11.859 17.251,11.866 17.243,11.873 17.235,11.881 17.226,11.889 
					17.219,11.898 17.211,11.907 17.204,11.916 17.197,11.927 17.212,11.835 17.07,11.835 16.976,12.375 16.976,12.375 
					16.976,12.375 				"/>
			</g>
			<g>
				<path fill="#FFFFFF" d="M17.128,12.387h-0.165l0.002-0.013l0.096-0.549h0.165l-0.01,0.061l0.019-0.02l0.029-0.022l0.022-0.011
					l0.025-0.008l0.028-0.004l0.029-0.002l-0.027,0.153L17.3,11.972l-0.016,0.003l-0.029,0.009l-0.013,0.006l-0.018,0.014
					l-0.016,0.017l-0.011,0.019l-0.005,0.011l-0.009,0.031l-0.002,0.01L17.128,12.387z M16.99,12.364h0.119l0.058-0.311l0.004-0.012
					l0.012-0.024l0.007-0.011l0.009-0.011l0.02-0.018l0.012-0.008l0.015-0.007l0.032-0.01l0.019-0.003l0.025-0.001l0.019-0.106
					l-0.025,0.004l-0.021,0.007l-0.019,0.01l-0.026,0.019l-0.037,0.042l-0.007,0.009l-0.02-0.008l0.013-0.078H17.08L16.99,12.364z"
					/>
			</g>
			<g>
				<polygon fill-rule="evenodd" clip-rule="evenodd" fill="#FFFFFF" points="15.642,12.375 15.784,12.375 15.786,12.375 
					15.834,12.088 15.837,12.077 15.839,12.067 15.842,12.056 15.845,12.046 15.849,12.036 15.854,12.026 15.86,12.018 
					15.867,12.009 15.875,12.001 15.885,11.994 15.896,11.988 15.908,11.982 15.922,11.978 15.937,11.973 15.954,11.971 
					15.974,11.97 15.976,11.97 15.978,11.97 15.98,11.97 15.983,11.97 15.985,11.971 15.987,11.971 15.989,11.972 15.99,11.972 
					15.99,11.97 15.991,11.964 15.993,11.955 15.996,11.944 15.999,11.931 16.003,11.916 16.008,11.902 16.012,11.888 
					16.016,11.879 16.021,11.869 16.026,11.86 16.031,11.851 16.036,11.843 16.039,11.838 16.042,11.834 16.043,11.832 
					16.042,11.832 16.04,11.832 16.038,11.831 16.034,11.831 16.031,11.831 16.026,11.83 16.023,11.83 16.02,11.83 16.004,11.831 
					15.99,11.832 15.977,11.835 15.965,11.838 15.953,11.842 15.942,11.847 15.933,11.852 15.924,11.858 15.915,11.864 
					15.907,11.872 15.9,11.88 15.892,11.888 15.885,11.897 15.878,11.907 15.87,11.916 15.862,11.927 15.88,11.835 15.736,11.835 
					15.642,12.375 15.642,12.375 15.642,12.375 				"/>
			</g>
			<g>
				<path fill="#FFFFFF" d="M15.796,12.387h-0.168l0.099-0.562h0.168l-0.012,0.058l0.025-0.025l0.019-0.014l0.022-0.011l0.026-0.008
					l0.029-0.004l0.02-0.001l0.009,0.001l0.002,0l0.009,0.001h0.023l-0.031,0.045l-0.014,0.027l-0.023,0.088l-0.011,0.002
					l-0.003-0.001l-0.002-0.012l-0.003,0.011l-0.002-0.012l-0.002,0.011l-0.021,0.001l-0.016,0.002l-0.028,0.008l-0.021,0.011
					l-0.015,0.013l-0.012,0.016l-0.011,0.027l-0.007,0.031L15.796,12.387z M15.655,12.364h0.121l0.054-0.31l0.013-0.032l0.014-0.02
					l0.019-0.017l0.026-0.013l0.031-0.009l0.018-0.003l0.021-0.002l0.006,0.001l0.011-0.045l0.013-0.04l0.018-0.033l-0.002,0
					l-0.031,0.003l-0.024,0.005l-0.029,0.013l-0.016,0.011l-0.029,0.031l-0.022,0.029l-0.02-0.009l0.016-0.077h-0.121L15.655,12.364
					z"/>
			</g>
		</g>
		<g>
			<g>
				<path fill-rule="evenodd" clip-rule="evenodd" fill="#084793" d="M24.563,12.276l0.002-0.008l0.003-0.005l0.003-0.008
					l0.002-0.007l0.003-0.005l0.003-0.007l0.002-0.008l0.002-0.007l0.003-0.005l0.002-0.007L24.59,12.2l0.003-0.005l0.003-0.007
					l0.003-0.007l0.002-0.008l0.003-0.005l0.002-0.007l0.002-0.008l0.003-0.005l0.002-0.008l0.003-0.007l0.002-0.008l0.002-0.005
					l0.003-0.008l0.003-0.007l0.003-0.005l0.002-0.008l0.002-0.008l0.002-0.007l0.003-0.005l0.003-0.007l0.003-0.008l0.002-0.005
					l0.003-0.008l0.002-0.007l0.002-0.007l0.003-0.005l0.002-0.007l0.003-0.008l0.002-0.005l0.002-0.008l0.002-0.007l0.003-0.008
					l0.002-0.005l0.003-0.008l0.003-0.008l0.002-0.007l0.003-0.005l0.002-0.008l0.003-0.007l0.002-0.005l0.003-0.008l0.003-0.007
					l0.002-0.008l0.002-0.005l0.003-0.008l0.002-0.007l0.003-0.005l0.002-0.008l0.002-0.007l0.002-0.007l0.002-0.005l0.003-0.008
					l0.002-0.008l0.003-0.005l0.003-0.008l0.003-0.007l0.002-0.007l0.002-0.005l0.003-0.008l0.003-0.007l0.002-0.008l0.003-0.005
					l0.002-0.007l0.002-0.008l0.003-0.005l0.002-0.008l0.002-0.007l0.003-0.008l0.003-0.007l0.002-0.008l0.002-0.005l0.002-0.008
					l0.002-0.007l0.003-0.008l0.002-0.005l0.003-0.007l0.003-0.008l0.003-0.008l0.002-0.005l0.002-0.007l0.002-0.008l0.002-0.008
					l0.003-0.005l0.003-0.008l0.003-0.007l0.003-0.005l0.002-0.008l0.003-0.008l0.002-0.007l0.002-0.008l0.003-0.005l0.002-0.007
					l0.003-0.008v0.015l0.002,0.01l0.003,0.012l0.002,0.013l0.002,0.012l0.003,0.013l0.003,0.013l0.002,0.013l0.002,0.013
					l0.002,0.012l0.003,0.013l0.002,0.012l0.003,0.013l0.003,0.012l0.003,0.013l0.003,0.01l0.002,0.013l0.002,0.012l0.002,0.013
					l0.003,0.013l0.002,0.012l0.002,0.01l0.003,0.012l0.002,0.013l0.002,0.012l0.003,0.013l0.002,0.01l0.002,0.013l0.002,0.013
					l0.003,0.012l0.002,0.013l0.002,0.012l0.003,0.01l0.003,0.012l0.002,0.013l0.003,0.012l0.002,0.013l0.002,0.013l0.003,0.01
					l0.002,0.013l0.002,0.013l0.003,0.012l0.002,0.01l0.002,0.012l0.003,0.012l0.002,0.013l0.002,0.013l0.002,0.013l0.003,0.012
					l0.002,0.01l0.002,0.012l0.003,0.013l0.002,0.013l0.003,0.013l0.002,0.012l0.002,0.01l0.003,0.012l0.002,0.012l0.003,0.013
					H24.56L24.563,12.276L24.563,12.276z M24.721,11.035l-0.015,0.003l-0.012,0.002l-0.01,0.002l-0.007,0.002l-0.008,0.003
					l-0.007,0.003l-0.008,0.003l-0.005,0.002l-0.005,0.002l-0.005,0.003l-0.005,0.002l-0.005,0.003l-0.005,0.003L24.62,11.07
					l-0.005,0.002l-0.003,0.002l-0.005,0.003l-0.002,0.003l-0.002,0.002l-0.005,0.003l-0.003,0.003l-0.003,0.002l-0.003,0.003
					l-0.002,0.003l-0.002,0.002L24.583,11.1l-0.002,0.002l-0.002,0.003l-0.003,0.003l-0.003,0.003l-0.002,0.002l-0.003,0.003
					l-0.003,0.003l-0.002,0.005l-0.003,0.003l-0.002,0.003l-0.002,0.005l-0.003,0.003l-0.002,0.005l-0.003,0.003l-0.002,0.005
					l-0.003,0.003l-0.003,0.005l-0.002,0.005l-0.002,0.005l-0.002,0.005l-0.003,0.005l-0.002,0.005l-0.003,0.005l-0.002,0.005
					l-0.002,0.007l-0.003,0.005l-0.002,0.008l-0.002,0.005L24.51,11.22l-0.002,0.008l-0.003,0.005l-0.003,0.005L24.5,11.246
					l-0.002,0.005l-0.002,0.008l-0.003,0.005l-0.002,0.005l-0.003,0.007l-0.002,0.005l-0.003,0.008l-0.003,0.005l-0.002,0.005
					l-0.003,0.008l-0.002,0.005l-0.002,0.007l-0.003,0.005l-0.003,0.005l-0.003,0.007l-0.003,0.005l-0.003,0.007l-0.002,0.005
					l-0.002,0.005l-0.003,0.008l-0.002,0.005l-0.003,0.005l-0.002,0.008l-0.003,0.005l-0.002,0.008l-0.002,0.005l-0.003,0.005
					l-0.002,0.008l-0.003,0.005l-0.002,0.008l-0.002,0.005l-0.003,0.005l-0.002,0.007l-0.003,0.005l-0.002,0.008l-0.002,0.005
					l-0.003,0.005l-0.002,0.008l-0.002,0.005L24.4,11.484l-0.003,0.007l-0.003,0.005l-0.002,0.008l-0.003,0.005l-0.002,0.005
					l-0.003,0.008l-0.003,0.005l-0.002,0.007l-0.002,0.005l-0.003,0.005l-0.002,0.007l-0.002,0.005l-0.003,0.007l-0.003,0.005
					l-0.002,0.005l-0.002,0.007l-0.002,0.005l-0.002,0.005l-0.003,0.007l-0.003,0.005l-0.003,0.008l-0.002,0.005l-0.003,0.005
					l-0.002,0.008l-0.002,0.005l-0.003,0.008l-0.002,0.005l-0.003,0.005l-0.002,0.008l-0.002,0.005l-0.003,0.008l-0.002,0.005
					l-0.003,0.005l-0.002,0.007l-0.003,0.005l-0.002,0.008l-0.002,0.005l-0.003,0.005l-0.002,0.008L24.3,11.724l-0.002,0.005
					l-0.003,0.007l-0.003,0.005l-0.003,0.008l-0.002,0.005l-0.003,0.005l-0.003,0.008l-0.003,0.005l-0.002,0.007l-0.003,0.005
					l-0.003,0.005l-0.002,0.007l-0.003,0.005l-0.003,0.008l-0.003,0.005L24.26,11.82l-0.002,0.007l-0.003,0.005l-0.003,0.005
					l-0.003,0.007l-0.002,0.005l-0.002,0.007l-0.002,0.005l-0.003,0.005l-0.003,0.007l-0.003,0.005l-0.003,0.008l-0.002,0.005
					l-0.002,0.005l-0.002,0.008l-0.002,0.005l-0.003,0.008l-0.002,0.005l-0.003,0.005l-0.002,0.007l-0.003,0.005l-0.002,0.005
					l-0.002,0.007l-0.003,0.005L24.2,11.965l-0.003,0.005l-0.003,0.008l-0.003,0.005l-0.002,0.005l-0.002,0.007L24.185,12
					l-0.002,0.005l-0.003,0.008l-0.003,0.005l-0.002,0.007l-0.002,0.005l-0.002,0.005l-0.003,0.007l-0.003,0.005l-0.002,0.007
					l-0.003,0.005l-0.002,0.005l-0.003,0.007l-0.002,0.005l-0.002,0.007l-0.003,0.005l-0.002,0.005l-0.002,0.008l-0.003,0.005
					l-0.002,0.005l-0.003,0.008l-0.002,0.005l-0.002,0.008l-0.002,0.005l-0.002,0.005l-0.003,0.008l-0.002,0.005l-0.003,0.008
					l-0.002,0.005l-0.002,0.005l-0.003,0.008l-0.002,0.005l-0.003,0.005l-0.003,0.007l-0.002,0.005l-0.002,0.008l-0.002,0.005
					l-0.002,0.005l-0.003,0.007l-0.002,0.005l-0.002,0.008l-0.003,0.005l-0.003,0.005l-0.002,0.007l-0.003,0.005l-0.002,0.007
					l-0.002,0.005l-0.003,0.005l-0.002,0.008l-0.003,0.005L24.059,12.3l-0.003,0.005l-0.002,0.005l-0.002,0.007l-0.003,0.006
					l-0.003,0.005l-0.002,0.007l-0.002,0.005l-0.003,0.007l-0.002,0.005l-0.002,0.005l-0.002,0.007l-0.002,0.005l-0.003,0.007
					l-0.002,0.005l-0.003,0.005l-0.002,0.008l-0.002,0.005l-0.003,0.007l-0.002,0.005l-0.003,0.005l-0.003,0.007l-0.002,0.005
					l-0.003,0.008l-0.002,0.005l-0.003,0.005l-0.003,0.007l-0.003,0.005l-0.003,0.005l-0.002,0.007l-0.003,0.005l-0.002,0.008
					l-0.002,0.005l-0.003,0.005l-0.002,0.008l-0.003,0.005l-0.002,0.007l-0.003,0.006l-0.002,0.005l-0.003,0.007l-0.003,0.005
					l-0.002,0.007l-0.003,0.005l-0.003,0.005l-0.002,0.008l-0.003,0.005l-0.002,0.005l-0.003,0.008l-0.003,0.005l-0.002,0.007
					l-0.003,0.005l-0.003,0.005l-0.003,0.008l-0.002,0.005l-0.002,0.008l-0.003,0.005l-0.002,0.005l-0.002,0.008l-0.002,0.005
					l-0.003,0.005l-0.002,0.007l-0.003,0.005l-0.003,0.007l-0.002,0.005l-0.002,0.005l-0.003,0.007l-0.002,0.005l-0.003,0.007
					l-0.003,0.005l-0.002,0.005l-0.002,0.007l-0.002,0.005l-0.003,0.007l-0.003,0.005l-0.003,0.005l-0.002,0.008l-0.003,0.005
					l-0.002,0.007l-0.003,0.005l-0.003,0.005l-0.002,0.008l-0.002,0.005l-0.002,0.008l-0.003,0.005l-0.003,0.005l-0.002,0.007
					l-0.003,0.005l-0.002,0.005l-0.002,0.007l-0.003,0.005l-0.002,0.008l-0.003,0.005l-0.002,0.005l-0.002,0.007l-0.002,0.005
					l-0.003,0.008l-0.003,0.005l-0.002,0.005l-0.003,0.008l-0.002,0.005l-0.003,0.007l-0.002,0.005l-0.003,0.005l-0.002,0.007
					l-0.002,0.005l-0.002,0.005l-0.003,0.007l-0.002,0.005l-0.003,0.008l-0.002,0.005l-0.002,0.005l-0.003,0.007l-0.003,0.005v0.008
					h0.529l0.002-0.002l0.002-0.008l0.003-0.007l0.002-0.008l0.003-0.005l0.002-0.008l0.003-0.007l0.002-0.007l0.002-0.008
					l0.003-0.005l0.002-0.008l0.003-0.007l0.002-0.007l0.002-0.008l0.003-0.005l0.002-0.007l0.003-0.008l0.003-0.008l0.003-0.005
					l0.002-0.008l0.002-0.007l0.002-0.008l0.002-0.005l0.003-0.008l0.003-0.007l0.002-0.007l0.002-0.007l0.003-0.005l0.002-0.007
					l0.002-0.008l0.003-0.007l0.003-0.005l0.002-0.007l0.003-0.008l0.002-0.007l0.003-0.005l0.003-0.007l0.002-0.007l0.002-0.007
					l0.002-0.005l0.003-0.007l0.002-0.007v-0.005l0.639,0.003l0.003,0.012l0.002,0.01l0.002,0.012l0.003,0.013l0.003,0.01
					l0.002,0.013l0.003,0.012l0.002,0.01l0.002,0.013l0.002,0.012l0.002,0.013l0.002,0.013l0.003,0.01l0.003,0.013l0.002,0.012
					l0.003,0.013l0.003,0.01l0.003,0.015l0.002,0.011l0.002,0.012l0.002,0.012l0.003,0.013l0.002,0.01l0.002,0.012l0.003,0.005
					h0.466V12.96l-0.003-0.013l-0.002-0.013l-0.002-0.012l-0.002-0.01l-0.003-0.013l-0.003-0.012l-0.002-0.01l-0.003-0.013
					l-0.002-0.012l-0.003-0.013l-0.002-0.013l-0.003-0.01l-0.003-0.013l-0.002-0.012l-0.003-0.013l-0.002-0.012l-0.003-0.01
					l-0.003-0.013l-0.002-0.013l-0.002-0.013l-0.002-0.012l-0.002-0.01l-0.003-0.013l-0.003-0.013l-0.003-0.013l-0.002-0.01
					l-0.003-0.013l-0.002-0.012l-0.003-0.013l-0.002-0.012l-0.002-0.01L25.5,12.576l-0.002-0.012l-0.003-0.013l-0.002-0.012
					l-0.002-0.01l-0.003-0.013l-0.003-0.012l-0.003-0.01l-0.002-0.013l-0.003-0.012l-0.003-0.013l-0.002-0.012l-0.002-0.013
					l-0.003-0.01l-0.002-0.013l-0.003-0.013l-0.002-0.012l-0.003-0.013l-0.002-0.01l-0.003-0.012l-0.003-0.013l-0.002-0.01
					l-0.003-0.013L25.442,12.3l-0.003-0.012l-0.002-0.012l-0.003-0.01l-0.003-0.013l-0.002-0.012l-0.002-0.013l-0.003-0.012
					l-0.003-0.01l-0.003-0.012l-0.003-0.012l-0.002-0.013l-0.003-0.013l-0.002-0.01l-0.002-0.013l-0.002-0.013l-0.003-0.013
					l-0.003-0.01l-0.002-0.013l-0.002-0.012l-0.003-0.012l-0.002-0.013l-0.002-0.01l-0.003-0.013l-0.002-0.012L25.38,12
					l-0.003-0.012l-0.002-0.01l-0.003-0.013l-0.002-0.013l-0.003-0.01l-0.002-0.012l-0.003-0.013l-0.002-0.012l-0.002-0.013
					l-0.003-0.01l-0.003-0.013l-0.002-0.013l-0.002-0.013l-0.002-0.012l-0.003-0.01L25.34,11.81l-0.003-0.013l-0.002-0.013
					l-0.002-0.012l-0.003-0.01l-0.002-0.012l-0.003-0.013l-0.003-0.013l-0.003-0.01l-0.002-0.012l-0.003-0.013l-0.002-0.012
					l-0.002-0.013l-0.003-0.01l-0.003-0.013l-0.002-0.012l-0.002-0.012l-0.002-0.013l-0.002-0.01l-0.003-0.013l-0.003-0.012
					l-0.002-0.01l-0.003-0.013l-0.003-0.013l-0.002-0.012l-0.003-0.013l-0.003-0.012l-0.003-0.01l-0.003-0.012l-0.002-0.013
					l-0.002-0.012l-0.002-0.012l-0.003-0.01l-0.003-0.013l-0.002-0.013l-0.003-0.01l-0.002-0.013l-0.002-0.012l-0.003-0.012
					l-0.003-0.013l-0.003-0.01l-0.002-0.012l-0.003-0.012l-0.003-0.013l-0.002-0.012l-0.003-0.01l-0.002-0.012l-0.002-0.013
					l-0.002-0.012l-0.003-0.013l-0.003-0.012l-0.002-0.01l-0.003-0.013l-0.002-0.012l-0.003-0.01l-0.002-0.012L25.2,11.138
					l-0.003-0.013l-0.002-0.013l-0.002-0.01l-0.003-0.012l-0.002-0.012l-0.003-0.012l-0.002-0.013l-0.002-0.01l-0.002-0.01h-0.431
					L24.721,11.035z"/>
			</g>
			<g>
				<polygon fill-rule="evenodd" clip-rule="evenodd" fill="#084793" points="23.327,11 23.3,11.002 23.278,11.005 23.257,11.008 
					23.242,11.01 23.227,11.013 23.212,11.015 23.2,11.017 23.187,11.02 23.175,11.023 23.165,11.025 23.152,11.028 23.142,11.03 
					23.132,11.033 23.125,11.035 23.114,11.038 23.104,11.04 23.097,11.043 23.09,11.045 23.082,11.048 23.074,11.05 23.064,11.053 
					23.057,11.055 23.052,11.058 23.044,11.06 23.037,11.063 23.032,11.065 23.024,11.068 23.017,11.07 23.012,11.073 
					23.004,11.075 22.999,11.078 22.994,11.08 22.987,11.083 22.982,11.085 22.977,11.088 22.971,11.09 22.967,11.093 
					22.962,11.096 22.954,11.098 22.949,11.1 22.944,11.103 22.942,11.105 22.937,11.108 22.932,11.11 22.927,11.113 22.921,11.115 
					22.916,11.118 22.912,11.12 22.909,11.123 22.904,11.125 22.899,11.128 22.896,11.13 22.891,11.133 22.886,11.136 
					22.884,11.138 22.879,11.14 22.874,11.143 22.871,11.146 22.869,11.148 22.864,11.151 22.861,11.153 22.856,11.155 
					22.854,11.158 22.849,11.16 22.847,11.163 22.841,11.166 22.839,11.168 22.836,11.17 22.831,11.173 22.829,11.176 
					22.826,11.178 22.821,11.181 22.819,11.183 22.816,11.186 22.814,11.188 22.809,11.191 22.806,11.193 22.804,11.196 
					22.801,11.198 22.799,11.201 22.793,11.203 22.791,11.206 22.789,11.208 22.786,11.211 22.784,11.213 22.781,11.216 
					22.779,11.218 22.776,11.22 22.774,11.223 22.771,11.226 22.766,11.228 22.764,11.231 22.761,11.233 22.759,11.236 
					22.756,11.238 22.753,11.241 22.751,11.246 22.749,11.248 22.746,11.251 22.744,11.253 22.741,11.256 22.739,11.258 
					22.736,11.261 22.733,11.263 22.731,11.266 22.729,11.268 22.726,11.271 22.724,11.276 22.721,11.278 22.719,11.281 
					22.716,11.283 22.713,11.288 22.711,11.291 22.708,11.293 22.706,11.296 22.703,11.301 22.701,11.303 22.699,11.306 
					22.696,11.311 22.694,11.313 22.691,11.316 22.689,11.321 22.686,11.323 22.683,11.329 22.681,11.331 22.678,11.336 
					22.676,11.338 22.673,11.344 22.671,11.348 22.668,11.351 22.666,11.356 22.663,11.361 22.661,11.366 22.659,11.369 
					22.656,11.374 22.653,11.378 22.651,11.383 22.648,11.388 22.646,11.394 22.643,11.399 22.641,11.403 22.639,11.409 
					22.636,11.416 22.634,11.421 22.631,11.426 22.628,11.434 22.626,11.439 22.623,11.446 22.621,11.454 22.619,11.461 
					22.616,11.469 22.613,11.476 22.611,11.484 22.608,11.494 22.606,11.504 22.603,11.514 22.601,11.526 22.598,11.539 
					22.596,11.554 22.593,11.571 22.591,11.597 22.591,11.684 22.593,11.707 22.596,11.722 22.598,11.734 22.601,11.744 
					22.603,11.754 22.606,11.764 22.608,11.772 22.611,11.779 22.613,11.787 22.616,11.794 22.619,11.799 22.621,11.807 
					22.623,11.812 22.626,11.82 22.628,11.824 22.631,11.83 22.634,11.835 22.636,11.839 22.639,11.844 22.641,11.85 22.643,11.855 
					22.646,11.857 22.648,11.862 22.651,11.867 22.653,11.87 22.656,11.875 22.659,11.88 22.661,11.882 22.663,11.887 22.666,11.89 
					22.668,11.895 22.671,11.897 22.673,11.9 22.676,11.905 22.678,11.907 22.681,11.91 22.683,11.915 22.686,11.917 22.689,11.92 
					22.691,11.925 22.694,11.927 22.696,11.93 22.699,11.932 22.701,11.935 22.703,11.94 22.706,11.942 22.708,11.945 
					22.711,11.947 22.713,11.95 22.716,11.952 22.719,11.955 22.721,11.957 22.724,11.96 22.726,11.962 22.729,11.965 
					22.731,11.967 22.733,11.97 22.736,11.973 22.739,11.975 22.741,11.977 22.744,11.98 22.746,11.982 22.749,11.985 
					22.751,11.988 22.753,11.99 22.756,11.993 22.759,11.995 22.761,11.997 22.764,12 22.766,12.003 22.771,12.005 22.774,12.007 
					22.776,12.01 22.779,12.013 22.781,12.015 22.784,12.017 22.789,12.02 22.791,12.022 22.793,12.025 22.797,12.027 22.801,12.03 
					22.804,12.033 22.806,12.035 22.809,12.037 22.814,12.04 22.816,12.042 22.819,12.045 22.823,12.048 22.826,12.05 
					22.829,12.053 22.834,12.055 22.836,12.058 22.841,12.06 22.844,12.062 22.849,12.065 22.851,12.067 22.854,12.07 
					22.859,12.073 22.861,12.075 22.866,12.078 22.869,12.08 22.874,12.083 22.879,12.085 22.882,12.088 22.886,12.09 
					22.889,12.093 22.894,12.095 22.899,12.098 22.902,12.1 22.906,12.103 22.909,12.105 22.914,12.108 22.919,12.11 22.924,12.113 
					22.927,12.115 22.932,12.118 22.937,12.12 22.942,12.123 22.944,12.125 22.949,12.128 22.954,12.13 22.959,12.133 
					22.964,12.135 22.969,12.138 22.971,12.14 22.977,12.143 22.982,12.145 22.987,12.148 22.992,12.15 22.997,12.153 
					23.002,12.155 23.007,12.158 23.012,12.16 23.017,12.163 23.022,12.165 23.027,12.168 23.032,12.17 23.037,12.173 
					23.042,12.175 23.047,12.178 23.052,12.181 23.057,12.183 23.062,12.185 23.067,12.188 23.072,12.19 23.077,12.193 
					23.082,12.195 23.087,12.198 23.092,12.2 23.097,12.203 23.1,12.205 23.104,12.208 23.11,12.21 23.114,12.213 23.12,12.216 
					23.125,12.218 23.127,12.22 23.132,12.223 23.137,12.225 23.142,12.228 23.145,12.23 23.15,12.233 23.155,12.236 23.157,12.238 
					23.162,12.241 23.167,12.243 23.17,12.246 23.175,12.248 23.177,12.25 23.182,12.253 23.185,12.255 23.189,12.258 
					23.192,12.261 23.197,12.263 23.2,12.266 23.203,12.268 23.207,12.27 23.21,12.273 23.212,12.276 23.214,12.278 23.22,12.281 
					23.222,12.283 23.225,12.286 23.227,12.288 23.23,12.291 23.232,12.293 23.235,12.296 23.24,12.298 23.242,12.3 23.245,12.306 
					23.247,12.308 23.25,12.311 23.252,12.313 23.255,12.315 23.257,12.318 23.26,12.323 23.262,12.326 23.265,12.328 
					23.267,12.333 23.27,12.338 23.272,12.341 23.275,12.346 23.278,12.353 23.28,12.358 23.283,12.366 23.285,12.376 
					23.287,12.391 23.287,12.421 23.285,12.438 23.283,12.448 23.28,12.456 23.278,12.461 23.275,12.469 23.272,12.474 
					23.27,12.479 23.267,12.481 23.265,12.486 23.262,12.489 23.26,12.494 23.257,12.496 23.255,12.499 23.252,12.504 23.25,12.506 
					23.247,12.509 23.245,12.511 23.242,12.513 23.24,12.516 23.237,12.519 23.235,12.521 23.23,12.524 23.227,12.526 
					23.225,12.529 23.222,12.531 23.217,12.534 23.214,12.536 23.21,12.539 23.205,12.541 23.203,12.543 23.197,12.546 
					23.192,12.549 23.187,12.551 23.185,12.554 23.177,12.556 23.172,12.559 23.167,12.561 23.162,12.564 23.155,12.566 
					23.147,12.569 23.139,12.571 23.132,12.574 23.125,12.576 23.114,12.579 23.104,12.581 23.094,12.584 23.079,12.586 
					23.064,12.589 23.044,12.591 23.009,12.594 22.957,12.594 22.896,12.591 22.861,12.589 22.839,12.586 22.816,12.584 
					22.799,12.581 22.784,12.579 22.771,12.576 22.759,12.574 22.746,12.571 22.736,12.569 22.724,12.566 22.716,12.564 
					22.706,12.561 22.696,12.559 22.689,12.556 22.681,12.554 22.671,12.551 22.663,12.549 22.656,12.546 22.648,12.543 
					22.641,12.541 22.636,12.539 22.628,12.536 22.621,12.534 22.613,12.531 22.608,12.529 22.601,12.526 22.596,12.524 
					22.588,12.521 22.581,12.519 22.576,12.516 22.571,12.513 22.563,12.511 22.558,12.509 22.55,12.506 22.546,12.504 
					22.541,12.501 22.533,12.499 22.528,12.496 22.523,12.494 22.518,12.491 22.513,12.489 22.506,12.486 22.501,12.484 
					22.495,12.481 22.49,12.479 22.486,12.476 22.481,12.474 22.476,12.471 22.471,12.469 22.466,12.466 22.46,12.463 
					22.453,12.463 22.45,12.471 22.448,12.486 22.445,12.501 22.443,12.516 22.441,12.534 22.438,12.549 22.435,12.564 
					22.433,12.579 22.43,12.597 22.428,12.611 22.425,12.626 22.423,12.641 22.42,12.656 22.418,12.674 22.416,12.689 
					22.413,12.704 22.411,12.719 22.408,12.734 22.405,12.749 22.403,12.767 22.4,12.782 22.398,12.797 22.396,12.812 
					22.393,12.826 22.39,12.842 22.387,12.859 22.385,12.874 22.383,12.89 22.383,12.902 22.39,12.904 22.396,12.907 22.4,12.91 
					22.408,12.912 22.413,12.915 22.42,12.917 22.425,12.92 22.433,12.922 22.441,12.925 22.448,12.927 22.453,12.93 22.463,12.932 
					22.471,12.935 22.478,12.937 22.486,12.939 22.493,12.942 22.503,12.944 22.511,12.947 22.52,12.95 22.531,12.952 
					22.541,12.955 22.55,12.957 22.561,12.96 22.571,12.962 22.583,12.965 22.593,12.967 22.606,12.97 22.619,12.972 22.631,12.975 
					22.643,12.977 22.659,12.98 22.673,12.982 22.691,12.985 22.706,12.987 22.724,12.99 22.744,12.992 22.766,12.995 
					22.789,12.997 22.819,13 22.856,13.002 23.042,13.002 23.074,13 23.102,12.997 23.125,12.995 23.142,12.992 23.16,12.99 
					23.175,12.987 23.187,12.985 23.203,12.982 23.214,12.98 23.227,12.977 23.237,12.975 23.25,12.972 23.26,12.97 23.27,12.967 
					23.28,12.965 23.29,12.962 23.297,12.96 23.308,12.957 23.315,12.955 23.322,12.952 23.33,12.95 23.338,12.947 23.345,12.944 
					23.353,12.942 23.36,12.939 23.367,12.937 23.373,12.935 23.38,12.932 23.387,12.93 23.393,12.927 23.4,12.925 23.405,12.922 
					23.41,12.92 23.418,12.917 23.423,12.915 23.428,12.912 23.433,12.91 23.44,12.907 23.445,12.904 23.45,12.902 23.455,12.899 
					23.46,12.897 23.466,12.895 23.47,12.892 23.475,12.89 23.48,12.887 23.483,12.884 23.488,12.882 23.493,12.879 23.498,12.877 
					23.5,12.874 23.506,12.872 23.51,12.87 23.515,12.867 23.518,12.864 23.523,12.862 23.526,12.859 23.531,12.857 23.533,12.854 
					23.538,12.852 23.543,12.849 23.545,12.847 23.548,12.844 23.553,12.842 23.555,12.839 23.561,12.837 23.563,12.834 
					23.566,12.832 23.57,12.83 23.573,12.826 23.578,12.825 23.58,12.822 23.583,12.819 23.586,12.817 23.59,12.814 23.593,12.812 
					23.596,12.809 23.598,12.807 23.603,12.804 23.606,12.802 23.608,12.799 23.611,12.797 23.613,12.794 23.616,12.792 
					23.618,12.789 23.623,12.786 23.625,12.784 23.628,12.782 23.63,12.779 23.633,12.777 23.636,12.774 23.638,12.772 
					23.641,12.769 23.643,12.767 23.646,12.764 23.648,12.762 23.65,12.759 23.653,12.757 23.656,12.754 23.659,12.752 
					23.661,12.749 23.663,12.747 23.666,12.742 23.668,12.739 23.671,12.737 23.673,12.734 23.676,12.731 23.678,12.729 
					23.681,12.727 23.683,12.722 23.686,12.719 23.688,12.717 23.691,12.714 23.693,12.709 23.696,12.706 23.698,12.704 
					23.701,12.701 23.703,12.697 23.706,12.694 23.708,12.689 23.711,12.686 23.713,12.684 23.716,12.679 23.718,12.676 
					23.721,12.671 23.723,12.669 23.726,12.664 23.728,12.662 23.731,12.656 23.733,12.652 23.736,12.649 23.739,12.644 
					23.741,12.639 23.744,12.634 23.746,12.631 23.749,12.626 23.751,12.621 23.753,12.616 23.756,12.611 23.759,12.607 
					23.761,12.601 23.763,12.597 23.766,12.589 23.769,12.584 23.771,12.579 23.773,12.571 23.776,12.566 23.778,12.559 
					23.781,12.554 23.784,12.546 23.786,12.539 23.789,12.531 23.791,12.524 23.793,12.516 23.796,12.506 23.799,12.496 
					23.801,12.486 23.804,12.476 23.806,12.463 23.808,12.451 23.811,12.436 23.814,12.418 23.816,12.396 23.819,12.348 
					23.819,12.321 23.816,12.281 23.814,12.261 23.811,12.246 23.808,12.233 23.806,12.223 23.804,12.213 23.801,12.203 
					23.799,12.195 23.796,12.188 23.793,12.181 23.791,12.173 23.789,12.165 23.786,12.16 23.784,12.153 23.781,12.148 
					23.778,12.143 23.776,12.138 23.773,12.133 23.771,12.128 23.769,12.123 23.766,12.118 23.763,12.113 23.761,12.108 
					23.759,12.103 23.756,12.1 23.753,12.095 23.751,12.09 23.749,12.088 23.746,12.083 23.744,12.08 23.741,12.075 23.739,12.073 
					23.736,12.067 23.733,12.065 23.731,12.062 23.728,12.058 23.726,12.055 23.723,12.05 23.721,12.048 23.718,12.045 
					23.716,12.042 23.713,12.037 23.711,12.035 23.708,12.033 23.706,12.03 23.703,12.027 23.701,12.025 23.698,12.02 
					23.696,12.017 23.693,12.015 23.691,12.013 23.688,12.01 23.686,12.007 23.683,12.005 23.681,12.003 23.678,12 23.676,11.997 
					23.673,11.995 23.671,11.993 23.668,11.99 23.666,11.988 23.663,11.985 23.661,11.982 23.659,11.98 23.656,11.977 
					23.653,11.975 23.65,11.973 23.648,11.97 23.643,11.967 23.641,11.965 23.638,11.962 23.636,11.96 23.633,11.957 23.63,11.955 
					23.628,11.952 23.623,11.95 23.621,11.947 23.618,11.945 23.616,11.942 23.611,11.94 23.608,11.937 23.606,11.935 
					23.603,11.932 23.598,11.93 23.596,11.927 23.593,11.925 23.588,11.922 23.586,11.92 23.58,11.917 23.578,11.915 23.576,11.912 
					23.57,11.91 23.568,11.907 23.563,11.905 23.561,11.902 23.555,11.9 23.553,11.897 23.548,11.895 23.545,11.892 23.541,11.89 
					23.538,11.887 23.533,11.885 23.531,11.882 23.526,11.88 23.523,11.877 23.518,11.875 23.513,11.872 23.51,11.87 23.506,11.867 
					23.5,11.865 23.498,11.862 23.493,11.86 23.488,11.857 23.483,11.855 23.478,11.852 23.475,11.85 23.47,11.847 23.466,11.844 
					23.46,11.842 23.455,11.839 23.453,11.837 23.448,11.835 23.443,11.832 23.438,11.83 23.433,11.827 23.428,11.824 
					23.423,11.822 23.418,11.82 23.413,11.817 23.408,11.815 23.403,11.812 23.398,11.81 23.393,11.807 23.387,11.804 
					23.383,11.802 23.377,11.799 23.373,11.797 23.367,11.794 23.363,11.792 23.358,11.79 23.353,11.787 23.347,11.784 
					23.343,11.782 23.338,11.779 23.335,11.777 23.33,11.775 23.325,11.772 23.32,11.769 23.315,11.767 23.31,11.764 23.305,11.762 
					23.303,11.759 23.297,11.757 23.292,11.754 23.287,11.752 23.283,11.749 23.28,11.747 23.275,11.744 23.27,11.742 
					23.265,11.739 23.262,11.737 23.257,11.734 23.252,11.732 23.25,11.729 23.245,11.727 23.24,11.724 23.237,11.722 
					23.232,11.719 23.23,11.717 23.225,11.714 23.22,11.712 23.217,11.709 23.212,11.707 23.21,11.704 23.207,11.702 23.203,11.699 
					23.2,11.697 23.195,11.694 23.192,11.692 23.189,11.689 23.187,11.687 23.182,11.684 23.18,11.682 23.177,11.679 23.175,11.677 
					23.17,11.674 23.167,11.672 23.165,11.669 23.162,11.666 23.16,11.664 23.157,11.661 23.155,11.659 23.152,11.657 23.15,11.654 
					23.147,11.649 23.145,11.647 23.142,11.644 23.139,11.639 23.137,11.637 23.134,11.632 23.132,11.629 23.13,11.624 
					23.127,11.619 23.125,11.614 23.122,11.607 23.12,11.599 23.117,11.584 23.117,11.559 23.12,11.546 23.122,11.536 
					23.125,11.529 23.127,11.524 23.13,11.519 23.132,11.514 23.134,11.511 23.137,11.506 23.139,11.501 23.142,11.499 
					23.145,11.496 23.147,11.494 23.15,11.489 23.152,11.486 23.155,11.484 23.157,11.481 23.16,11.479 23.162,11.476 
					23.167,11.474 23.17,11.471 23.172,11.469 23.175,11.466 23.18,11.464 23.182,11.461 23.187,11.459 23.189,11.456 
					23.195,11.454 23.2,11.451 23.203,11.449 23.207,11.446 23.212,11.444 23.217,11.441 23.225,11.439 23.23,11.436 23.235,11.434 
					23.242,11.431 23.25,11.429 23.257,11.426 23.267,11.423 23.275,11.421 23.287,11.419 23.297,11.416 23.313,11.414 
					23.333,11.411 23.358,11.409 23.472,11.409 23.506,11.411 23.528,11.414 23.548,11.416 23.566,11.419 23.578,11.421 
					23.59,11.423 23.603,11.426 23.613,11.429 23.625,11.431 23.636,11.434 23.646,11.436 23.653,11.439 23.663,11.441 
					23.671,11.444 23.681,11.446 23.688,11.449 23.696,11.451 23.703,11.454 23.711,11.456 23.716,11.459 23.723,11.461 
					23.731,11.464 23.739,11.466 23.744,11.469 23.751,11.471 23.756,11.474 23.763,11.476 23.769,11.479 23.773,11.481 
					23.778,11.484 23.784,11.486 23.789,11.489 23.796,11.491 23.801,11.494 23.806,11.496 23.811,11.499 23.816,11.501 
					23.824,11.501 23.826,11.486 23.829,11.471 23.831,11.456 23.834,11.439 23.836,11.423 23.839,11.409 23.841,11.394 
					23.843,11.378 23.846,11.363 23.849,11.346 23.851,11.331 23.854,11.316 23.856,11.301 23.859,11.286 23.861,11.271 
					23.863,11.253 23.866,11.238 23.869,11.22 23.871,11.206 23.873,11.191 23.876,11.176 23.879,11.16 23.881,11.146 
					23.884,11.128 23.886,11.113 23.889,11.098 23.891,11.083 23.891,11.078 23.886,11.075 23.879,11.073 23.871,11.07 
					23.866,11.068 23.859,11.065 23.851,11.063 23.843,11.06 23.836,11.058 23.829,11.055 23.821,11.053 23.814,11.05 
					23.804,11.048 23.796,11.045 23.789,11.043 23.778,11.04 23.769,11.038 23.759,11.035 23.749,11.033 23.739,11.03 
					23.728,11.028 23.718,11.025 23.706,11.023 23.693,11.02 23.681,11.017 23.666,11.015 23.653,11.013 23.636,11.01 
					23.621,11.008 23.6,11.005 23.578,11.002 23.551,11 23.515,10.998 23.363,10.998 				"/>
			</g>
			<g>
				<path fill-rule="evenodd" clip-rule="evenodd" fill="#084793" d="M21.145,11.035l-0.002,0.007l-0.003,0.005l-0.003,0.008
					l-0.002,0.007l-0.003,0.005l-0.002,0.007l-0.003,0.008l-0.003,0.005l-0.002,0.008l-0.003,0.007l-0.002,0.008l-0.003,0.005
					l-0.003,0.008L21.11,11.13l-0.003,0.005l-0.002,0.007l-0.003,0.008L21.1,11.155l-0.002,0.007l-0.003,0.008l-0.002,0.005
					l-0.003,0.007l-0.002,0.008l-0.002,0.007l-0.002,0.005l-0.003,0.008l-0.002,0.007l-0.003,0.005l-0.003,0.008l-0.002,0.008
					l-0.003,0.007l-0.003,0.005l-0.002,0.008l-0.002,0.008l-0.002,0.005l-0.002,0.008l-0.003,0.008l-0.002,0.005l-0.003,0.008
					l-0.002,0.008l-0.003,0.005l-0.002,0.007l-0.002,0.008l-0.002,0.007l-0.002,0.005l-0.003,0.008l-0.002,0.008l-0.003,0.005
					l-0.002,0.008l-0.002,0.008l-0.002,0.005l-0.002,0.008l-0.003,0.007l-0.003,0.008l-0.002,0.005l-0.003,0.008l-0.002,0.007
					l-0.003,0.005l-0.002,0.007l-0.002,0.008l-0.003,0.005l-0.002,0.007l-0.002,0.007l-0.002,0.008l-0.003,0.005l-0.003,0.008
					l-0.002,0.007l-0.003,0.005l-0.003,0.008l-0.002,0.007l-0.003,0.005l-0.002,0.008l-0.002,0.008l-0.002,0.005l-0.003,0.008
					l-0.003,0.007l-0.002,0.008l-0.003,0.005l-0.002,0.008l-0.003,0.007l-0.002,0.005l-0.002,0.008l-0.003,0.008l-0.002,0.007
					l-0.003,0.005l-0.002,0.008l-0.002,0.007l-0.003,0.005l-0.002,0.008l-0.002,0.008l-0.003,0.005l-0.002,0.008l-0.002,0.008
					l-0.002,0.005l-0.003,0.008l-0.002,0.008l-0.003,0.007l-0.003,0.005l-0.002,0.008l-0.003,0.007l-0.002,0.005l-0.002,0.007
					l-0.002,0.008l-0.003,0.005l-0.003,0.008l-0.002,0.007l-0.002,0.005l-0.003,0.007l-0.002,0.008l-0.003,0.007l-0.002,0.005
					l-0.003,0.008l-0.002,0.007l-0.003,0.005l-0.002,0.008l-0.002,0.007l-0.003,0.007l-0.002,0.005l-0.003,0.007l-0.002,0.008
					l-0.003,0.005l-0.003,0.008l-0.002,0.007l-0.002,0.005l-0.002,0.007l-0.003,0.008l-0.002,0.005L20.824,11.9l-0.003,0.008
					l-0.002,0.008l-0.003,0.005l-0.002,0.007l-0.002,0.007l-0.003,0.005l-0.002,0.008l-0.003,0.007l-0.002,0.005l-0.003,0.008
					l-0.003,0.008l-0.003,0.005l-0.002,0.008l-0.002,0.007l-0.003,0.008l-0.002,0.005l-0.002,0.007l-0.003,0.008l-0.002,0.005
					l-0.002,0.008l-0.003,0.007l-0.002,0.008l-0.002,0.005l-0.003,0.008l-0.002,0.008l-0.002,0.005l-0.003,0.008l-0.002,0.007
					l-0.002,0.005l-0.003,0.008l-0.002,0.007l-0.002,0.005l-0.003,0.008l-0.003,0.007l-0.003,0.008l-0.002,0.005l-0.003,0.008
					l-0.002,0.007l-0.003,0.005l-0.002,0.007l-0.003,0.008l-0.002,0.005l-0.002,0.008l-0.003,0.007l-0.002,0.007l-0.003,0.005
					l-0.002,0.007l-0.002,0.007l-0.003,0.005l-0.002,0.007l-0.003,0.008l-0.003,0.005l-0.003,0.007l-0.002,0.008l-0.002,0.007
					l-0.002,0.005l-0.003,0.007l-0.002,0.008l-0.003,0.005l-0.002,0.008l-0.002,0.007l-0.002,0.005l-0.003,0.008l-0.003,0.007
					l-0.002,0.008l-0.003,0.005l-0.002-0.012l-0.003-0.012l-0.002-0.013l-0.002-0.012l-0.003-0.013l-0.002-0.013l-0.003-0.012
					l-0.002-0.012l-0.002-0.015l-0.003-0.013l-0.002-0.013l-0.003-0.012l-0.002-0.012l-0.003-0.013l-0.003-0.015l-0.002-0.012
					l-0.003-0.013l-0.002-0.013l-0.002-0.013l-0.002-0.013l-0.002-0.002c-0.003-0.004-0.05-0.114-0.058-0.131
					c-0.022-0.043-0.042-0.08-0.066-0.122c-0.046-0.079-0.102-0.146-0.159-0.214c-0.098-0.117-0.272-0.261-0.412-0.335v0.005
					l0.003,0.01l0.002,0.008l0.002,0.01l0.002,0.01l0.003,0.01l0.002,0.01l0.002,0.008l0.002,0.01l0.003,0.01l0.002,0.01
					l0.003,0.007l0.002,0.01l0.002,0.01l0.003,0.01l0.003,0.01l0.002,0.008l0.002,0.01l0.003,0.01l0.002,0.01l0.003,0.01
					l0.003,0.007l0.002,0.01l0.002,0.01l0.002,0.01l0.003,0.007l0.002,0.01l0.002,0.01l0.003,0.01l0.002,0.01l0.003,0.008
					l0.002,0.01l0.002,0.01l0.003,0.01l0.002,0.01L20,11.621l0.002,0.01l0.003,0.01l0.003,0.01l0.002,0.008l0.003,0.01l0.002,0.01
					l0.003,0.01l0.003,0.008l0.002,0.01l0.003,0.01l0.002,0.01l0.002,0.01l0.002,0.008l0.002,0.01l0.003,0.01l0.002,0.01l0.003,0.01
					l0.002,0.008l0.002,0.01l0.002,0.01l0.003,0.01l0.002,0.008l0.002,0.01l0.003,0.01l0.002,0.01l0.002,0.01l0.003,0.008
					l0.002,0.01l0.003,0.01l0.002,0.01l0.003,0.01l0.002,0.007l0.003,0.01l0.003,0.01l0.002,0.01l0.002,0.007l0.003,0.01l0.002,0.01
					l0.003,0.01l0.002,0.01l0.003,0.007l0.003,0.01l0.002,0.01l0.003,0.01l0.003,0.01l0.002,0.008l0.002,0.01l0.003,0.01l0.002,0.01
					l0.003,0.01l0.003,0.008l0.002,0.01l0.003,0.01l0.002,0.008l0.002,0.01l0.003,0.01l0.002,0.01l0.002,0.01l0.002,0.008
					l0.003,0.01l0.002,0.01l0.002,0.01l0.003,0.01l0.002,0.007l0.002,0.01l0.002,0.01l0.002,0.01l0.003,0.008l0.002,0.01l0.002,0.01
					l0.002,0.01l0.002,0.01l0.003,0.007l0.002,0.01l0.003,0.01l0.002,0.01l0.003,0.01l0.002,0.007l0.002,0.01l0.002,0.01l0.002,0.01
					l0.003,0.01l0.003,0.007l0.002,0.01l0.002,0.01l0.003,0.01l0.002,0.007l0.002,0.01l0.003,0.01l0.003,0.01l0.002,0.01
					l0.003,0.007l0.002,0.01l0.003,0.01l0.003,0.01l0.002,0.01l0.003,0.007l0.002,0.01l0.003,0.01l0.002,0.01l0.002,0.008
					l0.003,0.01l0.002,0.01l0.003,0.01l0.003,0.007l0.002,0.01l0.002,0.01l0.002,0.01l0.002,0.01l0.002,0.008l0.003,0.01l0.003,0.01
					l0.002,0.01l0.002,0.007l0.002,0.01l0.003,0.01l0.002,0.01l0.003,0.01l0.002,0.008l0.002,0.01l0.003,0.01l0.002,0.01l0.003,0.01
					l0.003,0.008l0.002,0.01l0.003,0.01l0.002,0.01l0.003,0.01l0.003,0.007l0.002,0.01l0.003,0.01l0.002,0.01l0.003,0.008
					l0.003,0.01l0.002,0.01l0.003,0.011l0.002,0.01l0.002,0.007l0.002,0.01l0.003,0.01l0.003,0.01l0.002,0.01l0.003,0.005h0.411
					l0.123-0.003l0.002-0.003l0.003-0.007l0.002-0.005l0.003-0.008l0.003-0.005l0.002-0.005l0.003-0.007l0.002-0.005l0.002-0.007
					l0.002-0.005l0.003-0.007l0.002-0.005l0.002-0.007l0.003-0.005l0.002-0.005l0.002-0.007l0.003-0.005l0.002-0.008l0.003-0.005
					l0.002-0.007l0.002-0.005l0.003-0.007l0.002-0.005l0.003-0.008l0.002-0.005l0.003-0.005l0.003-0.007l0.002-0.005l0.002-0.007
					l0.002-0.005l0.003-0.008l0.002-0.005l0.003-0.008l0.003-0.005l0.002-0.008l0.003-0.005l0.003-0.005l0.002-0.008l0.002-0.005
					l0.002-0.008l0.003-0.005l0.002-0.007l0.002-0.005l0.003-0.008l0.002-0.005l0.003-0.007l0.002-0.005l0.003-0.007l0.003-0.005
					l0.002-0.005l0.002-0.007l0.002-0.005l0.002-0.007l0.003-0.005l0.002-0.008l0.003-0.005l0.002-0.007l0.002-0.005l0.002-0.005
					l0.002-0.007l0.003-0.005l0.002-0.008l0.003-0.005l0.002-0.007l0.003-0.005l0.002-0.007l0.002-0.005l0.002-0.008l0.002-0.005
					l0.003-0.005l0.003-0.007l0.002-0.005l0.003-0.007l0.003-0.005l0.002-0.008l0.003-0.005l0.002-0.008l0.002-0.005l0.002-0.007
					l0.003-0.005l0.002-0.008l0.003-0.005l0.002-0.005l0.002-0.008l0.003-0.005l0.002-0.008l0.003-0.005l0.002-0.008l0.003-0.005
					l0.003-0.007l0.002-0.005l0.003-0.005l0.002-0.008l0.003-0.005l0.003-0.008l0.002-0.005l0.003-0.007l0.002-0.005l0.003-0.008
					l0.003-0.005l0.002-0.007l0.003-0.005l0.002-0.005l0.003-0.007l0.002-0.005l0.002-0.007l0.003-0.006l0.002-0.007l0.003-0.005
					l0.002-0.008l0.002-0.005l0.003-0.008l0.003-0.005l0.002-0.008l0.002-0.005l0.003-0.005l0.002-0.008l0.003-0.005l0.003-0.008
					l0.002-0.005l0.002-0.007l0.002-0.005l0.003-0.007l0.003-0.005l0.002-0.005l0.003-0.008l0.003-0.005l0.002-0.007l0.002-0.005
					l0.003-0.007l0.003-0.005l0.002-0.007l0.003-0.005l0.002-0.007l0.002-0.005l0.003-0.005l0.002-0.007l0.003-0.005l0.003-0.007
					l0.003-0.005l0.003-0.007l0.002-0.005l0.003-0.008l0.002-0.005l0.003-0.007l0.002-0.005l0.003-0.008l0.003-0.005l0.002-0.005
					l0.003-0.008l0.002-0.005l0.002-0.008l0.002-0.005l0.003-0.008l0.003-0.005l0.002-0.008l0.003-0.005l0.003-0.007l0.002-0.005
					l0.002-0.005l0.002-0.008l0.003-0.005l0.002-0.007l0.003-0.005l0.002-0.008l0.003-0.005l0.002-0.007l0.002-0.005l0.003-0.005
					l0.003-0.007l0.002-0.005l0.002-0.007l0.002-0.005l0.003-0.007L21.33,11.9l0.002-0.008l0.003-0.005l0.002-0.008l0.003-0.005
					l0.002-0.005l0.003-0.007l0.002-0.005l0.002-0.007l0.003-0.005l0.002-0.007l0.002-0.005l0.003-0.008l0.002-0.005l0.002-0.007
					l0.002-0.005l0.003-0.008l0.002-0.005l0.003-0.005l0.002-0.008l0.002-0.005l0.002-0.008l0.003-0.005l0.002-0.007l0.003-0.005
					l0.002-0.007l0.003-0.005l0.002-0.005l0.003-0.007l0.002-0.005l0.002-0.008l0.002-0.005l0.003-0.007l0.002-0.005l0.002-0.008
					l0.003-0.005l0.002-0.008l0.002-0.005l0.002-0.008l0.002-0.005l0.002-0.005l0.003-0.008l0.003-0.005l0.003-0.008l0.002-0.005
					l0.003-0.008l0.002-0.005l0.003-0.008l0.003-0.005l0.002-0.007l0.003-0.005l0.002-0.005l0.002-0.008l0.003-0.005l0.002-0.008
					l0.003-0.005l0.002-0.007l0.003-0.005l0.003-0.007l0.003-0.005l0.002-0.005l0.002-0.007l0.003-0.005l0.003-0.007l0.002-0.005
					l0.002-0.007l0.002-0.005l0.003-0.008l0.002-0.005l0.002-0.008l0.003-0.005l0.002-0.005l0.003-0.007l0.002-0.005l0.003-0.008
					l0.003-0.005l0.002-0.008l0.003-0.005l0.002-0.008l0.002-0.005l0.002-0.008l0.002-0.005l0.003-0.008l0.002-0.005l0.003-0.005
					l0.002-0.008l0.002-0.005l0.003-0.007l0.002-0.005l0.003-0.007l0.002-0.005l0.003-0.008l0.002-0.005l0.003-0.005l0.003-0.008
					l0.002-0.005l0.002-0.007l0.002-0.005l0.003-0.008l0.002-0.005l0.003-0.007l0.002-0.005l0.003-0.008l0.002-0.005l0.003-0.005
					l0.002-0.008l0.003-0.005l0.002-0.008l0.003-0.005l0.002-0.007l0.003-0.005l0.002-0.007l0.002-0.005l0.003-0.008l0.002-0.005
					l0.003-0.007l0.002-0.005l0.002-0.005l0.003-0.007l0.003-0.005l0.002-0.008l0.002-0.005l0.003-0.008l0.002-0.005l0.002-0.007
					l0.003-0.005l0.002-0.005l0.002-0.008l0.003-0.005l0.002-0.008l0.003-0.005l0.002-0.008l0.003-0.005l0.003-0.008l0.002-0.005
					l0.003-0.007l0.002-0.005l0.003-0.005l0.002-0.007l0.002-0.005l0.002-0.007v-0.005h-0.534L21.145,11.035z"/>
			</g>
			<g>
				<polygon fill-rule="evenodd" clip-rule="evenodd" fill="#084793" points="21.879,11.035 21.876,11.05 21.874,11.065 
					21.872,11.08 21.869,11.096 21.867,11.113 21.864,11.128 21.861,11.143 21.859,11.158 21.857,11.173 21.854,11.188 
					21.852,11.206 21.849,11.22 21.846,11.236 21.844,11.251 21.842,11.268 21.839,11.283 21.836,11.298 21.834,11.313 
					21.831,11.331 21.829,11.346 21.827,11.361 21.824,11.376 21.822,11.391 21.819,11.406 21.816,11.423 21.814,11.439 
					21.812,11.454 21.809,11.469 21.807,11.484 21.804,11.499 21.801,11.516 21.799,11.531 21.797,11.546 21.794,11.561 
					21.792,11.576 21.789,11.592 21.787,11.609 21.784,11.624 21.781,11.639 21.779,11.654 21.777,11.672 21.774,11.687 
					21.772,11.702 21.769,11.717 21.766,11.734 21.764,11.749 21.761,11.764 21.759,11.779 21.756,11.794 21.754,11.81 
					21.752,11.827 21.749,11.842 21.746,11.857 21.744,11.872 21.741,11.887 21.739,11.902 21.736,11.92 21.734,11.935 
					21.731,11.95 21.729,11.965 21.726,11.98 21.724,11.995 21.721,12.013 21.719,12.027 21.716,12.042 21.714,12.058 
					21.712,12.073 21.709,12.09 21.706,12.105 21.704,12.12 21.701,12.138 21.699,12.153 21.696,12.168 21.694,12.183 
					21.691,12.198 21.688,12.213 21.686,12.23 21.684,12.246 21.681,12.261 21.679,12.276 21.676,12.291 21.674,12.306 
					21.671,12.323 21.669,12.338 21.666,12.353 21.664,12.368 21.661,12.383 21.658,12.398 21.656,12.416 21.653,12.431 
					21.651,12.446 21.649,12.461 21.646,12.476 21.644,12.494 21.641,12.509 21.639,12.524 21.636,12.541 21.634,12.556 
					21.631,12.571 21.629,12.586 21.626,12.601 21.623,12.616 21.621,12.634 21.619,12.649 21.616,12.664 21.614,12.679 
					21.611,12.694 21.608,12.709 21.606,12.727 21.603,12.742 21.601,12.757 21.599,12.772 21.596,12.786 21.594,12.802 
					21.591,12.819 21.588,12.834 21.586,12.849 21.583,12.864 21.581,12.879 21.578,12.897 21.576,12.912 21.573,12.927 
					21.571,12.944 21.569,12.96 21.569,12.975 22.072,12.975 22.075,12.965 22.077,12.95 22.08,12.935 22.082,12.92 22.084,12.904 
					22.087,12.89 22.089,12.872 22.092,12.857 22.095,12.842 22.097,12.826 22.1,12.812 22.102,12.797 22.105,12.779 22.107,12.764 
					22.11,12.749 22.112,12.734 22.115,12.719 22.117,12.704 22.119,12.686 22.122,12.671 22.125,12.656 22.127,12.641 
					22.13,12.626 22.132,12.609 22.135,12.594 22.137,12.579 22.14,12.561 22.142,12.546 22.144,12.531 22.147,12.516 22.15,12.501 
					22.153,12.486 22.155,12.469 22.157,12.454 22.16,12.438 22.162,12.424 22.164,12.408 22.167,12.393 22.17,12.376 
					22.173,12.361 22.175,12.346 22.177,12.331 22.18,12.315 22.182,12.3 22.185,12.283 22.188,12.268 22.19,12.253 22.192,12.238 
					22.195,12.223 22.198,12.205 22.2,12.19 22.203,12.175 22.205,12.158 22.207,12.143 22.21,12.128 22.213,12.113 22.215,12.098 
					22.217,12.083 22.22,12.065 22.222,12.05 22.225,12.035 22.228,12.02 22.23,12.005 22.232,11.99 22.235,11.975 22.237,11.957 
					22.24,11.942 22.242,11.927 22.245,11.912 22.247,11.897 22.25,11.882 22.252,11.865 22.255,11.85 22.258,11.835 22.26,11.82 
					22.263,11.804 22.265,11.787 22.267,11.772 22.27,11.757 22.272,11.739 22.275,11.724 22.277,11.709 22.28,11.694 
					22.283,11.679 22.285,11.661 22.288,11.647 22.29,11.632 22.293,11.617 22.296,11.601 22.298,11.587 22.3,11.571 22.302,11.554 
					22.305,11.539 22.308,11.524 22.31,11.509 22.313,11.494 22.315,11.479 22.317,11.461 22.32,11.446 22.323,11.431 
					22.325,11.416 22.328,11.401 22.33,11.383 22.333,11.369 22.335,11.354 22.338,11.336 22.34,11.321 22.343,11.306 
					22.345,11.291 22.348,11.276 22.35,11.258 22.353,11.243 22.356,11.228 22.358,11.213 22.36,11.198 22.363,11.183 
					22.365,11.168 22.368,11.151 22.37,11.136 22.373,11.12 22.375,11.105 22.378,11.09 22.38,11.075 22.383,11.058 22.385,11.043 
					22.385,11.03 21.882,11.03 				"/>
			</g>
			<g>
				<path fill-rule="evenodd" clip-rule="evenodd" fill="#F2AF17" d="M19.391,11.033l-0.002,0.015l-0.003,0.015v0.013l0.01,0.003
					l0.007,0.003l0.01,0.002l0.01,0.003l0.007,0.003l0.01,0.002l0.01,0.003l0.007,0.003l0.008,0.002l0.01,0.003l0.008,0.002
					l0.008,0.003l0.01,0.003l0.007,0.003l0.008,0.002l0.007,0.003l0.008,0.003l0.007,0.003l0.008,0.002l0.008,0.003l0.007,0.003
					l0.008,0.002l0.005,0.003l0.007,0.003l0.008,0.002l0.007,0.002l0.008,0.003l0.005,0.003l0.008,0.002l0.008,0.003l0.005,0.003
					l0.007,0.002l0.005,0.002l0.008,0.002l0.007,0.003l0.006,0.003l0.005,0.002l0.007,0.002l0.005,0.003l0.007,0.002l0.006,0.002
					l0.005,0.003l0.008,0.002l0.005,0.003l0.005,0.003l0.007,0.003l0.005,0.003l0.005,0.003l0.005,0.002l0.007,0.003l0.005,0.002
					l0.005,0.003l0.005,0.002l0.005,0.002l0.005,0.002l0.005,0.003l0.005,0.002l0.008,0.003l0.005,0.003l0.005,0.003l0.005,0.002
					l0.005,0.003l0.005,0.002l0.005,0.002l0.005,0.003l0.005,0.002l0.005,0.003l0.003,0.002l0.005,0.003l0.005,0.002l0.006,0.002
					l0.005,0.003l0.005,0.003l0.005,0.002l0.005,0.003l0.002,0.003l0.005,0.002l0.005,0.002l0.005,0.003l0.002,0.002l0.005,0.003
					l0.005,0.003l0.005,0.003l0.003,0.003h0.005c0.14,0.074,0.314,0.218,0.412,0.335c0.057,0.068,0.113,0.135,0.159,0.214
					c0.024,0.042,0.044,0.079,0.066,0.122c0.008,0.016,0.055,0.127,0.058,0.131v-0.01l-0.003-0.012l-0.002-0.013l-0.003-0.013
					l-0.002-0.012l-0.002-0.013l-0.002-0.012l-0.003-0.015l-0.002-0.013l-0.002-0.013l-0.003-0.012l-0.003-0.013l-0.002-0.013
					l-0.002-0.012L20.571,11.9l-0.003-0.012l-0.002-0.013l-0.002-0.012l-0.003-0.013l-0.002-0.013l-0.002-0.015l-0.002-0.012
					l-0.003-0.013l-0.002-0.013l-0.002-0.012l-0.003-0.013l-0.002-0.012l-0.003-0.013l-0.003-0.012l-0.002-0.015l-0.003-0.01
					l-0.002-0.012l-0.002-0.012l-0.003-0.015l-0.002-0.013l-0.002-0.013l-0.003-0.012l-0.002-0.013l-0.002-0.013l-0.003-0.013
					l-0.003-0.012l-0.002-0.012l-0.003-0.015l-0.002-0.01l-0.003-0.013l-0.002-0.015l-0.002-0.013l-0.003-0.012l-0.002-0.012
					l-0.002-0.013l-0.003-0.012l-0.003-0.013l-0.003-0.012l-0.002-0.013l-0.003-0.015l-0.002-0.01l-0.002-0.012l-0.003-0.015
					l-0.002-0.01l-0.003-0.015l-0.002-0.013l-0.003-0.012l-0.003-0.012l-0.002-0.013l-0.002-0.012l-0.002-0.013l-0.002-0.012
					l-0.003-0.015l-0.003-0.01l-0.003-0.015l-0.002-0.01l-0.003-0.007l-0.002-0.007l-0.003-0.008l-0.003-0.008l-0.002-0.005
					l-0.003-0.005l-0.003-0.005l-0.003-0.005l-0.002-0.005l-0.002-0.005l-0.003-0.003l-0.002-0.005l-0.003-0.003l-0.002-0.005
					l-0.002-0.002l-0.002-0.003l-0.003-0.005L20.386,11.1l-0.002-0.003l-0.003-0.002l-0.002-0.003l-0.002-0.003l-0.003-0.002
					l-0.002-0.003l-0.002-0.003l-0.003-0.002l-0.005-0.003l-0.002-0.003l-0.003-0.002L20.35,11.07l-0.003-0.002l-0.005-0.003
					l-0.005-0.003l-0.002-0.002l-0.005-0.003l-0.005-0.002l-0.005-0.002l-0.008-0.003l-0.008-0.003L20.3,11.045l-0.007-0.002
					l-0.01-0.002l-0.01-0.002l-0.012-0.003l-0.02-0.003l-0.025-0.002h-0.822L19.391,11.033z"/>
			</g>
		</g>
		<g>
			<g>
				<g>
					<path fill-rule="evenodd" clip-rule="evenodd" fill="#0073A5" d="M30.768,12.477c0,0.08-0.052,0.118-0.143,0.118h-0.174v-0.08
						h0.174c0.017,0,0.029-0.003,0.035-0.008c0.006-0.006,0.011-0.014,0.011-0.024c0-0.011-0.006-0.022-0.011-0.027
						c-0.006-0.006-0.015-0.008-0.032-0.008c-0.083-0.003-0.188,0.003-0.188-0.117c0-0.053,0.035-0.112,0.129-0.112h0.179v0.08
						h-0.165c-0.017,0-0.028,0-0.035,0.006c-0.008,0.008-0.014,0.017-0.014,0.029c0,0.014,0.008,0.023,0.018,0.027
						c0.011,0.003,0.022,0.006,0.035,0.006h0.049c0.05,0,0.083,0.011,0.105,0.03C30.757,12.415,30.768,12.439,30.768,12.477
						 M30.39,12.395c-0.022-0.018-0.055-0.03-0.105-0.03h-0.049c-0.013,0-0.024-0.003-0.035-0.006
						c-0.01-0.004-0.018-0.013-0.018-0.027c0-0.013,0.003-0.021,0.014-0.029c0.007-0.006,0.018-0.006,0.035-0.006h0.165v-0.08
						h-0.179c-0.097,0-0.129,0.059-0.129,0.112c0,0.119,0.105,0.114,0.188,0.117c0.017,0,0.027,0.003,0.032,0.008
						c0.006,0.004,0.011,0.015,0.011,0.027c0,0.01-0.006,0.018-0.011,0.024c-0.008,0.006-0.018,0.008-0.035,0.008H30.1v0.08h0.174
						c0.091,0,0.143-0.038,0.143-0.118C30.417,12.439,30.405,12.415,30.39,12.395 M30.045,12.517h-0.212v-0.076h0.207v-0.076h-0.207
						v-0.069h0.212v-0.079h-0.3v0.376h0.3V12.517z M29.649,12.237c-0.029-0.015-0.064-0.018-0.111-0.018h-0.206v0.376h0.091v-0.138
						h0.097c0.032,0,0.05,0.003,0.064,0.017C29.6,12.492,29.6,12.524,29.6,12.55v0.045h0.09v-0.073c0-0.034-0.003-0.051-0.014-0.069
						c-0.008-0.011-0.024-0.025-0.046-0.032c0.025-0.008,0.064-0.041,0.064-0.1C29.694,12.277,29.678,12.253,29.649,12.237
						 M29.139,12.218h-0.287l-0.116,0.124l-0.109-0.124h-0.363v0.376h0.357l0.115-0.124l0.111,0.124h0.174v-0.126h0.113
						c0.077,0,0.156-0.021,0.156-0.126C29.289,12.239,29.209,12.218,29.139,12.218 M29.576,12.374
						c-0.014,0.006-0.027,0.006-0.043,0.006l-0.109,0.003v-0.086h0.109c0.017,0,0.032,0,0.043,0.007
						c0.011,0.006,0.018,0.017,0.018,0.032C29.594,12.353,29.587,12.366,29.576,12.374 M29.139,12.392H29.02v-0.095h0.119
						c0.032,0,0.053,0.013,0.053,0.045C29.192,12.374,29.171,12.392,29.139,12.392 M28.793,12.406l0.139-0.147v0.303L28.793,12.406z
						 M28.574,12.517h-0.223v-0.076h0.199v-0.076h-0.199v-0.069h0.226l0.1,0.109L28.574,12.517z M30.519,11.946H30.39l-0.17-0.282
						v0.282h-0.182l-0.035-0.083h-0.188l-0.035,0.083h-0.105c-0.043,0-0.099-0.01-0.132-0.042c-0.029-0.032-0.046-0.076-0.046-0.143
						c0.001-0.056,0.008-0.107,0.049-0.147c0.027-0.029,0.076-0.044,0.137-0.044h0.085v0.081h-0.085
						c-0.032,0-0.052,0.006-0.07,0.021c-0.017,0.017-0.024,0.046-0.024,0.086c0,0.041,0.007,0.07,0.024,0.09
						c0.013,0.013,0.038,0.018,0.062,0.018h0.041l0.129-0.296h0.133l0.151,0.355V11.57h0.139l0.158,0.261V11.57h0.092V11.946z
						 M29.453,11.57h-0.091v0.376h0.091V11.57z M29.262,11.587c-0.029-0.017-0.062-0.017-0.108-0.017h-0.206v0.376h0.088V11.81
						h0.097c0.032,0,0.053,0.003,0.067,0.015c0.015,0.02,0.013,0.052,0.013,0.073v0.048h0.092v-0.074
						c0-0.032-0.003-0.049-0.017-0.067c-0.008-0.011-0.024-0.024-0.043-0.032c0.025-0.011,0.064-0.041,0.064-0.1
						C29.31,11.629,29.292,11.605,29.262,11.587 M28.884,11.869h-0.21v-0.076h0.207v-0.077h-0.207v-0.067h0.21V11.57h-0.301v0.376
						h0.301V11.869z M28.516,11.57h-0.147l-0.111,0.256L28.14,11.57h-0.144v0.355l-0.154-0.355h-0.133l-0.161,0.376h0.097
						l0.034-0.083h0.189l0.034,0.083h0.184v-0.295l0.132,0.295h0.077l0.132-0.295v0.295h0.091V11.57z M29.971,11.783l-0.062-0.149
						l-0.062,0.149H29.971z M29.192,11.723c-0.014,0.008-0.027,0.008-0.045,0.008h-0.111v-0.083h0.111c0.015,0,0.034,0,0.045,0.006
						c0.011,0.007,0.017,0.018,0.017,0.035C29.209,11.705,29.203,11.719,29.192,11.723 M27.71,11.783l0.063-0.149l0.062,0.149H27.71
						z M30.746,10.389h-3.201v1.356l0.109-0.25h0.234l0.032,0.062v-0.062h0.273l0.062,0.133l0.06-0.133h0.871
						c0.041,0,0.076,0.007,0.102,0.03v-0.03h0.24v0.03c0.039-0.022,0.091-0.03,0.15-0.03h0.346l0.032,0.062v-0.062h0.255
						l0.038,0.062v-0.062h0.249v0.527h-0.252l-0.049-0.08v0.08h-0.314l-0.035-0.086h-0.077l-0.035,0.086h-0.164
						c-0.064,0-0.112-0.015-0.144-0.032v0.032h-0.389v-0.121c0-0.017-0.003-0.02-0.014-0.02h-0.013v0.14H28.36v-0.067l-0.027,0.067
						h-0.158l-0.027-0.065v0.065h-0.304l-0.032-0.086h-0.077L27.7,12.022h-0.155v1.589h3.201v-0.964
						c-0.034,0.015-0.083,0.024-0.13,0.024h-0.234v-0.032c-0.027,0.021-0.076,0.032-0.12,0.032h-0.735V12.55
						c0-0.017-0.003-0.017-0.017-0.017h-0.013v0.138h-0.242v-0.143c-0.041,0.02-0.085,0.02-0.126,0.02h-0.027v0.124h-0.296
						l-0.07-0.081l-0.077,0.081h-0.475v-0.528h0.483l0.069,0.081l0.076-0.081h0.325c0.038,0,0.1,0.006,0.126,0.032v-0.032h0.29
						c0.029,0,0.085,0.006,0.123,0.032v-0.032h0.437v0.032c0.025-0.021,0.07-0.032,0.111-0.032h0.244v0.032
						c0.027-0.018,0.064-0.032,0.113-0.032h0.165V10.389z"/>
				</g>
			</g>
		</g>
	</g>
</g>
</svg>
