<svg xmlns="http://www.w3.org/2000/svg" role="img" viewBox="0 0 38 24" width="38" height="24" aria-labelledby="pi-tasacero"><title id="pi-tasacero">Tasa Cero</title><path fill="#000" opacity=".07" d="M35 0H3C1.3 0 0 1.3 0 3v18c0 1.7 1.4 3 3 3h32c1.7 0 3-1.3 3-3V3c0-1.7-1.4-3-3-3z"/><path fill="#fff" d="M35 1c1.1 0 2 .9 2 2v18c0 1.1-.9 2-2 2H3c-1.1 0-2-.9-2-2V3c0-1.1.9-2 2-2h32"/><path d="M35.737 9.302H2.263v5.614h33.474V9.302z" fill="#fff"/><path fill-rule="evenodd" clip-rule="evenodd" d="M2.18 9.22h33.64v5.778H2.18V9.22zm.165.164v5.45h33.31v-5.45H2.345z" fill="#EE363D"/><path d="M35.737 9.302H24.572v5.614h11.165V9.302z" fill="#EE363D"/><path d="M30.939 11.675v-.007c.181-.077.304-.234.304-.49 0-.36-.248-.588-.745-.588h-.928v2.289h.942c.573 0 .815-.255.815-.665 0-.29-.133-.469-.389-.539zm-.875-.651h.416c.192 0 .273.067.273.249 0 .178-.08.252-.262.252h-.431v-.501h.004zm.454 1.435h-.451v-.556h.441c.22 0 .308.08.308.269-.003.217-.095.287-.297.287zM32.73 10.59h-.612l-.791 2.289h.542l.13-.448h.826l.13.448h.57l-.794-2.289zm-.605 1.414l.227-.78.064-.242h.01l.06.242.22.78h-.581zM34.561 12.456c-.416 0-.563-.162-.563-.732 0-.543.143-.707.556-.707.171 0 .371.032.49.077v-.444a1.54 1.54 0 00-.521-.095c-.732 0-1.065.406-1.065 1.165 0 .816.34 1.197 1.03 1.197.199 0 .42-.052.566-.126v-.44a1.33 1.33 0 01-.493.104zM34.771 13.386c0-.146.038-.192.15-.192.046 0 .102.007.133.021v-.119a.417.417 0 00-.14-.024c-.196 0-.287.108-.287.315 0 .22.091.322.28.322a.369.369 0 00.155-.035v-.12a.39.39 0 01-.133.028c-.116.004-.158-.038-.158-.196zM29.696 13.386c0-.146.038-.192.15-.192.046 0 .102.007.134.021v-.119a.417.417 0 00-.14-.024c-.197 0-.288.108-.288.315 0 .22.091.322.28.322a.369.369 0 00.154-.035v-.12a.39.39 0 01-.133.028c-.115.004-.157-.038-.157-.196zM30.462 13.443c.067-.021.105-.081.105-.168 0-.133-.076-.193-.23-.193h-.228v.616h.14v-.231h.088l.108.231h.161l-.144-.255zm-.125-.077h-.084v-.168h.087c.06 0 .084.02.084.08-.003.07-.028.088-.087.088zM30.844 13.439h.227v-.112h-.227v-.123h.27l-.004-.122h-.406v.616h.42l.004-.119h-.284v-.14zM31.474 13.082h-.231v.616h.231c.182 0 .276-.088.276-.312 0-.21-.08-.304-.276-.304zm0 .493h-.091v-.367h.091c.098 0 .133.035.133.182-.003.157-.038.185-.133.185zM32.111 13.075c-.192 0-.273.098-.273.319 0 .22.08.318.273.318s.27-.095.27-.319c0-.22-.078-.318-.27-.318zm0 .511c-.094 0-.126-.039-.126-.196 0-.158.032-.193.126-.193.095 0 .126.039.126.193 0 .157-.032.196-.126.196zM32.828 13.443l-.024.063-.025-.063-.143-.361h-.15v.616h.122v-.312l-.003-.066h.003l.021.063.126.315h.094l.127-.319.02-.063.004.004v.378h.126v-.616h-.154l-.144.36zM33.588 13.082h-.165l-.213.616h.147l.035-.119h.224l.035.119h.154l-.217-.616zm-.161.381l.063-.21.017-.066h.004l.017.067.06.21h-.161zM33.791 13.082l-.003.126h.164v.49h.14v-.49h.165l-.004-.126h-.462zM34.361 13.698h.144v-.616h-.144v.616zM27.442 11.087l1.229.983-.33.809h-.899v-1.792zM27.277 10.506l-2.128.574v.959l2.128-.913v-.62zM27.277 11.3l-2.128.917v1.064l2.128-1.298V11.3zM26.7 13.698h1.396v-.655h-.713l-.683.655zM27.277 12.175l-2.128 1.299v.224h1.316l.813-.78v-.742z" fill="#fff"/><path d="M3.971 10.877h-.844v-.55H5.53v.55h-.844v2.572h-.714v-2.572z" fill="#EE363D"/><path fill-rule="evenodd" clip-rule="evenodd" d="M3.075 10.275H5.58v.655h-.843v2.572h-.82V10.93h-.843v-.655zm.105.105v.444h.844v2.573h.608v-2.573h.844v-.444H3.18z" fill="#EE363D"/><path d="M5.48 12.82c0-.533.49-.736 1.19-.736h.258v-.09c0-.27-.084-.42-.37-.42-.249 0-.365.126-.389.322H5.57c.039-.543.47-.781 1.026-.781.56 0 .955.227.955.847v1.491h-.616v-.276c-.129.181-.332.322-.689.322-.417.003-.767-.2-.767-.68zm1.448-.168v-.193h-.245c-.367 0-.58.077-.58.322 0 .164.101.276.332.276.276.004.493-.15.493-.405z" fill="#EE363D"/><path fill-rule="evenodd" clip-rule="evenodd" d="M5.629 11.843h.495a.394.394 0 01.12-.222c.076-.066.18-.1.314-.1.152 0 .263.04.334.128.068.086.09.207.09.345v.143h-.313c-.346 0-.633.05-.831.162a.557.557 0 00-.306.52c0 .226.082.38.207.48.128.1.306.148.507.147.34 0 .527-.132.646-.3l.096-.135v.39h.51v-1.439c0-.298-.094-.492-.247-.614-.156-.124-.38-.18-.655-.18-.272 0-.507.058-.677.177a.687.687 0 00-.29.498zm.23-.584c.194-.136.452-.197.737-.197.286 0 .539.058.72.203.185.146.288.375.288.697v1.544h-.721v-.186c-.14.137-.339.231-.637.231a.904.904 0 01-.572-.17c-.154-.12-.247-.308-.247-.562 0-.286.134-.487.36-.613.22-.123.529-.174.883-.174h.206v-.039c0-.131-.021-.22-.067-.278-.043-.054-.117-.089-.252-.089-.115 0-.192.03-.243.075a.31.31 0 00-.093.201l-.005.046h-.702l.004-.056a.806.806 0 01.34-.633zm.372 1.222c.111-.056.267-.075.453-.075h.297v.245a.423.423 0 01-.163.342.605.605 0 01-.383.117.42.42 0 01-.288-.09.31.31 0 01-.097-.239c0-.07.015-.13.047-.181a.325.325 0 01.134-.12zm-.044.174a.234.234 0 00-.032.126c0 .071.022.124.062.16.042.038.11.064.218.064a.5.5 0 00.318-.095.318.318 0 00.123-.258v-.14h-.192c-.183 0-.317.02-.405.063a.22.22 0 00-.092.08z" fill="#EE363D"/><path d="M10.142 12.82c0-.533.49-.736 1.19-.736h.258v-.09c0-.27-.083-.42-.37-.42-.249 0-.365.126-.389.322h-.598c.038-.543.468-.781 1.025-.781.56 0 .956.227.956.847v1.491h-.617v-.276c-.129.181-.332.322-.689.322-.42.003-.766-.2-.766-.68zm1.445-.168v-.193h-.245c-.367 0-.581.077-.581.322 0 .164.102.276.333.276.28.004.493-.15.493-.405z" fill="#EE363D"/><path fill-rule="evenodd" clip-rule="evenodd" d="M10.29 11.843h.496a.394.394 0 01.12-.222c.076-.066.18-.1.313-.1.153 0 .264.04.335.128.068.086.09.207.09.345v.143h-.313c-.346 0-.633.05-.831.162a.557.557 0 00-.306.52c0 .226.081.38.206.48.127.1.305.148.508.147.34 0 .527-.132.647-.3l.095-.135v.39h.51v-1.439c0-.298-.094-.492-.247-.614-.156-.124-.38-.18-.655-.18-.272 0-.506.058-.677.177a.688.688 0 00-.29.498zm.23-.584c.194-.136.453-.197.738-.197.286 0 .539.058.72.203.185.146.288.375.288.697v1.544h-.721v-.186c-.14.137-.339.231-.637.231-.217.002-.422-.05-.573-.17-.154-.121-.246-.308-.246-.562 0-.286.134-.487.36-.613.22-.123.529-.174.883-.174h.206v-.039c0-.131-.021-.22-.067-.278-.043-.054-.117-.089-.252-.089-.115 0-.192.03-.243.075a.31.31 0 00-.093.201l-.005.046h-.702l.004-.056a.806.806 0 01.34-.633zm.37 1.222c.111-.056.267-.075.452-.075h.298v.245c0 .145-.061.262-.162.342a.604.604 0 01-.385.117.42.42 0 01-.288-.09.31.31 0 01-.097-.239c0-.07.015-.13.047-.181a.326.326 0 01.135-.12zm-.045.174a.234.234 0 00-.031.126c0 .071.021.124.062.16.041.038.11.064.218.064a.5.5 0 00.319-.095.318.318 0 00.121-.258v-.14h-.192c-.182 0-.317.02-.405.063a.221.221 0 00-.092.08z" fill="#EE363D"/><path d="M13.62 11.91v-.036c0-.948.666-1.596 1.551-1.596.753 0 1.313.368 1.386 1.138h-.724c-.053-.375-.263-.578-.655-.578-.494 0-.809.386-.809 1.033v.035c0 .647.298 1.022.813 1.022.388 0 .661-.196.717-.599h.697c-.078.774-.634 1.173-1.404 1.173-1.026 0-1.572-.63-1.572-1.593z" fill="#EE363D"/><path fill-rule="evenodd" clip-rule="evenodd" d="M15.171 10.331c-.856 0-1.498.623-1.498 1.543v.035c0 .472.134.856.387 1.121.252.265.63.42 1.132.42.376 0 .695-.098.929-.285.22-.177.369-.437.415-.783h-.592a.708.708 0 01-.246.439.81.81 0 01-.517.16c-.27 0-.49-.1-.64-.288-.148-.187-.224-.456-.224-.787v-.035c0-.332.08-.603.23-.792a.776.776 0 01.631-.293c.205 0 .37.053.49.162.11.1.178.24.21.415h.62c-.045-.342-.193-.594-.412-.763-.231-.179-.547-.269-.915-.269zm-1.603 1.543c0-.976.688-1.648 1.603-1.648.384 0 .725.093.98.29.256.199.42.497.459.895l.005.058h-.828l-.007-.046c-.025-.179-.087-.31-.183-.397-.096-.086-.232-.135-.419-.135a.67.67 0 00-.548.254c-.13.165-.208.41-.208.726v.035c0 .316.073.559.202.721.127.16.314.248.557.248a.705.705 0 00.45-.136.62.62 0 00.216-.417l.006-.045h.8l-.005.058c-.04.399-.204.706-.461.912-.257.206-.601.308-.995.308-.524 0-.932-.161-1.209-.452-.276-.29-.415-.703-.415-1.194v-.035z" fill="#EE363D"/><path d="M16.855 12.34v-.035c0-.721.51-1.19 1.175-1.19.592 0 1.113.346 1.113 1.162v.175h-1.648c.017.382.224.598.567.598.294 0 .438-.126.476-.318h.602c-.073.494-.469.77-1.092.77-.693 0-1.193-.434-1.193-1.162zm1.672-.277c-.02-.346-.196-.51-.497-.51-.283 0-.476.188-.524.51h1.021z" fill="#EE363D"/><path fill-rule="evenodd" clip-rule="evenodd" d="M17.23 11.477c-.2.197-.323.48-.323.828v.035c0 .351.12.627.32.816.2.188.485.293.821.293.304 0 .547-.067.722-.19a.753.753 0 00.307-.474h-.498a.402.402 0 01-.152.221.614.614 0 01-.365.097.59.59 0 01-.444-.172c-.108-.114-.167-.277-.176-.477l-.002-.055h1.65v-.122c0-.396-.125-.671-.317-.848-.192-.178-.457-.261-.742-.261-.32 0-.6.112-.8.31zm-.074-.075c.222-.218.53-.34.875-.34.305 0 .597.09.814.29.217.2.351.505.351.925v.228h-1.644a.587.587 0 00.143.353c.085.09.207.14.367.14a.51.51 0 00.303-.077.307.307 0 00.121-.2l.009-.042h.706l-.009.06a.87.87 0 01-.362.606c-.197.14-.463.21-.782.21-.357 0-.67-.112-.893-.323-.224-.21-.353-.515-.353-.892v-.035c0-.373.132-.685.354-.903zm.487.248a.54.54 0 01.387-.15.53.53 0 01.391.14c.096.097.148.24.16.42l.003.056h-1.14l.01-.06a.703.703 0 01.19-.406zm-.074.36h.9a.487.487 0 00-.122-.295c-.072-.071-.176-.11-.317-.11a.434.434 0 00-.313.12.565.565 0 00-.148.286z" fill="#EE363D"/><path d="M19.56 11.168h.634v.437c.143-.305.367-.469.738-.473v.592c-.469-.004-.738.147-.738.585v1.144h-.634v-2.285z" fill="#EE363D"/><path fill-rule="evenodd" clip-rule="evenodd" d="M20.985 11.08v.697h-.053c-.231-.002-.402.035-.514.117-.109.079-.172.207-.172.415v1.197h-.739v-2.391h.74v.294a.776.776 0 01.201-.197c.13-.086.29-.13.483-.132h.054zm-.478.22a.77.77 0 00-.266.327l-.1.214v-.62h-.528v2.18h.528v-1.092c0-.23.071-.396.215-.5.129-.095.309-.134.523-.137v-.485a.732.732 0 00-.372.113z" fill="#EE363D"/><path d="M21.163 12.333v-.035c0-.717.521-1.183 1.207-1.183s1.201.458 1.201 1.172v.035c0 .722-.522 1.18-1.208 1.18-.678 0-1.2-.455-1.2-1.169zm1.767-.007v-.032c0-.437-.206-.7-.56-.7-.35 0-.56.253-.56.69v.035c0 .438.2.7.56.7.354 0 .56-.262.56-.693z" fill="#EE363D"/><path fill-rule="evenodd" clip-rule="evenodd" d="M21.546 11.476c-.205.195-.33.477-.33.822v.035c0 .344.125.621.329.814.204.192.49.302.818.302.332 0 .62-.11.825-.305.205-.194.33-.474.33-.822v-.034c0-.344-.123-.623-.326-.816a1.172 1.172 0 00-.822-.304c-.33 0-.619.112-.824.308zm-.073-.077c.227-.216.543-.337.898-.337.354 0 .668.119.893.333.226.215.36.522.36.893v.034c0 .374-.136.684-.363.899a1.286 1.286 0 01-.898.334c-.35 0-.664-.118-.89-.331a1.194 1.194 0 01-.363-.891v-.035c0-.372.136-.682.363-.899zm.445.343a.56.56 0 01.453-.2c.19 0 .347.071.453.206.106.132.16.32.16.546v.032c0 .223-.054.41-.16.541a.558.558 0 01-.454.205.556.556 0 01-.456-.206c-.105-.133-.156-.321-.156-.547v-.035c0-.227.054-.412.16-.542zm.082.067c-.086.105-.137.264-.137.475v.035c0 .212.049.373.134.481a.45.45 0 00.373.166c.163 0 .287-.06.372-.165.086-.107.136-.267.136-.475v-.032c0-.21-.05-.373-.136-.48a.451.451 0 00-.372-.167.455.455 0 00-.37.162z" fill="#EE363D"/><path d="M7.93 12.736h.591c.025.206.126.321.403.321.245 0 .357-.09.357-.248 0-.157-.137-.224-.462-.27-.61-.09-.844-.265-.844-.713 0-.476.438-.715.907-.715.507 0 .885.182.945.707h-.581c-.035-.188-.14-.276-.357-.276-.207 0-.322.098-.322.235 0 .143.108.199.44.248.575.084.89.227.89.717 0 .494-.357.753-.963.753-.626.007-.983-.266-1.004-.76z" fill="#EE363D"/><path fill-rule="evenodd" clip-rule="evenodd" d="M8.289 11.304a.595.595 0 00-.254.503c0 .217.055.358.174.458.124.103.322.17.624.217.163.025.287.055.371.104a.276.276 0 01.102.095.25.25 0 01.035.132.273.273 0 01-.11.23.505.505 0 01-.302.078c-.145 0-.254-.03-.33-.099a.393.393 0 01-.118-.231h-.487a.677.677 0 00.251.487c.157.123.388.192.688.194.295 0 .522-.065.675-.185.15-.118.234-.294.234-.531 0-.239-.073-.384-.207-.482-.14-.102-.35-.159-.636-.2-.164-.025-.283-.053-.361-.097a.241.241 0 01-.095-.088.24.24 0 01-.03-.123.27.27 0 01.105-.219.433.433 0 01.27-.078c.115 0 .21.023.281.079.062.049.1.117.12.202h.479a.658.658 0 00-.272-.464c-.153-.106-.363-.153-.611-.153-.226 0-.44.058-.596.171zm-.061-.088c.178-.13.416-.19.657-.19.258 0 .492.047.67.17.18.124.296.32.325.602l.007.06h-.684l-.008-.045c-.015-.088-.046-.144-.09-.18-.046-.035-.114-.056-.217-.056a.333.333 0 00-.206.056.16.16 0 00-.063.133c0 .03.006.05.015.067.01.017.026.033.054.05.06.033.161.059.326.083.287.042.52.101.682.22.167.123.251.304.251.57 0 .267-.095.476-.275.617-.178.14-.431.207-.74.207-.314-.002-.57-.074-.751-.216-.183-.145-.285-.357-.296-.625l-.003-.056h.69l.006.047c.012.1.04.167.09.21.049.045.128.073.26.073.118 0 .195-.023.241-.057.044-.032.066-.079.066-.143a.14.14 0 00-.019-.075.17.17 0 00-.063-.058 1.024 1.024 0 00-.335-.09c-.305-.048-.529-.118-.675-.241-.151-.127-.214-.303-.214-.542 0-.263.119-.461.299-.591z" fill="#EE363D"/></svg>