<svg xmlns="http://www.w3.org/2000/svg" width="38" height="24" fill="none" aria-labelledby="pi-tasacero" role="img" viewBox="0 0 38 24"><title id="pi-tasacero">Tasa Cero</title><path fill="#fff" d="M0 0h38v24H0z"/><path fill="#fff" d="M35.74 9.3H2.26v5.62h33.48z"/><path fill="#EE363D" fill-rule="evenodd" d="M2.18 9.22h33.64V15H2.18zm.16.16v5.45h33.31V9.38H2.36Z" clip-rule="evenodd"/><path fill="#EE363D" d="M35.74 9.3H24.57v5.62h11.17z"/><path fill="#fff" d="M30.94 11.68v-.01c.18-.08.3-.24.3-.5 0-.35-.24-.58-.74-.58h-.93v2.29h.94c.57 0 .82-.26.82-.67 0-.29-.13-.47-.4-.54Zm-.88-.66h.42c.2 0 .27.07.27.25s-.08.26-.26.26h-.43v-.5Zm.46 1.44h-.45v-.56h.44c.22 0 .3.08.3.27 0 .22-.09.29-.3.29Zm2.21-1.87h-.61l-.8 2.29h.55l.13-.45h.83l.13.45h.56zm-.6 1.41.22-.78.07-.24.07.24.22.78h-.59Zm2.43.46c-.41 0-.56-.17-.56-.74 0-.54.14-.7.55-.7.18 0 .38.03.5.07v-.44a1.6 1.6 0 0 0-.53-.1c-.73 0-1.06.41-1.06 1.17 0 .82.34 1.2 1.03 1.2.2 0 .42-.05.56-.13v-.44c-.15.07-.32.1-.49.1Zm.21.93c0-.15.04-.2.15-.2.05 0 .1.01.13.03v-.12a.4.4 0 0 0-.14-.03c-.2 0-.28.11-.28.32 0 .22.09.32.28.32.05 0 .1-.01.15-.04v-.12a.4.4 0 0 1-.13.03c-.12 0-.16-.04-.16-.2Zm-5.07 0c0-.15.03-.2.15-.2.04 0 .1.01.13.03v-.12a.4.4 0 0 0-.14-.03c-.2 0-.29.11-.29.32 0 .22.1.32.28.32.06 0 .1-.01.16-.04v-.12a.4.4 0 0 1-.14.03c-.11 0-.15-.04-.15-.2Zm.76.05c.07-.02.1-.08.1-.16 0-.14-.07-.2-.22-.2h-.23v.62h.14v-.23h.09l.1.23h.17zm-.12-.07h-.09v-.17h.09c.06 0 .08.02.08.08 0 .07-.02.09-.08.09m.5.07h.23v-.11h-.23v-.13h.27v-.12h-.4v.62h.41v-.12h-.28zm.63-.36h-.23v.62h.23c.19 0 .28-.09.28-.31 0-.21-.08-.3-.28-.3Zm0 .5h-.09v-.37h.1c.1 0 .13.03.13.18 0 .16-.04.18-.14.18Zm.64-.5c-.2 0-.27.1-.27.31 0 .22.08.32.27.32.2 0 .27-.1.27-.32s-.08-.32-.27-.32Zm0 .5c-.1 0-.13-.03-.13-.19s.04-.2.13-.2c.1 0 .13.05.13.2 0 .16-.04.2-.13.2Zm.72-.14-.03.07-.02-.07-.14-.36h-.15v.62h.12v-.38l.02.06.13.32h.09l.13-.32.02-.06v.38h.13v-.62h-.16zm.76-.36h-.17l-.21.62h.15l.03-.12h.23l.03.12h.16zm-.16.38.06-.2.02-.07.02.06.06.21zm.36-.38v.13h.16v.49h.14v-.5h.17v-.12zm.57.62h.15v-.62h-.15zm-6.92-2.61 1.23.98-.33.8h-.9V11.1Zm-.16-.58-2.13.57v.96l2.13-.91zm0 .79-2.13.92v1.06l2.13-1.3zm-.58 2.4h1.4v-.66h-.72zm.58-1.52-2.13 1.3v.22h1.32l.8-.78v-.74Z"/><path fill="#EE363D" d="M3.97 10.88h-.84v-.55h2.4v.55h-.84v2.57h-.72z"/><path fill="#EE363D" fill-rule="evenodd" d="M3.07 10.28h2.51v.65h-.84v2.57h-.82v-2.57h-.85zm.11.1v.44h.84v2.58h.61v-2.58h.85v-.44z" clip-rule="evenodd"/><path fill="#EE363D" d="M5.48 12.82c0-.53.49-.74 1.19-.74h.26V12c0-.27-.09-.42-.37-.42-.25 0-.37.13-.4.33h-.59c.04-.55.47-.79 1.03-.79s.95.23.95.85v1.5h-.62v-.28c-.12.18-.33.32-.68.32-.42 0-.77-.2-.77-.68Zm1.45-.17v-.2h-.25c-.36 0-.58.09-.58.33 0 .17.1.28.33.28.28 0 .5-.15.5-.4Z"/><path fill="#EE363D" fill-rule="evenodd" d="M5.63 11.84h.5a.4.4 0 0 1 .11-.22.5.5 0 0 1 .32-.1c.15 0 .26.04.33.13.07.08.1.2.1.34v.15h-.32c-.35 0-.63.05-.83.16a.56.56 0 0 0-.3.52c0 .22.07.38.2.48s.3.15.5.15c.35 0 .53-.14.65-.3L7 13v.4h.5v-1.45c0-.3-.09-.49-.24-.61a1.04 1.04 0 0 0-.65-.18c-.28 0-.51.06-.68.18a.69.69 0 0 0-.3.5m.23-.58c.2-.14.45-.2.74-.2.28 0 .54.06.72.2.18.15.28.38.28.7v1.55h-.72v-.19a.86.86 0 0 1-.63.23.9.9 0 0 1-.58-.17.68.68 0 0 1-.24-.56c0-.29.13-.49.36-.61.22-.13.53-.18.88-.18h.2V12c0-.13-.01-.22-.06-.28-.04-.05-.12-.08-.25-.08a.4.4 0 0 0-.25.07.3.3 0 0 0-.09.2v.05h-.7v-.06a.8.8 0 0 1 .34-.63Zm.37 1.22c.11-.05.27-.07.45-.07h.3v.24a.42.42 0 0 1-.16.34.6.6 0 0 1-.39.12c-.1 0-.2-.03-.28-.09a.31.31 0 0 1-.1-.24.33.33 0 0 1 .18-.3m-.04.17a.23.23 0 0 0-.04.13c0 .07.03.13.07.16.04.04.1.07.21.07a.5.5 0 0 0 .32-.1.32.32 0 0 0 .13-.26v-.14h-.2a1 1 0 0 0-.4.06.22.22 0 0 0-.1.08Z" clip-rule="evenodd"/><path fill="#EE363D" d="M10.14 12.82c0-.53.5-.74 1.2-.74h.25V12c0-.27-.08-.42-.37-.42-.25 0-.37.13-.39.33h-.6c.04-.55.47-.79 1.03-.79s.95.23.95.85v1.5h-.61v-.28c-.13.18-.33.32-.7.32-.41 0-.76-.2-.76-.68Zm1.45-.17v-.2h-.25c-.37 0-.58.09-.58.33 0 .17.1.28.33.28.28 0 .5-.15.5-.4Z"/><path fill="#EE363D" fill-rule="evenodd" d="M10.29 11.84h.5a.4.4 0 0 1 .12-.22c.07-.06.18-.1.3-.1.16 0 .27.04.34.13.07.08.1.2.1.34v.15h-.32c-.35 0-.63.05-.83.16a.56.56 0 0 0-.3.52c0 .22.08.38.2.48.13.1.3.15.5.15.35 0 .54-.14.65-.3l.1-.14v.4h.51v-1.45c0-.3-.1-.49-.25-.61a1.04 1.04 0 0 0-.65-.18c-.27 0-.5.06-.68.18a.7.7 0 0 0-.29.5Zm.23-.58c.2-.14.45-.2.74-.2.28 0 .54.06.72.2.18.15.29.38.29.7v1.55h-.72v-.19a.86.86 0 0 1-.64.23.9.9 0 0 1-.57-.17.68.68 0 0 1-.25-.56c0-.29.13-.49.36-.61.22-.13.53-.18.88-.18h.2V12c0-.13-.01-.22-.06-.28-.04-.05-.12-.08-.25-.08-.12 0-.2.03-.24.07a.3.3 0 0 0-.1.2v.05h-.7v-.06a.8.8 0 0 1 .34-.63Zm.37 1.22c.11-.05.27-.07.45-.07h.3v.24c0 .15-.06.26-.16.34a.6.6 0 0 1-.39.12c-.1 0-.2-.03-.29-.09a.3.3 0 0 1-.1-.24q0-.105.06-.18c.03-.05.07-.1.13-.12m-.04.17a.23.23 0 0 0-.04.13c0 .07.03.13.07.16.04.04.1.07.21.07a.5.5 0 0 0 .32-.1.32.32 0 0 0 .12-.26v-.14h-.19a1 1 0 0 0-.4.06.22.22 0 0 0-.1.08Z" clip-rule="evenodd"/><path fill="#EE363D" d="M13.62 11.91v-.04c0-.94.67-1.6 1.55-1.6.75 0 1.31.38 1.39 1.15h-.73c-.05-.38-.26-.58-.65-.58-.5 0-.81.38-.81 1.03v.04c0 .64.3 1.02.81 1.02.39 0 .66-.2.72-.6h.7c-.08.77-.64 1.17-1.4 1.17-1.03 0-1.58-.63-1.58-1.59"/><path fill="#EE363D" fill-rule="evenodd" d="M15.17 10.33c-.86 0-1.5.62-1.5 1.54v.04c0 .47.14.86.39 1.12.25.27.63.42 1.13.42.38 0 .7-.1.93-.29.22-.17.37-.43.42-.78h-.6a.7.7 0 0 1-.24.44.8.8 0 0 1-.52.16.78.78 0 0 1-.64-.29 1.25 1.25 0 0 1-.22-.78v-.04c0-.33.08-.6.23-.8a.78.78 0 0 1 .63-.28c.2 0 .37.05.49.16.1.1.18.24.2.41h.63a1.1 1.1 0 0 0-.41-.76 1.48 1.48 0 0 0-.92-.27m-1.6 1.54c0-.97.69-1.64 1.6-1.64.38 0 .73.09.98.29.26.2.42.5.46.9v.05h-.82l-.01-.05a.63.63 0 0 0-.18-.4.6.6 0 0 0-.42-.13.67.67 0 0 0-.55.25c-.13.17-.2.41-.2.73v.04c0 .31.06.55.2.72.12.16.3.24.55.24a.7.7 0 0 0 .45-.13c.12-.1.2-.26.22-.42v-.04h.8v.06c-.04.4-.2.7-.46.9-.26.21-.6.31-1 .31a1.6 1.6 0 0 1-1.2-.45c-.28-.29-.42-.7-.42-1.2z" clip-rule="evenodd"/><path fill="#EE363D" d="M16.86 12.34v-.04c0-.72.5-1.19 1.17-1.19.6 0 1.11.35 1.11 1.17v.17H17.5c.01.38.22.6.56.6.3 0 .44-.13.48-.32h.6c-.07.5-.47.77-1.1.77-.68 0-1.18-.43-1.18-1.16m1.67-.28c-.02-.34-.2-.5-.5-.5-.28 0-.48.18-.52.5z"/><path fill="#EE363D" fill-rule="evenodd" d="M17.23 11.48c-.2.2-.32.48-.32.82v.04c0 .35.12.63.32.82.2.18.48.29.82.29.3 0 .54-.07.72-.2a.75.75 0 0 0 .3-.46h-.5a.4.4 0 0 1-.14.22.7.7 0 0 1-.37.1.6.6 0 0 1-.44-.18.72.72 0 0 1-.18-.48v-.05h1.65v-.12c0-.4-.13-.67-.32-.85a1.05 1.05 0 0 0-.74-.26c-.32 0-.6.11-.8.3Zm-.07-.08c.22-.22.53-.34.87-.34.3 0 .6.1.81.3.22.2.36.5.36.92v.23h-1.65c0 .13.06.25.14.35a.5.5 0 0 0 .37.14.5.5 0 0 0 .3-.08.3.3 0 0 0 .13-.2v-.04h.71v.06a.87.87 0 0 1-.37.6q-.3.21-.78.21c-.36 0-.67-.1-.9-.32a1.18 1.18 0 0 1-.35-.89v-.04c0-.37.13-.68.36-.9m.48.25a.54.54 0 0 1 .39-.15.53.53 0 0 1 .4.14q.135.15.15.42v.06h-1.14l.01-.06a.7.7 0 0 1 .2-.41Zm-.07.36h.9c0-.1-.05-.21-.12-.3-.08-.07-.18-.1-.32-.1a.44.44 0 0 0-.31.12.56.56 0 0 0-.15.28" clip-rule="evenodd"/><path fill="#EE363D" d="M19.56 11.17h.63v.44a.77.77 0 0 1 .74-.48v.6c-.47-.01-.74.14-.74.58v1.14h-.63z"/><path fill="#EE363D" fill-rule="evenodd" d="M20.98 11.08v.7h-.05c-.23 0-.4.03-.51.11s-.17.21-.17.42v1.2h-.74v-2.4h.74v.3a.8.8 0 0 1 .2-.2.87.87 0 0 1 .48-.13zm-.47.22a.77.77 0 0 0-.27.33l-.1.21v-.62h-.53v2.18h.53v-1.1c0-.22.07-.39.22-.5a.9.9 0 0 1 .52-.13v-.48a.73.73 0 0 0-.37.11" clip-rule="evenodd"/><path fill="#EE363D" d="M21.16 12.33v-.03c0-.72.52-1.19 1.21-1.19s1.2.46 1.2 1.18v.03c0 .72-.52 1.18-1.2 1.18-.69 0-1.2-.45-1.2-1.17Zm1.77 0v-.04c0-.43-.2-.7-.56-.7-.35 0-.56.26-.56.7v.03c0 .44.2.7.56.7.35 0 .56-.26.56-.7Z"/><path fill="#EE363D" fill-rule="evenodd" d="M21.55 11.48c-.2.2-.33.47-.33.82v.03c0 .35.12.62.33.82.2.19.48.3.81.3.34 0 .62-.11.83-.3.2-.2.33-.48.33-.83v-.03c0-.35-.13-.63-.33-.82-.22-.2-.52-.31-.82-.3-.33 0-.62.11-.82.3Zm-.08-.08c.23-.22.55-.34.9-.34.36 0 .67.12.9.33.22.22.35.53.35.9v.03c0 .38-.13.69-.36.9-.24.22-.57.34-.9.33-.35 0-.66-.11-.89-.33a1.2 1.2 0 0 1-.36-.89v-.03c0-.37.14-.68.36-.9m.45.34a.56.56 0 0 1 .45-.2c.2 0 .35.07.45.2.11.14.16.33.16.55v.04c0 .22-.05.4-.16.54a.56.56 0 0 1-.45.2.56.56 0 0 1-.46-.2.87.87 0 0 1-.15-.55v-.04c0-.22.05-.4.16-.54m.08.07a.74.74 0 0 0-.14.47v.04c0 .21.05.37.14.48a.45.45 0 0 0 .37.17c.16 0 .29-.06.37-.17.09-.1.14-.27.14-.47v-.04a.76.76 0 0 0-.14-.48.45.45 0 0 0-.37-.16.45.45 0 0 0-.37.16" clip-rule="evenodd"/><path fill="#EE363D" d="M7.93 12.74h.6c.02.2.12.32.4.32.24 0 .35-.1.35-.25 0-.16-.14-.22-.46-.27-.61-.1-.85-.27-.85-.71 0-.48.44-.72.91-.72.5 0 .89.18.95.7h-.58c-.04-.18-.14-.27-.36-.27-.2 0-.32.1-.32.24s.1.2.44.25c.57.08.89.22.89.71 0 .5-.36.75-.97.75-.62.01-.98-.26-1-.76Z"/><path fill="#EE363D" fill-rule="evenodd" d="M8.29 11.3a.6.6 0 0 0-.25.5c0 .22.05.36.17.46s.32.18.62.22c.17.03.29.06.37.1.05.03.08.06.1.1.03.04.04.09.04.13a.27.27 0 0 1-.1.23.5.5 0 0 1-.31.08c-.15 0-.25-.03-.33-.1a.4.4 0 0 1-.12-.23H8a.68.68 0 0 0 .26.49c.15.12.38.19.68.2.3 0 .53-.07.68-.2.15-.11.23-.29.23-.52 0-.24-.07-.39-.2-.49a1.6 1.6 0 0 0-.64-.2 1.1 1.1 0 0 1-.36-.1.24.24 0 0 1-.1-.08.24.24 0 0 1-.03-.12.27.27 0 0 1 .1-.22.43.43 0 0 1 .28-.08c.11 0 .2.02.28.08.06.05.1.11.12.2h.48a.66.66 0 0 0-.27-.46 1.07 1.07 0 0 0-.61-.16c-.23 0-.44.06-.6.17Zm-.06-.08c.18-.13.41-.2.66-.2s.49.05.67.18c.18.12.3.32.32.6v.06H9.2v-.05c-.02-.09-.05-.14-.1-.18-.04-.03-.1-.05-.21-.05a.33.33 0 0 0-.2.05.16.16 0 0 0-.07.14l.01.06a.1.1 0 0 0 .06.05c.06.04.16.06.32.09.3.04.52.1.69.22.16.12.25.3.25.57 0 .26-.1.47-.28.61s-.43.21-.74.21-.57-.07-.75-.22a.8.8 0 0 1-.3-.62v-.06h.7v.05q.015.15.09.21c.05.04.13.07.26.07.12 0 .2-.02.24-.05.04-.04.07-.08.07-.15l-.02-.07a.2.2 0 0 0-.07-.06 1 1 0 0 0-.33-.09 1.5 1.5 0 0 1-.68-.24c-.15-.13-.21-.3-.21-.54a.7.7 0 0 1 .3-.6Z" clip-rule="evenodd"/></svg>