<svg xmlns="http://www.w3.org/2000/svg" width="38" height="24" fill="none" aria-labelledby="pi-tbibank" role="img" viewBox="0 0 38 24"><title id="pi-tbibank">tbi bank</title><path fill="#fff" d="M0 0h38v24H0z"/><path fill="#0D0D0D" fill-rule="evenodd" d="M12.8 10.94h.97v3.53h-.97zm-4-1.5h.96v1.83c.07-.04.12-.1.2-.15.21-.13.41-.22.68-.25 1.12-.1 1.91.76 1.89 1.9a1.8 1.8 0 0 1-.93 1.6c-.7.35-1.34.15-1.89-.3v.4H8.8zm-2.36.58h.95v.9h1.07v.89H7.39c-.03.18-.03 1.33 0 1.51.08.48.67.32 1.06.21v.83c-.09.12-.33.14-.48.16-.2.02-.39.02-.58-.01-1.33-.26-.93-1.79-.95-2.7h-.92v-.88h.9v-.91Zm6.65-.81c.82-.29 1.18.95.4 1.2-.81.26-1.17-.94-.4-1.2m-10.5-.64v6.8c0 1.18.1 2.08.92 2.89.8.8 1.65.95 2.85.95h6.81c1.17 0 2.07-.11 2.88-.93a3 3 0 0 0 .74-1.14c.15-.4.21-1.17.21-1.7V8.61c0-1.17-.11-2.07-.92-2.88-.81-.8-1.65-.95-2.85-.95H6.4c-.58 0-1.24.05-1.7.19a3.1 3.1 0 0 0-1.92 1.88c-.14.4-.2 1.17-.2 1.7Z" clip-rule="evenodd"/><path fill="#F60" fill-rule="evenodd" d="M10.45 11.77c1.18-.25 1.45 1.6.37 1.86-1.18.27-1.56-1.6-.37-1.86m-1.66 2.7h.91v-.4c.55.45 1.19.65 1.89.3.5-.26.91-.83.93-1.6.03-1.14-.77-2-1.89-1.9-.27.03-.47.12-.68.26-.08.05-.12.1-.2.14V9.45H8.8v5.02Z" clip-rule="evenodd"/><path fill="#0C0C0C" fill-rule="evenodd" d="M21.83 13.89c-.45 0-.6 0-.93-.34-.62-.6-.29-2.03.77-2.03.32 0 .63.14.8.32.4.45.42 1.23.07 1.66-.16.2-.45.39-.7.39Zm-1.91.59h.67v-.45c.18.11.28.33.8.47.37.09.8.06 1.1-.08a1.8 1.8 0 0 0 1.04-1.55c0-.6-.06-1.05-.5-1.5-.5-.5-1.2-.63-1.89-.34-.27.11-.37.25-.52.35V9.44h-.7zm12.22 0c.89 0 .74.2.73-.96 0-.28.01-.22.16-.37.09-.09.2-.19.29-.25.06.1.12.17.19.26l.6.78c.53.7.3.54 1.32.54-.04-.16-1.33-1.69-1.58-2.06l1.12-1.08c.14-.11.27-.24.38-.38h-.48c-.23 0-.36-.04-.46.04-.09.08-.14.15-.25.23l-.76.73c-.12.12-.4.4-.53.49v-2.7c0-.38.12-.31-.73-.31zm-6.62-.54c-.29 0-.79.03-.79-.5 0-.72 1.28-.4 1.78-.74 0 .49 0 .6-.22.88-.14.17-.47.36-.77.36M24.1 11.9c.17.01.5.18.64.2.08-.31.47-.6.85-.6.37 0 .93.08.93.51 0 .31-.4.3-.66.33-.66.08-1.85.1-1.85 1.16 0 1.1 1.31 1.24 2 .9.33-.16.38-.29.54-.39v.48h.64v-2.43c0-.98-1.49-1.67-2.67-.75-.2.15-.3.36-.42.59" clip-rule="evenodd"/><path fill="#F60" fill-rule="evenodd" d="M6.42 10.93h-.9v.88h.92c.02.91-.39 2.44.95 2.7.18.03.39.03.58.01.15-.02.4-.04.48-.16v-.82c-.4.1-.98.27-1.06-.21-.03-.19-.03-1.33 0-1.52h1.06v-.88H7.38v-.9l-.95-.01z" clip-rule="evenodd"/><path fill="#0C0C0C" fill-rule="evenodd" d="M28.67 11.41v-.45H28v3.52c.91 0 .73.17.73-.88v-.98c0-.62.36-1.07.9-1.07.3 0 .5 0 .71.22.12.1.25.33.25.54v2.17h.67c.07 0 .09-.02.09-.09v-1.71c0-1-.38-1.8-1.46-1.8-.25 0-.55.06-.72.15-.09.05-.17.1-.25.17-.1.08-.15.15-.25.21" clip-rule="evenodd"/><path fill="#F60" fill-rule="evenodd" d="M12.8 14.47h.96v-3.53h-.95z" clip-rule="evenodd"/><path fill="#0D0D0D" fill-rule="evenodd" d="M10.45 11.77c-1.19.26-.81 2.13.37 1.86 1.08-.26.81-2.11-.37-1.86" clip-rule="evenodd"/><path fill="#F60" fill-rule="evenodd" d="M13.09 9.2c-.78.27-.42 1.47.4 1.21.78-.25.41-1.48-.4-1.2Z" clip-rule="evenodd"/></svg>