<svg xmlns="http://www.w3.org/2000/svg" role="img" viewBox="0 0 38 24" width="38" height="24" aria-labelledby="pi-tigomoney"><title id="pi-tigomoney">Tigo Money</title><path opacity=".07" d="M35 0H3C1.3 0 0 1.3 0 3v18c0 1.7 1.4 3 3 3h32c1.7 0 3-1.3 3-3V3c0-1.7-1.4-3-3-3z"/><path fill="#2C3568" d="M35 1c1.1 0 2 .9 2 2v18c0 1.1-.9 2-2 2H3c-1.1 0-2-.9-2-2V3c0-1.1.9-2 2-2h32"/><g fill="#ECBF31"><path d="M12.51 13.08l.38-2.11c.07-.36.12-.68.15-.95h.62l-.06.53h.01c.28-.41.65-.6 1.03-.6.46 0 .68.3.7.63.26-.42.64-.62 1.05-.63.41 0 .73.27.73.82 0 .13-.02.36-.05.52l-.33 1.79h-.69l.31-1.71c.02-.13.04-.26.04-.39 0-.26-.1-.43-.37-.43-.32 0-.68.42-.8 1.07l-.27 1.46h-.68l.32-1.73c.02-.13.04-.24.04-.36 0-.23-.07-.44-.35-.44-.33 0-.71.46-.82 1.08l-.26 1.45h-.7zM20.23 11.22c0 1.04-.71 1.93-1.72 1.93-.75 0-1.21-.53-1.21-1.26 0-1.04.7-1.93 1.71-1.93.8-.01 1.22.58 1.22 1.26zm-2.21.65c0 .42.22.72.58.72.53 0 .88-.75.88-1.36 0-.31-.13-.7-.57-.7-.56-.01-.89.77-.89 1.34zM20.23 13.08l.38-2.11c.07-.36.12-.68.15-.95h.63l-.06.55h.01c.27-.41.65-.62 1.07-.62.42 0 .76.26.76.84 0 .14-.02.35-.05.51l-.33 1.78h-.71l.32-1.73c.02-.11.04-.24.04-.36 0-.25-.09-.44-.37-.44-.32 0-.74.4-.87 1.12l-.26 1.41h-.71zM25.61 12.9c-.29.16-.69.24-1.05.24-.82 0-1.22-.52-1.22-1.27 0-.92.66-1.93 1.68-1.93.59 0 .96.35.96.86 0 .78-.8 1.04-1.95 1.01-.01.11.01.31.08.43.12.21.33.31.61.31.34 0 .6-.09.82-.2l.07.55zm-.3-2.09c0-.19-.15-.31-.38-.31-.45 0-.74.41-.82.78.73.01 1.2-.1 1.2-.47z"/><path d="M26.79 10.02l.23 1.47c.05.33.09.55.12.76h.01c.07-.19.15-.4.29-.73l.64-1.51h.75l-1.09 2.25c-.36.75-.69 1.29-1.09 1.68a1.9 1.9 0 01-.92.53l-.16-.63c.13-.04.34-.13.52-.26.2-.15.39-.36.52-.61.02-.05.02-.09.01-.14l-.59-2.82h.76z"/></g><g fill-rule="evenodd" clip-rule="evenodd" fill="#FFF"><path d="M3.12 9.46c0 .22.01.45.01.67h1v.35c0 .17-.16.29-.37.29s-.42.01-.63.01v1.23c.02.24.12.42.49.41.27-.01.41-.04.52-.13v.38c-.05.29-.29.4-.68.41-.64-.01-1.03-.3-1.07-.98v-2.01c.06-.43.33-.61.73-.63zM4.65 10.18c0 .72-.01 1.43-.01 2.15.04.55.39.7.83.72.42-.03.53-.23.48-.64-.32.08-.56.05-.57-.28v-1.55c-.02-.28-.21-.37-.39-.4-.12.01-.23.01-.34 0z"/><ellipse cx="5.01" cy="9.5" rx=".43" ry=".42"/><path d="M9.33 9.79c.26-.39.66-.63 1.29-.63.48-.03.92.18 1.32.63.01-.11.04-.27.01-.44-.28-.6-.77-.74-1.36-.75-.75.05-1.16.33-1.28.77-.01.16 0 .3.02.42zM10.58 10.01c.93 0 1.42.68 1.42 1.52s-.54 1.56-1.46 1.52c-.92-.04-1.37-.68-1.37-1.52s.48-1.53 1.41-1.52zm.01.66c-.43 0-.65.38-.65.86 0 .47.21.84.63.86.42.02.67-.38.67-.86.01-.47-.22-.86-.65-.86zM6.94 13.54c.52.76 1.19 1.13 2.05 1.04.95-.04 1.47-.49 1.88-1.04.02.19.05.39 0 .64-.17.6-.71 1.15-1.93 1.23-.86-.02-1.78-.52-1.99-1.23-.05-.28-.02-.47-.01-.64zM8.06 11.62c.1.14.1.37.09.68 0 .19-.13.25-.35.24-.58-.02-.87-.34-.89-.96.03-.52.32-.84.96-.87.32-.01.62.1.93.29.01-.12.04-.29.01-.44-.11-.29-.39-.48-.96-.48-.89.03-1.65.49-1.7 1.56.01.96.56 1.48 1.66 1.54.48-.04.92-.13 1.02-.6.03-.23.03-.47.01-.72-.05-.25-.39-.27-.78-.24z"/></g><g fill="#ECBF31"><path d="M29.99 14.84c-.8-.37-1.22-.6-1.41-.72-.04-.02-.08-.06-.11-.09l-.09.15c-.04.07-.01.17.07.2.2.07.66.23 1.54.46zM31.12 9.05l-.78-.13h-.02c-.07 0-.13.05-.13.12-.05.46-.25 1.96-1.04 3.7a13.22 13.22 0 001.97-3.69zM28.7 13.91c.22.13.73.41 1.78.88-.91-.75-1.35-1.16-1.53-1.35l-.03-.03c-.08.1-.17.19-.25.29-.06.06-.04.16.03.21zM29.75 12.32c1.58-1.18 2.6-2.49 3.11-3.24l-1.2-.43c-.02-.01-.03-.01-.05-.01-.06 0-.12.04-.13.1-.14.46-.62 1.95-1.73 3.58z"/><path d="M35.55 10.1l-1.99-1.37c-.02-.03-.05-.03-.08-.03-.05 0-.1.03-.13.07-.33.55-1.7 2.65-4.2 4.27-.08.05-.09.16-.02.23.2.21.7.68 1.8 1.57.03.02.06.03.09.03.02 0 .04-.01.07-.02.5-.25 3.07-1.64 4.52-4.57.02-.06 0-.14-.06-.18z"/></g></svg>