<svg xmlns="http://www.w3.org/2000/svg" xmlns:xlink="http://www.w3.org/1999/xlink" width="38" height="24" fill="none" aria-labelledby="pi-timepayment" role="img" viewBox="0 0 38 24"><title id="pi-timepayment">TimePayment</title><defs><path id="pi-timepayment-b" fill="#fff" d="M0 0h38v24H0z"/></defs><g clip-path="url(#pi-timepayment-a)"><use xlink:href="#pi-timepayment-b"/><mask id="pi-timepayment-c" width="38" height="24" x="0" y="0" maskUnits="userSpaceOnUse" style="mask-type:luminance"><path fill="#fff" d="M0 0h38v24H0z"/></mask><g mask="url(#pi-timepayment-c)"><path fill="#319304" d="M8.45 13.36h-.82l.36-2.63h-.85l.11-.72h2.46l-.1.72h-.8zm3.1-2.53-.02.18c.2-.22.39-.24.6-.24.3 0 .48.16.55.32.17-.19.33-.32.65-.32a.7.7 0 0 1 .57.24c.15.19.18.43.14.7l-.25 1.65h-.73l.22-1.5c.03-.18.04-.4-.2-.4-.27 0-.35.22-.38.5l-.2 1.4h-.73l.22-1.52c.03-.15.07-.38-.2-.39-.26 0-.34.2-.37.4l-.22 1.5h-.74l.38-2.52zm13.37 0-.02.18c.2-.22.39-.24.6-.24.3 0 .48.16.55.32.17-.19.33-.32.65-.32a.7.7 0 0 1 .57.24c.15.19.18.43.14.7l-.25 1.65h-.73l.22-1.5c.03-.18.04-.4-.2-.4-.27 0-.35.22-.38.5l-.2 1.4h-.73l.22-1.52c.03-.15.07-.38-.2-.39-.26 0-.34.2-.37.4l-.22 1.5h-.74l.38-2.52zm-7.51 2.53h-.84l.45-3.36h1.14c.32 0 .7-.03.98.14.28.18.4.45.36.92-.03.32-.2.75-.44.95-.28.22-.55.25-.91.25h-.6zm.65-1.77c.23 0 .5-.03.55-.5.04-.3-.2-.4-.44-.4h-.39l-.1.9zm2.63 1.77c-.04-.12-.07-.14-.07-.16-.14.15-.27.23-.6.23-.5 0-.8-.39-.76-.79.05-.41.22-.65.58-.77.28-.1.63-.1.95-.12v-.02c.03-.24.04-.4-.26-.4-.19 0-.28.14-.33.37l-.72-.04c.14-.75.63-.9 1.2-.9.3 0 .53.08.7.25.25.24.19.56.14.94l-.11.86c-.02.2-.07.36-.02.55zm.02-1.07c-.23.03-.65.04-.69.3 0 .12.06.22.2.22.35-.02.43-.2.48-.47v-.05Zm2.09 1.17c-.33.6-.38.7-1.01.72h-.27l-.09-.01.14-.63.16.01c.13 0 .32.04.36-.16a.6.6 0 0 0-.02-.22l-.36-2.33h.77l.14 1.45.64-1.46h.75zm-6.35-.8c-.24.6-.69.77-1.13.77-.35 0-.64-.11-.84-.32a1.45 1.45 0 0 1-.3-1.04c.02-.42.13-.77.42-1.02.23-.21.48-.28.8-.28.45 0 1.1.25 1.1 1.3v.25h-1.57c.01.17.09.45.38.45.23 0 .36-.07.5-.36zm-.73-.88c-.03-.21-.14-.33-.35-.33-.2 0-.33.1-.39.34h.74Zm14.08.88c-.24.6-.69.77-1.13.77-.35 0-.64-.11-.84-.32-.22-.24-.32-.66-.3-1.04.02-.42.13-.77.42-1.02.23-.21.48-.28.8-.28.45 0 1.1.25 1.1 1.3v.25h-1.57c.01.17.09.45.38.45.23 0 .36-.07.5-.36zm-.73-.88c-.02-.21-.14-.33-.35-.33-.2 0-.33.1-.39.34h.74Zm1.85-.95-.02.18h.01c.16-.21.46-.24.58-.24.24 0 .47.09.59.28.13.2.1.48.07.74l-.21 1.57h-.71l.19-1.5c.03-.23-.03-.41-.22-.41-.27 0-.35.25-.38.45l-.2 1.46h-.71l.33-2.53zm1.37.61.08-.6h.28l.09-.65h.7l-.08.65h.34l-.07.6h-.36l-.1.85c-.02.17-.07.33.02.38.07.04.26.03.36.02l-.1.67s-.03.02-.2.03c-.3.02-.62-.04-.79-.24-.13-.16-.08-.38-.02-.78l.12-.93zm-27.8-1.43H7l-.12.74H4.4l.1-.74Zm-.19 1.3h2.5l-.12.75H4.2zm-.19 1.3H6.6l-.11.75H4zm5.68-1.91.1-.7h.7l-.1.7zm-.36 2.66.35-2.53h.7l-.35 2.53zm24.23-.18a.18.18 0 0 1 .17-.18c.03 0 .06.01.08.03a.17.17 0 0 1 .07.24.17.17 0 0 1-.24.06.17.17 0 0 1-.08-.15m.02 0a.15.15 0 0 0 .22.13.14.14 0 0 0 .07-.13.14.14 0 0 0-.27-.07.14.14 0 0 0-.02.07m.22-.04c0 .02-.01.04-.04.05l.06.1h-.05l-.04-.09h-.02v.08h-.05v-.2h.06l.06.01zm-.1.03h.05v-.05l-.03-.01h-.02z"/></g></g><defs><clipPath id="pi-timepayment-a"><use xlink:href="#pi-timepayment-b"/></clipPath></defs></svg>