<svg xmlns="http://www.w3.org/2000/svg" width="38" height="24" fill="none" aria-labelledby="pi-tiptop" role="img" viewBox="0 0 38 24"><title id="pi-tiptop">TipTop</title><path fill="#8638E5" d="M0 0h38v24H0z"/><path fill="#fff" d="M6.63 8.38H5v-1.3h4.78v1.3H8.15v6.35H6.62V8.38Zm5.96.85h1.36l.1.7c.12-.24.3-.44.54-.57.25-.16.56-.24.95-.24a2.2 2.2 0 0 1 1.7.8 3 3 0 0 1 .5.9 3.9 3.9 0 0 1 .02 2.32c-.1.33-.27.63-.48.9-.2.26-.45.45-.74.59a2.34 2.34 0 0 1-1.44.15 2.1 2.1 0 0 1-.8-.43c-.1-.1-.18-.2-.25-.33v2.86H12.6V9.23Zm3.86 2.75c0-.57-.11-.99-.34-1.26a1.08 1.08 0 0 0-.86-.4c-.35 0-.65.13-.87.4s-.33.7-.33 1.26.11.97.33 1.24c.22.26.5.4.87.4.36 0 .63-.14.86-.4.23-.27.34-.68.34-1.24m10.55 0c0 .42-.06.81-.19 1.16-.12.33-.3.64-.53.9-.24.26-.51.45-.84.59s-.7.2-1.1.2c-.39 0-.77-.06-1.1-.2a2.25 2.25 0 0 1-.84-.59 2.6 2.6 0 0 1-.53-.9 3.5 3.5 0 0 1-.19-1.16c0-.43.06-.8.19-1.16a2.44 2.44 0 0 1 1.37-1.5 2.97 2.97 0 0 1 2.2.01 2.45 2.45 0 0 1 1.37 1.49c.13.35.2.74.2 1.16Zm-1.46 0c0-.56-.11-.98-.34-1.25a1.05 1.05 0 0 0-.85-.42 1.08 1.08 0 0 0-.88.42c-.21.27-.32.69-.32 1.25s.1.98.33 1.25c.21.27.5.41.87.41.36 0 .63-.14.85-.4.23-.28.34-.7.34-1.26m2.14-2.75h1.35l.11.7c.12-.24.3-.44.53-.57a2.2 2.2 0 0 1 2.66.55c.2.26.37.56.5.9a4 4 0 0 1 .01 2.33c-.1.33-.26.63-.47.9-.2.26-.45.45-.75.59a2.34 2.34 0 0 1-1.43.15 2.1 2.1 0 0 1-.8-.43c-.1-.1-.18-.2-.25-.33v2.86h-1.46zm3.86 2.75c0-.57-.12-.99-.34-1.26a1.08 1.08 0 0 0-.87-.4c-.34 0-.65.13-.86.4-.22.27-.33.7-.33 1.26s.11.97.33 1.24c.21.26.5.4.86.4.37 0 .64-.14.87-.4.22-.27.34-.68.34-1.24M11.79 9.23v5.5h-1.47v-5.5h1.46Zm-1.57-1.38q0-.36.24-.6a.8.8 0 0 1 .59-.25.82.82 0 0 1 .6.24.8.8 0 0 1 .24.6c0 .25-.08.44-.25.6a.82.82 0 0 1-.6.24.8.8 0 0 1-.58-.24.8.8 0 0 1-.25-.6Zm7.88 2.46V9.23h.9V7.7h1.46v1.53h.9v1.08h-.9v2.85c0 .16.03.28.08.36.05.07.14.11.29.11h.11l.2-.02.24-.02v1.14a11 11 0 0 1-.97.06c-.5 0-.87-.13-1.09-.4a1.76 1.76 0 0 1-.32-1.13v-2.95z"/></svg>