<svg viewBox="0 0 38 24" xmlns="http://www.w3.org/2000/svg" role="img" width="38" height="24" aria-labelledby="pi-tiptop"><title id="pi-tiptop">TipTop</title><path opacity=".07" d="M35 0H3C1.3 0 0 1.3 0 3v18c0 1.7 1.4 3 3 3h32c1.7 0 3-1.3 3-3V3c0-1.7-1.4-3-3-3z"/><path fill="#8638E5" d="M35 1c1.1 0 2 .9 2 2v18c0 1.1-.9 2-2 2H3c-1.1 0-2-.9-2-2V3c0-1.1.9-2 2-2h32"/><path d="M5 8.398V7.134h5.47v1.264H8.49v6.427H6.97V8.398H5zm6.039-.632c0-.424.344-.765.767-.765h.028a.766.766 0 110 1.53h-.028a.766.766 0 01-.767-.765zm.041 7.058V9.298h1.477v5.526H11.08zm2.24 2.154V9.285h1.37l.107.6c.114-.18.317-.343.606-.49.29-.148.591-.222.902-.222.693 0 1.264.267 1.71.803.446.535.67 1.223.67 2.063 0 .84-.211 1.563-.635 2.09-.423.526-1.005.788-1.744.788-.286 0-.578-.065-.877-.194-.298-.129-.508-.285-.63-.467v2.72H13.32v.002zm1.466-4.937c0 .554.107.97.322 1.248.214.28.51.42.885.42.374 0 .662-.14.883-.421.22-.28.33-.697.33-1.246 0-.55-.11-.95-.332-1.232a1.065 1.065 0 00-.88-.423c-.365 0-.667.14-.883.419-.216.279-.325.691-.325 1.238v-.003z" fill="#fff"/><path d="M17.477 8.398V7.134h5.444v1.264h-1.954v6.427h-1.52V8.398h-1.97z" fill="#fff"/><path d="M22.446 14.139c-.477-.527-.715-1.223-.715-2.088s.238-1.559.715-2.082c.476-.523 1.124-.784 1.94-.784.816 0 1.444.265 1.922.795s.717 1.221.717 2.072c0 .852-.239 1.554-.717 2.084s-1.12.795-1.922.795c-.803 0-1.465-.264-1.94-.79v-.002zm.72-2.088c0 .554.11.97.329 1.249.22.279.516.418.891.418s.661-.14.879-.42c.218-.28.326-.696.326-1.246 0-.549-.11-.954-.33-1.235a1.055 1.055 0 00-.875-.42c-.364 0-.672.14-.891.42-.22.28-.329.691-.329 1.234zm4.468 4.939V9.297h1.371l.107.6c.114-.18.316-.344.606-.49.29-.148.59-.222.901-.222.693 0 1.264.267 1.71.802.447.536.67 1.223.67 2.064 0 .84-.211 1.563-.634 2.09-.424.526-1.005.788-1.744.788-.287 0-.579-.065-.877-.194-.299-.129-.51-.285-.63-.467v2.72h-1.478l-.002.002zm1.467-4.938c0 .554.107.97.321 1.25.215.278.51.418.885.418s.663-.14.883-.42c.22-.281.33-.697.33-1.246 0-.55-.11-.95-.331-1.232a1.065 1.065 0 00-.88-.423c-.366 0-.667.14-.884.418-.216.28-.324.692-.324 1.238v-.003z" fill="#fff"/></svg>