<svg xmlns="http://www.w3.org/2000/svg" width="38" height="24" fill="none" aria-labelledby="pi-tpay" role="img" viewBox="0 0 38 24"><title id="pi-tpay">Tpay</title><path fill="#fff" d="M0 0h38v24H0z"/><path fill="#072653" d="M13.65 9.79a2.91 2.91 0 0 1 2.34-1.14 2.3 2.3 0 0 1 1.92.88q.315.435.45.96a5.3 5.3 0 0 1-.13 2.87c-.16.51-.41.99-.74 1.41a3.2 3.2 0 0 1-3.94 1.02c-.4-.2-.73-.53-.96-.92l-.78 3.6h-1.56l2.07-9.6h1.52l-.2.92Zm-.68 3.42c-.02.43.13.85.41 1.18.28.3.7.44 1.24.44.34 0 .67-.09.95-.26.29-.18.53-.42.7-.7.21-.32.36-.67.45-1.03.1-.39.16-.79.16-1.2 0-.56-.13-.99-.39-1.28a1.26 1.26 0 0 0-1-.45 2.28 2.28 0 0 0-1.5.58 2.77 2.77 0 0 0-.83 1.45c-.1.42-.16.84-.18 1.27Zm8.06 2.83c-.63 0-1.13-.17-1.51-.5s-.56-.8-.56-1.42c-.02-.43.1-.86.33-1.23.22-.33.52-.6.88-.77.4-.2.82-.33 1.26-.4.49-.08.98-.13 1.48-.15l1.3-.05.04-.22c.03-.15.04-.3.04-.46a.98.98 0 0 0-.29-.75c-.19-.18-.5-.27-.94-.27-.5 0-.87.06-1.13.2-.25.12-.45.38-.59.75l-1.41-.14c.23-.72.61-1.23 1.15-1.53s1.25-.45 2.14-.45c.83 0 1.47.18 1.9.56.45.37.67.9.68 1.56a9 9 0 0 1-.1.8l-.92 4.3h-1.49l.2-.92c-.31.3-.66.57-1.05.78-.44.22-.92.33-1.41.3Zm2.95-3.5-1.06.05c-.39.02-.77.06-1.15.14a2.3 2.3 0 0 0-.74.28c-.17.1-.3.25-.4.42a1.6 1.6 0 0 0-.11.57.82.82 0 0 0 .25.6c.17.16.42.25.76.25.53 0 1.06-.16 1.5-.48a2 2 0 0 0 .82-1.25l.13-.59Zm4.46-3.68.9 5.05 2.86-5.05h1.78l-4.6 7.43c-.21.36-.42.68-.6.95-.17.25-.37.48-.6.68a2.27 2.27 0 0 1-1.55.55c-.41 0-.81-.07-1.19-.23l.41-1.15.35.1c.13.03.27.04.4.04.25.01.49-.07.67-.22q.345-.33.57-.75l.41-.68-1.54-6.72zM8.22 13.63l-.05.23-.02.2c0 .27.07.45.2.55.16.1.35.16.54.15.3 0 .58-.04.85-.13l.24 1.15c-.47.14-.96.22-1.44.21-.63 0-1.12-.14-1.46-.42s-.5-.7-.5-1.26c0-.25.03-.5.1-.74l.75-3.5H4.02l.26-1.21h3.4l.42-1.88h1.56l-.41 1.88h1.91l-.26 1.21H9l-.77 3.55Z"/></svg>