<svg width="38" height="24" viewBox="0 0 38 24" fill="none" xmlns="http://www.w3.org/2000/svg" role="img" aria-labelledby="pi-truemed"><title id="pi-truemed">Truemed</title><path opacity=".07" d="M35 0H3C1.3 0 0 1.3 0 3v18c0 1.7 1.4 3 3 3h32c1.7 0 3-1.3 3-3V3c0-1.7-1.4-3-3-3z" fill="#000"/><path d="M35 1c1.1 0 2 .9 2 2v18c0 1.1-.9 2-2 2H3c-1.1 0-2-.9-2-2V3c0-1.1.9-2 2-2h32z" fill="#183B43"/><path d="M18.934 6.944a1.447 1.447 0 100 2.894 1.447 1.447 0 000-2.894z" fill="#fff"/><path d="M18.537 12.422l-4.178 4.36a6.598 6.598 0 01-1.916-3.585 6.85 6.85 0 01-.096-.776h6.19zm-6.142-1.34a6.673 6.673 0 016.617-5.744 6.66 6.66 0 016.584 5.744h-13.2zm10.175 6.547a6.68 6.68 0 01-7.153-.012l3.57-3.727 3.583 3.74zm3.079-5.207a6.649 6.649 0 01-2.022 4.374l-4.19-4.371 6.212-.003zM23.55 5.419A8.003 8.003 0 0012.42 7.452a7.998 7.998 0 002.033 11.129 8.003 8.003 0 0011.128-2.028 8.009 8.009 0 00-2.03-11.134z" fill="#fff"/></svg>