<svg xmlns="http://www.w3.org/2000/svg" width="38" height="24" fill="none" aria-labelledby="pi-truelayer" role="img" viewBox="0 0 38 24"><title id="pi-truelayer">TrueLayer</title><path fill="#BBB9FB" d="M0 0h38v24H0z"/><path fill="#1F1F25" d="m11.86 16.27 6.56 3.66c.56.32.81.1 1.04 0l6.96-3.91c.24-.16.41-.3.41-.56 0-.27-.2-.41-.33-.49l-1.88-1.23 1.78-1c.3-.15.6-.47.6-.87V9.18c0-.7-.41-.92-.6-1.03L19.56 4.3a1.1 1.1 0 0 0-1.27 0l-6.85 3.9c-.3.2-.4.42-.4.64 0 .34.35.6.4.62l1.78 1.04-1.9 1.13c-.29.17-.3.5-.3.5-.03.15-.03 2.63-.03 2.63 0 .65.06 1.07.86 1.5v.01Zm13.74-.76-6.67 3.65-6.44-3.55 2.02-1.14 4.18 2.35c.13.08.36.08.48.01l4.51-2.55zm.57-3.9-1.8-1.08 1.79-1.05v2.13Zm-6.74-6.3 6.14 3.5-2.02 1.2-4.13-2.44V5.3Zm-.5 3.03 3.73 2.2-3.73 2.11-3.81-2.15 3.8-2.16zm-6.75.5 6.27-3.54v2.27l-4.35 2.4zm1.98 2.2 4.53 2.56a.5.5 0 0 0 .47 0l4.35-2.55 1.96 1.17-6.54 3.66-6.66-3.76 1.9-1.08Zm-2.28 1.93 1.75.98-1.75 1z"/></svg>