<svg viewBox="0 0 38 24" role="img" width="38" height="24" xmlns="http://www.w3.org/2000/svg" aria-labelledby="pi-truemoney_pay"><title id="pi-truemoney_pay">TrueMoney Pay</title><g stroke="none" stroke-width="1" fill="none" fill-rule="evenodd"><path d="M35 0H3C1.3 0 0 1.3 0 3v18c0 1.7 1.4 3 3 3h32c1.7 0 3-1.3 3-3V3c0-1.7-1.4-3-3-3z" fill="#000" fill-rule="nonzero" opacity=".07"/><path d="M35 1c1.1 0 2 .9 2 2v18c0 1.1-.9 2-2 2H3c-1.1 0-2-.9-2-2V3c0-1.1.9-2 2-2h32" fill="#FFF" fill-rule="nonzero"/><path d="M5.43 9.314a.43.43 0 00-.383-.294H2.219c-.163 0-.255.132-.206.294l1.597 5.323a.43.43 0 00.383.294h2.322a.48.48 0 00.408-.294l.171-.443-1.465-4.88z" fill="#EC1D24"/><path d="M8.774 10.628H5.98c-.184 0-.263.132-.32.294l-1.304 3.714v.002a.46.46 0 01-.397.292H7.264c.162 0 .34-.132.397-.294l1.303-3.714c.057-.162-.028-.294-.19-.294" fill="#9D0B0F"/><path d="M9.181 10.92a.43.43 0 00-.383-.293H5.971c-.163 0-.255.131-.206.294l1.327 4.45c.049.163.22.294.383.294H9.796a.48.48 0 00.409-.294l.171-.442-1.195-4.008z" fill="#FFCD02"/><path d="M13.179 9.687h-3.001a.48.48 0 00-.409.294l-1.892 5.39-.001.004a.48.48 0 01-.407.29h3.589a.48.48 0 00.408-.294l1.893-5.39c.063-.162-.018-.294-.18-.294" fill="#F58425"/><path d="M17.775 9.628h-.103c-.582 0-1.054.47-1.054 1.054v1.503h.759v-1.466c0-.22.177-.396.398-.396h.443v-.695H17.775zm3.82 1c.008-.236.227-.428.498-.428.274 0 .495.19.499.428h-.997zm1.733.355c-.006-.792-.435-1.415-1.235-1.415-.687 0-1.242.555-1.242 1.32 0 .824.504 1.312 1.247 1.327.482 0 .904-.271 1.12-.67l-.696-.181a.514.514 0 01-.43.215c-.27 0-.49-.194-.497-.43h1.733c.002-.037 0-.127 0-.166zm-3.378.17a.396.396 0 11-.792 0V9.994a.366.366 0 00-.367-.366h-.395v1.426c0 .641.347 1.16 1.156 1.16.812 0 1.158-.519 1.158-1.16V9.628h-.76v1.525zM15.594 9h-.759v.628h-.358v.695h.358v.815c0 .64.518 1.047 1.158 1.047h.447v-.666h-.45a.396.396 0 01-.396-.396v-.8l.498-.002a.363.363 0 00.348-.364v-.329h-.846V9z" fill="#EC1D24"/><path d="M35.586 9.623c.026 0 .05.008.077.021.092.037.157.14.157.261a.27.27 0 01-.02.116L35.048 12c-.198.528-.536.983-1.02 1.202-.024.011-.056.027-.086.027a.203.203 0 01-.157-.086.287.287 0 01-.065-.186c0-.058.015-.107.043-.152a.288.288 0 01.102-.094c.315-.167.546-.457.69-.81-.068-.178-.394-1.006-.586-1.537a5.859 5.859 0 01-.138-.402.21.21 0 01-.01-.053c0-.117.06-.222.148-.266a.24.24 0 01.093-.02c.096 0 .184.064.219.166l.547 1.432.539-1.43c.037-.104.122-.169.218-.169zm-7.217-.062c.304 0 .583.146.78.382.202.238.324.564.324.925 0 .355-.122.726-.323.961a1.024 1.024 0 01-.78.381c-.312 0-.589-.146-.785-.381-.2-.235-.324-.606-.324-.961 0-.366.123-.687.324-.925.196-.236.473-.382.784-.382zm4.49 0a.972.972 0 01.761.371c.186.235.302.557.302.923a.223.223 0 01-.063.157.2.2 0 01-.14.057h-1.406c.013.16.08.34.172.439.102.107.24.174.401.174.228 0 .424-.112.583-.292a.179.179 0 01.14-.063c.066 0 .131.04.174.105h.003l.022.047a.29.29 0 01.02.101c0 .071-.027.144-.073.202a1.153 1.153 0 01-.881.429c-.308 0-.585-.147-.785-.382-.2-.235-.322-.604-.322-.961 0-.361.117-.687.315-.925a1.01 1.01 0 01.777-.382zm-6.534-.002a.676.676 0 01.614.33c.137.205.194.488.194.82v1.17c0 .085-.026.161-.073.217a.262.262 0 01-.193.094.238.238 0 01-.188-.094.351.351 0 01-.07-.217V10.74c0-.181-.003-.34-.07-.446a.349.349 0 00-.317-.177c-.15 0-.258.07-.333.18-.076.108-.107.262-.107.425v1.157c0 .083-.034.161-.076.217a.26.26 0 01-.194.094c-.14 0-.246-.146-.246-.31v-1.14c0-.181-.021-.34-.089-.446a.35.35 0 00-.317-.177.391.391 0 00-.34.187c-.072.114-.077.272-.077.444v1.131c0 .085-.026.161-.073.217a.25.25 0 01-.192.094.252.252 0 01-.19-.094.367.367 0 01-.07-.217V9.897c0-.086.027-.164.07-.22a.265.265 0 01.2-.096c.07 0 .14.036.182.095a.34.34 0 01.072.216c.133-.198.3-.333.531-.333.162 0 .297.048.412.135a.828.828 0 01.233.299.814.814 0 01.707-.434zm4.435.002c.276-.003.5.125.648.335.152.209.23.501.23.828v1.162c0 .084-.03.162-.076.215a.245.245 0 01-.183.089.252.252 0 01-.186-.09.304.304 0 01-.078-.214v-1.144a.762.762 0 00-.125-.45.414.414 0 00-.355-.177.456.456 0 00-.377.19.748.748 0 00-.132.442v1.14c0 .083-.029.161-.077.214a.248.248 0 01-.183.089.257.257 0 01-.187-.09.321.321 0 01-.078-.214V9.898a.36.36 0 01.075-.22.24.24 0 01.186-.096c.072 0 .14.037.187.094a.35.35 0 01.077.222.81.81 0 01.634-.337zm-2.39.554a.522.522 0 00-.426.222.862.862 0 00-.16.53c0 .207.057.434.16.57a.523.523 0 00.847 0c.101-.136.16-.363.16-.57 0-.209-.059-.4-.16-.53a.522.522 0 00-.422-.222zm4.489-.026a.5.5 0 00-.366.157.727.727 0 00-.169.366h1.069a.7.7 0 00-.17-.361.509.509 0 00-.364-.162z" fill="#F4811F"/><path d="M24.786 13.542a.843.843 0 01.163.033.626.626 0 01.147.066.46.46 0 01.202.269c.02.06.029.134.029.217v1.141c0 .024.003.043.007.058.004.012.01.02.018.027.009.006.023.01.042.011.069.007.113.05.127.124a.207.207 0 01-.006.113.165.165 0 01-.057.075.239.239 0 01-.088.038.431.431 0 01-.097.011.295.295 0 01-.113-.021.249.249 0 01-.09-.064.305.305 0 01-.06-.106.413.413 0 01-.02-.096.693.693 0 01-.251.206.794.794 0 01-.175.06.886.886 0 01-.428-.012.505.505 0 01-.338-.292.678.678 0 01-.05-.274c0-.08.009-.152.025-.212a.552.552 0 01.069-.157.439.439 0 01.104-.111.666.666 0 01.13-.075c.045-.02.094-.037.145-.051a3.15 3.15 0 01.278-.062l.134-.025c.044-.009.087-.02.128-.032a.47.47 0 00.108-.045.23.23 0 00.073-.065.148.148 0 00.026-.09.347.347 0 00-.033-.163.25.25 0 00-.085-.094.32.32 0 00-.12-.045.842.842 0 00-.284 0 .363.363 0 00-.118.043.288.288 0 00-.14.208.204.204 0 01-.076.123.166.166 0 01-.135.03.174.174 0 01-.067-.033.21.21 0 01-.071-.2.62.62 0 01.104-.248.624.624 0 01.179-.167.77.77 0 01.232-.093c.135-.03.283-.035.432-.02zm3.291-.009c.1 0 .193.014.274.042a.75.75 0 01.38.285.979.979 0 01.113.214c.029.076.05.157.064.24.014.084.02.17.02.254a.194.194 0 01-.05.13.174.174 0 01-.122.056h-1.19c0 .08.012.158.033.23a.585.585 0 00.1.2.483.483 0 00.17.136c.067.033.148.05.24.05a.471.471 0 00.26-.072.425.425 0 00.165-.227.183.183 0 01.088-.11c.04-.02.085-.02.13-.001a.175.175 0 01.097.098.203.203 0 01.003.143.886.886 0 01-.12.227.724.724 0 01-.384.264.91.91 0 01-.249.033.882.882 0 01-.393-.083.775.775 0 01-.28-.23 1.04 1.04 0 01-.167-.35 1.823 1.823 0 01-.062-.44c0-.157.021-.302.063-.434.042-.132.103-.247.18-.344a.849.849 0 01.279-.228.783.783 0 01.358-.083zm-4.62.042c.02.007.038.019.054.034a.2.2 0 01.048.19l-.505 1.763a.253.253 0 01-.022.056.127.127 0 01-.09.065.368.368 0 01-.082.008.372.372 0 01-.083-.008.155.155 0 01-.055-.024.115.115 0 01-.035-.041.253.253 0 01-.02-.058l-.352-1.474-.332 1.473a.222.222 0 01-.021.059.121.121 0 01-.037.041.163.163 0 01-.057.024.391.391 0 01-.168 0 .162.162 0 01-.056-.025.128.128 0 01-.037-.042.239.239 0 01-.023-.059l-.498-1.737a.2.2 0 01-.008-.076.233.233 0 01.019-.072.189.189 0 01.04-.057.173.173 0 01.059-.037.167.167 0 01.186.058.182.182 0 01.032.067l.377 1.522.336-1.514a.192.192 0 01.057-.104c.028-.026.076-.04.141-.04.032 0 .06.004.083.01a.172.172 0 01.058.028.135.135 0 01.037.044.23.23 0 01.021.06l.356 1.522.374-1.54a.17.17 0 01.03-.062.151.151 0 01.11-.061.163.163 0 01.063.007zm6.007-.615a.155.155 0 01.15.106.204.204 0 01.012.074v.457h.224a.136.136 0 01.104.048.177.177 0 01.04.114.177.177 0 01-.04.115.137.137 0 01-.104.048h-.224v1.245c0 .048.007.087.021.117.014.029.034.05.058.065a.194.194 0 00.085.025.525.525 0 00.104-.004.128.128 0 01.14.079.188.188 0 01.015.06.163.163 0 01-.03.116.137.137 0 01-.1.056.835.835 0 01-.26-.004.454.454 0 01-.194-.083.387.387 0 01-.122-.164.653.653 0 01-.041-.246v-1.262h-.17a.136.136 0 01-.105-.048.175.175 0 01-.04-.115.177.177 0 01.04-.114.136.136 0 01.105-.048h.17v-.457a.2.2 0 01.047-.13.158.158 0 01.115-.05zm-3.54-.164a.156.156 0 01.115.048.175.175 0 01.035.057.207.207 0 01.013.075v2.533a.209.209 0 01-.013.075.159.159 0 01-.213.093.143.143 0 01-.051-.037.198.198 0 01-.047-.13v-2.534a.198.198 0 01.047-.131.145.145 0 01.052-.037.16.16 0 01.063-.012zm.786 0a.156.156 0 01.114.048.175.175 0 01.035.057.207.207 0 01.013.075v2.533a.209.209 0 01-.013.075.159.159 0 01-.213.093.144.144 0 01-.051-.037.198.198 0 01-.047-.13v-2.534a.198.198 0 01.047-.131.147.147 0 01.051-.037.162.162 0 01.064-.012zm-1.742 1.84a.399.399 0 01-.076.033c-.04.013-.083.024-.13.034-.046.01-.096.018-.146.027-.05.008-.1.018-.148.03a1.002 1.002 0 00-.137.044.422.422 0 00-.112.065.283.283 0 00-.102.234c0 .051.009.094.026.127.018.033.041.06.07.081a.3.3 0 00.105.045c.04.01.084.014.128.014a.61.61 0 00.241-.043.502.502 0 00.162-.106.412.412 0 00.12-.28v-.306zm3.094-.75a.452.452 0 00-.35.158.57.57 0 00-.101.171.703.703 0 00-.044.191h.99a.665.665 0 00-.035-.206.432.432 0 00-.254-.276.54.54 0 00-.206-.037z" fill="#6C6E70"/></g></svg>