<svg viewBox="0 0 38 24" role="img" width="38" height="24" xmlns="http://www.w3.org/2000/svg" aria-labelledby="pi-truemoney_pay"><title id="pi-truemoney_pay">TrueMoney Pay</title><g stroke="none" stroke-width="1" fill="none" fill-rule="evenodd"><path d="M35,0 L3,0 C1.3,0 0,1.3 0,3 L0,21 C0,22.7 1.4,24 3,24 L35,24 C36.7,24 38,22.7 38,21 L38,3 C38,1.3 36.6,0 35,0 Z" fill="#000000" fill-rule="nonzero" opacity="0.07"></path><path d="M35,1 C36.1,1 37,1.9 37,3 L37,21 C37,22.1 36.1,23 35,23 L3,23 C1.9,23 1,22.1 1,21 L1,3 C1,1.9 1.9,1 3,1 L35,1" fill="#FFFFFF" fill-rule="nonzero"></path><g transform="translate(2.000000, 9.000000)"><path d="M3.42942759,0.313878621 C3.38018621,0.151616552 3.20924828,0.0200717241 3.04651724,0.0200717241 L2.70417241,0.0200717241 L0.218655172,0.0200717241 C0.0561586207,0.0200717241 -0.0357586207,0.151616552 0.0130137931,0.313878621 L1.61007586,5.63663724 C1.65884828,5.79889931 1.83025517,5.93067862 1.99275172,5.93067862 L3.69087586,5.93067862 L4.3146,5.93067862 C4.47733103,5.93067862 4.65975862,5.79889931 4.72306897,5.63663724 L4.89447586,5.19440276 L3.42942759,0.313878621 Z" fill="#EC1D24"></path><path d="M6.77364414,1.62831862 L4.97281655,1.62831862 L3.98142345,1.62831862 C3.79688552,1.62831862 3.71763034,1.75986345 3.66041655,1.92212552 L2.35739586,5.63562897 C2.35716138,5.63633241 2.3569269,5.63727034 2.35669241,5.63773931 C2.29830621,5.79929793 2.12127172,5.92990483 1.9597131,5.92990483 L3.46368552,5.92990483 L5.26334069,5.92990483 C5.42560276,5.92990483 5.60380966,5.79789103 5.66102345,5.63562897 L6.96404414,1.92212552 C7.02125793,1.75986345 6.93590621,1.62831862 6.77364414,1.62831862" fill="#9D0B0F"></path><path d="M7.18133931,1.92060138 C7.13233241,1.75833931 6.96116,1.62679448 6.79842897,1.62679448 L6.45608414,1.62679448 L3.9705669,1.62679448 C3.80807034,1.62679448 3.7161531,1.75833931 3.76516,1.92060138 L5.09186345,6.37108414 C5.14063586,6.53358069 5.31204276,6.66512552 5.47453931,6.66512552 L7.17266345,6.66512552 L7.79638759,6.66512552 C7.95911862,6.66512552 8.14154621,6.53358069 8.20485655,6.37108414 L8.37626345,5.92908414 L7.18133931,1.92060138 Z" fill="#FFCD02"></path><path d="M11.1786841,0.686964138 L10.0346428,0.686964138 L8.17753931,0.686964138 C8.01504276,0.686964138 7.83261517,0.818508966 7.76930483,0.981005517 L5.87702897,6.37106069 C5.87656,6.37246759 5.87609103,6.37340552 5.87585655,6.37481241 C5.81137379,6.5354331 5.63058759,6.66533655 5.46902897,6.66533655 L6.05687724,6.66533655 L7.91421517,6.66533655 L8.43429793,6.66533655 L9.05802207,6.66533655 C9.22028414,6.66533655 9.40318069,6.53355724 9.46602207,6.37106069 L11.3585324,0.981005517 C11.4216083,0.818508966 11.3409462,0.686964138 11.1786841,0.686964138" fill="#F58425"></path><path d="M15.7746166,0.627991724 L15.762189,0.627991724 L15.6714441,0.627991724 C15.0901614,0.627991724 14.6183821,1.09859862 14.6183821,1.68199172 L14.6183821,3.18455724 L15.3769338,3.18455724 L15.3769338,1.71904 C15.3769338,1.49886069 15.5537338,1.3232331 15.7746166,1.3232331 L16.2184924,1.3232331 L16.2184924,0.627991724 L15.9333614,0.627991724 L15.7746166,0.627991724 Z M19.5952786,1.62806069 C19.6027821,1.39240552 19.8215545,1.19966069 20.0926166,1.19966069 C20.3671959,1.19966069 20.5878441,1.39029517 20.5915959,1.62806069 L19.5952786,1.62806069 Z M21.3278717,1.98259862 C21.3222441,1.19075034 20.8926717,0.568198621 20.0926166,0.568198621 C19.4058166,0.568198621 18.8514993,1.12298483 18.8514993,1.88739862 C18.8514993,2.71184 19.3551683,3.19979862 20.0980097,3.21457103 C20.5803407,3.21457103 21.0017062,2.94350897 21.2174303,2.54559172 L20.5224234,2.36386759 C20.4382441,2.49095724 20.2776234,2.57888828 20.0926166,2.57888828 C19.8215545,2.57888828 19.6027821,2.38450207 19.5952786,2.14908138 L21.3278717,2.14908138 C21.3297476,2.11179862 21.3278717,2.02199172 21.3278717,1.98259862 L21.3278717,1.98259862 Z M17.9503821,2.15259862 C17.9503821,2.36972966 17.7733476,2.54934345 17.5524648,2.54934345 C17.3339269,2.54934345 17.1580648,2.36972966 17.1580648,2.15259862 L17.1580648,0.99401931 C17.1580648,0.792129655 16.9948648,0.627991724 16.7908648,0.627991724 L16.3955269,0.627991724 L16.3955269,2.0536469 C16.3955269,2.69495724 16.7425614,3.21457103 17.5524648,3.21457103 C18.3635407,3.21457103 18.7103407,2.69495724 18.7103407,2.0536469 L18.7103407,0.627991724 L17.9503821,0.627991724 L17.9503821,2.15259862 L17.9503821,2.15259862 Z M13.5941614,4.68965517e-05 L12.8353752,4.68965517e-05 L12.8353752,0.627991724 L12.47732,0.627991724 L12.47732,1.3232331 L12.8353752,1.3232331 L12.8353752,2.13782621 C12.8353752,2.77749517 13.3531131,3.18455724 13.9925476,3.18455724 L14.4399407,3.18455724 L14.4399407,2.51886069 L13.9902028,2.51886069 C13.7716648,2.51886069 13.5941614,2.34182621 13.5941614,2.12281931 L13.5941614,1.3232331 L14.0919683,1.32135724 C14.2858855,1.31361931 14.4399407,1.15464 14.4399407,0.956736552 L14.4399407,0.627991724 L13.5941614,0.627991724 L13.5941614,4.68965517e-05 Z" fill="#EC1D24"></path><path d="M33.5855048,0.623325517 C33.6115324,0.623325517 33.6368566,0.631063448 33.6628841,0.64396 L33.6628841,0.64396 C33.7548014,0.68053931 33.8197531,0.784884138 33.8197531,0.905408276 C33.8197531,0.941987586 33.8164703,0.98396 33.7991186,1.02053931 L33.7991186,1.02053931 L33.0490083,3.00121517 C32.8508703,3.52927034 32.5125117,3.98393241 32.0292428,4.20340828 C32.0048566,4.21442897 31.9734359,4.22967034 31.9429531,4.22967034 C31.8791738,4.22967034 31.8228979,4.19285655 31.7856152,4.14384966 C31.7436428,4.09390483 31.7206634,4.02848414 31.7206634,3.95813931 C31.7206634,3.89998759 31.7356703,3.85051172 31.7635738,3.80642897 C31.7870221,3.76727034 31.8228979,3.73819448 31.8660428,3.71193241 C32.1814221,3.54498069 32.4123876,3.25469103 32.5551876,2.90202897 C32.4876566,2.72429103 32.1617255,1.89633241 31.9699186,1.36546345 C31.9021531,1.18233241 31.8512703,1.03343586 31.8322772,0.962622069 C31.8268841,0.941987586 31.8228979,0.926277241 31.8228979,0.910332414 C31.8228979,0.792856552 31.8822221,0.688277241 31.9699186,0.64396 L31.9699186,0.64396 C31.9996979,0.631063448 32.0325255,0.623325517 32.0627738,0.623325517 C32.1586772,0.623325517 32.2468428,0.688277241 32.2817807,0.790277241 L32.2817807,0.790277241 L32.8292979,2.22249793 L33.3676703,0.792856552 C33.4051876,0.688277241 33.4903048,0.623325517 33.5855048,0.623325517 Z M26.3694386,0.560601379 C26.6733283,0.560601379 26.9518938,0.707387586 27.1495628,0.942573793 C27.3512179,1.18057379 27.4733834,1.50697379 27.4733834,1.86760828 C27.4733834,2.22308414 27.3512179,2.59380138 27.1495628,2.82898759 C26.9518938,3.06393931 26.6733283,3.21049103 26.3694386,3.21049103 C26.0575766,3.21049103 25.7813559,3.06393931 25.5848593,2.82898759 C25.3841421,2.59380138 25.2610386,2.22308414 25.2610386,1.86760828 C25.2610386,1.50204966 25.3841421,1.18057379 25.5848593,0.942573793 C25.7813559,0.707387586 26.0575766,0.560601379 26.3694386,0.560601379 Z M30.858611,0.560648276 C31.1613283,0.558068966 31.43028,0.701806897 31.6199766,0.932303448 C31.8063903,1.16725517 31.9215214,1.48873103 31.9215214,1.8549931 C31.9215214,1.91994483 31.8961972,1.97223448 31.85868,2.01186207 C31.8211628,2.04773793 31.7726248,2.06907586 31.7193972,2.06907586 L31.7193972,2.06907586 L30.3125007,2.06907586 C30.3263352,2.22852414 30.3929283,2.40837241 30.4848455,2.50755862 C30.5873145,2.61471724 30.7249559,2.68248276 30.88628,2.68248276 C31.1144317,2.68248276 31.3104593,2.5704 31.4689697,2.39008276 C31.5116455,2.34271724 31.5597145,2.3270069 31.6084869,2.3270069 C31.6748455,2.3270069 31.7400317,2.3664 31.7829421,2.43158621 L31.7829421,2.43158621 L31.7864593,2.43158621 L31.8077712,2.47946411 C31.8198601,2.51201379 31.8272593,2.54577931 31.8272593,2.58048276 C31.8272593,2.65106207 31.8005283,2.72422069 31.7552731,2.78213793 L31.7552731,2.78213793 C31.5489283,3.04311724 31.2098662,3.21053793 30.8738524,3.21053793 C30.566211,3.21053793 30.2892869,3.06398621 30.0885697,2.8288 C29.8897283,2.59384828 29.7666248,2.22547586 29.7666248,1.86765517 C29.7666248,1.50702069 29.8843352,1.18062069 30.0820041,0.94262069 C30.2799076,0.7072 30.5514386,0.560648276 30.858611,0.560648276 Z M24.324749,0.559382069 C24.6014386,0.557271724 24.8084869,0.676388966 24.9393283,0.88929931 C25.0755628,1.09376828 25.1325421,1.37655448 25.1325421,1.70858207 L25.1325421,1.70858207 L25.1325421,2.87912 C25.1325421,2.96423724 25.1069834,3.03997517 25.0603214,3.09648552 C25.0157697,3.15393379 24.9339352,3.18980966 24.8666386,3.18980966 C24.7944179,3.18980966 24.7219628,3.15393379 24.6792869,3.09648552 C24.6342662,3.03997517 24.6082386,2.96189241 24.6082386,2.87912 L24.6082386,2.87912 L24.6082386,1.74000276 C24.6082386,1.55874759 24.6058938,1.40000276 24.5393007,1.29354759 C24.4705972,1.18240276 24.3749283,1.12003034 24.22228,1.11721655 C24.0717421,1.11721655 23.96388,1.18756138 23.8888455,1.29636138 C23.8126386,1.4049269 23.7821559,1.55874759 23.7821559,1.7217131 L23.7821559,1.7217131 L23.7821559,2.87912 C23.7821559,2.96189241 23.7481559,3.03997517 23.705949,3.09648552 C23.6618662,3.15393379 23.5797972,3.18980966 23.5120317,3.18980966 C23.3725145,3.18980966 23.2658248,3.04419586 23.2658248,2.87912 L23.2658248,2.87912 L23.2658248,1.74000276 C23.2658248,1.55874759 23.2447214,1.40000276 23.1771903,1.29354759 C23.1098938,1.18240276 23.0095352,1.12003034 22.8601697,1.11721655 C22.7044731,1.11721655 22.5963766,1.19201655 22.5208731,1.30363034 C22.4484179,1.41829241 22.4432593,1.57609931 22.4432593,1.74750621 L22.4432593,1.74750621 L22.4432593,2.87912 C22.4432593,2.96423724 22.4172317,3.03997517 22.3703352,3.09648552 C22.3264869,3.15393379 22.2505145,3.18980966 22.1782938,3.18980966 C22.1109972,3.18980966 22.0298662,3.15393379 21.9874248,3.09648552 C21.9449834,3.03997517 21.9184869,2.96189241 21.9184869,2.87912 L21.9184869,2.87912 L21.9184869,0.896802759 C21.9184869,0.811216552 21.9449834,0.73289931 21.9883628,0.676388966 C22.0333834,0.616830345 22.1177972,0.58072 22.1888455,0.58072 C22.2573145,0.58072 22.3276593,0.616830345 22.3703352,0.676388966 C22.4169972,0.73289931 22.4409145,0.808402759 22.4418524,0.891644138 C22.5750386,0.694444138 22.7424593,0.559382069 22.9734248,0.559382069 C23.1345145,0.559382069 23.269811,0.606513103 23.385411,0.694444138 C23.4834248,0.769478621 23.5586938,0.87312 23.617549,0.992706207 C23.7601145,0.730554483 24.0304731,0.559382069 24.324749,0.559382069 Z M28.7595917,0.560601379 C29.0360469,0.558256552 29.2592745,0.686049655 29.408171,0.895677241 C29.5598814,1.10460138 29.6386676,1.39747034 29.6386676,1.72410483 L29.6386676,1.72410483 L29.6386676,2.88620138 C29.6386676,2.97014621 29.6084193,3.04846345 29.5619917,3.10051862 C29.5165021,3.15327724 29.4510814,3.18962207 29.3788607,3.18962207 C29.3057021,3.18962207 29.2405159,3.15327724 29.1931503,3.10051862 C29.1417986,3.04846345 29.1150676,2.97014621 29.1150676,2.88620138 L29.1150676,2.88620138 L29.1150676,1.74239448 C29.1150676,1.56465655 29.0728607,1.40520828 28.9900883,1.29265655 C28.9124745,1.18268414 28.7945297,1.11491862 28.6350814,1.11491862 C28.469771,1.11491862 28.3438538,1.19042207 28.2577986,1.3055531 C28.1729159,1.41833931 28.1264883,1.5803669 28.1264883,1.74731862 L28.1264883,1.74731862 L28.1264883,2.88620138 C28.1264883,2.97014621 28.0974124,3.04846345 28.0493434,3.10051862 C28.0017434,3.15327724 27.9386676,3.18962207 27.8664469,3.18962207 C27.7932883,3.18962207 27.7271641,3.15327724 27.6790952,3.10051862 C27.6314952,3.04846345 27.6012469,2.97014621 27.6012469,2.88620138 L27.6012469,2.88620138 L27.6012469,0.897787586 C27.6012469,0.814311724 27.6314952,0.733415172 27.6755779,0.678311724 C27.7245848,0.618753103 27.7876607,0.58193931 27.8619917,0.58193931 C27.9344469,0.58193931 28.0017434,0.618753103 28.0493434,0.675966897 C28.0974124,0.733415172 28.1264883,0.814311724 28.1264883,0.897787586 L28.1264883,0.897787586 C28.2739779,0.696835862 28.5138538,0.560601379 28.7595917,0.560601379 Z M26.3694386,1.11491862 C26.1914662,1.11491862 26.0460869,1.20144276 25.9443214,1.33697379 C25.8409145,1.46781517 25.7841697,1.65844966 25.7841697,1.86760828 C25.7841697,2.07418759 25.8409145,2.30093241 25.9443214,2.43693241 C26.0460869,2.5703531 26.1914662,2.65359448 26.3694386,2.65359448 C26.5443628,2.65359448 26.6883352,2.5703531 26.7910386,2.43693241 C26.8923352,2.30093241 26.9518938,2.07418759 26.9518938,1.86760828 C26.9518938,1.65844966 26.8923352,1.46781517 26.7910386,1.33697379 C26.6883352,1.20144276 26.5443628,1.11491862 26.3694386,1.11491862 Z M30.858611,1.08893793 C30.7104179,1.09175172 30.5873145,1.14615172 30.4928179,1.2458069 C30.4093421,1.33702069 30.3521283,1.45988966 30.3239903,1.61206897 L30.3239903,1.61206897 L31.3927628,1.61206897 C31.3672041,1.46786207 31.3090524,1.34241379 31.2227628,1.25096552 C31.1273283,1.15177931 31.0042248,1.09175172 30.858611,1.08893793 Z" fill="#F4811F"></path><path d="M22.7857214,4.54207172 C22.8424662,4.54769931 22.8973352,4.55872 22.9493903,4.57466483 C23.0014455,4.59060966 23.0511559,4.61288552 23.096411,4.64102345 C23.1423697,4.66939586 23.1829352,4.70620966 23.2171697,4.75005793 C23.2514041,4.79414069 23.2786041,4.84760276 23.2978317,4.90950621 C23.3170593,4.97094069 23.3269076,5.04409931 23.3269076,5.12663724 L23.3269076,6.17289931 C23.3269076,6.21065103 23.3269076,6.24207172 23.3273766,6.26763034 C23.3278455,6.29154759 23.3301903,6.31100966 23.334411,6.32554759 C23.3379283,6.33797517 23.3437903,6.34665103 23.3519972,6.3525131 C23.3609076,6.35884414 23.375211,6.36283034 23.3942041,6.36447172 C23.4629076,6.37080276 23.5065214,6.41324414 23.5205903,6.48757517 C23.5287972,6.53236138 23.5269214,6.57058207 23.5147283,6.60129931 C23.5023007,6.63225103 23.4833076,6.65734069 23.457749,6.67563034 C23.4328938,6.69345103 23.4035834,6.70634759 23.3702869,6.71385103 C23.3381628,6.72135448 23.3051007,6.72510621 23.2727421,6.72510621 C23.232411,6.72510621 23.1944248,6.71783724 23.1601903,6.70376828 C23.1257214,6.68969931 23.0952386,6.6681269 23.06968,6.63998897 C23.0443559,6.61161655 23.0241903,6.57597517 23.0098869,6.53376828 C23.0002731,6.50516138 22.9937076,6.47303724 22.9906593,6.43763034 C22.961349,6.47608552 22.9287559,6.51078897 22.8935834,6.54127172 C22.8464524,6.58230621 22.7941628,6.61677517 22.7385903,6.64374069 C22.6830179,6.67070621 22.6241628,6.69134069 22.5636662,6.70470621 C22.4196938,6.73659586 22.2663421,6.72979586 22.1362041,6.69227862 C22.0599972,6.67047172 21.9924662,6.63506483 21.9350179,6.58676138 C21.8775697,6.53869241 21.831611,6.47585103 21.7983145,6.40034759 C21.7650179,6.3253131 21.7481352,6.2329269 21.7481352,6.12600276 C21.7481352,6.04534069 21.7565766,5.97405793 21.7732248,5.91426483 C21.7896386,5.85423724 21.8128524,5.80147862 21.8416938,5.75739586 C21.8707697,5.7133131 21.9059421,5.67579586 21.9460386,5.64601655 C21.9856662,5.61647172 22.0290455,5.59138207 22.0752386,5.57098207 C22.1209628,5.55081655 22.1699697,5.53369931 22.2206179,5.51986483 C22.2715007,5.50603034 22.3233214,5.49313379 22.3749076,5.48187862 C22.4117214,5.47343724 22.4534593,5.46523034 22.498949,5.4577269 C22.5435007,5.44998897 22.5880524,5.44178207 22.6326041,5.43287172 C22.6766869,5.42396138 22.7200662,5.41340966 22.7613352,5.40121655 C22.8021352,5.38949241 22.83848,5.37425103 22.8691972,5.35619586 C22.8994455,5.33860966 22.9238317,5.31680276 22.9418869,5.29147862 C22.9597076,5.26662345 22.968149,5.23754759 22.968149,5.20190621 C22.968149,5.13414069 22.9571283,5.07927172 22.9350869,5.03823724 C22.9130455,4.99767172 22.8846731,4.96578207 22.8502041,4.94397517 C22.8152662,4.92146483 22.7749352,4.90645793 22.730149,4.89872 C22.6316662,4.88207172 22.5315421,4.88394759 22.4459559,4.89942345 C22.4018731,4.90763034 22.362011,4.92193379 22.3277766,4.94209931 C22.2937766,4.96203034 22.2644662,4.98923034 22.2403145,5.0225269 C22.2163972,5.05582345 22.198811,5.09873379 22.1882593,5.15008552 C22.1828662,5.17658207 22.1732524,5.20049931 22.1596524,5.22136828 C22.1462869,5.24176828 22.1301076,5.25912 22.1115834,5.27318897 C22.0925903,5.28725793 22.0710179,5.29710621 22.0475697,5.30249931 C22.0238869,5.30765793 21.9999697,5.30765793 21.9762869,5.30249931 C21.9511972,5.29593379 21.9293903,5.28514759 21.9103972,5.26990621 C21.8918731,5.25513379 21.8761628,5.23684414 21.8637352,5.21574069 C21.8510731,5.19463724 21.8426317,5.17118897 21.8379421,5.14609931 C21.8332524,5.12100966 21.8337214,5.09498207 21.839349,5.06918897 C21.8583421,4.97281655 21.8930455,4.88957517 21.9425214,4.82157517 C21.9917628,4.75380966 22.0520248,4.69776828 22.1216662,4.65509241 C22.1910731,4.61265103 22.2693903,4.58146483 22.3542731,4.56223724 C22.4893352,4.53152 22.6372938,4.52683034 22.7857214,4.54207172 Z M26.0773903,4.53332552 C26.1775145,4.53332552 26.2696662,4.54739448 26.3510317,4.57482897 C26.4323972,4.60226345 26.5055559,4.64048414 26.5686317,4.68878759 C26.6314731,4.73709103 26.6863421,4.79453931 26.7318317,4.86019448 C26.7770869,4.92538069 26.8148386,4.99713241 26.84368,5.07380828 C26.8725214,5.15048414 26.8940938,5.23138069 26.9079283,5.31485655 C26.9215283,5.39833241 26.9285628,5.48368414 26.9285628,5.56809793 C26.9285628,5.59389103 26.9241076,5.61827724 26.9151972,5.6405531 C26.9062869,5.66282897 26.8940938,5.68252552 26.8786179,5.69893931 C26.8631421,5.71582207 26.8446179,5.72918759 26.8235145,5.73903586 C26.8021766,5.74911862 26.7794317,5.75427724 26.7555145,5.75427724 L25.565749,5.75427724 C25.5669214,5.83493931 25.5781766,5.91208414 25.598811,5.98360138 C25.6206179,6.05957379 25.6543834,6.12710483 25.6991697,6.18431862 C25.7437214,6.24106345 25.8007007,6.28678759 25.8682317,6.31984966 C25.9357628,6.35314621 26.0168938,6.37002897 26.10928,6.37002897 C26.2075283,6.37002897 26.2949903,6.34587724 26.3688524,6.29827724 C26.4422455,6.25091172 26.4978179,6.17447034 26.5336938,6.07059448 C26.5522179,6.01807034 26.5819972,5.98149103 26.6220938,5.96156 C26.6626593,5.94162897 26.7067421,5.94092552 26.7519972,5.95968414 C26.7742731,5.96906345 26.7942041,5.98266345 26.8106179,5.99978069 C26.8270317,6.01713241 26.8399283,6.03682897 26.8486041,6.05840138 C26.8575145,6.08020828 26.8624386,6.10342207 26.8633766,6.12733931 C26.8643145,6.15172552 26.8605628,6.17658069 26.8521214,6.2009669 C26.8209352,6.28678759 26.7806041,6.36299448 26.7323007,6.42794621 C26.6835283,6.49289793 26.6263145,6.54823586 26.5620662,6.59208414 C26.4978179,6.63593241 26.4260662,6.66946345 26.3482179,6.69173931 C26.2708386,6.71378069 26.1871283,6.72503586 26.0989628,6.72503586 C25.9488938,6.72503586 25.816411,6.69713241 25.7055007,6.64226345 C25.5945903,6.58739448 25.5007972,6.50978069 25.4269352,6.41153241 C25.3530731,6.3137531 25.2967972,6.19604276 25.25928,6.06168414 C25.2219972,5.92826345 25.2008938,5.77983586 25.1966731,5.62109103 C25.1966731,5.46539448 25.218011,5.32001517 25.2599834,5.18823586 C25.3021903,5.05622207 25.3626869,4.94062207 25.4398317,4.84424966 C25.517211,4.74764276 25.6110041,4.6709669 25.7188662,4.61609793 C25.8267283,4.56122897 25.9474869,4.53332552 26.0773903,4.53332552 Z M21.4568138,4.57471172 C21.4772138,4.58221517 21.495269,4.59393931 21.5112138,4.60941517 C21.5269241,4.62512552 21.5393517,4.64294621 21.548731,4.66334621 C21.5581103,4.68374621 21.5639724,4.70578759 21.5660828,4.72923586 C21.5681931,4.75291862 21.5658483,4.77660138 21.5590483,4.80028414 L21.0544414,6.56171862 C21.0485793,6.58352552 21.0410759,6.60228414 21.0321655,6.61846345 C21.0232552,6.63464276 21.011531,6.64800828 20.9969931,6.65902897 C20.9824552,6.66981517 20.9641655,6.67778759 20.9421241,6.68318069 C20.9198483,6.68833931 20.8926483,6.69091862 20.8602897,6.69091862 C20.8269931,6.69091862 20.7993241,6.68833931 20.7772828,6.68318069 C20.7550069,6.67778759 20.7364828,6.66981517 20.7217103,6.65902897 C20.7067034,6.64800828 20.6949793,6.63440828 20.6865379,6.61776 C20.6780966,6.60134621 20.6712966,6.58211862 20.6661379,6.56031172 L20.3148828,5.08564966 L19.9826207,6.55890483 C19.9776966,6.58164966 19.9706621,6.60134621 19.9617517,6.61776 C19.9526069,6.63440828 19.9406483,6.64800828 19.9251724,6.65902897 C19.909931,6.66981517 19.8907034,6.67778759 19.8677241,6.68318069 C19.8447448,6.68833931 19.8166069,6.69091862 19.7835448,6.69091862 C19.7502483,6.69091862 19.7223448,6.68810483 19.6998345,6.68224276 C19.6770897,6.67661517 19.6585655,6.66840828 19.6435586,6.65762207 C19.6285517,6.64660138 19.6165931,6.63300138 19.6072138,6.6163531 C19.5978345,6.59993931 19.5900966,6.58024276 19.5842345,6.55749793 L19.0859586,4.82021517 C19.0782207,4.79465655 19.0758759,4.76909793 19.0782207,4.74353931 C19.0808,4.71798069 19.087131,4.69429793 19.0967448,4.67249103 C19.1065931,4.65091862 19.1199586,4.63169103 19.1370759,4.61504276 C19.1541931,4.59862897 19.1736552,4.5859669 19.195931,4.57752552 C19.2189103,4.57002207 19.2421241,4.56744276 19.2653379,4.56978759 C19.2887862,4.57213241 19.3103586,4.57893241 19.3300552,4.59018759 C19.3495172,4.60167724 19.366869,4.61668414 19.3816414,4.63567724 C19.3966483,4.65467034 19.4074345,4.67694621 19.4142345,4.70250483 L19.7910483,6.22547034 L20.1270621,4.71094621 C20.1364414,4.66733241 20.1554345,4.63262897 20.1838069,4.60660138 C20.2124138,4.58057379 20.2595448,4.56767724 20.3249655,4.56767724 C20.3573241,4.56767724 20.3852276,4.57096 20.4082069,4.57752552 C20.4311862,4.58409103 20.4501793,4.59347034 20.4656552,4.60519448 C20.4808966,4.61691862 20.4933241,4.63169103 20.5027034,4.64927724 C20.5120828,4.66662897 20.5193517,4.68632552 20.5242759,4.70813241 L20.8795172,6.23109793 L21.2537517,4.69101517 C21.2596138,4.66733241 21.2694621,4.64669793 21.2830621,4.62864276 C21.2966621,4.61058759 21.3128414,4.59651862 21.3316,4.5859669 C21.3503586,4.57564966 21.3705241,4.5695531 21.392331,4.56767724 C21.4141379,4.5655669 21.4354759,4.56814621 21.4568138,4.57471172 Z M27.4638634,3.96003862 C27.4861393,3.96003862 27.5070083,3.96425931 27.5264703,3.97293517 C27.5461669,3.98137655 27.5632841,3.99333517 27.578291,4.00904552 C27.5930634,4.02475586 27.6047876,4.04351448 27.613229,4.06579034 C27.6219048,4.08806621 27.6261255,4.11292138 27.6261255,4.14035586 L27.6261255,4.59736276 L27.8495876,4.59736276 C27.8709255,4.59736276 27.8906221,4.60158345 27.9084428,4.61002483 C27.9262634,4.61870069 27.9417393,4.63019034 27.9544014,4.64496276 C27.9672979,4.65950069 27.9771462,4.67661793 27.9844152,4.69608 C27.9916841,4.71530759 27.9952014,4.73641103 27.9952014,4.75915586 C27.9952014,4.78190069 27.9916841,4.80300414 27.9844152,4.82223172 C27.9771462,4.84169379 27.9672979,4.85904552 27.9544014,4.87405241 C27.9417393,4.88929379 27.9262634,4.90101793 27.9084428,4.90969379 C27.8906221,4.91813517 27.8709255,4.92235586 27.8495876,4.92235586 L27.6261255,4.92235586 L27.6261255,6.16722483 C27.6261255,6.21529379 27.63316,6.25421793 27.647229,6.28352828 C27.6612979,6.31283862 27.6805255,6.33464552 27.7046772,6.34871448 C27.7290634,6.36301793 27.7574359,6.37122483 27.7902634,6.37356966 C27.823091,6.37591448 27.8577945,6.37474207 27.8943738,6.37005241 C27.9157117,6.36723862 27.9354083,6.36864552 27.9536979,6.3742731 C27.9719876,6.38013517 27.9879324,6.38928 28.0017669,6.40194207 C28.0153669,6.41483862 28.0261531,6.43054897 28.03436,6.44883862 C28.0423324,6.46736276 28.0472566,6.48752828 28.0488979,6.50933517 C28.0531186,6.55365241 28.0435048,6.59234207 28.0195876,6.62493517 C27.9956703,6.65752828 27.9621393,6.6762869 27.9185255,6.68097655 C27.8214497,6.69316966 27.7349255,6.69199724 27.6587186,6.67745931 C27.5825117,6.6626869 27.5177945,6.63478345 27.4645669,6.59374897 C27.4113393,6.55248 27.3707738,6.49784552 27.3431048,6.42984552 C27.3154359,6.36161103 27.3016014,6.27977655 27.3016014,6.18410759 L27.3016014,4.92235586 L27.1318359,4.92235586 C27.1104979,4.92235586 27.0908014,4.91813517 27.0729807,4.90969379 C27.05516,4.90101793 27.0396841,4.88929379 27.0270221,4.87405241 C27.01436,4.85904552 27.0042772,4.84169379 26.9970083,4.82223172 C26.9897393,4.80300414 26.9862221,4.78190069 26.9862221,4.75915586 C26.9862221,4.73641103 26.9897393,4.71530759 26.9970083,4.69608 C27.0042772,4.67661793 27.01436,4.65950069 27.0270221,4.64496276 C27.0396841,4.63019034 27.05516,4.61870069 27.0729807,4.61002483 C27.0908014,4.60158345 27.1104979,4.59736276 27.1318359,4.59736276 L27.3016014,4.59736276 L27.3016014,4.14035586 C27.3016014,4.11385931 27.3058221,4.0894731 27.3144979,4.06719724 C27.3229393,4.04492138 27.334429,4.02592828 27.3489669,4.00974897 C27.3635048,3.99380414 27.3806221,3.98137655 27.4005531,3.97293517 C27.4207186,3.96425931 27.4418221,3.96003862 27.4638634,3.96003862 Z M23.9247683,3.79554897 C23.9470441,3.79554897 23.9679131,3.79976966 23.9873752,3.80821103 C24.0070717,3.81665241 24.024189,3.82884552 24.0391959,3.84432138 C24.0539683,3.86003172 24.0656924,3.87902483 24.0743683,3.90130069 C24.0828097,3.92334207 24.0870303,3.94819724 24.0870303,3.97563172 L24.0870303,6.50921793 C24.0870303,6.53665241 24.0828097,6.56150759 24.0743683,6.58378345 C24.0656924,6.60605931 24.0539683,6.62481793 24.0391959,6.64052828 C24.024189,6.65600414 24.0070717,6.66819724 23.9873752,6.67663862 C23.9679131,6.68531448 23.9470441,6.68953517 23.9247683,6.68953517 C23.9027269,6.68953517 23.8816234,6.68531448 23.8616924,6.67663862 C23.8415269,6.66819724 23.8244097,6.65600414 23.8098717,6.63982483 C23.7953338,6.62364552 23.7838441,6.6048869 23.7754028,6.58308 C23.7667269,6.5612731 23.7625062,6.53665241 23.7625062,6.50921793 L23.7625062,3.97563172 C23.7625062,3.94913517 23.7667269,3.92474897 23.7754028,3.90270759 C23.7838441,3.88043172 23.7953338,3.86120414 23.8098717,3.84502483 C23.8244097,3.82908 23.8415269,3.81665241 23.8616924,3.80821103 C23.8816234,3.79976966 23.9027269,3.79554897 23.9247683,3.79554897 Z M24.7097697,3.79554897 C24.7320455,3.79554897 24.7529145,3.79976966 24.7723766,3.80821103 C24.7920731,3.81665241 24.8091903,3.82884552 24.8241972,3.84432138 C24.8389697,3.86003172 24.8506938,3.87902483 24.8593697,3.90130069 C24.867811,3.92334207 24.8720317,3.94819724 24.8720317,3.97563172 L24.8720317,6.50921793 C24.8720317,6.53665241 24.867811,6.56150759 24.8593697,6.58378345 C24.8506938,6.60605931 24.8389697,6.62481793 24.8241972,6.64052828 C24.8091903,6.65600414 24.7920731,6.66819724 24.7723766,6.67663862 C24.7529145,6.68531448 24.7320455,6.68953517 24.7097697,6.68953517 C24.6877283,6.68953517 24.6666248,6.68531448 24.6464593,6.67663862 C24.6265283,6.66819724 24.609411,6.65600414 24.5948731,6.63982483 C24.5803352,6.62364552 24.5688455,6.6048869 24.5604041,6.58308 C24.5517283,6.5612731 24.5475076,6.53665241 24.5475076,6.50921793 L24.5475076,3.97563172 C24.5475076,3.94913517 24.5517283,3.92474897 24.5604041,3.90270759 C24.5688455,3.88043172 24.5803352,3.86120414 24.5948731,3.84502483 C24.609411,3.82908 24.6265283,3.81665241 24.6464593,3.80821103 C24.6666248,3.79976966 24.6877283,3.79554897 24.7097697,3.79554897 Z M22.968149,5.63546483 C22.9461076,5.64836138 22.920549,5.65961655 22.8921766,5.66899586 C22.852549,5.68189241 22.8087007,5.69314759 22.7620386,5.70276138 C22.715611,5.71214069 22.6663697,5.72128552 22.6157214,5.7297269 C22.566011,5.73816828 22.5163007,5.74848552 22.4679972,5.75997517 C22.4206317,5.77169931 22.3744386,5.78647172 22.3312938,5.80405793 C22.2888524,5.82117517 22.2511007,5.84321655 22.2194455,5.86947862 C22.1882593,5.89527172 22.1631697,5.92739586 22.14488,5.96514759 C22.1263559,6.00289931 22.117211,6.0493269 22.117211,6.10325793 C22.117211,6.15414069 22.1258869,6.19681655 22.1432386,6.2301131 C22.1605903,6.26340966 22.1842731,6.29084414 22.2138179,6.31147862 C22.2438317,6.3321131 22.2790041,6.34735448 22.3183972,6.35626483 C22.3587283,6.36540966 22.4016386,6.37009931 22.4461903,6.37009931 C22.5404524,6.37009931 22.6215834,6.35579586 22.6872386,6.32742345 C22.7528938,6.29905103 22.8072938,6.26340966 22.8485628,6.22120276 C22.8895972,6.17899586 22.92008,6.13233379 22.9393076,6.08238897 C22.9585352,6.03197517 22.968149,5.98414069 22.968149,5.94005793 L22.968149,5.63546483 Z M26.0619145,4.88692552 C25.9892248,4.88692552 25.9226317,4.90122897 25.8642455,4.9293669 C25.8058593,4.95750483 25.7547421,4.99619448 25.7127697,5.04426345 C25.6703283,5.09280138 25.6360938,5.15024966 25.6110041,5.21520138 C25.5877903,5.27499448 25.5730179,5.33924276 25.5669214,5.40630483 L26.5569076,5.40630483 C26.5552662,5.33103586 26.5437766,5.26186345 26.5222041,5.20042897 C26.4992248,5.13500828 26.4661628,5.07826345 26.4237214,5.03183586 C26.38128,4.98564276 26.3289903,4.9497669 26.2680248,4.92467724 C26.2070593,4.89958759 26.1376524,4.88692552 26.0619145,4.88692552 Z" fill="#6C6E70"></path></g></g></svg>