<svg xmlns="http://www.w3.org/2000/svg" width="38" height="24" fill="none" aria-labelledby="pi-truemoney_pay" role="img" viewBox="0 0 38 24"><title id="pi-truemoney_pay">TrueMoney Pay</title><path fill="#fff" d="M0 0h38v24H0z"/><path fill="#EC1D24" fill-rule="evenodd" d="M15.2 6.53a.78.78 0 0 0-.7-.53H9.4c-.29 0-.45.24-.37.53l2.89 9.61c.09.3.4.53.69.53h4.18c.3 0 .62-.23.74-.53l.3-.8-2.64-8.8Z" clip-rule="evenodd"/><path fill="#9D0B0F" fill-rule="evenodd" d="M21.23 8.9H16.2c-.33 0-.48.24-.58.53l-2.35 6.71a.83.83 0 0 1-.72.53h5.96c.3 0 .62-.24.72-.53l2.36-6.7c.1-.3-.05-.54-.35-.54Z" clip-rule="evenodd"/><path fill="#FFCD02" fill-rule="evenodd" d="M21.97 9.43a.78.78 0 0 0-.7-.53h-5.09c-.3 0-.46.24-.37.53l2.4 8.04c.08.3.4.53.69.53h4.18c.3 0 .62-.24.74-.53l.3-.8z" clip-rule="evenodd"/><path fill="#F58425" fill-rule="evenodd" d="M29.19 7.2h-5.42c-.3 0-.63.24-.74.54l-3.42 9.73a.87.87 0 0 1-.73.53h6.48c.29 0 .62-.24.73-.53l3.42-9.73c.12-.3-.03-.54-.32-.54" clip-rule="evenodd"/></svg>