<svg xmlns="http://www.w3.org/2000/svg" width="38" height="24" viewBox="0 0 38 24" role="img" aria-labelledby="pi-trustly"><title id="pi-trustly">Trustly</title><path fill="#000" opacity=".07" d="M35 0H3C1.3 0 0 1.3 0 3v18c0 1.7 1.4 3 3 3h32c1.7 0 3-1.3 3-3V3c0-1.7-1.4-3-3-3z"/><path fill="#fff" d="M35 1c1.1 0 2 .9 2 2v18c0 1.1-.9 2-2 2H3c-1.1 0-2-.9-2-2V3c0-1.1.9-2 2-2h32"/><path fill="none" pointer-events="none" d="M0 0h38v24H0z"/><g transform="matrix(.76876 0 0 .76876 4.5 2.91)"><path fill="none" pointer-events="none" d="M0 0h38v24H0z"/><path d="M10.325 5.316h6.107V1.162l4.879 4.154-4.879 4.16v2.123h5.918V5.316h5.434V.426H10.325zM3.29 21.576v-5.879H.816v-1.396h6.73v1.396H5.07v5.879H3.289z" fill="#0ee06e"/><path d="M7.259 21.576v-5.278h1.637v.835c.388-.709.89-.835 1.424-.835h.632v1.414h-.535c-.77 0-1.46.379-1.46 1.536v2.332H7.26zm4.464-1.932v-3.346h1.694v3.02c0 .618.352 1.074 1.077 1.074.699 0 1.142-.456 1.142-1.067v-3.027h1.694v5.283h-1.612v-.672c-.408.528-1.015.788-1.785.788-1.358 0-2.21-.796-2.21-2.054zm6.332.448l1.474-.287c.071.41.454.718 1.194.718.572 0 .888-.2.888-.448 0-.2-.129-.349-.714-.457l-.97-.178c-1.24-.231-1.765-.718-1.765-1.606 0-.905.877-1.636 2.525-1.636 1.75 0 2.454.897 2.526 1.484l-1.485.278c-.072-.309-.336-.648-1.076-.648-.47 0-.817.178-.817.44 0 .216.174.339.48.4l1.412.278c1.077.209 1.577.757 1.577 1.536 0 .835-.78 1.714-2.571 1.714-1.964-.004-2.607-1.01-2.678-1.588zm8.504 1.484c-1.096 0-1.83-.519-1.83-1.545V17.56h-1.041v-1.262h1.04v-1.176l1.694-.416v1.592h1.25v1.267h-1.25v2.21c0 .387.234.539.688.539h.654v1.266H26.56zm2.128 0v-7.27h1.694v7.274h-1.694zm6.8-5.278H37.3l-2.582 7.17h-1.81l.714-1.892h-.934l-1.709-5.278h1.81l1.276 4.086 1.424-4.086z" fill="#0ee06e"/></g></svg>
