<svg version="1.1" xmlns="http://www.w3.org/2000/svg" viewBox="0 0 38 24" width="38" height="24" role="img" aria-labelledby="pi-trustly" overflow="visible" xml:space="preserve"><title id="pi-trustly">Trustly</title><path fill="#0EE06E" d="M32.338 24H5.662a1.845 1.845 0 01-1.846-1.846V1.846A1.845 1.845 0 015.662 0h26.677c1.02 0 1.846.826 1.846 1.846v20.308c0 1.02-.827 1.846-1.847 1.846z"/><path d="M10.457 18.715v-3.789H9.091v-.831h3.632v.831h-1.366v3.789h-.9zM12.622 18.715V15.36h.835v.531c.217-.448.489-.531.78-.531h.328v.84h-.286c-.425 0-.798.245-.798.988v1.523h-.858v.004zM15.035 17.502v-2.137h.858v1.934c0 .429.222.715.614.715.378 0 .66-.286.66-.711V15.36h.863v3.355h-.83v-.425c-.217.337-.549.498-.969.498-.706.001-1.196-.47-1.196-1.286zM18.483 17.765l.757-.171c.037.295.277.494.678.494.328 0 .517-.138.517-.318 0-.148-.088-.245-.406-.323l-.545-.125c-.637-.148-.937-.448-.937-1.006 0-.568.475-1.02 1.343-1.02.918 0 1.297.545 1.348.937l-.757.166c-.037-.208-.194-.429-.609-.429-.272 0-.475.125-.475.305 0 .157.12.245.305.291l.738.175c.577.138.854.475.854.969 0 .54-.438 1.071-1.371 1.071-1.015-.001-1.394-.606-1.44-1.016zM23.066 18.715c-.577 0-.942-.328-.942-.942v-1.666h-.558v-.747h.558v-.766l.858-.245v1.011h.683v.748h-.683v1.518c0 .245.12.342.369.342h.374v.748h-.659zM24.285 18.715v-4.62h.858v4.62h-.858zM27.986 15.36h.923l-1.417 4.555h-.923l.392-1.2h-.466l-.955-3.355h.923l.729 2.64.794-2.64zM14.265 8.391h3.309v-2.64l2.64 2.64-2.64 2.64v1.347h3.203V8.391h2.945V5.285h-9.457z"/></svg>