<svg xmlns="http://www.w3.org/2000/svg" width="38" height="24" fill="none" aria-labelledby="pi-trustly" role="img" viewBox="0 0 38 24"><title id="pi-trustly">Trustly</title><path fill="#0EE06E" d="M0 0h38v24H0z"/><path fill="#000" d="M10.46 18.71v-3.78H9.09v-.83h3.63v.83h-1.36v3.79h-.9Zm2.16 0v-3.35h.84v.53c.21-.45.49-.53.78-.53h.32v.84h-.28c-.43 0-.8.25-.8.99v1.52zm2.42-1.2v-2.15h.85v1.94c0 .43.22.71.62.71.38 0 .66-.28.66-.7v-1.95h.86v3.36h-.83v-.43c-.22.34-.55.5-.97.5-.7 0-1.2-.47-1.2-1.29Zm3.44.25.76-.17c.04.3.28.5.68.5.33 0 .51-.14.51-.32 0-.15-.08-.25-.4-.32l-.55-.13c-.63-.15-.93-.45-.93-1 0-.57.47-1.02 1.34-1.02.92 0 1.3.54 1.35.93l-.76.17c-.04-.2-.2-.43-.6-.43-.28 0-.48.12-.48.3 0 .16.12.25.3.3l.74.17c.58.14.85.48.85.97 0 .54-.43 1.07-1.37 1.07-1.01 0-1.4-.6-1.44-1.02m4.59.95c-.58 0-.95-.32-.95-.94v-1.66h-.55v-.75h.55v-.77l.86-.24v1.01h.68v.75h-.68v1.52c0 .24.12.34.37.34h.38v.75h-.66Zm1.21 0V14.1h.86v4.63h-.86Zm3.7-3.35h.93l-1.42 4.55h-.92l.4-1.2h-.47l-.96-3.35h.92L27.2 18l.8-2.64Zm-13.7-6.97h3.3V5.75l2.64 2.64-2.64 2.64v1.35h3.2V8.39h2.95V5.3h-9.45v3.1Z"/></svg>