<svg viewBox="0 0 38 24" xmlns="http://www.w3.org/2000/svg" width="38" height="24" style="background-color:#fff" stroke-width="0" role="img" aria-labelledby="pi-trustly"><title id="pi-trustly">Trustly</title><path fill="#69D61F" d="M11 10.5h-1V10c0-1.4-1-2.4-2-2.4-1.4 0-2.4 1-2.4 2.3v.5h-1c-.3 0-.7.2-.6.6l.7 3.4c0 .4.3.5.7.5h5c.3 0 .6-.2.7-.6L12 11c0-.3-.3-.5-.7-.5zM9 12h-.5v1.6h-.7V12H7v-.5c-.2 0 0 0 0 0h1.7v.4zm.5-1.5h-3v-.7c0-.8.8-1.4 1.6-1.4.7 0 1.3.6 1.3 1.4v.7zM7.2 16c0 .4-.4.8-1 .8-.4 0-.7-.4-.7-.8 0-.5.3-1 .8-1s1 .5 1 1zm3.1 0c0 .4-.4.8-1 .8-.4 0-.8-.4-.8-.8s.4-1 1-1c.4 0 .8.4.8 1zm0 0"/><path d="M16.2 11.6h-1v3c0 .2 0 .2-.4.2h-1s-.2 0-.2-.2v-3h-1v-1.1H16s.2 0 .2.2v.9zm2.5 0h.2v.8s0 .2-.3.2h-.5c-.3.2-.3.3-.3.6v1.4c0 .2 0 .3-.4.3h-.8c-.2 0-.3-.2-.3-.3v-2.3c0-.4.2-.7 1-.7h1.2zm1.3 3.2c-.3 0-.8 0-.8-1V12c0-.2 0-.4.3-.4h.8s.3 0 .3.3v1.4c0 .2 0 .3.2.3s.3 0 .3-.3V12c0-.3 0-.4.3-.4h.8c.3 0 .4 0 .4.2v2c0 .8-.5 1-.7 1H20zm4.3.2l-1.4-.2c-.2 0-.2-1 0-.8h1.3c0-.2-.2-.3-.4-.4-.5 0-1-.4-1-1 0-.8.8-1 1.6-1h1s0 .8-.3.8h-1l.4.3c.4 0 1 .5 1 1.2 0 .8-1 1-1.4 1zm3.7-2.5h-.5v1.3s0 .2.3.2c0 0 .2.8 0 .8h-.6c-.8 0-1-.4-1-.8v-1.6c-.3 0-.3 0-.3-.2v-.4c0-.2 0-.2.2-.2h.2v-.4c0-.2.2-.3.3-.3l.8-.2c.2 0 .2 0 .2.3v.6h.4c.3 0 .3.2.3.4v.3l-.4.2zm1.7 2.3h-1v-4.4h1c.2 0 .2 0 .2.3v4h-.3zm2.3 1v.2h-1c-.2 0-.2 0 0-.2l.3-1-1.2-3s0-.2.2-.2h1s.2 0 .2.3l.4 1 .6-1c0-.2 0-.4.2-.4h.7c.3 0 .3 0 .2.3L32 15.7zm0 0"/></svg>