<svg xmlns="http://www.w3.org/2000/svg" width="38" height="24" fill="none" aria-labelledby="pi-twigpay" role="img" viewBox="0 0 38 24"><title id="pi-twigpay">Twig Pay</title><path fill="url(#pi-twigpay-a)" d="M0 0h38v24H0z"/><path fill="#fff" d="M27.62 11.12a.48.48 0 0 1 .15.37.49.49 0 0 1-.32.47.5.5 0 0 1-.2.04h-.51v-1.02h.5c.16 0 .29.05.38.14m1.69 1.38h.93l-.47-1.29zm5.24-2.4v3.85a.33.33 0 0 1-.33.33h-8.65a.33.33 0 0 1-.33-.33V10.1c0-.19.14-.33.33-.33h8.65c.18 0 .33.14.33.33m-6.46 2.2c.22-.2.33-.47.33-.8 0-.35-.1-.62-.33-.83-.21-.2-.5-.31-.84-.31h-1.07a.1.1 0 0 0-.1.1v3.13c0 .07.04.1.1.1h.45c.07 0 .1-.03.1-.1v-.97h.52c.35 0 .63-.1.84-.31Zm3.25 1.28-1.25-3.13c-.03-.06-.07-.1-.13-.1h-.37c-.06 0-.1.04-.13.1l-1.25 3.13c-.03.07 0 .12.07.12h.5a.13.13 0 0 0 .13-.1l.2-.55h1.33l.2.56a.13.13 0 0 0 .12.09h.5c.08 0 .1-.05.08-.12m2.5-3.22h-.53c-.05 0-.1.03-.13.09l-.69 1.27-.7-1.27c-.03-.06-.07-.1-.12-.1h-.53c-.07 0-.1.05-.07.13l1.1 1.9v1.21c0 .07.03.1.1.1h.45c.06 0 .1-.03.1-.1v-1.2l1.09-1.91c.03-.08 0-.12-.07-.12M16.8 7.02a.71.71 0 0 0-.7.7.71.71 0 0 0 .7.68.7.7 0 0 0 .7-.69.7.7 0 0 0-.7-.7Zm.56 2.89v4.23c0 .09-.05.14-.14.14h-.85c-.09 0-.14-.04-.14-.14V9.91c0-.1.05-.14.14-.14h.85c.09 0 .14.05.14.14m5.49 5.51c0 1.04-.92 1.67-2.3 1.68-1.39-.02-2.3-.64-2.3-1.68 0-.33.1-.62.28-.83-.19-.22-.3-.5-.29-.8 0-.41.2-.78.54-.96a1.92 1.92 0 0 1-.42-1.23 1.9 1.9 0 0 1 1.94-1.97c.18 0 .49.05.76.14h1.4c.13 0 .21.08.21.2v.53a.2.2 0 0 1-.21.2h-.47c.19.29.28.59.28.9a1.9 1.9 0 0 1-1.98 1.94 2 2 0 0 1-.82-.17.37.37 0 0 0-.22.36c0 .19.22.32.53.32h1.35c1.05 0 1.72.52 1.72 1.37M19.4 11.6c0 .5.39.9.9.9a.9.9 0 0 0 .85-1.25.91.91 0 0 0-.85-.57c-.5 0-.9.4-.9.92m2.43 3.92c0-.33-.23-.45-.7-.45h-1.18c-.48 0-.71.12-.71.45 0 .37.5.58 1.3.58s1.29-.21 1.29-.58M15.6 9.89a.2.2 0 0 1-.02.06l-1.79 4.22a.25.25 0 0 1-.2.12h-.62c-.08 0-.17-.05-.2-.12l-1.24-2.98-1.25 2.98c-.02.06-.12.12-.2.12h-.61c-.08 0-.18-.05-.2-.12l-1.8-4.22a.2.2 0 0 1-.02-.06c0-.07.06-.11.12-.11h.91a.2.2 0 0 1 .2.13l1.1 3.1 1.12-3.1a.2.2 0 0 1 .2-.13h.86a.2.2 0 0 1 .2.13l1.12 3.1 1.1-3.1a.2.2 0 0 1 .19-.13h.9c.08 0 .13.04.13.1Zm-7.8 3.88c-.35.39-.87.62-1.46.62a1.88 1.88 0 0 1-1.95-1.94v-1.59h-.81a.14.14 0 0 1-.14-.14v-.8a.14.14 0 0 1 .14-.14h.8v-1.7a.14.14 0 0 1 .14-.14h.85a.14.14 0 0 1 .14.14v1.7h.62a.2.2 0 0 1 .19.13l.35.82c.02.06-.02.13-.08.13H5.52v1.59c0 .5.37.82.83.82.43 0 .68-.28.85-.51a.2.2 0 0 1 .3-.04.2.2 0 0 1 .06.08l.3.7a.24.24 0 0 1-.04.27Z"/><defs><linearGradient id="pi-twigpay-a" x1="0" x2="38" y1="12" y2="12" gradientUnits="userSpaceOnUse"><stop stop-color="#00DAB9"/><stop offset="1" stop-color="#72B0DA"/></linearGradient></defs></svg>