<svg xmlns="http://www.w3.org/2000/svg" width="38" height="24" fill="none" aria-labelledby="pi-twint" role="img" viewBox="0 0 38 24"><title id="pi-twint">Twint</title><path fill="#000" d="M0 0h38v24H0z"/><path fill="#fff" d="M11.82 14.48a.49.49 0 0 1-.22.38l-4.29 2.48a.49.49 0 0 1-.44 0l-4.3-2.48a.49.49 0 0 1-.21-.38V9.52a.49.49 0 0 1 .22-.38l4.29-2.48a.49.49 0 0 1 .44 0l4.3 2.48a.49.49 0 0 1 .21.38zm23.83-4.6H31.8v.91h1.38v3.93h1.09v-3.93h1.38zm-17.46 0h-3.84v.91h1.38v3.93h1.09v-3.93h1.37zm11.12-.15c-1.2 0-1.88.77-1.88 1.88v3.1h1.08V11.6c0-.49.29-.86.81-.86.54 0 .82.44.82.86v3.13h1.07v-3.1c0-1.12-.7-1.9-1.9-1.9m-4.06.15h1.08v4.83h-1.08zm-3.64 1.91.03.22 1.01 2.7h.44l1.38-4.83H23.4l-.66 2.54-.04.27-.05-.27-.88-2.54h-.35l-.87 2.54-.06.27-.04-.27-.65-2.54h-1.06l1.37 4.83h.44l1.01-2.7.04-.22"/><path fill="#FF4800" d="m9.32 12.01-1.11 1.64-.58-.88.66-.98c.13-.18.39-.66.09-1.33a1.38 1.38 0 0 0-2.5 0 1.27 1.27 0 0 0 .08 1.3l.67 1 .5.72.75 1.14a.43.43 0 0 0 .33.2c.2 0 .32-.19.34-.21l1.75-2.6zm-2.2.04s-.3-.44-.48-.75a.56.56 0 1 1 .97 0l-.48.75Z"/><path fill="#007CE2" d="m6.05 13.6-1.1-1.54-.49-.76a.55.55 0 0 1 .48-.83c.06 0 .12 0 .17.02l.39-.7a1.38 1.38 0 0 0-1.8.67 1.27 1.27 0 0 0 .08 1.3l1.92 2.85c.02.03.14.2.34.2a.43.43 0 0 0 .34-.2l.58-.88-.5-.73-.42.6Z"/></svg>