<svg xmlns="http://www.w3.org/2000/svg" width="38" height="24" version="1.1" xml:space="preserve" role="img" fill-rule="evenodd" clip-rule="evenodd" stroke-linejoin="round" stroke-miterlimit="1.414"><title>Twint</title><path d="M38 5.328a.529.529 0 0 0-.528-.528H.528A.529.529 0 0 0 0 5.328v13.344c0 .291.237.528.528.528h36.944a.529.529 0 0 0 .528-.528V5.328z"/><path d="M11.822 14.477a.49.49 0 0 1-.22.383L7.31 17.337a.49.49 0 0 1-.442 0L2.576 14.86a.49.49 0 0 1-.22-.383V9.522a.49.49 0 0 1 .22-.382l4.292-2.478a.49.49 0 0 1 .442 0l4.291 2.478a.49.49 0 0 1 .221.382v4.955zM35.645 9.88H31.8v.913h1.378v3.923h1.088v-3.923h1.379v-.914zm-17.452 0h-3.845v.913h1.379v3.923h1.088v-3.923h1.378v-.914zm11.12-.154c-1.209 0-1.882.771-1.882 1.887v3.103h1.075V11.59c0-.486.289-.86.819-.86s.815.444.815.86v3.127h1.075v-3.103c0-1.116-.696-1.887-1.904-1.887h.002zm-4.061.154h1.08v4.836h-1.08zm-3.644 1.915l.036.215 1.009 2.706h.44l1.375-4.837h-1.063l-.655 2.541-.039.272-.053-.272-.875-2.54h-.35l-.876 2.54-.053.272-.039-.272-.654-2.54h-1.064l1.375 4.836h.44l1.01-2.706.036-.215" fill="#fff" fill-rule="nonzero"/><path d="M275.92 297.59l-16.75 24.58-8.6-13.17 9.93-14.8c1.84-2.65 5.77-9.88 1.22-19.8a20.64 20.64 0 0 0-18.69-11.923 20.64 20.64 0 0 0-18.69 11.923 19.025 19.025 0 0 0 1.13 19.5c3.939 5.786 5.48 8.08 10.1 14.89l7.43 10.74 11.24 17.15a6.414 6.414 0 0 0 5 2.84c3 0 4.83-2.67 5.06-3l26.29-38.92-14.67-.01zm-33 .63s-4.39-6.65-7.24-11.31a8.331 8.331 0 0 1-1.085-4.111c0-4.57 3.76-8.33 8.33-8.33s8.33 3.76 8.33 8.33a8.331 8.331 0 0 1-1.085 4.111c-2.8 4.65-7.17 11.31-7.17 11.31h-.08z" fill="url(#_Radial1)" fill-rule="nonzero" transform="translate(-9.088 -7.846) scale(.06673)"/><path d="M226.8 321.38l-16.47-23.13s-4.39-6.68-7.24-11.33a8.288 8.288 0 0 1-1.108-4.14c0-4.548 3.742-8.29 8.29-8.29h.058a8.726 8.726 0 0 1 2.41.33l5.82-10.64c-10.175-4.445-22.207.128-26.86 10.21a19.025 19.025 0 0 0 1.13 19.5l28.8 42.66c.24.37 2.07 3.06 5.13 3.06a6.406 6.406 0 0 0 5.06-3l8.68-13.25-7.45-11-6.25 9.02z" fill="url(#_Radial2)" fill-rule="nonzero" transform="translate(-9.088 -7.846) scale(.06673)"/><defs><radialGradient id="_Radial1" cx="0" cy="0" r="1" gradientUnits="userSpaceOnUse" gradientTransform="translate(237.46 269.28) scale(77.47)"><stop offset="0" stop-color="#fc0" stop-opacity="1"/><stop offset=".09" stop-color="#ffc800" stop-opacity="1"/><stop offset=".17" stop-color="#ffbd00" stop-opacity="1"/><stop offset=".25" stop-color="#ffab00" stop-opacity="1"/><stop offset=".33" stop-color="#ff9100" stop-opacity="1"/><stop offset=".4" stop-color="#ff7000" stop-opacity="1"/><stop offset=".48" stop-color="#ff4700" stop-opacity="1"/><stop offset=".55" stop-color="#ff1800" stop-opacity="1"/><stop offset=".58" stop-color="red" stop-opacity="1"/><stop offset="1" stop-color="red" stop-opacity="1"/></radialGradient><radialGradient id="_Radial2" cx="0" cy="0" r="1" gradientUnits="userSpaceOnUse" gradientTransform="translate(190.76 273.74) scale(71.04)"><stop offset="0" stop-color="#00b4e6" stop-opacity="1"/><stop offset=".2" stop-color="#00b0e3" stop-opacity="1"/><stop offset=".39" stop-color="#01a5db" stop-opacity="1"/><stop offset=".57" stop-color="#0292cd" stop-opacity="1"/><stop offset=".75" stop-color="#0377ba" stop-opacity="1"/><stop offset=".93" stop-color="#0455a1" stop-opacity="1"/><stop offset="1" stop-color="#054696" stop-opacity="1"/></radialGradient></defs></svg>