<svg width="38" height="24" viewBox="0 0 38 24" fill="none" xmlns="http://www.w3.org/2000/svg" role="img" aria-labelledby="pi-twisto"><title id="pi-twisto">Twisto</title><g clip-path="url(#pi-twisto-clip0)"><path d="M35 .5H3A2.5 2.5 0 00.5 3v18A2.5 2.5 0 003 23.5h32a2.5 2.5 0 002.5-2.5V3A2.5 2.5 0 0035 .5z" stroke="#000" stroke-opacity=".07"/><g clip-path="url(#pi-twisto-clip1)"><path d="M1 1h36v22H1V1z" fill="#410071"/><path d="M3.416 7.577h6.181v8.96l-.07.023H6.494v-5.98l-3.056.022-.023-.023V7.577zM32.382 10.419h.544l.356.091.355.16v.047h.07v.045l.096.023v.046l.094.046.166.16.213.321.142.344.048.23.023.251-.047.344-.095.298-.142.275-.237.298-.142.114h-.047v.046l-.308.184-.237.091-.26.069-.213.023h-.214l-.379-.069-.308-.114-.213-.115v-.046l-.118-.046-.166-.137-.19-.23V13.1h-.047l-.166-.344-.094-.367v-.458l.095-.366.189-.367.166-.206.213-.207.331-.206.308-.115.214-.045zM18.005 10.488h.948l.07.183.38 1.306.165.55.072-.206.118-.435.284-1.078.095-.297.023-.023h.687l.071.16.26.94.167.595.095.344.047.023.047-.275.356-1.215.165-.55.024-.022h.876l.048.045-.237.688-.166.573-.284.916-.071.207-.213.687-.072.184-.094.045h-.758l-.095-.183-.118-.412-.166-.596-.119-.436-.094-.343-.024-.023-.166.595-.094.367-.19.665-.095.32-.047.046h-.805l-.048-.023-.19-.55-.212-.687-.095-.298-.118-.39-.119-.366-.26-.848-.048-.183z" fill="#FEFDFD"/><path d="M11.942 7.577h.687l.024.023.023 2.864-.023.138-.237-.023-.569-.115-.402-.137-.38-.183-.33-.23-.332-.297-.166-.184L10 9.09l-.213-.436-.119-.367-.094-.595.023-.092 2.345-.023z" fill="#4AA629"/><path d="M26.295 10.396h.497l.38.091.33.161.19.16.213.321.095.275-.024.023h-.9l-.166-.206-.094-.069-.119-.023h-.307l-.19.092-.095.114v.16l.166.138.403.115.568.138.237.091.213.138.166.16.118.23.048.205v.184l-.048.229-.142.275-.237.23-.308.16-.307.091-.166.023h-.474l-.331-.069-.308-.114-.19-.115v-.046l-.095-.046-.142-.16-.142-.229-.07-.206.023-.092h.9l.07.069.167.183.142.069.095.023h.26l.19-.046.118-.092.047-.091-.023-.16-.024-.07-.213-.091-.9-.207-.213-.091-.19-.092-.095-.068v-.046l-.07-.023-.143-.23-.07-.297v-.207l.07-.229.142-.229.166-.183.142-.092.332-.16.308-.07zM15.945 9.57h.9l.047.024.024.87.71.024.024.022v.71l-.024.024h-.615l-.095.023v1.49l.07.206.096.068.236.046.214-.046.142-.046.023.023v.757l-.07.068-.332.07h-.427l-.284-.07-.19-.091-.212-.16-.142-.23-.072-.16-.047-.321-.024-1.627h-.473l-.024-.046v-.688l.024-.022.473-.023.024-.871.024-.023zM28.876 9.57h.9l.048.024v.894h.734l.024.022v.71l-.048.024h-.71l.023 1.512.071.207.143.091h.331l.142-.023v-.046l.095.023v.757l-.071.068-.355.07H29.8l-.308-.07-.26-.137-.19-.184-.118-.252-.048-.183-.023-.206-.024-1.627h-.45l-.047-.023v-.733h.52v-.894l.024-.023zM23.5 10.488h.947l.024.206v3.116l-.024.023-.331.023h-.521l-.095-.023v-3.345z" fill="#FEFDFD"/><path d="M32.453 11.313h.426l.213.068.284.252.119.184.047.183v.275l-.07.23-.12.205-.26.184-.213.091h-.403l-.236-.091-.19-.138-.19-.229-.07-.32.023-.253.047-.16.143-.23h.047v-.045l.26-.16.143-.046z" fill="#410071"/><path d="M12.605 8.012h.024l.024.413.023 2.04-.023.137-.237-.023-.569-.115-.402-.137-.119-.046v-.046l.071-.022.024-.07-.047-.068-.024-.23.047-.114.19-.229.142-.115.024-.045.165-.07.095-.137.119-.023v-.045l.094-.023.142-.184.095-.298.071-.252.048-.045.023-.253z" fill="#65AF13"/><path d="M23.879 9.113h.19l.165.068.119.115v.046h.047l.071.183-.047.252-.048.069h-.047l-.047.092-.142.091-.214.023-.165-.069-.119-.068-.047-.115h-.048l-.047-.115V9.48l.071-.137.118-.138.19-.091z" fill="#FEFDFD"/></g></g><defs><clipPath id="pi-twisto-clip0"><path fill="#fff" d="M0 0h38v24H0z"/></clipPath><clipPath id="pi-twisto-clip1"><rect x="1" y="1" width="36" height="22" rx="2" fill="#fff"/></clipPath></defs></svg>