<svg xmlns="http://www.w3.org/2000/svg" width="38" height="24" fill="none" aria-labelledby="pi-uaevisa" role="img" viewBox="0 0 38 24"><title id="pi-uaevisa">UAE Visa Credit Card</title><path fill="#fff" d="M0 0h38v24H0z"/><path fill="url(#pi-uaevisa-a)" d="M19.55 7.3c-.02 1.44 1.28 2.25 2.26 2.72 1.01.5 1.35.8 1.34 1.25 0 .67-.8.96-1.54.97-1.3.03-2.06-.35-2.66-.63l-.47 2.2c.6.27 1.72.51 2.88.52 2.71 0 4.5-1.34 4.5-3.42.01-2.63-3.65-2.78-3.62-3.96 0-.36.35-.74 1.1-.83.36-.05 1.38-.1 2.54.44l.46-2.12A6.9 6.9 0 0 0 23.92 4c-2.56 0-4.36 1.36-4.37 3.3M30.7 4.18c-.5 0-.92.3-1.1.74l-3.88 9.26h2.71l.54-1.5h3.32l.3 1.5H35l-2.09-10h-2.2Zm.37 2.7.79 3.76h-2.15zm-14.82-2.7-2.14 10h2.59l2.13-10zm-3.83 0-2.69 6.8L8.65 5.2a1.2 1.2 0 0 0-1.19-1.02h-4.4l-.06.3c.9.19 1.93.5 2.55.84.38.21.49.39.62.88l2.06 7.98h2.73l4.19-10h-2.72Z"/><path fill="url(#pi-uaevisa-b)" d="M23.28 16.73v3.37c.22.02.48.04.8.04.67 0 1.2-.17 1.52-.5.32-.3.5-.77.5-1.33 0-.55-.18-.95-.5-1.23-.3-.27-.75-.42-1.38-.42-.35 0-.67.03-.94.07m.44 3.03v-2.7c.12-.03.3-.05.52-.05.94 0 1.4.51 1.39 1.32 0 .92-.51 1.45-1.46 1.45-.17 0-.34 0-.45-.02"/><path fill="url(#pi-uaevisa-c)" d="M26.62 18.92c0 .74.45 1.24 1.2 1.24a2 2 0 0 0 .83-.15l-.08-.32a1.6 1.6 0 0 1-.68.12c-.45 0-.83-.24-.84-.85h1.73l.01-.2c0-.46-.2-1.16-1.02-1.16-.71 0-1.15.58-1.15 1.32m1.12-1c.5 0 .62.44.62.72h-1.3c.03-.31.22-.72.68-.72"/><path fill="url(#pi-uaevisa-d)" d="M29.47 16.5v2.97c0 .22 0 .47-.02.64h.38l.03-.4a.9.9 0 0 0 .84.45c.55 0 1.1-.43 1.1-1.31 0-.74-.42-1.25-1.04-1.25-.4 0-.68.17-.84.45V16.5zm.46 2.79a.6.6 0 0 1-.02-.17v-.43a.7.7 0 0 1 .03-.2c.1-.33.38-.54.68-.54.48 0 .73.42.73.91 0 .57-.27.95-.74.95a.69.69 0 0 1-.68-.52"/><path fill="url(#pi-uaevisa-e)" d="M32.44 16.96c0 .15.1.27.27.27s.28-.12.28-.27a.27.27 0 0 0-.27-.28.27.27 0 0 0-.28.28m.05 3.15h.45v-2.46h-.45z"/><path fill="url(#pi-uaevisa-f)" d="M33.91 17.2v.45h-.38v.34h.38v1.34c0 .3.05.51.17.65.11.11.28.18.49.18.17 0 .3-.03.4-.06l-.03-.34a.8.8 0 0 1-.26.03c-.25 0-.33-.17-.33-.47v-1.33h.64v-.34h-.64v-.6l-.44.14Z"/><defs><linearGradient id="pi-uaevisa-a" x1="3" x2="35" y1="9.17" y2="9.17" gradientUnits="userSpaceOnUse"><stop stop-color="#2C244A"/><stop offset=".05" stop-color="#2C244A"/><stop offset=".36" stop-color="#262B53"/><stop offset=".68" stop-color="#1E3D7D"/><stop offset="1" stop-color="#1D1D38"/></linearGradient><linearGradient id="pi-uaevisa-b" x1="23.28" x2="26.1" y1="18.4" y2="18.4" gradientUnits="userSpaceOnUse"><stop stop-color="#2C244A"/><stop offset=".05" stop-color="#2C244A"/><stop offset=".36" stop-color="#262B53"/><stop offset=".68" stop-color="#1E3D7D"/><stop offset="1" stop-color="#1D1D38"/></linearGradient><linearGradient id="pi-uaevisa-c" x1="26.62" x2="28.79" y1="18.88" y2="18.88" gradientUnits="userSpaceOnUse"><stop stop-color="#2C244A"/><stop offset=".05" stop-color="#2C244A"/><stop offset=".36" stop-color="#262B53"/><stop offset=".68" stop-color="#1E3D7D"/><stop offset="1" stop-color="#1D1D38"/></linearGradient><linearGradient id="pi-uaevisa-d" x1="29.45" x2="31.81" y1="18.33" y2="18.33" gradientUnits="userSpaceOnUse"><stop stop-color="#2C244A"/><stop offset=".05" stop-color="#2C244A"/><stop offset=".36" stop-color="#262B53"/><stop offset=".68" stop-color="#1E3D7D"/><stop offset="1" stop-color="#1D1D38"/></linearGradient><linearGradient id="pi-uaevisa-e" x1="32.44" x2="32.99" y1="18.39" y2="18.39" gradientUnits="userSpaceOnUse"><stop stop-color="#2C244A"/><stop offset=".05" stop-color="#2C244A"/><stop offset=".36" stop-color="#262B53"/><stop offset=".68" stop-color="#1E3D7D"/><stop offset="1" stop-color="#1D1D38"/></linearGradient><linearGradient id="pi-uaevisa-f" x1="33.53" x2="34.99" y1="18.61" y2="18.61" gradientUnits="userSpaceOnUse"><stop stop-color="#2C244A"/><stop offset=".05" stop-color="#2C244A"/><stop offset=".36" stop-color="#262B53"/><stop offset=".68" stop-color="#1E3D7D"/><stop offset="1" stop-color="#1D1D38"/></linearGradient></defs></svg>