<svg xmlns="http://www.w3.org/2000/svg" width="38" height="24" fill="none" aria-labelledby="pi-ubp" role="img" viewBox="0 0 38 24"><title id="pi-ubp">UBP</title><path fill="#fff" d="M0 0h38v24H0z"/><path fill="#FF8000" fill-rule="evenodd" d="m22.65 12.48-1.08-.14v-2.7l1.41.35c.76.15 1.14.7 1.14 1.35 0 .66-.58 1.25-1.47 1.14m3.04 1.11s.87-.87.87-2.5c0-1.37-.92-2.88-2.54-3.45l-5.33-1.9-.02 9.25s0 1.34-1.49 1.62c-1 .2-1.97-.71-1.97-1.83V4.5L11 3v12.17a5.69 5.69 0 0 0 6.37 5.77c2.9-.5 4.2-2.73 4.2-5.15v-.86l2.04.07c.67 0 1.17.59 1.17 1.2a1.2 1.2 0 0 1-1.16 1.2l-1.13.1a6.66 6.66 0 0 1-1.44 2.77l3.29-.58c1.32-.24 2.86-1.4 2.86-3.29 0-.8-.27-2-1.51-2.81" clip-rule="evenodd"/></svg>