<svg xmlns="http://www.w3.org/2000/svg" fill="none" role="img" viewBox="0 0 38 24" width="38" height="24" aria-labelledby="pi-underpay"><title id="pi-underpay">Underpay</title><rect width="38" height="24" rx="2" fill="#fff"/><rect x=".5" y=".5" width="37" height="23" rx="2.5" stroke="#000" stroke-opacity=".07"/><rect x="9" y="2" width="20" height="20" rx="2" fill="#FFEB69"/><g clip-path="url(#pi-underpay-clippath)"><path d="M16.014 6.362c0 .507-1.497 5.172-1.131 7.282.384 2.212 2.166 2.903 3.364 2.857.837-.032 1.716-.338 2.503-.941m0 0c.762-.968 2.693-4.266 2.453-6.248-.24-1.982-1.884-2.028-2.114-2.028-.23 0-3.683 0-1.444 6.498.187.543.658 1.378 1.105 1.778zm0 0s1.168 1.317 3.337 1.317" stroke="#000" stroke-width="1.727"/></g><defs><clipPath id="pi-underpay-clippath"><path fill="#000" transform="translate(13.2 6.2)" d="M0 0h11.7v11.7H0z"/></clipPath></defs></svg>