<svg xmlns="http://www.w3.org/2000/svg" xmlns:xlink="http://www.w3.org/1999/xlink" width="38" height="24" fill="none" aria-labelledby="pi-unionpay" role="img" viewBox="0 0 38 24"><title id="pi-unionpay">Union Pay</title><defs><path id="pi-unionpay-b" fill="#fff" d="M0 0h38v24H0z"/></defs><g clip-path="url(#pi-unionpay-a)"><use xlink:href="#pi-unionpay-b"/><path fill="#005B9A" d="M0 21.8v.7zM17.7 0v24h-7.2c-1.3 0-2.1-1-1.8-2.3l4.4-19.4C13.4 1 15 0 16.3 0zm12.6 0c-1.3 0-2.9 1-3.2 2.3l-4.5 19.4c-.3 1.3.5 2.3 1.8 2.3h-4.9V0z"/><path fill="#E9292D" d="M16.3 0c-1.3 0-2.9 1.1-3.2 2.3L8.7 21.7c-.3 1.3.5 2.3 1.8 2.3H0V0z"/><path fill="#0E73B9" d="M30.3 0c-1.3 0-2.9 1.1-3.2 2.3l-4.4 19.4c-.3 1.3.5 2.3 1.8 2.3H10h.5c-1.3 0-2.1-1-1.8-2.3l4.4-19.4C13.4 1 15 0 16.3 0z"/><path fill="#059DA4" d="M38 0v24H24.4a1.8 1.8 0 0 1-1.8-2.3l4.5-19.4C27.4 1 29 0 30.3 0z"/><path fill="#fff" d="M14.88 13.64h.14c.14 0 .28-.07.28-.13l.42-.63h1.19l-.21.34h1.4l-.21.63H16.2c-.21.29-.42.43-.7.43h-.84l.2-.63Zm-.21.91h3l-.2.7h-1.2l-.2.7h1.19l-.21.7h-1.2l-.27 1.05c-.07.14 0 .29.28.21h.98l-.21.7h-1.9c-.34 0-.48-.2-.34-.63l.35-1.32h-.77l.2-.7h.78l.2-.7h-.7l.22-.7Zm4.83-1.75v.42s.56-.42 1.12-.42h1.96l-.77 2.66c-.07.28-.35.5-.77.5H18.8l-.5 1.88c0 .07 0 .14.15.14h.42l-.14.57H17.6c-.42 0-.56-.14-.5-.36l1.48-5.39h.9Zm1.68.77h-1.75l-.21.7s.28-.2.77-.2h1.05zm-.63 1.69c.14 0 .2 0 .2-.14l.15-.35h-1.75l-.14.55zm-1.2.83h.99v.43h.28c.14 0 .2-.07.2-.14l.08-.29h.84l-.14.5c-.07.34-.35.48-.77.55h-.56v.77c0 .14.07.21.35.21h.49l-.14.56h-1.2c-.34 0-.48-.13-.48-.48l.07-2.1Zm4.2-2.45.22-.84h1.19l-.07.29s.56-.29 1.05-.29h1.47l-.21.84h-.21l-1.12 3.86h.2l-.2.77h-.21l-.07.34h-1.2l.08-.34H22.3l.2-.77h.22l1.12-3.86h-.28Zm1.27 0-.28 1.05s.49-.2.9-.28c.08-.35.22-.77.22-.77zm-.5 1.54-.27 1.13s.56-.29.98-.29c.14-.41.2-.76.2-.76l-.9-.07Zm.22 2.32.2-.77h-.83l-.21.77zm2.87-4.7h1.12l.07.42c0 .07.07.14.2.14h.22l-.21.7h-.77c-.28 0-.5-.07-.5-.35l-.13-.9Zm-.35 1.47h3.57l-.21.78h-1.2l-.2.7h1.12l-.21.77h-1.26l-.28.41h.63l.14.84c0 .07.07.14.2.14h.22l-.21.7h-.7c-.35 0-.56-.06-.56-.34l-.14-.77-.56.84a.74.74 0 0 1-.63.34h-1.05l.2-.7h.36c.14 0 .2-.07.35-.2l.84-1.27h-1.05l.2-.77h1.2l.2-.7h-1.18l.2-.76ZM7.32 9.23a2.3 2.3 0 0 1-.91 1.54c-.5.36-1.12.57-1.9.57-.7 0-1.25-.21-1.53-.56a1.52 1.52 0 0 1-.35-.98c0-.15 0-.36.07-.57l.84-3.92h1.19l-.77 3.92v.29c0 .2.07.35.14.49.14.2.35.28.7.28s.7-.07.9-.28c.22-.21.43-.42.5-.78l.77-3.92h1.19zM8.44 7.7h.84l-.07.5.14-.14a1.4 1.4 0 0 1 1.05-.43c.35 0 .63.14.77.35.14.22.2.5.14.92l-.5 2.38h-.9l.42-2.17c.07-.29.07-.5 0-.56-.07-.14-.21-.14-.35-.14a.8.8 0 0 0-.56.2.9.9 0 0 0-.28.63l-.42 2.04H7.8l.63-3.57Zm9.8 0h.84l-.07.5.14-.14a1.4 1.4 0 0 1 1.05-.43c.35 0 .63.14.77.35.14.22.2.5.14.92l-.5 2.38h-.9l.42-2.24a.56.56 0 0 0-.07-.5c-.07-.13-.21-.13-.35-.13a.8.8 0 0 0-.56.2.9.9 0 0 0-.28.63l-.42 2.04h-.91l.7-3.57Zm-5.81 0h.98l-.77 3.5h-.98zm.35-1.33h.98l-.21.84h-.98l.2-.83Zm1.4 4.55a1.38 1.38 0 0 1-.35-.97v-.21c0-.08 0-.21.07-.29.14-.55.35-1.04.7-1.32.35-.35.84-.5 1.33-.5.42 0 .77.14 1.05.35.2.22.35.57.35.99v.2c0 .07 0 .21-.07.29a2.7 2.7 0 0 1-.7 1.33c-.35.35-.84.49-1.33.49a2 2 0 0 1-1.05-.36m1.89-.7c.14-.2.28-.49.35-.84v-.34c0-.21-.07-.35-.14-.5a.64.64 0 0 0-.5-.2c-.27 0-.48.06-.62.28-.14.2-.28.49-.35.84v.28c0 .2.07.34.14.48.14.14.28.21.49.21.28.07.42 0 .63-.2Zm6.5-4.69h2.53c.49 0 .84.15 1.12.36.28.2.35.55.35.9v.29c0 .06 0 .2-.07.27a2.06 2.06 0 0 1-2.1 1.76H23l-.42 2.03h-1.2l1.2-5.6Zm.57 2.6h1.12c.28 0 .49-.07.7-.21.14-.15.28-.36.35-.63V7c0-.2-.07-.35-.21-.42a1.5 1.5 0 0 0-.7-.14h-.91zm8.68 3.7c-.35.78-.7 1.27-.91 1.47-.21.22-.63.7-1.61.7l.07-.63c.84-.27 1.26-1.4 1.54-1.96l-.28-3.78h1.19l.07 2.39.9-2.31h1.06zm-2.94-3.85-.42.29c-.42-.35-.84-.56-1.54-.21-.98.48-1.9 4.13.9 2.93l.15.21h1.12l.7-3.28zm-.56 1.83c-.21.55-.56.83-.91.76-.28-.13-.35-.63-.21-1.19.2-.55.56-.83.9-.76.29.13.36.63.22 1.19"/></g><defs><clipPath id="pi-unionpay-a"><use xlink:href="#pi-unionpay-b"/></clipPath></defs></svg>