<svg width="38" height="24" viewBox="0 0 38 24" fill="none" xmlns="http://www.w3.org/2000/svg" role="img" aria-labelledby="pi-unzerdirectdebit"><title id="pi-unzerdirectdebit">Unzer Direct Debit</title><rect x=".5" y=".5" width="37" height="23" rx="2" fill="#FFF" stroke="rgba(0,0,0,0.07)" stroke-width="1"/><path d="M5.075 13.82h5.262c1.445 0 2.631 1.152 2.631 2.592 0 1.422-1.169 2.591-2.63 2.591H5.074c-1.444 0-2.63-1.152-2.63-2.591 0-1.423 1.169-2.592 2.63-2.592z" fill="url(#pi-paint0_linear)"/><path d="M27.43 6.182h5.846c1.875 0 3.388 1.49 3.388 3.337 0 1.846-1.513 3.336-3.388 3.336H27.43c-1.874 0-3.388-1.49-3.388-3.336 0-1.846 1.514-3.337 3.388-3.337z" fill="url(#pi-paint1_linear)"/><path d="M10.664 8.586H7.311v9.89h3.353v-9.89z" fill="url(#pi-paint2_linear)"/><path d="M17.06 8.586h-3.352v9.89h3.353v-9.89z" fill="url(#pi-paint3_linear)"/><path d="M23.457 8.586h-3.353v9.89h3.354v-9.89z" fill="url(#pi-paint4_linear)"/><path d="M24.73 17.291H6.09c-.76 0-1.376.607-1.376 1.355v.881c0 .748.616 1.355 1.376 1.355h18.64c.76 0 1.376-.607 1.376-1.355v-.88c0-.749-.616-1.355-1.376-1.355z" fill="url(#pi-paint5_linear)"/><path d="M14.911 2.81a.944.944 0 01.946 0l9.836 5.877c.533.322.292 1.118-.31 1.118H5.385a.6.6 0 01-.31-1.118l9.836-5.877z" fill="url(#pi-paint6_linear)"/><path d="M15.324 7.925c.76 0 1.376-.607 1.376-1.355s-.616-1.355-1.376-1.355c-.76 0-1.376.607-1.376 1.355s.616 1.355 1.376 1.355z" fill="url(#pi-paint7_linear)"/><path d="M32.743 16.936h-1.169c-1.187 0-2.167-.948-2.167-2.134V13.65c0-1.168.963-2.134 2.167-2.134h1.17c1.186 0 2.166.949 2.166 2.134v1.152c0 1.169-.963 2.134-2.167 2.134zm-1.169-4.285c-.55 0-1.015.44-1.015 1v1.151c0 .542.447 1 1.015 1h1.17c.55 0 1.014-.44 1.014-1V13.65c0-.542-.447-.999-1.015-.999h-1.169z" fill="url(#pi-paint8_linear)"/><path d="M34.6 14.361h-4.883c-.921 0-1.668.736-1.668 1.643v4.472c0 .907.747 1.643 1.668 1.643H34.6c.922 0 1.668-.736 1.668-1.643v-4.472c0-.907-.746-1.643-1.668-1.643z" fill="url(#pi-paint9_linear)"/><path d="M33.156 17.815a.99.99 0 00-.997-.982.99.99 0 00-.998.982c0 .542.207.678.499.847l-.344 1.372h1.702l-.36-1.372a.958.958 0 00.48-.847h.018z" fill="#fff"/><defs><linearGradient id="pi-paint0_linear" x1="8.136" y1="13.787" x2="7.352" y2="18.685" gradientUnits="userSpaceOnUse"><stop stop-color="#fff"/><stop offset="1" stop-color="#E9F2FB"/></linearGradient><linearGradient id="pi-paint1_linear" x1="30.955" y1="6.148" x2="29.853" y2="12.438" gradientUnits="userSpaceOnUse"><stop stop-color="#fff"/><stop offset="1" stop-color="#E9F2FB"/></linearGradient><linearGradient id="pi-paint2_linear" x1="8.979" y1="8.602" x2="8.979" y2="18.494" gradientUnits="userSpaceOnUse"><stop stop-color="#C73A6B"/><stop offset="1" stop-color="#C63057"/></linearGradient><linearGradient id="pi-paint3_linear" x1="15.376" y1="59.041" x2="15.376" y2="59.041" gradientUnits="userSpaceOnUse"><stop stop-color="#C73A6B"/><stop offset="1" stop-color="#C63057"/></linearGradient><linearGradient id="pi-paint4_linear" x1="21.772" y1="59.041" x2="21.772" y2="59.041" gradientUnits="userSpaceOnUse"><stop stop-color="#C73A6B"/><stop offset="1" stop-color="#C63057"/></linearGradient><linearGradient id="pi-paint5_linear" x1="15.41" y1="17.291" x2="15.41" y2="20.899" gradientUnits="userSpaceOnUse"><stop stop-color="#212C51"/><stop offset="1" stop-color="#415085"/></linearGradient><linearGradient id="pi-paint6_linear" x1="15.376" y1="2.522" x2="15.376" y2="9.805" gradientUnits="userSpaceOnUse"><stop stop-color="#212C51"/><stop offset="1" stop-color="#415085"/></linearGradient><linearGradient id="pi-paint7_linear" x1="15.754" y1="5.3" x2="14.984" y2="7.678" gradientUnits="userSpaceOnUse"><stop stop-color="#fff"/><stop offset="1" stop-color="#F5FBFF"/></linearGradient><linearGradient id="pi-paint8_linear" x1="32.657" y1="11.466" x2="31.689" y2="16.992" gradientUnits="userSpaceOnUse"><stop stop-color="#415084"/><stop offset="1" stop-color="#272E4F"/></linearGradient><linearGradient id="pi-paint9_linear" x1="32.829" y1="14.497" x2="31.61" y2="21.482" gradientUnits="userSpaceOnUse"><stop stop-color="#C73A6B"/><stop offset="1" stop-color="#C63057"/></linearGradient></defs></svg>