<svg xmlns="http://www.w3.org/2000/svg" width="38" height="24" viewBox="0 0 38 24" aria-labelledby="pi-unzerdirectdebit"><title id="pi-unzerdirectdebit">Unzer Direct Debit</title><g stroke="none" fill-rule="nonzero" fill-opacity="1"><path d="M34.934 24H3.066c-1.078 0-1.949-.945-1.949-2.117V2.117C1.117.945 1.988 0 3.067 0H34.93c1.082 0 1.949.945 1.949 2.117v19.766c.004 1.172-.875 2.117-1.945 2.117zm0 0" fill="#fc1154"/><path d="M18.02 7.648v4.32h-1.641V8.356c0-.886-.61-1.367-1.184-1.367-.5 0-.883.262-1.258.84v4.145h-1.64V8.785c-.168.067-.34.113-.5.156-.094 1.836-1.29 3.149-2.91 3.149-1.688 0-2.91-1.418-2.91-3.36V5.344h1.636v3.379c0 .726.332 1.582 1.274 1.582.867 0 1.218-.723 1.27-1.407C9.472 8.586 9.05 7.84 9.05 6.84c0-1.031.707-1.637 1.39-1.637.871 0 1.36.942 1.356 1.883 0 0 .238-.094.5-.254V5.344h1.64v.57c.56-.496 1.079-.719 1.676-.719.664 0 1.266.254 1.715.703.45.454.692 1.075.692 1.75zm.656-.738h2.777l-2.926 3.777v1.274h5.203v-1.566h-2.945l2.945-3.829V5.332h-5.054zm10.37-.793c.556.61.84 1.469.84 2.485v.617h-4.41c.118.816.657 1.304 1.454 1.304.66 0 1.234-.289 1.488-.757l.008-.008h.004l1.289.629-.008.008c-.512 1.074-1.54 1.687-2.809 1.687-1.828 0-3.05-1.383-3.05-3.437 0-.965.324-1.856.918-2.493a2.87 2.87 0 012.132-.945c.871.008 1.606.32 2.145.91zm-.757 1.711c-.137-.687-.652-1.098-1.387-1.098-.672 0-1.183.41-1.379 1.098zm5.715-2.535c-.223-.07-.469-.07-.469-.07-.539 0-1.062.222-1.504.648v-.535h-1.636v6.625h1.636V7.855c.324-.664.82-1.03 1.399-1.03 0 0 .261 0 .422.054zM6.64 17.414c0-.867.57-1.285 1.129-1.285.289 0 .503.105.671.254v-1.34h.637v3.61h-.637v-.258c-.152.175-.37.304-.707.304-.507.004-1.093-.41-1.093-1.285zm1.793.117v-.238c0-.367-.254-.594-.559-.594-.34 0-.594.25-.594.715 0 .465.254.711.598.711.309 0 .555-.219.555-.594zm1.132-2.023c0-.223.168-.406.371-.406.204 0 .372.183.372.406 0 .219-.164.402-.371.402-.204 0-.372-.183-.372-.402zm.051 3.148v-2.472h.637v2.472zm1.18 0v-2.472h.637v.296c.148-.195.363-.347.629-.347a.49.49 0 01.222.043l-.086.547-.031.035c-.04-.008-.094-.028-.156-.028-.246 0-.457.145-.586.442v1.484zm1.668-1.242c0-.77.555-1.285 1.172-1.285.675 0 1.144.473 1.144 1.27v.183h-1.71c.034.34.253.559.585.559.293 0 .446-.157.52-.38l.535.055.031.055c-.176.55-.55.82-1.097.82-.684.012-1.18-.503-1.18-1.277zm1.71-.277a.527.527 0 00-.546-.489c-.266 0-.492.192-.543.489zm.91.277c0-.766.528-1.285 1.192-1.285.602 0 1.012.36 1.118.918l-.04.047-.527.058c-.058-.257-.238-.433-.55-.433-.325 0-.575.242-.575.683 0 .446.254.688.574.688.313 0 .47-.164.551-.434l.527.059.04.043c-.137.59-.532.922-1.118.922-.664.023-1.191-.504-1.191-1.266zm2.895.535V16.75h-.402v-.574h.402v-.703h.086l.551.203v.5h.485v.574h-.485v1.137c0 .16.094.246.25.246.07 0 .117-.016.18-.035l.031.02v.53a1.44 1.44 0 01-.402.047c-.41.008-.696-.222-.696-.746zm2.399-.535c0-.867.574-1.285 1.133-1.285.285 0 .5.105.668.254v-1.34h.64v3.61h-.64v-.258c-.149.175-.371.304-.707.304-.508.004-1.094-.41-1.094-1.285zm1.8.117v-.238c0-.367-.245-.594-.558-.594-.336 0-.59.25-.59.715 0 .465.254.711.598.711.297 0 .55-.219.55-.594zm1.083-.117c0-.77.55-1.285 1.172-1.285.675 0 1.144.473 1.144 1.27v.183h-1.71c.03.34.253.559.585.559.293 0 .442-.157.52-.38l.535.055.031.055c-.176.55-.55.82-1.098.82-.687.012-1.18-.503-1.18-1.277zm1.715-.277a.527.527 0 00-.547-.489c-.266 0-.492.192-.547.489zm1.664 1.25v.27h-.637v-3.61h.637v1.379c.172-.156.39-.29.714-.29.555 0 1.086.415 1.086 1.286 0 .867-.566 1.281-1.07 1.281a.926.926 0 01-.73-.316zm1.152-.973c0-.465-.254-.715-.586-.715-.312 0-.562.227-.562.594v.238c0 .375.265.594.55.594.344 0 .598-.246.598-.71zm1.016-1.906c0-.223.168-.406.37-.406.208 0 .372.183.372.406 0 .219-.164.402-.371.402-.203 0-.371-.183-.371-.402zm.05 3.148v-2.472h.637v2.472zm1.399-.707V16.75h-.403v-.574h.403v-.703h.082l.555.203v.5h.48v.574h-.48v1.137c0 .16.09.246.246.246.07 0 .117-.016.183-.035l.031.02v.53a1.459 1.459 0 01-.402.047c-.41.008-.695-.222-.695-.746zm0 0" fill="#fff"/></g></svg>