<svg xmlns="http://www.w3.org/2000/svg" width="38" height="24" viewBox="0 0 38 24" role="img" aria-labelledby="pi-uob"><title id="pi-uob">UOB</title><path opacity=".1" d="M35 0H3a3 3 0 0 0-3 3v18a3 3 0 0 0 3 3h32a3 3 0 0 0 3-3V3a3 3 0 0 0-3-3z"/><path fill="#FFF" d="M35 1a2 2 0 0 1 2 2v18a2 2 0 0 1-2 2H3a2 2 0 0 1-2-2V3c0-1.1.9-2 2-2h32"/><path fill="#E21F26" d="M6.6 15l.3.2c.4 0 .4-.2.4-.2V9L7 8.8h-.1c-.1 0-.3 0-.3.2V15M2.8 15l.4.2c.3 0 .3-.2.3-.2V9l-.3-.2c-.2 0-.4 0-.4.2V15M4 15l.4.2h.1c.3 0 .3-.2.3-.2V9l-.3-.2h-.1c-.1 0-.3 0-.3.2V15M5.3 15l.3.2h.1c.3 0 .3-.2.3-.2V9l-.3-.2c-.2 0-.4 0-.4.2V15"/><path fill="#E21F26" d="M2 11.7L2 12c0 .3.1.3.2.3h6l.1-.3c0-.2 0-.4-.2-.3H2.1"/><path fill="#253772" d="M17 13.9h-.1c-1 0-1.3-.5-1.3-2 0-1.3.3-1.8 1.3-1.8s1.3.5 1.3 1.9-.3 1.9-1.3 1.9m0-4.6c-1.7 0-2.4.8-2.4 2.7 0 1.8.8 2.7 2.4 2.7 1.6 0 2.4-.9 2.4-2.7 0-1.9-.7-2.7-2.4-2.7M10.2 14.3c.3.2.8.4 1.5.4.8 0 1.3-.2 1.6-.4.5-.4.6-.8.6-1.7v-3-.1l-.6-.2c-.2 0-.4 0-.5.2v3.3c0 .5 0 .6-.3.8-.2.2-.5.2-.8.2s-.5 0-.8-.2c-.2-.2-.2-.3-.2-.8V9.6v-.1l-.5-.2c-.2 0-.5 0-.6.2v3.1c0 .9 0 1.3.6 1.7M22.2 13.9H21v-1.6h1.3c.7 0 .8.3.8.8 0 .7-.2.8-.9.8M21 10h1.2c.6 0 .7.3.7.7 0 .5-.2.7-.8.7h-1v-1.4zm2.5-.4c-.3-.2-.6-.3-1.2-.3H20c-.1 0-.2 0-.2.2v4.8l.2.2h2.3c.6 0 1 0 1.4-.3.4-.3.4-.8.4-1.2 0-.4-.1-.8-.4-1l-.4-.3h-.1c.5-.2.6-.5.6-1.1 0-.3 0-.8-.4-1"/><g><path fill="#253772" d="M34.4 13.3V14.6h-.1v-1l-.2.2H34c-.1-.1 0-.1 0-.1v-.2l.3-.2.3-.3h.1c.1 0 0 0 0 0v.2l-.3.2m.5-.8h1v.1h-1v-.1m.7.8v1.1h-.3-.1v-.1h.2v-1h-.7v-.1H36v.1h-.4zm-3.3-.5h.7v-.2h-.7v.2zm0 .4h.7V13h-.7v.2zm-.2-.7h1v.8h-.8v1l.2-.2h.1l-.2.2-.2.2-.1-.1v-1.9zm.5 1l.1.3.3-.2.1-.1h.1v.1l-.4.3.3.3h.1v.2c-.1 0-.4-.1-.6-.4l-.2-.5.1-.1zm-1.4.1h.3v-.3h-.2v-.1h-.1v-.3l.3-.5h.2l-.1.3h.4v.2h-.5l-.2.2h.6v.1h-.2V13.6h.3v.2h-.3v.5a27.1 27.1 0 0 0 .4-.2v.1l-.4.3h-.1v-.7h-.4v-.1zm-1.8-1.2h.1v.4h.3a3.2 3.2 0 0 0 .4-.2h.1v.1a3.6 3.6 0 0 1-.7.3v.4h.6v-.2h.2v.1l-.1.3h-.7-.1v.2h1v.1h-1.1v.6h-.1V14h-1v-.1h1v-.3-.1h.1V13H29V13h.2v-.2-.4h.1m-.4.4v.8h-.1v-.7h-.3l-.1.1h-.1v-.1l.5-.3.3-.2h.1v.1l-.2.2H29m-2.4.3v-.5s0-.1 0 0h.1v.4h1v.2h-1v.1h.1l.1.3.3.4.2.2.1.1c.1 0 .2 0 .1.1 0 0 0 .1-.1 0a1.4 1.4 0 0 1-.6-.5l-.1-.2v-.2h-.1l-.1.2-.2.4-.4.3h-.2v-.1s.2 0 .3-.2l.2-.3.2-.3v-.2h-.8V13h.9zm8-.6l-.2.4a8 8 0 0 1-.3.2H34v-.1l.3-.3.2-.2"/><path fill="#233C77" d="M35.2 10v-.2h.7v-.2h.2v.3h-1m-2.4 1.8h-.2v-.2h-.1v-.1h.3v.1-.1h.3v.1c0 .2-.1.2-.3.2m-6.6-.4l-.4-.1v-.4l.2-.1v.3h.2l.3-.1c0-.2-.2-.2-.3-.2-.2 0-.4-.1-.4-.3 0-.2.2-.3.4-.3s.4 0 .5.3h-.2l-.3-.1h-.2l.3.2c.2 0 .4 0 .4.4 0 .2-.2.4-.5.4m1.5 0V11l-.4.2c-.2 0-.4-.2-.4-.4V10h.2v.8s.1.2.3.2l.3-.3v-.7h.2v1.1h-.2zm.8 0v-.8c0-.1 0-.2-.2-.2H28v-.2h.2c.3 0 .4.2.4.4v.7h-.2zm1.2 0v-.8c0-.2 0-.2-.2-.2s-.3 0-.3.2h.3v.3h-.3v.4h-.2v-.7c0-.3.2-.4.5-.4.2 0 .4.1.4.4v.7h-.2zm.9 0v-.8c0-.1-.1-.2-.3-.2H30v-.2h.3c.3 0 .4.2.4.4v.7h-.2zm.9 0c-.3 0-.5-.2-.5-.5h.2c0 .2.1.3.3.3l.2-.2c0-.1 0-.2-.2-.2-.3 0-.5 0-.5-.3 0-.2.2-.3.5-.3.2 0 .4 0 .5.3h-.3l-.3-.1-.2.1.3.1c.2 0 .5 0 .5.4 0 .2-.3.4-.5.4m1.1 0c-.3 0-.5-.2-.5-.4s.1-.3.2-.3l-.2-.2c0-.2.2-.3.4-.3h.2v.2h-.2-.1c0 .2.2.2.3.2v.2h-.1c-.2 0-.3 0-.3.2l.3.2.3-.1v-1h.2v1s-.1.3-.5.3m1-1.6h-.1l.1.3v1.2h-.2V10c0-.2-.2-.2-.2-.3 0-.2.1-.2.3-.2h.3v.2h-.3zm.9 1.6c-.4 0-.6-.3-.6-.6v-.2h.5v.2H34c0 .2.2.3.4.3s.3-.1.3-.3c0-.3-.1-.4-.3-.4-.2 0-.3 0-.4.2h-.2c0-.3.3-.4.6-.4s.5.2.5.6c0 .3-.2.6-.5.6m1.2 0c-.3 0-.5-.2-.5-.5v-.7h.2v.7c0 .2.2.3.3.3l.3-.3v-.7h.2v.7c0 .3-.2.5-.5.5"/></g></svg>