<svg xmlns="http://www.w3.org/2000/svg" role="img" viewBox="0 0 38 24" width="38" height="24" aria-labelledby="pi-uob"><title id="pi-uob">UOB</title><g clip-path="url(#a)"><path fill="#000" d="M35 0H3C1.3 0 0 1.3 0 3v18c0 1.7 1.4 3 3 3h32c1.7 0 3-1.3 3-3V3c0-1.7-1.4-3-3-3Z" opacity=".07"/><path fill="#fff" d="M35 1c1.1 0 2 .9 2 2v18c0 1.1-.9 2-2 2H3c-1.1 0-2-.9-2-2V3c0-1.1.9-2 2-2h32Z"/><path fill="#E1091D" d="M5.27 16.24c0 .199.274.224.423.224h.124c.374-.025.374-.174.374-.224v-3.535h.746v3.535c0 .199.274.224.424.224h.15c.373-.025.373-.174.373-.224v-3.535h.721v3.535c0 .199.274.224.424.224h.124c.374-.025.374-.174.374-.224v-3.535h.746v3.535c0 .199.274.224.423.224h.125c.373-.025.373-.174.373-.224v-3.535h1.046c.199 0 .224-.274.224-.423v-.1c0-.149-.025-.423-.224-.423h-1.046V8.224c.025-.2-.249-.224-.423-.224h-.074c-.15 0-.424.025-.424.224v3.535h-.746V8.224c0-.2-.274-.224-.424-.224H9.03c-.15 0-.425.025-.425.224v3.535h-.721V8.224c0-.2-.274-.224-.424-.224h-.1c-.149 0-.423.025-.423.224v3.535h-.746V8.224c0-.2-.25-.224-.423-.224h-.074c-.176 0-.424.025-.424.224v3.535H4.224c-.2 0-.224.274-.224.423v.15c.025.373.174.373.224.373H5.27v3.535Z"/><path fill="#002469" fill-rule="evenodd" d="M24.139 8.622c-2.24 0-3.261 1.12-3.261 3.585 0 2.44 1.045 3.61 3.186 3.634h.1c2.165 0 3.21-1.195 3.21-3.634 0-2.49-.995-3.585-3.235-3.585Zm0 6.149c-1.32 0-1.818-.722-1.818-2.589 0-1.843.473-2.514 1.793-2.514h.05c1.294 0 1.793.672 1.793 2.514-.025 1.867-.523 2.589-1.818 2.589Z" clip-rule="evenodd"/><path fill="#002469" d="M15.102 15.294c.449.348 1.07.498 2.067.498h.049c.995 0 1.618-.15 2.09-.498.648-.498.773-1.094.773-2.216V9.021a.252.252 0 0 0-.073-.2c-.101-.1-.325-.149-.699-.149a1.016 1.016 0 0 0-.672.15.252.252 0 0 0-.073.199v4.232c0 .697 0 .846-.324 1.12-.32.2-.694.296-1.07.274a1.653 1.653 0 0 1-1.071-.275c-.324-.25-.324-.399-.324-1.095V9.02a.25.25 0 0 0-.073-.2c-.2-.126-.439-.18-.674-.149a1.016 1.016 0 0 0-.672.15.25.25 0 0 0-.074.199v4.057c.05 1.12.148 1.718.82 2.216Z"/><path fill="#002469" fill-rule="evenodd" d="M31.308 8.722c.871 0 1.32.1 1.693.373v.002c.497.348.572 1.02.597 1.419 0 .771-.2 1.17-.797 1.444l-.124.049.124.049c.202.066.395.158.573.274a1.773 1.773 0 0 1 .622 1.468c0 .498-.1 1.17-.647 1.593-.498.374-1.07.399-1.892.399H28.42a.25.25 0 0 1-.249-.25v-6.57a.25.25 0 0 1 .25-.249h2.887Zm-1.668 6.024h1.593c.921 0 1.244-.149 1.22-1.045 0-.672-.174-1.07-1.12-1.07H29.64v2.115Zm1.618-5.053H29.64v1.917h1.494c.721 0 1.02-.274 1.02-.946 0-.548-.05-.971-.896-.971Z" clip-rule="evenodd"/></g><defs><clipPath id="pi-uob-a"><path fill="#fff" d="M0 0h38v24H0z"/></clipPath></defs></svg>
