<svg
    xmlns="http://www.w3.org/2000/svg"
    xmlns:xlink="http://www.w3.org/1999/xlink" x="0px" y="0px"
	 role="img" viewBox="0 0 38 24" width="38" height="24" aria-labelledby="pi-upi" style="enable-background:new 0 0 38 24;" xml:space="preserve">
    <title id="pi-upi">UPI</title>
    <style type="text/css">
	.st0{opacity:7.000000e-02;enable-background:new    ;}
	.st1{fill:#FFFFFF;}
	.st2{fill:#3D3D3C;}
	.st3{fill:#71706E;}
	.st4{fill:#038042;}
	.st5{fill:#E97626;}
</style>
    <path class="st0" d="M35,0H3C1.3,0,0,1.3,0,3v18c0,1.7,1.4,3,3,3h32c1.7,0,3-1.3,3-3V3C38,1.3,36.6,0,35,0z"/>
    <path class="st1" d="M35,1c1.1,0,2,0.9,2,2v18c0,1.1-0.9,2-2,2H3c-1.1,0-2-0.9-2-2V3c0-1.1,0.9-2,2-2H35"/>
    <g>
        <g>
            <path class="st2" d="M10.7,14.1h0.1l-0.1,0.5c0,0.1,0,0.1,0,0.2c0,0,0.1,0.1,0.1,0.1c0.1,0,0.1,0,0.2-0.1
			c0,0,0.1-0.1,0.1-0.2l0.1-0.5h0.1l-0.1,0.5c0,0.1-0.1,0.2-0.1,0.2C11,15,10.9,15,10.8,15c-0.1,0-0.2,0-0.2-0.1c0-0.1,0-0.1,0-0.2
			L10.7,14.1z"/>
            <path class="st2" d="M11.3,15l0.2-0.8l0.4,0.5c0,0,0,0,0,0c0,0,0,0,0,0.1l0.1-0.6h0.1L12,15l-0.4-0.5c0,0,0,0,0,0
			c0,0,0,0,0,0L11.4,15L11.3,15L11.3,15z"/>
            <path class="st2" d="M12.2,15l0.2-0.8h0.1L12.3,15H12.2z"/>
            <path class="st2" d="M12.5,15l0.2-0.8h0.4l0,0.1h-0.3l0,0.2h0.3l0,0.1h-0.3L12.6,15L12.5,15L12.5,15z"/>
            <path class="st2" d="M13.1,15l0.2-0.8h0.1L13.2,15H13.1z"/>
            <path class="st2" d="M13.4,15l0.2-0.8H14l0,0.1h-0.3l0,0.2H14l0,0.1h-0.3l-0.1,0.3h0.3l0,0.1H13.4L13.4,15z"/>
            <path class="st2" d="M14,15l0.2-0.8h0.2c0.1,0,0.2,0,0.2,0s0.1,0,0.1,0.1c0,0,0.1,0.1,0.1,0.1c0,0.1,0,0.1,0,0.2
			c0,0.1,0,0.1-0.1,0.2c0,0.1-0.1,0.1-0.1,0.1c0,0-0.1,0-0.1,0.1c0,0-0.1,0-0.2,0h0L14,15L14,15z M14.1,14.8h0.1c0.1,0,0.1,0,0.1,0
			c0,0,0.1,0,0.1,0c0,0,0.1-0.1,0.1-0.1c0,0,0-0.1,0.1-0.1c0-0.1,0-0.1,0-0.1c0,0,0-0.1,0-0.1c0,0,0,0-0.1,0c0,0-0.1,0-0.1,0h0h0
			L14.1,14.8z"/>
            <path class="st2" d="M15.3,14.6L15.3,15h-0.1l0.2-0.8h0.2c0.1,0,0.1,0,0.1,0c0,0,0,0,0.1,0c0,0,0,0,0,0.1
			c0,0,0,0.1,0,0.1c0,0,0,0.1,0,0.1c0,0,0,0.1-0.1,0.1c0,0-0.1,0-0.1,0C15.5,14.6,15.5,14.6,15.3,14.6L15.3,14.6L15.3,14.6
			L15.3,14.6z M15.4,14.5L15.4,14.5c0.1,0,0.2,0,0.2,0c0,0,0,0,0.1-0.1c0,0,0-0.1,0-0.1c0,0-0.1,0-0.1,0h0L15.4,14.5z"/>
            <path class="st2" d="M16.2,15l0-0.2h-0.3L15.7,15h-0.1l0.6-0.8l0.2,0.8H16.2z M15.9,14.6h0.2l0-0.2c0,0,0,0,0,0
			c0,0,0,0,0-0.1c0,0,0,0,0,0.1c0,0,0,0,0,0L15.9,14.6z"/>
            <path class="st2" d="M16.5,15l0.1-0.4l-0.2-0.4h0.1l0.1,0.3c0,0,0,0,0,0c0,0,0,0,0,0c0,0,0,0,0,0c0,0,0,0,0,0
			l0.2-0.3h0.1l-0.4,0.4L16.6,15L16.5,15L16.5,15z"/>
            <path class="st2" d="M17.7,14.6C17.7,14.6,17.7,14.5,17.7,14.6c0-0.1,0-0.1,0-0.1C17.7,14.5,17.7,14.5,17.7,14.6
			C17.7,14.5,17.7,14.5,17.7,14.6L17.4,15l-0.1-0.4c0,0,0,0,0-0.1c0,0,0,0,0-0.1c0,0,0,0,0,0.1c0,0,0,0,0,0.1L17,15h-0.1l0.4-0.8
			l0.1,0.5c0,0,0,0,0,0c0,0,0,0,0,0.1c0,0,0-0.1,0.1-0.1c0,0,0,0,0,0l0.4-0.5l0,0.8h-0.1L17.7,14.6z"/>
            <path class="st2" d="M17.9,15l0.2-0.8h0.4l0,0.1h-0.3l0,0.2h0.3l0,0.1h-0.3l-0.1,0.3h0.3l0,0.1H17.9L17.9,15z"/>
            <path class="st2" d="M18.5,15l0.2-0.8l0.4,0.5c0,0,0,0,0,0c0,0,0,0,0,0.1l0.1-0.6h0.1L19.2,15l-0.4-0.5
			c0,0,0,0,0,0c0,0,0,0,0,0L18.7,15L18.5,15L18.5,15z"/>
            <path class="st2" d="M19.8,14.3L19.7,15h-0.1l0.2-0.7h-0.2l0-0.1h0.5l0,0.1H19.8z"/>
            <path class="st2" d="M20,14.8l0.1,0c0,0,0,0.1,0,0.1c0,0,0.1,0,0.1,0c0,0,0.1,0,0.1,0c0,0,0-0.1,0.1-0.1
			c0,0,0-0.1-0.1-0.1c0,0,0,0,0,0c-0.1,0-0.1-0.1-0.1-0.1c0,0,0-0.1,0-0.1c0-0.1,0.1-0.1,0.1-0.2c0.1,0,0.1-0.1,0.2-0.1
			c0.1,0,0.1,0,0.1,0c0,0,0.1,0.1,0.1,0.1l-0.1,0.1c0,0,0,0,0-0.1c0,0,0,0-0.1,0c0,0-0.1,0-0.1,0c0,0,0,0,0,0.1c0,0,0,0.1,0.1,0.1
			c0,0,0,0,0,0c0.1,0,0.1,0.1,0.1,0.1c0,0,0,0.1,0,0.1c0,0.1-0.1,0.1-0.1,0.2c-0.1,0-0.1,0.1-0.2,0.1c-0.1,0-0.1,0-0.2,0
			C20,14.9,20,14.9,20,14.8z"/>
            <path class="st2" d="M20.9,15l0.2-0.8h0.1L21.1,15H20.9z"/>
            <path class="st2" d="M21.2,15l0.2-0.8l0.4,0.5c0,0,0,0,0,0c0,0,0,0,0,0.1l0.1-0.6h0.1L21.9,15l-0.4-0.5
			c0,0,0,0,0,0c0,0,0,0,0,0L21.4,15L21.2,15L21.2,15z"/>
            <path class="st2" d="M22.5,14.3L22.4,15h-0.1l0.2-0.7h-0.2l0-0.1h0.5l0,0.1H22.5z"/>
            <path class="st2" d="M22.7,15l0.2-0.8h0.4l0,0.1H23l0,0.2h0.3l0,0.1h-0.3l-0.1,0.3h0.3l0,0.1H22.7L22.7,15z"/>
            <path class="st2" d="M23.5,14.6L23.4,15h-0.1l0.2-0.8h0.2c0.1,0,0.1,0,0.1,0c0,0,0.1,0,0.1,0c0,0,0,0,0,0.1
			c0,0,0,0.1,0,0.1c0,0.1,0,0.1-0.1,0.2c0,0-0.1,0.1-0.2,0.1l0.2,0.4h-0.1L23.5,14.6L23.5,14.6z M23.5,14.5L23.5,14.5
			c0.1,0,0.1,0,0.2,0c0,0,0,0,0.1-0.1c0,0,0-0.1,0-0.1c0,0-0.1,0-0.1,0h0L23.5,14.5z"/>
            <path class="st2" d="M23.9,15l0.2-0.8h0.4l0,0.1h-0.3l0,0.2h0.3l0,0.1h-0.3L24,15L23.9,15L23.9,15z"/>
            <path class="st2" d="M25,15l0-0.2h-0.3L24.5,15h-0.1l0.6-0.8l0.2,0.8H25z M24.7,14.6h0.2l0-0.2c0,0,0,0,0,0
			c0,0,0,0,0-0.1c0,0,0,0,0,0.1c0,0,0,0,0,0L24.7,14.6z"/>
            <path class="st2" d="M25.9,14.3C25.9,14.3,25.9,14.3,25.9,14.3c-0.1-0.1-0.2-0.1-0.2-0.1c-0.1,0-0.2,0-0.2,0.1
			c-0.1,0.1-0.1,0.1-0.1,0.2c0,0.1,0,0.2,0,0.2c0,0.1,0.1,0.1,0.2,0.1c0,0,0.1,0,0.1,0c0,0,0.1,0,0.1-0.1l0,0.1c0,0-0.1,0-0.1,0.1
			c0,0-0.1,0-0.1,0c-0.1,0-0.1,0-0.2,0c0,0-0.1-0.1-0.1-0.1c0,0,0-0.1-0.1-0.1c0-0.1,0-0.1,0-0.2c0-0.1,0-0.1,0.1-0.2
			c0-0.1,0.1-0.1,0.1-0.1c0,0,0.1-0.1,0.2-0.1c0.1,0,0.1,0,0.2,0c0,0,0.1,0,0.1,0c0,0,0.1,0,0.1,0.1L25.9,14.3z"/>
            <path class="st2" d="M25.9,15l0.2-0.8h0.4l0,0.1h-0.3l0,0.2h0.3l0,0.1h-0.3l-0.1,0.3h0.3l0,0.1H25.9z"/>
        </g>
        <g>
            <g>
                <path class="st3" d="M23.6,13.4h-0.9L23.9,9h0.9L23.6,13.4z"/>
                <g>
                    <path class="st3" d="M23.1,9.1C23.1,9.1,23,9,22.9,9H18l-0.2,0.9h0.9l0,0h3.5l-0.3,0.9h-3.5v0h-0.9l-0.7,2.6
					h0.9l0.5-1.8h4c0.1,0,0.2,0,0.4-0.1c0.1-0.1,0.2-0.2,0.2-0.3l0.5-1.8C23.2,9.3,23.2,9.2,23.1,9.1z"/>
                </g>
                <path class="st3" d="M16.3,13.2c0,0.2-0.2,0.3-0.4,0.3h-4.6c-0.1,0-0.2,0-0.3-0.1C11,13.2,11,13.1,11,13l1.1-4
				H13l-1,3.6h3.5l1-3.6h0.9L16.3,13.2z"/>
            </g>
            <g>
                <polygon class="st4" points="26.4,9 27.5,11.2 25.1,13.5 			"/>
                <polygon class="st5" points="25.6,9 26.7,11.2 24.3,13.5 			"/>
            </g>
        </g>
    </g>
</svg>
