<svg xmlns="http://www.w3.org/2000/svg" width="38" height="24" role="img" viewBox="0 0 38 24" aria-labelledby="pi-upi">
  <title id="pi-upi">UPI</title>
  <defs>
    <style>
      .cls-1 {
        fill: #3d3d3c;
      }

      .cls-2 {
        fill: #71706e;
      }

      .cls-3 {
        fill: #038042;
      }

      .cls-4 {
        fill: #e97626;
      }
    </style>
  </defs>
  <g data-name="Capa 2">
    <g data-name="Capa 1">
      <g>
        <g>
          <path class="cls-1" d="M.11,4.3H.22l-.1.41a.21.21,0,0,0,0,.14.12.12,0,0,0,.11,0,.21.21,0,0,0,.14,0,.26.26,0,0,0,.07-.14l.1-.41H.66l-.1.42a.43.43,0,0,1-.12.21A.38.38,0,0,1,.22,5,.24.24,0,0,1,0,4.93a.28.28,0,0,1,0-.21Z"/>
          <path class="cls-1" d="M.64,5l.17-.71.32.42,0,0,0,0L1.3,4.3h.09L1.23,5,.9,4.58l0,0,0,0L.74,5Z"/>
          <path class="cls-1" d="M1.39,5l.16-.68h.11L1.49,5Z"/>
          <path class="cls-1" d="M1.65,5l.16-.68h.37l0,.09H1.89l0,.17h.26l0,.1H1.83L1.75,5Z"/>
          <path class="cls-1" d="M2.13,5,2.3,4.3h.1L2.24,5Z"/>
          <path class="cls-1" d="M2.4,5l.16-.68h.37l0,.09H2.64l0,.17h.26l0,.1H2.58l-.05.22h.26l0,.1Z"/>
          <path class="cls-1" d="M2.89,5l.16-.68h.34a.19.19,0,0,1,.09.05.23.23,0,0,1,.06.12.48.48,0,0,1-.08.32l-.11.11L3.24,5,3.06,5H2.89ZM3,4.88h.21l.07,0a.27.27,0,0,0,.07-.08.37.37,0,0,0,0-.11.57.57,0,0,0,0-.12.2.2,0,0,0,0-.08.06.06,0,0,0-.06,0h-.2Z"/>
          <path class="cls-1" d="M4,4.67,4,5h-.1L4,4.3h.27l0,0a.16.16,0,0,1,0,.07.34.34,0,0,1,0,.09.2.2,0,0,1,0,.08s0,0-.06.07l-.07,0H4Zm0-.09h0l.13,0s0,0,0-.07,0-.06,0-.08l-.11,0h0Z"/>
          <path class="cls-1" d="M4.73,5l0-.18H4.43L4.31,5H4.2l.49-.71L4.84,5ZM4.5,4.71h.18l0-.16v0a.06.06,0,0,1,0,0l0,0a.08.08,0,0,1,0,0Z"/>
          <path class="cls-1" d="M5,5l.07-.31L4.94,4.3h.11l.08.23v0l0,0,0,0,.19-.23h.11l-.31.37L5.1,5Z"/>
          <path class="cls-1" d="M6,4.64a.1.1,0,0,1,0,0v0s0,0,0,0l0,0L5.72,5l-.08-.37a.09.09,0,0,1,0,0v0a.11.11,0,0,1,0,0,.17.17,0,0,1,0,.05L5.44,5h-.1l.32-.71.1.43v0s0,0,0,.06l.05-.07v0l.29-.43V5H6Z"/>
          <path class="cls-1" d="M6.2,5l.16-.68h.37l0,.09H6.45l0,.17h.26l0,.1H6.38l0,.22h.26l0,.1Z"/>
          <path class="cls-1" d="M6.69,5l.17-.71.32.42,0,0,0,0,.11-.47h.1L7.27,5,7,4.58l0,0s0,0,0,0L6.79,5Z"/>
          <path class="cls-1" d="M7.79,4.39,7.65,5H7.54l.14-.59H7.5l0-.09H8l0,.09Z"/>
          <path class="cls-1" d="M7.9,4.84l.1,0a.14.14,0,0,0,0,.07l.08,0,.08,0a.14.14,0,0,0,.05-.08s0-.07-.07-.1h0A.44.44,0,0,1,8,4.58a.14.14,0,0,1,0-.11.18.18,0,0,1,.09-.13.2.2,0,0,1,.15-.06.21.21,0,0,1,.12,0,.14.14,0,0,1,.05.08l-.1.05a.09.09,0,0,0,0-.05h0a.08.08,0,0,0-.07,0,.07.07,0,0,0,0,.06s0,.08.08.12h0a.31.31,0,0,1,.12.09.2.2,0,0,1,0,.11.29.29,0,0,1-.1.16A.27.27,0,0,1,8.08,5,.17.17,0,0,1,8,5S7.9,4.89,7.9,4.84Z"/>
          <path class="cls-1" d="M8.69,5l.16-.68H9L8.8,5Z"/>
          <path class="cls-1" d="M9,5l.17-.71.32.42,0,0,0,0,.12-.47h.1L9.54,5l-.33-.42,0,0a.05.05,0,0,1,0,0L9.05,5Z"/>
          <path class="cls-1" d="M10.05,4.39,9.91,5H9.8l.14-.59H9.77l0-.09h.46l0,.09Z"/>
          <path class="cls-1" d="M10.17,5l.16-.68h.37l0,.09h-.26l0,.17h.26l0,.1h-.26l0,.22h.26l0,.1Z"/>
          <path class="cls-1" d="M10.83,4.67,10.76,5h-.1l.16-.68h.25l0,0a.16.16,0,0,1,0,.07.25.25,0,0,1,0,.08.19.19,0,0,1-.07.13.23.23,0,0,1-.12.06l.15.31H11l-.15-.31Zm0-.08h0l.12,0a.15.15,0,0,0,0-.08.08.08,0,0,0,0-.08.23.23,0,0,0-.11,0h0Z"/>
          <path class="cls-1" d="M11.18,5l.16-.68h.37l0,.09h-.26l0,.17h.26l0,.1h-.26L11.28,5Z"/>
          <path class="cls-1" d="M12.06,5l0-.18h-.26L11.65,5h-.11L12,4.27l.15.71Zm-.23-.27H12l0-.16V4.48l0,0a.08.08,0,0,0,0,0Z"/>
          <path class="cls-1" d="M12.88,4.46,12.8,4.4l-.11,0a.34.34,0,0,0-.19.07.29.29,0,0,0-.11.19.22.22,0,0,0,0,.18.16.16,0,0,0,.15.07.25.25,0,0,0,.12,0l.11-.06,0,.12-.1.05h-.12a.27.27,0,0,1-.13,0,.25.25,0,0,1-.1-.08.21.21,0,0,1,0-.11.33.33,0,0,1,0-.14l.06-.14a.32.32,0,0,1,.11-.12.33.33,0,0,1,.13-.07.32.32,0,0,1,.14,0l.11,0,.09,0Z"/>
          <path class="cls-1" d="M12.89,5l.16-.68h.37l0,.09h-.26l-.05.17h.27l0,.1h-.26L13,4.88h.26l0,.1Z"/>
        </g>
        <g>
          <g>
            <path class="cls-2" d="M10.93,3.71h-.74l1-3.71H12Z"/>
            <path class="cls-2" d="M10.55.12A.29.29,0,0,0,10.31,0H6.25l-.2.73H9.74l-.21.77H5.83L5.22,3.72H6l.41-1.48H9.69A.48.48,0,0,0,10,2.13a.48.48,0,0,0,.18-.26L10.57.39A.28.28,0,0,0,10.55.12Z"/>
            <path class="cls-2" d="M4.79,3.48a.35.35,0,0,1-.33.24H.65a.26.26,0,0,1-.23-.1.29.29,0,0,1,0-.26L1.32,0h.74L1.23,3H4.18L5,0h.74Z"/>
          </g>
          <g>
            <polygon class="cls-3" points="13.23 0.01 14.16 1.86 12.2 3.72 13.23 0.01"/>
            <polygon class="cls-4" points="12.57 0.01 13.51 1.86 11.54 3.72 12.57 0.01"/>
          </g>
        </g>
      </g>
    </g>
  </g>
</svg>
