<svg xmlns="http://www.w3.org/2000/svg" width="38" height="24" fill="none" aria-labelledby="pi-upi" role="img" viewBox="0 0 38 24"><title id="pi-upi">UPI</title><path fill="#fff" d="M0 0h38v24H0z"/><path fill="#097939" d="m30.3 17.16 4.53-5.23-2.15-5.4z"/><path fill="#ED752E" d="m28.77 17.16 4.53-5.23-2.14-5.4z"/><path fill="#747474" d="m7.1 6.59-1.91 8.59 6.77.06 1.87-8.65h1.72L13.3 16.64c-.08.39-.4.7-.72.7h-8.7c-.52 0-.83-.52-.69-1.16l2.13-9.59zm20.95-.06h1.72L27.4 17.34h-1.77l2.43-10.81Zm-12.31 4.5 8.6-.06.56-2.28h-8.73l.52-2.1L26 6.48c.58 0 .93.56.77 1.27l-.87 4.05c-.16.7-.75 1.27-1.33 1.27h-7.69l-.9 4.45H14.3z"/></svg>