<svg xmlns="http://www.w3.org/2000/svg" role="img" viewBox="0 0 38 24" width="38" height="24" aria-labelledby="pi-urbo"><title id="pi-urbo">Urbo</title><g><path d="M35,0L3,0C1.3,0 0,1.3 0,3L0,21C0,22.7 1.4,24 3,24L35,24C36.7,24 38,22.7 38,21L38,3C38,1.3 36.6,0 35,0Z" style="fill-opacity:0.07;fill-rule:nonzero;"/><path d="M35,1C36.1,1 37,1.9 37,3L37,21C37,22.1 36.1,23 35,23L3,23C1.9,23 1,22.1 1,21L1,3C1,1.9 1.9,1 3,1L35,1Z" style="fill:white;fill-rule:nonzero;"/><g transform="matrix(0.0654689,0,0,0.0654689,5.68083,8.43194)"><path d="M352.328,0C322.313,0 297.896,24.487 297.896,54.574C297.896,84.661 322.319,109 352.328,109C382.338,109 406.885,84.578 406.885,54.574C406.885,24.57 382.409,0 352.328,0ZM86.073,1.786L86.073,67.66C86.073,79.172 76.715,88.53 65.22,88.53C53.725,88.53 44.367,79.172 44.367,67.66L44.367,27.428L23.898,39.242L23.898,67.666C23.898,90.466 42.437,108.999 65.22,108.999C88.002,108.999 106.541,90.845 106.541,67.666L106.541,1.786L86.073,1.786ZM280.112,52.494C284.303,47.09 286.664,40.307 286.664,33.263C286.664,15.902 272.429,1.785 254.926,1.785L212.67,1.785L212.67,107.204L258.786,107.204C276.211,107.204 290.388,93.087 290.388,75.726C290.388,66.658 286.587,58.301 280.112,52.494ZM178.618,61.467C188.834,56.063 195.677,45.308 195.677,33.523C195.677,16.032 181.376,1.785 163.803,1.785L121.416,1.785L121.416,107.204L141.884,107.204L141.884,64.545L157.315,64.545L181.134,107.204L204.976,107.204L178.618,61.467ZM352.328,88.544C333.594,88.544 318.359,73.296 318.359,54.574C318.359,35.852 333.594,20.604 352.328,20.604C371.062,20.604 386.298,35.526 386.298,54.574C386.298,73.622 371.062,88.544 352.328,88.544ZM269.783,75.676C269.781,81.784 264.828,86.736 258.72,86.736L233.268,86.736L233.268,64.616L258.72,64.616C264.828,64.616 269.781,69.569 269.783,75.676ZM269.783,75.679L269.783,75.673L269.783,75.679ZM233.274,22.395L255.406,22.395C261.514,22.395 266.469,27.35 266.469,33.458C266.469,39.567 261.514,44.521 255.406,44.521L233.274,44.521L233.274,22.395ZM175.073,33.461C175.071,39.569 170.117,44.521 164.01,44.521L141.878,44.521L141.878,22.401L164.01,22.401C170.117,22.401 175.071,27.354 175.073,33.461ZM175.073,33.464L175.073,33.458L175.073,33.464ZM0,1.785L23.712,15.476L23.712,15.494L44.37,27.421L44.37,1.785L0,1.785Z" style="fill:rgb(35,113,95);fill-rule:nonzero;"/></g></g></svg>
