<svg xmlns="http://www.w3.org/2000/svg" width="38" height="24" fill="none" aria-labelledby="pi-urpay" role="img" viewBox="0 0 38 24"><title id="pi-urpay">Urpay</title><path fill="#fff" d="M0 0h38v24H0z"/><path fill="#253E8B" fill-rule="evenodd" d="M9.68 3.45h3.63v2.24c-1.4-.03-2.8 0-4.19.07a4 4 0 0 0-2.79 3.83h-2.1C4.39 6.05 6.2 4 9.69 3.45Z" clip-rule="evenodd" opacity=".9"/><path fill="#253E8B" fill-rule="evenodd" d="M10.8 7.5h3.5v2.09c-.99-.02-1.96 0-2.94.07-.4.1-.75.38-.9.77-.08 2.04-.1 4.1-.08 6.14H8.15c-.06-2.29 0-4.57.2-6.84A3.86 3.86 0 0 1 10.8 7.5" clip-rule="evenodd" opacity=".91"/><path fill="#253E8B" fill-rule="evenodd" d="M4.26 11.42h2.1c-.02 1.54 0 3.07.07 4.6.73 2.13 2.15 2.8 4.26 2.03a3 3 0 0 0 1.46-2.16c.07-1.49.1-2.98.07-4.47h2.1c.02 1.72 0 3.45-.07 5.17-1 3.11-3.11 4.4-6.35 3.84a4.84 4.84 0 0 1-3.56-3.7c-.07-1.77-.1-3.54-.07-5.31Z" clip-rule="evenodd" opacity=".92"/><path fill="#253E8B" fill-rule="evenodd" d="M17.54 9.82h.7c-.03.79 0 1.58.07 2.37.59.74 1.2.74 1.81 0 .07-.79.1-1.58.07-2.37h.7c.02.88 0 1.77-.07 2.65-.26.75-.8 1.07-1.6.98a1.68 1.68 0 0 1-1.61-.84c-.07-.93-.1-1.86-.07-2.8Zm4.31-.02h1.68v.7c-.45-.05-.9 0-1.33.13a28 28 0 0 0-.07 2.8h-.7c-.02-1.07 0-2.14.07-3.21.14-.12.26-.26.35-.42m2.38.04c2.33-.4 3.15.54 2.45 2.8-.48.47-1.06.65-1.75.55v-.7c1.02.08 1.41-.38 1.19-1.39a1 1 0 0 0-.35-.49c-.4-.1-.8-.08-1.18.07-.07 1.21-.1 2.42-.07 3.63h-.7c-.03-1.35 0-2.7.07-4.05.14-.11.26-.26.35-.42Zm3.36-.03c.7-.02 1.4 0 2.1.07.48.46.67 1.04.55 1.74l-.07 1.26-.35.42a5.5 5.5 0 0 1-2.1.07c-.74-.75-.74-1.5 0-2.23a8.5 8.5 0 0 1 1.54-.07v.7a4.5 4.5 0 0 0-1.12.06q-.555.42 0 .84c.43.1.85.08 1.26-.07.63-1.84.03-2.49-1.81-1.95a1.1 1.1 0 0 1 0-.84m3.08 0h.7c-.03.7 0 1.4.07 2.1.23.52.63.68 1.18.49a.9.9 0 0 0 .35-.49c.07-.7.1-1.4.07-2.1h.7c.06 1.31 0 2.62-.2 3.92-.17.2-.39.38-.64.48-.65.1-1.3.07-1.95-.07v-.7c.4 0 .8.05 1.19.15.3-.03.55-.14.76-.35l-1.4-.14a1.07 1.07 0 0 1-.76-.77c-.07-.84-.1-1.68-.07-2.51Z" clip-rule="evenodd"/></svg>