<svg xmlns="http://www.w3.org/2000/svg" role="img" viewBox="0 0 38 24" width="38" height="24" aria-labelledby="pi-usdt"><title id="pi-usdt">USDT (Tether)</title><path fill="#000" opacity=".07" d="M35 0H3C1.3 0 0 1.3 0 3v18c0 1.7 1.4 3 3 3h32c1.7 0 3-1.3 3-3V3c0-1.7-1.4-3-3-3z"/><path fill="#fff" d="M35 1c1.1 0 2 .9 2 2v18c0 1.1-.9 2-2 2H3c-1.1 0-2-.9-2-2V3c0-1.1.9-2 2-2h32"/><g fill-rule="evenodd"><path d="M9.95 3.252l-4.332 9.1a.176.176 0 00.038.205l11.7 11.212a.178.178 0 00.248 0l11.7-11.211a.176.176 0 00.038-.206l-4.332-9.1a.175.175 0 00-.16-.102H10.111a.175.175 0 00-.16.102z" fill="#50af95"/><path d="M18.983 13.286c-.084.006-.518.032-1.486.032-.77 0-1.316-.023-1.508-.032-2.976-.13-5.197-.649-5.197-1.27s2.221-1.137 5.197-1.27v2.024c.194.014.752.047 1.522.047.924 0 1.386-.038 1.47-.046v-2.023c2.969.132 5.185.65 5.185 1.269s-2.215 1.137-5.186 1.268zm0-2.747V8.728h4.144V5.966H11.845v2.762h4.143v1.81c-3.368.155-5.9.822-5.9 1.621s2.532 1.466 5.9 1.621v5.803h2.995v-5.805c3.36-.155 5.888-.821 5.888-1.62s-2.526-1.465-5.888-1.62zm0 0z" fill="#fff"/></g></svg>