<svg viewBox="0 0 38 24" width="38" height="24" role="img" aria-labelledby="pi-v12finance" xmlns="http://www.w3.org/2000/svg"><title id="pi-v12finance">V12 Retail Finance</title><rect x="0" y="0" width="38" height="24" rx="2" ry="2" fill="#fff" stroke="#000" stroke-opacity="0.07" stroke-width="1"/><path fill="#0D4269" d="M18.131 18.595c-0.282-0.482-0.562-0.957-0.848-1.426-0.106-0.173-0.125-0.315-0.006-0.498 1.203-2.084 2.399-4.172 3.589-6.264 1.386-2.432 2.769-4.866 4.136-7.310 0.165-0.295 0.338-0.410 0.693-0.401 1.525 0.025 3.051 0.001 4.577 0.003 0.093 0 0.189-0.020 0.272 0.027-0.032 0.183-10.694 18.722-10.864 18.750-0.545-0.934-1.085-1.871-1.549-2.800z"/><path fill="#0D4269" d="M20.592 9.096c-1.640 2.870-2.278 4.002-3.728 6.540-0.111 0.008-0.131-0.062-0.157-0.129-0.896-1.579-1.878-3.123-2.908-4.642-0.077-0.114-0.068-0.203-0.009-0.321 1.133-2.001 2.257-4.007 3.382-6.013 0.263-0.470 0.525-0.941 0.785-1.414 0.068-0.121 0.150-0.178 0.296-0.178 1.794-0.004 3.588-0.001 5.382-0.002 0.064 0 0.131-0.013 0.219 0.067-0.754 1.321-1.514 2.638-2.262 4.092z"/><path fill="#0D4269" d="M9.876 2.849c2.077 0 4.132 0 6.246 0-1.103 1.991-2.200 3.916-3.322 5.907-1.158-1.991-2.270-3.916-3.451-5.907 0.189-0.089 0.358 0.005 0.527 0z"/></svg>