<?xml version="1.0" encoding="UTF-8"?>
<svg id="Layer_1" data-name="Layer 1" xmlns="http://www.w3.org/2000/svg" viewBox="0 0 38 24">
  <defs>
    <style>
      .cls-1 {
        fill: none;
        opacity: 0;
        stroke: #000;
        stroke-miterlimit: 10;
      }

      .cls-2 {
        fill: #fff;
        stroke: rgba(0, 0, 0, .07);
      }

      .cls-3 {
        fill: #0d4269;
      }
    </style>
  </defs>
  <rect class="cls-2" x=".5" y=".5" width="37" height="23" rx="2" ry="2"/>
  <path class="cls-3" d="M18.13,18.59c-.28-.48-.56-.96-.85-1.43-.11-.17-.12-.32,0-.5,1.2-2.08,2.4-4.17,3.59-6.26,1.39-2.43,2.77-4.87,4.14-7.31.17-.3.34-.41.69-.4,1.52.03,3.05,0,4.58,0,.09,0,.19-.02.27.03-.03.18-10.69,18.72-10.86,18.75-.55-.93-1.08-1.87-1.55-2.8v-.08Z"/>
  <path class="cls-3" d="M20.59,9.1c-1.64,2.87-2.28,4-3.73,6.54-.11,0-.13-.06-.16-.13-.9-1.58-1.88-3.12-2.91-4.64-.08-.11-.07-.2,0-.32,1.13-2,2.26-4.01,3.38-6.01.26-.47.52-.94.78-1.41.07-.12.15-.18.3-.18,1.79,0,3.59,0,5.38,0,.06,0,.13-.01.22.07-.75,1.32-1.51,2.64-2.26,4.09l-1,2Z"/>
  <path class="cls-3" d="M9.88,2.85h6.25c-1.1,1.99-2.2,3.92-3.32,5.91-1.16-1.99-2.27-3.92-3.45-5.91.19-.09.36,0,.53,0Z"/>
  <rect class="cls-1" x=".5" y=".5" width="37" height="23" rx="2" ry="2"/>
</svg>
