<svg width="38" height="24" aria-labelledby="pi-v12finance" xmlns="http://www.w3.org/2000/svg"><title id="pi-v12finance">V12 Finance</title><rect width="38" height="24" rx="2" ry="2" fill="#fff" stroke="#000" stroke-opacity=".07"/><path fill="#0D4269" d="M18.131 18.595a91.001 91.001 0 00-.848-1.426c-.106-.173-.125-.315-.006-.498 1.203-2.084 2.399-4.172 3.589-6.264a1047.6 1047.6 0 004.136-7.31c.165-.295.338-.41.693-.401 1.525.025 3.051.001 4.577.003.093 0 .189-.02.272.027-.032.183-10.694 18.722-10.864 18.75-.545-.934-1.085-1.871-1.549-2.8zM20.592 9.096c-1.64 2.87-2.278 4.002-3.728 6.54-.111.008-.131-.062-.157-.129a68.808 68.808 0 00-2.908-4.642c-.077-.114-.068-.203-.009-.321 1.133-2.001 2.257-4.007 3.382-6.013.263-.47.525-.941.785-1.414.068-.121.15-.178.296-.178 1.794-.004 3.588-.001 5.382-.002.064 0 .131-.013.219.067-.754 1.321-1.514 2.638-2.262 4.092zM9.876 2.849h6.246c-1.103 1.991-2.2 3.916-3.322 5.907-1.158-1.991-2.27-3.916-3.451-5.907.189-.089.358.005.527 0z"/></svg>