<svg xmlns="http://www.w3.org/2000/svg" width="38" height="24" aria-labelledby="pi-valu"><title id="pi-valu">VaLU</title><path opacity=".07" fill="#000" d="M35 0H3C1.3 0 0 1.3 0 3v18c0 1.7 1.4 3 3 3h32c1.7 0 3-1.3 3-3V3c0-1.7-1.4-3-3-3z"/><path fill="#fff" d="M35 1c1.1 0 2 .9 2 2v18c0 1.1-.9 2-2 2H3c-1.1 0-2-.9-2-2V3c0-1.1.9-2 2-2h32"/><g clip-rule="evenodd" fill-rule="evenodd"><path d="M34.843 4.515c.113-.003.225 0 .337.01a.21.21 0 01.18.159c-.018.267-.032.533-.043.8.198-.14.399-.276.6-.41a.256.256 0 01.306.052c.067.099.12.204.158.316a.329.329 0 01-.084.2c-.23.118-.461.23-.695.337l.674.337c.129.118.14.248.031.39a.54.54 0 01-.137.18.373.373 0 01-.231.02 27.338 27.338 0 01-.6-.41c.001.26.008.52.02.779a.255.255 0 01-.137.158 1.906 1.906 0 01-.4 0 .242.242 0 01-.095-.074.918.918 0 01-.031-.263c.005-.19.02-.38.042-.569l-.021-.032c-.193.126-.382.256-.569.39a.277.277 0 01-.327-.053 1.23 1.23 0 01-.158-.337.22.22 0 01.106-.179l.674-.337a5.738 5.738 0 01-.716-.368.314.314 0 01-.064-.158.763.763 0 01.253-.4.356.356 0 01.253.042l.558.39c-.016-.281-.023-.562-.02-.843a.636.636 0 01.136-.127z" fill="#f26623"/><path d="M22.772 4.536c1.121-.089 2.016.311 2.686 1.201.237.36.392.754.464 1.18.026.701.04 1.404.042 2.106.114.34.35.49.706.453a.582.582 0 00.474-.495l.02-1.98c.218-1.264.945-2.068 2.18-2.412 1.326-.214 2.348.239 3.066 1.359.209.366.328.76.358 1.18.024.85.01 1.7-.042 2.548-.349 2.192-1.504 3.797-3.465 4.814-1.975.894-3.913.823-5.815-.21-1.81-1.104-2.84-2.716-3.086-4.835-.032-.78-.04-1.559-.02-2.339.21-1.428 1.02-2.285 2.432-2.57z" fill="#f26522"/><path d="M18.538 4.515c.374-.04.623.115.748.464.001 1.496.015 2.991.042 4.487.16 1.915.898 3.566 2.212 4.95.211.33.173.629-.116.896a.638.638 0 01-.758-.022c-1.574-1.649-2.434-3.619-2.58-5.909a229.936 229.936 0 010-4.402.656.656 0 01.452-.464z" fill="#04a79d"/><path d="M22.878 5.758c.837-.06 1.423.29 1.759 1.053.032.119.06.238.084.359l.021 1.938c.103.679.465 1.167 1.085 1.464.826.291 1.539.119 2.138-.516.22-.28.354-.595.4-.948.001-.696.015-1.391.043-2.086.213-.775.718-1.196 1.516-1.264.633.008 1.11.281 1.433.822.077.154.133.315.168.484.02.808.013 1.616-.02 2.423-.246 1.656-1.085 2.91-2.518 3.76-1.213.645-2.484.792-3.813.442-1.493-.467-2.564-1.412-3.213-2.833a5.383 5.383 0 01-.4-1.77 43.595 43.595 0 010-1.916c.139-.753.578-1.224 1.317-1.412z" fill="#fffefd"/><path d="M12.619 6.706c1.773-.098 3.132.597 4.076 2.086.313.55.495 1.139.548 1.77.014 1.34.014 2.682 0 4.023-.1.371-.343.543-.727.516a.619.619 0 01-.495-.537L16 13.869c-1.014.943-2.21 1.326-3.592 1.148-1.582-.312-2.674-1.214-3.276-2.707-.516-1.592-.228-3.018.864-4.277a4.411 4.411 0 012.623-1.327zM7.984 6.727c.56.046.774.341.643.885-.986 2.403-1.977 4.805-2.97 7.205-.325.326-.655.333-.99.02a757.524 757.524 0 01-2.992-7.225c-.114-.291-.054-.54.179-.748a.7.7 0 01.737-.021l.158.158c.809 1.935 1.61 3.873 2.402 5.814l2.401-5.814a.754.754 0 01.432-.274z" fill="#04a79d"/><path d="M23.004 7.76c.384-.027.634.142.748.505-.116.914.11 1.728.674 2.444.912.957 1.99 1.207 3.234.747.96-.455 1.518-1.21 1.674-2.264l.021-.948c.105-.338.334-.496.685-.474a.593.593 0 01.516.432c.175 1.555-.327 2.836-1.506 3.844-1.236.91-2.577 1.099-4.024.57-1.367-.61-2.185-1.653-2.454-3.13a6.964 6.964 0 01-.042-1.221.691.691 0 01.474-.506z" fill="#f26523"/><path d="M12.787 7.928c1.49-.031 2.516.64 3.076 2.012.36 1.283.044 2.364-.948 3.244-.813.605-1.712.78-2.697.527-1.256-.45-1.955-1.338-2.096-2.665 0-1.437.664-2.423 1.991-2.96a5.05 5.05 0 01.674-.158z" fill="#fff"/><path d="M22.983 16.965c.285-.012.38.114.284.38-.134.118-.26.11-.379-.022-.062-.145-.03-.264.095-.358z" fill="#66676a"/><path d="M13.925 16.986h.379c-.004.274 0 .548.01.822.327-.145.615-.089.864.168.244.405.237.806-.021 1.201a.907.907 0 01-.716.295 1.61 1.61 0 01-.516-.105l-.021-.063c.02-.772.027-1.545.02-2.318z" fill="#656669"/><path d="M8.806 17.05c.05-.004.098 0 .147.01.117.12.223.25.316.39a.525.525 0 01-.105.137.053.053 0 01-.063 0c-.132-.1-.262-.201-.39-.306a.137.137 0 010-.105.859.859 0 01.095-.126z" fill="#66676a"/><path d="M6.846 17.155h.38v2.275h-.38v-2.275z" fill="#626466"/><path d="M12.471 17.155c.132-.007.262 0 .39.02.275.746.552 1.49.832 2.234a2.341 2.341 0 01-.442.021 6.315 6.315 0 00-.19-.548 4.225 4.225 0 00-.843 0 4.39 4.39 0 00-.19.548c-.14.007-.28 0-.42-.021.292-.75.58-1.502.863-2.254zM21.024 17.155h1.664v.358h-.653v1.917h-.4v-1.917h-.611v-.358z" fill="#646568"/><path d="M8.131 17.766h.422v.337H8.11c-.007.32 0 .635.021.948 0 .032.015.056.043.074a.624.624 0 00.326-.032l.053.021c.04.095.069.193.084.295-.183.07-.373.095-.569.074a.406.406 0 01-.305-.327c-.01-.35-.014-.702-.01-1.053h-.19v-.316h.19v-.464h.357c-.006.152 0 .3.021.443z" fill="#636467"/><path d="M20.097 17.766v.337c-.144-.007-.285 0-.421.02-.004.317 0 .633.01.949a.141.141 0 00.148.063.564.564 0 00.242-.063c.05.089.085.183.105.284a.091.091 0 01-.042.063c-.17.064-.346.085-.527.064a.406.406 0 01-.305-.327c-.01-.35-.014-.702-.01-1.053h-.17v-.337h.17v-.464h.379v.464h.421zM10.048 17.724c.201-.012.39.027.57.115l-.106.274a2.203 2.203 0 00-.421-.042c-.113.06-.134.143-.064.253.13.071.263.134.4.19.26.177.327.412.2.705a.699.699 0 01-.61.253 1.48 1.48 0 01-.432-.095.083.083 0 01-.021-.042c.029-.097.064-.192.105-.284a.737.737 0 00.548.052c.08-.084.083-.172.01-.263a17.21 17.21 0 01-.495-.284.56.56 0 01-.115-.495.619.619 0 01.431-.337zM16.22 17.724c.486-.03.792.187.917.653.04.267-.003.52-.126.758a.816.816 0 01-.811.327.75.75 0 01-.58-.6c-.101-.398 0-.732.306-1.001.095-.057.194-.102.295-.137z" fill="#656669"/><path d="M24.268 17.724c.22-.022.42.027.6.147a.807.807 0 01.833-.053c.11.09.177.206.2.348.01.421.014.843.01 1.264h-.379c.004-.386 0-.773-.01-1.159-.074-.175-.204-.235-.39-.179a1.275 1.275 0 00-.137.074c-.01.421-.014.843-.01 1.264h-.359c.004-.386 0-.773-.01-1.159-.046-.13-.138-.193-.274-.19-.09 0-.174.021-.253.064-.01.428-.014.857-.01 1.285h-.359c.003-.514 0-1.026-.01-1.538.182-.076.368-.132.558-.168zM27.618 18.735h-1.012c-.005.027.002.048.021.063a.353.353 0 00.232.305c.195.03.38.006.558-.073.042.093.08.188.116.284a.083.083 0 01-.02.042c-.301.139-.603.146-.907.021a.912.912 0 01-.4-.81.982.982 0 01.274-.685c.344-.227.67-.202.98.073a.93.93 0 01.158.78z" fill="#646568"/><path d="M12.913 18.482c-.179.007-.355 0-.526-.021a6.57 6.57 0 01.263-.737c.09.252.178.505.263.758z" fill="#fafafb"/><path d="M17.464 17.766h.358c-.004.379 0 .758.01 1.137.05.138.149.208.295.211.105-.006.207-.027.306-.063.02-.428.028-.857.02-1.285h.359c-.002.513.001 1.025.01 1.538a1.681 1.681 0 01-.895.158.517.517 0 01-.453-.39c-.01-.435-.014-.87-.01-1.306z" fill="#636467"/><path d="M22.899 17.766h.379v1.664h-.38v-1.664z" fill="#646568"/><path d="M27.238 18.335v.084h-.61v-.063c.064-.271.225-.352.484-.243.072.057.114.131.126.222z" fill="#fcfcfc"/><path d="M14.41 18.082c.275-.043.447.07.515.337a.806.806 0 01-.105.569.401.401 0 01-.348.126.64.64 0 01-.158-.021 10.665 10.665 0 010-.948.611.611 0 00.095-.063zM16.263 18.082c.236-.032.387.067.453.295.033.22.005.43-.084.632a.297.297 0 01-.137.094c-.257.053-.415-.049-.474-.305a1.399 1.399 0 01.02-.463.439.439 0 01.222-.253z" fill="#fdfdfd"/></g></svg>