<svg xmlns="http://www.w3.org/2000/svg" width="38" height="24" aria-labelledby="pi-venmo" role="img" viewBox="0 0 38 24"><title id="pi-venmo">Venmo</title><path fill-opacity=".07" d="M38 2v20a2 2 0 0 1-2 2H2a2 2 0 0 1-2-2V2a2 2 0 0 1 2-2h34a2 2 0 0 1 2 2Z"/><path fill="#fff" d="M37 3v18a2 2 0 0 1-2 2H3a2 2 0 0 1-2-2V3a2 2 0 0 1 2-2h32a2 2 0 0 1 2 2Z"/><path fill="#008cff" d="M24.159 6.077c.428.704.621 1.429.621 2.345 0 2.921-2.503 6.716-4.534 9.381h-4.64l-1.86-11.087 4.062-.384.984 7.889c.919-1.492 2.053-3.837 2.053-5.436 0-.875-.15-1.471-.385-1.962l3.699-.746Z"/></svg>
