<svg xmlns="http://www.w3.org/2000/svg" width="38" height="24" fill="none" aria-labelledby="pi-ventipay" role="img" viewBox="0 0 38 24"><title id="pi-ventipay">VentiPay</title><path fill="#fff" d="M0 0h38v24H0z"/><path fill="#65DB95" d="m32.13 10 .95-.56c.47-.28.75-.78.75-1.32a.92.92 0 0 0-1.58-.65.93.93 0 0 0-.27.65v1.79c0 .07.08.12.15.08Zm-9.46-1c-.63 0-1.15.19-1.56.53a.36.36 0 0 1-.56-.14.36.36 0 0 0-.33-.23h-1.15a.08.08 0 0 0-.08.08v4.94c0 .7.56 1.26 1.25 1.26h.51a.08.08 0 0 0 .08-.08v-3.38c0-.86.46-1.33 1.16-1.33.71 0 1.13.49 1.13 1.32v2.2c0 .7.56 1.26 1.25 1.26h.5a.08.08 0 0 0 .08-.08v-3.71c0-1.64-.75-2.65-2.29-2.65h.01Zm7.98 4.72a1.6 1.6 0 0 1-.84.23c-.58 0-.94-.3-.94-1V10.8a.08.08 0 0 1 .08-.08h1.65a.08.08 0 0 0 .08-.08v-1.4a.08.08 0 0 0-.08-.08h-1.65a.08.08 0 0 1-.08-.08V7.31a.11.11 0 0 0-.11-.11h-1.6a.08.08 0 0 0-.07.08v1.8a.08.08 0 0 1-.08.08h-1.1a.08.08 0 0 0-.07.08v1.4a.08.08 0 0 0 .08.08h1.04a.08.08 0 0 1 .08.08v2.53a2.27 2.27 0 0 0 2.28 2.27h.04c.78 0 1.41-.64 1.41-1.42v-.4c0-.06-.06-.1-.11-.07h-.01ZM6.59 9.16c-.22-.2-.5-.3-.78-.3-.92 0-1.51.97-1.1 1.79l.99 1.92 1.1-2.14c.2-.41.13-.92-.22-1.27Zm3.12-.3h-1.9c-.05 0-.08.03.04.1.18.08.33.22.42.4a.9.9 0 0 1 0 .8l-1.5 2.93a1.29 1.29 0 0 0 0 1.18l.61 1.19a.25.25 0 0 0 .45 0l1.79-3.49v.01l.92-1.8a.9.9 0 0 0-.83-1.32m4.87.13c-1.98 0-3.22 1.4-3.22 3.33 0 1.94 1.23 3.28 3.24 3.28s2.39-.57 2.9-1.58a.09.09 0 0 0-.04-.1l-1.3-.7-.14.05c-.27.6-.74.89-1.38.89a1.52 1.52 0 0 1-1.44-1.3.08.08 0 0 1 .08-.06h3.38a1 1 0 0 0 1-1v-.05c0-.03-.01-.36-.04-.5C17.29 9.95 16.28 9 14.58 9Zm1.26 2.58h-2.57a.07.07 0 0 1-.07-.09c.14-.68.7-1.06 1.34-1.06.65 0 1.21.37 1.37 1.06a.08.08 0 0 1-.05.09h-.03ZM33.68 10l-1.09.64c-.38.22-.62.64-.62 1.08v2.24c0 .81.66 1.47 1.47 1.47h.21a.18.18 0 0 0 .19-.18v-5.17a.1.1 0 0 0-.16-.09Z"/></svg>