<svg xmlns="http://www.w3.org/2000/svg" role="img" viewBox="0 0 38 24" width="38" height="24" aria-labelledby="pi-verd-cash"><title id="pi-verd-cash">{Your icon}</title><path fill="#000" opacity=".07" d="M35 0H3C1.3 0 0 1.3 0 3v18c0 1.7 1.4 3 3 3h32c1.7 0 3-1.3 3-3V3c0-1.7-1.4-3-3-3z"/><path fill="#ff7541" d="M35 1c1.1 0 2 .9 2 2v18c0 1.1-.9 2-2 2H3c-1.1 0-2-.9-2-2V3c0-1.1.9-2 2-2h32"/>aria-labelledby=&quot;pi-verd-cash&quot;&gt;<title id="pi-verd-cash">VERD.cash</title><defs><clipPath id="pi-clippath"><path fill="none" d="M10.968 5.571h14.064v14.298H10.968z"/></clipPath></defs><g fill="#fff" clip-path="url(#pi-clippath)" transform="translate(1)"><path d="M20.244 15.306l4.788-9.735h-3.735l-2.793 5.991 1.743 3.741zm-5.547-9.735h-3.729L18 19.869l1.722-3.501-5.025-10.794z"/></g></svg>