<svg xmlns="http://www.w3.org/2000/svg" role="img" viewBox="0 0 38 24" width="38" height="24" aria-labelledby="pi-viabill"><title id="pi-viabill">ViaBill</title><rect x="1" y="1" width="36" height="22" rx="2" fill="#fff"/><path d="M15.183 6a1.39 1.39 0 00-1.299.895l-3.097 8.13-3.1-8.13a1.388 1.388 0 10-2.58 1.026l3.756 9.041a2.092 2.092 0 003.864-.002l3.74-9.04A1.389 1.389 0 0015.182 6zM21.046 6c-.5 0-.952.3-1.145.761l-4.093 9.77a1.24 1.24 0 002.288.959l4.094-9.77A1.24 1.24 0 0021.046 6zM29.137 7.308a2.091 2.091 0 00-3.864.003l-3.74 9.04a1.39 1.39 0 102.583 1.025l3.097-8.13 3.1 8.13a1.388 1.388 0 102.58-1.027l-3.756-9.04z" fill="#5A00FF"/></svg>