<svg viewBox="0 0 38 24" xmlns="http://www.w3.org/2000/svg" width="38" height="24" role="img" aria-labelledby="pi-vipps"><title id="pi-vipps">Vipps</title><path opacity=".07" d="M35 0H3C1.3 0 0 1.3 0 3v18c0 1.7 1.4 3 3 3h32c1.7 0 3-1.3 3-3V3c0-1.7-1.4-3-3-3z" fill="#000"/><path d="M35 1c1.1 0 2 .9 2 2v18c0 1.1-.9 2-2 2H3c-1.1 0-2-.9-2-2V3c0-1.1.9-2 2-2h32z" fill="#FF5B24"/><path fill-rule="evenodd" clip-rule="evenodd" d="M21.753 9.294c1.017 0 1.888-.779 1.888-1.897 0-1.12-.871-1.897-1.888-1.897-1.016 0-1.888.778-1.888 1.897 0 1.118.872 1.897 1.888 1.897zm2.47 3.064c-1.26 1.653-2.59 2.796-4.939 2.796-2.396 0-4.26-1.459-5.712-3.599-.581-.875-1.477-1.07-2.13-.608-.606.438-.75 1.362-.194 2.165C13.257 16.2 16.04 18 19.284 18c2.978 0 5.302-1.46 7.117-3.891.677-.9.653-1.824 0-2.335-.606-.487-1.501-.316-2.179.584z" fill="#fff"/></svg>
