<svg width="38" height="24" viewBox="0 0 38 24" role="img" xmlns="http://www.w3.org/2000/svg" aria-labelledby="pi-vipps"><title id="pi-vipps">Vipps</title>
<rect x="1" y="1" width="36" height="22" rx="2" fill="white"/>
<rect x="0.5" y="0.5" width="37" height="23" rx="2.5" stroke="black" stroke-opacity="0.07"/>
<path fill-rule="evenodd" clip-rule="evenodd" d="M34 10.7992C33.6624 9.51126 32.8428 9 31.7241 9C30.8177 9 29.6801 9.51126 29.6801 10.7424C29.6801 11.5378 30.2296 12.1629 31.1263 12.324L31.9749 12.4754C32.5535 12.5795 32.7174 12.7974 32.7174 13.091C32.7174 13.4224 32.3607 13.6118 31.8303 13.6118C31.1361 13.6118 30.7022 13.3656 30.6346 12.6742L29.4101 12.8637C29.6028 14.1988 30.7984 14.7482 31.8784 14.7482C32.9006 14.7482 33.9903 14.161 33.9903 12.9773C33.9903 12.1723 33.4984 11.5853 32.5823 11.4146L31.6471 11.2443C31.1263 11.1497 30.9528 10.8939 30.9528 10.6477C30.9528 10.3352 31.2902 10.1365 31.7531 10.1365C32.3414 10.1365 32.756 10.3352 32.7753 10.9886L34 10.7992ZM6.77734 12.8256L8.04995 9.14197H9.54453L7.32666 14.606H6.21787L4 9.14207H5.49458L6.77734 12.8256ZM14.5977 10.7046C14.5977 11.1401 14.2505 11.4431 13.8455 11.4431C13.4405 11.4431 13.0935 11.1401 13.0935 10.7046C13.0935 10.2689 13.4405 9.96599 13.8455 9.96599C14.2505 9.96599 14.5978 10.2689 14.5978 10.7046H14.5977ZM14.8291 12.6364C14.3275 13.2802 13.7972 13.7253 12.8619 13.7253C11.9075 13.7253 11.1648 13.1571 10.5863 12.3239C10.3548 11.9829 9.99799 11.9072 9.73758 12.0871C9.49655 12.2576 9.43883 12.6175 9.66048 12.93C10.4608 14.1327 11.5697 14.8333 12.8618 14.8333C14.0479 14.8333 14.9737 14.2652 15.6968 13.3182C15.9668 12.9679 15.9571 12.608 15.6968 12.4091C15.4557 12.2196 15.0989 12.2861 14.8291 12.6364ZM18.1562 11.8598C18.1562 12.9773 18.812 13.5645 19.5449 13.5645C20.2391 13.5645 20.9528 13.0152 20.9528 11.8598C20.9528 10.7233 20.2391 10.1742 19.5544 10.1742C18.812 10.1742 18.1562 10.695 18.1562 11.8598ZM18.1562 9.89973V9.15141H16.7967V16.5H18.1562V13.8863C18.6095 14.4924 19.1977 14.7483 19.8629 14.7483C21.107 14.7483 22.3219 13.7823 22.3219 11.7937C22.3219 9.89008 21.0588 9.0001 19.9787 9.0001C19.1205 9.0001 18.5324 9.38826 18.1562 9.89973ZM24.6848 11.8598C24.6848 12.9773 25.3404 13.5645 26.0734 13.5645C26.7675 13.5645 27.4811 13.0152 27.4811 11.8598C27.4811 10.7233 26.7675 10.1742 26.0829 10.1742C25.3404 10.1742 24.6847 10.695 24.6847 11.8598H24.6848ZM24.6848 9.89973V9.15141H24.6847H23.3251V16.5H24.6847V13.8863C25.1379 14.4924 25.7261 14.7483 26.3914 14.7483C27.6354 14.7483 28.8504 13.7823 28.8504 11.7937C28.8504 9.89008 27.5872 9.0001 26.5071 9.0001C25.6489 9.0001 25.0608 9.38826 24.6848 9.89973Z" fill="#FF5B24"/>
</svg>
