<svg viewBox="0 0 38 24" xmlns="http://www.w3.org/2000/svg" role="img" width="38" height="24" aria-labelledby="pi-vipps">
<title id="pi-vipps">Vipps</title>
<path opacity=".07" d="M35 0H3C1.3 0 0 1.3 0 3v18c0 1.7 1.4 3 3 3h32c1.7 0 3-1.3 3-3V3c0-1.7-1.4-3-3-3z"/>
<path fill="#fff" d="M35 1c1.1 0 2 .9 2 2v18c0 1.1-.9 2-2 2H3c-1.1 0-2-.9-2-2V3c0-1.1.9-2 2-2h32"/>
<path fill-rule="evenodd" clip-rule="evenodd" fill="#FF5B24" d="M27.414,12.07c0.357,0.281,0.545,0.667,0.564,1.155
	c0,0.487-0.188,0.977-0.564,1.464C25.218,17.563,22.551,19,19.415,19c-1.803,0-3.484-0.479-5.042-1.437
	c-1.521-0.939-2.836-2.273-3.944-4.001c-0.319-0.469-0.451-0.929-0.394-1.38c0.038-0.432,0.244-0.779,0.62-1.042
	c0.356-0.244,0.76-0.31,1.211-0.197c0.469,0.132,0.864,0.432,1.183,0.901c0.827,1.239,1.747,2.197,2.761,2.873
	c1.127,0.732,2.329,1.099,3.606,1.099c1.22,0,2.29-0.291,3.211-0.873c0.751-0.47,1.521-1.221,2.31-2.254
	c0.395-0.47,0.816-0.761,1.268-0.873S27.057,11.788,27.414,12.07z M23.668,5.619c0.432,0.413,0.648,0.911,0.648,1.493
	c0,0.639-0.217,1.155-0.648,1.55c-0.413,0.375-0.91,0.563-1.492,0.563s-1.08-0.188-1.494-0.563c-0.412-0.395-0.619-0.911-0.619-1.55
	c0-0.62,0.207-1.127,0.619-1.521C21.096,5.197,21.594,5,22.176,5S23.255,5.206,23.668,5.619z"/>
</svg>
