<svg viewBox="0 0 38 24" xmlns="http://www.w3.org/2000/svg" role="img" width="38" height="24" aria-labelledby="pi-vipps"><title id="pi-vipps">Vipps</title><path opacity=".07" d="M35 0H3C1.3 0 0 1.3 0 3v18c0 1.7 1.4 3 3 3h32c1.7 0 3-1.3 3-3V3c0-1.7-1.4-3-3-3z"/><path fill="#fff" d="M35 1c1.1 0 2 .9 2 2v18c0 1.1-.9 2-2 2H3c-1.1 0-2-.9-2-2V3c0-1.1.9-2 2-2h32"/><path fill-rule="evenodd" clip-rule="evenodd" fill="#FF5B24" d="M27.414 12.07c.357.281.545.667.564 1.155 0 .487-.188.977-.564 1.464C25.218 17.563 22.551 19 19.415 19a9.454 9.454 0 01-5.042-1.437c-1.521-.939-2.836-2.273-3.944-4.001-.319-.469-.451-.929-.394-1.38.038-.432.244-.779.62-1.042.356-.244.76-.31 1.211-.197.469.132.864.432 1.183.901.827 1.239 1.747 2.197 2.761 2.873 1.127.732 2.329 1.099 3.606 1.099 1.22 0 2.29-.291 3.211-.873.751-.47 1.521-1.221 2.31-2.254.395-.47.816-.761 1.268-.873s.852-.028 1.209.254zm-3.746-6.451c.432.413.648.911.648 1.493 0 .639-.217 1.155-.648 1.55-.413.375-.91.563-1.492.563s-1.08-.188-1.494-.563c-.412-.395-.619-.911-.619-1.55 0-.62.207-1.127.619-1.521.414-.394.912-.591 1.494-.591s1.079.206 1.492.619z"/></svg>

