<svg width="38" height="24" viewBox="0 0 38 24" role="img" fill="none" xmlns="http://www.w3.org/2000/svg"><title id="vipps">Vipps</title><path fill-rule="evenodd" clip-rule="evenodd" d="M38 10.279C37.572 8.648 36.534 8 35.117 8c-1.148 0-2.589.648-2.589 2.207 0 1.008.696 1.8 1.832 2.003l1.075.192c.733.132.94.408.94.78 0 .42-.452.66-1.123.66-.88 0-1.43-.312-1.515-1.188l-1.55.24c.243 1.691 1.758 2.387 3.126 2.387 1.294 0 2.675-.744 2.675-2.243 0-1.02-.623-1.763-1.784-1.98l-1.184-.215c-.66-.12-.88-.444-.88-.756 0-.396.428-.647 1.014-.647.745 0 1.27.251 1.295 1.079l1.551-.24zM3.518 12.846L5.13 8.18h1.893l-2.81 6.92H2.81L0 8.18h1.893l1.625 4.666zm9.906-2.687c0 .552-.44.936-.953.936-.513 0-.953-.384-.953-.936s.44-.935.953-.935c.513 0 .953.383.953.935zm.293 2.447c-.635.816-1.307 1.38-2.492 1.38-1.209 0-2.15-.72-2.882-1.776-.294-.432-.746-.528-1.075-.3-.306.216-.379.672-.098 1.068 1.014 1.523 2.418 2.41 4.055 2.41 1.502 0 2.675-.719 3.591-1.918.342-.444.33-.9 0-1.152-.306-.24-.757-.156-1.1.288zm4.214-.984c0 1.416.83 2.16 1.76 2.16.879 0 1.783-.696 1.783-2.16 0-1.44-.904-2.135-1.772-2.135-.94 0-1.77.66-1.77 2.135zm0-2.482v-.948H16.21V17.5h1.722v-3.31c.574.767 1.32 1.091 2.162 1.091 1.576 0 3.115-1.224 3.115-3.742 0-2.412-1.6-3.539-2.968-3.539-1.087 0-1.832.492-2.309 1.14zm8.27 2.482c0 1.416.83 2.16 1.759 2.16.879 0 1.783-.696 1.783-2.16 0-1.44-.904-2.135-1.771-2.135-.94 0-1.771.66-1.771 2.135zm0-2.482v-.948h-1.723V17.5h1.723v-3.31c.574.767 1.319 1.091 2.161 1.091 1.576 0 3.115-1.224 3.115-3.742 0-2.412-1.6-3.539-2.968-3.539-1.087 0-1.832.492-2.308 1.14z" fill="#FF5B24"/></svg>
