<?xml version="1.0" encoding="utf-8"?>
<!-- Generator: Adobe Illustrator 16.0.0, SVG Export Plug-In . SVG Version: 6.00 Build 0)  -->
<!DOCTYPE svg PUBLIC "-//W3C//DTD SVG 1.1//EN" "http://www.w3.org/Graphics/SVG/1.1/DTD/svg11.dtd">
<svg version="1.1" xmlns="http://www.w3.org/2000/svg" xmlns:xlink="http://www.w3.org/1999/xlink" x="0px" y="0px" width="40px"
	 height="20px" viewBox="0 0 40 20" enable-background="new 0 0 40 20" xml:space="preserve">
<g id="Layer_3">
	<g>
		<g>
			<path fill-rule="evenodd" clip-rule="evenodd" fill="#FFFFFF" d="M0.25,16.094V3.175c0-0.05,0-0.099,0-0.146
				c0-1.852,0.955-2.779,2.864-2.779h32.859c1.86,0.036,2.79,0.962,2.79,2.779v12.967c0,1.853-0.971,2.778-2.914,2.778H3.114
				C1.241,18.774,0.286,17.881,0.25,16.094z"/>
			
				<path fill-rule="evenodd" clip-rule="evenodd" fill="none" stroke="#CECECE" stroke-linecap="round" stroke-linejoin="round" stroke-miterlimit="3" d="
				M35.973,0.25H3.114c-1.909,0-2.864,0.927-2.864,2.779c0,0.048,0,0.097,0,0.146v12.918v0.731c0,1.949,0.971,2.925,2.914,2.925
				h33.575c2.008,0,3.012-0.976,3.012-2.925V3.175c0-1.95-1.004-2.925-3.012-2.925H35.973z"/>
		</g>
	</g>
</g>
<g id="Layer_1">
	<g>
		<path fill-rule="evenodd" clip-rule="evenodd" fill="#FF5B24" d="M27.674,11.049c0.007,0.416-0.153,0.832-0.479,1.248
			C25.313,14.766,23.034,16,20.357,16c-1.533,0-2.967-0.409-4.303-1.228c-1.315-0.798-2.443-1.947-3.383-3.447
			c-0.266-0.382-0.378-0.768-0.337-1.156c0.041-0.382,0.215-0.679,0.521-0.89c0.313-0.225,0.664-0.286,1.053-0.184
			c0.402,0.109,0.735,0.368,1.001,0.777c0.709,1.064,1.496,1.883,2.361,2.455c0.961,0.628,1.99,0.941,3.087,0.941
			c1.042,0,1.958-0.245,2.749-0.736c0.633-0.402,1.291-1.047,1.972-1.934c0.327-0.416,0.688-0.672,1.084-0.768
			c0.381-0.088,0.726-0.013,1.032,0.226C27.507,10.309,27.667,10.64,27.674,11.049z M23.995,7.141
			c-0.348,0.328-0.773,0.491-1.277,0.491s-0.927-0.164-1.268-0.491c-0.367-0.348-0.552-0.788-0.552-1.32
			c0-0.532,0.185-0.972,0.552-1.319C21.791,4.167,22.214,4,22.718,4c0.49,0,0.916,0.174,1.277,0.521
			c0.361,0.362,0.542,0.795,0.542,1.299C24.537,6.353,24.356,6.793,23.995,7.141z"/>
	</g>
</g>
</svg>
