<svg role="img" viewBox="0 0 38 24" width="38" height="24" aria-labelledby="pi-virementmaitrise" xmlns="http://www.w3.org/2000/svg"><title id="pi-virementmaitrise">Virement Maitrisé</title><defs><linearGradient id="pi-virementmaitrise-lg1" x1="7.75" x2="21.5" y1="15.3" y2="3.66" gradientUnits="userSpaceOnUse"><stop stop-color="#fff" offset="0"/><stop stop-color="#fff" offset=".388"/><stop stop-color="#e7041e" offset=".729"/><stop stop-color="#e7041e" offset="1"/></linearGradient><linearGradient id="pi-virementmaitrise-lg2" x1="7.23" x2="21.1" y1="11.3" y2="23.6" gradientUnits="userSpaceOnUse"><stop stop-color="#fff" offset="0"/><stop stop-color="#fff" offset=".308"/><stop stop-color="#e7041e" offset=".645"/><stop stop-color="#e7041e" offset="1"/></linearGradient><linearGradient id="pi-virementmaitrise-lg3" x1="7.23" x2="21.1" y1="11.3" y2="23.6" gradientTransform="matrix(.721 0 0 .721 15 3.31)" gradientUnits="userSpaceOnUse"><stop stop-color="#fff" offset="0"/><stop stop-color="#fff" offset=".308"/><stop offset=".608"/><stop offset="1"/></linearGradient><linearGradient id="pi-virementmaitrise-lg4" x1="7.75" x2="21.5" y1="15.3" y2="3.66" gradientTransform="matrix(.721 0 0 .721 15 3.31)" gradientUnits="userSpaceOnUse"><stop stop-color="#fff" offset="0"/><stop stop-color="#fff" offset=".388"/><stop offset=".696"/><stop offset="1"/></linearGradient></defs><g clip-path="url(#clip0_19_784)"><path d="M35 0H3a3 3 0 00-3 3v18a3 3 0 003 3h32a3 3 0 003-3V3a3 3 0 00-3-3" fill="#000" opacity=".1"/><path d="M35 1a2 2 0 012 2v18a2 2 0 01-2 2H3a2 2 0 01-2-2V3q.2-1.8 2-2z" fill="#fff"/><path d="M6.44 20.4l.452-.452 6.44-6.56c.452-.528.678-.98.678-1.36s-.226-.829-.678-1.36l-6.44-6.56-.452-.452h8.59c1.02 0 1.13.113 1.36.452l6.55 6.56c.377.452.762.923.762 1.38.075.377-.311.811-.762 1.34l-6.55 6.56c-.226.339-.339.452-1.36.452z" fill="url(#pi-virementmaitrise-lg2)"/><path d="M15.9 12.1s-1.9.294-1.9-.083-.226-.829-.678-1.36l-6.44-6.56-.452-.452h8.59c1.02 0 1.13.113 1.36.452l6.55 6.56c.377.452.762.923.762 1.38-.466.09-2.97.082-3.65.113z" fill="url(#pi-virementmaitrise-lg1)"/><path d="M19.7 18l.326-.326 4.64-4.73c.326-.38.488-.706.488-.978s-.163-.598-.488-.978l-4.64-4.73-.326-.326h6.19c.733 0 .814.081.977.326l4.72 4.73c.271.326.549.665.549.991.054.272-.224.585-.549.965l-4.72 4.73c-.163.244-.244.326-.977.326z" fill="url(#pi-virementmaitrise-lg3)"/><path d="M26.5 12s-1.37.212-1.37-.06-.163-.598-.488-.978l-4.64-4.73-.326-.326h6.19c.733 0 .814.082.977.326l4.72 4.73c.271.326.549.665.549.991-.336.065-2.14.06-2.63.081z" fill="url(#pi-virementmaitrise-lg4)"/></g></svg>