<?xml version="1.0" encoding="utf-8"?>
<!-- Generator: Adobe Illustrator 16.0.0, SVG Export Plug-In . SVG Version: 6.00 Build 0)  -->
<!DOCTYPE svg PUBLIC "-//W3C//DTD SVG 1.1//EN" "http://www.w3.org/Graphics/SVG/1.1/DTD/svg11.dtd">
<svg version="1.1" xmlns="http://www.w3.org/2000/svg" xmlns:xlink="http://www.w3.org/1999/xlink" x="0px" y="0px" width="38px"
	 height="24px" viewBox="0 0 38 24" enable-background="new 0 0 38 24" xml:space="preserve" aria-labelledby="pi-visa" role="img">
	 <title id="pi-visa">Visa</title>
<g id="pi-visa-Layer_3">
	<g>
		<g>
			<path fill-rule="evenodd" clip-rule="evenodd" fill="#FFFFFF" d="M0.25,16.928V3.33c0-0.053,0-0.104,0-0.154
				c0-1.95,0.93-2.925,2.789-2.925h31.995c1.812,0.038,2.717,1.013,2.717,2.925v13.65c0,1.95-0.945,2.925-2.838,2.925H3.039
				C1.215,19.75,0.285,18.81,0.25,16.928z"/>
			
				<path fill-rule="evenodd" clip-rule="evenodd" fill="none" stroke="#CECECE" stroke-linecap="round" stroke-linejoin="round" stroke-miterlimit="3" d="
				M34.164,0.25H2.969c-1.813,0-2.719,0.927-2.719,2.779c0,0.048,0,0.097,0,0.146v12.918v0.731c0,1.949,0.922,2.925,2.766,2.925
				h31.875c1.906,0,2.859-0.976,2.859-2.925V3.175c0-1.95-0.953-2.925-2.859-2.925H34.164z"/>
		</g>
	</g>
</g>
<g id="pi-visa-Layer_1">
	<g>
		<path fill-rule="evenodd" clip-rule="evenodd" fill="#10357F" d="M27.264,11.135h1.654l-0.604-2.9L27.264,11.135z M27.515,6.298
			c0.145-0.107,0.312-0.161,0.502-0.161h1.699l1.608,7.737h-1.836l-0.24-1.157h-2.555l-0.422,1.157h-2.087l2.988-7.164
			C27.241,6.534,27.355,6.397,27.515,6.298z M22.793,6c0.615,0,1.235,0.114,1.858,0.344L24.31,7.982
			c-0.388-0.176-0.791-0.286-1.209-0.332c-0.281-0.038-0.536-0.042-0.764-0.012c-0.267,0.038-0.476,0.122-0.628,0.252
			c-0.137,0.115-0.209,0.245-0.217,0.39c0,0.199,0.145,0.394,0.434,0.585c0.175,0.107,0.494,0.283,0.958,0.527
			c0.943,0.527,1.411,1.181,1.403,1.96c-0.008,0.802-0.323,1.444-0.947,1.926C22.701,13.76,21.861,14,20.819,14
			c-0.426-0.008-0.848-0.05-1.266-0.126c-0.388-0.076-0.708-0.172-0.959-0.286l0.377-1.697c0.342,0.161,0.616,0.271,0.821,0.333
			c0.373,0.114,0.779,0.168,1.221,0.16c0.319-0.008,0.589-0.068,0.81-0.184c0.251-0.145,0.376-0.336,0.376-0.573
			c0.008-0.176-0.068-0.332-0.228-0.47c-0.145-0.138-0.415-0.302-0.811-0.493c-0.494-0.244-0.878-0.504-1.151-0.778
			c-0.396-0.39-0.59-0.833-0.582-1.33c0.008-0.749,0.323-1.364,0.947-1.846C21.006,6.236,21.812,6,22.793,6z M18.88,6.137
			l-1.643,7.737h-1.996l1.654-7.737H18.88z M16.028,6.137l-3.216,7.737h-2.11L9.117,7.696c-0.054-0.191-0.11-0.329-0.172-0.413
			C8.885,7.185,8.782,7.096,8.638,7.02c-0.456-0.252-1.11-0.47-1.962-0.653l0.046-0.229h3.398c0.213,0,0.407,0.069,0.582,0.207
			c0.175,0.146,0.285,0.34,0.331,0.584l0.844,4.481l2.064-5.272H16.028z"/>
	</g>
</g>
</svg>
