<svg role="img" aria-labelledby="pi-visa" width="38" height="24" viewBox="0 0 38 24" fill="none" xmlns="http://www.w3.org/2000/svg"><title id="pi-visa">Visa</title><path fill="#000" opacity=".07" d="M35 0H3C1.3 0 0 1.3 0 3v18c0 1.7 1.4 3 3 3h32c1.7 0 3-1.3 3-3V3c0-1.7-1.4-3-3-3z"/><path fill="#fff" d="M35 1c1.1 0 2 .9 2 2v18c0 1.1-.9 2-2 2H3c-1.1 0-2-.9-2-2V3c0-1.1.9-2 2-2h32"/><path fill-rule="evenodd" clip-rule="evenodd" d="M0 3C0 1.34315 1.34315 0 3 0H35C36.6569 0 38 1.34315 38 3V21C38 22.6569 36.6569 24 35 24H3C1.34315 24 0 22.6569 0 21V3Z" fill="#1434CB"/><path d="M18.7912 8.47799L17.1101 15.5999H15.077L16.7588 8.47799H18.7912ZM27.3451 13.0764L28.4152 10.4024L29.031 13.0764H27.3451ZM29.6136 15.5999H31.4939L29.8526 8.47799H28.117C27.7267 8.47799 27.3977 8.68384 27.2518 9.0005L24.2009 15.5999H26.3358L26.7597 14.5361H29.3681L29.6136 15.5999ZM24.3071 13.2746C24.3157 11.395 21.4388 11.2914 21.4586 10.4517C21.4647 10.1962 21.7332 9.92454 22.3209 9.85511C22.6122 9.82053 23.4149 9.79413 24.3253 10.1738L24.6823 8.66364C24.1932 8.50278 23.5638 8.34789 22.7806 8.34789C20.771 8.34789 19.3568 9.31599 19.3449 10.7021C19.3319 11.7274 20.3543 12.2995 21.1246 12.6402C21.917 12.9892 22.1828 13.2133 22.1798 13.5254C22.1742 14.0032 21.5478 14.2141 20.9625 14.2224C19.9406 14.2366 19.3476 13.9718 18.8748 13.7726L18.5064 15.3329C18.9814 15.5304 19.8582 15.7027 20.7674 15.7113C22.9033 15.7113 24.3005 14.7552 24.3071 13.2746M15.8863 8.47799L12.5923 15.5999H10.4432L8.82216 9.91629C8.72371 9.56616 8.63823 9.43798 8.33893 9.29053C7.85031 9.05024 7.04327 8.82491 6.33333 8.68498L6.38157 8.47799H9.84106C10.282 8.47799 10.6784 8.744 10.7785 9.20419L11.6346 13.3253L13.7505 8.47799H15.8863Z" fill="white"/></svg>
