<svg xmlns="http://www.w3.org/2000/svg" xmlns:xlink="http://www.w3.org/1999/xlink" width="38" height="24" fill="none" aria-labelledby="pi-visaelectron" role="img" viewBox="0 0 38 24"><title id="pi-visaelectron">Visa Electron</title><defs><path id="pi-visaelectron-b" fill="#fff" d="M0 0h38v24H0z"/></defs><g clip-path="url(#pi-visaelectron-a)"><use xlink:href="#pi-visaelectron-b"/><path fill="#F7B600" d="M0 20.54h38V24H0z"/><path fill="#1A1F71" d="M0 3.46h38V0H0zm18.24 3.11-1.9 9.03h-2.3l1.9-9.03zm9.7 5.83 1.2-3.39.7 3.4h-1.9Zm2.57 3.2h2.12l-1.86-9.03h-1.96c-.44 0-.82.27-.98.67l-3.46 8.36h2.42l.48-1.35h2.96zm-6.02-2.94c.01-2.39-3.25-2.52-3.22-3.58 0-.33.3-.67.97-.76a4.3 4.3 0 0 1 2.27.4l.4-1.91c-.55-.2-1.26-.4-2.15-.4-2.27 0-3.88 1.23-3.89 2.98-.01 1.3 1.15 2.03 2.02 2.46.9.44 1.2.73 1.2 1.12-.01.6-.72.88-1.39.89-1.15.02-1.83-.32-2.36-.57l-.42 1.98a6.9 6.9 0 0 0 2.56.47c2.42 0 4-1.2 4.01-3.08m-9.54-6.09-3.73 9.03H8.8L6.95 8.4c-.11-.45-.2-.6-.55-.8a9.6 9.6 0 0 0-2.27-.76l.06-.27H8.1c.5 0 .94.34 1.06.92l.97 5.23 2.4-6.15h2.41Zm6.25 11.52h-.94v.88h1.04v.27h-1.36v-2.45h1.31v.26h-1v.78h.94v.26Zm.59-1.43h.31v2.58h-.31zm2.03 1.53c0-.2-.08-.52-.43-.52-.33 0-.46.3-.49.52zm-.92.23c0 .43.27.6.6.6.22 0 .36-.03.47-.08l.06.22c-.11.06-.3.12-.58.12-.53 0-.85-.36-.85-.9 0-.52.3-.94.81-.94.57 0 .72.5.72.83l-.01.15zm2.94.76c-.08.04-.26.1-.5.1-.52 0-.86-.36-.86-.9s.37-.94.93-.94c.19 0 .36.05.44.1l-.07.24a.8.8 0 0 0-.37-.08c-.4 0-.6.3-.6.66 0 .4.25.66.6.66a.9.9 0 0 0 .38-.08zm.89-2.12v.42h.45v.24h-.45v.95c0 .22.06.34.24.34.08 0 .13 0 .18-.02l.01.24a.9.9 0 0 1-.28.05.45.45 0 0 1-.34-.14c-.08-.1-.12-.25-.12-.46v-.96h-.27v-.24h.27v-.33l.3-.1Zm.89.97-.01-.55h.27l.02.35c.09-.24.28-.39.5-.39h.08v.31h-.11c-.22 0-.38.16-.42.4l-.01.15v.94h-.32zm1.42.33c0 .39.22.68.53.68.3 0 .52-.29.52-.69 0-.3-.14-.67-.52-.67-.36 0-.53.35-.53.68m1.38-.02c0 .65-.45.94-.87.94-.46 0-.83-.35-.83-.9 0-.6.39-.94.86-.94.5 0 .84.37.84.9m.48-.39-.01-.47h.28l.01.29h.01a.64.64 0 0 1 .57-.33c.24 0 .62.15.62.75v1.05h-.32v-1.02c0-.28-.1-.52-.4-.52-.2 0-.37.15-.42.33a.5.5 0 0 0-.02.15v1.06h-.32z"/></g><defs><clipPath id="pi-visaelectron-a"><use xlink:href="#pi-visaelectron-b"/></clipPath></defs></svg>