<svg viewBox="0 0 38 24" xmlns="http://www.w3.org/2000/svg" role="img" width="38" height="24" aria-labelledby="pi-visa"><title id="pi-visa">Visa</title><g id="Capa_1"><path d="M35 0H3C1.3 0 0 1.3 0 3v18c0 1.7 1.4 3 3 3h32c1.7 0 3-1.3 3-3V3c0-1.7-1.4-3-3-3z" style="isolation:isolate" opacity=".07"/><path d="M35 1c1.1 0 2 .9 2 2v18c0 1.1-.9 2-2 2H3c-1.1 0-2-.9-2-2V3c0-1.1.9-2 2-2h32" fill="#fff"/></g><path d="M23.91 6.74c-2.31 0-4.37 1.2-4.37 3.4 0 2.53 3.65 2.71 3.65 3.98 0 .54-.61 1.02-1.66 1.02-1.49 0-2.6-.67-2.6-.67l-.48 2.23s1.28.57 2.98.57c2.52 0 4.5-1.25 4.5-3.5 0-2.68-3.67-2.85-3.67-4.03 0-.42.5-.88 1.55-.88 1.18 0 2.14.49 2.14.49l.47-2.15s-1.05-.45-2.52-.45zM2.82 6.9l-.06.32s.97.18 1.84.53c1.12.41 1.21.64 1.39 1.38l2.06 7.96h2.77L15.08 6.9h-2.76l-2.74 6.93-1.12-5.87c-.1-.67-.62-1.06-1.26-1.06H2.8zm13.39 0l-2.17 10.19h2.63L18.83 6.9H16.2zm14.68 0c-.63 0-.97.34-1.22.93l-3.86 9.26h2.76l.53-1.54h3.36l.32 1.54h2.44L33.09 6.9h-2.22zm.36 2.75l.82 3.82h-2.19l1.37-3.82z" fill="#1434cb" id="visa"/></svg>