<svg xmlns="http://www.w3.org/2000/svg" width="28" height="18" viewBox="0 0 28 18"><path fill="#F1F5F7" d="M-464-532.975h1107v1785.975h-1107z"/><g><path fill="#fff" d="M28 16.006c0 1.101-.893 1.994-1.994 1.994h-24.012c-1.101 0-1.994-.893-1.994-1.994v-14.012c0-1.101.893-1.994 1.994-1.994h24.011c1.102 0 1.995.893 1.995 1.994v14.012z"/><path opacity=".25" fill="#A7A9AC" d="M26.006 0h-24.012c-1.101 0-1.994.893-1.994 1.994v14.011c0 1.102.893 1.995 1.994 1.995h24.011c1.102 0 1.995-.893 1.995-1.994v-14.012c0-1.101-.893-1.994-1.994-1.994zm.994 15.116c0 1.041-.843 1.884-1.884 1.884h-22.232c-1.041 0-1.884-.843-1.884-1.884v-12.232c0-1.041.843-1.884 1.884-1.884h22.233c1.04 0 1.883.843 1.883 1.884v12.232z"/><g fill="#142688"><path d="M23 11.953l-.363.013-.786.002c-.075.001-.074-.027-.088-.097l-.124-.69c-.016-.089-.046-.114-.134-.114-.581.004-1.159.005-1.74-.001-.1-.001-.136.037-.165.124-.077.23-.16.458-.248.684l-.099.089c-.502.005-1.003.003-1.505.002l-.033-.014.141-.348 2.139-5.107c.154-.366.358-.488.754-.488h1.123c.091-.001.128.007.148.103.335 1.62.674 3.24 1.012 4.859l.065.899-.097.06v.024zm-2.085-4.23l-.027.037c-.265.731-.53 1.24-.797 2.24h1.282c-.154-1-.306-1.547-.458-2.277zM4 6h.236l2.493.004c.388.001.677.203.751.585.21 1.09.42 2.183.626 3.274l.039.172.058-.108c.505-1.277 1.011-2.642 1.512-3.92.032-.08.071-.001.156 0h1.5l-.046.115-2.29 5.474c-.052.124-.082.289-.178.353-.091.062-.254.018-.385.019l-1.099.003c-.101.002-.137-.032-.16-.124-.396-1.546-.8-3.089-1.191-4.636-.073-.286-.28-.481-.552-.6-.454-.198-.869-.344-1.47-.444v-.167zM13.375 11.746l.28-1.308.17.078c.493.231 1.012.34 1.555.286.177-.018.362-.073.519-.157.333-.179.367-.548.074-.786-.168-.136-.369-.232-.555-.347-.277-.171-.574-.318-.827-.518-.903-.713-.611-1.801-.099-2.33.405-.42.654-.655 1.223-.655.901 0 1.802-.046 2.274.113l.073.032-.269 1.255c-.355-.154-.713-.265-1.091-.271-.216-.003-.437.018-.649.062-.113.023-.226.102-.314.182-.168.153-.172.372-.009.528.111.106.241.195.374.274l.842.476c.396.247.722.565.801 1.05.114.699-.098 1.292-.647 1.749-.395.328-.585.44-1.085.51-1.013-.001-1.802 0-2.484-.162l-.156-.061zM13.587 6c-.172 1-.34 1.588-.507 2.373-.245 1.147-.492 2.295-.732 3.443-.025.121-.068.174-.192.171-.414-.009-.829.013-1.243.013h-.143c.062 0 .121-.588.18-.867.355-1.661.711-3.329 1.063-4.991.023-.109.059-.141.176-.139.414.009.829-.003 1.243-.003h.155z"/></g></g></svg>