<svg xmlns="http://www.w3.org/2000/svg" width="38" height="24" aria-labelledby="pi-visa" role="img" viewBox="0 0 38 24"><title id="pi-visa">Visa</title><path fill-opacity=".07" d="M38 2v20a2 2 0 0 1-2 2H2a2 2 0 0 1-2-2V2a2 2 0 0 1 2-2h34a2 2 0 0 1 2 2Z"/><path fill="#fff" d="M37 3v18a2 2 0 0 1-2 2H3a2 2 0 0 1-2-2V3a2 2 0 0 1 2-2h32a2 2 0 0 1 2 2Z"/><path fill="#1434cb" fill-rule="nonzero" d="m18.874 7.95-1.738 8.121h-2.101l1.738-8.121h2.101Zm8.839 5.244 1.106-3.05.636 3.05h-1.742Zm2.344 2.877H32L30.304 7.95H28.51a.957.957 0 0 0-.894.596l-3.152 7.525h2.206l.438-1.213h2.695l.254 1.213Zm-5.484-2.651c.009-2.144-2.964-2.262-2.943-3.219.006-.292.284-.601.891-.681.301-.039 1.13-.069 2.071.364l.369-1.722a5.631 5.631 0 0 0-1.965-.36c-2.077 0-3.538 1.104-3.55 2.684-.014 1.169 1.043 1.822 1.839 2.21.819.398 1.093.654 1.09 1.01-.006.545-.653.785-1.258.795-1.056.016-1.669-.286-2.157-.513l-.381 1.779c.491.225 1.397.422 2.337.431 2.207 0 3.651-1.09 3.657-2.778m-8.701-5.47-3.404 8.121h-2.221L8.572 9.59c-.102-.399-.19-.545-.499-.713-.505-.274-1.339-.531-2.073-.691l.05-.236h3.575c.455 0 .865.303.968.828l.885 4.7 2.187-5.528h2.207Z"/></svg>
