<svg width="38" height="24" role="img" viewBox="0 0 38 24" xmlns="http://www.w3.org/2000/svg" aria-labelledby="pi-vnm_lpm"><title id="pi-vnm_lpm">vnm_lpm</title><title>Layer 1</title><path opacity=".07" d="M35 0H3C1.3 0 0 1.3 0 3v18c0 1.7 1.4 3 3 3h32c1.7 0 3-1.3 3-3V3c0-1.7-1.4-3-3-3z" id="svg_1"/><path fill="#fefffc" d="M34.877.877c1.1 0 2 .9 2 2v18c0 1.1-.9 2-2 2h-32c-1.1 0-2-.9-2-2v-18c0-1.1.9-2 2-2h32" id="svg_2" stroke="null"/><g stroke="null"><g stroke="null" id="svg_5" fill-rule="evenodd"><path fill="#efec64" d="M6.236 7.193c-.057.043-.051.054.03.061.068.006.09-.005.11-.054.008-.02-.052-.024-.065-.004-.007.012-.011.01-.011-.008 0-.033-.013-.032-.064.005m-.312.068c.01.004.018.014.018.022 0 .008-.007.01-.015.005s-.015.003-.016.018c-.001.02-.005.016-.014-.01l-.011-.037-.002.04c-.001.032.007.043.036.05.038.01.092-.003.077-.018-.004-.005-.002-.025.005-.044.009-.023.008-.036 0-.036-.009 0-.015.008-.015.018 0 .014-.004.014-.018 0a.063.063 0 00-.041-.017c-.015.001-.017.004-.005.009m2.797.03c.015.01.033.02.04.02.007 0 .004-.01-.006-.02a.065.065 0 00-.04-.02c-.016 0-.014.005.006.02m-3.055.076c.01.016-.007.025-.039.02-.006 0-.018.012-.027.028-.019.036.01.036.043 0 .017-.02.019-.019.011.004-.005.015-.002.024.005.019.007-.005.017 0 .021.01s.006-.003.004-.03c-.002-.026-.01-.053-.016-.059-.007-.006-.008-.003-.002.008m3.293 0a.176.176 0 01.023.023c.005.007.013.002.018-.011.007-.017 0-.024-.022-.024-.018 0-.026.005-.019.012m-1.676.018c-.574.007-.605.009-.655.038a.615.615 0 01-.208.05l-.208.024a.231.231 0 00-.093.037.41.41 0 01-.157.047c-.072.01-.124.026-.138.042a.275.275 0 01-.155.06.203.203 0 00-.084.036.55.55 0 01-.127.057c-.04.013-.1.04-.132.062a.228.228 0 01-.083.039c-.014 0-.05.02-.082.044a.237.237 0 01-.073.045.396.396 0 00-.094.052.349.349 0 01-.099.052c-.012 0-.034.015-.049.034a.381.381 0 01-.094.07.33.33 0 00-.087.063c-.01.014-.028.027-.038.027-.01 0-.044.021-.073.048-.03.027-.073.063-.096.081-.173.138-.146.114-.319.282-.162.159-.287.29-.345.363a143.004 143.004 0 00-.136.17 5.075 5.075 0 00-.354.545.525.525 0 01-.051.085.258.258 0 00-.035.075.685.685 0 01-.06.122.705.705 0 00-.06.127.47.47 0 01-.039.091.704.704 0 00-.05.133.477.477 0 01-.05.124.21.21 0 00-.032.084c-.014.08-.044.196-.07.268-.012.033-.03.12-.04.193-.01.074-.032.181-.05.239-.046.146-.05 1.27-.006 1.369.015.032.037.133.049.223.02.143.051.271.097.392.008.02.014.05.014.069 0 .018.016.066.036.105a.77.77 0 01.053.148c.01.042.029.093.043.113a.47.47 0 01.046.104.715.715 0 00.06.134.602.602 0 01.052.105c.006.02.024.055.04.077.015.022.042.07.058.104a.988.988 0 00.063.112 4.706 4.706 0 00.673.86c.19.191.504.461.626.537a12.691 12.691 0 01.327.212c.016.01.068.038.115.062.047.023.094.05.104.058.01.008.049.027.086.04a.636.636 0 01.106.054.156.156 0 00.057.028c.01 0 .057.02.106.044.048.024.13.055.181.069.051.014.117.037.145.05.03.014.108.037.176.052a1 1 0 01.164.046.602.602 0 00.138.035l.339.052c.213.034.287.039.603.038.343 0 .409-.005.74-.058.053-.009.145-.022.205-.03a.715.715 0 00.156-.037c.026-.012.098-.033.16-.047a.945.945 0 00.163-.05c.029-.014.096-.037.15-.052a.658.658 0 00.131-.048.73.73 0 01.118-.05.46.46 0 00.106-.05.41.41 0 01.102-.045.28.28 0 00.086-.04.39.39 0 01.09-.051.367.367 0 00.09-.054.248.248 0 01.074-.044.402.402 0 00.084-.048.597.597 0 01.079-.054.626.626 0 00.067-.045.843.843 0 01.073-.051.956.956 0 00.104-.078.165.165 0 01.048-.035c.006 0 .033-.02.06-.045a6.454 6.454 0 00.436-.401l.098-.11c.134-.146.182-.206.28-.345.041-.057.087-.118.103-.135a.323.323 0 00.047-.079c.011-.025.025-.046.03-.046.007 0 .028-.032.047-.071a.707.707 0 01.067-.108c.017-.02.04-.06.05-.09a.327.327 0 01.04-.074.539.539 0 00.05-.102.42.42 0 01.052-.1.364.364 0 00.047-.107.47.47 0 01.044-.108.658.658 0 00.052-.134.88.88 0 01.052-.141c.01-.017.03-.09.044-.164.014-.074.038-.164.054-.2a1.24 1.24 0 00.05-.228c.012-.089.029-.175.038-.192.05-.092.055-1.101.007-1.256a2.045 2.045 0 01-.046-.246 1.332 1.332 0 00-.05-.238 1.022 1.022 0 01-.047-.171.805.805 0 00-.045-.162 1.002 1.002 0 01-.051-.149.386.386 0 00-.044-.113.463.463 0 01-.05-.118.467.467 0 00-.052-.118.259.259 0 01-.039-.086.308.308 0 00-.051-.102.32.32 0 01-.053-.099.17.17 0 00-.045-.077.231.231 0 01-.054-.086.282.282 0 00-.044-.081.354.354 0 01-.05-.079c-.018-.034-.038-.063-.044-.063-.006 0-.022-.022-.035-.048a2.163 2.163 0 00-.258-.33 7.89 7.89 0 01-.111-.128 3.446 3.446 0 00-.3-.303 9.268 9.268 0 01-.12-.108.239.239 0 00-.07-.05c-.008 0-.019-.013-.024-.029-.005-.015-.029-.036-.054-.047a.174.174 0 01-.068-.053c-.013-.02-.03-.035-.04-.036a.3.3 0 01-.083-.052.389.389 0 00-.1-.06.11.11 0 01-.054-.041.184.184 0 00-.08-.053.192.192 0 01-.075-.046.201.201 0 00-.082-.046.329.329 0 01-.1-.053.201.201 0 00-.083-.042.232.232 0 01-.09-.045.327.327 0 00-.115-.054.29.29 0 01-.108-.05.304.304 0 00-.137-.051.321.321 0 01-.133-.049c-.02-.02-.069-.035-.141-.045-.077-.011-.121-.026-.147-.049-.032-.029-.065-.036-.246-.05-.15-.013-.213-.024-.225-.04a.35.35 0 00-.153-.064c-.005.002-.28.007-.612.012m-1.925.086c.007.021.005.022-.011.007-.027-.024-.04-.023-.04.003 0 .012.008.018.017.012.009-.005.007.002-.004.016-.018.021-.016.026.018.04.047.017.083.005.085-.028 0-.013.004-.036.006-.051.005-.023.002-.024-.019-.008-.017.015-.02.015-.012.001.007-.012 0-.018-.02-.018-.022 0-.027.006-.02.026m-.234.119a7.732 7.732 0 00-.027.053c-.003.007.024.01.06.007.06-.004.064-.007.065-.05 0-.047-.012-.055-.052-.03-.014.01-.017.008-.01-.004.006-.01.005-.017-.003-.017-.007 0-.022.018-.033.04m4.318.003c0 .034.008.044.037.05.064.012.063-.028-.001-.07-.035-.023-.036-.023-.036.02m-4.497.07c0 .011-.007.021-.015.021-.009 0-.012.006-.008.014.005.007-.001.023-.013.035-.02.02-.014.022.047.02.062-.002.07-.006.08-.043.008-.028.006-.038-.005-.031-.01.006-.013.001-.007-.013.006-.017-.003-.023-.035-.023-.028-.001-.044.006-.044.02m2.77.02c.202.01.279.02.342.043.045.017.146.038.224.048.079.01.162.03.19.045a.675.675 0 00.159.049.646.646 0 01.165.053c.03.017.09.04.131.048.042.009.09.028.107.043a.354.354 0 00.107.05.342.342 0 01.109.05.273.273 0 00.09.047c.032.01.07.03.084.044a.329.329 0 00.093.053.23.23 0 01.086.053c.01.015.042.036.07.045.03.01.061.028.072.042a.21.21 0 00.063.047.692.692 0 01.104.07l.103.083c.023.018.069.059.1.09a.31.31 0 00.07.055c.015 0 .211.193.334.328.055.061.117.128.138.149.02.02.037.045.037.055 0 .01.013.027.03.038.035.025.173.21.186.25.005.016.016.029.024.029s.026.025.04.056c.014.03.04.07.058.088.018.018.04.06.049.093.008.033.029.067.045.076.017.009.038.048.052.095.013.044.033.084.044.089.012.004.033.046.046.094a.4.4 0 00.05.116.32.32 0 01.06.16.15.15 0 00.03.068c.017.022.038.08.047.13.009.049.033.125.053.17.023.05.044.14.058.242.012.09.03.18.042.203.073.14.073 1.285 0 1.458a1.288 1.288 0 00-.044.209.972.972 0 01-.053.215.617.617 0 00-.045.15.486.486 0 01-.068.196.596.596 0 00-.033.105.293.293 0 01-.045.104.38.38 0 00-.052.116c-.013.047-.034.09-.045.094-.012.004-.032.045-.047.09-.014.044-.037.087-.052.095-.015.008-.034.041-.043.074a.219.219 0 01-.044.085.414.414 0 00-.059.09c-.017.035-.038.063-.045.063-.007 0-.024.025-.039.056a.91.91 0 01-.163.213c-.02.02-.037.043-.037.05a.203.203 0 01-.049.061 3.62 3.62 0 00-.137.15 2.543 2.543 0 01-.324.318.339.339 0 00-.071.065c-.018.022-.039.04-.048.04-.008 0-.03.015-.049.033a.958.958 0 01-.212.159c-.035.017-.063.038-.063.045 0 .007-.03.027-.066.044a.249.249 0 00-.078.05.22.22 0 01-.08.047.318.318 0 00-.093.054.23.23 0 01-.085.046.27.27 0 00-.088.045.285.285 0 01-.101.045.33.33 0 00-.102.043.419.419 0 01-.162.066.271.271 0 00-.083.037.43.43 0 01-.135.045.724.724 0 00-.156.047.954.954 0 01-.208.052 1.79 1.79 0 00-.236.051c-.214.07-1.274.071-1.471 0a1.642 1.642 0 00-.235-.052.799.799 0 01-.189-.045.633.633 0 00-.15-.046.55.55 0 01-.21-.081.548.548 0 01-.196-.074c-.02-.017-.046-.03-.06-.03a.295.295 0 01-.147-.065.122.122 0 00-.058-.03.299.299 0 01-.085-.039.82.82 0 00-.142-.08 1.147 1.147 0 01-.193-.126.856.856 0 00-.09-.057.814.814 0 01-.177-.14.237.237 0 00-.057-.045c-.063-.022-.621-.577-.642-.639a.276.276 0 00-.044-.057 1.375 1.375 0 01-.157-.203l-.084-.127c-.09-.132-.104-.158-.104-.181a.068.068 0 00-.024-.044.364.364 0 01-.08-.153c0-.011-.011-.03-.024-.04a.299.299 0 01-.066-.143.231.231 0 00-.036-.076.503.503 0 01-.055-.13.407.407 0 00-.045-.112.55.55 0 01-.05-.152.73.73 0 00-.05-.163.692.692 0 01-.046-.191 1.282 1.282 0 00-.047-.22c-.07-.196-.07-1.27 0-1.466.016-.043.037-.142.047-.22a.687.687 0 01.046-.191.754.754 0 00.052-.172c.027-.139.038-.154.11-.16.045-.003.199.074.238.12a1.281 1.281 0 01.213.153.642.642 0 00.116.086c.008 0 .03.014.047.03.035.033.094.075.208.151.04.026.07.052.07.057 0 .006.018.018.04.028.037.017.103.067.212.16.03.026.068.051.084.056.125.04.171.191.09.292a.394.394 0 00-.036.112.857.857 0 01-.046.149.563.563 0 00-.06.212.58.58 0 01-.042.15.887.887 0 00-.054.167.66.66 0 01-.046.143.422.422 0 00-.038.105.518.518 0 01-.067.183.533.533 0 00-.043.133.84.84 0 01-.045.15.468.468 0 00-.052.172.296.296 0 01-.035.098.762.762 0 00-.055.147.741.741 0 01-.043.127c-.1.195-.078.32.037.219.084-.073.15-.123.21-.16.026-.016.089-.062.14-.101.05-.04.109-.08.13-.09a.214.214 0 00.067-.05c.015-.02.037-.034.05-.034.011 0 .036-.015.054-.034a.76.76 0 01.092-.075c.142-.098.166-.115.197-.144.018-.016.04-.03.047-.03.008 0 .05-.03.093-.067a.455.455 0 01.092-.067c.007 0 .03-.02.05-.045.02-.024.047-.044.058-.044.011 0 .028-.014.037-.03.009-.017.043-.041.075-.054.032-.013.059-.03.059-.038s.031-.029.07-.047a.607.607 0 00.1-.058c.062-.051.17-.128.204-.146a.347.347 0 00.074-.06c.077-.082.179-.077.29.016.04.032.08.06.09.06.01 0 .027.012.038.027.01.015.04.038.065.05a.256.256 0 01.066.049.4.4 0 00.089.061c.114.062.171.1.245.162l.103.087c.018.015.05.038.073.052.023.013.041.029.041.035 0 .007.027.025.059.042a.25.25 0 01.07.048c.007.01.03.028.051.039a.615.615 0 01.096.07c.031.029.065.051.074.051.01 0 .032.017.05.038.017.02.038.037.045.037.007 0 .046.027.085.06.04.032.079.06.087.06.008 0 .028.012.045.027.017.016.051.041.077.056.061.037.329.24.34.258.021.034.102.018.091-.018a5.087 5.087 0 01-.031-.126.939.939 0 00-.06-.166.348.348 0 01-.037-.106.555.555 0 00-.044-.133.831.831 0 01-.054-.166.39.39 0 00-.036-.112.764.764 0 01-.051-.15.644.644 0 00-.047-.136.714.714 0 01-.05-.142 1.796 1.796 0 00-.066-.196.486.486 0 01-.038-.132.36.36 0 00-.038-.117.903.903 0 01-.06-.202.656.656 0 00-.044-.162.58.58 0 01-.046-.135.98.98 0 00-.053-.164l-.03-.064.042-.05c.039-.045.079-.077.228-.18.029-.02.07-.05.09-.067.039-.033.088-.068.22-.157.042-.029.077-.06.077-.067 0-.008.01-.015.021-.015.022 0 .07-.035.258-.19a1.078 1.078 0 01.217-.15.825.825 0 01.077-.054c.069-.042.197-.133.276-.194.037-.029.087-.064.11-.078a.728.728 0 00.09-.066c.17-.147.26-.216.327-.249l.059-.028-.057-.024c-.05-.021-.194-.024-1.286-.023H6.905l-.042-.04c-.048-.046-.066-.096-.081-.221a.664.664 0 00-.045-.166.645.645 0 01-.044-.141.446.446 0 00-.046-.13.68.68 0 01-.057-.155 1.26 1.26 0 00-.058-.182.487.487 0 01-.039-.128.345.345 0 00-.037-.111.98.98 0 01-.06-.17.59.59 0 00-.045-.126.604.604 0 01-.044-.134.883.883 0 00-.054-.16c-.039-.077-.047-.213-.015-.242a.463.463 0 01.15-.039c.07-.01.167-.031.217-.048.136-.047.617-.065 1.109-.042m-2.98.064a.754.754 0 01-.017.084c-.004.016 0 .017.08.017.049 0 .06-.005.056-.026a.079.079 0 01.008-.047c.01-.015.008-.018-.004-.01-.01.005-.017.003-.017-.006 0-.012-.008-.012-.03 0-.02.01-.03.01-.03 0 0-.013-.042-.024-.045-.012m5.034.026c.012.008.016.015.009.015-.007 0-.005.01.005.023.01.012.027.022.036.022.009 0 .007-.007-.006-.015-.012-.008-.016-.015-.01-.015.008 0 .006-.01-.005-.022-.01-.013-.026-.023-.035-.022-.01 0-.007.006.006.014m-5.142.071c-.004.006.002.02.013.03.015.014.02.014.027 0 .005-.015.007-.015.008 0 0 .01-.012.025-.028.033-.046.025-.036.039.026.038.045 0 .056-.006.06-.032.007-.046-.085-.105-.106-.069m5.298.014a.459.459 0 01.006.053c.001.021.012.026.053.024.046-.004.051-.008.045-.04-.006-.037-.022-.064-.022-.038 0 .008-.013.014-.029.014s-.027-.006-.026-.013c.001-.008-.005-.017-.015-.02-.01-.004-.015.004-.012.02m-5.491.088c-.017.017-.013.039.005.028.009-.006.007.004-.003.021-.011.017-.025.031-.032.031-.007 0-.007.009-.001.019.007.012.002.011-.015-.002-.032-.027-.054-.007-.058.052-.005.058.112.068.12.01.003-.022.021-.038.056-.05.05-.016.061-.04.039-.088-.01-.024-.093-.04-.111-.02m1.371.053c.026.025.023.048-.02.14a.408.408 0 00-.037.122c0 .022-.02.082-.044.132a.812.812 0 00-.06.166.573.573 0 01-.043.131.582.582 0 00-.045.134.835.835 0 01-.05.156.948.948 0 00-.054.161.489.489 0 01-.047.13.567.567 0 00-.05.144.676.676 0 01-.043.14.442.442 0 00-.055.19c0 .068-.025.132-.06.154-.048.03-1.541.025-1.587-.005-.04-.027-.029-.102.027-.169a.415.415 0 00.056-.09c.01-.025.024-.046.03-.046.007 0 .031-.032.053-.07a.686.686 0 01.132-.174.264.264 0 00.054-.07c0-.034.565-.599.638-.638a.404.404 0 00.067-.05 1.25 1.25 0 01.292-.212.911.911 0 00.096-.068.362.362 0 01.1-.057c.03-.01.065-.03.078-.044a.24.24 0 01.088-.047.334.334 0 00.1-.052.324.324 0 01.107-.051.243.243 0 00.095-.047c.03-.033.153-.04.182-.01m4.424.065c-.028.034 0 .072.054.073.037 0 .043.006.043.045 0 .04.005.044.053.045.05.001.052.004.048.049-.003.048.068.073.093.032.02-.03-.01-.047-.038-.02-.016.013-.029.018-.029.009 0-.01.015-.027.032-.039.032-.022.031-.023-.018-.036-.028-.008-.049-.022-.047-.032.003-.01-.002-.014-.01-.008-.01.005-.016.001-.016-.008 0-.01-.009-.014-.02-.01-.019.007-.064-.046-.058-.068.002-.006-.008-.012-.023-.012-.022-.001-.021-.003.004-.014.016-.007.027-.014.022-.015-.045-.013-.074-.01-.09.01m-6.018.077c-.027.003-.048.019-.063.046-.022.044-.06.067-.084.052-.007-.004-.017.012-.022.037-.007.034-.018.046-.049.049-.032.004-.038.011-.036.046.002.032-.004.04-.028.04a.078.078 0 00-.052.027c-.012.014-.018.017-.012.007.005-.01.002-.019-.006-.019s-.017.022-.02.049c-.003.044-.008.048-.047.043-.038-.004-.042-.001-.034.028.01.037-.002.077-.02.066-.026-.016-.087.028-.092.066-.003.03-.013.038-.042.039-.03 0-.037.007-.037.037 0 .044-.017.059-.065.06-.025 0-.032.006-.026.023.005.013.003.019-.006.014-.008-.005-.015.004-.015.02 0 .02-.012.034-.037.04-.039.01-.053.042-.057.129-.002.042-.009.05-.047.056-.04.007-.044.014-.043.055.002.043-.002.048-.044.052-.045.005-.048.009-.06.09-.01.073-.018.086-.056.102-.044.018-.057.05-.024.064.014.006.014.008 0 .008-.012.001-.016.008-.011.017.005.008-.004.014-.02.014-.037 0-.065.034-.067.082-.002.02-.008.037-.014.038-.006 0-.01.016-.01.036 0 .022-.012.04-.03.045-.034.011-.046.04-.055.134-.006.061-.016.083-.054.116-.047.041-.048.044-.048.175 0 .14-.005.148-.086.136a.439.439 0 00-.01.14c0 .136-.002.14-.034.14-.054 0-.072.048-.069.184.003.118.001.124-.044.171l-.046.05v1.072c-.001 1.104 0 1.13.059 1.13.027 0 .029.01.029.14 0 .077.006.144.014.15.008.004.01.018.006.03-.011.029.02.066.056.066.027 0 .04.089.029.218-.003.036.035.08.067.08.013 0 .022.016.022.041.003.165.02.224.068.236.036.01.041.024.036.098-.003.055.024.102.06.102.022 0 .03.01.03.043 0 .025.005.048.013.053.008.005.01.019.006.03-.01.03.02.067.055.067.02 0 .029.014.032.049.004.04.012.05.05.055.041.007.044.012.047.08.003.096.012.114.056.114.037 0 .044.011.039.063-.003.025.004.029.058.032.014.001.026.024.031.058.005.031.022.065.036.076.021.015.023.022.008.032-.013.008-.016.006-.009-.006.006-.009.003-.017-.006-.017-.01 0-.015.009-.01.019.003.01.023.018.045.018.03 0 .04.007.041.03l.004.052c.001.013.02.025.042.027.03.004.042.015.05.048.009.043.052.07.081.052.009-.006.015.012.015.044 0 .048.004.053.042.053.034 0 .044.009.055.048.011.037.024.05.056.053.038.005.05.03.042.081 0 .006.018.011.042.011.036 0 .045.008.053.045.01.044.018.049.071.049.015 0 .026.01.026.024s.008.034.019.045c.015.016.014.018-.003.008-.013-.007-.017-.006-.011.004.005.008.027.015.048.015.046 0 .05.004.054.051.002.02.012.039.023.04l.047.006c.018.002.025.011.02.03-.01.036.023.07.066.07.024 0 .035.009.035.027 0 .033.028.063.06.063.013 0 .049.023.08.052.054.05.096.07.076.037-.006-.009.007-.008.029.002.02.01.038.026.038.036 0 .01.018.023.04.029.032.007.036.013.019.023-.017.01-.014.014.012.014.022 0 .039.013.048.038.016.043.078.071.138.063.034-.005.04 0 .04.027 0 .048.032.066.123.07.063.003.08.008.076.026-.012.053.02.069.147.073.026 0 .043.011.05.03.012.042.044.056.156.067.126.013.149.02.14.045-.008.02.038.056.064.051.066-.011.212.005.212.023 0 .03.042.068.077.068.023 0 .028-.007.022-.026-.007-.019-.002-.017.017.007l.026.033 1.265-.005c.697-.002 1.288-.005 1.315-.006.04-.002.052-.01.065-.047.016-.048.016-.048.157-.05.05 0 .074-.007.068-.017-.005-.009 0-.007.014.003.028.023.065-.012.051-.048-.009-.024.006-.028.09-.023.032.002.052-.006.063-.025.008-.015.016-.018.016-.008 0 .046.112.016.122-.034.004-.024.02-.03.09-.037.093-.008.102-.013.105-.056.002-.028.05-.044.167-.054.008-.001.016-.01.017-.02a.179.179 0 01.005-.03.056.056 0 00.002-.022c0-.006.025-.011.057-.011.09 0 .13-.021.14-.073.008-.038.014-.044.047-.038.045.008.127-.03.127-.06 0-.01.02-.027.046-.036.025-.009.05-.03.053-.046.005-.016.03-.036.059-.046.028-.009.051-.023.052-.03l.004-.033c0-.01.023-.02.05-.023.037-.003.048-.012.056-.046.006-.031.02-.045.051-.05.033-.007.042-.017.042-.048 0-.048.005-.053.058-.058.033-.004.043-.013.043-.04 0-.027.01-.037.037-.041.043-.006.059-.026.059-.073 0-.025.01-.034.034-.034.047 0 .074-.02.068-.053-.004-.02.006-.03.04-.036.037-.006.045-.015.049-.055.004-.041.01-.048.052-.052.037-.004.046-.011.043-.032-.006-.037.022-.068.055-.06.022.006.03-.004.041-.05.013-.05.019-.056.055-.051.034.004.041-.002.05-.041.004-.026.018-.046.03-.046.011 0 .017-.007.011-.016-.006-.01 0-.014.016-.011.018.003.028-.007.032-.033.003-.02.013-.04.02-.042.01-.003.009-.015-.003-.03-.017-.022-.016-.022.01 0 .042.035.083.012.057-.03-.015-.024-.014-.033.004-.047.012-.01.02-.026.02-.035-.005-.043.004-.054.046-.054.037 0 .044-.006.044-.036 0-.06.015-.08.05-.073.018.004.026.002.017-.005a.07.07 0 01-.019-.034c-.004-.018-.001-.018.021 0 .023.02.025.018.017-.012-.004-.018-.002-.034.006-.034s.013-.008.012-.018c-.007-.05.003-.068.045-.076.045-.009.045-.01.045-.106 0-.076.004-.095.02-.088.012.004.026 0 .032-.009a.02.02 0 01.026-.006c.01.007.013.002.007-.014-.005-.014-.004-.025.002-.025.007 0 .014-.031.015-.07.003-.067.023-.1.052-.083.026.016.04-.035.04-.16v-.129l.044.007c.055.008.064-.022.057-.18-.004-.085 0-.11.014-.104.01.004.028 0 .039-.009.01-.009.023-.012.028-.007a.402.402 0 00.009-.126l-.001-.133-.047.007c-.062.01-.061.009-.063.106-.003.153-.003.151-.044.151-.044 0-.047.007-.058.134-.006.069-.016.103-.034.115-.054.038-.064.052-.064.092 0 .065-.028.132-.06.14-.016.005-.029.02-.029.035 0 .066-.032.141-.066.154-.025.01-.037.03-.044.073a.203.203 0 01-.054.106c-.024.025-.044.06-.044.076 0 .017-.02.05-.044.074a.246.246 0 00-.054.077.22.22 0 01-.053.074c-.024.022-.043.05-.043.06 0 .012-.02.04-.043.062a.303.303 0 00-.061.083.212.212 0 01-.06.073c-.025.018-.044.042-.044.054 0 .012-.014.028-.03.037a.16.16 0 00-.052.06c-.012.023-.035.046-.05.051-.016.005-.037.029-.047.053-.01.024-.03.048-.046.053-.016.004-.028.014-.028.02 0 .018-.054.076-.07.076-.008 0-.029.02-.047.045-.018.024-.04.044-.049.044-.008 0-.037.022-.064.049a2.482 2.482 0 01-.11.103.932.932 0 01-.133.116c-.01 0-.18.125-.221.162a.212.212 0 01-.064.039.196.196 0 00-.066.044.28.28 0 01-.085.053.34.34 0 00-.089.053.214.214 0 01-.077.042.247.247 0 00-.082.044.35.35 0 01-.097.053.51.51 0 00-.105.052.322.322 0 01-.108.044.27.27 0 00-.1.04.444.444 0 01-.122.05.711.711 0 00-.146.059.46.46 0 01-.153.047.656.656 0 00-.156.039c-.036.016-.15.042-.252.059a1.356 1.356 0 00-.202.041c-.054.04-.161.047-.763.047-.615 0-.737-.008-.83-.05a.612.612 0 00-.15-.032 1.065 1.065 0 01-.297-.067.65.65 0 00-.132-.036.856.856 0 01-.186-.061.322.322 0 00-.095-.037c-.035 0-.146-.045-.146-.06 0-.005-.041-.022-.092-.036a.509.509 0 01-.14-.062.271.271 0 00-.09-.044.235.235 0 01-.089-.046.225.225 0 00-.083-.045.173.173 0 01-.07-.037.58.58 0 00-.106-.066c-.04-.02-.074-.043-.074-.05 0-.007-.025-.023-.056-.037a1.038 1.038 0 01-.22-.156.38.38 0 00-.063-.044.425.425 0 01-.07-.05 7.258 7.258 0 00-.106-.093c-.1-.085-.45-.435-.513-.51a2.134 2.134 0 00-.093-.107c-.022-.024-.04-.05-.04-.057 0-.008-.011-.024-.024-.034a1.377 1.377 0 01-.184-.25.257.257 0 00-.046-.07.273.273 0 01-.046-.071.553.553 0 00-.058-.092.19.19 0 01-.035-.07.258.258 0 00-.048-.085.311.311 0 01-.053-.098.294.294 0 00-.049-.093.254.254 0 01-.045-.094.46.46 0 00-.054-.12.287.287 0 01-.044-.095c0-.038-.032-.142-.044-.142-.013 0-.04-.086-.061-.2a.396.396 0 00-.047-.13c-.021-.028-.034-.076-.041-.157a.668.668 0 00-.043-.186c-.081-.178-.093-1.764-.013-1.854a.6.6 0 00.045-.204c.017-.133.029-.183.048-.197.016-.011.035-.066.052-.152a.508.508 0 01.05-.158.375.375 0 00.041-.135c.013-.077.026-.113.043-.119.013-.004.036-.046.052-.093a.355.355 0 01.051-.108.346.346 0 00.05-.108c.016-.048.037-.09.049-.095.011-.004.025-.03.03-.059.005-.028.016-.054.023-.059.007-.004.013-.02.013-.035 0-.015.012-.03.027-.034.016-.004.034-.033.045-.07a.236.236 0 01.055-.093c.02-.017.04-.05.045-.074a.118.118 0 01.035-.061.322.322 0 00.06-.078.31.31 0 01.061-.078.162.162 0 00.044-.07c.01-.029.03-.056.044-.06.015-.005.033-.03.04-.057.01-.032.025-.05.046-.053a.053.053 0 00.04-.037.353.353 0 01.076-.1c.037-.036.076-.076.086-.087.01-.011.037-.038.06-.059.022-.021.04-.046.04-.055 0-.01.017-.026.037-.037.024-.012.038-.033.038-.054 0-.02.005-.034.01-.032.017.005.083-.034.074-.043-.015-.015.076-.08.113-.08.028 0 .04-.009.045-.037.01-.054-.019-.067-.127-.054m6.319.222c-.002.037.004.048.024.048.029 0 .068-.069.047-.082-.024-.015-.04.007-.033.042.006.022.004.028-.007.018a.108.108 0 01-.023-.044c-.004-.02-.007-.013-.008.018m.31.263c0 .028.025.044.038.024.005-.008.001-.015-.008-.015-.009 0-.012-.007-.007-.015s.002-.015-.007-.015c-.008 0-.016.01-.016.021m.065.12c.003.058.005.06.054.06.048.002.051.005.052.053 0 .047.004.051.046.05.042-.002.045 0 .04.046-.006.047.05.082.09.057.019-.012.012-.08-.008-.076-.01.002-.017-.004-.015-.013.002-.01-.024-.022-.058-.028-.037-.006-.054-.015-.043-.022.025-.015-.009-.07-.048-.08-.018-.005-.024-.014-.017-.026.008-.013.004-.015-.014-.009-.016.006-.024.002-.024-.011 0-.012-.007-.025-.015-.03-.009-.005-.011 0-.006.014.014.037-.009.027-.024-.01-.011-.028-.013-.023-.01.026m.29.286c-.023.108.028.191.088.143.025-.02.024-.02-.01-.012-.025.006-.031.004-.019-.005.012-.007.015-.024.009-.04-.007-.02-.005-.024.007-.017.026.017.021-.044-.006-.072-.031-.03-.061-.03-.068.003m.113.164c.02.014.027.05.01.045-.015-.004-.017.002-.017.042 0 .017.01.022.03.017.044-.012.065.027.061.115l-.004.08.048-.01c.035-.008.05-.02.053-.045.003-.018 0-.03-.006-.027-.006.004-.01-.017-.01-.047 0-.043-.006-.054-.027-.053-.014.001-.022-.004-.017-.01.004-.008-.002-.014-.014-.014-.014 0-.025-.017-.027-.041-.003-.022-.013-.041-.022-.041a.046.046 0 01-.029-.011.044.044 0 00-.027-.011c-.01 0-.011.004-.002.011m.184.297c-.016.004-.022.015-.016.03a.503.503 0 01.017.13c.002.023.005.025.015.01.007-.01.018-.02.025-.02.008 0 .012-.006.01-.013-.002-.007.004-.013.013-.013.01 0 .013-.014.009-.03-.005-.017-.002-.026.005-.022.016.01.011-.036-.006-.064-.012-.019-.026-.02-.072-.008m.075.164a.082.082 0 00.002.027l.009.071c.007.075.05.13.05.064 0-.013.011-.018.03-.013.022.005.027 0 .022-.028-.015-.097-.025-.115-.055-.09-.02.016-.063-.015-.045-.033.005-.005.004-.009-.001-.009s-.01.005-.012.011m.113.226c-.035.034.01.195.053.195.04 0 .057-.135.024-.178-.013-.017-.012-.018.004-.009.014.009.018.008.01-.004-.01-.016-.076-.019-.091-.004m.097.345c0 .07.003.075.031.066.017-.006.04-.002.05.007.023.018.026-.066.004-.1-.006-.01-.006-.019 0-.019.024 0-.033-.029-.058-.03-.022 0-.027.014-.027.076m.118.234a.085.085 0 000 .022c0 .006-.005.011-.012.011-.008 0-.01.025-.007.055.007.06.02.083.031.053.004-.01.014-.019.022-.019.007 0 .01.006.006.014-.005.007.003.022.018.033.023.018.023.018.006-.004-.012-.016-.014-.028-.004-.034.022-.014.013-.1-.01-.091-.011.004-.019-.005-.019-.022 0-.028-.027-.043-.031-.018m.095.385c-.013.006-.019.047-.019.137 0 .07.005.122.012.114.005-.008.02-.015.033-.015.012 0 .024-.013.027-.03.003-.016.014-.034.023-.04.012-.008.01-.011-.004-.012-.016 0-.017-.004-.001-.023.015-.018.013-.029-.016-.06-.019-.02-.028-.036-.02-.036.007 0 .003-.007-.01-.016-.017-.012-.013-.013.014-.006.024.007.032.005.025-.006-.01-.017-.033-.02-.064-.007m.038 1.91c-.022.008-.043.01-.047.006-.004-.004-.012.014-.018.04-.012.06.005.238.024.238.026 0 .036-.007.031-.022-.002-.008.008-.003.024.011.024.022.028.023.028.004 0-.013-.006-.023-.013-.023-.007 0-.008-.008-.001-.018a.483.483 0 00.012-.134v-.114l-.04.013m-9.303 1.012c.012.024.011.028-.007.021-.013-.005-.023-.018-.023-.03 0-.028.011-.025.03.01" id="svg_10"/><path fill="#dc231c" d="M7.05 7.743a.4.4 0 00-.097.022c-.035.022-.14.037-.354.05l-.214.014-.052.051c-.043.044-.049.057-.036.082a.76.76 0 01.037.132.692.692 0 00.051.155.612.612 0 01.048.14c.01.05.031.106.046.127.015.02.037.085.05.143a.693.693 0 00.05.156.648.648 0 01.048.156c.01.057.032.121.048.142.015.021.038.081.05.134.011.053.034.12.05.148.015.029.038.11.05.182a.658.658 0 00.064.205l.043.076 1.224-.001c.673 0 1.234-.005 1.247-.01.154-.058.217.105.07.18a.456.456 0 00-.105.074c-.02.021-.045.039-.056.039-.017 0-.071.045-.17.141-.02.02-.045.037-.055.037-.01 0-.04.021-.067.047a.489.489 0 01-.088.067.38.38 0 00-.078.058c-.02.02-.046.037-.058.037-.012 0-.032.017-.046.037-.013.02-.032.037-.043.037a.289.289 0 00-.084.053.385.385 0 01-.104.062.21.21 0 00-.077.048.892.892 0 01-.184.146.215.215 0 00-.066.052.193.193 0 01-.07.05c-.028.012-.05.028-.05.036 0 .008-.022.025-.05.039a.7.7 0 00-.106.075.25.25 0 01-.075.05c-.008 0-.034.02-.058.044-.023.025-.05.045-.062.045-.011 0-.029.012-.04.027a.265.265 0 01-.064.055c-.085.052-.156.13-.143.155.007.013.02.065.031.117.01.05.024.093.03.093.015 0 .04.085.068.227.014.071.03.13.037.13.01 0 .017.024.062.204a.771.771 0 00.05.133c.02.039.036.09.036.116 0 .025.018.082.038.127.02.044.045.111.053.149a.854.854 0 00.052.146.77.77 0 01.05.152c.009.042.032.11.053.155a.4.4 0 01.037.109c0 .042.027.12.069.2.02.038.035.089.035.113 0 .025.02.082.045.128.08.149.041.3-.056.22a.38.38 0 00-.08-.048.159.159 0 01-.064-.051c-.013-.02-.033-.036-.043-.036a.232.232 0 01-.078-.05.7.7 0 00-.105-.074c-.026-.013-.05-.035-.055-.047-.005-.013-.02-.023-.032-.023s-.044-.019-.07-.041a1.274 1.274 0 00-.113-.083c-.035-.022-.063-.046-.063-.054 0-.007-.015-.018-.034-.024a.318.318 0 01-.08-.05 2.53 2.53 0 00-.147-.105 1.082 1.082 0 01-.13-.1c-.017-.02-.04-.034-.051-.034-.011 0-.041-.02-.067-.045a.232.232 0 00-.057-.045.882.882 0 01-.113-.09 1.155 1.155 0 00-.161-.12.424.424 0 01-.08-.053.303.303 0 00-.08-.044c-.031-.013-.057-.03-.057-.037 0-.007-.029-.03-.064-.052a.285.285 0 01-.068-.053.202.202 0 00-.063-.042.456.456 0 01-.096-.068.122.122 0 00-.17.008.258.258 0 01-.07.05.174.174 0 00-.06.046.242.242 0 01-.074.053c-.034.017-.066.042-.07.054-.006.012-.033.032-.063.044a.699.699 0 00-.114.067.257.257 0 01-.08.044c-.01 0-.028.012-.039.027a.224.224 0 01-.067.053c-.027.014-.049.033-.05.043 0 .01-.028.037-.063.06-.086.055-.16.109-.202.145a.5.5 0 01-.078.053c-.024.012-.043.028-.043.036 0 .008-.028.028-.062.046a.565.565 0 00-.108.074c-.025.024-.057.043-.07.043-.015 0-.03.013-.034.027-.005.015-.04.042-.076.06-.037.018-.067.038-.067.045 0 .007-.025.025-.056.041a.43.43 0 00-.095.07c-.022.022-.05.04-.062.04-.013 0-.032.012-.043.027a.31.31 0 01-.072.06.448.448 0 00-.082.063.282.282 0 01-.073.053c-.025.012-.062.03-.082.042-.08.047-.126-.071-.064-.166a.643.643 0 00.052-.143.456.456 0 01.048-.128.462.462 0 00.046-.133.717.717 0 01.053-.158.508.508 0 00.044-.136.524.524 0 01.046-.138.484.484 0 00.043-.127.636.636 0 01.051-.145.836.836 0 00.06-.178.423.423 0 01.045-.133.278.278 0 00.037-.106.864.864 0 01.065-.223.773.773 0 00.038-.146.772.772 0 01.053-.172.424.424 0 00.037-.106c0-.037.033-.143.055-.176.018-.027-.077-.14-.12-.142a.35.35 0 01-.077-.057 1.006 1.006 0 00-.205-.154c-.022-.01-.04-.023-.04-.03 0-.01-.035-.036-.228-.164a.296.296 0 01-.072-.063c-.008-.013-.022-.024-.033-.024-.02 0-.166-.113-.229-.175-.018-.018-.043-.034-.054-.034-.012 0-.042-.016-.066-.037a.178.178 0 00-.059-.037c-.008 0-.022-.01-.032-.021-.037-.045-.135.09-.135.184 0 .08-.032.2-.064.237-.014.016-.025.078-.031.18-.014.208-.035.35-.066.432-.02.055-.025.122-.025.358s.005.303.025.357c.03.082.052.224.066.432.006.102.017.165.031.181a.479.479 0 01.064.237c0 .055.009.082.039.117a.297.297 0 01.055.146c.01.056.026.106.037.113.026.016.063.102.063.147 0 .019.017.054.037.078.02.024.045.07.055.104.01.033.036.083.06.11.022.027.041.065.041.084 0 .02.014.046.031.058.038.026.073.09.073.132a.04.04 0 00.029.037c.016.004.037.028.048.054.01.026.041.07.068.096.027.027.05.06.05.075 0 .014.02.041.044.06.024.02.044.048.044.064 0 .017.016.034.038.043.02.008.045.03.053.05.01.02.033.043.052.052a.09.09 0 01.044.052c.005.02.025.043.044.051.02.009.04.03.045.047.005.017.029.04.052.053.023.012.047.035.052.052.005.016.019.03.03.03.01 0 .036.019.055.043.019.023.05.05.068.06.02.01.04.034.048.054.008.021.026.036.043.036.015 0 .044.02.063.045.02.024.047.044.061.045.014 0 .048.022.075.049.026.026.07.057.096.068.027.01.052.031.056.045.004.014.038.034.074.044a.178.178 0 01.09.056.076.076 0 00.06.035c.02 0 .058.02.085.042.027.023.076.05.11.06.033.01.08.034.104.055.024.02.059.037.077.037.045 0 .131.037.147.062.007.012.058.029.113.038.07.011.115.028.147.055a.151.151 0 00.112.039c.089 0 .2.027.237.059.023.02.083.03.262.043.168.012.258.026.32.05.133.048.634.05.787 0a2.29 2.29 0 01.495-.063c.044 0 .075-.01.096-.029.035-.032.146-.06.24-.06.045 0 .071-.01.101-.039.03-.028.068-.043.149-.056.06-.01.111-.027.115-.037.008-.024.1-.062.151-.062a.115.115 0 00.075-.037.236.236 0 01.096-.054.268.268 0 00.09-.042c.042-.038.09-.06.126-.06.016 0 .037-.014.046-.03.018-.034.09-.075.131-.075.017 0 .032-.013.037-.03.004-.016.032-.04.062-.052.03-.013.058-.033.062-.045.005-.012.037-.035.072-.051a.244.244 0 00.088-.067c.015-.023.039-.038.06-.038.025 0 .038-.01.044-.035.005-.02.028-.043.053-.054.025-.01.049-.03.054-.046.005-.016.028-.039.051-.05.024-.013.047-.035.051-.049.005-.014.029-.038.054-.052.024-.014.044-.034.044-.045 0-.01.02-.031.045-.046.025-.015.045-.036.045-.049 0-.012.019-.033.042-.046a.153.153 0 00.058-.066c.01-.028.027-.042.047-.042.021 0 .031-.01.031-.03 0-.016.022-.05.05-.078a.37.37 0 00.068-.097c.01-.026.032-.052.047-.056.016-.005.034-.03.04-.057.007-.026.027-.054.044-.061.02-.009.036-.034.041-.063a.236.236 0 01.053-.095.293.293 0 00.059-.103.203.203 0 01.045-.082.205.205 0 00.045-.084.306.306 0 01.05-.098.248.248 0 00.045-.094c.016-.078.039-.13.061-.14.012-.004.025-.033.03-.064a.465.465 0 01.066-.205c.017-.02.031-.075.042-.162.011-.098.024-.144.05-.178.029-.04.035-.073.045-.218.013-.21.032-.335.064-.41.037-.089.033-.613-.005-.715a2.329 2.329 0 01-.065-.492.244.244 0 00-.037-.134.611.611 0 01-.063-.268c0-.03-.01-.052-.023-.057-.028-.01-.05-.068-.068-.173-.008-.052-.024-.09-.043-.107-.019-.015-.037-.058-.048-.11a.26.26 0 00-.05-.118.26.26 0 01-.052-.098c-.01-.036-.03-.074-.046-.085-.015-.01-.035-.049-.044-.085-.01-.036-.026-.069-.037-.073-.023-.009-.08-.116-.08-.15a.023.023 0 00-.024-.023c-.014 0-.034-.025-.047-.059-.013-.033-.034-.063-.048-.067-.013-.004-.037-.033-.053-.063a.437.437 0 00-.07-.097c-.023-.022-.042-.053-.042-.07 0-.021-.01-.03-.03-.03-.02 0-.038-.017-.052-.051-.011-.028-.034-.054-.05-.058-.018-.005-.037-.024-.045-.043a.128.128 0 00-.052-.056c-.021-.012-.039-.028-.039-.035a.717.717 0 00-.165-.16c-.007 0-.023-.02-.036-.045-.013-.025-.035-.044-.051-.044-.017 0-.036-.018-.048-.045-.013-.03-.03-.045-.053-.045-.02 0-.044-.016-.058-.038a.264.264 0 00-.086-.069.234.234 0 01-.073-.051.168.168 0 00-.065-.043c-.029-.012-.056-.034-.06-.049-.004-.017-.03-.033-.072-.044a.158.158 0 01-.09-.055c-.014-.022-.039-.038-.058-.038a.284.284 0 01-.106-.052.283.283 0 00-.106-.052c-.018 0-.056-.02-.084-.045-.03-.025-.068-.044-.09-.044a.25.25 0 01-.151-.07c-.009-.013-.056-.027-.104-.033-.093-.011-.138-.029-.17-.068-.013-.015-.045-.023-.097-.023-.091 0-.208-.032-.247-.067-.022-.02-.074-.028-.24-.038a1.939 1.939 0 01-.295-.036 2.052 2.052 0 00-.71-.037m-1.43.364a.28.28 0 00-.093.04c-.042.037-.084.057-.118.057-.016 0-.057.024-.091.052-.035.029-.078.052-.096.052-.018 0-.047.016-.064.036a.224.224 0 01-.084.053.297.297 0 00-.098.061c-.024.024-.053.044-.066.044-.013 0-.03.014-.04.031a.2.2 0 01-.08.06.24.24 0 00-.089.065c-.013.02-.037.037-.053.037s-.037.018-.048.041c-.01.023-.033.043-.05.046-.016.002-.04.024-.055.05-.014.024-.04.048-.055.053a.06.06 0 00-.039.036c-.005.015-.028.038-.052.05-.024.013-.044.033-.044.046 0 .012-.019.033-.042.046a.17.17 0 00-.06.067c-.011.023-.03.042-.045.042-.014 0-.032.019-.042.044a.112.112 0 01-.055.06c-.023.008-.039.026-.039.043 0 .016-.02.044-.044.061-.025.018-.045.045-.045.06 0 .016-.022.05-.05.077a.356.356 0 00-.068.096c-.01.026-.03.05-.043.054-.035.01-.068.122-.047.16.015.028.04.03.7.033l.686.004.046-.048c.039-.04.05-.067.066-.168a.915.915 0 01.055-.198.656.656 0 00.046-.144.44.44 0 01.047-.13.53.53 0 00.051-.14.69.69 0 01.046-.143.844.844 0 00.05-.159.764.764 0 01.051-.155.666.666 0 00.047-.13.9.9 0 01.05-.146c.075-.163.06-.223-.047-.196" id="svg_9"/><path fill="#040404" d="M14.4 8.271v.142h.044c.043 0 .045.001.045.072 0 .153.014.208.057.213.037.005.04.01.044.098.004.09.006.094.048.103.041.008.043.012.047.1.005.09.005.091.052.096l.048.004.005.137c.004.136.004.137.044.142.038.004.04.008.045.096.004.092.004.093.052.097l.048.005.004.136c.004.131.006.136.042.145.033.008.037.017.041.09.006.092.022.118.072.118.035 0 .035.004.035.124 0 .127.013.16.063.16.022 0 .027.012.027.062 0 .105.013.13.061.13.043 0 .043 0 .043.097v.097h.045c.042 0 .044.003.045.064 0 .138-.02.13.299.13h.281v-.045c0-.038.007-.047.043-.054.053-.01.06-.035.061-.18v-.108h.09v-.192l.048-.005.048-.004.005-.138.004-.138h.088v-.097c0-.09.002-.096.034-.097.056 0 .069-.019.073-.11.005-.081.008-.09.042-.098.036-.008.037-.013.042-.146l.004-.137h.103v-.193h.089v-.281l.049-.005c.048-.005.048-.005.053-.096.004-.088.006-.092.048-.1.043-.009.044-.011.044-.098 0-.085.002-.09.04-.1.06-.014.064-.026.064-.21V8.13h-.58v.096c0 .097 0 .097-.043.097-.05 0-.062.034-.062.187 0 .092 0 .094-.04.099-.04.004-.042.009-.046.096-.004.087-.006.092-.046.1-.046.009-.061.063-.061.22 0 .07-.001.072-.045.072h-.045v.096c0 .094 0 .096-.04.1-.046.006-.061.055-.063.2 0 .073-.003.078-.046.086l-.044.009v.284h-.043c-.051 0-.061.02-.061.12 0 .06-.005.073-.027.073a.073.073 0 00-.045.018c-.014.014-.018.014-.018 0 0-.01-.021-.018-.051-.018h-.052l-.004-.145-.004-.145-.041-.005c-.041-.004-.041-.005-.041-.116 0-.13-.016-.17-.068-.17-.035 0-.037-.003-.037-.096V9.29h-.088l-.004-.138-.004-.137L15.312 9c-.046-.013-.048-.017-.052-.104-.004-.085-.007-.09-.045-.095-.04-.004-.04-.005-.045-.141l-.004-.137-.048-.004-.048-.005-.004-.136c-.004-.132-.005-.137-.041-.145-.03-.007-.039-.02-.042-.057l-.005-.047H14.4v.141m3.012 1.254l.003 1.396.28.004.279.004v-2.8h-.566l.004 1.396m1.057 0l.004 1.396 1.093.004c.691.003 1.099-.001 1.108-.01.023-.024.032-.324.01-.35-.016-.02-.125-.023-.829-.023h-.81v-.864h.751c.413 0 .762-.004.775-.009.02-.008.023-.039.023-.193V9.29h-1.548v-.774h.803c.441 0 .813-.004.826-.01.024-.009.036-.298.014-.354-.008-.021-.12-.023-1.116-.023h-1.108l.004 1.395m2.426-1.206l.005.19.48.004.48.004v2.412l.279-.004.279-.004.01-.044c.005-.025.01-.566.01-1.203l.003-1.157h.863V8.13H20.89l.004.19m2.8 1.205l.004 1.396h.476l.004-.912.004-.912h.044c.04 0 .045.006.045.043 0 .096.016.133.061.142.036.007.043.015.043.053 0 .04.005.045.044.045.038 0 .044.006.048.049.004.042.01.049.053.053.047.004.047.005.052.096.004.089.006.093.045.097.034.004.041.012.041.049 0 .04.005.043.051.043h.052l.004.094c.005.089.006.093.046.097.03.004.04.013.04.038 0 .043.027.07.07.07.029 0 .035.007.035.044 0 .04.005.045.044.045.044 0 .045.001.045.073 0 .1.01.12.06.12.037 0 .043.006.047.049.004.04.012.049.044.052.036.005.04.012.049.092.01.081.013.087.054.095.037.008.044.016.044.054 0 .04.005.045.044.045.038 0 .044.006.048.049.004.042.01.049.053.053.043.004.049.01.049.048v.044h.476v-2.8h-.476V9.97l-.052-.006-.051-.006-.005-.092c-.004-.087-.006-.091-.045-.096-.034-.004-.041-.012-.041-.048 0-.04-.004-.044-.051-.044h-.052l-.004-.093c-.004-.09-.006-.093-.046-.098-.03-.003-.04-.013-.04-.038 0-.042-.027-.069-.07-.069-.029 0-.035-.008-.035-.044 0-.04-.005-.045-.044-.045-.043 0-.044 0-.048-.093-.005-.093-.005-.093-.053-.098-.044-.004-.048-.009-.048-.056s-.004-.05-.045-.05c-.04 0-.045-.006-.045-.044 0-.095-.016-.132-.06-.141-.037-.007-.044-.016-.044-.054 0-.04-.005-.045-.042-.045-.04 0-.043-.004-.056-.093-.013-.086-.016-.093-.055-.098-.034-.003-.04-.011-.04-.048 0-.037-.008-.046-.045-.053-.037-.008-.045-.016-.045-.052 0-.039-.005-.043-.051-.043h-.052l-.004-.093-.005-.093-.286-.004-.287-.004.004 1.396m3.684-1.385c-.006.005-.01.024-.01.042 0 .025-.011.035-.044.042-.043.009-.044.012-.048.102-.005.089-.007.094-.044.098-.043.005-.058.06-.058.214 0 .07 0 .072-.044.072h-.045v.096c0 .093-.001.096-.04.1-.047.006-.062.055-.063.202-.001.072-.004.077-.042.081-.04.005-.041.01-.046.097-.004.086-.006.091-.046.1-.051.01-.06.038-.06.184v.108h-.09v.194h-.043c-.051 0-.061.02-.061.12 0 .06-.005.073-.027.073-.05 0-.063.032-.063.16 0 .119 0 .123-.034.123-.052 0-.07.029-.07.113 0 .074-.002.077-.045.086l-.044.009v.373h.281c.317 0 .3.007.3-.12 0-.067.002-.072.04-.077.04-.004.042-.008.046-.097.004-.088.006-.093.04-.093.051 0 .067-.04.067-.17 0-.11 0-.111.04-.116.035-.004.043-.013.047-.053l.004-.048h1.07v.283l.045.01c.041.007.045.013.045.07 0 .102.013.128.061.128h.043v.123c0 .167-.014.16.309.16h.272l-.004-.19-.004-.19-.048-.005-.049-.004v-.281h-.089v-.194h-.103l-.004-.137c-.005-.132-.006-.137-.042-.146-.034-.008-.038-.017-.045-.104-.007-.096-.007-.097-.055-.101l-.048-.005-.004-.137c-.004-.136-.004-.137-.044-.141-.039-.005-.041-.01-.045-.097-.005-.092-.005-.092-.053-.097l-.048-.005v-.191h-.089l-.004-.138-.004-.138-.048-.014c-.046-.013-.048-.017-.052-.104-.004-.086-.006-.09-.045-.095-.04-.004-.041-.005-.041-.116 0-.18.021-.17-.348-.17-.175 0-.322.005-.327.01m1.935.037a95.747 95.747 0 000 2.662l.01.091.277-.004.277-.004.007-.811c.005-.446.01-.773.012-.726.003.083.005.087.047.095.042.009.044.012.048.1.005.086.007.092.044.096.042.005.057.065.058.223 0 .06.002.063.044.063h.045v.097c0 .096 0 .097.043.097.045 0 .06.054.061.22 0 .058.004.064.044.072.043.008.044.012.049.1.004.091.004.092.052.096l.048.005.004.136.004.137.235.004.234.005v-.045c0-.038.006-.044.049-.048.048-.005.048-.005.052-.096.005-.088.006-.092.048-.1.042-.009.043-.013.048-.102.004-.085.007-.094.04-.102.045-.01.057-.047.06-.181.001-.097.002-.1.042-.104.04-.005.041-.009.045-.097.004-.088.007-.092.045-.097.047-.005.058-.04.06-.185.002-.089.004-.091.046-.1.043-.008.045-.012.049-.102.004-.085.008-.093.041-.101a.065.065 0 00.047-.046c.006-.02.01.31.012.735l.001.77.28-.004.278-.004.01-.044c.012-.057.016-2.692.004-2.724-.008-.02-.052-.023-.343-.023h-.333v.043c0 .037-.007.045-.041.049-.04.004-.041.008-.045.097-.005.087-.007.094-.045.103-.057.014-.062.028-.062.165v.123h-.09v.281l-.048.005c-.049.005-.049.005-.053.096-.004.088-.006.092-.049.1l-.044.009v.284h-.104v.193h-.089v.283h-.044c-.024 0-.047.006-.052.013-.004.007-.03.005-.06-.004l-.052-.016-.004-.134c-.004-.134-.004-.135-.044-.14-.039-.004-.04-.008-.045-.096-.004-.092-.005-.092-.052-.097l-.048-.004-.004-.136c-.004-.132-.006-.137-.042-.145-.034-.008-.037-.017-.042-.097-.004-.092-.017-.111-.073-.112-.031 0-.033-.007-.037-.138l-.004-.137-.041-.005c-.04-.005-.041-.007-.041-.1v-.096h-.103l-.004-.137c-.005-.133-.006-.138-.042-.146-.029-.007-.038-.02-.042-.057l-.004-.047h-.665l-.01.046m-1.584.817c.022 0 .027.013.027.073 0 .1.01.12.06.12h.043l.004.138c.004.132.006.137.042.146.033.007.038.018.045.09.009.098.02.118.067.118.03 0 .037.007.037.045v.044h-.693l.005-.14.005-.14.047-.005c.047-.005.048-.006.052-.096.004-.088.006-.092.048-.1l.044-.01v-.283h.052c.031 0 .053-.007.053-.018 0-.014.004-.014.018 0 .01.01.03.018.044.018m-14.487 5.081l.004 1.404h2.115l.004-.19.004-.19h-1.654v-.879h1.549v-.387h-1.549v-.774h1.654l-.004-.19-.004-.19-1.061-.004-1.061-.003.003 1.403m4.741-1.325c-.012.104-.01 2.558.003 2.654l.01.075.767.004c.87.005.863.005.863-.057v-.043l.146-.004.145-.005.004-.04c.004-.035.012-.042.049-.042.04 0 .043-.004.043-.052 0-.05.003-.052.053-.052.047 0 .052-.004.052-.044 0-.036.006-.044.04-.048l.042-.005.004-.426.004-.427-.045-.01c-.033-.007-.045-.02-.048-.05-.004-.032-.013-.04-.052-.044-.042-.004-.048-.01-.052-.052-.004-.042-.01-.048-.055-.053-.043-.004-.048-.009-.041-.037a.308.308 0 00.009-.042c0-.005.02-.013.045-.018.043-.008.044-.01.044-.098 0-.079.004-.09.03-.09.076 0 .075.004.075-.334 0-.334-.004-.351-.07-.351-.032 0-.035-.006-.035-.088 0-.09-.01-.106-.074-.106-.02 0-.03-.012-.032-.04l-.005-.042-.137-.004-.137-.004-.004-.048-.005-.048-.813-.004-.813-.003-.01.078m3.49-.026c0 .045-.005.052-.037.052-.052 0-.068.04-.068.17 0 .11 0 .111-.04.116-.04.004-.042.009-.046.095-.004.087-.006.09-.052.104l-.048.014-.004.138-.004.137h-.088v.192l-.049.005c-.048.004-.048.004-.053.096-.004.088-.006.093-.044.097-.04.005-.04.005-.045.142l-.004.137-.048.004c-.048.005-.048.005-.055.101-.007.088-.011.097-.045.105-.036.008-.037.013-.041.146l-.005.137h-.103v.193h-.089v.097c0 .093-.002.097-.037.097-.055 0-.067.04-.067.213 0 .189-.025.174.29.174.302 0 .29.004.29-.105v-.087l.049-.004c.048-.005.048-.005.052-.097.005-.089.007-.092.049-.102l.044-.01v-.278l.048-.005c.04-.004.05-.011.053-.045l.005-.041H22.335v.112c0 .13.016.17.067.17.034 0 .036.006.04.094.005.089.007.093.046.097.04.005.04.008.04.1v.097h.052c.047 0 .052.004.056.048l.004.049.201.004c.289.007.353-.003.36-.054.012-.08-.007-.129-.05-.134l-.042-.005v-.281l-.044-.01c-.043-.008-.045-.011-.045-.085 0-.084-.018-.113-.07-.113-.033 0-.034-.004-.034-.124 0-.127-.013-.159-.063-.159-.022 0-.026-.012-.026-.073 0-.1-.01-.12-.062-.12h-.043v-.194h-.089v-.125c0-.133-.017-.173-.075-.173-.024 0-.029-.013-.032-.093-.005-.089-.006-.093-.046-.098-.04-.004-.04-.007-.042-.096-.003-.147-.014-.181-.062-.186-.04-.005-.04-.008-.04-.1v-.097h-.045c-.043 0-.044 0-.048-.093-.005-.093-.005-.093-.053-.098l-.048-.004v-.14c0-.17.031-.156-.359-.156h-.311v.052m1.945-.043c-.02.02-.012 2.772.009 2.785.04.027.51.024.537-.002.023-.023.025-.105.025-.882 0-.775.002-.855.023-.847a.147.147 0 00.044.009c.011 0 .022.018.025.04.004.035.013.043.052.046.048.005.048.005.053.097.004.088.006.093.045.097.03.004.04.013.04.038 0 .043.027.07.07.07.029 0 .035.007.035.044 0 .039.005.044.043.044.04 0 .043.004.05.082.01.1.018.112.063.112.03 0 .037.009.04.048.004.04.012.05.046.053.034.004.04.012.04.047 0 .094.017.131.062.14.036.008.043.016.043.054 0 .04.005.045.044.045.038 0 .044.006.048.048.004.043.01.05.053.053.046.005.047.006.052.09.004.075.008.084.041.092.027.006.04.021.045.053.006.037.015.044.056.048.044.005.048.01.048.056 0 .047.004.051.045.051.044 0 .045.002.045.074 0 .117.006.12.295.12.136 0 .256-.006.267-.012.015-.01.018-.3.015-1.403l-.004-1.392-.266-.004c-.184-.003-.273.002-.287.013-.017.014-.02.163-.02.872v.854h-.045c-.044 0-.045-.002-.045-.073 0-.08-.026-.12-.075-.12-.022 0-.029-.011-.029-.045 0-.04-.005-.045-.042-.045-.041 0-.043-.004-.051-.081-.01-.1-.018-.113-.063-.113-.03 0-.036-.008-.04-.048-.004-.04-.012-.05-.046-.053-.034-.004-.04-.012-.04-.048 0-.04-.005-.044-.053-.044h-.052v-.194h-.044c-.038 0-.044-.006-.048-.048-.004-.042-.01-.049-.053-.053-.046-.005-.047-.006-.052-.089-.004-.076-.008-.085-.041-.093-.027-.006-.04-.02-.045-.052-.006-.037-.015-.045-.056-.049-.048-.005-.048-.006-.048-.083 0-.081-.018-.113-.063-.113-.018 0-.026-.012-.026-.035 0-.043-.027-.07-.07-.07-.029 0-.035-.008-.035-.044 0-.04-.005-.045-.043-.045-.039 0-.045-.006-.049-.048l-.005-.049-.276-.004c-.152-.002-.28 0-.287.006m2.806.011c-.02.025-.017 2.753.003 2.774.015.015.472.027.524.014l.037-.01v-.76l.044-.008c.033-.006.046-.02.053-.05.007-.032.02-.044.05-.047.03-.004.04-.014.044-.046.004-.033.014-.044.048-.05.031-.007.045-.02.052-.051.007-.032.019-.043.049-.047.03-.004.04-.014.045-.045.007-.066.106-.062.106.003 0 .04.005.045.045.045.034 0 .045.007.045.028 0 .055.017.076.061.076.038 0 .043.006.043.045 0 .04.005.044.045.044.038 0 .044.006.045.041 0 .112.016.153.06.153.036 0 .042.006.046.048.004.04.012.05.045.053.031.004.041.014.045.045.004.033.013.041.053.045.048.004.048.005.048.082 0 .081.018.114.06.114.016 0 .03.02.039.049.01.037.023.049.054.053.034.004.04.012.04.048 0 .038.006.044.043.044.035 0 .045.008.057.048l.013.049h.55l.005-.146.004-.145h-.045c-.044 0-.046-.002-.046-.07 0-.085-.009-.1-.063-.114-.033-.008-.04-.018-.04-.054 0-.04-.006-.045-.045-.045-.038 0-.044-.006-.048-.048-.004-.043-.01-.049-.053-.053-.043-.004-.048-.01-.048-.049 0-.038-.006-.043-.045-.043-.043 0-.045-.003-.045-.068 0-.086-.02-.126-.066-.126-.03 0-.037-.008-.04-.048-.005-.04-.012-.05-.046-.053-.035-.004-.041-.012-.041-.049 0-.04-.005-.043-.052-.043-.05 0-.053-.003-.053-.052 0-.048-.003-.053-.043-.053-.043 0-.044-.001-.049-.085-.004-.083-.006-.086-.053-.1-.04-.012-.048-.022-.048-.056 0-.036-.006-.042-.045-.042-.04 0-.044-.004-.044-.052s.003-.052.044-.052c.04 0 .045-.005.045-.044 0-.034.007-.045.028-.045.055 0 .076-.017.076-.061 0-.038.006-.043.045-.043.04 0 .044-.005.044-.045 0-.034.007-.045.03-.045.053 0 .075-.017.075-.06 0-.039.005-.044.044-.044.04 0 .045-.005.045-.045 0-.034.007-.044.029-.044.054 0 .075-.018.075-.061 0-.038.006-.043.045-.043.04 0 .045-.005.045-.045 0-.034.006-.045.028-.045.054 0 .076-.017.076-.06 0-.039.005-.044.045-.044s.044-.005.044-.045c0-.034.007-.044.029-.044.054 0 .075-.018.075-.06 0-.035.008-.043.041-.047.04-.005.041-.009.041-.086 0-.106-.004-.107-.42-.102l-.323.004-.014.049c-.011.04-.021.048-.056.048-.037 0-.043.006-.043.044 0 .036-.006.044-.04.048-.031.004-.044.016-.054.053-.012.04-.022.049-.057.049-.037 0-.042.005-.042.043 0 .037-.007.045-.04.049-.032.003-.044.016-.055.053-.012.04-.021.048-.056.048-.037 0-.043.006-.043.044 0 .037-.006.044-.04.048-.032.004-.045.016-.056.053-.012.04-.022.049-.056.049-.036 0-.041.006-.041.044 0 .036-.007.044-.041.048-.032.003-.045.016-.056.053-.011.04-.021.048-.055.048-.037 0-.042.006-.042.044 0 .037-.007.045-.041.048-.032.004-.044.016-.055.054-.012.04-.022.048-.056.048-.036 0-.042.006-.042.045 0 .037-.005.044-.037.044-.022 0-.042.011-.049.026a7.057 7.057 0 01-.018-.577l-.007-.603-.27-.004c-.218-.003-.273 0-.287.017m2.816-.01c-.023.01-.027 2.738-.004 2.774.015.024.452.043.53.024l.036-.01-.003-1.395-.004-1.396-.268-.002c-.148-.002-.277 0-.287.005m1.048.059c-.012.09-.01 2.549.003 2.656l.01.082h.253c.14 0 .265-.005.28-.011.024-.01.026-.07.028-.923.001-.502.005-.888.008-.857.006.05.01.056.05.056.042 0 .044.002.044.07 0 .085.009.1.063.114.033.008.04.018.04.054 0 .04.006.045.045.045.038 0 .044.006.048.048.004.043.01.05.052.053.048.005.048.005.053.097.004.088.006.092.045.097.034.004.04.012.04.048 0 .04.005.044.052.044h.052l.004.093c.004.089.006.093.045.098.032.004.04.013.044.052.004.041.01.048.053.052.043.004.049.01.049.048 0 .039.005.044.044.044.043 0 .044.001.048.093.004.093.004.093.053.098.044.004.048.009.048.056s.004.05.045.05c.043 0 .045.003.045.072 0 .084.009.1.063.113.033.008.04.018.04.054 0 .04.006.045.045.045.04 0 .045.005.045.044 0 .06.02.064.312.058.193-.004.243-.01.254-.028.009-.013.014-.557.015-1.395v-1.374l-.034-.008a2.877 2.877 0 00-.286-.004l-.253.004-.004.877-.004.876-.034-.009a.298.298 0 00-.043-.009c-.006 0-.012-.018-.015-.04-.004-.035-.013-.043-.053-.047-.048-.004-.048-.005-.048-.082 0-.082-.018-.114-.063-.114-.018 0-.027-.011-.027-.034 0-.044-.026-.07-.07-.07-.028 0-.034-.008-.034-.045 0-.04-.005-.044-.045-.044-.043 0-.044-.002-.044-.074 0-.1-.01-.12-.06-.12-.037 0-.043-.006-.047-.048-.004-.04-.012-.05-.044-.053-.034-.004-.04-.014-.052-.09-.011-.072-.018-.085-.05-.092-.03-.007-.039-.02-.042-.056-.004-.041-.01-.048-.046-.048-.04 0-.042-.005-.055-.093-.013-.087-.017-.094-.055-.098-.034-.004-.04-.012-.04-.049 0-.037-.008-.045-.045-.053-.033-.006-.045-.018-.048-.048-.004-.032-.013-.04-.052-.043-.048-.005-.048-.005-.052-.097-.005-.092-.005-.092-.052-.097-.042-.004-.048-.01-.052-.052l-.005-.048-.277-.004-.277-.004-.01.07m3.534-.056c-.026.007-.038.022-.041.05-.005.04-.008.041-.101.041h-.096v.044c0 .038-.006.044-.048.048-.043.004-.05.01-.053.053-.004.043-.01.049-.049.049-.038 0-.043.005-.043.043 0 .039-.006.045-.049.049-.042.004-.049.01-.053.053-.004.042-.01.048-.048.048h-.044v.192l-.048.005-.049.004-.004.19-.004.19h-.088v.67h.089v.165c0 .18.012.222.067.222.033 0 .036.006.04.093.004.09.006.093.045.098.034.004.041.012.041.047 0 .042.022.06.076.06.022 0 .029.01.029.045 0 .039.005.044.043.044.036 0 .045.008.053.043.01.045.048.062.143.062.034 0 .042.007.046.04l.005.041.144.005.145.004.004.048.005.048h1.042l.005-.048.004-.048.145-.004c.143-.005.144-.005.148-.044.005-.036.012-.04.092-.049.082-.009.088-.013.093-.05.003-.026.015-.042.034-.046.053-.01.067-.033.067-.114 0-.079 0-.08.049-.084l.048-.005v-.56c0-.31-.006-.567-.012-.574-.017-.016-1.404-.016-1.42 0a2.108 2.108 0 000 .452c.007.007.203.014.436.017l.423.004v.475h-.034c-.044 0-.07.027-.07.07 0 .028-.008.034-.045.034-.04 0-.045.005-.045.045v.045h-.12c-.138 0-.178.015-.178.067 0 .037 0 .037-.141.037-.13 0-.142-.002-.142-.029 0-.058-.039-.075-.172-.075h-.125v-.045c0-.041-.004-.045-.052-.045s-.053-.003-.053-.044c0-.038-.005-.045-.037-.045-.023 0-.041-.01-.046-.026-.016-.052-.032-.07-.062-.075-.023-.004-.033-.018-.036-.052-.004-.042-.01-.049-.053-.053l-.048-.004v-.281h-.09v-.49l.041-.004.041-.005.004-.138c.004-.123.008-.138.033-.138.064 0 .075-.014.075-.105 0-.088 0-.088.044-.088.042 0 .045-.004.045-.052v-.052h.08c.08 0 .114-.018.114-.06 0-.02.019-.027.081-.034.1-.01.112-.017.112-.064v-.036h.387v.037c0 .046.04.067.125.067.062 0 .067.003.072.041.004.034.012.042.052.046.041.004.048.01.052.052.004.04.012.048.045.052.038.004.04.01.044.09.005.08.007.085.053.098.04.012.049.022.049.057v.041l.279-.004.28-.004.012-.083c.02-.129.004-.192-.05-.192h-.045v-.194h-.044c-.038 0-.044-.006-.048-.048-.004-.043-.01-.049-.053-.053-.043-.004-.048-.01-.048-.049 0-.038-.006-.043-.044-.043-.039 0-.044-.006-.048-.049-.005-.042-.011-.049-.054-.053-.042-.004-.048-.01-.048-.048v-.044h-.194v-.043c0-.025-.01-.047-.023-.052a18.538 18.538 0 00-1.183.004m-14.383.417c0 .051.02.061.12.061.067 0 .072.003.077.041.004.034.012.042.053.046l.048.004v.384l-.048.005c-.043.004-.05.01-.053.052l-.005.048-.137.004-.137.004-.004.041-.005.041h-.683v-.774h.774v.043m2.62.486v.142l.045.009c.042.008.044.012.048.1.005.09.005.091.052.096l.048.004.005.137.004.137.04.005c.037.004.042.01.042.056v.05h-.354c-.194 0-.346-.005-.336-.011.01-.006.02-.051.023-.1.004-.08.007-.089.041-.097.036-.008.038-.013.042-.145l.004-.136.048-.004c.048-.005.048-.005.052-.098.004-.077.01-.093.03-.093.045 0 .063-.033.063-.115v-.079h.104v.142m-6.152.256c-.055.008-.083.415-.033.466.011.01 1.836.018 1.878.008.044-.011.054-.459.01-.476-.026-.01-1.79-.008-1.855.002m3.536.42c.01.049.048.06.198.06h.095v.045c0 .04.005.045.045.045h.044v.491h-.044c-.04 0-.045.005-.045.045v.045h-.125c-.155 0-.173.006-.173.06v.044h-.774v-.878h.771l.008.042" id="svg_8"/><path fill="#ec7e7c" d="M6.31 7.172a.04.04 0 00-.01.026c0 .009.006.006.013-.005.012-.019.017-.019.04 0 .022.017.025.017.014 0-.009-.014-.007-.017.005-.01.065.04-.032.076-.194.071-.17-.004-.172-.003-.183.067-.003.023-.02.027-.114.03-.185.005-.27.016-.283.037-.022.034-.014.05.009.019.012-.016.022-.024.022-.018 0 .007.012.006.027-.002.022-.012.026-.007.028.033.001.026-.001.039-.005.028-.004-.01-.013-.015-.02-.01-.008.005-.01-.004-.006-.019.008-.023.006-.024-.011-.004-.024.027-.043.032-.138.035-.07.002-.073.005-.08.047-.006.052-.029.07-.07.057-.032-.01-.035-.01-.107-.003-.03.002-.044.01-.036.02.037.051.01.075-.086.075-.069 0-.098.006-.103.02-.004.012 0 .017.009.012.01-.007.011.004.004.031-.01.04-.015.04-.103.039-.05-.001-.092.004-.092.012s.008.01.017.003c.012-.007.014-.004.005.01a.076.076 0 00-.01.046c.005.03-.12.046-.15.02-.01-.008-.005 0 .01.018.051.062.028.087-.078.082l-.093-.004.01.051c.009.048.006.052-.043.068-.036.012-.054.028-.058.05-.004.028-.014.033-.067.033-.034 0-.057.005-.05.012.026.026-.001.085-.04.085-.036 0-.128.064-.113.079.009.01-.056.048-.073.043-.006-.002-.011.013-.011.032 0 .021-.014.042-.037.054-.02.011-.038.028-.038.037 0 .009-.018.034-.04.055-.023.021-.05.048-.06.06-.01.01-.048.05-.086.087a.353.353 0 00-.076.1.053.053 0 01-.04.036c-.021.003-.036.021-.045.053-.008.026-.026.052-.04.057-.016.004-.035.031-.045.06a.162.162 0 01-.044.07.31.31 0 00-.061.078.322.322 0 01-.06.078.118.118 0 00-.035.061.161.161 0 01-.045.074.236.236 0 00-.054.093c-.011.037-.03.066-.046.07a.038.038 0 00-.027.034c0 .015-.006.03-.013.035-.007.005-.017.031-.023.06-.005.027-.019.054-.03.058-.012.005-.033.047-.048.095a.346.346 0 01-.05.108.356.356 0 00-.052.108c-.016.047-.039.09-.052.094-.016.005-.03.041-.042.119a.375.375 0 01-.042.134.508.508 0 00-.05.158c-.017.086-.035.14-.052.153-.019.013-.031.063-.048.196a.6.6 0 01-.045.204c-.08.09-.068 1.676.013 1.854.02.04.037.119.043.186.008.081.02.129.04.158.018.022.039.08.048.129.022.114.048.2.06.2.013 0 .046.104.046.142 0 .015.019.057.043.095a.46.46 0 01.054.12c.006.029.026.071.045.094.02.023.042.065.05.093a.311.311 0 00.052.098.258.258 0 01.048.085.19.19 0 00.035.07c.015.016.04.057.058.092a.273.273 0 00.046.071.257.257 0 01.046.07c.033.064.147.219.184.25.013.01.023.026.023.034 0 .008.019.033.041.057.023.023.065.071.093.106.062.076.413.426.513.51l.106.093c.02.019.052.042.07.051a.38.38 0 01.063.045c.075.066.169.133.22.156.03.013.056.03.056.036 0 .007.033.03.074.05.041.02.089.05.105.066a.173.173 0 00.071.037c.022.004.06.025.083.045.024.02.064.04.088.046a.271.271 0 01.092.044c.025.02.088.047.139.062.05.014.092.03.092.037 0 .014.111.06.146.06.014 0 .057.016.095.036.038.02.122.048.186.06a.65.65 0 01.132.037c.024.02.185.056.297.067.058.006.125.02.15.031.093.044.215.051.83.051.602 0 .71-.006.764-.047.008-.006.099-.025.201-.041.103-.017.216-.043.253-.06a.656.656 0 01.155-.038.46.46 0 00.153-.047c.035-.02.1-.046.146-.058a.443.443 0 00.123-.052.27.27 0 01.099-.04.322.322 0 00.108-.043.51.51 0 01.105-.052.35.35 0 00.097-.053c.023-.019.06-.039.082-.044a.214.214 0 00.077-.042.34.34 0 01.09-.053.28.28 0 00.085-.053.196.196 0 01.065-.044.212.212 0 00.064-.039c.04-.037.212-.162.222-.162.004 0 .03-.022.059-.048l.072-.067c.032-.028.057-.052.11-.104.028-.027.057-.049.066-.049.008 0 .03-.02.048-.044.018-.025.04-.045.047-.045.016 0 .07-.058.07-.076 0-.006.012-.015.028-.02.015-.005.036-.029.046-.053.01-.024.031-.048.047-.053.015-.005.038-.028.05-.052a.16.16 0 01.052-.059c.016-.009.03-.025.03-.037 0-.012.02-.036.044-.054a.212.212 0 00.06-.073.303.303 0 01.06-.083c.025-.022.044-.05.044-.062 0-.01.02-.038.043-.06a.22.22 0 00.053-.074.246.246 0 01.054-.077c.024-.024.044-.057.044-.074 0-.016.02-.05.044-.076a.203.203 0 00.055-.106c.007-.044.018-.063.043-.073.034-.013.066-.088.066-.153 0-.016.013-.031.03-.036.03-.008.06-.074.06-.14 0-.04.009-.054.063-.092.018-.012.028-.046.034-.115.011-.127.014-.134.059-.134.04 0 .04.002.043-.15.002-.098.002-.099.062-.107.04-.005.044-.011.048-.066.004-.045.012-.063.034-.068.046-.012.07-.08.038-.112-.014-.014-.024-.018-.021-.01.004.015-.006.022-.032.022-.054 0-.031-.275.023-.28a.159.159 0 00.052-.011c.018-.01.018-1.66 0-1.66-.007 0-.01-.018-.007-.04.005-.04.005-.04-.006-.004-.007.02-.022.037-.034.037a.045.045 0 00-.032.015.961.961 0 01-.011-.218c0-.187-.005-.236-.023-.25-.012-.01-.018-.025-.014-.032.005-.008.002-.014-.006-.014s-.018.009-.021.019c-.004.01-.011.015-.016.01-.014-.012-.024-.118-.012-.118.017 0 .001-.168-.017-.19-.01-.012-.03-.017-.05-.012-.035.009-.035.008-.036-.129 0-.101-.004-.131-.015-.112-.042.073-.09.003-.086-.125.003-.098-.03-.178-.044-.109-.013.057-.047.017-.053-.065a.247.247 0 00-.017-.077c-.007-.011-.006-.016.002-.01.008.004.016-.014.018-.042.001-.027-.003-.054-.01-.058-.009-.005-.011.004-.007.02.004.017 0 .03-.009.03s-.015.006-.013.012-.002.012-.01.013c-.006.002-.018.012-.025.023-.01.015-.013.012-.014-.01a.503.503 0 00-.018-.131c-.006-.015 0-.027.016-.031.014-.004-.004-.006-.039-.004l-.064.003.003-.078c.004-.086-.017-.125-.061-.113-.02.005-.03 0-.03-.017 0-.034.006-.047.019-.042.006.002.01-.005.007-.015-.005-.026-.031-.054-.044-.046-.064.038-.085.017-.088-.089-.001-.049-.008-.08-.018-.08-.08.001-.087-.004-.081-.055.005-.048.003-.05-.04-.049-.042.002-.045-.001-.046-.049 0-.048-.004-.051-.052-.052-.043 0-.051-.007-.054-.038l-.008-.088c-.003-.03-.014-.054-.027-.057-.018-.005-.018-.004-.002.008.011.008.014.018.007.023-.015.009-.064-.04-.064-.064 0-.008-.012-.021-.026-.03-.02-.01-.02-.015-.005-.015.018 0 .018-.004.004-.019-.015-.015-.021-.015-.03 0-.009.014-.021 0-.04-.04-.02-.045-.035-.06-.06-.06-.026 0-.036-.01-.04-.041-.007-.04-.008-.04-.019-.008-.017.052-.067.044-.067-.011 0-.041-.004-.045-.052-.045-.06 0-.076-.066-.017-.07.022-.002.025.002.012.014-.024.024-.022.049.003.028.01-.009.023-.013.027-.009s.007-.003.007-.015-.007-.023-.016-.024a.445.445 0 01-.031-.006l-.03-.007a.292.292 0 00-.056 0c-.045.002-.065-.028-.048-.07.008-.019.013-.02.018-.008.004.01.014.014.022.009.009-.005.021 0 .028.011.009.014.014.015.014.003 0-.027-.027-.038-.099-.041-.082-.004-.109-.027-.083-.068.01-.017.013-.029.007-.027-.042.01-.108-.023-.108-.055 0-.041-.035-.056-.13-.054-.063.001-.074-.012-.066-.075.001-.005-.018-.014-.043-.02-.024-.005-.044-.019-.044-.03 0-.04-.046-.066-.119-.066-.068 0-.073-.003-.082-.045-.008-.035-.018-.045-.05-.047a1.017 1.017 0 01-.062-.006.641.641 0 00-.054-.005c-.024-.001-.034-.012-.038-.043-.004-.038-.009-.04-.088-.045-.08-.004-.085-.007-.093-.048-.01-.047-.007-.046-.143-.05-.05-.002-.069-.01-.072-.028-.003-.015-.015-.026-.027-.026a.077.077 0 01-.045-.022c-.015-.015-.053-.023-.117-.023-.08 0-.096-.004-.103-.027-.014-.044-.08-.064-.228-.07-.123-.006-.14-.01-.175-.045-.02-.02-.044-.034-.051-.03-.008.005-.018.002-.024-.006-.01-.017-1.946-.022-1.963-.005M5.9 7.3c.001.025.004.027.009.007.003-.015.013-.023.02-.018.008.005.014.002.014-.007 0-.009-.01-.016-.022-.016-.014 0-.022.013-.02.034m2.067.093c.035.012.071.032.08.044.012.016.076.027.225.04.18.014.214.021.246.05.026.023.07.038.147.049.072.01.12.026.141.045a.321.321 0 00.133.049c.064.012.115.03.137.051a.29.29 0 00.108.05c.04.01.092.034.115.054.023.02.063.04.09.045a.201.201 0 01.083.042c.02.018.065.042.1.053a.201.201 0 01.082.046c.01.014.044.034.076.046a.184.184 0 01.079.053.11.11 0 00.055.04.389.389 0 01.1.061.3.3 0 00.082.053c.01 0 .027.015.04.035.013.019.043.043.068.053.025.01.05.032.054.047.005.016.016.028.024.028s.04.023.07.051c.03.028.084.077.12.108.1.088.225.216.3.303l.111.129c.129.143.233.276.258.329.013.027.029.048.035.048.007 0 .026.029.044.063.018.035.04.07.05.079.01.008.03.044.044.081a.232.232 0 00.054.086.17.17 0 01.045.077.32.32 0 00.053.099c.02.023.043.069.052.102a.259.259 0 00.038.086.467.467 0 01.051.118.463.463 0 00.05.118.385.385 0 01.045.113c.013.05.036.117.05.149a.805.805 0 01.047.162c.01.057.03.134.045.171.016.037.038.144.051.238.012.095.033.205.046.246.048.155.043 1.164-.007 1.256-.009.017-.026.103-.038.192a1.24 1.24 0 01-.05.227c-.016.037-.04.127-.054.201a.773.773 0 01-.044.164.88.88 0 00-.052.141.657.657 0 01-.052.134.47.47 0 00-.044.108.364.364 0 01-.047.106.42.42 0 00-.053.101.539.539 0 01-.05.102.327.327 0 00-.038.075.372.372 0 01-.05.089.707.707 0 00-.068.108c-.02.039-.04.07-.046.07-.006 0-.02.022-.03.047a.323.323 0 01-.048.079 2.155 2.155 0 00-.102.135c-.099.14-.147.2-.281.346-.03.031-.073.08-.098.109a6.454 6.454 0 01-.436.401.247.247 0 01-.06.045.165.165 0 00-.047.035.956.956 0 01-.105.078.84.84 0 00-.073.051.626.626 0 01-.067.045.596.596 0 00-.08.054.402.402 0 01-.083.048.248.248 0 00-.074.044.367.367 0 01-.09.054.39.39 0 00-.09.052.28.28 0 01-.086.039.41.41 0 00-.101.045.461.461 0 01-.107.05.73.73 0 00-.118.05.658.658 0 01-.132.048 1.05 1.05 0 00-.149.052.945.945 0 01-.163.05 1.056 1.056 0 00-.16.047.714.714 0 01-.156.037c-.06.008-.152.021-.205.03-.331.053-.397.058-.74.058a2.96 2.96 0 01-.603-.038 40.509 40.509 0 00-.34-.052.603.603 0 01-.137-.035.998.998 0 00-.164-.046 1.042 1.042 0 01-.175-.051 1.074 1.074 0 00-.146-.051 1.22 1.22 0 01-.181-.07.545.545 0 00-.106-.043.156.156 0 01-.057-.028.636.636 0 00-.106-.053.459.459 0 01-.086-.041.917.917 0 00-.104-.058 1.765 1.765 0 01-.27-.163 12.628 12.628 0 00-.172-.111 5.121 5.121 0 01-.626-.537 4.706 4.706 0 01-.736-.972.846.846 0 00-.058-.104.324.324 0 01-.04-.077.6.6 0 00-.051-.105.716.716 0 01-.061-.134.47.47 0 00-.046-.104.414.414 0 01-.043-.113.77.77 0 00-.053-.148.334.334 0 01-.036-.105.228.228 0 00-.013-.069 1.728 1.728 0 01-.098-.392 1.141 1.141 0 00-.049-.223c-.045-.1-.04-1.223.006-1.37.018-.057.04-.164.05-.238.01-.073.028-.16.04-.193.026-.072.056-.188.07-.268a.21.21 0 01.033-.084.478.478 0 00.05-.124.705.705 0 01.05-.133.47.47 0 00.039-.09.705.705 0 01.06-.127.685.685 0 00.059-.123.258.258 0 01.035-.075.525.525 0 00.052-.085c.06-.118.289-.473.353-.546l.062-.076.074-.093c.058-.073.183-.204.346-.363.172-.168.145-.144.318-.282l.096-.08c.03-.028.062-.05.073-.05.01 0 .028-.011.039-.026a.33.33 0 01.086-.064.381.381 0 00.094-.07c.015-.018.037-.033.05-.033a.35.35 0 00.098-.052.395.395 0 01.095-.052c.009 0 .042-.02.072-.045a.207.207 0 01.082-.044.228.228 0 00.083-.04.574.574 0 01.132-.06.55.55 0 00.127-.058.203.203 0 01.084-.036c.047 0 .13-.032.155-.06.014-.016.066-.031.138-.042a.41.41 0 00.157-.047.231.231 0 01.093-.037l.208-.024a.615.615 0 00.208-.05c.05-.029.08-.03.655-.038.332-.005.607-.01.613-.012a.289.289 0 01.072.02m-1.057.29c-.16.008-.24.018-.305.041a1.39 1.39 0 01-.219.049c-.134.018-.185.046-.168.093.008.02.016.018.059-.01.037-.026.089-.039.211-.053.089-.01.222-.033.295-.05.199-.047.921-.047 1.102 0 .066.018.19.04.276.049.086.01.183.03.216.044.033.014.114.038.179.052a.756.756 0 01.163.053.539.539 0 00.127.044c.045.01.098.03.119.044.02.015.074.038.119.053a.414.414 0 01.112.053.301.301 0 00.089.044c.033.01.073.03.09.045a.388.388 0 00.088.051.361.361 0 01.09.053.363.363 0 00.082.052c.045.02.105.063.211.15a.501.501 0 00.07.043c.025.013.05.032.057.042.006.01.028.03.049.043.09.058.534.5.648.645.121.156.155.201.171.232.01.018.04.062.068.099.028.036.05.075.05.086 0 .01.012.028.026.04a.277.277 0 01.051.08c.015.033.04.076.057.096.017.019.039.06.048.092a.26.26 0 00.043.085.342.342 0 01.05.106c.013.042.036.099.052.125.017.026.04.084.051.13.012.044.036.108.054.142a.576.576 0 01.045.154c.007.05.027.118.044.15a.715.715 0 01.047.196c.009.076.027.188.04.25.071.353.071.905-.001 1.25-.013.062-.03.169-.04.239a.755.755 0 01-.046.188.662.662 0 00-.045.164.613.613 0 01-.046.161.814.814 0 00-.052.14.578.578 0 01-.05.13.618.618 0 00-.052.122.259.259 0 01-.042.09.287.287 0 00-.047.088.41.41 0 01-.052.1.485.485 0 00-.056.099.271.271 0 01-.045.078.29.29 0 00-.048.076c-.018.037-.037.067-.043.067-.006 0-.027.029-.046.064-.036.064-.08.125-.153.207a.888.888 0 01-.142.17l-.16.17c-.107.116-.37.357-.389.357-.01 0-.026.013-.035.03a.17.17 0 01-.062.053.405.405 0 00-.074.05.372.372 0 01-.069.047.368.368 0 00-.074.054.2.2 0 01-.067.042.227.227 0 00-.07.045.372.372 0 01-.093.058.763.763 0 00-.11.06.216.216 0 01-.082.038c-.014 0-.045.016-.068.035a.416.416 0 01-.123.06.37.37 0 00-.105.045.412.412 0 01-.12.047.55.55 0 00-.133.05.613.613 0 01-.162.051.928.928 0 00-.163.045.75.75 0 01-.262.054c-.035 0-.134.018-.219.04-.224.058-.936.062-1.152.006a2.137 2.137 0 00-.261-.047.664.664 0 01-.264-.06.326.326 0 00-.097-.029.625.625 0 01-.235-.072.217.217 0 00-.085-.032.334.334 0 01-.153-.06.494.494 0 00-.112-.045.32.32 0 01-.11-.053.202.202 0 00-.085-.042.241.241 0 01-.09-.043.426.426 0 00-.094-.055.317.317 0 01-.082-.049.307.307 0 00-.076-.047.328.328 0 01-.083-.054.548.548 0 00-.08-.062c-.28-.167-.864-.75-1.03-1.03a.536.536 0 00-.062-.08.333.333 0 01-.054-.083.308.308 0 00-.048-.076.312.312 0 01-.048-.082.336.336 0 00-.048-.083.357.357 0 01-.05-.098.344.344 0 00-.049-.096.301.301 0 01-.045-.095.639.639 0 00-.036-.097c-.054-.097-.07-.137-.07-.17a.217.217 0 00-.032-.09.625.625 0 01-.072-.236.293.293 0 00-.03-.094.963.963 0 01-.068-.31 1.875 1.875 0 00-.041-.224c-.048-.19-.047-.929 0-1.11.017-.065.036-.162.041-.215a.96.96 0 01.068-.311.289.289 0 00.03-.091c0-.063.034-.173.068-.219.045-.06.045-.08 0-.08-.05 0-.061.022-.089.16a.761.761 0 01-.052.17.687.687 0 00-.046.192c-.01.078-.03.177-.046.22-.072.196-.072 1.27 0 1.466.015.043.036.142.046.22.01.08.03.162.046.19a.73.73 0 01.051.164.55.55 0 00.05.152c.014.02.034.07.044.112.01.04.035.1.055.13.02.03.036.065.036.076 0 .034.041.122.066.143.013.01.024.029.024.04 0 .03.052.13.08.153.013.011.024.03.024.044 0 .023.015.049.104.18l.084.128c.057.087.104.147.157.203a.276.276 0 01.045.057c.02.062.578.617.641.639.01.003.036.023.057.044.065.065.123.11.177.14a.853.853 0 01.09.058c.074.057.142.101.193.125.06.028.08.04.142.081a.299.299 0 00.085.04.122.122 0 01.058.03c.021.025.11.064.147.064.014 0 .04.013.06.03.03.025.158.074.196.074a.55.55 0 00.21.081.633.633 0 01.15.046.799.799 0 00.19.045c.085.013.19.037.234.052.197.071 1.258.07 1.471 0a1.79 1.79 0 01.236-.051.954.954 0 00.209-.052.724.724 0 01.155-.047.43.43 0 00.135-.045.27.27 0 01.083-.037.419.419 0 00.163-.066.329.329 0 01.101-.043c.04-.01.085-.03.1-.045a.27.27 0 01.09-.045.23.23 0 00.085-.046.318.318 0 01.093-.054.22.22 0 00.079-.046.249.249 0 01.078-.051c.036-.017.066-.037.066-.044 0-.007.028-.028.063-.045a.958.958 0 00.212-.159c.019-.018.04-.033.05-.033.008 0 .03-.018.047-.04a.338.338 0 01.072-.065c.05-.032.207-.186.323-.318.049-.056.11-.123.138-.15a.203.203 0 00.048-.06c0-.008.017-.03.037-.051a.91.91 0 00.164-.213c.014-.03.032-.056.039-.056.007 0 .027-.028.044-.063a.415.415 0 01.06-.09.22.22 0 00.043-.085c.009-.033.028-.066.043-.074.015-.008.039-.05.053-.096.014-.044.034-.085.046-.089.011-.004.032-.047.045-.094a.38.38 0 01.052-.116.293.293 0 00.045-.104.597.597 0 01.033-.105.486.486 0 00.068-.195.617.617 0 01.045-.15.972.972 0 00.053-.216c.013-.086.033-.18.045-.209.072-.173.072-1.318 0-1.458a1.007 1.007 0 01-.043-.203.955.955 0 00-.058-.243.873.873 0 01-.053-.17.394.394 0 00-.046-.13.15.15 0 01-.03-.068.32.32 0 00-.06-.159.4.4 0 01-.05-.116c-.014-.047-.035-.09-.046-.094-.012-.005-.032-.045-.045-.089-.013-.047-.035-.086-.052-.095-.016-.009-.036-.043-.045-.076a.244.244 0 00-.05-.093.358.358 0 01-.057-.088c-.014-.03-.032-.056-.04-.056s-.019-.013-.024-.029a1.197 1.197 0 00-.187-.25c-.016-.011-.029-.029-.029-.038 0-.01-.017-.035-.037-.055a7.102 7.102 0 01-.138-.149c-.123-.135-.319-.328-.334-.328a.31.31 0 01-.069-.056 1.656 1.656 0 00-.101-.09 6.981 6.981 0 01-.103-.081.693.693 0 00-.104-.071.21.21 0 01-.063-.047.174.174 0 00-.071-.042.166.166 0 01-.071-.045.23.23 0 00-.086-.053.329.329 0 01-.092-.053.24.24 0 00-.086-.044.272.272 0 01-.09-.046.342.342 0 00-.108-.052.354.354 0 01-.107-.05.287.287 0 00-.106-.042.525.525 0 01-.132-.048.646.646 0 00-.165-.053.675.675 0 01-.16-.049.706.706 0 00-.19-.045 1.267 1.267 0 01-.222-.048c-.13-.048-.625-.066-1.147-.042m2.889.097c.01.012.012.022.005.022s-.003.007.01.015c.012.008.014.015.005.015-.01 0-.025-.01-.035-.022-.01-.013-.013-.023-.006-.023.007 0 .003-.007-.01-.015-.011-.008-.014-.014-.005-.014.01 0 .025.01.036.022m-5.182.112c0 .026.005.028.03.014.016-.008.03-.024.03-.034 0-.011-.006-.01-.015.005-.01.014-.015.016-.015.003 0-.01-.007-.018-.015-.018s-.015.013-.015.03m1.007.117a.243.243 0 01-.096.047.324.324 0 00-.107.051.334.334 0 01-.1.052.24.24 0 00-.088.047.216.216 0 01-.078.044.362.362 0 00-.1.057.911.911 0 01-.096.068 1.25 1.25 0 00-.292.212.404.404 0 01-.067.05c-.073.04-.638.604-.638.637 0 .008-.024.04-.054.071a.686.686 0 00-.131.173c-.023.039-.046.07-.053.07-.006 0-.02.022-.03.047a.415.415 0 01-.056.09c-.045.054-.067.14-.041.161.013.011.022 0 .035-.042a.196.196 0 01.04-.077.23.23 0 00.045-.072.197.197 0 01.052-.072c.016-.012.03-.03.03-.039 0-.01.026-.05.059-.09a.437.437 0 00.06-.083c0-.006.02-.034.044-.062l.1-.115a9.882 9.882 0 01.621-.61c.02-.018.04-.033.048-.033a.228.228 0 00.065-.042c.029-.023.077-.057.108-.075.03-.019.056-.039.056-.044 0-.006.036-.03.081-.053a.267.267 0 00.082-.054c0-.006.016-.015.034-.02a.473.473 0 00.1-.052.718.718 0 01.124-.063.29.29 0 00.082-.044.18.18 0 01.068-.035c.023-.006.083-.03.135-.054a.515.515 0 01.118-.044c.015 0 .022-.007.017-.015-.017-.028-.15-.018-.177.013m4.92.342c0 .017.006.034.014.04.008.004.015-.002.015-.015l.001-.034c0-.006-.006-.013-.015-.016-.009-.003-.016.008-.016.025m.372.374c0 .023.027.031.035.012.004-.01.008-.006.009.01 0 .022.005.025.019.011.01-.01.014-.021.01-.025-.016-.015-.073-.021-.073-.008m.148.11c.019.023.019.028 0 .04-.017.011-.017.014.005.014.014 0 .026-.01.026-.02 0-.012-.012-.03-.026-.041-.024-.02-.024-.019-.005.006m.2.285c.007.017.003.033-.008.04-.016.01-.016.013 0 .013.027 0 .04-.044.017-.064-.015-.014-.017-.012-.009.01m.754 1.746c.008.004.012.013.008.02-.004.006.002.02.015.03.015.013.022.013.022.002 0-.01-.007-.017-.015-.017s-.013-.007-.011-.017c.002-.009-.005-.018-.016-.02-.01-.003-.012-.002-.003.002m-9.32 2.9c0 .011.01.024.022.03.019.006.02.002.007-.022-.019-.034-.03-.037-.03-.008" id="svg_7"/><path fill="#e66544" d="M6.962 7.727a1.94 1.94 0 00-.216.034 2.753 2.753 0 01-.253.042c-.271.031-.323.089-.234.262a.837.837 0 01.048.148.61.61 0 00.044.134.591.591 0 01.044.127c.014.053.041.129.061.169.02.04.037.09.037.11 0 .022.018.08.039.129.02.049.047.13.058.182a.68.68 0 00.057.156c.02.035.04.093.046.129.005.036.025.1.044.141.02.042.04.117.045.166.015.125.033.175.081.221l.042.04h1.229c1.091 0 1.235.002 1.285.023l.057.024-.058.028c-.068.033-.158.102-.328.25a.724.724 0 01-.09.065c-.023.014-.073.05-.11.078a3.877 3.877 0 01-.276.194.824.824 0 00-.076.053 1.077 1.077 0 00-.218.15c-.188.156-.236.191-.258.191-.011 0-.02.007-.02.015s-.036.038-.079.067c-.13.089-.18.124-.22.157-.02.017-.06.047-.089.067-.15.103-.19.135-.228.18l-.042.05.03.064c.017.035.04.108.053.164a.58.58 0 00.046.135.656.656 0 01.044.162c.012.07.04.16.06.202a.36.36 0 01.038.117c0 .023.017.083.038.132.02.049.05.137.066.196a.713.713 0 00.05.142c.012.019.033.08.047.137a.764.764 0 00.052.149.39.39 0 01.036.112c.005.036.03.11.053.166a.555.555 0 01.044.133c0 .018.017.066.038.106.02.041.047.116.059.166l.031.126c.01.036-.07.052-.09.018a3.745 3.745 0 00-.341-.258.548.548 0 01-.077-.056c-.017-.015-.037-.028-.045-.028a.373.373 0 01-.086-.06.385.385 0 00-.086-.06c-.007 0-.028-.016-.046-.036-.017-.02-.04-.038-.049-.038a.237.237 0 01-.074-.05.615.615 0 00-.096-.071.157.157 0 01-.05-.039.25.25 0 00-.071-.048c-.032-.017-.059-.035-.059-.042 0-.006-.018-.022-.04-.035a.661.661 0 01-.074-.052 58.252 58.252 0 01-.103-.087c-.074-.062-.131-.1-.245-.162a.4.4 0 01-.089-.061.256.256 0 00-.066-.048.214.214 0 01-.065-.051c-.01-.015-.027-.028-.037-.028a.329.329 0 01-.09-.06c-.112-.092-.214-.097-.29-.015a.347.347 0 01-.075.06 1.818 1.818 0 00-.203.146.608.608 0 01-.1.058c-.04.018-.071.04-.071.047 0 .008-.027.025-.059.038-.032.013-.066.037-.075.053-.009.017-.025.03-.037.03-.011 0-.037.02-.058.045-.02.025-.043.045-.05.045a.456.456 0 00-.092.067.426.426 0 01-.093.067c-.007 0-.029.014-.047.03a1.746 1.746 0 01-.197.144.758.758 0 00-.092.075c-.018.019-.043.034-.055.034-.012 0-.034.015-.049.033a.214.214 0 01-.066.052.962.962 0 00-.132.089c-.05.04-.113.085-.14.101a1.6 1.6 0 00-.208.16c-.116.1-.137-.024-.038-.22a.74.74 0 00.043-.126.763.763 0 01.055-.147.296.296 0 00.035-.099c0-.04.024-.12.052-.172a.838.838 0 00.045-.149.533.533 0 01.043-.133.518.518 0 00.067-.183.422.422 0 01.038-.105.66.66 0 00.046-.143.887.887 0 01.054-.166.58.58 0 00.043-.151.563.563 0 01.059-.212.857.857 0 00.046-.149c.01-.049.026-.1.036-.112a.185.185 0 00-.09-.292.343.343 0 01-.084-.056 1.207 1.207 0 00-.212-.16c-.022-.01-.039-.022-.039-.028a.277.277 0 00-.07-.057 1.826 1.826 0 01-.209-.15c-.018-.017-.04-.03-.047-.03a.642.642 0 01-.116-.088 1.281 1.281 0 00-.213-.152c-.06-.065-.223-.14-.223-.101a.2.2 0 01-.036.062.472.472 0 00-.069.218.289.289 0 01-.029.092.96.96 0 00-.068.31c-.005.054-.024.151-.04.217-.049.18-.049.92-.001 1.109.017.07.036.17.041.223a.963.963 0 00.068.311.293.293 0 01.03.094c0 .057.037.18.072.235.017.029.032.07.032.09 0 .034.016.074.07.17.009.017.025.06.036.098a.3.3 0 00.045.095.343.343 0 01.049.096.357.357 0 00.05.098.336.336 0 01.048.083.313.313 0 00.048.082c.016.016.037.05.047.076.011.025.036.062.055.082.02.02.047.057.062.081.166.28.75.863 1.03 1.03a.55.55 0 01.08.062c.02.019.058.044.083.054.025.01.06.032.076.047a.317.317 0 00.082.049c.028.011.07.036.093.055a.241.241 0 00.091.043.202.202 0 01.085.042.32.32 0 00.11.053c.041.012.092.032.112.045.055.036.116.06.153.06.018 0 .057.015.085.032a.625.625 0 00.235.072c.019 0 .062.013.097.029a.664.664 0 00.264.06c.07.007.187.028.26.047.217.056.93.052 1.153-.006.085-.022.183-.04.219-.04a.75.75 0 00.262-.054.928.928 0 01.163-.045.613.613 0 00.161-.05A.551.551 0 018.86 16a.413.413 0 00.12-.047.37.37 0 01.105-.045c.044-.013.1-.04.123-.06.023-.02.054-.035.068-.035a.216.216 0 00.082-.038c.03-.02.08-.048.11-.06a.372.372 0 00.092-.058c.02-.019.053-.04.071-.045a.2.2 0 00.067-.043.368.368 0 01.074-.053.372.372 0 00.069-.047.405.405 0 01.074-.05.17.17 0 00.062-.053c.009-.017.025-.03.035-.03.02 0 .282-.24.388-.356.034-.037.106-.113.162-.17a.89.89 0 00.141-.171c.073-.082.117-.143.153-.207.02-.035.04-.064.046-.064.006 0 .025-.03.043-.067a.29.29 0 01.048-.076.27.27 0 00.045-.078.484.484 0 01.056-.099.41.41 0 00.052-.1.288.288 0 01.046-.088c.012-.009.03-.05.043-.09a.617.617 0 01.051-.122.578.578 0 00.051-.13.814.814 0 01.052-.14.613.613 0 00.046-.161.662.662 0 01.045-.164.754.754 0 00.047-.189c.008-.07.026-.176.039-.238a3.648 3.648 0 000-1.25 3.788 3.788 0 01-.04-.25.714.714 0 00-.046-.196.563.563 0 01-.044-.15.577.577 0 00-.045-.154.815.815 0 01-.054-.143.576.576 0 00-.05-.129.643.643 0 01-.053-.125.342.342 0 00-.05-.106.26.26 0 01-.043-.085.297.297 0 00-.048-.092.467.467 0 01-.057-.096.277.277 0 00-.051-.08c-.014-.012-.025-.03-.025-.04 0-.011-.023-.05-.05-.086a1.03 1.03 0 01-.069-.1 2.287 2.287 0 00-.171-.23c-.114-.146-.557-.588-.648-.646a.198.198 0 01-.05-.043.182.182 0 00-.056-.042.501.501 0 01-.07-.044 1.134 1.134 0 00-.211-.149.363.363 0 01-.082-.052.362.362 0 00-.09-.053.388.388 0 01-.089-.05.297.297 0 00-.09-.046.3.3 0 01-.089-.044.414.414 0 00-.111-.053.581.581 0 01-.12-.053.424.424 0 00-.118-.044.539.539 0 01-.127-.044.756.756 0 00-.163-.053 1.23 1.23 0 01-.179-.052 1.029 1.029 0 00-.216-.044c-.086-.01-.21-.03-.276-.047-.133-.034-.694-.05-.923-.028m.625.016c.05.007.127.024.172.037.045.013.177.03.294.036.167.01.22.018.24.037.04.036.157.068.248.068.052 0 .084.008.097.023.032.039.077.057.17.068.048.006.095.02.104.032a.25.25 0 00.15.07c.023 0 .062.02.091.045.028.025.066.045.084.045.018 0 .066.024.106.052.04.029.088.052.106.052.02 0 .044.016.058.038.015.023.05.044.09.055.041.01.068.027.073.044.004.015.03.037.06.05a.168.168 0 01.064.042c.007.011.04.034.073.051a.263.263 0 01.086.07c.014.021.039.037.058.037.023 0 .04.015.053.045.012.027.031.045.048.045.016 0 .038.019.051.044.013.025.03.045.036.045.018 0 .165.142.165.16 0 .007.018.023.04.035a.128.128 0 01.051.056c.008.02.027.038.044.043.017.004.04.03.051.058.014.034.031.05.052.05.02 0 .03.01.03.03 0 .018.019.05.042.071a.437.437 0 01.07.097c.016.03.04.059.053.063.014.004.035.034.048.067.013.034.033.06.047.06.013 0 .023.01.023.022 0 .034.058.141.081.15.011.004.028.037.037.073.009.036.029.074.044.085.016.011.037.049.046.085a.26.26 0 00.051.098c.02.02.041.068.051.118.01.052.03.095.048.11.019.016.035.055.043.107.017.105.04.162.068.173.014.005.023.028.023.057 0 .09.031.224.063.268.022.031.033.072.037.134.01.212.039.423.065.492.038.102.042.626.005.715-.032.075-.051.2-.064.41-.01.145-.016.178-.046.218-.025.034-.038.08-.05.178-.01.087-.024.142-.04.162a.465.465 0 00-.067.205c-.005.031-.018.06-.03.064-.022.01-.045.062-.06.14a.248.248 0 01-.046.094.306.306 0 00-.05.098.206.206 0 01-.045.083.203.203 0 00-.045.083.293.293 0 01-.059.103.236.236 0 00-.053.095c-.005.03-.022.054-.04.063-.018.007-.038.035-.044.061-.007.026-.025.052-.04.057-.016.004-.037.03-.048.056a.37.37 0 01-.069.097c-.027.027-.049.062-.049.078 0 .02-.01.03-.03.03-.021 0-.037.014-.048.042a.153.153 0 01-.058.066c-.023.013-.042.034-.042.046 0 .013-.02.034-.045.049-.025.014-.045.035-.045.046 0 .011-.02.031-.044.045-.025.014-.049.038-.054.052-.004.014-.027.036-.05.048-.024.012-.047.035-.052.05-.005.016-.03.037-.054.047-.025.01-.048.034-.053.054-.006.025-.02.035-.044.035-.021 0-.045.015-.06.038a.244.244 0 01-.088.067c-.035.016-.067.038-.072.05-.004.013-.032.033-.062.046-.03.012-.058.036-.062.052-.005.017-.02.03-.037.03-.042 0-.113.04-.131.075-.01.016-.03.03-.046.03-.036 0-.084.022-.125.06a.268.268 0 01-.09.042.236.236 0 00-.096.054.115.115 0 01-.076.037c-.05 0-.143.038-.151.062-.004.01-.055.027-.115.037-.08.013-.12.028-.149.056-.03.029-.056.039-.102.039-.093 0-.204.028-.239.06-.02.02-.052.029-.096.029a2.29 2.29 0 00-.495.064c-.153.048-.654.047-.786-.002a1.257 1.257 0 00-.32-.05c-.18-.013-.24-.023-.263-.042a.459.459 0 00-.237-.06.151.151 0 01-.112-.038.297.297 0 00-.147-.055c-.055-.01-.106-.026-.113-.038-.016-.025-.102-.062-.147-.062a.152.152 0 01-.077-.037.332.332 0 00-.104-.055.351.351 0 01-.11-.06c-.027-.023-.065-.042-.085-.042a.076.076 0 01-.06-.035.178.178 0 00-.09-.056c-.036-.01-.07-.03-.074-.044-.004-.014-.03-.034-.056-.045a.371.371 0 01-.096-.069c-.027-.026-.06-.048-.075-.048-.014 0-.041-.02-.06-.045-.02-.025-.049-.045-.064-.045-.017 0-.035-.015-.043-.036a.117.117 0 00-.048-.054.274.274 0 01-.068-.06c-.02-.024-.044-.043-.055-.043-.011 0-.025-.014-.03-.03-.005-.017-.029-.04-.052-.052-.023-.012-.047-.036-.052-.053a.092.092 0 00-.045-.047.089.089 0 01-.044-.051.09.09 0 00-.044-.052.122.122 0 01-.052-.052.111.111 0 00-.053-.05c-.022-.009-.038-.026-.038-.043 0-.016-.02-.044-.044-.064-.025-.019-.045-.046-.045-.06 0-.014-.022-.048-.049-.075a.369.369 0 01-.068-.096c-.01-.026-.032-.05-.048-.054a.04.04 0 01-.029-.037.197.197 0 00-.073-.132.08.08 0 01-.03-.058c0-.02-.02-.058-.043-.084a.351.351 0 01-.059-.11.332.332 0 00-.055-.104.153.153 0 01-.037-.078c0-.045-.037-.13-.063-.147-.011-.007-.028-.057-.037-.113a.296.296 0 00-.055-.146c-.03-.035-.039-.062-.039-.117 0-.08-.032-.2-.064-.237-.014-.016-.025-.079-.031-.181a1.703 1.703 0 00-.066-.432c-.02-.054-.025-.122-.025-.357 0-.236.005-.303.025-.358.03-.081.052-.224.066-.431.006-.103.017-.165.031-.181a.478.478 0 00.064-.237c0-.094.098-.229.135-.184.01.011.024.021.032.021s.035.017.06.037c.024.02.053.037.065.037.011 0 .036.016.054.034.063.062.21.175.23.175.01 0 .024.01.032.024.007.013.04.042.072.063.193.128.228.153.228.164 0 .007.018.02.04.03.042.02.094.059.205.154a.35.35 0 00.077.057c.043.002.138.115.12.142a.515.515 0 00-.055.176.424.424 0 01-.037.106.773.773 0 00-.053.172.773.773 0 01-.038.146.864.864 0 00-.065.223.278.278 0 01-.037.106.423.423 0 00-.046.133.836.836 0 01-.059.178.635.635 0 00-.05.145.484.484 0 01-.044.127.524.524 0 00-.046.138.508.508 0 01-.044.136.717.717 0 00-.053.158.462.462 0 01-.046.133.456.456 0 00-.048.128.643.643 0 01-.052.143c-.062.095-.016.213.064.166a1.4 1.4 0 01.082-.042.282.282 0 00.073-.053.449.449 0 01.082-.064.31.31 0 00.072-.059c.01-.015.03-.027.043-.027.012 0 .04-.018.062-.04a.43.43 0 01.095-.07c.031-.016.056-.034.056-.041 0-.007.03-.027.067-.045.037-.018.07-.045.076-.06.004-.014.02-.027.033-.027.014 0 .046-.019.071-.043a.566.566 0 01.108-.074c.034-.018.062-.038.062-.046s.02-.024.043-.036a.5.5 0 00.078-.053c.042-.036.116-.09.202-.146.035-.022.063-.049.064-.06 0-.01.022-.028.049-.042a.224.224 0 00.067-.053c.011-.015.029-.027.04-.027.01 0 .046-.02.08-.044a.699.699 0 01.113-.067c.03-.012.057-.032.062-.044.005-.012.037-.037.07-.054a.242.242 0 00.075-.053.174.174 0 01.06-.045.258.258 0 00.07-.051.122.122 0 01.17-.008.456.456 0 00.096.068c.032.016.06.035.063.042.003.007.034.03.068.053.035.021.064.045.064.052 0 .008.026.024.057.037a.303.303 0 01.08.044.423.423 0 00.08.052c.032.017.105.072.161.121.057.05.108.09.113.09.006 0 .031.02.057.045.026.025.056.045.067.045.01 0 .034.015.05.033.018.019.077.064.131.1.055.037.12.085.146.107a.318.318 0 00.081.049c.019.006.034.017.034.024 0 .008.028.032.063.054.035.023.085.06.112.083.027.022.06.041.071.041.013 0 .027.01.032.023.004.012.03.034.055.047a.7.7 0 01.105.074c.032.027.067.05.078.05.01 0 .03.016.043.036.013.02.041.043.063.051a.38.38 0 01.081.049c.097.078.136-.072.056-.22a.375.375 0 01-.044-.129.319.319 0 00-.036-.113.535.535 0 01-.069-.2.4.4 0 00-.037-.11.776.776 0 01-.052-.154.77.77 0 00-.051-.152.853.853 0 01-.052-.147.897.897 0 00-.053-.148.402.402 0 01-.037-.127.332.332 0 00-.036-.116.77.77 0 01-.051-.133c-.045-.18-.052-.204-.062-.204a.448.448 0 01-.037-.13c-.027-.142-.053-.227-.069-.227-.005 0-.018-.042-.029-.093a.776.776 0 00-.03-.117c-.014-.026.057-.103.142-.155a.265.265 0 00.064-.055c.011-.015.029-.027.04-.027s.04-.02.062-.045c.024-.024.05-.044.058-.044a.25.25 0 00.075-.05.697.697 0 01.107-.075c.027-.014.048-.031.048-.04 0-.007.023-.023.05-.035a.193.193 0 00.071-.05.216.216 0 01.066-.052.892.892 0 00.184-.146.21.21 0 01.077-.048.385.385 0 00.104-.062.288.288 0 01.084-.053c.01 0 .03-.017.043-.037.014-.02.034-.037.046-.037.012 0 .038-.017.058-.037a.381.381 0 01.078-.058.488.488 0 00.088-.067c.027-.026.057-.047.067-.047.01 0 .035-.016.056-.037.098-.096.152-.141.17-.141.01 0 .035-.018.055-.039a.455.455 0 01.105-.074c.067-.034.087-.064.087-.136 0-.034-.104-.064-.157-.043-.013.004-.574.009-1.247.009H6.932l-.043-.075a.658.658 0 01-.064-.205.782.782 0 00-.05-.182.728.728 0 01-.05-.148.465.465 0 00-.05-.134.458.458 0 01-.048-.142.648.648 0 00-.048-.156.694.694 0 01-.05-.157.494.494 0 00-.05-.142.425.425 0 01-.046-.127.612.612 0 00-.048-.14.692.692 0 01-.05-.155.761.761 0 00-.038-.132c-.013-.025-.007-.038.036-.082l.052-.051.214-.014c.214-.013.319-.028.354-.05.056-.034.471-.049.634-.022m-1.922.312c-.05.024-.11.048-.134.054a.182.182 0 00-.068.035.289.289 0 01-.082.044.717.717 0 00-.123.063.473.473 0 01-.101.052c-.019.005-.034.014-.034.02s-.037.03-.082.054a.304.304 0 00-.082.053c0 .005-.025.025-.055.044-.031.018-.08.052-.108.075a.228.228 0 01-.065.042c-.008 0-.03.015-.048.034a9.874 9.874 0 00-.62.61l-.101.114a.245.245 0 00-.045.062.437.437 0 01-.06.083.326.326 0 00-.059.09c0 .01-.013.027-.03.039a.197.197 0 00-.05.072.226.226 0 01-.045.071c-.03.025-.06.12-.044.137.023.022 1.532.018 1.568-.004.035-.022.06-.086.06-.154 0-.055.022-.13.055-.19a.676.676 0 00.043-.14.567.567 0 01.05-.145.489.489 0 00.047-.129.948.948 0 01.053-.161.835.835 0 00.051-.156.582.582 0 01.045-.134.573.573 0 00.044-.131.812.812 0 01.059-.166.445.445 0 00.044-.132c0-.023.017-.078.038-.123.065-.142.04-.16-.121-.083m.044.117a.606.606 0 01-.044.13.899.899 0 00-.05.147.666.666 0 01-.047.13.764.764 0 00-.05.155.844.844 0 01-.05.16.691.691 0 00-.047.141.53.53 0 01-.051.141.44.44 0 00-.047.13.656.656 0 01-.046.144.915.915 0 00-.055.198c-.016.1-.027.128-.066.168l-.046.048-.686-.004c-.66-.004-.685-.005-.7-.033-.02-.038.012-.15.047-.16.013-.004.033-.028.043-.054a.356.356 0 01.069-.096c.027-.027.049-.061.049-.077 0-.015.02-.042.045-.06.024-.017.044-.045.044-.06 0-.018.016-.036.039-.044a.112.112 0 00.055-.06c.01-.025.028-.044.042-.044.014 0 .034-.02.044-.042a.17.17 0 01.061-.067c.023-.013.042-.034.042-.046 0-.013.02-.033.044-.046.024-.012.047-.035.052-.05a.06.06 0 01.039-.036c.016-.005.04-.029.055-.054.014-.025.04-.047.056-.05.016-.002.038-.022.049-.045.011-.023.032-.04.048-.04s.04-.017.053-.038a.24.24 0 01.089-.066.199.199 0 00.08-.059c.01-.017.027-.031.04-.031.013 0 .042-.02.066-.044a.297.297 0 01.098-.06.224.224 0 00.084-.054c.017-.02.046-.036.064-.036.018 0 .061-.023.096-.052.034-.028.075-.052.091-.052.034 0 .076-.02.118-.057.088-.075.195-.06.183.024" id="svg_6"/></g></g></svg>