<svg width="38" height="24" viewBox="0 0 38 24" fill="none" xmlns="http://www.w3.org/2000/svg" role="img" aria-labelledby="pi-vodafone"><title id="pi-vodafone">Vodafone</title><g clip-path="url(#pi-vodafone-clip)"><path d="M35 .5H3A2.5 2.5 0 00.5 3v18A2.5 2.5 0 003 23.5h32a2.5 2.5 0 002.5-2.5V3A2.5 2.5 0 0035 .5z" stroke="#000" stroke-opacity=".07"/><rect x="1" y="1" width="36" height="22" rx="2" fill="#fff"/><path d="M11.875 12c0 4.97-1.986 9-4.437 9C4.987 21 3 16.97 3 12s1.987-9 4.438-9c2.45 0 4.437 4.03 4.437 9z" fill="#EE3023"/><path d="M7.412 20.134c-1.202.01-2.453-2.569-2.46-6.712-.003-2.738.586-5.376 1.337-6.94.733-1.524 1.738-2.504 2.648-2.512.117 0 .24.024.315.09-.796.413-1.43 2.277-1.427 4.389 0 .07.002.145.005.18 1.333.816 1.938 2.837 1.942 5.632.003 2.797-.875 5.86-2.36 5.873z" fill="#fff"/><path d="M14.246 16.032L13.085 9.63h.758l.725 4.25.702-4.25h.724l-1.127 6.402h-.62zM18.015 12.797c0-.266-.013-.519-.04-.759a3.334 3.334 0 00-.12-.619 1.342 1.342 0 00-.196-.413c-.077-.103-.167-.155-.27-.155-.104 0-.194.052-.27.155a1.322 1.322 0 00-.196.413 3.334 3.334 0 00-.12.62c-.028.24-.04.492-.04.758 0 .276.012.532.04.768.026.235.065.442.117.619.051.177.117.318.196.42.078.102.17.154.273.154.103 0 .193-.052.27-.153.076-.104.141-.244.195-.421.054-.177.094-.384.12-.62.028-.235.041-.49.041-.767zm.702.008c0 .417-.028.827-.083 1.23a5.773 5.773 0 01-.248 1.081c-.109.32-.247.576-.414.771-.167.195-.361.292-.583.292-.223 0-.418-.097-.584-.292a2.345 2.345 0 01-.414-.77 5.836 5.836 0 01-.247-1.082 9.067 9.067 0 010-2.453 5.69 5.69 0 01.247-1.069c.11-.314.248-.565.414-.756.166-.19.361-.287.584-.287.222 0 .416.097.58.287.165.19.303.442.414.757.112.314.195.67.25 1.068.056.4.084.806.084 1.223zM20.858 11.039c-.137-.125-.265-.188-.383-.188a.397.397 0 00-.314.162 1.27 1.27 0 00-.218.432c-.057.182-.1.387-.128.614-.029.226-.044.46-.044.7 0 .266.013.52.038.765.024.244.063.458.114.64.051.183.116.33.194.44.079.11.171.167.278.167.088 0 .177-.057.269-.166.091-.112.156-.244.194-.394V11.04zm.058 4.993l-.029-.49c-.065.167-.15.315-.258.443a.479.479 0 01-.378.193c-.19 0-.36-.093-.504-.279a2.367 2.367 0 01-.367-.743 6.05 6.05 0 01-.227-1.077 10.245 10.245 0 01-.077-1.275c0-.416.027-.824.08-1.222.054-.398.135-.755.243-1.069.11-.314.246-.566.41-.756.165-.19.358-.287.58-.287.144 0 .301.063.47.185V7.172h.712v8.86h-.655zM23.578 13.03c-.077.01-.157.026-.238.047a1.377 1.377 0 00-.23.087.595.595 0 00-.322.364c-.06.174-.09.361-.09.566 0 .211.034.382.102.511.067.127.162.192.286.192.093 0 .183-.044.269-.132.087-.089.161-.2.223-.332V13.03zm.057 2.997l-.028-.479a1.245 1.245 0 01-.294.463.564.564 0 01-.393.168.522.522 0 01-.343-.14 1.19 1.19 0 01-.292-.399 2.669 2.669 0 01-.204-.637 4.256 4.256 0 01-.078-.857c0-.318.026-.6.08-.844.054-.243.127-.448.22-.617.092-.168.198-.305.317-.411.119-.106.244-.187.375-.24.092-.044.193-.076.303-.099.11-.022.2-.042.274-.06v-.093c0-.355-.039-.606-.119-.758-.078-.15-.187-.225-.325-.225a.435.435 0 00-.232.067.81.81 0 00-.196.165 1.845 1.845 0 00-.26.379l-.236-1.155c.03-.063.077-.137.14-.225.064-.089.14-.176.23-.26.09-.084.192-.155.305-.213a.79.79 0 01.365-.087.69.69 0 01.42.14c.127.094.236.24.328.439.092.198.163.45.216.756.051.305.077.674.077 1.108v4.114h-.65zM26.487 8.633a.912.912 0 00-.134-.113.45.45 0 00-.268-.072c-.1 0-.183.069-.25.206-.067.137-.1.361-.1.67v.305h.597v1.329h-.592v5.073h-.713v-5.073h-.368V9.629h.368v-.345c0-.416.023-.767.069-1.056.046-.287.11-.522.192-.703.083-.182.18-.316.29-.4A.591.591 0 0125.943 7c.172 0 .314.037.427.113.113.076.18.126.199.153l-.08 1.367zM28.43 12.797c0-.266-.013-.519-.04-.759a3.334 3.334 0 00-.12-.619 1.342 1.342 0 00-.196-.413c-.077-.103-.167-.155-.27-.155-.103 0-.194.052-.27.155a1.338 1.338 0 00-.196.413 3.445 3.445 0 00-.12.62c-.027.24-.04.492-.04.758 0 .276.013.532.04.768.026.235.065.442.117.619.052.177.117.318.195.42.08.102.17.154.274.154.103 0 .193-.052.27-.153.077-.104.142-.244.195-.421.054-.177.095-.384.121-.62.027-.235.04-.49.04-.767zm.702.008c0 .417-.028.827-.084 1.23a5.72 5.72 0 01-.247 1.081c-.109.32-.247.576-.414.771-.166.195-.361.292-.583.292-.223 0-.417-.097-.583-.292a2.349 2.349 0 01-.415-.77 5.837 5.837 0 01-.247-1.082 8.955 8.955 0 01-.083-1.23c0-.416.027-.823.083-1.223a5.69 5.69 0 01.247-1.069c.11-.314.248-.565.415-.756.166-.19.36-.287.583-.287.222 0 .416.097.58.287.165.19.303.442.414.757.112.314.195.67.25 1.068.056.4.084.806.084 1.223zM31.345 16.032V12.38c0-.487-.044-.864-.132-1.13-.089-.265-.21-.399-.369-.399-.11 0-.213.067-.307.2a2.39 2.39 0 00-.245.439v4.542h-.712V9.629h.65l.034.505a1.57 1.57 0 01.377-.49.658.658 0 01.422-.173c.146 0 .28.05.402.152.123.103.229.264.317.485.088.221.156.51.204.863.047.354.072.78.072 1.275v3.786h-.713zM34.276 12.06a3.605 3.605 0 00-.061-.576 1.741 1.741 0 00-.121-.399.696.696 0 00-.156-.227.263.263 0 00-.171-.072c-.123 0-.24.106-.352.319-.112.213-.178.53-.197.956h1.058zM33.2 13.244c.015.54.088.93.22 1.168.13.24.3.36.507.36.096 0 .187-.02.271-.06.084-.04.16-.09.225-.153a1.43 1.43 0 00.168-.185.956.956 0 00.104-.174l.19 1.343a2.25 2.25 0 01-.13.179c-.06.075-.133.145-.221.212a1.45 1.45 0 01-.31.173c-.12.048-.25.072-.392.072a.806.806 0 01-.515-.198c-.162-.134-.305-.34-.427-.619a4.543 4.543 0 01-.294-1.041 8.713 8.713 0 01-.11-1.489c0-.54.034-1.018.101-1.434.067-.416.16-.766.276-1.05.117-.282.253-.5.408-.651.156-.15.321-.226.498-.226.176 0 .339.068.489.2.15.132.278.339.388.617.109.28.195.64.258 1.084.064.442.095.969.095 1.58v.292h-1.799z" fill="#EE3023"/></g><defs><clipPath id="pi-vodafone-clip"><path fill="#fff" d="M0 0h38v24H0z"/></clipPath></defs></svg>