<svg xmlns="http://www.w3.org/2000/svg" width="38" height="24" fill="none" aria-labelledby="pi-volt" role="img" viewBox="0 0 38 24"><title id="pi-volt">Volt</title><path fill="#131735" d="M0 0h38v24H0z"/><path fill="#6AE69E" d="m14.26 9.23-4.04 8.48-4.05-8.48h1.8l2.25 4.84 2.25-4.84h1.8Zm0-3.68H6.17v1.48h8.1V5.55Zm11.49 0h-1.64V17.5h1.64zm4.32 3.68v-2.2h-1.65v2.2h-1.34v1.49h1.34v6.78h1.65v-6.78h.62c.37 0 .7-.22.87-.57l.44-.92zm-11.6-.08a4.25 4.25 0 0 0-4.28 4.21 4.25 4.25 0 0 0 4.28 4.22 4.25 4.25 0 0 0 4.28-4.21 4.25 4.25 0 0 0-4.28-4.22m0 6.85a2.65 2.65 0 0 1-2.66-2.63 2.65 2.65 0 0 1 2.66-2.64 2.64 2.64 0 0 1 2.66 2.63A2.65 2.65 0 0 1 18.47 16"/></svg>