<svg xmlns="http://www.w3.org/2000/svg" role="img" viewBox="0 0 38 24" width="38" height="24" aria-labelledby="pi-vvv_cadeaukaart">
    <title id="pi-vvv_cadeaukaart">VVV Cadeaukaart</title>
    <path d="M35 0H3C1.3 0 0 1.3 0 3v18c0 1.7 1.4 3 3 3h32c1.7 0 3-1.3 3-3V3c0-1.7-1.4-3-3-3z" opacity=".07"/>
    <path d="M35 1c1.1 0 2 .9 2 2v18c0 1.1-.9 2-2 2H3c-1.1 0-2-.9-2-2V3c0-1.1.9-2 2-2h32" class="st1"/>
    <path fill="none" d="M33.37 55.65H14.34c-1.37 0-2.49-1.12-2.49-2.49V34.14c0-1.37 1.12-2.49 2.49-2.49h19.02c1.37 0 2.49 1.12 2.49 2.49v19.02c.01 1.37-1.11 2.49-2.48 2.49z"/>
    <path fill="#fff" d="M27.75 6.16c-.01.42-.11.79-.3 1.13-.59 1.01-1.18 2.03-1.78 3.04-.73 1.26-1.47 2.52-2.2 3.78-.72 1.23-1.45 2.47-2.16 3.7-.2.35-.41.71-.61 1.05-.43.7-1.05 1.07-1.87 1.07-.81 0-1.45-.38-1.84-1.08-.72-1.28-1.44-2.57-2.15-3.85-1.08-1.93-2.15-3.86-3.22-5.79-.39-.69-.78-1.38-1.15-2.08-.59-1.14.04-2.6 1.28-2.96.22-.06.45-.1.68-.1h13.14c1.12 0 1.99.75 2.16 1.86.01.08.01.17.02.23zm-4.54 2.79c-.03-.04-.04-.06-.05-.09-.59-1.03-1.18-2.06-1.78-3.09-.07-.11-.18-.23-.3-.3-.32-.19-.71-.13-.98.12-.26.26-.32.65-.13.98.38.67.77 1.33 1.15 2 .45.79.91 1.58 1.37 2.37.34.6 1.1.61 1.45.01.55-.94 1.09-1.89 1.64-2.83.3-.51.6-1.02.89-1.53.28-.5-.01-1.11-.58-1.21-.33-.05-.65.11-.83.41-.53.92-1.07 1.83-1.6 2.75-.08.13-.16.26-.25.41zM14.74 9c-.03-.05-.05-.08-.07-.11-.59-1.02-1.17-2.05-1.76-3.07-.2-.36-.63-.51-1-.35-.37.15-.59.56-.48.94.04.17.14.32.23.47.79 1.39 1.6 2.79 2.4 4.17.17.29.51.45.85.38.26-.05.45-.2.58-.43.37-.64.75-1.3 1.12-1.94.47-.81.93-1.61 1.4-2.42.3-.52-.04-1.17-.64-1.21-.36-.03-.62.15-.79.46-.51.89-1.02 1.77-1.54 2.66-.11.14-.2.29-.3.45zm4.24 7.27c-.03-.04-.04-.06-.06-.09-.22-.39-.44-.77-.66-1.15-.37-.64-.74-1.29-1.1-1.92-.15-.26-.38-.41-.69-.42-.31-.01-.56.12-.71.39-.17.27-.17.56-.01.84.84 1.46 1.67 2.92 2.51 4.38.33.57 1.09.58 1.43.01.26-.44.51-.88.77-1.32.59-1.02 1.18-2.05 1.77-3.06.26-.43.06-.99-.41-1.16-.37-.14-.78 0-1 .35-.54.93-1.08 1.85-1.61 2.79-.07.09-.15.22-.23.36z"/>
    <path d="M23.21 8.95c.09-.15.17-.28.25-.41.53-.92 1.06-1.83 1.6-2.75.18-.31.5-.47.83-.41.56.1.86.71.58 1.21-.29.51-.59 1.02-.89 1.53-.55.94-1.09 1.89-1.64 2.83-.35.6-1.1.6-1.45-.01-.46-.79-.91-1.58-1.37-2.37-.38-.67-.77-1.33-1.15-2-.19-.33-.13-.72.13-.98s.66-.32.98-.12c.11.07.23.18.3.3.6 1.03 1.19 2.06 1.78 3.09.01.03.03.05.05.09zM14.74 9c.1-.17.19-.32.27-.47.51-.89 1.03-1.77 1.54-2.66.18-.31.43-.48.79-.46.61.05.96.69.66 1.21-.47.81-.93 1.61-1.4 2.42-.37.64-.75 1.3-1.12 1.94-.13.23-.32.38-.58.43-.33.06-.68-.09-.85-.38l-2.4-4.17c-.09-.15-.19-.3-.23-.47-.11-.39.11-.79.48-.94s.8 0 1 .35c.59 1.02 1.17 2.05 1.76 3.07.03.05.06.09.08.13zM18.98 16.27c.08-.14.16-.26.23-.4.54-.93 1.08-1.86 1.61-2.79.2-.35.62-.49 1-.35.47.19.66.73.41 1.16-.59 1.02-1.18 2.05-1.77 3.06-.26.44-.51.88-.77 1.32-.33.57-1.09.56-1.43-.01-.84-1.45-1.67-2.92-2.51-4.38-.16-.28-.16-.56.01-.84.16-.26.41-.4.71-.39.3.01.54.16.69.42.37.64.74 1.29 1.1 1.92.22.39.44.77.66 1.15.02.06.04.09.06.13z" class="st1"/>
</svg>