<svg xmlns="http://www.w3.org/2000/svg" xmlns:xlink="http://www.w3.org/1999/xlink" width="38" height="24" fill="none" aria-labelledby="pi-vvv_giftcard" role="img" viewBox="0 0 38 24"><title id="pi-vvv_giftcard">VVV Giftcard</title><defs><path id="pi-vvv_giftcard-b" fill="#fff" d="M0 0h38v24H0z"/></defs><g clip-path="url(#pi-vvv_giftcard-a)"><use xlink:href="#pi-vvv_giftcard-b"/><path fill="url(#pi-vvv_giftcard-c)" d="M37.85-1.7H-1.31v27.17h39.16z"/><path fill="url(#pi-vvv_giftcard-d)" d="M52.88-1 37.41 25.77a4.82 4.82 0 0 1-8.36 0L18.42 7.4 23.33-1z"/><path fill="url(#pi-vvv_giftcard-e)" d="m23.33-1-4.88 8.4L13.61-1z"/><path fill="url(#pi-vvv_giftcard-f)" d="m13.61-1 4.84 8.4-4.84 8.4a4.44 4.44 0 0 1-7.66 0L-3.77-1z"/><path fill="url(#pi-vvv_giftcard-g)" d="M8.4 38.71h19.88a2.92 2.92 0 0 0 2.53-4.36l-9.97-17.2a2.9 2.9 0 0 0-5.03 0l-9.93 17.2A2.92 2.92 0 0 0 8.4 38.7Z"/><g filter="url(#pi-vvv_giftcard-h)"><path fill="#000" d="m9.53 6.04 1.65-2.09h14.39l2.1 2.09-8.25 15.23h-2.1L9.52 6.04Z"/></g><path fill="#20419A" d="m9.53 6.04 1.65-2.09h14.39l2.1 2.09-8.25 15.23h-2.1L9.52 6.04Z"/><path fill="#fff" d="M24.17 11.87a.93.93 0 0 1-1.27.34.93.93 0 0 1-.34-.35L19.7 6.81a.94.94 0 0 1 .69-1.4.92.92 0 0 1 .92.47l2.07 3.64 2.09-3.63a.92.92 0 0 1 1.27-.34c.44.26.59.83.33 1.28l-2.89 5.04Zm-4.8 8.37a.92.92 0 0 1-1.6 0l-2.88-5.05a.94.94 0 0 1 .69-1.4.92.92 0 0 1 .92.46l2.07 3.65 2.09-3.64a.92.92 0 0 1 1.27-.34c.44.26.59.83.33 1.28zm-6.4-8.32L10.1 6.87a.94.94 0 0 1 .68-1.4.92.92 0 0 1 .92.46l2.08 3.65 2.08-3.64a.92.92 0 0 1 1.27-.34c.44.26.6.83.34 1.28l-2.9 5.04a.92.92 0 0 1-1.6 0M26.1 3.95h-15a2.4 2.4 0 0 0-2.4 2.4c0 .42.1.84.3 1.21l7.32 13.3a2.4 2.4 0 0 0 4.18.04l7.67-13.3a2.45 2.45 0 0 0-.87-3.32 2.4 2.4 0 0 0-1.2-.33"/></g><defs><linearGradient id="pi-vvv_giftcard-c" x1="24.03" x2="10.89" y1="16.09" y2="21.56" gradientUnits="userSpaceOnUse"><stop offset="0" stop-color="#83D0F5"/><stop offset=".47" stop-color="#0F99D6"/><stop offset="1" stop-color="#263680"/></linearGradient><linearGradient id="pi-vvv_giftcard-d" x1="40.92" x2="44.54" y1="-4.44" y2="8.49" gradientUnits="userSpaceOnUse"><stop stop-color="#0F99D6"/><stop offset="1" stop-color="#263680"/></linearGradient><linearGradient id="pi-vvv_giftcard-e" x1="15.68" x2="14.86" y1="6.65" y2="-.17" gradientUnits="userSpaceOnUse"><stop stop-color="#E3127E"/><stop offset=".01" stop-color="#E3127E"/><stop offset="1" stop-color="#6F237F"/></linearGradient><linearGradient id="pi-vvv_giftcard-f" x1="3.25" x2="-1.72" y1="16.09" y2="1.01" gradientUnits="userSpaceOnUse"><stop stop-color="#FBBF07"/><stop offset=".47" stop-color="#EF8A09"/><stop offset="1" stop-color="#E74517"/></linearGradient><linearGradient id="pi-vvv_giftcard-g" x1="20.33" x2="21.55" y1="17.54" y2="26.49" gradientUnits="userSpaceOnUse"><stop stop-color="#98C12C"/><stop offset="1" stop-color="#0A873C"/><stop offset="1" stop-color="#0A873C"/></linearGradient><clipPath id="pi-vvv_giftcard-a"><use xlink:href="#pi-vvv_giftcard-b"/></clipPath><filter id="pi-vvv_giftcard-h" width="26.95" height="26.13" x="5.13" y=".65" color-interpolation-filters="sRGB" filterUnits="userSpaceOnUse"><feFlood flood-opacity="0" result="BackgroundImageFix"/><feColorMatrix in="SourceAlpha" result="hardAlpha" values="0 0 0 0 0 0 0 0 0 0 0 0 0 0 0 0 0 0 127 0"/><feOffset dy="1.1"/><feGaussianBlur stdDeviation="2.2"/><feColorMatrix values="0 0 0 0 0 0 0 0 0 0 0 0 0 0 0 0 0 0 0.29563 0"/><feBlend in2="BackgroundImageFix" result="effect1_dropShadow_4142_979"/><feBlend in="SourceGraphic" in2="effect1_dropShadow_4142_979" result="shape"/></filter></defs></svg>