<svg xmlns="http://www.w3.org/2000/svg" role="img" viewBox="0 0 38 24" width="38" height="24" aria-labelledby="pi-vvv_giftcard"><title id="pi-vvv_giftcard">VVV Giftcard</title><mask id="pi-vvv_giftcard-a" maskUnits="userSpaceOnUse" x="0" y="0" width="38" height="24"><path d="M35 0H3C1.3 0 0 1.3 0 3v18c0 1.7 1.4 3 3 3h32c1.7 0 3-1.3 3-3V3c0-1.7-1.4-3-3-3z" fill="#fff"/></mask><g mask="url(#pi-vvv_giftcard-a)"><path d="M35.6 0H0v24.7h35.6V0z" transform="matrix(1.1 0 0 1.1 -1.31 -1.697)" fill="url(#pi-vvv_giftcard-paint0_linear)"/><path d="M31.333 0L17.267 24.333c-1.7 2.934-5.934 2.934-7.6 0L0 7.633 4.467 0h26.866z" transform="matrix(1.1 0 0 1.1 18.416 -1)" fill="url(#pi-vvv_giftcard-paint1_linear)"/><path d="M8.833 0L4.399 7.633 0 0h8.833z" transform="matrix(1.1 0 0 1.1 13.614 -1)" fill="url(#pi-vvv_giftcard-paint2_linear)"/><path d="M15.8 0l4.4 7.633-4.4 7.634c-1.533 2.666-5.433 2.666-6.967 0L0 0h15.8z" transform="matrix(1.1 0 0 1.1 -3.766 -1)" fill="url(#pi-vvv_giftcard-paint3_linear)"/><path d="M2.65 20.925h18.066c2.033 0 3.3-2.2 2.3-3.967L13.949 1.325c-1.033-1.767-3.567-1.767-4.567 0L.35 16.958c-1 1.767.267 3.967 2.3 3.967z" transform="matrix(1.1 0 0 1.1 5.492 15.693)" fill="url(#pi-vvv_giftcard-paint4_linear)"/><path d="M0 1.9L1.5 0h13.083L16.5 1.9 9 15.75H7.083L0 1.9z" transform="matrix(1.1 0 0 1.1 9.525 3.95)" fill="#000" filter="url(#pi-vvv_giftcard-filter0_d)"/><path d="M9.525 6.04l1.65-2.09h14.391l2.109 2.09-8.25 15.235h-2.109L9.525 6.04z" fill="#20419A"/><path d="M24.172 11.867a.927.927 0 01-.805.467.93.93 0 01-.803-.47l-2.873-5.05a.942.942 0 01.341-1.28.922.922 0 011.266.345l2.074 3.644 2.085-3.637a.924.924 0 011.269-.341c.442.26.594.834.336 1.281l-2.89 5.04zm-4.8 8.374a.924.924 0 01-1.606-.002l-2.873-5.05a.944.944 0 01.341-1.28.922.922 0 011.266.345l2.074 3.643 2.085-3.636a.922.922 0 011.267-.34c.444.259.594.832.338 1.28l-2.892 5.04zm-6.403-8.323L10.096 6.87a.943.943 0 01.34-1.28.922.922 0 011.266.345l2.074 3.644 2.085-3.637a.923.923 0 011.267-.341c.443.26.594.834.338 1.281l-2.89 5.04a.924.924 0 01-1.607-.003zM26.095 3.95h-14.99a2.398 2.398 0 00-2.073 1.198 2.45 2.45 0 00-.028 2.412l7.315 13.291a2.402 2.402 0 002.077 1.249 2.4 2.4 0 002.103-1.205l7.674-13.29a2.45 2.45 0 00.008-2.435 2.4 2.4 0 00-2.086-1.22z" fill="#fff"/></g><defs><linearGradient id="pi-vvv_giftcard-paint0_linear" x2="1" gradientUnits="userSpaceOnUse" gradientTransform="scale(-13.4633 -9.34092) rotate(-16.107 -6.972 5.181)"><stop offset=".002" stop-color="#83D0F5"/><stop offset=".467" stop-color="#0F99D6"/><stop offset="1" stop-color="#263680"/></linearGradient><linearGradient id="pi-vvv_giftcard-paint1_linear" x2="1" gradientUnits="userSpaceOnUse" gradientTransform="matrix(4.45329 11.4306 -13.49837 3.7711 20.46 -3.131)"><stop stop-color="#0F99D6"/><stop offset="1" stop-color="#263680"/></linearGradient><linearGradient id="pi-vvv_giftcard-paint2_linear" x2="1" gradientUnits="userSpaceOnUse" gradientTransform="matrix(-.98307 -6.17656 7.14692 -.8496 1.875 6.957)"><stop stop-color="#E3127E"/><stop offset=".005" stop-color="#E3127E"/><stop offset="1" stop-color="#6F237F"/></linearGradient><linearGradient id="pi-vvv_giftcard-paint3_linear" x2="1" gradientUnits="userSpaceOnUse" gradientTransform="scale(-16.5887 -14.1798) rotate(68.915 .606 -.828)"><stop stop-color="#FBBF07"/><stop offset=".47" stop-color="#EF8A09"/><stop offset="1" stop-color="#E74517"/></linearGradient><linearGradient id="pi-vvv_giftcard-paint4_linear" x2="1" gradientUnits="userSpaceOnUse" gradientTransform="matrix(1.37159 8.10027 -9.04473 1.22836 13.49 1.677)"><stop stop-color="#98C12C"/><stop offset=".999" stop-color="#0A873C"/><stop offset="1" stop-color="#0A873C"/></linearGradient><filter id="pi-vvv_giftcard-filter0_d" x="3.75" y="1.5" width="24.5" height="23.75" filterUnits="userSpaceOnUse" color-interpolation-filters="sRGB"><feFlood flood-opacity="0" result="BackgroundImageFix"/><feColorMatrix in="SourceAlpha" values="0 0 0 0 0 0 0 0 0 0 0 0 0 0 0 0 0 0 255 0"/><feOffset dy="1"/><feGaussianBlur stdDeviation="2"/><feColorMatrix values="0 0 0 0 0 0 0 0 0 0 0 0 0 0 0 0 0 0 0.29563 0"/><feBlend in2="BackgroundImageFix" result="effect1_dropShadow"/><feBlend in="SourceGraphic" in2="effect1_dropShadow" result="shape"/></filter></defs></svg>