<svg data-name="Layer 1" xmlns="http://www.w3.org/2000/svg" width="38" height="24" aria-labelledby="pi-waafipay" role="img" viewBox="0 0 38 24"><title id="pi-waafipay">Waafipay</title><defs><linearGradient id="pi-waafipay-ff4db517-b50c-4eca-90c2-347aa0f4eb36" x1="11.26" y1="9.47" x2="2.39" y2="14.48" gradientUnits="userSpaceOnUse"><stop offset="0" stop-color="#70c639"/><stop offset="1" stop-color="#47bb43"/></linearGradient><linearGradient id="ee0d5d85-4edb-425a-9e80-a0a27edae826" x1="9.66" y1="10.35" x2="2.43" y2="14.45" gradientTransform="rotate(28.16 6.26 12.288)" gradientUnits="userSpaceOnUse"><stop offset="0" stop-color="#a4d42a"/><stop offset="1" stop-color="#47bb43"/></linearGradient><style>.a4e60dc5-d81f-4e57-94ab-99a37c50a6c6{fill:#fff}.a9157a26-2116-4072-8da2-b0915f3345e2{fill:#686767}.a5ae9409-607e-4d8b-a750-94aff03fb050{fill:#676666}.ae549f92-caaa-4123-a9b2-4b9aef89a119{fill:#fdfdfd}</style></defs><path class="a4e60dc5-d81f-4e57-94ab-99a37c50a6c6" d="M0 .05h37.98v23.99H0z"/><path d="M35 0H3a3 3 0 00-3 3v18a3 3 0 003 3h32a3 3 0 003-3V3a3 3 0 00-3-3zm2 21a2 2 0 01-2 2H3a2 2 0 01-2-2V3a2 2 0 012-2h32a2 2 0 012 2z" style="isolation:isolate" opacity=".07"/><path class="a9157a26-2116-4072-8da2-b0915f3345e2" d="M16.13 12.51v-.06l.78-2.34A.06.06 0 0117 10h.36a.06.06 0 010 .06c-.32 1-.64 1.94-1 2.9 0 .1 0 .09-.11.09H16c-.08 0-.06 0-.08-.06l-.36-1c-.14-.42-.28-.83-.43-1.25a.06.06 0 000-.06c0 .1-.07.2-.1.3l-.7 2c0 .07 0 .07-.09.07h-.34c-.06 0-.06 0-.08-.05-.11-.35-.23-.7-.34-1l-.63-1.87a.24.24 0 010-.08h.39c.05 0 .05 0 .07.05.1.29.19.58.29.86.16.5.33 1 .49 1.49V12.44l.81-2.32c0-.08 0-.07.09-.07h.27c.06 0 .06 0 .08.06.08.22.15.44.22.66.2.57.39 1.14.58 1.7-.03.01-.02.02-.01.04zM28.34 11.56V10.1c0-.06 0-.06.06-.06h1.18a1.69 1.69 0 01.63.13.93.93 0 01.58.78 1.15 1.15 0 01-.07.58 1 1 0 01-.59.54 1.81 1.81 0 01-.61.1h-.71v.86h-.41c-.07 0-.06 0-.06-.07v-1.4zm.44-.45v.62c0 .06 0 .06.06.06h.72a1 1 0 00.47-.1.61.61 0 00.3-.33.85.85 0 000-.23.61.61 0 00-.48-.65 1.34 1.34 0 00-.35-.05h-.7v.06zM23.78 13.09h-.36a.11.11 0 01-.13-.09l-.29-.61a.08.08 0 00-.09-.06h-1.47a.08.08 0 00-.09.06l-.29.65a.07.07 0 01-.07.05h-.39a.08.08 0 010-.06l.66-1.47.66-1.45h.37l.05.05c.05.05.15.33.23.5.37.8.73 1.61 1.1 2.41a.24.24 0 01.11.02zM22.84 12l-.66-1.48c-.22.5-.43 1-.65 1.48zM20.53 13.09h-.41-.05l-.15-.35-.15-.33a.05.05 0 00-.06 0h-1.52s-.06 0-.07.05c-.1.21-.2.43-.29.64a.09.09 0 01-.1.07h-.37v-.08l.63-1.4c.23-.49.45-1 .67-1.48s0-.05.08-.05h.31a.09.09 0 01.09.06l.66 1.45c.22.49.44 1 .67 1.47.05-.14.07-.08.06-.05zM18.29 12h1.3c0-.08-.62-1.44-.65-1.47zM31.41 11.37a2.69 2.69 0 00-.16-.29v-.05a1.08 1.08 0 01.3-.16 1.63 1.63 0 011-.06.75.75 0 01.6.7 1.69 1.69 0 010 .23v1.31h-.33v-.24a.74.74 0 01-.43.26 1.23 1.23 0 01-.66 0l-.2-.07a.66.66 0 01-.32-.8.53.53 0 01.27-.32 1 1 0 01.39-.12h.84a.68.68 0 000-.2.45.45 0 00-.3-.34.81.81 0 00-.31-.05 1.26 1.26 0 00-.6.17zm1 .69h-.3a1 1 0 00-.29 0 .37.37 0 00-.18.17.36.36 0 00.14.43h.13a.78.78 0 00.4 0 .61.61 0 00.46-.35.14.14 0 000-.07v-.14z"/><path class="a5ae9409-607e-4d8b-a750-94aff03fb050" d="M24.23 11.56v-1.45c0-.07 0-.07.07-.07h2V10.38h-1.58v1.05c0 .05 0 .05.06.05h1.47v.28h-1.54V13c0 .1 0 .09-.09.09h-.29c-.05 0-.06 0-.06-.06v-1.47z"/><path class="a9157a26-2116-4072-8da2-b0915f3345e2" d="M35.94 10.78a.14.14 0 010 .07l-1.11 2.51a1.51 1.51 0 01-.15.28.75.75 0 01-.68.36.8.8 0 01-.45-.14c-.1-.06-.1-.06 0-.16l.12-.21h.06a.53.53 0 00.42.12.31.31 0 00.25-.13 1.4 1.4 0 00.1-.16v-.09s.06-.08 0-.13a.29.29 0 000-.13c-.31-.7-.61-1.39-.92-2.08v-.07h.34a.07.07 0 01.07.05l.75 1.71v.06l.73-1.69c0-.11 0-.08.13-.09z"/><path class="a5ae9409-607e-4d8b-a750-94aff03fb050" d="M27.43 11.57V13c0 .07 0 .07-.07.07H27V10.12c0-.09 0-.08.08-.08h.3c.05 0 .05 0 .05.05v1.48z"/><path class="a4e60dc5-d81f-4e57-94ab-99a37c50a6c6" d="M28.78 11.11v-.63-.06h.7a1.34 1.34 0 01.35.05.61.61 0 01.48.65.85.85 0 010 .23.61.61 0 01-.3.33 1 1 0 01-.47.1h-.72c-.06 0-.06 0-.06-.06z"/><path class="ae549f92-caaa-4123-a9b2-4b9aef89a119" d="M22.84 12h-1.31c.22-.49.43-1 .65-1.48zM18.29 12l.65-1.47s.63 1.39.65 1.47zM32.38 12.06h.34v.25a.14.14 0 010 .07.61.61 0 01-.46.35.78.78 0 01-.4 0h-.13a.36.36 0 01-.14-.43.37.37 0 01.18-.17 1 1 0 01.29 0z"/><path d="M11.31 9.57C10.49 7.91 7.72 7.69 5.24 9s-3.78 3.73-2.91 5.37 3.6 1.88 6.08.56 3.67-3.82 2.9-5.36z" fill="url(#pi-waafipay-ff4db517-b50c-4eca-90c2-347aa0f4eb36)"/><ellipse cx="6.25" cy="12.28" rx="4.44" ry="2.92" transform="rotate(-28.16 6.242 12.287)" fill="url(#ee0d5d85-4edb-425a-9e80-a0a27edae826)"/><path class="a4e60dc5-d81f-4e57-94ab-99a37c50a6c6" d="M11.22 10.47a.92.92 0 00-.32-.14H7.23v.09a3 3 0 01-.11.32c-.11.35-.23.69-.35 1s-.09.27-.14.4l-.24.73v.06a2.25 2.25 0 01-.08-.24c-.18-.51-.35-1-.52-1.54l-.3-.87c0-.05 0-.05-.08-.05H5s-.05 0-.07.05a1.18 1.18 0 01-.07.2 2.83 2.83 0 01-.11.31c0 .17-.11.33-.17.5l-.24.71c-.1.28-.2.56-.29.84l-.67-2-.09-.29s-.24.28-.35.43a2.09 2.09 0 01.08.23c.05.13.09.27.14.41l.62 1.85c0 .06 0 .06.07.06h.45c.03 0 0-.07 0-.1s.1-.3.16-.46a2.25 2.25 0 01.08-.24h1.15c.07 0 .07 0 .09.06.08.25.16.49.25.73h.47l.06-.06c.08-.26.17-.52.26-.78 0-.1.06-.2.1-.3a1.21 1.21 0 000-.18h1.43c.05 0 .05 0 .07-.05s.06-.2.08-.3 0-.05 0-.05H7.19c-.07 0-.07 0-.05-.06.11-.31.21-.62.31-.93a1.77 1.77 0 01.06-.17h2.9a.85.85 0 01.38.09.41.41 0 01.24.39.94.94 0 01-.22.6.78.78 0 01-.27.24 1.05 1.05 0 01-.35.13.83.83 0 01-.22 0H9.1v-.08a1.83 1.83 0 00.06-.25h-.44a2.81 2.81 0 00-.1.31c0 .16-.09.32-.14.48a.14.14 0 010 .07l-.13.43a.32.32 0 010 .09c0 .11-.07.21-.09.32h.43l.15-.5s.07-.26.11-.39h.72a2.09 2.09 0 01.25 0 1.86 1.86 0 00.34-.07 1.76 1.76 0 00.94-.64.35.35 0 00.1-.18 4.55 4.55 0 00.17-.73v-.09a.67.67 0 00-.25-.39zm-6.58 1.91c.16-.48.33-1 .49-1.45.17.5.33 1 .5 1.45z"/><path class="a4e60dc5-d81f-4e57-94ab-99a37c50a6c6" d="M9.41 11.21H9s-.08.27-.12.42h.49s.04-.37.04-.42z"/></svg>