<svg xmlns="http://www.w3.org/2000/svg" width="38" height="24" fill="none" aria-labelledby="pi-wechatpaynlversion" role="img" viewBox="0 0 38 24"><title id="pi-wechatpaynlversion">WeChat (PAY. version)</title><path fill="#0A0" d="M0 0h38v24H0z"/><path fill="#fff" d="m15.15 18.54-.18.1-.5.29-.22.13-.3.16-.51.3a.29.29 0 0 1-.34-.14.4.4 0 0 1 0-.32l.14-.51.14-.52.07-.28c.02-.09.05-.17.06-.26a.6.6 0 0 0-.06-.34.7.7 0 0 0-.17-.18l-.36-.26a2 2 0 0 1-.26-.23l-.23-.21a7 7 0 0 1-.3-.31l-.23-.26-.2-.26a7 7 0 0 1-.3-.42l-.06-.1c-.1-.16-.2-.33-.29-.51l-.17-.37c-.1-.22-.18-.44-.25-.66l-.13-.5a5.85 5.85 0 0 1 .37-3.61v-.02c.08-.17.16-.34.26-.5.2-.37.43-.72.7-1.04l.08-.11.37-.4.14-.14c.13-.13.26-.25.4-.36l.13-.1a8.3 8.3 0 0 1 1.43-.94l.1-.05.52-.23a10.3 10.3 0 0 1 3.56-.76h.5a8.5 8.5 0 0 1 1.6.17l.53.1.51.15c.36.1.7.23 1.04.38l.52.24.5.28c.36.22.71.46 1.04.73l.02.02c.16.14.33.28.48.44l.07.07.35.39-.2.09-.22.1-.52.23-.45.2-.06.02-.52.23-1.04.46-1.02.46-.52.22-.32.15-.2.08-.51.23-.43.2-.08.03-.52.23-1.04.46-.77.35c-.08.04-.16.06-.24.08a.9.9 0 0 1-.52-.06l-.11-.06-.4-.23-.34-.24-.2-.13-.49-.36-.37-.26a.5.5 0 0 0-.15-.07.3.3 0 0 0-.3.35l.46 1 .24.53.1.2.13.3.23.52.15.33.09.19c.07.18.16.36.26.54l.16.12a.58.58 0 0 0 .54-.03l.18-.1.32-.19 1.04-.6.44-.25.08-.04.51-.3.3-.17.22-.13.52-.3.15-.08.36-.21 1.04-.6.4-.22.1-.07.53-.3.26-.15.24-.14 1.03-.6.49-.28.04-.02.5-.31.36-.21.14-.08c.17-.1.32-.2.49-.26l.2.35.26.52a4.7 4.7 0 0 1 .34 1 5.3 5.3 0 0 1 .14 1.04c0 .17.02.35 0 .52l-.03.52-.09.52a6.25 6.25 0 0 1-1.33 2.76l-.29.33-.21.22c-.07.08-.22.2-.33.31l-.18.15c-.14.13-.3.24-.45.36l-.07.05c-.17.11-.34.23-.52.33l-.2.12-.3.13a7 7 0 0 1-.52.24l-.26.1-.26.11a8 8 0 0 1-1.04.31c-.17.05-.3.07-.45.1h-.04l-.52.08c-.34.05-.68.08-1.03.08h-.52c-.17 0-.34 0-.52-.02l-.52-.05c-.17-.03-.28-.05-.43-.06l-.17-.03-.4-.09a15 15 0 0 1-.51-.13.8.8 0 0 0-.52.03"/></svg>