<svg xmlns="http://www.w3.org/2000/svg" role="img" viewBox="0 0 38 24" width="38" height="24" aria-labelledby="pi-wechatpay"><title id="pi-wechatpay">WeChat Pay</title><path fill="#000" opacity=".07" d="M35 0H3C1.3 0 0 1.3 0 3v18c0 1.7 1.4 3 3 3h32c1.7 0 3-1.3 3-3V3c0-1.7-1.4-3-3-3z"/><path fill="#fff" d="M35 1c1.1 0 2 .9 2 2v18c0 1.1-.9 2-2 2H3c-1.1 0-2-.9-2-2V3c0-1.1.9-2 2-2h32"/><path fill="#39B54A" d="M17.1 9.6c-.1 0-.1 0-.2.1-.2 0-.3-.1-.4-.2v-.2l-1.3-2.8v-.1c0-.1.1-.2.2-.2s.1 0 .1.1l1.5 1c.1.1.2.1.4.1h.2l7.1-3.2c-1.5-1.6-3.5-2.5-5.7-2.5-3.9 0-7 2.6-7 5.9 0 1.8.9 3.4 2.4 4.4.1.1.2.2.2.4v.1c-.1.4-.3 1.1-.3 1.2v.2c0 .1.1.2.2.2h.1l1.5-.9c.1-.1.2-.1.4-.1h.2c.7.2 1.5.3 2.3.3 3.9 0 7-2.6 7-5.9 0-.9-.3-1.8-.8-2.6l-8.1 4.7z"/><path fill="#505052" d="M10.5 19.8l-.1.2c-.1.2-.1.4-.2.6-.1-.3-.1-.6-.2-.9l-.5-1.8h-.3l-.6 1.9c-.1.3-.2.6-.2.9l-.1-.7-.5-2.1h-.4l.9 3.4h.3l.6-1.9c.1-.3.2-.6.2-.8 0 .2.1.5.2.8l.5 1.9h.3l1-3.3H11l-.5 1.8zM12.6 18.8c-.7 0-1.1.5-1.1 1.3-.1.6.4 1.2 1 1.2h.1c.3 0 .5 0 .8-.2h.1l-.2-.2c-.2.1-.4.1-.6.1-.5 0-.8-.3-.8-.9h1.7V20c0-.2-.1-.5-.2-.7-.2-.3-.5-.5-.8-.5m-.8 1c0-.4.3-.7.7-.7.2 0 .3 0 .4.2.1.1.2.3.2.5h-1.3zM16.3 20.9c-.2.1-.5.1-.7.1-.7 0-1.3-.5-1.3-1.1v-.2c-.1-.7.4-1.4 1.1-1.4h.2c.2 0 .4 0 .6.1l.2-.3c-.2-.1-.5-.2-.8-.2-.9 0-1.7.7-1.7 1.6v.2c-.1.9.5 1.6 1.4 1.7h.2c.3 0 .6-.1.9-.2l-.1-.3zM18 18.8c-.2 0-.4.1-.5.1-.1.1-.2.1-.2.2v-1.3h-.4v3.5h.3v-1.5-.2c.1-.3.3-.5.6-.5.5 0 .6.5.6.7v1.4h.4v-1.5c0-.9-.7-.9-.8-.9M22.1 18.3h-.4v.5h-.4v.3h.4v1.4c0 .2 0 .4.2.6.1.1.3.2.4.2.1 0 .2 0 .4-.1h.1l-.2-.2h-.2c-.2 0-.3-.1-.3-.4v-1.5h.7v-.3h-.7v-.5zM25.1 17.9c-.2 0-.5 0-.7.1v3.3h.4v-1.4h.3c.4 0 .7-.1 1-.4.2-.2.3-.4.2-.7 0-.3-.1-.5-.3-.7-.2-.1-.5-.3-.9-.2m-.4.3h.4c.5 0 .8.2.8.7s-.3.7-.9.7h-.4l.1-1.4zM30.2 18.8l-.6 1.5c0 .1-.1.2-.1.4l-.1-.3-.6-1.5h-.4l.9 2.2v.2c-.1.2-.2.4-.4.6-.1.1-.2.2-.4.2h-.1l.3.3c.1-.1.2-.2.3-.2.4-.4.6-.9.8-1.4l.7-1.8v-.1l-.3-.1zM21 20.7v-.9c0-.6-.3-1-.9-1-.3 0-.5.1-.7.2l.2.3c.2-.1.3-.2.5-.2.1 0 .3 0 .4.1.1.1.2.3.1.5-.4 0-.9.1-1.2.4-.2.1-.2.3-.2.6 0 .4.3.7.7.7h.1c.3 0 .5-.1.7-.3v.2h.4v-.1c-.1-.2-.1-.4-.1-.5m-1.2-.4c.3-.2.6-.3.9-.2v.5c-.1.3-.4.4-.7.4-.2 0-.4-.2-.4-.4v-.1s.1-.2.2-.2M28.1 20.7v-.9c0-.6-.3-1-.9-1-.2 0-.5.1-.7.2l.2.3c.2-.1.3-.1.5-.1.1 0 .3 0 .4.1.1.1.2.3.2.5-.4 0-.9.1-1.2.4-.1.1-.2.4-.2.6 0 .4.3.7.7.7h.1c.3 0 .5-.1.7-.3v.2h.4v-.1c-.1-.3-.1-.5-.2-.6m-.2-.2v.1c-.1.3-.4.4-.6.4-.2 0-.4-.1-.4-.4v-.1c0-.1 0-.2.1-.3.3-.2.6-.3.9-.2v.5z"/></svg>