<svg xmlns="http://www.w3.org/2000/svg" role="img" viewBox="0 0 38 24" width="38" height="24" aria-labelledby="pi-wegetfinancing"><title id="pi-wegetfinancing">WeGetFinancing</title><path fill="#000" opacity=".07" d="M35 0H3C1.3 0 0 1.3 0 3v18c0 1.7 1.4 3 3 3h32c1.7 0 3-1.3 3-3V3c0-1.7-1.4-3-3-3z"/><path fill="#fff" d="M35 1c1.1 0 2 .9 2 2v18c0 1.1-.9 2-2 2H3c-1.1 0-2-.9-2-2V3c0-1.1.9-2 2-2h32"/><path fill-rule="evenodd" clip-rule="evenodd" fill="#3973B9" d="M24.239 10.039c-1.468 3.787-4.079 4.662-7.496 4.142 2.309 1.2 6.72.218 7.913-4.026l1.218.62c-.431 2.31-2.457 4.598-5.68 5.151-3.667.629-6.61-1.483-7.793-4.01.158.052.27.086.378.128 1.425.537 2.891.884 4.422.823 2.386-.095 4.151-1.178 5.187-3.369.049-.105.086-.214.138-.343l1.713.884z"/><path fill-rule="evenodd" clip-rule="evenodd" fill="#AAA6A5" d="M13.944 11.916c-.639-.237-1.196-.436-1.744-.655-.079-.031-.146-.15-.174-.24-.8-2.602-.399-5 1.332-7.107 1.547-1.883 3.597-2.732 6.028-2.61 1.263.063 2.428.468 3.491 1.175l-.95.994c-2.71-1.321-5.18-1.065-7.307 1.11-1.598 1.636-2.3 4.512-.676 7.333z"/><path fill-rule="evenodd" clip-rule="evenodd" fill="#3973B9" d="M21.114 9.187c.003.435.007.879.004 1.322 0 .045-.039.098-.073.136a4.772 4.772 0 01-1.837 1.286l-.04-7.733 1.926-.01c.007 1.271.016 2.517.013 3.763"/><path fill-rule="evenodd" clip-rule="evenodd" fill="#AAA6A5" d="M16.706 5.9l1.903-.01c.008.115.021.218.022.32.01 1.865.016 3.73.035 5.594.002.244-.05.375-.313.402-.527.055-1.052.13-1.614.2-.01-2.2-.021-4.343-.033-6.506z"/><path fill-rule="evenodd" clip-rule="evenodd" fill="#3973B9" d="M16.184 12.358c-.628-.123-1.229-.237-1.827-.366-.053-.011-.122-.118-.123-.18a678.29 678.29 0 01-.01-4.28c0-.007.011-.016.033-.044l1.901-.01.026 4.88z"/><path fill="#AAA6A5" d="M2.452 22.162v.444H2.24v-1.114h1.02v.22h-.807v.256h.79v.194h-.79zm2.074.444a.492.492 0 01-.155-.021.224.224 0 01-.1-.065.262.262 0 01-.055-.11.635.635 0 01-.016-.154v-.524h.21v.552c0 .045.008.079.026.1.017.023.047.034.09.034h.25a.1.1 0 00.072-.026.123.123 0 00.033-.063v-.597h.212v.874a.156.156 0 01-.05-.009.129.129 0 01-.044-.025.14.14 0 01-.033-.042.166.166 0 01-.017-.064.176.176 0 01-.08.106.346.346 0 01-.17.034h-.173zm1.544 0v-1.143l.21-.072v1.215h-.21zm1.19 0v-1.143l.21-.072v1.215h-.21zm2.805 0a.624.624 0 01-.162-.018.216.216 0 01-.104-.06.24.24 0 01-.055-.11.76.76 0 01-.017-.173v-.392c0-.069.006-.126.017-.173a.245.245 0 01.055-.111.208.208 0 01.104-.06.653.653 0 01.162-.017h.61a.297.297 0 01.181.06.24.24 0 01.05.053.312.312 0 01.029.05l-.136.143a.165.165 0 00-.046-.059c-.02-.018-.052-.026-.093-.026h-.593c-.047 0-.08.01-.1.03-.019.02-.028.057-.028.11v.393c0 .024.002.045.005.062s.009.032.018.044a.08.08 0 00.039.026.205.205 0 00.066.01h.601c.042 0 .073-.01.093-.028a.172.172 0 00.045-.059l.135.141a.307.307 0 01-.028.051.238.238 0 01-.05.054.282.282 0 01-.182.059h-.616zm1.825 0v-.874h.204v.12a.19.19 0 01.083-.097.285.285 0 01.246-.004l-.03.194a.121.121 0 00-.05-.026.335.335 0 00-.079-.007.186.186 0 00-.114.03.123.123 0 00-.048.084v.58h-.212zm1.762 0a.364.364 0 01-.241-.072c-.057-.048-.086-.127-.086-.236v-.259c0-.109.029-.187.086-.235a.365.365 0 01.24-.072h.283a.37.37 0 01.242.072c.058.048.087.126.087.235v.206h-.728v.053c0 .046.01.077.03.094a.13.13 0 00.087.026h.593l-.027.188h-.566zm.399-.555c0-.048-.009-.081-.027-.101-.018-.02-.048-.03-.09-.03h-.282c-.042 0-.072.01-.09.029-.018.02-.027.05-.027.09v.07h.516v-.058zm1.511.555a.5.5 0 01-.157-.021.224.224 0 01-.155-.174.635.635 0 01-.017-.155v-.175c0-.059.006-.11.017-.154a.224.224 0 01.156-.174.5.5 0 01.156-.021h.167c.05 0 .091.01.122.028a.23.23 0 01.082.098v-.395l.211-.072v1.215a.156.156 0 01-.05-.009.129.129 0 01-.044-.025.142.142 0 01-.033-.042.166.166 0 01-.017-.064.175.175 0 01-.082.106.354.354 0 01-.172.034h-.184zm.37-.602a.104.104 0 00-.039-.065.148.148 0 00-.084-.02h-.247c-.049 0-.08.014-.096.041a.27.27 0 00-.023.128v.162c0 .067.01.111.027.134.018.023.048.034.092.034h.247c.037 0 .066-.01.086-.03a.141.141 0 00.038-.077v-.307zm1.198-.348v-.231h.212v.23h-.213zm0 .95v-.874h.21v.874h-.21zm1.638-.01a.18.18 0 01-.05.018.325.325 0 01-.075.008c-.107 0-.184-.036-.23-.106a.578.578 0 01-.07-.315v-.309h-.096l.025-.16h.07v-.194l.212-.071v.265h.177l-.025.16h-.152v.31c0 .077.012.135.035.173.023.038.062.058.115.058.044 0 .075-.008.095-.023l-.031.186zm3.337-.312c0 .059-.007.11-.02.15a.218.218 0 01-.06.1.25.25 0 01-.11.055.684.684 0 01-.164.017h-.767a7.338 7.338 0 01.014-.219h.739a.382.382 0 00.072-.006.095.095 0 00.045-.02.08.08 0 00.024-.038.207.207 0 00.007-.059c0-.046-.01-.078-.03-.096-.02-.018-.058-.027-.114-.027h-.44a.635.635 0 01-.163-.018.249.249 0 01-.106-.055.208.208 0 01-.058-.093.453.453 0 01-.017-.133v-.037c0-.055.006-.103.017-.143a.205.205 0 01.059-.097.256.256 0 01.108-.055.661.661 0 01.166-.018h.761a20.704 20.704 0 01-.027.222h-.734c-.052 0-.088.01-.106.028-.019.018-.028.05-.028.093 0 .045.01.076.028.095.018.019.054.028.106.028h.435c.067 0 .124.006.17.017a.274.274 0 01.112.053.201.201 0 01.062.09.385.385 0 01.019.127v.039zm1.362.322a.233.233 0 01-.123-.029.23.23 0 01-.08-.098v.377h-.21v-1.124h.201v.126a.23.23 0 01.082-.098.234.234 0 01.122-.028h.204c.06 0 .112.007.154.021a.23.23 0 01.157.174.635.635 0 01.017.154v.175c0 .06-.006.11-.017.155a.23.23 0 01-.157.174.493.493 0 01-.154.02h-.196zm.312-.518a.28.28 0 00-.022-.128c-.015-.027-.046-.04-.094-.04h-.275a.153.153 0 00-.085.019.103.103 0 00-.04.065v.33c.008.03.02.052.04.064.02.013.048.02.085.02h.275c.048 0 .08-.014.094-.04a.28.28 0 00.022-.128v-.162zm1.514.518a.364.364 0 01-.24-.072c-.058-.048-.087-.127-.087-.236v-.259c0-.109.029-.187.086-.235a.365.365 0 01.241-.072h.283c.103 0 .183.024.241.072.058.048.087.126.087.235v.206h-.728v.053c0 .046.01.077.031.094a.13.13 0 00.086.026h.594l-.027.188h-.567zm.4-.555c0-.048-.01-.081-.027-.101-.018-.02-.048-.03-.09-.03h-.283c-.042 0-.072.01-.09.029-.018.02-.027.05-.027.09v.07h.516v-.058zm1.508.555a.364.364 0 01-.24-.072c-.058-.048-.086-.127-.086-.236v-.259c0-.109.028-.187.086-.235a.365.365 0 01.24-.072h.35a.257.257 0 01.157.05c.018.014.032.03.043.046l.024.045-.116.123a.163.163 0 00-.04-.054c-.016-.015-.042-.022-.078-.022h-.34a.12.12 0 00-.085.029c-.021.02-.031.05-.031.09v.26c0 .04.01.07.03.09.021.02.05.029.087.029h.347c.036 0 .062-.008.08-.023s.03-.032.038-.052l.117.122a.262.262 0 01-.025.044.195.195 0 01-.043.046.247.247 0 01-.156.05h-.358zm1.969-.01a.18.18 0 01-.05.018.325.325 0 01-.075.008c-.107 0-.184-.036-.23-.106a.579.579 0 01-.07-.315v-.309h-.096l.025-.16h.071v-.194l.212-.071v.265h.177l-.026.16h-.151v.31c0 .077.011.135.035.173.023.038.061.058.115.058.043 0 .074-.008.094-.023l-.031.186zm.938.01v-.874h.203v.12a.19.19 0 01.084-.097.285.285 0 01.246-.004l-.03.194a.12.12 0 00-.05-.026.335.335 0 00-.08-.007.186.186 0 00-.113.03.123.123 0 00-.049.084v.58h-.211zm1.762 0a.492.492 0 01-.156-.021.224.224 0 01-.1-.065.262.262 0 01-.055-.11.634.634 0 01-.017-.154v-.524h.21v.552c0 .045.009.079.026.1.018.023.048.034.091.034h.25c.03 0 .054-.009.071-.026a.123.123 0 00.034-.063v-.597h.212v.874a.155.155 0 01-.05-.009.13.13 0 01-.077-.067.167.167 0 01-.017-.064.176.176 0 01-.081.106.345.345 0 01-.17.034h-.172zm2.713 0v-.521a.52.52 0 00-.004-.067.151.151 0 00-.016-.052.083.083 0 00-.035-.034.13.13 0 00-.06-.012h-.154c-.044 0-.075.008-.093.025-.018.018-.027.045-.027.081v.58h-.203v-.58c0-.036-.01-.063-.027-.08-.018-.018-.048-.026-.09-.026h-.15a.11.11 0 00-.07.02.12.12 0 00-.036.064v.602h-.205v-.874h.197v.126a.232.232 0 01.076-.091.228.228 0 01.134-.035h.066a.41.41 0 01.19.036.2.2 0 01.096.129.21.21 0 01.082-.126.282.282 0 01.158-.04h.074a.45.45 0 01.15.022.2.2 0 01.093.065.265.265 0 01.047.109.786.786 0 01.013.154v.525h-.206z"/><path fill="#3973B9" d="M4.364 20.772l-.702-1.953-.72 1.953h-.554l-.965-2.625h.588l.671 2.015.72-2.015h.52l.705 2.018.691-2.018h.587l-.984 2.625h-.557zm2.27 0c-.25 0-.443-.057-.582-.17-.138-.113-.207-.298-.207-.555v-.61c0-.257.069-.442.207-.555.139-.113.333-.17.582-.17h.683c.25 0 .444.057.584.17.14.113.21.298.21.555v.484H6.35v.126c0 .107.026.18.075.221.05.041.119.062.208.062h1.434l-.065.442H6.634zm.965-1.308c0-.112-.021-.192-.065-.239-.043-.047-.116-.07-.217-.07h-.683c-.102 0-.174.022-.217.068-.044.046-.065.117-.065.214v.164h1.247v-.137zm3.4 1.308l-.016-.32a.304.304 0 01-.052.114.438.438 0 01-.103.103.544.544 0 01-.15.074.643.643 0 01-.199.03H9.366c-.163 0-.297-.014-.403-.041a.496.496 0 01-.25-.14.555.555 0 01-.128-.26 1.917 1.917 0 01-.036-.41v-.924c0-.158.012-.29.036-.399a.57.57 0 01.128-.263.513.513 0 01.25-.145c.106-.029.24-.044.403-.044h1.33a.71.71 0 01.436.14.6.6 0 01.19.246l-.324.335a.453.453 0 00-.11-.139c-.049-.042-.124-.063-.225-.063H9.369c-.12 0-.2.023-.244.07-.043.045-.065.132-.065.262v.847c0 .092.005.164.014.217a.259.259 0 00.05.124.16.16 0 00.095.058c.039.009.09.013.15.013h1.194c.145 0 .246-.02.302-.063.056-.042.083-.104.083-.185v-.336h-.984v-.427h1.47v1.526h-.436zm1.662 0c-.249 0-.443-.057-.581-.17-.14-.113-.208-.298-.208-.555v-.61c0-.257.069-.442.208-.555.138-.113.332-.17.581-.17h.683c.25 0 .444.057.584.17.14.113.21.298.21.555v.484h-1.759v.126c0 .107.025.18.074.221a.32.32 0 00.208.062h1.435l-.065.442h-1.37zm.965-1.308c0-.112-.021-.192-.064-.239-.044-.047-.116-.07-.218-.07h-.683c-.101 0-.174.022-.217.068-.043.046-.065.117-.065.214v.164h1.247v-.137zm2.023 1.285a.447.447 0 01-.12.042.809.809 0 01-.182.02c-.26 0-.445-.084-.557-.25-.112-.167-.168-.415-.168-.743v-.728h-.232l.06-.378h.172v-.458l.511-.168v.626h.428l-.062.378h-.366v.728c0 .184.028.32.084.41.056.09.15.136.279.136.104 0 .18-.018.229-.054l-.076.439zm.877-1.022v1.045h-.515v-2.625h2.464v.52h-1.949v.602h1.907v.458h-1.907zm2.334-1.194v-.546h.515v.546h-.515zm0 2.24v-2.06h.512v2.06h-.512zm2.693 0V19.47c0-.107-.02-.186-.06-.238-.041-.052-.115-.078-.222-.078h-.664c-.073 0-.13.015-.167.047a.303.303 0 00-.088.15v1.42h-.507v-2.06h.488v.298a.555.555 0 01.194-.231.566.566 0 01.294-.067h.45c.15 0 .276.016.378.05a.544.544 0 01.244.152.62.62 0 01.132.258c.026.103.04.224.04.364v1.236h-.512zm1.576 0c-.242 0-.413-.042-.513-.123-.1-.082-.15-.209-.15-.382v-.225c0-.175.05-.3.154-.375.103-.075.27-.113.501-.113h.71c.101 0 .18.008.232.025.054.016.1.035.138.055v-.24c0-.097-.03-.16-.088-.191a.697.697 0 00-.297-.045h-1.19l.049-.447h1.205c.168 0 .306.017.412.051.107.035.19.081.25.14.06.058.102.127.124.206a.899.899 0 01.034.252v1.411a.374.374 0 01-.213-.07c-.069-.048-.113-.132-.133-.254a.45.45 0 01-.176.232.615.615 0 01-.358.092h-.69zm1.072-.844a.717.717 0 00-.149-.042 1.294 1.294 0 00-.225-.015h-.622c-.081 0-.14.016-.175.047-.036.032-.054.093-.054.182 0 .086.018.146.054.179.035.033.093.05.171.05h.622a.625.625 0 00.246-.046c.073-.03.117-.09.132-.176v-.179zm2.663.843v-1.3c0-.108-.021-.187-.062-.24-.04-.051-.114-.077-.22-.077h-.665c-.073 0-.13.015-.167.047a.301.301 0 00-.088.15v1.42h-.507v-2.06h.488v.298a.557.557 0 01.194-.231.568.568 0 01.294-.067h.45c.15 0 .276.016.378.05a.544.544 0 01.244.152.612.612 0 01.132.258c.026.103.04.224.04.364v1.236h-.511zm1.75 0c-.249 0-.443-.057-.581-.17-.139-.113-.208-.298-.208-.555v-.61c0-.257.07-.442.208-.555.138-.113.332-.17.582-.17h.847a.635.635 0 01.377.118c.043.033.077.07.103.109.025.04.044.074.057.105l-.278.29a.386.386 0 00-.096-.126c-.04-.036-.104-.053-.19-.053h-.82a.296.296 0 00-.209.068c-.049.046-.074.117-.074.214v.61c0 .097.025.168.074.214.05.046.12.069.209.069h.839c.086 0 .15-.018.192-.054a.34.34 0 00.094-.122l.282.286a.617.617 0 01-.059.105.468.468 0 01-.105.109.6.6 0 01-.378.118h-.865zm1.797-2.24v-.545h.515v.546h-.515zm0 2.24v-2.06h.512v2.06h-.512zm2.693 0v-1.3c0-.108-.02-.187-.06-.24-.042-.051-.115-.077-.222-.077h-.664c-.074 0-.13.015-.168.047a.3.3 0 00-.087.15v1.42h-.508v-2.06h.489v.298a.557.557 0 01.194-.231.567.567 0 01.294-.067h.45c.15 0 .276.016.378.05a.545.545 0 01.244.152c.06.069.105.155.131.258.027.103.04.224.04.364v1.236h-.51zm2.655-.56a.66.66 0 01-.105.157.402.402 0 01-.125.092.55.55 0 01-.163.044 1.7 1.7 0 01-.217.011h-.355c-.15 0-.275-.015-.376-.045a.55.55 0 01-.242-.141.554.554 0 01-.131-.245 1.343 1.343 0 01-.04-.35v-.199c0-.14.013-.261.04-.364a.543.543 0 01.374-.41c.1-.034.225-.05.375-.05h.443c.04 0 .087.004.14.012a.646.646 0 01.155.043c.052.022.1.053.145.092.045.04.078.09.101.154v-.3h.493v1.72c0 .124-.013.243-.039.356a.693.693 0 01-.145.298.738.738 0 01-.297.204c-.127.05-.293.076-.496.076a1.802 1.802 0 01-.542-.084l.061-.404a1.505 1.505 0 00.462.068.65.65 0 00.234-.036.353.353 0 00.228-.265.928.928 0 00.022-.214v-.22zm0-.86a.255.255 0 00-.097-.15.344.344 0 00-.189-.043h-.644a.497.497 0 00-.151.019.205.205 0 00-.097.064.27.27 0 00-.054.124c-.01.052-.015.12-.015.2v.138c0 .089.006.16.017.214.012.053.03.094.054.124a.166.166 0 00.095.057c.04.009.088.013.147.013h.614a.48.48 0 00.217-.038c.049-.025.083-.078.103-.156v-.565z"/><path fill="#3973B9" d="M1.423 18.147h.592l.667 2.015.72-2.015h.52l.705 2.018.691-2.018h.587l-.984 2.625h-.557l-.7-1.984-.723 1.984h-.553zm4.421 1.775a16.902 16.902 0 01-.001-.321"/><path fill="#3973B9" d="M8.11 19.921s.005-.472-.008-.628a.887.887 0 00-.054-.212.693.693 0 00-.066-.114.772.772 0 00-.123-.116.948.948 0 00-.165-.082 2.063 2.063 0 00-.188-.045l-.143-.009H6.54l-.099.01-.116.023-.113.038-.109.058-.136.129-.063.114-.046.17-.015.134v.351l.002.305a1.254 1.254 0 00.034.283c.017.066.07.16.106.206a.7.7 0 00.154.126c.095.055.266.092.266.092l.232.018h1.366l.065-.442-1.47-.002s-.121-.007-.183-.07a.26.26 0 01-.06-.146s-.01-.26-.006-.519c0-.09-.013-.256.051-.35a.165.165 0 01.11-.074c.021-.005.084-.014.084-.014h.78c.036 0 .118.02.16.068a.247.247 0 01.057.132c.008.069.008.246.008.246H6.35l-.004.32H8.11z"/><path fill="#AAA6A5" d="M14.297 22.243s.002-.203-.003-.27a.378.378 0 00-.024-.09.298.298 0 00-.028-.05.331.331 0 00-.053-.05.407.407 0 00-.07-.035c-.02-.007-.081-.019-.081-.019l-.061-.004h-.353l-.043.005-.05.01-.048.016-.047.025-.058.055-.027.049-.02.073-.006.057v.282a.538.538 0 00.015.121c.007.028.03.069.046.088a.3.3 0 00.066.054.49.49 0 00.114.04l.1.008h.585l.028-.19h-.63s-.052-.004-.079-.03c-.023-.024-.026-.064-.026-.064s-.004-.111-.002-.222c0-.039-.006-.11.022-.15a.07.07 0 01.047-.032l.036-.006h.334c.016 0 .05.009.069.03a.106.106 0 01.024.056c.004.03.004.105.004.105h-.536l-.002.138h.757zm11.641.002s.003-.202-.003-.27a.378.378 0 00-.023-.09.298.298 0 00-.028-.05.331.331 0 00-.053-.049.406.406 0 00-.071-.035c-.02-.007-.08-.02-.08-.02l-.062-.003h-.353l-.042.004-.05.01-.048.016-.047.025-.059.055-.027.05-.02.072-.006.058v.15l.001.131a.538.538 0 00.015.121.27.27 0 00.045.088.3.3 0 00.066.054.49.49 0 00.114.04l.1.008h.586l.028-.19h-.63s-.053-.004-.08-.03c-.023-.024-.025-.063-.025-.063s-.004-.112-.003-.223c0-.038-.005-.11.022-.15a.07.07 0 01.048-.032l.035-.006h.335c.015 0 .05.009.068.03a.106.106 0 01.025.056c.003.03.003.106.003.106h-.536l-.001.137h.756z"/><path fill="#3973B9" d="M14.136 19.921s.01-.46-.008-.628a1.06 1.06 0 00-.015-.09 1.008 1.008 0 00-.039-.122.702.702 0 00-.066-.114.57.57 0 00-.123-.116.924.924 0 00-.165-.082 1.363 1.363 0 00-.188-.045c-.036-.004-.143-.009-.143-.009h-.823l-.099.01-.116.023-.113.038-.109.058-.136.129-.063.114-.046.17-.015.134v.351l.002.305a1.254 1.254 0 00.034.283c.017.066.07.16.106.206a.7.7 0 00.154.126c.095.055.266.092.266.092l.232.018h1.366l.065-.442-1.47-.002s-.121-.007-.183-.07a.26.26 0 01-.06-.146s-.01-.26-.006-.519c0-.09-.013-.256.051-.35a.165.165 0 01.11-.074c.021-.005.084-.014.084-.014h.78c.036 0 .118.02.16.068a.247.247 0 01.057.132c.008.069.008.246.008.246h-1.25l-.004.32h1.765zm-3.188-.248h-.984v-.427h1.47v1.526h-.436l-.014-.284-.001-.037s-.018.095-.097.169a.486.486 0 01-.186.116c-.11.04-.306.036-.306.036H9.21l-.16-.022-.24-.08-.16-.166-.078-.246-.021-.2v-1.151l.009-.14s.01-.129.032-.193c.02-.063.028-.136.121-.238a.528.528 0 01.209-.132c.099-.036.34-.056.34-.056h1.442s.094.005.125.009a.733.733 0 01.189.06.588.588 0 01.185.133.76.76 0 01.12.183l-.325.335s-.04-.074-.085-.115a.39.39 0 00-.072-.055c-.059-.027-.132-.03-.132-.03H9.284s-.099.01-.148.055c-.068.062-.072.198-.072.198v1.043s.008.12.023.156c.012.028.039.077.072.096.053.03.1.033.1.033h1.444s.047-.005.1-.025a.279.279 0 00.089-.053.21.21 0 00.054-.134l.002-.238v-.126zm3.674-1.419l.511-.168v.626h.428l-.062.378h-.366v.635s0 .14.003.187c.005.075.028.186.028.186s.034.106.068.152a.32.32 0 00.098.08c.036.019.094.03.126.032a.63.63 0 00.168-.01.393.393 0 00.1-.042l-.076.44s-.116.056-.247.059a1.295 1.295 0 01-.202-.009.492.492 0 01-.216-.067.517.517 0 01-.154-.122.71.71 0 01-.092-.144c-.052-.107-.062-.172-.076-.231a1.74 1.74 0 01-.032-.226c-.008-.097-.007-.325-.007-.325l-.002-.594h-.23l.06-.379h.17l.002-.458z"/><path fill="#AAA6A5" d="M18.345 21.538l.217-.071v.265h.181l-.026.16h-.155v.27l.001.08c.002.03.012.078.012.078s.014.045.03.065c.01.014.028.028.04.034a.222.222 0 00.125.009c.02-.004.043-.018.043-.018l-.033.186s-.049.025-.104.026c-.034 0-.065 0-.086-.004a.209.209 0 01-.091-.028.219.219 0 01-.066-.052.3.3 0 01-.039-.061c-.022-.046-.027-.073-.032-.098a.738.738 0 01-.014-.096c-.003-.041-.003-.138-.003-.138v-.252h-.098l.025-.16h.072l.001-.195zm10.395 0l.218-.071v.265h.18l-.025.16h-.155v.349c.003.032.012.079.012.079s.015.045.03.065c.01.014.029.027.04.034a.19.19 0 00.055.013c.027.002.053 0 .07-.004.02-.004.043-.018.043-.018l-.032.186s-.05.024-.105.025a.55.55 0 01-.086-.003.209.209 0 01-.091-.029.22.22 0 01-.066-.051.3.3 0 01-.038-.061c-.022-.046-.027-.073-.033-.099a.74.74 0 01-.013-.096c-.004-.04-.003-.137-.003-.137l-.001-.252h-.098l.026-.16h.072v-.195z"/><path fill="#3973B9" d="M18.475 18.666v-.519h-2.464v2.625h.515V19.73h1.907v-.46h-1.907v-.606z"/><path fill="#AAA6A5" d="M3.283 21.712v-.22H2.239v1.112h.218v-.441h.808v-.196h-.808v-.256z"/><path fill="#3973B9" d="M18.86 18.712h.511v2.06h-.511zm0-.725h.515v.545h-.515z"/><path fill="#AAA6A5" d="M17.129 21.732h.217v.874h-.217zm0-.307h.218v.231h-.218z"/><path fill="#3973B9" d="M30.411 18.71h.511v2.06h-.511zm0-.725h.515v.545h-.515zm-10.078.727h-.488v2.06h.507v-1.42s.03-.088.06-.12a.217.217 0 01.087-.062c.019-.006.076-.014.076-.014h.745a.3.3 0 00.133.04c.059.044.062.077.077.109.012.024.021.107.021.107v1.36h.514v-1.317s-.005-.14-.028-.229c-.017-.066-.02-.134-.099-.253a.502.502 0 00-.176-.163.716.716 0 00-.18-.067 2.811 2.811 0 00-.21-.032l-.566.002s-.08 0-.131.011a.442.442 0 00-.156.059.591.591 0 00-.075.063c-.014.015-.04.05-.053.067-.028.036-.057.096-.057.096l-.001-.297zm5.31 0h-.488v2.06h.507v-1.42s.03-.088.06-.12a.217.217 0 01.087-.062c.019-.006.076-.014.076-.014h.745a.3.3 0 00.133.04c.059.044.062.077.077.109.012.024.021.107.021.107v1.36h.514v-1.317s-.005-.14-.028-.229c-.017-.066-.02-.134-.099-.253a.502.502 0 00-.176-.163.716.716 0 00-.18-.067 2.811 2.811 0 00-.21-.032l-.566.002s-.08 0-.131.011a.442.442 0 00-.156.059.591.591 0 00-.074.063c-.015.015-.04.05-.054.067-.028.036-.056.096-.056.096l-.002-.297zm6.241.001h-.489v2.06h.508v-1.42s.03-.088.06-.121a.217.217 0 01.087-.062c.018-.006.076-.014.076-.014l.745.001a.3.3 0 00.133.04c.059.043.062.076.077.108.012.025.021.107.021.107v1.36h.514v-1.317s-.005-.14-.028-.228c-.017-.066-.02-.135-.099-.253a.502.502 0 00-.176-.163.716.716 0 00-.18-.067 2.36 2.36 0 00-.21-.032l-.566.001s-.08 0-.131.012a.442.442 0 00-.156.059.592.592 0 00-.075.062c-.015.016-.04.05-.053.067-.028.037-.057.096-.057.096l-.001-.296zm-7.53 1.735s-.043.107-.091.158a.698.698 0 01-.077.069.99.99 0 01-.232.097h-.615s-.288 0-.384-.009a.816.816 0 01-.285-.077.366.366 0 01-.154-.162.494.494 0 01-.046-.172c-.004-.043-.005-.173-.005-.173s-.004-.153.01-.255c.02-.164.137-.25.137-.25s.076-.06.197-.088c.074-.017.232-.03.232-.03h.433s.423-.01.56.016c.083.016.167.068.167.068v-.26s0-.053-.02-.1a.145.145 0 00-.094-.088c-.05-.018-.212-.033-.212-.033h-1.25l.05-.447h1.333s.14.017.187.027c.05.01.15.04.195.062.073.035.133.08.168.118.03.032.077.108.094.149.04.092.048.247.048.247v1.457s-.074-.005-.107-.017a.361.361 0 01-.147-.09.355.355 0 01-.059-.094l-.023-.073-.01-.05-.153-.336v-.183s-.098-.034-.132-.039c-.224-.034-.908-.016-.908-.016s-.097.002-.145.06c-.049.06-.038.207-.038.207s.017.093.035.118c.03.041.095.06.095.06l.758.016s.114-.021.151-.033a.46.46 0 00.078-.031.304.304 0 00.057-.048.308.308 0 00.032-.055.919.919 0 00.017-.056M30 19.044l-.28.29-.058-.09-.09-.067-.137-.022h-.843s-.114.018-.145.039a.356.356 0 00-.099.124c-.007.018-.014.074-.014.074v.625s.002.116.015.151c.011.03.046.085.07.104a.328.328 0 00.086.043c.02.006.084.015.084.015h.893s.091-.013.119-.026a.41.41 0 00.087-.07c.01-.01.036-.05.036-.05l.016-.03.282.286s-.052.11-.104.16a.787.787 0 01-.128.097c-.106.057-.219.07-.219.07l-.097.005h-.866s-.168-.006-.245-.023a1.026 1.026 0 01-.218-.073.547.547 0 01-.298-.39c-.014-.068-.022-.215-.022-.215v-.343s-.002-.272.002-.362c.002-.055.017-.144.017-.144s.016-.079.041-.138A.557.557 0 0128 18.91a.46.46 0 01.175-.117c.1-.049.265-.072.265-.072l.072-.006h.923s.087-.004.144.005a.486.486 0 01.26.11c.133.101.16.213.16.213z"/><path fill="#AAA6A5" d="M10.929 21.674l-.154.16-.033-.05-.049-.037-.076-.012h-.465s-.063.01-.08.022a.197.197 0 00-.055.069c-.004.01-.008.04-.008.04v.346s.001.064.008.083a.174.174 0 00.04.058c.01.008.034.02.047.023a.553.553 0 00.046.009h.493s.05-.008.066-.015a.226.226 0 00.048-.038c.006-.006.02-.028.02-.028l.008-.017.156.158s-.028.061-.057.089a.435.435 0 01-.071.053c-.059.032-.12.039-.12.039l-.055.003h-.478s-.092-.004-.135-.013a.567.567 0 01-.12-.04.302.302 0 01-.165-.216 1.112 1.112 0 01-.012-.118v-.39c.002-.03.01-.08.01-.08s.01-.043.023-.076a.307.307 0 01.063-.095.254.254 0 01.097-.065.622.622 0 01.147-.04l.04-.003h.509s.048-.002.08.003c.04.006.08.012.143.06a.24.24 0 01.089.118zm16.876.193l-.119.124-.025-.038-.038-.03-.06-.009h-.36s-.048.008-.062.017a.152.152 0 00-.042.053.22.22 0 00-.006.032v.267s0 .05.006.065c.005.013.02.036.03.044a.14.14 0 00.037.019.432.432 0 00.036.006h.382s.04-.005.051-.011c.01-.005.03-.02.037-.03a.145.145 0 00.016-.021l.007-.013.12.122s-.022.047-.044.069a.337.337 0 01-.055.041c-.045.025-.094.03-.094.03l-.041.002h-.37s-.073-.002-.106-.01a.44.44 0 01-.093-.03.234.234 0 01-.128-.167c-.006-.03-.01-.093-.01-.093v-.146s0-.117.002-.156c0-.023.007-.061.007-.061s.007-.034.018-.06a.238.238 0 01.049-.073.197.197 0 01.075-.05.45.45 0 01.113-.03l.031-.004h.395s.037-.001.062.003c.03.004.062.01.111.046.057.044.069.092.069.092z"/><path fill="#3973B9" d="M35.951 18.712h.32v1.72a1.879 1.879 0 01-.016.232.864.864 0 01-.108.34.694.694 0 01-.2.206c-.062.04-.184.097-.272.117-.076.018-.23.037-.307.04a2.368 2.368 0 01-.309-.015 4.337 4.337 0 01-.307-.069l.061-.404s.324.097.57.062a.457.457 0 00.275-.133c.06-.06.086-.184.096-.265.01-.082.005-.332.005-.332s-.069.131-.136.189c-.093.08-.162.084-.22.1a1.621 1.621 0 01-.217.016h-.376s-.165-.005-.219-.01a1.013 1.013 0 01-.245-.062.58.58 0 01-.17-.114.73.73 0 01-.114-.189 1.168 1.168 0 01-.05-.235c-.01-.09-.008-.362-.008-.362s-.006-.072.016-.246a.87.87 0 01.085-.282c.085-.166.203-.206.289-.246.077-.036.338-.058.338-.058s.417-.02.555 0c.08.011.178.018.313.09.13.069.178.211.178.211l-.019.348s-.024-.114-.097-.159c-.072-.043-.162-.04-.162-.04h-.734s-.118.01-.173.067c-.07.073-.072.167-.075.227-.006.105-.006.326-.006.326l.013.114s.022.114.071.16c.053.05.19.056.19.056h.737a.355.355 0 00.154-.052c.068-.06.082-.142.082-.142v-1.206h.192z"/><path fill="#AAA6A5" d="M4.41 21.732H4.2v.584s.008.058.012.077l.014.05.017.037s.03.05.07.077a.43.43 0 00.096.038l.069.009.292-.003.068-.015s.044-.02.075-.051c.013-.013.037-.065.037-.065s.012.07.044.097c.037.034.099.042.099.042v-.877h-.211v.596s-.008.033-.03.06a.163.163 0 01-.057.029h-.273s-.05.003-.08-.022c-.014-.012-.03-.064-.03-.064l-.003-.6zm27.342-.002h-.21v.585l.013.076.014.05c.003.01.017.038.017.038s.03.05.07.077a.407.407 0 00.096.037l.069.01.292-.003.068-.016s.044-.02.075-.05c.013-.014.037-.065.037-.065s.012.068.043.097c.038.033.1.041.1.041v-.877h-.212v.597s-.007.032-.03.059c-.016.018-.056.03-.056.03h-.273s-.05.002-.08-.023c-.014-.011-.03-.063-.03-.063l-.003-.6zM6.28 21.39l-.21.073v1.143h.21zm1.19 0l-.21.073v1.143h.21zm4.624.462v-.12h-.204v.874h.212v-.583s.016-.05.037-.071a.16.16 0 01.097-.04.498.498 0 01.082.002.226.226 0 01.05.014.278.278 0 01.026.017l.03-.194s-.06-.024-.092-.026a.254.254 0 00-.18.046.2.2 0 00-.058.08zm18.218 0v-.12h-.203v.874h.211v-.582s.017-.05.038-.072a.15.15 0 01.097-.039.498.498 0 01.082.002.226.226 0 01.05.014c.007.003.025.017.025.017l.03-.194s-.06-.024-.091-.026a.254.254 0 00-.181.046c-.036.024-.058.08-.058.08zm-14.168-.462l-.211.073v.395s-.034-.056-.05-.071c-.04-.042-.087-.048-.087-.048l-.258-.007s-.102.008-.133.021c-.033.014-.08.03-.116.085-.035.052-.05.148-.05.148v.259l.005.138s.011.068.05.125c.03.043.103.074.103.074l.102.024h.296s.096-.017.123-.034c.06-.038.082-.106.082-.106s.005.063.046.102a.156.156 0 00.098.038v-.409h-.211s.005.116-.014.16c-.013.03-.069.06-.069.06h-.286s-.067-.006-.083-.02c-.027-.024-.036-.094-.036-.094l.001-.27s.003-.063.038-.093c.022-.02.078-.02.078-.02h.266s.05 0 .073.022a.13.13 0 01.032.062v.193h.211v-.806zm6.909 1.47l.21.002-.004-.378s.044.058.06.073c.04.042.093.048.093.048l.273.005s.112-.017.144-.03a.206.206 0 00.107-.085.467.467 0 00.051-.148v-.259l-.005-.138s-.012-.068-.052-.124a.292.292 0 00-.106-.074l-.098-.015c-.076-.008-.313-.002-.313-.002s-.052.005-.093.037c-.043.033-.065.088-.065.088v-.125h-.202v.401h.21s-.01-.123.017-.172c.017-.029.063-.04.063-.04l.31-.001s.069 0 .085.014c.032.028.041.101.041.101l-.006.262s.005.066-.031.097c-.024.02-.085.024-.085.024h-.276s-.055 0-.078-.021a.182.182 0 01-.04-.062v-.202h-.21v.724zm-.985-1.368l-.027.222h-.746s-.117-.012-.122.121c-.003.11.08.119.08.119l.55.006s.125-.006.221.068c.062.048.076.15.076.15l.005.155s0 .114-.061.18c-.074.081-.174.084-.174.084l-.157.009h-.73l.015-.219.78-.002s.05.008.085-.04a.194.194 0 00.016-.135c-.03-.073-.099-.067-.099-.067l-.542-.004s-.125-.014-.187-.055c-.067-.044-.094-.152-.094-.152v-.2s.008-.097.07-.16c.046-.048.152-.07.152-.07l.1-.01h.79zm11.542.366v-.126h-.197v.874h.205v-.596s.007-.049.036-.07c.022-.015.047-.019.047-.019h.2s.041.007.067.029c.019.016.022.064.022.064v.592h.204v-.603s.005-.039.027-.058c.024-.02.058-.023.058-.023h.21s.047.004.072.041a.33.33 0 01.02.084v.559h.208v-.55s0-.144-.049-.222c-.04-.064-.096-.077-.134-.09-.047-.017-.149-.013-.198-.012a.426.426 0 00-.123.021.274.274 0 00-.07.054c-.026.028-.043.095-.043.095s-.022-.06-.033-.078a.203.203 0 00-.084-.066c-.02-.01-.09-.022-.09-.022s-.126-.006-.168-.003a.311.311 0 00-.078.016.315.315 0 00-.062.042c-.025.022-.047.067-.047.067z"/></svg>