<svg xmlns="http://www.w3.org/2000/svg" role="img" viewBox="0 0 38 24" width="38" height="24" aria-labelledby="pi-wepa"><title id="pi-wepa">Wepa</title><path opacity=".07" d="M35 0H3C1.3 0 0 1.3 0 3v18c0 1.7 1.4 3 3 3h32c1.7 0 3-1.3 3-3V3c0-1.7-1.4-3-3-3z"/><path fill="#FFF" d="M35 1c1.1 0 2 .9 2 2v18c0 1.1-.9 2-2 2H3c-1.1 0-2-.9-2-2V3c0-1.1.9-2 2-2h32"/><path fill="#1D1D1B" d="M33.11 10.86c-.01-.61-.14-1.26-.35-1.7-.22-.46-.51-.85-.87-1.16-.07-.06-.14-.11-.21-.17a.138.138 0 00-.04-.03c-.11-.09-.24-.16-.37-.23-.02-.01-.04-.02-.05-.03-.05-.03-.12-.05-.19-.08-.99-.37-2.21-.21-2.21-.21s-1.74.08-2.05 1.18c0 0 0 .01-.01.01-.03-.03-1.05-1.26-2.8-1.28 0 0-1.64-.17-2.94 1.26 0 0-.76-1.37-2.79-1.19-1.94.16-2.54 1.3-2.54 1.3V8.1s-.17-1.3-2.07-.84c-.27.07-.53.17-.79.28l-.57.26c-.12.05-.19.17-.19.3v.32S12 6.62 9.62 7.36c-.1.03-.19.08-.26.15l-1.05 1v-.23a.91.91 0 00-.08-.37c-.48-1-1.77-.73-2.23-.59-.11.03-.2.09-.28.17l-.65.69c-.11.12-.18.27-.18.43v2.98s-.04 2.48 2.65 3.02c0 0 1.72.27 2.73-.35 0 0 1.13.63 2.65.34s2-1.1 2.32-1.51c0 0 .44 1.03 2.03 1.4 1.49.35 2.37-.21 2.52-.29v1.85c0 .15.08.29.2.37.81.5 1.7.41 1.7.41 1.73-.23 1.73-1.64 1.73-1.64v-.56s2.01.15 2.96-1.13c0 0 .7 1.21 2.83 1.18a4.877 4.877 0 001.61-.26l.09-.03c.04-.01.08-.03.11-.04.22-.09.4-.18.54-.28.6-.38 1.03-.94 1.27-1.65 0-.01.01-.02.01-.03l.01-.02c.01-.02.02-.04.02-.06l.08-.29c.11-.37.16-.76.16-1.16"/><path fill="#FFF" d="M6.33 7.94c.03-.02.1-.04.21-.07.11-.03.24-.05.38-.05.22 0 .4.05.53.16.14.11.22.29.22.52v2.2c0 .41.09.72.28.93.18.2.47.3.87.3.39 0 .68-.1.87-.3.13-.15.22-.35.25-.59V7.96l.09-.04c.04-.02.11-.04.21-.07.11-.03.24-.05.38-.05.18 0 .32.04.45.1.04.02.08.04.11.07.14.11.22.29.22.52V11.02c.04.25.12.44.25.59.18.2.47.3.87.3.39 0 .68-.1.87-.3.19-.21.28-.52.28-.93V7.96l.09-.04c.04-.02.11-.04.21-.07.11-.03.24-.05.37-.05.23 0 .41.05.54.16.14.11.22.29.22.52v2.45c0 .36-.06.68-.19.97-.13.29-.31.53-.54.73-.23.2-.5.35-.82.45-.31.1-.66.15-1.03.15s-.72-.05-1.03-.15c-.31-.1-.58-.25-.81-.44l-.01.01c-.23.2-.5.35-.82.45-.31.1-.66.15-1.03.15s-.72-.05-1.03-.15c-.32-.1-.59-.25-.82-.45-.23-.2-.41-.45-.54-.74-.12-.29-.19-.61-.19-.97V7.98l.09-.04zM20.68 12.45c-.01-.03-.02-.09-.04-.18a.994.994 0 00-.12-.29.674.674 0 00-.33-.3c-.13-.05-.26-.03-.41.04-.07.04-.14.07-.24.11-.1.04-.22.08-.36.11-.13.03-.28.05-.44.06-.46.03-.83-.04-1.08-.21-.2-.13-.34-.3-.42-.51h.18c.11 0 .24-.01.37-.02.56-.03 1.03-.1 1.4-.2.37-.1.67-.23.89-.38.23-.16.39-.35.47-.57.08-.21.11-.44.1-.68a1.53 1.53 0 00-.19-.67 1.43 1.43 0 00-.48-.53c-.2-.14-.44-.26-.72-.33-.28-.08-.6-.1-.95-.08-.4.02-.77.11-1.09.26-.33.15-.61.36-.85.62-.23.26-.41.56-.53.91-.12.34-.17.72-.14 1.13.03.43.12.8.28 1.13.16.32.38.59.64.81.26.21.57.37.91.47.33.1.7.13 1.07.11.27-.02.51-.05.74-.1.22-.05.42-.11.58-.18.17-.06.31-.13.43-.2.11-.07.19-.12.24-.16l.11-.08-.02-.09zm-3.51-2.58c.05-.17.13-.32.23-.45s.23-.24.39-.32c.16-.08.35-.13.56-.15.26-.02.49.03.67.12.16.09.24.22.25.42 0 .08-.01.15-.03.23-.02.06-.08.12-.17.19-.1.07-.26.13-.46.19-.21.06-.49.09-.83.11l-.41.02c-.09.01-.18.01-.27.01.01-.12.03-.24.07-.37M32.12 9.26c-.15-.33-.36-.6-.62-.83-.26-.22-.56-.39-.89-.49-.33-.11-.69-.15-1.07-.14-.12 0-.22.01-.33.03h-.01c-.23.02-.43.04-.61.08s-.33.08-.46.13c-.12.05-.21.09-.27.12l-.12.06v.08c0 .03 0 .09.01.18.01.1.03.2.08.31.07.17.16.29.28.36.12.07.26.08.42.02.08-.03.15-.05.26-.07.11-.03.24-.04.37-.06.04 0 .09-.01.14-.01h.06c.46-.01.82.07 1.07.24.19.14.33.41.4.62h-.18l-1.47.01c-.57.02-1.02.17-1.3.44-.25.23-.37.52-.37.52-.09.21-.13.43-.12.68.01.24.06.47.17.68.11.21.26.39.46.55.2.15.43.27.71.35.23.07.49.11.78.11 0 0 .61.06 1.26-.17.01 0 .02 0 .02-.01.01 0 .02-.01.03-.01l.09-.03c.16-.06.28-.13.38-.2.37-.24.71-.61.9-1.18 0-.01.01-.01.01-.02v-.01c.01-.02.01-.03.02-.04.11-.33.17-.69.16-1.07-.01-.42-.11-.9-.26-1.23m-3.37 2.3c0-.08.01-.15.03-.23 0 0 .11-.35.64-.37l1.51-.02c-.01.12-.03.22-.07.35-.05.17-.13.32-.24.45-.1.13-.19.18-.35.27-.16.08-.4.09-.61.1-.26.01-.49-.03-.67-.13a.487.487 0 01-.24-.42M21.3 15.46c.09.05.25.13.46.15.11.01.41.03.68-.17a.92.92 0 00.35-.53c.01-.65.01-1.3.02-1.95a2.876 2.876 0 001.63.26c1.15-.17 2.27-1.32 2.32-2.43v-.13c0-.27-.02-1.06-.56-1.77-.8-1.04-2.19-1.24-3.15-.98-.2.05-.95.24-1.53.89-.12.14-.19.27-.24.36.01 2.09.02 4.22.02 6.3m4.01-5.09c.01.14.03.58-.27.93-.18.21-.39.3-.5.35-.27.12-.51.12-.68.12-.4 0-.73-.1-.98-.21-.01-.62-.03-1.24-.04-1.87.08-.1.23-.26.46-.38.27-.14.52-.14.66-.15.18 0 .45-.01.72.15.56.32.63 1.02.63 1.06"/></svg>