<svg xmlns="http://www.w3.org/2000/svg" width="38" height="24" fill="none" aria-labelledby="pi-whishcheckout" role="img" viewBox="0 0 38 24"><title id="pi-whishcheckout">Whish Checkout</title><path fill="#fff" d="M0 0h38v24H0z"/><path fill="#E81C48" d="M16.64 7.92h18.9v6.46a2.35 2.35 0 0 1-1.77 1.7H18.45a2.28 2.28 0 0 1-1.81-2.13zm3.2 3.02c-1.48.23-1.07 3.06.56 1.86-.24-.49-.23-.25-.52-.22-.71.07-.32-1.3.19-1.15.08.03.12.15.2.14.05 0 .32-.22.33-.28.06-.3-.54-.39-.76-.35m5.9.63c.08.03.62-.25.24-.52-.57-.4-1.4.18-1.49.81-.1.7.13 1.35.96 1.21.17-.02.53-.18.44-.37-.16-.35-.23-.16-.44-.13-.78.12-.38-1.36.22-1.11.06.02.06.1.07.1Zm3.25-.63c-1.08.14-1.3 2.05-.21 2.14 1.38.11 1.67-2.34.2-2.14Zm-7.43.03c-.1.02-.52-.02-.55 0-.07.08-.28 1.8-.4 2.06.13-.03.46.04.55-.02.1-.07.1-.78.18-.79h.52l-.15.8.56-.02.4-2.03c-.1.02-.5-.03-.55 0-.05.05-.08.62-.15.73-.05.07-.44 0-.56.02zm2.82 0h-1.3l-.41 2.06h1.36c.02 0 .04-.4.05-.45h-.76c.04-.58.36-.26.67-.36.12-.04.1-.37.14-.5h-.6c-.17-.52.7-.2.8-.3.01-.01.03-.37.05-.45m2.71 0h-.55l-.4 2.06c.13-.03.46.04.55-.02.1-.07.03-.7.38-.73.04 0 .2.71.23.74.04.04.49-.01.6 0l-.44-1.17.74-.88c-.17.03-.53-.05-.66.03s-.36.54-.55.63zm3.92 0c-.12.03-.48-.03-.55.01a8.3 8.3 0 0 0-.25 1.27c-.03.62.31.9.92.82.86-.11.74-1.46.99-2.07-.11-.02-.47-.07-.55-.02-.06.04-.21 1.17-.3 1.37-.09.19-.32.34-.46.16-.17-.21.2-1.23.2-1.54m2.92 0h-1.54c-.07 0-.11.37-.12.45l.5.03-.3 1.58c.14-.03.4.03.52 0 .1-.03.28-1.55.34-1.6.03-.04.52.02.55 0 .01-.02.02-.38.05-.46"/><path fill="#E81C48" d="M15.93 7.92v6.23c.09.76.45 1.37.96 1.93H2.47v-6.4c.24-.92.89-1.53 1.8-1.76zm-5.65 2.3H8l.07.12 1.24.38H5.56c-.03 0-.1.1-.08.15l3.77.5H4.42c-.03.18.25.09.34.15l4.64.7H6.59l.12.15 3.14.6H8.1c-.01.11.05.13.13.16.5.19 2.09.57 2.63.63.23.03.46.06.6-.16.2-.31.33-.94.51-1.3.03-.05.03-.12.1-.13.07.06.41 1.28.6 1.48.1.1.2.12.33.13.4.02.43-.12.57-.44.27-.6.62-1.63.8-2.27.1-.4.08-.85-.46-.85-.57 0-.67 1.11-.86 1.55-.02.05 0 .12-.07.1-.1-.31-.44-1.55-.74-1.64-.78-.23-.88 1.01-1.12 1.52-.02.05-.03.12-.1.13-.12-.35-.36-1.58-.73-1.66Zm18.43 2.3c-.12-.13-.06-.6 0-.76.1-.23.43-.51.6-.22.29.46-.25 1.32-.6.97Z"/></svg>