<svg xmlns="http://www.w3.org/2000/svg" width="38" height="24" fill="none" aria-labelledby="pi-wissel" role="img" viewBox="0 0 38 24"><title id="pi-wissel">Wissel.nl</title><g clip-path="url(#pi-wissel-a)"><path fill="#EA9E2F" d="M0 0h38v24H0z"/><path fill="#fff" d="M32.28 14.42c.05-.82.1-1.68.17-2.58a1.09 1.09 0 0 0-.84-1.13l-.09-.01a50 50 0 0 0-4.97-.29 1.06 1.06 0 0 0-1.08.99c-.05.82-.1 1.68-.17 2.58a1.09 1.09 0 0 0 .93 1.14c1.8.21 3.6.27 4.97.3.56 0 1.05-.44 1.08-1"/><path fill="#95D9F1" d="M30.82 14.67c-1.79 0-3.59-.1-5.38-.3a.86.86 0 0 1-.75-.89c.06-1.23.13-2.47.18-3.71.02-.44.4-.81.83-.81 1.8 0 3.6.1 5.39.3a.86.86 0 0 1 .75.88q-.105 1.845-.18 3.72a.85.85 0 0 1-.84.8Z"/><path fill="#fff" d="M33.97 11.52 33.5 7.9A1.53 1.53 0 0 0 32 6.58h-.12c-2.54.22-5.06.66-6.97 1a1.5 1.5 0 0 0-1.21 1.67l.49 3.62c.1.75.75 1.32 1.48 1.32h.12a79 79 0 0 0 6.98-1 1.5 1.5 0 0 0 1.2-1.67"/><path fill="#7DB545" d="M32.63 12.59c-2.28.42-4.58.8-6.87 1a.87.87 0 0 1-.9-.76l-.5-3.68a.87.87 0 0 1 .68-.94c2.28-.42 4.58-.8 6.87-1a.87.87 0 0 1 .9.75l.5 3.68c.07.43-.25.85-.68.95"/><path fill="#fff" d="M28 15.2a.85.85 0 0 0-.5-.68v-.01l.08-.96.09-1v-.08l.14-1.88c.03-.65-.28-1.07-.9-1.26-.43-.14-1.05-.21-1.43.1-.29.26-.3.62-.31.73l-.06.94-.04-.03a3 3 0 0 0-2-.38 2.72 2.72 0 0 0-1.81.97 1.4 1.4 0 0 0-.26-.36 1.8 1.8 0 0 0-.8-.46c-.9-.27-2.1-.07-2.78.63a1.2 1.2 0 0 0-.21-.24 2.2 2.2 0 0 0-1.45-.5c-.17 0-.34 0-.52.04-.45.07-1.07.22-1.55.74l-.15-.23c.02 0 .03-.02.05-.03.44-.32.63-.92.44-1.39-.19-.45-.7-.76-1.25-.76h-.07c-.56.02-1.24.37-1.4.93-.14.49 0 .83.12 1.04a.8.8 0 0 0-.2-.06c-.3-.07-.56-.14-.86-.16h-.13c-.58 0-.82.28-.93.56a1.7 1.7 0 0 0-.36-.3 2 2 0 0 0-1.1-.27h-.39c-.38 0-.7.2-.86.52A1 1 0 0 0 6 11a8 8 0 0 0-1.15-.16h-.08a.87.87 0 0 0-.66.28c-.18.2-.24.47-.16.8l.15.6.03.15.25.96.51 1.96c.14.54.49.9.96 1 .4.09.83.1 1.22.1.42 0 .7-.38.8-.67.17.34.48.56.88.64.19.04.4.05.62.07h.05c.66 0 .97-.22 1.23-.85l.22-.56.01-.03.08-.2c-.03.5.09.9.35 1.2.28.3.68.44 1.18.44.2 0 .65 0 .9-.36a3.5 3.5 0 0 0 1.72.45c.38 0 .78-.07 1.13-.18.26-.09.5-.22.69-.39l.13.1a3.5 3.5 0 0 0 2.95.28c.4-.13.73-.39.96-.73.4.49.96.8 1.63.88l.56.03c.7 0 1.26-.19 1.74-.58l.14-.13a1.5 1.5 0 0 0 1.3.73c.24 0 .48-.06.72-.15.62-.26.99-.87.92-1.48Zm-14.2 1.22c-.02 0-.03 0-.05-.02a.1.1 0 0 1 .05.02m.3.1.07.02a.2.2 0 0 1-.07-.02m.19.06h.07zm.2.04.05.01h-.05Zm.43.05H15a.08.08 0 0 1-.07 0Zm.76-.04h.04zm.28-.04.05-.01h-.05Z"/><path fill="#000" d="m7.95 12.92-.03.19-.19.97c-.12.6-.24 1.22-.38 1.82-.02.1-.14.24-.22.24-.37 0-.74 0-1.1-.09-.25-.05-.42-.27-.5-.55l-.76-2.93c-.07-.23-.12-.46-.18-.7-.05-.25.01-.36.27-.34.35.02.72.07 1.06.15.25.04.34.25.35.48.04.52.05 1.06.16 1.57.02.1.05.2.1.27l.02.03c.27.11.42-1.32.46-1.47l.15-.77c.05-.2.17-.3.37-.3.4.02.8-.05 1.16.18.2.12.32.28.34.51.06.5.1 1.02.18 1.53.01.08.02.16.07.21.1.2.25.1.3-.07.08-.26.09-.55.13-.81l.16-1.1c.05-.39.12-.47.5-.44.26 0 .52.08.77.13.23.06.33.24.29.46-.09.39-.17.78-.31 1.14-.3.82-.64 1.64-.97 2.45-.16.4-.25.46-.7.46-.16 0-.34 0-.5-.05a.65.65 0 0 1-.55-.56l-.29-1.8-.06-.51a8 8 0 0 0-.07-.46m7.36 3.5a3.2 3.2 0 0 1-1.47-.32c-.39-.2-.46-.58-.16-.91.16-.18.35-.18.54-.07.32.2.67.27 1.04.22.16-.02.32-.06.34-.25.02-.18-.08-.27-.22-.34-.31-.14-.6-.3-.9-.44-.76-.34-.88-1.36-.52-1.94.32-.53.82-.72 1.39-.8.53-.07 1.05-.04 1.5.32.24.2.34.75.18 1.06-.1.22-.6.44-.86.34-.1-.03-.14-.17-.2-.26-.09-.12-.16-.31-.28-.37-.18-.09-.4-.04-.57.12-.16.16-.18.33 0 .47.21.14.44.27.67.36.3.11.59.23.82.47.3.29.44.7.4 1.12-.1.87-.88 1.2-1.7 1.22m-2.76-.08q-.99 0-.93-.99l.26-3.42c0-.2.1-.3.29-.28.2.01.43.02.64.07.31.08.48.39.44.79l-.24 3.5c-.01.27-.09.33-.46.33m.1-5.1a.75.75 0 0 1-.6-.18c-.17-.17-.2-.4-.13-.63.07-.25.46-.48.84-.5.32-.01.63.14.73.39.08.2 0 .5-.23.66-.18.12-.4.24-.6.26Zm11.65 3.64a.46.46 0 0 0-.34.16c-.2.28-.44.35-.77.3-.33-.06-.47-.29-.57-.56-.07-.2 0-.28.2-.3.43-.06.85-.12 1.26-.24.82-.25 1.22-.82 1.1-1.65-.04-.25-.11-.52-.37-.67a2.35 2.35 0 0 0-1.4-.34c-.45.04-.92.15-1.27.44-.89.73-1.12 1.7-1.02 2.79.02.2.1.42.2.6.3.58.8.9 1.44.97.66.08 1.3.03 1.84-.41a.6.6 0 0 0 .21-.65c-.08-.25-.25-.42-.5-.44zm-1.65-1.37c.02-.21.21-.5.29-.62.18-.24.55-.22.7-.05.24.27.09.59-.18.74-.19.11-.6.35-.78.1a.23.23 0 0 1-.03-.17m-3.22-1.94c.43-.01.85.08 1.18.39a.9.9 0 0 1 .18.95c-.1.24-.47.43-.79.42-.16 0-.25-.06-.29-.23-.07-.38-.32-.54-.67-.41-.12.05-.27.19-.29.31-.02.11.07.3.17.36.2.13.46.23.7.3.45.16.8.4 1.01.85a1.3 1.3 0 0 1-.76 1.72c-.84.28-1.67.22-2.45-.24-.25-.14-.29-.38-.13-.64.18-.32.38-.4.65-.25.34.2.71.3 1.1.22.1-.03.25-.12.29-.23.05-.14-.05-.26-.2-.34l-1.07-.52a.91.91 0 0 1-.47-.62c-.11-.54-.12-1.07.29-1.51.35-.36.85-.5 1.34-.54h.2zm6.06 3.48a809 809 0 0 0 .3-4.64c.01-.26.1-.37.36-.35.2.03.4.01.58.07.36.11.5.28.47.65-.03.65-.08 1.3-.13 1.94l-.17 1.96c-.02.27.06.5.35.62.07.02.14.12.15.19.04.34-.18.68-.51.83-.73.3-1.38-.1-1.4-.88zm4.04-5.35.1.06c.14.1.1.1.22-.03.3-.35.9-.3 1.13.08l.05.13.05.45.02.26v.25c0 .23.06.5-.16.64a.37.37 0 0 1-.27.04.2.2 0 0 1-.1-.04c-.05-.05-.07-.14-.08-.21-.04-.26.1-1.2-.32-1.21a.3.3 0 0 0-.22.1c-.13.15-.13.34-.13.52l-.01.75c0 .15 0 .29-.19.3-.07.02-.12 0-.19 0-.3-.05-.29-.47-.3-.7a6 6 0 0 1 0-1.3c.02-.08.1-.1.16-.13a.32.32 0 0 1 .24.03Zm1.9.19c-.01-.27-.02-.55-.05-.8 0-.15-.05-.31.11-.4.14-.08.35-.1.46.03.06.1.1.2.1.32l.03.51v.12c.02.3.02.58.05.87.01.1.03.27.1.38.06.08.17.16.15.3-.03.2-.34.35-.54.25-.34-.18-.32-.7-.35-1.03a5 5 0 0 1-.06-.56Zm-2.98 2.08a.3.3 0 0 1-.25-.08.25.25 0 0 1-.06-.27c.04-.11.2-.22.37-.23.14 0 .27.07.32.17a.26.26 0 0 1-.1.29.55.55 0 0 1-.28.12"/></g><defs><clipPath id="pi-wissel-a"><path fill="#fff" d="M0 0h38v24H0z"/></clipPath></defs></svg>