<svg width="38" height="24" fill="none" xmlns="http://www.w3.org/2000/svg" aria-labelledby="pi-xrp"><path fill="#fff" d="M0 0h38v24H0z"/><path opacity=".07" d="M35 0H3C1.3 0 0 1.3 0 3v18c0 1.7 1.4 3 3 3h32c1.7 0 3-1.3 3-3V3c0-1.7-1.4-3-3-3Z" fill="#000"/><path d="M35 1c1.1 0 2 .9 2 2v18c0 1.1-.9 2-2 2H3c-1.1 0-2-.9-2-2V3c0-1.1.9-2 2-2h32Z" fill="#fff"/><circle cx="19" cy="12" r="8" fill="#000"/><mask id="a" style="mask-type:alpha" maskUnits="userSpaceOnUse" x="11" y="4" width="16" height="16"><circle cx="19" cy="12" r="8" fill="#fff"/></mask><g mask="url(#a)"><path fill-rule="evenodd" clip-rule="evenodd" d="M22.773 8.632h-1.095l-1.733 1.796a1.305 1.305 0 0 1-1.893 0L16.32 8.632h-1.095l2.28 2.364a2.06 2.06 0 0 0 2.988 0l2.28-2.364Zm-7.563 6.576h1.096l1.75-1.812a1.305 1.305 0 0 1 1.892 0l1.746 1.812h1.096l-2.295-2.38a2.061 2.061 0 0 0-2.99 0l-2.294 2.38Z" fill="#fff"/></g></svg>