<svg xmlns="http://www.w3.org/2000/svg" width="38" height="24" fill="none" aria-labelledby="pi-xrp" role="img" viewBox="0 0 38 24"><title id="pi-xrp">XRP</title><path fill="#fff" d="M0 0h38v24H0z"/><path fill="#000" d="M19 20a8 8 0 1 0 0-16 8 8 0 0 0 0 16"/><path fill="#fff" fill-rule="evenodd" d="M22.77 8.63h-1.1l-1.73 1.8a1.3 1.3 0 0 1-1.89 0l-1.73-1.8h-1.1L17.5 11a2.06 2.06 0 0 0 3 0zm-7.56 6.58h1.1l1.75-1.81a1.3 1.3 0 0 1 1.89 0l1.74 1.8h1.1l-2.3-2.37a2.06 2.06 0 0 0-2.98 0z" clip-rule="evenodd"/></svg>