<svg version="1.1" width="38" height="24" viewBox="0 0 38 24" role="img" aria-labelledby="pi-yape" xmlns="http://www.w3.org/2000/svg"><title id="pi-yape">Paga con Yape</title><defs><clipPath id="i0"><path d="M38 0v24H0V0h38z"/></clipPath><clipPath id="i1"><path d="M32 0a6 6 0 110 12H6A6 6 0 116 0h26z"/></clipPath><clipPath id="i2"><path d="M1.395 0c.408 0 .731.112.971.337.24.225.36.523.36.893 0 .38-.118.674-.352.885-.235.21-.564.316-.986.316H.634v1.437H0V0h1.395zm.018.542h-.78v1.35h.762c.226 0 .398-.057.516-.17.119-.112.178-.274.178-.487a.692.692 0 00-.18-.5c-.12-.125-.286-.19-.496-.193z"/></clipPath><clipPath id="i3"><path d="M1.175 0c.317 0 .57.085.759.254.189.169.285.407.29.713v1.297c0 .258.035.464.103.619v.045h-.621a1.043 1.043 0 01-.07-.269.923.923 0 01-.712.322c-.272 0-.494-.082-.666-.247A.812.812 0 010 2.123c0-.307.107-.542.322-.706.215-.163.521-.245.92-.245h.374V.983a.522.522 0 00-.118-.357C1.42.536 1.3.49 1.14.49a.515.515 0 00-.34.11.349.349 0 00-.134.281H.058C.058.724.107.577.205.44A.993.993 0 01.607.117C.777.039.967 0 1.175 0zm.44 1.578h-.327c-.226 0-.395.042-.509.125a.412.412 0 00-.17.353c0 .124.039.223.116.297.078.073.182.11.312.11a.662.662 0 00.579-.343v-.542z"/></clipPath><clipPath id="i4"><path d="M1.085 0c.309 0 .552.114.729.343l.027-.29h.549V2.84c0 .377-.11.675-.332.893-.221.218-.52.327-.896.327-.198 0-.393-.044-.582-.132a1.044 1.044 0 01-.432-.344l.288-.388c.187.236.417.353.691.353.202 0 .362-.058.479-.174.117-.116.175-.286.175-.511V2.67a.873.873 0 01-.701.31.932.932 0 01-.778-.4C.1 2.312 0 1.942 0 1.47 0 1.022.099.665.297.4c.198-.267.46-.4.788-.4zm.155.529A.53.53 0 00.773.78c-.111.168-.167.416-.167.744 0 .289.056.516.167.681a.527.527 0 00.462.249.581.581 0 00.546-.335V.855A.572.572 0 001.24.53z"/></clipPath><clipPath id="i5"><path d="M1.175 0c.317 0 .57.085.759.254.189.169.285.407.29.713v1.297c0 .258.035.464.103.619v.045h-.621a1.043 1.043 0 01-.07-.269.923.923 0 01-.712.322c-.272 0-.494-.082-.666-.247A.812.812 0 010 2.123c0-.307.107-.542.322-.706.215-.163.521-.245.92-.245h.374V.983a.522.522 0 00-.118-.357C1.42.536 1.3.49 1.14.49a.515.515 0 00-.34.11.349.349 0 00-.134.281H.058C.058.724.107.577.205.44A.993.993 0 01.607.117C.777.039.967 0 1.175 0zm.44 1.578h-.327c-.226 0-.395.042-.509.125a.412.412 0 00-.17.353c0 .124.039.223.116.297.078.073.182.11.312.11a.662.662 0 00.579-.343v-.542z"/></clipPath><clipPath id="i6"><path d="M1.232 0c.323 0 .585.1.788.299.203.2.31.46.32.785h-.574a.61.61 0 00-.159-.407.497.497 0 00-.38-.159.525.525 0 00-.455.227c-.107.152-.162.381-.163.69v.103c0 .312.053.544.159.698.106.153.26.23.46.23a.532.532 0 00.378-.141c.1-.094.153-.21.16-.348h.574a.987.987 0 01-.158.5 1.056 1.056 0 01-.4.368c-.17.09-.352.136-.547.136-.38 0-.68-.13-.902-.39C.111 2.33 0 1.97 0 1.51v-.066C0 1.008.11.658.33.395.552.132.853 0 1.233 0z"/></clipPath><clipPath id="i7"><path d="M1.258 0c.365 0 .662.125.89.375.228.25.351.58.37.993l.002.152c0 .283-.051.536-.154.76-.103.223-.25.395-.44.518a1.204 1.204 0 01-.663.183c-.383 0-.689-.135-.919-.405-.23-.27-.344-.63-.344-1.08v-.032C0 1.182.053.929.158.703A1.2 1.2 0 01.6.182C.791.061 1.011 0 1.258 0zm0 .518A.549.549 0 00.784.77C.667.937.61 1.187.61 1.52c0 .296.057.528.173.695a.552.552 0 00.48.251.546.546 0 00.48-.255c.115-.17.172-.418.172-.746 0-.29-.059-.52-.177-.69a.554.554 0 00-.48-.256z"/></clipPath><clipPath id="i8"><path d="M1.38 0c.565 0 .852.343.862 1.028v1.9h-.609V1.065c0-.182-.037-.317-.111-.405C1.448.573 1.326.53 1.157.53.912.529.73.646.61.882v2.046H0V.053h.574L.59.385A.953.953 0 011.381 0z"/></clipPath><clipPath id="i9"><path d="M1.356.043A1.71 1.71 0 013.41 1.33a1.723 1.723 0 01-1.316 2.045 1.73 1.73 0 01-.968-.059c-.116-.042-.57.414-.674.35-.126-.08.101-.685 0-.795a1.677 1.677 0 01-.412-.784A1.724 1.724 0 011.356.043zm-.04 1.036c-.218 0-.456.107-.456.365 0 .259.192.333.492.457.257.106.263.183.271.29 0 .094-.066.169-.288.162-.148-.007-.224-.076-.262-.146a.279.279 0 01-.027-.076l-.004-.03v-.023l-.004-.026a.11.11 0 00-.109-.1.11.11 0 00-.11.111c0 .017 0 .053.012.105.028.13.136.389.528.389.462 0 .525-.335.489-.481-.033-.134-.11-.244-.477-.38-.188-.062-.3-.132-.3-.25 0-.117.125-.18.24-.18.086 0 .203.04.258.12l.006.008a.188.188 0 01.025.087.23.23 0 00.008.062l.003.011.012.024a.109.109 0 00.188-.012l.005-.01.004-.014c.005-.025.004-.042.004-.052a.405.405 0 00-.112-.273l-.057-.045a.54.54 0 00-.193-.076.61.61 0 00-.146-.017zm1.454.004a.105.105 0 00-.142.042l-.68 1.256a.106.106 0 00.042.143c.05.028.115.01.143-.042l.68-1.255a.106.106 0 00-.043-.144z"/></clipPath><clipPath id="i10"><path d="M6.065.28c.121.165.15.477.132.734A3.125 3.125 0 015.91 2.06c-.158.312-.372.532-.672.484-.257-.04-.368-.205-.368-.205s-.015.071-.06.373c-.013.084-.026.193-.041.31l.417-.056c.272-.034 1.304-.167 1.591-.176.288-.01.347.037.393.11.046.074.064.193-.023.28-.086.088-.803.133-1.141.18-.207.028-.816.109-1.325.18a.614.614 0 01-.096.243c-.13.152-.266.096-.305 0a.427.427 0 01-.013-.187l-.306.048c-.29.05-1.412.262-1.876.39-.038.117-.076.234-.116.35-.154.443-.353.871-.662 1.23a1.483 1.483 0 01-.359.318.755.755 0 01-.46.112.548.548 0 01-.467-.41c-.06-.229.012-.48.1-.694a2.06 2.06 0 01.402-.623c.13-.141.278-.265.437-.373.113-.082.256-.173.426-.254.068-.032.142-.061.221-.089l.033-.013a.098.098 0 00.04-.025.095.095 0 00.018-.036c.095-.31.2-.618.3-.927-.023.072-.106.149-.157.2-.111.11-.26.219-.42.23a.374.374 0 01-.265-.083.45.45 0 01-.141-.305c-.014-.148.016-.301.048-.445a4.37 4.37 0 01.121-.437c.032-.097.067-.194.102-.29.031-.085.075-.172.086-.264.012-.1-.012-.208.025-.278.036-.07.131-.054.22-.036.09.017.187.128.178.25-.009.123-.063.279-.1.398-.036.12-.116.365-.143.484-.027.12-.072.325.018.39.116.082.27-.053.393-.24.11-.17.264-.61.31-.74.046-.132.148-.457.18-.558a.495.495 0 01.222-.267.388.388 0 01.31-.052c.08.028.019.23 0 .3-.018.07-.714 2.569-.714 2.569.206-.04.398-.073.533-.098l.09-.018c.174-.037.88-.144 1.47-.23.023-.13.052-.284.085-.452-.117.073-.273.14-.397.1-.185-.061-.19-.276-.19-.276-.104.256-.304.452-.574.412-.27-.04-.347-.228-.38-.368-.034-.14-.104-.481.088-1.054.192-.573.513-.938.778-.977.265-.038.395.132.395.132l.037-.114c.036-.114.156-.107.277-.071.122.036.132.14.107.25-.025.108-.185.835-.185.835s-.192.743-.006.688a.408.408 0 00.151-.081l.063-.327c.135-.706.265-1.371.28-1.428.035-.124.115-.114.269-.077.153.036.116.098.116.098l-.026.18a.942.942 0 01.305-.338c.135-.073.386-.096.507.069zM1.513 4.19s-.422.157-.742.56c-.256.322-.374.65-.281.763.116.143.339-.093.413-.178.151-.174.268-.374.37-.58a4.962 4.962 0 00.2-.45c.005-.015.027-.11.04-.114zM7.319 0l.113.012a.38.38 0 01.155.062c.308.214.12.664-.047.91-.12.179-.296.308-.495.392a.921.921 0 01-.316.08.805.805 0 00-.065.2c-.012.086-.004.22.056.275.144.134.395-.03.507-.123.05-.042.104-.082.146-.132.039-.046.107-.15.174-.129.055.018.088.118.105.161 0 0 .05.119.015.19-.036.073-.291.3-.35.344a1.494 1.494 0 01-.452.22.536.536 0 01-.439-.07.501.501 0 01-.168-.234.982.982 0 01-.053-.284A2.24 2.24 0 016.48.7c.17-.308.237-.396.44-.564a.557.557 0 01.29-.13L7.32 0zM3.9.89c-.129.05-.304.148-.446.468-.075.169-.118.344-.129.492-.01.149.012.413.188.447.158.03.271-.219.374-.524.096-.285.171-.553.204-.716C4.125.887 4.004.85 3.9.89zM5.493.688c-.197.142-.29.477-.367.762-.08.3-.135.598-.135.598.115.127.325.06.424-.042.114-.116.172-.275.225-.427.063-.18.11-.363.123-.554.013-.174-.026-.513-.27-.337zm1.77-.273l-.045.003a.254.254 0 00-.114.074 1.374 1.374 0 00-.297.564c.001-.01.032.001.138-.042a.758.758 0 00.312-.233c.057-.075.11-.188.09-.285a.097.097 0 00-.045-.068L7.263.415z"/></clipPath></defs><g clip-path="url(#i0)"><g clip-path="url(#i1)" transform="translate(0 6)"><path fill="#742284" d="M0 0h38v12H0V0z"/></g><g clip-path="url(#i2)" transform="translate(4 10)"><path fill="#FFF" d="M0 0h2.726v3.868H0V0z"/></g><g clip-path="url(#i3)" transform="translate(6.996 10.94)"><path fill="#FFF" d="M0 0h2.327v2.98H0V0z"/></g><g clip-path="url(#i4)" transform="translate(9.642 10.94)"><path fill="#FFF" d="M0 0h2.39v4.06H0V0z"/></g><g clip-path="url(#i5)" transform="translate(12.46 10.94)"><path fill="#FFF" d="M0 0h2.327v2.98H0V0z"/></g><g clip-path="url(#i6)" transform="translate(16.266 10.94)"><path fill="#FFF" d="M0 0h2.34v2.98H0V0z"/></g><g clip-path="url(#i7)" transform="translate(18.842 10.94)"><path fill="#FFF" d="M0 0h2.52v2.98H0V0z"/></g><g clip-path="url(#i8)" transform="translate(21.758 10.94)"><path fill="#FFF" d="M0 0h2.242v2.928H0V0z"/></g><g><g clip-path="url(#i9)" transform="translate(28.863 7)"><path fill="#10CBB3" d="M0 0h3.45v3.673H0V0z"/></g><g clip-path="url(#i10)" transform="translate(26.125 10.927)"><path fill="#FFF" d="M0 0h7.752v6.047H0V0z"/></g></g></g></svg>