<svg width="38" height="24" fill="none" xmlns="http://www.w3.org/2000/svg"><g clip-path="url(#a)"><path d="M34.99.99h-32a2 2 0 0 0-2 2v18a2 2 0 0 0 2 2h32a2 2 0 0 0 2-2v-18a2 2 0 0 0-2-2Z" fill="#fff"/><path opacity=".07" d="M34.99.99c1.1 0 2 .9 2 2v18c0 1.1-.9 2-2 2h-32c-1.1 0-2-.9-2-2v-18a2 2 0 0 1 2-2h32Zm0-.99h-32C1.33 0 0 1.34 0 2.99v18c0 1.65 1.35 3 3 3h32c1.65 0 3-1.35 3-3v-18A3 3 0 0 0 35 0h-.01Z" fill="#000"/><path d="M24.934 6.857H2.857c-.492 0-.892.375-.892.838V21.13c0 .463.4.838.892.838h22.077c.493 0 .892-.375.892-.838V7.695c0-.463-.4-.838-.892-.838Z" fill="url(#b)"/><path d="M8 12h-.881l-.22-.213v-.3l.22-.215H8V12Z" fill="#FFF200"/><path d="M5.004 10.06h.439v-.262h-.44V9.65h.54v-.28h-.9v1.15h.899v-.28h-.538v-.18ZM6.757 9.65v.87h.358v-.87h.294v-.28h-.946v.28h.294ZM5.919 10.643l.417.739v.411h.36v-.411l.417-.739H6.75l-.236.391-.236-.39h-.36ZM4.381 9.912l.017-.006a.198.198 0 0 0 .04-.027.628.628 0 0 0 .046-.045.25.25 0 0 0 .056-.159.27.27 0 0 0-.109-.214.455.455 0 0 0-.296-.09h-.543v1.15h.575c.148 0 .453-.03.453-.33 0-.23-.233-.276-.239-.279Zm-.43-.273h.133a.09.09 0 0 1 .066.025.08.08 0 0 1 .024.06.077.077 0 0 1-.024.06.09.09 0 0 1-.066.024h-.133V9.64Zm.248.585a.107.107 0 0 1-.078.03h-.17v-.207h.17a.11.11 0 0 1 .078.03c.02.02.03.044.03.073a.094.094 0 0 1-.03.073ZM4.668 11.184l.017-.006a.197.197 0 0 0 .04-.027.618.618 0 0 0 .045-.045.25.25 0 0 0 .056-.159.267.267 0 0 0-.108-.214.449.449 0 0 0-.297-.09H3.88v1.15h.574c.148 0 .453-.03.453-.33 0-.228-.233-.277-.238-.279Zm-.43-.272h.133a.09.09 0 0 1 .065.025.08.08 0 0 1 .025.06.081.081 0 0 1-.025.06.09.09 0 0 1-.065.025h-.132v-.17Zm.248.584a.107.107 0 0 1-.079.031H4.24v-.207h.168a.11.11 0 0 1 .079.03c.02.02.03.044.03.073a.1.1 0 0 1-.03.073ZM6.055 10.223a.12.12 0 0 1-.082.026.24.24 0 0 1-.109-.03.327.327 0 0 1-.075-.048l-.02-.018-.211.209.014.014a.797.797 0 0 0 .153.107.678.678 0 0 0 .297.07c.14 0 .252-.038.336-.112a.354.354 0 0 0 .125-.273.349.349 0 0 0-.036-.161.275.275 0 0 0-.09-.106.806.806 0 0 0-.234-.104.377.377 0 0 1-.09-.034c-.023-.013-.035-.03-.035-.047 0-.021.008-.039.025-.053.017-.015.04-.02.07-.02.072 0 .117.033.14.058l.213-.21-.004-.004a.2.2 0 0 0-.049-.042.484.484 0 0 0-.197-.089.67.67 0 0 0-.152-.018.465.465 0 0 0-.322.11.335.335 0 0 0-.122.257c0 .052.01.099.027.141a.273.273 0 0 0 .07.1.509.509 0 0 0 .18.103l.017.006.095.031c.028.01.052.02.07.032.017.011.026.025.026.04 0 .026-.01.047-.03.065ZM5.543 11.326c0 .075-.06.137-.133.138a.136.136 0 0 1-.135-.138v-.683h-.36v.665a.49.49 0 0 0 .481.498h.023a.49.49 0 0 0 .482-.498v-.665h-.357v.683h-.001Z" fill="#fff"/><path d="M7.076 11.636c0 .025-.02.045-.044.045a.045.045 0 0 1-.044-.045c0-.025.02-.045.044-.045.024 0 .044.02.044.045Z" fill="#1D252C"/><path d="M3 8.02h.208v.127A.274.274 0 0 1 3.457 8c.106 0 .188.046.229.15A.315.315 0 0 1 3.959 8c.151 0 .27.098.27.322v.537h-.207v-.514c0-.116-.05-.166-.137-.166-.088 0-.166.061-.166.18v.5H3.51v-.514c0-.116-.05-.166-.136-.166-.089 0-.167.061-.167.18v.5H3v-.84ZM4.625 8.774l-.322-.755h.224l.207.52.189-.52h.202l-.441 1.125h-.202l.143-.37ZM7.112 11.004a.06.06 0 1 1 .12 0 .06.06 0 0 1-.116.024.063.063 0 0 1-.004-.024Zm.112 0c0-.031-.022-.054-.052-.054s-.052.023-.052.055c0 .03.023.053.052.053a.053.053 0 0 0 .052-.054Zm-.072-.033h.02c.013 0 .022.006.022.018 0 .01-.006.016-.015.017l.018.029h-.01l-.017-.027h-.01v.027h-.008v-.064Zm.02.03c.009 0 .013-.005.013-.012 0-.008-.005-.011-.013-.011H7.16V11h.01Z" fill="#fff"/><path d="M35.111 1.998h-22.18c-.495 0-.897.374-.897.835v13.402c0 .461.401.835.896.835h22.181c.495 0 .896-.374.896-.835V2.833c0-.46-.401-.835-.896-.835Z" fill="url(#c)"/><path d="M31.602 15.967h-.49l.307-1.932h.489l-.306 1.932ZM30.7 14.036l-.467 1.328-.055-.286-.164-.868s-.02-.174-.233-.174h-.772l-.009.033s.236.05.512.22l.425 1.678h.51l.778-1.931h-.524ZM34.551 15.967H35l-.392-1.932h-.394c-.182 0-.225.144-.225.144l-.73 1.787h.51l.103-.287h.622l.057.288Zm-.538-.683.257-.723.145.723h-.402ZM33.297 14.5l.07-.415s-.215-.085-.44-.085c-.243 0-.82.11-.82.64 0 .499.677.505.677.767s-.607.215-.807.05l-.074.434s.219.109.553.109c.335 0 .839-.178.839-.661 0-.503-.684-.55-.684-.767 0-.22.476-.19.686-.072Z" fill="#fff"/><path d="m30.178 15.078-.164-.868s-.02-.174-.233-.174h-.772l-.009.033s.371.078.726.375c.341.281.453.634.453.634Z" fill="#fff"/><path d="M17.119 6.272H18V7h-.881l-.22-.213v-.3l.22-.215Z" fill="#FFF200"/><path d="M15.541 5.24h-.538v-.18h.44v-.262h-.44v-.149h.54V4.37h-.9v1.15h.898v-.28ZM16.462 4.37v.28h.294v.87h.359v-.87h.294v-.28h-.947ZM16.515 6.034l-.236-.39h-.36l.416.738v.41h.36v-.41l.417-.739h-.36l-.237.391ZM14.382 4.912l.016-.006a.2.2 0 0 0 .04-.027.647.647 0 0 0 .046-.045.25.25 0 0 0 .056-.159.27.27 0 0 0-.109-.214.454.454 0 0 0-.296-.09h-.544v1.15h.575c.148 0 .453-.03.453-.33 0-.23-.232-.276-.237-.279Zm-.43-.273h.132a.09.09 0 0 1 .066.025.08.08 0 0 1 .024.06.077.077 0 0 1-.024.06.09.09 0 0 1-.066.024h-.133V4.64Zm.247.585a.107.107 0 0 1-.078.03h-.17v-.206h.17a.11.11 0 0 1 .078.03c.021.019.03.043.03.072a.1.1 0 0 1-.03.074ZM14.668 6.184l.017-.006a.195.195 0 0 0 .04-.027.627.627 0 0 0 .045-.045.25.25 0 0 0 .056-.159.267.267 0 0 0-.109-.214.45.45 0 0 0-.296-.09h-.542v1.15h.574c.148 0 .453-.03.453-.33 0-.23-.233-.277-.238-.279Zm-.43-.272h.133a.09.09 0 0 1 .065.025.08.08 0 0 1 .025.06.08.08 0 0 1-.025.06.09.09 0 0 1-.065.025h-.132v-.17Zm.248.584a.107.107 0 0 1-.079.031h-.168V6.32h.168a.11.11 0 0 1 .079.03c.02.02.03.044.03.073a.1.1 0 0 1-.03.073ZM16.055 5.223a.12.12 0 0 1-.082.026.24.24 0 0 1-.109-.03.327.327 0 0 1-.075-.048l-.019-.018-.212.209.014.014a.796.796 0 0 0 .153.107.678.678 0 0 0 .297.07c.14 0 .253-.038.336-.112a.355.355 0 0 0 .125-.273.349.349 0 0 0-.036-.161.275.275 0 0 0-.09-.106.804.804 0 0 0-.224-.102l-.01-.002a.377.377 0 0 1-.09-.034c-.023-.013-.035-.03-.035-.047 0-.021.008-.039.025-.053.017-.015.04-.02.07-.02.073 0 .117.033.14.058l.213-.21-.004-.004a.2.2 0 0 0-.049-.042.483.483 0 0 0-.197-.089.669.669 0 0 0-.151-.018.465.465 0 0 0-.323.11.335.335 0 0 0-.121.257c0 .052.008.099.026.141a.273.273 0 0 0 .07.1.51.51 0 0 0 .18.103l.017.006.095.031c.028.01.052.02.07.032.017.011.026.025.026.04 0 .026-.01.047-.03.065ZM15.543 6.326c0 .075-.06.137-.133.138a.136.136 0 0 1-.135-.138v-.683h-.36v.665a.49.49 0 0 0 .482.498h.022a.49.49 0 0 0 .482-.498v-.665h-.357v.683Z" fill="#fff"/><path d="M17.076 6.636c0 .025-.02.045-.044.045a.045.045 0 0 1-.044-.045c0-.025.02-.045.044-.045.024 0 .044.02.044.045Z" fill="#1D252C"/><path d="M13 3.02h.208v.127A.274.274 0 0 1 13.457 3c.106 0 .188.046.229.15a.316.316 0 0 1 .273-.15c.151 0 .27.098.27.322v.537h-.207v-.514c0-.116-.05-.166-.137-.166-.088 0-.166.061-.166.18v.5h-.208v-.514c0-.116-.05-.166-.136-.166-.089 0-.167.061-.167.18v.5H13v-.84ZM14.626 3.774l-.322-.755h.223l.208.52.188-.52h.202l-.441 1.125h-.202l.144-.37ZM17.111 6.004a.06.06 0 1 1 .12 0 .06.06 0 0 1-.06.062.06.06 0 0 1-.042-.019.063.063 0 0 1-.018-.043Zm.112 0c0-.031-.022-.054-.052-.054s-.052.023-.052.055c0 .03.023.053.052.053a.053.053 0 0 0 .052-.054Zm-.072-.033h.02c.013 0 .022.006.022.018 0 .01-.006.016-.015.017l.018.029h-.01l-.017-.027h-.009v.027h-.009V5.97Zm.02.03c.01 0 .013-.004.013-.012s-.005-.011-.013-.011h-.01V6h.01ZM31.523 5.42l-.009.009a.7.7 0 0 1-.484.21c-.359 0-.62-.252-.62-.598s.261-.597.62-.597c.172 0 .34.072.484.21l.01.008.231-.261-.006-.007a.907.907 0 0 0-.706-.314c-.284 0-.545.089-.732.25a.902.902 0 0 0-.311.71c0 .29.108.536.31.71.188.161.45.25.733.25a.905.905 0 0 0 .706-.315l.006-.007-.232-.258ZM31.99 4.112h.407v1.855h-.408V4.112ZM33.996 5.563a.624.624 0 0 1-.301.092c-.133 0-.191-.064-.191-.21v-.984h.415v-.35h-.415v-.578l-.402.202v.378h-.345v.35h.345v1.046c0 .286.183.48.454.485a.676.676 0 0 0 .363-.085l.004-.003.098-.358-.025.015ZM34.335 4.112h.407v1.855h-.407V4.112Z" fill="#fff"/><path d="M35 3.81c-.34-.475-.97-.81-1.642-.81-.66 0-1.29.326-1.641.81h.468a1.688 1.688 0 0 1 2.345 0H35Z" fill="#fff"/></g><defs><radialGradient id="b" cx="0" cy="0" r="1" gradientUnits="userSpaceOnUse" gradientTransform="rotate(-.278 2956.122 -2160) scale(7.19199 22.3829)"><stop stop-color="#284776"/><stop offset="1" stop-color="#00214E"/></radialGradient><radialGradient id="c" cx="0" cy="0" r="1" gradientUnits="userSpaceOnUse" gradientTransform="matrix(7.22576 -.03475 .10735 22.32414 20.606 9.415)"><stop stop-color="#284776"/><stop offset="1" stop-color="#00214E"/></radialGradient><clipPath id="a"><path fill="#fff" d="M0 0h38v24H0z"/></clipPath></defs></svg>