<svg xmlns="http://www.w3.org/2000/svg" width="38" height="24" fill="none"><path fill="#fff" d="M0 0h38v24H0z"/><path fill="#000" d="M11.039 9v-.724h.9V6.384h-.9v-.692h2.537v.692h-.9v1.892h.9V9H11.04Zm3.88-2.315V9h-.75V5.692h.778l2.01 2.246.027.041V5.692h.747V9h-.747l-2.032-2.268-.032-.047Zm5.237 2.412c-.436 0-.789-.041-1.067-.134-.552-.181-.83-.548-.947-1.137h.845c.111.46.524.594 1.187.594.608 0 .882-.116.882-.39 0-.106-.037-.185-.107-.227-.148-.097-.487-.12-1.164-.158a3.508 3.508 0 0 1-.835-.13c-.441-.13-.65-.394-.65-.858 0-.64.543-1.048 1.624-1.048 1.15 0 1.763.32 1.916 1.155h-.83c-.093-.422-.474-.506-1.1-.506-.622 0-.821.14-.821.376 0 .116.032.195.18.25.145.056.414.093.878.112a4.5 4.5 0 0 1 .97.13c.505.134.723.394.723.849 0 .71-.52 1.122-1.684 1.122Zm3.902-2.741V9h-.797V6.356h-1.188v-.664h3.229v.664h-1.244Zm3.609 1.925h-1.833L25.491 9h-.84l1.675-3.308h.821L28.85 9h-.83l-.353-.719Zm-.933-1.888-.598 1.257h1.216l-.617-1.257Zm3.24.292V9h-.752V5.692h.78l2.008 2.246.028.041V5.692h.747V9h-.747l-2.032-2.268-.032-.047Zm5.324-.33V9H34.5V6.356h-1.188v-.664h3.23v.664h-1.244ZM18.9 17.826h-8.003v-8.13h7.764v1.609h-5.929v1.641h5.017v1.608h-5.017v1.608h6.169v1.664Zm3.22-2.918v2.918h-1.881v-8.13h7.536v1.688H22.12v1.825h5.496v1.699H22.12Zm11.527-3.58v6.498h-1.961v-6.499h-2.92v-1.63h7.936v1.63h-3.055Z"/><path stroke="#000" stroke-linecap="round" stroke-width="1.331" d="M3.496 13.818h5.657M6.49 10.657h2.662M1 17.145h7.986"/></svg>