<svg xmlns="http://www.w3.org/2000/svg" role="img" viewBox="0 0 38 24" width="38" height="24" aria-labelledby="pi-zimple"><title id="pi-zimple">Zimple</title><path opacity=".07" d="M35 0H3C1.3 0 0 1.3 0 3v18c0 1.7 1.4 3 3 3h32c1.7 0 3-1.3 3-3V3c0-1.7-1.4-3-3-3z"/><path fill="#FFF" d="M35 1c1.1 0 2 .9 2 2v18c0 1.1-.9 2-2 2H3c-1.1 0-2-.9-2-2V3c0-1.1.9-2 2-2h32"/><radialGradient id="SVGID_1_" cx="19" cy="12" r="9.14" gradientUnits="userSpaceOnUse"><stop offset="0" stop-color="#45b449"/><stop offset=".318" stop-color="#43b349"/><stop offset=".469" stop-color="#3bae49"/><stop offset=".702" stop-color="#25a249"/><stop offset=".989" stop-color="#028d48"/><stop offset="1" stop-color="#008c48"/></radialGradient><path fill-rule="evenodd" clip-rule="evenodd" fill="url(#SVGID_1_)" d="M25.16 21.19H12.84c-1.62 0-2.93-1.31-2.93-2.93V5.74c0-1.62 1.31-2.93 2.93-2.93h12.32c1.62 0 2.93 1.31 2.93 2.93v12.52c0 1.62-1.31 2.93-2.93 2.93z"/><path fill-rule="evenodd" clip-rule="evenodd" fill="#FFF" d="M18.11 6.77H13.32v.83h3.09l-3.16 4h4.84v-.82h-3.13zM18.598 11.605v-4.83h.83v4.83zM18.6 16.38v-4h-.82v4.83h3.21v-.83zM24.7 13.21v-.83h-3.21v4.83h3.21v-.83h-2.38v-1.17h2.38v-.83h-2.38v-1.17zM22.26 9.16l-2.37-2.39v4.83h.83V8.8l1.54 1.52 1.55-1.52v2.8h.82V6.77zM17.29 13.99c0-.86-.67-1.56-1.52-1.6h-2.51v4.84h.83v-1.62h1.69c.83-.06 1.51-.76 1.51-1.62zm-1.61.78h-1.6v-1.56h1.6a.781.781 0 010 1.56z"/></svg>