<svg xmlns="http://www.w3.org/2000/svg" role="img" viewBox="0 0 38 24" width="38" height="24" aria-labelledby="pi-zingala"><title id="pi-zingala">Zingala</title><path opacity=".07" d="M35 0H3C1.3 0 0 1.3 0 3v18c0 1.7 1.4 3 3 3h32c1.7 0 3-1.3 3-3V3c0-1.7-1.4-3-3-3z"/><path fill="#fff" d="M35 1c1.1 0 2 .9 2 2v18c0 1.1-.9 2-2 2H3c-1.1 0-2-.9-2-2V3c0-1.1.9-2 2-2h32"/><path fill="#919497" d="M9.861 20.055c-2.77.769-5.728-2.119-5.514-5.072.038-.513.018-1.032.054-1.652.055-.159.044-.207-.001-.246-.004-.075-.009-.149.045-.295.214-.304.349-.56.532-.759a26.815 26.815 0 0 1 1.714-1.706c.236.006.398.007.56.007 1.131.004 1.127.004 1.134 1.32.006 1.763.018 3.527.025 5.374-.013 2.109.156 2.452 1.451 3.029z" id="path3" /><path fill="#E4486E" d="M8.426 4.839c3.414-.539 5.942 2.744 5.249 6.855-.578 1.224-1.021 2.416-2.257 2.891-.261-.015-.45-.019-.639-.02-1.068-.004-1.066-.004-1.07-1.194-.006-1.796-.015-3.592-.014-5.473.156-1.389-.114-2.466-1.269-3.059z" id="path4" /><path fill="#ED94A1" d="M8.362 4.82c1.219.612 1.489 1.689 1.283 3.096a109.44 109.44 0 0 1-3.029 2.405c-.548.569-1.102 1.128-1.639 1.71-.183.199-.318.455-.526.703-.021-1.379-.187-2.825.083-4.16.434-2.159 1.842-3.359 3.828-3.754z" id="path5" /><path fill="#C3C5C9" d="M11.491 14.596c1.163-.486 1.606-1.678 2.184-2.821.09 1.773.384 3.609-.362 5.353-.684 1.6-1.821 2.529-3.389 2.931-1.358-.581-1.527-.924-1.463-3.057 1.048-.873 2.039-1.64 3.03-2.406z" id="path6" /><path fill="#ED94A1" d="M4.388 13.128c.057-.004.068.044.024.119-.024-.014-.03-.043-.024-.119z" id="path25" /><path fill="#FEFAFC" d="M11.418 14.585a70.312 70.312 0 0 1-2.953 2.335 164.276 164.276 0 0 1-.08-5.268c-.007-1.316-.003-1.316-1.134-1.32a20.4 20.4 0 0 1-.56-.007A73.175 73.175 0 0 1 9.636 8c.058 1.779.067 3.575.073 5.371.004 1.19.002 1.19 1.07 1.194.189.001.378.005.639.02z" id="path26" /><path fill="#8B8988" d="M21.178 14.633c.036-.004.049.016.062.034-.029-.004-.058-.008-.062-.034z" id="path29" /><path fill="#3e3a3a" d="m 19.077551,9.671527 c -0.08789,-0.0013 -0.172278,0.03438 -0.232591,0.09832 -0.06214,0.06233 -0.09645,0.147131 -0.09514,0.235136 0,0.09116 0.03182,0.170228 0.09514,0.235137 0.06364,0.06539 0.14175,0.09864 0.232591,0.09864 0.09068,0 0.168954,-0.03325 0.232591,-0.09864 0.06214,-0.06233 0.09645,-0.147132 0.09514,-0.235137 0,-0.091 -0.03198,-0.170068 -0.09514,-0.235136 -0.06031,-0.06394 -0.144704,-0.09961 -0.232591,-0.09832 m 2.256227,0.956136 c -0.283818,0 -0.523409,0.09339 -0.71225,0.277296 -0.201409,0.198227 -0.303545,0.434954 -0.303545,0.7035 v 1.72725 h 0.562227 v -1.885705 c 0,-0.163545 0.04343,-0.2835 0.129023,-0.356682 0.08782,-0.07509 0.197113,-0.113272 0.324545,-0.113272 0.127591,0 0.236727,0.03818 0.324545,0.113272 0.08559,0.07318 0.129023,0.193296 0.129023,0.356682 v 1.885705 h 0.562227 v -1.72725 c 0,-0.271728 -0.102136,-0.508614 -0.303863,-0.703978 -0.191864,-0.183591 -0.431296,-0.276818 -0.711932,-0.276818 m 7.630795,2.708046 h 0.562228 V 9.624754 h -0.562228 z m -10.168136,0 h 0.562227 v -2.661273 h -0.562227 z m 5.865364,-0.775569 c 0,0.163387 -0.04343,0.2835 -0.128864,0.356682 -0.08798,0.07509 -0.197273,0.113273 -0.324704,0.113273 -0.127591,0 -0.236887,-0.03818 -0.324546,-0.113432 -0.08575,-0.07318 -0.129023,-0.193136 -0.129023,-0.356523 v -1.110136 c 0,-0.163386 0.04327,-0.2835 0.128864,-0.356682 0.08798,-0.07525 0.197273,-0.113272 0.324545,-0.113272 0.127591,0 0.236887,0.03818 0.324705,0.113272 0.08559,0.07318 0.128864,0.193296 0.128864,0.356682 v 1.110136 z m 0.258522,-1.65534 c -0.18884,-0.18375 -0.428431,-0.277137 -0.71209,-0.277137 -0.283819,0 -0.52341,0.09339 -0.71241,0.277296 -0.20125,0.198227 -0.303386,0.434954 -0.303386,0.703659 v 0.792909 c 0,0.272045 0.102296,0.508773 0.303864,0.703977 0.191863,0.18375 0.431295,0.276818 0.711932,0.276818 0.182477,0 0.334886,-0.04598 0.453409,-0.136818 v 0.270773 c 0,0.164818 -0.04295,0.284295 -0.12775,0.355727 -0.08861,0.07589 -0.198228,0.114227 -0.325659,0.114227 H 23.74146 l -0.223364,0.266159 v 0.08623 h 0.690137 c 0.283659,0 0.52325,-0.09323 0.71225,-0.277455 0.201409,-0.198068 0.303545,-0.434795 0.303545,-0.703341 V 11.60862 c 0,-0.270455 -0.102136,-0.507182 -0.303864,-0.703818 z m 2.3905,2.007886 c -0.07111,0.07795 -0.1785,0.117409 -0.319136,0.117409 -0.131727,0 -0.2345,-0.03882 -0.305454,-0.115341 -0.07509,-0.08066 -0.113114,-0.237523 -0.113114,-0.466614 0,-0.223045 0.03739,-0.37784 0.111364,-0.46009 0.07255,-0.08082 0.175,-0.121705 0.304818,-0.121705 0.125045,0 0.230682,0.03993 0.313409,0.118682 0.08527,0.0867 0.128545,0.238636 0.128545,0.4515 0,0.229091 -0.04057,0.389295 -0.120432,0.476159 z m 0.390569,-2.007727 C 27.512551,10.72089 27.27296,10.627663 26.989301,10.627663 h -0.499546 l -0.223363,0.266159 v 0.08623 l 0.749954,0.0013 c 0.116614,0.0051 0.216682,0.0428 0.2975,0.112159 0.08559,0.07318 0.129023,0.193137 0.129023,0.356364 l -6.36e-4,0.209523 c -0.01402,-0.01018 -0.02839,-0.01984 -0.04311,-0.02895 -0.122728,-0.07706 -0.264909,-0.11746 -0.409818,-0.116454 -0.280796,0 -0.513387,0.08941 -0.691568,0.265681 -0.184069,0.182796 -0.277614,0.407591 -0.277614,0.6685 0,0.250887 0.08591,0.471228 0.255341,0.655137 0.170227,0.185182 0.384523,0.279045 0.687909,0.279045 0.195682,0 0.380227,-0.07477 0.4795,-0.195045 v 0.143942 H 28.0051 V 11.6083 c 0,-0.270137 -0.102136,-0.506864 -0.303704,-0.70366 z m -11.773841,0.03564 v 0.08607 h 1.205591 l -1.264773,2.225199 v 0.08384 h 1.838773 l 0.223681,-0.266478 v -0.08591 h -1.260795 l 1.255545,-2.213272 0.006,-0.01114 v -0.08448 H 16.150868 Z M 31.66021,12.91269 c -0.07111,0.07795 -0.1785,0.117409 -0.319137,0.117409 -0.131727,0 -0.2345,-0.03882 -0.305454,-0.115341 -0.07525,-0.08066 -0.113273,-0.237523 -0.113273,-0.466614 0,-0.223045 0.03755,-0.37784 0.111364,-0.46009 0.07255,-0.08082 0.175159,-0.121705 0.304977,-0.121705 0.125046,0 0.230523,0.03993 0.313409,0.118682 0.08527,0.0867 0.128546,0.238636 0.128546,0.4515 0,0.229091 -0.04057,0.389295 -0.120432,0.476159 z m 0.390568,-2.007727 c -0.188841,-0.184069 -0.428432,-0.277296 -0.712091,-0.277296 h -0.499545 l -0.223364,0.266159 v 0.08623 l 0.749955,0.0013 c 0.116613,0.0051 0.216522,0.0428 0.2975,0.112159 0.08559,0.07318 0.129022,0.193137 0.129022,0.356364 l -6.36e-4,0.209523 c -0.01402,-0.01018 -0.02839,-0.01984 -0.04311,-0.02895 -0.122734,-0.07704 -0.264912,-0.117442 -0.409818,-0.116454 -0.280954,0 -0.513545,0.08941 -0.691568,0.265681 -0.184227,0.182796 -0.277614,0.407591 -0.277614,0.6685 0,0.250887 0.08591,0.471228 0.255182,0.655137 0.170386,0.185182 0.384682,0.279045 0.688068,0.279045 0.195682,0 0.380228,-0.07477 0.4795,-0.195045 v 0.143938 h 0.562228 V 11.6083 c 0,-0.270137 -0.102296,-0.506864 -0.303705,-0.70366 z" id="path5-1" /></svg>
