<svg viewBox="0 0 38 24" xmlns="http://www.w3.org/2000/svg" role="img" width="38" height="24" aria-labelledby="pi-zingala"><path opacity=".07" d="M35 0H3C1.3 0 0 1.3 0 3v18c0 1.7 1.4 3 3 3h32c1.7 0 3-1.3 3-3V3c0-1.7-1.4-3-3-3z"/><path fill="#fff" d="M35 1c1.1 0 2 .9 2 2v18c0 1.1-.9 2-2 2H3c-1.1 0-2-.9-2-2V3c0-1.1.9-2 2-2h32"/><path fill="#919497" d="M9.861 20.055c-2.77.769-5.728-2.119-5.514-5.072.038-.513.018-1.032.054-1.652.055-.159.044-.207-.001-.246-.004-.075-.009-.149.045-.295.214-.304.349-.56.532-.759a26.815 26.815 0 0 1 1.714-1.706c.236.006.398.007.56.007 1.131.004 1.127.004 1.134 1.32.006 1.763.018 3.527.025 5.374-.013 2.109.156 2.452 1.451 3.029z"/><path fill="#E4486E" d="M8.426 4.839c3.414-.539 5.942 2.744 5.249 6.855-.578 1.224-1.021 2.416-2.257 2.891-.261-.015-.45-.019-.639-.02-1.068-.004-1.066-.004-1.07-1.194-.006-1.796-.015-3.592-.014-5.473.156-1.389-.114-2.466-1.269-3.059z"/><path fill="#ED94A1" d="M8.362 4.82c1.219.612 1.489 1.689 1.283 3.096a109.44 109.44 0 0 1-3.029 2.405c-.548.569-1.102 1.128-1.639 1.71-.183.199-.318.455-.526.703-.021-1.379-.187-2.825.083-4.16.434-2.159 1.842-3.359 3.828-3.754z"/><path fill="#C3C5C9" d="M11.491 14.596c1.163-.486 1.606-1.678 2.184-2.821.09 1.773.384 3.609-.362 5.353-.684 1.6-1.821 2.529-3.389 2.931-1.358-.581-1.527-.924-1.463-3.057 1.048-.873 2.039-1.64 3.03-2.406z"/><path fill="#4F4D4C" d="M23.796 15.572c0 .414-.002.75.002 1.085.011 1.079-.017 1.105-1.123.946.188-.13.337-.186.418-.301.094-.134.219-.403.173-.467-.115-.157-.319-.316-.49-.318-.36-.008-.723.084-1.085.136l-.062-.228-.861 1.484c0-1.235-.055-2.2.033-3.149.027-.282.432-.682.709-.737.576-.115 1.18-.035 1.868-.035-.091.292-.163.523-.166.527.244.41.414.694.584 1.057m-1.605-.649.22-.087-.04-.158c-.31.087-.622.174-.862.351l.682-.106m-1.037-.268.086.012c-.013-.018-.026-.038-.086-.012z"/><path fill="#4C4948" d="M26.731 10.705c0 .266.002.449 0 .634-.013 1.426-.511 1.861-1.841 1.409.246-.067.512-.088.731-.213.196-.112.338-.34.587-.606-1.614-.223-2.084-.956-1.641-2.583.107-.394.646-.805 1.041-.892.551-.124.976.325 1.085.979.063.386.028.79.038 1.272m-1.012.668c.37-.404.582-1.887.259-2.238-.14-.151-.532-.213-.686-.1-.45.329-.209 2.019.427 2.338z"/><path fill="#565453" d="M18.053 14.029h1.613v2.752l-.189.002.387.74c-.076.06-.154.119-.231.177l-1.064-1.766v1.601c-.12.014-.299.035-.501-.077-.02-1.231-.017-2.329-.015-3.429z"/><path fill="#484645" d="M28.526 11.832c-.733-.175-1.064-.647-.923-1.399.163-.888.798-.946 1.503-.853-.089-1.057-.851-.506-1.268-.982.373-.04.807-.231 1.104-.079.334.171.704.615.774 1.004.124.7.034 1.447.034 2.213-.418.035-.786.067-1.224.096m.587-1.221-.518-.641c-.143.248-.385.491-.397.748-.011.214.248.444.388.669.175-.21.352-.418.527-.776z"/><path fill="#4E4B4A" d="M32.862 8.875c-.099-.102-.173-.265-.151-.285.537-.463 1.66.068 1.749.82.014.121.004.244.004.366v1.897c-1.661.389-1.97-.014-2.109-.877-.129-.801.376-1.215 1.464-1.293-.143-.586-.143-.586-.957-.628m.687 1.121c-.644-.066-.629.455-.545.893.037.191.347.316.532.47.103-.333.218-.662.296-1.002.017-.075-.104-.192-.283-.361z"/><path fill="#494645" d="M21.331 11.185c.005-.602.002-1.122.015-1.641.016-.759.429-1.094 1.041-1.117.666-.024 1.099.373 1.157 1.125.052.695.011 1.4-.167 2.292-.154-.177-.419-.339-.439-.534-.06-.572.026-1.166-.046-1.735-.032-.249-.311-.456-.477-.681-.155.219-.425.427-.445.662-.06.694-.021 1.398-.021 2.099l-.201.181c-.138-.189-.277-.379-.417-.651z"/><path fill="#5B5958" d="M29.954 14.114c.378.247.721.426 1.247.701l-1.157.179-.056.286 1.441.256.018.182-1.464.183c.401.3.707.531 1.171.88a273.38 273.38 0 0 0-1.082-.059c.012-.013-.009.007-.026.029-.561.717-.577.718-.587.441-.015-.421-.004-.843-.004-1.316l-1.271-.112c-.002-.086-.005-.173-.006-.26l1.053-.094c.578-.342-.318-1.37.723-1.296z"/><path fill="#524F4E" d="M18.028 9.998c-.205.424-.384.786-.607 1.237l1.215.129c-.346.512-.346.512-2.208.391l1.3-2.711c-.427-.053-.778-.097-1.158-.146.378-.483.857-.551 2.143-.317-.228.468-.443.911-.685 1.417z"/><path fill="#444241" d="M24.932 16.356c.142-.109.284-.216.519-.344.138-.062.18-.106.275-.167.368-.282.347-.467-.052-.557-.003.003.004.007-.006-.053-.173-.019-.336.02-.526.056-.028-.006-.084-.004-.084-.004l-.384-1.312c.86 0 1.473.016 2.086-.004.73-.024.965.472.955 1.234-.408-.04-.746-.136-1.084-.233-.049.349-.101.697-.144 1.047-.015.119-.003.242-.076.368-.403.005-.736.004-1.138.001-.159-.013-.25-.023-.341-.032z"/><path fill="#595756" d="M31.185 11.794c-.183-.183-.392-.368-.397-.561a56.772 56.772 0 0 1 .002-3.477c.007-.222.243-.435.373-.653l.354.157c-.087 1.509-.175 3.019-.332 4.534z"/><path fill="#484645" d="M16.759 14.166c.314-.057.628-.114 1.016-.094-.016.747-.151 1.412-.185 2.084-.021.416-.27.914.175 1.261l-1.22.234.106-1.861-.226-.019a1.97 1.97 0 0 0 .598-.446c.133-.387.247-.643.405-.999l-.669-.16z"/><path fill="#4A4746" d="M20.293 9.971c0 .486.048.894-.018 1.278-.039.227-.257.414-.393.619l-.206-.152V8.618l.148-.192c.156.18.389.331.449.545.079.278.02.606.02 1z"/><path fill="#5A5857" d="M26.482 16.381c.002-.12-.01-.243.005-.362.043-.35.095-.698.144-1.047.338.097.676.193 1.073.303a9.185 9.185 0 0 1-.914.462c.239.192.448.362.59.599a4.18 4.18 0 0 1-.898.045z"/><path fill="#52504F" d="M27.38 16.766c.006.151.071.351.008.44-.123.179-.316.296-.48.439l-.238-.788-.705.887-.214-.742c-.217-.032-.45-.066-.657-.174.059-.075.09-.079.194-.082l2.092.02z"/><path fill="#D9D7D7" d="M17.828 17.444c-.508-.374-.259-.872-.238-1.288.034-.672.169-1.337.255-2.072.03-.067.067-.065.154-.059.052 1.104.049 2.202.033 3.387-.055.076-.099.066-.204.032z"/><path fill="#9A9898" d="M27.432 16.751c-.726.008-1.398.002-2.139-.053a.448.448 0 0 1 .049-.307c.333 0 .666.001 1.069-.004.347.002.623.009.967.013.177.017.283.04.391.061-.095.091-.189.184-.337.29z"/><path fill="#5F5C5C" d="M16.71 14.187c.293.037.536.096.718.139-.158.356-.272.612-.395.936-.726-.059-.673-.505-.323-1.075z"/><path fill="#5A5857" d="M25.673 15.863c-.042.043-.084.087-.171.135a2.81 2.81 0 0 1-.443-.649c-.001-.062.055-.064.147-.061l.472.007s-.007-.004-.008.065c0 .213.001.358.003.503zM25.273 16.388c.03.089-.008.176-.052.31-.037.051-.068.055-.145.06-.194-.017-.34-.037-.601-.072.163-.151.255-.236.403-.326.145.005.236.015.395.028z"/><path fill="#ED94A1" d="M4.388 13.128c.057-.004.068.044.024.119-.024-.014-.03-.043-.024-.119z"/><path fill="#FEFAFC" d="M11.418 14.585a70.312 70.312 0 0 1-2.953 2.335 164.276 164.276 0 0 1-.08-5.268c-.007-1.316-.003-1.316-1.134-1.32a20.4 20.4 0 0 1-.56-.007A73.175 73.175 0 0 1 9.636 8c.058 1.779.067 3.575.073 5.371.004 1.19.002 1.19 1.07 1.194.189.001.378.005.639.02z"/><path fill="#8B8988" d="m21.437 14.939.934-.261.04.158c-.074.029-.146.058-.337.089l-.637.014z"/><path fill="#5A5958" d="M21.472 14.984c.139-.049.313-.053.552-.051a1.713 1.713 0 0 1-.552.051z"/><path fill="#8B8988" d="M21.178 14.633c.036-.004.049.016.062.034-.029-.004-.058-.008-.062-.034z"/><path fill="#E5E5E5" d="M25.655 11.384c-.572-.33-.813-2.02-.363-2.349.154-.113.546-.051.686.1.323.351.111 1.834-.323 2.249z"/><path fill="#E7E7E7" d="M29.113 10.685c-.175.284-.352.492-.527.702-.14-.225-.399-.455-.388-.669.012-.257.254-.5.397-.748.173.213.345.427.518.715z"/><path fill="#F2F2F2" d="M33.61 10.032c.118.133.239.25.222.325-.078.34-.193.669-.296 1.002-.185-.154-.495-.279-.532-.47-.084-.438-.099-.959.606-.857z"/><path fill="#9C9B9A" d="M25.668 15.235c-.117.058-.244.056-.435.057a.985.985 0 0 1 .435-.057z"/><path fill="#71706F" d="M25.726 15.845c-.055-.127-.056-.272-.053-.488.4.021.421.206.053.488z"/></svg>
