<svg xmlns="http://www.w3.org/2000/svg" role="img" viewBox="0 0 38 24" width="38" height="24" aria-labelledby="pi-zinia"><title id="pi-zinia">Zinia</title><g clip-path="url(#pi-zinia-a)"><path fill="#000" d="M35 0H3C1.3 0 0 1.3 0 3v18c0 1.7 1.4 3 3 3h32c1.7 0 3-1.3 3-3V3c0-1.7-1.4-3-3-3Z" opacity=".07"/><path fill="#fff" d="M35 1c1.1 0 2 .9 2 2v18c0 1.1-.9 2-2 2H3c-1.1 0-2-.9-2-2V3c0-1.1.9-2 2-2h32Z"/><path fill="#053840" fill-rule="evenodd" d="M25.651 10.477c.854 0 1.513.2 1.978.598.464.398.696.97.696 1.718v2.514c0 .299.079.448.287.448.305 0 .585.262.585.585a.585.585 0 0 1-.585.585H28.3c-.414 0-.713-.087-.895-.261-.183-.174-.274-.427-.274-.76-.48.73-1.181 1.096-2.101 1.096-.713 0-1.286-.166-1.717-.498-.43-.332-.647-.788-.647-1.37 0-.655.232-1.159.697-1.512.464-.352 1.14-.529 2.027-.529h1.604v-.386c0-.356-.124-.636-.373-.84-.248-.203-.592-.305-1.032-.305-.39 0-.711.085-.964.255-.253.17-.404.397-.453.679h-1.319c.066-.64.348-1.135.846-1.488.497-.352 1.148-.529 1.952-.529Zm1.343 3.61h-1.666c-.415 0-.734.081-.958.243-.224.162-.335.4-.335.716 0 .274.105.493.317.66.21.165.499.248.864.248.555 0 .989-.149 1.3-.448.31-.299.47-.697.478-1.195v-.224Z" clip-rule="evenodd"/><path fill="#053840" d="M11.157 10.552a.64.64 0 0 1 .64.64v5.733h-1.343V11.2c0-.358.29-.648.648-.648h.055Zm5.316-.075c.755 0 1.37.233 1.847.697.477.465.715 1.212.715 2.24v3.511H17.68V13.49c0-.606-.129-1.067-.386-1.382-.257-.315-.634-.473-1.131-.473-.531 0-.948.185-1.25.554-.303.37-.454.877-.454 1.525v3.211h-1.343v-5.714a.66.66 0 0 1 .659-.66h.003c.362 0 .656.295.656.657v.178c.48-.606 1.16-.909 2.04-.909Zm4.484.075a.64.64 0 0 1 .64.64v5.733h-1.343V11.2c0-.358.29-.648.648-.648h.055Zm-12.287 0a.69.69 0 0 1 .69.69v.024a.67.67 0 0 1-.157.431l-3.4 4.046h3.719v1.182H4.666A.666.666 0 0 1 4 16.26a.8.8 0 0 1 .188-.516l3.369-4.009H4.074v-1.182h4.597ZM11.126 8c.232 0 .427.077.585.23a.776.776 0 0 1 .236.58.775.775 0 0 1-.236.578.805.805 0 0 1-.585.23.804.804 0 0 1-.585-.23.774.774 0 0 1-.236-.579c0-.232.079-.425.236-.579a.805.805 0 0 1 .585-.23Zm9.8 0c.232 0 .426.077.584.23a.775.775 0 0 1 .236.58.775.775 0 0 1-.236.578.804.804 0 0 1-.584.23.804.804 0 0 1-.585-.23.774.774 0 0 1-.236-.579c0-.232.078-.425.236-.579a.805.805 0 0 1 .585-.23Zm11.851 4.413a.775.775 0 1 0 .839-1.268 5.235 5.235 0 0 0-.37-.154c-.124-.049-.25-.098-.37-.155l-.004-.002a.442.442 0 0 0-.577.577c.046.178.129.353.21.524.035.073.07.146.101.218.033.097.1.188.171.26Zm-3.04 0a.775.775 0 0 1 .26-1.267c.072-.031.145-.066.218-.1.171-.082.346-.165.524-.21a.442.442 0 0 1 .577.576l-.002.004a5.26 5.26 0 0 0-.155.37c-.048.125-.097.25-.154.37a.776.776 0 0 1-1.267.257Zm1.096-4.166a.775.775 0 1 0-.839 1.268c.12.057.245.106.37.154.124.049.25.098.37.156l.004.001a.442.442 0 0 0 .577-.577c-.046-.178-.129-.353-.21-.524a6.907 6.907 0 0 1-.101-.218.715.715 0 0 0-.171-.26Zm3.04 0a.775.775 0 0 1-.26 1.267 6.805 6.805 0 0 0-.218.1 2.975 2.975 0 0 1-.524.21.442.442 0 0 1-.577-.576l.002-.004c.057-.12.106-.246.155-.37a5.17 5.17 0 0 1 .154-.37.776.776 0 0 1 1.267-.257Z"/></g><defs><clipPath id="pi-zinia-a"><path fill="#fff" d="M0 0h38v24H0z"/></clipPath></defs></svg>
