<svg xmlns="http://www.w3.org/2000/svg" fill="none" viewBox="0 0 38 24" height="24" width="38" aria-labelledby="pi-zinia" role="img"><title id="pi-zinia">Zinia</title><path fill="#fff" d="M0 0h38v24H0z"/><path fill="#053840" fill-rule="evenodd" d="M25.65 10.48c.86 0 1.51.2 1.98.6.46.4.7.97.7 1.71v2.52c0 .3.07.45.28.45.3 0 .59.26.59.58a.6.6 0 0 1-.59.59h-.31c-.41 0-.71-.1-.9-.27-.18-.17-.27-.42-.27-.76a2.36 2.36 0 0 1-2.1 1.1c-.71 0-1.29-.17-1.72-.5a1.63 1.63 0 0 1-.64-1.37c0-.65.23-1.16.7-1.51a3.3 3.3 0 0 1 2.02-.53h1.6v-.38c0-.36-.12-.64-.37-.84-.25-.2-.6-.31-1.03-.31-.4 0-.71.09-.96.26a1 1 0 0 0-.46.67h-1.32c.07-.64.35-1.13.85-1.48a3.3 3.3 0 0 1 1.95-.53Zm1.34 3.6h-1.66c-.42 0-.74.09-.96.25a.84.84 0 0 0-.34.72c0 .27.11.49.32.66.21.16.5.24.87.24.55 0 .98-.14 1.3-.44.3-.3.47-.7.47-1.2v-.22Z" clip-rule="evenodd"/><path fill="#053840" d="M11.16 10.55c.35 0 .64.29.64.64v5.74h-1.35V11.2c0-.36.3-.65.65-.65h.06Zm5.31-.07c.76 0 1.37.23 1.85.7.48.46.72 1.2.72 2.23v3.52h-1.36v-3.44c0-.6-.13-1.07-.39-1.38-.25-.32-.63-.48-1.13-.48-.53 0-.94.19-1.25.56-.3.37-.45.88-.45 1.52v3.22h-1.34V11.2c0-.36.3-.66.65-.66.37 0 .66.3.66.66v.18a2.44 2.44 0 0 1 2.04-.91Zm4.49.07c.35 0 .64.29.64.64v5.74h-1.35V11.2c0-.36.3-.65.65-.65h.06Zm-12.29 0a.7.7 0 0 1 .69.7v.02c0 .15-.06.3-.16.43l-3.4 4.04h3.72v1.19H4.67a.67.67 0 0 1-.67-.67.8.8 0 0 1 .19-.52l3.37-4H4.07v-1.19h4.6ZM11.13 8a.8.8 0 0 1 .58.23c.16.15.24.35.24.58a.8.8 0 0 1-.82.8.8.8 0 0 1-.82-.8c0-.23.07-.43.23-.58a.8.8 0 0 1 .59-.23Zm9.8 0a.8.8 0 0 1 .58.23c.16.15.24.35.24.58a.8.8 0 0 1-.82.8.8.8 0 0 1-.59-.22.77.77 0 0 1-.24-.58.8.8 0 0 1 .82-.8Zm11.85 4.41a.77.77 0 1 0 .84-1.26l-.37-.16-.37-.15a.44.44 0 0 0-.58.57c.04.18.12.35.2.52l.1.22c.04.1.1.2.18.26Zm-3.04 0a.77.77 0 0 1 .26-1.26l.22-.1c.17-.09.34-.17.52-.21a.44.44 0 0 1 .58.57l-.16.38-.16.37a.77.77 0 0 1-1.26.25Zm1.09-4.16A.77.77 0 1 0 30 9.5l.37.16.37.15a.44.44 0 0 0 .58-.57c-.04-.18-.12-.35-.2-.52a6.9 6.9 0 0 1-.1-.22.72.72 0 0 0-.18-.26Zm3.04 0a.77.77 0 0 1-.26 1.26 6.8 6.8 0 0 0-.22.1 2.1 2.1 0 0 1-.52.21.44.44 0 0 1-.58-.57l.16-.38.16-.37a.77.77 0 0 1 1.26-.25Z"/></svg>