<svg xmlns="http://www.w3.org/2000/svg" width="38" height="24" viewBox="0 0 38 24" fill="none" aria-labelledby="pi-zip" role="img"><title id="pi-zip">Zip</title><rect width="38" height="24" fill="white"/><path d="M6.50002 14.7L6.70002 16.6H14.7L14.5 14.4H10.7V14.2L14.1 11.8L13.9 9.89999H5.90002L6.20002 12H9.90002V12.3L6.50002 14.7Z" fill="#1A0826"/><path d="M14.8 9.89999L15.7 16.6H23.7L22.9 9.89999H14.8Z" fill="#AA8FFF"/><path d="M32.1 12.3C31.9 10.8 30.7 9.89999 29.1 9.89999H23.8L24.6 16.6H27L26.8 15.3H29.3C31.4 15.2 32.3 14 32.1 12.3ZM29.1 13.4H26.6L26.4 11.8H28.9C29.5 11.8 29.8 12.1 29.8 12.6C29.9 12.8 29.8 13.4 29.1 13.4V13.4Z" fill="#1A0826"/><path d="M17.3641 9.04155C17.7802 8.59891 17.6935 7.84143 17.1703 7.34968C16.6472 6.85793 15.8858 6.81812 15.4697 7.26077C15.0536 7.70342 15.1404 8.4609 15.6635 8.95265C16.1866 9.4444 16.948 9.4842 17.3641 9.04155Z" fill="#1A0826"/></svg>