<svg xmlns="http://www.w3.org/2000/svg" width="38" height="24" aria-labelledby="pi-zoodpay"><title id="pi-zoodpay">ZoodPay</title><path opacity=".07" fill="#000" d="M35 0H3C1.3 0 0 1.3 0 3v18c0 1.7 1.4 3 3 3h32c1.7 0 3-1.3 3-3V3c0-1.7-1.4-3-3-3z"/><path fill="#fff" d="M35 1c1.1 0 2 .9 2 2v18c0 1.1-.9 2-2 2H3c-1.1 0-2-.9-2-2V3c0-1.1.9-2 2-2h32"/><path d="M18.104 21.37H9.412l-.05-18.732h8.742v2.874h-4.091v2.229l7.284-.03-7.284 8.037v2.631h4.105l-.014 2.991z" fill="#118"/><path d="M19.893 2.63h8.695l.05 18.74h-8.745l-.014-2.994h4.106v-2.11l-7.287.028 7.287-8.04V5.508h-4.092V2.63z" fill="#118"/></svg>