<svg xmlns="http://www.w3.org/2000/svg" role="img" width="38" height="24" viewBox="0 0 38 24" fill="none" aria-labelledby="pi-zopa">
<title id="pi-zopa">Zopa</title>
<rect x="0.5" y="0.5" width="37" height="23.0001" rx="2.5" fill="#0E2C27"/>
<rect x="0.5" y="0.5" width="37" height="23.0001" rx="2.5" stroke="#DADCE2"/>
<path d="M6.64782 13.6496L10.3496 9.7451V8.1381H4.25707V9.87065H7.74036L4 13.7752V15.3822H10.4781V13.6496H6.64782ZM34 10.8123C34 9.00437 32.5604 8 30.7095 8C29.1028 8 27.7789 8.8035 27.3676 10.172L29.2956 10.6365C29.4499 9.95853 29.964 9.56934 30.7095 9.56934C31.365 9.56934 31.8406 9.94598 31.8406 10.5737V10.8374L29.9769 11.0759C28.563 11.2642 27.3033 11.8794 27.3033 13.3734C27.3033 14.6414 28.4987 15.5203 29.9512 15.5203C30.6581 15.5203 31.5321 15.1185 31.8406 14.5787V15.3822H34V10.8123ZM24.6684 11.7413C24.6684 12.7833 24.0771 13.7249 22.9846 13.7249C21.9563 13.7249 21.3008 12.9089 21.3008 11.7413C21.3008 10.7369 21.8535 9.78277 22.9846 9.78277C24.0257 9.78277 24.6684 10.6365 24.6684 11.7413ZM26.8535 11.7539C26.8535 9.55678 25.3882 8 23.3959 8C22.5604 8 21.7635 8.37664 21.3522 8.99182V8.1381H19.2057V17.4286H21.3522V14.5284C21.7764 15.1311 22.5604 15.5077 23.383 15.5077C25.3625 15.5077 26.8535 13.9635 26.8535 11.7539ZM14.5656 15.5203C16.8278 15.5203 18.4344 13.8881 18.4344 11.7539C18.4344 9.63211 16.8278 8 14.5656 8C12.3033 8 10.6967 9.63211 10.6967 11.7539C10.6967 13.8881 12.3033 15.5203 14.5656 15.5203ZM14.5656 13.7375C13.5373 13.7375 12.8817 12.9214 12.8817 11.7539C12.8817 10.5863 13.5373 9.78277 14.5656 9.78277C15.5938 9.78277 16.2494 10.5863 16.2494 11.7539C16.2494 12.9214 15.5938 13.7375 14.5656 13.7375ZM30.3496 12.482L31.8406 12.2309C31.8406 13.273 31.2365 14.0011 30.3625 14.0011C29.8997 14.0011 29.4884 13.7375 29.4884 13.2855C29.4884 12.7708 29.8355 12.595 30.3496 12.482Z" fill="white"/>
</svg>
