<svg xmlns="http://www.w3.org/2000/svg" role="img" viewBox="0 0 38 24" width="38" height="24" aria-labelledby="pi-simplepay"><title id="pi-simplepay">Simple Pay</title><path opacity=".07" d="M35 0H3C1.3 0 0 1.3 0 3v18c0 1.7 1.4 3 3 3h32c1.7 0 3-1.3 3-3V3c0-1.7-1.4-3-3-3z" fill="#000"/><rect x="1" y="1" width="36" height="22" rx="2" fill="#fff"/><path d="M5.747 13.826c.88 0 1.381-.416 1.381-1.141 0-.459-.219-.811-.709-1.126l-.363-.234c-.261-.166-.363-.31-.363-.491 0-.261.203-.4.608-.4.155 0 .342.021.555.048v-.619a3.98 3.98 0 00-.576-.048c-.805 0-1.28.39-1.28 1.04 0 .406.197.736.603 1.003l.416.267c.309.202.41.362.41.57 0 .32-.224.47-.698.47a6.92 6.92 0 01-.678-.043v.656c.315.037.523.048.694.048zm1.89-.048h.662v-2.821h-.662v2.821zm0-3.291h.662v-.826h-.662v.826zm1.286 1.611v1.68h.661v-1.696c0-.357.166-.571.464-.571.299 0 .48.214.48.592v1.675h.662v-1.675c0-.378.176-.592.48-.592.293 0 .464.214.464.571v1.696h.661v-1.68c0-.757-.411-1.205-1.083-1.205-.405 0-.698.16-.858.41-.16-.25-.454-.41-.854-.41-.672 0-1.077.448-1.077 1.205zm4.495 2.741h.662v-.677c0-.219-.006-.448-.016-.661.202.213.522.33.858.33.763 0 1.403-.602 1.403-1.461 0-.869-.64-1.467-1.403-1.467-.368 0-.714.144-.912.395l-.005-.341h-.587v3.882zm.614-2.469c0-.544.352-.859.805-.859.475 0 .821.347.821.859 0 .507-.346.853-.821.853-.453 0-.805-.314-.805-.853zm2.808 1.408h.662V9.661h-.662v4.117zm2.646.064a1.55 1.55 0 001.312-.693l-.437-.347a1.014 1.014 0 01-.859.469c-.48 0-.816-.309-.869-.757h2.17c.064-1.109-.608-1.616-1.354-1.616-.816 0-1.435.613-1.435 1.477 0 .848.592 1.467 1.472 1.467zm-.832-1.803a.795.795 0 01.789-.597c.374 0 .656.203.736.597h-1.525z" fill="#1A1A1A"/><rect x="21.808" y="8" width="11.111" height="8" rx="2.5" fill="#D0F451"/><path d="M23.128 13.779h.694v-1.504h.485c.827 0 1.344-.47 1.344-1.195 0-.757-.517-1.216-1.344-1.216h-1.179v3.915zm.694-2.139v-1.125h.485c.405 0 .64.213.64.565s-.235.56-.64.56h-.485zm3.448 2.192c.368 0 .71-.139.912-.395l.006.342h.586v-2.822h-.586l-.006.342c-.202-.256-.544-.395-.912-.395-.768 0-1.402.597-1.402 1.467 0 .858.634 1.461 1.402 1.461zm-.741-1.461c0-.512.352-.859.827-.859.448 0 .805.315.805.859 0 .538-.357.853-.805.853-.475 0-.827-.347-.827-.853zm3.262 2.469h.693l1.499-3.883h-.694l-.688 1.899-.741-1.899h-.736l1.131 2.704-.464 1.179z" fill="#1A1A1A"/></svg>