<svg viewBox="0 0 38 24" xmlns="http://www.w3.org/2000/svg" width="38" height="24" role="img" aria-labelledby="pi-klarna-pay-now"><title id="pi-klarna-pay-now">Klarna Pay Now</title><g fill="none" fill-rule="evenodd"><path d="M3 0h32a3 3 0 0 1 3 3v17.97a3 3 0 0 1-3 3H3a3 3 0 0 1-3-3V3a3 3 0 0 1 3-3z" fill="#FA82A0"/><path d="M19.75 15.138c-1.54 0-2.85-.974-3.326-2.324a1.395 1.395 0 0 0 1.901.103l.06-.05a1.33 1.33 0 0 0 .42-1.403c.22-.023.44-.094.64-.218.093.04.19.073.294.092l.653.143c-1.167.585-1.258 1.738-1.26 1.753a.35.35 0 0 0 .332.363h.022a.35.35 0 0 0 .352-.322c.004-.06.13-1.474 2.236-1.433h.006a.336.336 0 0 0 .126-.024c.01-.003.018-.01.028-.014a.445.445 0 0 0 .08-.05l.03-.034a.4.4 0 0 0 .045-.063c.01-.016.015-.032.02-.048.006-.013.013-.023.017-.036.002-.01 0-.022 0-.034.002-.012.008-.022.008-.035 0-.01-.006-.02-.006-.032a.373.373 0 0 0-.014-.068c-.007-.02-.014-.04-.024-.06a.294.294 0 0 0-.037-.055.337.337 0 0 0-.166-.113c-.01-.003-.02-.01-.032-.014l-2.274-.496a.685.685 0 0 1-.553-.803l.03-.147a.707.707 0 0 1 .806-.545l3.07.742c.253.05.545.192.545.87 0 2.83-2.076 4.358-4.03 4.358zm-4.85-6.11l.06-.05a.684.684 0 0 1 .948.07l2.087 2.37c.242.273.21.69-.07.925l-.06.05a.684.684 0 0 1-.948-.068l-2.087-2.37a.647.647 0 0 1 .07-.926zm1.303-1.798c.305-.256.737-.256.963 0l1.678 1.912a1.34 1.34 0 0 0-.176.438l-.03.146c-.074.372.013.74.213 1.032-.24.065-.492.012-.647-.164L16.06 8.162c-.225-.257-.162-.675.143-.932zm.863-4.56l-.008-.04a.618.618 0 0 1 .456-.75.634.634 0 0 1 .765.448l1.366 5.246c.006.022.018.04.027.06.006.013.01.026.017.038.023.035.05.067.084.09.003.004.006.004.01.006.03.023.067.04.106.05l.01.006c.01.002.02 0 .03 0 .02.005.038.01.058.01.012 0 .025-.003.037-.004.01 0 .02-.002.028-.003.008-.002.015 0 .022-.003.016-.004.027-.014.042-.02.023-.01.046-.017.067-.03.02-.014.034-.03.05-.044.015-.016.03-.03.044-.05a.274.274 0 0 0 .032-.064c.006-.014.016-.026.02-.042l1.367-5.246a.632.632 0 0 1 1.151-.164c.086.142.11.307.07.466l-.006.03-.99 6.222-1.604-.387a1.42 1.42 0 0 0-.968.164l-1.648-1.88c-.036-.04-.078-.072-.118-.107l-.518-4.003zm6.322 6.566l-.777-.187.998-6.27c.08-.33.026-.676-.154-.97a1.336 1.336 0 0 0-.82-.6c-.715-.175-1.442.25-1.622.948L19.988 6.09l-1.024-3.93c-.18-.7-.908-1.125-1.622-.95-.707.176-1.14.875-.975 1.566l.464 3.582c-.373-.03-.77.08-1.088.35-.444.373-.61.94-.473 1.43a1.369 1.369 0 0 0-.77.317l-.06.05a1.329 1.329 0 0 0-.145 1.9l1.234 1.403c.06 2.226 1.927 4.02 4.22 4.02 2.296 0 4.737-1.77 4.737-5.047 0-1.16-.7-1.467-1.1-1.544zM13.074 21.168h.998V16.37h-.998v4.798zm6.318-2.773v-.43h-.933v3.203h.943V19.49c0-.487.536-.7.905-.593h.01v-.93c-.386 0-.74.17-.926.428zm-3.21 2.032c-.488 0-.885-.385-.885-.86s.397-.86.885-.86c.49 0 .885.385.885.86s-.396.86-.885.86zm.876-2.24a1.617 1.617 0 0 0-.952-.31c-.91 0-1.65.757-1.65 1.69 0 .933.74 1.69 1.65 1.69.355 0 .683-.115.952-.31v.22h.815v-3.2h-.815v.22zm5.594-.308c-.374 0-.728.118-.965.446v-.36h-.932v3.202h.944v-1.752c0-.487.318-.725.7-.725.413 0 .65.253.65.72v1.758h.934v-2.036c0-.746-.578-1.253-1.332-1.253zm6.075 2.152a.595.595 0 0 0-.588.602c0 .333.262.602.587.602.324 0 .587-.27.587-.602a.595.595 0 0 0-.587-.602zm-2.685.395c-.49 0-.885-.385-.885-.86s.396-.86.885-.86c.488 0 .885.385.885.86s-.397.86-.885.86zm.876-2.24a1.62 1.62 0 0 0-.953-.31c-.91 0-1.65.757-1.65 1.69 0 .933.74 1.69 1.65 1.69.355 0 .684-.115.953-.31v.22h.815v-3.2h-.815v.22zm1.407-.163h.055c.035 0 .05.02.05.05 0 .03-.01.054-.05.054h-.055v-.104zm0 .113h.046l.04.09h.045l-.042-.097c.027-.013.04-.037.04-.07 0-.045-.033-.076-.082-.076h-.086v.242h.042v-.09zm-19.64 3.03h1.04V16.37h-1.04v4.798zm3.71-4.795h-1.01a2.847 2.847 0 0 1-1.517 2.48l1.552 2.316h1.267l-1.41-2.106a3.869 3.869 0 0 0 1.118-2.69zm15.965 1.55c.1 0 .18.085.18.187s-.08.185-.18.185c-.098 0-.178-.083-.178-.186s.08-.187.178-.187zm0 .417a.227.227 0 0 0 .222-.23c0-.128-.1-.23-.222-.23s-.22.102-.22.23c0 .126.098.23.22.23z" fill="#FFF"/></g></svg>