<svg xmlns="http://www.w3.org/2000/svg" viewBox="0 0 1583 557" fill="none">
    <path fill="#751DFF" fill-rule="evenodd" d="M1457.5 556.4H126.1C56.9 556.4.8 500.3.8 431.1V125.4C.8 56.2 56.9.1 126.1.1h1331.4c69.2 0 125.3 56.1 125.3 125.3v305.7c0 69.2-56.1 125.3-125.3 125.3Z" clip-rule="evenodd" />
    <path fill="#FFFFFF" d="M883.605 502v-87.273h20.838v33.026h.426c.853-1.989 2.06-3.906 3.622-5.753 1.591-1.847 3.608-3.352 6.052-4.517 2.471-1.193 5.426-1.79 8.863-1.79 4.546 0 8.793 1.193 12.742 3.58 3.977 2.386 7.187 6.065 9.63 11.037 2.444 4.971 3.665 11.306 3.665 19.005 0 7.415-1.179 13.623-3.537 18.623-2.329 5-5.483 8.75-9.46 11.25-3.949 2.5-8.338 3.75-13.168 3.75-3.295 0-6.15-.54-8.565-1.62-2.415-1.079-4.446-2.5-6.094-4.261-1.619-1.762-2.869-3.651-3.75-5.668h-.639V502h-20.625Zm20.412-32.727c0 3.522.469 6.591 1.406 9.204.966 2.614 2.344 4.645 4.134 6.094 1.818 1.42 3.991 2.131 6.52 2.131 2.557 0 4.73-.711 6.52-2.131 1.789-1.449 3.139-3.48 4.048-6.094.937-2.613 1.406-5.682 1.406-9.204 0-3.523-.469-6.577-1.406-9.162-.909-2.585-2.259-4.588-4.048-6.009-1.762-1.42-3.935-2.13-6.52-2.13-2.557 0-4.73.696-6.52 2.088-1.79 1.392-3.168 3.38-4.134 5.966-.937 2.585-1.406 5.667-1.406 9.247Zm66.978 57.272c-2.5 0-4.858-.198-7.074-.596-2.216-.369-4.119-.867-5.71-1.492l4.602-15.127c2.046.681 3.892 1.079 5.54 1.193 1.676.113 3.111-.157 4.304-.81 1.222-.625 2.159-1.747 2.812-3.366l.81-1.961-23.267-67.841h21.818l12.06 46.705h.682l12.23-46.705h21.948l-24.675 71.719c-1.194 3.58-2.884 6.733-5.071 9.46-2.16 2.756-4.958 4.915-8.395 6.478-3.409 1.562-7.614 2.343-12.614 2.343ZM1055.52 502v-87.273h21.09v36.904h1.15l28.85-36.904h24.85l-30.94 38.949L1132.01 502h-25.23l-21.73-34.304-8.44 10.653V502h-21.09Zm105.1-87.273V502h-20.84v-87.273h20.84Zm31.71 88.381c-4.18 0-7.88-.696-11.12-2.088-3.21-1.421-5.75-3.551-7.63-6.392-1.85-2.869-2.77-6.463-2.77-10.781 0-3.637.64-6.705 1.92-9.205 1.28-2.5 3.04-4.531 5.28-6.094 2.25-1.562 4.83-2.741 7.76-3.537 2.92-.824 6.05-1.377 9.37-1.662 3.72-.34 6.72-.696 8.99-1.065 2.28-.398 3.92-.952 4.95-1.662 1.05-.738 1.57-1.775 1.57-3.111v-.213c0-2.187-.75-3.878-2.25-5.071-1.51-1.193-3.54-1.789-6.1-1.789-2.75 0-4.97.596-6.65 1.789-1.67 1.193-2.74 2.841-3.19 4.943l-19.22-.681c.57-3.978 2.03-7.529 4.39-10.654 2.38-3.153 5.65-5.625 9.8-7.415 4.18-1.818 9.19-2.727 15.04-2.727 4.18 0 8.03.497 11.55 1.492 3.52.966 6.59 2.386 9.21 4.261 2.61 1.847 4.63 4.119 6.05 6.818 1.45 2.699 2.17 5.781 2.17 9.247V502h-19.6v-9.119h-.51c-1.17 2.216-2.66 4.091-4.48 5.625-1.79 1.534-3.9 2.684-6.35 3.451-2.41.767-5.14 1.151-8.18 1.151Zm6.43-13.636c2.25 0 4.27-.455 6.06-1.364 1.81-.909 3.26-2.159 4.34-3.75 1.08-1.619 1.62-3.494 1.62-5.625v-6.222c-.59.313-1.32.597-2.17.853-.83.255-1.73.497-2.73.724-.99.227-2.02.426-3.07.597-1.05.17-2.06.326-3.02.468-1.96.313-3.64.796-5.03 1.449-1.36.654-2.42 1.506-3.15 2.557-.71 1.023-1.07 2.244-1.07 3.665 0 2.159.77 3.807 2.3 4.943 1.56 1.136 3.54 1.705 5.92 1.705ZM1244.19 502v-65.455h20.24v11.932h.68c1.2-4.318 3.14-7.528 5.84-9.63 2.7-2.131 5.84-3.196 9.42-3.196.97 0 1.96.071 2.98.213 1.03.113 1.98.298 2.86.554v18.11c-1-.341-2.3-.61-3.92-.809-1.59-.199-3.01-.299-4.26-.299-2.48 0-4.71.554-6.69 1.662-1.96 1.08-3.51 2.6-4.65 4.56-1.11 1.932-1.66 4.205-1.66 6.818V502h-20.84Zm71.35-37.33V502h-20.84v-65.455h19.81v12.017h.73c1.45-4.005 3.92-7.144 7.41-9.417 3.5-2.301 7.66-3.452 12.49-3.452 4.6 0 8.59 1.037 11.97 3.111 3.41 2.045 6.05 4.915 7.93 8.608 1.9 3.665 2.84 7.954 2.81 12.869V502h-20.84v-37.628c.03-3.636-.89-6.477-2.77-8.523-1.84-2.045-4.41-3.068-7.71-3.068-2.19 0-4.12.483-5.79 1.449-1.65.938-2.93 2.287-3.84 4.048-.88 1.762-1.33 3.892-1.36 6.392Zm73.67 38.438c-4.18 0-7.89-.696-11.13-2.088-3.21-1.421-5.75-3.551-7.62-6.392-1.85-2.869-2.77-6.463-2.77-10.781 0-3.637.63-6.705 1.91-9.205 1.28-2.5 3.04-4.531 5.29-6.094 2.24-1.562 4.83-2.741 7.75-3.537 2.93-.824 6.05-1.377 9.38-1.662 3.72-.34 6.72-.696 8.99-1.065 2.27-.398 3.92-.952 4.94-1.662 1.05-.738 1.58-1.775 1.58-3.111v-.213c0-2.187-.75-3.878-2.26-5.071-1.51-1.193-3.54-1.789-6.09-1.789-2.76 0-4.97.596-6.65 1.789-1.68 1.193-2.74 2.841-3.2 4.943l-19.22-.681c.57-3.978 2.04-7.529 4.39-10.654 2.39-3.153 5.66-5.625 9.8-7.415 4.18-1.818 9.2-2.727 15.05-2.727 4.17 0 8.02.497 11.55 1.492 3.52.966 6.59 2.386 9.2 4.261 2.61 1.847 4.63 4.119 6.05 6.818 1.45 2.699 2.17 5.781 2.17 9.247V502h-19.6v-9.119h-.51c-1.16 2.216-2.66 4.091-4.47 5.625-1.79 1.534-3.91 2.684-6.35 3.451-2.42.767-5.14 1.151-8.18 1.151Zm6.43-13.636c2.24 0 4.26-.455 6.05-1.364 1.82-.909 3.27-2.159 4.35-3.75 1.08-1.619 1.62-3.494 1.62-5.625v-6.222c-.6.313-1.32.597-2.18.853-.82.255-1.73.497-2.72.724-1 .227-2.02.426-3.07.597-1.05.17-2.06.326-3.03.468-1.96.313-3.63.796-5.03 1.449-1.36.654-2.41 1.506-3.15 2.557-.71 1.023-1.06 2.244-1.06 3.665 0 2.159.76 3.807 2.3 4.943 1.56 1.136 3.53 1.705 5.92 1.705ZM978.2 200.1c-23.9 0-43.9 17.6-43.9 49.8 0 31.9 20 50.2 43.9 50.2 24.3 0 43.6-17.9 43.6-50.2 0-32.3-19.3-49.8-43.6-49.8Zm-342.4 59.1-39.6 6.1c-12.1 1.8-21.8 8.6-21.8 22.2 0 10.4 7.5 20.4 22.9 20.4 20 0 38.6-9.7 38.6-40.9v-7.8h-.1ZM510.1 78.9v259.5h-47.5V78.9h47.5Zm-213.5 54c26.3-26.4 69-26.4 95.4 0 26.3 26.4 26.2 69.2-.1 95.6l-1.1 1.1-103.6 103.9c-10.4 10.5-27.5 10.5-38 0l.6.5-111.2-111.6c-10.4-10.5-10.4-27.6 0-38.1l.7-.7c10.5-9.8 27.1-9.6 37.3.7l89.2 89.5s2.4 2.5 4.9 0l82-82.3 8.1-8.2c5.4-5.4 5.5-13.8.1-19.3-5.4-5.4-14.2-5.4-19.6 0l-7.9 8.2-45.1 45.3c-10.4 10.5-27.5 10.5-38 0l-54-54.2c-10.4-10.5-10.4-27.6 0-38.1l.7-.7c10.5-9.8 27.1-9.6 37.3.7l32.5 33.2s2.5 1.8 4.3 0l25.5-25.5Zm638.4-54v102.5c7.9-12.5 27.1-24 53.2-24 51.4 0 81.1 39.8 81.1 92.1 0 53.4-32.9 93.2-82.8 93.2-24.3 0-42.8-10.8-52.1-25.8v21.5h-46.1V78.9H935Zm196.8 83.2v101.8c0 19.7 10 35.5 32.1 35.5 21.1 0 33.2-14.3 33.2-34.8V162.1h47.5v144.4c0 13.6 1.1 25.8 1.8 31.9H1201c-.7-3.6-1.4-11.8-1.4-19-9.6 16.5-30 23.7-48.6 23.7-42.5 0-66.8-31.2-66.8-69.5V162.1h47.6Zm-526-5.4c55.7 0 76.4 31.5 76.4 67v86.7c0 9.3 1.1 21.9 2.1 28h-43.6c-1.1-4.7-1.8-14.3-1.8-21.1-8.9 14-25.7 26.2-51.8 26.2-37.5 0-60.3-25.4-60.3-53 0-31.5 23.2-49.1 52.5-53.4l43.2-6.4c10-1.4 13.2-6.5 13.2-12.5 0-12.5-9.6-22.9-29.6-22.9-20.7 0-32.1 13.3-33.6 28.7l-42.1-9c2.9-27.8 28.3-58.3 75.4-58.3Zm706.3 5.4 46.8 103.2 43.2-103.2h50.7L1342.4 408h-50.3l41.4-91.8-74.6-154.1h53.2Zm-577.4 0 46.8 103.2 43.2-103.2h50.7L765 408h-50.3l41.4-91.8-74.6-154.1h53.2Z" /></svg>