<svg width="38" height="24" viewBox="0 0 38 24" fill="none" xmlns="http://www.w3.org/2000/svg">
<rect width="38" height="24" rx="2" fill="white"/>
<rect x="0.5" y="0.5" width="37" height="23" rx="1.5" stroke="black" stroke-opacity="0.07"/>
<path fill-rule="evenodd" clip-rule="evenodd" d="M11.3194 10.3006C11.1365 10.0119 11.1441 9.62701 11.3856 9.3852L11.6514 9.11894C11.758 9.01221 11.758 8.83934 11.6515 8.73258C10.0952 7.17397 7.56283 7.1739 6.00653 8.73258C4.66202 10.0791 4.47989 12.1546 5.45858 13.6995C5.64141 13.9881 5.63381 14.373 5.39241 14.6147L5.12646 14.8811C5.0199 14.9878 5.01991 15.1607 5.1265 15.2674C6.6828 16.826 9.21505 16.826 10.7714 15.2674C12.1158 13.9209 12.298 11.8455 11.3194 10.3006ZM6.39345 9.11903C7.62589 7.88477 9.56748 7.78277 10.9172 8.81289C10.9993 8.87562 11.0039 8.99592 10.9309 9.06909L10.674 9.32634C10.6094 9.39098 10.5066 9.39546 10.4328 9.34173C9.36145 8.56251 7.85375 8.65645 6.88774 9.62383C5.92166 10.5914 5.82791 12.1016 6.60636 13.1746C6.65989 13.2483 6.65542 13.3509 6.59102 13.4154L6.34398 13.6628C6.27078 13.7361 6.15019 13.7315 6.08746 13.649C5.05919 12.2974 5.16121 10.3532 6.39345 9.11903ZM5.86253 15.1874C7.21221 16.2176 9.1538 16.1156 10.3862 14.8813C11.6185 13.6472 11.7204 11.703 10.6922 10.3514C10.6294 10.2689 10.5088 10.2643 10.4356 10.3376L10.1887 10.585C10.1243 10.6495 10.1198 10.752 10.1733 10.8258C10.9518 11.8988 10.858 13.409 9.89196 14.3766C8.92594 15.344 7.41825 15.4379 6.34691 14.6586C6.27304 14.6049 6.17024 14.6094 6.1057 14.674L5.84883 14.9313C5.77578 15.0044 5.78034 15.1247 5.86253 15.1874Z" fill="#15B79E"/>
<path d="M34.6219 9.01874V14.4134H33.6211V9.01874H34.6219Z" fill="#15B79E"/>
<path d="M30.8692 10.4455C31.4134 10.4455 31.8677 10.6419 32.2321 11.0346C32.5917 11.4227 32.7715 11.903 32.7715 12.4756C32.7715 13.0434 32.5893 13.5237 32.225 13.9165C31.8606 14.3093 31.4063 14.5057 30.8621 14.5057C30.3842 14.5057 29.9796 14.3258 29.6483 13.9662V16.0034H28.6475V10.5449H29.6412V11.0204C29.9725 10.6371 30.3818 10.4455 30.8692 10.4455ZM30.6917 13.59C31.0088 13.59 31.2667 13.4835 31.4654 13.2706C31.6642 13.0576 31.7636 12.795 31.7636 12.4827C31.7636 12.1704 31.6642 11.9077 31.4654 11.6948C31.2667 11.4818 31.0088 11.3754 30.6917 11.3754C30.3794 11.3754 30.1239 11.4818 29.9251 11.6948C29.7264 11.9077 29.627 12.1704 29.627 12.4827C29.627 12.795 29.7264 13.0576 29.9251 13.2706C30.1239 13.4835 30.3794 13.59 30.6917 13.59Z" fill="#15B79E"/>
<path d="M26.0713 10.4384C26.535 10.4384 26.9112 10.5827 27.1999 10.8714C27.498 11.16 27.6471 11.5623 27.6471 12.0781V14.4134H26.6462V12.2626C26.6462 11.9739 26.5752 11.7515 26.4333 11.5954C26.296 11.4392 26.1091 11.3611 25.8725 11.3611C25.617 11.3611 25.4111 11.4463 25.255 11.6167C25.0988 11.7823 25.0207 12.0071 25.0207 12.291V14.4134H24.0199V12.2697C24.0199 11.9858 23.9489 11.7634 23.8069 11.6025C23.6697 11.4416 23.4804 11.3611 23.2391 11.3611C22.993 11.3611 22.7895 11.4463 22.6286 11.6167C22.4725 11.787 22.3944 12.0142 22.3944 12.2981V14.4134H21.3936V10.5448H22.3731V11.0985C22.4819 10.895 22.6428 10.7341 22.8558 10.6158C23.0687 10.4928 23.3006 10.4336 23.5514 10.4384C23.7975 10.4384 24.0223 10.4975 24.2257 10.6158C24.4339 10.7341 24.5877 10.9021 24.6871 11.1198C24.8291 10.9069 25.0231 10.7412 25.2692 10.6229C25.5152 10.4999 25.7826 10.4384 26.0713 10.4384Z" fill="#15B79E"/>
<path d="M20.4807 9.4943C20.4807 9.66938 20.4215 9.81608 20.3032 9.93438C20.1849 10.0527 20.0382 10.1118 19.8631 10.1118C19.6881 10.1118 19.5414 10.0527 19.4231 9.93438C19.3048 9.81608 19.2456 9.66938 19.2456 9.4943C19.2456 9.31921 19.3048 9.17488 19.4231 9.06131C19.5414 8.943 19.6881 8.88385 19.8631 8.88385C20.0382 8.88385 20.1849 8.943 20.3032 9.06131C20.4215 9.17488 20.4807 9.31921 20.4807 9.4943ZM20.36 10.5448V14.4133H19.3592V10.5448H20.36Z" fill="#15B79E"/>
<path d="M16.5876 14.4986C16.1759 14.4986 15.795 14.4134 15.4448 14.243C15.0946 14.0727 14.813 13.8313 14.6001 13.519L15.2034 12.7879C15.5536 13.2753 16.0174 13.519 16.5947 13.519C16.8124 13.519 16.9922 13.467 17.1342 13.3629C17.2761 13.2587 17.3471 13.1239 17.3471 12.9583C17.3471 12.7406 17.1886 12.5584 16.8715 12.4117C16.8337 12.3928 16.6609 12.3242 16.3534 12.2058C16.112 12.1112 15.9062 12.0166 15.7358 11.9219C15.1821 11.6049 14.9053 11.1695 14.9053 10.6159C14.9053 10.1758 15.0709 9.81139 15.4022 9.52273C15.7382 9.22934 16.1688 9.08264 16.6941 9.08264C17.3755 9.08264 17.9504 9.31925 18.4189 9.79246L17.8582 10.5591C17.7162 10.4076 17.5388 10.2893 17.3258 10.2042C17.1176 10.1142 16.9117 10.0693 16.7083 10.0693C16.5 10.0693 16.3344 10.1166 16.2114 10.2113C16.0931 10.3012 16.0339 10.4218 16.0339 10.5733C16.0339 10.7767 16.1759 10.9495 16.4598 11.0914L16.978 11.3186C17.2714 11.4416 17.4843 11.5339 17.6168 11.5954C18.2131 11.8841 18.5112 12.3194 18.5112 12.9015C18.5112 13.37 18.3337 13.7533 17.9788 14.0514C17.6239 14.3495 17.1602 14.4986 16.5876 14.4986Z" fill="#15B79E"/>
</svg>
